<?xml version="1.0" encoding="UTF-8" standalone="no"?>
<!DOCTYPE svg PUBLIC "-//W3C//DTD SVG 1.1//EN"
 "http://www.w3.org/Graphics/SVG/1.1/DTD/svg11.dtd">
<!-- Generated by graphviz version 7.0.5 (20221223.1930)
 -->
<!-- Title: libs/JSystem/JGadget/binary.cpp Pages: 1 -->
<svg width="757pt" height="247pt"
 viewBox="0.00 0.00 757.00 247.00" xmlns="http://www.w3.org/2000/svg" xmlns:xlink="http://www.w3.org/1999/xlink">
<g id="graph0" class="graph" transform="scale(1 1) rotate(0) translate(4 243)">
<title>libs/JSystem/JGadget/binary.cpp</title>
<!-- Node1 -->
<g id="node1" class="node">
<title>Node1</title>
<g id="a_node1"><a xlink:title=" ">
<polygon fill="#999999" stroke="#666666" points="346,-239 233,-239 233,-209 346,-209 346,-239"/>
<text text-anchor="start" x="241" y="-227" font-family="Helvetica,sans-Serif" font-size="10.00">libs/JSystem/JGadget</text>
<text text-anchor="middle" x="289.5" y="-216" font-family="Helvetica,sans-Serif" font-size="10.00">/binary.cpp</text>
</a>
</g>
</g>
<!-- Node2 -->
<g id="node2" class="node">
<title>Node2</title>
<g id="a_node2"><a xlink:href="binary_8h.html" target="_top" xlink:title=" ">
<polygon fill="white" stroke="#666666" points="131,-156.5 0,-156.5 0,-137.5 131,-137.5 131,-156.5"/>
<text text-anchor="middle" x="65.5" y="-144.5" font-family="Helvetica,sans-Serif" font-size="10.00">JSystem/JGadget/binary.h</text>
</a>
</g>
</g>
<!-- Node1&#45;&gt;Node2 -->
<g id="edge1" class="edge">
<title>Node1&#45;&gt;Node2</title>
<path fill="none" stroke="#63b8ff" d="M246.31,-208.54C204.68,-194.6 142.34,-173.73 102.81,-160.49"/>
<polygon fill="#63b8ff" stroke="#63b8ff" points="104.09,-157.23 93.5,-157.37 101.87,-163.87 104.09,-157.23"/>
</g>
<!-- Node3 -->
<g id="node3" class="node">
<title>Node3</title>
<g id="a_node3"><a xlink:href="types_8h.html" target="_top" xlink:title=" ">
<polygon fill="white" stroke="#666666" points="153,-85 72,-85 72,-66 153,-66 153,-85"/>
<text text-anchor="middle" x="112.5" y="-73" font-family="Helvetica,sans-Serif" font-size="10.00">dolphin/types.h</text>
</a>
</g>
</g>
<!-- Node1&#45;&gt;Node3 -->
<g id="edge4" class="edge">
<title>Node1&#45;&gt;Node3</title>
<path fill="none" stroke="#63b8ff" d="M243.83,-208.59C222.73,-200.42 198.27,-188.66 179.5,-173 172.41,-167.09 141.84,-121.27 124.54,-94.95"/>
<polygon fill="#63b8ff" stroke="#63b8ff" points="127.48,-93.05 119.08,-86.6 121.63,-96.88 127.48,-93.05"/>
</g>
<!-- Node5 -->
<g id="node5" class="node">
<title>Node5</title>
<g id="a_node5"><a xlink:title=" ">
<polygon fill="#e0e0e0" stroke="#999999" points="391,-173 188,-173 188,-121 391,-121 391,-173"/>
<text text-anchor="start" x="196" y="-161" font-family="Helvetica,sans-Serif" font-size="10.00">asm/JSystem/JGadget</text>
<text text-anchor="start" x="196" y="-150" font-family="Helvetica,sans-Serif" font-size="10.00">/binary/parseVariableUInt</text>
<text text-anchor="start" x="196" y="-139" font-family="Helvetica,sans-Serif" font-size="10.00">_16_32_following__Q27JGadget6binary</text>
<text text-anchor="middle" x="289.5" y="-128" font-family="Helvetica,sans-Serif" font-size="10.00">FPCvPUlPUlPQ37JGadget6binary5TEBit.s</text>
</a>
</g>
</g>
<!-- Node1&#45;&gt;Node5 -->
<g id="edge5" class="edge">
<title>Node1&#45;&gt;Node5</title>
<path fill="none" stroke="#63b8ff" d="M289.5,-208.54C289.5,-201.69 289.5,-193.17 289.5,-184.7"/>
<polygon fill="#63b8ff" stroke="#63b8ff" points="293,-184.87 289.5,-174.87 286,-184.87 293,-184.87"/>
</g>
<!-- Node6 -->
<g id="node6" class="node">
<title>Node6</title>
<g id="a_node6"><a xlink:title=" ">
<polygon fill="#e0e0e0" stroke="#999999" points="582,-167.5 409,-167.5 409,-126.5 582,-126.5 582,-167.5"/>
<text text-anchor="start" x="417" y="-155.5" font-family="Helvetica,sans-Serif" font-size="10.00">asm/JSystem/JGadget</text>
<text text-anchor="start" x="417" y="-144.5" font-family="Helvetica,sans-Serif" font-size="10.00">/binary/__dt__Q37JGadget6binary19</text>
<text text-anchor="middle" x="495.5" y="-133.5" font-family="Helvetica,sans-Serif" font-size="10.00">TParse_header_blockFv.s</text>
</a>
</g>
</g>
<!-- Node1&#45;&gt;Node6 -->
<g id="edge6" class="edge">
<title>Node1&#45;&gt;Node6</title>
<path fill="none" stroke="#63b8ff" d="M329.22,-208.54C357.81,-198.13 397.02,-183.85 430.18,-171.78"/>
<polygon fill="#63b8ff" stroke="#63b8ff" points="431.1,-175.17 439.3,-168.46 428.7,-168.59 431.1,-175.17"/>
</g>
<!-- Node7 -->
<g id="node7" class="node">
<title>Node7</title>
<g id="a_node7"><a xlink:title=" ">
<polygon fill="#e0e0e0" stroke="#999999" points="749,-173 600,-173 600,-121 749,-121 749,-173"/>
<text text-anchor="start" x="608" y="-161" font-family="Helvetica,sans-Serif" font-size="10.00">asm/JSystem/JGadget</text>
<text text-anchor="start" x="608" y="-150" font-family="Helvetica,sans-Serif" font-size="10.00">/binary/parse_next_</text>
<text text-anchor="start" x="608" y="-139" font-family="Helvetica,sans-Serif" font-size="10.00">_Q37JGadget6binary19TParse</text>
<text text-anchor="middle" x="674.5" y="-128" font-family="Helvetica,sans-Serif" font-size="10.00">_header_blockFPPCvUl.s</text>
</a>
</g>
</g>
<!-- Node1&#45;&gt;Node7 -->
<g id="edge7" class="edge">
<title>Node1&#45;&gt;Node7</title>
<path fill="none" stroke="#63b8ff" d="M346.42,-215.8C405.01,-207.89 499.08,-193.82 588.37,-173.62"/>
<polygon fill="#63b8ff" stroke="#63b8ff" points="589.08,-177.05 598.04,-171.4 587.51,-170.22 589.08,-177.05"/>
</g>
<!-- Node2&#45;&gt;Node3 -->
<g id="edge2" class="edge">
<title>Node2&#45;&gt;Node3</title>
<path fill="none" stroke="#63b8ff" d="M71.45,-137.2C78.62,-126.6 90.84,-108.53 100.09,-94.86"/>
<polygon fill="#63b8ff" stroke="#63b8ff" points="102.9,-96.95 105.6,-86.7 97.1,-93.03 102.9,-96.95"/>
</g>
<!-- Node4 -->
<g id="node4" class="node">
<title>Node4</title>
<g id="a_node4"><a xlink:href="stddef_8h.html" target="_top" xlink:title=" ">
<polygon fill="white" stroke="#666666" points="180.5,-30 44.5,-30 44.5,0 180.5,0 180.5,-30"/>
<text text-anchor="start" x="52.5" y="-18" font-family="Helvetica,sans-Serif" font-size="10.00">MSL_C/MSL_Common/Src</text>
<text text-anchor="middle" x="112.5" y="-7" font-family="Helvetica,sans-Serif" font-size="10.00">/stddef.h</text>
</a>
</g>
</g>
<!-- Node3&#45;&gt;Node4 -->
<g id="edge3" class="edge">
<title>Node3&#45;&gt;Node4</title>
<path fill="none" stroke="#63b8ff" d="M112.5,-65.87C112.5,-59.4 112.5,-50.2 112.5,-41.45"/>
<polygon fill="#63b8ff" stroke="#63b8ff" points="116,-41.63 112.5,-31.63 109,-41.63 116,-41.63"/>
</g>
</g>
</svg>
