<?xml version="1.0" encoding="UTF-8" standalone="no"?>
<!DOCTYPE svg PUBLIC "-//W3C//DTD SVG 1.1//EN"
 "http://www.w3.org/Graphics/SVG/1.1/DTD/svg11.dtd">
<!-- Generated by graphviz version 7.0.5 (20221223.1930)
 -->
<!-- Title: include/SSystem/SComponent/c_bg_s_chk.h Pages: 1 -->
<svg width="2177pt" height="511pt"
 viewBox="0.00 0.00 2177.00 511.00" xmlns="http://www.w3.org/2000/svg" xmlns:xlink="http://www.w3.org/1999/xlink">
<g id="graph0" class="graph" transform="scale(1 1) rotate(0) translate(4 507)">
<title>include/SSystem/SComponent/c_bg_s_chk.h</title>
<!-- Node1 -->
<g id="node1" class="node">
<title>Node1</title>
<g id="a_node1"><a xlink:title=" ">
<polygon fill="#999999" stroke="#666666" points="1736.5,-503 1587.5,-503 1587.5,-473 1736.5,-473 1736.5,-503"/>
<text text-anchor="start" x="1595.5" y="-491" font-family="Helvetica,sans-Serif" font-size="10.00">include/SSystem/SComponent</text>
<text text-anchor="middle" x="1662" y="-480" font-family="Helvetica,sans-Serif" font-size="10.00">/c_bg_s_chk.h</text>
</a>
</g>
</g>
<!-- Node2 -->
<g id="node2" class="node">
<title>Node2</title>
<g id="a_node2"><a xlink:href="c__bg__s__gnd__chk_8h.html" target="_top" xlink:title=" ">
<polygon fill="white" stroke="#666666" points="1145.5,-437 996.5,-437 996.5,-407 1145.5,-407 1145.5,-437"/>
<text text-anchor="start" x="1004.5" y="-425" font-family="Helvetica,sans-Serif" font-size="10.00">include/SSystem/SComponent</text>
<text text-anchor="middle" x="1071" y="-414" font-family="Helvetica,sans-Serif" font-size="10.00">/c_bg_s_gnd_chk.h</text>
</a>
</g>
</g>
<!-- Node1&#45;&gt;Node2 -->
<g id="edge1" class="edge">
<title>Node1&#45;&gt;Node2</title>
<path fill="none" stroke="#63b8ff" d="M1575.85,-478.43C1480.28,-468.82 1321.54,-452.54 1185,-437 1172.32,-435.56 1158.86,-433.96 1145.79,-432.38"/>
<polygon fill="#63b8ff" stroke="#63b8ff" points="1575.38,-481.9 1585.68,-479.42 1576.08,-474.94 1575.38,-481.9"/>
</g>
<!-- Node219 -->
<g id="node33" class="node">
<title>Node219</title>
<g id="a_node33"><a xlink:href="c__bg__s__lin__chk_8h.html" target="_top" xlink:title=" ">
<polygon fill="white" stroke="#666666" points="1343.5,-437 1194.5,-437 1194.5,-407 1343.5,-407 1343.5,-437"/>
<text text-anchor="start" x="1202.5" y="-425" font-family="Helvetica,sans-Serif" font-size="10.00">include/SSystem/SComponent</text>
<text text-anchor="middle" x="1269" y="-414" font-family="Helvetica,sans-Serif" font-size="10.00">/c_bg_s_lin_chk.h</text>
</a>
</g>
</g>
<!-- Node1&#45;&gt;Node219 -->
<g id="edge37" class="edge">
<title>Node1&#45;&gt;Node219</title>
<path fill="none" stroke="#63b8ff" d="M1575.84,-472.97C1506.5,-461.68 1410.05,-445.97 1343.9,-435.2"/>
<polygon fill="#63b8ff" stroke="#63b8ff" points="1575.23,-476.42 1585.66,-474.57 1576.35,-469.51 1575.23,-476.42"/>
</g>
<!-- Node224 -->
<g id="node38" class="node">
<title>Node224</title>
<g id="a_node38"><a xlink:href="c__bg__s__shdw__draw_8h.html" target="_top" xlink:title=" ">
<polygon fill="white" stroke="#666666" points="1839.5,-437 1690.5,-437 1690.5,-407 1839.5,-407 1839.5,-437"/>
<text text-anchor="start" x="1698.5" y="-425" font-family="Helvetica,sans-Serif" font-size="10.00">include/SSystem/SComponent</text>
<text text-anchor="middle" x="1765" y="-414" font-family="Helvetica,sans-Serif" font-size="10.00">/c_bg_s_shdw_draw.h</text>
</a>
</g>
</g>
<!-- Node1&#45;&gt;Node224 -->
<g id="edge48" class="edge">
<title>Node1&#45;&gt;Node224</title>
<path fill="none" stroke="#63b8ff" d="M1694.77,-466.64C1710.13,-457.09 1728.06,-445.95 1741.96,-437.31"/>
<polygon fill="#63b8ff" stroke="#63b8ff" points="1693.05,-463.59 1686.4,-471.84 1696.74,-469.53 1693.05,-463.59"/>
</g>
<!-- Node226 -->
<g id="node41" class="node">
<title>Node226</title>
<g id="a_node41"><a xlink:href="d__bg__s__cap__poly_8h.html" target="_top" xlink:title=" ">
<polygon fill="white" stroke="#666666" points="1762,-305 1658,-305 1658,-275 1762,-275 1762,-305"/>
<text text-anchor="start" x="1666" y="-293" font-family="Helvetica,sans-Serif" font-size="10.00">include/d/bg/d_bg_s</text>
<text text-anchor="middle" x="1710" y="-282" font-family="Helvetica,sans-Serif" font-size="10.00">_cap_poly.h</text>
</a>
</g>
</g>
<!-- Node1&#45;&gt;Node226 -->
<g id="edge52" class="edge">
<title>Node1&#45;&gt;Node226</title>
<path fill="none" stroke="#63b8ff" d="M1668.25,-461.49C1678.46,-419.81 1698.38,-338.44 1706.47,-305.43"/>
<polygon fill="#63b8ff" stroke="#63b8ff" points="1664.87,-460.57 1665.89,-471.12 1671.67,-462.24 1664.87,-460.57"/>
</g>
<!-- Node227 -->
<g id="node42" class="node">
<title>Node227</title>
<g id="a_node42"><a xlink:href="d__bg__s__grp__pass__chk_8h.html" target="_top" xlink:title=" ">
<polygon fill="white" stroke="#666666" points="1586,-437 1482,-437 1482,-407 1586,-407 1586,-437"/>
<text text-anchor="start" x="1490" y="-425" font-family="Helvetica,sans-Serif" font-size="10.00">include/d/bg/d_bg_s</text>
<text text-anchor="middle" x="1534" y="-414" font-family="Helvetica,sans-Serif" font-size="10.00">_grp_pass_chk.h</text>
</a>
</g>
</g>
<!-- Node1&#45;&gt;Node227 -->
<g id="edge54" class="edge">
<title>Node1&#45;&gt;Node227</title>
<path fill="none" stroke="#63b8ff" d="M1623.18,-467.59C1603.68,-457.84 1580.48,-446.24 1562.63,-437.31"/>
<polygon fill="#63b8ff" stroke="#63b8ff" points="1621.41,-470.62 1631.92,-471.96 1624.54,-464.36 1621.41,-470.62"/>
</g>
<!-- Node239 -->
<g id="node49" class="node">
<title>Node239</title>
<g id="a_node49"><a xlink:href="c__bg__s__chk_8cpp.html" target="_top" xlink:title=" ">
<polygon fill="white" stroke="#666666" points="1992,-437 1858,-437 1858,-407 1992,-407 1992,-437"/>
<text text-anchor="start" x="1866" y="-425" font-family="Helvetica,sans-Serif" font-size="10.00">libs/SSystem/SComponent</text>
<text text-anchor="middle" x="1925" y="-414" font-family="Helvetica,sans-Serif" font-size="10.00">/c_bg_s_chk.cpp</text>
</a>
</g>
</g>
<!-- Node1&#45;&gt;Node239 -->
<g id="edge66" class="edge">
<title>Node1&#45;&gt;Node239</title>
<path fill="none" stroke="#63b8ff" d="M1732.53,-469.84C1774.2,-459.7 1826.36,-447 1865.87,-437.39"/>
<polygon fill="#63b8ff" stroke="#63b8ff" points="1731.71,-466.43 1722.82,-472.2 1733.36,-473.24 1731.71,-466.43"/>
</g>
<!-- Node240 -->
<g id="node50" class="node">
<title>Node240</title>
<g id="a_node50"><a xlink:href="d__bg__w__sv_8cpp.html" target="_top" xlink:title=" ">
<polygon fill="white" stroke="#666666" points="2132,-431.5 2010,-431.5 2010,-412.5 2132,-412.5 2132,-431.5"/>
<text text-anchor="middle" x="2071" y="-419.5" font-family="Helvetica,sans-Serif" font-size="10.00">src/d/bg/d_bg_w_sv.cpp</text>
</a>
</g>
</g>
<!-- Node1&#45;&gt;Node240 -->
<g id="edge67" class="edge">
<title>Node1&#45;&gt;Node240</title>
<path fill="none" stroke="#63b8ff" d="M1748.09,-475.54C1816.72,-466.1 1915.22,-451.89 2001,-437 2009.79,-435.47 2019.18,-433.7 2028.12,-431.93"/>
<polygon fill="#63b8ff" stroke="#63b8ff" points="1747.84,-472.04 1738.41,-476.86 1748.79,-478.97 1747.84,-472.04"/>
</g>
<!-- Node3 -->
<g id="node3" class="node">
<title>Node3</title>
<g id="a_node3"><a xlink:href="d__bg__s__gnd__chk_8h.html" target="_top" xlink:title=" ">
<polygon fill="white" stroke="#666666" points="1028,-305 924,-305 924,-275 1028,-275 1028,-305"/>
<text text-anchor="start" x="932" y="-293" font-family="Helvetica,sans-Serif" font-size="10.00">include/d/bg/d_bg_s</text>
<text text-anchor="middle" x="976" y="-282" font-family="Helvetica,sans-Serif" font-size="10.00">_gnd_chk.h</text>
</a>
</g>
</g>
<!-- Node2&#45;&gt;Node3 -->
<g id="edge2" class="edge">
<title>Node2&#45;&gt;Node3</title>
<path fill="none" stroke="#63b8ff" d="M1028.41,-400.86C1016,-393.11 1003.51,-383.15 995,-371 981.08,-351.12 977.27,-322.37 976.28,-305.29"/>
<polygon fill="#63b8ff" stroke="#63b8ff" points="1026.55,-403.83 1036.96,-405.83 1030.07,-397.78 1026.55,-403.83"/>
</g>
<!-- Node218 -->
<g id="node32" class="node">
<title>Node218</title>
<g id="a_node32"><a xlink:href="c__bg__s__gnd__chk_8cpp.html" target="_top" xlink:title=" ">
<polygon fill="white" stroke="#666666" points="1138,-371 1004,-371 1004,-341 1138,-341 1138,-371"/>
<text text-anchor="start" x="1012" y="-359" font-family="Helvetica,sans-Serif" font-size="10.00">libs/SSystem/SComponent</text>
<text text-anchor="middle" x="1071" y="-348" font-family="Helvetica,sans-Serif" font-size="10.00">/c_bg_s_gnd_chk.cpp</text>
</a>
</g>
</g>
<!-- Node2&#45;&gt;Node218 -->
<g id="edge36" class="edge">
<title>Node2&#45;&gt;Node218</title>
<path fill="none" stroke="#63b8ff" d="M1071,-395.39C1071,-387.13 1071,-378.28 1071,-371.16"/>
<polygon fill="#63b8ff" stroke="#63b8ff" points="1067.5,-395.28 1071,-405.28 1074.5,-395.28 1067.5,-395.28"/>
</g>
<!-- Node4 -->
<g id="node4" class="node">
<title>Node4</title>
<g id="a_node4"><a xlink:href="d__bg__s__acch_8h.html" target="_top" xlink:title=" ">
<polygon fill="white" stroke="#666666" points="1271,-239 1167,-239 1167,-209 1271,-209 1271,-239"/>
<text text-anchor="start" x="1175" y="-227" font-family="Helvetica,sans-Serif" font-size="10.00">include/d/bg/d_bg_s</text>
<text text-anchor="middle" x="1219" y="-216" font-family="Helvetica,sans-Serif" font-size="10.00">_acch.h</text>
</a>
</g>
</g>
<!-- Node3&#45;&gt;Node4 -->
<g id="edge3" class="edge">
<title>Node3&#45;&gt;Node4</title>
<path fill="none" stroke="#63b8ff" d="M1039.55,-272.26C1079.12,-261.84 1129.4,-248.6 1166.67,-238.78"/>
<polygon fill="#63b8ff" stroke="#63b8ff" points="1038.67,-268.87 1029.89,-274.81 1040.45,-275.64 1038.67,-268.87"/>
</g>
<!-- Node212 -->
<g id="node29" class="node">
<title>Node212</title>
<g id="a_node29"><a xlink:href="d__camera_8h.html" target="_top" xlink:title=" ">
<polygon fill="white" stroke="#666666" points="304.5,-162 195.5,-162 195.5,-143 304.5,-143 304.5,-162"/>
<text text-anchor="middle" x="250" y="-150" font-family="Helvetica,sans-Serif" font-size="10.00">include/d/d_camera.h</text>
</a>
</g>
</g>
<!-- Node3&#45;&gt;Node212 -->
<g id="edge32" class="edge">
<title>Node3&#45;&gt;Node212</title>
<path fill="none" stroke="#63b8ff" d="M912.14,-280.58C793.28,-264.3 530.39,-225.44 313,-173 300.76,-170.05 287.4,-166.03 276.15,-162.41"/>
<polygon fill="#63b8ff" stroke="#63b8ff" points="911.65,-284.05 922.03,-281.93 912.6,-277.11 911.65,-284.05"/>
</g>
<!-- Node217 -->
<g id="node31" class="node">
<title>Node217</title>
<g id="a_node31"><a xlink:href="d__bg__s__gnd__chk_8cpp.html" target="_top" xlink:title=" ">
<polygon fill="white" stroke="#666666" points="829.5,-239 722.5,-239 722.5,-209 829.5,-209 829.5,-239"/>
<text text-anchor="start" x="730.5" y="-227" font-family="Helvetica,sans-Serif" font-size="10.00">src/d/bg/d_bg_s_gnd</text>
<text text-anchor="middle" x="776" y="-216" font-family="Helvetica,sans-Serif" font-size="10.00">_chk.cpp</text>
</a>
</g>
</g>
<!-- Node3&#45;&gt;Node217 -->
<g id="edge35" class="edge">
<title>Node3&#45;&gt;Node217</title>
<path fill="none" stroke="#63b8ff" d="M920.37,-271.2C889.07,-261.18 850.48,-248.83 821.08,-239.43"/>
<polygon fill="#63b8ff" stroke="#63b8ff" points="919.08,-274.46 929.67,-274.18 921.22,-267.79 919.08,-274.46"/>
</g>
<!-- Node5 -->
<g id="node5" class="node">
<title>Node5</title>
<g id="a_node5"><a xlink:href="d__a__alink_8h.html" target="_top" xlink:title=" ">
<polygon fill="white" stroke="#666666" points="1087,-162 971,-162 971,-143 1087,-143 1087,-162"/>
<text text-anchor="middle" x="1029" y="-150" font-family="Helvetica,sans-Serif" font-size="10.00">include/d/a/d_a_alink.h</text>
</a>
</g>
</g>
<!-- Node4&#45;&gt;Node5 -->
<g id="edge4" class="edge">
<title>Node4&#45;&gt;Node5</title>
<path fill="none" stroke="#63b8ff" d="M1169,-204.71C1131.79,-191.1 1082.62,-173.11 1053.55,-162.48"/>
<polygon fill="#63b8ff" stroke="#63b8ff" points="1167.62,-207.93 1178.21,-208.08 1170.02,-201.36 1167.62,-207.93"/>
</g>
<!-- Node14 -->
<g id="node14" class="node">
<title>Node14</title>
<g id="a_node14"><a xlink:href="d__a__itembase_8h.html" target="_top" xlink:title=" ">
<polygon fill="#fff0f0" stroke="red" points="1779.5,-162 1644.5,-162 1644.5,-143 1779.5,-143 1779.5,-162"/>
<text text-anchor="middle" x="1712" y="-150" font-family="Helvetica,sans-Serif" font-size="10.00">include/d/a/d_a_itembase.h</text>
</a>
</g>
</g>
<!-- Node4&#45;&gt;Node14 -->
<g id="edge13" class="edge">
<title>Node4&#45;&gt;Node14</title>
<path fill="none" stroke="#63b8ff" d="M1282.74,-217.99C1364.88,-210.93 1511.89,-196.26 1636,-173 1651,-170.19 1667.42,-166.11 1681.15,-162.4"/>
<polygon fill="#63b8ff" stroke="#63b8ff" points="1282.52,-214.49 1272.85,-218.83 1283.11,-221.47 1282.52,-214.49"/>
</g>
<!-- Node204 -->
<g id="node15" class="node">
<title>Node204</title>
<g id="a_node15"><a xlink:href="d__bomb_8h.html" target="_top" xlink:title=" ">
<polygon fill="white" stroke="#666666" points="661.5,-162 560.5,-162 560.5,-143 661.5,-143 661.5,-162"/>
<text text-anchor="middle" x="611" y="-150" font-family="Helvetica,sans-Serif" font-size="10.00">include/d/d_bomb.h</text>
</a>
</g>
</g>
<!-- Node4&#45;&gt;Node204 -->
<g id="edge14" class="edge">
<title>Node4&#45;&gt;Node204</title>
<path fill="none" stroke="#63b8ff" d="M1155.74,-219.06C1031.84,-211.05 761.32,-191.99 670,-173 657.85,-170.47 644.71,-166.28 633.92,-162.43"/>
<polygon fill="#63b8ff" stroke="#63b8ff" points="1155.19,-222.53 1165.4,-219.68 1155.64,-215.55 1155.19,-222.53"/>
</g>
<!-- Node206 -->
<g id="node18" class="node">
<title>Node206</title>
<g id="a_node18"><a xlink:href="d__a__boomerang_8h.html" target="_top" xlink:title=" ">
<polygon fill="white" stroke="#666666" points="828.5,-167.5 679.5,-167.5 679.5,-137.5 828.5,-137.5 828.5,-167.5"/>
<text text-anchor="start" x="687.5" y="-155.5" font-family="Helvetica,sans-Serif" font-size="10.00">include/rel/d/a/d_a</text>
<text text-anchor="middle" x="754" y="-144.5" font-family="Helvetica,sans-Serif" font-size="10.00">_boomerang/d_a_boomerang.h</text>
</a>
</g>
</g>
<!-- Node4&#45;&gt;Node206 -->
<g id="edge17" class="edge">
<title>Node4&#45;&gt;Node206</title>
<path fill="none" stroke="#63b8ff" d="M1155.43,-216.58C1079.55,-208.47 948.98,-193.11 838,-173 829.9,-171.53 821.4,-169.79 813.05,-167.97"/>
<polygon fill="#63b8ff" stroke="#63b8ff" points="1154.86,-220.04 1165.17,-217.61 1155.59,-213.08 1154.86,-220.04"/>
</g>
<!-- Node207 -->
<g id="node19" class="node">
<title>Node207</title>
<g id="a_node19"><a xlink:href="d__a__canoe_8h.html" target="_top" xlink:title=" ">
<polygon fill="white" stroke="#666666" points="953,-167.5 847,-167.5 847,-137.5 953,-137.5 953,-167.5"/>
<text text-anchor="start" x="855" y="-155.5" font-family="Helvetica,sans-Serif" font-size="10.00">include/rel/d/a/d_a</text>
<text text-anchor="middle" x="900" y="-144.5" font-family="Helvetica,sans-Serif" font-size="10.00">_canoe/d_a_canoe.h</text>
</a>
</g>
</g>
<!-- Node4&#45;&gt;Node207 -->
<g id="edge19" class="edge">
<title>Node4&#45;&gt;Node207</title>
<path fill="none" stroke="#63b8ff" d="M1155.82,-212.75C1103.53,-203.78 1027.47,-189.61 962,-173 956.09,-171.5 949.92,-169.77 943.86,-167.96"/>
<polygon fill="#63b8ff" stroke="#63b8ff" points="1155,-216.16 1165.44,-214.39 1156.17,-209.26 1155,-216.16"/>
</g>
<!-- Node208 -->
<g id="node20" class="node">
<title>Node208</title>
<g id="a_node20"><a xlink:href="d__a__cstatue_8h.html" target="_top" xlink:title=" ">
<polygon fill="white" stroke="#666666" points="1477,-167.5 1359,-167.5 1359,-137.5 1477,-137.5 1477,-167.5"/>
<text text-anchor="start" x="1367" y="-155.5" font-family="Helvetica,sans-Serif" font-size="10.00">include/rel/d/a/d_a</text>
<text text-anchor="middle" x="1418" y="-144.5" font-family="Helvetica,sans-Serif" font-size="10.00">_cstatue/d_a_cstatue.h</text>
</a>
</g>
</g>
<!-- Node4&#45;&gt;Node208 -->
<g id="edge20" class="edge">
<title>Node4&#45;&gt;Node208</title>
<path fill="none" stroke="#63b8ff" d="M1271.05,-204.82C1304.05,-193.3 1346.15,-178.59 1376.82,-167.88"/>
<polygon fill="#63b8ff" stroke="#63b8ff" points="1269.95,-201.5 1261.66,-208.1 1272.26,-208.11 1269.95,-201.5"/>
</g>
<!-- Node209 -->
<g id="node21" class="node">
<title>Node209</title>
<g id="a_node21"><a xlink:href="d__a__horse_8h.html" target="_top" xlink:title=" ">
<polygon fill="white" stroke="#666666" points="1206.5,-167.5 1105.5,-167.5 1105.5,-137.5 1206.5,-137.5 1206.5,-167.5"/>
<text text-anchor="start" x="1113.5" y="-155.5" font-family="Helvetica,sans-Serif" font-size="10.00">include/rel/d/a/d_a</text>
<text text-anchor="middle" x="1156" y="-144.5" font-family="Helvetica,sans-Serif" font-size="10.00">_horse/d_a_horse.h</text>
</a>
</g>
</g>
<!-- Node4&#45;&gt;Node209 -->
<g id="edge21" class="edge">
<title>Node4&#45;&gt;Node209</title>
<path fill="none" stroke="#63b8ff" d="M1198.3,-200.17C1188.66,-189.53 1177.48,-177.2 1169.04,-167.88"/>
<polygon fill="#63b8ff" stroke="#63b8ff" points="1195.62,-202.42 1204.93,-207.48 1200.81,-197.72 1195.62,-202.42"/>
</g>
<!-- Node91 -->
<g id="node26" class="node">
<title>Node91</title>
<g id="a_node26"><a xlink:href="d__a__obj__carry_8h.html" target="_top" xlink:title=" ">
<polygon fill="#fff0f0" stroke="red" points="1341,-173 1225,-173 1225,-132 1341,-132 1341,-173"/>
<text text-anchor="start" x="1233" y="-161" font-family="Helvetica,sans-Serif" font-size="10.00">include/rel/d/a/obj</text>
<text text-anchor="start" x="1233" y="-150" font-family="Helvetica,sans-Serif" font-size="10.00">/d_a_obj_carry/d_a_obj</text>
<text text-anchor="middle" x="1283" y="-139" font-family="Helvetica,sans-Serif" font-size="10.00">_carry.h</text>
</a>
</g>
</g>
<!-- Node4&#45;&gt;Node91 -->
<g id="edge28" class="edge">
<title>Node4&#45;&gt;Node91</title>
<path fill="none" stroke="#63b8ff" d="M1239.82,-200.39C1247.83,-191.69 1256.9,-181.84 1264.66,-173.42"/>
<polygon fill="#63b8ff" stroke="#63b8ff" points="1237.49,-197.76 1233.29,-207.49 1242.63,-202.5 1237.49,-197.76"/>
</g>
<!-- Node210 -->
<g id="node27" class="node">
<title>Node210</title>
<g id="a_node27"><a xlink:href="d__a__obj__suisya_8h.html" target="_top" xlink:title=" ">
<polygon fill="white" stroke="#666666" points="1902.5,-173 1797.5,-173 1797.5,-132 1902.5,-132 1902.5,-173"/>
<text text-anchor="start" x="1805.5" y="-161" font-family="Helvetica,sans-Serif" font-size="10.00">include/rel/d/a/obj</text>
<text text-anchor="start" x="1805.5" y="-150" font-family="Helvetica,sans-Serif" font-size="10.00">/d_a_obj_suisya/d_a</text>
<text text-anchor="middle" x="1850" y="-139" font-family="Helvetica,sans-Serif" font-size="10.00">_obj_suisya.h</text>
</a>
</g>
</g>
<!-- Node4&#45;&gt;Node210 -->
<g id="edge30" class="edge">
<title>Node4&#45;&gt;Node210</title>
<path fill="none" stroke="#63b8ff" d="M1282.87,-222C1388.98,-219.32 1607.83,-209.43 1789,-173 1791.73,-172.45 1794.5,-171.83 1797.29,-171.14"/>
<polygon fill="#63b8ff" stroke="#63b8ff" points="1282.85,-218.5 1272.93,-222.24 1283.01,-225.5 1282.85,-218.5"/>
</g>
<!-- Node211 -->
<g id="node28" class="node">
<title>Node211</title>
<g id="a_node28"><a xlink:href="d__bg__s__acch_8cpp.html" target="_top" xlink:title=" ">
<polygon fill="white" stroke="#666666" points="1626.5,-162 1495.5,-162 1495.5,-143 1626.5,-143 1626.5,-162"/>
<text text-anchor="middle" x="1561" y="-150" font-family="Helvetica,sans-Serif" font-size="10.00">src/d/bg/d_bg_s_acch.cpp</text>
</a>
</g>
</g>
<!-- Node4&#45;&gt;Node211 -->
<g id="edge31" class="edge">
<title>Node4&#45;&gt;Node211</title>
<path fill="none" stroke="#63b8ff" d="M1282.58,-212.37C1336.83,-203 1416.82,-188.45 1486,-173 1500.05,-169.86 1515.46,-165.94 1528.63,-162.44"/>
<polygon fill="#63b8ff" stroke="#63b8ff" points="1282.16,-208.89 1272.89,-214.03 1283.34,-215.79 1282.16,-208.89"/>
</g>
<!-- Node6 -->
<g id="node6" class="node">
<title>Node6</title>
<g id="a_node6"><a xlink:href="d__a__alink_8cpp.html" target="_top" xlink:title=" ">
<polygon fill="white" stroke="#666666" points="1476.5,-19 1367.5,-19 1367.5,0 1476.5,0 1476.5,-19"/>
<text text-anchor="middle" x="1422" y="-7" font-family="Helvetica,sans-Serif" font-size="10.00">src/d/a/d_a_alink.cpp</text>
</a>
</g>
</g>
<!-- Node5&#45;&gt;Node6 -->
<g id="edge5" class="edge">
<title>Node5&#45;&gt;Node6</title>
<path fill="none" stroke="#63b8ff" d="M1067.68,-139.34C1076.91,-136.69 1086.75,-134.07 1096,-132 1195.68,-109.68 1234.24,-146.57 1323,-96 1343.57,-84.28 1339.51,-70.95 1357,-55 1372.46,-40.9 1392.66,-27.76 1406.41,-19.47"/>
<polygon fill="#63b8ff" stroke="#63b8ff" points="1066.88,-135.93 1058.28,-142.12 1068.86,-142.64 1066.88,-135.93"/>
</g>
<!-- Node7 -->
<g id="node7" class="node">
<title>Node7</title>
<g id="a_node7"><a xlink:href="d__a__player_8cpp.html" target="_top" xlink:title=" ">
<polygon fill="white" stroke="#666666" points="632,-85 518,-85 518,-66 632,-66 632,-85"/>
<text text-anchor="middle" x="575" y="-73" font-family="Helvetica,sans-Serif" font-size="10.00">src/d/a/d_a_player.cpp</text>
</a>
</g>
</g>
<!-- Node5&#45;&gt;Node7 -->
<g id="edge6" class="edge">
<title>Node5&#45;&gt;Node7</title>
<path fill="none" stroke="#63b8ff" d="M991.44,-139.34C981.92,-136.6 971.65,-133.93 962,-132 821.23,-103.84 781.71,-124.45 641,-96 627.77,-93.32 613.36,-89.21 601.39,-85.45"/>
<polygon fill="#63b8ff" stroke="#63b8ff" points="990.17,-142.61 1000.75,-142.12 992.17,-135.91 990.17,-142.61"/>
</g>
<!-- Node8 -->
<g id="node8" class="node">
<title>Node8</title>
<g id="a_node8"><a xlink:href="d__com__inf__game_8cpp.html" target="_top" xlink:title=" ">
<polygon fill="white" stroke="#666666" points="758,-90.5 650,-90.5 650,-60.5 758,-60.5 758,-90.5"/>
<text text-anchor="start" x="658" y="-78.5" font-family="Helvetica,sans-Serif" font-size="10.00">src/d/com/d_com_inf</text>
<text text-anchor="middle" x="704" y="-67.5" font-family="Helvetica,sans-Serif" font-size="10.00">_game.cpp</text>
</a>
</g>
</g>
<!-- Node5&#45;&gt;Node8 -->
<g id="edge7" class="edge">
<title>Node5&#45;&gt;Node8</title>
<path fill="none" stroke="#63b8ff" d="M989.47,-139.28C980.49,-136.7 970.95,-134.12 962,-132 876.25,-111.66 852.58,-117.07 767,-96 760.89,-94.49 754.49,-92.74 748.22,-90.9"/>
<polygon fill="#63b8ff" stroke="#63b8ff" points="988.44,-142.63 999.02,-142.08 990.42,-135.91 988.44,-142.63"/>
</g>
<!-- Node9 -->
<g id="node9" class="node">
<title>Node9</title>
<g id="a_node9"><a xlink:href="d__camera_8cpp.html" target="_top" xlink:title=" ">
<polygon fill="white" stroke="#666666" points="360,-85 258,-85 258,-66 360,-66 360,-85"/>
<text text-anchor="middle" x="309" y="-73" font-family="Helvetica,sans-Serif" font-size="10.00">src/d/d_camera.cpp</text>
</a>
</g>
</g>
<!-- Node5&#45;&gt;Node9 -->
<g id="edge8" class="edge">
<title>Node5&#45;&gt;Node9</title>
<path fill="none" stroke="#63b8ff" d="M992.27,-139.22C982.53,-136.4 971.95,-133.73 962,-132 701.85,-86.83 628.42,-145.2 369,-96 356.52,-93.63 343.03,-89.41 332.01,-85.49"/>
<polygon fill="#63b8ff" stroke="#63b8ff" points="991.19,-142.55 1001.78,-142.1 993.22,-135.85 991.19,-142.55"/>
</g>
<!-- Node10 -->
<g id="node10" class="node">
<title>Node10</title>
<g id="a_node10"><a xlink:href="d__event_8cpp.html" target="_top" xlink:title=" ">
<polygon fill="white" stroke="#666666" points="897.5,-85 776.5,-85 776.5,-66 897.5,-66 897.5,-85"/>
<text text-anchor="middle" x="837" y="-73" font-family="Helvetica,sans-Serif" font-size="10.00">src/d/event/d_event.cpp</text>
</a>
</g>
</g>
<!-- Node5&#45;&gt;Node10 -->
<g id="edge9" class="edge">
<title>Node5&#45;&gt;Node10</title>
<path fill="none" stroke="#63b8ff" d="M995.95,-138.59C957.06,-123.4 893.51,-98.57 859.75,-85.39"/>
<polygon fill="#63b8ff" stroke="#63b8ff" points="994.22,-141.67 1004.81,-142.05 996.77,-135.15 994.22,-141.67"/>
</g>
<!-- Node11 -->
<g id="node11" class="node">
<title>Node11</title>
<g id="a_node11"><a xlink:href="d__meter2__draw_8cpp.html" target="_top" xlink:title=" ">
<polygon fill="white" stroke="#666666" points="1026,-90.5 916,-90.5 916,-60.5 1026,-60.5 1026,-90.5"/>
<text text-anchor="start" x="924" y="-78.5" font-family="Helvetica,sans-Serif" font-size="10.00">src/d/meter/d_meter2</text>
<text text-anchor="middle" x="971" y="-67.5" font-family="Helvetica,sans-Serif" font-size="10.00">_draw.cpp</text>
</a>
</g>
</g>
<!-- Node5&#45;&gt;Node11 -->
<g id="edge10" class="edge">
<title>Node5&#45;&gt;Node11</title>
<path fill="none" stroke="#63b8ff" d="M1015.16,-133.61C1005.02,-120.5 991.44,-102.94 982.03,-90.77"/>
<polygon fill="#63b8ff" stroke="#63b8ff" points="1012.31,-135.64 1021.19,-141.4 1017.84,-131.35 1012.31,-135.64"/>
</g>
<!-- Node12 -->
<g id="node12" class="node">
<title>Node12</title>
<g id="a_node12"><a xlink:href="d__msg__flow_8cpp.html" target="_top" xlink:title=" ">
<polygon fill="white" stroke="#666666" points="1177.5,-85 1044.5,-85 1044.5,-66 1177.5,-66 1177.5,-85"/>
<text text-anchor="middle" x="1111" y="-73" font-family="Helvetica,sans-Serif" font-size="10.00">src/d/msg/d_msg_flow.cpp</text>
</a>
</g>
</g>
<!-- Node5&#45;&gt;Node12 -->
<g id="edge11" class="edge">
<title>Node5&#45;&gt;Node12</title>
<path fill="none" stroke="#63b8ff" d="M1047.12,-134.92C1063.83,-119.65 1087.98,-97.56 1101.28,-85.39"/>
<polygon fill="#63b8ff" stroke="#63b8ff" points="1044.86,-132.25 1039.85,-141.58 1049.59,-137.41 1044.86,-132.25"/>
</g>
<!-- Node13 -->
<g id="node13" class="node">
<title>Node13</title>
<g id="a_node13"><a xlink:href="f__op__actor_8cpp.html" target="_top" xlink:title=" ">
<polygon fill="white" stroke="#666666" points="1314.5,-85 1195.5,-85 1195.5,-66 1314.5,-66 1314.5,-85"/>
<text text-anchor="middle" x="1255" y="-73" font-family="Helvetica,sans-Serif" font-size="10.00">src/f_op/f_op_actor.cpp</text>
</a>
</g>
</g>
<!-- Node5&#45;&gt;Node13 -->
<g id="edge12" class="edge">
<title>Node5&#45;&gt;Node13</title>
<path fill="none" stroke="#63b8ff" d="M1066.73,-138.98C1112.4,-123.82 1188.15,-98.69 1228.22,-85.39"/>
<polygon fill="#63b8ff" stroke="#63b8ff" points="1065.64,-135.65 1057.25,-142.13 1067.84,-142.3 1065.64,-135.65"/>
</g>
<!-- Node90 -->
<g id="node16" class="node">
<title>Node90</title>
<g id="a_node16"><a xlink:href="d__a__obj__bombf_8h.html" target="_top" xlink:title=" ">
<polygon fill="white" stroke="#666666" points="500,-96 378,-96 378,-55 500,-55 500,-96"/>
<text text-anchor="start" x="386" y="-84" font-family="Helvetica,sans-Serif" font-size="10.00">include/rel/d/a/obj</text>
<text text-anchor="start" x="386" y="-73" font-family="Helvetica,sans-Serif" font-size="10.00">/d_a_obj_bombf/d_a_obj</text>
<text text-anchor="middle" x="439" y="-62" font-family="Helvetica,sans-Serif" font-size="10.00">_bombf.h</text>
</a>
</g>
</g>
<!-- Node204&#45;&gt;Node90 -->
<g id="edge15" class="edge">
<title>Node204&#45;&gt;Node90</title>
<path fill="none" stroke="#63b8ff" d="M580.34,-138.13C553.72,-126.52 514.79,-109.55 484.52,-96.35"/>
<polygon fill="#63b8ff" stroke="#63b8ff" points="578.64,-141.21 589.21,-142 581.44,-134.79 578.64,-141.21"/>
</g>
<!-- Node205 -->
<g id="node17" class="node">
<title>Node205</title>
<g id="a_node17"><a xlink:href="d__bomb_8cpp.html" target="_top" xlink:title=" ">
<polygon fill="white" stroke="#666666" points="240,-85 146,-85 146,-66 240,-66 240,-85"/>
<text text-anchor="middle" x="193" y="-73" font-family="Helvetica,sans-Serif" font-size="10.00">src/d/d_bomb.cpp</text>
</a>
</g>
</g>
<!-- Node204&#45;&gt;Node205 -->
<g id="edge16" class="edge">
<title>Node204&#45;&gt;Node205</title>
<path fill="none" stroke="#63b8ff" d="M576.32,-138.96C568.1,-136.34 559.31,-133.83 551,-132 418.98,-102.97 380.71,-126.4 249,-96 237.56,-93.36 225.21,-89.2 215.02,-85.41"/>
<polygon fill="#63b8ff" stroke="#63b8ff" points="575.04,-142.22 585.63,-142.05 577.25,-135.58 575.04,-142.22"/>
</g>
<!-- Node206&#45;&gt;Node7 -->
<g id="edge18" class="edge">
<title>Node206&#45;&gt;Node7</title>
<path fill="none" stroke="#63b8ff" d="M709.21,-132.73C673.1,-117.6 623.92,-97 596.23,-85.39"/>
<polygon fill="#63b8ff" stroke="#63b8ff" points="707.52,-135.82 718.09,-136.45 710.22,-129.36 707.52,-135.82"/>
</g>
<!-- Node209&#45;&gt;Node6 -->
<g id="edge25" class="edge">
<title>Node209&#45;&gt;Node6</title>
<path fill="none" stroke="#63b8ff" d="M1210.39,-133.65C1212.28,-133.09 1214.16,-132.53 1216,-132 1278.12,-114 1303.09,-131.73 1357,-96 1387.31,-75.91 1409.16,-36.82 1417.85,-19.33"/>
<polygon fill="#63b8ff" stroke="#63b8ff" points="1209.46,-130.28 1200.93,-136.56 1211.52,-136.97 1209.46,-130.28"/>
</g>
<!-- Node39 -->
<g id="node22" class="node">
<title>Node39</title>
<g id="a_node22"><a xlink:href="d__a__e__wb_8h.html" target="_top" xlink:title=" ">
<polygon fill="#fff0f0" stroke="red" points="1519,-90.5 1409,-90.5 1409,-60.5 1519,-60.5 1519,-90.5"/>
<text text-anchor="start" x="1417" y="-78.5" font-family="Helvetica,sans-Serif" font-size="10.00">include/rel/d/a/e/d</text>
<text text-anchor="middle" x="1464" y="-67.5" font-family="Helvetica,sans-Serif" font-size="10.00">_a_e_wb/d_a_e_wb.h</text>
</a>
</g>
</g>
<!-- Node209&#45;&gt;Node39 -->
<g id="edge22" class="edge">
<title>Node209&#45;&gt;Node39</title>
<path fill="none" stroke="#63b8ff" d="M1209.2,-133.86C1211.49,-133.21 1213.77,-132.59 1216,-132 1294.5,-111.42 1316.12,-115.05 1395,-96 1401.41,-94.45 1408.13,-92.71 1414.75,-90.92"/>
<polygon fill="#63b8ff" stroke="#63b8ff" points="1208.48,-130.42 1199.88,-136.61 1210.46,-137.13 1208.48,-130.42"/>
</g>
<!-- Node121 -->
<g id="node23" class="node">
<title>Node121</title>
<g id="a_node23"><a xlink:href="d__a__tag__hinit_8h.html" target="_top" xlink:title=" ">
<polygon fill="white" stroke="#666666" points="1652.5,-96 1537.5,-96 1537.5,-55 1652.5,-55 1652.5,-96"/>
<text text-anchor="start" x="1545.5" y="-84" font-family="Helvetica,sans-Serif" font-size="10.00">include/rel/d/a/tag</text>
<text text-anchor="start" x="1545.5" y="-73" font-family="Helvetica,sans-Serif" font-size="10.00">/d_a_tag_hinit/d_a_tag</text>
<text text-anchor="middle" x="1595" y="-62" font-family="Helvetica,sans-Serif" font-size="10.00">_hinit.h</text>
</a>
</g>
</g>
<!-- Node209&#45;&gt;Node121 -->
<g id="edge24" class="edge">
<title>Node209&#45;&gt;Node121</title>
<path fill="none" stroke="#63b8ff" d="M1207.59,-134.01C1210.42,-133.28 1213.24,-132.6 1216,-132 1352.39,-102.28 1391.17,-123.6 1528,-96 1530.97,-95.4 1534,-94.73 1537.04,-94.02"/>
<polygon fill="#63b8ff" stroke="#63b8ff" points="1206.83,-130.59 1198.15,-136.67 1208.72,-137.33 1206.83,-130.59"/>
</g>
<!-- Node146 -->
<g id="node24" class="node">
<title>Node146</title>
<g id="a_node24"><a xlink:href="d__bg__w_8cpp.html" target="_top" xlink:title=" ">
<polygon fill="white" stroke="#666666" points="2003.5,-85 1896.5,-85 1896.5,-66 2003.5,-66 2003.5,-85"/>
<text text-anchor="middle" x="1950" y="-73" font-family="Helvetica,sans-Serif" font-size="10.00">src/d/bg/d_bg_w.cpp</text>
</a>
</g>
</g>
<!-- Node209&#45;&gt;Node146 -->
<g id="edge26" class="edge">
<title>Node209&#45;&gt;Node146</title>
<path fill="none" stroke="#63b8ff" d="M1206.48,-134.1C1209.68,-133.3 1212.87,-132.59 1216,-132 1474.98,-82.87 1545.68,-121.95 1808,-96 1837.22,-93.11 1869.67,-88.74 1896.17,-84.87"/>
<polygon fill="#63b8ff" stroke="#63b8ff" points="1205.83,-130.64 1197.11,-136.66 1207.68,-137.4 1205.83,-130.64"/>
</g>
<!-- Node57 -->
<g id="node25" class="node">
<title>Node57</title>
<g id="a_node25"><a xlink:href="d__meter2_8cpp.html" target="_top" xlink:title=" ">
<polygon fill="white" stroke="#666666" points="1799,-85 1671,-85 1671,-66 1799,-66 1799,-85"/>
<text text-anchor="middle" x="1735" y="-73" font-family="Helvetica,sans-Serif" font-size="10.00">src/d/meter/d_meter2.cpp</text>
</a>
</g>
</g>
<!-- Node209&#45;&gt;Node57 -->
<g id="edge27" class="edge">
<title>Node209&#45;&gt;Node57</title>
<path fill="none" stroke="#63b8ff" d="M1206.97,-134.05C1210,-133.29 1213.03,-132.59 1216,-132 1411.01,-93 1466.03,-129.8 1662,-96 1676.74,-93.46 1692.82,-89.31 1706.14,-85.5"/>
<polygon fill="#63b8ff" stroke="#63b8ff" points="1206.17,-130.64 1197.46,-136.67 1208.03,-137.39 1206.17,-130.64"/>
</g>
<!-- Node39&#45;&gt;Node6 -->
<g id="edge23" class="edge">
<title>Node39&#45;&gt;Node6</title>
<path fill="none" stroke="#63b8ff" d="M1448.43,-50.78C1441.23,-39.81 1433.12,-27.44 1427.8,-19.34"/>
<polygon fill="#63b8ff" stroke="#63b8ff" points="1445.44,-52.59 1453.85,-59.03 1451.29,-48.75 1445.44,-52.59"/>
</g>
<!-- Node91&#45;&gt;Node6 -->
<g id="edge29" class="edge">
<title>Node91&#45;&gt;Node6</title>
<path fill="none" stroke="#63b8ff" d="M1352.62,-132.26C1437.24,-123.78 1775.11,-131.58 1808,-96 1820.37,-82.62 1820.12,-68.6 1808,-55 1786.34,-30.7 1577.95,-17.75 1476.69,-12.84"/>
<polygon fill="#63b8ff" stroke="#63b8ff" points="1352.25,-128.78 1342.8,-133.57 1353.17,-135.72 1352.25,-128.78"/>
</g>
<!-- Node212&#45;&gt;Node9 -->
<g id="edge34" class="edge">
<title>Node212&#45;&gt;Node9</title>
<path fill="none" stroke="#63b8ff" d="M264.05,-133.63C276.02,-118.43 292.7,-97.22 302.01,-85.39"/>
<polygon fill="#63b8ff" stroke="#63b8ff" points="261.37,-131.39 257.94,-141.41 266.87,-135.72 261.37,-131.39"/>
</g>
<!-- Node213 -->
<g id="node30" class="node">
<title>Node213</title>
<g id="a_node30"><a xlink:href="f__op__camera__mng_8h.html" target="_top" xlink:title=" ">
<polygon fill="#fff0f0" stroke="red" points="128,-90.5 0,-90.5 0,-60.5 128,-60.5 128,-90.5"/>
<text text-anchor="start" x="8" y="-78.5" font-family="Helvetica,sans-Serif" font-size="10.00">include/f_op/f_op_camera</text>
<text text-anchor="middle" x="64" y="-67.5" font-family="Helvetica,sans-Serif" font-size="10.00">_mng.h</text>
</a>
</g>
</g>
<!-- Node212&#45;&gt;Node213 -->
<g id="edge33" class="edge">
<title>Node212&#45;&gt;Node213</title>
<path fill="none" stroke="#63b8ff" d="M217.5,-138.4C184.57,-125.12 133.76,-104.63 99.72,-90.9"/>
<polygon fill="#63b8ff" stroke="#63b8ff" points="215.95,-141.54 226.53,-142.04 218.56,-135.05 215.95,-141.54"/>
</g>
<!-- Node220 -->
<g id="node34" class="node">
<title>Node220</title>
<g id="a_node34"><a xlink:href="d__bg__s__lin__chk_8h.html" target="_top" xlink:title=" ">
<polygon fill="white" stroke="#666666" points="952,-239 848,-239 848,-209 952,-209 952,-239"/>
<text text-anchor="start" x="856" y="-227" font-family="Helvetica,sans-Serif" font-size="10.00">include/d/bg/d_bg_s</text>
<text text-anchor="middle" x="900" y="-216" font-family="Helvetica,sans-Serif" font-size="10.00">_lin_chk.h</text>
</a>
</g>
</g>
<!-- Node219&#45;&gt;Node220 -->
<g id="edge38" class="edge">
<title>Node219&#45;&gt;Node220</title>
<path fill="none" stroke="#63b8ff" d="M1237.73,-400.4C1204.62,-378.61 1155.91,-346.59 1147,-341 1098.71,-310.7 1088.46,-299.55 1037,-275 1007.64,-260.99 973.23,-248.45 946.25,-239.43"/>
<polygon fill="#63b8ff" stroke="#63b8ff" points="1235.48,-403.11 1245.76,-405.69 1239.33,-397.27 1235.48,-403.11"/>
</g>
<!-- Node223 -->
<g id="node37" class="node">
<title>Node223</title>
<g id="a_node37"><a xlink:href="c__bg__s__lin__chk_8cpp.html" target="_top" xlink:title=" ">
<polygon fill="white" stroke="#666666" points="1336,-371 1202,-371 1202,-341 1336,-341 1336,-371"/>
<text text-anchor="start" x="1210" y="-359" font-family="Helvetica,sans-Serif" font-size="10.00">libs/SSystem/SComponent</text>
<text text-anchor="middle" x="1269" y="-348" font-family="Helvetica,sans-Serif" font-size="10.00">/c_bg_s_lin_chk.cpp</text>
</a>
</g>
</g>
<!-- Node219&#45;&gt;Node223 -->
<g id="edge47" class="edge">
<title>Node219&#45;&gt;Node223</title>
<path fill="none" stroke="#63b8ff" d="M1269,-395.39C1269,-387.13 1269,-378.28 1269,-371.16"/>
<polygon fill="#63b8ff" stroke="#63b8ff" points="1265.5,-395.28 1269,-405.28 1272.5,-395.28 1265.5,-395.28"/>
</g>
<!-- Node220&#45;&gt;Node5 -->
<g id="edge39" class="edge">
<title>Node220&#45;&gt;Node5</title>
<path fill="none" stroke="#63b8ff" d="M936.61,-203.28C961.59,-189.82 993.49,-172.63 1012.52,-162.38"/>
<polygon fill="#63b8ff" stroke="#63b8ff" points="935.2,-200.06 928.06,-207.88 938.53,-206.22 935.2,-200.06"/>
</g>
<!-- Node220&#45;&gt;Node204 -->
<g id="edge40" class="edge">
<title>Node220&#45;&gt;Node204</title>
<path fill="none" stroke="#63b8ff" d="M836.62,-208.73C761.54,-192.59 740.38,-192.11 670,-173 658.76,-169.95 646.5,-166 636.08,-162.46"/>
<polygon fill="#63b8ff" stroke="#63b8ff" points="835.58,-212.09 846.1,-210.8 837.07,-205.25 835.58,-212.09"/>
</g>
<!-- Node220&#45;&gt;Node206 -->
<g id="edge43" class="edge">
<title>Node220&#45;&gt;Node206</title>
<path fill="none" stroke="#63b8ff" d="M859.59,-203.76C835.73,-192.41 806.03,-178.27 784.21,-167.88"/>
<polygon fill="#63b8ff" stroke="#63b8ff" points="857.85,-206.81 868.38,-207.95 860.86,-200.49 857.85,-206.81"/>
</g>
<!-- Node220&#45;&gt;Node207 -->
<g id="edge44" class="edge">
<title>Node220&#45;&gt;Node207</title>
<path fill="none" stroke="#63b8ff" d="M900,-197.26C900,-187.33 900,-176.36 900,-167.88"/>
<polygon fill="#63b8ff" stroke="#63b8ff" points="896.5,-197.09 900,-207.09 903.5,-197.09 896.5,-197.09"/>
</g>
<!-- Node220&#45;&gt;Node209 -->
<g id="edge45" class="edge">
<title>Node220&#45;&gt;Node209</title>
<path fill="none" stroke="#63b8ff" d="M963.3,-207.95C1001.83,-198.52 1051.95,-185.76 1096,-173 1101.37,-171.45 1106.97,-169.74 1112.52,-168"/>
<polygon fill="#63b8ff" stroke="#63b8ff" points="962.6,-204.52 953.71,-210.29 964.26,-211.32 962.6,-204.52"/>
</g>
<!-- Node220&#45;&gt;Node212 -->
<g id="edge41" class="edge">
<title>Node220&#45;&gt;Node212</title>
<path fill="none" stroke="#63b8ff" d="M836.5,-208.98C604.55,-176.39 539.33,-215.2 313,-173 299.94,-170.57 285.78,-166.33 274.2,-162.43"/>
<polygon fill="#63b8ff" stroke="#63b8ff" points="835.78,-212.42 846.18,-210.38 836.78,-205.49 835.78,-212.42"/>
</g>
<!-- Node221 -->
<g id="node35" class="node">
<title>Node221</title>
<g id="a_node35"><a xlink:href="d__a__arrow_8h.html" target="_top" xlink:title=" ">
<polygon fill="white" stroke="#666666" points="423.5,-167.5 322.5,-167.5 322.5,-137.5 423.5,-137.5 423.5,-167.5"/>
<text text-anchor="start" x="330.5" y="-155.5" font-family="Helvetica,sans-Serif" font-size="10.00">include/rel/d/a/d_a</text>
<text text-anchor="middle" x="373" y="-144.5" font-family="Helvetica,sans-Serif" font-size="10.00">_arrow/d_a_arrow.h</text>
</a>
</g>
</g>
<!-- Node220&#45;&gt;Node221 -->
<g id="edge42" class="edge">
<title>Node220&#45;&gt;Node221</title>
<path fill="none" stroke="#63b8ff" d="M836.5,-208.95C656.99,-182.11 605.85,-208.93 432,-173 425.66,-171.69 419.05,-169.92 412.65,-167.98"/>
<polygon fill="#63b8ff" stroke="#63b8ff" points="835.75,-212.38 846.17,-210.44 836.81,-205.46 835.75,-212.38"/>
</g>
<!-- Node222 -->
<g id="node36" class="node">
<title>Node222</title>
<g id="a_node36"><a xlink:href="d__bg__s__lin__chk_8cpp.html" target="_top" xlink:title=" ">
<polygon fill="white" stroke="#666666" points="542.5,-167.5 441.5,-167.5 441.5,-137.5 542.5,-137.5 542.5,-167.5"/>
<text text-anchor="start" x="449.5" y="-155.5" font-family="Helvetica,sans-Serif" font-size="10.00">src/d/bg/d_bg_s_lin</text>
<text text-anchor="middle" x="492" y="-144.5" font-family="Helvetica,sans-Serif" font-size="10.00">_chk.cpp</text>
</a>
</g>
</g>
<!-- Node220&#45;&gt;Node222 -->
<g id="edge46" class="edge">
<title>Node220&#45;&gt;Node222</title>
<path fill="none" stroke="#63b8ff" d="M836.3,-208.85C709.32,-187.6 672.85,-200.5 551,-173 544.9,-171.62 538.53,-169.87 532.33,-167.98"/>
<polygon fill="#63b8ff" stroke="#63b8ff" points="835.7,-212.3 846.15,-210.54 836.89,-205.4 835.7,-212.3"/>
</g>
<!-- Node224&#45;&gt;Node146 -->
<g id="edge50" class="edge">
<title>Node224&#45;&gt;Node146</title>
<path fill="none" stroke="#63b8ff" d="M1821.75,-402.93C1893.28,-378.41 2007,-332.85 2007,-291 2007,-291 2007,-291 2007,-223 2007,-167.33 1970.8,-107.35 1956.1,-85.29"/>
<polygon fill="#63b8ff" stroke="#63b8ff" points="1820.87,-399.53 1812.52,-406.05 1823.12,-406.16 1820.87,-399.53"/>
</g>
<!-- Node225 -->
<g id="node39" class="node">
<title>Node225</title>
<g id="a_node39"><a xlink:href="c__bg__s__shdw__draw_8cpp.html" target="_top" xlink:title=" ">
<polygon fill="white" stroke="#666666" points="2169,-371 2035,-371 2035,-341 2169,-341 2169,-371"/>
<text text-anchor="start" x="2043" y="-359" font-family="Helvetica,sans-Serif" font-size="10.00">libs/SSystem/SComponent</text>
<text text-anchor="middle" x="2102" y="-348" font-family="Helvetica,sans-Serif" font-size="10.00">/c_bg_s_shdw_draw.cpp</text>
</a>
</g>
</g>
<!-- Node224&#45;&gt;Node225 -->
<g id="edge49" class="edge">
<title>Node224&#45;&gt;Node225</title>
<path fill="none" stroke="#63b8ff" d="M1850.96,-404.67C1907.99,-393.84 1981.77,-379.83 2034.57,-369.81"/>
<polygon fill="#63b8ff" stroke="#63b8ff" points="1850.45,-401.21 1841.28,-406.51 1851.76,-408.09 1850.45,-401.21"/>
</g>
<!-- Node150 -->
<g id="node40" class="node">
<title>Node150</title>
<g id="a_node40"><a xlink:href="d__drawlist_8cpp.html" target="_top" xlink:title=" ">
<polygon fill="white" stroke="#666666" points="1817,-365.5 1713,-365.5 1713,-346.5 1817,-346.5 1817,-365.5"/>
<text text-anchor="middle" x="1765" y="-353.5" font-family="Helvetica,sans-Serif" font-size="10.00">src/d/d_drawlist.cpp</text>
</a>
</g>
</g>
<!-- Node224&#45;&gt;Node150 -->
<g id="edge51" class="edge">
<title>Node224&#45;&gt;Node150</title>
<path fill="none" stroke="#63b8ff" d="M1765,-395.59C1765,-385.06 1765,-373.53 1765,-365.84"/>
<polygon fill="#63b8ff" stroke="#63b8ff" points="1761.5,-395.28 1765,-405.28 1768.5,-395.28 1761.5,-395.28"/>
</g>
<!-- Node226&#45;&gt;Node146 -->
<g id="edge53" class="edge">
<title>Node226&#45;&gt;Node146</title>
<path fill="none" stroke="#63b8ff" d="M1773.42,-274.39C1826.39,-258.67 1899.3,-228.15 1938,-173 1957.01,-145.91 1953.94,-103.74 1951.46,-85.45"/>
<polygon fill="#63b8ff" stroke="#63b8ff" points="1772.55,-271 1763.89,-277.11 1774.47,-277.73 1772.55,-271"/>
</g>
<!-- Node228 -->
<g id="node43" class="node">
<title>Node228</title>
<g id="a_node43"><a xlink:href="d__bg__s__chk_8h.html" target="_top" xlink:title=" ">
<polygon fill="white" stroke="#666666" points="1586,-371 1482,-371 1482,-341 1586,-341 1586,-371"/>
<text text-anchor="start" x="1490" y="-359" font-family="Helvetica,sans-Serif" font-size="10.00">include/d/bg/d_bg_s</text>
<text text-anchor="middle" x="1534" y="-348" font-family="Helvetica,sans-Serif" font-size="10.00">_chk.h</text>
</a>
</g>
</g>
<!-- Node227&#45;&gt;Node228 -->
<g id="edge55" class="edge">
<title>Node227&#45;&gt;Node228</title>
<path fill="none" stroke="#63b8ff" d="M1534,-395.39C1534,-387.13 1534,-378.28 1534,-371.16"/>
<polygon fill="#63b8ff" stroke="#63b8ff" points="1530.5,-395.28 1534,-405.28 1537.5,-395.28 1530.5,-395.28"/>
</g>
<!-- Node238 -->
<g id="node48" class="node">
<title>Node238</title>
<g id="a_node48"><a xlink:href="d__bg__s__grp__pass__chk_8cpp.html" target="_top" xlink:title=" ">
<polygon fill="white" stroke="#666666" points="1463.5,-371 1358.5,-371 1358.5,-341 1463.5,-341 1463.5,-371"/>
<text text-anchor="start" x="1366.5" y="-359" font-family="Helvetica,sans-Serif" font-size="10.00">src/d/bg/d_bg_s_grp</text>
<text text-anchor="middle" x="1411" y="-348" font-family="Helvetica,sans-Serif" font-size="10.00">_pass_chk.cpp</text>
</a>
</g>
</g>
<!-- Node227&#45;&gt;Node238 -->
<g id="edge65" class="edge">
<title>Node227&#45;&gt;Node238</title>
<path fill="none" stroke="#63b8ff" d="M1496.43,-401.45C1477.75,-391.73 1455.59,-380.2 1438.51,-371.31"/>
<polygon fill="#63b8ff" stroke="#63b8ff" points="1494.57,-404.43 1505.05,-405.94 1497.8,-398.22 1494.57,-404.43"/>
</g>
<!-- Node228&#45;&gt;Node3 -->
<g id="edge57" class="edge">
<title>Node228&#45;&gt;Node3</title>
<path fill="none" stroke="#63b8ff" d="M1470.4,-340.89C1303,-314.23 1117.19,-300.02 1028.4,-294.18"/>
<polygon fill="#63b8ff" stroke="#63b8ff" points="1469.73,-344.33 1480.16,-342.47 1470.85,-337.42 1469.73,-344.33"/>
</g>
<!-- Node228&#45;&gt;Node220 -->
<g id="edge58" class="edge">
<title>Node228&#45;&gt;Node220</title>
<path fill="none" stroke="#63b8ff" d="M1470.33,-340.87C1359.72,-322.24 1323.64,-344.77 1223,-305 1201.33,-296.44 1201.53,-283.92 1180,-275 1104.73,-243.8 1010.17,-232.05 952.46,-227.64"/>
<polygon fill="#63b8ff" stroke="#63b8ff" points="1469.68,-344.31 1480.14,-342.61 1470.9,-337.42 1469.68,-344.31"/>
</g>
<!-- Node228&#45;&gt;Node226 -->
<g id="edge56" class="edge">
<title>Node228&#45;&gt;Node226</title>
<path fill="none" stroke="#63b8ff" d="M1584.04,-336.8C1611.39,-326.86 1644.79,-314.71 1670.33,-305.43"/>
<polygon fill="#63b8ff" stroke="#63b8ff" points="1583.12,-333.41 1574.92,-340.12 1585.51,-339.99 1583.12,-333.41"/>
</g>
<!-- Node229 -->
<g id="node44" class="node">
<title>Node229</title>
<g id="a_node44"><a xlink:href="d__bg__s__roof__chk_8h.html" target="_top" xlink:title=" ">
<polygon fill="#fff0f0" stroke="red" points="1336,-305 1232,-305 1232,-275 1336,-275 1336,-305"/>
<text text-anchor="start" x="1240" y="-293" font-family="Helvetica,sans-Serif" font-size="10.00">include/d/bg/d_bg_s</text>
<text text-anchor="middle" x="1284" y="-282" font-family="Helvetica,sans-Serif" font-size="10.00">_roof_chk.h</text>
</a>
</g>
</g>
<!-- Node228&#45;&gt;Node229 -->
<g id="edge59" class="edge">
<title>Node228&#45;&gt;Node229</title>
<path fill="none" stroke="#63b8ff" d="M1470.5,-338.74C1428.98,-328.11 1375.41,-314.4 1336.34,-304.4"/>
<polygon fill="#63b8ff" stroke="#63b8ff" points="1469.57,-342.12 1480.13,-341.21 1471.31,-335.34 1469.57,-342.12"/>
</g>
<!-- Node231 -->
<g id="node45" class="node">
<title>Node231</title>
<g id="a_node45"><a xlink:href="d__bg__s__sph__chk_8h.html" target="_top" xlink:title=" ">
<polygon fill="#fff0f0" stroke="red" points="1748,-239 1644,-239 1644,-209 1748,-209 1748,-239"/>
<text text-anchor="start" x="1652" y="-227" font-family="Helvetica,sans-Serif" font-size="10.00">include/d/bg/d_bg_s</text>
<text text-anchor="middle" x="1696" y="-216" font-family="Helvetica,sans-Serif" font-size="10.00">_sph_chk.h</text>
</a>
</g>
</g>
<!-- Node228&#45;&gt;Node231 -->
<g id="edge61" class="edge">
<title>Node228&#45;&gt;Node231</title>
<path fill="none" stroke="#63b8ff" d="M1568.25,-334.61C1581.93,-326 1597.58,-315.53 1611,-305 1637.78,-283.98 1666.02,-256.09 1682.27,-239.41"/>
<polygon fill="#63b8ff" stroke="#63b8ff" points="1566.64,-331.49 1559.98,-339.73 1570.33,-337.44 1566.64,-331.49"/>
</g>
<!-- Node233 -->
<g id="node46" class="node">
<title>Node233</title>
<g id="a_node46"><a xlink:href="d__bg__s__spl__grp__chk_8h.html" target="_top" xlink:title=" ">
<polygon fill="#fff0f0" stroke="red" points="1458,-305 1354,-305 1354,-275 1458,-275 1458,-305"/>
<text text-anchor="start" x="1362" y="-293" font-family="Helvetica,sans-Serif" font-size="10.00">include/d/bg/d_bg_s</text>
<text text-anchor="middle" x="1406" y="-282" font-family="Helvetica,sans-Serif" font-size="10.00">_spl_grp_chk.h</text>
</a>
</g>
</g>
<!-- Node228&#45;&gt;Node233 -->
<g id="edge63" class="edge">
<title>Node228&#45;&gt;Node233</title>
<path fill="none" stroke="#63b8ff" d="M1495.18,-335.59C1475.68,-325.84 1452.48,-314.24 1434.63,-305.31"/>
<polygon fill="#63b8ff" stroke="#63b8ff" points="1493.41,-338.62 1503.92,-339.96 1496.54,-332.36 1493.41,-338.62"/>
</g>
<!-- Node237 -->
<g id="node47" class="node">
<title>Node237</title>
<g id="a_node47"><a xlink:href="d__bg__s__chk_8cpp.html" target="_top" xlink:title=" ">
<polygon fill="white" stroke="#666666" points="1601.5,-299.5 1476.5,-299.5 1476.5,-280.5 1601.5,-280.5 1601.5,-299.5"/>
<text text-anchor="middle" x="1539" y="-287.5" font-family="Helvetica,sans-Serif" font-size="10.00">src/d/bg/d_bg_s_chk.cpp</text>
</a>
</g>
</g>
<!-- Node228&#45;&gt;Node237 -->
<g id="edge64" class="edge">
<title>Node228&#45;&gt;Node237</title>
<path fill="none" stroke="#63b8ff" d="M1535.99,-329.59C1536.81,-319.06 1537.71,-307.53 1538.31,-299.84"/>
<polygon fill="#63b8ff" stroke="#63b8ff" points="1532.52,-329.05 1535.23,-339.29 1539.5,-329.59 1532.52,-329.05"/>
</g>
<!-- Node229&#45;&gt;Node4 -->
<g id="edge60" class="edge">
<title>Node229&#45;&gt;Node4</title>
<path fill="none" stroke="#63b8ff" d="M1261.46,-266.81C1252.15,-257.64 1241.62,-247.28 1233.39,-239.16"/>
<polygon fill="#63b8ff" stroke="#63b8ff" points="1258.91,-269.21 1268.5,-273.73 1263.83,-264.22 1258.91,-269.21"/>
</g>
<!-- Node231&#45;&gt;Node146 -->
<g id="edge62" class="edge">
<title>Node231&#45;&gt;Node146</title>
<path fill="none" stroke="#63b8ff" d="M1759.46,-214.94C1814.7,-206.76 1889.36,-192.52 1912,-173 1939.14,-149.6 1947.05,-104.27 1949.22,-85.24"/>
<polygon fill="#63b8ff" stroke="#63b8ff" points="1759.24,-211.43 1749.85,-216.33 1760.24,-218.36 1759.24,-211.43"/>
</g>
</g>
</svg>
