<?xml version="1.0" encoding="UTF-8" standalone="no"?>
<!DOCTYPE svg PUBLIC "-//W3C//DTD SVG 1.1//EN"
 "http://www.w3.org/Graphics/SVG/1.1/DTD/svg11.dtd">
<!-- Generated by graphviz version 7.0.5 (20221223.1930)
 -->
<!-- Title: include/SSystem/SComponent/c_m3d_g_tri.h Pages: 1 -->
<svg width="2131pt" height="511pt"
 viewBox="0.00 0.00 2130.50 511.00" xmlns="http://www.w3.org/2000/svg" xmlns:xlink="http://www.w3.org/1999/xlink">
<g id="graph0" class="graph" transform="scale(1 1) rotate(0) translate(4 507)">
<title>include/SSystem/SComponent/c_m3d_g_tri.h</title>
<!-- Node1 -->
<g id="node1" class="node">
<title>Node1</title>
<g id="a_node1"><a xlink:title=" ">
<polygon fill="#999999" stroke="#666666" points="915.5,-503 766.5,-503 766.5,-473 915.5,-473 915.5,-503"/>
<text text-anchor="start" x="774.5" y="-491" font-family="Helvetica,sans-Serif" font-size="10.00">include/SSystem/SComponent</text>
<text text-anchor="middle" x="841" y="-480" font-family="Helvetica,sans-Serif" font-size="10.00">/c_m3d_g_tri.h</text>
</a>
</g>
</g>
<!-- Node2 -->
<g id="node2" class="node">
<title>Node2</title>
<g id="a_node2"><a xlink:href="c__cc__d_8h.html" target="_top" xlink:title=" ">
<polygon fill="white" stroke="#666666" points="755.5,-437 606.5,-437 606.5,-407 755.5,-407 755.5,-437"/>
<text text-anchor="start" x="614.5" y="-425" font-family="Helvetica,sans-Serif" font-size="10.00">include/SSystem/SComponent</text>
<text text-anchor="middle" x="681" y="-414" font-family="Helvetica,sans-Serif" font-size="10.00">/c_cc_d.h</text>
</a>
</g>
</g>
<!-- Node1&#45;&gt;Node2 -->
<g id="edge1" class="edge">
<title>Node1&#45;&gt;Node2</title>
<path fill="none" stroke="#63b8ff" d="M794.52,-468.41C769.84,-458.54 739.97,-446.59 717.06,-437.43"/>
<polygon fill="#63b8ff" stroke="#63b8ff" points="793.1,-471.61 803.69,-472.08 795.7,-465.11 793.1,-471.61"/>
</g>
<!-- Node222 -->
<g id="node49" class="node">
<title>Node222</title>
<g id="a_node49"><a xlink:href="c__m3d_8cpp.html" target="_top" xlink:title=" ">
<polygon fill="white" stroke="#666666" points="908,-437 774,-437 774,-407 908,-407 908,-437"/>
<text text-anchor="start" x="782" y="-425" font-family="Helvetica,sans-Serif" font-size="10.00">libs/SSystem/SComponent</text>
<text text-anchor="middle" x="841" y="-414" font-family="Helvetica,sans-Serif" font-size="10.00">/c_m3d.cpp</text>
</a>
</g>
</g>
<!-- Node1&#45;&gt;Node222 -->
<g id="edge67" class="edge">
<title>Node1&#45;&gt;Node222</title>
<path fill="none" stroke="#63b8ff" d="M841,-461.39C841,-453.13 841,-444.28 841,-437.16"/>
<polygon fill="#63b8ff" stroke="#63b8ff" points="837.5,-461.28 841,-471.28 844.5,-461.28 837.5,-461.28"/>
</g>
<!-- Node223 -->
<g id="node50" class="node">
<title>Node223</title>
<g id="a_node50"><a xlink:href="c__m3d__g__tri_8cpp.html" target="_top" xlink:title=" ">
<polygon fill="white" stroke="#666666" points="1060,-437 926,-437 926,-407 1060,-407 1060,-437"/>
<text text-anchor="start" x="934" y="-425" font-family="Helvetica,sans-Serif" font-size="10.00">libs/SSystem/SComponent</text>
<text text-anchor="middle" x="993" y="-414" font-family="Helvetica,sans-Serif" font-size="10.00">/c_m3d_g_tri.cpp</text>
</a>
</g>
</g>
<!-- Node1&#45;&gt;Node223 -->
<g id="edge68" class="edge">
<title>Node1&#45;&gt;Node223</title>
<path fill="none" stroke="#63b8ff" d="M885.47,-468.27C908.86,-458.43 937.08,-446.55 958.74,-437.43"/>
<polygon fill="#63b8ff" stroke="#63b8ff" points="884.36,-464.94 876.51,-472.05 887.08,-471.39 884.36,-464.94"/>
</g>
<!-- Node3 -->
<g id="node3" class="node">
<title>Node3</title>
<g id="a_node3"><a xlink:href="c__cc__s_8h.html" target="_top" xlink:title=" ">
<polygon fill="white" stroke="#666666" points="272.5,-371 123.5,-371 123.5,-341 272.5,-341 272.5,-371"/>
<text text-anchor="start" x="131.5" y="-359" font-family="Helvetica,sans-Serif" font-size="10.00">include/SSystem/SComponent</text>
<text text-anchor="middle" x="198" y="-348" font-family="Helvetica,sans-Serif" font-size="10.00">/c_cc_s.h</text>
</a>
</g>
</g>
<!-- Node2&#45;&gt;Node3 -->
<g id="edge2" class="edge">
<title>Node2&#45;&gt;Node3</title>
<path fill="none" stroke="#63b8ff" d="M595.12,-411.26C514.22,-401.84 389.71,-386.72 282,-371 278.93,-370.55 275.79,-370.08 272.63,-369.6"/>
<polygon fill="#63b8ff" stroke="#63b8ff" points="594.4,-414.7 604.73,-412.37 595.2,-407.74 594.4,-414.7"/>
</g>
<!-- Node194 -->
<g id="node17" class="node">
<title>Node194</title>
<g id="a_node17"><a xlink:href="d__cc__d_8h.html" target="_top" xlink:title=" ">
<polygon fill="white" stroke="#666666" points="1037.5,-365.5 926.5,-365.5 926.5,-346.5 1037.5,-346.5 1037.5,-365.5"/>
<text text-anchor="middle" x="982" y="-353.5" font-family="Helvetica,sans-Serif" font-size="10.00">include/d/cc/d_cc_d.h</text>
</a>
</g>
</g>
<!-- Node2&#45;&gt;Node194 -->
<g id="edge17" class="edge">
<title>Node2&#45;&gt;Node194</title>
<path fill="none" stroke="#63b8ff" d="M760.18,-404.16C817.75,-391.92 893.43,-375.83 939.85,-365.96"/>
<polygon fill="#63b8ff" stroke="#63b8ff" points="759.46,-400.74 750.41,-406.24 760.92,-407.59 759.46,-400.74"/>
</g>
<!-- Node220 -->
<g id="node47" class="node">
<title>Node220</title>
<g id="a_node47"><a xlink:href="d__cc__mass__s_8h.html" target="_top" xlink:title=" ">
<polygon fill="white" stroke="#666666" points="431,-365.5 291,-365.5 291,-346.5 431,-346.5 431,-365.5"/>
<text text-anchor="middle" x="361" y="-353.5" font-family="Helvetica,sans-Serif" font-size="10.00">include/d/cc/d_cc_mass_s.h</text>
</a>
</g>
</g>
<!-- Node2&#45;&gt;Node220 -->
<g id="edge63" class="edge">
<title>Node2&#45;&gt;Node220</title>
<path fill="none" stroke="#63b8ff" d="M597.58,-404.32C536.29,-392.06 455.37,-375.87 405.81,-365.96"/>
<polygon fill="#63b8ff" stroke="#63b8ff" points="596.81,-407.73 607.3,-406.26 598.18,-400.87 596.81,-407.73"/>
</g>
<!-- Node221 -->
<g id="node48" class="node">
<title>Node221</title>
<g id="a_node48"><a xlink:href="c__cc__d_8cpp.html" target="_top" xlink:title=" ">
<polygon fill="white" stroke="#666666" points="1190,-371 1056,-371 1056,-341 1190,-341 1190,-371"/>
<text text-anchor="start" x="1064" y="-359" font-family="Helvetica,sans-Serif" font-size="10.00">libs/SSystem/SComponent</text>
<text text-anchor="middle" x="1123" y="-348" font-family="Helvetica,sans-Serif" font-size="10.00">/c_cc_d.cpp</text>
</a>
</g>
</g>
<!-- Node2&#45;&gt;Node221 -->
<g id="edge66" class="edge">
<title>Node2&#45;&gt;Node221</title>
<path fill="none" stroke="#63b8ff" d="M766.81,-406.78C891.9,-388.7 925.69,-389.9 1047,-371 1049.92,-370.55 1052.89,-370.07 1055.9,-369.57"/>
<polygon fill="#63b8ff" stroke="#63b8ff" points="766.52,-403.28 757.13,-408.19 767.53,-410.21 766.52,-403.28"/>
</g>
<!-- Node4 -->
<g id="node4" class="node">
<title>Node4</title>
<g id="a_node4"><a xlink:href="d__cc__s_8h.html" target="_top" xlink:title=" ">
<polygon fill="white" stroke="#666666" points="294.5,-222.5 183.5,-222.5 183.5,-203.5 294.5,-203.5 294.5,-222.5"/>
<text text-anchor="middle" x="239" y="-210.5" font-family="Helvetica,sans-Serif" font-size="10.00">include/d/cc/d_cc_s.h</text>
</a>
</g>
</g>
<!-- Node3&#45;&gt;Node4 -->
<g id="edge3" class="edge">
<title>Node3&#45;&gt;Node4</title>
<path fill="none" stroke="#63b8ff" d="M205.27,-330C214.57,-298 230.23,-244.16 236.39,-222.96"/>
<polygon fill="#63b8ff" stroke="#63b8ff" points="202.01,-328.67 202.58,-339.25 208.73,-330.63 202.01,-328.67"/>
</g>
<!-- Node193 -->
<g id="node16" class="node">
<title>Node193</title>
<g id="a_node16"><a xlink:href="c__cc__s_8cpp.html" target="_top" xlink:title=" ">
<polygon fill="white" stroke="#666666" points="192,-299.5 58,-299.5 58,-269.5 192,-269.5 192,-299.5"/>
<text text-anchor="start" x="66" y="-287.5" font-family="Helvetica,sans-Serif" font-size="10.00">libs/SSystem/SComponent</text>
<text text-anchor="middle" x="125" y="-276.5" font-family="Helvetica,sans-Serif" font-size="10.00">/c_cc_s.cpp</text>
</a>
</g>
</g>
<!-- Node3&#45;&gt;Node193 -->
<g id="edge16" class="edge">
<title>Node3&#45;&gt;Node193</title>
<path fill="none" stroke="#63b8ff" d="M174.68,-332.8C163.36,-322.02 150.09,-309.38 140.11,-299.88"/>
<polygon fill="#63b8ff" stroke="#63b8ff" points="172.12,-335.2 181.78,-339.56 176.95,-330.13 172.12,-335.2"/>
</g>
<!-- Node5 -->
<g id="node5" class="node">
<title>Node5</title>
<g id="a_node5"><a xlink:href="d__com__inf__game_8h.html" target="_top" xlink:title=" ">
<polygon fill="#fff0f0" stroke="red" points="870,-162 760,-162 760,-132 870,-132 870,-162"/>
<text text-anchor="start" x="768" y="-150" font-family="Helvetica,sans-Serif" font-size="10.00">include/d/com/d_com</text>
<text text-anchor="middle" x="815" y="-139" font-family="Helvetica,sans-Serif" font-size="10.00">_inf_game.h</text>
</a>
</g>
</g>
<!-- Node4&#45;&gt;Node5 -->
<g id="edge4" class="edge">
<title>Node4&#45;&gt;Node5</title>
<path fill="none" stroke="#63b8ff" d="M295.34,-201.09C301.95,-199.96 308.62,-198.91 315,-198 475.87,-175.18 667.32,-159.1 759.7,-152.03"/>
<polygon fill="#63b8ff" stroke="#63b8ff" points="295.05,-197.58 285.8,-202.76 296.26,-204.48 295.05,-197.58"/>
</g>
<!-- Node135 -->
<g id="node12" class="node">
<title>Node135</title>
<g id="a_node12"><a xlink:href="d__cc__s_8cpp.html" target="_top" xlink:title=" ">
<polygon fill="white" stroke="#666666" points="104,-85 0,-85 0,-66 104,-66 104,-85"/>
<text text-anchor="middle" x="52" y="-73" font-family="Helvetica,sans-Serif" font-size="10.00">src/d/cc/d_cc_s.cpp</text>
</a>
</g>
</g>
<!-- Node4&#45;&gt;Node135 -->
<g id="edge15" class="edge">
<title>Node4&#45;&gt;Node135</title>
<path fill="none" stroke="#63b8ff" d="M194.03,-199.65C169.89,-191.55 140.55,-179.24 118,-162 89.25,-140.02 66.34,-102.59 56.8,-85.49"/>
<polygon fill="#63b8ff" stroke="#63b8ff" points="192.68,-202.89 203.28,-202.61 194.82,-196.23 192.68,-202.89"/>
</g>
<!-- Node77 -->
<g id="node6" class="node">
<title>Node77</title>
<g id="a_node6"><a xlink:href="d__a__obj__bombf_8h.html" target="_top" xlink:title=" ">
<polygon fill="white" stroke="#666666" points="1133,-96 1011,-96 1011,-55 1133,-55 1133,-96"/>
<text text-anchor="start" x="1019" y="-84" font-family="Helvetica,sans-Serif" font-size="10.00">include/rel/d/a/obj</text>
<text text-anchor="start" x="1019" y="-73" font-family="Helvetica,sans-Serif" font-size="10.00">/d_a_obj_bombf/d_a_obj</text>
<text text-anchor="middle" x="1072" y="-62" font-family="Helvetica,sans-Serif" font-size="10.00">_bombf.h</text>
</a>
</g>
</g>
<!-- Node5&#45;&gt;Node77 -->
<g id="edge5" class="edge">
<title>Node5&#45;&gt;Node77</title>
<path fill="none" stroke="#63b8ff" d="M880.29,-128.72C916.23,-119.17 961.6,-107.03 1002,-96 1004.8,-95.24 1007.66,-94.45 1010.55,-93.66"/>
<polygon fill="#63b8ff" stroke="#63b8ff" points="879.68,-125.26 870.92,-131.21 881.48,-132.03 879.68,-125.26"/>
</g>
<!-- Node78 -->
<g id="node7" class="node">
<title>Node78</title>
<g id="a_node7"><a xlink:href="d__a__obj__carry_8h.html" target="_top" xlink:title=" ">
<polygon fill="#fff0f0" stroke="red" points="993,-96 877,-96 877,-55 993,-55 993,-96"/>
<text text-anchor="start" x="885" y="-84" font-family="Helvetica,sans-Serif" font-size="10.00">include/rel/d/a/obj</text>
<text text-anchor="start" x="885" y="-73" font-family="Helvetica,sans-Serif" font-size="10.00">/d_a_obj_carry/d_a_obj</text>
<text text-anchor="middle" x="935" y="-62" font-family="Helvetica,sans-Serif" font-size="10.00">_carry.h</text>
</a>
</g>
</g>
<!-- Node5&#45;&gt;Node78 -->
<g id="edge6" class="edge">
<title>Node5&#45;&gt;Node78</title>
<path fill="none" stroke="#63b8ff" d="M849.42,-126.06C865.48,-116.76 884.56,-105.72 900.61,-96.42"/>
<polygon fill="#63b8ff" stroke="#63b8ff" points="848.07,-122.8 841.17,-130.84 851.58,-128.86 848.07,-122.8"/>
</g>
<!-- Node108 -->
<g id="node9" class="node">
<title>Node108</title>
<g id="a_node9"><a xlink:href="d__a__tag__hinit_8h.html" target="_top" xlink:title=" ">
<polygon fill="white" stroke="#666666" points="712.5,-96 597.5,-96 597.5,-55 712.5,-55 712.5,-96"/>
<text text-anchor="start" x="605.5" y="-84" font-family="Helvetica,sans-Serif" font-size="10.00">include/rel/d/a/tag</text>
<text text-anchor="start" x="605.5" y="-73" font-family="Helvetica,sans-Serif" font-size="10.00">/d_a_tag_hinit/d_a_tag</text>
<text text-anchor="middle" x="655" y="-62" font-family="Helvetica,sans-Serif" font-size="10.00">_hinit.h</text>
</a>
</g>
</g>
<!-- Node5&#45;&gt;Node108 -->
<g id="edge8" class="edge">
<title>Node5&#45;&gt;Node108</title>
<path fill="none" stroke="#63b8ff" d="M771.51,-127.11C749.61,-117.6 723.07,-106.07 700.85,-96.42"/>
<polygon fill="#63b8ff" stroke="#63b8ff" points="769.89,-130.22 780.46,-131 772.68,-123.8 769.89,-130.22"/>
</g>
<!-- Node129 -->
<g id="node10" class="node">
<title>Node129</title>
<g id="a_node10"><a xlink:href="d__a__itembase_8cpp.html" target="_top" xlink:title=" ">
<polygon fill="white" stroke="#666666" points="859,-85 731,-85 731,-66 859,-66 859,-85"/>
<text text-anchor="middle" x="795" y="-73" font-family="Helvetica,sans-Serif" font-size="10.00">src/d/a/d_a_itembase.cpp</text>
</a>
</g>
</g>
<!-- Node5&#45;&gt;Node129 -->
<g id="edge9" class="edge">
<title>Node5&#45;&gt;Node129</title>
<path fill="none" stroke="#63b8ff" d="M807.76,-120.84C804.17,-108.36 800.06,-94.08 797.5,-85.18"/>
<polygon fill="#63b8ff" stroke="#63b8ff" points="804.31,-121.5 810.44,-130.15 811.04,-119.57 804.31,-121.5"/>
</g>
<!-- Node134 -->
<g id="node11" class="node">
<title>Node134</title>
<g id="a_node11"><a xlink:href="d__bg__w_8cpp.html" target="_top" xlink:title=" ">
<polygon fill="white" stroke="#666666" points="579.5,-85 472.5,-85 472.5,-66 579.5,-66 579.5,-85"/>
<text text-anchor="middle" x="526" y="-73" font-family="Helvetica,sans-Serif" font-size="10.00">src/d/bg/d_bg_w.cpp</text>
</a>
</g>
</g>
<!-- Node5&#45;&gt;Node134 -->
<g id="edge10" class="edge">
<title>Node5&#45;&gt;Node134</title>
<path fill="none" stroke="#63b8ff" d="M748.75,-132.84C703.52,-123.5 642.36,-110.13 589,-96 577.16,-92.86 564.21,-88.94 553.15,-85.44"/>
<polygon fill="#63b8ff" stroke="#63b8ff" points="747.91,-136.24 758.41,-134.83 749.32,-129.39 747.91,-136.24"/>
</g>
<!-- Node5&#45;&gt;Node135 -->
<g id="edge11" class="edge">
<title>Node5&#45;&gt;Node135</title>
<path fill="none" stroke="#63b8ff" d="M748.52,-143.62C628.64,-138.75 368.51,-125.5 151,-96 131.38,-93.34 109.8,-89.23 91.8,-85.47"/>
<polygon fill="#63b8ff" stroke="#63b8ff" points="748.03,-147.1 758.16,-144.01 748.31,-140.11 748.03,-147.1"/>
</g>
<!-- Node39 -->
<g id="node13" class="node">
<title>Node39</title>
<g id="a_node13"><a xlink:href="d__com__inf__game_8cpp.html" target="_top" xlink:title=" ">
<polygon fill="white" stroke="#666666" points="1397,-90.5 1289,-90.5 1289,-60.5 1397,-60.5 1397,-90.5"/>
<text text-anchor="start" x="1297" y="-78.5" font-family="Helvetica,sans-Serif" font-size="10.00">src/d/com/d_com_inf</text>
<text text-anchor="middle" x="1343" y="-67.5" font-family="Helvetica,sans-Serif" font-size="10.00">_game.cpp</text>
</a>
</g>
</g>
<!-- Node5&#45;&gt;Node39 -->
<g id="edge12" class="edge">
<title>Node5&#45;&gt;Node39</title>
<path fill="none" stroke="#63b8ff" d="M881.47,-132.38C882.32,-132.25 883.16,-132.12 884,-132 1058.86,-106.39 1106.64,-130.32 1280,-96 1286.74,-94.67 1293.78,-92.89 1300.61,-90.94"/>
<polygon fill="#63b8ff" stroke="#63b8ff" points="881.06,-128.9 871.76,-133.98 882.2,-135.81 881.06,-128.9"/>
</g>
<!-- Node138 -->
<g id="node14" class="node">
<title>Node138</title>
<g id="a_node14"><a xlink:href="d__camera_8cpp.html" target="_top" xlink:title=" ">
<polygon fill="white" stroke="#666666" points="1517,-85 1415,-85 1415,-66 1517,-66 1517,-85"/>
<text text-anchor="middle" x="1466" y="-73" font-family="Helvetica,sans-Serif" font-size="10.00">src/d/d_camera.cpp</text>
</a>
</g>
</g>
<!-- Node5&#45;&gt;Node138 -->
<g id="edge13" class="edge">
<title>Node5&#45;&gt;Node138</title>
<path fill="none" stroke="#63b8ff" d="M881.46,-132.35C882.31,-132.23 883.16,-132.11 884,-132 1114.45,-100.81 1177.7,-140.27 1406,-96 1418.47,-93.58 1431.96,-89.35 1442.98,-85.45"/>
<polygon fill="#63b8ff" stroke="#63b8ff" points="881.08,-128.87 871.75,-133.89 882.17,-135.78 881.08,-128.87"/>
</g>
<!-- Node181 -->
<g id="node15" class="node">
<title>Node181</title>
<g id="a_node15"><a xlink:href="f__op__actor_8cpp.html" target="_top" xlink:title=" ">
<polygon fill="white" stroke="#666666" points="1270.5,-85 1151.5,-85 1151.5,-66 1270.5,-66 1270.5,-85"/>
<text text-anchor="middle" x="1211" y="-73" font-family="Helvetica,sans-Serif" font-size="10.00">src/f_op/f_op_actor.cpp</text>
</a>
</g>
</g>
<!-- Node5&#45;&gt;Node181 -->
<g id="edge14" class="edge">
<title>Node5&#45;&gt;Node181</title>
<path fill="none" stroke="#63b8ff" d="M881.48,-132.44C882.32,-132.29 883.16,-132.14 884,-132 998.12,-112.48 1028.69,-119.8 1142,-96 1155.52,-93.16 1170.29,-89.12 1182.68,-85.45"/>
<polygon fill="#63b8ff" stroke="#63b8ff" points="881.01,-128.96 871.79,-134.2 882.26,-135.85 881.01,-128.96"/>
</g>
<!-- Node22 -->
<g id="node8" class="node">
<title>Node22</title>
<g id="a_node8"><a xlink:href="d__a__alink_8cpp.html" target="_top" xlink:title=" ">
<polygon fill="white" stroke="#666666" points="498.5,-19 389.5,-19 389.5,0 498.5,0 498.5,-19"/>
<text text-anchor="middle" x="444" y="-7" font-family="Helvetica,sans-Serif" font-size="10.00">src/d/a/d_a_alink.cpp</text>
</a>
</g>
</g>
<!-- Node78&#45;&gt;Node22 -->
<g id="edge7" class="edge">
<title>Node78&#45;&gt;Node22</title>
<path fill="none" stroke="#63b8ff" d="M865.59,-54.71C728.68,-28.65 577.75,-17.57 498.68,-13.11"/>
<polygon fill="#63b8ff" stroke="#63b8ff" points="864.72,-58.11 875.2,-56.57 866.05,-51.23 864.72,-58.11"/>
</g>
<!-- Node194&#45;&gt;Node78 -->
<g id="edge57" class="edge">
<title>Node194&#45;&gt;Node78</title>
<path fill="none" stroke="#63b8ff" d="M915.04,-353.92C833.67,-351.03 703.45,-340.77 673,-305 661.19,-291.12 661.09,-277.79 673,-264 744.63,-181.02 840.59,-306.6 917,-228 951.34,-192.68 945.28,-128.71 939.4,-96.36"/>
<polygon fill="#63b8ff" stroke="#63b8ff" points="914.56,-357.41 924.67,-354.23 914.79,-350.41 914.56,-357.41"/>
</g>
<!-- Node195 -->
<g id="node18" class="node">
<title>Node195</title>
<g id="a_node18"><a xlink:href="d__a__alink_8h.html" target="_top" xlink:title=" ">
<polygon fill="white" stroke="#666666" points="1743,-156.5 1627,-156.5 1627,-137.5 1743,-137.5 1743,-156.5"/>
<text text-anchor="middle" x="1685" y="-144.5" font-family="Helvetica,sans-Serif" font-size="10.00">include/d/a/d_a_alink.h</text>
</a>
</g>
</g>
<!-- Node194&#45;&gt;Node195 -->
<g id="edge18" class="edge">
<title>Node194&#45;&gt;Node195</title>
<path fill="none" stroke="#63b8ff" d="M1029.42,-343.81C1035.31,-342.71 1041.28,-341.73 1047,-341 1095.15,-334.87 1886.39,-340.02 1920,-305 1930.35,-294.21 1926.26,-209.96 1916,-198 1893.96,-172.31 1804.37,-158.96 1743.46,-152.72"/>
<polygon fill="#63b8ff" stroke="#63b8ff" points="1028.85,-340.35 1019.74,-345.75 1030.23,-347.22 1028.85,-340.35"/>
</g>
<!-- Node196 -->
<g id="node23" class="node">
<title>Node196</title>
<g id="a_node23"><a xlink:href="d__a__item__static_8h.html" target="_top" xlink:title=" ">
<polygon fill="white" stroke="#666666" points="1390.5,-228 1283.5,-228 1283.5,-198 1390.5,-198 1390.5,-228"/>
<text text-anchor="start" x="1291.5" y="-216" font-family="Helvetica,sans-Serif" font-size="10.00">include/d/a/d_a_item</text>
<text text-anchor="middle" x="1337" y="-205" font-family="Helvetica,sans-Serif" font-size="10.00">_static.h</text>
</a>
</g>
</g>
<!-- Node194&#45;&gt;Node196 -->
<g id="edge27" class="edge">
<title>Node194&#45;&gt;Node196</title>
<path fill="none" stroke="#63b8ff" d="M1029.64,-343.82C1035.46,-342.72 1041.35,-341.75 1047,-341 1125.86,-330.59 1707.19,-362.64 1762,-305 1774.56,-291.79 1774.11,-277.62 1762,-264 1737.72,-236.69 1499.72,-221.83 1390.86,-216.41"/>
<polygon fill="#63b8ff" stroke="#63b8ff" points="1029.2,-340.34 1020.08,-345.74 1030.58,-347.2 1029.2,-340.34"/>
</g>
<!-- Node200 -->
<g id="node27" class="node">
<title>Node200</title>
<g id="a_node27"><a xlink:href="d__a__itembase_8h.html" target="_top" xlink:title=" ">
<polygon fill="white" stroke="#666666" points="624.5,-294 489.5,-294 489.5,-275 624.5,-275 624.5,-294"/>
<text text-anchor="middle" x="557" y="-282" font-family="Helvetica,sans-Serif" font-size="10.00">include/d/a/d_a_itembase.h</text>
</a>
</g>
</g>
<!-- Node194&#45;&gt;Node200 -->
<g id="edge31" class="edge">
<title>Node194&#45;&gt;Node200</title>
<path fill="none" stroke="#63b8ff" d="M915.02,-347.02C845.67,-338.34 734.32,-323.24 639,-305 623.33,-302 606.14,-298.02 591.57,-294.44"/>
<polygon fill="#63b8ff" stroke="#63b8ff" points="914.34,-350.47 924.7,-348.22 915.21,-343.52 914.34,-350.47"/>
</g>
<!-- Node206 -->
<g id="node31" class="node">
<title>Node206</title>
<g id="a_node31"><a xlink:href="d__bomb_8h.html" target="_top" xlink:title=" ">
<polygon fill="white" stroke="#666666" points="1910.5,-294 1809.5,-294 1809.5,-275 1910.5,-275 1910.5,-294"/>
<text text-anchor="middle" x="1860" y="-282" font-family="Helvetica,sans-Serif" font-size="10.00">include/d/d_bomb.h</text>
</a>
</g>
</g>
<!-- Node194&#45;&gt;Node206 -->
<g id="edge39" class="edge">
<title>Node194&#45;&gt;Node206</title>
<path fill="none" stroke="#63b8ff" d="M1029.64,-343.81C1035.46,-342.71 1041.35,-341.74 1047,-341 1377.02,-297.82 1466.96,-361.23 1795,-305 1808.59,-302.67 1823.33,-298.4 1835.34,-294.44"/>
<polygon fill="#63b8ff" stroke="#63b8ff" points="1029.2,-340.32 1020.08,-345.72 1030.58,-347.19 1029.2,-340.32"/>
</g>
<!-- Node208 -->
<g id="node33" class="node">
<title>Node208</title>
<g id="a_node33"><a xlink:href="d__a__arrow_8h.html" target="_top" xlink:title=" ">
<polygon fill="white" stroke="#666666" points="782.5,-299.5 681.5,-299.5 681.5,-269.5 782.5,-269.5 782.5,-299.5"/>
<text text-anchor="start" x="689.5" y="-287.5" font-family="Helvetica,sans-Serif" font-size="10.00">include/rel/d/a/d_a</text>
<text text-anchor="middle" x="732" y="-276.5" font-family="Helvetica,sans-Serif" font-size="10.00">_arrow/d_a_arrow.h</text>
</a>
</g>
</g>
<!-- Node194&#45;&gt;Node208 -->
<g id="edge42" class="edge">
<title>Node194&#45;&gt;Node208</title>
<path fill="none" stroke="#63b8ff" d="M934.51,-343.3C895.95,-333.61 840.25,-319.18 792,-305 786.64,-303.43 781.04,-301.7 775.49,-299.96"/>
<polygon fill="#63b8ff" stroke="#63b8ff" points="933.39,-346.63 943.94,-345.66 935.09,-339.84 933.39,-346.63"/>
</g>
<!-- Node209 -->
<g id="node34" class="node">
<title>Node209</title>
<g id="a_node34"><a xlink:href="d__a__bg__obj_8h.html" target="_top" xlink:title=" ">
<polygon fill="white" stroke="#666666" points="911,-299.5 801,-299.5 801,-269.5 911,-269.5 911,-299.5"/>
<text text-anchor="start" x="809" y="-287.5" font-family="Helvetica,sans-Serif" font-size="10.00">include/rel/d/a/d_a</text>
<text text-anchor="middle" x="856" y="-276.5" font-family="Helvetica,sans-Serif" font-size="10.00">_bg_obj/d_a_bg_obj.h</text>
</a>
</g>
</g>
<!-- Node194&#45;&gt;Node209 -->
<g id="edge43" class="edge">
<title>Node194&#45;&gt;Node209</title>
<path fill="none" stroke="#63b8ff" d="M955.99,-340.65C934.42,-328.75 903.88,-311.91 882.24,-299.97"/>
<polygon fill="#63b8ff" stroke="#63b8ff" points="954.01,-343.56 964.46,-345.33 957.39,-337.43 954.01,-343.56"/>
</g>
<!-- Node210 -->
<g id="node35" class="node">
<title>Node210</title>
<g id="a_node35"><a xlink:href="d__a__boomerang_8h.html" target="_top" xlink:title=" ">
<polygon fill="white" stroke="#666666" points="2122.5,-228 1973.5,-228 1973.5,-198 2122.5,-198 2122.5,-228"/>
<text text-anchor="start" x="1981.5" y="-216" font-family="Helvetica,sans-Serif" font-size="10.00">include/rel/d/a/d_a</text>
<text text-anchor="middle" x="2048" y="-205" font-family="Helvetica,sans-Serif" font-size="10.00">_boomerang/d_a_boomerang.h</text>
</a>
</g>
</g>
<!-- Node194&#45;&gt;Node210 -->
<g id="edge44" class="edge">
<title>Node194&#45;&gt;Node210</title>
<path fill="none" stroke="#63b8ff" d="M1029.42,-343.8C1035.31,-342.7 1041.28,-341.72 1047,-341 1146.95,-328.35 1860.28,-344.4 1953,-305 1991.26,-288.74 2023.13,-249.61 2038.37,-228.34"/>
<polygon fill="#63b8ff" stroke="#63b8ff" points="1028.85,-340.34 1019.73,-345.74 1030.23,-347.21 1028.85,-340.34"/>
</g>
<!-- Node211 -->
<g id="node36" class="node">
<title>Node211</title>
<g id="a_node36"><a xlink:href="d__a__canoe_8h.html" target="_top" xlink:title=" ">
<polygon fill="white" stroke="#666666" points="1035,-299.5 929,-299.5 929,-269.5 1035,-269.5 1035,-299.5"/>
<text text-anchor="start" x="937" y="-287.5" font-family="Helvetica,sans-Serif" font-size="10.00">include/rel/d/a/d_a</text>
<text text-anchor="middle" x="982" y="-276.5" font-family="Helvetica,sans-Serif" font-size="10.00">_canoe/d_a_canoe.h</text>
</a>
</g>
</g>
<!-- Node194&#45;&gt;Node211 -->
<g id="edge46" class="edge">
<title>Node194&#45;&gt;Node211</title>
<path fill="none" stroke="#63b8ff" d="M982,-334.89C982,-323.65 982,-309.91 982,-299.77"/>
<polygon fill="#63b8ff" stroke="#63b8ff" points="978.5,-334.68 982,-344.68 985.5,-334.68 978.5,-334.68"/>
</g>
<!-- Node212 -->
<g id="node37" class="node">
<title>Node212</title>
<g id="a_node37"><a xlink:href="d__a__crod_8h.html" target="_top" xlink:title=" ">
<polygon fill="white" stroke="#666666" points="420,-228 324,-228 324,-198 420,-198 420,-228"/>
<text text-anchor="start" x="332" y="-216" font-family="Helvetica,sans-Serif" font-size="10.00">include/rel/d/a/d_a</text>
<text text-anchor="middle" x="372" y="-205" font-family="Helvetica,sans-Serif" font-size="10.00">_crod/d_a_crod.h</text>
</a>
</g>
</g>
<!-- Node194&#45;&gt;Node212 -->
<g id="edge47" class="edge">
<title>Node194&#45;&gt;Node212</title>
<path fill="none" stroke="#63b8ff" d="M914.7,-355.25C788.88,-354.66 523.56,-348.16 444,-305 427.44,-296.02 396.66,-251.6 381.26,-228.31"/>
<polygon fill="#63b8ff" stroke="#63b8ff" points="914.54,-358.75 924.55,-355.28 914.56,-351.75 914.54,-358.75"/>
</g>
<!-- Node213 -->
<g id="node38" class="node">
<title>Node213</title>
<g id="a_node38"><a xlink:href="d__a__cstatue_8h.html" target="_top" xlink:title=" ">
<polygon fill="white" stroke="#666666" points="1171,-299.5 1053,-299.5 1053,-269.5 1171,-269.5 1171,-299.5"/>
<text text-anchor="start" x="1061" y="-287.5" font-family="Helvetica,sans-Serif" font-size="10.00">include/rel/d/a/d_a</text>
<text text-anchor="middle" x="1112" y="-276.5" font-family="Helvetica,sans-Serif" font-size="10.00">_cstatue/d_a_cstatue.h</text>
</a>
</g>
</g>
<!-- Node194&#45;&gt;Node213 -->
<g id="edge49" class="edge">
<title>Node194&#45;&gt;Node213</title>
<path fill="none" stroke="#63b8ff" d="M1008.83,-340.65C1031.09,-328.75 1062.6,-311.91 1084.93,-299.97"/>
<polygon fill="#63b8ff" stroke="#63b8ff" points="1007.23,-337.54 1000.06,-345.34 1010.53,-343.71 1007.23,-337.54"/>
</g>
<!-- Node214 -->
<g id="node39" class="node">
<title>Node214</title>
<g id="a_node39"><a xlink:href="d__a__horse_8h.html" target="_top" xlink:title=" ">
<polygon fill="white" stroke="#666666" points="467.5,-162 366.5,-162 366.5,-132 467.5,-132 467.5,-162"/>
<text text-anchor="start" x="374.5" y="-150" font-family="Helvetica,sans-Serif" font-size="10.00">include/rel/d/a/d_a</text>
<text text-anchor="middle" x="417" y="-139" font-family="Helvetica,sans-Serif" font-size="10.00">_horse/d_a_horse.h</text>
</a>
</g>
</g>
<!-- Node194&#45;&gt;Node214 -->
<g id="edge50" class="edge">
<title>Node194&#45;&gt;Node214</title>
<path fill="none" stroke="#63b8ff" d="M914.81,-352.12C786.23,-346.07 515.03,-330.42 481,-305 456.89,-286.99 430.46,-197.57 420.8,-162.32"/>
<polygon fill="#63b8ff" stroke="#63b8ff" points="914.39,-355.61 924.54,-352.57 914.72,-348.61 914.39,-355.61"/>
</g>
<!-- Node215 -->
<g id="node42" class="node">
<title>Node215</title>
<g id="a_node42"><a xlink:href="d__a__obj__hbombkoya_8h.html" target="_top" xlink:title=" ">
<polygon fill="white" stroke="#666666" points="1305,-305 1189,-305 1189,-264 1305,-264 1305,-305"/>
<text text-anchor="start" x="1197" y="-293" font-family="Helvetica,sans-Serif" font-size="10.00">include/rel/d/a/obj</text>
<text text-anchor="start" x="1197" y="-282" font-family="Helvetica,sans-Serif" font-size="10.00">/d_a_obj_hbombkoya/d</text>
<text text-anchor="middle" x="1247" y="-271" font-family="Helvetica,sans-Serif" font-size="10.00">_a_obj_hbombkoya.h</text>
</a>
</g>
</g>
<!-- Node194&#45;&gt;Node215 -->
<g id="edge58" class="edge">
<title>Node194&#45;&gt;Node215</title>
<path fill="none" stroke="#63b8ff" d="M1030.03,-343.38C1070.21,-333.54 1128.98,-318.86 1180,-305 1182.81,-304.24 1185.67,-303.45 1188.57,-302.64"/>
<polygon fill="#63b8ff" stroke="#63b8ff" points="1029.31,-339.95 1020.43,-345.73 1030.98,-346.75 1029.31,-339.95"/>
</g>
<!-- Node216 -->
<g id="node43" class="node">
<title>Node216</title>
<g id="a_node43"><a xlink:href="d__a__obj__swhang_8h.html" target="_top" xlink:title=" ">
<polygon fill="white" stroke="#666666" points="1434.5,-305 1323.5,-305 1323.5,-264 1434.5,-264 1434.5,-305"/>
<text text-anchor="start" x="1331.5" y="-293" font-family="Helvetica,sans-Serif" font-size="10.00">include/rel/d/a/obj</text>
<text text-anchor="start" x="1331.5" y="-282" font-family="Helvetica,sans-Serif" font-size="10.00">/d_a_obj_swhang/d_a</text>
<text text-anchor="middle" x="1379" y="-271" font-family="Helvetica,sans-Serif" font-size="10.00">_obj_swhang.h</text>
</a>
</g>
</g>
<!-- Node194&#45;&gt;Node216 -->
<g id="edge59" class="edge">
<title>Node194&#45;&gt;Node216</title>
<path fill="none" stroke="#63b8ff" d="M1032.04,-343.81C1037.08,-342.81 1042.14,-341.85 1047,-341 1164.95,-320.38 1196.96,-330.28 1314,-305 1316.99,-304.35 1320.05,-303.64 1323.13,-302.87"/>
<polygon fill="#63b8ff" stroke="#63b8ff" points="1031.66,-340.32 1022.57,-345.76 1033.07,-347.17 1031.66,-340.32"/>
</g>
<!-- Node217 -->
<g id="node44" class="node">
<title>Node217</title>
<g id="a_node44"><a xlink:href="d__a__obj__swpropeller_8h.html" target="_top" xlink:title=" ">
<polygon fill="white" stroke="#666666" points="1569,-305 1453,-305 1453,-264 1569,-264 1569,-305"/>
<text text-anchor="start" x="1461" y="-293" font-family="Helvetica,sans-Serif" font-size="10.00">include/rel/d/a/obj</text>
<text text-anchor="start" x="1461" y="-282" font-family="Helvetica,sans-Serif" font-size="10.00">/d_a_obj_swpropeller</text>
<text text-anchor="middle" x="1511" y="-271" font-family="Helvetica,sans-Serif" font-size="10.00">/d_a_obj_swpropeller.h</text>
</a>
</g>
</g>
<!-- Node194&#45;&gt;Node217 -->
<g id="edge60" class="edge">
<title>Node194&#45;&gt;Node217</title>
<path fill="none" stroke="#63b8ff" d="M1030.96,-343.79C1036.36,-342.75 1041.78,-341.8 1047,-341 1222.14,-314.3 1269.91,-337.91 1444,-305 1446.86,-304.46 1449.77,-303.85 1452.7,-303.19"/>
<polygon fill="#63b8ff" stroke="#63b8ff" points="1030.6,-340.29 1021.49,-345.7 1031.99,-347.15 1030.6,-340.29"/>
</g>
<!-- Node218 -->
<g id="node45" class="node">
<title>Node218</title>
<g id="a_node45"><a xlink:href="d__cc__d__nonmatching_8cpp.html" target="_top" xlink:title=" ">
<polygon fill="white" stroke="#666666" points="1752.5,-294 1587.5,-294 1587.5,-275 1752.5,-275 1752.5,-294"/>
<text text-anchor="middle" x="1670" y="-282" font-family="Helvetica,sans-Serif" font-size="10.00">src/d/cc/d_cc_d_nonmatching.cpp</text>
</a>
</g>
</g>
<!-- Node194&#45;&gt;Node218 -->
<g id="edge61" class="edge">
<title>Node194&#45;&gt;Node218</title>
<path fill="none" stroke="#63b8ff" d="M1030.52,-343.75C1036.06,-342.7 1041.64,-341.76 1047,-341 1281.23,-308.01 1343.72,-337.6 1578,-305 1596.44,-302.43 1616.7,-298.29 1633.5,-294.48"/>
<polygon fill="#63b8ff" stroke="#63b8ff" points="1029.9,-340.3 1020.78,-345.7 1031.28,-347.17 1029.9,-340.3"/>
</g>
<!-- Node219 -->
<g id="node46" class="node">
<title>Node219</title>
<g id="a_node46"><a xlink:href="d__cc__mass__s_8cpp.html" target="_top" xlink:title=" ">
<polygon fill="white" stroke="#666666" points="391.5,-299.5 286.5,-299.5 286.5,-269.5 391.5,-269.5 391.5,-299.5"/>
<text text-anchor="start" x="294.5" y="-287.5" font-family="Helvetica,sans-Serif" font-size="10.00">src/d/cc/d_cc_mass</text>
<text text-anchor="middle" x="339" y="-276.5" font-family="Helvetica,sans-Serif" font-size="10.00">_s.cpp</text>
</a>
</g>
</g>
<!-- Node194&#45;&gt;Node219 -->
<g id="edge62" class="edge">
<title>Node194&#45;&gt;Node219</title>
<path fill="none" stroke="#63b8ff" d="M914.95,-353.45C806.93,-349.99 588.06,-339.05 406,-305 398.86,-303.66 391.38,-301.88 384.12,-299.94"/>
<polygon fill="#63b8ff" stroke="#63b8ff" points="914.69,-356.94 924.8,-353.75 914.91,-349.94 914.69,-356.94"/>
</g>
<!-- Node195&#45;&gt;Node22 -->
<g id="edge19" class="edge">
<title>Node195&#45;&gt;Node22</title>
<path fill="none" stroke="#63b8ff" d="M1687.23,-126.09C1688.36,-104.91 1686.32,-72.14 1666,-55 1620.87,-16.93 731.08,-11.42 498.98,-10.63"/>
<polygon fill="#63b8ff" stroke="#63b8ff" points="1683.76,-125.51 1686.41,-135.77 1690.74,-126.1 1683.76,-125.51"/>
</g>
<!-- Node195&#45;&gt;Node39 -->
<g id="edge21" class="edge">
<title>Node195&#45;&gt;Node39</title>
<path fill="none" stroke="#63b8ff" d="M1615.23,-135.93C1558.49,-127.16 1476.56,-113.17 1406,-96 1399.88,-94.51 1393.48,-92.76 1387.21,-90.93"/>
<polygon fill="#63b8ff" stroke="#63b8ff" points="1614.68,-139.39 1625.09,-137.44 1615.74,-132.47 1614.68,-139.39"/>
</g>
<!-- Node195&#45;&gt;Node138 -->
<g id="edge22" class="edge">
<title>Node195&#45;&gt;Node138</title>
<path fill="none" stroke="#63b8ff" d="M1646.06,-133.71C1614.07,-123.61 1567.59,-108.91 1527,-96 1516.19,-92.56 1504.31,-88.77 1493.93,-85.45"/>
<polygon fill="#63b8ff" stroke="#63b8ff" points="1644.7,-136.95 1655.29,-136.63 1646.81,-130.28 1644.7,-136.95"/>
</g>
<!-- Node195&#45;&gt;Node181 -->
<g id="edge26" class="edge">
<title>Node195&#45;&gt;Node181</title>
<path fill="none" stroke="#63b8ff" d="M1615.44,-138.71C1517.1,-128.18 1342.46,-108.6 1280,-96 1266.33,-93.24 1251.42,-89.16 1238.96,-85.45"/>
<polygon fill="#63b8ff" stroke="#63b8ff" points="1614.93,-142.18 1625.24,-139.76 1615.67,-135.21 1614.93,-142.18"/>
</g>
<!-- Node72 -->
<g id="node19" class="node">
<title>Node72</title>
<g id="a_node19"><a xlink:href="d__a__player_8cpp.html" target="_top" xlink:title=" ">
<polygon fill="white" stroke="#666666" points="2107,-85 1993,-85 1993,-66 2107,-66 2107,-85"/>
<text text-anchor="middle" x="2050" y="-73" font-family="Helvetica,sans-Serif" font-size="10.00">src/d/a/d_a_player.cpp</text>
</a>
</g>
</g>
<!-- Node195&#45;&gt;Node72 -->
<g id="edge20" class="edge">
<title>Node195&#45;&gt;Node72</title>
<path fill="none" stroke="#63b8ff" d="M1754.68,-136.8C1815.58,-128.17 1906.19,-113.93 1984,-96 1996.81,-93.05 2010.79,-89.03 2022.58,-85.41"/>
<polygon fill="#63b8ff" stroke="#63b8ff" points="1754.21,-133.33 1744.79,-138.18 1755.18,-140.26 1754.21,-133.33"/>
</g>
<!-- Node43 -->
<g id="node20" class="node">
<title>Node43</title>
<g id="a_node20"><a xlink:href="d__event_8cpp.html" target="_top" xlink:title=" ">
<polygon fill="white" stroke="#666666" points="1656.5,-85 1535.5,-85 1535.5,-66 1656.5,-66 1656.5,-85"/>
<text text-anchor="middle" x="1596" y="-73" font-family="Helvetica,sans-Serif" font-size="10.00">src/d/event/d_event.cpp</text>
</a>
</g>
</g>
<!-- Node195&#45;&gt;Node43 -->
<g id="edge23" class="edge">
<title>Node195&#45;&gt;Node43</title>
<path fill="none" stroke="#63b8ff" d="M1664.76,-130.19C1647.04,-116.35 1621.92,-96.74 1607.46,-85.45"/>
<polygon fill="#63b8ff" stroke="#63b8ff" points="1662.5,-132.87 1672.54,-136.27 1666.81,-127.35 1662.5,-132.87"/>
</g>
<!-- Node47 -->
<g id="node21" class="node">
<title>Node47</title>
<g id="a_node21"><a xlink:href="d__meter2__draw_8cpp.html" target="_top" xlink:title=" ">
<polygon fill="white" stroke="#666666" points="1975,-90.5 1865,-90.5 1865,-60.5 1975,-60.5 1975,-90.5"/>
<text text-anchor="start" x="1873" y="-78.5" font-family="Helvetica,sans-Serif" font-size="10.00">src/d/meter/d_meter2</text>
<text text-anchor="middle" x="1920" y="-67.5" font-family="Helvetica,sans-Serif" font-size="10.00">_draw.cpp</text>
</a>
</g>
</g>
<!-- Node195&#45;&gt;Node47 -->
<g id="edge24" class="edge">
<title>Node195&#45;&gt;Node47</title>
<path fill="none" stroke="#63b8ff" d="M1726.58,-133.98C1761.23,-123.94 1811.87,-109.17 1856,-96 1861.45,-94.37 1867.16,-92.65 1872.83,-90.94"/>
<polygon fill="#63b8ff" stroke="#63b8ff" points="1726.01,-130.51 1717.38,-136.65 1727.96,-137.23 1726.01,-130.51"/>
</g>
<!-- Node8 -->
<g id="node22" class="node">
<title>Node8</title>
<g id="a_node22"><a xlink:href="d__msg__flow_8cpp.html" target="_top" xlink:title=" ">
<polygon fill="white" stroke="#666666" points="1846.5,-85 1713.5,-85 1713.5,-66 1846.5,-66 1846.5,-85"/>
<text text-anchor="middle" x="1780" y="-73" font-family="Helvetica,sans-Serif" font-size="10.00">src/d/msg/d_msg_flow.cpp</text>
</a>
</g>
</g>
<!-- Node195&#45;&gt;Node8 -->
<g id="edge25" class="edge">
<title>Node195&#45;&gt;Node8</title>
<path fill="none" stroke="#63b8ff" d="M1706.08,-130.58C1725.03,-116.72 1752.19,-96.85 1767.77,-85.45"/>
<polygon fill="#63b8ff" stroke="#63b8ff" points="1704.26,-127.57 1698.25,-136.3 1708.39,-133.22 1704.26,-127.57"/>
</g>
<!-- Node197 -->
<g id="node24" class="node">
<title>Node197</title>
<g id="a_node24"><a xlink:href="d__a__obj__item_8h.html" target="_top" xlink:title=" ">
<polygon fill="#fff0f0" stroke="red" points="1270.5,-162 1169.5,-162 1169.5,-132 1270.5,-132 1270.5,-162"/>
<text text-anchor="start" x="1177.5" y="-150" font-family="Helvetica,sans-Serif" font-size="10.00">include/d/a/d_a_obj</text>
<text text-anchor="middle" x="1220" y="-139" font-family="Helvetica,sans-Serif" font-size="10.00">_item.h</text>
</a>
</g>
</g>
<!-- Node196&#45;&gt;Node197 -->
<g id="edge28" class="edge">
<title>Node196&#45;&gt;Node197</title>
<path fill="none" stroke="#63b8ff" d="M1300.77,-192.18C1283.11,-182.52 1262.26,-171.12 1246.17,-162.31"/>
<polygon fill="#63b8ff" stroke="#63b8ff" points="1298.96,-195.18 1309.42,-196.91 1302.32,-189.04 1298.96,-195.18"/>
</g>
<!-- Node198 -->
<g id="node25" class="node">
<title>Node198</title>
<g id="a_node25"><a xlink:href="d__a__do_8h.html" target="_top" xlink:title=" ">
<polygon fill="white" stroke="#666666" points="1385,-162 1289,-162 1289,-132 1385,-132 1385,-162"/>
<text text-anchor="start" x="1297" y="-150" font-family="Helvetica,sans-Serif" font-size="10.00">include/rel/d/a/d_a</text>
<text text-anchor="middle" x="1337" y="-139" font-family="Helvetica,sans-Serif" font-size="10.00">_do/d_a_do.h</text>
</a>
</g>
</g>
<!-- Node196&#45;&gt;Node198 -->
<g id="edge29" class="edge">
<title>Node196&#45;&gt;Node198</title>
<path fill="none" stroke="#63b8ff" d="M1337,-186.39C1337,-178.13 1337,-169.28 1337,-162.16"/>
<polygon fill="#63b8ff" stroke="#63b8ff" points="1333.5,-186.28 1337,-196.28 1340.5,-186.28 1333.5,-186.28"/>
</g>
<!-- Node199 -->
<g id="node26" class="node">
<title>Node199</title>
<g id="a_node26"><a xlink:href="d__a__item__static_8cpp.html" target="_top" xlink:title=" ">
<polygon fill="white" stroke="#666666" points="1540.5,-156.5 1403.5,-156.5 1403.5,-137.5 1540.5,-137.5 1540.5,-156.5"/>
<text text-anchor="middle" x="1472" y="-144.5" font-family="Helvetica,sans-Serif" font-size="10.00">src/d/a/d_a_item_static.cpp</text>
</a>
</g>
</g>
<!-- Node196&#45;&gt;Node199 -->
<g id="edge30" class="edge">
<title>Node196&#45;&gt;Node199</title>
<path fill="none" stroke="#63b8ff" d="M1377.61,-192.75C1402.64,-180.88 1433.57,-166.22 1453.05,-156.99"/>
<polygon fill="#63b8ff" stroke="#63b8ff" points="1376.2,-189.54 1368.66,-196.99 1379.2,-195.87 1376.2,-189.54"/>
</g>
<!-- Node200&#45;&gt;Node129 -->
<g id="edge37" class="edge">
<title>Node200&#45;&gt;Node129</title>
<path fill="none" stroke="#63b8ff" d="M538.96,-266.83C522.01,-249.07 501.27,-220.48 516,-198 544.74,-154.14 696.65,-105.25 763.45,-85.5"/>
<polygon fill="#63b8ff" stroke="#63b8ff" points="536.17,-268.98 545.74,-273.53 541.09,-264.01 536.17,-268.98"/>
</g>
<!-- Node200&#45;&gt;Node196 -->
<g id="edge32" class="edge">
<title>Node200&#45;&gt;Node196</title>
<path fill="none" stroke="#63b8ff" d="M615.41,-272.61C633.79,-269.47 654.2,-266.28 673,-264 898.79,-236.58 1169.73,-221.77 1283.04,-216.39"/>
<polygon fill="#63b8ff" stroke="#63b8ff" points="615.01,-269.13 605.76,-274.29 616.21,-276.02 615.01,-269.13"/>
</g>
<!-- Node201 -->
<g id="node28" class="node">
<title>Node201</title>
<g id="a_node28"><a xlink:href="d__a__shop__item__static_8h.html" target="_top" xlink:title=" ">
<polygon fill="#fff0f0" stroke="red" points="633.5,-228 524.5,-228 524.5,-198 633.5,-198 633.5,-228"/>
<text text-anchor="start" x="532.5" y="-216" font-family="Helvetica,sans-Serif" font-size="10.00">include/d/a/d_a_shop</text>
<text text-anchor="middle" x="579" y="-205" font-family="Helvetica,sans-Serif" font-size="10.00">_item_static.h</text>
</a>
</g>
</g>
<!-- Node200&#45;&gt;Node201 -->
<g id="edge33" class="edge">
<title>Node200&#45;&gt;Node201</title>
<path fill="none" stroke="#63b8ff" d="M563.25,-263.76C566.83,-252.45 571.24,-238.52 574.48,-228.27"/>
<polygon fill="#63b8ff" stroke="#63b8ff" points="559.92,-262.66 560.24,-273.25 566.6,-264.78 559.92,-262.66"/>
</g>
<!-- Node204 -->
<g id="node29" class="node">
<title>Node204</title>
<g id="a_node29"><a xlink:href="d__event_8h.html" target="_top" xlink:title=" ">
<polygon fill="white" stroke="#666666" points="908,-222.5 780,-222.5 780,-203.5 908,-203.5 908,-222.5"/>
<text text-anchor="middle" x="844" y="-210.5" font-family="Helvetica,sans-Serif" font-size="10.00">include/d/event/d_event.h</text>
</a>
</g>
</g>
<!-- Node200&#45;&gt;Node204 -->
<g id="edge34" class="edge">
<title>Node200&#45;&gt;Node204</title>
<path fill="none" stroke="#63b8ff" d="M604.8,-271.92C661.75,-258.13 755.62,-235.4 807.21,-222.91"/>
<polygon fill="#63b8ff" stroke="#63b8ff" points="604.3,-268.44 595.4,-274.2 605.95,-275.25 604.3,-268.44"/>
</g>
<!-- Node205 -->
<g id="node30" class="node">
<title>Node205</title>
<g id="a_node30"><a xlink:href="d__a__itembase__static_8cpp.html" target="_top" xlink:title=" ">
<polygon fill="white" stroke="#666666" points="762,-228 652,-228 652,-198 762,-198 762,-228"/>
<text text-anchor="start" x="660" y="-216" font-family="Helvetica,sans-Serif" font-size="10.00">src/d/a/d_a_itembase</text>
<text text-anchor="middle" x="707" y="-205" font-family="Helvetica,sans-Serif" font-size="10.00">_static.cpp</text>
</a>
</g>
</g>
<!-- Node200&#45;&gt;Node205 -->
<g id="edge38" class="edge">
<title>Node200&#45;&gt;Node205</title>
<path fill="none" stroke="#63b8ff" d="M586.57,-269.8C612.32,-257.87 649.54,-240.63 675.76,-228.47"/>
<polygon fill="#63b8ff" stroke="#63b8ff" points="585.28,-266.54 577.68,-273.92 588.22,-272.89 585.28,-266.54"/>
</g>
<!-- Node204&#45;&gt;Node5 -->
<g id="edge35" class="edge">
<title>Node204&#45;&gt;Node5</title>
<path fill="none" stroke="#63b8ff" d="M835.27,-192.74C830.83,-182.93 825.52,-171.22 821.45,-162.23"/>
<polygon fill="#63b8ff" stroke="#63b8ff" points="832.03,-194.06 839.34,-201.72 838.4,-191.17 832.03,-194.06"/>
</g>
<!-- Node204&#45;&gt;Node43 -->
<g id="edge36" class="edge">
<title>Node204&#45;&gt;Node43</title>
<path fill="none" stroke="#63b8ff" d="M884.24,-199.79C944.04,-182.11 1060.14,-149.6 1161,-132 1321.58,-103.98 1365.77,-125.98 1526,-96 1540.14,-93.35 1555.56,-89.2 1568.33,-85.4"/>
<polygon fill="#63b8ff" stroke="#63b8ff" points="883.44,-196.38 874.85,-202.58 885.44,-203.08 883.44,-196.38"/>
</g>
<!-- Node206&#45;&gt;Node77 -->
<g id="edge40" class="edge">
<title>Node206&#45;&gt;Node77</title>
<path fill="none" stroke="#63b8ff" d="M1809.36,-272.19C1794.19,-269.14 1777.48,-266.1 1762,-264 1546.94,-234.77 1482.39,-291.99 1275,-228 1194.95,-203.3 1121.63,-131.47 1089.35,-96.33"/>
<polygon fill="#63b8ff" stroke="#63b8ff" points="1808.63,-275.62 1819.13,-274.21 1810.04,-268.76 1808.63,-275.62"/>
</g>
<!-- Node207 -->
<g id="node32" class="node">
<title>Node207</title>
<g id="a_node32"><a xlink:href="d__bomb_8cpp.html" target="_top" xlink:title=" ">
<polygon fill="white" stroke="#666666" points="1907,-222.5 1813,-222.5 1813,-203.5 1907,-203.5 1907,-222.5"/>
<text text-anchor="middle" x="1860" y="-210.5" font-family="Helvetica,sans-Serif" font-size="10.00">src/d/d_bomb.cpp</text>
</a>
</g>
</g>
<!-- Node206&#45;&gt;Node207 -->
<g id="edge41" class="edge">
<title>Node206&#45;&gt;Node207</title>
<path fill="none" stroke="#63b8ff" d="M1860,-263.3C1860,-249.94 1860,-233.09 1860,-222.95"/>
<polygon fill="#63b8ff" stroke="#63b8ff" points="1856.5,-263.18 1860,-273.18 1863.5,-263.18 1856.5,-263.18"/>
</g>
<!-- Node210&#45;&gt;Node72 -->
<g id="edge45" class="edge">
<title>Node210&#45;&gt;Node72</title>
<path fill="none" stroke="#63b8ff" d="M2048.37,-186.65C2048.83,-155.89 2049.57,-105.62 2049.87,-85.37"/>
<polygon fill="#63b8ff" stroke="#63b8ff" points="2044.88,-186.19 2048.23,-196.24 2051.88,-186.29 2044.88,-186.19"/>
</g>
<!-- Node212&#45;&gt;Node22 -->
<g id="edge48" class="edge">
<title>Node212&#45;&gt;Node22</title>
<path fill="none" stroke="#63b8ff" d="M312.73,-196.35C229.82,-171.68 95.29,-119.81 151,-55 181.1,-19.98 313.04,-12.19 389.21,-10.67"/>
<polygon fill="#63b8ff" stroke="#63b8ff" points="311.53,-199.64 322.11,-199.08 313.49,-192.92 311.53,-199.64"/>
</g>
<!-- Node214&#45;&gt;Node22 -->
<g id="edge54" class="edge">
<title>Node214&#45;&gt;Node22</title>
<path fill="none" stroke="#63b8ff" d="M422.05,-120.65C428.18,-89.89 438.2,-39.62 442.23,-19.37"/>
<polygon fill="#63b8ff" stroke="#63b8ff" points="418.66,-119.78 420.13,-130.27 425.52,-121.15 418.66,-119.78"/>
</g>
<!-- Node214&#45;&gt;Node108 -->
<g id="edge53" class="edge">
<title>Node214&#45;&gt;Node108</title>
<path fill="none" stroke="#63b8ff" d="M477.89,-128.37C510.8,-118.82 552.13,-106.8 589,-96 591.64,-95.23 594.33,-94.44 597.06,-93.64"/>
<polygon fill="#63b8ff" stroke="#63b8ff" points="477.15,-124.94 468.52,-131.09 479.1,-131.66 477.15,-124.94"/>
</g>
<!-- Node214&#45;&gt;Node134 -->
<g id="edge55" class="edge">
<title>Node214&#45;&gt;Node134</title>
<path fill="none" stroke="#63b8ff" d="M449.06,-125.56C470,-112.21 496.28,-95.45 512.08,-85.38"/>
<polygon fill="#63b8ff" stroke="#63b8ff" points="447.41,-122.46 440.86,-130.79 451.17,-128.36 447.41,-122.46"/>
</g>
<!-- Node21 -->
<g id="node40" class="node">
<title>Node21</title>
<g id="a_node40"><a xlink:href="d__a__e__wb_8h.html" target="_top" xlink:title=" ">
<polygon fill="#fff0f0" stroke="red" points="416,-90.5 306,-90.5 306,-60.5 416,-60.5 416,-90.5"/>
<text text-anchor="start" x="314" y="-78.5" font-family="Helvetica,sans-Serif" font-size="10.00">include/rel/d/a/e/d</text>
<text text-anchor="middle" x="361" y="-67.5" font-family="Helvetica,sans-Serif" font-size="10.00">_a_e_wb/d_a_e_wb.h</text>
</a>
</g>
</g>
<!-- Node214&#45;&gt;Node21 -->
<g id="edge51" class="edge">
<title>Node214&#45;&gt;Node21</title>
<path fill="none" stroke="#63b8ff" d="M398.34,-122.85C389.83,-112.28 380.02,-100.1 372.59,-90.88"/>
<polygon fill="#63b8ff" stroke="#63b8ff" points="395.45,-124.83 404.45,-130.42 400.9,-120.44 395.45,-124.83"/>
</g>
<!-- Node41 -->
<g id="node41" class="node">
<title>Node41</title>
<g id="a_node41"><a xlink:href="d__meter2_8cpp.html" target="_top" xlink:title=" ">
<polygon fill="white" stroke="#666666" points="288,-85 160,-85 160,-66 288,-66 288,-85"/>
<text text-anchor="middle" x="224" y="-73" font-family="Helvetica,sans-Serif" font-size="10.00">src/d/meter/d_meter2.cpp</text>
</a>
</g>
</g>
<!-- Node214&#45;&gt;Node41 -->
<g id="edge56" class="edge">
<title>Node214&#45;&gt;Node41</title>
<path fill="none" stroke="#63b8ff" d="M366.21,-127.71C328.42,-114.1 278.47,-96.11 248.93,-85.48"/>
<polygon fill="#63b8ff" stroke="#63b8ff" points="364.99,-130.99 375.59,-131.09 367.36,-124.41 364.99,-130.99"/>
</g>
<!-- Node21&#45;&gt;Node22 -->
<g id="edge52" class="edge">
<title>Node21&#45;&gt;Node22</title>
<path fill="none" stroke="#63b8ff" d="M388.32,-53.43C403.34,-41.85 421.17,-28.11 432.53,-19.34"/>
<polygon fill="#63b8ff" stroke="#63b8ff" points="386.4,-50.49 380.62,-59.37 390.68,-56.04 386.4,-50.49"/>
</g>
<!-- Node220&#45;&gt;Node4 -->
<g id="edge64" class="edge">
<title>Node220&#45;&gt;Node4</title>
<path fill="none" stroke="#63b8ff" d="M328.24,-341.25C311.41,-332.83 291.64,-320.65 278,-305 255.98,-279.73 244.88,-240.16 240.84,-222.73"/>
<polygon fill="#63b8ff" stroke="#63b8ff" points="326.35,-344.23 336.88,-345.35 329.35,-337.9 326.35,-344.23"/>
</g>
<!-- Node220&#45;&gt;Node219 -->
<g id="edge65" class="edge">
<title>Node220&#45;&gt;Node219</title>
<path fill="none" stroke="#63b8ff" d="M354.75,-335.26C351.17,-323.95 346.76,-310.02 343.52,-299.77"/>
<polygon fill="#63b8ff" stroke="#63b8ff" points="351.4,-336.28 357.76,-344.75 358.08,-334.16 351.4,-336.28"/>
</g>
</g>
</svg>
