<?xml version="1.0" encoding="UTF-8" standalone="no"?>
<!DOCTYPE svg PUBLIC "-//W3C//DTD SVG 1.1//EN"
 "http://www.w3.org/Graphics/SVG/1.1/DTD/svg11.dtd">
<!-- Generated by graphviz version 7.0.5 (20221223.1930)
 -->
<!-- Title: include/SSystem/SComponent/c_math.h Pages: 1 -->
<svg width="2823pt" height="104pt"
 viewBox="0.00 0.00 2822.50 104.00" xmlns="http://www.w3.org/2000/svg" xmlns:xlink="http://www.w3.org/1999/xlink">
<g id="graph0" class="graph" transform="scale(1 1) rotate(0) translate(4 100)">
<title>include/SSystem/SComponent/c_math.h</title>
<!-- Node1 -->
<g id="node1" class="node">
<title>Node1</title>
<g id="a_node1"><a xlink:title=" ">
<polygon fill="#999999" stroke="#666666" points="1503,-96 1354,-96 1354,-66 1503,-66 1503,-96"/>
<text text-anchor="start" x="1362" y="-84" font-family="Helvetica,sans-Serif" font-size="10.00">include/SSystem/SComponent</text>
<text text-anchor="middle" x="1428.5" y="-73" font-family="Helvetica,sans-Serif" font-size="10.00">/c_math.h</text>
</a>
</g>
</g>
<!-- Node2 -->
<g id="node2" class="node">
<title>Node2</title>
<g id="a_node2"><a xlink:href="JASLfo_8cpp.html" target="_top" xlink:title=" ">
<polygon fill="white" stroke="#666666" points="111,-30 0,-30 0,0 111,0 111,-30"/>
<text text-anchor="start" x="8" y="-18" font-family="Helvetica,sans-Serif" font-size="10.00">libs/JSystem/JAudio2</text>
<text text-anchor="middle" x="55.5" y="-7" font-family="Helvetica,sans-Serif" font-size="10.00">/JASLfo.cpp</text>
</a>
</g>
</g>
<!-- Node1&#45;&gt;Node2 -->
<g id="edge1" class="edge">
<title>Node1&#45;&gt;Node2</title>
<path fill="none" stroke="#63b8ff" d="M1342.66,-78.67C1091.03,-74.46 358.1,-59.9 120.5,-30 117.52,-29.63 114.48,-29.18 111.41,-28.69"/>
<polygon fill="#63b8ff" stroke="#63b8ff" points="1342.34,-82.16 1352.4,-78.83 1342.46,-75.16 1342.34,-82.16"/>
</g>
<!-- Node3 -->
<g id="node3" class="node">
<title>Node3</title>
<g id="a_node3"><a xlink:href="c__lib_8cpp.html" target="_top" xlink:title=" ">
<polygon fill="white" stroke="#666666" points="263.5,-30 129.5,-30 129.5,0 263.5,0 263.5,-30"/>
<text text-anchor="start" x="137.5" y="-18" font-family="Helvetica,sans-Serif" font-size="10.00">libs/SSystem/SComponent</text>
<text text-anchor="middle" x="196.5" y="-7" font-family="Helvetica,sans-Serif" font-size="10.00">/c_lib.cpp</text>
</a>
</g>
</g>
<!-- Node1&#45;&gt;Node3 -->
<g id="edge2" class="edge">
<title>Node1&#45;&gt;Node3</title>
<path fill="none" stroke="#63b8ff" d="M1342.41,-80.35C1149.96,-80.26 670.57,-75.05 272.5,-30 269.7,-29.68 266.85,-29.32 263.97,-28.93"/>
<polygon fill="#63b8ff" stroke="#63b8ff" points="1342.32,-83.85 1352.32,-80.35 1342.32,-76.85 1342.32,-83.85"/>
</g>
<!-- Node4 -->
<g id="node4" class="node">
<title>Node4</title>
<g id="a_node4"><a xlink:href="c__m3d_8cpp.html" target="_top" xlink:title=" ">
<polygon fill="white" stroke="#666666" points="415.5,-30 281.5,-30 281.5,0 415.5,0 415.5,-30"/>
<text text-anchor="start" x="289.5" y="-18" font-family="Helvetica,sans-Serif" font-size="10.00">libs/SSystem/SComponent</text>
<text text-anchor="middle" x="348.5" y="-7" font-family="Helvetica,sans-Serif" font-size="10.00">/c_m3d.cpp</text>
</a>
</g>
</g>
<!-- Node1&#45;&gt;Node4 -->
<g id="edge3" class="edge">
<title>Node1&#45;&gt;Node4</title>
<path fill="none" stroke="#63b8ff" d="M1342.21,-79.54C1168.11,-77.78 762.52,-69.37 424.5,-30 421.7,-29.67 418.85,-29.31 415.97,-28.91"/>
<polygon fill="#63b8ff" stroke="#63b8ff" points="1342.05,-83.04 1352.08,-79.64 1342.12,-76.04 1342.05,-83.04"/>
</g>
<!-- Node5 -->
<g id="node5" class="node">
<title>Node5</title>
<g id="a_node5"><a xlink:href="c__math_8cpp.html" target="_top" xlink:title=" ">
<polygon fill="white" stroke="#666666" points="567.5,-30 433.5,-30 433.5,0 567.5,0 567.5,-30"/>
<text text-anchor="start" x="441.5" y="-18" font-family="Helvetica,sans-Serif" font-size="10.00">libs/SSystem/SComponent</text>
<text text-anchor="middle" x="500.5" y="-7" font-family="Helvetica,sans-Serif" font-size="10.00">/c_math.cpp</text>
</a>
</g>
</g>
<!-- Node1&#45;&gt;Node5 -->
<g id="edge4" class="edge">
<title>Node1&#45;&gt;Node5</title>
<path fill="none" stroke="#63b8ff" d="M1342.34,-78.46C1188.2,-74.92 855.26,-63.72 576.5,-30 573.7,-29.66 570.85,-29.28 567.98,-28.88"/>
<polygon fill="#63b8ff" stroke="#63b8ff" points="1341.99,-81.95 1352.06,-78.68 1342.14,-74.95 1341.99,-81.95"/>
</g>
<!-- Node6 -->
<g id="node6" class="node">
<title>Node6</title>
<g id="a_node6"><a xlink:href="c__xyz_8cpp.html" target="_top" xlink:title=" ">
<polygon fill="white" stroke="#666666" points="719.5,-30 585.5,-30 585.5,0 719.5,0 719.5,-30"/>
<text text-anchor="start" x="593.5" y="-18" font-family="Helvetica,sans-Serif" font-size="10.00">libs/SSystem/SComponent</text>
<text text-anchor="middle" x="652.5" y="-7" font-family="Helvetica,sans-Serif" font-size="10.00">/c_xyz.cpp</text>
</a>
</g>
</g>
<!-- Node1&#45;&gt;Node6 -->
<g id="edge5" class="edge">
<title>Node1&#45;&gt;Node6</title>
<path fill="none" stroke="#63b8ff" d="M1342.4,-76.92C1210.01,-71.5 948.7,-58.06 728.5,-30 725.71,-29.64 722.86,-29.25 719.98,-28.83"/>
<polygon fill="#63b8ff" stroke="#63b8ff" points="1342,-80.41 1352.13,-77.32 1342.28,-73.42 1342,-80.41"/>
</g>
<!-- Node7 -->
<g id="node7" class="node">
<title>Node7</title>
<g id="a_node7"><a xlink:href="d__a__alink_8cpp.html" target="_top" xlink:title=" ">
<polygon fill="white" stroke="#666666" points="847,-24.5 738,-24.5 738,-5.5 847,-5.5 847,-24.5"/>
<text text-anchor="middle" x="792.5" y="-12.5" font-family="Helvetica,sans-Serif" font-size="10.00">src/d/a/d_a_alink.cpp</text>
</a>
</g>
</g>
<!-- Node1&#45;&gt;Node7 -->
<g id="edge6" class="edge">
<title>Node1&#45;&gt;Node7</title>
<path fill="none" stroke="#63b8ff" d="M1342.39,-75.92C1230.09,-69.81 1027.75,-56.11 856.5,-30 847.73,-28.66 838.36,-26.84 829.58,-24.95"/>
<polygon fill="#63b8ff" stroke="#63b8ff" points="1341.95,-79.4 1352.13,-76.44 1342.33,-72.41 1341.95,-79.4"/>
</g>
<!-- Node8 -->
<g id="node8" class="node">
<title>Node8</title>
<g id="a_node8"><a xlink:href="d__a__npc_8cpp.html" target="_top" xlink:title=" ">
<polygon fill="white" stroke="#666666" points="969.5,-24.5 865.5,-24.5 865.5,-5.5 969.5,-5.5 969.5,-24.5"/>
<text text-anchor="middle" x="917.5" y="-12.5" font-family="Helvetica,sans-Serif" font-size="10.00">src/d/a/d_a_npc.cpp</text>
</a>
</g>
</g>
<!-- Node1&#45;&gt;Node8 -->
<g id="edge7" class="edge">
<title>Node1&#45;&gt;Node8</title>
<path fill="none" stroke="#63b8ff" d="M1342.34,-73.39C1251.46,-65.73 1104.28,-51.35 978.5,-30 970.36,-28.62 961.67,-26.82 953.49,-24.98"/>
<polygon fill="#63b8ff" stroke="#63b8ff" points="1341.92,-76.87 1352.18,-74.21 1342.5,-69.89 1341.92,-76.87"/>
</g>
<!-- Node9 -->
<g id="node9" class="node">
<title>Node9</title>
<g id="a_node9"><a xlink:href="d__a__player_8cpp.html" target="_top" xlink:title=" ">
<polygon fill="white" stroke="#666666" points="1101.5,-24.5 987.5,-24.5 987.5,-5.5 1101.5,-5.5 1101.5,-24.5"/>
<text text-anchor="middle" x="1044.5" y="-12.5" font-family="Helvetica,sans-Serif" font-size="10.00">src/d/a/d_a_player.cpp</text>
</a>
</g>
</g>
<!-- Node1&#45;&gt;Node9 -->
<g id="edge8" class="edge">
<title>Node1&#45;&gt;Node9</title>
<path fill="none" stroke="#63b8ff" d="M1342.51,-67.74C1278.41,-58.3 1188.79,-44.45 1110.5,-30 1102.21,-28.47 1093.36,-26.69 1084.92,-24.93"/>
<polygon fill="#63b8ff" stroke="#63b8ff" points="1341.88,-71.19 1352.28,-69.18 1342.89,-64.26 1341.88,-71.19"/>
</g>
<!-- Node10 -->
<g id="node10" class="node">
<title>Node10</title>
<g id="a_node10"><a xlink:href="d__bg__w_8cpp.html" target="_top" xlink:title=" ">
<polygon fill="white" stroke="#666666" points="1227,-24.5 1120,-24.5 1120,-5.5 1227,-5.5 1227,-24.5"/>
<text text-anchor="middle" x="1173.5" y="-12.5" font-family="Helvetica,sans-Serif" font-size="10.00">src/d/bg/d_bg_w.cpp</text>
</a>
</g>
</g>
<!-- Node1&#45;&gt;Node10 -->
<g id="edge9" class="edge">
<title>Node1&#45;&gt;Node10</title>
<path fill="none" stroke="#63b8ff" d="M1359.89,-62.78C1311.31,-50.59 1248.13,-34.73 1209.21,-24.96"/>
<polygon fill="#63b8ff" stroke="#63b8ff" points="1358.94,-66.15 1369.49,-65.19 1360.64,-59.36 1358.94,-66.15"/>
</g>
<!-- Node11 -->
<g id="node11" class="node">
<title>Node11</title>
<g id="a_node11"><a xlink:href="d__cc__mass__s_8cpp.html" target="_top" xlink:title=" ">
<polygon fill="white" stroke="#666666" points="1350,-30 1245,-30 1245,0 1350,0 1350,-30"/>
<text text-anchor="start" x="1253" y="-18" font-family="Helvetica,sans-Serif" font-size="10.00">src/d/cc/d_cc_mass</text>
<text text-anchor="middle" x="1297.5" y="-7" font-family="Helvetica,sans-Serif" font-size="10.00">_s.cpp</text>
</a>
</g>
</g>
<!-- Node1&#45;&gt;Node11 -->
<g id="edge10" class="edge">
<title>Node1&#45;&gt;Node11</title>
<path fill="none" stroke="#63b8ff" d="M1388.77,-60.59C1368.81,-50.84 1345.07,-39.24 1326.8,-30.31"/>
<polygon fill="#63b8ff" stroke="#63b8ff" points="1387.22,-63.73 1397.74,-64.97 1390.29,-57.44 1387.22,-63.73"/>
</g>
<!-- Node12 -->
<g id="node12" class="node">
<title>Node12</title>
<g id="a_node12"><a xlink:href="d__cam__param_8cpp.html" target="_top" xlink:title=" ">
<polygon fill="white" stroke="#666666" points="1489,-24.5 1368,-24.5 1368,-5.5 1489,-5.5 1489,-24.5"/>
<text text-anchor="middle" x="1428.5" y="-12.5" font-family="Helvetica,sans-Serif" font-size="10.00">src/d/d_cam_param.cpp</text>
</a>
</g>
</g>
<!-- Node1&#45;&gt;Node12 -->
<g id="edge11" class="edge">
<title>Node1&#45;&gt;Node12</title>
<path fill="none" stroke="#63b8ff" d="M1428.5,-54.59C1428.5,-44.06 1428.5,-32.53 1428.5,-24.84"/>
<polygon fill="#63b8ff" stroke="#63b8ff" points="1425,-54.28 1428.5,-64.28 1432,-54.28 1425,-54.28"/>
</g>
<!-- Node13 -->
<g id="node13" class="node">
<title>Node13</title>
<g id="a_node13"><a xlink:href="d__ky__thunder_8cpp.html" target="_top" xlink:title=" ">
<polygon fill="white" stroke="#666666" points="1624,-24.5 1507,-24.5 1507,-5.5 1624,-5.5 1624,-24.5"/>
<text text-anchor="middle" x="1565.5" y="-12.5" font-family="Helvetica,sans-Serif" font-size="10.00">src/d/d_ky_thunder.cpp</text>
</a>
</g>
</g>
<!-- Node1&#45;&gt;Node13 -->
<g id="edge12" class="edge">
<title>Node1&#45;&gt;Node13</title>
<path fill="none" stroke="#63b8ff" d="M1469.37,-60.91C1494.83,-49.01 1526.41,-34.26 1546.26,-24.99"/>
<polygon fill="#63b8ff" stroke="#63b8ff" points="1468.2,-57.59 1460.62,-65 1471.16,-63.94 1468.2,-57.59"/>
</g>
<!-- Node14 -->
<g id="node14" class="node">
<title>Node14</title>
<g id="a_node14"><a xlink:href="d__npc__lib_8cpp.html" target="_top" xlink:title=" ">
<polygon fill="white" stroke="#666666" points="1743,-24.5 1642,-24.5 1642,-5.5 1743,-5.5 1743,-24.5"/>
<text text-anchor="middle" x="1692.5" y="-12.5" font-family="Helvetica,sans-Serif" font-size="10.00">src/d/d_npc_lib.cpp</text>
</a>
</g>
</g>
<!-- Node1&#45;&gt;Node14 -->
<g id="edge13" class="edge">
<title>Node1&#45;&gt;Node14</title>
<path fill="none" stroke="#63b8ff" d="M1499.22,-62.86C1549.55,-50.66 1615.16,-34.75 1655.53,-24.96"/>
<polygon fill="#63b8ff" stroke="#63b8ff" points="1498.44,-59.44 1489.55,-65.2 1500.09,-66.25 1498.44,-59.44"/>
</g>
<!-- Node15 -->
<g id="node15" class="node">
<title>Node15</title>
<g id="a_node15"><a xlink:href="d__tresure_8cpp.html" target="_top" xlink:title=" ">
<polygon fill="white" stroke="#666666" points="1861.5,-24.5 1761.5,-24.5 1761.5,-5.5 1861.5,-5.5 1861.5,-24.5"/>
<text text-anchor="middle" x="1811.5" y="-12.5" font-family="Helvetica,sans-Serif" font-size="10.00">src/d/d_tresure.cpp</text>
</a>
</g>
</g>
<!-- Node1&#45;&gt;Node15 -->
<g id="edge14" class="edge">
<title>Node1&#45;&gt;Node15</title>
<path fill="none" stroke="#63b8ff" d="M1514.52,-68.63C1580,-59.52 1672.24,-45.69 1752.5,-30 1760.04,-28.53 1768.08,-26.75 1775.72,-24.97"/>
<polygon fill="#63b8ff" stroke="#63b8ff" points="1514.36,-65.12 1504.93,-69.96 1515.32,-72.06 1514.36,-65.12"/>
</g>
<!-- Node16 -->
<g id="node16" class="node">
<title>Node16</title>
<g id="a_node16"><a xlink:href="d__vibration_8cpp.html" target="_top" xlink:title=" ">
<polygon fill="white" stroke="#666666" points="1987,-24.5 1880,-24.5 1880,-5.5 1987,-5.5 1987,-24.5"/>
<text text-anchor="middle" x="1933.5" y="-12.5" font-family="Helvetica,sans-Serif" font-size="10.00">src/d/d_vibration.cpp</text>
</a>
</g>
</g>
<!-- Node1&#45;&gt;Node16 -->
<g id="edge15" class="edge">
<title>Node1&#45;&gt;Node16</title>
<path fill="none" stroke="#63b8ff" d="M1514.56,-72.99C1603.91,-65.07 1747.55,-50.56 1870.5,-30 1878.9,-28.6 1887.86,-26.79 1896.32,-24.95"/>
<polygon fill="#63b8ff" stroke="#63b8ff" points="1514.29,-69.5 1504.64,-73.86 1514.91,-76.47 1514.29,-69.5"/>
</g>
<!-- Node17 -->
<g id="node17" class="node">
<title>Node17</title>
<g id="a_node17"><a xlink:href="d__event__manager_8cpp.html" target="_top" xlink:title=" ">
<polygon fill="white" stroke="#666666" points="2108,-30 2005,-30 2005,0 2108,0 2108,-30"/>
<text text-anchor="start" x="2013" y="-18" font-family="Helvetica,sans-Serif" font-size="10.00">src/d/event/d_event</text>
<text text-anchor="middle" x="2056.5" y="-7" font-family="Helvetica,sans-Serif" font-size="10.00">_manager.cpp</text>
</a>
</g>
</g>
<!-- Node1&#45;&gt;Node17 -->
<g id="edge16" class="edge">
<title>Node1&#45;&gt;Node17</title>
<path fill="none" stroke="#63b8ff" d="M1514.53,-76.22C1626.2,-70.45 1826.86,-57.12 1996.5,-30 1999.14,-29.58 2001.84,-29.1 2004.55,-28.59"/>
<polygon fill="#63b8ff" stroke="#63b8ff" points="1514.67,-72.71 1504.86,-76.71 1515.02,-79.7 1514.67,-72.71"/>
</g>
<!-- Node18 -->
<g id="node18" class="node">
<title>Node18</title>
<g id="a_node18"><a xlink:href="d__kankyo__rain_8cpp.html" target="_top" xlink:title=" ">
<polygon fill="white" stroke="#666666" points="2242.5,-30 2126.5,-30 2126.5,0 2242.5,0 2242.5,-30"/>
<text text-anchor="start" x="2134.5" y="-18" font-family="Helvetica,sans-Serif" font-size="10.00">src/d/kankyo/d_kankyo</text>
<text text-anchor="middle" x="2184.5" y="-7" font-family="Helvetica,sans-Serif" font-size="10.00">_rain.cpp</text>
</a>
</g>
</g>
<!-- Node1&#45;&gt;Node18 -->
<g id="edge17" class="edge">
<title>Node1&#45;&gt;Node18</title>
<path fill="none" stroke="#63b8ff" d="M1514.78,-77.44C1645.64,-72.72 1901.9,-60.21 2117.5,-30 2120.32,-29.6 2123.21,-29.16 2126.12,-28.68"/>
<polygon fill="#63b8ff" stroke="#63b8ff" points="1514.66,-73.94 1504.79,-77.79 1514.9,-80.93 1514.66,-73.94"/>
</g>
<!-- Node19 -->
<g id="node19" class="node">
<title>Node19</title>
<g id="a_node19"><a xlink:href="d__shop__system_8cpp.html" target="_top" xlink:title=" ">
<polygon fill="white" stroke="#666666" points="2412.5,-24.5 2260.5,-24.5 2260.5,-5.5 2412.5,-5.5 2412.5,-24.5"/>
<text text-anchor="middle" x="2336.5" y="-12.5" font-family="Helvetica,sans-Serif" font-size="10.00">src/d/shop/d_shop_system.cpp</text>
</a>
</g>
</g>
<!-- Node1&#45;&gt;Node19 -->
<g id="edge18" class="edge">
<title>Node1&#45;&gt;Node19</title>
<path fill="none" stroke="#63b8ff" d="M1514.72,-77.67C1664.83,-72.97 1983.76,-60.1 2251.5,-30 2263.24,-28.68 2275.83,-26.84 2287.63,-24.93"/>
<polygon fill="#63b8ff" stroke="#63b8ff" points="1514.73,-74.17 1504.85,-77.98 1514.95,-81.17 1514.73,-74.17"/>
</g>
<!-- Node20 -->
<g id="node20" class="node">
<title>Node20</title>
<g id="a_node20"><a xlink:href="f__op__actor__mng_8cpp.html" target="_top" xlink:title=" ">
<polygon fill="white" stroke="#666666" points="2532,-30 2431,-30 2431,0 2532,0 2532,-30"/>
<text text-anchor="start" x="2439" y="-18" font-family="Helvetica,sans-Serif" font-size="10.00">src/f_op/f_op_actor</text>
<text text-anchor="middle" x="2481.5" y="-7" font-family="Helvetica,sans-Serif" font-size="10.00">_mng.cpp</text>
</a>
</g>
</g>
<!-- Node1&#45;&gt;Node20 -->
<g id="edge19" class="edge">
<title>Node1&#45;&gt;Node20</title>
<path fill="none" stroke="#63b8ff" d="M1514.66,-80.83C1687.53,-81.35 2088.61,-76.83 2421.5,-30 2424.47,-29.58 2427.5,-29.09 2430.55,-28.54"/>
<polygon fill="#63b8ff" stroke="#63b8ff" points="1514.89,-77.33 1504.87,-80.79 1514.86,-84.33 1514.89,-77.33"/>
</g>
<!-- Node21 -->
<g id="node21" class="node">
<title>Node21</title>
<g id="a_node21"><a xlink:href="m__Do__lib_8cpp.html" target="_top" xlink:title=" ">
<polygon fill="white" stroke="#666666" points="2670.5,-24.5 2550.5,-24.5 2550.5,-5.5 2670.5,-5.5 2670.5,-24.5"/>
<text text-anchor="middle" x="2610.5" y="-12.5" font-family="Helvetica,sans-Serif" font-size="10.00">src/m_Do/m_Do_lib.cpp</text>
</a>
</g>
</g>
<!-- Node1&#45;&gt;Node21 -->
<g id="edge20" class="edge">
<title>Node1&#45;&gt;Node21</title>
<path fill="none" stroke="#63b8ff" d="M1514.83,-80.67C1702.42,-81.13 2160.96,-76.87 2541.5,-30 2551.33,-28.79 2561.84,-26.94 2571.63,-24.99"/>
<polygon fill="#63b8ff" stroke="#63b8ff" points="1514.93,-77.17 1504.92,-80.64 1514.91,-84.17 1514.93,-77.17"/>
</g>
<!-- Node22 -->
<g id="node22" class="node">
<title>Node22</title>
<g id="a_node22"><a xlink:href="m__Do__mtx_8cpp.html" target="_top" xlink:title=" ">
<polygon fill="white" stroke="#666666" points="2814.5,-24.5 2688.5,-24.5 2688.5,-5.5 2814.5,-5.5 2814.5,-24.5"/>
<text text-anchor="middle" x="2751.5" y="-12.5" font-family="Helvetica,sans-Serif" font-size="10.00">src/m_Do/m_Do_mtx.cpp</text>
</a>
</g>
</g>
<!-- Node1&#45;&gt;Node22 -->
<g id="edge21" class="edge">
<title>Node1&#45;&gt;Node22</title>
<path fill="none" stroke="#63b8ff" d="M1514.77,-78.26C1759.21,-73.07 2453.29,-56.36 2679.5,-30 2689.87,-28.79 2700.99,-26.92 2711.3,-24.94"/>
<polygon fill="#63b8ff" stroke="#63b8ff" points="1514.91,-74.76 1504.99,-78.47 1515.06,-81.76 1514.91,-74.76"/>
</g>
</g>
</svg>
