<?xml version="1.0" encoding="UTF-8" standalone="no"?>
<!DOCTYPE svg PUBLIC "-//W3C//DTD SVG 1.1//EN"
 "http://www.w3.org/Graphics/SVG/1.1/DTD/svg11.dtd">
<!-- Generated by graphviz version 7.0.5 (20221223.1930)
 -->
<!-- Title: include/SSystem/SComponent/c_m3d_g_cyl.h Pages: 1 -->
<svg width="3247pt" height="379pt"
 viewBox="0.00 0.00 3247.00 379.00" xmlns="http://www.w3.org/2000/svg" xmlns:xlink="http://www.w3.org/1999/xlink">
<g id="graph0" class="graph" transform="scale(1 1) rotate(0) translate(4 375)">
<title>include/SSystem/SComponent/c_m3d_g_cyl.h</title>
<!-- Node1 -->
<g id="node1" class="node">
<title>Node1</title>
<g id="a_node1"><a xlink:title=" ">
<polygon fill="#999999" stroke="#666666" points="1834.5,-371 1685.5,-371 1685.5,-341 1834.5,-341 1834.5,-371"/>
<text text-anchor="start" x="1693.5" y="-359" font-family="Helvetica,sans-Serif" font-size="10.00">include/SSystem/SComponent</text>
<text text-anchor="middle" x="1760" y="-348" font-family="Helvetica,sans-Serif" font-size="10.00">/c_m3d_g_cyl.h</text>
</a>
</g>
</g>
<!-- Node2 -->
<g id="node2" class="node">
<title>Node2</title>
<g id="a_node2"><a xlink:href="c__cc__d_8h.html" target="_top" xlink:title=" ">
<polygon fill="white" stroke="#666666" points="1357.5,-305 1208.5,-305 1208.5,-275 1357.5,-275 1357.5,-305"/>
<text text-anchor="start" x="1216.5" y="-293" font-family="Helvetica,sans-Serif" font-size="10.00">include/SSystem/SComponent</text>
<text text-anchor="middle" x="1283" y="-282" font-family="Helvetica,sans-Serif" font-size="10.00">/c_cc_d.h</text>
</a>
</g>
</g>
<!-- Node1&#45;&gt;Node2 -->
<g id="edge1" class="edge">
<title>Node1&#45;&gt;Node2</title>
<path fill="none" stroke="#63b8ff" d="M1673.91,-343.45C1583.7,-331.35 1443.41,-312.52 1357.71,-301.02"/>
<polygon fill="#63b8ff" stroke="#63b8ff" points="1673.33,-346.9 1683.71,-344.76 1674.26,-339.96 1673.33,-346.9"/>
</g>
<!-- Node222 -->
<g id="node46" class="node">
<title>Node222</title>
<g id="a_node46"><a xlink:href="d__bg__s__acch_8h.html" target="_top" xlink:title=" ">
<polygon fill="white" stroke="#666666" points="2047,-239 1943,-239 1943,-209 2047,-209 2047,-239"/>
<text text-anchor="start" x="1951" y="-227" font-family="Helvetica,sans-Serif" font-size="10.00">include/d/bg/d_bg_s</text>
<text text-anchor="middle" x="1995" y="-216" font-family="Helvetica,sans-Serif" font-size="10.00">_acch.h</text>
</a>
</g>
</g>
<!-- Node1&#45;&gt;Node222 -->
<g id="edge54" class="edge">
<title>Node1&#45;&gt;Node222</title>
<path fill="none" stroke="#63b8ff" d="M1740.71,-331.63C1728.95,-314.41 1718.54,-291.26 1732,-275 1758.19,-243.36 1873.59,-231.58 1942.52,-227.31"/>
<polygon fill="#63b8ff" stroke="#63b8ff" points="1737.6,-333.31 1746.35,-339.29 1743.24,-329.16 1737.6,-333.31"/>
</g>
<!-- Node225 -->
<g id="node49" class="node">
<title>Node225</title>
<g id="a_node49"><a xlink:href="c__m3d_8cpp.html" target="_top" xlink:title=" ">
<polygon fill="white" stroke="#666666" points="1875,-305 1741,-305 1741,-275 1875,-275 1875,-305"/>
<text text-anchor="start" x="1749" y="-293" font-family="Helvetica,sans-Serif" font-size="10.00">libs/SSystem/SComponent</text>
<text text-anchor="middle" x="1808" y="-282" font-family="Helvetica,sans-Serif" font-size="10.00">/c_m3d.cpp</text>
</a>
</g>
</g>
<!-- Node1&#45;&gt;Node225 -->
<g id="edge65" class="edge">
<title>Node1&#45;&gt;Node225</title>
<path fill="none" stroke="#63b8ff" d="M1777.49,-331.68C1784.15,-322.79 1791.54,-312.95 1797.38,-305.16"/>
<polygon fill="#63b8ff" stroke="#63b8ff" points="1774.76,-329.49 1771.56,-339.59 1780.36,-333.69 1774.76,-329.49"/>
</g>
<!-- Node226 -->
<g id="node50" class="node">
<title>Node226</title>
<g id="a_node50"><a xlink:href="c__m3d__g__cyl_8cpp.html" target="_top" xlink:title=" ">
<polygon fill="white" stroke="#666666" points="2027,-305 1893,-305 1893,-275 2027,-275 2027,-305"/>
<text text-anchor="start" x="1901" y="-293" font-family="Helvetica,sans-Serif" font-size="10.00">libs/SSystem/SComponent</text>
<text text-anchor="middle" x="1960" y="-282" font-family="Helvetica,sans-Serif" font-size="10.00">/c_m3d_g_cyl.cpp</text>
</a>
</g>
</g>
<!-- Node1&#45;&gt;Node226 -->
<g id="edge66" class="edge">
<title>Node1&#45;&gt;Node226</title>
<path fill="none" stroke="#63b8ff" d="M1815.63,-337.2C1846.93,-327.18 1885.52,-314.83 1914.92,-305.43"/>
<polygon fill="#63b8ff" stroke="#63b8ff" points="1814.78,-333.79 1806.33,-340.18 1816.92,-340.46 1814.78,-333.79"/>
</g>
<!-- Node3 -->
<g id="node3" class="node">
<title>Node3</title>
<g id="a_node3"><a xlink:href="c__cc__s_8h.html" target="_top" xlink:title=" ">
<polygon fill="white" stroke="#666666" points="264.5,-239 115.5,-239 115.5,-209 264.5,-209 264.5,-239"/>
<text text-anchor="start" x="123.5" y="-227" font-family="Helvetica,sans-Serif" font-size="10.00">include/SSystem/SComponent</text>
<text text-anchor="middle" x="190" y="-216" font-family="Helvetica,sans-Serif" font-size="10.00">/c_cc_s.h</text>
</a>
</g>
</g>
<!-- Node2&#45;&gt;Node3 -->
<g id="edge2" class="edge">
<title>Node2&#45;&gt;Node3</title>
<path fill="none" stroke="#63b8ff" d="M1196.67,-288.08C1021.97,-285.48 614.24,-275.66 274,-239 270.91,-238.67 267.77,-238.3 264.59,-237.89"/>
<polygon fill="#63b8ff" stroke="#63b8ff" points="1196.52,-291.58 1206.57,-288.22 1196.62,-284.58 1196.52,-291.58"/>
</g>
<!-- Node194 -->
<g id="node6" class="node">
<title>Node194</title>
<g id="a_node6"><a xlink:href="d__cc__d_8h.html" target="_top" xlink:title=" ">
<polygon fill="white" stroke="#666666" points="1338.5,-233.5 1227.5,-233.5 1227.5,-214.5 1338.5,-214.5 1338.5,-233.5"/>
<text text-anchor="middle" x="1283" y="-221.5" font-family="Helvetica,sans-Serif" font-size="10.00">include/d/cc/d_cc_d.h</text>
</a>
</g>
</g>
<!-- Node2&#45;&gt;Node194 -->
<g id="edge5" class="edge">
<title>Node2&#45;&gt;Node194</title>
<path fill="none" stroke="#63b8ff" d="M1283,-263.59C1283,-253.06 1283,-241.53 1283,-233.84"/>
<polygon fill="#63b8ff" stroke="#63b8ff" points="1279.5,-263.28 1283,-273.28 1286.5,-263.28 1279.5,-263.28"/>
</g>
<!-- Node220 -->
<g id="node44" class="node">
<title>Node220</title>
<g id="a_node44"><a xlink:href="d__cc__mass__s_8h.html" target="_top" xlink:title=" ">
<polygon fill="white" stroke="#666666" points="423,-233.5 283,-233.5 283,-214.5 423,-214.5 423,-233.5"/>
<text text-anchor="middle" x="353" y="-221.5" font-family="Helvetica,sans-Serif" font-size="10.00">include/d/cc/d_cc_mass_s.h</text>
</a>
</g>
</g>
<!-- Node2&#45;&gt;Node220 -->
<g id="edge50" class="edge">
<title>Node2&#45;&gt;Node220</title>
<path fill="none" stroke="#63b8ff" d="M1196.65,-283.06C1013.89,-270.48 591.01,-241.38 423.33,-229.84"/>
<polygon fill="#63b8ff" stroke="#63b8ff" points="1196.35,-286.55 1206.56,-283.74 1196.83,-279.56 1196.35,-286.55"/>
</g>
<!-- Node221 -->
<g id="node45" class="node">
<title>Node221</title>
<g id="a_node45"><a xlink:href="c__cc__d_8cpp.html" target="_top" xlink:title=" ">
<polygon fill="white" stroke="#666666" points="1491,-239 1357,-239 1357,-209 1491,-209 1491,-239"/>
<text text-anchor="start" x="1365" y="-227" font-family="Helvetica,sans-Serif" font-size="10.00">libs/SSystem/SComponent</text>
<text text-anchor="middle" x="1424" y="-216" font-family="Helvetica,sans-Serif" font-size="10.00">/c_cc_d.cpp</text>
</a>
</g>
</g>
<!-- Node2&#45;&gt;Node221 -->
<g id="edge53" class="edge">
<title>Node2&#45;&gt;Node221</title>
<path fill="none" stroke="#63b8ff" d="M1324.88,-269.99C1346.53,-260.16 1372.53,-248.36 1392.46,-239.31"/>
<polygon fill="#63b8ff" stroke="#63b8ff" points="1323.68,-266.69 1316.02,-274.01 1326.57,-273.07 1323.68,-266.69"/>
</g>
<!-- Node4 -->
<g id="node4" class="node">
<title>Node4</title>
<g id="a_node4"><a xlink:href="d__cc__s_8h.html" target="_top" xlink:title=" ">
<polygon fill="#fff0f0" stroke="red" points="263.5,-162 152.5,-162 152.5,-143 263.5,-143 263.5,-162"/>
<text text-anchor="middle" x="208" y="-150" font-family="Helvetica,sans-Serif" font-size="10.00">include/d/cc/d_cc_s.h</text>
</a>
</g>
</g>
<!-- Node3&#45;&gt;Node4 -->
<g id="edge3" class="edge">
<title>Node3&#45;&gt;Node4</title>
<path fill="none" stroke="#63b8ff" d="M196.61,-197.46C199.82,-185.07 203.47,-170.99 205.75,-162.18"/>
<polygon fill="#63b8ff" stroke="#63b8ff" points="193.23,-196.58 194.11,-207.13 200,-198.33 193.23,-196.58"/>
</g>
<!-- Node193 -->
<g id="node5" class="node">
<title>Node193</title>
<g id="a_node5"><a xlink:href="c__cc__s_8cpp.html" target="_top" xlink:title=" ">
<polygon fill="white" stroke="#666666" points="134,-167.5 0,-167.5 0,-137.5 134,-137.5 134,-167.5"/>
<text text-anchor="start" x="8" y="-155.5" font-family="Helvetica,sans-Serif" font-size="10.00">libs/SSystem/SComponent</text>
<text text-anchor="middle" x="67" y="-144.5" font-family="Helvetica,sans-Serif" font-size="10.00">/c_cc_s.cpp</text>
</a>
</g>
</g>
<!-- Node3&#45;&gt;Node193 -->
<g id="edge4" class="edge">
<title>Node3&#45;&gt;Node193</title>
<path fill="none" stroke="#63b8ff" d="M154.59,-202.99C134.74,-191.77 110.42,-178.04 92.45,-167.88"/>
<polygon fill="#63b8ff" stroke="#63b8ff" points="152.77,-205.98 163.2,-207.85 156.21,-199.89 152.77,-205.98"/>
</g>
<!-- Node195 -->
<g id="node7" class="node">
<title>Node195</title>
<g id="a_node7"><a xlink:href="d__a__alink_8h.html" target="_top" xlink:title=" ">
<polygon fill="white" stroke="#666666" points="1675,-162 1559,-162 1559,-143 1675,-143 1675,-162"/>
<text text-anchor="middle" x="1617" y="-150" font-family="Helvetica,sans-Serif" font-size="10.00">include/d/a/d_a_alink.h</text>
</a>
</g>
</g>
<!-- Node194&#45;&gt;Node195 -->
<g id="edge6" class="edge">
<title>Node194&#45;&gt;Node195</title>
<path fill="none" stroke="#63b8ff" d="M1334.67,-211.7C1339.17,-210.77 1343.66,-209.85 1348,-209 1437.04,-191.44 1460.6,-193.54 1549,-173 1562.04,-169.97 1576.3,-165.99 1588.38,-162.41"/>
<polygon fill="#63b8ff" stroke="#63b8ff" points="1334.07,-208.25 1325,-213.73 1335.51,-215.1 1334.07,-208.25"/>
</g>
<!-- Node196 -->
<g id="node16" class="node">
<title>Node196</title>
<g id="a_node16"><a xlink:href="d__a__item__static_8h.html" target="_top" xlink:title=" ">
<polygon fill="#fff0f0" stroke="red" points="2691.5,-90.5 2584.5,-90.5 2584.5,-60.5 2691.5,-60.5 2691.5,-90.5"/>
<text text-anchor="start" x="2592.5" y="-78.5" font-family="Helvetica,sans-Serif" font-size="10.00">include/d/a/d_a_item</text>
<text text-anchor="middle" x="2638" y="-67.5" font-family="Helvetica,sans-Serif" font-size="10.00">_static.h</text>
</a>
</g>
</g>
<!-- Node194&#45;&gt;Node196 -->
<g id="edge15" class="edge">
<title>Node194&#45;&gt;Node196</title>
<path fill="none" stroke="#63b8ff" d="M1330.64,-211.82C1336.46,-210.72 1342.35,-209.75 1348,-209 1505.5,-188.21 1918.05,-240.22 2062,-173 2084.51,-162.49 2077.62,-142.79 2100,-132 2195.55,-85.91 2471.83,-116.04 2576,-96 2582.76,-94.7 2589.82,-92.91 2596.65,-90.94"/>
<polygon fill="#63b8ff" stroke="#63b8ff" points="1330.2,-208.34 1321.08,-213.74 1331.58,-215.2 1330.2,-208.34"/>
</g>
<!-- Node200 -->
<g id="node17" class="node">
<title>Node200</title>
<g id="a_node17"><a xlink:href="d__a__itembase_8h.html" target="_top" xlink:title=" ">
<polygon fill="white" stroke="#666666" points="2380.5,-162 2245.5,-162 2245.5,-143 2380.5,-143 2380.5,-162"/>
<text text-anchor="middle" x="2313" y="-150" font-family="Helvetica,sans-Serif" font-size="10.00">include/d/a/d_a_itembase.h</text>
</a>
</g>
</g>
<!-- Node194&#45;&gt;Node200 -->
<g id="edge16" class="edge">
<title>Node194&#45;&gt;Node200</title>
<path fill="none" stroke="#63b8ff" d="M1330.42,-211.8C1336.31,-210.7 1342.28,-209.73 1348,-209 1739.84,-159.23 1845.11,-229.79 2236,-173 2251.97,-170.68 2269.42,-166.41 2283.67,-162.45"/>
<polygon fill="#63b8ff" stroke="#63b8ff" points="1329.85,-208.35 1320.74,-213.74 1331.23,-215.21 1329.85,-208.35"/>
</g>
<!-- Node206 -->
<g id="node22" class="node">
<title>Node206</title>
<g id="a_node22"><a xlink:href="d__bomb_8h.html" target="_top" xlink:title=" ">
<polygon fill="white" stroke="#666666" points="1373.5,-162 1272.5,-162 1272.5,-143 1373.5,-143 1373.5,-162"/>
<text text-anchor="middle" x="1323" y="-150" font-family="Helvetica,sans-Serif" font-size="10.00">include/d/d_bomb.h</text>
</a>
</g>
</g>
<!-- Node194&#45;&gt;Node206 -->
<g id="edge23" class="edge">
<title>Node194&#45;&gt;Node206</title>
<path fill="none" stroke="#63b8ff" d="M1293.69,-204.43C1301.51,-190.85 1311.77,-173.01 1317.85,-162.45"/>
<polygon fill="#63b8ff" stroke="#63b8ff" points="1290.78,-202.47 1288.82,-212.89 1296.84,-205.96 1290.78,-202.47"/>
</g>
<!-- Node208 -->
<g id="node25" class="node">
<title>Node208</title>
<g id="a_node25"><a xlink:href="d__a__arrow_8h.html" target="_top" xlink:title=" ">
<polygon fill="white" stroke="#666666" points="1215.5,-167.5 1114.5,-167.5 1114.5,-137.5 1215.5,-137.5 1215.5,-167.5"/>
<text text-anchor="start" x="1122.5" y="-155.5" font-family="Helvetica,sans-Serif" font-size="10.00">include/rel/d/a/d_a</text>
<text text-anchor="middle" x="1165" y="-144.5" font-family="Helvetica,sans-Serif" font-size="10.00">_arrow/d_a_arrow.h</text>
</a>
</g>
</g>
<!-- Node194&#45;&gt;Node208 -->
<g id="edge26" class="edge">
<title>Node194&#45;&gt;Node208</title>
<path fill="none" stroke="#63b8ff" d="M1258.29,-208.44C1237.99,-196.49 1209.4,-179.65 1189.24,-167.77"/>
<polygon fill="#63b8ff" stroke="#63b8ff" points="1256.36,-211.37 1266.75,-213.43 1259.91,-205.34 1256.36,-211.37"/>
</g>
<!-- Node209 -->
<g id="node26" class="node">
<title>Node209</title>
<g id="a_node26"><a xlink:href="d__a__bg__obj_8h.html" target="_top" xlink:title=" ">
<polygon fill="white" stroke="#666666" points="515,-167.5 405,-167.5 405,-137.5 515,-137.5 515,-167.5"/>
<text text-anchor="start" x="413" y="-155.5" font-family="Helvetica,sans-Serif" font-size="10.00">include/rel/d/a/d_a</text>
<text text-anchor="middle" x="460" y="-144.5" font-family="Helvetica,sans-Serif" font-size="10.00">_bg_obj/d_a_bg_obj.h</text>
</a>
</g>
</g>
<!-- Node194&#45;&gt;Node209 -->
<g id="edge27" class="edge">
<title>Node194&#45;&gt;Node209</title>
<path fill="none" stroke="#63b8ff" d="M1216.04,-223.73C1083.01,-224.04 776.45,-219.14 524,-173 517.03,-171.73 509.75,-169.95 502.7,-167.99"/>
<polygon fill="#63b8ff" stroke="#63b8ff" points="1215.73,-227.23 1225.72,-223.69 1215.7,-220.23 1215.73,-227.23"/>
</g>
<!-- Node210 -->
<g id="node27" class="node">
<title>Node210</title>
<g id="a_node27"><a xlink:href="d__a__boomerang_8h.html" target="_top" xlink:title=" ">
<polygon fill="white" stroke="#666666" points="1540.5,-167.5 1391.5,-167.5 1391.5,-137.5 1540.5,-137.5 1540.5,-167.5"/>
<text text-anchor="start" x="1399.5" y="-155.5" font-family="Helvetica,sans-Serif" font-size="10.00">include/rel/d/a/d_a</text>
<text text-anchor="middle" x="1466" y="-144.5" font-family="Helvetica,sans-Serif" font-size="10.00">_boomerang/d_a_boomerang.h</text>
</a>
</g>
</g>
<!-- Node194&#45;&gt;Node210 -->
<g id="edge28" class="edge">
<title>Node194&#45;&gt;Node210</title>
<path fill="none" stroke="#63b8ff" d="M1316.99,-210.09C1348.46,-198.14 1395.18,-180.4 1427.89,-167.97"/>
<polygon fill="#63b8ff" stroke="#63b8ff" points="1316.07,-206.7 1307.96,-213.52 1318.56,-213.24 1316.07,-206.7"/>
</g>
<!-- Node211 -->
<g id="node28" class="node">
<title>Node211</title>
<g id="a_node28"><a xlink:href="d__a__canoe_8h.html" target="_top" xlink:title=" ">
<polygon fill="white" stroke="#666666" points="2505,-167.5 2399,-167.5 2399,-137.5 2505,-137.5 2505,-167.5"/>
<text text-anchor="start" x="2407" y="-155.5" font-family="Helvetica,sans-Serif" font-size="10.00">include/rel/d/a/d_a</text>
<text text-anchor="middle" x="2452" y="-144.5" font-family="Helvetica,sans-Serif" font-size="10.00">_canoe/d_a_canoe.h</text>
</a>
</g>
</g>
<!-- Node194&#45;&gt;Node211 -->
<g id="edge30" class="edge">
<title>Node194&#45;&gt;Node211</title>
<path fill="none" stroke="#63b8ff" d="M1330.41,-211.77C1336.31,-210.68 1342.28,-209.71 1348,-209 1807.87,-151.99 1933.26,-251.23 2390,-173 2397.01,-171.8 2404.32,-170.01 2411.36,-167.99"/>
<polygon fill="#63b8ff" stroke="#63b8ff" points="1329.85,-208.31 1320.73,-213.71 1331.22,-215.18 1329.85,-208.31"/>
</g>
<!-- Node212 -->
<g id="node29" class="node">
<title>Node212</title>
<g id="a_node29"><a xlink:href="d__a__crod_8h.html" target="_top" xlink:title=" ">
<polygon fill="white" stroke="#666666" points="543,-90.5 447,-90.5 447,-60.5 543,-60.5 543,-90.5"/>
<text text-anchor="start" x="455" y="-78.5" font-family="Helvetica,sans-Serif" font-size="10.00">include/rel/d/a/d_a</text>
<text text-anchor="middle" x="495" y="-67.5" font-family="Helvetica,sans-Serif" font-size="10.00">_crod/d_a_crod.h</text>
</a>
</g>
</g>
<!-- Node194&#45;&gt;Node212 -->
<g id="edge31" class="edge">
<title>Node194&#45;&gt;Node212</title>
<path fill="none" stroke="#63b8ff" d="M1276.57,-203.71C1268.21,-182.04 1251.36,-147.83 1224,-132 1159.28,-94.55 625.41,-110.24 552,-96 545.63,-94.77 539.01,-92.98 532.62,-91"/>
<polygon fill="#63b8ff" stroke="#63b8ff" points="1273.17,-204.61 1279.84,-212.84 1279.76,-202.25 1273.17,-204.61"/>
</g>
<!-- Node213 -->
<g id="node30" class="node">
<title>Node213</title>
<g id="a_node30"><a xlink:href="d__a__cstatue_8h.html" target="_top" xlink:title=" ">
<polygon fill="white" stroke="#666666" points="2227,-167.5 2109,-167.5 2109,-137.5 2227,-137.5 2227,-167.5"/>
<text text-anchor="start" x="2117" y="-155.5" font-family="Helvetica,sans-Serif" font-size="10.00">include/rel/d/a/d_a</text>
<text text-anchor="middle" x="2168" y="-144.5" font-family="Helvetica,sans-Serif" font-size="10.00">_cstatue/d_a_cstatue.h</text>
</a>
</g>
</g>
<!-- Node194&#45;&gt;Node213 -->
<g id="edge33" class="edge">
<title>Node194&#45;&gt;Node213</title>
<path fill="none" stroke="#63b8ff" d="M1330.64,-211.81C1336.46,-210.71 1342.35,-209.74 1348,-209 1677.57,-165.86 1766.58,-224.18 2095,-173 2103.04,-171.75 2111.46,-169.96 2119.62,-167.97"/>
<polygon fill="#63b8ff" stroke="#63b8ff" points="1330.2,-208.32 1321.08,-213.72 1331.58,-215.19 1330.2,-208.32"/>
</g>
<!-- Node214 -->
<g id="node31" class="node">
<title>Node214</title>
<g id="a_node31"><a xlink:href="d__a__horse_8h.html" target="_top" xlink:title=" ">
<polygon fill="white" stroke="#666666" points="1918.5,-167.5 1817.5,-167.5 1817.5,-137.5 1918.5,-137.5 1918.5,-167.5"/>
<text text-anchor="start" x="1825.5" y="-155.5" font-family="Helvetica,sans-Serif" font-size="10.00">include/rel/d/a/d_a</text>
<text text-anchor="middle" x="1868" y="-144.5" font-family="Helvetica,sans-Serif" font-size="10.00">_horse/d_a_horse.h</text>
</a>
</g>
</g>
<!-- Node194&#45;&gt;Node214 -->
<g id="edge34" class="edge">
<title>Node194&#45;&gt;Node214</title>
<path fill="none" stroke="#63b8ff" d="M1332.6,-211.75C1337.79,-210.74 1342.99,-209.8 1348,-209 1353.78,-208.07 1687.77,-172.61 1817.37,-158.87"/>
<polygon fill="#63b8ff" stroke="#63b8ff" points="1331.96,-208.31 1322.85,-213.73 1333.35,-215.17 1331.96,-208.31"/>
</g>
<!-- Node78 -->
<g id="node36" class="node">
<title>Node78</title>
<g id="a_node36"><a xlink:href="d__a__obj__carry_8h.html" target="_top" xlink:title=" ">
<polygon fill="white" stroke="#666666" points="2053,-173 1937,-173 1937,-132 2053,-132 2053,-173"/>
<text text-anchor="start" x="1945" y="-161" font-family="Helvetica,sans-Serif" font-size="10.00">include/rel/d/a/obj</text>
<text text-anchor="start" x="1945" y="-150" font-family="Helvetica,sans-Serif" font-size="10.00">/d_a_obj_carry/d_a_obj</text>
<text text-anchor="middle" x="1995" y="-139" font-family="Helvetica,sans-Serif" font-size="10.00">_carry.h</text>
</a>
</g>
</g>
<!-- Node194&#45;&gt;Node78 -->
<g id="edge41" class="edge">
<title>Node194&#45;&gt;Node78</title>
<path fill="none" stroke="#63b8ff" d="M1330.87,-211.84C1336.62,-210.75 1342.43,-209.77 1348,-209 1603.85,-173.71 1673.56,-217.36 1928,-173 1930.86,-172.5 1933.78,-171.92 1936.71,-171.29"/>
<polygon fill="#63b8ff" stroke="#63b8ff" points="1330.55,-208.33 1321.44,-213.74 1331.93,-215.2 1330.55,-208.33"/>
</g>
<!-- Node215 -->
<g id="node39" class="node">
<title>Node215</title>
<g id="a_node39"><a xlink:href="d__a__obj__hbombkoya_8h.html" target="_top" xlink:title=" ">
<polygon fill="white" stroke="#666666" points="649,-173 533,-173 533,-132 649,-132 649,-173"/>
<text text-anchor="start" x="541" y="-161" font-family="Helvetica,sans-Serif" font-size="10.00">include/rel/d/a/obj</text>
<text text-anchor="start" x="541" y="-150" font-family="Helvetica,sans-Serif" font-size="10.00">/d_a_obj_hbombkoya/d</text>
<text text-anchor="middle" x="591" y="-139" font-family="Helvetica,sans-Serif" font-size="10.00">_a_obj_hbombkoya.h</text>
</a>
</g>
</g>
<!-- Node194&#45;&gt;Node215 -->
<g id="edge45" class="edge">
<title>Node194&#45;&gt;Node215</title>
<path fill="none" stroke="#63b8ff" d="M1215.93,-222.09C1100.86,-219.55 858.81,-209.86 658,-173 655.14,-172.48 652.23,-171.88 649.3,-171.22"/>
<polygon fill="#63b8ff" stroke="#63b8ff" points="1215.74,-225.59 1225.81,-222.3 1215.89,-218.59 1215.74,-225.59"/>
</g>
<!-- Node216 -->
<g id="node40" class="node">
<title>Node216</title>
<g id="a_node40"><a xlink:href="d__a__obj__swhang_8h.html" target="_top" xlink:title=" ">
<polygon fill="white" stroke="#666666" points="778.5,-173 667.5,-173 667.5,-132 778.5,-132 778.5,-173"/>
<text text-anchor="start" x="675.5" y="-161" font-family="Helvetica,sans-Serif" font-size="10.00">include/rel/d/a/obj</text>
<text text-anchor="start" x="675.5" y="-150" font-family="Helvetica,sans-Serif" font-size="10.00">/d_a_obj_swhang/d_a</text>
<text text-anchor="middle" x="723" y="-139" font-family="Helvetica,sans-Serif" font-size="10.00">_obj_swhang.h</text>
</a>
</g>
</g>
<!-- Node194&#45;&gt;Node216 -->
<g id="edge46" class="edge">
<title>Node194&#45;&gt;Node216</title>
<path fill="none" stroke="#63b8ff" d="M1215.94,-220.28C1120.21,-215.49 939.22,-203.03 788,-173 785,-172.4 781.93,-171.73 778.85,-170.99"/>
<polygon fill="#63b8ff" stroke="#63b8ff" points="1215.51,-223.77 1225.67,-220.76 1215.85,-216.78 1215.51,-223.77"/>
</g>
<!-- Node217 -->
<g id="node41" class="node">
<title>Node217</title>
<g id="a_node41"><a xlink:href="d__a__obj__swpropeller_8h.html" target="_top" xlink:title=" ">
<polygon fill="white" stroke="#666666" points="913,-173 797,-173 797,-132 913,-132 913,-173"/>
<text text-anchor="start" x="805" y="-161" font-family="Helvetica,sans-Serif" font-size="10.00">include/rel/d/a/obj</text>
<text text-anchor="start" x="805" y="-150" font-family="Helvetica,sans-Serif" font-size="10.00">/d_a_obj_swpropeller</text>
<text text-anchor="middle" x="855" y="-139" font-family="Helvetica,sans-Serif" font-size="10.00">/d_a_obj_swpropeller.h</text>
</a>
</g>
</g>
<!-- Node194&#45;&gt;Node217 -->
<g id="edge47" class="edge">
<title>Node194&#45;&gt;Node217</title>
<path fill="none" stroke="#63b8ff" d="M1215.93,-216.66C1143.06,-209.09 1023.46,-194.67 922,-173 919.16,-172.39 916.26,-171.73 913.34,-171.02"/>
<polygon fill="#63b8ff" stroke="#63b8ff" points="1215.4,-220.13 1225.71,-217.67 1216.12,-213.16 1215.4,-220.13"/>
</g>
<!-- Node218 -->
<g id="node42" class="node">
<title>Node218</title>
<g id="a_node42"><a xlink:href="d__cc__d__nonmatching_8cpp.html" target="_top" xlink:title=" ">
<polygon fill="white" stroke="#666666" points="1096.5,-162 931.5,-162 931.5,-143 1096.5,-143 1096.5,-162"/>
<text text-anchor="middle" x="1014" y="-150" font-family="Helvetica,sans-Serif" font-size="10.00">src/d/cc/d_cc_d_nonmatching.cpp</text>
</a>
</g>
</g>
<!-- Node194&#45;&gt;Node218 -->
<g id="edge48" class="edge">
<title>Node194&#45;&gt;Node218</title>
<path fill="none" stroke="#63b8ff" d="M1237.52,-211.25C1184.09,-197.45 1096.63,-174.85 1048.48,-162.41"/>
<polygon fill="#63b8ff" stroke="#63b8ff" points="1236.36,-214.56 1246.92,-213.68 1238.11,-207.79 1236.36,-214.56"/>
</g>
<!-- Node219 -->
<g id="node43" class="node">
<title>Node219</title>
<g id="a_node43"><a xlink:href="d__cc__mass__s_8cpp.html" target="_top" xlink:title=" ">
<polygon fill="white" stroke="#666666" points="386.5,-167.5 281.5,-167.5 281.5,-137.5 386.5,-137.5 386.5,-167.5"/>
<text text-anchor="start" x="289.5" y="-155.5" font-family="Helvetica,sans-Serif" font-size="10.00">src/d/cc/d_cc_mass</text>
<text text-anchor="middle" x="334" y="-144.5" font-family="Helvetica,sans-Serif" font-size="10.00">_s.cpp</text>
</a>
</g>
</g>
<!-- Node194&#45;&gt;Node219 -->
<g id="edge49" class="edge">
<title>Node194&#45;&gt;Node219</title>
<path fill="none" stroke="#63b8ff" d="M1215.73,-221.37C1037,-216.69 553.19,-201.69 396,-173 389.12,-171.74 381.93,-169.95 374.99,-167.96"/>
<polygon fill="#63b8ff" stroke="#63b8ff" points="1215.46,-224.86 1225.54,-221.62 1215.64,-217.87 1215.46,-224.86"/>
</g>
<!-- Node22 -->
<g id="node8" class="node">
<title>Node22</title>
<g id="a_node8"><a xlink:href="d__a__alink_8cpp.html" target="_top" xlink:title=" ">
<polygon fill="white" stroke="#666666" points="1793.5,-19 1684.5,-19 1684.5,0 1793.5,0 1793.5,-19"/>
<text text-anchor="middle" x="1739" y="-7" font-family="Helvetica,sans-Serif" font-size="10.00">src/d/a/d_a_alink.cpp</text>
</a>
</g>
</g>
<!-- Node195&#45;&gt;Node22 -->
<g id="edge7" class="edge">
<title>Node195&#45;&gt;Node22</title>
<path fill="none" stroke="#63b8ff" d="M1576.05,-139.36C1567.15,-136.84 1557.78,-134.26 1549,-132 1479.25,-114.07 1435.92,-152.3 1391,-96 1379.64,-81.76 1378.96,-68.68 1391,-55 1410.04,-33.37 1591.11,-19.4 1684.24,-13.59"/>
<polygon fill="#63b8ff" stroke="#63b8ff" points="1574.94,-142.68 1585.52,-142.08 1576.87,-135.96 1574.94,-142.68"/>
</g>
<!-- Node72 -->
<g id="node9" class="node">
<title>Node72</title>
<g id="a_node9"><a xlink:href="d__a__player_8cpp.html" target="_top" xlink:title=" ">
<polygon fill="white" stroke="#666666" points="927,-85 813,-85 813,-66 927,-66 927,-85"/>
<text text-anchor="middle" x="870" y="-73" font-family="Helvetica,sans-Serif" font-size="10.00">src/d/a/d_a_player.cpp</text>
</a>
</g>
</g>
<!-- Node195&#45;&gt;Node72 -->
<g id="edge8" class="edge">
<title>Node195&#45;&gt;Node72</title>
<path fill="none" stroke="#63b8ff" d="M1580.03,-139.3C1570.06,-136.45 1559.2,-133.74 1549,-132 1279.97,-86.11 1204.84,-142.97 936,-96 922.35,-93.61 907.52,-89.39 895.38,-85.48"/>
<polygon fill="#63b8ff" stroke="#63b8ff" points="1578.8,-142.58 1589.38,-142.1 1580.81,-135.88 1578.8,-142.58"/>
</g>
<!-- Node39 -->
<g id="node10" class="node">
<title>Node39</title>
<g id="a_node10"><a xlink:href="d__com__inf__game_8cpp.html" target="_top" xlink:title=" ">
<polygon fill="white" stroke="#666666" points="1508,-90.5 1400,-90.5 1400,-60.5 1508,-60.5 1508,-90.5"/>
<text text-anchor="start" x="1408" y="-78.5" font-family="Helvetica,sans-Serif" font-size="10.00">src/d/com/d_com_inf</text>
<text text-anchor="middle" x="1454" y="-67.5" font-family="Helvetica,sans-Serif" font-size="10.00">_game.cpp</text>
</a>
</g>
</g>
<!-- Node195&#45;&gt;Node39 -->
<g id="edge9" class="edge">
<title>Node195&#45;&gt;Node39</title>
<path fill="none" stroke="#63b8ff" d="M1587.38,-137.87C1558.5,-124.58 1514.75,-104.45 1485.31,-90.9"/>
<polygon fill="#63b8ff" stroke="#63b8ff" points="1585.74,-140.97 1596.29,-141.97 1588.67,-134.61 1585.74,-140.97"/>
</g>
<!-- Node138 -->
<g id="node11" class="node">
<title>Node138</title>
<g id="a_node11"><a xlink:href="d__camera_8cpp.html" target="_top" xlink:title=" ">
<polygon fill="white" stroke="#666666" points="1628,-85 1526,-85 1526,-66 1628,-66 1628,-85"/>
<text text-anchor="middle" x="1577" y="-73" font-family="Helvetica,sans-Serif" font-size="10.00">src/d/d_camera.cpp</text>
</a>
</g>
</g>
<!-- Node195&#45;&gt;Node138 -->
<g id="edge10" class="edge">
<title>Node195&#45;&gt;Node138</title>
<path fill="none" stroke="#63b8ff" d="M1607,-132.76C1598.93,-117.62 1587.93,-97 1581.74,-85.39"/>
<polygon fill="#63b8ff" stroke="#63b8ff" points="1603.75,-134.09 1611.54,-141.27 1609.92,-130.8 1603.75,-134.09"/>
</g>
<!-- Node43 -->
<g id="node12" class="node">
<title>Node43</title>
<g id="a_node12"><a xlink:href="d__event_8cpp.html" target="_top" xlink:title=" ">
<polygon fill="white" stroke="#666666" points="2446.5,-19 2325.5,-19 2325.5,0 2446.5,0 2446.5,-19"/>
<text text-anchor="middle" x="2386" y="-7" font-family="Helvetica,sans-Serif" font-size="10.00">src/d/event/d_event.cpp</text>
</a>
</g>
</g>
<!-- Node195&#45;&gt;Node43 -->
<g id="edge11" class="edge">
<title>Node195&#45;&gt;Node43</title>
<path fill="none" stroke="#63b8ff" d="M1622.69,-131.8C1630.43,-108.95 1646.68,-72.21 1675,-55 1729.83,-21.68 2162.89,-13.14 2325.01,-11.1"/>
<polygon fill="#63b8ff" stroke="#63b8ff" points="1619.41,-130.55 1619.77,-141.14 1626.09,-132.64 1619.41,-130.55"/>
</g>
<!-- Node47 -->
<g id="node13" class="node">
<title>Node47</title>
<g id="a_node13"><a xlink:href="d__meter2__draw_8cpp.html" target="_top" xlink:title=" ">
<polygon fill="white" stroke="#666666" points="1055,-90.5 945,-90.5 945,-60.5 1055,-60.5 1055,-90.5"/>
<text text-anchor="start" x="953" y="-78.5" font-family="Helvetica,sans-Serif" font-size="10.00">src/d/meter/d_meter2</text>
<text text-anchor="middle" x="1000" y="-67.5" font-family="Helvetica,sans-Serif" font-size="10.00">_draw.cpp</text>
</a>
</g>
</g>
<!-- Node195&#45;&gt;Node47 -->
<g id="edge12" class="edge">
<title>Node195&#45;&gt;Node47</title>
<path fill="none" stroke="#63b8ff" d="M1579.75,-139.33C1569.85,-136.51 1559.1,-133.8 1549,-132 1336.22,-94.01 1276.46,-135.74 1064,-96 1057.04,-94.7 1049.76,-92.91 1042.71,-90.94"/>
<polygon fill="#63b8ff" stroke="#63b8ff" points="1578.46,-142.6 1589.04,-142.1 1580.46,-135.89 1578.46,-142.6"/>
</g>
<!-- Node8 -->
<g id="node14" class="node">
<title>Node8</title>
<g id="a_node14"><a xlink:href="d__msg__flow_8cpp.html" target="_top" xlink:title=" ">
<polygon fill="white" stroke="#666666" points="1206.5,-85 1073.5,-85 1073.5,-66 1206.5,-66 1206.5,-85"/>
<text text-anchor="middle" x="1140" y="-73" font-family="Helvetica,sans-Serif" font-size="10.00">src/d/msg/d_msg_flow.cpp</text>
</a>
</g>
</g>
<!-- Node195&#45;&gt;Node8 -->
<g id="edge13" class="edge">
<title>Node195&#45;&gt;Node8</title>
<path fill="none" stroke="#63b8ff" d="M1578.88,-139.32C1569.21,-136.58 1558.79,-133.92 1549,-132 1402.48,-103.32 1361.87,-122.86 1215,-96 1200.18,-93.29 1183.97,-89.22 1170.42,-85.5"/>
<polygon fill="#63b8ff" stroke="#63b8ff" points="1577.77,-142.64 1588.35,-142.11 1579.74,-135.93 1577.77,-142.64"/>
</g>
<!-- Node181 -->
<g id="node15" class="node">
<title>Node181</title>
<g id="a_node15"><a xlink:href="f__op__actor_8cpp.html" target="_top" xlink:title=" ">
<polygon fill="white" stroke="#666666" points="1343.5,-85 1224.5,-85 1224.5,-66 1343.5,-66 1343.5,-85"/>
<text text-anchor="middle" x="1284" y="-73" font-family="Helvetica,sans-Serif" font-size="10.00">src/f_op/f_op_actor.cpp</text>
</a>
</g>
</g>
<!-- Node195&#45;&gt;Node181 -->
<g id="edge14" class="edge">
<title>Node195&#45;&gt;Node181</title>
<path fill="none" stroke="#63b8ff" d="M1577.17,-139.41C1567.96,-136.8 1558.18,-134.18 1549,-132 1464.95,-112.07 1442.26,-115.02 1358,-96 1344.13,-92.87 1328.93,-88.95 1315.93,-85.45"/>
<polygon fill="#63b8ff" stroke="#63b8ff" points="1576,-142.71 1586.58,-142.13 1577.95,-135.99 1576,-142.71"/>
</g>
<!-- Node200&#45;&gt;Node196 -->
<g id="edge17" class="edge">
<title>Node200&#45;&gt;Node196</title>
<path fill="none" stroke="#63b8ff" d="M2357.75,-139.71C2368.3,-137.06 2379.52,-134.34 2390,-132 2472.18,-113.66 2494.37,-116.66 2576,-96 2581.91,-94.5 2588.08,-92.77 2594.15,-90.97"/>
<polygon fill="#63b8ff" stroke="#63b8ff" points="2356.93,-136.31 2348.1,-142.17 2358.66,-143.09 2356.93,-136.31"/>
</g>
<!-- Node201 -->
<g id="node18" class="node">
<title>Node201</title>
<g id="a_node18"><a xlink:href="d__a__shop__item__static_8h.html" target="_top" xlink:title=" ">
<polygon fill="#fff0f0" stroke="red" points="2818.5,-90.5 2709.5,-90.5 2709.5,-60.5 2818.5,-60.5 2818.5,-90.5"/>
<text text-anchor="start" x="2717.5" y="-78.5" font-family="Helvetica,sans-Serif" font-size="10.00">include/d/a/d_a_shop</text>
<text text-anchor="middle" x="2764" y="-67.5" font-family="Helvetica,sans-Serif" font-size="10.00">_item_static.h</text>
</a>
</g>
</g>
<!-- Node200&#45;&gt;Node201 -->
<g id="edge18" class="edge">
<title>Node200&#45;&gt;Node201</title>
<path fill="none" stroke="#63b8ff" d="M2355.14,-139.75C2366.4,-136.91 2378.61,-134.09 2390,-132 2526.86,-106.86 2564.85,-124.69 2701,-96 2707.5,-94.63 2714.29,-92.88 2720.9,-90.99"/>
<polygon fill="#63b8ff" stroke="#63b8ff" points="2354.53,-136.3 2345.73,-142.2 2356.29,-143.07 2354.53,-136.3"/>
</g>
<!-- Node204 -->
<g id="node19" class="node">
<title>Node204</title>
<g id="a_node19"><a xlink:href="d__event_8h.html" target="_top" xlink:title=" ">
<polygon fill="#fff0f0" stroke="red" points="2965,-85 2837,-85 2837,-66 2965,-66 2965,-85"/>
<text text-anchor="middle" x="2901" y="-73" font-family="Helvetica,sans-Serif" font-size="10.00">include/d/event/d_event.h</text>
</a>
</g>
</g>
<!-- Node200&#45;&gt;Node204 -->
<g id="edge19" class="edge">
<title>Node200&#45;&gt;Node204</title>
<path fill="none" stroke="#63b8ff" d="M2354.49,-139.65C2365.92,-136.76 2378.37,-133.94 2390,-132 2582.67,-99.91 2635.54,-129.34 2828,-96 2842.74,-93.45 2858.82,-89.3 2872.14,-85.49"/>
<polygon fill="#63b8ff" stroke="#63b8ff" points="2353.73,-136.23 2344.94,-142.16 2355.5,-143 2353.73,-136.23"/>
</g>
<!-- Node129 -->
<g id="node20" class="node">
<title>Node129</title>
<g id="a_node20"><a xlink:href="d__a__itembase_8cpp.html" target="_top" xlink:title=" ">
<polygon fill="white" stroke="#666666" points="3111,-85 2983,-85 2983,-66 3111,-66 3111,-85"/>
<text text-anchor="middle" x="3047" y="-73" font-family="Helvetica,sans-Serif" font-size="10.00">src/d/a/d_a_itembase.cpp</text>
</a>
</g>
</g>
<!-- Node200&#45;&gt;Node129 -->
<g id="edge21" class="edge">
<title>Node200&#45;&gt;Node129</title>
<path fill="none" stroke="#63b8ff" d="M2353.51,-139.74C2365.19,-136.75 2378.02,-133.87 2390,-132 2646.94,-91.91 2717.33,-137.76 2974,-96 2989.02,-93.56 3005.42,-89.32 3018.86,-85.42"/>
<polygon fill="#63b8ff" stroke="#63b8ff" points="2352.95,-136.26 2344.18,-142.21 2354.74,-143.03 2352.95,-136.26"/>
</g>
<!-- Node205 -->
<g id="node21" class="node">
<title>Node205</title>
<g id="a_node21"><a xlink:href="d__a__itembase__static_8cpp.html" target="_top" xlink:title=" ">
<polygon fill="white" stroke="#666666" points="3239,-90.5 3129,-90.5 3129,-60.5 3239,-60.5 3239,-90.5"/>
<text text-anchor="start" x="3137" y="-78.5" font-family="Helvetica,sans-Serif" font-size="10.00">src/d/a/d_a_itembase</text>
<text text-anchor="middle" x="3184" y="-67.5" font-family="Helvetica,sans-Serif" font-size="10.00">_static.cpp</text>
</a>
</g>
</g>
<!-- Node200&#45;&gt;Node205 -->
<g id="edge22" class="edge">
<title>Node200&#45;&gt;Node205</title>
<path fill="none" stroke="#63b8ff" d="M2353.49,-139.64C2365.18,-136.66 2378.01,-133.8 2390,-132 2711.26,-83.89 2799.98,-151.76 3120,-96 3127.09,-94.76 3134.51,-92.98 3141.67,-90.99"/>
<polygon fill="#63b8ff" stroke="#63b8ff" points="2352.93,-136.17 2344.17,-142.12 2354.73,-142.93 2352.93,-136.17"/>
</g>
<!-- Node204&#45;&gt;Node43 -->
<g id="edge20" class="edge">
<title>Node204&#45;&gt;Node43</title>
<path fill="none" stroke="#63b8ff" d="M2860.71,-62.5C2850.15,-59.69 2838.71,-56.96 2828,-55 2693.14,-30.36 2532.47,-18.49 2446.84,-13.53"/>
<polygon fill="#63b8ff" stroke="#63b8ff" points="2859.73,-65.86 2870.3,-65.14 2861.59,-59.11 2859.73,-65.86"/>
</g>
<!-- Node77 -->
<g id="node23" class="node">
<title>Node77</title>
<g id="a_node23"><a xlink:href="d__a__obj__bombf_8h.html" target="_top" xlink:title=" ">
<polygon fill="white" stroke="#666666" points="683,-96 561,-96 561,-55 683,-55 683,-96"/>
<text text-anchor="start" x="569" y="-84" font-family="Helvetica,sans-Serif" font-size="10.00">include/rel/d/a/obj</text>
<text text-anchor="start" x="569" y="-73" font-family="Helvetica,sans-Serif" font-size="10.00">/d_a_obj_bombf/d_a_obj</text>
<text text-anchor="middle" x="622" y="-62" font-family="Helvetica,sans-Serif" font-size="10.00">_bombf.h</text>
</a>
</g>
</g>
<!-- Node206&#45;&gt;Node77 -->
<g id="edge24" class="edge">
<title>Node206&#45;&gt;Node77</title>
<path fill="none" stroke="#63b8ff" d="M1287.07,-139.13C1277.71,-136.35 1267.56,-133.72 1258,-132 1009.9,-87.5 940.53,-138.05 692,-96 689.14,-95.52 686.23,-94.96 683.3,-94.35"/>
<polygon fill="#63b8ff" stroke="#63b8ff" points="1285.98,-142.46 1296.57,-142.1 1288.07,-135.77 1285.98,-142.46"/>
</g>
<!-- Node207 -->
<g id="node24" class="node">
<title>Node207</title>
<g id="a_node24"><a xlink:href="d__bomb_8cpp.html" target="_top" xlink:title=" ">
<polygon fill="white" stroke="#666666" points="795,-85 701,-85 701,-66 795,-66 795,-85"/>
<text text-anchor="middle" x="748" y="-73" font-family="Helvetica,sans-Serif" font-size="10.00">src/d/d_bomb.cpp</text>
</a>
</g>
</g>
<!-- Node206&#45;&gt;Node207 -->
<g id="edge25" class="edge">
<title>Node206&#45;&gt;Node207</title>
<path fill="none" stroke="#63b8ff" d="M1286.81,-139.16C1277.52,-136.4 1267.47,-133.77 1258,-132 1059.05,-94.71 1002.09,-137.62 804,-96 792.31,-93.54 779.72,-89.31 769.44,-85.41"/>
<polygon fill="#63b8ff" stroke="#63b8ff" points="1285.65,-142.47 1296.24,-142.09 1287.73,-135.78 1285.65,-142.47"/>
</g>
<!-- Node210&#45;&gt;Node72 -->
<g id="edge29" class="edge">
<title>Node210&#45;&gt;Node72</title>
<path fill="none" stroke="#63b8ff" d="M1397.87,-134.8C1392.52,-133.76 1387.18,-132.81 1382,-132 1185.5,-101.43 1131.51,-132.37 936,-96 922.49,-93.49 907.8,-89.3 895.72,-85.44"/>
<polygon fill="#63b8ff" stroke="#63b8ff" points="1396.85,-138.16 1407.35,-136.74 1398.26,-131.3 1396.85,-138.16"/>
</g>
<!-- Node212&#45;&gt;Node22 -->
<g id="edge32" class="edge">
<title>Node212&#45;&gt;Node22</title>
<path fill="none" stroke="#63b8ff" d="M543.08,-56.96C546.07,-56.21 549.06,-55.54 552,-55 773.51,-13.88 1481.61,-10.54 1684.31,-10.44"/>
<polygon fill="#63b8ff" stroke="#63b8ff" points="542.42,-53.51 533.75,-59.6 544.33,-60.25 542.42,-53.51"/>
</g>
<!-- Node214&#45;&gt;Node22 -->
<g id="edge38" class="edge">
<title>Node214&#45;&gt;Node22</title>
<path fill="none" stroke="#63b8ff" d="M1855.1,-127.32C1843.32,-106.62 1824.49,-76.81 1803,-55 1788.66,-40.44 1768.97,-27.58 1755.23,-19.47"/>
<polygon fill="#63b8ff" stroke="#63b8ff" points="1851.95,-128.85 1859.87,-135.89 1858.07,-125.45 1851.95,-128.85"/>
</g>
<!-- Node21 -->
<g id="node32" class="node">
<title>Node21</title>
<g id="a_node32"><a xlink:href="d__a__e__wb_8h.html" target="_top" xlink:title=" ">
<polygon fill="#fff0f0" stroke="red" points="1794,-90.5 1684,-90.5 1684,-60.5 1794,-60.5 1794,-90.5"/>
<text text-anchor="start" x="1692" y="-78.5" font-family="Helvetica,sans-Serif" font-size="10.00">include/rel/d/a/e/d</text>
<text text-anchor="middle" x="1739" y="-67.5" font-family="Helvetica,sans-Serif" font-size="10.00">_a_e_wb/d_a_e_wb.h</text>
</a>
</g>
</g>
<!-- Node214&#45;&gt;Node21 -->
<g id="edge35" class="edge">
<title>Node214&#45;&gt;Node21</title>
<path fill="none" stroke="#63b8ff" d="M1833.21,-131.27C1811.28,-118.52 1783.5,-102.37 1763.8,-90.92"/>
<polygon fill="#63b8ff" stroke="#63b8ff" points="1831.41,-134.28 1841.82,-136.28 1834.93,-128.23 1831.41,-134.28"/>
</g>
<!-- Node108 -->
<g id="node33" class="node">
<title>Node108</title>
<g id="a_node33"><a xlink:href="d__a__tag__hinit_8h.html" target="_top" xlink:title=" ">
<polygon fill="white" stroke="#666666" points="2111.5,-96 1996.5,-96 1996.5,-55 2111.5,-55 2111.5,-96"/>
<text text-anchor="start" x="2004.5" y="-84" font-family="Helvetica,sans-Serif" font-size="10.00">include/rel/d/a/tag</text>
<text text-anchor="start" x="2004.5" y="-73" font-family="Helvetica,sans-Serif" font-size="10.00">/d_a_tag_hinit/d_a_tag</text>
<text text-anchor="middle" x="2054" y="-62" font-family="Helvetica,sans-Serif" font-size="10.00">_hinit.h</text>
</a>
</g>
</g>
<!-- Node214&#45;&gt;Node108 -->
<g id="edge37" class="edge">
<title>Node214&#45;&gt;Node108</title>
<path fill="none" stroke="#63b8ff" d="M1914.37,-132.8C1941.82,-121.74 1976.57,-107.72 2004.54,-96.44"/>
<polygon fill="#63b8ff" stroke="#63b8ff" points="1913.23,-129.49 1905.27,-136.47 1915.85,-135.98 1913.23,-129.49"/>
</g>
<!-- Node134 -->
<g id="node34" class="node">
<title>Node134</title>
<g id="a_node34"><a xlink:href="d__bg__w_8cpp.html" target="_top" xlink:title=" ">
<polygon fill="white" stroke="#666666" points="2236.5,-85 2129.5,-85 2129.5,-66 2236.5,-66 2236.5,-85"/>
<text text-anchor="middle" x="2183" y="-73" font-family="Helvetica,sans-Serif" font-size="10.00">src/d/bg/d_bg_w.cpp</text>
</a>
</g>
</g>
<!-- Node214&#45;&gt;Node134 -->
<g id="edge39" class="edge">
<title>Node214&#45;&gt;Node134</title>
<path fill="none" stroke="#63b8ff" d="M1921.06,-133.85C1923.4,-133.2 1925.72,-132.58 1928,-132 2012.56,-110.47 2036.34,-117.13 2121,-96 2132.93,-93.02 2145.94,-89.04 2156.95,-85.46"/>
<polygon fill="#63b8ff" stroke="#63b8ff" points="1920.15,-130.47 1911.54,-136.64 1922.12,-137.19 1920.15,-130.47"/>
</g>
<!-- Node41 -->
<g id="node35" class="node">
<title>Node41</title>
<g id="a_node35"><a xlink:href="d__meter2_8cpp.html" target="_top" xlink:title=" ">
<polygon fill="white" stroke="#666666" points="1978,-85 1850,-85 1850,-66 1978,-66 1978,-85"/>
<text text-anchor="middle" x="1914" y="-73" font-family="Helvetica,sans-Serif" font-size="10.00">src/d/meter/d_meter2.cpp</text>
</a>
</g>
</g>
<!-- Node214&#45;&gt;Node41 -->
<g id="edge40" class="edge">
<title>Node214&#45;&gt;Node41</title>
<path fill="none" stroke="#63b8ff" d="M1882.88,-127.25C1891.69,-112.87 1902.33,-95.53 1908.61,-85.29"/>
<polygon fill="#63b8ff" stroke="#63b8ff" points="1879.91,-125.39 1877.66,-135.75 1885.87,-129.05 1879.91,-125.39"/>
</g>
<!-- Node21&#45;&gt;Node22 -->
<g id="edge36" class="edge">
<title>Node21&#45;&gt;Node22</title>
<path fill="none" stroke="#63b8ff" d="M1739,-49.09C1739,-38.56 1739,-27.03 1739,-19.34"/>
<polygon fill="#63b8ff" stroke="#63b8ff" points="1735.5,-48.78 1739,-58.78 1742.5,-48.78 1735.5,-48.78"/>
</g>
<!-- Node78&#45;&gt;Node22 -->
<g id="edge42" class="edge">
<title>Node78&#45;&gt;Node22</title>
<path fill="none" stroke="#63b8ff" d="M2064.5,-132.59C2065.34,-132.39 2066.17,-132.19 2067,-132 2151.29,-112.13 2304.5,-118.86 2246,-55 2215.9,-22.14 1918.35,-13.43 1793.6,-11.22"/>
<polygon fill="#63b8ff" stroke="#63b8ff" points="2063.81,-129.16 2054.94,-134.96 2065.48,-135.96 2063.81,-129.16"/>
</g>
<!-- Node64 -->
<g id="node37" class="node">
<title>Node64</title>
<g id="a_node37"><a xlink:href="d__com__static_8cpp.html" target="_top" xlink:title=" ">
<polygon fill="white" stroke="#666666" points="2433,-85 2293,-85 2293,-66 2433,-66 2433,-85"/>
<text text-anchor="middle" x="2363" y="-73" font-family="Helvetica,sans-Serif" font-size="10.00">src/d/com/d_com_static.cpp</text>
</a>
</g>
</g>
<!-- Node78&#45;&gt;Node64 -->
<g id="edge43" class="edge">
<title>Node78&#45;&gt;Node64</title>
<path fill="none" stroke="#63b8ff" d="M2064.5,-132.56C2065.34,-132.37 2066.17,-132.18 2067,-132 2160.34,-111.48 2185.3,-114.81 2279,-96 2294.71,-92.85 2311.96,-88.92 2326.72,-85.42"/>
<polygon fill="#63b8ff" stroke="#63b8ff" points="2063.83,-129.12 2054.91,-134.82 2065.44,-135.93 2063.83,-129.12"/>
</g>
<!-- Node79 -->
<g id="node38" class="node">
<title>Node79</title>
<g id="a_node38"><a xlink:href="d__save_8cpp.html" target="_top" xlink:title=" ">
<polygon fill="white" stroke="#666666" points="2566.5,-85 2451.5,-85 2451.5,-66 2566.5,-66 2566.5,-85"/>
<text text-anchor="middle" x="2509" y="-73" font-family="Helvetica,sans-Serif" font-size="10.00">src/d/save/d_save.cpp</text>
</a>
</g>
</g>
<!-- Node78&#45;&gt;Node79 -->
<g id="edge44" class="edge">
<title>Node78&#45;&gt;Node79</title>
<path fill="none" stroke="#63b8ff" d="M2064.48,-132.47C2065.32,-132.31 2066.16,-132.15 2067,-132 2231.72,-102.01 2277.56,-127.53 2442,-96 2455.56,-93.4 2470.33,-89.25 2482.55,-85.44"/>
<polygon fill="#63b8ff" stroke="#63b8ff" points="2063.91,-129.01 2054.84,-134.5 2065.35,-135.87 2063.91,-129.01"/>
</g>
<!-- Node220&#45;&gt;Node4 -->
<g id="edge51" class="edge">
<title>Node220&#45;&gt;Node4</title>
<path fill="none" stroke="#63b8ff" d="M324.02,-209.11C295,-195.2 251.24,-174.22 226.59,-162.41"/>
<polygon fill="#63b8ff" stroke="#63b8ff" points="322.45,-212.24 332.98,-213.4 325.47,-205.92 322.45,-212.24"/>
</g>
<!-- Node220&#45;&gt;Node219 -->
<g id="edge52" class="edge">
<title>Node220&#45;&gt;Node219</title>
<path fill="none" stroke="#63b8ff" d="M347.6,-203.26C344.51,-191.95 340.7,-178.02 337.9,-167.77"/>
<polygon fill="#63b8ff" stroke="#63b8ff" points="344.18,-204.01 350.19,-212.74 350.93,-202.17 344.18,-204.01"/>
</g>
<!-- Node222&#45;&gt;Node195 -->
<g id="edge55" class="edge">
<title>Node222&#45;&gt;Node195</title>
<path fill="none" stroke="#63b8ff" d="M1931.7,-211.36C1856.85,-197.6 1733.87,-174.99 1665.93,-162.5"/>
<polygon fill="#63b8ff" stroke="#63b8ff" points="1930.88,-214.77 1941.35,-213.14 1932.15,-207.88 1930.88,-214.77"/>
</g>
<!-- Node222&#45;&gt;Node200 -->
<g id="edge56" class="edge">
<title>Node222&#45;&gt;Node200</title>
<path fill="none" stroke="#63b8ff" d="M2058.33,-210.64C2107.03,-200.95 2175.93,-186.83 2236,-173 2250.11,-169.75 2265.6,-165.89 2278.96,-162.46"/>
<polygon fill="#63b8ff" stroke="#63b8ff" points="2057.94,-207.15 2048.81,-212.53 2059.3,-214.02 2057.94,-207.15"/>
</g>
<!-- Node222&#45;&gt;Node206 -->
<g id="edge57" class="edge">
<title>Node222&#45;&gt;Node206</title>
<path fill="none" stroke="#63b8ff" d="M1931.33,-222.76C1819.18,-221.25 1579.58,-213.11 1382,-173 1369.84,-170.53 1356.7,-166.35 1345.91,-162.48"/>
<polygon fill="#63b8ff" stroke="#63b8ff" points="1931.19,-226.26 1941.24,-222.88 1931.28,-219.26 1931.19,-226.26"/>
</g>
<!-- Node222&#45;&gt;Node210 -->
<g id="edge58" class="edge">
<title>Node222&#45;&gt;Node210</title>
<path fill="none" stroke="#63b8ff" d="M1931.44,-218.2C1844.79,-211.12 1684.93,-196.16 1550,-173 1541.59,-171.56 1532.76,-169.79 1524.11,-167.91"/>
<polygon fill="#63b8ff" stroke="#63b8ff" points="1930.9,-221.66 1941.15,-218.98 1931.46,-214.69 1930.9,-221.66"/>
</g>
<!-- Node222&#45;&gt;Node211 -->
<g id="edge59" class="edge">
<title>Node222&#45;&gt;Node211</title>
<path fill="none" stroke="#63b8ff" d="M2058.41,-218.49C2136.94,-212.09 2274.47,-198.27 2390,-173 2396.39,-171.6 2403.07,-169.84 2409.58,-167.94"/>
<polygon fill="#63b8ff" stroke="#63b8ff" points="2058.46,-214.97 2048.77,-219.26 2059.02,-221.95 2058.46,-214.97"/>
</g>
<!-- Node222&#45;&gt;Node213 -->
<g id="edge60" class="edge">
<title>Node222&#45;&gt;Node213</title>
<path fill="none" stroke="#63b8ff" d="M2041.37,-204.37C2069.89,-192.91 2105.88,-178.45 2132.2,-167.88"/>
<polygon fill="#63b8ff" stroke="#63b8ff" points="2040.22,-201.06 2032.25,-208.04 2042.83,-207.56 2040.22,-201.06"/>
</g>
<!-- Node222&#45;&gt;Node214 -->
<g id="edge61" class="edge">
<title>Node222&#45;&gt;Node214</title>
<path fill="none" stroke="#63b8ff" d="M1958.72,-203.15C1938.17,-191.9 1912.92,-178.08 1894.28,-167.88"/>
<polygon fill="#63b8ff" stroke="#63b8ff" points="1956.91,-206.14 1967.36,-207.87 1960.27,-200 1956.91,-206.14"/>
</g>
<!-- Node222&#45;&gt;Node78 -->
<g id="edge62" class="edge">
<title>Node222&#45;&gt;Node78</title>
<path fill="none" stroke="#63b8ff" d="M1995,-197.36C1995,-189.45 1995,-180.87 1995,-173.42"/>
<polygon fill="#63b8ff" stroke="#63b8ff" points="1991.5,-197.09 1995,-207.09 1998.5,-197.09 1991.5,-197.09"/>
</g>
<!-- Node223 -->
<g id="node47" class="node">
<title>Node223</title>
<g id="a_node47"><a xlink:href="d__a__obj__suisya_8h.html" target="_top" xlink:title=" ">
<polygon fill="white" stroke="#666666" points="2777.5,-173 2672.5,-173 2672.5,-132 2777.5,-132 2777.5,-173"/>
<text text-anchor="start" x="2680.5" y="-161" font-family="Helvetica,sans-Serif" font-size="10.00">include/rel/d/a/obj</text>
<text text-anchor="start" x="2680.5" y="-150" font-family="Helvetica,sans-Serif" font-size="10.00">/d_a_obj_suisya/d_a</text>
<text text-anchor="middle" x="2725" y="-139" font-family="Helvetica,sans-Serif" font-size="10.00">_obj_suisya.h</text>
</a>
</g>
</g>
<!-- Node222&#45;&gt;Node223 -->
<g id="edge63" class="edge">
<title>Node222&#45;&gt;Node223</title>
<path fill="none" stroke="#63b8ff" d="M2058.63,-223.19C2178.32,-222.45 2444.65,-215.64 2664,-173 2666.73,-172.47 2669.51,-171.86 2672.3,-171.18"/>
<polygon fill="#63b8ff" stroke="#63b8ff" points="2058.67,-219.69 2048.68,-223.23 2058.7,-226.69 2058.67,-219.69"/>
</g>
<!-- Node224 -->
<g id="node48" class="node">
<title>Node224</title>
<g id="a_node48"><a xlink:href="d__bg__s__acch_8cpp.html" target="_top" xlink:title=" ">
<polygon fill="white" stroke="#666666" points="2654.5,-162 2523.5,-162 2523.5,-143 2654.5,-143 2654.5,-162"/>
<text text-anchor="middle" x="2589" y="-150" font-family="Helvetica,sans-Serif" font-size="10.00">src/d/bg/d_bg_s_acch.cpp</text>
</a>
</g>
</g>
<!-- Node222&#45;&gt;Node224 -->
<g id="edge64" class="edge">
<title>Node222&#45;&gt;Node224</title>
<path fill="none" stroke="#63b8ff" d="M2058.51,-220.13C2156.78,-214.95 2351.31,-201.8 2514,-173 2528.97,-170.35 2545.34,-166.24 2558.95,-162.48"/>
<polygon fill="#63b8ff" stroke="#63b8ff" points="2058.62,-216.61 2048.81,-220.62 2058.98,-223.61 2058.62,-216.61"/>
</g>
</g>
</svg>
