<?xml version="1.0" encoding="UTF-8" standalone="no"?>
<!DOCTYPE svg PUBLIC "-//W3C//DTD SVG 1.1//EN"
 "http://www.w3.org/Graphics/SVG/1.1/DTD/svg11.dtd">
<!-- Generated by graphviz version 7.0.5 (20221223.1930)
 -->
<!-- Title: include/SSystem/SComponent/c_sxyz.h Pages: 1 -->
<!--zoomable 247 -->
<svg id="main" version="1.1" xmlns="http://www.w3.org/2000/svg" xmlns:xlink="http://www.w3.org/1999/xlink" xml:space="preserve" onload="init(evt)">
<style type="text/css"><![CDATA[
.edge:hover path { stroke: red; }
.edge:hover polygon { stroke: red; fill: red; }
]]></style>
<script type="text/javascript"><![CDATA[
var edges = document.getElementsByTagName('g');
if (edges && edges.length) {
  for (var i=0;i<edges.length;i++) {
    if (edges[i].id.substr(0,4)=='edge') {
      edges[i].setAttribute('class','edge');
    }
  }
}
]]></script>
        <defs>
                <circle id="rim" cx="0" cy="0" r="7"/>
                <circle id="rim2" cx="0" cy="0" r="3.5"/>
                <g id="zoomPlus">
                        <use xlink:href="#rim" fill="#404040">
                                <set attributeName="fill" to="#808080" begin="zoomplus.mouseover" end="zoomplus.mouseout"/>
                        </use>
                        <path d="M-4,0h8M0,-4v8" fill="none" stroke="white" stroke-width="1.5" pointer-events="none"/>
                </g>
                <g id="zoomMin">
                        <use xlink:href="#rim" fill="#404040">
                                <set attributeName="fill" to="#808080" begin="zoomminus.mouseover" end="zoomminus.mouseout"/>
                        </use>
                        <path d="M-4,0h8" fill="none" stroke="white" stroke-width="1.5" pointer-events="none"/>
                </g>
                <g id="dirArrow">
                        <path fill="none" stroke="white" stroke-width="1.5" d="M0,-3.0v7 M-2.5,-0.5L0,-3.0L2.5,-0.5"/>
                </g>
               <g id="resetDef">
                       <use xlink:href="#rim2" fill="#404040">
                               <set attributeName="fill" to="#808080" begin="reset.mouseover" end="reset.mouseout"/>
                       </use>
               </g>
        </defs>

<script type="text/javascript">
var viewWidth = 4762;
var viewHeight = 247;
var sectionId = 'dynsection-1';
</script>
<script xlink:href="svgpan.js"/>
<svg id="graph" class="graph">
<g id="viewport">
<title>include/SSystem/SComponent/c_sxyz.h</title>
<!-- Node1 -->
<g id="node1" class="node">
<title>Node1</title>
<g id="a_node1"><a xlink:title=" ">
<polygon fill="#999999" stroke="#666666" points="2083,-239 1934,-239 1934,-209 2083,-209 2083,-239"/>
<text text-anchor="start" x="1942" y="-227" font-family="Helvetica,sans-Serif" font-size="10.00">include/SSystem/SComponent</text>
<text text-anchor="middle" x="2008.5" y="-216" font-family="Helvetica,sans-Serif" font-size="10.00">/c_sxyz.h</text>
</a>
</g>
</g>
<!-- Node2 -->
<g id="node2" class="node">
<title>Node2</title>
<g id="a_node2"><a xlink:href="d__bg__w_8h.html" target="_top" xlink:title=" ">
<polygon fill="white" stroke="#666666" points="609,-167.5 496,-167.5 496,-148.5 609,-148.5 609,-167.5"/>
<text text-anchor="middle" x="552.5" y="-155.5" font-family="Helvetica,sans-Serif" font-size="10.00">include/d/bg/d_bg_w.h</text>
</a>
</g>
</g>
<!-- Node1&#45;&gt;Node2 -->
<g id="edge1" class="edge">
<title>Node1&#45;&gt;Node2</title>
<path fill="none" stroke="#63b8ff" d="M1922.28,-219.21C1653.06,-207.38 832.71,-171.32 609.24,-161.49"/>
<polygon fill="#63b8ff" stroke="#63b8ff" points="1921.88,-222.7 1932.03,-219.64 1922.19,-215.7 1921.88,-222.7"/>
</g>
<!-- Node11 -->
<g id="node10" class="node">
<title>Node11</title>
<g id="a_node10"><a xlink:href="d__demo_8h.html" target="_top" xlink:title=" ">
<polygon fill="white" stroke="#666666" points="1065,-96 964,-96 964,-77 1065,-77 1065,-96"/>
<text text-anchor="middle" x="1014.5" y="-84" font-family="Helvetica,sans-Serif" font-size="10.00">include/d/d_demo.h</text>
</a>
</g>
</g>
<!-- Node1&#45;&gt;Node11 -->
<g id="edge9" class="edge">
<title>Node1&#45;&gt;Node11</title>
<path fill="none" stroke="#63b8ff" d="M1922.17,-221.63C1742.92,-218.14 1335.91,-206.66 1201.5,-173 1133.28,-155.92 1059.32,-114.49 1028.85,-96.31"/>
<polygon fill="#63b8ff" stroke="#63b8ff" points="1922.07,-225.13 1932.13,-221.82 1922.2,-218.13 1922.07,-225.13"/>
</g>
<!-- Node19 -->
<g id="node18" class="node">
<title>Node19</title>
<g id="a_node18"><a xlink:href="d__jnt__col_8h.html" target="_top" xlink:title=" ">
<polygon fill="white" stroke="#666666" points="1746,-167.5 1641,-167.5 1641,-148.5 1746,-148.5 1746,-167.5"/>
<text text-anchor="middle" x="1693.5" y="-155.5" font-family="Helvetica,sans-Serif" font-size="10.00">include/d/d_jnt_col.h</text>
</a>
</g>
</g>
<!-- Node1&#45;&gt;Node19 -->
<g id="edge17" class="edge">
<title>Node1&#45;&gt;Node19</title>
<path fill="none" stroke="#63b8ff" d="M1926.39,-206.32C1866.05,-194.06 1786.39,-177.87 1737.61,-167.96"/>
<polygon fill="#63b8ff" stroke="#63b8ff" points="1925.44,-209.69 1935.93,-208.26 1926.83,-202.83 1925.44,-209.69"/>
</g>
<!-- Node31 -->
<g id="node24" class="node">
<title>Node31</title>
<g id="a_node24"><a xlink:href="d__kankyo__wether_8h.html" target="_top" xlink:title=" ">
<polygon fill="white" stroke="#666666" points="4493.5,-173 4395.5,-173 4395.5,-143 4493.5,-143 4493.5,-173"/>
<text text-anchor="start" x="4403.5" y="-161" font-family="Helvetica,sans-Serif" font-size="10.00">include/d/kankyo/d</text>
<text text-anchor="middle" x="4444.5" y="-150" font-family="Helvetica,sans-Serif" font-size="10.00">_kankyo_wether.h</text>
</a>
</g>
</g>
<!-- Node1&#45;&gt;Node31 -->
<g id="edge26" class="edge">
<title>Node1&#45;&gt;Node31</title>
<path fill="none" stroke="#63b8ff" d="M2094.76,-220.85C2366.97,-214.06 3232.15,-192.34 3948.5,-173 4112.12,-168.58 4306.08,-163.01 4395.22,-160.43"/>
<polygon fill="#63b8ff" stroke="#63b8ff" points="2094.83,-217.35 2084.92,-221.1 2095,-224.35 2094.83,-217.35"/>
</g>
<!-- Node324 -->
<g id="node29" class="node">
<title>Node324</title>
<g id="a_node29"><a xlink:href="d__meter__HIO_8h.html" target="_top" xlink:title=" ">
<polygon fill="white" stroke="#666666" points="2469.5,-173 2347.5,-173 2347.5,-143 2469.5,-143 2469.5,-173"/>
<text text-anchor="start" x="2355.5" y="-161" font-family="Helvetica,sans-Serif" font-size="10.00">include/d/meter/d_meter</text>
<text text-anchor="middle" x="2408.5" y="-150" font-family="Helvetica,sans-Serif" font-size="10.00">_HIO.h</text>
</a>
</g>
</g>
<!-- Node1&#45;&gt;Node324 -->
<g id="edge32" class="edge">
<title>Node1&#45;&gt;Node324</title>
<path fill="none" stroke="#63b8ff" d="M2094.24,-209.28C2170.32,-197.11 2279.59,-179.63 2347.19,-168.81"/>
<polygon fill="#63b8ff" stroke="#63b8ff" points="2094.08,-205.76 2084.76,-210.8 2095.19,-212.67 2094.08,-205.76"/>
</g>
<!-- Node326 -->
<g id="node43" class="node">
<title>Node326</title>
<g id="a_node43"><a xlink:href="d__particle__copoly_8h.html" target="_top" xlink:title=" ">
<polygon fill="#fff0f0" stroke="red" points="3939.5,-173 3837.5,-173 3837.5,-143 3939.5,-143 3939.5,-173"/>
<text text-anchor="start" x="3845.5" y="-161" font-family="Helvetica,sans-Serif" font-size="10.00">include/d/particle</text>
<text text-anchor="middle" x="3888.5" y="-150" font-family="Helvetica,sans-Serif" font-size="10.00">/d_particle_copoly.h</text>
</a>
</g>
</g>
<!-- Node1&#45;&gt;Node326 -->
<g id="edge48" class="edge">
<title>Node1&#45;&gt;Node326</title>
<path fill="none" stroke="#63b8ff" d="M2094.63,-220.07C2421.32,-208.95 3578.6,-169.55 3837.06,-160.75"/>
<polygon fill="#63b8ff" stroke="#63b8ff" points="2094.75,-216.56 2084.87,-220.4 2094.98,-223.56 2094.75,-216.56"/>
</g>
<!-- Node328 -->
<g id="node49" class="node">
<title>Node328</title>
<g id="a_node49"><a xlink:href="m__Do__mtx_8h.html" target="_top" xlink:title=" ">
<polygon fill="#fff0f0" stroke="red" points="1344,-167.5 1211,-167.5 1211,-148.5 1344,-148.5 1344,-167.5"/>
<text text-anchor="middle" x="1277.5" y="-155.5" font-family="Helvetica,sans-Serif" font-size="10.00">include/m_Do/m_Do_mtx.h</text>
</a>
</g>
</g>
<!-- Node1&#45;&gt;Node328 -->
<g id="edge55" class="edge">
<title>Node1&#45;&gt;Node328</title>
<path fill="none" stroke="#63b8ff" d="M1922.5,-215.47C1775.17,-202.57 1477.54,-176.51 1344.45,-164.86"/>
<polygon fill="#63b8ff" stroke="#63b8ff" points="1921.93,-218.93 1932.2,-216.32 1922.54,-211.96 1921.93,-218.93"/>
</g>
<!-- Node374 -->
<g id="node50" class="node">
<title>Node374</title>
<g id="a_node50"><a xlink:href="c__sxyz_8cpp.html" target="_top" xlink:title=" ">
<polygon fill="white" stroke="#666666" points="4645.5,-173 4511.5,-173 4511.5,-143 4645.5,-143 4645.5,-173"/>
<text text-anchor="start" x="4519.5" y="-161" font-family="Helvetica,sans-Serif" font-size="10.00">libs/SSystem/SComponent</text>
<text text-anchor="middle" x="4578.5" y="-150" font-family="Helvetica,sans-Serif" font-size="10.00">/c_sxyz.cpp</text>
</a>
</g>
</g>
<!-- Node1&#45;&gt;Node374 -->
<g id="edge60" class="edge">
<title>Node1&#45;&gt;Node374</title>
<path fill="none" stroke="#63b8ff" d="M2094.7,-223.15C2476.87,-223.52 4020.63,-221.89 4502.5,-173 4505.3,-172.72 4508.16,-172.38 4511.04,-172.01"/>
<polygon fill="#63b8ff" stroke="#63b8ff" points="2094.98,-219.65 2084.98,-223.14 2094.97,-226.65 2094.98,-219.65"/>
</g>
<!-- Node3 -->
<g id="node3" class="node">
<title>Node3</title>
<g id="a_node3"><a xlink:href="d__bg__w__sv_8h.html" target="_top" xlink:title=" ">
<polygon fill="#fff0f0" stroke="red" points="129,-96 0,-96 0,-77 129,-77 129,-96"/>
<text text-anchor="middle" x="64.5" y="-84" font-family="Helvetica,sans-Serif" font-size="10.00">include/d/bg/d_bg_w_sv.h</text>
</a>
</g>
</g>
<!-- Node2&#45;&gt;Node3 -->
<g id="edge2" class="edge">
<title>Node2&#45;&gt;Node3</title>
<path fill="none" stroke="#63b8ff" d="M484.31,-151.66C401.89,-144.54 259.22,-130.08 138.5,-107 123.88,-104.21 107.89,-100.12 94.53,-96.42"/>
<polygon fill="#63b8ff" stroke="#63b8ff" points="483.76,-155.12 494.03,-152.49 484.36,-148.15 483.76,-155.12"/>
</g>
<!-- Node5 -->
<g id="node4" class="node">
<title>Node5</title>
<g id="a_node4"><a xlink:href="d__a__b__zant__sima_8h.html" target="_top" xlink:title=" ">
<polygon fill="white" stroke="#666666" points="263.5,-107 147.5,-107 147.5,-66 263.5,-66 263.5,-107"/>
<text text-anchor="start" x="155.5" y="-95" font-family="Helvetica,sans-Serif" font-size="10.00">include/rel/d/a/b/d</text>
<text text-anchor="start" x="155.5" y="-84" font-family="Helvetica,sans-Serif" font-size="10.00">_a_b_zant_sima/d_a_b</text>
<text text-anchor="middle" x="205.5" y="-73" font-family="Helvetica,sans-Serif" font-size="10.00">_zant_sima.h</text>
</a>
</g>
</g>
<!-- Node2&#45;&gt;Node5 -->
<g id="edge3" class="edge">
<title>Node2&#45;&gt;Node5</title>
<path fill="none" stroke="#63b8ff" d="M484.53,-146.94C427.57,-138.01 344.28,-123.8 272.5,-107 269.67,-106.34 266.78,-105.63 263.87,-104.89"/>
<polygon fill="#63b8ff" stroke="#63b8ff" points="483.65,-150.34 494.06,-148.42 484.72,-143.43 483.65,-150.34"/>
</g>
<!-- Node6 -->
<g id="node5" class="node">
<title>Node6</title>
<g id="a_node5"><a xlink:href="d__a__bg__obj_8h.html" target="_top" xlink:title=" ">
<polygon fill="white" stroke="#666666" points="391.5,-101.5 281.5,-101.5 281.5,-71.5 391.5,-71.5 391.5,-101.5"/>
<text text-anchor="start" x="289.5" y="-89.5" font-family="Helvetica,sans-Serif" font-size="10.00">include/rel/d/a/d_a</text>
<text text-anchor="middle" x="336.5" y="-78.5" font-family="Helvetica,sans-Serif" font-size="10.00">_bg_obj/d_a_bg_obj.h</text>
</a>
</g>
</g>
<!-- Node2&#45;&gt;Node6 -->
<g id="edge4" class="edge">
<title>Node2&#45;&gt;Node6</title>
<path fill="none" stroke="#63b8ff" d="M513.83,-144.56C476.68,-132.61 420.6,-114.56 381.48,-101.97"/>
<polygon fill="#63b8ff" stroke="#63b8ff" points="512.67,-147.86 523.26,-147.59 514.82,-141.2 512.67,-147.86"/>
</g>
<!-- Node7 -->
<g id="node6" class="node">
<title>Node7</title>
<g id="a_node6"><a xlink:href="d__a__obj__mirror__sand_8h.html" target="_top" xlink:title=" ">
<polygon fill="white" stroke="#666666" points="553,-107 410,-107 410,-66 553,-66 553,-107"/>
<text text-anchor="start" x="418" y="-95" font-family="Helvetica,sans-Serif" font-size="10.00">include/rel/d/a/obj</text>
<text text-anchor="start" x="418" y="-84" font-family="Helvetica,sans-Serif" font-size="10.00">/mirror/d_a_obj_mirror</text>
<text text-anchor="middle" x="481.5" y="-73" font-family="Helvetica,sans-Serif" font-size="10.00">_sand/d_a_obj_mirror_sand.h</text>
</a>
</g>
</g>
<!-- Node2&#45;&gt;Node7 -->
<g id="edge5" class="edge">
<title>Node2&#45;&gt;Node7</title>
<path fill="none" stroke="#63b8ff" d="M535.44,-140.3C525.3,-130.37 512.37,-117.72 501.72,-107.29"/>
<polygon fill="#63b8ff" stroke="#63b8ff" points="532.83,-142.64 542.43,-147.14 537.73,-137.64 532.83,-142.64"/>
</g>
<!-- Node8 -->
<g id="node7" class="node">
<title>Node8</title>
<g id="a_node7"><a xlink:href="d__bg__s_8cpp.html" target="_top" xlink:title=" ">
<polygon fill="white" stroke="#666666" points="675.5,-96 571.5,-96 571.5,-77 675.5,-77 675.5,-96"/>
<text text-anchor="middle" x="623.5" y="-84" font-family="Helvetica,sans-Serif" font-size="10.00">src/d/bg/d_bg_s.cpp</text>
</a>
</g>
</g>
<!-- Node2&#45;&gt;Node8 -->
<g id="edge6" class="edge">
<title>Node2&#45;&gt;Node8</title>
<path fill="none" stroke="#63b8ff" d="M569.44,-140.42C583.53,-126.63 603.04,-107.53 614.36,-96.45"/>
<polygon fill="#63b8ff" stroke="#63b8ff" points="567.27,-137.64 562.57,-147.14 572.17,-142.64 567.27,-137.64"/>
</g>
<!-- Node9 -->
<g id="node8" class="node">
<title>Node9</title>
<g id="a_node8"><a xlink:href="d__bg__s__movebg__actor_8cpp.html" target="_top" xlink:title=" ">
<polygon fill="white" stroke="#666666" points="945.5,-101.5 819.5,-101.5 819.5,-71.5 945.5,-71.5 945.5,-101.5"/>
<text text-anchor="start" x="827.5" y="-89.5" font-family="Helvetica,sans-Serif" font-size="10.00">src/d/bg/d_bg_s_movebg</text>
<text text-anchor="middle" x="882.5" y="-78.5" font-family="Helvetica,sans-Serif" font-size="10.00">_actor.cpp</text>
</a>
</g>
</g>
<!-- Node2&#45;&gt;Node9 -->
<g id="edge7" class="edge">
<title>Node2&#45;&gt;Node9</title>
<path fill="none" stroke="#63b8ff" d="M615.01,-146.08C667.21,-136.67 743.48,-122.22 809.5,-107 816.15,-105.47 823.11,-103.75 829.97,-101.99"/>
<polygon fill="#63b8ff" stroke="#63b8ff" points="614.63,-142.59 605.41,-147.81 615.87,-149.48 614.63,-142.59"/>
</g>
<!-- Node10 -->
<g id="node9" class="node">
<title>Node10</title>
<g id="a_node9"><a xlink:href="d__bg__w_8cpp.html" target="_top" xlink:title=" ">
<polygon fill="white" stroke="#666666" points="801,-96 694,-96 694,-77 801,-77 801,-96"/>
<text text-anchor="middle" x="747.5" y="-84" font-family="Helvetica,sans-Serif" font-size="10.00">src/d/bg/d_bg_w.cpp</text>
</a>
</g>
</g>
<!-- Node2&#45;&gt;Node10 -->
<g id="edge8" class="edge">
<title>Node2&#45;&gt;Node10</title>
<path fill="none" stroke="#63b8ff" d="M588.43,-144.19C627.36,-130.32 688.48,-108.54 722.5,-96.41"/>
<polygon fill="#63b8ff" stroke="#63b8ff" points="587.26,-140.89 579.02,-147.55 589.61,-147.49 587.26,-140.89"/>
</g>
<!-- Node12 -->
<g id="node11" class="node">
<title>Node12</title>
<g id="a_node11"><a xlink:href="Z2WolfHowlMgr_8cpp.html" target="_top" xlink:title=" ">
<polygon fill="white" stroke="#666666" points="1084.5,-30 944.5,-30 944.5,0 1084.5,0 1084.5,-30"/>
<text text-anchor="start" x="952.5" y="-18" font-family="Helvetica,sans-Serif" font-size="10.00">libs/Z2AudioLib/Z2WolfHowl</text>
<text text-anchor="middle" x="1014.5" y="-7" font-family="Helvetica,sans-Serif" font-size="10.00">Mgr.cpp</text>
</a>
</g>
</g>
<!-- Node11&#45;&gt;Node12 -->
<g id="edge10" class="edge">
<title>Node11&#45;&gt;Node12</title>
<path fill="none" stroke="#63b8ff" d="M1014.5,-65.39C1014.5,-54.15 1014.5,-40.41 1014.5,-30.27"/>
<polygon fill="#63b8ff" stroke="#63b8ff" points="1011,-65.18 1014.5,-75.18 1018,-65.18 1011,-65.18"/>
</g>
<!-- Node13 -->
<g id="node12" class="node">
<title>Node13</title>
<g id="a_node12"><a xlink:href="d__com__static_8cpp.html" target="_top" xlink:title=" ">
<polygon fill="white" stroke="#666666" points="1495.5,-24.5 1355.5,-24.5 1355.5,-5.5 1495.5,-5.5 1495.5,-24.5"/>
<text text-anchor="middle" x="1425.5" y="-12.5" font-family="Helvetica,sans-Serif" font-size="10.00">src/d/com/d_com_static.cpp</text>
</a>
</g>
</g>
<!-- Node11&#45;&gt;Node13 -->
<g id="edge11" class="edge">
<title>Node11&#45;&gt;Node13</title>
<path fill="none" stroke="#63b8ff" d="M1049.43,-73.03C1057.58,-70.43 1066.28,-67.91 1074.5,-66 1170.59,-43.72 1283.92,-29.74 1355.25,-22.4"/>
<polygon fill="#63b8ff" stroke="#63b8ff" points="1048.58,-69.62 1040.19,-76.09 1050.78,-76.26 1048.58,-69.62"/>
</g>
<!-- Node14 -->
<g id="node13" class="node">
<title>Node14</title>
<g id="a_node13"><a xlink:href="d__demo_8cpp.html" target="_top" xlink:title=" ">
<polygon fill="white" stroke="#666666" points="1196.5,-24.5 1102.5,-24.5 1102.5,-5.5 1196.5,-5.5 1196.5,-24.5"/>
<text text-anchor="middle" x="1149.5" y="-12.5" font-family="Helvetica,sans-Serif" font-size="10.00">src/d/d_demo.cpp</text>
</a>
</g>
</g>
<!-- Node11&#45;&gt;Node14 -->
<g id="edge12" class="edge">
<title>Node11&#45;&gt;Node14</title>
<path fill="none" stroke="#63b8ff" d="M1041.84,-71.42C1068.85,-57.52 1109.34,-36.67 1132.19,-24.91"/>
<polygon fill="#63b8ff" stroke="#63b8ff" points="1040.51,-68.17 1033.22,-75.86 1043.71,-74.4 1040.51,-68.17"/>
</g>
<!-- Node15 -->
<g id="node14" class="node">
<title>Node15</title>
<g id="a_node14"><a xlink:href="d__event_8cpp.html" target="_top" xlink:title=" ">
<polygon fill="white" stroke="#666666" points="2371,-24.5 2250,-24.5 2250,-5.5 2371,-5.5 2371,-24.5"/>
<text text-anchor="middle" x="2310.5" y="-12.5" font-family="Helvetica,sans-Serif" font-size="10.00">src/d/event/d_event.cpp</text>
</a>
</g>
</g>
<!-- Node11&#45;&gt;Node15 -->
<g id="edge13" class="edge">
<title>Node11&#45;&gt;Node15</title>
<path fill="none" stroke="#63b8ff" d="M1047.71,-72.92C1056.32,-70.16 1065.65,-67.59 1074.5,-66 1190.57,-45.2 2017.19,-23.29 2249.76,-17.48"/>
<polygon fill="#63b8ff" stroke="#63b8ff" points="1046.69,-69.57 1038.35,-76.11 1048.95,-76.2 1046.69,-69.57"/>
</g>
<!-- Node16 -->
<g id="node15" class="node">
<title>Node16</title>
<g id="a_node15"><a xlink:href="d__meter2_8cpp.html" target="_top" xlink:title=" ">
<polygon fill="white" stroke="#666666" points="1739.5,-24.5 1611.5,-24.5 1611.5,-5.5 1739.5,-5.5 1739.5,-24.5"/>
<text text-anchor="middle" x="1675.5" y="-12.5" font-family="Helvetica,sans-Serif" font-size="10.00">src/d/meter/d_meter2.cpp</text>
</a>
</g>
</g>
<!-- Node11&#45;&gt;Node16 -->
<g id="edge14" class="edge">
<title>Node11&#45;&gt;Node16</title>
<path fill="none" stroke="#63b8ff" d="M1048.7,-72.88C1057.04,-70.22 1066.01,-67.71 1074.5,-66 1077.77,-65.34 1456.54,-34.06 1611.02,-21.32"/>
<polygon fill="#63b8ff" stroke="#63b8ff" points="1047.62,-69.55 1039.25,-76.05 1049.85,-76.19 1047.62,-69.55"/>
</g>
<!-- Node17 -->
<g id="node16" class="node">
<title>Node17</title>
<g id="a_node16"><a xlink:href="d__s__play_8cpp.html" target="_top" xlink:title=" ">
<polygon fill="white" stroke="#666666" points="926.5,-24.5 820.5,-24.5 820.5,-5.5 926.5,-5.5 926.5,-24.5"/>
<text text-anchor="middle" x="873.5" y="-12.5" font-family="Helvetica,sans-Serif" font-size="10.00">src/d/s/d_s_play.cpp</text>
</a>
</g>
</g>
<!-- Node11&#45;&gt;Node17 -->
<g id="edge15" class="edge">
<title>Node11&#45;&gt;Node17</title>
<path fill="none" stroke="#63b8ff" d="M986.31,-71.61C958.1,-57.7 915.55,-36.72 891.57,-24.91"/>
<polygon fill="#63b8ff" stroke="#63b8ff" points="984.48,-74.61 995,-75.89 987.58,-68.33 984.48,-74.61"/>
</g>
<!-- Node18 -->
<g id="node17" class="node">
<title>Node18</title>
<g id="a_node17"><a xlink:href="f__op__actor_8cpp.html" target="_top" xlink:title=" ">
<polygon fill="white" stroke="#666666" points="3114,-24.5 2995,-24.5 2995,-5.5 3114,-5.5 3114,-24.5"/>
<text text-anchor="middle" x="3054.5" y="-12.5" font-family="Helvetica,sans-Serif" font-size="10.00">src/f_op/f_op_actor.cpp</text>
</a>
</g>
</g>
<!-- Node11&#45;&gt;Node18 -->
<g id="edge16" class="edge">
<title>Node11&#45;&gt;Node18</title>
<path fill="none" stroke="#63b8ff" d="M1047.69,-72.83C1056.3,-70.07 1065.64,-67.52 1074.5,-66 1123.01,-57.69 2669.1,-24.24 2994.69,-17.27"/>
<polygon fill="#63b8ff" stroke="#63b8ff" points="1046.67,-69.48 1038.34,-76.02 1048.93,-76.1 1046.67,-69.48"/>
</g>
<!-- Node20 -->
<g id="node19" class="node">
<title>Node20</title>
<g id="a_node19"><a xlink:href="d__a__alink_8h.html" target="_top" xlink:title=" ">
<polygon fill="#fff0f0" stroke="red" points="3359.5,-96 3243.5,-96 3243.5,-77 3359.5,-77 3359.5,-96"/>
<text text-anchor="middle" x="3301.5" y="-84" font-family="Helvetica,sans-Serif" font-size="10.00">include/d/a/d_a_alink.h</text>
</a>
</g>
</g>
<!-- Node19&#45;&gt;Node20 -->
<g id="edge18" class="edge">
<title>Node19&#45;&gt;Node20</title>
<path fill="none" stroke="#63b8ff" d="M1757.52,-155.36C2039.45,-148.1 3159.62,-118.61 3233.5,-107 3247.82,-104.75 3263.38,-100.43 3276,-96.43"/>
<polygon fill="#63b8ff" stroke="#63b8ff" points="1757.71,-151.86 1747.8,-155.61 1757.89,-158.85 1757.71,-151.86"/>
</g>
<!-- Node27 -->
<g id="node21" class="node">
<title>Node27</title>
<g id="a_node21"><a xlink:href="d__a__obj__carry_8h.html" target="_top" xlink:title=" ">
<polygon fill="#fff0f0" stroke="red" points="1623.5,-107 1507.5,-107 1507.5,-66 1623.5,-66 1623.5,-107"/>
<text text-anchor="start" x="1515.5" y="-95" font-family="Helvetica,sans-Serif" font-size="10.00">include/rel/d/a/obj</text>
<text text-anchor="start" x="1515.5" y="-84" font-family="Helvetica,sans-Serif" font-size="10.00">/d_a_obj_carry/d_a_obj</text>
<text text-anchor="middle" x="1565.5" y="-73" font-family="Helvetica,sans-Serif" font-size="10.00">_carry.h</text>
</a>
</g>
</g>
<!-- Node19&#45;&gt;Node27 -->
<g id="edge22" class="edge">
<title>Node19&#45;&gt;Node27</title>
<path fill="none" stroke="#63b8ff" d="M1667.13,-142.68C1648.41,-132.52 1623.04,-118.74 1602.33,-107.5"/>
<polygon fill="#63b8ff" stroke="#63b8ff" points="1665.24,-145.64 1675.7,-147.33 1668.58,-139.49 1665.24,-145.64"/>
</g>
<!-- Node29 -->
<g id="node22" class="node">
<title>Node29</title>
<g id="a_node22"><a xlink:href="d__cc__s_8cpp.html" target="_top" xlink:title=" ">
<polygon fill="white" stroke="#666666" points="1745.5,-96 1641.5,-96 1641.5,-77 1745.5,-77 1745.5,-96"/>
<text text-anchor="middle" x="1693.5" y="-84" font-family="Helvetica,sans-Serif" font-size="10.00">src/d/cc/d_cc_s.cpp</text>
</a>
</g>
</g>
<!-- Node19&#45;&gt;Node29 -->
<g id="edge24" class="edge">
<title>Node19&#45;&gt;Node29</title>
<path fill="none" stroke="#63b8ff" d="M1693.5,-136.8C1693.5,-123.44 1693.5,-106.59 1693.5,-96.45"/>
<polygon fill="#63b8ff" stroke="#63b8ff" points="1690,-136.68 1693.5,-146.68 1697,-136.68 1690,-136.68"/>
</g>
<!-- Node30 -->
<g id="node23" class="node">
<title>Node30</title>
<g id="a_node23"><a xlink:href="d__jnt__col_8cpp.html" target="_top" xlink:title=" ">
<polygon fill="white" stroke="#666666" points="1181.5,-96 1083.5,-96 1083.5,-77 1181.5,-77 1181.5,-96"/>
<text text-anchor="middle" x="1132.5" y="-84" font-family="Helvetica,sans-Serif" font-size="10.00">src/d/d_jnt_col.cpp</text>
</a>
</g>
</g>
<!-- Node19&#45;&gt;Node30 -->
<g id="edge25" class="edge">
<title>Node19&#45;&gt;Node30</title>
<path fill="none" stroke="#63b8ff" d="M1629.48,-155.24C1533.22,-151.57 1345.91,-140.4 1190.5,-107 1178.66,-104.46 1165.86,-100.31 1155.31,-96.49"/>
<polygon fill="#63b8ff" stroke="#63b8ff" points="1629.13,-158.73 1639.25,-155.6 1629.38,-151.74 1629.13,-158.73"/>
</g>
<!-- Node20&#45;&gt;Node15 -->
<g id="edge19" class="edge">
<title>Node20&#45;&gt;Node15</title>
<path fill="none" stroke="#63b8ff" d="M3264.54,-73.27C3254.56,-70.42 3243.71,-67.72 3233.5,-66 3066.74,-37.94 2549.01,-22.19 2371.19,-17.5"/>
<polygon fill="#63b8ff" stroke="#63b8ff" points="3263.3,-76.55 3273.89,-76.07 3265.31,-69.85 3263.3,-76.55"/>
</g>
<!-- Node20&#45;&gt;Node18 -->
<g id="edge21" class="edge">
<title>Node20&#45;&gt;Node18</title>
<path fill="none" stroke="#63b8ff" d="M3259.41,-73.38C3250.84,-70.93 3241.88,-68.37 3233.5,-66 3182.27,-51.5 3122.72,-34.92 3086.86,-24.97"/>
<polygon fill="#63b8ff" stroke="#63b8ff" points="3258.34,-76.71 3268.91,-76.11 3260.27,-69.99 3258.34,-76.71"/>
</g>
<!-- Node25 -->
<g id="node20" class="node">
<title>Node25</title>
<g id="a_node20"><a xlink:href="d__meter2__draw_8cpp.html" target="_top" xlink:title=" ">
<polygon fill="white" stroke="#666666" points="3545.5,-30 3435.5,-30 3435.5,0 3545.5,0 3545.5,-30"/>
<text text-anchor="start" x="3443.5" y="-18" font-family="Helvetica,sans-Serif" font-size="10.00">src/d/meter/d_meter2</text>
<text text-anchor="middle" x="3490.5" y="-7" font-family="Helvetica,sans-Serif" font-size="10.00">_draw.cpp</text>
</a>
</g>
</g>
<!-- Node20&#45;&gt;Node25 -->
<g id="edge20" class="edge">
<title>Node20&#45;&gt;Node25</title>
<path fill="none" stroke="#63b8ff" d="M3336.61,-72.59C3369.11,-60.64 3417.36,-42.9 3451.14,-30.47"/>
<polygon fill="#63b8ff" stroke="#63b8ff" points="3335.42,-69.3 3327.24,-76.03 3337.84,-75.87 3335.42,-69.3"/>
</g>
<!-- Node27&#45;&gt;Node13 -->
<g id="edge23" class="edge">
<title>Node27&#45;&gt;Node13</title>
<path fill="none" stroke="#63b8ff" d="M1515.29,-60.58C1490.29,-48.16 1461.62,-33.93 1443.54,-24.95"/>
<polygon fill="#63b8ff" stroke="#63b8ff" points="1513.51,-63.6 1524.03,-64.91 1516.63,-57.33 1513.51,-63.6"/>
</g>
<!-- Node32 -->
<g id="node25" class="node">
<title>Node32</title>
<g id="a_node25"><a xlink:href="d__kankyo_8h.html" target="_top" xlink:title=" ">
<polygon fill="#fff0f0" stroke="red" points="4532.5,-101.5 4434.5,-101.5 4434.5,-71.5 4532.5,-71.5 4532.5,-101.5"/>
<text text-anchor="start" x="4442.5" y="-89.5" font-family="Helvetica,sans-Serif" font-size="10.00">include/d/kankyo/d</text>
<text text-anchor="middle" x="4483.5" y="-78.5" font-family="Helvetica,sans-Serif" font-size="10.00">_kankyo.h</text>
</a>
</g>
</g>
<!-- Node31&#45;&gt;Node32 -->
<g id="edge27" class="edge">
<title>Node31&#45;&gt;Node32</title>
<path fill="none" stroke="#63b8ff" d="M4458.03,-132.88C4463.83,-122.55 4470.41,-110.82 4475.43,-101.88"/>
<polygon fill="#63b8ff" stroke="#63b8ff" points="4455.16,-130.85 4453.32,-141.28 4461.27,-134.27 4455.16,-130.85"/>
</g>
<!-- Node175 -->
<g id="node26" class="node">
<title>Node175</title>
<g id="a_node26"><a xlink:href="d__kankyo__wether_8cpp.html" target="_top" xlink:title=" ">
<polygon fill="white" stroke="#666666" points="4502.5,-30 4386.5,-30 4386.5,0 4502.5,0 4502.5,-30"/>
<text text-anchor="start" x="4394.5" y="-18" font-family="Helvetica,sans-Serif" font-size="10.00">src/d/kankyo/d_kankyo</text>
<text text-anchor="middle" x="4444.5" y="-7" font-family="Helvetica,sans-Serif" font-size="10.00">_wether.cpp</text>
</a>
</g>
</g>
<!-- Node31&#45;&gt;Node175 -->
<g id="edge31" class="edge">
<title>Node31&#45;&gt;Node175</title>
<path fill="none" stroke="#63b8ff" d="M4432.93,-131.92C4429.89,-124.1 4427.03,-115.35 4425.5,-107 4422.21,-89.08 4422.21,-83.92 4425.5,-66 4427.78,-53.58 4433,-40.24 4437.39,-30.47"/>
<polygon fill="#63b8ff" stroke="#63b8ff" points="4429.71,-133.27 4436.81,-141.13 4436.16,-130.56 4429.71,-133.27"/>
</g>
<!-- Node159 -->
<g id="node27" class="node">
<title>Node159</title>
<g id="a_node27"><a xlink:href="d__kyeff_8cpp.html" target="_top" xlink:title=" ">
<polygon fill="white" stroke="#666666" points="4640.5,-96 4550.5,-96 4550.5,-77 4640.5,-77 4640.5,-96"/>
<text text-anchor="middle" x="4595.5" y="-84" font-family="Helvetica,sans-Serif" font-size="10.00">src/d/d_kyeff.cpp</text>
</a>
</g>
</g>
<!-- Node31&#45;&gt;Node159 -->
<g id="edge29" class="edge">
<title>Node31&#45;&gt;Node159</title>
<path fill="none" stroke="#63b8ff" d="M4486.19,-137.81C4515.6,-124.28 4553.63,-106.77 4576.21,-96.38"/>
<polygon fill="#63b8ff" stroke="#63b8ff" points="4484.78,-134.61 4477.16,-141.97 4487.71,-140.97 4484.78,-134.61"/>
</g>
<!-- Node323 -->
<g id="node28" class="node">
<title>Node323</title>
<g id="a_node28"><a xlink:href="d__kyeff2_8cpp.html" target="_top" xlink:title=" ">
<polygon fill="white" stroke="#666666" points="4754,-96 4659,-96 4659,-77 4754,-77 4754,-96"/>
<text text-anchor="middle" x="4706.5" y="-84" font-family="Helvetica,sans-Serif" font-size="10.00">src/d/d_kyeff2.cpp</text>
</a>
</g>
</g>
<!-- Node31&#45;&gt;Node323 -->
<g id="edge30" class="edge">
<title>Node31&#45;&gt;Node323</title>
<path fill="none" stroke="#63b8ff" d="M4504.69,-142.46C4562.59,-128.45 4642.4,-109.08 4649.5,-107 4660.24,-103.86 4671.96,-99.94 4681.97,-96.44"/>
<polygon fill="#63b8ff" stroke="#63b8ff" points="4504.16,-138.99 4495.26,-144.74 4505.8,-145.79 4504.16,-138.99"/>
</g>
<!-- Node32&#45;&gt;Node175 -->
<g id="edge28" class="edge">
<title>Node32&#45;&gt;Node175</title>
<path fill="none" stroke="#63b8ff" d="M4469.97,-61.38C4464.17,-51.05 4457.59,-39.32 4452.57,-30.38"/>
<polygon fill="#63b8ff" stroke="#63b8ff" points="4466.73,-62.77 4474.68,-69.78 4472.84,-59.35 4466.73,-62.77"/>
</g>
<!-- Node324&#45;&gt;Node16 -->
<g id="edge44" class="edge">
<title>Node324&#45;&gt;Node16</title>
<path fill="none" stroke="#63b8ff" d="M2335.94,-157.62C2194.28,-157.79 1886.53,-152.67 1792.5,-107 1770.15,-96.14 1773.6,-81.89 1754.5,-66 1734.66,-49.5 1708.99,-34.21 1692.38,-24.99"/>
<polygon fill="#63b8ff" stroke="#63b8ff" points="2335.57,-161.12 2345.56,-157.6 2335.56,-154.12 2335.57,-161.12"/>
</g>
<!-- Node324&#45;&gt;Node25 -->
<g id="edge45" class="edge">
<title>Node324&#45;&gt;Node25</title>
<path fill="none" stroke="#63b8ff" d="M2481.21,-156.84C2742.32,-155.93 3619.47,-149.7 3660.5,-107 3673.13,-93.86 3671.42,-80.59 3660.5,-66 3646.58,-47.4 3589.94,-33.35 3545.81,-24.95"/>
<polygon fill="#63b8ff" stroke="#63b8ff" points="2481.48,-153.34 2471.49,-156.88 2481.5,-160.34 2481.48,-153.34"/>
</g>
<!-- Node154 -->
<g id="node30" class="node">
<title>Node154</title>
<g id="a_node30"><a xlink:href="d__gameover_8cpp.html" target="_top" xlink:title=" ">
<polygon fill="white" stroke="#666666" points="1915,-96 1802,-96 1802,-77 1915,-77 1915,-96"/>
<text text-anchor="middle" x="1858.5" y="-84" font-family="Helvetica,sans-Serif" font-size="10.00">src/d/d_gameover.cpp</text>
</a>
</g>
</g>
<!-- Node324&#45;&gt;Node154 -->
<g id="edge33" class="edge">
<title>Node324&#45;&gt;Node154</title>
<path fill="none" stroke="#63b8ff" d="M2335.83,-153.79C2240.42,-148.6 2068.08,-135.87 1923.5,-107 1910.33,-104.37 1896,-100.22 1884.15,-96.42"/>
<polygon fill="#63b8ff" stroke="#63b8ff" points="2335.4,-157.27 2345.57,-154.3 2335.77,-150.28 2335.4,-157.27"/>
</g>
<!-- Node157 -->
<g id="node31" class="node">
<title>Node157</title>
<g id="a_node31"><a xlink:href="d__kantera__icon__meter_8cpp.html" target="_top" xlink:title=" ">
<polygon fill="white" stroke="#666666" points="2040,-101.5 1933,-101.5 1933,-71.5 2040,-71.5 2040,-101.5"/>
<text text-anchor="start" x="1941" y="-89.5" font-family="Helvetica,sans-Serif" font-size="10.00">src/d/d_kantera_icon</text>
<text text-anchor="middle" x="1986.5" y="-78.5" font-family="Helvetica,sans-Serif" font-size="10.00">_meter.cpp</text>
</a>
</g>
</g>
<!-- Node324&#45;&gt;Node157 -->
<g id="edge34" class="edge">
<title>Node324&#45;&gt;Node157</title>
<path fill="none" stroke="#63b8ff" d="M2335.97,-150.38C2263.01,-142.91 2147.59,-128.86 2049.5,-107 2043.13,-105.58 2036.47,-103.83 2029.97,-101.96"/>
<polygon fill="#63b8ff" stroke="#63b8ff" points="2335.49,-153.85 2345.8,-151.37 2336.2,-146.88 2335.49,-153.85"/>
</g>
<!-- Node177 -->
<g id="node32" class="node">
<title>Node177</title>
<g id="a_node32"><a xlink:href="d__map__path__dmap_8cpp.html" target="_top" xlink:title=" ">
<polygon fill="white" stroke="#666666" points="1489.5,-101.5 1373.5,-101.5 1373.5,-71.5 1489.5,-71.5 1489.5,-101.5"/>
<text text-anchor="start" x="1381.5" y="-89.5" font-family="Helvetica,sans-Serif" font-size="10.00">src/d/map/d_map_path</text>
<text text-anchor="middle" x="1431.5" y="-78.5" font-family="Helvetica,sans-Serif" font-size="10.00">_dmap.cpp</text>
</a>
</g>
</g>
<!-- Node324&#45;&gt;Node177 -->
<g id="edge35" class="edge">
<title>Node324&#45;&gt;Node177</title>
<path fill="none" stroke="#63b8ff" d="M2335.8,-155.15C2149.62,-150.06 1659,-134.4 1498.5,-107 1491.1,-105.74 1483.35,-103.94 1475.86,-101.95"/>
<polygon fill="#63b8ff" stroke="#63b8ff" points="2335.49,-158.64 2345.58,-155.41 2335.68,-151.64 2335.49,-158.64"/>
</g>
<!-- Node179 -->
<g id="node33" class="node">
<title>Node179</title>
<g id="a_node33"><a xlink:href="d__menu__calibration_8cpp.html" target="_top" xlink:title=" ">
<polygon fill="white" stroke="#666666" points="2228.5,-96 2058.5,-96 2058.5,-77 2228.5,-77 2228.5,-96"/>
<text text-anchor="middle" x="2143.5" y="-84" font-family="Helvetica,sans-Serif" font-size="10.00">src/d/menu/d_menu_calibration.cpp</text>
</a>
</g>
</g>
<!-- Node324&#45;&gt;Node179 -->
<g id="edge36" class="edge">
<title>Node324&#45;&gt;Node179</title>
<path fill="none" stroke="#63b8ff" d="M2342.41,-139.67C2290.09,-125.95 2219.14,-107.34 2177.65,-96.46"/>
<polygon fill="#63b8ff" stroke="#63b8ff" points="2341.25,-142.98 2351.81,-142.13 2343.02,-136.21 2341.25,-142.98"/>
</g>
<!-- Node180 -->
<g id="node34" class="node">
<title>Node180</title>
<g id="a_node34"><a xlink:href="d__menu__collect_8cpp.html" target="_top" xlink:title=" ">
<polygon fill="white" stroke="#666666" points="1355,-96 1200,-96 1200,-77 1355,-77 1355,-96"/>
<text text-anchor="middle" x="1277.5" y="-84" font-family="Helvetica,sans-Serif" font-size="10.00">src/d/menu/d_menu_collect.cpp</text>
</a>
</g>
</g>
<!-- Node324&#45;&gt;Node180 -->
<g id="edge37" class="edge">
<title>Node324&#45;&gt;Node180</title>
<path fill="none" stroke="#63b8ff" d="M2335.77,-155.15C2131.07,-149.69 1552.7,-132.4 1364.5,-107 1346.71,-104.6 1327.17,-100.37 1311.13,-96.46"/>
<polygon fill="#63b8ff" stroke="#63b8ff" points="2335.66,-158.65 2345.75,-155.42 2335.85,-151.65 2335.66,-158.65"/>
</g>
<!-- Node181 -->
<g id="node35" class="node">
<title>Node181</title>
<g id="a_node35"><a xlink:href="d__menu__fishing_8cpp.html" target="_top" xlink:title=" ">
<polygon fill="white" stroke="#666666" points="2400.5,-96 2246.5,-96 2246.5,-77 2400.5,-77 2400.5,-96"/>
<text text-anchor="middle" x="2323.5" y="-84" font-family="Helvetica,sans-Serif" font-size="10.00">src/d/menu/d_menu_fishing.cpp</text>
</a>
</g>
</g>
<!-- Node324&#45;&gt;Node181 -->
<g id="edge38" class="edge">
<title>Node324&#45;&gt;Node181</title>
<path fill="none" stroke="#63b8ff" d="M2382.33,-135.6C2366.1,-122.33 2346.12,-105.99 2334.11,-96.18"/>
<polygon fill="#63b8ff" stroke="#63b8ff" points="2379.76,-138.02 2389.72,-141.64 2384.19,-132.6 2379.76,-138.02"/>
</g>
<!-- Node182 -->
<g id="node36" class="node">
<title>Node182</title>
<g id="a_node36"><a xlink:href="d__menu__insect_8cpp.html" target="_top" xlink:title=" ">
<polygon fill="white" stroke="#666666" points="2570.5,-96 2418.5,-96 2418.5,-77 2570.5,-77 2570.5,-96"/>
<text text-anchor="middle" x="2494.5" y="-84" font-family="Helvetica,sans-Serif" font-size="10.00">src/d/menu/d_menu_insect.cpp</text>
</a>
</g>
</g>
<!-- Node324&#45;&gt;Node182 -->
<g id="edge39" class="edge">
<title>Node324&#45;&gt;Node182</title>
<path fill="none" stroke="#63b8ff" d="M2434.93,-135.64C2451.25,-122.45 2471.33,-106.22 2483.51,-96.38"/>
<polygon fill="#63b8ff" stroke="#63b8ff" points="2433.07,-132.64 2427.5,-141.65 2437.47,-138.08 2433.07,-132.64"/>
</g>
<!-- Node183 -->
<g id="node37" class="node">
<title>Node183</title>
<g id="a_node37"><a xlink:href="d__menu__map__common_8cpp.html" target="_top" xlink:title=" ">
<polygon fill="white" stroke="#666666" points="2716,-101.5 2589,-101.5 2589,-71.5 2716,-71.5 2716,-101.5"/>
<text text-anchor="start" x="2597" y="-89.5" font-family="Helvetica,sans-Serif" font-size="10.00">src/d/menu/d_menu_map</text>
<text text-anchor="middle" x="2652.5" y="-78.5" font-family="Helvetica,sans-Serif" font-size="10.00">_common.cpp</text>
</a>
</g>
</g>
<!-- Node324&#45;&gt;Node183 -->
<g id="edge40" class="edge">
<title>Node324&#45;&gt;Node183</title>
<path fill="none" stroke="#63b8ff" d="M2470.22,-139.42C2510.88,-127.84 2563.48,-112.86 2601.71,-101.97"/>
<polygon fill="#63b8ff" stroke="#63b8ff" points="2469.47,-135.99 2460.81,-142.1 2471.39,-142.73 2469.47,-135.99"/>
</g>
<!-- Node184 -->
<g id="node38" class="node">
<title>Node184</title>
<g id="a_node38"><a xlink:href="d__menu__option_8cpp.html" target="_top" xlink:title=" ">
<polygon fill="white" stroke="#666666" points="2886.5,-96 2734.5,-96 2734.5,-77 2886.5,-77 2886.5,-96"/>
<text text-anchor="middle" x="2810.5" y="-84" font-family="Helvetica,sans-Serif" font-size="10.00">src/d/menu/d_menu_option.cpp</text>
</a>
</g>
</g>
<!-- Node324&#45;&gt;Node184 -->
<g id="edge41" class="edge">
<title>Node324&#45;&gt;Node184</title>
<path fill="none" stroke="#63b8ff" d="M2481.09,-146.91C2545.29,-137.65 2641.4,-122.98 2724.5,-107 2740.59,-103.91 2758.25,-99.99 2773.36,-96.48"/>
<polygon fill="#63b8ff" stroke="#63b8ff" points="2480.78,-143.41 2471.38,-148.3 2481.77,-150.34 2480.78,-143.41"/>
</g>
<!-- Node186 -->
<g id="node39" class="node">
<title>Node186</title>
<g id="a_node39"><a xlink:href="d__menu__skill_8cpp.html" target="_top" xlink:title=" ">
<polygon fill="white" stroke="#666666" points="3048,-96 2905,-96 2905,-77 3048,-77 3048,-96"/>
<text text-anchor="middle" x="2976.5" y="-84" font-family="Helvetica,sans-Serif" font-size="10.00">src/d/menu/d_menu_skill.cpp</text>
</a>
</g>
</g>
<!-- Node324&#45;&gt;Node186 -->
<g id="edge42" class="edge">
<title>Node324&#45;&gt;Node186</title>
<path fill="none" stroke="#63b8ff" d="M2481.24,-152.58C2576.79,-146.09 2749.58,-131.94 2895.5,-107 2911.47,-104.27 2928.97,-100.2 2943.6,-96.48"/>
<polygon fill="#63b8ff" stroke="#63b8ff" points="2481.23,-149.08 2471.49,-153.24 2481.7,-156.06 2481.23,-149.08"/>
</g>
<!-- Node71 -->
<g id="node40" class="node">
<title>Node71</title>
<g id="a_node40"><a xlink:href="d__menu__window_8cpp.html" target="_top" xlink:title=" ">
<polygon fill="white" stroke="#666666" points="3225,-96 3066,-96 3066,-77 3225,-77 3225,-96"/>
<text text-anchor="middle" x="3145.5" y="-84" font-family="Helvetica,sans-Serif" font-size="10.00">src/d/menu/d_menu_window.cpp</text>
</a>
</g>
</g>
<!-- Node324&#45;&gt;Node71 -->
<g id="edge43" class="edge">
<title>Node324&#45;&gt;Node71</title>
<path fill="none" stroke="#63b8ff" d="M2480.78,-154.69C2600.88,-150.13 2848.87,-137.61 3056.5,-107 3074.34,-104.37 3093.94,-100.22 3110.19,-96.42"/>
<polygon fill="#63b8ff" stroke="#63b8ff" points="2480.94,-151.19 2471.08,-155.05 2481.2,-158.18 2480.94,-151.19"/>
</g>
<!-- Node325 -->
<g id="node41" class="node">
<title>Node325</title>
<g id="a_node41"><a xlink:href="d__meter__HIO_8cpp.html" target="_top" xlink:title=" ">
<polygon fill="white" stroke="#666666" points="3481.5,-101.5 3377.5,-101.5 3377.5,-71.5 3481.5,-71.5 3481.5,-101.5"/>
<text text-anchor="start" x="3385.5" y="-89.5" font-family="Helvetica,sans-Serif" font-size="10.00">src/d/meter/d_meter</text>
<text text-anchor="middle" x="3429.5" y="-78.5" font-family="Helvetica,sans-Serif" font-size="10.00">_HIO.cpp</text>
</a>
</g>
</g>
<!-- Node324&#45;&gt;Node325 -->
<g id="edge46" class="edge">
<title>Node324&#45;&gt;Node325</title>
<path fill="none" stroke="#63b8ff" d="M2481.13,-155.63C2674.44,-151.61 3198.36,-138.09 3368.5,-107 3375.28,-105.76 3382.36,-103.98 3389.18,-101.99"/>
<polygon fill="#63b8ff" stroke="#63b8ff" points="2481.14,-152.13 2471.21,-155.84 2481.28,-159.13 2481.14,-152.13"/>
</g>
<!-- Node39 -->
<g id="node42" class="node">
<title>Node39</title>
<g id="a_node42"><a xlink:href="d__shop__system_8cpp.html" target="_top" xlink:title=" ">
<polygon fill="white" stroke="#666666" points="3651.5,-96 3499.5,-96 3499.5,-77 3651.5,-77 3651.5,-96"/>
<text text-anchor="middle" x="3575.5" y="-84" font-family="Helvetica,sans-Serif" font-size="10.00">src/d/shop/d_shop_system.cpp</text>
</a>
</g>
</g>
<!-- Node324&#45;&gt;Node39 -->
<g id="edge47" class="edge">
<title>Node324&#45;&gt;Node39</title>
<path fill="none" stroke="#63b8ff" d="M2481.35,-155.34C2691.23,-150.28 3294.73,-133.76 3490.5,-107 3507.9,-104.62 3526.98,-100.39 3542.65,-96.48"/>
<polygon fill="#63b8ff" stroke="#63b8ff" points="2481.3,-151.84 2471.38,-155.58 2481.46,-158.84 2481.3,-151.84"/>
</g>
<!-- Node326&#45;&gt;Node20 -->
<g id="edge49" class="edge">
<title>Node326&#45;&gt;Node20</title>
<path fill="none" stroke="#63b8ff" d="M3825.62,-154.75C3727.31,-150.39 3531.55,-138.28 3368.5,-107 3354.94,-104.4 3340.17,-100.25 3327.95,-96.44"/>
<polygon fill="#63b8ff" stroke="#63b8ff" points="3825.47,-158.25 3835.61,-155.18 3825.77,-151.26 3825.47,-158.25"/>
</g>
<!-- Node37 -->
<g id="node44" class="node">
<title>Node37</title>
<g id="a_node44"><a xlink:href="d__a__npc_8h.html" target="_top" xlink:title=" ">
<polygon fill="#fff0f0" stroke="red" points="4211,-96 4100,-96 4100,-77 4211,-77 4211,-96"/>
<text text-anchor="middle" x="4155.5" y="-84" font-family="Helvetica,sans-Serif" font-size="10.00">include/d/a/d_a_npc.h</text>
</a>
</g>
</g>
<!-- Node326&#45;&gt;Node37 -->
<g id="edge50" class="edge">
<title>Node326&#45;&gt;Node37</title>
<path fill="none" stroke="#63b8ff" d="M3950.93,-142.38C3990.95,-132.8 4043.94,-119.74 4090.5,-107 4102.43,-103.74 4115.51,-99.87 4126.79,-96.44"/>
<polygon fill="#63b8ff" stroke="#63b8ff" points="3950.12,-138.97 3941.21,-144.7 3951.75,-145.78 3950.12,-138.97"/>
</g>
<!-- Node246 -->
<g id="node45" class="node">
<title>Node246</title>
<g id="a_node45"><a xlink:href="d__a__boomerang_8h.html" target="_top" xlink:title=" ">
<polygon fill="#fff0f0" stroke="red" points="4378,-101.5 4229,-101.5 4229,-71.5 4378,-71.5 4378,-101.5"/>
<text text-anchor="start" x="4237" y="-89.5" font-family="Helvetica,sans-Serif" font-size="10.00">include/rel/d/a/d_a</text>
<text text-anchor="middle" x="4303.5" y="-78.5" font-family="Helvetica,sans-Serif" font-size="10.00">_boomerang/d_a_boomerang.h</text>
</a>
</g>
</g>
<!-- Node326&#45;&gt;Node246 -->
<g id="edge51" class="edge">
<title>Node326&#45;&gt;Node246</title>
<path fill="none" stroke="#63b8ff" d="M3950.89,-149.06C4017.62,-140.22 4126.42,-124.81 4219.5,-107 4227.44,-105.48 4235.77,-103.74 4243.97,-101.93"/>
<polygon fill="#63b8ff" stroke="#63b8ff" points="3950.7,-145.55 3941.24,-150.33 3951.62,-152.49 3950.7,-145.55"/>
</g>
<!-- Node84 -->
<g id="node46" class="node">
<title>Node84</title>
<g id="a_node46"><a xlink:href="d__a__cstaF_8h.html" target="_top" xlink:title=" ">
<polygon fill="white" stroke="#666666" points="3811,-101.5 3708,-101.5 3708,-71.5 3811,-71.5 3811,-101.5"/>
<text text-anchor="start" x="3716" y="-89.5" font-family="Helvetica,sans-Serif" font-size="10.00">include/rel/d/a/d_a</text>
<text text-anchor="middle" x="3759.5" y="-78.5" font-family="Helvetica,sans-Serif" font-size="10.00">_cstaF/d_a_cstaF.h</text>
</a>
</g>
</g>
<!-- Node326&#45;&gt;Node84 -->
<g id="edge52" class="edge">
<title>Node326&#45;&gt;Node84</title>
<path fill="none" stroke="#63b8ff" d="M3851.65,-137.15C3830.77,-125.9 3805.13,-112.08 3786.19,-101.88"/>
<polygon fill="#63b8ff" stroke="#63b8ff" points="3849.97,-140.22 3860.44,-141.88 3853.3,-134.06 3849.97,-140.22"/>
</g>
<!-- Node311 -->
<g id="node47" class="node">
<title>Node311</title>
<g id="a_node47"><a xlink:href="d__a__cstatue_8h.html" target="_top" xlink:title=" ">
<polygon fill="white" stroke="#666666" points="3947.5,-101.5 3829.5,-101.5 3829.5,-71.5 3947.5,-71.5 3947.5,-101.5"/>
<text text-anchor="start" x="3837.5" y="-89.5" font-family="Helvetica,sans-Serif" font-size="10.00">include/rel/d/a/d_a</text>
<text text-anchor="middle" x="3888.5" y="-78.5" font-family="Helvetica,sans-Serif" font-size="10.00">_cstatue/d_a_cstatue.h</text>
</a>
</g>
</g>
<!-- Node326&#45;&gt;Node311 -->
<g id="edge53" class="edge">
<title>Node326&#45;&gt;Node311</title>
<path fill="none" stroke="#63b8ff" d="M3888.5,-131.26C3888.5,-121.33 3888.5,-110.36 3888.5,-101.88"/>
<polygon fill="#63b8ff" stroke="#63b8ff" points="3885,-131.09 3888.5,-141.09 3892,-131.09 3885,-131.09"/>
</g>
<!-- Node92 -->
<g id="node48" class="node">
<title>Node92</title>
<g id="a_node48"><a xlink:href="d__a__spinner_8h.html" target="_top" xlink:title=" ">
<polygon fill="#fff0f0" stroke="red" points="4081.5,-101.5 3965.5,-101.5 3965.5,-71.5 4081.5,-71.5 4081.5,-101.5"/>
<text text-anchor="start" x="3973.5" y="-89.5" font-family="Helvetica,sans-Serif" font-size="10.00">include/rel/d/a/d_a</text>
<text text-anchor="middle" x="4023.5" y="-78.5" font-family="Helvetica,sans-Serif" font-size="10.00">_spinner/d_a_spinner.h</text>
</a>
</g>
</g>
<!-- Node326&#45;&gt;Node92 -->
<g id="edge54" class="edge">
<title>Node326&#45;&gt;Node92</title>
<path fill="none" stroke="#63b8ff" d="M3926.46,-137.46C3948.42,-126.15 3975.57,-112.17 3995.56,-101.88"/>
<polygon fill="#63b8ff" stroke="#63b8ff" points="3925.11,-134.22 3917.82,-141.91 3928.31,-140.44 3925.11,-134.22"/>
</g>
<!-- Node328&#45;&gt;Node9 -->
<g id="edge56" class="edge">
<title>Node328&#45;&gt;Node9</title>
<path fill="none" stroke="#63b8ff" d="M1199.52,-147.4C1133.83,-138.72 1037.54,-124.62 954.5,-107 947.53,-105.52 940.24,-103.78 933.07,-101.95"/>
<polygon fill="#63b8ff" stroke="#63b8ff" points="1198.74,-150.82 1209.11,-148.65 1199.65,-143.88 1198.74,-150.82"/>
</g>
<!-- Node328&#45;&gt;Node30 -->
<g id="edge57" class="edge">
<title>Node328&#45;&gt;Node30</title>
<path fill="none" stroke="#63b8ff" d="M1248.52,-143.11C1219.5,-129.2 1175.74,-108.22 1151.09,-96.41"/>
<polygon fill="#63b8ff" stroke="#63b8ff" points="1246.95,-146.24 1257.48,-147.4 1249.97,-139.92 1246.95,-146.24"/>
</g>
<!-- Node328&#45;&gt;Node177 -->
<g id="edge58" class="edge">
<title>Node328&#45;&gt;Node177</title>
<path fill="none" stroke="#63b8ff" d="M1307.51,-143.46C1333.96,-131.52 1372.38,-114.18 1399.43,-101.97"/>
<polygon fill="#63b8ff" stroke="#63b8ff" points="1306.37,-140.13 1298.7,-147.43 1309.25,-146.51 1306.37,-140.13"/>
</g>
<!-- Node328&#45;&gt;Node180 -->
<g id="edge59" class="edge">
<title>Node328&#45;&gt;Node180</title>
<path fill="none" stroke="#63b8ff" d="M1277.5,-136.8C1277.5,-123.44 1277.5,-106.59 1277.5,-96.45"/>
<polygon fill="#63b8ff" stroke="#63b8ff" points="1274,-136.68 1277.5,-146.68 1281,-136.68 1274,-136.68"/>
</g>
</g>
</svg>
        <g id="navigator" transform="translate(0 0)" fill="#404254">
                <rect fill="#f2f5e9" fill-opacity="0.5" stroke="#606060" stroke-width=".5" x="0" y="0" width="60" height="60"/>
                <use id="zoomplus" xlink:href="#zoomPlus" x="17" y="9" onmousedown="handleZoom(evt,'in')"/>
                <use id="zoomminus" xlink:href="#zoomMin" x="42" y="9" onmousedown="handleZoom(evt,'out')"/>
                <use id="reset" xlink:href="#resetDef" x="30" y="36" onmousedown="handleReset()"/>
                <g id="arrowUp" xlink:href="#dirArrow" transform="translate(30 24)" onmousedown="handlePan(0,-1)">
                  <use xlink:href="#rim" fill="#404040">
                        <set attributeName="fill" to="#808080" begin="arrowUp.mouseover" end="arrowUp.mouseout"/>
                  </use>
                  <path fill="none" stroke="white" stroke-width="1.5" d="M0,-3.0v7 M-2.5,-0.5L0,-3.0L2.5,-0.5"/>
                </g>
                <g id="arrowRight" xlink:href="#dirArrow" transform="rotate(90) translate(36 -43)" onmousedown="handlePan(1,0)">
                  <use xlink:href="#rim" fill="#404040">
                        <set attributeName="fill" to="#808080" begin="arrowRight.mouseover" end="arrowRight.mouseout"/>
                  </use>
                  <path fill="none" stroke="white" stroke-width="1.5" d="M0,-3.0v7 M-2.5,-0.5L0,-3.0L2.5,-0.5"/>
                </g>
                <g id="arrowDown" xlink:href="#dirArrow" transform="rotate(180) translate(-30 -48)" onmousedown="handlePan(0,1)">
                  <use xlink:href="#rim" fill="#404040">
                        <set attributeName="fill" to="#808080" begin="arrowDown.mouseover" end="arrowDown.mouseout"/>
                  </use>
                  <path fill="none" stroke="white" stroke-width="1.5" d="M0,-3.0v7 M-2.5,-0.5L0,-3.0L2.5,-0.5"/>
                </g>
                <g id="arrowLeft" xlink:href="#dirArrow" transform="rotate(270) translate(-36 17)" onmousedown="handlePan(-1,0)">
                  <use xlink:href="#rim" fill="#404040">
                        <set attributeName="fill" to="#808080" begin="arrowLeft.mouseover" end="arrowLeft.mouseout"/>
                  </use>
                  <path fill="none" stroke="white" stroke-width="1.5" d="M0,-3.0v7 M-2.5,-0.5L0,-3.0L2.5,-0.5"/>
                </g>
        </g>
        <svg viewBox="0 0 15 15" width="100%" height="30px" preserveAspectRatio="xMaxYMin meet">
         <g id="arrow_out" transform="scale(0.3 0.3)">
          <a xlink:href="c__sxyz_8h__dep__incl_org.svg" target="_base">
           <rect id="button" ry="5" rx="5" y="6" x="6" height="38" width="38"
                fill="#f2f5e9" fill-opacity="0.5" stroke="#606060" stroke-width="1.0"/>
           <path id="arrow"
             d="M 11.500037,31.436501 C 11.940474,20.09759 22.043105,11.32322 32.158766,21.979434 L 37.068811,17.246167 C 37.068811,17.246167 37.088388,32 37.088388,32 L 22.160133,31.978069 C 22.160133,31.978069 26.997745,27.140456 26.997745,27.140456 C 18.528582,18.264221 13.291696,25.230495 11.500037,31.436501 z"
             style="fill:#404040;"/>
          </a>
         </g>
        </svg>
</svg>
