<?xml version="1.0" encoding="UTF-8" standalone="no"?>
<!DOCTYPE svg PUBLIC "-//W3C//DTD SVG 1.1//EN"
 "http://www.w3.org/Graphics/SVG/1.1/DTD/svg11.dtd">
<!-- Generated by graphviz version 2.47.0 (20210316.2052)
 -->
<!-- Title: include/SComponent/c_tag_iter.h Pages: 1 -->
<svg width="1713pt" height="307pt"
 viewBox="0.00 0.00 1713.00 307.00" xmlns="http://www.w3.org/2000/svg" xmlns:xlink="http://www.w3.org/1999/xlink">
<g id="graph0" class="graph" transform="scale(1 1) rotate(0) translate(4 303)">
<title>include/SComponent/c_tag_iter.h</title>
<polygon fill="white" stroke="transparent" points="-4,4 -4,-303 1709,-303 1709,4 -4,4"/>
<!-- Node1 -->
<g id="node1" class="node">
<title>Node1</title>
<g id="a_node1"><a xlink:title=" ">
<polygon fill="#bfbfbf" stroke="black" points="313,-268.5 313,-298.5 420,-298.5 420,-268.5 313,-268.5"/>
<text text-anchor="start" x="321" y="-286.5" font-family="Helvetica,sans-Serif" font-size="10.00">include/SComponent</text>
<text text-anchor="middle" x="366.5" y="-275.5" font-family="Helvetica,sans-Serif" font-size="10.00">/c_tag_iter.h</text>
</a>
</g>
</g>
<!-- Node2 -->
<g id="node2" class="node">
<title>Node2</title>
<g id="a_node2"><a xlink:href="f__op__actor__iter_8cpp.html" target="_top" xlink:title=" ">
<polygon fill="white" stroke="black" points="0,-201.5 0,-231.5 107,-231.5 107,-201.5 0,-201.5"/>
<text text-anchor="start" x="8" y="-219.5" font-family="Helvetica,sans-Serif" font-size="10.00">src/f/f_op/f_op_actor</text>
<text text-anchor="middle" x="53.5" y="-208.5" font-family="Helvetica,sans-Serif" font-size="10.00">_iter.cpp</text>
</a>
</g>
</g>
<!-- Node1&#45;&gt;Node2 -->
<g id="edge1" class="edge">
<title>Node1&#45;&gt;Node2</title>
<path fill="none" stroke="midnightblue" d="M302.68,-270.23C251.88,-260.33 179.02,-245.81 115.5,-232 112.8,-231.41 110.04,-230.8 107.25,-230.18"/>
<polygon fill="midnightblue" stroke="midnightblue" points="302.06,-273.67 312.54,-272.15 303.39,-266.8 302.06,-273.67"/>
</g>
<!-- Node3 -->
<g id="node3" class="node">
<title>Node3</title>
<g id="a_node3"><a xlink:href="f__op__scene__iter_8cpp.html" target="_top" xlink:title=" ">
<polygon fill="white" stroke="black" points="125,-201.5 125,-231.5 236,-231.5 236,-201.5 125,-201.5"/>
<text text-anchor="start" x="133" y="-219.5" font-family="Helvetica,sans-Serif" font-size="10.00">src/f/f_op/f_op_scene</text>
<text text-anchor="middle" x="180.5" y="-208.5" font-family="Helvetica,sans-Serif" font-size="10.00">_iter.cpp</text>
</a>
</g>
</g>
<!-- Node1&#45;&gt;Node3 -->
<g id="edge2" class="edge">
<title>Node1&#45;&gt;Node3</title>
<path fill="none" stroke="midnightblue" d="M316.69,-265.09C286.66,-254.6 248.91,-241.41 220.78,-231.58"/>
<polygon fill="midnightblue" stroke="midnightblue" points="315.55,-268.4 326.14,-268.4 317.86,-261.79 315.55,-268.4"/>
</g>
<!-- Node4 -->
<g id="node4" class="node">
<title>Node4</title>
<g id="a_node4"><a xlink:href="f__pc__layer__iter_8cpp.html" target="_top" xlink:title=" ">
<polygon fill="white" stroke="black" points="254,-201.5 254,-231.5 359,-231.5 359,-201.5 254,-201.5"/>
<text text-anchor="start" x="262" y="-219.5" font-family="Helvetica,sans-Serif" font-size="10.00">src/f/f_pc/f_pc_layer</text>
<text text-anchor="middle" x="306.5" y="-208.5" font-family="Helvetica,sans-Serif" font-size="10.00">_iter.cpp</text>
</a>
</g>
</g>
<!-- Node1&#45;&gt;Node4 -->
<g id="edge3" class="edge">
<title>Node1&#45;&gt;Node4</title>
<path fill="none" stroke="midnightblue" d="M346.68,-261.02C337.74,-251.34 327.43,-240.17 319.49,-231.58"/>
<polygon fill="midnightblue" stroke="midnightblue" points="344.13,-263.42 353.48,-268.4 349.27,-258.67 344.13,-263.42"/>
</g>
<!-- Node5 -->
<g id="node5" class="node">
<title>Node5</title>
<g id="a_node5"><a xlink:href="f__pc__line__iter_8cpp.html" target="_top" xlink:title=" ">
<polygon fill="white" stroke="black" points="377.5,-201.5 377.5,-231.5 477.5,-231.5 477.5,-201.5 377.5,-201.5"/>
<text text-anchor="start" x="385.5" y="-219.5" font-family="Helvetica,sans-Serif" font-size="10.00">src/f/f_pc/f_pc_line</text>
<text text-anchor="middle" x="427.5" y="-208.5" font-family="Helvetica,sans-Serif" font-size="10.00">_iter.cpp</text>
</a>
</g>
</g>
<!-- Node1&#45;&gt;Node5 -->
<g id="edge4" class="edge">
<title>Node1&#45;&gt;Node5</title>
<path fill="none" stroke="midnightblue" d="M386.65,-261.02C395.74,-251.34 406.22,-240.17 414.29,-231.58"/>
<polygon fill="midnightblue" stroke="midnightblue" points="384.03,-258.71 379.74,-268.4 389.13,-263.5 384.03,-258.71"/>
</g>
<!-- Node6 -->
<g id="node6" class="node">
<title>Node6</title>
<g id="a_node6"><a xlink:href="c__tag__iter_8cpp.html" target="_top" xlink:title=" ">
<polygon fill="white" stroke="black" points="495.5,-201.5 495.5,-231.5 629.5,-231.5 629.5,-201.5 495.5,-201.5"/>
<text text-anchor="start" x="503.5" y="-219.5" font-family="Helvetica,sans-Serif" font-size="10.00">libs/SSystem/SComponent</text>
<text text-anchor="middle" x="562.5" y="-208.5" font-family="Helvetica,sans-Serif" font-size="10.00">/c_tag_iter.cpp</text>
</a>
</g>
</g>
<!-- Node1&#45;&gt;Node6 -->
<g id="edge5" class="edge">
<title>Node1&#45;&gt;Node6</title>
<path fill="none" stroke="midnightblue" d="M418.58,-265.23C450.29,-254.71 490.28,-241.45 520.05,-231.58"/>
<polygon fill="midnightblue" stroke="midnightblue" points="417.42,-261.93 409.03,-268.4 419.62,-268.57 417.42,-261.93"/>
</g>
<!-- Node7 -->
<g id="node7" class="node">
<title>Node7</title>
<g id="a_node7"><a xlink:href="f__pc__create__iter_8h.html" target="_top" xlink:title=" ">
<polygon fill="white" stroke="black" points="648,-201.5 648,-231.5 745,-231.5 745,-201.5 648,-201.5"/>
<text text-anchor="start" x="656" y="-219.5" font-family="Helvetica,sans-Serif" font-size="10.00">include/f/f_pc/f_pc</text>
<text text-anchor="middle" x="696.5" y="-208.5" font-family="Helvetica,sans-Serif" font-size="10.00">_create_iter.h</text>
</a>
</g>
</g>
<!-- Node1&#45;&gt;Node7 -->
<g id="edge6" class="edge">
<title>Node1&#45;&gt;Node7</title>
<path fill="none" stroke="midnightblue" d="M430.11,-271.83C485.38,-262.29 567.48,-247.46 638.5,-232 641.54,-231.34 644.67,-230.63 647.82,-229.9"/>
<polygon fill="midnightblue" stroke="midnightblue" points="429.37,-268.4 420.11,-273.55 430.56,-275.3 429.37,-268.4"/>
</g>
<!-- Node8 -->
<g id="node8" class="node">
<title>Node8</title>
<g id="a_node8"><a xlink:href="f__pc__create__iter_8cpp.html" target="_top" xlink:title=" ">
<polygon fill="white" stroke="black" points="468.5,-134.5 468.5,-164.5 580.5,-164.5 580.5,-134.5 468.5,-134.5"/>
<text text-anchor="start" x="476.5" y="-152.5" font-family="Helvetica,sans-Serif" font-size="10.00">src/f/f_pc/f_pc_create</text>
<text text-anchor="middle" x="524.5" y="-141.5" font-family="Helvetica,sans-Serif" font-size="10.00">_iter.cpp</text>
</a>
</g>
</g>
<!-- Node7&#45;&gt;Node8 -->
<g id="edge7" class="edge">
<title>Node7&#45;&gt;Node8</title>
<path fill="none" stroke="midnightblue" d="M649.71,-197.82C622.07,-187.37 587.54,-174.32 561.75,-164.58"/>
<polygon fill="midnightblue" stroke="midnightblue" points="648.59,-201.13 659.18,-201.4 651.06,-194.59 648.59,-201.13"/>
</g>
<!-- Node9 -->
<g id="node9" class="node">
<title>Node9</title>
<g id="a_node9"><a xlink:href="f__pc__create__req_8cpp.html" target="_top" xlink:title=" ">
<polygon fill="white" stroke="black" points="598.5,-134.5 598.5,-164.5 710.5,-164.5 710.5,-134.5 598.5,-134.5"/>
<text text-anchor="start" x="606.5" y="-152.5" font-family="Helvetica,sans-Serif" font-size="10.00">src/f/f_pc/f_pc_create</text>
<text text-anchor="middle" x="654.5" y="-141.5" font-family="Helvetica,sans-Serif" font-size="10.00">_req.cpp</text>
</a>
</g>
</g>
<!-- Node7&#45;&gt;Node9 -->
<g id="edge8" class="edge">
<title>Node7&#45;&gt;Node9</title>
<path fill="none" stroke="midnightblue" d="M681.88,-192.87C675.8,-183.46 668.93,-172.83 663.6,-164.58"/>
<polygon fill="midnightblue" stroke="midnightblue" points="679.02,-194.9 687.39,-201.4 684.9,-191.1 679.02,-194.9"/>
</g>
<!-- Node10 -->
<g id="node10" class="node">
<title>Node10</title>
<g id="a_node10"><a xlink:href="f__pc__manager_8cpp.html" target="_top" xlink:title=" ">
<polygon fill="white" stroke="black" points="617.5,-73 617.5,-92 757.5,-92 757.5,-73 617.5,-73"/>
<text text-anchor="middle" x="687.5" y="-80" font-family="Helvetica,sans-Serif" font-size="10.00">src/f/f_pc/f_pc_manager.cpp</text>
</a>
</g>
</g>
<!-- Node7&#45;&gt;Node10 -->
<g id="edge9" class="edge">
<title>Node7&#45;&gt;Node10</title>
<path fill="none" stroke="midnightblue" d="M710.21,-192.04C718,-175.74 725.17,-153.53 719.5,-134 714.76,-117.65 702.96,-101.52 695.09,-92.04"/>
<polygon fill="midnightblue" stroke="midnightblue" points="706.88,-190.86 705.39,-201.35 713.09,-194.08 706.88,-190.86"/>
</g>
<!-- Node11 -->
<g id="node11" class="node">
<title>Node11</title>
<g id="a_node11"><a xlink:href="f__pc__manager_8h.html" target="_top" xlink:title=" ">
<polygon fill="white" stroke="black" points="882,-134.5 882,-164.5 979,-164.5 979,-134.5 882,-134.5"/>
<text text-anchor="start" x="890" y="-152.5" font-family="Helvetica,sans-Serif" font-size="10.00">include/f/f_pc/f_pc</text>
<text text-anchor="middle" x="930.5" y="-141.5" font-family="Helvetica,sans-Serif" font-size="10.00">_manager.h</text>
</a>
</g>
</g>
<!-- Node7&#45;&gt;Node11 -->
<g id="edge10" class="edge">
<title>Node7&#45;&gt;Node11</title>
<path fill="none" stroke="midnightblue" d="M754.94,-199.27C794.04,-188.41 844.89,-174.28 881.79,-164.03"/>
<polygon fill="midnightblue" stroke="midnightblue" points="753.97,-195.9 745.27,-201.95 755.84,-202.65 753.97,-195.9"/>
</g>
<!-- Node11&#45;&gt;Node10 -->
<g id="edge16" class="edge">
<title>Node11&#45;&gt;Node10</title>
<path fill="none" stroke="midnightblue" d="M871.97,-132.84C824.05,-120.02 758.05,-102.37 719.37,-92.02"/>
<polygon fill="midnightblue" stroke="midnightblue" points="871.34,-136.3 881.91,-135.5 873.15,-129.54 871.34,-136.3"/>
</g>
<!-- Node12 -->
<g id="node12" class="node">
<title>Node12</title>
<g id="a_node12"><a xlink:href="d__a__alink_8cpp.html" target="_top" xlink:title=" ">
<polygon fill="white" stroke="black" points="841,-6 841,-25 960,-25 960,-6 841,-6"/>
<text text-anchor="middle" x="900.5" y="-13" font-family="Helvetica,sans-Serif" font-size="10.00">src/d/d_a/d_a_alink.cpp</text>
</a>
</g>
</g>
<!-- Node11&#45;&gt;Node12 -->
<g id="edge11" class="edge">
<title>Node11&#45;&gt;Node12</title>
<path fill="none" stroke="midnightblue" d="M871.89,-139.88C846.75,-132.96 819.71,-120.49 804.5,-98 796.78,-86.59 797.38,-78.79 804.5,-67 817.64,-45.24 843.62,-32.38 865.24,-25.1"/>
<polygon fill="midnightblue" stroke="midnightblue" points="871.22,-143.32 881.77,-142.36 872.92,-136.53 871.22,-143.32"/>
</g>
<!-- Node13 -->
<g id="node13" class="node">
<title>Node13</title>
<g id="a_node13"><a xlink:href="f__ap__game_8cpp.html" target="_top" xlink:title=" ">
<polygon fill="white" stroke="black" points="814,-73 814,-92 919,-92 919,-73 814,-73"/>
<text text-anchor="middle" x="866.5" y="-80" font-family="Helvetica,sans-Serif" font-size="10.00">src/f/f_ap_game.cpp</text>
</a>
</g>
</g>
<!-- Node11&#45;&gt;Node13 -->
<g id="edge12" class="edge">
<title>Node11&#45;&gt;Node13</title>
<path fill="none" stroke="midnightblue" d="M909.33,-127C897.65,-115.13 883.78,-101.05 875.06,-92.19"/>
<polygon fill="midnightblue" stroke="midnightblue" points="907.1,-129.73 916.61,-134.4 912.09,-124.81 907.1,-129.73"/>
</g>
<!-- Node14 -->
<g id="node14" class="node">
<title>Node14</title>
<g id="a_node14"><a xlink:href="f__op__kankyo__mng_8cpp.html" target="_top" xlink:title=" ">
<polygon fill="white" stroke="black" points="937.5,-67.5 937.5,-97.5 1053.5,-97.5 1053.5,-67.5 937.5,-67.5"/>
<text text-anchor="start" x="945.5" y="-85.5" font-family="Helvetica,sans-Serif" font-size="10.00">src/f/f_op/f_op_kankyo</text>
<text text-anchor="middle" x="995.5" y="-74.5" font-family="Helvetica,sans-Serif" font-size="10.00">_mng.cpp</text>
</a>
</g>
</g>
<!-- Node11&#45;&gt;Node14 -->
<g id="edge13" class="edge">
<title>Node11&#45;&gt;Node14</title>
<path fill="none" stroke="midnightblue" d="M951.69,-127.31C961.44,-117.56 972.74,-106.26 981.42,-97.58"/>
<polygon fill="midnightblue" stroke="midnightblue" points="949.2,-124.85 944.6,-134.4 954.15,-129.8 949.2,-124.85"/>
</g>
<!-- Node15 -->
<g id="node15" class="node">
<title>Node15</title>
<g id="a_node15"><a xlink:href="f__op__overlap__req_8cpp.html" target="_top" xlink:title=" ">
<polygon fill="white" stroke="black" points="1071.5,-67.5 1071.5,-97.5 1187.5,-97.5 1187.5,-67.5 1071.5,-67.5"/>
<text text-anchor="start" x="1079.5" y="-85.5" font-family="Helvetica,sans-Serif" font-size="10.00">src/f/f_op/f_op_overlap</text>
<text text-anchor="middle" x="1129.5" y="-74.5" font-family="Helvetica,sans-Serif" font-size="10.00">_req.cpp</text>
</a>
</g>
</g>
<!-- Node11&#45;&gt;Node15 -->
<g id="edge14" class="edge">
<title>Node11&#45;&gt;Node15</title>
<path fill="none" stroke="midnightblue" d="M983.38,-131.23C1015.57,-120.71 1056.17,-107.45 1086.4,-97.58"/>
<polygon fill="midnightblue" stroke="midnightblue" points="982.1,-127.96 973.68,-134.4 984.27,-134.62 982.1,-127.96"/>
</g>
<!-- Node16 -->
<g id="node16" class="node">
<title>Node16</title>
<g id="a_node16"><a xlink:href="f__op__scene__pause_8cpp.html" target="_top" xlink:title=" ">
<polygon fill="white" stroke="black" points="1206,-67.5 1206,-97.5 1317,-97.5 1317,-67.5 1206,-67.5"/>
<text text-anchor="start" x="1214" y="-85.5" font-family="Helvetica,sans-Serif" font-size="10.00">src/f/f_op/f_op_scene</text>
<text text-anchor="middle" x="1261.5" y="-74.5" font-family="Helvetica,sans-Serif" font-size="10.00">_pause.cpp</text>
</a>
</g>
</g>
<!-- Node11&#45;&gt;Node16 -->
<g id="edge15" class="edge">
<title>Node11&#45;&gt;Node16</title>
<path fill="none" stroke="midnightblue" d="M989.2,-137.91C1043.17,-128.04 1125.36,-112.68 1196.5,-98 1199.56,-97.37 1202.69,-96.71 1205.86,-96.04"/>
<polygon fill="midnightblue" stroke="midnightblue" points="988.34,-134.51 979.13,-139.75 989.6,-141.4 988.34,-134.51"/>
</g>
<!-- Node17 -->
<g id="node17" class="node">
<title>Node17</title>
<g id="a_node17"><a xlink:href="f__op__actor__mng_8h.html" target="_top" xlink:title=" ">
<polygon fill="white" stroke="black" points="1335,-67.5 1335,-97.5 1432,-97.5 1432,-67.5 1335,-67.5"/>
<text text-anchor="start" x="1343" y="-85.5" font-family="Helvetica,sans-Serif" font-size="10.00">include/f/f_op/f_op</text>
<text text-anchor="middle" x="1383.5" y="-74.5" font-family="Helvetica,sans-Serif" font-size="10.00">_actor_mng.h</text>
</a>
</g>
</g>
<!-- Node11&#45;&gt;Node17 -->
<g id="edge17" class="edge">
<title>Node11&#45;&gt;Node17</title>
<path fill="none" stroke="midnightblue" d="M989.33,-143.27C1066.99,-135.84 1207.75,-120.59 1326.5,-98 1329.21,-97.48 1331.98,-96.92 1334.77,-96.31"/>
<polygon fill="midnightblue" stroke="midnightblue" points="988.89,-139.79 979.26,-144.22 989.55,-146.76 988.89,-139.79"/>
</g>
<!-- Node17&#45;&gt;Node12 -->
<g id="edge21" class="edge">
<title>Node17&#45;&gt;Node12</title>
<path fill="none" stroke="midnightblue" d="M1324.65,-66.79C1189.41,-42.22 1040.84,-27.84 960.14,-21.09"/>
<polygon fill="midnightblue" stroke="midnightblue" points="1324.31,-70.29 1334.78,-68.66 1325.57,-63.4 1324.31,-70.29"/>
</g>
<!-- Node18 -->
<g id="node18" class="node">
<title>Node18</title>
<g id="a_node18"><a xlink:href="d__attention_8cpp.html" target="_top" xlink:title=" ">
<polygon fill="white" stroke="black" points="1092,-6 1092,-25 1199,-25 1199,-6 1092,-6"/>
<text text-anchor="middle" x="1145.5" y="-13" font-family="Helvetica,sans-Serif" font-size="10.00">src/d/d_attention.cpp</text>
</a>
</g>
</g>
<!-- Node17&#45;&gt;Node18 -->
<g id="edge18" class="edge">
<title>Node17&#45;&gt;Node18</title>
<path fill="none" stroke="midnightblue" d="M1325.04,-65.54C1278.22,-52.75 1214.34,-35.3 1176.75,-25.03"/>
<polygon fill="midnightblue" stroke="midnightblue" points="1324.19,-68.93 1334.76,-68.19 1326.04,-62.18 1324.19,-68.93"/>
</g>
<!-- Node19 -->
<g id="node19" class="node">
<title>Node19</title>
<g id="a_node19"><a xlink:href="d__camera_8cpp.html" target="_top" xlink:title=" ">
<polygon fill="white" stroke="black" points="1216.5,-6 1216.5,-25 1318.5,-25 1318.5,-6 1216.5,-6"/>
<text text-anchor="middle" x="1267.5" y="-13" font-family="Helvetica,sans-Serif" font-size="10.00">src/d/d_camera.cpp</text>
</a>
</g>
</g>
<!-- Node17&#45;&gt;Node19 -->
<g id="edge19" class="edge">
<title>Node17&#45;&gt;Node19</title>
<path fill="none" stroke="midnightblue" d="M1349.54,-62.47C1327.4,-50.06 1299.57,-34.47 1282.68,-25.01"/>
<polygon fill="midnightblue" stroke="midnightblue" points="1347.9,-65.56 1358.33,-67.4 1351.32,-59.45 1347.9,-65.56"/>
</g>
<!-- Node20 -->
<g id="node20" class="node">
<title>Node20</title>
<g id="a_node20"><a xlink:href="d__stage_8cpp.html" target="_top" xlink:title=" ">
<polygon fill="white" stroke="black" points="1336.5,-6 1336.5,-25 1430.5,-25 1430.5,-6 1336.5,-6"/>
<text text-anchor="middle" x="1383.5" y="-13" font-family="Helvetica,sans-Serif" font-size="10.00">src/d/d_stage.cpp</text>
</a>
</g>
</g>
<!-- Node17&#45;&gt;Node20 -->
<g id="edge20" class="edge">
<title>Node17&#45;&gt;Node20</title>
<path fill="none" stroke="midnightblue" d="M1383.5,-57.25C1383.5,-46.02 1383.5,-33.38 1383.5,-25.19"/>
<polygon fill="midnightblue" stroke="midnightblue" points="1380,-57.4 1383.5,-67.4 1387,-57.4 1380,-57.4"/>
</g>
<!-- Node21 -->
<g id="node21" class="node">
<title>Node21</title>
<g id="a_node21"><a xlink:href="f__op__actor__mng_8cpp.html" target="_top" xlink:title=" ">
<polygon fill="white" stroke="black" points="1449,-0.5 1449,-30.5 1556,-30.5 1556,-0.5 1449,-0.5"/>
<text text-anchor="start" x="1457" y="-18.5" font-family="Helvetica,sans-Serif" font-size="10.00">src/f/f_op/f_op_actor</text>
<text text-anchor="middle" x="1502.5" y="-7.5" font-family="Helvetica,sans-Serif" font-size="10.00">_mng.cpp</text>
</a>
</g>
</g>
<!-- Node17&#45;&gt;Node21 -->
<g id="edge22" class="edge">
<title>Node17&#45;&gt;Node21</title>
<path fill="none" stroke="midnightblue" d="M1418.15,-62.57C1436.87,-52.35 1459.59,-39.94 1476.73,-30.58"/>
<polygon fill="midnightblue" stroke="midnightblue" points="1416.42,-59.53 1409.32,-67.4 1419.78,-65.67 1416.42,-59.53"/>
</g>
<!-- Node22 -->
<g id="node22" class="node">
<title>Node22</title>
<g id="a_node22"><a xlink:href="m__Do__main_8cpp.html" target="_top" xlink:title=" ">
<polygon fill="white" stroke="black" points="1574,-6 1574,-25 1705,-25 1705,-6 1574,-6"/>
<text text-anchor="middle" x="1639.5" y="-13" font-family="Helvetica,sans-Serif" font-size="10.00">src/m_Do/m_Do_main.cpp</text>
</a>
</g>
</g>
<!-- Node17&#45;&gt;Node22 -->
<g id="edge23" class="edge">
<title>Node17&#45;&gt;Node22</title>
<path fill="none" stroke="midnightblue" d="M1442.11,-66.62C1492.85,-53.73 1564.45,-35.56 1606.02,-25"/>
<polygon fill="midnightblue" stroke="midnightblue" points="1441.09,-63.27 1432.25,-69.12 1442.81,-70.05 1441.09,-63.27"/>
</g>
</g>
</svg>
