<?xml version="1.0" encoding="UTF-8" standalone="no"?>
<!DOCTYPE svg PUBLIC "-//W3C//DTD SVG 1.1//EN"
 "http://www.w3.org/Graphics/SVG/1.1/DTD/svg11.dtd">
<!-- Generated by graphviz version 7.0.5 (20221223.1930)
 -->
<!-- Title: include/SSystem/SComponent/c_xyz.h Pages: 1 -->
<svg width="5097pt" height="236pt"
 viewBox="0.00 0.00 5097.00 236.00" xmlns="http://www.w3.org/2000/svg" xmlns:xlink="http://www.w3.org/1999/xlink">
<g id="graph0" class="graph" transform="scale(1 1) rotate(0) translate(4 232)">
<title>include/SSystem/SComponent/c_xyz.h</title>
<!-- Node1 -->
<g id="node1" class="node">
<title>Node1</title>
<g id="a_node1"><a xlink:title=" ">
<polygon fill="#999999" stroke="#666666" points="2908.5,-228 2759.5,-228 2759.5,-198 2908.5,-198 2908.5,-228"/>
<text text-anchor="start" x="2767.5" y="-216" font-family="Helvetica,sans-Serif" font-size="10.00">include/SSystem/SComponent</text>
<text text-anchor="middle" x="2834" y="-205" font-family="Helvetica,sans-Serif" font-size="10.00">/c_xyz.h</text>
</a>
</g>
</g>
<!-- Node2 -->
<g id="node2" class="node">
<title>Node2</title>
<g id="a_node2"><a xlink:href="c__angle_8h.html" target="_top" xlink:title=" ">
<polygon fill="white" stroke="#666666" points="345.5,-162 196.5,-162 196.5,-132 345.5,-132 345.5,-162"/>
<text text-anchor="start" x="204.5" y="-150" font-family="Helvetica,sans-Serif" font-size="10.00">include/SSystem/SComponent</text>
<text text-anchor="middle" x="271" y="-139" font-family="Helvetica,sans-Serif" font-size="10.00">/c_angle.h</text>
</a>
</g>
</g>
<!-- Node1&#45;&gt;Node2 -->
<g id="edge1" class="edge">
<title>Node1&#45;&gt;Node2</title>
<path fill="none" stroke="#63b8ff" d="M2747.72,-211.09C2444.3,-207.7 1398.1,-194.26 535,-162 471.13,-159.61 398.63,-155.68 345.79,-152.59"/>
<polygon fill="#63b8ff" stroke="#63b8ff" points="2747.5,-214.59 2757.54,-211.2 2747.58,-207.59 2747.5,-214.59"/>
</g>
<!-- Node201 -->
<g id="node6" class="node">
<title>Node201</title>
<g id="a_node6"><a xlink:href="c__bg__s__gnd__chk_8h.html" target="_top" xlink:title=" ">
<polygon fill="white" stroke="#666666" points="693.5,-162 544.5,-162 544.5,-132 693.5,-132 693.5,-162"/>
<text text-anchor="start" x="552.5" y="-150" font-family="Helvetica,sans-Serif" font-size="10.00">include/SSystem/SComponent</text>
<text text-anchor="middle" x="619" y="-139" font-family="Helvetica,sans-Serif" font-size="10.00">/c_bg_s_gnd_chk.h</text>
</a>
</g>
</g>
<!-- Node1&#45;&gt;Node201 -->
<g id="edge5" class="edge">
<title>Node1&#45;&gt;Node201</title>
<path fill="none" stroke="#63b8ff" d="M2748.13,-211.27C2469.48,-208.58 1565.21,-197.53 818,-162 776.83,-160.04 730.94,-156.88 693.61,-154.06"/>
<polygon fill="#63b8ff" stroke="#63b8ff" points="2747.81,-214.76 2757.84,-211.36 2747.88,-207.76 2747.81,-214.76"/>
</g>
<!-- Node224 -->
<g id="node9" class="node">
<title>Node224</title>
<g id="a_node9"><a xlink:href="c__lib_8h.html" target="_top" xlink:title=" ">
<polygon fill="white" stroke="#666666" points="1230.5,-162 1081.5,-162 1081.5,-132 1230.5,-132 1230.5,-162"/>
<text text-anchor="start" x="1089.5" y="-150" font-family="Helvetica,sans-Serif" font-size="10.00">include/SSystem/SComponent</text>
<text text-anchor="middle" x="1156" y="-139" font-family="Helvetica,sans-Serif" font-size="10.00">/c_lib.h</text>
</a>
</g>
</g>
<!-- Node1&#45;&gt;Node224 -->
<g id="edge8" class="edge">
<title>Node1&#45;&gt;Node224</title>
<path fill="none" stroke="#63b8ff" d="M2748.16,-209.6C2526.37,-203.27 1916.06,-185.02 1408,-162 1348.47,-159.3 1281.07,-155.52 1230.96,-152.57"/>
<polygon fill="#63b8ff" stroke="#63b8ff" points="2747.76,-213.09 2757.86,-209.88 2747.96,-206.1 2747.76,-213.09"/>
</g>
<!-- Node230 -->
<g id="node16" class="node">
<title>Node230</title>
<g id="a_node16"><a xlink:href="c__m3d__g__aab_8h.html" target="_top" xlink:title=" ">
<polygon fill="#fff0f0" stroke="red" points="2040.5,-96 1891.5,-96 1891.5,-66 2040.5,-66 2040.5,-96"/>
<text text-anchor="start" x="1899.5" y="-84" font-family="Helvetica,sans-Serif" font-size="10.00">include/SSystem/SComponent</text>
<text text-anchor="middle" x="1966" y="-73" font-family="Helvetica,sans-Serif" font-size="10.00">/c_m3d_g_aab.h</text>
</a>
</g>
</g>
<!-- Node1&#45;&gt;Node230 -->
<g id="edge15" class="edge">
<title>Node1&#45;&gt;Node230</title>
<path fill="none" stroke="#63b8ff" d="M2747.77,-212.4C2544.58,-212.57 2048.41,-208.2 1990,-162 1970.1,-146.26 1966.19,-114.65 1965.71,-96.23"/>
<polygon fill="#63b8ff" stroke="#63b8ff" points="2747.76,-215.9 2757.75,-212.39 2747.75,-208.9 2747.76,-215.9"/>
</g>
<!-- Node249 -->
<g id="node20" class="node">
<title>Node249</title>
<g id="a_node20"><a xlink:href="d__bg__w_8h.html" target="_top" xlink:title=" ">
<polygon fill="#fff0f0" stroke="red" points="2368.5,-24.5 2255.5,-24.5 2255.5,-5.5 2368.5,-5.5 2368.5,-24.5"/>
<text text-anchor="middle" x="2312" y="-12.5" font-family="Helvetica,sans-Serif" font-size="10.00">include/d/bg/d_bg_w.h</text>
</a>
</g>
</g>
<!-- Node1&#45;&gt;Node249 -->
<g id="edge35" class="edge">
<title>Node1&#45;&gt;Node249</title>
<path fill="none" stroke="#63b8ff" d="M2748.11,-209.83C2544.49,-204.28 2047.55,-188.11 2023,-162 2013.87,-152.29 2015.53,-143.05 2023,-132 2052.64,-88.16 2205.93,-43.54 2276.44,-24.97"/>
<polygon fill="#63b8ff" stroke="#63b8ff" points="2747.74,-213.33 2757.83,-210.1 2747.93,-206.33 2747.74,-213.33"/>
</g>
<!-- Node257 -->
<g id="node23" class="node">
<title>Node257</title>
<g id="a_node23"><a xlink:href="c__m3d__g__cyl_8h.html" target="_top" xlink:title=" ">
<polygon fill="#fff0f0" stroke="red" points="1667.5,-96 1518.5,-96 1518.5,-66 1667.5,-66 1667.5,-96"/>
<text text-anchor="start" x="1526.5" y="-84" font-family="Helvetica,sans-Serif" font-size="10.00">include/SSystem/SComponent</text>
<text text-anchor="middle" x="1593" y="-73" font-family="Helvetica,sans-Serif" font-size="10.00">/c_m3d_g_cyl.h</text>
</a>
</g>
</g>
<!-- Node1&#45;&gt;Node257 -->
<g id="edge22" class="edge">
<title>Node1&#45;&gt;Node257</title>
<path fill="none" stroke="#63b8ff" d="M2748,-212.45C2527.2,-212.91 1944.61,-209.44 1758,-162 1703.54,-148.16 1645.74,-115.37 1615.1,-96.35"/>
<polygon fill="#63b8ff" stroke="#63b8ff" points="2747.68,-215.96 2757.67,-212.43 2747.66,-208.96 2747.68,-215.96"/>
</g>
<!-- Node259 -->
<g id="node24" class="node">
<title>Node259</title>
<g id="a_node24"><a xlink:href="c__m3d__g__lin_8h.html" target="_top" xlink:title=" ">
<polygon fill="#fff0f0" stroke="red" points="1937.5,-162 1788.5,-162 1788.5,-132 1937.5,-132 1937.5,-162"/>
<text text-anchor="start" x="1796.5" y="-150" font-family="Helvetica,sans-Serif" font-size="10.00">include/SSystem/SComponent</text>
<text text-anchor="middle" x="1863" y="-139" font-family="Helvetica,sans-Serif" font-size="10.00">/c_m3d_g_lin.h</text>
</a>
</g>
</g>
<!-- Node1&#45;&gt;Node259 -->
<g id="edge25" class="edge">
<title>Node1&#45;&gt;Node259</title>
<path fill="none" stroke="#63b8ff" d="M2748.12,-209.97C2590.15,-205.59 2242.97,-193.06 1952,-162 1947.33,-161.5 1942.54,-160.93 1937.71,-160.3"/>
<polygon fill="#63b8ff" stroke="#63b8ff" points="2747.56,-213.45 2757.65,-210.22 2747.75,-206.45 2747.56,-213.45"/>
</g>
<!-- Node269 -->
<g id="node25" class="node">
<title>Node269</title>
<g id="a_node25"><a xlink:href="c__m3d__g__pla_8h.html" target="_top" xlink:title=" ">
<polygon fill="#fff0f0" stroke="red" points="2181.5,-162 2032.5,-162 2032.5,-132 2181.5,-132 2181.5,-162"/>
<text text-anchor="start" x="2040.5" y="-150" font-family="Helvetica,sans-Serif" font-size="10.00">include/SSystem/SComponent</text>
<text text-anchor="middle" x="2107" y="-139" font-family="Helvetica,sans-Serif" font-size="10.00">/c_m3d_g_pla.h</text>
</a>
</g>
</g>
<!-- Node1&#45;&gt;Node269 -->
<g id="edge28" class="edge">
<title>Node1&#45;&gt;Node269</title>
<path fill="none" stroke="#63b8ff" d="M2747.8,-207.7C2624.19,-200.99 2389.59,-186.22 2191,-162 2187.92,-161.62 2184.78,-161.22 2181.61,-160.78"/>
<polygon fill="#63b8ff" stroke="#63b8ff" points="2747.36,-211.18 2757.53,-208.22 2747.73,-204.19 2747.36,-211.18"/>
</g>
<!-- Node308 -->
<g id="node26" class="node">
<title>Node308</title>
<g id="a_node26"><a xlink:href="c__m3d__g__sph_8h.html" target="_top" xlink:title=" ">
<polygon fill="#fff0f0" stroke="red" points="1834.5,-96 1685.5,-96 1685.5,-66 1834.5,-66 1834.5,-96"/>
<text text-anchor="start" x="1693.5" y="-84" font-family="Helvetica,sans-Serif" font-size="10.00">include/SSystem/SComponent</text>
<text text-anchor="middle" x="1760" y="-73" font-family="Helvetica,sans-Serif" font-size="10.00">/c_m3d_g_sph.h</text>
</a>
</g>
</g>
<!-- Node1&#45;&gt;Node308 -->
<g id="edge29" class="edge">
<title>Node1&#45;&gt;Node308</title>
<path fill="none" stroke="#63b8ff" d="M2747.78,-210.72C2502.5,-206.7 1816.05,-192.74 1779,-162 1759.88,-146.14 1757.98,-114.88 1758.71,-96.48"/>
<polygon fill="#63b8ff" stroke="#63b8ff" points="2747.56,-214.21 2757.61,-210.88 2747.67,-207.21 2747.56,-214.21"/>
</g>
<!-- Node312 -->
<g id="node27" class="node">
<title>Node312</title>
<g id="a_node27"><a xlink:href="Z2Creature_8h.html" target="_top" xlink:title=" ">
<polygon fill="#fff0f0" stroke="red" points="2300,-162 2200,-162 2200,-132 2300,-132 2300,-162"/>
<text text-anchor="start" x="2208" y="-150" font-family="Helvetica,sans-Serif" font-size="10.00">include/Z2AudioLib</text>
<text text-anchor="middle" x="2250" y="-139" font-family="Helvetica,sans-Serif" font-size="10.00">/Z2Creature.h</text>
</a>
</g>
</g>
<!-- Node1&#45;&gt;Node312 -->
<g id="edge32" class="edge">
<title>Node1&#45;&gt;Node312</title>
<path fill="none" stroke="#63b8ff" d="M2747.83,-207.45C2643.44,-201.1 2462.45,-187.39 2309,-162 2306.2,-161.54 2303.33,-161.01 2300.44,-160.45"/>
<polygon fill="#63b8ff" stroke="#63b8ff" points="2747.54,-210.94 2757.74,-208.04 2747.96,-203.95 2747.54,-210.94"/>
</g>
<!-- Node316 -->
<g id="node28" class="node">
<title>Node316</title>
<g id="a_node28"><a xlink:href="d__bg__s__roof__chk_8h.html" target="_top" xlink:title=" ">
<polygon fill="#fff0f0" stroke="red" points="2422,-162 2318,-162 2318,-132 2422,-132 2422,-162"/>
<text text-anchor="start" x="2326" y="-150" font-family="Helvetica,sans-Serif" font-size="10.00">include/d/bg/d_bg_s</text>
<text text-anchor="middle" x="2370" y="-139" font-family="Helvetica,sans-Serif" font-size="10.00">_roof_chk.h</text>
</a>
</g>
</g>
<!-- Node1&#45;&gt;Node316 -->
<g id="edge33" class="edge">
<title>Node1&#45;&gt;Node316</title>
<path fill="none" stroke="#63b8ff" d="M2747.76,-203.88C2665.9,-195.56 2539.59,-181.15 2431,-162 2428.11,-161.49 2425.15,-160.93 2422.17,-160.34"/>
<polygon fill="#63b8ff" stroke="#63b8ff" points="2747.21,-207.34 2757.51,-204.86 2747.91,-200.37 2747.21,-207.34"/>
</g>
<!-- Node318 -->
<g id="node29" class="node">
<title>Node318</title>
<g id="a_node29"><a xlink:href="d__bg__s__spl__grp__chk_8h.html" target="_top" xlink:title=" ">
<polygon fill="#fff0f0" stroke="red" points="2544,-162 2440,-162 2440,-132 2544,-132 2544,-162"/>
<text text-anchor="start" x="2448" y="-150" font-family="Helvetica,sans-Serif" font-size="10.00">include/d/bg/d_bg_s</text>
<text text-anchor="middle" x="2492" y="-139" font-family="Helvetica,sans-Serif" font-size="10.00">_spl_grp_chk.h</text>
</a>
</g>
</g>
<!-- Node1&#45;&gt;Node318 -->
<g id="edge34" class="edge">
<title>Node1&#45;&gt;Node318</title>
<path fill="none" stroke="#63b8ff" d="M2748.01,-197.83C2692.28,-188.37 2618.19,-175.27 2553,-162 2550.13,-161.41 2547.18,-160.8 2544.21,-160.16"/>
<polygon fill="#63b8ff" stroke="#63b8ff" points="2747.33,-201.27 2757.77,-199.48 2748.49,-194.37 2747.33,-201.27"/>
</g>
<!-- Node322 -->
<g id="node30" class="node">
<title>Node322</title>
<g id="a_node30"><a xlink:href="d__demo_8h.html" target="_top" xlink:title=" ">
<polygon fill="#fff0f0" stroke="red" points="2663.5,-156.5 2562.5,-156.5 2562.5,-137.5 2663.5,-137.5 2663.5,-156.5"/>
<text text-anchor="middle" x="2613" y="-144.5" font-family="Helvetica,sans-Serif" font-size="10.00">include/d/d_demo.h</text>
</a>
</g>
</g>
<!-- Node1&#45;&gt;Node322 -->
<g id="edge36" class="edge">
<title>Node1&#45;&gt;Node322</title>
<path fill="none" stroke="#63b8ff" d="M2773.2,-194.39C2731.29,-182.26 2677.32,-166.63 2643.95,-156.96"/>
<polygon fill="#63b8ff" stroke="#63b8ff" points="2772.09,-197.72 2782.67,-197.14 2774.04,-190.99 2772.09,-197.72"/>
</g>
<!-- Node323 -->
<g id="node31" class="node">
<title>Node323</title>
<g id="a_node31"><a xlink:href="d__lib_8h.html" target="_top" xlink:title=" ">
<polygon fill="#fff0f0" stroke="red" points="2768,-156.5 2682,-156.5 2682,-137.5 2768,-137.5 2768,-156.5"/>
<text text-anchor="middle" x="2725" y="-144.5" font-family="Helvetica,sans-Serif" font-size="10.00">include/d/d_lib.h</text>
</a>
</g>
</g>
<!-- Node1&#45;&gt;Node323 -->
<g id="edge37" class="edge">
<title>Node1&#45;&gt;Node323</title>
<path fill="none" stroke="#63b8ff" d="M2799.85,-191.95C2779.89,-180.23 2755.68,-166.01 2740.3,-156.99"/>
<polygon fill="#63b8ff" stroke="#63b8ff" points="2797.84,-194.83 2808.23,-196.87 2801.38,-188.79 2797.84,-194.83"/>
</g>
<!-- Node326 -->
<g id="node32" class="node">
<title>Node326</title>
<g id="a_node32"><a xlink:href="d__spline__path_8h.html" target="_top" xlink:title=" ">
<polygon fill="#fff0f0" stroke="red" points="2881.5,-162 2786.5,-162 2786.5,-132 2881.5,-132 2881.5,-162"/>
<text text-anchor="start" x="2794.5" y="-150" font-family="Helvetica,sans-Serif" font-size="10.00">include/d/d_spline</text>
<text text-anchor="middle" x="2834" y="-139" font-family="Helvetica,sans-Serif" font-size="10.00">_path.h</text>
</a>
</g>
</g>
<!-- Node1&#45;&gt;Node326 -->
<g id="edge38" class="edge">
<title>Node1&#45;&gt;Node326</title>
<path fill="none" stroke="#63b8ff" d="M2834,-186.39C2834,-178.13 2834,-169.28 2834,-162.16"/>
<polygon fill="#63b8ff" stroke="#63b8ff" points="2830.5,-186.28 2834,-196.28 2837.5,-186.28 2830.5,-186.28"/>
</g>
<!-- Node328 -->
<g id="node33" class="node">
<title>Node328</title>
<g id="a_node33"><a xlink:href="d__vibration_8h.html" target="_top" xlink:title=" ">
<polygon fill="#fff0f0" stroke="red" points="3012.5,-156.5 2899.5,-156.5 2899.5,-137.5 3012.5,-137.5 3012.5,-156.5"/>
<text text-anchor="middle" x="2956" y="-144.5" font-family="Helvetica,sans-Serif" font-size="10.00">include/d/d_vibration.h</text>
</a>
</g>
</g>
<!-- Node1&#45;&gt;Node328 -->
<g id="edge39" class="edge">
<title>Node1&#45;&gt;Node328</title>
<path fill="none" stroke="#63b8ff" d="M2871.31,-192.43C2893.82,-180.62 2921.43,-166.14 2938.87,-156.99"/>
<polygon fill="#63b8ff" stroke="#63b8ff" points="2869.95,-189.19 2862.72,-196.93 2873.2,-195.39 2869.95,-189.19"/>
</g>
<!-- Node330 -->
<g id="node34" class="node">
<title>Node330</title>
<g id="a_node34"><a xlink:href="d__event__manager_8h.html" target="_top" xlink:title=" ">
<polygon fill="#fff0f0" stroke="red" points="3151,-162 3031,-162 3031,-132 3151,-132 3151,-162"/>
<text text-anchor="start" x="3039" y="-150" font-family="Helvetica,sans-Serif" font-size="10.00">include/d/event/d_event</text>
<text text-anchor="middle" x="3091" y="-139" font-family="Helvetica,sans-Serif" font-size="10.00">_manager.h</text>
</a>
</g>
</g>
<!-- Node1&#45;&gt;Node330 -->
<g id="edge40" class="edge">
<title>Node1&#45;&gt;Node330</title>
<path fill="none" stroke="#63b8ff" d="M2902.92,-194.84C2943.64,-184.7 2994.61,-172 3033.21,-162.39"/>
<polygon fill="#63b8ff" stroke="#63b8ff" points="2902.32,-191.38 2893.46,-197.19 2904.01,-198.17 2902.32,-191.38"/>
</g>
<!-- Node331 -->
<g id="node35" class="node">
<title>Node331</title>
<g id="a_node35"><a xlink:href="d__kankyo__wether_8h.html" target="_top" xlink:title=" ">
<polygon fill="#fff0f0" stroke="red" points="3267,-162 3169,-162 3169,-132 3267,-132 3267,-162"/>
<text text-anchor="start" x="3177" y="-150" font-family="Helvetica,sans-Serif" font-size="10.00">include/d/kankyo/d</text>
<text text-anchor="middle" x="3218" y="-139" font-family="Helvetica,sans-Serif" font-size="10.00">_kankyo_wether.h</text>
</a>
</g>
</g>
<!-- Node1&#45;&gt;Node331 -->
<g id="edge41" class="edge">
<title>Node1&#45;&gt;Node331</title>
<path fill="none" stroke="#63b8ff" d="M2919.92,-200.84C2985.86,-191.8 3079.01,-177.96 3160,-162 3162.85,-161.44 3165.76,-160.83 3168.7,-160.2"/>
<polygon fill="#63b8ff" stroke="#63b8ff" points="2919.7,-197.34 2910.26,-202.16 2920.64,-204.28 2919.7,-197.34"/>
</g>
<!-- Node418 -->
<g id="node36" class="node">
<title>Node418</title>
<g id="a_node36"><a xlink:href="d__menu__fmap_8h.html" target="_top" xlink:title=" ">
<polygon fill="#fff0f0" stroke="red" points="3405,-162 3285,-162 3285,-132 3405,-132 3405,-162"/>
<text text-anchor="start" x="3293" y="-150" font-family="Helvetica,sans-Serif" font-size="10.00">include/d/menu/d_menu</text>
<text text-anchor="middle" x="3345" y="-139" font-family="Helvetica,sans-Serif" font-size="10.00">_fmap.h</text>
</a>
</g>
</g>
<!-- Node1&#45;&gt;Node418 -->
<g id="edge42" class="edge">
<title>Node1&#45;&gt;Node418</title>
<path fill="none" stroke="#63b8ff" d="M2920.38,-204.48C3009.7,-196.18 3153.04,-181.39 3276,-162 3278.9,-161.54 3281.86,-161.05 3284.85,-160.53"/>
<polygon fill="#63b8ff" stroke="#63b8ff" points="2920.1,-201 2910.46,-205.4 2920.74,-207.97 2920.1,-201"/>
</g>
<!-- Node420 -->
<g id="node37" class="node">
<title>Node420</title>
<g id="a_node37"><a xlink:href="d__meter2__info_8h.html" target="_top" xlink:title=" ">
<polygon fill="#fff0f0" stroke="red" points="3550.5,-162 3423.5,-162 3423.5,-132 3550.5,-132 3550.5,-162"/>
<text text-anchor="start" x="3431.5" y="-150" font-family="Helvetica,sans-Serif" font-size="10.00">include/d/meter/d_meter2</text>
<text text-anchor="middle" x="3487" y="-139" font-family="Helvetica,sans-Serif" font-size="10.00">_info.h</text>
</a>
</g>
</g>
<!-- Node1&#45;&gt;Node420 -->
<g id="edge43" class="edge">
<title>Node1&#45;&gt;Node420</title>
<path fill="none" stroke="#63b8ff" d="M2920.27,-207.36C3033.84,-200.61 3239.54,-186.18 3414,-162 3417.07,-161.57 3420.2,-161.11 3423.36,-160.61"/>
<polygon fill="#63b8ff" stroke="#63b8ff" points="2920.18,-203.86 2910.41,-207.94 2920.6,-210.85 2920.18,-203.86"/>
</g>
<!-- Node421 -->
<g id="node38" class="node">
<title>Node421</title>
<g id="a_node38"><a xlink:href="d__meter__HIO_8h.html" target="_top" xlink:title=" ">
<polygon fill="#fff0f0" stroke="red" points="3691,-162 3569,-162 3569,-132 3691,-132 3691,-162"/>
<text text-anchor="start" x="3577" y="-150" font-family="Helvetica,sans-Serif" font-size="10.00">include/d/meter/d_meter</text>
<text text-anchor="middle" x="3630" y="-139" font-family="Helvetica,sans-Serif" font-size="10.00">_HIO.h</text>
</a>
</g>
</g>
<!-- Node1&#45;&gt;Node421 -->
<g id="edge44" class="edge">
<title>Node1&#45;&gt;Node421</title>
<path fill="none" stroke="#63b8ff" d="M2919.95,-209.66C3056.2,-205.14 3329.95,-192.8 3560,-162 3562.83,-161.62 3565.71,-161.2 3568.61,-160.74"/>
<polygon fill="#63b8ff" stroke="#63b8ff" points="2920.18,-206.15 2910.3,-209.97 2920.41,-213.14 2920.18,-206.15"/>
</g>
<!-- Node423 -->
<g id="node39" class="node">
<title>Node423</title>
<g id="a_node39"><a xlink:href="d__msg__class_8h.html" target="_top" xlink:title=" ">
<polygon fill="#fff0f0" stroke="red" points="3819,-162 3709,-162 3709,-132 3819,-132 3819,-162"/>
<text text-anchor="start" x="3717" y="-150" font-family="Helvetica,sans-Serif" font-size="10.00">include/d/msg/d_msg</text>
<text text-anchor="middle" x="3764" y="-139" font-family="Helvetica,sans-Serif" font-size="10.00">_class.h</text>
</a>
</g>
</g>
<!-- Node1&#45;&gt;Node423 -->
<g id="edge45" class="edge">
<title>Node1&#45;&gt;Node423</title>
<path fill="none" stroke="#63b8ff" d="M2920.19,-211.51C3076.39,-209.63 3416.35,-200.96 3700,-162 3702.82,-161.61 3705.69,-161.17 3708.59,-160.68"/>
<polygon fill="#63b8ff" stroke="#63b8ff" points="2920.28,-208.01 2910.32,-211.62 2920.36,-215.01 2920.28,-208.01"/>
</g>
<!-- Node424 -->
<g id="node40" class="node">
<title>Node424</title>
<g id="a_node40"><a xlink:href="d__particle__copoly_8h.html" target="_top" xlink:title=" ">
<polygon fill="#fff0f0" stroke="red" points="3939,-162 3837,-162 3837,-132 3939,-132 3939,-162"/>
<text text-anchor="start" x="3845" y="-150" font-family="Helvetica,sans-Serif" font-size="10.00">include/d/particle</text>
<text text-anchor="middle" x="3888" y="-139" font-family="Helvetica,sans-Serif" font-size="10.00">/d_particle_copoly.h</text>
</a>
</g>
</g>
<!-- Node1&#45;&gt;Node424 -->
<g id="edge46" class="edge">
<title>Node1&#45;&gt;Node424</title>
<path fill="none" stroke="#63b8ff" d="M2920.25,-212.83C3093.29,-213.37 3494.78,-208.87 3828,-162 3830.86,-161.6 3833.78,-161.12 3836.73,-160.6"/>
<polygon fill="#63b8ff" stroke="#63b8ff" points="2920.46,-209.33 2910.45,-212.8 2920.44,-216.33 2920.46,-209.33"/>
</g>
<!-- Node426 -->
<g id="node41" class="node">
<title>Node426</title>
<g id="a_node41"><a xlink:href="d__s__play_8h.html" target="_top" xlink:title=" ">
<polygon fill="#fff0f0" stroke="red" points="4070.5,-156.5 3957.5,-156.5 3957.5,-137.5 4070.5,-137.5 4070.5,-156.5"/>
<text text-anchor="middle" x="4014" y="-144.5" font-family="Helvetica,sans-Serif" font-size="10.00">include/d/s/d_s_play.h</text>
</a>
</g>
</g>
<!-- Node1&#45;&gt;Node426 -->
<g id="edge47" class="edge">
<title>Node1&#45;&gt;Node426</title>
<path fill="none" stroke="#63b8ff" d="M2920.09,-209.97C3145.56,-204.35 3749.57,-187.32 3948,-162 3957.41,-160.8 3967.47,-158.96 3976.83,-157"/>
<polygon fill="#63b8ff" stroke="#63b8ff" points="2920.1,-206.46 2910.19,-210.21 2920.27,-213.46 2920.1,-206.46"/>
</g>
<!-- Node428 -->
<g id="node42" class="node">
<title>Node428</title>
<g id="a_node42"><a xlink:href="d__save_8h.html" target="_top" xlink:title=" ">
<polygon fill="#fff0f0" stroke="red" points="949,-156.5 827,-156.5 827,-137.5 949,-137.5 949,-156.5"/>
<text text-anchor="middle" x="888" y="-144.5" font-family="Helvetica,sans-Serif" font-size="10.00">include/d/save/d_save.h</text>
</a>
</g>
</g>
<!-- Node1&#45;&gt;Node428 -->
<g id="edge48" class="edge">
<title>Node1&#45;&gt;Node428</title>
<path fill="none" stroke="#63b8ff" d="M2747.82,-211.01C2492.11,-207.75 1715.35,-195.58 1072,-162 1031.05,-159.86 985.05,-156.36 949.29,-153.4"/>
<polygon fill="#63b8ff" stroke="#63b8ff" points="2747.68,-214.5 2757.73,-211.13 2747.77,-207.51 2747.68,-214.5"/>
</g>
<!-- Node429 -->
<g id="node43" class="node">
<title>Node429</title>
<g id="a_node43"><a xlink:href="d__shop__item__ctrl_8h.html" target="_top" xlink:title=" ">
<polygon fill="#fff0f0" stroke="red" points="1531,-162 1417,-162 1417,-132 1531,-132 1531,-162"/>
<text text-anchor="start" x="1425" y="-150" font-family="Helvetica,sans-Serif" font-size="10.00">include/d/shop/d_shop</text>
<text text-anchor="middle" x="1474" y="-139" font-family="Helvetica,sans-Serif" font-size="10.00">_item_ctrl.h</text>
</a>
</g>
</g>
<!-- Node1&#45;&gt;Node429 -->
<g id="edge50" class="edge">
<title>Node1&#45;&gt;Node429</title>
<path fill="none" stroke="#63b8ff" d="M2747.67,-209.58C2551.34,-203.81 2056.39,-187.79 1643,-162 1605.83,-159.68 1564.13,-156.24 1531.45,-153.34"/>
<polygon fill="#63b8ff" stroke="#63b8ff" points="2747.43,-213.08 2757.53,-209.87 2747.64,-206.08 2747.43,-213.08"/>
</g>
<!-- Node430 -->
<g id="node44" class="node">
<title>Node430</title>
<g id="a_node44"><a xlink:href="f__op__kankyo_8h.html" target="_top" xlink:title=" ">
<polygon fill="#fff0f0" stroke="red" points="4223,-156.5 4089,-156.5 4089,-137.5 4223,-137.5 4223,-156.5"/>
<text text-anchor="middle" x="4156" y="-144.5" font-family="Helvetica,sans-Serif" font-size="10.00">include/f_op/f_op_kankyo.h</text>
</a>
</g>
</g>
<!-- Node1&#45;&gt;Node430 -->
<g id="edge52" class="edge">
<title>Node1&#45;&gt;Node430</title>
<path fill="none" stroke="#63b8ff" d="M2920.16,-212.74C3123.01,-213.58 3646.27,-210.4 4080,-162 4090.8,-160.79 4102.37,-158.95 4113.15,-156.99"/>
<polygon fill="#63b8ff" stroke="#63b8ff" points="2920.24,-209.24 2910.23,-212.7 2920.21,-216.24 2920.24,-209.24"/>
</g>
<!-- Node434 -->
<g id="node45" class="node">
<title>Node434</title>
<g id="a_node45"><a xlink:href="f__op__kankyo__mng_8h.html" target="_top" xlink:title=" ">
<polygon fill="#fff0f0" stroke="red" points="4368.5,-162 4241.5,-162 4241.5,-132 4368.5,-132 4368.5,-162"/>
<text text-anchor="start" x="4249.5" y="-150" font-family="Helvetica,sans-Serif" font-size="10.00">include/f_op/f_op_kankyo</text>
<text text-anchor="middle" x="4305" y="-139" font-family="Helvetica,sans-Serif" font-size="10.00">_mng.h</text>
</a>
</g>
</g>
<!-- Node1&#45;&gt;Node434 -->
<g id="edge53" class="edge">
<title>Node1&#45;&gt;Node434</title>
<path fill="none" stroke="#63b8ff" d="M2920.21,-210.65C3183.69,-206.27 3975.93,-190.96 4232,-162 4235.08,-161.65 4238.22,-161.25 4241.39,-160.8"/>
<polygon fill="#63b8ff" stroke="#63b8ff" points="2920.26,-207.15 2910.32,-210.82 2920.38,-214.15 2920.26,-207.15"/>
</g>
<!-- Node435 -->
<g id="node46" class="node">
<title>Node435</title>
<g id="a_node46"><a xlink:href="f__op__msg_8h.html" target="_top" xlink:title=" ">
<polygon fill="#fff0f0" stroke="red" points="4509,-156.5 4387,-156.5 4387,-137.5 4509,-137.5 4509,-156.5"/>
<text text-anchor="middle" x="4448" y="-144.5" font-family="Helvetica,sans-Serif" font-size="10.00">include/f_op/f_op_msg.h</text>
</a>
</g>
</g>
<!-- Node1&#45;&gt;Node435 -->
<g id="edge54" class="edge">
<title>Node1&#45;&gt;Node435</title>
<path fill="none" stroke="#63b8ff" d="M2919.94,-211.08C3201.16,-207.8 4092.22,-194.98 4378,-162 4388.1,-160.84 4398.91,-158.98 4408.94,-157"/>
<polygon fill="#63b8ff" stroke="#63b8ff" points="2920.07,-207.58 2910.11,-211.2 2920.15,-214.58 2920.07,-207.58"/>
</g>
<!-- Node436 -->
<g id="node47" class="node">
<title>Node436</title>
<g id="a_node47"><a xlink:href="f__op__msg__mng_8h.html" target="_top" xlink:title=" ">
<polygon fill="#fff0f0" stroke="red" points="4642.5,-162 4527.5,-162 4527.5,-132 4642.5,-132 4642.5,-162"/>
<text text-anchor="start" x="4535.5" y="-150" font-family="Helvetica,sans-Serif" font-size="10.00">include/f_op/f_op_msg</text>
<text text-anchor="middle" x="4585" y="-139" font-family="Helvetica,sans-Serif" font-size="10.00">_mng.h</text>
</a>
</g>
</g>
<!-- Node1&#45;&gt;Node436 -->
<g id="edge55" class="edge">
<title>Node1&#45;&gt;Node436</title>
<path fill="none" stroke="#63b8ff" d="M2920.09,-211.45C3217.98,-209.23 4203.8,-199.2 4518,-162 4521.07,-161.64 4524.2,-161.2 4527.36,-160.72"/>
<polygon fill="#63b8ff" stroke="#63b8ff" points="2920.43,-207.95 2910.46,-211.52 2920.49,-214.95 2920.43,-207.95"/>
</g>
<!-- Node437 -->
<g id="node48" class="node">
<title>Node437</title>
<g id="a_node48"><a xlink:href="f__op__view_8h.html" target="_top" xlink:title=" ">
<polygon fill="#fff0f0" stroke="red" points="4785,-156.5 4661,-156.5 4661,-137.5 4785,-137.5 4785,-156.5"/>
<text text-anchor="middle" x="4723" y="-144.5" font-family="Helvetica,sans-Serif" font-size="10.00">include/f_op/f_op_view.h</text>
</a>
</g>
</g>
<!-- Node1&#45;&gt;Node437 -->
<g id="edge56" class="edge">
<title>Node1&#45;&gt;Node437</title>
<path fill="none" stroke="#63b8ff" d="M2920.23,-211.54C3233.4,-209.57 4310.16,-200.13 4652,-162 4662.36,-160.84 4673.47,-158.97 4683.75,-156.96"/>
<polygon fill="#63b8ff" stroke="#63b8ff" points="2920.46,-208.04 2910.49,-211.6 2920.51,-215.04 2920.46,-208.04"/>
</g>
<!-- Node440 -->
<g id="node49" class="node">
<title>Node440</title>
<g id="a_node49"><a xlink:href="m__Do__mtx_8h.html" target="_top" xlink:title=" ">
<polygon fill="#fff0f0" stroke="red" points="4936.5,-156.5 4803.5,-156.5 4803.5,-137.5 4936.5,-137.5 4936.5,-156.5"/>
<text text-anchor="middle" x="4870" y="-144.5" font-family="Helvetica,sans-Serif" font-size="10.00">include/m_Do/m_Do_mtx.h</text>
</a>
</g>
</g>
<!-- Node1&#45;&gt;Node440 -->
<g id="edge57" class="edge">
<title>Node1&#45;&gt;Node440</title>
<path fill="none" stroke="#63b8ff" d="M2920.24,-211.6C3248.86,-209.79 4422.71,-200.69 4794,-162 4805.08,-160.85 4816.96,-158.97 4827.96,-156.96"/>
<polygon fill="#63b8ff" stroke="#63b8ff" points="2920.41,-208.1 2910.43,-211.65 2920.44,-215.1 2920.41,-208.1"/>
</g>
<!-- Node452 -->
<g id="node50" class="node">
<title>Node452</title>
<g id="a_node50"><a xlink:href="c__xyz_8cpp.html" target="_top" xlink:title=" ">
<polygon fill="white" stroke="#666666" points="5089,-162 4955,-162 4955,-132 5089,-132 5089,-162"/>
<text text-anchor="start" x="4963" y="-150" font-family="Helvetica,sans-Serif" font-size="10.00">libs/SSystem/SComponent</text>
<text text-anchor="middle" x="5022" y="-139" font-family="Helvetica,sans-Serif" font-size="10.00">/c_xyz.cpp</text>
</a>
</g>
</g>
<!-- Node1&#45;&gt;Node452 -->
<g id="edge58" class="edge">
<title>Node1&#45;&gt;Node452</title>
<path fill="none" stroke="#63b8ff" d="M2920.23,-211.78C3264.77,-210.63 4543.33,-203.59 4946,-162 4948.8,-161.71 4951.66,-161.37 4954.54,-161"/>
<polygon fill="#63b8ff" stroke="#63b8ff" points="2920.36,-208.28 2910.37,-211.81 2920.38,-215.28 2920.36,-208.28"/>
</g>
<!-- Node3 -->
<g id="node3" class="node">
<title>Node3</title>
<g id="a_node3"><a xlink:href="d__attention_8h.html" target="_top" xlink:title=" ">
<polygon fill="#fff0f0" stroke="red" points="114,-90.5 0,-90.5 0,-71.5 114,-71.5 114,-90.5"/>
<text text-anchor="middle" x="57" y="-78.5" font-family="Helvetica,sans-Serif" font-size="10.00">include/d/d_attention.h</text>
</a>
</g>
</g>
<!-- Node2&#45;&gt;Node3 -->
<g id="edge2" class="edge">
<title>Node2&#45;&gt;Node3</title>
<path fill="none" stroke="#63b8ff" d="M211.87,-128.32C171.32,-116.19 119.21,-100.61 86.97,-90.96"/>
<polygon fill="#63b8ff" stroke="#63b8ff" points="210.67,-131.61 221.26,-131.12 212.68,-124.91 210.67,-131.61"/>
</g>
<!-- Node194 -->
<g id="node4" class="node">
<title>Node194</title>
<g id="a_node4"><a xlink:href="d__cam__param_8h.html" target="_top" xlink:title=" ">
<polygon fill="#fff0f0" stroke="red" points="260,-90.5 132,-90.5 132,-71.5 260,-71.5 260,-90.5"/>
<text text-anchor="middle" x="196" y="-78.5" font-family="Helvetica,sans-Serif" font-size="10.00">include/d/d_cam_param.h</text>
</a>
</g>
</g>
<!-- Node2&#45;&gt;Node194 -->
<g id="edge3" class="edge">
<title>Node2&#45;&gt;Node194</title>
<path fill="none" stroke="#63b8ff" d="M245.93,-124.6C232.44,-113.1 216.54,-99.52 206.36,-90.84"/>
<polygon fill="#63b8ff" stroke="#63b8ff" points="243.32,-126.99 253.2,-130.81 247.87,-121.66 243.32,-126.99"/>
</g>
<!-- Node200 -->
<g id="node5" class="node">
<title>Node200</title>
<g id="a_node5"><a xlink:href="c__angle_8cpp.html" target="_top" xlink:title=" ">
<polygon fill="white" stroke="#666666" points="412,-96 278,-96 278,-66 412,-66 412,-96"/>
<text text-anchor="start" x="286" y="-84" font-family="Helvetica,sans-Serif" font-size="10.00">libs/SSystem/SComponent</text>
<text text-anchor="middle" x="345" y="-73" font-family="Helvetica,sans-Serif" font-size="10.00">/c_angle.cpp</text>
</a>
</g>
</g>
<!-- Node2&#45;&gt;Node200 -->
<g id="edge4" class="edge">
<title>Node2&#45;&gt;Node200</title>
<path fill="none" stroke="#63b8ff" d="M295.95,-124.42C306.63,-115.18 318.81,-104.65 328.37,-96.39"/>
<polygon fill="#63b8ff" stroke="#63b8ff" points="293.84,-121.62 288.57,-130.81 298.42,-126.91 293.84,-121.62"/>
</g>
<!-- Node202 -->
<g id="node7" class="node">
<title>Node202</title>
<g id="a_node7"><a xlink:href="d__bg__s__gnd__chk_8h.html" target="_top" xlink:title=" ">
<polygon fill="#fff0f0" stroke="red" points="534,-96 430,-96 430,-66 534,-66 534,-96"/>
<text text-anchor="start" x="438" y="-84" font-family="Helvetica,sans-Serif" font-size="10.00">include/d/bg/d_bg_s</text>
<text text-anchor="middle" x="482" y="-73" font-family="Helvetica,sans-Serif" font-size="10.00">_gnd_chk.h</text>
</a>
</g>
</g>
<!-- Node201&#45;&gt;Node202 -->
<g id="edge6" class="edge">
<title>Node201&#45;&gt;Node202</title>
<path fill="none" stroke="#63b8ff" d="M578.02,-126.86C557.04,-117.05 531.92,-105.32 512.64,-96.31"/>
<polygon fill="#63b8ff" stroke="#63b8ff" points="576.34,-129.94 586.88,-131 579.3,-123.59 576.34,-129.94"/>
</g>
<!-- Node223 -->
<g id="node8" class="node">
<title>Node223</title>
<g id="a_node8"><a xlink:href="c__bg__s__gnd__chk_8cpp.html" target="_top" xlink:title=" ">
<polygon fill="white" stroke="#666666" points="686,-96 552,-96 552,-66 686,-66 686,-96"/>
<text text-anchor="start" x="560" y="-84" font-family="Helvetica,sans-Serif" font-size="10.00">libs/SSystem/SComponent</text>
<text text-anchor="middle" x="619" y="-73" font-family="Helvetica,sans-Serif" font-size="10.00">/c_bg_s_gnd_chk.cpp</text>
</a>
</g>
</g>
<!-- Node201&#45;&gt;Node223 -->
<g id="edge7" class="edge">
<title>Node201&#45;&gt;Node223</title>
<path fill="none" stroke="#63b8ff" d="M619,-120.39C619,-112.13 619,-103.28 619,-96.16"/>
<polygon fill="#63b8ff" stroke="#63b8ff" points="615.5,-120.28 619,-130.28 622.5,-120.28 615.5,-120.28"/>
</g>
<!-- Node205 -->
<g id="node10" class="node">
<title>Node205</title>
<g id="a_node10"><a xlink:href="d__a__item__static_8h.html" target="_top" xlink:title=" ">
<polygon fill="#fff0f0" stroke="red" points="930.5,-96 823.5,-96 823.5,-66 930.5,-66 930.5,-96"/>
<text text-anchor="start" x="831.5" y="-84" font-family="Helvetica,sans-Serif" font-size="10.00">include/d/a/d_a_item</text>
<text text-anchor="middle" x="877" y="-73" font-family="Helvetica,sans-Serif" font-size="10.00">_static.h</text>
</a>
</g>
</g>
<!-- Node224&#45;&gt;Node205 -->
<g id="edge9" class="edge">
<title>Node224&#45;&gt;Node205</title>
<path fill="none" stroke="#63b8ff" d="M1081.88,-129C1034.35,-118.09 973.74,-104.19 930.8,-94.34"/>
<polygon fill="#63b8ff" stroke="#63b8ff" points="1081.03,-132.39 1091.56,-131.22 1082.6,-125.57 1081.03,-132.39"/>
</g>
<!-- Node225 -->
<g id="node11" class="node">
<title>Node225</title>
<g id="a_node11"><a xlink:href="d__stage_8h.html" target="_top" xlink:title=" ">
<polygon fill="#fff0f0" stroke="red" points="805.5,-90.5 704.5,-90.5 704.5,-71.5 805.5,-71.5 805.5,-90.5"/>
<text text-anchor="middle" x="755" y="-78.5" font-family="Helvetica,sans-Serif" font-size="10.00">include/d/d_stage.h</text>
</a>
</g>
</g>
<!-- Node224&#45;&gt;Node225 -->
<g id="edge10" class="edge">
<title>Node224&#45;&gt;Node225</title>
<path fill="none" stroke="#63b8ff" d="M1070,-135.55C1000.63,-126.62 900.67,-112.59 814,-96 806.35,-94.54 798.19,-92.75 790.46,-90.95"/>
<polygon fill="#63b8ff" stroke="#63b8ff" points="1069.43,-139.01 1079.8,-136.81 1070.32,-132.07 1069.43,-139.01"/>
</g>
<!-- Node228 -->
<g id="node12" class="node">
<title>Node228</title>
<g id="a_node12"><a xlink:href="c__lib_8cpp.html" target="_top" xlink:title=" ">
<polygon fill="white" stroke="#666666" points="1083,-96 949,-96 949,-66 1083,-66 1083,-96"/>
<text text-anchor="start" x="957" y="-84" font-family="Helvetica,sans-Serif" font-size="10.00">libs/SSystem/SComponent</text>
<text text-anchor="middle" x="1016" y="-73" font-family="Helvetica,sans-Serif" font-size="10.00">/c_lib.cpp</text>
</a>
</g>
</g>
<!-- Node224&#45;&gt;Node228 -->
<g id="edge11" class="edge">
<title>Node224&#45;&gt;Node228</title>
<path fill="none" stroke="#63b8ff" d="M1114.12,-126.86C1092.68,-117.05 1067.02,-105.32 1047.31,-96.31"/>
<polygon fill="#63b8ff" stroke="#63b8ff" points="1112.65,-130.03 1123.2,-131.01 1115.57,-123.67 1112.65,-130.03"/>
</g>
<!-- Node213 -->
<g id="node13" class="node">
<title>Node213</title>
<g id="a_node13"><a xlink:href="d__a__itembase__static_8cpp.html" target="_top" xlink:title=" ">
<polygon fill="white" stroke="#666666" points="1211,-96 1101,-96 1101,-66 1211,-66 1211,-96"/>
<text text-anchor="start" x="1109" y="-84" font-family="Helvetica,sans-Serif" font-size="10.00">src/d/a/d_a_itembase</text>
<text text-anchor="middle" x="1156" y="-73" font-family="Helvetica,sans-Serif" font-size="10.00">_static.cpp</text>
</a>
</g>
</g>
<!-- Node224&#45;&gt;Node213 -->
<g id="edge12" class="edge">
<title>Node224&#45;&gt;Node213</title>
<path fill="none" stroke="#63b8ff" d="M1156,-120.39C1156,-112.13 1156,-103.28 1156,-96.16"/>
<polygon fill="#63b8ff" stroke="#63b8ff" points="1152.5,-120.28 1156,-130.28 1159.5,-120.28 1152.5,-120.28"/>
</g>
<!-- Node211 -->
<g id="node14" class="node">
<title>Node211</title>
<g id="a_node14"><a xlink:href="d__shop__item__ctrl_8cpp.html" target="_top" xlink:title=" ">
<polygon fill="white" stroke="#666666" points="1500.5,-96 1379.5,-96 1379.5,-66 1500.5,-66 1500.5,-96"/>
<text text-anchor="start" x="1387.5" y="-84" font-family="Helvetica,sans-Serif" font-size="10.00">src/d/shop/d_shop_item</text>
<text text-anchor="middle" x="1440" y="-73" font-family="Helvetica,sans-Serif" font-size="10.00">_ctrl.cpp</text>
</a>
</g>
</g>
<!-- Node224&#45;&gt;Node211 -->
<g id="edge13" class="edge">
<title>Node224&#45;&gt;Node211</title>
<path fill="none" stroke="#63b8ff" d="M1231.25,-129.04C1277.42,-118.64 1335.79,-105.48 1379.06,-95.73"/>
<polygon fill="#63b8ff" stroke="#63b8ff" points="1230.55,-125.61 1221.57,-131.22 1232.09,-132.44 1230.55,-125.61"/>
</g>
<!-- Node229 -->
<g id="node15" class="node">
<title>Node229</title>
<g id="a_node15"><a xlink:href="m__Do__controller__pad_8cpp.html" target="_top" xlink:title=" ">
<polygon fill="white" stroke="#666666" points="1361,-96 1229,-96 1229,-66 1361,-66 1361,-96"/>
<text text-anchor="start" x="1237" y="-84" font-family="Helvetica,sans-Serif" font-size="10.00">src/m_Do/m_Do_controller</text>
<text text-anchor="middle" x="1295" y="-73" font-family="Helvetica,sans-Serif" font-size="10.00">_pad.cpp</text>
</a>
</g>
</g>
<!-- Node224&#45;&gt;Node229 -->
<g id="edge14" class="edge">
<title>Node224&#45;&gt;Node229</title>
<path fill="none" stroke="#63b8ff" d="M1197.58,-126.86C1218.87,-117.05 1244.35,-105.32 1263.91,-96.31"/>
<polygon fill="#63b8ff" stroke="#63b8ff" points="1196.19,-123.64 1188.57,-131 1199.12,-130 1196.19,-123.64"/>
</g>
<!-- Node231 -->
<g id="node17" class="node">
<title>Node231</title>
<g id="a_node17"><a xlink:href="c__bg__s__shdw__draw_8h.html" target="_top" xlink:title=" ">
<polygon fill="#fff0f0" stroke="red" points="1990.5,-30 1841.5,-30 1841.5,0 1990.5,0 1990.5,-30"/>
<text text-anchor="start" x="1849.5" y="-18" font-family="Helvetica,sans-Serif" font-size="10.00">include/SSystem/SComponent</text>
<text text-anchor="middle" x="1916" y="-7" font-family="Helvetica,sans-Serif" font-size="10.00">/c_bg_s_shdw_draw.h</text>
</a>
</g>
</g>
<!-- Node230&#45;&gt;Node231 -->
<g id="edge16" class="edge">
<title>Node230&#45;&gt;Node231</title>
<path fill="none" stroke="#63b8ff" d="M1948,-56.96C1941,-48 1933.21,-38.03 1927.07,-30.16"/>
<polygon fill="#63b8ff" stroke="#63b8ff" points="1945.06,-58.88 1953.97,-64.6 1950.57,-54.57 1945.06,-58.88"/>
</g>
<!-- Node233 -->
<g id="node18" class="node">
<title>Node233</title>
<g id="a_node18"><a xlink:href="c__cc__d_8h.html" target="_top" xlink:title=" ">
<polygon fill="#fff0f0" stroke="red" points="1670.5,-30 1521.5,-30 1521.5,0 1670.5,0 1670.5,-30"/>
<text text-anchor="start" x="1529.5" y="-18" font-family="Helvetica,sans-Serif" font-size="10.00">include/SSystem/SComponent</text>
<text text-anchor="middle" x="1596" y="-7" font-family="Helvetica,sans-Serif" font-size="10.00">/c_cc_d.h</text>
</a>
</g>
</g>
<!-- Node230&#45;&gt;Node233 -->
<g id="edge17" class="edge">
<title>Node230&#45;&gt;Node233</title>
<path fill="none" stroke="#63b8ff" d="M1879.96,-65.12C1816.6,-54.16 1731.29,-39.4 1670.76,-28.93"/>
<polygon fill="#63b8ff" stroke="#63b8ff" points="1879.18,-68.53 1889.63,-66.79 1880.38,-61.64 1879.18,-68.53"/>
</g>
<!-- Node248 -->
<g id="node19" class="node">
<title>Node248</title>
<g id="a_node19"><a xlink:href="d__bg__s__cap__poly_8h.html" target="_top" xlink:title=" ">
<polygon fill="#fff0f0" stroke="red" points="2113,-30 2009,-30 2009,0 2113,0 2113,-30"/>
<text text-anchor="start" x="2017" y="-18" font-family="Helvetica,sans-Serif" font-size="10.00">include/d/bg/d_bg_s</text>
<text text-anchor="middle" x="2061" y="-7" font-family="Helvetica,sans-Serif" font-size="10.00">_cap_poly.h</text>
</a>
</g>
</g>
<!-- Node230&#45;&gt;Node248 -->
<g id="edge18" class="edge">
<title>Node230&#45;&gt;Node248</title>
<path fill="none" stroke="#63b8ff" d="M1996.39,-59.52C2010.48,-50.03 2026.89,-38.98 2039.65,-30.39"/>
<polygon fill="#63b8ff" stroke="#63b8ff" points="1994.68,-56.46 1988.34,-64.95 1998.59,-62.27 1994.68,-56.46"/>
</g>
<!-- Node230&#45;&gt;Node249 -->
<g id="edge19" class="edge">
<title>Node230&#45;&gt;Node249</title>
<path fill="none" stroke="#63b8ff" d="M2052.19,-65.35C2107.62,-55.75 2181.16,-42.66 2246,-30 2254.05,-28.43 2262.63,-26.67 2270.85,-24.94"/>
<polygon fill="#63b8ff" stroke="#63b8ff" points="2051.74,-61.88 2042.49,-67.03 2052.94,-68.77 2051.74,-61.88"/>
</g>
<!-- Node253 -->
<g id="node21" class="node">
<title>Node253</title>
<g id="a_node21"><a xlink:href="d__bg__w__kcol_8h.html" target="_top" xlink:title=" ">
<polygon fill="#fff0f0" stroke="red" points="2237,-30 2131,-30 2131,0 2237,0 2237,-30"/>
<text text-anchor="start" x="2139" y="-18" font-family="Helvetica,sans-Serif" font-size="10.00">include/d/bg/d_bg_w</text>
<text text-anchor="middle" x="2184" y="-7" font-family="Helvetica,sans-Serif" font-size="10.00">_kcol.h</text>
</a>
</g>
</g>
<!-- Node230&#45;&gt;Node253 -->
<g id="edge20" class="edge">
<title>Node230&#45;&gt;Node253</title>
<path fill="none" stroke="#63b8ff" d="M2026.01,-62.38C2060.29,-52.32 2102.73,-39.86 2134.98,-30.39"/>
<polygon fill="#63b8ff" stroke="#63b8ff" points="2025.26,-58.96 2016.65,-65.13 2027.23,-65.67 2025.26,-58.96"/>
</g>
<!-- Node255 -->
<g id="node22" class="node">
<title>Node255</title>
<g id="a_node22"><a xlink:href="c__m3d_8cpp.html" target="_top" xlink:title=" ">
<polygon fill="white" stroke="#666666" points="1823,-30 1689,-30 1689,0 1823,0 1823,-30"/>
<text text-anchor="start" x="1697" y="-18" font-family="Helvetica,sans-Serif" font-size="10.00">libs/SSystem/SComponent</text>
<text text-anchor="middle" x="1756" y="-7" font-family="Helvetica,sans-Serif" font-size="10.00">/c_m3d.cpp</text>
</a>
</g>
</g>
<!-- Node230&#45;&gt;Node255 -->
<g id="edge21" class="edge">
<title>Node230&#45;&gt;Node255</title>
<path fill="none" stroke="#63b8ff" d="M1907.76,-62.25C1874.82,-52.21 1834.16,-39.82 1803.22,-30.39"/>
<polygon fill="#63b8ff" stroke="#63b8ff" points="1906.58,-65.55 1917.16,-65.12 1908.62,-58.85 1906.58,-65.55"/>
</g>
<!-- Node257&#45;&gt;Node233 -->
<g id="edge23" class="edge">
<title>Node257&#45;&gt;Node233</title>
<path fill="none" stroke="#63b8ff" d="M1594.2,-54.39C1594.59,-46.13 1595,-37.28 1595.34,-30.16"/>
<polygon fill="#63b8ff" stroke="#63b8ff" points="1590.71,-54.13 1593.74,-64.28 1597.7,-54.46 1590.71,-54.13"/>
</g>
<!-- Node257&#45;&gt;Node255 -->
<g id="edge24" class="edge">
<title>Node257&#45;&gt;Node255</title>
<path fill="none" stroke="#63b8ff" d="M1640.02,-61.54C1665.22,-51.64 1695.82,-39.63 1719.26,-30.43"/>
<polygon fill="#63b8ff" stroke="#63b8ff" points="1639.02,-58.17 1630.99,-65.08 1641.58,-64.69 1639.02,-58.17"/>
</g>
<!-- Node259&#45;&gt;Node230 -->
<g id="edge26" class="edge">
<title>Node259&#45;&gt;Node230</title>
<path fill="none" stroke="#63b8ff" d="M1895.77,-125.64C1911.13,-116.09 1929.06,-104.95 1942.96,-96.31"/>
<polygon fill="#63b8ff" stroke="#63b8ff" points="1894.05,-122.59 1887.4,-130.84 1897.74,-128.53 1894.05,-122.59"/>
</g>
<!-- Node259&#45;&gt;Node255 -->
<g id="edge27" class="edge">
<title>Node259&#45;&gt;Node255</title>
<path fill="none" stroke="#63b8ff" d="M1861.71,-120.28C1859.71,-103.39 1854.81,-81.63 1843,-66 1831.03,-50.15 1812.47,-38.51 1795.56,-30.46"/>
<polygon fill="#63b8ff" stroke="#63b8ff" points="1858.21,-120.4 1862.58,-130.05 1865.18,-119.78 1858.21,-120.4"/>
</g>
<!-- Node308&#45;&gt;Node233 -->
<g id="edge30" class="edge">
<title>Node308&#45;&gt;Node233</title>
<path fill="none" stroke="#63b8ff" d="M1712.7,-61.54C1687.34,-51.64 1656.55,-39.63 1632.97,-30.43"/>
<polygon fill="#63b8ff" stroke="#63b8ff" points="1711.2,-64.71 1721.79,-65.09 1713.74,-58.19 1711.2,-64.71"/>
</g>
<!-- Node308&#45;&gt;Node255 -->
<g id="edge31" class="edge">
<title>Node308&#45;&gt;Node255</title>
<path fill="none" stroke="#63b8ff" d="M1758.4,-54.39C1757.88,-46.13 1757.33,-37.28 1756.89,-30.16"/>
<polygon fill="#63b8ff" stroke="#63b8ff" points="1754.9,-54.52 1759.02,-64.29 1761.89,-54.09 1754.9,-54.52"/>
</g>
<!-- Node428&#45;&gt;Node225 -->
<g id="edge49" class="edge">
<title>Node428&#45;&gt;Node225</title>
<path fill="none" stroke="#63b8ff" d="M859.47,-132.27C833.39,-119.72 795.6,-101.54 773.34,-90.82"/>
<polygon fill="#63b8ff" stroke="#63b8ff" points="857.61,-135.26 868.14,-136.44 860.65,-128.95 857.61,-135.26"/>
</g>
<!-- Node429&#45;&gt;Node211 -->
<g id="edge51" class="edge">
<title>Node429&#45;&gt;Node211</title>
<path fill="none" stroke="#63b8ff" d="M1461.16,-121.83C1456.56,-113.17 1451.53,-103.7 1447.52,-96.16"/>
<polygon fill="#63b8ff" stroke="#63b8ff" points="1457.96,-123.27 1465.74,-130.46 1464.14,-119.99 1457.96,-123.27"/>
</g>
</g>
</svg>
