<?xml version="1.0" encoding="UTF-8" standalone="no"?>
<!DOCTYPE svg PUBLIC "-//W3C//DTD SVG 1.1//EN"
 "http://www.w3.org/Graphics/SVG/1.1/DTD/svg11.dtd">
<!-- Generated by graphviz version 7.0.5 (20221223.1930)
 -->
<!-- Title: JAIStream Pages: 1 -->
<!--zoomable 687 -->
<svg id="main" version="1.1" xmlns="http://www.w3.org/2000/svg" xmlns:xlink="http://www.w3.org/1999/xlink" xml:space="preserve" onload="init(evt)">
<style type="text/css"><![CDATA[
.edge:hover path { stroke: red; }
.edge:hover polygon { stroke: red; fill: red; }
]]></style>
<script type="text/javascript"><![CDATA[
var edges = document.getElementsByTagName('g');
if (edges && edges.length) {
  for (var i=0;i<edges.length;i++) {
    if (edges[i].id.substr(0,4)=='edge') {
      edges[i].setAttribute('class','edge');
    }
  }
}
]]></script>
        <defs>
                <circle id="rim" cx="0" cy="0" r="7"/>
                <circle id="rim2" cx="0" cy="0" r="3.5"/>
                <g id="zoomPlus">
                        <use xlink:href="#rim" fill="#404040">
                                <set attributeName="fill" to="#808080" begin="zoomplus.mouseover" end="zoomplus.mouseout"/>
                        </use>
                        <path d="M-4,0h8M0,-4v8" fill="none" stroke="white" stroke-width="1.5" pointer-events="none"/>
                </g>
                <g id="zoomMin">
                        <use xlink:href="#rim" fill="#404040">
                                <set attributeName="fill" to="#808080" begin="zoomminus.mouseover" end="zoomminus.mouseout"/>
                        </use>
                        <path d="M-4,0h8" fill="none" stroke="white" stroke-width="1.5" pointer-events="none"/>
                </g>
                <g id="dirArrow">
                        <path fill="none" stroke="white" stroke-width="1.5" d="M0,-3.0v7 M-2.5,-0.5L0,-3.0L2.5,-0.5"/>
                </g>
               <g id="resetDef">
                       <use xlink:href="#rim2" fill="#404040">
                               <set attributeName="fill" to="#808080" begin="reset.mouseover" end="reset.mouseout"/>
                       </use>
               </g>
        </defs>

<script type="text/javascript">
var viewWidth = 1267;
var viewHeight = 687;
var sectionId = 'dynsection-1';
</script>
<script xlink:href="svgpan.js"/>
<svg id="graph" class="graph">
<g id="viewport">
<title>JAIStream</title>
<!-- Node1 -->
<g id="node1" class="node">
<title>Node1</title>
<g id="a_node1"><a xlink:title=" ">
<polygon fill="#999999" stroke="#666666" points="1237,-323.45 1174,-323.45 1174,-304.45 1237,-304.45 1237,-323.45"/>
<text text-anchor="middle" x="1205.5" y="-311.45" font-family="Helvetica,sans-Serif" font-size="10.00">JAIStream</text>
</a>
</g>
</g>
<!-- Node2 -->
<g id="node2" class="node">
<title>Node2</title>
<g id="a_node2"><a xlink:href="classJAISound.html" target="_top" xlink:title=" ">
<polygon fill="white" stroke="#666666" points="1035.5,-570.45 976.5,-570.45 976.5,-551.45 1035.5,-551.45 1035.5,-570.45"/>
<text text-anchor="middle" x="1006" y="-558.45" font-family="Helvetica,sans-Serif" font-size="10.00">JAISound</text>
</a>
</g>
</g>
<!-- Node2&#45;&gt;Node1 -->
<g id="edge1" class="edge">
<title>Node2&#45;&gt;Node1</title>
<path fill="none" stroke="#63b8ff" d="M1016.85,-541.13C1030.14,-515.27 1055.36,-469.16 1083,-433.95 1118.51,-388.7 1169.98,-343.12 1192.82,-323.69"/>
<polygon fill="#63b8ff" stroke="#63b8ff" points="1013.84,-539.33 1012.45,-549.83 1020.09,-542.49 1013.84,-539.33"/>
</g>
<!-- Node3 -->
<g id="node3" class="node">
<title>Node3</title>
<g id="a_node3"><a xlink:href="structJAISoundHandle.html" target="_top" xlink:title=" ">
<polygon fill="white" stroke="#666666" points="1250.5,-570.45 1160.5,-570.45 1160.5,-551.45 1250.5,-551.45 1250.5,-570.45"/>
<text text-anchor="middle" x="1205.5" y="-558.45" font-family="Helvetica,sans-Serif" font-size="10.00">JAISoundHandle</text>
</a>
</g>
</g>
<!-- Node2&#45;&gt;Node3 -->
<g id="edge3" class="edge">
<title>Node2&#45;&gt;Node3</title>
<path fill="none" stroke="#9a32cd" stroke-dasharray="5,2" d="M1047.13,-560.95C1079.9,-560.95 1126.16,-560.95 1160.04,-560.95"/>
<polygon fill="#9a32cd" stroke="#9a32cd" points="1047.23,-557.45 1037.23,-560.95 1047.23,-564.45 1047.23,-557.45"/>
<text text-anchor="middle" x="1108.5" y="-563.95" font-family="Helvetica,sans-Serif" font-size="10.00"> sound_</text>
</g>
<!-- Node3&#45;&gt;Node2 -->
<g id="edge2" class="edge">
<title>Node3&#45;&gt;Node2</title>
<path fill="none" stroke="#9a32cd" stroke-dasharray="5,2" d="M1156.62,-548.58C1149.1,-547.07 1141.37,-545.77 1134,-544.95 1111.47,-542.42 1105.54,-542.6 1083,-544.95 1067.17,-546.6 1049.79,-550.12 1035.65,-553.45"/>
<polygon fill="#9a32cd" stroke="#9a32cd" points="1155.82,-551.99 1166.33,-550.67 1157.29,-545.14 1155.82,-551.99"/>
<text text-anchor="middle" x="1108.5" y="-547.95" font-family="Helvetica,sans-Serif" font-size="10.00"> handle_</text>
</g>
<!-- Node4 -->
<g id="node4" class="node">
<title>Node4</title>
<g id="a_node4"><a xlink:href="classJAIAudible.html" target="_top" xlink:title=" ">
<polygon fill="white" stroke="#666666" points="826,-644.45 762,-644.45 762,-625.45 826,-625.45 826,-644.45"/>
<text text-anchor="middle" x="794" y="-632.45" font-family="Helvetica,sans-Serif" font-size="10.00">JAIAudible</text>
</a>
</g>
</g>
<!-- Node4&#45;&gt;Node2 -->
<g id="edge4" class="edge">
<title>Node4&#45;&gt;Node2</title>
<path fill="none" stroke="#9a32cd" stroke-dasharray="5,2" d="M837.28,-625.39C863.98,-618.84 898.97,-609.29 929,-597.95 949.45,-590.22 971.84,-578.95 986.99,-570.89"/>
<polygon fill="#9a32cd" stroke="#9a32cd" points="836.76,-621.91 827.86,-627.66 838.4,-628.72 836.76,-621.91"/>
<text text-anchor="middle" x="899.5" y="-618.95" font-family="Helvetica,sans-Serif" font-size="10.00"> audible_</text>
</g>
<!-- Node5 -->
<g id="node5" class="node">
<title>Node5</title>
<g id="a_node5"><a xlink:href="structJGeometry_1_1TVec3.html" target="_top" xlink:title=" ">
<polygon fill="white" stroke="#666666" points="613,-644.45 482,-644.45 482,-625.45 613,-625.45 613,-644.45"/>
<text text-anchor="middle" x="547.5" y="-632.45" font-family="Helvetica,sans-Serif" font-size="10.00">JGeometry::TVec3&lt; float &gt;</text>
</a>
</g>
</g>
<!-- Node5&#45;&gt;Node4 -->
<g id="edge5" class="edge">
<title>Node5&#45;&gt;Node4</title>
<path fill="none" stroke="#9a32cd" stroke-dasharray="5,2" d="M624.88,-634.95C671.05,-634.95 727.44,-634.95 761.76,-634.95"/>
<polygon fill="#9a32cd" stroke="#9a32cd" points="624.89,-631.45 614.89,-634.95 624.89,-638.45 624.89,-631.45"/>
<text text-anchor="middle" x="674.5" y="-637.95" font-family="Helvetica,sans-Serif" font-size="10.00"> mPos</text>
</g>
<!-- Node6 -->
<g id="node6" class="node">
<title>Node6</title>
<g id="a_node6"><a xlink:href="structJAIAudience.html" target="_top" xlink:title=" ">
<polygon fill="white" stroke="#666666" points="830,-570.45 758,-570.45 758,-551.45 830,-551.45 830,-570.45"/>
<text text-anchor="middle" x="794" y="-558.45" font-family="Helvetica,sans-Serif" font-size="10.00">JAIAudience</text>
</a>
</g>
</g>
<!-- Node6&#45;&gt;Node2 -->
<g id="edge6" class="edge">
<title>Node6&#45;&gt;Node2</title>
<path fill="none" stroke="#9a32cd" stroke-dasharray="5,2" d="M841.52,-560.95C882.68,-560.95 941.44,-560.95 976.16,-560.95"/>
<polygon fill="#9a32cd" stroke="#9a32cd" points="841.66,-557.45 831.66,-560.95 841.66,-564.45 841.66,-557.45"/>
<text text-anchor="middle" x="899.5" y="-563.95" font-family="Helvetica,sans-Serif" font-size="10.00"> audience_</text>
</g>
<!-- Node7 -->
<g id="node7" class="node">
<title>Node7</title>
<g id="a_node7"><a xlink:href="structJAISoundID.html" target="_top" xlink:title=" ">
<polygon fill="white" stroke="#666666" points="828.5,-533.45 759.5,-533.45 759.5,-514.45 828.5,-514.45 828.5,-533.45"/>
<text text-anchor="middle" x="794" y="-521.45" font-family="Helvetica,sans-Serif" font-size="10.00">JAISoundID</text>
</a>
</g>
</g>
<!-- Node7&#45;&gt;Node2 -->
<g id="edge7" class="edge">
<title>Node7&#45;&gt;Node2</title>
<path fill="none" stroke="#9a32cd" stroke-dasharray="5,2" d="M839.96,-530.96C866.01,-535.12 899.39,-540.6 929,-545.95 944.62,-548.77 961.98,-552.18 976.17,-555.03"/>
<polygon fill="#9a32cd" stroke="#9a32cd" points="840.84,-527.56 830.42,-529.45 839.74,-534.47 840.84,-527.56"/>
<text text-anchor="middle" x="899.5" y="-548.95" font-family="Helvetica,sans-Serif" font-size="10.00"> soundID</text>
</g>
<!-- Node8 -->
<g id="node8" class="node">
<title>Node8</title>
<g id="a_node8"><a xlink:href="structJAISoundStatus__.html" target="_top" xlink:title=" ">
<polygon fill="white" stroke="#666666" points="840.5,-496.45 747.5,-496.45 747.5,-477.45 840.5,-477.45 840.5,-496.45"/>
<text text-anchor="middle" x="794" y="-484.45" font-family="Helvetica,sans-Serif" font-size="10.00">JAISoundStatus_</text>
</a>
</g>
</g>
<!-- Node8&#45;&gt;Node2 -->
<g id="edge8" class="edge">
<title>Node8&#45;&gt;Node2</title>
<path fill="none" stroke="#9a32cd" stroke-dasharray="5,2" d="M852,-497.64C876.18,-503.03 904.4,-510.46 929,-519.95 950.96,-528.42 974.57,-541.92 989.55,-551.1"/>
<polygon fill="#9a32cd" stroke="#9a32cd" points="852.84,-494.24 842.33,-495.56 851.37,-501.09 852.84,-494.24"/>
<text text-anchor="middle" x="899.5" y="-522.95" font-family="Helvetica,sans-Serif" font-size="10.00"> status_</text>
</g>
<!-- Node9 -->
<g id="node9" class="node">
<title>Node9</title>
<g id="a_node9"><a xlink:href="structJAISoundFader.html" target="_top" xlink:title=" ">
<polygon fill="white" stroke="#666666" points="464,-669.45 380,-669.45 380,-650.45 464,-650.45 464,-669.45"/>
<text text-anchor="middle" x="422" y="-657.45" font-family="Helvetica,sans-Serif" font-size="10.00">JAISoundFader</text>
</a>
</g>
</g>
<!-- Node9&#45;&gt;Node2 -->
<g id="edge9" class="edge">
<title>Node9&#45;&gt;Node2</title>
<path fill="none" stroke="#9a32cd" stroke-dasharray="5,2" d="M475.84,-663.86C557.2,-668.84 717.79,-674.52 852,-653.95 887.3,-648.54 897.96,-648.61 929,-630.95 957.53,-614.71 984.11,-585.92 996.95,-570.82"/>
<polygon fill="#9a32cd" stroke="#9a32cd" points="476.14,-660.37 465.94,-663.23 475.69,-667.36 476.14,-660.37"/>
<text text-anchor="middle" x="674.5" y="-670.95" font-family="Helvetica,sans-Serif" font-size="10.00"> fader</text>
</g>
<!-- Node10 -->
<g id="node10" class="node">
<title>Node10</title>
<g id="a_node10"><a xlink:href="structJAISoundParamsTransition_1_1TTransition.html" target="_top" xlink:title=" ">
<polygon fill="white" stroke="#666666" points="136,-592.95 0,-592.95 0,-562.95 136,-562.95 136,-592.95"/>
<text text-anchor="start" x="8" y="-580.95" font-family="Helvetica,sans-Serif" font-size="10.00">JAISoundParamsTransition</text>
<text text-anchor="middle" x="68" y="-569.95" font-family="Helvetica,sans-Serif" font-size="10.00">::TTransition</text>
</a>
</g>
</g>
<!-- Node10&#45;&gt;Node9 -->
<g id="edge10" class="edge">
<title>Node10&#45;&gt;Node9</title>
<path fill="none" stroke="#9a32cd" stroke-dasharray="5,2" d="M142.34,-596.15C146.28,-597.11 150.19,-598.04 154,-598.95 233.8,-617.92 327.28,-639.02 379.78,-650.77"/>
<polygon fill="#9a32cd" stroke="#9a32cd" points="143.19,-592.76 132.65,-593.8 141.54,-599.56 143.19,-592.76"/>
<text text-anchor="middle" x="181" y="-613.95" font-family="Helvetica,sans-Serif" font-size="10.00"> mTransition</text>
</g>
<!-- Node15 -->
<g id="node15" class="node">
<title>Node15</title>
<g id="a_node15"><a xlink:href="structJAISoundParamsTransition.html" target="_top" xlink:title=" ">
<polygon fill="white" stroke="#666666" points="362,-489.45 226,-489.45 226,-470.45 362,-470.45 362,-489.45"/>
<text text-anchor="middle" x="294" y="-477.45" font-family="Helvetica,sans-Serif" font-size="10.00">JAISoundParamsTransition</text>
</a>
</g>
</g>
<!-- Node10&#45;&gt;Node15 -->
<g id="edge16" class="edge">
<title>Node10&#45;&gt;Node15</title>
<path fill="none" stroke="#9a32cd" stroke-dasharray="5,2" d="M114.27,-558.15C161.51,-537.47 233.69,-505.89 270.18,-489.93"/>
<polygon fill="#9a32cd" stroke="#9a32cd" points="113.15,-554.81 105.39,-562.03 115.95,-561.23 113.15,-554.81"/>
<text text-anchor="middle" x="181" y="-586.95" font-family="Helvetica,sans-Serif" font-size="10.00"> mDolby</text>
<text text-anchor="middle" x="181" y="-575.95" font-family="Helvetica,sans-Serif" font-size="10.00">mFxMix</text>
<text text-anchor="middle" x="181" y="-564.95" font-family="Helvetica,sans-Serif" font-size="10.00">mPan</text>
<text text-anchor="middle" x="181" y="-553.95" font-family="Helvetica,sans-Serif" font-size="10.00">mPitch</text>
<text text-anchor="middle" x="181" y="-542.95" font-family="Helvetica,sans-Serif" font-size="10.00">mVolume</text>
</g>
<!-- Node11 -->
<g id="node11" class="node">
<title>Node11</title>
<g id="a_node11"><a xlink:href="structJAISoundParams.html" target="_top" xlink:title=" ">
<polygon fill="white" stroke="#666666" points="840.5,-607.45 747.5,-607.45 747.5,-588.45 840.5,-588.45 840.5,-607.45"/>
<text text-anchor="middle" x="794" y="-595.45" font-family="Helvetica,sans-Serif" font-size="10.00">JAISoundParams</text>
</a>
</g>
</g>
<!-- Node11&#45;&gt;Node2 -->
<g id="edge11" class="edge">
<title>Node11&#45;&gt;Node2</title>
<path fill="none" stroke="#9a32cd" stroke-dasharray="5,2" d="M852.07,-587.89C892.19,-580.82 944.21,-571.66 976.07,-566.05"/>
<polygon fill="#9a32cd" stroke="#9a32cd" points="851.56,-584.43 842.32,-589.61 852.77,-591.32 851.56,-584.43"/>
<text text-anchor="middle" x="899.5" y="-585.95" font-family="Helvetica,sans-Serif" font-size="10.00"> params</text>
</g>
<!-- Node12 -->
<g id="node12" class="node">
<title>Node12</title>
<g id="a_node12"><a xlink:href="structJAISoundParamsProperty.html" target="_top" xlink:title=" ">
<polygon fill="white" stroke="#666666" points="612,-607.45 483,-607.45 483,-588.45 612,-588.45 612,-607.45"/>
<text text-anchor="middle" x="547.5" y="-595.45" font-family="Helvetica,sans-Serif" font-size="10.00">JAISoundParamsProperty</text>
</a>
</g>
</g>
<!-- Node12&#45;&gt;Node11 -->
<g id="edge12" class="edge">
<title>Node12&#45;&gt;Node11</title>
<path fill="none" stroke="#9a32cd" stroke-dasharray="5,2" d="M623.84,-597.95C664.17,-597.95 712.54,-597.95 747.21,-597.95"/>
<polygon fill="#9a32cd" stroke="#9a32cd" points="623.93,-594.45 613.93,-597.95 623.93,-601.45 623.93,-594.45"/>
<text text-anchor="middle" x="674.5" y="-600.95" font-family="Helvetica,sans-Serif" font-size="10.00"> mProperty</text>
</g>
<!-- Node13 -->
<g id="node13" class="node">
<title>Node13</title>
<g id="a_node13"><a xlink:href="structJAISoundParamsMove.html" target="_top" xlink:title=" ">
<polygon fill="white" stroke="#666666" points="606,-457.45 489,-457.45 489,-438.45 606,-438.45 606,-457.45"/>
<text text-anchor="middle" x="547.5" y="-445.45" font-family="Helvetica,sans-Serif" font-size="10.00">JAISoundParamsMove</text>
</a>
</g>
</g>
<!-- Node13&#45;&gt;Node11 -->
<g id="edge13" class="edge">
<title>Node13&#45;&gt;Node11</title>
<path fill="none" stroke="#9a32cd" stroke-dasharray="5,2" d="M568.18,-464.94C600.97,-492.5 669.76,-547.16 736,-579.95 742.23,-583.03 749.11,-585.74 755.86,-588.05"/>
<polygon fill="#9a32cd" stroke="#9a32cd" points="570.6,-462.4 560.71,-458.6 566.07,-467.74 570.6,-462.4"/>
<text text-anchor="middle" x="674.5" y="-570.95" font-family="Helvetica,sans-Serif" font-size="10.00"> mMove</text>
</g>
<!-- Node30 -->
<g id="node30" class="node">
<title>Node30</title>
<g id="a_node30"><a xlink:href="structJAISoundChild.html" target="_top" xlink:title=" ">
<polygon fill="white" stroke="#666666" points="834.5,-337.45 753.5,-337.45 753.5,-318.45 834.5,-318.45 834.5,-337.45"/>
<text text-anchor="middle" x="794" y="-325.45" font-family="Helvetica,sans-Serif" font-size="10.00">JAISoundChild</text>
</a>
</g>
</g>
<!-- Node13&#45;&gt;Node30 -->
<g id="edge40" class="edge">
<title>Node13&#45;&gt;Node30</title>
<path fill="none" stroke="#9a32cd" stroke-dasharray="5,2" d="M591.73,-434.72C604.38,-430.88 618.23,-426.72 631,-422.95 669.59,-411.56 688.72,-425.54 718,-397.95 735.49,-381.46 718.85,-363.8 736,-346.95 740.84,-342.2 746.89,-338.63 753.23,-335.96"/>
<polygon fill="#9a32cd" stroke="#9a32cd" points="590.99,-431.29 582.44,-437.55 593.02,-437.99 590.99,-431.29"/>
<text text-anchor="middle" x="674.5" y="-425.95" font-family="Helvetica,sans-Serif" font-size="10.00"> mMove</text>
</g>
<!-- Node31 -->
<g id="node31" class="node">
<title>Node31</title>
<g id="a_node31"><a xlink:href="structJAIStreamMgr.html" target="_top" xlink:title=" ">
<polygon fill="white" stroke="#666666" points="1046,-406.45 966,-406.45 966,-387.45 1046,-387.45 1046,-406.45"/>
<text text-anchor="middle" x="1006" y="-394.45" font-family="Helvetica,sans-Serif" font-size="10.00">JAIStreamMgr</text>
</a>
</g>
</g>
<!-- Node13&#45;&gt;Node31 -->
<g id="edge46" class="edge">
<title>Node13&#45;&gt;Node31</title>
<path fill="none" stroke="#9a32cd" stroke-dasharray="5,2" d="M617.58,-445.06C694.12,-441.14 820.99,-432.51 929,-414.95 941.71,-412.88 955.46,-409.87 967.72,-406.9"/>
<polygon fill="#9a32cd" stroke="#9a32cd" points="617.53,-441.56 607.71,-445.55 617.88,-448.55 617.53,-441.56"/>
<text text-anchor="middle" x="794" y="-439.95" font-family="Helvetica,sans-Serif" font-size="10.00"> mParams</text>
</g>
<!-- Node14 -->
<g id="node14" class="node">
<title>Node14</title>
<g id="a_node14"><a xlink:href="structJASSoundParams.html" target="_top" xlink:title=" ">
<polygon fill="white" stroke="#666666" points="342.5,-437.45 245.5,-437.45 245.5,-418.45 342.5,-418.45 342.5,-437.45"/>
<text text-anchor="middle" x="294" y="-425.45" font-family="Helvetica,sans-Serif" font-size="10.00">JASSoundParams</text>
</a>
</g>
</g>
<!-- Node14&#45;&gt;Node13 -->
<g id="edge14" class="edge">
<title>Node14&#45;&gt;Node13</title>
<path fill="none" stroke="#9a32cd" stroke-dasharray="5,2" d="M354.24,-432.66C394.81,-435.89 448.35,-440.14 488.63,-443.35"/>
<polygon fill="#9a32cd" stroke="#9a32cd" points="354.65,-429.18 344.41,-431.88 354.1,-436.16 354.65,-429.18"/>
<text text-anchor="middle" x="422" y="-442.95" font-family="Helvetica,sans-Serif" font-size="10.00"> mParams</text>
</g>
<!-- Node14&#45;&gt;Node30 -->
<g id="edge41" class="edge">
<title>Node14&#45;&gt;Node30</title>
<path fill="none" stroke="#9a32cd" stroke-dasharray="5,2" d="M353.83,-416.13C456.47,-395.52 665.65,-353.52 753.13,-335.95"/>
<polygon fill="#9a32cd" stroke="#9a32cd" points="353.35,-412.66 344.23,-418.06 354.73,-419.52 353.35,-412.66"/>
<text text-anchor="middle" x="547.5" y="-391.95" font-family="Helvetica,sans-Serif" font-size="10.00"> mParams</text>
</g>
<!-- Node15&#45;&gt;Node13 -->
<g id="edge15" class="edge">
<title>Node15&#45;&gt;Node13</title>
<path fill="none" stroke="#9a32cd" stroke-dasharray="5,2" d="M373.73,-469.93C410.96,-465.19 454.62,-459.64 488.74,-455.3"/>
<polygon fill="#9a32cd" stroke="#9a32cd" points="373.38,-466.45 363.9,-471.18 374.26,-473.39 373.38,-466.45"/>
<text text-anchor="middle" x="422" y="-470.95" font-family="Helvetica,sans-Serif" font-size="10.00"> mTransition</text>
</g>
<!-- Node16 -->
<g id="node16" class="node">
<title>Node16</title>
<g id="a_node16"><a xlink:href="classJSULink.html" target="_top" xlink:title=" ">
<polygon fill="white" stroke="#666666" points="1065,-285.45 947,-285.45 947,-266.45 1065,-266.45 1065,-285.45"/>
<text text-anchor="middle" x="1006" y="-273.45" font-family="Helvetica,sans-Serif" font-size="10.00">JSULink&lt; JAIStream &gt;</text>
</a>
</g>
</g>
<!-- Node16&#45;&gt;Node1 -->
<g id="edge17" class="edge">
<title>Node16&#45;&gt;Node1</title>
<path fill="none" stroke="#8b1a1a" d="M1069.86,-288.04C1104.48,-294.7 1145.9,-302.67 1173.57,-308"/>
<polygon fill="#8b1a1a" stroke="#8b1a1a" points="1070.86,-284.67 1060.38,-286.22 1069.54,-291.55 1070.86,-284.67"/>
</g>
<!-- Node17 -->
<g id="node17" class="node">
<title>Node17</title>
<g id="a_node17"><a xlink:href="structJSUPtrLink.html" target="_top" xlink:title=" ">
<polygon fill="white" stroke="#666666" points="828,-260.45 760,-260.45 760,-241.45 828,-241.45 828,-260.45"/>
<text text-anchor="middle" x="794" y="-248.45" font-family="Helvetica,sans-Serif" font-size="10.00">JSUPtrLink</text>
</a>
</g>
</g>
<!-- Node17&#45;&gt;Node16 -->
<g id="edge18" class="edge">
<title>Node17&#45;&gt;Node16</title>
<path fill="none" stroke="#63b8ff" d="M839.69,-256.27C870.96,-259.99 913.03,-265 946.9,-269.03"/>
<polygon fill="#63b8ff" stroke="#63b8ff" points="840.12,-252.8 829.78,-255.09 839.29,-259.75 840.12,-252.8"/>
</g>
<!-- Node17&#45;&gt;Node17 -->
<g id="edge21" class="edge">
<title>Node17&#45;&gt;Node17</title>
<path fill="none" stroke="#9a32cd" stroke-dasharray="5,2" d="M775.27,-271.88C777.62,-275.74 783.86,-278.45 794,-278.45 812.54,-278.45 818.05,-269.38 810.52,-260.82"/>
<polygon fill="#9a32cd" stroke="#9a32cd" points="778.66,-272.79 777.19,-262.3 771.8,-271.42 778.66,-272.79"/>
<text text-anchor="middle" x="794" y="-292.45" font-family="Helvetica,sans-Serif" font-size="10.00"> mNext</text>
<text text-anchor="middle" x="794" y="-281.45" font-family="Helvetica,sans-Serif" font-size="10.00">mPrev</text>
</g>
<!-- Node18 -->
<g id="node18" class="node">
<title>Node18</title>
<g id="a_node18"><a xlink:href="structJSUPtrList.html" target="_top" xlink:title=" ">
<polygon fill="white" stroke="#666666" points="580,-323.45 515,-323.45 515,-304.45 580,-304.45 580,-323.45"/>
<text text-anchor="middle" x="547.5" y="-311.45" font-family="Helvetica,sans-Serif" font-size="10.00">JSUPtrList</text>
</a>
</g>
</g>
<!-- Node17&#45;&gt;Node18 -->
<g id="edge20" class="edge">
<title>Node17&#45;&gt;Node18</title>
<path fill="none" stroke="#9a32cd" stroke-dasharray="5,2" d="M769.3,-266.89C755.03,-275.7 736.17,-286.04 718,-291.95 671.58,-307.06 614.83,-311.83 580.19,-313.32"/>
<polygon fill="#9a32cd" stroke="#9a32cd" points="770.97,-269.97 777.52,-261.64 767.21,-264.07 770.97,-269.97"/>
<text text-anchor="middle" x="674.5" y="-322.95" font-family="Helvetica,sans-Serif" font-size="10.00"> mHead</text>
<text text-anchor="middle" x="674.5" y="-311.95" font-family="Helvetica,sans-Serif" font-size="10.00">mTail</text>
</g>
<!-- Node18&#45;&gt;Node17 -->
<g id="edge19" class="edge">
<title>Node18&#45;&gt;Node17</title>
<path fill="none" stroke="#9a32cd" stroke-dasharray="5,2" d="M580.16,-299.58C595.3,-293.15 613.83,-285.92 631,-280.95 674.69,-268.3 726.6,-259.79 759.67,-255.16"/>
<polygon fill="#9a32cd" stroke="#9a32cd" points="578.97,-296.28 571.19,-303.47 581.76,-302.7 578.97,-296.28"/>
<text text-anchor="middle" x="674.5" y="-283.95" font-family="Helvetica,sans-Serif" font-size="10.00"> mList</text>
</g>
<!-- Node34 -->
<g id="node34" class="node">
<title>Node34</title>
<g id="a_node34"><a xlink:href="classJSUList.html" target="_top" xlink:title=" ">
<polygon fill="white" stroke="#666666" points="852,-411.45 736,-411.45 736,-392.45 852,-392.45 852,-411.45"/>
<text text-anchor="middle" x="794" y="-399.45" font-family="Helvetica,sans-Serif" font-size="10.00">JSUList&lt; JAIStream &gt;</text>
</a>
</g>
</g>
<!-- Node18&#45;&gt;Node34 -->
<g id="edge48" class="edge">
<title>Node18&#45;&gt;Node34</title>
<path fill="none" stroke="#63b8ff" d="M584.24,-327.92C621.82,-342.46 682.77,-365.62 736,-383.95 743.85,-386.65 752.36,-389.42 760.35,-391.96"/>
<polygon fill="#63b8ff" stroke="#63b8ff" points="585.83,-324.78 575.24,-324.42 583.29,-331.3 585.83,-324.78"/>
</g>
<!-- Node19 -->
<g id="node19" class="node">
<title>Node19</title>
<g id="a_node19"><a xlink:href="structJAIStream_1_1TInner.html" target="_top" xlink:title=" ">
<polygon fill="white" stroke="#666666" points="1053.5,-240.45 958.5,-240.45 958.5,-221.45 1053.5,-221.45 1053.5,-240.45"/>
<text text-anchor="middle" x="1006" y="-228.45" font-family="Helvetica,sans-Serif" font-size="10.00">JAIStream::TInner</text>
</a>
</g>
</g>
<!-- Node19&#45;&gt;Node1 -->
<g id="edge22" class="edge">
<title>Node19&#45;&gt;Node1</title>
<path fill="none" stroke="#9a32cd" stroke-dasharray="5,2" d="M1050.28,-244.45C1075.14,-252.65 1106.74,-263.86 1134,-275.95 1152.94,-284.35 1173.71,-295.84 1187.77,-303.98"/>
<polygon fill="#9a32cd" stroke="#9a32cd" points="1051.4,-241.13 1040.81,-241.36 1049.23,-247.79 1051.4,-241.13"/>
<text text-anchor="middle" x="1108.5" y="-278.95" font-family="Helvetica,sans-Serif" font-size="10.00"> field_0x0a8</text>
</g>
<!-- Node20 -->
<g id="node20" class="node">
<title>Node20</title>
<g id="a_node20"><a xlink:href="structJASAramStream.html" target="_top" xlink:title=" ">
<polygon fill="white" stroke="#666666" points="839,-223.45 749,-223.45 749,-204.45 839,-204.45 839,-223.45"/>
<text text-anchor="middle" x="794" y="-211.45" font-family="Helvetica,sans-Serif" font-size="10.00">JASAramStream</text>
</a>
</g>
</g>
<!-- Node20&#45;&gt;Node19 -->
<g id="edge23" class="edge">
<title>Node20&#45;&gt;Node19</title>
<path fill="none" stroke="#9a32cd" stroke-dasharray="5,2" d="M850.74,-218.46C884.27,-221.18 926.45,-224.59 958.23,-227.16"/>
<polygon fill="#9a32cd" stroke="#9a32cd" points="851.04,-214.97 840.79,-217.66 850.47,-221.95 851.04,-214.97"/>
<text text-anchor="middle" x="899.5" y="-226.95" font-family="Helvetica,sans-Serif" font-size="10.00"> field_0x0</text>
</g>
<!-- Node21 -->
<g id="node21" class="node">
<title>Node21</title>
<g id="a_node21"><a xlink:href="structOSMessageQueue.html" target="_top" xlink:title=" ">
<polygon fill="white" stroke="#666666" points="597,-247.45 498,-247.45 498,-228.45 597,-228.45 597,-247.45"/>
<text text-anchor="middle" x="547.5" y="-235.45" font-family="Helvetica,sans-Serif" font-size="10.00">OSMessageQueue</text>
</a>
</g>
</g>
<!-- Node21&#45;&gt;Node20 -->
<g id="edge24" class="edge">
<title>Node21&#45;&gt;Node20</title>
<path fill="none" stroke="#9a32cd" stroke-dasharray="5,2" d="M608.65,-232.04C652,-227.79 709.53,-222.14 748.72,-218.3"/>
<polygon fill="#9a32cd" stroke="#9a32cd" points="608.51,-228.54 598.9,-233 609.19,-235.51 608.51,-228.54"/>
<text text-anchor="middle" x="674.5" y="-242.95" font-family="Helvetica,sans-Serif" font-size="10.00"> field_0x000</text>
<text text-anchor="middle" x="674.5" y="-231.95" font-family="Helvetica,sans-Serif" font-size="10.00">field_0x020</text>
</g>
<!-- Node22 -->
<g id="node22" class="node">
<title>Node22</title>
<g id="a_node22"><a xlink:href="structOSThreadQueue.html" target="_top" xlink:title=" ">
<polygon fill="white" stroke="#666666" points="338.5,-153.45 249.5,-153.45 249.5,-134.45 338.5,-134.45 338.5,-153.45"/>
<text text-anchor="middle" x="294" y="-141.45" font-family="Helvetica,sans-Serif" font-size="10.00">OSThreadQueue</text>
</a>
</g>
</g>
<!-- Node22&#45;&gt;Node21 -->
<g id="edge25" class="edge">
<title>Node22&#45;&gt;Node21</title>
<path fill="none" stroke="#9a32cd" stroke-dasharray="5,2" d="M327.3,-158.39C364.24,-174.6 426.76,-201.09 482,-219.95 490.36,-222.8 499.44,-225.55 508.08,-228"/>
<polygon fill="#9a32cd" stroke="#9a32cd" points="329.09,-155.35 318.53,-154.52 326.26,-161.76 329.09,-155.35"/>
<text text-anchor="middle" x="422" y="-225.95" font-family="Helvetica,sans-Serif" font-size="10.00"> receiving_queue</text>
<text text-anchor="middle" x="422" y="-214.95" font-family="Helvetica,sans-Serif" font-size="10.00">sending_queue</text>
</g>
<!-- Node23 -->
<g id="node23" class="node">
<title>Node23</title>
<g id="a_node23"><a xlink:href="structOSThread.html" target="_top" xlink:title=" ">
<polygon fill="white" stroke="#666666" points="578,-77.45 517,-77.45 517,-58.45 578,-58.45 578,-77.45"/>
<text text-anchor="middle" x="547.5" y="-65.45" font-family="Helvetica,sans-Serif" font-size="10.00">OSThread</text>
</a>
</g>
</g>
<!-- Node22&#45;&gt;Node23 -->
<g id="edge28" class="edge">
<title>Node22&#45;&gt;Node23</title>
<path fill="none" stroke="#9a32cd" stroke-dasharray="5,2" d="M349.99,-131.63C390.87,-122.28 443.04,-109.89 464,-102.95 485.57,-95.81 509.37,-85.43 525.84,-77.83"/>
<polygon fill="#9a32cd" stroke="#9a32cd" points="349.25,-128.21 340.27,-133.84 350.8,-135.03 349.25,-128.21"/>
<text text-anchor="middle" x="422" y="-137.95" font-family="Helvetica,sans-Serif" font-size="10.00"> join_queue</text>
<text text-anchor="middle" x="422" y="-126.95" font-family="Helvetica,sans-Serif" font-size="10.00">queue</text>
</g>
<!-- Node26 -->
<g id="node26" class="node">
<title>Node26</title>
<g id="a_node26"><a xlink:href="structOSMutex.html" target="_top" xlink:title=" ">
<polygon fill="white" stroke="#666666" points="822.5,-145.45 765.5,-145.45 765.5,-126.45 822.5,-126.45 822.5,-145.45"/>
<text text-anchor="middle" x="794" y="-133.45" font-family="Helvetica,sans-Serif" font-size="10.00">OSMutex</text>
</a>
</g>
</g>
<!-- Node22&#45;&gt;Node26 -->
<g id="edge32" class="edge">
<title>Node22&#45;&gt;Node26</title>
<path fill="none" stroke="#9a32cd" stroke-dasharray="5,2" d="M350.13,-146.92C360.07,-147.35 370.34,-147.72 380,-147.95 461.5,-149.87 660.41,-151.26 718,-146.95 733.75,-145.77 751.21,-143.28 765.32,-140.96"/>
<polygon fill="#9a32cd" stroke="#9a32cd" points="350.33,-143.43 340.18,-146.47 350.01,-150.42 350.33,-143.43"/>
<text text-anchor="middle" x="547.5" y="-152.95" font-family="Helvetica,sans-Serif" font-size="10.00"> queue</text>
</g>
<!-- Node23&#45;&gt;Node22 -->
<g id="edge26" class="edge">
<title>Node23&#45;&gt;Node22</title>
<path fill="none" stroke="#9a32cd" stroke-dasharray="5,2" d="M505.48,-64.95C470.92,-63.87 420.75,-65.71 380,-80.95 348.69,-92.66 318.94,-119.56 304.35,-134.14"/>
<polygon fill="#9a32cd" stroke="#9a32cd" points="504.91,-68.43 515.05,-65.36 505.21,-61.44 504.91,-68.43"/>
<text text-anchor="middle" x="422" y="-94.95" font-family="Helvetica,sans-Serif" font-size="10.00"> head</text>
<text text-anchor="middle" x="422" y="-83.95" font-family="Helvetica,sans-Serif" font-size="10.00">tail</text>
</g>
<!-- Node25 -->
<g id="node25" class="node">
<title>Node25</title>
<g id="a_node25"><a xlink:href="structOSThreadLink.html" target="_top" xlink:title=" ">
<polygon fill="white" stroke="#666666" points="834,-47.45 754,-47.45 754,-28.45 834,-28.45 834,-47.45"/>
<text text-anchor="middle" x="794" y="-35.45" font-family="Helvetica,sans-Serif" font-size="10.00">OSThreadLink</text>
</a>
</g>
</g>
<!-- Node23&#45;&gt;Node25 -->
<g id="edge30" class="edge">
<title>Node23&#45;&gt;Node25</title>
<path fill="none" stroke="#9a32cd" stroke-dasharray="5,2" d="M589.78,-62.88C635.59,-57.26 708.97,-48.26 753.89,-42.75"/>
<polygon fill="#9a32cd" stroke="#9a32cd" points="589.48,-59.39 579.98,-64.09 590.33,-66.34 589.48,-59.39"/>
<text text-anchor="middle" x="674.5" y="-71.95" font-family="Helvetica,sans-Serif" font-size="10.00"> next</text>
<text text-anchor="middle" x="674.5" y="-60.95" font-family="Helvetica,sans-Serif" font-size="10.00">prev</text>
</g>
<!-- Node23&#45;&gt;Node26 -->
<g id="edge33" class="edge">
<title>Node23&#45;&gt;Node26</title>
<path fill="none" stroke="#9a32cd" stroke-dasharray="5,2" d="M571.88,-84.11C587.83,-94.32 609.82,-106.89 631,-113.95 676.37,-129.08 732.2,-133.82 765.06,-135.3"/>
<polygon fill="#9a32cd" stroke="#9a32cd" points="573.88,-81.23 563.61,-78.65 570.03,-87.08 573.88,-81.23"/>
<text text-anchor="middle" x="674.5" y="-134.95" font-family="Helvetica,sans-Serif" font-size="10.00"> thread</text>
</g>
<!-- Node24 -->
<g id="node24" class="node">
<title>Node24</title>
<g id="a_node24"><a xlink:href="structOSContext.html" target="_top" xlink:title=" ">
<polygon fill="white" stroke="#666666" points="326,-55.45 262,-55.45 262,-36.45 326,-36.45 326,-55.45"/>
<text text-anchor="middle" x="294" y="-43.45" font-family="Helvetica,sans-Serif" font-size="10.00">OSContext</text>
</a>
</g>
</g>
<!-- Node24&#45;&gt;Node23 -->
<g id="edge27" class="edge">
<title>Node24&#45;&gt;Node23</title>
<path fill="none" stroke="#9a32cd" stroke-dasharray="5,2" d="M337.76,-43.34C372.05,-41.94 421.31,-41.47 464,-46.95 481.74,-49.22 501.14,-54.04 516.67,-58.49"/>
<polygon fill="#9a32cd" stroke="#9a32cd" points="337.64,-39.85 327.81,-43.8 337.96,-46.84 337.64,-39.85"/>
<text text-anchor="middle" x="422" y="-49.95" font-family="Helvetica,sans-Serif" font-size="10.00"> context</text>
</g>
<!-- Node25&#45;&gt;Node23 -->
<g id="edge29" class="edge">
<title>Node25&#45;&gt;Node23</title>
<path fill="none" stroke="#9a32cd" stroke-dasharray="5,2" d="M759.24,-24.16C726.03,-12.59 674.19,0.13 631,-12.95 601.67,-21.83 573.24,-44.95 558.64,-58.22"/>
<polygon fill="#9a32cd" stroke="#9a32cd" points="757.73,-27.33 768.32,-27.48 760.13,-20.76 757.73,-27.33"/>
<text text-anchor="middle" x="674.5" y="-26.95" font-family="Helvetica,sans-Serif" font-size="10.00"> active_threads_link</text>
<text text-anchor="middle" x="674.5" y="-15.95" font-family="Helvetica,sans-Serif" font-size="10.00">link</text>
</g>
<!-- Node26&#45;&gt;Node23 -->
<g id="edge31" class="edge">
<title>Node26&#45;&gt;Node23</title>
<path fill="none" stroke="#9a32cd" stroke-dasharray="5,2" d="M763.21,-121.11C749.67,-114.82 733.29,-107.83 718,-102.95 670.2,-87.69 612.63,-77.44 578.38,-72.16"/>
<polygon fill="#9a32cd" stroke="#9a32cd" points="761.49,-124.17 772.02,-125.3 764.5,-117.85 761.49,-124.17"/>
<text text-anchor="middle" x="674.5" y="-105.95" font-family="Helvetica,sans-Serif" font-size="10.00"> mutex</text>
</g>
<!-- Node27 -->
<g id="node27" class="node">
<title>Node27</title>
<g id="a_node27"><a xlink:href="structOSMutexLink.html" target="_top" xlink:title=" ">
<polygon fill="white" stroke="#666666" points="1044,-162.45 968,-162.45 968,-143.45 1044,-143.45 1044,-162.45"/>
<text text-anchor="middle" x="1006" y="-150.45" font-family="Helvetica,sans-Serif" font-size="10.00">OSMutexLink</text>
</a>
</g>
</g>
<!-- Node26&#45;&gt;Node27 -->
<g id="edge35" class="edge">
<title>Node26&#45;&gt;Node27</title>
<path fill="none" stroke="#9a32cd" stroke-dasharray="5,2" d="M833.81,-143.08C845.41,-144.96 858.19,-146.79 870,-147.95 902.91,-151.18 940.52,-152.37 967.67,-152.78"/>
<polygon fill="#9a32cd" stroke="#9a32cd" points="834.61,-139.67 824.17,-141.45 833.45,-146.57 834.61,-139.67"/>
<text text-anchor="middle" x="899.5" y="-165.95" font-family="Helvetica,sans-Serif" font-size="10.00"> next</text>
<text text-anchor="middle" x="899.5" y="-154.95" font-family="Helvetica,sans-Serif" font-size="10.00">prev</text>
</g>
<!-- Node28 -->
<g id="node28" class="node">
<title>Node28</title>
<g id="a_node28"><a xlink:href="structOSMutexQueue.html" target="_top" xlink:title=" ">
<polygon fill="white" stroke="#666666" points="1049,-100.45 963,-100.45 963,-81.45 1049,-81.45 1049,-100.45"/>
<text text-anchor="middle" x="1006" y="-88.45" font-family="Helvetica,sans-Serif" font-size="10.00">OSMutexQueue</text>
</a>
</g>
</g>
<!-- Node26&#45;&gt;Node28 -->
<g id="edge37" class="edge">
<title>Node26&#45;&gt;Node28</title>
<path fill="none" stroke="#9a32cd" stroke-dasharray="5,2" d="M828.21,-121.66C841.06,-116.63 856.01,-111.39 870,-107.95 900.51,-100.44 935.75,-96.15 962.58,-93.75"/>
<polygon fill="#9a32cd" stroke="#9a32cd" points="826.91,-118.41 818.95,-125.4 829.53,-124.9 826.91,-118.41"/>
<text text-anchor="middle" x="899.5" y="-121.95" font-family="Helvetica,sans-Serif" font-size="10.00"> head</text>
<text text-anchor="middle" x="899.5" y="-110.95" font-family="Helvetica,sans-Serif" font-size="10.00">tail</text>
</g>
<!-- Node27&#45;&gt;Node26 -->
<g id="edge34" class="edge">
<title>Node27&#45;&gt;Node26</title>
<path fill="none" stroke="#9a32cd" stroke-dasharray="5,2" d="M956.5,-141.23C947.41,-139.47 937.95,-137.91 929,-136.95 892.45,-133.01 849.98,-133.55 822.81,-134.54"/>
<polygon fill="#9a32cd" stroke="#9a32cd" points="955.76,-144.65 966.26,-143.25 957.17,-137.8 955.76,-144.65"/>
<text text-anchor="middle" x="899.5" y="-139.95" font-family="Helvetica,sans-Serif" font-size="10.00"> link</text>
</g>
<!-- Node28&#45;&gt;Node23 -->
<g id="edge36" class="edge">
<title>Node28&#45;&gt;Node23</title>
<path fill="none" stroke="#9a32cd" stroke-dasharray="5,2" d="M958.73,-77.09C954.7,-75.49 950.74,-73.78 947,-71.95 901.26,-49.59 900.46,-23.54 852,-7.95 834.32,-2.26 654.08,3.95 631,-3.95 599.44,-14.75 570.63,-43.09 556.92,-58.17"/>
<polygon fill="#9a32cd" stroke="#9a32cd" points="957.4,-80.33 968,-80.49 959.82,-73.76 957.4,-80.33"/>
<text text-anchor="middle" x="794" y="-10.95" font-family="Helvetica,sans-Serif" font-size="10.00"> owned_mutexes</text>
</g>
<!-- Node29 -->
<g id="node29" class="node">
<title>Node29</title>
<g id="a_node29"><a xlink:href="structJASChannel.html" target="_top" xlink:title=" ">
<polygon fill="white" stroke="#666666" points="583,-210.45 512,-210.45 512,-191.45 583,-191.45 583,-210.45"/>
<text text-anchor="middle" x="547.5" y="-198.45" font-family="Helvetica,sans-Serif" font-size="10.00">JASChannel</text>
</a>
</g>
</g>
<!-- Node29&#45;&gt;Node20 -->
<g id="edge38" class="edge">
<title>Node29&#45;&gt;Node20</title>
<path fill="none" stroke="#9a32cd" stroke-dasharray="5,2" d="M594.78,-199.32C628.9,-198.58 676.42,-198.52 718,-201.95 727.99,-202.77 738.66,-204.16 748.72,-205.72"/>
<polygon fill="#9a32cd" stroke="#9a32cd" points="594.73,-195.82 584.82,-199.57 594.9,-202.82 594.73,-195.82"/>
<text text-anchor="middle" x="674.5" y="-204.95" font-family="Helvetica,sans-Serif" font-size="10.00"> field_0x090</text>
</g>
<!-- Node30&#45;&gt;Node1 -->
<g id="edge39" class="edge">
<title>Node30&#45;&gt;Node1</title>
<path fill="none" stroke="#9a32cd" stroke-dasharray="5,2" d="M845.95,-326.21C932.03,-323.26 1103.71,-317.39 1173.71,-315"/>
<polygon fill="#9a32cd" stroke="#9a32cd" points="846.02,-322.7 836.15,-326.54 846.26,-329.7 846.02,-322.7"/>
<text text-anchor="middle" x="1006" y="-324.95" font-family="Helvetica,sans-Serif" font-size="10.00"> field_0x2a0</text>
</g>
<!-- Node31&#45;&gt;Node1 -->
<g id="edge42" class="edge">
<title>Node31&#45;&gt;Node1</title>
<path fill="none" stroke="#9a32cd" stroke-dasharray="5,2" d="M1040.97,-382.67C1080.85,-365.91 1145.98,-338.54 1180.79,-323.91"/>
<polygon fill="#9a32cd" stroke="#9a32cd" points="1039.69,-379.41 1031.83,-386.52 1042.4,-385.87 1039.69,-379.41"/>
<text text-anchor="middle" x="1108.5" y="-364.95" font-family="Helvetica,sans-Serif" font-size="10.00"> field_0x2b8</text>
</g>
<!-- Node32 -->
<g id="node32" class="node">
<title>Node32</title>
<g id="a_node32"><a xlink:href="classJASGlobalInstance.html" target="_top" xlink:title=" ">
<polygon fill="white" stroke="#666666" points="1259,-438.95 1152,-438.95 1152,-408.95 1259,-408.95 1259,-438.95"/>
<text text-anchor="start" x="1160" y="-426.95" font-family="Helvetica,sans-Serif" font-size="10.00">JASGlobalInstance&lt;</text>
<text text-anchor="middle" x="1205.5" y="-415.95" font-family="Helvetica,sans-Serif" font-size="10.00"> JAIStreamMgr &gt;</text>
</a>
</g>
</g>
<!-- Node31&#45;&gt;Node32 -->
<g id="edge44" class="edge">
<title>Node31&#45;&gt;Node32</title>
<path fill="none" stroke="#9a32cd" stroke-dasharray="5,2" d="M1039.25,-411.15C1052.53,-416.27 1068.23,-421.4 1083,-423.95 1105.24,-427.78 1130.12,-428.41 1151.54,-427.84"/>
<polygon fill="#9a32cd" stroke="#9a32cd" points="1040.73,-407.97 1030.15,-407.48 1038.11,-414.47 1040.73,-407.97"/>
<text text-anchor="middle" x="1108.5" y="-430.95" font-family="Helvetica,sans-Serif" font-size="10.00"> sInstance</text>
</g>
<!-- Node32&#45;&gt;Node31 -->
<g id="edge43" class="edge">
<title>Node32&#45;&gt;Node31</title>
<path fill="none" stroke="#63b8ff" d="M1140.46,-415.19C1109.52,-410.96 1073.36,-406.02 1046.49,-402.35"/>
<polygon fill="#63b8ff" stroke="#63b8ff" points="1139.72,-418.63 1150.1,-416.51 1140.67,-411.69 1139.72,-418.63"/>
</g>
<!-- Node33 -->
<g id="node33" class="node">
<title>Node33</title>
<g id="a_node33"><a xlink:href="classJAISoundActivity.html" target="_top" xlink:title=" ">
<polygon fill="white" stroke="#666666" points="840,-374.45 748,-374.45 748,-355.45 840,-355.45 840,-374.45"/>
<text text-anchor="middle" x="794" y="-362.45" font-family="Helvetica,sans-Serif" font-size="10.00">JAISoundActivity</text>
</a>
</g>
</g>
<!-- Node33&#45;&gt;Node31 -->
<g id="edge45" class="edge">
<title>Node33&#45;&gt;Node31</title>
<path fill="none" stroke="#9a32cd" stroke-dasharray="5,2" d="M851.72,-371.95C875.62,-375.06 903.7,-378.92 929,-382.95 940.92,-384.85 953.86,-387.14 965.62,-389.32"/>
<polygon fill="#9a32cd" stroke="#9a32cd" points="852.23,-368.48 841.86,-370.68 851.33,-375.43 852.23,-368.48"/>
<text text-anchor="middle" x="899.5" y="-385.95" font-family="Helvetica,sans-Serif" font-size="10.00"> mActivity</text>
</g>
<!-- Node34&#45;&gt;Node31 -->
<g id="edge47" class="edge">
<title>Node34&#45;&gt;Node31</title>
<path fill="none" stroke="#9a32cd" stroke-dasharray="5,2" d="M863.6,-400.32C897.41,-399.51 936.96,-398.57 965.62,-397.89"/>
<polygon fill="#9a32cd" stroke="#9a32cd" points="863.81,-396.81 853.9,-400.55 863.98,-403.81 863.81,-396.81"/>
<text text-anchor="middle" x="899.5" y="-402.95" font-family="Helvetica,sans-Serif" font-size="10.00"> mStreamList</text>
</g>
<!-- Node35 -->
<g id="node35" class="node">
<title>Node35</title>
<g id="a_node35"><a xlink:href="structJAISoundStrategyMgr.html" target="_top" xlink:title=" ">
<polygon fill="white" stroke="#666666" points="1062,-62.95 950,-62.95 950,-32.95 1062,-32.95 1062,-62.95"/>
<text text-anchor="start" x="958" y="-50.95" font-family="Helvetica,sans-Serif" font-size="10.00">JAISoundStrategyMgr</text>
<text text-anchor="middle" x="1006" y="-39.95" font-family="Helvetica,sans-Serif" font-size="10.00">&lt; JAIStream &gt;</text>
</a>
</g>
</g>
<!-- Node35&#45;&gt;Node1 -->
<g id="edge49" class="edge">
<title>Node35&#45;&gt;Node1</title>
<path fill="none" stroke="#9a32cd" stroke-dasharray="5,2" d="M1062.15,-69.6C1063.13,-70.36 1064.08,-71.14 1065,-71.95 1144.47,-141.67 1189.75,-268.13 1201.44,-304.14"/>
<polygon fill="#9a32cd" stroke="#9a32cd" points="1064.28,-66.81 1054,-64.23 1060.43,-72.65 1064.28,-66.81"/>
<text text-anchor="middle" x="1108.5" y="-156.95" font-family="Helvetica,sans-Serif" font-size="10.00"> field_0x2c0</text>
</g>
</g>
</svg>
        <g id="navigator" transform="translate(0 0)" fill="#404254">
                <rect fill="#f2f5e9" fill-opacity="0.5" stroke="#606060" stroke-width=".5" x="0" y="0" width="60" height="60"/>
                <use id="zoomplus" xlink:href="#zoomPlus" x="17" y="9" onmousedown="handleZoom(evt,'in')"/>
                <use id="zoomminus" xlink:href="#zoomMin" x="42" y="9" onmousedown="handleZoom(evt,'out')"/>
                <use id="reset" xlink:href="#resetDef" x="30" y="36" onmousedown="handleReset()"/>
                <g id="arrowUp" xlink:href="#dirArrow" transform="translate(30 24)" onmousedown="handlePan(0,-1)">
                  <use xlink:href="#rim" fill="#404040">
                        <set attributeName="fill" to="#808080" begin="arrowUp.mouseover" end="arrowUp.mouseout"/>
                  </use>
                  <path fill="none" stroke="white" stroke-width="1.5" d="M0,-3.0v7 M-2.5,-0.5L0,-3.0L2.5,-0.5"/>
                </g>
                <g id="arrowRight" xlink:href="#dirArrow" transform="rotate(90) translate(36 -43)" onmousedown="handlePan(1,0)">
                  <use xlink:href="#rim" fill="#404040">
                        <set attributeName="fill" to="#808080" begin="arrowRight.mouseover" end="arrowRight.mouseout"/>
                  </use>
                  <path fill="none" stroke="white" stroke-width="1.5" d="M0,-3.0v7 M-2.5,-0.5L0,-3.0L2.5,-0.5"/>
                </g>
                <g id="arrowDown" xlink:href="#dirArrow" transform="rotate(180) translate(-30 -48)" onmousedown="handlePan(0,1)">
                  <use xlink:href="#rim" fill="#404040">
                        <set attributeName="fill" to="#808080" begin="arrowDown.mouseover" end="arrowDown.mouseout"/>
                  </use>
                  <path fill="none" stroke="white" stroke-width="1.5" d="M0,-3.0v7 M-2.5,-0.5L0,-3.0L2.5,-0.5"/>
                </g>
                <g id="arrowLeft" xlink:href="#dirArrow" transform="rotate(270) translate(-36 17)" onmousedown="handlePan(-1,0)">
                  <use xlink:href="#rim" fill="#404040">
                        <set attributeName="fill" to="#808080" begin="arrowLeft.mouseover" end="arrowLeft.mouseout"/>
                  </use>
                  <path fill="none" stroke="white" stroke-width="1.5" d="M0,-3.0v7 M-2.5,-0.5L0,-3.0L2.5,-0.5"/>
                </g>
        </g>
        <svg viewBox="0 0 15 15" width="100%" height="30px" preserveAspectRatio="xMaxYMin meet">
         <g id="arrow_out" transform="scale(0.3 0.3)">
          <a xlink:href="classJAIStream__coll__graph_org.svg" target="_base">
           <rect id="button" ry="5" rx="5" y="6" x="6" height="38" width="38"
                fill="#f2f5e9" fill-opacity="0.5" stroke="#606060" stroke-width="1.0"/>
           <path id="arrow"
             d="M 11.500037,31.436501 C 11.940474,20.09759 22.043105,11.32322 32.158766,21.979434 L 37.068811,17.246167 C 37.068811,17.246167 37.088388,32 37.088388,32 L 22.160133,31.978069 C 22.160133,31.978069 26.997745,27.140456 26.997745,27.140456 C 18.528582,18.264221 13.291696,25.230495 11.500037,31.436501 z"
             style="fill:#404040;"/>
          </a>
         </g>
        </svg>
</svg>
