<?xml version="1.0" encoding="UTF-8" standalone="no"?>
<!DOCTYPE svg PUBLIC "-//W3C//DTD SVG 1.1//EN"
 "http://www.w3.org/Graphics/SVG/1.1/DTD/svg11.dtd">
<!-- Generated by graphviz version 7.0.5 (20221223.1930)
 -->
<!-- Title: JASPtrTable&lt; T &gt; Pages: 1 -->
<svg width="280pt" height="148pt"
 viewBox="0.00 0.00 280.00 148.00" xmlns="http://www.w3.org/2000/svg" xmlns:xlink="http://www.w3.org/1999/xlink">
<g id="graph0" class="graph" transform="scale(1 1) rotate(0) translate(4 144)">
<title>JASPtrTable&lt; T &gt;</title>
<!-- Node1 -->
<g id="node1" class="node">
<title>Node1</title>
<g id="a_node1"><a xlink:title=" ">
<polygon fill="#999999" stroke="#666666" points="193.5,-140 98.5,-140 98.5,-121 193.5,-121 193.5,-140"/>
<text text-anchor="middle" x="146" y="-128" font-family="Helvetica,sans-Serif" font-size="10.00">JASPtrTable&lt; T &gt;</text>
</a>
</g>
</g>
<!-- Node2 -->
<g id="node2" class="node">
<title>Node2</title>
<g id="a_node2"><a xlink:href="classJASPtrArray.html" target="_top" xlink:title=" ">
<polygon fill="white" stroke="#666666" points="148,-85 0,-85 0,-55 148,-55 148,-85"/>
<text text-anchor="start" x="8" y="-73" font-family="Helvetica,sans-Serif" font-size="10.00">JASPtrArray&lt; JASWaveBank,</text>
<text text-anchor="middle" x="74" y="-62" font-family="Helvetica,sans-Serif" font-size="10.00"> 255 &gt;</text>
</a>
</g>
</g>
<!-- Node1&#45;&gt;Node2 -->
<g id="edge1" class="edge">
<title>Node1&#45;&gt;Node2</title>
<path fill="none" stroke="#63b8ff" d="M126.35,-113.53C115.55,-104.76 102.26,-93.96 91.77,-85.44"/>
<polygon fill="#63b8ff" stroke="#63b8ff" points="123.92,-116.07 133.89,-119.66 128.34,-110.64 123.92,-116.07"/>
</g>
<!-- Node4 -->
<g id="node4" class="node">
<title>Node4</title>
<g id="a_node4"><a xlink:href="classJASPtrArray.html" target="_top" xlink:title=" ">
<polygon fill="white" stroke="#666666" points="272,-79.5 166,-79.5 166,-60.5 272,-60.5 272,-79.5"/>
<text text-anchor="middle" x="219" y="-67.5" font-family="Helvetica,sans-Serif" font-size="10.00">JASPtrArray&lt; T, N &gt;</text>
</a>
</g>
</g>
<!-- Node1&#45;&gt;Node4 -->
<g id="edge3" class="edge">
<title>Node1&#45;&gt;Node4</title>
<path fill="none" stroke="#63b8ff" d="M165.68,-113.73C179.19,-102.9 196.62,-88.93 207.81,-79.97"/>
<polygon fill="#63b8ff" stroke="#63b8ff" points="163.88,-110.68 158.27,-119.67 168.26,-116.15 163.88,-110.68"/>
</g>
<!-- Node3 -->
<g id="node3" class="node">
<title>Node3</title>
<g id="a_node3"><a xlink:href="classJAUWaveBankTable.html" target="_top" xlink:title=" ">
<polygon fill="white" stroke="#666666" points="127.5,-19 20.5,-19 20.5,0 127.5,0 127.5,-19"/>
<text text-anchor="middle" x="74" y="-7" font-family="Helvetica,sans-Serif" font-size="10.00">JAUWaveBankTable</text>
</a>
</g>
</g>
<!-- Node2&#45;&gt;Node3 -->
<g id="edge2" class="edge">
<title>Node2&#45;&gt;Node3</title>
<path fill="none" stroke="#8b1a1a" d="M74,-43.3C74,-34.65 74,-25.58 74,-19.18"/>
<polygon fill="#8b1a1a" stroke="#8b1a1a" points="70.5,-43.03 74,-53.03 77.5,-43.03 70.5,-43.03"/>
</g>
</g>
</svg>
