<?xml version="1.0" encoding="UTF-8" standalone="no"?>
<!DOCTYPE svg PUBLIC "-//W3C//DTD SVG 1.1//EN"
 "http://www.w3.org/Graphics/SVG/1.1/DTD/svg11.dtd">
<!-- Generated by graphviz version 7.0.5 (20221223.1930)
 -->
<!-- Title: JAISe Pages: 1 -->
<!--zoomable 815 -->
<svg id="main" version="1.1" xmlns="http://www.w3.org/2000/svg" xmlns:xlink="http://www.w3.org/1999/xlink" xml:space="preserve" onload="init(evt)">
<style type="text/css"><![CDATA[
.edge:hover path { stroke: red; }
.edge:hover polygon { stroke: red; fill: red; }
]]></style>
<script type="text/javascript"><![CDATA[
var edges = document.getElementsByTagName('g');
if (edges && edges.length) {
  for (var i=0;i<edges.length;i++) {
    if (edges[i].id.substr(0,4)=='edge') {
      edges[i].setAttribute('class','edge');
    }
  }
}
]]></script>
        <defs>
                <circle id="rim" cx="0" cy="0" r="7"/>
                <circle id="rim2" cx="0" cy="0" r="3.5"/>
                <g id="zoomPlus">
                        <use xlink:href="#rim" fill="#404040">
                                <set attributeName="fill" to="#808080" begin="zoomplus.mouseover" end="zoomplus.mouseout"/>
                        </use>
                        <path d="M-4,0h8M0,-4v8" fill="none" stroke="white" stroke-width="1.5" pointer-events="none"/>
                </g>
                <g id="zoomMin">
                        <use xlink:href="#rim" fill="#404040">
                                <set attributeName="fill" to="#808080" begin="zoomminus.mouseover" end="zoomminus.mouseout"/>
                        </use>
                        <path d="M-4,0h8" fill="none" stroke="white" stroke-width="1.5" pointer-events="none"/>
                </g>
                <g id="dirArrow">
                        <path fill="none" stroke="white" stroke-width="1.5" d="M0,-3.0v7 M-2.5,-0.5L0,-3.0L2.5,-0.5"/>
                </g>
               <g id="resetDef">
                       <use xlink:href="#rim2" fill="#404040">
                               <set attributeName="fill" to="#808080" begin="reset.mouseover" end="reset.mouseout"/>
                       </use>
               </g>
        </defs>

<script type="text/javascript">
var viewWidth = 1434;
var viewHeight = 815;
var sectionId = 'dynsection-1';
</script>
<script xlink:href="svgpan.js"/>
<svg id="graph" class="graph">
<g id="viewport">
<title>JAISe</title>
<!-- Node1 -->
<g id="node1" class="node">
<title>Node1</title>
<g id="a_node1"><a xlink:title=" ">
<polygon fill="#999999" stroke="#666666" points="1426,-545 1382,-545 1382,-526 1426,-526 1426,-545"/>
<text text-anchor="middle" x="1404" y="-533" font-family="Helvetica,sans-Serif" font-size="10.00">JAISe</text>
</a>
</g>
</g>
<!-- Node2 -->
<g id="node2" class="node">
<title>Node2</title>
<g id="a_node2"><a xlink:href="classJSULink.html" target="_top" xlink:title=" ">
<polygon fill="white" stroke="#666666" points="466,-530 368,-530 368,-511 466,-511 466,-530"/>
<text text-anchor="middle" x="417" y="-518" font-family="Helvetica,sans-Serif" font-size="10.00">JSULink&lt; JAISe &gt;</text>
</a>
</g>
</g>
<!-- Node2&#45;&gt;Node1 -->
<g id="edge1" class="edge">
<title>Node2&#45;&gt;Node1</title>
<path fill="none" stroke="#63b8ff" d="M477.39,-525.95C529.24,-530.24 606.53,-535.5 674,-535.5 674,-535.5 674,-535.5 1264.5,-535.5 1306.1,-535.5 1354.72,-535.5 1381.88,-535.5"/>
<polygon fill="#63b8ff" stroke="#63b8ff" points="477.84,-522.48 467.59,-525.13 477.26,-529.46 477.84,-522.48"/>
</g>
<!-- Node3 -->
<g id="node3" class="node">
<title>Node3</title>
<g id="a_node3"><a xlink:href="structJSUPtrLink.html" target="_top" xlink:title=" ">
<polygon fill="white" stroke="#666666" points="102,-182 34,-182 34,-163 102,-163 102,-182"/>
<text text-anchor="middle" x="68" y="-170" font-family="Helvetica,sans-Serif" font-size="10.00">JSUPtrLink</text>
</a>
</g>
</g>
<!-- Node3&#45;&gt;Node2 -->
<g id="edge2" class="edge">
<title>Node3&#45;&gt;Node2</title>
<path fill="none" stroke="#63b8ff" d="M71.94,-193.66C81.13,-251.1 114.86,-410.75 214,-486.5 258.08,-520.18 323.45,-525.44 367.79,-524.41"/>
<polygon fill="#63b8ff" stroke="#63b8ff" points="75.43,-193.32 70.49,-183.95 68.51,-194.36 75.43,-193.32"/>
</g>
<!-- Node3&#45;&gt;Node3 -->
<g id="edge5" class="edge">
<title>Node3&#45;&gt;Node3</title>
<path fill="none" stroke="#9a32cd" stroke-dasharray="5,2" d="M49.01,-193.43C51.38,-197.29 57.71,-200 68,-200 86.81,-200 92.39,-190.94 84.75,-182.37"/>
<polygon fill="#9a32cd" stroke="#9a32cd" points="52.39,-194.35 50.95,-183.85 45.53,-192.96 52.39,-194.35"/>
<text text-anchor="middle" x="68" y="-214" font-family="Helvetica,sans-Serif" font-size="10.00"> mNext</text>
<text text-anchor="middle" x="68" y="-203" font-family="Helvetica,sans-Serif" font-size="10.00">mPrev</text>
</g>
<!-- Node4 -->
<g id="node4" class="node">
<title>Node4</title>
<g id="a_node4"><a xlink:href="structJSUPtrList.html" target="_top" xlink:title=" ">
<polygon fill="white" stroke="#666666" points="314.5,-137 249.5,-137 249.5,-118 314.5,-118 314.5,-137"/>
<text text-anchor="middle" x="282" y="-125" font-family="Helvetica,sans-Serif" font-size="10.00">JSUPtrList</text>
</a>
</g>
</g>
<!-- Node3&#45;&gt;Node4 -->
<g id="edge4" class="edge">
<title>Node3&#45;&gt;Node4</title>
<path fill="none" stroke="#9a32cd" stroke-dasharray="5,2" d="M90.84,-155.97C107.25,-144.64 130.79,-130.6 154,-124.5 185.57,-116.2 223.08,-118.5 249.12,-121.92"/>
<polygon fill="#9a32cd" stroke="#9a32cd" points="88.94,-153.03 82.85,-161.69 93.02,-158.72 88.94,-153.03"/>
<text text-anchor="middle" x="175" y="-138.5" font-family="Helvetica,sans-Serif" font-size="10.00"> mHead</text>
<text text-anchor="middle" x="175" y="-127.5" font-family="Helvetica,sans-Serif" font-size="10.00">mTail</text>
</g>
<!-- Node4&#45;&gt;Node3 -->
<g id="edge3" class="edge">
<title>Node4&#45;&gt;Node3</title>
<path fill="none" stroke="#9a32cd" stroke-dasharray="5,2" d="M238.37,-139.86C224.88,-143.55 209.88,-147.43 196,-150.5 164.43,-157.49 128.04,-163.6 102.32,-167.59"/>
<polygon fill="#9a32cd" stroke="#9a32cd" points="239.13,-143.29 247.83,-137.24 237.26,-136.54 239.13,-143.29"/>
<text text-anchor="middle" x="175" y="-162.5" font-family="Helvetica,sans-Serif" font-size="10.00"> mList</text>
</g>
<!-- Node38 -->
<g id="node38" class="node">
<title>Node38</title>
<g id="a_node38"><a xlink:href="classJSUList.html" target="_top" xlink:title=" ">
<polygon fill="white" stroke="#666666" points="597.5,-19 501.5,-19 501.5,0 597.5,0 597.5,-19"/>
<text text-anchor="middle" x="549.5" y="-7" font-family="Helvetica,sans-Serif" font-size="10.00">JSUList&lt; JAISe &gt;</text>
</a>
</g>
</g>
<!-- Node4&#45;&gt;Node38 -->
<g id="edge50" class="edge">
<title>Node4&#45;&gt;Node38</title>
<path fill="none" stroke="#63b8ff" d="M310,-112C347.9,-90.72 419.48,-52.29 484,-27.5 491.7,-24.54 500.1,-21.84 508.2,-19.48"/>
<polygon fill="#63b8ff" stroke="#63b8ff" points="308.54,-108.8 301.56,-116.77 311.98,-114.9 308.54,-108.8"/>
</g>
<!-- Node5 -->
<g id="node5" class="node">
<title>Node5</title>
<g id="a_node5"><a xlink:href="classJAISound.html" target="_top" xlink:title=" ">
<polygon fill="white" stroke="#666666" points="1056.5,-696 997.5,-696 997.5,-677 1056.5,-677 1056.5,-696"/>
<text text-anchor="middle" x="1027" y="-684" font-family="Helvetica,sans-Serif" font-size="10.00">JAISound</text>
</a>
</g>
</g>
<!-- Node5&#45;&gt;Node1 -->
<g id="edge6" class="edge">
<title>Node5&#45;&gt;Node1</title>
<path fill="none" stroke="#63b8ff" d="M1063.12,-672.36C1139.68,-641.53 1319.7,-569.04 1381.63,-544.11"/>
<polygon fill="#63b8ff" stroke="#63b8ff" points="1061.98,-669.05 1054.01,-676.03 1064.59,-675.54 1061.98,-669.05"/>
</g>
<!-- Node6 -->
<g id="node6" class="node">
<title>Node6</title>
<g id="a_node6"><a xlink:href="structJAISoundHandle.html" target="_top" xlink:title=" ">
<polygon fill="white" stroke="#666666" points="1308.5,-691 1218.5,-691 1218.5,-672 1308.5,-672 1308.5,-691"/>
<text text-anchor="middle" x="1263.5" y="-679" font-family="Helvetica,sans-Serif" font-size="10.00">JAISoundHandle</text>
</a>
</g>
</g>
<!-- Node5&#45;&gt;Node6 -->
<g id="edge8" class="edge">
<title>Node5&#45;&gt;Node6</title>
<path fill="none" stroke="#9a32cd" stroke-dasharray="5,2" d="M1068.13,-685.64C1109.88,-684.75 1175.08,-683.36 1218.29,-682.44"/>
<polygon fill="#9a32cd" stroke="#9a32cd" points="1068.19,-682.14 1058.27,-685.85 1068.34,-689.14 1068.19,-682.14"/>
<text text-anchor="middle" x="1146.5" y="-687.5" font-family="Helvetica,sans-Serif" font-size="10.00"> sound_</text>
</g>
<!-- Node6&#45;&gt;Node5 -->
<g id="edge7" class="edge">
<title>Node6&#45;&gt;Node5</title>
<path fill="none" stroke="#9a32cd" stroke-dasharray="5,2" d="M1207.13,-672.03C1202.03,-671.41 1196.93,-670.88 1192,-670.5 1151.68,-667.37 1141.21,-666.15 1101,-670.5 1086.3,-672.09 1070.21,-675.44 1056.89,-678.66"/>
<polygon fill="#9a32cd" stroke="#9a32cd" points="1206.37,-675.46 1216.75,-673.32 1207.3,-668.53 1206.37,-675.46"/>
<text text-anchor="middle" x="1146.5" y="-673.5" font-family="Helvetica,sans-Serif" font-size="10.00"> handle_</text>
</g>
<!-- Node7 -->
<g id="node7" class="node">
<title>Node7</title>
<g id="a_node7"><a xlink:href="classJAIAudible.html" target="_top" xlink:title=" ">
<polygon fill="white" stroke="#666666" points="828,-696 764,-696 764,-677 828,-677 828,-696"/>
<text text-anchor="middle" x="796" y="-684" font-family="Helvetica,sans-Serif" font-size="10.00">JAIAudible</text>
</a>
</g>
</g>
<!-- Node7&#45;&gt;Node5 -->
<g id="edge9" class="edge">
<title>Node7&#45;&gt;Node5</title>
<path fill="none" stroke="#9a32cd" stroke-dasharray="5,2" d="M839.74,-686.5C885.69,-686.5 957.49,-686.5 997.18,-686.5"/>
<polygon fill="#9a32cd" stroke="#9a32cd" points="839.87,-683 829.87,-686.5 839.87,-690 839.87,-683"/>
<text text-anchor="middle" x="914" y="-689.5" font-family="Helvetica,sans-Serif" font-size="10.00"> audible_</text>
</g>
<!-- Node8 -->
<g id="node8" class="node">
<title>Node8</title>
<g id="a_node8"><a xlink:href="structJGeometry_1_1TVec3.html" target="_top" xlink:title=" ">
<polygon fill="white" stroke="#666666" points="615,-696 484,-696 484,-677 615,-677 615,-696"/>
<text text-anchor="middle" x="549.5" y="-684" font-family="Helvetica,sans-Serif" font-size="10.00">JGeometry::TVec3&lt; float &gt;</text>
</a>
</g>
</g>
<!-- Node8&#45;&gt;Node7 -->
<g id="edge10" class="edge">
<title>Node8&#45;&gt;Node7</title>
<path fill="none" stroke="#9a32cd" stroke-dasharray="5,2" d="M626.88,-686.5C673.05,-686.5 729.44,-686.5 763.76,-686.5"/>
<polygon fill="#9a32cd" stroke="#9a32cd" points="626.89,-683 616.89,-686.5 626.89,-690 626.89,-683"/>
<text text-anchor="middle" x="675" y="-689.5" font-family="Helvetica,sans-Serif" font-size="10.00"> mPos</text>
</g>
<!-- Node9 -->
<g id="node9" class="node">
<title>Node9</title>
<g id="a_node9"><a xlink:href="structJAIAudience.html" target="_top" xlink:title=" ">
<polygon fill="white" stroke="#666666" points="832,-583 760,-583 760,-564 832,-564 832,-583"/>
<text text-anchor="middle" x="796" y="-571" font-family="Helvetica,sans-Serif" font-size="10.00">JAIAudience</text>
</a>
</g>
</g>
<!-- Node9&#45;&gt;Node5 -->
<g id="edge11" class="edge">
<title>Node9&#45;&gt;Node5</title>
<path fill="none" stroke="#9a32cd" stroke-dasharray="5,2" d="M831.13,-587.92C863.03,-601.66 911.8,-623.33 953,-644.5 972.9,-654.72 995.09,-667.73 1009.72,-676.54"/>
<polygon fill="#9a32cd" stroke="#9a32cd" points="832.55,-584.72 821.98,-584 829.79,-591.15 832.55,-584.72"/>
<text text-anchor="middle" x="914" y="-647.5" font-family="Helvetica,sans-Serif" font-size="10.00"> audience_</text>
</g>
<!-- Node31 -->
<g id="node31" class="node">
<title>Node31</title>
<g id="a_node31"><a xlink:href="classJAISeMgr.html" target="_top" xlink:title=" ">
<polygon fill="white" stroke="#666666" points="1057,-140 997,-140 997,-121 1057,-121 1057,-140"/>
<text text-anchor="middle" x="1027" y="-128" font-family="Helvetica,sans-Serif" font-size="10.00">JAISeMgr</text>
</a>
</g>
</g>
<!-- Node9&#45;&gt;Node31 -->
<g id="edge43" class="edge">
<title>Node9&#45;&gt;Node31</title>
<path fill="none" stroke="#9a32cd" stroke-dasharray="5,2" d="M821.38,-556.96C834.22,-546.85 848.93,-532.76 857,-516.5 889.39,-451.21 835.72,-414.89 875,-353.5 896.81,-319.41 931.08,-340.52 953,-306.5 990.33,-248.57 929.11,-207.22 971,-152.5 977.25,-144.33 987.01,-139.19 996.58,-135.95"/>
<polygon fill="#9a32cd" stroke="#9a32cd" points="819.62,-553.9 813.7,-562.68 823.81,-559.51 819.62,-553.9"/>
<text text-anchor="middle" x="914" y="-356.5" font-family="Helvetica,sans-Serif" font-size="10.00"> mAudience</text>
</g>
<!-- Node10 -->
<g id="node10" class="node">
<title>Node10</title>
<g id="a_node10"><a xlink:href="structJAISoundID.html" target="_top" xlink:title=" ">
<polygon fill="white" stroke="#666666" points="830.5,-770 761.5,-770 761.5,-751 830.5,-751 830.5,-770"/>
<text text-anchor="middle" x="796" y="-758" font-family="Helvetica,sans-Serif" font-size="10.00">JAISoundID</text>
</a>
</g>
</g>
<!-- Node10&#45;&gt;Node5 -->
<g id="edge12" class="edge">
<title>Node10&#45;&gt;Node5</title>
<path fill="none" stroke="#9a32cd" stroke-dasharray="5,2" d="M841.84,-754.71C873.58,-749.72 916.77,-741.14 953,-727.5 974.49,-719.41 997.26,-705.69 1011.55,-696.37"/>
<polygon fill="#9a32cd" stroke="#9a32cd" points="841.56,-751.21 832.19,-756.16 842.6,-758.13 841.56,-751.21"/>
<text text-anchor="middle" x="914" y="-750.5" font-family="Helvetica,sans-Serif" font-size="10.00"> soundID</text>
</g>
<!-- Node11 -->
<g id="node11" class="node">
<title>Node11</title>
<g id="a_node11"><a xlink:href="structJAISoundStatus__.html" target="_top" xlink:title=" ">
<polygon fill="white" stroke="#666666" points="842.5,-733 749.5,-733 749.5,-714 842.5,-714 842.5,-733"/>
<text text-anchor="middle" x="796" y="-721" font-family="Helvetica,sans-Serif" font-size="10.00">JAISoundStatus_</text>
</a>
</g>
</g>
<!-- Node11&#45;&gt;Node5 -->
<g id="edge13" class="edge">
<title>Node11&#45;&gt;Node5</title>
<path fill="none" stroke="#9a32cd" stroke-dasharray="5,2" d="M854.23,-716.3C883.79,-712.36 920.4,-707.14 953,-701.5 967.66,-698.96 983.88,-695.68 997.3,-692.83"/>
<polygon fill="#9a32cd" stroke="#9a32cd" points="853.81,-712.83 844.35,-717.6 854.72,-719.77 853.81,-712.83"/>
<text text-anchor="middle" x="914" y="-715.5" font-family="Helvetica,sans-Serif" font-size="10.00"> status_</text>
</g>
<!-- Node12 -->
<g id="node12" class="node">
<title>Node12</title>
<g id="a_node12"><a xlink:href="structJAISoundFader.html" target="_top" xlink:title=" ">
<polygon fill="white" stroke="#666666" points="717,-795 633,-795 633,-776 717,-776 717,-795"/>
<text text-anchor="middle" x="675" y="-783" font-family="Helvetica,sans-Serif" font-size="10.00">JAISoundFader</text>
</a>
</g>
</g>
<!-- Node12&#45;&gt;Node5 -->
<g id="edge14" class="edge">
<title>Node12&#45;&gt;Node5</title>
<path fill="none" stroke="#9a32cd" stroke-dasharray="5,2" d="M728.5,-792.97C786.92,-798.7 882.36,-800.21 953,-762.5 983.34,-746.3 1008.49,-712.91 1019.71,-696.31"/>
<polygon fill="#9a32cd" stroke="#9a32cd" points="729.15,-789.52 718.83,-791.93 728.41,-796.48 729.15,-789.52"/>
<text text-anchor="middle" x="796" y="-798.5" font-family="Helvetica,sans-Serif" font-size="10.00"> fader</text>
</g>
<!-- Node13 -->
<g id="node13" class="node">
<title>Node13</title>
<g id="a_node13"><a xlink:href="structJAISoundParamsTransition_1_1TTransition.html" target="_top" xlink:title=" ">
<polygon fill="white" stroke="#666666" points="136,-626.5 0,-626.5 0,-596.5 136,-596.5 136,-626.5"/>
<text text-anchor="start" x="8" y="-614.5" font-family="Helvetica,sans-Serif" font-size="10.00">JAISoundParamsTransition</text>
<text text-anchor="middle" x="68" y="-603.5" font-family="Helvetica,sans-Serif" font-size="10.00">::TTransition</text>
</a>
</g>
</g>
<!-- Node13&#45;&gt;Node12 -->
<g id="edge15" class="edge">
<title>Node13&#45;&gt;Node12</title>
<path fill="none" stroke="#9a32cd" stroke-dasharray="5,2" d="M133.44,-630.03C260.95,-666.71 541.57,-747.41 639.48,-775.57"/>
<polygon fill="#9a32cd" stroke="#9a32cd" points="134.72,-626.76 124.14,-627.36 132.79,-633.49 134.72,-626.76"/>
<text text-anchor="middle" x="282" y="-693.5" font-family="Helvetica,sans-Serif" font-size="10.00"> mTransition</text>
</g>
<!-- Node18 -->
<g id="node18" class="node">
<title>Node18</title>
<g id="a_node18"><a xlink:href="structJAISoundParamsTransition.html" target="_top" xlink:title=" ">
<polygon fill="white" stroke="#666666" points="350,-223 214,-223 214,-204 350,-204 350,-223"/>
<text text-anchor="middle" x="282" y="-211" font-family="Helvetica,sans-Serif" font-size="10.00">JAISoundParamsTransition</text>
</a>
</g>
</g>
<!-- Node13&#45;&gt;Node18 -->
<g id="edge21" class="edge">
<title>Node13&#45;&gt;Node18</title>
<path fill="none" stroke="#9a32cd" stroke-dasharray="5,2" d="M72.49,-584.98C82.5,-518.9 117.07,-344.95 214,-243.5 222.54,-234.56 234.23,-228.09 245.45,-223.5"/>
<polygon fill="#9a32cd" stroke="#9a32cd" points="69.03,-584.47 71.07,-594.86 75.96,-585.46 69.03,-584.47"/>
<text text-anchor="middle" x="175" y="-367.5" font-family="Helvetica,sans-Serif" font-size="10.00"> mDolby</text>
<text text-anchor="middle" x="175" y="-356.5" font-family="Helvetica,sans-Serif" font-size="10.00">mFxMix</text>
<text text-anchor="middle" x="175" y="-345.5" font-family="Helvetica,sans-Serif" font-size="10.00">mPan</text>
<text text-anchor="middle" x="175" y="-334.5" font-family="Helvetica,sans-Serif" font-size="10.00">mPitch</text>
<text text-anchor="middle" x="175" y="-323.5" font-family="Helvetica,sans-Serif" font-size="10.00">mVolume</text>
</g>
<!-- Node41 -->
<g id="node41" class="node">
<title>Node41</title>
<g id="a_node41"><a xlink:href="classJAITempoMgr.html" target="_top" xlink:title=" ">
<polygon fill="white" stroke="#666666" points="953,-592 875,-592 875,-573 953,-573 953,-592"/>
<text text-anchor="middle" x="914" y="-580" font-family="Helvetica,sans-Serif" font-size="10.00">JAITempoMgr</text>
</a>
</g>
</g>
<!-- Node13&#45;&gt;Node41 -->
<g id="edge55" class="edge">
<title>Node13&#45;&gt;Node41</title>
<path fill="none" stroke="#9a32cd" stroke-dasharray="5,2" d="M147.59,-611.5C187.54,-611.5 236.85,-611.5 281,-611.5 281,-611.5 281,-611.5 676,-611.5 746.47,-611.5 827.86,-598.71 874.59,-590.12"/>
<polygon fill="#9a32cd" stroke="#9a32cd" points="147.83,-608 137.83,-611.5 147.83,-615 147.83,-608"/>
<text text-anchor="middle" x="417" y="-614.5" font-family="Helvetica,sans-Serif" font-size="10.00"> field_0x4</text>
</g>
<!-- Node14 -->
<g id="node14" class="node">
<title>Node14</title>
<g id="a_node14"><a xlink:href="structJAISoundParams.html" target="_top" xlink:title=" ">
<polygon fill="white" stroke="#666666" points="842.5,-659 749.5,-659 749.5,-640 842.5,-640 842.5,-659"/>
<text text-anchor="middle" x="796" y="-647" font-family="Helvetica,sans-Serif" font-size="10.00">JAISoundParams</text>
</a>
</g>
</g>
<!-- Node14&#45;&gt;Node5 -->
<g id="edge16" class="edge">
<title>Node14&#45;&gt;Node5</title>
<path fill="none" stroke="#9a32cd" stroke-dasharray="5,2" d="M854.23,-656.7C883.79,-660.64 920.4,-665.86 953,-671.5 967.66,-674.04 983.88,-677.32 997.3,-680.17"/>
<polygon fill="#9a32cd" stroke="#9a32cd" points="854.72,-653.23 844.35,-655.4 853.81,-660.17 854.72,-653.23"/>
<text text-anchor="middle" x="914" y="-674.5" font-family="Helvetica,sans-Serif" font-size="10.00"> params</text>
</g>
<!-- Node15 -->
<g id="node15" class="node">
<title>Node15</title>
<g id="a_node15"><a xlink:href="structJAISoundParamsProperty.html" target="_top" xlink:title=" ">
<polygon fill="white" stroke="#666666" points="614,-659 485,-659 485,-640 614,-640 614,-659"/>
<text text-anchor="middle" x="549.5" y="-647" font-family="Helvetica,sans-Serif" font-size="10.00">JAISoundParamsProperty</text>
</a>
</g>
</g>
<!-- Node15&#45;&gt;Node14 -->
<g id="edge17" class="edge">
<title>Node15&#45;&gt;Node14</title>
<path fill="none" stroke="#9a32cd" stroke-dasharray="5,2" d="M625.84,-649.5C666.17,-649.5 714.54,-649.5 749.21,-649.5"/>
<polygon fill="#9a32cd" stroke="#9a32cd" points="625.93,-646 615.93,-649.5 625.93,-653 625.93,-646"/>
<text text-anchor="middle" x="675" y="-652.5" font-family="Helvetica,sans-Serif" font-size="10.00"> mProperty</text>
</g>
<!-- Node16 -->
<g id="node16" class="node">
<title>Node16</title>
<g id="a_node16"><a xlink:href="structJAISoundParamsMove.html" target="_top" xlink:title=" ">
<polygon fill="white" stroke="#666666" points="608,-224 491,-224 491,-205 608,-205 608,-224"/>
<text text-anchor="middle" x="549.5" y="-212" font-family="Helvetica,sans-Serif" font-size="10.00">JAISoundParamsMove</text>
</a>
</g>
</g>
<!-- Node16&#45;&gt;Node14 -->
<g id="edge18" class="edge">
<title>Node16&#45;&gt;Node14</title>
<path fill="none" stroke="#9a32cd" stroke-dasharray="5,2" d="M564.77,-233.75C579.99,-255.37 603.44,-292.07 615,-327.5 637.19,-395.53 602.42,-422.8 633,-487.5 666.82,-559.06 745.95,-617.26 779.51,-639.63"/>
<polygon fill="#9a32cd" stroke="#9a32cd" points="567.63,-231.72 558.94,-225.65 561.95,-235.81 567.63,-231.72"/>
<text text-anchor="middle" x="675" y="-590.5" font-family="Helvetica,sans-Serif" font-size="10.00"> mMove</text>
</g>
<!-- Node16&#45;&gt;Node31 -->
<g id="edge51" class="edge">
<title>Node16&#45;&gt;Node31</title>
<path fill="none" stroke="#9a32cd" stroke-dasharray="5,2" d="M619.69,-218.35C702.66,-220.27 844.14,-214.82 953,-165.5 961.99,-161.43 962.35,-157.26 971,-152.5 979.29,-147.94 988.72,-143.82 997.41,-140.4"/>
<polygon fill="#9a32cd" stroke="#9a32cd" points="619.99,-214.86 609.89,-218.08 619.79,-221.86 619.99,-214.86"/>
<text text-anchor="middle" x="796" y="-217.5" font-family="Helvetica,sans-Serif" font-size="10.00"> mParams</text>
</g>
<!-- Node36 -->
<g id="node36" class="node">
<title>Node36</title>
<g id="a_node36"><a xlink:href="structJAISeCategoryMgr.html" target="_top" xlink:title=" ">
<polygon fill="white" stroke="#666666" points="845,-65 747,-65 747,-46 845,-46 845,-65"/>
<text text-anchor="middle" x="796" y="-53" font-family="Helvetica,sans-Serif" font-size="10.00">JAISeCategoryMgr</text>
</a>
</g>
</g>
<!-- Node16&#45;&gt;Node36 -->
<g id="edge48" class="edge">
<title>Node16&#45;&gt;Node36</title>
<path fill="none" stroke="#9a32cd" stroke-dasharray="5,2" d="M568.6,-196.99C600,-167.53 667.68,-107.87 735,-73.5 741.1,-70.38 747.83,-67.71 754.52,-65.45"/>
<polygon fill="#9a32cd" stroke="#9a32cd" points="566.34,-194.32 561.5,-203.74 571.16,-199.39 566.34,-194.32"/>
<text text-anchor="middle" x="675" y="-143.5" font-family="Helvetica,sans-Serif" font-size="10.00"> mParams</text>
</g>
<!-- Node17 -->
<g id="node17" class="node">
<title>Node17</title>
<g id="a_node17"><a xlink:href="structJASSoundParams.html" target="_top" xlink:title=" ">
<polygon fill="white" stroke="#666666" points="330.5,-271 233.5,-271 233.5,-252 330.5,-252 330.5,-271"/>
<text text-anchor="middle" x="282" y="-259" font-family="Helvetica,sans-Serif" font-size="10.00">JASSoundParams</text>
</a>
</g>
</g>
<!-- Node17&#45;&gt;Node16 -->
<g id="edge19" class="edge">
<title>Node17&#45;&gt;Node16</title>
<path fill="none" stroke="#9a32cd" stroke-dasharray="5,2" d="M323.03,-248.25C337.12,-243.98 353.14,-239.57 368,-236.5 408.65,-228.1 455.17,-222.53 490.8,-219.09"/>
<polygon fill="#9a32cd" stroke="#9a32cd" points="322.16,-244.86 313.65,-251.17 324.24,-251.54 322.16,-244.86"/>
<text text-anchor="middle" x="417" y="-239.5" font-family="Helvetica,sans-Serif" font-size="10.00"> mParams</text>
</g>
<!-- Node19 -->
<g id="node19" class="node">
<title>Node19</title>
<g id="a_node19"><a xlink:href="classJAISe_1_1TInner.html" target="_top" xlink:title=" ">
<polygon fill="white" stroke="#666666" points="1301.5,-296 1225.5,-296 1225.5,-277 1301.5,-277 1301.5,-296"/>
<text text-anchor="middle" x="1263.5" y="-284" font-family="Helvetica,sans-Serif" font-size="10.00">JAISe::TInner</text>
</a>
</g>
</g>
<!-- Node17&#45;&gt;Node19 -->
<g id="edge23" class="edge">
<title>Node17&#45;&gt;Node19</title>
<path fill="none" stroke="#9a32cd" stroke-dasharray="5,2" d="M342.15,-261.45C446.28,-261.61 669.09,-263.02 857,-271.5 899.74,-273.43 911.5,-268.1 953,-278.5 961.49,-280.63 962.47,-284.52 971,-286.5 1027.32,-299.59 1043.19,-290.39 1101,-291.5 1141.44,-292.28 1151.58,-292.93 1192,-291.5 1202.79,-291.12 1214.49,-290.41 1225.21,-289.64"/>
<polygon fill="#9a32cd" stroke="#9a32cd" points="342.17,-257.95 332.17,-261.44 342.16,-264.95 342.17,-257.95"/>
<text text-anchor="middle" x="796" y="-274.5" font-family="Helvetica,sans-Serif" font-size="10.00"> mSoundParams</text>
</g>
<!-- Node28 -->
<g id="node28" class="node">
<title>Node28</title>
<g id="a_node28"><a xlink:href="structJASTrack_1_1TChannelMgr.html" target="_top" xlink:title=" ">
<polygon fill="white" stroke="#666666" points="857,-408 735,-408 735,-389 857,-389 857,-408"/>
<text text-anchor="middle" x="796" y="-396" font-family="Helvetica,sans-Serif" font-size="10.00">JASTrack::TChannelMgr</text>
</a>
</g>
</g>
<!-- Node17&#45;&gt;Node28 -->
<g id="edge35" class="edge">
<title>Node17&#45;&gt;Node28</title>
<path fill="none" stroke="#9a32cd" stroke-dasharray="5,2" d="M306.6,-277.25C342.97,-300.64 415.68,-344.02 484,-364.5 568.55,-389.84 671.07,-396.71 734.68,-398.35"/>
<polygon fill="#9a32cd" stroke="#9a32cd" points="308.9,-274.57 298.61,-272.04 305.08,-280.43 308.9,-274.57"/>
<text text-anchor="middle" x="549.5" y="-392.5" font-family="Helvetica,sans-Serif" font-size="10.00"> field_0x48</text>
</g>
<!-- Node18&#45;&gt;Node16 -->
<g id="edge20" class="edge">
<title>Node18&#45;&gt;Node16</title>
<path fill="none" stroke="#9a32cd" stroke-dasharray="5,2" d="M361.41,-202.98C363.63,-202.8 365.83,-202.64 368,-202.5 411.47,-199.7 422.56,-199.36 466,-202.5 474.08,-203.08 482.58,-203.99 490.92,-205.04"/>
<polygon fill="#9a32cd" stroke="#9a32cd" points="361.35,-199.47 351.71,-203.86 361.98,-206.44 361.35,-199.47"/>
<text text-anchor="middle" x="417" y="-205.5" font-family="Helvetica,sans-Serif" font-size="10.00"> mTransition</text>
</g>
<!-- Node19&#45;&gt;Node1 -->
<g id="edge22" class="edge">
<title>Node19&#45;&gt;Node1</title>
<path fill="none" stroke="#9a32cd" stroke-dasharray="5,2" d="M1275.45,-306.19C1303.42,-356.48 1376.71,-488.24 1397.46,-525.54"/>
<polygon fill="#9a32cd" stroke="#9a32cd" points="1278.58,-304.62 1270.67,-297.58 1272.47,-308.02 1278.58,-304.62"/>
<text text-anchor="middle" x="1349.5" y="-464.5" font-family="Helvetica,sans-Serif" font-size="10.00"> inner_</text>
</g>
<!-- Node20 -->
<g id="node20" class="node">
<title>Node20</title>
<g id="a_node20"><a xlink:href="structJASTrack.html" target="_top" xlink:title=" ">
<polygon fill="white" stroke="#666666" points="1057,-406 997,-406 997,-387 1057,-387 1057,-406"/>
<text text-anchor="middle" x="1027" y="-394" font-family="Helvetica,sans-Serif" font-size="10.00">JASTrack</text>
</a>
</g>
</g>
<!-- Node20&#45;&gt;Node19 -->
<g id="edge24" class="edge">
<title>Node20&#45;&gt;Node19</title>
<path fill="none" stroke="#9a32cd" stroke-dasharray="5,2" d="M1059.47,-381.74C1108.09,-358.93 1200.16,-315.74 1241.49,-296.35"/>
<polygon fill="#9a32cd" stroke="#9a32cd" points="1058.16,-378.49 1050.59,-385.9 1061.13,-384.82 1058.16,-378.49"/>
<text text-anchor="middle" x="1146.5" y="-363.5" font-family="Helvetica,sans-Serif" font-size="10.00"> track</text>
</g>
<!-- Node20&#45;&gt;Node20 -->
<g id="edge32" class="edge">
<title>Node20&#45;&gt;Node20</title>
<path fill="none" stroke="#9a32cd" stroke-dasharray="5,2" d="M1006.94,-417.43C1009.45,-421.29 1016.14,-424 1027,-424 1046.86,-424 1052.76,-414.94 1044.69,-406.37"/>
<polygon fill="#9a32cd" stroke="#9a32cd" points="1010.32,-418.36 1008.99,-407.85 1003.48,-416.89 1010.32,-418.36"/>
<text text-anchor="middle" x="1027" y="-438" font-family="Helvetica,sans-Serif" font-size="10.00"> mChildren</text>
<text text-anchor="middle" x="1027" y="-427" font-family="Helvetica,sans-Serif" font-size="10.00">mParent</text>
</g>
<!-- Node20&#45;&gt;Node28 -->
<g id="edge36" class="edge">
<title>Node20&#45;&gt;Node28</title>
<path fill="none" stroke="#9a32cd" stroke-dasharray="5,2" d="M985.11,-395.84C974.65,-395.7 963.41,-395.57 953,-395.5 918.33,-395.26 909.66,-394.83 875,-395.5 869.31,-395.61 863.39,-395.76 857.46,-395.95"/>
<polygon fill="#9a32cd" stroke="#9a32cd" points="984.96,-399.34 995.01,-395.98 985.06,-392.34 984.96,-399.34"/>
<text text-anchor="middle" x="914" y="-398.5" font-family="Helvetica,sans-Serif" font-size="10.00"> field_0x4c</text>
</g>
<!-- Node21 -->
<g id="node21" class="node">
<title>Node21</title>
<g id="a_node21"><a xlink:href="classJASSeqCtrl.html" target="_top" xlink:title=" ">
<polygon fill="white" stroke="#666666" points="830,-507 762,-507 762,-488 830,-488 830,-507"/>
<text text-anchor="middle" x="796" y="-495" font-family="Helvetica,sans-Serif" font-size="10.00">JASSeqCtrl</text>
</a>
</g>
</g>
<!-- Node21&#45;&gt;Node20 -->
<g id="edge25" class="edge">
<title>Node21&#45;&gt;Node20</title>
<path fill="none" stroke="#9a32cd" stroke-dasharray="5,2" d="M841.86,-495.7C874.32,-492.82 918.37,-485.56 953,-467.5 982.16,-452.29 1007.48,-421.7 1019.15,-406.11"/>
<polygon fill="#9a32cd" stroke="#9a32cd" points="841.68,-492.21 831.98,-496.46 842.22,-499.18 841.68,-492.21"/>
<text text-anchor="middle" x="914" y="-494.5" font-family="Helvetica,sans-Serif" font-size="10.00"> mSeqCtrl</text>
</g>
<!-- Node22 -->
<g id="node22" class="node">
<title>Node22</title>
<g id="a_node22"><a xlink:href="classJASSeqReader.html" target="_top" xlink:title=" ">
<polygon fill="white" stroke="#666666" points="591,-440 508,-440 508,-421 591,-421 591,-440"/>
<text text-anchor="middle" x="549.5" y="-428" font-family="Helvetica,sans-Serif" font-size="10.00">JASSeqReader</text>
</a>
</g>
</g>
<!-- Node22&#45;&gt;Node21 -->
<g id="edge26" class="edge">
<title>Node22&#45;&gt;Node21</title>
<path fill="none" stroke="#9a32cd" stroke-dasharray="5,2" d="M602.28,-420.16C637.6,-416.05 683.82,-416.75 717,-439.5 733.08,-450.52 720.34,-466.65 735,-479.5 742.44,-486.02 752.17,-490.18 761.63,-492.84"/>
<polygon fill="#9a32cd" stroke="#9a32cd" points="602.17,-416.64 592.72,-421.44 603.1,-423.58 602.17,-416.64"/>
<text text-anchor="middle" x="675" y="-442.5" font-family="Helvetica,sans-Serif" font-size="10.00"> mReader</text>
</g>
<!-- Node23 -->
<g id="node23" class="node">
<title>Node23</title>
<g id="a_node23"><a xlink:href="structJASSeqParser.html" target="_top" xlink:title=" ">
<polygon fill="white" stroke="#666666" points="590,-477 509,-477 509,-458 590,-458 590,-477"/>
<text text-anchor="middle" x="549.5" y="-465" font-family="Helvetica,sans-Serif" font-size="10.00">JASSeqParser</text>
</a>
</g>
</g>
<!-- Node23&#45;&gt;Node21 -->
<g id="edge27" class="edge">
<title>Node23&#45;&gt;Node21</title>
<path fill="none" stroke="#9a32cd" stroke-dasharray="5,2" d="M601.36,-458.19C635.07,-454.1 679.78,-452.73 717,-465.5 726.59,-468.79 725.99,-474.85 735,-479.5 743.31,-483.79 752.81,-487.23 761.76,-489.9"/>
<polygon fill="#9a32cd" stroke="#9a32cd" points="601.32,-454.67 591.87,-459.47 602.25,-461.6 601.32,-454.67"/>
<text text-anchor="middle" x="675" y="-479.5" font-family="Helvetica,sans-Serif" font-size="10.00"> field_0x3c</text>
<text text-anchor="middle" x="675" y="-468.5" font-family="Helvetica,sans-Serif" font-size="10.00">sDefaultParser</text>
</g>
<!-- Node24 -->
<g id="node24" class="node">
<title>Node24</title>
<g id="a_node24"><a xlink:href="structJASSeqParser_1_1CmdInfo.html" target="_top" xlink:title=" ">
<polygon fill="white" stroke="#666666" points="343,-477 221,-477 221,-458 343,-458 343,-477"/>
<text text-anchor="middle" x="282" y="-465" font-family="Helvetica,sans-Serif" font-size="10.00">JASSeqParser::CmdInfo</text>
</a>
</g>
</g>
<!-- Node24&#45;&gt;Node23 -->
<g id="edge28" class="edge">
<title>Node24&#45;&gt;Node23</title>
<path fill="none" stroke="#9a32cd" stroke-dasharray="5,2" d="M354.53,-467.5C404,-467.5 468,-467.5 508.67,-467.5"/>
<polygon fill="#9a32cd" stroke="#9a32cd" points="354.76,-464 344.76,-467.5 354.76,-471 354.76,-464"/>
<text text-anchor="middle" x="417" y="-481.5" font-family="Helvetica,sans-Serif" font-size="10.00"> sCmdInfo</text>
<text text-anchor="middle" x="417" y="-470.5" font-family="Helvetica,sans-Serif" font-size="10.00">sExtCmdInfo</text>
</g>
<!-- Node25 -->
<g id="node25" class="node">
<title>Node25</title>
<g id="a_node25"><a xlink:href="classJASTrackPort.html" target="_top" xlink:title=" ">
<polygon fill="white" stroke="#666666" points="835,-371 757,-371 757,-352 835,-352 835,-371"/>
<text text-anchor="middle" x="796" y="-359" font-family="Helvetica,sans-Serif" font-size="10.00">JASTrackPort</text>
</a>
</g>
</g>
<!-- Node25&#45;&gt;Node20 -->
<g id="edge29" class="edge">
<title>Node25&#45;&gt;Node20</title>
<path fill="none" stroke="#9a32cd" stroke-dasharray="5,2" d="M846.61,-365.77C877.37,-368.78 917.63,-373.36 953,-379.5 967.49,-382.01 983.41,-385.62 996.68,-388.87"/>
<polygon fill="#9a32cd" stroke="#9a32cd" points="847.11,-362.3 836.83,-364.84 846.45,-369.27 847.11,-362.3"/>
<text text-anchor="middle" x="914" y="-382.5" font-family="Helvetica,sans-Serif" font-size="10.00"> mTrackPort</text>
</g>
<!-- Node26 -->
<g id="node26" class="node">
<title>Node26</title>
<g id="a_node26"><a xlink:href="classJASRegisterParam.html" target="_top" xlink:title=" ">
<polygon fill="white" stroke="#666666" points="846,-310 746,-310 746,-291 846,-291 846,-310"/>
<text text-anchor="middle" x="796" y="-298" font-family="Helvetica,sans-Serif" font-size="10.00">JASRegisterParam</text>
</a>
</g>
</g>
<!-- Node26&#45;&gt;Node20 -->
<g id="edge30" class="edge">
<title>Node26&#45;&gt;Node20</title>
<path fill="none" stroke="#9a32cd" stroke-dasharray="5,2" d="M841.4,-288.09C874.06,-281.48 918.57,-277.91 953,-295.5 954.24,-296.13 1000.75,-361.15 1018.88,-386.52"/>
<polygon fill="#9a32cd" stroke="#9a32cd" points="840.87,-284.62 831.86,-290.19 842.38,-291.45 840.87,-284.62"/>
<text text-anchor="middle" x="914" y="-298.5" font-family="Helvetica,sans-Serif" font-size="10.00"> mRegisterParam</text>
</g>
<!-- Node27 -->
<g id="node27" class="node">
<title>Node27</title>
<g id="a_node27"><a xlink:href="structJASTrack_1_1MoveParam__.html" target="_top" xlink:title=" ">
<polygon fill="white" stroke="#666666" points="857,-470 735,-470 735,-451 857,-451 857,-470"/>
<text text-anchor="middle" x="796" y="-458" font-family="Helvetica,sans-Serif" font-size="10.00">JASTrack::MoveParam_</text>
</a>
</g>
</g>
<!-- Node27&#45;&gt;Node20 -->
<g id="edge31" class="edge">
<title>Node27&#45;&gt;Node20</title>
<path fill="none" stroke="#9a32cd" stroke-dasharray="5,2" d="M868.67,-454.07C895.59,-450.35 926.16,-444.54 953,-435.5 974.24,-428.35 996.7,-415.43 1011.01,-406.43"/>
<polygon fill="#9a32cd" stroke="#9a32cd" points="868.35,-450.59 858.88,-455.35 869.25,-457.53 868.35,-450.59"/>
<text text-anchor="middle" x="914" y="-455.5" font-family="Helvetica,sans-Serif" font-size="10.00"> field_0x9c</text>
</g>
<!-- Node28&#45;&gt;Node20 -->
<g id="edge33" class="edge">
<title>Node28&#45;&gt;Node20</title>
<path fill="none" stroke="#9a32cd" stroke-dasharray="5,2" d="M868.76,-408.05C870.86,-408.22 872.94,-408.37 875,-408.5 909.6,-410.71 918.45,-411.32 953,-408.5 967.47,-407.32 983.38,-404.84 996.65,-402.44"/>
<polygon fill="#9a32cd" stroke="#9a32cd" points="869.18,-404.58 858.9,-407.15 868.54,-411.55 869.18,-404.58"/>
<text text-anchor="middle" x="914" y="-423.5" font-family="Helvetica,sans-Serif" font-size="10.00"> field_0x170</text>
<text text-anchor="middle" x="914" y="-412.5" font-family="Helvetica,sans-Serif" font-size="10.00">field_0x180</text>
</g>
<!-- Node29 -->
<g id="node29" class="node">
<title>Node29</title>
<g id="a_node29"><a xlink:href="structJASChannel.html" target="_top" xlink:title=" ">
<polygon fill="white" stroke="#666666" points="585,-355 514,-355 514,-336 585,-336 585,-355"/>
<text text-anchor="middle" x="549.5" y="-343" font-family="Helvetica,sans-Serif" font-size="10.00">JASChannel</text>
</a>
</g>
</g>
<!-- Node29&#45;&gt;Node28 -->
<g id="edge34" class="edge">
<title>Node29&#45;&gt;Node28</title>
<path fill="none" stroke="#9a32cd" stroke-dasharray="5,2" d="M596.47,-344.82C630.87,-345.83 678.44,-350.5 717,-366.5 726.36,-370.38 725.99,-375.85 735,-380.5 741.09,-383.64 747.81,-386.33 754.5,-388.59"/>
<polygon fill="#9a32cd" stroke="#9a32cd" points="596.92,-341.33 586.86,-344.64 596.79,-348.33 596.92,-341.33"/>
<text text-anchor="middle" x="675" y="-369.5" font-family="Helvetica,sans-Serif" font-size="10.00"> field_0x0</text>
</g>
<!-- Node30 -->
<g id="node30" class="node">
<title>Node30</title>
<g id="a_node30"><a xlink:href="structJAISeqData.html" target="_top" xlink:title=" ">
<polygon fill="white" stroke="#666666" points="1061.5,-277 992.5,-277 992.5,-258 1061.5,-258 1061.5,-277"/>
<text text-anchor="middle" x="1027" y="-265" font-family="Helvetica,sans-Serif" font-size="10.00">JAISeqData</text>
</a>
</g>
</g>
<!-- Node30&#45;&gt;Node19 -->
<g id="edge37" class="edge">
<title>Node30&#45;&gt;Node19</title>
<path fill="none" stroke="#9a32cd" stroke-dasharray="5,2" d="M1073.02,-271C1105.97,-273.58 1151.77,-277.19 1192,-280.5 1202.77,-281.39 1214.47,-282.37 1225.18,-283.28"/>
<polygon fill="#9a32cd" stroke="#9a32cd" points="1073.68,-267.54 1063.44,-270.25 1073.13,-274.52 1073.68,-267.54"/>
<text text-anchor="middle" x="1146.5" y="-283.5" font-family="Helvetica,sans-Serif" font-size="10.00"> mSeqData</text>
</g>
<!-- Node31&#45;&gt;Node19 -->
<g id="edge38" class="edge">
<title>Node31&#45;&gt;Node19</title>
<path fill="none" stroke="#9a32cd" stroke-dasharray="5,2" d="M1068.86,-132.83C1104.42,-136.69 1155.8,-146.84 1192,-173.5 1229.24,-200.92 1251.32,-254.47 1259.2,-276.58"/>
<polygon fill="#9a32cd" stroke="#9a32cd" points="1069.24,-129.35 1058.95,-131.9 1068.58,-136.32 1069.24,-129.35"/>
<text text-anchor="middle" x="1146.5" y="-176.5" font-family="Helvetica,sans-Serif" font-size="10.00"> seMgr</text>
</g>
<!-- Node32 -->
<g id="node32" class="node">
<title>Node32</title>
<g id="a_node32"><a xlink:href="classJASGlobalInstance.html" target="_top" xlink:title=" ">
<polygon fill="white" stroke="#666666" points="1317,-124.5 1210,-124.5 1210,-94.5 1317,-94.5 1317,-124.5"/>
<text text-anchor="start" x="1218" y="-112.5" font-family="Helvetica,sans-Serif" font-size="10.00">JASGlobalInstance&lt;</text>
<text text-anchor="middle" x="1263.5" y="-101.5" font-family="Helvetica,sans-Serif" font-size="10.00"> JAISeMgr &gt;</text>
</a>
</g>
</g>
<!-- Node31&#45;&gt;Node32 -->
<g id="edge40" class="edge">
<title>Node31&#45;&gt;Node32</title>
<path fill="none" stroke="#9a32cd" stroke-dasharray="5,2" d="M1068.66,-126.86C1107.71,-123.36 1166.93,-118.06 1209.63,-114.23"/>
<polygon fill="#9a32cd" stroke="#9a32cd" points="1068.38,-123.37 1058.73,-127.75 1069.01,-130.34 1068.38,-123.37"/>
<text text-anchor="middle" x="1146.5" y="-127.5" font-family="Helvetica,sans-Serif" font-size="10.00"> sInstance</text>
</g>
<!-- Node32&#45;&gt;Node31 -->
<g id="edge39" class="edge">
<title>Node32&#45;&gt;Node31</title>
<path fill="none" stroke="#63b8ff" d="M1198.68,-103.14C1168.84,-101.49 1132.92,-101.39 1101,-106.5 1084.14,-109.2 1065.89,-115.2 1051.85,-120.53"/>
<polygon fill="#63b8ff" stroke="#63b8ff" points="1198.09,-106.61 1208.29,-103.75 1198.53,-99.63 1198.09,-106.61"/>
</g>
<!-- Node33 -->
<g id="node33" class="node">
<title>Node33</title>
<g id="a_node33"><a xlink:href="structJAISeqDataUser.html" target="_top" xlink:title=" ">
<polygon fill="white" stroke="#666666" points="594.5,-116 504.5,-116 504.5,-97 594.5,-97 594.5,-116"/>
<text text-anchor="middle" x="549.5" y="-104" font-family="Helvetica,sans-Serif" font-size="10.00">JAISeqDataUser</text>
</a>
</g>
</g>
<!-- Node33&#45;&gt;Node31 -->
<g id="edge41" class="edge">
<title>Node33&#45;&gt;Node31</title>
<path fill="none" stroke="#63b8ff" d="M606.14,-113.9C615.11,-114.9 624.3,-115.82 633,-116.5 768.79,-127.13 931.61,-129.69 996.86,-130.31"/>
<polygon fill="#63b8ff" stroke="#63b8ff" points="606.8,-110.45 596.46,-112.77 605.99,-117.4 606.8,-110.45"/>
</g>
<!-- Node33&#45;&gt;Node36 -->
<g id="edge46" class="edge">
<title>Node33&#45;&gt;Node36</title>
<path fill="none" stroke="#63b8ff" d="M598.36,-93.75C609.68,-90.89 621.74,-87.97 633,-85.5 670.99,-77.16 714.34,-69.21 746.63,-63.6"/>
<polygon fill="#63b8ff" stroke="#63b8ff" points="597.62,-90.32 588.8,-96.19 599.36,-97.1 597.62,-90.32"/>
</g>
<!-- Node34 -->
<g id="node34" class="node">
<title>Node34</title>
<g id="a_node34"><a xlink:href="classJAISoundActivity.html" target="_top" xlink:title=" ">
<polygon fill="white" stroke="#666666" points="842,-178 750,-178 750,-159 842,-159 842,-178"/>
<text text-anchor="middle" x="796" y="-166" font-family="Helvetica,sans-Serif" font-size="10.00">JAISoundActivity</text>
</a>
</g>
</g>
<!-- Node34&#45;&gt;Node31 -->
<g id="edge42" class="edge">
<title>Node34&#45;&gt;Node31</title>
<path fill="none" stroke="#63b8ff" d="M853.85,-160.27C883.46,-155.85 920.22,-150.16 953,-144.5 967.37,-142.02 983.28,-139 996.56,-136.4"/>
<polygon fill="#63b8ff" stroke="#63b8ff" points="853.34,-156.8 843.96,-161.73 854.37,-163.73 853.34,-156.8"/>
</g>
<!-- Node35 -->
<g id="node35" class="node">
<title>Node35</title>
<g id="a_node35"><a xlink:href="structJAISeqDataMgr.html" target="_top" xlink:title=" ">
<polygon fill="white" stroke="#666666" points="839,-102 753,-102 753,-83 839,-83 839,-102"/>
<text text-anchor="middle" x="796" y="-90" font-family="Helvetica,sans-Serif" font-size="10.00">JAISeqDataMgr</text>
</a>
</g>
</g>
<!-- Node35&#45;&gt;Node31 -->
<g id="edge44" class="edge">
<title>Node35&#45;&gt;Node31</title>
<path fill="none" stroke="#9a32cd" stroke-dasharray="5,2" d="M850.64,-93.71C880.95,-95.2 919.39,-98.46 953,-105.5 969.65,-108.99 987.75,-115.17 1001.76,-120.51"/>
<polygon fill="#9a32cd" stroke="#9a32cd" points="851.11,-90.22 840.96,-93.28 850.8,-97.22 851.11,-90.22"/>
<text text-anchor="middle" x="914" y="-108.5" font-family="Helvetica,sans-Serif" font-size="10.00"> mSeqDataMgr</text>
</g>
<!-- Node36&#45;&gt;Node31 -->
<g id="edge45" class="edge">
<title>Node36&#45;&gt;Node31</title>
<path fill="none" stroke="#9a32cd" stroke-dasharray="5,2" d="M856.31,-58.83C886.15,-62.03 922.39,-68.28 953,-80.5 977.25,-90.18 1001.49,-109.05 1015.03,-120.64"/>
<polygon fill="#9a32cd" stroke="#9a32cd" points="857.01,-55.38 846.71,-57.89 856.33,-62.35 857.01,-55.38"/>
<text text-anchor="middle" x="914" y="-83.5" font-family="Helvetica,sans-Serif" font-size="10.00"> mCategoryMgrs</text>
</g>
<!-- Node37 -->
<g id="node37" class="node">
<title>Node37</title>
<g id="a_node37"><a xlink:href="structJASNonCopyable.html" target="_top" xlink:title=" ">
<polygon fill="white" stroke="#666666" points="596,-56 503,-56 503,-37 596,-37 596,-56"/>
<text text-anchor="middle" x="549.5" y="-44" font-family="Helvetica,sans-Serif" font-size="10.00">JASNonCopyable</text>
</a>
</g>
</g>
<!-- Node37&#45;&gt;Node36 -->
<g id="edge47" class="edge">
<title>Node37&#45;&gt;Node36</title>
<path fill="none" stroke="#9a32cd" stroke-dasharray="5,2" d="M607.89,-44.88C640.01,-44.38 680.76,-44.42 717,-46.5 726.66,-47.06 736.96,-48 746.81,-49.06"/>
<polygon fill="#9a32cd" stroke="#9a32cd" points="607.93,-41.38 597.99,-45.06 608.05,-48.38 607.93,-41.38"/>
<text text-anchor="middle" x="675" y="-49.5" font-family="Helvetica,sans-Serif" font-size="10.00"> field_0x4</text>
</g>
<!-- Node38&#45;&gt;Node36 -->
<g id="edge49" class="edge">
<title>Node38&#45;&gt;Node36</title>
<path fill="none" stroke="#9a32cd" stroke-dasharray="5,2" d="M609.33,-14.25C641.4,-17.5 681.66,-22.68 717,-30.5 734.36,-34.34 753.36,-40.39 768.26,-45.58"/>
<polygon fill="#9a32cd" stroke="#9a32cd" points="609.71,-10.77 599.41,-13.28 609.03,-17.73 609.71,-10.77"/>
<text text-anchor="middle" x="675" y="-33.5" font-family="Helvetica,sans-Serif" font-size="10.00"> mSeList</text>
</g>
<!-- Node39 -->
<g id="node39" class="node">
<title>Node39</title>
<g id="a_node39"><a xlink:href="structJAISoundStrategyMgr.html" target="_top" xlink:title=" ">
<polygon fill="white" stroke="#666666" points="1083,-239.5 971,-239.5 971,-209.5 1083,-209.5 1083,-239.5"/>
<text text-anchor="start" x="979" y="-227.5" font-family="Helvetica,sans-Serif" font-size="10.00">JAISoundStrategyMgr</text>
<text text-anchor="middle" x="1027" y="-216.5" font-family="Helvetica,sans-Serif" font-size="10.00">&lt; JAISe &gt;</text>
</a>
</g>
</g>
<!-- Node39&#45;&gt;Node19 -->
<g id="edge52" class="edge">
<title>Node39&#45;&gt;Node19</title>
<path fill="none" stroke="#9a32cd" stroke-dasharray="5,2" d="M1094.55,-234.9C1124.64,-240.36 1160.45,-247.93 1192,-257.5 1208.97,-262.65 1227.49,-270.35 1241.29,-276.52"/>
<polygon fill="#9a32cd" stroke="#9a32cd" points="1095.27,-231.47 1084.81,-233.17 1094.04,-238.37 1095.27,-231.47"/>
<text text-anchor="middle" x="1146.5" y="-260.5" font-family="Helvetica,sans-Serif" font-size="10.00"> mSoundStrategyMgr</text>
</g>
<!-- Node40 -->
<g id="node40" class="node">
<title>Node40</title>
<g id="a_node40"><a xlink:href="structJAISoundStrategyMgr____unknown.html" target="_top" xlink:title=" ">
<polygon fill="white" stroke="#666666" points="1083,-191.5 971,-191.5 971,-161.5 1083,-161.5 1083,-191.5"/>
<text text-anchor="start" x="979" y="-179.5" font-family="Helvetica,sans-Serif" font-size="10.00">JAISoundStrategyMgr</text>
<text text-anchor="middle" x="1027" y="-168.5" font-family="Helvetica,sans-Serif" font-size="10.00">__unknown&lt; JAISe &gt;</text>
</a>
</g>
</g>
<!-- Node40&#45;&gt;Node19 -->
<g id="edge53" class="edge">
<title>Node40&#45;&gt;Node19</title>
<path fill="none" stroke="#9a32cd" stroke-dasharray="5,2" d="M1094.44,-187.21C1125.43,-194.05 1161.99,-204.86 1192,-221.5 1218.21,-236.03 1242.41,-262.26 1254.48,-276.56"/>
<polygon fill="#9a32cd" stroke="#9a32cd" points="1095.29,-183.81 1084.78,-185.18 1093.85,-190.66 1095.29,-183.81"/>
<text text-anchor="middle" x="1146.5" y="-224.5" font-family="Helvetica,sans-Serif" font-size="10.00"> field_0x278</text>
</g>
<!-- Node41&#45;&gt;Node19 -->
<g id="edge54" class="edge">
<title>Node41&#45;&gt;Node19</title>
<path fill="none" stroke="#9a32cd" stroke-dasharray="5,2" d="M940.71,-566.54C991.77,-534.17 1108.24,-456.94 1192,-375.5 1218.71,-349.53 1244.41,-313.4 1256.03,-296.26"/>
<polygon fill="#9a32cd" stroke="#9a32cd" points="939,-563.48 932.4,-571.77 942.73,-569.4 939,-563.48"/>
<text text-anchor="middle" x="1027" y="-548.5" font-family="Helvetica,sans-Serif" font-size="10.00"> mTempoMgr</text>
</g>
</g>
</svg>
        <g id="navigator" transform="translate(0 0)" fill="#404254">
                <rect fill="#f2f5e9" fill-opacity="0.5" stroke="#606060" stroke-width=".5" x="0" y="0" width="60" height="60"/>
                <use id="zoomplus" xlink:href="#zoomPlus" x="17" y="9" onmousedown="handleZoom(evt,'in')"/>
                <use id="zoomminus" xlink:href="#zoomMin" x="42" y="9" onmousedown="handleZoom(evt,'out')"/>
                <use id="reset" xlink:href="#resetDef" x="30" y="36" onmousedown="handleReset()"/>
                <g id="arrowUp" xlink:href="#dirArrow" transform="translate(30 24)" onmousedown="handlePan(0,-1)">
                  <use xlink:href="#rim" fill="#404040">
                        <set attributeName="fill" to="#808080" begin="arrowUp.mouseover" end="arrowUp.mouseout"/>
                  </use>
                  <path fill="none" stroke="white" stroke-width="1.5" d="M0,-3.0v7 M-2.5,-0.5L0,-3.0L2.5,-0.5"/>
                </g>
                <g id="arrowRight" xlink:href="#dirArrow" transform="rotate(90) translate(36 -43)" onmousedown="handlePan(1,0)">
                  <use xlink:href="#rim" fill="#404040">
                        <set attributeName="fill" to="#808080" begin="arrowRight.mouseover" end="arrowRight.mouseout"/>
                  </use>
                  <path fill="none" stroke="white" stroke-width="1.5" d="M0,-3.0v7 M-2.5,-0.5L0,-3.0L2.5,-0.5"/>
                </g>
                <g id="arrowDown" xlink:href="#dirArrow" transform="rotate(180) translate(-30 -48)" onmousedown="handlePan(0,1)">
                  <use xlink:href="#rim" fill="#404040">
                        <set attributeName="fill" to="#808080" begin="arrowDown.mouseover" end="arrowDown.mouseout"/>
                  </use>
                  <path fill="none" stroke="white" stroke-width="1.5" d="M0,-3.0v7 M-2.5,-0.5L0,-3.0L2.5,-0.5"/>
                </g>
                <g id="arrowLeft" xlink:href="#dirArrow" transform="rotate(270) translate(-36 17)" onmousedown="handlePan(-1,0)">
                  <use xlink:href="#rim" fill="#404040">
                        <set attributeName="fill" to="#808080" begin="arrowLeft.mouseover" end="arrowLeft.mouseout"/>
                  </use>
                  <path fill="none" stroke="white" stroke-width="1.5" d="M0,-3.0v7 M-2.5,-0.5L0,-3.0L2.5,-0.5"/>
                </g>
        </g>
        <svg viewBox="0 0 15 15" width="100%" height="30px" preserveAspectRatio="xMaxYMin meet">
         <g id="arrow_out" transform="scale(0.3 0.3)">
          <a xlink:href="classJAISe__coll__graph_org.svg" target="_base">
           <rect id="button" ry="5" rx="5" y="6" x="6" height="38" width="38"
                fill="#f2f5e9" fill-opacity="0.5" stroke="#606060" stroke-width="1.0"/>
           <path id="arrow"
             d="M 11.500037,31.436501 C 11.940474,20.09759 22.043105,11.32322 32.158766,21.979434 L 37.068811,17.246167 C 37.068811,17.246167 37.088388,32 37.088388,32 L 22.160133,31.978069 C 22.160133,31.978069 26.997745,27.140456 26.997745,27.140456 C 18.528582,18.264221 13.291696,25.230495 11.500037,31.436501 z"
             style="fill:#404040;"/>
          </a>
         </g>
        </svg>
</svg>
