<?xml version="1.0" encoding="UTF-8" standalone="no"?>
<!DOCTYPE svg PUBLIC "-//W3C//DTD SVG 1.1//EN"
 "http://www.w3.org/Graphics/SVG/1.1/DTD/svg11.dtd">
<!-- Generated by graphviz version 7.0.5 (20221223.1930)
 -->
<!-- Title: JAISe::TInner Pages: 1 -->
<!--zoomable 673 -->
<svg id="main" version="1.1" xmlns="http://www.w3.org/2000/svg" xmlns:xlink="http://www.w3.org/1999/xlink" xml:space="preserve" onload="init(evt)">
<style type="text/css"><![CDATA[
.edge:hover path { stroke: red; }
.edge:hover polygon { stroke: red; fill: red; }
]]></style>
<script type="text/javascript"><![CDATA[
var edges = document.getElementsByTagName('g');
if (edges && edges.length) {
  for (var i=0;i<edges.length;i++) {
    if (edges[i].id.substr(0,4)=='edge') {
      edges[i].setAttribute('class','edge');
    }
  }
}
]]></script>
        <defs>
                <circle id="rim" cx="0" cy="0" r="7"/>
                <circle id="rim2" cx="0" cy="0" r="3.5"/>
                <g id="zoomPlus">
                        <use xlink:href="#rim" fill="#404040">
                                <set attributeName="fill" to="#808080" begin="zoomplus.mouseover" end="zoomplus.mouseout"/>
                        </use>
                        <path d="M-4,0h8M0,-4v8" fill="none" stroke="white" stroke-width="1.5" pointer-events="none"/>
                </g>
                <g id="zoomMin">
                        <use xlink:href="#rim" fill="#404040">
                                <set attributeName="fill" to="#808080" begin="zoomminus.mouseover" end="zoomminus.mouseout"/>
                        </use>
                        <path d="M-4,0h8" fill="none" stroke="white" stroke-width="1.5" pointer-events="none"/>
                </g>
                <g id="dirArrow">
                        <path fill="none" stroke="white" stroke-width="1.5" d="M0,-3.0v7 M-2.5,-0.5L0,-3.0L2.5,-0.5"/>
                </g>
               <g id="resetDef">
                       <use xlink:href="#rim2" fill="#404040">
                               <set attributeName="fill" to="#808080" begin="reset.mouseover" end="reset.mouseout"/>
                       </use>
               </g>
        </defs>

<script type="text/javascript">
var viewWidth = 1270;
var viewHeight = 673;
var sectionId = 'dynsection-0';
</script>
<script xlink:href="svgpan.js"/>
<svg id="graph" class="graph">
<g id="viewport">
<title>JAISe::TInner</title>
<!-- Node1 -->
<g id="node1" class="node">
<title>Node1</title>
<g id="a_node1"><a xlink:title=" ">
<polygon fill="#999999" stroke="#666666" points="1246.5,-469 1170.5,-469 1170.5,-450 1246.5,-450 1246.5,-469"/>
<text text-anchor="middle" x="1208.5" y="-457" font-family="Helvetica,sans-Serif" font-size="10.00">JAISe::TInner</text>
</a>
</g>
</g>
<!-- Node2 -->
<g id="node2" class="node">
<title>Node2</title>
<g id="a_node2"><a xlink:href="structJASSoundParams.html" target="_top" xlink:title=" ">
<polygon fill="white" stroke="#666666" points="330.5,-380 233.5,-380 233.5,-361 330.5,-361 330.5,-380"/>
<text text-anchor="middle" x="282" y="-368" font-family="Helvetica,sans-Serif" font-size="10.00">JASSoundParams</text>
</a>
</g>
</g>
<!-- Node2&#45;&gt;Node1 -->
<g id="edge1" class="edge">
<title>Node2&#45;&gt;Node1</title>
<path fill="none" stroke="#9a32cd" stroke-dasharray="5,2" d="M299.06,-388.87C328.19,-420.7 393.32,-485.21 464,-511.5 581.48,-555.2 904.42,-539.42 1028,-518.5 1086.22,-508.64 1151.31,-483.48 1184.83,-469.41"/>
<polygon fill="#9a32cd" stroke="#9a32cd" points="301.81,-386.69 292.52,-381.59 296.6,-391.37 301.81,-386.69"/>
<text text-anchor="middle" x="743" y="-541.5" font-family="Helvetica,sans-Serif" font-size="10.00"> mSoundParams</text>
</g>
<!-- Node11 -->
<g id="node11" class="node">
<title>Node11</title>
<g id="a_node11"><a xlink:href="structJASTrack_1_1TChannelMgr.html" target="_top" xlink:title=" ">
<polygon fill="white" stroke="#666666" points="804,-399 682,-399 682,-380 804,-380 804,-399"/>
<text text-anchor="middle" x="743" y="-387" font-family="Helvetica,sans-Serif" font-size="10.00">JASTrack::TChannelMgr</text>
</a>
</g>
</g>
<!-- Node2&#45;&gt;Node11 -->
<g id="edge13" class="edge">
<title>Node2&#45;&gt;Node11</title>
<path fill="none" stroke="#9a32cd" stroke-dasharray="5,2" d="M341.92,-371.73C402.06,-373.11 498.06,-375.67 581,-379.5 614.29,-381.04 651.42,-383.31 681.63,-385.29"/>
<polygon fill="#9a32cd" stroke="#9a32cd" points="342.35,-368.24 332.27,-371.51 342.19,-375.23 342.35,-368.24"/>
<text text-anchor="middle" x="522.5" y="-382.5" font-family="Helvetica,sans-Serif" font-size="10.00"> field_0x48</text>
</g>
<!-- Node22 -->
<g id="node22" class="node">
<title>Node22</title>
<g id="a_node22"><a xlink:href="structJAISoundParamsMove.html" target="_top" xlink:title=" ">
<polygon fill="white" stroke="#666666" points="581,-154 464,-154 464,-135 581,-135 581,-154"/>
<text text-anchor="middle" x="522.5" y="-142" font-family="Helvetica,sans-Serif" font-size="10.00">JAISoundParamsMove</text>
</a>
</g>
</g>
<!-- Node2&#45;&gt;Node22 -->
<g id="edge27" class="edge">
<title>Node2&#45;&gt;Node22</title>
<path fill="none" stroke="#9a32cd" stroke-dasharray="5,2" d="M305.77,-353.98C340.53,-327.68 406.92,-273.03 446,-212.5 458.81,-192.66 446.95,-178.84 464,-162.5 467.4,-159.24 471.38,-156.57 475.63,-154.39"/>
<polygon fill="#9a32cd" stroke="#9a32cd" points="303.99,-350.95 298.06,-359.73 308.17,-356.56 303.99,-350.95"/>
<text text-anchor="middle" x="407" y="-304.5" font-family="Helvetica,sans-Serif" font-size="10.00"> mParams</text>
</g>
<!-- Node3 -->
<g id="node3" class="node">
<title>Node3</title>
<g id="a_node3"><a xlink:href="structJASTrack.html" target="_top" xlink:title=" ">
<polygon fill="white" stroke="#666666" points="1002,-469 942,-469 942,-450 1002,-450 1002,-469"/>
<text text-anchor="middle" x="972" y="-457" font-family="Helvetica,sans-Serif" font-size="10.00">JASTrack</text>
</a>
</g>
</g>
<!-- Node3&#45;&gt;Node1 -->
<g id="edge2" class="edge">
<title>Node3&#45;&gt;Node1</title>
<path fill="none" stroke="#9a32cd" stroke-dasharray="5,2" d="M1013.66,-459.5C1057.72,-459.5 1127.43,-459.5 1170.15,-459.5"/>
<polygon fill="#9a32cd" stroke="#9a32cd" points="1013.74,-456 1003.74,-459.5 1013.74,-463 1013.74,-456"/>
<text text-anchor="middle" x="1091.5" y="-462.5" font-family="Helvetica,sans-Serif" font-size="10.00"> track</text>
</g>
<!-- Node3&#45;&gt;Node3 -->
<g id="edge10" class="edge">
<title>Node3&#45;&gt;Node3</title>
<path fill="none" stroke="#9a32cd" stroke-dasharray="5,2" d="M952.12,-480.43C954.61,-484.29 961.23,-487 972,-487 991.69,-487 997.53,-477.94 989.53,-469.37"/>
<polygon fill="#9a32cd" stroke="#9a32cd" points="955.5,-481.36 954.15,-470.85 948.65,-479.91 955.5,-481.36"/>
<text text-anchor="middle" x="972" y="-501" font-family="Helvetica,sans-Serif" font-size="10.00"> mChildren</text>
<text text-anchor="middle" x="972" y="-490" font-family="Helvetica,sans-Serif" font-size="10.00">mParent</text>
</g>
<!-- Node3&#45;&gt;Node11 -->
<g id="edge14" class="edge">
<title>Node3&#45;&gt;Node11</title>
<path fill="none" stroke="#9a32cd" stroke-dasharray="5,2" d="M931.26,-451.1C925.57,-448.47 920.22,-445.03 916,-440.5 894.98,-417.95 922.47,-392.26 898,-373.5 858.54,-343.24 795.69,-365.07 763.86,-379.51"/>
<polygon fill="#9a32cd" stroke="#9a32cd" points="929.71,-454.26 940.31,-454.47 932.16,-447.7 929.71,-454.26"/>
<text text-anchor="middle" x="860" y="-376.5" font-family="Helvetica,sans-Serif" font-size="10.00"> field_0x4c</text>
</g>
<!-- Node4 -->
<g id="node4" class="node">
<title>Node4</title>
<g id="a_node4"><a xlink:href="classJASSeqCtrl.html" target="_top" xlink:title=" ">
<polygon fill="white" stroke="#666666" points="777,-513 709,-513 709,-494 777,-494 777,-513"/>
<text text-anchor="middle" x="743" y="-501" font-family="Helvetica,sans-Serif" font-size="10.00">JASSeqCtrl</text>
</a>
</g>
</g>
<!-- Node4&#45;&gt;Node3 -->
<g id="edge3" class="edge">
<title>Node4&#45;&gt;Node3</title>
<path fill="none" stroke="#9a32cd" stroke-dasharray="5,2" d="M788.46,-497.41C819.33,-492.9 861.34,-486.23 898,-478.5 912.48,-475.45 928.4,-471.39 941.67,-467.8"/>
<polygon fill="#9a32cd" stroke="#9a32cd" points="788.11,-493.92 778.71,-498.81 789.11,-500.85 788.11,-493.92"/>
<text text-anchor="middle" x="860" y="-494.5" font-family="Helvetica,sans-Serif" font-size="10.00"> mSeqCtrl</text>
</g>
<!-- Node5 -->
<g id="node5" class="node">
<title>Node5</title>
<g id="a_node5"><a xlink:href="classJASSeqReader.html" target="_top" xlink:title=" ">
<polygon fill="white" stroke="#666666" points="564,-502 481,-502 481,-483 564,-483 564,-502"/>
<text text-anchor="middle" x="522.5" y="-490" font-family="Helvetica,sans-Serif" font-size="10.00">JASSeqReader</text>
</a>
</g>
</g>
<!-- Node5&#45;&gt;Node4 -->
<g id="edge4" class="edge">
<title>Node5&#45;&gt;Node4</title>
<path fill="none" stroke="#9a32cd" stroke-dasharray="5,2" d="M575.8,-495.13C616.99,-497.21 673.17,-500.03 708.51,-501.81"/>
<polygon fill="#9a32cd" stroke="#9a32cd" points="576.02,-491.64 565.85,-494.63 575.66,-498.63 576.02,-491.64"/>
<text text-anchor="middle" x="631.5" y="-501.5" font-family="Helvetica,sans-Serif" font-size="10.00"> mReader</text>
</g>
<!-- Node6 -->
<g id="node6" class="node">
<title>Node6</title>
<g id="a_node6"><a xlink:href="structJASSeqParser.html" target="_top" xlink:title=" ">
<polygon fill="white" stroke="#666666" points="563,-578 482,-578 482,-559 563,-559 563,-578"/>
<text text-anchor="middle" x="522.5" y="-566" font-family="Helvetica,sans-Serif" font-size="10.00">JASSeqParser</text>
</a>
</g>
</g>
<!-- Node6&#45;&gt;Node4 -->
<g id="edge5" class="edge">
<title>Node6&#45;&gt;Node4</title>
<path fill="none" stroke="#9a32cd" stroke-dasharray="5,2" d="M567.6,-555.38C609.23,-543 670.75,-524.7 708.5,-513.47"/>
<polygon fill="#9a32cd" stroke="#9a32cd" points="566.72,-551.99 558.14,-558.2 568.72,-558.7 566.72,-551.99"/>
<text text-anchor="middle" x="631.5" y="-559.5" font-family="Helvetica,sans-Serif" font-size="10.00"> field_0x3c</text>
<text text-anchor="middle" x="631.5" y="-548.5" font-family="Helvetica,sans-Serif" font-size="10.00">sDefaultParser</text>
</g>
<!-- Node7 -->
<g id="node7" class="node">
<title>Node7</title>
<g id="a_node7"><a xlink:href="structJASSeqParser_1_1CmdInfo.html" target="_top" xlink:title=" ">
<polygon fill="white" stroke="#666666" points="343,-578 221,-578 221,-559 343,-559 343,-578"/>
<text text-anchor="middle" x="282" y="-566" font-family="Helvetica,sans-Serif" font-size="10.00">JASSeqParser::CmdInfo</text>
</a>
</g>
</g>
<!-- Node7&#45;&gt;Node6 -->
<g id="edge6" class="edge">
<title>Node7&#45;&gt;Node6</title>
<path fill="none" stroke="#9a32cd" stroke-dasharray="5,2" d="M354.63,-566.69C359.16,-566.62 363.64,-566.55 368,-566.5 402.66,-566.09 411.34,-566.04 446,-566.5 457.54,-566.65 470.06,-566.94 481.54,-567.24"/>
<polygon fill="#9a32cd" stroke="#9a32cd" points="354.81,-563.19 344.88,-566.88 354.94,-570.19 354.81,-563.19"/>
<text text-anchor="middle" x="407" y="-580.5" font-family="Helvetica,sans-Serif" font-size="10.00"> sCmdInfo</text>
<text text-anchor="middle" x="407" y="-569.5" font-family="Helvetica,sans-Serif" font-size="10.00">sExtCmdInfo</text>
</g>
<!-- Node8 -->
<g id="node8" class="node">
<title>Node8</title>
<g id="a_node8"><a xlink:href="classJASTrackPort.html" target="_top" xlink:title=" ">
<polygon fill="white" stroke="#666666" points="782,-348 704,-348 704,-329 782,-329 782,-348"/>
<text text-anchor="middle" x="743" y="-336" font-family="Helvetica,sans-Serif" font-size="10.00">JASTrackPort</text>
</a>
</g>
</g>
<!-- Node8&#45;&gt;Node3 -->
<g id="edge7" class="edge">
<title>Node8&#45;&gt;Node3</title>
<path fill="none" stroke="#9a32cd" stroke-dasharray="5,2" d="M789.09,-326.26C823.02,-319.98 868.56,-318.2 898,-343.5 931.26,-372.08 887.39,-407.27 916,-440.5 922.53,-448.08 932.23,-452.64 941.68,-455.38"/>
<polygon fill="#9a32cd" stroke="#9a32cd" points="788.64,-322.78 779.55,-328.23 790.05,-329.63 788.64,-322.78"/>
<text text-anchor="middle" x="860" y="-346.5" font-family="Helvetica,sans-Serif" font-size="10.00"> mTrackPort</text>
</g>
<!-- Node9 -->
<g id="node9" class="node">
<title>Node9</title>
<g id="a_node9"><a xlink:href="classJASRegisterParam.html" target="_top" xlink:title=" ">
<polygon fill="white" stroke="#666666" points="793,-476 693,-476 693,-457 793,-457 793,-476"/>
<text text-anchor="middle" x="743" y="-464" font-family="Helvetica,sans-Serif" font-size="10.00">JASRegisterParam</text>
</a>
</g>
</g>
<!-- Node9&#45;&gt;Node3 -->
<g id="edge8" class="edge">
<title>Node9&#45;&gt;Node3</title>
<path fill="none" stroke="#9a32cd" stroke-dasharray="5,2" d="M804.49,-464.63C848.82,-463.27 907.07,-461.47 941.62,-460.41"/>
<polygon fill="#9a32cd" stroke="#9a32cd" points="804.66,-461.13 794.77,-464.93 804.87,-468.12 804.66,-461.13"/>
<text text-anchor="middle" x="860" y="-466.5" font-family="Helvetica,sans-Serif" font-size="10.00"> mRegisterParam</text>
</g>
<!-- Node10 -->
<g id="node10" class="node">
<title>Node10</title>
<g id="a_node10"><a xlink:href="structJASTrack_1_1MoveParam__.html" target="_top" xlink:title=" ">
<polygon fill="white" stroke="#666666" points="804,-439 682,-439 682,-420 804,-420 804,-439"/>
<text text-anchor="middle" x="743" y="-427" font-family="Helvetica,sans-Serif" font-size="10.00">JASTrack::MoveParam_</text>
</a>
</g>
</g>
<!-- Node10&#45;&gt;Node3 -->
<g id="edge9" class="edge">
<title>Node10&#45;&gt;Node3</title>
<path fill="none" stroke="#9a32cd" stroke-dasharray="5,2" d="M815.73,-436.42C841.7,-439.19 871.21,-442.64 898,-446.5 912.4,-448.57 928.31,-451.35 941.59,-453.8"/>
<polygon fill="#9a32cd" stroke="#9a32cd" points="816.27,-432.96 805.96,-435.4 815.54,-439.92 816.27,-432.96"/>
<text text-anchor="middle" x="860" y="-449.5" font-family="Helvetica,sans-Serif" font-size="10.00"> field_0x9c</text>
</g>
<!-- Node11&#45;&gt;Node3 -->
<g id="edge11" class="edge">
<title>Node11&#45;&gt;Node3</title>
<path fill="none" stroke="#9a32cd" stroke-dasharray="5,2" d="M815.7,-387.16C843.31,-389.34 873.95,-395.79 898,-411.5 910.7,-419.8 904.15,-431.03 916,-440.5 923.42,-446.43 932.81,-450.56 941.71,-453.42"/>
<polygon fill="#9a32cd" stroke="#9a32cd" points="816.19,-383.69 806,-386.58 815.77,-390.67 816.19,-383.69"/>
<text text-anchor="middle" x="860" y="-425.5" font-family="Helvetica,sans-Serif" font-size="10.00"> field_0x170</text>
<text text-anchor="middle" x="860" y="-414.5" font-family="Helvetica,sans-Serif" font-size="10.00">field_0x180</text>
</g>
<!-- Node12 -->
<g id="node12" class="node">
<title>Node12</title>
<g id="a_node12"><a xlink:href="structJASChannel.html" target="_top" xlink:title=" ">
<polygon fill="white" stroke="#666666" points="558,-419 487,-419 487,-400 558,-400 558,-419"/>
<text text-anchor="middle" x="522.5" y="-407" font-family="Helvetica,sans-Serif" font-size="10.00">JASChannel</text>
</a>
</g>
</g>
<!-- Node12&#45;&gt;Node11 -->
<g id="edge12" class="edge">
<title>Node12&#45;&gt;Node11</title>
<path fill="none" stroke="#9a32cd" stroke-dasharray="5,2" d="M569.57,-405.28C602.15,-402.3 646.15,-398.27 681.55,-395.03"/>
<polygon fill="#9a32cd" stroke="#9a32cd" points="569.27,-401.8 559.63,-406.19 569.91,-408.77 569.27,-401.8"/>
<text text-anchor="middle" x="631.5" y="-405.5" font-family="Helvetica,sans-Serif" font-size="10.00"> field_0x0</text>
</g>
<!-- Node13 -->
<g id="node13" class="node">
<title>Node13</title>
<g id="a_node13"><a xlink:href="structJAISeqData.html" target="_top" xlink:title=" ">
<polygon fill="white" stroke="#666666" points="1006.5,-432 937.5,-432 937.5,-413 1006.5,-413 1006.5,-432"/>
<text text-anchor="middle" x="972" y="-420" font-family="Helvetica,sans-Serif" font-size="10.00">JAISeqData</text>
</a>
</g>
</g>
<!-- Node13&#45;&gt;Node1 -->
<g id="edge15" class="edge">
<title>Node13&#45;&gt;Node1</title>
<path fill="none" stroke="#9a32cd" stroke-dasharray="5,2" d="M1017.84,-427.58C1050.88,-431.55 1096.87,-437.55 1137,-444.5 1147.85,-446.38 1159.57,-448.74 1170.28,-451.03"/>
<polygon fill="#9a32cd" stroke="#9a32cd" points="1018.57,-424.14 1008.23,-426.44 1017.74,-431.09 1018.57,-424.14"/>
<text text-anchor="middle" x="1091.5" y="-447.5" font-family="Helvetica,sans-Serif" font-size="10.00"> mSeqData</text>
</g>
<!-- Node14 -->
<g id="node14" class="node">
<title>Node14</title>
<g id="a_node14"><a xlink:href="classJAISeMgr.html" target="_top" xlink:title=" ">
<polygon fill="white" stroke="#666666" points="1002,-236 942,-236 942,-217 1002,-217 1002,-236"/>
<text text-anchor="middle" x="972" y="-224" font-family="Helvetica,sans-Serif" font-size="10.00">JAISeMgr</text>
</a>
</g>
</g>
<!-- Node14&#45;&gt;Node1 -->
<g id="edge16" class="edge">
<title>Node14&#45;&gt;Node1</title>
<path fill="none" stroke="#9a32cd" stroke-dasharray="5,2" d="M993,-243.36C1024.66,-270.35 1087.77,-325.43 1137,-376.5 1161.27,-401.68 1187.28,-433.81 1199.84,-449.7"/>
<polygon fill="#9a32cd" stroke="#9a32cd" points="995.64,-241 985.75,-237.2 991.11,-246.34 995.64,-241"/>
<text text-anchor="middle" x="1091.5" y="-379.5" font-family="Helvetica,sans-Serif" font-size="10.00"> seMgr</text>
</g>
<!-- Node15 -->
<g id="node15" class="node">
<title>Node15</title>
<g id="a_node15"><a xlink:href="classJASGlobalInstance.html" target="_top" xlink:title=" ">
<polygon fill="white" stroke="#666666" points="1262,-241.5 1155,-241.5 1155,-211.5 1262,-211.5 1262,-241.5"/>
<text text-anchor="start" x="1163" y="-229.5" font-family="Helvetica,sans-Serif" font-size="10.00">JASGlobalInstance&lt;</text>
<text text-anchor="middle" x="1208.5" y="-218.5" font-family="Helvetica,sans-Serif" font-size="10.00"> JAISeMgr &gt;</text>
</a>
</g>
</g>
<!-- Node14&#45;&gt;Node15 -->
<g id="edge18" class="edge">
<title>Node14&#45;&gt;Node15</title>
<path fill="none" stroke="#9a32cd" stroke-dasharray="5,2" d="M1013.35,-217.35C1023.92,-215.34 1035.34,-213.51 1046,-212.5 1086.26,-208.67 1096.75,-208.54 1137,-212.5 1142.71,-213.06 1148.65,-213.87 1154.54,-214.83"/>
<polygon fill="#9a32cd" stroke="#9a32cd" points="1012.9,-213.87 1003.78,-219.27 1014.27,-220.73 1012.9,-213.87"/>
<text text-anchor="middle" x="1091.5" y="-215.5" font-family="Helvetica,sans-Serif" font-size="10.00"> sInstance</text>
</g>
<!-- Node15&#45;&gt;Node14 -->
<g id="edge17" class="edge">
<title>Node15&#45;&gt;Node14</title>
<path fill="none" stroke="#63b8ff" d="M1143.24,-226.5C1097.18,-226.5 1037.31,-226.5 1002.23,-226.5"/>
<polygon fill="#63b8ff" stroke="#63b8ff" points="1143.12,-230 1153.12,-226.5 1143.12,-223 1143.12,-230"/>
</g>
<!-- Node16 -->
<g id="node16" class="node">
<title>Node16</title>
<g id="a_node16"><a xlink:href="structJAISeqDataUser.html" target="_top" xlink:title=" ">
<polygon fill="white" stroke="#666666" points="567.5,-234 477.5,-234 477.5,-215 567.5,-215 567.5,-234"/>
<text text-anchor="middle" x="522.5" y="-222" font-family="Helvetica,sans-Serif" font-size="10.00">JAISeqDataUser</text>
</a>
</g>
</g>
<!-- Node16&#45;&gt;Node14 -->
<g id="edge19" class="edge">
<title>Node16&#45;&gt;Node14</title>
<path fill="none" stroke="#63b8ff" d="M579.1,-224.75C674.9,-225.18 867.88,-226.04 941.53,-226.37"/>
<polygon fill="#63b8ff" stroke="#63b8ff" points="579.16,-221.25 569.15,-224.7 579.13,-228.25 579.16,-221.25"/>
</g>
<!-- Node20 -->
<g id="node20" class="node">
<title>Node20</title>
<g id="a_node20"><a xlink:href="structJAISeCategoryMgr.html" target="_top" xlink:title=" ">
<polygon fill="white" stroke="#666666" points="792,-198 694,-198 694,-179 792,-179 792,-198"/>
<text text-anchor="middle" x="743" y="-186" font-family="Helvetica,sans-Serif" font-size="10.00">JAISeCategoryMgr</text>
</a>
</g>
</g>
<!-- Node16&#45;&gt;Node20 -->
<g id="edge24" class="edge">
<title>Node16&#45;&gt;Node20</title>
<path fill="none" stroke="#63b8ff" d="M579.1,-215.34C614.5,-209.51 659.91,-202.02 693.79,-196.44"/>
<polygon fill="#63b8ff" stroke="#63b8ff" points="578.77,-211.85 569.47,-216.93 579.91,-218.75 578.77,-211.85"/>
</g>
<!-- Node17 -->
<g id="node17" class="node">
<title>Node17</title>
<g id="a_node17"><a xlink:href="classJAISoundActivity.html" target="_top" xlink:title=" ">
<polygon fill="white" stroke="#666666" points="789,-161 697,-161 697,-142 789,-142 789,-161"/>
<text text-anchor="middle" x="743" y="-149" font-family="Helvetica,sans-Serif" font-size="10.00">JAISoundActivity</text>
</a>
</g>
</g>
<!-- Node17&#45;&gt;Node14 -->
<g id="edge20" class="edge">
<title>Node17&#45;&gt;Node14</title>
<path fill="none" stroke="#63b8ff" d="M800.38,-161.01C829.99,-166.91 866.56,-175.66 898,-187.5 918.71,-195.3 940.92,-207.83 955.33,-216.57"/>
<polygon fill="#63b8ff" stroke="#63b8ff" points="801.36,-157.63 790.88,-159.17 800.03,-164.51 801.36,-157.63"/>
</g>
<!-- Node18 -->
<g id="node18" class="node">
<title>Node18</title>
<g id="a_node18"><a xlink:href="structJAIAudience.html" target="_top" xlink:title=" ">
<polygon fill="white" stroke="#666666" points="779,-311 707,-311 707,-292 779,-292 779,-311"/>
<text text-anchor="middle" x="743" y="-299" font-family="Helvetica,sans-Serif" font-size="10.00">JAIAudience</text>
</a>
</g>
</g>
<!-- Node18&#45;&gt;Node14 -->
<g id="edge21" class="edge">
<title>Node18&#45;&gt;Node14</title>
<path fill="none" stroke="#9a32cd" stroke-dasharray="5,2" d="M790.42,-295.41C821.56,-290.4 863.1,-281.9 898,-268.5 919.7,-260.17 942.61,-245.98 956.85,-236.43"/>
<polygon fill="#9a32cd" stroke="#9a32cd" points="790.3,-291.89 780.95,-296.87 791.36,-298.81 790.3,-291.89"/>
<text text-anchor="middle" x="860" y="-292.5" font-family="Helvetica,sans-Serif" font-size="10.00"> mAudience</text>
</g>
<!-- Node19 -->
<g id="node19" class="node">
<title>Node19</title>
<g id="a_node19"><a xlink:href="structJAISeqDataMgr.html" target="_top" xlink:title=" ">
<polygon fill="white" stroke="#666666" points="786,-274 700,-274 700,-255 786,-255 786,-274"/>
<text text-anchor="middle" x="743" y="-262" font-family="Helvetica,sans-Serif" font-size="10.00">JAISeqDataMgr</text>
</a>
</g>
</g>
<!-- Node19&#45;&gt;Node14 -->
<g id="edge22" class="edge">
<title>Node19&#45;&gt;Node14</title>
<path fill="none" stroke="#9a32cd" stroke-dasharray="5,2" d="M797.59,-256.62C827.23,-252.14 864.7,-246.29 898,-240.5 912.37,-238 928.27,-234.98 941.56,-232.39"/>
<polygon fill="#9a32cd" stroke="#9a32cd" points="797.09,-253.15 787.72,-258.1 798.13,-260.08 797.09,-253.15"/>
<text text-anchor="middle" x="860" y="-256.5" font-family="Helvetica,sans-Serif" font-size="10.00"> mSeqDataMgr</text>
</g>
<!-- Node20&#45;&gt;Node14 -->
<g id="edge23" class="edge">
<title>Node20&#45;&gt;Node14</title>
<path fill="none" stroke="#9a32cd" stroke-dasharray="5,2" d="M803.42,-190.11C832.22,-191.75 867.17,-195.02 898,-201.5 914.65,-205 932.75,-211.18 946.76,-216.52"/>
<polygon fill="#9a32cd" stroke="#9a32cd" points="803.98,-186.63 793.82,-189.62 803.62,-193.62 803.98,-186.63"/>
<text text-anchor="middle" x="860" y="-204.5" font-family="Helvetica,sans-Serif" font-size="10.00"> mCategoryMgrs</text>
</g>
<!-- Node21 -->
<g id="node21" class="node">
<title>Node21</title>
<g id="a_node21"><a xlink:href="structJASNonCopyable.html" target="_top" xlink:title=" ">
<polygon fill="white" stroke="#666666" points="569,-191 476,-191 476,-172 569,-172 569,-191"/>
<text text-anchor="middle" x="522.5" y="-179" font-family="Helvetica,sans-Serif" font-size="10.00">JASNonCopyable</text>
</a>
</g>
</g>
<!-- Node21&#45;&gt;Node20 -->
<g id="edge25" class="edge">
<title>Node21&#45;&gt;Node20</title>
<path fill="none" stroke="#9a32cd" stroke-dasharray="5,2" d="M580.54,-180.66C586.77,-180.6 593.02,-180.54 599,-180.5 627.89,-180.31 635.15,-179.02 664,-180.5 673.65,-180.99 683.95,-181.83 693.79,-182.78"/>
<polygon fill="#9a32cd" stroke="#9a32cd" points="580.89,-177.16 570.93,-180.78 580.97,-184.16 580.89,-177.16"/>
<text text-anchor="middle" x="631.5" y="-183.5" font-family="Helvetica,sans-Serif" font-size="10.00"> field_0x4</text>
</g>
<!-- Node22&#45;&gt;Node14 -->
<g id="edge35" class="edge">
<title>Node22&#45;&gt;Node14</title>
<path fill="none" stroke="#9a32cd" stroke-dasharray="5,2" d="M572.68,-132.05C629.1,-119.7 724.12,-104.84 804,-121.5 848.62,-130.81 859.52,-138.08 898,-162.5 923.33,-178.58 948.73,-203.24 961.85,-216.77"/>
<polygon fill="#9a32cd" stroke="#9a32cd" points="572.04,-128.61 563.06,-134.22 573.58,-135.43 572.04,-128.61"/>
<text text-anchor="middle" x="743" y="-124.5" font-family="Helvetica,sans-Serif" font-size="10.00"> mParams</text>
</g>
<!-- Node22&#45;&gt;Node20 -->
<g id="edge26" class="edge">
<title>Node22&#45;&gt;Node20</title>
<path fill="none" stroke="#9a32cd" stroke-dasharray="5,2" d="M592.59,-152.89C615.44,-156.18 640.93,-160.4 664,-165.5 679.99,-169.03 697.51,-174.09 711.88,-178.56"/>
<polygon fill="#9a32cd" stroke="#9a32cd" points="593.14,-149.43 582.75,-151.51 592.17,-156.36 593.14,-149.43"/>
<text text-anchor="middle" x="631.5" y="-168.5" font-family="Helvetica,sans-Serif" font-size="10.00"> mParams</text>
</g>
<!-- Node23 -->
<g id="node23" class="node">
<title>Node23</title>
<g id="a_node23"><a xlink:href="structJAISoundParamsTransition.html" target="_top" xlink:title=" ">
<polygon fill="white" stroke="#666666" points="350,-240 214,-240 214,-221 350,-221 350,-240"/>
<text text-anchor="middle" x="282" y="-228" font-family="Helvetica,sans-Serif" font-size="10.00">JAISoundParamsTransition</text>
</a>
</g>
</g>
<!-- Node23&#45;&gt;Node22 -->
<g id="edge28" class="edge">
<title>Node23&#45;&gt;Node22</title>
<path fill="none" stroke="#9a32cd" stroke-dasharray="5,2" d="M318.57,-216.46C354.91,-202.28 413.08,-180.02 464,-162.5 471.91,-159.78 480.5,-157 488.56,-154.46"/>
<polygon fill="#9a32cd" stroke="#9a32cd" points="317.47,-213.14 309.43,-220.04 320.02,-219.65 317.47,-213.14"/>
<text text-anchor="middle" x="407" y="-200.5" font-family="Helvetica,sans-Serif" font-size="10.00"> mTransition</text>
</g>
<!-- Node24 -->
<g id="node24" class="node">
<title>Node24</title>
<g id="a_node24"><a xlink:href="structJAISoundParamsTransition_1_1TTransition.html" target="_top" xlink:title=" ">
<polygon fill="white" stroke="#666666" points="136,-501.5 0,-501.5 0,-471.5 136,-471.5 136,-501.5"/>
<text text-anchor="start" x="8" y="-489.5" font-family="Helvetica,sans-Serif" font-size="10.00">JAISoundParamsTransition</text>
<text text-anchor="middle" x="68" y="-478.5" font-family="Helvetica,sans-Serif" font-size="10.00">::TTransition</text>
</a>
</g>
</g>
<!-- Node24&#45;&gt;Node23 -->
<g id="edge29" class="edge">
<title>Node24&#45;&gt;Node23</title>
<path fill="none" stroke="#9a32cd" stroke-dasharray="5,2" d="M88.77,-462.63C133.75,-408.31 242.21,-277.34 272.83,-240.37"/>
<polygon fill="#9a32cd" stroke="#9a32cd" points="86.27,-460.15 82.59,-470.09 91.67,-464.62 86.27,-460.15"/>
<text text-anchor="middle" x="175" y="-428.5" font-family="Helvetica,sans-Serif" font-size="10.00"> mDolby</text>
<text text-anchor="middle" x="175" y="-417.5" font-family="Helvetica,sans-Serif" font-size="10.00">mFxMix</text>
<text text-anchor="middle" x="175" y="-406.5" font-family="Helvetica,sans-Serif" font-size="10.00">mPan</text>
<text text-anchor="middle" x="175" y="-395.5" font-family="Helvetica,sans-Serif" font-size="10.00">mPitch</text>
<text text-anchor="middle" x="175" y="-384.5" font-family="Helvetica,sans-Serif" font-size="10.00">mVolume</text>
</g>
<!-- Node30 -->
<g id="node30" class="node">
<title>Node30</title>
<g id="a_node30"><a xlink:href="classJAITempoMgr.html" target="_top" xlink:title=" ">
<polygon fill="white" stroke="#666666" points="446,-616 368,-616 368,-597 446,-597 446,-616"/>
<text text-anchor="middle" x="407" y="-604" font-family="Helvetica,sans-Serif" font-size="10.00">JAITempoMgr</text>
</a>
</g>
</g>
<!-- Node24&#45;&gt;Node30 -->
<g id="edge39" class="edge">
<title>Node24&#45;&gt;Node30</title>
<path fill="none" stroke="#9a32cd" stroke-dasharray="5,2" d="M93.23,-509.33C120.33,-533.35 166.68,-570.04 214,-587.5 264.75,-606.23 327.88,-608.89 367.57,-608.3"/>
<polygon fill="#9a32cd" stroke="#9a32cd" points="95.69,-506.83 85.92,-502.73 91,-512.03 95.69,-506.83"/>
<text text-anchor="middle" x="175" y="-582.5" font-family="Helvetica,sans-Serif" font-size="10.00"> field_0x4</text>
</g>
<!-- Node25 -->
<g id="node25" class="node">
<title>Node25</title>
<g id="a_node25"><a xlink:href="classJSUList.html" target="_top" xlink:title=" ">
<polygon fill="white" stroke="#666666" points="570.5,-96 474.5,-96 474.5,-77 570.5,-77 570.5,-96"/>
<text text-anchor="middle" x="522.5" y="-84" font-family="Helvetica,sans-Serif" font-size="10.00">JSUList&lt; JAISe &gt;</text>
</a>
</g>
</g>
<!-- Node25&#45;&gt;Node20 -->
<g id="edge30" class="edge">
<title>Node25&#45;&gt;Node20</title>
<path fill="none" stroke="#9a32cd" stroke-dasharray="5,2" d="M581.84,-99.05C609.04,-107.13 640.52,-119.9 664,-139.5 675.94,-149.46 669.8,-159.86 682,-169.5 686.63,-173.16 691.98,-176.12 697.53,-178.51"/>
<polygon fill="#9a32cd" stroke="#9a32cd" points="582.9,-95.71 572.33,-96.38 581.01,-102.45 582.9,-95.71"/>
<text text-anchor="middle" x="631.5" y="-142.5" font-family="Helvetica,sans-Serif" font-size="10.00"> mSeList</text>
</g>
<!-- Node26 -->
<g id="node26" class="node">
<title>Node26</title>
<g id="a_node26"><a xlink:href="structJSUPtrList.html" target="_top" xlink:title=" ">
<polygon fill="white" stroke="#666666" points="314.5,-64 249.5,-64 249.5,-45 314.5,-45 314.5,-64"/>
<text text-anchor="middle" x="282" y="-52" font-family="Helvetica,sans-Serif" font-size="10.00">JSUPtrList</text>
</a>
</g>
</g>
<!-- Node26&#45;&gt;Node25 -->
<g id="edge31" class="edge">
<title>Node26&#45;&gt;Node25</title>
<path fill="none" stroke="#63b8ff" d="M326.14,-62.67C339.53,-65.05 354.35,-67.54 368,-69.5 403.43,-74.58 443.65,-78.99 474.03,-82.04"/>
<polygon fill="#63b8ff" stroke="#63b8ff" points="326.76,-59.22 316.3,-60.88 325.51,-66.11 326.76,-59.22"/>
</g>
<!-- Node27 -->
<g id="node27" class="node">
<title>Node27</title>
<g id="a_node27"><a xlink:href="structJSUPtrLink.html" target="_top" xlink:title=" ">
<polygon fill="white" stroke="#666666" points="556.5,-19 488.5,-19 488.5,0 556.5,0 556.5,-19"/>
<text text-anchor="middle" x="522.5" y="-7" font-family="Helvetica,sans-Serif" font-size="10.00">JSUPtrLink</text>
</a>
</g>
</g>
<!-- Node26&#45;&gt;Node27 -->
<g id="edge33" class="edge">
<title>Node26&#45;&gt;Node27</title>
<path fill="none" stroke="#9a32cd" stroke-dasharray="5,2" d="M325.91,-50.62C358.97,-47.17 405.7,-41.3 446,-32.5 461.66,-29.08 478.78,-23.98 492.75,-19.45"/>
<polygon fill="#9a32cd" stroke="#9a32cd" points="325.92,-47.1 316.32,-51.59 326.62,-54.07 325.92,-47.1"/>
<text text-anchor="middle" x="407" y="-48.5" font-family="Helvetica,sans-Serif" font-size="10.00"> mList</text>
</g>
<!-- Node27&#45;&gt;Node26 -->
<g id="edge32" class="edge">
<title>Node27&#45;&gt;Node26</title>
<path fill="none" stroke="#9a32cd" stroke-dasharray="5,2" d="M476.7,-4.34C445.72,-2.08 403.79,-1.66 368,-10.5 341.06,-17.15 313.1,-33.85 296.91,-44.66"/>
<polygon fill="#9a32cd" stroke="#9a32cd" points="476.24,-7.81 486.5,-5.15 476.82,-0.84 476.24,-7.81"/>
<text text-anchor="middle" x="407" y="-24.5" font-family="Helvetica,sans-Serif" font-size="10.00"> mHead</text>
<text text-anchor="middle" x="407" y="-13.5" font-family="Helvetica,sans-Serif" font-size="10.00">mTail</text>
</g>
<!-- Node27&#45;&gt;Node27 -->
<g id="edge34" class="edge">
<title>Node27&#45;&gt;Node27</title>
<path fill="none" stroke="#9a32cd" stroke-dasharray="5,2" d="M503.15,-30.43C505.57,-34.29 512.02,-37 522.5,-37 541.66,-37 547.35,-27.94 539.56,-19.37"/>
<polygon fill="#9a32cd" stroke="#9a32cd" points="506.54,-31.35 505.13,-20.85 499.68,-29.94 506.54,-31.35"/>
<text text-anchor="middle" x="522.5" y="-51" font-family="Helvetica,sans-Serif" font-size="10.00"> mNext</text>
<text text-anchor="middle" x="522.5" y="-40" font-family="Helvetica,sans-Serif" font-size="10.00">mPrev</text>
</g>
<!-- Node28 -->
<g id="node28" class="node">
<title>Node28</title>
<g id="a_node28"><a xlink:href="structJAISoundStrategyMgr.html" target="_top" xlink:title=" ">
<polygon fill="white" stroke="#666666" points="1028,-394.5 916,-394.5 916,-364.5 1028,-364.5 1028,-394.5"/>
<text text-anchor="start" x="924" y="-382.5" font-family="Helvetica,sans-Serif" font-size="10.00">JAISoundStrategyMgr</text>
<text text-anchor="middle" x="972" y="-371.5" font-family="Helvetica,sans-Serif" font-size="10.00">&lt; JAISe &gt;</text>
</a>
</g>
</g>
<!-- Node28&#45;&gt;Node1 -->
<g id="edge36" class="edge">
<title>Node28&#45;&gt;Node1</title>
<path fill="none" stroke="#9a32cd" stroke-dasharray="5,2" d="M1039.22,-389.36C1069.7,-395.17 1105.92,-403.91 1137,-416.5 1158.26,-425.11 1180.48,-439.75 1194.16,-449.53"/>
<polygon fill="#9a32cd" stroke="#9a32cd" points="1040.23,-385.98 1029.76,-387.62 1038.96,-392.87 1040.23,-385.98"/>
<text text-anchor="middle" x="1091.5" y="-419.5" font-family="Helvetica,sans-Serif" font-size="10.00"> mSoundStrategyMgr</text>
</g>
<!-- Node29 -->
<g id="node29" class="node">
<title>Node29</title>
<g id="a_node29"><a xlink:href="structJAISoundStrategyMgr____unknown.html" target="_top" xlink:title=" ">
<polygon fill="white" stroke="#666666" points="1028,-664.5 916,-664.5 916,-634.5 1028,-634.5 1028,-664.5"/>
<text text-anchor="start" x="924" y="-652.5" font-family="Helvetica,sans-Serif" font-size="10.00">JAISoundStrategyMgr</text>
<text text-anchor="middle" x="972" y="-641.5" font-family="Helvetica,sans-Serif" font-size="10.00">__unknown&lt; JAISe &gt;</text>
</a>
</g>
</g>
<!-- Node29&#45;&gt;Node1 -->
<g id="edge37" class="edge">
<title>Node29&#45;&gt;Node1</title>
<path fill="none" stroke="#9a32cd" stroke-dasharray="5,2" d="M1039.7,-651.8C1072.07,-649.65 1109.76,-641.93 1137,-620.5 1187.36,-580.88 1202.54,-497.92 1206.37,-469.39"/>
<polygon fill="#9a32cd" stroke="#9a32cd" points="1039.82,-648.29 1030,-652.27 1040.16,-655.28 1039.82,-648.29"/>
<text text-anchor="middle" x="1091.5" y="-653.5" font-family="Helvetica,sans-Serif" font-size="10.00"> field_0x278</text>
</g>
<!-- Node30&#45;&gt;Node1 -->
<g id="edge38" class="edge">
<title>Node30&#45;&gt;Node1</title>
<path fill="none" stroke="#9a32cd" stroke-dasharray="5,2" d="M457.7,-606.5C502.79,-606.5 571.1,-606.5 630.5,-606.5 630.5,-606.5 630.5,-606.5 973,-606.5 1048.35,-606.5 1075.49,-607.02 1137,-563.5 1172.26,-538.55 1195.15,-489.98 1203.71,-469.25"/>
<polygon fill="#9a32cd" stroke="#9a32cd" points="457.7,-603 447.7,-606.5 457.7,-610 457.7,-603"/>
<text text-anchor="middle" x="743" y="-609.5" font-family="Helvetica,sans-Serif" font-size="10.00"> mTempoMgr</text>
</g>
</g>
</svg>
        <g id="navigator" transform="translate(0 0)" fill="#404254">
                <rect fill="#f2f5e9" fill-opacity="0.5" stroke="#606060" stroke-width=".5" x="0" y="0" width="60" height="60"/>
                <use id="zoomplus" xlink:href="#zoomPlus" x="17" y="9" onmousedown="handleZoom(evt,'in')"/>
                <use id="zoomminus" xlink:href="#zoomMin" x="42" y="9" onmousedown="handleZoom(evt,'out')"/>
                <use id="reset" xlink:href="#resetDef" x="30" y="36" onmousedown="handleReset()"/>
                <g id="arrowUp" xlink:href="#dirArrow" transform="translate(30 24)" onmousedown="handlePan(0,-1)">
                  <use xlink:href="#rim" fill="#404040">
                        <set attributeName="fill" to="#808080" begin="arrowUp.mouseover" end="arrowUp.mouseout"/>
                  </use>
                  <path fill="none" stroke="white" stroke-width="1.5" d="M0,-3.0v7 M-2.5,-0.5L0,-3.0L2.5,-0.5"/>
                </g>
                <g id="arrowRight" xlink:href="#dirArrow" transform="rotate(90) translate(36 -43)" onmousedown="handlePan(1,0)">
                  <use xlink:href="#rim" fill="#404040">
                        <set attributeName="fill" to="#808080" begin="arrowRight.mouseover" end="arrowRight.mouseout"/>
                  </use>
                  <path fill="none" stroke="white" stroke-width="1.5" d="M0,-3.0v7 M-2.5,-0.5L0,-3.0L2.5,-0.5"/>
                </g>
                <g id="arrowDown" xlink:href="#dirArrow" transform="rotate(180) translate(-30 -48)" onmousedown="handlePan(0,1)">
                  <use xlink:href="#rim" fill="#404040">
                        <set attributeName="fill" to="#808080" begin="arrowDown.mouseover" end="arrowDown.mouseout"/>
                  </use>
                  <path fill="none" stroke="white" stroke-width="1.5" d="M0,-3.0v7 M-2.5,-0.5L0,-3.0L2.5,-0.5"/>
                </g>
                <g id="arrowLeft" xlink:href="#dirArrow" transform="rotate(270) translate(-36 17)" onmousedown="handlePan(-1,0)">
                  <use xlink:href="#rim" fill="#404040">
                        <set attributeName="fill" to="#808080" begin="arrowLeft.mouseover" end="arrowLeft.mouseout"/>
                  </use>
                  <path fill="none" stroke="white" stroke-width="1.5" d="M0,-3.0v7 M-2.5,-0.5L0,-3.0L2.5,-0.5"/>
                </g>
        </g>
        <svg viewBox="0 0 15 15" width="100%" height="30px" preserveAspectRatio="xMaxYMin meet">
         <g id="arrow_out" transform="scale(0.3 0.3)">
          <a xlink:href="classJAISe_1_1TInner__coll__graph_org.svg" target="_base">
           <rect id="button" ry="5" rx="5" y="6" x="6" height="38" width="38"
                fill="#f2f5e9" fill-opacity="0.5" stroke="#606060" stroke-width="1.0"/>
           <path id="arrow"
             d="M 11.500037,31.436501 C 11.940474,20.09759 22.043105,11.32322 32.158766,21.979434 L 37.068811,17.246167 C 37.068811,17.246167 37.088388,32 37.088388,32 L 22.160133,31.978069 C 22.160133,31.978069 26.997745,27.140456 26.997745,27.140456 C 18.528582,18.264221 13.291696,25.230495 11.500037,31.436501 z"
             style="fill:#404040;"/>
          </a>
         </g>
        </svg>
</svg>
