<?xml version="1.0" encoding="UTF-8" standalone="no"?>
<!DOCTYPE svg PUBLIC "-//W3C//DTD SVG 1.1//EN"
 "http://www.w3.org/Graphics/SVG/1.1/DTD/svg11.dtd">
<!-- Generated by graphviz version 7.0.5 (20221223.1930)
 -->
<!-- Title: include/d/bg/d_bg_s_gnd_chk.h Pages: 1 -->
<svg width="2420pt" height="445pt"
 viewBox="0.00 0.00 2420.00 445.00" xmlns="http://www.w3.org/2000/svg" xmlns:xlink="http://www.w3.org/1999/xlink">
<g id="graph0" class="graph" transform="scale(1 1) rotate(0) translate(4 441)">
<title>include/d/bg/d_bg_s_gnd_chk.h</title>
<!-- Node1 -->
<g id="node1" class="node">
<title>Node1</title>
<g id="a_node1"><a xlink:title=" ">
<polygon fill="#999999" stroke="#666666" points="1750.5,-437 1646.5,-437 1646.5,-407 1750.5,-407 1750.5,-437"/>
<text text-anchor="start" x="1654.5" y="-425" font-family="Helvetica,sans-Serif" font-size="10.00">include/d/bg/d_bg_s</text>
<text text-anchor="middle" x="1698.5" y="-414" font-family="Helvetica,sans-Serif" font-size="10.00">_gnd_chk.h</text>
</a>
</g>
</g>
<!-- Node2 -->
<g id="node2" class="node">
<title>Node2</title>
<g id="a_node2"><a xlink:href="d__bg__s__acch_8h.html" target="_top" xlink:title=" ">
<polygon fill="white" stroke="#666666" points="1750.5,-371 1646.5,-371 1646.5,-341 1750.5,-341 1750.5,-371"/>
<text text-anchor="start" x="1654.5" y="-359" font-family="Helvetica,sans-Serif" font-size="10.00">include/d/bg/d_bg_s</text>
<text text-anchor="middle" x="1698.5" y="-348" font-family="Helvetica,sans-Serif" font-size="10.00">_acch.h</text>
</a>
</g>
</g>
<!-- Node1&#45;&gt;Node2 -->
<g id="edge1" class="edge">
<title>Node1&#45;&gt;Node2</title>
<path fill="none" stroke="#63b8ff" d="M1698.5,-395.39C1698.5,-387.13 1698.5,-378.28 1698.5,-371.16"/>
<polygon fill="#63b8ff" stroke="#63b8ff" points="1695,-395.28 1698.5,-405.28 1702,-395.28 1695,-395.28"/>
</g>
<!-- Node210 -->
<g id="node45" class="node">
<title>Node210</title>
<g id="a_node45"><a xlink:href="d__camera_8h.html" target="_top" xlink:title=" ">
<polygon fill="white" stroke="#666666" points="827,-294 718,-294 718,-275 827,-275 827,-294"/>
<text text-anchor="middle" x="772.5" y="-282" font-family="Helvetica,sans-Serif" font-size="10.00">include/d/d_camera.h</text>
</a>
</g>
</g>
<!-- Node1&#45;&gt;Node210 -->
<g id="edge58" class="edge">
<title>Node1&#45;&gt;Node210</title>
<path fill="none" stroke="#63b8ff" d="M1635.27,-415.52C1492.62,-402.48 1135.26,-366.07 841.5,-305 827.97,-302.19 813.2,-298.15 800.81,-294.47"/>
<polygon fill="#63b8ff" stroke="#63b8ff" points="1634.6,-418.97 1644.88,-416.39 1635.24,-412 1634.6,-418.97"/>
</g>
<!-- Node215 -->
<g id="node50" class="node">
<title>Node215</title>
<g id="a_node50"><a xlink:href="d__bg__s__gnd__chk_8cpp.html" target="_top" xlink:title=" ">
<polygon fill="white" stroke="#666666" points="1876,-371 1769,-371 1769,-341 1876,-341 1876,-371"/>
<text text-anchor="start" x="1777" y="-359" font-family="Helvetica,sans-Serif" font-size="10.00">src/d/bg/d_bg_s_gnd</text>
<text text-anchor="middle" x="1822.5" y="-348" font-family="Helvetica,sans-Serif" font-size="10.00">_chk.cpp</text>
</a>
</g>
</g>
<!-- Node1&#45;&gt;Node215 -->
<g id="edge65" class="edge">
<title>Node1&#45;&gt;Node215</title>
<path fill="none" stroke="#63b8ff" d="M1736.37,-401.45C1755.2,-391.73 1777.55,-380.2 1794.76,-371.31"/>
<polygon fill="#63b8ff" stroke="#63b8ff" points="1734.95,-398.25 1727.67,-405.94 1738.16,-404.47 1734.95,-398.25"/>
</g>
<!-- Node3 -->
<g id="node3" class="node">
<title>Node3</title>
<g id="a_node3"><a xlink:href="d__a__alink_8h.html" target="_top" xlink:title=" ">
<polygon fill="white" stroke="#666666" points="2099.5,-156.5 1983.5,-156.5 1983.5,-137.5 2099.5,-137.5 2099.5,-156.5"/>
<text text-anchor="middle" x="2041.5" y="-144.5" font-family="Helvetica,sans-Serif" font-size="10.00">include/d/a/d_a_alink.h</text>
</a>
</g>
</g>
<!-- Node2&#45;&gt;Node3 -->
<g id="edge2" class="edge">
<title>Node2&#45;&gt;Node3</title>
<path fill="none" stroke="#63b8ff" d="M1696.92,-329.28C1697.13,-308.94 1700.88,-281.18 1717.5,-264 1764.58,-215.35 1801.51,-250.1 1865.5,-228 1926.09,-207.07 1994.24,-172.84 2024.94,-156.8"/>
<polygon fill="#63b8ff" stroke="#63b8ff" points="1693.42,-329.11 1697.12,-339.04 1700.42,-328.97 1693.42,-329.11"/>
</g>
<!-- Node12 -->
<g id="node12" class="node">
<title>Node12</title>
<g id="a_node12"><a xlink:href="d__a__itembase_8h.html" target="_top" xlink:title=" ">
<polygon fill="white" stroke="#666666" points="1643,-294 1508,-294 1508,-275 1643,-275 1643,-294"/>
<text text-anchor="middle" x="1575.5" y="-282" font-family="Helvetica,sans-Serif" font-size="10.00">include/d/a/d_a_itembase.h</text>
</a>
</g>
</g>
<!-- Node2&#45;&gt;Node12 -->
<g id="edge11" class="edge">
<title>Node2&#45;&gt;Node12</title>
<path fill="none" stroke="#63b8ff" d="M1663.28,-335.1C1639.5,-321.66 1609.28,-304.59 1591.21,-294.38"/>
<polygon fill="#63b8ff" stroke="#63b8ff" points="1661.27,-337.98 1671.7,-339.85 1664.71,-331.89 1661.27,-337.98"/>
</g>
<!-- Node89 -->
<g id="node27" class="node">
<title>Node89</title>
<g id="a_node27"><a xlink:href="d__a__obj__carry_8h.html" target="_top" xlink:title=" ">
<polygon fill="white" stroke="#666666" points="1282.5,-96 1166.5,-96 1166.5,-55 1282.5,-55 1282.5,-96"/>
<text text-anchor="start" x="1174.5" y="-84" font-family="Helvetica,sans-Serif" font-size="10.00">include/rel/d/a/obj</text>
<text text-anchor="start" x="1174.5" y="-73" font-family="Helvetica,sans-Serif" font-size="10.00">/d_a_obj_carry/d_a_obj</text>
<text text-anchor="middle" x="1224.5" y="-62" font-family="Helvetica,sans-Serif" font-size="10.00">_carry.h</text>
</a>
</g>
</g>
<!-- Node2&#45;&gt;Node89 -->
<g id="edge55" class="edge">
<title>Node2&#45;&gt;Node89</title>
<path fill="none" stroke="#63b8ff" d="M1634.9,-352.11C1488.81,-344.01 1136.29,-315.6 1064.5,-228 1043.01,-201.78 1083.68,-140.79 1092.5,-132 1112.57,-111.99 1140.94,-98.8 1166.24,-90.32"/>
<polygon fill="#63b8ff" stroke="#63b8ff" points="1634.62,-355.6 1644.79,-352.64 1635,-348.61 1634.62,-355.6"/>
</g>
<!-- Node202 -->
<g id="node34" class="node">
<title>Node202</title>
<g id="a_node34"><a xlink:href="d__bomb_8h.html" target="_top" xlink:title=" ">
<polygon fill="white" stroke="#666666" points="1017,-294 916,-294 916,-275 1017,-275 1017,-294"/>
<text text-anchor="middle" x="966.5" y="-282" font-family="Helvetica,sans-Serif" font-size="10.00">include/d/d_bomb.h</text>
</a>
</g>
</g>
<!-- Node2&#45;&gt;Node202 -->
<g id="edge40" class="edge">
<title>Node2&#45;&gt;Node202</title>
<path fill="none" stroke="#63b8ff" d="M1634.68,-354.79C1515.25,-353.4 1250.29,-345.52 1031.5,-305 1018.18,-302.53 1003.71,-298.35 991.81,-294.48"/>
<polygon fill="#63b8ff" stroke="#63b8ff" points="1634.57,-358.29 1644.6,-354.9 1634.64,-351.29 1634.57,-358.29"/>
</g>
<!-- Node204 -->
<g id="node36" class="node">
<title>Node204</title>
<g id="a_node36"><a xlink:href="d__a__boomerang_8h.html" target="_top" xlink:title=" ">
<polygon fill="white" stroke="#666666" points="2412,-228 2263,-228 2263,-198 2412,-198 2412,-228"/>
<text text-anchor="start" x="2271" y="-216" font-family="Helvetica,sans-Serif" font-size="10.00">include/rel/d/a/d_a</text>
<text text-anchor="middle" x="2337.5" y="-205" font-family="Helvetica,sans-Serif" font-size="10.00">_boomerang/d_a_boomerang.h</text>
</a>
</g>
</g>
<!-- Node2&#45;&gt;Node204 -->
<g id="edge43" class="edge">
<title>Node2&#45;&gt;Node204</title>
<path fill="none" stroke="#63b8ff" d="M1762.37,-340.89C1884.98,-326.33 2153.7,-349.84 2249.5,-305 2285.73,-288.04 2314.92,-249.2 2328.77,-228.16"/>
<polygon fill="#63b8ff" stroke="#63b8ff" points="1761.92,-337.42 1752.48,-342.22 1762.85,-344.36 1761.92,-337.42"/>
</g>
<!-- Node205 -->
<g id="node37" class="node">
<title>Node205</title>
<g id="a_node37"><a xlink:href="d__a__canoe_8h.html" target="_top" xlink:title=" ">
<polygon fill="white" stroke="#666666" points="1832.5,-299.5 1726.5,-299.5 1726.5,-269.5 1832.5,-269.5 1832.5,-299.5"/>
<text text-anchor="start" x="1734.5" y="-287.5" font-family="Helvetica,sans-Serif" font-size="10.00">include/rel/d/a/d_a</text>
<text text-anchor="middle" x="1779.5" y="-276.5" font-family="Helvetica,sans-Serif" font-size="10.00">_canoe/d_a_canoe.h</text>
</a>
</g>
</g>
<!-- Node2&#45;&gt;Node205 -->
<g id="edge45" class="edge">
<title>Node2&#45;&gt;Node205</title>
<path fill="none" stroke="#63b8ff" d="M1724,-333.12C1736.64,-322.27 1751.56,-309.48 1762.74,-299.88"/>
<polygon fill="#63b8ff" stroke="#63b8ff" points="1721.74,-330.45 1716.43,-339.61 1726.3,-335.76 1721.74,-330.45"/>
</g>
<!-- Node206 -->
<g id="node38" class="node">
<title>Node206</title>
<g id="a_node38"><a xlink:href="d__a__cstatue_8h.html" target="_top" xlink:title=" ">
<polygon fill="white" stroke="#666666" points="1968.5,-299.5 1850.5,-299.5 1850.5,-269.5 1968.5,-269.5 1968.5,-299.5"/>
<text text-anchor="start" x="1858.5" y="-287.5" font-family="Helvetica,sans-Serif" font-size="10.00">include/rel/d/a/d_a</text>
<text text-anchor="middle" x="1909.5" y="-276.5" font-family="Helvetica,sans-Serif" font-size="10.00">_cstatue/d_a_cstatue.h</text>
</a>
</g>
</g>
<!-- Node2&#45;&gt;Node206 -->
<g id="edge46" class="edge">
<title>Node2&#45;&gt;Node206</title>
<path fill="none" stroke="#63b8ff" d="M1753,-337.05C1788,-325.52 1832.87,-310.74 1865.58,-299.97"/>
<polygon fill="#63b8ff" stroke="#63b8ff" points="1752.32,-333.59 1743.91,-340.04 1754.51,-340.24 1752.32,-333.59"/>
</g>
<!-- Node207 -->
<g id="node39" class="node">
<title>Node207</title>
<g id="a_node39"><a xlink:href="d__a__horse_8h.html" target="_top" xlink:title=" ">
<polygon fill="white" stroke="#666666" points="506,-162 405,-162 405,-132 506,-132 506,-162"/>
<text text-anchor="start" x="413" y="-150" font-family="Helvetica,sans-Serif" font-size="10.00">include/rel/d/a/d_a</text>
<text text-anchor="middle" x="455.5" y="-139" font-family="Helvetica,sans-Serif" font-size="10.00">_horse/d_a_horse.h</text>
</a>
</g>
</g>
<!-- Node2&#45;&gt;Node207 -->
<g id="edge47" class="edge">
<title>Node2&#45;&gt;Node207</title>
<path fill="none" stroke="#63b8ff" d="M1634.76,-354.72C1471.61,-353.39 1042.22,-346 906.5,-305 871.62,-294.46 868.92,-278.52 835.5,-264 721.79,-214.58 580.42,-177.37 506.29,-159.59"/>
<polygon fill="#63b8ff" stroke="#63b8ff" points="1634.5,-358.21 1644.53,-354.79 1634.55,-351.21 1634.5,-358.21"/>
</g>
<!-- Node208 -->
<g id="node43" class="node">
<title>Node208</title>
<g id="a_node43"><a xlink:href="d__a__obj__suisya_8h.html" target="_top" xlink:title=" ">
<polygon fill="white" stroke="#666666" points="2092,-305 1987,-305 1987,-264 2092,-264 2092,-305"/>
<text text-anchor="start" x="1995" y="-293" font-family="Helvetica,sans-Serif" font-size="10.00">include/rel/d/a/obj</text>
<text text-anchor="start" x="1995" y="-282" font-family="Helvetica,sans-Serif" font-size="10.00">/d_a_obj_suisya/d_a</text>
<text text-anchor="middle" x="2039.5" y="-271" font-family="Helvetica,sans-Serif" font-size="10.00">_obj_suisya.h</text>
</a>
</g>
</g>
<!-- Node2&#45;&gt;Node208 -->
<g id="edge56" class="edge">
<title>Node2&#45;&gt;Node208</title>
<path fill="none" stroke="#63b8ff" d="M1761.79,-340.64C1857.83,-322.39 1885.43,-326.96 1977.5,-305 1980.46,-304.29 1983.49,-303.52 1986.54,-302.7"/>
<polygon fill="#63b8ff" stroke="#63b8ff" points="1761.33,-337.17 1752.18,-342.51 1762.67,-344.04 1761.33,-337.17"/>
</g>
<!-- Node209 -->
<g id="node44" class="node">
<title>Node209</title>
<g id="a_node44"><a xlink:href="d__bg__s__acch_8cpp.html" target="_top" xlink:title=" ">
<polygon fill="white" stroke="#666666" points="2241,-294 2110,-294 2110,-275 2241,-275 2241,-294"/>
<text text-anchor="middle" x="2175.5" y="-282" font-family="Helvetica,sans-Serif" font-size="10.00">src/d/bg/d_bg_s_acch.cpp</text>
</a>
</g>
</g>
<!-- Node2&#45;&gt;Node209 -->
<g id="edge57" class="edge">
<title>Node2&#45;&gt;Node209</title>
<path fill="none" stroke="#63b8ff" d="M1761.97,-340.73C1911.79,-316.65 1954.07,-331.61 2100.5,-305 2115.46,-302.28 2131.82,-298.16 2145.44,-294.41"/>
<polygon fill="#63b8ff" stroke="#63b8ff" points="1761.79,-337.21 1752.49,-342.28 1762.92,-344.12 1761.79,-337.21"/>
</g>
<!-- Node4 -->
<g id="node4" class="node">
<title>Node4</title>
<g id="a_node4"><a xlink:href="d__a__alink_8cpp.html" target="_top" xlink:title=" ">
<polygon fill="white" stroke="#666666" points="742,-19 633,-19 633,0 742,0 742,-19"/>
<text text-anchor="middle" x="687.5" y="-7" font-family="Helvetica,sans-Serif" font-size="10.00">src/d/a/d_a_alink.cpp</text>
</a>
</g>
</g>
<!-- Node3&#45;&gt;Node4 -->
<g id="edge3" class="edge">
<title>Node3&#45;&gt;Node4</title>
<path fill="none" stroke="#63b8ff" d="M2026.55,-128.72C2004.12,-102.91 1963.92,-57.06 1959.5,-55 1931.52,-41.96 982.86,-17.77 742.44,-11.84"/>
<polygon fill="#63b8ff" stroke="#63b8ff" points="2023.72,-130.8 2032.91,-136.06 2029.01,-126.22 2023.72,-130.8"/>
</g>
<!-- Node5 -->
<g id="node5" class="node">
<title>Node5</title>
<g id="a_node5"><a xlink:href="d__a__player_8cpp.html" target="_top" xlink:title=" ">
<polygon fill="white" stroke="#666666" points="2401.5,-85 2287.5,-85 2287.5,-66 2401.5,-66 2401.5,-85"/>
<text text-anchor="middle" x="2344.5" y="-73" font-family="Helvetica,sans-Serif" font-size="10.00">src/d/a/d_a_player.cpp</text>
</a>
</g>
</g>
<!-- Node3&#45;&gt;Node5 -->
<g id="edge4" class="edge">
<title>Node3&#45;&gt;Node5</title>
<path fill="none" stroke="#63b8ff" d="M2100.57,-134.89C2148.7,-125.52 2218.3,-111.22 2278.5,-96 2290.89,-92.87 2304.46,-88.95 2316.05,-85.44"/>
<polygon fill="#63b8ff" stroke="#63b8ff" points="2100.06,-131.42 2090.91,-136.76 2101.39,-138.3 2100.06,-131.42"/>
</g>
<!-- Node6 -->
<g id="node6" class="node">
<title>Node6</title>
<g id="a_node6"><a xlink:href="d__com__inf__game_8cpp.html" target="_top" xlink:title=" ">
<polygon fill="white" stroke="#666666" points="1674.5,-90.5 1566.5,-90.5 1566.5,-60.5 1674.5,-60.5 1674.5,-90.5"/>
<text text-anchor="start" x="1574.5" y="-78.5" font-family="Helvetica,sans-Serif" font-size="10.00">src/d/com/d_com_inf</text>
<text text-anchor="middle" x="1620.5" y="-67.5" font-family="Helvetica,sans-Serif" font-size="10.00">_game.cpp</text>
</a>
</g>
</g>
<!-- Node3&#45;&gt;Node6 -->
<g id="edge5" class="edge">
<title>Node3&#45;&gt;Node6</title>
<path fill="none" stroke="#63b8ff" d="M1986.72,-134.95C1980.92,-133.9 1975.09,-132.89 1969.5,-132 1842.99,-111.76 1808.73,-123.04 1683.5,-96 1677.01,-94.6 1670.23,-92.83 1663.61,-90.94"/>
<polygon fill="#63b8ff" stroke="#63b8ff" points="1985.84,-138.35 1996.31,-136.74 1987.12,-131.47 1985.84,-138.35"/>
</g>
<!-- Node7 -->
<g id="node7" class="node">
<title>Node7</title>
<g id="a_node7"><a xlink:href="d__camera_8cpp.html" target="_top" xlink:title=" ">
<polygon fill="white" stroke="#666666" points="1548.5,-85 1446.5,-85 1446.5,-66 1548.5,-66 1548.5,-85"/>
<text text-anchor="middle" x="1497.5" y="-73" font-family="Helvetica,sans-Serif" font-size="10.00">src/d/d_camera.cpp</text>
</a>
</g>
</g>
<!-- Node3&#45;&gt;Node7 -->
<g id="edge6" class="edge">
<title>Node3&#45;&gt;Node7</title>
<path fill="none" stroke="#63b8ff" d="M1988.18,-134.99C1981.9,-133.88 1975.57,-132.85 1969.5,-132 1787.48,-106.42 1737.62,-132.64 1557.5,-96 1545.16,-93.49 1531.8,-89.3 1520.82,-85.45"/>
<polygon fill="#63b8ff" stroke="#63b8ff" points="1987.41,-138.4 1997.88,-136.77 1988.67,-131.52 1987.41,-138.4"/>
</g>
<!-- Node8 -->
<g id="node8" class="node">
<title>Node8</title>
<g id="a_node8"><a xlink:href="d__event_8cpp.html" target="_top" xlink:title=" ">
<polygon fill="white" stroke="#666666" points="1951,-85 1830,-85 1830,-66 1951,-66 1951,-85"/>
<text text-anchor="middle" x="1890.5" y="-73" font-family="Helvetica,sans-Serif" font-size="10.00">src/d/event/d_event.cpp</text>
</a>
</g>
</g>
<!-- Node3&#45;&gt;Node8 -->
<g id="edge7" class="edge">
<title>Node3&#45;&gt;Node8</title>
<path fill="none" stroke="#63b8ff" d="M2011.71,-132.29C1981.51,-118.39 1935.64,-97.28 1909.86,-85.41"/>
<polygon fill="#63b8ff" stroke="#63b8ff" points="2010.15,-135.42 2020.69,-136.42 2013.07,-129.06 2010.15,-135.42"/>
</g>
<!-- Node9 -->
<g id="node9" class="node">
<title>Node9</title>
<g id="a_node9"><a xlink:href="d__meter2__draw_8cpp.html" target="_top" xlink:title=" ">
<polygon fill="white" stroke="#666666" points="2269.5,-90.5 2159.5,-90.5 2159.5,-60.5 2269.5,-60.5 2269.5,-90.5"/>
<text text-anchor="start" x="2167.5" y="-78.5" font-family="Helvetica,sans-Serif" font-size="10.00">src/d/meter/d_meter2</text>
<text text-anchor="middle" x="2214.5" y="-67.5" font-family="Helvetica,sans-Serif" font-size="10.00">_draw.cpp</text>
</a>
</g>
</g>
<!-- Node3&#45;&gt;Node9 -->
<g id="edge8" class="edge">
<title>Node3&#45;&gt;Node9</title>
<path fill="none" stroke="#63b8ff" d="M2074.42,-132.78C2104.15,-120.83 2147.82,-103.29 2178.48,-90.97"/>
<polygon fill="#63b8ff" stroke="#63b8ff" points="2073.14,-129.52 2065.17,-136.49 2075.75,-136.01 2073.14,-129.52"/>
</g>
<!-- Node10 -->
<g id="node10" class="node">
<title>Node10</title>
<g id="a_node10"><a xlink:href="d__msg__flow_8cpp.html" target="_top" xlink:title=" ">
<polygon fill="white" stroke="#666666" points="2141,-85 2008,-85 2008,-66 2141,-66 2141,-85"/>
<text text-anchor="middle" x="2074.5" y="-73" font-family="Helvetica,sans-Serif" font-size="10.00">src/d/msg/d_msg_flow.cpp</text>
</a>
</g>
</g>
<!-- Node3&#45;&gt;Node10 -->
<g id="edge9" class="edge">
<title>Node3&#45;&gt;Node10</title>
<path fill="none" stroke="#63b8ff" d="M2050.51,-127.03C2056.93,-113.49 2065.29,-95.91 2070.25,-85.45"/>
<polygon fill="#63b8ff" stroke="#63b8ff" points="2047.46,-125.3 2046.33,-135.83 2053.78,-128.3 2047.46,-125.3"/>
</g>
<!-- Node11 -->
<g id="node11" class="node">
<title>Node11</title>
<g id="a_node11"><a xlink:href="f__op__actor_8cpp.html" target="_top" xlink:title=" ">
<polygon fill="white" stroke="#666666" points="1812,-85 1693,-85 1693,-66 1812,-66 1812,-85"/>
<text text-anchor="middle" x="1752.5" y="-73" font-family="Helvetica,sans-Serif" font-size="10.00">src/f_op/f_op_actor.cpp</text>
</a>
</g>
</g>
<!-- Node3&#45;&gt;Node11 -->
<g id="edge10" class="edge">
<title>Node3&#45;&gt;Node11</title>
<path fill="none" stroke="#63b8ff" d="M1987.32,-134.64C1942.45,-125.02 1877.11,-110.51 1820.5,-96 1807.89,-92.77 1794.06,-88.87 1782.19,-85.41"/>
<polygon fill="#63b8ff" stroke="#63b8ff" points="1986.56,-138.06 1997.07,-136.72 1988.02,-131.21 1986.56,-138.06"/>
</g>
<!-- Node13 -->
<g id="node13" class="node">
<title>Node13</title>
<g id="a_node13"><a xlink:href="d__a__item__static_8h.html" target="_top" xlink:title=" ">
<polygon fill="white" stroke="#666666" points="1400,-228 1293,-228 1293,-198 1400,-198 1400,-228"/>
<text text-anchor="start" x="1301" y="-216" font-family="Helvetica,sans-Serif" font-size="10.00">include/d/a/d_a_item</text>
<text text-anchor="middle" x="1346.5" y="-205" font-family="Helvetica,sans-Serif" font-size="10.00">_static.h</text>
</a>
</g>
</g>
<!-- Node12&#45;&gt;Node13 -->
<g id="edge12" class="edge">
<title>Node12&#45;&gt;Node13</title>
<path fill="none" stroke="#63b8ff" d="M1535.26,-271.29C1495.89,-259.34 1435.93,-241.14 1394.19,-228.47"/>
<polygon fill="#63b8ff" stroke="#63b8ff" points="1534,-274.56 1544.58,-274.12 1536.03,-267.86 1534,-274.56"/>
</g>
<!-- Node18 -->
<g id="node17" class="node">
<title>Node18</title>
<g id="a_node17"><a xlink:href="d__a__shop__item__static_8h.html" target="_top" xlink:title=" ">
<polygon fill="white" stroke="#666666" points="1751,-228 1642,-228 1642,-198 1751,-198 1751,-228"/>
<text text-anchor="start" x="1650" y="-216" font-family="Helvetica,sans-Serif" font-size="10.00">include/d/a/d_a_shop</text>
<text text-anchor="middle" x="1696.5" y="-205" font-family="Helvetica,sans-Serif" font-size="10.00">_item_static.h</text>
</a>
</g>
</g>
<!-- Node12&#45;&gt;Node18 -->
<g id="edge16" class="edge">
<title>Node12&#45;&gt;Node18</title>
<path fill="none" stroke="#63b8ff" d="M1600.56,-269.11C1621.39,-257.14 1650.88,-240.21 1671.65,-228.27"/>
<polygon fill="#63b8ff" stroke="#63b8ff" points="1599.07,-265.93 1592.14,-273.94 1602.55,-272 1599.07,-265.93"/>
</g>
<!-- Node22 -->
<g id="node21" class="node">
<title>Node22</title>
<g id="a_node21"><a xlink:href="d__event_8h.html" target="_top" xlink:title=" ">
<polygon fill="white" stroke="#666666" points="1201.5,-222.5 1073.5,-222.5 1073.5,-203.5 1201.5,-203.5 1201.5,-222.5"/>
<text text-anchor="middle" x="1137.5" y="-210.5" font-family="Helvetica,sans-Serif" font-size="10.00">include/d/event/d_event.h</text>
</a>
</g>
</g>
<!-- Node12&#45;&gt;Node22 -->
<g id="edge20" class="edge">
<title>Node12&#45;&gt;Node22</title>
<path fill="none" stroke="#63b8ff" d="M1507.92,-272.78C1421.78,-259.11 1274.44,-235.73 1193.99,-222.96"/>
<polygon fill="#63b8ff" stroke="#63b8ff" points="1507.22,-276.21 1517.64,-274.32 1508.31,-269.3 1507.22,-276.21"/>
</g>
<!-- Node140 -->
<g id="node31" class="node">
<title>Node140</title>
<g id="a_node31"><a xlink:href="d__a__itembase_8cpp.html" target="_top" xlink:title=" ">
<polygon fill="white" stroke="#666666" points="1428.5,-85 1300.5,-85 1300.5,-66 1428.5,-66 1428.5,-85"/>
<text text-anchor="middle" x="1364.5" y="-73" font-family="Helvetica,sans-Serif" font-size="10.00">src/d/a/d_a_itembase.cpp</text>
</a>
</g>
</g>
<!-- Node12&#45;&gt;Node140 -->
<g id="edge38" class="edge">
<title>Node12&#45;&gt;Node140</title>
<path fill="none" stroke="#63b8ff" d="M1635.3,-272.25C1728.56,-253.34 1901.61,-212.25 1936.5,-162 1944.1,-151.05 1945.58,-141.76 1936.5,-132 1898.63,-91.3 1492.32,-105.21 1437.5,-96 1422.62,-93.5 1406.38,-89.31 1393,-85.45"/>
<polygon fill="#63b8ff" stroke="#63b8ff" points="1634.67,-268.81 1625.55,-274.2 1636.04,-275.67 1634.67,-268.81"/>
</g>
<!-- Node201 -->
<g id="node33" class="node">
<title>Node201</title>
<g id="a_node33"><a xlink:href="d__a__itembase__static_8cpp.html" target="_top" xlink:title=" ">
<polygon fill="white" stroke="#666666" points="1623.5,-228 1513.5,-228 1513.5,-198 1623.5,-198 1623.5,-228"/>
<text text-anchor="start" x="1521.5" y="-216" font-family="Helvetica,sans-Serif" font-size="10.00">src/d/a/d_a_itembase</text>
<text text-anchor="middle" x="1568.5" y="-205" font-family="Helvetica,sans-Serif" font-size="10.00">_static.cpp</text>
</a>
</g>
</g>
<!-- Node12&#45;&gt;Node201 -->
<g id="edge39" class="edge">
<title>Node12&#45;&gt;Node201</title>
<path fill="none" stroke="#63b8ff" d="M1573.47,-263.39C1572.34,-252.15 1570.96,-238.41 1569.94,-228.27"/>
<polygon fill="#63b8ff" stroke="#63b8ff" points="1569.98,-263.59 1574.46,-273.19 1576.94,-262.89 1569.98,-263.59"/>
</g>
<!-- Node14 -->
<g id="node14" class="node">
<title>Node14</title>
<g id="a_node14"><a xlink:href="d__a__obj__item_8h.html" target="_top" xlink:title=" ">
<polygon fill="#fff0f0" stroke="red" points="1213,-162 1112,-162 1112,-132 1213,-132 1213,-162"/>
<text text-anchor="start" x="1120" y="-150" font-family="Helvetica,sans-Serif" font-size="10.00">include/d/a/d_a_obj</text>
<text text-anchor="middle" x="1162.5" y="-139" font-family="Helvetica,sans-Serif" font-size="10.00">_item.h</text>
</a>
</g>
</g>
<!-- Node13&#45;&gt;Node14 -->
<g id="edge13" class="edge">
<title>Node13&#45;&gt;Node14</title>
<path fill="none" stroke="#63b8ff" d="M1294.57,-193.94C1265.9,-183.97 1230.79,-171.75 1203.97,-162.43"/>
<polygon fill="#63b8ff" stroke="#63b8ff" points="1293.18,-197.16 1303.78,-197.14 1295.48,-190.55 1293.18,-197.16"/>
</g>
<!-- Node16 -->
<g id="node15" class="node">
<title>Node16</title>
<g id="a_node15"><a xlink:href="d__a__do_8h.html" target="_top" xlink:title=" ">
<polygon fill="white" stroke="#666666" points="1327.5,-162 1231.5,-162 1231.5,-132 1327.5,-132 1327.5,-162"/>
<text text-anchor="start" x="1239.5" y="-150" font-family="Helvetica,sans-Serif" font-size="10.00">include/rel/d/a/d_a</text>
<text text-anchor="middle" x="1279.5" y="-139" font-family="Helvetica,sans-Serif" font-size="10.00">_do/d_a_do.h</text>
</a>
</g>
</g>
<!-- Node13&#45;&gt;Node16 -->
<g id="edge14" class="edge">
<title>Node13&#45;&gt;Node16</title>
<path fill="none" stroke="#63b8ff" d="M1323.56,-190.09C1313.89,-180.85 1302.91,-170.36 1294.33,-162.16"/>
<polygon fill="#63b8ff" stroke="#63b8ff" points="1320.89,-192.37 1330.54,-196.75 1325.72,-187.31 1320.89,-192.37"/>
</g>
<!-- Node17 -->
<g id="node16" class="node">
<title>Node17</title>
<g id="a_node16"><a xlink:href="d__a__item__static_8cpp.html" target="_top" xlink:title=" ">
<polygon fill="white" stroke="#666666" points="1483,-156.5 1346,-156.5 1346,-137.5 1483,-137.5 1483,-156.5"/>
<text text-anchor="middle" x="1414.5" y="-144.5" font-family="Helvetica,sans-Serif" font-size="10.00">src/d/a/d_a_item_static.cpp</text>
</a>
</g>
</g>
<!-- Node13&#45;&gt;Node17 -->
<g id="edge15" class="edge">
<title>Node13&#45;&gt;Node17</title>
<path fill="none" stroke="#63b8ff" d="M1369.93,-189.94C1382.01,-178.58 1396.06,-165.36 1405.1,-156.84"/>
<polygon fill="#63b8ff" stroke="#63b8ff" points="1367.58,-187.36 1362.69,-196.76 1372.37,-192.45 1367.58,-187.36"/>
</g>
<!-- Node19 -->
<g id="node18" class="node">
<title>Node19</title>
<g id="a_node18"><a xlink:href="d__a__shop__item__static_8cpp.html" target="_top" xlink:title=" ">
<polygon fill="white" stroke="#666666" points="1617.5,-162 1501.5,-162 1501.5,-132 1617.5,-132 1617.5,-162"/>
<text text-anchor="start" x="1509.5" y="-150" font-family="Helvetica,sans-Serif" font-size="10.00">src/d/a/d_a_shop_item</text>
<text text-anchor="middle" x="1559.5" y="-139" font-family="Helvetica,sans-Serif" font-size="10.00">_static.cpp</text>
</a>
</g>
</g>
<!-- Node18&#45;&gt;Node19 -->
<g id="edge17" class="edge">
<title>Node18&#45;&gt;Node19</title>
<path fill="none" stroke="#63b8ff" d="M1655.52,-192.86C1634.54,-183.05 1609.42,-171.32 1590.14,-162.31"/>
<polygon fill="#63b8ff" stroke="#63b8ff" points="1653.84,-195.94 1664.38,-197 1656.8,-189.59 1653.84,-195.94"/>
</g>
<!-- Node20 -->
<g id="node19" class="node">
<title>Node20</title>
<g id="a_node19"><a xlink:href="d__shop__item__ctrl_8cpp.html" target="_top" xlink:title=" ">
<polygon fill="white" stroke="#666666" points="1757,-162 1636,-162 1636,-132 1757,-132 1757,-162"/>
<text text-anchor="start" x="1644" y="-150" font-family="Helvetica,sans-Serif" font-size="10.00">src/d/shop/d_shop_item</text>
<text text-anchor="middle" x="1696.5" y="-139" font-family="Helvetica,sans-Serif" font-size="10.00">_ctrl.cpp</text>
</a>
</g>
</g>
<!-- Node18&#45;&gt;Node20 -->
<g id="edge18" class="edge">
<title>Node18&#45;&gt;Node20</title>
<path fill="none" stroke="#63b8ff" d="M1696.5,-186.39C1696.5,-178.13 1696.5,-169.28 1696.5,-162.16"/>
<polygon fill="#63b8ff" stroke="#63b8ff" points="1693,-186.28 1696.5,-196.28 1700,-186.28 1693,-186.28"/>
</g>
<!-- Node21 -->
<g id="node20" class="node">
<title>Node21</title>
<g id="a_node20"><a xlink:href="d__shop__system_8cpp.html" target="_top" xlink:title=" ">
<polygon fill="white" stroke="#666666" points="1927.5,-156.5 1775.5,-156.5 1775.5,-137.5 1927.5,-137.5 1927.5,-156.5"/>
<text text-anchor="middle" x="1851.5" y="-144.5" font-family="Helvetica,sans-Serif" font-size="10.00">src/d/shop/d_shop_system.cpp</text>
</a>
</g>
</g>
<!-- Node18&#45;&gt;Node21 -->
<g id="edge19" class="edge">
<title>Node18&#45;&gt;Node21</title>
<path fill="none" stroke="#63b8ff" d="M1741.6,-193.38C1770.59,-181.41 1806.98,-166.38 1829.74,-156.99"/>
<polygon fill="#63b8ff" stroke="#63b8ff" points="1740.59,-190.01 1732.68,-197.06 1743.26,-196.48 1740.59,-190.01"/>
</g>
<!-- Node22&#45;&gt;Node8 -->
<g id="edge37" class="edge">
<title>Node22&#45;&gt;Node8</title>
<path fill="none" stroke="#63b8ff" d="M1120.15,-194.97C1104.23,-177.32 1085.51,-149.87 1102.5,-132 1157.55,-74.12 1741.65,-108.8 1820.5,-96 1835.07,-93.64 1850.94,-89.36 1863.89,-85.41"/>
<polygon fill="#63b8ff" stroke="#63b8ff" points="1117.53,-197.3 1126.97,-202.11 1122.6,-192.46 1117.53,-197.3"/>
</g>
<!-- Node23 -->
<g id="node22" class="node">
<title>Node23</title>
<g id="a_node22"><a xlink:href="d__com__inf__game_8h.html" target="_top" xlink:title=" ">
<polygon fill="#fff0f0" stroke="red" points="979.5,-162 869.5,-162 869.5,-132 979.5,-132 979.5,-162"/>
<text text-anchor="start" x="877.5" y="-150" font-family="Helvetica,sans-Serif" font-size="10.00">include/d/com/d_com</text>
<text text-anchor="middle" x="924.5" y="-139" font-family="Helvetica,sans-Serif" font-size="10.00">_inf_game.h</text>
</a>
</g>
</g>
<!-- Node22&#45;&gt;Node23 -->
<g id="edge21" class="edge">
<title>Node22&#45;&gt;Node23</title>
<path fill="none" stroke="#63b8ff" d="M1097,-199.83C1061.61,-189.2 1010.18,-173.74 972.68,-162.48"/>
<polygon fill="#63b8ff" stroke="#63b8ff" points="1095.85,-203.14 1106.43,-202.67 1097.86,-196.44 1095.85,-203.14"/>
</g>
<!-- Node23&#45;&gt;Node6 -->
<g id="edge33" class="edge">
<title>Node23&#45;&gt;Node6</title>
<path fill="none" stroke="#63b8ff" d="M991.29,-139.23C1015.87,-136.83 1043.94,-134.18 1069.5,-132 1286.19,-113.55 1343.81,-136.41 1557.5,-96 1564.36,-94.7 1571.53,-92.92 1578.47,-90.95"/>
<polygon fill="#63b8ff" stroke="#63b8ff" points="991.02,-135.74 981.41,-140.21 991.7,-142.71 991.02,-135.74"/>
</g>
<!-- Node23&#45;&gt;Node7 -->
<g id="edge34" class="edge">
<title>Node23&#45;&gt;Node7</title>
<path fill="none" stroke="#63b8ff" d="M990.97,-132.37C991.82,-132.24 992.66,-132.12 993.5,-132 1189.53,-104.27 1243.37,-134.86 1437.5,-96 1449.85,-93.53 1463.21,-89.34 1474.19,-85.48"/>
<polygon fill="#63b8ff" stroke="#63b8ff" points="990.57,-128.89 981.26,-133.94 991.69,-135.8 990.57,-128.89"/>
</g>
<!-- Node23&#45;&gt;Node11 -->
<g id="edge36" class="edge">
<title>Node23&#45;&gt;Node11</title>
<path fill="none" stroke="#63b8ff" d="M991.27,-139.02C1015.85,-136.59 1043.92,-133.98 1069.5,-132 1342.04,-110.86 1413.95,-141.44 1683.5,-96 1697.74,-93.6 1713.24,-89.37 1725.94,-85.46"/>
<polygon fill="#63b8ff" stroke="#63b8ff" points="990.99,-135.53 981.39,-140.01 991.69,-142.5 990.99,-135.53"/>
</g>
<!-- Node24 -->
<g id="node23" class="node">
<title>Node24</title>
<g id="a_node23"><a xlink:href="d__a__npc_8h.html" target="_top" xlink:title=" ">
<polygon fill="#fff0f0" stroke="red" points="843,-85 732,-85 732,-66 843,-66 843,-85"/>
<text text-anchor="middle" x="787.5" y="-73" font-family="Helvetica,sans-Serif" font-size="10.00">include/d/a/d_a_npc.h</text>
</a>
</g>
</g>
<!-- Node23&#45;&gt;Node24 -->
<g id="edge22" class="edge">
<title>Node23&#45;&gt;Node24</title>
<path fill="none" stroke="#63b8ff" d="M885.97,-126.46C859.39,-112.97 825.3,-95.68 805,-85.38"/>
<polygon fill="#63b8ff" stroke="#63b8ff" points="884.26,-129.51 894.76,-130.91 887.43,-123.27 884.26,-129.51"/>
</g>
<!-- Node29 -->
<g id="node24" class="node">
<title>Node29</title>
<g id="a_node24"><a xlink:href="d__a__npc__cd_8h.html" target="_top" xlink:title=" ">
<polygon fill="#fff0f0" stroke="red" points="988,-85 861,-85 861,-66 988,-66 988,-85"/>
<text text-anchor="middle" x="924.5" y="-73" font-family="Helvetica,sans-Serif" font-size="10.00">include/d/a/d_a_npc_cd.h</text>
</a>
</g>
</g>
<!-- Node23&#45;&gt;Node29 -->
<g id="edge23" class="edge">
<title>Node23&#45;&gt;Node29</title>
<path fill="none" stroke="#63b8ff" d="M924.5,-120.46C924.5,-108.07 924.5,-93.99 924.5,-85.18"/>
<polygon fill="#63b8ff" stroke="#63b8ff" points="921,-120.09 924.5,-130.09 928,-120.09 921,-120.09"/>
</g>
<!-- Node31 -->
<g id="node25" class="node">
<title>Node31</title>
<g id="a_node25"><a xlink:href="d__a__npc__cd2_8h.html" target="_top" xlink:title=" ">
<polygon fill="#fff0f0" stroke="red" points="1110.5,-90.5 1006.5,-90.5 1006.5,-60.5 1110.5,-60.5 1110.5,-90.5"/>
<text text-anchor="start" x="1014.5" y="-78.5" font-family="Helvetica,sans-Serif" font-size="10.00">include/d/a/d_a_npc</text>
<text text-anchor="middle" x="1058.5" y="-67.5" font-family="Helvetica,sans-Serif" font-size="10.00">_cd2.h</text>
</a>
</g>
</g>
<!-- Node23&#45;&gt;Node31 -->
<g id="edge24" class="edge">
<title>Node23&#45;&gt;Node31</title>
<path fill="none" stroke="#63b8ff" d="M962.48,-126.3C984.22,-115.03 1011.02,-101.13 1030.77,-90.88"/>
<polygon fill="#63b8ff" stroke="#63b8ff" points="960.87,-123.19 953.61,-130.9 964.1,-129.41 960.87,-123.19"/>
</g>
<!-- Node88 -->
<g id="node26" class="node">
<title>Node88</title>
<g id="a_node26"><a xlink:href="d__a__obj__bombf_8h.html" target="_top" xlink:title=" ">
<polygon fill="white" stroke="#666666" points="713.5,-96 591.5,-96 591.5,-55 713.5,-55 713.5,-96"/>
<text text-anchor="start" x="599.5" y="-84" font-family="Helvetica,sans-Serif" font-size="10.00">include/rel/d/a/obj</text>
<text text-anchor="start" x="599.5" y="-73" font-family="Helvetica,sans-Serif" font-size="10.00">/d_a_obj_bombf/d_a_obj</text>
<text text-anchor="middle" x="652.5" y="-62" font-family="Helvetica,sans-Serif" font-size="10.00">_bombf.h</text>
</a>
</g>
</g>
<!-- Node23&#45;&gt;Node88 -->
<g id="edge25" class="edge">
<title>Node23&#45;&gt;Node88</title>
<path fill="none" stroke="#63b8ff" d="M858.02,-130.06C818.56,-120.47 767.59,-107.86 722.5,-96 719.69,-95.26 716.83,-94.5 713.93,-93.72"/>
<polygon fill="#63b8ff" stroke="#63b8ff" points="857.08,-133.43 867.62,-132.39 858.73,-126.63 857.08,-133.43"/>
</g>
<!-- Node23&#45;&gt;Node89 -->
<g id="edge26" class="edge">
<title>Node23&#45;&gt;Node89</title>
<path fill="none" stroke="#63b8ff" d="M991.18,-132.27C1036.75,-122.67 1098.43,-109.24 1152.5,-96 1156.9,-94.92 1161.45,-93.77 1166.01,-92.6"/>
<polygon fill="#63b8ff" stroke="#63b8ff" points="990.51,-128.83 981.44,-134.31 991.95,-135.68 990.51,-128.83"/>
</g>
<!-- Node90 -->
<g id="node29" class="node">
<title>Node90</title>
<g id="a_node29"><a xlink:href="d__save_8cpp.html" target="_top" xlink:title=" ">
<polygon fill="white" stroke="#666666" points="1196,-19 1081,-19 1081,0 1196,0 1196,-19"/>
<text text-anchor="middle" x="1138.5" y="-7" font-family="Helvetica,sans-Serif" font-size="10.00">src/d/save/d_save.cpp</text>
</a>
</g>
</g>
<!-- Node23&#45;&gt;Node90 -->
<g id="edge35" class="edge">
<title>Node23&#45;&gt;Node90</title>
<path fill="none" stroke="#63b8ff" d="M990.63,-132.61C1043.51,-121.32 1110.28,-105.52 1119.5,-96 1140.02,-74.81 1140.35,-36.63 1139.31,-19.39"/>
<polygon fill="#63b8ff" stroke="#63b8ff" points="990.12,-129.14 981.06,-134.63 991.57,-135.99 990.12,-129.14"/>
</g>
<!-- Node119 -->
<g id="node30" class="node">
<title>Node119</title>
<g id="a_node30"><a xlink:href="d__a__tag__hinit_8h.html" target="_top" xlink:title=" ">
<polygon fill="white" stroke="#666666" points="448,-96 333,-96 333,-55 448,-55 448,-96"/>
<text text-anchor="start" x="341" y="-84" font-family="Helvetica,sans-Serif" font-size="10.00">include/rel/d/a/tag</text>
<text text-anchor="start" x="341" y="-73" font-family="Helvetica,sans-Serif" font-size="10.00">/d_a_tag_hinit/d_a_tag</text>
<text text-anchor="middle" x="390.5" y="-62" font-family="Helvetica,sans-Serif" font-size="10.00">_hinit.h</text>
</a>
</g>
</g>
<!-- Node23&#45;&gt;Node119 -->
<g id="edge30" class="edge">
<title>Node23&#45;&gt;Node119</title>
<path fill="none" stroke="#63b8ff" d="M857.98,-142.69C766.72,-137.28 597.9,-124.2 456.5,-96 453.81,-95.46 451.06,-94.86 448.3,-94.22"/>
<polygon fill="#63b8ff" stroke="#63b8ff" points="857.56,-146.17 867.74,-143.25 857.96,-139.18 857.56,-146.17"/>
</g>
<!-- Node23&#45;&gt;Node140 -->
<g id="edge31" class="edge">
<title>Node23&#45;&gt;Node140</title>
<path fill="none" stroke="#63b8ff" d="M990.97,-132.41C991.82,-132.27 992.66,-132.14 993.5,-132 1125.2,-110.72 1160.51,-121.28 1291.5,-96 1305.93,-93.22 1321.7,-89.14 1334.89,-85.43"/>
<polygon fill="#63b8ff" stroke="#63b8ff" points="990.53,-128.94 981.28,-134.12 991.74,-135.83 990.53,-128.94"/>
</g>
<!-- Node144 -->
<g id="node32" class="node">
<title>Node144</title>
<g id="a_node32"><a xlink:href="d__bg__w_8cpp.html" target="_top" xlink:title=" ">
<polygon fill="white" stroke="#666666" points="573,-85 466,-85 466,-66 573,-66 573,-85"/>
<text text-anchor="middle" x="519.5" y="-73" font-family="Helvetica,sans-Serif" font-size="10.00">src/d/bg/d_bg_w.cpp</text>
</a>
</g>
</g>
<!-- Node23&#45;&gt;Node144 -->
<g id="edge32" class="edge">
<title>Node23&#45;&gt;Node144</title>
<path fill="none" stroke="#63b8ff" d="M858.05,-139.37C788.73,-131.74 677.16,-117.43 582.5,-96 570.1,-93.19 556.61,-89.15 545.31,-85.48"/>
<polygon fill="#63b8ff" stroke="#63b8ff" points="857.4,-142.82 867.72,-140.42 858.16,-135.86 857.4,-142.82"/>
</g>
<!-- Node89&#45;&gt;Node4 -->
<g id="edge27" class="edge">
<title>Node89&#45;&gt;Node4</title>
<path fill="none" stroke="#63b8ff" d="M1154.89,-60.75C1143.1,-58.66 1130.97,-56.65 1119.5,-55 984.43,-35.53 824.4,-21.35 742.23,-14.71"/>
<polygon fill="#63b8ff" stroke="#63b8ff" points="1154.09,-64.17 1164.56,-62.51 1155.34,-57.28 1154.09,-64.17"/>
</g>
<!-- Node76 -->
<g id="node28" class="node">
<title>Node76</title>
<g id="a_node28"><a xlink:href="d__com__static_8cpp.html" target="_top" xlink:title=" ">
<polygon fill="white" stroke="#666666" points="1354.5,-19 1214.5,-19 1214.5,0 1354.5,0 1354.5,-19"/>
<text text-anchor="middle" x="1284.5" y="-7" font-family="Helvetica,sans-Serif" font-size="10.00">src/d/com/d_com_static.cpp</text>
</a>
</g>
</g>
<!-- Node89&#45;&gt;Node76 -->
<g id="edge28" class="edge">
<title>Node89&#45;&gt;Node76</title>
<path fill="none" stroke="#63b8ff" d="M1251.02,-46.21C1260.2,-36.42 1269.82,-26.16 1276.38,-19.16"/>
<polygon fill="#63b8ff" stroke="#63b8ff" points="1248.48,-43.81 1244.19,-53.5 1253.58,-48.6 1248.48,-43.81"/>
</g>
<!-- Node89&#45;&gt;Node90 -->
<g id="edge29" class="edge">
<title>Node89&#45;&gt;Node90</title>
<path fill="none" stroke="#63b8ff" d="M1188.87,-47.99C1175.02,-37.68 1160.11,-26.58 1150.14,-19.16"/>
<polygon fill="#63b8ff" stroke="#63b8ff" points="1186.43,-50.53 1196.55,-53.7 1190.61,-44.92 1186.43,-50.53"/>
</g>
<!-- Node202&#45;&gt;Node88 -->
<g id="edge41" class="edge">
<title>Node202&#45;&gt;Node88</title>
<path fill="none" stroke="#63b8ff" d="M949.61,-266.6C930.95,-248.44 899.56,-219.3 869.5,-198 811.72,-157.06 738.92,-118.71 694.05,-96.44"/>
<polygon fill="#63b8ff" stroke="#63b8ff" points="947.02,-268.97 956.6,-273.49 951.94,-263.98 947.02,-268.97"/>
</g>
<!-- Node203 -->
<g id="node35" class="node">
<title>Node203</title>
<g id="a_node35"><a xlink:href="d__bomb_8cpp.html" target="_top" xlink:title=" ">
<polygon fill="white" stroke="#666666" points="1015.5,-222.5 921.5,-222.5 921.5,-203.5 1015.5,-203.5 1015.5,-222.5"/>
<text text-anchor="middle" x="968.5" y="-210.5" font-family="Helvetica,sans-Serif" font-size="10.00">src/d/d_bomb.cpp</text>
</a>
</g>
</g>
<!-- Node202&#45;&gt;Node203 -->
<g id="edge42" class="edge">
<title>Node202&#45;&gt;Node203</title>
<path fill="none" stroke="#63b8ff" d="M967.08,-263.3C967.47,-249.94 967.95,-233.09 968.24,-222.95"/>
<polygon fill="#63b8ff" stroke="#63b8ff" points="963.59,-263.09 966.8,-273.18 970.58,-263.29 963.59,-263.09"/>
</g>
<!-- Node204&#45;&gt;Node5 -->
<g id="edge44" class="edge">
<title>Node204&#45;&gt;Node5</title>
<path fill="none" stroke="#63b8ff" d="M2338.81,-186.65C2340.4,-155.89 2343,-105.62 2344.04,-85.37"/>
<polygon fill="#63b8ff" stroke="#63b8ff" points="2335.33,-186.08 2338.31,-196.24 2342.33,-186.44 2335.33,-186.08"/>
</g>
<!-- Node207&#45;&gt;Node4 -->
<g id="edge52" class="edge">
<title>Node207&#45;&gt;Node4</title>
<path fill="none" stroke="#63b8ff" d="M393.79,-129.95C363.72,-120.76 332.18,-108.57 323.5,-96 313.15,-81.01 311.42,-68.64 323.5,-55 343.62,-32.27 535.85,-18.71 632.53,-13.27"/>
<polygon fill="#63b8ff" stroke="#63b8ff" points="392.72,-133.29 403.31,-132.77 394.71,-126.58 392.72,-133.29"/>
</g>
<!-- Node207&#45;&gt;Node119 -->
<g id="edge51" class="edge">
<title>Node207&#45;&gt;Node119</title>
<path fill="none" stroke="#63b8ff" d="M434.35,-123.39C426.22,-114.69 417,-104.84 409.13,-96.42"/>
<polygon fill="#63b8ff" stroke="#63b8ff" points="431.61,-125.58 441,-130.49 436.72,-120.8 431.61,-125.58"/>
</g>
<!-- Node207&#45;&gt;Node144 -->
<g id="edge53" class="edge">
<title>Node207&#45;&gt;Node144</title>
<path fill="none" stroke="#63b8ff" d="M476.23,-123.49C488.26,-110.43 502.72,-94.72 511.51,-85.18"/>
<polygon fill="#63b8ff" stroke="#63b8ff" points="473.99,-120.76 469.79,-130.49 479.13,-125.5 473.99,-120.76"/>
</g>
<!-- Node37 -->
<g id="node40" class="node">
<title>Node37</title>
<g id="a_node40"><a xlink:href="d__a__e__wb_8h.html" target="_top" xlink:title=" ">
<polygon fill="white" stroke="#666666" points="276.5,-90.5 166.5,-90.5 166.5,-60.5 276.5,-60.5 276.5,-90.5"/>
<text text-anchor="start" x="174.5" y="-78.5" font-family="Helvetica,sans-Serif" font-size="10.00">include/rel/d/a/e/d</text>
<text text-anchor="middle" x="221.5" y="-67.5" font-family="Helvetica,sans-Serif" font-size="10.00">_a_e_wb/d_a_e_wb.h</text>
</a>
</g>
</g>
<!-- Node207&#45;&gt;Node37 -->
<g id="edge48" class="edge">
<title>Node207&#45;&gt;Node37</title>
<path fill="none" stroke="#63b8ff" d="M395.81,-128.27C356.89,-116.71 306.72,-101.81 270.21,-90.97"/>
<polygon fill="#63b8ff" stroke="#63b8ff" points="394.7,-131.59 405.28,-131.08 396.69,-124.88 394.7,-131.59"/>
</g>
<!-- Node55 -->
<g id="node42" class="node">
<title>Node55</title>
<g id="a_node42"><a xlink:href="d__meter2_8cpp.html" target="_top" xlink:title=" ">
<polygon fill="white" stroke="#666666" points="148.5,-85 20.5,-85 20.5,-66 148.5,-66 148.5,-85"/>
<text text-anchor="middle" x="84.5" y="-73" font-family="Helvetica,sans-Serif" font-size="10.00">src/d/meter/d_meter2.cpp</text>
</a>
</g>
</g>
<!-- Node207&#45;&gt;Node55 -->
<g id="edge54" class="edge">
<title>Node207&#45;&gt;Node55</title>
<path fill="none" stroke="#63b8ff" d="M393.71,-131.77C288.48,-112.2 258.75,-117.11 157.5,-96 143.37,-93.05 127.91,-89.04 114.86,-85.42"/>
<polygon fill="#63b8ff" stroke="#63b8ff" points="392.86,-135.17 403.33,-133.6 394.16,-128.3 392.86,-135.17"/>
</g>
<!-- Node37&#45;&gt;Node4 -->
<g id="edge49" class="edge">
<title>Node37&#45;&gt;Node4</title>
<path fill="none" stroke="#63b8ff" d="M279.69,-57.33C283.33,-56.48 286.96,-55.69 290.5,-55 411.48,-31.29 555.85,-19.05 632.81,-13.79"/>
<polygon fill="#63b8ff" stroke="#63b8ff" points="279.1,-53.87 270.23,-59.68 280.78,-60.67 279.1,-53.87"/>
</g>
<!-- Node38 -->
<g id="node41" class="node">
<title>Node38</title>
<g id="a_node41"><a xlink:href="d__a__horse__static_8cpp.html" target="_top" xlink:title=" ">
<polygon fill="white" stroke="#666666" points="292.5,-19 150.5,-19 150.5,0 292.5,0 292.5,-19"/>
<text text-anchor="middle" x="221.5" y="-7" font-family="Helvetica,sans-Serif" font-size="10.00">src/d/a/d_a_horse_static.cpp</text>
</a>
</g>
</g>
<!-- Node37&#45;&gt;Node38 -->
<g id="edge50" class="edge">
<title>Node37&#45;&gt;Node38</title>
<path fill="none" stroke="#63b8ff" d="M221.5,-49.09C221.5,-38.56 221.5,-27.03 221.5,-19.34"/>
<polygon fill="#63b8ff" stroke="#63b8ff" points="218,-48.78 221.5,-58.78 225,-48.78 218,-48.78"/>
</g>
<!-- Node210&#45;&gt;Node7 -->
<g id="edge64" class="edge">
<title>Node210&#45;&gt;Node7</title>
<path fill="none" stroke="#63b8ff" d="M794.4,-268.24C821.33,-249.94 868.84,-219.08 912.5,-198 989.23,-160.95 1009.49,-151.24 1092.5,-132 1242.69,-97.2 1286.69,-128 1437.5,-96 1449.71,-93.41 1462.95,-89.26 1473.87,-85.45"/>
<polygon fill="#63b8ff" stroke="#63b8ff" points="792.66,-265.2 786.39,-273.74 796.62,-270.97 792.66,-265.2"/>
</g>
<!-- Node211 -->
<g id="node46" class="node">
<title>Node211</title>
<g id="a_node46"><a xlink:href="f__op__camera__mng_8h.html" target="_top" xlink:title=" ">
<polygon fill="white" stroke="#666666" points="390.5,-228 262.5,-228 262.5,-198 390.5,-198 390.5,-228"/>
<text text-anchor="start" x="270.5" y="-216" font-family="Helvetica,sans-Serif" font-size="10.00">include/f_op/f_op_camera</text>
<text text-anchor="middle" x="326.5" y="-205" font-family="Helvetica,sans-Serif" font-size="10.00">_mng.h</text>
</a>
</g>
</g>
<!-- Node210&#45;&gt;Node211 -->
<g id="edge59" class="edge">
<title>Node210&#45;&gt;Node211</title>
<path fill="none" stroke="#63b8ff" d="M706.49,-273.21C621.5,-259.97 474.74,-237.1 390.65,-224"/>
<polygon fill="#63b8ff" stroke="#63b8ff" points="705.9,-276.66 716.32,-274.74 706.97,-269.75 705.9,-276.66"/>
</g>
<!-- Node211&#45;&gt;Node23 -->
<g id="edge60" class="edge">
<title>Node211&#45;&gt;Node23</title>
<path fill="none" stroke="#63b8ff" d="M401.86,-203.93C523.86,-190.88 761.79,-165.41 869.35,-153.9"/>
<polygon fill="#63b8ff" stroke="#63b8ff" points="401.86,-200.42 392.29,-204.96 402.6,-207.38 401.86,-200.42"/>
</g>
<!-- Node212 -->
<g id="node47" class="node">
<title>Node212</title>
<g id="a_node47"><a xlink:href="d__s__name_8h.html" target="_top" xlink:title=" ">
<polygon fill="#fff0f0" stroke="red" points="248,-156.5 129,-156.5 129,-137.5 248,-137.5 248,-156.5"/>
<text text-anchor="middle" x="188.5" y="-144.5" font-family="Helvetica,sans-Serif" font-size="10.00">include/d/s/d_s_name.h</text>
</a>
</g>
</g>
<!-- Node211&#45;&gt;Node212 -->
<g id="edge61" class="edge">
<title>Node211&#45;&gt;Node212</title>
<path fill="none" stroke="#63b8ff" d="M285.33,-192.91C259.68,-181.01 227.87,-166.26 207.88,-156.99"/>
<polygon fill="#63b8ff" stroke="#63b8ff" points="283.61,-195.97 294.16,-197 286.56,-189.62 283.61,-195.97"/>
</g>
<!-- Node213 -->
<g id="node48" class="node">
<title>Node213</title>
<g id="a_node48"><a xlink:href="f__ap__game_8cpp.html" target="_top" xlink:title=" ">
<polygon fill="white" stroke="#666666" points="387,-156.5 266,-156.5 266,-137.5 387,-137.5 387,-156.5"/>
<text text-anchor="middle" x="326.5" y="-144.5" font-family="Helvetica,sans-Serif" font-size="10.00">src/f_ap/f_ap_game.cpp</text>
</a>
</g>
</g>
<!-- Node211&#45;&gt;Node213 -->
<g id="edge62" class="edge">
<title>Node211&#45;&gt;Node213</title>
<path fill="none" stroke="#63b8ff" d="M326.5,-186.59C326.5,-176.06 326.5,-164.53 326.5,-156.84"/>
<polygon fill="#63b8ff" stroke="#63b8ff" points="323,-186.28 326.5,-196.28 330,-186.28 323,-186.28"/>
</g>
<!-- Node214 -->
<g id="node49" class="node">
<title>Node214</title>
<g id="a_node49"><a xlink:href="f__op__camera__mng_8cpp.html" target="_top" xlink:title=" ">
<polygon fill="white" stroke="#666666" points="111,-162 0,-162 0,-132 111,-132 111,-162"/>
<text text-anchor="start" x="8" y="-150" font-family="Helvetica,sans-Serif" font-size="10.00">src/f_op/f_op_camera</text>
<text text-anchor="middle" x="55.5" y="-139" font-family="Helvetica,sans-Serif" font-size="10.00">_mng.cpp</text>
</a>
</g>
</g>
<!-- Node211&#45;&gt;Node214 -->
<g id="edge63" class="edge">
<title>Node211&#45;&gt;Node214</title>
<path fill="none" stroke="#63b8ff" d="M254.22,-194.93C209.42,-184.35 152.72,-170.96 111.36,-161.19"/>
<polygon fill="#63b8ff" stroke="#63b8ff" points="253.33,-198.32 263.87,-197.21 254.94,-191.5 253.33,-198.32"/>
</g>
</g>
</svg>
