<?xml version="1.0" encoding="UTF-8" standalone="no"?>
<!DOCTYPE svg PUBLIC "-//W3C//DTD SVG 1.1//EN"
 "http://www.w3.org/Graphics/SVG/1.1/DTD/svg11.dtd">
<!-- Generated by graphviz version 7.0.5 (20221223.1930)
 -->
<!-- Title: include/d/d_cam_param.h Pages: 1 -->
<svg width="5664pt" height="357pt"
 viewBox="0.00 0.00 5663.50 357.00" xmlns="http://www.w3.org/2000/svg" xmlns:xlink="http://www.w3.org/1999/xlink">
<g id="graph0" class="graph" transform="scale(1 1) rotate(0) translate(4 353)">
<title>include/d/d_cam_param.h</title>
<!-- Node1 -->
<g id="node1" class="node">
<title>Node1</title>
<g id="a_node1"><a xlink:title=" ">
<polygon fill="#999999" stroke="#666666" points="2930,-349 2802,-349 2802,-330 2930,-330 2930,-349"/>
<text text-anchor="middle" x="2866" y="-337" font-family="Helvetica,sans-Serif" font-size="10.00">include/d/d_cam_param.h</text>
</a>
</g>
</g>
<!-- Node2 -->
<g id="node2" class="node">
<title>Node2</title>
<g id="a_node2"><a xlink:href="d__camera_8h.html" target="_top" xlink:title=" ">
<polygon fill="white" stroke="#666666" points="2745.5,-294 2636.5,-294 2636.5,-275 2745.5,-275 2745.5,-294"/>
<text text-anchor="middle" x="2691" y="-282" font-family="Helvetica,sans-Serif" font-size="10.00">include/d/d_camera.h</text>
</a>
</g>
</g>
<!-- Node1&#45;&gt;Node2 -->
<g id="edge1" class="edge">
<title>Node1&#45;&gt;Node2</title>
<path fill="none" stroke="#63b8ff" d="M2825.51,-326.24C2793.43,-316.52 2749.36,-303.18 2720.54,-294.45"/>
<polygon fill="#63b8ff" stroke="#63b8ff" points="2824.28,-329.52 2834.87,-329.07 2826.31,-322.82 2824.28,-329.52"/>
</g>
<!-- Node136 -->
<g id="node46" class="node">
<title>Node136</title>
<g id="a_node46"><a xlink:href="d__cam__param_8cpp.html" target="_top" xlink:title=" ">
<polygon fill="white" stroke="#666666" points="5655.5,-96 5534.5,-96 5534.5,-77 5655.5,-77 5655.5,-96"/>
<text text-anchor="middle" x="5595" y="-84" font-family="Helvetica,sans-Serif" font-size="10.00">src/d/d_cam_param.cpp</text>
</a>
</g>
</g>
<!-- Node1&#45;&gt;Node136 -->
<g id="edge52" class="edge">
<title>Node1&#45;&gt;Node136</title>
<path fill="none" stroke="#63b8ff" d="M2941.76,-337.12C3259.49,-330.25 4514.85,-292.17 5526,-107 5539.96,-104.44 5555.17,-100.3 5567.75,-96.48"/>
<polygon fill="#63b8ff" stroke="#63b8ff" points="2941.85,-333.62 2931.93,-337.33 2942,-340.62 2941.85,-333.62"/>
</g>
<!-- Node3 -->
<g id="node3" class="node">
<title>Node3</title>
<g id="a_node3"><a xlink:href="f__op__camera__mng_8h.html" target="_top" xlink:title=" ">
<polygon fill="white" stroke="#666666" points="2755,-239 2627,-239 2627,-209 2755,-209 2755,-239"/>
<text text-anchor="start" x="2635" y="-227" font-family="Helvetica,sans-Serif" font-size="10.00">include/f_op/f_op_camera</text>
<text text-anchor="middle" x="2691" y="-216" font-family="Helvetica,sans-Serif" font-size="10.00">_mng.h</text>
</a>
</g>
</g>
<!-- Node2&#45;&gt;Node3 -->
<g id="edge2" class="edge">
<title>Node2&#45;&gt;Node3</title>
<path fill="none" stroke="#63b8ff" d="M2691,-263.51C2691,-255.49 2691,-246.43 2691,-239.11"/>
<polygon fill="#63b8ff" stroke="#63b8ff" points="2687.5,-263.35 2691,-273.35 2694.5,-263.35 2687.5,-263.35"/>
</g>
<!-- Node137 -->
<g id="node47" class="node">
<title>Node137</title>
<g id="a_node47"><a xlink:href="d__camera_8cpp.html" target="_top" xlink:title=" ">
<polygon fill="white" stroke="#666666" points="102,-96 0,-96 0,-77 102,-77 102,-96"/>
<text text-anchor="middle" x="51" y="-84" font-family="Helvetica,sans-Serif" font-size="10.00">src/d/d_camera.cpp</text>
</a>
</g>
</g>
<!-- Node2&#45;&gt;Node137 -->
<g id="edge51" class="edge">
<title>Node2&#45;&gt;Node137</title>
<path fill="none" stroke="#63b8ff" d="M2624.95,-282.86C2331.47,-279.2 1116.91,-255.39 134,-107 117.17,-104.46 98.71,-100.27 83.48,-96.42"/>
<polygon fill="#63b8ff" stroke="#63b8ff" points="2624.66,-286.36 2634.7,-282.98 2624.74,-279.36 2624.66,-286.36"/>
</g>
<!-- Node4 -->
<g id="node4" class="node">
<title>Node4</title>
<g id="a_node4"><a xlink:href="d__com__inf__game_8h.html" target="_top" xlink:title=" ">
<polygon fill="#fff0f0" stroke="red" points="2811,-173 2701,-173 2701,-143 2811,-143 2811,-173"/>
<text text-anchor="start" x="2709" y="-161" font-family="Helvetica,sans-Serif" font-size="10.00">include/d/com/d_com</text>
<text text-anchor="middle" x="2756" y="-150" font-family="Helvetica,sans-Serif" font-size="10.00">_inf_game.h</text>
</a>
</g>
</g>
<!-- Node3&#45;&gt;Node4 -->
<g id="edge3" class="edge">
<title>Node3&#45;&gt;Node4</title>
<path fill="none" stroke="#63b8ff" d="M2713.54,-200.81C2722.85,-191.64 2733.38,-181.28 2741.61,-173.16"/>
<polygon fill="#63b8ff" stroke="#63b8ff" points="2711.17,-198.22 2706.5,-207.73 2716.09,-203.21 2711.17,-198.22"/>
</g>
<!-- Node192 -->
<g id="node48" class="node">
<title>Node192</title>
<g id="a_node48"><a xlink:href="d__s__name_8h.html" target="_top" xlink:title=" ">
<polygon fill="#fff0f0" stroke="red" points="2948.5,-167.5 2829.5,-167.5 2829.5,-148.5 2948.5,-148.5 2948.5,-167.5"/>
<text text-anchor="middle" x="2889" y="-155.5" font-family="Helvetica,sans-Serif" font-size="10.00">include/d/s/d_s_name.h</text>
</a>
</g>
</g>
<!-- Node3&#45;&gt;Node192 -->
<g id="edge48" class="edge">
<title>Node3&#45;&gt;Node192</title>
<path fill="none" stroke="#63b8ff" d="M2746.18,-205.16C2783.6,-193.07 2831.49,-177.59 2861.2,-167.99"/>
<polygon fill="#63b8ff" stroke="#63b8ff" points="2745.31,-201.77 2736.88,-208.17 2747.47,-208.43 2745.31,-201.77"/>
</g>
<!-- Node193 -->
<g id="node49" class="node">
<title>Node193</title>
<g id="a_node49"><a xlink:href="f__ap__game_8cpp.html" target="_top" xlink:title=" ">
<polygon fill="white" stroke="#666666" points="2553.5,-167.5 2432.5,-167.5 2432.5,-148.5 2553.5,-148.5 2553.5,-167.5"/>
<text text-anchor="middle" x="2493" y="-155.5" font-family="Helvetica,sans-Serif" font-size="10.00">src/f_ap/f_ap_game.cpp</text>
</a>
</g>
</g>
<!-- Node3&#45;&gt;Node193 -->
<g id="edge49" class="edge">
<title>Node3&#45;&gt;Node193</title>
<path fill="none" stroke="#63b8ff" d="M2635.82,-205.16C2598.4,-193.07 2550.51,-177.59 2520.8,-167.99"/>
<polygon fill="#63b8ff" stroke="#63b8ff" points="2634.53,-208.43 2645.12,-208.17 2636.69,-201.77 2634.53,-208.43"/>
</g>
<!-- Node194 -->
<g id="node50" class="node">
<title>Node194</title>
<g id="a_node50"><a xlink:href="f__op__camera__mng_8cpp.html" target="_top" xlink:title=" ">
<polygon fill="white" stroke="#666666" points="2682.5,-173 2571.5,-173 2571.5,-143 2682.5,-143 2682.5,-173"/>
<text text-anchor="start" x="2579.5" y="-161" font-family="Helvetica,sans-Serif" font-size="10.00">src/f_op/f_op_camera</text>
<text text-anchor="middle" x="2627" y="-150" font-family="Helvetica,sans-Serif" font-size="10.00">_mng.cpp</text>
</a>
</g>
</g>
<!-- Node3&#45;&gt;Node194 -->
<g id="edge50" class="edge">
<title>Node3&#45;&gt;Node194</title>
<path fill="none" stroke="#63b8ff" d="M2668.81,-200.81C2659.64,-191.64 2649.28,-181.28 2641.16,-173.16"/>
<polygon fill="#63b8ff" stroke="#63b8ff" points="2666.18,-203.13 2675.73,-207.73 2671.13,-198.18 2666.18,-203.13"/>
</g>
<!-- Node5 -->
<g id="node5" class="node">
<title>Node5</title>
<g id="a_node5"><a xlink:href="d__a__npc_8h.html" target="_top" xlink:title=" ">
<polygon fill="#fff0f0" stroke="red" points="5371.5,-96 5260.5,-96 5260.5,-77 5371.5,-77 5371.5,-96"/>
<text text-anchor="middle" x="5316" y="-84" font-family="Helvetica,sans-Serif" font-size="10.00">include/d/a/d_a_npc.h</text>
</a>
</g>
</g>
<!-- Node4&#45;&gt;Node5 -->
<g id="edge4" class="edge">
<title>Node4&#45;&gt;Node5</title>
<path fill="none" stroke="#63b8ff" d="M2822.52,-143.08C3376.37,-83.3 4721.87,-189.99 5252,-107 5265.66,-104.86 5280.45,-100.5 5292.36,-96.44"/>
<polygon fill="#63b8ff" stroke="#63b8ff" points="2822.25,-139.59 2812.7,-144.17 2823.03,-146.54 2822.25,-139.59"/>
</g>
<!-- Node12 -->
<g id="node6" class="node">
<title>Node12</title>
<g id="a_node6"><a xlink:href="d__a__npc__cd_8h.html" target="_top" xlink:title=" ">
<polygon fill="#fff0f0" stroke="red" points="5516.5,-96 5389.5,-96 5389.5,-77 5516.5,-77 5516.5,-96"/>
<text text-anchor="middle" x="5453" y="-84" font-family="Helvetica,sans-Serif" font-size="10.00">include/d/a/d_a_npc_cd.h</text>
</a>
</g>
</g>
<!-- Node4&#45;&gt;Node12 -->
<g id="edge5" class="edge">
<title>Node4&#45;&gt;Node12</title>
<path fill="none" stroke="#63b8ff" d="M2822.25,-143.11C3404.45,-80.14 4821.14,-185.48 5381,-107 5396.26,-104.86 5412.89,-100.5 5426.32,-96.44"/>
<polygon fill="#63b8ff" stroke="#63b8ff" points="2822.25,-139.58 2812.7,-144.17 2823.02,-146.54 2822.25,-139.58"/>
</g>
<!-- Node14 -->
<g id="node7" class="node">
<title>Node14</title>
<g id="a_node7"><a xlink:href="d__a__npc__cd2_8h.html" target="_top" xlink:title=" ">
<polygon fill="#fff0f0" stroke="red" points="416,-30 312,-30 312,0 416,0 416,-30"/>
<text text-anchor="start" x="320" y="-18" font-family="Helvetica,sans-Serif" font-size="10.00">include/d/a/d_a_npc</text>
<text text-anchor="middle" x="364" y="-7" font-family="Helvetica,sans-Serif" font-size="10.00">_cd2.h</text>
</a>
</g>
</g>
<!-- Node4&#45;&gt;Node14 -->
<g id="edge6" class="edge">
<title>Node4&#45;&gt;Node14</title>
<path fill="none" stroke="#63b8ff" d="M2689.28,-143.49C2493.38,-136.06 197.27,-155.96 149,-107 96.28,-53.53 232.45,-29.79 311.73,-20.76"/>
<polygon fill="#63b8ff" stroke="#63b8ff" points="2688.91,-146.97 2699.1,-144.08 2689.33,-139.99 2688.91,-146.97"/>
</g>
<!-- Node16 -->
<g id="node8" class="node">
<title>Node16</title>
<g id="a_node8"><a xlink:href="d__cc__uty_8h.html" target="_top" xlink:title=" ">
<polygon fill="#fff0f0" stroke="red" points="277.5,-96 158.5,-96 158.5,-77 277.5,-77 277.5,-96"/>
<text text-anchor="middle" x="218" y="-84" font-family="Helvetica,sans-Serif" font-size="10.00">include/d/cc/d_cc_uty.h</text>
</a>
</g>
</g>
<!-- Node4&#45;&gt;Node16 -->
<g id="edge7" class="edge">
<title>Node4&#45;&gt;Node16</title>
<path fill="none" stroke="#63b8ff" d="M2689.43,-142.91C2142.45,-82.97 811.33,-184.85 286,-107 271.54,-104.86 255.83,-100.49 243.16,-96.44"/>
<polygon fill="#63b8ff" stroke="#63b8ff" points="2688.78,-146.36 2699.11,-144 2689.56,-139.4 2688.78,-146.36"/>
</g>
<!-- Node27 -->
<g id="node9" class="node">
<title>Node27</title>
<g id="a_node9"><a xlink:href="d__bright__check_8h.html" target="_top" xlink:title=" ">
<polygon fill="#fff0f0" stroke="red" points="388.5,-101.5 295.5,-101.5 295.5,-71.5 388.5,-71.5 388.5,-101.5"/>
<text text-anchor="start" x="303.5" y="-89.5" font-family="Helvetica,sans-Serif" font-size="10.00">include/d/d_bright</text>
<text text-anchor="middle" x="342" y="-78.5" font-family="Helvetica,sans-Serif" font-size="10.00">_check.h</text>
</a>
</g>
</g>
<!-- Node4&#45;&gt;Node27 -->
<g id="edge8" class="edge">
<title>Node4&#45;&gt;Node27</title>
<path fill="none" stroke="#63b8ff" d="M2689.17,-142.89C2166.77,-85.86 896.34,-195.31 398,-107 391.41,-105.83 384.56,-104 378,-101.92"/>
<polygon fill="#63b8ff" stroke="#63b8ff" points="2688.78,-146.36 2699.11,-144.01 2689.56,-139.41 2688.78,-146.36"/>
</g>
<!-- Node29 -->
<g id="node10" class="node">
<title>Node29</title>
<g id="a_node10"><a xlink:href="d__error__msg_8h.html" target="_top" xlink:title=" ">
<polygon fill="#fff0f0" stroke="red" points="527,-96 407,-96 407,-77 527,-77 527,-96"/>
<text text-anchor="middle" x="467" y="-84" font-family="Helvetica,sans-Serif" font-size="10.00">include/d/d_error_msg.h</text>
</a>
</g>
</g>
<!-- Node4&#45;&gt;Node29 -->
<g id="edge9" class="edge">
<title>Node4&#45;&gt;Node29</title>
<path fill="none" stroke="#63b8ff" d="M2689.49,-142.92C2197.83,-88.87 1006.49,-176.21 536,-107 521.34,-104.84 505.4,-100.48 492.54,-96.42"/>
<polygon fill="#63b8ff" stroke="#63b8ff" points="2688.78,-146.36 2699.11,-144.01 2689.56,-139.4 2688.78,-146.36"/>
</g>
<!-- Node32 -->
<g id="node11" class="node">
<title>Node32</title>
<g id="a_node11"><a xlink:href="d__npc__lib_8h.html" target="_top" xlink:title=" ">
<polygon fill="#fff0f0" stroke="red" points="652.5,-96 545.5,-96 545.5,-77 652.5,-77 652.5,-96"/>
<text text-anchor="middle" x="599" y="-84" font-family="Helvetica,sans-Serif" font-size="10.00">include/d/d_npc_lib.h</text>
</a>
</g>
</g>
<!-- Node4&#45;&gt;Node32 -->
<g id="edge10" class="edge">
<title>Node4&#45;&gt;Node32</title>
<path fill="none" stroke="#63b8ff" d="M2689.44,-142.91C2225.61,-91.94 1103.91,-177.84 662,-107 648.55,-104.84 633.99,-100.48 622.26,-96.42"/>
<polygon fill="#63b8ff" stroke="#63b8ff" points="2688.78,-146.36 2699.11,-144.01 2689.57,-139.4 2688.78,-146.36"/>
</g>
<!-- Node34 -->
<g id="node12" class="node">
<title>Node34</title>
<g id="a_node12"><a xlink:href="d__file__select_8h.html" target="_top" xlink:title=" ">
<polygon fill="#fff0f0" stroke="red" points="767,-101.5 671,-101.5 671,-71.5 767,-71.5 767,-101.5"/>
<text text-anchor="start" x="679" y="-89.5" font-family="Helvetica,sans-Serif" font-size="10.00">include/d/file/d_file</text>
<text text-anchor="middle" x="719" y="-78.5" font-family="Helvetica,sans-Serif" font-size="10.00">_select.h</text>
</a>
</g>
</g>
<!-- Node4&#45;&gt;Node34 -->
<g id="edge12" class="edge">
<title>Node4&#45;&gt;Node34</title>
<path fill="none" stroke="#63b8ff" d="M2689.41,-142.91C2250.76,-94.74 1191.82,-180.18 776,-107 769.41,-105.84 762.55,-104.04 755.97,-102"/>
<polygon fill="#63b8ff" stroke="#63b8ff" points="2688.77,-146.36 2699.11,-144.01 2689.57,-139.41 2688.77,-146.36"/>
</g>
<!-- Node36 -->
<g id="node13" class="node">
<title>Node36</title>
<g id="a_node13"><a xlink:href="d__msg__object_8h.html" target="_top" xlink:title=" ">
<polygon fill="#fff0f0" stroke="red" points="895,-101.5 785,-101.5 785,-71.5 895,-71.5 895,-101.5"/>
<text text-anchor="start" x="793" y="-89.5" font-family="Helvetica,sans-Serif" font-size="10.00">include/d/msg/d_msg</text>
<text text-anchor="middle" x="840" y="-78.5" font-family="Helvetica,sans-Serif" font-size="10.00">_object.h</text>
</a>
</g>
</g>
<!-- Node4&#45;&gt;Node36 -->
<g id="edge13" class="edge">
<title>Node4&#45;&gt;Node36</title>
<path fill="none" stroke="#63b8ff" d="M2689.23,-142.89C2278.82,-97.66 1292.83,-168.93 904,-107 896.66,-105.83 888.99,-104.03 881.61,-101.98"/>
<polygon fill="#63b8ff" stroke="#63b8ff" points="2688.77,-146.36 2699.11,-144.02 2689.57,-139.4 2688.77,-146.36"/>
</g>
<!-- Node59 -->
<g id="node14" class="node">
<title>Node59</title>
<g id="a_node14"><a xlink:href="d__a__andsw_8h.html" target="_top" xlink:title=" ">
<polygon fill="white" stroke="#666666" points="1023,-101.5 913,-101.5 913,-71.5 1023,-71.5 1023,-101.5"/>
<text text-anchor="start" x="921" y="-89.5" font-family="Helvetica,sans-Serif" font-size="10.00">include/rel/d/a/d_a</text>
<text text-anchor="middle" x="968" y="-78.5" font-family="Helvetica,sans-Serif" font-size="10.00">_andsw/d_a_andsw.h</text>
</a>
</g>
</g>
<!-- Node4&#45;&gt;Node59 -->
<g id="edge14" class="edge">
<title>Node4&#45;&gt;Node59</title>
<path fill="none" stroke="#63b8ff" d="M2689.18,-142.88C2307.07,-100.68 1392.69,-164.73 1032,-107 1024.66,-105.83 1016.99,-104.02 1009.61,-101.97"/>
<polygon fill="#63b8ff" stroke="#63b8ff" points="2688.77,-146.36 2699.11,-144.02 2689.57,-139.4 2688.77,-146.36"/>
</g>
<!-- Node60 -->
<g id="node15" class="node">
<title>Node60</title>
<g id="a_node15"><a xlink:href="d__a__cstaF_8h.html" target="_top" xlink:title=" ">
<polygon fill="white" stroke="#666666" points="1144.5,-101.5 1041.5,-101.5 1041.5,-71.5 1144.5,-71.5 1144.5,-101.5"/>
<text text-anchor="start" x="1049.5" y="-89.5" font-family="Helvetica,sans-Serif" font-size="10.00">include/rel/d/a/d_a</text>
<text text-anchor="middle" x="1093" y="-78.5" font-family="Helvetica,sans-Serif" font-size="10.00">_cstaF/d_a_cstaF.h</text>
</a>
</g>
</g>
<!-- Node4&#45;&gt;Node60 -->
<g id="edge15" class="edge">
<title>Node4&#45;&gt;Node60</title>
<path fill="none" stroke="#63b8ff" d="M2689.22,-142.89C2334.12,-103.59 1487.53,-163.02 1154,-107 1146.98,-105.82 1139.66,-104.01 1132.63,-101.96"/>
<polygon fill="#63b8ff" stroke="#63b8ff" points="2688.77,-146.36 2699.1,-144.03 2689.57,-139.4 2688.77,-146.36"/>
</g>
<!-- Node61 -->
<g id="node16" class="node">
<title>Node61</title>
<g id="a_node16"><a xlink:href="d__a__dmidna_8h.html" target="_top" xlink:title=" ">
<polygon fill="white" stroke="#666666" points="1279,-101.5 1163,-101.5 1163,-71.5 1279,-71.5 1279,-101.5"/>
<text text-anchor="start" x="1171" y="-89.5" font-family="Helvetica,sans-Serif" font-size="10.00">include/rel/d/a/d_a</text>
<text text-anchor="middle" x="1221" y="-78.5" font-family="Helvetica,sans-Serif" font-size="10.00">_dmidna/d_a_dmidna.h</text>
</a>
</g>
</g>
<!-- Node4&#45;&gt;Node61 -->
<g id="edge16" class="edge">
<title>Node4&#45;&gt;Node61</title>
<path fill="none" stroke="#63b8ff" d="M2689.61,-142.89C2070.34,-69.54 1901.16,-202.45 1288,-107 1280.34,-105.81 1272.32,-103.99 1264.6,-101.94"/>
<polygon fill="#63b8ff" stroke="#63b8ff" points="2688.76,-146.31 2699.1,-144.03 2689.59,-139.36 2688.76,-146.31"/>
</g>
<!-- Node62 -->
<g id="node17" class="node">
<title>Node62</title>
<g id="a_node17"><a xlink:href="d__a__dshutter_8h.html" target="_top" xlink:title=" ">
<polygon fill="#fff0f0" stroke="red" points="1421,-101.5 1297,-101.5 1297,-71.5 1421,-71.5 1421,-101.5"/>
<text text-anchor="start" x="1305" y="-89.5" font-family="Helvetica,sans-Serif" font-size="10.00">include/rel/d/a/d_a</text>
<text text-anchor="middle" x="1359" y="-78.5" font-family="Helvetica,sans-Serif" font-size="10.00">_dshutter/d_a_dshutter.h</text>
</a>
</g>
</g>
<!-- Node4&#45;&gt;Node62 -->
<g id="edge17" class="edge">
<title>Node4&#45;&gt;Node62</title>
<path fill="none" stroke="#63b8ff" d="M2689.48,-142.87C2133.5,-76.29 1982.01,-188.31 1431,-107 1422.8,-105.79 1414.2,-103.97 1405.91,-101.91"/>
<polygon fill="#63b8ff" stroke="#63b8ff" points="2688.75,-146.31 2699.1,-144.04 2689.6,-139.36 2688.75,-146.31"/>
</g>
<!-- Node64 -->
<g id="node18" class="node">
<title>Node64</title>
<g id="a_node18"><a xlink:href="d__a__guard__mng_8h.html" target="_top" xlink:title=" ">
<polygon fill="white" stroke="#666666" points="1588.5,-101.5 1439.5,-101.5 1439.5,-71.5 1588.5,-71.5 1588.5,-101.5"/>
<text text-anchor="start" x="1447.5" y="-89.5" font-family="Helvetica,sans-Serif" font-size="10.00">include/rel/d/a/d_a</text>
<text text-anchor="middle" x="1514" y="-78.5" font-family="Helvetica,sans-Serif" font-size="10.00">_guard_mng/d_a_guard_mng.h</text>
</a>
</g>
</g>
<!-- Node4&#45;&gt;Node64 -->
<g id="edge18" class="edge">
<title>Node4&#45;&gt;Node64</title>
<path fill="none" stroke="#63b8ff" d="M2689.51,-142.86C2207.29,-84.09 2076.7,-169.83 1598,-107 1588.65,-105.77 1578.81,-103.97 1569.3,-101.95"/>
<polygon fill="#63b8ff" stroke="#63b8ff" points="2688.75,-146.3 2699.1,-144.05 2689.61,-139.35 2688.75,-146.3"/>
</g>
<!-- Node65 -->
<g id="node19" class="node">
<title>Node65</title>
<g id="a_node19"><a xlink:href="d__a__hitobj_8h.html" target="_top" xlink:title=" ">
<polygon fill="white" stroke="#666666" points="1707,-101.5 1607,-101.5 1607,-71.5 1707,-71.5 1707,-101.5"/>
<text text-anchor="start" x="1615" y="-89.5" font-family="Helvetica,sans-Serif" font-size="10.00">include/rel/d/a/d_a</text>
<text text-anchor="middle" x="1657" y="-78.5" font-family="Helvetica,sans-Serif" font-size="10.00">_hitobj/d_a_hitobj.h</text>
</a>
</g>
</g>
<!-- Node4&#45;&gt;Node65 -->
<g id="edge19" class="edge">
<title>Node4&#45;&gt;Node65</title>
<path fill="none" stroke="#63b8ff" d="M2689.42,-142.85C2259.78,-90.05 2140.31,-182.09 1717,-107 1710.21,-105.79 1703.12,-104 1696.3,-101.98"/>
<polygon fill="#63b8ff" stroke="#63b8ff" points="2688.74,-146.29 2699.1,-144.06 2689.61,-139.35 2688.74,-146.29"/>
</g>
<!-- Node66 -->
<g id="node20" class="node">
<title>Node66</title>
<g id="a_node20"><a xlink:href="d__a__izumi__gate_8h.html" target="_top" xlink:title=" ">
<polygon fill="white" stroke="#666666" points="1840.5,-107 1725.5,-107 1725.5,-66 1840.5,-66 1840.5,-107"/>
<text text-anchor="start" x="1733.5" y="-95" font-family="Helvetica,sans-Serif" font-size="10.00">include/rel/d/a/d_a</text>
<text text-anchor="start" x="1733.5" y="-84" font-family="Helvetica,sans-Serif" font-size="10.00">_izumi_gate/d_a_izumi</text>
<text text-anchor="middle" x="1783" y="-73" font-family="Helvetica,sans-Serif" font-size="10.00">_gate.h</text>
</a>
</g>
</g>
<!-- Node4&#45;&gt;Node66 -->
<g id="edge20" class="edge">
<title>Node4&#45;&gt;Node66</title>
<path fill="none" stroke="#63b8ff" d="M2689.27,-142.82C2318.5,-96.25 2215.9,-167.17 1850,-107 1847.01,-106.51 1843.97,-105.93 1840.91,-105.28"/>
<polygon fill="#63b8ff" stroke="#63b8ff" points="2688.74,-146.28 2699.1,-144.08 2689.62,-139.34 2688.74,-146.28"/>
</g>
<!-- Node67 -->
<g id="node21" class="node">
<title>Node67</title>
<g id="a_node21"><a xlink:href="d__a__set__bgobj_8h.html" target="_top" xlink:title=" ">
<polygon fill="#fff0f0" stroke="red" points="1995.5,-101.5 1858.5,-101.5 1858.5,-71.5 1995.5,-71.5 1995.5,-101.5"/>
<text text-anchor="start" x="1866.5" y="-89.5" font-family="Helvetica,sans-Serif" font-size="10.00">include/rel/d/a/d_a</text>
<text text-anchor="middle" x="1927" y="-78.5" font-family="Helvetica,sans-Serif" font-size="10.00">_set_bgobj/d_a_set_bgobj.h</text>
</a>
</g>
</g>
<!-- Node4&#45;&gt;Node67 -->
<g id="edge21" class="edge">
<title>Node4&#45;&gt;Node67</title>
<path fill="none" stroke="#63b8ff" d="M2689.29,-142.8C2386.96,-103.4 2303.69,-151.73 2005,-107 1996.44,-105.72 1987.45,-103.91 1978.75,-101.91"/>
<polygon fill="#63b8ff" stroke="#63b8ff" points="2688.72,-146.26 2699.09,-144.1 2689.64,-139.32 2688.72,-146.26"/>
</g>
<!-- Node68 -->
<g id="node22" class="node">
<title>Node68</title>
<g id="a_node22"><a xlink:href="d__a__skip__2D_8h.html" target="_top" xlink:title=" ">
<polygon fill="white" stroke="#666666" points="2138,-101.5 2014,-101.5 2014,-71.5 2138,-71.5 2138,-101.5"/>
<text text-anchor="start" x="2022" y="-89.5" font-family="Helvetica,sans-Serif" font-size="10.00">include/rel/d/a/d_a</text>
<text text-anchor="middle" x="2076" y="-78.5" font-family="Helvetica,sans-Serif" font-size="10.00">_skip_2D/d_a_skip_2D.h</text>
</a>
</g>
</g>
<!-- Node4&#45;&gt;Node68 -->
<g id="edge22" class="edge">
<title>Node4&#45;&gt;Node68</title>
<path fill="none" stroke="#63b8ff" d="M2689.41,-142.79C2449.63,-110.11 2382.75,-146.74 2147,-107 2139.31,-105.7 2131.25,-103.92 2123.44,-101.95"/>
<polygon fill="#63b8ff" stroke="#63b8ff" points="2688.7,-146.23 2699.09,-144.14 2689.67,-139.29 2688.7,-146.23"/>
</g>
<!-- Node69 -->
<g id="node23" class="node">
<title>Node69</title>
<g id="a_node23"><a xlink:href="d__a__spinner_8h.html" target="_top" xlink:title=" ">
<polygon fill="#fff0f0" stroke="red" points="2272,-101.5 2156,-101.5 2156,-71.5 2272,-71.5 2272,-101.5"/>
<text text-anchor="start" x="2164" y="-89.5" font-family="Helvetica,sans-Serif" font-size="10.00">include/rel/d/a/d_a</text>
<text text-anchor="middle" x="2214" y="-78.5" font-family="Helvetica,sans-Serif" font-size="10.00">_spinner/d_a_spinner.h</text>
</a>
</g>
</g>
<!-- Node4&#45;&gt;Node69 -->
<g id="edge23" class="edge">
<title>Node4&#45;&gt;Node69</title>
<path fill="none" stroke="#63b8ff" d="M2689.34,-142.74C2508.7,-116.35 2457.62,-140.11 2281,-107 2273.86,-105.66 2266.38,-103.88 2259.12,-101.93"/>
<polygon fill="#63b8ff" stroke="#63b8ff" points="2688.67,-146.18 2699.08,-144.2 2689.71,-139.26 2688.67,-146.18"/>
</g>
<!-- Node72 -->
<g id="node24" class="node">
<title>Node72</title>
<g id="a_node24"><a xlink:href="d__a__swTime_8h.html" target="_top" xlink:title=" ">
<polygon fill="white" stroke="#666666" points="2412,-101.5 2290,-101.5 2290,-71.5 2412,-71.5 2412,-101.5"/>
<text text-anchor="start" x="2298" y="-89.5" font-family="Helvetica,sans-Serif" font-size="10.00">include/rel/d/a/d_a</text>
<text text-anchor="middle" x="2351" y="-78.5" font-family="Helvetica,sans-Serif" font-size="10.00">_swTime/d_a_swTime.h</text>
</a>
</g>
</g>
<!-- Node4&#45;&gt;Node72 -->
<g id="edge24" class="edge">
<title>Node4&#45;&gt;Node72</title>
<path fill="none" stroke="#63b8ff" d="M2689.53,-142.67C2570.36,-122.52 2536.55,-130.65 2421,-107 2413.96,-105.56 2406.58,-103.79 2399.36,-101.92"/>
<polygon fill="#63b8ff" stroke="#63b8ff" points="2688.61,-146.07 2699.06,-144.32 2689.8,-139.17 2688.61,-146.07"/>
</g>
<!-- Node73 -->
<g id="node25" class="node">
<title>Node73</title>
<g id="a_node25"><a xlink:href="d__a__vrbox_8h.html" target="_top" xlink:title=" ">
<polygon fill="white" stroke="#666666" points="2530,-101.5 2430,-101.5 2430,-71.5 2530,-71.5 2530,-101.5"/>
<text text-anchor="start" x="2438" y="-89.5" font-family="Helvetica,sans-Serif" font-size="10.00">include/rel/d/a/d_a</text>
<text text-anchor="middle" x="2480" y="-78.5" font-family="Helvetica,sans-Serif" font-size="10.00">_vrbox/d_a_vrbox.h</text>
</a>
</g>
</g>
<!-- Node4&#45;&gt;Node73 -->
<g id="edge25" class="edge">
<title>Node4&#45;&gt;Node73</title>
<path fill="none" stroke="#63b8ff" d="M2689.71,-142.32C2637.05,-130.53 2567.79,-114.72 2540,-107 2534.41,-105.45 2528.56,-103.7 2522.8,-101.91"/>
<polygon fill="#63b8ff" stroke="#63b8ff" points="2688.68,-145.67 2699.2,-144.44 2690.2,-138.84 2688.68,-145.67"/>
</g>
<!-- Node74 -->
<g id="node26" class="node">
<title>Node74</title>
<g id="a_node26"><a xlink:href="d__a__e__db__leaf_8h.html" target="_top" xlink:title=" ">
<polygon fill="white" stroke="#666666" points="2667.5,-107 2548.5,-107 2548.5,-66 2667.5,-66 2667.5,-107"/>
<text text-anchor="start" x="2556.5" y="-95" font-family="Helvetica,sans-Serif" font-size="10.00">include/rel/d/a/e/d</text>
<text text-anchor="start" x="2556.5" y="-84" font-family="Helvetica,sans-Serif" font-size="10.00">_a_e_db_leaf/d_a_e_db</text>
<text text-anchor="middle" x="2608" y="-73" font-family="Helvetica,sans-Serif" font-size="10.00">_leaf.h</text>
</a>
</g>
</g>
<!-- Node4&#45;&gt;Node74 -->
<g id="edge26" class="edge">
<title>Node4&#45;&gt;Node74</title>
<path fill="none" stroke="#63b8ff" d="M2714.94,-137.72C2694.85,-128.28 2670.68,-116.94 2650.41,-107.42"/>
<polygon fill="#63b8ff" stroke="#63b8ff" points="2713.42,-140.87 2723.96,-141.96 2716.4,-134.54 2713.42,-140.87"/>
</g>
<!-- Node75 -->
<g id="node27" class="node">
<title>Node75</title>
<g id="a_node27"><a xlink:href="d__a__kytag02_8h.html" target="_top" xlink:title=" ">
<polygon fill="white" stroke="#666666" points="2826,-101.5 2686,-101.5 2686,-71.5 2826,-71.5 2826,-101.5"/>
<text text-anchor="start" x="2694" y="-89.5" font-family="Helvetica,sans-Serif" font-size="10.00">include/rel/d/a/kytag</text>
<text text-anchor="middle" x="2756" y="-78.5" font-family="Helvetica,sans-Serif" font-size="10.00">/d_a_kytag02/d_a_kytag02.h</text>
</a>
</g>
</g>
<!-- Node4&#45;&gt;Node75 -->
<g id="edge27" class="edge">
<title>Node4&#45;&gt;Node75</title>
<path fill="none" stroke="#63b8ff" d="M2756,-131.26C2756,-121.33 2756,-110.36 2756,-101.88"/>
<polygon fill="#63b8ff" stroke="#63b8ff" points="2752.5,-131.09 2756,-141.09 2759.5,-131.09 2752.5,-131.09"/>
</g>
<!-- Node76 -->
<g id="node28" class="node">
<title>Node76</title>
<g id="a_node28"><a xlink:href="d__a__obj__bombf_8h.html" target="_top" xlink:title=" ">
<polygon fill="white" stroke="#666666" points="2966,-107 2844,-107 2844,-66 2966,-66 2966,-107"/>
<text text-anchor="start" x="2852" y="-95" font-family="Helvetica,sans-Serif" font-size="10.00">include/rel/d/a/obj</text>
<text text-anchor="start" x="2852" y="-84" font-family="Helvetica,sans-Serif" font-size="10.00">/d_a_obj_bombf/d_a_obj</text>
<text text-anchor="middle" x="2905" y="-73" font-family="Helvetica,sans-Serif" font-size="10.00">_bombf.h</text>
</a>
</g>
</g>
<!-- Node4&#45;&gt;Node76 -->
<g id="edge28" class="edge">
<title>Node4&#45;&gt;Node76</title>
<path fill="none" stroke="#63b8ff" d="M2797.06,-137.85C2817.34,-128.39 2841.8,-116.98 2862.3,-107.42"/>
<polygon fill="#63b8ff" stroke="#63b8ff" points="2795.83,-134.56 2788.24,-141.96 2798.79,-140.9 2795.83,-134.56"/>
</g>
<!-- Node77 -->
<g id="node29" class="node">
<title>Node77</title>
<g id="a_node29"><a xlink:href="d__a__obj__carry_8h.html" target="_top" xlink:title=" ">
<polygon fill="#fff0f0" stroke="red" points="3100,-107 2984,-107 2984,-66 3100,-66 3100,-107"/>
<text text-anchor="start" x="2992" y="-95" font-family="Helvetica,sans-Serif" font-size="10.00">include/rel/d/a/obj</text>
<text text-anchor="start" x="2992" y="-84" font-family="Helvetica,sans-Serif" font-size="10.00">/d_a_obj_carry/d_a_obj</text>
<text text-anchor="middle" x="3042" y="-73" font-family="Helvetica,sans-Serif" font-size="10.00">_carry.h</text>
</a>
</g>
</g>
<!-- Node4&#45;&gt;Node77 -->
<g id="edge29" class="edge">
<title>Node4&#45;&gt;Node77</title>
<path fill="none" stroke="#63b8ff" d="M2822.41,-142.29C2875.86,-130.36 2946.59,-114.37 2975,-107 2977.81,-106.27 2980.69,-105.51 2983.59,-104.72"/>
<polygon fill="#63b8ff" stroke="#63b8ff" points="2821.76,-138.85 2812.76,-144.44 2823.28,-145.68 2821.76,-138.85"/>
</g>
<!-- Node79 -->
<g id="node30" class="node">
<title>Node79</title>
<g id="a_node30"><a xlink:href="d__a__obj__cboard_8h.html" target="_top" xlink:title=" ">
<polygon fill="white" stroke="#666666" points="3225.5,-107 3118.5,-107 3118.5,-66 3225.5,-66 3225.5,-107"/>
<text text-anchor="start" x="3126.5" y="-95" font-family="Helvetica,sans-Serif" font-size="10.00">include/rel/d/a/obj</text>
<text text-anchor="start" x="3126.5" y="-84" font-family="Helvetica,sans-Serif" font-size="10.00">/d_a_obj_cboard/d_a</text>
<text text-anchor="middle" x="3172" y="-73" font-family="Helvetica,sans-Serif" font-size="10.00">_obj_cboard.h</text>
</a>
</g>
</g>
<!-- Node4&#45;&gt;Node79 -->
<g id="edge30" class="edge">
<title>Node4&#45;&gt;Node79</title>
<path fill="none" stroke="#63b8ff" d="M2822.26,-142.92C2950.14,-122.07 2986.35,-133.43 3109,-107 3112.02,-106.35 3115.11,-105.62 3118.21,-104.83"/>
<polygon fill="#63b8ff" stroke="#63b8ff" points="2822.04,-139.41 2812.75,-144.5 2823.19,-146.31 2822.04,-139.41"/>
</g>
<!-- Node80 -->
<g id="node31" class="node">
<title>Node80</title>
<g id="a_node31"><a xlink:href="d__a__obj__cowdoor_8h.html" target="_top" xlink:title=" ">
<polygon fill="white" stroke="#666666" points="3358,-107 3244,-107 3244,-66 3358,-66 3358,-107"/>
<text text-anchor="start" x="3252" y="-95" font-family="Helvetica,sans-Serif" font-size="10.00">include/rel/d/a/obj</text>
<text text-anchor="start" x="3252" y="-84" font-family="Helvetica,sans-Serif" font-size="10.00">/d_a_obj_cowdoor/d_a</text>
<text text-anchor="middle" x="3301" y="-73" font-family="Helvetica,sans-Serif" font-size="10.00">_obj_cowdoor.h</text>
</a>
</g>
</g>
<!-- Node4&#45;&gt;Node80 -->
<g id="edge31" class="edge">
<title>Node4&#45;&gt;Node80</title>
<path fill="none" stroke="#63b8ff" d="M2822.62,-142.93C3005.69,-116.51 3057.16,-140.65 3235,-107 3237.82,-106.47 3240.69,-105.86 3243.57,-105.2"/>
<polygon fill="#63b8ff" stroke="#63b8ff" points="2822.11,-139.46 2812.73,-144.39 2823.13,-146.39 2822.11,-139.46"/>
</g>
<!-- Node81 -->
<g id="node32" class="node">
<title>Node81</title>
<g id="a_node32"><a xlink:href="d__a__obj__digholl_8h.html" target="_top" xlink:title=" ">
<polygon fill="white" stroke="#666666" points="3481.5,-107 3376.5,-107 3376.5,-66 3481.5,-66 3481.5,-107"/>
<text text-anchor="start" x="3384.5" y="-95" font-family="Helvetica,sans-Serif" font-size="10.00">include/rel/d/a/obj</text>
<text text-anchor="start" x="3384.5" y="-84" font-family="Helvetica,sans-Serif" font-size="10.00">/d_a_obj_digholl/d_a</text>
<text text-anchor="middle" x="3429" y="-73" font-family="Helvetica,sans-Serif" font-size="10.00">_obj_digholl.h</text>
</a>
</g>
</g>
<!-- Node4&#45;&gt;Node81 -->
<g id="edge32" class="edge">
<title>Node4&#45;&gt;Node81</title>
<path fill="none" stroke="#63b8ff" d="M2822.48,-142.98C3063.89,-110.57 3131.59,-151.12 3367,-107 3369.99,-106.44 3373.05,-105.78 3376.11,-105.05"/>
<polygon fill="#63b8ff" stroke="#63b8ff" points="2822.15,-139.5 2812.72,-144.33 2823.1,-146.43 2822.15,-139.5"/>
</g>
<!-- Node82 -->
<g id="node33" class="node">
<title>Node82</title>
<g id="a_node33"><a xlink:href="d__a__obj__enemy__create_8h.html" target="_top" xlink:title=" ">
<polygon fill="white" stroke="#666666" points="3626.5,-107 3499.5,-107 3499.5,-66 3626.5,-66 3626.5,-107"/>
<text text-anchor="start" x="3507.5" y="-95" font-family="Helvetica,sans-Serif" font-size="10.00">include/rel/d/a/obj</text>
<text text-anchor="start" x="3507.5" y="-84" font-family="Helvetica,sans-Serif" font-size="10.00">/d_a_obj_enemy_create</text>
<text text-anchor="middle" x="3563" y="-73" font-family="Helvetica,sans-Serif" font-size="10.00">/d_a_obj_enemy_create.h</text>
</a>
</g>
</g>
<!-- Node4&#45;&gt;Node82 -->
<g id="edge33" class="edge">
<title>Node4&#45;&gt;Node82</title>
<path fill="none" stroke="#63b8ff" d="M2822.3,-143.02C3118.56,-104.71 3200.15,-153.66 3491,-107 3493.69,-106.57 3496.41,-106.08 3499.16,-105.54"/>
<polygon fill="#63b8ff" stroke="#63b8ff" points="2822.17,-139.51 2812.71,-144.29 2823.09,-146.45 2822.17,-139.51"/>
</g>
<!-- Node83 -->
<g id="node34" class="node">
<title>Node83</title>
<g id="a_node34"><a xlink:href="d__a__obj__kjgjs_8h.html" target="_top" xlink:title=" ">
<polygon fill="white" stroke="#666666" points="3761,-107 3645,-107 3645,-66 3761,-66 3761,-107"/>
<text text-anchor="start" x="3653" y="-95" font-family="Helvetica,sans-Serif" font-size="10.00">include/rel/d/a/obj</text>
<text text-anchor="start" x="3653" y="-84" font-family="Helvetica,sans-Serif" font-size="10.00">/d_a_obj_kjgjs/d_a_obj</text>
<text text-anchor="middle" x="3703" y="-73" font-family="Helvetica,sans-Serif" font-size="10.00">_kjgjs.h</text>
</a>
</g>
</g>
<!-- Node4&#45;&gt;Node83 -->
<g id="edge34" class="edge">
<title>Node4&#45;&gt;Node83</title>
<path fill="none" stroke="#63b8ff" d="M2822.49,-143.02C3182.63,-98.08 3281.94,-165.48 3636,-107 3638.87,-106.53 3641.79,-105.97 3644.72,-105.35"/>
<polygon fill="#63b8ff" stroke="#63b8ff" points="2822.19,-139.53 2812.71,-144.26 2823.07,-146.47 2822.19,-139.53"/>
</g>
<!-- Node84 -->
<g id="node35" class="node">
<title>Node84</title>
<g id="a_node35"><a xlink:href="d__a__obj__mgate_8h.html" target="_top" xlink:title=" ">
<polygon fill="white" stroke="#666666" points="3901,-107 3779,-107 3779,-66 3901,-66 3901,-107"/>
<text text-anchor="start" x="3787" y="-95" font-family="Helvetica,sans-Serif" font-size="10.00">include/rel/d/a/obj</text>
<text text-anchor="start" x="3787" y="-84" font-family="Helvetica,sans-Serif" font-size="10.00">/d_a_obj_mgate/d_a_obj</text>
<text text-anchor="middle" x="3840" y="-73" font-family="Helvetica,sans-Serif" font-size="10.00">_mgate.h</text>
</a>
</g>
</g>
<!-- Node4&#45;&gt;Node84 -->
<g id="edge35" class="edge">
<title>Node4&#45;&gt;Node84</title>
<path fill="none" stroke="#63b8ff" d="M2822.43,-143.03C3241.8,-91.79 3356.63,-171.51 3770,-107 3772.87,-106.55 3775.78,-106.03 3778.72,-105.44"/>
<polygon fill="#63b8ff" stroke="#63b8ff" points="2822.2,-139.53 2812.71,-144.24 2823.06,-146.48 2822.2,-139.53"/>
</g>
<!-- Node85 -->
<g id="node36" class="node">
<title>Node85</title>
<g id="a_node36"><a xlink:href="d__a__obj__onsen_8h.html" target="_top" xlink:title=" ">
<polygon fill="white" stroke="#666666" points="4041,-107 3919,-107 3919,-66 4041,-66 4041,-107"/>
<text text-anchor="start" x="3927" y="-95" font-family="Helvetica,sans-Serif" font-size="10.00">include/rel/d/a/obj</text>
<text text-anchor="start" x="3927" y="-84" font-family="Helvetica,sans-Serif" font-size="10.00">/d_a_obj_onsen/d_a_obj</text>
<text text-anchor="middle" x="3980" y="-73" font-family="Helvetica,sans-Serif" font-size="10.00">_onsen.h</text>
</a>
</g>
</g>
<!-- Node4&#45;&gt;Node85 -->
<g id="edge36" class="edge">
<title>Node4&#45;&gt;Node85</title>
<path fill="none" stroke="#63b8ff" d="M2822.63,-143.01C3303.68,-85.28 3435.09,-179.93 3910,-107 3912.87,-106.56 3915.79,-106.04 3918.72,-105.46"/>
<polygon fill="#63b8ff" stroke="#63b8ff" points="2822.21,-139.54 2812.71,-144.22 2823.06,-146.49 2822.21,-139.54"/>
</g>
<!-- Node86 -->
<g id="node37" class="node">
<title>Node86</title>
<g id="a_node37"><a xlink:href="d__a__obj__onsenFire_8h.html" target="_top" xlink:title=" ">
<polygon fill="white" stroke="#666666" points="4169,-107 4059,-107 4059,-66 4169,-66 4169,-107"/>
<text text-anchor="start" x="4067" y="-95" font-family="Helvetica,sans-Serif" font-size="10.00">include/rel/d/a/obj</text>
<text text-anchor="start" x="4067" y="-84" font-family="Helvetica,sans-Serif" font-size="10.00">/d_a_obj_onsenFire/d</text>
<text text-anchor="middle" x="4114" y="-73" font-family="Helvetica,sans-Serif" font-size="10.00">_a_obj_onsenFire.h</text>
</a>
</g>
</g>
<!-- Node4&#45;&gt;Node86 -->
<g id="edge37" class="edge">
<title>Node4&#45;&gt;Node86</title>
<path fill="none" stroke="#63b8ff" d="M2822.47,-143.04C3365.51,-78.8 3514.43,-194.81 4050,-107 4052.87,-106.53 4055.78,-105.97 4058.71,-105.33"/>
<polygon fill="#63b8ff" stroke="#63b8ff" points="2822.22,-139.55 2812.7,-144.21 2823.05,-146.5 2822.22,-139.55"/>
</g>
<!-- Node87 -->
<g id="node38" class="node">
<title>Node87</title>
<g id="a_node38"><a xlink:href="d__a__obj__prop_8h.html" target="_top" xlink:title=" ">
<polygon fill="white" stroke="#666666" points="4301,-107 4187,-107 4187,-66 4301,-66 4301,-107"/>
<text text-anchor="start" x="4195" y="-95" font-family="Helvetica,sans-Serif" font-size="10.00">include/rel/d/a/obj</text>
<text text-anchor="start" x="4195" y="-84" font-family="Helvetica,sans-Serif" font-size="10.00">/d_a_obj_prop/d_a_obj</text>
<text text-anchor="middle" x="4244" y="-73" font-family="Helvetica,sans-Serif" font-size="10.00">_prop.h</text>
</a>
</g>
</g>
<!-- Node4&#45;&gt;Node87 -->
<g id="edge38" class="edge">
<title>Node4&#45;&gt;Node87</title>
<path fill="none" stroke="#63b8ff" d="M2822.3,-143.06C3422.03,-72.75 3585.73,-200.7 4178,-107 4180.83,-106.55 4183.71,-106.02 4186.61,-105.41"/>
<polygon fill="#63b8ff" stroke="#63b8ff" points="2822.22,-139.55 2812.7,-144.2 2823.05,-146.5 2822.22,-139.55"/>
</g>
<!-- Node88 -->
<g id="node39" class="node">
<title>Node88</title>
<g id="a_node39"><a xlink:href="d__a__obj__rcircle_8h.html" target="_top" xlink:title=" ">
<polygon fill="white" stroke="#666666" points="4423,-107 4319,-107 4319,-66 4423,-66 4423,-107"/>
<text text-anchor="start" x="4327" y="-95" font-family="Helvetica,sans-Serif" font-size="10.00">include/rel/d/a/obj</text>
<text text-anchor="start" x="4327" y="-84" font-family="Helvetica,sans-Serif" font-size="10.00">/d_a_obj_rcircle/d_a</text>
<text text-anchor="middle" x="4371" y="-73" font-family="Helvetica,sans-Serif" font-size="10.00">_obj_rcircle.h</text>
</a>
</g>
</g>
<!-- Node4&#45;&gt;Node88 -->
<g id="edge39" class="edge">
<title>Node4&#45;&gt;Node88</title>
<path fill="none" stroke="#63b8ff" d="M2822.53,-143.08C3167.94,-105.24 3987.19,-161.35 4310,-107 4312.85,-106.52 4315.75,-105.94 4318.66,-105.28"/>
<polygon fill="#63b8ff" stroke="#63b8ff" points="2822.24,-139.59 2812.7,-144.2 2823.04,-146.54 2822.24,-139.59"/>
</g>
<!-- Node89 -->
<g id="node40" class="node">
<title>Node89</title>
<g id="a_node40"><a xlink:href="d__a__obj__smoke_8h.html" target="_top" xlink:title=" ">
<polygon fill="white" stroke="#666666" points="4566.5,-107 4441.5,-107 4441.5,-66 4566.5,-66 4566.5,-107"/>
<text text-anchor="start" x="4449.5" y="-95" font-family="Helvetica,sans-Serif" font-size="10.00">include/rel/d/a/obj</text>
<text text-anchor="start" x="4449.5" y="-84" font-family="Helvetica,sans-Serif" font-size="10.00">/d_a_obj_smoke/d_a_obj</text>
<text text-anchor="middle" x="4504" y="-73" font-family="Helvetica,sans-Serif" font-size="10.00">_smoke.h</text>
</a>
</g>
</g>
<!-- Node4&#45;&gt;Node89 -->
<g id="edge40" class="edge">
<title>Node4&#45;&gt;Node89</title>
<path fill="none" stroke="#63b8ff" d="M2822.61,-143.07C3195.05,-102.27 4081.22,-157.65 4432,-107 4435.08,-106.56 4438.21,-106.02 4441.36,-105.42"/>
<polygon fill="#63b8ff" stroke="#63b8ff" points="2822.24,-139.59 2812.7,-144.19 2823.03,-146.54 2822.24,-139.59"/>
</g>
<!-- Node90 -->
<g id="node41" class="node">
<title>Node90</title>
<g id="a_node41"><a xlink:href="d__a__obj__stone_8h.html" target="_top" xlink:title=" ">
<polygon fill="white" stroke="#666666" points="4703.5,-107 4584.5,-107 4584.5,-66 4703.5,-66 4703.5,-107"/>
<text text-anchor="start" x="4592.5" y="-95" font-family="Helvetica,sans-Serif" font-size="10.00">include/rel/d/a/obj</text>
<text text-anchor="start" x="4592.5" y="-84" font-family="Helvetica,sans-Serif" font-size="10.00">/d_a_obj_stone/d_a_obj</text>
<text text-anchor="middle" x="4644" y="-73" font-family="Helvetica,sans-Serif" font-size="10.00">_stone.h</text>
</a>
</g>
</g>
<!-- Node4&#45;&gt;Node90 -->
<g id="edge41" class="edge">
<title>Node4&#45;&gt;Node90</title>
<path fill="none" stroke="#63b8ff" d="M2822.4,-143.09C3226.61,-98.97 4193.87,-164.71 4576,-107 4578.67,-106.6 4581.39,-106.12 4584.12,-105.58"/>
<polygon fill="#63b8ff" stroke="#63b8ff" points="2822.24,-139.59 2812.7,-144.19 2823.03,-146.54 2822.24,-139.59"/>
</g>
<!-- Node91 -->
<g id="node42" class="node">
<title>Node91</title>
<g id="a_node42"><a xlink:href="d__a__obj__stoneMark_8h.html" target="_top" xlink:title=" ">
<polygon fill="white" stroke="#666666" points="4834.5,-107 4721.5,-107 4721.5,-66 4834.5,-66 4834.5,-107"/>
<text text-anchor="start" x="4729.5" y="-95" font-family="Helvetica,sans-Serif" font-size="10.00">include/rel/d/a/obj</text>
<text text-anchor="start" x="4729.5" y="-84" font-family="Helvetica,sans-Serif" font-size="10.00">/d_a_obj_stoneMark/d</text>
<text text-anchor="middle" x="4778" y="-73" font-family="Helvetica,sans-Serif" font-size="10.00">_a_obj_stoneMark.h</text>
</a>
</g>
</g>
<!-- Node4&#45;&gt;Node91 -->
<g id="edge42" class="edge">
<title>Node4&#45;&gt;Node91</title>
<path fill="none" stroke="#63b8ff" d="M2822.62,-143.07C3257.28,-95.85 4301.19,-171.45 4713,-107 4715.68,-106.58 4718.4,-106.08 4721.13,-105.51"/>
<polygon fill="#63b8ff" stroke="#63b8ff" points="2822.25,-139.59 2812.7,-144.18 2823.03,-146.54 2822.25,-139.59"/>
</g>
<!-- Node92 -->
<g id="node43" class="node">
<title>Node92</title>
<g id="a_node43"><a xlink:href="d__a__obj__tmoon_8h.html" target="_top" xlink:title=" ">
<polygon fill="white" stroke="#666666" points="4975,-107 4853,-107 4853,-66 4975,-66 4975,-107"/>
<text text-anchor="start" x="4861" y="-95" font-family="Helvetica,sans-Serif" font-size="10.00">include/rel/d/a/obj</text>
<text text-anchor="start" x="4861" y="-84" font-family="Helvetica,sans-Serif" font-size="10.00">/d_a_obj_tmoon/d_a_obj</text>
<text text-anchor="middle" x="4914" y="-73" font-family="Helvetica,sans-Serif" font-size="10.00">_tmoon.h</text>
</a>
</g>
</g>
<!-- Node4&#45;&gt;Node92 -->
<g id="edge43" class="edge">
<title>Node4&#45;&gt;Node92</title>
<path fill="none" stroke="#63b8ff" d="M2822.36,-143.09C3285.84,-92.71 4402.66,-171.33 4844,-107 4846.87,-106.58 4849.79,-106.08 4852.73,-105.52"/>
<polygon fill="#63b8ff" stroke="#63b8ff" points="2822.25,-139.59 2812.7,-144.18 2823.03,-146.54 2822.25,-139.59"/>
</g>
<!-- Node93 -->
<g id="node44" class="node">
<title>Node93</title>
<g id="a_node44"><a xlink:href="d__a__obj__vground_8h.html" target="_top" xlink:title=" ">
<polygon fill="white" stroke="#666666" points="5105,-107 4993,-107 4993,-66 5105,-66 5105,-107"/>
<text text-anchor="start" x="5001" y="-95" font-family="Helvetica,sans-Serif" font-size="10.00">include/rel/d/a/obj</text>
<text text-anchor="start" x="5001" y="-84" font-family="Helvetica,sans-Serif" font-size="10.00">/d_a_obj_vground/d_a</text>
<text text-anchor="middle" x="5049" y="-73" font-family="Helvetica,sans-Serif" font-size="10.00">_obj_vground.h</text>
</a>
</g>
</g>
<!-- Node4&#45;&gt;Node93 -->
<g id="edge44" class="edge">
<title>Node4&#45;&gt;Node93</title>
<path fill="none" stroke="#63b8ff" d="M2822.39,-143.09C3316.87,-89.52 4512.55,-180.21 4984,-107 4986.91,-106.55 4989.87,-106 4992.85,-105.37"/>
<polygon fill="#63b8ff" stroke="#63b8ff" points="2822.25,-139.59 2812.7,-144.18 2823.03,-146.54 2822.25,-139.59"/>
</g>
<!-- Node94 -->
<g id="node45" class="node">
<title>Node94</title>
<g id="a_node45"><a xlink:href="d__a__obj__web0_8h.html" target="_top" xlink:title=" ">
<polygon fill="white" stroke="#666666" points="5242.5,-107 5123.5,-107 5123.5,-66 5242.5,-66 5242.5,-107"/>
<text text-anchor="start" x="5131.5" y="-95" font-family="Helvetica,sans-Serif" font-size="10.00">include/rel/d/a/obj</text>
<text text-anchor="start" x="5131.5" y="-84" font-family="Helvetica,sans-Serif" font-size="10.00">/d_a_obj_web0/d_a_obj</text>
<text text-anchor="middle" x="5183" y="-73" font-family="Helvetica,sans-Serif" font-size="10.00">_web0.h</text>
</a>
</g>
</g>
<!-- Node4&#45;&gt;Node94 -->
<g id="edge45" class="edge">
<title>Node4&#45;&gt;Node94</title>
<path fill="none" stroke="#63b8ff" d="M2822.27,-143.1C3345.44,-86.42 4613.34,-180.4 5114,-107 5117.08,-106.55 5120.21,-106 5123.37,-105.38"/>
<polygon fill="#63b8ff" stroke="#63b8ff" points="2822.25,-139.59 2812.7,-144.17 2823.03,-146.54 2822.25,-139.59"/>
</g>
<!-- Node4&#45;&gt;Node136 -->
<g id="edge46" class="edge">
<title>Node4&#45;&gt;Node136</title>
<path fill="none" stroke="#63b8ff" d="M2822.41,-143.09C3436.78,-76.81 4934.72,-192.96 5526,-107 5540.66,-104.87 5556.6,-100.51 5569.46,-96.45"/>
<polygon fill="#63b8ff" stroke="#63b8ff" points="2822.25,-139.59 2812.7,-144.16 2823.02,-146.54 2822.25,-139.59"/>
</g>
<!-- Node4&#45;&gt;Node137 -->
<g id="edge47" class="edge">
<title>Node4&#45;&gt;Node137</title>
<path fill="none" stroke="#63b8ff" d="M2689.51,-142.92C2105,-78.97 678.25,-193.54 116,-107 102.14,-104.87 87.12,-100.5 75.02,-96.44"/>
<polygon fill="#63b8ff" stroke="#63b8ff" points="2688.78,-146.36 2699.11,-144 2689.56,-139.4 2688.78,-146.36"/>
</g>
<!-- Node32&#45;&gt;Node14 -->
<g id="edge11" class="edge">
<title>Node32&#45;&gt;Node14</title>
<path fill="none" stroke="#63b8ff" d="M559.71,-73.23C551.87,-70.81 543.68,-68.3 536,-66 495.19,-53.75 448.8,-40.3 414.49,-30.43"/>
<polygon fill="#63b8ff" stroke="#63b8ff" points="558.46,-76.5 569.05,-76.11 560.53,-69.81 558.46,-76.5"/>
</g>
</g>
</svg>
