<?xml version="1.0" encoding="UTF-8" standalone="no"?>
<!DOCTYPE svg PUBLIC "-//W3C//DTD SVG 1.1//EN"
 "http://www.w3.org/Graphics/SVG/1.1/DTD/svg11.dtd">
<!-- Generated by graphviz version 7.0.5 (20221223.1930)
 -->
<!-- Title: include/d/d_camera.h Pages: 1 -->
<svg width="5786pt" height="302pt"
 viewBox="0.00 0.00 5785.50 302.00" xmlns="http://www.w3.org/2000/svg" xmlns:xlink="http://www.w3.org/1999/xlink">
<g id="graph0" class="graph" transform="scale(1 1) rotate(0) translate(4 298)">
<title>include/d/d_camera.h</title>
<!-- Node1 -->
<g id="node1" class="node">
<title>Node1</title>
<g id="a_node1"><a xlink:title=" ">
<polygon fill="#999999" stroke="#666666" points="4508,-294 4399,-294 4399,-275 4508,-275 4508,-294"/>
<text text-anchor="middle" x="4453.5" y="-282" font-family="Helvetica,sans-Serif" font-size="10.00">include/d/d_camera.h</text>
</a>
</g>
</g>
<!-- Node2 -->
<g id="node2" class="node">
<title>Node2</title>
<g id="a_node2"><a xlink:href="f__op__camera__mng_8h.html" target="_top" xlink:title=" ">
<polygon fill="white" stroke="#666666" points="4408.5,-239 4280.5,-239 4280.5,-209 4408.5,-209 4408.5,-239"/>
<text text-anchor="start" x="4288.5" y="-227" font-family="Helvetica,sans-Serif" font-size="10.00">include/f_op/f_op_camera</text>
<text text-anchor="middle" x="4344.5" y="-216" font-family="Helvetica,sans-Serif" font-size="10.00">_mng.h</text>
</a>
</g>
</g>
<!-- Node1&#45;&gt;Node2 -->
<g id="edge1" class="edge">
<title>Node1&#45;&gt;Node2</title>
<path fill="none" stroke="#63b8ff" d="M4427.16,-269.36C4410.27,-260.3 4388.4,-248.56 4371.4,-239.44"/>
<polygon fill="#63b8ff" stroke="#63b8ff" points="4425.15,-272.25 4435.61,-273.9 4428.46,-266.09 4425.15,-272.25"/>
</g>
<!-- Node136 -->
<g id="node47" class="node">
<title>Node136</title>
<g id="a_node47"><a xlink:href="d__camera_8cpp.html" target="_top" xlink:title=" ">
<polygon fill="white" stroke="#666666" points="5777.5,-96 5675.5,-96 5675.5,-77 5777.5,-77 5777.5,-96"/>
<text text-anchor="middle" x="5726.5" y="-84" font-family="Helvetica,sans-Serif" font-size="10.00">src/d/d_camera.cpp</text>
</a>
</g>
</g>
<!-- Node1&#45;&gt;Node136 -->
<g id="edge51" class="edge">
<title>Node1&#45;&gt;Node136</title>
<path fill="none" stroke="#63b8ff" d="M4519.55,-277.86C4703.27,-261.34 5235.12,-207.72 5666.5,-107 5678.45,-104.21 5691.42,-100.13 5702.24,-96.42"/>
<polygon fill="#63b8ff" stroke="#63b8ff" points="4519.38,-274.37 4509.73,-278.74 4520,-281.34 4519.38,-274.37"/>
</g>
<!-- Node3 -->
<g id="node3" class="node">
<title>Node3</title>
<g id="a_node3"><a xlink:href="d__com__inf__game_8h.html" target="_top" xlink:title=" ">
<polygon fill="#fff0f0" stroke="red" points="2965.5,-173 2855.5,-173 2855.5,-143 2965.5,-143 2965.5,-173"/>
<text text-anchor="start" x="2863.5" y="-161" font-family="Helvetica,sans-Serif" font-size="10.00">include/d/com/d_com</text>
<text text-anchor="middle" x="2910.5" y="-150" font-family="Helvetica,sans-Serif" font-size="10.00">_inf_game.h</text>
</a>
</g>
</g>
<!-- Node2&#45;&gt;Node3 -->
<g id="edge2" class="edge">
<title>Node2&#45;&gt;Node3</title>
<path fill="none" stroke="#63b8ff" d="M4268.73,-219.62C4013.27,-208.22 3187.25,-171.35 2965.64,-161.46"/>
<polygon fill="#63b8ff" stroke="#63b8ff" points="4268.44,-223.11 4278.59,-220.06 4268.75,-216.12 4268.44,-223.11"/>
</g>
<!-- Node191 -->
<g id="node48" class="node">
<title>Node191</title>
<g id="a_node48"><a xlink:href="d__s__name_8h.html" target="_top" xlink:title=" ">
<polygon fill="#fff0f0" stroke="red" points="4266,-167.5 4147,-167.5 4147,-148.5 4266,-148.5 4266,-167.5"/>
<text text-anchor="middle" x="4206.5" y="-155.5" font-family="Helvetica,sans-Serif" font-size="10.00">include/d/s/d_s_name.h</text>
</a>
</g>
</g>
<!-- Node2&#45;&gt;Node191 -->
<g id="edge48" class="edge">
<title>Node2&#45;&gt;Node191</title>
<path fill="none" stroke="#63b8ff" d="M4303.33,-203.91C4277.68,-192.01 4245.87,-177.26 4225.88,-167.99"/>
<polygon fill="#63b8ff" stroke="#63b8ff" points="4301.61,-206.97 4312.16,-208 4304.56,-200.62 4301.61,-206.97"/>
</g>
<!-- Node192 -->
<g id="node49" class="node">
<title>Node192</title>
<g id="a_node49"><a xlink:href="f__ap__game_8cpp.html" target="_top" xlink:title=" ">
<polygon fill="white" stroke="#666666" points="4405,-167.5 4284,-167.5 4284,-148.5 4405,-148.5 4405,-167.5"/>
<text text-anchor="middle" x="4344.5" y="-155.5" font-family="Helvetica,sans-Serif" font-size="10.00">src/f_ap/f_ap_game.cpp</text>
</a>
</g>
</g>
<!-- Node2&#45;&gt;Node192 -->
<g id="edge49" class="edge">
<title>Node2&#45;&gt;Node192</title>
<path fill="none" stroke="#63b8ff" d="M4344.5,-197.59C4344.5,-187.06 4344.5,-175.53 4344.5,-167.84"/>
<polygon fill="#63b8ff" stroke="#63b8ff" points="4341,-197.28 4344.5,-207.28 4348,-197.28 4341,-197.28"/>
</g>
<!-- Node193 -->
<g id="node50" class="node">
<title>Node193</title>
<g id="a_node50"><a xlink:href="f__op__camera__mng_8cpp.html" target="_top" xlink:title=" ">
<polygon fill="white" stroke="#666666" points="4534,-173 4423,-173 4423,-143 4534,-143 4534,-173"/>
<text text-anchor="start" x="4431" y="-161" font-family="Helvetica,sans-Serif" font-size="10.00">src/f_op/f_op_camera</text>
<text text-anchor="middle" x="4478.5" y="-150" font-family="Helvetica,sans-Serif" font-size="10.00">_mng.cpp</text>
</a>
</g>
</g>
<!-- Node2&#45;&gt;Node193 -->
<g id="edge50" class="edge">
<title>Node2&#45;&gt;Node193</title>
<path fill="none" stroke="#63b8ff" d="M4384.86,-203.72C4405.33,-193.95 4429.76,-182.28 4448.53,-173.31"/>
<polygon fill="#63b8ff" stroke="#63b8ff" points="4383.45,-200.52 4375.94,-207.98 4386.47,-206.83 4383.45,-200.52"/>
</g>
<!-- Node4 -->
<g id="node4" class="node">
<title>Node4</title>
<g id="a_node4"><a xlink:href="d__a__npc_8h.html" target="_top" xlink:title=" ">
<polygon fill="#fff0f0" stroke="red" points="111,-96 0,-96 0,-77 111,-77 111,-96"/>
<text text-anchor="middle" x="55.5" y="-84" font-family="Helvetica,sans-Serif" font-size="10.00">include/d/a/d_a_npc.h</text>
</a>
</g>
</g>
<!-- Node3&#45;&gt;Node4 -->
<g id="edge3" class="edge">
<title>Node3&#45;&gt;Node4</title>
<path fill="none" stroke="#63b8ff" d="M2843.93,-156.91C2446.6,-156.25 395.98,-150.72 119.5,-107 105.85,-104.84 91.06,-100.48 79.14,-96.42"/>
<polygon fill="#63b8ff" stroke="#63b8ff" points="2843.68,-160.41 2853.69,-156.93 2843.69,-153.41 2843.68,-160.41"/>
</g>
<!-- Node11 -->
<g id="node5" class="node">
<title>Node11</title>
<g id="a_node5"><a xlink:href="d__a__npc__cd_8h.html" target="_top" xlink:title=" ">
<polygon fill="#fff0f0" stroke="red" points="256,-96 129,-96 129,-77 256,-77 256,-96"/>
<text text-anchor="middle" x="192.5" y="-84" font-family="Helvetica,sans-Serif" font-size="10.00">include/d/a/d_a_npc_cd.h</text>
</a>
</g>
</g>
<!-- Node3&#45;&gt;Node11 -->
<g id="edge4" class="edge">
<title>Node3&#45;&gt;Node11</title>
<path fill="none" stroke="#63b8ff" d="M2843.63,-156.64C2458.57,-154.43 532.07,-141.72 270.5,-107 254.03,-104.81 236.02,-100.45 221.46,-96.4"/>
<polygon fill="#63b8ff" stroke="#63b8ff" points="2843.57,-160.14 2853.58,-156.69 2843.61,-153.14 2843.57,-160.14"/>
</g>
<!-- Node13 -->
<g id="node6" class="node">
<title>Node13</title>
<g id="a_node6"><a xlink:href="d__a__npc__cd2_8h.html" target="_top" xlink:title=" ">
<polygon fill="#fff0f0" stroke="red" points="570.5,-30 466.5,-30 466.5,0 570.5,0 570.5,-30"/>
<text text-anchor="start" x="474.5" y="-18" font-family="Helvetica,sans-Serif" font-size="10.00">include/d/a/d_a_npc</text>
<text text-anchor="middle" x="518.5" y="-7" font-family="Helvetica,sans-Serif" font-size="10.00">_cd2.h</text>
</a>
</g>
</g>
<!-- Node3&#45;&gt;Node13 -->
<g id="edge5" class="edge">
<title>Node3&#45;&gt;Node13</title>
<path fill="none" stroke="#63b8ff" d="M2843.88,-157C2441.33,-156.83 349.34,-153.72 303.5,-107 250.92,-53.4 387.02,-29.72 466.26,-20.73"/>
<polygon fill="#63b8ff" stroke="#63b8ff" points="2843.78,-160.5 2853.78,-157 2843.78,-153.5 2843.78,-160.5"/>
</g>
<!-- Node15 -->
<g id="node7" class="node">
<title>Node15</title>
<g id="a_node7"><a xlink:href="d__cc__uty_8h.html" target="_top" xlink:title=" ">
<polygon fill="#fff0f0" stroke="red" points="432,-96 313,-96 313,-77 432,-77 432,-96"/>
<text text-anchor="middle" x="372.5" y="-84" font-family="Helvetica,sans-Serif" font-size="10.00">include/d/cc/d_cc_uty.h</text>
</a>
</g>
</g>
<!-- Node3&#45;&gt;Node15 -->
<g id="edge6" class="edge">
<title>Node3&#45;&gt;Node15</title>
<path fill="none" stroke="#63b8ff" d="M2843.82,-156.68C2474.09,-154.77 683.7,-143.7 440.5,-107 426.05,-104.82 410.34,-100.45 397.66,-96.4"/>
<polygon fill="#63b8ff" stroke="#63b8ff" points="2843.57,-160.18 2853.59,-156.73 2843.6,-153.18 2843.57,-160.18"/>
</g>
<!-- Node26 -->
<g id="node8" class="node">
<title>Node26</title>
<g id="a_node8"><a xlink:href="d__bright__check_8h.html" target="_top" xlink:title=" ">
<polygon fill="#fff0f0" stroke="red" points="543,-101.5 450,-101.5 450,-71.5 543,-71.5 543,-101.5"/>
<text text-anchor="start" x="458" y="-89.5" font-family="Helvetica,sans-Serif" font-size="10.00">include/d/d_bright</text>
<text text-anchor="middle" x="496.5" y="-78.5" font-family="Helvetica,sans-Serif" font-size="10.00">_check.h</text>
</a>
</g>
</g>
<!-- Node3&#45;&gt;Node26 -->
<g id="edge7" class="edge">
<title>Node3&#45;&gt;Node26</title>
<path fill="none" stroke="#63b8ff" d="M2843.68,-156.83C2483.68,-155.75 782.92,-148.49 552.5,-107 546.02,-105.83 539.27,-104.03 532.81,-101.98"/>
<polygon fill="#63b8ff" stroke="#63b8ff" points="2843.65,-160.33 2853.66,-156.86 2843.67,-153.33 2843.65,-160.33"/>
</g>
<!-- Node28 -->
<g id="node9" class="node">
<title>Node28</title>
<g id="a_node9"><a xlink:href="d__error__msg_8h.html" target="_top" xlink:title=" ">
<polygon fill="#fff0f0" stroke="red" points="681.5,-96 561.5,-96 561.5,-77 681.5,-77 681.5,-96"/>
<text text-anchor="middle" x="621.5" y="-84" font-family="Helvetica,sans-Serif" font-size="10.00">include/d/d_error_msg.h</text>
</a>
</g>
</g>
<!-- Node3&#45;&gt;Node28 -->
<g id="edge8" class="edge">
<title>Node3&#45;&gt;Node28</title>
<path fill="none" stroke="#63b8ff" d="M2843.75,-156.5C2496.87,-153.78 907.67,-139.59 690.5,-107 675.97,-104.82 660.18,-100.51 647.37,-96.49"/>
<polygon fill="#63b8ff" stroke="#63b8ff" points="2843.54,-160 2853.57,-156.58 2843.6,-153 2843.54,-160"/>
</g>
<!-- Node31 -->
<g id="node10" class="node">
<title>Node31</title>
<g id="a_node10"><a xlink:href="d__npc__lib_8h.html" target="_top" xlink:title=" ">
<polygon fill="#fff0f0" stroke="red" points="807,-96 700,-96 700,-77 807,-77 807,-96"/>
<text text-anchor="middle" x="753.5" y="-84" font-family="Helvetica,sans-Serif" font-size="10.00">include/d/d_npc_lib.h</text>
</a>
</g>
</g>
<!-- Node3&#45;&gt;Node31 -->
<g id="edge9" class="edge">
<title>Node3&#45;&gt;Node31</title>
<path fill="none" stroke="#63b8ff" d="M2843.8,-156.5C2509.04,-153.86 1020.16,-140.29 816.5,-107 803.17,-104.82 788.74,-100.51 777.06,-96.49"/>
<polygon fill="#63b8ff" stroke="#63b8ff" points="2843.67,-160 2853.7,-156.58 2843.73,-153 2843.67,-160"/>
</g>
<!-- Node33 -->
<g id="node11" class="node">
<title>Node33</title>
<g id="a_node11"><a xlink:href="d__file__select_8h.html" target="_top" xlink:title=" ">
<polygon fill="#fff0f0" stroke="red" points="921.5,-101.5 825.5,-101.5 825.5,-71.5 921.5,-71.5 921.5,-101.5"/>
<text text-anchor="start" x="833.5" y="-89.5" font-family="Helvetica,sans-Serif" font-size="10.00">include/d/file/d_file</text>
<text text-anchor="middle" x="873.5" y="-78.5" font-family="Helvetica,sans-Serif" font-size="10.00">_select.h</text>
</a>
</g>
</g>
<!-- Node3&#45;&gt;Node33 -->
<g id="edge11" class="edge">
<title>Node3&#45;&gt;Node33</title>
<path fill="none" stroke="#63b8ff" d="M2844.01,-156.52C2520.83,-154.03 1121.89,-141.32 930.5,-107 923.91,-105.82 917.05,-104.01 910.48,-101.96"/>
<polygon fill="#63b8ff" stroke="#63b8ff" points="2843.51,-160.02 2853.53,-156.59 2843.56,-153.02 2843.51,-160.02"/>
</g>
<!-- Node35 -->
<g id="node12" class="node">
<title>Node35</title>
<g id="a_node12"><a xlink:href="d__msg__object_8h.html" target="_top" xlink:title=" ">
<polygon fill="#fff0f0" stroke="red" points="1049.5,-101.5 939.5,-101.5 939.5,-71.5 1049.5,-71.5 1049.5,-101.5"/>
<text text-anchor="start" x="947.5" y="-89.5" font-family="Helvetica,sans-Serif" font-size="10.00">include/d/msg/d_msg</text>
<text text-anchor="middle" x="994.5" y="-78.5" font-family="Helvetica,sans-Serif" font-size="10.00">_object.h</text>
</a>
</g>
</g>
<!-- Node3&#45;&gt;Node35 -->
<g id="edge12" class="edge">
<title>Node3&#45;&gt;Node35</title>
<path fill="none" stroke="#63b8ff" d="M2843.9,-156.26C2533.59,-152.68 1237.16,-136.08 1058.5,-107 1051.16,-105.81 1043.49,-103.99 1036.12,-101.94"/>
<polygon fill="#63b8ff" stroke="#63b8ff" points="2843.82,-159.76 2853.86,-156.38 2843.9,-152.76 2843.82,-159.76"/>
</g>
<!-- Node58 -->
<g id="node13" class="node">
<title>Node58</title>
<g id="a_node13"><a xlink:href="d__a__andsw_8h.html" target="_top" xlink:title=" ">
<polygon fill="white" stroke="#666666" points="1177.5,-101.5 1067.5,-101.5 1067.5,-71.5 1177.5,-71.5 1177.5,-101.5"/>
<text text-anchor="start" x="1075.5" y="-89.5" font-family="Helvetica,sans-Serif" font-size="10.00">include/rel/d/a/d_a</text>
<text text-anchor="middle" x="1122.5" y="-78.5" font-family="Helvetica,sans-Serif" font-size="10.00">_andsw/d_a_andsw.h</text>
</a>
</g>
</g>
<!-- Node3&#45;&gt;Node58 -->
<g id="edge13" class="edge">
<title>Node3&#45;&gt;Node58</title>
<path fill="none" stroke="#63b8ff" d="M2844.01,-157.44C2568.33,-158.88 1514.22,-160.69 1186.5,-107 1179.16,-105.8 1171.5,-103.98 1164.12,-101.93"/>
<polygon fill="#63b8ff" stroke="#63b8ff" points="2843.91,-160.94 2853.89,-157.38 2843.87,-153.94 2843.91,-160.94"/>
</g>
<!-- Node59 -->
<g id="node14" class="node">
<title>Node59</title>
<g id="a_node14"><a xlink:href="d__a__cstaF_8h.html" target="_top" xlink:title=" ">
<polygon fill="white" stroke="#666666" points="1299,-101.5 1196,-101.5 1196,-71.5 1299,-71.5 1299,-101.5"/>
<text text-anchor="start" x="1204" y="-89.5" font-family="Helvetica,sans-Serif" font-size="10.00">include/rel/d/a/d_a</text>
<text text-anchor="middle" x="1247.5" y="-78.5" font-family="Helvetica,sans-Serif" font-size="10.00">_cstaF/d_a_cstaF.h</text>
</a>
</g>
</g>
<!-- Node3&#45;&gt;Node59 -->
<g id="edge14" class="edge">
<title>Node3&#45;&gt;Node59</title>
<path fill="none" stroke="#63b8ff" d="M2843.97,-157.38C2580.61,-158.51 1610.81,-158.99 1308.5,-107 1301.49,-105.79 1294.17,-103.97 1287.13,-101.92"/>
<polygon fill="#63b8ff" stroke="#63b8ff" points="2843.74,-160.88 2853.73,-157.34 2843.71,-153.88 2843.74,-160.88"/>
</g>
<!-- Node60 -->
<g id="node15" class="node">
<title>Node60</title>
<g id="a_node15"><a xlink:href="d__a__dmidna_8h.html" target="_top" xlink:title=" ">
<polygon fill="white" stroke="#666666" points="1433.5,-101.5 1317.5,-101.5 1317.5,-71.5 1433.5,-71.5 1433.5,-101.5"/>
<text text-anchor="start" x="1325.5" y="-89.5" font-family="Helvetica,sans-Serif" font-size="10.00">include/rel/d/a/d_a</text>
<text text-anchor="middle" x="1375.5" y="-78.5" font-family="Helvetica,sans-Serif" font-size="10.00">_dmidna/d_a_dmidna.h</text>
</a>
</g>
</g>
<!-- Node3&#45;&gt;Node60 -->
<g id="edge15" class="edge">
<title>Node3&#45;&gt;Node60</title>
<path fill="none" stroke="#63b8ff" d="M2843.89,-156.93C2594.74,-156.33 1717.95,-151.07 1442.5,-107 1434.96,-105.79 1427.08,-104 1419.47,-101.98"/>
<polygon fill="#63b8ff" stroke="#63b8ff" points="2843.75,-160.43 2853.76,-156.95 2843.77,-153.43 2843.75,-160.43"/>
</g>
<!-- Node61 -->
<g id="node16" class="node">
<title>Node61</title>
<g id="a_node16"><a xlink:href="d__a__dshutter_8h.html" target="_top" xlink:title=" ">
<polygon fill="#fff0f0" stroke="red" points="1575.5,-101.5 1451.5,-101.5 1451.5,-71.5 1575.5,-71.5 1575.5,-101.5"/>
<text text-anchor="start" x="1459.5" y="-89.5" font-family="Helvetica,sans-Serif" font-size="10.00">include/rel/d/a/d_a</text>
<text text-anchor="middle" x="1513.5" y="-78.5" font-family="Helvetica,sans-Serif" font-size="10.00">_dshutter/d_a_dshutter.h</text>
</a>
</g>
</g>
<!-- Node3&#45;&gt;Node61 -->
<g id="edge16" class="edge">
<title>Node3&#45;&gt;Node61</title>
<path fill="none" stroke="#63b8ff" d="M2843.84,-156.51C2610.49,-154.5 1831.22,-145.01 1584.5,-107 1576.54,-105.77 1568.2,-103.97 1560.15,-101.95"/>
<polygon fill="#63b8ff" stroke="#63b8ff" points="2843.64,-160.01 2853.67,-156.6 2843.7,-153.01 2843.64,-160.01"/>
</g>
<!-- Node63 -->
<g id="node17" class="node">
<title>Node63</title>
<g id="a_node17"><a xlink:href="d__a__guard__mng_8h.html" target="_top" xlink:title=" ">
<polygon fill="white" stroke="#666666" points="1743,-101.5 1594,-101.5 1594,-71.5 1743,-71.5 1743,-101.5"/>
<text text-anchor="start" x="1602" y="-89.5" font-family="Helvetica,sans-Serif" font-size="10.00">include/rel/d/a/d_a</text>
<text text-anchor="middle" x="1668.5" y="-78.5" font-family="Helvetica,sans-Serif" font-size="10.00">_guard_mng/d_a_guard_mng.h</text>
</a>
</g>
</g>
<!-- Node3&#45;&gt;Node63 -->
<g id="edge17" class="edge">
<title>Node3&#45;&gt;Node63</title>
<path fill="none" stroke="#63b8ff" d="M2843.9,-155.74C2630.56,-151.47 1965.65,-136.09 1752.5,-107 1743.3,-105.74 1733.63,-103.95 1724.26,-101.96"/>
<polygon fill="#63b8ff" stroke="#63b8ff" points="2843.63,-159.24 2853.69,-155.94 2843.77,-152.24 2843.63,-159.24"/>
</g>
<!-- Node64 -->
<g id="node18" class="node">
<title>Node64</title>
<g id="a_node18"><a xlink:href="d__a__hitobj_8h.html" target="_top" xlink:title=" ">
<polygon fill="white" stroke="#666666" points="1861.5,-101.5 1761.5,-101.5 1761.5,-71.5 1861.5,-71.5 1861.5,-101.5"/>
<text text-anchor="start" x="1769.5" y="-89.5" font-family="Helvetica,sans-Serif" font-size="10.00">include/rel/d/a/d_a</text>
<text text-anchor="middle" x="1811.5" y="-78.5" font-family="Helvetica,sans-Serif" font-size="10.00">_hitobj/d_a_hitobj.h</text>
</a>
</g>
</g>
<!-- Node3&#45;&gt;Node64 -->
<g id="edge18" class="edge">
<title>Node3&#45;&gt;Node64</title>
<path fill="none" stroke="#63b8ff" d="M2843.6,-156.15C2644.54,-153.24 2058.26,-141.87 1870.5,-107 1863.82,-105.76 1856.85,-103.95 1850.15,-101.92"/>
<polygon fill="#63b8ff" stroke="#63b8ff" points="2843.46,-159.65 2853.51,-156.29 2843.56,-152.65 2843.46,-159.65"/>
</g>
<!-- Node65 -->
<g id="node19" class="node">
<title>Node65</title>
<g id="a_node19"><a xlink:href="d__a__izumi__gate_8h.html" target="_top" xlink:title=" ">
<polygon fill="white" stroke="#666666" points="1995,-107 1880,-107 1880,-66 1995,-66 1995,-107"/>
<text text-anchor="start" x="1888" y="-95" font-family="Helvetica,sans-Serif" font-size="10.00">include/rel/d/a/d_a</text>
<text text-anchor="start" x="1888" y="-84" font-family="Helvetica,sans-Serif" font-size="10.00">_izumi_gate/d_a_izumi</text>
<text text-anchor="middle" x="1937.5" y="-73" font-family="Helvetica,sans-Serif" font-size="10.00">_gate.h</text>
</a>
</g>
</g>
<!-- Node3&#45;&gt;Node65 -->
<g id="edge19" class="edge">
<title>Node3&#45;&gt;Node65</title>
<path fill="none" stroke="#63b8ff" d="M2843.67,-155.33C2662.55,-150.47 2165.06,-134.93 2003.5,-107 2000.79,-106.53 1998.04,-105.99 1995.27,-105.39"/>
<polygon fill="#63b8ff" stroke="#63b8ff" points="2843.53,-158.83 2853.62,-155.59 2843.72,-151.83 2843.53,-158.83"/>
</g>
<!-- Node66 -->
<g id="node20" class="node">
<title>Node66</title>
<g id="a_node20"><a xlink:href="d__a__set__bgobj_8h.html" target="_top" xlink:title=" ">
<polygon fill="#fff0f0" stroke="red" points="2150,-101.5 2013,-101.5 2013,-71.5 2150,-71.5 2150,-101.5"/>
<text text-anchor="start" x="2021" y="-89.5" font-family="Helvetica,sans-Serif" font-size="10.00">include/rel/d/a/d_a</text>
<text text-anchor="middle" x="2081.5" y="-78.5" font-family="Helvetica,sans-Serif" font-size="10.00">_set_bgobj/d_a_set_bgobj.h</text>
</a>
</g>
</g>
<!-- Node3&#45;&gt;Node66 -->
<g id="edge20" class="edge">
<title>Node3&#45;&gt;Node66</title>
<path fill="none" stroke="#63b8ff" d="M2843.55,-156.54C2711.77,-154.75 2409.8,-146.3 2159.5,-107 2151.09,-105.68 2142.26,-103.88 2133.68,-101.91"/>
<polygon fill="#63b8ff" stroke="#63b8ff" points="2843.45,-160.04 2853.49,-156.66 2843.54,-153.04 2843.45,-160.04"/>
</g>
<!-- Node67 -->
<g id="node21" class="node">
<title>Node67</title>
<g id="a_node21"><a xlink:href="d__a__skip__2D_8h.html" target="_top" xlink:title=" ">
<polygon fill="white" stroke="#666666" points="2292.5,-101.5 2168.5,-101.5 2168.5,-71.5 2292.5,-71.5 2292.5,-101.5"/>
<text text-anchor="start" x="2176.5" y="-89.5" font-family="Helvetica,sans-Serif" font-size="10.00">include/rel/d/a/d_a</text>
<text text-anchor="middle" x="2230.5" y="-78.5" font-family="Helvetica,sans-Serif" font-size="10.00">_skip_2D/d_a_skip_2D.h</text>
</a>
</g>
</g>
<!-- Node3&#45;&gt;Node67 -->
<g id="edge21" class="edge">
<title>Node3&#45;&gt;Node67</title>
<path fill="none" stroke="#63b8ff" d="M2843.56,-155.57C2730.87,-152.25 2496.48,-141.47 2301.5,-107 2293.95,-105.66 2286.03,-103.88 2278.35,-101.94"/>
<polygon fill="#63b8ff" stroke="#63b8ff" points="2843.45,-159.07 2853.54,-155.85 2843.65,-152.07 2843.45,-159.07"/>
</g>
<!-- Node68 -->
<g id="node22" class="node">
<title>Node68</title>
<g id="a_node22"><a xlink:href="d__a__spinner_8h.html" target="_top" xlink:title=" ">
<polygon fill="#fff0f0" stroke="red" points="2426.5,-101.5 2310.5,-101.5 2310.5,-71.5 2426.5,-71.5 2426.5,-101.5"/>
<text text-anchor="start" x="2318.5" y="-89.5" font-family="Helvetica,sans-Serif" font-size="10.00">include/rel/d/a/d_a</text>
<text text-anchor="middle" x="2368.5" y="-78.5" font-family="Helvetica,sans-Serif" font-size="10.00">_spinner/d_a_spinner.h</text>
</a>
</g>
</g>
<!-- Node3&#45;&gt;Node68 -->
<g id="edge22" class="edge">
<title>Node3&#45;&gt;Node68</title>
<path fill="none" stroke="#63b8ff" d="M2843.75,-153.73C2751.32,-148.36 2579.46,-135.29 2435.5,-107 2428.49,-105.62 2421.15,-103.84 2414,-101.92"/>
<polygon fill="#63b8ff" stroke="#63b8ff" points="2843.48,-157.22 2853.66,-154.3 2843.87,-150.23 2843.48,-157.22"/>
</g>
<!-- Node71 -->
<g id="node23" class="node">
<title>Node71</title>
<g id="a_node23"><a xlink:href="d__a__swTime_8h.html" target="_top" xlink:title=" ">
<polygon fill="white" stroke="#666666" points="2566.5,-101.5 2444.5,-101.5 2444.5,-71.5 2566.5,-71.5 2566.5,-101.5"/>
<text text-anchor="start" x="2452.5" y="-89.5" font-family="Helvetica,sans-Serif" font-size="10.00">include/rel/d/a/d_a</text>
<text text-anchor="middle" x="2505.5" y="-78.5" font-family="Helvetica,sans-Serif" font-size="10.00">_swTime/d_a_swTime.h</text>
</a>
</g>
</g>
<!-- Node3&#45;&gt;Node71 -->
<g id="edge23" class="edge">
<title>Node3&#45;&gt;Node71</title>
<path fill="none" stroke="#63b8ff" d="M2843.92,-149.52C2776,-141.32 2667.79,-126.66 2575.5,-107 2568.59,-105.53 2561.35,-103.77 2554.26,-101.91"/>
<polygon fill="#63b8ff" stroke="#63b8ff" points="2843.44,-152.99 2853.79,-150.7 2844.27,-146.04 2843.44,-152.99"/>
</g>
<!-- Node72 -->
<g id="node24" class="node">
<title>Node72</title>
<g id="a_node24"><a xlink:href="d__a__vrbox_8h.html" target="_top" xlink:title=" ">
<polygon fill="white" stroke="#666666" points="2684.5,-101.5 2584.5,-101.5 2584.5,-71.5 2684.5,-71.5 2684.5,-101.5"/>
<text text-anchor="start" x="2592.5" y="-89.5" font-family="Helvetica,sans-Serif" font-size="10.00">include/rel/d/a/d_a</text>
<text text-anchor="middle" x="2634.5" y="-78.5" font-family="Helvetica,sans-Serif" font-size="10.00">_vrbox/d_a_vrbox.h</text>
</a>
</g>
</g>
<!-- Node3&#45;&gt;Node72 -->
<g id="edge24" class="edge">
<title>Node3&#45;&gt;Node72</title>
<path fill="none" stroke="#63b8ff" d="M2844.08,-143.37C2800.92,-134.1 2743.57,-121.01 2693.5,-107 2687.99,-105.46 2682.24,-103.72 2676.57,-101.93"/>
<polygon fill="#63b8ff" stroke="#63b8ff" points="2843.31,-146.78 2853.82,-145.44 2844.77,-139.93 2843.31,-146.78"/>
</g>
<!-- Node73 -->
<g id="node25" class="node">
<title>Node73</title>
<g id="a_node25"><a xlink:href="d__a__e__db__leaf_8h.html" target="_top" xlink:title=" ">
<polygon fill="white" stroke="#666666" points="2822,-107 2703,-107 2703,-66 2822,-66 2822,-107"/>
<text text-anchor="start" x="2711" y="-95" font-family="Helvetica,sans-Serif" font-size="10.00">include/rel/d/a/e/d</text>
<text text-anchor="start" x="2711" y="-84" font-family="Helvetica,sans-Serif" font-size="10.00">_a_e_db_leaf/d_a_e_db</text>
<text text-anchor="middle" x="2762.5" y="-73" font-family="Helvetica,sans-Serif" font-size="10.00">_leaf.h</text>
</a>
</g>
</g>
<!-- Node3&#45;&gt;Node73 -->
<g id="edge25" class="edge">
<title>Node3&#45;&gt;Node73</title>
<path fill="none" stroke="#63b8ff" d="M2869.44,-137.72C2849.35,-128.28 2825.18,-116.94 2804.91,-107.42"/>
<polygon fill="#63b8ff" stroke="#63b8ff" points="2867.92,-140.87 2878.46,-141.96 2870.9,-134.54 2867.92,-140.87"/>
</g>
<!-- Node74 -->
<g id="node26" class="node">
<title>Node74</title>
<g id="a_node26"><a xlink:href="d__a__kytag02_8h.html" target="_top" xlink:title=" ">
<polygon fill="white" stroke="#666666" points="2980.5,-101.5 2840.5,-101.5 2840.5,-71.5 2980.5,-71.5 2980.5,-101.5"/>
<text text-anchor="start" x="2848.5" y="-89.5" font-family="Helvetica,sans-Serif" font-size="10.00">include/rel/d/a/kytag</text>
<text text-anchor="middle" x="2910.5" y="-78.5" font-family="Helvetica,sans-Serif" font-size="10.00">/d_a_kytag02/d_a_kytag02.h</text>
</a>
</g>
</g>
<!-- Node3&#45;&gt;Node74 -->
<g id="edge26" class="edge">
<title>Node3&#45;&gt;Node74</title>
<path fill="none" stroke="#63b8ff" d="M2910.5,-131.26C2910.5,-121.33 2910.5,-110.36 2910.5,-101.88"/>
<polygon fill="#63b8ff" stroke="#63b8ff" points="2907,-131.09 2910.5,-141.09 2914,-131.09 2907,-131.09"/>
</g>
<!-- Node75 -->
<g id="node27" class="node">
<title>Node75</title>
<g id="a_node27"><a xlink:href="d__a__obj__bombf_8h.html" target="_top" xlink:title=" ">
<polygon fill="white" stroke="#666666" points="3120.5,-107 2998.5,-107 2998.5,-66 3120.5,-66 3120.5,-107"/>
<text text-anchor="start" x="3006.5" y="-95" font-family="Helvetica,sans-Serif" font-size="10.00">include/rel/d/a/obj</text>
<text text-anchor="start" x="3006.5" y="-84" font-family="Helvetica,sans-Serif" font-size="10.00">/d_a_obj_bombf/d_a_obj</text>
<text text-anchor="middle" x="3059.5" y="-73" font-family="Helvetica,sans-Serif" font-size="10.00">_bombf.h</text>
</a>
</g>
</g>
<!-- Node3&#45;&gt;Node75 -->
<g id="edge27" class="edge">
<title>Node3&#45;&gt;Node75</title>
<path fill="none" stroke="#63b8ff" d="M2951.56,-137.85C2971.84,-128.39 2996.3,-116.98 3016.8,-107.42"/>
<polygon fill="#63b8ff" stroke="#63b8ff" points="2950.33,-134.56 2942.74,-141.96 2953.29,-140.9 2950.33,-134.56"/>
</g>
<!-- Node76 -->
<g id="node28" class="node">
<title>Node76</title>
<g id="a_node28"><a xlink:href="d__a__obj__carry_8h.html" target="_top" xlink:title=" ">
<polygon fill="#fff0f0" stroke="red" points="3254.5,-107 3138.5,-107 3138.5,-66 3254.5,-66 3254.5,-107"/>
<text text-anchor="start" x="3146.5" y="-95" font-family="Helvetica,sans-Serif" font-size="10.00">include/rel/d/a/obj</text>
<text text-anchor="start" x="3146.5" y="-84" font-family="Helvetica,sans-Serif" font-size="10.00">/d_a_obj_carry/d_a_obj</text>
<text text-anchor="middle" x="3196.5" y="-73" font-family="Helvetica,sans-Serif" font-size="10.00">_carry.h</text>
</a>
</g>
</g>
<!-- Node3&#45;&gt;Node76 -->
<g id="edge28" class="edge">
<title>Node3&#45;&gt;Node76</title>
<path fill="none" stroke="#63b8ff" d="M2976.65,-142.96C3020.23,-133.45 3078.45,-120.24 3129.5,-107 3132.31,-106.27 3135.19,-105.51 3138.09,-104.72"/>
<polygon fill="#63b8ff" stroke="#63b8ff" points="2976.13,-139.49 2967.1,-145.03 2977.61,-146.33 2976.13,-139.49"/>
</g>
<!-- Node78 -->
<g id="node29" class="node">
<title>Node78</title>
<g id="a_node29"><a xlink:href="d__a__obj__cboard_8h.html" target="_top" xlink:title=" ">
<polygon fill="white" stroke="#666666" points="3380,-107 3273,-107 3273,-66 3380,-66 3380,-107"/>
<text text-anchor="start" x="3281" y="-95" font-family="Helvetica,sans-Serif" font-size="10.00">include/rel/d/a/obj</text>
<text text-anchor="start" x="3281" y="-84" font-family="Helvetica,sans-Serif" font-size="10.00">/d_a_obj_cboard/d_a</text>
<text text-anchor="middle" x="3326.5" y="-73" font-family="Helvetica,sans-Serif" font-size="10.00">_obj_cboard.h</text>
</a>
</g>
</g>
<!-- Node3&#45;&gt;Node78 -->
<g id="edge29" class="edge">
<title>Node3&#45;&gt;Node78</title>
<path fill="none" stroke="#63b8ff" d="M2976.77,-150.8C3048.14,-143.39 3164.75,-129.13 3263.5,-107 3266.52,-106.32 3269.6,-105.57 3272.7,-104.77"/>
<polygon fill="#63b8ff" stroke="#63b8ff" points="2976.81,-147.28 2967.22,-151.78 2977.53,-154.24 2976.81,-147.28"/>
</g>
<!-- Node79 -->
<g id="node30" class="node">
<title>Node79</title>
<g id="a_node30"><a xlink:href="d__a__obj__cowdoor_8h.html" target="_top" xlink:title=" ">
<polygon fill="white" stroke="#666666" points="3512.5,-107 3398.5,-107 3398.5,-66 3512.5,-66 3512.5,-107"/>
<text text-anchor="start" x="3406.5" y="-95" font-family="Helvetica,sans-Serif" font-size="10.00">include/rel/d/a/obj</text>
<text text-anchor="start" x="3406.5" y="-84" font-family="Helvetica,sans-Serif" font-size="10.00">/d_a_obj_cowdoor/d_a</text>
<text text-anchor="middle" x="3455.5" y="-73" font-family="Helvetica,sans-Serif" font-size="10.00">_obj_cowdoor.h</text>
</a>
</g>
</g>
<!-- Node3&#45;&gt;Node79 -->
<g id="edge30" class="edge">
<title>Node3&#45;&gt;Node79</title>
<path fill="none" stroke="#63b8ff" d="M2977.29,-153.79C3070.21,-148.48 3243.43,-135.46 3388.5,-107 3391.71,-106.37 3394.99,-105.66 3398.28,-104.88"/>
<polygon fill="#63b8ff" stroke="#63b8ff" points="2977.12,-150.3 2967.33,-154.35 2977.51,-157.29 2977.12,-150.3"/>
</g>
<!-- Node80 -->
<g id="node31" class="node">
<title>Node80</title>
<g id="a_node31"><a xlink:href="d__a__obj__digholl_8h.html" target="_top" xlink:title=" ">
<polygon fill="white" stroke="#666666" points="3636,-107 3531,-107 3531,-66 3636,-66 3636,-107"/>
<text text-anchor="start" x="3539" y="-95" font-family="Helvetica,sans-Serif" font-size="10.00">include/rel/d/a/obj</text>
<text text-anchor="start" x="3539" y="-84" font-family="Helvetica,sans-Serif" font-size="10.00">/d_a_obj_digholl/d_a</text>
<text text-anchor="middle" x="3583.5" y="-73" font-family="Helvetica,sans-Serif" font-size="10.00">_obj_digholl.h</text>
</a>
</g>
</g>
<!-- Node3&#45;&gt;Node80 -->
<g id="edge31" class="edge">
<title>Node3&#45;&gt;Node80</title>
<path fill="none" stroke="#63b8ff" d="M2977.03,-156.39C3090,-154.28 3326.1,-145.23 3521.5,-107 3524.49,-106.42 3527.54,-105.74 3530.6,-104.99"/>
<polygon fill="#63b8ff" stroke="#63b8ff" points="2977.28,-152.89 2967.35,-156.56 2977.4,-159.89 2977.28,-152.89"/>
</g>
<!-- Node81 -->
<g id="node32" class="node">
<title>Node81</title>
<g id="a_node32"><a xlink:href="d__a__obj__enemy__create_8h.html" target="_top" xlink:title=" ">
<polygon fill="white" stroke="#666666" points="3781,-107 3654,-107 3654,-66 3781,-66 3781,-107"/>
<text text-anchor="start" x="3662" y="-95" font-family="Helvetica,sans-Serif" font-size="10.00">include/rel/d/a/obj</text>
<text text-anchor="start" x="3662" y="-84" font-family="Helvetica,sans-Serif" font-size="10.00">/d_a_obj_enemy_create</text>
<text text-anchor="middle" x="3717.5" y="-73" font-family="Helvetica,sans-Serif" font-size="10.00">/d_a_obj_enemy_create.h</text>
</a>
</g>
</g>
<!-- Node3&#45;&gt;Node81 -->
<g id="edge32" class="edge">
<title>Node3&#45;&gt;Node81</title>
<path fill="none" stroke="#63b8ff" d="M2976.97,-156.75C3106.37,-155.32 3400.8,-147.46 3644.5,-107 3647.48,-106.51 3650.51,-105.94 3653.56,-105.33"/>
<polygon fill="#63b8ff" stroke="#63b8ff" points="2977.18,-153.25 2967.22,-156.85 2977.25,-160.25 2977.18,-153.25"/>
</g>
<!-- Node82 -->
<g id="node33" class="node">
<title>Node82</title>
<g id="a_node33"><a xlink:href="d__a__obj__kjgjs_8h.html" target="_top" xlink:title=" ">
<polygon fill="white" stroke="#666666" points="3915.5,-107 3799.5,-107 3799.5,-66 3915.5,-66 3915.5,-107"/>
<text text-anchor="start" x="3807.5" y="-95" font-family="Helvetica,sans-Serif" font-size="10.00">include/rel/d/a/obj</text>
<text text-anchor="start" x="3807.5" y="-84" font-family="Helvetica,sans-Serif" font-size="10.00">/d_a_obj_kjgjs/d_a_obj</text>
<text text-anchor="middle" x="3857.5" y="-73" font-family="Helvetica,sans-Serif" font-size="10.00">_kjgjs.h</text>
</a>
</g>
</g>
<!-- Node3&#45;&gt;Node82 -->
<g id="edge33" class="edge">
<title>Node3&#45;&gt;Node82</title>
<path fill="none" stroke="#63b8ff" d="M2977.39,-155.12C3154.63,-149.84 3633.45,-133.47 3789.5,-107 3792.65,-106.47 3795.86,-105.84 3799.09,-105.14"/>
<polygon fill="#63b8ff" stroke="#63b8ff" points="2977.31,-151.62 2967.42,-155.42 2977.52,-158.62 2977.31,-151.62"/>
</g>
<!-- Node83 -->
<g id="node34" class="node">
<title>Node83</title>
<g id="a_node34"><a xlink:href="d__a__obj__mgate_8h.html" target="_top" xlink:title=" ">
<polygon fill="white" stroke="#666666" points="4055.5,-107 3933.5,-107 3933.5,-66 4055.5,-66 4055.5,-107"/>
<text text-anchor="start" x="3941.5" y="-95" font-family="Helvetica,sans-Serif" font-size="10.00">include/rel/d/a/obj</text>
<text text-anchor="start" x="3941.5" y="-84" font-family="Helvetica,sans-Serif" font-size="10.00">/d_a_obj_mgate/d_a_obj</text>
<text text-anchor="middle" x="3994.5" y="-73" font-family="Helvetica,sans-Serif" font-size="10.00">_mgate.h</text>
</a>
</g>
</g>
<!-- Node3&#45;&gt;Node83 -->
<g id="edge34" class="edge">
<title>Node3&#45;&gt;Node83</title>
<path fill="none" stroke="#63b8ff" d="M2977.31,-155.64C3172.76,-151.37 3741.2,-136.67 3924.5,-107 3927.36,-106.54 3930.28,-106 3933.21,-105.4"/>
<polygon fill="#63b8ff" stroke="#63b8ff" points="2977.24,-152.14 2967.32,-155.86 2977.39,-159.14 2977.24,-152.14"/>
</g>
<!-- Node84 -->
<g id="node35" class="node">
<title>Node84</title>
<g id="a_node35"><a xlink:href="d__a__obj__onsen_8h.html" target="_top" xlink:title=" ">
<polygon fill="white" stroke="#666666" points="4195.5,-107 4073.5,-107 4073.5,-66 4195.5,-66 4195.5,-107"/>
<text text-anchor="start" x="4081.5" y="-95" font-family="Helvetica,sans-Serif" font-size="10.00">include/rel/d/a/obj</text>
<text text-anchor="start" x="4081.5" y="-84" font-family="Helvetica,sans-Serif" font-size="10.00">/d_a_obj_onsen/d_a_obj</text>
<text text-anchor="middle" x="4134.5" y="-73" font-family="Helvetica,sans-Serif" font-size="10.00">_onsen.h</text>
</a>
</g>
</g>
<!-- Node3&#45;&gt;Node84 -->
<g id="edge35" class="edge">
<title>Node3&#45;&gt;Node84</title>
<path fill="none" stroke="#63b8ff" d="M2977.3,-156.11C3190.46,-152.95 3852.89,-140.61 4064.5,-107 4067.37,-106.54 4070.28,-106.01 4073.22,-105.43"/>
<polygon fill="#63b8ff" stroke="#63b8ff" points="2977.45,-152.61 2967.5,-156.25 2977.56,-159.6 2977.45,-152.61"/>
</g>
<!-- Node85 -->
<g id="node36" class="node">
<title>Node85</title>
<g id="a_node36"><a xlink:href="d__a__obj__onsenFire_8h.html" target="_top" xlink:title=" ">
<polygon fill="white" stroke="#666666" points="4323.5,-107 4213.5,-107 4213.5,-66 4323.5,-66 4323.5,-107"/>
<text text-anchor="start" x="4221.5" y="-95" font-family="Helvetica,sans-Serif" font-size="10.00">include/rel/d/a/obj</text>
<text text-anchor="start" x="4221.5" y="-84" font-family="Helvetica,sans-Serif" font-size="10.00">/d_a_obj_onsenFire/d</text>
<text text-anchor="middle" x="4268.5" y="-73" font-family="Helvetica,sans-Serif" font-size="10.00">_a_obj_onsenFire.h</text>
</a>
</g>
</g>
<!-- Node3&#45;&gt;Node85 -->
<g id="edge36" class="edge">
<title>Node3&#45;&gt;Node85</title>
<path fill="none" stroke="#63b8ff" d="M2977.15,-156.68C3206.89,-155.24 3964.83,-147.45 4204.5,-107 4207.36,-106.52 4210.28,-105.94 4213.21,-105.3"/>
<polygon fill="#63b8ff" stroke="#63b8ff" points="2977.46,-153.18 2967.48,-156.74 2977.51,-160.18 2977.46,-153.18"/>
</g>
<!-- Node86 -->
<g id="node37" class="node">
<title>Node86</title>
<g id="a_node37"><a xlink:href="d__a__obj__prop_8h.html" target="_top" xlink:title=" ">
<polygon fill="white" stroke="#666666" points="4455.5,-107 4341.5,-107 4341.5,-66 4455.5,-66 4455.5,-107"/>
<text text-anchor="start" x="4349.5" y="-95" font-family="Helvetica,sans-Serif" font-size="10.00">include/rel/d/a/obj</text>
<text text-anchor="start" x="4349.5" y="-84" font-family="Helvetica,sans-Serif" font-size="10.00">/d_a_obj_prop/d_a_obj</text>
<text text-anchor="middle" x="4398.5" y="-73" font-family="Helvetica,sans-Serif" font-size="10.00">_prop.h</text>
</a>
</g>
</g>
<!-- Node3&#45;&gt;Node86 -->
<g id="edge37" class="edge">
<title>Node3&#45;&gt;Node86</title>
<path fill="none" stroke="#63b8ff" d="M2977.08,-156.88C3221.17,-156.1 4066.53,-150.25 4332.5,-107 4335.33,-106.54 4338.21,-105.99 4341.11,-105.38"/>
<polygon fill="#63b8ff" stroke="#63b8ff" points="2977.42,-153.38 2967.43,-156.91 2977.44,-160.38 2977.42,-153.38"/>
</g>
<!-- Node87 -->
<g id="node38" class="node">
<title>Node87</title>
<g id="a_node38"><a xlink:href="d__a__obj__rcircle_8h.html" target="_top" xlink:title=" ">
<polygon fill="white" stroke="#666666" points="4577.5,-107 4473.5,-107 4473.5,-66 4577.5,-66 4577.5,-107"/>
<text text-anchor="start" x="4481.5" y="-95" font-family="Helvetica,sans-Serif" font-size="10.00">include/rel/d/a/obj</text>
<text text-anchor="start" x="4481.5" y="-84" font-family="Helvetica,sans-Serif" font-size="10.00">/d_a_obj_rcircle/d_a</text>
<text text-anchor="middle" x="4525.5" y="-73" font-family="Helvetica,sans-Serif" font-size="10.00">_obj_rcircle.h</text>
</a>
</g>
</g>
<!-- Node3&#45;&gt;Node87 -->
<g id="edge38" class="edge">
<title>Node3&#45;&gt;Node87</title>
<path fill="none" stroke="#63b8ff" d="M2977.15,-157.31C3235.64,-158.12 4172.07,-157.43 4464.5,-107 4467.35,-106.51 4470.25,-105.92 4473.16,-105.25"/>
<polygon fill="#63b8ff" stroke="#63b8ff" points="2977.24,-153.81 2967.23,-157.27 2977.21,-160.81 2977.24,-153.81"/>
</g>
<!-- Node88 -->
<g id="node39" class="node">
<title>Node88</title>
<g id="a_node39"><a xlink:href="d__a__obj__smoke_8h.html" target="_top" xlink:title=" ">
<polygon fill="white" stroke="#666666" points="4721,-107 4596,-107 4596,-66 4721,-66 4721,-107"/>
<text text-anchor="start" x="4604" y="-95" font-family="Helvetica,sans-Serif" font-size="10.00">include/rel/d/a/obj</text>
<text text-anchor="start" x="4604" y="-84" font-family="Helvetica,sans-Serif" font-size="10.00">/d_a_obj_smoke/d_a_obj</text>
<text text-anchor="middle" x="4658.5" y="-73" font-family="Helvetica,sans-Serif" font-size="10.00">_smoke.h</text>
</a>
</g>
</g>
<!-- Node3&#45;&gt;Node88 -->
<g id="edge39" class="edge">
<title>Node3&#45;&gt;Node88</title>
<path fill="none" stroke="#63b8ff" d="M2976.89,-157.1C3247.49,-157.17 4267.85,-154.23 4586.5,-107 4589.57,-106.54 4592.71,-106 4595.85,-105.4"/>
<polygon fill="#63b8ff" stroke="#63b8ff" points="2977.22,-153.6 2967.21,-157.09 2977.21,-160.6 2977.22,-153.6"/>
</g>
<!-- Node89 -->
<g id="node40" class="node">
<title>Node89</title>
<g id="a_node40"><a xlink:href="d__a__obj__stone_8h.html" target="_top" xlink:title=" ">
<polygon fill="white" stroke="#666666" points="4858,-107 4739,-107 4739,-66 4858,-66 4858,-107"/>
<text text-anchor="start" x="4747" y="-95" font-family="Helvetica,sans-Serif" font-size="10.00">include/rel/d/a/obj</text>
<text text-anchor="start" x="4747" y="-84" font-family="Helvetica,sans-Serif" font-size="10.00">/d_a_obj_stone/d_a_obj</text>
<text text-anchor="middle" x="4798.5" y="-73" font-family="Helvetica,sans-Serif" font-size="10.00">_stone.h</text>
</a>
</g>
</g>
<!-- Node3&#45;&gt;Node89 -->
<g id="edge40" class="edge">
<title>Node3&#45;&gt;Node89</title>
<path fill="none" stroke="#63b8ff" d="M2976.91,-156.15C3283.42,-152.09 4553.94,-133.79 4729.5,-107 4732.58,-106.53 4735.71,-105.97 4738.86,-105.33"/>
<polygon fill="#63b8ff" stroke="#63b8ff" points="2977.03,-152.65 2967.08,-156.28 2977.13,-159.65 2977.03,-152.65"/>
</g>
<!-- Node90 -->
<g id="node41" class="node">
<title>Node90</title>
<g id="a_node41"><a xlink:href="d__a__obj__stoneMark_8h.html" target="_top" xlink:title=" ">
<polygon fill="white" stroke="#666666" points="4989,-107 4876,-107 4876,-66 4989,-66 4989,-107"/>
<text text-anchor="start" x="4884" y="-95" font-family="Helvetica,sans-Serif" font-size="10.00">include/rel/d/a/obj</text>
<text text-anchor="start" x="4884" y="-84" font-family="Helvetica,sans-Serif" font-size="10.00">/d_a_obj_stoneMark/d</text>
<text text-anchor="middle" x="4932.5" y="-73" font-family="Helvetica,sans-Serif" font-size="10.00">_a_obj_stoneMark.h</text>
</a>
</g>
</g>
<!-- Node3&#45;&gt;Node90 -->
<g id="edge41" class="edge">
<title>Node3&#45;&gt;Node90</title>
<path fill="none" stroke="#63b8ff" d="M2977.16,-156.33C3298.16,-152.97 4676.95,-136.89 4866.5,-107 4869.57,-106.52 4872.69,-105.93 4875.83,-105.27"/>
<polygon fill="#63b8ff" stroke="#63b8ff" points="2977.22,-152.83 2967.26,-156.43 2977.3,-159.83 2977.22,-152.83"/>
</g>
<!-- Node91 -->
<g id="node42" class="node">
<title>Node91</title>
<g id="a_node42"><a xlink:href="d__a__obj__tmoon_8h.html" target="_top" xlink:title=" ">
<polygon fill="white" stroke="#666666" points="5129.5,-107 5007.5,-107 5007.5,-66 5129.5,-66 5129.5,-107"/>
<text text-anchor="start" x="5015.5" y="-95" font-family="Helvetica,sans-Serif" font-size="10.00">include/rel/d/a/obj</text>
<text text-anchor="start" x="5015.5" y="-84" font-family="Helvetica,sans-Serif" font-size="10.00">/d_a_obj_tmoon/d_a_obj</text>
<text text-anchor="middle" x="5068.5" y="-73" font-family="Helvetica,sans-Serif" font-size="10.00">_tmoon.h</text>
</a>
</g>
</g>
<!-- Node3&#45;&gt;Node91 -->
<g id="edge42" class="edge">
<title>Node3&#45;&gt;Node91</title>
<path fill="none" stroke="#63b8ff" d="M2977.23,-156.37C3311.31,-153.08 4794.07,-136.91 4997.5,-107 5000.66,-106.54 5003.88,-105.98 5007.12,-105.34"/>
<polygon fill="#63b8ff" stroke="#63b8ff" points="2977.32,-152.87 2967.35,-156.47 2977.39,-159.87 2977.32,-152.87"/>
</g>
<!-- Node92 -->
<g id="node43" class="node">
<title>Node92</title>
<g id="a_node43"><a xlink:href="d__a__obj__vground_8h.html" target="_top" xlink:title=" ">
<polygon fill="white" stroke="#666666" points="5259.5,-107 5147.5,-107 5147.5,-66 5259.5,-66 5259.5,-107"/>
<text text-anchor="start" x="5155.5" y="-95" font-family="Helvetica,sans-Serif" font-size="10.00">include/rel/d/a/obj</text>
<text text-anchor="start" x="5155.5" y="-84" font-family="Helvetica,sans-Serif" font-size="10.00">/d_a_obj_vground/d_a</text>
<text text-anchor="middle" x="5203.5" y="-73" font-family="Helvetica,sans-Serif" font-size="10.00">_obj_vground.h</text>
</a>
</g>
</g>
<!-- Node3&#45;&gt;Node92 -->
<g id="edge43" class="edge">
<title>Node3&#45;&gt;Node92</title>
<path fill="none" stroke="#63b8ff" d="M2977.34,-156.01C3336.91,-150.59 5029.25,-124.29 5138.5,-107 5141.41,-106.54 5144.37,-105.98 5147.34,-105.35"/>
<polygon fill="#63b8ff" stroke="#63b8ff" points="2977.31,-152.51 2967.36,-156.16 2977.42,-159.51 2977.31,-152.51"/>
</g>
<!-- Node93 -->
<g id="node44" class="node">
<title>Node93</title>
<g id="a_node44"><a xlink:href="d__a__obj__web0_8h.html" target="_top" xlink:title=" ">
<polygon fill="white" stroke="#666666" points="5397,-107 5278,-107 5278,-66 5397,-66 5397,-107"/>
<text text-anchor="start" x="5286" y="-95" font-family="Helvetica,sans-Serif" font-size="10.00">include/rel/d/a/obj</text>
<text text-anchor="start" x="5286" y="-84" font-family="Helvetica,sans-Serif" font-size="10.00">/d_a_obj_web0/d_a_obj</text>
<text text-anchor="middle" x="5337.5" y="-73" font-family="Helvetica,sans-Serif" font-size="10.00">_web0.h</text>
</a>
</g>
</g>
<!-- Node3&#45;&gt;Node93 -->
<g id="edge44" class="edge">
<title>Node3&#45;&gt;Node93</title>
<path fill="none" stroke="#63b8ff" d="M2977.32,-156.06C3349.32,-150.78 5152.32,-124.36 5268.5,-107 5271.58,-106.54 5274.71,-105.98 5277.86,-105.36"/>
<polygon fill="#63b8ff" stroke="#63b8ff" points="2977.43,-152.56 2967.48,-156.2 2977.53,-159.56 2977.43,-152.56"/>
</g>
<!-- Node94 -->
<g id="node45" class="node">
<title>Node94</title>
<g id="a_node45"><a xlink:href="d__a__obj__web1_8h.html" target="_top" xlink:title=" ">
<polygon fill="white" stroke="#666666" points="5534,-107 5415,-107 5415,-66 5534,-66 5534,-107"/>
<text text-anchor="start" x="5423" y="-95" font-family="Helvetica,sans-Serif" font-size="10.00">include/rel/d/a/obj</text>
<text text-anchor="start" x="5423" y="-84" font-family="Helvetica,sans-Serif" font-size="10.00">/d_a_obj_web1/d_a_obj</text>
<text text-anchor="middle" x="5474.5" y="-73" font-family="Helvetica,sans-Serif" font-size="10.00">_web1.h</text>
</a>
</g>
</g>
<!-- Node3&#45;&gt;Node94 -->
<g id="edge45" class="edge">
<title>Node3&#45;&gt;Node94</title>
<path fill="none" stroke="#63b8ff" d="M2977.46,-156.14C3362.54,-151.14 5282.17,-125.35 5405.5,-107 5408.58,-106.54 5411.71,-105.99 5414.86,-105.36"/>
<polygon fill="#63b8ff" stroke="#63b8ff" points="2977.46,-152.64 2967.5,-156.27 2977.55,-159.64 2977.46,-152.64"/>
</g>
<!-- Node95 -->
<g id="node46" class="node">
<title>Node95</title>
<g id="a_node46"><a xlink:href="d__a__obj__yobikusa_8h.html" target="_top" xlink:title=" ">
<polygon fill="white" stroke="#666666" points="5657,-107 5552,-107 5552,-66 5657,-66 5657,-107"/>
<text text-anchor="start" x="5560" y="-95" font-family="Helvetica,sans-Serif" font-size="10.00">include/rel/d/a/obj</text>
<text text-anchor="start" x="5560" y="-84" font-family="Helvetica,sans-Serif" font-size="10.00">/d_a_obj_yobikusa/d</text>
<text text-anchor="middle" x="5604.5" y="-73" font-family="Helvetica,sans-Serif" font-size="10.00">_a_obj_yobikusa.h</text>
</a>
</g>
</g>
<!-- Node3&#45;&gt;Node95 -->
<g id="edge46" class="edge">
<title>Node3&#45;&gt;Node95</title>
<path fill="none" stroke="#63b8ff" d="M2977.02,-156.28C3373.61,-151.93 5413.24,-128.58 5543.5,-107 5546.24,-106.55 5549.03,-105.99 5551.83,-105.37"/>
<polygon fill="#63b8ff" stroke="#63b8ff" points="2977.25,-152.78 2967.29,-156.39 2977.33,-159.78 2977.25,-152.78"/>
</g>
<!-- Node3&#45;&gt;Node136 -->
<g id="edge47" class="edge">
<title>Node3&#45;&gt;Node136</title>
<path fill="none" stroke="#63b8ff" d="M2977.19,-156.35C3385.03,-152.29 5529.88,-129.92 5666.5,-107 5679.35,-104.84 5693.22,-100.48 5704.39,-96.42"/>
<polygon fill="#63b8ff" stroke="#63b8ff" points="2977.39,-152.85 2967.42,-156.44 2977.46,-159.85 2977.39,-152.85"/>
</g>
<!-- Node31&#45;&gt;Node13 -->
<g id="edge10" class="edge">
<title>Node31&#45;&gt;Node13</title>
<path fill="none" stroke="#63b8ff" d="M714.21,-73.23C706.37,-70.81 698.18,-68.3 690.5,-66 649.69,-53.75 603.3,-40.3 568.99,-30.43"/>
<polygon fill="#63b8ff" stroke="#63b8ff" points="712.96,-76.5 723.55,-76.11 715.03,-69.81 712.96,-76.5"/>
</g>
</g>
</svg>
