<?xml version="1.0" encoding="UTF-8" standalone="no"?>
<!DOCTYPE svg PUBLIC "-//W3C//DTD SVG 1.1//EN"
 "http://www.w3.org/Graphics/SVG/1.1/DTD/svg11.dtd">
<!-- Generated by graphviz version 7.0.5 (20221223.1930)
 -->
<!-- Title: include/d/d_drawlist.h Pages: 1 -->
<svg width="4848pt" height="236pt"
 viewBox="0.00 0.00 4848.00 236.00" xmlns="http://www.w3.org/2000/svg" xmlns:xlink="http://www.w3.org/1999/xlink">
<g id="graph0" class="graph" transform="scale(1 1) rotate(0) translate(4 232)">
<title>include/d/d_drawlist.h</title>
<!-- Node1 -->
<g id="node1" class="node">
<title>Node1</title>
<g id="a_node1"><a xlink:title=" ">
<polygon fill="#999999" stroke="#666666" points="3639,-228 3529,-228 3529,-209 3639,-209 3639,-228"/>
<text text-anchor="middle" x="3584" y="-216" font-family="Helvetica,sans-Serif" font-size="10.00">include/d/d_drawlist.h</text>
</a>
</g>
</g>
<!-- Node2 -->
<g id="node2" class="node">
<title>Node2</title>
<g id="a_node2"><a xlink:href="d__a__player_8h.html" target="_top" xlink:title=" ">
<polygon fill="white" stroke="#666666" points="1925.5,-167.5 1804.5,-167.5 1804.5,-148.5 1925.5,-148.5 1925.5,-167.5"/>
<text text-anchor="middle" x="1865" y="-155.5" font-family="Helvetica,sans-Serif" font-size="10.00">include/d/a/d_a_player.h</text>
</a>
</g>
</g>
<!-- Node1&#45;&gt;Node2 -->
<g id="edge1" class="edge">
<title>Node1&#45;&gt;Node2</title>
<path fill="none" stroke="#63b8ff" d="M3517.35,-215.23C3241.38,-205.84 2190.39,-170.07 1925.76,-161.07"/>
<polygon fill="#63b8ff" stroke="#63b8ff" points="3517.13,-218.73 3527.24,-215.57 3517.36,-211.73 3517.13,-218.73"/>
</g>
<!-- Node43 -->
<g id="node28" class="node">
<title>Node43</title>
<g id="a_node28"><a xlink:href="d__camera_8h.html" target="_top" xlink:title=" ">
<polygon fill="white" stroke="#666666" points="177.5,-167.5 68.5,-167.5 68.5,-148.5 177.5,-148.5 177.5,-167.5"/>
<text text-anchor="middle" x="123" y="-155.5" font-family="Helvetica,sans-Serif" font-size="10.00">include/d/d_camera.h</text>
</a>
</g>
</g>
<!-- Node1&#45;&gt;Node43 -->
<g id="edge28" class="edge">
<title>Node1&#45;&gt;Node43</title>
<path fill="none" stroke="#63b8ff" d="M3517.4,-217.45C3071.56,-217.02 527.99,-212.81 186,-173 176.65,-171.91 166.65,-170.03 157.44,-167.99"/>
<polygon fill="#63b8ff" stroke="#63b8ff" points="3517.24,-220.95 3527.24,-217.46 3517.25,-213.95 3517.24,-220.95"/>
</g>
<!-- Node202 -->
<g id="node30" class="node">
<title>Node202</title>
<g id="a_node30"><a xlink:href="d__kantera__icon__meter_8h.html" target="_top" xlink:title=" ">
<polygon fill="white" stroke="#666666" points="441.5,-173 340.5,-173 340.5,-143 441.5,-143 441.5,-173"/>
<text text-anchor="start" x="348.5" y="-161" font-family="Helvetica,sans-Serif" font-size="10.00">include/d/d_kantera</text>
<text text-anchor="middle" x="391" y="-150" font-family="Helvetica,sans-Serif" font-size="10.00">_icon_meter.h</text>
</a>
</g>
</g>
<!-- Node1&#45;&gt;Node202 -->
<g id="edge31" class="edge">
<title>Node1&#45;&gt;Node202</title>
<path fill="none" stroke="#63b8ff" d="M3517.16,-216.34C3228.98,-211.32 2063.99,-190.95 1107,-173 857.45,-168.32 558.99,-162.37 441.78,-160.02"/>
<polygon fill="#63b8ff" stroke="#63b8ff" points="3517.06,-219.84 3527.12,-216.51 3517.19,-212.84 3517.06,-219.84"/>
</g>
<!-- Node203 -->
<g id="node32" class="node">
<title>Node203</title>
<g id="a_node32"><a xlink:href="d__select__cursor_8h.html" target="_top" xlink:title=" ">
<polygon fill="#fff0f0" stroke="red" points="3505.5,-173 3410.5,-173 3410.5,-143 3505.5,-143 3505.5,-173"/>
<text text-anchor="start" x="3418.5" y="-161" font-family="Helvetica,sans-Serif" font-size="10.00">include/d/d_select</text>
<text text-anchor="middle" x="3458" y="-150" font-family="Helvetica,sans-Serif" font-size="10.00">_cursor.h</text>
</a>
</g>
</g>
<!-- Node1&#45;&gt;Node203 -->
<g id="edge34" class="edge">
<title>Node1&#45;&gt;Node203</title>
<path fill="none" stroke="#63b8ff" d="M3554.65,-203.87C3534.98,-194.74 3509.12,-182.74 3489.1,-173.44"/>
<polygon fill="#63b8ff" stroke="#63b8ff" points="3552.95,-206.94 3563.49,-207.98 3555.89,-200.59 3552.95,-206.94"/>
</g>
<!-- Node207 -->
<g id="node36" class="node">
<title>Node207</title>
<g id="a_node36"><a xlink:href="d__file__sel__info_8h.html" target="_top" xlink:title=" ">
<polygon fill="#fff0f0" stroke="red" points="4448,-173 4352,-173 4352,-143 4448,-143 4448,-173"/>
<text text-anchor="start" x="4360" y="-161" font-family="Helvetica,sans-Serif" font-size="10.00">include/d/file/d_file</text>
<text text-anchor="middle" x="4400" y="-150" font-family="Helvetica,sans-Serif" font-size="10.00">_sel_info.h</text>
</a>
</g>
</g>
<!-- Node1&#45;&gt;Node207 -->
<g id="edge39" class="edge">
<title>Node1&#45;&gt;Node207</title>
<path fill="none" stroke="#63b8ff" d="M3650.25,-217.66C3782.65,-217.09 4089.03,-211.31 4343,-173 4345.82,-172.57 4348.71,-172.07 4351.61,-171.52"/>
<polygon fill="#63b8ff" stroke="#63b8ff" points="3650.62,-214.16 3640.64,-217.69 3650.65,-221.16 3650.62,-214.16"/>
</g>
<!-- Node208 -->
<g id="node37" class="node">
<title>Node208</title>
<g id="a_node37"><a xlink:href="d__map__path_8h.html" target="_top" xlink:title=" ">
<polygon fill="#fff0f0" stroke="red" points="3116,-173 3006,-173 3006,-143 3116,-143 3116,-173"/>
<text text-anchor="start" x="3014" y="-161" font-family="Helvetica,sans-Serif" font-size="10.00">include/d/map/d_map</text>
<text text-anchor="middle" x="3061" y="-150" font-family="Helvetica,sans-Serif" font-size="10.00">_path.h</text>
</a>
</g>
</g>
<!-- Node1&#45;&gt;Node208 -->
<g id="edge40" class="edge">
<title>Node1&#45;&gt;Node208</title>
<path fill="none" stroke="#63b8ff" d="M3517.28,-213.52C3427.67,-207.62 3263.66,-194.81 3125,-173 3122.19,-172.56 3119.32,-172.07 3116.43,-171.55"/>
<polygon fill="#63b8ff" stroke="#63b8ff" points="3516.91,-217.01 3527.11,-214.16 3517.36,-210.02 3516.91,-217.01"/>
</g>
<!-- Node212 -->
<g id="node38" class="node">
<title>Node212</title>
<g id="a_node38"><a xlink:href="d__menu__collect_8h.html" target="_top" xlink:title=" ">
<polygon fill="#fff0f0" stroke="red" points="3254,-173 3134,-173 3134,-143 3254,-143 3254,-173"/>
<text text-anchor="start" x="3142" y="-161" font-family="Helvetica,sans-Serif" font-size="10.00">include/d/menu/d_menu</text>
<text text-anchor="middle" x="3194" y="-150" font-family="Helvetica,sans-Serif" font-size="10.00">_collect.h</text>
</a>
</g>
</g>
<!-- Node1&#45;&gt;Node212 -->
<g id="edge42" class="edge">
<title>Node1&#45;&gt;Node212</title>
<path fill="none" stroke="#63b8ff" d="M3517.43,-209.5C3452.38,-201.4 3350.64,-187.95 3263,-173 3260.11,-172.51 3257.15,-171.98 3254.17,-171.44"/>
<polygon fill="#63b8ff" stroke="#63b8ff" points="3516.89,-212.96 3527.24,-210.72 3517.75,-206.01 3516.89,-212.96"/>
</g>
<!-- Node213 -->
<g id="node39" class="node">
<title>Node213</title>
<g id="a_node39"><a xlink:href="d__menu__fishing_8h.html" target="_top" xlink:title=" ">
<polygon fill="#fff0f0" stroke="red" points="3920,-173 3800,-173 3800,-143 3920,-143 3920,-173"/>
<text text-anchor="start" x="3808" y="-161" font-family="Helvetica,sans-Serif" font-size="10.00">include/d/menu/d_menu</text>
<text text-anchor="middle" x="3860" y="-150" font-family="Helvetica,sans-Serif" font-size="10.00">_fishing.h</text>
</a>
</g>
</g>
<!-- Node1&#45;&gt;Node213 -->
<g id="edge45" class="edge">
<title>Node1&#45;&gt;Node213</title>
<path fill="none" stroke="#63b8ff" d="M3637.27,-206.21C3683.75,-196.36 3751.15,-182.07 3799.62,-171.8"/>
<polygon fill="#63b8ff" stroke="#63b8ff" points="3636.76,-202.74 3627.7,-208.24 3638.21,-209.59 3636.76,-202.74"/>
</g>
<!-- Node214 -->
<g id="node40" class="node">
<title>Node214</title>
<g id="a_node40"><a xlink:href="d__menu__insect_8h.html" target="_top" xlink:title=" ">
<polygon fill="#fff0f0" stroke="red" points="4058,-173 3938,-173 3938,-143 4058,-143 4058,-173"/>
<text text-anchor="start" x="3946" y="-161" font-family="Helvetica,sans-Serif" font-size="10.00">include/d/menu/d_menu</text>
<text text-anchor="middle" x="3998" y="-150" font-family="Helvetica,sans-Serif" font-size="10.00">_insect.h</text>
</a>
</g>
</g>
<!-- Node1&#45;&gt;Node214 -->
<g id="edge47" class="edge">
<title>Node1&#45;&gt;Node214</title>
<path fill="none" stroke="#63b8ff" d="M3650.67,-210.34C3720.32,-202.52 3832.63,-188.97 3929,-173 3931.89,-172.52 3934.85,-172.01 3937.84,-171.47"/>
<polygon fill="#63b8ff" stroke="#63b8ff" points="3650.51,-206.84 3640.95,-211.42 3651.28,-213.79 3650.51,-206.84"/>
</g>
<!-- Node215 -->
<g id="node41" class="node">
<title>Node215</title>
<g id="a_node41"><a xlink:href="d__menu__letter_8h.html" target="_top" xlink:title=" ">
<polygon fill="#fff0f0" stroke="red" points="4196,-173 4076,-173 4076,-143 4196,-143 4196,-173"/>
<text text-anchor="start" x="4084" y="-161" font-family="Helvetica,sans-Serif" font-size="10.00">include/d/menu/d_menu</text>
<text text-anchor="middle" x="4136" y="-150" font-family="Helvetica,sans-Serif" font-size="10.00">_letter.h</text>
</a>
</g>
</g>
<!-- Node1&#45;&gt;Node215 -->
<g id="edge49" class="edge">
<title>Node1&#45;&gt;Node215</title>
<path fill="none" stroke="#63b8ff" d="M3650.53,-213.66C3743.92,-207.75 3919.04,-194.76 4067,-173 4069.9,-172.57 4072.87,-172.1 4075.86,-171.6"/>
<polygon fill="#63b8ff" stroke="#63b8ff" points="3650.55,-210.15 3640.79,-214.27 3650.99,-217.14 3650.55,-210.15"/>
</g>
<!-- Node217 -->
<g id="node42" class="node">
<title>Node217</title>
<g id="a_node42"><a xlink:href="d__menu__option_8h.html" target="_top" xlink:title=" ">
<polygon fill="#fff0f0" stroke="red" points="4334,-173 4214,-173 4214,-143 4334,-143 4334,-173"/>
<text text-anchor="start" x="4222" y="-161" font-family="Helvetica,sans-Serif" font-size="10.00">include/d/menu/d_menu</text>
<text text-anchor="middle" x="4274" y="-150" font-family="Helvetica,sans-Serif" font-size="10.00">_option.h</text>
</a>
</g>
</g>
<!-- Node1&#45;&gt;Node217 -->
<g id="edge51" class="edge">
<title>Node1&#45;&gt;Node217</title>
<path fill="none" stroke="#63b8ff" d="M3650.8,-215.53C3764.88,-211.54 4004.4,-200.42 4205,-173 4207.91,-172.6 4210.87,-172.16 4213.87,-171.67"/>
<polygon fill="#63b8ff" stroke="#63b8ff" points="3650.88,-212.03 3641.01,-215.87 3651.12,-219.02 3650.88,-212.03"/>
</g>
<!-- Node218 -->
<g id="node43" class="node">
<title>Node218</title>
<g id="a_node43"><a xlink:href="d__menu__ring_8h.html" target="_top" xlink:title=" ">
<polygon fill="#fff0f0" stroke="red" points="1236,-173 1116,-173 1116,-143 1236,-143 1236,-173"/>
<text text-anchor="start" x="1124" y="-161" font-family="Helvetica,sans-Serif" font-size="10.00">include/d/menu/d_menu</text>
<text text-anchor="middle" x="1176" y="-150" font-family="Helvetica,sans-Serif" font-size="10.00">_ring.h</text>
</a>
</g>
</g>
<!-- Node1&#45;&gt;Node218 -->
<g id="edge53" class="edge">
<title>Node1&#45;&gt;Node218</title>
<path fill="none" stroke="#63b8ff" d="M3517.24,-215.88C3169.42,-207.43 1568.16,-168.53 1236.31,-160.47"/>
<polygon fill="#63b8ff" stroke="#63b8ff" points="3517.01,-219.37 3527.09,-216.12 3517.18,-212.38 3517.01,-219.37"/>
</g>
<!-- Node220 -->
<g id="node44" class="node">
<title>Node220</title>
<g id="a_node44"><a xlink:href="d__menu__save_8h.html" target="_top" xlink:title=" ">
<polygon fill="#fff0f0" stroke="red" points="3392,-173 3272,-173 3272,-143 3392,-143 3392,-173"/>
<text text-anchor="start" x="3280" y="-161" font-family="Helvetica,sans-Serif" font-size="10.00">include/d/menu/d_menu</text>
<text text-anchor="middle" x="3332" y="-150" font-family="Helvetica,sans-Serif" font-size="10.00">_save.h</text>
</a>
</g>
</g>
<!-- Node1&#45;&gt;Node220 -->
<g id="edge55" class="edge">
<title>Node1&#45;&gt;Node220</title>
<path fill="none" stroke="#63b8ff" d="M3534.42,-205.99C3493.6,-196.52 3435.59,-183.05 3392.13,-172.96"/>
<polygon fill="#63b8ff" stroke="#63b8ff" points="3533.45,-209.36 3543.98,-208.21 3535.03,-202.54 3533.45,-209.36"/>
</g>
<!-- Node222 -->
<g id="node45" class="node">
<title>Node222</title>
<g id="a_node45"><a xlink:href="d__menu__skill_8h.html" target="_top" xlink:title=" ">
<polygon fill="#fff0f0" stroke="red" points="3644,-173 3524,-173 3524,-143 3644,-143 3644,-173"/>
<text text-anchor="start" x="3532" y="-161" font-family="Helvetica,sans-Serif" font-size="10.00">include/d/menu/d_menu</text>
<text text-anchor="middle" x="3584" y="-150" font-family="Helvetica,sans-Serif" font-size="10.00">_skill.h</text>
</a>
</g>
</g>
<!-- Node1&#45;&gt;Node222 -->
<g id="edge57" class="edge">
<title>Node1&#45;&gt;Node222</title>
<path fill="none" stroke="#63b8ff" d="M3584,-197.51C3584,-189.49 3584,-180.43 3584,-173.11"/>
<polygon fill="#63b8ff" stroke="#63b8ff" points="3580.5,-197.35 3584,-207.35 3587.5,-197.35 3580.5,-197.35"/>
</g>
<!-- Node223 -->
<g id="node46" class="node">
<title>Node223</title>
<g id="a_node46"><a xlink:href="d__menu__window_8h.html" target="_top" xlink:title=" ">
<polygon fill="#fff0f0" stroke="red" points="3782,-173 3662,-173 3662,-143 3782,-143 3782,-173"/>
<text text-anchor="start" x="3670" y="-161" font-family="Helvetica,sans-Serif" font-size="10.00">include/d/menu/d_menu</text>
<text text-anchor="middle" x="3722" y="-150" font-family="Helvetica,sans-Serif" font-size="10.00">_window.h</text>
</a>
</g>
</g>
<!-- Node1&#45;&gt;Node223 -->
<g id="edge59" class="edge">
<title>Node1&#45;&gt;Node223</title>
<path fill="none" stroke="#63b8ff" d="M3615.55,-204.13C3637.16,-194.96 3665.81,-182.82 3687.94,-173.44"/>
<polygon fill="#63b8ff" stroke="#63b8ff" points="3614.19,-200.9 3606.35,-208.02 3616.93,-207.34 3614.19,-200.9"/>
</g>
<!-- Node224 -->
<g id="node47" class="node">
<title>Node224</title>
<g id="a_node47"><a xlink:href="d__meter2_8h.html" target="_top" xlink:title=" ">
<polygon fill="#fff0f0" stroke="red" points="4600,-167.5 4466,-167.5 4466,-148.5 4600,-148.5 4600,-167.5"/>
<text text-anchor="middle" x="4533" y="-155.5" font-family="Helvetica,sans-Serif" font-size="10.00">include/d/meter/d_meter2.h</text>
</a>
</g>
</g>
<!-- Node1&#45;&gt;Node224 -->
<g id="edge61" class="edge">
<title>Node1&#45;&gt;Node224</title>
<path fill="none" stroke="#63b8ff" d="M3650.79,-217.08C3797.28,-215.5 4157.62,-208.05 4457,-173 4467.66,-171.75 4479.08,-169.92 4489.74,-167.98"/>
<polygon fill="#63b8ff" stroke="#63b8ff" points="3650.84,-213.58 3640.88,-217.18 3650.91,-220.58 3650.84,-213.58"/>
</g>
<!-- Node226 -->
<g id="node48" class="node">
<title>Node226</title>
<g id="a_node48"><a xlink:href="d__meter2__draw_8h.html" target="_top" xlink:title=" ">
<polygon fill="#fff0f0" stroke="red" points="322.5,-173 195.5,-173 195.5,-143 322.5,-143 322.5,-173"/>
<text text-anchor="start" x="203.5" y="-161" font-family="Helvetica,sans-Serif" font-size="10.00">include/d/meter/d_meter2</text>
<text text-anchor="middle" x="259" y="-150" font-family="Helvetica,sans-Serif" font-size="10.00">_draw.h</text>
</a>
</g>
</g>
<!-- Node1&#45;&gt;Node226 -->
<g id="edge62" class="edge">
<title>Node1&#45;&gt;Node226</title>
<path fill="none" stroke="#63b8ff" d="M3517.18,-217.3C3081.98,-215.92 658.09,-206.76 331,-173 328.34,-172.73 325.63,-172.4 322.9,-172.04"/>
<polygon fill="#63b8ff" stroke="#63b8ff" points="3517.06,-220.8 3527.07,-217.33 3517.08,-213.8 3517.06,-220.8"/>
</g>
<!-- Node227 -->
<g id="node49" class="node">
<title>Node227</title>
<g id="a_node49"><a xlink:href="d__msg__scrn__base_8h.html" target="_top" xlink:title=" ">
<polygon fill="#fff0f0" stroke="red" points="4717.5,-173 4618.5,-173 4618.5,-143 4717.5,-143 4717.5,-173"/>
<text text-anchor="start" x="4626.5" y="-161" font-family="Helvetica,sans-Serif" font-size="10.00">include/msg/scrn/d</text>
<text text-anchor="middle" x="4668" y="-150" font-family="Helvetica,sans-Serif" font-size="10.00">_msg_scrn_base.h</text>
</a>
</g>
</g>
<!-- Node1&#45;&gt;Node227 -->
<g id="edge64" class="edge">
<title>Node1&#45;&gt;Node227</title>
<path fill="none" stroke="#63b8ff" d="M3650.5,-216.26C3847,-212.34 4422.84,-198.89 4609,-173 4612.02,-172.58 4615.12,-172.07 4618.23,-171.51"/>
<polygon fill="#63b8ff" stroke="#63b8ff" points="3650.66,-212.76 3640.73,-216.45 3650.79,-219.76 3650.66,-212.76"/>
</g>
<!-- Node150 -->
<g id="node50" class="node">
<title>Node150</title>
<g id="a_node50"><a xlink:href="d__drawlist_8cpp.html" target="_top" xlink:title=" ">
<polygon fill="white" stroke="#666666" points="4840,-167.5 4736,-167.5 4736,-148.5 4840,-148.5 4840,-167.5"/>
<text text-anchor="middle" x="4788" y="-155.5" font-family="Helvetica,sans-Serif" font-size="10.00">src/d/d_drawlist.cpp</text>
</a>
</g>
</g>
<!-- Node1&#45;&gt;Node150 -->
<g id="edge65" class="edge">
<title>Node1&#45;&gt;Node150</title>
<path fill="none" stroke="#63b8ff" d="M3650.46,-216.54C3861.8,-213.24 4516.79,-200.97 4727,-173 4735.83,-171.83 4745.26,-169.97 4754.01,-167.98"/>
<polygon fill="#63b8ff" stroke="#63b8ff" points="3650.71,-213.04 3640.77,-216.69 3650.82,-220.04 3650.71,-213.04"/>
</g>
<!-- Node3 -->
<g id="node3" class="node">
<title>Node3</title>
<g id="a_node3"><a xlink:href="d__a__alink_8h.html" target="_top" xlink:title=" ">
<polygon fill="#fff0f0" stroke="red" points="502,-96 386,-96 386,-77 502,-77 502,-96"/>
<text text-anchor="middle" x="444" y="-84" font-family="Helvetica,sans-Serif" font-size="10.00">include/d/a/d_a_alink.h</text>
</a>
</g>
</g>
<!-- Node2&#45;&gt;Node3 -->
<g id="edge2" class="edge">
<title>Node2&#45;&gt;Node3</title>
<path fill="none" stroke="#63b8ff" d="M1792.87,-155.65C1554.45,-150.95 793.11,-134.16 549,-107 527.62,-104.62 504.06,-100.4 484.68,-96.48"/>
<polygon fill="#63b8ff" stroke="#63b8ff" points="1792.57,-159.14 1802.64,-155.84 1792.71,-152.14 1792.57,-159.14"/>
</g>
<!-- Node5 -->
<g id="node4" class="node">
<title>Node5</title>
<g id="a_node4"><a xlink:href="d__a__player_8cpp.html" target="_top" xlink:title=" ">
<polygon fill="white" stroke="#666666" points="652,-24.5 538,-24.5 538,-5.5 652,-5.5 652,-24.5"/>
<text text-anchor="middle" x="595" y="-12.5" font-family="Helvetica,sans-Serif" font-size="10.00">src/d/a/d_a_player.cpp</text>
</a>
</g>
</g>
<!-- Node2&#45;&gt;Node5 -->
<g id="edge16" class="edge">
<title>Node2&#45;&gt;Node5</title>
<path fill="none" stroke="#63b8ff" d="M1792.91,-155.36C1549.38,-149.61 769.67,-129.53 721,-107 698.45,-96.56 702.47,-81.43 683,-66 661.38,-48.87 633.18,-33.94 614.6,-24.96"/>
<polygon fill="#63b8ff" stroke="#63b8ff" points="1792.51,-158.85 1802.59,-155.58 1792.67,-151.85 1792.51,-158.85"/>
</g>
<!-- Node12 -->
<g id="node7" class="node">
<title>Node12</title>
<g id="a_node7"><a xlink:href="d__a__npc_8h.html" target="_top" xlink:title=" ">
<polygon fill="#fff0f0" stroke="red" points="1084.5,-96 973.5,-96 973.5,-77 1084.5,-77 1084.5,-96"/>
<text text-anchor="middle" x="1029" y="-84" font-family="Helvetica,sans-Serif" font-size="10.00">include/d/a/d_a_npc.h</text>
</a>
</g>
</g>
<!-- Node2&#45;&gt;Node12 -->
<g id="edge6" class="edge">
<title>Node2&#45;&gt;Node12</title>
<path fill="none" stroke="#63b8ff" d="M1793.2,-157.85C1655.97,-158.27 1347.47,-153.36 1093,-107 1079.74,-104.58 1065.36,-100.35 1053.59,-96.45"/>
<polygon fill="#63b8ff" stroke="#63b8ff" points="1792.86,-161.35 1802.85,-157.81 1792.83,-154.35 1792.86,-161.35"/>
</g>
<!-- Node18 -->
<g id="node8" class="node">
<title>Node18</title>
<g id="a_node8"><a xlink:href="d__a__arrow_8h.html" target="_top" xlink:title=" ">
<polygon fill="white" stroke="#666666" points="1203.5,-101.5 1102.5,-101.5 1102.5,-71.5 1203.5,-71.5 1203.5,-101.5"/>
<text text-anchor="start" x="1110.5" y="-89.5" font-family="Helvetica,sans-Serif" font-size="10.00">include/rel/d/a/d_a</text>
<text text-anchor="middle" x="1153" y="-78.5" font-family="Helvetica,sans-Serif" font-size="10.00">_arrow/d_a_arrow.h</text>
</a>
</g>
</g>
<!-- Node2&#45;&gt;Node18 -->
<g id="edge7" class="edge">
<title>Node2&#45;&gt;Node18</title>
<path fill="none" stroke="#63b8ff" d="M1792.82,-157.03C1671.77,-155.85 1420.68,-148.1 1213,-107 1206.45,-105.7 1199.61,-103.92 1192.99,-101.95"/>
<polygon fill="#63b8ff" stroke="#63b8ff" points="1792.58,-160.53 1802.61,-157.12 1792.64,-153.53 1792.58,-160.53"/>
</g>
<!-- Node19 -->
<g id="node9" class="node">
<title>Node19</title>
<g id="a_node9"><a xlink:href="d__a__crod_8h.html" target="_top" xlink:title=" ">
<polygon fill="#fff0f0" stroke="red" points="1318,-101.5 1222,-101.5 1222,-71.5 1318,-71.5 1318,-101.5"/>
<text text-anchor="start" x="1230" y="-89.5" font-family="Helvetica,sans-Serif" font-size="10.00">include/rel/d/a/d_a</text>
<text text-anchor="middle" x="1270" y="-78.5" font-family="Helvetica,sans-Serif" font-size="10.00">_crod/d_a_crod.h</text>
</a>
</g>
</g>
<!-- Node2&#45;&gt;Node19 -->
<g id="edge8" class="edge">
<title>Node2&#45;&gt;Node19</title>
<path fill="none" stroke="#63b8ff" d="M1792.89,-155.7C1688.88,-152.62 1491.22,-142.2 1327,-107 1320.86,-105.68 1314.47,-103.91 1308.28,-101.98"/>
<polygon fill="#63b8ff" stroke="#63b8ff" points="1792.58,-159.2 1802.67,-155.98 1792.77,-152.2 1792.58,-159.2"/>
</g>
<!-- Node20 -->
<g id="node10" class="node">
<title>Node20</title>
<g id="a_node10"><a xlink:href="d__a__do_8h.html" target="_top" xlink:title=" ">
<polygon fill="white" stroke="#666666" points="1432,-101.5 1336,-101.5 1336,-71.5 1432,-71.5 1432,-101.5"/>
<text text-anchor="start" x="1344" y="-89.5" font-family="Helvetica,sans-Serif" font-size="10.00">include/rel/d/a/d_a</text>
<text text-anchor="middle" x="1384" y="-78.5" font-family="Helvetica,sans-Serif" font-size="10.00">_do/d_a_do.h</text>
</a>
</g>
</g>
<!-- Node2&#45;&gt;Node20 -->
<g id="edge9" class="edge">
<title>Node2&#45;&gt;Node20</title>
<path fill="none" stroke="#63b8ff" d="M1792.95,-153.17C1707.95,-147.59 1562.79,-134.68 1441,-107 1434.98,-105.63 1428.71,-103.86 1422.62,-101.94"/>
<polygon fill="#63b8ff" stroke="#63b8ff" points="1792.57,-156.65 1802.77,-153.8 1793.01,-149.67 1792.57,-156.65"/>
</g>
<!-- Node21 -->
<g id="node11" class="node">
<title>Node21</title>
<g id="a_node11"><a xlink:href="d__a__guard__mng_8h.html" target="_top" xlink:title=" ">
<polygon fill="white" stroke="#666666" points="1599.5,-101.5 1450.5,-101.5 1450.5,-71.5 1599.5,-71.5 1599.5,-101.5"/>
<text text-anchor="start" x="1458.5" y="-89.5" font-family="Helvetica,sans-Serif" font-size="10.00">include/rel/d/a/d_a</text>
<text text-anchor="middle" x="1525" y="-78.5" font-family="Helvetica,sans-Serif" font-size="10.00">_guard_mng/d_a_guard_mng.h</text>
</a>
</g>
</g>
<!-- Node2&#45;&gt;Node21 -->
<g id="edge10" class="edge">
<title>Node2&#45;&gt;Node21</title>
<path fill="none" stroke="#63b8ff" d="M1805.04,-146.01C1752.86,-136.29 1675.28,-121.44 1608,-107 1600.62,-105.42 1592.88,-103.69 1585.23,-101.94"/>
<polygon fill="#63b8ff" stroke="#63b8ff" points="1804.14,-149.4 1814.61,-147.79 1805.41,-142.52 1804.14,-149.4"/>
</g>
<!-- Node22 -->
<g id="node12" class="node">
<title>Node22</title>
<g id="a_node12"><a xlink:href="d__a__horse_8h.html" target="_top" xlink:title=" ">
<polygon fill="#fff0f0" stroke="red" points="1718.5,-101.5 1617.5,-101.5 1617.5,-71.5 1718.5,-71.5 1718.5,-101.5"/>
<text text-anchor="start" x="1625.5" y="-89.5" font-family="Helvetica,sans-Serif" font-size="10.00">include/rel/d/a/d_a</text>
<text text-anchor="middle" x="1668" y="-78.5" font-family="Helvetica,sans-Serif" font-size="10.00">_horse/d_a_horse.h</text>
</a>
</g>
</g>
<!-- Node2&#45;&gt;Node22 -->
<g id="edge11" class="edge">
<title>Node2&#45;&gt;Node22</title>
<path fill="none" stroke="#63b8ff" d="M1828.85,-144.25C1794.97,-132.3 1744.39,-114.45 1709.02,-101.97"/>
<polygon fill="#63b8ff" stroke="#63b8ff" points="1827.63,-147.53 1838.22,-147.55 1829.96,-140.93 1827.63,-147.53"/>
</g>
<!-- Node28 -->
<g id="node13" class="node">
<title>Node28</title>
<g id="a_node13"><a xlink:href="d__a__tag__river__back_8h.html" target="_top" xlink:title=" ">
<polygon fill="white" stroke="#666666" points="1849,-107 1737,-107 1737,-66 1849,-66 1849,-107"/>
<text text-anchor="start" x="1745" y="-95" font-family="Helvetica,sans-Serif" font-size="10.00">include/rel/d/a/tag</text>
<text text-anchor="start" x="1745" y="-84" font-family="Helvetica,sans-Serif" font-size="10.00">/d_a_tag_river_back</text>
<text text-anchor="middle" x="1793" y="-73" font-family="Helvetica,sans-Serif" font-size="10.00">/d_a_tag_river_back.h</text>
</a>
</g>
</g>
<!-- Node2&#45;&gt;Node28 -->
<g id="edge12" class="edge">
<title>Node2&#45;&gt;Node28</title>
<path fill="none" stroke="#63b8ff" d="M1847.7,-140.3C1837.41,-130.37 1824.31,-117.72 1813.51,-107.29"/>
<polygon fill="#63b8ff" stroke="#63b8ff" points="1845.17,-142.72 1854.79,-147.15 1850.03,-137.68 1845.17,-142.72"/>
</g>
<!-- Node29 -->
<g id="node14" class="node">
<title>Node29</title>
<g id="a_node14"><a xlink:href="c__damagereaction_8cpp.html" target="_top" xlink:title=" ">
<polygon fill="white" stroke="#666666" points="2006.5,-96 1867.5,-96 1867.5,-77 2006.5,-77 2006.5,-96"/>
<text text-anchor="middle" x="1937" y="-84" font-family="Helvetica,sans-Serif" font-size="10.00">src/c/c_damagereaction.cpp</text>
</a>
</g>
</g>
<!-- Node2&#45;&gt;Node29 -->
<g id="edge13" class="edge">
<title>Node2&#45;&gt;Node29</title>
<path fill="none" stroke="#63b8ff" d="M1882.18,-140.42C1896.46,-126.63 1916.25,-107.53 1927.73,-96.45"/>
<polygon fill="#63b8ff" stroke="#63b8ff" points="1879.97,-137.68 1875.21,-147.15 1884.83,-142.72 1879.97,-137.68"/>
</g>
<!-- Node30 -->
<g id="node15" class="node">
<title>Node30</title>
<g id="a_node15"><a xlink:href="d__a__npc__cd2_8cpp.html" target="_top" xlink:title=" ">
<polygon fill="white" stroke="#666666" points="2149.5,-96 2024.5,-96 2024.5,-77 2149.5,-77 2149.5,-96"/>
<text text-anchor="middle" x="2087" y="-84" font-family="Helvetica,sans-Serif" font-size="10.00">src/d/a/d_a_npc_cd2.cpp</text>
</a>
</g>
</g>
<!-- Node2&#45;&gt;Node30 -->
<g id="edge14" class="edge">
<title>Node2&#45;&gt;Node30</title>
<path fill="none" stroke="#63b8ff" d="M1904.49,-144.64C1948.73,-130.79 2019.39,-108.67 2058.54,-96.41"/>
<polygon fill="#63b8ff" stroke="#63b8ff" points="1903.51,-141.28 1895.01,-147.6 1905.6,-147.96 1903.51,-141.28"/>
</g>
<!-- Node31 -->
<g id="node16" class="node">
<title>Node31</title>
<g id="a_node16"><a xlink:href="d__a__obj__item_8cpp.html" target="_top" xlink:title=" ">
<polygon fill="white" stroke="#666666" points="2292.5,-96 2167.5,-96 2167.5,-77 2292.5,-77 2292.5,-96"/>
<text text-anchor="middle" x="2230" y="-84" font-family="Helvetica,sans-Serif" font-size="10.00">src/d/a/d_a_obj_item.cpp</text>
</a>
</g>
</g>
<!-- Node2&#45;&gt;Node31 -->
<g id="edge15" class="edge">
<title>Node2&#45;&gt;Node31</title>
<path fill="none" stroke="#63b8ff" d="M1937.1,-146.66C1996.63,-137.65 2083.2,-123.47 2158,-107 2171.79,-103.96 2186.88,-99.98 2199.68,-96.4"/>
<polygon fill="#63b8ff" stroke="#63b8ff" points="1936.8,-143.17 1927.43,-148.11 1937.84,-150.09 1936.8,-143.17"/>
</g>
<!-- Node32 -->
<g id="node17" class="node">
<title>Node32</title>
<g id="a_node17"><a xlink:href="d__bg__s__acch_8cpp.html" target="_top" xlink:title=" ">
<polygon fill="white" stroke="#666666" points="2441.5,-96 2310.5,-96 2310.5,-77 2441.5,-77 2441.5,-96"/>
<text text-anchor="middle" x="2376" y="-84" font-family="Helvetica,sans-Serif" font-size="10.00">src/d/bg/d_bg_s_acch.cpp</text>
</a>
</g>
</g>
<!-- Node2&#45;&gt;Node32 -->
<g id="edge17" class="edge">
<title>Node2&#45;&gt;Node32</title>
<path fill="none" stroke="#63b8ff" d="M1937.01,-151.85C2023.83,-144.93 2173.94,-130.68 2301,-107 2315.81,-104.24 2332.02,-100.16 2345.57,-96.45"/>
<polygon fill="#63b8ff" stroke="#63b8ff" points="1936.91,-148.35 1927.21,-152.62 1937.45,-155.33 1936.91,-148.35"/>
</g>
<!-- Node33 -->
<g id="node18" class="node">
<title>Node33</title>
<g id="a_node18"><a xlink:href="d__cc__uty_8cpp.html" target="_top" xlink:title=" ">
<polygon fill="white" stroke="#666666" points="2572,-96 2460,-96 2460,-77 2572,-77 2572,-96"/>
<text text-anchor="middle" x="2516" y="-84" font-family="Helvetica,sans-Serif" font-size="10.00">src/d/cc/d_cc_uty.cpp</text>
</a>
</g>
</g>
<!-- Node2&#45;&gt;Node33 -->
<g id="edge18" class="edge">
<title>Node2&#45;&gt;Node33</title>
<path fill="none" stroke="#63b8ff" d="M1937.14,-155.51C2048.21,-152.17 2267.39,-141.41 2450,-107 2463.5,-104.46 2478.19,-100.26 2490.28,-96.41"/>
<polygon fill="#63b8ff" stroke="#63b8ff" points="1937.17,-152.01 1927.27,-155.79 1937.37,-159.01 1937.17,-152.01"/>
</g>
<!-- Node34 -->
<g id="node19" class="node">
<title>Node34</title>
<g id="a_node19"><a xlink:href="d__attention_8cpp.html" target="_top" xlink:title=" ">
<polygon fill="white" stroke="#666666" points="2697.5,-96 2590.5,-96 2590.5,-77 2697.5,-77 2697.5,-96"/>
<text text-anchor="middle" x="2644" y="-84" font-family="Helvetica,sans-Serif" font-size="10.00">src/d/d_attention.cpp</text>
</a>
</g>
</g>
<!-- Node2&#45;&gt;Node34 -->
<g id="edge19" class="edge">
<title>Node2&#45;&gt;Node34</title>
<path fill="none" stroke="#63b8ff" d="M1937.3,-157.42C2067.28,-156.98 2348.56,-150.49 2581,-107 2594.05,-104.56 2608.21,-100.32 2619.8,-96.43"/>
<polygon fill="#63b8ff" stroke="#63b8ff" points="1937.45,-153.92 1927.46,-157.44 1937.47,-160.92 1937.45,-153.92"/>
</g>
<!-- Node35 -->
<g id="node20" class="node">
<title>Node35</title>
<g id="a_node20"><a xlink:href="d__cam__param_8cpp.html" target="_top" xlink:title=" ">
<polygon fill="white" stroke="#666666" points="2836.5,-96 2715.5,-96 2715.5,-77 2836.5,-77 2836.5,-96"/>
<text text-anchor="middle" x="2776" y="-84" font-family="Helvetica,sans-Serif" font-size="10.00">src/d/d_cam_param.cpp</text>
</a>
</g>
</g>
<!-- Node2&#45;&gt;Node35 -->
<g id="edge20" class="edge">
<title>Node2&#45;&gt;Node35</title>
<path fill="none" stroke="#63b8ff" d="M1937.37,-157.84C2083.65,-158.41 2424.55,-154.02 2706,-107 2720.43,-104.59 2736.16,-100.36 2749.04,-96.45"/>
<polygon fill="#63b8ff" stroke="#63b8ff" points="1937.45,-154.34 1927.43,-157.79 1937.42,-161.34 1937.45,-154.34"/>
</g>
<!-- Node36 -->
<g id="node21" class="node">
<title>Node36</title>
<g id="a_node21"><a xlink:href="d__event__manager_8cpp.html" target="_top" xlink:title=" ">
<polygon fill="white" stroke="#666666" points="2957.5,-101.5 2854.5,-101.5 2854.5,-71.5 2957.5,-71.5 2957.5,-101.5"/>
<text text-anchor="start" x="2862.5" y="-89.5" font-family="Helvetica,sans-Serif" font-size="10.00">src/d/event/d_event</text>
<text text-anchor="middle" x="2906" y="-78.5" font-family="Helvetica,sans-Serif" font-size="10.00">_manager.cpp</text>
</a>
</g>
</g>
<!-- Node2&#45;&gt;Node36 -->
<g id="edge21" class="edge">
<title>Node2&#45;&gt;Node36</title>
<path fill="none" stroke="#63b8ff" d="M1937.11,-155.73C2132.78,-151.91 2670.71,-138.75 2845,-107 2851.78,-105.76 2858.86,-103.98 2865.68,-101.99"/>
<polygon fill="#63b8ff" stroke="#63b8ff" points="1937.27,-152.23 1927.34,-155.92 1937.41,-159.23 1937.27,-152.23"/>
</g>
<!-- Node37 -->
<g id="node22" class="node">
<title>Node37</title>
<g id="a_node22"><a xlink:href="d__kankyo__rain_8cpp.html" target="_top" xlink:title=" ">
<polygon fill="white" stroke="#666666" points="674,-101.5 558,-101.5 558,-71.5 674,-71.5 674,-101.5"/>
<text text-anchor="start" x="566" y="-89.5" font-family="Helvetica,sans-Serif" font-size="10.00">src/d/kankyo/d_kankyo</text>
<text text-anchor="middle" x="616" y="-78.5" font-family="Helvetica,sans-Serif" font-size="10.00">_rain.cpp</text>
</a>
</g>
</g>
<!-- Node2&#45;&gt;Node37 -->
<g id="edge22" class="edge">
<title>Node2&#45;&gt;Node37</title>
<path fill="none" stroke="#63b8ff" d="M1792.65,-156.03C1570.87,-152.72 902.58,-140.19 688,-107 679.94,-105.75 671.48,-103.94 663.32,-101.91"/>
<polygon fill="#63b8ff" stroke="#63b8ff" points="1792.56,-159.53 1802.61,-156.18 1792.66,-152.53 1792.56,-159.53"/>
</g>
<!-- Node38 -->
<g id="node23" class="node">
<title>Node38</title>
<g id="a_node23"><a xlink:href="d__map__path__dmap_8cpp.html" target="_top" xlink:title=" ">
<polygon fill="white" stroke="#666666" points="3130,-101.5 3014,-101.5 3014,-71.5 3130,-71.5 3130,-101.5"/>
<text text-anchor="start" x="3022" y="-89.5" font-family="Helvetica,sans-Serif" font-size="10.00">src/d/map/d_map_path</text>
<text text-anchor="middle" x="3072" y="-78.5" font-family="Helvetica,sans-Serif" font-size="10.00">_dmap.cpp</text>
</a>
</g>
</g>
<!-- Node2&#45;&gt;Node38 -->
<g id="edge23" class="edge">
<title>Node2&#45;&gt;Node38</title>
<path fill="none" stroke="#63b8ff" d="M1937.33,-155.9C2153.74,-152.27 2793.91,-139.05 3000,-107 3007.93,-105.77 3016.25,-103.99 3024.29,-102"/>
<polygon fill="#63b8ff" stroke="#63b8ff" points="1937.27,-152.4 1927.33,-156.06 1937.39,-159.4 1937.27,-152.4"/>
</g>
<!-- Node39 -->
<g id="node24" class="node">
<title>Node39</title>
<g id="a_node24"><a xlink:href="d__menu__window_8cpp.html" target="_top" xlink:title=" ">
<polygon fill="white" stroke="#666666" points="3877.5,-24.5 3718.5,-24.5 3718.5,-5.5 3877.5,-5.5 3877.5,-24.5"/>
<text text-anchor="middle" x="3798" y="-12.5" font-family="Helvetica,sans-Serif" font-size="10.00">src/d/menu/d_menu_window.cpp</text>
</a>
</g>
</g>
<!-- Node2&#45;&gt;Node39 -->
<g id="edge24" class="edge">
<title>Node2&#45;&gt;Node39</title>
<path fill="none" stroke="#63b8ff" d="M1937.1,-156.88C2167.17,-156.08 2874.1,-150.1 2967,-107 2989.54,-96.54 2982.55,-76.65 3005,-66 3068.25,-35.98 3529.83,-22.13 3718.24,-17.68"/>
<polygon fill="#63b8ff" stroke="#63b8ff" points="1937.37,-153.38 1927.38,-156.92 1937.39,-160.38 1937.37,-153.38"/>
</g>
<!-- Node40 -->
<g id="node25" class="node">
<title>Node40</title>
<g id="a_node25"><a xlink:href="d__s__play_8cpp.html" target="_top" xlink:title=" ">
<polygon fill="white" stroke="#666666" points="836,-96 730,-96 730,-77 836,-77 836,-96"/>
<text text-anchor="middle" x="783" y="-84" font-family="Helvetica,sans-Serif" font-size="10.00">src/d/s/d_s_play.cpp</text>
</a>
</g>
</g>
<!-- Node2&#45;&gt;Node40 -->
<g id="edge25" class="edge">
<title>Node2&#45;&gt;Node40</title>
<path fill="none" stroke="#63b8ff" d="M1792.76,-155.86C1591.52,-152.29 1027.34,-139.59 845,-107 832,-104.68 817.94,-100.4 806.49,-96.45"/>
<polygon fill="#63b8ff" stroke="#63b8ff" points="1792.49,-159.35 1802.55,-156.03 1792.62,-152.35 1792.49,-159.35"/>
</g>
<!-- Node41 -->
<g id="node26" class="node">
<title>Node41</title>
<g id="a_node26"><a xlink:href="f__op__actor__mng_8cpp.html" target="_top" xlink:title=" ">
<polygon fill="white" stroke="#666666" points="955.5,-101.5 854.5,-101.5 854.5,-71.5 955.5,-71.5 955.5,-101.5"/>
<text text-anchor="start" x="862.5" y="-89.5" font-family="Helvetica,sans-Serif" font-size="10.00">src/f_op/f_op_actor</text>
<text text-anchor="middle" x="905" y="-78.5" font-family="Helvetica,sans-Serif" font-size="10.00">_mng.cpp</text>
</a>
</g>
</g>
<!-- Node2&#45;&gt;Node41 -->
<g id="edge26" class="edge">
<title>Node2&#45;&gt;Node41</title>
<path fill="none" stroke="#63b8ff" d="M1792.69,-155.44C1607.99,-151.08 1122.32,-137.01 964,-107 957.43,-105.75 950.58,-103.97 943.97,-101.98"/>
<polygon fill="#63b8ff" stroke="#63b8ff" points="1792.56,-158.94 1802.64,-155.68 1792.72,-151.94 1792.56,-158.94"/>
</g>
<!-- Node42 -->
<g id="node27" class="node">
<title>Node42</title>
<g id="a_node27"><a xlink:href="m__Do__graphic_8cpp.html" target="_top" xlink:title=" ">
<polygon fill="white" stroke="#666666" points="3290,-96 3148,-96 3148,-77 3290,-77 3290,-96"/>
<text text-anchor="middle" x="3219" y="-84" font-family="Helvetica,sans-Serif" font-size="10.00">src/m_Do/m_Do_graphic.cpp</text>
</a>
</g>
</g>
<!-- Node2&#45;&gt;Node42 -->
<g id="edge27" class="edge">
<title>Node2&#45;&gt;Node42</title>
<path fill="none" stroke="#63b8ff" d="M1937.24,-156.06C2170.85,-152.74 2904.3,-139.87 3139,-107 3155.56,-104.68 3173.7,-100.41 3188.51,-96.45"/>
<polygon fill="#63b8ff" stroke="#63b8ff" points="1937.3,-152.56 1927.35,-156.2 1937.4,-159.56 1937.3,-152.56"/>
</g>
<!-- Node3&#45;&gt;Node5 -->
<g id="edge3" class="edge">
<title>Node3&#45;&gt;Node5</title>
<path fill="none" stroke="#63b8ff" d="M473.79,-71.79C503.99,-57.89 549.86,-36.78 575.64,-24.91"/>
<polygon fill="#63b8ff" stroke="#63b8ff" points="472.43,-68.56 464.81,-75.92 475.35,-74.92 472.43,-68.56"/>
</g>
<!-- Node7 -->
<g id="node5" class="node">
<title>Node7</title>
<g id="a_node5"><a xlink:href="d__camera_8cpp.html" target="_top" xlink:title=" ">
<polygon fill="white" stroke="#666666" points="246,-24.5 144,-24.5 144,-5.5 246,-5.5 246,-24.5"/>
<text text-anchor="middle" x="195" y="-12.5" font-family="Helvetica,sans-Serif" font-size="10.00">src/d/d_camera.cpp</text>
</a>
</g>
</g>
<!-- Node3&#45;&gt;Node7 -->
<g id="edge4" class="edge">
<title>Node3&#45;&gt;Node7</title>
<path fill="none" stroke="#63b8ff" d="M400.97,-73.49C351.43,-59.66 271.21,-37.27 226.92,-24.91"/>
<polygon fill="#63b8ff" stroke="#63b8ff" points="399.93,-76.83 410.5,-76.15 401.81,-70.09 399.93,-76.83"/>
</g>
<!-- Node9 -->
<g id="node6" class="node">
<title>Node9</title>
<g id="a_node6"><a xlink:href="d__meter2__draw_8cpp.html" target="_top" xlink:title=" ">
<polygon fill="white" stroke="#666666" points="413,-30 303,-30 303,0 413,0 413,-30"/>
<text text-anchor="start" x="311" y="-18" font-family="Helvetica,sans-Serif" font-size="10.00">src/d/meter/d_meter2</text>
<text text-anchor="middle" x="358" y="-7" font-family="Helvetica,sans-Serif" font-size="10.00">_draw.cpp</text>
</a>
</g>
</g>
<!-- Node3&#45;&gt;Node9 -->
<g id="edge5" class="edge">
<title>Node3&#45;&gt;Node9</title>
<path fill="none" stroke="#63b8ff" d="M424.34,-69.61C409.67,-57.76 389.82,-41.72 375.66,-30.27"/>
<polygon fill="#63b8ff" stroke="#63b8ff" points="421.95,-72.18 431.93,-75.75 426.35,-66.74 421.95,-72.18"/>
</g>
<!-- Node43&#45;&gt;Node7 -->
<g id="edge30" class="edge">
<title>Node43&#45;&gt;Node7</title>
<path fill="none" stroke="#63b8ff" d="M132.55,-138.29C148.27,-107.52 178.98,-47.37 190.5,-24.82"/>
<polygon fill="#63b8ff" stroke="#63b8ff" points="129.62,-136.33 128.19,-146.83 135.86,-139.52 129.62,-136.33"/>
</g>
<!-- Node44 -->
<g id="node29" class="node">
<title>Node44</title>
<g id="a_node29"><a xlink:href="f__op__camera__mng_8h.html" target="_top" xlink:title=" ">
<polygon fill="#fff0f0" stroke="red" points="128,-101.5 0,-101.5 0,-71.5 128,-71.5 128,-101.5"/>
<text text-anchor="start" x="8" y="-89.5" font-family="Helvetica,sans-Serif" font-size="10.00">include/f_op/f_op_camera</text>
<text text-anchor="middle" x="64" y="-78.5" font-family="Helvetica,sans-Serif" font-size="10.00">_mng.h</text>
</a>
</g>
</g>
<!-- Node43&#45;&gt;Node44 -->
<g id="edge29" class="edge">
<title>Node43&#45;&gt;Node44</title>
<path fill="none" stroke="#63b8ff" d="M108.34,-139.74C98.42,-128.04 85.46,-112.78 76.12,-101.77"/>
<polygon fill="#63b8ff" stroke="#63b8ff" points="105.41,-141.69 114.55,-147.04 110.74,-137.16 105.41,-141.69"/>
</g>
<!-- Node202&#45;&gt;Node9 -->
<g id="edge33" class="edge">
<title>Node202&#45;&gt;Node9</title>
<path fill="none" stroke="#63b8ff" d="M383.6,-131.83C381.36,-123.92 378.98,-115.12 377,-107 370.42,-80.03 364.1,-48.22 360.67,-30.25"/>
<polygon fill="#63b8ff" stroke="#63b8ff" points="380.16,-132.53 386.28,-141.17 386.88,-130.59 380.16,-132.53"/>
</g>
<!-- Node155 -->
<g id="node31" class="node">
<title>Node155</title>
<g id="a_node31"><a xlink:href="d__kantera__icon__meter_8cpp.html" target="_top" xlink:title=" ">
<polygon fill="white" stroke="#666666" points="329.5,-101.5 222.5,-101.5 222.5,-71.5 329.5,-71.5 329.5,-101.5"/>
<text text-anchor="start" x="230.5" y="-89.5" font-family="Helvetica,sans-Serif" font-size="10.00">src/d/d_kantera_icon</text>
<text text-anchor="middle" x="276" y="-78.5" font-family="Helvetica,sans-Serif" font-size="10.00">_meter.cpp</text>
</a>
</g>
</g>
<!-- Node202&#45;&gt;Node155 -->
<g id="edge32" class="edge">
<title>Node202&#45;&gt;Node155</title>
<path fill="none" stroke="#63b8ff" d="M357.38,-136.68C338.91,-125.52 316.44,-111.94 299.8,-101.88"/>
<polygon fill="#63b8ff" stroke="#63b8ff" points="355.51,-139.64 365.88,-141.82 359.13,-133.65 355.51,-139.64"/>
</g>
<!-- Node204 -->
<g id="node33" class="node">
<title>Node204</title>
<g id="a_node33"><a xlink:href="d__name_8h.html" target="_top" xlink:title=" ">
<polygon fill="#fff0f0" stroke="red" points="3631.5,-96 3530.5,-96 3530.5,-77 3631.5,-77 3631.5,-96"/>
<text text-anchor="middle" x="3581" y="-84" font-family="Helvetica,sans-Serif" font-size="10.00">include/d/d_name.h</text>
</a>
</g>
</g>
<!-- Node203&#45;&gt;Node204 -->
<g id="edge35" class="edge">
<title>Node203&#45;&gt;Node204</title>
<path fill="none" stroke="#63b8ff" d="M3493.22,-137.1C3517,-123.66 3547.22,-106.59 3565.29,-96.38"/>
<polygon fill="#63b8ff" stroke="#63b8ff" points="3491.79,-133.89 3484.8,-141.85 3495.23,-139.98 3491.79,-133.89"/>
</g>
<!-- Node205 -->
<g id="node34" class="node">
<title>Node205</title>
<g id="a_node34"><a xlink:href="d__menu__dmap_8h.html" target="_top" xlink:title=" ">
<polygon fill="#fff0f0" stroke="red" points="3770,-101.5 3650,-101.5 3650,-71.5 3770,-71.5 3770,-101.5"/>
<text text-anchor="start" x="3658" y="-89.5" font-family="Helvetica,sans-Serif" font-size="10.00">include/d/menu/d_menu</text>
<text text-anchor="middle" x="3710" y="-78.5" font-family="Helvetica,sans-Serif" font-size="10.00">_dmap.h</text>
</a>
</g>
</g>
<!-- Node203&#45;&gt;Node205 -->
<g id="edge36" class="edge">
<title>Node203&#45;&gt;Node205</title>
<path fill="none" stroke="#63b8ff" d="M3516.59,-141.13C3552.52,-131.37 3599.45,-118.55 3641,-107 3646.88,-105.37 3653.03,-103.64 3659.14,-101.93"/>
<polygon fill="#63b8ff" stroke="#63b8ff" points="3516,-137.66 3507.27,-143.66 3517.84,-144.42 3516,-137.66"/>
</g>
<!-- Node163 -->
<g id="node35" class="node">
<title>Node163</title>
<g id="a_node35"><a xlink:href="d__select__cursor_8cpp.html" target="_top" xlink:title=" ">
<polygon fill="white" stroke="#666666" points="3512,-96 3384,-96 3384,-77 3512,-77 3512,-96"/>
<text text-anchor="middle" x="3448" y="-84" font-family="Helvetica,sans-Serif" font-size="10.00">src/d/d_select_cursor.cpp</text>
</a>
</g>
</g>
<!-- Node203&#45;&gt;Node163 -->
<g id="edge38" class="edge">
<title>Node203&#45;&gt;Node163</title>
<path fill="none" stroke="#63b8ff" d="M3454.33,-131.46C3452.54,-119.07 3450.52,-104.99 3449.25,-96.18"/>
<polygon fill="#63b8ff" stroke="#63b8ff" points="3450.82,-131.7 3455.71,-141.1 3457.75,-130.7 3450.82,-131.7"/>
</g>
<!-- Node205&#45;&gt;Node39 -->
<g id="edge37" class="edge">
<title>Node205&#45;&gt;Node39</title>
<path fill="none" stroke="#63b8ff" d="M3737.04,-64.14C3753.74,-50.95 3774.29,-34.72 3786.76,-24.88"/>
<polygon fill="#63b8ff" stroke="#63b8ff" points="3735.1,-61.22 3729.42,-70.16 3739.44,-66.71 3735.1,-61.22"/>
</g>
<!-- Node208&#45;&gt;Node38 -->
<g id="edge41" class="edge">
<title>Node208&#45;&gt;Node38</title>
<path fill="none" stroke="#63b8ff" d="M3065.07,-131.26C3066.65,-121.33 3068.38,-110.36 3069.72,-101.88"/>
<polygon fill="#63b8ff" stroke="#63b8ff" points="3061.62,-130.68 3063.52,-141.1 3068.54,-131.77 3061.62,-130.68"/>
</g>
<!-- Node212&#45;&gt;Node39 -->
<g id="edge43" class="edge">
<title>Node212&#45;&gt;Node39</title>
<path fill="none" stroke="#63b8ff" d="M3241.91,-138.18C3260.5,-129.88 3281.47,-119.22 3299,-107 3320.4,-92.08 3317.41,-77.14 3341,-66 3405.95,-35.33 3605.5,-23.07 3718.26,-18.49"/>
<polygon fill="#63b8ff" stroke="#63b8ff" points="3240.75,-134.87 3232.97,-142.07 3243.54,-141.29 3240.75,-134.87"/>
</g>
<!-- Node212&#45;&gt;Node42 -->
<g id="edge44" class="edge">
<title>Node212&#45;&gt;Node42</title>
<path fill="none" stroke="#63b8ff" d="M3203.05,-131.84C3207.54,-119.36 3212.68,-105.08 3215.88,-96.18"/>
<polygon fill="#63b8ff" stroke="#63b8ff" points="3199.78,-130.58 3199.69,-141.18 3206.37,-132.95 3199.78,-130.58"/>
</g>
<!-- Node213&#45;&gt;Node39 -->
<g id="edge46" class="edge">
<title>Node213&#45;&gt;Node39</title>
<path fill="none" stroke="#63b8ff" d="M3861.74,-131.28C3861.97,-112.3 3860.01,-86.36 3850,-66 3841.37,-48.47 3823.95,-33.74 3811.66,-24.9"/>
<polygon fill="#63b8ff" stroke="#63b8ff" points="3858.25,-130.98 3861.39,-141.1 3865.25,-131.23 3858.25,-130.98"/>
</g>
<!-- Node214&#45;&gt;Node39 -->
<g id="edge48" class="edge">
<title>Node214&#45;&gt;Node39</title>
<path fill="none" stroke="#63b8ff" d="M3968.55,-136.22C3942.41,-117.77 3903.17,-90.08 3869,-66 3848.54,-51.58 3824.76,-34.84 3810.57,-24.85"/>
<polygon fill="#63b8ff" stroke="#63b8ff" points="3966.47,-139.03 3976.66,-141.94 3970.5,-133.31 3966.47,-139.03"/>
</g>
<!-- Node215&#45;&gt;Node39 -->
<g id="edge50" class="edge">
<title>Node215&#45;&gt;Node39</title>
<path fill="none" stroke="#63b8ff" d="M4091.07,-138.26C4017.41,-107.53 3873.7,-47.58 3819.44,-24.94"/>
<polygon fill="#63b8ff" stroke="#63b8ff" points="4089.44,-141.37 4100.02,-141.99 4092.14,-134.91 4089.44,-141.37"/>
</g>
<!-- Node217&#45;&gt;Node39 -->
<g id="edge52" class="edge">
<title>Node217&#45;&gt;Node39</title>
<path fill="none" stroke="#63b8ff" d="M4218.57,-139.16C4159.78,-120.39 4064.1,-90.25 3981,-66 3929.31,-50.92 3869,-34.7 3832.16,-24.96"/>
<polygon fill="#63b8ff" stroke="#63b8ff" points="4217.44,-142.47 4228.03,-142.18 4219.57,-135.81 4217.44,-142.47"/>
</g>
<!-- Node218&#45;&gt;Node39 -->
<g id="edge54" class="edge">
<title>Node218&#45;&gt;Node39</title>
<path fill="none" stroke="#63b8ff" d="M1104.14,-156.62C947.44,-155.06 586.02,-147.09 549,-107 536.64,-93.61 536.21,-78.98 549,-66 577.69,-36.87 3221.32,-19.48 3718.04,-16.47"/>
<polygon fill="#63b8ff" stroke="#63b8ff" points="1103.96,-160.12 1113.99,-156.72 1104.03,-153.12 1103.96,-160.12"/>
</g>
<!-- Node220&#45;&gt;Node39 -->
<g id="edge56" class="edge">
<title>Node220&#45;&gt;Node39</title>
<path fill="none" stroke="#63b8ff" d="M3336.94,-131.48C3342.44,-110.36 3353.56,-81.42 3375,-66 3428.28,-27.68 3611.03,-18.46 3718.1,-16.41"/>
<polygon fill="#63b8ff" stroke="#63b8ff" points="3333.56,-130.55 3334.71,-141.08 3340.38,-132.13 3333.56,-130.55"/>
</g>
<!-- Node222&#45;&gt;Node39 -->
<g id="edge58" class="edge">
<title>Node222&#45;&gt;Node39</title>
<path fill="none" stroke="#63b8ff" d="M3655.38,-140.56C3709.19,-127.87 3774.5,-111.71 3779,-107 3800.86,-84.13 3800.38,-42.94 3798.96,-24.88"/>
<polygon fill="#63b8ff" stroke="#63b8ff" points="3654.85,-137.09 3645.92,-142.78 3656.45,-143.9 3654.85,-137.09"/>
</g>
<!-- Node223&#45;&gt;Node39 -->
<g id="edge60" class="edge">
<title>Node223&#45;&gt;Node39</title>
<path fill="none" stroke="#63b8ff" d="M3778.38,-137.47C3791.71,-130.07 3804.27,-120.14 3812,-107 3827.64,-80.41 3811.74,-42.19 3802.97,-24.99"/>
<polygon fill="#63b8ff" stroke="#63b8ff" points="3776.82,-134.34 3769.47,-141.97 3779.97,-140.59 3776.82,-134.34"/>
</g>
<!-- Node226&#45;&gt;Node9 -->
<g id="edge63" class="edge">
<title>Node226&#45;&gt;Node9</title>
<path fill="none" stroke="#63b8ff" d="M231.89,-134.68C224.3,-126.81 217.03,-117.33 213,-107 206.38,-90.02 202.42,-80.84 213,-66 233.25,-37.6 270.74,-25.17 302.53,-19.81"/>
<polygon fill="#63b8ff" stroke="#63b8ff" points="229.38,-137.12 239.02,-141.5 234.21,-132.06 229.38,-137.12"/>
</g>
</g>
</svg>
