<?xml version="1.0" encoding="UTF-8" standalone="no"?>
<!DOCTYPE svg PUBLIC "-//W3C//DTD SVG 1.1//EN"
 "http://www.w3.org/Graphics/SVG/1.1/DTD/svg11.dtd">
<!-- Generated by graphviz version 7.0.5 (20221223.1930)
 -->
<!-- Title: src/d/d_k_wpillar.cpp Pages: 1 -->
<!--zoomable 214 -->
<svg id="main" version="1.1" xmlns="http://www.w3.org/2000/svg" xmlns:xlink="http://www.w3.org/1999/xlink" xml:space="preserve" onload="init(evt)">
<style type="text/css"><![CDATA[
.edge:hover path { stroke: red; }
.edge:hover polygon { stroke: red; fill: red; }
]]></style>
<script type="text/javascript"><![CDATA[
var edges = document.getElementsByTagName('g');
if (edges && edges.length) {
  for (var i=0;i<edges.length;i++) {
    if (edges[i].id.substr(0,4)=='edge') {
      edges[i].setAttribute('class','edge');
    }
  }
}
]]></script>
        <defs>
                <circle id="rim" cx="0" cy="0" r="7"/>
                <circle id="rim2" cx="0" cy="0" r="3.5"/>
                <g id="zoomPlus">
                        <use xlink:href="#rim" fill="#404040">
                                <set attributeName="fill" to="#808080" begin="zoomplus.mouseover" end="zoomplus.mouseout"/>
                        </use>
                        <path d="M-4,0h8M0,-4v8" fill="none" stroke="white" stroke-width="1.5" pointer-events="none"/>
                </g>
                <g id="zoomMin">
                        <use xlink:href="#rim" fill="#404040">
                                <set attributeName="fill" to="#808080" begin="zoomminus.mouseover" end="zoomminus.mouseout"/>
                        </use>
                        <path d="M-4,0h8" fill="none" stroke="white" stroke-width="1.5" pointer-events="none"/>
                </g>
                <g id="dirArrow">
                        <path fill="none" stroke="white" stroke-width="1.5" d="M0,-3.0v7 M-2.5,-0.5L0,-3.0L2.5,-0.5"/>
                </g>
               <g id="resetDef">
                       <use xlink:href="#rim2" fill="#404040">
                               <set attributeName="fill" to="#808080" begin="reset.mouseover" end="reset.mouseout"/>
                       </use>
               </g>
        </defs>

<script type="text/javascript">
var viewWidth = 1420;
var viewHeight = 214;
var sectionId = 'dynsection-0';
</script>
<script xlink:href="svgpan.js"/>
<svg id="graph" class="graph">
<g id="viewport">
<title>src/d/d_k_wpillar.cpp</title>
<!-- Node1 -->
<g id="node1" class="node">
<title>Node1</title>
<g id="a_node1"><a xlink:title=" ">
<polygon fill="#999999" stroke="#666666" points="709,-206 601,-206 601,-187 709,-187 709,-206"/>
<text text-anchor="middle" x="655" y="-194" font-family="Helvetica,sans-Serif" font-size="10.00">src/d/d_k_wpillar.cpp</text>
</a>
</g>
</g>
<!-- Node2 -->
<g id="node2" class="node">
<title>Node2</title>
<g id="a_node2"><a xlink:href="d__k__wpillar_8h.html" target="_top" xlink:title=" ">
<polygon fill="white" stroke="#666666" points="108.5,-145.5 27.5,-145.5 27.5,-126.5 108.5,-126.5 108.5,-145.5"/>
<text text-anchor="middle" x="68" y="-133.5" font-family="Helvetica,sans-Serif" font-size="10.00">d/d_k_wpillar.h</text>
</a>
</g>
</g>
<!-- Node1&#45;&gt;Node2 -->
<g id="edge1" class="edge">
<title>Node1&#45;&gt;Node2</title>
<path fill="none" stroke="#63b8ff" d="M600.82,-194.41C503.45,-191.7 292.71,-182.4 118,-151 114.56,-150.38 111.02,-149.63 107.48,-148.8"/>
<polygon fill="#63b8ff" stroke="#63b8ff" points="108.36,-145.41 97.81,-146.32 106.62,-152.19 108.36,-145.41"/>
</g>
<!-- Node5 -->
<g id="node5" class="node">
<title>Node5</title>
<g id="a_node5"><a xlink:href="dol2asm_8h.html" target="_top" xlink:title=" ">
<polygon fill="white" stroke="#666666" points="187.5,-145.5 126.5,-145.5 126.5,-126.5 187.5,-126.5 187.5,-145.5"/>
<text text-anchor="middle" x="157" y="-133.5" font-family="Helvetica,sans-Serif" font-size="10.00">dol2asm.h</text>
</a>
</g>
</g>
<!-- Node1&#45;&gt;Node5 -->
<g id="edge4" class="edge">
<title>Node1&#45;&gt;Node5</title>
<path fill="none" stroke="#63b8ff" d="M600.76,-194.42C514.35,-191.77 340.55,-182.61 197,-151 194.84,-150.53 192.64,-149.97 190.44,-149.36"/>
<polygon fill="#63b8ff" stroke="#63b8ff" points="191.61,-146.06 181.02,-146.41 189.52,-152.74 191.61,-146.06"/>
</g>
<!-- Node6 -->
<g id="node6" class="node">
<title>Node6</title>
<g id="a_node6"><a xlink:title=" ">
<polygon fill="#e0e0e0" stroke="#999999" points="330.5,-151 205.5,-151 205.5,-121 330.5,-121 330.5,-151"/>
<text text-anchor="start" x="213.5" y="-139" font-family="Helvetica,sans-Serif" font-size="10.00">asm/d/d_k_wpillar/create</text>
<text text-anchor="middle" x="268" y="-128" font-family="Helvetica,sans-Serif" font-size="10.00">__11dkWpillar_cFv.s</text>
</a>
</g>
</g>
<!-- Node1&#45;&gt;Node6 -->
<g id="edge5" class="edge">
<title>Node1&#45;&gt;Node6</title>
<path fill="none" stroke="#63b8ff" d="M600.52,-188.67C539.95,-180.89 438.95,-167.33 341.98,-151.28"/>
<polygon fill="#63b8ff" stroke="#63b8ff" points="342.73,-147.85 332.29,-149.66 341.57,-154.76 342.73,-147.85"/>
</g>
<!-- Node7 -->
<g id="node7" class="node">
<title>Node7</title>
<g id="a_node7"><a xlink:title=" ">
<polygon fill="#e0e0e0" stroke="#999999" points="499.5,-151 348.5,-151 348.5,-121 499.5,-121 499.5,-151"/>
<text text-anchor="start" x="356.5" y="-139" font-family="Helvetica,sans-Serif" font-size="10.00">asm/d/d_k_wpillar/dkWpillar</text>
<text text-anchor="middle" x="424" y="-128" font-family="Helvetica,sans-Serif" font-size="10.00">_Create__FP12kankyo_class.s</text>
</a>
</g>
</g>
<!-- Node1&#45;&gt;Node7 -->
<g id="edge6" class="edge">
<title>Node1&#45;&gt;Node7</title>
<path fill="none" stroke="#63b8ff" d="M619.66,-186.55C585.79,-177.97 533.75,-164.79 491.86,-154.18"/>
<polygon fill="#63b8ff" stroke="#63b8ff" points="492.91,-150.84 482.36,-151.78 491.19,-157.63 492.91,-150.84"/>
</g>
<!-- Node8 -->
<g id="node8" class="node">
<title>Node8</title>
<g id="a_node8"><a xlink:title=" ">
<polygon fill="#e0e0e0" stroke="#999999" points="642.5,-151 517.5,-151 517.5,-121 642.5,-121 642.5,-151"/>
<text text-anchor="start" x="525.5" y="-139" font-family="Helvetica,sans-Serif" font-size="10.00">asm/d/d_k_wpillar/</text>
<text text-anchor="middle" x="580" y="-128" font-family="Helvetica,sans-Serif" font-size="10.00">__dt__11dkWpillar_cFv.s</text>
</a>
</g>
</g>
<!-- Node1&#45;&gt;Node8 -->
<g id="edge7" class="edge">
<title>Node1&#45;&gt;Node8</title>
<path fill="none" stroke="#63b8ff" d="M643.61,-186.62C633.98,-179.1 619.79,-168.04 607.26,-158.26"/>
<polygon fill="#63b8ff" stroke="#63b8ff" points="609.74,-155.76 599.71,-152.37 605.44,-161.28 609.74,-155.76"/>
</g>
<!-- Node9 -->
<g id="node9" class="node">
<title>Node9</title>
<g id="a_node9"><a xlink:title=" ">
<polygon fill="#e0e0e0" stroke="#999999" points="801.5,-151 660.5,-151 660.5,-121 801.5,-121 801.5,-151"/>
<text text-anchor="start" x="668.5" y="-139" font-family="Helvetica,sans-Serif" font-size="10.00">asm/d/d_k_wpillar/dkWpillar</text>
<text text-anchor="middle" x="731" y="-128" font-family="Helvetica,sans-Serif" font-size="10.00">_Delete__FP11dkWpillar_c.s</text>
</a>
</g>
</g>
<!-- Node1&#45;&gt;Node9 -->
<g id="edge8" class="edge">
<title>Node1&#45;&gt;Node9</title>
<path fill="none" stroke="#63b8ff" d="M666.54,-186.62C676.3,-179.1 690.68,-168.04 703.38,-158.26"/>
<polygon fill="#63b8ff" stroke="#63b8ff" points="705.25,-161.24 711.04,-152.36 700.98,-155.69 705.25,-161.24"/>
</g>
<!-- Node10 -->
<g id="node10" class="node">
<title>Node10</title>
<g id="a_node10"><a xlink:title=" ">
<polygon fill="#e0e0e0" stroke="#999999" points="952,-151 820,-151 820,-121 952,-121 952,-151"/>
<text text-anchor="start" x="828" y="-139" font-family="Helvetica,sans-Serif" font-size="10.00">asm/d/d_k_wpillar/execute</text>
<text text-anchor="middle" x="886" y="-128" font-family="Helvetica,sans-Serif" font-size="10.00">__11dkWpillar_cFv.s</text>
</a>
</g>
</g>
<!-- Node1&#45;&gt;Node10 -->
<g id="edge9" class="edge">
<title>Node1&#45;&gt;Node10</title>
<path fill="none" stroke="#63b8ff" d="M690.34,-186.55C724.21,-177.97 776.25,-164.79 818.14,-154.18"/>
<polygon fill="#63b8ff" stroke="#63b8ff" points="818.81,-157.63 827.64,-151.78 817.09,-150.84 818.81,-157.63"/>
</g>
<!-- Node11 -->
<g id="node11" class="node">
<title>Node11</title>
<g id="a_node11"><a xlink:title=" ">
<polygon fill="#e0e0e0" stroke="#999999" points="1118,-151 970,-151 970,-121 1118,-121 1118,-151"/>
<text text-anchor="start" x="978" y="-139" font-family="Helvetica,sans-Serif" font-size="10.00">asm/d/d_k_wpillar/dkWpillar</text>
<text text-anchor="middle" x="1044" y="-128" font-family="Helvetica,sans-Serif" font-size="10.00">_Execute__FP11dkWpillar_c.s</text>
</a>
</g>
</g>
<!-- Node1&#45;&gt;Node11 -->
<g id="edge10" class="edge">
<title>Node1&#45;&gt;Node11</title>
<path fill="none" stroke="#63b8ff" d="M709.23,-187.99C768.04,-179.77 865.02,-165.96 958.43,-151.38"/>
<polygon fill="#63b8ff" stroke="#63b8ff" points="958.97,-154.84 968.31,-149.84 957.89,-147.92 958.97,-154.84"/>
</g>
<!-- Node12 -->
<g id="node12" class="node">
<title>Node12</title>
<g id="a_node12"><a xlink:title=" ">
<polygon fill="#e0e0e0" stroke="#999999" points="1255.5,-151 1136.5,-151 1136.5,-121 1255.5,-121 1255.5,-151"/>
<text text-anchor="start" x="1144.5" y="-139" font-family="Helvetica,sans-Serif" font-size="10.00">asm/d/d_k_wpillar/draw</text>
<text text-anchor="middle" x="1196" y="-128" font-family="Helvetica,sans-Serif" font-size="10.00">__11dkWpillar_cFv.s</text>
</a>
</g>
</g>
<!-- Node1&#45;&gt;Node12 -->
<g id="edge11" class="edge">
<title>Node1&#45;&gt;Node12</title>
<path fill="none" stroke="#63b8ff" d="M709.38,-192.26C795.38,-186.72 968.23,-173.91 1124.97,-151.18"/>
<polygon fill="#63b8ff" stroke="#63b8ff" points="1125.35,-154.67 1134.73,-149.75 1124.33,-147.74 1125.35,-154.67"/>
</g>
<!-- Node13 -->
<g id="node13" class="node">
<title>Node13</title>
<g id="a_node13"><a xlink:title=" ">
<polygon fill="#e0e0e0" stroke="#999999" points="1412,-151 1274,-151 1274,-121 1412,-121 1412,-151"/>
<text text-anchor="start" x="1282" y="-139" font-family="Helvetica,sans-Serif" font-size="10.00">asm/d/d_k_wpillar/dkWpillar</text>
<text text-anchor="middle" x="1343" y="-128" font-family="Helvetica,sans-Serif" font-size="10.00">_Draw__FP11dkWpillar_c.s</text>
</a>
</g>
</g>
<!-- Node1&#45;&gt;Node13 -->
<g id="edge12" class="edge">
<title>Node1&#45;&gt;Node13</title>
<path fill="none" stroke="#63b8ff" d="M709.46,-193.44C814.44,-189.06 1052.32,-177.12 1262.48,-151.22"/>
<polygon fill="#63b8ff" stroke="#63b8ff" points="1262.74,-154.72 1272.23,-150.01 1261.88,-147.77 1262.74,-154.72"/>
</g>
<!-- Node3 -->
<g id="node3" class="node">
<title>Node3</title>
<g id="a_node3"><a xlink:href="types_8h.html" target="_top" xlink:title=" ">
<polygon fill="white" stroke="#666666" points="108.5,-85 27.5,-85 27.5,-66 108.5,-66 108.5,-85"/>
<text text-anchor="middle" x="68" y="-73" font-family="Helvetica,sans-Serif" font-size="10.00">dolphin/types.h</text>
</a>
</g>
</g>
<!-- Node2&#45;&gt;Node3 -->
<g id="edge2" class="edge">
<title>Node2&#45;&gt;Node3</title>
<path fill="none" stroke="#63b8ff" d="M68,-126.37C68,-118.5 68,-106.6 68,-96.39"/>
<polygon fill="#63b8ff" stroke="#63b8ff" points="71.5,-96.68 68,-86.68 64.5,-96.68 71.5,-96.68"/>
</g>
<!-- Node4 -->
<g id="node4" class="node">
<title>Node4</title>
<g id="a_node4"><a xlink:href="stddef_8h.html" target="_top" xlink:title=" ">
<polygon fill="white" stroke="#666666" points="136,-30 0,-30 0,0 136,0 136,-30"/>
<text text-anchor="start" x="8" y="-18" font-family="Helvetica,sans-Serif" font-size="10.00">MSL_C/MSL_Common/Src</text>
<text text-anchor="middle" x="68" y="-7" font-family="Helvetica,sans-Serif" font-size="10.00">/stddef.h</text>
</a>
</g>
</g>
<!-- Node3&#45;&gt;Node4 -->
<g id="edge3" class="edge">
<title>Node3&#45;&gt;Node4</title>
<path fill="none" stroke="#63b8ff" d="M68,-65.87C68,-59.4 68,-50.2 68,-41.45"/>
<polygon fill="#63b8ff" stroke="#63b8ff" points="71.5,-41.63 68,-31.63 64.5,-41.63 71.5,-41.63"/>
</g>
</g>
</svg>
        <g id="navigator" transform="translate(0 0)" fill="#404254">
                <rect fill="#f2f5e9" fill-opacity="0.5" stroke="#606060" stroke-width=".5" x="0" y="0" width="60" height="60"/>
                <use id="zoomplus" xlink:href="#zoomPlus" x="17" y="9" onmousedown="handleZoom(evt,'in')"/>
                <use id="zoomminus" xlink:href="#zoomMin" x="42" y="9" onmousedown="handleZoom(evt,'out')"/>
                <use id="reset" xlink:href="#resetDef" x="30" y="36" onmousedown="handleReset()"/>
                <g id="arrowUp" xlink:href="#dirArrow" transform="translate(30 24)" onmousedown="handlePan(0,-1)">
                  <use xlink:href="#rim" fill="#404040">
                        <set attributeName="fill" to="#808080" begin="arrowUp.mouseover" end="arrowUp.mouseout"/>
                  </use>
                  <path fill="none" stroke="white" stroke-width="1.5" d="M0,-3.0v7 M-2.5,-0.5L0,-3.0L2.5,-0.5"/>
                </g>
                <g id="arrowRight" xlink:href="#dirArrow" transform="rotate(90) translate(36 -43)" onmousedown="handlePan(1,0)">
                  <use xlink:href="#rim" fill="#404040">
                        <set attributeName="fill" to="#808080" begin="arrowRight.mouseover" end="arrowRight.mouseout"/>
                  </use>
                  <path fill="none" stroke="white" stroke-width="1.5" d="M0,-3.0v7 M-2.5,-0.5L0,-3.0L2.5,-0.5"/>
                </g>
                <g id="arrowDown" xlink:href="#dirArrow" transform="rotate(180) translate(-30 -48)" onmousedown="handlePan(0,1)">
                  <use xlink:href="#rim" fill="#404040">
                        <set attributeName="fill" to="#808080" begin="arrowDown.mouseover" end="arrowDown.mouseout"/>
                  </use>
                  <path fill="none" stroke="white" stroke-width="1.5" d="M0,-3.0v7 M-2.5,-0.5L0,-3.0L2.5,-0.5"/>
                </g>
                <g id="arrowLeft" xlink:href="#dirArrow" transform="rotate(270) translate(-36 17)" onmousedown="handlePan(-1,0)">
                  <use xlink:href="#rim" fill="#404040">
                        <set attributeName="fill" to="#808080" begin="arrowLeft.mouseover" end="arrowLeft.mouseout"/>
                  </use>
                  <path fill="none" stroke="white" stroke-width="1.5" d="M0,-3.0v7 M-2.5,-0.5L0,-3.0L2.5,-0.5"/>
                </g>
        </g>
        <svg viewBox="0 0 15 15" width="100%" height="30px" preserveAspectRatio="xMaxYMin meet">
         <g id="arrow_out" transform="scale(0.3 0.3)">
          <a xlink:href="d__k__wpillar_8cpp__incl_org.svg" target="_base">
           <rect id="button" ry="5" rx="5" y="6" x="6" height="38" width="38"
                fill="#f2f5e9" fill-opacity="0.5" stroke="#606060" stroke-width="1.0"/>
           <path id="arrow"
             d="M 11.500037,31.436501 C 11.940474,20.09759 22.043105,11.32322 32.158766,21.979434 L 37.068811,17.246167 C 37.068811,17.246167 37.088388,32 37.088388,32 L 22.160133,31.978069 C 22.160133,31.978069 26.997745,27.140456 26.997745,27.140456 C 18.528582,18.264221 13.291696,25.230495 11.500037,31.436501 z"
             style="fill:#404040;"/>
          </a>
         </g>
        </svg>
</svg>
