<?xml version="1.0" encoding="UTF-8" standalone="no"?>
<!DOCTYPE svg PUBLIC "-//W3C//DTD SVG 1.1//EN"
 "http://www.w3.org/Graphics/SVG/1.1/DTD/svg11.dtd">
<!-- Generated by graphviz version 7.0.5 (20221223.1930)
 -->
<!-- Title: include/d/kankyo/d_kankyo_data.h Pages: 1 -->
<svg width="5232pt" height="434pt"
 viewBox="0.00 0.00 5232.00 434.00" xmlns="http://www.w3.org/2000/svg" xmlns:xlink="http://www.w3.org/1999/xlink">
<g id="graph0" class="graph" transform="scale(1 1) rotate(0) translate(4 430)">
<title>include/d/kankyo/d_kankyo_data.h</title>
<!-- Node1 -->
<g id="node1" class="node">
<title>Node1</title>
<g id="a_node1"><a xlink:title=" ">
<polygon fill="#999999" stroke="#666666" points="2077,-426 1979,-426 1979,-396 2077,-396 2077,-426"/>
<text text-anchor="start" x="1987" y="-414" font-family="Helvetica,sans-Serif" font-size="10.00">include/d/kankyo/d</text>
<text text-anchor="middle" x="2028" y="-403" font-family="Helvetica,sans-Serif" font-size="10.00">_kankyo_data.h</text>
</a>
</g>
</g>
<!-- Node2 -->
<g id="node2" class="node">
<title>Node2</title>
<g id="a_node2"><a xlink:href="d__stage_8h.html" target="_top" xlink:title=" ">
<polygon fill="white" stroke="#666666" points="2039.5,-360 1938.5,-360 1938.5,-341 2039.5,-341 2039.5,-360"/>
<text text-anchor="middle" x="1989" y="-348" font-family="Helvetica,sans-Serif" font-size="10.00">include/d/d_stage.h</text>
</a>
</g>
</g>
<!-- Node1&#45;&gt;Node2 -->
<g id="edge1" class="edge">
<title>Node1&#45;&gt;Node2</title>
<path fill="none" stroke="#63b8ff" d="M2012.04,-386.06C2005.93,-376.9 1999.34,-367.01 1994.78,-360.18"/>
<polygon fill="#63b8ff" stroke="#63b8ff" points="2009.06,-387.9 2017.52,-394.28 2014.89,-384.02 2009.06,-387.9"/>
</g>
<!-- Node197 -->
<g id="node50" class="node">
<title>Node197</title>
<g id="a_node50"><a xlink:href="d__kankyo__data_8cpp.html" target="_top" xlink:title=" ">
<polygon fill="white" stroke="#666666" points="2178,-305 2062,-305 2062,-275 2178,-275 2178,-305"/>
<text text-anchor="start" x="2070" y="-293" font-family="Helvetica,sans-Serif" font-size="10.00">src/d/kankyo/d_kankyo</text>
<text text-anchor="middle" x="2120" y="-282" font-family="Helvetica,sans-Serif" font-size="10.00">_data.cpp</text>
</a>
</g>
</g>
<!-- Node1&#45;&gt;Node197 -->
<g id="edge55" class="edge">
<title>Node1&#45;&gt;Node197</title>
<path fill="none" stroke="#63b8ff" d="M2045.75,-387.04C2064.38,-362.94 2093.11,-325.78 2108.81,-305.47"/>
<polygon fill="#63b8ff" stroke="#63b8ff" points="2043.19,-384.63 2039.84,-394.68 2048.73,-388.91 2043.19,-384.63"/>
</g>
<!-- Node3 -->
<g id="node3" class="node">
<title>Node3</title>
<g id="a_node3"><a xlink:href="d__camera_8h.html" target="_top" xlink:title=" ">
<polygon fill="white" stroke="#666666" points="2043.5,-299.5 1934.5,-299.5 1934.5,-280.5 2043.5,-280.5 2043.5,-299.5"/>
<text text-anchor="middle" x="1989" y="-287.5" font-family="Helvetica,sans-Serif" font-size="10.00">include/d/d_camera.h</text>
</a>
</g>
</g>
<!-- Node2&#45;&gt;Node3 -->
<g id="edge2" class="edge">
<title>Node2&#45;&gt;Node3</title>
<path fill="none" stroke="#63b8ff" d="M1989,-329.66C1989,-319.45 1989,-307.54 1989,-299.67"/>
<polygon fill="#63b8ff" stroke="#63b8ff" points="1985.5,-329.35 1989,-339.35 1992.5,-329.35 1985.5,-329.35"/>
</g>
<!-- Node154 -->
<g id="node44" class="node">
<title>Node154</title>
<g id="a_node44"><a xlink:href="d__stage_8cpp.html" target="_top" xlink:title=" ">
<polygon fill="white" stroke="#666666" points="94,-96 0,-96 0,-77 94,-77 94,-96"/>
<text text-anchor="middle" x="47" y="-84" font-family="Helvetica,sans-Serif" font-size="10.00">src/d/d_stage.cpp</text>
</a>
</g>
</g>
<!-- Node2&#45;&gt;Node154 -->
<g id="edge53" class="edge">
<title>Node2&#45;&gt;Node154</title>
<path fill="none" stroke="#63b8ff" d="M1926.65,-346.19C1806.74,-339.65 1535.67,-324.04 1308,-305 772.44,-260.2 566.25,-450.5 106,-173 75.73,-154.75 57.23,-114.33 50.22,-96.38"/>
<polygon fill="#63b8ff" stroke="#63b8ff" points="1926.44,-349.68 1936.61,-346.73 1926.82,-342.69 1926.44,-349.68"/>
</g>
<!-- Node196 -->
<g id="node49" class="node">
<title>Node196</title>
<g id="a_node49"><a xlink:href="d__map__path__fmap_8h.html" target="_top" xlink:title=" ">
<polygon fill="white" stroke="#666666" points="225,-173 115,-173 115,-143 225,-143 225,-173"/>
<text text-anchor="start" x="123" y="-161" font-family="Helvetica,sans-Serif" font-size="10.00">include/d/map/d_map</text>
<text text-anchor="middle" x="170" y="-150" font-family="Helvetica,sans-Serif" font-size="10.00">_path_fmap.h</text>
</a>
</g>
</g>
<!-- Node2&#45;&gt;Node196 -->
<g id="edge50" class="edge">
<title>Node2&#45;&gt;Node196</title>
<path fill="none" stroke="#63b8ff" d="M1927.28,-343.04C1646.48,-313.63 491.79,-192.7 225.13,-164.77"/>
<polygon fill="#63b8ff" stroke="#63b8ff" points="1926.64,-346.49 1936.95,-344.05 1927.36,-339.53 1926.64,-346.49"/>
</g>
<!-- Node2&#45;&gt;Node197 -->
<g id="edge54" class="edge">
<title>Node2&#45;&gt;Node197</title>
<path fill="none" stroke="#63b8ff" d="M2019.23,-336C2039.71,-326.85 2066.75,-314.78 2087.67,-305.44"/>
<polygon fill="#63b8ff" stroke="#63b8ff" points="2017.98,-332.72 2010.28,-340 2020.84,-339.12 2017.98,-332.72"/>
</g>
<!-- Node4 -->
<g id="node4" class="node">
<title>Node4</title>
<g id="a_node4"><a xlink:href="f__op__camera__mng_8h.html" target="_top" xlink:title=" ">
<polygon fill="white" stroke="#666666" points="2632,-239 2504,-239 2504,-209 2632,-209 2632,-239"/>
<text text-anchor="start" x="2512" y="-227" font-family="Helvetica,sans-Serif" font-size="10.00">include/f_op/f_op_camera</text>
<text text-anchor="middle" x="2568" y="-216" font-family="Helvetica,sans-Serif" font-size="10.00">_mng.h</text>
</a>
</g>
</g>
<!-- Node3&#45;&gt;Node4 -->
<g id="edge3" class="edge">
<title>Node3&#45;&gt;Node4</title>
<path fill="none" stroke="#63b8ff" d="M2037.63,-277.73C2042.8,-276.72 2048,-275.79 2053,-275 2214.28,-249.62 2406.14,-235.08 2503.86,-228.77"/>
<polygon fill="#63b8ff" stroke="#63b8ff" points="2037,-274.29 2027.91,-279.73 2038.41,-281.15 2037,-274.29"/>
</g>
<!-- Node138 -->
<g id="node43" class="node">
<title>Node138</title>
<g id="a_node43"><a xlink:href="d__camera_8cpp.html" target="_top" xlink:title=" ">
<polygon fill="white" stroke="#666666" points="5224,-96 5122,-96 5122,-77 5224,-77 5224,-96"/>
<text text-anchor="middle" x="5173" y="-84" font-family="Helvetica,sans-Serif" font-size="10.00">src/d/d_camera.cpp</text>
</a>
</g>
</g>
<!-- Node3&#45;&gt;Node138 -->
<g id="edge49" class="edge">
<title>Node3&#45;&gt;Node138</title>
<path fill="none" stroke="#63b8ff" d="M2035.91,-277.84C2041.64,-276.74 2047.44,-275.76 2053,-275 2220.6,-252.19 4925.68,-131.8 5093,-107 5109.4,-104.57 5127.37,-100.34 5142.11,-96.44"/>
<polygon fill="#63b8ff" stroke="#63b8ff" points="2035.62,-274.33 2026.52,-279.76 2037.02,-281.19 2035.62,-274.33"/>
</g>
<!-- Node5 -->
<g id="node5" class="node">
<title>Node5</title>
<g id="a_node5"><a xlink:href="d__com__inf__game_8h.html" target="_top" xlink:title=" ">
<polygon fill="#fff0f0" stroke="red" points="2623,-173 2513,-173 2513,-143 2623,-143 2623,-173"/>
<text text-anchor="start" x="2521" y="-161" font-family="Helvetica,sans-Serif" font-size="10.00">include/d/com/d_com</text>
<text text-anchor="middle" x="2568" y="-150" font-family="Helvetica,sans-Serif" font-size="10.00">_inf_game.h</text>
</a>
</g>
</g>
<!-- Node4&#45;&gt;Node5 -->
<g id="edge4" class="edge">
<title>Node4&#45;&gt;Node5</title>
<path fill="none" stroke="#63b8ff" d="M2568,-197.39C2568,-189.13 2568,-180.28 2568,-173.16"/>
<polygon fill="#63b8ff" stroke="#63b8ff" points="2564.5,-197.28 2568,-207.28 2571.5,-197.28 2564.5,-197.28"/>
</g>
<!-- Node193 -->
<g id="node46" class="node">
<title>Node193</title>
<g id="a_node46"><a xlink:href="d__s__name_8h.html" target="_top" xlink:title=" ">
<polygon fill="#fff0f0" stroke="red" points="2760.5,-167.5 2641.5,-167.5 2641.5,-148.5 2760.5,-148.5 2760.5,-167.5"/>
<text text-anchor="middle" x="2701" y="-155.5" font-family="Helvetica,sans-Serif" font-size="10.00">include/d/s/d_s_name.h</text>
</a>
</g>
</g>
<!-- Node4&#45;&gt;Node193 -->
<g id="edge46" class="edge">
<title>Node4&#45;&gt;Node193</title>
<path fill="none" stroke="#63b8ff" d="M2608.01,-203.75C2632.67,-191.88 2663.14,-177.22 2682.33,-167.99"/>
<polygon fill="#63b8ff" stroke="#63b8ff" points="2606.7,-200.49 2599.21,-207.98 2609.74,-206.8 2606.7,-200.49"/>
</g>
<!-- Node194 -->
<g id="node47" class="node">
<title>Node194</title>
<g id="a_node47"><a xlink:href="f__ap__game_8cpp.html" target="_top" xlink:title=" ">
<polygon fill="white" stroke="#666666" points="2899.5,-167.5 2778.5,-167.5 2778.5,-148.5 2899.5,-148.5 2899.5,-167.5"/>
<text text-anchor="middle" x="2839" y="-155.5" font-family="Helvetica,sans-Serif" font-size="10.00">src/f_ap/f_ap_game.cpp</text>
</a>
</g>
</g>
<!-- Node4&#45;&gt;Node194 -->
<g id="edge47" class="edge">
<title>Node4&#45;&gt;Node194</title>
<path fill="none" stroke="#63b8ff" d="M2640.27,-205.93C2691.97,-193.72 2759.52,-177.77 2801.05,-167.96"/>
<polygon fill="#63b8ff" stroke="#63b8ff" points="2639.56,-202.5 2630.63,-208.21 2641.17,-209.32 2639.56,-202.5"/>
</g>
<!-- Node195 -->
<g id="node48" class="node">
<title>Node195</title>
<g id="a_node48"><a xlink:href="f__op__camera__mng_8cpp.html" target="_top" xlink:title=" ">
<polygon fill="white" stroke="#666666" points="2494.5,-173 2383.5,-173 2383.5,-143 2494.5,-143 2494.5,-173"/>
<text text-anchor="start" x="2391.5" y="-161" font-family="Helvetica,sans-Serif" font-size="10.00">src/f_op/f_op_camera</text>
<text text-anchor="middle" x="2439" y="-150" font-family="Helvetica,sans-Serif" font-size="10.00">_mng.cpp</text>
</a>
</g>
</g>
<!-- Node4&#45;&gt;Node195 -->
<g id="edge48" class="edge">
<title>Node4&#45;&gt;Node195</title>
<path fill="none" stroke="#63b8ff" d="M2528.87,-203.59C2509.23,-193.84 2485.84,-182.24 2467.85,-173.31"/>
<polygon fill="#63b8ff" stroke="#63b8ff" points="2527.18,-206.66 2537.69,-207.96 2530.29,-200.38 2527.18,-206.66"/>
</g>
<!-- Node6 -->
<g id="node6" class="node">
<title>Node6</title>
<g id="a_node6"><a xlink:href="d__a__npc_8h.html" target="_top" xlink:title=" ">
<polygon fill="#fff0f0" stroke="red" points="4920.5,-96 4809.5,-96 4809.5,-77 4920.5,-77 4920.5,-96"/>
<text text-anchor="middle" x="4865" y="-84" font-family="Helvetica,sans-Serif" font-size="10.00">include/d/a/d_a_npc.h</text>
</a>
</g>
</g>
<!-- Node5&#45;&gt;Node6 -->
<g id="edge5" class="edge">
<title>Node5&#45;&gt;Node6</title>
<path fill="none" stroke="#63b8ff" d="M2634.41,-143.09C3130.02,-89.42 4328.62,-181.38 4801,-107 4814.65,-104.85 4829.44,-100.49 4841.36,-96.43"/>
<polygon fill="#63b8ff" stroke="#63b8ff" points="2634.25,-139.59 2624.7,-144.18 2635.03,-146.54 2634.25,-139.59"/>
</g>
<!-- Node13 -->
<g id="node7" class="node">
<title>Node13</title>
<g id="a_node7"><a xlink:href="d__a__npc__cd_8h.html" target="_top" xlink:title=" ">
<polygon fill="#fff0f0" stroke="red" points="5065.5,-96 4938.5,-96 4938.5,-77 5065.5,-77 5065.5,-96"/>
<text text-anchor="middle" x="5002" y="-84" font-family="Helvetica,sans-Serif" font-size="10.00">include/d/a/d_a_npc_cd.h</text>
</a>
</g>
</g>
<!-- Node5&#45;&gt;Node13 -->
<g id="edge6" class="edge">
<title>Node5&#45;&gt;Node13</title>
<path fill="none" stroke="#63b8ff" d="M2634.29,-143.1C3158.35,-86.29 4428.07,-177.77 4930,-107 4945.26,-104.85 4961.89,-100.48 4975.32,-96.43"/>
<polygon fill="#63b8ff" stroke="#63b8ff" points="2634.25,-139.58 2624.7,-144.17 2635.03,-146.54 2634.25,-139.58"/>
</g>
<!-- Node15 -->
<g id="node8" class="node">
<title>Node15</title>
<g id="a_node8"><a xlink:href="d__a__npc__cd2_8h.html" target="_top" xlink:title=" ">
<polygon fill="#fff0f0" stroke="red" points="2942,-30 2838,-30 2838,0 2942,0 2942,-30"/>
<text text-anchor="start" x="2846" y="-18" font-family="Helvetica,sans-Serif" font-size="10.00">include/d/a/d_a_npc</text>
<text text-anchor="middle" x="2890" y="-7" font-family="Helvetica,sans-Serif" font-size="10.00">_cd2.h</text>
</a>
</g>
</g>
<!-- Node5&#45;&gt;Node15 -->
<g id="edge7" class="edge">
<title>Node5&#45;&gt;Node15</title>
<path fill="none" stroke="#63b8ff" d="M2634.48,-143.66C2825.96,-136.36 5028.69,-154 5075,-107 5087.79,-94.02 5087.74,-79.03 5075,-66 5036.52,-26.63 3271.37,-17.55 2942.46,-16.2"/>
<polygon fill="#63b8ff" stroke="#63b8ff" points="2634.48,-140.15 2624.71,-144.25 2634.9,-147.14 2634.48,-140.15"/>
</g>
<!-- Node17 -->
<g id="node9" class="node">
<title>Node17</title>
<g id="a_node9"><a xlink:href="d__cc__uty_8h.html" target="_top" xlink:title=" ">
<polygon fill="#fff0f0" stroke="red" points="365.5,-96 246.5,-96 246.5,-77 365.5,-77 365.5,-96"/>
<text text-anchor="middle" x="306" y="-84" font-family="Helvetica,sans-Serif" font-size="10.00">include/d/cc/d_cc_uty.h</text>
</a>
</g>
</g>
<!-- Node5&#45;&gt;Node17 -->
<g id="edge8" class="edge">
<title>Node5&#45;&gt;Node17</title>
<path fill="none" stroke="#63b8ff" d="M2501.26,-142.89C2015.21,-89.52 838.56,-176.3 374,-107 359.55,-104.84 343.84,-100.48 331.16,-96.42"/>
<polygon fill="#63b8ff" stroke="#63b8ff" points="2500.78,-146.36 2511.11,-144.01 2501.56,-139.4 2500.78,-146.36"/>
</g>
<!-- Node28 -->
<g id="node10" class="node">
<title>Node28</title>
<g id="a_node10"><a xlink:href="d__bright__check_8h.html" target="_top" xlink:title=" ">
<polygon fill="#fff0f0" stroke="red" points="476.5,-101.5 383.5,-101.5 383.5,-71.5 476.5,-71.5 476.5,-101.5"/>
<text text-anchor="start" x="391.5" y="-89.5" font-family="Helvetica,sans-Serif" font-size="10.00">include/d/d_bright</text>
<text text-anchor="middle" x="430" y="-78.5" font-family="Helvetica,sans-Serif" font-size="10.00">_check.h</text>
</a>
</g>
</g>
<!-- Node5&#45;&gt;Node28 -->
<g id="edge9" class="edge">
<title>Node5&#45;&gt;Node28</title>
<path fill="none" stroke="#63b8ff" d="M2501.5,-142.92C2040.35,-92.34 923.99,-185.1 486,-107 479.41,-105.83 472.56,-103.99 466,-101.91"/>
<polygon fill="#63b8ff" stroke="#63b8ff" points="2500.78,-146.36 2511.11,-144.01 2501.57,-139.41 2500.78,-146.36"/>
</g>
<!-- Node30 -->
<g id="node11" class="node">
<title>Node30</title>
<g id="a_node11"><a xlink:href="d__error__msg_8h.html" target="_top" xlink:title=" ">
<polygon fill="#fff0f0" stroke="red" points="615,-96 495,-96 495,-77 615,-77 615,-96"/>
<text text-anchor="middle" x="555" y="-84" font-family="Helvetica,sans-Serif" font-size="10.00">include/d/d_error_msg.h</text>
</a>
</g>
</g>
<!-- Node5&#45;&gt;Node30 -->
<g id="edge10" class="edge">
<title>Node5&#45;&gt;Node30</title>
<path fill="none" stroke="#63b8ff" d="M2501.3,-142.9C2070.58,-95.41 1033.7,-167.78 624,-107 609.35,-104.83 593.41,-100.46 580.54,-96.41"/>
<polygon fill="#63b8ff" stroke="#63b8ff" points="2500.77,-146.36 2511.11,-144.02 2501.57,-139.4 2500.77,-146.36"/>
</g>
<!-- Node33 -->
<g id="node12" class="node">
<title>Node33</title>
<g id="a_node12"><a xlink:href="d__npc__lib_8h.html" target="_top" xlink:title=" ">
<polygon fill="#fff0f0" stroke="red" points="740.5,-96 633.5,-96 633.5,-77 740.5,-77 740.5,-96"/>
<text text-anchor="middle" x="687" y="-84" font-family="Helvetica,sans-Serif" font-size="10.00">include/d/d_npc_lib.h</text>
</a>
</g>
</g>
<!-- Node5&#45;&gt;Node33 -->
<g id="edge11" class="edge">
<title>Node5&#45;&gt;Node33</title>
<path fill="none" stroke="#63b8ff" d="M2501.44,-142.91C2098.68,-98.45 1131.29,-168.67 750,-107 736.55,-104.82 721.99,-100.46 710.26,-96.41"/>
<polygon fill="#63b8ff" stroke="#63b8ff" points="2500.77,-146.36 2511.11,-144.02 2501.57,-139.4 2500.77,-146.36"/>
</g>
<!-- Node35 -->
<g id="node13" class="node">
<title>Node35</title>
<g id="a_node13"><a xlink:href="d__file__select_8h.html" target="_top" xlink:title=" ">
<polygon fill="#fff0f0" stroke="red" points="855,-101.5 759,-101.5 759,-71.5 855,-71.5 855,-101.5"/>
<text text-anchor="start" x="767" y="-89.5" font-family="Helvetica,sans-Serif" font-size="10.00">include/d/file/d_file</text>
<text text-anchor="middle" x="807" y="-78.5" font-family="Helvetica,sans-Serif" font-size="10.00">_select.h</text>
</a>
</g>
</g>
<!-- Node5&#45;&gt;Node35 -->
<g id="edge13" class="edge">
<title>Node5&#45;&gt;Node35</title>
<path fill="none" stroke="#63b8ff" d="M2501.32,-142.9C2123.69,-101.25 1219.32,-170.11 864,-107 857.41,-105.83 850.55,-104.03 843.97,-101.98"/>
<polygon fill="#63b8ff" stroke="#63b8ff" points="2500.77,-146.36 2511.11,-144.02 2501.57,-139.41 2500.77,-146.36"/>
</g>
<!-- Node37 -->
<g id="node14" class="node">
<title>Node37</title>
<g id="a_node14"><a xlink:href="d__msg__object_8h.html" target="_top" xlink:title=" ">
<polygon fill="#fff0f0" stroke="red" points="983,-101.5 873,-101.5 873,-71.5 983,-71.5 983,-101.5"/>
<text text-anchor="start" x="881" y="-89.5" font-family="Helvetica,sans-Serif" font-size="10.00">include/d/msg/d_msg</text>
<text text-anchor="middle" x="928" y="-78.5" font-family="Helvetica,sans-Serif" font-size="10.00">_object.h</text>
</a>
</g>
</g>
<!-- Node5&#45;&gt;Node37 -->
<g id="edge14" class="edge">
<title>Node5&#45;&gt;Node37</title>
<path fill="none" stroke="#63b8ff" d="M2501.4,-142.91C2152.18,-104.13 1320.25,-159.9 992,-107 984.66,-105.82 976.99,-104.01 969.62,-101.96"/>
<polygon fill="#63b8ff" stroke="#63b8ff" points="2500.77,-146.36 2511.1,-144.03 2501.57,-139.4 2500.77,-146.36"/>
</g>
<!-- Node60 -->
<g id="node15" class="node">
<title>Node60</title>
<g id="a_node15"><a xlink:href="d__a__andsw_8h.html" target="_top" xlink:title=" ">
<polygon fill="white" stroke="#666666" points="1111,-101.5 1001,-101.5 1001,-71.5 1111,-71.5 1111,-101.5"/>
<text text-anchor="start" x="1009" y="-89.5" font-family="Helvetica,sans-Serif" font-size="10.00">include/rel/d/a/d_a</text>
<text text-anchor="middle" x="1056" y="-78.5" font-family="Helvetica,sans-Serif" font-size="10.00">_andsw/d_a_andsw.h</text>
</a>
</g>
</g>
<!-- Node5&#45;&gt;Node60 -->
<g id="edge15" class="edge">
<title>Node5&#45;&gt;Node60</title>
<path fill="none" stroke="#63b8ff" d="M2501.38,-142.9C2180.48,-107.13 1420.13,-155.71 1120,-107 1112.66,-105.81 1104.99,-104 1097.62,-101.94"/>
<polygon fill="#63b8ff" stroke="#63b8ff" points="2500.77,-146.35 2511.1,-144.04 2501.58,-139.4 2500.77,-146.35"/>
</g>
<!-- Node61 -->
<g id="node16" class="node">
<title>Node61</title>
<g id="a_node16"><a xlink:href="d__a__cstaF_8h.html" target="_top" xlink:title=" ">
<polygon fill="white" stroke="#666666" points="1232.5,-101.5 1129.5,-101.5 1129.5,-71.5 1232.5,-71.5 1232.5,-101.5"/>
<text text-anchor="start" x="1137.5" y="-89.5" font-family="Helvetica,sans-Serif" font-size="10.00">include/rel/d/a/d_a</text>
<text text-anchor="middle" x="1181" y="-78.5" font-family="Helvetica,sans-Serif" font-size="10.00">_cstaF/d_a_cstaF.h</text>
</a>
</g>
</g>
<!-- Node5&#45;&gt;Node61 -->
<g id="edge16" class="edge">
<title>Node5&#45;&gt;Node61</title>
<path fill="none" stroke="#63b8ff" d="M2501.47,-142.91C2207.64,-110.01 1515.05,-153.58 1242,-107 1234.99,-105.8 1227.67,-103.99 1220.63,-101.93"/>
<polygon fill="#63b8ff" stroke="#63b8ff" points="2500.76,-146.35 2511.1,-144.04 2501.58,-139.4 2500.76,-146.35"/>
</g>
<!-- Node62 -->
<g id="node17" class="node">
<title>Node62</title>
<g id="a_node17"><a xlink:href="d__a__dmidna_8h.html" target="_top" xlink:title=" ">
<polygon fill="white" stroke="#666666" points="1367,-101.5 1251,-101.5 1251,-71.5 1367,-71.5 1367,-101.5"/>
<text text-anchor="start" x="1259" y="-89.5" font-family="Helvetica,sans-Serif" font-size="10.00">include/rel/d/a/d_a</text>
<text text-anchor="middle" x="1309" y="-78.5" font-family="Helvetica,sans-Serif" font-size="10.00">_dmidna/d_a_dmidna.h</text>
</a>
</g>
</g>
<!-- Node5&#45;&gt;Node62 -->
<g id="edge17" class="edge">
<title>Node5&#45;&gt;Node62</title>
<path fill="none" stroke="#63b8ff" d="M2501.54,-142.87C2004.24,-82.67 1867.75,-185.13 1376,-107 1368.46,-105.8 1360.58,-104.01 1352.97,-102"/>
<polygon fill="#63b8ff" stroke="#63b8ff" points="2500.75,-146.3 2511.1,-144.05 2501.6,-139.35 2500.75,-146.3"/>
</g>
<!-- Node63 -->
<g id="node18" class="node">
<title>Node63</title>
<g id="a_node18"><a xlink:href="d__a__dshutter_8h.html" target="_top" xlink:title=" ">
<polygon fill="#fff0f0" stroke="red" points="1509,-101.5 1385,-101.5 1385,-71.5 1509,-71.5 1509,-101.5"/>
<text text-anchor="start" x="1393" y="-89.5" font-family="Helvetica,sans-Serif" font-size="10.00">include/rel/d/a/d_a</text>
<text text-anchor="middle" x="1447" y="-78.5" font-family="Helvetica,sans-Serif" font-size="10.00">_dshutter/d_a_dshutter.h</text>
</a>
</g>
</g>
<!-- Node5&#45;&gt;Node63 -->
<g id="edge18" class="edge">
<title>Node5&#45;&gt;Node63</title>
<path fill="none" stroke="#63b8ff" d="M2501.3,-142.83C2066.93,-89.38 1947.74,-172.95 1518,-107 1510.04,-105.78 1501.7,-103.98 1493.64,-101.96"/>
<polygon fill="#63b8ff" stroke="#63b8ff" points="2500.74,-146.29 2511.1,-144.06 2501.61,-139.35 2500.74,-146.29"/>
</g>
<!-- Node65 -->
<g id="node19" class="node">
<title>Node65</title>
<g id="a_node19"><a xlink:href="d__a__guard__mng_8h.html" target="_top" xlink:title=" ">
<polygon fill="white" stroke="#666666" points="1676.5,-101.5 1527.5,-101.5 1527.5,-71.5 1676.5,-71.5 1676.5,-101.5"/>
<text text-anchor="start" x="1535.5" y="-89.5" font-family="Helvetica,sans-Serif" font-size="10.00">include/rel/d/a/d_a</text>
<text text-anchor="middle" x="1602" y="-78.5" font-family="Helvetica,sans-Serif" font-size="10.00">_guard_mng/d_a_guard_mng.h</text>
</a>
</g>
</g>
<!-- Node5&#45;&gt;Node65 -->
<g id="edge19" class="edge">
<title>Node5&#45;&gt;Node65</title>
<path fill="none" stroke="#63b8ff" d="M2501.32,-142.82C2141.14,-97.17 2042.85,-155.85 1686,-107 1676.8,-105.74 1667.13,-103.95 1657.76,-101.95"/>
<polygon fill="#63b8ff" stroke="#63b8ff" points="2500.73,-146.27 2511.1,-144.08 2501.63,-139.33 2500.73,-146.27"/>
</g>
<!-- Node66 -->
<g id="node20" class="node">
<title>Node66</title>
<g id="a_node20"><a xlink:href="d__a__hitobj_8h.html" target="_top" xlink:title=" ">
<polygon fill="white" stroke="#666666" points="1795,-101.5 1695,-101.5 1695,-71.5 1795,-71.5 1795,-101.5"/>
<text text-anchor="start" x="1703" y="-89.5" font-family="Helvetica,sans-Serif" font-size="10.00">include/rel/d/a/d_a</text>
<text text-anchor="middle" x="1745" y="-78.5" font-family="Helvetica,sans-Serif" font-size="10.00">_hitobj/d_a_hitobj.h</text>
</a>
</g>
</g>
<!-- Node5&#45;&gt;Node66 -->
<g id="edge20" class="edge">
<title>Node5&#45;&gt;Node66</title>
<path fill="none" stroke="#63b8ff" d="M2501.53,-142.84C2193.22,-103.03 2106.6,-163.72 1804,-107 1797.43,-105.77 1790.58,-103.99 1783.97,-102"/>
<polygon fill="#63b8ff" stroke="#63b8ff" points="2500.72,-146.26 2511.1,-144.1 2501.64,-139.32 2500.72,-146.26"/>
</g>
<!-- Node67 -->
<g id="node21" class="node">
<title>Node67</title>
<g id="a_node21"><a xlink:href="d__a__izumi__gate_8h.html" target="_top" xlink:title=" ">
<polygon fill="white" stroke="#666666" points="1928.5,-107 1813.5,-107 1813.5,-66 1928.5,-66 1928.5,-107"/>
<text text-anchor="start" x="1821.5" y="-95" font-family="Helvetica,sans-Serif" font-size="10.00">include/rel/d/a/d_a</text>
<text text-anchor="start" x="1821.5" y="-84" font-family="Helvetica,sans-Serif" font-size="10.00">_izumi_gate/d_a_izumi</text>
<text text-anchor="middle" x="1871" y="-73" font-family="Helvetica,sans-Serif" font-size="10.00">_gate.h</text>
</a>
</g>
</g>
<!-- Node5&#45;&gt;Node67 -->
<g id="edge21" class="edge">
<title>Node5&#45;&gt;Node67</title>
<path fill="none" stroke="#63b8ff" d="M2501.35,-142.79C2251.9,-109.16 2181.99,-150.4 1937,-107 1934.29,-106.52 1931.54,-105.97 1928.77,-105.36"/>
<polygon fill="#63b8ff" stroke="#63b8ff" points="2500.71,-146.23 2511.09,-144.13 2501.66,-139.3 2500.71,-146.23"/>
</g>
<!-- Node68 -->
<g id="node22" class="node">
<title>Node68</title>
<g id="a_node22"><a xlink:href="d__a__set__bgobj_8h.html" target="_top" xlink:title=" ">
<polygon fill="#fff0f0" stroke="red" points="2083.5,-101.5 1946.5,-101.5 1946.5,-71.5 2083.5,-71.5 2083.5,-101.5"/>
<text text-anchor="start" x="1954.5" y="-89.5" font-family="Helvetica,sans-Serif" font-size="10.00">include/rel/d/a/d_a</text>
<text text-anchor="middle" x="2015" y="-78.5" font-family="Helvetica,sans-Serif" font-size="10.00">_set_bgobj/d_a_set_bgobj.h</text>
</a>
</g>
</g>
<!-- Node5&#45;&gt;Node68 -->
<g id="edge22" class="edge">
<title>Node5&#45;&gt;Node68</title>
<path fill="none" stroke="#63b8ff" d="M2501.34,-142.74C2320.72,-116.21 2270.22,-136.72 2093,-107 2084.88,-105.64 2076.36,-103.87 2068.05,-101.95"/>
<polygon fill="#63b8ff" stroke="#63b8ff" points="2500.67,-146.17 2511.08,-144.2 2501.71,-139.25 2500.67,-146.17"/>
</g>
<!-- Node69 -->
<g id="node23" class="node">
<title>Node69</title>
<g id="a_node23"><a xlink:href="d__a__skip__2D_8h.html" target="_top" xlink:title=" ">
<polygon fill="white" stroke="#666666" points="2226,-101.5 2102,-101.5 2102,-71.5 2226,-71.5 2226,-101.5"/>
<text text-anchor="start" x="2110" y="-89.5" font-family="Helvetica,sans-Serif" font-size="10.00">include/rel/d/a/d_a</text>
<text text-anchor="middle" x="2164" y="-78.5" font-family="Helvetica,sans-Serif" font-size="10.00">_skip_2D/d_a_skip_2D.h</text>
</a>
</g>
</g>
<!-- Node5&#45;&gt;Node69 -->
<g id="edge23" class="edge">
<title>Node5&#45;&gt;Node69</title>
<path fill="none" stroke="#63b8ff" d="M2501.24,-142.62C2383.19,-122.6 2349.63,-130.3 2235,-107 2227.99,-105.57 2220.64,-103.84 2213.45,-102"/>
<polygon fill="#63b8ff" stroke="#63b8ff" points="2500.61,-146.06 2511.06,-144.32 2501.8,-139.17 2500.61,-146.06"/>
</g>
<!-- Node70 -->
<g id="node24" class="node">
<title>Node70</title>
<g id="a_node24"><a xlink:href="d__a__spinner_8h.html" target="_top" xlink:title=" ">
<polygon fill="#fff0f0" stroke="red" points="2360,-101.5 2244,-101.5 2244,-71.5 2360,-71.5 2360,-101.5"/>
<text text-anchor="start" x="2252" y="-89.5" font-family="Helvetica,sans-Serif" font-size="10.00">include/rel/d/a/d_a</text>
<text text-anchor="middle" x="2302" y="-78.5" font-family="Helvetica,sans-Serif" font-size="10.00">_spinner/d_a_spinner.h</text>
</a>
</g>
</g>
<!-- Node5&#45;&gt;Node70 -->
<g id="edge24" class="edge">
<title>Node5&#45;&gt;Node70</title>
<path fill="none" stroke="#63b8ff" d="M2501.39,-140.92C2462.66,-131.4 2412.97,-118.92 2369,-107 2363.15,-105.42 2357.04,-103.71 2350.97,-101.98"/>
<polygon fill="#63b8ff" stroke="#63b8ff" points="2500.51,-144.31 2511.06,-143.29 2502.18,-137.51 2500.51,-144.31"/>
</g>
<!-- Node73 -->
<g id="node25" class="node">
<title>Node73</title>
<g id="a_node25"><a xlink:href="d__a__swTime_8h.html" target="_top" xlink:title=" ">
<polygon fill="white" stroke="#666666" points="2500,-101.5 2378,-101.5 2378,-71.5 2500,-71.5 2500,-101.5"/>
<text text-anchor="start" x="2386" y="-89.5" font-family="Helvetica,sans-Serif" font-size="10.00">include/rel/d/a/d_a</text>
<text text-anchor="middle" x="2439" y="-78.5" font-family="Helvetica,sans-Serif" font-size="10.00">_swTime/d_a_swTime.h</text>
</a>
</g>
</g>
<!-- Node5&#45;&gt;Node73 -->
<g id="edge25" class="edge">
<title>Node5&#45;&gt;Node73</title>
<path fill="none" stroke="#63b8ff" d="M2531.15,-137.15C2510.27,-125.9 2484.63,-112.08 2465.69,-101.88"/>
<polygon fill="#63b8ff" stroke="#63b8ff" points="2529.47,-140.22 2539.94,-141.88 2532.8,-134.06 2529.47,-140.22"/>
</g>
<!-- Node74 -->
<g id="node26" class="node">
<title>Node74</title>
<g id="a_node26"><a xlink:href="d__a__vrbox_8h.html" target="_top" xlink:title=" ">
<polygon fill="white" stroke="#666666" points="2618,-101.5 2518,-101.5 2518,-71.5 2618,-71.5 2618,-101.5"/>
<text text-anchor="start" x="2526" y="-89.5" font-family="Helvetica,sans-Serif" font-size="10.00">include/rel/d/a/d_a</text>
<text text-anchor="middle" x="2568" y="-78.5" font-family="Helvetica,sans-Serif" font-size="10.00">_vrbox/d_a_vrbox.h</text>
</a>
</g>
</g>
<!-- Node5&#45;&gt;Node74 -->
<g id="edge26" class="edge">
<title>Node5&#45;&gt;Node74</title>
<path fill="none" stroke="#63b8ff" d="M2568,-131.26C2568,-121.33 2568,-110.36 2568,-101.88"/>
<polygon fill="#63b8ff" stroke="#63b8ff" points="2564.5,-131.09 2568,-141.09 2571.5,-131.09 2564.5,-131.09"/>
</g>
<!-- Node75 -->
<g id="node27" class="node">
<title>Node75</title>
<g id="a_node27"><a xlink:href="d__a__e__db__leaf_8h.html" target="_top" xlink:title=" ">
<polygon fill="white" stroke="#666666" points="2755.5,-107 2636.5,-107 2636.5,-66 2755.5,-66 2755.5,-107"/>
<text text-anchor="start" x="2644.5" y="-95" font-family="Helvetica,sans-Serif" font-size="10.00">include/rel/d/a/e/d</text>
<text text-anchor="start" x="2644.5" y="-84" font-family="Helvetica,sans-Serif" font-size="10.00">_a_e_db_leaf/d_a_e_db</text>
<text text-anchor="middle" x="2696" y="-73" font-family="Helvetica,sans-Serif" font-size="10.00">_leaf.h</text>
</a>
</g>
</g>
<!-- Node5&#45;&gt;Node75 -->
<g id="edge27" class="edge">
<title>Node5&#45;&gt;Node75</title>
<path fill="none" stroke="#63b8ff" d="M2604.23,-137.33C2621.47,-127.97 2642.03,-116.8 2659.32,-107.42"/>
<polygon fill="#63b8ff" stroke="#63b8ff" points="2602.97,-134.03 2595.85,-141.88 2606.31,-140.18 2602.97,-134.03"/>
</g>
<!-- Node76 -->
<g id="node28" class="node">
<title>Node76</title>
<g id="a_node28"><a xlink:href="d__a__kytag02_8h.html" target="_top" xlink:title=" ">
<polygon fill="white" stroke="#666666" points="2914,-101.5 2774,-101.5 2774,-71.5 2914,-71.5 2914,-101.5"/>
<text text-anchor="start" x="2782" y="-89.5" font-family="Helvetica,sans-Serif" font-size="10.00">include/rel/d/a/kytag</text>
<text text-anchor="middle" x="2844" y="-78.5" font-family="Helvetica,sans-Serif" font-size="10.00">/d_a_kytag02/d_a_kytag02.h</text>
</a>
</g>
</g>
<!-- Node5&#45;&gt;Node76 -->
<g id="edge28" class="edge">
<title>Node5&#45;&gt;Node76</title>
<path fill="none" stroke="#63b8ff" d="M2634.35,-140.29C2680.78,-128.6 2742.19,-113.14 2786.53,-101.97"/>
<polygon fill="#63b8ff" stroke="#63b8ff" points="2633.5,-136.9 2624.66,-142.73 2635.21,-143.69 2633.5,-136.9"/>
</g>
<!-- Node77 -->
<g id="node29" class="node">
<title>Node77</title>
<g id="a_node29"><a xlink:href="d__a__obj__bombf_8h.html" target="_top" xlink:title=" ">
<polygon fill="white" stroke="#666666" points="3054,-107 2932,-107 2932,-66 3054,-66 3054,-107"/>
<text text-anchor="start" x="2940" y="-95" font-family="Helvetica,sans-Serif" font-size="10.00">include/rel/d/a/obj</text>
<text text-anchor="start" x="2940" y="-84" font-family="Helvetica,sans-Serif" font-size="10.00">/d_a_obj_bombf/d_a_obj</text>
<text text-anchor="middle" x="2993" y="-73" font-family="Helvetica,sans-Serif" font-size="10.00">_bombf.h</text>
</a>
</g>
</g>
<!-- Node5&#45;&gt;Node77 -->
<g id="edge29" class="edge">
<title>Node5&#45;&gt;Node77</title>
<path fill="none" stroke="#63b8ff" d="M2634.33,-142.9C2763.01,-121.89 2799.13,-131.8 2923,-107 2925.85,-106.43 2928.74,-105.81 2931.66,-105.14"/>
<polygon fill="#63b8ff" stroke="#63b8ff" points="2634.03,-139.4 2624.75,-144.5 2635.19,-146.31 2634.03,-139.4"/>
</g>
<!-- Node78 -->
<g id="node30" class="node">
<title>Node78</title>
<g id="a_node30"><a xlink:href="d__a__obj__carry_8h.html" target="_top" xlink:title=" ">
<polygon fill="#fff0f0" stroke="red" points="3188,-107 3072,-107 3072,-66 3188,-66 3188,-107"/>
<text text-anchor="start" x="3080" y="-95" font-family="Helvetica,sans-Serif" font-size="10.00">include/rel/d/a/obj</text>
<text text-anchor="start" x="3080" y="-84" font-family="Helvetica,sans-Serif" font-size="10.00">/d_a_obj_carry/d_a_obj</text>
<text text-anchor="middle" x="3130" y="-73" font-family="Helvetica,sans-Serif" font-size="10.00">_carry.h</text>
</a>
</g>
</g>
<!-- Node5&#45;&gt;Node78 -->
<g id="edge30" class="edge">
<title>Node5&#45;&gt;Node78</title>
<path fill="none" stroke="#63b8ff" d="M2634.47,-142.95C2824.71,-115.77 2878.03,-141.3 3063,-107 3065.86,-106.47 3068.77,-105.87 3071.7,-105.21"/>
<polygon fill="#63b8ff" stroke="#63b8ff" points="2634.12,-139.47 2624.73,-144.38 2635.13,-146.4 2634.12,-139.47"/>
</g>
<!-- Node80 -->
<g id="node31" class="node">
<title>Node80</title>
<g id="a_node31"><a xlink:href="d__a__obj__cboard_8h.html" target="_top" xlink:title=" ">
<polygon fill="white" stroke="#666666" points="3313.5,-107 3206.5,-107 3206.5,-66 3313.5,-66 3313.5,-107"/>
<text text-anchor="start" x="3214.5" y="-95" font-family="Helvetica,sans-Serif" font-size="10.00">include/rel/d/a/obj</text>
<text text-anchor="start" x="3214.5" y="-84" font-family="Helvetica,sans-Serif" font-size="10.00">/d_a_obj_cboard/d_a</text>
<text text-anchor="middle" x="3260" y="-73" font-family="Helvetica,sans-Serif" font-size="10.00">_obj_cboard.h</text>
</a>
</g>
</g>
<!-- Node5&#45;&gt;Node80 -->
<g id="edge31" class="edge">
<title>Node5&#45;&gt;Node80</title>
<path fill="none" stroke="#63b8ff" d="M2634.46,-142.99C2883.83,-109.73 2953.59,-151.79 3197,-107 3200.04,-106.44 3203.14,-105.78 3206.25,-105.05"/>
<polygon fill="#63b8ff" stroke="#63b8ff" points="2634.15,-139.5 2624.72,-144.32 2635.1,-146.43 2634.15,-139.5"/>
</g>
<!-- Node81 -->
<g id="node32" class="node">
<title>Node81</title>
<g id="a_node32"><a xlink:href="d__a__obj__cowdoor_8h.html" target="_top" xlink:title=" ">
<polygon fill="white" stroke="#666666" points="3446,-107 3332,-107 3332,-66 3446,-66 3446,-107"/>
<text text-anchor="start" x="3340" y="-95" font-family="Helvetica,sans-Serif" font-size="10.00">include/rel/d/a/obj</text>
<text text-anchor="start" x="3340" y="-84" font-family="Helvetica,sans-Serif" font-size="10.00">/d_a_obj_cowdoor/d_a</text>
<text text-anchor="middle" x="3389" y="-73" font-family="Helvetica,sans-Serif" font-size="10.00">_obj_cowdoor.h</text>
</a>
</g>
</g>
<!-- Node5&#45;&gt;Node81 -->
<g id="edge32" class="edge">
<title>Node5&#45;&gt;Node81</title>
<path fill="none" stroke="#63b8ff" d="M2634.62,-142.99C2939.46,-103.9 3024.02,-158.23 3323,-107 3325.83,-106.52 3328.7,-105.95 3331.6,-105.32"/>
<polygon fill="#63b8ff" stroke="#63b8ff" points="2634.18,-139.51 2624.71,-144.28 2635.08,-146.46 2634.18,-139.51"/>
</g>
<!-- Node82 -->
<g id="node33" class="node">
<title>Node82</title>
<g id="a_node33"><a xlink:href="d__a__obj__digholl_8h.html" target="_top" xlink:title=" ">
<polygon fill="white" stroke="#666666" points="3569.5,-107 3464.5,-107 3464.5,-66 3569.5,-66 3569.5,-107"/>
<text text-anchor="start" x="3472.5" y="-95" font-family="Helvetica,sans-Serif" font-size="10.00">include/rel/d/a/obj</text>
<text text-anchor="start" x="3472.5" y="-84" font-family="Helvetica,sans-Serif" font-size="10.00">/d_a_obj_digholl/d_a</text>
<text text-anchor="middle" x="3517" y="-73" font-family="Helvetica,sans-Serif" font-size="10.00">_obj_digholl.h</text>
</a>
</g>
</g>
<!-- Node5&#45;&gt;Node82 -->
<g id="edge33" class="edge">
<title>Node5&#45;&gt;Node82</title>
<path fill="none" stroke="#63b8ff" d="M2634.58,-143.01C2997.75,-97.84 3098.55,-169.75 3455,-107 3458,-106.47 3461.06,-105.84 3464.13,-105.13"/>
<polygon fill="#63b8ff" stroke="#63b8ff" points="2634.19,-139.53 2624.71,-144.26 2635.07,-146.47 2634.19,-139.53"/>
</g>
<!-- Node83 -->
<g id="node34" class="node">
<title>Node83</title>
<g id="a_node34"><a xlink:href="d__a__obj__enemy__create_8h.html" target="_top" xlink:title=" ">
<polygon fill="white" stroke="#666666" points="3714.5,-107 3587.5,-107 3587.5,-66 3714.5,-66 3714.5,-107"/>
<text text-anchor="start" x="3595.5" y="-95" font-family="Helvetica,sans-Serif" font-size="10.00">include/rel/d/a/obj</text>
<text text-anchor="start" x="3595.5" y="-84" font-family="Helvetica,sans-Serif" font-size="10.00">/d_a_obj_enemy_create</text>
<text text-anchor="middle" x="3651" y="-73" font-family="Helvetica,sans-Serif" font-size="10.00">/d_a_obj_enemy_create.h</text>
</a>
</g>
</g>
<!-- Node5&#45;&gt;Node83 -->
<g id="edge34" class="edge">
<title>Node5&#45;&gt;Node83</title>
<path fill="none" stroke="#63b8ff" d="M2634.4,-143.03C3052.46,-91.9 3166.71,-169.84 3579,-107 3581.69,-106.59 3584.42,-106.12 3587.17,-105.59"/>
<polygon fill="#63b8ff" stroke="#63b8ff" points="2634.2,-139.53 2624.71,-144.24 2635.06,-146.48 2634.2,-139.53"/>
</g>
<!-- Node84 -->
<g id="node35" class="node">
<title>Node84</title>
<g id="a_node35"><a xlink:href="d__a__obj__kjgjs_8h.html" target="_top" xlink:title=" ">
<polygon fill="white" stroke="#666666" points="3849,-107 3733,-107 3733,-66 3849,-66 3849,-107"/>
<text text-anchor="start" x="3741" y="-95" font-family="Helvetica,sans-Serif" font-size="10.00">include/rel/d/a/obj</text>
<text text-anchor="start" x="3741" y="-84" font-family="Helvetica,sans-Serif" font-size="10.00">/d_a_obj_kjgjs/d_a_obj</text>
<text text-anchor="middle" x="3791" y="-73" font-family="Helvetica,sans-Serif" font-size="10.00">_kjgjs.h</text>
</a>
</g>
</g>
<!-- Node5&#45;&gt;Node84 -->
<g id="edge35" class="edge">
<title>Node5&#45;&gt;Node84</title>
<path fill="none" stroke="#63b8ff" d="M2634.3,-143.05C3116.51,-85.19 3248.52,-182.81 3724,-107 3726.87,-106.54 3729.79,-106 3732.73,-105.39"/>
<polygon fill="#63b8ff" stroke="#63b8ff" points="2634.21,-139.54 2624.71,-144.22 2635.06,-146.49 2634.21,-139.54"/>
</g>
<!-- Node85 -->
<g id="node36" class="node">
<title>Node85</title>
<g id="a_node36"><a xlink:href="d__a__obj__mgate_8h.html" target="_top" xlink:title=" ">
<polygon fill="white" stroke="#666666" points="3989,-107 3867,-107 3867,-66 3989,-66 3989,-107"/>
<text text-anchor="start" x="3875" y="-95" font-family="Helvetica,sans-Serif" font-size="10.00">include/rel/d/a/obj</text>
<text text-anchor="start" x="3875" y="-84" font-family="Helvetica,sans-Serif" font-size="10.00">/d_a_obj_mgate/d_a_obj</text>
<text text-anchor="middle" x="3928" y="-73" font-family="Helvetica,sans-Serif" font-size="10.00">_mgate.h</text>
</a>
</g>
</g>
<!-- Node5&#45;&gt;Node85 -->
<g id="edge36" class="edge">
<title>Node5&#45;&gt;Node85</title>
<path fill="none" stroke="#63b8ff" d="M2634.44,-143.04C3175.72,-78.9 3323.16,-188.12 3858,-107 3860.87,-106.56 3863.79,-106.05 3866.72,-105.47"/>
<polygon fill="#63b8ff" stroke="#63b8ff" points="2634.22,-139.54 2624.7,-144.21 2635.05,-146.49 2634.22,-139.54"/>
</g>
<!-- Node86 -->
<g id="node37" class="node">
<title>Node86</title>
<g id="a_node37"><a xlink:href="d__a__obj__onsen_8h.html" target="_top" xlink:title=" ">
<polygon fill="white" stroke="#666666" points="4129,-107 4007,-107 4007,-66 4129,-66 4129,-107"/>
<text text-anchor="start" x="4015" y="-95" font-family="Helvetica,sans-Serif" font-size="10.00">include/rel/d/a/obj</text>
<text text-anchor="start" x="4015" y="-84" font-family="Helvetica,sans-Serif" font-size="10.00">/d_a_obj_onsen/d_a_obj</text>
<text text-anchor="middle" x="4068" y="-73" font-family="Helvetica,sans-Serif" font-size="10.00">_onsen.h</text>
</a>
</g>
</g>
<!-- Node5&#45;&gt;Node86 -->
<g id="edge37" class="edge">
<title>Node5&#45;&gt;Node86</title>
<path fill="none" stroke="#63b8ff" d="M2634.36,-143.06C3237.56,-72.33 3401.51,-196.56 3998,-107 4000.87,-106.57 4003.79,-106.06 4006.72,-105.49"/>
<polygon fill="#63b8ff" stroke="#63b8ff" points="2634.22,-139.55 2624.7,-144.2 2635.05,-146.5 2634.22,-139.55"/>
</g>
<!-- Node87 -->
<g id="node38" class="node">
<title>Node87</title>
<g id="a_node38"><a xlink:href="d__a__obj__onsenFire_8h.html" target="_top" xlink:title=" ">
<polygon fill="white" stroke="#666666" points="4257,-107 4147,-107 4147,-66 4257,-66 4257,-107"/>
<text text-anchor="start" x="4155" y="-95" font-family="Helvetica,sans-Serif" font-size="10.00">include/rel/d/a/obj</text>
<text text-anchor="start" x="4155" y="-84" font-family="Helvetica,sans-Serif" font-size="10.00">/d_a_obj_onsenFire/d</text>
<text text-anchor="middle" x="4202" y="-73" font-family="Helvetica,sans-Serif" font-size="10.00">_a_obj_onsenFire.h</text>
</a>
</g>
</g>
<!-- Node5&#45;&gt;Node87 -->
<g id="edge38" class="edge">
<title>Node5&#45;&gt;Node87</title>
<path fill="none" stroke="#63b8ff" d="M2634.39,-143.09C2983.25,-104.81 3811.27,-159.67 4138,-107 4140.87,-106.54 4143.78,-105.98 4146.71,-105.35"/>
<polygon fill="#63b8ff" stroke="#63b8ff" points="2634.24,-139.59 2624.7,-144.2 2635.04,-146.54 2634.24,-139.59"/>
</g>
<!-- Node88 -->
<g id="node39" class="node">
<title>Node88</title>
<g id="a_node39"><a xlink:href="d__a__obj__prop_8h.html" target="_top" xlink:title=" ">
<polygon fill="white" stroke="#666666" points="4389,-107 4275,-107 4275,-66 4389,-66 4389,-107"/>
<text text-anchor="start" x="4283" y="-95" font-family="Helvetica,sans-Serif" font-size="10.00">include/rel/d/a/obj</text>
<text text-anchor="start" x="4283" y="-84" font-family="Helvetica,sans-Serif" font-size="10.00">/d_a_obj_prop/d_a_obj</text>
<text text-anchor="middle" x="4332" y="-73" font-family="Helvetica,sans-Serif" font-size="10.00">_prop.h</text>
</a>
</g>
</g>
<!-- Node5&#45;&gt;Node88 -->
<g id="edge39" class="edge">
<title>Node5&#45;&gt;Node88</title>
<path fill="none" stroke="#63b8ff" d="M2634.48,-143.08C3011.73,-101.83 3910.95,-162.36 4266,-107 4268.83,-106.56 4271.72,-106.03 4274.61,-105.43"/>
<polygon fill="#63b8ff" stroke="#63b8ff" points="2634.24,-139.59 2624.7,-144.19 2635.03,-146.54 2634.24,-139.59"/>
</g>
<!-- Node89 -->
<g id="node40" class="node">
<title>Node89</title>
<g id="a_node40"><a xlink:href="d__a__obj__rcircle_8h.html" target="_top" xlink:title=" ">
<polygon fill="white" stroke="#666666" points="4511,-107 4407,-107 4407,-66 4511,-66 4511,-107"/>
<text text-anchor="start" x="4415" y="-95" font-family="Helvetica,sans-Serif" font-size="10.00">include/rel/d/a/obj</text>
<text text-anchor="start" x="4415" y="-84" font-family="Helvetica,sans-Serif" font-size="10.00">/d_a_obj_rcircle/d_a</text>
<text text-anchor="middle" x="4459" y="-73" font-family="Helvetica,sans-Serif" font-size="10.00">_obj_rcircle.h</text>
</a>
</g>
</g>
<!-- Node5&#45;&gt;Node89 -->
<g id="edge40" class="edge">
<title>Node5&#45;&gt;Node89</title>
<path fill="none" stroke="#63b8ff" d="M2634.47,-143.08C3040.94,-98.85 4014.61,-170.8 4398,-107 4400.85,-106.53 4403.75,-105.95 4406.66,-105.29"/>
<polygon fill="#63b8ff" stroke="#63b8ff" points="2634.25,-139.59 2624.7,-144.19 2635.03,-146.54 2634.25,-139.59"/>
</g>
<!-- Node90 -->
<g id="node41" class="node">
<title>Node90</title>
<g id="a_node41"><a xlink:href="d__a__obj__smoke_8h.html" target="_top" xlink:title=" ">
<polygon fill="white" stroke="#666666" points="4654.5,-107 4529.5,-107 4529.5,-66 4654.5,-66 4654.5,-107"/>
<text text-anchor="start" x="4537.5" y="-95" font-family="Helvetica,sans-Serif" font-size="10.00">include/rel/d/a/obj</text>
<text text-anchor="start" x="4537.5" y="-84" font-family="Helvetica,sans-Serif" font-size="10.00">/d_a_obj_smoke/d_a_obj</text>
<text text-anchor="middle" x="4592" y="-73" font-family="Helvetica,sans-Serif" font-size="10.00">_smoke.h</text>
</a>
</g>
</g>
<!-- Node5&#45;&gt;Node90 -->
<g id="edge41" class="edge">
<title>Node5&#45;&gt;Node90</title>
<path fill="none" stroke="#63b8ff" d="M2634.59,-143.07C3068.11,-95.87 4108.45,-165.74 4520,-107 4523.08,-106.56 4526.21,-106.03 4529.36,-105.44"/>
<polygon fill="#63b8ff" stroke="#63b8ff" points="2634.25,-139.59 2624.7,-144.18 2635.03,-146.54 2634.25,-139.59"/>
</g>
<!-- Node91 -->
<g id="node42" class="node">
<title>Node91</title>
<g id="a_node42"><a xlink:href="d__a__obj__stone_8h.html" target="_top" xlink:title=" ">
<polygon fill="white" stroke="#666666" points="4791.5,-107 4672.5,-107 4672.5,-66 4791.5,-66 4791.5,-107"/>
<text text-anchor="start" x="4680.5" y="-95" font-family="Helvetica,sans-Serif" font-size="10.00">include/rel/d/a/obj</text>
<text text-anchor="start" x="4680.5" y="-84" font-family="Helvetica,sans-Serif" font-size="10.00">/d_a_obj_stone/d_a_obj</text>
<text text-anchor="middle" x="4732" y="-73" font-family="Helvetica,sans-Serif" font-size="10.00">_stone.h</text>
</a>
</g>
</g>
<!-- Node5&#45;&gt;Node91 -->
<g id="edge42" class="edge">
<title>Node5&#45;&gt;Node91</title>
<path fill="none" stroke="#63b8ff" d="M2634.4,-143.09C3099.69,-92.55 4221.16,-173.25 4664,-107 4666.67,-106.6 4669.39,-106.13 4672.12,-105.59"/>
<polygon fill="#63b8ff" stroke="#63b8ff" points="2634.25,-139.59 2624.7,-144.18 2635.03,-146.54 2634.25,-139.59"/>
</g>
<!-- Node5&#45;&gt;Node138 -->
<g id="edge43" class="edge">
<title>Node5&#45;&gt;Node138</title>
<path fill="none" stroke="#63b8ff" d="M2634.3,-143.1C3197.75,-82.23 4567.95,-190.28 5108,-107 5121.86,-104.86 5136.88,-100.5 5148.98,-96.44"/>
<polygon fill="#63b8ff" stroke="#63b8ff" points="2634.25,-139.59 2624.7,-144.17 2635.02,-146.54 2634.25,-139.59"/>
</g>
<!-- Node5&#45;&gt;Node154 -->
<g id="edge44" class="edge">
<title>Node5&#45;&gt;Node154</title>
<path fill="none" stroke="#63b8ff" d="M2501.42,-143C2191.66,-113.37 362.4,-152.87 103,-107 90.94,-104.87 77.99,-100.5 67.58,-96.44"/>
<polygon fill="#63b8ff" stroke="#63b8ff" points="2500.79,-146.45 2511.11,-144.01 2501.53,-139.49 2500.79,-146.45"/>
</g>
<!-- Node165 -->
<g id="node45" class="node">
<title>Node165</title>
<g id="a_node45"><a xlink:href="d__map__path__fmap_8cpp.html" target="_top" xlink:title=" ">
<polygon fill="white" stroke="#666666" points="228,-101.5 112,-101.5 112,-71.5 228,-71.5 228,-101.5"/>
<text text-anchor="start" x="120" y="-89.5" font-family="Helvetica,sans-Serif" font-size="10.00">src/d/map/d_map_path</text>
<text text-anchor="middle" x="170" y="-78.5" font-family="Helvetica,sans-Serif" font-size="10.00">_fmap.cpp</text>
</a>
</g>
</g>
<!-- Node5&#45;&gt;Node165 -->
<g id="edge45" class="edge">
<title>Node5&#45;&gt;Node165</title>
<path fill="none" stroke="#63b8ff" d="M2501.3,-142.9C1984.99,-86.29 731.57,-181.52 237,-107 229.21,-105.83 221.06,-103.99 213.23,-101.91"/>
<polygon fill="#63b8ff" stroke="#63b8ff" points="2500.78,-146.36 2511.11,-144.01 2501.56,-139.4 2500.78,-146.36"/>
</g>
<!-- Node33&#45;&gt;Node15 -->
<g id="edge12" class="edge">
<title>Node33&#45;&gt;Node15</title>
<path fill="none" stroke="#63b8ff" d="M721.28,-73.01C730.49,-70.17 740.52,-67.55 750,-66 961.53,-31.48 2529.56,-18.57 2837.58,-16.36"/>
<polygon fill="#63b8ff" stroke="#63b8ff" points="720.42,-69.61 712,-76.04 722.59,-76.26 720.42,-69.61"/>
</g>
<!-- Node196&#45;&gt;Node154 -->
<g id="edge51" class="edge">
<title>Node196&#45;&gt;Node154</title>
<path fill="none" stroke="#63b8ff" d="M134.78,-137.1C111,-123.66 80.78,-106.59 62.71,-96.38"/>
<polygon fill="#63b8ff" stroke="#63b8ff" points="132.77,-139.98 143.2,-141.85 136.21,-133.89 132.77,-139.98"/>
</g>
<!-- Node196&#45;&gt;Node165 -->
<g id="edge52" class="edge">
<title>Node196&#45;&gt;Node165</title>
<path fill="none" stroke="#63b8ff" d="M170,-131.26C170,-121.33 170,-110.36 170,-101.88"/>
<polygon fill="#63b8ff" stroke="#63b8ff" points="166.5,-131.09 170,-141.09 173.5,-131.09 166.5,-131.09"/>
</g>
</g>
</svg>
