<?xml version="1.0" encoding="UTF-8" standalone="no"?>
<!DOCTYPE svg PUBLIC "-//W3C//DTD SVG 1.1//EN"
 "http://www.w3.org/Graphics/SVG/1.1/DTD/svg11.dtd">
<!-- Generated by graphviz version 7.0.5 (20221223.1930)
 -->
<!-- Title: include/d/msg/d_msg_string.h Pages: 1 -->
<svg width="1747pt" height="159pt"
 viewBox="0.00 0.00 1747.00 159.00" xmlns="http://www.w3.org/2000/svg" xmlns:xlink="http://www.w3.org/1999/xlink">
<g id="graph0" class="graph" transform="scale(1 1) rotate(0) translate(4 155)">
<title>include/d/msg/d_msg_string.h</title>
<!-- Node1 -->
<g id="node1" class="node">
<title>Node1</title>
<g id="a_node1"><a xlink:title=" ">
<polygon fill="#999999" stroke="#666666" points="939,-151 829,-151 829,-121 939,-121 939,-151"/>
<text text-anchor="start" x="837" y="-139" font-family="Helvetica,sans-Serif" font-size="10.00">include/d/msg/d_msg</text>
<text text-anchor="middle" x="884" y="-128" font-family="Helvetica,sans-Serif" font-size="10.00">_string.h</text>
</a>
</g>
</g>
<!-- Node2 -->
<g id="node2" class="node">
<title>Node2</title>
<g id="a_node2"><a xlink:href="d__file__select_8h.html" target="_top" xlink:title=" ">
<polygon fill="white" stroke="#666666" points="112,-85 16,-85 16,-55 112,-55 112,-85"/>
<text text-anchor="start" x="24" y="-73" font-family="Helvetica,sans-Serif" font-size="10.00">include/d/file/d_file</text>
<text text-anchor="middle" x="64" y="-62" font-family="Helvetica,sans-Serif" font-size="10.00">_select.h</text>
</a>
</g>
</g>
<!-- Node1&#45;&gt;Node2 -->
<g id="edge1" class="edge">
<title>Node1&#45;&gt;Node2</title>
<path fill="none" stroke="#63b8ff" d="M817.5,-134.46C684.59,-132.53 377.02,-123.85 122,-85 118.83,-84.52 115.57,-83.94 112.3,-83.31"/>
<polygon fill="#63b8ff" stroke="#63b8ff" points="817.11,-137.95 827.15,-134.59 817.2,-130.95 817.11,-137.95"/>
</g>
<!-- Node4 -->
<g id="node4" class="node">
<title>Node4</title>
<g id="a_node4"><a xlink:href="d__bright__check_8cpp.html" target="_top" xlink:title=" ">
<polygon fill="white" stroke="#666666" points="255.5,-79.5 130.5,-79.5 130.5,-60.5 255.5,-60.5 255.5,-79.5"/>
<text text-anchor="middle" x="193" y="-67.5" font-family="Helvetica,sans-Serif" font-size="10.00">src/d/d_bright_check.cpp</text>
</a>
</g>
</g>
<!-- Node1&#45;&gt;Node4 -->
<g id="edge3" class="edge">
<title>Node1&#45;&gt;Node4</title>
<path fill="none" stroke="#63b8ff" d="M817.45,-132.06C703.77,-126.5 465.08,-112.45 265,-85 255.16,-83.65 244.63,-81.82 234.75,-79.94"/>
<polygon fill="#63b8ff" stroke="#63b8ff" points="817.04,-135.55 827.2,-132.53 817.38,-128.55 817.04,-135.55"/>
</g>
<!-- Node5 -->
<g id="node5" class="node">
<title>Node5</title>
<g id="a_node5"><a xlink:href="d__menu__calibration_8cpp.html" target="_top" xlink:title=" ">
<polygon fill="white" stroke="#666666" points="444,-79.5 274,-79.5 274,-60.5 444,-60.5 444,-79.5"/>
<text text-anchor="middle" x="359" y="-67.5" font-family="Helvetica,sans-Serif" font-size="10.00">src/d/menu/d_menu_calibration.cpp</text>
</a>
</g>
</g>
<!-- Node1&#45;&gt;Node5 -->
<g id="edge4" class="edge">
<title>Node1&#45;&gt;Node5</title>
<path fill="none" stroke="#63b8ff" d="M817.37,-127.89C732.79,-118.72 582.4,-101.92 454,-85 442.35,-83.46 429.91,-81.71 418,-79.98"/>
<polygon fill="#63b8ff" stroke="#63b8ff" points="816.79,-131.35 827.11,-128.94 817.54,-124.39 816.79,-131.35"/>
</g>
<!-- Node6 -->
<g id="node6" class="node">
<title>Node6</title>
<g id="a_node6"><a xlink:href="d__menu__collect_8cpp.html" target="_top" xlink:title=" ">
<polygon fill="white" stroke="#666666" points="617.5,-79.5 462.5,-79.5 462.5,-60.5 617.5,-60.5 617.5,-79.5"/>
<text text-anchor="middle" x="540" y="-67.5" font-family="Helvetica,sans-Serif" font-size="10.00">src/d/menu/d_menu_collect.cpp</text>
</a>
</g>
</g>
<!-- Node1&#45;&gt;Node6 -->
<g id="edge5" class="edge">
<title>Node1&#45;&gt;Node6</title>
<path fill="none" stroke="#63b8ff" d="M817.43,-122.61C750.19,-110.11 647.97,-91.09 588.19,-79.97"/>
<polygon fill="#63b8ff" stroke="#63b8ff" points="816.77,-126.05 827.24,-124.44 818.05,-119.17 816.77,-126.05"/>
</g>
<!-- Node7 -->
<g id="node7" class="node">
<title>Node7</title>
<g id="a_node7"><a xlink:href="d__menu__fishing_8cpp.html" target="_top" xlink:title=" ">
<polygon fill="white" stroke="#666666" points="790,-79.5 636,-79.5 636,-60.5 790,-60.5 790,-79.5"/>
<text text-anchor="middle" x="713" y="-67.5" font-family="Helvetica,sans-Serif" font-size="10.00">src/d/menu/d_menu_fishing.cpp</text>
</a>
</g>
</g>
<!-- Node1&#45;&gt;Node7 -->
<g id="edge6" class="edge">
<title>Node1&#45;&gt;Node7</title>
<path fill="none" stroke="#63b8ff" d="M835.09,-116.69C802.96,-104.67 762.34,-89.47 737.01,-79.99"/>
<polygon fill="#63b8ff" stroke="#63b8ff" points="833.61,-119.88 844.21,-120.11 836.07,-113.32 833.61,-119.88"/>
</g>
<!-- Node8 -->
<g id="node8" class="node">
<title>Node8</title>
<g id="a_node8"><a xlink:href="d__menu__insect_8cpp.html" target="_top" xlink:title=" ">
<polygon fill="white" stroke="#666666" points="960,-79.5 808,-79.5 808,-60.5 960,-60.5 960,-79.5"/>
<text text-anchor="middle" x="884" y="-67.5" font-family="Helvetica,sans-Serif" font-size="10.00">src/d/menu/d_menu_insect.cpp</text>
</a>
</g>
</g>
<!-- Node1&#45;&gt;Node8 -->
<g id="edge7" class="edge">
<title>Node1&#45;&gt;Node8</title>
<path fill="none" stroke="#63b8ff" d="M884,-109.59C884,-99.06 884,-87.53 884,-79.84"/>
<polygon fill="#63b8ff" stroke="#63b8ff" points="880.5,-109.28 884,-119.28 887.5,-109.28 880.5,-109.28"/>
</g>
<!-- Node9 -->
<g id="node9" class="node">
<title>Node9</title>
<g id="a_node9"><a xlink:href="d__menu__option_8cpp.html" target="_top" xlink:title=" ">
<polygon fill="white" stroke="#666666" points="1130,-79.5 978,-79.5 978,-60.5 1130,-60.5 1130,-79.5"/>
<text text-anchor="middle" x="1054" y="-67.5" font-family="Helvetica,sans-Serif" font-size="10.00">src/d/menu/d_menu_option.cpp</text>
</a>
</g>
</g>
<!-- Node1&#45;&gt;Node9 -->
<g id="edge8" class="edge">
<title>Node1&#45;&gt;Node9</title>
<path fill="none" stroke="#63b8ff" d="M932.62,-116.69C964.56,-104.67 1004.95,-89.47 1030.13,-79.99"/>
<polygon fill="#63b8ff" stroke="#63b8ff" points="931.69,-113.3 923.57,-120.1 934.16,-119.86 931.69,-113.3"/>
</g>
<!-- Node10 -->
<g id="node10" class="node">
<title>Node10</title>
<g id="a_node10"><a xlink:href="d__menu__save_8cpp.html" target="_top" xlink:title=" ">
<polygon fill="white" stroke="#666666" points="1295.5,-79.5 1148.5,-79.5 1148.5,-60.5 1295.5,-60.5 1295.5,-79.5"/>
<text text-anchor="middle" x="1222" y="-67.5" font-family="Helvetica,sans-Serif" font-size="10.00">src/d/menu/d_menu_save.cpp</text>
</a>
</g>
</g>
<!-- Node1&#45;&gt;Node10 -->
<g id="edge9" class="edge">
<title>Node1&#45;&gt;Node10</title>
<path fill="none" stroke="#63b8ff" d="M950.56,-122.4C1016.66,-109.88 1116.34,-91.01 1174.72,-79.95"/>
<polygon fill="#63b8ff" stroke="#63b8ff" points="950.1,-118.92 940.92,-124.22 951.4,-125.8 950.1,-118.92"/>
</g>
<!-- Node11 -->
<g id="node11" class="node">
<title>Node11</title>
<g id="a_node11"><a xlink:href="d__menu__skill_8cpp.html" target="_top" xlink:title=" ">
<polygon fill="white" stroke="#666666" points="1456.5,-79.5 1313.5,-79.5 1313.5,-60.5 1456.5,-60.5 1456.5,-79.5"/>
<text text-anchor="middle" x="1385" y="-67.5" font-family="Helvetica,sans-Serif" font-size="10.00">src/d/menu/d_menu_skill.cpp</text>
</a>
</g>
</g>
<!-- Node1&#45;&gt;Node11 -->
<g id="edge10" class="edge">
<title>Node1&#45;&gt;Node11</title>
<path fill="none" stroke="#63b8ff" d="M950.6,-128.24C1033.72,-119.53 1180.15,-103.32 1305,-85 1315.18,-83.51 1326.06,-81.72 1336.42,-79.94"/>
<polygon fill="#63b8ff" stroke="#63b8ff" points="950.38,-124.74 940.8,-129.26 951.11,-131.7 950.38,-124.74"/>
</g>
<!-- Node12 -->
<g id="node12" class="node">
<title>Node12</title>
<g id="a_node12"><a xlink:href="d__msg__string_8cpp.html" target="_top" xlink:title=" ">
<polygon fill="white" stroke="#666666" points="1615,-79.5 1475,-79.5 1475,-60.5 1615,-60.5 1615,-79.5"/>
<text text-anchor="middle" x="1545" y="-67.5" font-family="Helvetica,sans-Serif" font-size="10.00">src/d/msg/d_msg_string.cpp</text>
</a>
</g>
</g>
<!-- Node1&#45;&gt;Node12 -->
<g id="edge11" class="edge">
<title>Node1&#45;&gt;Node12</title>
<path fill="none" stroke="#63b8ff" d="M950.53,-131.23C1058.86,-124.66 1279.97,-109.42 1466,-85 1476.5,-83.62 1487.72,-81.83 1498.32,-79.99"/>
<polygon fill="#63b8ff" stroke="#63b8ff" points="950.43,-127.73 940.65,-131.83 950.85,-134.72 950.43,-127.73"/>
</g>
<!-- Node13 -->
<g id="node13" class="node">
<title>Node13</title>
<g id="a_node13"><a xlink:href="d__msg__scrn__explain_8cpp.html" target="_top" xlink:title=" ">
<polygon fill="white" stroke="#666666" points="1739,-85 1633,-85 1633,-55 1739,-55 1739,-85"/>
<text text-anchor="start" x="1641" y="-73" font-family="Helvetica,sans-Serif" font-size="10.00">src/msg/scrn/d_msg</text>
<text text-anchor="middle" x="1686" y="-62" font-family="Helvetica,sans-Serif" font-size="10.00">_scrn_explain.cpp</text>
</a>
</g>
</g>
<!-- Node1&#45;&gt;Node13 -->
<g id="edge12" class="edge">
<title>Node1&#45;&gt;Node13</title>
<path fill="none" stroke="#63b8ff" d="M950.39,-133.95C1080.36,-131.13 1377.25,-120.97 1624,-85 1626.84,-84.59 1629.74,-84.11 1632.66,-83.59"/>
<polygon fill="#63b8ff" stroke="#63b8ff" points="950.52,-130.45 940.59,-134.15 950.66,-137.44 950.52,-130.45"/>
</g>
<!-- Node3 -->
<g id="node3" class="node">
<title>Node3</title>
<g id="a_node3"><a xlink:href="d__file__select_8cpp.html" target="_top" xlink:title=" ">
<polygon fill="white" stroke="#666666" points="128,-19 0,-19 0,0 128,0 128,-19"/>
<text text-anchor="middle" x="64" y="-7" font-family="Helvetica,sans-Serif" font-size="10.00">src/d/file/d_file_select.cpp</text>
</a>
</g>
</g>
<!-- Node2&#45;&gt;Node3 -->
<g id="edge2" class="edge">
<title>Node2&#45;&gt;Node3</title>
<path fill="none" stroke="#63b8ff" d="M64,-43.3C64,-34.65 64,-25.58 64,-19.18"/>
<polygon fill="#63b8ff" stroke="#63b8ff" points="60.5,-43.03 64,-53.03 67.5,-43.03 60.5,-43.03"/>
</g>
</g>
</svg>
