<?xml version="1.0" encoding="UTF-8" standalone="no"?>
<!DOCTYPE svg PUBLIC "-//W3C//DTD SVG 1.1//EN"
 "http://www.w3.org/Graphics/SVG/1.1/DTD/svg11.dtd">
<!-- Generated by graphviz version 7.0.5 (20221223.1930)
 -->
<!-- Title: src/d/menu/d_menu_insect.cpp Pages: 1 -->
<svg width="4126pt" height="291pt"
 viewBox="0.00 0.00 4125.98 291.00" xmlns="http://www.w3.org/2000/svg" xmlns:xlink="http://www.w3.org/1999/xlink">
<g id="graph0" class="graph" transform="scale(1 1) rotate(0) translate(4 287)">
<title>src/d/menu/d_menu_insect.cpp</title>
<!-- Node1 -->
<g id="node1" class="node">
<title>Node1</title>
<g id="a_node1"><a xlink:title=" ">
<polygon fill="#999999" stroke="#666666" points="1900.98,-283 1748.98,-283 1748.98,-264 1900.98,-264 1900.98,-283"/>
<text text-anchor="middle" x="1824.98" y="-271" font-family="Helvetica,sans-Serif" font-size="10.00">src/d/menu/d_menu_insect.cpp</text>
</a>
</g>
</g>
<!-- Node2 -->
<g id="node2" class="node">
<title>Node2</title>
<g id="a_node2"><a xlink:href="d__menu__insect_8h.html" target="_top" xlink:title=" ">
<polygon fill="white" stroke="#666666" points="164.48,-217 39.48,-217 39.48,-198 164.48,-198 164.48,-217"/>
<text text-anchor="middle" x="101.98" y="-205" font-family="Helvetica,sans-Serif" font-size="10.00">d/menu/d_menu_insect.h</text>
</a>
</g>
</g>
<!-- Node1&#45;&gt;Node2 -->
<g id="edge1" class="edge">
<title>Node1&#45;&gt;Node2</title>
<path fill="none" stroke="#63b8ff" d="M1748.5,-272.88C1466.16,-273.91 482.85,-274.04 172.98,-228 161.91,-226.35 150.1,-223.55 139.36,-220.58"/>
<polygon fill="#63b8ff" stroke="#63b8ff" points="140.66,-217.31 130.08,-217.88 138.71,-224.03 140.66,-217.31"/>
</g>
<!-- Node8 -->
<g id="node4" class="node">
<title>Node8</title>
<g id="a_node4"><a xlink:href="types_8h.html" target="_top" xlink:title=" ">
<polygon fill="#fff0f0" stroke="red" points="622.48,-19 541.48,-19 541.48,0 622.48,0 622.48,-19"/>
<text text-anchor="middle" x="581.98" y="-7" font-family="Helvetica,sans-Serif" font-size="10.00">dolphin/types.h</text>
</a>
</g>
</g>
<!-- Node1&#45;&gt;Node8 -->
<g id="edge49" class="edge">
<title>Node1&#45;&gt;Node8</title>
<path fill="none" stroke="#63b8ff" d="M1748.72,-272.05C1410.39,-269.87 60.44,-259.22 29.98,-228 -123.93,-70.22 365.16,-24.24 529.83,-13.4"/>
<polygon fill="#63b8ff" stroke="#63b8ff" points="529.85,-16.91 539.6,-12.78 529.4,-9.92 529.85,-16.91"/>
</g>
<!-- Node121 -->
<g id="node6" class="node">
<title>Node121</title>
<g id="a_node6"><a xlink:href="J2DTextBox_8h.html" target="_top" xlink:title=" ">
<polygon fill="white" stroke="#666666" points="1368.98,-222.5 1228.98,-222.5 1228.98,-192.5 1368.98,-192.5 1368.98,-222.5"/>
<text text-anchor="start" x="1236.98" y="-210.5" font-family="Helvetica,sans-Serif" font-size="10.00">JSystem/J2DGraph/J2DText</text>
<text text-anchor="middle" x="1298.98" y="-199.5" font-family="Helvetica,sans-Serif" font-size="10.00">Box.h</text>
</a>
</g>
</g>
<!-- Node1&#45;&gt;Node121 -->
<g id="edge6" class="edge">
<title>Node1&#45;&gt;Node121</title>
<path fill="none" stroke="#63b8ff" d="M1748.61,-268.23C1659.26,-262.46 1507.1,-250.25 1377.98,-228 1373.44,-227.22 1368.77,-226.32 1364.09,-225.34"/>
<polygon fill="#63b8ff" stroke="#63b8ff" points="1365.16,-222 1354.64,-223.28 1363.67,-228.83 1365.16,-222"/>
</g>
<!-- Node126 -->
<g id="node9" class="node">
<title>Node126</title>
<g id="a_node9"><a xlink:href="JKRExpHeap_8h.html" target="_top" xlink:title=" ">
<polygon fill="white" stroke="#666666" points="1546.48,-217 1387.48,-217 1387.48,-198 1546.48,-198 1546.48,-217"/>
<text text-anchor="middle" x="1466.98" y="-205" font-family="Helvetica,sans-Serif" font-size="10.00">JSystem/JKernel/JKRExpHeap.h</text>
</a>
</g>
</g>
<!-- Node1&#45;&gt;Node126 -->
<g id="edge9" class="edge">
<title>Node1&#45;&gt;Node126</title>
<path fill="none" stroke="#63b8ff" d="M1764.76,-263.54C1709.93,-255.15 1626.82,-241.87 1554.98,-228 1542.27,-225.55 1528.58,-222.64 1515.87,-219.83"/>
<polygon fill="#63b8ff" stroke="#63b8ff" points="1517.01,-216.5 1506.48,-217.73 1515.48,-223.33 1517.01,-216.5"/>
</g>
<!-- Node129 -->
<g id="node11" class="node">
<title>Node129</title>
<g id="a_node11"><a xlink:href="JKRMemArchive_8h.html" target="_top" xlink:title=" ">
<polygon fill="white" stroke="#666666" points="600.48,-217 425.48,-217 425.48,-198 600.48,-198 600.48,-217"/>
<text text-anchor="middle" x="512.98" y="-205" font-family="Helvetica,sans-Serif" font-size="10.00">JSystem/JKernel/JKRMemArchive.h</text>
</a>
</g>
</g>
<!-- Node1&#45;&gt;Node129 -->
<g id="edge11" class="edge">
<title>Node1&#45;&gt;Node129</title>
<path fill="none" stroke="#63b8ff" d="M1748.53,-270.62C1570.5,-265.98 1114.46,-252.53 733.98,-228 694.02,-225.42 650.05,-221.72 611.94,-218.24"/>
<polygon fill="#63b8ff" stroke="#63b8ff" points="612.62,-214.78 602.34,-217.35 611.97,-221.75 612.62,-214.78"/>
</g>
<!-- Node133 -->
<g id="node13" class="node">
<title>Node133</title>
<g id="a_node13"><a xlink:href="stdio_8h.html" target="_top" xlink:title=" ">
<polygon fill="white" stroke="#666666" points="1645.48,-217 1564.48,-217 1564.48,-198 1645.48,-198 1645.48,-217"/>
<text text-anchor="middle" x="1604.98" y="-205" font-family="Helvetica,sans-Serif" font-size="10.00">MSL_C/stdio.h</text>
</a>
</g>
</g>
<!-- Node1&#45;&gt;Node133 -->
<g id="edge14" class="edge">
<title>Node1&#45;&gt;Node133</title>
<path fill="none" stroke="#63b8ff" d="M1785.45,-263.52C1750.75,-255.32 1699.09,-242.32 1654.98,-228 1649,-226.06 1642.7,-223.78 1636.66,-221.49"/>
<polygon fill="#63b8ff" stroke="#63b8ff" points="1638.2,-218.33 1627.61,-217.95 1635.65,-224.85 1638.2,-218.33"/>
</g>
<!-- Node139 -->
<g id="node17" class="node">
<title>Node139</title>
<g id="a_node17"><a xlink:href="d__com__inf__game_8h.html" target="_top" xlink:title=" ">
<polygon fill="white" stroke="#666666" points="870.98,-217 742.98,-217 742.98,-198 870.98,-198 870.98,-217"/>
<text text-anchor="middle" x="806.98" y="-205" font-family="Helvetica,sans-Serif" font-size="10.00">d/com/d_com_inf_game.h</text>
</a>
</g>
</g>
<!-- Node1&#45;&gt;Node139 -->
<g id="edge18" class="edge">
<title>Node1&#45;&gt;Node139</title>
<path fill="none" stroke="#63b8ff" d="M1748.63,-269.14C1605.97,-262.68 1289.33,-247.41 1022.98,-228 976.3,-224.6 924.02,-219.9 882.59,-215.97"/>
<polygon fill="#63b8ff" stroke="#63b8ff" points="883,-212.49 872.71,-215.03 882.34,-219.46 883,-212.49"/>
</g>
<!-- Node210 -->
<g id="node28" class="node">
<title>Node210</title>
<g id="a_node28"><a xlink:href="d__select__cursor_8h.html" target="_top" xlink:title=" ">
<polygon fill="white" stroke="#666666" points="283.48,-217 182.48,-217 182.48,-198 283.48,-198 283.48,-217"/>
<text text-anchor="middle" x="232.98" y="-205" font-family="Helvetica,sans-Serif" font-size="10.00">d/d_select_cursor.h</text>
</a>
</g>
</g>
<!-- Node1&#45;&gt;Node210 -->
<g id="edge37" class="edge">
<title>Node1&#45;&gt;Node210</title>
<path fill="none" stroke="#63b8ff" d="M1748.52,-272.09C1536.59,-270.51 923.84,-263.03 415.98,-228 375.57,-225.21 330.31,-220.4 294.9,-216.26"/>
<polygon fill="#63b8ff" stroke="#63b8ff" points="295.62,-212.82 285.28,-215.12 294.8,-219.77 295.62,-212.82"/>
</g>
<!-- Node216 -->
<g id="node30" class="node">
<title>Node216</title>
<g id="a_node30"><a xlink:href="d__meter2__info_8h.html" target="_top" xlink:title=" ">
<polygon fill="white" stroke="#666666" points="1616.98,-145.5 1494.98,-145.5 1494.98,-126.5 1616.98,-126.5 1616.98,-145.5"/>
<text text-anchor="middle" x="1555.98" y="-133.5" font-family="Helvetica,sans-Serif" font-size="10.00">d/meter/d_meter2_info.h</text>
</a>
</g>
</g>
<!-- Node1&#45;&gt;Node216 -->
<g id="edge40" class="edge">
<title>Node1&#45;&gt;Node216</title>
<path fill="none" stroke="#63b8ff" d="M1748.72,-272.55C1594.1,-271.86 1255.27,-265.97 1219.98,-228 1149.46,-152.1 1210.68,-196.63 1484.98,-151 1490.28,-150.12 1495.79,-149.14 1501.29,-148.12"/>
<polygon fill="#63b8ff" stroke="#63b8ff" points="1501.84,-151.58 1511.02,-146.28 1500.54,-144.7 1501.84,-151.58"/>
</g>
<!-- Node217 -->
<g id="node31" class="node">
<title>Node217</title>
<g id="a_node31"><a xlink:href="d__meter__HIO_8h.html" target="_top" xlink:title=" ">
<polygon fill="white" stroke="#666666" points="1222.48,-145.5 1103.48,-145.5 1103.48,-126.5 1222.48,-126.5 1222.48,-145.5"/>
<text text-anchor="middle" x="1162.98" y="-133.5" font-family="Helvetica,sans-Serif" font-size="10.00">d/meter/d_meter_HIO.h</text>
</a>
</g>
</g>
<!-- Node1&#45;&gt;Node217 -->
<g id="edge42" class="edge">
<title>Node1&#45;&gt;Node217</title>
<path fill="none" stroke="#63b8ff" d="M1748.54,-271.95C1589.18,-270.13 1232.65,-262.23 1189.98,-228 1168.81,-211.01 1163.71,-178.2 1162.76,-156.97"/>
<polygon fill="#63b8ff" stroke="#63b8ff" points="1166.26,-157.21 1162.62,-147.27 1159.26,-157.32 1166.26,-157.21"/>
</g>
<!-- Node218 -->
<g id="node34" class="node">
<title>Node218</title>
<g id="a_node34"><a xlink:href="d__msg__string_8h.html" target="_top" xlink:title=" ">
<polygon fill="#fff0f0" stroke="red" points="1776.48,-217 1663.48,-217 1663.48,-198 1776.48,-198 1776.48,-217"/>
<text text-anchor="middle" x="1719.98" y="-205" font-family="Helvetica,sans-Serif" font-size="10.00">d/msg/d_msg_string.h</text>
</a>
</g>
</g>
<!-- Node1&#45;&gt;Node218 -->
<g id="edge47" class="edge">
<title>Node1&#45;&gt;Node218</title>
<path fill="none" stroke="#63b8ff" d="M1810.38,-263.6C1793.22,-253.14 1764.49,-235.63 1744.03,-223.16"/>
<polygon fill="#63b8ff" stroke="#63b8ff" points="1746.11,-220.33 1735.75,-218.11 1742.47,-226.3 1746.11,-220.33"/>
</g>
<!-- Node229 -->
<g id="node35" class="node">
<title>Node229</title>
<g id="a_node35"><a xlink:href="dol2asm_8h.html" target="_top" xlink:title=" ">
<polygon fill="white" stroke="#666666" points="1855.48,-217 1794.48,-217 1794.48,-198 1855.48,-198 1855.48,-217"/>
<text text-anchor="middle" x="1824.98" y="-205" font-family="Helvetica,sans-Serif" font-size="10.00">dol2asm.h</text>
</a>
</g>
</g>
<!-- Node1&#45;&gt;Node229 -->
<g id="edge48" class="edge">
<title>Node1&#45;&gt;Node229</title>
<path fill="none" stroke="#63b8ff" d="M1824.98,-263.6C1824.98,-254.62 1824.98,-240.45 1824.98,-228.72"/>
<polygon fill="#63b8ff" stroke="#63b8ff" points="1828.48,-228.84 1824.98,-218.84 1821.48,-228.84 1828.48,-228.84"/>
</g>
<!-- Node230 -->
<g id="node36" class="node">
<title>Node230</title>
<g id="a_node36"><a xlink:href="m__Do__controller__pad_8h.html" target="_top" xlink:title=" ">
<polygon fill="#fff0f0" stroke="red" points="1989.98,-222.5 1873.98,-222.5 1873.98,-192.5 1989.98,-192.5 1989.98,-222.5"/>
<text text-anchor="start" x="1881.98" y="-210.5" font-family="Helvetica,sans-Serif" font-size="10.00">m_Do/m_Do_controller</text>
<text text-anchor="middle" x="1931.98" y="-199.5" font-family="Helvetica,sans-Serif" font-size="10.00">_pad.h</text>
</a>
</g>
</g>
<!-- Node1&#45;&gt;Node230 -->
<g id="edge50" class="edge">
<title>Node1&#45;&gt;Node230</title>
<path fill="none" stroke="#63b8ff" d="M1839.86,-263.6C1854.83,-254.65 1878.42,-240.54 1897.98,-228.84"/>
<polygon fill="#63b8ff" stroke="#63b8ff" points="1899.7,-231.89 1906.48,-223.75 1896.1,-225.88 1899.7,-231.89"/>
</g>
<!-- Node234 -->
<g id="node37" class="node">
<title>Node234</title>
<g id="a_node37"><a xlink:href="m__Do__graphic_8h.html" target="_top" xlink:title=" ">
<polygon fill="#fff0f0" stroke="red" points="956.48,-79.5 841.48,-79.5 841.48,-60.5 956.48,-60.5 956.48,-79.5"/>
<text text-anchor="middle" x="898.98" y="-67.5" font-family="Helvetica,sans-Serif" font-size="10.00">m_Do/m_Do_graphic.h</text>
</a>
</g>
</g>
<!-- Node1&#45;&gt;Node234 -->
<g id="edge51" class="edge">
<title>Node1&#45;&gt;Node234</title>
<path fill="none" stroke="#63b8ff" d="M1748.74,-271.18C1575.36,-267.7 1162.17,-256.5 1105.98,-228 1050.82,-200.02 1066.64,-157.88 1016.98,-121 994.4,-104.22 965.33,-91.82 941.69,-83.56"/>
<polygon fill="#63b8ff" stroke="#63b8ff" points="942.95,-80.29 932.36,-80.43 940.72,-86.93 942.95,-80.29"/>
</g>
<!-- Node243 -->
<g id="node38" class="node">
<title>Node243</title>
<g id="a_node38"><a xlink:href="d__msg__scrn__3select_8h.html" target="_top" xlink:title=" ">
<polygon fill="white" stroke="#666666" points="1087.48,-85 974.48,-85 974.48,-55 1087.48,-55 1087.48,-85"/>
<text text-anchor="start" x="982.48" y="-73" font-family="Helvetica,sans-Serif" font-size="10.00">msg/scrn/d_msg_scrn</text>
<text text-anchor="middle" x="1030.98" y="-62" font-family="Helvetica,sans-Serif" font-size="10.00">_3select.h</text>
</a>
</g>
</g>
<!-- Node1&#45;&gt;Node243 -->
<g id="edge53" class="edge">
<title>Node1&#45;&gt;Node243</title>
<path fill="none" stroke="#63b8ff" d="M1748.62,-270.56C1585.88,-265.96 1215.47,-252.88 1163.98,-228 1105.14,-199.57 1062.48,-131.6 1042.92,-95.12"/>
<polygon fill="#63b8ff" stroke="#63b8ff" points="1046.23,-93.9 1038.51,-86.64 1040.02,-97.13 1046.23,-93.9"/>
</g>
<!-- Node244 -->
<g id="node39" class="node">
<title>Node244</title>
<g id="a_node39"><a xlink:title=" ">
<polygon fill="#e0e0e0" stroke="#999999" points="2197.48,-228 2008.48,-228 2008.48,-187 2197.48,-187 2197.48,-228"/>
<text text-anchor="start" x="2016.48" y="-216" font-family="Helvetica,sans-Serif" font-size="10.00">asm/d/menu/d_menu_insect</text>
<text text-anchor="start" x="2016.48" y="-205" font-family="Helvetica,sans-Serif" font-size="10.00">/__ct__14dMenu_Insect_cFP10JKRExp</text>
<text text-anchor="middle" x="2102.98" y="-194" font-family="Helvetica,sans-Serif" font-size="10.00">HeapP9STControlP10CSTControlUc.s</text>
</a>
</g>
</g>
<!-- Node1&#45;&gt;Node244 -->
<g id="edge55" class="edge">
<title>Node1&#45;&gt;Node244</title>
<path fill="none" stroke="#63b8ff" d="M1863.93,-263.53C1900.39,-255.14 1956.39,-242.25 2005.03,-231.05"/>
<polygon fill="#63b8ff" stroke="#63b8ff" points="2005.81,-234.46 2014.77,-228.81 2004.24,-227.64 2005.81,-234.46"/>
</g>
<!-- Node245 -->
<g id="node40" class="node">
<title>Node245</title>
<g id="a_node40"><a xlink:title=" ">
<polygon fill="#e0e0e0" stroke="#999999" points="2373.98,-222.5 2215.98,-222.5 2215.98,-192.5 2373.98,-192.5 2373.98,-222.5"/>
<text text-anchor="start" x="2223.98" y="-210.5" font-family="Helvetica,sans-Serif" font-size="10.00">asm/d/menu/d_menu_insect</text>
<text text-anchor="middle" x="2294.98" y="-199.5" font-family="Helvetica,sans-Serif" font-size="10.00">/_draw__14dMenu_Insect_cFv.s</text>
</a>
</g>
</g>
<!-- Node1&#45;&gt;Node245 -->
<g id="edge56" class="edge">
<title>Node1&#45;&gt;Node245</title>
<path fill="none" stroke="#63b8ff" d="M1901.41,-265.91C1978.76,-258.7 2101.64,-245.76 2206.98,-228 2212.11,-227.14 2217.4,-226.17 2222.71,-225.13"/>
<polygon fill="#63b8ff" stroke="#63b8ff" points="2223,-228.64 2232.11,-223.24 2221.62,-221.78 2223,-228.64"/>
</g>
<!-- Node246 -->
<g id="node41" class="node">
<title>Node246</title>
<g id="a_node41"><a xlink:title=" ">
<polygon fill="#e0e0e0" stroke="#999999" points="2549.98,-222.5 2391.98,-222.5 2391.98,-192.5 2549.98,-192.5 2549.98,-222.5"/>
<text text-anchor="start" x="2399.98" y="-210.5" font-family="Helvetica,sans-Serif" font-size="10.00">asm/d/menu/d_menu_insect</text>
<text text-anchor="middle" x="2470.98" y="-199.5" font-family="Helvetica,sans-Serif" font-size="10.00">/_open__14dMenu_Insect_cFv.s</text>
</a>
</g>
</g>
<!-- Node1&#45;&gt;Node246 -->
<g id="edge57" class="edge">
<title>Node1&#45;&gt;Node246</title>
<path fill="none" stroke="#63b8ff" d="M1901.18,-269.77C2008.97,-265.14 2211.91,-253.65 2382.98,-228 2388.55,-227.17 2394.28,-226.18 2400.04,-225.11"/>
<polygon fill="#63b8ff" stroke="#63b8ff" points="2400.45,-228.59 2409.59,-223.23 2399.1,-221.72 2400.45,-228.59"/>
</g>
<!-- Node247 -->
<g id="node42" class="node">
<title>Node247</title>
<g id="a_node42"><a xlink:title=" ">
<polygon fill="#e0e0e0" stroke="#999999" points="2727.98,-222.5 2567.98,-222.5 2567.98,-192.5 2727.98,-192.5 2727.98,-222.5"/>
<text text-anchor="start" x="2575.98" y="-210.5" font-family="Helvetica,sans-Serif" font-size="10.00">asm/d/menu/d_menu_insect</text>
<text text-anchor="middle" x="2647.98" y="-199.5" font-family="Helvetica,sans-Serif" font-size="10.00">/_close__14dMenu_Insect_cFv.s</text>
</a>
</g>
</g>
<!-- Node1&#45;&gt;Node247 -->
<g id="edge58" class="edge">
<title>Node1&#45;&gt;Node247</title>
<path fill="none" stroke="#63b8ff" d="M1901.45,-271.76C2035.33,-269.6 2320.63,-261.13 2558.98,-228 2564.86,-227.18 2570.92,-226.19 2576.99,-225.08"/>
<polygon fill="#63b8ff" stroke="#63b8ff" points="2577.24,-228.6 2586.4,-223.28 2575.92,-221.72 2577.24,-228.6"/>
</g>
<!-- Node248 -->
<g id="node43" class="node">
<title>Node248</title>
<g id="a_node43"><a xlink:title=" ">
<polygon fill="#e0e0e0" stroke="#999999" points="2925.48,-222.5 2746.48,-222.5 2746.48,-192.5 2925.48,-192.5 2925.48,-222.5"/>
<text text-anchor="start" x="2754.48" y="-210.5" font-family="Helvetica,sans-Serif" font-size="10.00">asm/d/menu/d_menu_insect</text>
<text text-anchor="middle" x="2835.98" y="-199.5" font-family="Helvetica,sans-Serif" font-size="10.00">/wait_move__14dMenu_Insect_cFv.s</text>
</a>
</g>
</g>
<!-- Node1&#45;&gt;Node248 -->
<g id="edge59" class="edge">
<title>Node1&#45;&gt;Node248</title>
<path fill="none" stroke="#63b8ff" d="M1901.27,-272.52C2058.29,-271.75 2428.77,-265.67 2736.98,-228 2743.89,-227.16 2751.03,-226.11 2758.17,-224.93"/>
<polygon fill="#63b8ff" stroke="#63b8ff" points="2758.61,-228.41 2767.87,-223.26 2757.42,-221.51 2758.61,-228.41"/>
</g>
<!-- Node249 -->
<g id="node44" class="node">
<title>Node249</title>
<g id="a_node44"><a xlink:title=" ">
<polygon fill="#e0e0e0" stroke="#999999" points="3087.98,-228 2943.98,-228 2943.98,-187 3087.98,-187 3087.98,-228"/>
<text text-anchor="start" x="2951.98" y="-216" font-family="Helvetica,sans-Serif" font-size="10.00">asm/d/menu/d_menu_insect</text>
<text text-anchor="start" x="2951.98" y="-205" font-family="Helvetica,sans-Serif" font-size="10.00">/explain_open_init__14dMenu</text>
<text text-anchor="middle" x="3015.98" y="-194" font-family="Helvetica,sans-Serif" font-size="10.00">_Insect_cFv.s</text>
</a>
</g>
</g>
<!-- Node1&#45;&gt;Node249 -->
<g id="edge60" class="edge">
<title>Node1&#45;&gt;Node249</title>
<path fill="none" stroke="#63b8ff" d="M1901.35,-271.39C2114.37,-267.98 2713.21,-256.26 2932.3,-228.17"/>
<polygon fill="#63b8ff" stroke="#63b8ff" points="2932.75,-231.64 2942.2,-226.85 2931.82,-224.7 2932.75,-231.64"/>
</g>
<!-- Node250 -->
<g id="node45" class="node">
<title>Node250</title>
<g id="a_node45"><a xlink:title=" ">
<polygon fill="#e0e0e0" stroke="#999999" points="3261.48,-228 3106.48,-228 3106.48,-187 3261.48,-187 3261.48,-228"/>
<text text-anchor="start" x="3114.48" y="-216" font-family="Helvetica,sans-Serif" font-size="10.00">asm/d/menu/d_menu_insect</text>
<text text-anchor="start" x="3114.48" y="-205" font-family="Helvetica,sans-Serif" font-size="10.00">/select_move_move__14dMenu</text>
<text text-anchor="middle" x="3183.98" y="-194" font-family="Helvetica,sans-Serif" font-size="10.00">_Insect_cFv.s</text>
</a>
</g>
</g>
<!-- Node1&#45;&gt;Node250 -->
<g id="edge61" class="edge">
<title>Node1&#45;&gt;Node250</title>
<path fill="none" stroke="#63b8ff" d="M1901.25,-271.69C2135.25,-268.91 2841.87,-258.29 3094.98,-228.06"/>
<polygon fill="#63b8ff" stroke="#63b8ff" points="3095.33,-231.55 3104.82,-226.84 3094.47,-224.6 3095.33,-231.55"/>
</g>
<!-- Node251 -->
<g id="node46" class="node">
<title>Node251</title>
<g id="a_node46"><a xlink:title=" ">
<polygon fill="#e0e0e0" stroke="#999999" points="3425.98,-228 3279.98,-228 3279.98,-187 3425.98,-187 3425.98,-228"/>
<text text-anchor="start" x="3287.98" y="-216" font-family="Helvetica,sans-Serif" font-size="10.00">asm/d/menu/d_menu_insect</text>
<text text-anchor="start" x="3287.98" y="-205" font-family="Helvetica,sans-Serif" font-size="10.00">/explain_close_init__14dMenu</text>
<text text-anchor="middle" x="3352.98" y="-194" font-family="Helvetica,sans-Serif" font-size="10.00">_Insect_cFv.s</text>
</a>
</g>
</g>
<!-- Node1&#45;&gt;Node251 -->
<g id="edge62" class="edge">
<title>Node1&#45;&gt;Node251</title>
<path fill="none" stroke="#63b8ff" d="M1901.06,-272.19C2156.08,-270.85 2980.28,-263.88 3268.54,-228.13"/>
<polygon fill="#63b8ff" stroke="#63b8ff" points="3268.83,-231.62 3278.3,-226.87 3267.94,-224.68 3268.83,-231.62"/>
</g>
<!-- Node252 -->
<g id="node47" class="node">
<title>Node252</title>
<g id="a_node47"><a xlink:title=" ">
<polygon fill="#e0e0e0" stroke="#999999" points="3583.98,-228 3443.98,-228 3443.98,-187 3583.98,-187 3583.98,-228"/>
<text text-anchor="start" x="3451.98" y="-216" font-family="Helvetica,sans-Serif" font-size="10.00">asm/d/menu/d_menu_insect</text>
<text text-anchor="start" x="3451.98" y="-205" font-family="Helvetica,sans-Serif" font-size="10.00">/screenSetBase__14dMenu</text>
<text text-anchor="middle" x="3513.98" y="-194" font-family="Helvetica,sans-Serif" font-size="10.00">_Insect_cFv.s</text>
</a>
</g>
</g>
<!-- Node1&#45;&gt;Node252 -->
<g id="edge63" class="edge">
<title>Node1&#45;&gt;Node252</title>
<path fill="none" stroke="#63b8ff" d="M1901.39,-272.56C2175.66,-272.43 3110.86,-269.02 3432.32,-228.16"/>
<polygon fill="#63b8ff" stroke="#63b8ff" points="3432.53,-231.66 3441.99,-226.89 3431.62,-224.72 3432.53,-231.66"/>
</g>
<!-- Node253 -->
<g id="node48" class="node">
<title>Node253</title>
<g id="a_node48"><a xlink:title=" ">
<polygon fill="#e0e0e0" stroke="#999999" points="3747.48,-228 3602.48,-228 3602.48,-187 3747.48,-187 3747.48,-228"/>
<text text-anchor="start" x="3610.48" y="-216" font-family="Helvetica,sans-Serif" font-size="10.00">asm/d/menu/d_menu_insect</text>
<text text-anchor="start" x="3610.48" y="-205" font-family="Helvetica,sans-Serif" font-size="10.00">/screenSetExplain__14dMenu</text>
<text text-anchor="middle" x="3674.98" y="-194" font-family="Helvetica,sans-Serif" font-size="10.00">_Insect_cFv.s</text>
</a>
</g>
</g>
<!-- Node1&#45;&gt;Node253 -->
<g id="edge64" class="edge">
<title>Node1&#45;&gt;Node253</title>
<path fill="none" stroke="#63b8ff" d="M1901.42,-272.69C2192.93,-273.11 3235.8,-271.53 3590.93,-228.06"/>
<polygon fill="#63b8ff" stroke="#63b8ff" points="3591.27,-231.54 3600.75,-226.82 3590.39,-224.6 3591.27,-231.54"/>
</g>
<!-- Node254 -->
<g id="node49" class="node">
<title>Node254</title>
<g id="a_node49"><a xlink:title=" ">
<polygon fill="#e0e0e0" stroke="#999999" points="3947.98,-222.5 3765.98,-222.5 3765.98,-192.5 3947.98,-192.5 3947.98,-222.5"/>
<text text-anchor="start" x="3773.98" y="-210.5" font-family="Helvetica,sans-Serif" font-size="10.00">asm/d/menu/d_menu_insect</text>
<text text-anchor="middle" x="3856.98" y="-199.5" font-family="Helvetica,sans-Serif" font-size="10.00">/cursorMove__14dMenu_Insect_cFv.s</text>
</a>
</g>
</g>
<!-- Node1&#45;&gt;Node254 -->
<g id="edge65" class="edge">
<title>Node1&#45;&gt;Node254</title>
<path fill="none" stroke="#63b8ff" d="M1901.45,-272.47C2213.05,-272.08 3387.88,-267.95 3756.98,-228 3764.43,-227.19 3772.14,-226.12 3779.84,-224.89"/>
<polygon fill="#63b8ff" stroke="#63b8ff" points="3780.29,-228.37 3789.57,-223.25 3779.13,-221.46 3780.29,-228.37"/>
</g>
<!-- Node255 -->
<g id="node50" class="node">
<title>Node255</title>
<g id="a_node50"><a xlink:title=" ">
<polygon fill="#e0e0e0" stroke="#999999" points="4117.98,-222.5 3965.98,-222.5 3965.98,-192.5 4117.98,-192.5 4117.98,-222.5"/>
<text text-anchor="start" x="3973.98" y="-210.5" font-family="Helvetica,sans-Serif" font-size="10.00">asm/d/menu/d_menu_insect</text>
<text text-anchor="middle" x="4041.98" y="-199.5" font-family="Helvetica,sans-Serif" font-size="10.00">/draw__14dMenu_Insect_cFv.s</text>
</a>
</g>
</g>
<!-- Node1&#45;&gt;Node255 -->
<g id="edge66" class="edge">
<title>Node1&#45;&gt;Node255</title>
<path fill="none" stroke="#63b8ff" d="M1901.22,-271.83C2257.53,-268.6 3750.14,-253.61 3956.98,-228 3962.99,-227.26 3969.2,-226.27 3975.4,-225.13"/>
<polygon fill="#63b8ff" stroke="#63b8ff" points="3975.87,-228.6 3985.01,-223.24 3974.52,-221.74 3975.87,-228.6"/>
</g>
<!-- Node3 -->
<g id="node3" class="node">
<title>Node3</title>
<g id="a_node3"><a xlink:href="d__drawlist_8h.html" target="_top" xlink:title=" ">
<polygon fill="#fff0f0" stroke="red" points="116.48,-145.5 39.48,-145.5 39.48,-126.5 116.48,-126.5 116.48,-145.5"/>
<text text-anchor="middle" x="77.98" y="-133.5" font-family="Helvetica,sans-Serif" font-size="10.00">d/d_drawlist.h</text>
</a>
</g>
</g>
<!-- Node2&#45;&gt;Node3 -->
<g id="edge2" class="edge">
<title>Node2&#45;&gt;Node3</title>
<path fill="none" stroke="#63b8ff" d="M98.94,-197.7C95.39,-187.41 89.41,-170.09 84.74,-156.57"/>
<polygon fill="#63b8ff" stroke="#63b8ff" points="88.14,-155.69 81.57,-147.38 81.52,-157.98 88.14,-155.69"/>
</g>
<!-- Node3&#45;&gt;Node8 -->
<g id="edge3" class="edge">
<title>Node3&#45;&gt;Node8</title>
<path fill="none" stroke="#63b8ff" d="M107.88,-126.05C113.86,-124.32 120.11,-122.57 125.98,-121 272.34,-81.95 446.67,-41.33 531.12,-22.02"/>
<polygon fill="#63b8ff" stroke="#63b8ff" points="531.74,-25.47 540.71,-19.83 530.18,-18.64 531.74,-25.47"/>
</g>
<!-- Node21 -->
<g id="node5" class="node">
<title>Node21</title>
<g id="a_node5"><a xlink:href="global_8h.html" target="_top" xlink:title=" ">
<polygon fill="white" stroke="#666666" points="512.98,-79.5 462.98,-79.5 462.98,-60.5 512.98,-60.5 512.98,-79.5"/>
<text text-anchor="middle" x="487.98" y="-67.5" font-family="Helvetica,sans-Serif" font-size="10.00">global.h</text>
</a>
</g>
</g>
<!-- Node3&#45;&gt;Node21 -->
<g id="edge4" class="edge">
<title>Node3&#45;&gt;Node21</title>
<path fill="none" stroke="#63b8ff" d="M106.24,-126.01C112.68,-124.17 119.53,-122.38 125.98,-121 243.68,-95.85 385.71,-80.52 451.4,-74.26"/>
<polygon fill="#63b8ff" stroke="#63b8ff" points="451.61,-77.76 461.24,-73.34 450.96,-70.79 451.61,-77.76"/>
</g>
<!-- Node21&#45;&gt;Node8 -->
<g id="edge5" class="edge">
<title>Node21&#45;&gt;Node8</title>
<path fill="none" stroke="#63b8ff" d="M502.26,-60.12C517.03,-50.92 540.36,-36.41 557.97,-25.44"/>
<polygon fill="#63b8ff" stroke="#63b8ff" points="559.65,-28.52 566.29,-20.27 555.95,-22.58 559.65,-28.52"/>
</g>
<!-- Node122 -->
<g id="node7" class="node">
<title>Node122</title>
<g id="a_node7"><a xlink:href="J2DMaterial_8h.html" target="_top" xlink:title=" ">
<polygon fill="#fff0f0" stroke="red" points="1798.98,-145.5 1634.98,-145.5 1634.98,-126.5 1798.98,-126.5 1798.98,-145.5"/>
<text text-anchor="middle" x="1716.98" y="-133.5" font-family="Helvetica,sans-Serif" font-size="10.00">JSystem/J2DGraph/J2DMaterial.h</text>
</a>
</g>
</g>
<!-- Node121&#45;&gt;Node122 -->
<g id="edge7" class="edge">
<title>Node121&#45;&gt;Node122</title>
<path fill="none" stroke="#63b8ff" d="M1354.51,-192.07C1362.36,-190.24 1370.36,-188.49 1377.98,-187 1487.29,-165.63 1515.83,-167.47 1625.98,-151 1633.12,-149.93 1640.57,-148.81 1648.01,-147.68"/>
<polygon fill="#63b8ff" stroke="#63b8ff" points="1648.37,-151.16 1657.73,-146.19 1647.32,-144.24 1648.37,-151.16"/>
</g>
<!-- Node5 -->
<g id="node8" class="node">
<title>Node5</title>
<g id="a_node8"><a xlink:href="J2DPane_8h.html" target="_top" xlink:title=" ">
<polygon fill="#fff0f0" stroke="red" points="1968.98,-145.5 1816.98,-145.5 1816.98,-126.5 1968.98,-126.5 1968.98,-145.5"/>
<text text-anchor="middle" x="1892.98" y="-133.5" font-family="Helvetica,sans-Serif" font-size="10.00">JSystem/J2DGraph/J2DPane.h</text>
</a>
</g>
</g>
<!-- Node121&#45;&gt;Node5 -->
<g id="edge8" class="edge">
<title>Node121&#45;&gt;Node5</title>
<path fill="none" stroke="#63b8ff" d="M1352.72,-192.03C1361.13,-190.11 1369.76,-188.35 1377.98,-187 1567.23,-155.92 1617.66,-174.6 1807.98,-151 1815.65,-150.05 1823.68,-148.91 1831.63,-147.7"/>
<polygon fill="#63b8ff" stroke="#63b8ff" points="1831.91,-151.2 1841.25,-146.19 1830.82,-144.29 1831.91,-151.2"/>
</g>
<!-- Node127 -->
<g id="node10" class="node">
<title>Node127</title>
<g id="a_node10"><a xlink:href="JKRHeap_8h.html" target="_top" xlink:title=" ">
<polygon fill="#fff0f0" stroke="red" points="2130.48,-145.5 1987.48,-145.5 1987.48,-126.5 2130.48,-126.5 2130.48,-145.5"/>
<text text-anchor="middle" x="2058.98" y="-133.5" font-family="Helvetica,sans-Serif" font-size="10.00">JSystem/JKernel/JKRHeap.h</text>
</a>
</g>
</g>
<!-- Node126&#45;&gt;Node127 -->
<g id="edge10" class="edge">
<title>Node126&#45;&gt;Node127</title>
<path fill="none" stroke="#63b8ff" d="M1502.32,-197.54C1518.31,-193.78 1537.5,-189.67 1554.98,-187 1741.5,-158.53 1790.85,-175.09 1977.98,-151 1985.13,-150.08 1992.6,-148.98 2000,-147.8"/>
<polygon fill="#63b8ff" stroke="#63b8ff" points="2000.32,-151.3 2009.62,-146.22 1999.19,-144.39 2000.32,-151.3"/>
</g>
<!-- Node130 -->
<g id="node12" class="node">
<title>Node130</title>
<g id="a_node12"><a xlink:href="JKRArchive_8h.html" target="_top" xlink:title=" ">
<polygon fill="#fff0f0" stroke="red" points="398.48,-145.5 245.48,-145.5 245.48,-126.5 398.48,-126.5 398.48,-145.5"/>
<text text-anchor="middle" x="321.98" y="-133.5" font-family="Helvetica,sans-Serif" font-size="10.00">JSystem/JKernel/JKRArchive.h</text>
</a>
</g>
</g>
<!-- Node129&#45;&gt;Node130 -->
<g id="edge12" class="edge">
<title>Node129&#45;&gt;Node130</title>
<path fill="none" stroke="#63b8ff" d="M488.41,-197.56C455.03,-185.41 395.16,-163.63 357.07,-149.77"/>
<polygon fill="#63b8ff" stroke="#63b8ff" points="358.49,-146.56 347.89,-146.43 356.09,-153.14 358.49,-146.56"/>
</g>
<!-- Node130&#45;&gt;Node21 -->
<g id="edge13" class="edge">
<title>Node130&#45;&gt;Node21</title>
<path fill="none" stroke="#63b8ff" d="M345.07,-126.1C373.48,-115.15 421.95,-96.46 454.47,-83.92"/>
<polygon fill="#63b8ff" stroke="#63b8ff" points="455.35,-87.33 463.42,-80.47 452.83,-80.8 455.35,-87.33"/>
</g>
<!-- Node134 -->
<g id="node14" class="node">
<title>Node134</title>
<g id="a_node14"><a xlink:href="char__io_8h.html" target="_top" xlink:title=" ">
<polygon fill="#fff0f0" stroke="red" points="2284.98,-151 2148.98,-151 2148.98,-121 2284.98,-121 2284.98,-151"/>
<text text-anchor="start" x="2156.98" y="-139" font-family="Helvetica,sans-Serif" font-size="10.00">MSL_C/MSL_Common/Src</text>
<text text-anchor="middle" x="2216.98" y="-128" font-family="Helvetica,sans-Serif" font-size="10.00">/char_io.h</text>
</a>
</g>
</g>
<!-- Node133&#45;&gt;Node134 -->
<g id="edge15" class="edge">
<title>Node133&#45;&gt;Node134</title>
<path fill="none" stroke="#63b8ff" d="M1624.03,-197.53C1633.19,-193.62 1644.44,-189.39 1654.98,-187 1862.18,-140.02 1923.49,-177.06 2137.32,-151.22"/>
<polygon fill="#63b8ff" stroke="#63b8ff" points="2137.62,-154.71 2147.11,-150.01 2136.75,-147.77 2137.62,-154.71"/>
</g>
<!-- Node136 -->
<g id="node15" class="node">
<title>Node136</title>
<g id="a_node15"><a xlink:href="file__io_8h.html" target="_top" xlink:title=" ">
<polygon fill="#fff0f0" stroke="red" points="2438.98,-151 2302.98,-151 2302.98,-121 2438.98,-121 2438.98,-151"/>
<text text-anchor="start" x="2310.98" y="-139" font-family="Helvetica,sans-Serif" font-size="10.00">MSL_C/MSL_Common/Src</text>
<text text-anchor="middle" x="2370.98" y="-128" font-family="Helvetica,sans-Serif" font-size="10.00">/file_io.h</text>
</a>
</g>
</g>
<!-- Node133&#45;&gt;Node136 -->
<g id="edge16" class="edge">
<title>Node133&#45;&gt;Node136</title>
<path fill="none" stroke="#63b8ff" d="M1623.54,-197.65C1632.78,-193.66 1644.24,-189.34 1654.98,-187 1929.28,-127.37 2009.41,-183 2291.21,-151.2"/>
<polygon fill="#63b8ff" stroke="#63b8ff" points="2291.58,-154.69 2301.11,-150.06 2290.78,-147.73 2291.58,-154.69"/>
</g>
<!-- Node137 -->
<g id="node16" class="node">
<title>Node137</title>
<g id="a_node16"><a xlink:href="printf_8h.html" target="_top" xlink:title=" ">
<polygon fill="#fff0f0" stroke="red" points="2592.98,-151 2456.98,-151 2456.98,-121 2592.98,-121 2592.98,-151"/>
<text text-anchor="start" x="2464.98" y="-139" font-family="Helvetica,sans-Serif" font-size="10.00">MSL_C/MSL_Common/Src</text>
<text text-anchor="middle" x="2524.98" y="-128" font-family="Helvetica,sans-Serif" font-size="10.00">/printf.h</text>
</a>
</g>
</g>
<!-- Node133&#45;&gt;Node137 -->
<g id="edge17" class="edge">
<title>Node133&#45;&gt;Node137</title>
<path fill="none" stroke="#63b8ff" d="M1623.53,-197.59C1632.76,-193.6 1644.23,-189.28 1654.98,-187 1996.52,-114.7 2095.34,-189.05 2445.39,-151.17"/>
<polygon fill="#63b8ff" stroke="#63b8ff" points="2445.56,-154.67 2455.12,-150.09 2444.79,-147.71 2445.56,-154.67"/>
</g>
<!-- Node139&#45;&gt;Node21 -->
<g id="edge36" class="edge">
<title>Node139&#45;&gt;Node21</title>
<path fill="none" stroke="#63b8ff" d="M742.52,-198.78C641.3,-186.35 455.57,-162.17 445.98,-151 429.39,-131.66 450.76,-104.66 468.6,-87.5"/>
<polygon fill="#63b8ff" stroke="#63b8ff" points="470.74,-90.29 475.77,-80.97 466.02,-85.11 470.74,-90.29"/>
</g>
<!-- Node140 -->
<g id="node18" class="node">
<title>Node140</title>
<g id="a_node18"><a xlink:href="d__bg__s_8h.html" target="_top" xlink:title=" ">
<polygon fill="#fff0f0" stroke="red" points="740.48,-145.5 663.48,-145.5 663.48,-126.5 740.48,-126.5 740.48,-145.5"/>
<text text-anchor="middle" x="701.98" y="-133.5" font-family="Helvetica,sans-Serif" font-size="10.00">d/bg/d_bg_s.h</text>
</a>
</g>
</g>
<!-- Node139&#45;&gt;Node140 -->
<g id="edge19" class="edge">
<title>Node139&#45;&gt;Node140</title>
<path fill="none" stroke="#63b8ff" d="M793.69,-197.7C776.42,-186.27 746.02,-166.15 724.98,-152.22"/>
<polygon fill="#63b8ff" stroke="#63b8ff" points="727.04,-149.39 716.77,-146.79 723.18,-155.22 727.04,-149.39"/>
</g>
<!-- Node144 -->
<g id="node19" class="node">
<title>Node144</title>
<g id="a_node19"><a xlink:href="d__cc__s_8h.html" target="_top" xlink:title=" ">
<polygon fill="#fff0f0" stroke="red" points="532.48,-145.5 455.48,-145.5 455.48,-126.5 532.48,-126.5 532.48,-145.5"/>
<text text-anchor="middle" x="493.98" y="-133.5" font-family="Helvetica,sans-Serif" font-size="10.00">d/cc/d_cc_s.h</text>
</a>
</g>
</g>
<!-- Node139&#45;&gt;Node144 -->
<g id="edge22" class="edge">
<title>Node139&#45;&gt;Node144</title>
<path fill="none" stroke="#63b8ff" d="M758.86,-197.58C705.56,-187.44 617.22,-169.82 541.98,-151 539.43,-150.36 536.8,-149.68 534.16,-148.96"/>
<polygon fill="#63b8ff" stroke="#63b8ff" points="535.36,-145.67 524.79,-146.36 533.49,-152.41 535.36,-145.67"/>
</g>
<!-- Node154 -->
<g id="node20" class="node">
<title>Node154</title>
<g id="a_node20"><a xlink:href="d__attention_8h.html" target="_top" xlink:title=" ">
<polygon fill="#fff0f0" stroke="red" points="914.98,-145.5 834.98,-145.5 834.98,-126.5 914.98,-126.5 914.98,-145.5"/>
<text text-anchor="middle" x="874.98" y="-133.5" font-family="Helvetica,sans-Serif" font-size="10.00">d/d_attention.h</text>
</a>
</g>
</g>
<!-- Node139&#45;&gt;Node154 -->
<g id="edge24" class="edge">
<title>Node139&#45;&gt;Node154</title>
<path fill="none" stroke="#63b8ff" d="M815.6,-197.7C826.27,-186.79 844.69,-167.96 858.19,-154.16"/>
<polygon fill="#63b8ff" stroke="#63b8ff" points="860.68,-156.63 865.17,-147.03 855.67,-151.73 860.68,-156.63"/>
</g>
<!-- Node156 -->
<g id="node21" class="node">
<title>Node156</title>
<g id="a_node21"><a xlink:href="d__resorce_8h.html" target="_top" xlink:title=" ">
<polygon fill="#fff0f0" stroke="red" points="1008.48,-145.5 933.48,-145.5 933.48,-126.5 1008.48,-126.5 1008.48,-145.5"/>
<text text-anchor="middle" x="970.98" y="-133.5" font-family="Helvetica,sans-Serif" font-size="10.00">d/d_resorce.h</text>
</a>
</g>
</g>
<!-- Node139&#45;&gt;Node156 -->
<g id="edge25" class="edge">
<title>Node139&#45;&gt;Node156</title>
<path fill="none" stroke="#63b8ff" d="M828.09,-197.56C856.38,-185.57 906.83,-164.19 939.59,-150.31"/>
<polygon fill="#63b8ff" stroke="#63b8ff" points="940.73,-153.62 948.57,-146.5 937.99,-147.18 940.73,-153.62"/>
</g>
<!-- Node163 -->
<g id="node22" class="node">
<title>Node163</title>
<g id="a_node22"><a xlink:href="d__vibration_8h.html" target="_top" xlink:title=" ">
<polygon fill="#fff0f0" stroke="red" points="1320.98,-145.5 1240.98,-145.5 1240.98,-126.5 1320.98,-126.5 1320.98,-145.5"/>
<text text-anchor="middle" x="1280.98" y="-133.5" font-family="Helvetica,sans-Serif" font-size="10.00">d/d_vibration.h</text>
</a>
</g>
</g>
<!-- Node139&#45;&gt;Node163 -->
<g id="edge26" class="edge">
<title>Node139&#45;&gt;Node163</title>
<path fill="none" stroke="#63b8ff" d="M871.39,-200.96C954.89,-193.11 1104.79,-176.79 1230.98,-151 1234.13,-150.36 1237.37,-149.62 1240.61,-148.83"/>
<polygon fill="#63b8ff" stroke="#63b8ff" points="1241.28,-152.28 1250.08,-146.38 1239.52,-145.5 1241.28,-152.28"/>
</g>
<!-- Node165 -->
<g id="node24" class="node">
<title>Node165</title>
<g id="a_node24"><a xlink:href="d__event_8h.html" target="_top" xlink:title=" ">
<polygon fill="#fff0f0" stroke="red" points="644.98,-145.5 550.98,-145.5 550.98,-126.5 644.98,-126.5 644.98,-145.5"/>
<text text-anchor="middle" x="597.98" y="-133.5" font-family="Helvetica,sans-Serif" font-size="10.00">d/event/d_event.h</text>
</a>
</g>
</g>
<!-- Node139&#45;&gt;Node165 -->
<g id="edge28" class="edge">
<title>Node139&#45;&gt;Node165</title>
<path fill="none" stroke="#63b8ff" d="M780.09,-197.56C743.33,-185.33 677.22,-163.35 635.57,-149.5"/>
<polygon fill="#63b8ff" stroke="#63b8ff" points="636.81,-146.22 626.21,-146.39 634.6,-152.86 636.81,-146.22"/>
</g>
<!-- Node184 -->
<g id="node25" class="node">
<title>Node184</title>
<g id="a_node25"><a xlink:href="d__event__manager_8h.html" target="_top" xlink:title=" ">
<polygon fill="#fff0f0" stroke="red" points="1476.48,-145.5 1339.48,-145.5 1339.48,-126.5 1476.48,-126.5 1476.48,-145.5"/>
<text text-anchor="middle" x="1407.98" y="-133.5" font-family="Helvetica,sans-Serif" font-size="10.00">d/event/d_event_manager.h</text>
</a>
</g>
</g>
<!-- Node139&#45;&gt;Node184 -->
<g id="edge30" class="edge">
<title>Node139&#45;&gt;Node184</title>
<path fill="none" stroke="#63b8ff" d="M871.17,-201.19C970,-192.67 1165.24,-174.49 1329.98,-151 1336.44,-150.08 1343.18,-149.02 1349.88,-147.9"/>
<polygon fill="#63b8ff" stroke="#63b8ff" points="1350.3,-151.38 1359.56,-146.24 1349.11,-144.48 1350.3,-151.38"/>
</g>
<!-- Node186 -->
<g id="node26" class="node">
<title>Node186</title>
<g id="a_node26"><a xlink:href="d__particle_8h.html" target="_top" xlink:title=" ">
<polygon fill="#fff0f0" stroke="red" points="678.48,-79.5 569.48,-79.5 569.48,-60.5 678.48,-60.5 678.48,-79.5"/>
<text text-anchor="middle" x="623.98" y="-67.5" font-family="Helvetica,sans-Serif" font-size="10.00">d/particle/d_particle.h</text>
</a>
</g>
</g>
<!-- Node139&#45;&gt;Node186 -->
<g id="edge32" class="edge">
<title>Node139&#45;&gt;Node186</title>
<path fill="none" stroke="#63b8ff" d="M803.2,-197.72C795.42,-180.67 776.09,-142.82 748.98,-121 726.96,-103.27 697.83,-91.13 673.24,-83.26"/>
<polygon fill="#63b8ff" stroke="#63b8ff" points="674.34,-79.94 663.75,-80.38 672.3,-86.63 674.34,-79.94"/>
</g>
<!-- Node194 -->
<g id="node27" class="node">
<title>Node194</title>
<g id="a_node27"><a xlink:href="f__op__camera__mng_8h.html" target="_top" xlink:title=" ">
<polygon fill="#fff0f0" stroke="red" points="822.98,-79.5 696.98,-79.5 696.98,-60.5 822.98,-60.5 822.98,-79.5"/>
<text text-anchor="middle" x="759.98" y="-67.5" font-family="Helvetica,sans-Serif" font-size="10.00">f_op/f_op_camera_mng.h</text>
</a>
</g>
</g>
<!-- Node139&#45;&gt;Node194 -->
<g id="edge34" class="edge">
<title>Node139&#45;&gt;Node194</title>
<path fill="none" stroke="#63b8ff" d="M805.04,-197.86C801.42,-182.27 793.09,-148.49 782.98,-121 779.09,-110.42 773.9,-98.97 769.43,-89.7"/>
<polygon fill="#63b8ff" stroke="#63b8ff" points="772.72,-88.45 765.15,-81.03 766.45,-91.55 772.72,-88.45"/>
</g>
<!-- Node140&#45;&gt;Node8 -->
<g id="edge20" class="edge">
<title>Node140&#45;&gt;Node8</title>
<path fill="none" stroke="#63b8ff" d="M674.11,-126.1C633.74,-113.08 563.42,-89.85 559.98,-85 547.97,-68.03 558.41,-44.47 568.62,-28.42"/>
<polygon fill="#63b8ff" stroke="#63b8ff" points="571.39,-30.56 574.19,-20.34 565.63,-26.58 571.39,-30.56"/>
</g>
<!-- Node140&#45;&gt;Node21 -->
<g id="edge21" class="edge">
<title>Node140&#45;&gt;Node21</title>
<path fill="none" stroke="#63b8ff" d="M671.27,-126C665.53,-124.33 659.57,-122.61 653.98,-121 597.6,-104.79 582.85,-102.92 526.98,-85 525.64,-84.57 524.26,-84.12 522.88,-83.66"/>
<polygon fill="#63b8ff" stroke="#63b8ff" points="524.26,-80.43 513.67,-80.49 521.99,-87.05 524.26,-80.43"/>
</g>
<!-- Node144&#45;&gt;Node21 -->
<g id="edge23" class="edge">
<title>Node144&#45;&gt;Node21</title>
<path fill="none" stroke="#63b8ff" d="M493.15,-126.1C492.31,-117.12 490.98,-102.95 489.88,-91.22"/>
<polygon fill="#63b8ff" stroke="#63b8ff" points="493.37,-90.96 488.95,-81.33 486.4,-91.61 493.37,-90.96"/>
</g>
<!-- Node23 -->
<g id="node23" class="node">
<title>Node23</title>
<g id="a_node23"><a xlink:href="c__xyz_8h.html" target="_top" xlink:title=" ">
<polygon fill="#fff0f0" stroke="red" points="1500.98,-85 1384.98,-85 1384.98,-55 1500.98,-55 1500.98,-85"/>
<text text-anchor="start" x="1392.98" y="-73" font-family="Helvetica,sans-Serif" font-size="10.00">SSystem/SComponent</text>
<text text-anchor="middle" x="1442.98" y="-62" font-family="Helvetica,sans-Serif" font-size="10.00">/c_xyz.h</text>
</a>
</g>
</g>
<!-- Node163&#45;&gt;Node23 -->
<g id="edge27" class="edge">
<title>Node163&#45;&gt;Node23</title>
<path fill="none" stroke="#63b8ff" d="M1303.51,-126.1C1327.31,-116.7 1365.52,-101.6 1395.94,-89.59"/>
<polygon fill="#63b8ff" stroke="#63b8ff" points="1396.92,-92.96 1404.93,-86.03 1394.34,-86.45 1396.92,-92.96"/>
</g>
<!-- Node165&#45;&gt;Node21 -->
<g id="edge29" class="edge">
<title>Node165&#45;&gt;Node21</title>
<path fill="none" stroke="#63b8ff" d="M582.69,-126.1C564.63,-115.59 534.34,-97.97 512.88,-85.49"/>
<polygon fill="#63b8ff" stroke="#63b8ff" points="514.86,-82.59 504.46,-80.58 511.34,-88.64 514.86,-82.59"/>
</g>
<!-- Node184&#45;&gt;Node23 -->
<g id="edge31" class="edge">
<title>Node184&#45;&gt;Node23</title>
<path fill="none" stroke="#63b8ff" d="M1412.85,-126.1C1417.24,-118.08 1423.88,-105.93 1429.82,-95.07"/>
<polygon fill="#63b8ff" stroke="#63b8ff" points="1432.75,-97.01 1434.47,-86.56 1426.61,-93.66 1432.75,-97.01"/>
</g>
<!-- Node186&#45;&gt;Node8 -->
<g id="edge33" class="edge">
<title>Node186&#45;&gt;Node8</title>
<path fill="none" stroke="#63b8ff" d="M617.79,-60.37C611.77,-51.99 602.45,-39.01 594.83,-28.39"/>
<polygon fill="#63b8ff" stroke="#63b8ff" points="597.76,-26.48 589.09,-20.4 592.08,-30.56 597.76,-26.48"/>
</g>
<!-- Node194&#45;&gt;Node8 -->
<g id="edge35" class="edge">
<title>Node194&#45;&gt;Node8</title>
<path fill="none" stroke="#63b8ff" d="M732.95,-60.12C702.89,-50.24 654.11,-34.21 620.17,-23.05"/>
<polygon fill="#63b8ff" stroke="#63b8ff" points="621.3,-19.74 610.71,-19.94 619.12,-26.39 621.3,-19.74"/>
</g>
<!-- Node210&#45;&gt;Node3 -->
<g id="edge38" class="edge">
<title>Node210&#45;&gt;Node3</title>
<path fill="none" stroke="#63b8ff" d="M213.04,-197.56C186.42,-185.62 139.03,-164.37 108.06,-150.49"/>
<polygon fill="#63b8ff" stroke="#63b8ff" points="109.79,-147.43 99.24,-146.53 106.93,-153.81 109.79,-147.43"/>
</g>
<!-- Node211 -->
<g id="node29" class="node">
<title>Node211</title>
<g id="a_node29"><a xlink:href="d__select__icon_8h.html" target="_top" xlink:title=" ">
<polygon fill="#fff0f0" stroke="red" points="226.98,-145.5 134.98,-145.5 134.98,-126.5 226.98,-126.5 226.98,-145.5"/>
<text text-anchor="middle" x="180.98" y="-133.5" font-family="Helvetica,sans-Serif" font-size="10.00">d/d_select_icon.h</text>
</a>
</g>
</g>
<!-- Node210&#45;&gt;Node211 -->
<g id="edge39" class="edge">
<title>Node210&#45;&gt;Node211</title>
<path fill="none" stroke="#63b8ff" d="M226.4,-197.7C218.39,-187 204.68,-168.68 194.42,-154.95"/>
<polygon fill="#63b8ff" stroke="#63b8ff" points="197.38,-153.07 188.59,-147.16 191.78,-157.27 197.38,-153.07"/>
</g>
<!-- Node216&#45;&gt;Node23 -->
<g id="edge41" class="edge">
<title>Node216&#45;&gt;Node23</title>
<path fill="none" stroke="#63b8ff" d="M1540.27,-126.1C1524.32,-117.07 1499.09,-102.78 1478.32,-91.02"/>
<polygon fill="#63b8ff" stroke="#63b8ff" points="1480.29,-88.11 1469.86,-86.22 1476.84,-94.2 1480.29,-88.11"/>
</g>
<!-- Node217&#45;&gt;Node21 -->
<g id="edge46" class="edge">
<title>Node217&#45;&gt;Node21</title>
<path fill="none" stroke="#63b8ff" d="M1103.34,-129.05C1076.89,-126.47 1045.4,-123.48 1016.98,-121 814.02,-103.28 761.86,-112.49 559.98,-85 548.37,-83.42 535.8,-81.17 524.47,-78.93"/>
<polygon fill="#63b8ff" stroke="#63b8ff" points="525.17,-75.5 514.67,-76.93 523.77,-82.36 525.17,-75.5"/>
</g>
<!-- Node217&#45;&gt;Node23 -->
<g id="edge45" class="edge">
<title>Node217&#45;&gt;Node23</title>
<path fill="none" stroke="#63b8ff" d="M1202.21,-126.03C1246.47,-115.92 1319.32,-99.27 1373.32,-86.92"/>
<polygon fill="#63b8ff" stroke="#63b8ff" points="1374.09,-90.34 1383.06,-84.7 1372.53,-83.51 1374.09,-90.34"/>
</g>
<!-- Node19 -->
<g id="node32" class="node">
<title>Node19</title>
<g id="a_node32"><a xlink:href="TColor_8h.html" target="_top" xlink:title=" ">
<polygon fill="#fff0f0" stroke="red" points="1232.48,-79.5 1105.48,-79.5 1105.48,-60.5 1232.48,-60.5 1232.48,-79.5"/>
<text text-anchor="middle" x="1168.98" y="-67.5" font-family="Helvetica,sans-Serif" font-size="10.00">JSystem/JUtility/TColor.h</text>
</a>
</g>
</g>
<!-- Node217&#45;&gt;Node19 -->
<g id="edge43" class="edge">
<title>Node217&#45;&gt;Node19</title>
<path fill="none" stroke="#63b8ff" d="M1163.82,-126.1C1164.66,-117.12 1165.99,-102.95 1167.09,-91.22"/>
<polygon fill="#63b8ff" stroke="#63b8ff" points="1170.57,-91.61 1168.02,-81.33 1163.6,-90.96 1170.57,-91.61"/>
</g>
<!-- Node120 -->
<g id="node33" class="node">
<title>Node120</title>
<g id="a_node33"><a xlink:href="c__sxyz_8h.html" target="_top" xlink:title=" ">
<polygon fill="#fff0f0" stroke="red" points="1366.98,-85 1250.98,-85 1250.98,-55 1366.98,-55 1366.98,-85"/>
<text text-anchor="start" x="1258.98" y="-73" font-family="Helvetica,sans-Serif" font-size="10.00">SSystem/SComponent</text>
<text text-anchor="middle" x="1308.98" y="-62" font-family="Helvetica,sans-Serif" font-size="10.00">/c_sxyz.h</text>
</a>
</g>
</g>
<!-- Node217&#45;&gt;Node120 -->
<g id="edge44" class="edge">
<title>Node217&#45;&gt;Node120</title>
<path fill="none" stroke="#63b8ff" d="M1183.28,-126.1C1204.45,-116.82 1238.27,-102 1265.51,-90.06"/>
<polygon fill="#63b8ff" stroke="#63b8ff" points="1266.82,-93.31 1274.57,-86.09 1264.01,-86.89 1266.82,-93.31"/>
</g>
<!-- Node234&#45;&gt;Node8 -->
<g id="edge52" class="edge">
<title>Node234&#45;&gt;Node8</title>
<path fill="none" stroke="#63b8ff" d="M857.21,-60.07C848.86,-58.34 840.15,-56.58 831.98,-55 763.72,-41.8 684.68,-27.97 634.05,-19.3"/>
<polygon fill="#63b8ff" stroke="#63b8ff" points="634.7,-15.86 624.25,-17.63 633.52,-22.76 634.7,-15.86"/>
</g>
<!-- Node243&#45;&gt;Node8 -->
<g id="edge54" class="edge">
<title>Node243&#45;&gt;Node8</title>
<path fill="none" stroke="#63b8ff" d="M974.17,-56.6C971.07,-56.03 967.99,-55.49 964.98,-55 847.41,-35.74 708.2,-21.75 634.26,-15.01"/>
<polygon fill="#63b8ff" stroke="#63b8ff" points="634.75,-11.54 624.48,-14.13 634.12,-18.52 634.75,-11.54"/>
</g>
</g>
</svg>
