<?xml version="1.0" encoding="UTF-8" standalone="no"?>
<!DOCTYPE svg PUBLIC "-//W3C//DTD SVG 1.1//EN"
 "http://www.w3.org/Graphics/SVG/1.1/DTD/svg11.dtd">
<!-- Generated by graphviz version 7.0.5 (20221223.1930)
 -->
<!-- Title: include/d/meter/d_meter2_info.h Pages: 1 -->
<svg width="4673pt" height="170pt"
 viewBox="0.00 0.00 4672.50 170.00" xmlns="http://www.w3.org/2000/svg" xmlns:xlink="http://www.w3.org/1999/xlink">
<g id="graph0" class="graph" transform="scale(1 1) rotate(0) translate(4 166)">
<title>include/d/meter/d_meter2_info.h</title>
<!-- Node1 -->
<g id="node1" class="node">
<title>Node1</title>
<g id="a_node1"><a xlink:title=" ">
<polygon fill="#999999" stroke="#666666" points="2629,-162 2502,-162 2502,-132 2629,-132 2629,-162"/>
<text text-anchor="start" x="2510" y="-150" font-family="Helvetica,sans-Serif" font-size="10.00">include/d/meter/d_meter2</text>
<text text-anchor="middle" x="2565.5" y="-139" font-family="Helvetica,sans-Serif" font-size="10.00">_info.h</text>
</a>
</g>
</g>
<!-- Node2 -->
<g id="node2" class="node">
<title>Node2</title>
<g id="a_node2"><a xlink:href="d__a__alink_8h.html" target="_top" xlink:title=" ">
<polygon fill="white" stroke="#666666" points="559.5,-90.5 443.5,-90.5 443.5,-71.5 559.5,-71.5 559.5,-90.5"/>
<text text-anchor="middle" x="501.5" y="-78.5" font-family="Helvetica,sans-Serif" font-size="10.00">include/d/a/d_a_alink.h</text>
</a>
</g>
</g>
<!-- Node1&#45;&gt;Node2 -->
<g id="edge1" class="edge">
<title>Node1&#45;&gt;Node2</title>
<path fill="none" stroke="#63b8ff" d="M2490.54,-145.91C2174.85,-145.24 952.2,-139.84 569.5,-96 559.56,-94.86 548.92,-92.99 539.07,-90.98"/>
<polygon fill="#63b8ff" stroke="#63b8ff" points="2490.31,-149.41 2500.31,-145.93 2490.32,-142.41 2490.31,-149.41"/>
</g>
<!-- Node11 -->
<g id="node11" class="node">
<title>Node11</title>
<g id="a_node11"><a xlink:href="d__gameover_8cpp.html" target="_top" xlink:title=" ">
<polygon fill="white" stroke="#666666" points="691,-90.5 578,-90.5 578,-71.5 691,-71.5 691,-90.5"/>
<text text-anchor="middle" x="634.5" y="-78.5" font-family="Helvetica,sans-Serif" font-size="10.00">src/d/d_gameover.cpp</text>
</a>
</g>
</g>
<!-- Node1&#45;&gt;Node11 -->
<g id="edge10" class="edge">
<title>Node1&#45;&gt;Node11</title>
<path fill="none" stroke="#63b8ff" d="M2490.52,-145.81C2187.92,-144.78 1055.98,-138.11 700.5,-96 690.85,-94.86 680.51,-92.98 670.96,-90.97"/>
<polygon fill="#63b8ff" stroke="#63b8ff" points="2490.25,-149.31 2500.26,-145.85 2490.27,-142.31 2490.25,-149.31"/>
</g>
<!-- Node12 -->
<g id="node12" class="node">
<title>Node12</title>
<g id="a_node12"><a xlink:href="d__item_8cpp.html" target="_top" xlink:title=" ">
<polygon fill="white" stroke="#666666" points="798,-90.5 709,-90.5 709,-71.5 798,-71.5 798,-90.5"/>
<text text-anchor="middle" x="753.5" y="-78.5" font-family="Helvetica,sans-Serif" font-size="10.00">src/d/d_item.cpp</text>
</a>
</g>
</g>
<!-- Node1&#45;&gt;Node12 -->
<g id="edge11" class="edge">
<title>Node1&#45;&gt;Node12</title>
<path fill="none" stroke="#63b8ff" d="M2490.46,-146.11C2198.74,-146.2 1139.93,-143.2 807.5,-96 799.54,-94.87 791.07,-93 783.25,-90.99"/>
<polygon fill="#63b8ff" stroke="#63b8ff" points="2490.22,-149.61 2500.22,-146.11 2490.22,-142.61 2490.22,-149.61"/>
</g>
<!-- Node13 -->
<g id="node13" class="node">
<title>Node13</title>
<g id="a_node13"><a xlink:href="d__scope_8cpp.html" target="_top" xlink:title=" ">
<polygon fill="white" stroke="#666666" points="912.5,-90.5 816.5,-90.5 816.5,-71.5 912.5,-71.5 912.5,-90.5"/>
<text text-anchor="middle" x="864.5" y="-78.5" font-family="Helvetica,sans-Serif" font-size="10.00">src/d/d_scope.cpp</text>
</a>
</g>
</g>
<!-- Node1&#45;&gt;Node13 -->
<g id="edge12" class="edge">
<title>Node1&#45;&gt;Node13</title>
<path fill="none" stroke="#63b8ff" d="M2490.74,-145.81C2211.65,-144.8 1230.91,-138.22 921.5,-96 913.12,-94.86 904.18,-92.98 895.93,-90.97"/>
<polygon fill="#63b8ff" stroke="#63b8ff" points="2490.41,-149.31 2500.42,-145.85 2490.44,-142.31 2490.41,-149.31"/>
</g>
<!-- Node14 -->
<g id="node14" class="node">
<title>Node14</title>
<g id="a_node14"><a xlink:href="d__timer_8cpp.html" target="_top" xlink:title=" ">
<polygon fill="white" stroke="#666666" points="1022.5,-90.5 930.5,-90.5 930.5,-71.5 1022.5,-71.5 1022.5,-90.5"/>
<text text-anchor="middle" x="976.5" y="-78.5" font-family="Helvetica,sans-Serif" font-size="10.00">src/d/d_timer.cpp</text>
</a>
</g>
</g>
<!-- Node1&#45;&gt;Node14 -->
<g id="edge13" class="edge">
<title>Node1&#45;&gt;Node14</title>
<path fill="none" stroke="#63b8ff" d="M2490.07,-145.66C2222.4,-144.12 1318.84,-136 1032.5,-96 1024.26,-94.85 1015.48,-92.97 1007.37,-90.96"/>
<polygon fill="#63b8ff" stroke="#63b8ff" points="2490.05,-149.16 2500.07,-145.71 2490.09,-142.16 2490.05,-149.16"/>
</g>
<!-- Node15 -->
<g id="node15" class="node">
<title>Node15</title>
<g id="a_node15"><a xlink:href="d__file__sel__info_8cpp.html" target="_top" xlink:title=" ">
<polygon fill="white" stroke="#666666" points="1138,-96 1041,-96 1041,-66 1138,-66 1138,-96"/>
<text text-anchor="start" x="1049" y="-84" font-family="Helvetica,sans-Serif" font-size="10.00">src/d/file/d_file_sel</text>
<text text-anchor="middle" x="1089.5" y="-73" font-family="Helvetica,sans-Serif" font-size="10.00">_info.cpp</text>
</a>
</g>
</g>
<!-- Node1&#45;&gt;Node15 -->
<g id="edge14" class="edge">
<title>Node1&#45;&gt;Node15</title>
<path fill="none" stroke="#63b8ff" d="M2490.22,-145.35C2236.01,-142.83 1410.55,-132.01 1147.5,-96 1144.52,-95.59 1141.48,-95.1 1138.42,-94.54"/>
<polygon fill="#63b8ff" stroke="#63b8ff" points="2489.99,-148.84 2500.02,-145.44 2490.06,-141.84 2489.99,-148.84"/>
</g>
<!-- Node16 -->
<g id="node16" class="node">
<title>Node16</title>
<g id="a_node16"><a xlink:href="d__file__select_8cpp.html" target="_top" xlink:title=" ">
<polygon fill="white" stroke="#666666" points="1284.5,-90.5 1156.5,-90.5 1156.5,-71.5 1284.5,-71.5 1284.5,-90.5"/>
<text text-anchor="middle" x="1220.5" y="-78.5" font-family="Helvetica,sans-Serif" font-size="10.00">src/d/file/d_file_select.cpp</text>
</a>
</g>
</g>
<!-- Node1&#45;&gt;Node16 -->
<g id="edge15" class="edge">
<title>Node1&#45;&gt;Node16</title>
<path fill="none" stroke="#63b8ff" d="M2490.54,-144.53C2254.38,-139.68 1527.61,-122.9 1293.5,-96 1282.99,-94.79 1271.72,-92.92 1261.26,-90.94"/>
<polygon fill="#63b8ff" stroke="#63b8ff" points="2490.16,-148.03 2500.23,-144.73 2490.31,-141.03 2490.16,-148.03"/>
</g>
<!-- Node17 -->
<g id="node17" class="node">
<title>Node17</title>
<g id="a_node17"><a xlink:href="d__kankyo_8cpp.html" target="_top" xlink:title=" ">
<polygon fill="white" stroke="#666666" points="1436.5,-90.5 1302.5,-90.5 1302.5,-71.5 1436.5,-71.5 1436.5,-90.5"/>
<text text-anchor="middle" x="1369.5" y="-78.5" font-family="Helvetica,sans-Serif" font-size="10.00">src/d/kankyo/d_kankyo.cpp</text>
</a>
</g>
</g>
<!-- Node1&#45;&gt;Node17 -->
<g id="edge16" class="edge">
<title>Node1&#45;&gt;Node17</title>
<path fill="none" stroke="#63b8ff" d="M2490.32,-146.2C2309.65,-145.92 1836.98,-140.58 1445.5,-96 1434.7,-94.77 1423.13,-92.92 1412.35,-90.96"/>
<polygon fill="#63b8ff" stroke="#63b8ff" points="2490.28,-149.7 2500.28,-146.21 2490.29,-142.7 2490.28,-149.7"/>
</g>
<!-- Node18 -->
<g id="node18" class="node">
<title>Node18</title>
<g id="a_node18"><a xlink:href="d__menu__calibration_8cpp.html" target="_top" xlink:title=" ">
<polygon fill="white" stroke="#666666" points="1624.5,-90.5 1454.5,-90.5 1454.5,-71.5 1624.5,-71.5 1624.5,-90.5"/>
<text text-anchor="middle" x="1539.5" y="-78.5" font-family="Helvetica,sans-Serif" font-size="10.00">src/d/menu/d_menu_calibration.cpp</text>
</a>
</g>
</g>
<!-- Node1&#45;&gt;Node18 -->
<g id="edge17" class="edge">
<title>Node1&#45;&gt;Node18</title>
<path fill="none" stroke="#63b8ff" d="M2490.08,-144.32C2331.39,-140.26 1951.5,-127.8 1634.5,-96 1621.48,-94.69 1607.51,-92.87 1594.4,-90.97"/>
<polygon fill="#63b8ff" stroke="#63b8ff" points="2489.97,-147.82 2500.06,-144.57 2490.15,-140.82 2489.97,-147.82"/>
</g>
<!-- Node19 -->
<g id="node19" class="node">
<title>Node19</title>
<g id="a_node19"><a xlink:href="d__menu__collect_8cpp.html" target="_top" xlink:title=" ">
<polygon fill="white" stroke="#666666" points="1798,-90.5 1643,-90.5 1643,-71.5 1798,-71.5 1798,-90.5"/>
<text text-anchor="middle" x="1720.5" y="-78.5" font-family="Helvetica,sans-Serif" font-size="10.00">src/d/menu/d_menu_collect.cpp</text>
</a>
</g>
</g>
<!-- Node1&#45;&gt;Node19 -->
<g id="edge18" class="edge">
<title>Node1&#45;&gt;Node19</title>
<path fill="none" stroke="#63b8ff" d="M2490.57,-143.39C2354.29,-138.11 2056.85,-124.22 1807.5,-96 1795.64,-94.66 1782.93,-92.83 1770.99,-90.95"/>
<polygon fill="#63b8ff" stroke="#63b8ff" points="2490.04,-146.87 2500.17,-143.75 2490.31,-139.87 2490.04,-146.87"/>
</g>
<!-- Node20 -->
<g id="node20" class="node">
<title>Node20</title>
<g id="a_node20"><a xlink:href="d__menu__fishing_8cpp.html" target="_top" xlink:title=" ">
<polygon fill="white" stroke="#666666" points="1970.5,-90.5 1816.5,-90.5 1816.5,-71.5 1970.5,-71.5 1970.5,-90.5"/>
<text text-anchor="middle" x="1893.5" y="-78.5" font-family="Helvetica,sans-Serif" font-size="10.00">src/d/menu/d_menu_fishing.cpp</text>
</a>
</g>
</g>
<!-- Node1&#45;&gt;Node20 -->
<g id="edge19" class="edge">
<title>Node1&#45;&gt;Node20</title>
<path fill="none" stroke="#63b8ff" d="M2490.13,-141.41C2378.39,-134.2 2162.27,-118.64 1979.5,-96 1968.09,-94.59 1955.88,-92.78 1944.34,-90.93"/>
<polygon fill="#63b8ff" stroke="#63b8ff" points="2489.89,-144.91 2500.09,-142.05 2490.33,-137.92 2489.89,-144.91"/>
</g>
<!-- Node21 -->
<g id="node21" class="node">
<title>Node21</title>
<g id="a_node21"><a xlink:href="d__menu__insect_8cpp.html" target="_top" xlink:title=" ">
<polygon fill="white" stroke="#666666" points="2140.5,-90.5 1988.5,-90.5 1988.5,-71.5 2140.5,-71.5 2140.5,-90.5"/>
<text text-anchor="middle" x="2064.5" y="-78.5" font-family="Helvetica,sans-Serif" font-size="10.00">src/d/menu/d_menu_insect.cpp</text>
</a>
</g>
</g>
<!-- Node1&#45;&gt;Node21 -->
<g id="edge20" class="edge">
<title>Node1&#45;&gt;Node21</title>
<path fill="none" stroke="#63b8ff" d="M2490.2,-137.95C2406.78,-128.8 2268.32,-112.92 2149.5,-96 2138.84,-94.48 2127.45,-92.71 2116.59,-90.95"/>
<polygon fill="#63b8ff" stroke="#63b8ff" points="2489.78,-141.42 2500.1,-139.03 2490.54,-134.47 2489.78,-141.42"/>
</g>
<!-- Node22 -->
<g id="node22" class="node">
<title>Node22</title>
<g id="a_node22"><a xlink:href="d__menu__option_8cpp.html" target="_top" xlink:title=" ">
<polygon fill="white" stroke="#666666" points="2310.5,-90.5 2158.5,-90.5 2158.5,-71.5 2310.5,-71.5 2310.5,-90.5"/>
<text text-anchor="middle" x="2234.5" y="-78.5" font-family="Helvetica,sans-Serif" font-size="10.00">src/d/menu/d_menu_option.cpp</text>
</a>
</g>
</g>
<!-- Node1&#45;&gt;Node22 -->
<g id="edge21" class="edge">
<title>Node1&#45;&gt;Node22</title>
<path fill="none" stroke="#63b8ff" d="M2490.75,-131.55C2426.19,-119.06 2334.94,-101.42 2280.55,-90.9"/>
<polygon fill="#63b8ff" stroke="#63b8ff" points="2489.71,-134.91 2500.19,-133.37 2491.04,-128.04 2489.71,-134.91"/>
</g>
<!-- Node23 -->
<g id="node23" class="node">
<title>Node23</title>
<g id="a_node23"><a xlink:href="d__menu__save_8cpp.html" target="_top" xlink:title=" ">
<polygon fill="white" stroke="#666666" points="2476,-90.5 2329,-90.5 2329,-71.5 2476,-71.5 2476,-90.5"/>
<text text-anchor="middle" x="2402.5" y="-78.5" font-family="Helvetica,sans-Serif" font-size="10.00">src/d/menu/d_menu_save.cpp</text>
</a>
</g>
</g>
<!-- Node1&#45;&gt;Node23 -->
<g id="edge22" class="edge">
<title>Node1&#45;&gt;Node23</title>
<path fill="none" stroke="#63b8ff" d="M2518.48,-127.54C2487.92,-115.54 2449.43,-100.43 2425.39,-90.99"/>
<polygon fill="#63b8ff" stroke="#63b8ff" points="2516.92,-130.69 2527.51,-131.08 2519.48,-124.17 2516.92,-130.69"/>
</g>
<!-- Node24 -->
<g id="node24" class="node">
<title>Node24</title>
<g id="a_node24"><a xlink:href="d__menu__skill_8cpp.html" target="_top" xlink:title=" ">
<polygon fill="white" stroke="#666666" points="2637,-90.5 2494,-90.5 2494,-71.5 2637,-71.5 2637,-90.5"/>
<text text-anchor="middle" x="2565.5" y="-78.5" font-family="Helvetica,sans-Serif" font-size="10.00">src/d/menu/d_menu_skill.cpp</text>
</a>
</g>
</g>
<!-- Node1&#45;&gt;Node24 -->
<g id="edge23" class="edge">
<title>Node1&#45;&gt;Node24</title>
<path fill="none" stroke="#63b8ff" d="M2565.5,-120.59C2565.5,-110.06 2565.5,-98.53 2565.5,-90.84"/>
<polygon fill="#63b8ff" stroke="#63b8ff" points="2562,-120.28 2565.5,-130.28 2569,-120.28 2562,-120.28"/>
</g>
<!-- Node25 -->
<g id="node25" class="node">
<title>Node25</title>
<g id="a_node25"><a xlink:href="d__menu__window_8cpp.html" target="_top" xlink:title=" ">
<polygon fill="white" stroke="#666666" points="2814,-90.5 2655,-90.5 2655,-71.5 2814,-71.5 2814,-90.5"/>
<text text-anchor="middle" x="2734.5" y="-78.5" font-family="Helvetica,sans-Serif" font-size="10.00">src/d/menu/d_menu_window.cpp</text>
</a>
</g>
</g>
<!-- Node1&#45;&gt;Node25 -->
<g id="edge24" class="edge">
<title>Node1&#45;&gt;Node25</title>
<path fill="none" stroke="#63b8ff" d="M2613.84,-127.69C2645.59,-115.67 2685.74,-100.47 2710.77,-90.99"/>
<polygon fill="#63b8ff" stroke="#63b8ff" points="2612.95,-124.29 2604.84,-131.1 2615.43,-130.83 2612.95,-124.29"/>
</g>
<!-- Node26 -->
<g id="node26" class="node">
<title>Node26</title>
<g id="a_node26"><a xlink:href="d__meter2_8cpp.html" target="_top" xlink:title=" ">
<polygon fill="white" stroke="#666666" points="2960.5,-90.5 2832.5,-90.5 2832.5,-71.5 2960.5,-71.5 2960.5,-90.5"/>
<text text-anchor="middle" x="2896.5" y="-78.5" font-family="Helvetica,sans-Serif" font-size="10.00">src/d/meter/d_meter2.cpp</text>
</a>
</g>
</g>
<!-- Node1&#45;&gt;Node26 -->
<g id="edge25" class="edge">
<title>Node1&#45;&gt;Node26</title>
<path fill="none" stroke="#63b8ff" d="M2640.25,-131.55C2704.81,-119.06 2796.06,-101.42 2850.45,-90.9"/>
<polygon fill="#63b8ff" stroke="#63b8ff" points="2639.96,-128.04 2630.81,-133.37 2641.29,-134.91 2639.96,-128.04"/>
</g>
<!-- Node27 -->
<g id="node27" class="node">
<title>Node27</title>
<g id="a_node27"><a xlink:href="d__meter2__info_8cpp.html" target="_top" xlink:title=" ">
<polygon fill="white" stroke="#666666" points="3088.5,-96 2978.5,-96 2978.5,-66 3088.5,-66 3088.5,-96"/>
<text text-anchor="start" x="2986.5" y="-84" font-family="Helvetica,sans-Serif" font-size="10.00">src/d/meter/d_meter2</text>
<text text-anchor="middle" x="3033.5" y="-73" font-family="Helvetica,sans-Serif" font-size="10.00">_info.cpp</text>
</a>
</g>
</g>
<!-- Node1&#45;&gt;Node27 -->
<g id="edge26" class="edge">
<title>Node1&#45;&gt;Node27</title>
<path fill="none" stroke="#63b8ff" d="M2640.57,-138.8C2721.91,-130.51 2855.39,-115.5 2969.5,-96 2972.3,-95.52 2975.17,-95 2978.06,-94.46"/>
<polygon fill="#63b8ff" stroke="#63b8ff" points="2640.54,-135.29 2630.95,-139.77 2641.25,-142.25 2640.54,-135.29"/>
</g>
<!-- Node28 -->
<g id="node28" class="node">
<title>Node28</title>
<g id="a_node28"><a xlink:href="d__meter__map_8cpp.html" target="_top" xlink:title=" ">
<polygon fill="white" stroke="#666666" points="3210.5,-96 3106.5,-96 3106.5,-66 3210.5,-66 3210.5,-96"/>
<text text-anchor="start" x="3114.5" y="-84" font-family="Helvetica,sans-Serif" font-size="10.00">src/d/meter/d_meter</text>
<text text-anchor="middle" x="3158.5" y="-73" font-family="Helvetica,sans-Serif" font-size="10.00">_map.cpp</text>
</a>
</g>
</g>
<!-- Node1&#45;&gt;Node28 -->
<g id="edge27" class="edge">
<title>Node1&#45;&gt;Node28</title>
<path fill="none" stroke="#63b8ff" d="M2640.56,-142.07C2743.93,-135.95 2935.73,-122.05 3097.5,-96 3100.29,-95.55 3103.14,-95.05 3106.01,-94.51"/>
<polygon fill="#63b8ff" stroke="#63b8ff" points="2640.6,-138.56 2630.82,-142.64 2641.01,-145.55 2640.6,-138.56"/>
</g>
<!-- Node29 -->
<g id="node29" class="node">
<title>Node29</title>
<g id="a_node29"><a xlink:href="d__msg__class_8cpp.html" target="_top" xlink:title=" ">
<polygon fill="white" stroke="#666666" points="3368,-90.5 3229,-90.5 3229,-71.5 3368,-71.5 3368,-90.5"/>
<text text-anchor="middle" x="3298.5" y="-78.5" font-family="Helvetica,sans-Serif" font-size="10.00">src/d/msg/d_msg_class.cpp</text>
</a>
</g>
</g>
<!-- Node1&#45;&gt;Node29 -->
<g id="edge28" class="edge">
<title>Node1&#45;&gt;Node29</title>
<path fill="none" stroke="#63b8ff" d="M2640.7,-142.68C2762.6,-136.75 3010.74,-122.41 3219.5,-96 3230.14,-94.65 3241.53,-92.85 3252.25,-90.99"/>
<polygon fill="#63b8ff" stroke="#63b8ff" points="2640.64,-139.18 2630.82,-143.15 2640.97,-146.17 2640.64,-139.18"/>
</g>
<!-- Node30 -->
<g id="node30" class="node">
<title>Node30</title>
<g id="a_node30"><a xlink:href="d__msg__object_8cpp.html" target="_top" xlink:title=" ">
<polygon fill="white" stroke="#666666" points="3528.5,-90.5 3386.5,-90.5 3386.5,-71.5 3528.5,-71.5 3528.5,-90.5"/>
<text text-anchor="middle" x="3457.5" y="-78.5" font-family="Helvetica,sans-Serif" font-size="10.00">src/d/msg/d_msg_object.cpp</text>
</a>
</g>
</g>
<!-- Node1&#45;&gt;Node30 -->
<g id="edge29" class="edge">
<title>Node1&#45;&gt;Node30</title>
<path fill="none" stroke="#63b8ff" d="M2640.68,-144.18C2784.29,-140.07 3107.43,-127.84 3377.5,-96 3388.56,-94.7 3400.42,-92.86 3411.52,-90.95"/>
<polygon fill="#63b8ff" stroke="#63b8ff" points="2640.82,-140.67 2630.92,-144.45 2641.01,-147.67 2640.82,-140.67"/>
</g>
<!-- Node31 -->
<g id="node31" class="node">
<title>Node31</title>
<g id="a_node31"><a xlink:href="d__msg__out__font_8cpp.html" target="_top" xlink:title=" ">
<polygon fill="white" stroke="#666666" points="3658,-96 3547,-96 3547,-66 3658,-66 3658,-96"/>
<text text-anchor="start" x="3555" y="-84" font-family="Helvetica,sans-Serif" font-size="10.00">src/d/msg/d_msg_out</text>
<text text-anchor="middle" x="3602.5" y="-73" font-family="Helvetica,sans-Serif" font-size="10.00">_font.cpp</text>
</a>
</g>
</g>
<!-- Node1&#45;&gt;Node31 -->
<g id="edge30" class="edge">
<title>Node1&#45;&gt;Node31</title>
<path fill="none" stroke="#63b8ff" d="M2640.59,-146.23C2804.29,-145.85 3205.22,-140.04 3537.5,-96 3540.48,-95.61 3543.52,-95.15 3546.58,-94.64"/>
<polygon fill="#63b8ff" stroke="#63b8ff" points="2640.73,-142.73 2630.74,-146.25 2640.74,-149.73 2640.73,-142.73"/>
</g>
<!-- Node32 -->
<g id="node32" class="node">
<title>Node32</title>
<g id="a_node32"><a xlink:href="d__msg__string__base_8cpp.html" target="_top" xlink:title=" ">
<polygon fill="white" stroke="#666666" points="3798.5,-96 3676.5,-96 3676.5,-66 3798.5,-66 3798.5,-96"/>
<text text-anchor="start" x="3684.5" y="-84" font-family="Helvetica,sans-Serif" font-size="10.00">src/d/msg/d_msg_string</text>
<text text-anchor="middle" x="3737.5" y="-73" font-family="Helvetica,sans-Serif" font-size="10.00">_base.cpp</text>
</a>
</g>
</g>
<!-- Node1&#45;&gt;Node32 -->
<g id="edge31" class="edge">
<title>Node1&#45;&gt;Node32</title>
<path fill="none" stroke="#63b8ff" d="M2640.81,-146.52C2819.64,-146.89 3283.59,-142.82 3667.5,-96 3670.33,-95.65 3673.22,-95.26 3676.13,-94.82"/>
<polygon fill="#63b8ff" stroke="#63b8ff" points="2640.97,-143.02 2630.96,-146.49 2640.95,-150.02 2640.97,-143.02"/>
</g>
<!-- Node33 -->
<g id="node33" class="node">
<title>Node33</title>
<g id="a_node33"><a xlink:href="d__msg__unit_8cpp.html" target="_top" xlink:title=" ">
<polygon fill="white" stroke="#666666" points="3948,-90.5 3817,-90.5 3817,-71.5 3948,-71.5 3948,-90.5"/>
<text text-anchor="middle" x="3882.5" y="-78.5" font-family="Helvetica,sans-Serif" font-size="10.00">src/d/msg/d_msg_unit.cpp</text>
</a>
</g>
</g>
<!-- Node1&#45;&gt;Node33 -->
<g id="edge32" class="edge">
<title>Node1&#45;&gt;Node33</title>
<path fill="none" stroke="#63b8ff" d="M2640.88,-146.74C2834.96,-147.84 3367.51,-145.66 3807.5,-96 3818.16,-94.8 3829.58,-92.95 3840.22,-91"/>
<polygon fill="#63b8ff" stroke="#63b8ff" points="2640.94,-143.24 2630.92,-146.68 2640.9,-150.24 2640.94,-143.24"/>
</g>
<!-- Node34 -->
<g id="node34" class="node">
<title>Node34</title>
<g id="a_node34"><a xlink:href="d__s__name_8cpp.html" target="_top" xlink:title=" ">
<polygon fill="white" stroke="#666666" points="4079,-90.5 3966,-90.5 3966,-71.5 4079,-71.5 4079,-90.5"/>
<text text-anchor="middle" x="4022.5" y="-78.5" font-family="Helvetica,sans-Serif" font-size="10.00">src/d/s/d_s_name.cpp</text>
</a>
</g>
</g>
<!-- Node1&#45;&gt;Node34 -->
<g id="edge33" class="edge">
<title>Node1&#45;&gt;Node34</title>
<path fill="none" stroke="#63b8ff" d="M2640.65,-145.05C2891.6,-141.59 3699.31,-128.19 3957.5,-96 3966.89,-94.83 3976.94,-92.97 3986.25,-90.99"/>
<polygon fill="#63b8ff" stroke="#63b8ff" points="2640.95,-141.54 2630.99,-145.18 2641.04,-148.54 2640.95,-141.54"/>
</g>
<!-- Node35 -->
<g id="node35" class="node">
<title>Node35</title>
<g id="a_node35"><a xlink:href="d__save_8cpp.html" target="_top" xlink:title=" ">
<polygon fill="white" stroke="#666666" points="4212,-90.5 4097,-90.5 4097,-71.5 4212,-71.5 4212,-90.5"/>
<text text-anchor="middle" x="4154.5" y="-78.5" font-family="Helvetica,sans-Serif" font-size="10.00">src/d/save/d_save.cpp</text>
</a>
</g>
</g>
<!-- Node1&#45;&gt;Node35 -->
<g id="edge34" class="edge">
<title>Node1&#45;&gt;Node35</title>
<path fill="none" stroke="#63b8ff" d="M2640.84,-145.28C2907.18,-142.48 3803.53,-130.63 4088.5,-96 4098.15,-94.83 4108.48,-92.94 4118.04,-90.93"/>
<polygon fill="#63b8ff" stroke="#63b8ff" points="2640.86,-141.78 2630.9,-145.39 2640.94,-148.78 2640.86,-141.78"/>
</g>
<!-- Node36 -->
<g id="node36" class="node">
<title>Node36</title>
<g id="a_node36"><a xlink:href="d__shop__system_8cpp.html" target="_top" xlink:title=" ">
<polygon fill="white" stroke="#666666" points="4382.5,-90.5 4230.5,-90.5 4230.5,-71.5 4382.5,-71.5 4382.5,-90.5"/>
<text text-anchor="middle" x="4306.5" y="-78.5" font-family="Helvetica,sans-Serif" font-size="10.00">src/d/shop/d_shop_system.cpp</text>
</a>
</g>
</g>
<!-- Node1&#45;&gt;Node36 -->
<g id="edge35" class="edge">
<title>Node1&#45;&gt;Node36</title>
<path fill="none" stroke="#63b8ff" d="M2640.71,-145.06C2921.52,-141.34 3908.42,-126.37 4221.5,-96 4233.71,-94.82 4246.81,-92.95 4258.99,-90.97"/>
<polygon fill="#63b8ff" stroke="#63b8ff" points="2640.91,-141.56 2630.96,-145.19 2641.01,-148.56 2640.91,-141.56"/>
</g>
<!-- Node37 -->
<g id="node37" class="node">
<title>Node37</title>
<g id="a_node37"><a xlink:href="f__op__msg__mng_8cpp.html" target="_top" xlink:title=" ">
<polygon fill="white" stroke="#666666" points="4540.5,-90.5 4400.5,-90.5 4400.5,-71.5 4540.5,-71.5 4540.5,-90.5"/>
<text text-anchor="middle" x="4470.5" y="-78.5" font-family="Helvetica,sans-Serif" font-size="10.00">src/f_op/f_op_msg_mng.cpp</text>
</a>
</g>
</g>
<!-- Node1&#45;&gt;Node37 -->
<g id="edge36" class="edge">
<title>Node1&#45;&gt;Node37</title>
<path fill="none" stroke="#63b8ff" d="M2640.37,-145.43C2938.72,-142.93 4043.4,-131.41 4391.5,-96 4403,-94.83 4415.35,-92.95 4426.79,-90.94"/>
<polygon fill="#63b8ff" stroke="#63b8ff" points="2640.75,-141.93 2630.78,-145.51 2640.81,-148.93 2640.75,-141.93"/>
</g>
<!-- Node38 -->
<g id="node38" class="node">
<title>Node38</title>
<g id="a_node38"><a xlink:href="d__msg__scrn__explain_8cpp.html" target="_top" xlink:title=" ">
<polygon fill="white" stroke="#666666" points="4664.5,-96 4558.5,-96 4558.5,-66 4664.5,-66 4664.5,-96"/>
<text text-anchor="start" x="4566.5" y="-84" font-family="Helvetica,sans-Serif" font-size="10.00">src/msg/scrn/d_msg</text>
<text text-anchor="middle" x="4611.5" y="-73" font-family="Helvetica,sans-Serif" font-size="10.00">_scrn_explain.cpp</text>
</a>
</g>
</g>
<!-- Node1&#45;&gt;Node38 -->
<g id="edge37" class="edge">
<title>Node1&#45;&gt;Node38</title>
<path fill="none" stroke="#63b8ff" d="M2640.56,-146.08C2955.27,-146.13 4169.74,-143.19 4549.5,-96 4552.35,-95.65 4555.26,-95.22 4558.18,-94.74"/>
<polygon fill="#63b8ff" stroke="#63b8ff" points="2640.82,-142.58 2630.82,-146.08 2640.82,-149.58 2640.82,-142.58"/>
</g>
<!-- Node3 -->
<g id="node3" class="node">
<title>Node3</title>
<g id="a_node3"><a xlink:href="d__a__alink_8cpp.html" target="_top" xlink:title=" ">
<polygon fill="white" stroke="#666666" points="109,-24.5 0,-24.5 0,-5.5 109,-5.5 109,-24.5"/>
<text text-anchor="middle" x="54.5" y="-12.5" font-family="Helvetica,sans-Serif" font-size="10.00">src/d/a/d_a_alink.cpp</text>
</a>
</g>
</g>
<!-- Node2&#45;&gt;Node3 -->
<g id="edge2" class="edge">
<title>Node2&#45;&gt;Node3</title>
<path fill="none" stroke="#63b8ff" d="M432.22,-72.76C355.3,-64.3 227.59,-49.02 118.5,-30 110.21,-28.55 101.36,-26.78 92.98,-24.98"/>
<polygon fill="#63b8ff" stroke="#63b8ff" points="431.37,-76.19 441.69,-73.79 432.13,-69.23 431.37,-76.19"/>
</g>
<!-- Node4 -->
<g id="node4" class="node">
<title>Node4</title>
<g id="a_node4"><a xlink:href="d__a__player_8cpp.html" target="_top" xlink:title=" ">
<polygon fill="white" stroke="#666666" points="241.5,-24.5 127.5,-24.5 127.5,-5.5 241.5,-5.5 241.5,-24.5"/>
<text text-anchor="middle" x="184.5" y="-12.5" font-family="Helvetica,sans-Serif" font-size="10.00">src/d/a/d_a_player.cpp</text>
</a>
</g>
</g>
<!-- Node2&#45;&gt;Node4 -->
<g id="edge3" class="edge">
<title>Node2&#45;&gt;Node4</title>
<path fill="none" stroke="#63b8ff" d="M444.57,-68.87C393.67,-58.87 317.06,-43.69 250.5,-30 242.7,-28.4 234.38,-26.66 226.38,-24.97"/>
<polygon fill="#63b8ff" stroke="#63b8ff" points="443.69,-72.26 454.18,-70.75 445.04,-65.39 443.69,-72.26"/>
</g>
<!-- Node5 -->
<g id="node5" class="node">
<title>Node5</title>
<g id="a_node5"><a xlink:href="d__com__inf__game_8cpp.html" target="_top" xlink:title=" ">
<polygon fill="white" stroke="#666666" points="367.5,-30 259.5,-30 259.5,0 367.5,0 367.5,-30"/>
<text text-anchor="start" x="267.5" y="-18" font-family="Helvetica,sans-Serif" font-size="10.00">src/d/com/d_com_inf</text>
<text text-anchor="middle" x="313.5" y="-7" font-family="Helvetica,sans-Serif" font-size="10.00">_game.cpp</text>
</a>
</g>
</g>
<!-- Node2&#45;&gt;Node5 -->
<g id="edge4" class="edge">
<title>Node2&#45;&gt;Node5</title>
<path fill="none" stroke="#63b8ff" d="M464.53,-67.41C433.34,-56.8 388.69,-41.6 356.03,-30.48"/>
<polygon fill="#63b8ff" stroke="#63b8ff" points="463.33,-70.7 473.93,-70.61 465.59,-64.08 463.33,-70.7"/>
</g>
<!-- Node6 -->
<g id="node6" class="node">
<title>Node6</title>
<g id="a_node6"><a xlink:href="d__camera_8cpp.html" target="_top" xlink:title=" ">
<polygon fill="white" stroke="#666666" points="487.5,-24.5 385.5,-24.5 385.5,-5.5 487.5,-5.5 487.5,-24.5"/>
<text text-anchor="middle" x="436.5" y="-12.5" font-family="Helvetica,sans-Serif" font-size="10.00">src/d/d_camera.cpp</text>
</a>
</g>
</g>
<!-- Node2&#45;&gt;Node6 -->
<g id="edge5" class="edge">
<title>Node2&#45;&gt;Node6</title>
<path fill="none" stroke="#63b8ff" d="M484.57,-63.33C472.06,-51.02 455.52,-34.73 445.46,-24.82"/>
<polygon fill="#63b8ff" stroke="#63b8ff" points="481.8,-65.52 491.38,-70.04 486.71,-60.53 481.8,-65.52"/>
</g>
<!-- Node7 -->
<g id="node7" class="node">
<title>Node7</title>
<g id="a_node7"><a xlink:href="d__event_8cpp.html" target="_top" xlink:title=" ">
<polygon fill="white" stroke="#666666" points="627,-24.5 506,-24.5 506,-5.5 627,-5.5 627,-24.5"/>
<text text-anchor="middle" x="566.5" y="-12.5" font-family="Helvetica,sans-Serif" font-size="10.00">src/d/event/d_event.cpp</text>
</a>
</g>
</g>
<!-- Node2&#45;&gt;Node7 -->
<g id="edge6" class="edge">
<title>Node2&#45;&gt;Node7</title>
<path fill="none" stroke="#63b8ff" d="M518.43,-63.33C530.94,-51.02 547.48,-34.73 557.54,-24.82"/>
<polygon fill="#63b8ff" stroke="#63b8ff" points="516.29,-60.53 511.62,-70.04 521.2,-65.52 516.29,-60.53"/>
</g>
<!-- Node8 -->
<g id="node8" class="node">
<title>Node8</title>
<g id="a_node8"><a xlink:href="d__meter2__draw_8cpp.html" target="_top" xlink:title=" ">
<polygon fill="white" stroke="#666666" points="755.5,-30 645.5,-30 645.5,0 755.5,0 755.5,-30"/>
<text text-anchor="start" x="653.5" y="-18" font-family="Helvetica,sans-Serif" font-size="10.00">src/d/meter/d_meter2</text>
<text text-anchor="middle" x="700.5" y="-7" font-family="Helvetica,sans-Serif" font-size="10.00">_draw.cpp</text>
</a>
</g>
</g>
<!-- Node2&#45;&gt;Node8 -->
<g id="edge7" class="edge">
<title>Node2&#45;&gt;Node8</title>
<path fill="none" stroke="#63b8ff" d="M539.77,-67.69C572.82,-57.06 620.61,-41.69 655.48,-30.48"/>
<polygon fill="#63b8ff" stroke="#63b8ff" points="539.06,-64.24 530.61,-70.64 541.2,-70.91 539.06,-64.24"/>
</g>
<!-- Node9 -->
<g id="node9" class="node">
<title>Node9</title>
<g id="a_node9"><a xlink:href="d__msg__flow_8cpp.html" target="_top" xlink:title=" ">
<polygon fill="white" stroke="#666666" points="907,-24.5 774,-24.5 774,-5.5 907,-5.5 907,-24.5"/>
<text text-anchor="middle" x="840.5" y="-12.5" font-family="Helvetica,sans-Serif" font-size="10.00">src/d/msg/d_msg_flow.cpp</text>
</a>
</g>
</g>
<!-- Node2&#45;&gt;Node9 -->
<g id="edge8" class="edge">
<title>Node2&#45;&gt;Node9</title>
<path fill="none" stroke="#63b8ff" d="M555.37,-68.8C560.15,-67.84 564.91,-66.9 569.5,-66 574.95,-64.94 715.17,-39.09 791.71,-24.99"/>
<polygon fill="#63b8ff" stroke="#63b8ff" points="554.86,-65.33 545.76,-70.75 556.26,-72.19 554.86,-65.33"/>
</g>
<!-- Node10 -->
<g id="node10" class="node">
<title>Node10</title>
<g id="a_node10"><a xlink:href="f__op__actor_8cpp.html" target="_top" xlink:title=" ">
<polygon fill="white" stroke="#666666" points="1044,-24.5 925,-24.5 925,-5.5 1044,-5.5 1044,-24.5"/>
<text text-anchor="middle" x="984.5" y="-12.5" font-family="Helvetica,sans-Serif" font-size="10.00">src/f_op/f_op_actor.cpp</text>
</a>
</g>
</g>
<!-- Node2&#45;&gt;Node10 -->
<g id="edge9" class="edge">
<title>Node2&#45;&gt;Node10</title>
<path fill="none" stroke="#63b8ff" d="M552.53,-68.92C558.24,-67.85 563.98,-66.85 569.5,-66 722.73,-42.34 763.27,-53.66 916.5,-30 925.55,-28.6 935.22,-26.8 944.35,-24.96"/>
<polygon fill="#63b8ff" stroke="#63b8ff" points="552.28,-65.4 543.14,-70.75 553.62,-72.28 552.28,-65.4"/>
</g>
</g>
</svg>
