<?xml version="1.0" encoding="UTF-8" standalone="no"?>
<!DOCTYPE svg PUBLIC "-//W3C//DTD SVG 1.1//EN"
 "http://www.w3.org/Graphics/SVG/1.1/DTD/svg11.dtd">
<!-- Generated by graphviz version 7.0.5 (20221223.1930)
 -->
<!-- Title: include/d/pane/d_pane_class.h Pages: 1 -->
<svg width="2884pt" height="357pt"
 viewBox="0.00 0.00 2884.00 357.00" xmlns="http://www.w3.org/2000/svg" xmlns:xlink="http://www.w3.org/1999/xlink">
<g id="graph0" class="graph" transform="scale(1 1) rotate(0) translate(4 353)">
<title>include/d/pane/d_pane_class.h</title>
<!-- Node1 -->
<g id="node1" class="node">
<title>Node1</title>
<g id="a_node1"><a xlink:title=" ">
<polygon fill="#999999" stroke="#666666" points="1993,-349 1879,-349 1879,-319 1993,-319 1993,-349"/>
<text text-anchor="start" x="1887" y="-337" font-family="Helvetica,sans-Serif" font-size="10.00">include/d/pane/d_pane</text>
<text text-anchor="middle" x="1936" y="-326" font-family="Helvetica,sans-Serif" font-size="10.00">_class.h</text>
</a>
</g>
</g>
<!-- Node2 -->
<g id="node2" class="node">
<title>Node2</title>
<g id="a_node2"><a xlink:href="d__scope_8h.html" target="_top" xlink:title=" ">
<polygon fill="white" stroke="#666666" points="1048.5,-277.5 945.5,-277.5 945.5,-258.5 1048.5,-258.5 1048.5,-277.5"/>
<text text-anchor="middle" x="997" y="-265.5" font-family="Helvetica,sans-Serif" font-size="10.00">include/d/d_scope.h</text>
</a>
</g>
</g>
<!-- Node1&#45;&gt;Node2 -->
<g id="edge1" class="edge">
<title>Node1&#45;&gt;Node2</title>
<path fill="none" stroke="#63b8ff" d="M1867.43,-328.45C1736.65,-319.75 1442.54,-300.1 1195,-283 1145.32,-279.57 1088.64,-275.55 1048.69,-272.7"/>
<polygon fill="#63b8ff" stroke="#63b8ff" points="1867.1,-331.93 1877.31,-329.1 1867.56,-324.95 1867.1,-331.93"/>
</g>
<!-- Node5 -->
<g id="node5" class="node">
<title>Node5</title>
<g id="a_node5"><a xlink:href="d__select__icon_8h.html" target="_top" xlink:title=" ">
<polygon fill="white" stroke="#666666" points="1299.5,-283 1204.5,-283 1204.5,-253 1299.5,-253 1299.5,-283"/>
<text text-anchor="start" x="1212.5" y="-271" font-family="Helvetica,sans-Serif" font-size="10.00">include/d/d_select</text>
<text text-anchor="middle" x="1252" y="-260" font-family="Helvetica,sans-Serif" font-size="10.00">_icon.h</text>
</a>
</g>
</g>
<!-- Node1&#45;&gt;Node5 -->
<g id="edge4" class="edge">
<title>Node1&#45;&gt;Node5</title>
<path fill="none" stroke="#63b8ff" d="M1867.36,-329.73C1754.18,-323.82 1521.46,-309.43 1326,-283 1317.45,-281.84 1308.39,-280.35 1299.65,-278.78"/>
<polygon fill="#63b8ff" stroke="#63b8ff" points="1866.92,-333.21 1877.08,-330.23 1867.28,-326.22 1866.92,-333.21"/>
</g>
<!-- Node17 -->
<g id="node17" class="node">
<title>Node17</title>
<g id="a_node17"><a xlink:href="d__menu__collect_8cpp.html" target="_top" xlink:title=" ">
<polygon fill="white" stroke="#666666" points="1952.5,-145.5 1797.5,-145.5 1797.5,-126.5 1952.5,-126.5 1952.5,-145.5"/>
<text text-anchor="middle" x="1875" y="-133.5" font-family="Helvetica,sans-Serif" font-size="10.00">src/d/menu/d_menu_collect.cpp</text>
</a>
</g>
</g>
<!-- Node1&#45;&gt;Node17 -->
<g id="edge27" class="edge">
<title>Node1&#45;&gt;Node17</title>
<path fill="none" stroke="#63b8ff" d="M1867.12,-332.14C1721.46,-329.59 1392.75,-319.8 1359,-283 1349.99,-273.17 1350.67,-263.41 1359,-253 1373.86,-234.43 1702.85,-169.9 1827.61,-146"/>
<polygon fill="#63b8ff" stroke="#63b8ff" points="1866.97,-335.63 1877.03,-332.3 1867.09,-328.63 1866.97,-335.63"/>
</g>
<!-- Node25 -->
<g id="node25" class="node">
<title>Node25</title>
<g id="a_node25"><a xlink:href="d__a__alink_8cpp.html" target="_top" xlink:title=" ">
<polygon fill="white" stroke="#666666" points="1477.5,-277.5 1368.5,-277.5 1368.5,-258.5 1477.5,-258.5 1477.5,-277.5"/>
<text text-anchor="middle" x="1423" y="-265.5" font-family="Helvetica,sans-Serif" font-size="10.00">src/d/a/d_a_alink.cpp</text>
</a>
</g>
</g>
<!-- Node1&#45;&gt;Node25 -->
<g id="edge24" class="edge">
<title>Node1&#45;&gt;Node25</title>
<path fill="none" stroke="#63b8ff" d="M1867.31,-327.69C1778.79,-320.32 1620.27,-305.31 1486,-283 1477.6,-281.6 1468.63,-279.8 1460.18,-277.96"/>
<polygon fill="#63b8ff" stroke="#63b8ff" points="1866.78,-331.16 1877.04,-328.49 1867.36,-324.18 1866.78,-331.16"/>
</g>
<!-- Node26 -->
<g id="node26" class="node">
<title>Node26</title>
<g id="a_node26"><a xlink:href="d__kantera__icon__meter_8cpp.html" target="_top" xlink:title=" ">
<polygon fill="white" stroke="#666666" points="1602.5,-283 1495.5,-283 1495.5,-253 1602.5,-253 1602.5,-283"/>
<text text-anchor="start" x="1503.5" y="-271" font-family="Helvetica,sans-Serif" font-size="10.00">src/d/d_kantera_icon</text>
<text text-anchor="middle" x="1549" y="-260" font-family="Helvetica,sans-Serif" font-size="10.00">_meter.cpp</text>
</a>
</g>
</g>
<!-- Node1&#45;&gt;Node26 -->
<g id="edge25" class="edge">
<title>Node1&#45;&gt;Node26</title>
<path fill="none" stroke="#63b8ff" d="M1867.49,-323.87C1801.55,-314.75 1699.15,-299.71 1611,-283 1608.29,-282.49 1605.52,-281.94 1602.72,-281.37"/>
<polygon fill="#63b8ff" stroke="#63b8ff" points="1866.67,-327.29 1877.05,-325.18 1867.63,-320.35 1866.67,-327.29"/>
</g>
<!-- Node27 -->
<g id="node27" class="node">
<title>Node27</title>
<g id="a_node27"><a xlink:href="d__file__sel__info_8cpp.html" target="_top" xlink:title=" ">
<polygon fill="white" stroke="#666666" points="1717.5,-283 1620.5,-283 1620.5,-253 1717.5,-253 1717.5,-283"/>
<text text-anchor="start" x="1628.5" y="-271" font-family="Helvetica,sans-Serif" font-size="10.00">src/d/file/d_file_sel</text>
<text text-anchor="middle" x="1669" y="-260" font-family="Helvetica,sans-Serif" font-size="10.00">_info.cpp</text>
</a>
</g>
</g>
<!-- Node1&#45;&gt;Node27 -->
<g id="edge26" class="edge">
<title>Node1&#45;&gt;Node27</title>
<path fill="none" stroke="#63b8ff" d="M1867.6,-316.67C1826.78,-306.92 1773.92,-294.27 1727,-283 1723.98,-282.27 1720.87,-281.53 1717.73,-280.77"/>
<polygon fill="#63b8ff" stroke="#63b8ff" points="1866.76,-320.07 1877.3,-318.99 1868.39,-313.26 1866.76,-320.07"/>
</g>
<!-- Node28 -->
<g id="node28" class="node">
<title>Node28</title>
<g id="a_node28"><a xlink:href="d__meter2__draw_8cpp.html" target="_top" xlink:title=" ">
<polygon fill="white" stroke="#666666" points="1846,-283 1736,-283 1736,-253 1846,-253 1846,-283"/>
<text text-anchor="start" x="1744" y="-271" font-family="Helvetica,sans-Serif" font-size="10.00">src/d/meter/d_meter2</text>
<text text-anchor="middle" x="1791" y="-260" font-family="Helvetica,sans-Serif" font-size="10.00">_draw.cpp</text>
</a>
</g>
</g>
<!-- Node1&#45;&gt;Node28 -->
<g id="edge28" class="edge">
<title>Node1&#45;&gt;Node28</title>
<path fill="none" stroke="#63b8ff" d="M1892.97,-314.01C1870.78,-304.22 1844.16,-292.46 1823.68,-283.43"/>
<polygon fill="#63b8ff" stroke="#63b8ff" points="1891.51,-317.19 1902.07,-318.03 1894.34,-310.79 1891.51,-317.19"/>
</g>
<!-- Node29 -->
<g id="node29" class="node">
<title>Node29</title>
<g id="a_node29"><a xlink:href="d__pane__class_8cpp.html" target="_top" xlink:title=" ">
<polygon fill="white" stroke="#666666" points="2007.5,-277.5 1864.5,-277.5 1864.5,-258.5 2007.5,-258.5 2007.5,-277.5"/>
<text text-anchor="middle" x="1936" y="-265.5" font-family="Helvetica,sans-Serif" font-size="10.00">src/d/pane/d_pane_class.cpp</text>
</a>
</g>
</g>
<!-- Node1&#45;&gt;Node29 -->
<g id="edge29" class="edge">
<title>Node1&#45;&gt;Node29</title>
<path fill="none" stroke="#63b8ff" d="M1936,-307.59C1936,-297.06 1936,-285.53 1936,-277.84"/>
<polygon fill="#63b8ff" stroke="#63b8ff" points="1932.5,-307.28 1936,-317.28 1939.5,-307.28 1932.5,-307.28"/>
</g>
<!-- Node30 -->
<g id="node30" class="node">
<title>Node30</title>
<g id="a_node30"><a xlink:href="d__msg__scrn__arrow_8cpp.html" target="_top" xlink:title=" ">
<polygon fill="white" stroke="#666666" points="2132,-283 2026,-283 2026,-253 2132,-253 2132,-283"/>
<text text-anchor="start" x="2034" y="-271" font-family="Helvetica,sans-Serif" font-size="10.00">src/msg/scrn/d_msg</text>
<text text-anchor="middle" x="2079" y="-260" font-family="Helvetica,sans-Serif" font-size="10.00">_scrn_arrow.cpp</text>
</a>
</g>
</g>
<!-- Node1&#45;&gt;Node30 -->
<g id="edge30" class="edge">
<title>Node1&#45;&gt;Node30</title>
<path fill="none" stroke="#63b8ff" d="M1978.47,-313.99C2000.44,-304.16 2026.8,-292.36 2047.02,-283.31"/>
<polygon fill="#63b8ff" stroke="#63b8ff" points="1977.17,-310.74 1969.47,-318.02 1980.03,-317.13 1977.17,-310.74"/>
</g>
<!-- Node31 -->
<g id="node31" class="node">
<title>Node31</title>
<g id="a_node31"><a xlink:href="d__msg__scrn__base_8cpp.html" target="_top" xlink:title=" ">
<polygon fill="white" stroke="#666666" points="2256,-283 2150,-283 2150,-253 2256,-253 2256,-283"/>
<text text-anchor="start" x="2158" y="-271" font-family="Helvetica,sans-Serif" font-size="10.00">src/msg/scrn/d_msg</text>
<text text-anchor="middle" x="2203" y="-260" font-family="Helvetica,sans-Serif" font-size="10.00">_scrn_base.cpp</text>
</a>
</g>
</g>
<!-- Node1&#45;&gt;Node31 -->
<g id="edge31" class="edge">
<title>Node1&#45;&gt;Node31</title>
<path fill="none" stroke="#63b8ff" d="M2004.19,-316.65C2049.48,-305.8 2108.08,-291.75 2149.9,-281.73"/>
<polygon fill="#63b8ff" stroke="#63b8ff" points="2003.66,-313.18 1994.75,-318.92 2005.29,-319.99 2003.66,-313.18"/>
</g>
<!-- Node32 -->
<g id="node32" class="node">
<title>Node32</title>
<g id="a_node32"><a xlink:href="d__msg__scrn__boss_8cpp.html" target="_top" xlink:title=" ">
<polygon fill="white" stroke="#666666" points="2380,-283 2274,-283 2274,-253 2380,-253 2380,-283"/>
<text text-anchor="start" x="2282" y="-271" font-family="Helvetica,sans-Serif" font-size="10.00">src/msg/scrn/d_msg</text>
<text text-anchor="middle" x="2327" y="-260" font-family="Helvetica,sans-Serif" font-size="10.00">_scrn_boss.cpp</text>
</a>
</g>
</g>
<!-- Node1&#45;&gt;Node32 -->
<g id="edge32" class="edge">
<title>Node1&#45;&gt;Node32</title>
<path fill="none" stroke="#63b8ff" d="M2004.46,-324.04C2071.18,-314.98 2175.37,-299.91 2265,-283 2267.82,-282.47 2270.71,-281.9 2273.62,-281.31"/>
<polygon fill="#63b8ff" stroke="#63b8ff" points="2004.21,-320.55 1994.77,-325.35 2005.15,-327.48 2004.21,-320.55"/>
</g>
<!-- Node33 -->
<g id="node33" class="node">
<title>Node33</title>
<g id="a_node33"><a xlink:href="d__msg__scrn__explain_8cpp.html" target="_top" xlink:title=" ">
<polygon fill="white" stroke="#666666" points="2504,-283 2398,-283 2398,-253 2504,-253 2504,-283"/>
<text text-anchor="start" x="2406" y="-271" font-family="Helvetica,sans-Serif" font-size="10.00">src/msg/scrn/d_msg</text>
<text text-anchor="middle" x="2451" y="-260" font-family="Helvetica,sans-Serif" font-size="10.00">_scrn_explain.cpp</text>
</a>
</g>
</g>
<!-- Node1&#45;&gt;Node33 -->
<g id="edge33" class="edge">
<title>Node1&#45;&gt;Node33</title>
<path fill="none" stroke="#63b8ff" d="M2004.79,-327.82C2093.85,-320.57 2253.69,-305.67 2389,-283 2391.83,-282.53 2394.72,-282 2397.64,-281.45"/>
<polygon fill="#63b8ff" stroke="#63b8ff" points="2004.69,-324.32 1995,-328.61 2005.25,-331.3 2004.69,-324.32"/>
</g>
<!-- Node34 -->
<g id="node34" class="node">
<title>Node34</title>
<g id="a_node34"><a xlink:href="d__msg__scrn__place_8cpp.html" target="_top" xlink:title=" ">
<polygon fill="white" stroke="#666666" points="2628,-283 2522,-283 2522,-253 2628,-253 2628,-283"/>
<text text-anchor="start" x="2530" y="-271" font-family="Helvetica,sans-Serif" font-size="10.00">src/msg/scrn/d_msg</text>
<text text-anchor="middle" x="2575" y="-260" font-family="Helvetica,sans-Serif" font-size="10.00">_scrn_place.cpp</text>
</a>
</g>
</g>
<!-- Node1&#45;&gt;Node34 -->
<g id="edge34" class="edge">
<title>Node1&#45;&gt;Node34</title>
<path fill="none" stroke="#63b8ff" d="M2004.64,-330.07C2113.13,-324.76 2330.62,-311.36 2513,-283 2515.84,-282.56 2518.73,-282.06 2521.65,-281.53"/>
<polygon fill="#63b8ff" stroke="#63b8ff" points="2004.56,-326.57 1994.74,-330.54 2004.9,-333.56 2004.56,-326.57"/>
</g>
<!-- Node35 -->
<g id="node35" class="node">
<title>Node35</title>
<g id="a_node35"><a xlink:href="d__msg__scrn__staff_8cpp.html" target="_top" xlink:title=" ">
<polygon fill="white" stroke="#666666" points="2752,-283 2646,-283 2646,-253 2752,-253 2752,-283"/>
<text text-anchor="start" x="2654" y="-271" font-family="Helvetica,sans-Serif" font-size="10.00">src/msg/scrn/d_msg</text>
<text text-anchor="middle" x="2699" y="-260" font-family="Helvetica,sans-Serif" font-size="10.00">_scrn_staff.cpp</text>
</a>
</g>
</g>
<!-- Node1&#45;&gt;Node35 -->
<g id="edge35" class="edge">
<title>Node1&#45;&gt;Node35</title>
<path fill="none" stroke="#63b8ff" d="M2004.45,-331.54C2130.31,-328.1 2406.71,-317.01 2637,-283 2639.84,-282.58 2642.74,-282.1 2645.66,-281.58"/>
<polygon fill="#63b8ff" stroke="#63b8ff" points="2004.52,-328.04 1994.62,-331.8 2004.71,-335.04 2004.52,-328.04"/>
</g>
<!-- Node36 -->
<g id="node36" class="node">
<title>Node36</title>
<g id="a_node36"><a xlink:href="d__msg__scrn__tree_8cpp.html" target="_top" xlink:title=" ">
<polygon fill="white" stroke="#666666" points="2876,-283 2770,-283 2770,-253 2876,-253 2876,-283"/>
<text text-anchor="start" x="2778" y="-271" font-family="Helvetica,sans-Serif" font-size="10.00">src/msg/scrn/d_msg</text>
<text text-anchor="middle" x="2823" y="-260" font-family="Helvetica,sans-Serif" font-size="10.00">_scrn_tree.cpp</text>
</a>
</g>
</g>
<!-- Node1&#45;&gt;Node36 -->
<g id="edge36" class="edge">
<title>Node1&#45;&gt;Node36</title>
<path fill="none" stroke="#63b8ff" d="M2004.42,-332.58C2146.24,-330.89 2482.29,-322.65 2761,-283 2763.84,-282.6 2766.74,-282.13 2769.67,-281.62"/>
<polygon fill="#63b8ff" stroke="#63b8ff" points="2004.81,-329.08 1994.84,-332.69 2004.88,-336.08 2004.81,-329.08"/>
</g>
<!-- Node3 -->
<g id="node3" class="node">
<title>Node3</title>
<g id="a_node3"><a xlink:href="d__scope_8cpp.html" target="_top" xlink:title=" ">
<polygon fill="white" stroke="#666666" points="915,-211.5 819,-211.5 819,-192.5 915,-192.5 915,-211.5"/>
<text text-anchor="middle" x="867" y="-199.5" font-family="Helvetica,sans-Serif" font-size="10.00">src/d/d_scope.cpp</text>
</a>
</g>
</g>
<!-- Node2&#45;&gt;Node3 -->
<g id="edge2" class="edge">
<title>Node2&#45;&gt;Node3</title>
<path fill="none" stroke="#63b8ff" d="M968.77,-253.1C943.29,-240.56 906.58,-222.49 884.92,-211.82"/>
<polygon fill="#63b8ff" stroke="#63b8ff" points="967.05,-256.16 977.57,-257.43 970.14,-249.88 967.05,-256.16"/>
</g>
<!-- Node4 -->
<g id="node4" class="node">
<title>Node4</title>
<g id="a_node4"><a xlink:href="d__meter2_8cpp.html" target="_top" xlink:title=" ">
<polygon fill="white" stroke="#666666" points="1061,-211.5 933,-211.5 933,-192.5 1061,-192.5 1061,-211.5"/>
<text text-anchor="middle" x="997" y="-199.5" font-family="Helvetica,sans-Serif" font-size="10.00">src/d/meter/d_meter2.cpp</text>
</a>
</g>
</g>
<!-- Node2&#45;&gt;Node4 -->
<g id="edge3" class="edge">
<title>Node2&#45;&gt;Node4</title>
<path fill="none" stroke="#63b8ff" d="M997,-246.68C997,-234.94 997,-220.77 997,-211.82"/>
<polygon fill="#63b8ff" stroke="#63b8ff" points="993.5,-246.59 997,-256.59 1000.5,-246.59 993.5,-246.59"/>
</g>
<!-- Node6 -->
<g id="node6" class="node">
<title>Node6</title>
<g id="a_node6"><a xlink:href="d__select__cursor_8h.html" target="_top" xlink:title=" ">
<polygon fill="white" stroke="#666666" points="1174.5,-217 1079.5,-217 1079.5,-187 1174.5,-187 1174.5,-217"/>
<text text-anchor="start" x="1087.5" y="-205" font-family="Helvetica,sans-Serif" font-size="10.00">include/d/d_select</text>
<text text-anchor="middle" x="1127" y="-194" font-family="Helvetica,sans-Serif" font-size="10.00">_cursor.h</text>
</a>
</g>
</g>
<!-- Node5&#45;&gt;Node6 -->
<g id="edge5" class="edge">
<title>Node5&#45;&gt;Node6</title>
<path fill="none" stroke="#63b8ff" d="M1213.82,-247.45C1194.84,-237.73 1172.31,-226.2 1154.96,-217.31"/>
<polygon fill="#63b8ff" stroke="#63b8ff" points="1212.1,-250.51 1222.6,-251.95 1215.29,-244.27 1212.1,-250.51"/>
</g>
<!-- Node24 -->
<g id="node24" class="node">
<title>Node24</title>
<g id="a_node24"><a xlink:href="d__select__icon_8cpp.html" target="_top" xlink:title=" ">
<polygon fill="white" stroke="#666666" points="1311.5,-211.5 1192.5,-211.5 1192.5,-192.5 1311.5,-192.5 1311.5,-211.5"/>
<text text-anchor="middle" x="1252" y="-199.5" font-family="Helvetica,sans-Serif" font-size="10.00">src/d/d_select_icon.cpp</text>
</a>
</g>
</g>
<!-- Node5&#45;&gt;Node24 -->
<g id="edge23" class="edge">
<title>Node5&#45;&gt;Node24</title>
<path fill="none" stroke="#63b8ff" d="M1252,-241.59C1252,-231.06 1252,-219.53 1252,-211.84"/>
<polygon fill="#63b8ff" stroke="#63b8ff" points="1248.5,-241.28 1252,-251.28 1255.5,-241.28 1248.5,-241.28"/>
</g>
<!-- Node7 -->
<g id="node7" class="node">
<title>Node7</title>
<g id="a_node7"><a xlink:href="d__name_8h.html" target="_top" xlink:title=" ">
<polygon fill="white" stroke="#666666" points="227.5,-145.5 126.5,-145.5 126.5,-126.5 227.5,-126.5 227.5,-145.5"/>
<text text-anchor="middle" x="177" y="-133.5" font-family="Helvetica,sans-Serif" font-size="10.00">include/d/d_name.h</text>
</a>
</g>
</g>
<!-- Node6&#45;&gt;Node7 -->
<g id="edge6" class="edge">
<title>Node6&#45;&gt;Node7</title>
<path fill="none" stroke="#63b8ff" d="M1068.09,-186.95C743.54,-140.43 656.49,-173.41 333,-151 297.87,-148.57 258.36,-145.01 227.9,-142.09"/>
<polygon fill="#63b8ff" stroke="#63b8ff" points="1067.34,-190.38 1077.74,-188.35 1068.35,-183.45 1067.34,-190.38"/>
</g>
<!-- Node11 -->
<g id="node11" class="node">
<title>Node11</title>
<g id="a_node11"><a xlink:href="d__menu__dmap_8h.html" target="_top" xlink:title=" ">
<polygon fill="white" stroke="#666666" points="462,-151 342,-151 342,-121 462,-121 462,-151"/>
<text text-anchor="start" x="350" y="-139" font-family="Helvetica,sans-Serif" font-size="10.00">include/d/menu/d_menu</text>
<text text-anchor="middle" x="402" y="-128" font-family="Helvetica,sans-Serif" font-size="10.00">_dmap.h</text>
</a>
</g>
</g>
<!-- Node6&#45;&gt;Node11 -->
<g id="edge10" class="edge">
<title>Node6&#45;&gt;Node11</title>
<path fill="none" stroke="#63b8ff" d="M1068.15,-186.94C804.34,-148.07 731.83,-185.13 471,-151 468.09,-150.62 465.12,-150.19 462.13,-149.72"/>
<polygon fill="#63b8ff" stroke="#63b8ff" points="1067.33,-190.36 1077.73,-188.38 1068.36,-183.44 1067.33,-190.36"/>
</g>
<!-- Node15 -->
<g id="node15" class="node">
<title>Node15</title>
<g id="a_node15"><a xlink:href="d__select__cursor_8cpp.html" target="_top" xlink:title=" ">
<polygon fill="white" stroke="#666666" points="608,-145.5 480,-145.5 480,-126.5 608,-126.5 608,-145.5"/>
<text text-anchor="middle" x="544" y="-133.5" font-family="Helvetica,sans-Serif" font-size="10.00">src/d/d_select_cursor.cpp</text>
</a>
</g>
</g>
<!-- Node6&#45;&gt;Node15 -->
<g id="edge14" class="edge">
<title>Node6&#45;&gt;Node15</title>
<path fill="none" stroke="#63b8ff" d="M1068.06,-186.89C868.63,-155.63 813.53,-177.57 617,-151 607.03,-149.65 596.35,-147.82 586.33,-145.94"/>
<polygon fill="#63b8ff" stroke="#63b8ff" points="1067.3,-190.31 1077.73,-188.43 1068.4,-183.4 1067.3,-190.31"/>
</g>
<!-- Node16 -->
<g id="node16" class="node">
<title>Node16</title>
<g id="a_node16"><a xlink:href="d__menu__calibration_8cpp.html" target="_top" xlink:title=" ">
<polygon fill="white" stroke="#666666" points="796,-145.5 626,-145.5 626,-126.5 796,-126.5 796,-145.5"/>
<text text-anchor="middle" x="711" y="-133.5" font-family="Helvetica,sans-Serif" font-size="10.00">src/d/menu/d_menu_calibration.cpp</text>
</a>
</g>
</g>
<!-- Node6&#45;&gt;Node16 -->
<g id="edge15" class="edge">
<title>Node6&#45;&gt;Node16</title>
<path fill="none" stroke="#63b8ff" d="M1068,-186.75C951.3,-164.95 919.11,-167.25 805,-151 793.81,-149.41 781.88,-147.66 770.4,-145.97"/>
<polygon fill="#63b8ff" stroke="#63b8ff" points="1067.22,-190.17 1077.7,-188.59 1068.52,-183.29 1067.22,-190.17"/>
</g>
<!-- Node6&#45;&gt;Node17 -->
<g id="edge16" class="edge">
<title>Node6&#45;&gt;Node17</title>
<path fill="none" stroke="#63b8ff" d="M1185.98,-186.73C1451.23,-147.08 1523.91,-180.03 1788,-151 1800.01,-149.68 1812.9,-147.84 1824.97,-145.93"/>
<polygon fill="#63b8ff" stroke="#63b8ff" points="1185.7,-183.23 1176.34,-188.19 1186.75,-190.15 1185.7,-183.23"/>
</g>
<!-- Node18 -->
<g id="node18" class="node">
<title>Node18</title>
<g id="a_node18"><a xlink:href="d__menu__insect_8cpp.html" target="_top" xlink:title=" ">
<polygon fill="white" stroke="#666666" points="966,-145.5 814,-145.5 814,-126.5 966,-126.5 966,-145.5"/>
<text text-anchor="middle" x="890" y="-133.5" font-family="Helvetica,sans-Serif" font-size="10.00">src/d/menu/d_menu_insect.cpp</text>
</a>
</g>
</g>
<!-- Node6&#45;&gt;Node18 -->
<g id="edge17" class="edge">
<title>Node6&#45;&gt;Node18</title>
<path fill="none" stroke="#63b8ff" d="M1068.07,-185.09C1022.29,-172.72 960.48,-156.03 923.03,-145.92"/>
<polygon fill="#63b8ff" stroke="#63b8ff" points="1067.01,-188.43 1077.58,-187.65 1068.84,-181.67 1067.01,-188.43"/>
</g>
<!-- Node19 -->
<g id="node19" class="node">
<title>Node19</title>
<g id="a_node19"><a xlink:href="d__menu__map__common_8cpp.html" target="_top" xlink:title=" ">
<polygon fill="white" stroke="#666666" points="1111.5,-151 984.5,-151 984.5,-121 1111.5,-121 1111.5,-151"/>
<text text-anchor="start" x="992.5" y="-139" font-family="Helvetica,sans-Serif" font-size="10.00">src/d/menu/d_menu_map</text>
<text text-anchor="middle" x="1048" y="-128" font-family="Helvetica,sans-Serif" font-size="10.00">_common.cpp</text>
</a>
</g>
</g>
<!-- Node6&#45;&gt;Node19 -->
<g id="edge18" class="edge">
<title>Node6&#45;&gt;Node19</title>
<path fill="none" stroke="#63b8ff" d="M1100.71,-179.7C1089.22,-170.4 1076.06,-159.73 1065.76,-151.39"/>
<polygon fill="#63b8ff" stroke="#63b8ff" points="1098.32,-182.27 1108.29,-185.84 1102.72,-176.83 1098.32,-182.27"/>
</g>
<!-- Node20 -->
<g id="node20" class="node">
<title>Node20</title>
<g id="a_node20"><a xlink:href="d__menu__option_8cpp.html" target="_top" xlink:title=" ">
<polygon fill="white" stroke="#666666" points="1282,-145.5 1130,-145.5 1130,-126.5 1282,-126.5 1282,-145.5"/>
<text text-anchor="middle" x="1206" y="-133.5" font-family="Helvetica,sans-Serif" font-size="10.00">src/d/menu/d_menu_option.cpp</text>
</a>
</g>
</g>
<!-- Node6&#45;&gt;Node20 -->
<g id="edge19" class="edge">
<title>Node6&#45;&gt;Node20</title>
<path fill="none" stroke="#63b8ff" d="M1153.41,-179.6C1167.62,-168.1 1184.37,-154.52 1195.08,-145.84"/>
<polygon fill="#63b8ff" stroke="#63b8ff" points="1151.28,-176.83 1145.71,-185.84 1155.68,-182.27 1151.28,-176.83"/>
</g>
<!-- Node21 -->
<g id="node21" class="node">
<title>Node21</title>
<g id="a_node21"><a xlink:href="d__menu__save_8cpp.html" target="_top" xlink:title=" ">
<polygon fill="white" stroke="#666666" points="1447.5,-145.5 1300.5,-145.5 1300.5,-126.5 1447.5,-126.5 1447.5,-145.5"/>
<text text-anchor="middle" x="1374" y="-133.5" font-family="Helvetica,sans-Serif" font-size="10.00">src/d/menu/d_menu_save.cpp</text>
</a>
</g>
</g>
<!-- Node6&#45;&gt;Node21 -->
<g id="edge20" class="edge">
<title>Node6&#45;&gt;Node21</title>
<path fill="none" stroke="#63b8ff" d="M1186.05,-185.7C1233.89,-173.3 1299.64,-156.27 1339.35,-145.98"/>
<polygon fill="#63b8ff" stroke="#63b8ff" points="1185.18,-182.31 1176.38,-188.2 1186.94,-189.08 1185.18,-182.31"/>
</g>
<!-- Node22 -->
<g id="node22" class="node">
<title>Node22</title>
<g id="a_node22"><a xlink:href="d__menu__skill_8cpp.html" target="_top" xlink:title=" ">
<polygon fill="white" stroke="#666666" points="1608.5,-145.5 1465.5,-145.5 1465.5,-126.5 1608.5,-126.5 1608.5,-145.5"/>
<text text-anchor="middle" x="1537" y="-133.5" font-family="Helvetica,sans-Serif" font-size="10.00">src/d/menu/d_menu_skill.cpp</text>
</a>
</g>
</g>
<!-- Node6&#45;&gt;Node22 -->
<g id="edge21" class="edge">
<title>Node6&#45;&gt;Node22</title>
<path fill="none" stroke="#63b8ff" d="M1185.92,-186.57C1305.17,-164.41 1338.56,-168.89 1456,-151 1466.02,-149.47 1476.71,-147.72 1486.93,-145.98"/>
<polygon fill="#63b8ff" stroke="#63b8ff" points="1185.55,-183.08 1176.37,-188.37 1186.84,-189.96 1185.55,-183.08"/>
</g>
<!-- Node23 -->
<g id="node23" class="node">
<title>Node23</title>
<g id="a_node23"><a xlink:href="d__shop__system_8cpp.html" target="_top" xlink:title=" ">
<polygon fill="white" stroke="#666666" points="1779,-145.5 1627,-145.5 1627,-126.5 1779,-126.5 1779,-145.5"/>
<text text-anchor="middle" x="1703" y="-133.5" font-family="Helvetica,sans-Serif" font-size="10.00">src/d/shop/d_shop_system.cpp</text>
</a>
</g>
</g>
<!-- Node6&#45;&gt;Node23 -->
<g id="edge22" class="edge">
<title>Node6&#45;&gt;Node23</title>
<path fill="none" stroke="#63b8ff" d="M1186.07,-186.66C1375.95,-156.14 1428.55,-174.12 1617,-151 1628.41,-149.6 1640.63,-147.8 1652.16,-145.95"/>
<polygon fill="#63b8ff" stroke="#63b8ff" points="1185.65,-183.18 1176.35,-188.25 1186.78,-190.09 1185.65,-183.18"/>
</g>
<!-- Node8 -->
<g id="node8" class="node">
<title>Node8</title>
<g id="a_node8"><a xlink:href="d__file__select_8h.html" target="_top" xlink:title=" ">
<polygon fill="white" stroke="#666666" points="112,-85 16,-85 16,-55 112,-55 112,-85"/>
<text text-anchor="start" x="24" y="-73" font-family="Helvetica,sans-Serif" font-size="10.00">include/d/file/d_file</text>
<text text-anchor="middle" x="64" y="-62" font-family="Helvetica,sans-Serif" font-size="10.00">_select.h</text>
</a>
</g>
</g>
<!-- Node7&#45;&gt;Node8 -->
<g id="edge7" class="edge">
<title>Node7&#45;&gt;Node8</title>
<path fill="none" stroke="#63b8ff" d="M151.49,-120.55C132.99,-110.08 108.07,-95.96 89.56,-85.48"/>
<polygon fill="#63b8ff" stroke="#63b8ff" points="149.54,-123.47 159.97,-125.36 152.99,-117.38 149.54,-123.47"/>
</g>
<!-- Node10 -->
<g id="node10" class="node">
<title>Node10</title>
<g id="a_node10"><a xlink:href="d__name_8cpp.html" target="_top" xlink:title=" ">
<polygon fill="white" stroke="#666666" points="224,-79.5 130,-79.5 130,-60.5 224,-60.5 224,-79.5"/>
<text text-anchor="middle" x="177" y="-67.5" font-family="Helvetica,sans-Serif" font-size="10.00">src/d/d_name.cpp</text>
</a>
</g>
</g>
<!-- Node7&#45;&gt;Node10 -->
<g id="edge9" class="edge">
<title>Node7&#45;&gt;Node10</title>
<path fill="none" stroke="#63b8ff" d="M177,-114.68C177,-102.94 177,-88.77 177,-79.82"/>
<polygon fill="#63b8ff" stroke="#63b8ff" points="173.5,-114.59 177,-124.59 180.5,-114.59 173.5,-114.59"/>
</g>
<!-- Node9 -->
<g id="node9" class="node">
<title>Node9</title>
<g id="a_node9"><a xlink:href="d__file__select_8cpp.html" target="_top" xlink:title=" ">
<polygon fill="white" stroke="#666666" points="128,-19 0,-19 0,0 128,0 128,-19"/>
<text text-anchor="middle" x="64" y="-7" font-family="Helvetica,sans-Serif" font-size="10.00">src/d/file/d_file_select.cpp</text>
</a>
</g>
</g>
<!-- Node8&#45;&gt;Node9 -->
<g id="edge8" class="edge">
<title>Node8&#45;&gt;Node9</title>
<path fill="none" stroke="#63b8ff" d="M64,-43.3C64,-34.65 64,-25.58 64,-19.18"/>
<polygon fill="#63b8ff" stroke="#63b8ff" points="60.5,-43.03 64,-53.03 67.5,-43.03 60.5,-43.03"/>
</g>
<!-- Node12 -->
<g id="node12" class="node">
<title>Node12</title>
<g id="a_node12"><a xlink:href="d__menu__dmap_8cpp.html" target="_top" xlink:title=" ">
<polygon fill="white" stroke="#666666" points="392,-79.5 242,-79.5 242,-60.5 392,-60.5 392,-79.5"/>
<text text-anchor="middle" x="317" y="-67.5" font-family="Helvetica,sans-Serif" font-size="10.00">src/d/menu/d_menu_dmap.cpp</text>
</a>
</g>
</g>
<!-- Node11&#45;&gt;Node12 -->
<g id="edge11" class="edge">
<title>Node11&#45;&gt;Node12</title>
<path fill="none" stroke="#63b8ff" d="M374.02,-113.93C358.64,-102.35 340.38,-88.61 328.75,-79.84"/>
<polygon fill="#63b8ff" stroke="#63b8ff" points="371.83,-116.67 381.93,-119.89 376.04,-111.07 371.83,-116.67"/>
</g>
<!-- Node13 -->
<g id="node13" class="node">
<title>Node13</title>
<g id="a_node13"><a xlink:href="d__menu__fishing_8cpp.html" target="_top" xlink:title=" ">
<polygon fill="white" stroke="#666666" points="564,-79.5 410,-79.5 410,-60.5 564,-60.5 564,-79.5"/>
<text text-anchor="middle" x="487" y="-67.5" font-family="Helvetica,sans-Serif" font-size="10.00">src/d/menu/d_menu_fishing.cpp</text>
</a>
</g>
</g>
<!-- Node11&#45;&gt;Node13 -->
<g id="edge12" class="edge">
<title>Node11&#45;&gt;Node13</title>
<path fill="none" stroke="#63b8ff" d="M429.98,-113.93C445.36,-102.35 463.62,-88.61 475.25,-79.84"/>
<polygon fill="#63b8ff" stroke="#63b8ff" points="427.96,-111.07 422.07,-119.89 432.17,-116.67 427.96,-111.07"/>
</g>
<!-- Node14 -->
<g id="node14" class="node">
<title>Node14</title>
<g id="a_node14"><a xlink:href="d__menu__window_8cpp.html" target="_top" xlink:title=" ">
<polygon fill="white" stroke="#666666" points="741.5,-79.5 582.5,-79.5 582.5,-60.5 741.5,-60.5 741.5,-79.5"/>
<text text-anchor="middle" x="662" y="-67.5" font-family="Helvetica,sans-Serif" font-size="10.00">src/d/menu/d_menu_window.cpp</text>
</a>
</g>
</g>
<!-- Node11&#45;&gt;Node14 -->
<g id="edge13" class="edge">
<title>Node11&#45;&gt;Node14</title>
<path fill="none" stroke="#63b8ff" d="M471.64,-117.86C521.21,-105.66 585.83,-89.75 625.59,-79.96"/>
<polygon fill="#63b8ff" stroke="#63b8ff" points="471.02,-114.41 462.14,-120.2 472.69,-121.2 471.02,-114.41"/>
</g>
</g>
</svg>
