<?xml version="1.0" encoding="UTF-8" standalone="no"?>
<!DOCTYPE svg PUBLIC "-//W3C//DTD SVG 1.1//EN"
 "http://www.w3.org/Graphics/SVG/1.1/DTD/svg11.dtd">
<!-- Generated by graphviz version 7.0.5 (20221223.1930)
 -->
<!-- Title: include/d/d_path.h Pages: 1 -->
<svg width="1706pt" height="236pt"
 viewBox="0.00 0.00 1706.00 236.00" xmlns="http://www.w3.org/2000/svg" xmlns:xlink="http://www.w3.org/1999/xlink">
<g id="graph0" class="graph" transform="scale(1 1) rotate(0) translate(4 232)">
<title>include/d/d_path.h</title>
<!-- Node1 -->
<g id="node1" class="node">
<title>Node1</title>
<g id="a_node1"><a xlink:title=" ">
<polygon fill="#999999" stroke="#666666" points="1210,-228 1115,-228 1115,-209 1210,-209 1210,-228"/>
<text text-anchor="middle" x="1162.5" y="-216" font-family="Helvetica,sans-Serif" font-size="10.00">include/d/d_path.h</text>
</a>
</g>
</g>
<!-- Node2 -->
<g id="node2" class="node">
<title>Node2</title>
<g id="a_node2"><a xlink:href="d__a__npc_8h.html" target="_top" xlink:title=" ">
<polygon fill="white" stroke="#666666" points="493,-162 382,-162 382,-143 493,-143 493,-162"/>
<text text-anchor="middle" x="437.5" y="-150" font-family="Helvetica,sans-Serif" font-size="10.00">include/d/a/d_a_npc.h</text>
</a>
</g>
</g>
<!-- Node1&#45;&gt;Node2 -->
<g id="edge1" class="edge">
<title>Node1&#45;&gt;Node2</title>
<path fill="none" stroke="#63b8ff" d="M1103.57,-212.3C966.4,-200.19 627.27,-170.25 493.27,-158.42"/>
<polygon fill="#63b8ff" stroke="#63b8ff" points="1102.87,-215.75 1113.14,-213.14 1103.49,-208.78 1102.87,-215.75"/>
</g>
<!-- Node9 -->
<g id="node9" class="node">
<title>Node9</title>
<g id="a_node9"><a xlink:href="d__a__spinner_8h.html" target="_top" xlink:title=" ">
<polygon fill="white" stroke="#666666" points="812.5,-167.5 696.5,-167.5 696.5,-137.5 812.5,-137.5 812.5,-167.5"/>
<text text-anchor="start" x="704.5" y="-155.5" font-family="Helvetica,sans-Serif" font-size="10.00">include/rel/d/a/d_a</text>
<text text-anchor="middle" x="754.5" y="-144.5" font-family="Helvetica,sans-Serif" font-size="10.00">_spinner/d_a_spinner.h</text>
</a>
</g>
</g>
<!-- Node1&#45;&gt;Node9 -->
<g id="edge8" class="edge">
<title>Node1&#45;&gt;Node9</title>
<path fill="none" stroke="#63b8ff" d="M1103.29,-212.55C1034.91,-206.2 919.27,-193.48 821.5,-173 814.74,-171.58 807.67,-169.83 800.76,-167.96"/>
<polygon fill="#63b8ff" stroke="#63b8ff" points="1102.89,-216.03 1113.16,-213.45 1103.52,-209.06 1102.89,-216.03"/>
</g>
<!-- Node13 -->
<g id="node13" class="node">
<title>Node13</title>
<g id="a_node13"><a xlink:href="d__a__e__yk_8h.html" target="_top" xlink:title=" ">
<polygon fill="white" stroke="#666666" points="934.5,-167.5 830.5,-167.5 830.5,-137.5 934.5,-137.5 934.5,-167.5"/>
<text text-anchor="start" x="838.5" y="-155.5" font-family="Helvetica,sans-Serif" font-size="10.00">include/rel/d/a/e/d</text>
<text text-anchor="middle" x="882.5" y="-144.5" font-family="Helvetica,sans-Serif" font-size="10.00">_a_e_yk/d_a_e_yk.h</text>
</a>
</g>
</g>
<!-- Node1&#45;&gt;Node13 -->
<g id="edge12" class="edge">
<title>Node1&#45;&gt;Node13</title>
<path fill="none" stroke="#63b8ff" d="M1103.59,-207.33C1059.27,-199.25 997.21,-187 943.5,-173 937.69,-171.49 931.62,-169.74 925.65,-167.94"/>
<polygon fill="#63b8ff" stroke="#63b8ff" points="1102.79,-210.74 1113.25,-209.08 1104.03,-203.85 1102.79,-210.74"/>
</g>
<!-- Node14 -->
<g id="node14" class="node">
<title>Node14</title>
<g id="a_node14"><a xlink:href="d__a__kytag06_8h.html" target="_top" xlink:title=" ">
<polygon fill="white" stroke="#666666" points="1092.5,-167.5 952.5,-167.5 952.5,-137.5 1092.5,-137.5 1092.5,-167.5"/>
<text text-anchor="start" x="960.5" y="-155.5" font-family="Helvetica,sans-Serif" font-size="10.00">include/rel/d/a/kytag</text>
<text text-anchor="middle" x="1022.5" y="-144.5" font-family="Helvetica,sans-Serif" font-size="10.00">/d_a_kytag06/d_a_kytag06.h</text>
</a>
</g>
</g>
<!-- Node1&#45;&gt;Node14 -->
<g id="edge13" class="edge">
<title>Node1&#45;&gt;Node14</title>
<path fill="none" stroke="#63b8ff" d="M1132.8,-203.92C1109.71,-193.37 1077.75,-178.76 1054.17,-167.98"/>
<polygon fill="#63b8ff" stroke="#63b8ff" points="1131.11,-207 1141.66,-207.97 1134.02,-200.63 1131.11,-207"/>
</g>
<!-- Node15 -->
<g id="node15" class="node">
<title>Node15</title>
<g id="a_node15"><a xlink:href="d__a__obj__digplace_8h.html" target="_top" xlink:title=" ">
<polygon fill="white" stroke="#666666" points="1214,-173 1111,-173 1111,-132 1214,-132 1214,-173"/>
<text text-anchor="start" x="1119" y="-161" font-family="Helvetica,sans-Serif" font-size="10.00">include/rel/d/a/obj</text>
<text text-anchor="start" x="1119" y="-150" font-family="Helvetica,sans-Serif" font-size="10.00">/d_a_obj_digplace/d</text>
<text text-anchor="middle" x="1162.5" y="-139" font-family="Helvetica,sans-Serif" font-size="10.00">_a_obj_digplace.h</text>
</a>
</g>
</g>
<!-- Node1&#45;&gt;Node15 -->
<g id="edge14" class="edge">
<title>Node1&#45;&gt;Node15</title>
<path fill="none" stroke="#63b8ff" d="M1162.5,-197.14C1162.5,-189.54 1162.5,-180.93 1162.5,-173.38"/>
<polygon fill="#63b8ff" stroke="#63b8ff" points="1159,-197.09 1162.5,-207.09 1166,-197.09 1159,-197.09"/>
</g>
<!-- Node16 -->
<g id="node16" class="node">
<title>Node16</title>
<g id="a_node16"><a xlink:href="d__a__tag__guard_8h.html" target="_top" xlink:title=" ">
<polygon fill="white" stroke="#666666" points="1353,-173 1232,-173 1232,-132 1353,-132 1353,-173"/>
<text text-anchor="start" x="1240" y="-161" font-family="Helvetica,sans-Serif" font-size="10.00">include/rel/d/a/tag</text>
<text text-anchor="start" x="1240" y="-150" font-family="Helvetica,sans-Serif" font-size="10.00">/d_a_tag_guard/d_a_tag</text>
<text text-anchor="middle" x="1292.5" y="-139" font-family="Helvetica,sans-Serif" font-size="10.00">_guard.h</text>
</a>
</g>
</g>
<!-- Node1&#45;&gt;Node16 -->
<g id="edge15" class="edge">
<title>Node1&#45;&gt;Node16</title>
<path fill="none" stroke="#63b8ff" d="M1190.69,-203.62C1208.65,-194.78 1232.2,-183.19 1252.12,-173.38"/>
<polygon fill="#63b8ff" stroke="#63b8ff" points="1189.36,-200.38 1181.93,-207.93 1192.45,-206.66 1189.36,-200.38"/>
</g>
<!-- Node18 -->
<g id="node18" class="node">
<title>Node18</title>
<g id="a_node18"><a xlink:href="d__path_8cpp.html" target="_top" xlink:title=" ">
<polygon fill="white" stroke="#666666" points="1460,-162 1371,-162 1371,-143 1460,-143 1460,-162"/>
<text text-anchor="middle" x="1415.5" y="-150" font-family="Helvetica,sans-Serif" font-size="10.00">src/d/d_path.cpp</text>
</a>
</g>
</g>
<!-- Node1&#45;&gt;Node18 -->
<g id="edge17" class="edge">
<title>Node1&#45;&gt;Node18</title>
<path fill="none" stroke="#63b8ff" d="M1221.42,-206.54C1261.54,-198.56 1315.65,-186.76 1362.5,-173 1372.75,-169.99 1383.88,-166.01 1393.29,-162.43"/>
<polygon fill="#63b8ff" stroke="#63b8ff" points="1220.86,-203.09 1211.72,-208.45 1222.21,-209.96 1220.86,-203.09"/>
</g>
<!-- Node19 -->
<g id="node19" class="node">
<title>Node19</title>
<g id="a_node19"><a xlink:href="d__tresure_8cpp.html" target="_top" xlink:title=" ">
<polygon fill="white" stroke="#666666" points="1578.5,-162 1478.5,-162 1478.5,-143 1578.5,-143 1578.5,-162"/>
<text text-anchor="middle" x="1528.5" y="-150" font-family="Helvetica,sans-Serif" font-size="10.00">src/d/d_tresure.cpp</text>
</a>
</g>
</g>
<!-- Node1&#45;&gt;Node19 -->
<g id="edge18" class="edge">
<title>Node1&#45;&gt;Node19</title>
<path fill="none" stroke="#63b8ff" d="M1221.48,-212.05C1283.71,-205.59 1384.38,-193.07 1469.5,-173 1481.26,-170.23 1494.02,-166.15 1504.66,-162.44"/>
<polygon fill="#63b8ff" stroke="#63b8ff" points="1221.42,-208.54 1211.82,-213.04 1222.13,-215.51 1221.42,-208.54"/>
</g>
<!-- Node20 -->
<g id="node20" class="node">
<title>Node20</title>
<g id="a_node20"><a xlink:href="f__op__actor__mng_8cpp.html" target="_top" xlink:title=" ">
<polygon fill="white" stroke="#666666" points="1698,-167.5 1597,-167.5 1597,-137.5 1698,-137.5 1698,-167.5"/>
<text text-anchor="start" x="1605" y="-155.5" font-family="Helvetica,sans-Serif" font-size="10.00">src/f_op/f_op_actor</text>
<text text-anchor="middle" x="1647.5" y="-144.5" font-family="Helvetica,sans-Serif" font-size="10.00">_mng.cpp</text>
</a>
</g>
</g>
<!-- Node1&#45;&gt;Node20 -->
<g id="edge19" class="edge">
<title>Node1&#45;&gt;Node20</title>
<path fill="none" stroke="#63b8ff" d="M1221.93,-215.21C1304.67,-211.14 1458.89,-200.32 1587.5,-173 1593.82,-171.66 1600.42,-169.9 1606.82,-167.99"/>
<polygon fill="#63b8ff" stroke="#63b8ff" points="1221.83,-211.71 1212.01,-215.68 1222.16,-218.7 1221.83,-211.71"/>
</g>
<!-- Node3 -->
<g id="node3" class="node">
<title>Node3</title>
<g id="a_node3"><a xlink:href="d__shop__system_8h.html" target="_top" xlink:title=" ">
<polygon fill="white" stroke="#666666" points="203.5,-90.5 89.5,-90.5 89.5,-60.5 203.5,-60.5 203.5,-90.5"/>
<text text-anchor="start" x="97.5" y="-78.5" font-family="Helvetica,sans-Serif" font-size="10.00">include/d/shop/d_shop</text>
<text text-anchor="middle" x="146.5" y="-67.5" font-family="Helvetica,sans-Serif" font-size="10.00">_system.h</text>
</a>
</g>
</g>
<!-- Node2&#45;&gt;Node3 -->
<g id="edge2" class="edge">
<title>Node2&#45;&gt;Node3</title>
<path fill="none" stroke="#63b8ff" d="M387.66,-139.89C341.95,-129.09 272.46,-112.24 212.5,-96 206.62,-94.41 200.46,-92.67 194.37,-90.92"/>
<polygon fill="#63b8ff" stroke="#63b8ff" points="386.73,-143.27 397.27,-142.16 388.34,-136.46 386.73,-143.27"/>
</g>
<!-- Node6 -->
<g id="node6" class="node">
<title>Node6</title>
<g id="a_node6"><a xlink:href="d__a__npc__ash_8h.html" target="_top" xlink:title=" ">
<polygon fill="white" stroke="#666666" points="367.5,-90.5 221.5,-90.5 221.5,-60.5 367.5,-60.5 367.5,-90.5"/>
<text text-anchor="start" x="229.5" y="-78.5" font-family="Helvetica,sans-Serif" font-size="10.00">include/rel/d/a/npc</text>
<text text-anchor="middle" x="294.5" y="-67.5" font-family="Helvetica,sans-Serif" font-size="10.00">/d_a_npc_ash/d_a_npc_ash.h</text>
</a>
</g>
</g>
<!-- Node2&#45;&gt;Node6 -->
<g id="edge5" class="edge">
<title>Node2&#45;&gt;Node6</title>
<path fill="none" stroke="#63b8ff" d="M410.51,-137.34C385.17,-124.05 347.45,-104.27 321.96,-90.9"/>
<polygon fill="#63b8ff" stroke="#63b8ff" points="408.71,-140.35 419.19,-141.9 411.96,-134.15 408.71,-140.35"/>
</g>
<!-- Node7 -->
<g id="node7" class="node">
<title>Node7</title>
<g id="a_node7"><a xlink:href="d__a__npc_8cpp.html" target="_top" xlink:title=" ">
<polygon fill="white" stroke="#666666" points="489.5,-85 385.5,-85 385.5,-66 489.5,-66 489.5,-85"/>
<text text-anchor="middle" x="437.5" y="-73" font-family="Helvetica,sans-Serif" font-size="10.00">src/d/a/d_a_npc.cpp</text>
</a>
</g>
</g>
<!-- Node2&#45;&gt;Node7 -->
<g id="edge6" class="edge">
<title>Node2&#45;&gt;Node7</title>
<path fill="none" stroke="#63b8ff" d="M437.5,-131.42C437.5,-116.43 437.5,-96.66 437.5,-85.39"/>
<polygon fill="#63b8ff" stroke="#63b8ff" points="434,-131.09 437.5,-141.09 441,-131.09 434,-131.09"/>
</g>
<!-- Node8 -->
<g id="node8" class="node">
<title>Node8</title>
<g id="a_node8"><a xlink:href="d__meter2__info_8cpp.html" target="_top" xlink:title=" ">
<polygon fill="white" stroke="#666666" points="617.5,-90.5 507.5,-90.5 507.5,-60.5 617.5,-60.5 617.5,-90.5"/>
<text text-anchor="start" x="515.5" y="-78.5" font-family="Helvetica,sans-Serif" font-size="10.00">src/d/meter/d_meter2</text>
<text text-anchor="middle" x="562.5" y="-67.5" font-family="Helvetica,sans-Serif" font-size="10.00">_info.cpp</text>
</a>
</g>
</g>
<!-- Node2&#45;&gt;Node8 -->
<g id="edge7" class="edge">
<title>Node2&#45;&gt;Node8</title>
<path fill="none" stroke="#63b8ff" d="M462.02,-136.79C484.23,-123.46 516.75,-103.95 538.72,-90.77"/>
<polygon fill="#63b8ff" stroke="#63b8ff" points="460.4,-133.68 453.63,-141.82 464,-139.68 460.4,-133.68"/>
</g>
<!-- Node4 -->
<g id="node4" class="node">
<title>Node4</title>
<g id="a_node4"><a xlink:href="d__msg__flow_8cpp.html" target="_top" xlink:title=" ">
<polygon fill="white" stroke="#666666" points="133,-19 0,-19 0,0 133,0 133,-19"/>
<text text-anchor="middle" x="66.5" y="-7" font-family="Helvetica,sans-Serif" font-size="10.00">src/d/msg/d_msg_flow.cpp</text>
</a>
</g>
</g>
<!-- Node3&#45;&gt;Node4 -->
<g id="edge3" class="edge">
<title>Node3&#45;&gt;Node4</title>
<path fill="none" stroke="#63b8ff" d="M120.16,-53.43C105.69,-41.85 88.51,-28.11 77.56,-19.34"/>
<polygon fill="#63b8ff" stroke="#63b8ff" points="117.57,-55.84 127.56,-59.35 121.94,-50.37 117.57,-55.84"/>
</g>
<!-- Node5 -->
<g id="node5" class="node">
<title>Node5</title>
<g id="a_node5"><a xlink:href="d__shop__system_8cpp.html" target="_top" xlink:title=" ">
<polygon fill="white" stroke="#666666" points="303.5,-19 151.5,-19 151.5,0 303.5,0 303.5,-19"/>
<text text-anchor="middle" x="227.5" y="-7" font-family="Helvetica,sans-Serif" font-size="10.00">src/d/shop/d_shop_system.cpp</text>
</a>
</g>
</g>
<!-- Node3&#45;&gt;Node5 -->
<g id="edge4" class="edge">
<title>Node3&#45;&gt;Node5</title>
<path fill="none" stroke="#63b8ff" d="M173.16,-53.43C187.82,-41.85 205.22,-28.11 216.31,-19.34"/>
<polygon fill="#63b8ff" stroke="#63b8ff" points="171.34,-50.41 165.66,-59.36 175.68,-55.9 171.34,-50.41"/>
</g>
<!-- Node10 -->
<g id="node10" class="node">
<title>Node10</title>
<g id="a_node10"><a xlink:href="d__a__tag__spinner_8h.html" target="_top" xlink:title=" ">
<polygon fill="white" stroke="#666666" points="745.5,-96 635.5,-96 635.5,-55 745.5,-55 745.5,-96"/>
<text text-anchor="start" x="643.5" y="-84" font-family="Helvetica,sans-Serif" font-size="10.00">include/rel/d/a/tag</text>
<text text-anchor="start" x="643.5" y="-73" font-family="Helvetica,sans-Serif" font-size="10.00">/d_a_tag_spinner/d_a</text>
<text text-anchor="middle" x="690.5" y="-62" font-family="Helvetica,sans-Serif" font-size="10.00">_tag_spinner.h</text>
</a>
</g>
</g>
<!-- Node9&#45;&gt;Node10 -->
<g id="edge9" class="edge">
<title>Node9&#45;&gt;Node10</title>
<path fill="none" stroke="#63b8ff" d="M734.9,-128.53C726.11,-118.23 715.84,-106.2 707.4,-96.3"/>
<polygon fill="#63b8ff" stroke="#63b8ff" points="732.02,-130.55 741.18,-135.89 737.35,-126.01 732.02,-130.55"/>
</g>
<!-- Node11 -->
<g id="node11" class="node">
<title>Node11</title>
<g id="a_node11"><a xlink:href="d__a__alink_8cpp.html" target="_top" xlink:title=" ">
<polygon fill="white" stroke="#666666" points="873,-85 764,-85 764,-66 873,-66 873,-85"/>
<text text-anchor="middle" x="818.5" y="-73" font-family="Helvetica,sans-Serif" font-size="10.00">src/d/a/d_a_alink.cpp</text>
</a>
</g>
</g>
<!-- Node9&#45;&gt;Node11 -->
<g id="edge10" class="edge">
<title>Node9&#45;&gt;Node11</title>
<path fill="none" stroke="#63b8ff" d="M774.13,-128.49C786.59,-113.89 802.01,-95.82 811,-85.29"/>
<polygon fill="#63b8ff" stroke="#63b8ff" points="771.65,-126.01 767.82,-135.89 776.98,-130.55 771.65,-126.01"/>
</g>
<!-- Node12 -->
<g id="node12" class="node">
<title>Node12</title>
<g id="a_node12"><a xlink:href="d__a__player_8cpp.html" target="_top" xlink:title=" ">
<polygon fill="white" stroke="#666666" points="1005.5,-85 891.5,-85 891.5,-66 1005.5,-66 1005.5,-85"/>
<text text-anchor="middle" x="948.5" y="-73" font-family="Helvetica,sans-Serif" font-size="10.00">src/d/a/d_a_player.cpp</text>
</a>
</g>
</g>
<!-- Node9&#45;&gt;Node12 -->
<g id="edge11" class="edge">
<title>Node9&#45;&gt;Node12</title>
<path fill="none" stroke="#63b8ff" d="M802.54,-132.93C841.72,-117.78 895.35,-97.05 925.5,-85.39"/>
<polygon fill="#63b8ff" stroke="#63b8ff" points="801.38,-129.62 793.32,-136.49 803.91,-136.15 801.38,-129.62"/>
</g>
<!-- Node17 -->
<g id="node17" class="node">
<title>Node17</title>
<g id="a_node17"><a xlink:href="d__a__guard__mng_8h.html" target="_top" xlink:title=" ">
<polygon fill="white" stroke="#666666" points="1367,-90.5 1218,-90.5 1218,-60.5 1367,-60.5 1367,-90.5"/>
<text text-anchor="start" x="1226" y="-78.5" font-family="Helvetica,sans-Serif" font-size="10.00">include/rel/d/a/d_a</text>
<text text-anchor="middle" x="1292.5" y="-67.5" font-family="Helvetica,sans-Serif" font-size="10.00">_guard_mng/d_a_guard_mng.h</text>
</a>
</g>
</g>
<!-- Node16&#45;&gt;Node17 -->
<g id="edge16" class="edge">
<title>Node16&#45;&gt;Node17</title>
<path fill="none" stroke="#63b8ff" d="M1292.5,-120.28C1292.5,-110.07 1292.5,-99.21 1292.5,-90.86"/>
<polygon fill="#63b8ff" stroke="#63b8ff" points="1289,-120.28 1292.5,-130.28 1296,-120.28 1289,-120.28"/>
</g>
</g>
</svg>
