<?xml version="1.0" encoding="UTF-8" standalone="no"?>
<!DOCTYPE svg PUBLIC "-//W3C//DTD SVG 1.1//EN"
 "http://www.w3.org/Graphics/SVG/1.1/DTD/svg11.dtd">
<!-- Generated by graphviz version 7.0.5 (20221223.1930)
 -->
<!-- Title: include/d/particle/d_particle.h Pages: 1 -->
<svg width="5121pt" height="247pt"
 viewBox="0.00 0.00 5121.00 247.00" xmlns="http://www.w3.org/2000/svg" xmlns:xlink="http://www.w3.org/1999/xlink">
<g id="graph0" class="graph" transform="scale(1 1) rotate(0) translate(4 243)">
<title>include/d/particle/d_particle.h</title>
<!-- Node1 -->
<g id="node1" class="node">
<title>Node1</title>
<g id="a_node1"><a xlink:title=" ">
<polygon fill="#999999" stroke="#666666" points="4701.5,-239 4611.5,-239 4611.5,-209 4701.5,-209 4701.5,-239"/>
<text text-anchor="start" x="4619.5" y="-227" font-family="Helvetica,sans-Serif" font-size="10.00">include/d/particle</text>
<text text-anchor="middle" x="4656.5" y="-216" font-family="Helvetica,sans-Serif" font-size="10.00">/d_particle.h</text>
</a>
</g>
</g>
<!-- Node2 -->
<g id="node2" class="node">
<title>Node2</title>
<g id="a_node2"><a xlink:href="d__a__alink_8h.html" target="_top" xlink:title=" ">
<polygon fill="white" stroke="#666666" points="4456.5,-96 4340.5,-96 4340.5,-77 4456.5,-77 4456.5,-96"/>
<text text-anchor="middle" x="4398.5" y="-84" font-family="Helvetica,sans-Serif" font-size="10.00">include/d/a/d_a_alink.h</text>
</a>
</g>
</g>
<!-- Node1&#45;&gt;Node2 -->
<g id="edge1" class="edge">
<title>Node1&#45;&gt;Node2</title>
<path fill="none" stroke="#63b8ff" d="M4619.38,-203.5C4562.61,-173.69 4456.5,-117.96 4415.38,-96.37"/>
<polygon fill="#63b8ff" stroke="#63b8ff" points="4617.56,-206.5 4628.04,-208.05 4620.81,-200.3 4617.56,-206.5"/>
</g>
<!-- Node11 -->
<g id="node11" class="node">
<title>Node11</title>
<g id="a_node11"><a xlink:href="d__a__item__static_8h.html" target="_top" xlink:title=" ">
<polygon fill="white" stroke="#666666" points="4844,-173 4737,-173 4737,-143 4844,-143 4844,-173"/>
<text text-anchor="start" x="4745" y="-161" font-family="Helvetica,sans-Serif" font-size="10.00">include/d/a/d_a_item</text>
<text text-anchor="middle" x="4790.5" y="-150" font-family="Helvetica,sans-Serif" font-size="10.00">_static.h</text>
</a>
</g>
</g>
<!-- Node1&#45;&gt;Node11 -->
<g id="edge10" class="edge">
<title>Node1&#45;&gt;Node11</title>
<path fill="none" stroke="#63b8ff" d="M4696.86,-203.72C4717.33,-193.95 4741.76,-182.28 4760.53,-173.31"/>
<polygon fill="#63b8ff" stroke="#63b8ff" points="4695.45,-200.52 4687.94,-207.98 4698.47,-206.83 4695.45,-200.52"/>
</g>
<!-- Node16 -->
<g id="node15" class="node">
<title>Node16</title>
<g id="a_node15"><a xlink:href="d__com__inf__game_8h.html" target="_top" xlink:title=" ">
<polygon fill="#fff0f0" stroke="red" points="2605.5,-173 2495.5,-173 2495.5,-143 2605.5,-143 2605.5,-173"/>
<text text-anchor="start" x="2503.5" y="-161" font-family="Helvetica,sans-Serif" font-size="10.00">include/d/com/d_com</text>
<text text-anchor="middle" x="2550.5" y="-150" font-family="Helvetica,sans-Serif" font-size="10.00">_inf_game.h</text>
</a>
</g>
</g>
<!-- Node1&#45;&gt;Node16 -->
<g id="edge14" class="edge">
<title>Node1&#45;&gt;Node16</title>
<path fill="none" stroke="#63b8ff" d="M4599.61,-221.27C4299.4,-212.15 2901.98,-169.68 2605.77,-160.68"/>
<polygon fill="#63b8ff" stroke="#63b8ff" points="4599.43,-224.77 4609.54,-221.57 4599.65,-217.77 4599.43,-224.77"/>
</g>
<!-- Node179 -->
<g id="node49" class="node">
<title>Node179</title>
<g id="a_node49"><a xlink:href="d__particle_8cpp.html" target="_top" xlink:title=" ">
<polygon fill="white" stroke="#666666" points="4724.5,-96 4588.5,-96 4588.5,-77 4724.5,-77 4724.5,-96"/>
<text text-anchor="middle" x="4656.5" y="-84" font-family="Helvetica,sans-Serif" font-size="10.00">src/d/particle/d_particle.cpp</text>
</a>
</g>
</g>
<!-- Node1&#45;&gt;Node179 -->
<g id="edge61" class="edge">
<title>Node1&#45;&gt;Node179</title>
<path fill="none" stroke="#63b8ff" d="M4656.5,-197.65C4656.5,-166.89 4656.5,-116.62 4656.5,-96.37"/>
<polygon fill="#63b8ff" stroke="#63b8ff" points="4653,-197.24 4656.5,-207.24 4660,-197.24 4653,-197.24"/>
</g>
<!-- Node195 -->
<g id="node50" class="node">
<title>Node195</title>
<g id="a_node50"><a xlink:href="d__a__arrow_8h.html" target="_top" xlink:title=" ">
<polygon fill="white" stroke="#666666" points="4963,-173 4862,-173 4862,-143 4963,-143 4963,-173"/>
<text text-anchor="start" x="4870" y="-161" font-family="Helvetica,sans-Serif" font-size="10.00">include/rel/d/a/d_a</text>
<text text-anchor="middle" x="4912.5" y="-150" font-family="Helvetica,sans-Serif" font-size="10.00">_arrow/d_a_arrow.h</text>
</a>
</g>
</g>
<!-- Node1&#45;&gt;Node195 -->
<g id="edge60" class="edge">
<title>Node1&#45;&gt;Node195</title>
<path fill="none" stroke="#63b8ff" d="M4712.89,-208.9C4757.35,-197.79 4818.81,-182.42 4861.75,-171.69"/>
<polygon fill="#63b8ff" stroke="#63b8ff" points="4712.29,-205.44 4703.44,-211.26 4713.99,-212.23 4712.29,-205.44"/>
</g>
<!-- Node3 -->
<g id="node3" class="node">
<title>Node3</title>
<g id="a_node3"><a xlink:href="d__a__alink_8cpp.html" target="_top" xlink:title=" ">
<polygon fill="white" stroke="#666666" points="3779,-24.5 3670,-24.5 3670,-5.5 3779,-5.5 3779,-24.5"/>
<text text-anchor="middle" x="3724.5" y="-12.5" font-family="Helvetica,sans-Serif" font-size="10.00">src/d/a/d_a_alink.cpp</text>
</a>
</g>
</g>
<!-- Node2&#45;&gt;Node3 -->
<g id="edge2" class="edge">
<title>Node2&#45;&gt;Node3</title>
<path fill="none" stroke="#63b8ff" d="M4361.52,-73.35C4351.55,-70.5 4340.7,-67.78 4330.5,-66 4092.24,-24.43 4026.91,-64.33 3787.5,-30 3778.63,-28.73 3769.15,-26.88 3760.31,-24.95"/>
<polygon fill="#63b8ff" stroke="#63b8ff" points="4360.29,-76.64 4370.87,-76.15 4362.3,-69.93 4360.29,-76.64"/>
</g>
<!-- Node4 -->
<g id="node4" class="node">
<title>Node4</title>
<g id="a_node4"><a xlink:href="d__a__player_8cpp.html" target="_top" xlink:title=" ">
<polygon fill="white" stroke="#666666" points="4329.5,-24.5 4215.5,-24.5 4215.5,-5.5 4329.5,-5.5 4329.5,-24.5"/>
<text text-anchor="middle" x="4272.5" y="-12.5" font-family="Helvetica,sans-Serif" font-size="10.00">src/d/a/d_a_player.cpp</text>
</a>
</g>
</g>
<!-- Node2&#45;&gt;Node4 -->
<g id="edge3" class="edge">
<title>Node2&#45;&gt;Node4</title>
<path fill="none" stroke="#63b8ff" d="M4372.31,-71.05C4347.1,-57.15 4309.79,-36.57 4288.65,-24.91"/>
<polygon fill="#63b8ff" stroke="#63b8ff" points="4370.51,-74.06 4380.96,-75.83 4373.89,-67.93 4370.51,-74.06"/>
</g>
<!-- Node5 -->
<g id="node5" class="node">
<title>Node5</title>
<g id="a_node5"><a xlink:href="d__com__inf__game_8cpp.html" target="_top" xlink:title=" ">
<polygon fill="white" stroke="#666666" points="4455.5,-30 4347.5,-30 4347.5,0 4455.5,0 4455.5,-30"/>
<text text-anchor="start" x="4355.5" y="-18" font-family="Helvetica,sans-Serif" font-size="10.00">src/d/com/d_com_inf</text>
<text text-anchor="middle" x="4401.5" y="-7" font-family="Helvetica,sans-Serif" font-size="10.00">_game.cpp</text>
</a>
</g>
</g>
<!-- Node2&#45;&gt;Node5 -->
<g id="edge4" class="edge">
<title>Node2&#45;&gt;Node5</title>
<path fill="none" stroke="#63b8ff" d="M4399.37,-65.39C4399.85,-54.15 4400.45,-40.41 4400.88,-30.27"/>
<polygon fill="#63b8ff" stroke="#63b8ff" points="4395.88,-65.04 4398.95,-75.19 4402.87,-65.35 4395.88,-65.04"/>
</g>
<!-- Node6 -->
<g id="node6" class="node">
<title>Node6</title>
<g id="a_node6"><a xlink:href="d__camera_8cpp.html" target="_top" xlink:title=" ">
<polygon fill="white" stroke="#666666" points="4575.5,-24.5 4473.5,-24.5 4473.5,-5.5 4575.5,-5.5 4575.5,-24.5"/>
<text text-anchor="middle" x="4524.5" y="-12.5" font-family="Helvetica,sans-Serif" font-size="10.00">src/d/d_camera.cpp</text>
</a>
</g>
</g>
<!-- Node2&#45;&gt;Node6 -->
<g id="edge5" class="edge">
<title>Node2&#45;&gt;Node6</title>
<path fill="none" stroke="#63b8ff" d="M4424.69,-71.05C4449.9,-57.15 4487.21,-36.57 4508.35,-24.91"/>
<polygon fill="#63b8ff" stroke="#63b8ff" points="4423.11,-67.93 4416.04,-75.83 4426.49,-74.06 4423.11,-67.93"/>
</g>
<!-- Node7 -->
<g id="node7" class="node">
<title>Node7</title>
<g id="a_node7"><a xlink:href="d__event_8cpp.html" target="_top" xlink:title=" ">
<polygon fill="white" stroke="#666666" points="4069,-24.5 3948,-24.5 3948,-5.5 4069,-5.5 4069,-24.5"/>
<text text-anchor="middle" x="4008.5" y="-12.5" font-family="Helvetica,sans-Serif" font-size="10.00">src/d/event/d_event.cpp</text>
</a>
</g>
</g>
<!-- Node2&#45;&gt;Node7 -->
<g id="edge6" class="edge">
<title>Node2&#45;&gt;Node7</title>
<path fill="none" stroke="#63b8ff" d="M4359.82,-73.41C4350.3,-70.71 4340.08,-68.05 4330.5,-66 4219.86,-42.35 4190.01,-49.1 4078.5,-30 4069.7,-28.49 4060.32,-26.73 4051.37,-24.97"/>
<polygon fill="#63b8ff" stroke="#63b8ff" points="4358.56,-76.69 4369.14,-76.14 4360.53,-69.97 4358.56,-76.69"/>
</g>
<!-- Node8 -->
<g id="node8" class="node">
<title>Node8</title>
<g id="a_node8"><a xlink:href="d__meter2__draw_8cpp.html" target="_top" xlink:title=" ">
<polygon fill="white" stroke="#666666" points="4197.5,-30 4087.5,-30 4087.5,0 4197.5,0 4197.5,-30"/>
<text text-anchor="start" x="4095.5" y="-18" font-family="Helvetica,sans-Serif" font-size="10.00">src/d/meter/d_meter2</text>
<text text-anchor="middle" x="4142.5" y="-7" font-family="Helvetica,sans-Serif" font-size="10.00">_draw.cpp</text>
</a>
</g>
</g>
<!-- Node2&#45;&gt;Node8 -->
<g id="edge7" class="edge">
<title>Node2&#45;&gt;Node8</title>
<path fill="none" stroke="#63b8ff" d="M4356.68,-73.37C4348.03,-70.9 4338.98,-68.34 4330.5,-66 4285.9,-53.68 4235.2,-40.22 4197.69,-30.38"/>
<polygon fill="#63b8ff" stroke="#63b8ff" points="4355.7,-76.73 4366.28,-76.12 4357.63,-70 4355.7,-76.73"/>
</g>
<!-- Node9 -->
<g id="node9" class="node">
<title>Node9</title>
<g id="a_node9"><a xlink:href="d__msg__flow_8cpp.html" target="_top" xlink:title=" ">
<polygon fill="white" stroke="#666666" points="3930,-24.5 3797,-24.5 3797,-5.5 3930,-5.5 3930,-24.5"/>
<text text-anchor="middle" x="3863.5" y="-12.5" font-family="Helvetica,sans-Serif" font-size="10.00">src/d/msg/d_msg_flow.cpp</text>
</a>
</g>
</g>
<!-- Node2&#45;&gt;Node9 -->
<g id="edge8" class="edge">
<title>Node2&#45;&gt;Node9</title>
<path fill="none" stroke="#63b8ff" d="M4360.66,-73.29C4350.92,-70.52 4340.39,-67.86 4330.5,-66 4158.54,-33.74 4111.79,-54.08 3938.5,-30 3928.53,-28.61 3917.87,-26.82 3907.81,-24.98"/>
<polygon fill="#63b8ff" stroke="#63b8ff" points="4359.61,-76.63 4370.19,-76.11 4361.6,-69.92 4359.61,-76.63"/>
</g>
<!-- Node10 -->
<g id="node10" class="node">
<title>Node10</title>
<g id="a_node10"><a xlink:href="f__op__actor_8cpp.html" target="_top" xlink:title=" ">
<polygon fill="white" stroke="#666666" points="4713,-24.5 4594,-24.5 4594,-5.5 4713,-5.5 4713,-24.5"/>
<text text-anchor="middle" x="4653.5" y="-12.5" font-family="Helvetica,sans-Serif" font-size="10.00">src/f_op/f_op_actor.cpp</text>
</a>
</g>
</g>
<!-- Node2&#45;&gt;Node10 -->
<g id="edge9" class="edge">
<title>Node2&#45;&gt;Node10</title>
<path fill="none" stroke="#63b8ff" d="M4442.25,-73.58C4492.95,-59.76 4575.36,-37.3 4620.81,-24.91"/>
<polygon fill="#63b8ff" stroke="#63b8ff" points="4441.5,-70.15 4432.78,-76.16 4443.34,-76.91 4441.5,-70.15"/>
</g>
<!-- Node12 -->
<g id="node12" class="node">
<title>Node12</title>
<g id="a_node12"><a xlink:href="d__a__obj__item_8h.html" target="_top" xlink:title=" ">
<polygon fill="#fff0f0" stroke="red" points="5113,-101.5 5012,-101.5 5012,-71.5 5113,-71.5 5113,-101.5"/>
<text text-anchor="start" x="5020" y="-89.5" font-family="Helvetica,sans-Serif" font-size="10.00">include/d/a/d_a_obj</text>
<text text-anchor="middle" x="5062.5" y="-78.5" font-family="Helvetica,sans-Serif" font-size="10.00">_item.h</text>
</a>
</g>
</g>
<!-- Node11&#45;&gt;Node12 -->
<g id="edge11" class="edge">
<title>Node11&#45;&gt;Node12</title>
<path fill="none" stroke="#63b8ff" d="M4855.23,-142.47C4907.25,-130.67 4976,-114.76 5003.5,-107 5009,-105.45 5014.76,-103.7 5020.42,-101.91"/>
<polygon fill="#63b8ff" stroke="#63b8ff" points="4854.53,-139.04 4845.55,-144.66 4856.08,-145.86 4854.53,-139.04"/>
</g>
<!-- Node14 -->
<g id="node13" class="node">
<title>Node14</title>
<g id="a_node13"><a xlink:href="d__a__do_8h.html" target="_top" xlink:title=" ">
<polygon fill="white" stroke="#666666" points="4838.5,-101.5 4742.5,-101.5 4742.5,-71.5 4838.5,-71.5 4838.5,-101.5"/>
<text text-anchor="start" x="4750.5" y="-89.5" font-family="Helvetica,sans-Serif" font-size="10.00">include/rel/d/a/d_a</text>
<text text-anchor="middle" x="4790.5" y="-78.5" font-family="Helvetica,sans-Serif" font-size="10.00">_do/d_a_do.h</text>
</a>
</g>
</g>
<!-- Node11&#45;&gt;Node14 -->
<g id="edge12" class="edge">
<title>Node11&#45;&gt;Node14</title>
<path fill="none" stroke="#63b8ff" d="M4790.5,-131.26C4790.5,-121.33 4790.5,-110.36 4790.5,-101.88"/>
<polygon fill="#63b8ff" stroke="#63b8ff" points="4787,-131.09 4790.5,-141.09 4794,-131.09 4787,-131.09"/>
</g>
<!-- Node15 -->
<g id="node14" class="node">
<title>Node15</title>
<g id="a_node14"><a xlink:href="d__a__item__static_8cpp.html" target="_top" xlink:title=" ">
<polygon fill="white" stroke="#666666" points="4994,-96 4857,-96 4857,-77 4994,-77 4994,-96"/>
<text text-anchor="middle" x="4925.5" y="-84" font-family="Helvetica,sans-Serif" font-size="10.00">src/d/a/d_a_item_static.cpp</text>
</a>
</g>
</g>
<!-- Node11&#45;&gt;Node15 -->
<g id="edge13" class="edge">
<title>Node11&#45;&gt;Node15</title>
<path fill="none" stroke="#63b8ff" d="M4828.46,-137.46C4854.66,-123.97 4888.25,-106.68 4908.25,-96.38"/>
<polygon fill="#63b8ff" stroke="#63b8ff" points="4827.11,-134.22 4819.82,-141.91 4830.31,-140.44 4827.11,-134.22"/>
</g>
<!-- Node16&#45;&gt;Node5 -->
<g id="edge56" class="edge">
<title>Node16&#45;&gt;Node5</title>
<path fill="none" stroke="#63b8ff" d="M2617.41,-156.52C2952.39,-153.97 4432.57,-140.8 4465.5,-107 4478.22,-93.95 4473.49,-82.38 4465.5,-66 4458.08,-50.79 4443.56,-38.86 4430.22,-30.46"/>
<polygon fill="#63b8ff" stroke="#63b8ff" points="2617.46,-153.02 2607.49,-156.6 2617.52,-160.02 2617.46,-153.02"/>
</g>
<!-- Node16&#45;&gt;Node6 -->
<g id="edge57" class="edge">
<title>Node16&#45;&gt;Node6</title>
<path fill="none" stroke="#63b8ff" d="M2617.07,-157.25C2948.1,-158.26 4404.24,-159.69 4483.5,-107 4512.07,-88.01 4520.97,-43.96 4523.54,-24.97"/>
<polygon fill="#63b8ff" stroke="#63b8ff" points="2617.3,-153.75 2607.29,-157.22 2617.28,-160.75 2617.3,-153.75"/>
</g>
<!-- Node16&#45;&gt;Node10 -->
<g id="edge59" class="edge">
<title>Node16&#45;&gt;Node10</title>
<path fill="none" stroke="#63b8ff" d="M2617.33,-156.31C2950.56,-152.75 4420.17,-135.49 4512.5,-107 4519.67,-104.79 4606.6,-47.21 4640.29,-24.8"/>
<polygon fill="#63b8ff" stroke="#63b8ff" points="2617.44,-152.81 2607.48,-156.42 2617.51,-159.81 2617.44,-152.81"/>
</g>
<!-- Node17 -->
<g id="node16" class="node">
<title>Node17</title>
<g id="a_node16"><a xlink:href="d__a__npc_8h.html" target="_top" xlink:title=" ">
<polygon fill="#fff0f0" stroke="red" points="4177,-96 4066,-96 4066,-77 4177,-77 4177,-96"/>
<text text-anchor="middle" x="4121.5" y="-84" font-family="Helvetica,sans-Serif" font-size="10.00">include/d/a/d_a_npc.h</text>
</a>
</g>
</g>
<!-- Node16&#45;&gt;Node17 -->
<g id="edge15" class="edge">
<title>Node16&#45;&gt;Node17</title>
<path fill="none" stroke="#63b8ff" d="M2617.18,-157.07C2870.55,-156.98 3773.48,-153.35 4056.5,-107 4070.22,-104.75 4085.1,-100.43 4097.16,-96.43"/>
<polygon fill="#63b8ff" stroke="#63b8ff" points="2617.48,-153.57 2607.48,-157.07 2617.48,-160.57 2617.48,-153.57"/>
</g>
<!-- Node23 -->
<g id="node17" class="node">
<title>Node23</title>
<g id="a_node17"><a xlink:href="d__a__npc__cd_8h.html" target="_top" xlink:title=" ">
<polygon fill="#fff0f0" stroke="red" points="4322,-96 4195,-96 4195,-77 4322,-77 4322,-96"/>
<text text-anchor="middle" x="4258.5" y="-84" font-family="Helvetica,sans-Serif" font-size="10.00">include/d/a/d_a_npc_cd.h</text>
</a>
</g>
</g>
<!-- Node16&#45;&gt;Node23 -->
<g id="edge16" class="edge">
<title>Node16&#45;&gt;Node23</title>
<path fill="none" stroke="#63b8ff" d="M2616.99,-157.01C2883.53,-156.72 3875.25,-152.56 4185.5,-107 4200.81,-104.75 4217.52,-100.43 4231.08,-96.43"/>
<polygon fill="#63b8ff" stroke="#63b8ff" points="2617.1,-153.51 2607.1,-157.02 2617.1,-160.51 2617.1,-153.51"/>
</g>
<!-- Node25 -->
<g id="node18" class="node">
<title>Node25</title>
<g id="a_node18"><a xlink:href="d__a__npc__cd2_8h.html" target="_top" xlink:title=" ">
<polygon fill="#fff0f0" stroke="red" points="1879.5,-30 1775.5,-30 1775.5,0 1879.5,0 1879.5,-30"/>
<text text-anchor="start" x="1783.5" y="-18" font-family="Helvetica,sans-Serif" font-size="10.00">include/d/a/d_a_npc</text>
<text text-anchor="middle" x="1827.5" y="-7" font-family="Helvetica,sans-Serif" font-size="10.00">_cd2.h</text>
</a>
</g>
</g>
<!-- Node16&#45;&gt;Node25 -->
<g id="edge17" class="edge">
<title>Node16&#45;&gt;Node25</title>
<path fill="none" stroke="#63b8ff" d="M2617.14,-156.4C2845.99,-154 3587.71,-143.45 3622.5,-107 3635.08,-93.82 3635.2,-79.06 3622.5,-66 3591.31,-33.93 2171.89,-19.16 1879.74,-16.46"/>
<polygon fill="#63b8ff" stroke="#63b8ff" points="2617.15,-152.9 2607.18,-156.5 2617.22,-159.9 2617.15,-152.9"/>
</g>
<!-- Node27 -->
<g id="node19" class="node">
<title>Node27</title>
<g id="a_node19"><a xlink:href="d__cc__uty_8h.html" target="_top" xlink:title=" ">
<polygon fill="#fff0f0" stroke="red" points="244,-96 125,-96 125,-77 244,-77 244,-96"/>
<text text-anchor="middle" x="184.5" y="-84" font-family="Helvetica,sans-Serif" font-size="10.00">include/d/cc/d_cc_uty.h</text>
</a>
</g>
</g>
<!-- Node16&#45;&gt;Node27 -->
<g id="edge18" class="edge">
<title>Node16&#45;&gt;Node27</title>
<path fill="none" stroke="#63b8ff" d="M2483.7,-156.57C2129.39,-154.16 477.72,-141.16 252.5,-107 238.17,-104.83 222.6,-100.51 209.99,-96.5"/>
<polygon fill="#63b8ff" stroke="#63b8ff" points="2483.48,-160.07 2493.51,-156.64 2483.53,-153.07 2483.48,-160.07"/>
</g>
<!-- Node37 -->
<g id="node20" class="node">
<title>Node37</title>
<g id="a_node20"><a xlink:href="d__bright__check_8h.html" target="_top" xlink:title=" ">
<polygon fill="#fff0f0" stroke="red" points="355,-101.5 262,-101.5 262,-71.5 355,-71.5 355,-101.5"/>
<text text-anchor="start" x="270" y="-89.5" font-family="Helvetica,sans-Serif" font-size="10.00">include/d/d_bright</text>
<text text-anchor="middle" x="308.5" y="-78.5" font-family="Helvetica,sans-Serif" font-size="10.00">_check.h</text>
</a>
</g>
</g>
<!-- Node16&#45;&gt;Node37 -->
<g id="edge19" class="edge">
<title>Node16&#45;&gt;Node37</title>
<path fill="none" stroke="#63b8ff" d="M2483.64,-156.71C2139.65,-155.05 577.06,-145.45 364.5,-107 358.02,-105.83 351.27,-104.02 344.81,-101.97"/>
<polygon fill="#63b8ff" stroke="#63b8ff" points="2483.6,-160.21 2493.61,-156.76 2483.63,-153.21 2483.6,-160.21"/>
</g>
<!-- Node39 -->
<g id="node21" class="node">
<title>Node39</title>
<g id="a_node21"><a xlink:href="d__error__msg_8h.html" target="_top" xlink:title=" ">
<polygon fill="#fff0f0" stroke="red" points="493.5,-96 373.5,-96 373.5,-77 493.5,-77 493.5,-96"/>
<text text-anchor="middle" x="433.5" y="-84" font-family="Helvetica,sans-Serif" font-size="10.00">include/d/d_error_msg.h</text>
</a>
</g>
</g>
<!-- Node16&#45;&gt;Node39 -->
<g id="edge20" class="edge">
<title>Node16&#45;&gt;Node39</title>
<path fill="none" stroke="#63b8ff" d="M2483.93,-156.37C2153.98,-153.1 701.8,-137.1 502.5,-107 487.98,-104.81 472.18,-100.49 459.37,-96.48"/>
<polygon fill="#63b8ff" stroke="#63b8ff" points="2483.65,-159.86 2493.68,-156.46 2483.72,-152.87 2483.65,-159.86"/>
</g>
<!-- Node42 -->
<g id="node22" class="node">
<title>Node42</title>
<g id="a_node22"><a xlink:href="d__npc__lib_8h.html" target="_top" xlink:title=" ">
<polygon fill="#fff0f0" stroke="red" points="107,-96 0,-96 0,-77 107,-77 107,-96"/>
<text text-anchor="middle" x="53.5" y="-84" font-family="Helvetica,sans-Serif" font-size="10.00">include/d/d_npc_lib.h</text>
</a>
</g>
</g>
<!-- Node16&#45;&gt;Node42 -->
<g id="edge21" class="edge">
<title>Node16&#45;&gt;Node42</title>
<path fill="none" stroke="#63b8ff" d="M2483.59,-156.76C2116.45,-155.29 354.52,-146.22 115.5,-107 102.25,-104.83 87.92,-100.46 76.38,-96.41"/>
<polygon fill="#63b8ff" stroke="#63b8ff" points="2483.52,-160.26 2493.54,-156.8 2483.55,-153.26 2483.52,-160.26"/>
</g>
<!-- Node44 -->
<g id="node23" class="node">
<title>Node44</title>
<g id="a_node23"><a xlink:href="d__file__select_8h.html" target="_top" xlink:title=" ">
<polygon fill="#fff0f0" stroke="red" points="607.5,-101.5 511.5,-101.5 511.5,-71.5 607.5,-71.5 607.5,-101.5"/>
<text text-anchor="start" x="519.5" y="-89.5" font-family="Helvetica,sans-Serif" font-size="10.00">include/d/file/d_file</text>
<text text-anchor="middle" x="559.5" y="-78.5" font-family="Helvetica,sans-Serif" font-size="10.00">_select.h</text>
</a>
</g>
</g>
<!-- Node16&#45;&gt;Node44 -->
<g id="edge23" class="edge">
<title>Node16&#45;&gt;Node44</title>
<path fill="none" stroke="#63b8ff" d="M2484.04,-156.48C2165.55,-153.81 803.14,-140.53 616.5,-107 609.91,-105.82 603.06,-104.01 596.48,-101.96"/>
<polygon fill="#63b8ff" stroke="#63b8ff" points="2483.82,-159.98 2493.85,-156.56 2483.88,-152.98 2483.82,-159.98"/>
</g>
<!-- Node46 -->
<g id="node24" class="node">
<title>Node46</title>
<g id="a_node24"><a xlink:href="d__msg__object_8h.html" target="_top" xlink:title=" ">
<polygon fill="#fff0f0" stroke="red" points="3913.5,-101.5 3803.5,-101.5 3803.5,-71.5 3913.5,-71.5 3913.5,-101.5"/>
<text text-anchor="start" x="3811.5" y="-89.5" font-family="Helvetica,sans-Serif" font-size="10.00">include/d/msg/d_msg</text>
<text text-anchor="middle" x="3858.5" y="-78.5" font-family="Helvetica,sans-Serif" font-size="10.00">_object.h</text>
</a>
</g>
</g>
<!-- Node16&#45;&gt;Node46 -->
<g id="edge24" class="edge">
<title>Node16&#45;&gt;Node46</title>
<path fill="none" stroke="#63b8ff" d="M2617.19,-156.56C2841.13,-154.74 3565.01,-145.91 3794.5,-107 3801.71,-105.78 3809.25,-103.97 3816.52,-101.95"/>
<polygon fill="#63b8ff" stroke="#63b8ff" points="2617.45,-153.06 2607.48,-156.64 2617.5,-160.06 2617.45,-153.06"/>
</g>
<!-- Node66 -->
<g id="node25" class="node">
<title>Node66</title>
<g id="a_node25"><a xlink:href="d__a__andsw_8h.html" target="_top" xlink:title=" ">
<polygon fill="white" stroke="#666666" points="735.5,-101.5 625.5,-101.5 625.5,-71.5 735.5,-71.5 735.5,-101.5"/>
<text text-anchor="start" x="633.5" y="-89.5" font-family="Helvetica,sans-Serif" font-size="10.00">include/rel/d/a/d_a</text>
<text text-anchor="middle" x="680.5" y="-78.5" font-family="Helvetica,sans-Serif" font-size="10.00">_andsw/d_a_andsw.h</text>
</a>
</g>
</g>
<!-- Node16&#45;&gt;Node66 -->
<g id="edge29" class="edge">
<title>Node16&#45;&gt;Node66</title>
<path fill="none" stroke="#63b8ff" d="M2484.05,-156.21C2178.79,-152.46 918.43,-135.37 744.5,-107 737.16,-105.8 729.49,-103.99 722.12,-101.93"/>
<polygon fill="#63b8ff" stroke="#63b8ff" points="2483.79,-159.71 2493.84,-156.33 2483.88,-152.71 2483.79,-159.71"/>
</g>
<!-- Node67 -->
<g id="node26" class="node">
<title>Node67</title>
<g id="a_node26"><a xlink:href="d__a__cstaF_8h.html" target="_top" xlink:title=" ">
<polygon fill="white" stroke="#666666" points="857,-101.5 754,-101.5 754,-71.5 857,-71.5 857,-101.5"/>
<text text-anchor="start" x="762" y="-89.5" font-family="Helvetica,sans-Serif" font-size="10.00">include/rel/d/a/d_a</text>
<text text-anchor="middle" x="805.5" y="-78.5" font-family="Helvetica,sans-Serif" font-size="10.00">_cstaF/d_a_cstaF.h</text>
</a>
</g>
</g>
<!-- Node16&#45;&gt;Node67 -->
<g id="edge30" class="edge">
<title>Node16&#45;&gt;Node67</title>
<path fill="none" stroke="#63b8ff" d="M2483.81,-156.12C2191.11,-152.11 1027.6,-134.58 866.5,-107 859.49,-105.8 852.17,-103.98 845.13,-101.93"/>
<polygon fill="#63b8ff" stroke="#63b8ff" points="2483.51,-159.62 2493.56,-156.25 2483.61,-152.62 2483.51,-159.62"/>
</g>
<!-- Node68 -->
<g id="node27" class="node">
<title>Node68</title>
<g id="a_node27"><a xlink:href="d__a__dmidna_8h.html" target="_top" xlink:title=" ">
<polygon fill="white" stroke="#666666" points="991.5,-101.5 875.5,-101.5 875.5,-71.5 991.5,-71.5 991.5,-101.5"/>
<text text-anchor="start" x="883.5" y="-89.5" font-family="Helvetica,sans-Serif" font-size="10.00">include/rel/d/a/d_a</text>
<text text-anchor="middle" x="933.5" y="-78.5" font-family="Helvetica,sans-Serif" font-size="10.00">_dmidna/d_a_dmidna.h</text>
</a>
</g>
</g>
<!-- Node16&#45;&gt;Node68 -->
<g id="edge31" class="edge">
<title>Node16&#45;&gt;Node68</title>
<path fill="none" stroke="#63b8ff" d="M2483.63,-157.07C2225.33,-157 1292.65,-153.47 1000.5,-107 992.96,-105.8 985.08,-104.01 977.47,-101.99"/>
<polygon fill="#63b8ff" stroke="#63b8ff" points="2483.54,-160.57 2493.54,-157.07 2483.54,-153.57 2483.54,-160.57"/>
</g>
<!-- Node69 -->
<g id="node28" class="node">
<title>Node69</title>
<g id="a_node28"><a xlink:href="d__a__dshutter_8h.html" target="_top" xlink:title=" ">
<polygon fill="#fff0f0" stroke="red" points="1133.5,-101.5 1009.5,-101.5 1009.5,-71.5 1133.5,-71.5 1133.5,-101.5"/>
<text text-anchor="start" x="1017.5" y="-89.5" font-family="Helvetica,sans-Serif" font-size="10.00">include/rel/d/a/d_a</text>
<text text-anchor="middle" x="1071.5" y="-78.5" font-family="Helvetica,sans-Serif" font-size="10.00">_dshutter/d_a_dshutter.h</text>
</a>
</g>
</g>
<!-- Node16&#45;&gt;Node69 -->
<g id="edge32" class="edge">
<title>Node16&#45;&gt;Node69</title>
<path fill="none" stroke="#63b8ff" d="M2483.83,-156.69C2241.23,-155.22 1405.96,-147.3 1142.5,-107 1134.54,-105.78 1126.2,-103.98 1118.14,-101.96"/>
<polygon fill="#63b8ff" stroke="#63b8ff" points="2483.73,-160.18 2493.75,-156.74 2483.77,-153.18 2483.73,-160.18"/>
</g>
<!-- Node71 -->
<g id="node29" class="node">
<title>Node71</title>
<g id="a_node29"><a xlink:href="d__a__guard__mng_8h.html" target="_top" xlink:title=" ">
<polygon fill="white" stroke="#666666" points="1301,-101.5 1152,-101.5 1152,-71.5 1301,-71.5 1301,-101.5"/>
<text text-anchor="start" x="1160" y="-89.5" font-family="Helvetica,sans-Serif" font-size="10.00">include/rel/d/a/d_a</text>
<text text-anchor="middle" x="1226.5" y="-78.5" font-family="Helvetica,sans-Serif" font-size="10.00">_guard_mng/d_a_guard_mng.h</text>
</a>
</g>
</g>
<!-- Node16&#45;&gt;Node71 -->
<g id="edge33" class="edge">
<title>Node16&#45;&gt;Node71</title>
<path fill="none" stroke="#63b8ff" d="M2483.78,-155.96C2260.47,-152.23 1540.32,-138.03 1310.5,-107 1301.3,-105.76 1291.63,-103.97 1282.26,-101.98"/>
<polygon fill="#63b8ff" stroke="#63b8ff" points="2483.72,-159.46 2493.78,-156.13 2483.84,-152.46 2483.72,-159.46"/>
</g>
<!-- Node72 -->
<g id="node30" class="node">
<title>Node72</title>
<g id="a_node30"><a xlink:href="d__a__hitobj_8h.html" target="_top" xlink:title=" ">
<polygon fill="white" stroke="#666666" points="1419.5,-101.5 1319.5,-101.5 1319.5,-71.5 1419.5,-71.5 1419.5,-101.5"/>
<text text-anchor="start" x="1327.5" y="-89.5" font-family="Helvetica,sans-Serif" font-size="10.00">include/rel/d/a/d_a</text>
<text text-anchor="middle" x="1369.5" y="-78.5" font-family="Helvetica,sans-Serif" font-size="10.00">_hitobj/d_a_hitobj.h</text>
</a>
</g>
</g>
<!-- Node16&#45;&gt;Node72 -->
<g id="edge34" class="edge">
<title>Node16&#45;&gt;Node72</title>
<path fill="none" stroke="#63b8ff" d="M2483.74,-156.42C2274.42,-154.24 1632.83,-144.58 1428.5,-107 1421.82,-105.77 1414.85,-103.97 1408.14,-101.94"/>
<polygon fill="#63b8ff" stroke="#63b8ff" points="2483.59,-159.92 2493.63,-156.52 2483.66,-152.92 2483.59,-159.92"/>
</g>
<!-- Node73 -->
<g id="node31" class="node">
<title>Node73</title>
<g id="a_node31"><a xlink:href="d__a__izumi__gate_8h.html" target="_top" xlink:title=" ">
<polygon fill="white" stroke="#666666" points="1553,-107 1438,-107 1438,-66 1553,-66 1553,-107"/>
<text text-anchor="start" x="1446" y="-95" font-family="Helvetica,sans-Serif" font-size="10.00">include/rel/d/a/d_a</text>
<text text-anchor="start" x="1446" y="-84" font-family="Helvetica,sans-Serif" font-size="10.00">_izumi_gate/d_a_izumi</text>
<text text-anchor="middle" x="1495.5" y="-73" font-family="Helvetica,sans-Serif" font-size="10.00">_gate.h</text>
</a>
</g>
</g>
<!-- Node16&#45;&gt;Node73 -->
<g id="edge35" class="edge">
<title>Node16&#45;&gt;Node73</title>
<path fill="none" stroke="#63b8ff" d="M2483.98,-155.69C2292.04,-151.58 1739.62,-137.37 1561.5,-107 1558.79,-106.54 1556.04,-106 1553.27,-105.41"/>
<polygon fill="#63b8ff" stroke="#63b8ff" points="2483.7,-159.18 2493.77,-155.9 2483.85,-152.18 2483.7,-159.18"/>
</g>
<!-- Node74 -->
<g id="node32" class="node">
<title>Node74</title>
<g id="a_node32"><a xlink:href="d__a__set__bgobj_8h.html" target="_top" xlink:title=" ">
<polygon fill="#fff0f0" stroke="red" points="1708,-101.5 1571,-101.5 1571,-71.5 1708,-71.5 1708,-101.5"/>
<text text-anchor="start" x="1579" y="-89.5" font-family="Helvetica,sans-Serif" font-size="10.00">include/rel/d/a/d_a</text>
<text text-anchor="middle" x="1639.5" y="-78.5" font-family="Helvetica,sans-Serif" font-size="10.00">_set_bgobj/d_a_set_bgobj.h</text>
</a>
</g>
</g>
<!-- Node16&#45;&gt;Node74 -->
<g id="edge36" class="edge">
<title>Node16&#45;&gt;Node74</title>
<path fill="none" stroke="#63b8ff" d="M2483.56,-157.17C2341.53,-156.6 1999.89,-150.39 1717.5,-107 1709.08,-105.71 1700.25,-103.92 1691.68,-101.96"/>
<polygon fill="#63b8ff" stroke="#63b8ff" points="2483.53,-160.67 2493.54,-157.2 2483.55,-153.67 2483.53,-160.67"/>
</g>
<!-- Node75 -->
<g id="node33" class="node">
<title>Node75</title>
<g id="a_node33"><a xlink:href="d__a__skip__2D_8h.html" target="_top" xlink:title=" ">
<polygon fill="white" stroke="#666666" points="1850.5,-101.5 1726.5,-101.5 1726.5,-71.5 1850.5,-71.5 1850.5,-101.5"/>
<text text-anchor="start" x="1734.5" y="-89.5" font-family="Helvetica,sans-Serif" font-size="10.00">include/rel/d/a/d_a</text>
<text text-anchor="middle" x="1788.5" y="-78.5" font-family="Helvetica,sans-Serif" font-size="10.00">_skip_2D/d_a_skip_2D.h</text>
</a>
</g>
</g>
<!-- Node16&#45;&gt;Node75 -->
<g id="edge37" class="edge">
<title>Node16&#45;&gt;Node75</title>
<path fill="none" stroke="#63b8ff" d="M2483.91,-156.5C2360.06,-154.62 2086.3,-145.96 1859.5,-107 1851.82,-105.68 1843.76,-103.88 1835.95,-101.91"/>
<polygon fill="#63b8ff" stroke="#63b8ff" points="2483.86,-160 2493.9,-156.64 2483.95,-153 2483.86,-160"/>
</g>
<!-- Node76 -->
<g id="node34" class="node">
<title>Node76</title>
<g id="a_node34"><a xlink:href="d__a__spinner_8h.html" target="_top" xlink:title=" ">
<polygon fill="#fff0f0" stroke="red" points="4047.5,-101.5 3931.5,-101.5 3931.5,-71.5 4047.5,-71.5 4047.5,-101.5"/>
<text text-anchor="start" x="3939.5" y="-89.5" font-family="Helvetica,sans-Serif" font-size="10.00">include/rel/d/a/d_a</text>
<text text-anchor="middle" x="3989.5" y="-78.5" font-family="Helvetica,sans-Serif" font-size="10.00">_spinner/d_a_spinner.h</text>
</a>
</g>
</g>
<!-- Node16&#45;&gt;Node76 -->
<g id="edge38" class="edge">
<title>Node16&#45;&gt;Node76</title>
<path fill="none" stroke="#63b8ff" d="M2617.1,-156.75C2855.62,-155.5 3666.67,-148.24 3922.5,-107 3930.03,-105.79 3937.92,-103.99 3945.52,-101.97"/>
<polygon fill="#63b8ff" stroke="#63b8ff" points="2617.34,-153.24 2607.36,-156.79 2617.37,-160.24 2617.34,-153.24"/>
</g>
<!-- Node78 -->
<g id="node35" class="node">
<title>Node78</title>
<g id="a_node35"><a xlink:href="d__a__swTime_8h.html" target="_top" xlink:title=" ">
<polygon fill="white" stroke="#666666" points="1990.5,-101.5 1868.5,-101.5 1868.5,-71.5 1990.5,-71.5 1990.5,-101.5"/>
<text text-anchor="start" x="1876.5" y="-89.5" font-family="Helvetica,sans-Serif" font-size="10.00">include/rel/d/a/d_a</text>
<text text-anchor="middle" x="1929.5" y="-78.5" font-family="Helvetica,sans-Serif" font-size="10.00">_swTime/d_a_swTime.h</text>
</a>
</g>
</g>
<!-- Node16&#45;&gt;Node78 -->
<g id="edge41" class="edge">
<title>Node16&#45;&gt;Node78</title>
<path fill="none" stroke="#63b8ff" d="M2484.05,-154.85C2379.98,-150.62 2172.53,-138.68 1999.5,-107 1992.18,-105.66 1984.51,-103.9 1977.05,-101.99"/>
<polygon fill="#63b8ff" stroke="#63b8ff" points="2483.67,-158.34 2493.8,-155.24 2483.94,-151.35 2483.67,-158.34"/>
</g>
<!-- Node79 -->
<g id="node36" class="node">
<title>Node79</title>
<g id="a_node36"><a xlink:href="d__a__vrbox_8h.html" target="_top" xlink:title=" ">
<polygon fill="white" stroke="#666666" points="2108.5,-101.5 2008.5,-101.5 2008.5,-71.5 2108.5,-71.5 2108.5,-101.5"/>
<text text-anchor="start" x="2016.5" y="-89.5" font-family="Helvetica,sans-Serif" font-size="10.00">include/rel/d/a/d_a</text>
<text text-anchor="middle" x="2058.5" y="-78.5" font-family="Helvetica,sans-Serif" font-size="10.00">_vrbox/d_a_vrbox.h</text>
</a>
</g>
</g>
<!-- Node16&#45;&gt;Node79 -->
<g id="edge42" class="edge">
<title>Node16&#45;&gt;Node79</title>
<path fill="none" stroke="#63b8ff" d="M2483.85,-153.54C2398.22,-148.12 2245.38,-135.2 2117.5,-107 2111.28,-105.63 2104.8,-103.85 2098.5,-101.93"/>
<polygon fill="#63b8ff" stroke="#63b8ff" points="2483.52,-157.02 2493.71,-154.14 2483.95,-150.04 2483.52,-157.02"/>
</g>
<!-- Node80 -->
<g id="node37" class="node">
<title>Node80</title>
<g id="a_node37"><a xlink:href="d__a__e__db__leaf_8h.html" target="_top" xlink:title=" ">
<polygon fill="white" stroke="#666666" points="2246,-107 2127,-107 2127,-66 2246,-66 2246,-107"/>
<text text-anchor="start" x="2135" y="-95" font-family="Helvetica,sans-Serif" font-size="10.00">include/rel/d/a/e/d</text>
<text text-anchor="start" x="2135" y="-84" font-family="Helvetica,sans-Serif" font-size="10.00">_a_e_db_leaf/d_a_e_db</text>
<text text-anchor="middle" x="2186.5" y="-73" font-family="Helvetica,sans-Serif" font-size="10.00">_leaf.h</text>
</a>
</g>
</g>
<!-- Node16&#45;&gt;Node80 -->
<g id="edge43" class="edge">
<title>Node16&#45;&gt;Node80</title>
<path fill="none" stroke="#63b8ff" d="M2484.02,-147.82C2423.97,-139.03 2333.34,-124.54 2255.5,-107 2252.46,-106.32 2249.36,-105.58 2246.24,-104.81"/>
<polygon fill="#63b8ff" stroke="#63b8ff" points="2483.34,-151.26 2493.74,-149.23 2484.35,-144.33 2483.34,-151.26"/>
</g>
<!-- Node81 -->
<g id="node38" class="node">
<title>Node81</title>
<g id="a_node38"><a xlink:href="d__a__kytag02_8h.html" target="_top" xlink:title=" ">
<polygon fill="white" stroke="#666666" points="2404.5,-101.5 2264.5,-101.5 2264.5,-71.5 2404.5,-71.5 2404.5,-101.5"/>
<text text-anchor="start" x="2272.5" y="-89.5" font-family="Helvetica,sans-Serif" font-size="10.00">include/rel/d/a/kytag</text>
<text text-anchor="middle" x="2334.5" y="-78.5" font-family="Helvetica,sans-Serif" font-size="10.00">/d_a_kytag02/d_a_kytag02.h</text>
</a>
</g>
</g>
<!-- Node16&#45;&gt;Node81 -->
<g id="edge44" class="edge">
<title>Node16&#45;&gt;Node81</title>
<path fill="none" stroke="#63b8ff" d="M2494.71,-139.05C2458.88,-127.52 2412.95,-112.74 2379.46,-101.97"/>
<polygon fill="#63b8ff" stroke="#63b8ff" points="2493.45,-142.32 2504.04,-142.05 2495.59,-135.66 2493.45,-142.32"/>
</g>
<!-- Node82 -->
<g id="node39" class="node">
<title>Node82</title>
<g id="a_node39"><a xlink:href="d__a__obj__bombf_8h.html" target="_top" xlink:title=" ">
<polygon fill="white" stroke="#666666" points="2544.5,-107 2422.5,-107 2422.5,-66 2544.5,-66 2544.5,-107"/>
<text text-anchor="start" x="2430.5" y="-95" font-family="Helvetica,sans-Serif" font-size="10.00">include/rel/d/a/obj</text>
<text text-anchor="start" x="2430.5" y="-84" font-family="Helvetica,sans-Serif" font-size="10.00">/d_a_obj_bombf/d_a_obj</text>
<text text-anchor="middle" x="2483.5" y="-73" font-family="Helvetica,sans-Serif" font-size="10.00">_bombf.h</text>
</a>
</g>
</g>
<!-- Node16&#45;&gt;Node82 -->
<g id="edge45" class="edge">
<title>Node16&#45;&gt;Node82</title>
<path fill="none" stroke="#63b8ff" d="M2528.7,-134.39C2520.32,-125.69 2510.82,-115.84 2502.7,-107.42"/>
<polygon fill="#63b8ff" stroke="#63b8ff" points="2526.11,-136.74 2535.57,-141.51 2531.15,-131.88 2526.11,-136.74"/>
</g>
<!-- Node83 -->
<g id="node40" class="node">
<title>Node83</title>
<g id="a_node40"><a xlink:href="d__a__obj__carry_8h.html" target="_top" xlink:title=" ">
<polygon fill="#fff0f0" stroke="red" points="3785.5,-107 3669.5,-107 3669.5,-66 3785.5,-66 3785.5,-107"/>
<text text-anchor="start" x="3677.5" y="-95" font-family="Helvetica,sans-Serif" font-size="10.00">include/rel/d/a/obj</text>
<text text-anchor="start" x="3677.5" y="-84" font-family="Helvetica,sans-Serif" font-size="10.00">/d_a_obj_carry/d_a_obj</text>
<text text-anchor="middle" x="3727.5" y="-73" font-family="Helvetica,sans-Serif" font-size="10.00">_carry.h</text>
</a>
</g>
</g>
<!-- Node16&#45;&gt;Node83 -->
<g id="edge46" class="edge">
<title>Node16&#45;&gt;Node83</title>
<path fill="none" stroke="#63b8ff" d="M2617.24,-155.9C2824.26,-152.18 3453.69,-138.5 3655.5,-107 3659.98,-106.3 3664.58,-105.43 3669.18,-104.44"/>
<polygon fill="#63b8ff" stroke="#63b8ff" points="2617.41,-152.39 2607.47,-156.07 2617.53,-159.39 2617.41,-152.39"/>
</g>
<!-- Node85 -->
<g id="node41" class="node">
<title>Node85</title>
<g id="a_node41"><a xlink:href="d__a__obj__cboard_8h.html" target="_top" xlink:title=" ">
<polygon fill="white" stroke="#666666" points="2670,-107 2563,-107 2563,-66 2670,-66 2670,-107"/>
<text text-anchor="start" x="2571" y="-95" font-family="Helvetica,sans-Serif" font-size="10.00">include/rel/d/a/obj</text>
<text text-anchor="start" x="2571" y="-84" font-family="Helvetica,sans-Serif" font-size="10.00">/d_a_obj_cboard/d_a</text>
<text text-anchor="middle" x="2616.5" y="-73" font-family="Helvetica,sans-Serif" font-size="10.00">_obj_cboard.h</text>
</a>
</g>
</g>
<!-- Node16&#45;&gt;Node85 -->
<g id="edge48" class="edge">
<title>Node16&#45;&gt;Node85</title>
<path fill="none" stroke="#63b8ff" d="M2571.97,-134.39C2580.23,-125.69 2589.59,-115.84 2597.59,-107.42"/>
<polygon fill="#63b8ff" stroke="#63b8ff" points="2569.57,-131.84 2565.22,-141.5 2574.64,-136.66 2569.57,-131.84"/>
</g>
<!-- Node86 -->
<g id="node42" class="node">
<title>Node86</title>
<g id="a_node42"><a xlink:href="d__a__obj__cowdoor_8h.html" target="_top" xlink:title=" ">
<polygon fill="white" stroke="#666666" points="2802.5,-107 2688.5,-107 2688.5,-66 2802.5,-66 2802.5,-107"/>
<text text-anchor="start" x="2696.5" y="-95" font-family="Helvetica,sans-Serif" font-size="10.00">include/rel/d/a/obj</text>
<text text-anchor="start" x="2696.5" y="-84" font-family="Helvetica,sans-Serif" font-size="10.00">/d_a_obj_cowdoor/d_a</text>
<text text-anchor="middle" x="2745.5" y="-73" font-family="Helvetica,sans-Serif" font-size="10.00">_obj_cowdoor.h</text>
</a>
</g>
</g>
<!-- Node16&#45;&gt;Node86 -->
<g id="edge49" class="edge">
<title>Node16&#45;&gt;Node86</title>
<path fill="none" stroke="#63b8ff" d="M2601.69,-138.75C2628.72,-129.12 2661.93,-117.29 2689.62,-107.42"/>
<polygon fill="#63b8ff" stroke="#63b8ff" points="2600.57,-135.44 2592.33,-142.09 2602.92,-142.03 2600.57,-135.44"/>
</g>
<!-- Node87 -->
<g id="node43" class="node">
<title>Node87</title>
<g id="a_node43"><a xlink:href="d__a__obj__digholl_8h.html" target="_top" xlink:title=" ">
<polygon fill="white" stroke="#666666" points="2926,-107 2821,-107 2821,-66 2926,-66 2926,-107"/>
<text text-anchor="start" x="2829" y="-95" font-family="Helvetica,sans-Serif" font-size="10.00">include/rel/d/a/obj</text>
<text text-anchor="start" x="2829" y="-84" font-family="Helvetica,sans-Serif" font-size="10.00">/d_a_obj_digholl/d_a</text>
<text text-anchor="middle" x="2873.5" y="-73" font-family="Helvetica,sans-Serif" font-size="10.00">_obj_digholl.h</text>
</a>
</g>
</g>
<!-- Node16&#45;&gt;Node87 -->
<g id="edge50" class="edge">
<title>Node16&#45;&gt;Node87</title>
<path fill="none" stroke="#63b8ff" d="M2617.19,-146.41C2670.2,-137.47 2746.07,-123.5 2811.5,-107 2814.45,-106.26 2817.47,-105.45 2820.52,-104.61"/>
<polygon fill="#63b8ff" stroke="#63b8ff" points="2616.68,-142.95 2607.39,-148.05 2617.83,-149.85 2616.68,-142.95"/>
</g>
<!-- Node88 -->
<g id="node44" class="node">
<title>Node88</title>
<g id="a_node44"><a xlink:href="d__a__obj__enemy__create_8h.html" target="_top" xlink:title=" ">
<polygon fill="white" stroke="#666666" points="3071,-107 2944,-107 2944,-66 3071,-66 3071,-107"/>
<text text-anchor="start" x="2952" y="-95" font-family="Helvetica,sans-Serif" font-size="10.00">include/rel/d/a/obj</text>
<text text-anchor="start" x="2952" y="-84" font-family="Helvetica,sans-Serif" font-size="10.00">/d_a_obj_enemy_create</text>
<text text-anchor="middle" x="3007.5" y="-73" font-family="Helvetica,sans-Serif" font-size="10.00">/d_a_obj_enemy_create.h</text>
</a>
</g>
</g>
<!-- Node16&#45;&gt;Node88 -->
<g id="edge51" class="edge">
<title>Node16&#45;&gt;Node88</title>
<path fill="none" stroke="#63b8ff" d="M2617.3,-150.99C2694.24,-143.45 2824.25,-128.8 2934.5,-107 2937.46,-106.41 2940.48,-105.78 2943.52,-105.1"/>
<polygon fill="#63b8ff" stroke="#63b8ff" points="2617,-147.51 2607.38,-151.95 2617.67,-154.47 2617,-147.51"/>
</g>
<!-- Node89 -->
<g id="node45" class="node">
<title>Node89</title>
<g id="a_node45"><a xlink:href="d__a__obj__kjgjs_8h.html" target="_top" xlink:title=" ">
<polygon fill="white" stroke="#666666" points="3205.5,-107 3089.5,-107 3089.5,-66 3205.5,-66 3205.5,-107"/>
<text text-anchor="start" x="3097.5" y="-95" font-family="Helvetica,sans-Serif" font-size="10.00">include/rel/d/a/obj</text>
<text text-anchor="start" x="3097.5" y="-84" font-family="Helvetica,sans-Serif" font-size="10.00">/d_a_obj_kjgjs/d_a_obj</text>
<text text-anchor="middle" x="3147.5" y="-73" font-family="Helvetica,sans-Serif" font-size="10.00">_kjgjs.h</text>
</a>
</g>
</g>
<!-- Node16&#45;&gt;Node89 -->
<g id="edge52" class="edge">
<title>Node16&#45;&gt;Node89</title>
<path fill="none" stroke="#63b8ff" d="M2617.02,-154.66C2717.83,-150.23 2914.97,-138.09 3079.5,-107 3082.64,-106.41 3085.84,-105.73 3089.06,-105"/>
<polygon fill="#63b8ff" stroke="#63b8ff" points="2617.15,-151.15 2607.31,-155.07 2617.45,-158.14 2617.15,-151.15"/>
</g>
<!-- Node90 -->
<g id="node46" class="node">
<title>Node90</title>
<g id="a_node46"><a xlink:href="d__a__obj__mgate_8h.html" target="_top" xlink:title=" ">
<polygon fill="white" stroke="#666666" points="3345.5,-107 3223.5,-107 3223.5,-66 3345.5,-66 3345.5,-107"/>
<text text-anchor="start" x="3231.5" y="-95" font-family="Helvetica,sans-Serif" font-size="10.00">include/rel/d/a/obj</text>
<text text-anchor="start" x="3231.5" y="-84" font-family="Helvetica,sans-Serif" font-size="10.00">/d_a_obj_mgate/d_a_obj</text>
<text text-anchor="middle" x="3284.5" y="-73" font-family="Helvetica,sans-Serif" font-size="10.00">_mgate.h</text>
</a>
</g>
</g>
<!-- Node16&#45;&gt;Node90 -->
<g id="edge53" class="edge">
<title>Node16&#45;&gt;Node90</title>
<path fill="none" stroke="#63b8ff" d="M2616.78,-156.31C2736.86,-154.1 2998.01,-144.92 3214.5,-107 3217.36,-106.5 3220.27,-105.93 3223.2,-105.31"/>
<polygon fill="#63b8ff" stroke="#63b8ff" points="2617.06,-152.8 2607.12,-156.47 2617.18,-159.8 2617.06,-152.8"/>
</g>
<!-- Node91 -->
<g id="node47" class="node">
<title>Node91</title>
<g id="a_node47"><a xlink:href="d__a__obj__onsen_8h.html" target="_top" xlink:title=" ">
<polygon fill="white" stroke="#666666" points="3485.5,-107 3363.5,-107 3363.5,-66 3485.5,-66 3485.5,-107"/>
<text text-anchor="start" x="3371.5" y="-95" font-family="Helvetica,sans-Serif" font-size="10.00">include/rel/d/a/obj</text>
<text text-anchor="start" x="3371.5" y="-84" font-family="Helvetica,sans-Serif" font-size="10.00">/d_a_obj_onsen/d_a_obj</text>
<text text-anchor="middle" x="3424.5" y="-73" font-family="Helvetica,sans-Serif" font-size="10.00">_onsen.h</text>
</a>
</g>
</g>
<!-- Node16&#45;&gt;Node91 -->
<g id="edge54" class="edge">
<title>Node16&#45;&gt;Node91</title>
<path fill="none" stroke="#63b8ff" d="M2616.74,-157.55C2754.91,-157.68 3083.54,-152.65 3354.5,-107 3357.36,-106.52 3360.27,-105.97 3363.2,-105.36"/>
<polygon fill="#63b8ff" stroke="#63b8ff" points="2617.06,-154.05 2607.06,-157.53 2617.05,-161.05 2617.06,-154.05"/>
</g>
<!-- Node92 -->
<g id="node48" class="node">
<title>Node92</title>
<g id="a_node48"><a xlink:href="d__a__obj__onsenFire_8h.html" target="_top" xlink:title=" ">
<polygon fill="white" stroke="#666666" points="3613.5,-107 3503.5,-107 3503.5,-66 3613.5,-66 3613.5,-107"/>
<text text-anchor="start" x="3511.5" y="-95" font-family="Helvetica,sans-Serif" font-size="10.00">include/rel/d/a/obj</text>
<text text-anchor="start" x="3511.5" y="-84" font-family="Helvetica,sans-Serif" font-size="10.00">/d_a_obj_onsenFire/d</text>
<text text-anchor="middle" x="3558.5" y="-73" font-family="Helvetica,sans-Serif" font-size="10.00">_a_obj_onsenFire.h</text>
</a>
</g>
</g>
<!-- Node16&#45;&gt;Node92 -->
<g id="edge55" class="edge">
<title>Node16&#45;&gt;Node92</title>
<path fill="none" stroke="#63b8ff" d="M2617.2,-155.57C2803.29,-151.25 3325.6,-136.75 3494.5,-107 3497.36,-106.5 3500.27,-105.91 3503.2,-105.25"/>
<polygon fill="#63b8ff" stroke="#63b8ff" points="2617.39,-152.07 2607.47,-155.79 2617.55,-159.06 2617.39,-152.07"/>
</g>
<!-- Node16&#45;&gt;Node179 -->
<g id="edge58" class="edge">
<title>Node16&#45;&gt;Node179</title>
<path fill="none" stroke="#63b8ff" d="M2617.17,-157.22C2921.79,-157.95 4183.25,-157.79 4574.5,-107 4591.62,-104.78 4610.38,-100.46 4625.63,-96.45"/>
<polygon fill="#63b8ff" stroke="#63b8ff" points="2617.42,-153.72 2607.41,-157.2 2617.4,-160.72 2617.42,-153.72"/>
</g>
<!-- Node42&#45;&gt;Node25 -->
<g id="edge22" class="edge">
<title>Node42&#45;&gt;Node25</title>
<path fill="none" stroke="#63b8ff" d="M87.53,-72.95C96.51,-70.15 106.27,-67.56 115.5,-66 282.36,-37.88 1506.01,-20.24 1775.21,-16.67"/>
<polygon fill="#63b8ff" stroke="#63b8ff" points="86.51,-69.6 78.12,-76.06 88.71,-76.25 86.51,-69.6"/>
</g>
<!-- Node46&#45;&gt;Node3 -->
<g id="edge25" class="edge">
<title>Node46&#45;&gt;Node3</title>
<path fill="none" stroke="#63b8ff" d="M3820.82,-65.96C3794.82,-52.47 3761.48,-35.18 3741.62,-24.88"/>
<polygon fill="#63b8ff" stroke="#63b8ff" points="3818.9,-68.91 3829.39,-70.4 3822.13,-62.69 3818.9,-68.91"/>
</g>
<!-- Node46&#45;&gt;Node7 -->
<g id="edge26" class="edge">
<title>Node46&#45;&gt;Node7</title>
<path fill="none" stroke="#63b8ff" d="M3899.91,-66.31C3929.13,-52.78 3966.91,-35.27 3989.34,-24.88"/>
<polygon fill="#63b8ff" stroke="#63b8ff" points="3898.56,-63.08 3890.95,-70.46 3901.5,-69.43 3898.56,-63.08"/>
</g>
<!-- Node46&#45;&gt;Node8 -->
<g id="edge27" class="edge">
<title>Node46&#45;&gt;Node8</title>
<path fill="none" stroke="#63b8ff" d="M3915.56,-67.89C3917.9,-67.24 3920.22,-66.61 3922.5,-66 3953.07,-57.88 4032.62,-40.11 4087.19,-28.09"/>
<polygon fill="#63b8ff" stroke="#63b8ff" points="3914.64,-64.51 3905.99,-70.62 3916.56,-71.24 3914.64,-64.51"/>
</g>
<!-- Node46&#45;&gt;Node9 -->
<g id="edge28" class="edge">
<title>Node46&#45;&gt;Node9</title>
<path fill="none" stroke="#63b8ff" d="M3860.34,-59.96C3861.23,-47.57 3862.24,-33.49 3862.88,-24.68"/>
<polygon fill="#63b8ff" stroke="#63b8ff" points="3856.87,-59.36 3859.64,-69.59 3863.85,-59.87 3856.87,-59.36"/>
</g>
<!-- Node76&#45;&gt;Node3 -->
<g id="edge39" class="edge">
<title>Node76&#45;&gt;Node3</title>
<path fill="none" stroke="#63b8ff" d="M3929.46,-67.91C3927.11,-67.26 3924.78,-66.62 3922.5,-66 3866.56,-50.8 3801.31,-34.62 3761.46,-24.91"/>
<polygon fill="#63b8ff" stroke="#63b8ff" points="3928.49,-71.28 3939.07,-70.62 3930.39,-64.54 3928.49,-71.28"/>
</g>
<!-- Node76&#45;&gt;Node4 -->
<g id="edge40" class="edge">
<title>Node76&#45;&gt;Node4</title>
<path fill="none" stroke="#63b8ff" d="M4049.1,-67.97C4051.6,-67.29 4054.07,-66.63 4056.5,-66 4116.65,-50.3 4186.87,-34.51 4230.52,-24.99"/>
<polygon fill="#63b8ff" stroke="#63b8ff" points="4048.25,-64.57 4039.54,-70.61 4050.11,-71.32 4048.25,-64.57"/>
</g>
<!-- Node83&#45;&gt;Node3 -->
<g id="edge47" class="edge">
<title>Node83&#45;&gt;Node3</title>
<path fill="none" stroke="#63b8ff" d="M3726.16,-54.43C3725.69,-43.63 3725.21,-32.34 3724.88,-24.82"/>
<polygon fill="#63b8ff" stroke="#63b8ff" points="3722.65,-54.42 3726.58,-64.26 3729.65,-54.12 3722.65,-54.42"/>
</g>
</g>
</svg>
