<?xml version="1.0" encoding="UTF-8" standalone="no"?>
<!DOCTYPE svg PUBLIC "-//W3C//DTD SVG 1.1//EN"
 "http://www.w3.org/Graphics/SVG/1.1/DTD/svg11.dtd">
<!-- Generated by graphviz version 7.0.5 (20221223.1930)
 -->
<!-- Title: include/d/d_resorce.h Pages: 1 -->
<svg width="6345pt" height="247pt"
 viewBox="0.00 0.00 6344.50 247.00" xmlns="http://www.w3.org/2000/svg" xmlns:xlink="http://www.w3.org/1999/xlink">
<g id="graph0" class="graph" transform="scale(1 1) rotate(0) translate(4 243)">
<title>include/d/d_resorce.h</title>
<!-- Node1 -->
<g id="node1" class="node">
<title>Node1</title>
<g id="a_node1"><a xlink:title=" ">
<polygon fill="#999999" stroke="#666666" points="3292,-239 3183,-239 3183,-220 3292,-220 3292,-239"/>
<text text-anchor="middle" x="3237.5" y="-227" font-family="Helvetica,sans-Serif" font-size="10.00">include/d/d_resorce.h</text>
</a>
</g>
</g>
<!-- Node2 -->
<g id="node2" class="node">
<title>Node2</title>
<g id="a_node2"><a xlink:href="d__com__inf__game_8h.html" target="_top" xlink:title=" ">
<polygon fill="#fff0f0" stroke="red" points="3251.5,-184 3141.5,-184 3141.5,-154 3251.5,-154 3251.5,-184"/>
<text text-anchor="start" x="3149.5" y="-172" font-family="Helvetica,sans-Serif" font-size="10.00">include/d/com/d_com</text>
<text text-anchor="middle" x="3196.5" y="-161" font-family="Helvetica,sans-Serif" font-size="10.00">_inf_game.h</text>
</a>
</g>
</g>
<!-- Node1&#45;&gt;Node2 -->
<g id="edge1" class="edge">
<title>Node1&#45;&gt;Node2</title>
<path fill="none" stroke="#63b8ff" d="M3224.88,-210.5C3218.94,-202.01 3211.95,-192.04 3206.39,-184.11"/>
<polygon fill="#63b8ff" stroke="#63b8ff" points="3221.98,-212.45 3230.58,-218.63 3227.71,-208.43 3221.98,-212.45"/>
</g>
<!-- Node147 -->
<g id="node50" class="node">
<title>Node147</title>
<g id="a_node50"><a xlink:href="d__resorce_8cpp.html" target="_top" xlink:title=" ">
<polygon fill="white" stroke="#666666" points="6336.5,-101.5 6234.5,-101.5 6234.5,-82.5 6336.5,-82.5 6336.5,-101.5"/>
<text text-anchor="middle" x="6285.5" y="-89.5" font-family="Helvetica,sans-Serif" font-size="10.00">src/d/d_resorce.cpp</text>
</a>
</g>
</g>
<!-- Node1&#45;&gt;Node147 -->
<g id="edge51" class="edge">
<title>Node1&#45;&gt;Node147</title>
<path fill="none" stroke="#63b8ff" d="M3303.83,-227.47C3717.15,-220.83 5931.46,-182.48 6225.5,-118 6240.71,-114.66 6256.96,-107.66 6268.7,-101.91"/>
<polygon fill="#63b8ff" stroke="#63b8ff" points="3303.87,-223.96 3293.93,-227.62 3303.98,-230.96 3303.87,-223.96"/>
</g>
<!-- Node3 -->
<g id="node3" class="node">
<title>Node3</title>
<g id="a_node3"><a xlink:href="d__a__npc_8h.html" target="_top" xlink:title=" ">
<polygon fill="#fff0f0" stroke="red" points="111,-101.5 0,-101.5 0,-82.5 111,-82.5 111,-101.5"/>
<text text-anchor="middle" x="55.5" y="-89.5" font-family="Helvetica,sans-Serif" font-size="10.00">include/d/a/d_a_npc.h</text>
</a>
</g>
</g>
<!-- Node2&#45;&gt;Node3 -->
<g id="edge2" class="edge">
<title>Node2&#45;&gt;Node3</title>
<path fill="none" stroke="#63b8ff" d="M3129.81,-167.59C2694.61,-164.81 272.14,-148.04 119.5,-118 103.23,-114.8 85.76,-107.7 73.19,-101.89"/>
<polygon fill="#63b8ff" stroke="#63b8ff" points="3129.67,-171.09 3139.7,-167.65 3129.72,-164.09 3129.67,-171.09"/>
</g>
<!-- Node10 -->
<g id="node4" class="node">
<title>Node10</title>
<g id="a_node4"><a xlink:href="d__a__npc__cd_8h.html" target="_top" xlink:title=" ">
<polygon fill="#fff0f0" stroke="red" points="256,-101.5 129,-101.5 129,-82.5 256,-82.5 256,-101.5"/>
<text text-anchor="middle" x="192.5" y="-89.5" font-family="Helvetica,sans-Serif" font-size="10.00">include/d/a/d_a_npc_cd.h</text>
</a>
</g>
</g>
<!-- Node2&#45;&gt;Node10 -->
<g id="edge3" class="edge">
<title>Node2&#45;&gt;Node10</title>
<path fill="none" stroke="#63b8ff" d="M3129.99,-168.03C2721.54,-168.06 560.8,-165.93 270.5,-118 251,-114.78 229.68,-107.69 214.26,-101.87"/>
<polygon fill="#63b8ff" stroke="#63b8ff" points="3129.77,-171.53 3139.77,-168.03 3129.76,-164.53 3129.77,-171.53"/>
</g>
<!-- Node12 -->
<g id="node5" class="node">
<title>Node12</title>
<g id="a_node5"><a xlink:href="d__a__npc__cd2_8h.html" target="_top" xlink:title=" ">
<polygon fill="#fff0f0" stroke="red" points="570.5,-30 466.5,-30 466.5,0 570.5,0 570.5,-30"/>
<text text-anchor="start" x="474.5" y="-18" font-family="Helvetica,sans-Serif" font-size="10.00">include/d/a/d_a_npc</text>
<text text-anchor="middle" x="518.5" y="-7" font-family="Helvetica,sans-Serif" font-size="10.00">_cd2.h</text>
</a>
</g>
</g>
<!-- Node2&#45;&gt;Node12 -->
<g id="edge4" class="edge">
<title>Node2&#45;&gt;Node12</title>
<path fill="none" stroke="#63b8ff" d="M3129.85,-168.13C2701.75,-168.8 354.7,-170.09 303.5,-118 287.3,-101.52 289.13,-84.1 303.5,-66 323.43,-40.9 409.09,-27.26 466.08,-20.81"/>
<polygon fill="#63b8ff" stroke="#63b8ff" points="3129.57,-171.63 3139.56,-168.11 3129.56,-164.63 3129.57,-171.63"/>
</g>
<!-- Node14 -->
<g id="node6" class="node">
<title>Node14</title>
<g id="a_node6"><a xlink:href="d__cc__uty_8h.html" target="_top" xlink:title=" ">
<polygon fill="#fff0f0" stroke="red" points="432,-101.5 313,-101.5 313,-82.5 432,-82.5 432,-101.5"/>
<text text-anchor="middle" x="372.5" y="-89.5" font-family="Helvetica,sans-Serif" font-size="10.00">include/d/cc/d_cc_uty.h</text>
</a>
</g>
</g>
<!-- Node2&#45;&gt;Node14 -->
<g id="edge5" class="edge">
<title>Node2&#45;&gt;Node14</title>
<path fill="none" stroke="#63b8ff" d="M3129.8,-168.12C2734.98,-168.65 711.96,-168.86 440.5,-118 423.32,-114.78 404.74,-107.69 391.36,-101.87"/>
<polygon fill="#63b8ff" stroke="#63b8ff" points="3129.77,-171.62 3139.76,-168.11 3129.76,-164.62 3129.77,-171.62"/>
</g>
<!-- Node25 -->
<g id="node7" class="node">
<title>Node25</title>
<g id="a_node7"><a xlink:href="d__bright__check_8h.html" target="_top" xlink:title=" ">
<polygon fill="#fff0f0" stroke="red" points="543,-107 450,-107 450,-77 543,-77 543,-107"/>
<text text-anchor="start" x="458" y="-95" font-family="Helvetica,sans-Serif" font-size="10.00">include/d/d_bright</text>
<text text-anchor="middle" x="496.5" y="-84" font-family="Helvetica,sans-Serif" font-size="10.00">_check.h</text>
</a>
</g>
</g>
<!-- Node2&#45;&gt;Node25 -->
<g id="edge6" class="edge">
<title>Node2&#45;&gt;Node25</title>
<path fill="none" stroke="#63b8ff" d="M3129.98,-167.49C2732.28,-164.36 681.94,-146.86 552.5,-118 542.52,-115.78 532.15,-111.7 523.09,-107.48"/>
<polygon fill="#63b8ff" stroke="#63b8ff" points="3129.72,-170.99 3139.74,-167.57 3129.77,-163.99 3129.72,-170.99"/>
</g>
<!-- Node27 -->
<g id="node8" class="node">
<title>Node27</title>
<g id="a_node8"><a xlink:href="d__error__msg_8h.html" target="_top" xlink:title=" ">
<polygon fill="#fff0f0" stroke="red" points="681.5,-101.5 561.5,-101.5 561.5,-82.5 681.5,-82.5 681.5,-101.5"/>
<text text-anchor="middle" x="621.5" y="-89.5" font-family="Helvetica,sans-Serif" font-size="10.00">include/d/d_error_msg.h</text>
</a>
</g>
</g>
<!-- Node2&#45;&gt;Node27 -->
<g id="edge7" class="edge">
<title>Node2&#45;&gt;Node27</title>
<path fill="none" stroke="#63b8ff" d="M3129.71,-167.97C2756.37,-167.63 936.04,-163.64 690.5,-118 673.21,-114.79 654.51,-107.77 640.95,-101.99"/>
<polygon fill="#63b8ff" stroke="#63b8ff" points="3129.58,-171.47 3139.58,-167.98 3129.59,-164.47 3129.58,-171.47"/>
</g>
<!-- Node30 -->
<g id="node9" class="node">
<title>Node30</title>
<g id="a_node9"><a xlink:href="d__npc__lib_8h.html" target="_top" xlink:title=" ">
<polygon fill="#fff0f0" stroke="red" points="807,-101.5 700,-101.5 700,-82.5 807,-82.5 807,-101.5"/>
<text text-anchor="middle" x="753.5" y="-89.5" font-family="Helvetica,sans-Serif" font-size="10.00">include/d/d_npc_lib.h</text>
</a>
</g>
</g>
<!-- Node2&#45;&gt;Node30 -->
<g id="edge8" class="edge">
<title>Node2&#45;&gt;Node30</title>
<path fill="none" stroke="#63b8ff" d="M3129.88,-168.01C2768.2,-167.89 1048.31,-164.84 816.5,-118 800.58,-114.78 783.52,-107.77 771.17,-101.99"/>
<polygon fill="#63b8ff" stroke="#63b8ff" points="3129.66,-171.51 3139.66,-168.02 3129.66,-164.51 3129.66,-171.51"/>
</g>
<!-- Node32 -->
<g id="node10" class="node">
<title>Node32</title>
<g id="a_node10"><a xlink:href="d__file__select_8h.html" target="_top" xlink:title=" ">
<polygon fill="#fff0f0" stroke="red" points="921.5,-107 825.5,-107 825.5,-77 921.5,-77 921.5,-107"/>
<text text-anchor="start" x="833.5" y="-95" font-family="Helvetica,sans-Serif" font-size="10.00">include/d/file/d_file</text>
<text text-anchor="middle" x="873.5" y="-84" font-family="Helvetica,sans-Serif" font-size="10.00">_select.h</text>
</a>
</g>
</g>
<!-- Node2&#45;&gt;Node32 -->
<g id="edge10" class="edge">
<title>Node2&#45;&gt;Node32</title>
<path fill="none" stroke="#63b8ff" d="M3129.7,-168.07C2778.09,-168.26 1149.65,-166.48 930.5,-118 920.37,-115.76 909.82,-111.68 900.6,-107.46"/>
<polygon fill="#63b8ff" stroke="#63b8ff" points="3129.67,-171.57 3139.67,-168.07 3129.67,-164.57 3129.67,-171.57"/>
</g>
<!-- Node34 -->
<g id="node11" class="node">
<title>Node34</title>
<g id="a_node11"><a xlink:href="d__msg__object_8h.html" target="_top" xlink:title=" ">
<polygon fill="#fff0f0" stroke="red" points="1049.5,-107 939.5,-107 939.5,-77 1049.5,-77 1049.5,-107"/>
<text text-anchor="start" x="947.5" y="-95" font-family="Helvetica,sans-Serif" font-size="10.00">include/d/msg/d_msg</text>
<text text-anchor="middle" x="994.5" y="-84" font-family="Helvetica,sans-Serif" font-size="10.00">_object.h</text>
</a>
</g>
</g>
<!-- Node2&#45;&gt;Node34 -->
<g id="edge11" class="edge">
<title>Node2&#45;&gt;Node34</title>
<path fill="none" stroke="#63b8ff" d="M3129.71,-167.82C2790.36,-166.72 1265.36,-159.48 1058.5,-118 1047.27,-115.75 1035.46,-111.67 1025.09,-107.45"/>
<polygon fill="#63b8ff" stroke="#63b8ff" points="3129.52,-171.32 3139.53,-167.85 3129.54,-164.32 3129.52,-171.32"/>
</g>
<!-- Node57 -->
<g id="node12" class="node">
<title>Node57</title>
<g id="a_node12"><a xlink:href="d__a__andsw_8h.html" target="_top" xlink:title=" ">
<polygon fill="white" stroke="#666666" points="1177.5,-107 1067.5,-107 1067.5,-77 1177.5,-77 1177.5,-107"/>
<text text-anchor="start" x="1075.5" y="-95" font-family="Helvetica,sans-Serif" font-size="10.00">include/rel/d/a/d_a</text>
<text text-anchor="middle" x="1122.5" y="-84" font-family="Helvetica,sans-Serif" font-size="10.00">_andsw/d_a_andsw.h</text>
</a>
</g>
</g>
<!-- Node2&#45;&gt;Node57 -->
<g id="edge12" class="edge">
<title>Node2&#45;&gt;Node57</title>
<path fill="none" stroke="#63b8ff" d="M3130.04,-167.71C2803.85,-166.12 1380.22,-156.99 1186.5,-118 1175.27,-115.74 1163.47,-111.66 1153.09,-107.44"/>
<polygon fill="#63b8ff" stroke="#63b8ff" points="3129.65,-171.21 3139.66,-167.76 3129.68,-164.21 3129.65,-171.21"/>
</g>
<!-- Node58 -->
<g id="node13" class="node">
<title>Node58</title>
<g id="a_node13"><a xlink:href="d__a__cstaF_8h.html" target="_top" xlink:title=" ">
<polygon fill="white" stroke="#666666" points="1299,-107 1196,-107 1196,-77 1299,-77 1299,-107"/>
<text text-anchor="start" x="1204" y="-95" font-family="Helvetica,sans-Serif" font-size="10.00">include/rel/d/a/d_a</text>
<text text-anchor="middle" x="1247.5" y="-84" font-family="Helvetica,sans-Serif" font-size="10.00">_cstaF/d_a_cstaF.h</text>
</a>
</g>
</g>
<!-- Node2&#45;&gt;Node58 -->
<g id="edge13" class="edge">
<title>Node2&#45;&gt;Node58</title>
<path fill="none" stroke="#63b8ff" d="M3130.04,-167.66C2816.1,-165.88 1489.35,-156.11 1308.5,-118 1297.75,-115.73 1286.48,-111.65 1276.6,-107.43"/>
<polygon fill="#63b8ff" stroke="#63b8ff" points="3129.68,-171.16 3139.7,-167.72 3129.72,-164.16 3129.68,-171.16"/>
</g>
<!-- Node59 -->
<g id="node14" class="node">
<title>Node59</title>
<g id="a_node14"><a xlink:href="d__a__dmidna_8h.html" target="_top" xlink:title=" ">
<polygon fill="white" stroke="#666666" points="1433.5,-107 1317.5,-107 1317.5,-77 1433.5,-77 1433.5,-107"/>
<text text-anchor="start" x="1325.5" y="-95" font-family="Helvetica,sans-Serif" font-size="10.00">include/rel/d/a/d_a</text>
<text text-anchor="middle" x="1375.5" y="-84" font-family="Helvetica,sans-Serif" font-size="10.00">_dmidna/d_a_dmidna.h</text>
</a>
</g>
</g>
<!-- Node2&#45;&gt;Node59 -->
<g id="edge14" class="edge">
<title>Node2&#45;&gt;Node59</title>
<path fill="none" stroke="#63b8ff" d="M3129.95,-167.39C2829.89,-164.48 1610.12,-150.73 1442.5,-118 1430.8,-115.72 1418.46,-111.63 1407.59,-107.41"/>
<polygon fill="#63b8ff" stroke="#63b8ff" points="3129.52,-170.89 3139.56,-167.49 3129.59,-163.89 3129.52,-170.89"/>
</g>
<!-- Node60 -->
<g id="node15" class="node">
<title>Node60</title>
<g id="a_node15"><a xlink:href="d__a__dshutter_8h.html" target="_top" xlink:title=" ">
<polygon fill="#fff0f0" stroke="red" points="1575.5,-107 1451.5,-107 1451.5,-77 1575.5,-77 1575.5,-107"/>
<text text-anchor="start" x="1459.5" y="-95" font-family="Helvetica,sans-Serif" font-size="10.00">include/rel/d/a/d_a</text>
<text text-anchor="middle" x="1513.5" y="-84" font-family="Helvetica,sans-Serif" font-size="10.00">_dshutter/d_a_dshutter.h</text>
</a>
</g>
</g>
<!-- Node2&#45;&gt;Node60 -->
<g id="edge15" class="edge">
<title>Node2&#45;&gt;Node60</title>
<path fill="none" stroke="#63b8ff" d="M3129.88,-167.14C2845.13,-163.3 1737.79,-146.65 1584.5,-118 1572.17,-115.69 1559.1,-111.6 1547.58,-107.39"/>
<polygon fill="#63b8ff" stroke="#63b8ff" points="3129.68,-170.64 3139.73,-167.27 3129.78,-163.64 3129.68,-170.64"/>
</g>
<!-- Node62 -->
<g id="node16" class="node">
<title>Node62</title>
<g id="a_node16"><a xlink:href="d__a__guard__mng_8h.html" target="_top" xlink:title=" ">
<polygon fill="white" stroke="#666666" points="1743,-107 1594,-107 1594,-77 1743,-77 1743,-107"/>
<text text-anchor="start" x="1602" y="-95" font-family="Helvetica,sans-Serif" font-size="10.00">include/rel/d/a/d_a</text>
<text text-anchor="middle" x="1668.5" y="-84" font-family="Helvetica,sans-Serif" font-size="10.00">_guard_mng/d_a_guard_mng.h</text>
</a>
</g>
</g>
<!-- Node2&#45;&gt;Node62 -->
<g id="edge16" class="edge">
<title>Node2&#45;&gt;Node62</title>
<path fill="none" stroke="#63b8ff" d="M3129.72,-167.94C2882.95,-167.37 2022.85,-162.17 1752.5,-118 1738.23,-115.67 1722.99,-111.63 1709.46,-107.46"/>
<polygon fill="#63b8ff" stroke="#63b8ff" points="3129.48,-171.44 3139.49,-167.96 3129.5,-164.44 3129.48,-171.44"/>
</g>
<!-- Node63 -->
<g id="node17" class="node">
<title>Node63</title>
<g id="a_node17"><a xlink:href="d__a__hitobj_8h.html" target="_top" xlink:title=" ">
<polygon fill="white" stroke="#666666" points="1861.5,-107 1761.5,-107 1761.5,-77 1861.5,-77 1861.5,-107"/>
<text text-anchor="start" x="1769.5" y="-95" font-family="Helvetica,sans-Serif" font-size="10.00">include/rel/d/a/d_a</text>
<text text-anchor="middle" x="1811.5" y="-84" font-family="Helvetica,sans-Serif" font-size="10.00">_hitobj/d_a_hitobj.h</text>
</a>
</g>
</g>
<!-- Node2&#45;&gt;Node63 -->
<g id="edge17" class="edge">
<title>Node2&#45;&gt;Node63</title>
<path fill="none" stroke="#63b8ff" d="M3130,-166.9C2878.55,-162.56 1993.75,-145.46 1870.5,-118 1860.18,-115.7 1849.4,-111.67 1839.92,-107.5"/>
<polygon fill="#63b8ff" stroke="#63b8ff" points="3129.57,-170.4 3139.63,-167.07 3129.69,-163.4 3129.57,-170.4"/>
</g>
<!-- Node64 -->
<g id="node18" class="node">
<title>Node64</title>
<g id="a_node18"><a xlink:href="d__a__izumi__gate_8h.html" target="_top" xlink:title=" ">
<polygon fill="white" stroke="#666666" points="1995,-112.5 1880,-112.5 1880,-71.5 1995,-71.5 1995,-112.5"/>
<text text-anchor="start" x="1888" y="-100.5" font-family="Helvetica,sans-Serif" font-size="10.00">include/rel/d/a/d_a</text>
<text text-anchor="start" x="1888" y="-89.5" font-family="Helvetica,sans-Serif" font-size="10.00">_izumi_gate/d_a_izumi</text>
<text text-anchor="middle" x="1937.5" y="-78.5" font-family="Helvetica,sans-Serif" font-size="10.00">_gate.h</text>
</a>
</g>
</g>
<!-- Node2&#45;&gt;Node64 -->
<g id="edge18" class="edge">
<title>Node2&#45;&gt;Node64</title>
<path fill="none" stroke="#63b8ff" d="M3129.89,-168C2911.91,-167.57 2221.35,-162.61 2003.5,-118 1997.26,-116.72 1990.83,-114.93 1984.55,-112.89"/>
<polygon fill="#63b8ff" stroke="#63b8ff" points="3129.62,-171.5 3139.62,-168.02 3129.63,-164.5 3129.62,-171.5"/>
</g>
<!-- Node65 -->
<g id="node19" class="node">
<title>Node65</title>
<g id="a_node19"><a xlink:href="d__a__set__bgobj_8h.html" target="_top" xlink:title=" ">
<polygon fill="#fff0f0" stroke="red" points="2150,-107 2013,-107 2013,-77 2150,-77 2150,-107"/>
<text text-anchor="start" x="2021" y="-95" font-family="Helvetica,sans-Serif" font-size="10.00">include/rel/d/a/d_a</text>
<text text-anchor="middle" x="2081.5" y="-84" font-family="Helvetica,sans-Serif" font-size="10.00">_set_bgobj/d_a_set_bgobj.h</text>
</a>
</g>
</g>
<!-- Node2&#45;&gt;Node65 -->
<g id="edge19" class="edge">
<title>Node2&#45;&gt;Node65</title>
<path fill="none" stroke="#63b8ff" d="M3129.8,-167.06C2931.36,-163.91 2346.87,-151.94 2159.5,-118 2146.21,-115.59 2132.04,-111.53 2119.47,-107.37"/>
<polygon fill="#63b8ff" stroke="#63b8ff" points="3129.63,-170.56 3139.68,-167.22 3129.74,-163.56 3129.63,-170.56"/>
</g>
<!-- Node66 -->
<g id="node20" class="node">
<title>Node66</title>
<g id="a_node20"><a xlink:href="d__a__skip__2D_8h.html" target="_top" xlink:title=" ">
<polygon fill="white" stroke="#666666" points="2292.5,-107 2168.5,-107 2168.5,-77 2292.5,-77 2292.5,-107"/>
<text text-anchor="start" x="2176.5" y="-95" font-family="Helvetica,sans-Serif" font-size="10.00">include/rel/d/a/d_a</text>
<text text-anchor="middle" x="2230.5" y="-84" font-family="Helvetica,sans-Serif" font-size="10.00">_skip_2D/d_a_skip_2D.h</text>
</a>
</g>
</g>
<!-- Node2&#45;&gt;Node66 -->
<g id="edge20" class="edge">
<title>Node2&#45;&gt;Node66</title>
<path fill="none" stroke="#63b8ff" d="M3129.84,-166.71C2950.39,-162.86 2459.98,-149.66 2301.5,-118 2289.45,-115.59 2276.68,-111.58 2265.34,-107.47"/>
<polygon fill="#63b8ff" stroke="#63b8ff" points="3129.62,-170.21 3139.69,-166.92 3129.77,-163.21 3129.62,-170.21"/>
</g>
<!-- Node67 -->
<g id="node21" class="node">
<title>Node67</title>
<g id="a_node21"><a xlink:href="d__a__spinner_8h.html" target="_top" xlink:title=" ">
<polygon fill="#fff0f0" stroke="red" points="2426.5,-107 2310.5,-107 2310.5,-77 2426.5,-77 2426.5,-107"/>
<text text-anchor="start" x="2318.5" y="-95" font-family="Helvetica,sans-Serif" font-size="10.00">include/rel/d/a/d_a</text>
<text text-anchor="middle" x="2368.5" y="-84" font-family="Helvetica,sans-Serif" font-size="10.00">_spinner/d_a_spinner.h</text>
</a>
</g>
</g>
<!-- Node2&#45;&gt;Node67 -->
<g id="edge21" class="edge">
<title>Node2&#45;&gt;Node67</title>
<path fill="none" stroke="#63b8ff" d="M3129.92,-166.11C2969.88,-161.17 2567.14,-146.25 2435.5,-118 2424.09,-115.55 2412.02,-111.53 2401.33,-107.42"/>
<polygon fill="#63b8ff" stroke="#63b8ff" points="3129.4,-169.6 3139.51,-166.4 3129.62,-162.6 3129.4,-169.6"/>
</g>
<!-- Node70 -->
<g id="node22" class="node">
<title>Node70</title>
<g id="a_node22"><a xlink:href="d__a__swTime_8h.html" target="_top" xlink:title=" ">
<polygon fill="white" stroke="#666666" points="2566.5,-107 2444.5,-107 2444.5,-77 2566.5,-77 2566.5,-107"/>
<text text-anchor="start" x="2452.5" y="-95" font-family="Helvetica,sans-Serif" font-size="10.00">include/rel/d/a/d_a</text>
<text text-anchor="middle" x="2505.5" y="-84" font-family="Helvetica,sans-Serif" font-size="10.00">_swTime/d_a_swTime.h</text>
</a>
</g>
</g>
<!-- Node2&#45;&gt;Node70 -->
<g id="edge22" class="edge">
<title>Node2&#45;&gt;Node70</title>
<path fill="none" stroke="#63b8ff" d="M3130.05,-168.33C3015.51,-167.65 2774.09,-160.68 2575.5,-118 2563.77,-115.48 2551.32,-111.49 2540.23,-107.43"/>
<polygon fill="#63b8ff" stroke="#63b8ff" points="3129.86,-171.83 3139.88,-168.37 3129.89,-164.83 3129.86,-171.83"/>
</g>
<!-- Node71 -->
<g id="node23" class="node">
<title>Node71</title>
<g id="a_node23"><a xlink:href="d__a__vrbox_8h.html" target="_top" xlink:title=" ">
<polygon fill="white" stroke="#666666" points="2684.5,-107 2584.5,-107 2584.5,-77 2684.5,-77 2684.5,-107"/>
<text text-anchor="start" x="2592.5" y="-95" font-family="Helvetica,sans-Serif" font-size="10.00">include/rel/d/a/d_a</text>
<text text-anchor="middle" x="2634.5" y="-84" font-family="Helvetica,sans-Serif" font-size="10.00">_vrbox/d_a_vrbox.h</text>
</a>
</g>
</g>
<!-- Node2&#45;&gt;Node71 -->
<g id="edge23" class="edge">
<title>Node2&#45;&gt;Node71</title>
<path fill="none" stroke="#63b8ff" d="M3129.8,-167.72C3032.42,-165.89 2846.29,-157 2693.5,-118 2683.48,-115.44 2672.95,-111.44 2663.61,-107.39"/>
<polygon fill="#63b8ff" stroke="#63b8ff" points="3129.66,-171.22 3139.71,-167.88 3129.77,-164.22 3129.66,-171.22"/>
</g>
<!-- Node72 -->
<g id="node24" class="node">
<title>Node72</title>
<g id="a_node24"><a xlink:href="d__a__e__db__leaf_8h.html" target="_top" xlink:title=" ">
<polygon fill="white" stroke="#666666" points="2822,-112.5 2703,-112.5 2703,-71.5 2822,-71.5 2822,-112.5"/>
<text text-anchor="start" x="2711" y="-100.5" font-family="Helvetica,sans-Serif" font-size="10.00">include/rel/d/a/e/d</text>
<text text-anchor="start" x="2711" y="-89.5" font-family="Helvetica,sans-Serif" font-size="10.00">_a_e_db_leaf/d_a_e_db</text>
<text text-anchor="middle" x="2762.5" y="-78.5" font-family="Helvetica,sans-Serif" font-size="10.00">_leaf.h</text>
</a>
</g>
</g>
<!-- Node2&#45;&gt;Node72 -->
<g id="edge24" class="edge">
<title>Node2&#45;&gt;Node72</title>
<path fill="none" stroke="#63b8ff" d="M3129.67,-163.11C3055.86,-156.73 2933.92,-143.27 2831.5,-118 2825.69,-116.57 2819.68,-114.82 2813.75,-112.91"/>
<polygon fill="#63b8ff" stroke="#63b8ff" points="3129.32,-166.59 3139.58,-163.95 3129.91,-159.62 3129.32,-166.59"/>
</g>
<!-- Node73 -->
<g id="node25" class="node">
<title>Node73</title>
<g id="a_node25"><a xlink:href="d__a__kytag02_8h.html" target="_top" xlink:title=" ">
<polygon fill="white" stroke="#666666" points="2980.5,-107 2840.5,-107 2840.5,-77 2980.5,-77 2980.5,-107"/>
<text text-anchor="start" x="2848.5" y="-95" font-family="Helvetica,sans-Serif" font-size="10.00">include/rel/d/a/kytag</text>
<text text-anchor="middle" x="2910.5" y="-84" font-family="Helvetica,sans-Serif" font-size="10.00">/d_a_kytag02/d_a_kytag02.h</text>
</a>
</g>
</g>
<!-- Node2&#45;&gt;Node73 -->
<g id="edge25" class="edge">
<title>Node2&#45;&gt;Node73</title>
<path fill="none" stroke="#63b8ff" d="M3130.16,-153.21C3089.4,-143.82 3036.21,-131.02 2989.5,-118 2978,-114.8 2965.65,-111.04 2954.21,-107.43"/>
<polygon fill="#63b8ff" stroke="#63b8ff" points="3129.31,-156.61 3139.84,-155.43 3130.88,-149.79 3129.31,-156.61"/>
</g>
<!-- Node74 -->
<g id="node26" class="node">
<title>Node74</title>
<g id="a_node26"><a xlink:href="d__a__obj__bombf_8h.html" target="_top" xlink:title=" ">
<polygon fill="white" stroke="#666666" points="3120.5,-112.5 2998.5,-112.5 2998.5,-71.5 3120.5,-71.5 3120.5,-112.5"/>
<text text-anchor="start" x="3006.5" y="-100.5" font-family="Helvetica,sans-Serif" font-size="10.00">include/rel/d/a/obj</text>
<text text-anchor="start" x="3006.5" y="-89.5" font-family="Helvetica,sans-Serif" font-size="10.00">/d_a_obj_bombf/d_a_obj</text>
<text text-anchor="middle" x="3059.5" y="-78.5" font-family="Helvetica,sans-Serif" font-size="10.00">_bombf.h</text>
</a>
</g>
</g>
<!-- Node2&#45;&gt;Node74 -->
<g id="edge26" class="edge">
<title>Node2&#45;&gt;Node74</title>
<path fill="none" stroke="#63b8ff" d="M3160.18,-148.12C3140.32,-137.25 3115.8,-123.82 3095.93,-112.94"/>
<polygon fill="#63b8ff" stroke="#63b8ff" points="3158.31,-151.08 3168.76,-152.81 3161.67,-144.94 3158.31,-151.08"/>
</g>
<!-- Node75 -->
<g id="node27" class="node">
<title>Node75</title>
<g id="a_node27"><a xlink:href="d__a__obj__carry_8h.html" target="_top" xlink:title=" ">
<polygon fill="#fff0f0" stroke="red" points="3254.5,-112.5 3138.5,-112.5 3138.5,-71.5 3254.5,-71.5 3254.5,-112.5"/>
<text text-anchor="start" x="3146.5" y="-100.5" font-family="Helvetica,sans-Serif" font-size="10.00">include/rel/d/a/obj</text>
<text text-anchor="start" x="3146.5" y="-89.5" font-family="Helvetica,sans-Serif" font-size="10.00">/d_a_obj_carry/d_a_obj</text>
<text text-anchor="middle" x="3196.5" y="-78.5" font-family="Helvetica,sans-Serif" font-size="10.00">_carry.h</text>
</a>
</g>
</g>
<!-- Node2&#45;&gt;Node75 -->
<g id="edge27" class="edge">
<title>Node2&#45;&gt;Node75</title>
<path fill="none" stroke="#63b8ff" d="M3196.5,-142.18C3196.5,-132.56 3196.5,-121.8 3196.5,-112.8"/>
<polygon fill="#63b8ff" stroke="#63b8ff" points="3193,-142.03 3196.5,-152.03 3200,-142.03 3193,-142.03"/>
</g>
<!-- Node77 -->
<g id="node28" class="node">
<title>Node77</title>
<g id="a_node28"><a xlink:href="d__a__obj__cboard_8h.html" target="_top" xlink:title=" ">
<polygon fill="white" stroke="#666666" points="3380,-112.5 3273,-112.5 3273,-71.5 3380,-71.5 3380,-112.5"/>
<text text-anchor="start" x="3281" y="-100.5" font-family="Helvetica,sans-Serif" font-size="10.00">include/rel/d/a/obj</text>
<text text-anchor="start" x="3281" y="-89.5" font-family="Helvetica,sans-Serif" font-size="10.00">/d_a_obj_cboard/d_a</text>
<text text-anchor="middle" x="3326.5" y="-78.5" font-family="Helvetica,sans-Serif" font-size="10.00">_obj_cboard.h</text>
</a>
</g>
</g>
<!-- Node2&#45;&gt;Node77 -->
<g id="edge28" class="edge">
<title>Node2&#45;&gt;Node77</title>
<path fill="none" stroke="#63b8ff" d="M3231.52,-147.79C3250.35,-136.94 3273.46,-123.6 3292.17,-112.8"/>
<polygon fill="#63b8ff" stroke="#63b8ff" points="3229.79,-144.75 3222.88,-152.78 3233.29,-150.82 3229.79,-144.75"/>
</g>
<!-- Node78 -->
<g id="node29" class="node">
<title>Node78</title>
<g id="a_node29"><a xlink:href="d__a__obj__cowdoor_8h.html" target="_top" xlink:title=" ">
<polygon fill="white" stroke="#666666" points="3512.5,-112.5 3398.5,-112.5 3398.5,-71.5 3512.5,-71.5 3512.5,-112.5"/>
<text text-anchor="start" x="3406.5" y="-100.5" font-family="Helvetica,sans-Serif" font-size="10.00">include/rel/d/a/obj</text>
<text text-anchor="start" x="3406.5" y="-89.5" font-family="Helvetica,sans-Serif" font-size="10.00">/d_a_obj_cowdoor/d_a</text>
<text text-anchor="middle" x="3455.5" y="-78.5" font-family="Helvetica,sans-Serif" font-size="10.00">_obj_cowdoor.h</text>
</a>
</g>
</g>
<!-- Node2&#45;&gt;Node78 -->
<g id="edge29" class="edge">
<title>Node2&#45;&gt;Node78</title>
<path fill="none" stroke="#63b8ff" d="M3262.68,-152.54C3299.91,-143.4 3347.1,-131.08 3388.5,-118 3393.47,-116.43 3398.62,-114.7 3403.74,-112.91"/>
<polygon fill="#63b8ff" stroke="#63b8ff" points="3262.32,-149.02 3253.43,-154.79 3263.98,-155.83 3262.32,-149.02"/>
</g>
<!-- Node79 -->
<g id="node30" class="node">
<title>Node79</title>
<g id="a_node30"><a xlink:href="d__a__obj__digholl_8h.html" target="_top" xlink:title=" ">
<polygon fill="white" stroke="#666666" points="3636,-112.5 3531,-112.5 3531,-71.5 3636,-71.5 3636,-112.5"/>
<text text-anchor="start" x="3539" y="-100.5" font-family="Helvetica,sans-Serif" font-size="10.00">include/rel/d/a/obj</text>
<text text-anchor="start" x="3539" y="-89.5" font-family="Helvetica,sans-Serif" font-size="10.00">/d_a_obj_digholl/d_a</text>
<text text-anchor="middle" x="3583.5" y="-78.5" font-family="Helvetica,sans-Serif" font-size="10.00">_obj_digholl.h</text>
</a>
</g>
</g>
<!-- Node2&#45;&gt;Node79 -->
<g id="edge30" class="edge">
<title>Node2&#45;&gt;Node79</title>
<path fill="none" stroke="#63b8ff" d="M3263.06,-162.29C3329.42,-155.55 3433.81,-142.08 3521.5,-118 3526.76,-116.56 3532.18,-114.8 3537.52,-112.89"/>
<polygon fill="#63b8ff" stroke="#63b8ff" points="3263.05,-158.78 3253.45,-163.25 3263.74,-165.74 3263.05,-158.78"/>
</g>
<!-- Node80 -->
<g id="node31" class="node">
<title>Node80</title>
<g id="a_node31"><a xlink:href="d__a__obj__enemy__create_8h.html" target="_top" xlink:title=" ">
<polygon fill="white" stroke="#666666" points="3781,-112.5 3654,-112.5 3654,-71.5 3781,-71.5 3781,-112.5"/>
<text text-anchor="start" x="3662" y="-100.5" font-family="Helvetica,sans-Serif" font-size="10.00">include/rel/d/a/obj</text>
<text text-anchor="start" x="3662" y="-89.5" font-family="Helvetica,sans-Serif" font-size="10.00">/d_a_obj_enemy_create</text>
<text text-anchor="middle" x="3717.5" y="-78.5" font-family="Helvetica,sans-Serif" font-size="10.00">/d_a_obj_enemy_create.h</text>
</a>
</g>
</g>
<!-- Node2&#45;&gt;Node80 -->
<g id="edge31" class="edge">
<title>Node2&#45;&gt;Node80</title>
<path fill="none" stroke="#63b8ff" d="M3263.41,-165.1C3351.65,-160.24 3511.3,-147.86 3644.5,-118 3650.77,-116.59 3657.26,-114.84 3663.66,-112.91"/>
<polygon fill="#63b8ff" stroke="#63b8ff" points="3263.28,-161.6 3253.48,-165.63 3263.65,-168.59 3263.28,-161.6"/>
</g>
<!-- Node81 -->
<g id="node32" class="node">
<title>Node81</title>
<g id="a_node32"><a xlink:href="d__a__obj__kjgjs_8h.html" target="_top" xlink:title=" ">
<polygon fill="white" stroke="#666666" points="3915.5,-112.5 3799.5,-112.5 3799.5,-71.5 3915.5,-71.5 3915.5,-112.5"/>
<text text-anchor="start" x="3807.5" y="-100.5" font-family="Helvetica,sans-Serif" font-size="10.00">include/rel/d/a/obj</text>
<text text-anchor="start" x="3807.5" y="-89.5" font-family="Helvetica,sans-Serif" font-size="10.00">/d_a_obj_kjgjs/d_a_obj</text>
<text text-anchor="middle" x="3857.5" y="-78.5" font-family="Helvetica,sans-Serif" font-size="10.00">_kjgjs.h</text>
</a>
</g>
</g>
<!-- Node2&#45;&gt;Node81 -->
<g id="edge32" class="edge">
<title>Node2&#45;&gt;Node81</title>
<path fill="none" stroke="#63b8ff" d="M3262.89,-168.16C3373.46,-167.16 3601.72,-159.64 3789.5,-118 3795.52,-116.67 3801.72,-114.93 3807.82,-112.99"/>
<polygon fill="#63b8ff" stroke="#63b8ff" points="3263.09,-164.66 3253.12,-168.24 3263.14,-171.66 3263.09,-164.66"/>
</g>
<!-- Node82 -->
<g id="node33" class="node">
<title>Node82</title>
<g id="a_node33"><a xlink:href="d__a__obj__mgate_8h.html" target="_top" xlink:title=" ">
<polygon fill="white" stroke="#666666" points="4055.5,-112.5 3933.5,-112.5 3933.5,-71.5 4055.5,-71.5 4055.5,-112.5"/>
<text text-anchor="start" x="3941.5" y="-100.5" font-family="Helvetica,sans-Serif" font-size="10.00">include/rel/d/a/obj</text>
<text text-anchor="start" x="3941.5" y="-89.5" font-family="Helvetica,sans-Serif" font-size="10.00">/d_a_obj_mgate/d_a_obj</text>
<text text-anchor="middle" x="3994.5" y="-78.5" font-family="Helvetica,sans-Serif" font-size="10.00">_mgate.h</text>
</a>
</g>
</g>
<!-- Node2&#45;&gt;Node82 -->
<g id="edge33" class="edge">
<title>Node2&#45;&gt;Node82</title>
<path fill="none" stroke="#63b8ff" d="M3263.13,-165.76C3418.13,-160.17 3799.2,-144.16 3924.5,-118 3930.82,-116.68 3937.34,-114.92 3943.74,-112.95"/>
<polygon fill="#63b8ff" stroke="#63b8ff" points="3263.31,-162.25 3253.44,-166.11 3263.56,-169.25 3263.31,-162.25"/>
</g>
<!-- Node83 -->
<g id="node34" class="node">
<title>Node83</title>
<g id="a_node34"><a xlink:href="d__a__obj__onsen_8h.html" target="_top" xlink:title=" ">
<polygon fill="white" stroke="#666666" points="4195.5,-112.5 4073.5,-112.5 4073.5,-71.5 4195.5,-71.5 4195.5,-112.5"/>
<text text-anchor="start" x="4081.5" y="-100.5" font-family="Helvetica,sans-Serif" font-size="10.00">include/rel/d/a/obj</text>
<text text-anchor="start" x="4081.5" y="-89.5" font-family="Helvetica,sans-Serif" font-size="10.00">/d_a_obj_onsen/d_a_obj</text>
<text text-anchor="middle" x="4134.5" y="-78.5" font-family="Helvetica,sans-Serif" font-size="10.00">_onsen.h</text>
</a>
</g>
</g>
<!-- Node2&#45;&gt;Node83 -->
<g id="edge34" class="edge">
<title>Node2&#45;&gt;Node83</title>
<path fill="none" stroke="#63b8ff" d="M3263.27,-166.61C3439.04,-162.57 3911.5,-149.06 4064.5,-118 4070.95,-116.69 4077.61,-114.91 4084.14,-112.9"/>
<polygon fill="#63b8ff" stroke="#63b8ff" points="3263.32,-163.11 3253.4,-166.84 3263.47,-170.11 3263.32,-163.11"/>
</g>
<!-- Node84 -->
<g id="node35" class="node">
<title>Node84</title>
<g id="a_node35"><a xlink:href="d__a__obj__onsenFire_8h.html" target="_top" xlink:title=" ">
<polygon fill="white" stroke="#666666" points="4323.5,-112.5 4213.5,-112.5 4213.5,-71.5 4323.5,-71.5 4323.5,-112.5"/>
<text text-anchor="start" x="4221.5" y="-100.5" font-family="Helvetica,sans-Serif" font-size="10.00">include/rel/d/a/obj</text>
<text text-anchor="start" x="4221.5" y="-89.5" font-family="Helvetica,sans-Serif" font-size="10.00">/d_a_obj_onsenFire/d</text>
<text text-anchor="middle" x="4268.5" y="-78.5" font-family="Helvetica,sans-Serif" font-size="10.00">_a_obj_onsenFire.h</text>
</a>
</g>
</g>
<!-- Node2&#45;&gt;Node84 -->
<g id="edge35" class="edge">
<title>Node2&#45;&gt;Node84</title>
<path fill="none" stroke="#63b8ff" d="M3263.41,-167.48C3458.48,-165.54 4024.11,-156.63 4204.5,-118 4210.45,-116.73 4216.57,-114.97 4222.55,-112.97"/>
<polygon fill="#63b8ff" stroke="#63b8ff" points="3263.41,-163.98 3253.44,-167.58 3263.48,-170.98 3263.41,-163.98"/>
</g>
<!-- Node85 -->
<g id="node36" class="node">
<title>Node85</title>
<g id="a_node36"><a xlink:href="d__a__obj__prop_8h.html" target="_top" xlink:title=" ">
<polygon fill="white" stroke="#666666" points="4455.5,-112.5 4341.5,-112.5 4341.5,-71.5 4455.5,-71.5 4455.5,-112.5"/>
<text text-anchor="start" x="4349.5" y="-100.5" font-family="Helvetica,sans-Serif" font-size="10.00">include/rel/d/a/obj</text>
<text text-anchor="start" x="4349.5" y="-89.5" font-family="Helvetica,sans-Serif" font-size="10.00">/d_a_obj_prop/d_a_obj</text>
<text text-anchor="middle" x="4398.5" y="-78.5" font-family="Helvetica,sans-Serif" font-size="10.00">_prop.h</text>
</a>
</g>
</g>
<!-- Node2&#45;&gt;Node85 -->
<g id="edge36" class="edge">
<title>Node2&#45;&gt;Node85</title>
<path fill="none" stroke="#63b8ff" d="M3263.44,-167.83C3474.81,-166.88 4126.24,-160.46 4332.5,-118 4338.62,-116.74 4344.92,-114.99 4351.09,-112.99"/>
<polygon fill="#63b8ff" stroke="#63b8ff" points="3263.42,-164.33 3253.44,-167.88 3263.45,-171.33 3263.42,-164.33"/>
</g>
<!-- Node86 -->
<g id="node37" class="node">
<title>Node86</title>
<g id="a_node37"><a xlink:href="d__a__obj__rcircle_8h.html" target="_top" xlink:title=" ">
<polygon fill="white" stroke="#666666" points="4577.5,-112.5 4473.5,-112.5 4473.5,-71.5 4577.5,-71.5 4577.5,-112.5"/>
<text text-anchor="start" x="4481.5" y="-100.5" font-family="Helvetica,sans-Serif" font-size="10.00">include/rel/d/a/obj</text>
<text text-anchor="start" x="4481.5" y="-89.5" font-family="Helvetica,sans-Serif" font-size="10.00">/d_a_obj_rcircle/d_a</text>
<text text-anchor="middle" x="4525.5" y="-78.5" font-family="Helvetica,sans-Serif" font-size="10.00">_obj_rcircle.h</text>
</a>
</g>
</g>
<!-- Node2&#45;&gt;Node86 -->
<g id="edge37" class="edge">
<title>Node2&#45;&gt;Node86</title>
<path fill="none" stroke="#63b8ff" d="M3263.07,-168.43C3490.02,-169.4 4232.14,-168.54 4464.5,-118 4470.32,-116.74 4476.29,-114.95 4482.11,-112.91"/>
<polygon fill="#63b8ff" stroke="#63b8ff" points="3263.24,-164.93 3253.22,-168.38 3263.2,-171.93 3263.24,-164.93"/>
</g>
<!-- Node87 -->
<g id="node38" class="node">
<title>Node87</title>
<g id="a_node38"><a xlink:href="d__a__obj__smoke_8h.html" target="_top" xlink:title=" ">
<polygon fill="white" stroke="#666666" points="4721,-112.5 4596,-112.5 4596,-71.5 4721,-71.5 4721,-112.5"/>
<text text-anchor="start" x="4604" y="-100.5" font-family="Helvetica,sans-Serif" font-size="10.00">include/rel/d/a/obj</text>
<text text-anchor="start" x="4604" y="-89.5" font-family="Helvetica,sans-Serif" font-size="10.00">/d_a_obj_smoke/d_a_obj</text>
<text text-anchor="middle" x="4658.5" y="-78.5" font-family="Helvetica,sans-Serif" font-size="10.00">_smoke.h</text>
</a>
</g>
</g>
<!-- Node2&#45;&gt;Node87 -->
<g id="edge38" class="edge">
<title>Node2&#45;&gt;Node87</title>
<path fill="none" stroke="#63b8ff" d="M3263.23,-168.23C3504.11,-168.63 4328.16,-166.37 4586.5,-118 4593.26,-116.73 4600.25,-114.95 4607.09,-112.91"/>
<polygon fill="#63b8ff" stroke="#63b8ff" points="3263.39,-164.73 3253.38,-168.21 3263.38,-171.73 3263.39,-164.73"/>
</g>
<!-- Node88 -->
<g id="node39" class="node">
<title>Node88</title>
<g id="a_node39"><a xlink:href="d__a__obj__stone_8h.html" target="_top" xlink:title=" ">
<polygon fill="white" stroke="#666666" points="4858,-112.5 4739,-112.5 4739,-71.5 4858,-71.5 4858,-112.5"/>
<text text-anchor="start" x="4747" y="-100.5" font-family="Helvetica,sans-Serif" font-size="10.00">include/rel/d/a/obj</text>
<text text-anchor="start" x="4747" y="-89.5" font-family="Helvetica,sans-Serif" font-size="10.00">/d_a_obj_stone/d_a_obj</text>
<text text-anchor="middle" x="4798.5" y="-78.5" font-family="Helvetica,sans-Serif" font-size="10.00">_stone.h</text>
</a>
</g>
</g>
<!-- Node2&#45;&gt;Node88 -->
<g id="edge39" class="edge">
<title>Node2&#45;&gt;Node88</title>
<path fill="none" stroke="#63b8ff" d="M3262.99,-167.06C3538.7,-163.01 4584.41,-145.92 4729.5,-118 4736.01,-116.75 4742.72,-114.97 4749.28,-112.94"/>
<polygon fill="#63b8ff" stroke="#63b8ff" points="3263.06,-163.56 3253.11,-167.21 3263.16,-170.56 3263.06,-163.56"/>
</g>
<!-- Node89 -->
<g id="node40" class="node">
<title>Node89</title>
<g id="a_node40"><a xlink:href="d__a__obj__stoneMark_8h.html" target="_top" xlink:title=" ">
<polygon fill="white" stroke="#666666" points="4989,-112.5 4876,-112.5 4876,-71.5 4989,-71.5 4989,-112.5"/>
<text text-anchor="start" x="4884" y="-100.5" font-family="Helvetica,sans-Serif" font-size="10.00">include/rel/d/a/obj</text>
<text text-anchor="start" x="4884" y="-89.5" font-family="Helvetica,sans-Serif" font-size="10.00">/d_a_obj_stoneMark/d</text>
<text text-anchor="middle" x="4932.5" y="-78.5" font-family="Helvetica,sans-Serif" font-size="10.00">_a_obj_stoneMark.h</text>
</a>
</g>
</g>
<!-- Node2&#45;&gt;Node89 -->
<g id="edge40" class="edge">
<title>Node2&#45;&gt;Node89</title>
<path fill="none" stroke="#63b8ff" d="M3263.15,-167.31C3554.38,-164.11 4707.61,-149.55 4866.5,-118 4872.75,-116.76 4879.18,-114.99 4885.47,-112.96"/>
<polygon fill="#63b8ff" stroke="#63b8ff" points="3263.42,-163.81 3253.46,-167.41 3263.5,-170.8 3263.42,-163.81"/>
</g>
<!-- Node90 -->
<g id="node41" class="node">
<title>Node90</title>
<g id="a_node41"><a xlink:href="d__a__obj__tmoon_8h.html" target="_top" xlink:title=" ">
<polygon fill="white" stroke="#666666" points="5129.5,-112.5 5007.5,-112.5 5007.5,-71.5 5129.5,-71.5 5129.5,-112.5"/>
<text text-anchor="start" x="5015.5" y="-100.5" font-family="Helvetica,sans-Serif" font-size="10.00">include/rel/d/a/obj</text>
<text text-anchor="start" x="5015.5" y="-89.5" font-family="Helvetica,sans-Serif" font-size="10.00">/d_a_obj_tmoon/d_a_obj</text>
<text text-anchor="middle" x="5068.5" y="-78.5" font-family="Helvetica,sans-Serif" font-size="10.00">_tmoon.h</text>
</a>
</g>
</g>
<!-- Node2&#45;&gt;Node90 -->
<g id="edge41" class="edge">
<title>Node2&#45;&gt;Node90</title>
<path fill="none" stroke="#63b8ff" d="M3262.83,-167.4C3567.56,-164.45 4825.68,-150.41 4998.5,-118 5005.1,-116.76 5011.9,-115 5018.56,-112.97"/>
<polygon fill="#63b8ff" stroke="#63b8ff" points="3263.04,-163.89 3253.07,-167.49 3263.1,-170.89 3263.04,-163.89"/>
</g>
<!-- Node91 -->
<g id="node42" class="node">
<title>Node91</title>
<g id="a_node42"><a xlink:href="d__a__obj__vground_8h.html" target="_top" xlink:title=" ">
<polygon fill="white" stroke="#666666" points="5259.5,-112.5 5147.5,-112.5 5147.5,-71.5 5259.5,-71.5 5259.5,-112.5"/>
<text text-anchor="start" x="5155.5" y="-100.5" font-family="Helvetica,sans-Serif" font-size="10.00">include/rel/d/a/obj</text>
<text text-anchor="start" x="5155.5" y="-89.5" font-family="Helvetica,sans-Serif" font-size="10.00">/d_a_obj_vground/d_a</text>
<text text-anchor="middle" x="5203.5" y="-78.5" font-family="Helvetica,sans-Serif" font-size="10.00">_obj_vground.h</text>
</a>
</g>
</g>
<!-- Node2&#45;&gt;Node91 -->
<g id="edge42" class="edge">
<title>Node2&#45;&gt;Node91</title>
<path fill="none" stroke="#63b8ff" d="M3263.26,-167.63C3583.2,-165.67 4951.75,-155.17 5138.5,-118 5144.67,-116.77 5151.01,-115.01 5157.2,-112.99"/>
<polygon fill="#63b8ff" stroke="#63b8ff" points="3263.38,-164.13 3253.4,-167.69 3263.42,-171.13 3263.38,-164.13"/>
</g>
<!-- Node92 -->
<g id="node43" class="node">
<title>Node92</title>
<g id="a_node43"><a xlink:href="d__a__obj__web0_8h.html" target="_top" xlink:title=" ">
<polygon fill="white" stroke="#666666" points="5397,-112.5 5278,-112.5 5278,-71.5 5397,-71.5 5397,-112.5"/>
<text text-anchor="start" x="5286" y="-100.5" font-family="Helvetica,sans-Serif" font-size="10.00">include/rel/d/a/obj</text>
<text text-anchor="start" x="5286" y="-89.5" font-family="Helvetica,sans-Serif" font-size="10.00">/d_a_obj_web0/d_a_obj</text>
<text text-anchor="middle" x="5337.5" y="-78.5" font-family="Helvetica,sans-Serif" font-size="10.00">_web0.h</text>
</a>
</g>
</g>
<!-- Node2&#45;&gt;Node92 -->
<g id="edge43" class="edge">
<title>Node2&#45;&gt;Node92</title>
<path fill="none" stroke="#63b8ff" d="M3263.35,-167.67C3596.34,-165.85 5067.98,-155.7 5268.5,-118 5275.01,-116.78 5281.72,-115.02 5288.29,-112.99"/>
<polygon fill="#63b8ff" stroke="#63b8ff" points="3263.48,-164.17 3253.5,-167.72 3263.52,-171.17 3263.48,-164.17"/>
</g>
<!-- Node93 -->
<g id="node44" class="node">
<title>Node93</title>
<g id="a_node44"><a xlink:href="d__a__obj__web1_8h.html" target="_top" xlink:title=" ">
<polygon fill="white" stroke="#666666" points="5534,-112.5 5415,-112.5 5415,-71.5 5534,-71.5 5534,-112.5"/>
<text text-anchor="start" x="5423" y="-100.5" font-family="Helvetica,sans-Serif" font-size="10.00">include/rel/d/a/obj</text>
<text text-anchor="start" x="5423" y="-89.5" font-family="Helvetica,sans-Serif" font-size="10.00">/d_a_obj_web1/d_a_obj</text>
<text text-anchor="middle" x="5474.5" y="-78.5" font-family="Helvetica,sans-Serif" font-size="10.00">_web1.h</text>
</a>
</g>
</g>
<!-- Node2&#45;&gt;Node93 -->
<g id="edge44" class="edge">
<title>Node2&#45;&gt;Node93</title>
<path fill="none" stroke="#63b8ff" d="M3263.28,-167.8C3609.44,-166.56 5191.78,-158.73 5406.5,-118 5413.05,-116.76 5419.8,-114.96 5426.39,-112.89"/>
<polygon fill="#63b8ff" stroke="#63b8ff" points="3263.47,-164.3 3253.48,-167.83 3263.49,-171.3 3263.47,-164.3"/>
</g>
<!-- Node94 -->
<g id="node45" class="node">
<title>Node94</title>
<g id="a_node45"><a xlink:href="d__a__obj__yobikusa_8h.html" target="_top" xlink:title=" ">
<polygon fill="white" stroke="#666666" points="5657,-112.5 5552,-112.5 5552,-71.5 5657,-71.5 5657,-112.5"/>
<text text-anchor="start" x="5560" y="-100.5" font-family="Helvetica,sans-Serif" font-size="10.00">include/rel/d/a/obj</text>
<text text-anchor="start" x="5560" y="-89.5" font-family="Helvetica,sans-Serif" font-size="10.00">/d_a_obj_yobikusa/d</text>
<text text-anchor="middle" x="5604.5" y="-78.5" font-family="Helvetica,sans-Serif" font-size="10.00">_a_obj_yobikusa.h</text>
</a>
</g>
</g>
<!-- Node2&#45;&gt;Node94 -->
<g id="edge45" class="edge">
<title>Node2&#45;&gt;Node94</title>
<path fill="none" stroke="#63b8ff" d="M3263.05,-167.27C3633.51,-163.12 5429.03,-141.82 5543.5,-118 5549.44,-116.76 5555.53,-114.97 5561.46,-112.9"/>
<polygon fill="#63b8ff" stroke="#63b8ff" points="3263.22,-163.77 3253.26,-167.38 3263.29,-170.77 3263.22,-163.77"/>
</g>
<!-- Node95 -->
<g id="node46" class="node">
<title>Node95</title>
<g id="a_node46"><a xlink:href="d__a__obj__mirror__6pole_8h.html" target="_top" xlink:title=" ">
<polygon fill="white" stroke="#666666" points="5787.5,-118 5675.5,-118 5675.5,-66 5787.5,-66 5787.5,-118"/>
<text text-anchor="start" x="5683.5" y="-106" font-family="Helvetica,sans-Serif" font-size="10.00">include/rel/d/a/obj</text>
<text text-anchor="start" x="5683.5" y="-95" font-family="Helvetica,sans-Serif" font-size="10.00">/mirror/d_a_obj_mirror</text>
<text text-anchor="start" x="5683.5" y="-84" font-family="Helvetica,sans-Serif" font-size="10.00">_6pole/d_a_obj_mirror</text>
<text text-anchor="middle" x="5731.5" y="-73" font-family="Helvetica,sans-Serif" font-size="10.00">_6pole.h</text>
</a>
</g>
</g>
<!-- Node2&#45;&gt;Node95 -->
<g id="edge46" class="edge">
<title>Node2&#45;&gt;Node95</title>
<path fill="none" stroke="#63b8ff" d="M3263.13,-167.3C3645.23,-163.21 5545.4,-141.76 5666.5,-118 5669.35,-117.44 5672.23,-116.77 5675.12,-116.01"/>
<polygon fill="#63b8ff" stroke="#63b8ff" points="3263.22,-163.8 3253.26,-167.41 3263.29,-170.8 3263.22,-163.8"/>
</g>
<!-- Node96 -->
<g id="node47" class="node">
<title>Node96</title>
<g id="a_node47"><a xlink:href="d__a__obj__mirror__sand_8h.html" target="_top" xlink:title=" ">
<polygon fill="white" stroke="#666666" points="5949,-112.5 5806,-112.5 5806,-71.5 5949,-71.5 5949,-112.5"/>
<text text-anchor="start" x="5814" y="-100.5" font-family="Helvetica,sans-Serif" font-size="10.00">include/rel/d/a/obj</text>
<text text-anchor="start" x="5814" y="-89.5" font-family="Helvetica,sans-Serif" font-size="10.00">/mirror/d_a_obj_mirror</text>
<text text-anchor="middle" x="5877.5" y="-78.5" font-family="Helvetica,sans-Serif" font-size="10.00">_sand/d_a_obj_mirror_sand.h</text>
</a>
</g>
</g>
<!-- Node2&#45;&gt;Node96 -->
<g id="edge47" class="edge">
<title>Node2&#45;&gt;Node96</title>
<path fill="none" stroke="#63b8ff" d="M3263.43,-167.24C3658.01,-162.71 5667.9,-138.66 5796.5,-118 5804.2,-116.76 5812.19,-114.97 5820.01,-112.9"/>
<polygon fill="#63b8ff" stroke="#63b8ff" points="3263.43,-163.74 3253.47,-167.36 3263.51,-170.74 3263.43,-163.74"/>
</g>
<!-- Node97 -->
<g id="node48" class="node">
<title>Node97</title>
<g id="a_node48"><a xlink:href="d__a__tag__CstaSw_8h.html" target="_top" xlink:title=" ">
<polygon fill="white" stroke="#666666" points="6080,-112.5 5967,-112.5 5967,-71.5 6080,-71.5 6080,-112.5"/>
<text text-anchor="start" x="5975" y="-100.5" font-family="Helvetica,sans-Serif" font-size="10.00">include/rel/d/a/tag</text>
<text text-anchor="start" x="5975" y="-89.5" font-family="Helvetica,sans-Serif" font-size="10.00">/d_a_tag_CstaSw/d_a</text>
<text text-anchor="middle" x="6023.5" y="-78.5" font-family="Helvetica,sans-Serif" font-size="10.00">_tag_CstaSw.h</text>
</a>
</g>
</g>
<!-- Node2&#45;&gt;Node97 -->
<g id="edge48" class="edge">
<title>Node2&#45;&gt;Node97</title>
<path fill="none" stroke="#63b8ff" d="M3263.02,-167.45C3671.04,-164 5822.2,-144.59 5958.5,-118 5964.79,-116.77 5971.26,-114.98 5977.57,-112.91"/>
<polygon fill="#63b8ff" stroke="#63b8ff" points="3263.23,-163.95 3253.26,-167.53 3263.28,-170.95 3263.23,-163.95"/>
</g>
<!-- Node98 -->
<g id="node49" class="node">
<title>Node98</title>
<g id="a_node49"><a xlink:href="d__a__tag__ajnot_8h.html" target="_top" xlink:title=" ">
<polygon fill="white" stroke="#666666" points="6216.5,-112.5 6098.5,-112.5 6098.5,-71.5 6216.5,-71.5 6216.5,-112.5"/>
<text text-anchor="start" x="6106.5" y="-100.5" font-family="Helvetica,sans-Serif" font-size="10.00">include/rel/d/a/tag</text>
<text text-anchor="start" x="6106.5" y="-89.5" font-family="Helvetica,sans-Serif" font-size="10.00">/d_a_tag_ajnot/d_a_tag</text>
<text text-anchor="middle" x="6157.5" y="-78.5" font-family="Helvetica,sans-Serif" font-size="10.00">_ajnot.h</text>
</a>
</g>
</g>
<!-- Node2&#45;&gt;Node98 -->
<g id="edge49" class="edge">
<title>Node2&#45;&gt;Node98</title>
<path fill="none" stroke="#63b8ff" d="M3263.15,-167.48C3682.75,-164.12 5946.18,-144.79 6089.5,-118 6096.05,-116.78 6102.81,-114.99 6109.4,-112.92"/>
<polygon fill="#63b8ff" stroke="#63b8ff" points="3263.33,-163.98 3253.36,-167.56 3263.39,-170.98 3263.33,-163.98"/>
</g>
<!-- Node2&#45;&gt;Node147 -->
<g id="edge50" class="edge">
<title>Node2&#45;&gt;Node147</title>
<path fill="none" stroke="#63b8ff" d="M3263.28,-167.24C3701.53,-162.24 6150.5,-133.64 6225.5,-118 6240.86,-114.8 6257.22,-107.7 6268.98,-101.89"/>
<polygon fill="#63b8ff" stroke="#63b8ff" points="3263.28,-163.74 3253.32,-167.36 3263.36,-170.74 3263.28,-163.74"/>
</g>
<!-- Node30&#45;&gt;Node12 -->
<g id="edge9" class="edge">
<title>Node30&#45;&gt;Node12</title>
<path fill="none" stroke="#63b8ff" d="M721.76,-77.72C711.82,-73.75 700.77,-69.52 690.5,-66 650.79,-52.38 605.13,-39.22 570.84,-29.82"/>
<polygon fill="#63b8ff" stroke="#63b8ff" points="720.42,-80.96 731,-81.48 723.05,-74.47 720.42,-80.96"/>
</g>
</g>
</svg>
