<?xml version="1.0" encoding="UTF-8" standalone="no"?>
<!DOCTYPE svg PUBLIC "-//W3C//DTD SVG 1.1//EN"
 "http://www.w3.org/Graphics/SVG/1.1/DTD/svg11.dtd">
<!-- Generated by graphviz version 7.0.5 (20221223.1930)
 -->
<!-- Title: include/d/d_vib_pattern.h Pages: 1 -->
<svg width="6082pt" height="302pt"
 viewBox="0.00 0.00 6082.00 302.00" xmlns="http://www.w3.org/2000/svg" xmlns:xlink="http://www.w3.org/1999/xlink">
<g id="graph0" class="graph" transform="scale(1 1) rotate(0) translate(4 298)">
<title>include/d/d_vib_pattern.h</title>
<!-- Node1 -->
<g id="node1" class="node">
<title>Node1</title>
<g id="a_node1"><a xlink:title=" ">
<polygon fill="#999999" stroke="#666666" points="4687,-294 4562,-294 4562,-275 4687,-275 4687,-294"/>
<text text-anchor="middle" x="4624.5" y="-282" font-family="Helvetica,sans-Serif" font-size="10.00">include/d/d_vib_pattern.h</text>
</a>
</g>
</g>
<!-- Node2 -->
<g id="node2" class="node">
<title>Node2</title>
<g id="a_node2"><a xlink:href="d__vibration_8h.html" target="_top" xlink:title=" ">
<polygon fill="white" stroke="#666666" points="4639,-239 4526,-239 4526,-220 4639,-220 4639,-239"/>
<text text-anchor="middle" x="4582.5" y="-227" font-family="Helvetica,sans-Serif" font-size="10.00">include/d/d_vibration.h</text>
</a>
</g>
</g>
<!-- Node1&#45;&gt;Node2 -->
<g id="edge1" class="edge">
<title>Node1&#45;&gt;Node2</title>
<path fill="none" stroke="#63b8ff" d="M4610.58,-265.93C4603.54,-257.06 4595.31,-246.67 4589.59,-239.44"/>
<polygon fill="#63b8ff" stroke="#63b8ff" points="4607.67,-267.9 4616.62,-273.56 4613.16,-263.55 4607.67,-267.9"/>
</g>
<!-- Node191 -->
<g id="node50" class="node">
<title>Node191</title>
<g id="a_node50"><a xlink:href="d__vib__pattern_8cpp.html" target="_top" xlink:title=" ">
<polygon fill="white" stroke="#666666" points="4727.5,-178.5 4609.5,-178.5 4609.5,-159.5 4727.5,-159.5 4727.5,-178.5"/>
<text text-anchor="middle" x="4668.5" y="-166.5" font-family="Helvetica,sans-Serif" font-size="10.00">src/d/d_vib_pattern.cpp</text>
</a>
</g>
</g>
<!-- Node1&#45;&gt;Node191 -->
<g id="edge52" class="edge">
<title>Node1&#45;&gt;Node191</title>
<path fill="none" stroke="#63b8ff" d="M4635.2,-264.67C4639.37,-256.88 4643.98,-247.65 4647.5,-239 4656.08,-217.89 4663.08,-191.92 4666.4,-178.67"/>
<polygon fill="#63b8ff" stroke="#63b8ff" points="4632.26,-262.75 4630.49,-273.2 4638.38,-266.14 4632.26,-262.75"/>
</g>
<!-- Node3 -->
<g id="node3" class="node">
<title>Node3</title>
<g id="a_node3"><a xlink:href="d__com__inf__game_8h.html" target="_top" xlink:title=" ">
<polygon fill="#fff0f0" stroke="red" points="3114.5,-184 3004.5,-184 3004.5,-154 3114.5,-154 3114.5,-184"/>
<text text-anchor="start" x="3012.5" y="-172" font-family="Helvetica,sans-Serif" font-size="10.00">include/d/com/d_com</text>
<text text-anchor="middle" x="3059.5" y="-161" font-family="Helvetica,sans-Serif" font-size="10.00">_inf_game.h</text>
</a>
</g>
</g>
<!-- Node2&#45;&gt;Node3 -->
<g id="edge2" class="edge">
<title>Node2&#45;&gt;Node3</title>
<path fill="none" stroke="#63b8ff" d="M4514.17,-225.88C4256.79,-215.99 3348.47,-181.1 3114.7,-172.12"/>
<polygon fill="#63b8ff" stroke="#63b8ff" points="4513.94,-229.37 4524.06,-226.26 4514.21,-222.37 4513.94,-229.37"/>
</g>
<!-- Node154 -->
<g id="node49" class="node">
<title>Node154</title>
<g id="a_node49"><a xlink:href="d__vibration_8cpp.html" target="_top" xlink:title=" ">
<polygon fill="white" stroke="#666666" points="6074,-101.5 5967,-101.5 5967,-82.5 6074,-82.5 6074,-101.5"/>
<text text-anchor="middle" x="6020.5" y="-89.5" font-family="Helvetica,sans-Serif" font-size="10.00">src/d/d_vibration.cpp</text>
</a>
</g>
</g>
<!-- Node2&#45;&gt;Node154 -->
<g id="edge51" class="edge">
<title>Node2&#45;&gt;Node154</title>
<path fill="none" stroke="#63b8ff" d="M4581.21,-208.22C4581.34,-190.9 4584.68,-166.8 4600.5,-154 4659.18,-106.54 5884.61,-133.36 5958.5,-118 5974.18,-114.74 5990.97,-107.73 6003.12,-101.96"/>
<polygon fill="#63b8ff" stroke="#63b8ff" points="4577.71,-208.22 4581.52,-218.11 4584.7,-208 4577.71,-208.22"/>
</g>
<!-- Node2&#45;&gt;Node191 -->
<g id="edge50" class="edge">
<title>Node2&#45;&gt;Node191</title>
<path fill="none" stroke="#63b8ff" d="M4604.78,-213.35C4620.8,-202.44 4641.88,-188.11 4655.32,-178.97"/>
<polygon fill="#63b8ff" stroke="#63b8ff" points="4603.11,-210.25 4596.81,-218.76 4607.05,-216.03 4603.11,-210.25"/>
</g>
<!-- Node4 -->
<g id="node4" class="node">
<title>Node4</title>
<g id="a_node4"><a xlink:href="d__a__npc_8h.html" target="_top" xlink:title=" ">
<polygon fill="#fff0f0" stroke="red" points="111,-101.5 0,-101.5 0,-82.5 111,-82.5 111,-101.5"/>
<text text-anchor="middle" x="55.5" y="-89.5" font-family="Helvetica,sans-Serif" font-size="10.00">include/d/a/d_a_npc.h</text>
</a>
</g>
</g>
<!-- Node3&#45;&gt;Node4 -->
<g id="edge3" class="edge">
<title>Node3&#45;&gt;Node4</title>
<path fill="none" stroke="#63b8ff" d="M2992.78,-167.53C2568.98,-164.49 264.99,-146.69 119.5,-118 103.23,-114.79 85.76,-107.7 73.19,-101.88"/>
<polygon fill="#63b8ff" stroke="#63b8ff" points="2992.65,-171.03 3002.68,-167.61 2992.7,-164.03 2992.65,-171.03"/>
</g>
<!-- Node11 -->
<g id="node5" class="node">
<title>Node11</title>
<g id="a_node5"><a xlink:href="d__a__npc__cd_8h.html" target="_top" xlink:title=" ">
<polygon fill="#fff0f0" stroke="red" points="256,-101.5 129,-101.5 129,-82.5 256,-82.5 256,-101.5"/>
<text text-anchor="middle" x="192.5" y="-89.5" font-family="Helvetica,sans-Serif" font-size="10.00">include/d/a/d_a_npc_cd.h</text>
</a>
</g>
</g>
<!-- Node3&#45;&gt;Node11 -->
<g id="edge4" class="edge">
<title>Node3&#45;&gt;Node11</title>
<path fill="none" stroke="#63b8ff" d="M2992.97,-167.97C2595.87,-167.63 546.46,-163.68 270.5,-118 251.14,-114.8 229.99,-107.78 214.6,-102"/>
<polygon fill="#63b8ff" stroke="#63b8ff" points="2992.72,-171.47 3002.72,-167.98 2992.72,-164.47 2992.72,-171.47"/>
</g>
<!-- Node13 -->
<g id="node6" class="node">
<title>Node13</title>
<g id="a_node6"><a xlink:href="d__a__npc__cd2_8h.html" target="_top" xlink:title=" ">
<polygon fill="#fff0f0" stroke="red" points="570.5,-30 466.5,-30 466.5,0 570.5,0 570.5,-30"/>
<text text-anchor="start" x="474.5" y="-18" font-family="Helvetica,sans-Serif" font-size="10.00">include/d/a/d_a_npc</text>
<text text-anchor="middle" x="518.5" y="-7" font-family="Helvetica,sans-Serif" font-size="10.00">_cd2.h</text>
</a>
</g>
</g>
<!-- Node3&#45;&gt;Node13 -->
<g id="edge5" class="edge">
<title>Node3&#45;&gt;Node13</title>
<path fill="none" stroke="#63b8ff" d="M2992.76,-168.07C2576.46,-168.35 352.12,-167.51 303.5,-118 287.31,-101.51 289.13,-84.1 303.5,-66 323.43,-40.9 409.09,-27.26 466.08,-20.81"/>
<polygon fill="#63b8ff" stroke="#63b8ff" points="2992.75,-171.57 3002.75,-168.06 2992.75,-164.57 2992.75,-171.57"/>
</g>
<!-- Node15 -->
<g id="node7" class="node">
<title>Node15</title>
<g id="a_node7"><a xlink:href="d__cc__uty_8h.html" target="_top" xlink:title=" ">
<polygon fill="#fff0f0" stroke="red" points="432,-101.5 313,-101.5 313,-82.5 432,-82.5 432,-101.5"/>
<text text-anchor="middle" x="372.5" y="-89.5" font-family="Helvetica,sans-Serif" font-size="10.00">include/d/cc/d_cc_uty.h</text>
</a>
</g>
</g>
<!-- Node3&#45;&gt;Node15 -->
<g id="edge6" class="edge">
<title>Node3&#45;&gt;Node15</title>
<path fill="none" stroke="#63b8ff" d="M2992.79,-168.05C2609.69,-168.17 697.7,-166.32 440.5,-118 423.44,-114.8 405.01,-107.78 391.65,-102"/>
<polygon fill="#63b8ff" stroke="#63b8ff" points="2992.69,-171.55 3002.68,-168.05 2992.68,-164.55 2992.69,-171.55"/>
</g>
<!-- Node26 -->
<g id="node8" class="node">
<title>Node26</title>
<g id="a_node8"><a xlink:href="d__bright__check_8h.html" target="_top" xlink:title=" ">
<polygon fill="#fff0f0" stroke="red" points="543,-107 450,-107 450,-77 543,-77 543,-107"/>
<text text-anchor="start" x="458" y="-95" font-family="Helvetica,sans-Serif" font-size="10.00">include/d/d_bright</text>
<text text-anchor="middle" x="496.5" y="-84" font-family="Helvetica,sans-Serif" font-size="10.00">_check.h</text>
</a>
</g>
</g>
<!-- Node3&#45;&gt;Node26 -->
<g id="edge7" class="edge">
<title>Node3&#45;&gt;Node26</title>
<path fill="none" stroke="#63b8ff" d="M2992.62,-168.25C2618.82,-169.46 796.32,-172.5 552.5,-118 542.52,-115.77 532.16,-111.7 523.09,-107.48"/>
<polygon fill="#63b8ff" stroke="#63b8ff" points="2992.52,-171.75 3002.51,-168.22 2992.5,-164.75 2992.52,-171.75"/>
</g>
<!-- Node28 -->
<g id="node9" class="node">
<title>Node28</title>
<g id="a_node9"><a xlink:href="d__error__msg_8h.html" target="_top" xlink:title=" ">
<polygon fill="#fff0f0" stroke="red" points="681.5,-101.5 561.5,-101.5 561.5,-82.5 681.5,-82.5 681.5,-101.5"/>
<text text-anchor="middle" x="621.5" y="-89.5" font-family="Helvetica,sans-Serif" font-size="10.00">include/d/d_error_msg.h</text>
</a>
</g>
</g>
<!-- Node3&#45;&gt;Node28 -->
<g id="edge8" class="edge">
<title>Node3&#45;&gt;Node28</title>
<path fill="none" stroke="#63b8ff" d="M2992.92,-167.89C2632.4,-167.11 921.85,-161.14 690.5,-118 673.22,-114.78 654.51,-107.76 640.95,-101.98"/>
<polygon fill="#63b8ff" stroke="#63b8ff" points="2992.66,-171.39 3002.67,-167.91 2992.67,-164.39 2992.66,-171.39"/>
</g>
<!-- Node31 -->
<g id="node10" class="node">
<title>Node31</title>
<g id="a_node10"><a xlink:href="d__npc__lib_8h.html" target="_top" xlink:title=" ">
<polygon fill="#fff0f0" stroke="red" points="807,-101.5 700,-101.5 700,-82.5 807,-82.5 807,-101.5"/>
<text text-anchor="middle" x="753.5" y="-89.5" font-family="Helvetica,sans-Serif" font-size="10.00">include/d/d_npc_lib.h</text>
</a>
</g>
</g>
<!-- Node3&#45;&gt;Node31 -->
<g id="edge9" class="edge">
<title>Node3&#45;&gt;Node31</title>
<path fill="none" stroke="#63b8ff" d="M2992.84,-167.92C2643.77,-167.31 1034.13,-162.12 816.5,-118 800.59,-114.77 783.52,-107.76 771.17,-101.98"/>
<polygon fill="#63b8ff" stroke="#63b8ff" points="2992.72,-171.42 3002.73,-167.94 2992.74,-164.42 2992.72,-171.42"/>
</g>
<!-- Node33 -->
<g id="node11" class="node">
<title>Node33</title>
<g id="a_node11"><a xlink:href="d__file__select_8h.html" target="_top" xlink:title=" ">
<polygon fill="#fff0f0" stroke="red" points="921.5,-107 825.5,-107 825.5,-77 921.5,-77 921.5,-107"/>
<text text-anchor="start" x="833.5" y="-95" font-family="Helvetica,sans-Serif" font-size="10.00">include/d/file/d_file</text>
<text text-anchor="middle" x="873.5" y="-84" font-family="Helvetica,sans-Serif" font-size="10.00">_select.h</text>
</a>
</g>
</g>
<!-- Node3&#45;&gt;Node33 -->
<g id="edge11" class="edge">
<title>Node3&#45;&gt;Node33</title>
<path fill="none" stroke="#63b8ff" d="M2993.2,-167.97C2655.62,-167.63 1135.65,-163.53 930.5,-118 920.37,-115.75 909.83,-111.67 900.6,-107.46"/>
<polygon fill="#63b8ff" stroke="#63b8ff" points="2992.73,-171.47 3002.73,-167.98 2992.74,-164.47 2992.73,-171.47"/>
</g>
<!-- Node35 -->
<g id="node12" class="node">
<title>Node35</title>
<g id="a_node12"><a xlink:href="d__msg__object_8h.html" target="_top" xlink:title=" ">
<polygon fill="#fff0f0" stroke="red" points="1049.5,-107 939.5,-107 939.5,-77 1049.5,-77 1049.5,-107"/>
<text text-anchor="start" x="947.5" y="-95" font-family="Helvetica,sans-Serif" font-size="10.00">include/d/msg/d_msg</text>
<text text-anchor="middle" x="994.5" y="-84" font-family="Helvetica,sans-Serif" font-size="10.00">_object.h</text>
</a>
</g>
</g>
<!-- Node3&#45;&gt;Node35 -->
<g id="edge12" class="edge">
<title>Node3&#45;&gt;Node35</title>
<path fill="none" stroke="#63b8ff" d="M2993.34,-167.71C2668.61,-166.09 1251.35,-156.83 1058.5,-118 1047.27,-115.74 1035.47,-111.66 1025.09,-107.44"/>
<polygon fill="#63b8ff" stroke="#63b8ff" points="2992.89,-171.2 3002.91,-167.75 2992.93,-164.21 2992.89,-171.2"/>
</g>
<!-- Node58 -->
<g id="node13" class="node">
<title>Node58</title>
<g id="a_node13"><a xlink:href="d__a__andsw_8h.html" target="_top" xlink:title=" ">
<polygon fill="white" stroke="#666666" points="1177.5,-107 1067.5,-107 1067.5,-77 1177.5,-77 1177.5,-107"/>
<text text-anchor="start" x="1075.5" y="-95" font-family="Helvetica,sans-Serif" font-size="10.00">include/rel/d/a/d_a</text>
<text text-anchor="middle" x="1122.5" y="-84" font-family="Helvetica,sans-Serif" font-size="10.00">_andsw/d_a_andsw.h</text>
</a>
</g>
</g>
<!-- Node3&#45;&gt;Node58 -->
<g id="edge13" class="edge">
<title>Node3&#45;&gt;Node58</title>
<path fill="none" stroke="#63b8ff" d="M2993.07,-167.58C2680.75,-165.44 1366.12,-154.32 1186.5,-118 1175.28,-115.73 1163.47,-111.65 1153.1,-107.43"/>
<polygon fill="#63b8ff" stroke="#63b8ff" points="2992.65,-171.08 3002.67,-167.65 2992.69,-164.08 2992.65,-171.08"/>
</g>
<!-- Node59 -->
<g id="node14" class="node">
<title>Node59</title>
<g id="a_node14"><a xlink:href="d__a__cstaF_8h.html" target="_top" xlink:title=" ">
<polygon fill="white" stroke="#666666" points="1299,-107 1196,-107 1196,-77 1299,-77 1299,-107"/>
<text text-anchor="start" x="1204" y="-95" font-family="Helvetica,sans-Serif" font-size="10.00">include/rel/d/a/d_a</text>
<text text-anchor="middle" x="1247.5" y="-84" font-family="Helvetica,sans-Serif" font-size="10.00">_cstaF/d_a_cstaF.h</text>
</a>
</g>
</g>
<!-- Node3&#45;&gt;Node59 -->
<g id="edge14" class="edge">
<title>Node3&#45;&gt;Node59</title>
<path fill="none" stroke="#63b8ff" d="M2993.04,-167.51C2693.38,-165.13 1475.29,-153.33 1308.5,-118 1297.75,-115.72 1286.49,-111.64 1276.6,-107.42"/>
<polygon fill="#63b8ff" stroke="#63b8ff" points="2992.6,-171.01 3002.63,-167.59 2992.66,-164.01 2992.6,-171.01"/>
</g>
<!-- Node60 -->
<g id="node15" class="node">
<title>Node60</title>
<g id="a_node15"><a xlink:href="d__a__dmidna_8h.html" target="_top" xlink:title=" ">
<polygon fill="white" stroke="#666666" points="1433.5,-107 1317.5,-107 1317.5,-77 1433.5,-77 1433.5,-107"/>
<text text-anchor="start" x="1325.5" y="-95" font-family="Helvetica,sans-Serif" font-size="10.00">include/rel/d/a/d_a</text>
<text text-anchor="middle" x="1375.5" y="-84" font-family="Helvetica,sans-Serif" font-size="10.00">_dmidna/d_a_dmidna.h</text>
</a>
</g>
</g>
<!-- Node3&#45;&gt;Node60 -->
<g id="edge15" class="edge">
<title>Node3&#45;&gt;Node60</title>
<path fill="none" stroke="#63b8ff" d="M2992.66,-167.22C2706.97,-163.69 1596,-148.16 1442.5,-118 1430.8,-115.7 1418.46,-111.61 1407.6,-107.4"/>
<polygon fill="#63b8ff" stroke="#63b8ff" points="2992.5,-170.71 3002.55,-167.34 2992.59,-163.72 2992.5,-170.71"/>
</g>
<!-- Node61 -->
<g id="node16" class="node">
<title>Node61</title>
<g id="a_node16"><a xlink:href="d__a__dshutter_8h.html" target="_top" xlink:title=" ">
<polygon fill="#fff0f0" stroke="red" points="1575.5,-107 1451.5,-107 1451.5,-77 1575.5,-77 1575.5,-107"/>
<text text-anchor="start" x="1459.5" y="-95" font-family="Helvetica,sans-Serif" font-size="10.00">include/rel/d/a/d_a</text>
<text text-anchor="middle" x="1513.5" y="-84" font-family="Helvetica,sans-Serif" font-size="10.00">_dshutter/d_a_dshutter.h</text>
</a>
</g>
</g>
<!-- Node3&#45;&gt;Node61 -->
<g id="edge16" class="edge">
<title>Node3&#45;&gt;Node61</title>
<path fill="none" stroke="#63b8ff" d="M2992.91,-168.43C2742.84,-169.61 1860.09,-169.92 1584.5,-118 1572.3,-115.7 1559.38,-111.67 1547.95,-107.5"/>
<polygon fill="#63b8ff" stroke="#63b8ff" points="2992.84,-171.93 3002.82,-168.38 2992.8,-164.93 2992.84,-171.93"/>
</g>
<!-- Node63 -->
<g id="node17" class="node">
<title>Node63</title>
<g id="a_node17"><a xlink:href="d__a__guard__mng_8h.html" target="_top" xlink:title=" ">
<polygon fill="white" stroke="#666666" points="1743,-107 1594,-107 1594,-77 1743,-77 1743,-107"/>
<text text-anchor="start" x="1602" y="-95" font-family="Helvetica,sans-Serif" font-size="10.00">include/rel/d/a/d_a</text>
<text text-anchor="middle" x="1668.5" y="-84" font-family="Helvetica,sans-Serif" font-size="10.00">_guard_mng/d_a_guard_mng.h</text>
</a>
</g>
</g>
<!-- Node3&#45;&gt;Node63 -->
<g id="edge17" class="edge">
<title>Node3&#45;&gt;Node63</title>
<path fill="none" stroke="#63b8ff" d="M2992.98,-167.66C2761.92,-166.12 1994.99,-158.07 1752.5,-118 1738.24,-115.64 1722.99,-111.59 1709.46,-107.43"/>
<polygon fill="#63b8ff" stroke="#63b8ff" points="2992.68,-171.16 3002.71,-167.72 2992.73,-164.16 2992.68,-171.16"/>
</g>
<!-- Node64 -->
<g id="node18" class="node">
<title>Node64</title>
<g id="a_node18"><a xlink:href="d__a__hitobj_8h.html" target="_top" xlink:title=" ">
<polygon fill="white" stroke="#666666" points="1861.5,-107 1761.5,-107 1761.5,-77 1861.5,-77 1861.5,-107"/>
<text text-anchor="start" x="1769.5" y="-95" font-family="Helvetica,sans-Serif" font-size="10.00">include/rel/d/a/d_a</text>
<text text-anchor="middle" x="1811.5" y="-84" font-family="Helvetica,sans-Serif" font-size="10.00">_hitobj/d_a_hitobj.h</text>
</a>
</g>
</g>
<!-- Node3&#45;&gt;Node64 -->
<g id="edge18" class="edge">
<title>Node3&#45;&gt;Node64</title>
<path fill="none" stroke="#63b8ff" d="M2993.05,-168.32C2775.57,-168.88 2086.71,-166.67 1870.5,-118 1860.19,-115.68 1849.41,-111.64 1839.92,-107.47"/>
<polygon fill="#63b8ff" stroke="#63b8ff" points="2992.76,-171.82 3002.75,-168.29 2992.74,-164.82 2992.76,-171.82"/>
</g>
<!-- Node65 -->
<g id="node19" class="node">
<title>Node65</title>
<g id="a_node19"><a xlink:href="d__a__izumi__gate_8h.html" target="_top" xlink:title=" ">
<polygon fill="white" stroke="#666666" points="1995,-112.5 1880,-112.5 1880,-71.5 1995,-71.5 1995,-112.5"/>
<text text-anchor="start" x="1888" y="-100.5" font-family="Helvetica,sans-Serif" font-size="10.00">include/rel/d/a/d_a</text>
<text text-anchor="start" x="1888" y="-89.5" font-family="Helvetica,sans-Serif" font-size="10.00">_izumi_gate/d_a_izumi</text>
<text text-anchor="middle" x="1937.5" y="-78.5" font-family="Helvetica,sans-Serif" font-size="10.00">_gate.h</text>
</a>
</g>
</g>
<!-- Node3&#45;&gt;Node65 -->
<g id="edge19" class="edge">
<title>Node3&#45;&gt;Node65</title>
<path fill="none" stroke="#63b8ff" d="M2992.85,-167.58C2791.84,-165.87 2193.78,-157.5 2003.5,-118 1997.38,-116.73 1991.08,-114.97 1984.92,-112.98"/>
<polygon fill="#63b8ff" stroke="#63b8ff" points="2992.56,-171.07 3002.59,-167.66 2992.62,-164.07 2992.56,-171.07"/>
</g>
<!-- Node66 -->
<g id="node20" class="node">
<title>Node66</title>
<g id="a_node20"><a xlink:href="d__a__set__bgobj_8h.html" target="_top" xlink:title=" ">
<polygon fill="#fff0f0" stroke="red" points="2150,-107 2013,-107 2013,-77 2150,-77 2150,-107"/>
<text text-anchor="start" x="2021" y="-95" font-family="Helvetica,sans-Serif" font-size="10.00">include/rel/d/a/d_a</text>
<text text-anchor="middle" x="2081.5" y="-84" font-family="Helvetica,sans-Serif" font-size="10.00">_set_bgobj/d_a_set_bgobj.h</text>
</a>
</g>
</g>
<!-- Node3&#45;&gt;Node66 -->
<g id="edge20" class="edge">
<title>Node3&#45;&gt;Node66</title>
<path fill="none" stroke="#63b8ff" d="M2992.84,-166.49C2812.76,-162.08 2319.39,-147.56 2159.5,-118 2146.36,-115.57 2132.35,-111.55 2119.88,-107.44"/>
<polygon fill="#63b8ff" stroke="#63b8ff" points="2992.64,-169.99 3002.72,-166.73 2992.81,-162.99 2992.64,-169.99"/>
</g>
<!-- Node67 -->
<g id="node21" class="node">
<title>Node67</title>
<g id="a_node21"><a xlink:href="d__a__skip__2D_8h.html" target="_top" xlink:title=" ">
<polygon fill="white" stroke="#666666" points="2292.5,-107 2168.5,-107 2168.5,-77 2292.5,-77 2292.5,-107"/>
<text text-anchor="start" x="2176.5" y="-95" font-family="Helvetica,sans-Serif" font-size="10.00">include/rel/d/a/d_a</text>
<text text-anchor="middle" x="2230.5" y="-84" font-family="Helvetica,sans-Serif" font-size="10.00">_skip_2D/d_a_skip_2D.h</text>
</a>
</g>
</g>
<!-- Node3&#45;&gt;Node67 -->
<g id="edge21" class="edge">
<title>Node3&#45;&gt;Node67</title>
<path fill="none" stroke="#63b8ff" d="M2993.22,-165.94C2833.88,-160.63 2432.87,-144.93 2301.5,-118 2289.47,-115.53 2276.7,-111.51 2265.35,-107.4"/>
<polygon fill="#63b8ff" stroke="#63b8ff" points="2992.64,-169.43 3002.75,-166.26 2992.87,-162.43 2992.64,-169.43"/>
</g>
<!-- Node68 -->
<g id="node22" class="node">
<title>Node68</title>
<g id="a_node22"><a xlink:href="d__a__spinner_8h.html" target="_top" xlink:title=" ">
<polygon fill="#fff0f0" stroke="red" points="2426.5,-107 2310.5,-107 2310.5,-77 2426.5,-77 2426.5,-107"/>
<text text-anchor="start" x="2318.5" y="-95" font-family="Helvetica,sans-Serif" font-size="10.00">include/rel/d/a/d_a</text>
<text text-anchor="middle" x="2368.5" y="-84" font-family="Helvetica,sans-Serif" font-size="10.00">_spinner/d_a_spinner.h</text>
</a>
</g>
</g>
<!-- Node3&#45;&gt;Node68 -->
<g id="edge22" class="edge">
<title>Node3&#45;&gt;Node68</title>
<path fill="none" stroke="#63b8ff" d="M2992.66,-168.67C2877.47,-168.49 2634.75,-162.25 2435.5,-118 2424.23,-115.5 2412.3,-111.51 2401.69,-107.45"/>
<polygon fill="#63b8ff" stroke="#63b8ff" points="2992.56,-172.17 3002.56,-168.67 2992.56,-165.17 2992.56,-172.17"/>
</g>
<!-- Node71 -->
<g id="node23" class="node">
<title>Node71</title>
<g id="a_node23"><a xlink:href="d__a__swTime_8h.html" target="_top" xlink:title=" ">
<polygon fill="white" stroke="#666666" points="2566.5,-107 2444.5,-107 2444.5,-77 2566.5,-77 2566.5,-107"/>
<text text-anchor="start" x="2452.5" y="-95" font-family="Helvetica,sans-Serif" font-size="10.00">include/rel/d/a/d_a</text>
<text text-anchor="middle" x="2505.5" y="-84" font-family="Helvetica,sans-Serif" font-size="10.00">_swTime/d_a_swTime.h</text>
</a>
</g>
</g>
<!-- Node3&#45;&gt;Node71 -->
<g id="edge23" class="edge">
<title>Node3&#45;&gt;Node71</title>
<path fill="none" stroke="#63b8ff" d="M2992.66,-166.15C2898.52,-162.41 2722,-151.22 2575.5,-118 2563.92,-115.37 2551.62,-111.41 2540.62,-107.4"/>
<polygon fill="#63b8ff" stroke="#63b8ff" points="2992.36,-169.64 3002.49,-166.53 2992.63,-162.65 2992.36,-169.64"/>
</g>
<!-- Node72 -->
<g id="node24" class="node">
<title>Node72</title>
<g id="a_node24"><a xlink:href="d__a__vrbox_8h.html" target="_top" xlink:title=" ">
<polygon fill="white" stroke="#666666" points="2684.5,-107 2584.5,-107 2584.5,-77 2684.5,-77 2684.5,-107"/>
<text text-anchor="start" x="2592.5" y="-95" font-family="Helvetica,sans-Serif" font-size="10.00">include/rel/d/a/d_a</text>
<text text-anchor="middle" x="2634.5" y="-84" font-family="Helvetica,sans-Serif" font-size="10.00">_vrbox/d_a_vrbox.h</text>
</a>
</g>
</g>
<!-- Node3&#45;&gt;Node72 -->
<g id="edge24" class="edge">
<title>Node3&#45;&gt;Node72</title>
<path fill="none" stroke="#63b8ff" d="M2992.54,-164.19C2918.33,-158.74 2795.63,-146.08 2693.5,-118 2683.74,-115.32 2673.46,-111.38 2664.27,-107.42"/>
<polygon fill="#63b8ff" stroke="#63b8ff" points="2992.29,-167.68 3002.51,-164.89 2992.78,-160.7 2992.29,-167.68"/>
</g>
<!-- Node73 -->
<g id="node25" class="node">
<title>Node73</title>
<g id="a_node25"><a xlink:href="d__a__e__db__leaf_8h.html" target="_top" xlink:title=" ">
<polygon fill="white" stroke="#666666" points="2822,-112.5 2703,-112.5 2703,-71.5 2822,-71.5 2822,-112.5"/>
<text text-anchor="start" x="2711" y="-100.5" font-family="Helvetica,sans-Serif" font-size="10.00">include/rel/d/a/e/d</text>
<text text-anchor="start" x="2711" y="-89.5" font-family="Helvetica,sans-Serif" font-size="10.00">_a_e_db_leaf/d_a_e_db</text>
<text text-anchor="middle" x="2762.5" y="-78.5" font-family="Helvetica,sans-Serif" font-size="10.00">_leaf.h</text>
</a>
</g>
</g>
<!-- Node3&#45;&gt;Node73 -->
<g id="edge25" class="edge">
<title>Node3&#45;&gt;Node73</title>
<path fill="none" stroke="#63b8ff" d="M2992.89,-155.8C2947.11,-146.83 2885.15,-133.53 2831.5,-118 2826.24,-116.48 2820.8,-114.76 2815.38,-112.96"/>
<polygon fill="#63b8ff" stroke="#63b8ff" points="2992.2,-159.23 3002.68,-157.7 2993.53,-152.36 2992.2,-159.23"/>
</g>
<!-- Node74 -->
<g id="node26" class="node">
<title>Node74</title>
<g id="a_node26"><a xlink:href="d__a__kytag02_8h.html" target="_top" xlink:title=" ">
<polygon fill="white" stroke="#666666" points="2980.5,-107 2840.5,-107 2840.5,-77 2980.5,-77 2980.5,-107"/>
<text text-anchor="start" x="2848.5" y="-95" font-family="Helvetica,sans-Serif" font-size="10.00">include/rel/d/a/kytag</text>
<text text-anchor="middle" x="2910.5" y="-84" font-family="Helvetica,sans-Serif" font-size="10.00">/d_a_kytag02/d_a_kytag02.h</text>
</a>
</g>
</g>
<!-- Node3&#45;&gt;Node74 -->
<g id="edge26" class="edge">
<title>Node3&#45;&gt;Node74</title>
<path fill="none" stroke="#63b8ff" d="M3020.68,-148.46C2995.15,-135.61 2962.31,-119.08 2939.14,-107.42"/>
<polygon fill="#63b8ff" stroke="#63b8ff" points="3018.91,-151.49 3029.42,-152.86 3022.06,-145.24 3018.91,-151.49"/>
</g>
<!-- Node75 -->
<g id="node27" class="node">
<title>Node75</title>
<g id="a_node27"><a xlink:href="d__a__obj__bombf_8h.html" target="_top" xlink:title=" ">
<polygon fill="white" stroke="#666666" points="3120.5,-112.5 2998.5,-112.5 2998.5,-71.5 3120.5,-71.5 3120.5,-112.5"/>
<text text-anchor="start" x="3006.5" y="-100.5" font-family="Helvetica,sans-Serif" font-size="10.00">include/rel/d/a/obj</text>
<text text-anchor="start" x="3006.5" y="-89.5" font-family="Helvetica,sans-Serif" font-size="10.00">/d_a_obj_bombf/d_a_obj</text>
<text text-anchor="middle" x="3059.5" y="-78.5" font-family="Helvetica,sans-Serif" font-size="10.00">_bombf.h</text>
</a>
</g>
</g>
<!-- Node3&#45;&gt;Node75 -->
<g id="edge27" class="edge">
<title>Node3&#45;&gt;Node75</title>
<path fill="none" stroke="#63b8ff" d="M3059.5,-142.18C3059.5,-132.56 3059.5,-121.8 3059.5,-112.8"/>
<polygon fill="#63b8ff" stroke="#63b8ff" points="3056,-142.03 3059.5,-152.03 3063,-142.03 3056,-142.03"/>
</g>
<!-- Node76 -->
<g id="node28" class="node">
<title>Node76</title>
<g id="a_node28"><a xlink:href="d__a__obj__carry_8h.html" target="_top" xlink:title=" ">
<polygon fill="#fff0f0" stroke="red" points="3254.5,-112.5 3138.5,-112.5 3138.5,-71.5 3254.5,-71.5 3254.5,-112.5"/>
<text text-anchor="start" x="3146.5" y="-100.5" font-family="Helvetica,sans-Serif" font-size="10.00">include/rel/d/a/obj</text>
<text text-anchor="start" x="3146.5" y="-89.5" font-family="Helvetica,sans-Serif" font-size="10.00">/d_a_obj_carry/d_a_obj</text>
<text text-anchor="middle" x="3196.5" y="-78.5" font-family="Helvetica,sans-Serif" font-size="10.00">_carry.h</text>
</a>
</g>
</g>
<!-- Node3&#45;&gt;Node76 -->
<g id="edge28" class="edge">
<title>Node3&#45;&gt;Node76</title>
<path fill="none" stroke="#63b8ff" d="M3095.82,-148.12C3115.68,-137.25 3140.2,-123.82 3160.07,-112.94"/>
<polygon fill="#63b8ff" stroke="#63b8ff" points="3094.33,-144.94 3087.24,-152.81 3097.69,-151.08 3094.33,-144.94"/>
</g>
<!-- Node78 -->
<g id="node29" class="node">
<title>Node78</title>
<g id="a_node29"><a xlink:href="d__a__obj__cboard_8h.html" target="_top" xlink:title=" ">
<polygon fill="white" stroke="#666666" points="3380,-112.5 3273,-112.5 3273,-71.5 3380,-71.5 3380,-112.5"/>
<text text-anchor="start" x="3281" y="-100.5" font-family="Helvetica,sans-Serif" font-size="10.00">include/rel/d/a/obj</text>
<text text-anchor="start" x="3281" y="-89.5" font-family="Helvetica,sans-Serif" font-size="10.00">/d_a_obj_cboard/d_a</text>
<text text-anchor="middle" x="3326.5" y="-78.5" font-family="Helvetica,sans-Serif" font-size="10.00">_obj_cboard.h</text>
</a>
</g>
</g>
<!-- Node3&#45;&gt;Node78 -->
<g id="edge29" class="edge">
<title>Node3&#45;&gt;Node78</title>
<path fill="none" stroke="#63b8ff" d="M3125.63,-154.21C3165.87,-145.23 3218.09,-132.5 3263.5,-118 3268.32,-116.46 3273.3,-114.73 3278.25,-112.92"/>
<polygon fill="#63b8ff" stroke="#63b8ff" points="3125.1,-150.74 3116.09,-156.32 3126.61,-157.58 3125.1,-150.74"/>
</g>
<!-- Node79 -->
<g id="node30" class="node">
<title>Node79</title>
<g id="a_node30"><a xlink:href="d__a__obj__cowdoor_8h.html" target="_top" xlink:title=" ">
<polygon fill="white" stroke="#666666" points="3512.5,-112.5 3398.5,-112.5 3398.5,-71.5 3512.5,-71.5 3512.5,-112.5"/>
<text text-anchor="start" x="3406.5" y="-100.5" font-family="Helvetica,sans-Serif" font-size="10.00">include/rel/d/a/obj</text>
<text text-anchor="start" x="3406.5" y="-89.5" font-family="Helvetica,sans-Serif" font-size="10.00">/d_a_obj_cowdoor/d_a</text>
<text text-anchor="middle" x="3455.5" y="-78.5" font-family="Helvetica,sans-Serif" font-size="10.00">_obj_cowdoor.h</text>
</a>
</g>
</g>
<!-- Node3&#45;&gt;Node79 -->
<g id="edge30" class="edge">
<title>Node3&#45;&gt;Node79</title>
<path fill="none" stroke="#63b8ff" d="M3126.16,-161.95C3193.2,-154.91 3299.16,-141.19 3388.5,-118 3394.03,-116.57 3399.73,-114.84 3405.37,-112.97"/>
<polygon fill="#63b8ff" stroke="#63b8ff" points="3126.02,-158.44 3116.43,-162.95 3126.73,-165.41 3126.02,-158.44"/>
</g>
<!-- Node80 -->
<g id="node31" class="node">
<title>Node80</title>
<g id="a_node31"><a xlink:href="d__a__obj__digholl_8h.html" target="_top" xlink:title=" ">
<polygon fill="white" stroke="#666666" points="3636,-112.5 3531,-112.5 3531,-71.5 3636,-71.5 3636,-112.5"/>
<text text-anchor="start" x="3539" y="-100.5" font-family="Helvetica,sans-Serif" font-size="10.00">include/rel/d/a/obj</text>
<text text-anchor="start" x="3539" y="-89.5" font-family="Helvetica,sans-Serif" font-size="10.00">/d_a_obj_digholl/d_a</text>
<text text-anchor="middle" x="3583.5" y="-78.5" font-family="Helvetica,sans-Serif" font-size="10.00">_obj_digholl.h</text>
</a>
</g>
</g>
<!-- Node3&#45;&gt;Node80 -->
<g id="edge31" class="edge">
<title>Node3&#45;&gt;Node80</title>
<path fill="none" stroke="#63b8ff" d="M3126.25,-166.52C3216.99,-163.21 3383.74,-152.52 3521.5,-118 3527.02,-116.62 3532.69,-114.85 3538.27,-112.89"/>
<polygon fill="#63b8ff" stroke="#63b8ff" points="3126.15,-163.02 3116.28,-166.86 3126.39,-170.01 3126.15,-163.02"/>
</g>
<!-- Node81 -->
<g id="node32" class="node">
<title>Node81</title>
<g id="a_node32"><a xlink:href="d__a__obj__enemy__create_8h.html" target="_top" xlink:title=" ">
<polygon fill="white" stroke="#666666" points="3781,-112.5 3654,-112.5 3654,-71.5 3781,-71.5 3781,-112.5"/>
<text text-anchor="start" x="3662" y="-100.5" font-family="Helvetica,sans-Serif" font-size="10.00">include/rel/d/a/obj</text>
<text text-anchor="start" x="3662" y="-89.5" font-family="Helvetica,sans-Serif" font-size="10.00">/d_a_obj_enemy_create</text>
<text text-anchor="middle" x="3717.5" y="-78.5" font-family="Helvetica,sans-Serif" font-size="10.00">/d_a_obj_enemy_create.h</text>
</a>
</g>
</g>
<!-- Node3&#45;&gt;Node81 -->
<g id="edge32" class="edge">
<title>Node3&#45;&gt;Node81</title>
<path fill="none" stroke="#63b8ff" d="M3126.51,-167.57C3236.04,-165.7 3459.72,-156.92 3644.5,-118 3650.92,-116.65 3657.56,-114.9 3664.1,-112.95"/>
<polygon fill="#63b8ff" stroke="#63b8ff" points="3126.46,-164.07 3116.51,-167.73 3126.56,-171.07 3126.46,-164.07"/>
</g>
<!-- Node82 -->
<g id="node33" class="node">
<title>Node82</title>
<g id="a_node33"><a xlink:href="d__a__obj__kjgjs_8h.html" target="_top" xlink:title=" ">
<polygon fill="white" stroke="#666666" points="3915.5,-112.5 3799.5,-112.5 3799.5,-71.5 3915.5,-71.5 3915.5,-112.5"/>
<text text-anchor="start" x="3807.5" y="-100.5" font-family="Helvetica,sans-Serif" font-size="10.00">include/rel/d/a/obj</text>
<text text-anchor="start" x="3807.5" y="-89.5" font-family="Helvetica,sans-Serif" font-size="10.00">/d_a_obj_kjgjs/d_a_obj</text>
<text text-anchor="middle" x="3857.5" y="-78.5" font-family="Helvetica,sans-Serif" font-size="10.00">_kjgjs.h</text>
</a>
</g>
</g>
<!-- Node3&#45;&gt;Node82 -->
<g id="edge33" class="edge">
<title>Node3&#45;&gt;Node82</title>
<path fill="none" stroke="#63b8ff" d="M3126.05,-165.86C3281.33,-160.46 3663.91,-144.81 3789.5,-118 3795.65,-116.69 3801.99,-114.93 3808.22,-112.96"/>
<polygon fill="#63b8ff" stroke="#63b8ff" points="3126.22,-162.35 3116.34,-166.19 3126.46,-169.34 3126.22,-162.35"/>
</g>
<!-- Node83 -->
<g id="node34" class="node">
<title>Node83</title>
<g id="a_node34"><a xlink:href="d__a__obj__mgate_8h.html" target="_top" xlink:title=" ">
<polygon fill="white" stroke="#666666" points="4055.5,-112.5 3933.5,-112.5 3933.5,-71.5 4055.5,-71.5 4055.5,-112.5"/>
<text text-anchor="start" x="3941.5" y="-100.5" font-family="Helvetica,sans-Serif" font-size="10.00">include/rel/d/a/obj</text>
<text text-anchor="start" x="3941.5" y="-89.5" font-family="Helvetica,sans-Serif" font-size="10.00">/d_a_obj_mgate/d_a_obj</text>
<text text-anchor="middle" x="3994.5" y="-78.5" font-family="Helvetica,sans-Serif" font-size="10.00">_mgate.h</text>
</a>
</g>
</g>
<!-- Node3&#45;&gt;Node83 -->
<g id="edge34" class="edge">
<title>Node3&#45;&gt;Node83</title>
<path fill="none" stroke="#63b8ff" d="M3126.35,-166.6C3301.76,-162.52 3772.12,-148.95 3924.5,-118 3930.95,-116.69 3937.61,-114.91 3944.14,-112.9"/>
<polygon fill="#63b8ff" stroke="#63b8ff" points="3126.42,-163.09 3116.5,-166.82 3126.58,-170.09 3126.42,-163.09"/>
</g>
<!-- Node84 -->
<g id="node35" class="node">
<title>Node84</title>
<g id="a_node35"><a xlink:href="d__a__obj__onsen_8h.html" target="_top" xlink:title=" ">
<polygon fill="white" stroke="#666666" points="4195.5,-112.5 4073.5,-112.5 4073.5,-71.5 4195.5,-71.5 4195.5,-112.5"/>
<text text-anchor="start" x="4081.5" y="-100.5" font-family="Helvetica,sans-Serif" font-size="10.00">include/rel/d/a/obj</text>
<text text-anchor="start" x="4081.5" y="-89.5" font-family="Helvetica,sans-Serif" font-size="10.00">/d_a_obj_onsen/d_a_obj</text>
<text text-anchor="middle" x="4134.5" y="-78.5" font-family="Helvetica,sans-Serif" font-size="10.00">_onsen.h</text>
</a>
</g>
</g>
<!-- Node3&#45;&gt;Node84 -->
<g id="edge35" class="edge">
<title>Node3&#45;&gt;Node84</title>
<path fill="none" stroke="#63b8ff" d="M3126.16,-167.23C3320.5,-164.57 3884.1,-153.89 4064.5,-118 4070.95,-116.72 4077.62,-114.95 4084.15,-112.95"/>
<polygon fill="#63b8ff" stroke="#63b8ff" points="3126.19,-163.72 3116.24,-167.36 3126.28,-170.72 3126.19,-163.72"/>
</g>
<!-- Node85 -->
<g id="node36" class="node">
<title>Node85</title>
<g id="a_node36"><a xlink:href="d__a__obj__onsenFire_8h.html" target="_top" xlink:title=" ">
<polygon fill="white" stroke="#666666" points="4323.5,-112.5 4213.5,-112.5 4213.5,-71.5 4323.5,-71.5 4323.5,-112.5"/>
<text text-anchor="start" x="4221.5" y="-100.5" font-family="Helvetica,sans-Serif" font-size="10.00">include/rel/d/a/obj</text>
<text text-anchor="start" x="4221.5" y="-89.5" font-family="Helvetica,sans-Serif" font-size="10.00">/d_a_obj_onsenFire/d</text>
<text text-anchor="middle" x="4268.5" y="-78.5" font-family="Helvetica,sans-Serif" font-size="10.00">_a_obj_onsenFire.h</text>
</a>
</g>
</g>
<!-- Node3&#45;&gt;Node85 -->
<g id="edge36" class="edge">
<title>Node3&#45;&gt;Node85</title>
<path fill="none" stroke="#63b8ff" d="M3125.93,-167.95C3337.92,-167.35 3996.49,-161.91 4204.5,-118 4210.57,-116.72 4216.81,-114.93 4222.91,-112.88"/>
<polygon fill="#63b8ff" stroke="#63b8ff" points="3126.2,-164.45 3116.21,-167.98 3126.21,-171.45 3126.2,-164.45"/>
</g>
<!-- Node86 -->
<g id="node37" class="node">
<title>Node86</title>
<g id="a_node37"><a xlink:href="d__a__obj__prop_8h.html" target="_top" xlink:title=" ">
<polygon fill="white" stroke="#666666" points="4455.5,-112.5 4341.5,-112.5 4341.5,-71.5 4455.5,-71.5 4455.5,-112.5"/>
<text text-anchor="start" x="4349.5" y="-100.5" font-family="Helvetica,sans-Serif" font-size="10.00">include/rel/d/a/obj</text>
<text text-anchor="start" x="4349.5" y="-89.5" font-family="Helvetica,sans-Serif" font-size="10.00">/d_a_obj_prop/d_a_obj</text>
<text text-anchor="middle" x="4398.5" y="-78.5" font-family="Helvetica,sans-Serif" font-size="10.00">_prop.h</text>
</a>
</g>
</g>
<!-- Node3&#45;&gt;Node86 -->
<g id="edge37" class="edge">
<title>Node3&#45;&gt;Node86</title>
<path fill="none" stroke="#63b8ff" d="M3126.29,-168.21C3353.97,-168.47 4098.56,-165.59 4332.5,-118 4338.74,-116.73 4345.17,-114.94 4351.46,-112.91"/>
<polygon fill="#63b8ff" stroke="#63b8ff" points="3126.4,-164.71 3116.4,-168.19 3126.39,-171.71 3126.4,-164.71"/>
</g>
<!-- Node87 -->
<g id="node38" class="node">
<title>Node87</title>
<g id="a_node38"><a xlink:href="d__a__obj__rcircle_8h.html" target="_top" xlink:title=" ">
<polygon fill="white" stroke="#666666" points="4577.5,-112.5 4473.5,-112.5 4473.5,-71.5 4577.5,-71.5 4577.5,-112.5"/>
<text text-anchor="start" x="4481.5" y="-100.5" font-family="Helvetica,sans-Serif" font-size="10.00">include/rel/d/a/obj</text>
<text text-anchor="start" x="4481.5" y="-89.5" font-family="Helvetica,sans-Serif" font-size="10.00">/d_a_obj_rcircle/d_a</text>
<text text-anchor="middle" x="4525.5" y="-78.5" font-family="Helvetica,sans-Serif" font-size="10.00">_obj_rcircle.h</text>
</a>
</g>
</g>
<!-- Node3&#45;&gt;Node87 -->
<g id="edge38" class="edge">
<title>Node3&#45;&gt;Node87</title>
<path fill="none" stroke="#63b8ff" d="M3126.01,-167.01C3386.97,-162.93 4333.06,-146.33 4464.5,-118 4470.32,-116.75 4476.29,-114.97 4482.11,-112.94"/>
<polygon fill="#63b8ff" stroke="#63b8ff" points="3126.29,-163.5 3116.34,-167.16 3126.39,-170.5 3126.29,-163.5"/>
</g>
<!-- Node88 -->
<g id="node39" class="node">
<title>Node88</title>
<g id="a_node39"><a xlink:href="d__a__obj__smoke_8h.html" target="_top" xlink:title=" ">
<polygon fill="white" stroke="#666666" points="4721,-112.5 4596,-112.5 4596,-71.5 4721,-71.5 4721,-112.5"/>
<text text-anchor="start" x="4604" y="-100.5" font-family="Helvetica,sans-Serif" font-size="10.00">include/rel/d/a/obj</text>
<text text-anchor="start" x="4604" y="-89.5" font-family="Helvetica,sans-Serif" font-size="10.00">/d_a_obj_smoke/d_a_obj</text>
<text text-anchor="middle" x="4658.5" y="-78.5" font-family="Helvetica,sans-Serif" font-size="10.00">_smoke.h</text>
</a>
</g>
</g>
<!-- Node3&#45;&gt;Node88 -->
<g id="edge39" class="edge">
<title>Node3&#45;&gt;Node88</title>
<path fill="none" stroke="#63b8ff" d="M3126.31,-168.48C3382.26,-169.9 4300.28,-171.11 4586.5,-118 4593.27,-116.74 4600.25,-114.97 4607.09,-112.93"/>
<polygon fill="#63b8ff" stroke="#63b8ff" points="3126.52,-164.98 3116.5,-168.42 3126.48,-171.98 3126.52,-164.98"/>
</g>
<!-- Node89 -->
<g id="node40" class="node">
<title>Node89</title>
<g id="a_node40"><a xlink:href="d__a__obj__stone_8h.html" target="_top" xlink:title=" ">
<polygon fill="white" stroke="#666666" points="4858,-112.5 4739,-112.5 4739,-71.5 4858,-71.5 4858,-112.5"/>
<text text-anchor="start" x="4747" y="-100.5" font-family="Helvetica,sans-Serif" font-size="10.00">include/rel/d/a/obj</text>
<text text-anchor="start" x="4747" y="-89.5" font-family="Helvetica,sans-Serif" font-size="10.00">/d_a_obj_stone/d_a_obj</text>
<text text-anchor="middle" x="4798.5" y="-78.5" font-family="Helvetica,sans-Serif" font-size="10.00">_stone.h</text>
</a>
</g>
</g>
<!-- Node3&#45;&gt;Node89 -->
<g id="edge40" class="edge">
<title>Node3&#45;&gt;Node89</title>
<path fill="none" stroke="#63b8ff" d="M3126.19,-167.27C3417.55,-163.92 4571.36,-148.79 4730.5,-118 4736.92,-116.76 4743.54,-114.99 4750.01,-112.96"/>
<polygon fill="#63b8ff" stroke="#63b8ff" points="3126.45,-163.77 3116.49,-167.38 3126.53,-170.77 3126.45,-163.77"/>
</g>
<!-- Node90 -->
<g id="node41" class="node">
<title>Node90</title>
<g id="a_node41"><a xlink:href="d__a__obj__stoneMark_8h.html" target="_top" xlink:title=" ">
<polygon fill="white" stroke="#666666" points="4989,-112.5 4876,-112.5 4876,-71.5 4989,-71.5 4989,-112.5"/>
<text text-anchor="start" x="4884" y="-100.5" font-family="Helvetica,sans-Serif" font-size="10.00">include/rel/d/a/obj</text>
<text text-anchor="start" x="4884" y="-89.5" font-family="Helvetica,sans-Serif" font-size="10.00">/d_a_obj_stoneMark/d</text>
<text text-anchor="middle" x="4932.5" y="-78.5" font-family="Helvetica,sans-Serif" font-size="10.00">_a_obj_stoneMark.h</text>
</a>
</g>
</g>
<!-- Node3&#45;&gt;Node90 -->
<g id="edge41" class="edge">
<title>Node3&#45;&gt;Node90</title>
<path fill="none" stroke="#63b8ff" d="M3126.07,-167.49C3431.89,-164.98 4694.5,-152.6 4867.5,-118 4873.67,-116.77 4880.01,-115 4886.2,-112.98"/>
<polygon fill="#63b8ff" stroke="#63b8ff" points="3126.24,-163.99 3116.27,-167.57 3126.3,-170.99 3126.24,-163.99"/>
</g>
<!-- Node91 -->
<g id="node42" class="node">
<title>Node91</title>
<g id="a_node42"><a xlink:href="d__a__obj__tmoon_8h.html" target="_top" xlink:title=" ">
<polygon fill="white" stroke="#666666" points="5129.5,-112.5 5007.5,-112.5 5007.5,-71.5 5129.5,-71.5 5129.5,-112.5"/>
<text text-anchor="start" x="5015.5" y="-100.5" font-family="Helvetica,sans-Serif" font-size="10.00">include/rel/d/a/obj</text>
<text text-anchor="start" x="5015.5" y="-89.5" font-family="Helvetica,sans-Serif" font-size="10.00">/d_a_obj_tmoon/d_a_obj</text>
<text text-anchor="middle" x="5068.5" y="-78.5" font-family="Helvetica,sans-Serif" font-size="10.00">_tmoon.h</text>
</a>
</g>
</g>
<!-- Node3&#45;&gt;Node91 -->
<g id="edge42" class="edge">
<title>Node3&#45;&gt;Node91</title>
<path fill="none" stroke="#63b8ff" d="M3126.14,-167.53C3445.5,-165.13 4811.6,-152.86 4998.5,-118 5005.1,-116.77 5011.9,-115.01 5018.56,-112.98"/>
<polygon fill="#63b8ff" stroke="#63b8ff" points="3126.27,-164.03 3116.3,-167.61 3126.32,-171.03 3126.27,-164.03"/>
</g>
<!-- Node92 -->
<g id="node43" class="node">
<title>Node92</title>
<g id="a_node43"><a xlink:href="d__a__obj__vground_8h.html" target="_top" xlink:title=" ">
<polygon fill="white" stroke="#666666" points="5259.5,-112.5 5147.5,-112.5 5147.5,-71.5 5259.5,-71.5 5259.5,-112.5"/>
<text text-anchor="start" x="5155.5" y="-100.5" font-family="Helvetica,sans-Serif" font-size="10.00">include/rel/d/a/obj</text>
<text text-anchor="start" x="5155.5" y="-89.5" font-family="Helvetica,sans-Serif" font-size="10.00">/d_a_obj_vground/d_a</text>
<text text-anchor="middle" x="5203.5" y="-78.5" font-family="Helvetica,sans-Serif" font-size="10.00">_obj_vground.h</text>
</a>
</g>
</g>
<!-- Node3&#45;&gt;Node92 -->
<g id="edge43" class="edge">
<title>Node3&#45;&gt;Node92</title>
<path fill="none" stroke="#63b8ff" d="M3126.32,-167.75C3459.97,-166.33 4937.63,-157.8 5138.5,-118 5144.67,-116.78 5151.01,-115.02 5157.2,-113"/>
<polygon fill="#63b8ff" stroke="#63b8ff" points="3126.43,-164.25 3116.45,-167.79 3126.46,-171.25 3126.43,-164.25"/>
</g>
<!-- Node93 -->
<g id="node44" class="node">
<title>Node93</title>
<g id="a_node44"><a xlink:href="d__a__obj__web0_8h.html" target="_top" xlink:title=" ">
<polygon fill="white" stroke="#666666" points="5397,-112.5 5278,-112.5 5278,-71.5 5397,-71.5 5397,-112.5"/>
<text text-anchor="start" x="5286" y="-100.5" font-family="Helvetica,sans-Serif" font-size="10.00">include/rel/d/a/obj</text>
<text text-anchor="start" x="5286" y="-89.5" font-family="Helvetica,sans-Serif" font-size="10.00">/d_a_obj_web0/d_a_obj</text>
<text text-anchor="middle" x="5337.5" y="-78.5" font-family="Helvetica,sans-Serif" font-size="10.00">_web0.h</text>
</a>
</g>
</g>
<!-- Node3&#45;&gt;Node93 -->
<g id="edge44" class="edge">
<title>Node3&#45;&gt;Node93</title>
<path fill="none" stroke="#63b8ff" d="M3126.25,-167.78C3472.23,-166.45 5053.78,-158.21 5268.5,-118 5275.14,-116.76 5281.98,-114.96 5288.67,-112.88"/>
<polygon fill="#63b8ff" stroke="#63b8ff" points="3126.44,-164.28 3116.45,-167.81 3126.47,-171.28 3126.44,-164.28"/>
</g>
<!-- Node94 -->
<g id="node45" class="node">
<title>Node94</title>
<g id="a_node45"><a xlink:href="d__a__obj__web1_8h.html" target="_top" xlink:title=" ">
<polygon fill="white" stroke="#666666" points="5534,-112.5 5415,-112.5 5415,-71.5 5534,-71.5 5534,-112.5"/>
<text text-anchor="start" x="5423" y="-100.5" font-family="Helvetica,sans-Serif" font-size="10.00">include/rel/d/a/obj</text>
<text text-anchor="start" x="5423" y="-89.5" font-family="Helvetica,sans-Serif" font-size="10.00">/d_a_obj_web1/d_a_obj</text>
<text text-anchor="middle" x="5474.5" y="-78.5" font-family="Helvetica,sans-Serif" font-size="10.00">_web1.h</text>
</a>
</g>
</g>
<!-- Node3&#45;&gt;Node94 -->
<g id="edge45" class="edge">
<title>Node3&#45;&gt;Node94</title>
<path fill="none" stroke="#63b8ff" d="M3126.04,-167.2C3496.43,-162.68 5291.61,-139.71 5406.5,-118 5413.05,-116.76 5419.8,-114.96 5426.39,-112.89"/>
<polygon fill="#63b8ff" stroke="#63b8ff" points="3126.2,-163.7 3116.24,-167.32 3126.29,-170.7 3126.2,-163.7"/>
</g>
<!-- Node95 -->
<g id="node46" class="node">
<title>Node95</title>
<g id="a_node46"><a xlink:href="d__a__obj__yobikusa_8h.html" target="_top" xlink:title=" ">
<polygon fill="white" stroke="#666666" points="5657,-112.5 5552,-112.5 5552,-71.5 5657,-71.5 5657,-112.5"/>
<text text-anchor="start" x="5560" y="-100.5" font-family="Helvetica,sans-Serif" font-size="10.00">include/rel/d/a/obj</text>
<text text-anchor="start" x="5560" y="-89.5" font-family="Helvetica,sans-Serif" font-size="10.00">/d_a_obj_yobikusa/d</text>
<text text-anchor="middle" x="5604.5" y="-78.5" font-family="Helvetica,sans-Serif" font-size="10.00">_a_obj_yobikusa.h</text>
</a>
</g>
</g>
<!-- Node3&#45;&gt;Node95 -->
<g id="edge46" class="edge">
<title>Node3&#45;&gt;Node95</title>
<path fill="none" stroke="#63b8ff" d="M3126.2,-167.35C3509.8,-163.52 5421.95,-143.21 5543.5,-118 5549.44,-116.77 5555.53,-114.97 5561.47,-112.9"/>
<polygon fill="#63b8ff" stroke="#63b8ff" points="3126.25,-163.85 3116.29,-167.45 3126.32,-170.85 3126.25,-163.85"/>
</g>
<!-- Node96 -->
<g id="node47" class="node">
<title>Node96</title>
<g id="a_node47"><a xlink:href="d__a__obj__mirror__6pole_8h.html" target="_top" xlink:title=" ">
<polygon fill="white" stroke="#666666" points="5787.5,-118 5675.5,-118 5675.5,-66 5787.5,-66 5787.5,-118"/>
<text text-anchor="start" x="5683.5" y="-106" font-family="Helvetica,sans-Serif" font-size="10.00">include/rel/d/a/obj</text>
<text text-anchor="start" x="5683.5" y="-95" font-family="Helvetica,sans-Serif" font-size="10.00">/mirror/d_a_obj_mirror</text>
<text text-anchor="start" x="5683.5" y="-84" font-family="Helvetica,sans-Serif" font-size="10.00">_6pole/d_a_obj_mirror</text>
<text text-anchor="middle" x="5731.5" y="-73" font-family="Helvetica,sans-Serif" font-size="10.00">_6pole.h</text>
</a>
</g>
</g>
<!-- Node3&#45;&gt;Node96 -->
<g id="edge47" class="edge">
<title>Node3&#45;&gt;Node96</title>
<path fill="none" stroke="#63b8ff" d="M3126.31,-167.37C3521.33,-163.59 5538.3,-143.08 5666.5,-118 5669.35,-117.44 5672.23,-116.77 5675.12,-116.01"/>
<polygon fill="#63b8ff" stroke="#63b8ff" points="3126.31,-163.87 3116.34,-167.47 3126.38,-170.87 3126.31,-163.87"/>
</g>
<!-- Node97 -->
<g id="node48" class="node">
<title>Node97</title>
<g id="a_node48"><a xlink:href="d__a__obj__mirror__sand_8h.html" target="_top" xlink:title=" ">
<polygon fill="white" stroke="#666666" points="5949,-112.5 5806,-112.5 5806,-71.5 5949,-71.5 5949,-112.5"/>
<text text-anchor="start" x="5814" y="-100.5" font-family="Helvetica,sans-Serif" font-size="10.00">include/rel/d/a/obj</text>
<text text-anchor="start" x="5814" y="-89.5" font-family="Helvetica,sans-Serif" font-size="10.00">/mirror/d_a_obj_mirror</text>
<text text-anchor="middle" x="5877.5" y="-78.5" font-family="Helvetica,sans-Serif" font-size="10.00">_sand/d_a_obj_mirror_sand.h</text>
</a>
</g>
</g>
<!-- Node3&#45;&gt;Node97 -->
<g id="edge48" class="edge">
<title>Node3&#45;&gt;Node97</title>
<path fill="none" stroke="#63b8ff" d="M3126.05,-167.31C3531.87,-163.06 5660.69,-139.75 5796.5,-118 5804.2,-116.77 5812.19,-114.97 5820.01,-112.9"/>
<polygon fill="#63b8ff" stroke="#63b8ff" points="3126.3,-163.81 3116.34,-167.41 3126.37,-170.81 3126.3,-163.81"/>
</g>
<!-- Node3&#45;&gt;Node154 -->
<g id="edge49" class="edge">
<title>Node3&#45;&gt;Node154</title>
<path fill="none" stroke="#63b8ff" d="M3126.29,-167.54C3546.84,-164.54 5815.32,-147.06 5958.5,-118 5974.31,-114.79 5991.23,-107.7 6003.39,-101.88"/>
<polygon fill="#63b8ff" stroke="#63b8ff" points="3126.46,-164.04 3116.48,-167.61 3126.51,-171.04 3126.46,-164.04"/>
</g>
<!-- Node31&#45;&gt;Node13 -->
<g id="edge10" class="edge">
<title>Node31&#45;&gt;Node13</title>
<path fill="none" stroke="#63b8ff" d="M721.76,-77.72C711.82,-73.75 700.77,-69.52 690.5,-66 650.79,-52.38 605.13,-39.22 570.84,-29.82"/>
<polygon fill="#63b8ff" stroke="#63b8ff" points="720.42,-80.96 731,-81.48 723.05,-74.47 720.42,-80.96"/>
</g>
</g>
</svg>
