<?xml version="1.0" encoding="UTF-8" standalone="no"?>
<!DOCTYPE svg PUBLIC "-//W3C//DTD SVG 1.1//EN"
 "http://www.w3.org/Graphics/SVG/1.1/DTD/svg11.dtd">
<!-- Generated by graphviz version 7.0.5 (20221223.1930)
 -->
<!-- Title: include/MSL_C/MSL_Common/Src/extras.h Pages: 1 -->
<svg width="5274pt" height="302pt"
 viewBox="0.00 0.00 5274.00 302.00" xmlns="http://www.w3.org/2000/svg" xmlns:xlink="http://www.w3.org/1999/xlink">
<g id="graph0" class="graph" transform="scale(1 1) rotate(0) translate(4 298)">
<title>include/MSL_C/MSL_Common/Src/extras.h</title>
<!-- Node1 -->
<g id="node1" class="node">
<title>Node1</title>
<g id="a_node1"><a xlink:title=" ">
<polygon fill="#999999" stroke="#666666" points="3059,-294 2907,-294 2907,-264 3059,-264 3059,-294"/>
<text text-anchor="start" x="2915" y="-282" font-family="Helvetica,sans-Serif" font-size="10.00">include/MSL_C/MSL_Common</text>
<text text-anchor="middle" x="2983" y="-271" font-family="Helvetica,sans-Serif" font-size="10.00">/Src/extras.h</text>
</a>
</g>
</g>
<!-- Node2 -->
<g id="node2" class="node">
<title>Node2</title>
<g id="a_node2"><a xlink:href="string_8h.html" target="_top" xlink:title=" ">
<polygon fill="white" stroke="#666666" points="2970,-222.5 2852,-222.5 2852,-203.5 2970,-203.5 2970,-222.5"/>
<text text-anchor="middle" x="2911" y="-210.5" font-family="Helvetica,sans-Serif" font-size="10.00">include/MSL_C/string.h</text>
</a>
</g>
</g>
<!-- Node1&#45;&gt;Node2 -->
<g id="edge1" class="edge">
<title>Node1&#45;&gt;Node2</title>
<path fill="none" stroke="#63b8ff" d="M2958.56,-256.27C2945.69,-244.84 2930.62,-231.44 2920.95,-222.84"/>
<polygon fill="#63b8ff" stroke="#63b8ff" points="2956.09,-258.76 2965.89,-262.79 2960.74,-253.53 2956.09,-258.76"/>
</g>
<!-- Node255 -->
<g id="node50" class="node">
<title>Node255</title>
<g id="a_node50"><a xlink:href="extras_8c.html" target="_top" xlink:title=" ">
<polygon fill="white" stroke="#666666" points="3124,-228 2988,-228 2988,-198 3124,-198 3124,-228"/>
<text text-anchor="start" x="2996" y="-216" font-family="Helvetica,sans-Serif" font-size="10.00">libs/MSL_C/MSL_Common</text>
<text text-anchor="middle" x="3056" y="-205" font-family="Helvetica,sans-Serif" font-size="10.00">/Src/extras.c</text>
</a>
</g>
</g>
<!-- Node1&#45;&gt;Node255 -->
<g id="edge50" class="edge">
<title>Node1&#45;&gt;Node255</title>
<path fill="none" stroke="#63b8ff" d="M3007.61,-256.42C3018.15,-247.18 3030.17,-236.65 3039.59,-228.39"/>
<polygon fill="#63b8ff" stroke="#63b8ff" points="3005.55,-253.57 3000.34,-262.8 3010.17,-258.84 3005.55,-253.57"/>
</g>
<!-- Node3 -->
<g id="node3" class="node">
<title>Node3</title>
<g id="a_node3"><a xlink:href="JUTFont_8h.html" target="_top" xlink:title=" ">
<polygon fill="white" stroke="#666666" points="412,-162 290,-162 290,-132 412,-132 412,-162"/>
<text text-anchor="start" x="298" y="-150" font-family="Helvetica,sans-Serif" font-size="10.00">include/JSystem/JUtility</text>
<text text-anchor="middle" x="351" y="-139" font-family="Helvetica,sans-Serif" font-size="10.00">/JUTFont.h</text>
</a>
</g>
</g>
<!-- Node2&#45;&gt;Node3 -->
<g id="edge2" class="edge">
<title>Node2&#45;&gt;Node3</title>
<path fill="none" stroke="#63b8ff" d="M2840.63,-211.05C2562.91,-207.18 1516.19,-191.37 655,-162 570.91,-159.13 473.8,-154.41 412.41,-151.26"/>
<polygon fill="#63b8ff" stroke="#63b8ff" points="2840.17,-214.55 2850.21,-211.19 2840.26,-207.55 2840.17,-214.55"/>
</g>
<!-- Node28 -->
<g id="node11" class="node">
<title>Node28</title>
<g id="a_node11"><a xlink:href="d__name_8h.html" target="_top" xlink:title=" ">
<polygon fill="white" stroke="#666666" points="765.5,-156.5 664.5,-156.5 664.5,-137.5 765.5,-137.5 765.5,-156.5"/>
<text text-anchor="middle" x="715" y="-144.5" font-family="Helvetica,sans-Serif" font-size="10.00">include/d/d_name.h</text>
</a>
</g>
</g>
<!-- Node2&#45;&gt;Node28 -->
<g id="edge11" class="edge">
<title>Node2&#45;&gt;Node28</title>
<path fill="none" stroke="#63b8ff" d="M2840.08,-211.6C2580.28,-209.83 1656.03,-201.01 895,-162 851.33,-159.76 801.81,-155.81 765.77,-152.67"/>
<polygon fill="#63b8ff" stroke="#63b8ff" points="2840.05,-215.1 2850.07,-211.66 2840.1,-208.1 2840.05,-215.1"/>
</g>
<!-- Node32 -->
<g id="node14" class="node">
<title>Node32</title>
<g id="a_node14"><a xlink:href="d__save_8h.html" target="_top" xlink:title=" ">
<polygon fill="white" stroke="#666666" points="1026,-156.5 904,-156.5 904,-137.5 1026,-137.5 1026,-156.5"/>
<text text-anchor="middle" x="965" y="-144.5" font-family="Helvetica,sans-Serif" font-size="10.00">include/d/save/d_save.h</text>
</a>
</g>
</g>
<!-- Node2&#45;&gt;Node32 -->
<g id="edge14" class="edge">
<title>Node2&#45;&gt;Node32</title>
<path fill="none" stroke="#63b8ff" d="M2840.21,-211.7C2543.07,-210.22 1395.5,-201.95 1036,-162 1025.64,-160.85 1014.53,-158.97 1004.25,-156.96"/>
<polygon fill="#63b8ff" stroke="#63b8ff" points="2840.13,-215.2 2850.14,-211.75 2840.16,-208.2 2840.13,-215.2"/>
</g>
<!-- Node226 -->
<g id="node20" class="node">
<title>Node226</title>
<g id="a_node20"><a xlink:href="J2DManage_8cpp.html" target="_top" xlink:title=" ">
<polygon fill="white" stroke="#666666" points="1163.5,-162 1044.5,-162 1044.5,-132 1163.5,-132 1163.5,-162"/>
<text text-anchor="start" x="1052.5" y="-150" font-family="Helvetica,sans-Serif" font-size="10.00">libs/JSystem/J2DGraph</text>
<text text-anchor="middle" x="1104" y="-139" font-family="Helvetica,sans-Serif" font-size="10.00">/J2DManage.cpp</text>
</a>
</g>
</g>
<!-- Node2&#45;&gt;Node226 -->
<g id="edge20" class="edge">
<title>Node2&#45;&gt;Node226</title>
<path fill="none" stroke="#63b8ff" d="M2840.29,-211.58C2557.09,-209.66 1504.09,-200.07 1173,-162 1169.96,-161.65 1166.86,-161.24 1163.74,-160.77"/>
<polygon fill="#63b8ff" stroke="#63b8ff" points="2840.08,-215.08 2850.11,-211.65 2840.13,-208.08 2840.08,-215.08"/>
</g>
<!-- Node227 -->
<g id="node21" class="node">
<title>Node227</title>
<g id="a_node21"><a xlink:href="J2DMaterialFactory_8cpp.html" target="_top" xlink:title=" ">
<polygon fill="white" stroke="#666666" points="1304,-162 1182,-162 1182,-132 1304,-132 1304,-162"/>
<text text-anchor="start" x="1190" y="-150" font-family="Helvetica,sans-Serif" font-size="10.00">libs/JSystem/J2DGraph</text>
<text text-anchor="middle" x="1243" y="-139" font-family="Helvetica,sans-Serif" font-size="10.00">/J2DMaterialFactory.cpp</text>
</a>
</g>
</g>
<!-- Node2&#45;&gt;Node227 -->
<g id="edge21" class="edge">
<title>Node2&#45;&gt;Node227</title>
<path fill="none" stroke="#63b8ff" d="M2840.36,-211.32C2572.07,-208.52 1616.14,-196.29 1314,-162 1310.88,-161.65 1307.69,-161.23 1304.48,-160.76"/>
<polygon fill="#63b8ff" stroke="#63b8ff" points="2840.32,-214.82 2850.35,-211.43 2840.39,-207.82 2840.32,-214.82"/>
</g>
<!-- Node228 -->
<g id="node22" class="node">
<title>Node228</title>
<g id="a_node22"><a xlink:href="J2DPrint_8cpp.html" target="_top" xlink:title=" ">
<polygon fill="white" stroke="#666666" points="1441.5,-162 1322.5,-162 1322.5,-132 1441.5,-132 1441.5,-162"/>
<text text-anchor="start" x="1330.5" y="-150" font-family="Helvetica,sans-Serif" font-size="10.00">libs/JSystem/J2DGraph</text>
<text text-anchor="middle" x="1382" y="-139" font-family="Helvetica,sans-Serif" font-size="10.00">/J2DPrint.cpp</text>
</a>
</g>
</g>
<!-- Node2&#45;&gt;Node228 -->
<g id="edge22" class="edge">
<title>Node2&#45;&gt;Node228</title>
<path fill="none" stroke="#63b8ff" d="M2840.56,-211.14C2587.52,-207.8 1724.96,-194.26 1451,-162 1447.97,-161.64 1444.87,-161.22 1441.74,-160.75"/>
<polygon fill="#63b8ff" stroke="#63b8ff" points="2840.24,-214.63 2850.28,-211.26 2840.33,-207.63 2840.24,-214.63"/>
</g>
<!-- Node229 -->
<g id="node23" class="node">
<title>Node229</title>
<g id="a_node23"><a xlink:href="J3DPacket_8cpp.html" target="_top" xlink:title=" ">
<polygon fill="white" stroke="#666666" points="1602,-162 1460,-162 1460,-132 1602,-132 1602,-162"/>
<text text-anchor="start" x="1468" y="-150" font-family="Helvetica,sans-Serif" font-size="10.00">libs/JSystem/J3DGraphBase</text>
<text text-anchor="middle" x="1531" y="-139" font-family="Helvetica,sans-Serif" font-size="10.00">/J3DPacket.cpp</text>
</a>
</g>
</g>
<!-- Node2&#45;&gt;Node229 -->
<g id="edge23" class="edge">
<title>Node2&#45;&gt;Node229</title>
<path fill="none" stroke="#63b8ff" d="M2840.25,-212.62C2644.29,-213.62 2078.12,-211.63 1611,-162 1608.2,-161.7 1605.34,-161.37 1602.46,-161"/>
<polygon fill="#63b8ff" stroke="#63b8ff" points="2840.02,-216.12 2850,-212.57 2839.98,-209.12 2840.02,-216.12"/>
</g>
<!-- Node230 -->
<g id="node24" class="node">
<title>Node230</title>
<g id="a_node24"><a xlink:href="J3DShapeDraw_8cpp.html" target="_top" xlink:title=" ">
<polygon fill="white" stroke="#666666" points="1762,-162 1620,-162 1620,-132 1762,-132 1762,-162"/>
<text text-anchor="start" x="1628" y="-150" font-family="Helvetica,sans-Serif" font-size="10.00">libs/JSystem/J3DGraphBase</text>
<text text-anchor="middle" x="1691" y="-139" font-family="Helvetica,sans-Serif" font-size="10.00">/J3DShapeDraw.cpp</text>
</a>
</g>
</g>
<!-- Node2&#45;&gt;Node230 -->
<g id="edge24" class="edge">
<title>Node2&#45;&gt;Node230</title>
<path fill="none" stroke="#63b8ff" d="M2840.4,-212.07C2661.13,-211.57 2174,-205.91 1771,-162 1768.2,-161.69 1765.34,-161.35 1762.46,-160.98"/>
<polygon fill="#63b8ff" stroke="#63b8ff" points="2840.24,-215.57 2850.24,-212.1 2840.25,-208.57 2840.24,-215.57"/>
</g>
<!-- Node231 -->
<g id="node25" class="node">
<title>Node231</title>
<g id="a_node25"><a xlink:href="J3DVertex_8cpp.html" target="_top" xlink:title=" ">
<polygon fill="white" stroke="#666666" points="1922,-162 1780,-162 1780,-132 1922,-132 1922,-162"/>
<text text-anchor="start" x="1788" y="-150" font-family="Helvetica,sans-Serif" font-size="10.00">libs/JSystem/J3DGraphBase</text>
<text text-anchor="middle" x="1851" y="-139" font-family="Helvetica,sans-Serif" font-size="10.00">/J3DVertex.cpp</text>
</a>
</g>
</g>
<!-- Node2&#45;&gt;Node231 -->
<g id="edge25" class="edge">
<title>Node2&#45;&gt;Node231</title>
<path fill="none" stroke="#63b8ff" d="M2840.5,-211.36C2679.07,-209.23 2270.33,-200.2 1931,-162 1928.2,-161.68 1925.34,-161.33 1922.47,-160.95"/>
<polygon fill="#63b8ff" stroke="#63b8ff" points="2840.14,-214.85 2850.18,-211.48 2840.23,-207.85 2840.14,-214.85"/>
</g>
<!-- Node232 -->
<g id="node26" class="node">
<title>Node232</title>
<g id="a_node26"><a xlink:href="JASWaveArcLoader_8cpp.html" target="_top" xlink:title=" ">
<polygon fill="white" stroke="#666666" points="2066,-162 1940,-162 1940,-132 2066,-132 2066,-162"/>
<text text-anchor="start" x="1948" y="-150" font-family="Helvetica,sans-Serif" font-size="10.00">libs/JSystem/JAudio2</text>
<text text-anchor="middle" x="2003" y="-139" font-family="Helvetica,sans-Serif" font-size="10.00">/JASWaveArcLoader.cpp</text>
</a>
</g>
</g>
<!-- Node2&#45;&gt;Node232 -->
<g id="edge26" class="edge">
<title>Node2&#45;&gt;Node232</title>
<path fill="none" stroke="#63b8ff" d="M2840.24,-210.85C2695.97,-207.84 2357.65,-197.29 2076,-162 2072.8,-161.6 2069.53,-161.14 2066.23,-160.65"/>
<polygon fill="#63b8ff" stroke="#63b8ff" points="2839.95,-214.35 2850.02,-211.05 2840.09,-207.35 2839.95,-214.35"/>
</g>
<!-- Node233 -->
<g id="node27" class="node">
<title>Node233</title>
<g id="a_node27"><a xlink:href="JKRAram_8cpp.html" target="_top" xlink:title=" ">
<polygon fill="white" stroke="#666666" points="2193.5,-162 2084.5,-162 2084.5,-132 2193.5,-132 2193.5,-162"/>
<text text-anchor="start" x="2092.5" y="-150" font-family="Helvetica,sans-Serif" font-size="10.00">libs/JSystem/JKernel</text>
<text text-anchor="middle" x="2139" y="-139" font-family="Helvetica,sans-Serif" font-size="10.00">/JKRAram.cpp</text>
</a>
</g>
</g>
<!-- Node2&#45;&gt;Node233 -->
<g id="edge27" class="edge">
<title>Node2&#45;&gt;Node233</title>
<path fill="none" stroke="#63b8ff" d="M2840.82,-210.41C2713.24,-206.77 2435.05,-195.39 2203,-162 2199.96,-161.56 2196.85,-161.06 2193.72,-160.52"/>
<polygon fill="#63b8ff" stroke="#63b8ff" points="2840.34,-213.9 2850.44,-210.68 2840.54,-206.9 2840.34,-213.9"/>
</g>
<!-- Node234 -->
<g id="node28" class="node">
<title>Node234</title>
<g id="a_node28"><a xlink:href="JKRAramArchive_8cpp.html" target="_top" xlink:title=" ">
<polygon fill="white" stroke="#666666" points="2324.5,-162 2211.5,-162 2211.5,-132 2324.5,-132 2324.5,-162"/>
<text text-anchor="start" x="2219.5" y="-150" font-family="Helvetica,sans-Serif" font-size="10.00">libs/JSystem/JKernel</text>
<text text-anchor="middle" x="2268" y="-139" font-family="Helvetica,sans-Serif" font-size="10.00">/JKRAramArchive.cpp</text>
</a>
</g>
</g>
<!-- Node2&#45;&gt;Node234 -->
<g id="edge28" class="edge">
<title>Node2&#45;&gt;Node234</title>
<path fill="none" stroke="#63b8ff" d="M2840.25,-208.67C2731.12,-202.9 2515.36,-188.99 2334,-162 2330.99,-161.55 2327.91,-161.05 2324.8,-160.51"/>
<polygon fill="#63b8ff" stroke="#63b8ff" points="2840.07,-212.16 2850.23,-209.19 2840.43,-205.17 2840.07,-212.16"/>
</g>
<!-- Node235 -->
<g id="node29" class="node">
<title>Node235</title>
<g id="a_node29"><a xlink:href="JKRArchivePri_8cpp.html" target="_top" xlink:title=" ">
<polygon fill="white" stroke="#666666" points="2451.5,-162 2342.5,-162 2342.5,-132 2451.5,-132 2451.5,-162"/>
<text text-anchor="start" x="2350.5" y="-150" font-family="Helvetica,sans-Serif" font-size="10.00">libs/JSystem/JKernel</text>
<text text-anchor="middle" x="2397" y="-139" font-family="Helvetica,sans-Serif" font-size="10.00">/JKRArchivePri.cpp</text>
</a>
</g>
</g>
<!-- Node2&#45;&gt;Node235 -->
<g id="edge29" class="edge">
<title>Node2&#45;&gt;Node235</title>
<path fill="none" stroke="#63b8ff" d="M2840.48,-206.47C2751.62,-198.96 2594.38,-183.94 2461,-162 2457.97,-161.5 2454.87,-160.95 2451.74,-160.37"/>
<polygon fill="#63b8ff" stroke="#63b8ff" points="2840,-209.94 2850.25,-207.28 2840.58,-202.96 2840,-209.94"/>
</g>
<!-- Node236 -->
<g id="node30" class="node">
<title>Node236</title>
<g id="a_node30"><a xlink:href="JKRCompArchive_8cpp.html" target="_top" xlink:title=" ">
<polygon fill="white" stroke="#666666" points="2584.5,-162 2469.5,-162 2469.5,-132 2584.5,-132 2584.5,-162"/>
<text text-anchor="start" x="2477.5" y="-150" font-family="Helvetica,sans-Serif" font-size="10.00">libs/JSystem/JKernel</text>
<text text-anchor="middle" x="2527" y="-139" font-family="Helvetica,sans-Serif" font-size="10.00">/JKRCompArchive.cpp</text>
</a>
</g>
</g>
<!-- Node2&#45;&gt;Node236 -->
<g id="edge30" class="edge">
<title>Node2&#45;&gt;Node236</title>
<path fill="none" stroke="#63b8ff" d="M2840.33,-201.88C2775.97,-192.42 2678.4,-177.46 2594,-162 2590.96,-161.44 2587.85,-160.86 2584.71,-160.25"/>
<polygon fill="#63b8ff" stroke="#63b8ff" points="2839.65,-205.32 2850.05,-203.3 2840.67,-198.39 2839.65,-205.32"/>
</g>
<!-- Node237 -->
<g id="node31" class="node">
<title>Node237</title>
<g id="a_node31"><a xlink:href="JKRDvdArchive_8cpp.html" target="_top" xlink:title=" ">
<polygon fill="white" stroke="#666666" points="2711.5,-162 2602.5,-162 2602.5,-132 2711.5,-132 2711.5,-162"/>
<text text-anchor="start" x="2610.5" y="-150" font-family="Helvetica,sans-Serif" font-size="10.00">libs/JSystem/JKernel</text>
<text text-anchor="middle" x="2657" y="-139" font-family="Helvetica,sans-Serif" font-size="10.00">/JKRDvdArchive.cpp</text>
</a>
</g>
</g>
<!-- Node2&#45;&gt;Node237 -->
<g id="edge31" class="edge">
<title>Node2&#45;&gt;Node237</title>
<path fill="none" stroke="#63b8ff" d="M2864.41,-200.26C2821.38,-189.42 2757.42,-173.3 2711.92,-161.84"/>
<polygon fill="#63b8ff" stroke="#63b8ff" points="2863.4,-203.61 2873.95,-202.66 2865.11,-196.83 2863.4,-203.61"/>
</g>
<!-- Node238 -->
<g id="node32" class="node">
<title>Node238</title>
<g id="a_node32"><a xlink:href="JKRDvdRipper_8cpp.html" target="_top" xlink:title=" ">
<polygon fill="white" stroke="#666666" points="2838.5,-162 2729.5,-162 2729.5,-132 2838.5,-132 2838.5,-162"/>
<text text-anchor="start" x="2737.5" y="-150" font-family="Helvetica,sans-Serif" font-size="10.00">libs/JSystem/JKernel</text>
<text text-anchor="middle" x="2784" y="-139" font-family="Helvetica,sans-Serif" font-size="10.00">/JKRDvdRipper.cpp</text>
</a>
</g>
</g>
<!-- Node2&#45;&gt;Node238 -->
<g id="edge32" class="edge">
<title>Node2&#45;&gt;Node238</title>
<path fill="none" stroke="#63b8ff" d="M2883.2,-197.99C2862.32,-187.47 2833.83,-173.11 2812.73,-162.48"/>
<polygon fill="#63b8ff" stroke="#63b8ff" points="2881.48,-201.05 2891.99,-202.42 2884.63,-194.79 2881.48,-201.05"/>
</g>
<!-- Node239 -->
<g id="node33" class="node">
<title>Node239</title>
<g id="a_node33"><a xlink:href="JKRFileCache_8cpp.html" target="_top" xlink:title=" ">
<polygon fill="white" stroke="#666666" points="2965.5,-162 2856.5,-162 2856.5,-132 2965.5,-132 2965.5,-162"/>
<text text-anchor="start" x="2864.5" y="-150" font-family="Helvetica,sans-Serif" font-size="10.00">libs/JSystem/JKernel</text>
<text text-anchor="middle" x="2911" y="-139" font-family="Helvetica,sans-Serif" font-size="10.00">/JKRFileCache.cpp</text>
</a>
</g>
</g>
<!-- Node2&#45;&gt;Node239 -->
<g id="edge33" class="edge">
<title>Node2&#45;&gt;Node239</title>
<path fill="none" stroke="#63b8ff" d="M2911,-191.78C2911,-182.17 2911,-170.92 2911,-162.23"/>
<polygon fill="#63b8ff" stroke="#63b8ff" points="2907.5,-191.59 2911,-201.59 2914.5,-191.59 2907.5,-191.59"/>
</g>
<!-- Node240 -->
<g id="node34" class="node">
<title>Node240</title>
<g id="a_node34"><a xlink:href="JKRFileLoader_8cpp.html" target="_top" xlink:title=" ">
<polygon fill="white" stroke="#666666" points="3092.5,-162 2983.5,-162 2983.5,-132 3092.5,-132 3092.5,-162"/>
<text text-anchor="start" x="2991.5" y="-150" font-family="Helvetica,sans-Serif" font-size="10.00">libs/JSystem/JKernel</text>
<text text-anchor="middle" x="3038" y="-139" font-family="Helvetica,sans-Serif" font-size="10.00">/JKRFileLoader.cpp</text>
</a>
</g>
</g>
<!-- Node2&#45;&gt;Node240 -->
<g id="edge34" class="edge">
<title>Node2&#45;&gt;Node240</title>
<path fill="none" stroke="#63b8ff" d="M2938.8,-197.99C2959.68,-187.47 2988.17,-173.11 3009.27,-162.48"/>
<polygon fill="#63b8ff" stroke="#63b8ff" points="2937.37,-194.79 2930.01,-202.42 2940.52,-201.05 2937.37,-194.79"/>
</g>
<!-- Node241 -->
<g id="node35" class="node">
<title>Node241</title>
<g id="a_node35"><a xlink:href="JKRMemArchive_8cpp.html" target="_top" xlink:title=" ">
<polygon fill="white" stroke="#666666" points="3221.5,-162 3110.5,-162 3110.5,-132 3221.5,-132 3221.5,-162"/>
<text text-anchor="start" x="3118.5" y="-150" font-family="Helvetica,sans-Serif" font-size="10.00">libs/JSystem/JKernel</text>
<text text-anchor="middle" x="3166" y="-139" font-family="Helvetica,sans-Serif" font-size="10.00">/JKRMemArchive.cpp</text>
</a>
</g>
</g>
<!-- Node2&#45;&gt;Node241 -->
<g id="edge35" class="edge">
<title>Node2&#45;&gt;Node241</title>
<path fill="none" stroke="#63b8ff" d="M2957.74,-200.27C3000.79,-189.46 3064.72,-173.42 3110.38,-161.96"/>
<polygon fill="#63b8ff" stroke="#63b8ff" points="2957.04,-196.84 2948.19,-202.67 2958.74,-203.63 2957.04,-196.84"/>
</g>
<!-- Node242 -->
<g id="node36" class="node">
<title>Node242</title>
<g id="a_node36"><a xlink:href="resource_8cpp.html" target="_top" xlink:title=" ">
<polygon fill="white" stroke="#666666" points="3360.5,-162 3239.5,-162 3239.5,-132 3360.5,-132 3360.5,-162"/>
<text text-anchor="start" x="3247.5" y="-150" font-family="Helvetica,sans-Serif" font-size="10.00">libs/JSystem/JMessage</text>
<text text-anchor="middle" x="3300" y="-139" font-family="Helvetica,sans-Serif" font-size="10.00">/resource.cpp</text>
</a>
</g>
</g>
<!-- Node2&#45;&gt;Node242 -->
<g id="edge36" class="edge">
<title>Node2&#45;&gt;Node242</title>
<path fill="none" stroke="#63b8ff" d="M2963.79,-200.8C2968.92,-199.81 2974.06,-198.86 2979,-198 3090.46,-178.58 3119.51,-181.26 3231,-162 3233.65,-161.54 3236.35,-161.06 3239.08,-160.56"/>
<polygon fill="#63b8ff" stroke="#63b8ff" points="2963.25,-197.34 2954.12,-202.71 2964.61,-204.21 2963.25,-197.34"/>
</g>
<!-- Node243 -->
<g id="node37" class="node">
<title>Node243</title>
<g id="a_node37"><a xlink:href="JPAResourceManager_8cpp.html" target="_top" xlink:title=" ">
<polygon fill="white" stroke="#666666" points="3513.5,-162 3378.5,-162 3378.5,-132 3513.5,-132 3513.5,-162"/>
<text text-anchor="start" x="3386.5" y="-150" font-family="Helvetica,sans-Serif" font-size="10.00">libs/JSystem/JParticle</text>
<text text-anchor="middle" x="3446" y="-139" font-family="Helvetica,sans-Serif" font-size="10.00">/JPAResourceManager.cpp</text>
</a>
</g>
</g>
<!-- Node2&#45;&gt;Node243 -->
<g id="edge37" class="edge">
<title>Node2&#45;&gt;Node243</title>
<path fill="none" stroke="#63b8ff" d="M2961.79,-200.9C2967.58,-199.83 2973.41,-198.83 2979,-198 3151.62,-172.36 3197.12,-185.83 3370,-162 3372.66,-161.63 3375.36,-161.24 3378.1,-160.82"/>
<polygon fill="#63b8ff" stroke="#63b8ff" points="2961.42,-197.41 2952.27,-202.75 2962.75,-204.28 2961.42,-197.41"/>
</g>
<!-- Node244 -->
<g id="node38" class="node">
<title>Node244</title>
<g id="a_node38"><a xlink:href="JSUMemoryStream_8cpp.html" target="_top" xlink:title=" ">
<polygon fill="white" stroke="#666666" points="3654.5,-162 3531.5,-162 3531.5,-132 3654.5,-132 3654.5,-162"/>
<text text-anchor="start" x="3539.5" y="-150" font-family="Helvetica,sans-Serif" font-size="10.00">libs/JSystem/JSupport</text>
<text text-anchor="middle" x="3593" y="-139" font-family="Helvetica,sans-Serif" font-size="10.00">/JSUMemoryStream.cpp</text>
</a>
</g>
</g>
<!-- Node2&#45;&gt;Node244 -->
<g id="edge38" class="edge">
<title>Node2&#45;&gt;Node244</title>
<path fill="none" stroke="#63b8ff" d="M2961.32,-200.84C2967.26,-199.76 2973.25,-198.78 2979,-198 3219.12,-165.49 3282.79,-193.83 3523,-162 3525.7,-161.64 3528.46,-161.24 3531.24,-160.81"/>
<polygon fill="#63b8ff" stroke="#63b8ff" points="2960.68,-197.4 2951.52,-202.72 2962,-204.27 2960.68,-197.4"/>
</g>
<!-- Node245 -->
<g id="node39" class="node">
<title>Node245</title>
<g id="a_node39"><a xlink:href="JUTNameTab_8cpp.html" target="_top" xlink:title=" ">
<polygon fill="white" stroke="#666666" points="3779,-162 3673,-162 3673,-132 3779,-132 3779,-162"/>
<text text-anchor="start" x="3681" y="-150" font-family="Helvetica,sans-Serif" font-size="10.00">libs/JSystem/JUtility</text>
<text text-anchor="middle" x="3726" y="-139" font-family="Helvetica,sans-Serif" font-size="10.00">/JUTNameTab.cpp</text>
</a>
</g>
</g>
<!-- Node2&#45;&gt;Node245 -->
<g id="edge39" class="edge">
<title>Node2&#45;&gt;Node245</title>
<path fill="none" stroke="#63b8ff" d="M2960.39,-200.93C2966.63,-199.8 2972.95,-198.78 2979,-198 3281.38,-159.15 3362,-203.72 3664,-162 3666.84,-161.61 3669.75,-161.15 3672.67,-160.65"/>
<polygon fill="#63b8ff" stroke="#63b8ff" points="2959.95,-197.45 2950.8,-202.78 2961.28,-204.32 2959.95,-197.45"/>
</g>
<!-- Node246 -->
<g id="node40" class="node">
<title>Node246</title>
<g id="a_node40"><a xlink:href="c__lib_8cpp.html" target="_top" xlink:title=" ">
<polygon fill="white" stroke="#666666" points="3931,-162 3797,-162 3797,-132 3931,-132 3931,-162"/>
<text text-anchor="start" x="3805" y="-150" font-family="Helvetica,sans-Serif" font-size="10.00">libs/SSystem/SComponent</text>
<text text-anchor="middle" x="3864" y="-139" font-family="Helvetica,sans-Serif" font-size="10.00">/c_lib.cpp</text>
</a>
</g>
</g>
<!-- Node2&#45;&gt;Node246 -->
<g id="edge40" class="edge">
<title>Node2&#45;&gt;Node246</title>
<path fill="none" stroke="#63b8ff" d="M2960.38,-200.88C2966.63,-199.76 2972.94,-198.75 2979,-198 3336.16,-153.57 3430.4,-202.7 3788,-162 3790.8,-161.68 3793.65,-161.32 3796.53,-160.93"/>
<polygon fill="#63b8ff" stroke="#63b8ff" points="2959.95,-197.4 2950.79,-202.72 2961.27,-204.27 2959.95,-197.4"/>
</g>
<!-- Node247 -->
<g id="node41" class="node">
<title>Node247</title>
<g id="a_node41"><a xlink:href="ar_8c.html" target="_top" xlink:title=" ">
<polygon fill="white" stroke="#666666" points="4044.5,-156.5 3949.5,-156.5 3949.5,-137.5 4044.5,-137.5 4044.5,-156.5"/>
<text text-anchor="middle" x="3997" y="-144.5" font-family="Helvetica,sans-Serif" font-size="10.00">libs/dolphin/ar/ar.c</text>
</a>
</g>
</g>
<!-- Node2&#45;&gt;Node247 -->
<g id="edge41" class="edge">
<title>Node2&#45;&gt;Node247</title>
<path fill="none" stroke="#63b8ff" d="M2960.15,-200.88C2966.46,-199.75 2972.87,-198.74 2979,-198 3403.32,-146.73 3516.72,-221.28 3940,-162 3948.38,-160.83 3957.31,-158.94 3965.57,-156.93"/>
<polygon fill="#63b8ff" stroke="#63b8ff" points="2959.59,-197.42 2950.43,-202.75 2960.91,-204.3 2959.59,-197.42"/>
</g>
<!-- Node248 -->
<g id="node42" class="node">
<title>Node248</title>
<g id="a_node42"><a xlink:href="d__menu__dmap_8cpp.html" target="_top" xlink:title=" ">
<polygon fill="white" stroke="#666666" points="4213,-156.5 4063,-156.5 4063,-137.5 4213,-137.5 4213,-156.5"/>
<text text-anchor="middle" x="4138" y="-144.5" font-family="Helvetica,sans-Serif" font-size="10.00">src/d/menu/d_menu_dmap.cpp</text>
</a>
</g>
</g>
<!-- Node2&#45;&gt;Node248 -->
<g id="edge42" class="edge">
<title>Node2&#45;&gt;Node248</title>
<path fill="none" stroke="#63b8ff" d="M2960.14,-200.86C2966.46,-199.73 2972.87,-198.73 2979,-198 3453.71,-141.6 3578.31,-209.4 4054,-162 4066.06,-160.8 4079.02,-158.93 4091.05,-156.95"/>
<polygon fill="#63b8ff" stroke="#63b8ff" points="2959.59,-197.4 2950.42,-202.72 2960.9,-204.28 2959.59,-197.4"/>
</g>
<!-- Node249 -->
<g id="node43" class="node">
<title>Node249</title>
<g id="a_node43"><a xlink:href="d__menu__fmap_8cpp.html" target="_top" xlink:title=" ">
<polygon fill="white" stroke="#666666" points="4379,-156.5 4231,-156.5 4231,-137.5 4379,-137.5 4379,-156.5"/>
<text text-anchor="middle" x="4305" y="-144.5" font-family="Helvetica,sans-Serif" font-size="10.00">src/d/menu/d_menu_fmap.cpp</text>
</a>
</g>
</g>
<!-- Node2&#45;&gt;Node249 -->
<g id="edge43" class="edge">
<title>Node2&#45;&gt;Node249</title>
<path fill="none" stroke="#63b8ff" d="M2959.43,-200.96C2965.98,-199.78 2972.63,-198.74 2979,-198 3527.96,-134.03 3671.98,-216.09 4222,-162 4233.93,-160.83 4246.73,-158.97 4258.62,-156.99"/>
<polygon fill="#63b8ff" stroke="#63b8ff" points="2959.22,-197.43 2950.06,-202.76 2960.54,-204.31 2959.22,-197.43"/>
</g>
<!-- Node250 -->
<g id="node44" class="node">
<title>Node250</title>
<g id="a_node44"><a xlink:href="d__menu__letter_8cpp.html" target="_top" xlink:title=" ">
<polygon fill="white" stroke="#666666" points="4545,-156.5 4397,-156.5 4397,-137.5 4545,-137.5 4545,-156.5"/>
<text text-anchor="middle" x="4471" y="-144.5" font-family="Helvetica,sans-Serif" font-size="10.00">src/d/menu/d_menu_letter.cpp</text>
</a>
</g>
</g>
<!-- Node2&#45;&gt;Node250 -->
<g id="edge44" class="edge">
<title>Node2&#45;&gt;Node250</title>
<path fill="none" stroke="#63b8ff" d="M2959.43,-200.94C2965.98,-199.76 2972.63,-198.73 2979,-198 3601.34,-126.56 3764.48,-222.25 4388,-162 4400.07,-160.83 4413.04,-158.95 4425.06,-156.94"/>
<polygon fill="#63b8ff" stroke="#63b8ff" points="2959.22,-197.41 2950.06,-202.74 2960.54,-204.29 2959.22,-197.41"/>
</g>
<!-- Node200 -->
<g id="node45" class="node">
<title>Node200</title>
<g id="a_node45"><a xlink:href="d__menu__option_8cpp.html" target="_top" xlink:title=" ">
<polygon fill="white" stroke="#666666" points="4715,-156.5 4563,-156.5 4563,-137.5 4715,-137.5 4715,-156.5"/>
<text text-anchor="middle" x="4639" y="-144.5" font-family="Helvetica,sans-Serif" font-size="10.00">src/d/menu/d_menu_option.cpp</text>
</a>
</g>
</g>
<!-- Node2&#45;&gt;Node200 -->
<g id="edge45" class="edge">
<title>Node2&#45;&gt;Node200</title>
<path fill="none" stroke="#63b8ff" d="M2959.43,-200.92C2965.98,-199.75 2972.63,-198.72 2979,-198 3674.72,-119.08 3856.85,-227.06 4554,-162 4566.36,-160.85 4579.64,-158.97 4591.94,-156.96"/>
<polygon fill="#63b8ff" stroke="#63b8ff" points="2959.22,-197.4 2950.06,-202.72 2960.54,-204.27 2959.22,-197.4"/>
</g>
<!-- Node251 -->
<g id="node46" class="node">
<title>Node251</title>
<g id="a_node46"><a xlink:href="d__menu__ring_8cpp.html" target="_top" xlink:title=" ">
<polygon fill="white" stroke="#666666" points="4875,-156.5 4733,-156.5 4733,-137.5 4875,-137.5 4875,-156.5"/>
<text text-anchor="middle" x="4804" y="-144.5" font-family="Helvetica,sans-Serif" font-size="10.00">src/d/menu/d_menu_ring.cpp</text>
</a>
</g>
</g>
<!-- Node2&#45;&gt;Node251 -->
<g id="edge46" class="edge">
<title>Node2&#45;&gt;Node251</title>
<path fill="none" stroke="#63b8ff" d="M2959.19,-200.95C2965.81,-199.76 2972.55,-198.72 2979,-198 3749.87,-111.43 3951.92,-237.08 4724,-162 4735.65,-160.87 4748.15,-159 4759.73,-156.99"/>
<polygon fill="#63b8ff" stroke="#63b8ff" points="2958.86,-197.45 2949.7,-202.78 2960.18,-204.32 2958.86,-197.45"/>
</g>
<!-- Node252 -->
<g id="node47" class="node">
<title>Node252</title>
<g id="a_node47"><a xlink:href="d__msg__unit_8cpp.html" target="_top" xlink:title=" ">
<polygon fill="white" stroke="#666666" points="5024.5,-156.5 4893.5,-156.5 4893.5,-137.5 5024.5,-137.5 5024.5,-156.5"/>
<text text-anchor="middle" x="4959" y="-144.5" font-family="Helvetica,sans-Serif" font-size="10.00">src/d/msg/d_msg_unit.cpp</text>
</a>
</g>
</g>
<!-- Node2&#45;&gt;Node252 -->
<g id="edge47" class="edge">
<title>Node2&#45;&gt;Node252</title>
<path fill="none" stroke="#63b8ff" d="M2959.19,-200.94C2965.81,-199.75 2972.55,-198.72 2979,-198 3820.61,-104.22 4041.56,-247.99 4884,-162 4895.07,-160.87 4906.95,-158.97 4917.92,-156.94"/>
<polygon fill="#63b8ff" stroke="#63b8ff" points="2958.86,-197.44 2949.7,-202.77 2960.18,-204.31 2958.86,-197.44"/>
</g>
<!-- Node253 -->
<g id="node48" class="node">
<title>Node253</title>
<g id="a_node48"><a xlink:href="init_8c.html" target="_top" xlink:title=" ">
<polygon fill="white" stroke="#666666" points="5095.5,-156.5 5042.5,-156.5 5042.5,-137.5 5095.5,-137.5 5095.5,-156.5"/>
<text text-anchor="middle" x="5069" y="-144.5" font-family="Helvetica,sans-Serif" font-size="10.00">src/init.c</text>
</a>
</g>
</g>
<!-- Node2&#45;&gt;Node253 -->
<g id="edge48" class="edge">
<title>Node2&#45;&gt;Node253</title>
<path fill="none" stroke="#63b8ff" d="M2959.19,-200.93C2965.81,-199.75 2972.55,-198.71 2979,-198 3205.98,-172.87 4810.14,-207.15 5034,-162 5039.39,-160.91 5045.01,-159.03 5050.13,-157"/>
<polygon fill="#63b8ff" stroke="#63b8ff" points="2958.86,-197.43 2949.7,-202.76 2960.18,-204.3 2958.86,-197.43"/>
</g>
<!-- Node254 -->
<g id="node49" class="node">
<title>Node254</title>
<g id="a_node49"><a xlink:href="m__Do__MemCard_8cpp.html" target="_top" xlink:title=" ">
<polygon fill="white" stroke="#666666" points="5266,-156.5 5114,-156.5 5114,-137.5 5266,-137.5 5266,-156.5"/>
<text text-anchor="middle" x="5190" y="-144.5" font-family="Helvetica,sans-Serif" font-size="10.00">src/m_Do/m_Do_MemCard.cpp</text>
</a>
</g>
</g>
<!-- Node2&#45;&gt;Node254 -->
<g id="edge49" class="edge">
<title>Node2&#45;&gt;Node254</title>
<path fill="none" stroke="#63b8ff" d="M2959.18,-200.93C2965.81,-199.74 2972.55,-198.71 2979,-198 3448.66,-146.13 4634.4,-204.51 5105,-162 5117.51,-160.87 5130.96,-158.97 5143.39,-156.94"/>
<polygon fill="#63b8ff" stroke="#63b8ff" points="2958.86,-197.43 2949.7,-202.75 2960.18,-204.3 2958.86,-197.43"/>
</g>
<!-- Node4 -->
<g id="node4" class="node">
<title>Node4</title>
<g id="a_node4"><a xlink:href="JUTConsole_8h.html" target="_top" xlink:title=" ">
<polygon fill="#fff0f0" stroke="red" points="272,-96 150,-96 150,-66 272,-66 272,-96"/>
<text text-anchor="start" x="158" y="-84" font-family="Helvetica,sans-Serif" font-size="10.00">include/JSystem/JUtility</text>
<text text-anchor="middle" x="211" y="-73" font-family="Helvetica,sans-Serif" font-size="10.00">/JUTConsole.h</text>
</a>
</g>
</g>
<!-- Node3&#45;&gt;Node4 -->
<g id="edge3" class="edge">
<title>Node3&#45;&gt;Node4</title>
<path fill="none" stroke="#63b8ff" d="M309.12,-126.86C287.68,-117.05 262.02,-105.32 242.31,-96.31"/>
<polygon fill="#63b8ff" stroke="#63b8ff" points="307.65,-130.03 318.2,-131.01 310.57,-123.67 307.65,-130.03"/>
</g>
<!-- Node17 -->
<g id="node8" class="node">
<title>Node17</title>
<g id="a_node8"><a xlink:href="JUTDbPrint_8h.html" target="_top" xlink:title=" ">
<polygon fill="#fff0f0" stroke="red" points="130,-96 8,-96 8,-66 130,-66 130,-96"/>
<text text-anchor="start" x="16" y="-84" font-family="Helvetica,sans-Serif" font-size="10.00">include/JSystem/JUtility</text>
<text text-anchor="middle" x="69" y="-73" font-family="Helvetica,sans-Serif" font-size="10.00">/JUTDbPrint.h</text>
</a>
</g>
</g>
<!-- Node3&#45;&gt;Node17 -->
<g id="edge7" class="edge">
<title>Node3&#45;&gt;Node17</title>
<path fill="none" stroke="#63b8ff" d="M278.71,-129.59C232.69,-119.15 173.74,-105.77 130.07,-95.86"/>
<polygon fill="#63b8ff" stroke="#63b8ff" points="277.81,-132.98 288.33,-131.78 279.36,-126.15 277.81,-132.98"/>
</g>
<!-- Node21 -->
<g id="node9" class="node">
<title>Node21</title>
<g id="a_node9"><a xlink:href="JUTResFont_8h.html" target="_top" xlink:title=" ">
<polygon fill="#fff0f0" stroke="red" points="412,-96 290,-96 290,-66 412,-66 412,-96"/>
<text text-anchor="start" x="298" y="-84" font-family="Helvetica,sans-Serif" font-size="10.00">include/JSystem/JUtility</text>
<text text-anchor="middle" x="351" y="-73" font-family="Helvetica,sans-Serif" font-size="10.00">/JUTResFont.h</text>
</a>
</g>
</g>
<!-- Node3&#45;&gt;Node21 -->
<g id="edge9" class="edge">
<title>Node3&#45;&gt;Node21</title>
<path fill="none" stroke="#63b8ff" d="M351,-120.39C351,-112.13 351,-103.28 351,-96.16"/>
<polygon fill="#63b8ff" stroke="#63b8ff" points="347.5,-120.28 351,-130.28 354.5,-120.28 347.5,-120.28"/>
</g>
<!-- Node27 -->
<g id="node10" class="node">
<title>Node27</title>
<g id="a_node10"><a xlink:href="JUTFont_8cpp.html" target="_top" xlink:title=" ">
<polygon fill="white" stroke="#666666" points="536,-96 430,-96 430,-66 536,-66 536,-96"/>
<text text-anchor="start" x="438" y="-84" font-family="Helvetica,sans-Serif" font-size="10.00">libs/JSystem/JUtility</text>
<text text-anchor="middle" x="483" y="-73" font-family="Helvetica,sans-Serif" font-size="10.00">/JUTFont.cpp</text>
</a>
</g>
</g>
<!-- Node3&#45;&gt;Node27 -->
<g id="edge10" class="edge">
<title>Node3&#45;&gt;Node27</title>
<path fill="none" stroke="#63b8ff" d="M390.76,-126.72C410.92,-116.95 434.98,-105.28 453.48,-96.31"/>
<polygon fill="#63b8ff" stroke="#63b8ff" points="389.46,-123.46 381.99,-130.98 392.51,-129.76 389.46,-123.46"/>
</g>
<!-- Node5 -->
<g id="node5" class="node">
<title>Node5</title>
<g id="a_node5"><a xlink:href="JFWDisplay_8cpp.html" target="_top" xlink:title=" ">
<polygon fill="white" stroke="#666666" points="130,-30 0,-30 0,0 130,0 130,-30"/>
<text text-anchor="start" x="8" y="-18" font-family="Helvetica,sans-Serif" font-size="10.00">libs/JSystem/JFramework</text>
<text text-anchor="middle" x="65" y="-7" font-family="Helvetica,sans-Serif" font-size="10.00">/JFWDisplay.cpp</text>
</a>
</g>
</g>
<!-- Node4&#45;&gt;Node5 -->
<g id="edge4" class="edge">
<title>Node4&#45;&gt;Node5</title>
<path fill="none" stroke="#63b8ff" d="M167.98,-61.14C145.58,-51.32 118.62,-39.51 97.91,-30.43"/>
<polygon fill="#63b8ff" stroke="#63b8ff" points="166.28,-64.22 176.85,-65.03 169.1,-57.81 166.28,-64.22"/>
</g>
<!-- Node6 -->
<g id="node6" class="node">
<title>Node6</title>
<g id="a_node6"><a xlink:href="JFWSystem_8cpp.html" target="_top" xlink:title=" ">
<polygon fill="white" stroke="#666666" points="278,-30 148,-30 148,0 278,0 278,-30"/>
<text text-anchor="start" x="156" y="-18" font-family="Helvetica,sans-Serif" font-size="10.00">libs/JSystem/JFramework</text>
<text text-anchor="middle" x="213" y="-7" font-family="Helvetica,sans-Serif" font-size="10.00">/JFWSystem.cpp</text>
</a>
</g>
</g>
<!-- Node4&#45;&gt;Node6 -->
<g id="edge5" class="edge">
<title>Node4&#45;&gt;Node6</title>
<path fill="none" stroke="#63b8ff" d="M211.8,-54.39C212.06,-46.13 212.33,-37.28 212.56,-30.16"/>
<polygon fill="#63b8ff" stroke="#63b8ff" points="208.31,-54.18 211.49,-64.28 215.3,-54.4 208.31,-54.18"/>
</g>
<!-- Node7 -->
<g id="node7" class="node">
<title>Node7</title>
<g id="a_node7"><a xlink:href="JKRSolidHeap_8cpp.html" target="_top" xlink:title=" ">
<polygon fill="white" stroke="#666666" points="405.5,-30 296.5,-30 296.5,0 405.5,0 405.5,-30"/>
<text text-anchor="start" x="304.5" y="-18" font-family="Helvetica,sans-Serif" font-size="10.00">libs/JSystem/JKernel</text>
<text text-anchor="middle" x="351" y="-7" font-family="Helvetica,sans-Serif" font-size="10.00">/JKRSolidHeap.cpp</text>
</a>
</g>
</g>
<!-- Node4&#45;&gt;Node7 -->
<g id="edge6" class="edge">
<title>Node4&#45;&gt;Node7</title>
<path fill="none" stroke="#63b8ff" d="M252.88,-60.86C274.32,-51.05 299.98,-39.32 319.69,-30.31"/>
<polygon fill="#63b8ff" stroke="#63b8ff" points="251.43,-57.67 243.8,-65.01 254.35,-64.03 251.43,-57.67"/>
</g>
<!-- Node17&#45;&gt;Node5 -->
<g id="edge8" class="edge">
<title>Node17&#45;&gt;Node5</title>
<path fill="none" stroke="#63b8ff" d="M67.4,-54.39C66.88,-46.13 66.33,-37.28 65.89,-30.16"/>
<polygon fill="#63b8ff" stroke="#63b8ff" points="63.9,-54.52 68.02,-64.29 70.89,-54.09 63.9,-54.52"/>
</g>
<!-- Node29 -->
<g id="node12" class="node">
<title>Node29</title>
<g id="a_node12"><a xlink:href="d__file__select_8h.html" target="_top" xlink:title=" ">
<polygon fill="#fff0f0" stroke="red" points="650,-96 554,-96 554,-66 650,-66 650,-96"/>
<text text-anchor="start" x="562" y="-84" font-family="Helvetica,sans-Serif" font-size="10.00">include/d/file/d_file</text>
<text text-anchor="middle" x="602" y="-73" font-family="Helvetica,sans-Serif" font-size="10.00">_select.h</text>
</a>
</g>
</g>
<!-- Node28&#45;&gt;Node29 -->
<g id="edge12" class="edge">
<title>Node28&#45;&gt;Node29</title>
<path fill="none" stroke="#63b8ff" d="M689.49,-131.55C670.99,-121.08 646.07,-106.96 627.56,-96.48"/>
<polygon fill="#63b8ff" stroke="#63b8ff" points="687.54,-134.47 697.97,-136.36 690.99,-128.38 687.54,-134.47"/>
</g>
<!-- Node31 -->
<g id="node13" class="node">
<title>Node31</title>
<g id="a_node13"><a xlink:href="d__name_8cpp.html" target="_top" xlink:title=" ">
<polygon fill="white" stroke="#666666" points="762,-90.5 668,-90.5 668,-71.5 762,-71.5 762,-90.5"/>
<text text-anchor="middle" x="715" y="-78.5" font-family="Helvetica,sans-Serif" font-size="10.00">src/d/d_name.cpp</text>
</a>
</g>
</g>
<!-- Node28&#45;&gt;Node31 -->
<g id="edge13" class="edge">
<title>Node28&#45;&gt;Node31</title>
<path fill="none" stroke="#63b8ff" d="M715,-125.68C715,-113.94 715,-99.77 715,-90.82"/>
<polygon fill="#63b8ff" stroke="#63b8ff" points="711.5,-125.59 715,-135.59 718.5,-125.59 711.5,-125.59"/>
</g>
<!-- Node33 -->
<g id="node15" class="node">
<title>Node33</title>
<g id="a_node15"><a xlink:href="d__a__alink_8h.html" target="_top" xlink:title=" ">
<polygon fill="#fff0f0" stroke="red" points="896,-90.5 780,-90.5 780,-71.5 896,-71.5 896,-90.5"/>
<text text-anchor="middle" x="838" y="-78.5" font-family="Helvetica,sans-Serif" font-size="10.00">include/d/a/d_a_alink.h</text>
</a>
</g>
</g>
<!-- Node32&#45;&gt;Node33 -->
<g id="edge15" class="edge">
<title>Node32&#45;&gt;Node33</title>
<path fill="none" stroke="#63b8ff" d="M937.09,-131.93C912.21,-119.4 876.58,-101.44 855.51,-90.82"/>
<polygon fill="#63b8ff" stroke="#63b8ff" points="935.48,-135.05 945.99,-136.42 938.63,-128.79 935.48,-135.05"/>
</g>
<!-- Node42 -->
<g id="node16" class="node">
<title>Node42</title>
<g id="a_node16"><a xlink:href="d__stage_8h.html" target="_top" xlink:title=" ">
<polygon fill="#fff0f0" stroke="red" points="1015.5,-90.5 914.5,-90.5 914.5,-71.5 1015.5,-71.5 1015.5,-90.5"/>
<text text-anchor="middle" x="965" y="-78.5" font-family="Helvetica,sans-Serif" font-size="10.00">include/d/d_stage.h</text>
</a>
</g>
</g>
<!-- Node32&#45;&gt;Node42 -->
<g id="edge16" class="edge">
<title>Node32&#45;&gt;Node42</title>
<path fill="none" stroke="#63b8ff" d="M965,-125.68C965,-113.94 965,-99.77 965,-90.82"/>
<polygon fill="#63b8ff" stroke="#63b8ff" points="961.5,-125.59 965,-135.59 968.5,-125.59 961.5,-125.59"/>
</g>
<!-- Node223 -->
<g id="node17" class="node">
<title>Node223</title>
<g id="a_node17"><a xlink:href="d__menu__save_8h.html" target="_top" xlink:title=" ">
<polygon fill="#fff0f0" stroke="red" points="1154,-96 1034,-96 1034,-66 1154,-66 1154,-96"/>
<text text-anchor="start" x="1042" y="-84" font-family="Helvetica,sans-Serif" font-size="10.00">include/d/menu/d_menu</text>
<text text-anchor="middle" x="1094" y="-73" font-family="Helvetica,sans-Serif" font-size="10.00">_save.h</text>
</a>
</g>
</g>
<!-- Node32&#45;&gt;Node223 -->
<g id="edge17" class="edge">
<title>Node32&#45;&gt;Node223</title>
<path fill="none" stroke="#63b8ff" d="M993.24,-131.99C1014.44,-121.47 1043.39,-107.11 1064.82,-96.48"/>
<polygon fill="#63b8ff" stroke="#63b8ff" points="991.7,-128.85 984.29,-136.43 994.81,-135.12 991.7,-128.85"/>
</g>
<!-- Node225 -->
<g id="node18" class="node">
<title>Node225</title>
<g id="a_node18"><a xlink:href="d__meter__HIO_8cpp.html" target="_top" xlink:title=" ">
<polygon fill="white" stroke="#666666" points="1276,-96 1172,-96 1172,-66 1276,-66 1276,-96"/>
<text text-anchor="start" x="1180" y="-84" font-family="Helvetica,sans-Serif" font-size="10.00">src/d/meter/d_meter</text>
<text text-anchor="middle" x="1224" y="-73" font-family="Helvetica,sans-Serif" font-size="10.00">_HIO.cpp</text>
</a>
</g>
</g>
<!-- Node32&#45;&gt;Node225 -->
<g id="edge18" class="edge">
<title>Node32&#45;&gt;Node225</title>
<path fill="none" stroke="#63b8ff" d="M1012.24,-134.33C1057.35,-123.18 1125.18,-106.42 1171.85,-94.89"/>
<polygon fill="#63b8ff" stroke="#63b8ff" points="1011.62,-130.87 1002.75,-136.67 1013.3,-137.67 1011.62,-130.87"/>
</g>
<!-- Node110 -->
<g id="node19" class="node">
<title>Node110</title>
<g id="a_node19"><a xlink:href="d__save_8cpp.html" target="_top" xlink:title=" ">
<polygon fill="white" stroke="#666666" points="1409.5,-90.5 1294.5,-90.5 1294.5,-71.5 1409.5,-71.5 1409.5,-90.5"/>
<text text-anchor="middle" x="1352" y="-78.5" font-family="Helvetica,sans-Serif" font-size="10.00">src/d/save/d_save.cpp</text>
</a>
</g>
</g>
<!-- Node32&#45;&gt;Node110 -->
<g id="edge19" class="edge">
<title>Node32&#45;&gt;Node110</title>
<path fill="none" stroke="#63b8ff" d="M1019.7,-134.92C1025.2,-133.9 1030.71,-132.9 1036,-132 1146.22,-113.18 1174.89,-115.44 1285,-96 1293.43,-94.51 1302.41,-92.75 1310.98,-90.99"/>
<polygon fill="#63b8ff" stroke="#63b8ff" points="1019.15,-131.47 1009.98,-136.78 1020.46,-138.34 1019.15,-131.47"/>
</g>
</g>
</svg>
