<?xml version="1.0" encoding="UTF-8" standalone="no"?>
<!DOCTYPE svg PUBLIC "-//W3C//DTD SVG 1.1//EN"
 "http://www.w3.org/Graphics/SVG/1.1/DTD/svg11.dtd">
<!-- Generated by graphviz version 7.0.5 (20221223.1930)
 -->
<!-- Title: include/f_op/f_op_camera_mng.h Pages: 1 -->
<svg width="5957pt" height="258pt"
 viewBox="0.00 0.00 5957.00 258.00" xmlns="http://www.w3.org/2000/svg" xmlns:xlink="http://www.w3.org/1999/xlink">
<g id="graph0" class="graph" transform="scale(1 1) rotate(0) translate(4 254)">
<title>include/f_op/f_op_camera_mng.h</title>
<!-- Node1 -->
<g id="node1" class="node">
<title>Node1</title>
<g id="a_node1"><a xlink:title=" ">
<polygon fill="#999999" stroke="#666666" points="3176.5,-250 3048.5,-250 3048.5,-220 3176.5,-220 3176.5,-250"/>
<text text-anchor="start" x="3056.5" y="-238" font-family="Helvetica,sans-Serif" font-size="10.00">include/f_op/f_op_camera</text>
<text text-anchor="middle" x="3112.5" y="-227" font-family="Helvetica,sans-Serif" font-size="10.00">_mng.h</text>
</a>
</g>
</g>
<!-- Node2 -->
<g id="node2" class="node">
<title>Node2</title>
<g id="a_node2"><a xlink:href="d__com__inf__game_8h.html" target="_top" xlink:title=" ">
<polygon fill="#fff0f0" stroke="red" points="2965.5,-184 2855.5,-184 2855.5,-154 2965.5,-154 2965.5,-184"/>
<text text-anchor="start" x="2863.5" y="-172" font-family="Helvetica,sans-Serif" font-size="10.00">include/d/com/d_com</text>
<text text-anchor="middle" x="2910.5" y="-161" font-family="Helvetica,sans-Serif" font-size="10.00">_inf_game.h</text>
</a>
</g>
</g>
<!-- Node1&#45;&gt;Node2 -->
<g id="edge1" class="edge">
<title>Node1&#45;&gt;Node2</title>
<path fill="none" stroke="#63b8ff" d="M3056.06,-216.12C3024.45,-206.1 2985.55,-193.78 2955.92,-184.39"/>
<polygon fill="#63b8ff" stroke="#63b8ff" points="3054.88,-219.42 3065.47,-219.1 3057,-212.74 3054.88,-219.42"/>
</g>
<!-- Node190 -->
<g id="node48" class="node">
<title>Node190</title>
<g id="a_node48"><a xlink:href="d__s__name_8h.html" target="_top" xlink:title=" ">
<polygon fill="#fff0f0" stroke="red" points="3103,-178.5 2984,-178.5 2984,-159.5 3103,-159.5 3103,-178.5"/>
<text text-anchor="middle" x="3043.5" y="-166.5" font-family="Helvetica,sans-Serif" font-size="10.00">include/d/s/d_s_name.h</text>
</a>
</g>
</g>
<!-- Node1&#45;&gt;Node190 -->
<g id="edge48" class="edge">
<title>Node1&#45;&gt;Node190</title>
<path fill="none" stroke="#63b8ff" d="M3089.08,-212.27C3076.75,-200.84 3062.3,-187.44 3053.04,-178.84"/>
<polygon fill="#63b8ff" stroke="#63b8ff" points="3086.37,-214.53 3096.08,-218.77 3091.13,-209.4 3086.37,-214.53"/>
</g>
<!-- Node191 -->
<g id="node49" class="node">
<title>Node191</title>
<g id="a_node49"><a xlink:href="f__ap__game_8cpp.html" target="_top" xlink:title=" ">
<polygon fill="white" stroke="#666666" points="3242,-178.5 3121,-178.5 3121,-159.5 3242,-159.5 3242,-178.5"/>
<text text-anchor="middle" x="3181.5" y="-166.5" font-family="Helvetica,sans-Serif" font-size="10.00">src/f_ap/f_ap_game.cpp</text>
</a>
</g>
</g>
<!-- Node1&#45;&gt;Node191 -->
<g id="edge49" class="edge">
<title>Node1&#45;&gt;Node191</title>
<path fill="none" stroke="#63b8ff" d="M3135.92,-212.27C3148.25,-200.84 3162.7,-187.44 3171.96,-178.84"/>
<polygon fill="#63b8ff" stroke="#63b8ff" points="3133.87,-209.4 3128.92,-218.77 3138.63,-214.53 3133.87,-209.4"/>
</g>
<!-- Node192 -->
<g id="node50" class="node">
<title>Node192</title>
<g id="a_node50"><a xlink:href="f__op__camera__mng_8cpp.html" target="_top" xlink:title=" ">
<polygon fill="white" stroke="#666666" points="3371,-184 3260,-184 3260,-154 3371,-154 3371,-184"/>
<text text-anchor="start" x="3268" y="-172" font-family="Helvetica,sans-Serif" font-size="10.00">src/f_op/f_op_camera</text>
<text text-anchor="middle" x="3315.5" y="-161" font-family="Helvetica,sans-Serif" font-size="10.00">_mng.cpp</text>
</a>
</g>
</g>
<!-- Node1&#45;&gt;Node192 -->
<g id="edge50" class="edge">
<title>Node1&#45;&gt;Node192</title>
<path fill="none" stroke="#63b8ff" d="M3169.22,-216.12C3200.99,-206.1 3240.08,-193.78 3269.86,-184.39"/>
<polygon fill="#63b8ff" stroke="#63b8ff" points="3168.24,-212.76 3159.75,-219.1 3170.34,-219.43 3168.24,-212.76"/>
</g>
<!-- Node3 -->
<g id="node3" class="node">
<title>Node3</title>
<g id="a_node3"><a xlink:href="d__a__npc_8h.html" target="_top" xlink:title=" ">
<polygon fill="#fff0f0" stroke="red" points="111,-101.5 0,-101.5 0,-82.5 111,-82.5 111,-101.5"/>
<text text-anchor="middle" x="55.5" y="-89.5" font-family="Helvetica,sans-Serif" font-size="10.00">include/d/a/d_a_npc.h</text>
</a>
</g>
</g>
<!-- Node2&#45;&gt;Node3 -->
<g id="edge2" class="edge">
<title>Node2&#45;&gt;Node3</title>
<path fill="none" stroke="#63b8ff" d="M2843.88,-168.21C2446.23,-169.31 394.1,-172.28 119.5,-118 103.23,-114.78 85.76,-107.69 73.19,-101.88"/>
<polygon fill="#63b8ff" stroke="#63b8ff" points="2843.65,-171.72 2853.64,-168.19 2843.63,-164.72 2843.65,-171.72"/>
</g>
<!-- Node10 -->
<g id="node4" class="node">
<title>Node10</title>
<g id="a_node4"><a xlink:href="d__a__npc__cd_8h.html" target="_top" xlink:title=" ">
<polygon fill="#fff0f0" stroke="red" points="256,-101.5 129,-101.5 129,-82.5 256,-82.5 256,-101.5"/>
<text text-anchor="middle" x="192.5" y="-89.5" font-family="Helvetica,sans-Serif" font-size="10.00">include/d/a/d_a_npc_cd.h</text>
</a>
</g>
</g>
<!-- Node2&#45;&gt;Node10 -->
<g id="edge3" class="edge">
<title>Node2&#45;&gt;Node10</title>
<path fill="none" stroke="#63b8ff" d="M2843.59,-167.9C2458.31,-167.14 530.8,-161.22 270.5,-118 251.14,-114.79 229.99,-107.77 214.6,-101.99"/>
<polygon fill="#63b8ff" stroke="#63b8ff" points="2843.55,-171.4 2853.55,-167.91 2843.56,-164.4 2843.55,-171.4"/>
</g>
<!-- Node12 -->
<g id="node5" class="node">
<title>Node12</title>
<g id="a_node5"><a xlink:href="d__a__npc__cd2_8h.html" target="_top" xlink:title=" ">
<polygon fill="#fff0f0" stroke="red" points="570.5,-30 466.5,-30 466.5,0 570.5,0 570.5,-30"/>
<text text-anchor="start" x="474.5" y="-18" font-family="Helvetica,sans-Serif" font-size="10.00">include/d/a/d_a_npc</text>
<text text-anchor="middle" x="518.5" y="-7" font-family="Helvetica,sans-Serif" font-size="10.00">_cd2.h</text>
</a>
</g>
</g>
<!-- Node2&#45;&gt;Node12 -->
<g id="edge4" class="edge">
<title>Node2&#45;&gt;Node12</title>
<path fill="none" stroke="#63b8ff" d="M2843.88,-168C2441.33,-167.83 349.34,-164.72 303.5,-118 287.32,-101.5 289.13,-84.1 303.5,-66 323.43,-40.9 409.09,-27.26 466.08,-20.81"/>
<polygon fill="#63b8ff" stroke="#63b8ff" points="2843.78,-171.5 2853.78,-168 2843.78,-164.5 2843.78,-171.5"/>
</g>
<!-- Node14 -->
<g id="node6" class="node">
<title>Node14</title>
<g id="a_node6"><a xlink:href="d__cc__uty_8h.html" target="_top" xlink:title=" ">
<polygon fill="#fff0f0" stroke="red" points="432,-101.5 313,-101.5 313,-82.5 432,-82.5 432,-101.5"/>
<text text-anchor="middle" x="372.5" y="-89.5" font-family="Helvetica,sans-Serif" font-size="10.00">include/d/cc/d_cc_uty.h</text>
</a>
</g>
</g>
<!-- Node2&#45;&gt;Node14 -->
<g id="edge5" class="edge">
<title>Node2&#45;&gt;Node14</title>
<path fill="none" stroke="#63b8ff" d="M2843.8,-167.95C2473.97,-167.49 683.21,-162.97 441.5,-118 424.21,-114.78 405.51,-107.77 391.95,-101.99"/>
<polygon fill="#63b8ff" stroke="#63b8ff" points="2843.57,-171.45 2853.57,-167.96 2843.58,-164.45 2843.57,-171.45"/>
</g>
<!-- Node25 -->
<g id="node7" class="node">
<title>Node25</title>
<g id="a_node7"><a xlink:href="d__bright__check_8h.html" target="_top" xlink:title=" ">
<polygon fill="#fff0f0" stroke="red" points="543,-107 450,-107 450,-77 543,-77 543,-107"/>
<text text-anchor="start" x="458" y="-95" font-family="Helvetica,sans-Serif" font-size="10.00">include/d/d_bright</text>
<text text-anchor="middle" x="496.5" y="-84" font-family="Helvetica,sans-Serif" font-size="10.00">_check.h</text>
</a>
</g>
</g>
<!-- Node2&#45;&gt;Node25 -->
<g id="edge6" class="edge">
<title>Node2&#45;&gt;Node25</title>
<path fill="none" stroke="#63b8ff" d="M2843.61,-168.16C2483.26,-168.83 780.95,-169.22 552.5,-118 542.53,-115.76 532.16,-111.69 523.09,-107.47"/>
<polygon fill="#63b8ff" stroke="#63b8ff" points="2843.61,-171.66 2853.6,-168.14 2843.6,-164.66 2843.61,-171.66"/>
</g>
<!-- Node27 -->
<g id="node8" class="node">
<title>Node27</title>
<g id="a_node8"><a xlink:href="d__error__msg_8h.html" target="_top" xlink:title=" ">
<polygon fill="#fff0f0" stroke="red" points="681.5,-101.5 561.5,-101.5 561.5,-82.5 681.5,-82.5 681.5,-101.5"/>
<text text-anchor="middle" x="621.5" y="-89.5" font-family="Helvetica,sans-Serif" font-size="10.00">include/d/d_error_msg.h</text>
</a>
</g>
</g>
<!-- Node2&#45;&gt;Node27 -->
<g id="edge7" class="edge">
<title>Node2&#45;&gt;Node27</title>
<path fill="none" stroke="#63b8ff" d="M2843.74,-167.77C2496.79,-166.38 907.34,-157.9 691.5,-118 673.99,-114.76 655.02,-107.75 641.25,-101.98"/>
<polygon fill="#63b8ff" stroke="#63b8ff" points="2843.55,-171.27 2853.56,-167.8 2843.57,-164.27 2843.55,-171.27"/>
</g>
<!-- Node30 -->
<g id="node9" class="node">
<title>Node30</title>
<g id="a_node9"><a xlink:href="d__npc__lib_8h.html" target="_top" xlink:title=" ">
<polygon fill="#fff0f0" stroke="red" points="807,-101.5 700,-101.5 700,-82.5 807,-82.5 807,-101.5"/>
<text text-anchor="middle" x="753.5" y="-89.5" font-family="Helvetica,sans-Serif" font-size="10.00">include/d/d_npc_lib.h</text>
</a>
</g>
</g>
<!-- Node2&#45;&gt;Node30 -->
<g id="edge8" class="edge">
<title>Node2&#45;&gt;Node30</title>
<path fill="none" stroke="#63b8ff" d="M2843.74,-167.81C2508.71,-166.64 1018.72,-159.16 816.5,-118 800.59,-114.76 783.52,-107.75 771.17,-101.97"/>
<polygon fill="#63b8ff" stroke="#63b8ff" points="2843.64,-171.3 2853.65,-167.84 2843.67,-164.3 2843.64,-171.3"/>
</g>
<!-- Node32 -->
<g id="node10" class="node">
<title>Node32</title>
<g id="a_node10"><a xlink:href="d__file__select_8h.html" target="_top" xlink:title=" ">
<polygon fill="#fff0f0" stroke="red" points="921.5,-107 825.5,-107 825.5,-77 921.5,-77 921.5,-107"/>
<text text-anchor="start" x="833.5" y="-95" font-family="Helvetica,sans-Serif" font-size="10.00">include/d/file/d_file</text>
<text text-anchor="middle" x="873.5" y="-84" font-family="Helvetica,sans-Serif" font-size="10.00">_select.h</text>
</a>
</g>
</g>
<!-- Node2&#45;&gt;Node32 -->
<g id="edge10" class="edge">
<title>Node2&#45;&gt;Node32</title>
<path fill="none" stroke="#63b8ff" d="M2843.99,-167.84C2520.6,-166.89 1120.3,-160.3 930.5,-118 920.37,-115.74 909.83,-111.66 900.6,-107.45"/>
<polygon fill="#63b8ff" stroke="#63b8ff" points="2843.96,-171.34 2853.97,-167.87 2843.98,-164.34 2843.96,-171.34"/>
</g>
<!-- Node34 -->
<g id="node11" class="node">
<title>Node34</title>
<g id="a_node11"><a xlink:href="d__msg__object_8h.html" target="_top" xlink:title=" ">
<polygon fill="#fff0f0" stroke="red" points="1049.5,-107 939.5,-107 939.5,-77 1049.5,-77 1049.5,-107"/>
<text text-anchor="start" x="947.5" y="-95" font-family="Helvetica,sans-Serif" font-size="10.00">include/d/msg/d_msg</text>
<text text-anchor="middle" x="994.5" y="-84" font-family="Helvetica,sans-Serif" font-size="10.00">_object.h</text>
</a>
</g>
</g>
<!-- Node2&#45;&gt;Node34 -->
<g id="edge11" class="edge">
<title>Node2&#45;&gt;Node34</title>
<path fill="none" stroke="#63b8ff" d="M2843.84,-167.56C2533.29,-165.33 1235.91,-153.91 1058.5,-118 1047.28,-115.73 1035.47,-111.64 1025.1,-107.43"/>
<polygon fill="#63b8ff" stroke="#63b8ff" points="2843.79,-171.06 2853.82,-167.63 2843.84,-164.06 2843.79,-171.06"/>
</g>
<!-- Node57 -->
<g id="node12" class="node">
<title>Node57</title>
<g id="a_node12"><a xlink:href="d__a__andsw_8h.html" target="_top" xlink:title=" ">
<polygon fill="white" stroke="#666666" points="1177.5,-107 1067.5,-107 1067.5,-77 1177.5,-77 1177.5,-107"/>
<text text-anchor="start" x="1075.5" y="-95" font-family="Helvetica,sans-Serif" font-size="10.00">include/rel/d/a/d_a</text>
<text text-anchor="middle" x="1122.5" y="-84" font-family="Helvetica,sans-Serif" font-size="10.00">_andsw/d_a_andsw.h</text>
</a>
</g>
</g>
<!-- Node2&#45;&gt;Node57 -->
<g id="edge12" class="edge">
<title>Node2&#45;&gt;Node57</title>
<path fill="none" stroke="#63b8ff" d="M2843.71,-167.39C2546.51,-164.51 1351.72,-150.96 1187.5,-118 1176.12,-115.72 1164.13,-111.63 1153.6,-107.41"/>
<polygon fill="#63b8ff" stroke="#63b8ff" points="2843.58,-170.89 2853.62,-167.49 2843.65,-163.89 2843.58,-170.89"/>
</g>
<!-- Node58 -->
<g id="node13" class="node">
<title>Node58</title>
<g id="a_node13"><a xlink:href="d__a__cstaF_8h.html" target="_top" xlink:title=" ">
<polygon fill="white" stroke="#666666" points="1299,-107 1196,-107 1196,-77 1299,-77 1299,-107"/>
<text text-anchor="start" x="1204" y="-95" font-family="Helvetica,sans-Serif" font-size="10.00">include/rel/d/a/d_a</text>
<text text-anchor="middle" x="1247.5" y="-84" font-family="Helvetica,sans-Serif" font-size="10.00">_cstaF/d_a_cstaF.h</text>
</a>
</g>
</g>
<!-- Node2&#45;&gt;Node58 -->
<g id="edge13" class="edge">
<title>Node2&#45;&gt;Node58</title>
<path fill="none" stroke="#63b8ff" d="M2843.78,-167.32C2559.89,-164.24 1459.99,-150.3 1308.5,-118 1297.75,-115.71 1286.49,-111.62 1276.61,-107.4"/>
<polygon fill="#63b8ff" stroke="#63b8ff" points="2843.56,-170.82 2853.6,-167.43 2843.64,-163.82 2843.56,-170.82"/>
</g>
<!-- Node59 -->
<g id="node14" class="node">
<title>Node59</title>
<g id="a_node14"><a xlink:href="d__a__dmidna_8h.html" target="_top" xlink:title=" ">
<polygon fill="white" stroke="#666666" points="1433.5,-107 1317.5,-107 1317.5,-77 1433.5,-77 1433.5,-107"/>
<text text-anchor="start" x="1325.5" y="-95" font-family="Helvetica,sans-Serif" font-size="10.00">include/rel/d/a/d_a</text>
<text text-anchor="middle" x="1375.5" y="-84" font-family="Helvetica,sans-Serif" font-size="10.00">_dmidna/d_a_dmidna.h</text>
</a>
</g>
</g>
<!-- Node2&#45;&gt;Node59 -->
<g id="edge14" class="edge">
<title>Node2&#45;&gt;Node59</title>
<path fill="none" stroke="#63b8ff" d="M2843.76,-166.99C2575.12,-162.76 1580.76,-145.39 1442.5,-118 1430.81,-115.68 1418.46,-111.59 1407.6,-107.38"/>
<polygon fill="#63b8ff" stroke="#63b8ff" points="2843.68,-170.49 2853.74,-167.15 2843.79,-163.49 2843.68,-170.49"/>
</g>
<!-- Node60 -->
<g id="node15" class="node">
<title>Node60</title>
<g id="a_node15"><a xlink:href="d__a__dshutter_8h.html" target="_top" xlink:title=" ">
<polygon fill="#fff0f0" stroke="red" points="1575.5,-107 1451.5,-107 1451.5,-77 1575.5,-77 1575.5,-107"/>
<text text-anchor="start" x="1459.5" y="-95" font-family="Helvetica,sans-Serif" font-size="10.00">include/rel/d/a/d_a</text>
<text text-anchor="middle" x="1513.5" y="-84" font-family="Helvetica,sans-Serif" font-size="10.00">_dshutter/d_a_dshutter.h</text>
</a>
</g>
</g>
<!-- Node2&#45;&gt;Node60 -->
<g id="edge15" class="edge">
<title>Node2&#45;&gt;Node60</title>
<path fill="none" stroke="#63b8ff" d="M2843.79,-168.09C2610.29,-167.99 1830.64,-164.12 1585.5,-118 1573.15,-115.68 1560.05,-111.63 1548.45,-107.47"/>
<polygon fill="#63b8ff" stroke="#63b8ff" points="2843.63,-171.59 2853.63,-168.09 2843.63,-164.59 2843.63,-171.59"/>
</g>
<!-- Node62 -->
<g id="node16" class="node">
<title>Node62</title>
<g id="a_node16"><a xlink:href="d__a__guard__mng_8h.html" target="_top" xlink:title=" ">
<polygon fill="white" stroke="#666666" points="1743,-107 1594,-107 1594,-77 1743,-77 1743,-107"/>
<text text-anchor="start" x="1602" y="-95" font-family="Helvetica,sans-Serif" font-size="10.00">include/rel/d/a/d_a</text>
<text text-anchor="middle" x="1668.5" y="-84" font-family="Helvetica,sans-Serif" font-size="10.00">_guard_mng/d_a_guard_mng.h</text>
</a>
</g>
</g>
<!-- Node2&#45;&gt;Node62 -->
<g id="edge16" class="edge">
<title>Node2&#45;&gt;Node62</title>
<path fill="none" stroke="#63b8ff" d="M2843.82,-167.27C2630.23,-164.61 1964.67,-153.59 1752.5,-118 1738.24,-115.61 1723,-111.55 1709.47,-107.39"/>
<polygon fill="#63b8ff" stroke="#63b8ff" points="2843.59,-170.77 2853.63,-167.39 2843.67,-163.77 2843.59,-170.77"/>
</g>
<!-- Node63 -->
<g id="node17" class="node">
<title>Node63</title>
<g id="a_node17"><a xlink:href="d__a__hitobj_8h.html" target="_top" xlink:title=" ">
<polygon fill="white" stroke="#666666" points="1861.5,-107 1761.5,-107 1761.5,-77 1861.5,-77 1861.5,-107"/>
<text text-anchor="start" x="1769.5" y="-95" font-family="Helvetica,sans-Serif" font-size="10.00">include/rel/d/a/d_a</text>
<text text-anchor="middle" x="1811.5" y="-84" font-family="Helvetica,sans-Serif" font-size="10.00">_hitobj/d_a_hitobj.h</text>
</a>
</g>
</g>
<!-- Node2&#45;&gt;Node63 -->
<g id="edge17" class="edge">
<title>Node2&#45;&gt;Node63</title>
<path fill="none" stroke="#63b8ff" d="M2843.88,-167.79C2644.97,-166.7 2057.74,-159.93 1871.5,-118 1861.04,-115.65 1850.08,-111.6 1840.43,-107.43"/>
<polygon fill="#63b8ff" stroke="#63b8ff" points="2843.76,-171.29 2853.78,-167.84 2843.8,-164.29 2843.76,-171.29"/>
</g>
<!-- Node64 -->
<g id="node18" class="node">
<title>Node64</title>
<g id="a_node18"><a xlink:href="d__a__izumi__gate_8h.html" target="_top" xlink:title=" ">
<polygon fill="white" stroke="#666666" points="1995,-112.5 1880,-112.5 1880,-71.5 1995,-71.5 1995,-112.5"/>
<text text-anchor="start" x="1888" y="-100.5" font-family="Helvetica,sans-Serif" font-size="10.00">include/rel/d/a/d_a</text>
<text text-anchor="start" x="1888" y="-89.5" font-family="Helvetica,sans-Serif" font-size="10.00">_izumi_gate/d_a_izumi</text>
<text text-anchor="middle" x="1937.5" y="-78.5" font-family="Helvetica,sans-Serif" font-size="10.00">_gate.h</text>
</a>
</g>
</g>
<!-- Node2&#45;&gt;Node64 -->
<g id="edge18" class="edge">
<title>Node2&#45;&gt;Node64</title>
<path fill="none" stroke="#63b8ff" d="M2843.63,-166.92C2662.42,-163.57 2164.81,-151.52 2004.5,-118 1998.3,-116.7 1991.91,-114.93 1985.66,-112.93"/>
<polygon fill="#63b8ff" stroke="#63b8ff" points="2843.53,-170.42 2853.59,-167.1 2843.66,-163.42 2843.53,-170.42"/>
</g>
<!-- Node65 -->
<g id="node19" class="node">
<title>Node65</title>
<g id="a_node19"><a xlink:href="d__a__set__bgobj_8h.html" target="_top" xlink:title=" ">
<polygon fill="#fff0f0" stroke="red" points="2150,-107 2013,-107 2013,-77 2150,-77 2150,-107"/>
<text text-anchor="start" x="2021" y="-95" font-family="Helvetica,sans-Serif" font-size="10.00">include/rel/d/a/d_a</text>
<text text-anchor="middle" x="2081.5" y="-84" font-family="Helvetica,sans-Serif" font-size="10.00">_set_bgobj/d_a_set_bgobj.h</text>
</a>
</g>
</g>
<!-- Node2&#45;&gt;Node65 -->
<g id="edge19" class="edge">
<title>Node2&#45;&gt;Node65</title>
<path fill="none" stroke="#63b8ff" d="M2843.54,-165.63C2684.89,-159.69 2289.66,-142.81 2159.5,-118 2146.51,-115.52 2132.66,-111.55 2120.3,-107.49"/>
<polygon fill="#63b8ff" stroke="#63b8ff" points="2843.37,-169.13 2853.49,-166 2843.63,-162.13 2843.37,-169.13"/>
</g>
<!-- Node66 -->
<g id="node20" class="node">
<title>Node66</title>
<g id="a_node20"><a xlink:href="d__a__skip__2D_8h.html" target="_top" xlink:title=" ">
<polygon fill="white" stroke="#666666" points="2292.5,-107 2168.5,-107 2168.5,-77 2292.5,-77 2292.5,-107"/>
<text text-anchor="start" x="2176.5" y="-95" font-family="Helvetica,sans-Serif" font-size="10.00">include/rel/d/a/d_a</text>
<text text-anchor="middle" x="2230.5" y="-84" font-family="Helvetica,sans-Serif" font-size="10.00">_skip_2D/d_a_skip_2D.h</text>
</a>
</g>
</g>
<!-- Node2&#45;&gt;Node66 -->
<g id="edge20" class="edge">
<title>Node2&#45;&gt;Node66</title>
<path fill="none" stroke="#63b8ff" d="M2844.04,-168.09C2731.23,-167 2495.59,-159.42 2301.5,-118 2289.61,-115.46 2276.99,-111.47 2265.74,-107.41"/>
<polygon fill="#63b8ff" stroke="#63b8ff" points="2843.68,-171.58 2853.71,-168.16 2843.74,-164.58 2843.68,-171.58"/>
</g>
<!-- Node67 -->
<g id="node21" class="node">
<title>Node67</title>
<g id="a_node21"><a xlink:href="d__a__spinner_8h.html" target="_top" xlink:title=" ">
<polygon fill="#fff0f0" stroke="red" points="2426.5,-107 2310.5,-107 2310.5,-77 2426.5,-77 2426.5,-107"/>
<text text-anchor="start" x="2318.5" y="-95" font-family="Helvetica,sans-Serif" font-size="10.00">include/rel/d/a/d_a</text>
<text text-anchor="middle" x="2368.5" y="-84" font-family="Helvetica,sans-Serif" font-size="10.00">_spinner/d_a_spinner.h</text>
</a>
</g>
</g>
<!-- Node2&#45;&gt;Node67 -->
<g id="edge21" class="edge">
<title>Node2&#45;&gt;Node67</title>
<path fill="none" stroke="#63b8ff" d="M2843.8,-166.27C2751.08,-162.66 2578.51,-151.64 2435.5,-118 2424.38,-115.38 2412.6,-111.42 2402.07,-107.41"/>
<polygon fill="#63b8ff" stroke="#63b8ff" points="2843.62,-169.76 2853.74,-166.63 2843.88,-162.77 2843.62,-169.76"/>
</g>
<!-- Node70 -->
<g id="node22" class="node">
<title>Node70</title>
<g id="a_node22"><a xlink:href="d__a__swTime_8h.html" target="_top" xlink:title=" ">
<polygon fill="white" stroke="#666666" points="2566.5,-107 2444.5,-107 2444.5,-77 2566.5,-77 2566.5,-107"/>
<text text-anchor="start" x="2452.5" y="-95" font-family="Helvetica,sans-Serif" font-size="10.00">include/rel/d/a/d_a</text>
<text text-anchor="middle" x="2505.5" y="-84" font-family="Helvetica,sans-Serif" font-size="10.00">_swTime/d_a_swTime.h</text>
</a>
</g>
</g>
<!-- Node2&#45;&gt;Node70 -->
<g id="edge22" class="edge">
<title>Node2&#45;&gt;Node70</title>
<path fill="none" stroke="#63b8ff" d="M2843.6,-161.89C2775.44,-154.77 2667.03,-140.94 2575.5,-118 2564.36,-115.21 2552.5,-111.34 2541.78,-107.47"/>
<polygon fill="#63b8ff" stroke="#63b8ff" points="2843.21,-165.37 2853.51,-162.91 2843.92,-158.41 2843.21,-165.37"/>
</g>
<!-- Node71 -->
<g id="node23" class="node">
<title>Node71</title>
<g id="a_node23"><a xlink:href="d__a__vrbox_8h.html" target="_top" xlink:title=" ">
<polygon fill="white" stroke="#666666" points="2684.5,-107 2584.5,-107 2584.5,-77 2684.5,-77 2684.5,-107"/>
<text text-anchor="start" x="2592.5" y="-95" font-family="Helvetica,sans-Serif" font-size="10.00">include/rel/d/a/d_a</text>
<text text-anchor="middle" x="2634.5" y="-84" font-family="Helvetica,sans-Serif" font-size="10.00">_vrbox/d_a_vrbox.h</text>
</a>
</g>
</g>
<!-- Node2&#45;&gt;Node71 -->
<g id="edge23" class="edge">
<title>Node2&#45;&gt;Node71</title>
<path fill="none" stroke="#63b8ff" d="M2844.01,-155.61C2800.89,-146.84 2743.78,-133.85 2694.5,-118 2685.15,-114.99 2675.23,-111.14 2666.2,-107.37"/>
<polygon fill="#63b8ff" stroke="#63b8ff" points="2843.24,-159.02 2853.73,-157.56 2844.62,-152.16 2843.24,-159.02"/>
</g>
<!-- Node72 -->
<g id="node24" class="node">
<title>Node72</title>
<g id="a_node24"><a xlink:href="d__a__e__db__leaf_8h.html" target="_top" xlink:title=" ">
<polygon fill="white" stroke="#666666" points="2822,-112.5 2703,-112.5 2703,-71.5 2822,-71.5 2822,-112.5"/>
<text text-anchor="start" x="2711" y="-100.5" font-family="Helvetica,sans-Serif" font-size="10.00">include/rel/d/a/e/d</text>
<text text-anchor="start" x="2711" y="-89.5" font-family="Helvetica,sans-Serif" font-size="10.00">_a_e_db_leaf/d_a_e_db</text>
<text text-anchor="middle" x="2762.5" y="-78.5" font-family="Helvetica,sans-Serif" font-size="10.00">_leaf.h</text>
</a>
</g>
</g>
<!-- Node2&#45;&gt;Node72 -->
<g id="edge24" class="edge">
<title>Node2&#45;&gt;Node72</title>
<path fill="none" stroke="#63b8ff" d="M2871.85,-148.41C2850.3,-137.49 2823.52,-123.92 2801.86,-112.94"/>
<polygon fill="#63b8ff" stroke="#63b8ff" points="2870.11,-151.46 2880.61,-152.86 2873.28,-145.21 2870.11,-151.46"/>
</g>
<!-- Node73 -->
<g id="node25" class="node">
<title>Node73</title>
<g id="a_node25"><a xlink:href="d__a__kytag02_8h.html" target="_top" xlink:title=" ">
<polygon fill="white" stroke="#666666" points="2980.5,-107 2840.5,-107 2840.5,-77 2980.5,-77 2980.5,-107"/>
<text text-anchor="start" x="2848.5" y="-95" font-family="Helvetica,sans-Serif" font-size="10.00">include/rel/d/a/kytag</text>
<text text-anchor="middle" x="2910.5" y="-84" font-family="Helvetica,sans-Serif" font-size="10.00">/d_a_kytag02/d_a_kytag02.h</text>
</a>
</g>
</g>
<!-- Node2&#45;&gt;Node73 -->
<g id="edge25" class="edge">
<title>Node2&#45;&gt;Node73</title>
<path fill="none" stroke="#63b8ff" d="M2910.5,-142.23C2910.5,-130.58 2910.5,-117.26 2910.5,-107.42"/>
<polygon fill="#63b8ff" stroke="#63b8ff" points="2907,-142.03 2910.5,-152.03 2914,-142.03 2907,-142.03"/>
</g>
<!-- Node74 -->
<g id="node26" class="node">
<title>Node74</title>
<g id="a_node26"><a xlink:href="d__a__obj__bombf_8h.html" target="_top" xlink:title=" ">
<polygon fill="white" stroke="#666666" points="3120.5,-112.5 2998.5,-112.5 2998.5,-71.5 3120.5,-71.5 3120.5,-112.5"/>
<text text-anchor="start" x="3006.5" y="-100.5" font-family="Helvetica,sans-Serif" font-size="10.00">include/rel/d/a/obj</text>
<text text-anchor="start" x="3006.5" y="-89.5" font-family="Helvetica,sans-Serif" font-size="10.00">/d_a_obj_bombf/d_a_obj</text>
<text text-anchor="middle" x="3059.5" y="-78.5" font-family="Helvetica,sans-Serif" font-size="10.00">_bombf.h</text>
</a>
</g>
</g>
<!-- Node2&#45;&gt;Node74 -->
<g id="edge26" class="edge">
<title>Node2&#45;&gt;Node74</title>
<path fill="none" stroke="#63b8ff" d="M2949.41,-148.41C2971.11,-137.49 2998.07,-123.92 3019.88,-112.94"/>
<polygon fill="#63b8ff" stroke="#63b8ff" points="2947.94,-145.24 2940.58,-152.86 2951.09,-151.49 2947.94,-145.24"/>
</g>
<!-- Node75 -->
<g id="node27" class="node">
<title>Node75</title>
<g id="a_node27"><a xlink:href="d__a__obj__carry_8h.html" target="_top" xlink:title=" ">
<polygon fill="#fff0f0" stroke="red" points="3254.5,-112.5 3138.5,-112.5 3138.5,-71.5 3254.5,-71.5 3254.5,-112.5"/>
<text text-anchor="start" x="3146.5" y="-100.5" font-family="Helvetica,sans-Serif" font-size="10.00">include/rel/d/a/obj</text>
<text text-anchor="start" x="3146.5" y="-89.5" font-family="Helvetica,sans-Serif" font-size="10.00">/d_a_obj_carry/d_a_obj</text>
<text text-anchor="middle" x="3196.5" y="-78.5" font-family="Helvetica,sans-Serif" font-size="10.00">_carry.h</text>
</a>
</g>
</g>
<!-- Node2&#45;&gt;Node75 -->
<g id="edge27" class="edge">
<title>Node2&#45;&gt;Node75</title>
<path fill="none" stroke="#63b8ff" d="M2976.97,-153.29C3035.9,-140.17 3114.85,-122.39 3129.5,-118 3134.61,-116.47 3139.9,-114.75 3145.16,-112.94"/>
<polygon fill="#63b8ff" stroke="#63b8ff" points="2976.33,-149.85 2967.33,-155.44 2977.85,-156.68 2976.33,-149.85"/>
</g>
<!-- Node77 -->
<g id="node28" class="node">
<title>Node77</title>
<g id="a_node28"><a xlink:href="d__a__obj__cboard_8h.html" target="_top" xlink:title=" ">
<polygon fill="white" stroke="#666666" points="3380,-112.5 3273,-112.5 3273,-71.5 3380,-71.5 3380,-112.5"/>
<text text-anchor="start" x="3281" y="-100.5" font-family="Helvetica,sans-Serif" font-size="10.00">include/rel/d/a/obj</text>
<text text-anchor="start" x="3281" y="-89.5" font-family="Helvetica,sans-Serif" font-size="10.00">/d_a_obj_cboard/d_a</text>
<text text-anchor="middle" x="3326.5" y="-78.5" font-family="Helvetica,sans-Serif" font-size="10.00">_obj_cboard.h</text>
</a>
</g>
</g>
<!-- Node2&#45;&gt;Node77 -->
<g id="edge28" class="edge">
<title>Node2&#45;&gt;Node77</title>
<path fill="none" stroke="#63b8ff" d="M2976.76,-153.93C3104.7,-133.33 3141.96,-149.17 3263.5,-118 3268.97,-116.6 3274.61,-114.84 3280.15,-112.91"/>
<polygon fill="#63b8ff" stroke="#63b8ff" points="2976.54,-150.42 2967.25,-155.51 2977.69,-157.32 2976.54,-150.42"/>
</g>
<!-- Node78 -->
<g id="node29" class="node">
<title>Node78</title>
<g id="a_node29"><a xlink:href="d__a__obj__cowdoor_8h.html" target="_top" xlink:title=" ">
<polygon fill="white" stroke="#666666" points="3512.5,-112.5 3398.5,-112.5 3398.5,-71.5 3512.5,-71.5 3512.5,-112.5"/>
<text text-anchor="start" x="3406.5" y="-100.5" font-family="Helvetica,sans-Serif" font-size="10.00">include/rel/d/a/obj</text>
<text text-anchor="start" x="3406.5" y="-89.5" font-family="Helvetica,sans-Serif" font-size="10.00">/d_a_obj_cowdoor/d_a</text>
<text text-anchor="middle" x="3455.5" y="-78.5" font-family="Helvetica,sans-Serif" font-size="10.00">_obj_cowdoor.h</text>
</a>
</g>
</g>
<!-- Node2&#45;&gt;Node78 -->
<g id="edge29" class="edge">
<title>Node2&#45;&gt;Node78</title>
<path fill="none" stroke="#63b8ff" d="M2977.12,-153.94C3160.24,-127.78 3213.04,-158.28 3389.5,-118 3395.35,-116.66 3401.38,-114.92 3407.31,-112.98"/>
<polygon fill="#63b8ff" stroke="#63b8ff" points="2976.61,-150.47 2967.23,-155.39 2977.63,-157.4 2976.61,-150.47"/>
</g>
<!-- Node79 -->
<g id="node30" class="node">
<title>Node79</title>
<g id="a_node30"><a xlink:href="d__a__obj__digholl_8h.html" target="_top" xlink:title=" ">
<polygon fill="white" stroke="#666666" points="3636,-112.5 3531,-112.5 3531,-71.5 3636,-71.5 3636,-112.5"/>
<text text-anchor="start" x="3539" y="-100.5" font-family="Helvetica,sans-Serif" font-size="10.00">include/rel/d/a/obj</text>
<text text-anchor="start" x="3539" y="-89.5" font-family="Helvetica,sans-Serif" font-size="10.00">/d_a_obj_digholl/d_a</text>
<text text-anchor="middle" x="3583.5" y="-78.5" font-family="Helvetica,sans-Serif" font-size="10.00">_obj_digholl.h</text>
</a>
</g>
</g>
<!-- Node2&#45;&gt;Node79 -->
<g id="edge30" class="edge">
<title>Node2&#45;&gt;Node79</title>
<path fill="none" stroke="#63b8ff" d="M2976.98,-153.99C3218.45,-121.85 3288,-171.33 3521.5,-118 3527.27,-116.68 3533.2,-114.9 3539,-112.88"/>
<polygon fill="#63b8ff" stroke="#63b8ff" points="2976.65,-150.5 2967.22,-155.33 2977.6,-157.44 2976.65,-150.5"/>
</g>
<!-- Node80 -->
<g id="node31" class="node">
<title>Node80</title>
<g id="a_node31"><a xlink:href="d__a__obj__enemy__create_8h.html" target="_top" xlink:title=" ">
<polygon fill="white" stroke="#666666" points="3781,-112.5 3654,-112.5 3654,-71.5 3781,-71.5 3781,-112.5"/>
<text text-anchor="start" x="3662" y="-100.5" font-family="Helvetica,sans-Serif" font-size="10.00">include/rel/d/a/obj</text>
<text text-anchor="start" x="3662" y="-89.5" font-family="Helvetica,sans-Serif" font-size="10.00">/d_a_obj_enemy_create</text>
<text text-anchor="middle" x="3717.5" y="-78.5" font-family="Helvetica,sans-Serif" font-size="10.00">/d_a_obj_enemy_create.h</text>
</a>
</g>
</g>
<!-- Node2&#45;&gt;Node80 -->
<g id="edge31" class="edge">
<title>Node2&#45;&gt;Node80</title>
<path fill="none" stroke="#63b8ff" d="M2976.8,-154.03C3273.11,-115.95 3356.46,-174.77 3645.5,-118 3652.12,-116.7 3658.96,-114.92 3665.67,-112.92"/>
<polygon fill="#63b8ff" stroke="#63b8ff" points="2976.67,-150.51 2967.21,-155.29 2977.59,-157.46 2976.67,-150.51"/>
</g>
<!-- Node81 -->
<g id="node32" class="node">
<title>Node81</title>
<g id="a_node32"><a xlink:href="d__a__obj__kjgjs_8h.html" target="_top" xlink:title=" ">
<polygon fill="white" stroke="#666666" points="3915.5,-112.5 3799.5,-112.5 3799.5,-71.5 3915.5,-71.5 3915.5,-112.5"/>
<text text-anchor="start" x="3807.5" y="-100.5" font-family="Helvetica,sans-Serif" font-size="10.00">include/rel/d/a/obj</text>
<text text-anchor="start" x="3807.5" y="-89.5" font-family="Helvetica,sans-Serif" font-size="10.00">/d_a_obj_kjgjs/d_a_obj</text>
<text text-anchor="middle" x="3857.5" y="-78.5" font-family="Helvetica,sans-Serif" font-size="10.00">_kjgjs.h</text>
</a>
</g>
</g>
<!-- Node2&#45;&gt;Node81 -->
<g id="edge32" class="edge">
<title>Node2&#45;&gt;Node81</title>
<path fill="none" stroke="#63b8ff" d="M2976.99,-154.02C3337.18,-109.34 3438.84,-189.52 3790.5,-118 3796.7,-116.74 3803.1,-114.99 3809.35,-112.99"/>
<polygon fill="#63b8ff" stroke="#63b8ff" points="2976.69,-150.53 2967.21,-155.26 2977.57,-157.47 2976.69,-150.53"/>
</g>
<!-- Node82 -->
<g id="node33" class="node">
<title>Node82</title>
<g id="a_node33"><a xlink:href="d__a__obj__mgate_8h.html" target="_top" xlink:title=" ">
<polygon fill="white" stroke="#666666" points="4055.5,-112.5 3933.5,-112.5 3933.5,-71.5 4055.5,-71.5 4055.5,-112.5"/>
<text text-anchor="start" x="3941.5" y="-100.5" font-family="Helvetica,sans-Serif" font-size="10.00">include/rel/d/a/obj</text>
<text text-anchor="start" x="3941.5" y="-89.5" font-family="Helvetica,sans-Serif" font-size="10.00">/d_a_obj_mgate/d_a_obj</text>
<text text-anchor="middle" x="3994.5" y="-78.5" font-family="Helvetica,sans-Serif" font-size="10.00">_mgate.h</text>
</a>
</g>
</g>
<!-- Node2&#45;&gt;Node82 -->
<g id="edge33" class="edge">
<title>Node2&#45;&gt;Node82</title>
<path fill="none" stroke="#63b8ff" d="M2976.93,-154.03C3396.34,-103.05 3513.69,-197.21 3924.5,-118 3931.09,-116.73 3937.89,-114.94 3944.54,-112.9"/>
<polygon fill="#63b8ff" stroke="#63b8ff" points="2976.7,-150.54 2967.21,-155.24 2977.56,-157.48 2976.7,-150.54"/>
</g>
<!-- Node83 -->
<g id="node34" class="node">
<title>Node83</title>
<g id="a_node34"><a xlink:href="d__a__obj__onsen_8h.html" target="_top" xlink:title=" ">
<polygon fill="white" stroke="#666666" points="4195.5,-112.5 4073.5,-112.5 4073.5,-71.5 4195.5,-71.5 4195.5,-112.5"/>
<text text-anchor="start" x="4081.5" y="-100.5" font-family="Helvetica,sans-Serif" font-size="10.00">include/rel/d/a/obj</text>
<text text-anchor="start" x="4081.5" y="-89.5" font-family="Helvetica,sans-Serif" font-size="10.00">/d_a_obj_onsen/d_a_obj</text>
<text text-anchor="middle" x="4134.5" y="-78.5" font-family="Helvetica,sans-Serif" font-size="10.00">_onsen.h</text>
</a>
</g>
</g>
<!-- Node2&#45;&gt;Node83 -->
<g id="edge34" class="edge">
<title>Node2&#45;&gt;Node83</title>
<path fill="none" stroke="#63b8ff" d="M2976.92,-154.09C3233.63,-125.51 3830.12,-162.6 4064.5,-118 4071.09,-116.75 4077.89,-114.97 4084.55,-112.93"/>
<polygon fill="#63b8ff" stroke="#63b8ff" points="2976.73,-150.59 2967.21,-155.23 2977.55,-157.54 2976.73,-150.59"/>
</g>
<!-- Node84 -->
<g id="node35" class="node">
<title>Node84</title>
<g id="a_node35"><a xlink:href="d__a__obj__onsenFire_8h.html" target="_top" xlink:title=" ">
<polygon fill="white" stroke="#666666" points="4323.5,-112.5 4213.5,-112.5 4213.5,-71.5 4323.5,-71.5 4323.5,-112.5"/>
<text text-anchor="start" x="4221.5" y="-100.5" font-family="Helvetica,sans-Serif" font-size="10.00">include/rel/d/a/obj</text>
<text text-anchor="start" x="4221.5" y="-89.5" font-family="Helvetica,sans-Serif" font-size="10.00">/d_a_obj_onsenFire/d</text>
<text text-anchor="middle" x="4268.5" y="-78.5" font-family="Helvetica,sans-Serif" font-size="10.00">_a_obj_onsenFire.h</text>
</a>
</g>
</g>
<!-- Node2&#45;&gt;Node84 -->
<g id="edge35" class="edge">
<title>Node2&#45;&gt;Node84</title>
<path fill="none" stroke="#63b8ff" d="M2977.03,-154.08C3264.86,-122.43 3940.29,-171.79 4204.5,-118 4210.58,-116.76 4216.83,-115 4222.93,-112.97"/>
<polygon fill="#63b8ff" stroke="#63b8ff" points="2976.74,-150.59 2967.21,-155.22 2977.54,-157.54 2976.74,-150.59"/>
</g>
<!-- Node85 -->
<g id="node36" class="node">
<title>Node85</title>
<g id="a_node36"><a xlink:href="d__a__obj__prop_8h.html" target="_top" xlink:title=" ">
<polygon fill="white" stroke="#666666" points="4455.5,-112.5 4341.5,-112.5 4341.5,-71.5 4455.5,-71.5 4455.5,-112.5"/>
<text text-anchor="start" x="4349.5" y="-100.5" font-family="Helvetica,sans-Serif" font-size="10.00">include/rel/d/a/obj</text>
<text text-anchor="start" x="4349.5" y="-89.5" font-family="Helvetica,sans-Serif" font-size="10.00">/d_a_obj_prop/d_a_obj</text>
<text text-anchor="middle" x="4398.5" y="-78.5" font-family="Helvetica,sans-Serif" font-size="10.00">_prop.h</text>
</a>
</g>
</g>
<!-- Node2&#45;&gt;Node85 -->
<g id="edge36" class="edge">
<title>Node2&#45;&gt;Node85</title>
<path fill="none" stroke="#63b8ff" d="M2976.76,-154.11C3292.8,-119.43 4039.98,-175.56 4332.5,-118 4338.75,-116.77 4345.19,-115.01 4351.47,-112.98"/>
<polygon fill="#63b8ff" stroke="#63b8ff" points="2976.74,-150.59 2967.2,-155.21 2977.54,-157.54 2976.74,-150.59"/>
</g>
<!-- Node86 -->
<g id="node37" class="node">
<title>Node86</title>
<g id="a_node37"><a xlink:href="d__a__obj__rcircle_8h.html" target="_top" xlink:title=" ">
<polygon fill="white" stroke="#666666" points="4577.5,-112.5 4473.5,-112.5 4473.5,-71.5 4577.5,-71.5 4577.5,-112.5"/>
<text text-anchor="start" x="4481.5" y="-100.5" font-family="Helvetica,sans-Serif" font-size="10.00">include/rel/d/a/obj</text>
<text text-anchor="start" x="4481.5" y="-89.5" font-family="Helvetica,sans-Serif" font-size="10.00">/d_a_obj_rcircle/d_a</text>
<text text-anchor="middle" x="4525.5" y="-78.5" font-family="Helvetica,sans-Serif" font-size="10.00">_obj_rcircle.h</text>
</a>
</g>
</g>
<!-- Node2&#45;&gt;Node86 -->
<g id="edge37" class="edge">
<title>Node2&#45;&gt;Node86</title>
<path fill="none" stroke="#63b8ff" d="M2977.03,-154.08C3322.49,-116.52 4144.11,-185.14 4464.5,-118 4470.32,-116.78 4476.3,-115.02 4482.12,-113"/>
<polygon fill="#63b8ff" stroke="#63b8ff" points="2976.74,-150.59 2967.2,-155.2 2977.54,-157.55 2976.74,-150.59"/>
</g>
<!-- Node87 -->
<g id="node38" class="node">
<title>Node87</title>
<g id="a_node38"><a xlink:href="d__a__obj__smoke_8h.html" target="_top" xlink:title=" ">
<polygon fill="white" stroke="#666666" points="4721,-112.5 4596,-112.5 4596,-71.5 4721,-71.5 4721,-112.5"/>
<text text-anchor="start" x="4604" y="-100.5" font-family="Helvetica,sans-Serif" font-size="10.00">include/rel/d/a/obj</text>
<text text-anchor="start" x="4604" y="-89.5" font-family="Helvetica,sans-Serif" font-size="10.00">/d_a_obj_smoke/d_a_obj</text>
<text text-anchor="middle" x="4658.5" y="-78.5" font-family="Helvetica,sans-Serif" font-size="10.00">_smoke.h</text>
</a>
</g>
</g>
<!-- Node2&#45;&gt;Node87 -->
<g id="edge38" class="edge">
<title>Node2&#45;&gt;Node87</title>
<path fill="none" stroke="#63b8ff" d="M2977.11,-154.07C3349.59,-113.52 4237.7,-180.85 4586.5,-118 4593.4,-116.76 4600.53,-114.96 4607.5,-112.88"/>
<polygon fill="#63b8ff" stroke="#63b8ff" points="2976.74,-150.59 2967.2,-155.19 2977.53,-157.54 2976.74,-150.59"/>
</g>
<!-- Node88 -->
<g id="node39" class="node">
<title>Node88</title>
<g id="a_node39"><a xlink:href="d__a__obj__stone_8h.html" target="_top" xlink:title=" ">
<polygon fill="white" stroke="#666666" points="4858,-112.5 4739,-112.5 4739,-71.5 4858,-71.5 4858,-112.5"/>
<text text-anchor="start" x="4747" y="-100.5" font-family="Helvetica,sans-Serif" font-size="10.00">include/rel/d/a/obj</text>
<text text-anchor="start" x="4747" y="-89.5" font-family="Helvetica,sans-Serif" font-size="10.00">/d_a_obj_stone/d_a_obj</text>
<text text-anchor="middle" x="4798.5" y="-78.5" font-family="Helvetica,sans-Serif" font-size="10.00">_stone.h</text>
</a>
</g>
</g>
<!-- Node2&#45;&gt;Node88 -->
<g id="edge39" class="edge">
<title>Node2&#45;&gt;Node88</title>
<path fill="none" stroke="#63b8ff" d="M2976.9,-154.09C3381.16,-110.23 4350.73,-189.62 4730.5,-118 4737.05,-116.76 4743.8,-114.97 4750.39,-112.9"/>
<polygon fill="#63b8ff" stroke="#63b8ff" points="2976.75,-150.59 2967.2,-155.19 2977.53,-157.54 2976.75,-150.59"/>
</g>
<!-- Node89 -->
<g id="node40" class="node">
<title>Node89</title>
<g id="a_node40"><a xlink:href="d__a__obj__stoneMark_8h.html" target="_top" xlink:title=" ">
<polygon fill="white" stroke="#666666" points="4989,-112.5 4876,-112.5 4876,-71.5 4989,-71.5 4989,-112.5"/>
<text text-anchor="start" x="4884" y="-100.5" font-family="Helvetica,sans-Serif" font-size="10.00">include/rel/d/a/obj</text>
<text text-anchor="start" x="4884" y="-89.5" font-family="Helvetica,sans-Serif" font-size="10.00">/d_a_obj_stoneMark/d</text>
<text text-anchor="middle" x="4932.5" y="-78.5" font-family="Helvetica,sans-Serif" font-size="10.00">_a_obj_stoneMark.h</text>
</a>
</g>
</g>
<!-- Node2&#45;&gt;Node89 -->
<g id="edge40" class="edge">
<title>Node2&#45;&gt;Node89</title>
<path fill="none" stroke="#63b8ff" d="M2977.12,-154.07C3411.83,-107.13 4458.42,-197.99 4867.5,-118 4873.79,-116.77 4880.26,-114.98 4886.57,-112.91"/>
<polygon fill="#63b8ff" stroke="#63b8ff" points="2976.75,-150.59 2967.2,-155.18 2977.53,-157.55 2976.75,-150.59"/>
</g>
<!-- Node90 -->
<g id="node41" class="node">
<title>Node90</title>
<g id="a_node41"><a xlink:href="d__a__obj__tmoon_8h.html" target="_top" xlink:title=" ">
<polygon fill="white" stroke="#666666" points="5129.5,-112.5 5007.5,-112.5 5007.5,-71.5 5129.5,-71.5 5129.5,-112.5"/>
<text text-anchor="start" x="5015.5" y="-100.5" font-family="Helvetica,sans-Serif" font-size="10.00">include/rel/d/a/obj</text>
<text text-anchor="start" x="5015.5" y="-89.5" font-family="Helvetica,sans-Serif" font-size="10.00">/d_a_obj_tmoon/d_a_obj</text>
<text text-anchor="middle" x="5068.5" y="-78.5" font-family="Helvetica,sans-Serif" font-size="10.00">_tmoon.h</text>
</a>
</g>
</g>
<!-- Node2&#45;&gt;Node90 -->
<g id="edge41" class="edge">
<title>Node2&#45;&gt;Node90</title>
<path fill="none" stroke="#63b8ff" d="M2976.86,-154.1C3440.39,-103.96 4559.73,-198.03 4998.5,-118 5005.23,-116.77 5012.17,-114.98 5018.95,-112.91"/>
<polygon fill="#63b8ff" stroke="#63b8ff" points="2976.75,-150.59 2967.2,-155.18 2977.53,-157.54 2976.75,-150.59"/>
</g>
<!-- Node91 -->
<g id="node42" class="node">
<title>Node91</title>
<g id="a_node42"><a xlink:href="d__a__obj__vground_8h.html" target="_top" xlink:title=" ">
<polygon fill="white" stroke="#666666" points="5259.5,-112.5 5147.5,-112.5 5147.5,-71.5 5259.5,-71.5 5259.5,-112.5"/>
<text text-anchor="start" x="5155.5" y="-100.5" font-family="Helvetica,sans-Serif" font-size="10.00">include/rel/d/a/obj</text>
<text text-anchor="start" x="5155.5" y="-89.5" font-family="Helvetica,sans-Serif" font-size="10.00">/d_a_obj_vground/d_a</text>
<text text-anchor="middle" x="5203.5" y="-78.5" font-family="Helvetica,sans-Serif" font-size="10.00">_obj_vground.h</text>
</a>
</g>
</g>
<!-- Node2&#45;&gt;Node91 -->
<g id="edge42" class="edge">
<title>Node2&#45;&gt;Node91</title>
<path fill="none" stroke="#63b8ff" d="M2977.11,-154.16C3261.82,-127.6 4905.89,-163.2 5138.5,-118 5144.79,-116.78 5151.26,-114.99 5157.57,-112.92"/>
<polygon fill="#63b8ff" stroke="#63b8ff" points="2976.79,-150.68 2967.2,-155.19 2977.51,-157.64 2976.79,-150.68"/>
</g>
<!-- Node92 -->
<g id="node43" class="node">
<title>Node92</title>
<g id="a_node43"><a xlink:href="d__a__obj__web0_8h.html" target="_top" xlink:title=" ">
<polygon fill="white" stroke="#666666" points="5397,-112.5 5278,-112.5 5278,-71.5 5397,-71.5 5397,-112.5"/>
<text text-anchor="start" x="5286" y="-100.5" font-family="Helvetica,sans-Serif" font-size="10.00">include/rel/d/a/obj</text>
<text text-anchor="start" x="5286" y="-89.5" font-family="Helvetica,sans-Serif" font-size="10.00">/d_a_obj_web0/d_a_obj</text>
<text text-anchor="middle" x="5337.5" y="-78.5" font-family="Helvetica,sans-Serif" font-size="10.00">_web0.h</text>
</a>
</g>
</g>
<!-- Node2&#45;&gt;Node92 -->
<g id="edge43" class="edge">
<title>Node2&#45;&gt;Node92</title>
<path fill="none" stroke="#63b8ff" d="M2976.88,-154.18C3275.57,-126.05 5021.19,-163.43 5268.5,-118 5275.14,-116.78 5281.99,-114.99 5288.68,-112.93"/>
<polygon fill="#63b8ff" stroke="#63b8ff" points="2976.79,-150.67 2967.2,-155.18 2977.51,-157.63 2976.79,-150.67"/>
</g>
<!-- Node93 -->
<g id="node44" class="node">
<title>Node93</title>
<g id="a_node44"><a xlink:href="d__a__obj__web1_8h.html" target="_top" xlink:title=" ">
<polygon fill="white" stroke="#666666" points="5534,-112.5 5415,-112.5 5415,-71.5 5534,-71.5 5534,-112.5"/>
<text text-anchor="start" x="5423" y="-100.5" font-family="Helvetica,sans-Serif" font-size="10.00">include/rel/d/a/obj</text>
<text text-anchor="start" x="5423" y="-89.5" font-family="Helvetica,sans-Serif" font-size="10.00">/d_a_obj_web1/d_a_obj</text>
<text text-anchor="middle" x="5474.5" y="-78.5" font-family="Helvetica,sans-Serif" font-size="10.00">_web1.h</text>
</a>
</g>
</g>
<!-- Node2&#45;&gt;Node93 -->
<g id="edge44" class="edge">
<title>Node2&#45;&gt;Node93</title>
<path fill="none" stroke="#63b8ff" d="M2977.07,-154.16C3291.81,-124.51 5144.27,-166.68 5406.5,-118 5413.05,-116.78 5419.81,-115 5426.4,-112.93"/>
<polygon fill="#63b8ff" stroke="#63b8ff" points="2976.79,-150.67 2967.2,-155.18 2977.51,-157.63 2976.79,-150.67"/>
</g>
<!-- Node94 -->
<g id="node45" class="node">
<title>Node94</title>
<g id="a_node45"><a xlink:href="d__a__obj__yobikusa_8h.html" target="_top" xlink:title=" ">
<polygon fill="white" stroke="#666666" points="5657,-112.5 5552,-112.5 5552,-71.5 5657,-71.5 5657,-112.5"/>
<text text-anchor="start" x="5560" y="-100.5" font-family="Helvetica,sans-Serif" font-size="10.00">include/rel/d/a/obj</text>
<text text-anchor="start" x="5560" y="-89.5" font-family="Helvetica,sans-Serif" font-size="10.00">/d_a_obj_yobikusa/d</text>
<text text-anchor="middle" x="5604.5" y="-78.5" font-family="Helvetica,sans-Serif" font-size="10.00">_a_obj_yobikusa.h</text>
</a>
</g>
</g>
<!-- Node2&#45;&gt;Node94 -->
<g id="edge45" class="edge">
<title>Node2&#45;&gt;Node94</title>
<path fill="none" stroke="#63b8ff" d="M2976.71,-154.19C3305.79,-123.03 5267.19,-174.44 5543.5,-118 5549.44,-116.79 5555.54,-115 5561.47,-112.94"/>
<polygon fill="#63b8ff" stroke="#63b8ff" points="2976.79,-150.66 2967.2,-155.18 2977.51,-157.63 2976.79,-150.66"/>
</g>
<!-- Node95 -->
<g id="node46" class="node">
<title>Node95</title>
<g id="a_node46"><a xlink:href="d__a__obj__mirror__6pole_8h.html" target="_top" xlink:title=" ">
<polygon fill="white" stroke="#666666" points="5787.5,-118 5675.5,-118 5675.5,-66 5787.5,-66 5787.5,-118"/>
<text text-anchor="start" x="5683.5" y="-106" font-family="Helvetica,sans-Serif" font-size="10.00">include/rel/d/a/obj</text>
<text text-anchor="start" x="5683.5" y="-95" font-family="Helvetica,sans-Serif" font-size="10.00">/mirror/d_a_obj_mirror</text>
<text text-anchor="start" x="5683.5" y="-84" font-family="Helvetica,sans-Serif" font-size="10.00">_6pole/d_a_obj_mirror</text>
<text text-anchor="middle" x="5731.5" y="-73" font-family="Helvetica,sans-Serif" font-size="10.00">_6pole.h</text>
</a>
</g>
</g>
<!-- Node2&#45;&gt;Node95 -->
<g id="edge46" class="edge">
<title>Node2&#45;&gt;Node95</title>
<path fill="none" stroke="#63b8ff" d="M2976.96,-154.16C3320.59,-121.58 5376.24,-173.91 5666.5,-118 5669.35,-117.45 5672.24,-116.79 5675.13,-116.03"/>
<polygon fill="#63b8ff" stroke="#63b8ff" points="2976.79,-150.66 2967.2,-155.18 2977.51,-157.62 2976.79,-150.66"/>
</g>
<!-- Node96 -->
<g id="node47" class="node">
<title>Node96</title>
<g id="a_node47"><a xlink:href="d__a__obj__mirror__sand_8h.html" target="_top" xlink:title=" ">
<polygon fill="white" stroke="#666666" points="5949,-112.5 5806,-112.5 5806,-71.5 5949,-71.5 5949,-112.5"/>
<text text-anchor="start" x="5814" y="-100.5" font-family="Helvetica,sans-Serif" font-size="10.00">include/rel/d/a/obj</text>
<text text-anchor="start" x="5814" y="-89.5" font-family="Helvetica,sans-Serif" font-size="10.00">/mirror/d_a_obj_mirror</text>
<text text-anchor="middle" x="5877.5" y="-78.5" font-family="Helvetica,sans-Serif" font-size="10.00">_sand/d_a_obj_mirror_sand.h</text>
</a>
</g>
</g>
<!-- Node2&#45;&gt;Node96 -->
<g id="edge47" class="edge">
<title>Node2&#45;&gt;Node96</title>
<path fill="none" stroke="#63b8ff" d="M2976.96,-154.16C3335.1,-119.86 5490.24,-166.19 5796.5,-118 5804.21,-116.79 5812.19,-115.01 5820.01,-112.94"/>
<polygon fill="#63b8ff" stroke="#63b8ff" points="2976.78,-150.66 2967.2,-155.17 2977.51,-157.62 2976.78,-150.66"/>
</g>
<!-- Node30&#45;&gt;Node12 -->
<g id="edge9" class="edge">
<title>Node30&#45;&gt;Node12</title>
<path fill="none" stroke="#63b8ff" d="M721.76,-77.72C711.82,-73.75 700.77,-69.52 690.5,-66 650.79,-52.38 605.13,-39.22 570.84,-29.82"/>
<polygon fill="#63b8ff" stroke="#63b8ff" points="720.42,-80.96 731,-81.48 723.05,-74.47 720.42,-80.96"/>
</g>
</g>
</svg>
