<?xml version="1.0" encoding="UTF-8" standalone="no"?>
<!DOCTYPE svg PUBLIC "-//W3C//DTD SVG 1.1//EN"
 "http://www.w3.org/Graphics/SVG/1.1/DTD/svg11.dtd">
<!-- Generated by graphviz version 2.47.0 (20210316.2052)
 -->
<!-- Title: include/f/f_pc/f_pc_executor.h Pages: 1 -->
<svg width="1700pt" height="173pt"
 viewBox="0.00 0.00 1699.50 173.00" xmlns="http://www.w3.org/2000/svg" xmlns:xlink="http://www.w3.org/1999/xlink">
<g id="graph0" class="graph" transform="scale(1 1) rotate(0) translate(4 169)">
<title>include/f/f_pc/f_pc_executor.h</title>
<polygon fill="white" stroke="transparent" points="-4,4 -4,-169 1695.5,-169 1695.5,4 -4,4"/>
<!-- Node1 -->
<g id="node1" class="node">
<title>Node1</title>
<g id="a_node1"><a xlink:title=" ">
<polygon fill="#bfbfbf" stroke="black" points="604.5,-134.5 604.5,-164.5 701.5,-164.5 701.5,-134.5 604.5,-134.5"/>
<text text-anchor="start" x="612.5" y="-152.5" font-family="Helvetica,sans-Serif" font-size="10.00">include/f/f_pc/f_pc</text>
<text text-anchor="middle" x="653" y="-141.5" font-family="Helvetica,sans-Serif" font-size="10.00">_executor.h</text>
</a>
</g>
</g>
<!-- Node2 -->
<g id="node2" class="node">
<title>Node2</title>
<g id="a_node2"><a xlink:href="f__op__overlap__mng_8cpp.html" target="_top" xlink:title=" ">
<polygon fill="white" stroke="black" points="0,-67.5 0,-97.5 116,-97.5 116,-67.5 0,-67.5"/>
<text text-anchor="start" x="8" y="-85.5" font-family="Helvetica,sans-Serif" font-size="10.00">src/f/f_op/f_op_overlap</text>
<text text-anchor="middle" x="58" y="-74.5" font-family="Helvetica,sans-Serif" font-size="10.00">_mng.cpp</text>
</a>
</g>
</g>
<!-- Node1&#45;&gt;Node2 -->
<g id="edge1" class="edge">
<title>Node1&#45;&gt;Node2</title>
<path fill="none" stroke="midnightblue" d="M594.08,-145.14C496.23,-139.04 294.22,-124.31 125,-98 122.06,-97.54 119.06,-97.04 116.03,-96.5"/>
<polygon fill="midnightblue" stroke="midnightblue" points="594.16,-148.65 604.35,-145.77 594.59,-141.66 594.16,-148.65"/>
</g>
<!-- Node3 -->
<g id="node3" class="node">
<title>Node3</title>
<g id="a_node3"><a xlink:href="f__op__overlap__req_8cpp.html" target="_top" xlink:title=" ">
<polygon fill="white" stroke="black" points="134,-67.5 134,-97.5 250,-97.5 250,-67.5 134,-67.5"/>
<text text-anchor="start" x="142" y="-85.5" font-family="Helvetica,sans-Serif" font-size="10.00">src/f/f_op/f_op_overlap</text>
<text text-anchor="middle" x="192" y="-74.5" font-family="Helvetica,sans-Serif" font-size="10.00">_req.cpp</text>
</a>
</g>
</g>
<!-- Node1&#45;&gt;Node3 -->
<g id="edge2" class="edge">
<title>Node1&#45;&gt;Node3</title>
<path fill="none" stroke="midnightblue" d="M594.26,-142.56C517.07,-134.39 377.38,-118.36 259,-98 256.07,-97.5 253.07,-96.95 250.05,-96.38"/>
<polygon fill="midnightblue" stroke="midnightblue" points="593.96,-146.05 604.28,-143.61 594.7,-139.09 593.96,-146.05"/>
</g>
<!-- Node4 -->
<g id="node4" class="node">
<title>Node4</title>
<g id="a_node4"><a xlink:href="f__op__scene__pause_8cpp.html" target="_top" xlink:title=" ">
<polygon fill="white" stroke="black" points="268.5,-67.5 268.5,-97.5 379.5,-97.5 379.5,-67.5 268.5,-67.5"/>
<text text-anchor="start" x="276.5" y="-85.5" font-family="Helvetica,sans-Serif" font-size="10.00">src/f/f_op/f_op_scene</text>
<text text-anchor="middle" x="324" y="-74.5" font-family="Helvetica,sans-Serif" font-size="10.00">_pause.cpp</text>
</a>
</g>
</g>
<!-- Node1&#45;&gt;Node4 -->
<g id="edge3" class="edge">
<title>Node1&#45;&gt;Node4</title>
<path fill="none" stroke="midnightblue" d="M594.02,-137.86C540.24,-128.02 458.64,-112.73 388,-98 385.32,-97.44 382.59,-96.86 379.82,-96.27"/>
<polygon fill="midnightblue" stroke="midnightblue" points="593.59,-141.34 604.06,-139.7 594.85,-134.46 593.59,-141.34"/>
</g>
<!-- Node5 -->
<g id="node5" class="node">
<title>Node5</title>
<g id="a_node5"><a xlink:href="f__op__scene__req_8cpp.html" target="_top" xlink:title=" ">
<polygon fill="white" stroke="black" points="397.5,-67.5 397.5,-97.5 508.5,-97.5 508.5,-67.5 397.5,-67.5"/>
<text text-anchor="start" x="405.5" y="-85.5" font-family="Helvetica,sans-Serif" font-size="10.00">src/f/f_op/f_op_scene</text>
<text text-anchor="middle" x="453" y="-74.5" font-family="Helvetica,sans-Serif" font-size="10.00">_req.cpp</text>
</a>
</g>
</g>
<!-- Node1&#45;&gt;Node5 -->
<g id="edge4" class="edge">
<title>Node1&#45;&gt;Node5</title>
<path fill="none" stroke="midnightblue" d="M599.85,-131.23C567.5,-120.71 526.69,-107.45 496.31,-97.58"/>
<polygon fill="midnightblue" stroke="midnightblue" points="599.01,-134.63 609.6,-134.4 601.17,-127.98 599.01,-134.63"/>
</g>
<!-- Node6 -->
<g id="node6" class="node">
<title>Node6</title>
<g id="a_node6"><a xlink:href="f__pc__create__req_8cpp.html" target="_top" xlink:title=" ">
<polygon fill="white" stroke="black" points="527,-67.5 527,-97.5 639,-97.5 639,-67.5 527,-67.5"/>
<text text-anchor="start" x="535" y="-85.5" font-family="Helvetica,sans-Serif" font-size="10.00">src/f/f_pc/f_pc_create</text>
<text text-anchor="middle" x="583" y="-74.5" font-family="Helvetica,sans-Serif" font-size="10.00">_req.cpp</text>
</a>
</g>
</g>
<!-- Node1&#45;&gt;Node6 -->
<g id="edge5" class="edge">
<title>Node1&#45;&gt;Node6</title>
<path fill="none" stroke="midnightblue" d="M630.18,-127.31C619.68,-117.56 607.51,-106.26 598.16,-97.58"/>
<polygon fill="midnightblue" stroke="midnightblue" points="628.1,-130.16 637.81,-134.4 632.86,-125.03 628.1,-130.16"/>
</g>
<!-- Node7 -->
<g id="node7" class="node">
<title>Node7</title>
<g id="a_node7"><a xlink:href="f__pc__deletor_8cpp.html" target="_top" xlink:title=" ">
<polygon fill="white" stroke="black" points="657,-73 657,-92 789,-92 789,-73 657,-73"/>
<text text-anchor="middle" x="723" y="-80" font-family="Helvetica,sans-Serif" font-size="10.00">src/f/f_pc/f_pc_deletor.cpp</text>
</a>
</g>
</g>
<!-- Node1&#45;&gt;Node7 -->
<g id="edge6" class="edge">
<title>Node1&#45;&gt;Node7</title>
<path fill="none" stroke="midnightblue" d="M675.79,-127.34C688.65,-115.4 704.01,-101.14 713.64,-92.19"/>
<polygon fill="midnightblue" stroke="midnightblue" points="673.14,-125.03 668.19,-134.4 677.9,-130.16 673.14,-125.03"/>
</g>
<!-- Node8 -->
<g id="node8" class="node">
<title>Node8</title>
<g id="a_node8"><a xlink:href="f__pc__executor_8cpp.html" target="_top" xlink:title=" ">
<polygon fill="white" stroke="black" points="807,-73 807,-92 947,-92 947,-73 807,-73"/>
<text text-anchor="middle" x="877" y="-80" font-family="Helvetica,sans-Serif" font-size="10.00">src/f/f_pc/f_pc_executor.cpp</text>
</a>
</g>
</g>
<!-- Node1&#45;&gt;Node8 -->
<g id="edge7" class="edge">
<title>Node1&#45;&gt;Node8</title>
<path fill="none" stroke="midnightblue" d="M711,-131.67C754.78,-118.97 813.03,-102.06 847.61,-92.03"/>
<polygon fill="midnightblue" stroke="midnightblue" points="709.96,-128.33 701.33,-134.48 711.91,-135.05 709.96,-128.33"/>
</g>
<!-- Node9 -->
<g id="node9" class="node">
<title>Node9</title>
<g id="a_node9"><a xlink:href="f__pc__node__req_8cpp.html" target="_top" xlink:title=" ">
<polygon fill="white" stroke="black" points="965,-67.5 965,-97.5 1071,-97.5 1071,-67.5 965,-67.5"/>
<text text-anchor="start" x="973" y="-85.5" font-family="Helvetica,sans-Serif" font-size="10.00">src/f/f_pc/f_pc_node</text>
<text text-anchor="middle" x="1018" y="-74.5" font-family="Helvetica,sans-Serif" font-size="10.00">_req.cpp</text>
</a>
</g>
</g>
<!-- Node1&#45;&gt;Node9 -->
<g id="edge8" class="edge">
<title>Node1&#45;&gt;Node9</title>
<path fill="none" stroke="midnightblue" d="M711.96,-139.83C773.17,-130.55 871.59,-114.89 956,-98 958.93,-97.41 961.93,-96.79 964.95,-96.14"/>
<polygon fill="midnightblue" stroke="midnightblue" points="711.08,-136.42 701.72,-141.37 712.13,-143.34 711.08,-136.42"/>
</g>
<!-- Node10 -->
<g id="node10" class="node">
<title>Node10</title>
<g id="a_node10"><a xlink:href="f__pc__manager_8cpp.html" target="_top" xlink:title=" ">
<polygon fill="white" stroke="black" points="1089,-73 1089,-92 1229,-92 1229,-73 1089,-73"/>
<text text-anchor="middle" x="1159" y="-80" font-family="Helvetica,sans-Serif" font-size="10.00">src/f/f_pc/f_pc_manager.cpp</text>
</a>
</g>
</g>
<!-- Node1&#45;&gt;Node10 -->
<g id="edge9" class="edge">
<title>Node1&#45;&gt;Node10</title>
<path fill="none" stroke="midnightblue" d="M711.99,-142.73C794.52,-134.37 949.04,-117.74 1080,-98 1091.44,-96.27 1103.77,-94.14 1115.21,-92.05"/>
<polygon fill="midnightblue" stroke="midnightblue" points="711.4,-139.27 701.8,-143.75 712.1,-146.23 711.4,-139.27"/>
</g>
<!-- Node11 -->
<g id="node11" class="node">
<title>Node11</title>
<g id="a_node11"><a xlink:href="f__op__actor__mng_8h.html" target="_top" xlink:title=" ">
<polygon fill="white" stroke="black" points="1247.5,-67.5 1247.5,-97.5 1344.5,-97.5 1344.5,-67.5 1247.5,-67.5"/>
<text text-anchor="start" x="1255.5" y="-85.5" font-family="Helvetica,sans-Serif" font-size="10.00">include/f/f_op/f_op</text>
<text text-anchor="middle" x="1296" y="-74.5" font-family="Helvetica,sans-Serif" font-size="10.00">_actor_mng.h</text>
</a>
</g>
</g>
<!-- Node1&#45;&gt;Node11 -->
<g id="edge10" class="edge">
<title>Node1&#45;&gt;Node11</title>
<path fill="none" stroke="midnightblue" d="M712.04,-146.5C818.02,-142.23 1047.28,-129.86 1238,-98 1241.07,-97.49 1244.22,-96.89 1247.38,-96.25"/>
<polygon fill="midnightblue" stroke="midnightblue" points="711.72,-143.01 701.87,-146.9 712,-150.01 711.72,-143.01"/>
</g>
<!-- Node12 -->
<g id="node12" class="node">
<title>Node12</title>
<g id="a_node12"><a xlink:href="d__attention_8cpp.html" target="_top" xlink:title=" ">
<polygon fill="white" stroke="black" points="941.5,-6 941.5,-25 1048.5,-25 1048.5,-6 941.5,-6"/>
<text text-anchor="middle" x="995" y="-13" font-family="Helvetica,sans-Serif" font-size="10.00">src/d/d_attention.cpp</text>
</a>
</g>
</g>
<!-- Node11&#45;&gt;Node12 -->
<g id="edge11" class="edge">
<title>Node11&#45;&gt;Node12</title>
<path fill="none" stroke="midnightblue" d="M1237.14,-66.88C1156.25,-48.97 1134.03,-47.66 1057,-31 1048.46,-29.15 1039.29,-27.07 1030.69,-25.06"/>
<polygon fill="midnightblue" stroke="midnightblue" points="1236.78,-70.38 1247.31,-69.14 1238.31,-63.55 1236.78,-70.38"/>
</g>
<!-- Node13 -->
<g id="node13" class="node">
<title>Node13</title>
<g id="a_node13"><a xlink:href="d__camera_8cpp.html" target="_top" xlink:title=" ">
<polygon fill="white" stroke="black" points="1066,-6 1066,-25 1168,-25 1168,-6 1066,-6"/>
<text text-anchor="middle" x="1117" y="-13" font-family="Helvetica,sans-Serif" font-size="10.00">src/d/d_camera.cpp</text>
</a>
</g>
</g>
<!-- Node11&#45;&gt;Node13 -->
<g id="edge12" class="edge">
<title>Node11&#45;&gt;Node13</title>
<path fill="none" stroke="midnightblue" d="M1247.66,-63.95C1212.89,-51.32 1167.53,-34.85 1140.43,-25.01"/>
<polygon fill="midnightblue" stroke="midnightblue" points="1246.57,-67.27 1257.16,-67.4 1248.95,-60.69 1246.57,-67.27"/>
</g>
<!-- Node14 -->
<g id="node14" class="node">
<title>Node14</title>
<g id="a_node14"><a xlink:href="d__stage_8cpp.html" target="_top" xlink:title=" ">
<polygon fill="white" stroke="black" points="1186,-6 1186,-25 1280,-25 1280,-6 1186,-6"/>
<text text-anchor="middle" x="1233" y="-13" font-family="Helvetica,sans-Serif" font-size="10.00">src/d/d_stage.cpp</text>
</a>
</g>
</g>
<!-- Node11&#45;&gt;Node14 -->
<g id="edge13" class="edge">
<title>Node11&#45;&gt;Node14</title>
<path fill="none" stroke="midnightblue" d="M1275.16,-60C1263.66,-48.13 1250.01,-34.05 1241.43,-25.19"/>
<polygon fill="midnightblue" stroke="midnightblue" points="1272.86,-62.65 1282.33,-67.4 1277.88,-57.78 1272.86,-62.65"/>
</g>
<!-- Node15 -->
<g id="node15" class="node">
<title>Node15</title>
<g id="a_node15"><a xlink:href="d__a__alink_8cpp.html" target="_top" xlink:title=" ">
<polygon fill="white" stroke="black" points="1298.5,-6 1298.5,-25 1417.5,-25 1417.5,-6 1298.5,-6"/>
<text text-anchor="middle" x="1358" y="-13" font-family="Helvetica,sans-Serif" font-size="10.00">src/d/d_a/d_a_alink.cpp</text>
</a>
</g>
</g>
<!-- Node11&#45;&gt;Node15 -->
<g id="edge14" class="edge">
<title>Node11&#45;&gt;Node15</title>
<path fill="none" stroke="midnightblue" d="M1316.51,-60C1327.83,-48.13 1341.26,-34.05 1349.71,-25.19"/>
<polygon fill="midnightblue" stroke="midnightblue" points="1313.82,-57.74 1309.45,-67.4 1318.89,-62.58 1313.82,-57.74"/>
</g>
<!-- Node16 -->
<g id="node16" class="node">
<title>Node16</title>
<g id="a_node16"><a xlink:href="f__op__actor__mng_8cpp.html" target="_top" xlink:title=" ">
<polygon fill="white" stroke="black" points="1435.5,-0.5 1435.5,-30.5 1542.5,-30.5 1542.5,-0.5 1435.5,-0.5"/>
<text text-anchor="start" x="1443.5" y="-18.5" font-family="Helvetica,sans-Serif" font-size="10.00">src/f/f_op/f_op_actor</text>
<text text-anchor="middle" x="1489" y="-7.5" font-family="Helvetica,sans-Serif" font-size="10.00">_mng.cpp</text>
</a>
</g>
</g>
<!-- Node11&#45;&gt;Node16 -->
<g id="edge15" class="edge">
<title>Node11&#45;&gt;Node16</title>
<path fill="none" stroke="midnightblue" d="M1347.69,-64.09C1378.84,-53.6 1418.01,-40.41 1447.2,-30.58"/>
<polygon fill="midnightblue" stroke="midnightblue" points="1346.24,-60.89 1337.88,-67.4 1348.47,-67.52 1346.24,-60.89"/>
</g>
<!-- Node17 -->
<g id="node17" class="node">
<title>Node17</title>
<g id="a_node17"><a xlink:href="m__Do__main_8cpp.html" target="_top" xlink:title=" ">
<polygon fill="white" stroke="black" points="1560.5,-6 1560.5,-25 1691.5,-25 1691.5,-6 1560.5,-6"/>
<text text-anchor="middle" x="1626" y="-13" font-family="Helvetica,sans-Serif" font-size="10.00">src/m_Do/m_Do_main.cpp</text>
</a>
</g>
</g>
<!-- Node11&#45;&gt;Node17 -->
<g id="edge16" class="edge">
<title>Node11&#45;&gt;Node17</title>
<path fill="none" stroke="midnightblue" d="M1354.84,-69.91C1420.23,-57.03 1524.27,-36.54 1582.64,-25.04"/>
<polygon fill="midnightblue" stroke="midnightblue" points="1353.83,-66.54 1344.69,-71.91 1355.18,-73.41 1353.83,-66.54"/>
</g>
</g>
</svg>
