<?xml version="1.0" encoding="UTF-8" standalone="no"?>
<!DOCTYPE svg PUBLIC "-//W3C//DTD SVG 1.1//EN"
 "http://www.w3.org/Graphics/SVG/1.1/DTD/svg11.dtd">
<!-- Generated by graphviz version 2.47.0 (20210316.2052)
 -->
<!-- Title: include/f/f_pc/f_pc_node_req.h Pages: 1 -->
<svg width="1082pt" height="240pt"
 viewBox="0.00 0.00 1081.50 240.00" xmlns="http://www.w3.org/2000/svg" xmlns:xlink="http://www.w3.org/1999/xlink">
<g id="graph0" class="graph" transform="scale(1 1) rotate(0) translate(4 236)">
<title>include/f/f_pc/f_pc_node_req.h</title>
<polygon fill="white" stroke="transparent" points="-4,4 -4,-236 1077.5,-236 1077.5,4 -4,4"/>
<!-- Node1 -->
<g id="node1" class="node">
<title>Node1</title>
<g id="a_node1"><a xlink:title=" ">
<polygon fill="#bfbfbf" stroke="black" points="208,-201.5 208,-231.5 305,-231.5 305,-201.5 208,-201.5"/>
<text text-anchor="start" x="216" y="-219.5" font-family="Helvetica,sans-Serif" font-size="10.00">include/f/f_pc/f_pc</text>
<text text-anchor="middle" x="256.5" y="-208.5" font-family="Helvetica,sans-Serif" font-size="10.00">_node_req.h</text>
</a>
</g>
</g>
<!-- Node2 -->
<g id="node2" class="node">
<title>Node2</title>
<g id="a_node2"><a xlink:href="f__pc__node__req_8cpp.html" target="_top" xlink:title=" ">
<polygon fill="white" stroke="black" points="29.5,-134.5 29.5,-164.5 135.5,-164.5 135.5,-134.5 29.5,-134.5"/>
<text text-anchor="start" x="37.5" y="-152.5" font-family="Helvetica,sans-Serif" font-size="10.00">src/f/f_pc/f_pc_node</text>
<text text-anchor="middle" x="82.5" y="-141.5" font-family="Helvetica,sans-Serif" font-size="10.00">_req.cpp</text>
</a>
</g>
</g>
<!-- Node1&#45;&gt;Node2 -->
<g id="edge1" class="edge">
<title>Node1&#45;&gt;Node2</title>
<path fill="none" stroke="midnightblue" d="M209.17,-197.82C181.2,-187.37 146.27,-174.32 120.18,-164.58"/>
<polygon fill="midnightblue" stroke="midnightblue" points="208.15,-201.18 218.74,-201.4 210.6,-194.62 208.15,-201.18"/>
</g>
<!-- Node3 -->
<g id="node3" class="node">
<title>Node3</title>
<g id="a_node3"><a xlink:href="f__pc__manager_8cpp.html" target="_top" xlink:title=" ">
<polygon fill="white" stroke="black" points="258.5,-73 258.5,-92 398.5,-92 398.5,-73 258.5,-73"/>
<text text-anchor="middle" x="328.5" y="-80" font-family="Helvetica,sans-Serif" font-size="10.00">src/f/f_pc/f_pc_manager.cpp</text>
</a>
</g>
</g>
<!-- Node1&#45;&gt;Node3 -->
<g id="edge2" class="edge">
<title>Node1&#45;&gt;Node3</title>
<path fill="none" stroke="midnightblue" d="M269.05,-192.49C285.31,-162.68 312.86,-112.17 323.81,-92.1"/>
<polygon fill="midnightblue" stroke="midnightblue" points="265.92,-190.92 264.21,-201.37 272.07,-194.27 265.92,-190.92"/>
</g>
<!-- Node4 -->
<g id="node4" class="node">
<title>Node4</title>
<g id="a_node4"><a xlink:href="f__op__scene__req_8h.html" target="_top" xlink:title=" ">
<polygon fill="white" stroke="black" points="153,-134.5 153,-164.5 250,-164.5 250,-134.5 153,-134.5"/>
<text text-anchor="start" x="161" y="-152.5" font-family="Helvetica,sans-Serif" font-size="10.00">include/f/f_op/f_op</text>
<text text-anchor="middle" x="201.5" y="-141.5" font-family="Helvetica,sans-Serif" font-size="10.00">_scene_req.h</text>
</a>
</g>
</g>
<!-- Node1&#45;&gt;Node4 -->
<g id="edge3" class="edge">
<title>Node1&#45;&gt;Node4</title>
<path fill="none" stroke="midnightblue" d="M238.08,-193.74C229.95,-184.12 220.61,-173.09 213.41,-164.58"/>
<polygon fill="midnightblue" stroke="midnightblue" points="235.43,-196.02 244.57,-201.4 240.78,-191.5 235.43,-196.02"/>
</g>
<!-- Node7 -->
<g id="node7" class="node">
<title>Node7</title>
<g id="a_node7"><a xlink:href="f__pc__manager_8h.html" target="_top" xlink:title=" ">
<polygon fill="white" stroke="black" points="619,-134.5 619,-164.5 716,-164.5 716,-134.5 619,-134.5"/>
<text text-anchor="start" x="627" y="-152.5" font-family="Helvetica,sans-Serif" font-size="10.00">include/f/f_pc/f_pc</text>
<text text-anchor="middle" x="667.5" y="-141.5" font-family="Helvetica,sans-Serif" font-size="10.00">_manager.h</text>
</a>
</g>
</g>
<!-- Node1&#45;&gt;Node7 -->
<g id="edge6" class="edge">
<title>Node1&#45;&gt;Node7</title>
<path fill="none" stroke="midnightblue" d="M315.37,-206.19C396.98,-193.28 542.99,-170.19 618.8,-158.2"/>
<polygon fill="midnightblue" stroke="midnightblue" points="314.59,-202.77 305.26,-207.79 315.69,-209.68 314.59,-202.77"/>
</g>
<!-- Node5 -->
<g id="node5" class="node">
<title>Node5</title>
<g id="a_node5"><a xlink:href="f__op__scene__mng_8cpp.html" target="_top" xlink:title=" ">
<polygon fill="white" stroke="black" points="0,-67.5 0,-97.5 111,-97.5 111,-67.5 0,-67.5"/>
<text text-anchor="start" x="8" y="-85.5" font-family="Helvetica,sans-Serif" font-size="10.00">src/f/f_op/f_op_scene</text>
<text text-anchor="middle" x="55.5" y="-74.5" font-family="Helvetica,sans-Serif" font-size="10.00">_mng.cpp</text>
</a>
</g>
</g>
<!-- Node4&#45;&gt;Node5 -->
<g id="edge4" class="edge">
<title>Node4&#45;&gt;Node5</title>
<path fill="none" stroke="midnightblue" d="M160.55,-130.27C137.3,-119.92 108.63,-107.15 87.12,-97.58"/>
<polygon fill="midnightblue" stroke="midnightblue" points="159.26,-133.53 169.82,-134.4 162.11,-127.13 159.26,-133.53"/>
</g>
<!-- Node6 -->
<g id="node6" class="node">
<title>Node6</title>
<g id="a_node6"><a xlink:href="f__op__scene__req_8cpp.html" target="_top" xlink:title=" ">
<polygon fill="white" stroke="black" points="129,-67.5 129,-97.5 240,-97.5 240,-67.5 129,-67.5"/>
<text text-anchor="start" x="137" y="-85.5" font-family="Helvetica,sans-Serif" font-size="10.00">src/f/f_op/f_op_scene</text>
<text text-anchor="middle" x="184.5" y="-74.5" font-family="Helvetica,sans-Serif" font-size="10.00">_req.cpp</text>
</a>
</g>
</g>
<!-- Node4&#45;&gt;Node6 -->
<g id="edge5" class="edge">
<title>Node4&#45;&gt;Node6</title>
<path fill="none" stroke="midnightblue" d="M195.27,-124.7C192.89,-115.59 190.25,-105.49 188.18,-97.58"/>
<polygon fill="midnightblue" stroke="midnightblue" points="191.89,-125.61 197.81,-134.4 198.67,-123.84 191.89,-125.61"/>
</g>
<!-- Node7&#45;&gt;Node3 -->
<g id="edge12" class="edge">
<title>Node7&#45;&gt;Node3</title>
<path fill="none" stroke="midnightblue" d="M608.94,-137.27C541.85,-124.41 433.43,-103.62 372.93,-92.02"/>
<polygon fill="midnightblue" stroke="midnightblue" points="608.45,-140.74 618.93,-139.19 609.77,-133.87 608.45,-140.74"/>
</g>
<!-- Node8 -->
<g id="node8" class="node">
<title>Node8</title>
<g id="a_node8"><a xlink:href="d__a__alink_8cpp.html" target="_top" xlink:title=" ">
<polygon fill="white" stroke="black" points="949,-6 949,-25 1068,-25 1068,-6 949,-6"/>
<text text-anchor="middle" x="1008.5" y="-13" font-family="Helvetica,sans-Serif" font-size="10.00">src/d/d_a/d_a_alink.cpp</text>
</a>
</g>
</g>
<!-- Node7&#45;&gt;Node8 -->
<g id="edge7" class="edge">
<title>Node7&#45;&gt;Node8</title>
<path fill="none" stroke="midnightblue" d="M717.37,-130.82C739.25,-122.19 764.82,-110.89 786.5,-98 805.53,-86.68 805.76,-77.04 825.5,-67 850.84,-54.12 925.12,-35.67 970.88,-25"/>
<polygon fill="midnightblue" stroke="midnightblue" points="716,-127.6 707.93,-134.47 718.52,-134.13 716,-127.6"/>
</g>
<!-- Node9 -->
<g id="node9" class="node">
<title>Node9</title>
<g id="a_node9"><a xlink:href="f__ap__game_8cpp.html" target="_top" xlink:title=" ">
<polygon fill="white" stroke="black" points="834,-73 834,-92 939,-92 939,-73 834,-73"/>
<text text-anchor="middle" x="886.5" y="-80" font-family="Helvetica,sans-Serif" font-size="10.00">src/f/f_ap_game.cpp</text>
</a>
</g>
</g>
<!-- Node7&#45;&gt;Node9 -->
<g id="edge8" class="edge">
<title>Node7&#45;&gt;Node9</title>
<path fill="none" stroke="midnightblue" d="M724.47,-131.59C767.24,-118.9 824.02,-102.04 857.76,-92.03"/>
<polygon fill="midnightblue" stroke="midnightblue" points="723.34,-128.28 714.75,-134.48 725.33,-134.99 723.34,-128.28"/>
</g>
<!-- Node10 -->
<g id="node10" class="node">
<title>Node10</title>
<g id="a_node10"><a xlink:href="f__op__kankyo__mng_8cpp.html" target="_top" xlink:title=" ">
<polygon fill="white" stroke="black" points="957.5,-67.5 957.5,-97.5 1073.5,-97.5 1073.5,-67.5 957.5,-67.5"/>
<text text-anchor="start" x="965.5" y="-85.5" font-family="Helvetica,sans-Serif" font-size="10.00">src/f/f_op/f_op_kankyo</text>
<text text-anchor="middle" x="1015.5" y="-74.5" font-family="Helvetica,sans-Serif" font-size="10.00">_mng.cpp</text>
</a>
</g>
</g>
<!-- Node7&#45;&gt;Node10 -->
<g id="edge9" class="edge">
<title>Node7&#45;&gt;Node10</title>
<path fill="none" stroke="midnightblue" d="M725.98,-138.61C782.9,-128.84 871.79,-113.19 948.5,-98 951.42,-97.42 954.41,-96.82 957.42,-96.2"/>
<polygon fill="midnightblue" stroke="midnightblue" points="725.35,-135.17 716.08,-140.31 726.53,-142.07 725.35,-135.17"/>
</g>
<!-- Node11 -->
<g id="node11" class="node">
<title>Node11</title>
<g id="a_node11"><a xlink:href="f__op__overlap__req_8cpp.html" target="_top" xlink:title=" ">
<polygon fill="white" stroke="black" points="416.5,-67.5 416.5,-97.5 532.5,-97.5 532.5,-67.5 416.5,-67.5"/>
<text text-anchor="start" x="424.5" y="-85.5" font-family="Helvetica,sans-Serif" font-size="10.00">src/f/f_op/f_op_overlap</text>
<text text-anchor="middle" x="474.5" y="-74.5" font-family="Helvetica,sans-Serif" font-size="10.00">_req.cpp</text>
</a>
</g>
</g>
<!-- Node7&#45;&gt;Node11 -->
<g id="edge10" class="edge">
<title>Node7&#45;&gt;Node11</title>
<path fill="none" stroke="midnightblue" d="M615.81,-131.09C584.66,-120.6 545.49,-107.41 516.3,-97.58"/>
<polygon fill="midnightblue" stroke="midnightblue" points="615.03,-134.52 625.62,-134.4 617.26,-127.89 615.03,-134.52"/>
</g>
<!-- Node12 -->
<g id="node12" class="node">
<title>Node12</title>
<g id="a_node12"><a xlink:href="f__op__scene__pause_8cpp.html" target="_top" xlink:title=" ">
<polygon fill="white" stroke="black" points="551,-67.5 551,-97.5 662,-97.5 662,-67.5 551,-67.5"/>
<text text-anchor="start" x="559" y="-85.5" font-family="Helvetica,sans-Serif" font-size="10.00">src/f/f_op/f_op_scene</text>
<text text-anchor="middle" x="606.5" y="-74.5" font-family="Helvetica,sans-Serif" font-size="10.00">_pause.cpp</text>
</a>
</g>
</g>
<!-- Node7&#45;&gt;Node12 -->
<g id="edge11" class="edge">
<title>Node7&#45;&gt;Node12</title>
<path fill="none" stroke="midnightblue" d="M647.35,-127.02C638.26,-117.34 627.78,-106.17 619.71,-97.58"/>
<polygon fill="midnightblue" stroke="midnightblue" points="644.87,-129.5 654.26,-134.4 649.97,-124.71 644.87,-129.5"/>
</g>
<!-- Node13 -->
<g id="node13" class="node">
<title>Node13</title>
<g id="a_node13"><a xlink:href="f__op__actor__mng_8h.html" target="_top" xlink:title=" ">
<polygon fill="white" stroke="black" points="680,-67.5 680,-97.5 777,-97.5 777,-67.5 680,-67.5"/>
<text text-anchor="start" x="688" y="-85.5" font-family="Helvetica,sans-Serif" font-size="10.00">include/f/f_op/f_op</text>
<text text-anchor="middle" x="728.5" y="-74.5" font-family="Helvetica,sans-Serif" font-size="10.00">_actor_mng.h</text>
</a>
</g>
</g>
<!-- Node7&#45;&gt;Node13 -->
<g id="edge13" class="edge">
<title>Node7&#45;&gt;Node13</title>
<path fill="none" stroke="midnightblue" d="M687.65,-127.02C696.74,-117.34 707.22,-106.17 715.29,-97.58"/>
<polygon fill="midnightblue" stroke="midnightblue" points="685.03,-124.71 680.74,-134.4 690.13,-129.5 685.03,-124.71"/>
</g>
<!-- Node13&#45;&gt;Node8 -->
<g id="edge17" class="edge">
<title>Node13&#45;&gt;Node8</title>
<path fill="none" stroke="midnightblue" d="M787.36,-67.84C843.07,-54.9 924.96,-35.89 971.88,-25"/>
<polygon fill="midnightblue" stroke="midnightblue" points="786.22,-64.51 777.27,-70.18 787.8,-71.33 786.22,-64.51"/>
</g>
<!-- Node14 -->
<g id="node14" class="node">
<title>Node14</title>
<g id="a_node14"><a xlink:href="d__attention_8cpp.html" target="_top" xlink:title=" ">
<polygon fill="white" stroke="black" points="318,-6 318,-25 425,-25 425,-6 318,-6"/>
<text text-anchor="middle" x="371.5" y="-13" font-family="Helvetica,sans-Serif" font-size="10.00">src/d/d_attention.cpp</text>
</a>
</g>
</g>
<!-- Node13&#45;&gt;Node14 -->
<g id="edge14" class="edge">
<title>Node13&#45;&gt;Node14</title>
<path fill="none" stroke="midnightblue" d="M669.71,-66.75C564.87,-46.09 535.38,-50.59 433.5,-31 424.49,-29.27 414.8,-27.13 405.83,-25.04"/>
<polygon fill="midnightblue" stroke="midnightblue" points="669.26,-70.23 679.76,-68.76 670.64,-63.37 669.26,-70.23"/>
</g>
<!-- Node15 -->
<g id="node15" class="node">
<title>Node15</title>
<g id="a_node15"><a xlink:href="d__camera_8cpp.html" target="_top" xlink:title=" ">
<polygon fill="white" stroke="black" points="442.5,-6 442.5,-25 544.5,-25 544.5,-6 442.5,-6"/>
<text text-anchor="middle" x="493.5" y="-13" font-family="Helvetica,sans-Serif" font-size="10.00">src/d/d_camera.cpp</text>
</a>
</g>
</g>
<!-- Node13&#45;&gt;Node15 -->
<g id="edge15" class="edge">
<title>Node13&#45;&gt;Node15</title>
<path fill="none" stroke="midnightblue" d="M669.94,-65.3C623.86,-52.56 561.46,-35.3 524.54,-25.09"/>
<polygon fill="midnightblue" stroke="midnightblue" points="669.24,-68.74 679.81,-68.03 671.1,-61.99 669.24,-68.74"/>
</g>
<!-- Node16 -->
<g id="node16" class="node">
<title>Node16</title>
<g id="a_node16"><a xlink:href="d__stage_8cpp.html" target="_top" xlink:title=" ">
<polygon fill="white" stroke="black" points="562.5,-6 562.5,-25 656.5,-25 656.5,-6 562.5,-6"/>
<text text-anchor="middle" x="609.5" y="-13" font-family="Helvetica,sans-Serif" font-size="10.00">src/d/d_stage.cpp</text>
</a>
</g>
</g>
<!-- Node13&#45;&gt;Node16 -->
<g id="edge16" class="edge">
<title>Node13&#45;&gt;Node16</title>
<path fill="none" stroke="midnightblue" d="M693.67,-62.47C670.95,-50.06 642.4,-34.47 625.07,-25.01"/>
<polygon fill="midnightblue" stroke="midnightblue" points="692.22,-65.67 702.68,-67.4 695.58,-59.53 692.22,-65.67"/>
</g>
<!-- Node17 -->
<g id="node17" class="node">
<title>Node17</title>
<g id="a_node17"><a xlink:href="f__op__actor__mng_8cpp.html" target="_top" xlink:title=" ">
<polygon fill="white" stroke="black" points="675,-0.5 675,-30.5 782,-30.5 782,-0.5 675,-0.5"/>
<text text-anchor="start" x="683" y="-18.5" font-family="Helvetica,sans-Serif" font-size="10.00">src/f/f_op/f_op_actor</text>
<text text-anchor="middle" x="728.5" y="-7.5" font-family="Helvetica,sans-Serif" font-size="10.00">_mng.cpp</text>
</a>
</g>
</g>
<!-- Node13&#45;&gt;Node17 -->
<g id="edge18" class="edge">
<title>Node13&#45;&gt;Node17</title>
<path fill="none" stroke="midnightblue" d="M728.5,-57.11C728.5,-48.15 728.5,-38.32 728.5,-30.58"/>
<polygon fill="midnightblue" stroke="midnightblue" points="725,-57.4 728.5,-67.4 732,-57.4 725,-57.4"/>
</g>
<!-- Node18 -->
<g id="node18" class="node">
<title>Node18</title>
<g id="a_node18"><a xlink:href="m__Do__main_8cpp.html" target="_top" xlink:title=" ">
<polygon fill="white" stroke="black" points="800,-6 800,-25 931,-25 931,-6 800,-6"/>
<text text-anchor="middle" x="865.5" y="-13" font-family="Helvetica,sans-Serif" font-size="10.00">src/m_Do/m_Do_main.cpp</text>
</a>
</g>
</g>
<!-- Node13&#45;&gt;Node18 -->
<g id="edge19" class="edge">
<title>Node13&#45;&gt;Node18</title>
<path fill="none" stroke="midnightblue" d="M767.56,-62.97C793.88,-50.48 827.36,-34.6 847.57,-25.01"/>
<polygon fill="midnightblue" stroke="midnightblue" points="765.76,-59.95 758.23,-67.4 768.76,-66.27 765.76,-59.95"/>
</g>
</g>
</svg>
