<?xml version="1.0" encoding="UTF-8" standalone="no"?>
<!DOCTYPE svg PUBLIC "-//W3C//DTD SVG 1.1//EN"
 "http://www.w3.org/Graphics/SVG/1.1/DTD/svg11.dtd">
<!-- Generated by graphviz version 2.47.0 (20210316.2052)
 -->
<!-- Title: include/f/f_pc/f_pc_create_iter.h Pages: 1 -->
<!--zoomable 240 -->
<svg id="main" version="1.1" xmlns="http://www.w3.org/2000/svg" xmlns:xlink="http://www.w3.org/1999/xlink" xml:space="preserve" onload="init(evt)">
<style type="text/css"><![CDATA[
.edge:hover path { stroke: red; }
.edge:hover polygon { stroke: red; fill: red; }
]]></style>
<script type="text/javascript"><![CDATA[
var edges = document.getElementsByTagName('g');
if (edges && edges.length) {
  for (var i=0;i<edges.length;i++) {
    if (edges[i].id.substr(0,4)=='edge') {
      edges[i].setAttribute('class','edge');
    }
  }
}
]]></script>
        <defs>
                <circle id="rim" cx="0" cy="0" r="7"/>
                <circle id="rim2" cx="0" cy="0" r="3.5"/>
                <g id="zoomPlus">
                        <use xlink:href="#rim" fill="#404040">
                                <set attributeName="fill" to="#808080" begin="zoomplus.mouseover" end="zoomplus.mouseout"/>
                        </use>
                        <path d="M-4,0h8M0,-4v8" fill="none" stroke="white" stroke-width="1.5" pointer-events="none"/>
                </g>
                <g id="zoomMin">
                        <use xlink:href="#rim" fill="#404040">
                                <set attributeName="fill" to="#808080" begin="zoomminus.mouseover" end="zoomminus.mouseout"/>
                        </use>
                        <path d="M-4,0h8" fill="none" stroke="white" stroke-width="1.5" pointer-events="none"/>
                </g>
                <g id="dirArrow">
                        <path fill="none" stroke="white" stroke-width="1.5" d="M0,-3.0v7 M-2.5,-0.5L0,-3.0L2.5,-0.5"/>
                </g>
               <g id="resetDef">
                       <use xlink:href="#rim2" fill="#404040">
                               <set attributeName="fill" to="#808080" begin="reset.mouseover" end="reset.mouseout"/>
                       </use>
               </g>
        </defs>

<script type="text/javascript">
var viewWidth = 1245;
var viewHeight = 240;
var sectionId = 'dynsection-1';
</script>
<script xlink:href="svgpan.js"/>
<svg id="graph" class="graph">
<g id="viewport">
<title>include/f/f_pc/f_pc_create_iter.h</title>
<polygon fill="white" stroke="transparent" points="-4,4 -4,-236 1240.5,-236 1240.5,4 -4,4"/>
<!-- Node1 -->
<g id="node1" class="node">
<title>Node1</title>
<g id="a_node1"><a xlink:title=" ">
<polygon fill="#bfbfbf" stroke="black" points="179.5,-201.5 179.5,-231.5 276.5,-231.5 276.5,-201.5 179.5,-201.5"/>
<text text-anchor="start" x="187.5" y="-219.5" font-family="Helvetica,sans-Serif" font-size="10.00">include/f/f_pc/f_pc</text>
<text text-anchor="middle" x="228" y="-208.5" font-family="Helvetica,sans-Serif" font-size="10.00">_create_iter.h</text>
</a>
</g>
</g>
<!-- Node2 -->
<g id="node2" class="node">
<title>Node2</title>
<g id="a_node2"><a xlink:href="f__pc__create__iter_8cpp.html" target="_top" xlink:title=" ">
<polygon fill="white" stroke="black" points="0,-134.5 0,-164.5 112,-164.5 112,-134.5 0,-134.5"/>
<text text-anchor="start" x="8" y="-152.5" font-family="Helvetica,sans-Serif" font-size="10.00">src/f/f_pc/f_pc_create</text>
<text text-anchor="middle" x="56" y="-141.5" font-family="Helvetica,sans-Serif" font-size="10.00">_iter.cpp</text>
</a>
</g>
</g>
<!-- Node1&#45;&gt;Node2 -->
<g id="edge1" class="edge">
<title>Node1&#45;&gt;Node2</title>
<path fill="none" stroke="midnightblue" d="M181.21,-197.82C153.57,-187.37 119.04,-174.32 93.25,-164.58"/>
<polygon fill="midnightblue" stroke="midnightblue" points="180.09,-201.13 190.68,-201.4 182.56,-194.59 180.09,-201.13"/>
</g>
<!-- Node3 -->
<g id="node3" class="node">
<title>Node3</title>
<g id="a_node3"><a xlink:href="f__pc__create__req_8cpp.html" target="_top" xlink:title=" ">
<polygon fill="white" stroke="black" points="130,-134.5 130,-164.5 242,-164.5 242,-134.5 130,-134.5"/>
<text text-anchor="start" x="138" y="-152.5" font-family="Helvetica,sans-Serif" font-size="10.00">src/f/f_pc/f_pc_create</text>
<text text-anchor="middle" x="186" y="-141.5" font-family="Helvetica,sans-Serif" font-size="10.00">_req.cpp</text>
</a>
</g>
</g>
<!-- Node1&#45;&gt;Node3 -->
<g id="edge2" class="edge">
<title>Node1&#45;&gt;Node3</title>
<path fill="none" stroke="midnightblue" d="M213.38,-192.87C207.3,-183.46 200.43,-172.83 195.1,-164.58"/>
<polygon fill="midnightblue" stroke="midnightblue" points="210.52,-194.9 218.89,-201.4 216.4,-191.1 210.52,-194.9"/>
</g>
<!-- Node4 -->
<g id="node4" class="node">
<title>Node4</title>
<g id="a_node4"><a xlink:href="f__pc__manager_8cpp.html" target="_top" xlink:title=" ">
<polygon fill="white" stroke="black" points="149,-73 149,-92 289,-92 289,-73 149,-73"/>
<text text-anchor="middle" x="219" y="-80" font-family="Helvetica,sans-Serif" font-size="10.00">src/f/f_pc/f_pc_manager.cpp</text>
</a>
</g>
</g>
<!-- Node1&#45;&gt;Node4 -->
<g id="edge3" class="edge">
<title>Node1&#45;&gt;Node4</title>
<path fill="none" stroke="midnightblue" d="M241.71,-192.04C249.5,-175.74 256.67,-153.53 251,-134 246.26,-117.65 234.46,-101.52 226.59,-92.04"/>
<polygon fill="midnightblue" stroke="midnightblue" points="238.38,-190.86 236.89,-201.35 244.59,-194.08 238.38,-190.86"/>
</g>
<!-- Node5 -->
<g id="node5" class="node">
<title>Node5</title>
<g id="a_node5"><a xlink:href="f__pc__manager_8h.html" target="_top" xlink:title=" ">
<polygon fill="white" stroke="black" points="413.5,-134.5 413.5,-164.5 510.5,-164.5 510.5,-134.5 413.5,-134.5"/>
<text text-anchor="start" x="421.5" y="-152.5" font-family="Helvetica,sans-Serif" font-size="10.00">include/f/f_pc/f_pc</text>
<text text-anchor="middle" x="462" y="-141.5" font-family="Helvetica,sans-Serif" font-size="10.00">_manager.h</text>
</a>
</g>
</g>
<!-- Node1&#45;&gt;Node5 -->
<g id="edge4" class="edge">
<title>Node1&#45;&gt;Node5</title>
<path fill="none" stroke="midnightblue" d="M286.44,-199.27C325.54,-188.41 376.39,-174.28 413.29,-164.03"/>
<polygon fill="midnightblue" stroke="midnightblue" points="285.47,-195.9 276.77,-201.95 287.34,-202.65 285.47,-195.9"/>
</g>
<!-- Node5&#45;&gt;Node4 -->
<g id="edge10" class="edge">
<title>Node5&#45;&gt;Node4</title>
<path fill="none" stroke="midnightblue" d="M403.47,-132.84C355.55,-120.02 289.55,-102.37 250.87,-92.02"/>
<polygon fill="midnightblue" stroke="midnightblue" points="402.84,-136.3 413.41,-135.5 404.65,-129.54 402.84,-136.3"/>
</g>
<!-- Node6 -->
<g id="node6" class="node">
<title>Node6</title>
<g id="a_node6"><a xlink:href="d__a__alink_8cpp.html" target="_top" xlink:title=" ">
<polygon fill="white" stroke="black" points="372.5,-6 372.5,-25 491.5,-25 491.5,-6 372.5,-6"/>
<text text-anchor="middle" x="432" y="-13" font-family="Helvetica,sans-Serif" font-size="10.00">src/d/d_a/d_a_alink.cpp</text>
</a>
</g>
</g>
<!-- Node5&#45;&gt;Node6 -->
<g id="edge5" class="edge">
<title>Node5&#45;&gt;Node6</title>
<path fill="none" stroke="midnightblue" d="M403.39,-139.88C378.25,-132.96 351.21,-120.49 336,-98 328.28,-86.59 328.88,-78.79 336,-67 349.14,-45.24 375.12,-32.38 396.74,-25.1"/>
<polygon fill="midnightblue" stroke="midnightblue" points="402.72,-143.32 413.27,-142.36 404.42,-136.53 402.72,-143.32"/>
</g>
<!-- Node7 -->
<g id="node7" class="node">
<title>Node7</title>
<g id="a_node7"><a xlink:href="f__ap__game_8cpp.html" target="_top" xlink:title=" ">
<polygon fill="white" stroke="black" points="345.5,-73 345.5,-92 450.5,-92 450.5,-73 345.5,-73"/>
<text text-anchor="middle" x="398" y="-80" font-family="Helvetica,sans-Serif" font-size="10.00">src/f/f_ap_game.cpp</text>
</a>
</g>
</g>
<!-- Node5&#45;&gt;Node7 -->
<g id="edge6" class="edge">
<title>Node5&#45;&gt;Node7</title>
<path fill="none" stroke="midnightblue" d="M440.83,-127C429.15,-115.13 415.28,-101.05 406.56,-92.19"/>
<polygon fill="midnightblue" stroke="midnightblue" points="438.6,-129.73 448.11,-134.4 443.59,-124.81 438.6,-129.73"/>
</g>
<!-- Node8 -->
<g id="node8" class="node">
<title>Node8</title>
<g id="a_node8"><a xlink:href="f__op__kankyo__mng_8cpp.html" target="_top" xlink:title=" ">
<polygon fill="white" stroke="black" points="469,-67.5 469,-97.5 585,-97.5 585,-67.5 469,-67.5"/>
<text text-anchor="start" x="477" y="-85.5" font-family="Helvetica,sans-Serif" font-size="10.00">src/f/f_op/f_op_kankyo</text>
<text text-anchor="middle" x="527" y="-74.5" font-family="Helvetica,sans-Serif" font-size="10.00">_mng.cpp</text>
</a>
</g>
</g>
<!-- Node5&#45;&gt;Node8 -->
<g id="edge7" class="edge">
<title>Node5&#45;&gt;Node8</title>
<path fill="none" stroke="midnightblue" d="M483.19,-127.31C492.94,-117.56 504.24,-106.26 512.92,-97.58"/>
<polygon fill="midnightblue" stroke="midnightblue" points="480.7,-124.85 476.1,-134.4 485.65,-129.8 480.7,-124.85"/>
</g>
<!-- Node9 -->
<g id="node9" class="node">
<title>Node9</title>
<g id="a_node9"><a xlink:href="f__op__overlap__req_8cpp.html" target="_top" xlink:title=" ">
<polygon fill="white" stroke="black" points="603,-67.5 603,-97.5 719,-97.5 719,-67.5 603,-67.5"/>
<text text-anchor="start" x="611" y="-85.5" font-family="Helvetica,sans-Serif" font-size="10.00">src/f/f_op/f_op_overlap</text>
<text text-anchor="middle" x="661" y="-74.5" font-family="Helvetica,sans-Serif" font-size="10.00">_req.cpp</text>
</a>
</g>
</g>
<!-- Node5&#45;&gt;Node9 -->
<g id="edge8" class="edge">
<title>Node5&#45;&gt;Node9</title>
<path fill="none" stroke="midnightblue" d="M514.88,-131.23C547.07,-120.71 587.67,-107.45 617.9,-97.58"/>
<polygon fill="midnightblue" stroke="midnightblue" points="513.6,-127.96 505.18,-134.4 515.77,-134.62 513.6,-127.96"/>
</g>
<!-- Node10 -->
<g id="node10" class="node">
<title>Node10</title>
<g id="a_node10"><a xlink:href="f__op__scene__pause_8cpp.html" target="_top" xlink:title=" ">
<polygon fill="white" stroke="black" points="737.5,-67.5 737.5,-97.5 848.5,-97.5 848.5,-67.5 737.5,-67.5"/>
<text text-anchor="start" x="745.5" y="-85.5" font-family="Helvetica,sans-Serif" font-size="10.00">src/f/f_op/f_op_scene</text>
<text text-anchor="middle" x="793" y="-74.5" font-family="Helvetica,sans-Serif" font-size="10.00">_pause.cpp</text>
</a>
</g>
</g>
<!-- Node5&#45;&gt;Node10 -->
<g id="edge9" class="edge">
<title>Node5&#45;&gt;Node10</title>
<path fill="none" stroke="midnightblue" d="M520.7,-137.91C574.67,-128.04 656.86,-112.68 728,-98 731.06,-97.37 734.19,-96.71 737.36,-96.04"/>
<polygon fill="midnightblue" stroke="midnightblue" points="519.84,-134.51 510.63,-139.75 521.1,-141.4 519.84,-134.51"/>
</g>
<!-- Node11 -->
<g id="node11" class="node">
<title>Node11</title>
<g id="a_node11"><a xlink:href="f__op__actor__mng_8h.html" target="_top" xlink:title=" ">
<polygon fill="white" stroke="black" points="866.5,-67.5 866.5,-97.5 963.5,-97.5 963.5,-67.5 866.5,-67.5"/>
<text text-anchor="start" x="874.5" y="-85.5" font-family="Helvetica,sans-Serif" font-size="10.00">include/f/f_op/f_op</text>
<text text-anchor="middle" x="915" y="-74.5" font-family="Helvetica,sans-Serif" font-size="10.00">_actor_mng.h</text>
</a>
</g>
</g>
<!-- Node5&#45;&gt;Node11 -->
<g id="edge11" class="edge">
<title>Node5&#45;&gt;Node11</title>
<path fill="none" stroke="midnightblue" d="M520.83,-143.27C598.49,-135.84 739.25,-120.59 858,-98 860.71,-97.48 863.48,-96.92 866.27,-96.31"/>
<polygon fill="midnightblue" stroke="midnightblue" points="520.39,-139.79 510.76,-144.22 521.05,-146.76 520.39,-139.79"/>
</g>
<!-- Node11&#45;&gt;Node6 -->
<g id="edge15" class="edge">
<title>Node11&#45;&gt;Node6</title>
<path fill="none" stroke="midnightblue" d="M856.15,-66.79C720.91,-42.22 572.34,-27.84 491.64,-21.09"/>
<polygon fill="midnightblue" stroke="midnightblue" points="855.81,-70.29 866.28,-68.66 857.07,-63.4 855.81,-70.29"/>
</g>
<!-- Node12 -->
<g id="node12" class="node">
<title>Node12</title>
<g id="a_node12"><a xlink:href="d__attention_8cpp.html" target="_top" xlink:title=" ">
<polygon fill="white" stroke="black" points="623.5,-6 623.5,-25 730.5,-25 730.5,-6 623.5,-6"/>
<text text-anchor="middle" x="677" y="-13" font-family="Helvetica,sans-Serif" font-size="10.00">src/d/d_attention.cpp</text>
</a>
</g>
</g>
<!-- Node11&#45;&gt;Node12 -->
<g id="edge12" class="edge">
<title>Node11&#45;&gt;Node12</title>
<path fill="none" stroke="midnightblue" d="M856.54,-65.54C809.72,-52.75 745.84,-35.3 708.25,-25.03"/>
<polygon fill="midnightblue" stroke="midnightblue" points="855.69,-68.93 866.26,-68.19 857.54,-62.18 855.69,-68.93"/>
</g>
<!-- Node13 -->
<g id="node13" class="node">
<title>Node13</title>
<g id="a_node13"><a xlink:href="d__camera_8cpp.html" target="_top" xlink:title=" ">
<polygon fill="white" stroke="black" points="748,-6 748,-25 850,-25 850,-6 748,-6"/>
<text text-anchor="middle" x="799" y="-13" font-family="Helvetica,sans-Serif" font-size="10.00">src/d/d_camera.cpp</text>
</a>
</g>
</g>
<!-- Node11&#45;&gt;Node13 -->
<g id="edge13" class="edge">
<title>Node11&#45;&gt;Node13</title>
<path fill="none" stroke="midnightblue" d="M881.04,-62.47C858.9,-50.06 831.07,-34.47 814.18,-25.01"/>
<polygon fill="midnightblue" stroke="midnightblue" points="879.4,-65.56 889.83,-67.4 882.82,-59.45 879.4,-65.56"/>
</g>
<!-- Node14 -->
<g id="node14" class="node">
<title>Node14</title>
<g id="a_node14"><a xlink:href="d__stage_8cpp.html" target="_top" xlink:title=" ">
<polygon fill="white" stroke="black" points="868,-6 868,-25 962,-25 962,-6 868,-6"/>
<text text-anchor="middle" x="915" y="-13" font-family="Helvetica,sans-Serif" font-size="10.00">src/d/d_stage.cpp</text>
</a>
</g>
</g>
<!-- Node11&#45;&gt;Node14 -->
<g id="edge14" class="edge">
<title>Node11&#45;&gt;Node14</title>
<path fill="none" stroke="midnightblue" d="M915,-57.25C915,-46.02 915,-33.38 915,-25.19"/>
<polygon fill="midnightblue" stroke="midnightblue" points="911.5,-57.4 915,-67.4 918.5,-57.4 911.5,-57.4"/>
</g>
<!-- Node15 -->
<g id="node15" class="node">
<title>Node15</title>
<g id="a_node15"><a xlink:href="f__op__actor__mng_8cpp.html" target="_top" xlink:title=" ">
<polygon fill="white" stroke="black" points="980.5,-0.5 980.5,-30.5 1087.5,-30.5 1087.5,-0.5 980.5,-0.5"/>
<text text-anchor="start" x="988.5" y="-18.5" font-family="Helvetica,sans-Serif" font-size="10.00">src/f/f_op/f_op_actor</text>
<text text-anchor="middle" x="1034" y="-7.5" font-family="Helvetica,sans-Serif" font-size="10.00">_mng.cpp</text>
</a>
</g>
</g>
<!-- Node11&#45;&gt;Node15 -->
<g id="edge16" class="edge">
<title>Node11&#45;&gt;Node15</title>
<path fill="none" stroke="midnightblue" d="M949.65,-62.57C968.37,-52.35 991.09,-39.94 1008.23,-30.58"/>
<polygon fill="midnightblue" stroke="midnightblue" points="947.92,-59.53 940.82,-67.4 951.28,-65.67 947.92,-59.53"/>
</g>
<!-- Node16 -->
<g id="node16" class="node">
<title>Node16</title>
<g id="a_node16"><a xlink:href="m__Do__main_8cpp.html" target="_top" xlink:title=" ">
<polygon fill="white" stroke="black" points="1105.5,-6 1105.5,-25 1236.5,-25 1236.5,-6 1105.5,-6"/>
<text text-anchor="middle" x="1171" y="-13" font-family="Helvetica,sans-Serif" font-size="10.00">src/m_Do/m_Do_main.cpp</text>
</a>
</g>
</g>
<!-- Node11&#45;&gt;Node16 -->
<g id="edge17" class="edge">
<title>Node11&#45;&gt;Node16</title>
<path fill="none" stroke="midnightblue" d="M973.61,-66.62C1024.35,-53.73 1095.95,-35.56 1137.52,-25"/>
<polygon fill="midnightblue" stroke="midnightblue" points="972.59,-63.27 963.75,-69.12 974.31,-70.05 972.59,-63.27"/>
</g>
</g>
</svg>
        <g id="navigator" transform="translate(0 0)" fill="#404254">
                <rect fill="#f2f5e9" fill-opacity="0.5" stroke="#606060" stroke-width=".5" x="0" y="0" width="60" height="60"/>
                <use id="zoomplus" xlink:href="#zoomPlus" x="17" y="9" onmousedown="handleZoom(evt,'in')"/>
                <use id="zoomminus" xlink:href="#zoomMin" x="42" y="9" onmousedown="handleZoom(evt,'out')"/>
                <use id="reset" xlink:href="#resetDef" x="30" y="36" onmousedown="handleReset()"/>
                <g id="arrowUp" xlink:href="#dirArrow" transform="translate(30 24)" onmousedown="handlePan(0,-1)">
                  <use xlink:href="#rim" fill="#404040">
                        <set attributeName="fill" to="#808080" begin="arrowUp.mouseover" end="arrowUp.mouseout"/>
                  </use>
                  <path fill="none" stroke="white" stroke-width="1.5" d="M0,-3.0v7 M-2.5,-0.5L0,-3.0L2.5,-0.5"/>
                </g>
                <g id="arrowRight" xlink:href="#dirArrow" transform="rotate(90) translate(36 -43)" onmousedown="handlePan(1,0)">
                  <use xlink:href="#rim" fill="#404040">
                        <set attributeName="fill" to="#808080" begin="arrowRight.mouseover" end="arrowRight.mouseout"/>
                  </use>
                  <path fill="none" stroke="white" stroke-width="1.5" d="M0,-3.0v7 M-2.5,-0.5L0,-3.0L2.5,-0.5"/>
                </g>
                <g id="arrowDown" xlink:href="#dirArrow" transform="rotate(180) translate(-30 -48)" onmousedown="handlePan(0,1)">
                  <use xlink:href="#rim" fill="#404040">
                        <set attributeName="fill" to="#808080" begin="arrowDown.mouseover" end="arrowDown.mouseout"/>
                  </use>
                  <path fill="none" stroke="white" stroke-width="1.5" d="M0,-3.0v7 M-2.5,-0.5L0,-3.0L2.5,-0.5"/>
                </g>
                <g id="arrowLeft" xlink:href="#dirArrow" transform="rotate(270) translate(-36 17)" onmousedown="handlePan(-1,0)">
                  <use xlink:href="#rim" fill="#404040">
                        <set attributeName="fill" to="#808080" begin="arrowLeft.mouseover" end="arrowLeft.mouseout"/>
                  </use>
                  <path fill="none" stroke="white" stroke-width="1.5" d="M0,-3.0v7 M-2.5,-0.5L0,-3.0L2.5,-0.5"/>
                </g>
        </g>
        <svg viewBox="0 0 15 15" width="100%" height="30px" preserveAspectRatio="xMaxYMin meet">
         <g id="arrow_out" transform="scale(0.3 0.3)">
          <a xlink:href="f__pc__create__iter_8h__dep__incl_org.svg" target="_base">
           <rect id="button" ry="5" rx="5" y="6" x="6" height="38" width="38"
                fill="#f2f5e9" fill-opacity="0.5" stroke="#606060" stroke-width="1.0"/>
           <path id="arrow"
             d="M 11.500037,31.436501 C 11.940474,20.09759 22.043105,11.32322 32.158766,21.979434 L 37.068811,17.246167 C 37.068811,17.246167 37.088388,32 37.088388,32 L 22.160133,31.978069 C 22.160133,31.978069 26.997745,27.140456 26.997745,27.140456 C 18.528582,18.264221 13.291696,25.230495 11.500037,31.436501 z"
             style="fill:#404040;"/>
          </a>
         </g>
        </svg>
</svg>
