<?xml version="1.0" encoding="UTF-8" standalone="no"?>
<!DOCTYPE svg PUBLIC "-//W3C//DTD SVG 1.1//EN"
 "http://www.w3.org/Graphics/SVG/1.1/DTD/svg11.dtd">
<!-- Generated by graphviz version 2.47.0 (20210316.2052)
 -->
<!-- Title: include/f/f_pc/f_pc_node.h Pages: 1 -->
<!--zoomable 307 -->
<svg id="main" version="1.1" xmlns="http://www.w3.org/2000/svg" xmlns:xlink="http://www.w3.org/1999/xlink" xml:space="preserve" onload="init(evt)">
<style type="text/css"><![CDATA[
.edge:hover path { stroke: red; }
.edge:hover polygon { stroke: red; fill: red; }
]]></style>
<script type="text/javascript"><![CDATA[
var edges = document.getElementsByTagName('g');
if (edges && edges.length) {
  for (var i=0;i<edges.length;i++) {
    if (edges[i].id.substr(0,4)=='edge') {
      edges[i].setAttribute('class','edge');
    }
  }
}
]]></script>
        <defs>
                <circle id="rim" cx="0" cy="0" r="7"/>
                <circle id="rim2" cx="0" cy="0" r="3.5"/>
                <g id="zoomPlus">
                        <use xlink:href="#rim" fill="#404040">
                                <set attributeName="fill" to="#808080" begin="zoomplus.mouseover" end="zoomplus.mouseout"/>
                        </use>
                        <path d="M-4,0h8M0,-4v8" fill="none" stroke="white" stroke-width="1.5" pointer-events="none"/>
                </g>
                <g id="zoomMin">
                        <use xlink:href="#rim" fill="#404040">
                                <set attributeName="fill" to="#808080" begin="zoomminus.mouseover" end="zoomminus.mouseout"/>
                        </use>
                        <path d="M-4,0h8" fill="none" stroke="white" stroke-width="1.5" pointer-events="none"/>
                </g>
                <g id="dirArrow">
                        <path fill="none" stroke="white" stroke-width="1.5" d="M0,-3.0v7 M-2.5,-0.5L0,-3.0L2.5,-0.5"/>
                </g>
               <g id="resetDef">
                       <use xlink:href="#rim2" fill="#404040">
                               <set attributeName="fill" to="#808080" begin="reset.mouseover" end="reset.mouseout"/>
                       </use>
               </g>
        </defs>

<script type="text/javascript">
var viewWidth = 1492;
var viewHeight = 307;
var sectionId = 'dynsection-1';
</script>
<script xlink:href="svgpan.js"/>
<svg id="graph" class="graph">
<g id="viewport">
<title>include/f/f_pc/f_pc_node.h</title>
<polygon fill="white" stroke="transparent" points="-4,4 -4,-303 1487.5,-303 1487.5,4 -4,4"/>
<!-- Node1 -->
<g id="node1" class="node">
<title>Node1</title>
<g id="a_node1"><a xlink:title=" ">
<polygon fill="#bfbfbf" stroke="black" points="390.5,-268.5 390.5,-298.5 487.5,-298.5 487.5,-268.5 390.5,-268.5"/>
<text text-anchor="start" x="398.5" y="-286.5" font-family="Helvetica,sans-Serif" font-size="10.00">include/f/f_pc/f_pc</text>
<text text-anchor="middle" x="439" y="-275.5" font-family="Helvetica,sans-Serif" font-size="10.00">_node.h</text>
</a>
</g>
</g>
<!-- Node2 -->
<g id="node2" class="node">
<title>Node2</title>
<g id="a_node2"><a xlink:href="f__pc__deletor_8cpp.html" target="_top" xlink:title=" ">
<polygon fill="white" stroke="black" points="164,-207 164,-226 296,-226 296,-207 164,-207"/>
<text text-anchor="middle" x="230" y="-214" font-family="Helvetica,sans-Serif" font-size="10.00">src/f/f_pc/f_pc_deletor.cpp</text>
</a>
</g>
</g>
<!-- Node1&#45;&gt;Node2 -->
<g id="edge1" class="edge">
<title>Node1&#45;&gt;Node2</title>
<path fill="none" stroke="midnightblue" d="M384.11,-265.43C343.36,-252.75 289.49,-236 257.42,-226.03"/>
<polygon fill="midnightblue" stroke="midnightblue" points="383.32,-268.85 393.91,-268.48 385.4,-262.16 383.32,-268.85"/>
</g>
<!-- Node3 -->
<g id="node3" class="node">
<title>Node3</title>
<g id="a_node3"><a xlink:href="f__pc__executor_8cpp.html" target="_top" xlink:title=" ">
<polygon fill="white" stroke="black" points="0,-140 0,-159 140,-159 140,-140 0,-140"/>
<text text-anchor="middle" x="70" y="-147" font-family="Helvetica,sans-Serif" font-size="10.00">src/f/f_pc/f_pc_executor.cpp</text>
</a>
</g>
</g>
<!-- Node1&#45;&gt;Node3 -->
<g id="edge2" class="edge">
<title>Node1&#45;&gt;Node3</title>
<path fill="none" stroke="midnightblue" d="M395.53,-264.16C377.09,-255.53 355.8,-244.41 338,-232 321.49,-220.49 322.82,-210.34 305,-201 288.42,-192.3 179.55,-170.97 115.97,-159"/>
<polygon fill="midnightblue" stroke="midnightblue" points="394.33,-267.46 404.88,-268.44 397.24,-261.09 394.33,-267.46"/>
</g>
<!-- Node4 -->
<g id="node4" class="node">
<title>Node4</title>
<g id="a_node4"><a xlink:href="f__pc__node_8cpp.html" target="_top" xlink:title=" ">
<polygon fill="white" stroke="black" points="705,-207 705,-226 829,-226 829,-207 705,-207"/>
<text text-anchor="middle" x="767" y="-214" font-family="Helvetica,sans-Serif" font-size="10.00">src/f/f_pc/f_pc_node.cpp</text>
</a>
</g>
</g>
<!-- Node1&#45;&gt;Node4 -->
<g id="edge3" class="edge">
<title>Node1&#45;&gt;Node4</title>
<path fill="none" stroke="midnightblue" d="M497.64,-271C549.53,-260.81 627.32,-245.49 695,-232 704.63,-230.08 714.98,-228 724.75,-226.04"/>
<polygon fill="midnightblue" stroke="midnightblue" points="496.75,-267.61 487.61,-272.97 498.1,-274.48 496.75,-267.61"/>
</g>
<!-- Node5 -->
<g id="node5" class="node">
<title>Node5</title>
<g id="a_node5"><a xlink:href="f__pc__pause_8cpp.html" target="_top" xlink:title=" ">
<polygon fill="white" stroke="black" points="158.5,-140 158.5,-159 287.5,-159 287.5,-140 158.5,-140"/>
<text text-anchor="middle" x="223" y="-147" font-family="Helvetica,sans-Serif" font-size="10.00">src/f/f_pc/f_pc_pause.cpp</text>
</a>
</g>
</g>
<!-- Node1&#45;&gt;Node5 -->
<g id="edge4" class="edge">
<title>Node1&#45;&gt;Node5</title>
<path fill="none" stroke="midnightblue" d="M414.74,-261.68C390.17,-240.83 353.65,-210.52 338,-201 308.56,-183.1 271.66,-168.06 247.71,-159.17"/>
<polygon fill="midnightblue" stroke="midnightblue" points="412.68,-264.52 422.56,-268.34 417.22,-259.19 412.68,-264.52"/>
</g>
<!-- Node6 -->
<g id="node6" class="node">
<title>Node6</title>
<g id="a_node6"><a xlink:href="f__pc__stdcreate__req_8cpp.html" target="_top" xlink:title=" ">
<polygon fill="white" stroke="black" points="847.5,-201.5 847.5,-231.5 972.5,-231.5 972.5,-201.5 847.5,-201.5"/>
<text text-anchor="start" x="855.5" y="-219.5" font-family="Helvetica,sans-Serif" font-size="10.00">src/f/f_pc/f_pc_stdcreate</text>
<text text-anchor="middle" x="910" y="-208.5" font-family="Helvetica,sans-Serif" font-size="10.00">_req.cpp</text>
</a>
</g>
</g>
<!-- Node1&#45;&gt;Node6 -->
<g id="edge5" class="edge">
<title>Node1&#45;&gt;Node6</title>
<path fill="none" stroke="midnightblue" d="M497.8,-276.41C575.79,-268.03 717.65,-251.71 838,-232 841.02,-231.51 844.11,-230.98 847.22,-230.42"/>
<polygon fill="midnightblue" stroke="midnightblue" points="497.26,-272.95 487.69,-277.49 498,-279.91 497.26,-272.95"/>
</g>
<!-- Node7 -->
<g id="node7" class="node">
<title>Node7</title>
<g id="a_node7"><a xlink:href="f__pc__pause_8h.html" target="_top" xlink:title=" ">
<polygon fill="white" stroke="black" points="390.5,-201.5 390.5,-231.5 487.5,-231.5 487.5,-201.5 390.5,-201.5"/>
<text text-anchor="start" x="398.5" y="-219.5" font-family="Helvetica,sans-Serif" font-size="10.00">include/f/f_pc/f_pc</text>
<text text-anchor="middle" x="439" y="-208.5" font-family="Helvetica,sans-Serif" font-size="10.00">_pause.h</text>
</a>
</g>
</g>
<!-- Node1&#45;&gt;Node7 -->
<g id="edge6" class="edge">
<title>Node1&#45;&gt;Node7</title>
<path fill="none" stroke="midnightblue" d="M439,-258.11C439,-249.15 439,-239.32 439,-231.58"/>
<polygon fill="midnightblue" stroke="midnightblue" points="435.5,-258.4 439,-268.4 442.5,-258.4 435.5,-258.4"/>
</g>
<!-- Node11 -->
<g id="node11" class="node">
<title>Node11</title>
<g id="a_node11"><a xlink:href="f__pc__node__req_8h.html" target="_top" xlink:title=" ">
<polygon fill="white" stroke="black" points="589.5,-201.5 589.5,-231.5 686.5,-231.5 686.5,-201.5 589.5,-201.5"/>
<text text-anchor="start" x="597.5" y="-219.5" font-family="Helvetica,sans-Serif" font-size="10.00">include/f/f_pc/f_pc</text>
<text text-anchor="middle" x="638" y="-208.5" font-family="Helvetica,sans-Serif" font-size="10.00">_node_req.h</text>
</a>
</g>
</g>
<!-- Node1&#45;&gt;Node11 -->
<g id="edge12" class="edge">
<title>Node1&#45;&gt;Node11</title>
<path fill="none" stroke="midnightblue" d="M491.88,-265.23C524.07,-254.71 564.67,-241.45 594.9,-231.58"/>
<polygon fill="midnightblue" stroke="midnightblue" points="490.6,-261.96 482.18,-268.4 492.77,-268.62 490.6,-261.96"/>
</g>
<!-- Node7&#45;&gt;Node3 -->
<g id="edge9" class="edge">
<title>Node7&#45;&gt;Node3</title>
<path fill="none" stroke="midnightblue" d="M380.31,-205.44C321.71,-195.36 229.08,-179.32 149,-165 138.29,-163.09 126.78,-160.99 115.94,-159"/>
<polygon fill="midnightblue" stroke="midnightblue" points="380.04,-208.95 390.49,-207.19 381.22,-202.05 380.04,-208.95"/>
</g>
<!-- Node7&#45;&gt;Node5 -->
<g id="edge11" class="edge">
<title>Node7&#45;&gt;Node5</title>
<path fill="none" stroke="midnightblue" d="M382.81,-198.59C340.62,-185.9 284.62,-169.04 251.34,-159.03"/>
<polygon fill="midnightblue" stroke="midnightblue" points="381.81,-201.95 392.4,-201.48 383.83,-195.24 381.81,-201.95"/>
</g>
<!-- Node8 -->
<g id="node8" class="node">
<title>Node8</title>
<g id="a_node8"><a xlink:href="f__pc__base_8cpp.html" target="_top" xlink:title=" ">
<polygon fill="white" stroke="black" points="306,-140 306,-159 430,-159 430,-140 306,-140"/>
<text text-anchor="middle" x="368" y="-147" font-family="Helvetica,sans-Serif" font-size="10.00">src/f/f_pc/f_pc_base.cpp</text>
</a>
</g>
</g>
<!-- Node7&#45;&gt;Node8 -->
<g id="edge7" class="edge">
<title>Node7&#45;&gt;Node8</title>
<path fill="none" stroke="midnightblue" d="M415.88,-194.34C402.85,-182.4 387.26,-168.14 377.5,-159.19"/>
<polygon fill="midnightblue" stroke="midnightblue" points="413.85,-197.22 423.59,-201.4 418.58,-192.06 413.85,-197.22"/>
</g>
<!-- Node9 -->
<g id="node9" class="node">
<title>Node9</title>
<g id="a_node9"><a xlink:href="f__pc__draw_8cpp.html" target="_top" xlink:title=" ">
<polygon fill="white" stroke="black" points="448,-140 448,-159 572,-159 572,-140 448,-140"/>
<text text-anchor="middle" x="510" y="-147" font-family="Helvetica,sans-Serif" font-size="10.00">src/f/f_pc/f_pc_draw.cpp</text>
</a>
</g>
</g>
<!-- Node7&#45;&gt;Node9 -->
<g id="edge8" class="edge">
<title>Node7&#45;&gt;Node9</title>
<path fill="none" stroke="midnightblue" d="M462.12,-194.34C475.15,-182.4 490.74,-168.14 500.5,-159.19"/>
<polygon fill="midnightblue" stroke="midnightblue" points="459.42,-192.06 454.41,-201.4 464.15,-197.22 459.42,-192.06"/>
</g>
<!-- Node10 -->
<g id="node10" class="node">
<title>Node10</title>
<g id="a_node10"><a xlink:href="f__pc__manager_8cpp.html" target="_top" xlink:title=" ">
<polygon fill="white" stroke="black" points="411,-73 411,-92 551,-92 551,-73 411,-73"/>
<text text-anchor="middle" x="481" y="-80" font-family="Helvetica,sans-Serif" font-size="10.00">src/f/f_pc/f_pc_manager.cpp</text>
</a>
</g>
</g>
<!-- Node7&#45;&gt;Node10 -->
<g id="edge10" class="edge">
<title>Node7&#45;&gt;Node10</title>
<path fill="none" stroke="midnightblue" d="M497.77,-210.34C527.91,-204.37 562.16,-191.7 581,-165 588.94,-153.74 588.22,-145.73 581,-134 567.44,-111.97 540.98,-99.2 518.68,-92.01"/>
<polygon fill="midnightblue" stroke="midnightblue" points="496.96,-206.93 487.73,-212.12 498.19,-213.82 496.96,-206.93"/>
</g>
<!-- Node11&#45;&gt;Node10 -->
<g id="edge14" class="edge">
<title>Node11&#45;&gt;Node10</title>
<path fill="none" stroke="midnightblue" d="M631.25,-191.57C625.13,-173.69 614.51,-149.72 598,-134 575.57,-112.64 542.68,-99.54 517.48,-92.05"/>
<polygon fill="midnightblue" stroke="midnightblue" points="627.97,-192.82 634.34,-201.28 634.64,-190.69 627.97,-192.82"/>
</g>
<!-- Node12 -->
<g id="node12" class="node">
<title>Node12</title>
<g id="a_node12"><a xlink:href="f__pc__node__req_8cpp.html" target="_top" xlink:title=" ">
<polygon fill="white" stroke="black" points="781,-134.5 781,-164.5 887,-164.5 887,-134.5 781,-134.5"/>
<text text-anchor="start" x="789" y="-152.5" font-family="Helvetica,sans-Serif" font-size="10.00">src/f/f_pc/f_pc_node</text>
<text text-anchor="middle" x="834" y="-141.5" font-family="Helvetica,sans-Serif" font-size="10.00">_req.cpp</text>
</a>
</g>
</g>
<!-- Node11&#45;&gt;Node12 -->
<g id="edge13" class="edge">
<title>Node11&#45;&gt;Node12</title>
<path fill="none" stroke="midnightblue" d="M690.08,-198.23C721.79,-187.71 761.78,-174.45 791.55,-164.58"/>
<polygon fill="midnightblue" stroke="midnightblue" points="688.92,-194.93 680.53,-201.4 691.12,-201.57 688.92,-194.93"/>
</g>
<!-- Node13 -->
<g id="node13" class="node">
<title>Node13</title>
<g id="a_node13"><a xlink:href="f__op__scene__req_8h.html" target="_top" xlink:title=" ">
<polygon fill="white" stroke="black" points="1250.5,-134.5 1250.5,-164.5 1347.5,-164.5 1347.5,-134.5 1250.5,-134.5"/>
<text text-anchor="start" x="1258.5" y="-152.5" font-family="Helvetica,sans-Serif" font-size="10.00">include/f/f_op/f_op</text>
<text text-anchor="middle" x="1299" y="-141.5" font-family="Helvetica,sans-Serif" font-size="10.00">_scene_req.h</text>
</a>
</g>
</g>
<!-- Node11&#45;&gt;Node13 -->
<g id="edge15" class="edge">
<title>Node11&#45;&gt;Node13</title>
<path fill="none" stroke="midnightblue" d="M696.65,-201.09C907.85,-166.79 1148.8,-155.44 1250.21,-151.92"/>
<polygon fill="midnightblue" stroke="midnightblue" points="695.91,-197.66 686.61,-202.74 697.05,-204.57 695.91,-197.66"/>
</g>
<!-- Node16 -->
<g id="node16" class="node">
<title>Node16</title>
<g id="a_node16"><a xlink:href="f__pc__manager_8h.html" target="_top" xlink:title=" ">
<polygon fill="white" stroke="black" points="666.5,-134.5 666.5,-164.5 763.5,-164.5 763.5,-134.5 666.5,-134.5"/>
<text text-anchor="start" x="674.5" y="-152.5" font-family="Helvetica,sans-Serif" font-size="10.00">include/f/f_pc/f_pc</text>
<text text-anchor="middle" x="715" y="-141.5" font-family="Helvetica,sans-Serif" font-size="10.00">_manager.h</text>
</a>
</g>
</g>
<!-- Node11&#45;&gt;Node16 -->
<g id="edge18" class="edge">
<title>Node11&#45;&gt;Node16</title>
<path fill="none" stroke="midnightblue" d="M662.42,-194.88C674.12,-185.01 687.84,-173.43 698.32,-164.58"/>
<polygon fill="midnightblue" stroke="midnightblue" points="660.09,-192.27 654.71,-201.4 664.61,-197.62 660.09,-192.27"/>
</g>
<!-- Node14 -->
<g id="node14" class="node">
<title>Node14</title>
<g id="a_node14"><a xlink:href="f__op__scene__mng_8cpp.html" target="_top" xlink:title=" ">
<polygon fill="white" stroke="black" points="1243.5,-67.5 1243.5,-97.5 1354.5,-97.5 1354.5,-67.5 1243.5,-67.5"/>
<text text-anchor="start" x="1251.5" y="-85.5" font-family="Helvetica,sans-Serif" font-size="10.00">src/f/f_op/f_op_scene</text>
<text text-anchor="middle" x="1299" y="-74.5" font-family="Helvetica,sans-Serif" font-size="10.00">_mng.cpp</text>
</a>
</g>
</g>
<!-- Node13&#45;&gt;Node14 -->
<g id="edge16" class="edge">
<title>Node13&#45;&gt;Node14</title>
<path fill="none" stroke="midnightblue" d="M1299,-124.11C1299,-115.15 1299,-105.32 1299,-97.58"/>
<polygon fill="midnightblue" stroke="midnightblue" points="1295.5,-124.4 1299,-134.4 1302.5,-124.4 1295.5,-124.4"/>
</g>
<!-- Node15 -->
<g id="node15" class="node">
<title>Node15</title>
<g id="a_node15"><a xlink:href="f__op__scene__req_8cpp.html" target="_top" xlink:title=" ">
<polygon fill="white" stroke="black" points="1372.5,-67.5 1372.5,-97.5 1483.5,-97.5 1483.5,-67.5 1372.5,-67.5"/>
<text text-anchor="start" x="1380.5" y="-85.5" font-family="Helvetica,sans-Serif" font-size="10.00">src/f/f_op/f_op_scene</text>
<text text-anchor="middle" x="1428" y="-74.5" font-family="Helvetica,sans-Serif" font-size="10.00">_req.cpp</text>
</a>
</g>
</g>
<!-- Node13&#45;&gt;Node15 -->
<g id="edge17" class="edge">
<title>Node13&#45;&gt;Node15</title>
<path fill="none" stroke="midnightblue" d="M1336.01,-129.85C1356.4,-119.58 1381.31,-107.03 1400.06,-97.58"/>
<polygon fill="midnightblue" stroke="midnightblue" points="1334.35,-126.77 1326.99,-134.4 1337.5,-133.02 1334.35,-126.77"/>
</g>
<!-- Node16&#45;&gt;Node10 -->
<g id="edge24" class="edge">
<title>Node16&#45;&gt;Node10</title>
<path fill="none" stroke="midnightblue" d="M656.41,-132.22C610.52,-119.48 548.5,-102.25 511.83,-92.06"/>
<polygon fill="midnightblue" stroke="midnightblue" points="655.66,-135.65 666.23,-134.95 657.53,-128.9 655.66,-135.65"/>
</g>
<!-- Node17 -->
<g id="node17" class="node">
<title>Node17</title>
<g id="a_node17"><a xlink:href="d__a__alink_8cpp.html" target="_top" xlink:title=" ">
<polygon fill="white" stroke="black" points="343.5,-6 343.5,-25 462.5,-25 462.5,-6 343.5,-6"/>
<text text-anchor="middle" x="403" y="-13" font-family="Helvetica,sans-Serif" font-size="10.00">src/d/d_a/d_a_alink.cpp</text>
</a>
</g>
</g>
<!-- Node16&#45;&gt;Node17 -->
<g id="edge19" class="edge">
<title>Node16&#45;&gt;Node17</title>
<path fill="none" stroke="midnightblue" d="M666.37,-130.64C645.06,-121.98 620.14,-110.71 599,-98 580.02,-86.6 579.52,-77.45 560,-67 522.39,-46.87 475.37,-33.06 442.64,-25.04"/>
<polygon fill="midnightblue" stroke="midnightblue" points="665.29,-133.98 675.88,-134.43 667.88,-127.47 665.29,-133.98"/>
</g>
<!-- Node18 -->
<g id="node18" class="node">
<title>Node18</title>
<g id="a_node18"><a xlink:href="f__ap__game_8cpp.html" target="_top" xlink:title=" ">
<polygon fill="white" stroke="black" points="722.5,-73 722.5,-92 827.5,-92 827.5,-73 722.5,-73"/>
<text text-anchor="middle" x="775" y="-80" font-family="Helvetica,sans-Serif" font-size="10.00">src/f/f_ap_game.cpp</text>
</a>
</g>
</g>
<!-- Node16&#45;&gt;Node18 -->
<g id="edge20" class="edge">
<title>Node16&#45;&gt;Node18</title>
<path fill="none" stroke="midnightblue" d="M734.85,-127C745.8,-115.13 758.8,-101.05 766.97,-92.19"/>
<polygon fill="midnightblue" stroke="midnightblue" points="732.23,-124.67 728.02,-134.4 737.37,-129.42 732.23,-124.67"/>
</g>
<!-- Node19 -->
<g id="node19" class="node">
<title>Node19</title>
<g id="a_node19"><a xlink:href="f__op__kankyo__mng_8cpp.html" target="_top" xlink:title=" ">
<polygon fill="white" stroke="black" points="846,-67.5 846,-97.5 962,-97.5 962,-67.5 846,-67.5"/>
<text text-anchor="start" x="854" y="-85.5" font-family="Helvetica,sans-Serif" font-size="10.00">src/f/f_op/f_op_kankyo</text>
<text text-anchor="middle" x="904" y="-74.5" font-family="Helvetica,sans-Serif" font-size="10.00">_mng.cpp</text>
</a>
</g>
</g>
<!-- Node16&#45;&gt;Node19 -->
<g id="edge21" class="edge">
<title>Node16&#45;&gt;Node19</title>
<path fill="none" stroke="midnightblue" d="M765.62,-131.09C796.13,-120.6 834.48,-107.41 863.07,-97.58"/>
<polygon fill="midnightblue" stroke="midnightblue" points="764.33,-127.83 756.01,-134.4 766.6,-134.45 764.33,-127.83"/>
</g>
<!-- Node20 -->
<g id="node20" class="node">
<title>Node20</title>
<g id="a_node20"><a xlink:href="f__op__overlap__req_8cpp.html" target="_top" xlink:title=" ">
<polygon fill="white" stroke="black" points="980,-67.5 980,-97.5 1096,-97.5 1096,-67.5 980,-67.5"/>
<text text-anchor="start" x="988" y="-85.5" font-family="Helvetica,sans-Serif" font-size="10.00">src/f/f_op/f_op_overlap</text>
<text text-anchor="middle" x="1038" y="-74.5" font-family="Helvetica,sans-Serif" font-size="10.00">_req.cpp</text>
</a>
</g>
</g>
<!-- Node16&#45;&gt;Node20 -->
<g id="edge22" class="edge">
<title>Node16&#45;&gt;Node20</title>
<path fill="none" stroke="midnightblue" d="M773.63,-133.72C861.53,-114.93 885.94,-114.89 971,-98 973.92,-97.42 976.91,-96.82 979.92,-96.2"/>
<polygon fill="midnightblue" stroke="midnightblue" points="772.8,-130.32 763.76,-135.86 774.28,-137.17 772.8,-130.32"/>
</g>
<!-- Node21 -->
<g id="node21" class="node">
<title>Node21</title>
<g id="a_node21"><a xlink:href="f__op__scene__pause_8cpp.html" target="_top" xlink:title=" ">
<polygon fill="white" stroke="black" points="1114.5,-67.5 1114.5,-97.5 1225.5,-97.5 1225.5,-67.5 1114.5,-67.5"/>
<text text-anchor="start" x="1122.5" y="-85.5" font-family="Helvetica,sans-Serif" font-size="10.00">src/f/f_op/f_op_scene</text>
<text text-anchor="middle" x="1170" y="-74.5" font-family="Helvetica,sans-Serif" font-size="10.00">_pause.cpp</text>
</a>
</g>
</g>
<!-- Node16&#45;&gt;Node21 -->
<g id="edge23" class="edge">
<title>Node16&#45;&gt;Node21</title>
<path fill="none" stroke="midnightblue" d="M773.98,-133.8C920.33,-108.22 961.42,-121.7 1105,-98 1108.08,-97.49 1111.23,-96.93 1114.41,-96.33"/>
<polygon fill="midnightblue" stroke="midnightblue" points="772.95,-130.43 763.72,-135.62 774.18,-137.32 772.95,-130.43"/>
</g>
<!-- Node22 -->
<g id="node22" class="node">
<title>Node22</title>
<g id="a_node22"><a xlink:href="f__op__actor__mng_8h.html" target="_top" xlink:title=" ">
<polygon fill="white" stroke="black" points="607.5,-67.5 607.5,-97.5 704.5,-97.5 704.5,-67.5 607.5,-67.5"/>
<text text-anchor="start" x="615.5" y="-85.5" font-family="Helvetica,sans-Serif" font-size="10.00">include/f/f_op/f_op</text>
<text text-anchor="middle" x="656" y="-74.5" font-family="Helvetica,sans-Serif" font-size="10.00">_actor_mng.h</text>
</a>
</g>
</g>
<!-- Node16&#45;&gt;Node22 -->
<g id="edge25" class="edge">
<title>Node16&#45;&gt;Node22</title>
<path fill="none" stroke="midnightblue" d="M695.25,-126.74C686.52,-117.12 676.5,-106.09 668.78,-97.58"/>
<polygon fill="midnightblue" stroke="midnightblue" points="692.89,-129.34 702.2,-134.4 698.07,-124.64 692.89,-129.34"/>
</g>
<!-- Node22&#45;&gt;Node17 -->
<g id="edge29" class="edge">
<title>Node22&#45;&gt;Node17</title>
<path fill="none" stroke="midnightblue" d="M597.5,-66.47C547.47,-53.62 477.25,-35.58 436.3,-25.06"/>
<polygon fill="midnightblue" stroke="midnightblue" points="596.66,-69.87 607.22,-68.97 598.4,-63.09 596.66,-69.87"/>
</g>
<!-- Node23 -->
<g id="node23" class="node">
<title>Node23</title>
<g id="a_node23"><a xlink:href="d__attention_8cpp.html" target="_top" xlink:title=" ">
<polygon fill="white" stroke="black" points="480.5,-6 480.5,-25 587.5,-25 587.5,-6 480.5,-6"/>
<text text-anchor="middle" x="534" y="-13" font-family="Helvetica,sans-Serif" font-size="10.00">src/d/d_attention.cpp</text>
</a>
</g>
</g>
<!-- Node22&#45;&gt;Node23 -->
<g id="edge26" class="edge">
<title>Node22&#45;&gt;Node23</title>
<path fill="none" stroke="midnightblue" d="M620.6,-62.64C597.26,-50.2 567.81,-34.51 549.97,-25.01"/>
<polygon fill="midnightblue" stroke="midnightblue" points="619.06,-65.78 629.53,-67.4 622.35,-59.6 619.06,-65.78"/>
</g>
<!-- Node24 -->
<g id="node24" class="node">
<title>Node24</title>
<g id="a_node24"><a xlink:href="d__camera_8cpp.html" target="_top" xlink:title=" ">
<polygon fill="white" stroke="black" points="605,-6 605,-25 707,-25 707,-6 605,-6"/>
<text text-anchor="middle" x="656" y="-13" font-family="Helvetica,sans-Serif" font-size="10.00">src/d/d_camera.cpp</text>
</a>
</g>
</g>
<!-- Node22&#45;&gt;Node24 -->
<g id="edge27" class="edge">
<title>Node22&#45;&gt;Node24</title>
<path fill="none" stroke="midnightblue" d="M656,-57.25C656,-46.02 656,-33.38 656,-25.19"/>
<polygon fill="midnightblue" stroke="midnightblue" points="652.5,-57.4 656,-67.4 659.5,-57.4 652.5,-57.4"/>
</g>
<!-- Node25 -->
<g id="node25" class="node">
<title>Node25</title>
<g id="a_node25"><a xlink:href="d__stage_8cpp.html" target="_top" xlink:title=" ">
<polygon fill="white" stroke="black" points="725,-6 725,-25 819,-25 819,-6 725,-6"/>
<text text-anchor="middle" x="772" y="-13" font-family="Helvetica,sans-Serif" font-size="10.00">src/d/d_stage.cpp</text>
</a>
</g>
</g>
<!-- Node22&#45;&gt;Node25 -->
<g id="edge28" class="edge">
<title>Node22&#45;&gt;Node25</title>
<path fill="none" stroke="midnightblue" d="M689.96,-62.47C712.1,-50.06 739.93,-34.47 756.82,-25.01"/>
<polygon fill="midnightblue" stroke="midnightblue" points="688.18,-59.45 681.17,-67.4 691.6,-65.56 688.18,-59.45"/>
</g>
<!-- Node26 -->
<g id="node26" class="node">
<title>Node26</title>
<g id="a_node26"><a xlink:href="f__op__actor__mng_8cpp.html" target="_top" xlink:title=" ">
<polygon fill="white" stroke="black" points="837.5,-0.5 837.5,-30.5 944.5,-30.5 944.5,-0.5 837.5,-0.5"/>
<text text-anchor="start" x="845.5" y="-18.5" font-family="Helvetica,sans-Serif" font-size="10.00">src/f/f_op/f_op_actor</text>
<text text-anchor="middle" x="891" y="-7.5" font-family="Helvetica,sans-Serif" font-size="10.00">_mng.cpp</text>
</a>
</g>
</g>
<!-- Node22&#45;&gt;Node26 -->
<g id="edge30" class="edge">
<title>Node22&#45;&gt;Node26</title>
<path fill="none" stroke="midnightblue" d="M714.76,-65.25C753.4,-54.56 803.46,-40.71 840.34,-30.51"/>
<polygon fill="midnightblue" stroke="midnightblue" points="713.4,-61.99 704.69,-68.03 715.26,-68.74 713.4,-61.99"/>
</g>
<!-- Node27 -->
<g id="node27" class="node">
<title>Node27</title>
<g id="a_node27"><a xlink:href="m__Do__main_8cpp.html" target="_top" xlink:title=" ">
<polygon fill="white" stroke="black" points="962.5,-6 962.5,-25 1093.5,-25 1093.5,-6 962.5,-6"/>
<text text-anchor="middle" x="1028" y="-13" font-family="Helvetica,sans-Serif" font-size="10.00">src/m_Do/m_Do_main.cpp</text>
</a>
</g>
</g>
<!-- Node22&#45;&gt;Node27 -->
<g id="edge31" class="edge">
<title>Node22&#45;&gt;Node27</title>
<path fill="none" stroke="midnightblue" d="M714.56,-67.01C821.48,-46.08 850.83,-48.84 954,-31 964.45,-29.19 975.69,-27.08 986.19,-25.03"/>
<polygon fill="midnightblue" stroke="midnightblue" points="713.79,-63.6 704.66,-68.98 715.15,-70.46 713.79,-63.6"/>
</g>
</g>
</svg>
        <g id="navigator" transform="translate(0 0)" fill="#404254">
                <rect fill="#f2f5e9" fill-opacity="0.5" stroke="#606060" stroke-width=".5" x="0" y="0" width="60" height="60"/>
                <use id="zoomplus" xlink:href="#zoomPlus" x="17" y="9" onmousedown="handleZoom(evt,'in')"/>
                <use id="zoomminus" xlink:href="#zoomMin" x="42" y="9" onmousedown="handleZoom(evt,'out')"/>
                <use id="reset" xlink:href="#resetDef" x="30" y="36" onmousedown="handleReset()"/>
                <g id="arrowUp" xlink:href="#dirArrow" transform="translate(30 24)" onmousedown="handlePan(0,-1)">
                  <use xlink:href="#rim" fill="#404040">
                        <set attributeName="fill" to="#808080" begin="arrowUp.mouseover" end="arrowUp.mouseout"/>
                  </use>
                  <path fill="none" stroke="white" stroke-width="1.5" d="M0,-3.0v7 M-2.5,-0.5L0,-3.0L2.5,-0.5"/>
                </g>
                <g id="arrowRight" xlink:href="#dirArrow" transform="rotate(90) translate(36 -43)" onmousedown="handlePan(1,0)">
                  <use xlink:href="#rim" fill="#404040">
                        <set attributeName="fill" to="#808080" begin="arrowRight.mouseover" end="arrowRight.mouseout"/>
                  </use>
                  <path fill="none" stroke="white" stroke-width="1.5" d="M0,-3.0v7 M-2.5,-0.5L0,-3.0L2.5,-0.5"/>
                </g>
                <g id="arrowDown" xlink:href="#dirArrow" transform="rotate(180) translate(-30 -48)" onmousedown="handlePan(0,1)">
                  <use xlink:href="#rim" fill="#404040">
                        <set attributeName="fill" to="#808080" begin="arrowDown.mouseover" end="arrowDown.mouseout"/>
                  </use>
                  <path fill="none" stroke="white" stroke-width="1.5" d="M0,-3.0v7 M-2.5,-0.5L0,-3.0L2.5,-0.5"/>
                </g>
                <g id="arrowLeft" xlink:href="#dirArrow" transform="rotate(270) translate(-36 17)" onmousedown="handlePan(-1,0)">
                  <use xlink:href="#rim" fill="#404040">
                        <set attributeName="fill" to="#808080" begin="arrowLeft.mouseover" end="arrowLeft.mouseout"/>
                  </use>
                  <path fill="none" stroke="white" stroke-width="1.5" d="M0,-3.0v7 M-2.5,-0.5L0,-3.0L2.5,-0.5"/>
                </g>
        </g>
        <svg viewBox="0 0 15 15" width="100%" height="30px" preserveAspectRatio="xMaxYMin meet">
         <g id="arrow_out" transform="scale(0.3 0.3)">
          <a xlink:href="f__pc__node_8h__dep__incl_org.svg" target="_base">
           <rect id="button" ry="5" rx="5" y="6" x="6" height="38" width="38"
                fill="#f2f5e9" fill-opacity="0.5" stroke="#606060" stroke-width="1.0"/>
           <path id="arrow"
             d="M 11.500037,31.436501 C 11.940474,20.09759 22.043105,11.32322 32.158766,21.979434 L 37.068811,17.246167 C 37.068811,17.246167 37.088388,32 37.088388,32 L 22.160133,31.978069 C 22.160133,31.978069 26.997745,27.140456 26.997745,27.140456 C 18.528582,18.264221 13.291696,25.230495 11.500037,31.436501 z"
             style="fill:#404040;"/>
          </a>
         </g>
        </svg>
</svg>
