<?xml version="1.0" encoding="UTF-8" standalone="no"?>
<!DOCTYPE svg PUBLIC "-//W3C//DTD SVG 1.1//EN"
 "http://www.w3.org/Graphics/SVG/1.1/DTD/svg11.dtd">
<!-- Generated by graphviz version 7.0.5 (20221223.1930)
 -->
<!-- Title: include/JSystem/JStudio/JStudio/functionvalue.h Pages: 1 -->
<!--zoomable 445 -->
<svg id="main" version="1.1" xmlns="http://www.w3.org/2000/svg" xmlns:xlink="http://www.w3.org/1999/xlink" xml:space="preserve" onload="init(evt)">
<style type="text/css"><![CDATA[
.edge:hover path { stroke: red; }
.edge:hover polygon { stroke: red; fill: red; }
]]></style>
<script type="text/javascript"><![CDATA[
var edges = document.getElementsByTagName('g');
if (edges && edges.length) {
  for (var i=0;i<edges.length;i++) {
    if (edges[i].id.substr(0,4)=='edge') {
      edges[i].setAttribute('class','edge');
    }
  }
}
]]></script>
        <defs>
                <circle id="rim" cx="0" cy="0" r="7"/>
                <circle id="rim2" cx="0" cy="0" r="3.5"/>
                <g id="zoomPlus">
                        <use xlink:href="#rim" fill="#404040">
                                <set attributeName="fill" to="#808080" begin="zoomplus.mouseover" end="zoomplus.mouseout"/>
                        </use>
                        <path d="M-4,0h8M0,-4v8" fill="none" stroke="white" stroke-width="1.5" pointer-events="none"/>
                </g>
                <g id="zoomMin">
                        <use xlink:href="#rim" fill="#404040">
                                <set attributeName="fill" to="#808080" begin="zoomminus.mouseover" end="zoomminus.mouseout"/>
                        </use>
                        <path d="M-4,0h8" fill="none" stroke="white" stroke-width="1.5" pointer-events="none"/>
                </g>
                <g id="dirArrow">
                        <path fill="none" stroke="white" stroke-width="1.5" d="M0,-3.0v7 M-2.5,-0.5L0,-3.0L2.5,-0.5"/>
                </g>
               <g id="resetDef">
                       <use xlink:href="#rim2" fill="#404040">
                               <set attributeName="fill" to="#808080" begin="reset.mouseover" end="reset.mouseout"/>
                       </use>
               </g>
        </defs>

<script type="text/javascript">
var viewWidth = 3943;
var viewHeight = 445;
var sectionId = 'dynsection-1';
</script>
<script xlink:href="svgpan.js"/>
<svg id="graph" class="graph">
<g id="viewport">
<title>include/JSystem/JStudio/JStudio/functionvalue.h</title>
<!-- Node1 -->
<g id="node1" class="node">
<title>Node1</title>
<g id="a_node1"><a xlink:title=" ">
<polygon fill="#999999" stroke="#666666" points="3191.5,-437 3066.5,-437 3066.5,-407 3191.5,-407 3191.5,-437"/>
<text text-anchor="start" x="3074.5" y="-425" font-family="Helvetica,sans-Serif" font-size="10.00">include/JSystem/JStudio</text>
<text text-anchor="middle" x="3129" y="-414" font-family="Helvetica,sans-Serif" font-size="10.00">/JStudio/functionvalue.h</text>
</a>
</g>
</g>
<!-- Node2 -->
<g id="node2" class="node">
<title>Node2</title>
<g id="a_node2"><a xlink:href="fvb-data_8h.html" target="_top" xlink:title=" ">
<polygon fill="white" stroke="#666666" points="3054.5,-365.5 2929.5,-365.5 2929.5,-335.5 3054.5,-335.5 3054.5,-365.5"/>
<text text-anchor="start" x="2937.5" y="-353.5" font-family="Helvetica,sans-Serif" font-size="10.00">include/JSystem/JStudio</text>
<text text-anchor="middle" x="2992" y="-342.5" font-family="Helvetica,sans-Serif" font-size="10.00">/JStudio/fvb&#45;data.h</text>
</a>
</g>
</g>
<!-- Node1&#45;&gt;Node2 -->
<g id="edge1" class="edge">
<title>Node1&#45;&gt;Node2</title>
<path fill="none" stroke="#63b8ff" d="M3090.47,-401.46C3068.19,-390.15 3040.64,-376.17 3020.35,-365.88"/>
<polygon fill="#63b8ff" stroke="#63b8ff" points="3088.76,-404.51 3099.26,-405.91 3091.93,-398.27 3088.76,-404.51"/>
</g>
<!-- Node85 -->
<g id="node49" class="node">
<title>Node85</title>
<g id="a_node49"><a xlink:href="functionvalue-inline_8cpp.html" target="_top" xlink:title=" ">
<polygon fill="white" stroke="#666666" points="3185.5,-371 3072.5,-371 3072.5,-330 3185.5,-330 3185.5,-371"/>
<text text-anchor="start" x="3080.5" y="-359" font-family="Helvetica,sans-Serif" font-size="10.00">libs/JSystem/JStudio</text>
<text text-anchor="start" x="3080.5" y="-348" font-family="Helvetica,sans-Serif" font-size="10.00">/JStudio/functionvalue</text>
<text text-anchor="middle" x="3129" y="-337" font-family="Helvetica,sans-Serif" font-size="10.00">&#45;inline.cpp</text>
</a>
</g>
</g>
<!-- Node1&#45;&gt;Node85 -->
<g id="edge53" class="edge">
<title>Node1&#45;&gt;Node85</title>
<path fill="none" stroke="#63b8ff" d="M3129,-395.36C3129,-387.45 3129,-378.87 3129,-371.42"/>
<polygon fill="#63b8ff" stroke="#63b8ff" points="3125.5,-395.09 3129,-405.09 3132.5,-395.09 3125.5,-395.09"/>
</g>
<!-- Node86 -->
<g id="node50" class="node">
<title>Node86</title>
<g id="a_node50"><a xlink:href="functionvalue_8cpp.html" target="_top" xlink:title=" ">
<polygon fill="white" stroke="#666666" points="3334.5,-365.5 3203.5,-365.5 3203.5,-335.5 3334.5,-335.5 3334.5,-365.5"/>
<text text-anchor="start" x="3211.5" y="-353.5" font-family="Helvetica,sans-Serif" font-size="10.00">libs/JSystem/JStudio</text>
<text text-anchor="middle" x="3269" y="-342.5" font-family="Helvetica,sans-Serif" font-size="10.00">/JStudio/functionvalue.cpp</text>
</a>
</g>
</g>
<!-- Node1&#45;&gt;Node86 -->
<g id="edge54" class="edge">
<title>Node1&#45;&gt;Node86</title>
<path fill="none" stroke="#63b8ff" d="M3168.06,-401.61C3190.88,-390.28 3219.2,-376.22 3240.03,-365.88"/>
<polygon fill="#63b8ff" stroke="#63b8ff" points="3166.76,-398.35 3159.36,-405.93 3169.88,-404.61 3166.76,-398.35"/>
</g>
<!-- Node3 -->
<g id="node3" class="node">
<title>Node3</title>
<g id="a_node3"><a xlink:href="resource_8h.html" target="_top" xlink:title=" ">
<polygon fill="white" stroke="#666666" points="2839.5,-294 2702.5,-294 2702.5,-264 2839.5,-264 2839.5,-294"/>
<text text-anchor="start" x="2710.5" y="-282" font-family="Helvetica,sans-Serif" font-size="10.00">include/JSystem/JMessage</text>
<text text-anchor="middle" x="2771" y="-271" font-family="Helvetica,sans-Serif" font-size="10.00">/resource.h</text>
</a>
</g>
</g>
<!-- Node2&#45;&gt;Node3 -->
<g id="edge2" class="edge">
<title>Node2&#45;&gt;Node3</title>
<path fill="none" stroke="#63b8ff" d="M2935.39,-331.7C2898.66,-320.15 2851.41,-305.29 2817,-294.47"/>
<polygon fill="#63b8ff" stroke="#63b8ff" points="2933.91,-334.9 2944.5,-334.56 2936.01,-328.22 2933.91,-334.9"/>
</g>
<!-- Node51 -->
<g id="node41" class="node">
<title>Node51</title>
<g id="a_node41"><a xlink:href="fvb-data-parse_8h.html" target="_top" xlink:title=" ">
<polygon fill="white" stroke="#666666" points="3054.5,-294 2929.5,-294 2929.5,-264 3054.5,-264 3054.5,-294"/>
<text text-anchor="start" x="2937.5" y="-282" font-family="Helvetica,sans-Serif" font-size="10.00">include/JSystem/JStudio</text>
<text text-anchor="middle" x="2992" y="-271" font-family="Helvetica,sans-Serif" font-size="10.00">/JStudio/fvb&#45;data&#45;parse.h</text>
</a>
</g>
</g>
<!-- Node2&#45;&gt;Node51 -->
<g id="edge45" class="edge">
<title>Node2&#45;&gt;Node51</title>
<path fill="none" stroke="#63b8ff" d="M2992,-323.76C2992,-313.83 2992,-302.86 2992,-294.38"/>
<polygon fill="#63b8ff" stroke="#63b8ff" points="2988.5,-323.59 2992,-333.59 2995.5,-323.59 2988.5,-323.59"/>
</g>
<!-- Node84 -->
<g id="node48" class="node">
<title>Node84</title>
<g id="a_node48"><a xlink:href="fvb-data_8cpp.html" target="_top" xlink:title=" ">
<polygon fill="white" stroke="#666666" points="3181.5,-294 3072.5,-294 3072.5,-264 3181.5,-264 3181.5,-294"/>
<text text-anchor="start" x="3080.5" y="-282" font-family="Helvetica,sans-Serif" font-size="10.00">libs/JSystem/JStudio</text>
<text text-anchor="middle" x="3127" y="-271" font-family="Helvetica,sans-Serif" font-size="10.00">/JStudio/fvb&#45;data.cpp</text>
</a>
</g>
</g>
<!-- Node2&#45;&gt;Node84 -->
<g id="edge52" class="edge">
<title>Node2&#45;&gt;Node84</title>
<path fill="none" stroke="#63b8ff" d="M3029.96,-329.96C3051.92,-318.65 3079.07,-304.67 3099.06,-294.38"/>
<polygon fill="#63b8ff" stroke="#63b8ff" points="3028.61,-326.72 3021.32,-334.41 3031.81,-332.94 3028.61,-326.72"/>
</g>
<!-- Node4 -->
<g id="node4" class="node">
<title>Node4</title>
<g id="a_node4"><a xlink:href="processor_8h.html" target="_top" xlink:title=" ">
<polygon fill="white" stroke="#666666" points="2766.5,-228 2629.5,-228 2629.5,-198 2766.5,-198 2766.5,-228"/>
<text text-anchor="start" x="2637.5" y="-216" font-family="Helvetica,sans-Serif" font-size="10.00">include/JSystem/JMessage</text>
<text text-anchor="middle" x="2698" y="-205" font-family="Helvetica,sans-Serif" font-size="10.00">/processor.h</text>
</a>
</g>
</g>
<!-- Node3&#45;&gt;Node4 -->
<g id="edge3" class="edge">
<title>Node3&#45;&gt;Node4</title>
<path fill="none" stroke="#63b8ff" d="M2746.39,-256.42C2735.85,-247.18 2723.83,-236.65 2714.41,-228.39"/>
<polygon fill="#63b8ff" stroke="#63b8ff" points="2743.83,-258.84 2753.66,-262.8 2748.45,-253.57 2743.83,-258.84"/>
</g>
<!-- Node37 -->
<g id="node28" class="node">
<title>Node37</title>
<g id="a_node28"><a xlink:href="d__msg__string__base_8h.html" target="_top" xlink:title=" ">
<polygon fill="white" stroke="#666666" points="1516,-162 1406,-162 1406,-132 1516,-132 1516,-162"/>
<text text-anchor="start" x="1414" y="-150" font-family="Helvetica,sans-Serif" font-size="10.00">include/d/msg/d_msg</text>
<text text-anchor="middle" x="1461" y="-139" font-family="Helvetica,sans-Serif" font-size="10.00">_string_base.h</text>
</a>
</g>
</g>
<!-- Node3&#45;&gt;Node37 -->
<g id="edge30" class="edge">
<title>Node3&#45;&gt;Node37</title>
<path fill="none" stroke="#63b8ff" d="M2691.23,-270.08C2448.54,-246 1723.13,-174.01 1516.49,-153.51"/>
<polygon fill="#63b8ff" stroke="#63b8ff" points="2690.61,-273.54 2700.91,-271.04 2691.3,-266.57 2690.61,-273.54"/>
</g>
<!-- Node50 -->
<g id="node40" class="node">
<title>Node50</title>
<g id="a_node40"><a xlink:href="resource_8cpp.html" target="_top" xlink:title=" ">
<polygon fill="white" stroke="#666666" points="2905.5,-228 2784.5,-228 2784.5,-198 2905.5,-198 2905.5,-228"/>
<text text-anchor="start" x="2792.5" y="-216" font-family="Helvetica,sans-Serif" font-size="10.00">libs/JSystem/JMessage</text>
<text text-anchor="middle" x="2845" y="-205" font-family="Helvetica,sans-Serif" font-size="10.00">/resource.cpp</text>
</a>
</g>
</g>
<!-- Node3&#45;&gt;Node50 -->
<g id="edge44" class="edge">
<title>Node3&#45;&gt;Node50</title>
<path fill="none" stroke="#63b8ff" d="M2795.95,-256.42C2806.63,-247.18 2818.81,-236.65 2828.37,-228.39"/>
<polygon fill="#63b8ff" stroke="#63b8ff" points="2793.84,-253.62 2788.57,-262.81 2798.42,-258.91 2793.84,-253.62"/>
</g>
<!-- Node5 -->
<g id="node5" class="node">
<title>Node5</title>
<g id="a_node5"><a xlink:href="JMessage_2control_8h.html" target="_top" xlink:title=" ">
<polygon fill="white" stroke="#666666" points="2766.5,-162 2629.5,-162 2629.5,-132 2766.5,-132 2766.5,-162"/>
<text text-anchor="start" x="2637.5" y="-150" font-family="Helvetica,sans-Serif" font-size="10.00">include/JSystem/JMessage</text>
<text text-anchor="middle" x="2698" y="-139" font-family="Helvetica,sans-Serif" font-size="10.00">/control.h</text>
</a>
</g>
</g>
<!-- Node4&#45;&gt;Node5 -->
<g id="edge4" class="edge">
<title>Node4&#45;&gt;Node5</title>
<path fill="none" stroke="#63b8ff" d="M2698,-186.39C2698,-178.13 2698,-169.28 2698,-162.16"/>
<polygon fill="#63b8ff" stroke="#63b8ff" points="2694.5,-186.28 2698,-196.28 2701.5,-186.28 2694.5,-186.28"/>
</g>
<!-- Node36 -->
<g id="node27" class="node">
<title>Node36</title>
<g id="a_node27"><a xlink:href="processor_8cpp.html" target="_top" xlink:title=" ">
<polygon fill="white" stroke="#666666" points="2975.5,-96 2854.5,-96 2854.5,-66 2975.5,-66 2975.5,-96"/>
<text text-anchor="start" x="2862.5" y="-84" font-family="Helvetica,sans-Serif" font-size="10.00">libs/JSystem/JMessage</text>
<text text-anchor="middle" x="2915" y="-73" font-family="Helvetica,sans-Serif" font-size="10.00">/processor.cpp</text>
</a>
</g>
</g>
<!-- Node4&#45;&gt;Node36 -->
<g id="edge29" class="edge">
<title>Node4&#45;&gt;Node36</title>
<path fill="none" stroke="#63b8ff" d="M2731.74,-191.78C2775.86,-165.35 2852.07,-119.7 2890.84,-96.47"/>
<polygon fill="#63b8ff" stroke="#63b8ff" points="2730.13,-188.67 2723.35,-196.81 2733.73,-194.68 2730.13,-188.67"/>
</g>
<!-- Node6 -->
<g id="node6" class="node">
<title>Node6</title>
<g id="a_node6"><a xlink:href="d__msg__class_8h.html" target="_top" xlink:title=" ">
<polygon fill="white" stroke="#666666" points="1946,-96 1836,-96 1836,-66 1946,-66 1946,-96"/>
<text text-anchor="start" x="1844" y="-84" font-family="Helvetica,sans-Serif" font-size="10.00">include/d/msg/d_msg</text>
<text text-anchor="middle" x="1891" y="-73" font-family="Helvetica,sans-Serif" font-size="10.00">_class.h</text>
</a>
</g>
</g>
<!-- Node5&#45;&gt;Node6 -->
<g id="edge5" class="edge">
<title>Node5&#45;&gt;Node6</title>
<path fill="none" stroke="#63b8ff" d="M2617.78,-139.64C2454.26,-126.67 2086.04,-97.47 1946.25,-86.38"/>
<polygon fill="#63b8ff" stroke="#63b8ff" points="2617.44,-143.12 2627.69,-140.42 2617.99,-136.14 2617.44,-143.12"/>
</g>
<!-- Node10 -->
<g id="node10" class="node">
<title>Node10</title>
<g id="a_node10"><a xlink:href="d__msg__object_8h.html" target="_top" xlink:title=" ">
<polygon fill="#fff0f0" stroke="red" points="2697,-96 2587,-96 2587,-66 2697,-66 2697,-96"/>
<text text-anchor="start" x="2595" y="-84" font-family="Helvetica,sans-Serif" font-size="10.00">include/d/msg/d_msg</text>
<text text-anchor="middle" x="2642" y="-73" font-family="Helvetica,sans-Serif" font-size="10.00">_object.h</text>
</a>
</g>
</g>
<!-- Node5&#45;&gt;Node10 -->
<g id="edge9" class="edge">
<title>Node5&#45;&gt;Node10</title>
<path fill="none" stroke="#63b8ff" d="M2678.09,-123.24C2670.19,-114.21 2661.35,-104.11 2654.39,-96.16"/>
<polygon fill="#63b8ff" stroke="#63b8ff" points="2675.36,-125.44 2684.58,-130.66 2680.62,-120.83 2675.36,-125.44"/>
</g>
<!-- Node35 -->
<g id="node26" class="node">
<title>Node35</title>
<g id="a_node26"><a xlink:href="JMessage_2control_8cpp.html" target="_top" xlink:title=" ">
<polygon fill="white" stroke="#666666" points="2836.5,-96 2715.5,-96 2715.5,-66 2836.5,-66 2836.5,-96"/>
<text text-anchor="start" x="2723.5" y="-84" font-family="Helvetica,sans-Serif" font-size="10.00">libs/JSystem/JMessage</text>
<text text-anchor="middle" x="2776" y="-73" font-family="Helvetica,sans-Serif" font-size="10.00">/control.cpp</text>
</a>
</g>
</g>
<!-- Node5&#45;&gt;Node35 -->
<g id="edge27" class="edge">
<title>Node5&#45;&gt;Node35</title>
<path fill="none" stroke="#63b8ff" d="M2723.96,-124.7C2735.3,-115.4 2748.3,-104.73 2758.47,-96.39"/>
<polygon fill="#63b8ff" stroke="#63b8ff" points="2721.99,-121.79 2716.48,-130.84 2726.43,-127.2 2721.99,-121.79"/>
</g>
<!-- Node5&#45;&gt;Node36 -->
<g id="edge28" class="edge">
<title>Node5&#45;&gt;Node36</title>
<path fill="none" stroke="#63b8ff" d="M2757.74,-128.38C2791.86,-118.32 2834.1,-105.86 2866.21,-96.39"/>
<polygon fill="#63b8ff" stroke="#63b8ff" points="2757.02,-124.94 2748.42,-131.13 2759,-131.66 2757.02,-124.94"/>
</g>
<!-- Node7 -->
<g id="node7" class="node">
<title>Node7</title>
<g id="a_node7"><a xlink:href="d__menu__option_8cpp.html" target="_top" xlink:title=" ">
<polygon fill="white" stroke="#666666" points="1599,-24.5 1447,-24.5 1447,-5.5 1599,-5.5 1599,-24.5"/>
<text text-anchor="middle" x="1523" y="-12.5" font-family="Helvetica,sans-Serif" font-size="10.00">src/d/menu/d_menu_option.cpp</text>
</a>
</g>
</g>
<!-- Node6&#45;&gt;Node7 -->
<g id="edge6" class="edge">
<title>Node6&#45;&gt;Node7</title>
<path fill="none" stroke="#63b8ff" d="M1824.35,-68.41C1752.53,-55.92 1639.79,-36.31 1574.48,-24.95"/>
<polygon fill="#63b8ff" stroke="#63b8ff" points="1823.57,-71.82 1834.02,-70.09 1824.76,-64.93 1823.57,-71.82"/>
</g>
<!-- Node8 -->
<g id="node8" class="node">
<title>Node8</title>
<g id="a_node8"><a xlink:href="d__msg__class_8cpp.html" target="_top" xlink:title=" ">
<polygon fill="white" stroke="#666666" points="1880.5,-24.5 1741.5,-24.5 1741.5,-5.5 1880.5,-5.5 1880.5,-24.5"/>
<text text-anchor="middle" x="1811" y="-12.5" font-family="Helvetica,sans-Serif" font-size="10.00">src/d/msg/d_msg_class.cpp</text>
</a>
</g>
</g>
<!-- Node6&#45;&gt;Node8 -->
<g id="edge7" class="edge">
<title>Node6&#45;&gt;Node8</title>
<path fill="none" stroke="#63b8ff" d="M1864.66,-58.93C1850.19,-47.35 1833.01,-33.61 1822.06,-24.84"/>
<polygon fill="#63b8ff" stroke="#63b8ff" points="1862.07,-61.34 1872.06,-64.85 1866.44,-55.87 1862.07,-61.34"/>
</g>
<!-- Node9 -->
<g id="node9" class="node">
<title>Node9</title>
<g id="a_node9"><a xlink:href="d__msg__object_8cpp.html" target="_top" xlink:title=" ">
<polygon fill="white" stroke="#666666" points="2041,-24.5 1899,-24.5 1899,-5.5 2041,-5.5 2041,-24.5"/>
<text text-anchor="middle" x="1970" y="-12.5" font-family="Helvetica,sans-Serif" font-size="10.00">src/d/msg/d_msg_object.cpp</text>
</a>
</g>
</g>
<!-- Node6&#45;&gt;Node9 -->
<g id="edge8" class="edge">
<title>Node6&#45;&gt;Node9</title>
<path fill="none" stroke="#63b8ff" d="M1917.41,-58.6C1931.62,-47.1 1948.37,-33.52 1959.08,-24.84"/>
<polygon fill="#63b8ff" stroke="#63b8ff" points="1915.28,-55.83 1909.71,-64.84 1919.68,-61.27 1915.28,-55.83"/>
</g>
<!-- Node10&#45;&gt;Node8 -->
<g id="edge20" class="edge">
<title>Node10&#45;&gt;Node8</title>
<path fill="none" stroke="#63b8ff" d="M2575.17,-78C2443.6,-73.53 2141.85,-60.6 1890,-30 1879.21,-28.69 1867.67,-26.88 1856.82,-24.99"/>
<polygon fill="#63b8ff" stroke="#63b8ff" points="2574.99,-81.5 2585.1,-78.33 2575.22,-74.5 2574.99,-81.5"/>
</g>
<!-- Node10&#45;&gt;Node9 -->
<g id="edge22" class="edge">
<title>Node10&#45;&gt;Node9</title>
<path fill="none" stroke="#63b8ff" d="M2575.53,-76.32C2465.78,-69.81 2239.93,-54.59 2050,-30 2039.37,-28.62 2028,-26.83 2017.27,-24.99"/>
<polygon fill="#63b8ff" stroke="#63b8ff" points="2575.04,-79.8 2585.22,-76.89 2575.45,-72.81 2575.04,-79.8"/>
</g>
<!-- Node11 -->
<g id="node11" class="node">
<title>Node11</title>
<g id="a_node11"><a xlink:href="d__timer_8h.html" target="_top" xlink:title=" ">
<polygon fill="#fff0f0" stroke="red" points="2327,-24.5 2229,-24.5 2229,-5.5 2327,-5.5 2327,-24.5"/>
<text text-anchor="middle" x="2278" y="-12.5" font-family="Helvetica,sans-Serif" font-size="10.00">include/d/d_timer.h</text>
</a>
</g>
</g>
<!-- Node10&#45;&gt;Node11 -->
<g id="edge10" class="edge">
<title>Node10&#45;&gt;Node11</title>
<path fill="none" stroke="#63b8ff" d="M2575.56,-70.61C2513.4,-61.48 2418.08,-46.59 2336,-30 2328.59,-28.5 2320.69,-26.72 2313.18,-24.94"/>
<polygon fill="#63b8ff" stroke="#63b8ff" points="2574.87,-74.05 2585.28,-72.03 2575.89,-67.12 2574.87,-74.05"/>
</g>
<!-- Node15 -->
<g id="node12" class="node">
<title>Node15</title>
<g id="a_node12"><a xlink:href="d__a__alink_8cpp.html" target="_top" xlink:title=" ">
<polygon fill="white" stroke="#666666" points="2454.5,-24.5 2345.5,-24.5 2345.5,-5.5 2454.5,-5.5 2454.5,-24.5"/>
<text text-anchor="middle" x="2400" y="-12.5" font-family="Helvetica,sans-Serif" font-size="10.00">src/d/a/d_a_alink.cpp</text>
</a>
</g>
</g>
<!-- Node10&#45;&gt;Node15 -->
<g id="edge11" class="edge">
<title>Node10&#45;&gt;Node15</title>
<path fill="none" stroke="#63b8ff" d="M2576.3,-62.63C2530.28,-50.46 2470.67,-34.69 2433.89,-24.96"/>
<polygon fill="#63b8ff" stroke="#63b8ff" points="2575.36,-66 2585.93,-65.17 2577.15,-59.23 2575.36,-66"/>
</g>
<!-- Node16 -->
<g id="node13" class="node">
<title>Node16</title>
<g id="a_node13"><a xlink:href="d__a__npc_8cpp.html" target="_top" xlink:title=" ">
<polygon fill="white" stroke="#666666" points="2577,-24.5 2473,-24.5 2473,-5.5 2577,-5.5 2577,-24.5"/>
<text text-anchor="middle" x="2525" y="-12.5" font-family="Helvetica,sans-Serif" font-size="10.00">src/d/a/d_a_npc.cpp</text>
</a>
</g>
</g>
<!-- Node10&#45;&gt;Node16 -->
<g id="edge12" class="edge">
<title>Node10&#45;&gt;Node16</title>
<path fill="none" stroke="#63b8ff" d="M2605.93,-60.27C2584.39,-48.49 2558.08,-34.1 2541.43,-24.99"/>
<polygon fill="#63b8ff" stroke="#63b8ff" points="2603.96,-63.18 2614.42,-64.91 2607.32,-57.04 2603.96,-63.18"/>
</g>
<!-- Node17 -->
<g id="node14" class="node">
<title>Node17</title>
<g id="a_node14"><a xlink:href="d__demo_8cpp.html" target="_top" xlink:title=" ">
<polygon fill="white" stroke="#666666" points="2689,-24.5 2595,-24.5 2595,-5.5 2689,-5.5 2689,-24.5"/>
<text text-anchor="middle" x="2642" y="-12.5" font-family="Helvetica,sans-Serif" font-size="10.00">src/d/d_demo.cpp</text>
</a>
</g>
</g>
<!-- Node10&#45;&gt;Node17 -->
<g id="edge13" class="edge">
<title>Node10&#45;&gt;Node17</title>
<path fill="none" stroke="#63b8ff" d="M2642,-54.59C2642,-44.06 2642,-32.53 2642,-24.84"/>
<polygon fill="#63b8ff" stroke="#63b8ff" points="2638.5,-54.28 2642,-64.28 2645.5,-54.28 2638.5,-54.28"/>
</g>
<!-- Node18 -->
<g id="node15" class="node">
<title>Node18</title>
<g id="a_node15"><a xlink:href="d__event_8cpp.html" target="_top" xlink:title=" ">
<polygon fill="white" stroke="#666666" points="2828.5,-24.5 2707.5,-24.5 2707.5,-5.5 2828.5,-5.5 2828.5,-24.5"/>
<text text-anchor="middle" x="2768" y="-12.5" font-family="Helvetica,sans-Serif" font-size="10.00">src/d/event/d_event.cpp</text>
</a>
</g>
</g>
<!-- Node10&#45;&gt;Node18 -->
<g id="edge14" class="edge">
<title>Node10&#45;&gt;Node18</title>
<path fill="none" stroke="#63b8ff" d="M2680.53,-60.43C2703.78,-48.62 2732.29,-34.14 2750.31,-24.99"/>
<polygon fill="#63b8ff" stroke="#63b8ff" points="2678.96,-57.3 2671.63,-64.95 2682.13,-63.54 2678.96,-57.3"/>
</g>
<!-- Node19 -->
<g id="node16" class="node">
<title>Node19</title>
<g id="a_node16"><a xlink:href="d__event__data_8cpp.html" target="_top" xlink:title=" ">
<polygon fill="white" stroke="#666666" points="2949.5,-30 2846.5,-30 2846.5,0 2949.5,0 2949.5,-30"/>
<text text-anchor="start" x="2854.5" y="-18" font-family="Helvetica,sans-Serif" font-size="10.00">src/d/event/d_event</text>
<text text-anchor="middle" x="2898" y="-7" font-family="Helvetica,sans-Serif" font-size="10.00">_data.cpp</text>
</a>
</g>
</g>
<!-- Node10&#45;&gt;Node19 -->
<g id="edge15" class="edge">
<title>Node10&#45;&gt;Node19</title>
<path fill="none" stroke="#63b8ff" d="M2708.18,-63.46C2751.23,-52.69 2806.55,-38.86 2846.35,-28.91"/>
<polygon fill="#63b8ff" stroke="#63b8ff" points="2707.55,-60 2698.7,-65.82 2709.25,-66.79 2707.55,-60"/>
</g>
<!-- Node20 -->
<g id="node17" class="node">
<title>Node20</title>
<g id="a_node17"><a xlink:href="d__kankyo_8cpp.html" target="_top" xlink:title=" ">
<polygon fill="white" stroke="#666666" points="3102,-24.5 2968,-24.5 2968,-5.5 3102,-5.5 3102,-24.5"/>
<text text-anchor="middle" x="3035" y="-12.5" font-family="Helvetica,sans-Serif" font-size="10.00">src/d/kankyo/d_kankyo.cpp</text>
</a>
</g>
</g>
<!-- Node10&#45;&gt;Node20 -->
<g id="edge16" class="edge">
<title>Node10&#45;&gt;Node20</title>
<path fill="none" stroke="#63b8ff" d="M2708.77,-65.58C2819.29,-46.02 2849.92,-47.54 2958,-30 2967.52,-28.45 2977.69,-26.69 2987.4,-24.95"/>
<polygon fill="#63b8ff" stroke="#63b8ff" points="2708.17,-62.13 2698.94,-67.34 2709.4,-69.02 2708.17,-62.13"/>
</g>
<!-- Node21 -->
<g id="node18" class="node">
<title>Node21</title>
<g id="a_node18"><a xlink:href="d__menu__window_8cpp.html" target="_top" xlink:title=" ">
<polygon fill="white" stroke="#666666" points="3279.5,-24.5 3120.5,-24.5 3120.5,-5.5 3279.5,-5.5 3279.5,-24.5"/>
<text text-anchor="middle" x="3200" y="-12.5" font-family="Helvetica,sans-Serif" font-size="10.00">src/d/menu/d_menu_window.cpp</text>
</a>
</g>
</g>
<!-- Node10&#45;&gt;Node21 -->
<g id="edge17" class="edge">
<title>Node10&#45;&gt;Node21</title>
<path fill="none" stroke="#63b8ff" d="M2708.77,-65.71C2886.61,-39.17 2935.32,-51.6 3111,-30 3122.64,-28.57 3135.1,-26.77 3146.9,-24.95"/>
<polygon fill="#63b8ff" stroke="#63b8ff" points="2708.28,-62.24 2698.92,-67.2 2709.33,-69.16 2708.28,-62.24"/>
</g>
<!-- Node22 -->
<g id="node19" class="node">
<title>Node22</title>
<g id="a_node19"><a xlink:href="d__meter2__draw_8cpp.html" target="_top" xlink:title=" ">
<polygon fill="white" stroke="#666666" points="3408,-30 3298,-30 3298,0 3408,0 3408,-30"/>
<text text-anchor="start" x="3306" y="-18" font-family="Helvetica,sans-Serif" font-size="10.00">src/d/meter/d_meter2</text>
<text text-anchor="middle" x="3353" y="-7" font-family="Helvetica,sans-Serif" font-size="10.00">_draw.cpp</text>
</a>
</g>
</g>
<!-- Node10&#45;&gt;Node22 -->
<g id="edge18" class="edge">
<title>Node10&#45;&gt;Node22</title>
<path fill="none" stroke="#63b8ff" d="M2708.58,-65.8C2965.1,-31.15 3035.52,-65.34 3289,-30 3291.82,-29.61 3294.69,-29.16 3297.59,-28.67"/>
<polygon fill="#63b8ff" stroke="#63b8ff" points="2708.34,-62.3 2698.91,-67.13 2709.29,-69.23 2708.34,-62.3"/>
</g>
<!-- Node23 -->
<g id="node20" class="node">
<title>Node23</title>
<g id="a_node20"><a xlink:href="d__meter__map_8cpp.html" target="_top" xlink:title=" ">
<polygon fill="white" stroke="#666666" points="3530,-30 3426,-30 3426,0 3530,0 3530,-30"/>
<text text-anchor="start" x="3434" y="-18" font-family="Helvetica,sans-Serif" font-size="10.00">src/d/meter/d_meter</text>
<text text-anchor="middle" x="3478" y="-7" font-family="Helvetica,sans-Serif" font-size="10.00">_map.cpp</text>
</a>
</g>
</g>
<!-- Node10&#45;&gt;Node23 -->
<g id="edge19" class="edge">
<title>Node10&#45;&gt;Node23</title>
<path fill="none" stroke="#63b8ff" d="M2708.63,-65.81C3021.61,-25.2 3107.28,-73.04 3417,-30 3419.8,-29.61 3422.66,-29.16 3425.54,-28.65"/>
<polygon fill="#63b8ff" stroke="#63b8ff" points="2708.36,-62.32 2698.9,-67.1 2709.28,-69.26 2708.36,-62.32"/>
</g>
<!-- Node24 -->
<g id="node21" class="node">
<title>Node24</title>
<g id="a_node21"><a xlink:href="d__msg__flow_8cpp.html" target="_top" xlink:title=" ">
<polygon fill="white" stroke="#666666" points="3681.5,-24.5 3548.5,-24.5 3548.5,-5.5 3681.5,-5.5 3681.5,-24.5"/>
<text text-anchor="middle" x="3615" y="-12.5" font-family="Helvetica,sans-Serif" font-size="10.00">src/d/msg/d_msg_flow.cpp</text>
</a>
</g>
</g>
<!-- Node10&#45;&gt;Node24 -->
<g id="edge21" class="edge">
<title>Node10&#45;&gt;Node24</title>
<path fill="none" stroke="#63b8ff" d="M2708.61,-65.83C3075.45,-19.29 3174.47,-71.25 3539,-30 3549.8,-28.78 3561.37,-26.93 3572.15,-24.97"/>
<polygon fill="#63b8ff" stroke="#63b8ff" points="2708.37,-62.33 2698.9,-67.08 2709.27,-69.27 2708.37,-62.33"/>
</g>
<!-- Node25 -->
<g id="node22" class="node">
<title>Node25</title>
<g id="a_node22"><a xlink:href="d__msg__out__font_8cpp.html" target="_top" xlink:title=" ">
<polygon fill="white" stroke="#666666" points="3810.5,-30 3699.5,-30 3699.5,0 3810.5,0 3810.5,-30"/>
<text text-anchor="start" x="3707.5" y="-18" font-family="Helvetica,sans-Serif" font-size="10.00">src/d/msg/d_msg_out</text>
<text text-anchor="middle" x="3755" y="-7" font-family="Helvetica,sans-Serif" font-size="10.00">_font.cpp</text>
</a>
</g>
</g>
<!-- Node10&#45;&gt;Node25 -->
<g id="edge23" class="edge">
<title>Node10&#45;&gt;Node25</title>
<path fill="none" stroke="#63b8ff" d="M2708.69,-65.83C3142.6,-12.23 3260.11,-84.56 3691,-30 3693.71,-29.66 3696.47,-29.26 3699.25,-28.81"/>
<polygon fill="#63b8ff" stroke="#63b8ff" points="2708.39,-62.34 2698.9,-67.06 2709.26,-69.29 2708.39,-62.34"/>
</g>
<!-- Node26 -->
<g id="node23" class="node">
<title>Node26</title>
<g id="a_node23"><a xlink:href="d__s__play_8cpp.html" target="_top" xlink:title=" ">
<polygon fill="white" stroke="#666666" points="3935,-24.5 3829,-24.5 3829,-5.5 3935,-5.5 3935,-24.5"/>
<text text-anchor="middle" x="3882" y="-12.5" font-family="Helvetica,sans-Serif" font-size="10.00">src/d/s/d_s_play.cpp</text>
</a>
</g>
</g>
<!-- Node10&#45;&gt;Node26 -->
<g id="edge24" class="edge">
<title>Node10&#45;&gt;Node26</title>
<path fill="none" stroke="#63b8ff" d="M2708.69,-65.84C3199.58,-6.14 3332.35,-92.36 3820,-30 3829.08,-28.84 3838.8,-26.96 3847.77,-24.95"/>
<polygon fill="#63b8ff" stroke="#63b8ff" points="2708.39,-62.35 2698.9,-67.05 2709.25,-69.3 2708.39,-62.35"/>
</g>
<!-- Node27 -->
<g id="node24" class="node">
<title>Node27</title>
<g id="a_node24"><a xlink:href="d__shop__system_8cpp.html" target="_top" xlink:title=" ">
<polygon fill="white" stroke="#666666" points="2211,-24.5 2059,-24.5 2059,-5.5 2211,-5.5 2211,-24.5"/>
<text text-anchor="middle" x="2135" y="-12.5" font-family="Helvetica,sans-Serif" font-size="10.00">src/d/shop/d_shop_system.cpp</text>
</a>
</g>
</g>
<!-- Node10&#45;&gt;Node27 -->
<g id="edge25" class="edge">
<title>Node10&#45;&gt;Node27</title>
<path fill="none" stroke="#63b8ff" d="M2575.27,-73.04C2491.99,-64.13 2345.23,-47.72 2220,-30 2209.34,-28.49 2197.95,-26.72 2187.09,-24.96"/>
<polygon fill="#63b8ff" stroke="#63b8ff" points="2574.78,-76.51 2585.09,-74.08 2575.52,-69.54 2574.78,-76.51"/>
</g>
<!-- Node31 -->
<g id="node25" class="node">
<title>Node31</title>
<g id="a_node25"><a xlink:href="d__msg__scrn__explain_8cpp.html" target="_top" xlink:title=" ">
<polygon fill="white" stroke="#666666" points="1723,-30 1617,-30 1617,0 1723,0 1723,-30"/>
<text text-anchor="start" x="1625" y="-18" font-family="Helvetica,sans-Serif" font-size="10.00">src/msg/scrn/d_msg</text>
<text text-anchor="middle" x="1670" y="-7" font-family="Helvetica,sans-Serif" font-size="10.00">_scrn_explain.cpp</text>
</a>
</g>
</g>
<!-- Node10&#45;&gt;Node31 -->
<g id="edge26" class="edge">
<title>Node10&#45;&gt;Node31</title>
<path fill="none" stroke="#63b8ff" d="M2575.22,-80.14C2424.23,-79.62 2045.29,-73.67 1732,-30 1729.16,-29.6 1726.25,-29.14 1723.33,-28.64"/>
<polygon fill="#63b8ff" stroke="#63b8ff" points="2575.03,-83.64 2585.04,-80.17 2575.05,-76.64 2575.03,-83.64"/>
</g>
<!-- Node38 -->
<g id="node29" class="node">
<title>Node38</title>
<g id="a_node29"><a xlink:href="d__msg__string_8h.html" target="_top" xlink:title=" ">
<polygon fill="white" stroke="#666666" points="1007,-96 897,-96 897,-66 1007,-66 1007,-96"/>
<text text-anchor="start" x="905" y="-84" font-family="Helvetica,sans-Serif" font-size="10.00">include/d/msg/d_msg</text>
<text text-anchor="middle" x="952" y="-73" font-family="Helvetica,sans-Serif" font-size="10.00">_string.h</text>
</a>
</g>
</g>
<!-- Node37&#45;&gt;Node38 -->
<g id="edge31" class="edge">
<title>Node37&#45;&gt;Node38</title>
<path fill="none" stroke="#63b8ff" d="M1394.24,-137.61C1292.77,-124.85 1101.6,-100.81 1007.37,-88.96"/>
<polygon fill="#63b8ff" stroke="#63b8ff" points="1393.7,-141.07 1404.06,-138.84 1394.57,-134.12 1393.7,-141.07"/>
</g>
<!-- Node49 -->
<g id="node39" class="node">
<title>Node49</title>
<g id="a_node39"><a xlink:href="d__msg__string__base_8cpp.html" target="_top" xlink:title=" ">
<polygon fill="white" stroke="#666666" points="1522,-96 1400,-96 1400,-66 1522,-66 1522,-96"/>
<text text-anchor="start" x="1408" y="-84" font-family="Helvetica,sans-Serif" font-size="10.00">src/d/msg/d_msg_string</text>
<text text-anchor="middle" x="1461" y="-73" font-family="Helvetica,sans-Serif" font-size="10.00">_base.cpp</text>
</a>
</g>
</g>
<!-- Node37&#45;&gt;Node49 -->
<g id="edge43" class="edge">
<title>Node37&#45;&gt;Node49</title>
<path fill="none" stroke="#63b8ff" d="M1461,-120.39C1461,-112.13 1461,-103.28 1461,-96.16"/>
<polygon fill="#63b8ff" stroke="#63b8ff" points="1457.5,-120.28 1461,-130.28 1464.5,-120.28 1457.5,-120.28"/>
</g>
<!-- Node38&#45;&gt;Node7 -->
<g id="edge38" class="edge">
<title>Node38&#45;&gt;Node7</title>
<path fill="none" stroke="#63b8ff" d="M1018.45,-74.45C1112.18,-66.33 1288.49,-49.98 1438,-30 1448.97,-28.53 1460.7,-26.75 1471.83,-24.94"/>
<polygon fill="#63b8ff" stroke="#63b8ff" points="1018.33,-70.95 1008.66,-75.29 1018.93,-77.92 1018.33,-70.95"/>
</g>
<!-- Node38&#45;&gt;Node31 -->
<g id="edge42" class="edge">
<title>Node38&#45;&gt;Node31</title>
<path fill="none" stroke="#63b8ff" d="M1018.58,-78.14C1137.5,-74.09 1394.02,-62.14 1608,-30 1610.84,-29.57 1613.74,-29.09 1616.66,-28.56"/>
<polygon fill="#63b8ff" stroke="#63b8ff" points="1018.55,-74.63 1008.68,-78.46 1018.79,-81.63 1018.55,-74.63"/>
</g>
<!-- Node39 -->
<g id="node30" class="node">
<title>Node39</title>
<g id="a_node30"><a xlink:href="d__file__select_8h.html" target="_top" xlink:title=" ">
<polygon fill="#fff0f0" stroke="red" points="96,-30 0,-30 0,0 96,0 96,-30"/>
<text text-anchor="start" x="8" y="-18" font-family="Helvetica,sans-Serif" font-size="10.00">include/d/file/d_file</text>
<text text-anchor="middle" x="48" y="-7" font-family="Helvetica,sans-Serif" font-size="10.00">_select.h</text>
</a>
</g>
</g>
<!-- Node38&#45;&gt;Node39 -->
<g id="edge32" class="edge">
<title>Node38&#45;&gt;Node39</title>
<path fill="none" stroke="#63b8ff" d="M885.44,-80.17C741.97,-79.64 393.23,-73.53 105,-30 102.18,-29.57 99.29,-29.07 96.39,-28.52"/>
<polygon fill="#63b8ff" stroke="#63b8ff" points="885.12,-83.67 895.13,-80.2 885.14,-76.67 885.12,-83.67"/>
</g>
<!-- Node41 -->
<g id="node31" class="node">
<title>Node41</title>
<g id="a_node31"><a xlink:href="d__bright__check_8cpp.html" target="_top" xlink:title=" ">
<polygon fill="white" stroke="#666666" points="239.5,-24.5 114.5,-24.5 114.5,-5.5 239.5,-5.5 239.5,-24.5"/>
<text text-anchor="middle" x="177" y="-12.5" font-family="Helvetica,sans-Serif" font-size="10.00">src/d/d_bright_check.cpp</text>
</a>
</g>
</g>
<!-- Node38&#45;&gt;Node41 -->
<g id="edge33" class="edge">
<title>Node38&#45;&gt;Node41</title>
<path fill="none" stroke="#63b8ff" d="M885.36,-77.95C760.2,-73.5 481.61,-60.77 249,-30 239.03,-28.68 228.35,-26.84 218.36,-24.93"/>
<polygon fill="#63b8ff" stroke="#63b8ff" points="885,-81.44 895.12,-78.29 885.24,-74.44 885,-81.44"/>
</g>
<!-- Node42 -->
<g id="node32" class="node">
<title>Node42</title>
<g id="a_node32"><a xlink:href="d__menu__calibration_8cpp.html" target="_top" xlink:title=" ">
<polygon fill="white" stroke="#666666" points="428,-24.5 258,-24.5 258,-5.5 428,-5.5 428,-24.5"/>
<text text-anchor="middle" x="343" y="-12.5" font-family="Helvetica,sans-Serif" font-size="10.00">src/d/menu/d_menu_calibration.cpp</text>
</a>
</g>
</g>
<!-- Node38&#45;&gt;Node42 -->
<g id="edge34" class="edge">
<title>Node38&#45;&gt;Node42</title>
<path fill="none" stroke="#63b8ff" d="M885.41,-74.63C787.15,-66.46 597.59,-49.74 437,-30 425.05,-28.53 412.27,-26.76 400.1,-24.98"/>
<polygon fill="#63b8ff" stroke="#63b8ff" points="884.88,-78.1 895.14,-75.43 885.46,-71.12 884.88,-78.1"/>
</g>
<!-- Node43 -->
<g id="node33" class="node">
<title>Node43</title>
<g id="a_node33"><a xlink:href="d__menu__collect_8cpp.html" target="_top" xlink:title=" ">
<polygon fill="white" stroke="#666666" points="601.5,-24.5 446.5,-24.5 446.5,-5.5 601.5,-5.5 601.5,-24.5"/>
<text text-anchor="middle" x="524" y="-12.5" font-family="Helvetica,sans-Serif" font-size="10.00">src/d/menu/d_menu_collect.cpp</text>
</a>
</g>
</g>
<!-- Node38&#45;&gt;Node43 -->
<g id="edge35" class="edge">
<title>Node38&#45;&gt;Node43</title>
<path fill="none" stroke="#63b8ff" d="M885.66,-70.55C816.91,-60.7 706.38,-44.67 611,-30 600.57,-28.4 589.44,-26.64 578.74,-24.93"/>
<polygon fill="#63b8ff" stroke="#63b8ff" points="884.85,-73.97 895.24,-71.92 885.84,-67.04 884.85,-73.97"/>
</g>
<!-- Node44 -->
<g id="node34" class="node">
<title>Node44</title>
<g id="a_node34"><a xlink:href="d__menu__fishing_8cpp.html" target="_top" xlink:title=" ">
<polygon fill="white" stroke="#666666" points="774,-24.5 620,-24.5 620,-5.5 774,-5.5 774,-24.5"/>
<text text-anchor="middle" x="697" y="-12.5" font-family="Helvetica,sans-Serif" font-size="10.00">src/d/menu/d_menu_fishing.cpp</text>
</a>
</g>
</g>
<!-- Node38&#45;&gt;Node44 -->
<g id="edge36" class="edge">
<title>Node38&#45;&gt;Node44</title>
<path fill="none" stroke="#63b8ff" d="M885.55,-63.32C836.65,-51.05 772.08,-34.84 732.6,-24.93"/>
<polygon fill="#63b8ff" stroke="#63b8ff" points="884.65,-66.7 895.2,-65.74 886.35,-59.92 884.65,-66.7"/>
</g>
<!-- Node45 -->
<g id="node35" class="node">
<title>Node45</title>
<g id="a_node35"><a xlink:href="d__menu__insect_8cpp.html" target="_top" xlink:title=" ">
<polygon fill="white" stroke="#666666" points="944,-24.5 792,-24.5 792,-5.5 944,-5.5 944,-24.5"/>
<text text-anchor="middle" x="868" y="-12.5" font-family="Helvetica,sans-Serif" font-size="10.00">src/d/menu/d_menu_insect.cpp</text>
</a>
</g>
</g>
<!-- Node38&#45;&gt;Node45 -->
<g id="edge37" class="edge">
<title>Node38&#45;&gt;Node45</title>
<path fill="none" stroke="#63b8ff" d="M924.35,-58.93C909.15,-47.35 891.11,-33.61 879.61,-24.84"/>
<polygon fill="#63b8ff" stroke="#63b8ff" points="922.08,-61.6 932.15,-64.88 926.32,-56.03 922.08,-61.6"/>
</g>
<!-- Node46 -->
<g id="node36" class="node">
<title>Node46</title>
<g id="a_node36"><a xlink:href="d__menu__save_8cpp.html" target="_top" xlink:title=" ">
<polygon fill="white" stroke="#666666" points="1109.5,-24.5 962.5,-24.5 962.5,-5.5 1109.5,-5.5 1109.5,-24.5"/>
<text text-anchor="middle" x="1036" y="-12.5" font-family="Helvetica,sans-Serif" font-size="10.00">src/d/menu/d_menu_save.cpp</text>
</a>
</g>
</g>
<!-- Node38&#45;&gt;Node46 -->
<g id="edge39" class="edge">
<title>Node38&#45;&gt;Node46</title>
<path fill="none" stroke="#63b8ff" d="M979.65,-58.93C994.85,-47.35 1012.89,-33.61 1024.39,-24.84"/>
<polygon fill="#63b8ff" stroke="#63b8ff" points="977.68,-56.03 971.85,-64.88 981.92,-61.6 977.68,-56.03"/>
</g>
<!-- Node47 -->
<g id="node37" class="node">
<title>Node47</title>
<g id="a_node37"><a xlink:href="d__menu__skill_8cpp.html" target="_top" xlink:title=" ">
<polygon fill="white" stroke="#666666" points="1270.5,-24.5 1127.5,-24.5 1127.5,-5.5 1270.5,-5.5 1270.5,-24.5"/>
<text text-anchor="middle" x="1199" y="-12.5" font-family="Helvetica,sans-Serif" font-size="10.00">src/d/menu/d_menu_skill.cpp</text>
</a>
</g>
</g>
<!-- Node38&#45;&gt;Node47 -->
<g id="edge40" class="edge">
<title>Node38&#45;&gt;Node47</title>
<path fill="none" stroke="#63b8ff" d="M1018.45,-62.78C1065.46,-50.6 1126.62,-34.76 1164.32,-24.99"/>
<polygon fill="#63b8ff" stroke="#63b8ff" points="1017.7,-59.36 1008.9,-65.26 1019.46,-66.14 1017.7,-59.36"/>
</g>
<!-- Node48 -->
<g id="node38" class="node">
<title>Node48</title>
<g id="a_node38"><a xlink:href="d__msg__string_8cpp.html" target="_top" xlink:title=" ">
<polygon fill="white" stroke="#666666" points="1429,-24.5 1289,-24.5 1289,-5.5 1429,-5.5 1429,-24.5"/>
<text text-anchor="middle" x="1359" y="-12.5" font-family="Helvetica,sans-Serif" font-size="10.00">src/d/msg/d_msg_string.cpp</text>
</a>
</g>
</g>
<!-- Node38&#45;&gt;Node48 -->
<g id="edge41" class="edge">
<title>Node38&#45;&gt;Node48</title>
<path fill="none" stroke="#63b8ff" d="M1018.39,-70.28C1084.51,-60.49 1188.86,-44.78 1279,-30 1288.6,-28.43 1298.84,-26.68 1308.67,-24.98"/>
<polygon fill="#63b8ff" stroke="#63b8ff" points="1018.19,-66.77 1008.81,-71.69 1019.21,-73.69 1018.19,-66.77"/>
</g>
<!-- Node52 -->
<g id="node42" class="node">
<title>Node52</title>
<g id="a_node42"><a xlink:href="fvb_8h.html" target="_top" xlink:title=" ">
<polygon fill="white" stroke="#666666" points="3203.5,-228 3078.5,-228 3078.5,-198 3203.5,-198 3203.5,-228"/>
<text text-anchor="start" x="3086.5" y="-216" font-family="Helvetica,sans-Serif" font-size="10.00">include/JSystem/JStudio</text>
<text text-anchor="middle" x="3141" y="-205" font-family="Helvetica,sans-Serif" font-size="10.00">/JStudio/fvb.h</text>
</a>
</g>
</g>
<!-- Node51&#45;&gt;Node52 -->
<g id="edge46" class="edge">
<title>Node51&#45;&gt;Node52</title>
<path fill="none" stroke="#63b8ff" d="M3035.91,-259.14C3058.77,-249.32 3086.28,-237.51 3107.42,-228.43"/>
<polygon fill="#63b8ff" stroke="#63b8ff" points="3034.64,-255.88 3026.83,-263.04 3037.4,-262.31 3034.64,-255.88"/>
</g>
<!-- Node83 -->
<g id="node47" class="node">
<title>Node83</title>
<g id="a_node47"><a xlink:href="fvb-data-parse_8cpp.html" target="_top" xlink:title=" ">
<polygon fill="white" stroke="#666666" points="3060,-228 2924,-228 2924,-198 3060,-198 3060,-228"/>
<text text-anchor="start" x="2932" y="-216" font-family="Helvetica,sans-Serif" font-size="10.00">libs/JSystem/JStudio</text>
<text text-anchor="middle" x="2992" y="-205" font-family="Helvetica,sans-Serif" font-size="10.00">/JStudio/fvb&#45;data&#45;parse.cpp</text>
</a>
</g>
</g>
<!-- Node51&#45;&gt;Node83 -->
<g id="edge51" class="edge">
<title>Node51&#45;&gt;Node83</title>
<path fill="none" stroke="#63b8ff" d="M2992,-252.39C2992,-244.13 2992,-235.28 2992,-228.16"/>
<polygon fill="#63b8ff" stroke="#63b8ff" points="2988.5,-252.28 2992,-262.28 2995.5,-252.28 2988.5,-252.28"/>
</g>
<!-- Node53 -->
<g id="node43" class="node">
<title>Node53</title>
<g id="a_node43"><a xlink:href="jstudio-control_8h.html" target="_top" xlink:title=" ">
<polygon fill="white" stroke="#666666" points="3231.5,-162 3106.5,-162 3106.5,-132 3231.5,-132 3231.5,-162"/>
<text text-anchor="start" x="3114.5" y="-150" font-family="Helvetica,sans-Serif" font-size="10.00">include/JSystem/JStudio</text>
<text text-anchor="middle" x="3169" y="-139" font-family="Helvetica,sans-Serif" font-size="10.00">/JStudio/jstudio&#45;control.h</text>
</a>
</g>
</g>
<!-- Node52&#45;&gt;Node53 -->
<g id="edge47" class="edge">
<title>Node52&#45;&gt;Node53</title>
<path fill="none" stroke="#63b8ff" d="M3151.83,-187.25C3155.55,-178.75 3159.58,-169.53 3162.8,-162.16"/>
<polygon fill="#63b8ff" stroke="#63b8ff" points="3148.62,-185.85 3147.82,-196.41 3155.04,-188.65 3148.62,-185.85"/>
</g>
<!-- Node82 -->
<g id="node46" class="node">
<title>Node82</title>
<g id="a_node46"><a xlink:href="fvb_8cpp.html" target="_top" xlink:title=" ">
<polygon fill="white" stroke="#666666" points="3088.5,-162 2979.5,-162 2979.5,-132 3088.5,-132 3088.5,-162"/>
<text text-anchor="start" x="2987.5" y="-150" font-family="Helvetica,sans-Serif" font-size="10.00">libs/JSystem/JStudio</text>
<text text-anchor="middle" x="3034" y="-139" font-family="Helvetica,sans-Serif" font-size="10.00">/JStudio/fvb.cpp</text>
</a>
</g>
</g>
<!-- Node52&#45;&gt;Node82 -->
<g id="edge50" class="edge">
<title>Node52&#45;&gt;Node82</title>
<path fill="none" stroke="#63b8ff" d="M3107.41,-191.91C3091.36,-182.31 3072.51,-171.03 3057.93,-162.31"/>
<polygon fill="#63b8ff" stroke="#63b8ff" points="3105.31,-194.73 3115.69,-196.86 3108.9,-188.72 3105.31,-194.73"/>
</g>
<!-- Node54 -->
<g id="node44" class="node">
<title>Node54</title>
<g id="a_node44"><a xlink:href="jstudio-object_8h.html" target="_top" xlink:title=" ">
<polygon fill="#fff0f0" stroke="red" points="3175.5,-96 3050.5,-96 3050.5,-66 3175.5,-66 3175.5,-96"/>
<text text-anchor="start" x="3058.5" y="-84" font-family="Helvetica,sans-Serif" font-size="10.00">include/JSystem/JStudio</text>
<text text-anchor="middle" x="3113" y="-73" font-family="Helvetica,sans-Serif" font-size="10.00">/JStudio/jstudio&#45;object.h</text>
</a>
</g>
</g>
<!-- Node53&#45;&gt;Node54 -->
<g id="edge48" class="edge">
<title>Node53&#45;&gt;Node54</title>
<path fill="none" stroke="#63b8ff" d="M3149.09,-123.24C3141.19,-114.21 3132.35,-104.11 3125.39,-96.16"/>
<polygon fill="#63b8ff" stroke="#63b8ff" points="3146.36,-125.44 3155.58,-130.66 3151.62,-120.83 3146.36,-125.44"/>
</g>
<!-- Node81 -->
<g id="node45" class="node">
<title>Node81</title>
<g id="a_node45"><a xlink:href="jstudio-control_8cpp.html" target="_top" xlink:title=" ">
<polygon fill="white" stroke="#666666" points="3328,-96 3194,-96 3194,-66 3328,-66 3328,-96"/>
<text text-anchor="start" x="3202" y="-84" font-family="Helvetica,sans-Serif" font-size="10.00">libs/JSystem/JStudio</text>
<text text-anchor="middle" x="3261" y="-73" font-family="Helvetica,sans-Serif" font-size="10.00">/JStudio/jstudio&#45;control.cpp</text>
</a>
</g>
</g>
<!-- Node53&#45;&gt;Node81 -->
<g id="edge49" class="edge">
<title>Node53&#45;&gt;Node81</title>
<path fill="none" stroke="#63b8ff" d="M3198.83,-125.25C3212.39,-115.82 3228.09,-104.9 3240.32,-96.39"/>
<polygon fill="#63b8ff" stroke="#63b8ff" points="3196.87,-122.35 3190.66,-130.93 3200.87,-128.09 3196.87,-122.35"/>
</g>
</g>
</svg>
        <g id="navigator" transform="translate(0 0)" fill="#404254">
                <rect fill="#f2f5e9" fill-opacity="0.5" stroke="#606060" stroke-width=".5" x="0" y="0" width="60" height="60"/>
                <use id="zoomplus" xlink:href="#zoomPlus" x="17" y="9" onmousedown="handleZoom(evt,'in')"/>
                <use id="zoomminus" xlink:href="#zoomMin" x="42" y="9" onmousedown="handleZoom(evt,'out')"/>
                <use id="reset" xlink:href="#resetDef" x="30" y="36" onmousedown="handleReset()"/>
                <g id="arrowUp" xlink:href="#dirArrow" transform="translate(30 24)" onmousedown="handlePan(0,-1)">
                  <use xlink:href="#rim" fill="#404040">
                        <set attributeName="fill" to="#808080" begin="arrowUp.mouseover" end="arrowUp.mouseout"/>
                  </use>
                  <path fill="none" stroke="white" stroke-width="1.5" d="M0,-3.0v7 M-2.5,-0.5L0,-3.0L2.5,-0.5"/>
                </g>
                <g id="arrowRight" xlink:href="#dirArrow" transform="rotate(90) translate(36 -43)" onmousedown="handlePan(1,0)">
                  <use xlink:href="#rim" fill="#404040">
                        <set attributeName="fill" to="#808080" begin="arrowRight.mouseover" end="arrowRight.mouseout"/>
                  </use>
                  <path fill="none" stroke="white" stroke-width="1.5" d="M0,-3.0v7 M-2.5,-0.5L0,-3.0L2.5,-0.5"/>
                </g>
                <g id="arrowDown" xlink:href="#dirArrow" transform="rotate(180) translate(-30 -48)" onmousedown="handlePan(0,1)">
                  <use xlink:href="#rim" fill="#404040">
                        <set attributeName="fill" to="#808080" begin="arrowDown.mouseover" end="arrowDown.mouseout"/>
                  </use>
                  <path fill="none" stroke="white" stroke-width="1.5" d="M0,-3.0v7 M-2.5,-0.5L0,-3.0L2.5,-0.5"/>
                </g>
                <g id="arrowLeft" xlink:href="#dirArrow" transform="rotate(270) translate(-36 17)" onmousedown="handlePan(-1,0)">
                  <use xlink:href="#rim" fill="#404040">
                        <set attributeName="fill" to="#808080" begin="arrowLeft.mouseover" end="arrowLeft.mouseout"/>
                  </use>
                  <path fill="none" stroke="white" stroke-width="1.5" d="M0,-3.0v7 M-2.5,-0.5L0,-3.0L2.5,-0.5"/>
                </g>
        </g>
        <svg viewBox="0 0 15 15" width="100%" height="30px" preserveAspectRatio="xMaxYMin meet">
         <g id="arrow_out" transform="scale(0.3 0.3)">
          <a xlink:href="functionvalue_8h__dep__incl_org.svg" target="_base">
           <rect id="button" ry="5" rx="5" y="6" x="6" height="38" width="38"
                fill="#f2f5e9" fill-opacity="0.5" stroke="#606060" stroke-width="1.0"/>
           <path id="arrow"
             d="M 11.500037,31.436501 C 11.940474,20.09759 22.043105,11.32322 32.158766,21.979434 L 37.068811,17.246167 C 37.068811,17.246167 37.088388,32 37.088388,32 L 22.160133,31.978069 C 22.160133,31.978069 26.997745,27.140456 26.997745,27.140456 C 18.528582,18.264221 13.291696,25.230495 11.500037,31.436501 z"
             style="fill:#404040;"/>
          </a>
         </g>
        </svg>
</svg>
