<?xml version="1.0" encoding="UTF-8" standalone="no"?>
<!DOCTYPE svg PUBLIC "-//W3C//DTD SVG 1.1//EN"
 "http://www.w3.org/Graphics/SVG/1.1/DTD/svg11.dtd">
<!-- Generated by graphviz version 7.0.5 (20221223.1930)
 -->
<!-- Title: include/JSystem/JStudio/JStudio/fvb&#45;data.h Pages: 1 -->
<!--zoomable 368 -->
<svg id="main" version="1.1" xmlns="http://www.w3.org/2000/svg" xmlns:xlink="http://www.w3.org/1999/xlink" xml:space="preserve" onload="init(evt)">
<style type="text/css"><![CDATA[
.edge:hover path { stroke: red; }
.edge:hover polygon { stroke: red; fill: red; }
]]></style>
<script type="text/javascript"><![CDATA[
var edges = document.getElementsByTagName('g');
if (edges && edges.length) {
  for (var i=0;i<edges.length;i++) {
    if (edges[i].id.substr(0,4)=='edge') {
      edges[i].setAttribute('class','edge');
    }
  }
}
]]></script>
        <defs>
                <circle id="rim" cx="0" cy="0" r="7"/>
                <circle id="rim2" cx="0" cy="0" r="3.5"/>
                <g id="zoomPlus">
                        <use xlink:href="#rim" fill="#404040">
                                <set attributeName="fill" to="#808080" begin="zoomplus.mouseover" end="zoomplus.mouseout"/>
                        </use>
                        <path d="M-4,0h8M0,-4v8" fill="none" stroke="white" stroke-width="1.5" pointer-events="none"/>
                </g>
                <g id="zoomMin">
                        <use xlink:href="#rim" fill="#404040">
                                <set attributeName="fill" to="#808080" begin="zoomminus.mouseover" end="zoomminus.mouseout"/>
                        </use>
                        <path d="M-4,0h8" fill="none" stroke="white" stroke-width="1.5" pointer-events="none"/>
                </g>
                <g id="dirArrow">
                        <path fill="none" stroke="white" stroke-width="1.5" d="M0,-3.0v7 M-2.5,-0.5L0,-3.0L2.5,-0.5"/>
                </g>
               <g id="resetDef">
                       <use xlink:href="#rim2" fill="#404040">
                               <set attributeName="fill" to="#808080" begin="reset.mouseover" end="reset.mouseout"/>
                       </use>
               </g>
        </defs>

<script type="text/javascript">
var viewWidth = 4348;
var viewHeight = 368;
var sectionId = 'dynsection-1';
</script>
<script xlink:href="svgpan.js"/>
<svg id="graph" class="graph">
<g id="viewport">
<title>include/JSystem/JStudio/JStudio/fvb&#45;data.h</title>
<!-- Node1 -->
<g id="node1" class="node">
<title>Node1</title>
<g id="a_node1"><a xlink:title=" ">
<polygon fill="#999999" stroke="#666666" points="3318,-360 3193,-360 3193,-330 3318,-330 3318,-360"/>
<text text-anchor="start" x="3201" y="-348" font-family="Helvetica,sans-Serif" font-size="10.00">include/JSystem/JStudio</text>
<text text-anchor="middle" x="3255.5" y="-337" font-family="Helvetica,sans-Serif" font-size="10.00">/JStudio/fvb&#45;data.h</text>
</a>
</g>
</g>
<!-- Node2 -->
<g id="node2" class="node">
<title>Node2</title>
<g id="a_node2"><a xlink:href="resource_8h.html" target="_top" xlink:title=" ">
<polygon fill="white" stroke="#666666" points="3103,-294 2966,-294 2966,-264 3103,-264 3103,-294"/>
<text text-anchor="start" x="2974" y="-282" font-family="Helvetica,sans-Serif" font-size="10.00">include/JSystem/JMessage</text>
<text text-anchor="middle" x="3034.5" y="-271" font-family="Helvetica,sans-Serif" font-size="10.00">/resource.h</text>
</a>
</g>
</g>
<!-- Node1&#45;&gt;Node2 -->
<g id="edge1" class="edge">
<title>Node1&#45;&gt;Node2</title>
<path fill="none" stroke="#63b8ff" d="M3194.66,-326.38C3159.91,-316.32 3116.89,-303.86 3084.19,-294.39"/>
<polygon fill="#63b8ff" stroke="#63b8ff" points="3193.59,-329.72 3204.17,-329.14 3195.54,-322.99 3193.59,-329.72"/>
</g>
<!-- Node50 -->
<g id="node43" class="node">
<title>Node50</title>
<g id="a_node43"><a xlink:href="fvb-data-parse_8h.html" target="_top" xlink:title=" ">
<polygon fill="white" stroke="#666666" points="3318,-294 3193,-294 3193,-264 3318,-264 3318,-294"/>
<text text-anchor="start" x="3201" y="-282" font-family="Helvetica,sans-Serif" font-size="10.00">include/JSystem/JStudio</text>
<text text-anchor="middle" x="3255.5" y="-271" font-family="Helvetica,sans-Serif" font-size="10.00">/JStudio/fvb&#45;data&#45;parse.h</text>
</a>
</g>
</g>
<!-- Node1&#45;&gt;Node50 -->
<g id="edge47" class="edge">
<title>Node1&#45;&gt;Node50</title>
<path fill="none" stroke="#63b8ff" d="M3255.5,-318.39C3255.5,-310.13 3255.5,-301.28 3255.5,-294.16"/>
<polygon fill="#63b8ff" stroke="#63b8ff" points="3252,-318.28 3255.5,-328.28 3259,-318.28 3252,-318.28"/>
</g>
<!-- Node83 -->
<g id="node50" class="node">
<title>Node83</title>
<g id="a_node50"><a xlink:href="fvb-data_8cpp.html" target="_top" xlink:title=" ">
<polygon fill="white" stroke="#666666" points="3445,-294 3336,-294 3336,-264 3445,-264 3445,-294"/>
<text text-anchor="start" x="3344" y="-282" font-family="Helvetica,sans-Serif" font-size="10.00">libs/JSystem/JStudio</text>
<text text-anchor="middle" x="3390.5" y="-271" font-family="Helvetica,sans-Serif" font-size="10.00">/JStudio/fvb&#45;data.cpp</text>
</a>
</g>
</g>
<!-- Node1&#45;&gt;Node83 -->
<g id="edge54" class="edge">
<title>Node1&#45;&gt;Node83</title>
<path fill="none" stroke="#63b8ff" d="M3296.16,-324.72C3316.78,-314.95 3341.39,-303.28 3360.3,-294.31"/>
<polygon fill="#63b8ff" stroke="#63b8ff" points="3294.7,-321.54 3287.16,-328.99 3297.7,-327.87 3294.7,-321.54"/>
</g>
<!-- Node3 -->
<g id="node3" class="node">
<title>Node3</title>
<g id="a_node3"><a xlink:href="processor_8h.html" target="_top" xlink:title=" ">
<polygon fill="white" stroke="#666666" points="3030,-228 2893,-228 2893,-198 3030,-198 3030,-228"/>
<text text-anchor="start" x="2901" y="-216" font-family="Helvetica,sans-Serif" font-size="10.00">include/JSystem/JMessage</text>
<text text-anchor="middle" x="2961.5" y="-205" font-family="Helvetica,sans-Serif" font-size="10.00">/processor.h</text>
</a>
</g>
</g>
<!-- Node2&#45;&gt;Node3 -->
<g id="edge2" class="edge">
<title>Node2&#45;&gt;Node3</title>
<path fill="none" stroke="#63b8ff" d="M3009.89,-256.42C2999.35,-247.18 2987.33,-236.65 2977.91,-228.39"/>
<polygon fill="#63b8ff" stroke="#63b8ff" points="3007.33,-258.84 3017.16,-262.8 3011.95,-253.57 3007.33,-258.84"/>
</g>
<!-- Node36 -->
<g id="node30" class="node">
<title>Node36</title>
<g id="a_node30"><a xlink:href="d__msg__string__base_8h.html" target="_top" xlink:title=" ">
<polygon fill="white" stroke="#666666" points="1450.5,-162 1340.5,-162 1340.5,-132 1450.5,-132 1450.5,-162"/>
<text text-anchor="start" x="1348.5" y="-150" font-family="Helvetica,sans-Serif" font-size="10.00">include/d/msg/d_msg</text>
<text text-anchor="middle" x="1395.5" y="-139" font-family="Helvetica,sans-Serif" font-size="10.00">_string_base.h</text>
</a>
</g>
</g>
<!-- Node2&#45;&gt;Node36 -->
<g id="edge32" class="edge">
<title>Node2&#45;&gt;Node36</title>
<path fill="none" stroke="#63b8ff" d="M2954.51,-271.66C2667.44,-248.89 1693.32,-171.62 1450.62,-152.37"/>
<polygon fill="#63b8ff" stroke="#63b8ff" points="2953.89,-275.12 2964.13,-272.42 2954.44,-268.14 2953.89,-275.12"/>
</g>
<!-- Node49 -->
<g id="node42" class="node">
<title>Node49</title>
<g id="a_node42"><a xlink:href="resource_8cpp.html" target="_top" xlink:title=" ">
<polygon fill="white" stroke="#666666" points="3169,-228 3048,-228 3048,-198 3169,-198 3169,-228"/>
<text text-anchor="start" x="3056" y="-216" font-family="Helvetica,sans-Serif" font-size="10.00">libs/JSystem/JMessage</text>
<text text-anchor="middle" x="3108.5" y="-205" font-family="Helvetica,sans-Serif" font-size="10.00">/resource.cpp</text>
</a>
</g>
</g>
<!-- Node2&#45;&gt;Node49 -->
<g id="edge46" class="edge">
<title>Node2&#45;&gt;Node49</title>
<path fill="none" stroke="#63b8ff" d="M3059.45,-256.42C3070.13,-247.18 3082.31,-236.65 3091.87,-228.39"/>
<polygon fill="#63b8ff" stroke="#63b8ff" points="3057.34,-253.62 3052.07,-262.81 3061.92,-258.91 3057.34,-253.62"/>
</g>
<!-- Node4 -->
<g id="node4" class="node">
<title>Node4</title>
<g id="a_node4"><a xlink:href="JMessage_2control_8h.html" target="_top" xlink:title=" ">
<polygon fill="white" stroke="#666666" points="3030,-162 2893,-162 2893,-132 3030,-132 3030,-162"/>
<text text-anchor="start" x="2901" y="-150" font-family="Helvetica,sans-Serif" font-size="10.00">include/JSystem/JMessage</text>
<text text-anchor="middle" x="2961.5" y="-139" font-family="Helvetica,sans-Serif" font-size="10.00">/control.h</text>
</a>
</g>
</g>
<!-- Node3&#45;&gt;Node4 -->
<g id="edge3" class="edge">
<title>Node3&#45;&gt;Node4</title>
<path fill="none" stroke="#63b8ff" d="M2961.5,-186.39C2961.5,-178.13 2961.5,-169.28 2961.5,-162.16"/>
<polygon fill="#63b8ff" stroke="#63b8ff" points="2958,-186.28 2961.5,-196.28 2965,-186.28 2958,-186.28"/>
</g>
<!-- Node35 -->
<g id="node29" class="node">
<title>Node35</title>
<g id="a_node29"><a xlink:href="processor_8cpp.html" target="_top" xlink:title=" ">
<polygon fill="white" stroke="#666666" points="3239,-96 3118,-96 3118,-66 3239,-66 3239,-96"/>
<text text-anchor="start" x="3126" y="-84" font-family="Helvetica,sans-Serif" font-size="10.00">libs/JSystem/JMessage</text>
<text text-anchor="middle" x="3178.5" y="-73" font-family="Helvetica,sans-Serif" font-size="10.00">/processor.cpp</text>
</a>
</g>
</g>
<!-- Node3&#45;&gt;Node35 -->
<g id="edge31" class="edge">
<title>Node3&#45;&gt;Node35</title>
<path fill="none" stroke="#63b8ff" d="M2995.24,-191.78C3039.36,-165.35 3115.57,-119.7 3154.34,-96.47"/>
<polygon fill="#63b8ff" stroke="#63b8ff" points="2993.63,-188.67 2986.85,-196.81 2997.23,-194.68 2993.63,-188.67"/>
</g>
<!-- Node5 -->
<g id="node5" class="node">
<title>Node5</title>
<g id="a_node5"><a xlink:href="d__msg__class_8h.html" target="_top" xlink:title=" ">
<polygon fill="white" stroke="#666666" points="1945.5,-96 1835.5,-96 1835.5,-66 1945.5,-66 1945.5,-96"/>
<text text-anchor="start" x="1843.5" y="-84" font-family="Helvetica,sans-Serif" font-size="10.00">include/d/msg/d_msg</text>
<text text-anchor="middle" x="1890.5" y="-73" font-family="Helvetica,sans-Serif" font-size="10.00">_class.h</text>
</a>
</g>
</g>
<!-- Node4&#45;&gt;Node5 -->
<g id="edge4" class="edge">
<title>Node4&#45;&gt;Node5</title>
<path fill="none" stroke="#63b8ff" d="M2881.48,-141.22C2674.07,-128.82 2122.91,-95.89 1946,-85.32"/>
<polygon fill="#63b8ff" stroke="#63b8ff" points="2881.17,-144.71 2891.36,-141.81 2881.59,-137.72 2881.17,-144.71"/>
</g>
<!-- Node9 -->
<g id="node9" class="node">
<title>Node9</title>
<g id="a_node9"><a xlink:href="d__msg__object_8h.html" target="_top" xlink:title=" ">
<polygon fill="#fff0f0" stroke="red" points="2960.5,-96 2850.5,-96 2850.5,-66 2960.5,-66 2960.5,-96"/>
<text text-anchor="start" x="2858.5" y="-84" font-family="Helvetica,sans-Serif" font-size="10.00">include/d/msg/d_msg</text>
<text text-anchor="middle" x="2905.5" y="-73" font-family="Helvetica,sans-Serif" font-size="10.00">_object.h</text>
</a>
</g>
</g>
<!-- Node4&#45;&gt;Node9 -->
<g id="edge8" class="edge">
<title>Node4&#45;&gt;Node9</title>
<path fill="none" stroke="#63b8ff" d="M2941.59,-123.24C2933.69,-114.21 2924.85,-104.11 2917.89,-96.16"/>
<polygon fill="#63b8ff" stroke="#63b8ff" points="2938.86,-125.44 2948.08,-130.66 2944.12,-120.83 2938.86,-125.44"/>
</g>
<!-- Node34 -->
<g id="node28" class="node">
<title>Node34</title>
<g id="a_node28"><a xlink:href="JMessage_2control_8cpp.html" target="_top" xlink:title=" ">
<polygon fill="white" stroke="#666666" points="3100,-96 2979,-96 2979,-66 3100,-66 3100,-96"/>
<text text-anchor="start" x="2987" y="-84" font-family="Helvetica,sans-Serif" font-size="10.00">libs/JSystem/JMessage</text>
<text text-anchor="middle" x="3039.5" y="-73" font-family="Helvetica,sans-Serif" font-size="10.00">/control.cpp</text>
</a>
</g>
</g>
<!-- Node4&#45;&gt;Node34 -->
<g id="edge29" class="edge">
<title>Node4&#45;&gt;Node34</title>
<path fill="none" stroke="#63b8ff" d="M2987.46,-124.7C2998.8,-115.4 3011.8,-104.73 3021.97,-96.39"/>
<polygon fill="#63b8ff" stroke="#63b8ff" points="2985.49,-121.79 2979.98,-130.84 2989.93,-127.2 2985.49,-121.79"/>
</g>
<!-- Node4&#45;&gt;Node35 -->
<g id="edge30" class="edge">
<title>Node4&#45;&gt;Node35</title>
<path fill="none" stroke="#63b8ff" d="M3021.24,-128.38C3055.36,-118.32 3097.6,-105.86 3129.71,-96.39"/>
<polygon fill="#63b8ff" stroke="#63b8ff" points="3020.52,-124.94 3011.92,-131.13 3022.5,-131.66 3020.52,-124.94"/>
</g>
<!-- Node6 -->
<g id="node6" class="node">
<title>Node6</title>
<g id="a_node6"><a xlink:href="d__menu__option_8cpp.html" target="_top" xlink:title=" ">
<polygon fill="white" stroke="#666666" points="1598.5,-24.5 1446.5,-24.5 1446.5,-5.5 1598.5,-5.5 1598.5,-24.5"/>
<text text-anchor="middle" x="1522.5" y="-12.5" font-family="Helvetica,sans-Serif" font-size="10.00">src/d/menu/d_menu_option.cpp</text>
</a>
</g>
</g>
<!-- Node5&#45;&gt;Node6 -->
<g id="edge5" class="edge">
<title>Node5&#45;&gt;Node6</title>
<path fill="none" stroke="#63b8ff" d="M1823.85,-68.41C1752.03,-55.92 1639.29,-36.31 1573.98,-24.95"/>
<polygon fill="#63b8ff" stroke="#63b8ff" points="1823.07,-71.82 1833.52,-70.09 1824.26,-64.93 1823.07,-71.82"/>
</g>
<!-- Node7 -->
<g id="node7" class="node">
<title>Node7</title>
<g id="a_node7"><a xlink:href="d__msg__class_8cpp.html" target="_top" xlink:title=" ">
<polygon fill="white" stroke="#666666" points="2040,-24.5 1901,-24.5 1901,-5.5 2040,-5.5 2040,-24.5"/>
<text text-anchor="middle" x="1970.5" y="-12.5" font-family="Helvetica,sans-Serif" font-size="10.00">src/d/msg/d_msg_class.cpp</text>
</a>
</g>
</g>
<!-- Node5&#45;&gt;Node7 -->
<g id="edge6" class="edge">
<title>Node5&#45;&gt;Node7</title>
<path fill="none" stroke="#63b8ff" d="M1916.84,-58.93C1931.31,-47.35 1948.49,-33.61 1959.44,-24.84"/>
<polygon fill="#63b8ff" stroke="#63b8ff" points="1915.06,-55.87 1909.44,-64.85 1919.43,-61.34 1915.06,-55.87"/>
</g>
<!-- Node8 -->
<g id="node8" class="node">
<title>Node8</title>
<g id="a_node8"><a xlink:href="d__msg__object_8cpp.html" target="_top" xlink:title=" ">
<polygon fill="white" stroke="#666666" points="1882.5,-24.5 1740.5,-24.5 1740.5,-5.5 1882.5,-5.5 1882.5,-24.5"/>
<text text-anchor="middle" x="1811.5" y="-12.5" font-family="Helvetica,sans-Serif" font-size="10.00">src/d/msg/d_msg_object.cpp</text>
</a>
</g>
</g>
<!-- Node5&#45;&gt;Node8 -->
<g id="edge7" class="edge">
<title>Node5&#45;&gt;Node8</title>
<path fill="none" stroke="#63b8ff" d="M1864.09,-58.6C1849.88,-47.1 1833.13,-33.52 1822.42,-24.84"/>
<polygon fill="#63b8ff" stroke="#63b8ff" points="1861.82,-61.27 1871.79,-64.84 1866.22,-55.83 1861.82,-61.27"/>
</g>
<!-- Node9&#45;&gt;Node7 -->
<g id="edge19" class="edge">
<title>Node9&#45;&gt;Node7</title>
<path fill="none" stroke="#63b8ff" d="M2838.88,-78.82C2694.43,-75.66 2341.74,-64.75 2048.5,-30 2037.71,-28.72 2026.15,-26.9 2015.32,-24.99"/>
<polygon fill="#63b8ff" stroke="#63b8ff" points="2838.57,-82.31 2848.64,-79.02 2838.72,-75.31 2838.57,-82.31"/>
</g>
<!-- Node9&#45;&gt;Node8 -->
<g id="edge21" class="edge">
<title>Node9&#45;&gt;Node8</title>
<path fill="none" stroke="#63b8ff" d="M2838.84,-79.57C2676.35,-77.89 2247.09,-69.73 1891.5,-30 1880.29,-28.75 1868.27,-26.91 1857.05,-24.98"/>
<polygon fill="#63b8ff" stroke="#63b8ff" points="2838.53,-83.06 2848.56,-79.66 2838.6,-76.06 2838.53,-83.06"/>
</g>
<!-- Node10 -->
<g id="node10" class="node">
<title>Node10</title>
<g id="a_node10"><a xlink:href="d__timer_8h.html" target="_top" xlink:title=" ">
<polygon fill="#fff0f0" stroke="red" points="3136.5,-24.5 3038.5,-24.5 3038.5,-5.5 3136.5,-5.5 3136.5,-24.5"/>
<text text-anchor="middle" x="3087.5" y="-12.5" font-family="Helvetica,sans-Serif" font-size="10.00">include/d/d_timer.h</text>
</a>
</g>
</g>
<!-- Node9&#45;&gt;Node10 -->
<g id="edge9" class="edge">
<title>Node9&#45;&gt;Node10</title>
<path fill="none" stroke="#63b8ff" d="M2957.11,-61.85C2991.37,-49.8 3034.87,-34.51 3061.95,-24.99"/>
<polygon fill="#63b8ff" stroke="#63b8ff" points="2956.04,-58.52 2947.77,-65.14 2958.37,-65.12 2956.04,-58.52"/>
</g>
<!-- Node14 -->
<g id="node11" class="node">
<title>Node14</title>
<g id="a_node11"><a xlink:href="d__a__alink_8cpp.html" target="_top" xlink:title=" ">
<polygon fill="white" stroke="#666666" points="3264,-24.5 3155,-24.5 3155,-5.5 3264,-5.5 3264,-24.5"/>
<text text-anchor="middle" x="3209.5" y="-12.5" font-family="Helvetica,sans-Serif" font-size="10.00">src/d/a/d_a_alink.cpp</text>
</a>
</g>
</g>
<!-- Node9&#45;&gt;Node14 -->
<g id="edge10" class="edge">
<title>Node9&#45;&gt;Node14</title>
<path fill="none" stroke="#63b8ff" d="M2971.8,-65.53C3049.42,-49.19 3070.74,-45.82 3145.5,-30 3153.07,-28.4 3161.13,-26.66 3168.89,-24.97"/>
<polygon fill="#63b8ff" stroke="#63b8ff" points="2971.54,-62.01 2962.47,-67.5 2972.98,-68.86 2971.54,-62.01"/>
</g>
<!-- Node15 -->
<g id="node12" class="node">
<title>Node15</title>
<g id="a_node12"><a xlink:href="d__a__npc_8cpp.html" target="_top" xlink:title=" ">
<polygon fill="white" stroke="#666666" points="3386.5,-24.5 3282.5,-24.5 3282.5,-5.5 3386.5,-5.5 3386.5,-24.5"/>
<text text-anchor="middle" x="3334.5" y="-12.5" font-family="Helvetica,sans-Serif" font-size="10.00">src/d/a/d_a_npc.cpp</text>
</a>
</g>
</g>
<!-- Node9&#45;&gt;Node15 -->
<g id="edge11" class="edge">
<title>Node9&#45;&gt;Node15</title>
<path fill="none" stroke="#63b8ff" d="M2971.98,-65.69C3105.18,-43.96 3142.37,-52.36 3272.5,-30 3280.66,-28.6 3289.36,-26.82 3297.58,-25"/>
<polygon fill="#63b8ff" stroke="#63b8ff" points="2971.72,-62.19 2962.43,-67.28 2972.87,-69.09 2971.72,-62.19"/>
</g>
<!-- Node16 -->
<g id="node13" class="node">
<title>Node16</title>
<g id="a_node13"><a xlink:href="d__demo_8cpp.html" target="_top" xlink:title=" ">
<polygon fill="white" stroke="#666666" points="3498.5,-24.5 3404.5,-24.5 3404.5,-5.5 3498.5,-5.5 3498.5,-24.5"/>
<text text-anchor="middle" x="3451.5" y="-12.5" font-family="Helvetica,sans-Serif" font-size="10.00">src/d/d_demo.cpp</text>
</a>
</g>
</g>
<!-- Node9&#45;&gt;Node16 -->
<g id="edge12" class="edge">
<title>Node9&#45;&gt;Node16</title>
<path fill="none" stroke="#63b8ff" d="M2972.27,-65.73C3159.41,-38.53 3211.72,-60.53 3395.5,-30 3403.31,-28.7 3411.63,-26.87 3419.41,-24.96"/>
<polygon fill="#63b8ff" stroke="#63b8ff" points="2971.8,-62.26 2962.42,-67.19 2972.82,-69.18 2971.8,-62.26"/>
</g>
<!-- Node17 -->
<g id="node14" class="node">
<title>Node17</title>
<g id="a_node14"><a xlink:href="d__event_8cpp.html" target="_top" xlink:title=" ">
<polygon fill="white" stroke="#666666" points="3638,-24.5 3517,-24.5 3517,-5.5 3638,-5.5 3638,-24.5"/>
<text text-anchor="middle" x="3577.5" y="-12.5" font-family="Helvetica,sans-Serif" font-size="10.00">src/d/event/d_event.cpp</text>
</a>
</g>
</g>
<!-- Node9&#45;&gt;Node17 -->
<g id="edge13" class="edge">
<title>Node9&#45;&gt;Node17</title>
<path fill="none" stroke="#63b8ff" d="M2972.3,-65.75C3208.78,-33.2 3273.65,-61.07 3507.5,-30 3517.21,-28.71 3527.59,-26.88 3537.3,-24.97"/>
<polygon fill="#63b8ff" stroke="#63b8ff" points="2971.83,-62.29 2962.41,-67.14 2972.8,-69.22 2971.83,-62.29"/>
</g>
<!-- Node18 -->
<g id="node15" class="node">
<title>Node18</title>
<g id="a_node15"><a xlink:href="d__event__data_8cpp.html" target="_top" xlink:title=" ">
<polygon fill="white" stroke="#666666" points="3759,-30 3656,-30 3656,0 3759,0 3759,-30"/>
<text text-anchor="start" x="3664" y="-18" font-family="Helvetica,sans-Serif" font-size="10.00">src/d/event/d_event</text>
<text text-anchor="middle" x="3707.5" y="-7" font-family="Helvetica,sans-Serif" font-size="10.00">_data.cpp</text>
</a>
</g>
</g>
<!-- Node9&#45;&gt;Node18 -->
<g id="edge14" class="edge">
<title>Node9&#45;&gt;Node18</title>
<path fill="none" stroke="#63b8ff" d="M2972.07,-65.82C3270.54,-26.75 3352.39,-71.93 3647.5,-30 3650.15,-29.62 3652.85,-29.19 3655.57,-28.71"/>
<polygon fill="#63b8ff" stroke="#63b8ff" points="2971.86,-62.31 2962.41,-67.1 2972.78,-69.25 2971.86,-62.31"/>
</g>
<!-- Node19 -->
<g id="node16" class="node">
<title>Node19</title>
<g id="a_node16"><a xlink:href="d__kankyo_8cpp.html" target="_top" xlink:title=" ">
<polygon fill="white" stroke="#666666" points="3911.5,-24.5 3777.5,-24.5 3777.5,-5.5 3911.5,-5.5 3911.5,-24.5"/>
<text text-anchor="middle" x="3844.5" y="-12.5" font-family="Helvetica,sans-Serif" font-size="10.00">src/d/kankyo/d_kankyo.cpp</text>
</a>
</g>
</g>
<!-- Node9&#45;&gt;Node19 -->
<g id="edge15" class="edge">
<title>Node9&#45;&gt;Node19</title>
<path fill="none" stroke="#63b8ff" d="M2972.18,-65.81C3323.95,-20.9 3419.03,-69.87 3768.5,-30 3779.3,-28.77 3790.87,-26.91 3801.65,-24.96"/>
<polygon fill="#63b8ff" stroke="#63b8ff" points="2971.87,-62.33 2962.4,-67.08 2972.77,-69.27 2971.87,-62.33"/>
</g>
<!-- Node20 -->
<g id="node17" class="node">
<title>Node20</title>
<g id="a_node17"><a xlink:href="d__menu__window_8cpp.html" target="_top" xlink:title=" ">
<polygon fill="white" stroke="#666666" points="4089,-24.5 3930,-24.5 3930,-5.5 4089,-5.5 4089,-24.5"/>
<text text-anchor="middle" x="4009.5" y="-12.5" font-family="Helvetica,sans-Serif" font-size="10.00">src/d/menu/d_menu_window.cpp</text>
</a>
</g>
</g>
<!-- Node9&#45;&gt;Node20 -->
<g id="edge16" class="edge">
<title>Node9&#45;&gt;Node20</title>
<path fill="none" stroke="#63b8ff" d="M2972.11,-65.84C3391.05,-13.61 3503.22,-70.57 3920.5,-30 3933.11,-28.77 3946.65,-26.92 3959.27,-24.96"/>
<polygon fill="#63b8ff" stroke="#63b8ff" points="2971.88,-62.34 2962.4,-67.06 2972.76,-69.28 2971.88,-62.34"/>
</g>
<!-- Node21 -->
<g id="node18" class="node">
<title>Node21</title>
<g id="a_node18"><a xlink:href="d__meter2__draw_8cpp.html" target="_top" xlink:title=" ">
<polygon fill="white" stroke="#666666" points="4217.5,-30 4107.5,-30 4107.5,0 4217.5,0 4217.5,-30"/>
<text text-anchor="start" x="4115.5" y="-18" font-family="Helvetica,sans-Serif" font-size="10.00">src/d/meter/d_meter2</text>
<text text-anchor="middle" x="4162.5" y="-7" font-family="Helvetica,sans-Serif" font-size="10.00">_draw.cpp</text>
</a>
</g>
</g>
<!-- Node9&#45;&gt;Node21 -->
<g id="edge17" class="edge">
<title>Node9&#45;&gt;Node21</title>
<path fill="none" stroke="#63b8ff" d="M2971.97,-65.87C3469.66,-5.38 3603.95,-91.45 4098.5,-30 4101.32,-29.65 4104.2,-29.23 4107.1,-28.77"/>
<polygon fill="#63b8ff" stroke="#63b8ff" points="2971.9,-62.35 2962.4,-67.05 2972.75,-69.3 2971.9,-62.35"/>
</g>
<!-- Node22 -->
<g id="node19" class="node">
<title>Node22</title>
<g id="a_node19"><a xlink:href="d__meter__map_8cpp.html" target="_top" xlink:title=" ">
<polygon fill="white" stroke="#666666" points="4339.5,-30 4235.5,-30 4235.5,0 4339.5,0 4339.5,-30"/>
<text text-anchor="start" x="4243.5" y="-18" font-family="Helvetica,sans-Serif" font-size="10.00">src/d/meter/d_meter</text>
<text text-anchor="middle" x="4287.5" y="-7" font-family="Helvetica,sans-Serif" font-size="10.00">_map.cpp</text>
</a>
</g>
</g>
<!-- Node9&#45;&gt;Node22 -->
<g id="edge18" class="edge">
<title>Node9&#45;&gt;Node22</title>
<path fill="none" stroke="#63b8ff" d="M2971.98,-65.87C3526.21,0.66 3675.77,-100.39 4226.5,-30 4229.3,-29.64 4232.16,-29.21 4235.05,-28.73"/>
<polygon fill="#63b8ff" stroke="#63b8ff" points="2971.9,-62.36 2962.4,-67.04 2972.75,-69.31 2971.9,-62.36"/>
</g>
<!-- Node23 -->
<g id="node20" class="node">
<title>Node23</title>
<g id="a_node20"><a xlink:href="d__msg__flow_8cpp.html" target="_top" xlink:title=" ">
<polygon fill="white" stroke="#666666" points="2191,-24.5 2058,-24.5 2058,-5.5 2191,-5.5 2191,-24.5"/>
<text text-anchor="middle" x="2124.5" y="-12.5" font-family="Helvetica,sans-Serif" font-size="10.00">src/d/msg/d_msg_flow.cpp</text>
</a>
</g>
</g>
<!-- Node9&#45;&gt;Node23 -->
<g id="edge20" class="edge">
<title>Node9&#45;&gt;Node23</title>
<path fill="none" stroke="#63b8ff" d="M2839.07,-77.82C2713.64,-73.14 2433.51,-60.03 2199.5,-30 2189.25,-28.69 2178.29,-26.87 2167.99,-24.99"/>
<polygon fill="#63b8ff" stroke="#63b8ff" points="2838.73,-81.31 2848.85,-78.18 2838.99,-74.31 2838.73,-81.31"/>
</g>
<!-- Node24 -->
<g id="node21" class="node">
<title>Node24</title>
<g id="a_node21"><a xlink:href="d__msg__out__font_8cpp.html" target="_top" xlink:title=" ">
<polygon fill="white" stroke="#666666" points="2320,-30 2209,-30 2209,0 2320,0 2320,-30"/>
<text text-anchor="start" x="2217" y="-18" font-family="Helvetica,sans-Serif" font-size="10.00">src/d/msg/d_msg_out</text>
<text text-anchor="middle" x="2264.5" y="-7" font-family="Helvetica,sans-Serif" font-size="10.00">_font.cpp</text>
</a>
</g>
</g>
<!-- Node9&#45;&gt;Node24 -->
<g id="edge22" class="edge">
<title>Node9&#45;&gt;Node24</title>
<path fill="none" stroke="#63b8ff" d="M2838.71,-76.93C2731.04,-71.37 2512.66,-57.56 2329.5,-30 2326.53,-29.55 2323.5,-29.05 2320.44,-28.51"/>
<polygon fill="#63b8ff" stroke="#63b8ff" points="2838.35,-80.42 2848.52,-77.43 2838.71,-73.42 2838.35,-80.42"/>
</g>
<!-- Node25 -->
<g id="node22" class="node">
<title>Node25</title>
<g id="a_node22"><a xlink:href="d__s__play_8cpp.html" target="_top" xlink:title=" ">
<polygon fill="white" stroke="#666666" points="2444.5,-24.5 2338.5,-24.5 2338.5,-5.5 2444.5,-5.5 2444.5,-24.5"/>
<text text-anchor="middle" x="2391.5" y="-12.5" font-family="Helvetica,sans-Serif" font-size="10.00">src/d/s/d_s_play.cpp</text>
</a>
</g>
</g>
<!-- Node9&#45;&gt;Node25 -->
<g id="edge23" class="edge">
<title>Node9&#45;&gt;Node25</title>
<path fill="none" stroke="#63b8ff" d="M2838.79,-74.97C2750.32,-67.76 2589.5,-52.8 2453.5,-30 2445.23,-28.61 2436.4,-26.82 2428.08,-24.97"/>
<polygon fill="#63b8ff" stroke="#63b8ff" points="2838.5,-78.46 2848.75,-75.77 2839.06,-71.48 2838.5,-78.46"/>
</g>
<!-- Node26 -->
<g id="node23" class="node">
<title>Node26</title>
<g id="a_node23"><a xlink:href="d__shop__system_8cpp.html" target="_top" xlink:title=" ">
<polygon fill="white" stroke="#666666" points="2614.5,-24.5 2462.5,-24.5 2462.5,-5.5 2614.5,-5.5 2614.5,-24.5"/>
<text text-anchor="middle" x="2538.5" y="-12.5" font-family="Helvetica,sans-Serif" font-size="10.00">src/d/shop/d_shop_system.cpp</text>
</a>
</g>
</g>
<!-- Node9&#45;&gt;Node26 -->
<g id="edge24" class="edge">
<title>Node9&#45;&gt;Node26</title>
<path fill="none" stroke="#63b8ff" d="M2839.03,-68.41C2767.41,-55.92 2654.97,-36.31 2589.84,-24.95"/>
<polygon fill="#63b8ff" stroke="#63b8ff" points="2838.22,-71.82 2848.67,-70.09 2839.42,-64.92 2838.22,-71.82"/>
</g>
<!-- Node27 -->
<g id="node24" class="node">
<title>Node27</title>
<g id="a_node24"><a xlink:href="f__op__msg__mng_8cpp.html" target="_top" xlink:title=" ">
<polygon fill="white" stroke="#666666" points="2772.5,-24.5 2632.5,-24.5 2632.5,-5.5 2772.5,-5.5 2772.5,-24.5"/>
<text text-anchor="middle" x="2702.5" y="-12.5" font-family="Helvetica,sans-Serif" font-size="10.00">src/f_op/f_op_msg_mng.cpp</text>
</a>
</g>
</g>
<!-- Node9&#45;&gt;Node27 -->
<g id="edge25" class="edge">
<title>Node9&#45;&gt;Node27</title>
<path fill="none" stroke="#63b8ff" d="M2849.16,-62.24C2810.73,-50.12 2761.45,-34.59 2730.93,-24.96"/>
<polygon fill="#63b8ff" stroke="#63b8ff" points="2847.66,-65.43 2858.25,-65.1 2849.76,-58.76 2847.66,-65.43"/>
</g>
<!-- Node28 -->
<g id="node25" class="node">
<title>Node28</title>
<g id="a_node25"><a xlink:href="d__msg__scrn__base_8cpp.html" target="_top" xlink:title=" ">
<polygon fill="white" stroke="#666666" points="2896.5,-30 2790.5,-30 2790.5,0 2896.5,0 2896.5,-30"/>
<text text-anchor="start" x="2798.5" y="-18" font-family="Helvetica,sans-Serif" font-size="10.00">src/msg/scrn/d_msg</text>
<text text-anchor="middle" x="2843.5" y="-7" font-family="Helvetica,sans-Serif" font-size="10.00">_scrn_base.cpp</text>
</a>
</g>
</g>
<!-- Node9&#45;&gt;Node28 -->
<g id="edge26" class="edge">
<title>Node9&#45;&gt;Node28</title>
<path fill="none" stroke="#63b8ff" d="M2884,-57.81C2875.12,-48.64 2865.08,-38.28 2857.22,-30.16"/>
<polygon fill="#63b8ff" stroke="#63b8ff" points="2881.22,-59.96 2890.69,-64.71 2886.24,-55.09 2881.22,-59.96"/>
</g>
<!-- Node29 -->
<g id="node26" class="node">
<title>Node29</title>
<g id="a_node26"><a xlink:href="d__msg__scrn__boss_8cpp.html" target="_top" xlink:title=" ">
<polygon fill="white" stroke="#666666" points="3020.5,-30 2914.5,-30 2914.5,0 3020.5,0 3020.5,-30"/>
<text text-anchor="start" x="2922.5" y="-18" font-family="Helvetica,sans-Serif" font-size="10.00">src/msg/scrn/d_msg</text>
<text text-anchor="middle" x="2967.5" y="-7" font-family="Helvetica,sans-Serif" font-size="10.00">_scrn_boss.cpp</text>
</a>
</g>
</g>
<!-- Node9&#45;&gt;Node29 -->
<g id="edge27" class="edge">
<title>Node9&#45;&gt;Node29</title>
<path fill="none" stroke="#63b8ff" d="M2927,-57.81C2935.88,-48.64 2945.92,-38.28 2953.78,-30.16"/>
<polygon fill="#63b8ff" stroke="#63b8ff" points="2924.76,-55.09 2920.31,-64.71 2929.78,-59.96 2924.76,-55.09"/>
</g>
<!-- Node30 -->
<g id="node27" class="node">
<title>Node30</title>
<g id="a_node27"><a xlink:href="d__msg__scrn__explain_8cpp.html" target="_top" xlink:title=" ">
<polygon fill="white" stroke="#666666" points="1722.5,-30 1616.5,-30 1616.5,0 1722.5,0 1722.5,-30"/>
<text text-anchor="start" x="1624.5" y="-18" font-family="Helvetica,sans-Serif" font-size="10.00">src/msg/scrn/d_msg</text>
<text text-anchor="middle" x="1669.5" y="-7" font-family="Helvetica,sans-Serif" font-size="10.00">_scrn_explain.cpp</text>
</a>
</g>
</g>
<!-- Node9&#45;&gt;Node30 -->
<g id="edge28" class="edge">
<title>Node9&#45;&gt;Node30</title>
<path fill="none" stroke="#63b8ff" d="M2838.73,-78.73C2623.27,-74.4 1947.94,-58.81 1731.5,-30 1728.66,-29.62 1725.75,-29.18 1722.82,-28.68"/>
<polygon fill="#63b8ff" stroke="#63b8ff" points="2838.57,-82.23 2848.63,-78.93 2838.71,-75.23 2838.57,-82.23"/>
</g>
<!-- Node37 -->
<g id="node31" class="node">
<title>Node37</title>
<g id="a_node31"><a xlink:href="d__msg__string_8h.html" target="_top" xlink:title=" ">
<polygon fill="white" stroke="#666666" points="1035.5,-96 925.5,-96 925.5,-66 1035.5,-66 1035.5,-96"/>
<text text-anchor="start" x="933.5" y="-84" font-family="Helvetica,sans-Serif" font-size="10.00">include/d/msg/d_msg</text>
<text text-anchor="middle" x="980.5" y="-73" font-family="Helvetica,sans-Serif" font-size="10.00">_string.h</text>
</a>
</g>
</g>
<!-- Node36&#45;&gt;Node37 -->
<g id="edge33" class="edge">
<title>Node36&#45;&gt;Node37</title>
<path fill="none" stroke="#63b8ff" d="M1329.3,-135.79C1248.06,-123.26 1111.77,-102.24 1035.84,-90.53"/>
<polygon fill="#63b8ff" stroke="#63b8ff" points="1328.48,-139.21 1338.9,-137.27 1329.55,-132.29 1328.48,-139.21"/>
</g>
<!-- Node48 -->
<g id="node41" class="node">
<title>Node48</title>
<g id="a_node41"><a xlink:href="d__msg__string__base_8cpp.html" target="_top" xlink:title=" ">
<polygon fill="white" stroke="#666666" points="1456.5,-96 1334.5,-96 1334.5,-66 1456.5,-66 1456.5,-96"/>
<text text-anchor="start" x="1342.5" y="-84" font-family="Helvetica,sans-Serif" font-size="10.00">src/d/msg/d_msg_string</text>
<text text-anchor="middle" x="1395.5" y="-73" font-family="Helvetica,sans-Serif" font-size="10.00">_base.cpp</text>
</a>
</g>
</g>
<!-- Node36&#45;&gt;Node48 -->
<g id="edge45" class="edge">
<title>Node36&#45;&gt;Node48</title>
<path fill="none" stroke="#63b8ff" d="M1395.5,-120.39C1395.5,-112.13 1395.5,-103.28 1395.5,-96.16"/>
<polygon fill="#63b8ff" stroke="#63b8ff" points="1392,-120.28 1395.5,-130.28 1399,-120.28 1392,-120.28"/>
</g>
<!-- Node37&#45;&gt;Node6 -->
<g id="edge40" class="edge">
<title>Node37&#45;&gt;Node6</title>
<path fill="none" stroke="#63b8ff" d="M1047.13,-73.85C1136.23,-65.37 1299.06,-48.96 1437.5,-30 1448.32,-28.52 1459.88,-26.74 1470.88,-24.96"/>
<polygon fill="#63b8ff" stroke="#63b8ff" points="1046.97,-70.35 1037.35,-74.78 1047.63,-77.32 1046.97,-70.35"/>
</g>
<!-- Node37&#45;&gt;Node30 -->
<g id="edge44" class="edge">
<title>Node37&#45;&gt;Node30</title>
<path fill="none" stroke="#63b8ff" d="M1047.12,-77.81C1162.05,-73.33 1404.75,-60.81 1607.5,-30 1610.34,-29.57 1613.24,-29.08 1616.16,-28.55"/>
<polygon fill="#63b8ff" stroke="#63b8ff" points="1047.11,-74.3 1037.25,-78.18 1047.38,-81.3 1047.11,-74.3"/>
</g>
<!-- Node38 -->
<g id="node32" class="node">
<title>Node38</title>
<g id="a_node32"><a xlink:href="d__file__select_8h.html" target="_top" xlink:title=" ">
<polygon fill="#fff0f0" stroke="red" points="1096.5,-30 1000.5,-30 1000.5,0 1096.5,0 1096.5,-30"/>
<text text-anchor="start" x="1008.5" y="-18" font-family="Helvetica,sans-Serif" font-size="10.00">include/d/file/d_file</text>
<text text-anchor="middle" x="1048.5" y="-7" font-family="Helvetica,sans-Serif" font-size="10.00">_select.h</text>
</a>
</g>
</g>
<!-- Node37&#45;&gt;Node38 -->
<g id="edge34" class="edge">
<title>Node37&#45;&gt;Node38</title>
<path fill="none" stroke="#63b8ff" d="M1003.78,-58.09C1013.6,-48.85 1024.74,-38.36 1033.45,-30.16"/>
<polygon fill="#63b8ff" stroke="#63b8ff" points="1001.58,-55.36 996.69,-64.76 1006.37,-60.45 1001.58,-55.36"/>
</g>
<!-- Node40 -->
<g id="node33" class="node">
<title>Node40</title>
<g id="a_node33"><a xlink:href="d__bright__check_8cpp.html" target="_top" xlink:title=" ">
<polygon fill="white" stroke="#666666" points="1240,-24.5 1115,-24.5 1115,-5.5 1240,-5.5 1240,-24.5"/>
<text text-anchor="middle" x="1177.5" y="-12.5" font-family="Helvetica,sans-Serif" font-size="10.00">src/d/d_bright_check.cpp</text>
</a>
</g>
</g>
<!-- Node37&#45;&gt;Node40 -->
<g id="edge35" class="edge">
<title>Node37&#45;&gt;Node40</title>
<path fill="none" stroke="#63b8ff" d="M1035.4,-62.16C1072.64,-50.07 1120.28,-34.59 1149.84,-24.99"/>
<polygon fill="#63b8ff" stroke="#63b8ff" points="1034.58,-58.75 1026.15,-65.17 1036.74,-65.41 1034.58,-58.75"/>
</g>
<!-- Node41 -->
<g id="node34" class="node">
<title>Node41</title>
<g id="a_node34"><a xlink:href="d__menu__calibration_8cpp.html" target="_top" xlink:title=" ">
<polygon fill="white" stroke="#666666" points="1428.5,-24.5 1258.5,-24.5 1258.5,-5.5 1428.5,-5.5 1428.5,-24.5"/>
<text text-anchor="middle" x="1343.5" y="-12.5" font-family="Helvetica,sans-Serif" font-size="10.00">src/d/menu/d_menu_calibration.cpp</text>
</a>
</g>
</g>
<!-- Node37&#45;&gt;Node41 -->
<g id="edge36" class="edge">
<title>Node37&#45;&gt;Node41</title>
<path fill="none" stroke="#63b8ff" d="M1046.64,-68.34C1117.43,-55.86 1228.22,-36.32 1292.55,-24.98"/>
<polygon fill="#63b8ff" stroke="#63b8ff" points="1046.36,-64.83 1037.12,-70.02 1047.58,-71.73 1046.36,-64.83"/>
</g>
<!-- Node42 -->
<g id="node35" class="node">
<title>Node42</title>
<g id="a_node35"><a xlink:href="d__menu__collect_8cpp.html" target="_top" xlink:title=" ">
<polygon fill="white" stroke="#666666" points="155,-24.5 0,-24.5 0,-5.5 155,-5.5 155,-24.5"/>
<text text-anchor="middle" x="77.5" y="-12.5" font-family="Helvetica,sans-Serif" font-size="10.00">src/d/menu/d_menu_collect.cpp</text>
</a>
</g>
</g>
<!-- Node37&#45;&gt;Node42 -->
<g id="edge37" class="edge">
<title>Node37&#45;&gt;Node42</title>
<path fill="none" stroke="#63b8ff" d="M914.14,-78.15C774.87,-73.77 442.01,-60.76 164.5,-30 152.64,-28.69 139.93,-26.87 127.99,-24.99"/>
<polygon fill="#63b8ff" stroke="#63b8ff" points="913.81,-81.64 923.91,-78.45 914.02,-74.64 913.81,-81.64"/>
</g>
<!-- Node43 -->
<g id="node36" class="node">
<title>Node43</title>
<g id="a_node36"><a xlink:href="d__menu__fishing_8cpp.html" target="_top" xlink:title=" ">
<polygon fill="white" stroke="#666666" points="327.5,-24.5 173.5,-24.5 173.5,-5.5 327.5,-5.5 327.5,-24.5"/>
<text text-anchor="middle" x="250.5" y="-12.5" font-family="Helvetica,sans-Serif" font-size="10.00">src/d/menu/d_menu_fishing.cpp</text>
</a>
</g>
</g>
<!-- Node37&#45;&gt;Node43 -->
<g id="edge38" class="edge">
<title>Node37&#45;&gt;Node43</title>
<path fill="none" stroke="#63b8ff" d="M913.97,-76.68C796.92,-70.43 546.62,-55.21 336.5,-30 325.09,-28.63 312.87,-26.84 301.33,-25"/>
<polygon fill="#63b8ff" stroke="#63b8ff" points="913.53,-80.16 923.7,-77.19 913.9,-73.17 913.53,-80.16"/>
</g>
<!-- Node44 -->
<g id="node37" class="node">
<title>Node44</title>
<g id="a_node37"><a xlink:href="d__menu__insect_8cpp.html" target="_top" xlink:title=" ">
<polygon fill="white" stroke="#666666" points="497.5,-24.5 345.5,-24.5 345.5,-5.5 497.5,-5.5 497.5,-24.5"/>
<text text-anchor="middle" x="421.5" y="-12.5" font-family="Helvetica,sans-Serif" font-size="10.00">src/d/menu/d_menu_insect.cpp</text>
</a>
</g>
</g>
<!-- Node37&#45;&gt;Node44 -->
<g id="edge39" class="edge">
<title>Node37&#45;&gt;Node44</title>
<path fill="none" stroke="#63b8ff" d="M913.93,-74.21C822.08,-65.94 651.4,-49.56 506.5,-30 495.68,-28.54 484.12,-26.77 473.12,-25"/>
<polygon fill="#63b8ff" stroke="#63b8ff" points="913.5,-77.68 923.77,-75.09 914.12,-70.71 913.5,-77.68"/>
</g>
<!-- Node45 -->
<g id="node38" class="node">
<title>Node45</title>
<g id="a_node38"><a xlink:href="d__menu__save_8cpp.html" target="_top" xlink:title=" ">
<polygon fill="white" stroke="#666666" points="663,-24.5 516,-24.5 516,-5.5 663,-5.5 663,-24.5"/>
<text text-anchor="middle" x="589.5" y="-12.5" font-family="Helvetica,sans-Serif" font-size="10.00">src/d/menu/d_menu_save.cpp</text>
</a>
</g>
</g>
<!-- Node37&#45;&gt;Node45 -->
<g id="edge41" class="edge">
<title>Node37&#45;&gt;Node45</title>
<path fill="none" stroke="#63b8ff" d="M913.93,-69.4C851.33,-59.39 755.02,-43.89 671.5,-30 661.81,-28.39 651.49,-26.65 641.54,-24.96"/>
<polygon fill="#63b8ff" stroke="#63b8ff" points="913.29,-72.84 923.72,-70.96 914.4,-65.93 913.29,-72.84"/>
</g>
<!-- Node46 -->
<g id="node39" class="node">
<title>Node46</title>
<g id="a_node39"><a xlink:href="d__menu__skill_8cpp.html" target="_top" xlink:title=" ">
<polygon fill="white" stroke="#666666" points="824,-24.5 681,-24.5 681,-5.5 824,-5.5 824,-24.5"/>
<text text-anchor="middle" x="752.5" y="-12.5" font-family="Helvetica,sans-Serif" font-size="10.00">src/d/menu/d_menu_skill.cpp</text>
</a>
</g>
</g>
<!-- Node37&#45;&gt;Node46 -->
<g id="edge42" class="edge">
<title>Node37&#45;&gt;Node46</title>
<path fill="none" stroke="#63b8ff" d="M918.05,-62.47C874.77,-50.32 818.93,-34.65 784.43,-24.96"/>
<polygon fill="#63b8ff" stroke="#63b8ff" points="917.02,-65.82 927.59,-65.15 918.91,-59.08 917.02,-65.82"/>
</g>
<!-- Node47 -->
<g id="node40" class="node">
<title>Node47</title>
<g id="a_node40"><a xlink:href="d__msg__string_8cpp.html" target="_top" xlink:title=" ">
<polygon fill="white" stroke="#666666" points="982.5,-24.5 842.5,-24.5 842.5,-5.5 982.5,-5.5 982.5,-24.5"/>
<text text-anchor="middle" x="912.5" y="-12.5" font-family="Helvetica,sans-Serif" font-size="10.00">src/d/msg/d_msg_string.cpp</text>
</a>
</g>
</g>
<!-- Node37&#45;&gt;Node47 -->
<g id="edge43" class="edge">
<title>Node37&#45;&gt;Node47</title>
<path fill="none" stroke="#63b8ff" d="M957.07,-57.94C944.99,-46.58 930.94,-33.36 921.9,-24.84"/>
<polygon fill="#63b8ff" stroke="#63b8ff" points="954.63,-60.45 964.31,-64.76 959.42,-55.36 954.63,-60.45"/>
</g>
<!-- Node51 -->
<g id="node44" class="node">
<title>Node51</title>
<g id="a_node44"><a xlink:href="fvb_8h.html" target="_top" xlink:title=" ">
<polygon fill="white" stroke="#666666" points="3467,-228 3342,-228 3342,-198 3467,-198 3467,-228"/>
<text text-anchor="start" x="3350" y="-216" font-family="Helvetica,sans-Serif" font-size="10.00">include/JSystem/JStudio</text>
<text text-anchor="middle" x="3404.5" y="-205" font-family="Helvetica,sans-Serif" font-size="10.00">/JStudio/fvb.h</text>
</a>
</g>
</g>
<!-- Node50&#45;&gt;Node51 -->
<g id="edge48" class="edge">
<title>Node50&#45;&gt;Node51</title>
<path fill="none" stroke="#63b8ff" d="M3299.41,-259.14C3322.27,-249.32 3349.78,-237.51 3370.92,-228.43"/>
<polygon fill="#63b8ff" stroke="#63b8ff" points="3298.14,-255.88 3290.33,-263.04 3300.9,-262.31 3298.14,-255.88"/>
</g>
<!-- Node82 -->
<g id="node49" class="node">
<title>Node82</title>
<g id="a_node49"><a xlink:href="fvb-data-parse_8cpp.html" target="_top" xlink:title=" ">
<polygon fill="white" stroke="#666666" points="3323.5,-228 3187.5,-228 3187.5,-198 3323.5,-198 3323.5,-228"/>
<text text-anchor="start" x="3195.5" y="-216" font-family="Helvetica,sans-Serif" font-size="10.00">libs/JSystem/JStudio</text>
<text text-anchor="middle" x="3255.5" y="-205" font-family="Helvetica,sans-Serif" font-size="10.00">/JStudio/fvb&#45;data&#45;parse.cpp</text>
</a>
</g>
</g>
<!-- Node50&#45;&gt;Node82 -->
<g id="edge53" class="edge">
<title>Node50&#45;&gt;Node82</title>
<path fill="none" stroke="#63b8ff" d="M3255.5,-252.39C3255.5,-244.13 3255.5,-235.28 3255.5,-228.16"/>
<polygon fill="#63b8ff" stroke="#63b8ff" points="3252,-252.28 3255.5,-262.28 3259,-252.28 3252,-252.28"/>
</g>
<!-- Node52 -->
<g id="node45" class="node">
<title>Node52</title>
<g id="a_node45"><a xlink:href="jstudio-control_8h.html" target="_top" xlink:title=" ">
<polygon fill="white" stroke="#666666" points="3495,-162 3370,-162 3370,-132 3495,-132 3495,-162"/>
<text text-anchor="start" x="3378" y="-150" font-family="Helvetica,sans-Serif" font-size="10.00">include/JSystem/JStudio</text>
<text text-anchor="middle" x="3432.5" y="-139" font-family="Helvetica,sans-Serif" font-size="10.00">/JStudio/jstudio&#45;control.h</text>
</a>
</g>
</g>
<!-- Node51&#45;&gt;Node52 -->
<g id="edge49" class="edge">
<title>Node51&#45;&gt;Node52</title>
<path fill="none" stroke="#63b8ff" d="M3415.33,-187.25C3419.05,-178.75 3423.08,-169.53 3426.3,-162.16"/>
<polygon fill="#63b8ff" stroke="#63b8ff" points="3412.12,-185.85 3411.32,-196.41 3418.54,-188.65 3412.12,-185.85"/>
</g>
<!-- Node81 -->
<g id="node48" class="node">
<title>Node81</title>
<g id="a_node48"><a xlink:href="fvb_8cpp.html" target="_top" xlink:title=" ">
<polygon fill="white" stroke="#666666" points="3352,-162 3243,-162 3243,-132 3352,-132 3352,-162"/>
<text text-anchor="start" x="3251" y="-150" font-family="Helvetica,sans-Serif" font-size="10.00">libs/JSystem/JStudio</text>
<text text-anchor="middle" x="3297.5" y="-139" font-family="Helvetica,sans-Serif" font-size="10.00">/JStudio/fvb.cpp</text>
</a>
</g>
</g>
<!-- Node51&#45;&gt;Node81 -->
<g id="edge52" class="edge">
<title>Node51&#45;&gt;Node81</title>
<path fill="none" stroke="#63b8ff" d="M3370.91,-191.91C3354.86,-182.31 3336.01,-171.03 3321.43,-162.31"/>
<polygon fill="#63b8ff" stroke="#63b8ff" points="3368.81,-194.73 3379.19,-196.86 3372.4,-188.72 3368.81,-194.73"/>
</g>
<!-- Node53 -->
<g id="node46" class="node">
<title>Node53</title>
<g id="a_node46"><a xlink:href="jstudio-object_8h.html" target="_top" xlink:title=" ">
<polygon fill="#fff0f0" stroke="red" points="3439,-96 3314,-96 3314,-66 3439,-66 3439,-96"/>
<text text-anchor="start" x="3322" y="-84" font-family="Helvetica,sans-Serif" font-size="10.00">include/JSystem/JStudio</text>
<text text-anchor="middle" x="3376.5" y="-73" font-family="Helvetica,sans-Serif" font-size="10.00">/JStudio/jstudio&#45;object.h</text>
</a>
</g>
</g>
<!-- Node52&#45;&gt;Node53 -->
<g id="edge50" class="edge">
<title>Node52&#45;&gt;Node53</title>
<path fill="none" stroke="#63b8ff" d="M3412.59,-123.24C3404.69,-114.21 3395.85,-104.11 3388.89,-96.16"/>
<polygon fill="#63b8ff" stroke="#63b8ff" points="3409.86,-125.44 3419.08,-130.66 3415.12,-120.83 3409.86,-125.44"/>
</g>
<!-- Node80 -->
<g id="node47" class="node">
<title>Node80</title>
<g id="a_node47"><a xlink:href="jstudio-control_8cpp.html" target="_top" xlink:title=" ">
<polygon fill="white" stroke="#666666" points="3591.5,-96 3457.5,-96 3457.5,-66 3591.5,-66 3591.5,-96"/>
<text text-anchor="start" x="3465.5" y="-84" font-family="Helvetica,sans-Serif" font-size="10.00">libs/JSystem/JStudio</text>
<text text-anchor="middle" x="3524.5" y="-73" font-family="Helvetica,sans-Serif" font-size="10.00">/JStudio/jstudio&#45;control.cpp</text>
</a>
</g>
</g>
<!-- Node52&#45;&gt;Node80 -->
<g id="edge51" class="edge">
<title>Node52&#45;&gt;Node80</title>
<path fill="none" stroke="#63b8ff" d="M3462.33,-125.25C3475.89,-115.82 3491.59,-104.9 3503.82,-96.39"/>
<polygon fill="#63b8ff" stroke="#63b8ff" points="3460.37,-122.35 3454.16,-130.93 3464.37,-128.09 3460.37,-122.35"/>
</g>
</g>
</svg>
        <g id="navigator" transform="translate(0 0)" fill="#404254">
                <rect fill="#f2f5e9" fill-opacity="0.5" stroke="#606060" stroke-width=".5" x="0" y="0" width="60" height="60"/>
                <use id="zoomplus" xlink:href="#zoomPlus" x="17" y="9" onmousedown="handleZoom(evt,'in')"/>
                <use id="zoomminus" xlink:href="#zoomMin" x="42" y="9" onmousedown="handleZoom(evt,'out')"/>
                <use id="reset" xlink:href="#resetDef" x="30" y="36" onmousedown="handleReset()"/>
                <g id="arrowUp" xlink:href="#dirArrow" transform="translate(30 24)" onmousedown="handlePan(0,-1)">
                  <use xlink:href="#rim" fill="#404040">
                        <set attributeName="fill" to="#808080" begin="arrowUp.mouseover" end="arrowUp.mouseout"/>
                  </use>
                  <path fill="none" stroke="white" stroke-width="1.5" d="M0,-3.0v7 M-2.5,-0.5L0,-3.0L2.5,-0.5"/>
                </g>
                <g id="arrowRight" xlink:href="#dirArrow" transform="rotate(90) translate(36 -43)" onmousedown="handlePan(1,0)">
                  <use xlink:href="#rim" fill="#404040">
                        <set attributeName="fill" to="#808080" begin="arrowRight.mouseover" end="arrowRight.mouseout"/>
                  </use>
                  <path fill="none" stroke="white" stroke-width="1.5" d="M0,-3.0v7 M-2.5,-0.5L0,-3.0L2.5,-0.5"/>
                </g>
                <g id="arrowDown" xlink:href="#dirArrow" transform="rotate(180) translate(-30 -48)" onmousedown="handlePan(0,1)">
                  <use xlink:href="#rim" fill="#404040">
                        <set attributeName="fill" to="#808080" begin="arrowDown.mouseover" end="arrowDown.mouseout"/>
                  </use>
                  <path fill="none" stroke="white" stroke-width="1.5" d="M0,-3.0v7 M-2.5,-0.5L0,-3.0L2.5,-0.5"/>
                </g>
                <g id="arrowLeft" xlink:href="#dirArrow" transform="rotate(270) translate(-36 17)" onmousedown="handlePan(-1,0)">
                  <use xlink:href="#rim" fill="#404040">
                        <set attributeName="fill" to="#808080" begin="arrowLeft.mouseover" end="arrowLeft.mouseout"/>
                  </use>
                  <path fill="none" stroke="white" stroke-width="1.5" d="M0,-3.0v7 M-2.5,-0.5L0,-3.0L2.5,-0.5"/>
                </g>
        </g>
        <svg viewBox="0 0 15 15" width="100%" height="30px" preserveAspectRatio="xMaxYMin meet">
         <g id="arrow_out" transform="scale(0.3 0.3)">
          <a xlink:href="fvb-data_8h__dep__incl_org.svg" target="_base">
           <rect id="button" ry="5" rx="5" y="6" x="6" height="38" width="38"
                fill="#f2f5e9" fill-opacity="0.5" stroke="#606060" stroke-width="1.0"/>
           <path id="arrow"
             d="M 11.500037,31.436501 C 11.940474,20.09759 22.043105,11.32322 32.158766,21.979434 L 37.068811,17.246167 C 37.068811,17.246167 37.088388,32 37.088388,32 L 22.160133,31.978069 C 22.160133,31.978069 26.997745,27.140456 26.997745,27.140456 C 18.528582,18.264221 13.291696,25.230495 11.500037,31.436501 z"
             style="fill:#404040;"/>
          </a>
         </g>
        </svg>
</svg>
