<?xml version="1.0" encoding="UTF-8" standalone="no"?>
<!DOCTYPE svg PUBLIC "-//W3C//DTD SVG 1.1//EN"
 "http://www.w3.org/Graphics/SVG/1.1/DTD/svg11.dtd">
<!-- Generated by graphviz version 7.0.5 (20221223.1930)
 -->
<!-- Title: include/dolphin/gx/GX.h Pages: 1 -->
<svg width="6036pt" height="225pt"
 viewBox="0.00 0.00 6036.00 225.00" xmlns="http://www.w3.org/2000/svg" xmlns:xlink="http://www.w3.org/1999/xlink">
<g id="graph0" class="graph" transform="scale(1 1) rotate(0) translate(4 221)">
<title>include/dolphin/gx/GX.h</title>
<!-- Node1 -->
<g id="node1" class="node">
<title>Node1</title>
<g id="a_node1"><a xlink:title=" ">
<polygon fill="#999999" stroke="#666666" points="3252.5,-217 3133.5,-217 3133.5,-198 3252.5,-198 3252.5,-217"/>
<text text-anchor="middle" x="3193" y="-205" font-family="Helvetica,sans-Serif" font-size="10.00">include/dolphin/gx/GX.h</text>
</a>
</g>
</g>
<!-- Node2 -->
<g id="node2" class="node">
<title>Node2</title>
<g id="a_node2"><a xlink:href="J3DGD_8h.html" target="_top" xlink:title=" ">
<polygon fill="white" stroke="#666666" points="336.5,-162 201.5,-162 201.5,-132 336.5,-132 336.5,-162"/>
<text text-anchor="start" x="209.5" y="-150" font-family="Helvetica,sans-Serif" font-size="10.00">include/JSystem/J3DGraph</text>
<text text-anchor="middle" x="269" y="-139" font-family="Helvetica,sans-Serif" font-size="10.00">Base/J3DGD.h</text>
</a>
</g>
</g>
<!-- Node1&#45;&gt;Node2 -->
<g id="edge1" class="edge">
<title>Node1&#45;&gt;Node2</title>
<path fill="none" stroke="#63b8ff" d="M3121.71,-206.01C2709.22,-203.11 636.74,-187.36 354,-162 348.34,-161.49 342.49,-160.83 336.62,-160.06"/>
<polygon fill="#63b8ff" stroke="#63b8ff" points="3121.61,-209.51 3131.63,-206.08 3121.66,-202.51 3121.61,-209.51"/>
</g>
<!-- Node7 -->
<g id="node7" class="node">
<title>Node7</title>
<g id="a_node7"><a xlink:href="J3DShape_8h.html" target="_top" xlink:title=" ">
<polygon fill="white" stroke="#666666" points="729.5,-162 594.5,-162 594.5,-132 729.5,-132 729.5,-162"/>
<text text-anchor="start" x="602.5" y="-150" font-family="Helvetica,sans-Serif" font-size="10.00">include/JSystem/J3DGraph</text>
<text text-anchor="middle" x="662" y="-139" font-family="Helvetica,sans-Serif" font-size="10.00">Base/J3DShape.h</text>
</a>
</g>
</g>
<!-- Node1&#45;&gt;Node7 -->
<g id="edge6" class="edge">
<title>Node1&#45;&gt;Node7</title>
<path fill="none" stroke="#63b8ff" d="M3121.81,-206.76C2770.47,-207.83 1219.18,-209.69 739,-162 736.03,-161.7 732.99,-161.36 729.94,-160.97"/>
<polygon fill="#63b8ff" stroke="#63b8ff" points="3121.57,-210.26 3131.55,-206.73 3121.54,-203.26 3121.57,-210.26"/>
</g>
<!-- Node413 -->
<g id="node12" class="node">
<title>Node413</title>
<g id="a_node12"><a xlink:href="J3DSys_8h.html" target="_top" xlink:title=" ">
<polygon fill="#fff0f0" stroke="red" points="498.5,-162 363.5,-162 363.5,-132 498.5,-132 498.5,-162"/>
<text text-anchor="start" x="371.5" y="-150" font-family="Helvetica,sans-Serif" font-size="10.00">include/JSystem/J3DGraph</text>
<text text-anchor="middle" x="431" y="-139" font-family="Helvetica,sans-Serif" font-size="10.00">Base/J3DSys.h</text>
</a>
</g>
</g>
<!-- Node1&#45;&gt;Node413 -->
<g id="edge12" class="edge">
<title>Node1&#45;&gt;Node413</title>
<path fill="none" stroke="#63b8ff" d="M3121.63,-205.99C2757.05,-203.26 1099.82,-189.55 586,-162 557.4,-160.47 525.91,-157.8 498.83,-155.21"/>
<polygon fill="#63b8ff" stroke="#63b8ff" points="3121.51,-209.49 3131.53,-206.06 3121.56,-202.49 3121.51,-209.49"/>
</g>
<!-- Node421 -->
<g id="node13" class="node">
<title>Node421</title>
<g id="a_node13"><a xlink:href="jstudio-control_8h.html" target="_top" xlink:title=" ">
<polygon fill="#fff0f0" stroke="red" points="872.5,-162 747.5,-162 747.5,-132 872.5,-132 872.5,-162"/>
<text text-anchor="start" x="755.5" y="-150" font-family="Helvetica,sans-Serif" font-size="10.00">include/JSystem/JStudio</text>
<text text-anchor="middle" x="810" y="-139" font-family="Helvetica,sans-Serif" font-size="10.00">/JStudio/jstudio&#45;control.h</text>
</a>
</g>
</g>
<!-- Node1&#45;&gt;Node421 -->
<g id="edge14" class="edge">
<title>Node1&#45;&gt;Node421</title>
<path fill="none" stroke="#63b8ff" d="M3121.88,-206.79C2783.24,-207.9 1332.07,-209.73 882,-162 878.96,-161.68 875.86,-161.29 872.73,-160.86"/>
<polygon fill="#63b8ff" stroke="#63b8ff" points="3121.72,-210.29 3131.7,-206.75 3121.69,-203.29 3121.72,-210.29"/>
</g>
<!-- Node448 -->
<g id="node14" class="node">
<title>Node448</title>
<g id="a_node14"><a xlink:href="JUTGraphFifo_8h.html" target="_top" xlink:title=" ">
<polygon fill="#fff0f0" stroke="red" points="1013,-162 891,-162 891,-132 1013,-132 1013,-162"/>
<text text-anchor="start" x="899" y="-150" font-family="Helvetica,sans-Serif" font-size="10.00">include/JSystem/JUtility</text>
<text text-anchor="middle" x="952" y="-139" font-family="Helvetica,sans-Serif" font-size="10.00">/JUTGraphFifo.h</text>
</a>
</g>
</g>
<!-- Node1&#45;&gt;Node448 -->
<g id="edge15" class="edge">
<title>Node1&#45;&gt;Node448</title>
<path fill="none" stroke="#63b8ff" d="M3121.96,-206.73C2796.17,-207.55 1442.82,-208.03 1022,-162 1019.17,-161.69 1016.28,-161.32 1013.36,-160.91"/>
<polygon fill="#63b8ff" stroke="#63b8ff" points="3121.61,-210.23 3131.6,-206.71 3121.59,-203.23 3121.61,-210.23"/>
</g>
<!-- Node451 -->
<g id="node15" class="node">
<title>Node451</title>
<g id="a_node15"><a xlink:href="GFGeometry_8h.html" target="_top" xlink:title=" ">
<polygon fill="#fff0f0" stroke="red" points="1123,-162 1031,-162 1031,-132 1123,-132 1123,-162"/>
<text text-anchor="start" x="1039" y="-150" font-family="Helvetica,sans-Serif" font-size="10.00">include/dolphin/gf</text>
<text text-anchor="middle" x="1077" y="-139" font-family="Helvetica,sans-Serif" font-size="10.00">/GFGeometry.h</text>
</a>
</g>
</g>
<!-- Node1&#45;&gt;Node451 -->
<g id="edge16" class="edge">
<title>Node1&#45;&gt;Node451</title>
<path fill="none" stroke="#63b8ff" d="M3121.87,-205.93C2782.06,-203.05 1332.14,-189.27 1132,-162 1129.17,-161.61 1126.27,-161.14 1123.36,-160.59"/>
<polygon fill="#63b8ff" stroke="#63b8ff" points="3121.71,-209.42 3131.74,-206.01 3121.77,-202.42 3121.71,-209.42"/>
</g>
<!-- Node453 -->
<g id="node16" class="node">
<title>Node453</title>
<g id="a_node16"><a xlink:href="m__Do__machine__exception_8h.html" target="_top" xlink:title=" ">
<polygon fill="#fff0f0" stroke="red" points="1287,-162 1141,-162 1141,-132 1287,-132 1287,-162"/>
<text text-anchor="start" x="1149" y="-150" font-family="Helvetica,sans-Serif" font-size="10.00">include/m_Do/m_Do_machine</text>
<text text-anchor="middle" x="1214" y="-139" font-family="Helvetica,sans-Serif" font-size="10.00">_exception.h</text>
</a>
</g>
</g>
<!-- Node1&#45;&gt;Node453 -->
<g id="edge17" class="edge">
<title>Node1&#45;&gt;Node453</title>
<path fill="none" stroke="#63b8ff" d="M3121.89,-206.2C2822.25,-204.72 1661.26,-196.81 1297,-162 1293.8,-161.69 1290.54,-161.34 1287.24,-160.94"/>
<polygon fill="#63b8ff" stroke="#63b8ff" points="3121.49,-209.7 3131.5,-206.25 3121.52,-202.7 3121.49,-209.7"/>
</g>
<!-- Node454 -->
<g id="node17" class="node">
<title>Node454</title>
<g id="a_node17"><a xlink:href="J2DGrafContext_8cpp.html" target="_top" xlink:title=" ">
<polygon fill="white" stroke="#666666" points="1424.5,-162 1305.5,-162 1305.5,-132 1424.5,-132 1424.5,-162"/>
<text text-anchor="start" x="1313.5" y="-150" font-family="Helvetica,sans-Serif" font-size="10.00">libs/JSystem/J2DGraph</text>
<text text-anchor="middle" x="1365" y="-139" font-family="Helvetica,sans-Serif" font-size="10.00">/J2DGrafContext.cpp</text>
</a>
</g>
</g>
<!-- Node1&#45;&gt;Node454 -->
<g id="edge18" class="edge">
<title>Node1&#45;&gt;Node454</title>
<path fill="none" stroke="#63b8ff" d="M3121.92,-206.36C2836.01,-205.54 1769.32,-199.96 1434,-162 1430.96,-161.66 1427.86,-161.25 1424.74,-160.79"/>
<polygon fill="#63b8ff" stroke="#63b8ff" points="3121.83,-209.86 3131.84,-206.39 3121.85,-202.86 3121.83,-209.86"/>
</g>
<!-- Node455 -->
<g id="node18" class="node">
<title>Node455</title>
<g id="a_node18"><a xlink:href="J2DMatBlock_8cpp.html" target="_top" xlink:title=" ">
<polygon fill="white" stroke="#666666" points="1561.5,-162 1442.5,-162 1442.5,-132 1561.5,-132 1561.5,-162"/>
<text text-anchor="start" x="1450.5" y="-150" font-family="Helvetica,sans-Serif" font-size="10.00">libs/JSystem/J2DGraph</text>
<text text-anchor="middle" x="1502" y="-139" font-family="Helvetica,sans-Serif" font-size="10.00">/J2DMatBlock.cpp</text>
</a>
</g>
</g>
<!-- Node1&#45;&gt;Node455 -->
<g id="edge19" class="edge">
<title>Node1&#45;&gt;Node455</title>
<path fill="none" stroke="#63b8ff" d="M3122.12,-206.18C2850.8,-204.72 1878.13,-197.1 1571,-162 1567.96,-161.65 1564.86,-161.24 1561.74,-160.78"/>
<polygon fill="#63b8ff" stroke="#63b8ff" points="3121.84,-209.68 3131.85,-206.24 3121.87,-202.68 3121.84,-209.68"/>
</g>
<!-- Node456 -->
<g id="node19" class="node">
<title>Node456</title>
<g id="a_node19"><a xlink:href="J2DOrthoGraph_8cpp.html" target="_top" xlink:title=" ">
<polygon fill="white" stroke="#666666" points="1698.5,-162 1579.5,-162 1579.5,-132 1698.5,-132 1698.5,-162"/>
<text text-anchor="start" x="1587.5" y="-150" font-family="Helvetica,sans-Serif" font-size="10.00">libs/JSystem/J2DGraph</text>
<text text-anchor="middle" x="1639" y="-139" font-family="Helvetica,sans-Serif" font-size="10.00">/J2DOrthoGraph.cpp</text>
</a>
</g>
</g>
<!-- Node1&#45;&gt;Node456 -->
<g id="edge20" class="edge">
<title>Node1&#45;&gt;Node456</title>
<path fill="none" stroke="#63b8ff" d="M3121.8,-205.97C2864.99,-203.82 1986.84,-194.23 1708,-162 1704.96,-161.65 1701.86,-161.23 1698.74,-160.77"/>
<polygon fill="#63b8ff" stroke="#63b8ff" points="3121.65,-209.47 3131.68,-206.05 3121.71,-202.47 3121.65,-209.47"/>
</g>
<!-- Node63 -->
<g id="node20" class="node">
<title>Node63</title>
<g id="a_node20"><a xlink:href="J2DPane_8cpp.html" target="_top" xlink:title=" ">
<polygon fill="white" stroke="#666666" points="1835.5,-162 1716.5,-162 1716.5,-132 1835.5,-132 1835.5,-162"/>
<text text-anchor="start" x="1724.5" y="-150" font-family="Helvetica,sans-Serif" font-size="10.00">libs/JSystem/J2DGraph</text>
<text text-anchor="middle" x="1776" y="-139" font-family="Helvetica,sans-Serif" font-size="10.00">/J2DPane.cpp</text>
</a>
</g>
</g>
<!-- Node1&#45;&gt;Node63 -->
<g id="edge21" class="edge">
<title>Node1&#45;&gt;Node63</title>
<path fill="none" stroke="#63b8ff" d="M3121.59,-205.72C2880.2,-202.83 2095.7,-191.36 1845,-162 1841.96,-161.64 1838.86,-161.22 1835.74,-160.76"/>
<polygon fill="#63b8ff" stroke="#63b8ff" points="3121.46,-209.22 3131.5,-205.84 3121.54,-202.22 3121.46,-209.22"/>
</g>
<!-- Node457 -->
<g id="node21" class="node">
<title>Node457</title>
<g id="a_node21"><a xlink:href="J2DPicture_8cpp.html" target="_top" xlink:title=" ">
<polygon fill="white" stroke="#666666" points="1972.5,-162 1853.5,-162 1853.5,-132 1972.5,-132 1972.5,-162"/>
<text text-anchor="start" x="1861.5" y="-150" font-family="Helvetica,sans-Serif" font-size="10.00">libs/JSystem/J2DGraph</text>
<text text-anchor="middle" x="1913" y="-139" font-family="Helvetica,sans-Serif" font-size="10.00">/J2DPicture.cpp</text>
</a>
</g>
</g>
<!-- Node1&#45;&gt;Node457 -->
<g id="edge22" class="edge">
<title>Node1&#45;&gt;Node457</title>
<path fill="none" stroke="#63b8ff" d="M3121.73,-205.41C2896.98,-201.74 2204.79,-188.52 1982,-162 1978.97,-161.64 1975.87,-161.21 1972.74,-160.74"/>
<polygon fill="#63b8ff" stroke="#63b8ff" points="3121.46,-208.91 3131.52,-205.57 3121.57,-201.91 3121.46,-208.91"/>
</g>
<!-- Node458 -->
<g id="node22" class="node">
<title>Node458</title>
<g id="a_node22"><a xlink:href="J2DTevs_8cpp.html" target="_top" xlink:title=" ">
<polygon fill="white" stroke="#666666" points="2109.5,-162 1990.5,-162 1990.5,-132 2109.5,-132 2109.5,-162"/>
<text text-anchor="start" x="1998.5" y="-150" font-family="Helvetica,sans-Serif" font-size="10.00">libs/JSystem/J2DGraph</text>
<text text-anchor="middle" x="2050" y="-139" font-family="Helvetica,sans-Serif" font-size="10.00">/J2DTevs.cpp</text>
</a>
</g>
</g>
<!-- Node1&#45;&gt;Node458 -->
<g id="edge23" class="edge">
<title>Node1&#45;&gt;Node458</title>
<path fill="none" stroke="#63b8ff" d="M3121.82,-205.03C2914.58,-200.5 2314,-185.67 2119,-162 2115.97,-161.63 2112.87,-161.2 2109.74,-160.73"/>
<polygon fill="#63b8ff" stroke="#63b8ff" points="3121.56,-208.52 3131.63,-205.24 3121.71,-201.52 3121.56,-208.52"/>
</g>
<!-- Node459 -->
<g id="node23" class="node">
<title>Node459</title>
<g id="a_node23"><a xlink:href="J3DShapeDraw_8cpp.html" target="_top" xlink:title=" ">
<polygon fill="white" stroke="#666666" points="2270,-162 2128,-162 2128,-132 2270,-132 2270,-162"/>
<text text-anchor="start" x="2136" y="-150" font-family="Helvetica,sans-Serif" font-size="10.00">libs/JSystem/J3DGraphBase</text>
<text text-anchor="middle" x="2199" y="-139" font-family="Helvetica,sans-Serif" font-size="10.00">/J3DShapeDraw.cpp</text>
</a>
</g>
</g>
<!-- Node1&#45;&gt;Node459 -->
<g id="edge24" class="edge">
<title>Node1&#45;&gt;Node459</title>
<path fill="none" stroke="#63b8ff" d="M3122.04,-206.05C2968.05,-204.41 2591.89,-196.86 2279,-162 2276.2,-161.69 2273.34,-161.34 2270.47,-160.96"/>
<polygon fill="#63b8ff" stroke="#63b8ff" points="3121.63,-209.55 3131.66,-206.15 3121.7,-202.55 3121.63,-209.55"/>
</g>
<!-- Node460 -->
<g id="node24" class="node">
<title>Node460</title>
<g id="a_node24"><a xlink:href="J3DTexture_8cpp.html" target="_top" xlink:title=" ">
<polygon fill="white" stroke="#666666" points="2430,-162 2288,-162 2288,-132 2430,-132 2430,-162"/>
<text text-anchor="start" x="2296" y="-150" font-family="Helvetica,sans-Serif" font-size="10.00">libs/JSystem/J3DGraphBase</text>
<text text-anchor="middle" x="2359" y="-139" font-family="Helvetica,sans-Serif" font-size="10.00">/J3DTexture.cpp</text>
</a>
</g>
</g>
<!-- Node1&#45;&gt;Node460 -->
<g id="edge25" class="edge">
<title>Node1&#45;&gt;Node460</title>
<path fill="none" stroke="#63b8ff" d="M3121.88,-205.01C2987.87,-201.6 2688.95,-191.15 2439,-162 2436.2,-161.67 2433.35,-161.31 2430.47,-160.92"/>
<polygon fill="#63b8ff" stroke="#63b8ff" points="3121.58,-208.5 3131.66,-205.25 3121.75,-201.51 3121.58,-208.5"/>
</g>
<!-- Node461 -->
<g id="node25" class="node">
<title>Node461</title>
<g id="a_node25"><a xlink:href="JFWDisplay_8cpp.html" target="_top" xlink:title=" ">
<polygon fill="white" stroke="#666666" points="2578,-162 2448,-162 2448,-132 2578,-132 2578,-162"/>
<text text-anchor="start" x="2456" y="-150" font-family="Helvetica,sans-Serif" font-size="10.00">libs/JSystem/JFramework</text>
<text text-anchor="middle" x="2513" y="-139" font-family="Helvetica,sans-Serif" font-size="10.00">/JFWDisplay.cpp</text>
</a>
</g>
</g>
<!-- Node1&#45;&gt;Node461 -->
<g id="edge26" class="edge">
<title>Node1&#45;&gt;Node461</title>
<path fill="none" stroke="#63b8ff" d="M3122.15,-203.91C3008.76,-199.18 2779.65,-187.21 2587,-162 2584.15,-161.63 2581.24,-161.21 2578.31,-160.77"/>
<polygon fill="#63b8ff" stroke="#63b8ff" points="3121.77,-207.4 3131.91,-204.31 3122.06,-200.4 3121.77,-207.4"/>
</g>
<!-- Node462 -->
<g id="node26" class="node">
<title>Node462</title>
<g id="a_node26"><a xlink:href="JPABaseShape_8cpp.html" target="_top" xlink:title=" ">
<polygon fill="white" stroke="#666666" points="2710,-162 2596,-162 2596,-132 2710,-132 2710,-162"/>
<text text-anchor="start" x="2604" y="-150" font-family="Helvetica,sans-Serif" font-size="10.00">libs/JSystem/JParticle</text>
<text text-anchor="middle" x="2653" y="-139" font-family="Helvetica,sans-Serif" font-size="10.00">/JPABaseShape.cpp</text>
</a>
</g>
</g>
<!-- Node1&#45;&gt;Node462 -->
<g id="edge27" class="edge">
<title>Node1&#45;&gt;Node462</title>
<path fill="none" stroke="#63b8ff" d="M3122.01,-202.4C3029.04,-196.44 2861.17,-183.68 2719,-162 2716.11,-161.56 2713.15,-161.07 2710.16,-160.55"/>
<polygon fill="#63b8ff" stroke="#63b8ff" points="3121.53,-205.88 3131.73,-203.01 3121.97,-198.89 3121.53,-205.88"/>
</g>
<!-- Node463 -->
<g id="node27" class="node">
<title>Node463</title>
<g id="a_node27"><a xlink:href="JPAChildShape_8cpp.html" target="_top" xlink:title=" ">
<polygon fill="white" stroke="#666666" points="2842,-162 2728,-162 2728,-132 2842,-132 2842,-162"/>
<text text-anchor="start" x="2736" y="-150" font-family="Helvetica,sans-Serif" font-size="10.00">libs/JSystem/JParticle</text>
<text text-anchor="middle" x="2785" y="-139" font-family="Helvetica,sans-Serif" font-size="10.00">/JPAChildShape.cpp</text>
</a>
</g>
</g>
<!-- Node1&#45;&gt;Node463 -->
<g id="edge28" class="edge">
<title>Node1&#45;&gt;Node463</title>
<path fill="none" stroke="#63b8ff" d="M3121.86,-198.82C3052.72,-190.97 2944.84,-177.73 2852,-162 2848.84,-161.46 2845.6,-160.89 2842.33,-160.28"/>
<polygon fill="#63b8ff" stroke="#63b8ff" points="3121.21,-202.27 3131.54,-199.91 3121.99,-195.31 3121.21,-202.27"/>
</g>
<!-- Node464 -->
<g id="node28" class="node">
<title>Node464</title>
<g id="a_node28"><a xlink:href="JPAEmitterManager_8cpp.html" target="_top" xlink:title=" ">
<polygon fill="white" stroke="#666666" points="2985.5,-162 2860.5,-162 2860.5,-132 2985.5,-132 2985.5,-162"/>
<text text-anchor="start" x="2868.5" y="-150" font-family="Helvetica,sans-Serif" font-size="10.00">libs/JSystem/JParticle</text>
<text text-anchor="middle" x="2923" y="-139" font-family="Helvetica,sans-Serif" font-size="10.00">/JPAEmitterManager.cpp</text>
</a>
</g>
</g>
<!-- Node1&#45;&gt;Node464 -->
<g id="edge29" class="edge">
<title>Node1&#45;&gt;Node464</title>
<path fill="none" stroke="#63b8ff" d="M3140.6,-195.15C3096.35,-185.56 3032.86,-171.8 2985.88,-161.62"/>
<polygon fill="#63b8ff" stroke="#63b8ff" points="3139.71,-198.53 3150.22,-197.23 3141.19,-191.69 3139.71,-198.53"/>
</g>
<!-- Node465 -->
<g id="node29" class="node">
<title>Node465</title>
<g id="a_node29"><a xlink:href="JPAExTexShape_8cpp.html" target="_top" xlink:title=" ">
<polygon fill="white" stroke="#666666" points="3118,-162 3004,-162 3004,-132 3118,-132 3118,-162"/>
<text text-anchor="start" x="3012" y="-150" font-family="Helvetica,sans-Serif" font-size="10.00">libs/JSystem/JParticle</text>
<text text-anchor="middle" x="3061" y="-139" font-family="Helvetica,sans-Serif" font-size="10.00">/JPAExTexShape.cpp</text>
</a>
</g>
</g>
<!-- Node1&#45;&gt;Node465 -->
<g id="edge30" class="edge">
<title>Node1&#45;&gt;Node465</title>
<path fill="none" stroke="#63b8ff" d="M3162.54,-193C3141.9,-183.85 3114.65,-171.78 3093.58,-162.44"/>
<polygon fill="#63b8ff" stroke="#63b8ff" points="3161.01,-196.15 3171.57,-197 3163.84,-189.75 3161.01,-196.15"/>
</g>
<!-- Node466 -->
<g id="node30" class="node">
<title>Node466</title>
<g id="a_node30"><a xlink:href="JPAExtraShape_8cpp.html" target="_top" xlink:title=" ">
<polygon fill="white" stroke="#666666" points="3250,-162 3136,-162 3136,-132 3250,-132 3250,-162"/>
<text text-anchor="start" x="3144" y="-150" font-family="Helvetica,sans-Serif" font-size="10.00">libs/JSystem/JParticle</text>
<text text-anchor="middle" x="3193" y="-139" font-family="Helvetica,sans-Serif" font-size="10.00">/JPAExtraShape.cpp</text>
</a>
</g>
</g>
<!-- Node1&#45;&gt;Node466 -->
<g id="edge31" class="edge">
<title>Node1&#45;&gt;Node466</title>
<path fill="none" stroke="#63b8ff" d="M3193,-186.51C3193,-178.49 3193,-169.43 3193,-162.11"/>
<polygon fill="#63b8ff" stroke="#63b8ff" points="3189.5,-186.35 3193,-196.35 3196.5,-186.35 3189.5,-186.35"/>
</g>
<!-- Node467 -->
<g id="node31" class="node">
<title>Node467</title>
<g id="a_node31"><a xlink:href="JPAResource_8cpp.html" target="_top" xlink:title=" ">
<polygon fill="white" stroke="#666666" points="3382,-162 3268,-162 3268,-132 3382,-132 3382,-162"/>
<text text-anchor="start" x="3276" y="-150" font-family="Helvetica,sans-Serif" font-size="10.00">libs/JSystem/JParticle</text>
<text text-anchor="middle" x="3325" y="-139" font-family="Helvetica,sans-Serif" font-size="10.00">/JPAResource.cpp</text>
</a>
</g>
</g>
<!-- Node1&#45;&gt;Node467 -->
<g id="edge32" class="edge">
<title>Node1&#45;&gt;Node467</title>
<path fill="none" stroke="#63b8ff" d="M3223.46,-193C3244.1,-183.85 3271.35,-171.78 3292.42,-162.44"/>
<polygon fill="#63b8ff" stroke="#63b8ff" points="3222.16,-189.75 3214.43,-197 3224.99,-196.15 3222.16,-189.75"/>
</g>
<!-- Node468 -->
<g id="node32" class="node">
<title>Node468</title>
<g id="a_node32"><a xlink:href="JUTCacheFont_8cpp.html" target="_top" xlink:title=" ">
<polygon fill="white" stroke="#666666" points="3506,-162 3400,-162 3400,-132 3506,-132 3506,-162"/>
<text text-anchor="start" x="3408" y="-150" font-family="Helvetica,sans-Serif" font-size="10.00">libs/JSystem/JUtility</text>
<text text-anchor="middle" x="3453" y="-139" font-family="Helvetica,sans-Serif" font-size="10.00">/JUTCacheFont.cpp</text>
</a>
</g>
</g>
<!-- Node1&#45;&gt;Node468 -->
<g id="edge33" class="edge">
<title>Node1&#45;&gt;Node468</title>
<path fill="none" stroke="#63b8ff" d="M3243.89,-195.08C3283.88,-186.1 3341,-173.26 3391,-162 3393.8,-161.37 3396.67,-160.72 3399.57,-160.07"/>
<polygon fill="#63b8ff" stroke="#63b8ff" points="3243.29,-191.62 3234.3,-197.23 3244.82,-198.45 3243.29,-191.62"/>
</g>
<!-- Node469 -->
<g id="node33" class="node">
<title>Node469</title>
<g id="a_node33"><a xlink:href="JUTPalette_8cpp.html" target="_top" xlink:title=" ">
<polygon fill="white" stroke="#666666" points="3630,-162 3524,-162 3524,-132 3630,-132 3630,-162"/>
<text text-anchor="start" x="3532" y="-150" font-family="Helvetica,sans-Serif" font-size="10.00">libs/JSystem/JUtility</text>
<text text-anchor="middle" x="3577" y="-139" font-family="Helvetica,sans-Serif" font-size="10.00">/JUTPalette.cpp</text>
</a>
</g>
</g>
<!-- Node1&#45;&gt;Node469 -->
<g id="edge34" class="edge">
<title>Node1&#45;&gt;Node469</title>
<path fill="none" stroke="#63b8ff" d="M3264.29,-198.41C3329.72,-190.56 3429.23,-177.58 3515,-162 3517.82,-161.49 3520.71,-160.93 3523.62,-160.35"/>
<polygon fill="#63b8ff" stroke="#63b8ff" points="3263.9,-194.93 3254.39,-199.58 3264.73,-201.88 3263.9,-194.93"/>
</g>
<!-- Node470 -->
<g id="node34" class="node">
<title>Node470</title>
<g id="a_node34"><a xlink:href="JUTResFont_8cpp.html" target="_top" xlink:title=" ">
<polygon fill="white" stroke="#666666" points="3754,-162 3648,-162 3648,-132 3754,-132 3754,-162"/>
<text text-anchor="start" x="3656" y="-150" font-family="Helvetica,sans-Serif" font-size="10.00">libs/JSystem/JUtility</text>
<text text-anchor="middle" x="3701" y="-139" font-family="Helvetica,sans-Serif" font-size="10.00">/JUTResFont.cpp</text>
</a>
</g>
</g>
<!-- Node1&#45;&gt;Node470 -->
<g id="edge35" class="edge">
<title>Node1&#45;&gt;Node470</title>
<path fill="none" stroke="#63b8ff" d="M3264.04,-202.11C3352.34,-196.04 3507.46,-183.33 3639,-162 3641.83,-161.54 3644.73,-161.03 3647.65,-160.48"/>
<polygon fill="#63b8ff" stroke="#63b8ff" points="3264.07,-198.6 3254.33,-202.77 3264.54,-205.58 3264.07,-198.6"/>
</g>
<!-- Node471 -->
<g id="node35" class="node">
<title>Node471</title>
<g id="a_node35"><a xlink:href="JUTTexture_8cpp.html" target="_top" xlink:title=" ">
<polygon fill="white" stroke="#666666" points="3878,-162 3772,-162 3772,-132 3878,-132 3878,-162"/>
<text text-anchor="start" x="3780" y="-150" font-family="Helvetica,sans-Serif" font-size="10.00">libs/JSystem/JUtility</text>
<text text-anchor="middle" x="3825" y="-139" font-family="Helvetica,sans-Serif" font-size="10.00">/JUTTexture.cpp</text>
</a>
</g>
</g>
<!-- Node1&#45;&gt;Node471 -->
<g id="edge36" class="edge">
<title>Node1&#45;&gt;Node471</title>
<path fill="none" stroke="#63b8ff" d="M3264.23,-204.24C3372.5,-200.05 3584.74,-188.94 3763,-162 3765.84,-161.57 3768.74,-161.09 3771.66,-160.56"/>
<polygon fill="#63b8ff" stroke="#63b8ff" points="3264.19,-200.74 3254.33,-204.61 3264.45,-207.73 3264.19,-200.74"/>
</g>
<!-- Node472 -->
<g id="node36" class="node">
<title>Node472</title>
<g id="a_node36"><a xlink:href="JUTVideo_8cpp.html" target="_top" xlink:title=" ">
<polygon fill="white" stroke="#666666" points="4002,-162 3896,-162 3896,-132 4002,-132 4002,-162"/>
<text text-anchor="start" x="3904" y="-150" font-family="Helvetica,sans-Serif" font-size="10.00">libs/JSystem/JUtility</text>
<text text-anchor="middle" x="3949" y="-139" font-family="Helvetica,sans-Serif" font-size="10.00">/JUTVideo.cpp</text>
</a>
</g>
</g>
<!-- Node1&#45;&gt;Node472 -->
<g id="edge37" class="edge">
<title>Node1&#45;&gt;Node472</title>
<path fill="none" stroke="#63b8ff" d="M3264.12,-205.64C3390.23,-203.29 3661.03,-194.55 3887,-162 3889.84,-161.59 3892.74,-161.12 3895.67,-160.61"/>
<polygon fill="#63b8ff" stroke="#63b8ff" points="3264.19,-202.14 3254.25,-205.81 3264.31,-209.14 3264.19,-202.14"/>
</g>
<!-- Node473 -->
<g id="node37" class="node">
<title>Node473</title>
<g id="a_node37"><a xlink:href="JUTXfb_8cpp.html" target="_top" xlink:title=" ">
<polygon fill="white" stroke="#666666" points="4126,-162 4020,-162 4020,-132 4126,-132 4126,-162"/>
<text text-anchor="start" x="4028" y="-150" font-family="Helvetica,sans-Serif" font-size="10.00">libs/JSystem/JUtility</text>
<text text-anchor="middle" x="4073" y="-139" font-family="Helvetica,sans-Serif" font-size="10.00">/JUTXfb.cpp</text>
</a>
</g>
</g>
<!-- Node1&#45;&gt;Node473 -->
<g id="edge38" class="edge">
<title>Node1&#45;&gt;Node473</title>
<path fill="none" stroke="#63b8ff" d="M3264.01,-206.63C3406.4,-206.01 3736.69,-200.16 4011,-162 4013.84,-161.6 4016.75,-161.15 4019.67,-160.64"/>
<polygon fill="#63b8ff" stroke="#63b8ff" points="3264.36,-203.13 3254.37,-206.66 3264.38,-210.13 3264.36,-203.13"/>
</g>
<!-- Node474 -->
<g id="node38" class="node">
<title>Node474</title>
<g id="a_node38"><a xlink:href="GFLight_8cpp.html" target="_top" xlink:title=" ">
<polygon fill="white" stroke="#666666" points="4277.5,-156.5 4144.5,-156.5 4144.5,-137.5 4277.5,-137.5 4277.5,-156.5"/>
<text text-anchor="middle" x="4211" y="-144.5" font-family="Helvetica,sans-Serif" font-size="10.00">libs/dolphin/gf/GFLight.cpp</text>
</a>
</g>
</g>
<!-- Node1&#45;&gt;Node474 -->
<g id="edge39" class="edge">
<title>Node1&#45;&gt;Node474</title>
<path fill="none" stroke="#63b8ff" d="M3264.12,-206.41C3421.57,-205.49 3811.3,-199.29 4135,-162 4145.8,-160.76 4157.37,-158.9 4168.15,-156.94"/>
<polygon fill="#63b8ff" stroke="#63b8ff" points="3264.24,-202.91 3254.25,-206.46 3264.27,-209.91 3264.24,-202.91"/>
</g>
<!-- Node475 -->
<g id="node39" class="node">
<title>Node475</title>
<g id="a_node39"><a xlink:href="GFPixel_8cpp.html" target="_top" xlink:title=" ">
<polygon fill="white" stroke="#666666" points="4428,-156.5 4296,-156.5 4296,-137.5 4428,-137.5 4428,-156.5"/>
<text text-anchor="middle" x="4362" y="-144.5" font-family="Helvetica,sans-Serif" font-size="10.00">libs/dolphin/gf/GFPixel.cpp</text>
</a>
</g>
</g>
<!-- Node1&#45;&gt;Node475 -->
<g id="edge40" class="edge">
<title>Node1&#45;&gt;Node475</title>
<path fill="none" stroke="#63b8ff" d="M3264.16,-207.14C3438.92,-207.94 3902.99,-205.42 4287,-162 4297.66,-160.79 4309.08,-158.95 4319.72,-156.99"/>
<polygon fill="#63b8ff" stroke="#63b8ff" points="3264.35,-203.64 3254.33,-207.09 3264.32,-210.64 3264.35,-203.64"/>
</g>
<!-- Node476 -->
<g id="node40" class="node">
<title>Node476</title>
<g id="a_node40"><a xlink:href="GFTev_8cpp.html" target="_top" xlink:title=" ">
<polygon fill="white" stroke="#666666" points="4574,-156.5 4446,-156.5 4446,-137.5 4574,-137.5 4574,-156.5"/>
<text text-anchor="middle" x="4510" y="-144.5" font-family="Helvetica,sans-Serif" font-size="10.00">libs/dolphin/gf/GFTev.cpp</text>
</a>
</g>
</g>
<!-- Node1&#45;&gt;Node476 -->
<g id="edge41" class="edge">
<title>Node1&#45;&gt;Node476</title>
<path fill="none" stroke="#63b8ff" d="M3264.21,-205.39C3492.94,-201.61 4207.33,-187.98 4437,-162 4447.51,-160.81 4458.78,-158.95 4469.24,-156.96"/>
<polygon fill="#63b8ff" stroke="#63b8ff" points="3264.18,-201.89 3254.24,-205.56 3264.3,-208.89 3264.18,-201.89"/>
</g>
<!-- Node477 -->
<g id="node41" class="node">
<title>Node477</title>
<g id="a_node41"><a xlink:href="GXBump_8c.html" target="_top" xlink:title=" ">
<polygon fill="white" stroke="#666666" points="4720,-156.5 4592,-156.5 4592,-137.5 4720,-137.5 4720,-156.5"/>
<text text-anchor="middle" x="4656" y="-144.5" font-family="Helvetica,sans-Serif" font-size="10.00">libs/dolphin/gx/GXBump.c</text>
</a>
</g>
</g>
<!-- Node1&#45;&gt;Node477 -->
<g id="edge42" class="edge">
<title>Node1&#45;&gt;Node477</title>
<path fill="none" stroke="#63b8ff" d="M3264.14,-205.7C3510.07,-202.72 4323.46,-190.86 4583,-162 4593.52,-160.83 4604.79,-158.97 4615.25,-156.99"/>
<polygon fill="#63b8ff" stroke="#63b8ff" points="3264.33,-202.2 3254.37,-205.82 3264.41,-209.2 3264.33,-202.2"/>
</g>
<!-- Node478 -->
<g id="node42" class="node">
<title>Node478</title>
<g id="a_node42"><a xlink:href="GXDisplayList_8c.html" target="_top" xlink:title=" ">
<polygon fill="white" stroke="#666666" points="4865.5,-162 4738.5,-162 4738.5,-132 4865.5,-132 4865.5,-162"/>
<text text-anchor="start" x="4746.5" y="-150" font-family="Helvetica,sans-Serif" font-size="10.00">libs/dolphin/gx/GXDisplay</text>
<text text-anchor="middle" x="4802" y="-139" font-family="Helvetica,sans-Serif" font-size="10.00">List.c</text>
</a>
</g>
</g>
<!-- Node1&#45;&gt;Node478 -->
<g id="edge43" class="edge">
<title>Node1&#45;&gt;Node478</title>
<path fill="none" stroke="#63b8ff" d="M3264.01,-205.96C3526.18,-203.71 4439.44,-193.75 4729,-162 4732.08,-161.66 4735.22,-161.27 4738.39,-160.82"/>
<polygon fill="#63b8ff" stroke="#63b8ff" points="3264.23,-202.45 3254.26,-206.04 3264.29,-209.45 3264.23,-202.45"/>
</g>
<!-- Node479 -->
<g id="node43" class="node">
<title>Node479</title>
<g id="a_node43"><a xlink:href="GXDraw_8c.html" target="_top" xlink:title=" ">
<polygon fill="white" stroke="#666666" points="5008.5,-156.5 4883.5,-156.5 4883.5,-137.5 5008.5,-137.5 5008.5,-156.5"/>
<text text-anchor="middle" x="4946" y="-144.5" font-family="Helvetica,sans-Serif" font-size="10.00">libs/dolphin/gx/GXDraw.c</text>
</a>
</g>
</g>
<!-- Node1&#45;&gt;Node479 -->
<g id="edge44" class="edge">
<title>Node1&#45;&gt;Node479</title>
<path fill="none" stroke="#63b8ff" d="M3263.74,-206.21C3541.16,-204.85 4555.35,-197.49 4875,-162 4885.36,-160.85 4896.47,-158.97 4906.75,-156.96"/>
<polygon fill="#63b8ff" stroke="#63b8ff" points="3264.12,-202.71 3254.14,-206.26 3264.16,-209.71 3264.12,-202.71"/>
</g>
<!-- Node480 -->
<g id="node44" class="node">
<title>Node480</title>
<g id="a_node44"><a xlink:href="GXFifo_8c.html" target="_top" xlink:title=" ">
<polygon fill="white" stroke="#666666" points="5145.5,-156.5 5026.5,-156.5 5026.5,-137.5 5145.5,-137.5 5145.5,-156.5"/>
<text text-anchor="middle" x="5086" y="-144.5" font-family="Helvetica,sans-Serif" font-size="10.00">libs/dolphin/gx/GXFifo.c</text>
</a>
</g>
</g>
<!-- Node1&#45;&gt;Node480 -->
<g id="edge45" class="edge">
<title>Node1&#45;&gt;Node480</title>
<path fill="none" stroke="#63b8ff" d="M3263.85,-206.46C3556.11,-206.06 4669,-201.86 5018,-162 5027.94,-160.86 5038.58,-158.99 5048.43,-156.98"/>
<polygon fill="#63b8ff" stroke="#63b8ff" points="3264.09,-202.96 3254.1,-206.48 3264.1,-209.96 3264.09,-202.96"/>
</g>
<!-- Node481 -->
<g id="node45" class="node">
<title>Node481</title>
<g id="a_node45"><a xlink:href="GXFrameBuf_8c.html" target="_top" xlink:title=" ">
<polygon fill="white" stroke="#666666" points="5310,-156.5 5164,-156.5 5164,-137.5 5310,-137.5 5310,-156.5"/>
<text text-anchor="middle" x="5237" y="-144.5" font-family="Helvetica,sans-Serif" font-size="10.00">libs/dolphin/gx/GXFrameBuf.c</text>
</a>
</g>
</g>
<!-- Node1&#45;&gt;Node481 -->
<g id="edge46" class="edge">
<title>Node1&#45;&gt;Node481</title>
<path fill="none" stroke="#63b8ff" d="M3264.03,-206.28C3569.99,-205.14 4777.05,-198.35 5155,-162 5166.93,-160.85 5179.75,-158.98 5191.62,-156.97"/>
<polygon fill="#63b8ff" stroke="#63b8ff" points="3264.18,-202.78 3254.19,-206.32 3264.2,-209.78 3264.18,-202.78"/>
</g>
<!-- Node482 -->
<g id="node46" class="node">
<title>Node482</title>
<g id="a_node46"><a xlink:href="GXGeometry_8c.html" target="_top" xlink:title=" ">
<polygon fill="white" stroke="#666666" points="5473.5,-156.5 5328.5,-156.5 5328.5,-137.5 5473.5,-137.5 5473.5,-156.5"/>
<text text-anchor="middle" x="5401" y="-144.5" font-family="Helvetica,sans-Serif" font-size="10.00">libs/dolphin/gx/GXGeometry.c</text>
</a>
</g>
</g>
<!-- Node1&#45;&gt;Node482 -->
<g id="edge47" class="edge">
<title>Node1&#45;&gt;Node482</title>
<path fill="none" stroke="#63b8ff" d="M3264.07,-206.43C3585.68,-205.89 4906.96,-201.27 5319,-162 5330.93,-160.86 5343.75,-158.99 5355.62,-156.98"/>
<polygon fill="#63b8ff" stroke="#63b8ff" points="3264.11,-202.93 3254.12,-206.44 3264.13,-209.93 3264.11,-202.93"/>
</g>
<!-- Node483 -->
<g id="node47" class="node">
<title>Node483</title>
<g id="a_node47"><a xlink:href="GXInit_8c.html" target="_top" xlink:title=" ">
<polygon fill="white" stroke="#666666" points="5608,-156.5 5492,-156.5 5492,-137.5 5608,-137.5 5608,-156.5"/>
<text text-anchor="middle" x="5550" y="-144.5" font-family="Helvetica,sans-Serif" font-size="10.00">libs/dolphin/gx/GXInit.c</text>
</a>
</g>
</g>
<!-- Node1&#45;&gt;Node483 -->
<g id="edge48" class="edge">
<title>Node1&#45;&gt;Node483</title>
<path fill="none" stroke="#63b8ff" d="M3264.22,-205.91C3626.71,-202.79 5258.43,-187.42 5483,-162 5492.92,-160.88 5503.54,-158.98 5513.34,-156.95"/>
<polygon fill="#63b8ff" stroke="#63b8ff" points="3264.34,-202.41 3254.37,-205.99 3264.4,-209.41 3264.34,-202.41"/>
</g>
<!-- Node484 -->
<g id="node48" class="node">
<title>Node484</title>
<g id="a_node48"><a xlink:href="GXLight_8c.html" target="_top" xlink:title=" ">
<polygon fill="white" stroke="#666666" points="5751.5,-156.5 5626.5,-156.5 5626.5,-137.5 5751.5,-137.5 5751.5,-156.5"/>
<text text-anchor="middle" x="5689" y="-144.5" font-family="Helvetica,sans-Serif" font-size="10.00">libs/dolphin/gx/GXLight.c</text>
</a>
</g>
</g>
<!-- Node1&#45;&gt;Node484 -->
<g id="edge49" class="edge">
<title>Node1&#45;&gt;Node484</title>
<path fill="none" stroke="#63b8ff" d="M3264.39,-205.93C3639.9,-202.83 5378.26,-187.21 5617,-162 5627.64,-160.88 5639.05,-158.98 5649.57,-156.95"/>
<polygon fill="#63b8ff" stroke="#63b8ff" points="3264.38,-202.43 3254.41,-206.01 3264.44,-209.43 3264.38,-202.43"/>
</g>
<!-- Node202 -->
<g id="node49" class="node">
<title>Node202</title>
<g id="a_node49"><a xlink:href="d__drawlist_8cpp.html" target="_top" xlink:title=" ">
<polygon fill="white" stroke="#666666" points="5874,-156.5 5770,-156.5 5770,-137.5 5874,-137.5 5874,-156.5"/>
<text text-anchor="middle" x="5822" y="-144.5" font-family="Helvetica,sans-Serif" font-size="10.00">src/d/d_drawlist.cpp</text>
</a>
</g>
</g>
<!-- Node1&#45;&gt;Node202 -->
<g id="edge50" class="edge">
<title>Node1&#45;&gt;Node202</title>
<path fill="none" stroke="#63b8ff" d="M3264.23,-206.15C3652.72,-204.13 5507.61,-192.93 5761,-162 5770.06,-160.89 5779.74,-159.01 5788.66,-156.97"/>
<polygon fill="#63b8ff" stroke="#63b8ff" points="3264.39,-202.65 3254.41,-206.2 3264.43,-209.65 3264.39,-202.65"/>
</g>
<!-- Node485 -->
<g id="node50" class="node">
<title>Node485</title>
<g id="a_node50"><a xlink:href="m__Do__Reset_8cpp.html" target="_top" xlink:title=" ">
<polygon fill="white" stroke="#666666" points="6028,-156.5 5892,-156.5 5892,-137.5 6028,-137.5 6028,-156.5"/>
<text text-anchor="middle" x="5960" y="-144.5" font-family="Helvetica,sans-Serif" font-size="10.00">src/m_Do/m_Do_Reset.cpp</text>
</a>
</g>
</g>
<!-- Node1&#45;&gt;Node485 -->
<g id="edge51" class="edge">
<title>Node1&#45;&gt;Node485</title>
<path fill="none" stroke="#63b8ff" d="M3264.35,-206.02C3664,-203.22 5616.18,-188.29 5883,-162 5894.36,-160.88 5906.55,-158.99 5917.81,-156.95"/>
<polygon fill="#63b8ff" stroke="#63b8ff" points="3264.48,-202.52 3254.5,-206.09 3264.52,-209.52 3264.48,-202.52"/>
</g>
<!-- Node3 -->
<g id="node3" class="node">
<title>Node3</title>
<g id="a_node3"><a xlink:href="J3DGD_8cpp.html" target="_top" xlink:title=" ">
<polygon fill="white" stroke="#666666" points="142,-96 0,-96 0,-66 142,-66 142,-96"/>
<text text-anchor="start" x="8" y="-84" font-family="Helvetica,sans-Serif" font-size="10.00">libs/JSystem/J3DGraphBase</text>
<text text-anchor="middle" x="71" y="-73" font-family="Helvetica,sans-Serif" font-size="10.00">/J3DGD.cpp</text>
</a>
</g>
</g>
<!-- Node2&#45;&gt;Node3 -->
<g id="edge2" class="edge">
<title>Node2&#45;&gt;Node3</title>
<path fill="none" stroke="#63b8ff" d="M213.93,-128.2C182.94,-118.18 144.74,-105.83 115.63,-96.43"/>
<polygon fill="#63b8ff" stroke="#63b8ff" points="212.53,-131.43 223.12,-131.17 214.69,-124.77 212.53,-131.43"/>
</g>
<!-- Node4 -->
<g id="node4" class="node">
<title>Node4</title>
<g id="a_node4"><a xlink:href="J3DMaterial_8cpp.html" target="_top" xlink:title=" ">
<polygon fill="white" stroke="#666666" points="525,-30 383,-30 383,0 525,0 525,-30"/>
<text text-anchor="start" x="391" y="-18" font-family="Helvetica,sans-Serif" font-size="10.00">libs/JSystem/J3DGraphBase</text>
<text text-anchor="middle" x="454" y="-7" font-family="Helvetica,sans-Serif" font-size="10.00">/J3DMaterial.cpp</text>
</a>
</g>
</g>
<!-- Node2&#45;&gt;Node4 -->
<g id="edge3" class="edge">
<title>Node2&#45;&gt;Node4</title>
<path fill="none" stroke="#63b8ff" d="M226.51,-126.2C198.8,-110.59 170.86,-87.89 189,-66 213.17,-36.85 312.59,-24.57 382.52,-19.49"/>
<polygon fill="#63b8ff" stroke="#63b8ff" points="224.83,-129.27 235.29,-130.9 228.13,-123.1 224.83,-129.27"/>
</g>
<!-- Node5 -->
<g id="node5" class="node">
<title>Node5</title>
<g id="a_node5"><a xlink:href="J3DShapeMtx_8cpp.html" target="_top" xlink:title=" ">
<polygon fill="white" stroke="#666666" points="340,-96 198,-96 198,-66 340,-66 340,-96"/>
<text text-anchor="start" x="206" y="-84" font-family="Helvetica,sans-Serif" font-size="10.00">libs/JSystem/J3DGraphBase</text>
<text text-anchor="middle" x="269" y="-73" font-family="Helvetica,sans-Serif" font-size="10.00">/J3DShapeMtx.cpp</text>
</a>
</g>
</g>
<!-- Node2&#45;&gt;Node5 -->
<g id="edge4" class="edge">
<title>Node2&#45;&gt;Node5</title>
<path fill="none" stroke="#63b8ff" d="M269,-120.39C269,-112.13 269,-103.28 269,-96.16"/>
<polygon fill="#63b8ff" stroke="#63b8ff" points="265.5,-120.28 269,-130.28 272.5,-120.28 265.5,-120.28"/>
</g>
<!-- Node6 -->
<g id="node6" class="node">
<title>Node6</title>
<g id="a_node6"><a xlink:href="J3DSys_8cpp.html" target="_top" xlink:title=" ">
<polygon fill="white" stroke="#666666" points="500,-96 358,-96 358,-66 500,-66 500,-96"/>
<text text-anchor="start" x="366" y="-84" font-family="Helvetica,sans-Serif" font-size="10.00">libs/JSystem/J3DGraphBase</text>
<text text-anchor="middle" x="429" y="-73" font-family="Helvetica,sans-Serif" font-size="10.00">/J3DSys.cpp</text>
</a>
</g>
</g>
<!-- Node2&#45;&gt;Node6 -->
<g id="edge5" class="edge">
<title>Node2&#45;&gt;Node6</title>
<path fill="none" stroke="#63b8ff" d="M315.48,-127.41C340.16,-117.54 370.03,-105.59 392.94,-96.43"/>
<polygon fill="#63b8ff" stroke="#63b8ff" points="314.3,-124.11 306.31,-131.08 316.9,-130.61 314.3,-124.11"/>
</g>
<!-- Node8 -->
<g id="node8" class="node">
<title>Node8</title>
<g id="a_node8"><a xlink:href="J3DShapeTable_8h.html" target="_top" xlink:title=" ">
<polygon fill="#fff0f0" stroke="red" points="653.5,-96 518.5,-96 518.5,-66 653.5,-66 653.5,-96"/>
<text text-anchor="start" x="526.5" y="-84" font-family="Helvetica,sans-Serif" font-size="10.00">include/JSystem/J3DGraph</text>
<text text-anchor="middle" x="586" y="-73" font-family="Helvetica,sans-Serif" font-size="10.00">Animator/J3DShapeTable.h</text>
</a>
</g>
</g>
<!-- Node7&#45;&gt;Node8 -->
<g id="edge7" class="edge">
<title>Node7&#45;&gt;Node8</title>
<path fill="none" stroke="#63b8ff" d="M636.38,-124.42C625.41,-115.18 612.89,-104.65 603.08,-96.39"/>
<polygon fill="#63b8ff" stroke="#63b8ff" points="634.07,-127.06 643.98,-130.82 638.58,-121.7 634.07,-127.06"/>
</g>
<!-- Node409 -->
<g id="node9" class="node">
<title>Node409</title>
<g id="a_node9"><a xlink:href="J3DMaterial_8h.html" target="_top" xlink:title=" ">
<polygon fill="#fff0f0" stroke="red" points="806.5,-96 671.5,-96 671.5,-66 806.5,-66 806.5,-96"/>
<text text-anchor="start" x="679.5" y="-84" font-family="Helvetica,sans-Serif" font-size="10.00">include/JSystem/J3DGraph</text>
<text text-anchor="middle" x="739" y="-73" font-family="Helvetica,sans-Serif" font-size="10.00">Base/J3DMaterial.h</text>
</a>
</g>
</g>
<!-- Node7&#45;&gt;Node409 -->
<g id="edge8" class="edge">
<title>Node7&#45;&gt;Node409</title>
<path fill="none" stroke="#63b8ff" d="M687.63,-124.7C698.82,-115.4 711.65,-104.73 721.69,-96.39"/>
<polygon fill="#63b8ff" stroke="#63b8ff" points="685.71,-121.75 680.25,-130.83 690.18,-127.13 685.71,-121.75"/>
</g>
<!-- Node411 -->
<g id="node10" class="node">
<title>Node411</title>
<g id="a_node10"><a xlink:href="J3DShape_8cpp.html" target="_top" xlink:title=" ">
<polygon fill="white" stroke="#666666" points="967,-96 825,-96 825,-66 967,-66 967,-96"/>
<text text-anchor="start" x="833" y="-84" font-family="Helvetica,sans-Serif" font-size="10.00">libs/JSystem/J3DGraphBase</text>
<text text-anchor="middle" x="896" y="-73" font-family="Helvetica,sans-Serif" font-size="10.00">/J3DShape.cpp</text>
</a>
</g>
</g>
<!-- Node7&#45;&gt;Node411 -->
<g id="edge10" class="edge">
<title>Node7&#45;&gt;Node411</title>
<path fill="none" stroke="#63b8ff" d="M725.46,-128.64C762.42,-118.53 808.46,-105.94 843.39,-96.39"/>
<polygon fill="#63b8ff" stroke="#63b8ff" points="724.99,-125.14 716.27,-131.16 726.83,-131.9 724.99,-125.14"/>
</g>
<!-- Node412 -->
<g id="node11" class="node">
<title>Node412</title>
<g id="a_node11"><a xlink:href="J3DShapeFactory_8cpp.html" target="_top" xlink:title=" ">
<polygon fill="white" stroke="#666666" points="1134.5,-96 985.5,-96 985.5,-66 1134.5,-66 1134.5,-96"/>
<text text-anchor="start" x="993.5" y="-84" font-family="Helvetica,sans-Serif" font-size="10.00">libs/JSystem/J3DGraphLoader</text>
<text text-anchor="middle" x="1060" y="-73" font-family="Helvetica,sans-Serif" font-size="10.00">/J3DShapeFactory.cpp</text>
</a>
</g>
</g>
<!-- Node7&#45;&gt;Node412 -->
<g id="edge11" class="edge">
<title>Node7&#45;&gt;Node412</title>
<path fill="none" stroke="#63b8ff" d="M740.71,-131.75C845.95,-114.34 874.28,-112.2 976,-96 979.07,-95.51 982.19,-95.01 985.35,-94.5"/>
<polygon fill="#63b8ff" stroke="#63b8ff" points="740.37,-128.26 731.08,-133.35 741.52,-135.16 740.37,-128.26"/>
</g>
<!-- Node409&#45;&gt;Node4 -->
<g id="edge9" class="edge">
<title>Node409&#45;&gt;Node4</title>
<path fill="none" stroke="#63b8ff" d="M663.72,-63.1C618.38,-52.91 561.26,-40.09 518.08,-30.39"/>
<polygon fill="#63b8ff" stroke="#63b8ff" points="662.68,-66.45 673.21,-65.23 664.22,-59.62 662.68,-66.45"/>
</g>
<!-- Node413&#45;&gt;Node6 -->
<g id="edge13" class="edge">
<title>Node413&#45;&gt;Node6</title>
<path fill="none" stroke="#63b8ff" d="M430.2,-120.39C429.94,-112.13 429.67,-103.28 429.44,-96.16"/>
<polygon fill="#63b8ff" stroke="#63b8ff" points="426.7,-120.4 430.51,-130.28 433.69,-120.18 426.7,-120.4"/>
</g>
</g>
</svg>
