<?xml version="1.0" encoding="UTF-8" standalone="no"?>
<!DOCTYPE svg PUBLIC "-//W3C//DTD SVG 1.1//EN"
 "http://www.w3.org/Graphics/SVG/1.1/DTD/svg11.dtd">
<!-- Generated by graphviz version 7.0.5 (20221223.1930)
 -->
<!-- Title: include/dolphin/gx/GXMisc.h Pages: 1 -->
<!--zoomable 291 -->
<svg id="main" version="1.1" xmlns="http://www.w3.org/2000/svg" xmlns:xlink="http://www.w3.org/1999/xlink" xml:space="preserve" onload="init(evt)">
<style type="text/css"><![CDATA[
.edge:hover path { stroke: red; }
.edge:hover polygon { stroke: red; fill: red; }
]]></style>
<script type="text/javascript"><![CDATA[
var edges = document.getElementsByTagName('g');
if (edges && edges.length) {
  for (var i=0;i<edges.length;i++) {
    if (edges[i].id.substr(0,4)=='edge') {
      edges[i].setAttribute('class','edge');
    }
  }
}
]]></script>
        <defs>
                <circle id="rim" cx="0" cy="0" r="7"/>
                <circle id="rim2" cx="0" cy="0" r="3.5"/>
                <g id="zoomPlus">
                        <use xlink:href="#rim" fill="#404040">
                                <set attributeName="fill" to="#808080" begin="zoomplus.mouseover" end="zoomplus.mouseout"/>
                        </use>
                        <path d="M-4,0h8M0,-4v8" fill="none" stroke="white" stroke-width="1.5" pointer-events="none"/>
                </g>
                <g id="zoomMin">
                        <use xlink:href="#rim" fill="#404040">
                                <set attributeName="fill" to="#808080" begin="zoomminus.mouseover" end="zoomminus.mouseout"/>
                        </use>
                        <path d="M-4,0h8" fill="none" stroke="white" stroke-width="1.5" pointer-events="none"/>
                </g>
                <g id="dirArrow">
                        <path fill="none" stroke="white" stroke-width="1.5" d="M0,-3.0v7 M-2.5,-0.5L0,-3.0L2.5,-0.5"/>
                </g>
               <g id="resetDef">
                       <use xlink:href="#rim2" fill="#404040">
                               <set attributeName="fill" to="#808080" begin="reset.mouseover" end="reset.mouseout"/>
                       </use>
               </g>
        </defs>

<script type="text/javascript">
var viewWidth = 5959;
var viewHeight = 291;
var sectionId = 'dynsection-1';
</script>
<script xlink:href="svgpan.js"/>
<svg id="graph" class="graph">
<g id="viewport">
<title>include/dolphin/gx/GXMisc.h</title>
<!-- Node1 -->
<g id="node1" class="node">
<title>Node1</title>
<g id="a_node1"><a xlink:title=" ">
<polygon fill="#999999" stroke="#666666" points="3233,-283 3139,-283 3139,-253 3233,-253 3233,-283"/>
<text text-anchor="start" x="3147" y="-271" font-family="Helvetica,sans-Serif" font-size="10.00">include/dolphin/gx</text>
<text text-anchor="middle" x="3186" y="-260" font-family="Helvetica,sans-Serif" font-size="10.00">/GXMisc.h</text>
</a>
</g>
</g>
<!-- Node2 -->
<g id="node2" class="node">
<title>Node2</title>
<g id="a_node2"><a xlink:href="GX_8h.html" target="_top" xlink:title=" ">
<polygon fill="white" stroke="#666666" points="3175.5,-217 3056.5,-217 3056.5,-198 3175.5,-198 3175.5,-217"/>
<text text-anchor="middle" x="3116" y="-205" font-family="Helvetica,sans-Serif" font-size="10.00">include/dolphin/gx/GX.h</text>
</a>
</g>
</g>
<!-- Node1&#45;&gt;Node2 -->
<g id="edge1" class="edge">
<title>Node1&#45;&gt;Node2</title>
<path fill="none" stroke="#63b8ff" d="M3160.13,-245.38C3148.43,-235.6 3135.26,-224.6 3126.38,-217.18"/>
<polygon fill="#63b8ff" stroke="#63b8ff" points="3157.62,-247.84 3167.54,-251.57 3162.11,-242.47 3157.62,-247.84"/>
</g>
<!-- Node487 -->
<g id="node50" class="node">
<title>Node487</title>
<g id="a_node50"><a xlink:href="GXMisc_8c.html" target="_top" xlink:title=" ">
<polygon fill="white" stroke="#666666" points="3318,-217 3194,-217 3194,-198 3318,-198 3318,-217"/>
<text text-anchor="middle" x="3256" y="-205" font-family="Helvetica,sans-Serif" font-size="10.00">libs/dolphin/gx/GXMisc.c</text>
</a>
</g>
</g>
<!-- Node1&#45;&gt;Node487 -->
<g id="edge51" class="edge">
<title>Node1&#45;&gt;Node487</title>
<path fill="none" stroke="#63b8ff" d="M3211.87,-245.38C3223.57,-235.6 3236.74,-224.6 3245.62,-217.18"/>
<polygon fill="#63b8ff" stroke="#63b8ff" points="3209.89,-242.47 3204.46,-251.57 3214.38,-247.84 3209.89,-242.47"/>
</g>
<!-- Node3 -->
<g id="node3" class="node">
<title>Node3</title>
<g id="a_node3"><a xlink:href="J3DGD_8h.html" target="_top" xlink:title=" ">
<polygon fill="white" stroke="#666666" points="336.5,-162 201.5,-162 201.5,-132 336.5,-132 336.5,-162"/>
<text text-anchor="start" x="209.5" y="-150" font-family="Helvetica,sans-Serif" font-size="10.00">include/JSystem/J3DGraph</text>
<text text-anchor="middle" x="269" y="-139" font-family="Helvetica,sans-Serif" font-size="10.00">Base/J3DGD.h</text>
</a>
</g>
</g>
<!-- Node2&#45;&gt;Node3 -->
<g id="edge2" class="edge">
<title>Node2&#45;&gt;Node3</title>
<path fill="none" stroke="#63b8ff" d="M3044.91,-206.79C2667.83,-208.12 898.29,-211.55 353,-162 347.7,-161.52 342.23,-160.9 336.74,-160.18"/>
<polygon fill="#63b8ff" stroke="#63b8ff" points="3044.68,-210.29 3054.67,-206.76 3044.66,-203.29 3044.68,-210.29"/>
</g>
<!-- Node8 -->
<g id="node8" class="node">
<title>Node8</title>
<g id="a_node8"><a xlink:href="J3DShape_8h.html" target="_top" xlink:title=" ">
<polygon fill="#fff0f0" stroke="red" points="652.5,-162 517.5,-162 517.5,-132 652.5,-132 652.5,-162"/>
<text text-anchor="start" x="525.5" y="-150" font-family="Helvetica,sans-Serif" font-size="10.00">include/JSystem/J3DGraph</text>
<text text-anchor="middle" x="585" y="-139" font-family="Helvetica,sans-Serif" font-size="10.00">Base/J3DShape.h</text>
</a>
</g>
</g>
<!-- Node2&#45;&gt;Node8 -->
<g id="edge7" class="edge">
<title>Node2&#45;&gt;Node8</title>
<path fill="none" stroke="#63b8ff" d="M3044.81,-206.76C2693.47,-207.83 1142.18,-209.69 662,-162 659.03,-161.7 655.99,-161.36 652.94,-160.97"/>
<polygon fill="#63b8ff" stroke="#63b8ff" points="3044.57,-210.26 3054.55,-206.73 3044.54,-203.26 3044.57,-210.26"/>
</g>
<!-- Node414 -->
<g id="node11" class="node">
<title>Node414</title>
<g id="a_node11"><a xlink:href="J3DSys_8h.html" target="_top" xlink:title=" ">
<polygon fill="#fff0f0" stroke="red" points="497.5,-162 362.5,-162 362.5,-132 497.5,-132 497.5,-162"/>
<text text-anchor="start" x="370.5" y="-150" font-family="Helvetica,sans-Serif" font-size="10.00">include/JSystem/J3DGraph</text>
<text text-anchor="middle" x="430" y="-139" font-family="Helvetica,sans-Serif" font-size="10.00">Base/J3DSys.h</text>
</a>
</g>
</g>
<!-- Node2&#45;&gt;Node414 -->
<g id="edge11" class="edge">
<title>Node2&#45;&gt;Node414</title>
<path fill="none" stroke="#63b8ff" d="M3044.64,-205.97C2652.32,-202.95 766.23,-187.21 508,-162 504.71,-161.68 501.36,-161.3 497.97,-160.86"/>
<polygon fill="#63b8ff" stroke="#63b8ff" points="3044.54,-209.47 3054.57,-206.04 3044.59,-202.47 3044.54,-209.47"/>
</g>
<!-- Node422 -->
<g id="node12" class="node">
<title>Node422</title>
<g id="a_node12"><a xlink:href="jstudio-control_8h.html" target="_top" xlink:title=" ">
<polygon fill="#fff0f0" stroke="red" points="795.5,-162 670.5,-162 670.5,-132 795.5,-132 795.5,-162"/>
<text text-anchor="start" x="678.5" y="-150" font-family="Helvetica,sans-Serif" font-size="10.00">include/JSystem/JStudio</text>
<text text-anchor="middle" x="733" y="-139" font-family="Helvetica,sans-Serif" font-size="10.00">/JStudio/jstudio&#45;control.h</text>
</a>
</g>
</g>
<!-- Node2&#45;&gt;Node422 -->
<g id="edge13" class="edge">
<title>Node2&#45;&gt;Node422</title>
<path fill="none" stroke="#63b8ff" d="M3044.88,-206.79C2706.24,-207.9 1255.07,-209.73 805,-162 801.96,-161.68 798.86,-161.29 795.73,-160.86"/>
<polygon fill="#63b8ff" stroke="#63b8ff" points="3044.72,-210.29 3054.7,-206.75 3044.69,-203.29 3044.72,-210.29"/>
</g>
<!-- Node449 -->
<g id="node13" class="node">
<title>Node449</title>
<g id="a_node13"><a xlink:href="JUTGraphFifo_8h.html" target="_top" xlink:title=" ">
<polygon fill="#fff0f0" stroke="red" points="936,-162 814,-162 814,-132 936,-132 936,-162"/>
<text text-anchor="start" x="822" y="-150" font-family="Helvetica,sans-Serif" font-size="10.00">include/JSystem/JUtility</text>
<text text-anchor="middle" x="875" y="-139" font-family="Helvetica,sans-Serif" font-size="10.00">/JUTGraphFifo.h</text>
</a>
</g>
</g>
<!-- Node2&#45;&gt;Node449 -->
<g id="edge14" class="edge">
<title>Node2&#45;&gt;Node449</title>
<path fill="none" stroke="#63b8ff" d="M3044.96,-206.73C2719.17,-207.55 1365.82,-208.03 945,-162 942.17,-161.69 939.28,-161.32 936.36,-160.91"/>
<polygon fill="#63b8ff" stroke="#63b8ff" points="3044.61,-210.23 3054.6,-206.71 3044.59,-203.23 3044.61,-210.23"/>
</g>
<!-- Node452 -->
<g id="node14" class="node">
<title>Node452</title>
<g id="a_node14"><a xlink:href="GFGeometry_8h.html" target="_top" xlink:title=" ">
<polygon fill="#fff0f0" stroke="red" points="1046,-162 954,-162 954,-132 1046,-132 1046,-162"/>
<text text-anchor="start" x="962" y="-150" font-family="Helvetica,sans-Serif" font-size="10.00">include/dolphin/gf</text>
<text text-anchor="middle" x="1000" y="-139" font-family="Helvetica,sans-Serif" font-size="10.00">/GFGeometry.h</text>
</a>
</g>
</g>
<!-- Node2&#45;&gt;Node452 -->
<g id="edge15" class="edge">
<title>Node2&#45;&gt;Node452</title>
<path fill="none" stroke="#63b8ff" d="M3044.87,-205.93C2705.06,-203.05 1255.14,-189.27 1055,-162 1052.17,-161.61 1049.27,-161.14 1046.36,-160.59"/>
<polygon fill="#63b8ff" stroke="#63b8ff" points="3044.71,-209.42 3054.74,-206.01 3044.77,-202.42 3044.71,-209.42"/>
</g>
<!-- Node454 -->
<g id="node15" class="node">
<title>Node454</title>
<g id="a_node15"><a xlink:href="m__Do__machine__exception_8h.html" target="_top" xlink:title=" ">
<polygon fill="#fff0f0" stroke="red" points="1210,-162 1064,-162 1064,-132 1210,-132 1210,-162"/>
<text text-anchor="start" x="1072" y="-150" font-family="Helvetica,sans-Serif" font-size="10.00">include/m_Do/m_Do_machine</text>
<text text-anchor="middle" x="1137" y="-139" font-family="Helvetica,sans-Serif" font-size="10.00">_exception.h</text>
</a>
</g>
</g>
<!-- Node2&#45;&gt;Node454 -->
<g id="edge16" class="edge">
<title>Node2&#45;&gt;Node454</title>
<path fill="none" stroke="#63b8ff" d="M3044.89,-206.2C2745.25,-204.72 1584.26,-196.81 1220,-162 1216.8,-161.69 1213.54,-161.34 1210.24,-160.94"/>
<polygon fill="#63b8ff" stroke="#63b8ff" points="3044.49,-209.7 3054.5,-206.25 3044.52,-202.7 3044.49,-209.7"/>
</g>
<!-- Node455 -->
<g id="node16" class="node">
<title>Node455</title>
<g id="a_node16"><a xlink:href="J2DGrafContext_8cpp.html" target="_top" xlink:title=" ">
<polygon fill="white" stroke="#666666" points="1347.5,-162 1228.5,-162 1228.5,-132 1347.5,-132 1347.5,-162"/>
<text text-anchor="start" x="1236.5" y="-150" font-family="Helvetica,sans-Serif" font-size="10.00">libs/JSystem/J2DGraph</text>
<text text-anchor="middle" x="1288" y="-139" font-family="Helvetica,sans-Serif" font-size="10.00">/J2DGrafContext.cpp</text>
</a>
</g>
</g>
<!-- Node2&#45;&gt;Node455 -->
<g id="edge17" class="edge">
<title>Node2&#45;&gt;Node455</title>
<path fill="none" stroke="#63b8ff" d="M3044.92,-206.36C2759.01,-205.54 1692.32,-199.96 1357,-162 1353.96,-161.66 1350.86,-161.25 1347.74,-160.79"/>
<polygon fill="#63b8ff" stroke="#63b8ff" points="3044.83,-209.86 3054.84,-206.39 3044.85,-202.86 3044.83,-209.86"/>
</g>
<!-- Node456 -->
<g id="node17" class="node">
<title>Node456</title>
<g id="a_node17"><a xlink:href="J2DMatBlock_8cpp.html" target="_top" xlink:title=" ">
<polygon fill="white" stroke="#666666" points="1484.5,-162 1365.5,-162 1365.5,-132 1484.5,-132 1484.5,-162"/>
<text text-anchor="start" x="1373.5" y="-150" font-family="Helvetica,sans-Serif" font-size="10.00">libs/JSystem/J2DGraph</text>
<text text-anchor="middle" x="1425" y="-139" font-family="Helvetica,sans-Serif" font-size="10.00">/J2DMatBlock.cpp</text>
</a>
</g>
</g>
<!-- Node2&#45;&gt;Node456 -->
<g id="edge18" class="edge">
<title>Node2&#45;&gt;Node456</title>
<path fill="none" stroke="#63b8ff" d="M3045.12,-206.18C2773.8,-204.72 1801.13,-197.1 1494,-162 1490.96,-161.65 1487.86,-161.24 1484.74,-160.78"/>
<polygon fill="#63b8ff" stroke="#63b8ff" points="3044.84,-209.68 3054.85,-206.24 3044.87,-202.68 3044.84,-209.68"/>
</g>
<!-- Node457 -->
<g id="node18" class="node">
<title>Node457</title>
<g id="a_node18"><a xlink:href="J2DOrthoGraph_8cpp.html" target="_top" xlink:title=" ">
<polygon fill="white" stroke="#666666" points="1621.5,-162 1502.5,-162 1502.5,-132 1621.5,-132 1621.5,-162"/>
<text text-anchor="start" x="1510.5" y="-150" font-family="Helvetica,sans-Serif" font-size="10.00">libs/JSystem/J2DGraph</text>
<text text-anchor="middle" x="1562" y="-139" font-family="Helvetica,sans-Serif" font-size="10.00">/J2DOrthoGraph.cpp</text>
</a>
</g>
</g>
<!-- Node2&#45;&gt;Node457 -->
<g id="edge19" class="edge">
<title>Node2&#45;&gt;Node457</title>
<path fill="none" stroke="#63b8ff" d="M3044.8,-205.97C2787.99,-203.82 1909.84,-194.23 1631,-162 1627.96,-161.65 1624.86,-161.23 1621.74,-160.77"/>
<polygon fill="#63b8ff" stroke="#63b8ff" points="3044.65,-209.47 3054.68,-206.05 3044.71,-202.47 3044.65,-209.47"/>
</g>
<!-- Node64 -->
<g id="node19" class="node">
<title>Node64</title>
<g id="a_node19"><a xlink:href="J2DPane_8cpp.html" target="_top" xlink:title=" ">
<polygon fill="white" stroke="#666666" points="1758.5,-162 1639.5,-162 1639.5,-132 1758.5,-132 1758.5,-162"/>
<text text-anchor="start" x="1647.5" y="-150" font-family="Helvetica,sans-Serif" font-size="10.00">libs/JSystem/J2DGraph</text>
<text text-anchor="middle" x="1699" y="-139" font-family="Helvetica,sans-Serif" font-size="10.00">/J2DPane.cpp</text>
</a>
</g>
</g>
<!-- Node2&#45;&gt;Node64 -->
<g id="edge20" class="edge">
<title>Node2&#45;&gt;Node64</title>
<path fill="none" stroke="#63b8ff" d="M3044.59,-205.72C2803.2,-202.83 2018.7,-191.36 1768,-162 1764.96,-161.64 1761.86,-161.22 1758.74,-160.76"/>
<polygon fill="#63b8ff" stroke="#63b8ff" points="3044.46,-209.22 3054.5,-205.84 3044.54,-202.22 3044.46,-209.22"/>
</g>
<!-- Node458 -->
<g id="node20" class="node">
<title>Node458</title>
<g id="a_node20"><a xlink:href="J2DPicture_8cpp.html" target="_top" xlink:title=" ">
<polygon fill="white" stroke="#666666" points="1895.5,-162 1776.5,-162 1776.5,-132 1895.5,-132 1895.5,-162"/>
<text text-anchor="start" x="1784.5" y="-150" font-family="Helvetica,sans-Serif" font-size="10.00">libs/JSystem/J2DGraph</text>
<text text-anchor="middle" x="1836" y="-139" font-family="Helvetica,sans-Serif" font-size="10.00">/J2DPicture.cpp</text>
</a>
</g>
</g>
<!-- Node2&#45;&gt;Node458 -->
<g id="edge21" class="edge">
<title>Node2&#45;&gt;Node458</title>
<path fill="none" stroke="#63b8ff" d="M3044.73,-205.41C2819.98,-201.74 2127.79,-188.52 1905,-162 1901.97,-161.64 1898.87,-161.21 1895.74,-160.74"/>
<polygon fill="#63b8ff" stroke="#63b8ff" points="3044.46,-208.91 3054.52,-205.57 3044.57,-201.91 3044.46,-208.91"/>
</g>
<!-- Node459 -->
<g id="node21" class="node">
<title>Node459</title>
<g id="a_node21"><a xlink:href="J2DTevs_8cpp.html" target="_top" xlink:title=" ">
<polygon fill="white" stroke="#666666" points="2032.5,-162 1913.5,-162 1913.5,-132 2032.5,-132 2032.5,-162"/>
<text text-anchor="start" x="1921.5" y="-150" font-family="Helvetica,sans-Serif" font-size="10.00">libs/JSystem/J2DGraph</text>
<text text-anchor="middle" x="1973" y="-139" font-family="Helvetica,sans-Serif" font-size="10.00">/J2DTevs.cpp</text>
</a>
</g>
</g>
<!-- Node2&#45;&gt;Node459 -->
<g id="edge22" class="edge">
<title>Node2&#45;&gt;Node459</title>
<path fill="none" stroke="#63b8ff" d="M3044.82,-205.03C2837.58,-200.5 2237,-185.67 2042,-162 2038.97,-161.63 2035.87,-161.2 2032.74,-160.73"/>
<polygon fill="#63b8ff" stroke="#63b8ff" points="3044.56,-208.52 3054.63,-205.24 3044.71,-201.52 3044.56,-208.52"/>
</g>
<!-- Node460 -->
<g id="node22" class="node">
<title>Node460</title>
<g id="a_node22"><a xlink:href="J3DShapeDraw_8cpp.html" target="_top" xlink:title=" ">
<polygon fill="white" stroke="#666666" points="2193,-162 2051,-162 2051,-132 2193,-132 2193,-162"/>
<text text-anchor="start" x="2059" y="-150" font-family="Helvetica,sans-Serif" font-size="10.00">libs/JSystem/J3DGraphBase</text>
<text text-anchor="middle" x="2122" y="-139" font-family="Helvetica,sans-Serif" font-size="10.00">/J3DShapeDraw.cpp</text>
</a>
</g>
</g>
<!-- Node2&#45;&gt;Node460 -->
<g id="edge23" class="edge">
<title>Node2&#45;&gt;Node460</title>
<path fill="none" stroke="#63b8ff" d="M3045.04,-206.05C2891.05,-204.41 2514.89,-196.86 2202,-162 2199.2,-161.69 2196.34,-161.34 2193.47,-160.96"/>
<polygon fill="#63b8ff" stroke="#63b8ff" points="3044.63,-209.55 3054.66,-206.15 3044.7,-202.55 3044.63,-209.55"/>
</g>
<!-- Node461 -->
<g id="node23" class="node">
<title>Node461</title>
<g id="a_node23"><a xlink:href="J3DTexture_8cpp.html" target="_top" xlink:title=" ">
<polygon fill="white" stroke="#666666" points="2353,-162 2211,-162 2211,-132 2353,-132 2353,-162"/>
<text text-anchor="start" x="2219" y="-150" font-family="Helvetica,sans-Serif" font-size="10.00">libs/JSystem/J3DGraphBase</text>
<text text-anchor="middle" x="2282" y="-139" font-family="Helvetica,sans-Serif" font-size="10.00">/J3DTexture.cpp</text>
</a>
</g>
</g>
<!-- Node2&#45;&gt;Node461 -->
<g id="edge24" class="edge">
<title>Node2&#45;&gt;Node461</title>
<path fill="none" stroke="#63b8ff" d="M3044.88,-205.01C2910.87,-201.6 2611.95,-191.15 2362,-162 2359.2,-161.67 2356.35,-161.31 2353.47,-160.92"/>
<polygon fill="#63b8ff" stroke="#63b8ff" points="3044.58,-208.5 3054.66,-205.25 3044.75,-201.51 3044.58,-208.5"/>
</g>
<!-- Node462 -->
<g id="node24" class="node">
<title>Node462</title>
<g id="a_node24"><a xlink:href="JFWDisplay_8cpp.html" target="_top" xlink:title=" ">
<polygon fill="white" stroke="#666666" points="2501,-162 2371,-162 2371,-132 2501,-132 2501,-162"/>
<text text-anchor="start" x="2379" y="-150" font-family="Helvetica,sans-Serif" font-size="10.00">libs/JSystem/JFramework</text>
<text text-anchor="middle" x="2436" y="-139" font-family="Helvetica,sans-Serif" font-size="10.00">/JFWDisplay.cpp</text>
</a>
</g>
</g>
<!-- Node2&#45;&gt;Node462 -->
<g id="edge25" class="edge">
<title>Node2&#45;&gt;Node462</title>
<path fill="none" stroke="#63b8ff" d="M3045.15,-203.91C2931.76,-199.18 2702.65,-187.21 2510,-162 2507.15,-161.63 2504.24,-161.21 2501.31,-160.77"/>
<polygon fill="#63b8ff" stroke="#63b8ff" points="3044.77,-207.4 3054.91,-204.31 3045.06,-200.4 3044.77,-207.4"/>
</g>
<!-- Node463 -->
<g id="node25" class="node">
<title>Node463</title>
<g id="a_node25"><a xlink:href="JPABaseShape_8cpp.html" target="_top" xlink:title=" ">
<polygon fill="white" stroke="#666666" points="2633,-162 2519,-162 2519,-132 2633,-132 2633,-162"/>
<text text-anchor="start" x="2527" y="-150" font-family="Helvetica,sans-Serif" font-size="10.00">libs/JSystem/JParticle</text>
<text text-anchor="middle" x="2576" y="-139" font-family="Helvetica,sans-Serif" font-size="10.00">/JPABaseShape.cpp</text>
</a>
</g>
</g>
<!-- Node2&#45;&gt;Node463 -->
<g id="edge26" class="edge">
<title>Node2&#45;&gt;Node463</title>
<path fill="none" stroke="#63b8ff" d="M3045.01,-202.4C2952.04,-196.44 2784.17,-183.68 2642,-162 2639.11,-161.56 2636.15,-161.07 2633.16,-160.55"/>
<polygon fill="#63b8ff" stroke="#63b8ff" points="3044.53,-205.88 3054.73,-203.01 3044.97,-198.89 3044.53,-205.88"/>
</g>
<!-- Node464 -->
<g id="node26" class="node">
<title>Node464</title>
<g id="a_node26"><a xlink:href="JPAChildShape_8cpp.html" target="_top" xlink:title=" ">
<polygon fill="white" stroke="#666666" points="2765,-162 2651,-162 2651,-132 2765,-132 2765,-162"/>
<text text-anchor="start" x="2659" y="-150" font-family="Helvetica,sans-Serif" font-size="10.00">libs/JSystem/JParticle</text>
<text text-anchor="middle" x="2708" y="-139" font-family="Helvetica,sans-Serif" font-size="10.00">/JPAChildShape.cpp</text>
</a>
</g>
</g>
<!-- Node2&#45;&gt;Node464 -->
<g id="edge27" class="edge">
<title>Node2&#45;&gt;Node464</title>
<path fill="none" stroke="#63b8ff" d="M3044.86,-198.82C2975.72,-190.97 2867.84,-177.73 2775,-162 2771.84,-161.46 2768.6,-160.89 2765.33,-160.28"/>
<polygon fill="#63b8ff" stroke="#63b8ff" points="3044.21,-202.27 3054.54,-199.91 3044.99,-195.31 3044.21,-202.27"/>
</g>
<!-- Node465 -->
<g id="node27" class="node">
<title>Node465</title>
<g id="a_node27"><a xlink:href="JPAEmitterManager_8cpp.html" target="_top" xlink:title=" ">
<polygon fill="white" stroke="#666666" points="2908.5,-162 2783.5,-162 2783.5,-132 2908.5,-132 2908.5,-162"/>
<text text-anchor="start" x="2791.5" y="-150" font-family="Helvetica,sans-Serif" font-size="10.00">libs/JSystem/JParticle</text>
<text text-anchor="middle" x="2846" y="-139" font-family="Helvetica,sans-Serif" font-size="10.00">/JPAEmitterManager.cpp</text>
</a>
</g>
</g>
<!-- Node2&#45;&gt;Node465 -->
<g id="edge28" class="edge">
<title>Node2&#45;&gt;Node465</title>
<path fill="none" stroke="#63b8ff" d="M3063.6,-195.15C3019.35,-185.56 2955.86,-171.8 2908.88,-161.62"/>
<polygon fill="#63b8ff" stroke="#63b8ff" points="3062.71,-198.53 3073.22,-197.23 3064.19,-191.69 3062.71,-198.53"/>
</g>
<!-- Node466 -->
<g id="node28" class="node">
<title>Node466</title>
<g id="a_node28"><a xlink:href="JPAExTexShape_8cpp.html" target="_top" xlink:title=" ">
<polygon fill="white" stroke="#666666" points="3041,-162 2927,-162 2927,-132 3041,-132 3041,-162"/>
<text text-anchor="start" x="2935" y="-150" font-family="Helvetica,sans-Serif" font-size="10.00">libs/JSystem/JParticle</text>
<text text-anchor="middle" x="2984" y="-139" font-family="Helvetica,sans-Serif" font-size="10.00">/JPAExTexShape.cpp</text>
</a>
</g>
</g>
<!-- Node2&#45;&gt;Node466 -->
<g id="edge29" class="edge">
<title>Node2&#45;&gt;Node466</title>
<path fill="none" stroke="#63b8ff" d="M3085.54,-193C3064.9,-183.85 3037.65,-171.78 3016.58,-162.44"/>
<polygon fill="#63b8ff" stroke="#63b8ff" points="3084.01,-196.15 3094.57,-197 3086.84,-189.75 3084.01,-196.15"/>
</g>
<!-- Node467 -->
<g id="node29" class="node">
<title>Node467</title>
<g id="a_node29"><a xlink:href="JPAExtraShape_8cpp.html" target="_top" xlink:title=" ">
<polygon fill="white" stroke="#666666" points="3173,-162 3059,-162 3059,-132 3173,-132 3173,-162"/>
<text text-anchor="start" x="3067" y="-150" font-family="Helvetica,sans-Serif" font-size="10.00">libs/JSystem/JParticle</text>
<text text-anchor="middle" x="3116" y="-139" font-family="Helvetica,sans-Serif" font-size="10.00">/JPAExtraShape.cpp</text>
</a>
</g>
</g>
<!-- Node2&#45;&gt;Node467 -->
<g id="edge30" class="edge">
<title>Node2&#45;&gt;Node467</title>
<path fill="none" stroke="#63b8ff" d="M3116,-186.51C3116,-178.49 3116,-169.43 3116,-162.11"/>
<polygon fill="#63b8ff" stroke="#63b8ff" points="3112.5,-186.35 3116,-196.35 3119.5,-186.35 3112.5,-186.35"/>
</g>
<!-- Node468 -->
<g id="node30" class="node">
<title>Node468</title>
<g id="a_node30"><a xlink:href="JPAResource_8cpp.html" target="_top" xlink:title=" ">
<polygon fill="white" stroke="#666666" points="3305,-162 3191,-162 3191,-132 3305,-132 3305,-162"/>
<text text-anchor="start" x="3199" y="-150" font-family="Helvetica,sans-Serif" font-size="10.00">libs/JSystem/JParticle</text>
<text text-anchor="middle" x="3248" y="-139" font-family="Helvetica,sans-Serif" font-size="10.00">/JPAResource.cpp</text>
</a>
</g>
</g>
<!-- Node2&#45;&gt;Node468 -->
<g id="edge31" class="edge">
<title>Node2&#45;&gt;Node468</title>
<path fill="none" stroke="#63b8ff" d="M3146.46,-193C3167.1,-183.85 3194.35,-171.78 3215.42,-162.44"/>
<polygon fill="#63b8ff" stroke="#63b8ff" points="3145.16,-189.75 3137.43,-197 3147.99,-196.15 3145.16,-189.75"/>
</g>
<!-- Node469 -->
<g id="node31" class="node">
<title>Node469</title>
<g id="a_node31"><a xlink:href="JUTCacheFont_8cpp.html" target="_top" xlink:title=" ">
<polygon fill="white" stroke="#666666" points="3429,-162 3323,-162 3323,-132 3429,-132 3429,-162"/>
<text text-anchor="start" x="3331" y="-150" font-family="Helvetica,sans-Serif" font-size="10.00">libs/JSystem/JUtility</text>
<text text-anchor="middle" x="3376" y="-139" font-family="Helvetica,sans-Serif" font-size="10.00">/JUTCacheFont.cpp</text>
</a>
</g>
</g>
<!-- Node2&#45;&gt;Node469 -->
<g id="edge32" class="edge">
<title>Node2&#45;&gt;Node469</title>
<path fill="none" stroke="#63b8ff" d="M3166.89,-195.08C3206.88,-186.1 3264,-173.26 3314,-162 3316.8,-161.37 3319.67,-160.72 3322.57,-160.07"/>
<polygon fill="#63b8ff" stroke="#63b8ff" points="3166.29,-191.62 3157.3,-197.23 3167.82,-198.45 3166.29,-191.62"/>
</g>
<!-- Node470 -->
<g id="node32" class="node">
<title>Node470</title>
<g id="a_node32"><a xlink:href="JUTPalette_8cpp.html" target="_top" xlink:title=" ">
<polygon fill="white" stroke="#666666" points="3553,-162 3447,-162 3447,-132 3553,-132 3553,-162"/>
<text text-anchor="start" x="3455" y="-150" font-family="Helvetica,sans-Serif" font-size="10.00">libs/JSystem/JUtility</text>
<text text-anchor="middle" x="3500" y="-139" font-family="Helvetica,sans-Serif" font-size="10.00">/JUTPalette.cpp</text>
</a>
</g>
</g>
<!-- Node2&#45;&gt;Node470 -->
<g id="edge33" class="edge">
<title>Node2&#45;&gt;Node470</title>
<path fill="none" stroke="#63b8ff" d="M3186.64,-197.45C3266.42,-187.1 3391.2,-170.5 3438,-162 3440.82,-161.49 3443.71,-160.93 3446.62,-160.35"/>
<polygon fill="#63b8ff" stroke="#63b8ff" points="3186.67,-193.92 3177.2,-198.67 3187.56,-200.86 3186.67,-193.92"/>
</g>
<!-- Node471 -->
<g id="node33" class="node">
<title>Node471</title>
<g id="a_node33"><a xlink:href="JUTResFont_8cpp.html" target="_top" xlink:title=" ">
<polygon fill="white" stroke="#666666" points="3677,-162 3571,-162 3571,-132 3677,-132 3677,-162"/>
<text text-anchor="start" x="3579" y="-150" font-family="Helvetica,sans-Serif" font-size="10.00">libs/JSystem/JUtility</text>
<text text-anchor="middle" x="3624" y="-139" font-family="Helvetica,sans-Serif" font-size="10.00">/JUTResFont.cpp</text>
</a>
</g>
</g>
<!-- Node2&#45;&gt;Node471 -->
<g id="edge34" class="edge">
<title>Node2&#45;&gt;Node471</title>
<path fill="none" stroke="#63b8ff" d="M3187.27,-197.79C3354.29,-180.08 3399.45,-188.01 3562,-162 3564.83,-161.55 3567.73,-161.04 3570.65,-160.5"/>
<polygon fill="#63b8ff" stroke="#63b8ff" points="3186.9,-194.31 3177.33,-198.87 3187.65,-201.27 3186.9,-194.31"/>
</g>
<!-- Node472 -->
<g id="node34" class="node">
<title>Node472</title>
<g id="a_node34"><a xlink:href="JUTTexture_8cpp.html" target="_top" xlink:title=" ">
<polygon fill="white" stroke="#666666" points="3801,-162 3695,-162 3695,-132 3801,-132 3801,-162"/>
<text text-anchor="start" x="3703" y="-150" font-family="Helvetica,sans-Serif" font-size="10.00">libs/JSystem/JUtility</text>
<text text-anchor="middle" x="3748" y="-139" font-family="Helvetica,sans-Serif" font-size="10.00">/JUTTexture.cpp</text>
</a>
</g>
</g>
<!-- Node2&#45;&gt;Node472 -->
<g id="edge35" class="edge">
<title>Node2&#45;&gt;Node472</title>
<path fill="none" stroke="#63b8ff" d="M3187.2,-197.85C3409.16,-176.94 3468.83,-194.14 3686,-162 3688.84,-161.58 3691.74,-161.1 3694.66,-160.58"/>
<polygon fill="#63b8ff" stroke="#63b8ff" points="3186.95,-194.36 3177.33,-198.8 3187.61,-201.33 3186.95,-194.36"/>
</g>
<!-- Node473 -->
<g id="node35" class="node">
<title>Node473</title>
<g id="a_node35"><a xlink:href="JUTVideo_8cpp.html" target="_top" xlink:title=" ">
<polygon fill="white" stroke="#666666" points="3925,-162 3819,-162 3819,-132 3925,-132 3925,-162"/>
<text text-anchor="start" x="3827" y="-150" font-family="Helvetica,sans-Serif" font-size="10.00">libs/JSystem/JUtility</text>
<text text-anchor="middle" x="3872" y="-139" font-family="Helvetica,sans-Serif" font-size="10.00">/JUTVideo.cpp</text>
</a>
</g>
</g>
<!-- Node2&#45;&gt;Node473 -->
<g id="edge36" class="edge">
<title>Node2&#45;&gt;Node473</title>
<path fill="none" stroke="#63b8ff" d="M3187.03,-197.89C3464.05,-173.7 3538.11,-200.26 3810,-162 3812.84,-161.6 3815.74,-161.14 3818.67,-160.63"/>
<polygon fill="#63b8ff" stroke="#63b8ff" points="3186.97,-194.38 3177.32,-198.76 3187.59,-201.36 3186.97,-194.38"/>
</g>
<!-- Node474 -->
<g id="node36" class="node">
<title>Node474</title>
<g id="a_node36"><a xlink:href="JUTXfb_8cpp.html" target="_top" xlink:title=" ">
<polygon fill="white" stroke="#666666" points="4049,-162 3943,-162 3943,-132 4049,-132 4049,-162"/>
<text text-anchor="start" x="3951" y="-150" font-family="Helvetica,sans-Serif" font-size="10.00">libs/JSystem/JUtility</text>
<text text-anchor="middle" x="3996" y="-139" font-family="Helvetica,sans-Serif" font-size="10.00">/JUTXfb.cpp</text>
</a>
</g>
</g>
<!-- Node2&#45;&gt;Node474 -->
<g id="edge37" class="edge">
<title>Node2&#45;&gt;Node474</title>
<path fill="none" stroke="#63b8ff" d="M3187.21,-197.89C3519.04,-170.43 3607.47,-206.37 3934,-162 3936.84,-161.61 3939.75,-161.16 3942.67,-160.66"/>
<polygon fill="#63b8ff" stroke="#63b8ff" points="3186.99,-194.4 3177.32,-198.73 3187.58,-201.38 3186.99,-194.4"/>
</g>
<!-- Node475 -->
<g id="node37" class="node">
<title>Node475</title>
<g id="a_node37"><a xlink:href="GFLight_8cpp.html" target="_top" xlink:title=" ">
<polygon fill="white" stroke="#666666" points="4200.5,-156.5 4067.5,-156.5 4067.5,-137.5 4200.5,-137.5 4200.5,-156.5"/>
<text text-anchor="middle" x="4134" y="-144.5" font-family="Helvetica,sans-Serif" font-size="10.00">libs/dolphin/gf/GFLight.cpp</text>
</a>
</g>
</g>
<!-- Node2&#45;&gt;Node475 -->
<g id="edge38" class="edge">
<title>Node2&#45;&gt;Node475</title>
<path fill="none" stroke="#63b8ff" d="M3187.05,-197.92C3573.96,-166.97 3675.76,-204.87 4058,-162 4068.8,-160.79 4080.37,-158.94 4091.15,-156.98"/>
<polygon fill="#63b8ff" stroke="#63b8ff" points="3187,-194.41 3177.32,-198.71 3187.57,-201.39 3187,-194.41"/>
</g>
<!-- Node476 -->
<g id="node38" class="node">
<title>Node476</title>
<g id="a_node38"><a xlink:href="GFPixel_8cpp.html" target="_top" xlink:title=" ">
<polygon fill="white" stroke="#666666" points="4351,-156.5 4219,-156.5 4219,-137.5 4351,-137.5 4351,-156.5"/>
<text text-anchor="middle" x="4285" y="-144.5" font-family="Helvetica,sans-Serif" font-size="10.00">libs/dolphin/gf/GFPixel.cpp</text>
</a>
</g>
</g>
<!-- Node2&#45;&gt;Node476 -->
<g id="edge39" class="edge">
<title>Node2&#45;&gt;Node476</title>
<path fill="none" stroke="#63b8ff" d="M3187.28,-197.91C3641.39,-162.92 3760.67,-211.55 4210,-162 4220.8,-160.81 4232.37,-158.95 4243.12,-156.96"/>
<polygon fill="#63b8ff" stroke="#63b8ff" points="3187.01,-194.42 3177.32,-198.69 3187.56,-201.4 3187.01,-194.42"/>
</g>
<!-- Node477 -->
<g id="node39" class="node">
<title>Node477</title>
<g id="a_node39"><a xlink:href="GFTev_8cpp.html" target="_top" xlink:title=" ">
<polygon fill="white" stroke="#666666" points="4497,-156.5 4369,-156.5 4369,-137.5 4497,-137.5 4497,-156.5"/>
<text text-anchor="middle" x="4433" y="-144.5" font-family="Helvetica,sans-Serif" font-size="10.00">libs/dolphin/gf/GFTev.cpp</text>
</a>
</g>
</g>
<!-- Node2&#45;&gt;Node477 -->
<g id="edge40" class="edge">
<title>Node2&#45;&gt;Node477</title>
<path fill="none" stroke="#63b8ff" d="M3187.01,-197.94C3707.86,-158.88 3844.37,-218.98 4360,-162 4370.65,-160.82 4382.06,-158.94 4392.63,-156.93"/>
<polygon fill="#63b8ff" stroke="#63b8ff" points="3187.02,-194.43 3177.31,-198.68 3187.55,-201.41 3187.02,-194.43"/>
</g>
<!-- Node478 -->
<g id="node40" class="node">
<title>Node478</title>
<g id="a_node40"><a xlink:href="GXBump_8c.html" target="_top" xlink:title=" ">
<polygon fill="white" stroke="#666666" points="4643,-156.5 4515,-156.5 4515,-137.5 4643,-137.5 4643,-156.5"/>
<text text-anchor="middle" x="4579" y="-144.5" font-family="Helvetica,sans-Serif" font-size="10.00">libs/dolphin/gx/GXBump.c</text>
</a>
</g>
</g>
<!-- Node2&#45;&gt;Node478 -->
<g id="edge41" class="edge">
<title>Node2&#45;&gt;Node478</title>
<path fill="none" stroke="#63b8ff" d="M3187.08,-197.94C3772.62,-154.95 3925.82,-225.12 4506,-162 4516.65,-160.84 4528.06,-158.96 4538.63,-156.95"/>
<polygon fill="#63b8ff" stroke="#63b8ff" points="3187.03,-194.44 3177.31,-198.67 3187.55,-201.42 3187.03,-194.44"/>
</g>
<!-- Node479 -->
<g id="node41" class="node">
<title>Node479</title>
<g id="a_node41"><a xlink:href="GXDisplayList_8c.html" target="_top" xlink:title=" ">
<polygon fill="white" stroke="#666666" points="4788.5,-162 4661.5,-162 4661.5,-132 4788.5,-132 4788.5,-162"/>
<text text-anchor="start" x="4669.5" y="-150" font-family="Helvetica,sans-Serif" font-size="10.00">libs/dolphin/gx/GXDisplay</text>
<text text-anchor="middle" x="4725" y="-139" font-family="Helvetica,sans-Serif" font-size="10.00">List.c</text>
</a>
</g>
</g>
<!-- Node2&#45;&gt;Node479 -->
<g id="edge42" class="edge">
<title>Node2&#45;&gt;Node479</title>
<path fill="none" stroke="#63b8ff" d="M3186.87,-197.96C3837.34,-150.98 4007.18,-231.27 4652,-162 4655.08,-161.67 4658.22,-161.28 4661.39,-160.84"/>
<polygon fill="#63b8ff" stroke="#63b8ff" points="3187.03,-194.44 3177.31,-198.66 3187.54,-201.42 3187.03,-194.44"/>
</g>
<!-- Node480 -->
<g id="node42" class="node">
<title>Node480</title>
<g id="a_node42"><a xlink:href="GXDraw_8c.html" target="_top" xlink:title=" ">
<polygon fill="white" stroke="#666666" points="4931.5,-156.5 4806.5,-156.5 4806.5,-137.5 4931.5,-137.5 4931.5,-156.5"/>
<text text-anchor="middle" x="4869" y="-144.5" font-family="Helvetica,sans-Serif" font-size="10.00">libs/dolphin/gx/GXDraw.c</text>
</a>
</g>
</g>
<!-- Node2&#45;&gt;Node480 -->
<g id="edge43" class="edge">
<title>Node2&#45;&gt;Node480</title>
<path fill="none" stroke="#63b8ff" d="M3187.17,-197.94C3902.14,-147.08 4088.89,-239.24 4798,-162 4808.37,-160.87 4819.47,-159 4829.75,-156.99"/>
<polygon fill="#63b8ff" stroke="#63b8ff" points="3187.04,-194.44 3177.31,-198.65 3187.54,-201.43 3187.04,-194.44"/>
</g>
<!-- Node481 -->
<g id="node43" class="node">
<title>Node481</title>
<g id="a_node43"><a xlink:href="GXFifo_8c.html" target="_top" xlink:title=" ">
<polygon fill="white" stroke="#666666" points="5068.5,-156.5 4949.5,-156.5 4949.5,-137.5 5068.5,-137.5 5068.5,-156.5"/>
<text text-anchor="middle" x="5009" y="-144.5" font-family="Helvetica,sans-Serif" font-size="10.00">libs/dolphin/gx/GXFifo.c</text>
</a>
</g>
</g>
<!-- Node2&#45;&gt;Node481 -->
<g id="edge44" class="edge">
<title>Node2&#45;&gt;Node481</title>
<path fill="none" stroke="#63b8ff" d="M3187.01,-197.96C3965.55,-143.22 4168.96,-248.65 4941,-162 4951.06,-160.87 4961.84,-158.98 4971.79,-156.94"/>
<polygon fill="#63b8ff" stroke="#63b8ff" points="3187.04,-194.45 3177.31,-198.65 3187.54,-201.43 3187.04,-194.45"/>
</g>
<!-- Node482 -->
<g id="node44" class="node">
<title>Node482</title>
<g id="a_node44"><a xlink:href="GXFrameBuf_8c.html" target="_top" xlink:title=" ">
<polygon fill="white" stroke="#666666" points="5233,-156.5 5087,-156.5 5087,-137.5 5233,-137.5 5233,-156.5"/>
<text text-anchor="middle" x="5160" y="-144.5" font-family="Helvetica,sans-Serif" font-size="10.00">libs/dolphin/gx/GXFrameBuf.c</text>
</a>
</g>
</g>
<!-- Node2&#45;&gt;Node482 -->
<g id="edge45" class="edge">
<title>Node2&#45;&gt;Node482</title>
<path fill="none" stroke="#63b8ff" d="M3187.26,-197.94C4026.34,-139.4 4244.02,-240.67 5078,-162 5089.93,-160.87 5102.75,-159.01 5114.62,-157"/>
<polygon fill="#63b8ff" stroke="#63b8ff" points="3187.04,-194.45 3177.31,-198.64 3187.53,-201.43 3187.04,-194.45"/>
</g>
<!-- Node483 -->
<g id="node45" class="node">
<title>Node483</title>
<g id="a_node45"><a xlink:href="GXGeometry_8c.html" target="_top" xlink:title=" ">
<polygon fill="white" stroke="#666666" points="5396.5,-156.5 5251.5,-156.5 5251.5,-137.5 5396.5,-137.5 5396.5,-156.5"/>
<text text-anchor="middle" x="5324" y="-144.5" font-family="Helvetica,sans-Serif" font-size="10.00">libs/dolphin/gx/GXGeometry.c</text>
</a>
</g>
</g>
<!-- Node2&#45;&gt;Node483 -->
<g id="edge46" class="edge">
<title>Node2&#45;&gt;Node483</title>
<path fill="none" stroke="#63b8ff" d="M3187.24,-197.95C4099.08,-134.95 4335.39,-246.83 5242,-162 5254.08,-160.87 5267.06,-158.97 5279.05,-156.94"/>
<polygon fill="#63b8ff" stroke="#63b8ff" points="3187.04,-194.45 3177.31,-198.64 3187.53,-201.43 3187.04,-194.45"/>
</g>
<!-- Node484 -->
<g id="node46" class="node">
<title>Node484</title>
<g id="a_node46"><a xlink:href="GXInit_8c.html" target="_top" xlink:title=" ">
<polygon fill="white" stroke="#666666" points="5531,-156.5 5415,-156.5 5415,-137.5 5531,-137.5 5531,-156.5"/>
<text text-anchor="middle" x="5473" y="-144.5" font-family="Helvetica,sans-Serif" font-size="10.00">libs/dolphin/gx/GXInit.c</text>
</a>
</g>
</g>
<!-- Node2&#45;&gt;Node484 -->
<g id="edge47" class="edge">
<title>Node2&#45;&gt;Node484</title>
<path fill="none" stroke="#63b8ff" d="M3186.94,-197.98C3695.53,-164.55 4919.02,-216.33 5406,-162 5415.92,-160.89 5426.54,-159.01 5436.34,-156.97"/>
<polygon fill="#63b8ff" stroke="#63b8ff" points="3187.05,-194.47 3177.31,-198.64 3187.53,-201.45 3187.05,-194.47"/>
</g>
<!-- Node485 -->
<g id="node47" class="node">
<title>Node485</title>
<g id="a_node47"><a xlink:href="GXLight_8c.html" target="_top" xlink:title=" ">
<polygon fill="white" stroke="#666666" points="5674.5,-156.5 5549.5,-156.5 5549.5,-137.5 5674.5,-137.5 5674.5,-156.5"/>
<text text-anchor="middle" x="5612" y="-144.5" font-family="Helvetica,sans-Serif" font-size="10.00">libs/dolphin/gx/GXLight.c</text>
</a>
</g>
</g>
<!-- Node2&#45;&gt;Node485 -->
<g id="edge48" class="edge">
<title>Node2&#45;&gt;Node485</title>
<path fill="none" stroke="#63b8ff" d="M3187.2,-197.97C3725.69,-162.71 5023.1,-215.78 5540,-162 5550.64,-160.89 5562.05,-159.01 5572.58,-156.97"/>
<polygon fill="#63b8ff" stroke="#63b8ff" points="3187.05,-194.47 3177.31,-198.63 3187.52,-201.45 3187.05,-194.47"/>
</g>
<!-- Node203 -->
<g id="node48" class="node">
<title>Node203</title>
<g id="a_node48"><a xlink:href="d__drawlist_8cpp.html" target="_top" xlink:title=" ">
<polygon fill="white" stroke="#666666" points="5797,-156.5 5693,-156.5 5693,-137.5 5797,-137.5 5797,-156.5"/>
<text text-anchor="middle" x="5745" y="-144.5" font-family="Helvetica,sans-Serif" font-size="10.00">src/d/d_drawlist.cpp</text>
</a>
</g>
</g>
<!-- Node2&#45;&gt;Node203 -->
<g id="edge49" class="edge">
<title>Node2&#45;&gt;Node203</title>
<path fill="none" stroke="#63b8ff" d="M3187.05,-197.98C3757.42,-160.89 5136.24,-228.05 5684,-162 5693.06,-160.91 5702.74,-159.02 5711.66,-156.99"/>
<polygon fill="#63b8ff" stroke="#63b8ff" points="3187.06,-194.47 3177.31,-198.63 3187.52,-201.46 3187.06,-194.47"/>
</g>
<!-- Node486 -->
<g id="node49" class="node">
<title>Node486</title>
<g id="a_node49"><a xlink:href="m__Do__Reset_8cpp.html" target="_top" xlink:title=" ">
<polygon fill="white" stroke="#666666" points="5951,-156.5 5815,-156.5 5815,-137.5 5951,-137.5 5951,-156.5"/>
<text text-anchor="middle" x="5883" y="-144.5" font-family="Helvetica,sans-Serif" font-size="10.00">src/m_Do/m_Do_Reset.cpp</text>
</a>
</g>
</g>
<!-- Node2&#45;&gt;Node486 -->
<g id="edge50" class="edge">
<title>Node2&#45;&gt;Node486</title>
<path fill="none" stroke="#63b8ff" d="M3187.15,-197.97C3784.65,-159.09 5229.91,-217.94 5806,-162 5817.36,-160.9 5829.56,-159.01 5840.81,-156.97"/>
<polygon fill="#63b8ff" stroke="#63b8ff" points="3187.06,-194.47 3177.31,-198.63 3187.52,-201.45 3187.06,-194.47"/>
</g>
<!-- Node4 -->
<g id="node4" class="node">
<title>Node4</title>
<g id="a_node4"><a xlink:href="J3DGD_8cpp.html" target="_top" xlink:title=" ">
<polygon fill="white" stroke="#666666" points="142,-96 0,-96 0,-66 142,-66 142,-96"/>
<text text-anchor="start" x="8" y="-84" font-family="Helvetica,sans-Serif" font-size="10.00">libs/JSystem/J3DGraphBase</text>
<text text-anchor="middle" x="71" y="-73" font-family="Helvetica,sans-Serif" font-size="10.00">/J3DGD.cpp</text>
</a>
</g>
</g>
<!-- Node3&#45;&gt;Node4 -->
<g id="edge3" class="edge">
<title>Node3&#45;&gt;Node4</title>
<path fill="none" stroke="#63b8ff" d="M213.93,-128.2C182.94,-118.18 144.74,-105.83 115.63,-96.43"/>
<polygon fill="#63b8ff" stroke="#63b8ff" points="212.53,-131.43 223.12,-131.17 214.69,-124.77 212.53,-131.43"/>
</g>
<!-- Node5 -->
<g id="node5" class="node">
<title>Node5</title>
<g id="a_node5"><a xlink:href="J3DMaterial_8cpp.html" target="_top" xlink:title=" ">
<polygon fill="white" stroke="#666666" points="525,-30 383,-30 383,0 525,0 525,-30"/>
<text text-anchor="start" x="391" y="-18" font-family="Helvetica,sans-Serif" font-size="10.00">libs/JSystem/J3DGraphBase</text>
<text text-anchor="middle" x="454" y="-7" font-family="Helvetica,sans-Serif" font-size="10.00">/J3DMaterial.cpp</text>
</a>
</g>
</g>
<!-- Node3&#45;&gt;Node5 -->
<g id="edge4" class="edge">
<title>Node3&#45;&gt;Node5</title>
<path fill="none" stroke="#63b8ff" d="M226.51,-126.2C198.8,-110.59 170.86,-87.89 189,-66 213.17,-36.85 312.59,-24.57 382.52,-19.49"/>
<polygon fill="#63b8ff" stroke="#63b8ff" points="224.83,-129.27 235.29,-130.9 228.13,-123.1 224.83,-129.27"/>
</g>
<!-- Node6 -->
<g id="node6" class="node">
<title>Node6</title>
<g id="a_node6"><a xlink:href="J3DShapeMtx_8cpp.html" target="_top" xlink:title=" ">
<polygon fill="white" stroke="#666666" points="340,-96 198,-96 198,-66 340,-66 340,-96"/>
<text text-anchor="start" x="206" y="-84" font-family="Helvetica,sans-Serif" font-size="10.00">libs/JSystem/J3DGraphBase</text>
<text text-anchor="middle" x="269" y="-73" font-family="Helvetica,sans-Serif" font-size="10.00">/J3DShapeMtx.cpp</text>
</a>
</g>
</g>
<!-- Node3&#45;&gt;Node6 -->
<g id="edge5" class="edge">
<title>Node3&#45;&gt;Node6</title>
<path fill="none" stroke="#63b8ff" d="M269,-120.39C269,-112.13 269,-103.28 269,-96.16"/>
<polygon fill="#63b8ff" stroke="#63b8ff" points="265.5,-120.28 269,-130.28 272.5,-120.28 265.5,-120.28"/>
</g>
<!-- Node7 -->
<g id="node7" class="node">
<title>Node7</title>
<g id="a_node7"><a xlink:href="J3DSys_8cpp.html" target="_top" xlink:title=" ">
<polygon fill="white" stroke="#666666" points="500,-96 358,-96 358,-66 500,-66 500,-96"/>
<text text-anchor="start" x="366" y="-84" font-family="Helvetica,sans-Serif" font-size="10.00">libs/JSystem/J3DGraphBase</text>
<text text-anchor="middle" x="429" y="-73" font-family="Helvetica,sans-Serif" font-size="10.00">/J3DSys.cpp</text>
</a>
</g>
</g>
<!-- Node3&#45;&gt;Node7 -->
<g id="edge6" class="edge">
<title>Node3&#45;&gt;Node7</title>
<path fill="none" stroke="#63b8ff" d="M315.48,-127.41C340.16,-117.54 370.03,-105.59 392.94,-96.43"/>
<polygon fill="#63b8ff" stroke="#63b8ff" points="314.3,-124.11 306.31,-131.08 316.9,-130.61 314.3,-124.11"/>
</g>
<!-- Node9 -->
<g id="node9" class="node">
<title>Node9</title>
<g id="a_node9"><a xlink:href="J3DShapeTable_8h.html" target="_top" xlink:title=" ">
<polygon fill="#fff0f0" stroke="red" points="653.5,-96 518.5,-96 518.5,-66 653.5,-66 653.5,-96"/>
<text text-anchor="start" x="526.5" y="-84" font-family="Helvetica,sans-Serif" font-size="10.00">include/JSystem/J3DGraph</text>
<text text-anchor="middle" x="586" y="-73" font-family="Helvetica,sans-Serif" font-size="10.00">Animator/J3DShapeTable.h</text>
</a>
</g>
</g>
<!-- Node8&#45;&gt;Node9 -->
<g id="edge8" class="edge">
<title>Node8&#45;&gt;Node9</title>
<path fill="none" stroke="#63b8ff" d="M585.4,-120.39C585.53,-112.13 585.67,-103.28 585.78,-96.16"/>
<polygon fill="#63b8ff" stroke="#63b8ff" points="581.9,-120.23 585.25,-130.28 588.9,-120.34 581.9,-120.23"/>
</g>
<!-- Node410 -->
<g id="node10" class="node">
<title>Node410</title>
<g id="a_node10"><a xlink:href="J3DMaterial_8h.html" target="_top" xlink:title=" ">
<polygon fill="#fff0f0" stroke="red" points="806.5,-96 671.5,-96 671.5,-66 806.5,-66 806.5,-96"/>
<text text-anchor="start" x="679.5" y="-84" font-family="Helvetica,sans-Serif" font-size="10.00">include/JSystem/J3DGraph</text>
<text text-anchor="middle" x="739" y="-73" font-family="Helvetica,sans-Serif" font-size="10.00">Base/J3DMaterial.h</text>
</a>
</g>
</g>
<!-- Node8&#45;&gt;Node410 -->
<g id="edge9" class="edge">
<title>Node8&#45;&gt;Node410</title>
<path fill="none" stroke="#63b8ff" d="M630.06,-127.27C653.75,-117.43 682.34,-105.55 704.29,-96.43"/>
<polygon fill="#63b8ff" stroke="#63b8ff" points="628.85,-123.99 620.96,-131.06 631.54,-130.45 628.85,-123.99"/>
</g>
<!-- Node410&#45;&gt;Node5 -->
<g id="edge10" class="edge">
<title>Node410&#45;&gt;Node5</title>
<path fill="none" stroke="#63b8ff" d="M663.72,-63.1C618.38,-52.91 561.26,-40.09 518.08,-30.39"/>
<polygon fill="#63b8ff" stroke="#63b8ff" points="662.68,-66.45 673.21,-65.23 664.22,-59.62 662.68,-66.45"/>
</g>
<!-- Node414&#45;&gt;Node7 -->
<g id="edge12" class="edge">
<title>Node414&#45;&gt;Node7</title>
<path fill="none" stroke="#63b8ff" d="M429.6,-120.39C429.47,-112.13 429.33,-103.28 429.22,-96.16"/>
<polygon fill="#63b8ff" stroke="#63b8ff" points="426.1,-120.34 429.75,-130.28 433.1,-120.23 426.1,-120.34"/>
</g>
</g>
</svg>
        <g id="navigator" transform="translate(0 0)" fill="#404254">
                <rect fill="#f2f5e9" fill-opacity="0.5" stroke="#606060" stroke-width=".5" x="0" y="0" width="60" height="60"/>
                <use id="zoomplus" xlink:href="#zoomPlus" x="17" y="9" onmousedown="handleZoom(evt,'in')"/>
                <use id="zoomminus" xlink:href="#zoomMin" x="42" y="9" onmousedown="handleZoom(evt,'out')"/>
                <use id="reset" xlink:href="#resetDef" x="30" y="36" onmousedown="handleReset()"/>
                <g id="arrowUp" xlink:href="#dirArrow" transform="translate(30 24)" onmousedown="handlePan(0,-1)">
                  <use xlink:href="#rim" fill="#404040">
                        <set attributeName="fill" to="#808080" begin="arrowUp.mouseover" end="arrowUp.mouseout"/>
                  </use>
                  <path fill="none" stroke="white" stroke-width="1.5" d="M0,-3.0v7 M-2.5,-0.5L0,-3.0L2.5,-0.5"/>
                </g>
                <g id="arrowRight" xlink:href="#dirArrow" transform="rotate(90) translate(36 -43)" onmousedown="handlePan(1,0)">
                  <use xlink:href="#rim" fill="#404040">
                        <set attributeName="fill" to="#808080" begin="arrowRight.mouseover" end="arrowRight.mouseout"/>
                  </use>
                  <path fill="none" stroke="white" stroke-width="1.5" d="M0,-3.0v7 M-2.5,-0.5L0,-3.0L2.5,-0.5"/>
                </g>
                <g id="arrowDown" xlink:href="#dirArrow" transform="rotate(180) translate(-30 -48)" onmousedown="handlePan(0,1)">
                  <use xlink:href="#rim" fill="#404040">
                        <set attributeName="fill" to="#808080" begin="arrowDown.mouseover" end="arrowDown.mouseout"/>
                  </use>
                  <path fill="none" stroke="white" stroke-width="1.5" d="M0,-3.0v7 M-2.5,-0.5L0,-3.0L2.5,-0.5"/>
                </g>
                <g id="arrowLeft" xlink:href="#dirArrow" transform="rotate(270) translate(-36 17)" onmousedown="handlePan(-1,0)">
                  <use xlink:href="#rim" fill="#404040">
                        <set attributeName="fill" to="#808080" begin="arrowLeft.mouseover" end="arrowLeft.mouseout"/>
                  </use>
                  <path fill="none" stroke="white" stroke-width="1.5" d="M0,-3.0v7 M-2.5,-0.5L0,-3.0L2.5,-0.5"/>
                </g>
        </g>
        <svg viewBox="0 0 15 15" width="100%" height="30px" preserveAspectRatio="xMaxYMin meet">
         <g id="arrow_out" transform="scale(0.3 0.3)">
          <a xlink:href="GXMisc_8h__dep__incl_org.svg" target="_base">
           <rect id="button" ry="5" rx="5" y="6" x="6" height="38" width="38"
                fill="#f2f5e9" fill-opacity="0.5" stroke="#606060" stroke-width="1.0"/>
           <path id="arrow"
             d="M 11.500037,31.436501 C 11.940474,20.09759 22.043105,11.32322 32.158766,21.979434 L 37.068811,17.246167 C 37.068811,17.246167 37.088388,32 37.088388,32 L 22.160133,31.978069 C 22.160133,31.978069 26.997745,27.140456 26.997745,27.140456 C 18.528582,18.264221 13.291696,25.230495 11.500037,31.436501 z"
             style="fill:#404040;"/>
          </a>
         </g>
        </svg>
</svg>
