<?xml version="1.0" encoding="UTF-8" standalone="no"?>
<!DOCTYPE svg PUBLIC "-//W3C//DTD SVG 1.1//EN"
 "http://www.w3.org/Graphics/SVG/1.1/DTD/svg11.dtd">
<!-- Generated by graphviz version 7.0.5 (20221223.1930)
 -->
<!-- Title: Graphical Class Hierarchy Pages: 1 -->
<svg width="233pt" height="64pt"
 viewBox="0.00 0.00 233.00 64.00" xmlns="http://www.w3.org/2000/svg" xmlns:xlink="http://www.w3.org/1999/xlink">
<g id="graph0" class="graph" transform="scale(1 1) rotate(0) translate(4 60)">
<title>Graphical Class Hierarchy</title>
<!-- Node0 -->
<g id="node1" class="node">
<title>Node0</title>
<g id="a_node1"><a xlink:href="classstd_1_1____bitset__base.html" target="_top" xlink:title=" ">
<polygon fill="white" stroke="#666666" points="98,-48 0,-48 0,-7 98,-7 98,-48"/>
<text text-anchor="start" x="8" y="-36" font-family="Helvetica,sans-Serif" font-size="10.00">std::__bitset_base</text>
<text text-anchor="start" x="8" y="-25" font-family="Helvetica,sans-Serif" font-size="10.00">&lt;(N &#45; 1)/sizeof(size</text>
<text text-anchor="middle" x="49" y="-14" font-family="Helvetica,sans-Serif" font-size="10.00">_t)+1 &gt;</text>
</a>
</g>
</g>
<!-- Node1 -->
<g id="node2" class="node">
<title>Node1</title>
<g id="a_node2"><a xlink:href="classstd_1_1bitset.html" target="_top" xlink:title=" ">
<polygon fill="white" stroke="#666666" points="225,-56 134,-56 134,-37 225,-37 225,-56"/>
<text text-anchor="middle" x="179.5" y="-44" font-family="Helvetica,sans-Serif" font-size="10.00">std::bitset&lt; 255 &gt;</text>
</a>
</g>
</g>
<!-- Node0&#45;&gt;Node1 -->
<g id="edge1" class="edge">
<title>Node0&#45;&gt;Node1</title>
<path fill="none" stroke="#8b1a1a" d="M109.33,-36.27C117.57,-37.49 125.92,-38.73 133.84,-39.9"/>
<polygon fill="#8b1a1a" stroke="#8b1a1a" points="110.12,-32.85 99.71,-34.85 109.09,-39.78 110.12,-32.85"/>
</g>
<!-- Node2 -->
<g id="node3" class="node">
<title>Node2</title>
<g id="a_node3"><a xlink:href="classstd_1_1bitset.html" target="_top" xlink:title=" ">
<polygon fill="white" stroke="#666666" points="221,-19 138,-19 138,0 221,0 221,-19"/>
<text text-anchor="middle" x="179.5" y="-7" font-family="Helvetica,sans-Serif" font-size="10.00">std::bitset&lt; N &gt;</text>
</a>
</g>
</g>
<!-- Node0&#45;&gt;Node2 -->
<g id="edge2" class="edge">
<title>Node0&#45;&gt;Node2</title>
<path fill="none" stroke="#8b1a1a" d="M109.32,-19.19C118.88,-17.85 128.59,-16.49 137.59,-15.23"/>
<polygon fill="#8b1a1a" stroke="#8b1a1a" points="109.13,-15.68 99.71,-20.54 110.1,-22.62 109.13,-15.68"/>
</g>
</g>
</svg>
