<?xml version="1.0" encoding="UTF-8" standalone="no"?>
<!DOCTYPE svg PUBLIC "-//W3C//DTD SVG 1.1//EN"
 "http://www.w3.org/Graphics/SVG/1.1/DTD/svg11.dtd">
<!-- Generated by graphviz version 7.0.5 (20221223.1930)
 -->
<!-- Title: include/JSystem/J2DGraph/J2DMaterial.h Pages: 1 -->
<!--zoomable 302 -->
<svg id="main" version="1.1" xmlns="http://www.w3.org/2000/svg" xmlns:xlink="http://www.w3.org/1999/xlink" xml:space="preserve" onload="init(evt)">
<style type="text/css"><![CDATA[
.edge:hover path { stroke: red; }
.edge:hover polygon { stroke: red; fill: red; }
]]></style>
<script type="text/javascript"><![CDATA[
var edges = document.getElementsByTagName('g');
if (edges && edges.length) {
  for (var i=0;i<edges.length;i++) {
    if (edges[i].id.substr(0,4)=='edge') {
      edges[i].setAttribute('class','edge');
    }
  }
}
]]></script>
        <defs>
                <circle id="rim" cx="0" cy="0" r="7"/>
                <circle id="rim2" cx="0" cy="0" r="3.5"/>
                <g id="zoomPlus">
                        <use xlink:href="#rim" fill="#404040">
                                <set attributeName="fill" to="#808080" begin="zoomplus.mouseover" end="zoomplus.mouseout"/>
                        </use>
                        <path d="M-4,0h8M0,-4v8" fill="none" stroke="white" stroke-width="1.5" pointer-events="none"/>
                </g>
                <g id="zoomMin">
                        <use xlink:href="#rim" fill="#404040">
                                <set attributeName="fill" to="#808080" begin="zoomminus.mouseover" end="zoomminus.mouseout"/>
                        </use>
                        <path d="M-4,0h8" fill="none" stroke="white" stroke-width="1.5" pointer-events="none"/>
                </g>
                <g id="dirArrow">
                        <path fill="none" stroke="white" stroke-width="1.5" d="M0,-3.0v7 M-2.5,-0.5L0,-3.0L2.5,-0.5"/>
                </g>
               <g id="resetDef">
                       <use xlink:href="#rim2" fill="#404040">
                               <set attributeName="fill" to="#808080" begin="reset.mouseover" end="reset.mouseout"/>
                       </use>
               </g>
        </defs>

<script type="text/javascript">
var viewWidth = 3396;
var viewHeight = 302;
var sectionId = 'dynsection-1';
</script>
<script xlink:href="svgpan.js"/>
<svg id="graph" class="graph">
<g id="viewport">
<title>include/JSystem/J2DGraph/J2DMaterial.h</title>
<!-- Node1 -->
<g id="node1" class="node">
<title>Node1</title>
<g id="a_node1"><a xlink:title=" ">
<polygon fill="#999999" stroke="#666666" points="3117.5,-294 2982.5,-294 2982.5,-264 3117.5,-264 3117.5,-294"/>
<text text-anchor="start" x="2990.5" y="-282" font-family="Helvetica,sans-Serif" font-size="10.00">include/JSystem/J2DGraph</text>
<text text-anchor="middle" x="3050" y="-271" font-family="Helvetica,sans-Serif" font-size="10.00">/J2DMaterial.h</text>
</a>
</g>
</g>
<!-- Node2 -->
<g id="node2" class="node">
<title>Node2</title>
<g id="a_node2"><a xlink:href="J2DTextBox_8h.html" target="_top" xlink:title=" ">
<polygon fill="white" stroke="#666666" points="1689.5,-228 1554.5,-228 1554.5,-198 1689.5,-198 1689.5,-228"/>
<text text-anchor="start" x="1562.5" y="-216" font-family="Helvetica,sans-Serif" font-size="10.00">include/JSystem/J2DGraph</text>
<text text-anchor="middle" x="1622" y="-205" font-family="Helvetica,sans-Serif" font-size="10.00">/J2DTextBox.h</text>
</a>
</g>
</g>
<!-- Node1&#45;&gt;Node2 -->
<g id="edge1" class="edge">
<title>Node1&#45;&gt;Node2</title>
<path fill="none" stroke="#63b8ff" d="M2970.77,-274.45C2716.98,-263.07 1926.96,-227.67 1689.91,-217.04"/>
<polygon fill="#63b8ff" stroke="#63b8ff" points="2970.43,-277.94 2980.57,-274.89 2970.74,-270.94 2970.43,-277.94"/>
</g>
<!-- Node39 -->
<g id="node39" class="node">
<title>Node39</title>
<g id="a_node39"><a xlink:href="J2DWindow_8h.html" target="_top" xlink:title=" ">
<polygon fill="white" stroke="#666666" points="2972.5,-228 2837.5,-228 2837.5,-198 2972.5,-198 2972.5,-228"/>
<text text-anchor="start" x="2845.5" y="-216" font-family="Helvetica,sans-Serif" font-size="10.00">include/JSystem/J2DGraph</text>
<text text-anchor="middle" x="2905" y="-205" font-family="Helvetica,sans-Serif" font-size="10.00">/J2DWindow.h</text>
</a>
</g>
</g>
<!-- Node1&#45;&gt;Node39 -->
<g id="edge41" class="edge">
<title>Node1&#45;&gt;Node39</title>
<path fill="none" stroke="#63b8ff" d="M3006.97,-259.01C2984.78,-249.22 2958.16,-237.46 2937.68,-228.43"/>
<polygon fill="#63b8ff" stroke="#63b8ff" points="3005.51,-262.19 3016.07,-263.03 3008.34,-255.79 3005.51,-262.19"/>
</g>
<!-- Node43 -->
<g id="node43" class="node">
<title>Node43</title>
<g id="a_node43"><a xlink:href="J2DMaterial_8cpp.html" target="_top" xlink:title=" ">
<polygon fill="white" stroke="#666666" points="3109.5,-228 2990.5,-228 2990.5,-198 3109.5,-198 3109.5,-228"/>
<text text-anchor="start" x="2998.5" y="-216" font-family="Helvetica,sans-Serif" font-size="10.00">libs/JSystem/J2DGraph</text>
<text text-anchor="middle" x="3050" y="-205" font-family="Helvetica,sans-Serif" font-size="10.00">/J2DMaterial.cpp</text>
</a>
</g>
</g>
<!-- Node1&#45;&gt;Node43 -->
<g id="edge47" class="edge">
<title>Node1&#45;&gt;Node43</title>
<path fill="none" stroke="#63b8ff" d="M3050,-252.39C3050,-244.13 3050,-235.28 3050,-228.16"/>
<polygon fill="#63b8ff" stroke="#63b8ff" points="3046.5,-252.28 3050,-262.28 3053.5,-252.28 3046.5,-252.28"/>
</g>
<!-- Node44 -->
<g id="node44" class="node">
<title>Node44</title>
<g id="a_node44"><a xlink:href="J2DMaterialFactory_8cpp.html" target="_top" xlink:title=" ">
<polygon fill="white" stroke="#666666" points="3250,-228 3128,-228 3128,-198 3250,-198 3250,-228"/>
<text text-anchor="start" x="3136" y="-216" font-family="Helvetica,sans-Serif" font-size="10.00">libs/JSystem/J2DGraph</text>
<text text-anchor="middle" x="3189" y="-205" font-family="Helvetica,sans-Serif" font-size="10.00">/J2DMaterialFactory.cpp</text>
</a>
</g>
</g>
<!-- Node1&#45;&gt;Node44 -->
<g id="edge48" class="edge">
<title>Node1&#45;&gt;Node44</title>
<path fill="none" stroke="#63b8ff" d="M3091.58,-258.86C3112.87,-249.05 3138.35,-237.32 3157.91,-228.31"/>
<polygon fill="#63b8ff" stroke="#63b8ff" points="3090.19,-255.64 3082.57,-263 3093.12,-262 3090.19,-255.64"/>
</g>
<!-- Node45 -->
<g id="node45" class="node">
<title>Node45</title>
<g id="a_node45"><a xlink:href="J2DPictureEx_8cpp.html" target="_top" xlink:title=" ">
<polygon fill="white" stroke="#666666" points="3387.5,-228 3268.5,-228 3268.5,-198 3387.5,-198 3387.5,-228"/>
<text text-anchor="start" x="3276.5" y="-216" font-family="Helvetica,sans-Serif" font-size="10.00">libs/JSystem/J2DGraph</text>
<text text-anchor="middle" x="3328" y="-205" font-family="Helvetica,sans-Serif" font-size="10.00">/J2DPictureEx.cpp</text>
</a>
</g>
</g>
<!-- Node1&#45;&gt;Node45 -->
<g id="edge49" class="edge">
<title>Node1&#45;&gt;Node45</title>
<path fill="none" stroke="#63b8ff" d="M3123.94,-260.98C3169.1,-250.58 3226.08,-237.46 3268.35,-227.73"/>
<polygon fill="#63b8ff" stroke="#63b8ff" points="3123.17,-257.56 3114.21,-263.22 3124.74,-264.39 3123.17,-257.56"/>
</g>
<!-- Node3 -->
<g id="node3" class="node">
<title>Node3</title>
<g id="a_node3"><a xlink:href="J2DPrint_8h.html" target="_top" xlink:title=" ">
<polygon fill="white" stroke="#666666" points="2588.5,-162 2453.5,-162 2453.5,-132 2588.5,-132 2588.5,-162"/>
<text text-anchor="start" x="2461.5" y="-150" font-family="Helvetica,sans-Serif" font-size="10.00">include/JSystem/J2DGraph</text>
<text text-anchor="middle" x="2521" y="-139" font-family="Helvetica,sans-Serif" font-size="10.00">/J2DPrint.h</text>
</a>
</g>
</g>
<!-- Node2&#45;&gt;Node3 -->
<g id="edge2" class="edge">
<title>Node2&#45;&gt;Node3</title>
<path fill="none" stroke="#63b8ff" d="M1701.22,-209.99C1847.45,-205.66 2169.44,-193.17 2439,-162 2443.59,-161.47 2448.32,-160.85 2453.07,-160.18"/>
<polygon fill="#63b8ff" stroke="#63b8ff" points="1701.14,-206.49 1691.25,-210.28 1701.35,-213.49 1701.14,-206.49"/>
</g>
<!-- Node5 -->
<g id="node5" class="node">
<title>Node5</title>
<g id="a_node5"><a xlink:href="J2DTextBox_8cpp.html" target="_top" xlink:title=" ">
<polygon fill="white" stroke="#666666" points="2342.5,-96 2223.5,-96 2223.5,-66 2342.5,-66 2342.5,-96"/>
<text text-anchor="start" x="2231.5" y="-84" font-family="Helvetica,sans-Serif" font-size="10.00">libs/JSystem/J2DGraph</text>
<text text-anchor="middle" x="2283" y="-73" font-family="Helvetica,sans-Serif" font-size="10.00">/J2DTextBox.cpp</text>
</a>
</g>
</g>
<!-- Node2&#45;&gt;Node5 -->
<g id="edge26" class="edge">
<title>Node2&#45;&gt;Node5</title>
<path fill="none" stroke="#63b8ff" d="M1701.03,-209.84C1895.29,-204.16 2382.12,-187.45 2406,-162 2432.75,-133.48 2383.2,-110.4 2339.23,-96.49"/>
<polygon fill="#63b8ff" stroke="#63b8ff" points="1701.18,-206.34 1691.29,-210.13 1701.39,-213.34 1701.18,-206.34"/>
</g>
<!-- Node8 -->
<g id="node8" class="node">
<title>Node8</title>
<g id="a_node8"><a xlink:href="J2DTextBoxEx_8h.html" target="_top" xlink:title=" ">
<polygon fill="white" stroke="#666666" points="2741.5,-162 2606.5,-162 2606.5,-132 2741.5,-132 2741.5,-162"/>
<text text-anchor="start" x="2614.5" y="-150" font-family="Helvetica,sans-Serif" font-size="10.00">include/JSystem/J2DGraph</text>
<text text-anchor="middle" x="2674" y="-139" font-family="Helvetica,sans-Serif" font-size="10.00">/J2DTextBoxEx.h</text>
</a>
</g>
</g>
<!-- Node2&#45;&gt;Node8 -->
<g id="edge7" class="edge">
<title>Node2&#45;&gt;Node8</title>
<path fill="none" stroke="#63b8ff" d="M1701.1,-211.45C1867.62,-209.53 2266.28,-200.88 2598,-162 2600.67,-161.69 2603.38,-161.34 2606.11,-160.96"/>
<polygon fill="#63b8ff" stroke="#63b8ff" points="1701.47,-207.95 1691.51,-211.56 1701.55,-214.95 1701.47,-207.95"/>
</g>
<!-- Node10 -->
<g id="node10" class="node">
<title>Node10</title>
<g id="a_node10"><a xlink:href="d__menu__calibration_8h.html" target="_top" xlink:title=" ">
<polygon fill="white" stroke="#666666" points="324,-162 204,-162 204,-132 324,-132 324,-162"/>
<text text-anchor="start" x="212" y="-150" font-family="Helvetica,sans-Serif" font-size="10.00">include/d/menu/d_menu</text>
<text text-anchor="middle" x="264" y="-139" font-family="Helvetica,sans-Serif" font-size="10.00">_calibration.h</text>
</a>
</g>
</g>
<!-- Node2&#45;&gt;Node10 -->
<g id="edge10" class="edge">
<title>Node2&#45;&gt;Node10</title>
<path fill="none" stroke="#63b8ff" d="M1542.79,-209.57C1353.23,-203.55 858.55,-186.63 446,-162 405.35,-159.57 359.65,-156.06 324.22,-153.15"/>
<polygon fill="#63b8ff" stroke="#63b8ff" points="1542.4,-213.06 1552.51,-209.88 1542.62,-206.06 1542.4,-213.06"/>
</g>
<!-- Node12 -->
<g id="node12" class="node">
<title>Node12</title>
<g id="a_node12"><a xlink:href="d__menu__option_8cpp.html" target="_top" xlink:title=" ">
<polygon fill="white" stroke="#666666" points="340,-90.5 188,-90.5 188,-71.5 340,-71.5 340,-90.5"/>
<text text-anchor="middle" x="264" y="-78.5" font-family="Helvetica,sans-Serif" font-size="10.00">src/d/menu/d_menu_option.cpp</text>
</a>
</g>
</g>
<!-- Node2&#45;&gt;Node12 -->
<g id="edge36" class="edge">
<title>Node2&#45;&gt;Node12</title>
<path fill="none" stroke="#63b8ff" d="M1542.76,-210.95C1325.3,-207.64 722.42,-195.64 527,-162 435.52,-146.25 331.23,-108.25 286.4,-90.91"/>
<polygon fill="#63b8ff" stroke="#63b8ff" points="1542.5,-214.44 1552.55,-211.09 1542.6,-207.44 1542.5,-214.44"/>
</g>
<!-- Node13 -->
<g id="node13" class="node">
<title>Node13</title>
<g id="a_node13"><a xlink:href="d__msg__scrn__base_8h.html" target="_top" xlink:title=" ">
<polygon fill="white" stroke="#666666" points="634.5,-162 535.5,-162 535.5,-132 634.5,-132 634.5,-162"/>
<text text-anchor="start" x="543.5" y="-150" font-family="Helvetica,sans-Serif" font-size="10.00">include/msg/scrn/d</text>
<text text-anchor="middle" x="585" y="-139" font-family="Helvetica,sans-Serif" font-size="10.00">_msg_scrn_base.h</text>
</a>
</g>
</g>
<!-- Node2&#45;&gt;Node13 -->
<g id="edge13" class="edge">
<title>Node2&#45;&gt;Node13</title>
<path fill="none" stroke="#63b8ff" d="M1542.87,-212.81C1375.87,-213.46 975.51,-209.4 644,-162 640.98,-161.57 637.88,-161.05 634.77,-160.48"/>
<polygon fill="#63b8ff" stroke="#63b8ff" points="1542.51,-216.31 1552.49,-212.77 1542.48,-209.31 1542.51,-216.31"/>
</g>
<!-- Node26 -->
<g id="node26" class="node">
<title>Node26</title>
<g id="a_node26"><a xlink:href="d__bright__check_8cpp.html" target="_top" xlink:title=" ">
<polygon fill="white" stroke="#666666" points="777.5,-156.5 652.5,-156.5 652.5,-137.5 777.5,-137.5 777.5,-156.5"/>
<text text-anchor="middle" x="715" y="-144.5" font-family="Helvetica,sans-Serif" font-size="10.00">src/d/d_bright_check.cpp</text>
</a>
</g>
</g>
<!-- Node2&#45;&gt;Node26 -->
<g id="edge27" class="edge">
<title>Node2&#45;&gt;Node26</title>
<path fill="none" stroke="#63b8ff" d="M1542.83,-210.74C1394.15,-207.61 1063.27,-196.98 787,-162 776.89,-160.72 766.07,-158.87 755.97,-156.94"/>
<polygon fill="#63b8ff" stroke="#63b8ff" points="1542.49,-214.24 1552.56,-210.94 1542.63,-207.24 1542.49,-214.24"/>
</g>
<!-- Node27 -->
<g id="node27" class="node">
<title>Node27</title>
<g id="a_node27"><a xlink:href="d__name_8cpp.html" target="_top" xlink:title=" ">
<polygon fill="white" stroke="#666666" points="890,-156.5 796,-156.5 796,-137.5 890,-137.5 890,-156.5"/>
<text text-anchor="middle" x="843" y="-144.5" font-family="Helvetica,sans-Serif" font-size="10.00">src/d/d_name.cpp</text>
</a>
</g>
</g>
<!-- Node2&#45;&gt;Node27 -->
<g id="edge28" class="edge">
<title>Node2&#45;&gt;Node27</title>
<path fill="none" stroke="#63b8ff" d="M1543.1,-210.96C1409.81,-208.21 1131.9,-198.23 900,-162 891.95,-160.74 883.36,-158.9 875.36,-156.97"/>
<polygon fill="#63b8ff" stroke="#63b8ff" points="1542.8,-214.45 1552.87,-211.15 1542.94,-207.45 1542.8,-214.45"/>
</g>
<!-- Node28 -->
<g id="node28" class="node">
<title>Node28</title>
<g id="a_node28"><a xlink:href="d__file__sel__info_8cpp.html" target="_top" xlink:title=" ">
<polygon fill="white" stroke="#666666" points="1005.5,-162 908.5,-162 908.5,-132 1005.5,-132 1005.5,-162"/>
<text text-anchor="start" x="916.5" y="-150" font-family="Helvetica,sans-Serif" font-size="10.00">src/d/file/d_file_sel</text>
<text text-anchor="middle" x="957" y="-139" font-family="Helvetica,sans-Serif" font-size="10.00">_info.cpp</text>
</a>
</g>
</g>
<!-- Node2&#45;&gt;Node28 -->
<g id="edge29" class="edge">
<title>Node2&#45;&gt;Node28</title>
<path fill="none" stroke="#63b8ff" d="M1542.97,-209.39C1426.68,-204.67 1202.92,-192.23 1015,-162 1012.03,-161.52 1009,-160.97 1005.94,-160.38"/>
<polygon fill="#63b8ff" stroke="#63b8ff" points="1542.58,-212.88 1552.71,-209.78 1542.86,-205.88 1542.58,-212.88"/>
</g>
<!-- Node29 -->
<g id="node29" class="node">
<title>Node29</title>
<g id="a_node29"><a xlink:href="d__file__sel__warning_8cpp.html" target="_top" xlink:title=" ">
<polygon fill="white" stroke="#666666" points="1120.5,-162 1023.5,-162 1023.5,-132 1120.5,-132 1120.5,-162"/>
<text text-anchor="start" x="1031.5" y="-150" font-family="Helvetica,sans-Serif" font-size="10.00">src/d/file/d_file_sel</text>
<text text-anchor="middle" x="1072" y="-139" font-family="Helvetica,sans-Serif" font-size="10.00">_warning.cpp</text>
</a>
</g>
</g>
<!-- Node2&#45;&gt;Node29 -->
<g id="edge30" class="edge">
<title>Node2&#45;&gt;Node29</title>
<path fill="none" stroke="#63b8ff" d="M1543.13,-207.29C1445.59,-200.71 1274.7,-186.7 1130,-162 1127.04,-161.49 1124,-160.92 1120.95,-160.31"/>
<polygon fill="#63b8ff" stroke="#63b8ff" points="1542.64,-210.77 1552.85,-207.94 1543.11,-203.78 1542.64,-210.77"/>
</g>
<!-- Node30 -->
<g id="node30" class="node">
<title>Node30</title>
<g id="a_node30"><a xlink:href="d__file__select_8cpp.html" target="_top" xlink:title=" ">
<polygon fill="white" stroke="#666666" points="1267,-156.5 1139,-156.5 1139,-137.5 1267,-137.5 1267,-156.5"/>
<text text-anchor="middle" x="1203" y="-144.5" font-family="Helvetica,sans-Serif" font-size="10.00">src/d/file/d_file_select.cpp</text>
</a>
</g>
</g>
<!-- Node2&#45;&gt;Node30 -->
<g id="edge31" class="edge">
<title>Node2&#45;&gt;Node30</title>
<path fill="none" stroke="#63b8ff" d="M1542.75,-201.5C1472.73,-191.99 1367.9,-177.18 1277,-162 1267.84,-160.47 1258.07,-158.71 1248.74,-156.97"/>
<polygon fill="#63b8ff" stroke="#63b8ff" points="1542.23,-204.96 1552.61,-202.84 1543.17,-198.03 1542.23,-204.96"/>
</g>
<!-- Node31 -->
<g id="node31" class="node">
<title>Node31</title>
<g id="a_node31"><a xlink:href="d__menu__collect_8cpp.html" target="_top" xlink:title=" ">
<polygon fill="white" stroke="#666666" points="1440.5,-156.5 1285.5,-156.5 1285.5,-137.5 1440.5,-137.5 1440.5,-156.5"/>
<text text-anchor="middle" x="1363" y="-144.5" font-family="Helvetica,sans-Serif" font-size="10.00">src/d/menu/d_menu_collect.cpp</text>
</a>
</g>
</g>
<!-- Node2&#45;&gt;Node31 -->
<g id="edge32" class="edge">
<title>Node2&#45;&gt;Node31</title>
<path fill="none" stroke="#63b8ff" d="M1552.62,-194.86C1503.25,-182.66 1438.88,-166.75 1399.27,-156.96"/>
<polygon fill="#63b8ff" stroke="#63b8ff" points="1551.54,-198.19 1562.08,-197.19 1553.21,-191.4 1551.54,-198.19"/>
</g>
<!-- Node32 -->
<g id="node32" class="node">
<title>Node32</title>
<g id="a_node32"><a xlink:href="d__menu__fishing_8cpp.html" target="_top" xlink:title=" ">
<polygon fill="white" stroke="#666666" points="1613,-156.5 1459,-156.5 1459,-137.5 1613,-137.5 1613,-156.5"/>
<text text-anchor="middle" x="1536" y="-144.5" font-family="Helvetica,sans-Serif" font-size="10.00">src/d/menu/d_menu_fishing.cpp</text>
</a>
</g>
</g>
<!-- Node2&#45;&gt;Node32 -->
<g id="edge33" class="edge">
<title>Node2&#45;&gt;Node32</title>
<path fill="none" stroke="#63b8ff" d="M1593.69,-190.93C1578.13,-179.35 1559.66,-165.61 1547.88,-156.84"/>
<polygon fill="#63b8ff" stroke="#63b8ff" points="1591.59,-193.73 1601.7,-196.89 1595.77,-188.11 1591.59,-193.73"/>
</g>
<!-- Node33 -->
<g id="node33" class="node">
<title>Node33</title>
<g id="a_node33"><a xlink:href="d__menu__insect_8cpp.html" target="_top" xlink:title=" ">
<polygon fill="white" stroke="#666666" points="1783,-156.5 1631,-156.5 1631,-137.5 1783,-137.5 1783,-156.5"/>
<text text-anchor="middle" x="1707" y="-144.5" font-family="Helvetica,sans-Serif" font-size="10.00">src/d/menu/d_menu_insect.cpp</text>
</a>
</g>
</g>
<!-- Node2&#45;&gt;Node33 -->
<g id="edge34" class="edge">
<title>Node2&#45;&gt;Node33</title>
<path fill="none" stroke="#63b8ff" d="M1649.98,-190.93C1665.36,-179.35 1683.62,-165.61 1695.25,-156.84"/>
<polygon fill="#63b8ff" stroke="#63b8ff" points="1647.96,-188.07 1642.07,-196.89 1652.17,-193.67 1647.96,-188.07"/>
</g>
<!-- Node34 -->
<g id="node34" class="node">
<title>Node34</title>
<g id="a_node34"><a xlink:href="d__menu__letter_8cpp.html" target="_top" xlink:title=" ">
<polygon fill="white" stroke="#666666" points="1949,-156.5 1801,-156.5 1801,-137.5 1949,-137.5 1949,-156.5"/>
<text text-anchor="middle" x="1875" y="-144.5" font-family="Helvetica,sans-Serif" font-size="10.00">src/d/menu/d_menu_letter.cpp</text>
</a>
</g>
</g>
<!-- Node2&#45;&gt;Node34 -->
<g id="edge35" class="edge">
<title>Node2&#45;&gt;Node34</title>
<path fill="none" stroke="#63b8ff" d="M1690.07,-194.78C1738.27,-182.59 1800.96,-166.73 1839.57,-156.96"/>
<polygon fill="#63b8ff" stroke="#63b8ff" points="1689.4,-191.34 1680.56,-197.19 1691.11,-198.13 1689.4,-191.34"/>
</g>
<!-- Node35 -->
<g id="node35" class="node">
<title>Node35</title>
<g id="a_node35"><a xlink:href="d__menu__skill_8cpp.html" target="_top" xlink:title=" ">
<polygon fill="white" stroke="#666666" points="2110.5,-156.5 1967.5,-156.5 1967.5,-137.5 2110.5,-137.5 2110.5,-156.5"/>
<text text-anchor="middle" x="2039" y="-144.5" font-family="Helvetica,sans-Serif" font-size="10.00">src/d/menu/d_menu_skill.cpp</text>
</a>
</g>
</g>
<!-- Node2&#45;&gt;Node35 -->
<g id="edge37" class="edge">
<title>Node2&#45;&gt;Node35</title>
<path fill="none" stroke="#63b8ff" d="M1701.03,-200.77C1769.17,-190.96 1870.16,-176.12 1958,-162 1967.72,-160.44 1978.09,-158.7 1988.04,-156.99"/>
<polygon fill="#63b8ff" stroke="#63b8ff" points="1700.86,-197.26 1691.46,-202.15 1701.86,-204.19 1700.86,-197.26"/>
</g>
<!-- Node36 -->
<g id="node36" class="node">
<title>Node36</title>
<g id="a_node36"><a xlink:href="d__meter2__info_8cpp.html" target="_top" xlink:title=" ">
<polygon fill="white" stroke="#666666" points="2239,-162 2129,-162 2129,-132 2239,-132 2239,-162"/>
<text text-anchor="start" x="2137" y="-150" font-family="Helvetica,sans-Serif" font-size="10.00">src/d/meter/d_meter2</text>
<text text-anchor="middle" x="2184" y="-139" font-family="Helvetica,sans-Serif" font-size="10.00">_info.cpp</text>
</a>
</g>
</g>
<!-- Node2&#45;&gt;Node36 -->
<g id="edge38" class="edge">
<title>Node2&#45;&gt;Node36</title>
<path fill="none" stroke="#63b8ff" d="M1701.33,-206.87C1799.91,-199.84 1973.07,-185.37 2120,-162 2122.81,-161.55 2125.68,-161.06 2128.57,-160.53"/>
<polygon fill="#63b8ff" stroke="#63b8ff" points="1701.22,-203.37 1691.49,-207.56 1701.71,-210.35 1701.22,-203.37"/>
</g>
<!-- Node37 -->
<g id="node37" class="node">
<title>Node37</title>
<g id="a_node37"><a xlink:href="d__msg__string_8cpp.html" target="_top" xlink:title=" ">
<polygon fill="white" stroke="#666666" points="2397,-156.5 2257,-156.5 2257,-137.5 2397,-137.5 2397,-156.5"/>
<text text-anchor="middle" x="2327" y="-144.5" font-family="Helvetica,sans-Serif" font-size="10.00">src/d/msg/d_msg_string.cpp</text>
</a>
</g>
</g>
<!-- Node2&#45;&gt;Node37 -->
<g id="edge39" class="edge">
<title>Node2&#45;&gt;Node37</title>
<path fill="none" stroke="#63b8ff" d="M1701,-208.12C1819.98,-201.73 2052.1,-187.12 2248,-162 2258.64,-160.64 2270.02,-158.83 2280.75,-156.96"/>
<polygon fill="#63b8ff" stroke="#63b8ff" points="1701.15,-204.61 1691.35,-208.63 1701.53,-211.6 1701.15,-204.61"/>
</g>
<!-- Node38 -->
<g id="node38" class="node">
<title>Node38</title>
<g id="a_node38"><a xlink:href="d__pane__class_8cpp.html" target="_top" xlink:title=" ">
<polygon fill="white" stroke="#666666" points="2902.5,-156.5 2759.5,-156.5 2759.5,-137.5 2902.5,-137.5 2902.5,-156.5"/>
<text text-anchor="middle" x="2831" y="-144.5" font-family="Helvetica,sans-Serif" font-size="10.00">src/d/pane/d_pane_class.cpp</text>
</a>
</g>
</g>
<!-- Node2&#45;&gt;Node38 -->
<g id="edge40" class="edge">
<title>Node2&#45;&gt;Node38</title>
<path fill="none" stroke="#63b8ff" d="M1701.49,-212C1886.26,-211.22 2358.85,-204.82 2751,-162 2762.35,-160.76 2774.53,-158.9 2785.88,-156.94"/>
<polygon fill="#63b8ff" stroke="#63b8ff" points="1701.5,-208.5 1691.51,-212.03 1701.52,-215.5 1701.5,-208.5"/>
</g>
<!-- Node4 -->
<g id="node4" class="node">
<title>Node4</title>
<g id="a_node4"><a xlink:href="J2DPrint_8cpp.html" target="_top" xlink:title=" ">
<polygon fill="white" stroke="#666666" points="2479.5,-96 2360.5,-96 2360.5,-66 2479.5,-66 2479.5,-96"/>
<text text-anchor="start" x="2368.5" y="-84" font-family="Helvetica,sans-Serif" font-size="10.00">libs/JSystem/J2DGraph</text>
<text text-anchor="middle" x="2420" y="-73" font-family="Helvetica,sans-Serif" font-size="10.00">/J2DPrint.cpp</text>
</a>
</g>
</g>
<!-- Node3&#45;&gt;Node4 -->
<g id="edge3" class="edge">
<title>Node3&#45;&gt;Node4</title>
<path fill="none" stroke="#63b8ff" d="M2488.87,-125.64C2473.81,-116.09 2456.22,-104.95 2442.59,-96.31"/>
<polygon fill="#63b8ff" stroke="#63b8ff" points="2486.73,-128.43 2497.06,-130.83 2490.48,-122.52 2486.73,-128.43"/>
</g>
<!-- Node3&#45;&gt;Node5 -->
<g id="edge4" class="edge">
<title>Node3&#45;&gt;Node5</title>
<path fill="none" stroke="#63b8ff" d="M2456.45,-128.64C2418.86,-118.53 2372.04,-105.94 2336.51,-96.39"/>
<polygon fill="#63b8ff" stroke="#63b8ff" points="2455.26,-131.95 2465.83,-131.16 2457.08,-125.19 2455.26,-131.95"/>
</g>
<!-- Node6 -->
<g id="node6" class="node">
<title>Node6</title>
<g id="a_node6"><a xlink:href="J2DTextBoxEx_8cpp.html" target="_top" xlink:title=" ">
<polygon fill="white" stroke="#666666" points="2777.5,-96 2658.5,-96 2658.5,-66 2777.5,-66 2777.5,-96"/>
<text text-anchor="start" x="2666.5" y="-84" font-family="Helvetica,sans-Serif" font-size="10.00">libs/JSystem/J2DGraph</text>
<text text-anchor="middle" x="2718" y="-73" font-family="Helvetica,sans-Serif" font-size="10.00">/J2DTextBoxEx.cpp</text>
</a>
</g>
</g>
<!-- Node3&#45;&gt;Node6 -->
<g id="edge5" class="edge">
<title>Node3&#45;&gt;Node6</title>
<path fill="none" stroke="#63b8ff" d="M2575.79,-128.2C2606.63,-118.18 2644.64,-105.83 2673.6,-96.43"/>
<polygon fill="#63b8ff" stroke="#63b8ff" points="2575.08,-124.75 2566.65,-131.17 2577.24,-131.41 2575.08,-124.75"/>
</g>
<!-- Node7 -->
<g id="node7" class="node">
<title>Node7</title>
<g id="a_node7"><a xlink:href="m__Do__graphic_8cpp.html" target="_top" xlink:title=" ">
<polygon fill="white" stroke="#666666" points="2640,-90.5 2498,-90.5 2498,-71.5 2640,-71.5 2640,-90.5"/>
<text text-anchor="middle" x="2569" y="-78.5" font-family="Helvetica,sans-Serif" font-size="10.00">src/m_Do/m_Do_graphic.cpp</text>
</a>
</g>
</g>
<!-- Node3&#45;&gt;Node7 -->
<g id="edge6" class="edge">
<title>Node3&#45;&gt;Node7</title>
<path fill="none" stroke="#63b8ff" d="M2538.54,-122.61C2546.83,-111.56 2556.23,-99.03 2562.37,-90.84"/>
<polygon fill="#63b8ff" stroke="#63b8ff" points="2535.76,-120.49 2532.56,-130.59 2541.36,-124.69 2535.76,-120.49"/>
</g>
<!-- Node8&#45;&gt;Node6 -->
<g id="edge9" class="edge">
<title>Node8&#45;&gt;Node6</title>
<path fill="none" stroke="#63b8ff" d="M2690.23,-122.39C2696.28,-113.59 2702.97,-103.86 2708.26,-96.16"/>
<polygon fill="#63b8ff" stroke="#63b8ff" points="2687.4,-120.33 2684.62,-130.55 2693.17,-124.29 2687.4,-120.33"/>
</g>
<!-- Node9 -->
<g id="node9" class="node">
<title>Node9</title>
<g id="a_node9"><a xlink:href="J2DScreen_8cpp.html" target="_top" xlink:title=" ">
<polygon fill="white" stroke="#666666" points="2959.5,-96 2840.5,-96 2840.5,-66 2959.5,-66 2959.5,-96"/>
<text text-anchor="start" x="2848.5" y="-84" font-family="Helvetica,sans-Serif" font-size="10.00">libs/JSystem/J2DGraph</text>
<text text-anchor="middle" x="2900" y="-73" font-family="Helvetica,sans-Serif" font-size="10.00">/J2DScreen.cpp</text>
</a>
</g>
</g>
<!-- Node8&#45;&gt;Node9 -->
<g id="edge8" class="edge">
<title>Node8&#45;&gt;Node9</title>
<path fill="none" stroke="#63b8ff" d="M2735.76,-128.51C2771.37,-118.43 2815.6,-105.9 2849.18,-96.39"/>
<polygon fill="#63b8ff" stroke="#63b8ff" points="2735.12,-125.05 2726.46,-131.14 2737.03,-131.79 2735.12,-125.05"/>
</g>
<!-- Node11 -->
<g id="node11" class="node">
<title>Node11</title>
<g id="a_node11"><a xlink:href="d__menu__calibration_8cpp.html" target="_top" xlink:title=" ">
<polygon fill="white" stroke="#666666" points="170,-90.5 0,-90.5 0,-71.5 170,-71.5 170,-90.5"/>
<text text-anchor="middle" x="85" y="-78.5" font-family="Helvetica,sans-Serif" font-size="10.00">src/d/menu/d_menu_calibration.cpp</text>
</a>
</g>
</g>
<!-- Node10&#45;&gt;Node11 -->
<g id="edge11" class="edge">
<title>Node10&#45;&gt;Node11</title>
<path fill="none" stroke="#63b8ff" d="M213.24,-127.85C179.54,-115.8 136.76,-100.51 110.13,-90.99"/>
<polygon fill="#63b8ff" stroke="#63b8ff" points="211.81,-131.06 222.4,-131.13 214.17,-124.47 211.81,-131.06"/>
</g>
<!-- Node10&#45;&gt;Node12 -->
<g id="edge12" class="edge">
<title>Node10&#45;&gt;Node12</title>
<path fill="none" stroke="#63b8ff" d="M264,-120.59C264,-110.06 264,-98.53 264,-90.84"/>
<polygon fill="#63b8ff" stroke="#63b8ff" points="260.5,-120.28 264,-130.28 267.5,-120.28 260.5,-120.28"/>
</g>
<!-- Node14 -->
<g id="node14" class="node">
<title>Node14</title>
<g id="a_node14"><a xlink:href="d__msg__scrn__boss_8h.html" target="_top" xlink:title=" ">
<polygon fill="white" stroke="#666666" points="816.5,-96 717.5,-96 717.5,-66 816.5,-66 816.5,-96"/>
<text text-anchor="start" x="725.5" y="-84" font-family="Helvetica,sans-Serif" font-size="10.00">include/msg/scrn/d</text>
<text text-anchor="middle" x="767" y="-73" font-family="Helvetica,sans-Serif" font-size="10.00">_msg_scrn_boss.h</text>
</a>
</g>
</g>
<!-- Node13&#45;&gt;Node14 -->
<g id="edge14" class="edge">
<title>Node13&#45;&gt;Node14</title>
<path fill="none" stroke="#63b8ff" d="M636.37,-127.94C664.72,-117.97 699.46,-105.75 725.98,-96.43"/>
<polygon fill="#63b8ff" stroke="#63b8ff" points="635.54,-124.52 627.27,-131.14 637.87,-131.12 635.54,-124.52"/>
</g>
<!-- Node16 -->
<g id="node16" class="node">
<title>Node16</title>
<g id="a_node16"><a xlink:href="d__msg__scrn__explain_8h.html" target="_top" xlink:title=" ">
<polygon fill="white" stroke="#666666" points="941.5,-96 834.5,-96 834.5,-66 941.5,-66 941.5,-96"/>
<text text-anchor="start" x="842.5" y="-84" font-family="Helvetica,sans-Serif" font-size="10.00">include/msg/scrn/d</text>
<text text-anchor="middle" x="888" y="-73" font-family="Helvetica,sans-Serif" font-size="10.00">_msg_scrn_explain.h</text>
</a>
</g>
</g>
<!-- Node13&#45;&gt;Node16 -->
<g id="edge16" class="edge">
<title>Node13&#45;&gt;Node16</title>
<path fill="none" stroke="#63b8ff" d="M646.06,-131.61C726.47,-114.33 748.8,-112.35 826,-96 828.7,-95.43 831.46,-94.84 834.25,-94.23"/>
<polygon fill="#63b8ff" stroke="#63b8ff" points="645.38,-128.17 636.34,-133.71 646.86,-135.01 645.38,-128.17"/>
</g>
<!-- Node19 -->
<g id="node19" class="node">
<title>Node19</title>
<g id="a_node19"><a xlink:href="d__msg__scrn__place_8h.html" target="_top" xlink:title=" ">
<polygon fill="white" stroke="#666666" points="1110.5,-96 1009.5,-96 1009.5,-66 1110.5,-66 1110.5,-96"/>
<text text-anchor="start" x="1017.5" y="-84" font-family="Helvetica,sans-Serif" font-size="10.00">include/msg/scrn/d</text>
<text text-anchor="middle" x="1060" y="-73" font-family="Helvetica,sans-Serif" font-size="10.00">_msg_scrn_place.h</text>
</a>
</g>
</g>
<!-- Node13&#45;&gt;Node19 -->
<g id="edge19" class="edge">
<title>Node13&#45;&gt;Node19</title>
<path fill="none" stroke="#63b8ff" d="M646.01,-131.78C781.22,-108.33 818.24,-112.31 951,-96 970.03,-93.66 990.92,-91 1009.27,-88.63"/>
<polygon fill="#63b8ff" stroke="#63b8ff" points="645.54,-128.31 636.3,-133.49 646.75,-135.21 645.54,-128.31"/>
</g>
<!-- Node21 -->
<g id="node21" class="node">
<title>Node21</title>
<g id="a_node21"><a xlink:href="d__msg__scrn__staff_8h.html" target="_top" xlink:title=" ">
<polygon fill="white" stroke="#666666" points="457.5,-96 358.5,-96 358.5,-66 457.5,-66 457.5,-96"/>
<text text-anchor="start" x="366.5" y="-84" font-family="Helvetica,sans-Serif" font-size="10.00">include/msg/scrn/d</text>
<text text-anchor="middle" x="408" y="-73" font-family="Helvetica,sans-Serif" font-size="10.00">_msg_scrn_staff.h</text>
</a>
</g>
</g>
<!-- Node13&#45;&gt;Node21 -->
<g id="edge21" class="edge">
<title>Node13&#45;&gt;Node21</title>
<path fill="none" stroke="#63b8ff" d="M534.68,-127.8C507.17,-117.86 473.58,-105.71 447.9,-96.43"/>
<polygon fill="#63b8ff" stroke="#63b8ff" points="533.26,-131.01 543.85,-131.12 535.64,-124.43 533.26,-131.01"/>
</g>
<!-- Node23 -->
<g id="node23" class="node">
<title>Node23</title>
<g id="a_node23"><a xlink:href="d__msg__scrn__tree_8h.html" target="_top" xlink:title=" ">
<polygon fill="white" stroke="#666666" points="574.5,-96 475.5,-96 475.5,-66 574.5,-66 574.5,-96"/>
<text text-anchor="start" x="483.5" y="-84" font-family="Helvetica,sans-Serif" font-size="10.00">include/msg/scrn/d</text>
<text text-anchor="middle" x="525" y="-73" font-family="Helvetica,sans-Serif" font-size="10.00">_msg_scrn_tree.h</text>
</a>
</g>
</g>
<!-- Node13&#45;&gt;Node23 -->
<g id="edge23" class="edge">
<title>Node13&#45;&gt;Node23</title>
<path fill="none" stroke="#63b8ff" d="M563.93,-123.53C555.4,-114.43 545.81,-104.19 538.28,-96.16"/>
<polygon fill="#63b8ff" stroke="#63b8ff" points="561.26,-125.79 570.65,-130.69 566.36,-121 561.26,-125.79"/>
</g>
<!-- Node25 -->
<g id="node25" class="node">
<title>Node25</title>
<g id="a_node25"><a xlink:href="d__msg__scrn__base_8cpp.html" target="_top" xlink:title=" ">
<polygon fill="white" stroke="#666666" points="699,-96 593,-96 593,-66 699,-66 699,-96"/>
<text text-anchor="start" x="601" y="-84" font-family="Helvetica,sans-Serif" font-size="10.00">src/msg/scrn/d_msg</text>
<text text-anchor="middle" x="646" y="-73" font-family="Helvetica,sans-Serif" font-size="10.00">_scrn_base.cpp</text>
</a>
</g>
</g>
<!-- Node13&#45;&gt;Node25 -->
<g id="edge25" class="edge">
<title>Node13&#45;&gt;Node25</title>
<path fill="none" stroke="#63b8ff" d="M606.42,-123.53C615.09,-114.43 624.85,-104.19 632.5,-96.16"/>
<polygon fill="#63b8ff" stroke="#63b8ff" points="603.95,-121.05 599.58,-130.7 609.02,-125.88 603.95,-121.05"/>
</g>
<!-- Node15 -->
<g id="node15" class="node">
<title>Node15</title>
<g id="a_node15"><a xlink:href="d__msg__scrn__boss_8cpp.html" target="_top" xlink:title=" ">
<polygon fill="white" stroke="#666666" points="749,-30 643,-30 643,0 749,0 749,-30"/>
<text text-anchor="start" x="651" y="-18" font-family="Helvetica,sans-Serif" font-size="10.00">src/msg/scrn/d_msg</text>
<text text-anchor="middle" x="696" y="-7" font-family="Helvetica,sans-Serif" font-size="10.00">_scrn_boss.cpp</text>
</a>
</g>
</g>
<!-- Node14&#45;&gt;Node15 -->
<g id="edge15" class="edge">
<title>Node14&#45;&gt;Node15</title>
<path fill="none" stroke="#63b8ff" d="M742.69,-58.09C732.44,-48.85 720.81,-38.36 711.71,-30.16"/>
<polygon fill="#63b8ff" stroke="#63b8ff" points="740.35,-60.69 750.12,-64.78 745.03,-55.49 740.35,-60.69"/>
</g>
<!-- Node17 -->
<g id="node17" class="node">
<title>Node17</title>
<g id="a_node17"><a xlink:href="d__menu__save_8cpp.html" target="_top" xlink:title=" ">
<polygon fill="white" stroke="#666666" points="914.5,-24.5 767.5,-24.5 767.5,-5.5 914.5,-5.5 914.5,-24.5"/>
<text text-anchor="middle" x="841" y="-12.5" font-family="Helvetica,sans-Serif" font-size="10.00">src/d/menu/d_menu_save.cpp</text>
</a>
</g>
</g>
<!-- Node16&#45;&gt;Node17 -->
<g id="edge17" class="edge">
<title>Node16&#45;&gt;Node17</title>
<path fill="none" stroke="#63b8ff" d="M870.82,-56.61C862.71,-45.56 853.5,-33.03 847.5,-24.84"/>
<polygon fill="#63b8ff" stroke="#63b8ff" points="867.93,-58.59 876.67,-64.58 873.58,-54.44 867.93,-58.59"/>
</g>
<!-- Node18 -->
<g id="node18" class="node">
<title>Node18</title>
<g id="a_node18"><a xlink:href="d__msg__scrn__explain_8cpp.html" target="_top" xlink:title=" ">
<polygon fill="white" stroke="#666666" points="1039,-30 933,-30 933,0 1039,0 1039,-30"/>
<text text-anchor="start" x="941" y="-18" font-family="Helvetica,sans-Serif" font-size="10.00">src/msg/scrn/d_msg</text>
<text text-anchor="middle" x="986" y="-7" font-family="Helvetica,sans-Serif" font-size="10.00">_scrn_explain.cpp</text>
</a>
</g>
</g>
<!-- Node16&#45;&gt;Node18 -->
<g id="edge18" class="edge">
<title>Node16&#45;&gt;Node18</title>
<path fill="none" stroke="#63b8ff" d="M919.35,-59.52C933.89,-50.03 950.82,-38.98 963.97,-30.39"/>
<polygon fill="#63b8ff" stroke="#63b8ff" points="917.48,-56.57 911.02,-64.97 921.3,-62.43 917.48,-56.57"/>
</g>
<!-- Node20 -->
<g id="node20" class="node">
<title>Node20</title>
<g id="a_node20"><a xlink:href="d__msg__scrn__place_8cpp.html" target="_top" xlink:title=" ">
<polygon fill="white" stroke="#666666" points="1163,-30 1057,-30 1057,0 1163,0 1163,-30"/>
<text text-anchor="start" x="1065" y="-18" font-family="Helvetica,sans-Serif" font-size="10.00">src/msg/scrn/d_msg</text>
<text text-anchor="middle" x="1110" y="-7" font-family="Helvetica,sans-Serif" font-size="10.00">_scrn_place.cpp</text>
</a>
</g>
</g>
<!-- Node19&#45;&gt;Node20 -->
<g id="edge20" class="edge">
<title>Node19&#45;&gt;Node20</title>
<path fill="none" stroke="#63b8ff" d="M1078,-56.96C1085,-48 1092.79,-38.03 1098.93,-30.16"/>
<polygon fill="#63b8ff" stroke="#63b8ff" points="1075.43,-54.57 1072.03,-64.6 1080.94,-58.88 1075.43,-54.57"/>
</g>
<!-- Node22 -->
<g id="node22" class="node">
<title>Node22</title>
<g id="a_node22"><a xlink:href="d__msg__scrn__staff_8cpp.html" target="_top" xlink:title=" ">
<polygon fill="white" stroke="#666666" points="457,-30 351,-30 351,0 457,0 457,-30"/>
<text text-anchor="start" x="359" y="-18" font-family="Helvetica,sans-Serif" font-size="10.00">src/msg/scrn/d_msg</text>
<text text-anchor="middle" x="404" y="-7" font-family="Helvetica,sans-Serif" font-size="10.00">_scrn_staff.cpp</text>
</a>
</g>
</g>
<!-- Node21&#45;&gt;Node22 -->
<g id="edge22" class="edge">
<title>Node21&#45;&gt;Node22</title>
<path fill="none" stroke="#63b8ff" d="M406.4,-54.39C405.88,-46.13 405.33,-37.28 404.89,-30.16"/>
<polygon fill="#63b8ff" stroke="#63b8ff" points="402.9,-54.52 407.02,-64.29 409.89,-54.09 402.9,-54.52"/>
</g>
<!-- Node24 -->
<g id="node24" class="node">
<title>Node24</title>
<g id="a_node24"><a xlink:href="d__msg__scrn__tree_8cpp.html" target="_top" xlink:title=" ">
<polygon fill="white" stroke="#666666" points="581,-30 475,-30 475,0 581,0 581,-30"/>
<text text-anchor="start" x="483" y="-18" font-family="Helvetica,sans-Serif" font-size="10.00">src/msg/scrn/d_msg</text>
<text text-anchor="middle" x="528" y="-7" font-family="Helvetica,sans-Serif" font-size="10.00">_scrn_tree.cpp</text>
</a>
</g>
</g>
<!-- Node23&#45;&gt;Node24 -->
<g id="edge24" class="edge">
<title>Node23&#45;&gt;Node24</title>
<path fill="none" stroke="#63b8ff" d="M526.2,-54.39C526.59,-46.13 527,-37.28 527.34,-30.16"/>
<polygon fill="#63b8ff" stroke="#63b8ff" points="522.71,-54.13 525.74,-64.28 529.7,-54.46 522.71,-54.13"/>
</g>
<!-- Node39&#45;&gt;Node38 -->
<g id="edge46" class="edge">
<title>Node39&#45;&gt;Node38</title>
<path fill="none" stroke="#63b8ff" d="M2879.88,-190.27C2866.66,-178.84 2851.17,-165.44 2841.23,-156.84"/>
<polygon fill="#63b8ff" stroke="#63b8ff" points="2877.58,-192.91 2887.43,-196.81 2882.16,-187.62 2877.58,-192.91"/>
</g>
<!-- Node40 -->
<g id="node40" class="node">
<title>Node40</title>
<g id="a_node40"><a xlink:href="J2DWindowEx_8h.html" target="_top" xlink:title=" ">
<polygon fill="white" stroke="#666666" points="3192.5,-162 3057.5,-162 3057.5,-132 3192.5,-132 3192.5,-162"/>
<text text-anchor="start" x="3065.5" y="-150" font-family="Helvetica,sans-Serif" font-size="10.00">include/JSystem/J2DGraph</text>
<text text-anchor="middle" x="3125" y="-139" font-family="Helvetica,sans-Serif" font-size="10.00">/J2DWindowEx.h</text>
</a>
</g>
</g>
<!-- Node39&#45;&gt;Node40 -->
<g id="edge42" class="edge">
<title>Node39&#45;&gt;Node40</title>
<path fill="none" stroke="#63b8ff" d="M2965.56,-194.38C3000.16,-184.32 3042.98,-171.86 3075.53,-162.39"/>
<polygon fill="#63b8ff" stroke="#63b8ff" points="2964.72,-190.98 2956.1,-197.13 2966.68,-197.7 2964.72,-190.98"/>
</g>
<!-- Node42 -->
<g id="node42" class="node">
<title>Node42</title>
<g id="a_node42"><a xlink:href="J2DWindow_8cpp.html" target="_top" xlink:title=" ">
<polygon fill="white" stroke="#666666" points="3039.5,-162 2920.5,-162 2920.5,-132 3039.5,-132 3039.5,-162"/>
<text text-anchor="start" x="2928.5" y="-150" font-family="Helvetica,sans-Serif" font-size="10.00">libs/JSystem/J2DGraph</text>
<text text-anchor="middle" x="2980" y="-139" font-family="Helvetica,sans-Serif" font-size="10.00">/J2DWindow.cpp</text>
</a>
</g>
</g>
<!-- Node39&#45;&gt;Node42 -->
<g id="edge45" class="edge">
<title>Node39&#45;&gt;Node42</title>
<path fill="none" stroke="#63b8ff" d="M2930.29,-190.42C2941.11,-181.18 2953.46,-170.65 2963.14,-162.39"/>
<polygon fill="#63b8ff" stroke="#63b8ff" points="2928.13,-187.66 2922.8,-196.81 2932.68,-192.99 2928.13,-187.66"/>
</g>
<!-- Node40&#45;&gt;Node9 -->
<g id="edge43" class="edge">
<title>Node40&#45;&gt;Node9</title>
<path fill="none" stroke="#63b8ff" d="M3063.52,-128.51C3028.06,-118.43 2984.03,-105.9 2950.59,-96.39"/>
<polygon fill="#63b8ff" stroke="#63b8ff" points="3062.19,-131.77 3072.77,-131.14 3064.11,-125.04 3062.19,-131.77"/>
</g>
<!-- Node41 -->
<g id="node41" class="node">
<title>Node41</title>
<g id="a_node41"><a xlink:href="J2DWindowEx_8cpp.html" target="_top" xlink:title=" ">
<polygon fill="white" stroke="#666666" points="3184.5,-96 3065.5,-96 3065.5,-66 3184.5,-66 3184.5,-96"/>
<text text-anchor="start" x="3073.5" y="-84" font-family="Helvetica,sans-Serif" font-size="10.00">libs/JSystem/J2DGraph</text>
<text text-anchor="middle" x="3125" y="-73" font-family="Helvetica,sans-Serif" font-size="10.00">/J2DWindowEx.cpp</text>
</a>
</g>
</g>
<!-- Node40&#45;&gt;Node41 -->
<g id="edge44" class="edge">
<title>Node40&#45;&gt;Node41</title>
<path fill="none" stroke="#63b8ff" d="M3125,-120.39C3125,-112.13 3125,-103.28 3125,-96.16"/>
<polygon fill="#63b8ff" stroke="#63b8ff" points="3121.5,-120.28 3125,-130.28 3128.5,-120.28 3121.5,-120.28"/>
</g>
</g>
</svg>
        <g id="navigator" transform="translate(0 0)" fill="#404254">
                <rect fill="#f2f5e9" fill-opacity="0.5" stroke="#606060" stroke-width=".5" x="0" y="0" width="60" height="60"/>
                <use id="zoomplus" xlink:href="#zoomPlus" x="17" y="9" onmousedown="handleZoom(evt,'in')"/>
                <use id="zoomminus" xlink:href="#zoomMin" x="42" y="9" onmousedown="handleZoom(evt,'out')"/>
                <use id="reset" xlink:href="#resetDef" x="30" y="36" onmousedown="handleReset()"/>
                <g id="arrowUp" xlink:href="#dirArrow" transform="translate(30 24)" onmousedown="handlePan(0,-1)">
                  <use xlink:href="#rim" fill="#404040">
                        <set attributeName="fill" to="#808080" begin="arrowUp.mouseover" end="arrowUp.mouseout"/>
                  </use>
                  <path fill="none" stroke="white" stroke-width="1.5" d="M0,-3.0v7 M-2.5,-0.5L0,-3.0L2.5,-0.5"/>
                </g>
                <g id="arrowRight" xlink:href="#dirArrow" transform="rotate(90) translate(36 -43)" onmousedown="handlePan(1,0)">
                  <use xlink:href="#rim" fill="#404040">
                        <set attributeName="fill" to="#808080" begin="arrowRight.mouseover" end="arrowRight.mouseout"/>
                  </use>
                  <path fill="none" stroke="white" stroke-width="1.5" d="M0,-3.0v7 M-2.5,-0.5L0,-3.0L2.5,-0.5"/>
                </g>
                <g id="arrowDown" xlink:href="#dirArrow" transform="rotate(180) translate(-30 -48)" onmousedown="handlePan(0,1)">
                  <use xlink:href="#rim" fill="#404040">
                        <set attributeName="fill" to="#808080" begin="arrowDown.mouseover" end="arrowDown.mouseout"/>
                  </use>
                  <path fill="none" stroke="white" stroke-width="1.5" d="M0,-3.0v7 M-2.5,-0.5L0,-3.0L2.5,-0.5"/>
                </g>
                <g id="arrowLeft" xlink:href="#dirArrow" transform="rotate(270) translate(-36 17)" onmousedown="handlePan(-1,0)">
                  <use xlink:href="#rim" fill="#404040">
                        <set attributeName="fill" to="#808080" begin="arrowLeft.mouseover" end="arrowLeft.mouseout"/>
                  </use>
                  <path fill="none" stroke="white" stroke-width="1.5" d="M0,-3.0v7 M-2.5,-0.5L0,-3.0L2.5,-0.5"/>
                </g>
        </g>
        <svg viewBox="0 0 15 15" width="100%" height="30px" preserveAspectRatio="xMaxYMin meet">
         <g id="arrow_out" transform="scale(0.3 0.3)">
          <a xlink:href="J2DMaterial_8h__dep__incl_org.svg" target="_base">
           <rect id="button" ry="5" rx="5" y="6" x="6" height="38" width="38"
                fill="#f2f5e9" fill-opacity="0.5" stroke="#606060" stroke-width="1.0"/>
           <path id="arrow"
             d="M 11.500037,31.436501 C 11.940474,20.09759 22.043105,11.32322 32.158766,21.979434 L 37.068811,17.246167 C 37.068811,17.246167 37.088388,32 37.088388,32 L 22.160133,31.978069 C 22.160133,31.978069 26.997745,27.140456 26.997745,27.140456 C 18.528582,18.264221 13.291696,25.230495 11.500037,31.436501 z"
             style="fill:#404040;"/>
          </a>
         </g>
        </svg>
</svg>
