<?xml version="1.0" encoding="UTF-8" standalone="no"?>
<!DOCTYPE svg PUBLIC "-//W3C//DTD SVG 1.1//EN"
 "http://www.w3.org/Graphics/SVG/1.1/DTD/svg11.dtd">
<!-- Generated by graphviz version 7.0.5 (20221223.1930)
 -->
<!-- Title: include/JSystem/J2DGraph/J2DPicture.h Pages: 1 -->
<svg width="4127pt" height="302pt"
 viewBox="0.00 0.00 4126.50 302.00" xmlns="http://www.w3.org/2000/svg" xmlns:xlink="http://www.w3.org/1999/xlink">
<g id="graph0" class="graph" transform="scale(1 1) rotate(0) translate(4 298)">
<title>include/JSystem/J2DGraph/J2DPicture.h</title>
<!-- Node1 -->
<g id="node1" class="node">
<title>Node1</title>
<g id="a_node1"><a xlink:title=" ">
<polygon fill="#999999" stroke="#666666" points="1583,-294 1448,-294 1448,-264 1583,-264 1583,-294"/>
<text text-anchor="start" x="1456" y="-282" font-family="Helvetica,sans-Serif" font-size="10.00">include/JSystem/J2DGraph</text>
<text text-anchor="middle" x="1515.5" y="-271" font-family="Helvetica,sans-Serif" font-size="10.00">/J2DPicture.h</text>
</a>
</g>
</g>
<!-- Node2 -->
<g id="node2" class="node">
<title>Node2</title>
<g id="a_node2"><a xlink:href="J2DPictureEx_8h.html" target="_top" xlink:title=" ">
<polygon fill="white" stroke="#666666" points="264,-228 129,-228 129,-198 264,-198 264,-228"/>
<text text-anchor="start" x="137" y="-216" font-family="Helvetica,sans-Serif" font-size="10.00">include/JSystem/J2DGraph</text>
<text text-anchor="middle" x="196.5" y="-205" font-family="Helvetica,sans-Serif" font-size="10.00">/J2DPictureEx.h</text>
</a>
</g>
</g>
<!-- Node1&#45;&gt;Node2 -->
<g id="edge1" class="edge">
<title>Node1&#45;&gt;Node2</title>
<path fill="none" stroke="#63b8ff" d="M1436.48,-274.17C1197.87,-262.59 487.39,-228.11 264.3,-217.29"/>
<polygon fill="#63b8ff" stroke="#63b8ff" points="1436.15,-277.65 1446.31,-274.64 1436.49,-270.66 1436.15,-277.65"/>
</g>
<!-- Node5 -->
<g id="node5" class="node">
<title>Node5</title>
<g id="a_node5"><a xlink:href="d__drawlist_8h.html" target="_top" xlink:title=" ">
<polygon fill="white" stroke="#666666" points="1504.5,-222.5 1394.5,-222.5 1394.5,-203.5 1504.5,-203.5 1504.5,-222.5"/>
<text text-anchor="middle" x="1449.5" y="-210.5" font-family="Helvetica,sans-Serif" font-size="10.00">include/d/d_drawlist.h</text>
</a>
</g>
</g>
<!-- Node1&#45;&gt;Node5 -->
<g id="edge4" class="edge">
<title>Node1&#45;&gt;Node5</title>
<path fill="none" stroke="#63b8ff" d="M1492.75,-255.94C1481.04,-244.58 1467.4,-231.36 1458.62,-222.84"/>
<polygon fill="#63b8ff" stroke="#63b8ff" points="1490.15,-258.29 1499.77,-262.74 1495.02,-253.27 1490.15,-258.29"/>
</g>
<!-- Node237 -->
<g id="node49" class="node">
<title>Node237</title>
<g id="a_node49"><a xlink:href="J2DPicture_8cpp.html" target="_top" xlink:title=" ">
<polygon fill="white" stroke="#666666" points="1642,-228 1523,-228 1523,-198 1642,-198 1642,-228"/>
<text text-anchor="start" x="1531" y="-216" font-family="Helvetica,sans-Serif" font-size="10.00">libs/JSystem/J2DGraph</text>
<text text-anchor="middle" x="1582.5" y="-205" font-family="Helvetica,sans-Serif" font-size="10.00">/J2DPicture.cpp</text>
</a>
</g>
</g>
<!-- Node1&#45;&gt;Node237 -->
<g id="edge60" class="edge">
<title>Node1&#45;&gt;Node237</title>
<path fill="none" stroke="#63b8ff" d="M1538.44,-256.09C1548.11,-246.85 1559.09,-236.36 1567.67,-228.16"/>
<polygon fill="#63b8ff" stroke="#63b8ff" points="1536.28,-253.31 1531.46,-262.75 1541.11,-258.37 1536.28,-253.31"/>
</g>
<!-- Node238 -->
<g id="node50" class="node">
<title>Node238</title>
<g id="a_node50"><a xlink:href="d__pane__class_8cpp.html" target="_top" xlink:title=" ">
<polygon fill="white" stroke="#666666" points="1803,-222.5 1660,-222.5 1660,-203.5 1803,-203.5 1803,-222.5"/>
<text text-anchor="middle" x="1731.5" y="-210.5" font-family="Helvetica,sans-Serif" font-size="10.00">src/d/pane/d_pane_class.cpp</text>
</a>
</g>
</g>
<!-- Node1&#45;&gt;Node238 -->
<g id="edge61" class="edge">
<title>Node1&#45;&gt;Node238</title>
<path fill="none" stroke="#63b8ff" d="M1575.18,-260.32C1616.11,-248.19 1668.7,-232.61 1701.25,-222.96"/>
<polygon fill="#63b8ff" stroke="#63b8ff" points="1574.29,-256.93 1565.7,-263.13 1576.28,-263.64 1574.29,-256.93"/>
</g>
<!-- Node3 -->
<g id="node3" class="node">
<title>Node3</title>
<g id="a_node3"><a xlink:href="J2DPictureEx_8cpp.html" target="_top" xlink:title=" ">
<polygon fill="white" stroke="#666666" points="256,-162 137,-162 137,-132 256,-132 256,-162"/>
<text text-anchor="start" x="145" y="-150" font-family="Helvetica,sans-Serif" font-size="10.00">libs/JSystem/J2DGraph</text>
<text text-anchor="middle" x="196.5" y="-139" font-family="Helvetica,sans-Serif" font-size="10.00">/J2DPictureEx.cpp</text>
</a>
</g>
</g>
<!-- Node2&#45;&gt;Node3 -->
<g id="edge2" class="edge">
<title>Node2&#45;&gt;Node3</title>
<path fill="none" stroke="#63b8ff" d="M196.5,-186.39C196.5,-178.13 196.5,-169.28 196.5,-162.16"/>
<polygon fill="#63b8ff" stroke="#63b8ff" points="193,-186.28 196.5,-196.28 200,-186.28 193,-186.28"/>
</g>
<!-- Node4 -->
<g id="node4" class="node">
<title>Node4</title>
<g id="a_node4"><a xlink:href="J2DScreen_8cpp.html" target="_top" xlink:title=" ">
<polygon fill="white" stroke="#666666" points="119,-162 0,-162 0,-132 119,-132 119,-162"/>
<text text-anchor="start" x="8" y="-150" font-family="Helvetica,sans-Serif" font-size="10.00">libs/JSystem/J2DGraph</text>
<text text-anchor="middle" x="59.5" y="-139" font-family="Helvetica,sans-Serif" font-size="10.00">/J2DScreen.cpp</text>
</a>
</g>
</g>
<!-- Node2&#45;&gt;Node4 -->
<g id="edge3" class="edge">
<title>Node2&#45;&gt;Node4</title>
<path fill="none" stroke="#63b8ff" d="M155.52,-192.86C134.54,-183.05 109.42,-171.32 90.14,-162.31"/>
<polygon fill="#63b8ff" stroke="#63b8ff" points="153.84,-195.94 164.38,-197 156.8,-189.59 153.84,-195.94"/>
</g>
<!-- Node6 -->
<g id="node6" class="node">
<title>Node6</title>
<g id="a_node6"><a xlink:href="d__a__player_8h.html" target="_top" xlink:title=" ">
<polygon fill="white" stroke="#666666" points="2649,-156.5 2528,-156.5 2528,-137.5 2649,-137.5 2649,-156.5"/>
<text text-anchor="middle" x="2588.5" y="-144.5" font-family="Helvetica,sans-Serif" font-size="10.00">include/d/a/d_a_player.h</text>
</a>
</g>
</g>
<!-- Node5&#45;&gt;Node6 -->
<g id="edge5" class="edge">
<title>Node5&#45;&gt;Node6</title>
<path fill="none" stroke="#63b8ff" d="M1496.92,-200.78C1502.81,-199.68 1508.78,-198.71 1514.5,-198 1958.02,-142.73 2075.65,-214.62 2519.5,-162 2529.45,-160.82 2540.11,-158.96 2550,-156.98"/>
<polygon fill="#63b8ff" stroke="#63b8ff" points="1496.35,-197.32 1487.23,-202.71 1497.72,-204.19 1496.35,-197.32"/>
</g>
<!-- Node47 -->
<g id="node30" class="node">
<title>Node47</title>
<g id="a_node30"><a xlink:href="d__camera_8h.html" target="_top" xlink:title=" ">
<polygon fill="#fff0f0" stroke="red" points="2510,-156.5 2401,-156.5 2401,-137.5 2510,-137.5 2510,-156.5"/>
<text text-anchor="middle" x="2455.5" y="-144.5" font-family="Helvetica,sans-Serif" font-size="10.00">include/d/d_camera.h</text>
</a>
</g>
</g>
<!-- Node5&#45;&gt;Node47 -->
<g id="edge30" class="edge">
<title>Node5&#45;&gt;Node47</title>
<path fill="none" stroke="#63b8ff" d="M1496.92,-200.81C1502.81,-199.71 1508.78,-198.73 1514.5,-198 1901.48,-148.75 2004.59,-211.87 2391.5,-162 2400.75,-160.81 2410.64,-158.94 2419.81,-156.96"/>
<polygon fill="#63b8ff" stroke="#63b8ff" points="1496.35,-197.35 1487.24,-202.75 1497.73,-204.21 1496.35,-197.35"/>
</g>
<!-- Node206 -->
<g id="node32" class="node">
<title>Node206</title>
<g id="a_node32"><a xlink:href="d__kantera__icon__meter_8h.html" target="_top" xlink:title=" ">
<polygon fill="#fff0f0" stroke="red" points="1204,-162 1103,-162 1103,-132 1204,-132 1204,-162"/>
<text text-anchor="start" x="1111" y="-150" font-family="Helvetica,sans-Serif" font-size="10.00">include/d/d_kantera</text>
<text text-anchor="middle" x="1153.5" y="-139" font-family="Helvetica,sans-Serif" font-size="10.00">_icon_meter.h</text>
</a>
</g>
</g>
<!-- Node5&#45;&gt;Node206 -->
<g id="edge32" class="edge">
<title>Node5&#45;&gt;Node206</title>
<path fill="none" stroke="#63b8ff" d="M1394.9,-200.76C1347.03,-190.83 1275.57,-175.82 1213.5,-162 1210.47,-161.33 1207.36,-160.63 1204.22,-159.91"/>
<polygon fill="#63b8ff" stroke="#63b8ff" points="1393.96,-204.14 1404.46,-202.74 1395.38,-197.29 1393.96,-204.14"/>
</g>
<!-- Node207 -->
<g id="node33" class="node">
<title>Node207</title>
<g id="a_node33"><a xlink:href="d__select__cursor_8h.html" target="_top" xlink:title=" ">
<polygon fill="#fff0f0" stroke="red" points="1317,-162 1222,-162 1222,-132 1317,-132 1317,-162"/>
<text text-anchor="start" x="1230" y="-150" font-family="Helvetica,sans-Serif" font-size="10.00">include/d/d_select</text>
<text text-anchor="middle" x="1269.5" y="-139" font-family="Helvetica,sans-Serif" font-size="10.00">_cursor.h</text>
</a>
</g>
</g>
<!-- Node5&#45;&gt;Node207 -->
<g id="edge33" class="edge">
<title>Node5&#45;&gt;Node207</title>
<path fill="none" stroke="#63b8ff" d="M1413.71,-199.27C1383.86,-188.66 1341.35,-173.55 1310.22,-162.48"/>
<polygon fill="#63b8ff" stroke="#63b8ff" points="1412.45,-202.54 1423.05,-202.59 1414.8,-195.95 1412.45,-202.54"/>
</g>
<!-- Node211 -->
<g id="node34" class="node">
<title>Node211</title>
<g id="a_node34"><a xlink:href="d__file__sel__info_8h.html" target="_top" xlink:title=" ">
<polygon fill="#fff0f0" stroke="red" points="1431.5,-162 1335.5,-162 1335.5,-132 1431.5,-132 1431.5,-162"/>
<text text-anchor="start" x="1343.5" y="-150" font-family="Helvetica,sans-Serif" font-size="10.00">include/d/file/d_file</text>
<text text-anchor="middle" x="1383.5" y="-139" font-family="Helvetica,sans-Serif" font-size="10.00">_sel_info.h</text>
</a>
</g>
</g>
<!-- Node5&#45;&gt;Node211 -->
<g id="edge34" class="edge">
<title>Node5&#45;&gt;Node211</title>
<path fill="none" stroke="#63b8ff" d="M1432.23,-195.25C1421.65,-184.99 1408.25,-172 1398.18,-162.23"/>
<polygon fill="#63b8ff" stroke="#63b8ff" points="1429.62,-197.6 1439.24,-202.05 1434.49,-192.57 1429.62,-197.6"/>
</g>
<!-- Node212 -->
<g id="node35" class="node">
<title>Node212</title>
<g id="a_node35"><a xlink:href="d__map__path_8h.html" target="_top" xlink:title=" ">
<polygon fill="#fff0f0" stroke="red" points="3446.5,-162 3336.5,-162 3336.5,-132 3446.5,-132 3446.5,-162"/>
<text text-anchor="start" x="3344.5" y="-150" font-family="Helvetica,sans-Serif" font-size="10.00">include/d/map/d_map</text>
<text text-anchor="middle" x="3391.5" y="-139" font-family="Helvetica,sans-Serif" font-size="10.00">_path.h</text>
</a>
</g>
</g>
<!-- Node5&#45;&gt;Node212 -->
<g id="edge35" class="edge">
<title>Node5&#45;&gt;Node212</title>
<path fill="none" stroke="#63b8ff" d="M1496.23,-200.85C1502.35,-199.71 1508.55,-198.71 1514.5,-198 1607.15,-186.89 3035.99,-155.65 3336.36,-149.18"/>
<polygon fill="#63b8ff" stroke="#63b8ff" points="1496,-197.33 1486.88,-202.73 1497.38,-204.19 1496,-197.33"/>
</g>
<!-- Node216 -->
<g id="node36" class="node">
<title>Node216</title>
<g id="a_node36"><a xlink:href="d__menu__collect_8h.html" target="_top" xlink:title=" ">
<polygon fill="#fff0f0" stroke="red" points="2382.5,-162 2262.5,-162 2262.5,-132 2382.5,-132 2382.5,-162"/>
<text text-anchor="start" x="2270.5" y="-150" font-family="Helvetica,sans-Serif" font-size="10.00">include/d/menu/d_menu</text>
<text text-anchor="middle" x="2322.5" y="-139" font-family="Helvetica,sans-Serif" font-size="10.00">_collect.h</text>
</a>
</g>
</g>
<!-- Node5&#45;&gt;Node216 -->
<g id="edge37" class="edge">
<title>Node5&#45;&gt;Node216</title>
<path fill="none" stroke="#63b8ff" d="M1497.14,-200.81C1502.96,-199.72 1508.85,-198.74 1514.5,-198 1840.54,-155.24 1927.21,-202.81 2253.5,-162 2256.29,-161.65 2259.13,-161.25 2262,-160.81"/>
<polygon fill="#63b8ff" stroke="#63b8ff" points="1496.7,-197.33 1487.58,-202.72 1498.08,-204.19 1496.7,-197.33"/>
</g>
<!-- Node217 -->
<g id="node37" class="node">
<title>Node217</title>
<g id="a_node37"><a xlink:href="d__menu__fishing_8h.html" target="_top" xlink:title=" ">
<polygon fill="#fff0f0" stroke="red" points="808.5,-162 688.5,-162 688.5,-132 808.5,-132 808.5,-162"/>
<text text-anchor="start" x="696.5" y="-150" font-family="Helvetica,sans-Serif" font-size="10.00">include/d/menu/d_menu</text>
<text text-anchor="middle" x="748.5" y="-139" font-family="Helvetica,sans-Serif" font-size="10.00">_fishing.h</text>
</a>
</g>
</g>
<!-- Node5&#45;&gt;Node217 -->
<g id="edge40" class="edge">
<title>Node5&#45;&gt;Node217</title>
<path fill="none" stroke="#63b8ff" d="M1382.86,-209.39C1267.31,-204.26 1022.46,-190.79 817.5,-162 814.59,-161.59 811.63,-161.14 808.64,-160.65"/>
<polygon fill="#63b8ff" stroke="#63b8ff" points="1382.65,-212.88 1392.79,-209.82 1382.96,-205.89 1382.65,-212.88"/>
</g>
<!-- Node218 -->
<g id="node38" class="node">
<title>Node218</title>
<g id="a_node38"><a xlink:href="d__menu__insect_8h.html" target="_top" xlink:title=" ">
<polygon fill="#fff0f0" stroke="red" points="2106.5,-162 1986.5,-162 1986.5,-132 2106.5,-132 2106.5,-162"/>
<text text-anchor="start" x="1994.5" y="-150" font-family="Helvetica,sans-Serif" font-size="10.00">include/d/menu/d_menu</text>
<text text-anchor="middle" x="2046.5" y="-139" font-family="Helvetica,sans-Serif" font-size="10.00">_insect.h</text>
</a>
</g>
</g>
<!-- Node5&#45;&gt;Node218 -->
<g id="edge42" class="edge">
<title>Node5&#45;&gt;Node218</title>
<path fill="none" stroke="#63b8ff" d="M1498.03,-200.8C1503.57,-199.75 1509.14,-198.78 1514.5,-198 1718.74,-168.2 1773.09,-190.57 1977.5,-162 1980.41,-161.59 1983.37,-161.14 1986.36,-160.65"/>
<polygon fill="#63b8ff" stroke="#63b8ff" points="1497.4,-197.36 1488.29,-202.77 1498.79,-204.22 1497.4,-197.36"/>
</g>
<!-- Node219 -->
<g id="node39" class="node">
<title>Node219</title>
<g id="a_node39"><a xlink:href="d__menu__letter_8h.html" target="_top" xlink:title=" ">
<polygon fill="#fff0f0" stroke="red" points="2244.5,-162 2124.5,-162 2124.5,-132 2244.5,-132 2244.5,-162"/>
<text text-anchor="start" x="2132.5" y="-150" font-family="Helvetica,sans-Serif" font-size="10.00">include/d/menu/d_menu</text>
<text text-anchor="middle" x="2184.5" y="-139" font-family="Helvetica,sans-Serif" font-size="10.00">_letter.h</text>
</a>
</g>
</g>
<!-- Node5&#45;&gt;Node219 -->
<g id="edge44" class="edge">
<title>Node5&#45;&gt;Node219</title>
<path fill="none" stroke="#63b8ff" d="M1497.36,-200.83C1503.12,-199.74 1508.92,-198.76 1514.5,-198 1779.62,-161.72 1850.17,-196.69 2115.5,-162 2118.41,-161.62 2121.38,-161.19 2124.37,-160.72"/>
<polygon fill="#63b8ff" stroke="#63b8ff" points="1497.05,-197.32 1487.93,-202.72 1498.43,-204.19 1497.05,-197.32"/>
</g>
<!-- Node221 -->
<g id="node40" class="node">
<title>Node221</title>
<g id="a_node40"><a xlink:href="d__menu__option_8h.html" target="_top" xlink:title=" ">
<polygon fill="#fff0f0" stroke="red" points="394.5,-162 274.5,-162 274.5,-132 394.5,-132 394.5,-162"/>
<text text-anchor="start" x="282.5" y="-150" font-family="Helvetica,sans-Serif" font-size="10.00">include/d/menu/d_menu</text>
<text text-anchor="middle" x="334.5" y="-139" font-family="Helvetica,sans-Serif" font-size="10.00">_option.h</text>
</a>
</g>
</g>
<!-- Node5&#45;&gt;Node221 -->
<g id="edge46" class="edge">
<title>Node5&#45;&gt;Node221</title>
<path fill="none" stroke="#63b8ff" d="M1382.77,-212.33C1216.61,-212.38 771.28,-207.83 403.5,-162 400.71,-161.65 397.86,-161.25 395,-160.82"/>
<polygon fill="#63b8ff" stroke="#63b8ff" points="1382.73,-215.83 1392.73,-212.32 1382.73,-208.83 1382.73,-215.83"/>
</g>
<!-- Node222 -->
<g id="node41" class="node">
<title>Node222</title>
<g id="a_node41"><a xlink:href="d__menu__ring_8h.html" target="_top" xlink:title=" ">
<polygon fill="#fff0f0" stroke="red" points="532.5,-162 412.5,-162 412.5,-132 532.5,-132 532.5,-162"/>
<text text-anchor="start" x="420.5" y="-150" font-family="Helvetica,sans-Serif" font-size="10.00">include/d/menu/d_menu</text>
<text text-anchor="middle" x="472.5" y="-139" font-family="Helvetica,sans-Serif" font-size="10.00">_ring.h</text>
</a>
</g>
</g>
<!-- Node5&#45;&gt;Node222 -->
<g id="edge48" class="edge">
<title>Node5&#45;&gt;Node222</title>
<path fill="none" stroke="#63b8ff" d="M1382.93,-211.64C1232.4,-210.09 854.56,-202.16 541.5,-162 538.71,-161.64 535.87,-161.24 533,-160.79"/>
<polygon fill="#63b8ff" stroke="#63b8ff" points="1382.68,-215.13 1392.72,-211.73 1382.75,-208.13 1382.68,-215.13"/>
</g>
<!-- Node224 -->
<g id="node42" class="node">
<title>Node224</title>
<g id="a_node42"><a xlink:href="d__menu__save_8h.html" target="_top" xlink:title=" ">
<polygon fill="#fff0f0" stroke="red" points="946.5,-162 826.5,-162 826.5,-132 946.5,-132 946.5,-162"/>
<text text-anchor="start" x="834.5" y="-150" font-family="Helvetica,sans-Serif" font-size="10.00">include/d/menu/d_menu</text>
<text text-anchor="middle" x="886.5" y="-139" font-family="Helvetica,sans-Serif" font-size="10.00">_save.h</text>
</a>
</g>
</g>
<!-- Node5&#45;&gt;Node224 -->
<g id="edge50" class="edge">
<title>Node5&#45;&gt;Node224</title>
<path fill="none" stroke="#63b8ff" d="M1382.62,-207.35C1287.41,-200.25 1107.47,-185.05 955.5,-162 952.6,-161.56 949.64,-161.08 946.65,-160.57"/>
<polygon fill="#63b8ff" stroke="#63b8ff" points="1382.34,-210.84 1392.57,-208.08 1382.86,-203.86 1382.34,-210.84"/>
</g>
<!-- Node226 -->
<g id="node43" class="node">
<title>Node226</title>
<g id="a_node43"><a xlink:href="d__menu__skill_8h.html" target="_top" xlink:title=" ">
<polygon fill="#fff0f0" stroke="red" points="1084.5,-162 964.5,-162 964.5,-132 1084.5,-132 1084.5,-162"/>
<text text-anchor="start" x="972.5" y="-150" font-family="Helvetica,sans-Serif" font-size="10.00">include/d/menu/d_menu</text>
<text text-anchor="middle" x="1024.5" y="-139" font-family="Helvetica,sans-Serif" font-size="10.00">_skill.h</text>
</a>
</g>
</g>
<!-- Node5&#45;&gt;Node226 -->
<g id="edge52" class="edge">
<title>Node5&#45;&gt;Node226</title>
<path fill="none" stroke="#63b8ff" d="M1382.93,-203.79C1311.47,-194.69 1194.68,-179.06 1094.5,-162 1091.32,-161.46 1088.07,-160.88 1084.79,-160.29"/>
<polygon fill="#63b8ff" stroke="#63b8ff" points="1382.14,-207.21 1392.5,-205 1383.02,-200.27 1382.14,-207.21"/>
</g>
<!-- Node227 -->
<g id="node44" class="node">
<title>Node227</title>
<g id="a_node44"><a xlink:href="d__menu__window_8h.html" target="_top" xlink:title=" ">
<polygon fill="#fff0f0" stroke="red" points="670.5,-162 550.5,-162 550.5,-132 670.5,-132 670.5,-162"/>
<text text-anchor="start" x="558.5" y="-150" font-family="Helvetica,sans-Serif" font-size="10.00">include/d/menu/d_menu</text>
<text text-anchor="middle" x="610.5" y="-139" font-family="Helvetica,sans-Serif" font-size="10.00">_window.h</text>
</a>
</g>
</g>
<!-- Node5&#45;&gt;Node227 -->
<g id="edge54" class="edge">
<title>Node5&#45;&gt;Node227</title>
<path fill="none" stroke="#63b8ff" d="M1382.92,-210.71C1249.1,-207.44 938.2,-196.48 679.5,-162 676.59,-161.61 673.62,-161.17 670.63,-160.7"/>
<polygon fill="#63b8ff" stroke="#63b8ff" points="1382.57,-214.2 1392.65,-210.94 1382.73,-207.2 1382.57,-214.2"/>
</g>
<!-- Node228 -->
<g id="node45" class="node">
<title>Node228</title>
<g id="a_node45"><a xlink:href="d__meter2_8h.html" target="_top" xlink:title=" ">
<polygon fill="#fff0f0" stroke="red" points="1583.5,-156.5 1449.5,-156.5 1449.5,-137.5 1583.5,-137.5 1583.5,-156.5"/>
<text text-anchor="middle" x="1516.5" y="-144.5" font-family="Helvetica,sans-Serif" font-size="10.00">include/d/meter/d_meter2.h</text>
</a>
</g>
</g>
<!-- Node5&#45;&gt;Node228 -->
<g id="edge56" class="edge">
<title>Node5&#45;&gt;Node228</title>
<path fill="none" stroke="#63b8ff" d="M1466.95,-195.33C1479.84,-183.02 1496.9,-166.73 1507.26,-156.82"/>
<polygon fill="#63b8ff" stroke="#63b8ff" points="1464.72,-192.62 1459.91,-202.06 1469.56,-197.68 1464.72,-192.62"/>
</g>
<!-- Node230 -->
<g id="node46" class="node">
<title>Node230</title>
<g id="a_node46"><a xlink:href="d__meter2__draw_8h.html" target="_top" xlink:title=" ">
<polygon fill="#fff0f0" stroke="red" points="1729,-162 1602,-162 1602,-132 1729,-132 1729,-162"/>
<text text-anchor="start" x="1610" y="-150" font-family="Helvetica,sans-Serif" font-size="10.00">include/d/meter/d_meter2</text>
<text text-anchor="middle" x="1665.5" y="-139" font-family="Helvetica,sans-Serif" font-size="10.00">_draw.h</text>
</a>
</g>
</g>
<!-- Node5&#45;&gt;Node230 -->
<g id="edge57" class="edge">
<title>Node5&#45;&gt;Node230</title>
<path fill="none" stroke="#63b8ff" d="M1490.11,-199.97C1526.01,-189.33 1578.45,-173.79 1616.64,-162.48"/>
<polygon fill="#63b8ff" stroke="#63b8ff" points="1489.58,-196.47 1480.99,-202.67 1491.57,-203.19 1489.58,-196.47"/>
</g>
<!-- Node231 -->
<g id="node47" class="node">
<title>Node231</title>
<g id="a_node47"><a xlink:href="d__msg__scrn__base_8h.html" target="_top" xlink:title=" ">
<polygon fill="#fff0f0" stroke="red" points="1846,-162 1747,-162 1747,-132 1846,-132 1846,-162"/>
<text text-anchor="start" x="1755" y="-150" font-family="Helvetica,sans-Serif" font-size="10.00">include/msg/scrn/d</text>
<text text-anchor="middle" x="1796.5" y="-139" font-family="Helvetica,sans-Serif" font-size="10.00">_msg_scrn_base.h</text>
</a>
</g>
</g>
<!-- Node5&#45;&gt;Node231 -->
<g id="edge58" class="edge">
<title>Node5&#45;&gt;Node231</title>
<path fill="none" stroke="#63b8ff" d="M1500.57,-200.74C1505.27,-199.78 1509.97,-198.85 1514.5,-198 1613.6,-179.38 1639.64,-181.84 1738.5,-162 1741.14,-161.47 1743.84,-160.9 1746.57,-160.31"/>
<polygon fill="#63b8ff" stroke="#63b8ff" points="1500.21,-197.23 1491.14,-202.7 1501.64,-204.09 1500.21,-197.23"/>
</g>
<!-- Node154 -->
<g id="node48" class="node">
<title>Node154</title>
<g id="a_node48"><a xlink:href="d__drawlist_8cpp.html" target="_top" xlink:title=" ">
<polygon fill="white" stroke="#666666" points="1968.5,-156.5 1864.5,-156.5 1864.5,-137.5 1968.5,-137.5 1968.5,-156.5"/>
<text text-anchor="middle" x="1916.5" y="-144.5" font-family="Helvetica,sans-Serif" font-size="10.00">src/d/d_drawlist.cpp</text>
</a>
</g>
</g>
<!-- Node5&#45;&gt;Node154 -->
<g id="edge59" class="edge">
<title>Node5&#45;&gt;Node154</title>
<path fill="none" stroke="#63b8ff" d="M1499.1,-200.75C1504.29,-199.74 1509.49,-198.8 1514.5,-198 1664.98,-173.92 1705.18,-187.09 1855.5,-162 1863.75,-160.62 1872.56,-158.81 1880.84,-156.94"/>
<polygon fill="#63b8ff" stroke="#63b8ff" points="1498.45,-197.31 1489.35,-202.72 1499.85,-204.17 1498.45,-197.31"/>
</g>
<!-- Node7 -->
<g id="node7" class="node">
<title>Node7</title>
<g id="a_node7"><a xlink:href="d__a__alink_8h.html" target="_top" xlink:title=" ">
<polygon fill="#fff0f0" stroke="red" points="2646.5,-85 2530.5,-85 2530.5,-66 2646.5,-66 2646.5,-85"/>
<text text-anchor="middle" x="2588.5" y="-73" font-family="Helvetica,sans-Serif" font-size="10.00">include/d/a/d_a_alink.h</text>
</a>
</g>
</g>
<!-- Node6&#45;&gt;Node7 -->
<g id="edge6" class="edge">
<title>Node6&#45;&gt;Node7</title>
<path fill="none" stroke="#63b8ff" d="M2588.5,-125.8C2588.5,-112.44 2588.5,-95.59 2588.5,-85.45"/>
<polygon fill="#63b8ff" stroke="#63b8ff" points="2585,-125.68 2588.5,-135.68 2592,-125.68 2585,-125.68"/>
</g>
<!-- Node9 -->
<g id="node8" class="node">
<title>Node9</title>
<g id="a_node8"><a xlink:href="d__a__player_8cpp.html" target="_top" xlink:title=" ">
<polygon fill="white" stroke="#666666" points="2602.5,-19 2488.5,-19 2488.5,0 2602.5,0 2602.5,-19"/>
<text text-anchor="middle" x="2545.5" y="-7" font-family="Helvetica,sans-Serif" font-size="10.00">src/d/a/d_a_player.cpp</text>
</a>
</g>
</g>
<!-- Node6&#45;&gt;Node9 -->
<g id="edge18" class="edge">
<title>Node6&#45;&gt;Node9</title>
<path fill="none" stroke="#63b8ff" d="M2558.16,-131.65C2544.29,-123.35 2529.25,-111.45 2521.5,-96 2508.37,-69.82 2527.95,-35.4 2538.92,-19.4"/>
<polygon fill="#63b8ff" stroke="#63b8ff" points="2556.16,-134.55 2566.61,-136.33 2559.55,-128.42 2556.16,-134.55"/>
</g>
<!-- Node16 -->
<g id="node9" class="node">
<title>Node16</title>
<g id="a_node9"><a xlink:href="d__a__npc_8h.html" target="_top" xlink:title=" ">
<polygon fill="#fff0f0" stroke="red" points="2776,-85 2665,-85 2665,-66 2776,-66 2776,-85"/>
<text text-anchor="middle" x="2720.5" y="-73" font-family="Helvetica,sans-Serif" font-size="10.00">include/d/a/d_a_npc.h</text>
</a>
</g>
</g>
<!-- Node6&#45;&gt;Node16 -->
<g id="edge8" class="edge">
<title>Node6&#45;&gt;Node16</title>
<path fill="none" stroke="#63b8ff" d="M2615.59,-131.74C2642,-117.83 2681.34,-97.12 2703.58,-85.41"/>
<polygon fill="#63b8ff" stroke="#63b8ff" points="2614.04,-128.6 2606.83,-136.35 2617.3,-134.79 2614.04,-128.6"/>
</g>
<!-- Node22 -->
<g id="node10" class="node">
<title>Node22</title>
<g id="a_node10"><a xlink:href="d__a__arrow_8h.html" target="_top" xlink:title=" ">
<polygon fill="white" stroke="#666666" points="2895,-90.5 2794,-90.5 2794,-60.5 2895,-60.5 2895,-90.5"/>
<text text-anchor="start" x="2802" y="-78.5" font-family="Helvetica,sans-Serif" font-size="10.00">include/rel/d/a/d_a</text>
<text text-anchor="middle" x="2844.5" y="-67.5" font-family="Helvetica,sans-Serif" font-size="10.00">_arrow/d_a_arrow.h</text>
</a>
</g>
</g>
<!-- Node6&#45;&gt;Node22 -->
<g id="edge9" class="edge">
<title>Node6&#45;&gt;Node22</title>
<path fill="none" stroke="#63b8ff" d="M2638.27,-134.4C2678.26,-124.83 2735.76,-110.51 2785.5,-96 2790.89,-94.43 2796.52,-92.69 2802.07,-90.92"/>
<polygon fill="#63b8ff" stroke="#63b8ff" points="2637.61,-130.96 2628.69,-136.68 2639.23,-137.77 2637.61,-130.96"/>
</g>
<!-- Node23 -->
<g id="node11" class="node">
<title>Node23</title>
<g id="a_node11"><a xlink:href="d__a__crod_8h.html" target="_top" xlink:title=" ">
<polygon fill="#fff0f0" stroke="red" points="3009.5,-90.5 2913.5,-90.5 2913.5,-60.5 3009.5,-60.5 3009.5,-90.5"/>
<text text-anchor="start" x="2921.5" y="-78.5" font-family="Helvetica,sans-Serif" font-size="10.00">include/rel/d/a/d_a</text>
<text text-anchor="middle" x="2961.5" y="-67.5" font-family="Helvetica,sans-Serif" font-size="10.00">_crod/d_a_crod.h</text>
</a>
</g>
</g>
<!-- Node6&#45;&gt;Node23 -->
<g id="edge10" class="edge">
<title>Node6&#45;&gt;Node23</title>
<path fill="none" stroke="#63b8ff" d="M2660.67,-138.18C2725.18,-130.34 2821.99,-116.48 2904.5,-96 2910.29,-94.56 2916.32,-92.8 2922.21,-90.93"/>
<polygon fill="#63b8ff" stroke="#63b8ff" points="2660.42,-134.69 2650.91,-139.35 2661.25,-141.64 2660.42,-134.69"/>
</g>
<!-- Node24 -->
<g id="node12" class="node">
<title>Node24</title>
<g id="a_node12"><a xlink:href="d__a__do_8h.html" target="_top" xlink:title=" ">
<polygon fill="white" stroke="#666666" points="3123.5,-90.5 3027.5,-90.5 3027.5,-60.5 3123.5,-60.5 3123.5,-90.5"/>
<text text-anchor="start" x="3035.5" y="-78.5" font-family="Helvetica,sans-Serif" font-size="10.00">include/rel/d/a/d_a</text>
<text text-anchor="middle" x="3075.5" y="-67.5" font-family="Helvetica,sans-Serif" font-size="10.00">_do/d_a_do.h</text>
</a>
</g>
</g>
<!-- Node6&#45;&gt;Node24 -->
<g id="edge11" class="edge">
<title>Node6&#45;&gt;Node24</title>
<path fill="none" stroke="#63b8ff" d="M2660.84,-142.32C2746.94,-136.85 2894.64,-124.05 3018.5,-96 3024.52,-94.64 3030.79,-92.87 3036.88,-90.95"/>
<polygon fill="#63b8ff" stroke="#63b8ff" points="2660.64,-138.82 2650.87,-142.93 2661.07,-145.81 2660.64,-138.82"/>
</g>
<!-- Node25 -->
<g id="node13" class="node">
<title>Node25</title>
<g id="a_node13"><a xlink:href="d__a__guard__mng_8h.html" target="_top" xlink:title=" ">
<polygon fill="white" stroke="#666666" points="3291,-90.5 3142,-90.5 3142,-60.5 3291,-60.5 3291,-90.5"/>
<text text-anchor="start" x="3150" y="-78.5" font-family="Helvetica,sans-Serif" font-size="10.00">include/rel/d/a/d_a</text>
<text text-anchor="middle" x="3216.5" y="-67.5" font-family="Helvetica,sans-Serif" font-size="10.00">_guard_mng/d_a_guard_mng.h</text>
</a>
</g>
</g>
<!-- Node6&#45;&gt;Node25 -->
<g id="edge12" class="edge">
<title>Node6&#45;&gt;Node25</title>
<path fill="none" stroke="#63b8ff" d="M2660.56,-142.51C2765.09,-136.75 2964.64,-123.07 3132.5,-96 3141.07,-94.62 3150.07,-92.86 3158.87,-90.97"/>
<polygon fill="#63b8ff" stroke="#63b8ff" points="2660.52,-139.01 2650.73,-143.05 2660.9,-146 2660.52,-139.01"/>
</g>
<!-- Node26 -->
<g id="node14" class="node">
<title>Node26</title>
<g id="a_node14"><a xlink:href="d__a__horse_8h.html" target="_top" xlink:title=" ">
<polygon fill="#fff0f0" stroke="red" points="3410,-90.5 3309,-90.5 3309,-60.5 3410,-60.5 3410,-90.5"/>
<text text-anchor="start" x="3317" y="-78.5" font-family="Helvetica,sans-Serif" font-size="10.00">include/rel/d/a/d_a</text>
<text text-anchor="middle" x="3359.5" y="-67.5" font-family="Helvetica,sans-Serif" font-size="10.00">_horse/d_a_horse.h</text>
</a>
</g>
</g>
<!-- Node6&#45;&gt;Node26 -->
<g id="edge13" class="edge">
<title>Node6&#45;&gt;Node26</title>
<path fill="none" stroke="#63b8ff" d="M2660.48,-146.83C2789.87,-147.01 3069.78,-141.49 3300.5,-96 3306.96,-94.73 3313.69,-92.95 3320.19,-90.99"/>
<polygon fill="#63b8ff" stroke="#63b8ff" points="2660.7,-143.33 2650.69,-146.8 2660.68,-150.33 2660.7,-143.33"/>
</g>
<!-- Node32 -->
<g id="node15" class="node">
<title>Node32</title>
<g id="a_node15"><a xlink:href="d__a__tag__river__back_8h.html" target="_top" xlink:title=" ">
<polygon fill="white" stroke="#666666" points="3540.5,-96 3428.5,-96 3428.5,-55 3540.5,-55 3540.5,-96"/>
<text text-anchor="start" x="3436.5" y="-84" font-family="Helvetica,sans-Serif" font-size="10.00">include/rel/d/a/tag</text>
<text text-anchor="start" x="3436.5" y="-73" font-family="Helvetica,sans-Serif" font-size="10.00">/d_a_tag_river_back</text>
<text text-anchor="middle" x="3484.5" y="-62" font-family="Helvetica,sans-Serif" font-size="10.00">/d_a_tag_river_back.h</text>
</a>
</g>
</g>
<!-- Node6&#45;&gt;Node32 -->
<g id="edge14" class="edge">
<title>Node6&#45;&gt;Node32</title>
<path fill="none" stroke="#63b8ff" d="M2660.61,-143.8C2834.78,-138.15 3274.67,-121.72 3419.5,-96 3422.4,-95.48 3425.35,-94.88 3428.32,-94.22"/>
<polygon fill="#63b8ff" stroke="#63b8ff" points="2660.68,-140.3 2650.79,-144.12 2660.9,-147.3 2660.68,-140.3"/>
</g>
<!-- Node33 -->
<g id="node16" class="node">
<title>Node33</title>
<g id="a_node16"><a xlink:href="c__damagereaction_8cpp.html" target="_top" xlink:title=" ">
<polygon fill="white" stroke="#666666" points="3698,-85 3559,-85 3559,-66 3698,-66 3698,-85"/>
<text text-anchor="middle" x="3628.5" y="-73" font-family="Helvetica,sans-Serif" font-size="10.00">src/c/c_damagereaction.cpp</text>
</a>
</g>
</g>
<!-- Node6&#45;&gt;Node33 -->
<g id="edge15" class="edge">
<title>Node6&#45;&gt;Node33</title>
<path fill="none" stroke="#63b8ff" d="M2660.76,-144.02C2853.73,-138.45 3378.13,-121.37 3549.5,-96 3565.71,-93.6 3583.45,-89.37 3598.01,-85.46"/>
<polygon fill="#63b8ff" stroke="#63b8ff" points="2660.76,-140.52 2650.86,-144.3 2660.96,-147.52 2660.76,-140.52"/>
</g>
<!-- Node34 -->
<g id="node17" class="node">
<title>Node34</title>
<g id="a_node17"><a xlink:href="d__a__npc__cd2_8cpp.html" target="_top" xlink:title=" ">
<polygon fill="white" stroke="#666666" points="3841,-85 3716,-85 3716,-66 3841,-66 3841,-85"/>
<text text-anchor="middle" x="3778.5" y="-73" font-family="Helvetica,sans-Serif" font-size="10.00">src/d/a/d_a_npc_cd2.cpp</text>
</a>
</g>
</g>
<!-- Node6&#45;&gt;Node34 -->
<g id="edge16" class="edge">
<title>Node6&#45;&gt;Node34</title>
<path fill="none" stroke="#63b8ff" d="M2660.56,-144.88C2874.65,-141.23 3504.61,-127.98 3707.5,-96 3722.27,-93.67 3738.37,-89.4 3751.5,-85.44"/>
<polygon fill="#63b8ff" stroke="#63b8ff" points="2660.62,-141.38 2650.68,-145.05 2660.74,-148.38 2660.62,-141.38"/>
</g>
<!-- Node35 -->
<g id="node18" class="node">
<title>Node35</title>
<g id="a_node18"><a xlink:href="d__a__obj__item_8cpp.html" target="_top" xlink:title=" ">
<polygon fill="white" stroke="#666666" points="3984,-85 3859,-85 3859,-66 3984,-66 3984,-85"/>
<text text-anchor="middle" x="3921.5" y="-73" font-family="Helvetica,sans-Serif" font-size="10.00">src/d/a/d_a_obj_item.cpp</text>
</a>
</g>
</g>
<!-- Node6&#45;&gt;Node35 -->
<g id="edge17" class="edge">
<title>Node6&#45;&gt;Node35</title>
<path fill="none" stroke="#63b8ff" d="M2660.5,-145.31C2892.47,-142.74 3618.64,-131.95 3850.5,-96 3865.28,-93.71 3881.38,-89.44 3894.51,-85.48"/>
<polygon fill="#63b8ff" stroke="#63b8ff" points="2660.65,-141.81 2650.69,-145.41 2660.73,-148.8 2660.65,-141.81"/>
</g>
<!-- Node36 -->
<g id="node19" class="node">
<title>Node36</title>
<g id="a_node19"><a xlink:href="d__bg__s__acch_8cpp.html" target="_top" xlink:title=" ">
<polygon fill="white" stroke="#666666" points="1580,-85 1449,-85 1449,-66 1580,-66 1580,-85"/>
<text text-anchor="middle" x="1514.5" y="-73" font-family="Helvetica,sans-Serif" font-size="10.00">src/d/bg/d_bg_s_acch.cpp</text>
</a>
</g>
</g>
<!-- Node6&#45;&gt;Node36 -->
<g id="edge19" class="edge">
<title>Node6&#45;&gt;Node36</title>
<path fill="none" stroke="#63b8ff" d="M2539.11,-134.98C2532.54,-133.81 2525.88,-132.77 2519.5,-132 2108.8,-82.71 1998.71,-156.39 1589.5,-96 1573.93,-93.7 1556.92,-89.43 1543.05,-85.47"/>
<polygon fill="#63b8ff" stroke="#63b8ff" points="2538.03,-138.33 2548.51,-136.76 2539.34,-131.46 2538.03,-138.33"/>
</g>
<!-- Node37 -->
<g id="node20" class="node">
<title>Node37</title>
<g id="a_node20"><a xlink:href="d__cc__uty_8cpp.html" target="_top" xlink:title=" ">
<polygon fill="white" stroke="#666666" points="1710.5,-85 1598.5,-85 1598.5,-66 1710.5,-66 1710.5,-85"/>
<text text-anchor="middle" x="1654.5" y="-73" font-family="Helvetica,sans-Serif" font-size="10.00">src/d/cc/d_cc_uty.cpp</text>
</a>
</g>
</g>
<!-- Node6&#45;&gt;Node37 -->
<g id="edge20" class="edge">
<title>Node6&#45;&gt;Node37</title>
<path fill="none" stroke="#63b8ff" d="M2538.39,-134.89C2532.05,-133.76 2525.64,-132.76 2519.5,-132 2166.7,-88.53 2071.08,-154.79 1720.5,-96 1706.71,-93.69 1691.74,-89.42 1679.55,-85.46"/>
<polygon fill="#63b8ff" stroke="#63b8ff" points="2537.66,-138.31 2548.14,-136.73 2538.97,-131.43 2537.66,-138.31"/>
</g>
<!-- Node38 -->
<g id="node21" class="node">
<title>Node38</title>
<g id="a_node21"><a xlink:href="d__attention_8cpp.html" target="_top" xlink:title=" ">
<polygon fill="white" stroke="#666666" points="1836,-85 1729,-85 1729,-66 1836,-66 1836,-85"/>
<text text-anchor="middle" x="1782.5" y="-73" font-family="Helvetica,sans-Serif" font-size="10.00">src/d/d_attention.cpp</text>
</a>
</g>
</g>
<!-- Node6&#45;&gt;Node38 -->
<g id="edge21" class="edge">
<title>Node6&#45;&gt;Node38</title>
<path fill="none" stroke="#63b8ff" d="M2538.15,-134.89C2531.89,-133.78 2525.56,-132.77 2519.5,-132 2221.92,-94.07 2140.81,-148.75 1845.5,-96 1832.31,-93.64 1818.02,-89.37 1806.39,-85.42"/>
<polygon fill="#63b8ff" stroke="#63b8ff" points="2537.29,-138.3 2547.77,-136.72 2538.6,-131.42 2537.29,-138.3"/>
</g>
<!-- Node39 -->
<g id="node22" class="node">
<title>Node39</title>
<g id="a_node22"><a xlink:href="d__cam__param_8cpp.html" target="_top" xlink:title=" ">
<polygon fill="white" stroke="#666666" points="1975,-85 1854,-85 1854,-66 1975,-66 1975,-85"/>
<text text-anchor="middle" x="1914.5" y="-73" font-family="Helvetica,sans-Serif" font-size="10.00">src/d/d_cam_param.cpp</text>
</a>
</g>
</g>
<!-- Node6&#45;&gt;Node39 -->
<g id="edge22" class="edge">
<title>Node6&#45;&gt;Node39</title>
<path fill="none" stroke="#63b8ff" d="M2537.9,-134.93C2531.72,-133.82 2525.48,-132.8 2519.5,-132 2283.31,-100.24 2219.4,-136.19 1984.5,-96 1970.08,-93.53 1954.35,-89.3 1941.47,-85.4"/>
<polygon fill="#63b8ff" stroke="#63b8ff" points="2536.92,-138.31 2547.4,-136.74 2538.23,-131.43 2536.92,-138.31"/>
</g>
<!-- Node40 -->
<g id="node23" class="node">
<title>Node40</title>
<g id="a_node23"><a xlink:href="d__event__manager_8cpp.html" target="_top" xlink:title=" ">
<polygon fill="white" stroke="#666666" points="2096,-90.5 1993,-90.5 1993,-60.5 2096,-60.5 2096,-90.5"/>
<text text-anchor="start" x="2001" y="-78.5" font-family="Helvetica,sans-Serif" font-size="10.00">src/d/event/d_event</text>
<text text-anchor="middle" x="2044.5" y="-67.5" font-family="Helvetica,sans-Serif" font-size="10.00">_manager.cpp</text>
</a>
</g>
</g>
<!-- Node6&#45;&gt;Node40 -->
<g id="edge23" class="edge">
<title>Node6&#45;&gt;Node40</title>
<path fill="none" stroke="#63b8ff" d="M2536.96,-134.88C2531.09,-133.81 2525.18,-132.82 2519.5,-132 2336.7,-105.59 2286.58,-132.34 2105.5,-96 2098.96,-94.69 2092.13,-92.92 2085.52,-90.98"/>
<polygon fill="#63b8ff" stroke="#63b8ff" points="2536.17,-138.29 2546.65,-136.73 2537.48,-131.42 2536.17,-138.29"/>
</g>
<!-- Node41 -->
<g id="node24" class="node">
<title>Node41</title>
<g id="a_node24"><a xlink:href="d__kankyo__rain_8cpp.html" target="_top" xlink:title=" ">
<polygon fill="white" stroke="#666666" points="2230.5,-90.5 2114.5,-90.5 2114.5,-60.5 2230.5,-60.5 2230.5,-90.5"/>
<text text-anchor="start" x="2122.5" y="-78.5" font-family="Helvetica,sans-Serif" font-size="10.00">src/d/kankyo/d_kankyo</text>
<text text-anchor="middle" x="2172.5" y="-67.5" font-family="Helvetica,sans-Serif" font-size="10.00">_rain.cpp</text>
</a>
</g>
</g>
<!-- Node6&#45;&gt;Node41 -->
<g id="edge24" class="edge">
<title>Node6&#45;&gt;Node41</title>
<path fill="none" stroke="#63b8ff" d="M2535.81,-134.9C2530.31,-133.87 2524.8,-132.88 2519.5,-132 2395.72,-111.51 2362.33,-121.61 2239.5,-96 2232.74,-94.59 2225.67,-92.84 2218.76,-90.98"/>
<polygon fill="#63b8ff" stroke="#63b8ff" points="2535.02,-138.31 2545.51,-136.78 2536.36,-131.44 2535.02,-138.31"/>
</g>
<!-- Node42 -->
<g id="node25" class="node">
<title>Node42</title>
<g id="a_node25"><a xlink:href="d__map__path__dmap_8cpp.html" target="_top" xlink:title=" ">
<polygon fill="white" stroke="#666666" points="4118.5,-90.5 4002.5,-90.5 4002.5,-60.5 4118.5,-60.5 4118.5,-90.5"/>
<text text-anchor="start" x="4010.5" y="-78.5" font-family="Helvetica,sans-Serif" font-size="10.00">src/d/map/d_map_path</text>
<text text-anchor="middle" x="4060.5" y="-67.5" font-family="Helvetica,sans-Serif" font-size="10.00">_dmap.cpp</text>
</a>
</g>
</g>
<!-- Node6&#45;&gt;Node42 -->
<g id="edge25" class="edge">
<title>Node6&#45;&gt;Node42</title>
<path fill="none" stroke="#63b8ff" d="M2660.32,-144.49C2928.37,-138.69 3861.65,-117.2 3993.5,-96 4001.04,-94.79 4008.92,-92.99 4016.52,-90.97"/>
<polygon fill="#63b8ff" stroke="#63b8ff" points="2660.62,-140.98 2650.7,-144.69 2660.77,-147.98 2660.62,-140.98"/>
</g>
<!-- Node43 -->
<g id="node26" class="node">
<title>Node43</title>
<g id="a_node26"><a xlink:href="d__menu__window_8cpp.html" target="_top" xlink:title=" ">
<polygon fill="white" stroke="#666666" points="1035,-85 876,-85 876,-66 1035,-66 1035,-85"/>
<text text-anchor="middle" x="955.5" y="-73" font-family="Helvetica,sans-Serif" font-size="10.00">src/d/menu/d_menu_window.cpp</text>
</a>
</g>
</g>
<!-- Node6&#45;&gt;Node43 -->
<g id="edge26" class="edge">
<title>Node6&#45;&gt;Node43</title>
<path fill="none" stroke="#63b8ff" d="M2539.35,-134.94C2532.71,-133.77 2525.96,-132.73 2519.5,-132 1907.23,-62.47 1748.3,-137.59 1133.5,-96 1097.68,-93.58 1057.94,-89.37 1025.12,-85.48"/>
<polygon fill="#63b8ff" stroke="#63b8ff" points="2538.4,-138.32 2548.88,-136.75 2539.71,-131.45 2538.4,-138.32"/>
</g>
<!-- Node44 -->
<g id="node27" class="node">
<title>Node44</title>
<g id="a_node27"><a xlink:href="d__s__play_8cpp.html" target="_top" xlink:title=" ">
<polygon fill="white" stroke="#666666" points="2354.5,-85 2248.5,-85 2248.5,-66 2354.5,-66 2354.5,-85"/>
<text text-anchor="middle" x="2301.5" y="-73" font-family="Helvetica,sans-Serif" font-size="10.00">src/d/s/d_s_play.cpp</text>
</a>
</g>
</g>
<!-- Node6&#45;&gt;Node44 -->
<g id="edge27" class="edge">
<title>Node6&#45;&gt;Node44</title>
<path fill="none" stroke="#63b8ff" d="M2535.4,-134.67C2479.79,-122.7 2396.2,-104.43 2364.5,-96 2352.66,-92.85 2339.71,-88.93 2328.65,-85.43"/>
<polygon fill="#63b8ff" stroke="#63b8ff" points="2534.48,-138.05 2544.99,-136.73 2535.95,-131.2 2534.48,-138.05"/>
</g>
<!-- Node45 -->
<g id="node28" class="node">
<title>Node45</title>
<g id="a_node28"><a xlink:href="f__op__actor__mng_8cpp.html" target="_top" xlink:title=" ">
<polygon fill="white" stroke="#666666" points="2474,-90.5 2373,-90.5 2373,-60.5 2474,-60.5 2474,-90.5"/>
<text text-anchor="start" x="2381" y="-78.5" font-family="Helvetica,sans-Serif" font-size="10.00">src/f_op/f_op_actor</text>
<text text-anchor="middle" x="2423.5" y="-67.5" font-family="Helvetica,sans-Serif" font-size="10.00">_mng.cpp</text>
</a>
</g>
</g>
<!-- Node6&#45;&gt;Node45 -->
<g id="edge28" class="edge">
<title>Node6&#45;&gt;Node45</title>
<path fill="none" stroke="#63b8ff" d="M2556.73,-132.62C2528.38,-120.68 2486.97,-103.23 2457.86,-90.97"/>
<polygon fill="#63b8ff" stroke="#63b8ff" points="2555.3,-135.81 2565.87,-136.47 2558.01,-129.36 2555.3,-135.81"/>
</g>
<!-- Node46 -->
<g id="node29" class="node">
<title>Node46</title>
<g id="a_node29"><a xlink:href="m__Do__graphic_8cpp.html" target="_top" xlink:title=" ">
<polygon fill="white" stroke="#666666" points="1430.5,-85 1288.5,-85 1288.5,-66 1430.5,-66 1430.5,-85"/>
<text text-anchor="middle" x="1359.5" y="-73" font-family="Helvetica,sans-Serif" font-size="10.00">src/m_Do/m_Do_graphic.cpp</text>
</a>
</g>
</g>
<!-- Node6&#45;&gt;Node46 -->
<g id="edge29" class="edge">
<title>Node6&#45;&gt;Node46</title>
<path fill="none" stroke="#63b8ff" d="M2539.11,-134.94C2532.54,-133.78 2525.88,-132.75 2519.5,-132 2042.94,-76.1 1915.97,-160.48 1440.5,-96 1423.73,-93.73 1405.37,-89.46 1390.38,-85.49"/>
<polygon fill="#63b8ff" stroke="#63b8ff" points="2538.04,-138.3 2548.51,-136.73 2539.34,-131.43 2538.04,-138.3"/>
</g>
<!-- Node7&#45;&gt;Node9 -->
<g id="edge7" class="edge">
<title>Node7&#45;&gt;Node9</title>
<path fill="none" stroke="#63b8ff" d="M2576.34,-56.4C2568.19,-44.27 2557.83,-28.84 2551.43,-19.32"/>
<polygon fill="#63b8ff" stroke="#63b8ff" points="2573.19,-58 2581.68,-64.34 2579.01,-54.09 2573.19,-58"/>
</g>
<!-- Node48 -->
<g id="node31" class="node">
<title>Node48</title>
<g id="a_node31"><a xlink:href="f__op__camera__mng_8h.html" target="_top" xlink:title=" ">
<polygon fill="#fff0f0" stroke="red" points="1270.5,-90.5 1142.5,-90.5 1142.5,-60.5 1270.5,-60.5 1270.5,-90.5"/>
<text text-anchor="start" x="1150.5" y="-78.5" font-family="Helvetica,sans-Serif" font-size="10.00">include/f_op/f_op_camera</text>
<text text-anchor="middle" x="1206.5" y="-67.5" font-family="Helvetica,sans-Serif" font-size="10.00">_mng.h</text>
</a>
</g>
</g>
<!-- Node47&#45;&gt;Node48 -->
<g id="edge31" class="edge">
<title>Node47&#45;&gt;Node48</title>
<path fill="none" stroke="#63b8ff" d="M2409.03,-134.8C2403.16,-133.69 2397.21,-132.71 2391.5,-132 1900.81,-70.91 1768.67,-168.28 1279.5,-96 1271.32,-94.79 1262.75,-93 1254.47,-90.98"/>
<polygon fill="#63b8ff" stroke="#63b8ff" points="2408.17,-138.19 2418.67,-136.76 2409.57,-131.33 2408.17,-138.19"/>
</g>
<!-- Node212&#45;&gt;Node42 -->
<g id="edge36" class="edge">
<title>Node212&#45;&gt;Node42</title>
<path fill="none" stroke="#63b8ff" d="M3458.17,-144.81C3569.81,-141.86 3801.28,-131.58 3993.5,-96 4000.65,-94.68 4008.12,-92.9 4015.38,-90.96"/>
<polygon fill="#63b8ff" stroke="#63b8ff" points="3458.19,-141.31 3448.28,-145.06 3458.37,-148.31 3458.19,-141.31"/>
</g>
<!-- Node216&#45;&gt;Node43 -->
<g id="edge38" class="edge">
<title>Node216&#45;&gt;Node43</title>
<path fill="none" stroke="#63b8ff" d="M2250.65,-131.81C1756.85,-75.14 1626.53,-130.88 1133.5,-96 1097.99,-93.49 1058.64,-89.32 1025.98,-85.48"/>
<polygon fill="#63b8ff" stroke="#63b8ff" points="2250.17,-135.28 2260.51,-132.95 2250.98,-128.33 2250.17,-135.28"/>
</g>
<!-- Node216&#45;&gt;Node46 -->
<g id="edge39" class="edge">
<title>Node216&#45;&gt;Node46</title>
<path fill="none" stroke="#63b8ff" d="M2250.79,-131.81C1892.52,-89.1 1794.96,-146.04 1440.5,-96 1423.74,-93.63 1405.38,-89.36 1390.39,-85.41"/>
<polygon fill="#63b8ff" stroke="#63b8ff" points="2250.15,-135.26 2260.5,-132.99 2251,-128.31 2250.15,-135.26"/>
</g>
<!-- Node217&#45;&gt;Node43 -->
<g id="edge41" class="edge">
<title>Node217&#45;&gt;Node43</title>
<path fill="none" stroke="#63b8ff" d="M802.45,-127.89C843.07,-114.25 897.02,-96.13 928.83,-85.46"/>
<polygon fill="#63b8ff" stroke="#63b8ff" points="801.44,-124.53 793.08,-131.03 803.67,-131.17 801.44,-124.53"/>
</g>
<!-- Node218&#45;&gt;Node43 -->
<g id="edge43" class="edge">
<title>Node218&#45;&gt;Node43</title>
<path fill="none" stroke="#63b8ff" d="M1974.64,-131.79C1602.84,-87.28 1504.12,-124.17 1133.5,-96 1098.47,-93.34 1059.69,-89.23 1027.28,-85.46"/>
<polygon fill="#63b8ff" stroke="#63b8ff" points="1974.16,-135.26 1984.5,-132.98 1975,-128.31 1974.16,-135.26"/>
</g>
<!-- Node219&#45;&gt;Node43 -->
<g id="edge45" class="edge">
<title>Node219&#45;&gt;Node43</title>
<path fill="none" stroke="#63b8ff" d="M2112.74,-131.81C1679.87,-81.21 1565.36,-127.53 1133.5,-96 1098.15,-93.42 1058.99,-89.27 1026.42,-85.46"/>
<polygon fill="#63b8ff" stroke="#63b8ff" points="2112.16,-135.27 2122.51,-132.97 2112.98,-128.32 2112.16,-135.27"/>
</g>
<!-- Node221&#45;&gt;Node43 -->
<g id="edge47" class="edge">
<title>Node221&#45;&gt;Node43</title>
<path fill="none" stroke="#63b8ff" d="M406.02,-131.72C579.07,-105.99 770.35,-89.84 875.66,-82.01"/>
<polygon fill="#63b8ff" stroke="#63b8ff" points="405.51,-128.26 396.14,-133.2 406.55,-135.18 405.51,-128.26"/>
</g>
<!-- Node222&#45;&gt;Node43 -->
<g id="edge49" class="edge">
<title>Node222&#45;&gt;Node43</title>
<path fill="none" stroke="#63b8ff" d="M543.68,-131.7C665.6,-111.45 795.64,-95.06 876.67,-85.48"/>
<polygon fill="#63b8ff" stroke="#63b8ff" points="543.44,-128.19 534.16,-133.3 544.6,-135.1 543.44,-128.19"/>
</g>
<!-- Node224&#45;&gt;Node43 -->
<g id="edge51" class="edge">
<title>Node224&#45;&gt;Node43</title>
<path fill="none" stroke="#63b8ff" d="M908.85,-123.49C921.82,-110.43 937.41,-94.72 946.88,-85.18"/>
<polygon fill="#63b8ff" stroke="#63b8ff" points="906.42,-120.96 901.86,-130.53 911.39,-125.89 906.42,-120.96"/>
</g>
<!-- Node226&#45;&gt;Node43 -->
<g id="edge53" class="edge">
<title>Node226&#45;&gt;Node43</title>
<path fill="none" stroke="#63b8ff" d="M1002.15,-123.49C989.18,-110.43 973.59,-94.72 964.12,-85.18"/>
<polygon fill="#63b8ff" stroke="#63b8ff" points="999.61,-125.89 1009.14,-130.53 1004.58,-120.96 999.61,-125.89"/>
</g>
<!-- Node227&#45;&gt;Node43 -->
<g id="edge55" class="edge">
<title>Node227&#45;&gt;Node43</title>
<path fill="none" stroke="#63b8ff" d="M681.86,-131.52C768.93,-113.94 858.73,-95.91 911.04,-85.42"/>
<polygon fill="#63b8ff" stroke="#63b8ff" points="681.3,-128.07 672.19,-133.48 682.69,-134.93 681.3,-128.07"/>
</g>
</g>
</svg>
