<?xml version="1.0" encoding="UTF-8" standalone="no"?>
<!DOCTYPE svg PUBLIC "-//W3C//DTD SVG 1.1//EN"
 "http://www.w3.org/Graphics/SVG/1.1/DTD/svg11.dtd">
<!-- Generated by graphviz version 7.0.5 (20221223.1930)
 -->
<!-- Title: include/JSystem/J2DGraph/J2DScreen.h Pages: 1 -->
<svg width="4262pt" height="357pt"
 viewBox="0.00 0.00 4262.00 357.00" xmlns="http://www.w3.org/2000/svg" xmlns:xlink="http://www.w3.org/1999/xlink">
<g id="graph0" class="graph" transform="scale(1 1) rotate(0) translate(4 353)">
<title>include/JSystem/J2DGraph/J2DScreen.h</title>
<!-- Node1 -->
<g id="node1" class="node">
<title>Node1</title>
<g id="a_node1"><a xlink:title=" ">
<polygon fill="#999999" stroke="#666666" points="2798.5,-349 2663.5,-349 2663.5,-319 2798.5,-319 2798.5,-349"/>
<text text-anchor="start" x="2671.5" y="-337" font-family="Helvetica,sans-Serif" font-size="10.00">include/JSystem/J2DGraph</text>
<text text-anchor="middle" x="2731" y="-326" font-family="Helvetica,sans-Serif" font-size="10.00">/J2DScreen.h</text>
</a>
</g>
</g>
<!-- Node2 -->
<g id="node2" class="node">
<title>Node2</title>
<g id="a_node2"><a xlink:href="d__select__icon_8h.html" target="_top" xlink:title=" ">
<polygon fill="white" stroke="#666666" points="1233.5,-283 1138.5,-283 1138.5,-253 1233.5,-253 1233.5,-283"/>
<text text-anchor="start" x="1146.5" y="-271" font-family="Helvetica,sans-Serif" font-size="10.00">include/d/d_select</text>
<text text-anchor="middle" x="1186" y="-260" font-family="Helvetica,sans-Serif" font-size="10.00">_icon.h</text>
</a>
</g>
</g>
<!-- Node1&#45;&gt;Node2 -->
<g id="edge1" class="edge">
<title>Node1&#45;&gt;Node2</title>
<path fill="none" stroke="#63b8ff" d="M2651.88,-332.55C2384.83,-330.68 1518.06,-321.7 1242,-283 1239.32,-282.62 1236.58,-282.17 1233.83,-281.66"/>
<polygon fill="#63b8ff" stroke="#63b8ff" points="2651.85,-336.05 2661.88,-332.62 2651.9,-329.05 2651.85,-336.05"/>
</g>
<!-- Node22 -->
<g id="node22" class="node">
<title>Node22</title>
<g id="a_node22"><a xlink:href="d__a__boomerang_8h.html" target="_top" xlink:title=" ">
<polygon fill="white" stroke="#666666" points="1400.5,-283 1251.5,-283 1251.5,-253 1400.5,-253 1400.5,-283"/>
<text text-anchor="start" x="1259.5" y="-271" font-family="Helvetica,sans-Serif" font-size="10.00">include/rel/d/a/d_a</text>
<text text-anchor="middle" x="1326" y="-260" font-family="Helvetica,sans-Serif" font-size="10.00">_boomerang/d_a_boomerang.h</text>
</a>
</g>
</g>
<!-- Node1&#45;&gt;Node22 -->
<g id="edge21" class="edge">
<title>Node1&#45;&gt;Node22</title>
<path fill="none" stroke="#63b8ff" d="M2651.81,-333.51C2446.29,-334.07 1879.18,-330.78 1410,-283 1406.91,-282.69 1403.76,-282.33 1400.59,-281.94"/>
<polygon fill="#63b8ff" stroke="#63b8ff" points="2651.57,-337.01 2661.56,-333.48 2651.55,-330.01 2651.57,-337.01"/>
</g>
<!-- Node24 -->
<g id="node24" class="node">
<title>Node24</title>
<g id="a_node24"><a xlink:href="J2DAnimation_8cpp.html" target="_top" xlink:title=" ">
<polygon fill="white" stroke="#666666" points="1537.5,-283 1418.5,-283 1418.5,-253 1537.5,-253 1537.5,-283"/>
<text text-anchor="start" x="1426.5" y="-271" font-family="Helvetica,sans-Serif" font-size="10.00">libs/JSystem/J2DGraph</text>
<text text-anchor="middle" x="1478" y="-260" font-family="Helvetica,sans-Serif" font-size="10.00">/J2DAnimation.cpp</text>
</a>
</g>
</g>
<!-- Node1&#45;&gt;Node24 -->
<g id="edge23" class="edge">
<title>Node1&#45;&gt;Node24</title>
<path fill="none" stroke="#63b8ff" d="M2651.89,-331.29C2422.83,-326.08 1761.77,-309.16 1547,-283 1543.97,-282.63 1540.87,-282.2 1537.74,-281.72"/>
<polygon fill="#63b8ff" stroke="#63b8ff" points="2651.52,-334.78 2661.6,-331.51 2651.68,-327.79 2651.52,-334.78"/>
</g>
<!-- Node25 -->
<g id="node25" class="node">
<title>Node25</title>
<g id="a_node25"><a xlink:href="J2DPane_8cpp.html" target="_top" xlink:title=" ">
<polygon fill="white" stroke="#666666" points="1674.5,-283 1555.5,-283 1555.5,-253 1674.5,-253 1674.5,-283"/>
<text text-anchor="start" x="1563.5" y="-271" font-family="Helvetica,sans-Serif" font-size="10.00">libs/JSystem/J2DGraph</text>
<text text-anchor="middle" x="1615" y="-260" font-family="Helvetica,sans-Serif" font-size="10.00">/J2DPane.cpp</text>
</a>
</g>
</g>
<!-- Node1&#45;&gt;Node25 -->
<g id="edge24" class="edge">
<title>Node1&#45;&gt;Node25</title>
<path fill="none" stroke="#63b8ff" d="M2651.6,-333.33C2476.28,-333.15 2043.19,-327.75 1684,-283 1680.97,-282.62 1677.87,-282.18 1674.75,-281.7"/>
<polygon fill="#63b8ff" stroke="#63b8ff" points="2651.5,-336.83 2661.5,-333.33 2651.51,-329.83 2651.5,-336.83"/>
</g>
<!-- Node26 -->
<g id="node26" class="node">
<title>Node26</title>
<g id="a_node26"><a xlink:href="J2DPicture_8cpp.html" target="_top" xlink:title=" ">
<polygon fill="white" stroke="#666666" points="1811.5,-283 1692.5,-283 1692.5,-253 1811.5,-253 1811.5,-283"/>
<text text-anchor="start" x="1700.5" y="-271" font-family="Helvetica,sans-Serif" font-size="10.00">libs/JSystem/J2DGraph</text>
<text text-anchor="middle" x="1752" y="-260" font-family="Helvetica,sans-Serif" font-size="10.00">/J2DPicture.cpp</text>
</a>
</g>
</g>
<!-- Node1&#45;&gt;Node26 -->
<g id="edge25" class="edge">
<title>Node1&#45;&gt;Node26</title>
<path fill="none" stroke="#63b8ff" d="M2651.55,-332.51C2492.98,-330.67 2126.26,-322.14 1821,-283 1817.97,-282.61 1814.87,-282.17 1811.75,-281.68"/>
<polygon fill="#63b8ff" stroke="#63b8ff" points="2651.5,-336.01 2661.54,-332.62 2651.58,-329.01 2651.5,-336.01"/>
</g>
<!-- Node27 -->
<g id="node27" class="node">
<title>Node27</title>
<g id="a_node27"><a xlink:href="J2DPictureEx_8cpp.html" target="_top" xlink:title=" ">
<polygon fill="white" stroke="#666666" points="1948.5,-283 1829.5,-283 1829.5,-253 1948.5,-253 1948.5,-283"/>
<text text-anchor="start" x="1837.5" y="-271" font-family="Helvetica,sans-Serif" font-size="10.00">libs/JSystem/J2DGraph</text>
<text text-anchor="middle" x="1889" y="-260" font-family="Helvetica,sans-Serif" font-size="10.00">/J2DPictureEx.cpp</text>
</a>
</g>
</g>
<!-- Node1&#45;&gt;Node27 -->
<g id="edge26" class="edge">
<title>Node1&#45;&gt;Node27</title>
<path fill="none" stroke="#63b8ff" d="M2651.78,-331.42C2511.4,-327.82 2210.03,-316.56 1958,-283 1954.97,-282.6 1951.88,-282.14 1948.76,-281.64"/>
<polygon fill="#63b8ff" stroke="#63b8ff" points="2651.63,-334.91 2661.72,-331.66 2651.81,-327.92 2651.63,-334.91"/>
</g>
<!-- Node28 -->
<g id="node28" class="node">
<title>Node28</title>
<g id="a_node28"><a xlink:href="J2DScreen_8cpp.html" target="_top" xlink:title=" ">
<polygon fill="white" stroke="#666666" points="2085.5,-283 1966.5,-283 1966.5,-253 2085.5,-253 2085.5,-283"/>
<text text-anchor="start" x="1974.5" y="-271" font-family="Helvetica,sans-Serif" font-size="10.00">libs/JSystem/J2DGraph</text>
<text text-anchor="middle" x="2026" y="-260" font-family="Helvetica,sans-Serif" font-size="10.00">/J2DScreen.cpp</text>
</a>
</g>
</g>
<!-- Node1&#45;&gt;Node28 -->
<g id="edge27" class="edge">
<title>Node1&#45;&gt;Node28</title>
<path fill="none" stroke="#63b8ff" d="M2652.1,-329.89C2531.56,-324.44 2294.5,-310.97 2095,-283 2091.97,-282.58 2088.88,-282.1 2085.76,-281.59"/>
<polygon fill="#63b8ff" stroke="#63b8ff" points="2651.74,-333.38 2661.89,-330.32 2652.05,-326.38 2651.74,-333.38"/>
</g>
<!-- Node29 -->
<g id="node29" class="node">
<title>Node29</title>
<g id="a_node29"><a xlink:href="d__bright__check_8cpp.html" target="_top" xlink:title=" ">
<polygon fill="white" stroke="#666666" points="2228.5,-277.5 2103.5,-277.5 2103.5,-258.5 2228.5,-258.5 2228.5,-277.5"/>
<text text-anchor="middle" x="2166" y="-265.5" font-family="Helvetica,sans-Serif" font-size="10.00">src/d/d_bright_check.cpp</text>
</a>
</g>
</g>
<!-- Node1&#45;&gt;Node29 -->
<g id="edge28" class="edge">
<title>Node1&#45;&gt;Node29</title>
<path fill="none" stroke="#63b8ff" d="M2652.14,-327.23C2554.57,-319.57 2383.52,-304.48 2238,-283 2228.43,-281.59 2218.19,-279.78 2208.53,-277.93"/>
<polygon fill="#63b8ff" stroke="#63b8ff" points="2651.63,-330.7 2661.87,-327.98 2652.17,-323.72 2651.63,-330.7"/>
</g>
<!-- Node30 -->
<g id="node30" class="node">
<title>Node30</title>
<g id="a_node30"><a xlink:href="d__drawlist_8cpp.html" target="_top" xlink:title=" ">
<polygon fill="white" stroke="#666666" points="2351,-277.5 2247,-277.5 2247,-258.5 2351,-258.5 2351,-277.5"/>
<text text-anchor="middle" x="2299" y="-265.5" font-family="Helvetica,sans-Serif" font-size="10.00">src/d/d_drawlist.cpp</text>
</a>
</g>
</g>
<!-- Node1&#45;&gt;Node30 -->
<g id="edge29" class="edge">
<title>Node1&#45;&gt;Node30</title>
<path fill="none" stroke="#63b8ff" d="M2651.97,-324.36C2576.84,-315.66 2460.82,-300.98 2361,-283 2352.96,-281.55 2344.39,-279.77 2336.27,-277.97"/>
<polygon fill="#63b8ff" stroke="#63b8ff" points="2651.37,-327.81 2661.7,-325.47 2652.17,-320.86 2651.37,-327.81"/>
</g>
<!-- Node31 -->
<g id="node31" class="node">
<title>Node31</title>
<g id="a_node31"><a xlink:href="d__gameover_8cpp.html" target="_top" xlink:title=" ">
<polygon fill="white" stroke="#666666" points="2482.5,-277.5 2369.5,-277.5 2369.5,-258.5 2482.5,-258.5 2482.5,-277.5"/>
<text text-anchor="middle" x="2426" y="-265.5" font-family="Helvetica,sans-Serif" font-size="10.00">src/d/d_gameover.cpp</text>
</a>
</g>
</g>
<!-- Node1&#45;&gt;Node31 -->
<g id="edge30" class="edge">
<title>Node1&#45;&gt;Node31</title>
<path fill="none" stroke="#63b8ff" d="M2652.02,-316.53C2605.45,-306.81 2545.36,-294.24 2492,-283 2484.32,-281.38 2476.14,-279.65 2468.25,-277.98"/>
<polygon fill="#63b8ff" stroke="#63b8ff" points="2651.27,-319.95 2661.77,-318.57 2652.7,-313.1 2651.27,-319.95"/>
</g>
<!-- Node32 -->
<g id="node32" class="node">
<title>Node32</title>
<g id="a_node32"><a xlink:href="d__kantera__icon__meter_8cpp.html" target="_top" xlink:title=" ">
<polygon fill="white" stroke="#666666" points="2607.5,-283 2500.5,-283 2500.5,-253 2607.5,-253 2607.5,-283"/>
<text text-anchor="start" x="2508.5" y="-271" font-family="Helvetica,sans-Serif" font-size="10.00">src/d/d_kantera_icon</text>
<text text-anchor="middle" x="2554" y="-260" font-family="Helvetica,sans-Serif" font-size="10.00">_meter.cpp</text>
</a>
</g>
</g>
<!-- Node1&#45;&gt;Node32 -->
<g id="edge31" class="edge">
<title>Node1&#45;&gt;Node32</title>
<path fill="none" stroke="#63b8ff" d="M2680.68,-314.8C2653.17,-304.86 2619.58,-292.71 2593.9,-283.43"/>
<polygon fill="#63b8ff" stroke="#63b8ff" points="2679.26,-318.01 2689.85,-318.12 2681.64,-311.43 2679.26,-318.01"/>
</g>
<!-- Node33 -->
<g id="node33" class="node">
<title>Node33</title>
<g id="a_node33"><a xlink:href="d__scope_8cpp.html" target="_top" xlink:title=" ">
<polygon fill="white" stroke="#666666" points="2722,-277.5 2626,-277.5 2626,-258.5 2722,-258.5 2722,-277.5"/>
<text text-anchor="middle" x="2674" y="-265.5" font-family="Helvetica,sans-Serif" font-size="10.00">src/d/d_scope.cpp</text>
</a>
</g>
</g>
<!-- Node1&#45;&gt;Node33 -->
<g id="edge32" class="edge">
<title>Node1&#45;&gt;Node33</title>
<path fill="none" stroke="#63b8ff" d="M2710.76,-310.28C2700.78,-299.07 2689.31,-286.19 2681.88,-277.84"/>
<polygon fill="#63b8ff" stroke="#63b8ff" points="2708.08,-312.53 2717.34,-317.67 2713.31,-307.87 2708.08,-312.53"/>
</g>
<!-- Node34 -->
<g id="node34" class="node">
<title>Node34</title>
<g id="a_node34"><a xlink:href="d__file__sel__info_8cpp.html" target="_top" xlink:title=" ">
<polygon fill="white" stroke="#666666" points="2837.5,-283 2740.5,-283 2740.5,-253 2837.5,-253 2837.5,-283"/>
<text text-anchor="start" x="2748.5" y="-271" font-family="Helvetica,sans-Serif" font-size="10.00">src/d/file/d_file_sel</text>
<text text-anchor="middle" x="2789" y="-260" font-family="Helvetica,sans-Serif" font-size="10.00">_info.cpp</text>
</a>
</g>
</g>
<!-- Node1&#45;&gt;Node34 -->
<g id="edge33" class="edge">
<title>Node1&#45;&gt;Node34</title>
<path fill="none" stroke="#63b8ff" d="M2751.37,-310.53C2759.61,-301.43 2768.89,-291.19 2776.16,-283.16"/>
<polygon fill="#63b8ff" stroke="#63b8ff" points="2749.01,-307.91 2744.89,-317.67 2754.2,-312.62 2749.01,-307.91"/>
</g>
<!-- Node35 -->
<g id="node35" class="node">
<title>Node35</title>
<g id="a_node35"><a xlink:href="d__file__sel__warning_8cpp.html" target="_top" xlink:title=" ">
<polygon fill="white" stroke="#666666" points="2952.5,-283 2855.5,-283 2855.5,-253 2952.5,-253 2952.5,-283"/>
<text text-anchor="start" x="2863.5" y="-271" font-family="Helvetica,sans-Serif" font-size="10.00">src/d/file/d_file_sel</text>
<text text-anchor="middle" x="2904" y="-260" font-family="Helvetica,sans-Serif" font-size="10.00">_warning.cpp</text>
</a>
</g>
</g>
<!-- Node1&#45;&gt;Node35 -->
<g id="edge34" class="edge">
<title>Node1&#45;&gt;Node35</title>
<path fill="none" stroke="#63b8ff" d="M2780.54,-314.67C2807.36,-304.75 2840.02,-292.67 2865.01,-283.43"/>
<polygon fill="#63b8ff" stroke="#63b8ff" points="2779.41,-311.36 2771.24,-318.11 2781.84,-317.92 2779.41,-311.36"/>
</g>
<!-- Node36 -->
<g id="node36" class="node">
<title>Node36</title>
<g id="a_node36"><a xlink:href="d__meter2__draw_8cpp.html" target="_top" xlink:title=" ">
<polygon fill="white" stroke="#666666" points="3081,-283 2971,-283 2971,-253 3081,-253 3081,-283"/>
<text text-anchor="start" x="2979" y="-271" font-family="Helvetica,sans-Serif" font-size="10.00">src/d/meter/d_meter2</text>
<text text-anchor="middle" x="3026" y="-260" font-family="Helvetica,sans-Serif" font-size="10.00">_draw.cpp</text>
</a>
</g>
</g>
<!-- Node1&#45;&gt;Node36 -->
<g id="edge35" class="edge">
<title>Node1&#45;&gt;Node36</title>
<path fill="none" stroke="#63b8ff" d="M2809.08,-316.14C2853.84,-306.47 2911.08,-294.08 2962,-283 2964.89,-282.37 2967.85,-281.73 2970.84,-281.07"/>
<polygon fill="#63b8ff" stroke="#63b8ff" points="2808.49,-312.69 2799.46,-318.22 2809.97,-319.53 2808.49,-312.69"/>
</g>
<!-- Node37 -->
<g id="node37" class="node">
<title>Node37</title>
<g id="a_node37"><a xlink:href="d__pane__class_8cpp.html" target="_top" xlink:title=" ">
<polygon fill="white" stroke="#666666" points="3242.5,-277.5 3099.5,-277.5 3099.5,-258.5 3242.5,-258.5 3242.5,-277.5"/>
<text text-anchor="middle" x="3171" y="-265.5" font-family="Helvetica,sans-Serif" font-size="10.00">src/d/pane/d_pane_class.cpp</text>
</a>
</g>
</g>
<!-- Node1&#45;&gt;Node37 -->
<g id="edge36" class="edge">
<title>Node1&#45;&gt;Node37</title>
<path fill="none" stroke="#63b8ff" d="M2810.27,-322.72C2883.09,-313.09 2993.95,-297.99 3090,-283 3099.87,-281.46 3110.4,-279.72 3120.49,-277.99"/>
<polygon fill="#63b8ff" stroke="#63b8ff" points="2809.88,-319.24 2800.42,-324.02 2810.79,-326.18 2809.88,-319.24"/>
</g>
<!-- Node38 -->
<g id="node38" class="node">
<title>Node38</title>
<g id="a_node38"><a xlink:href="d__pane__class__alpha_8cpp.html" target="_top" xlink:title=" ">
<polygon fill="white" stroke="#666666" points="3385.5,-283 3260.5,-283 3260.5,-253 3385.5,-253 3385.5,-283"/>
<text text-anchor="start" x="3268.5" y="-271" font-family="Helvetica,sans-Serif" font-size="10.00">src/d/pane/d_pane_class</text>
<text text-anchor="middle" x="3323" y="-260" font-family="Helvetica,sans-Serif" font-size="10.00">_alpha.cpp</text>
</a>
</g>
</g>
<!-- Node1&#45;&gt;Node38 -->
<g id="edge37" class="edge">
<title>Node1&#45;&gt;Node38</title>
<path fill="none" stroke="#63b8ff" d="M2810.17,-327.85C2912.53,-320.64 3096.17,-305.78 3252,-283 3254.73,-282.6 3257.52,-282.17 3260.34,-281.71"/>
<polygon fill="#63b8ff" stroke="#63b8ff" points="2809.94,-324.36 2800.21,-328.55 2810.43,-331.34 2809.94,-324.36"/>
</g>
<!-- Node39 -->
<g id="node39" class="node">
<title>Node39</title>
<g id="a_node39"><a xlink:href="d__msg__scrn__arrow_8cpp.html" target="_top" xlink:title=" ">
<polygon fill="white" stroke="#666666" points="3510,-283 3404,-283 3404,-253 3510,-253 3510,-283"/>
<text text-anchor="start" x="3412" y="-271" font-family="Helvetica,sans-Serif" font-size="10.00">src/msg/scrn/d_msg</text>
<text text-anchor="middle" x="3457" y="-260" font-family="Helvetica,sans-Serif" font-size="10.00">_scrn_arrow.cpp</text>
</a>
</g>
</g>
<!-- Node1&#45;&gt;Node39 -->
<g id="edge38" class="edge">
<title>Node1&#45;&gt;Node39</title>
<path fill="none" stroke="#63b8ff" d="M2810.08,-330.8C2934.95,-326.48 3185.18,-314.42 3395,-283 3397.84,-282.58 3400.74,-282.09 3403.66,-281.57"/>
<polygon fill="#63b8ff" stroke="#63b8ff" points="2810.15,-327.3 2800.27,-331.13 2810.38,-334.29 2810.15,-327.3"/>
</g>
<!-- Node40 -->
<g id="node40" class="node">
<title>Node40</title>
<g id="a_node40"><a xlink:href="d__msg__scrn__base_8cpp.html" target="_top" xlink:title=" ">
<polygon fill="white" stroke="#666666" points="3634,-283 3528,-283 3528,-253 3634,-253 3634,-283"/>
<text text-anchor="start" x="3536" y="-271" font-family="Helvetica,sans-Serif" font-size="10.00">src/msg/scrn/d_msg</text>
<text text-anchor="middle" x="3581" y="-260" font-family="Helvetica,sans-Serif" font-size="10.00">_scrn_base.cpp</text>
</a>
</g>
</g>
<!-- Node1&#45;&gt;Node40 -->
<g id="edge39" class="edge">
<title>Node1&#45;&gt;Node40</title>
<path fill="none" stroke="#63b8ff" d="M2810.03,-332.13C2952.47,-329.63 3261.39,-320.02 3519,-283 3521.84,-282.59 3524.74,-282.12 3527.67,-281.61"/>
<polygon fill="#63b8ff" stroke="#63b8ff" points="2810.29,-328.62 2800.35,-332.29 2810.4,-335.62 2810.29,-328.62"/>
</g>
<!-- Node41 -->
<g id="node41" class="node">
<title>Node41</title>
<g id="a_node41"><a xlink:href="d__msg__scrn__boss_8cpp.html" target="_top" xlink:title=" ">
<polygon fill="white" stroke="#666666" points="3758,-283 3652,-283 3652,-253 3758,-253 3758,-283"/>
<text text-anchor="start" x="3660" y="-271" font-family="Helvetica,sans-Serif" font-size="10.00">src/msg/scrn/d_msg</text>
<text text-anchor="middle" x="3705" y="-260" font-family="Helvetica,sans-Serif" font-size="10.00">_scrn_boss.cpp</text>
</a>
</g>
</g>
<!-- Node1&#45;&gt;Node41 -->
<g id="edge40" class="edge">
<title>Node1&#45;&gt;Node41</title>
<path fill="none" stroke="#63b8ff" d="M2809.93,-333.1C2968.56,-332.33 3337.02,-325.63 3643,-283 3645.84,-282.6 3648.75,-282.14 3651.67,-281.64"/>
<polygon fill="#63b8ff" stroke="#63b8ff" points="2810.37,-329.6 2800.39,-333.14 2810.4,-336.6 2810.37,-329.6"/>
</g>
<!-- Node42 -->
<g id="node42" class="node">
<title>Node42</title>
<g id="a_node42"><a xlink:href="d__msg__scrn__explain_8cpp.html" target="_top" xlink:title=" ">
<polygon fill="white" stroke="#666666" points="3882,-283 3776,-283 3776,-253 3882,-253 3882,-283"/>
<text text-anchor="start" x="3784" y="-271" font-family="Helvetica,sans-Serif" font-size="10.00">src/msg/scrn/d_msg</text>
<text text-anchor="middle" x="3829" y="-260" font-family="Helvetica,sans-Serif" font-size="10.00">_scrn_explain.cpp</text>
</a>
</g>
</g>
<!-- Node1&#45;&gt;Node42 -->
<g id="edge41" class="edge">
<title>Node1&#45;&gt;Node42</title>
<path fill="none" stroke="#63b8ff" d="M2810.29,-333.85C2984.32,-334.7 3412.53,-331.2 3767,-283 3769.84,-282.61 3772.75,-282.16 3775.67,-281.66"/>
<polygon fill="#63b8ff" stroke="#63b8ff" points="2810.48,-330.35 2800.46,-333.8 2810.44,-337.35 2810.48,-330.35"/>
</g>
<!-- Node43 -->
<g id="node43" class="node">
<title>Node43</title>
<g id="a_node43"><a xlink:href="d__msg__scrn__place_8cpp.html" target="_top" xlink:title=" ">
<polygon fill="white" stroke="#666666" points="4006,-283 3900,-283 3900,-253 4006,-253 4006,-283"/>
<text text-anchor="start" x="3908" y="-271" font-family="Helvetica,sans-Serif" font-size="10.00">src/msg/scrn/d_msg</text>
<text text-anchor="middle" x="3953" y="-260" font-family="Helvetica,sans-Serif" font-size="10.00">_scrn_place.cpp</text>
</a>
</g>
</g>
<!-- Node1&#45;&gt;Node43 -->
<g id="edge42" class="edge">
<title>Node1&#45;&gt;Node43</title>
<path fill="none" stroke="#63b8ff" d="M2810.06,-331.44C3035.94,-326.68 3681.35,-310.96 3891,-283 3893.84,-282.62 3896.75,-282.17 3899.68,-281.68"/>
<polygon fill="#63b8ff" stroke="#63b8ff" points="2810.1,-327.94 2800.17,-331.64 2810.25,-334.93 2810.1,-327.94"/>
</g>
<!-- Node44 -->
<g id="node44" class="node">
<title>Node44</title>
<g id="a_node44"><a xlink:href="d__msg__scrn__staff_8cpp.html" target="_top" xlink:title=" ">
<polygon fill="white" stroke="#666666" points="4130,-283 4024,-283 4024,-253 4130,-253 4130,-283"/>
<text text-anchor="start" x="4032" y="-271" font-family="Helvetica,sans-Serif" font-size="10.00">src/msg/scrn/d_msg</text>
<text text-anchor="middle" x="4077" y="-260" font-family="Helvetica,sans-Serif" font-size="10.00">_scrn_staff.cpp</text>
</a>
</g>
</g>
<!-- Node1&#45;&gt;Node44 -->
<g id="edge43" class="edge">
<title>Node1&#45;&gt;Node44</title>
<path fill="none" stroke="#63b8ff" d="M2810.1,-331.82C3052.09,-327.9 3780.26,-313.81 4015,-283 4017.84,-282.63 4020.75,-282.18 4023.68,-281.69"/>
<polygon fill="#63b8ff" stroke="#63b8ff" points="2810.4,-328.31 2800.46,-331.97 2810.51,-335.31 2810.4,-328.31"/>
</g>
<!-- Node45 -->
<g id="node45" class="node">
<title>Node45</title>
<g id="a_node45"><a xlink:href="d__msg__scrn__tree_8cpp.html" target="_top" xlink:title=" ">
<polygon fill="white" stroke="#666666" points="4254,-283 4148,-283 4148,-253 4254,-253 4254,-283"/>
<text text-anchor="start" x="4156" y="-271" font-family="Helvetica,sans-Serif" font-size="10.00">src/msg/scrn/d_msg</text>
<text text-anchor="middle" x="4201" y="-260" font-family="Helvetica,sans-Serif" font-size="10.00">_scrn_tree.cpp</text>
</a>
</g>
</g>
<!-- Node1&#45;&gt;Node45 -->
<g id="edge44" class="edge">
<title>Node1&#45;&gt;Node45</title>
<path fill="none" stroke="#63b8ff" d="M2810.11,-332.13C3067.43,-329.01 3879.05,-316.67 4139,-283 4141.85,-282.63 4144.75,-282.19 4147.68,-281.7"/>
<polygon fill="#63b8ff" stroke="#63b8ff" points="2810.11,-328.63 2800.15,-332.25 2810.19,-335.63 2810.11,-328.63"/>
</g>
<!-- Node3 -->
<g id="node3" class="node">
<title>Node3</title>
<g id="a_node3"><a xlink:href="d__select__cursor_8h.html" target="_top" xlink:title=" ">
<polygon fill="white" stroke="#666666" points="1111.5,-217 1016.5,-217 1016.5,-187 1111.5,-187 1111.5,-217"/>
<text text-anchor="start" x="1024.5" y="-205" font-family="Helvetica,sans-Serif" font-size="10.00">include/d/d_select</text>
<text text-anchor="middle" x="1064" y="-194" font-family="Helvetica,sans-Serif" font-size="10.00">_cursor.h</text>
</a>
</g>
</g>
<!-- Node2&#45;&gt;Node3 -->
<g id="edge2" class="edge">
<title>Node2&#45;&gt;Node3</title>
<path fill="none" stroke="#63b8ff" d="M1148.48,-247.32C1130.01,-237.63 1108.14,-226.16 1091.29,-217.31"/>
<polygon fill="#63b8ff" stroke="#63b8ff" points="1146.8,-250.39 1157.28,-251.93 1150.05,-244.19 1146.8,-250.39"/>
</g>
<!-- Node21 -->
<g id="node21" class="node">
<title>Node21</title>
<g id="a_node21"><a xlink:href="d__select__icon_8cpp.html" target="_top" xlink:title=" ">
<polygon fill="white" stroke="#666666" points="1248.5,-211.5 1129.5,-211.5 1129.5,-192.5 1248.5,-192.5 1248.5,-211.5"/>
<text text-anchor="middle" x="1189" y="-199.5" font-family="Helvetica,sans-Serif" font-size="10.00">src/d/d_select_icon.cpp</text>
</a>
</g>
</g>
<!-- Node2&#45;&gt;Node21 -->
<g id="edge20" class="edge">
<title>Node2&#45;&gt;Node21</title>
<path fill="none" stroke="#63b8ff" d="M1187.19,-241.59C1187.68,-231.06 1188.23,-219.53 1188.59,-211.84"/>
<polygon fill="#63b8ff" stroke="#63b8ff" points="1183.71,-241.13 1186.74,-251.28 1190.7,-241.46 1183.71,-241.13"/>
</g>
<!-- Node4 -->
<g id="node4" class="node">
<title>Node4</title>
<g id="a_node4"><a xlink:href="d__name_8h.html" target="_top" xlink:title=" ">
<polygon fill="white" stroke="#666666" points="227.5,-145.5 126.5,-145.5 126.5,-126.5 227.5,-126.5 227.5,-145.5"/>
<text text-anchor="middle" x="177" y="-133.5" font-family="Helvetica,sans-Serif" font-size="10.00">include/d/d_name.h</text>
</a>
</g>
</g>
<!-- Node3&#45;&gt;Node4 -->
<g id="edge3" class="edge">
<title>Node3&#45;&gt;Node4</title>
<path fill="none" stroke="#63b8ff" d="M1004.95,-197.39C880.59,-189.68 582.63,-170.74 333,-151 297.9,-148.22 258.39,-144.67 227.91,-141.84"/>
<polygon fill="#63b8ff" stroke="#63b8ff" points="1004.37,-200.86 1014.57,-197.98 1004.8,-193.87 1004.37,-200.86"/>
</g>
<!-- Node8 -->
<g id="node8" class="node">
<title>Node8</title>
<g id="a_node8"><a xlink:href="d__menu__dmap_8h.html" target="_top" xlink:title=" ">
<polygon fill="white" stroke="#666666" points="462,-151 342,-151 342,-121 462,-121 462,-151"/>
<text text-anchor="start" x="350" y="-139" font-family="Helvetica,sans-Serif" font-size="10.00">include/d/menu/d_menu</text>
<text text-anchor="middle" x="402" y="-128" font-family="Helvetica,sans-Serif" font-size="10.00">_dmap.h</text>
</a>
</g>
</g>
<!-- Node3&#45;&gt;Node8 -->
<g id="edge7" class="edge">
<title>Node3&#45;&gt;Node8</title>
<path fill="none" stroke="#63b8ff" d="M1004.95,-198.3C898.03,-192.89 665.4,-178.82 471,-151 468.1,-150.58 465.13,-150.12 462.14,-149.63"/>
<polygon fill="#63b8ff" stroke="#63b8ff" points="1004.46,-201.77 1014.62,-198.78 1004.81,-194.78 1004.46,-201.77"/>
</g>
<!-- Node12 -->
<g id="node12" class="node">
<title>Node12</title>
<g id="a_node12"><a xlink:href="d__select__cursor_8cpp.html" target="_top" xlink:title=" ">
<polygon fill="white" stroke="#666666" points="608,-145.5 480,-145.5 480,-126.5 608,-126.5 608,-145.5"/>
<text text-anchor="middle" x="544" y="-133.5" font-family="Helvetica,sans-Serif" font-size="10.00">src/d/d_select_cursor.cpp</text>
</a>
</g>
</g>
<!-- Node3&#45;&gt;Node12 -->
<g id="edge11" class="edge">
<title>Node3&#45;&gt;Node12</title>
<path fill="none" stroke="#63b8ff" d="M1004.89,-195.87C919.15,-188.09 755.4,-171.98 617,-151 607.56,-149.57 597.48,-147.8 587.91,-146"/>
<polygon fill="#63b8ff" stroke="#63b8ff" points="1004.43,-199.34 1014.7,-196.75 1005.06,-192.37 1004.43,-199.34"/>
</g>
<!-- Node13 -->
<g id="node13" class="node">
<title>Node13</title>
<g id="a_node13"><a xlink:href="d__menu__calibration_8cpp.html" target="_top" xlink:title=" ">
<polygon fill="white" stroke="#666666" points="796,-145.5 626,-145.5 626,-126.5 796,-126.5 796,-145.5"/>
<text text-anchor="middle" x="711" y="-133.5" font-family="Helvetica,sans-Serif" font-size="10.00">src/d/menu/d_menu_calibration.cpp</text>
</a>
</g>
</g>
<!-- Node3&#45;&gt;Node13 -->
<g id="edge12" class="edge">
<title>Node3&#45;&gt;Node13</title>
<path fill="none" stroke="#63b8ff" d="M1005,-190.3C936.52,-177.89 824.77,-157.63 760.58,-145.99"/>
<polygon fill="#63b8ff" stroke="#63b8ff" points="1004.07,-193.69 1014.54,-192.03 1005.32,-186.8 1004.07,-193.69"/>
</g>
<!-- Node14 -->
<g id="node14" class="node">
<title>Node14</title>
<g id="a_node14"><a xlink:href="d__menu__collect_8cpp.html" target="_top" xlink:title=" ">
<polygon fill="white" stroke="#666666" points="969.5,-145.5 814.5,-145.5 814.5,-126.5 969.5,-126.5 969.5,-145.5"/>
<text text-anchor="middle" x="892" y="-133.5" font-family="Helvetica,sans-Serif" font-size="10.00">src/d/menu/d_menu_collect.cpp</text>
</a>
</g>
</g>
<!-- Node3&#45;&gt;Node14 -->
<g id="edge13" class="edge">
<title>Node3&#45;&gt;Node14</title>
<path fill="none" stroke="#63b8ff" d="M1014.8,-182.69C982.49,-170.67 941.63,-155.47 916.15,-145.99"/>
<polygon fill="#63b8ff" stroke="#63b8ff" points="1013.39,-185.9 1023.98,-186.11 1015.83,-179.34 1013.39,-185.9"/>
</g>
<!-- Node15 -->
<g id="node15" class="node">
<title>Node15</title>
<g id="a_node15"><a xlink:href="d__menu__insect_8cpp.html" target="_top" xlink:title=" ">
<polygon fill="white" stroke="#666666" points="1140,-145.5 988,-145.5 988,-126.5 1140,-126.5 1140,-145.5"/>
<text text-anchor="middle" x="1064" y="-133.5" font-family="Helvetica,sans-Serif" font-size="10.00">src/d/menu/d_menu_insect.cpp</text>
</a>
</g>
</g>
<!-- Node3&#45;&gt;Node15 -->
<g id="edge14" class="edge">
<title>Node3&#45;&gt;Node15</title>
<path fill="none" stroke="#63b8ff" d="M1064,-175.59C1064,-165.06 1064,-153.53 1064,-145.84"/>
<polygon fill="#63b8ff" stroke="#63b8ff" points="1060.5,-175.28 1064,-185.28 1067.5,-175.28 1060.5,-175.28"/>
</g>
<!-- Node16 -->
<g id="node16" class="node">
<title>Node16</title>
<g id="a_node16"><a xlink:href="d__menu__map__common_8cpp.html" target="_top" xlink:title=" ">
<polygon fill="white" stroke="#666666" points="1285.5,-151 1158.5,-151 1158.5,-121 1285.5,-121 1285.5,-151"/>
<text text-anchor="start" x="1166.5" y="-139" font-family="Helvetica,sans-Serif" font-size="10.00">src/d/menu/d_menu_map</text>
<text text-anchor="middle" x="1222" y="-128" font-family="Helvetica,sans-Serif" font-size="10.00">_common.cpp</text>
</a>
</g>
</g>
<!-- Node3&#45;&gt;Node16 -->
<g id="edge15" class="edge">
<title>Node3&#45;&gt;Node16</title>
<path fill="none" stroke="#63b8ff" d="M1109.9,-182.41C1134.27,-172.54 1163.77,-160.59 1186.39,-151.43"/>
<polygon fill="#63b8ff" stroke="#63b8ff" points="1108.82,-179.07 1100.86,-186.07 1111.44,-185.56 1108.82,-179.07"/>
</g>
<!-- Node17 -->
<g id="node17" class="node">
<title>Node17</title>
<g id="a_node17"><a xlink:href="d__menu__option_8cpp.html" target="_top" xlink:title=" ">
<polygon fill="white" stroke="#666666" points="1456,-145.5 1304,-145.5 1304,-126.5 1456,-126.5 1456,-145.5"/>
<text text-anchor="middle" x="1380" y="-133.5" font-family="Helvetica,sans-Serif" font-size="10.00">src/d/menu/d_menu_option.cpp</text>
</a>
</g>
</g>
<!-- Node3&#45;&gt;Node17 -->
<g id="edge16" class="edge">
<title>Node3&#45;&gt;Node17</title>
<path fill="none" stroke="#63b8ff" d="M1122.77,-186.45C1199.76,-169.64 1278.83,-154.95 1329.01,-145.95"/>
<polygon fill="#63b8ff" stroke="#63b8ff" points="1122.41,-182.94 1113.4,-188.51 1123.92,-189.78 1122.41,-182.94"/>
</g>
<!-- Node18 -->
<g id="node18" class="node">
<title>Node18</title>
<g id="a_node18"><a xlink:href="d__menu__save_8cpp.html" target="_top" xlink:title=" ">
<polygon fill="white" stroke="#666666" points="1621.5,-145.5 1474.5,-145.5 1474.5,-126.5 1621.5,-126.5 1621.5,-145.5"/>
<text text-anchor="middle" x="1548" y="-133.5" font-family="Helvetica,sans-Serif" font-size="10.00">src/d/menu/d_menu_save.cpp</text>
</a>
</g>
</g>
<!-- Node3&#45;&gt;Node18 -->
<g id="edge17" class="edge">
<title>Node3&#45;&gt;Node18</title>
<path fill="none" stroke="#63b8ff" d="M1122.92,-186.64C1273.78,-160.76 1315.83,-171.34 1465,-151 1475.71,-149.54 1487.17,-147.75 1498.04,-145.95"/>
<polygon fill="#63b8ff" stroke="#63b8ff" points="1122.61,-183.14 1113.36,-188.3 1123.81,-190.03 1122.61,-183.14"/>
</g>
<!-- Node19 -->
<g id="node19" class="node">
<title>Node19</title>
<g id="a_node19"><a xlink:href="d__menu__skill_8cpp.html" target="_top" xlink:title=" ">
<polygon fill="white" stroke="#666666" points="1782.5,-145.5 1639.5,-145.5 1639.5,-126.5 1782.5,-126.5 1782.5,-145.5"/>
<text text-anchor="middle" x="1711" y="-133.5" font-family="Helvetica,sans-Serif" font-size="10.00">src/d/menu/d_menu_skill.cpp</text>
</a>
</g>
</g>
<!-- Node3&#45;&gt;Node19 -->
<g id="edge18" class="edge">
<title>Node3&#45;&gt;Node19</title>
<path fill="none" stroke="#63b8ff" d="M1122.98,-186.71C1346.83,-152.12 1408.65,-178.21 1631,-151 1641.92,-149.66 1653.61,-147.84 1664.59,-145.96"/>
<polygon fill="#63b8ff" stroke="#63b8ff" points="1122.68,-183.21 1113.34,-188.22 1123.77,-190.12 1122.68,-183.21"/>
</g>
<!-- Node20 -->
<g id="node20" class="node">
<title>Node20</title>
<g id="a_node20"><a xlink:href="d__shop__system_8cpp.html" target="_top" xlink:title=" ">
<polygon fill="white" stroke="#666666" points="1953,-145.5 1801,-145.5 1801,-126.5 1953,-126.5 1953,-145.5"/>
<text text-anchor="middle" x="1877" y="-133.5" font-family="Helvetica,sans-Serif" font-size="10.00">src/d/shop/d_shop_system.cpp</text>
</a>
</g>
</g>
<!-- Node3&#45;&gt;Node20 -->
<g id="edge19" class="edge">
<title>Node3&#45;&gt;Node20</title>
<path fill="none" stroke="#63b8ff" d="M1122.87,-186.76C1417.73,-143.51 1498.29,-182.96 1792,-151 1803.75,-149.72 1816.34,-147.9 1828.13,-145.99"/>
<polygon fill="#63b8ff" stroke="#63b8ff" points="1122.71,-183.24 1113.34,-188.18 1123.74,-190.17 1122.71,-183.24"/>
</g>
<!-- Node5 -->
<g id="node5" class="node">
<title>Node5</title>
<g id="a_node5"><a xlink:href="d__file__select_8h.html" target="_top" xlink:title=" ">
<polygon fill="white" stroke="#666666" points="112,-85 16,-85 16,-55 112,-55 112,-85"/>
<text text-anchor="start" x="24" y="-73" font-family="Helvetica,sans-Serif" font-size="10.00">include/d/file/d_file</text>
<text text-anchor="middle" x="64" y="-62" font-family="Helvetica,sans-Serif" font-size="10.00">_select.h</text>
</a>
</g>
</g>
<!-- Node4&#45;&gt;Node5 -->
<g id="edge4" class="edge">
<title>Node4&#45;&gt;Node5</title>
<path fill="none" stroke="#63b8ff" d="M151.49,-120.55C132.99,-110.08 108.07,-95.96 89.56,-85.48"/>
<polygon fill="#63b8ff" stroke="#63b8ff" points="149.54,-123.47 159.97,-125.36 152.99,-117.38 149.54,-123.47"/>
</g>
<!-- Node7 -->
<g id="node7" class="node">
<title>Node7</title>
<g id="a_node7"><a xlink:href="d__name_8cpp.html" target="_top" xlink:title=" ">
<polygon fill="white" stroke="#666666" points="224,-79.5 130,-79.5 130,-60.5 224,-60.5 224,-79.5"/>
<text text-anchor="middle" x="177" y="-67.5" font-family="Helvetica,sans-Serif" font-size="10.00">src/d/d_name.cpp</text>
</a>
</g>
</g>
<!-- Node4&#45;&gt;Node7 -->
<g id="edge6" class="edge">
<title>Node4&#45;&gt;Node7</title>
<path fill="none" stroke="#63b8ff" d="M177,-114.68C177,-102.94 177,-88.77 177,-79.82"/>
<polygon fill="#63b8ff" stroke="#63b8ff" points="173.5,-114.59 177,-124.59 180.5,-114.59 173.5,-114.59"/>
</g>
<!-- Node6 -->
<g id="node6" class="node">
<title>Node6</title>
<g id="a_node6"><a xlink:href="d__file__select_8cpp.html" target="_top" xlink:title=" ">
<polygon fill="white" stroke="#666666" points="128,-19 0,-19 0,0 128,0 128,-19"/>
<text text-anchor="middle" x="64" y="-7" font-family="Helvetica,sans-Serif" font-size="10.00">src/d/file/d_file_select.cpp</text>
</a>
</g>
</g>
<!-- Node5&#45;&gt;Node6 -->
<g id="edge5" class="edge">
<title>Node5&#45;&gt;Node6</title>
<path fill="none" stroke="#63b8ff" d="M64,-43.3C64,-34.65 64,-25.58 64,-19.18"/>
<polygon fill="#63b8ff" stroke="#63b8ff" points="60.5,-43.03 64,-53.03 67.5,-43.03 60.5,-43.03"/>
</g>
<!-- Node9 -->
<g id="node9" class="node">
<title>Node9</title>
<g id="a_node9"><a xlink:href="d__menu__dmap_8cpp.html" target="_top" xlink:title=" ">
<polygon fill="white" stroke="#666666" points="392,-79.5 242,-79.5 242,-60.5 392,-60.5 392,-79.5"/>
<text text-anchor="middle" x="317" y="-67.5" font-family="Helvetica,sans-Serif" font-size="10.00">src/d/menu/d_menu_dmap.cpp</text>
</a>
</g>
</g>
<!-- Node8&#45;&gt;Node9 -->
<g id="edge8" class="edge">
<title>Node8&#45;&gt;Node9</title>
<path fill="none" stroke="#63b8ff" d="M374.02,-113.93C358.64,-102.35 340.38,-88.61 328.75,-79.84"/>
<polygon fill="#63b8ff" stroke="#63b8ff" points="371.83,-116.67 381.93,-119.89 376.04,-111.07 371.83,-116.67"/>
</g>
<!-- Node10 -->
<g id="node10" class="node">
<title>Node10</title>
<g id="a_node10"><a xlink:href="d__menu__fishing_8cpp.html" target="_top" xlink:title=" ">
<polygon fill="white" stroke="#666666" points="564,-79.5 410,-79.5 410,-60.5 564,-60.5 564,-79.5"/>
<text text-anchor="middle" x="487" y="-67.5" font-family="Helvetica,sans-Serif" font-size="10.00">src/d/menu/d_menu_fishing.cpp</text>
</a>
</g>
</g>
<!-- Node8&#45;&gt;Node10 -->
<g id="edge9" class="edge">
<title>Node8&#45;&gt;Node10</title>
<path fill="none" stroke="#63b8ff" d="M429.98,-113.93C445.36,-102.35 463.62,-88.61 475.25,-79.84"/>
<polygon fill="#63b8ff" stroke="#63b8ff" points="427.96,-111.07 422.07,-119.89 432.17,-116.67 427.96,-111.07"/>
</g>
<!-- Node11 -->
<g id="node11" class="node">
<title>Node11</title>
<g id="a_node11"><a xlink:href="d__menu__window_8cpp.html" target="_top" xlink:title=" ">
<polygon fill="white" stroke="#666666" points="741.5,-79.5 582.5,-79.5 582.5,-60.5 741.5,-60.5 741.5,-79.5"/>
<text text-anchor="middle" x="662" y="-67.5" font-family="Helvetica,sans-Serif" font-size="10.00">src/d/menu/d_menu_window.cpp</text>
</a>
</g>
</g>
<!-- Node8&#45;&gt;Node11 -->
<g id="edge10" class="edge">
<title>Node8&#45;&gt;Node11</title>
<path fill="none" stroke="#63b8ff" d="M471.64,-117.86C521.21,-105.66 585.83,-89.75 625.59,-79.96"/>
<polygon fill="#63b8ff" stroke="#63b8ff" points="471.02,-114.41 462.14,-120.2 472.69,-121.2 471.02,-114.41"/>
</g>
<!-- Node23 -->
<g id="node23" class="node">
<title>Node23</title>
<g id="a_node23"><a xlink:href="d__a__player_8cpp.html" target="_top" xlink:title=" ">
<polygon fill="white" stroke="#666666" points="1383,-211.5 1269,-211.5 1269,-192.5 1383,-192.5 1383,-211.5"/>
<text text-anchor="middle" x="1326" y="-199.5" font-family="Helvetica,sans-Serif" font-size="10.00">src/d/a/d_a_player.cpp</text>
</a>
</g>
</g>
<!-- Node22&#45;&gt;Node23 -->
<g id="edge22" class="edge">
<title>Node22&#45;&gt;Node23</title>
<path fill="none" stroke="#63b8ff" d="M1326,-241.59C1326,-231.06 1326,-219.53 1326,-211.84"/>
<polygon fill="#63b8ff" stroke="#63b8ff" points="1322.5,-241.28 1326,-251.28 1329.5,-241.28 1322.5,-241.28"/>
</g>
</g>
</svg>
