<?xml version="1.0" encoding="UTF-8" standalone="no"?>
<!DOCTYPE svg PUBLIC "-//W3C//DTD SVG 1.1//EN"
 "http://www.w3.org/Graphics/SVG/1.1/DTD/svg11.dtd">
<!-- Generated by graphviz version 7.0.5 (20221223.1930)
 -->
<!-- Title: include/JSystem/J2DGraph/J2DTevs.h Pages: 1 -->
<!--zoomable 434 -->
<svg id="main" version="1.1" xmlns="http://www.w3.org/2000/svg" xmlns:xlink="http://www.w3.org/1999/xlink" xml:space="preserve" onload="init(evt)">
<style type="text/css"><![CDATA[
.edge:hover path { stroke: red; }
.edge:hover polygon { stroke: red; fill: red; }
]]></style>
<script type="text/javascript"><![CDATA[
var edges = document.getElementsByTagName('g');
if (edges && edges.length) {
  for (var i=0;i<edges.length;i++) {
    if (edges[i].id.substr(0,4)=='edge') {
      edges[i].setAttribute('class','edge');
    }
  }
}
]]></script>
        <defs>
                <circle id="rim" cx="0" cy="0" r="7"/>
                <circle id="rim2" cx="0" cy="0" r="3.5"/>
                <g id="zoomPlus">
                        <use xlink:href="#rim" fill="#404040">
                                <set attributeName="fill" to="#808080" begin="zoomplus.mouseover" end="zoomplus.mouseout"/>
                        </use>
                        <path d="M-4,0h8M0,-4v8" fill="none" stroke="white" stroke-width="1.5" pointer-events="none"/>
                </g>
                <g id="zoomMin">
                        <use xlink:href="#rim" fill="#404040">
                                <set attributeName="fill" to="#808080" begin="zoomminus.mouseover" end="zoomminus.mouseout"/>
                        </use>
                        <path d="M-4,0h8" fill="none" stroke="white" stroke-width="1.5" pointer-events="none"/>
                </g>
                <g id="dirArrow">
                        <path fill="none" stroke="white" stroke-width="1.5" d="M0,-3.0v7 M-2.5,-0.5L0,-3.0L2.5,-0.5"/>
                </g>
               <g id="resetDef">
                       <use xlink:href="#rim2" fill="#404040">
                               <set attributeName="fill" to="#808080" begin="reset.mouseover" end="reset.mouseout"/>
                       </use>
               </g>
        </defs>

<script type="text/javascript">
var viewWidth = 3566;
var viewHeight = 434;
var sectionId = 'dynsection-1';
</script>
<script xlink:href="svgpan.js"/>
<svg id="graph" class="graph">
<g id="viewport">
<title>include/JSystem/J2DGraph/J2DTevs.h</title>
<!-- Node1 -->
<g id="node1" class="node">
<title>Node1</title>
<g id="a_node1"><a xlink:title=" ">
<polygon fill="#999999" stroke="#666666" points="3317.5,-426 3182.5,-426 3182.5,-396 3317.5,-396 3317.5,-426"/>
<text text-anchor="start" x="3190.5" y="-414" font-family="Helvetica,sans-Serif" font-size="10.00">include/JSystem/J2DGraph</text>
<text text-anchor="middle" x="3250" y="-403" font-family="Helvetica,sans-Serif" font-size="10.00">/J2DTevs.h</text>
</a>
</g>
</g>
<!-- Node2 -->
<g id="node2" class="node">
<title>Node2</title>
<g id="a_node2"><a xlink:href="J2DMatBlock_8h.html" target="_top" xlink:title=" ">
<polygon fill="white" stroke="#666666" points="3317.5,-360 3182.5,-360 3182.5,-330 3317.5,-330 3317.5,-360"/>
<text text-anchor="start" x="3190.5" y="-348" font-family="Helvetica,sans-Serif" font-size="10.00">include/JSystem/J2DGraph</text>
<text text-anchor="middle" x="3250" y="-337" font-family="Helvetica,sans-Serif" font-size="10.00">/J2DMatBlock.h</text>
</a>
</g>
</g>
<!-- Node1&#45;&gt;Node2 -->
<g id="edge1" class="edge">
<title>Node1&#45;&gt;Node2</title>
<path fill="none" stroke="#63b8ff" d="M3250,-384.39C3250,-376.13 3250,-367.28 3250,-360.16"/>
<polygon fill="#63b8ff" stroke="#63b8ff" points="3246.5,-384.28 3250,-394.28 3253.5,-384.28 3246.5,-384.28"/>
</g>
<!-- Node50 -->
<g id="node49" class="node">
<title>Node50</title>
<g id="a_node49"><a xlink:href="J2DTevs_8cpp.html" target="_top" xlink:title=" ">
<polygon fill="white" stroke="#666666" points="3557.5,-294 3438.5,-294 3438.5,-264 3557.5,-264 3557.5,-294"/>
<text text-anchor="start" x="3446.5" y="-282" font-family="Helvetica,sans-Serif" font-size="10.00">libs/JSystem/J2DGraph</text>
<text text-anchor="middle" x="3498" y="-271" font-family="Helvetica,sans-Serif" font-size="10.00">/J2DTevs.cpp</text>
</a>
</g>
</g>
<!-- Node1&#45;&gt;Node50 -->
<g id="edge58" class="edge">
<title>Node1&#45;&gt;Node50</title>
<path fill="none" stroke="#63b8ff" d="M3287.61,-390.28C3337.89,-363.93 3425.8,-317.84 3470.39,-294.47"/>
<polygon fill="#63b8ff" stroke="#63b8ff" points="3286.06,-387.15 3278.83,-394.89 3289.31,-393.35 3286.06,-387.15"/>
</g>
<!-- Node51 -->
<g id="node50" class="node">
<title>Node51</title>
<g id="a_node50"><a xlink:href="J2DPictureEx_8h.html" target="_top" xlink:title=" ">
<polygon fill="white" stroke="#666666" points="2977.5,-294 2842.5,-294 2842.5,-264 2977.5,-264 2977.5,-294"/>
<text text-anchor="start" x="2850.5" y="-282" font-family="Helvetica,sans-Serif" font-size="10.00">include/JSystem/J2DGraph</text>
<text text-anchor="middle" x="2910" y="-271" font-family="Helvetica,sans-Serif" font-size="10.00">/J2DPictureEx.h</text>
</a>
</g>
</g>
<!-- Node1&#45;&gt;Node51 -->
<g id="edge55" class="edge">
<title>Node1&#45;&gt;Node51</title>
<path fill="none" stroke="#63b8ff" d="M3201.85,-391.59C3133.56,-365.48 3010,-318.24 2947.85,-294.47"/>
<polygon fill="#63b8ff" stroke="#63b8ff" points="3200.31,-394.75 3210.9,-395.05 3202.81,-388.21 3200.31,-394.75"/>
</g>
<!-- Node3 -->
<g id="node3" class="node">
<title>Node3</title>
<g id="a_node3"><a xlink:href="J2DMaterial_8h.html" target="_top" xlink:title=" ">
<polygon fill="white" stroke="#666666" points="3267.5,-294 3132.5,-294 3132.5,-264 3267.5,-264 3267.5,-294"/>
<text text-anchor="start" x="3140.5" y="-282" font-family="Helvetica,sans-Serif" font-size="10.00">include/JSystem/J2DGraph</text>
<text text-anchor="middle" x="3200" y="-271" font-family="Helvetica,sans-Serif" font-size="10.00">/J2DMaterial.h</text>
</a>
</g>
</g>
<!-- Node2&#45;&gt;Node3 -->
<g id="edge2" class="edge">
<title>Node2&#45;&gt;Node3</title>
<path fill="none" stroke="#63b8ff" d="M3232,-320.96C3225,-312 3217.21,-302.03 3211.07,-294.16"/>
<polygon fill="#63b8ff" stroke="#63b8ff" points="3229.06,-322.88 3237.97,-328.6 3234.57,-318.57 3229.06,-322.88"/>
</g>
<!-- Node48 -->
<g id="node47" class="node">
<title>Node48</title>
<g id="a_node47"><a xlink:href="J2DMaterialFactory_8h.html" target="_top" xlink:title=" ">
<polygon fill="white" stroke="#666666" points="3420.5,-294 3285.5,-294 3285.5,-264 3420.5,-264 3420.5,-294"/>
<text text-anchor="start" x="3293.5" y="-282" font-family="Helvetica,sans-Serif" font-size="10.00">include/JSystem/J2DGraph</text>
<text text-anchor="middle" x="3353" y="-271" font-family="Helvetica,sans-Serif" font-size="10.00">/J2DMaterialFactory.h</text>
</a>
</g>
</g>
<!-- Node2&#45;&gt;Node48 -->
<g id="edge51" class="edge">
<title>Node2&#45;&gt;Node48</title>
<path fill="none" stroke="#63b8ff" d="M3282.77,-323.64C3298.13,-314.09 3316.06,-302.95 3329.96,-294.31"/>
<polygon fill="#63b8ff" stroke="#63b8ff" points="3281.05,-320.59 3274.4,-328.84 3284.74,-326.53 3281.05,-320.59"/>
</g>
<!-- Node49 -->
<g id="node48" class="node">
<title>Node49</title>
<g id="a_node48"><a xlink:href="J2DMatBlock_8cpp.html" target="_top" xlink:title=" ">
<polygon fill="white" stroke="#666666" points="3114.5,-294 2995.5,-294 2995.5,-264 3114.5,-264 3114.5,-294"/>
<text text-anchor="start" x="3003.5" y="-282" font-family="Helvetica,sans-Serif" font-size="10.00">libs/JSystem/J2DGraph</text>
<text text-anchor="middle" x="3055" y="-271" font-family="Helvetica,sans-Serif" font-size="10.00">/J2DMatBlock.cpp</text>
</a>
</g>
</g>
<!-- Node2&#45;&gt;Node49 -->
<g id="edge53" class="edge">
<title>Node2&#45;&gt;Node49</title>
<path fill="none" stroke="#63b8ff" d="M3195.36,-326.07C3164.91,-316.07 3127.49,-303.79 3098.95,-294.43"/>
<polygon fill="#63b8ff" stroke="#63b8ff" points="3194.21,-329.37 3204.8,-329.17 3196.39,-322.72 3194.21,-329.37"/>
</g>
<!-- Node2&#45;&gt;Node50 -->
<g id="edge54" class="edge">
<title>Node2&#45;&gt;Node50</title>
<path fill="none" stroke="#63b8ff" d="M3317.01,-326.71C3356.22,-316.59 3405.14,-303.96 3442.24,-294.39"/>
<polygon fill="#63b8ff" stroke="#63b8ff" points="3316.24,-323.29 3307.43,-329.18 3317.99,-330.07 3316.24,-323.29"/>
</g>
<!-- Node4 -->
<g id="node4" class="node">
<title>Node4</title>
<g id="a_node4"><a xlink:href="J2DTextBox_8h.html" target="_top" xlink:title=" ">
<polygon fill="white" stroke="#666666" points="2131.5,-228 1996.5,-228 1996.5,-198 2131.5,-198 2131.5,-228"/>
<text text-anchor="start" x="2004.5" y="-216" font-family="Helvetica,sans-Serif" font-size="10.00">include/JSystem/J2DGraph</text>
<text text-anchor="middle" x="2064" y="-205" font-family="Helvetica,sans-Serif" font-size="10.00">/J2DTextBox.h</text>
</a>
</g>
</g>
<!-- Node3&#45;&gt;Node4 -->
<g id="edge3" class="edge">
<title>Node3&#45;&gt;Node4</title>
<path fill="none" stroke="#63b8ff" d="M3120.85,-263.87C2741.63,-221.39 2298.43,-214.98 2131.77,-214.09"/>
<polygon fill="#63b8ff" stroke="#63b8ff" points="3120.22,-267.32 3130.55,-264.97 3121.01,-260.37 3120.22,-267.32"/>
</g>
<!-- Node41 -->
<g id="node40" class="node">
<title>Node41</title>
<g id="a_node40"><a xlink:href="J2DWindow_8h.html" target="_top" xlink:title=" ">
<polygon fill="white" stroke="#666666" points="3343.5,-228 3208.5,-228 3208.5,-198 3343.5,-198 3343.5,-228"/>
<text text-anchor="start" x="3216.5" y="-216" font-family="Helvetica,sans-Serif" font-size="10.00">include/JSystem/J2DGraph</text>
<text text-anchor="middle" x="3276" y="-205" font-family="Helvetica,sans-Serif" font-size="10.00">/J2DWindow.h</text>
</a>
</g>
</g>
<!-- Node3&#45;&gt;Node41 -->
<g id="edge42" class="edge">
<title>Node3&#45;&gt;Node41</title>
<path fill="none" stroke="#63b8ff" d="M3225.62,-256.42C3236.59,-247.18 3249.11,-236.65 3258.92,-228.39"/>
<polygon fill="#63b8ff" stroke="#63b8ff" points="3223.42,-253.7 3218.02,-262.82 3227.93,-259.06 3223.42,-253.7"/>
</g>
<!-- Node45 -->
<g id="node44" class="node">
<title>Node45</title>
<g id="a_node44"><a xlink:href="J2DMaterial_8cpp.html" target="_top" xlink:title=" ">
<polygon fill="white" stroke="#666666" points="3190.5,-228 3071.5,-228 3071.5,-198 3190.5,-198 3190.5,-228"/>
<text text-anchor="start" x="3079.5" y="-216" font-family="Helvetica,sans-Serif" font-size="10.00">libs/JSystem/J2DGraph</text>
<text text-anchor="middle" x="3131" y="-205" font-family="Helvetica,sans-Serif" font-size="10.00">/J2DMaterial.cpp</text>
</a>
</g>
</g>
<!-- Node3&#45;&gt;Node45 -->
<g id="edge48" class="edge">
<title>Node3&#45;&gt;Node45</title>
<path fill="none" stroke="#63b8ff" d="M3176.38,-256.09C3166.41,-246.85 3155.11,-236.36 3146.27,-228.16"/>
<polygon fill="#63b8ff" stroke="#63b8ff" points="3173.87,-258.53 3183.58,-262.77 3178.63,-253.4 3173.87,-258.53"/>
</g>
<!-- Node46 -->
<g id="node45" class="node">
<title>Node46</title>
<g id="a_node45"><a xlink:href="J2DMaterialFactory_8cpp.html" target="_top" xlink:title=" ">
<polygon fill="white" stroke="#666666" points="3484,-228 3362,-228 3362,-198 3484,-198 3484,-228"/>
<text text-anchor="start" x="3370" y="-216" font-family="Helvetica,sans-Serif" font-size="10.00">libs/JSystem/J2DGraph</text>
<text text-anchor="middle" x="3423" y="-205" font-family="Helvetica,sans-Serif" font-size="10.00">/J2DMaterialFactory.cpp</text>
</a>
</g>
</g>
<!-- Node3&#45;&gt;Node46 -->
<g id="edge49" class="edge">
<title>Node3&#45;&gt;Node46</title>
<path fill="none" stroke="#63b8ff" d="M3261.39,-260.38C3296.45,-250.32 3339.86,-237.86 3372.86,-228.39"/>
<polygon fill="#63b8ff" stroke="#63b8ff" points="3260.42,-257.02 3251.78,-263.14 3262.36,-263.75 3260.42,-257.02"/>
</g>
<!-- Node47 -->
<g id="node46" class="node">
<title>Node47</title>
<g id="a_node46"><a xlink:href="J2DPictureEx_8cpp.html" target="_top" xlink:title=" ">
<polygon fill="white" stroke="#666666" points="1978.5,-228 1859.5,-228 1859.5,-198 1978.5,-198 1978.5,-228"/>
<text text-anchor="start" x="1867.5" y="-216" font-family="Helvetica,sans-Serif" font-size="10.00">libs/JSystem/J2DGraph</text>
<text text-anchor="middle" x="1919" y="-205" font-family="Helvetica,sans-Serif" font-size="10.00">/J2DPictureEx.cpp</text>
</a>
</g>
</g>
<!-- Node3&#45;&gt;Node47 -->
<g id="edge50" class="edge">
<title>Node3&#45;&gt;Node47</title>
<path fill="none" stroke="#63b8ff" d="M3120.88,-263.91C2618.73,-211.79 2484.99,-286.72 1987,-228 1984.37,-227.69 1981.68,-227.33 1978.98,-226.93"/>
<polygon fill="#63b8ff" stroke="#63b8ff" points="3120.24,-267.36 3130.55,-264.93 3120.97,-260.4 3120.24,-267.36"/>
</g>
<!-- Node5 -->
<g id="node5" class="node">
<title>Node5</title>
<g id="a_node5"><a xlink:href="J2DPrint_8h.html" target="_top" xlink:title=" ">
<polygon fill="white" stroke="#666666" points="2861.5,-162 2726.5,-162 2726.5,-132 2861.5,-132 2861.5,-162"/>
<text text-anchor="start" x="2734.5" y="-150" font-family="Helvetica,sans-Serif" font-size="10.00">include/JSystem/J2DGraph</text>
<text text-anchor="middle" x="2794" y="-139" font-family="Helvetica,sans-Serif" font-size="10.00">/J2DPrint.h</text>
</a>
</g>
</g>
<!-- Node4&#45;&gt;Node5 -->
<g id="edge4" class="edge">
<title>Node4&#45;&gt;Node5</title>
<path fill="none" stroke="#63b8ff" d="M2143.3,-208.24C2265.68,-201.9 2507.78,-187.26 2712,-162 2716.59,-161.43 2721.31,-160.79 2726.06,-160.1"/>
<polygon fill="#63b8ff" stroke="#63b8ff" points="2143.16,-204.74 2133.35,-208.75 2143.52,-211.73 2143.16,-204.74"/>
</g>
<!-- Node7 -->
<g id="node7" class="node">
<title>Node7</title>
<g id="a_node7"><a xlink:href="J2DTextBox_8cpp.html" target="_top" xlink:title=" ">
<polygon fill="white" stroke="#666666" points="2571.5,-96 2452.5,-96 2452.5,-66 2571.5,-66 2571.5,-96"/>
<text text-anchor="start" x="2460.5" y="-84" font-family="Helvetica,sans-Serif" font-size="10.00">libs/JSystem/J2DGraph</text>
<text text-anchor="middle" x="2512" y="-73" font-family="Helvetica,sans-Serif" font-size="10.00">/J2DTextBox.cpp</text>
</a>
</g>
</g>
<!-- Node4&#45;&gt;Node7 -->
<g id="edge27" class="edge">
<title>Node4&#45;&gt;Node7</title>
<path fill="none" stroke="#63b8ff" d="M2142.95,-211.42C2300.81,-209.42 2643.37,-200.65 2679,-162 2688.04,-152.2 2686.96,-142.7 2679,-132 2672.27,-122.96 2616.8,-107.5 2571.61,-96.16"/>
<polygon fill="#63b8ff" stroke="#63b8ff" points="2143.38,-207.91 2133.42,-211.53 2143.47,-214.91 2143.38,-207.91"/>
</g>
<!-- Node10 -->
<g id="node10" class="node">
<title>Node10</title>
<g id="a_node10"><a xlink:href="J2DTextBoxEx_8h.html" target="_top" xlink:title=" ">
<polygon fill="white" stroke="#666666" points="3014.5,-162 2879.5,-162 2879.5,-132 3014.5,-132 3014.5,-162"/>
<text text-anchor="start" x="2887.5" y="-150" font-family="Helvetica,sans-Serif" font-size="10.00">include/JSystem/J2DGraph</text>
<text text-anchor="middle" x="2947" y="-139" font-family="Helvetica,sans-Serif" font-size="10.00">/J2DTextBoxEx.h</text>
</a>
</g>
</g>
<!-- Node4&#45;&gt;Node10 -->
<g id="edge9" class="edge">
<title>Node4&#45;&gt;Node10</title>
<path fill="none" stroke="#63b8ff" d="M2143.3,-210.18C2288.12,-206.17 2604.92,-194.21 2870,-162 2872.97,-161.64 2875.99,-161.24 2879.05,-160.8"/>
<polygon fill="#63b8ff" stroke="#63b8ff" points="2143.33,-206.68 2133.43,-210.45 2143.52,-213.67 2143.33,-206.68"/>
</g>
<!-- Node12 -->
<g id="node12" class="node">
<title>Node12</title>
<g id="a_node12"><a xlink:href="d__menu__calibration_8h.html" target="_top" xlink:title=" ">
<polygon fill="white" stroke="#666666" points="907,-162 787,-162 787,-132 907,-132 907,-162"/>
<text text-anchor="start" x="795" y="-150" font-family="Helvetica,sans-Serif" font-size="10.00">include/d/menu/d_menu</text>
<text text-anchor="middle" x="847" y="-139" font-family="Helvetica,sans-Serif" font-size="10.00">_calibration.h</text>
</a>
</g>
</g>
<!-- Node4&#45;&gt;Node12 -->
<g id="edge12" class="edge">
<title>Node4&#45;&gt;Node12</title>
<path fill="none" stroke="#63b8ff" d="M1984.81,-197.9C1511.48,-148.36 1385.32,-217.11 916,-162 913.21,-161.67 910.36,-161.29 907.49,-160.87"/>
<polygon fill="#63b8ff" stroke="#63b8ff" points="1984.24,-201.36 1994.55,-198.93 1984.98,-194.4 1984.24,-201.36"/>
</g>
<!-- Node14 -->
<g id="node14" class="node">
<title>Node14</title>
<g id="a_node14"><a xlink:href="d__menu__option_8cpp.html" target="_top" xlink:title=" ">
<polygon fill="white" stroke="#666666" points="879,-90.5 727,-90.5 727,-71.5 879,-71.5 879,-90.5"/>
<text text-anchor="middle" x="803" y="-78.5" font-family="Helvetica,sans-Serif" font-size="10.00">src/d/menu/d_menu_option.cpp</text>
</a>
</g>
</g>
<!-- Node4&#45;&gt;Node14 -->
<g id="edge37" class="edge">
<title>Node4&#45;&gt;Node14</title>
<path fill="none" stroke="#63b8ff" d="M1984.79,-198.34C1846.52,-192.21 823.2,-208.57 778,-162 758.64,-142.06 782.09,-107.34 795.24,-91"/>
<polygon fill="#63b8ff" stroke="#63b8ff" points="1984.34,-201.82 1994.55,-198.98 1984.8,-194.83 1984.34,-201.82"/>
</g>
<!-- Node15 -->
<g id="node15" class="node">
<title>Node15</title>
<g id="a_node15"><a xlink:href="d__msg__scrn__base_8h.html" target="_top" xlink:title=" ">
<polygon fill="white" stroke="#666666" points="462.5,-162 363.5,-162 363.5,-132 462.5,-132 462.5,-162"/>
<text text-anchor="start" x="371.5" y="-150" font-family="Helvetica,sans-Serif" font-size="10.00">include/msg/scrn/d</text>
<text text-anchor="middle" x="413" y="-139" font-family="Helvetica,sans-Serif" font-size="10.00">_msg_scrn_base.h</text>
</a>
</g>
</g>
<!-- Node4&#45;&gt;Node15 -->
<g id="edge15" class="edge">
<title>Node4&#45;&gt;Node15</title>
<path fill="none" stroke="#63b8ff" d="M1984.67,-197.88C1435.83,-141 1293.11,-181.5 745,-162 644.83,-158.44 527.7,-153.26 462.77,-150.3"/>
<polygon fill="#63b8ff" stroke="#63b8ff" points="1984.25,-201.36 1994.55,-198.92 1984.97,-194.4 1984.25,-201.36"/>
</g>
<!-- Node28 -->
<g id="node27" class="node">
<title>Node28</title>
<g id="a_node27"><a xlink:href="d__bright__check_8cpp.html" target="_top" xlink:title=" ">
<polygon fill="white" stroke="#666666" points="1050.5,-156.5 925.5,-156.5 925.5,-137.5 1050.5,-137.5 1050.5,-156.5"/>
<text text-anchor="middle" x="988" y="-144.5" font-family="Helvetica,sans-Serif" font-size="10.00">src/d/d_bright_check.cpp</text>
</a>
</g>
</g>
<!-- Node4&#45;&gt;Node28 -->
<g id="edge28" class="edge">
<title>Node4&#45;&gt;Node28</title>
<path fill="none" stroke="#63b8ff" d="M1984.78,-197.89C1575.18,-154.02 1465.87,-209.06 1060,-162 1049.63,-160.8 1038.51,-158.93 1028.2,-156.94"/>
<polygon fill="#63b8ff" stroke="#63b8ff" points="1984.23,-201.35 1994.55,-198.95 1984.99,-194.39 1984.23,-201.35"/>
</g>
<!-- Node29 -->
<g id="node28" class="node">
<title>Node29</title>
<g id="a_node28"><a xlink:href="d__name_8cpp.html" target="_top" xlink:title=" ">
<polygon fill="white" stroke="#666666" points="1163,-156.5 1069,-156.5 1069,-137.5 1163,-137.5 1163,-156.5"/>
<text text-anchor="middle" x="1116" y="-144.5" font-family="Helvetica,sans-Serif" font-size="10.00">src/d/d_name.cpp</text>
</a>
</g>
</g>
<!-- Node4&#45;&gt;Node29 -->
<g id="edge29" class="edge">
<title>Node4&#45;&gt;Node29</title>
<path fill="none" stroke="#63b8ff" d="M1984.78,-197.88C1624.7,-158.63 1527.11,-213.7 1172,-162 1163.87,-160.82 1155.2,-158.95 1147.17,-156.97"/>
<polygon fill="#63b8ff" stroke="#63b8ff" points="1984.22,-201.34 1994.55,-198.96 1985,-194.38 1984.22,-201.34"/>
</g>
<!-- Node30 -->
<g id="node29" class="node">
<title>Node30</title>
<g id="a_node29"><a xlink:href="d__file__sel__info_8cpp.html" target="_top" xlink:title=" ">
<polygon fill="white" stroke="#666666" points="1278.5,-162 1181.5,-162 1181.5,-132 1278.5,-132 1278.5,-162"/>
<text text-anchor="start" x="1189.5" y="-150" font-family="Helvetica,sans-Serif" font-size="10.00">src/d/file/d_file_sel</text>
<text text-anchor="middle" x="1230" y="-139" font-family="Helvetica,sans-Serif" font-size="10.00">_info.cpp</text>
</a>
</g>
</g>
<!-- Node4&#45;&gt;Node30 -->
<g id="edge30" class="edge">
<title>Node4&#45;&gt;Node30</title>
<path fill="none" stroke="#63b8ff" d="M1984.95,-197.89C1675.6,-163.11 1591.59,-206.82 1287,-162 1284.28,-161.6 1281.5,-161.13 1278.7,-160.6"/>
<polygon fill="#63b8ff" stroke="#63b8ff" points="1984.21,-201.32 1994.55,-198.98 1985.01,-194.37 1984.21,-201.32"/>
</g>
<!-- Node31 -->
<g id="node30" class="node">
<title>Node31</title>
<g id="a_node30"><a xlink:href="d__file__sel__warning_8cpp.html" target="_top" xlink:title=" ">
<polygon fill="white" stroke="#666666" points="1393.5,-162 1296.5,-162 1296.5,-132 1393.5,-132 1393.5,-162"/>
<text text-anchor="start" x="1304.5" y="-150" font-family="Helvetica,sans-Serif" font-size="10.00">src/d/file/d_file_sel</text>
<text text-anchor="middle" x="1345" y="-139" font-family="Helvetica,sans-Serif" font-size="10.00">_warning.cpp</text>
</a>
</g>
</g>
<!-- Node4&#45;&gt;Node31 -->
<g id="edge31" class="edge">
<title>Node4&#45;&gt;Node31</title>
<path fill="none" stroke="#63b8ff" d="M1984.81,-197.85C1726.86,-167.63 1656.52,-200.11 1403,-162 1400.03,-161.55 1396.99,-161.03 1393.93,-160.45"/>
<polygon fill="#63b8ff" stroke="#63b8ff" points="1984.2,-201.3 1994.54,-199.02 1985.03,-194.35 1984.2,-201.3"/>
</g>
<!-- Node32 -->
<g id="node31" class="node">
<title>Node32</title>
<g id="a_node31"><a xlink:href="d__file__select_8cpp.html" target="_top" xlink:title=" ">
<polygon fill="white" stroke="#666666" points="1540,-156.5 1412,-156.5 1412,-137.5 1540,-137.5 1540,-156.5"/>
<text text-anchor="middle" x="1476" y="-144.5" font-family="Helvetica,sans-Serif" font-size="10.00">src/d/file/d_file_select.cpp</text>
</a>
</g>
</g>
<!-- Node4&#45;&gt;Node32 -->
<g id="edge32" class="edge">
<title>Node4&#45;&gt;Node32</title>
<path fill="none" stroke="#63b8ff" d="M1984.62,-197.79C1791.36,-173.09 1738.84,-187.93 1549,-162 1539.15,-160.66 1528.63,-158.85 1518.72,-156.99"/>
<polygon fill="#63b8ff" stroke="#63b8ff" points="1984.17,-201.26 1994.54,-199.08 1985.07,-194.32 1984.17,-201.26"/>
</g>
<!-- Node33 -->
<g id="node32" class="node">
<title>Node33</title>
<g id="a_node32"><a xlink:href="d__menu__collect_8cpp.html" target="_top" xlink:title=" ">
<polygon fill="white" stroke="#666666" points="1713.5,-156.5 1558.5,-156.5 1558.5,-137.5 1713.5,-137.5 1713.5,-156.5"/>
<text text-anchor="middle" x="1636" y="-144.5" font-family="Helvetica,sans-Serif" font-size="10.00">src/d/menu/d_menu_collect.cpp</text>
</a>
</g>
</g>
<!-- Node4&#45;&gt;Node33 -->
<g id="edge33" class="edge">
<title>Node4&#45;&gt;Node33</title>
<path fill="none" stroke="#63b8ff" d="M1984.83,-197.7C1868.16,-179.39 1836.59,-178.88 1723,-162 1712.41,-160.43 1701.1,-158.67 1690.27,-156.94"/>
<polygon fill="#63b8ff" stroke="#63b8ff" points="1984.09,-201.13 1994.51,-199.23 1985.18,-194.21 1984.09,-201.13"/>
</g>
<!-- Node34 -->
<g id="node33" class="node">
<title>Node34</title>
<g id="a_node33"><a xlink:href="d__menu__fishing_8cpp.html" target="_top" xlink:title=" ">
<polygon fill="white" stroke="#666666" points="1886,-156.5 1732,-156.5 1732,-137.5 1886,-137.5 1886,-156.5"/>
<text text-anchor="middle" x="1809" y="-144.5" font-family="Helvetica,sans-Serif" font-size="10.00">src/d/menu/d_menu_fishing.cpp</text>
</a>
</g>
</g>
<!-- Node4&#45;&gt;Node34 -->
<g id="edge34" class="edge">
<title>Node4&#45;&gt;Node34</title>
<path fill="none" stroke="#63b8ff" d="M1995.39,-194.78C1946.81,-182.59 1883.63,-166.73 1844.71,-156.96"/>
<polygon fill="#63b8ff" stroke="#63b8ff" points="1994.44,-198.15 2004.99,-197.19 1996.14,-191.36 1994.44,-198.15"/>
</g>
<!-- Node35 -->
<g id="node34" class="node">
<title>Node35</title>
<g id="a_node34"><a xlink:href="d__menu__insect_8cpp.html" target="_top" xlink:title=" ">
<polygon fill="white" stroke="#666666" points="2056,-156.5 1904,-156.5 1904,-137.5 2056,-137.5 2056,-156.5"/>
<text text-anchor="middle" x="1980" y="-144.5" font-family="Helvetica,sans-Serif" font-size="10.00">src/d/menu/d_menu_insect.cpp</text>
</a>
</g>
</g>
<!-- Node4&#45;&gt;Node35 -->
<g id="edge35" class="edge">
<title>Node4&#45;&gt;Node35</title>
<path fill="none" stroke="#63b8ff" d="M2036.35,-190.93C2021.15,-179.35 2003.11,-165.61 1991.61,-156.84"/>
<polygon fill="#63b8ff" stroke="#63b8ff" points="2034.08,-193.6 2044.15,-196.88 2038.32,-188.03 2034.08,-193.6"/>
</g>
<!-- Node36 -->
<g id="node35" class="node">
<title>Node36</title>
<g id="a_node35"><a xlink:href="d__menu__letter_8cpp.html" target="_top" xlink:title=" ">
<polygon fill="white" stroke="#666666" points="2222,-156.5 2074,-156.5 2074,-137.5 2222,-137.5 2222,-156.5"/>
<text text-anchor="middle" x="2148" y="-144.5" font-family="Helvetica,sans-Serif" font-size="10.00">src/d/menu/d_menu_letter.cpp</text>
</a>
</g>
</g>
<!-- Node4&#45;&gt;Node36 -->
<g id="edge36" class="edge">
<title>Node4&#45;&gt;Node36</title>
<path fill="none" stroke="#63b8ff" d="M2091.65,-190.93C2106.85,-179.35 2124.89,-165.61 2136.39,-156.84"/>
<polygon fill="#63b8ff" stroke="#63b8ff" points="2089.68,-188.03 2083.85,-196.88 2093.92,-193.6 2089.68,-188.03"/>
</g>
<!-- Node37 -->
<g id="node36" class="node">
<title>Node37</title>
<g id="a_node36"><a xlink:href="d__menu__skill_8cpp.html" target="_top" xlink:title=" ">
<polygon fill="white" stroke="#666666" points="2383.5,-156.5 2240.5,-156.5 2240.5,-137.5 2383.5,-137.5 2383.5,-156.5"/>
<text text-anchor="middle" x="2312" y="-144.5" font-family="Helvetica,sans-Serif" font-size="10.00">src/d/menu/d_menu_skill.cpp</text>
</a>
</g>
</g>
<!-- Node4&#45;&gt;Node37 -->
<g id="edge38" class="edge">
<title>Node4&#45;&gt;Node37</title>
<path fill="none" stroke="#63b8ff" d="M2131.03,-194.7C2178.23,-182.52 2239.5,-166.71 2277.27,-156.96"/>
<polygon fill="#63b8ff" stroke="#63b8ff" points="2130.24,-191.29 2121.43,-197.18 2131.99,-198.07 2130.24,-191.29"/>
</g>
<!-- Node38 -->
<g id="node37" class="node">
<title>Node38</title>
<g id="a_node37"><a xlink:href="d__meter2__info_8cpp.html" target="_top" xlink:title=" ">
<polygon fill="white" stroke="#666666" points="2512,-162 2402,-162 2402,-132 2512,-132 2512,-162"/>
<text text-anchor="start" x="2410" y="-150" font-family="Helvetica,sans-Serif" font-size="10.00">src/d/meter/d_meter2</text>
<text text-anchor="middle" x="2457" y="-139" font-family="Helvetica,sans-Serif" font-size="10.00">_info.cpp</text>
</a>
</g>
</g>
<!-- Node4&#45;&gt;Node38 -->
<g id="edge39" class="edge">
<title>Node4&#45;&gt;Node38</title>
<path fill="none" stroke="#63b8ff" d="M2142.96,-201.34C2209.54,-192.02 2307.25,-177.57 2392,-162 2395.18,-161.42 2398.44,-160.79 2401.73,-160.14"/>
<polygon fill="#63b8ff" stroke="#63b8ff" points="2142.65,-197.85 2133.23,-202.69 2143.62,-204.78 2142.65,-197.85"/>
</g>
<!-- Node39 -->
<g id="node38" class="node">
<title>Node39</title>
<g id="a_node38"><a xlink:href="d__msg__string_8cpp.html" target="_top" xlink:title=" ">
<polygon fill="white" stroke="#666666" points="2670,-156.5 2530,-156.5 2530,-137.5 2670,-137.5 2670,-156.5"/>
<text text-anchor="middle" x="2600" y="-144.5" font-family="Helvetica,sans-Serif" font-size="10.00">src/d/msg/d_msg_string.cpp</text>
</a>
</g>
</g>
<!-- Node4&#45;&gt;Node39 -->
<g id="edge40" class="edge">
<title>Node4&#45;&gt;Node39</title>
<path fill="none" stroke="#63b8ff" d="M2143.29,-204.94C2234.59,-196.43 2388.97,-180.9 2521,-162 2531.2,-160.54 2542.11,-158.75 2552.46,-156.95"/>
<polygon fill="#63b8ff" stroke="#63b8ff" points="2143.07,-201.44 2133.43,-205.85 2143.71,-208.41 2143.07,-201.44"/>
</g>
<!-- Node40 -->
<g id="node39" class="node">
<title>Node40</title>
<g id="a_node39"><a xlink:href="d__pane__class_8cpp.html" target="_top" xlink:title=" ">
<polygon fill="white" stroke="#666666" points="3214.5,-156.5 3071.5,-156.5 3071.5,-137.5 3214.5,-137.5 3214.5,-156.5"/>
<text text-anchor="middle" x="3143" y="-144.5" font-family="Helvetica,sans-Serif" font-size="10.00">src/d/pane/d_pane_class.cpp</text>
</a>
</g>
</g>
<!-- Node4&#45;&gt;Node40 -->
<g id="edge41" class="edge">
<title>Node4&#45;&gt;Node40</title>
<path fill="none" stroke="#63b8ff" d="M2143.27,-209.59C2307.56,-204.2 2697.11,-189.48 3023,-162 3039.09,-160.64 3056.36,-158.84 3072.64,-156.97"/>
<polygon fill="#63b8ff" stroke="#63b8ff" points="2143.22,-206.09 2133.34,-209.91 2143.45,-213.08 2143.22,-206.09"/>
</g>
<!-- Node6 -->
<g id="node6" class="node">
<title>Node6</title>
<g id="a_node6"><a xlink:href="J2DPrint_8cpp.html" target="_top" xlink:title=" ">
<polygon fill="white" stroke="#666666" points="2708.5,-96 2589.5,-96 2589.5,-66 2708.5,-66 2708.5,-96"/>
<text text-anchor="start" x="2597.5" y="-84" font-family="Helvetica,sans-Serif" font-size="10.00">libs/JSystem/J2DGraph</text>
<text text-anchor="middle" x="2649" y="-73" font-family="Helvetica,sans-Serif" font-size="10.00">/J2DPrint.cpp</text>
</a>
</g>
</g>
<!-- Node5&#45;&gt;Node6 -->
<g id="edge5" class="edge">
<title>Node5&#45;&gt;Node6</title>
<path fill="none" stroke="#63b8ff" d="M2750.97,-127.01C2728.78,-117.22 2702.16,-105.46 2681.68,-96.43"/>
<polygon fill="#63b8ff" stroke="#63b8ff" points="2749.51,-130.19 2760.07,-131.03 2752.34,-123.79 2749.51,-130.19"/>
</g>
<!-- Node5&#45;&gt;Node7 -->
<g id="edge6" class="edge">
<title>Node5&#45;&gt;Node7</title>
<path fill="none" stroke="#63b8ff" d="M2719.2,-129.03C2673.02,-118.54 2614.59,-105.28 2571.55,-95.52"/>
<polygon fill="#63b8ff" stroke="#63b8ff" points="2718.36,-132.42 2728.89,-131.22 2719.91,-125.6 2718.36,-132.42"/>
</g>
<!-- Node8 -->
<g id="node8" class="node">
<title>Node8</title>
<g id="a_node8"><a xlink:href="J2DTextBoxEx_8cpp.html" target="_top" xlink:title=" ">
<polygon fill="white" stroke="#666666" points="3006.5,-96 2887.5,-96 2887.5,-66 3006.5,-66 3006.5,-96"/>
<text text-anchor="start" x="2895.5" y="-84" font-family="Helvetica,sans-Serif" font-size="10.00">libs/JSystem/J2DGraph</text>
<text text-anchor="middle" x="2947" y="-73" font-family="Helvetica,sans-Serif" font-size="10.00">/J2DTextBoxEx.cpp</text>
</a>
</g>
</g>
<!-- Node5&#45;&gt;Node8 -->
<g id="edge7" class="edge">
<title>Node5&#45;&gt;Node8</title>
<path fill="none" stroke="#63b8ff" d="M2838.77,-127.27C2862.3,-117.43 2890.71,-105.55 2912.51,-96.43"/>
<polygon fill="#63b8ff" stroke="#63b8ff" points="2837.61,-123.97 2829.73,-131.05 2840.31,-130.42 2837.61,-123.97"/>
</g>
<!-- Node9 -->
<g id="node9" class="node">
<title>Node9</title>
<g id="a_node9"><a xlink:href="m__Do__graphic_8cpp.html" target="_top" xlink:title=" ">
<polygon fill="white" stroke="#666666" points="2869,-90.5 2727,-90.5 2727,-71.5 2869,-71.5 2869,-90.5"/>
<text text-anchor="middle" x="2798" y="-78.5" font-family="Helvetica,sans-Serif" font-size="10.00">src/m_Do/m_Do_graphic.cpp</text>
</a>
</g>
</g>
<!-- Node5&#45;&gt;Node9 -->
<g id="edge8" class="edge">
<title>Node5&#45;&gt;Node9</title>
<path fill="none" stroke="#63b8ff" d="M2795.59,-120.59C2796.25,-110.06 2796.97,-98.53 2797.45,-90.84"/>
<polygon fill="#63b8ff" stroke="#63b8ff" points="2792.11,-120.09 2794.98,-130.29 2799.1,-120.52 2792.11,-120.09"/>
</g>
<!-- Node10&#45;&gt;Node8 -->
<g id="edge11" class="edge">
<title>Node10&#45;&gt;Node8</title>
<path fill="none" stroke="#63b8ff" d="M2947,-120.39C2947,-112.13 2947,-103.28 2947,-96.16"/>
<polygon fill="#63b8ff" stroke="#63b8ff" points="2943.5,-120.28 2947,-130.28 2950.5,-120.28 2943.5,-120.28"/>
</g>
<!-- Node11 -->
<g id="node11" class="node">
<title>Node11</title>
<g id="a_node11"><a xlink:href="J2DScreen_8cpp.html" target="_top" xlink:title=" ">
<polygon fill="white" stroke="#666666" points="3143.5,-96 3024.5,-96 3024.5,-66 3143.5,-66 3143.5,-96"/>
<text text-anchor="start" x="3032.5" y="-84" font-family="Helvetica,sans-Serif" font-size="10.00">libs/JSystem/J2DGraph</text>
<text text-anchor="middle" x="3084" y="-73" font-family="Helvetica,sans-Serif" font-size="10.00">/J2DScreen.cpp</text>
</a>
</g>
</g>
<!-- Node10&#45;&gt;Node11 -->
<g id="edge10" class="edge">
<title>Node10&#45;&gt;Node11</title>
<path fill="none" stroke="#63b8ff" d="M2987.98,-126.86C3008.96,-117.05 3034.08,-105.32 3053.36,-96.31"/>
<polygon fill="#63b8ff" stroke="#63b8ff" points="2986.7,-123.59 2979.12,-131 2989.66,-129.94 2986.7,-123.59"/>
</g>
<!-- Node13 -->
<g id="node13" class="node">
<title>Node13</title>
<g id="a_node13"><a xlink:href="d__menu__calibration_8cpp.html" target="_top" xlink:title=" ">
<polygon fill="white" stroke="#666666" points="1067,-90.5 897,-90.5 897,-71.5 1067,-71.5 1067,-90.5"/>
<text text-anchor="middle" x="982" y="-78.5" font-family="Helvetica,sans-Serif" font-size="10.00">src/d/menu/d_menu_calibration.cpp</text>
</a>
</g>
</g>
<!-- Node12&#45;&gt;Node13 -->
<g id="edge13" class="edge">
<title>Node12&#45;&gt;Node13</title>
<path fill="none" stroke="#63b8ff" d="M887.61,-126.75C912.64,-114.88 943.57,-100.22 963.05,-90.99"/>
<polygon fill="#63b8ff" stroke="#63b8ff" points="886.2,-123.54 878.66,-130.99 889.2,-129.87 886.2,-123.54"/>
</g>
<!-- Node12&#45;&gt;Node14 -->
<g id="edge14" class="edge">
<title>Node12&#45;&gt;Node14</title>
<path fill="none" stroke="#63b8ff" d="M830.92,-122.61C823.32,-111.56 814.71,-99.03 809.08,-90.84"/>
<polygon fill="#63b8ff" stroke="#63b8ff" points="827.83,-124.29 836.38,-130.55 833.6,-120.33 827.83,-124.29"/>
</g>
<!-- Node16 -->
<g id="node16" class="node">
<title>Node16</title>
<g id="a_node16"><a xlink:href="d__msg__scrn__boss_8h.html" target="_top" xlink:title=" ">
<polygon fill="white" stroke="#666666" points="583.5,-96 484.5,-96 484.5,-66 583.5,-66 583.5,-96"/>
<text text-anchor="start" x="492.5" y="-84" font-family="Helvetica,sans-Serif" font-size="10.00">include/msg/scrn/d</text>
<text text-anchor="middle" x="534" y="-73" font-family="Helvetica,sans-Serif" font-size="10.00">_msg_scrn_boss.h</text>
</a>
</g>
</g>
<!-- Node15&#45;&gt;Node16 -->
<g id="edge16" class="edge">
<title>Node15&#45;&gt;Node16</title>
<path fill="none" stroke="#63b8ff" d="M450.21,-126.32C468.53,-116.63 490.22,-105.16 506.94,-96.31"/>
<polygon fill="#63b8ff" stroke="#63b8ff" points="448.7,-123.16 441.49,-130.93 451.97,-129.35 448.7,-123.16"/>
</g>
<!-- Node18 -->
<g id="node18" class="node">
<title>Node18</title>
<g id="a_node18"><a xlink:href="d__msg__scrn__explain_8h.html" target="_top" xlink:title=" ">
<polygon fill="white" stroke="#666666" points="708.5,-96 601.5,-96 601.5,-66 708.5,-66 708.5,-96"/>
<text text-anchor="start" x="609.5" y="-84" font-family="Helvetica,sans-Serif" font-size="10.00">include/msg/scrn/d</text>
<text text-anchor="middle" x="655" y="-73" font-family="Helvetica,sans-Serif" font-size="10.00">_msg_scrn_explain.h</text>
</a>
</g>
</g>
<!-- Node15&#45;&gt;Node18 -->
<g id="edge18" class="edge">
<title>Node15&#45;&gt;Node18</title>
<path fill="none" stroke="#63b8ff" d="M473.82,-129.91C512.94,-119.57 563.31,-106.25 601.01,-96.28"/>
<polygon fill="#63b8ff" stroke="#63b8ff" points="473.09,-126.49 464.31,-132.43 474.87,-133.26 473.09,-126.49"/>
</g>
<!-- Node21 -->
<g id="node21" class="node">
<title>Node21</title>
<g id="a_node21"><a xlink:href="d__msg__scrn__place_8h.html" target="_top" xlink:title=" ">
<polygon fill="white" stroke="#666666" points="106.5,-96 5.5,-96 5.5,-66 106.5,-66 106.5,-96"/>
<text text-anchor="start" x="13.5" y="-84" font-family="Helvetica,sans-Serif" font-size="10.00">include/msg/scrn/d</text>
<text text-anchor="middle" x="56" y="-73" font-family="Helvetica,sans-Serif" font-size="10.00">_msg_scrn_place.h</text>
</a>
</g>
</g>
<!-- Node15&#45;&gt;Node21 -->
<g id="edge21" class="edge">
<title>Node15&#45;&gt;Node21</title>
<path fill="none" stroke="#63b8ff" d="M351.97,-136.87C291.78,-127.59 197.27,-112.31 116,-96 112.96,-95.39 109.84,-94.74 106.69,-94.06"/>
<polygon fill="#63b8ff" stroke="#63b8ff" points="351.25,-140.3 361.67,-138.35 352.32,-133.38 351.25,-140.3"/>
</g>
<!-- Node23 -->
<g id="node23" class="node">
<title>Node23</title>
<g id="a_node23"><a xlink:href="d__msg__scrn__staff_8h.html" target="_top" xlink:title=" ">
<polygon fill="white" stroke="#666666" points="224.5,-96 125.5,-96 125.5,-66 224.5,-66 224.5,-96"/>
<text text-anchor="start" x="133.5" y="-84" font-family="Helvetica,sans-Serif" font-size="10.00">include/msg/scrn/d</text>
<text text-anchor="middle" x="175" y="-73" font-family="Helvetica,sans-Serif" font-size="10.00">_msg_scrn_staff.h</text>
</a>
</g>
</g>
<!-- Node15&#45;&gt;Node23 -->
<g id="edge23" class="edge">
<title>Node15&#45;&gt;Node23</title>
<path fill="none" stroke="#63b8ff" d="M352.04,-129.61C312.59,-119 261.86,-105.36 224.83,-95.4"/>
<polygon fill="#63b8ff" stroke="#63b8ff" points="351.08,-132.97 361.65,-132.19 352.9,-126.21 351.08,-132.97"/>
</g>
<!-- Node25 -->
<g id="node25" class="node">
<title>Node25</title>
<g id="a_node25"><a xlink:href="d__msg__scrn__tree_8h.html" target="_top" xlink:title=" ">
<polygon fill="#fff0f0" stroke="red" points="341.5,-96 242.5,-96 242.5,-66 341.5,-66 341.5,-96"/>
<text text-anchor="start" x="250.5" y="-84" font-family="Helvetica,sans-Serif" font-size="10.00">include/msg/scrn/d</text>
<text text-anchor="middle" x="292" y="-73" font-family="Helvetica,sans-Serif" font-size="10.00">_msg_scrn_tree.h</text>
</a>
</g>
</g>
<!-- Node15&#45;&gt;Node25 -->
<g id="edge25" class="edge">
<title>Node15&#45;&gt;Node25</title>
<path fill="none" stroke="#63b8ff" d="M375.79,-126.32C357.47,-116.63 335.78,-105.16 319.06,-96.31"/>
<polygon fill="#63b8ff" stroke="#63b8ff" points="374.03,-129.35 384.51,-130.93 377.3,-123.16 374.03,-129.35"/>
</g>
<!-- Node27 -->
<g id="node26" class="node">
<title>Node27</title>
<g id="a_node26"><a xlink:href="d__msg__scrn__base_8cpp.html" target="_top" xlink:title=" ">
<polygon fill="white" stroke="#666666" points="466,-96 360,-96 360,-66 466,-66 466,-96"/>
<text text-anchor="start" x="368" y="-84" font-family="Helvetica,sans-Serif" font-size="10.00">src/msg/scrn/d_msg</text>
<text text-anchor="middle" x="413" y="-73" font-family="Helvetica,sans-Serif" font-size="10.00">_scrn_base.cpp</text>
</a>
</g>
</g>
<!-- Node15&#45;&gt;Node27 -->
<g id="edge26" class="edge">
<title>Node15&#45;&gt;Node27</title>
<path fill="none" stroke="#63b8ff" d="M413,-120.39C413,-112.13 413,-103.28 413,-96.16"/>
<polygon fill="#63b8ff" stroke="#63b8ff" points="409.5,-120.28 413,-130.28 416.5,-120.28 409.5,-120.28"/>
</g>
<!-- Node17 -->
<g id="node17" class="node">
<title>Node17</title>
<g id="a_node17"><a xlink:href="d__msg__scrn__boss_8cpp.html" target="_top" xlink:title=" ">
<polygon fill="white" stroke="#666666" points="584,-30 478,-30 478,0 584,0 584,-30"/>
<text text-anchor="start" x="486" y="-18" font-family="Helvetica,sans-Serif" font-size="10.00">src/msg/scrn/d_msg</text>
<text text-anchor="middle" x="531" y="-7" font-family="Helvetica,sans-Serif" font-size="10.00">_scrn_boss.cpp</text>
</a>
</g>
</g>
<!-- Node16&#45;&gt;Node17 -->
<g id="edge17" class="edge">
<title>Node16&#45;&gt;Node17</title>
<path fill="none" stroke="#63b8ff" d="M532.8,-54.39C532.41,-46.13 532,-37.28 531.66,-30.16"/>
<polygon fill="#63b8ff" stroke="#63b8ff" points="529.3,-54.46 533.26,-64.28 536.29,-54.13 529.3,-54.46"/>
</g>
<!-- Node19 -->
<g id="node19" class="node">
<title>Node19</title>
<g id="a_node19"><a xlink:href="d__menu__save_8cpp.html" target="_top" xlink:title=" ">
<polygon fill="white" stroke="#666666" points="873.5,-24.5 726.5,-24.5 726.5,-5.5 873.5,-5.5 873.5,-24.5"/>
<text text-anchor="middle" x="800" y="-12.5" font-family="Helvetica,sans-Serif" font-size="10.00">src/d/menu/d_menu_save.cpp</text>
</a>
</g>
</g>
<!-- Node18&#45;&gt;Node19 -->
<g id="edge19" class="edge">
<title>Node18&#45;&gt;Node19</title>
<path fill="none" stroke="#63b8ff" d="M697.9,-61.06C724.91,-49.14 758.54,-34.3 779.64,-24.99"/>
<polygon fill="#63b8ff" stroke="#63b8ff" points="696.66,-57.79 688.93,-65.03 699.49,-64.19 696.66,-57.79"/>
</g>
<!-- Node20 -->
<g id="node20" class="node">
<title>Node20</title>
<g id="a_node20"><a xlink:href="d__msg__scrn__explain_8cpp.html" target="_top" xlink:title=" ">
<polygon fill="white" stroke="#666666" points="708,-30 602,-30 602,0 708,0 708,-30"/>
<text text-anchor="start" x="610" y="-18" font-family="Helvetica,sans-Serif" font-size="10.00">src/msg/scrn/d_msg</text>
<text text-anchor="middle" x="655" y="-7" font-family="Helvetica,sans-Serif" font-size="10.00">_scrn_explain.cpp</text>
</a>
</g>
</g>
<!-- Node18&#45;&gt;Node20 -->
<g id="edge20" class="edge">
<title>Node18&#45;&gt;Node20</title>
<path fill="none" stroke="#63b8ff" d="M655,-54.39C655,-46.13 655,-37.28 655,-30.16"/>
<polygon fill="#63b8ff" stroke="#63b8ff" points="651.5,-54.28 655,-64.28 658.5,-54.28 651.5,-54.28"/>
</g>
<!-- Node22 -->
<g id="node22" class="node">
<title>Node22</title>
<g id="a_node22"><a xlink:href="d__msg__scrn__place_8cpp.html" target="_top" xlink:title=" ">
<polygon fill="white" stroke="#666666" points="106,-30 0,-30 0,0 106,0 106,-30"/>
<text text-anchor="start" x="8" y="-18" font-family="Helvetica,sans-Serif" font-size="10.00">src/msg/scrn/d_msg</text>
<text text-anchor="middle" x="53" y="-7" font-family="Helvetica,sans-Serif" font-size="10.00">_scrn_place.cpp</text>
</a>
</g>
</g>
<!-- Node21&#45;&gt;Node22 -->
<g id="edge22" class="edge">
<title>Node21&#45;&gt;Node22</title>
<path fill="none" stroke="#63b8ff" d="M54.8,-54.39C54.41,-46.13 54,-37.28 53.66,-30.16"/>
<polygon fill="#63b8ff" stroke="#63b8ff" points="51.3,-54.46 55.26,-64.28 58.29,-54.13 51.3,-54.46"/>
</g>
<!-- Node24 -->
<g id="node24" class="node">
<title>Node24</title>
<g id="a_node24"><a xlink:href="d__msg__scrn__staff_8cpp.html" target="_top" xlink:title=" ">
<polygon fill="white" stroke="#666666" points="230,-30 124,-30 124,0 230,0 230,-30"/>
<text text-anchor="start" x="132" y="-18" font-family="Helvetica,sans-Serif" font-size="10.00">src/msg/scrn/d_msg</text>
<text text-anchor="middle" x="177" y="-7" font-family="Helvetica,sans-Serif" font-size="10.00">_scrn_staff.cpp</text>
</a>
</g>
</g>
<!-- Node23&#45;&gt;Node24 -->
<g id="edge24" class="edge">
<title>Node23&#45;&gt;Node24</title>
<path fill="none" stroke="#63b8ff" d="M175.8,-54.39C176.06,-46.13 176.33,-37.28 176.56,-30.16"/>
<polygon fill="#63b8ff" stroke="#63b8ff" points="172.31,-54.18 175.49,-64.28 179.3,-54.4 172.31,-54.18"/>
</g>
<!-- Node41&#45;&gt;Node40 -->
<g id="edge47" class="edge">
<title>Node41&#45;&gt;Node40</title>
<path fill="none" stroke="#63b8ff" d="M3235.99,-192.75C3211.33,-180.88 3180.86,-166.22 3161.67,-156.99"/>
<polygon fill="#63b8ff" stroke="#63b8ff" points="3234.26,-195.8 3244.79,-196.98 3237.3,-189.49 3234.26,-195.8"/>
</g>
<!-- Node42 -->
<g id="node41" class="node">
<title>Node42</title>
<g id="a_node41"><a xlink:href="J2DWindowEx_8h.html" target="_top" xlink:title=" ">
<polygon fill="white" stroke="#666666" points="3504.5,-162 3369.5,-162 3369.5,-132 3504.5,-132 3504.5,-162"/>
<text text-anchor="start" x="3377.5" y="-150" font-family="Helvetica,sans-Serif" font-size="10.00">include/JSystem/J2DGraph</text>
<text text-anchor="middle" x="3437" y="-139" font-family="Helvetica,sans-Serif" font-size="10.00">/J2DWindowEx.h</text>
</a>
</g>
</g>
<!-- Node41&#45;&gt;Node42 -->
<g id="edge43" class="edge">
<title>Node41&#45;&gt;Node42</title>
<path fill="none" stroke="#63b8ff" d="M3322.77,-193.41C3347.6,-183.54 3377.66,-171.59 3400.71,-162.43"/>
<polygon fill="#63b8ff" stroke="#63b8ff" points="3321.54,-190.13 3313.54,-197.08 3324.12,-196.64 3321.54,-190.13"/>
</g>
<!-- Node44 -->
<g id="node43" class="node">
<title>Node44</title>
<g id="a_node43"><a xlink:href="J2DWindow_8cpp.html" target="_top" xlink:title=" ">
<polygon fill="white" stroke="#666666" points="3351.5,-162 3232.5,-162 3232.5,-132 3351.5,-132 3351.5,-162"/>
<text text-anchor="start" x="3240.5" y="-150" font-family="Helvetica,sans-Serif" font-size="10.00">libs/JSystem/J2DGraph</text>
<text text-anchor="middle" x="3292" y="-139" font-family="Helvetica,sans-Serif" font-size="10.00">/J2DWindow.cpp</text>
</a>
</g>
</g>
<!-- Node41&#45;&gt;Node44 -->
<g id="edge46" class="edge">
<title>Node41&#45;&gt;Node44</title>
<path fill="none" stroke="#63b8ff" d="M3282.33,-186.68C3284.42,-178.34 3286.66,-169.37 3288.46,-162.16"/>
<polygon fill="#63b8ff" stroke="#63b8ff" points="3278.95,-185.78 3279.92,-196.33 3285.74,-187.48 3278.95,-185.78"/>
</g>
<!-- Node42&#45;&gt;Node11 -->
<g id="edge44" class="edge">
<title>Node42&#45;&gt;Node11</title>
<path fill="none" stroke="#63b8ff" d="M3358.08,-131.65C3277.84,-117.09 3197.16,-102.48 3143.76,-92.82"/>
<polygon fill="#63b8ff" stroke="#63b8ff" points="3357.44,-135.09 3367.91,-133.44 3358.69,-128.21 3357.44,-135.09"/>
</g>
<!-- Node43 -->
<g id="node42" class="node">
<title>Node43</title>
<g id="a_node42"><a xlink:href="J2DWindowEx_8cpp.html" target="_top" xlink:title=" ">
<polygon fill="white" stroke="#666666" points="3496.5,-96 3377.5,-96 3377.5,-66 3496.5,-66 3496.5,-96"/>
<text text-anchor="start" x="3385.5" y="-84" font-family="Helvetica,sans-Serif" font-size="10.00">libs/JSystem/J2DGraph</text>
<text text-anchor="middle" x="3437" y="-73" font-family="Helvetica,sans-Serif" font-size="10.00">/J2DWindowEx.cpp</text>
</a>
</g>
</g>
<!-- Node42&#45;&gt;Node43 -->
<g id="edge45" class="edge">
<title>Node42&#45;&gt;Node43</title>
<path fill="none" stroke="#63b8ff" d="M3437,-120.39C3437,-112.13 3437,-103.28 3437,-96.16"/>
<polygon fill="#63b8ff" stroke="#63b8ff" points="3433.5,-120.28 3437,-130.28 3440.5,-120.28 3433.5,-120.28"/>
</g>
<!-- Node48&#45;&gt;Node46 -->
<g id="edge52" class="edge">
<title>Node48&#45;&gt;Node46</title>
<path fill="none" stroke="#63b8ff" d="M3376.97,-256.09C3387.07,-246.85 3398.54,-236.36 3407.51,-228.16"/>
<polygon fill="#63b8ff" stroke="#63b8ff" points="3374.67,-253.44 3369.65,-262.78 3379.39,-258.61 3374.67,-253.44"/>
</g>
<!-- Node51&#45;&gt;Node11 -->
<g id="edge57" class="edge">
<title>Node51&#45;&gt;Node11</title>
<path fill="none" stroke="#63b8ff" d="M2933.22,-255.8C2956.68,-233 2993.56,-196.13 3023,-162 3042.05,-139.92 3062.21,-112.6 3073.92,-96.28"/>
<polygon fill="#63b8ff" stroke="#63b8ff" points="2931.07,-253.01 2926.31,-262.48 2935.93,-258.04 2931.07,-253.01"/>
</g>
<!-- Node51&#45;&gt;Node47 -->
<g id="edge56" class="edge">
<title>Node51&#45;&gt;Node47</title>
<path fill="none" stroke="#63b8ff" d="M2831.09,-277.68C2671.17,-276.15 2297.65,-268.17 1987,-228 1984.37,-227.66 1981.69,-227.28 1978.99,-226.86"/>
<polygon fill="#63b8ff" stroke="#63b8ff" points="2830.69,-281.17 2840.72,-277.76 2830.75,-274.17 2830.69,-281.17"/>
</g>
</g>
</svg>
        <g id="navigator" transform="translate(0 0)" fill="#404254">
                <rect fill="#f2f5e9" fill-opacity="0.5" stroke="#606060" stroke-width=".5" x="0" y="0" width="60" height="60"/>
                <use id="zoomplus" xlink:href="#zoomPlus" x="17" y="9" onmousedown="handleZoom(evt,'in')"/>
                <use id="zoomminus" xlink:href="#zoomMin" x="42" y="9" onmousedown="handleZoom(evt,'out')"/>
                <use id="reset" xlink:href="#resetDef" x="30" y="36" onmousedown="handleReset()"/>
                <g id="arrowUp" xlink:href="#dirArrow" transform="translate(30 24)" onmousedown="handlePan(0,-1)">
                  <use xlink:href="#rim" fill="#404040">
                        <set attributeName="fill" to="#808080" begin="arrowUp.mouseover" end="arrowUp.mouseout"/>
                  </use>
                  <path fill="none" stroke="white" stroke-width="1.5" d="M0,-3.0v7 M-2.5,-0.5L0,-3.0L2.5,-0.5"/>
                </g>
                <g id="arrowRight" xlink:href="#dirArrow" transform="rotate(90) translate(36 -43)" onmousedown="handlePan(1,0)">
                  <use xlink:href="#rim" fill="#404040">
                        <set attributeName="fill" to="#808080" begin="arrowRight.mouseover" end="arrowRight.mouseout"/>
                  </use>
                  <path fill="none" stroke="white" stroke-width="1.5" d="M0,-3.0v7 M-2.5,-0.5L0,-3.0L2.5,-0.5"/>
                </g>
                <g id="arrowDown" xlink:href="#dirArrow" transform="rotate(180) translate(-30 -48)" onmousedown="handlePan(0,1)">
                  <use xlink:href="#rim" fill="#404040">
                        <set attributeName="fill" to="#808080" begin="arrowDown.mouseover" end="arrowDown.mouseout"/>
                  </use>
                  <path fill="none" stroke="white" stroke-width="1.5" d="M0,-3.0v7 M-2.5,-0.5L0,-3.0L2.5,-0.5"/>
                </g>
                <g id="arrowLeft" xlink:href="#dirArrow" transform="rotate(270) translate(-36 17)" onmousedown="handlePan(-1,0)">
                  <use xlink:href="#rim" fill="#404040">
                        <set attributeName="fill" to="#808080" begin="arrowLeft.mouseover" end="arrowLeft.mouseout"/>
                  </use>
                  <path fill="none" stroke="white" stroke-width="1.5" d="M0,-3.0v7 M-2.5,-0.5L0,-3.0L2.5,-0.5"/>
                </g>
        </g>
        <svg viewBox="0 0 15 15" width="100%" height="30px" preserveAspectRatio="xMaxYMin meet">
         <g id="arrow_out" transform="scale(0.3 0.3)">
          <a xlink:href="J2DTevs_8h__dep__incl_org.svg" target="_base">
           <rect id="button" ry="5" rx="5" y="6" x="6" height="38" width="38"
                fill="#f2f5e9" fill-opacity="0.5" stroke="#606060" stroke-width="1.0"/>
           <path id="arrow"
             d="M 11.500037,31.436501 C 11.940474,20.09759 22.043105,11.32322 32.158766,21.979434 L 37.068811,17.246167 C 37.068811,17.246167 37.088388,32 37.088388,32 L 22.160133,31.978069 C 22.160133,31.978069 26.997745,27.140456 26.997745,27.140456 C 18.528582,18.264221 13.291696,25.230495 11.500037,31.436501 z"
             style="fill:#404040;"/>
          </a>
         </g>
        </svg>
</svg>
