<?xml version="1.0" encoding="UTF-8" standalone="no"?>
<!DOCTYPE svg PUBLIC "-//W3C//DTD SVG 1.1//EN"
 "http://www.w3.org/Graphics/SVG/1.1/DTD/svg11.dtd">
<!-- Generated by graphviz version 7.0.5 (20221223.1930)
 -->
<!-- Title: include/JSystem/J3DGraphBase/J3DGD.h Pages: 1 -->
<svg width="1356pt" height="489pt"
 viewBox="0.00 0.00 1356.00 489.00" xmlns="http://www.w3.org/2000/svg" xmlns:xlink="http://www.w3.org/1999/xlink">
<g id="graph0" class="graph" transform="scale(1 1) rotate(0) translate(4 485)">
<title>include/JSystem/J3DGraphBase/J3DGD.h</title>
<!-- Node1 -->
<g id="node1" class="node">
<title>Node1</title>
<g id="a_node1"><a xlink:title=" ">
<polygon fill="#999999" stroke="#666666" points="958.5,-481 823.5,-481 823.5,-451 958.5,-451 958.5,-481"/>
<text text-anchor="start" x="831.5" y="-469" font-family="Helvetica,sans-Serif" font-size="10.00">include/JSystem/J3DGraph</text>
<text text-anchor="middle" x="891" y="-458" font-family="Helvetica,sans-Serif" font-size="10.00">Base/J3DGD.h</text>
</a>
</g>
</g>
<!-- Node2 -->
<g id="node2" class="node">
<title>Node2</title>
<g id="a_node2"><a xlink:href="GX_8h.html" target="_top" xlink:title=" ">
<polygon fill="white" stroke="#666666" points="664.5,-415 579.5,-415 579.5,-396 664.5,-396 664.5,-415"/>
<text text-anchor="middle" x="622" y="-403" font-family="Helvetica,sans-Serif" font-size="10.00">dolphin/gx/GX.h</text>
</a>
</g>
</g>
<!-- Node1&#45;&gt;Node2 -->
<g id="edge1" class="edge">
<title>Node1&#45;&gt;Node2</title>
<path fill="none" stroke="#63b8ff" d="M824.51,-450.54C778.09,-440.44 717.01,-427.16 674.11,-417.83"/>
<polygon fill="#63b8ff" stroke="#63b8ff" points="675.07,-414.46 664.55,-415.75 673.58,-421.3 675.07,-414.46"/>
</g>
<!-- Node28 -->
<g id="node28" class="node">
<title>Node28</title>
<g id="a_node28"><a xlink:href="GDBase_8h.html" target="_top" xlink:title=" ">
<polygon fill="white" stroke="#666666" points="1348,-140 1240,-140 1240,-121 1348,-121 1348,-140"/>
<text text-anchor="middle" x="1294" y="-128" font-family="Helvetica,sans-Serif" font-size="10.00">dolphin/gd/GDBase.h</text>
</a>
</g>
</g>
<!-- Node1&#45;&gt;Node28 -->
<g id="edge50" class="edge">
<title>Node1&#45;&gt;Node28</title>
<path fill="none" stroke="#63b8ff" d="M958.84,-457.26C1061.63,-443.62 1245,-410.96 1245,-351.5 1245,-351.5 1245,-351.5 1245,-239.5 1245,-205.33 1265.59,-170.07 1280.08,-149.5"/>
<polygon fill="#63b8ff" stroke="#63b8ff" points="1282.77,-151.76 1285.87,-141.63 1277.13,-147.61 1282.77,-151.76"/>
</g>
<!-- Node3 -->
<g id="node3" class="node">
<title>Node3</title>
<g id="a_node3"><a xlink:href="GXAttr_8h.html" target="_top" xlink:title=" ">
<polygon fill="white" stroke="#666666" points="370.5,-360 269.5,-360 269.5,-341 370.5,-341 370.5,-360"/>
<text text-anchor="middle" x="320" y="-348" font-family="Helvetica,sans-Serif" font-size="10.00">dolphin/gx/GXAttr.h</text>
</a>
</g>
</g>
<!-- Node2&#45;&gt;Node3 -->
<g id="edge2" class="edge">
<title>Node2&#45;&gt;Node3</title>
<path fill="none" stroke="#63b8ff" d="M579.05,-396.96C527.5,-387.91 440.65,-372.67 381.87,-362.36"/>
<polygon fill="#63b8ff" stroke="#63b8ff" points="382.81,-358.97 372.36,-360.69 381.6,-365.86 382.81,-358.97"/>
</g>
<!-- Node7 -->
<g id="node7" class="node">
<title>Node7</title>
<g id="a_node7"><a xlink:href="GXBump_8h.html" target="_top" xlink:title=" ">
<polygon fill="white" stroke="#666666" points="499,-360 389,-360 389,-341 499,-341 499,-360"/>
<text text-anchor="middle" x="444" y="-348" font-family="Helvetica,sans-Serif" font-size="10.00">dolphin/gx/GXBump.h</text>
</a>
</g>
</g>
<!-- Node2&#45;&gt;Node7 -->
<g id="edge6" class="edge">
<title>Node2&#45;&gt;Node7</title>
<path fill="none" stroke="#63b8ff" d="M591.8,-395.51C562.44,-386.76 517.6,-373.42 485.02,-363.71"/>
<polygon fill="#63b8ff" stroke="#63b8ff" points="486.08,-360.38 475.5,-360.88 484.08,-367.09 486.08,-360.38"/>
</g>
<!-- Node8 -->
<g id="node8" class="node">
<title>Node8</title>
<g id="a_node8"><a xlink:href="GXDisplayList_8h.html" target="_top" xlink:title=" ">
<polygon fill="white" stroke="#666666" points="1100.5,-140 967.5,-140 967.5,-121 1100.5,-121 1100.5,-140"/>
<text text-anchor="middle" x="1034" y="-128" font-family="Helvetica,sans-Serif" font-size="10.00">dolphin/gx/GXDisplayList.h</text>
</a>
</g>
</g>
<!-- Node2&#45;&gt;Node8 -->
<g id="edge8" class="edge">
<title>Node2&#45;&gt;Node8</title>
<path fill="none" stroke="#63b8ff" d="M664.86,-404C783.07,-401.45 1105,-386.29 1105,-296.5 1105,-296.5 1105,-296.5 1105,-239.5 1105,-201.97 1074.7,-167.38 1053.68,-147.91"/>
<polygon fill="#63b8ff" stroke="#63b8ff" points="1056.03,-145.31 1046.23,-141.3 1051.39,-150.55 1056.03,-145.31"/>
</g>
<!-- Node9 -->
<g id="node9" class="node">
<title>Node9</title>
<g id="a_node9"><a xlink:href="GXFifo_8h.html" target="_top" xlink:title=" ">
<polygon fill="white" stroke="#666666" points="812.5,-305 711.5,-305 711.5,-286 812.5,-286 812.5,-305"/>
<text text-anchor="middle" x="762" y="-293" font-family="Helvetica,sans-Serif" font-size="10.00">dolphin/gx/GXFifo.h</text>
</a>
</g>
</g>
<!-- Node2&#45;&gt;Node9 -->
<g id="edge10" class="edge">
<title>Node2&#45;&gt;Node9</title>
<path fill="none" stroke="#63b8ff" d="M633.46,-395.66C657.15,-377.39 711.79,-335.23 741.64,-312.21"/>
<polygon fill="#63b8ff" stroke="#63b8ff" points="743.41,-315.26 749.19,-306.38 739.13,-309.72 743.41,-315.26"/>
</g>
<!-- Node14 -->
<g id="node14" class="node">
<title>Node14</title>
<g id="a_node14"><a xlink:href="GXFrameBuf_8h.html" target="_top" xlink:title=" ">
<polygon fill="white" stroke="#666666" points="568,-305 440,-305 440,-286 568,-286 568,-305"/>
<text text-anchor="middle" x="504" y="-293" font-family="Helvetica,sans-Serif" font-size="10.00">dolphin/gx/GXFrameBuf.h</text>
</a>
</g>
</g>
<!-- Node2&#45;&gt;Node14 -->
<g id="edge18" class="edge">
<title>Node2&#45;&gt;Node14</title>
<path fill="none" stroke="#63b8ff" d="M617.72,-395.81C610.93,-382.7 596.64,-357.62 579,-341 565.88,-328.64 548.73,-318.15 534.15,-310.46"/>
<polygon fill="#63b8ff" stroke="#63b8ff" points="535.93,-307.44 525.42,-306.06 532.77,-313.69 535.93,-307.44"/>
</g>
<!-- Node15 -->
<g id="node15" class="node">
<title>Node15</title>
<g id="a_node15"><a xlink:href="GXGeometry_8h.html" target="_top" xlink:title=" ">
<polygon fill="white" stroke="#666666" points="251.5,-360 124.5,-360 124.5,-341 251.5,-341 251.5,-360"/>
<text text-anchor="middle" x="188" y="-348" font-family="Helvetica,sans-Serif" font-size="10.00">dolphin/gx/GXGeometry.h</text>
</a>
</g>
</g>
<!-- Node2&#45;&gt;Node15 -->
<g id="edge21" class="edge">
<title>Node2&#45;&gt;Node15</title>
<path fill="none" stroke="#63b8ff" d="M579.2,-399.27C505.68,-390.29 354.51,-371.83 263.12,-360.67"/>
<polygon fill="#63b8ff" stroke="#63b8ff" points="263.58,-357.2 253.23,-359.47 262.73,-364.15 263.58,-357.2"/>
</g>
<!-- Node16 -->
<g id="node16" class="node">
<title>Node16</title>
<g id="a_node16"><a xlink:href="GXLight_8h.html" target="_top" xlink:title=" ">
<polygon fill="white" stroke="#666666" points="693.5,-305 586.5,-305 586.5,-286 693.5,-286 693.5,-305"/>
<text text-anchor="middle" x="640" y="-293" font-family="Helvetica,sans-Serif" font-size="10.00">dolphin/gx/GXLight.h</text>
</a>
</g>
</g>
<!-- Node2&#45;&gt;Node16 -->
<g id="edge23" class="edge">
<title>Node2&#45;&gt;Node16</title>
<path fill="none" stroke="#63b8ff" d="M623.47,-395.66C626.33,-378.5 632.71,-340.26 636.65,-316.6"/>
<polygon fill="#63b8ff" stroke="#63b8ff" points="640.07,-317.39 638.26,-306.95 633.16,-316.24 640.07,-317.39"/>
</g>
<!-- Node17 -->
<g id="node17" class="node">
<title>Node17</title>
<g id="a_node17"><a xlink:href="GXMisc_8h.html" target="_top" xlink:title=" ">
<polygon fill="white" stroke="#666666" points="106,-360 0,-360 0,-341 106,-341 106,-360"/>
<text text-anchor="middle" x="53" y="-348" font-family="Helvetica,sans-Serif" font-size="10.00">dolphin/gx/GXMisc.h</text>
</a>
</g>
</g>
<!-- Node2&#45;&gt;Node17 -->
<g id="edge26" class="edge">
<title>Node2&#45;&gt;Node17</title>
<path fill="none" stroke="#63b8ff" d="M579.2,-401.45C493.65,-395.2 295.22,-379.95 117.8,-360.26"/>
<polygon fill="#63b8ff" stroke="#63b8ff" points="118.24,-356.79 107.92,-359.16 117.47,-363.75 118.24,-356.79"/>
</g>
<!-- Node18 -->
<g id="node18" class="node">
<title>Node18</title>
<g id="a_node18"><a xlink:href="GXPerf_8h.html" target="_top" xlink:title=" ">
<polygon fill="white" stroke="#666666" points="1221.5,-140 1118.5,-140 1118.5,-121 1221.5,-121 1221.5,-140"/>
<text text-anchor="middle" x="1170" y="-128" font-family="Helvetica,sans-Serif" font-size="10.00">dolphin/gx/GXPerf.h</text>
</a>
</g>
</g>
<!-- Node2&#45;&gt;Node18 -->
<g id="edge28" class="edge">
<title>Node2&#45;&gt;Node18</title>
<path fill="none" stroke="#63b8ff" d="M664.98,-405.04C793.18,-405.51 1164,-398.08 1164,-296.5 1164,-296.5 1164,-296.5 1164,-239.5 1164,-208.88 1166.43,-173.44 1168.2,-151.75"/>
<polygon fill="#63b8ff" stroke="#63b8ff" points="1171.68,-152.22 1169.04,-141.96 1164.7,-151.63 1171.68,-152.22"/>
</g>
<!-- Node19 -->
<g id="node19" class="node">
<title>Node19</title>
<g id="a_node19"><a xlink:href="GXPixel_8h.html" target="_top" xlink:title=" ">
<polygon fill="white" stroke="#666666" points="302,-305 196,-305 196,-286 302,-286 302,-305"/>
<text text-anchor="middle" x="249" y="-293" font-family="Helvetica,sans-Serif" font-size="10.00">dolphin/gx/GXPixel.h</text>
</a>
</g>
</g>
<!-- Node2&#45;&gt;Node19 -->
<g id="edge30" class="edge">
<title>Node2&#45;&gt;Node19</title>
<path fill="none" stroke="#63b8ff" d="M605.5,-395.56C589.1,-386.64 563.24,-372.51 541,-360 526.25,-351.7 523.92,-346.74 508,-341 489.97,-334.5 384.05,-317.36 313.37,-306.35"/>
<polygon fill="#63b8ff" stroke="#63b8ff" points="314.26,-302.95 303.84,-304.87 313.19,-309.87 314.26,-302.95"/>
</g>
<!-- Node20 -->
<g id="node20" class="node">
<title>Node20</title>
<g id="a_node20"><a xlink:href="GXTev_8h.html" target="_top" xlink:title=" ">
<polygon fill="white" stroke="#666666" points="421.5,-305 320.5,-305 320.5,-286 421.5,-286 421.5,-305"/>
<text text-anchor="middle" x="371" y="-293" font-family="Helvetica,sans-Serif" font-size="10.00">dolphin/gx/GXTev.h</text>
</a>
</g>
</g>
<!-- Node2&#45;&gt;Node20 -->
<g id="edge33" class="edge">
<title>Node2&#45;&gt;Node20</title>
<path fill="none" stroke="#63b8ff" d="M613.37,-395.72C599.41,-382.02 570.45,-355.61 541,-341 506.99,-324.13 465.88,-313.15 432.6,-306.31"/>
<polygon fill="#63b8ff" stroke="#63b8ff" points="433.61,-302.95 423.13,-304.44 432.26,-309.81 433.61,-302.95"/>
</g>
<!-- Node21 -->
<g id="node21" class="node">
<title>Node21</title>
<g id="a_node21"><a xlink:href="GXTexture_8h.html" target="_top" xlink:title=" ">
<polygon fill="white" stroke="#666666" points="902.5,-360 785.5,-360 785.5,-341 902.5,-341 902.5,-360"/>
<text text-anchor="middle" x="844" y="-348" font-family="Helvetica,sans-Serif" font-size="10.00">dolphin/gx/GXTexture.h</text>
</a>
</g>
</g>
<!-- Node2&#45;&gt;Node21 -->
<g id="edge36" class="edge">
<title>Node2&#45;&gt;Node21</title>
<path fill="none" stroke="#63b8ff" d="M659.66,-395.51C697.09,-386.57 754.65,-372.83 795.48,-363.08"/>
<polygon fill="#63b8ff" stroke="#63b8ff" points="796.14,-366.52 805.05,-360.8 794.52,-359.72 796.14,-366.52"/>
</g>
<!-- Node27 -->
<g id="node27" class="node">
<title>Node27</title>
<g id="a_node27"><a xlink:href="GXTransform_8h.html" target="_top" xlink:title=" ">
<polygon fill="white" stroke="#666666" points="1076.5,-305 947.5,-305 947.5,-286 1076.5,-286 1076.5,-305"/>
<text text-anchor="middle" x="1012" y="-293" font-family="Helvetica,sans-Serif" font-size="10.00">dolphin/gx/GXTransform.h</text>
</a>
</g>
</g>
<!-- Node2&#45;&gt;Node27 -->
<g id="edge47" class="edge">
<title>Node2&#45;&gt;Node27</title>
<path fill="none" stroke="#63b8ff" d="M664.67,-403.41C722.47,-400.72 828.07,-391.5 912,-360 942.33,-348.62 973.2,-327.2 992.46,-312.4"/>
<polygon fill="#63b8ff" stroke="#63b8ff" points="994.53,-315.23 1000.22,-306.3 990.2,-309.73 994.53,-315.23"/>
</g>
<!-- Node4 -->
<g id="node4" class="node">
<title>Node4</title>
<g id="a_node4"><a xlink:href="GXEnum_8h.html" target="_top" xlink:title=" ">
<polygon fill="white" stroke="#666666" points="441,-250 331,-250 331,-231 441,-231 441,-250"/>
<text text-anchor="middle" x="386" y="-238" font-family="Helvetica,sans-Serif" font-size="10.00">dolphin/gx/GXEnum.h</text>
</a>
</g>
</g>
<!-- Node3&#45;&gt;Node4 -->
<g id="edge3" class="edge">
<title>Node3&#45;&gt;Node4</title>
<path fill="none" stroke="#63b8ff" d="M269.06,-340.6C231.7,-332.92 185.55,-320.6 174,-305 168.97,-298.21 168.68,-292.56 174,-286 192.13,-263.67 264.28,-252.14 319.43,-246.47"/>
<polygon fill="#63b8ff" stroke="#63b8ff" points="319.44,-249.99 329.05,-245.53 318.76,-243.02 319.44,-249.99"/>
</g>
<!-- Node5 -->
<g id="node5" class="node">
<title>Node5</title>
<g id="a_node5"><a xlink:href="types_8h.html" target="_top" xlink:title=" ">
<polygon fill="white" stroke="#666666" points="905.5,-85 824.5,-85 824.5,-66 905.5,-66 905.5,-85"/>
<text text-anchor="middle" x="865" y="-73" font-family="Helvetica,sans-Serif" font-size="10.00">dolphin/types.h</text>
</a>
</g>
</g>
<!-- Node4&#45;&gt;Node5 -->
<g id="edge4" class="edge">
<title>Node4&#45;&gt;Node5</title>
<path fill="none" stroke="#63b8ff" d="M398.11,-230.6C416.8,-217.2 454.16,-191.75 489,-176 599.18,-126.2 739.18,-97.39 813.38,-84.57"/>
<polygon fill="#63b8ff" stroke="#63b8ff" points="813.51,-88.09 822.78,-82.97 812.34,-81.19 813.51,-88.09"/>
</g>
<!-- Node6 -->
<g id="node6" class="node">
<title>Node6</title>
<g id="a_node6"><a xlink:href="stddef_8h.html" target="_top" xlink:title=" ">
<polygon fill="white" stroke="#666666" points="933,-30 797,-30 797,0 933,0 933,-30"/>
<text text-anchor="start" x="805" y="-18" font-family="Helvetica,sans-Serif" font-size="10.00">MSL_C/MSL_Common/Src</text>
<text text-anchor="middle" x="865" y="-7" font-family="Helvetica,sans-Serif" font-size="10.00">/stddef.h</text>
</a>
</g>
</g>
<!-- Node5&#45;&gt;Node6 -->
<g id="edge5" class="edge">
<title>Node5&#45;&gt;Node6</title>
<path fill="none" stroke="#63b8ff" d="M865,-65.87C865,-59.4 865,-50.2 865,-41.45"/>
<polygon fill="#63b8ff" stroke="#63b8ff" points="868.5,-41.63 865,-31.63 861.5,-41.63 868.5,-41.63"/>
</g>
<!-- Node7&#45;&gt;Node4 -->
<g id="edge7" class="edge">
<title>Node7&#45;&gt;Node4</title>
<path fill="none" stroke="#63b8ff" d="M388.77,-341.77C315.2,-331.21 193.49,-312.71 187,-305 147.49,-258.06 247.13,-245.43 319.25,-242.26"/>
<polygon fill="#63b8ff" stroke="#63b8ff" points="319.19,-245.76 329.05,-241.89 318.92,-238.77 319.19,-245.76"/>
</g>
<!-- Node8&#45;&gt;Node5 -->
<g id="edge9" class="edge">
<title>Node8&#45;&gt;Node5</title>
<path fill="none" stroke="#63b8ff" d="M1005.33,-120.51C977.57,-111.8 935.25,-98.53 904.35,-88.84"/>
<polygon fill="#63b8ff" stroke="#63b8ff" points="905.56,-85.55 894.97,-85.9 903.47,-92.23 905.56,-85.55"/>
</g>
<!-- Node9&#45;&gt;Node4 -->
<g id="edge14" class="edge">
<title>Node9&#45;&gt;Node4</title>
<path fill="none" stroke="#63b8ff" d="M711.15,-287.16C708.4,-286.77 705.66,-286.38 703,-286 616.45,-273.69 516.57,-259.71 452.43,-250.75"/>
<polygon fill="#63b8ff" stroke="#63b8ff" points="453.16,-247.32 442.77,-249.41 452.19,-254.25 453.16,-247.32"/>
</g>
<!-- Node10 -->
<g id="node10" class="node">
<title>Node10</title>
<g id="a_node10"><a xlink:href="GXStruct_8h.html" target="_top" xlink:title=" ">
<polygon fill="white" stroke="#666666" points="578.5,-250 467.5,-250 467.5,-231 578.5,-231 578.5,-250"/>
<text text-anchor="middle" x="523" y="-238" font-family="Helvetica,sans-Serif" font-size="10.00">dolphin/gx/GXStruct.h</text>
</a>
</g>
</g>
<!-- Node9&#45;&gt;Node10 -->
<g id="edge11" class="edge">
<title>Node9&#45;&gt;Node10</title>
<path fill="none" stroke="#63b8ff" d="M721.46,-285.51C680.9,-276.52 618.4,-262.65 574.39,-252.9"/>
<polygon fill="#63b8ff" stroke="#63b8ff" points="575.34,-249.52 564.82,-250.77 573.83,-256.36 575.34,-249.52"/>
</g>
<!-- Node12 -->
<g id="node12" class="node">
<title>Node12</title>
<g id="a_node12"><a xlink:href="OSThread_8h.html" target="_top" xlink:title=" ">
<polygon fill="white" stroke="#666666" points="769,-250 653,-250 653,-231 769,-231 769,-250"/>
<text text-anchor="middle" x="711" y="-238" font-family="Helvetica,sans-Serif" font-size="10.00">dolphin/os/OSThread.h</text>
</a>
</g>
</g>
<!-- Node9&#45;&gt;Node12 -->
<g id="edge15" class="edge">
<title>Node9&#45;&gt;Node12</title>
<path fill="none" stroke="#63b8ff" d="M753.58,-285.75C746.53,-278.43 736.27,-267.76 727.59,-258.74"/>
<polygon fill="#63b8ff" stroke="#63b8ff" points="730.11,-256.31 720.65,-251.53 725.07,-261.17 730.11,-256.31"/>
</g>
<!-- Node11 -->
<g id="node11" class="node">
<title>Node11</title>
<g id="a_node11"><a xlink:href="global_8h.html" target="_top" xlink:title=" ">
<polygon fill="white" stroke="#666666" points="548,-195 498,-195 498,-176 548,-176 548,-195"/>
<text text-anchor="middle" x="523" y="-183" font-family="Helvetica,sans-Serif" font-size="10.00">global.h</text>
</a>
</g>
</g>
<!-- Node10&#45;&gt;Node11 -->
<g id="edge12" class="edge">
<title>Node10&#45;&gt;Node11</title>
<path fill="none" stroke="#63b8ff" d="M523,-230.75C523,-224.27 523,-215.16 523,-206.9"/>
<polygon fill="#63b8ff" stroke="#63b8ff" points="526.5,-206.96 523,-196.96 519.5,-206.96 526.5,-206.96"/>
</g>
<!-- Node11&#45;&gt;Node5 -->
<g id="edge13" class="edge">
<title>Node11&#45;&gt;Node5</title>
<path fill="none" stroke="#63b8ff" d="M548.43,-176.47C607.64,-157.77 755.09,-111.21 825.87,-88.86"/>
<polygon fill="#63b8ff" stroke="#63b8ff" points="826.62,-92.29 835.1,-85.94 824.51,-85.61 826.62,-92.29"/>
</g>
<!-- Node13 -->
<g id="node13" class="node">
<title>Node13</title>
<g id="a_node13"><a xlink:href="OSContext_8h.html" target="_top" xlink:title=" ">
<polygon fill="white" stroke="#666666" points="685.5,-195 566.5,-195 566.5,-176 685.5,-176 685.5,-195"/>
<text text-anchor="middle" x="626" y="-183" font-family="Helvetica,sans-Serif" font-size="10.00">dolphin/os/OSContext.h</text>
</a>
</g>
</g>
<!-- Node12&#45;&gt;Node13 -->
<g id="edge16" class="edge">
<title>Node12&#45;&gt;Node13</title>
<path fill="none" stroke="#63b8ff" d="M696.58,-230.51C683.8,-222.54 664.9,-210.75 649.87,-201.38"/>
<polygon fill="#63b8ff" stroke="#63b8ff" points="651.83,-198.48 641.49,-196.16 648.12,-204.42 651.83,-198.48"/>
</g>
<!-- Node13&#45;&gt;Node5 -->
<g id="edge17" class="edge">
<title>Node13&#45;&gt;Node5</title>
<path fill="none" stroke="#63b8ff" d="M645.56,-175.66C687.22,-156.83 784.99,-112.66 834.75,-90.17"/>
<polygon fill="#63b8ff" stroke="#63b8ff" points="836.12,-93.39 843.79,-86.08 833.24,-87.01 836.12,-93.39"/>
</g>
<!-- Node14&#45;&gt;Node4 -->
<g id="edge20" class="edge">
<title>Node14&#45;&gt;Node4</title>
<path fill="none" stroke="#63b8ff" d="M483.98,-285.51C465.39,-277.16 437.46,-264.61 416.17,-255.05"/>
<polygon fill="#63b8ff" stroke="#63b8ff" points="417.66,-251.88 407.1,-250.98 414.79,-258.27 417.66,-251.88"/>
</g>
<!-- Node14&#45;&gt;Node10 -->
<g id="edge19" class="edge">
<title>Node14&#45;&gt;Node10</title>
<path fill="none" stroke="#63b8ff" d="M507.14,-285.75C509.54,-279.04 512.96,-269.52 516,-261.02"/>
<polygon fill="#63b8ff" stroke="#63b8ff" points="519.2,-262.46 519.28,-251.87 512.61,-260.1 519.2,-262.46"/>
</g>
<!-- Node15&#45;&gt;Node4 -->
<g id="edge22" class="edge">
<title>Node15&#45;&gt;Node4</title>
<path fill="none" stroke="#63b8ff" d="M180.18,-340.77C169.35,-327.6 152.56,-302.44 166,-286 185.14,-262.6 261.89,-251.22 319.39,-245.88"/>
<polygon fill="#63b8ff" stroke="#63b8ff" points="319.45,-249.39 329.1,-245.03 318.84,-242.42 319.45,-249.39"/>
</g>
<!-- Node16&#45;&gt;Node4 -->
<g id="edge25" class="edge">
<title>Node16&#45;&gt;Node4</title>
<path fill="none" stroke="#63b8ff" d="M596.91,-285.51C553.63,-276.48 486.82,-262.54 440.02,-252.77"/>
<polygon fill="#63b8ff" stroke="#63b8ff" points="440.86,-249.37 430.36,-250.76 439.43,-256.22 440.86,-249.37"/>
</g>
<!-- Node16&#45;&gt;Node10 -->
<g id="edge24" class="edge">
<title>Node16&#45;&gt;Node10</title>
<path fill="none" stroke="#63b8ff" d="M620.15,-285.51C601.72,-277.16 574.02,-264.61 552.91,-255.05"/>
<polygon fill="#63b8ff" stroke="#63b8ff" points="554.49,-251.92 543.93,-250.98 551.6,-258.3 554.49,-251.92"/>
</g>
<!-- Node17&#45;&gt;Node4 -->
<g id="edge27" class="edge">
<title>Node17&#45;&gt;Node4</title>
<path fill="none" stroke="#63b8ff" d="M64.44,-340.6C82.86,-326.72 120.71,-300.08 157,-286 209.67,-265.57 272.94,-254.19 319.61,-248.06"/>
<polygon fill="#63b8ff" stroke="#63b8ff" points="319.82,-251.57 329.3,-246.84 318.94,-244.62 319.82,-251.57"/>
</g>
<!-- Node18&#45;&gt;Node5 -->
<g id="edge29" class="edge">
<title>Node18&#45;&gt;Node5</title>
<path fill="none" stroke="#63b8ff" d="M1118.26,-120.51C1062.13,-110.76 973.04,-95.27 916.87,-85.51"/>
<polygon fill="#63b8ff" stroke="#63b8ff" points="917.69,-82.1 907.24,-83.84 916.49,-89 917.69,-82.1"/>
</g>
<!-- Node19&#45;&gt;Node4 -->
<g id="edge32" class="edge">
<title>Node19&#45;&gt;Node4</title>
<path fill="none" stroke="#63b8ff" d="M272.24,-285.51C294.32,-276.97 327.75,-264.03 352.67,-254.4"/>
<polygon fill="#63b8ff" stroke="#63b8ff" points="353.63,-257.78 361.69,-250.9 351.1,-251.25 353.63,-257.78"/>
</g>
<!-- Node19&#45;&gt;Node10 -->
<g id="edge31" class="edge">
<title>Node19&#45;&gt;Node10</title>
<path fill="none" stroke="#63b8ff" d="M295.48,-285.51C342.46,-276.42 415.16,-262.36 465.69,-252.59"/>
<polygon fill="#63b8ff" stroke="#63b8ff" points="466.11,-256.07 475.26,-250.73 464.78,-249.2 466.11,-256.07"/>
</g>
<!-- Node20&#45;&gt;Node4 -->
<g id="edge34" class="edge">
<title>Node20&#45;&gt;Node4</title>
<path fill="none" stroke="#63b8ff" d="M373.48,-285.75C375.35,-279.11 378.01,-269.73 380.39,-261.31"/>
<polygon fill="#63b8ff" stroke="#63b8ff" points="383.7,-262.47 383.06,-251.9 376.97,-260.57 383.7,-262.47"/>
</g>
<!-- Node20&#45;&gt;Node10 -->
<g id="edge35" class="edge">
<title>Node20&#45;&gt;Node10</title>
<path fill="none" stroke="#63b8ff" d="M396.78,-285.51C421.43,-276.92 458.81,-263.88 486.51,-254.22"/>
<polygon fill="#63b8ff" stroke="#63b8ff" points="487.62,-257.54 495.91,-250.94 485.32,-250.93 487.62,-257.54"/>
</g>
<!-- Node22 -->
<g id="node22" class="node">
<title>Node22</title>
<g id="a_node22"><a xlink:href="GXInit_8h.html" target="_top" xlink:title=" ">
<polygon fill="white" stroke="#666666" points="929,-305 831,-305 831,-286 929,-286 929,-305"/>
<text text-anchor="middle" x="880" y="-293" font-family="Helvetica,sans-Serif" font-size="10.00">dolphin/gx/GXInit.h</text>
</a>
</g>
</g>
<!-- Node21&#45;&gt;Node22 -->
<g id="edge37" class="edge">
<title>Node21&#45;&gt;Node22</title>
<path fill="none" stroke="#63b8ff" d="M849.94,-340.75C854.71,-333.73 861.56,-323.64 867.52,-314.87"/>
<polygon fill="#63b8ff" stroke="#63b8ff" points="870.35,-316.93 873.08,-306.69 864.56,-313 870.35,-316.93"/>
</g>
<!-- Node22&#45;&gt;Node4 -->
<g id="edge38" class="edge">
<title>Node22&#45;&gt;Node4</title>
<path fill="none" stroke="#63b8ff" d="M830.66,-287.11C827.73,-286.72 824.83,-286.35 822,-286 661.08,-266.24 620.19,-267.38 459,-250 456.95,-249.78 454.86,-249.55 452.76,-249.32"/>
<polygon fill="#63b8ff" stroke="#63b8ff" points="453.22,-245.85 442.9,-248.22 452.45,-252.81 453.22,-245.85"/>
</g>
<!-- Node22&#45;&gt;Node10 -->
<g id="edge39" class="edge">
<title>Node22&#45;&gt;Node10</title>
<path fill="none" stroke="#63b8ff" d="M830.74,-287.19C768.22,-277.91 660.14,-261.86 590.12,-251.47"/>
<polygon fill="#63b8ff" stroke="#63b8ff" points="590.7,-248.01 580.3,-250.01 589.67,-254.94 590.7,-248.01"/>
</g>
<!-- Node23 -->
<g id="node23" class="node">
<title>Node23</title>
<g id="a_node23"><a xlink:href="mtx_8h.html" target="_top" xlink:title=" ">
<polygon fill="white" stroke="#666666" points="926,-250 834,-250 834,-231 926,-231 926,-250"/>
<text text-anchor="middle" x="880" y="-238" font-family="Helvetica,sans-Serif" font-size="10.00">dolphin/mtx/mtx.h</text>
</a>
</g>
</g>
<!-- Node22&#45;&gt;Node23 -->
<g id="edge40" class="edge">
<title>Node22&#45;&gt;Node23</title>
<path fill="none" stroke="#63b8ff" d="M880,-285.75C880,-279.27 880,-270.16 880,-261.9"/>
<polygon fill="#63b8ff" stroke="#63b8ff" points="883.5,-261.96 880,-251.96 876.5,-261.96 883.5,-261.96"/>
</g>
<!-- Node23&#45;&gt;Node5 -->
<g id="edge46" class="edge">
<title>Node23&#45;&gt;Node5</title>
<path fill="none" stroke="#63b8ff" d="M895.13,-230.73C906.81,-222.99 922.12,-210.55 929,-195 932.42,-187.28 929.68,-184.42 929,-176 926.99,-151.31 932.44,-142.42 920,-121 913.1,-109.13 901.74,-99.14 891.13,-91.65"/>
<polygon fill="#63b8ff" stroke="#63b8ff" points="893.29,-88.89 883.01,-86.33 889.46,-94.74 893.29,-88.89"/>
</g>
<!-- Node24 -->
<g id="node24" class="node">
<title>Node24</title>
<g id="a_node24"><a xlink:href="mtx44_8h.html" target="_top" xlink:title=" ">
<polygon fill="white" stroke="#666666" points="806.5,-195 703.5,-195 703.5,-176 806.5,-176 806.5,-195"/>
<text text-anchor="middle" x="755" y="-183" font-family="Helvetica,sans-Serif" font-size="10.00">dolphin/mtx/mtx44.h</text>
</a>
</g>
</g>
<!-- Node23&#45;&gt;Node24 -->
<g id="edge41" class="edge">
<title>Node23&#45;&gt;Node24</title>
<path fill="none" stroke="#63b8ff" d="M858.8,-230.51C838.92,-222.08 808.97,-209.38 786.34,-199.79"/>
<polygon fill="#63b8ff" stroke="#63b8ff" points="787.86,-196.63 777.28,-195.95 785.13,-203.07 787.86,-196.63"/>
</g>
<!-- Node25 -->
<g id="node25" class="node">
<title>Node25</title>
<g id="a_node25"><a xlink:href="quat_8h.html" target="_top" xlink:title=" ">
<polygon fill="white" stroke="#666666" points="919.5,-195 824.5,-195 824.5,-176 919.5,-176 919.5,-195"/>
<text text-anchor="middle" x="872" y="-183" font-family="Helvetica,sans-Serif" font-size="10.00">dolphin/mtx/quat.h</text>
</a>
</g>
</g>
<!-- Node23&#45;&gt;Node25 -->
<g id="edge43" class="edge">
<title>Node23&#45;&gt;Node25</title>
<path fill="none" stroke="#63b8ff" d="M878.68,-230.75C877.69,-224.19 876.29,-214.95 875.03,-206.6"/>
<polygon fill="#63b8ff" stroke="#63b8ff" points="878.53,-206.3 873.58,-196.94 871.61,-207.35 878.53,-206.3"/>
</g>
<!-- Node24&#45;&gt;Node5 -->
<g id="edge42" class="edge">
<title>Node24&#45;&gt;Node5</title>
<path fill="none" stroke="#63b8ff" d="M761.67,-175.86C771.6,-163.23 791.13,-139.25 810,-121 820.55,-110.8 833.22,-100.43 843.75,-92.27"/>
<polygon fill="#63b8ff" stroke="#63b8ff" points="845.64,-95.23 851.48,-86.39 841.4,-89.66 845.64,-95.23"/>
</g>
<!-- Node26 -->
<g id="node26" class="node">
<title>Node26</title>
<g id="a_node26"><a xlink:href="vec_8h.html" target="_top" xlink:title=" ">
<polygon fill="white" stroke="#666666" points="911,-140 819,-140 819,-121 911,-121 911,-140"/>
<text text-anchor="middle" x="865" y="-128" font-family="Helvetica,sans-Serif" font-size="10.00">dolphin/mtx/vec.h</text>
</a>
</g>
</g>
<!-- Node25&#45;&gt;Node26 -->
<g id="edge44" class="edge">
<title>Node25&#45;&gt;Node26</title>
<path fill="none" stroke="#63b8ff" d="M870.84,-175.75C869.98,-169.19 868.76,-159.95 867.66,-151.6"/>
<polygon fill="#63b8ff" stroke="#63b8ff" points="871.16,-151.4 866.38,-141.94 864.22,-152.31 871.16,-151.4"/>
</g>
<!-- Node26&#45;&gt;Node5 -->
<g id="edge45" class="edge">
<title>Node26&#45;&gt;Node5</title>
<path fill="none" stroke="#63b8ff" d="M865,-120.75C865,-114.27 865,-105.16 865,-96.9"/>
<polygon fill="#63b8ff" stroke="#63b8ff" points="868.5,-96.96 865,-86.96 861.5,-96.96 868.5,-96.96"/>
</g>
<!-- Node27&#45;&gt;Node4 -->
<g id="edge48" class="edge">
<title>Node27&#45;&gt;Node4</title>
<path fill="none" stroke="#63b8ff" d="M947.04,-286.89C943.99,-286.58 940.96,-286.28 938,-286 725.47,-265.81 671.52,-270.35 459,-250 456.95,-249.8 454.86,-249.6 452.75,-249.38"/>
<polygon fill="#63b8ff" stroke="#63b8ff" points="453.19,-245.91 442.88,-248.35 452.46,-252.87 453.19,-245.91"/>
</g>
<!-- Node27&#45;&gt;Node23 -->
<g id="edge49" class="edge">
<title>Node27&#45;&gt;Node23</title>
<path fill="none" stroke="#63b8ff" d="M989.61,-285.51C968.43,-277.01 936.41,-264.15 912.44,-254.53"/>
<polygon fill="#63b8ff" stroke="#63b8ff" points="914.05,-251.4 903.47,-250.92 911.44,-257.9 914.05,-251.4"/>
</g>
<!-- Node28&#45;&gt;Node5 -->
<g id="edge51" class="edge">
<title>Node28&#45;&gt;Node5</title>
<path fill="none" stroke="#63b8ff" d="M1239.71,-122.13C1236.76,-121.74 1233.85,-121.37 1231,-121 1119.29,-106.67 988.24,-91.02 917.21,-82.63"/>
<polygon fill="#63b8ff" stroke="#63b8ff" points="917.76,-79.17 907.42,-81.47 916.94,-86.12 917.76,-79.17"/>
</g>
</g>
</svg>
