<?xml version="1.0" encoding="UTF-8" standalone="no"?>
<!DOCTYPE svg PUBLIC "-//W3C//DTD SVG 1.1//EN"
 "http://www.w3.org/Graphics/SVG/1.1/DTD/svg11.dtd">
<!-- Generated by graphviz version 7.0.5 (20221223.1930)
 -->
<!-- Title: include/JSystem/J3DGraphBase/J3DMatBlock.h Pages: 1 -->
<!--zoomable 170 -->
<svg id="main" version="1.1" xmlns="http://www.w3.org/2000/svg" xmlns:xlink="http://www.w3.org/1999/xlink" xml:space="preserve" onload="init(evt)">
<style type="text/css"><![CDATA[
.edge:hover path { stroke: red; }
.edge:hover polygon { stroke: red; fill: red; }
]]></style>
<script type="text/javascript"><![CDATA[
var edges = document.getElementsByTagName('g');
if (edges && edges.length) {
  for (var i=0;i<edges.length;i++) {
    if (edges[i].id.substr(0,4)=='edge') {
      edges[i].setAttribute('class','edge');
    }
  }
}
]]></script>
        <defs>
                <circle id="rim" cx="0" cy="0" r="7"/>
                <circle id="rim2" cx="0" cy="0" r="3.5"/>
                <g id="zoomPlus">
                        <use xlink:href="#rim" fill="#404040">
                                <set attributeName="fill" to="#808080" begin="zoomplus.mouseover" end="zoomplus.mouseout"/>
                        </use>
                        <path d="M-4,0h8M0,-4v8" fill="none" stroke="white" stroke-width="1.5" pointer-events="none"/>
                </g>
                <g id="zoomMin">
                        <use xlink:href="#rim" fill="#404040">
                                <set attributeName="fill" to="#808080" begin="zoomminus.mouseover" end="zoomminus.mouseout"/>
                        </use>
                        <path d="M-4,0h8" fill="none" stroke="white" stroke-width="1.5" pointer-events="none"/>
                </g>
                <g id="dirArrow">
                        <path fill="none" stroke="white" stroke-width="1.5" d="M0,-3.0v7 M-2.5,-0.5L0,-3.0L2.5,-0.5"/>
                </g>
               <g id="resetDef">
                       <use xlink:href="#rim2" fill="#404040">
                               <set attributeName="fill" to="#808080" begin="reset.mouseover" end="reset.mouseout"/>
                       </use>
               </g>
        </defs>

<script type="text/javascript">
var viewWidth = 3538;
var viewHeight = 170;
var sectionId = 'dynsection-1';
</script>
<script xlink:href="svgpan.js"/>
<svg id="graph" class="graph">
<g id="viewport">
<title>include/JSystem/J3DGraphBase/J3DMatBlock.h</title>
<!-- Node1 -->
<g id="node1" class="node">
<title>Node1</title>
<g id="a_node1"><a xlink:title=" ">
<polygon fill="#999999" stroke="#666666" points="3062.5,-162 2927.5,-162 2927.5,-132 3062.5,-132 3062.5,-162"/>
<text text-anchor="start" x="2935.5" y="-150" font-family="Helvetica,sans-Serif" font-size="10.00">include/JSystem/J3DGraph</text>
<text text-anchor="middle" x="2995" y="-139" font-family="Helvetica,sans-Serif" font-size="10.00">Base/J3DMatBlock.h</text>
</a>
</g>
</g>
<!-- Node2 -->
<g id="node2" class="node">
<title>Node2</title>
<g id="a_node2"><a xlink:href="J3DMaterial_8h.html" target="_top" xlink:title=" ">
<polygon fill="white" stroke="#666666" points="1585.5,-96 1450.5,-96 1450.5,-66 1585.5,-66 1585.5,-96"/>
<text text-anchor="start" x="1458.5" y="-84" font-family="Helvetica,sans-Serif" font-size="10.00">include/JSystem/J3DGraph</text>
<text text-anchor="middle" x="1518" y="-73" font-family="Helvetica,sans-Serif" font-size="10.00">Base/J3DMaterial.h</text>
</a>
</g>
</g>
<!-- Node1&#45;&gt;Node2 -->
<g id="edge1" class="edge">
<title>Node1&#45;&gt;Node2</title>
<path fill="none" stroke="#63b8ff" d="M2915.99,-142.58C2655.77,-131.3 1828.46,-95.45 1585.62,-84.93"/>
<polygon fill="#63b8ff" stroke="#63b8ff" points="2915.56,-146.06 2925.7,-143 2915.86,-139.07 2915.56,-146.06"/>
</g>
<!-- Node20 -->
<g id="node20" class="node">
<title>Node20</title>
<g id="a_node20"><a xlink:href="d__a__alink_8h.html" target="_top" xlink:title=" ">
<polygon fill="white" stroke="#666666" points="2980,-90.5 2864,-90.5 2864,-71.5 2980,-71.5 2980,-90.5"/>
<text text-anchor="middle" x="2922" y="-78.5" font-family="Helvetica,sans-Serif" font-size="10.00">include/d/a/d_a_alink.h</text>
</a>
</g>
</g>
<!-- Node1&#45;&gt;Node20 -->
<g id="edge19" class="edge">
<title>Node1&#45;&gt;Node20</title>
<path fill="none" stroke="#63b8ff" d="M2970.22,-124.27C2957.17,-112.84 2941.89,-99.44 2932.09,-90.84"/>
<polygon fill="#63b8ff" stroke="#63b8ff" points="2967.83,-126.84 2977.66,-130.8 2972.45,-121.57 2967.83,-126.84"/>
</g>
<!-- Node28 -->
<g id="node28" class="node">
<title>Node28</title>
<g id="a_node28"><a xlink:href="J3DMatBlock_8cpp.html" target="_top" xlink:title=" ">
<polygon fill="white" stroke="#666666" points="3140,-96 2998,-96 2998,-66 3140,-66 3140,-96"/>
<text text-anchor="start" x="3006" y="-84" font-family="Helvetica,sans-Serif" font-size="10.00">libs/JSystem/J3DGraphBase</text>
<text text-anchor="middle" x="3069" y="-73" font-family="Helvetica,sans-Serif" font-size="10.00">/J3DMatBlock.cpp</text>
</a>
</g>
</g>
<!-- Node1&#45;&gt;Node28 -->
<g id="edge28" class="edge">
<title>Node1&#45;&gt;Node28</title>
<path fill="none" stroke="#63b8ff" d="M3019.95,-124.42C3030.63,-115.18 3042.81,-104.65 3052.37,-96.39"/>
<polygon fill="#63b8ff" stroke="#63b8ff" points="3017.84,-121.62 3012.57,-130.81 3022.42,-126.91 3017.84,-121.62"/>
</g>
<!-- Node29 -->
<g id="node29" class="node">
<title>Node29</title>
<g id="a_node29"><a xlink:href="d__attention_8cpp.html" target="_top" xlink:title=" ">
<polygon fill="white" stroke="#666666" points="3265.5,-90.5 3158.5,-90.5 3158.5,-71.5 3265.5,-71.5 3265.5,-90.5"/>
<text text-anchor="middle" x="3212" y="-78.5" font-family="Helvetica,sans-Serif" font-size="10.00">src/d/d_attention.cpp</text>
</a>
</g>
</g>
<!-- Node1&#45;&gt;Node29 -->
<g id="edge29" class="edge">
<title>Node1&#45;&gt;Node29</title>
<path fill="none" stroke="#63b8ff" d="M3054.96,-128.32C3096.08,-116.19 3148.91,-100.61 3181.61,-90.96"/>
<polygon fill="#63b8ff" stroke="#63b8ff" points="3054.02,-124.94 3045.42,-131.13 3056,-131.66 3054.02,-124.94"/>
</g>
<!-- Node3 -->
<g id="node3" class="node">
<title>Node3</title>
<g id="a_node3"><a xlink:href="J3DJoint_8cpp.html" target="_top" xlink:title=" ">
<polygon fill="white" stroke="#666666" points="158,-30 0,-30 0,0 158,0 158,-30"/>
<text text-anchor="start" x="8" y="-18" font-family="Helvetica,sans-Serif" font-size="10.00">libs/JSystem/J3DGraphAnimator</text>
<text text-anchor="middle" x="79" y="-7" font-family="Helvetica,sans-Serif" font-size="10.00">/J3DJoint.cpp</text>
</a>
</g>
</g>
<!-- Node2&#45;&gt;Node3 -->
<g id="edge2" class="edge">
<title>Node2&#45;&gt;Node3</title>
<path fill="none" stroke="#63b8ff" d="M1438.91,-80.4C1230.36,-80.74 648.45,-77.03 167,-30 164.07,-29.71 161.1,-29.39 158.1,-29.05"/>
<polygon fill="#63b8ff" stroke="#63b8ff" points="1438.82,-83.9 1448.82,-80.38 1438.81,-76.9 1438.82,-83.9"/>
</g>
<!-- Node4 -->
<g id="node4" class="node">
<title>Node4</title>
<g id="a_node4"><a xlink:href="J3DJointTree_8cpp.html" target="_top" xlink:title=" ">
<polygon fill="white" stroke="#666666" points="334,-30 176,-30 176,0 334,0 334,-30"/>
<text text-anchor="start" x="184" y="-18" font-family="Helvetica,sans-Serif" font-size="10.00">libs/JSystem/J3DGraphAnimator</text>
<text text-anchor="middle" x="255" y="-7" font-family="Helvetica,sans-Serif" font-size="10.00">/J3DJointTree.cpp</text>
</a>
</g>
</g>
<!-- Node2&#45;&gt;Node4 -->
<g id="edge3" class="edge">
<title>Node2&#45;&gt;Node4</title>
<path fill="none" stroke="#63b8ff" d="M1438.74,-79.77C1249,-78.55 753.91,-71.29 343,-30 340.08,-29.71 337.1,-29.38 334.1,-29.02"/>
<polygon fill="#63b8ff" stroke="#63b8ff" points="1438.72,-83.27 1448.74,-79.83 1438.76,-76.27 1438.72,-83.27"/>
</g>
<!-- Node5 -->
<g id="node5" class="node">
<title>Node5</title>
<g id="a_node5"><a xlink:href="J3DMaterialAnm_8cpp.html" target="_top" xlink:title=" ">
<polygon fill="white" stroke="#666666" points="510,-30 352,-30 352,0 510,0 510,-30"/>
<text text-anchor="start" x="360" y="-18" font-family="Helvetica,sans-Serif" font-size="10.00">libs/JSystem/J3DGraphAnimator</text>
<text text-anchor="middle" x="431" y="-7" font-family="Helvetica,sans-Serif" font-size="10.00">/J3DMaterialAnm.cpp</text>
</a>
</g>
</g>
<!-- Node2&#45;&gt;Node5 -->
<g id="edge4" class="edge">
<title>Node2&#45;&gt;Node5</title>
<path fill="none" stroke="#63b8ff" d="M1439,-78.94C1269.85,-76.02 860.27,-65.58 519,-30 516.08,-29.7 513.1,-29.36 510.1,-29"/>
<polygon fill="#63b8ff" stroke="#63b8ff" points="1438.7,-82.43 1448.76,-79.1 1438.82,-75.43 1438.7,-82.43"/>
</g>
<!-- Node6 -->
<g id="node6" class="node">
<title>Node6</title>
<g id="a_node6"><a xlink:href="J3DMaterialAttach_8cpp.html" target="_top" xlink:title=" ">
<polygon fill="white" stroke="#666666" points="686,-30 528,-30 528,0 686,0 686,-30"/>
<text text-anchor="start" x="536" y="-18" font-family="Helvetica,sans-Serif" font-size="10.00">libs/JSystem/J3DGraphAnimator</text>
<text text-anchor="middle" x="607" y="-7" font-family="Helvetica,sans-Serif" font-size="10.00">/J3DMaterialAttach.cpp</text>
</a>
</g>
</g>
<!-- Node2&#45;&gt;Node6 -->
<g id="edge5" class="edge">
<title>Node2&#45;&gt;Node6</title>
<path fill="none" stroke="#63b8ff" d="M1438.95,-77.75C1292.05,-73 967.16,-59.84 695,-30 692.08,-29.68 689.11,-29.33 686.11,-28.96"/>
<polygon fill="#63b8ff" stroke="#63b8ff" points="1438.45,-81.24 1448.55,-78.06 1438.67,-74.24 1438.45,-81.24"/>
</g>
<!-- Node7 -->
<g id="node7" class="node">
<title>Node7</title>
<g id="a_node7"><a xlink:href="J3DModel_8cpp.html" target="_top" xlink:title=" ">
<polygon fill="white" stroke="#666666" points="862,-30 704,-30 704,0 862,0 862,-30"/>
<text text-anchor="start" x="712" y="-18" font-family="Helvetica,sans-Serif" font-size="10.00">libs/JSystem/J3DGraphAnimator</text>
<text text-anchor="middle" x="783" y="-7" font-family="Helvetica,sans-Serif" font-size="10.00">/J3DModel.cpp</text>
</a>
</g>
</g>
<!-- Node2&#45;&gt;Node7 -->
<g id="edge6" class="edge">
<title>Node2&#45;&gt;Node7</title>
<path fill="none" stroke="#63b8ff" d="M1438.85,-75.95C1316.71,-69.22 1075.04,-54.08 871,-30 868.08,-29.66 865.11,-29.29 862.11,-28.89"/>
<polygon fill="#63b8ff" stroke="#63b8ff" points="1438.61,-79.44 1448.78,-76.49 1438.99,-72.45 1438.61,-79.44"/>
</g>
<!-- Node8 -->
<g id="node8" class="node">
<title>Node8</title>
<g id="a_node8"><a xlink:href="J3DModelData_8cpp.html" target="_top" xlink:title=" ">
<polygon fill="white" stroke="#666666" points="1038,-30 880,-30 880,0 1038,0 1038,-30"/>
<text text-anchor="start" x="888" y="-18" font-family="Helvetica,sans-Serif" font-size="10.00">libs/JSystem/J3DGraphAnimator</text>
<text text-anchor="middle" x="959" y="-7" font-family="Helvetica,sans-Serif" font-size="10.00">/J3DModelData.cpp</text>
</a>
</g>
</g>
<!-- Node2&#45;&gt;Node8 -->
<g id="edge7" class="edge">
<title>Node2&#45;&gt;Node8</title>
<path fill="none" stroke="#63b8ff" d="M1438.64,-72.85C1344.9,-64.1 1184.34,-48.2 1047,-30 1044.09,-29.61 1041.12,-29.21 1038.13,-28.79"/>
<polygon fill="#63b8ff" stroke="#63b8ff" points="1438.22,-76.32 1448.5,-73.76 1438.87,-69.35 1438.22,-76.32"/>
</g>
<!-- Node9 -->
<g id="node9" class="node">
<title>Node9</title>
<g id="a_node9"><a xlink:href="J3DDrawBuffer_8cpp.html" target="_top" xlink:title=" ">
<polygon fill="white" stroke="#666666" points="1198,-30 1056,-30 1056,0 1198,0 1198,-30"/>
<text text-anchor="start" x="1064" y="-18" font-family="Helvetica,sans-Serif" font-size="10.00">libs/JSystem/J3DGraphBase</text>
<text text-anchor="middle" x="1127" y="-7" font-family="Helvetica,sans-Serif" font-size="10.00">/J3DDrawBuffer.cpp</text>
</a>
</g>
</g>
<!-- Node2&#45;&gt;Node9 -->
<g id="edge8" class="edge">
<title>Node2&#45;&gt;Node9</title>
<path fill="none" stroke="#63b8ff" d="M1438.98,-67.61C1376.09,-57.67 1285.86,-43.24 1207,-30 1204.08,-29.51 1201.1,-29.01 1198.09,-28.49"/>
<polygon fill="#63b8ff" stroke="#63b8ff" points="1438.09,-71.01 1448.51,-69.11 1439.18,-64.09 1438.09,-71.01"/>
</g>
<!-- Node10 -->
<g id="node10" class="node">
<title>Node10</title>
<g id="a_node10"><a xlink:href="J3DMaterial_8cpp.html" target="_top" xlink:title=" ">
<polygon fill="white" stroke="#666666" points="1358,-30 1216,-30 1216,0 1358,0 1358,-30"/>
<text text-anchor="start" x="1224" y="-18" font-family="Helvetica,sans-Serif" font-size="10.00">libs/JSystem/J3DGraphBase</text>
<text text-anchor="middle" x="1287" y="-7" font-family="Helvetica,sans-Serif" font-size="10.00">/J3DMaterial.cpp</text>
</a>
</g>
</g>
<!-- Node2&#45;&gt;Node10 -->
<g id="edge9" class="edge">
<title>Node2&#45;&gt;Node10</title>
<path fill="none" stroke="#63b8ff" d="M1454.88,-62.51C1418.48,-52.43 1373.27,-39.9 1338.94,-30.39"/>
<polygon fill="#63b8ff" stroke="#63b8ff" points="1453.84,-65.86 1464.41,-65.15 1455.71,-59.11 1453.84,-65.86"/>
</g>
<!-- Node11 -->
<g id="node11" class="node">
<title>Node11</title>
<g id="a_node11"><a xlink:href="J3DPacket_8cpp.html" target="_top" xlink:title=" ">
<polygon fill="white" stroke="#666666" points="1518,-30 1376,-30 1376,0 1518,0 1518,-30"/>
<text text-anchor="start" x="1384" y="-18" font-family="Helvetica,sans-Serif" font-size="10.00">libs/JSystem/J3DGraphBase</text>
<text text-anchor="middle" x="1447" y="-7" font-family="Helvetica,sans-Serif" font-size="10.00">/J3DPacket.cpp</text>
</a>
</g>
</g>
<!-- Node2&#45;&gt;Node11 -->
<g id="edge10" class="edge">
<title>Node2&#45;&gt;Node11</title>
<path fill="none" stroke="#63b8ff" d="M1493.69,-58.09C1483.44,-48.85 1471.81,-38.36 1462.71,-30.16"/>
<polygon fill="#63b8ff" stroke="#63b8ff" points="1491.35,-60.69 1501.12,-64.78 1496.03,-55.49 1491.35,-60.69"/>
</g>
<!-- Node12 -->
<g id="node12" class="node">
<title>Node12</title>
<g id="a_node12"><a xlink:href="d__a__alink_8cpp.html" target="_top" xlink:title=" ">
<polygon fill="white" stroke="#666666" points="2594.5,-24.5 2485.5,-24.5 2485.5,-5.5 2594.5,-5.5 2594.5,-24.5"/>
<text text-anchor="middle" x="2540" y="-12.5" font-family="Helvetica,sans-Serif" font-size="10.00">src/d/a/d_a_alink.cpp</text>
</a>
</g>
</g>
<!-- Node2&#45;&gt;Node12 -->
<g id="edge11" class="edge">
<title>Node2&#45;&gt;Node12</title>
<path fill="none" stroke="#63b8ff" d="M1597.16,-80.22C1761.64,-79.73 2152.01,-73.59 2476,-30 2485.13,-28.77 2494.89,-26.92 2503.97,-24.96"/>
<polygon fill="#63b8ff" stroke="#63b8ff" points="1597.22,-76.72 1587.23,-80.25 1597.24,-83.72 1597.22,-76.72"/>
</g>
<!-- Node13 -->
<g id="node13" class="node">
<title>Node13</title>
<g id="a_node13"><a xlink:href="d__a__npc_8cpp.html" target="_top" xlink:title=" ">
<polygon fill="white" stroke="#666666" points="1640,-24.5 1536,-24.5 1536,-5.5 1640,-5.5 1640,-24.5"/>
<text text-anchor="middle" x="1588" y="-12.5" font-family="Helvetica,sans-Serif" font-size="10.00">src/d/a/d_a_npc.cpp</text>
</a>
</g>
</g>
<!-- Node2&#45;&gt;Node13 -->
<g id="edge12" class="edge">
<title>Node2&#45;&gt;Node13</title>
<path fill="none" stroke="#63b8ff" d="M1541.76,-58.27C1554.27,-46.84 1568.92,-33.44 1578.33,-24.84"/>
<polygon fill="#63b8ff" stroke="#63b8ff" points="1539.67,-55.44 1534.65,-64.78 1544.39,-60.61 1539.67,-55.44"/>
</g>
<!-- Node14 -->
<g id="node14" class="node">
<title>Node14</title>
<g id="a_node14"><a xlink:href="d__model_8cpp.html" target="_top" xlink:title=" ">
<polygon fill="white" stroke="#666666" points="1754,-24.5 1658,-24.5 1658,-5.5 1754,-5.5 1754,-24.5"/>
<text text-anchor="middle" x="1706" y="-12.5" font-family="Helvetica,sans-Serif" font-size="10.00">src/d/d_model.cpp</text>
</a>
</g>
</g>
<!-- Node2&#45;&gt;Node14 -->
<g id="edge13" class="edge">
<title>Node2&#45;&gt;Node14</title>
<path fill="none" stroke="#63b8ff" d="M1570.85,-62.01C1606.32,-49.93 1651.51,-34.55 1679.6,-24.99"/>
<polygon fill="#63b8ff" stroke="#63b8ff" points="1569.96,-58.61 1561.62,-65.15 1572.22,-65.24 1569.96,-58.61"/>
</g>
<!-- Node15 -->
<g id="node15" class="node">
<title>Node15</title>
<g id="a_node15"><a xlink:href="d__resorce_8cpp.html" target="_top" xlink:title=" ">
<polygon fill="white" stroke="#666666" points="1874,-24.5 1772,-24.5 1772,-5.5 1874,-5.5 1874,-24.5"/>
<text text-anchor="middle" x="1823" y="-12.5" font-family="Helvetica,sans-Serif" font-size="10.00">src/d/d_resorce.cpp</text>
</a>
</g>
</g>
<!-- Node2&#45;&gt;Node15 -->
<g id="edge14" class="edge">
<title>Node2&#45;&gt;Node15</title>
<path fill="none" stroke="#63b8ff" d="M1597.23,-64.41C1645.26,-54.82 1707.74,-42.08 1763,-30 1770.21,-28.42 1777.89,-26.68 1785.27,-24.97"/>
<polygon fill="#63b8ff" stroke="#63b8ff" points="1596.57,-60.98 1587.45,-66.36 1597.94,-67.84 1596.57,-60.98"/>
</g>
<!-- Node16 -->
<g id="node16" class="node">
<title>Node16</title>
<g id="a_node16"><a xlink:href="d__file__select_8cpp.html" target="_top" xlink:title=" ">
<polygon fill="white" stroke="#666666" points="2020,-24.5 1892,-24.5 1892,-5.5 2020,-5.5 2020,-24.5"/>
<text text-anchor="middle" x="1956" y="-12.5" font-family="Helvetica,sans-Serif" font-size="10.00">src/d/file/d_file_select.cpp</text>
</a>
</g>
</g>
<!-- Node2&#45;&gt;Node16 -->
<g id="edge15" class="edge">
<title>Node2&#45;&gt;Node16</title>
<path fill="none" stroke="#63b8ff" d="M1596.85,-70.43C1670.9,-61.15 1784.7,-46.15 1883,-30 1892.17,-28.49 1901.95,-26.73 1911.28,-24.97"/>
<polygon fill="#63b8ff" stroke="#63b8ff" points="1596.76,-66.92 1587.27,-71.63 1597.63,-73.86 1596.76,-66.92"/>
</g>
<!-- Node17 -->
<g id="node17" class="node">
<title>Node17</title>
<g id="a_node17"><a xlink:href="d__kankyo_8cpp.html" target="_top" xlink:title=" ">
<polygon fill="white" stroke="#666666" points="2172,-24.5 2038,-24.5 2038,-5.5 2172,-5.5 2172,-24.5"/>
<text text-anchor="middle" x="2105" y="-12.5" font-family="Helvetica,sans-Serif" font-size="10.00">src/d/kankyo/d_kankyo.cpp</text>
</a>
</g>
</g>
<!-- Node2&#45;&gt;Node17 -->
<g id="edge16" class="edge">
<title>Node2&#45;&gt;Node17</title>
<path fill="none" stroke="#63b8ff" d="M1597.28,-74.33C1697.95,-66.66 1876.86,-51.42 2029,-30 2038.96,-28.6 2049.61,-26.81 2059.69,-25"/>
<polygon fill="#63b8ff" stroke="#63b8ff" points="1597.21,-70.83 1587.51,-75.07 1597.74,-77.81 1597.21,-70.83"/>
</g>
<!-- Node18 -->
<g id="node18" class="node">
<title>Node18</title>
<g id="a_node18"><a xlink:href="d__particle_8cpp.html" target="_top" xlink:title=" ">
<polygon fill="white" stroke="#666666" points="2326,-24.5 2190,-24.5 2190,-5.5 2326,-5.5 2326,-24.5"/>
<text text-anchor="middle" x="2258" y="-12.5" font-family="Helvetica,sans-Serif" font-size="10.00">src/d/particle/d_particle.cpp</text>
</a>
</g>
</g>
<!-- Node2&#45;&gt;Node18 -->
<g id="edge17" class="edge">
<title>Node2&#45;&gt;Node18</title>
<path fill="none" stroke="#63b8ff" d="M1596.81,-76.73C1721.3,-70.96 1970.88,-56.95 2181,-30 2191.51,-28.65 2202.77,-26.83 2213.34,-24.94"/>
<polygon fill="#63b8ff" stroke="#63b8ff" points="1596.87,-73.22 1587.04,-77.17 1597.19,-80.21 1596.87,-73.22"/>
</g>
<!-- Node19 -->
<g id="node19" class="node">
<title>Node19</title>
<g id="a_node19"><a xlink:href="m__Do__ext_8cpp.html" target="_top" xlink:title=" ">
<polygon fill="white" stroke="#666666" points="2467.5,-24.5 2344.5,-24.5 2344.5,-5.5 2467.5,-5.5 2467.5,-24.5"/>
<text text-anchor="middle" x="2406" y="-12.5" font-family="Helvetica,sans-Serif" font-size="10.00">src/m_Do/m_Do_ext.cpp</text>
</a>
</g>
</g>
<!-- Node2&#45;&gt;Node19 -->
<g id="edge18" class="edge">
<title>Node2&#45;&gt;Node19</title>
<path fill="none" stroke="#63b8ff" d="M1597.31,-78.66C1743.66,-75.41 2065.86,-64.61 2335,-30 2344.97,-28.72 2355.64,-26.87 2365.6,-24.94"/>
<polygon fill="#63b8ff" stroke="#63b8ff" points="1597.24,-75.16 1587.32,-78.88 1597.39,-82.16 1597.24,-75.16"/>
</g>
<!-- Node20&#45;&gt;Node12 -->
<g id="edge20" class="edge">
<title>Node20&#45;&gt;Node12</title>
<path fill="none" stroke="#63b8ff" d="M2852.25,-70.25C2787.69,-60.94 2689.11,-45.98 2604,-30 2595.95,-28.49 2587.37,-26.72 2579.19,-24.96"/>
<polygon fill="#63b8ff" stroke="#63b8ff" points="2851.61,-73.69 2862,-71.65 2852.6,-66.76 2851.61,-73.69"/>
</g>
<!-- Node21 -->
<g id="node21" class="node">
<title>Node21</title>
<g id="a_node21"><a xlink:href="d__a__player_8cpp.html" target="_top" xlink:title=" ">
<polygon fill="white" stroke="#666666" points="2727,-24.5 2613,-24.5 2613,-5.5 2727,-5.5 2727,-24.5"/>
<text text-anchor="middle" x="2670" y="-12.5" font-family="Helvetica,sans-Serif" font-size="10.00">src/d/a/d_a_player.cpp</text>
</a>
</g>
</g>
<!-- Node20&#45;&gt;Node21 -->
<g id="edge21" class="edge">
<title>Node20&#45;&gt;Node21</title>
<path fill="none" stroke="#63b8ff" d="M2875.71,-68.24C2826.44,-55.73 2749.56,-36.21 2705.07,-24.91"/>
<polygon fill="#63b8ff" stroke="#63b8ff" points="2874.67,-71.59 2885.23,-70.66 2876.4,-64.81 2874.67,-71.59"/>
</g>
<!-- Node22 -->
<g id="node22" class="node">
<title>Node22</title>
<g id="a_node22"><a xlink:href="d__com__inf__game_8cpp.html" target="_top" xlink:title=" ">
<polygon fill="white" stroke="#666666" points="2853,-30 2745,-30 2745,0 2853,0 2853,-30"/>
<text text-anchor="start" x="2753" y="-18" font-family="Helvetica,sans-Serif" font-size="10.00">src/d/com/d_com_inf</text>
<text text-anchor="middle" x="2799" y="-7" font-family="Helvetica,sans-Serif" font-size="10.00">_game.cpp</text>
</a>
</g>
</g>
<!-- Node20&#45;&gt;Node22 -->
<g id="edge22" class="edge">
<title>Node20&#45;&gt;Node22</title>
<path fill="none" stroke="#63b8ff" d="M2894.8,-65.85C2874.6,-55.34 2847.16,-41.06 2826.82,-30.48"/>
<polygon fill="#63b8ff" stroke="#63b8ff" points="2893.07,-68.89 2903.55,-70.4 2896.3,-62.68 2893.07,-68.89"/>
</g>
<!-- Node23 -->
<g id="node23" class="node">
<title>Node23</title>
<g id="a_node23"><a xlink:href="d__camera_8cpp.html" target="_top" xlink:title=" ">
<polygon fill="white" stroke="#666666" points="2973,-24.5 2871,-24.5 2871,-5.5 2973,-5.5 2973,-24.5"/>
<text text-anchor="middle" x="2922" y="-12.5" font-family="Helvetica,sans-Serif" font-size="10.00">src/d/d_camera.cpp</text>
</a>
</g>
</g>
<!-- Node20&#45;&gt;Node23 -->
<g id="edge23" class="edge">
<title>Node20&#45;&gt;Node23</title>
<path fill="none" stroke="#63b8ff" d="M2922,-59.68C2922,-47.94 2922,-33.77 2922,-24.82"/>
<polygon fill="#63b8ff" stroke="#63b8ff" points="2918.5,-59.59 2922,-69.59 2925.5,-59.59 2918.5,-59.59"/>
</g>
<!-- Node24 -->
<g id="node24" class="node">
<title>Node24</title>
<g id="a_node24"><a xlink:href="d__event_8cpp.html" target="_top" xlink:title=" ">
<polygon fill="white" stroke="#666666" points="3112.5,-24.5 2991.5,-24.5 2991.5,-5.5 3112.5,-5.5 3112.5,-24.5"/>
<text text-anchor="middle" x="3052" y="-12.5" font-family="Helvetica,sans-Serif" font-size="10.00">src/d/event/d_event.cpp</text>
</a>
</g>
</g>
<!-- Node20&#45;&gt;Node24 -->
<g id="edge24" class="edge">
<title>Node20&#45;&gt;Node24</title>
<path fill="none" stroke="#63b8ff" d="M2950.23,-66.1C2975.71,-53.56 3012.42,-35.49 3034.08,-24.82"/>
<polygon fill="#63b8ff" stroke="#63b8ff" points="2948.86,-62.88 2941.43,-70.43 2951.95,-69.16 2948.86,-62.88"/>
</g>
<!-- Node25 -->
<g id="node25" class="node">
<title>Node25</title>
<g id="a_node25"><a xlink:href="d__meter2__draw_8cpp.html" target="_top" xlink:title=" ">
<polygon fill="white" stroke="#666666" points="3241,-30 3131,-30 3131,0 3241,0 3241,-30"/>
<text text-anchor="start" x="3139" y="-18" font-family="Helvetica,sans-Serif" font-size="10.00">src/d/meter/d_meter2</text>
<text text-anchor="middle" x="3186" y="-7" font-family="Helvetica,sans-Serif" font-size="10.00">_draw.cpp</text>
</a>
</g>
</g>
<!-- Node20&#45;&gt;Node25 -->
<g id="edge25" class="edge">
<title>Node20&#45;&gt;Node25</title>
<path fill="none" stroke="#63b8ff" d="M2970,-68.36C3015.36,-57.37 3083.34,-40.89 3130.89,-29.36"/>
<polygon fill="#63b8ff" stroke="#63b8ff" points="2969.35,-64.92 2960.46,-70.68 2971,-71.72 2969.35,-64.92"/>
</g>
<!-- Node26 -->
<g id="node26" class="node">
<title>Node26</title>
<g id="a_node26"><a xlink:href="d__msg__flow_8cpp.html" target="_top" xlink:title=" ">
<polygon fill="white" stroke="#666666" points="3392.5,-24.5 3259.5,-24.5 3259.5,-5.5 3392.5,-5.5 3392.5,-24.5"/>
<text text-anchor="middle" x="3326" y="-12.5" font-family="Helvetica,sans-Serif" font-size="10.00">src/d/msg/d_msg_flow.cpp</text>
</a>
</g>
</g>
<!-- Node20&#45;&gt;Node26 -->
<g id="edge26" class="edge">
<title>Node20&#45;&gt;Node26</title>
<path fill="none" stroke="#63b8ff" d="M2973.8,-68.81C2978.93,-67.81 2984.06,-66.86 2989,-66 3104.38,-46.01 3134.39,-48.61 3250,-30 3259.4,-28.49 3269.44,-26.73 3279.03,-24.99"/>
<polygon fill="#63b8ff" stroke="#63b8ff" points="2973.26,-65.34 2964.14,-70.74 2974.64,-72.21 2973.26,-65.34"/>
</g>
<!-- Node27 -->
<g id="node27" class="node">
<title>Node27</title>
<g id="a_node27"><a xlink:href="f__op__actor_8cpp.html" target="_top" xlink:title=" ">
<polygon fill="white" stroke="#666666" points="3529.5,-24.5 3410.5,-24.5 3410.5,-5.5 3529.5,-5.5 3529.5,-24.5"/>
<text text-anchor="middle" x="3470" y="-12.5" font-family="Helvetica,sans-Serif" font-size="10.00">src/f_op/f_op_actor.cpp</text>
</a>
</g>
</g>
<!-- Node20&#45;&gt;Node27 -->
<g id="edge27" class="edge">
<title>Node20&#45;&gt;Node27</title>
<path fill="none" stroke="#63b8ff" d="M2971.81,-68.91C2977.59,-67.83 2983.41,-66.82 2989,-66 3171.28,-39.11 3219.68,-56.62 3402,-30 3411.18,-28.66 3420.99,-26.86 3430.22,-25"/>
<polygon fill="#63b8ff" stroke="#63b8ff" points="2971.45,-65.41 2962.32,-70.78 2972.8,-72.28 2971.45,-65.41"/>
</g>
</g>
</svg>
        <g id="navigator" transform="translate(0 0)" fill="#404254">
                <rect fill="#f2f5e9" fill-opacity="0.5" stroke="#606060" stroke-width=".5" x="0" y="0" width="60" height="60"/>
                <use id="zoomplus" xlink:href="#zoomPlus" x="17" y="9" onmousedown="handleZoom(evt,'in')"/>
                <use id="zoomminus" xlink:href="#zoomMin" x="42" y="9" onmousedown="handleZoom(evt,'out')"/>
                <use id="reset" xlink:href="#resetDef" x="30" y="36" onmousedown="handleReset()"/>
                <g id="arrowUp" xlink:href="#dirArrow" transform="translate(30 24)" onmousedown="handlePan(0,-1)">
                  <use xlink:href="#rim" fill="#404040">
                        <set attributeName="fill" to="#808080" begin="arrowUp.mouseover" end="arrowUp.mouseout"/>
                  </use>
                  <path fill="none" stroke="white" stroke-width="1.5" d="M0,-3.0v7 M-2.5,-0.5L0,-3.0L2.5,-0.5"/>
                </g>
                <g id="arrowRight" xlink:href="#dirArrow" transform="rotate(90) translate(36 -43)" onmousedown="handlePan(1,0)">
                  <use xlink:href="#rim" fill="#404040">
                        <set attributeName="fill" to="#808080" begin="arrowRight.mouseover" end="arrowRight.mouseout"/>
                  </use>
                  <path fill="none" stroke="white" stroke-width="1.5" d="M0,-3.0v7 M-2.5,-0.5L0,-3.0L2.5,-0.5"/>
                </g>
                <g id="arrowDown" xlink:href="#dirArrow" transform="rotate(180) translate(-30 -48)" onmousedown="handlePan(0,1)">
                  <use xlink:href="#rim" fill="#404040">
                        <set attributeName="fill" to="#808080" begin="arrowDown.mouseover" end="arrowDown.mouseout"/>
                  </use>
                  <path fill="none" stroke="white" stroke-width="1.5" d="M0,-3.0v7 M-2.5,-0.5L0,-3.0L2.5,-0.5"/>
                </g>
                <g id="arrowLeft" xlink:href="#dirArrow" transform="rotate(270) translate(-36 17)" onmousedown="handlePan(-1,0)">
                  <use xlink:href="#rim" fill="#404040">
                        <set attributeName="fill" to="#808080" begin="arrowLeft.mouseover" end="arrowLeft.mouseout"/>
                  </use>
                  <path fill="none" stroke="white" stroke-width="1.5" d="M0,-3.0v7 M-2.5,-0.5L0,-3.0L2.5,-0.5"/>
                </g>
        </g>
        <svg viewBox="0 0 15 15" width="100%" height="30px" preserveAspectRatio="xMaxYMin meet">
         <g id="arrow_out" transform="scale(0.3 0.3)">
          <a xlink:href="J3DMatBlock_8h__dep__incl_org.svg" target="_base">
           <rect id="button" ry="5" rx="5" y="6" x="6" height="38" width="38"
                fill="#f2f5e9" fill-opacity="0.5" stroke="#606060" stroke-width="1.0"/>
           <path id="arrow"
             d="M 11.500037,31.436501 C 11.940474,20.09759 22.043105,11.32322 32.158766,21.979434 L 37.068811,17.246167 C 37.068811,17.246167 37.088388,32 37.088388,32 L 22.160133,31.978069 C 22.160133,31.978069 26.997745,27.140456 26.997745,27.140456 C 18.528582,18.264221 13.291696,25.230495 11.500037,31.436501 z"
             style="fill:#404040;"/>
          </a>
         </g>
        </svg>
</svg>
