<?xml version="1.0" encoding="UTF-8" standalone="no"?>
<!DOCTYPE svg PUBLIC "-//W3C//DTD SVG 1.1//EN"
 "http://www.w3.org/Graphics/SVG/1.1/DTD/svg11.dtd">
<!-- Generated by graphviz version 7.0.5 (20221223.1930)
 -->
<!-- Title: include/JSystem/J3DGraphAnimator/J3DSkinDeform.h Pages: 1 -->
<svg width="3067pt" height="445pt"
 viewBox="0.00 0.00 3066.50 445.00" xmlns="http://www.w3.org/2000/svg" xmlns:xlink="http://www.w3.org/1999/xlink">
<g id="graph0" class="graph" transform="scale(1 1) rotate(0) translate(4 441)">
<title>include/JSystem/J3DGraphAnimator/J3DSkinDeform.h</title>
<!-- Node1 -->
<g id="node1" class="node">
<title>Node1</title>
<g id="a_node1"><a xlink:title=" ">
<polygon fill="#999999" stroke="#666666" points="797.5,-437 662.5,-437 662.5,-407 797.5,-407 797.5,-437"/>
<text text-anchor="start" x="670.5" y="-425" font-family="Helvetica,sans-Serif" font-size="10.00">include/JSystem/J3DGraph</text>
<text text-anchor="middle" x="730" y="-414" font-family="Helvetica,sans-Serif" font-size="10.00">Animator/J3DSkinDeform.h</text>
</a>
</g>
</g>
<!-- Node2 -->
<g id="node2" class="node">
<title>Node2</title>
<g id="a_node2"><a xlink:href="J3DModel_8h.html" target="_top" xlink:title=" ">
<polygon fill="white" stroke="#666666" points="749.5,-371 614.5,-371 614.5,-341 749.5,-341 749.5,-371"/>
<text text-anchor="start" x="622.5" y="-359" font-family="Helvetica,sans-Serif" font-size="10.00">include/JSystem/J3DGraph</text>
<text text-anchor="middle" x="682" y="-348" font-family="Helvetica,sans-Serif" font-size="10.00">Animator/J3DModel.h</text>
</a>
</g>
</g>
<!-- Node1&#45;&gt;Node2 -->
<g id="edge1" class="edge">
<title>Node1&#45;&gt;Node2</title>
<path fill="none" stroke="#63b8ff" d="M712.51,-397.68C705.85,-388.79 698.46,-378.95 692.62,-371.16"/>
<polygon fill="#63b8ff" stroke="#63b8ff" points="709.64,-399.69 718.44,-405.59 715.24,-395.49 709.64,-399.69"/>
</g>
<!-- Node364 -->
<g id="node48" class="node">
<title>Node364</title>
<g id="a_node48"><a xlink:href="J3DSkinDeform_8cpp.html" target="_top" xlink:title=" ">
<polygon fill="white" stroke="#666666" points="1780,-305 1622,-305 1622,-275 1780,-275 1780,-305"/>
<text text-anchor="start" x="1630" y="-293" font-family="Helvetica,sans-Serif" font-size="10.00">libs/JSystem/J3DGraphAnimator</text>
<text text-anchor="middle" x="1701" y="-282" font-family="Helvetica,sans-Serif" font-size="10.00">/J3DSkinDeform.cpp</text>
</a>
</g>
</g>
<!-- Node1&#45;&gt;Node364 -->
<g id="edge72" class="edge">
<title>Node1&#45;&gt;Node364</title>
<path fill="none" stroke="#63b8ff" d="M809.18,-411.33C963.84,-392.28 1316.87,-348 1613,-305 1615.91,-304.58 1618.87,-304.14 1621.86,-303.69"/>
<polygon fill="#63b8ff" stroke="#63b8ff" points="808.94,-407.83 799.44,-412.53 809.8,-414.78 808.94,-407.83"/>
</g>
<!-- Node3 -->
<g id="node3" class="node">
<title>Node3</title>
<g id="a_node3"><a xlink:href="d__jnt__col_8h.html" target="_top" xlink:title=" ">
<polygon fill="white" stroke="#666666" points="613.5,-167.5 508.5,-167.5 508.5,-148.5 613.5,-148.5 613.5,-167.5"/>
<text text-anchor="middle" x="561" y="-155.5" font-family="Helvetica,sans-Serif" font-size="10.00">include/d/d_jnt_col.h</text>
</a>
</g>
</g>
<!-- Node2&#45;&gt;Node3 -->
<g id="edge2" class="edge">
<title>Node2&#45;&gt;Node3</title>
<path fill="none" stroke="#63b8ff" d="M679.15,-329.34C676.57,-313.07 671.78,-291.98 663,-275 639.1,-228.79 592.85,-186 571.85,-167.98"/>
<polygon fill="#63b8ff" stroke="#63b8ff" points="675.67,-329.76 680.51,-339.19 682.61,-328.81 675.67,-329.76"/>
</g>
<!-- Node18 -->
<g id="node18" class="node">
<title>Node18</title>
<g id="a_node18"><a xlink:href="d__simple__model_8h.html" target="_top" xlink:title=" ">
<polygon fill="white" stroke="#666666" points="730,-173 632,-173 632,-143 730,-143 730,-173"/>
<text text-anchor="start" x="640" y="-161" font-family="Helvetica,sans-Serif" font-size="10.00">include/d/d_simple</text>
<text text-anchor="middle" x="681" y="-150" font-family="Helvetica,sans-Serif" font-size="10.00">_model.h</text>
</a>
</g>
</g>
<!-- Node2&#45;&gt;Node18 -->
<g id="edge18" class="edge">
<title>Node2&#45;&gt;Node18</title>
<path fill="none" stroke="#63b8ff" d="M690.43,-330.03C692.71,-322.12 694.86,-313.28 696,-305 701.81,-262.73 702.2,-251.21 696,-209 694.18,-196.63 689.97,-183.06 686.47,-173.19"/>
<polygon fill="#63b8ff" stroke="#63b8ff" points="687.17,-328.75 687.55,-339.33 693.85,-330.82 687.17,-328.75"/>
</g>
<!-- Node20 -->
<g id="node20" class="node">
<title>Node20</title>
<g id="a_node20"><a xlink:href="m__Do__ext_8h.html" target="_top" xlink:title=" ">
<polygon fill="white" stroke="#666666" points="1604,-299.5 1474,-299.5 1474,-280.5 1604,-280.5 1604,-299.5"/>
<text text-anchor="middle" x="1539" y="-287.5" font-family="Helvetica,sans-Serif" font-size="10.00">include/m_Do/m_Do_ext.h</text>
</a>
</g>
</g>
<!-- Node2&#45;&gt;Node20 -->
<g id="edge21" class="edge">
<title>Node2&#45;&gt;Node20</title>
<path fill="none" stroke="#63b8ff" d="M761.44,-349.07C929.6,-336.51 1318.78,-307.45 1473.68,-295.88"/>
<polygon fill="#63b8ff" stroke="#63b8ff" points="761.18,-345.58 751.47,-349.81 761.71,-352.56 761.18,-345.58"/>
</g>
<!-- Node362 -->
<g id="node46" class="node">
<title>Node362</title>
<g id="a_node46"><a xlink:href="J3DJoint_8cpp.html" target="_top" xlink:title=" ">
<polygon fill="white" stroke="#666666" points="158,-305 0,-305 0,-275 158,-275 158,-305"/>
<text text-anchor="start" x="8" y="-293" font-family="Helvetica,sans-Serif" font-size="10.00">libs/JSystem/J3DGraphAnimator</text>
<text text-anchor="middle" x="79" y="-282" font-family="Helvetica,sans-Serif" font-size="10.00">/J3DJoint.cpp</text>
</a>
</g>
</g>
<!-- Node2&#45;&gt;Node362 -->
<g id="edge67" class="edge">
<title>Node2&#45;&gt;Node362</title>
<path fill="none" stroke="#63b8ff" d="M603.03,-348.84C501.81,-340.6 321.01,-324.71 167,-305 164.08,-304.63 161.12,-304.23 158.12,-303.82"/>
<polygon fill="#63b8ff" stroke="#63b8ff" points="602.61,-352.32 612.86,-349.63 603.17,-345.34 602.61,-352.32"/>
</g>
<!-- Node363 -->
<g id="node47" class="node">
<title>Node363</title>
<g id="a_node47"><a xlink:href="J3DModel_8cpp.html" target="_top" xlink:title=" ">
<polygon fill="white" stroke="#666666" points="334,-305 176,-305 176,-275 334,-275 334,-305"/>
<text text-anchor="start" x="184" y="-293" font-family="Helvetica,sans-Serif" font-size="10.00">libs/JSystem/J3DGraphAnimator</text>
<text text-anchor="middle" x="255" y="-282" font-family="Helvetica,sans-Serif" font-size="10.00">/J3DModel.cpp</text>
</a>
</g>
</g>
<!-- Node2&#45;&gt;Node363 -->
<g id="edge68" class="edge">
<title>Node2&#45;&gt;Node363</title>
<path fill="none" stroke="#63b8ff" d="M602.95,-343.6C534.22,-333.63 431.99,-318.64 343,-305 340.09,-304.55 337.14,-304.1 334.15,-303.64"/>
<polygon fill="#63b8ff" stroke="#63b8ff" points="602.21,-347.03 612.61,-345 603.22,-340.1 602.21,-347.03"/>
</g>
<!-- Node2&#45;&gt;Node364 -->
<g id="edge69" class="edge">
<title>Node2&#45;&gt;Node364</title>
<path fill="none" stroke="#63b8ff" d="M761.15,-353.53C922.03,-349.92 1298.62,-338.36 1613,-305 1615.92,-304.69 1618.9,-304.35 1621.9,-303.98"/>
<polygon fill="#63b8ff" stroke="#63b8ff" points="761.38,-350.02 751.46,-353.74 761.53,-357.02 761.38,-350.02"/>
</g>
<!-- Node365 -->
<g id="node49" class="node">
<title>Node365</title>
<g id="a_node49"><a xlink:href="J3DPacket_8cpp.html" target="_top" xlink:title=" ">
<polygon fill="white" stroke="#666666" points="494,-305 352,-305 352,-275 494,-275 494,-305"/>
<text text-anchor="start" x="360" y="-293" font-family="Helvetica,sans-Serif" font-size="10.00">libs/JSystem/J3DGraphBase</text>
<text text-anchor="middle" x="423" y="-282" font-family="Helvetica,sans-Serif" font-size="10.00">/J3DPacket.cpp</text>
</a>
</g>
</g>
<!-- Node2&#45;&gt;Node365 -->
<g id="edge70" class="edge">
<title>Node2&#45;&gt;Node365</title>
<path fill="none" stroke="#63b8ff" d="M612.54,-337.84C571.51,-327.7 520.14,-315 481.23,-305.39"/>
<polygon fill="#63b8ff" stroke="#63b8ff" points="611.54,-341.19 622.08,-340.19 613.21,-334.4 611.54,-341.19"/>
</g>
<!-- Node366 -->
<g id="node50" class="node">
<title>Node366</title>
<g id="a_node50"><a xlink:href="J3DShapeMtx_8cpp.html" target="_top" xlink:title=" ">
<polygon fill="white" stroke="#666666" points="654,-305 512,-305 512,-275 654,-275 654,-305"/>
<text text-anchor="start" x="520" y="-293" font-family="Helvetica,sans-Serif" font-size="10.00">libs/JSystem/J3DGraphBase</text>
<text text-anchor="middle" x="583" y="-282" font-family="Helvetica,sans-Serif" font-size="10.00">/J3DShapeMtx.cpp</text>
</a>
</g>
</g>
<!-- Node2&#45;&gt;Node366 -->
<g id="edge71" class="edge">
<title>Node2&#45;&gt;Node366</title>
<path fill="none" stroke="#63b8ff" d="M650.75,-334.8C635.97,-325.24 618.67,-314.06 605.25,-305.39"/>
<polygon fill="#63b8ff" stroke="#63b8ff" points="648.46,-337.48 658.76,-339.97 652.26,-331.61 648.46,-337.48"/>
</g>
<!-- Node4 -->
<g id="node4" class="node">
<title>Node4</title>
<g id="a_node4"><a xlink:href="d__a__alink_8h.html" target="_top" xlink:title=" ">
<polygon fill="white" stroke="#666666" points="1388,-96 1272,-96 1272,-77 1388,-77 1388,-96"/>
<text text-anchor="middle" x="1330" y="-84" font-family="Helvetica,sans-Serif" font-size="10.00">include/d/a/d_a_alink.h</text>
</a>
</g>
</g>
<!-- Node3&#45;&gt;Node4 -->
<g id="edge3" class="edge">
<title>Node3&#45;&gt;Node4</title>
<path fill="none" stroke="#63b8ff" d="M607.69,-145.69C612.84,-144.68 618.02,-143.75 623,-143 831.49,-111.7 885.84,-123.75 1096,-107 1155.94,-102.22 1224.49,-96.48 1271.83,-92.46"/>
<polygon fill="#63b8ff" stroke="#63b8ff" points="607.11,-142.24 598.05,-147.72 608.56,-149.09 607.11,-142.24"/>
</g>
<!-- Node13 -->
<g id="node13" class="node">
<title>Node13</title>
<g id="a_node13"><a xlink:href="d__a__obj__carry_8h.html" target="_top" xlink:title=" ">
<polygon fill="white" stroke="#666666" points="647,-107 531,-107 531,-66 647,-66 647,-107"/>
<text text-anchor="start" x="539" y="-95" font-family="Helvetica,sans-Serif" font-size="10.00">include/rel/d/a/obj</text>
<text text-anchor="start" x="539" y="-84" font-family="Helvetica,sans-Serif" font-size="10.00">/d_a_obj_carry/d_a_obj</text>
<text text-anchor="middle" x="589" y="-73" font-family="Helvetica,sans-Serif" font-size="10.00">_carry.h</text>
</a>
</g>
</g>
<!-- Node3&#45;&gt;Node13 -->
<g id="edge12" class="edge">
<title>Node3&#45;&gt;Node13</title>
<path fill="none" stroke="#63b8ff" d="M568.85,-137.53C572.65,-128.09 577.21,-116.77 581.03,-107.29"/>
<polygon fill="#63b8ff" stroke="#63b8ff" points="565.6,-136.21 565.11,-146.79 572.1,-138.83 565.6,-136.21"/>
</g>
<!-- Node16 -->
<g id="node16" class="node">
<title>Node16</title>
<g id="a_node16"><a xlink:href="d__cc__s_8cpp.html" target="_top" xlink:title=" ">
<polygon fill="white" stroke="#666666" points="513,-96 409,-96 409,-77 513,-77 513,-96"/>
<text text-anchor="middle" x="461" y="-84" font-family="Helvetica,sans-Serif" font-size="10.00">src/d/cc/d_cc_s.cpp</text>
</a>
</g>
</g>
<!-- Node3&#45;&gt;Node16 -->
<g id="edge16" class="edge">
<title>Node3&#45;&gt;Node16</title>
<path fill="none" stroke="#63b8ff" d="M539.08,-141.77C519.13,-127.9 490.35,-107.9 473.88,-96.45"/>
<polygon fill="#63b8ff" stroke="#63b8ff" points="536.88,-144.5 547.09,-147.33 540.88,-138.75 536.88,-144.5"/>
</g>
<!-- Node17 -->
<g id="node17" class="node">
<title>Node17</title>
<g id="a_node17"><a xlink:href="d__jnt__col_8cpp.html" target="_top" xlink:title=" ">
<polygon fill="white" stroke="#666666" points="391,-96 293,-96 293,-77 391,-77 391,-96"/>
<text text-anchor="middle" x="342" y="-84" font-family="Helvetica,sans-Serif" font-size="10.00">src/d/d_jnt_col.cpp</text>
</a>
</g>
</g>
<!-- Node3&#45;&gt;Node17 -->
<g id="edge17" class="edge">
<title>Node3&#45;&gt;Node17</title>
<path fill="none" stroke="#63b8ff" d="M520.66,-144.76C488.04,-134.79 440.98,-120.25 400,-107 389.59,-103.63 378.17,-99.82 368.23,-96.46"/>
<polygon fill="#63b8ff" stroke="#63b8ff" points="519.52,-148.07 530.11,-147.64 521.57,-141.37 519.52,-148.07"/>
</g>
<!-- Node5 -->
<g id="node5" class="node">
<title>Node5</title>
<g id="a_node5"><a xlink:href="d__a__alink_8cpp.html" target="_top" xlink:title=" ">
<polygon fill="white" stroke="#666666" points="970.5,-24.5 861.5,-24.5 861.5,-5.5 970.5,-5.5 970.5,-24.5"/>
<text text-anchor="middle" x="916" y="-12.5" font-family="Helvetica,sans-Serif" font-size="10.00">src/d/a/d_a_alink.cpp</text>
</a>
</g>
</g>
<!-- Node4&#45;&gt;Node5 -->
<g id="edge4" class="edge">
<title>Node4&#45;&gt;Node5</title>
<path fill="none" stroke="#63b8ff" d="M1264.23,-74.66C1197.04,-63.55 1089.72,-45.74 997,-30 987.43,-28.38 977.23,-26.63 967.41,-24.93"/>
<polygon fill="#63b8ff" stroke="#63b8ff" points="1263.54,-78.09 1273.98,-76.27 1264.69,-71.19 1263.54,-78.09"/>
</g>
<!-- Node6 -->
<g id="node6" class="node">
<title>Node6</title>
<g id="a_node6"><a xlink:href="d__a__player_8cpp.html" target="_top" xlink:title=" ">
<polygon fill="white" stroke="#666666" points="1674,-24.5 1560,-24.5 1560,-5.5 1674,-5.5 1674,-24.5"/>
<text text-anchor="middle" x="1617" y="-12.5" font-family="Helvetica,sans-Serif" font-size="10.00">src/d/a/d_a_player.cpp</text>
</a>
</g>
</g>
<!-- Node4&#45;&gt;Node6 -->
<g id="edge5" class="edge">
<title>Node4&#45;&gt;Node6</title>
<path fill="none" stroke="#63b8ff" d="M1377.8,-73.92C1434.75,-60.13 1528.62,-37.4 1580.21,-24.91"/>
<polygon fill="#63b8ff" stroke="#63b8ff" points="1377.3,-70.44 1368.4,-76.2 1378.95,-77.25 1377.3,-70.44"/>
</g>
<!-- Node7 -->
<g id="node7" class="node">
<title>Node7</title>
<g id="a_node7"><a xlink:href="d__com__inf__game_8cpp.html" target="_top" xlink:title=" ">
<polygon fill="white" stroke="#666666" points="1114,-30 1006,-30 1006,0 1114,0 1114,-30"/>
<text text-anchor="start" x="1014" y="-18" font-family="Helvetica,sans-Serif" font-size="10.00">src/d/com/d_com_inf</text>
<text text-anchor="middle" x="1060" y="-7" font-family="Helvetica,sans-Serif" font-size="10.00">_game.cpp</text>
</a>
</g>
</g>
<!-- Node4&#45;&gt;Node7 -->
<g id="edge6" class="edge">
<title>Node4&#45;&gt;Node7</title>
<path fill="none" stroke="#63b8ff" d="M1284.21,-73.71C1237.28,-61.63 1164.31,-42.85 1114.45,-30.02"/>
<polygon fill="#63b8ff" stroke="#63b8ff" points="1283.23,-77.08 1293.79,-76.18 1284.98,-70.3 1283.23,-77.08"/>
</g>
<!-- Node8 -->
<g id="node8" class="node">
<title>Node8</title>
<g id="a_node8"><a xlink:href="d__camera_8cpp.html" target="_top" xlink:title=" ">
<polygon fill="white" stroke="#666666" points="1794,-24.5 1692,-24.5 1692,-5.5 1794,-5.5 1794,-24.5"/>
<text text-anchor="middle" x="1743" y="-12.5" font-family="Helvetica,sans-Serif" font-size="10.00">src/d/d_camera.cpp</text>
</a>
</g>
</g>
<!-- Node4&#45;&gt;Node8 -->
<g id="edge7" class="edge">
<title>Node4&#45;&gt;Node8</title>
<path fill="none" stroke="#63b8ff" d="M1399.4,-76.12C1470.77,-66.12 1585.03,-49.1 1683,-30 1690.66,-28.51 1698.84,-26.72 1706.6,-24.94"/>
<polygon fill="#63b8ff" stroke="#63b8ff" points="1399.24,-72.61 1389.82,-77.46 1400.21,-79.54 1399.24,-72.61"/>
</g>
<!-- Node9 -->
<g id="node9" class="node">
<title>Node9</title>
<g id="a_node9"><a xlink:href="d__event_8cpp.html" target="_top" xlink:title=" ">
<polygon fill="white" stroke="#666666" points="1390.5,-24.5 1269.5,-24.5 1269.5,-5.5 1390.5,-5.5 1390.5,-24.5"/>
<text text-anchor="middle" x="1330" y="-12.5" font-family="Helvetica,sans-Serif" font-size="10.00">src/d/event/d_event.cpp</text>
</a>
</g>
</g>
<!-- Node4&#45;&gt;Node9 -->
<g id="edge8" class="edge">
<title>Node4&#45;&gt;Node9</title>
<path fill="none" stroke="#63b8ff" d="M1330,-65.3C1330,-51.94 1330,-35.09 1330,-24.95"/>
<polygon fill="#63b8ff" stroke="#63b8ff" points="1326.5,-65.18 1330,-75.18 1333.5,-65.18 1326.5,-65.18"/>
</g>
<!-- Node10 -->
<g id="node10" class="node">
<title>Node10</title>
<g id="a_node10"><a xlink:href="d__meter2__draw_8cpp.html" target="_top" xlink:title=" ">
<polygon fill="white" stroke="#666666" points="2489,-30 2379,-30 2379,0 2489,0 2489,-30"/>
<text text-anchor="start" x="2387" y="-18" font-family="Helvetica,sans-Serif" font-size="10.00">src/d/meter/d_meter2</text>
<text text-anchor="middle" x="2434" y="-7" font-family="Helvetica,sans-Serif" font-size="10.00">_draw.cpp</text>
</a>
</g>
</g>
<!-- Node4&#45;&gt;Node10 -->
<g id="edge9" class="edge">
<title>Node4&#45;&gt;Node10</title>
<path fill="none" stroke="#63b8ff" d="M1399.6,-81.12C1603.21,-68.3 2194.91,-31.05 2378.8,-19.47"/>
<polygon fill="#63b8ff" stroke="#63b8ff" points="1399.46,-77.62 1389.7,-81.74 1399.9,-84.61 1399.46,-77.62"/>
</g>
<!-- Node11 -->
<g id="node11" class="node">
<title>Node11</title>
<g id="a_node11"><a xlink:href="d__msg__flow_8cpp.html" target="_top" xlink:title=" ">
<polygon fill="white" stroke="#666666" points="1541.5,-24.5 1408.5,-24.5 1408.5,-5.5 1541.5,-5.5 1541.5,-24.5"/>
<text text-anchor="middle" x="1475" y="-12.5" font-family="Helvetica,sans-Serif" font-size="10.00">src/d/msg/d_msg_flow.cpp</text>
</a>
</g>
</g>
<!-- Node4&#45;&gt;Node11 -->
<g id="edge10" class="edge">
<title>Node4&#45;&gt;Node11</title>
<path fill="none" stroke="#63b8ff" d="M1358.98,-71.61C1388,-57.7 1431.76,-36.72 1456.41,-24.91"/>
<polygon fill="#63b8ff" stroke="#63b8ff" points="1357.53,-68.42 1350.02,-75.9 1360.55,-74.74 1357.53,-68.42"/>
</g>
<!-- Node12 -->
<g id="node12" class="node">
<title>Node12</title>
<g id="a_node12"><a xlink:href="f__op__actor_8cpp.html" target="_top" xlink:title=" ">
<polygon fill="white" stroke="#666666" points="1251.5,-24.5 1132.5,-24.5 1132.5,-5.5 1251.5,-5.5 1251.5,-24.5"/>
<text text-anchor="middle" x="1192" y="-12.5" font-family="Helvetica,sans-Serif" font-size="10.00">src/f_op/f_op_actor.cpp</text>
</a>
</g>
</g>
<!-- Node4&#45;&gt;Node12 -->
<g id="edge11" class="edge">
<title>Node4&#45;&gt;Node12</title>
<path fill="none" stroke="#63b8ff" d="M1302.05,-71.42C1274.44,-57.52 1233.05,-36.67 1209.69,-24.91"/>
<polygon fill="#63b8ff" stroke="#63b8ff" points="1300.38,-74.5 1310.89,-75.88 1303.53,-68.25 1300.38,-74.5"/>
</g>
<!-- Node13&#45;&gt;Node5 -->
<g id="edge13" class="edge">
<title>Node13&#45;&gt;Node5</title>
<path fill="none" stroke="#63b8ff" d="M658.5,-66.59C659.34,-66.39 660.17,-66.19 661,-66 731.08,-49.66 812.82,-34.27 864.49,-24.99"/>
<polygon fill="#63b8ff" stroke="#63b8ff" points="657.81,-63.15 648.93,-68.93 659.48,-69.95 657.81,-63.15"/>
</g>
<!-- Node14 -->
<g id="node14" class="node">
<title>Node14</title>
<g id="a_node14"><a xlink:href="d__com__static_8cpp.html" target="_top" xlink:title=" ">
<polygon fill="white" stroke="#666666" points="659,-24.5 519,-24.5 519,-5.5 659,-5.5 659,-24.5"/>
<text text-anchor="middle" x="589" y="-12.5" font-family="Helvetica,sans-Serif" font-size="10.00">src/d/com/d_com_static.cpp</text>
</a>
</g>
</g>
<!-- Node13&#45;&gt;Node14 -->
<g id="edge14" class="edge">
<title>Node13&#45;&gt;Node14</title>
<path fill="none" stroke="#63b8ff" d="M589,-54.43C589,-43.63 589,-32.34 589,-24.82"/>
<polygon fill="#63b8ff" stroke="#63b8ff" points="585.5,-54.26 589,-64.26 592.5,-54.26 585.5,-54.26"/>
</g>
<!-- Node15 -->
<g id="node15" class="node">
<title>Node15</title>
<g id="a_node15"><a xlink:href="d__save_8cpp.html" target="_top" xlink:title=" ">
<polygon fill="white" stroke="#666666" points="809.5,-24.5 694.5,-24.5 694.5,-5.5 809.5,-5.5 809.5,-24.5"/>
<text text-anchor="middle" x="752" y="-12.5" font-family="Helvetica,sans-Serif" font-size="10.00">src/d/save/d_save.cpp</text>
</a>
</g>
</g>
<!-- Node13&#45;&gt;Node15 -->
<g id="edge15" class="edge">
<title>Node13&#45;&gt;Node15</title>
<path fill="none" stroke="#63b8ff" d="M646.29,-61.07C675.67,-48.55 709.66,-34.05 731,-24.95"/>
<polygon fill="#63b8ff" stroke="#63b8ff" points="644.93,-57.85 637.1,-64.99 647.67,-64.29 644.93,-57.85"/>
</g>
<!-- Node18&#45;&gt;Node7 -->
<g id="edge19" class="edge">
<title>Node18&#45;&gt;Node7</title>
<path fill="none" stroke="#63b8ff" d="M677.03,-131.31C675.43,-110.74 677.06,-82.67 694,-66 739.5,-21.23 915.87,-39.44 979,-30 987.61,-28.71 996.72,-27.24 1005.59,-25.75"/>
<polygon fill="#63b8ff" stroke="#63b8ff" points="673.54,-131.64 678.13,-141.19 680.5,-130.86 673.54,-131.64"/>
</g>
<!-- Node19 -->
<g id="node19" class="node">
<title>Node19</title>
<g id="a_node19"><a xlink:href="d__simple__model_8cpp.html" target="_top" xlink:title=" ">
<polygon fill="white" stroke="#666666" points="833,-96 703,-96 703,-77 833,-77 833,-96"/>
<text text-anchor="middle" x="768" y="-84" font-family="Helvetica,sans-Serif" font-size="10.00">src/d/d_simple_model.cpp</text>
</a>
</g>
</g>
<!-- Node18&#45;&gt;Node19 -->
<g id="edge20" class="edge">
<title>Node18&#45;&gt;Node19</title>
<path fill="none" stroke="#63b8ff" d="M707.73,-135.64C724.25,-122.45 744.56,-106.22 756.89,-96.38"/>
<polygon fill="#63b8ff" stroke="#63b8ff" points="705.84,-132.68 700.21,-141.65 710.21,-138.15 705.84,-132.68"/>
</g>
<!-- Node21 -->
<g id="node21" class="node">
<title>Node21</title>
<g id="a_node21"><a xlink:href="d__attention_8h.html" target="_top" xlink:title=" ">
<polygon fill="white" stroke="#666666" points="1066,-233.5 952,-233.5 952,-214.5 1066,-214.5 1066,-233.5"/>
<text text-anchor="middle" x="1009" y="-221.5" font-family="Helvetica,sans-Serif" font-size="10.00">include/d/d_attention.h</text>
</a>
</g>
</g>
<!-- Node20&#45;&gt;Node21 -->
<g id="edge22" class="edge">
<title>Node20&#45;&gt;Node21</title>
<path fill="none" stroke="#63b8ff" d="M1462.33,-283.14C1370.06,-275.54 1210.62,-260.63 1075,-239 1066.21,-237.6 1056.82,-235.79 1047.96,-233.95"/>
<polygon fill="#63b8ff" stroke="#63b8ff" points="1462.03,-286.63 1472.28,-283.95 1462.6,-279.65 1462.03,-286.63"/>
</g>
<!-- Node136 -->
<g id="node23" class="node">
<title>Node136</title>
<g id="a_node23"><a xlink:href="c__dylink_8cpp.html" target="_top" xlink:title=" ">
<polygon fill="white" stroke="#666666" points="946.5,-96 851.5,-96 851.5,-77 946.5,-77 946.5,-96"/>
<text text-anchor="middle" x="899" y="-84" font-family="Helvetica,sans-Serif" font-size="10.00">src/c/c_dylink.cpp</text>
</a>
</g>
</g>
<!-- Node20&#45;&gt;Node136 -->
<g id="edge56" class="edge">
<title>Node20&#45;&gt;Node136</title>
<path fill="none" stroke="#63b8ff" d="M1462.07,-289.61C1281.57,-290.23 842.64,-286.75 798,-239 779.04,-218.72 807.27,-158.88 819,-143 834.77,-121.65 861.28,-105.61 879.44,-96.4"/>
<polygon fill="#63b8ff" stroke="#63b8ff" points="1462.08,-293.11 1472.07,-289.57 1462.06,-286.11 1462.08,-293.11"/>
</g>
<!-- Node191 -->
<g id="node25" class="node">
<title>Node191</title>
<g id="a_node25"><a xlink:href="m__Do__ext_8cpp.html" target="_top" xlink:title=" ">
<polygon fill="white" stroke="#666666" points="1087.5,-96 964.5,-96 964.5,-77 1087.5,-77 1087.5,-96"/>
<text text-anchor="middle" x="1026" y="-84" font-family="Helvetica,sans-Serif" font-size="10.00">src/m_Do/m_Do_ext.cpp</text>
</a>
</g>
</g>
<!-- Node20&#45;&gt;Node191 -->
<g id="edge63" class="edge">
<title>Node20&#45;&gt;Node191</title>
<path fill="none" stroke="#63b8ff" d="M1462.23,-289.47C1284.88,-289.76 858.45,-285.56 815,-239 753.31,-172.9 917.68,-117.41 991.85,-96.45"/>
<polygon fill="#63b8ff" stroke="#63b8ff" points="1462.04,-292.97 1472.03,-289.45 1462.03,-285.97 1462.04,-292.97"/>
</g>
<!-- Node194 -->
<g id="node26" class="node">
<title>Node194</title>
<g id="a_node26"><a xlink:href="m__Do__machine__exception_8cpp.html" target="_top" xlink:title=" ">
<polygon fill="white" stroke="#666666" points="2043.5,-101.5 1914.5,-101.5 1914.5,-71.5 2043.5,-71.5 2043.5,-101.5"/>
<text text-anchor="start" x="1922.5" y="-89.5" font-family="Helvetica,sans-Serif" font-size="10.00">src/m_Do/m_Do_machine</text>
<text text-anchor="middle" x="1979" y="-78.5" font-family="Helvetica,sans-Serif" font-size="10.00">_exception.cpp</text>
</a>
</g>
</g>
<!-- Node20&#45;&gt;Node194 -->
<g id="edge65" class="edge">
<title>Node20&#45;&gt;Node194</title>
<path fill="none" stroke="#63b8ff" d="M1591.48,-278.07C1598.69,-276.86 1606.01,-275.79 1613,-275 1667.2,-268.91 2556.15,-278.26 2594,-239 2603.25,-229.4 2602.47,-219.3 2594,-209 2576.42,-187.61 2198.17,-123.45 2043.77,-98.04"/>
<polygon fill="#63b8ff" stroke="#63b8ff" points="1591.04,-274.59 1581.81,-279.78 1592.27,-281.48 1591.04,-274.59"/>
</g>
<!-- Node198 -->
<g id="node28" class="node">
<title>Node198</title>
<g id="a_node28"><a xlink:href="d__drawlist_8h.html" target="_top" xlink:title=" ">
<polygon fill="#fff0f0" stroke="red" points="2827,-233.5 2717,-233.5 2717,-214.5 2827,-214.5 2827,-233.5"/>
<text text-anchor="middle" x="2772" y="-221.5" font-family="Helvetica,sans-Serif" font-size="10.00">include/d/d_drawlist.h</text>
</a>
</g>
</g>
<!-- Node20&#45;&gt;Node198 -->
<g id="edge38" class="edge">
<title>Node20&#45;&gt;Node198</title>
<path fill="none" stroke="#63b8ff" d="M1591.48,-278.04C1598.68,-276.84 1606.01,-275.77 1613,-275 2094.78,-221.79 2221.58,-295.39 2703,-239 2712.96,-237.83 2723.61,-235.98 2733.5,-233.99"/>
<polygon fill="#63b8ff" stroke="#63b8ff" points="1591.04,-274.56 1581.81,-279.76 1592.26,-281.46 1591.04,-274.56"/>
</g>
<!-- Node202 -->
<g id="node30" class="node">
<title>Node202</title>
<g id="a_node30"><a xlink:href="d__a__do_8h.html" target="_top" xlink:title=" ">
<polygon fill="white" stroke="#666666" points="2620,-101.5 2524,-101.5 2524,-71.5 2620,-71.5 2620,-101.5"/>
<text text-anchor="start" x="2532" y="-89.5" font-family="Helvetica,sans-Serif" font-size="10.00">include/rel/d/a/d_a</text>
<text text-anchor="middle" x="2572" y="-78.5" font-family="Helvetica,sans-Serif" font-size="10.00">_do/d_a_do.h</text>
</a>
</g>
</g>
<!-- Node20&#45;&gt;Node202 -->
<g id="edge54" class="edge">
<title>Node20&#45;&gt;Node202</title>
<path fill="none" stroke="#63b8ff" d="M1591.48,-278.06C1598.69,-276.86 1606.01,-275.78 1613,-275 1668.14,-268.83 2566.81,-272.55 2611,-239 2645.79,-212.59 2649.5,-183.02 2632,-143 2624.5,-125.84 2608.78,-111.62 2595.31,-101.87"/>
<polygon fill="#63b8ff" stroke="#63b8ff" points="1591.04,-274.58 1581.81,-279.78 1592.27,-281.48 1591.04,-274.58"/>
</g>
<!-- Node128 -->
<g id="node31" class="node">
<title>Node128</title>
<g id="a_node31"><a xlink:href="f__op__actor__mng_8cpp.html" target="_top" xlink:title=" ">
<polygon fill="white" stroke="#666666" points="2739.5,-101.5 2638.5,-101.5 2638.5,-71.5 2739.5,-71.5 2739.5,-101.5"/>
<text text-anchor="start" x="2646.5" y="-89.5" font-family="Helvetica,sans-Serif" font-size="10.00">src/f_op/f_op_actor</text>
<text text-anchor="middle" x="2689" y="-78.5" font-family="Helvetica,sans-Serif" font-size="10.00">_mng.cpp</text>
</a>
</g>
</g>
<!-- Node20&#45;&gt;Node128 -->
<g id="edge59" class="edge">
<title>Node20&#45;&gt;Node128</title>
<path fill="none" stroke="#63b8ff" d="M1591.48,-278.06C1598.68,-276.85 1606.01,-275.78 1613,-275 1669.57,-268.69 2591.26,-272.89 2637,-239 2681.46,-206.06 2688.22,-132.78 2689.03,-101.79"/>
<polygon fill="#63b8ff" stroke="#63b8ff" points="1591.04,-274.58 1581.81,-279.77 1592.27,-281.47 1591.04,-274.58"/>
</g>
<!-- Node241 -->
<g id="node35" class="node">
<title>Node241</title>
<g id="a_node35"><a xlink:href="d__ky__thunder_8h.html" target="_top" xlink:title=" ">
<polygon fill="#fff0f0" stroke="red" points="1208,-233.5 1084,-233.5 1084,-214.5 1208,-214.5 1208,-233.5"/>
<text text-anchor="middle" x="1146" y="-221.5" font-family="Helvetica,sans-Serif" font-size="10.00">include/d/d_ky_thunder.h</text>
</a>
</g>
</g>
<!-- Node20&#45;&gt;Node241 -->
<g id="edge50" class="edge">
<title>Node20&#45;&gt;Node241</title>
<path fill="none" stroke="#63b8ff" d="M1465.24,-278.42C1399.88,-268.83 1301.93,-253.96 1217,-239 1208.22,-237.45 1198.84,-235.69 1189.88,-233.94"/>
<polygon fill="#63b8ff" stroke="#63b8ff" points="1464.34,-281.82 1474.75,-279.81 1465.36,-274.9 1464.34,-281.82"/>
</g>
<!-- Node242 -->
<g id="node36" class="node">
<title>Node242</title>
<g id="a_node36"><a xlink:href="d__resorce_8h.html" target="_top" xlink:title=" ">
<polygon fill="#fff0f0" stroke="red" points="933.5,-233.5 824.5,-233.5 824.5,-214.5 933.5,-214.5 933.5,-233.5"/>
<text text-anchor="middle" x="879" y="-221.5" font-family="Helvetica,sans-Serif" font-size="10.00">include/d/d_resorce.h</text>
</a>
</g>
</g>
<!-- Node20&#45;&gt;Node242 -->
<g id="edge51" class="edge">
<title>Node20&#45;&gt;Node242</title>
<path fill="none" stroke="#63b8ff" d="M1462.51,-285.81C1348.73,-280.33 1128.38,-266.93 943,-239 934.23,-237.68 924.86,-235.86 916.07,-233.98"/>
<polygon fill="#63b8ff" stroke="#63b8ff" points="1462.19,-289.3 1472.34,-286.27 1462.52,-282.3 1462.19,-289.3"/>
</g>
<!-- Node243 -->
<g id="node37" class="node">
<title>Node243</title>
<g id="a_node37"><a xlink:href="d__kankyo_8h.html" target="_top" xlink:title=" ">
<polygon fill="#fff0f0" stroke="red" points="1324,-239 1226,-239 1226,-209 1324,-209 1324,-239"/>
<text text-anchor="start" x="1234" y="-227" font-family="Helvetica,sans-Serif" font-size="10.00">include/d/kankyo/d</text>
<text text-anchor="middle" x="1275" y="-216" font-family="Helvetica,sans-Serif" font-size="10.00">_kankyo.h</text>
</a>
</g>
</g>
<!-- Node20&#45;&gt;Node243 -->
<g id="edge53" class="edge">
<title>Node20&#45;&gt;Node243</title>
<path fill="none" stroke="#63b8ff" d="M1490.86,-277.33C1443.63,-265.88 1371.95,-248.5 1324.32,-236.96"/>
<polygon fill="#63b8ff" stroke="#63b8ff" points="1490,-280.72 1500.54,-279.68 1491.65,-273.92 1490,-280.72"/>
</g>
<!-- Node354 -->
<g id="node38" class="node">
<title>Node354</title>
<g id="a_node38"><a xlink:href="DynamicLink_8cpp.html" target="_top" xlink:title=" ">
<polygon fill="white" stroke="#666666" points="1449.5,-233.5 1342.5,-233.5 1342.5,-214.5 1449.5,-214.5 1449.5,-233.5"/>
<text text-anchor="middle" x="1396" y="-221.5" font-family="Helvetica,sans-Serif" font-size="10.00">src/DynamicLink.cpp</text>
</a>
</g>
</g>
<!-- Node20&#45;&gt;Node354 -->
<g id="edge55" class="edge">
<title>Node20&#45;&gt;Node354</title>
<path fill="none" stroke="#63b8ff" d="M1508.69,-275.44C1480.64,-262.88 1439.75,-244.58 1415.71,-233.82"/>
<polygon fill="#63b8ff" stroke="#63b8ff" points="1507.18,-278.59 1517.73,-279.48 1510.04,-272.2 1507.18,-278.59"/>
</g>
<!-- Node355 -->
<g id="node39" class="node">
<title>Node355</title>
<g id="a_node39"><a xlink:href="d__pane__class_8cpp.html" target="_top" xlink:title=" ">
<polygon fill="white" stroke="#666666" points="1610.5,-233.5 1467.5,-233.5 1467.5,-214.5 1610.5,-214.5 1610.5,-233.5"/>
<text text-anchor="middle" x="1539" y="-221.5" font-family="Helvetica,sans-Serif" font-size="10.00">src/d/pane/d_pane_class.cpp</text>
</a>
</g>
</g>
<!-- Node20&#45;&gt;Node355 -->
<g id="edge57" class="edge">
<title>Node20&#45;&gt;Node355</title>
<path fill="none" stroke="#63b8ff" d="M1539,-268.68C1539,-256.94 1539,-242.77 1539,-233.82"/>
<polygon fill="#63b8ff" stroke="#63b8ff" points="1535.5,-268.59 1539,-278.59 1542.5,-268.59 1535.5,-268.59"/>
</g>
<!-- Node356 -->
<g id="node40" class="node">
<title>Node356</title>
<g id="a_node40"><a xlink:href="d__pane__class__alpha_8cpp.html" target="_top" xlink:title=" ">
<polygon fill="white" stroke="#666666" points="1753.5,-239 1628.5,-239 1628.5,-209 1753.5,-209 1753.5,-239"/>
<text text-anchor="start" x="1636.5" y="-227" font-family="Helvetica,sans-Serif" font-size="10.00">src/d/pane/d_pane_class</text>
<text text-anchor="middle" x="1691" y="-216" font-family="Helvetica,sans-Serif" font-size="10.00">_alpha.cpp</text>
</a>
</g>
</g>
<!-- Node20&#45;&gt;Node356 -->
<g id="edge58" class="edge">
<title>Node20&#45;&gt;Node356</title>
<path fill="none" stroke="#63b8ff" d="M1570.57,-275.71C1595.69,-265.13 1630.79,-250.35 1656.62,-239.48"/>
<polygon fill="#63b8ff" stroke="#63b8ff" points="1569.39,-272.41 1561.53,-279.51 1572.1,-278.86 1569.39,-272.41"/>
</g>
<!-- Node357 -->
<g id="node41" class="node">
<title>Node357</title>
<g id="a_node41"><a xlink:href="m__Do__DVDError_8cpp.html" target="_top" xlink:title=" ">
<polygon fill="white" stroke="#666666" points="1922.5,-233.5 1771.5,-233.5 1771.5,-214.5 1922.5,-214.5 1922.5,-233.5"/>
<text text-anchor="middle" x="1847" y="-221.5" font-family="Helvetica,sans-Serif" font-size="10.00">src/m_Do/m_Do_DVDError.cpp</text>
</a>
</g>
</g>
<!-- Node20&#45;&gt;Node357 -->
<g id="edge60" class="edge">
<title>Node20&#45;&gt;Node357</title>
<path fill="none" stroke="#63b8ff" d="M1593.31,-277.71C1653.42,-265.22 1749.07,-245.35 1804.14,-233.91"/>
<polygon fill="#63b8ff" stroke="#63b8ff" points="1592.71,-274.26 1583.63,-279.73 1594.14,-281.12 1592.71,-274.26"/>
</g>
<!-- Node358 -->
<g id="node42" class="node">
<title>Node358</title>
<g id="a_node42"><a xlink:href="m__Do__MemCard_8cpp.html" target="_top" xlink:title=" ">
<polygon fill="white" stroke="#666666" points="2093,-233.5 1941,-233.5 1941,-214.5 2093,-214.5 2093,-233.5"/>
<text text-anchor="middle" x="2017" y="-221.5" font-family="Helvetica,sans-Serif" font-size="10.00">src/m_Do/m_Do_MemCard.cpp</text>
</a>
</g>
</g>
<!-- Node20&#45;&gt;Node358 -->
<g id="edge61" class="edge">
<title>Node20&#45;&gt;Node358</title>
<path fill="none" stroke="#63b8ff" d="M1594.58,-278.02C1600.79,-276.94 1607.02,-275.9 1613,-275 1753.64,-253.77 1790.1,-258.43 1931,-239 1941.79,-237.51 1953.31,-235.75 1964.3,-233.99"/>
<polygon fill="#63b8ff" stroke="#63b8ff" points="1594.23,-274.53 1585.01,-279.75 1595.47,-281.42 1594.23,-274.53"/>
</g>
<!-- Node359 -->
<g id="node43" class="node">
<title>Node359</title>
<g id="a_node43"><a xlink:href="m__Do__dvd__thread_8cpp.html" target="_top" xlink:title=" ">
<polygon fill="white" stroke="#666666" points="2269,-233.5 2111,-233.5 2111,-214.5 2269,-214.5 2269,-233.5"/>
<text text-anchor="middle" x="2190" y="-221.5" font-family="Helvetica,sans-Serif" font-size="10.00">src/m_Do/m_Do_dvd_thread.cpp</text>
</a>
</g>
</g>
<!-- Node20&#45;&gt;Node359 -->
<g id="edge62" class="edge">
<title>Node20&#45;&gt;Node359</title>
<path fill="none" stroke="#63b8ff" d="M1593.05,-278.04C1599.75,-276.9 1606.52,-275.85 1613,-275 1829.08,-246.7 1885.53,-264.14 2102,-239 2113.83,-237.63 2126.51,-235.81 2138.45,-233.95"/>
<polygon fill="#63b8ff" stroke="#63b8ff" points="1592.63,-274.56 1583.4,-279.76 1593.86,-281.45 1592.63,-274.56"/>
</g>
<!-- Node360 -->
<g id="node44" class="node">
<title>Node360</title>
<g id="a_node44"><a xlink:href="m__Do__machine_8cpp.html" target="_top" xlink:title=" ">
<polygon fill="white" stroke="#666666" points="2434.5,-233.5 2287.5,-233.5 2287.5,-214.5 2434.5,-214.5 2434.5,-233.5"/>
<text text-anchor="middle" x="2361" y="-221.5" font-family="Helvetica,sans-Serif" font-size="10.00">src/m_Do/m_Do_machine.cpp</text>
</a>
</g>
</g>
<!-- Node20&#45;&gt;Node360 -->
<g id="edge64" class="edge">
<title>Node20&#45;&gt;Node360</title>
<path fill="none" stroke="#63b8ff" d="M1592.27,-278.05C1599.22,-276.88 1606.27,-275.82 1613,-275 1906.84,-239.41 1983.82,-271.67 2278,-239 2289.47,-237.73 2301.77,-235.9 2313.29,-234"/>
<polygon fill="#63b8ff" stroke="#63b8ff" points="1591.84,-274.57 1582.6,-279.77 1593.06,-281.46 1591.84,-274.57"/>
</g>
<!-- Node361 -->
<g id="node45" class="node">
<title>Node361</title>
<g id="a_node45"><a xlink:href="m__Do__printf_8cpp.html" target="_top" xlink:title=" ">
<polygon fill="white" stroke="#666666" points="2585,-233.5 2453,-233.5 2453,-214.5 2585,-214.5 2585,-233.5"/>
<text text-anchor="middle" x="2519" y="-221.5" font-family="Helvetica,sans-Serif" font-size="10.00">src/m_Do/m_Do_printf.cpp</text>
</a>
</g>
</g>
<!-- Node20&#45;&gt;Node361 -->
<g id="edge66" class="edge">
<title>Node20&#45;&gt;Node361</title>
<path fill="none" stroke="#63b8ff" d="M1592,-278.02C1599.04,-276.84 1606.18,-275.79 1613,-275 1980.23,-232.53 2076.72,-281.02 2444,-239 2454.66,-237.78 2466.08,-235.93 2476.72,-233.97"/>
<polygon fill="#63b8ff" stroke="#63b8ff" points="1591.44,-274.57 1582.2,-279.76 1592.66,-281.46 1591.44,-274.57"/>
</g>
<!-- Node21&#45;&gt;Node4 -->
<g id="edge23" class="edge">
<title>Node21&#45;&gt;Node4</title>
<path fill="none" stroke="#63b8ff" d="M1061.62,-211.65C1110.3,-200.77 1178.8,-184.36 1204,-173 1250.75,-151.92 1299.01,-113.69 1319.64,-96.41"/>
<polygon fill="#63b8ff" stroke="#63b8ff" points="1061.12,-208.18 1052.11,-213.76 1062.63,-215.01 1061.12,-208.18"/>
</g>
<!-- Node22 -->
<g id="node22" class="node">
<title>Node22</title>
<g id="a_node22"><a xlink:href="d__com__inf__game_8h.html" target="_top" xlink:title=" ">
<polygon fill="#fff0f0" stroke="red" points="1075,-173 965,-173 965,-143 1075,-143 1075,-173"/>
<text text-anchor="start" x="973" y="-161" font-family="Helvetica,sans-Serif" font-size="10.00">include/d/com/d_com</text>
<text text-anchor="middle" x="1020" y="-150" font-family="Helvetica,sans-Serif" font-size="10.00">_inf_game.h</text>
</a>
</g>
</g>
<!-- Node21&#45;&gt;Node22 -->
<g id="edge24" class="edge">
<title>Node21&#45;&gt;Node22</title>
<path fill="none" stroke="#63b8ff" d="M1012.48,-202.78C1014.13,-193.17 1016.06,-181.92 1017.55,-173.23"/>
<polygon fill="#63b8ff" stroke="#63b8ff" points="1009.03,-202.16 1010.79,-212.61 1015.93,-203.35 1009.03,-202.16"/>
</g>
<!-- Node143 -->
<g id="node24" class="node">
<title>Node143</title>
<g id="a_node24"><a xlink:href="d__attention_8cpp.html" target="_top" xlink:title=" ">
<polygon fill="white" stroke="#666666" points="2467.5,-96 2360.5,-96 2360.5,-77 2467.5,-77 2467.5,-96"/>
<text text-anchor="middle" x="2414" y="-84" font-family="Helvetica,sans-Serif" font-size="10.00">src/d/d_attention.cpp</text>
</a>
</g>
</g>
<!-- Node21&#45;&gt;Node143 -->
<g id="edge37" class="edge">
<title>Node21&#45;&gt;Node143</title>
<path fill="none" stroke="#63b8ff" d="M1058.72,-211.8C1064.2,-210.76 1069.7,-209.8 1075,-209 1571.24,-134.12 2178.4,-99.32 2360.15,-90.09"/>
<polygon fill="#63b8ff" stroke="#63b8ff" points="1058.21,-208.33 1049.08,-213.72 1059.57,-215.2 1058.21,-208.33"/>
</g>
<!-- Node197 -->
<g id="node27" class="node">
<title>Node197</title>
<g id="a_node27"><a xlink:href="d__att__dist_8cpp.html" target="_top" xlink:title=" ">
<polygon fill="white" stroke="#666666" points="1195,-167.5 1093,-167.5 1093,-148.5 1195,-148.5 1195,-167.5"/>
<text text-anchor="middle" x="1144" y="-155.5" font-family="Helvetica,sans-Serif" font-size="10.00">src/d/d_att_dist.cpp</text>
</a>
</g>
</g>
<!-- Node21&#45;&gt;Node197 -->
<g id="edge36" class="edge">
<title>Node21&#45;&gt;Node197</title>
<path fill="none" stroke="#63b8ff" d="M1037.96,-209.27C1064.43,-196.72 1102.79,-178.54 1125.39,-167.82"/>
<polygon fill="#63b8ff" stroke="#63b8ff" points="1036.68,-206.01 1029.14,-213.45 1039.67,-212.33 1036.68,-206.01"/>
</g>
<!-- Node22&#45;&gt;Node7 -->
<g id="edge28" class="edge">
<title>Node22&#45;&gt;Node7</title>
<path fill="none" stroke="#63b8ff" d="M1086.2,-141.08C1103.36,-133.63 1119.84,-122.77 1130,-107 1139.87,-91.68 1138.34,-82.2 1130,-66 1122,-50.46 1106.7,-38.68 1092.43,-30.47"/>
<polygon fill="#63b8ff" stroke="#63b8ff" points="1084.92,-137.82 1076.9,-144.73 1087.48,-144.33 1084.92,-137.82"/>
</g>
<!-- Node22&#45;&gt;Node8 -->
<g id="edge30" class="edge">
<title>Node22&#45;&gt;Node8</title>
<path fill="none" stroke="#63b8ff" d="M1086.4,-142.72C1224.08,-120.64 1262.88,-132.22 1397,-107 1516.64,-84.5 1655.9,-43.11 1714.61,-24.95"/>
<polygon fill="#63b8ff" stroke="#63b8ff" points="1086.23,-139.2 1076.93,-144.27 1087.36,-146.11 1086.23,-139.2"/>
</g>
<!-- Node22&#45;&gt;Node12 -->
<g id="edge33" class="edge">
<title>Node22&#45;&gt;Node12</title>
<path fill="none" stroke="#63b8ff" d="M1086.22,-141.6C1107.88,-134.01 1130.77,-122.94 1148,-107 1173.25,-83.65 1185.63,-42.71 1190.04,-24.8"/>
<polygon fill="#63b8ff" stroke="#63b8ff" points="1085.23,-138.24 1076.82,-144.69 1087.42,-144.89 1085.23,-138.24"/>
</g>
<!-- Node22&#45;&gt;Node13 -->
<g id="edge25" class="edge">
<title>Node22&#45;&gt;Node13</title>
<path fill="none" stroke="#63b8ff" d="M953.48,-147.42C887.53,-137.78 783.66,-122.2 694,-107 678.83,-104.43 662.46,-101.47 647.26,-98.66"/>
<polygon fill="#63b8ff" stroke="#63b8ff" points="952.64,-150.84 963.04,-148.82 953.65,-143.91 952.64,-150.84"/>
</g>
<!-- Node22&#45;&gt;Node15 -->
<g id="edge32" class="edge">
<title>Node22&#45;&gt;Node15</title>
<path fill="none" stroke="#63b8ff" d="M1065.93,-136.97C1077.87,-129.4 1089.26,-119.51 1096,-107 1104.65,-90.96 1107.92,-79.78 1096,-66 1094.83,-64.65 907.39,-37.97 809.73,-24.15"/>
<polygon fill="#63b8ff" stroke="#63b8ff" points="1064.52,-133.74 1057.63,-141.78 1068.04,-139.79 1064.52,-133.74"/>
</g>
<!-- Node22&#45;&gt;Node16 -->
<g id="edge27" class="edge">
<title>Node22&#45;&gt;Node16</title>
<path fill="none" stroke="#63b8ff" d="M953.23,-154.73C857.04,-150.46 674.27,-138.62 522,-107 509.59,-104.42 496.14,-100.27 485.03,-96.46"/>
<polygon fill="#63b8ff" stroke="#63b8ff" points="952.87,-158.22 963.02,-155.15 953.17,-151.23 952.87,-158.22"/>
</g>
<!-- Node22&#45;&gt;Node19 -->
<g id="edge31" class="edge">
<title>Node22&#45;&gt;Node19</title>
<path fill="none" stroke="#63b8ff" d="M956.52,-139.49C906.83,-125.79 839.77,-107.29 800.47,-96.46"/>
<polygon fill="#63b8ff" stroke="#63b8ff" points="955.45,-142.83 966.02,-142.11 957.31,-136.08 955.45,-142.83"/>
</g>
<!-- Node22&#45;&gt;Node136 -->
<g id="edge26" class="edge">
<title>Node22&#45;&gt;Node136</title>
<path fill="none" stroke="#63b8ff" d="M985.03,-136.92C961.7,-123.51 932.15,-106.54 914.46,-96.38"/>
<polygon fill="#63b8ff" stroke="#63b8ff" points="983.2,-139.9 993.62,-141.85 986.69,-133.83 983.2,-139.9"/>
</g>
<!-- Node22&#45;&gt;Node143 -->
<g id="edge29" class="edge">
<title>Node22&#45;&gt;Node143</title>
<path fill="none" stroke="#63b8ff" d="M1086.81,-142.81C1513.07,-89.44 1625.71,-126.41 2052,-107 2161.4,-102.02 2289.32,-94.8 2360.04,-90.69"/>
<polygon fill="#63b8ff" stroke="#63b8ff" points="1086.38,-139.33 1076.9,-144.06 1087.26,-146.28 1086.38,-139.33"/>
</g>
<!-- Node22&#45;&gt;Node191 -->
<g id="edge34" class="edge">
<title>Node22&#45;&gt;Node191</title>
<path fill="none" stroke="#63b8ff" d="M1022.2,-131.46C1023.27,-119.07 1024.49,-104.99 1025.25,-96.18"/>
<polygon fill="#63b8ff" stroke="#63b8ff" points="1018.75,-130.83 1021.37,-141.09 1025.72,-131.43 1018.75,-130.83"/>
</g>
<!-- Node22&#45;&gt;Node194 -->
<g id="edge35" class="edge">
<title>Node22&#45;&gt;Node194</title>
<path fill="none" stroke="#63b8ff" d="M1086.6,-142.93C1204.2,-129.52 1729.32,-100.84 1914.32,-90.93"/>
<polygon fill="#63b8ff" stroke="#63b8ff" points="1086.4,-139.43 1076.91,-144.15 1087.27,-146.37 1086.4,-139.43"/>
</g>
<!-- Node199 -->
<g id="node29" class="node">
<title>Node199</title>
<g id="a_node29"><a xlink:href="d__a__player_8h.html" target="_top" xlink:title=" ">
<polygon fill="#fff0f0" stroke="red" points="2622.5,-167.5 2501.5,-167.5 2501.5,-148.5 2622.5,-148.5 2622.5,-167.5"/>
<text text-anchor="middle" x="2562" y="-155.5" font-family="Helvetica,sans-Serif" font-size="10.00">include/d/a/d_a_player.h</text>
</a>
</g>
</g>
<!-- Node198&#45;&gt;Node199 -->
<g id="edge39" class="edge">
<title>Node198&#45;&gt;Node199</title>
<path fill="none" stroke="#63b8ff" d="M2731.83,-210.76C2690.74,-198.24 2627.9,-179.08 2591.29,-167.93"/>
<polygon fill="#63b8ff" stroke="#63b8ff" points="2730.77,-214.09 2741.35,-213.66 2732.81,-207.4 2730.77,-214.09"/>
</g>
<!-- Node205 -->
<g id="node32" class="node">
<title>Node205</title>
<g id="a_node32"><a xlink:href="d__camera_8h.html" target="_top" xlink:title=" ">
<polygon fill="#fff0f0" stroke="red" points="2826.5,-167.5 2717.5,-167.5 2717.5,-148.5 2826.5,-148.5 2826.5,-167.5"/>
<text text-anchor="middle" x="2772" y="-155.5" font-family="Helvetica,sans-Serif" font-size="10.00">include/d/d_camera.h</text>
</a>
</g>
</g>
<!-- Node198&#45;&gt;Node205 -->
<g id="edge45" class="edge">
<title>Node198&#45;&gt;Node205</title>
<path fill="none" stroke="#63b8ff" d="M2772,-202.68C2772,-190.94 2772,-176.77 2772,-167.82"/>
<polygon fill="#63b8ff" stroke="#63b8ff" points="2768.5,-202.59 2772,-212.59 2775.5,-202.59 2768.5,-202.59"/>
</g>
<!-- Node210 -->
<g id="node33" class="node">
<title>Node210</title>
<g id="a_node33"><a xlink:href="d__kantera__icon__meter_8h.html" target="_top" xlink:title=" ">
<polygon fill="#fff0f0" stroke="red" points="3058.5,-173 2957.5,-173 2957.5,-143 3058.5,-143 3058.5,-173"/>
<text text-anchor="start" x="2965.5" y="-161" font-family="Helvetica,sans-Serif" font-size="10.00">include/d/d_kantera</text>
<text text-anchor="middle" x="3008" y="-150" font-family="Helvetica,sans-Serif" font-size="10.00">_icon_meter.h</text>
</a>
</g>
</g>
<!-- Node198&#45;&gt;Node210 -->
<g id="edge47" class="edge">
<title>Node198&#45;&gt;Node210</title>
<path fill="none" stroke="#63b8ff" d="M2816.1,-211.04C2856.21,-200.16 2915.39,-184.11 2957.41,-172.72"/>
<polygon fill="#63b8ff" stroke="#63b8ff" points="2815.26,-207.64 2806.52,-213.64 2817.09,-214.4 2815.26,-207.64"/>
</g>
<!-- Node211 -->
<g id="node34" class="node">
<title>Node211</title>
<g id="a_node34"><a xlink:href="d__select__cursor_8h.html" target="_top" xlink:title=" ">
<polygon fill="#fff0f0" stroke="red" points="2939.5,-173 2844.5,-173 2844.5,-143 2939.5,-143 2939.5,-173"/>
<text text-anchor="start" x="2852.5" y="-161" font-family="Helvetica,sans-Serif" font-size="10.00">include/d/d_select</text>
<text text-anchor="middle" x="2892" y="-150" font-family="Helvetica,sans-Serif" font-size="10.00">_cursor.h</text>
</a>
</g>
</g>
<!-- Node198&#45;&gt;Node211 -->
<g id="edge49" class="edge">
<title>Node198&#45;&gt;Node211</title>
<path fill="none" stroke="#63b8ff" d="M2798.81,-208.7C2818.49,-198.21 2845.1,-184.01 2864.85,-173.48"/>
<polygon fill="#63b8ff" stroke="#63b8ff" points="2797.2,-205.59 2790.02,-213.39 2800.49,-211.77 2797.2,-205.59"/>
</g>
<!-- Node199&#45;&gt;Node4 -->
<g id="edge40" class="edge">
<title>Node199&#45;&gt;Node4</title>
<path fill="none" stroke="#63b8ff" d="M2490.12,-152.95C2267.36,-140.38 1591.33,-102.24 1388.28,-90.79"/>
<polygon fill="#63b8ff" stroke="#63b8ff" points="2489.63,-156.42 2499.81,-153.49 2490.03,-149.43 2489.63,-156.42"/>
</g>
<!-- Node199&#45;&gt;Node6 -->
<g id="edge42" class="edge">
<title>Node199&#45;&gt;Node6</title>
<path fill="none" stroke="#63b8ff" d="M2545.83,-139.86C2536.75,-130.22 2525.23,-117.96 2515,-107 2498.05,-88.84 2499.54,-76.45 2477,-66 2396.89,-28.84 1770.6,-41.2 1683,-30 1673.59,-28.8 1663.53,-26.95 1654.17,-25"/>
<polygon fill="#63b8ff" stroke="#63b8ff" points="2543.22,-142.19 2552.62,-147.06 2548.31,-137.39 2543.22,-142.19"/>
</g>
<!-- Node199&#45;&gt;Node143 -->
<g id="edge43" class="edge">
<title>Node199&#45;&gt;Node143</title>
<path fill="none" stroke="#63b8ff" d="M2532.81,-143.29C2503.2,-129.39 2458.24,-108.28 2432.97,-96.41"/>
<polygon fill="#63b8ff" stroke="#63b8ff" points="2531.05,-146.33 2541.58,-147.41 2534.02,-139.99 2531.05,-146.33"/>
</g>
<!-- Node199&#45;&gt;Node202 -->
<g id="edge41" class="edge">
<title>Node199&#45;&gt;Node202</title>
<path fill="none" stroke="#63b8ff" d="M2564.89,-136.89C2566.51,-125.65 2568.49,-111.91 2569.95,-101.77"/>
<polygon fill="#63b8ff" stroke="#63b8ff" points="2561.44,-136.3 2563.48,-146.7 2568.37,-137.3 2561.44,-136.3"/>
</g>
<!-- Node199&#45;&gt;Node128 -->
<g id="edge44" class="edge">
<title>Node199&#45;&gt;Node128</title>
<path fill="none" stroke="#63b8ff" d="M2588.21,-142.65C2609.96,-130.75 2640.74,-113.91 2662.55,-101.97"/>
<polygon fill="#63b8ff" stroke="#63b8ff" points="2586.76,-139.46 2579.67,-147.33 2590.12,-145.6 2586.76,-139.46"/>
</g>
<!-- Node205&#45;&gt;Node8 -->
<g id="edge46" class="edge">
<title>Node205&#45;&gt;Node8</title>
<path fill="none" stroke="#63b8ff" d="M2773.23,-137.04C2773.33,-115.82 2769.77,-83.01 2749,-66 2711.76,-35.49 1993.95,-20.47 1794.2,-16.87"/>
<polygon fill="#63b8ff" stroke="#63b8ff" points="2769.74,-136.62 2772.89,-146.74 2776.74,-136.87 2769.74,-136.62"/>
</g>
<!-- Node210&#45;&gt;Node10 -->
<g id="edge48" class="edge">
<title>Node210&#45;&gt;Node10</title>
<path fill="none" stroke="#63b8ff" d="M2968.85,-137.67C2924.92,-116.79 2851.01,-84.11 2784,-66 2682.08,-38.46 2559.12,-25.36 2489.4,-19.72"/>
<polygon fill="#63b8ff" stroke="#63b8ff" points="2967.19,-140.75 2977.72,-141.92 2970.21,-134.44 2967.19,-140.75"/>
</g>
<!-- Node242&#45;&gt;Node22 -->
<g id="edge52" class="edge">
<title>Node242&#45;&gt;Node22</title>
<path fill="none" stroke="#63b8ff" d="M908.91,-209.42C932.17,-198.87 964.36,-184.26 988.1,-173.48"/>
<polygon fill="#63b8ff" stroke="#63b8ff" points="907.64,-206.16 899.98,-213.48 910.54,-212.53 907.64,-206.16"/>
</g>
</g>
</svg>
