<?xml version="1.0" encoding="UTF-8" standalone="no"?>
<!DOCTYPE svg PUBLIC "-//W3C//DTD SVG 1.1//EN"
 "http://www.w3.org/Graphics/SVG/1.1/DTD/svg11.dtd">
<!-- Generated by graphviz version 7.0.5 (20221223.1930)
 -->
<!-- Title: include/JSystem/J3DGraphBase/J3DShape.h Pages: 1 -->
<svg width="4443pt" height="489pt"
 viewBox="0.00 0.00 4443.00 489.00" xmlns="http://www.w3.org/2000/svg" xmlns:xlink="http://www.w3.org/1999/xlink">
<g id="graph0" class="graph" transform="scale(1 1) rotate(0) translate(4 485)">
<title>include/JSystem/J3DGraphBase/J3DShape.h</title>
<!-- Node1 -->
<g id="node1" class="node">
<title>Node1</title>
<g id="a_node1"><a xlink:title=" ">
<polygon fill="#999999" stroke="#666666" points="1101.5,-481 966.5,-481 966.5,-451 1101.5,-451 1101.5,-481"/>
<text text-anchor="start" x="974.5" y="-469" font-family="Helvetica,sans-Serif" font-size="10.00">include/JSystem/J3DGraph</text>
<text text-anchor="middle" x="1034" y="-458" font-family="Helvetica,sans-Serif" font-size="10.00">Base/J3DShape.h</text>
</a>
</g>
</g>
<!-- Node2 -->
<g id="node2" class="node">
<title>Node2</title>
<g id="a_node2"><a xlink:href="J3DShapeTable_8h.html" target="_top" xlink:title=" ">
<polygon fill="white" stroke="#666666" points="1023.5,-415 888.5,-415 888.5,-385 1023.5,-385 1023.5,-415"/>
<text text-anchor="start" x="896.5" y="-403" font-family="Helvetica,sans-Serif" font-size="10.00">include/JSystem/J3DGraph</text>
<text text-anchor="middle" x="956" y="-392" font-family="Helvetica,sans-Serif" font-size="10.00">Animator/J3DShapeTable.h</text>
</a>
</g>
</g>
<!-- Node1&#45;&gt;Node2 -->
<g id="edge1" class="edge">
<title>Node1&#45;&gt;Node2</title>
<path fill="none" stroke="#63b8ff" d="M1008.04,-443.7C996.7,-434.4 983.7,-423.73 973.53,-415.39"/>
<polygon fill="#63b8ff" stroke="#63b8ff" points="1005.57,-446.2 1015.52,-449.84 1010.01,-440.79 1005.57,-446.2"/>
</g>
<!-- Node404 -->
<g id="node44" class="node">
<title>Node404</title>
<g id="a_node44"><a xlink:href="J3DMaterial_8h.html" target="_top" xlink:title=" ">
<polygon fill="white" stroke="#666666" points="961.5,-217 826.5,-217 826.5,-187 961.5,-187 961.5,-217"/>
<text text-anchor="start" x="834.5" y="-205" font-family="Helvetica,sans-Serif" font-size="10.00">include/JSystem/J3DGraph</text>
<text text-anchor="middle" x="894" y="-194" font-family="Helvetica,sans-Serif" font-size="10.00">Base/J3DMaterial.h</text>
</a>
</g>
</g>
<!-- Node1&#45;&gt;Node404 -->
<g id="edge47" class="edge">
<title>Node1&#45;&gt;Node404</title>
<path fill="none" stroke="#63b8ff" d="M955.22,-458.65C926.48,-452.06 896.71,-439.32 879,-415 834.37,-353.7 871.06,-254.21 887.27,-217.34"/>
<polygon fill="#63b8ff" stroke="#63b8ff" points="954.17,-462.01 964.67,-460.58 955.57,-455.15 954.17,-462.01"/>
</g>
<!-- Node407 -->
<g id="node49" class="node">
<title>Node407</title>
<g id="a_node49"><a xlink:href="J3DShape_8cpp.html" target="_top" xlink:title=" ">
<polygon fill="white" stroke="#666666" points="1184,-415 1042,-415 1042,-385 1184,-385 1184,-415"/>
<text text-anchor="start" x="1050" y="-403" font-family="Helvetica,sans-Serif" font-size="10.00">libs/JSystem/J3DGraphBase</text>
<text text-anchor="middle" x="1113" y="-392" font-family="Helvetica,sans-Serif" font-size="10.00">/J3DShape.cpp</text>
</a>
</g>
</g>
<!-- Node1&#45;&gt;Node407 -->
<g id="edge65" class="edge">
<title>Node1&#45;&gt;Node407</title>
<path fill="none" stroke="#63b8ff" d="M1060.29,-443.7C1071.78,-434.4 1084.94,-423.73 1095.24,-415.39"/>
<polygon fill="#63b8ff" stroke="#63b8ff" points="1058.28,-440.83 1052.71,-449.84 1062.68,-446.27 1058.28,-440.83"/>
</g>
<!-- Node408 -->
<g id="node50" class="node">
<title>Node408</title>
<g id="a_node50"><a xlink:href="J3DShapeFactory_8cpp.html" target="_top" xlink:title=" ">
<polygon fill="white" stroke="#666666" points="1351.5,-415 1202.5,-415 1202.5,-385 1351.5,-385 1351.5,-415"/>
<text text-anchor="start" x="1210.5" y="-403" font-family="Helvetica,sans-Serif" font-size="10.00">libs/JSystem/J3DGraphLoader</text>
<text text-anchor="middle" x="1277" y="-392" font-family="Helvetica,sans-Serif" font-size="10.00">/J3DShapeFactory.cpp</text>
</a>
</g>
</g>
<!-- Node1&#45;&gt;Node408 -->
<g id="edge66" class="edge">
<title>Node1&#45;&gt;Node408</title>
<path fill="none" stroke="#63b8ff" d="M1099.91,-447.64C1138.28,-437.53 1186.09,-424.94 1222.36,-415.39"/>
<polygon fill="#63b8ff" stroke="#63b8ff" points="1099.08,-444.24 1090.3,-450.17 1100.86,-451.01 1099.08,-444.24"/>
</g>
<!-- Node3 -->
<g id="node3" class="node">
<title>Node3</title>
<g id="a_node3"><a xlink:href="J3DModelData_8h.html" target="_top" xlink:title=" ">
<polygon fill="white" stroke="#666666" points="1914.5,-349 1779.5,-349 1779.5,-319 1914.5,-319 1914.5,-349"/>
<text text-anchor="start" x="1787.5" y="-337" font-family="Helvetica,sans-Serif" font-size="10.00">include/JSystem/J3DGraph</text>
<text text-anchor="middle" x="1847" y="-326" font-family="Helvetica,sans-Serif" font-size="10.00">Animator/J3DModelData.h</text>
</a>
</g>
</g>
<!-- Node2&#45;&gt;Node3 -->
<g id="edge2" class="edge">
<title>Node2&#45;&gt;Node3</title>
<path fill="none" stroke="#63b8ff" d="M1035.23,-384.84C1317.18,-351.31 1641.13,-339.99 1779.22,-336.45"/>
<polygon fill="#63b8ff" stroke="#63b8ff" points="1034.97,-381.34 1025.46,-386.01 1035.8,-388.29 1034.97,-381.34"/>
</g>
<!-- Node402 -->
<g id="node42" class="node">
<title>Node402</title>
<g id="a_node42"><a xlink:href="J3DJointTree_8cpp.html" target="_top" xlink:title=" ">
<polygon fill="white" stroke="#666666" points="158,-151 0,-151 0,-121 158,-121 158,-151"/>
<text text-anchor="start" x="8" y="-139" font-family="Helvetica,sans-Serif" font-size="10.00">libs/JSystem/J3DGraphAnimator</text>
<text text-anchor="middle" x="79" y="-128" font-family="Helvetica,sans-Serif" font-size="10.00">/J3DJointTree.cpp</text>
</a>
</g>
</g>
<!-- Node2&#45;&gt;Node402 -->
<g id="edge45" class="edge">
<title>Node2&#45;&gt;Node402</title>
<path fill="none" stroke="#63b8ff" d="M896.8,-381.31C733.25,-332.46 277.48,-196.3 127.52,-151.5"/>
<polygon fill="#63b8ff" stroke="#63b8ff" points="895.57,-384.6 906.15,-384.11 897.57,-377.89 895.57,-384.6"/>
</g>
<!-- Node403 -->
<g id="node43" class="node">
<title>Node403</title>
<g id="a_node43"><a xlink:href="J3DShapeTable_8cpp.html" target="_top" xlink:title=" ">
<polygon fill="white" stroke="#666666" points="1060,-349 902,-349 902,-319 1060,-319 1060,-349"/>
<text text-anchor="start" x="910" y="-337" font-family="Helvetica,sans-Serif" font-size="10.00">libs/JSystem/J3DGraphAnimator</text>
<text text-anchor="middle" x="981" y="-326" font-family="Helvetica,sans-Serif" font-size="10.00">/J3DShapeTable.cpp</text>
</a>
</g>
</g>
<!-- Node2&#45;&gt;Node403 -->
<g id="edge46" class="edge">
<title>Node2&#45;&gt;Node403</title>
<path fill="none" stroke="#63b8ff" d="M965.67,-374.25C968.99,-365.75 972.59,-356.53 975.47,-349.16"/>
<polygon fill="#63b8ff" stroke="#63b8ff" points="962.48,-372.8 962.1,-383.39 969,-375.35 962.48,-372.8"/>
</g>
<!-- Node4 -->
<g id="node4" class="node">
<title>Node4</title>
<g id="a_node4"><a xlink:href="J3DAnimation_8h.html" target="_top" xlink:title=" ">
<polygon fill="white" stroke="#666666" points="2912.5,-283 2777.5,-283 2777.5,-253 2912.5,-253 2912.5,-283"/>
<text text-anchor="start" x="2785.5" y="-271" font-family="Helvetica,sans-Serif" font-size="10.00">include/JSystem/J3DGraph</text>
<text text-anchor="middle" x="2845" y="-260" font-family="Helvetica,sans-Serif" font-size="10.00">Animator/J3DAnimation.h</text>
</a>
</g>
</g>
<!-- Node3&#45;&gt;Node4 -->
<g id="edge3" class="edge">
<title>Node3&#45;&gt;Node4</title>
<path fill="none" stroke="#63b8ff" d="M1926.12,-327.93C2116.69,-315.7 2598.57,-284.8 2777.09,-273.35"/>
<polygon fill="#63b8ff" stroke="#63b8ff" points="1926.08,-324.42 1916.32,-328.55 1926.53,-331.41 1926.08,-324.42"/>
</g>
<!-- Node78 -->
<g id="node22" class="node">
<title>Node78</title>
<g id="a_node22"><a xlink:href="J3DModelData_8cpp.html" target="_top" xlink:title=" ">
<polygon fill="white" stroke="#666666" points="2214,-151 2056,-151 2056,-121 2214,-121 2214,-151"/>
<text text-anchor="start" x="2064" y="-139" font-family="Helvetica,sans-Serif" font-size="10.00">libs/JSystem/J3DGraphAnimator</text>
<text text-anchor="middle" x="2135" y="-128" font-family="Helvetica,sans-Serif" font-size="10.00">/J3DModelData.cpp</text>
</a>
</g>
</g>
<!-- Node3&#45;&gt;Node78 -->
<g id="edge44" class="edge">
<title>Node3&#45;&gt;Node78</title>
<path fill="none" stroke="#63b8ff" d="M1877.66,-312.14C1936.39,-272.16 2063.41,-185.72 2113.79,-151.43"/>
<polygon fill="#63b8ff" stroke="#63b8ff" points="1875.73,-309.22 1869.43,-317.74 1879.66,-315 1875.73,-309.22"/>
</g>
<!-- Node393 -->
<g id="node39" class="node">
<title>Node393</title>
<g id="a_node39"><a xlink:href="J3DMtxBuffer_8h.html" target="_top" xlink:title=" ">
<polygon fill="white" stroke="#666666" points="1782.5,-283 1647.5,-283 1647.5,-253 1782.5,-253 1782.5,-283"/>
<text text-anchor="start" x="1655.5" y="-271" font-family="Helvetica,sans-Serif" font-size="10.00">include/JSystem/J3DGraph</text>
<text text-anchor="middle" x="1715" y="-260" font-family="Helvetica,sans-Serif" font-size="10.00">Animator/J3DMtxBuffer.h</text>
</a>
</g>
</g>
<!-- Node3&#45;&gt;Node393 -->
<g id="edge41" class="edge">
<title>Node3&#45;&gt;Node393</title>
<path fill="none" stroke="#63b8ff" d="M1807.24,-313.72C1787.08,-303.95 1763.02,-292.28 1744.52,-283.31"/>
<polygon fill="#63b8ff" stroke="#63b8ff" points="1805.49,-316.76 1816.01,-317.98 1808.54,-310.46 1805.49,-316.76"/>
</g>
<!-- Node5 -->
<g id="node5" class="node">
<title>Node5</title>
<g id="a_node5"><a xlink:href="J2DAnimation_8h.html" target="_top" xlink:title=" ">
<polygon fill="white" stroke="#666666" points="3980.5,-217 3845.5,-217 3845.5,-187 3980.5,-187 3980.5,-217"/>
<text text-anchor="start" x="3853.5" y="-205" font-family="Helvetica,sans-Serif" font-size="10.00">include/JSystem/J2DGraph</text>
<text text-anchor="middle" x="3913" y="-194" font-family="Helvetica,sans-Serif" font-size="10.00">/J2DAnimation.h</text>
</a>
</g>
</g>
<!-- Node4&#45;&gt;Node5 -->
<g id="edge4" class="edge">
<title>Node4&#45;&gt;Node5</title>
<path fill="none" stroke="#63b8ff" d="M2923.98,-262.27C3125.61,-250.18 3656.7,-218.36 3845.33,-207.05"/>
<polygon fill="#63b8ff" stroke="#63b8ff" points="2923.9,-258.77 2914.13,-262.86 2924.32,-265.75 2923.9,-258.77"/>
</g>
<!-- Node61 -->
<g id="node14" class="node">
<title>Node61</title>
<g id="a_node14"><a xlink:href="J3DMaterialAnm_8h.html" target="_top" xlink:title=" ">
<polygon fill="white" stroke="#666666" points="1950,-217 1812,-217 1812,-187 1950,-187 1950,-217"/>
<text text-anchor="start" x="1820" y="-205" font-family="Helvetica,sans-Serif" font-size="10.00">include/JSystem/J3DGraph</text>
<text text-anchor="middle" x="1881" y="-194" font-family="Helvetica,sans-Serif" font-size="10.00">Animator/J3DMaterialAnm.h</text>
</a>
</g>
</g>
<!-- Node4&#45;&gt;Node61 -->
<g id="edge13" class="edge">
<title>Node4&#45;&gt;Node61</title>
<path fill="none" stroke="#63b8ff" d="M2765.99,-261.75C2581.5,-249.51 2124.84,-219.19 1950.33,-207.6"/>
<polygon fill="#63b8ff" stroke="#63b8ff" points="2765.49,-265.23 2775.7,-262.4 2765.96,-258.24 2765.49,-265.23"/>
</g>
<!-- Node81 -->
<g id="node26" class="node">
<title>Node81</title>
<g id="a_node26"><a xlink:href="m__Do__ext_8h.html" target="_top" xlink:title=" ">
<polygon fill="#fff0f0" stroke="red" points="2910,-211.5 2780,-211.5 2780,-192.5 2910,-192.5 2910,-211.5"/>
<text text-anchor="middle" x="2845" y="-199.5" font-family="Helvetica,sans-Serif" font-size="10.00">include/m_Do/m_Do_ext.h</text>
</a>
</g>
</g>
<!-- Node4&#45;&gt;Node81 -->
<g id="edge26" class="edge">
<title>Node4&#45;&gt;Node81</title>
<path fill="none" stroke="#63b8ff" d="M2845,-241.59C2845,-231.06 2845,-219.53 2845,-211.84"/>
<polygon fill="#63b8ff" stroke="#63b8ff" points="2841.5,-241.28 2845,-251.28 2848.5,-241.28 2841.5,-241.28"/>
</g>
<!-- Node392 -->
<g id="node38" class="node">
<title>Node392</title>
<g id="a_node38"><a xlink:href="J3DAnimation_8cpp.html" target="_top" xlink:title=" ">
<polygon fill="white" stroke="#666666" points="3086,-217 2928,-217 2928,-187 3086,-187 3086,-217"/>
<text text-anchor="start" x="2936" y="-205" font-family="Helvetica,sans-Serif" font-size="10.00">libs/JSystem/J3DGraphAnimator</text>
<text text-anchor="middle" x="3007" y="-194" font-family="Helvetica,sans-Serif" font-size="10.00">/J3DAnimation.cpp</text>
</a>
</g>
</g>
<!-- Node4&#45;&gt;Node392 -->
<g id="edge40" class="edge">
<title>Node4&#45;&gt;Node392</title>
<path fill="none" stroke="#63b8ff" d="M2892.06,-248.41C2917.05,-238.54 2947.29,-226.59 2970.49,-217.43"/>
<polygon fill="#63b8ff" stroke="#63b8ff" points="2890.78,-245.15 2882.76,-252.08 2893.35,-251.66 2890.78,-245.15"/>
</g>
<!-- Node6 -->
<g id="node6" class="node">
<title>Node6</title>
<g id="a_node6"><a xlink:href="J2DAnmLoader_8h.html" target="_top" xlink:title=" ">
<polygon fill="#fff0f0" stroke="red" points="3518.5,-85 3383.5,-85 3383.5,-55 3518.5,-55 3518.5,-85"/>
<text text-anchor="start" x="3391.5" y="-73" font-family="Helvetica,sans-Serif" font-size="10.00">include/JSystem/J2DGraph</text>
<text text-anchor="middle" x="3451" y="-62" font-family="Helvetica,sans-Serif" font-size="10.00">/J2DAnmLoader.h</text>
</a>
</g>
</g>
<!-- Node5&#45;&gt;Node6 -->
<g id="edge5" class="edge">
<title>Node5&#45;&gt;Node6</title>
<path fill="none" stroke="#63b8ff" d="M3899.61,-176.77C3887.99,-158.24 3869.37,-133.76 3846,-121 3791.09,-91.02 3616.37,-78.44 3518.71,-73.64"/>
<polygon fill="#63b8ff" stroke="#63b8ff" points="3896.57,-178.51 3904.7,-185.3 3902.58,-174.92 3896.57,-178.51"/>
</g>
<!-- Node13 -->
<g id="node8" class="node">
<title>Node13</title>
<g id="a_node8"><a xlink:href="J2DMaterial_8h.html" target="_top" xlink:title=" ">
<polygon fill="#fff0f0" stroke="red" points="4028.5,-151 3893.5,-151 3893.5,-121 4028.5,-121 4028.5,-151"/>
<text text-anchor="start" x="3901.5" y="-139" font-family="Helvetica,sans-Serif" font-size="10.00">include/JSystem/J2DGraph</text>
<text text-anchor="middle" x="3961" y="-128" font-family="Helvetica,sans-Serif" font-size="10.00">/J2DMaterial.h</text>
</a>
</g>
</g>
<!-- Node5&#45;&gt;Node13 -->
<g id="edge7" class="edge">
<title>Node5&#45;&gt;Node13</title>
<path fill="none" stroke="#63b8ff" d="M3930.49,-177.68C3937.15,-168.79 3944.54,-158.95 3950.38,-151.16"/>
<polygon fill="#63b8ff" stroke="#63b8ff" points="3927.76,-175.49 3924.56,-185.59 3933.36,-179.69 3927.76,-175.49"/>
</g>
<!-- Node56 -->
<g id="node9" class="node">
<title>Node56</title>
<g id="a_node9"><a xlink:href="J2DAnimation_8cpp.html" target="_top" xlink:title=" ">
<polygon fill="white" stroke="#666666" points="4165.5,-151 4046.5,-151 4046.5,-121 4165.5,-121 4165.5,-151"/>
<text text-anchor="start" x="4054.5" y="-139" font-family="Helvetica,sans-Serif" font-size="10.00">libs/JSystem/J2DGraph</text>
<text text-anchor="middle" x="4106" y="-128" font-family="Helvetica,sans-Serif" font-size="10.00">/J2DAnimation.cpp</text>
</a>
</g>
</g>
<!-- Node5&#45;&gt;Node56 -->
<g id="edge8" class="edge">
<title>Node5&#45;&gt;Node56</title>
<path fill="none" stroke="#63b8ff" d="M3967.08,-183.07C3997.22,-173.07 4034.25,-160.79 4062.5,-151.43"/>
<polygon fill="#63b8ff" stroke="#63b8ff" points="3966.14,-179.69 3957.75,-186.16 3968.34,-186.34 3966.14,-179.69"/>
</g>
<!-- Node57 -->
<g id="node10" class="node">
<title>Node57</title>
<g id="a_node10"><a xlink:href="J2DPane_8cpp.html" target="_top" xlink:title=" ">
<polygon fill="white" stroke="#666666" points="4302.5,-151 4183.5,-151 4183.5,-121 4302.5,-121 4302.5,-151"/>
<text text-anchor="start" x="4191.5" y="-139" font-family="Helvetica,sans-Serif" font-size="10.00">libs/JSystem/J2DGraph</text>
<text text-anchor="middle" x="4243" y="-128" font-family="Helvetica,sans-Serif" font-size="10.00">/J2DPane.cpp</text>
</a>
</g>
</g>
<!-- Node5&#45;&gt;Node57 -->
<g id="edge9" class="edge">
<title>Node5&#45;&gt;Node57</title>
<path fill="none" stroke="#63b8ff" d="M3992.07,-186.22C4044.08,-176.42 4113.64,-163.17 4175,-151 4177.72,-150.46 4180.5,-149.91 4183.31,-149.34"/>
<polygon fill="#63b8ff" stroke="#63b8ff" points="3991.58,-182.75 3982.4,-188.04 3992.87,-189.63 3991.58,-182.75"/>
</g>
<!-- Node58 -->
<g id="node11" class="node">
<title>Node58</title>
<g id="a_node11"><a xlink:href="JPAMath_8cpp.html" target="_top" xlink:title=" ">
<polygon fill="white" stroke="#666666" points="4435,-151 4321,-151 4321,-121 4435,-121 4435,-151"/>
<text text-anchor="start" x="4329" y="-139" font-family="Helvetica,sans-Serif" font-size="10.00">libs/JSystem/JParticle</text>
<text text-anchor="middle" x="4378" y="-128" font-family="Helvetica,sans-Serif" font-size="10.00">/JPAMath.cpp</text>
</a>
</g>
</g>
<!-- Node5&#45;&gt;Node58 -->
<g id="edge10" class="edge">
<title>Node5&#45;&gt;Node58</title>
<path fill="none" stroke="#63b8ff" d="M3991.73,-193.12C4072.42,-184.57 4201.37,-169.63 4312,-151 4314.89,-150.51 4317.84,-149.99 4320.82,-149.44"/>
<polygon fill="#63b8ff" stroke="#63b8ff" points="3991.76,-189.59 3982.18,-194.12 3992.49,-196.56 3991.76,-189.59"/>
</g>
<!-- Node59 -->
<g id="node12" class="node">
<title>Node59</title>
<g id="a_node12"><a xlink:href="d__select__cursor_8cpp.html" target="_top" xlink:title=" ">
<polygon fill="white" stroke="#666666" points="3699,-145.5 3571,-145.5 3571,-126.5 3699,-126.5 3699,-145.5"/>
<text text-anchor="middle" x="3635" y="-133.5" font-family="Helvetica,sans-Serif" font-size="10.00">src/d/d_select_cursor.cpp</text>
</a>
</g>
</g>
<!-- Node5&#45;&gt;Node59 -->
<g id="edge11" class="edge">
<title>Node5&#45;&gt;Node59</title>
<path fill="none" stroke="#63b8ff" d="M3839.2,-184.01C3786.12,-171.79 3716.62,-155.79 3673.93,-145.96"/>
<polygon fill="#63b8ff" stroke="#63b8ff" points="3838.26,-187.39 3848.79,-186.22 3839.83,-180.56 3838.26,-187.39"/>
</g>
<!-- Node60 -->
<g id="node13" class="node">
<title>Node60</title>
<g id="a_node13"><a xlink:href="d__select__icon_8cpp.html" target="_top" xlink:title=" ">
<polygon fill="white" stroke="#666666" points="3836.5,-145.5 3717.5,-145.5 3717.5,-126.5 3836.5,-126.5 3836.5,-145.5"/>
<text text-anchor="middle" x="3777" y="-133.5" font-family="Helvetica,sans-Serif" font-size="10.00">src/d/d_select_icon.cpp</text>
</a>
</g>
</g>
<!-- Node5&#45;&gt;Node60 -->
<g id="edge12" class="edge">
<title>Node5&#45;&gt;Node60</title>
<path fill="none" stroke="#63b8ff" d="M3872.09,-181.75C3846.87,-169.88 3815.72,-155.22 3796.09,-145.99"/>
<polygon fill="#63b8ff" stroke="#63b8ff" points="3870.57,-184.9 3881.11,-185.99 3873.55,-178.57 3870.57,-184.9"/>
</g>
<!-- Node8 -->
<g id="node7" class="node">
<title>Node8</title>
<g id="a_node7"><a xlink:href="d__a__alink_8cpp.html" target="_top" xlink:title=" ">
<polygon fill="white" stroke="#666666" points="2814.5,-19 2705.5,-19 2705.5,0 2814.5,0 2814.5,-19"/>
<text text-anchor="middle" x="2760" y="-7" font-family="Helvetica,sans-Serif" font-size="10.00">src/d/a/d_a_alink.cpp</text>
</a>
</g>
</g>
<!-- Node6&#45;&gt;Node8 -->
<g id="edge6" class="edge">
<title>Node6&#45;&gt;Node8</title>
<path fill="none" stroke="#63b8ff" d="M3372,-62.31C3230.25,-50.31 2936.21,-25.42 2814.54,-15.12"/>
<polygon fill="#63b8ff" stroke="#63b8ff" points="3371.4,-65.77 3381.66,-63.13 3371.99,-58.8 3371.4,-65.77"/>
</g>
<!-- Node62 -->
<g id="node15" class="node">
<title>Node62</title>
<g id="a_node15"><a xlink:href="d__a__alink_8h.html" target="_top" xlink:title=" ">
<polygon fill="#fff0f0" stroke="red" points="2818,-79.5 2702,-79.5 2702,-60.5 2818,-60.5 2818,-79.5"/>
<text text-anchor="middle" x="2760" y="-67.5" font-family="Helvetica,sans-Serif" font-size="10.00">include/d/a/d_a_alink.h</text>
</a>
</g>
</g>
<!-- Node61&#45;&gt;Node62 -->
<g id="edge14" class="edge">
<title>Node61&#45;&gt;Node62</title>
<path fill="none" stroke="#63b8ff" d="M1961.69,-201.41C2125.64,-201.27 2492.02,-195.78 2608,-151 2628.07,-143.25 2627.55,-132.08 2646,-121 2674.9,-103.64 2710.91,-88.87 2734.64,-79.98"/>
<polygon fill="#63b8ff" stroke="#63b8ff" points="1961.75,-197.91 1951.75,-201.41 1961.75,-204.91 1961.75,-197.91"/>
</g>
<!-- Node69 -->
<g id="node16" class="node">
<title>Node69</title>
<g id="a_node16"><a xlink:href="d__a__npc_8h.html" target="_top" xlink:title=" ">
<polygon fill="#fff0f0" stroke="red" points="2037.5,-145.5 1926.5,-145.5 1926.5,-126.5 2037.5,-126.5 2037.5,-145.5"/>
<text text-anchor="middle" x="1982" y="-133.5" font-family="Helvetica,sans-Serif" font-size="10.00">include/d/a/d_a_npc.h</text>
</a>
</g>
</g>
<!-- Node61&#45;&gt;Node69 -->
<g id="edge16" class="edge">
<title>Node61&#45;&gt;Node69</title>
<path fill="none" stroke="#63b8ff" d="M1913.15,-180.63C1931.55,-168.97 1953.7,-154.93 1967.82,-145.99"/>
<polygon fill="#63b8ff" stroke="#63b8ff" points="1911.52,-177.52 1904.94,-185.83 1915.27,-183.43 1911.52,-177.52"/>
</g>
<!-- Node74 -->
<g id="node18" class="node">
<title>Node74</title>
<g id="a_node18"><a xlink:href="J3DJoint_8cpp.html" target="_top" xlink:title=" ">
<polygon fill="white" stroke="#666666" points="1556,-151 1398,-151 1398,-121 1556,-121 1556,-151"/>
<text text-anchor="start" x="1406" y="-139" font-family="Helvetica,sans-Serif" font-size="10.00">libs/JSystem/J3DGraphAnimator</text>
<text text-anchor="middle" x="1477" y="-128" font-family="Helvetica,sans-Serif" font-size="10.00">/J3DJoint.cpp</text>
</a>
</g>
</g>
<!-- Node61&#45;&gt;Node74 -->
<g id="edge18" class="edge">
<title>Node61&#45;&gt;Node74</title>
<path fill="none" stroke="#63b8ff" d="M1800.6,-186.63C1695.59,-169.39 1667.21,-166.86 1565,-151 1562.1,-150.55 1559.14,-150.09 1556.15,-149.62"/>
<polygon fill="#63b8ff" stroke="#63b8ff" points="1799.77,-190.04 1810.2,-188.21 1800.9,-183.13 1799.77,-190.04"/>
</g>
<!-- Node75 -->
<g id="node19" class="node">
<title>Node75</title>
<g id="a_node19"><a xlink:href="J3DMaterialAnm_8cpp.html" target="_top" xlink:title=" ">
<polygon fill="white" stroke="#666666" points="1732,-151 1574,-151 1574,-121 1732,-121 1732,-151"/>
<text text-anchor="start" x="1582" y="-139" font-family="Helvetica,sans-Serif" font-size="10.00">libs/JSystem/J3DGraphAnimator</text>
<text text-anchor="middle" x="1653" y="-128" font-family="Helvetica,sans-Serif" font-size="10.00">/J3DMaterialAnm.cpp</text>
</a>
</g>
</g>
<!-- Node61&#45;&gt;Node75 -->
<g id="edge19" class="edge">
<title>Node61&#45;&gt;Node75</title>
<path fill="none" stroke="#63b8ff" d="M1818.7,-183.51C1782.77,-173.43 1738.15,-160.9 1704.26,-151.39"/>
<polygon fill="#63b8ff" stroke="#63b8ff" points="1817.52,-186.82 1828.09,-186.15 1819.41,-180.08 1817.52,-186.82"/>
</g>
<!-- Node76 -->
<g id="node20" class="node">
<title>Node76</title>
<g id="a_node20"><a xlink:href="J3DMaterialAttach_8cpp.html" target="_top" xlink:title=" ">
<polygon fill="white" stroke="#666666" points="1908,-151 1750,-151 1750,-121 1908,-121 1908,-151"/>
<text text-anchor="start" x="1758" y="-139" font-family="Helvetica,sans-Serif" font-size="10.00">libs/JSystem/J3DGraphAnimator</text>
<text text-anchor="middle" x="1829" y="-128" font-family="Helvetica,sans-Serif" font-size="10.00">/J3DMaterialAttach.cpp</text>
</a>
</g>
</g>
<!-- Node61&#45;&gt;Node76 -->
<g id="edge20" class="edge">
<title>Node61&#45;&gt;Node76</title>
<path fill="none" stroke="#63b8ff" d="M1862.28,-177.96C1855,-169 1846.9,-159.03 1840.51,-151.16"/>
<polygon fill="#63b8ff" stroke="#63b8ff" points="1859.48,-180.07 1868.51,-185.62 1864.92,-175.65 1859.48,-180.07"/>
</g>
<!-- Node77 -->
<g id="node21" class="node">
<title>Node77</title>
<g id="a_node21"><a xlink:href="J3DModel_8cpp.html" target="_top" xlink:title=" ">
<polygon fill="white" stroke="#666666" points="1080,-151 922,-151 922,-121 1080,-121 1080,-151"/>
<text text-anchor="start" x="930" y="-139" font-family="Helvetica,sans-Serif" font-size="10.00">libs/JSystem/J3DGraphAnimator</text>
<text text-anchor="middle" x="1001" y="-128" font-family="Helvetica,sans-Serif" font-size="10.00">/J3DModel.cpp</text>
</a>
</g>
</g>
<!-- Node61&#45;&gt;Node77 -->
<g id="edge21" class="edge">
<title>Node61&#45;&gt;Node77</title>
<path fill="none" stroke="#63b8ff" d="M1800.44,-186.82C1485.36,-151.63 1401.31,-183.62 1089,-151 1086.08,-150.69 1083.1,-150.36 1080.1,-149.99"/>
<polygon fill="#63b8ff" stroke="#63b8ff" points="1799.91,-190.28 1810.24,-187.93 1800.7,-183.32 1799.91,-190.28"/>
</g>
<!-- Node61&#45;&gt;Node78 -->
<g id="edge22" class="edge">
<title>Node61&#45;&gt;Node78</title>
<path fill="none" stroke="#63b8ff" d="M1949.37,-183.77C1989.57,-173.64 2039.82,-160.98 2077.89,-151.39"/>
<polygon fill="#63b8ff" stroke="#63b8ff" points="1948.63,-180.35 1939.79,-186.19 1950.34,-187.14 1948.63,-180.35"/>
</g>
<!-- Node40 -->
<g id="node23" class="node">
<title>Node40</title>
<g id="a_node23"><a xlink:href="d__file__select_8cpp.html" target="_top" xlink:title=" ">
<polygon fill="white" stroke="#666666" points="1226,-145.5 1098,-145.5 1098,-126.5 1226,-126.5 1226,-145.5"/>
<text text-anchor="middle" x="1162" y="-133.5" font-family="Helvetica,sans-Serif" font-size="10.00">src/d/file/d_file_select.cpp</text>
</a>
</g>
</g>
<!-- Node61&#45;&gt;Node40 -->
<g id="edge23" class="edge">
<title>Node61&#45;&gt;Node40</title>
<path fill="none" stroke="#63b8ff" d="M1800.44,-186.8C1549.91,-157.36 1482.26,-182.42 1235,-151 1224.89,-149.71 1214.06,-147.89 1203.93,-145.98"/>
<polygon fill="#63b8ff" stroke="#63b8ff" points="1799.89,-190.25 1810.24,-187.97 1800.72,-183.3 1799.89,-190.25"/>
</g>
<!-- Node79 -->
<g id="node24" class="node">
<title>Node79</title>
<g id="a_node24"><a xlink:href="d__particle_8cpp.html" target="_top" xlink:title=" ">
<polygon fill="white" stroke="#666666" points="1380,-145.5 1244,-145.5 1244,-126.5 1380,-126.5 1380,-145.5"/>
<text text-anchor="middle" x="1312" y="-133.5" font-family="Helvetica,sans-Serif" font-size="10.00">src/d/particle/d_particle.cpp</text>
</a>
</g>
</g>
<!-- Node61&#45;&gt;Node79 -->
<g id="edge24" class="edge">
<title>Node61&#45;&gt;Node79</title>
<path fill="none" stroke="#63b8ff" d="M1800.38,-186.74C1617.95,-163.16 1568.39,-175.05 1389,-151 1378.77,-149.63 1367.82,-147.84 1357.49,-146"/>
<polygon fill="#63b8ff" stroke="#63b8ff" points="1799.86,-190.2 1810.23,-188.03 1800.77,-183.26 1799.86,-190.2"/>
</g>
<!-- Node80 -->
<g id="node25" class="node">
<title>Node80</title>
<g id="a_node25"><a xlink:href="m__Do__ext_8cpp.html" target="_top" xlink:title=" ">
<polygon fill="white" stroke="#666666" points="2355.5,-145.5 2232.5,-145.5 2232.5,-126.5 2355.5,-126.5 2355.5,-145.5"/>
<text text-anchor="middle" x="2294" y="-133.5" font-family="Helvetica,sans-Serif" font-size="10.00">src/m_Do/m_Do_ext.cpp</text>
</a>
</g>
</g>
<!-- Node61&#45;&gt;Node80 -->
<g id="edge25" class="edge">
<title>Node61&#45;&gt;Node80</title>
<path fill="none" stroke="#63b8ff" d="M1961.54,-190.37C2030.96,-180.94 2133.78,-166.31 2223,-151 2231.92,-149.47 2241.43,-147.69 2250.51,-145.93"/>
<polygon fill="#63b8ff" stroke="#63b8ff" points="1961.2,-186.88 1951.77,-191.69 1962.14,-193.82 1961.2,-186.88"/>
</g>
<!-- Node62&#45;&gt;Node8 -->
<g id="edge15" class="edge">
<title>Node62&#45;&gt;Node8</title>
<path fill="none" stroke="#63b8ff" d="M2760,-49.16C2760,-38.95 2760,-27.04 2760,-19.17"/>
<polygon fill="#63b8ff" stroke="#63b8ff" points="2756.5,-48.85 2760,-58.85 2763.5,-48.85 2756.5,-48.85"/>
</g>
<!-- Node73 -->
<g id="node17" class="node">
<title>Node73</title>
<g id="a_node17"><a xlink:href="d__a__npc_8cpp.html" target="_top" xlink:title=" ">
<polygon fill="white" stroke="#666666" points="1473,-79.5 1369,-79.5 1369,-60.5 1473,-60.5 1473,-79.5"/>
<text text-anchor="middle" x="1421" y="-67.5" font-family="Helvetica,sans-Serif" font-size="10.00">src/d/a/d_a_npc.cpp</text>
</a>
</g>
</g>
<!-- Node69&#45;&gt;Node73 -->
<g id="edge17" class="edge">
<title>Node69&#45;&gt;Node73</title>
<path fill="none" stroke="#63b8ff" d="M1933.03,-123.84C1927.64,-122.8 1922.21,-121.82 1917,-121 1756.27,-95.67 1564.12,-80.58 1473.38,-74.35"/>
<polygon fill="#63b8ff" stroke="#63b8ff" points="1932,-127.21 1942.5,-125.77 1933.4,-120.35 1932,-127.21"/>
</g>
<!-- Node81&#45;&gt;Node80 -->
<g id="edge39" class="edge">
<title>Node81&#45;&gt;Node80</title>
<path fill="none" stroke="#63b8ff" d="M2768.32,-195.18C2673.34,-187.46 2506.72,-172.31 2365,-151 2355.68,-149.6 2345.73,-147.82 2336.31,-146"/>
<polygon fill="#63b8ff" stroke="#63b8ff" points="2767.79,-198.64 2778.04,-195.96 2768.35,-191.67 2767.79,-198.64"/>
</g>
<!-- Node82 -->
<g id="node27" class="node">
<title>Node82</title>
<g id="a_node27"><a xlink:href="d__attention_8h.html" target="_top" xlink:title=" ">
<polygon fill="#fff0f0" stroke="red" points="3553,-145.5 3439,-145.5 3439,-126.5 3553,-126.5 3553,-145.5"/>
<text text-anchor="middle" x="3496" y="-133.5" font-family="Helvetica,sans-Serif" font-size="10.00">include/d/d_attention.h</text>
</a>
</g>
</g>
<!-- Node81&#45;&gt;Node82 -->
<g id="edge27" class="edge">
<title>Node81&#45;&gt;Node82</title>
<path fill="none" stroke="#63b8ff" d="M2899.05,-190.02C2905.75,-188.88 2912.52,-187.84 2919,-187 3144.79,-157.79 3204.54,-182.7 3430,-151 3439.16,-149.71 3448.96,-147.89 3458.12,-145.98"/>
<polygon fill="#63b8ff" stroke="#63b8ff" points="2898.63,-186.54 2889.4,-191.74 2899.86,-193.43 2898.63,-186.54"/>
</g>
<!-- Node235 -->
<g id="node28" class="node">
<title>Node235</title>
<g id="a_node28"><a xlink:href="d__drawlist_8h.html" target="_top" xlink:title=" ">
<polygon fill="#fff0f0" stroke="red" points="2765,-145.5 2655,-145.5 2655,-126.5 2765,-126.5 2765,-145.5"/>
<text text-anchor="middle" x="2710" y="-133.5" font-family="Helvetica,sans-Serif" font-size="10.00">include/d/d_drawlist.h</text>
</a>
</g>
</g>
<!-- Node81&#45;&gt;Node235 -->
<g id="edge29" class="edge">
<title>Node81&#45;&gt;Node235</title>
<path fill="none" stroke="#63b8ff" d="M2816.04,-187.27C2789.57,-174.72 2751.21,-156.54 2728.61,-145.82"/>
<polygon fill="#63b8ff" stroke="#63b8ff" points="2814.33,-190.33 2824.86,-191.45 2817.32,-184.01 2814.33,-190.33"/>
</g>
<!-- Node271 -->
<g id="node29" class="node">
<title>Node271</title>
<g id="a_node29"><a xlink:href="d__ky__thunder_8h.html" target="_top" xlink:title=" ">
<polygon fill="#fff0f0" stroke="red" points="2907,-145.5 2783,-145.5 2783,-126.5 2907,-126.5 2907,-145.5"/>
<text text-anchor="middle" x="2845" y="-133.5" font-family="Helvetica,sans-Serif" font-size="10.00">include/d/d_ky_thunder.h</text>
</a>
</g>
</g>
<!-- Node81&#45;&gt;Node271 -->
<g id="edge30" class="edge">
<title>Node81&#45;&gt;Node271</title>
<path fill="none" stroke="#63b8ff" d="M2845,-180.68C2845,-168.94 2845,-154.77 2845,-145.82"/>
<polygon fill="#63b8ff" stroke="#63b8ff" points="2841.5,-180.59 2845,-190.59 2848.5,-180.59 2841.5,-180.59"/>
</g>
<!-- Node272 -->
<g id="node30" class="node">
<title>Node272</title>
<g id="a_node30"><a xlink:href="d__resorce_8h.html" target="_top" xlink:title=" ">
<polygon fill="#fff0f0" stroke="red" points="2482.5,-145.5 2373.5,-145.5 2373.5,-126.5 2482.5,-126.5 2482.5,-145.5"/>
<text text-anchor="middle" x="2428" y="-133.5" font-family="Helvetica,sans-Serif" font-size="10.00">include/d/d_resorce.h</text>
</a>
</g>
</g>
<!-- Node81&#45;&gt;Node272 -->
<g id="edge31" class="edge">
<title>Node81&#45;&gt;Node272</title>
<path fill="none" stroke="#63b8ff" d="M2768.54,-191.84C2696.86,-182.86 2586.83,-168.06 2492,-151 2483.83,-149.53 2475.11,-147.76 2466.83,-145.98"/>
<polygon fill="#63b8ff" stroke="#63b8ff" points="2767.85,-195.28 2778.2,-193.05 2768.71,-188.34 2767.85,-195.28"/>
</g>
<!-- Node273 -->
<g id="node32" class="node">
<title>Node273</title>
<g id="a_node32"><a xlink:href="d__kankyo_8h.html" target="_top" xlink:title=" ">
<polygon fill="#fff0f0" stroke="red" points="2599,-151 2501,-151 2501,-121 2599,-121 2599,-151"/>
<text text-anchor="start" x="2509" y="-139" font-family="Helvetica,sans-Serif" font-size="10.00">include/d/kankyo/d</text>
<text text-anchor="middle" x="2550" y="-128" font-family="Helvetica,sans-Serif" font-size="10.00">_kankyo.h</text>
</a>
</g>
</g>
<!-- Node81&#45;&gt;Node273 -->
<g id="edge33" class="edge">
<title>Node81&#45;&gt;Node273</title>
<path fill="none" stroke="#63b8ff" d="M2792.49,-189.61C2737.83,-177.75 2652.89,-159.32 2599.41,-147.72"/>
<polygon fill="#63b8ff" stroke="#63b8ff" points="2791.68,-193.01 2802.19,-191.71 2793.16,-186.17 2791.68,-193.01"/>
</g>
<!-- Node239 -->
<g id="node34" class="node">
<title>Node239</title>
<g id="a_node34"><a xlink:href="d__a__do_8h.html" target="_top" xlink:title=" ">
<polygon fill="white" stroke="#666666" points="3021,-151 2925,-151 2925,-121 3021,-121 3021,-151"/>
<text text-anchor="start" x="2933" y="-139" font-family="Helvetica,sans-Serif" font-size="10.00">include/rel/d/a/d_a</text>
<text text-anchor="middle" x="2973" y="-128" font-family="Helvetica,sans-Serif" font-size="10.00">_do/d_a_do.h</text>
</a>
</g>
</g>
<!-- Node81&#45;&gt;Node239 -->
<g id="edge35" class="edge">
<title>Node81&#45;&gt;Node239</title>
<path fill="none" stroke="#63b8ff" d="M2873.02,-186.99C2894.06,-176.47 2922.78,-162.11 2944.04,-151.48"/>
<polygon fill="#63b8ff" stroke="#63b8ff" points="2871.53,-183.82 2864.15,-191.42 2874.66,-190.08 2871.53,-183.82"/>
</g>
<!-- Node385 -->
<g id="node35" class="node">
<title>Node385</title>
<g id="a_node35"><a xlink:href="DynamicLink_8cpp.html" target="_top" xlink:title=" ">
<polygon fill="white" stroke="#666666" points="3146.5,-145.5 3039.5,-145.5 3039.5,-126.5 3146.5,-126.5 3146.5,-145.5"/>
<text text-anchor="middle" x="3093" y="-133.5" font-family="Helvetica,sans-Serif" font-size="10.00">src/DynamicLink.cpp</text>
</a>
</g>
</g>
<!-- Node81&#45;&gt;Node385 -->
<g id="edge36" class="edge">
<title>Node81&#45;&gt;Node385</title>
<path fill="none" stroke="#63b8ff" d="M2890.86,-189.16C2939.37,-176.65 3014.79,-157.18 3058.49,-145.91"/>
<polygon fill="#63b8ff" stroke="#63b8ff" points="2890.02,-185.77 2881.21,-191.66 2891.77,-192.55 2890.02,-185.77"/>
</g>
<!-- Node186 -->
<g id="node36" class="node">
<title>Node186</title>
<g id="a_node36"><a xlink:href="c__dylink_8cpp.html" target="_top" xlink:title=" ">
<polygon fill="white" stroke="#666666" points="3259.5,-145.5 3164.5,-145.5 3164.5,-126.5 3259.5,-126.5 3259.5,-145.5"/>
<text text-anchor="middle" x="3212" y="-133.5" font-family="Helvetica,sans-Serif" font-size="10.00">src/c/c_dylink.cpp</text>
</a>
</g>
</g>
<!-- Node81&#45;&gt;Node186 -->
<g id="edge37" class="edge">
<title>Node81&#45;&gt;Node186</title>
<path fill="none" stroke="#63b8ff" d="M2902.07,-189.99C2907.78,-188.95 2913.5,-187.94 2919,-187 3024.03,-169.09 3051.54,-171.94 3156,-151 3163.27,-149.54 3171.02,-147.76 3178.36,-145.96"/>
<polygon fill="#63b8ff" stroke="#63b8ff" points="2901.83,-186.47 2892.63,-191.73 2903.1,-193.36 2901.83,-186.47"/>
</g>
<!-- Node48 -->
<g id="node37" class="node">
<title>Node48</title>
<g id="a_node37"><a xlink:href="d__pane__class_8cpp.html" target="_top" xlink:title=" ">
<polygon fill="white" stroke="#666666" points="3420.5,-145.5 3277.5,-145.5 3277.5,-126.5 3420.5,-126.5 3420.5,-145.5"/>
<text text-anchor="middle" x="3349" y="-133.5" font-family="Helvetica,sans-Serif" font-size="10.00">src/d/pane/d_pane_class.cpp</text>
</a>
</g>
</g>
<!-- Node81&#45;&gt;Node48 -->
<g id="edge38" class="edge">
<title>Node81&#45;&gt;Node48</title>
<path fill="none" stroke="#63b8ff" d="M2900.32,-190.01C2906.61,-188.91 2912.94,-187.88 2919,-187 3073.74,-164.45 3114.11,-172.49 3269,-151 3279.33,-149.57 3290.38,-147.79 3300.86,-145.99"/>
<polygon fill="#63b8ff" stroke="#63b8ff" points="2899.83,-186.54 2890.6,-191.75 2901.07,-193.43 2899.83,-186.54"/>
</g>
<!-- Node82&#45;&gt;Node62 -->
<g id="edge28" class="edge">
<title>Node82&#45;&gt;Node62</title>
<path fill="none" stroke="#63b8ff" d="M3447.16,-123.87C3441.4,-122.79 3435.58,-121.8 3430,-121 3205.12,-88.91 2934.64,-76.71 2818.09,-72.71"/>
<polygon fill="#63b8ff" stroke="#63b8ff" points="3446.14,-127.24 3456.63,-125.76 3447.5,-120.37 3446.14,-127.24"/>
</g>
<!-- Node206 -->
<g id="node31" class="node">
<title>Node206</title>
<g id="a_node31"><a xlink:href="d__resorce_8cpp.html" target="_top" xlink:title=" ">
<polygon fill="white" stroke="#666666" points="1928,-79.5 1826,-79.5 1826,-60.5 1928,-60.5 1928,-79.5"/>
<text text-anchor="middle" x="1877" y="-67.5" font-family="Helvetica,sans-Serif" font-size="10.00">src/d/d_resorce.cpp</text>
</a>
</g>
</g>
<!-- Node272&#45;&gt;Node206 -->
<g id="edge32" class="edge">
<title>Node272&#45;&gt;Node206</title>
<path fill="none" stroke="#63b8ff" d="M2380.13,-123.75C2375.04,-122.74 2369.92,-121.8 2365,-121 2206.73,-95.4 2017.35,-80.41 1928.19,-74.27"/>
<polygon fill="#63b8ff" stroke="#63b8ff" points="2379.18,-127.13 2389.68,-125.75 2380.61,-120.28 2379.18,-127.13"/>
</g>
<!-- Node111 -->
<g id="node33" class="node">
<title>Node111</title>
<g id="a_node33"><a xlink:href="d__kankyo_8cpp.html" target="_top" xlink:title=" ">
<polygon fill="white" stroke="#666666" points="2483,-79.5 2349,-79.5 2349,-60.5 2483,-60.5 2483,-79.5"/>
<text text-anchor="middle" x="2416" y="-67.5" font-family="Helvetica,sans-Serif" font-size="10.00">src/d/kankyo/d_kankyo.cpp</text>
</a>
</g>
</g>
<!-- Node273&#45;&gt;Node111 -->
<g id="edge34" class="edge">
<title>Node273&#45;&gt;Node111</title>
<path fill="none" stroke="#63b8ff" d="M2509.69,-115.75C2484.84,-103.88 2454.15,-89.22 2434.81,-79.99"/>
<polygon fill="#63b8ff" stroke="#63b8ff" points="2508.03,-118.83 2518.56,-119.98 2511.05,-112.52 2508.03,-118.83"/>
</g>
<!-- Node394 -->
<g id="node40" class="node">
<title>Node394</title>
<g id="a_node40"><a xlink:href="J3DSkinDeform_8h.html" target="_top" xlink:title=" ">
<polygon fill="#fff0f0" stroke="red" points="1617.5,-217 1482.5,-217 1482.5,-187 1617.5,-187 1617.5,-217"/>
<text text-anchor="start" x="1490.5" y="-205" font-family="Helvetica,sans-Serif" font-size="10.00">include/JSystem/J3DGraph</text>
<text text-anchor="middle" x="1550" y="-194" font-family="Helvetica,sans-Serif" font-size="10.00">Animator/J3DSkinDeform.h</text>
</a>
</g>
</g>
<!-- Node393&#45;&gt;Node394 -->
<g id="edge42" class="edge">
<title>Node393&#45;&gt;Node394</title>
<path fill="none" stroke="#63b8ff" d="M1667.41,-248.54C1641.89,-238.64 1610.92,-226.63 1587.19,-217.43"/>
<polygon fill="#63b8ff" stroke="#63b8ff" points="1665.97,-251.74 1676.56,-252.09 1668.5,-245.21 1665.97,-251.74"/>
</g>
<!-- Node401 -->
<g id="node41" class="node">
<title>Node401</title>
<g id="a_node41"><a xlink:href="J3DMtxBuffer_8cpp.html" target="_top" xlink:title=" ">
<polygon fill="white" stroke="#666666" points="1794,-217 1636,-217 1636,-187 1794,-187 1794,-217"/>
<text text-anchor="start" x="1644" y="-205" font-family="Helvetica,sans-Serif" font-size="10.00">libs/JSystem/J3DGraphAnimator</text>
<text text-anchor="middle" x="1715" y="-194" font-family="Helvetica,sans-Serif" font-size="10.00">/J3DMtxBuffer.cpp</text>
</a>
</g>
</g>
<!-- Node393&#45;&gt;Node401 -->
<g id="edge43" class="edge">
<title>Node393&#45;&gt;Node401</title>
<path fill="none" stroke="#63b8ff" d="M1715,-241.39C1715,-233.13 1715,-224.28 1715,-217.16"/>
<polygon fill="#63b8ff" stroke="#63b8ff" points="1711.5,-241.28 1715,-251.28 1718.5,-241.28 1711.5,-241.28"/>
</g>
<!-- Node404&#45;&gt;Node8 -->
<g id="edge57" class="edge">
<title>Node404&#45;&gt;Node8</title>
<path fill="none" stroke="#63b8ff" d="M860.45,-180.3C837.82,-163.8 814.93,-140.34 832,-121 988.51,56.29 1124.23,-73.44 1360,-55 1882.45,-14.13 2517.38,-10.54 2705.2,-10.42"/>
<polygon fill="#63b8ff" stroke="#63b8ff" points="858.23,-183.02 868.44,-185.83 862.21,-177.26 858.23,-183.02"/>
</g>
<!-- Node404&#45;&gt;Node73 -->
<g id="edge58" class="edge">
<title>Node404&#45;&gt;Node73</title>
<path fill="none" stroke="#63b8ff" d="M864.62,-179.45C845.01,-162.51 825.59,-138.89 842,-121 877.25,-82.57 1233.21,-73.6 1368.87,-71.57"/>
<polygon fill="#63b8ff" stroke="#63b8ff" points="862.38,-182.14 872.34,-185.75 866.8,-176.72 862.38,-182.14"/>
</g>
<!-- Node404&#45;&gt;Node74 -->
<g id="edge48" class="edge">
<title>Node404&#45;&gt;Node74</title>
<path fill="none" stroke="#63b8ff" d="M973.07,-194.42C1070.91,-185.94 1242.55,-170.03 1389,-151 1391.91,-150.62 1394.88,-150.22 1397.88,-149.81"/>
<polygon fill="#63b8ff" stroke="#63b8ff" points="972.97,-190.91 963.3,-195.26 973.57,-197.89 972.97,-190.91"/>
</g>
<!-- Node404&#45;&gt;Node75 -->
<g id="edge50" class="edge">
<title>Node404&#45;&gt;Node75</title>
<path fill="none" stroke="#63b8ff" d="M973.2,-197.24C1098.92,-190.79 1351.78,-175.86 1565,-151 1567.92,-150.66 1570.89,-150.29 1573.89,-149.9"/>
<polygon fill="#63b8ff" stroke="#63b8ff" points="973.12,-193.74 963.31,-197.74 973.48,-200.73 973.12,-193.74"/>
</g>
<!-- Node404&#45;&gt;Node76 -->
<g id="edge51" class="edge">
<title>Node404&#45;&gt;Node76</title>
<path fill="none" stroke="#63b8ff" d="M973.34,-198.93C1123.56,-194.44 1459.66,-181.61 1741,-151 1743.92,-150.68 1746.9,-150.33 1749.9,-149.96"/>
<polygon fill="#63b8ff" stroke="#63b8ff" points="973.39,-195.43 963.5,-199.22 973.6,-202.43 973.39,-195.43"/>
</g>
<!-- Node404&#45;&gt;Node77 -->
<g id="edge52" class="edge">
<title>Node404&#45;&gt;Node77</title>
<path fill="none" stroke="#63b8ff" d="M927.59,-180.91C943.64,-171.31 962.49,-160.03 977.07,-151.31"/>
<polygon fill="#63b8ff" stroke="#63b8ff" points="926.1,-177.72 919.31,-185.86 929.69,-183.73 926.1,-177.72"/>
</g>
<!-- Node404&#45;&gt;Node78 -->
<g id="edge53" class="edge">
<title>Node404&#45;&gt;Node78</title>
<path fill="none" stroke="#63b8ff" d="M973.29,-198.75C1198.32,-192.16 1838.08,-172.08 2047,-151 2049.92,-150.7 2052.9,-150.38 2055.9,-150.02"/>
<polygon fill="#63b8ff" stroke="#63b8ff" points="973.34,-195.24 963.45,-199.03 973.55,-202.24 973.34,-195.24"/>
</g>
<!-- Node404&#45;&gt;Node40 -->
<g id="edge61" class="edge">
<title>Node404&#45;&gt;Node40</title>
<path fill="none" stroke="#63b8ff" d="M965.47,-183.93C1016.6,-171.72 1083.4,-155.77 1124.47,-145.96"/>
<polygon fill="#63b8ff" stroke="#63b8ff" points="964.86,-180.48 955.95,-186.21 966.49,-187.29 964.86,-180.48"/>
</g>
<!-- Node404&#45;&gt;Node79 -->
<g id="edge63" class="edge">
<title>Node404&#45;&gt;Node79</title>
<path fill="none" stroke="#63b8ff" d="M972.95,-190.21C1042.14,-180.56 1145.37,-165.71 1235,-151 1244.39,-149.46 1254.4,-147.71 1263.99,-145.99"/>
<polygon fill="#63b8ff" stroke="#63b8ff" points="972.64,-186.71 963.22,-191.56 973.6,-193.65 972.64,-186.71"/>
</g>
<!-- Node404&#45;&gt;Node80 -->
<g id="edge64" class="edge">
<title>Node404&#45;&gt;Node80</title>
<path fill="none" stroke="#63b8ff" d="M972.96,-198.75C1239.95,-191.06 2099.29,-165.43 2223,-151 2233.23,-149.81 2244.19,-147.94 2254.37,-145.96"/>
<polygon fill="#63b8ff" stroke="#63b8ff" points="973.23,-195.24 963.34,-199.03 973.43,-202.24 973.23,-195.24"/>
</g>
<!-- Node404&#45;&gt;Node206 -->
<g id="edge60" class="edge">
<title>Node404&#45;&gt;Node206</title>
<path fill="none" stroke="#63b8ff" d="M880.15,-176.64C872.12,-158.95 866.08,-135.64 880,-121 888.23,-112.34 1622.78,-81.47 1825.62,-73.1"/>
<polygon fill="#63b8ff" stroke="#63b8ff" points="876.95,-178.07 884.56,-185.45 883.21,-174.94 876.95,-178.07"/>
</g>
<!-- Node404&#45;&gt;Node111 -->
<g id="edge62" class="edge">
<title>Node404&#45;&gt;Node111</title>
<path fill="none" stroke="#63b8ff" d="M892.6,-175.5C893.13,-157.33 897.21,-133.91 913,-121 920.05,-115.24 2057.85,-81.5 2348.85,-72.96"/>
<polygon fill="#63b8ff" stroke="#63b8ff" points="889.1,-175.31 892.68,-185.28 896.1,-175.25 889.1,-175.31"/>
</g>
<!-- Node404&#45;&gt;Node402 -->
<g id="edge49" class="edge">
<title>Node404&#45;&gt;Node402</title>
<path fill="none" stroke="#63b8ff" d="M815.03,-187.35C814.02,-187.23 813,-187.11 812,-187 526.7,-154.79 452.48,-181.59 167,-151 164.08,-150.69 161.1,-150.34 158.1,-149.97"/>
<polygon fill="#63b8ff" stroke="#63b8ff" points="814.2,-190.77 824.57,-188.6 815.11,-183.83 814.2,-190.77"/>
</g>
<!-- Node405 -->
<g id="node45" class="node">
<title>Node405</title>
<g id="a_node45"><a xlink:href="J3DDrawBuffer_8cpp.html" target="_top" xlink:title=" ">
<polygon fill="white" stroke="#666666" points="318,-151 176,-151 176,-121 318,-121 318,-151"/>
<text text-anchor="start" x="184" y="-139" font-family="Helvetica,sans-Serif" font-size="10.00">libs/JSystem/J3DGraphBase</text>
<text text-anchor="middle" x="247" y="-128" font-family="Helvetica,sans-Serif" font-size="10.00">/J3DDrawBuffer.cpp</text>
</a>
</g>
</g>
<!-- Node404&#45;&gt;Node405 -->
<g id="edge54" class="edge">
<title>Node404&#45;&gt;Node405</title>
<path fill="none" stroke="#63b8ff" d="M815.03,-187.38C814.01,-187.25 813,-187.12 812,-187 597.45,-160.78 541.5,-177.66 327,-151 324.2,-150.65 321.35,-150.27 318.48,-149.87"/>
<polygon fill="#63b8ff" stroke="#63b8ff" points="814.18,-190.79 824.56,-188.68 815.13,-183.86 814.18,-190.79"/>
</g>
<!-- Node406 -->
<g id="node46" class="node">
<title>Node406</title>
<g id="a_node46"><a xlink:href="J3DMaterial_8cpp.html" target="_top" xlink:title=" ">
<polygon fill="white" stroke="#666666" points="478,-151 336,-151 336,-121 478,-121 478,-151"/>
<text text-anchor="start" x="344" y="-139" font-family="Helvetica,sans-Serif" font-size="10.00">libs/JSystem/J3DGraphBase</text>
<text text-anchor="middle" x="407" y="-128" font-family="Helvetica,sans-Serif" font-size="10.00">/J3DMaterial.cpp</text>
</a>
</g>
</g>
<!-- Node404&#45;&gt;Node406 -->
<g id="edge55" class="edge">
<title>Node404&#45;&gt;Node406</title>
<path fill="none" stroke="#63b8ff" d="M815.02,-187.43C814.01,-187.28 813,-187.14 812,-187 668.09,-166.76 630.87,-171.54 487,-151 484.21,-150.6 481.36,-150.18 478.49,-149.74"/>
<polygon fill="#63b8ff" stroke="#63b8ff" points="814.13,-190.84 824.54,-188.86 815.17,-183.91 814.13,-190.84"/>
</g>
<!-- Node399 -->
<g id="node47" class="node">
<title>Node399</title>
<g id="a_node47"><a xlink:href="J3DPacket_8cpp.html" target="_top" xlink:title=" ">
<polygon fill="white" stroke="#666666" points="638,-151 496,-151 496,-121 638,-121 638,-151"/>
<text text-anchor="start" x="504" y="-139" font-family="Helvetica,sans-Serif" font-size="10.00">libs/JSystem/J3DGraphBase</text>
<text text-anchor="middle" x="567" y="-128" font-family="Helvetica,sans-Serif" font-size="10.00">/J3DPacket.cpp</text>
</a>
</g>
</g>
<!-- Node404&#45;&gt;Node399 -->
<g id="edge56" class="edge">
<title>Node404&#45;&gt;Node399</title>
<path fill="none" stroke="#63b8ff" d="M815.03,-185.54C761.19,-175.01 690.48,-161.17 638.35,-150.96"/>
<polygon fill="#63b8ff" stroke="#63b8ff" points="814.27,-188.96 824.76,-187.45 815.62,-182.09 814.27,-188.96"/>
</g>
<!-- Node204 -->
<g id="node48" class="node">
<title>Node204</title>
<g id="a_node48"><a xlink:href="d__model_8cpp.html" target="_top" xlink:title=" ">
<polygon fill="white" stroke="#666666" points="752,-145.5 656,-145.5 656,-126.5 752,-126.5 752,-145.5"/>
<text text-anchor="middle" x="704" y="-133.5" font-family="Helvetica,sans-Serif" font-size="10.00">src/d/d_model.cpp</text>
</a>
</g>
</g>
<!-- Node404&#45;&gt;Node204 -->
<g id="edge59" class="edge">
<title>Node404&#45;&gt;Node204</title>
<path fill="none" stroke="#63b8ff" d="M840.58,-183.01C804.74,-170.93 759.07,-155.55 730.68,-145.99"/>
<polygon fill="#63b8ff" stroke="#63b8ff" points="839.33,-186.28 849.93,-186.15 841.57,-179.64 839.33,-186.28"/>
</g>
</g>
</svg>
