<?xml version="1.0" encoding="UTF-8" standalone="no"?>
<!DOCTYPE svg PUBLIC "-//W3C//DTD SVG 1.1//EN"
 "http://www.w3.org/Graphics/SVG/1.1/DTD/svg11.dtd">
<!-- Generated by graphviz version 7.0.5 (20221223.1930)
 -->
<!-- Title: include/JSystem/J3DGraphBase/J3DShapeDraw.h Pages: 1 -->
<svg width="4146pt" height="555pt"
 viewBox="0.00 0.00 4145.67 555.00" xmlns="http://www.w3.org/2000/svg" xmlns:xlink="http://www.w3.org/1999/xlink">
<g id="graph0" class="graph" transform="scale(1 1) rotate(0) translate(4 551)">
<title>include/JSystem/J3DGraphBase/J3DShapeDraw.h</title>
<!-- Node1 -->
<g id="node1" class="node">
<title>Node1</title>
<g id="a_node1"><a xlink:title=" ">
<polygon fill="#999999" stroke="#666666" points="1218.5,-547 1083.5,-547 1083.5,-517 1218.5,-517 1218.5,-547"/>
<text text-anchor="start" x="1091.5" y="-535" font-family="Helvetica,sans-Serif" font-size="10.00">include/JSystem/J3DGraph</text>
<text text-anchor="middle" x="1151" y="-524" font-family="Helvetica,sans-Serif" font-size="10.00">Base/J3DShapeDraw.h</text>
</a>
</g>
</g>
<!-- Node2 -->
<g id="node2" class="node">
<title>Node2</title>
<g id="a_node2"><a xlink:href="J3DShape_8h.html" target="_top" xlink:title=" ">
<polygon fill="white" stroke="#666666" points="1140.5,-481 1005.5,-481 1005.5,-451 1140.5,-451 1140.5,-481"/>
<text text-anchor="start" x="1013.5" y="-469" font-family="Helvetica,sans-Serif" font-size="10.00">include/JSystem/J3DGraph</text>
<text text-anchor="middle" x="1073" y="-458" font-family="Helvetica,sans-Serif" font-size="10.00">Base/J3DShape.h</text>
</a>
</g>
</g>
<!-- Node1&#45;&gt;Node2 -->
<g id="edge1" class="edge">
<title>Node1&#45;&gt;Node2</title>
<path fill="none" stroke="#63b8ff" d="M1125.04,-509.7C1113.7,-500.4 1100.7,-489.73 1090.53,-481.39"/>
<polygon fill="#63b8ff" stroke="#63b8ff" points="1122.57,-512.2 1132.52,-515.84 1127.01,-506.79 1122.57,-512.2"/>
</g>
<!-- Node410 -->
<g id="node50" class="node">
<title>Node410</title>
<g id="a_node50"><a xlink:href="J3DShapeDraw_8cpp.html" target="_top" xlink:title=" ">
<polygon fill="white" stroke="#666666" points="1301,-481 1159,-481 1159,-451 1301,-451 1301,-481"/>
<text text-anchor="start" x="1167" y="-469" font-family="Helvetica,sans-Serif" font-size="10.00">libs/JSystem/J3DGraphBase</text>
<text text-anchor="middle" x="1230" y="-458" font-family="Helvetica,sans-Serif" font-size="10.00">/J3DShapeDraw.cpp</text>
</a>
</g>
</g>
<!-- Node1&#45;&gt;Node410 -->
<g id="edge66" class="edge">
<title>Node1&#45;&gt;Node410</title>
<path fill="none" stroke="#63b8ff" d="M1177.29,-509.7C1188.78,-500.4 1201.94,-489.73 1212.24,-481.39"/>
<polygon fill="#63b8ff" stroke="#63b8ff" points="1175.28,-506.83 1169.71,-515.84 1179.68,-512.27 1175.28,-506.83"/>
</g>
<!-- Node3 -->
<g id="node3" class="node">
<title>Node3</title>
<g id="a_node3"><a xlink:href="J3DShapeTable_8h.html" target="_top" xlink:title=" ">
<polygon fill="white" stroke="#666666" points="1062.5,-415 927.5,-415 927.5,-385 1062.5,-385 1062.5,-415"/>
<text text-anchor="start" x="935.5" y="-403" font-family="Helvetica,sans-Serif" font-size="10.00">include/JSystem/J3DGraph</text>
<text text-anchor="middle" x="995" y="-392" font-family="Helvetica,sans-Serif" font-size="10.00">Animator/J3DShapeTable.h</text>
</a>
</g>
</g>
<!-- Node2&#45;&gt;Node3 -->
<g id="edge2" class="edge">
<title>Node2&#45;&gt;Node3</title>
<path fill="none" stroke="#63b8ff" d="M1047.04,-443.7C1035.7,-434.4 1022.7,-423.73 1012.53,-415.39"/>
<polygon fill="#63b8ff" stroke="#63b8ff" points="1044.57,-446.2 1054.52,-449.84 1049.01,-440.79 1044.57,-446.2"/>
</g>
<!-- Node405 -->
<g id="node43" class="node">
<title>Node405</title>
<g id="a_node43"><a xlink:href="J3DMaterial_8h.html" target="_top" xlink:title=" ">
<polygon fill="white" stroke="#666666" points="961.5,-217 826.5,-217 826.5,-187 961.5,-187 961.5,-217"/>
<text text-anchor="start" x="834.5" y="-205" font-family="Helvetica,sans-Serif" font-size="10.00">include/JSystem/J3DGraph</text>
<text text-anchor="middle" x="894" y="-194" font-family="Helvetica,sans-Serif" font-size="10.00">Base/J3DMaterial.h</text>
</a>
</g>
</g>
<!-- Node2&#45;&gt;Node405 -->
<g id="edge46" class="edge">
<title>Node2&#45;&gt;Node405</title>
<path fill="none" stroke="#63b8ff" d="M994.15,-457.24C966.04,-450.43 936.73,-437.89 918,-415 869.68,-355.94 883.58,-254.66 890.86,-217.34"/>
<polygon fill="#63b8ff" stroke="#63b8ff" points="993.26,-460.63 1003.77,-459.34 994.75,-453.79 993.26,-460.63"/>
</g>
<!-- Node408 -->
<g id="node48" class="node">
<title>Node408</title>
<g id="a_node48"><a xlink:href="J3DShape_8cpp.html" target="_top" xlink:title=" ">
<polygon fill="white" stroke="#666666" points="1223,-415 1081,-415 1081,-385 1223,-385 1223,-415"/>
<text text-anchor="start" x="1089" y="-403" font-family="Helvetica,sans-Serif" font-size="10.00">libs/JSystem/J3DGraphBase</text>
<text text-anchor="middle" x="1152" y="-392" font-family="Helvetica,sans-Serif" font-size="10.00">/J3DShape.cpp</text>
</a>
</g>
</g>
<!-- Node2&#45;&gt;Node408 -->
<g id="edge64" class="edge">
<title>Node2&#45;&gt;Node408</title>
<path fill="none" stroke="#63b8ff" d="M1099.29,-443.7C1110.78,-434.4 1123.94,-423.73 1134.24,-415.39"/>
<polygon fill="#63b8ff" stroke="#63b8ff" points="1097.28,-440.83 1091.71,-449.84 1101.68,-446.27 1097.28,-440.83"/>
</g>
<!-- Node409 -->
<g id="node49" class="node">
<title>Node409</title>
<g id="a_node49"><a xlink:href="J3DShapeFactory_8cpp.html" target="_top" xlink:title=" ">
<polygon fill="white" stroke="#666666" points="1390.5,-415 1241.5,-415 1241.5,-385 1390.5,-385 1390.5,-415"/>
<text text-anchor="start" x="1249.5" y="-403" font-family="Helvetica,sans-Serif" font-size="10.00">libs/JSystem/J3DGraphLoader</text>
<text text-anchor="middle" x="1316" y="-392" font-family="Helvetica,sans-Serif" font-size="10.00">/J3DShapeFactory.cpp</text>
</a>
</g>
</g>
<!-- Node2&#45;&gt;Node409 -->
<g id="edge65" class="edge">
<title>Node2&#45;&gt;Node409</title>
<path fill="none" stroke="#63b8ff" d="M1138.91,-447.64C1177.28,-437.53 1225.09,-424.94 1261.36,-415.39"/>
<polygon fill="#63b8ff" stroke="#63b8ff" points="1138.08,-444.24 1129.3,-450.17 1139.86,-451.01 1138.08,-444.24"/>
</g>
<!-- Node4 -->
<g id="node4" class="node">
<title>Node4</title>
<g id="a_node4"><a xlink:href="J3DModelData_8h.html" target="_top" xlink:title=" ">
<polygon fill="white" stroke="#666666" points="1893.5,-349 1758.5,-349 1758.5,-319 1893.5,-319 1893.5,-349"/>
<text text-anchor="start" x="1766.5" y="-337" font-family="Helvetica,sans-Serif" font-size="10.00">include/JSystem/J3DGraph</text>
<text text-anchor="middle" x="1826" y="-326" font-family="Helvetica,sans-Serif" font-size="10.00">Animator/J3DModelData.h</text>
</a>
</g>
</g>
<!-- Node3&#45;&gt;Node4 -->
<g id="edge3" class="edge">
<title>Node3&#45;&gt;Node4</title>
<path fill="none" stroke="#63b8ff" d="M1074.07,-384.85C1332.45,-353.49 1627.67,-341.16 1758.17,-336.91"/>
<polygon fill="#63b8ff" stroke="#63b8ff" points="1073.96,-381.34 1064.46,-386.03 1074.81,-388.28 1073.96,-381.34"/>
</g>
<!-- Node403 -->
<g id="node41" class="node">
<title>Node403</title>
<g id="a_node41"><a xlink:href="J3DJointTree_8cpp.html" target="_top" xlink:title=" ">
<polygon fill="white" stroke="#666666" points="158,-151 0,-151 0,-121 158,-121 158,-151"/>
<text text-anchor="start" x="8" y="-139" font-family="Helvetica,sans-Serif" font-size="10.00">libs/JSystem/J3DGraphAnimator</text>
<text text-anchor="middle" x="79" y="-128" font-family="Helvetica,sans-Serif" font-size="10.00">/J3DJointTree.cpp</text>
</a>
</g>
</g>
<!-- Node3&#45;&gt;Node403 -->
<g id="edge44" class="edge">
<title>Node3&#45;&gt;Node403</title>
<path fill="none" stroke="#63b8ff" d="M933.42,-381.39C762.82,-332.59 286.39,-196.32 129.68,-151.5"/>
<polygon fill="#63b8ff" stroke="#63b8ff" points="932.41,-384.74 942.99,-384.12 934.34,-378.01 932.41,-384.74"/>
</g>
<!-- Node404 -->
<g id="node42" class="node">
<title>Node404</title>
<g id="a_node42"><a xlink:href="J3DShapeTable_8cpp.html" target="_top" xlink:title=" ">
<polygon fill="white" stroke="#666666" points="1080,-349 922,-349 922,-319 1080,-319 1080,-349"/>
<text text-anchor="start" x="930" y="-337" font-family="Helvetica,sans-Serif" font-size="10.00">libs/JSystem/J3DGraphAnimator</text>
<text text-anchor="middle" x="1001" y="-326" font-family="Helvetica,sans-Serif" font-size="10.00">/J3DShapeTable.cpp</text>
</a>
</g>
</g>
<!-- Node3&#45;&gt;Node404 -->
<g id="edge45" class="edge">
<title>Node3&#45;&gt;Node404</title>
<path fill="none" stroke="#63b8ff" d="M997.4,-373.39C998.17,-365.13 999,-356.28 999.67,-349.16"/>
<polygon fill="#63b8ff" stroke="#63b8ff" points="993.92,-373.01 996.47,-383.29 1000.89,-373.66 993.92,-373.01"/>
</g>
<!-- Node5 -->
<g id="node5" class="node">
<title>Node5</title>
<g id="a_node5"><a xlink:href="J3DAnimation_8h.html" target="_top" xlink:title=" ">
<polygon fill="white" stroke="#666666" points="2769.5,-283 2634.5,-283 2634.5,-253 2769.5,-253 2769.5,-283"/>
<text text-anchor="start" x="2642.5" y="-271" font-family="Helvetica,sans-Serif" font-size="10.00">include/JSystem/J3DGraph</text>
<text text-anchor="middle" x="2702" y="-260" font-family="Helvetica,sans-Serif" font-size="10.00">Animator/J3DAnimation.h</text>
</a>
</g>
</g>
<!-- Node4&#45;&gt;Node5 -->
<g id="edge4" class="edge">
<title>Node4&#45;&gt;Node5</title>
<path fill="none" stroke="#63b8ff" d="M1905.02,-327.23C2075.35,-314.78 2474.6,-285.61 2634.26,-273.95"/>
<polygon fill="#63b8ff" stroke="#63b8ff" points="1904.87,-323.73 1895.16,-327.95 1905.38,-330.71 1904.87,-323.73"/>
</g>
<!-- Node79 -->
<g id="node23" class="node">
<title>Node79</title>
<g id="a_node23"><a xlink:href="J3DModelData_8cpp.html" target="_top" xlink:title=" ">
<polygon fill="white" stroke="#666666" points="2084,-151 1926,-151 1926,-121 2084,-121 2084,-151"/>
<text text-anchor="start" x="1934" y="-139" font-family="Helvetica,sans-Serif" font-size="10.00">libs/JSystem/J3DGraphAnimator</text>
<text text-anchor="middle" x="2005" y="-128" font-family="Helvetica,sans-Serif" font-size="10.00">/J3DModelData.cpp</text>
</a>
</g>
</g>
<!-- Node4&#45;&gt;Node79 -->
<g id="edge43" class="edge">
<title>Node4&#45;&gt;Node79</title>
<path fill="none" stroke="#63b8ff" d="M1848.59,-310.56C1871.56,-287.52 1907.95,-250.4 1938,-217 1958.11,-194.64 1980.31,-167.64 1993.44,-151.42"/>
<polygon fill="#63b8ff" stroke="#63b8ff" points="1846.15,-308.05 1841.55,-317.59 1851.1,-313 1846.15,-308.05"/>
</g>
<!-- Node394 -->
<g id="node38" class="node">
<title>Node394</title>
<g id="a_node38"><a xlink:href="J3DMtxBuffer_8h.html" target="_top" xlink:title=" ">
<polygon fill="white" stroke="#666666" points="1761.5,-283 1626.5,-283 1626.5,-253 1761.5,-253 1761.5,-283"/>
<text text-anchor="start" x="1634.5" y="-271" font-family="Helvetica,sans-Serif" font-size="10.00">include/JSystem/J3DGraph</text>
<text text-anchor="middle" x="1694" y="-260" font-family="Helvetica,sans-Serif" font-size="10.00">Animator/J3DMtxBuffer.h</text>
</a>
</g>
</g>
<!-- Node4&#45;&gt;Node394 -->
<g id="edge40" class="edge">
<title>Node4&#45;&gt;Node394</title>
<path fill="none" stroke="#63b8ff" d="M1786.24,-313.72C1766.08,-303.95 1742.02,-292.28 1723.52,-283.31"/>
<polygon fill="#63b8ff" stroke="#63b8ff" points="1784.49,-316.76 1795.01,-317.98 1787.54,-310.46 1784.49,-316.76"/>
</g>
<!-- Node6 -->
<g id="node6" class="node">
<title>Node6</title>
<g id="a_node6"><a xlink:href="J2DAnimation_8h.html" target="_top" xlink:title=" ">
<polygon fill="white" stroke="#666666" points="3768.5,-217 3633.5,-217 3633.5,-187 3768.5,-187 3768.5,-217"/>
<text text-anchor="start" x="3641.5" y="-205" font-family="Helvetica,sans-Serif" font-size="10.00">include/JSystem/J2DGraph</text>
<text text-anchor="middle" x="3701" y="-194" font-family="Helvetica,sans-Serif" font-size="10.00">/J2DAnimation.h</text>
</a>
</g>
</g>
<!-- Node5&#45;&gt;Node6 -->
<g id="edge5" class="edge">
<title>Node5&#45;&gt;Node6</title>
<path fill="none" stroke="#63b8ff" d="M2781.2,-261.93C2971.96,-249.7 3454.32,-218.8 3633.03,-207.35"/>
<polygon fill="#63b8ff" stroke="#63b8ff" points="2781.15,-258.42 2771.39,-262.55 2781.59,-265.41 2781.15,-258.42"/>
</g>
<!-- Node62 -->
<g id="node15" class="node">
<title>Node62</title>
<g id="a_node15"><a xlink:href="J3DMaterialAnm_8h.html" target="_top" xlink:title=" ">
<polygon fill="white" stroke="#666666" points="1929,-217 1791,-217 1791,-187 1929,-187 1929,-217"/>
<text text-anchor="start" x="1799" y="-205" font-family="Helvetica,sans-Serif" font-size="10.00">include/JSystem/J3DGraph</text>
<text text-anchor="middle" x="1860" y="-194" font-family="Helvetica,sans-Serif" font-size="10.00">Animator/J3DMaterialAnm.h</text>
</a>
</g>
</g>
<!-- Node5&#45;&gt;Node62 -->
<g id="edge14" class="edge">
<title>Node5&#45;&gt;Node62</title>
<path fill="none" stroke="#63b8ff" d="M2622.73,-260.97C2458.76,-248.51 2084.71,-220.08 1929.49,-208.28"/>
<polygon fill="#63b8ff" stroke="#63b8ff" points="2622.42,-264.46 2632.66,-261.73 2622.95,-257.48 2622.42,-264.46"/>
</g>
<!-- Node82 -->
<g id="node27" class="node">
<title>Node82</title>
<g id="a_node27"><a xlink:href="m__Do__ext_8h.html" target="_top" xlink:title=" ">
<polygon fill="#fff0f0" stroke="red" points="2767,-211.5 2637,-211.5 2637,-192.5 2767,-192.5 2767,-211.5"/>
<text text-anchor="middle" x="2702" y="-199.5" font-family="Helvetica,sans-Serif" font-size="10.00">include/m_Do/m_Do_ext.h</text>
</a>
</g>
</g>
<!-- Node5&#45;&gt;Node82 -->
<g id="edge27" class="edge">
<title>Node5&#45;&gt;Node82</title>
<path fill="none" stroke="#63b8ff" d="M2702,-241.59C2702,-231.06 2702,-219.53 2702,-211.84"/>
<polygon fill="#63b8ff" stroke="#63b8ff" points="2698.5,-241.28 2702,-251.28 2705.5,-241.28 2698.5,-241.28"/>
</g>
<!-- Node393 -->
<g id="node37" class="node">
<title>Node393</title>
<g id="a_node37"><a xlink:href="J3DAnimation_8cpp.html" target="_top" xlink:title=" ">
<polygon fill="white" stroke="#666666" points="2943,-217 2785,-217 2785,-187 2943,-187 2943,-217"/>
<text text-anchor="start" x="2793" y="-205" font-family="Helvetica,sans-Serif" font-size="10.00">libs/JSystem/J3DGraphAnimator</text>
<text text-anchor="middle" x="2864" y="-194" font-family="Helvetica,sans-Serif" font-size="10.00">/J3DAnimation.cpp</text>
</a>
</g>
</g>
<!-- Node5&#45;&gt;Node393 -->
<g id="edge39" class="edge">
<title>Node5&#45;&gt;Node393</title>
<path fill="none" stroke="#63b8ff" d="M2749.06,-248.41C2774.05,-238.54 2804.29,-226.59 2827.49,-217.43"/>
<polygon fill="#63b8ff" stroke="#63b8ff" points="2747.78,-245.15 2739.76,-252.08 2750.35,-251.66 2747.78,-245.15"/>
</g>
<!-- Node7 -->
<g id="node7" class="node">
<title>Node7</title>
<g id="a_node7"><a xlink:href="J2DAnmLoader_8h.html" target="_top" xlink:title=" ">
<polygon fill="#fff0f0" stroke="red" points="3731.5,-85 3596.5,-85 3596.5,-55 3731.5,-55 3731.5,-85"/>
<text text-anchor="start" x="3604.5" y="-73" font-family="Helvetica,sans-Serif" font-size="10.00">include/JSystem/J2DGraph</text>
<text text-anchor="middle" x="3664" y="-62" font-family="Helvetica,sans-Serif" font-size="10.00">/J2DAnmLoader.h</text>
</a>
</g>
</g>
<!-- Node6&#45;&gt;Node7 -->
<g id="edge6" class="edge">
<title>Node6&#45;&gt;Node7</title>
<path fill="none" stroke="#63b8ff" d="M3780.08,-197.4C3897.88,-191.22 4108.12,-176.7 4131,-151 4139.87,-141.04 4139.91,-130.92 4131,-121 4104.81,-91.85 3854.58,-78.28 3731.58,-73.33"/>
<polygon fill="#63b8ff" stroke="#63b8ff" points="3779.95,-193.9 3770.15,-197.91 3780.31,-200.89 3779.95,-193.9"/>
</g>
<!-- Node14 -->
<g id="node9" class="node">
<title>Node14</title>
<g id="a_node9"><a xlink:href="J2DMaterial_8h.html" target="_top" xlink:title=" ">
<polygon fill="#fff0f0" stroke="red" points="3984.5,-151 3849.5,-151 3849.5,-121 3984.5,-121 3984.5,-151"/>
<text text-anchor="start" x="3857.5" y="-139" font-family="Helvetica,sans-Serif" font-size="10.00">include/JSystem/J2DGraph</text>
<text text-anchor="middle" x="3917" y="-128" font-family="Helvetica,sans-Serif" font-size="10.00">/J2DMaterial.h</text>
</a>
</g>
</g>
<!-- Node6&#45;&gt;Node14 -->
<g id="edge8" class="edge">
<title>Node6&#45;&gt;Node14</title>
<path fill="none" stroke="#63b8ff" d="M3760.46,-183.38C3794.42,-173.32 3836.47,-160.86 3868.43,-151.39"/>
<polygon fill="#63b8ff" stroke="#63b8ff" points="3759.79,-179.93 3751.2,-186.13 3761.78,-186.64 3759.79,-179.93"/>
</g>
<!-- Node57 -->
<g id="node10" class="node">
<title>Node57</title>
<g id="a_node10"><a xlink:href="J2DAnimation_8cpp.html" target="_top" xlink:title=" ">
<polygon fill="white" stroke="#666666" points="4121.5,-151 4002.5,-151 4002.5,-121 4121.5,-121 4121.5,-151"/>
<text text-anchor="start" x="4010.5" y="-139" font-family="Helvetica,sans-Serif" font-size="10.00">libs/JSystem/J2DGraph</text>
<text text-anchor="middle" x="4062" y="-128" font-family="Helvetica,sans-Serif" font-size="10.00">/J2DAnimation.cpp</text>
</a>
</g>
</g>
<!-- Node6&#45;&gt;Node57 -->
<g id="edge9" class="edge">
<title>Node6&#45;&gt;Node57</title>
<path fill="none" stroke="#63b8ff" d="M3780.02,-188.26C3839.06,-178.56 3921.7,-164.61 3994,-151 3996.72,-150.49 3999.51,-149.95 4002.32,-149.41"/>
<polygon fill="#63b8ff" stroke="#63b8ff" points="3779.7,-184.77 3770.4,-189.84 3780.84,-191.68 3779.7,-184.77"/>
</g>
<!-- Node58 -->
<g id="node11" class="node">
<title>Node58</title>
<g id="a_node11"><a xlink:href="J2DPane_8cpp.html" target="_top" xlink:title=" ">
<polygon fill="white" stroke="#666666" points="3415.5,-151 3296.5,-151 3296.5,-121 3415.5,-121 3415.5,-151"/>
<text text-anchor="start" x="3304.5" y="-139" font-family="Helvetica,sans-Serif" font-size="10.00">libs/JSystem/J2DGraph</text>
<text text-anchor="middle" x="3356" y="-128" font-family="Helvetica,sans-Serif" font-size="10.00">/J2DPane.cpp</text>
</a>
</g>
</g>
<!-- Node6&#45;&gt;Node58 -->
<g id="edge10" class="edge">
<title>Node6&#45;&gt;Node58</title>
<path fill="none" stroke="#63b8ff" d="M3622.04,-187.15C3566.8,-177.35 3491.33,-163.74 3425,-151 3422,-150.42 3418.93,-149.83 3415.82,-149.22"/>
<polygon fill="#63b8ff" stroke="#63b8ff" points="3621.21,-190.56 3631.66,-188.85 3622.43,-183.66 3621.21,-190.56"/>
</g>
<!-- Node59 -->
<g id="node12" class="node">
<title>Node59</title>
<g id="a_node12"><a xlink:href="JPAMath_8cpp.html" target="_top" xlink:title=" ">
<polygon fill="white" stroke="#666666" points="3548,-151 3434,-151 3434,-121 3548,-121 3548,-151"/>
<text text-anchor="start" x="3442" y="-139" font-family="Helvetica,sans-Serif" font-size="10.00">libs/JSystem/JParticle</text>
<text text-anchor="middle" x="3491" y="-128" font-family="Helvetica,sans-Serif" font-size="10.00">/JPAMath.cpp</text>
</a>
</g>
</g>
<!-- Node6&#45;&gt;Node59 -->
<g id="edge11" class="edge">
<title>Node6&#45;&gt;Node59</title>
<path fill="none" stroke="#63b8ff" d="M3642.76,-183.25C3609.82,-173.21 3569.16,-160.82 3538.22,-151.39"/>
<polygon fill="#63b8ff" stroke="#63b8ff" points="3641.58,-186.55 3652.16,-186.12 3643.62,-179.85 3641.58,-186.55"/>
</g>
<!-- Node60 -->
<g id="node13" class="node">
<title>Node60</title>
<g id="a_node13"><a xlink:href="d__select__cursor_8cpp.html" target="_top" xlink:title=" ">
<polygon fill="white" stroke="#666666" points="3694,-145.5 3566,-145.5 3566,-126.5 3694,-126.5 3694,-145.5"/>
<text text-anchor="middle" x="3630" y="-133.5" font-family="Helvetica,sans-Serif" font-size="10.00">src/d/d_select_cursor.cpp</text>
</a>
</g>
</g>
<!-- Node6&#45;&gt;Node60 -->
<g id="edge12" class="edge">
<title>Node6&#45;&gt;Node60</title>
<path fill="none" stroke="#63b8ff" d="M3676.9,-179.27C3664.21,-167.84 3649.35,-154.44 3639.81,-145.84"/>
<polygon fill="#63b8ff" stroke="#63b8ff" points="3674.35,-181.69 3684.12,-185.78 3679.03,-176.49 3674.35,-181.69"/>
</g>
<!-- Node61 -->
<g id="node14" class="node">
<title>Node61</title>
<g id="a_node14"><a xlink:href="d__select__icon_8cpp.html" target="_top" xlink:title=" ">
<polygon fill="white" stroke="#666666" points="3831.5,-145.5 3712.5,-145.5 3712.5,-126.5 3831.5,-126.5 3831.5,-145.5"/>
<text text-anchor="middle" x="3772" y="-133.5" font-family="Helvetica,sans-Serif" font-size="10.00">src/d/d_select_icon.cpp</text>
</a>
</g>
</g>
<!-- Node6&#45;&gt;Node61 -->
<g id="edge13" class="edge">
<title>Node6&#45;&gt;Node61</title>
<path fill="none" stroke="#63b8ff" d="M3725.1,-179.27C3737.79,-167.84 3752.65,-154.44 3762.19,-145.84"/>
<polygon fill="#63b8ff" stroke="#63b8ff" points="3722.97,-176.49 3717.88,-185.78 3727.65,-181.69 3722.97,-176.49"/>
</g>
<!-- Node9 -->
<g id="node8" class="node">
<title>Node9</title>
<g id="a_node8"><a xlink:href="d__a__alink_8cpp.html" target="_top" xlink:title=" ">
<polygon fill="white" stroke="#666666" points="2884.5,-19 2775.5,-19 2775.5,0 2884.5,0 2884.5,-19"/>
<text text-anchor="middle" x="2830" y="-7" font-family="Helvetica,sans-Serif" font-size="10.00">src/d/a/d_a_alink.cpp</text>
</a>
</g>
</g>
<!-- Node7&#45;&gt;Node9 -->
<g id="edge7" class="edge">
<title>Node7&#45;&gt;Node9</title>
<path fill="none" stroke="#63b8ff" d="M3584.64,-63.43C3416.66,-51.65 3028.82,-24.45 2884.98,-14.36"/>
<polygon fill="#63b8ff" stroke="#63b8ff" points="3584.37,-66.92 3594.59,-64.13 3584.86,-59.94 3584.37,-66.92"/>
</g>
<!-- Node63 -->
<g id="node16" class="node">
<title>Node63</title>
<g id="a_node16"><a xlink:href="d__a__alink_8h.html" target="_top" xlink:title=" ">
<polygon fill="#fff0f0" stroke="red" points="2888,-79.5 2772,-79.5 2772,-60.5 2888,-60.5 2888,-79.5"/>
<text text-anchor="middle" x="2830" y="-67.5" font-family="Helvetica,sans-Serif" font-size="10.00">include/d/a/d_a_alink.h</text>
</a>
</g>
</g>
<!-- Node62&#45;&gt;Node63 -->
<g id="edge15" class="edge">
<title>Node62&#45;&gt;Node63</title>
<path fill="none" stroke="#63b8ff" d="M1940.78,-201.59C2108.17,-201.83 2487.3,-197.09 2607,-151 2627.08,-143.27 2625.78,-130.67 2645,-121 2686.01,-100.37 2736.57,-87.45 2774.46,-79.92"/>
<polygon fill="#63b8ff" stroke="#63b8ff" points="1940.86,-198.09 1930.85,-201.56 1940.84,-205.09 1940.86,-198.09"/>
</g>
<!-- Node70 -->
<g id="node17" class="node">
<title>Node70</title>
<g id="a_node17"><a xlink:href="d__a__npc_8h.html" target="_top" xlink:title=" ">
<polygon fill="#fff0f0" stroke="red" points="2213.5,-145.5 2102.5,-145.5 2102.5,-126.5 2213.5,-126.5 2213.5,-145.5"/>
<text text-anchor="middle" x="2158" y="-133.5" font-family="Helvetica,sans-Serif" font-size="10.00">include/d/a/d_a_npc.h</text>
</a>
</g>
</g>
<!-- Node62&#45;&gt;Node70 -->
<g id="edge17" class="edge">
<title>Node62&#45;&gt;Node70</title>
<path fill="none" stroke="#63b8ff" d="M1938.75,-184.12C1983.9,-174.43 2041.64,-162.04 2093,-151 2100.56,-149.37 2108.62,-147.64 2116.39,-145.97"/>
<polygon fill="#63b8ff" stroke="#63b8ff" points="1938.07,-180.68 1929.03,-186.2 1939.54,-187.53 1938.07,-180.68"/>
</g>
<!-- Node75 -->
<g id="node19" class="node">
<title>Node75</title>
<g id="a_node19"><a xlink:href="J3DJoint_8cpp.html" target="_top" xlink:title=" ">
<polygon fill="white" stroke="#666666" points="1234,-151 1076,-151 1076,-121 1234,-121 1234,-151"/>
<text text-anchor="start" x="1084" y="-139" font-family="Helvetica,sans-Serif" font-size="10.00">libs/JSystem/J3DGraphAnimator</text>
<text text-anchor="middle" x="1155" y="-128" font-family="Helvetica,sans-Serif" font-size="10.00">/J3DJoint.cpp</text>
</a>
</g>
</g>
<!-- Node62&#45;&gt;Node75 -->
<g id="edge19" class="edge">
<title>Node62&#45;&gt;Node75</title>
<path fill="none" stroke="#63b8ff" d="M1779.65,-186.81C1541.78,-158.35 1477.97,-177.48 1243,-151 1240.08,-150.67 1237.11,-150.31 1234.11,-149.93"/>
<polygon fill="#63b8ff" stroke="#63b8ff" points="1778.89,-190.24 1789.24,-187.97 1779.73,-183.3 1778.89,-190.24"/>
</g>
<!-- Node76 -->
<g id="node20" class="node">
<title>Node76</title>
<g id="a_node20"><a xlink:href="J3DMaterialAnm_8cpp.html" target="_top" xlink:title=" ">
<polygon fill="white" stroke="#666666" points="1410,-151 1252,-151 1252,-121 1410,-121 1410,-151"/>
<text text-anchor="start" x="1260" y="-139" font-family="Helvetica,sans-Serif" font-size="10.00">libs/JSystem/J3DGraphAnimator</text>
<text text-anchor="middle" x="1331" y="-128" font-family="Helvetica,sans-Serif" font-size="10.00">/J3DMaterialAnm.cpp</text>
</a>
</g>
</g>
<!-- Node62&#45;&gt;Node76 -->
<g id="edge20" class="edge">
<title>Node62&#45;&gt;Node76</title>
<path fill="none" stroke="#63b8ff" d="M1779.51,-186.73C1619.49,-164.97 1576.18,-171.28 1419,-151 1416.08,-150.62 1413.12,-150.23 1410.12,-149.81"/>
<polygon fill="#63b8ff" stroke="#63b8ff" points="1778.84,-190.17 1789.22,-188.07 1779.79,-183.24 1778.84,-190.17"/>
</g>
<!-- Node77 -->
<g id="node21" class="node">
<title>Node77</title>
<g id="a_node21"><a xlink:href="J3DMaterialAttach_8cpp.html" target="_top" xlink:title=" ">
<polygon fill="white" stroke="#666666" points="1586,-151 1428,-151 1428,-121 1586,-121 1586,-151"/>
<text text-anchor="start" x="1436" y="-139" font-family="Helvetica,sans-Serif" font-size="10.00">libs/JSystem/J3DGraphAnimator</text>
<text text-anchor="middle" x="1507" y="-128" font-family="Helvetica,sans-Serif" font-size="10.00">/J3DMaterialAttach.cpp</text>
</a>
</g>
</g>
<!-- Node62&#45;&gt;Node77 -->
<g id="edge21" class="edge">
<title>Node62&#45;&gt;Node77</title>
<path fill="none" stroke="#63b8ff" d="M1779.38,-186.38C1721.51,-175.89 1643.9,-161.82 1586.33,-151.38"/>
<polygon fill="#63b8ff" stroke="#63b8ff" points="1778.73,-189.82 1789.19,-188.16 1779.98,-182.93 1778.73,-189.82"/>
</g>
<!-- Node78 -->
<g id="node22" class="node">
<title>Node78</title>
<g id="a_node22"><a xlink:href="J3DModel_8cpp.html" target="_top" xlink:title=" ">
<polygon fill="white" stroke="#666666" points="1762,-151 1604,-151 1604,-121 1762,-121 1762,-151"/>
<text text-anchor="start" x="1612" y="-139" font-family="Helvetica,sans-Serif" font-size="10.00">libs/JSystem/J3DGraphAnimator</text>
<text text-anchor="middle" x="1683" y="-128" font-family="Helvetica,sans-Serif" font-size="10.00">/J3DModel.cpp</text>
</a>
</g>
</g>
<!-- Node62&#45;&gt;Node78 -->
<g id="edge22" class="edge">
<title>Node62&#45;&gt;Node78</title>
<path fill="none" stroke="#63b8ff" d="M1809.68,-182.8C1782.17,-172.86 1748.58,-160.71 1722.9,-151.43"/>
<polygon fill="#63b8ff" stroke="#63b8ff" points="1808.26,-186.01 1818.85,-186.12 1810.64,-179.43 1808.26,-186.01"/>
</g>
<!-- Node62&#45;&gt;Node79 -->
<g id="edge23" class="edge">
<title>Node62&#45;&gt;Node79</title>
<path fill="none" stroke="#63b8ff" d="M1903.03,-182.01C1925.22,-172.22 1951.84,-160.46 1972.32,-151.43"/>
<polygon fill="#63b8ff" stroke="#63b8ff" points="1901.66,-178.79 1893.93,-186.03 1904.49,-185.19 1901.66,-178.79"/>
</g>
<!-- Node41 -->
<g id="node24" class="node">
<title>Node41</title>
<g id="a_node24"><a xlink:href="d__file__select_8cpp.html" target="_top" xlink:title=" ">
<polygon fill="white" stroke="#666666" points="1908,-145.5 1780,-145.5 1780,-126.5 1908,-126.5 1908,-145.5"/>
<text text-anchor="middle" x="1844" y="-133.5" font-family="Helvetica,sans-Serif" font-size="10.00">src/d/file/d_file_select.cpp</text>
</a>
</g>
</g>
<!-- Node62&#45;&gt;Node41 -->
<g id="edge24" class="edge">
<title>Node62&#45;&gt;Node41</title>
<path fill="none" stroke="#63b8ff" d="M1853.73,-175.93C1851.08,-165.31 1848.15,-153.61 1846.21,-145.84"/>
<polygon fill="#63b8ff" stroke="#63b8ff" points="1850.26,-176.48 1856.08,-185.33 1857.05,-174.78 1850.26,-176.48"/>
</g>
<!-- Node80 -->
<g id="node25" class="node">
<title>Node80</title>
<g id="a_node25"><a xlink:href="d__particle_8cpp.html" target="_top" xlink:title=" ">
<polygon fill="white" stroke="#666666" points="1058,-145.5 922,-145.5 922,-126.5 1058,-126.5 1058,-145.5"/>
<text text-anchor="middle" x="990" y="-133.5" font-family="Helvetica,sans-Serif" font-size="10.00">src/d/particle/d_particle.cpp</text>
</a>
</g>
</g>
<!-- Node62&#45;&gt;Node80 -->
<g id="edge25" class="edge">
<title>Node62&#45;&gt;Node80</title>
<path fill="none" stroke="#63b8ff" d="M1779.42,-186.82C1463.91,-151.67 1379.37,-187.11 1067,-151 1056.2,-149.75 1044.63,-147.92 1033.83,-145.98"/>
<polygon fill="#63b8ff" stroke="#63b8ff" points="1778.91,-190.28 1789.24,-187.93 1779.7,-183.33 1778.91,-190.28"/>
</g>
<!-- Node81 -->
<g id="node26" class="node">
<title>Node81</title>
<g id="a_node26"><a xlink:href="m__Do__ext_8cpp.html" target="_top" xlink:title=" ">
<polygon fill="white" stroke="#666666" points="2354.5,-145.5 2231.5,-145.5 2231.5,-126.5 2354.5,-126.5 2354.5,-145.5"/>
<text text-anchor="middle" x="2293" y="-133.5" font-family="Helvetica,sans-Serif" font-size="10.00">src/m_Do/m_Do_ext.cpp</text>
</a>
</g>
</g>
<!-- Node62&#45;&gt;Node81 -->
<g id="edge26" class="edge">
<title>Node62&#45;&gt;Node81</title>
<path fill="none" stroke="#63b8ff" d="M1940.48,-191.33C2014.18,-182.14 2126.19,-167.33 2223,-151 2231.92,-149.49 2241.45,-147.71 2250.51,-145.93"/>
<polygon fill="#63b8ff" stroke="#63b8ff" points="1940.44,-187.81 1930.94,-192.52 1941.3,-194.76 1940.44,-187.81"/>
</g>
<!-- Node63&#45;&gt;Node9 -->
<g id="edge16" class="edge">
<title>Node63&#45;&gt;Node9</title>
<path fill="none" stroke="#63b8ff" d="M2830,-49.16C2830,-38.95 2830,-27.04 2830,-19.17"/>
<polygon fill="#63b8ff" stroke="#63b8ff" points="2826.5,-48.85 2830,-58.85 2833.5,-48.85 2826.5,-48.85"/>
</g>
<!-- Node74 -->
<g id="node18" class="node">
<title>Node74</title>
<g id="a_node18"><a xlink:href="d__a__npc_8cpp.html" target="_top" xlink:title=" ">
<polygon fill="white" stroke="#666666" points="1181,-79.5 1077,-79.5 1077,-60.5 1181,-60.5 1181,-79.5"/>
<text text-anchor="middle" x="1129" y="-67.5" font-family="Helvetica,sans-Serif" font-size="10.00">src/d/a/d_a_npc.cpp</text>
</a>
</g>
</g>
<!-- Node70&#45;&gt;Node74 -->
<g id="edge18" class="edge">
<title>Node70&#45;&gt;Node74</title>
<path fill="none" stroke="#63b8ff" d="M2110.36,-123.83C2104.53,-122.73 2098.65,-121.75 2093,-121 2002.62,-109 1369.25,-81.27 1181.4,-73.22"/>
<polygon fill="#63b8ff" stroke="#63b8ff" points="2109.42,-127.21 2119.91,-125.74 2110.8,-120.34 2109.42,-127.21"/>
</g>
<!-- Node82&#45;&gt;Node81 -->
<g id="edge38" class="edge">
<title>Node82&#45;&gt;Node81</title>
<path fill="none" stroke="#63b8ff" d="M2625.61,-190.76C2557,-181.31 2453.57,-166.45 2364,-151 2355.21,-149.48 2345.83,-147.73 2336.87,-145.99"/>
<polygon fill="#63b8ff" stroke="#63b8ff" points="2624.86,-194.19 2635.24,-192.08 2625.81,-187.26 2624.86,-194.19"/>
</g>
<!-- Node83 -->
<g id="node28" class="node">
<title>Node83</title>
<g id="a_node28"><a xlink:href="d__attention_8h.html" target="_top" xlink:title=" ">
<polygon fill="#fff0f0" stroke="red" points="3278,-145.5 3164,-145.5 3164,-126.5 3278,-126.5 3278,-145.5"/>
<text text-anchor="middle" x="3221" y="-133.5" font-family="Helvetica,sans-Serif" font-size="10.00">include/d/d_attention.h</text>
</a>
</g>
</g>
<!-- Node82&#45;&gt;Node83 -->
<g id="edge28" class="edge">
<title>Node82&#45;&gt;Node83</title>
<path fill="none" stroke="#63b8ff" d="M2756.59,-190.08C2763.11,-188.95 2769.7,-187.89 2776,-187 2943.53,-163.25 2987.74,-176.6 3155,-151 3163.92,-149.64 3173.44,-147.83 3182.4,-145.96"/>
<polygon fill="#63b8ff" stroke="#63b8ff" points="2756.43,-186.56 2747.2,-191.77 2757.67,-193.45 2756.43,-186.56"/>
</g>
<!-- Node236 -->
<g id="node29" class="node">
<title>Node236</title>
<g id="a_node29"><a xlink:href="d__drawlist_8h.html" target="_top" xlink:title=" ">
<polygon fill="#fff0f0" stroke="red" points="3004,-145.5 2894,-145.5 2894,-126.5 3004,-126.5 3004,-145.5"/>
<text text-anchor="middle" x="2949" y="-133.5" font-family="Helvetica,sans-Serif" font-size="10.00">include/d/d_drawlist.h</text>
</a>
</g>
</g>
<!-- Node82&#45;&gt;Node236 -->
<g id="edge30" class="edge">
<title>Node82&#45;&gt;Node236</title>
<path fill="none" stroke="#63b8ff" d="M2747.68,-189.16C2795.99,-176.65 2871.11,-157.18 2914.63,-145.91"/>
<polygon fill="#63b8ff" stroke="#63b8ff" points="2746.87,-185.76 2738.07,-191.65 2748.63,-192.53 2746.87,-185.76"/>
</g>
<!-- Node272 -->
<g id="node30" class="node">
<title>Node272</title>
<g id="a_node30"><a xlink:href="d__ky__thunder_8h.html" target="_top" xlink:title=" ">
<polygon fill="#fff0f0" stroke="red" points="3146,-145.5 3022,-145.5 3022,-126.5 3146,-126.5 3146,-145.5"/>
<text text-anchor="middle" x="3084" y="-133.5" font-family="Helvetica,sans-Serif" font-size="10.00">include/d/d_ky_thunder.h</text>
</a>
</g>
</g>
<!-- Node82&#45;&gt;Node272 -->
<g id="edge31" class="edge">
<title>Node82&#45;&gt;Node272</title>
<path fill="none" stroke="#63b8ff" d="M2759.07,-189.99C2764.78,-188.95 2770.5,-187.94 2776,-187 2881.03,-169.09 2908.04,-169.31 3013,-151 3021.79,-149.47 3031.16,-147.71 3040.12,-145.96"/>
<polygon fill="#63b8ff" stroke="#63b8ff" points="2758.83,-186.47 2749.63,-191.73 2760.1,-193.36 2758.83,-186.47"/>
</g>
<!-- Node273 -->
<g id="node31" class="node">
<title>Node273</title>
<g id="a_node31"><a xlink:href="d__resorce_8h.html" target="_top" xlink:title=" ">
<polygon fill="#fff0f0" stroke="red" points="2481.5,-145.5 2372.5,-145.5 2372.5,-126.5 2481.5,-126.5 2481.5,-145.5"/>
<text text-anchor="middle" x="2427" y="-133.5" font-family="Helvetica,sans-Serif" font-size="10.00">include/d/d_resorce.h</text>
</a>
</g>
</g>
<!-- Node82&#45;&gt;Node273 -->
<g id="edge32" class="edge">
<title>Node82&#45;&gt;Node273</title>
<path fill="none" stroke="#63b8ff" d="M2652.5,-189.48C2598.77,-176.98 2514.13,-157.28 2465.27,-145.91"/>
<polygon fill="#63b8ff" stroke="#63b8ff" points="2651.47,-192.83 2662,-191.69 2653.05,-186.01 2651.47,-192.83"/>
</g>
<!-- Node274 -->
<g id="node33" class="node">
<title>Node274</title>
<g id="a_node33"><a xlink:href="d__kankyo_8h.html" target="_top" xlink:title=" ">
<polygon fill="#fff0f0" stroke="red" points="2598,-151 2500,-151 2500,-121 2598,-121 2598,-151"/>
<text text-anchor="start" x="2508" y="-139" font-family="Helvetica,sans-Serif" font-size="10.00">include/d/kankyo/d</text>
<text text-anchor="middle" x="2549" y="-128" font-family="Helvetica,sans-Serif" font-size="10.00">_kankyo.h</text>
</a>
</g>
</g>
<!-- Node82&#45;&gt;Node274 -->
<g id="edge34" class="edge">
<title>Node82&#45;&gt;Node274</title>
<path fill="none" stroke="#63b8ff" d="M2670.22,-187.71C2644.94,-177.13 2609.61,-162.35 2583.61,-151.48"/>
<polygon fill="#63b8ff" stroke="#63b8ff" points="2668.75,-190.89 2679.33,-191.52 2671.45,-184.43 2668.75,-190.89"/>
</g>
<!-- Node240 -->
<g id="node35" class="node">
<title>Node240</title>
<g id="a_node35"><a xlink:href="d__a__do_8h.html" target="_top" xlink:title=" ">
<polygon fill="white" stroke="#666666" points="2750,-151 2654,-151 2654,-121 2750,-121 2750,-151"/>
<text text-anchor="start" x="2662" y="-139" font-family="Helvetica,sans-Serif" font-size="10.00">include/rel/d/a/d_a</text>
<text text-anchor="middle" x="2702" y="-128" font-family="Helvetica,sans-Serif" font-size="10.00">_do/d_a_do.h</text>
</a>
</g>
</g>
<!-- Node82&#45;&gt;Node240 -->
<g id="edge36" class="edge">
<title>Node82&#45;&gt;Node240</title>
<path fill="none" stroke="#63b8ff" d="M2702,-180.78C2702,-171.17 2702,-159.92 2702,-151.23"/>
<polygon fill="#63b8ff" stroke="#63b8ff" points="2698.5,-180.59 2702,-190.59 2705.5,-180.59 2698.5,-180.59"/>
</g>
<!-- Node386 -->
<g id="node36" class="node">
<title>Node386</title>
<g id="a_node36"><a xlink:href="DynamicLink_8cpp.html" target="_top" xlink:title=" ">
<polygon fill="white" stroke="#666666" points="2875.5,-145.5 2768.5,-145.5 2768.5,-126.5 2875.5,-126.5 2875.5,-145.5"/>
<text text-anchor="middle" x="2822" y="-133.5" font-family="Helvetica,sans-Serif" font-size="10.00">src/DynamicLink.cpp</text>
</a>
</g>
</g>
<!-- Node82&#45;&gt;Node386 -->
<g id="edge37" class="edge">
<title>Node82&#45;&gt;Node386</title>
<path fill="none" stroke="#63b8ff" d="M2728.69,-186.76C2752.18,-174.24 2785.64,-156.39 2805.46,-145.82"/>
<polygon fill="#63b8ff" stroke="#63b8ff" points="2727.2,-183.59 2720.02,-191.39 2730.49,-189.77 2727.2,-183.59"/>
</g>
<!-- Node83&#45;&gt;Node63 -->
<g id="edge29" class="edge">
<title>Node83&#45;&gt;Node63</title>
<path fill="none" stroke="#63b8ff" d="M3169.35,-123.75C3164.51,-122.79 3159.67,-121.85 3155,-121 3062.06,-104.01 2953.46,-88.09 2888.29,-78.96"/>
<polygon fill="#63b8ff" stroke="#63b8ff" points="3168.6,-127.17 3179.1,-125.75 3170,-120.31 3168.6,-127.17"/>
</g>
<!-- Node207 -->
<g id="node32" class="node">
<title>Node207</title>
<g id="a_node32"><a xlink:href="d__resorce_8cpp.html" target="_top" xlink:title=" ">
<polygon fill="white" stroke="#666666" points="1575,-79.5 1473,-79.5 1473,-60.5 1575,-60.5 1575,-79.5"/>
<text text-anchor="middle" x="1524" y="-67.5" font-family="Helvetica,sans-Serif" font-size="10.00">src/d/d_resorce.cpp</text>
</a>
</g>
</g>
<!-- Node273&#45;&gt;Node207 -->
<g id="edge33" class="edge">
<title>Node273&#45;&gt;Node207</title>
<path fill="none" stroke="#63b8ff" d="M2380.19,-123.74C2374.75,-122.68 2369.27,-121.74 2364,-121 2067.4,-79.49 1707.17,-72.4 1575.42,-71.22"/>
<polygon fill="#63b8ff" stroke="#63b8ff" points="2379.22,-127.11 2389.72,-125.7 2380.63,-120.25 2379.22,-127.11"/>
</g>
<!-- Node112 -->
<g id="node34" class="node">
<title>Node112</title>
<g id="a_node34"><a xlink:href="d__kankyo_8cpp.html" target="_top" xlink:title=" ">
<polygon fill="white" stroke="#666666" points="2412,-79.5 2278,-79.5 2278,-60.5 2412,-60.5 2412,-79.5"/>
<text text-anchor="middle" x="2345" y="-67.5" font-family="Helvetica,sans-Serif" font-size="10.00">src/d/kankyo/d_kankyo.cpp</text>
</a>
</g>
</g>
<!-- Node274&#45;&gt;Node112 -->
<g id="edge35" class="edge">
<title>Node274&#45;&gt;Node112</title>
<path fill="none" stroke="#63b8ff" d="M2492.39,-117.24C2453.77,-105.12 2404.24,-89.59 2373.57,-79.96"/>
<polygon fill="#63b8ff" stroke="#63b8ff" points="2490.93,-120.45 2501.52,-120.1 2493.03,-113.77 2490.93,-120.45"/>
</g>
<!-- Node395 -->
<g id="node39" class="node">
<title>Node395</title>
<g id="a_node39"><a xlink:href="J3DSkinDeform_8h.html" target="_top" xlink:title=" ">
<polygon fill="#fff0f0" stroke="red" points="1596.5,-217 1461.5,-217 1461.5,-187 1596.5,-187 1596.5,-217"/>
<text text-anchor="start" x="1469.5" y="-205" font-family="Helvetica,sans-Serif" font-size="10.00">include/JSystem/J3DGraph</text>
<text text-anchor="middle" x="1529" y="-194" font-family="Helvetica,sans-Serif" font-size="10.00">Animator/J3DSkinDeform.h</text>
</a>
</g>
</g>
<!-- Node394&#45;&gt;Node395 -->
<g id="edge41" class="edge">
<title>Node394&#45;&gt;Node395</title>
<path fill="none" stroke="#63b8ff" d="M1646.41,-248.54C1620.89,-238.64 1589.92,-226.63 1566.19,-217.43"/>
<polygon fill="#63b8ff" stroke="#63b8ff" points="1644.97,-251.74 1655.56,-252.09 1647.5,-245.21 1644.97,-251.74"/>
</g>
<!-- Node402 -->
<g id="node40" class="node">
<title>Node402</title>
<g id="a_node40"><a xlink:href="J3DMtxBuffer_8cpp.html" target="_top" xlink:title=" ">
<polygon fill="white" stroke="#666666" points="1773,-217 1615,-217 1615,-187 1773,-187 1773,-217"/>
<text text-anchor="start" x="1623" y="-205" font-family="Helvetica,sans-Serif" font-size="10.00">libs/JSystem/J3DGraphAnimator</text>
<text text-anchor="middle" x="1694" y="-194" font-family="Helvetica,sans-Serif" font-size="10.00">/J3DMtxBuffer.cpp</text>
</a>
</g>
</g>
<!-- Node394&#45;&gt;Node402 -->
<g id="edge42" class="edge">
<title>Node394&#45;&gt;Node402</title>
<path fill="none" stroke="#63b8ff" d="M1694,-241.39C1694,-233.13 1694,-224.28 1694,-217.16"/>
<polygon fill="#63b8ff" stroke="#63b8ff" points="1690.5,-241.28 1694,-251.28 1697.5,-241.28 1690.5,-241.28"/>
</g>
<!-- Node405&#45;&gt;Node9 -->
<g id="edge56" class="edge">
<title>Node405&#45;&gt;Node9</title>
<path fill="none" stroke="#63b8ff" d="M814.58,-197.85C643.2,-190.66 252.52,-172.05 233,-151 223.93,-141.22 223.95,-130.79 233,-121 322.37,-24.29 2408.15,-12.07 2775.12,-10.67"/>
<polygon fill="#63b8ff" stroke="#63b8ff" points="814.38,-201.34 824.52,-198.26 814.68,-194.35 814.38,-201.34"/>
</g>
<!-- Node405&#45;&gt;Node74 -->
<g id="edge57" class="edge">
<title>Node405&#45;&gt;Node74</title>
<path fill="none" stroke="#63b8ff" d="M880.53,-176.61C872.98,-159.28 867.35,-136.45 880,-121 904.38,-91.24 1011.22,-78.82 1076.77,-73.93"/>
<polygon fill="#63b8ff" stroke="#63b8ff" points="877.18,-177.72 884.68,-185.2 883.49,-174.68 877.18,-177.72"/>
</g>
<!-- Node405&#45;&gt;Node75 -->
<g id="edge47" class="edge">
<title>Node405&#45;&gt;Node75</title>
<path fill="none" stroke="#63b8ff" d="M963.99,-183.84C1005.35,-173.7 1057.11,-161 1096.32,-151.39"/>
<polygon fill="#63b8ff" stroke="#63b8ff" points="963.25,-180.42 954.37,-186.2 964.91,-187.21 963.25,-180.42"/>
</g>
<!-- Node405&#45;&gt;Node76 -->
<g id="edge49" class="edge">
<title>Node405&#45;&gt;Node76</title>
<path fill="none" stroke="#63b8ff" d="M972.97,-190.04C1043.74,-180.14 1150.37,-165 1243,-151 1245.91,-150.56 1248.87,-150.11 1251.85,-149.65"/>
<polygon fill="#63b8ff" stroke="#63b8ff" points="972.85,-186.52 963.43,-191.38 973.82,-193.46 972.85,-186.52"/>
</g>
<!-- Node405&#45;&gt;Node77 -->
<g id="edge50" class="edge">
<title>Node405&#45;&gt;Node77</title>
<path fill="none" stroke="#63b8ff" d="M972.91,-195.04C1075.78,-186.91 1261.2,-171.05 1419,-151 1421.92,-150.63 1424.88,-150.24 1427.88,-149.83"/>
<polygon fill="#63b8ff" stroke="#63b8ff" points="972.9,-191.53 963.2,-195.8 973.45,-198.51 972.9,-191.53"/>
</g>
<!-- Node405&#45;&gt;Node78 -->
<g id="edge51" class="edge">
<title>Node405&#45;&gt;Node78</title>
<path fill="none" stroke="#63b8ff" d="M973.25,-197.59C1103.37,-191.48 1370.27,-176.84 1595,-151 1597.92,-150.66 1600.89,-150.3 1603.89,-149.92"/>
<polygon fill="#63b8ff" stroke="#63b8ff" points="973.19,-194.08 963.36,-198.05 973.52,-201.08 973.19,-194.08"/>
</g>
<!-- Node405&#45;&gt;Node79 -->
<g id="edge52" class="edge">
<title>Node405&#45;&gt;Node79</title>
<path fill="none" stroke="#63b8ff" d="M973.3,-200.06C1145.52,-197.38 1566.45,-187.34 1917,-151 1919.92,-150.7 1922.9,-150.36 1925.9,-150"/>
<polygon fill="#63b8ff" stroke="#63b8ff" points="973.29,-196.56 963.34,-200.21 973.39,-203.56 973.29,-196.56"/>
</g>
<!-- Node405&#45;&gt;Node41 -->
<g id="edge60" class="edge">
<title>Node405&#45;&gt;Node41</title>
<path fill="none" stroke="#63b8ff" d="M973.14,-200C1127.28,-197.27 1478.28,-187.25 1771,-151 1781.25,-149.73 1792.22,-147.89 1802.46,-145.95"/>
<polygon fill="#63b8ff" stroke="#63b8ff" points="973.4,-196.49 963.46,-200.16 973.52,-203.49 973.4,-196.49"/>
</g>
<!-- Node405&#45;&gt;Node80 -->
<g id="edge62" class="edge">
<title>Node405&#45;&gt;Node80</title>
<path fill="none" stroke="#63b8ff" d="M924.62,-180.58C942.19,-168.87 963.34,-154.77 976.73,-145.84"/>
<polygon fill="#63b8ff" stroke="#63b8ff" points="922.94,-177.5 916.56,-185.96 926.83,-183.32 922.94,-177.5"/>
</g>
<!-- Node405&#45;&gt;Node81 -->
<g id="edge63" class="edge">
<title>Node405&#45;&gt;Node81</title>
<path fill="none" stroke="#63b8ff" d="M972.96,-198.77C1239.96,-191.11 2099.31,-165.6 2223,-151 2233.09,-149.81 2243.9,-147.94 2253.93,-145.96"/>
<polygon fill="#63b8ff" stroke="#63b8ff" points="973.24,-195.26 963.34,-199.04 973.44,-202.25 973.24,-195.26"/>
</g>
<!-- Node405&#45;&gt;Node207 -->
<g id="edge59" class="edge">
<title>Node405&#45;&gt;Node207</title>
<path fill="none" stroke="#63b8ff" d="M814.84,-197.76C645.58,-190.46 262.18,-171.71 243,-151 233.94,-141.22 233.75,-130.61 243,-121 279.51,-83.07 1137.39,-87.1 1190,-85 1290.03,-81 1406.91,-76.04 1472.51,-73.22"/>
<polygon fill="#63b8ff" stroke="#63b8ff" points="814.51,-201.25 824.65,-198.18 814.81,-194.26 814.51,-201.25"/>
</g>
<!-- Node405&#45;&gt;Node112 -->
<g id="edge61" class="edge">
<title>Node405&#45;&gt;Node112</title>
<path fill="none" stroke="#63b8ff" d="M892.61,-175.51C893.14,-157.34 897.22,-133.92 913,-121 939.72,-99.12 1998.17,-77.57 2277.82,-72.25"/>
<polygon fill="#63b8ff" stroke="#63b8ff" points="889.11,-175.31 892.69,-185.28 896.11,-175.25 889.11,-175.31"/>
</g>
<!-- Node405&#45;&gt;Node403 -->
<g id="edge48" class="edge">
<title>Node405&#45;&gt;Node403</title>
<path fill="none" stroke="#63b8ff" d="M814.89,-197.6C681.85,-191.42 405.01,-176.57 172,-151 167.54,-150.51 162.96,-149.96 158.34,-149.38"/>
<polygon fill="#63b8ff" stroke="#63b8ff" points="814.49,-201.09 824.64,-198.05 814.81,-194.09 814.49,-201.09"/>
</g>
<!-- Node406 -->
<g id="node44" class="node">
<title>Node406</title>
<g id="a_node44"><a xlink:href="J3DDrawBuffer_8cpp.html" target="_top" xlink:title=" ">
<polygon fill="white" stroke="#666666" points="394,-151 252,-151 252,-121 394,-121 394,-151"/>
<text text-anchor="start" x="260" y="-139" font-family="Helvetica,sans-Serif" font-size="10.00">libs/JSystem/J3DGraphBase</text>
<text text-anchor="middle" x="323" y="-128" font-family="Helvetica,sans-Serif" font-size="10.00">/J3DDrawBuffer.cpp</text>
</a>
</g>
</g>
<!-- Node405&#45;&gt;Node406 -->
<g id="edge53" class="edge">
<title>Node405&#45;&gt;Node406</title>
<path fill="none" stroke="#63b8ff" d="M815.11,-194.72C717.94,-186.59 547.92,-171.03 403,-151 400.21,-150.61 397.36,-150.2 394.49,-149.77"/>
<polygon fill="#63b8ff" stroke="#63b8ff" points="814.54,-198.19 824.8,-195.53 815.12,-191.21 814.54,-198.19"/>
</g>
<!-- Node407 -->
<g id="node45" class="node">
<title>Node407</title>
<g id="a_node45"><a xlink:href="J3DMaterial_8cpp.html" target="_top" xlink:title=" ">
<polygon fill="white" stroke="#666666" points="554,-151 412,-151 412,-121 554,-121 554,-151"/>
<text text-anchor="start" x="420" y="-139" font-family="Helvetica,sans-Serif" font-size="10.00">libs/JSystem/J3DGraphBase</text>
<text text-anchor="middle" x="483" y="-128" font-family="Helvetica,sans-Serif" font-size="10.00">/J3DMaterial.cpp</text>
</a>
</g>
</g>
<!-- Node405&#45;&gt;Node407 -->
<g id="edge54" class="edge">
<title>Node405&#45;&gt;Node407</title>
<path fill="none" stroke="#63b8ff" d="M814.78,-189.56C747.67,-179.75 648.94,-165.01 563,-151 560.08,-150.52 557.1,-150.03 554.09,-149.53"/>
<polygon fill="#63b8ff" stroke="#63b8ff" points="814.2,-193.02 824.6,-191 815.21,-186.09 814.2,-193.02"/>
</g>
<!-- Node400 -->
<g id="node46" class="node">
<title>Node400</title>
<g id="a_node46"><a xlink:href="J3DPacket_8cpp.html" target="_top" xlink:title=" ">
<polygon fill="white" stroke="#666666" points="714,-151 572,-151 572,-121 714,-121 714,-151"/>
<text text-anchor="start" x="580" y="-139" font-family="Helvetica,sans-Serif" font-size="10.00">libs/JSystem/J3DGraphBase</text>
<text text-anchor="middle" x="643" y="-128" font-family="Helvetica,sans-Serif" font-size="10.00">/J3DPacket.cpp</text>
</a>
</g>
</g>
<!-- Node405&#45;&gt;Node400 -->
<g id="edge55" class="edge">
<title>Node405&#45;&gt;Node400</title>
<path fill="none" stroke="#63b8ff" d="M826.43,-183.77C786.71,-173.64 737.06,-160.98 699.44,-151.39"/>
<polygon fill="#63b8ff" stroke="#63b8ff" points="825.34,-187.1 835.89,-186.18 827.07,-180.32 825.34,-187.1"/>
</g>
<!-- Node205 -->
<g id="node47" class="node">
<title>Node205</title>
<g id="a_node47"><a xlink:href="d__model_8cpp.html" target="_top" xlink:title=" ">
<polygon fill="white" stroke="#666666" points="828,-145.5 732,-145.5 732,-126.5 828,-126.5 828,-145.5"/>
<text text-anchor="middle" x="780" y="-133.5" font-family="Helvetica,sans-Serif" font-size="10.00">src/d/d_model.cpp</text>
</a>
</g>
</g>
<!-- Node405&#45;&gt;Node205 -->
<g id="edge58" class="edge">
<title>Node405&#45;&gt;Node205</title>
<path fill="none" stroke="#63b8ff" d="M858.57,-181.11C837.64,-169.36 812.16,-155.05 796.01,-145.99"/>
<polygon fill="#63b8ff" stroke="#63b8ff" points="856.66,-184.05 867.1,-185.9 860.09,-177.95 856.66,-184.05"/>
</g>
</g>
</svg>
