<?xml version="1.0" encoding="UTF-8" standalone="no"?>
<!DOCTYPE svg PUBLIC "-//W3C//DTD SVG 1.1//EN"
 "http://www.w3.org/Graphics/SVG/1.1/DTD/svg11.dtd">
<!-- Generated by graphviz version 7.0.5 (20221223.1930)
 -->
<!-- Title: include/JSystem/J3DGraphBase/J3DStruct.h Pages: 1 -->
<!--zoomable 302 -->
<svg id="main" version="1.1" xmlns="http://www.w3.org/2000/svg" xmlns:xlink="http://www.w3.org/1999/xlink" xml:space="preserve" onload="init(evt)">
<style type="text/css"><![CDATA[
.edge:hover path { stroke: red; }
.edge:hover polygon { stroke: red; fill: red; }
]]></style>
<script type="text/javascript"><![CDATA[
var edges = document.getElementsByTagName('g');
if (edges && edges.length) {
  for (var i=0;i<edges.length;i++) {
    if (edges[i].id.substr(0,4)=='edge') {
      edges[i].setAttribute('class','edge');
    }
  }
}
]]></script>
        <defs>
                <circle id="rim" cx="0" cy="0" r="7"/>
                <circle id="rim2" cx="0" cy="0" r="3.5"/>
                <g id="zoomPlus">
                        <use xlink:href="#rim" fill="#404040">
                                <set attributeName="fill" to="#808080" begin="zoomplus.mouseover" end="zoomplus.mouseout"/>
                        </use>
                        <path d="M-4,0h8M0,-4v8" fill="none" stroke="white" stroke-width="1.5" pointer-events="none"/>
                </g>
                <g id="zoomMin">
                        <use xlink:href="#rim" fill="#404040">
                                <set attributeName="fill" to="#808080" begin="zoomminus.mouseover" end="zoomminus.mouseout"/>
                        </use>
                        <path d="M-4,0h8" fill="none" stroke="white" stroke-width="1.5" pointer-events="none"/>
                </g>
                <g id="dirArrow">
                        <path fill="none" stroke="white" stroke-width="1.5" d="M0,-3.0v7 M-2.5,-0.5L0,-3.0L2.5,-0.5"/>
                </g>
               <g id="resetDef">
                       <use xlink:href="#rim2" fill="#404040">
                               <set attributeName="fill" to="#808080" begin="reset.mouseover" end="reset.mouseout"/>
                       </use>
               </g>
        </defs>

<script type="text/javascript">
var viewWidth = 4019;
var viewHeight = 302;
var sectionId = 'dynsection-1';
</script>
<script xlink:href="svgpan.js"/>
<svg id="graph" class="graph">
<g id="viewport">
<title>include/JSystem/J3DGraphBase/J3DStruct.h</title>
<!-- Node1 -->
<g id="node1" class="node">
<title>Node1</title>
<g id="a_node1"><a xlink:title=" ">
<polygon fill="#999999" stroke="#666666" points="2655.5,-294 2520.5,-294 2520.5,-264 2655.5,-264 2655.5,-294"/>
<text text-anchor="start" x="2528.5" y="-282" font-family="Helvetica,sans-Serif" font-size="10.00">include/JSystem/J3DGraph</text>
<text text-anchor="middle" x="2588" y="-271" font-family="Helvetica,sans-Serif" font-size="10.00">Base/J3DStruct.h</text>
</a>
</g>
</g>
<!-- Node2 -->
<g id="node2" class="node">
<title>Node2</title>
<g id="a_node2"><a xlink:href="J3DMatBlock_8h.html" target="_top" xlink:title=" ">
<polygon fill="white" stroke="#666666" points="1605.5,-162 1470.5,-162 1470.5,-132 1605.5,-132 1605.5,-162"/>
<text text-anchor="start" x="1478.5" y="-150" font-family="Helvetica,sans-Serif" font-size="10.00">include/JSystem/J3DGraph</text>
<text text-anchor="middle" x="1538" y="-139" font-family="Helvetica,sans-Serif" font-size="10.00">Base/J3DMatBlock.h</text>
</a>
</g>
</g>
<!-- Node1&#45;&gt;Node2 -->
<g id="edge1" class="edge">
<title>Node1&#45;&gt;Node2</title>
<path fill="none" stroke="#63b8ff" d="M2509.1,-273.24C2397.14,-266.03 2185.91,-250.72 2007,-228 1831.73,-205.74 1789.03,-192.47 1615,-162 1611.92,-161.46 1608.78,-160.91 1605.6,-160.34"/>
<polygon fill="#63b8ff" stroke="#63b8ff" points="2508.56,-276.72 2518.76,-273.86 2509.01,-269.73 2508.56,-276.72"/>
</g>
<!-- Node31 -->
<g id="node31" class="node">
<title>Node31</title>
<g id="a_node31"><a xlink:href="J3DTexture_8h.html" target="_top" xlink:title=" ">
<polygon fill="white" stroke="#666666" points="2151.5,-228 2016.5,-228 2016.5,-198 2151.5,-198 2151.5,-228"/>
<text text-anchor="start" x="2024.5" y="-216" font-family="Helvetica,sans-Serif" font-size="10.00">include/JSystem/J3DGraph</text>
<text text-anchor="middle" x="2084" y="-205" font-family="Helvetica,sans-Serif" font-size="10.00">Base/J3DTexture.h</text>
</a>
</g>
</g>
<!-- Node1&#45;&gt;Node31 -->
<g id="edge31" class="edge">
<title>Node1&#45;&gt;Node31</title>
<path fill="none" stroke="#63b8ff" d="M2508.67,-267.93C2410.31,-255.44 2244.34,-234.36 2151.7,-222.6"/>
<polygon fill="#63b8ff" stroke="#63b8ff" points="2508.17,-271.39 2518.53,-269.18 2509.05,-264.45 2508.17,-271.39"/>
</g>
<!-- Node37 -->
<g id="node37" class="node">
<title>Node37</title>
<g id="a_node37"><a xlink:href="d__kankyo_8h.html" target="_top" xlink:title=" ">
<polygon fill="white" stroke="#666666" points="3219,-228 3121,-228 3121,-198 3219,-198 3219,-228"/>
<text text-anchor="start" x="3129" y="-216" font-family="Helvetica,sans-Serif" font-size="10.00">include/d/kankyo/d</text>
<text text-anchor="middle" x="3170" y="-205" font-family="Helvetica,sans-Serif" font-size="10.00">_kankyo.h</text>
</a>
</g>
</g>
<!-- Node1&#45;&gt;Node37 -->
<g id="edge39" class="edge">
<title>Node1&#45;&gt;Node37</title>
<path fill="none" stroke="#63b8ff" d="M2667,-269.31C2789.03,-255.89 3019.78,-230.52 3120.68,-219.42"/>
<polygon fill="#63b8ff" stroke="#63b8ff" points="2666.96,-265.8 2657.41,-270.37 2667.73,-272.75 2666.96,-265.8"/>
</g>
<!-- Node333 -->
<g id="node50" class="node">
<title>Node333</title>
<g id="a_node50"><a xlink:href="J3DStruct_8cpp.html" target="_top" xlink:title=" ">
<polygon fill="white" stroke="#666666" points="3379,-228 3237,-228 3237,-198 3379,-198 3379,-228"/>
<text text-anchor="start" x="3245" y="-216" font-family="Helvetica,sans-Serif" font-size="10.00">libs/JSystem/J3DGraphBase</text>
<text text-anchor="middle" x="3308" y="-205" font-family="Helvetica,sans-Serif" font-size="10.00">/J3DStruct.cpp</text>
</a>
</g>
</g>
<!-- Node1&#45;&gt;Node333 -->
<g id="edge58" class="edge">
<title>Node1&#45;&gt;Node333</title>
<path fill="none" stroke="#63b8ff" d="M2667.3,-274.24C2788.49,-267.94 3026.89,-253.39 3228,-228 3230.8,-227.65 3233.65,-227.26 3236.52,-226.86"/>
<polygon fill="#63b8ff" stroke="#63b8ff" points="2667.26,-270.74 2657.46,-274.75 2667.62,-277.73 2667.26,-270.74"/>
</g>
<!-- Node3 -->
<g id="node3" class="node">
<title>Node3</title>
<g id="a_node3"><a xlink:href="J3DMaterial_8h.html" target="_top" xlink:title=" ">
<polygon fill="white" stroke="#666666" points="1605.5,-96 1470.5,-96 1470.5,-66 1605.5,-66 1605.5,-96"/>
<text text-anchor="start" x="1478.5" y="-84" font-family="Helvetica,sans-Serif" font-size="10.00">include/JSystem/J3DGraph</text>
<text text-anchor="middle" x="1538" y="-73" font-family="Helvetica,sans-Serif" font-size="10.00">Base/J3DMaterial.h</text>
</a>
</g>
</g>
<!-- Node2&#45;&gt;Node3 -->
<g id="edge2" class="edge">
<title>Node2&#45;&gt;Node3</title>
<path fill="none" stroke="#63b8ff" d="M1538,-120.39C1538,-112.13 1538,-103.28 1538,-96.16"/>
<polygon fill="#63b8ff" stroke="#63b8ff" points="1534.5,-120.28 1538,-130.28 1541.5,-120.28 1534.5,-120.28"/>
</g>
<!-- Node21 -->
<g id="node21" class="node">
<title>Node21</title>
<g id="a_node21"><a xlink:href="d__a__alink_8h.html" target="_top" xlink:title=" ">
<polygon fill="white" stroke="#666666" points="3009,-90.5 2893,-90.5 2893,-71.5 3009,-71.5 3009,-90.5"/>
<text text-anchor="middle" x="2951" y="-78.5" font-family="Helvetica,sans-Serif" font-size="10.00">include/d/a/d_a_alink.h</text>
</a>
</g>
</g>
<!-- Node2&#45;&gt;Node21 -->
<g id="edge20" class="edge">
<title>Node2&#45;&gt;Node21</title>
<path fill="none" stroke="#63b8ff" d="M1617,-131.93C1890.03,-103.92 2672.45,-87.31 2892.71,-83.08"/>
<polygon fill="#63b8ff" stroke="#63b8ff" points="1617.02,-128.41 1607.45,-132.95 1617.76,-135.37 1617.02,-128.41"/>
</g>
<!-- Node29 -->
<g id="node29" class="node">
<title>Node29</title>
<g id="a_node29"><a xlink:href="J3DMatBlock_8cpp.html" target="_top" xlink:title=" ">
<polygon fill="white" stroke="#666666" points="1452,-96 1310,-96 1310,-66 1452,-66 1452,-96"/>
<text text-anchor="start" x="1318" y="-84" font-family="Helvetica,sans-Serif" font-size="10.00">libs/JSystem/J3DGraphBase</text>
<text text-anchor="middle" x="1381" y="-73" font-family="Helvetica,sans-Serif" font-size="10.00">/J3DMatBlock.cpp</text>
</a>
</g>
</g>
<!-- Node2&#45;&gt;Node29 -->
<g id="edge29" class="edge">
<title>Node2&#45;&gt;Node29</title>
<path fill="none" stroke="#63b8ff" d="M1492.39,-127.41C1468.18,-117.54 1438.86,-105.59 1416.39,-96.43"/>
<polygon fill="#63b8ff" stroke="#63b8ff" points="1490.78,-130.53 1501.36,-131.07 1493.43,-124.05 1490.78,-130.53"/>
</g>
<!-- Node30 -->
<g id="node30" class="node">
<title>Node30</title>
<g id="a_node30"><a xlink:href="d__attention_8cpp.html" target="_top" xlink:title=" ">
<polygon fill="white" stroke="#666666" points="1291.5,-90.5 1184.5,-90.5 1184.5,-71.5 1291.5,-71.5 1291.5,-90.5"/>
<text text-anchor="middle" x="1238" y="-78.5" font-family="Helvetica,sans-Serif" font-size="10.00">src/d/d_attention.cpp</text>
</a>
</g>
</g>
<!-- Node2&#45;&gt;Node30 -->
<g id="edge30" class="edge">
<title>Node2&#45;&gt;Node30</title>
<path fill="none" stroke="#63b8ff" d="M1458.9,-129.53C1412.81,-119.88 1353.59,-107.39 1301,-96 1293.55,-94.39 1285.62,-92.64 1277.98,-90.95"/>
<polygon fill="#63b8ff" stroke="#63b8ff" points="1458.04,-132.93 1468.54,-131.55 1459.47,-126.08 1458.04,-132.93"/>
</g>
<!-- Node4 -->
<g id="node4" class="node">
<title>Node4</title>
<g id="a_node4"><a xlink:href="J3DJoint_8cpp.html" target="_top" xlink:title=" ">
<polygon fill="white" stroke="#666666" points="1986,-30 1828,-30 1828,0 1986,0 1986,-30"/>
<text text-anchor="start" x="1836" y="-18" font-family="Helvetica,sans-Serif" font-size="10.00">libs/JSystem/J3DGraphAnimator</text>
<text text-anchor="middle" x="1907" y="-7" font-family="Helvetica,sans-Serif" font-size="10.00">/J3DJoint.cpp</text>
</a>
</g>
</g>
<!-- Node3&#45;&gt;Node4 -->
<g id="edge3" class="edge">
<title>Node3&#45;&gt;Node4</title>
<path fill="none" stroke="#63b8ff" d="M1616.99,-66.3C1679.13,-55.52 1765.31,-40.57 1827.56,-29.78"/>
<polygon fill="#63b8ff" stroke="#63b8ff" points="1616.43,-62.85 1607.17,-68 1617.62,-69.74 1616.43,-62.85"/>
</g>
<!-- Node5 -->
<g id="node5" class="node">
<title>Node5</title>
<g id="a_node5"><a xlink:href="J3DJointTree_8cpp.html" target="_top" xlink:title=" ">
<polygon fill="white" stroke="#666666" points="2162,-30 2004,-30 2004,0 2162,0 2162,-30"/>
<text text-anchor="start" x="2012" y="-18" font-family="Helvetica,sans-Serif" font-size="10.00">libs/JSystem/J3DGraphAnimator</text>
<text text-anchor="middle" x="2083" y="-7" font-family="Helvetica,sans-Serif" font-size="10.00">/J3DJointTree.cpp</text>
</a>
</g>
</g>
<!-- Node3&#45;&gt;Node5 -->
<g id="edge4" class="edge">
<title>Node3&#45;&gt;Node5</title>
<path fill="none" stroke="#63b8ff" d="M1617.23,-72.52C1708.48,-63.62 1862.81,-47.74 1995,-30 1997.91,-29.61 2000.88,-29.2 2003.87,-28.78"/>
<polygon fill="#63b8ff" stroke="#63b8ff" points="1617,-69.02 1607.38,-73.47 1617.67,-75.99 1617,-69.02"/>
</g>
<!-- Node6 -->
<g id="node6" class="node">
<title>Node6</title>
<g id="a_node6"><a xlink:href="J3DMaterialAnm_8cpp.html" target="_top" xlink:title=" ">
<polygon fill="white" stroke="#666666" points="158,-30 0,-30 0,0 158,0 158,-30"/>
<text text-anchor="start" x="8" y="-18" font-family="Helvetica,sans-Serif" font-size="10.00">libs/JSystem/J3DGraphAnimator</text>
<text text-anchor="middle" x="79" y="-7" font-family="Helvetica,sans-Serif" font-size="10.00">/J3DMaterialAnm.cpp</text>
</a>
</g>
</g>
<!-- Node3&#45;&gt;Node6 -->
<g id="edge5" class="edge">
<title>Node3&#45;&gt;Node6</title>
<path fill="none" stroke="#63b8ff" d="M1458.62,-65.89C886.78,-7.38 736.08,-82.96 167,-30 164.07,-29.73 161.1,-29.42 158.09,-29.08"/>
<polygon fill="#63b8ff" stroke="#63b8ff" points="1458.25,-69.37 1468.55,-66.91 1458.97,-62.4 1458.25,-69.37"/>
</g>
<!-- Node7 -->
<g id="node7" class="node">
<title>Node7</title>
<g id="a_node7"><a xlink:href="J3DMaterialAttach_8cpp.html" target="_top" xlink:title=" ">
<polygon fill="white" stroke="#666666" points="334,-30 176,-30 176,0 334,0 334,-30"/>
<text text-anchor="start" x="184" y="-18" font-family="Helvetica,sans-Serif" font-size="10.00">libs/JSystem/J3DGraphAnimator</text>
<text text-anchor="middle" x="255" y="-7" font-family="Helvetica,sans-Serif" font-size="10.00">/J3DMaterialAttach.cpp</text>
</a>
</g>
</g>
<!-- Node3&#45;&gt;Node7 -->
<g id="edge6" class="edge">
<title>Node3&#45;&gt;Node7</title>
<path fill="none" stroke="#63b8ff" d="M1458.69,-65.89C964.68,-14.35 834.16,-76.79 343,-30 340.07,-29.72 337.1,-29.41 334.09,-29.06"/>
<polygon fill="#63b8ff" stroke="#63b8ff" points="1458.24,-69.36 1468.55,-66.93 1458.98,-62.4 1458.24,-69.36"/>
</g>
<!-- Node8 -->
<g id="node8" class="node">
<title>Node8</title>
<g id="a_node8"><a xlink:href="J3DModel_8cpp.html" target="_top" xlink:title=" ">
<polygon fill="white" stroke="#666666" points="510,-30 352,-30 352,0 510,0 510,-30"/>
<text text-anchor="start" x="360" y="-18" font-family="Helvetica,sans-Serif" font-size="10.00">libs/JSystem/J3DGraphAnimator</text>
<text text-anchor="middle" x="431" y="-7" font-family="Helvetica,sans-Serif" font-size="10.00">/J3DModel.cpp</text>
</a>
</g>
</g>
<!-- Node3&#45;&gt;Node8 -->
<g id="edge7" class="edge">
<title>Node3&#45;&gt;Node8</title>
<path fill="none" stroke="#63b8ff" d="M1458.91,-65.9C1042.58,-21.29 932.3,-70.63 519,-30 516.07,-29.71 513.1,-29.39 510.1,-29.04"/>
<polygon fill="#63b8ff" stroke="#63b8ff" points="1458.23,-69.35 1468.55,-66.94 1458.99,-62.39 1458.23,-69.35"/>
</g>
<!-- Node9 -->
<g id="node9" class="node">
<title>Node9</title>
<g id="a_node9"><a xlink:href="J3DModelData_8cpp.html" target="_top" xlink:title=" ">
<polygon fill="white" stroke="#666666" points="686,-30 528,-30 528,0 686,0 686,-30"/>
<text text-anchor="start" x="536" y="-18" font-family="Helvetica,sans-Serif" font-size="10.00">libs/JSystem/J3DGraphAnimator</text>
<text text-anchor="middle" x="607" y="-7" font-family="Helvetica,sans-Serif" font-size="10.00">/J3DModelData.cpp</text>
</a>
</g>
</g>
<!-- Node3&#45;&gt;Node9 -->
<g id="edge8" class="edge">
<title>Node3&#45;&gt;Node9</title>
<path fill="none" stroke="#63b8ff" d="M1458.69,-65.86C1120.4,-28.24 1030.31,-64.44 695,-30 692.08,-29.7 689.1,-29.37 686.1,-29.01"/>
<polygon fill="#63b8ff" stroke="#63b8ff" points="1458.22,-69.33 1468.55,-66.97 1459,-62.37 1458.22,-69.33"/>
</g>
<!-- Node10 -->
<g id="node10" class="node">
<title>Node10</title>
<g id="a_node10"><a xlink:href="J3DDrawBuffer_8cpp.html" target="_top" xlink:title=" ">
<polygon fill="white" stroke="#666666" points="846,-30 704,-30 704,0 846,0 846,-30"/>
<text text-anchor="start" x="712" y="-18" font-family="Helvetica,sans-Serif" font-size="10.00">libs/JSystem/J3DGraphBase</text>
<text text-anchor="middle" x="775" y="-7" font-family="Helvetica,sans-Serif" font-size="10.00">/J3DDrawBuffer.cpp</text>
</a>
</g>
</g>
<!-- Node3&#45;&gt;Node10 -->
<g id="edge9" class="edge">
<title>Node3&#45;&gt;Node10</title>
<path fill="none" stroke="#63b8ff" d="M1458.8,-65.85C1191.16,-34.55 1119.32,-60.88 855,-30 852.2,-29.67 849.35,-29.31 846.47,-28.92"/>
<polygon fill="#63b8ff" stroke="#63b8ff" points="1458.2,-69.3 1468.54,-67.01 1459.03,-62.35 1458.2,-69.3"/>
</g>
<!-- Node11 -->
<g id="node11" class="node">
<title>Node11</title>
<g id="a_node11"><a xlink:href="J3DMaterial_8cpp.html" target="_top" xlink:title=" ">
<polygon fill="white" stroke="#666666" points="1006,-30 864,-30 864,0 1006,0 1006,-30"/>
<text text-anchor="start" x="872" y="-18" font-family="Helvetica,sans-Serif" font-size="10.00">libs/JSystem/J3DGraphBase</text>
<text text-anchor="middle" x="935" y="-7" font-family="Helvetica,sans-Serif" font-size="10.00">/J3DMaterial.cpp</text>
</a>
</g>
</g>
<!-- Node3&#45;&gt;Node11 -->
<g id="edge10" class="edge">
<title>Node3&#45;&gt;Node11</title>
<path fill="none" stroke="#63b8ff" d="M1458.72,-65.8C1261.85,-40.72 1208.61,-54.7 1015,-30 1012.2,-29.64 1009.35,-29.26 1006.48,-28.85"/>
<polygon fill="#63b8ff" stroke="#63b8ff" points="1458.17,-69.26 1468.54,-67.07 1459.07,-62.32 1458.17,-69.26"/>
</g>
<!-- Node12 -->
<g id="node12" class="node">
<title>Node12</title>
<g id="a_node12"><a xlink:href="J3DPacket_8cpp.html" target="_top" xlink:title=" ">
<polygon fill="white" stroke="#666666" points="1166,-30 1024,-30 1024,0 1166,0 1166,-30"/>
<text text-anchor="start" x="1032" y="-18" font-family="Helvetica,sans-Serif" font-size="10.00">libs/JSystem/J3DGraphBase</text>
<text text-anchor="middle" x="1095" y="-7" font-family="Helvetica,sans-Serif" font-size="10.00">/J3DPacket.cpp</text>
</a>
</g>
</g>
<!-- Node3&#45;&gt;Node12 -->
<g id="edge11" class="edge">
<title>Node3&#45;&gt;Node12</title>
<path fill="none" stroke="#63b8ff" d="M1458.73,-65.71C1332.45,-46.66 1298.1,-48.51 1175,-30 1172.07,-29.56 1169.09,-29.1 1166.07,-28.62"/>
<polygon fill="#63b8ff" stroke="#63b8ff" points="1458.1,-69.16 1468.52,-67.2 1459.16,-62.24 1458.1,-69.16"/>
</g>
<!-- Node13 -->
<g id="node13" class="node">
<title>Node13</title>
<g id="a_node13"><a xlink:href="d__a__alink_8cpp.html" target="_top" xlink:title=" ">
<polygon fill="white" stroke="#666666" points="2595.5,-24.5 2486.5,-24.5 2486.5,-5.5 2595.5,-5.5 2595.5,-24.5"/>
<text text-anchor="middle" x="2541" y="-12.5" font-family="Helvetica,sans-Serif" font-size="10.00">src/d/a/d_a_alink.cpp</text>
</a>
</g>
</g>
<!-- Node3&#45;&gt;Node13 -->
<g id="edge12" class="edge">
<title>Node3&#45;&gt;Node13</title>
<path fill="none" stroke="#63b8ff" d="M1617.11,-80.1C1779.19,-79.37 2160.43,-72.77 2477,-30 2486.13,-28.77 2495.89,-26.91 2504.97,-24.95"/>
<polygon fill="#63b8ff" stroke="#63b8ff" points="1617.32,-76.6 1607.33,-80.14 1617.34,-83.6 1617.32,-76.6"/>
</g>
<!-- Node14 -->
<g id="node14" class="node">
<title>Node14</title>
<g id="a_node14"><a xlink:href="d__a__npc_8cpp.html" target="_top" xlink:title=" ">
<polygon fill="white" stroke="#666666" points="1288,-24.5 1184,-24.5 1184,-5.5 1288,-5.5 1288,-24.5"/>
<text text-anchor="middle" x="1236" y="-12.5" font-family="Helvetica,sans-Serif" font-size="10.00">src/d/a/d_a_npc.cpp</text>
</a>
</g>
</g>
<!-- Node3&#45;&gt;Node14 -->
<g id="edge13" class="edge">
<title>Node3&#45;&gt;Node14</title>
<path fill="none" stroke="#63b8ff" d="M1459.09,-64.06C1411.98,-54.44 1351.01,-41.8 1297,-30 1289.68,-28.4 1281.87,-26.65 1274.37,-24.94"/>
<polygon fill="#63b8ff" stroke="#63b8ff" points="1458.16,-67.45 1468.65,-66.01 1459.55,-60.59 1458.16,-67.45"/>
</g>
<!-- Node15 -->
<g id="node15" class="node">
<title>Node15</title>
<g id="a_node15"><a xlink:href="d__model_8cpp.html" target="_top" xlink:title=" ">
<polygon fill="white" stroke="#666666" points="1402,-24.5 1306,-24.5 1306,-5.5 1402,-5.5 1402,-24.5"/>
<text text-anchor="middle" x="1354" y="-12.5" font-family="Helvetica,sans-Serif" font-size="10.00">src/d/d_model.cpp</text>
</a>
</g>
</g>
<!-- Node3&#45;&gt;Node15 -->
<g id="edge14" class="edge">
<title>Node3&#45;&gt;Node15</title>
<path fill="none" stroke="#63b8ff" d="M1486.27,-62.01C1451.56,-49.93 1407.33,-34.55 1379.83,-24.99"/>
<polygon fill="#63b8ff" stroke="#63b8ff" points="1484.68,-65.16 1495.28,-65.14 1486.98,-58.55 1484.68,-65.16"/>
</g>
<!-- Node16 -->
<g id="node16" class="node">
<title>Node16</title>
<g id="a_node16"><a xlink:href="d__resorce_8cpp.html" target="_top" xlink:title=" ">
<polygon fill="white" stroke="#666666" points="1522,-24.5 1420,-24.5 1420,-5.5 1522,-5.5 1522,-24.5"/>
<text text-anchor="middle" x="1471" y="-12.5" font-family="Helvetica,sans-Serif" font-size="10.00">src/d/d_resorce.cpp</text>
</a>
</g>
</g>
<!-- Node3&#45;&gt;Node16 -->
<g id="edge15" class="edge">
<title>Node3&#45;&gt;Node16</title>
<path fill="none" stroke="#63b8ff" d="M1514.91,-57.94C1503.01,-46.58 1489.17,-33.36 1480.26,-24.84"/>
<polygon fill="#63b8ff" stroke="#63b8ff" points="1512.39,-60.37 1522.04,-64.75 1517.22,-55.31 1512.39,-60.37"/>
</g>
<!-- Node17 -->
<g id="node17" class="node">
<title>Node17</title>
<g id="a_node17"><a xlink:href="d__file__select_8cpp.html" target="_top" xlink:title=" ">
<polygon fill="white" stroke="#666666" points="1668,-24.5 1540,-24.5 1540,-5.5 1668,-5.5 1668,-24.5"/>
<text text-anchor="middle" x="1604" y="-12.5" font-family="Helvetica,sans-Serif" font-size="10.00">src/d/file/d_file_select.cpp</text>
</a>
</g>
</g>
<!-- Node3&#45;&gt;Node17 -->
<g id="edge16" class="edge">
<title>Node3&#45;&gt;Node17</title>
<path fill="none" stroke="#63b8ff" d="M1560.75,-57.94C1572.46,-46.58 1586.1,-33.36 1594.88,-24.84"/>
<polygon fill="#63b8ff" stroke="#63b8ff" points="1558.48,-55.27 1553.73,-64.74 1563.35,-60.29 1558.48,-55.27"/>
</g>
<!-- Node18 -->
<g id="node18" class="node">
<title>Node18</title>
<g id="a_node18"><a xlink:href="d__kankyo_8cpp.html" target="_top" xlink:title=" ">
<polygon fill="white" stroke="#666666" points="2314,-24.5 2180,-24.5 2180,-5.5 2314,-5.5 2314,-24.5"/>
<text text-anchor="middle" x="2247" y="-12.5" font-family="Helvetica,sans-Serif" font-size="10.00">src/d/kankyo/d_kankyo.cpp</text>
</a>
</g>
</g>
<!-- Node3&#45;&gt;Node18 -->
<g id="edge17" class="edge">
<title>Node3&#45;&gt;Node18</title>
<path fill="none" stroke="#63b8ff" d="M1616.94,-76.39C1736.99,-70.31 1972.47,-56.06 2171,-30 2181.24,-28.66 2192.2,-26.85 2202.51,-24.99"/>
<polygon fill="#63b8ff" stroke="#63b8ff" points="1617.02,-72.88 1607.2,-76.88 1617.37,-79.87 1617.02,-72.88"/>
</g>
<!-- Node19 -->
<g id="node19" class="node">
<title>Node19</title>
<g id="a_node19"><a xlink:href="d__particle_8cpp.html" target="_top" xlink:title=" ">
<polygon fill="white" stroke="#666666" points="2468,-24.5 2332,-24.5 2332,-5.5 2468,-5.5 2468,-24.5"/>
<text text-anchor="middle" x="2400" y="-12.5" font-family="Helvetica,sans-Serif" font-size="10.00">src/d/particle/d_particle.cpp</text>
</a>
</g>
</g>
<!-- Node3&#45;&gt;Node19 -->
<g id="edge18" class="edge">
<title>Node3&#45;&gt;Node19</title>
<path fill="none" stroke="#63b8ff" d="M1617.13,-78C1759.04,-73.74 2065.98,-61.44 2323,-30 2333.65,-28.7 2345.07,-26.86 2355.75,-24.95"/>
<polygon fill="#63b8ff" stroke="#63b8ff" points="1617.38,-74.49 1607.49,-78.28 1617.58,-81.49 1617.38,-74.49"/>
</g>
<!-- Node20 -->
<g id="node20" class="node">
<title>Node20</title>
<g id="a_node20"><a xlink:href="m__Do__ext_8cpp.html" target="_top" xlink:title=" ">
<polygon fill="white" stroke="#666666" points="1809.5,-24.5 1686.5,-24.5 1686.5,-5.5 1809.5,-5.5 1809.5,-24.5"/>
<text text-anchor="middle" x="1748" y="-12.5" font-family="Helvetica,sans-Serif" font-size="10.00">src/m_Do/m_Do_ext.cpp</text>
</a>
</g>
</g>
<!-- Node3&#45;&gt;Node20 -->
<g id="edge19" class="edge">
<title>Node3&#45;&gt;Node20</title>
<path fill="none" stroke="#63b8ff" d="M1596.28,-62.24C1636.04,-50.12 1687.02,-34.59 1718.59,-24.96"/>
<polygon fill="#63b8ff" stroke="#63b8ff" points="1595.38,-58.85 1586.84,-65.12 1597.42,-65.55 1595.38,-58.85"/>
</g>
<!-- Node21&#45;&gt;Node13 -->
<g id="edge21" class="edge">
<title>Node21&#45;&gt;Node13</title>
<path fill="none" stroke="#63b8ff" d="M2881.33,-71.43C2811.28,-62.46 2700.32,-47.29 2605,-30 2596.83,-28.52 2588.12,-26.74 2579.83,-24.96"/>
<polygon fill="#63b8ff" stroke="#63b8ff" points="2880.77,-74.88 2891.13,-72.68 2881.66,-67.94 2880.77,-74.88"/>
</g>
<!-- Node22 -->
<g id="node22" class="node">
<title>Node22</title>
<g id="a_node22"><a xlink:href="d__a__player_8cpp.html" target="_top" xlink:title=" ">
<polygon fill="white" stroke="#666666" points="2879,-24.5 2765,-24.5 2765,-5.5 2879,-5.5 2879,-24.5"/>
<text text-anchor="middle" x="2822" y="-12.5" font-family="Helvetica,sans-Serif" font-size="10.00">src/d/a/d_a_player.cpp</text>
</a>
</g>
</g>
<!-- Node21&#45;&gt;Node22 -->
<g id="edge22" class="edge">
<title>Node21&#45;&gt;Node22</title>
<path fill="none" stroke="#63b8ff" d="M2922.99,-66.1C2897.71,-53.56 2861.28,-35.49 2839.78,-24.82"/>
<polygon fill="#63b8ff" stroke="#63b8ff" points="2921.19,-69.12 2931.71,-70.43 2924.3,-62.85 2921.19,-69.12"/>
</g>
<!-- Node23 -->
<g id="node23" class="node">
<title>Node23</title>
<g id="a_node23"><a xlink:href="d__com__inf__game_8cpp.html" target="_top" xlink:title=" ">
<polygon fill="white" stroke="#666666" points="3005,-30 2897,-30 2897,0 3005,0 3005,-30"/>
<text text-anchor="start" x="2905" y="-18" font-family="Helvetica,sans-Serif" font-size="10.00">src/d/com/d_com_inf</text>
<text text-anchor="middle" x="2951" y="-7" font-family="Helvetica,sans-Serif" font-size="10.00">_game.cpp</text>
</a>
</g>
</g>
<!-- Node21&#45;&gt;Node23 -->
<g id="edge23" class="edge">
<title>Node21&#45;&gt;Node23</title>
<path fill="none" stroke="#63b8ff" d="M2951,-59.78C2951,-50.17 2951,-38.92 2951,-30.23"/>
<polygon fill="#63b8ff" stroke="#63b8ff" points="2947.5,-59.59 2951,-69.59 2954.5,-59.59 2947.5,-59.59"/>
</g>
<!-- Node24 -->
<g id="node24" class="node">
<title>Node24</title>
<g id="a_node24"><a xlink:href="d__camera_8cpp.html" target="_top" xlink:title=" ">
<polygon fill="white" stroke="#666666" points="3531,-24.5 3429,-24.5 3429,-5.5 3531,-5.5 3531,-24.5"/>
<text text-anchor="middle" x="3480" y="-12.5" font-family="Helvetica,sans-Serif" font-size="10.00">src/d/d_camera.cpp</text>
</a>
</g>
</g>
<!-- Node21&#45;&gt;Node24 -->
<g id="edge24" class="edge">
<title>Node21&#45;&gt;Node24</title>
<path fill="none" stroke="#63b8ff" d="M3020.57,-73.06C3141.59,-60.92 3381.63,-36.5 3420,-30 3428.12,-28.63 3436.78,-26.81 3444.93,-24.95"/>
<polygon fill="#63b8ff" stroke="#63b8ff" points="3020.35,-69.57 3010.75,-74.05 3021.05,-76.53 3020.35,-69.57"/>
</g>
<!-- Node25 -->
<g id="node25" class="node">
<title>Node25</title>
<g id="a_node25"><a xlink:href="d__event_8cpp.html" target="_top" xlink:title=" ">
<polygon fill="white" stroke="#666666" points="3144.5,-24.5 3023.5,-24.5 3023.5,-5.5 3144.5,-5.5 3144.5,-24.5"/>
<text text-anchor="middle" x="3084" y="-12.5" font-family="Helvetica,sans-Serif" font-size="10.00">src/d/event/d_event.cpp</text>
</a>
</g>
</g>
<!-- Node21&#45;&gt;Node25 -->
<g id="edge25" class="edge">
<title>Node21&#45;&gt;Node25</title>
<path fill="none" stroke="#63b8ff" d="M2979.53,-66.27C3005.61,-53.72 3043.4,-35.54 3065.66,-24.82"/>
<polygon fill="#63b8ff" stroke="#63b8ff" points="2978.35,-62.95 2970.86,-70.44 2981.39,-69.26 2978.35,-62.95"/>
</g>
<!-- Node26 -->
<g id="node26" class="node">
<title>Node26</title>
<g id="a_node26"><a xlink:href="d__meter2__draw_8cpp.html" target="_top" xlink:title=" ">
<polygon fill="white" stroke="#666666" points="3273,-30 3163,-30 3163,0 3273,0 3273,-30"/>
<text text-anchor="start" x="3171" y="-18" font-family="Helvetica,sans-Serif" font-size="10.00">src/d/meter/d_meter2</text>
<text text-anchor="middle" x="3218" y="-7" font-family="Helvetica,sans-Serif" font-size="10.00">_draw.cpp</text>
</a>
</g>
</g>
<!-- Node21&#45;&gt;Node26 -->
<g id="edge26" class="edge">
<title>Node21&#45;&gt;Node26</title>
<path fill="none" stroke="#63b8ff" d="M2999.59,-68.35C3045.61,-57.32 3114.66,-40.77 3162.76,-29.24"/>
<polygon fill="#63b8ff" stroke="#63b8ff" points="2998.79,-64.95 2989.88,-70.68 3000.42,-71.75 2998.79,-64.95"/>
</g>
<!-- Node27 -->
<g id="node27" class="node">
<title>Node27</title>
<g id="a_node27"><a xlink:href="d__msg__flow_8cpp.html" target="_top" xlink:title=" ">
<polygon fill="white" stroke="#666666" points="2746.5,-24.5 2613.5,-24.5 2613.5,-5.5 2746.5,-5.5 2746.5,-24.5"/>
<text text-anchor="middle" x="2680" y="-12.5" font-family="Helvetica,sans-Serif" font-size="10.00">src/d/msg/d_msg_flow.cpp</text>
</a>
</g>
</g>
<!-- Node21&#45;&gt;Node27 -->
<g id="edge27" class="edge">
<title>Node21&#45;&gt;Node27</title>
<path fill="none" stroke="#63b8ff" d="M2901.89,-68.4C2848.93,-55.89 2765.76,-36.25 2717.71,-24.91"/>
<polygon fill="#63b8ff" stroke="#63b8ff" points="2901.02,-71.79 2911.56,-70.69 2902.63,-64.98 2901.02,-71.79"/>
</g>
<!-- Node28 -->
<g id="node28" class="node">
<title>Node28</title>
<g id="a_node28"><a xlink:href="f__op__actor_8cpp.html" target="_top" xlink:title=" ">
<polygon fill="white" stroke="#666666" points="3410.5,-24.5 3291.5,-24.5 3291.5,-5.5 3410.5,-5.5 3410.5,-24.5"/>
<text text-anchor="middle" x="3351" y="-12.5" font-family="Helvetica,sans-Serif" font-size="10.00">src/f_op/f_op_actor.cpp</text>
</a>
</g>
</g>
<!-- Node21&#45;&gt;Node28 -->
<g id="edge28" class="edge">
<title>Node21&#45;&gt;Node28</title>
<path fill="none" stroke="#63b8ff" d="M3020.7,-70.51C3087.8,-61.13 3192.06,-45.91 3282,-30 3290.55,-28.49 3299.66,-26.74 3308.37,-25"/>
<polygon fill="#63b8ff" stroke="#63b8ff" points="3020.36,-67.02 3010.94,-71.87 3021.33,-73.96 3020.36,-67.02"/>
</g>
<!-- Node31&#45;&gt;Node2 -->
<g id="edge32" class="edge">
<title>Node31&#45;&gt;Node2</title>
<path fill="none" stroke="#63b8ff" d="M2004.9,-205.36C1911.49,-197.1 1751.55,-181.66 1615,-162 1612.04,-161.57 1609.02,-161.12 1605.98,-160.64"/>
<polygon fill="#63b8ff" stroke="#63b8ff" points="2004.46,-208.83 2014.73,-206.22 2005.07,-201.86 2004.46,-208.83"/>
</g>
<!-- Node31&#45;&gt;Node3 -->
<g id="edge33" class="edge">
<title>Node31&#45;&gt;Node3</title>
<path fill="none" stroke="#63b8ff" d="M2153.63,-194.16C2195.35,-180.24 2235.87,-158.79 2211,-132 2170.42,-88.29 1768.6,-82.48 1605.89,-81.93"/>
<polygon fill="#63b8ff" stroke="#63b8ff" points="2152.66,-190.8 2144.19,-197.17 2154.78,-197.47 2152.66,-190.8"/>
</g>
<!-- Node32 -->
<g id="node32" class="node">
<title>Node32</title>
<g id="a_node32"><a xlink:href="J2DAnimation_8cpp.html" target="_top" xlink:title=" ">
<polygon fill="white" stroke="#666666" points="2377.5,-162 2258.5,-162 2258.5,-132 2377.5,-132 2377.5,-162"/>
<text text-anchor="start" x="2266.5" y="-150" font-family="Helvetica,sans-Serif" font-size="10.00">libs/JSystem/J2DGraph</text>
<text text-anchor="middle" x="2318" y="-139" font-family="Helvetica,sans-Serif" font-size="10.00">/J2DAnimation.cpp</text>
</a>
</g>
</g>
<!-- Node31&#45;&gt;Node32 -->
<g id="edge34" class="edge">
<title>Node31&#45;&gt;Node32</title>
<path fill="none" stroke="#63b8ff" d="M2147.46,-194.64C2184.42,-184.53 2230.46,-171.94 2265.39,-162.39"/>
<polygon fill="#63b8ff" stroke="#63b8ff" points="2146.99,-191.14 2138.27,-197.16 2148.83,-197.9 2146.99,-191.14"/>
</g>
<!-- Node33 -->
<g id="node33" class="node">
<title>Node33</title>
<g id="a_node33"><a xlink:href="J3DSys_8cpp.html" target="_top" xlink:title=" ">
<polygon fill="white" stroke="#666666" points="1766,-162 1624,-162 1624,-132 1766,-132 1766,-162"/>
<text text-anchor="start" x="1632" y="-150" font-family="Helvetica,sans-Serif" font-size="10.00">libs/JSystem/J3DGraphBase</text>
<text text-anchor="middle" x="1695" y="-139" font-family="Helvetica,sans-Serif" font-size="10.00">/J3DSys.cpp</text>
</a>
</g>
</g>
<!-- Node31&#45;&gt;Node33 -->
<g id="edge35" class="edge">
<title>Node31&#45;&gt;Node33</title>
<path fill="none" stroke="#63b8ff" d="M2004.8,-199.47C1942.35,-189.52 1853.07,-175.15 1775,-162 1772.08,-161.51 1769.1,-161 1766.09,-160.49"/>
<polygon fill="#63b8ff" stroke="#63b8ff" points="2004.22,-202.92 2014.65,-201.04 2005.32,-196.01 2004.22,-202.92"/>
</g>
<!-- Node34 -->
<g id="node34" class="node">
<title>Node34</title>
<g id="a_node34"><a xlink:href="J3DTevs_8cpp.html" target="_top" xlink:title=" ">
<polygon fill="white" stroke="#666666" points="1926,-162 1784,-162 1784,-132 1926,-132 1926,-162"/>
<text text-anchor="start" x="1792" y="-150" font-family="Helvetica,sans-Serif" font-size="10.00">libs/JSystem/J3DGraphBase</text>
<text text-anchor="middle" x="1855" y="-139" font-family="Helvetica,sans-Serif" font-size="10.00">/J3DTevs.cpp</text>
</a>
</g>
</g>
<!-- Node31&#45;&gt;Node34 -->
<g id="edge36" class="edge">
<title>Node31&#45;&gt;Node34</title>
<path fill="none" stroke="#63b8ff" d="M2021.42,-194.51C1985.34,-184.43 1940.52,-171.9 1906.49,-162.39"/>
<polygon fill="#63b8ff" stroke="#63b8ff" points="2020.29,-197.83 2030.86,-197.15 2022.18,-191.09 2020.29,-197.83"/>
</g>
<!-- Node35 -->
<g id="node35" class="node">
<title>Node35</title>
<g id="a_node35"><a xlink:href="J3DTexture_8cpp.html" target="_top" xlink:title=" ">
<polygon fill="white" stroke="#666666" points="2086,-162 1944,-162 1944,-132 2086,-132 2086,-162"/>
<text text-anchor="start" x="1952" y="-150" font-family="Helvetica,sans-Serif" font-size="10.00">libs/JSystem/J3DGraphBase</text>
<text text-anchor="middle" x="2015" y="-139" font-family="Helvetica,sans-Serif" font-size="10.00">/J3DTexture.cpp</text>
</a>
</g>
</g>
<!-- Node31&#45;&gt;Node35 -->
<g id="edge37" class="edge">
<title>Node31&#45;&gt;Node35</title>
<path fill="none" stroke="#63b8ff" d="M2060.38,-190.09C2050.41,-180.85 2039.11,-170.36 2030.27,-162.16"/>
<polygon fill="#63b8ff" stroke="#63b8ff" points="2057.87,-192.53 2067.58,-196.77 2062.63,-187.4 2057.87,-192.53"/>
</g>
<!-- Node36 -->
<g id="node36" class="node">
<title>Node36</title>
<g id="a_node36"><a xlink:href="d__eye__hl_8cpp.html" target="_top" xlink:title=" ">
<polygon fill="white" stroke="#666666" points="2202,-156.5 2104,-156.5 2104,-137.5 2202,-137.5 2202,-156.5"/>
<text text-anchor="middle" x="2153" y="-144.5" font-family="Helvetica,sans-Serif" font-size="10.00">src/d/d_eye_hl.cpp</text>
</a>
</g>
</g>
<!-- Node31&#45;&gt;Node36 -->
<g id="edge38" class="edge">
<title>Node31&#45;&gt;Node36</title>
<path fill="none" stroke="#63b8ff" d="M2107.42,-190.27C2119.75,-178.84 2134.2,-165.44 2143.46,-156.84"/>
<polygon fill="#63b8ff" stroke="#63b8ff" points="2105.37,-187.4 2100.42,-196.77 2110.13,-192.53 2105.37,-187.4"/>
</g>
<!-- Node37&#45;&gt;Node18 -->
<g id="edge55" class="edge">
<title>Node37&#45;&gt;Node18</title>
<path fill="none" stroke="#63b8ff" d="M3109.54,-201.64C3054.13,-191.97 2969.88,-176.85 2897,-162 2662.97,-114.31 2383.56,-48.56 2284.26,-24.92"/>
<polygon fill="#63b8ff" stroke="#63b8ff" points="3108.62,-205.03 3119.08,-203.3 3109.82,-198.14 3108.62,-205.03"/>
</g>
<!-- Node38 -->
<g id="node38" class="node">
<title>Node38</title>
<g id="a_node38"><a xlink:href="d__stage_8h.html" target="_top" xlink:title=" ">
<polygon fill="white" stroke="#666666" points="3419.5,-156.5 3318.5,-156.5 3318.5,-137.5 3419.5,-137.5 3419.5,-156.5"/>
<text text-anchor="middle" x="3369" y="-144.5" font-family="Helvetica,sans-Serif" font-size="10.00">include/d/d_stage.h</text>
</a>
</g>
</g>
<!-- Node37&#45;&gt;Node38 -->
<g id="edge40" class="edge">
<title>Node37&#45;&gt;Node38</title>
<path fill="none" stroke="#63b8ff" d="M3225.46,-194.16C3263.07,-182.07 3311.2,-166.59 3341.06,-156.99"/>
<polygon fill="#63b8ff" stroke="#63b8ff" points="3224.55,-190.78 3216.1,-197.17 3226.69,-197.44 3224.55,-190.78"/>
</g>
<!-- Node217 -->
<g id="node43" class="node">
<title>Node217</title>
<g id="a_node43"><a xlink:href="d__menu__collect_8h.html" target="_top" xlink:title=" ">
<polygon fill="#fff0f0" stroke="red" points="3558,-162 3438,-162 3438,-132 3558,-132 3558,-162"/>
<text text-anchor="start" x="3446" y="-150" font-family="Helvetica,sans-Serif" font-size="10.00">include/d/menu/d_menu</text>
<text text-anchor="middle" x="3498" y="-139" font-family="Helvetica,sans-Serif" font-size="10.00">_collect.h</text>
</a>
</g>
</g>
<!-- Node37&#45;&gt;Node217 -->
<g id="edge47" class="edge">
<title>Node37&#45;&gt;Node217</title>
<path fill="none" stroke="#63b8ff" d="M3230.41,-197.57C3318.72,-179.29 3343.34,-178.36 3429,-162 3431.88,-161.45 3434.83,-160.88 3437.81,-160.3"/>
<polygon fill="#63b8ff" stroke="#63b8ff" points="3229.87,-194.1 3220.8,-199.58 3231.3,-200.96 3229.87,-194.1"/>
</g>
<!-- Node218 -->
<g id="node46" class="node">
<title>Node218</title>
<g id="a_node46"><a xlink:href="d__particle_8h.html" target="_top" xlink:title=" ">
<polygon fill="#fff0f0" stroke="red" points="2996,-162 2906,-162 2906,-132 2996,-132 2996,-162"/>
<text text-anchor="start" x="2914" y="-150" font-family="Helvetica,sans-Serif" font-size="10.00">include/d/particle</text>
<text text-anchor="middle" x="2951" y="-139" font-family="Helvetica,sans-Serif" font-size="10.00">/d_particle.h</text>
</a>
</g>
</g>
<!-- Node37&#45;&gt;Node218 -->
<g id="edge50" class="edge">
<title>Node37&#45;&gt;Node218</title>
<path fill="none" stroke="#63b8ff" d="M3109.74,-194.39C3073.83,-183.9 3028.99,-170.79 2996.14,-161.19"/>
<polygon fill="#63b8ff" stroke="#63b8ff" points="3108.55,-197.69 3119.13,-197.13 3110.51,-190.97 3108.55,-197.69"/>
</g>
<!-- Node224 -->
<g id="node47" class="node">
<title>Node224</title>
<g id="a_node47"><a xlink:href="f__op__actor_8h.html" target="_top" xlink:title=" ">
<polygon fill="#fff0f0" stroke="red" points="3232.5,-90.5 3107.5,-90.5 3107.5,-71.5 3232.5,-71.5 3232.5,-90.5"/>
<text text-anchor="middle" x="3170" y="-78.5" font-family="Helvetica,sans-Serif" font-size="10.00">include/f_op/f_op_actor.h</text>
</a>
</g>
</g>
<!-- Node37&#45;&gt;Node224 -->
<g id="edge53" class="edge">
<title>Node37&#45;&gt;Node224</title>
<path fill="none" stroke="#63b8ff" d="M3170,-186.12C3170,-156.59 3170,-109.92 3170,-90.71"/>
<polygon fill="#63b8ff" stroke="#63b8ff" points="3166.5,-186.08 3170,-196.08 3173.5,-186.08 3166.5,-186.08"/>
</g>
<!-- Node184 -->
<g id="node48" class="node">
<title>Node184</title>
<g id="a_node48"><a xlink:href="d__kankyo__wether_8cpp.html" target="_top" xlink:title=" ">
<polygon fill="white" stroke="#666666" points="3692,-162 3576,-162 3576,-132 3692,-132 3692,-162"/>
<text text-anchor="start" x="3584" y="-150" font-family="Helvetica,sans-Serif" font-size="10.00">src/d/kankyo/d_kankyo</text>
<text text-anchor="middle" x="3634" y="-139" font-family="Helvetica,sans-Serif" font-size="10.00">_wether.cpp</text>
</a>
</g>
</g>
<!-- Node37&#45;&gt;Node184 -->
<g id="edge56" class="edge">
<title>Node37&#45;&gt;Node184</title>
<path fill="none" stroke="#63b8ff" d="M3230.19,-197.78C3379.23,-172.77 3420.83,-184.97 3567,-162 3569.82,-161.56 3572.7,-161.07 3575.6,-160.56"/>
<polygon fill="#63b8ff" stroke="#63b8ff" points="3230.03,-194.25 3220.76,-199.39 3231.21,-201.15 3230.03,-194.25"/>
</g>
<!-- Node332 -->
<g id="node49" class="node">
<title>Node332</title>
<g id="a_node49"><a xlink:href="d__msg__unit_8cpp.html" target="_top" xlink:title=" ">
<polygon fill="white" stroke="#666666" points="3841.5,-156.5 3710.5,-156.5 3710.5,-137.5 3841.5,-137.5 3841.5,-156.5"/>
<text text-anchor="middle" x="3776" y="-144.5" font-family="Helvetica,sans-Serif" font-size="10.00">src/d/msg/d_msg_unit.cpp</text>
</a>
</g>
</g>
<!-- Node37&#45;&gt;Node332 -->
<g id="edge57" class="edge">
<title>Node37&#45;&gt;Node332</title>
<path fill="none" stroke="#63b8ff" d="M3230.55,-197.78C3438.26,-165.99 3495.63,-188.9 3701,-162 3711.24,-160.66 3722.21,-158.83 3732.5,-156.95"/>
<polygon fill="#63b8ff" stroke="#63b8ff" points="3230.09,-194.31 3220.75,-199.31 3231.17,-201.23 3230.09,-194.31"/>
</g>
<!-- Node39 -->
<g id="node39" class="node">
<title>Node39</title>
<g id="a_node39"><a xlink:href="d__camera_8h.html" target="_top" xlink:title=" ">
<polygon fill="#fff0f0" stroke="red" points="3359.5,-90.5 3250.5,-90.5 3250.5,-71.5 3359.5,-71.5 3359.5,-90.5"/>
<text text-anchor="middle" x="3305" y="-78.5" font-family="Helvetica,sans-Serif" font-size="10.00">include/d/d_camera.h</text>
</a>
</g>
</g>
<!-- Node38&#45;&gt;Node39 -->
<g id="edge41" class="edge">
<title>Node38&#45;&gt;Node39</title>
<path fill="none" stroke="#63b8ff" d="M3351.98,-128.98C3339.7,-116.7 3323.63,-100.63 3313.82,-90.82"/>
<polygon fill="#63b8ff" stroke="#63b8ff" points="3349.48,-131.43 3359.03,-136.03 3354.43,-126.48 3349.48,-131.43"/>
</g>
<!-- Node215 -->
<g id="node40" class="node">
<title>Node215</title>
<g id="a_node40"><a xlink:href="d__map__path__fmap_8h.html" target="_top" xlink:title=" ">
<polygon fill="#fff0f0" stroke="red" points="3488,-96 3378,-96 3378,-66 3488,-66 3488,-96"/>
<text text-anchor="start" x="3386" y="-84" font-family="Helvetica,sans-Serif" font-size="10.00">include/d/map/d_map</text>
<text text-anchor="middle" x="3433" y="-73" font-family="Helvetica,sans-Serif" font-size="10.00">_path_fmap.h</text>
</a>
</g>
</g>
<!-- Node38&#45;&gt;Node215 -->
<g id="edge43" class="edge">
<title>Node38&#45;&gt;Node215</title>
<path fill="none" stroke="#63b8ff" d="M3385.75,-129.25C3396.01,-118.99 3409,-106 3418.77,-96.23"/>
<polygon fill="#63b8ff" stroke="#63b8ff" points="3383.57,-126.48 3378.97,-136.03 3388.52,-131.43 3383.57,-126.48"/>
</g>
<!-- Node176 -->
<g id="node41" class="node">
<title>Node176</title>
<g id="a_node41"><a xlink:href="d__stage_8cpp.html" target="_top" xlink:title=" ">
<polygon fill="white" stroke="#666666" points="3643,-24.5 3549,-24.5 3549,-5.5 3643,-5.5 3643,-24.5"/>
<text text-anchor="middle" x="3596" y="-12.5" font-family="Helvetica,sans-Serif" font-size="10.00">src/d/d_stage.cpp</text>
</a>
</g>
</g>
<!-- Node38&#45;&gt;Node176 -->
<g id="edge45" class="edge">
<title>Node38&#45;&gt;Node176</title>
<path fill="none" stroke="#63b8ff" d="M3410.34,-133.47C3436.16,-124.77 3469.59,-111.91 3497,-96 3501.83,-93.2 3560.68,-45.01 3585.29,-24.8"/>
<polygon fill="#63b8ff" stroke="#63b8ff" points="3409.27,-130.13 3400.86,-136.58 3411.45,-136.79 3409.27,-130.13"/>
</g>
<!-- Node216 -->
<g id="node42" class="node">
<title>Node216</title>
<g id="a_node42"><a xlink:href="d__kankyo__data_8cpp.html" target="_top" xlink:title=" ">
<polygon fill="white" stroke="#666666" points="3660,-96 3544,-96 3544,-66 3660,-66 3660,-96"/>
<text text-anchor="start" x="3552" y="-84" font-family="Helvetica,sans-Serif" font-size="10.00">src/d/kankyo/d_kankyo</text>
<text text-anchor="middle" x="3602" y="-73" font-family="Helvetica,sans-Serif" font-size="10.00">_data.cpp</text>
</a>
</g>
</g>
<!-- Node38&#45;&gt;Node216 -->
<g id="edge46" class="edge">
<title>Node38&#45;&gt;Node216</title>
<path fill="none" stroke="#63b8ff" d="M3412.31,-134.1C3451.04,-123.46 3507.92,-107.84 3549.29,-96.48"/>
<polygon fill="#63b8ff" stroke="#63b8ff" points="3411.57,-130.68 3402.86,-136.7 3413.43,-137.43 3411.57,-130.68"/>
</g>
<!-- Node39&#45;&gt;Node24 -->
<g id="edge42" class="edge">
<title>Node39&#45;&gt;Node24</title>
<path fill="none" stroke="#63b8ff" d="M3339.8,-67.27C3374.05,-54.75 3425.47,-35.94 3455.59,-24.93"/>
<polygon fill="#63b8ff" stroke="#63b8ff" points="3338.94,-63.86 3330.75,-70.58 3341.35,-70.43 3338.94,-63.86"/>
</g>
<!-- Node215&#45;&gt;Node176 -->
<g id="edge44" class="edge">
<title>Node215&#45;&gt;Node176</title>
<path fill="none" stroke="#63b8ff" d="M3480.02,-61.54C3510.58,-49.54 3549.07,-34.43 3573.11,-24.99"/>
<polygon fill="#63b8ff" stroke="#63b8ff" points="3479.02,-58.17 3470.99,-65.08 3481.58,-64.69 3479.02,-58.17"/>
</g>
<!-- Node189 -->
<g id="node44" class="node">
<title>Node189</title>
<g id="a_node44"><a xlink:href="d__menu__collect_8cpp.html" target="_top" xlink:title=" ">
<polygon fill="white" stroke="#666666" points="3833.5,-90.5 3678.5,-90.5 3678.5,-71.5 3833.5,-71.5 3833.5,-90.5"/>
<text text-anchor="middle" x="3756" y="-78.5" font-family="Helvetica,sans-Serif" font-size="10.00">src/d/menu/d_menu_collect.cpp</text>
</a>
</g>
</g>
<!-- Node217&#45;&gt;Node189 -->
<g id="edge48" class="edge">
<title>Node217&#45;&gt;Node189</title>
<path fill="none" stroke="#63b8ff" d="M3567.11,-128.86C3616.3,-116.66 3680.41,-100.75 3719.87,-90.96"/>
<polygon fill="#63b8ff" stroke="#63b8ff" points="3566.55,-125.39 3557.69,-131.19 3568.24,-132.18 3566.55,-125.39"/>
</g>
<!-- Node75 -->
<g id="node45" class="node">
<title>Node75</title>
<g id="a_node45"><a xlink:href="d__menu__window_8cpp.html" target="_top" xlink:title=" ">
<polygon fill="white" stroke="#666666" points="4010.5,-90.5 3851.5,-90.5 3851.5,-71.5 4010.5,-71.5 4010.5,-90.5"/>
<text text-anchor="middle" x="3931" y="-78.5" font-family="Helvetica,sans-Serif" font-size="10.00">src/d/menu/d_menu_window.cpp</text>
</a>
</g>
</g>
<!-- Node217&#45;&gt;Node75 -->
<g id="edge49" class="edge">
<title>Node217&#45;&gt;Node75</title>
<path fill="none" stroke="#63b8ff" d="M3569.42,-131.67C3690.95,-111.79 3724.16,-113.2 3843,-96 3853.72,-94.45 3865.15,-92.7 3876.11,-90.98"/>
<polygon fill="#63b8ff" stroke="#63b8ff" points="3568.95,-128.2 3559.66,-133.29 3570.09,-135.11 3568.95,-128.2"/>
</g>
<!-- Node218&#45;&gt;Node19 -->
<g id="edge52" class="edge">
<title>Node218&#45;&gt;Node19</title>
<path fill="none" stroke="#63b8ff" d="M2894.84,-132.75C2782.57,-106.26 2533.05,-47.39 2437.88,-24.94"/>
<polygon fill="#63b8ff" stroke="#63b8ff" points="2893.9,-136.12 2904.44,-135.01 2895.51,-129.31 2893.9,-136.12"/>
</g>
<!-- Node218&#45;&gt;Node21 -->
<g id="edge51" class="edge">
<title>Node218&#45;&gt;Node21</title>
<path fill="none" stroke="#63b8ff" d="M2951,-120.59C2951,-110.06 2951,-98.53 2951,-90.84"/>
<polygon fill="#63b8ff" stroke="#63b8ff" points="2947.5,-120.28 2951,-130.28 2954.5,-120.28 2947.5,-120.28"/>
</g>
<!-- Node224&#45;&gt;Node28 -->
<g id="edge54" class="edge">
<title>Node224&#45;&gt;Node28</title>
<path fill="none" stroke="#63b8ff" d="M3205.99,-67.27C3241.42,-54.75 3294.6,-35.94 3325.76,-24.93"/>
<polygon fill="#63b8ff" stroke="#63b8ff" points="3204.86,-63.96 3196.59,-70.6 3207.19,-70.56 3204.86,-63.96"/>
</g>
</g>
</svg>
        <g id="navigator" transform="translate(0 0)" fill="#404254">
                <rect fill="#f2f5e9" fill-opacity="0.5" stroke="#606060" stroke-width=".5" x="0" y="0" width="60" height="60"/>
                <use id="zoomplus" xlink:href="#zoomPlus" x="17" y="9" onmousedown="handleZoom(evt,'in')"/>
                <use id="zoomminus" xlink:href="#zoomMin" x="42" y="9" onmousedown="handleZoom(evt,'out')"/>
                <use id="reset" xlink:href="#resetDef" x="30" y="36" onmousedown="handleReset()"/>
                <g id="arrowUp" xlink:href="#dirArrow" transform="translate(30 24)" onmousedown="handlePan(0,-1)">
                  <use xlink:href="#rim" fill="#404040">
                        <set attributeName="fill" to="#808080" begin="arrowUp.mouseover" end="arrowUp.mouseout"/>
                  </use>
                  <path fill="none" stroke="white" stroke-width="1.5" d="M0,-3.0v7 M-2.5,-0.5L0,-3.0L2.5,-0.5"/>
                </g>
                <g id="arrowRight" xlink:href="#dirArrow" transform="rotate(90) translate(36 -43)" onmousedown="handlePan(1,0)">
                  <use xlink:href="#rim" fill="#404040">
                        <set attributeName="fill" to="#808080" begin="arrowRight.mouseover" end="arrowRight.mouseout"/>
                  </use>
                  <path fill="none" stroke="white" stroke-width="1.5" d="M0,-3.0v7 M-2.5,-0.5L0,-3.0L2.5,-0.5"/>
                </g>
                <g id="arrowDown" xlink:href="#dirArrow" transform="rotate(180) translate(-30 -48)" onmousedown="handlePan(0,1)">
                  <use xlink:href="#rim" fill="#404040">
                        <set attributeName="fill" to="#808080" begin="arrowDown.mouseover" end="arrowDown.mouseout"/>
                  </use>
                  <path fill="none" stroke="white" stroke-width="1.5" d="M0,-3.0v7 M-2.5,-0.5L0,-3.0L2.5,-0.5"/>
                </g>
                <g id="arrowLeft" xlink:href="#dirArrow" transform="rotate(270) translate(-36 17)" onmousedown="handlePan(-1,0)">
                  <use xlink:href="#rim" fill="#404040">
                        <set attributeName="fill" to="#808080" begin="arrowLeft.mouseover" end="arrowLeft.mouseout"/>
                  </use>
                  <path fill="none" stroke="white" stroke-width="1.5" d="M0,-3.0v7 M-2.5,-0.5L0,-3.0L2.5,-0.5"/>
                </g>
        </g>
        <svg viewBox="0 0 15 15" width="100%" height="30px" preserveAspectRatio="xMaxYMin meet">
         <g id="arrow_out" transform="scale(0.3 0.3)">
          <a xlink:href="J3DStruct_8h__dep__incl_org.svg" target="_base">
           <rect id="button" ry="5" rx="5" y="6" x="6" height="38" width="38"
                fill="#f2f5e9" fill-opacity="0.5" stroke="#606060" stroke-width="1.0"/>
           <path id="arrow"
             d="M 11.500037,31.436501 C 11.940474,20.09759 22.043105,11.32322 32.158766,21.979434 L 37.068811,17.246167 C 37.068811,17.246167 37.088388,32 37.088388,32 L 22.160133,31.978069 C 22.160133,31.978069 26.997745,27.140456 26.997745,27.140456 C 18.528582,18.264221 13.291696,25.230495 11.500037,31.436501 z"
             style="fill:#404040;"/>
          </a>
         </g>
        </svg>
</svg>
