<?xml version="1.0" encoding="UTF-8" standalone="no"?>
<!DOCTYPE svg PUBLIC "-//W3C//DTD SVG 1.1//EN"
 "http://www.w3.org/Graphics/SVG/1.1/DTD/svg11.dtd">
<!-- Generated by graphviz version 7.0.5 (20221223.1930)
 -->
<!-- Title: include/JSystem/J3DGraphBase/J3DTransform.h Pages: 1 -->
<svg width="3320pt" height="698pt"
 viewBox="0.00 0.00 3320.13 698.00" xmlns="http://www.w3.org/2000/svg" xmlns:xlink="http://www.w3.org/1999/xlink">
<g id="graph0" class="graph" transform="scale(1 1) rotate(0) translate(4 694)">
<title>include/JSystem/J3DGraphBase/J3DTransform.h</title>
<!-- Node1 -->
<g id="node1" class="node">
<title>Node1</title>
<g id="a_node1"><a xlink:title=" ">
<polygon fill="#999999" stroke="#666666" points="2339.63,-690 2204.63,-690 2204.63,-660 2339.63,-660 2339.63,-690"/>
<text text-anchor="start" x="2212.63" y="-678" font-family="Helvetica,sans-Serif" font-size="10.00">include/JSystem/J3DGraph</text>
<text text-anchor="middle" x="2272.13" y="-667" font-family="Helvetica,sans-Serif" font-size="10.00">Base/J3DTransform.h</text>
</a>
</g>
</g>
<!-- Node2 -->
<g id="node2" class="node">
<title>Node2</title>
<g id="a_node2"><a xlink:href="J3DJoint_8h.html" target="_top" xlink:title=" ">
<polygon fill="white" stroke="#666666" points="2263.63,-624 2128.63,-624 2128.63,-594 2263.63,-594 2263.63,-624"/>
<text text-anchor="start" x="2136.63" y="-612" font-family="Helvetica,sans-Serif" font-size="10.00">include/JSystem/J3DGraph</text>
<text text-anchor="middle" x="2196.13" y="-601" font-family="Helvetica,sans-Serif" font-size="10.00">Animator/J3DJoint.h</text>
</a>
</g>
</g>
<!-- Node1&#45;&gt;Node2 -->
<g id="edge1" class="edge">
<title>Node1&#45;&gt;Node2</title>
<path fill="none" stroke="#63b8ff" d="M2246.51,-652.42C2235.54,-643.18 2223.02,-632.65 2213.21,-624.39"/>
<polygon fill="#63b8ff" stroke="#63b8ff" points="2244.2,-655.06 2254.11,-658.82 2248.71,-649.7 2244.2,-655.06"/>
</g>
<!-- Node395 -->
<g id="node34" class="node">
<title>Node395</title>
<g id="a_node34"><a xlink:href="J3DSkinDeform_8h.html" target="_top" xlink:title=" ">
<polygon fill="white" stroke="#666666" points="2053.63,-360 1918.63,-360 1918.63,-330 2053.63,-330 2053.63,-360"/>
<text text-anchor="start" x="1926.63" y="-348" font-family="Helvetica,sans-Serif" font-size="10.00">include/JSystem/J3DGraph</text>
<text text-anchor="middle" x="1986.13" y="-337" font-family="Helvetica,sans-Serif" font-size="10.00">Animator/J3DSkinDeform.h</text>
</a>
</g>
</g>
<!-- Node1&#45;&gt;Node395 -->
<g id="edge58" class="edge">
<title>Node1&#45;&gt;Node395</title>
<path fill="none" stroke="#63b8ff" d="M2192.94,-664.9C2121.69,-651.79 2028.13,-620.09 2028.13,-544 2028.13,-544 2028.13,-544 2028.13,-476 2028.13,-432.12 2006.2,-383.77 1994.03,-360.33"/>
<polygon fill="#63b8ff" stroke="#63b8ff" points="2192.22,-668.33 2202.67,-666.59 2193.42,-661.43 2192.22,-668.33"/>
</g>
<!-- Node406 -->
<g id="node49" class="node">
<title>Node406</title>
<g id="a_node49"><a xlink:href="J3DJointFactory_8h.html" target="_top" xlink:title=" ">
<polygon fill="white" stroke="#666666" points="2416.63,-624 2281.63,-624 2281.63,-594 2416.63,-594 2416.63,-624"/>
<text text-anchor="start" x="2289.63" y="-612" font-family="Helvetica,sans-Serif" font-size="10.00">include/JSystem/J3DGraph</text>
<text text-anchor="middle" x="2349.13" y="-601" font-family="Helvetica,sans-Serif" font-size="10.00">Loader/J3DJointFactory.h</text>
</a>
</g>
</g>
<!-- Node1&#45;&gt;Node406 -->
<g id="edge59" class="edge">
<title>Node1&#45;&gt;Node406</title>
<path fill="none" stroke="#63b8ff" d="M2297.76,-652.7C2308.95,-643.4 2321.78,-632.73 2331.82,-624.39"/>
<polygon fill="#63b8ff" stroke="#63b8ff" points="2295.84,-649.75 2290.38,-658.83 2300.31,-655.13 2295.84,-649.75"/>
</g>
<!-- Node407 -->
<g id="node50" class="node">
<title>Node407</title>
<g id="a_node50"><a xlink:href="J3DTransform_8cpp.html" target="_top" xlink:title=" ">
<polygon fill="white" stroke="#666666" points="2577.13,-624 2435.13,-624 2435.13,-594 2577.13,-594 2577.13,-624"/>
<text text-anchor="start" x="2443.13" y="-612" font-family="Helvetica,sans-Serif" font-size="10.00">libs/JSystem/J3DGraphBase</text>
<text text-anchor="middle" x="2506.13" y="-601" font-family="Helvetica,sans-Serif" font-size="10.00">/J3DTransform.cpp</text>
</a>
</g>
</g>
<!-- Node1&#45;&gt;Node407 -->
<g id="edge61" class="edge">
<title>Node1&#45;&gt;Node407</title>
<path fill="none" stroke="#63b8ff" d="M2335.59,-656.64C2372.55,-646.53 2418.59,-633.94 2453.52,-624.39"/>
<polygon fill="#63b8ff" stroke="#63b8ff" points="2335.12,-653.14 2326.4,-659.16 2336.96,-659.9 2335.12,-653.14"/>
</g>
<!-- Node3 -->
<g id="node3" class="node">
<title>Node3</title>
<g id="a_node3"><a xlink:href="J3DJointTree_8h.html" target="_top" xlink:title=" ">
<polygon fill="white" stroke="#666666" points="2263.63,-558 2128.63,-558 2128.63,-528 2263.63,-528 2263.63,-558"/>
<text text-anchor="start" x="2136.63" y="-546" font-family="Helvetica,sans-Serif" font-size="10.00">include/JSystem/J3DGraph</text>
<text text-anchor="middle" x="2196.13" y="-535" font-family="Helvetica,sans-Serif" font-size="10.00">Animator/J3DJointTree.h</text>
</a>
</g>
</g>
<!-- Node2&#45;&gt;Node3 -->
<g id="edge2" class="edge">
<title>Node2&#45;&gt;Node3</title>
<path fill="none" stroke="#63b8ff" d="M2196.13,-582.39C2196.13,-574.13 2196.13,-565.28 2196.13,-558.16"/>
<polygon fill="#63b8ff" stroke="#63b8ff" points="2192.63,-582.28 2196.13,-592.28 2199.63,-582.28 2192.63,-582.28"/>
</g>
<!-- Node75 -->
<g id="node10" class="node">
<title>Node75</title>
<g id="a_node10"><a xlink:href="J3DJoint_8cpp.html" target="_top" xlink:title=" ">
<polygon fill="white" stroke="#666666" points="2201.13,-228 2043.13,-228 2043.13,-198 2201.13,-198 2201.13,-228"/>
<text text-anchor="start" x="2051.13" y="-216" font-family="Helvetica,sans-Serif" font-size="10.00">libs/JSystem/J3DGraphAnimator</text>
<text text-anchor="middle" x="2122.13" y="-205" font-family="Helvetica,sans-Serif" font-size="10.00">/J3DJoint.cpp</text>
</a>
</g>
</g>
<!-- Node2&#45;&gt;Node75 -->
<g id="edge56" class="edge">
<title>Node2&#45;&gt;Node75</title>
<path fill="none" stroke="#63b8ff" d="M2154.1,-588.08C2141.33,-580.26 2128.27,-570.2 2119.13,-558 2096.87,-528.3 2095.13,-515.12 2095.13,-478 2095.13,-478 2095.13,-478 2095.13,-344 2095.13,-301.12 2109.38,-251.93 2117.18,-228.23"/>
<polygon fill="#63b8ff" stroke="#63b8ff" points="2152.01,-590.92 2162.43,-592.86 2155.5,-584.85 2152.01,-590.92"/>
</g>
<!-- Node405 -->
<g id="node48" class="node">
<title>Node405</title>
<g id="a_node48"><a xlink:href="J3DJointFactory_8cpp.html" target="_top" xlink:title=" ">
<polygon fill="white" stroke="#666666" points="2430.63,-558 2281.63,-558 2281.63,-528 2430.63,-528 2430.63,-558"/>
<text text-anchor="start" x="2289.63" y="-546" font-family="Helvetica,sans-Serif" font-size="10.00">libs/JSystem/J3DGraphLoader</text>
<text text-anchor="middle" x="2356.13" y="-535" font-family="Helvetica,sans-Serif" font-size="10.00">/J3DJointFactory.cpp</text>
</a>
</g>
</g>
<!-- Node2&#45;&gt;Node405 -->
<g id="edge57" class="edge">
<title>Node2&#45;&gt;Node405</title>
<path fill="none" stroke="#63b8ff" d="M2242.61,-589.41C2267.29,-579.54 2297.16,-567.59 2320.07,-558.43"/>
<polygon fill="#63b8ff" stroke="#63b8ff" points="2241.43,-586.11 2233.44,-593.08 2244.03,-592.61 2241.43,-586.11"/>
</g>
<!-- Node4 -->
<g id="node4" class="node">
<title>Node4</title>
<g id="a_node4"><a xlink:href="J3DModelData_8h.html" target="_top" xlink:title=" ">
<polygon fill="white" stroke="#666666" points="2263.63,-492 2128.63,-492 2128.63,-462 2263.63,-462 2263.63,-492"/>
<text text-anchor="start" x="2136.63" y="-480" font-family="Helvetica,sans-Serif" font-size="10.00">include/JSystem/J3DGraph</text>
<text text-anchor="middle" x="2196.13" y="-469" font-family="Helvetica,sans-Serif" font-size="10.00">Animator/J3DModelData.h</text>
</a>
</g>
</g>
<!-- Node3&#45;&gt;Node4 -->
<g id="edge3" class="edge">
<title>Node3&#45;&gt;Node4</title>
<path fill="none" stroke="#63b8ff" d="M2196.13,-516.39C2196.13,-508.13 2196.13,-499.28 2196.13,-492.16"/>
<polygon fill="#63b8ff" stroke="#63b8ff" points="2192.63,-516.28 2196.13,-526.28 2199.63,-516.28 2192.63,-516.28"/>
</g>
<!-- Node403 -->
<g id="node46" class="node">
<title>Node403</title>
<g id="a_node46"><a xlink:href="J3DJointTree_8cpp.html" target="_top" xlink:title=" ">
<polygon fill="white" stroke="#666666" points="2440.13,-492 2282.13,-492 2282.13,-462 2440.13,-462 2440.13,-492"/>
<text text-anchor="start" x="2290.13" y="-480" font-family="Helvetica,sans-Serif" font-size="10.00">libs/JSystem/J3DGraphAnimator</text>
<text text-anchor="middle" x="2361.13" y="-469" font-family="Helvetica,sans-Serif" font-size="10.00">/J3DJointTree.cpp</text>
</a>
</g>
</g>
<!-- Node3&#45;&gt;Node403 -->
<g id="edge54" class="edge">
<title>Node3&#45;&gt;Node403</title>
<path fill="none" stroke="#63b8ff" d="M2243.72,-523.54C2269.24,-513.64 2300.21,-501.63 2323.94,-492.43"/>
<polygon fill="#63b8ff" stroke="#63b8ff" points="2242.63,-520.21 2234.57,-527.09 2245.16,-526.74 2242.63,-520.21"/>
</g>
<!-- Node404 -->
<g id="node47" class="node">
<title>Node404</title>
<g id="a_node47"><a xlink:href="J3DVertex_8cpp.html" target="_top" xlink:title=" ">
<polygon fill="white" stroke="#666666" points="2600.13,-492 2458.13,-492 2458.13,-462 2600.13,-462 2600.13,-492"/>
<text text-anchor="start" x="2466.13" y="-480" font-family="Helvetica,sans-Serif" font-size="10.00">libs/JSystem/J3DGraphBase</text>
<text text-anchor="middle" x="2529.13" y="-469" font-family="Helvetica,sans-Serif" font-size="10.00">/J3DVertex.cpp</text>
</a>
</g>
</g>
<!-- Node3&#45;&gt;Node404 -->
<g id="edge55" class="edge">
<title>Node3&#45;&gt;Node404</title>
<path fill="none" stroke="#63b8ff" d="M2275.1,-526.82C2330.52,-516.17 2404.02,-502.04 2457.7,-491.73"/>
<polygon fill="#63b8ff" stroke="#63b8ff" points="2274.56,-523.36 2265.41,-528.69 2275.89,-530.24 2274.56,-523.36"/>
</g>
<!-- Node5 -->
<g id="node5" class="node">
<title>Node5</title>
<g id="a_node5"><a xlink:href="J3DAnimation_8h.html" target="_top" xlink:title=" ">
<polygon fill="white" stroke="#666666" points="2434.63,-360 2299.63,-360 2299.63,-330 2434.63,-330 2434.63,-360"/>
<text text-anchor="start" x="2307.63" y="-348" font-family="Helvetica,sans-Serif" font-size="10.00">include/JSystem/J3DGraph</text>
<text text-anchor="middle" x="2367.13" y="-337" font-family="Helvetica,sans-Serif" font-size="10.00">Animator/J3DAnimation.h</text>
</a>
</g>
</g>
<!-- Node4&#45;&gt;Node5 -->
<g id="edge4" class="edge">
<title>Node4&#45;&gt;Node5</title>
<path fill="none" stroke="#63b8ff" d="M2229.02,-455.57C2242.61,-446.81 2258.38,-436.26 2272.13,-426 2300.99,-404.47 2332.63,-376.99 2351.13,-360.48"/>
<polygon fill="#63b8ff" stroke="#63b8ff" points="2227.39,-452.45 2220.84,-460.78 2231.15,-458.36 2227.39,-452.45"/>
</g>
<!-- Node79 -->
<g id="node12" class="node">
<title>Node79</title>
<g id="a_node12"><a xlink:href="J3DModelData_8cpp.html" target="_top" xlink:title=" ">
<polygon fill="white" stroke="#666666" points="3312.13,-228 3154.13,-228 3154.13,-198 3312.13,-198 3312.13,-228"/>
<text text-anchor="start" x="3162.13" y="-216" font-family="Helvetica,sans-Serif" font-size="10.00">libs/JSystem/J3DGraphAnimator</text>
<text text-anchor="middle" x="3233.13" y="-205" font-family="Helvetica,sans-Serif" font-size="10.00">/J3DModelData.cpp</text>
</a>
</g>
</g>
<!-- Node4&#45;&gt;Node79 -->
<g id="edge53" class="edge">
<title>Node4&#45;&gt;Node79</title>
<path fill="none" stroke="#63b8ff" d="M2264.41,-458.75C2456.28,-410.27 2997.91,-273.43 3175.76,-228.5"/>
<polygon fill="#63b8ff" stroke="#63b8ff" points="2263.67,-455.33 2254.83,-461.17 2265.38,-462.11 2263.67,-455.33"/>
</g>
<!-- Node394 -->
<g id="node33" class="node">
<title>Node394</title>
<g id="a_node33"><a xlink:href="J3DMtxBuffer_8h.html" target="_top" xlink:title=" ">
<polygon fill="white" stroke="#666666" points="2263.63,-426 2128.63,-426 2128.63,-396 2263.63,-396 2263.63,-426"/>
<text text-anchor="start" x="2136.63" y="-414" font-family="Helvetica,sans-Serif" font-size="10.00">include/JSystem/J3DGraph</text>
<text text-anchor="middle" x="2196.13" y="-403" font-family="Helvetica,sans-Serif" font-size="10.00">Animator/J3DMtxBuffer.h</text>
</a>
</g>
</g>
<!-- Node4&#45;&gt;Node394 -->
<g id="edge34" class="edge">
<title>Node4&#45;&gt;Node394</title>
<path fill="none" stroke="#63b8ff" d="M2196.13,-450.39C2196.13,-442.13 2196.13,-433.28 2196.13,-426.16"/>
<polygon fill="#63b8ff" stroke="#63b8ff" points="2192.63,-450.28 2196.13,-460.28 2199.63,-450.28 2192.63,-450.28"/>
</g>
<!-- Node6 -->
<g id="node6" class="node">
<title>Node6</title>
<g id="a_node6"><a xlink:href="J2DAnimation_8h.html" target="_top" xlink:title=" ">
<polygon fill="#fff0f0" stroke="red" points="2567.63,-294 2432.63,-294 2432.63,-264 2567.63,-264 2567.63,-294"/>
<text text-anchor="start" x="2440.63" y="-282" font-family="Helvetica,sans-Serif" font-size="10.00">include/JSystem/J2DGraph</text>
<text text-anchor="middle" x="2500.13" y="-271" font-family="Helvetica,sans-Serif" font-size="10.00">/J2DAnimation.h</text>
</a>
</g>
</g>
<!-- Node5&#45;&gt;Node6 -->
<g id="edge5" class="edge">
<title>Node5&#45;&gt;Node6</title>
<path fill="none" stroke="#63b8ff" d="M2407.19,-324.72C2427.5,-314.95 2451.75,-303.28 2470.38,-294.31"/>
<polygon fill="#63b8ff" stroke="#63b8ff" points="2405.83,-321.49 2398.34,-328.98 2408.87,-327.8 2405.83,-321.49"/>
</g>
<!-- Node62 -->
<g id="node7" class="node">
<title>Node62</title>
<g id="a_node7"><a xlink:href="J3DMaterialAnm_8h.html" target="_top" xlink:title=" ">
<polygon fill="#fff0f0" stroke="red" points="2777.13,-294 2639.13,-294 2639.13,-264 2777.13,-264 2777.13,-294"/>
<text text-anchor="start" x="2647.13" y="-282" font-family="Helvetica,sans-Serif" font-size="10.00">include/JSystem/J3DGraph</text>
<text text-anchor="middle" x="2708.13" y="-271" font-family="Helvetica,sans-Serif" font-size="10.00">Animator/J3DMaterialAnm.h</text>
</a>
</g>
</g>
<!-- Node5&#45;&gt;Node62 -->
<g id="edge6" class="edge">
<title>Node5&#45;&gt;Node62</title>
<path fill="none" stroke="#63b8ff" d="M2445.91,-329.21C2504.18,-318.28 2582.81,-303.52 2638.73,-293.03"/>
<polygon fill="#63b8ff" stroke="#63b8ff" points="2445.58,-325.72 2436.4,-331 2446.87,-332.6 2445.58,-325.72"/>
</g>
<!-- Node82 -->
<g id="node14" class="node">
<title>Node82</title>
<g id="a_node14"><a xlink:href="m__Do__ext_8h.html" target="_top" xlink:title=" ">
<polygon fill="white" stroke="#666666" points="2025.13,-222.5 1895.13,-222.5 1895.13,-203.5 2025.13,-203.5 2025.13,-222.5"/>
<text text-anchor="middle" x="1960.13" y="-210.5" font-family="Helvetica,sans-Serif" font-size="10.00">include/m_Do/m_Do_ext.h</text>
</a>
</g>
</g>
<!-- Node5&#45;&gt;Node82 -->
<g id="edge13" class="edge">
<title>Node5&#45;&gt;Node82</title>
<path fill="none" stroke="#63b8ff" d="M2311.15,-326.12C2222.89,-297.93 2054.63,-244.18 1988.15,-222.95"/>
<polygon fill="#63b8ff" stroke="#63b8ff" points="2309.99,-329.42 2320.58,-329.13 2312.12,-322.75 2309.99,-329.42"/>
</g>
<!-- Node393 -->
<g id="node32" class="node">
<title>Node393</title>
<g id="a_node32"><a xlink:href="J3DAnimation_8cpp.html" target="_top" xlink:title=" ">
<polygon fill="white" stroke="#666666" points="2414.13,-294 2256.13,-294 2256.13,-264 2414.13,-264 2414.13,-294"/>
<text text-anchor="start" x="2264.13" y="-282" font-family="Helvetica,sans-Serif" font-size="10.00">libs/JSystem/J3DGraphAnimator</text>
<text text-anchor="middle" x="2335.13" y="-271" font-family="Helvetica,sans-Serif" font-size="10.00">/J3DAnimation.cpp</text>
</a>
</g>
</g>
<!-- Node5&#45;&gt;Node393 -->
<g id="edge33" class="edge">
<title>Node5&#45;&gt;Node393</title>
<path fill="none" stroke="#63b8ff" d="M2354.9,-319.54C2350.61,-310.96 2345.94,-301.61 2342.21,-294.16"/>
<polygon fill="#63b8ff" stroke="#63b8ff" points="2351.75,-321.06 2359.35,-328.44 2358.01,-317.93 2351.75,-321.06"/>
</g>
<!-- Node63 -->
<g id="node8" class="node">
<title>Node63</title>
<g id="a_node8"><a xlink:href="d__a__alink_8h.html" target="_top" xlink:title=" ">
<polygon fill="#fff0f0" stroke="red" points="646.13,-85 530.13,-85 530.13,-66 646.13,-66 646.13,-85"/>
<text text-anchor="middle" x="588.13" y="-73" font-family="Helvetica,sans-Serif" font-size="10.00">include/d/a/d_a_alink.h</text>
</a>
</g>
</g>
<!-- Node62&#45;&gt;Node63 -->
<g id="edge7" class="edge">
<title>Node62&#45;&gt;Node63</title>
<path fill="none" stroke="#63b8ff" d="M2788.87,-272.62C2932.29,-260.36 3207.39,-223.04 3107.13,-121 3062.57,-75.65 1020.1,-75.97 646.49,-76.41"/>
<polygon fill="#63b8ff" stroke="#63b8ff" points="2788.71,-269.12 2779.03,-273.43 2789.28,-276.1 2788.71,-269.12"/>
</g>
<!-- Node62&#45;&gt;Node75 -->
<g id="edge9" class="edge">
<title>Node62&#45;&gt;Node75</title>
<path fill="none" stroke="#63b8ff" d="M2627.66,-269.21C2515.41,-256.95 2313.08,-234.85 2201.45,-222.66"/>
<polygon fill="#63b8ff" stroke="#63b8ff" points="2627.07,-272.67 2637.39,-270.27 2627.83,-265.71 2627.07,-272.67"/>
</g>
<!-- Node78 -->
<g id="node11" class="node">
<title>Node78</title>
<g id="a_node11"><a xlink:href="J3DModel_8cpp.html" target="_top" xlink:title=" ">
<polygon fill="white" stroke="#666666" points="2582.13,-228 2424.13,-228 2424.13,-198 2582.13,-198 2582.13,-228"/>
<text text-anchor="start" x="2432.13" y="-216" font-family="Helvetica,sans-Serif" font-size="10.00">libs/JSystem/J3DGraphAnimator</text>
<text text-anchor="middle" x="2503.13" y="-205" font-family="Helvetica,sans-Serif" font-size="10.00">/J3DModel.cpp</text>
</a>
</g>
</g>
<!-- Node62&#45;&gt;Node78 -->
<g id="edge10" class="edge">
<title>Node62&#45;&gt;Node78</title>
<path fill="none" stroke="#63b8ff" d="M2651.28,-260.25C2619.12,-250.21 2579.43,-237.82 2549.22,-228.39"/>
<polygon fill="#63b8ff" stroke="#63b8ff" points="2649.83,-263.47 2660.42,-263.11 2651.92,-256.79 2649.83,-263.47"/>
</g>
<!-- Node62&#45;&gt;Node79 -->
<g id="edge11" class="edge">
<title>Node62&#45;&gt;Node79</title>
<path fill="none" stroke="#63b8ff" d="M2788.79,-269.5C2875.64,-260.15 3017.83,-244.28 3140.13,-228 3144.58,-227.41 3149.15,-226.78 3153.76,-226.13"/>
<polygon fill="#63b8ff" stroke="#63b8ff" points="2788.5,-266.01 2778.93,-270.56 2789.25,-272.97 2788.5,-266.01"/>
</g>
<!-- Node81 -->
<g id="node13" class="node">
<title>Node81</title>
<g id="a_node13"><a xlink:href="m__Do__ext_8cpp.html" target="_top" xlink:title=" ">
<polygon fill="white" stroke="#666666" points="3097.63,-151 2974.63,-151 2974.63,-132 3097.63,-132 3097.63,-151"/>
<text text-anchor="middle" x="3036.13" y="-139" font-family="Helvetica,sans-Serif" font-size="10.00">src/m_Do/m_Do_ext.cpp</text>
</a>
</g>
</g>
<!-- Node62&#45;&gt;Node81 -->
<g id="edge12" class="edge">
<title>Node62&#45;&gt;Node81</title>
<path fill="none" stroke="#63b8ff" d="M2753.43,-259.29C2825.13,-229.67 2962.02,-173.12 3014.72,-151.35"/>
<polygon fill="#63b8ff" stroke="#63b8ff" points="2752.23,-256 2744.32,-263.05 2754.9,-262.47 2752.23,-256"/>
</g>
<!-- Node65 -->
<g id="node9" class="node">
<title>Node65</title>
<g id="a_node9"><a xlink:href="d__com__inf__game_8cpp.html" target="_top" xlink:title=" ">
<polygon fill="white" stroke="#666666" points="321.13,-30 213.13,-30 213.13,0 321.13,0 321.13,-30"/>
<text text-anchor="start" x="221.13" y="-18" font-family="Helvetica,sans-Serif" font-size="10.00">src/d/com/d_com_inf</text>
<text text-anchor="middle" x="267.13" y="-7" font-family="Helvetica,sans-Serif" font-size="10.00">_game.cpp</text>
</a>
</g>
</g>
<!-- Node63&#45;&gt;Node65 -->
<g id="edge8" class="edge">
<title>Node63&#45;&gt;Node65</title>
<path fill="none" stroke="#63b8ff" d="M527.96,-63.53C468.66,-52.73 378.84,-36.36 321.6,-25.93"/>
<polygon fill="#63b8ff" stroke="#63b8ff" points="527.07,-66.93 537.54,-65.28 528.33,-60.04 527.07,-66.93"/>
</g>
<!-- Node82&#45;&gt;Node81 -->
<g id="edge29" class="edge">
<title>Node82&#45;&gt;Node81</title>
<path fill="none" stroke="#63b8ff" d="M2012.61,-201.08C2019.82,-199.87 2027.14,-198.79 2034.13,-198 2445.58,-151.38 2555.9,-225.25 2965.13,-162 2979.91,-159.72 2996.01,-155.45 3009.14,-151.48"/>
<polygon fill="#63b8ff" stroke="#63b8ff" points="2012.17,-197.6 2002.94,-202.8 2013.4,-204.49 2012.17,-197.6"/>
</g>
<!-- Node83 -->
<g id="node15" class="node">
<title>Node83</title>
<g id="a_node15"><a xlink:href="d__attention_8h.html" target="_top" xlink:title=" ">
<polygon fill="#fff0f0" stroke="red" points="688.13,-151 574.13,-151 574.13,-132 688.13,-132 688.13,-151"/>
<text text-anchor="middle" x="631.13" y="-139" font-family="Helvetica,sans-Serif" font-size="10.00">include/d/d_attention.h</text>
</a>
</g>
</g>
<!-- Node82&#45;&gt;Node83 -->
<g id="edge14" class="edge">
<title>Node82&#45;&gt;Node83</title>
<path fill="none" stroke="#63b8ff" d="M1907.92,-201.07C1900.63,-199.85 1893.21,-198.77 1886.13,-198 1360.56,-140.68 1219.17,-245.59 697.13,-162 683.21,-159.77 668.1,-155.45 655.85,-151.45"/>
<polygon fill="#63b8ff" stroke="#63b8ff" points="1907.25,-204.5 1917.71,-202.81 1908.48,-197.61 1907.25,-204.5"/>
</g>
<!-- Node236 -->
<g id="node16" class="node">
<title>Node236</title>
<g id="a_node16"><a xlink:href="d__drawlist_8h.html" target="_top" xlink:title=" ">
<polygon fill="#fff0f0" stroke="red" points="2570.13,-151 2460.13,-151 2460.13,-132 2570.13,-132 2570.13,-151"/>
<text text-anchor="middle" x="2515.13" y="-139" font-family="Helvetica,sans-Serif" font-size="10.00">include/d/d_drawlist.h</text>
</a>
</g>
</g>
<!-- Node82&#45;&gt;Node236 -->
<g id="edge16" class="edge">
<title>Node82&#45;&gt;Node236</title>
<path fill="none" stroke="#63b8ff" d="M2014.45,-201.08C2021.07,-199.94 2027.74,-198.88 2034.13,-198 2218.42,-172.68 2268.49,-197.3 2451.13,-162 2464.24,-159.47 2478.49,-155.27 2490.21,-151.42"/>
<polygon fill="#63b8ff" stroke="#63b8ff" points="2014.16,-197.57 2004.93,-202.78 2015.39,-204.46 2014.16,-197.57"/>
</g>
<!-- Node272 -->
<g id="node17" class="node">
<title>Node272</title>
<g id="a_node17"><a xlink:href="d__ky__thunder_8h.html" target="_top" xlink:title=" ">
<polygon fill="#fff0f0" stroke="red" points="2712.13,-151 2588.13,-151 2588.13,-132 2712.13,-132 2712.13,-151"/>
<text text-anchor="middle" x="2650.13" y="-139" font-family="Helvetica,sans-Serif" font-size="10.00">include/d/d_ky_thunder.h</text>
</a>
</g>
</g>
<!-- Node82&#45;&gt;Node272 -->
<g id="edge17" class="edge">
<title>Node82&#45;&gt;Node272</title>
<path fill="none" stroke="#63b8ff" d="M2013.92,-201.04C2020.7,-199.89 2027.57,-198.83 2034.13,-198 2274.94,-167.38 2339.76,-202.35 2579.13,-162 2593.75,-159.54 2609.7,-155.3 2622.77,-151.41"/>
<polygon fill="#63b8ff" stroke="#63b8ff" points="2013.36,-197.58 2004.13,-202.78 2014.59,-204.47 2013.36,-197.58"/>
</g>
<!-- Node273 -->
<g id="node18" class="node">
<title>Node273</title>
<g id="a_node18"><a xlink:href="d__resorce_8h.html" target="_top" xlink:title=" ">
<polygon fill="#fff0f0" stroke="red" points="2839.63,-151 2730.63,-151 2730.63,-132 2839.63,-132 2839.63,-151"/>
<text text-anchor="middle" x="2785.13" y="-139" font-family="Helvetica,sans-Serif" font-size="10.00">include/d/d_resorce.h</text>
</a>
</g>
</g>
<!-- Node82&#45;&gt;Node273 -->
<g id="edge18" class="edge">
<title>Node82&#45;&gt;Node273</title>
<path fill="none" stroke="#63b8ff" d="M2013.4,-201.04C2020.35,-199.87 2027.4,-198.81 2034.13,-198 2337.7,-161.5 2420,-214.95 2721.13,-162 2734.51,-159.65 2749.03,-155.37 2760.85,-151.42"/>
<polygon fill="#63b8ff" stroke="#63b8ff" points="2012.97,-197.56 2003.73,-202.75 2014.19,-204.45 2012.97,-197.56"/>
</g>
<!-- Node274 -->
<g id="node19" class="node">
<title>Node274</title>
<g id="a_node19"><a xlink:href="d__kankyo_8h.html" target="_top" xlink:title=" ">
<polygon fill="#fff0f0" stroke="red" points="2956.13,-156.5 2858.13,-156.5 2858.13,-126.5 2956.13,-126.5 2956.13,-156.5"/>
<text text-anchor="start" x="2866.13" y="-144.5" font-family="Helvetica,sans-Serif" font-size="10.00">include/d/kankyo/d</text>
<text text-anchor="middle" x="2907.13" y="-133.5" font-family="Helvetica,sans-Serif" font-size="10.00">_kankyo.h</text>
</a>
</g>
</g>
<!-- Node82&#45;&gt;Node274 -->
<g id="edge19" class="edge">
<title>Node82&#45;&gt;Node274</title>
<path fill="none" stroke="#63b8ff" d="M2013.13,-201.03C2020.17,-199.85 2027.31,-198.79 2034.13,-198 2394.29,-156.19 2492.69,-228.42 2849.13,-162 2855.71,-160.77 2862.56,-158.97 2869.16,-156.95"/>
<polygon fill="#63b8ff" stroke="#63b8ff" points="2012.57,-197.57 2003.33,-202.77 2013.79,-204.46 2012.57,-197.57"/>
</g>
<!-- Node240 -->
<g id="node20" class="node">
<title>Node240</title>
<g id="a_node20"><a xlink:href="d__a__do_8h.html" target="_top" xlink:title=" ">
<polygon fill="white" stroke="#666666" points="802.13,-156.5 706.13,-156.5 706.13,-126.5 802.13,-126.5 802.13,-156.5"/>
<text text-anchor="start" x="714.13" y="-144.5" font-family="Helvetica,sans-Serif" font-size="10.00">include/rel/d/a/d_a</text>
<text text-anchor="middle" x="754.13" y="-133.5" font-family="Helvetica,sans-Serif" font-size="10.00">_do/d_a_do.h</text>
</a>
</g>
</g>
<!-- Node82&#45;&gt;Node240 -->
<g id="edge20" class="edge">
<title>Node82&#45;&gt;Node240</title>
<path fill="none" stroke="#63b8ff" d="M1907.65,-201.04C1900.45,-199.84 1893.12,-198.77 1886.13,-198 1648.56,-171.71 1046.22,-205.16 811.13,-162 804.55,-160.79 797.69,-158.97 791.11,-156.91"/>
<polygon fill="#63b8ff" stroke="#63b8ff" points="1906.86,-204.46 1917.32,-202.76 1908.09,-197.57 1906.86,-204.46"/>
</g>
<!-- Node386 -->
<g id="node21" class="node">
<title>Node386</title>
<g id="a_node21"><a xlink:href="DynamicLink_8cpp.html" target="_top" xlink:title=" ">
<polygon fill="white" stroke="#666666" points="927.63,-151 820.63,-151 820.63,-132 927.63,-132 927.63,-151"/>
<text text-anchor="middle" x="874.13" y="-139" font-family="Helvetica,sans-Serif" font-size="10.00">src/DynamicLink.cpp</text>
</a>
</g>
</g>
<!-- Node82&#45;&gt;Node386 -->
<g id="edge21" class="edge">
<title>Node82&#45;&gt;Node386</title>
<path fill="none" stroke="#63b8ff" d="M1907.65,-201.07C1900.44,-199.87 1893.12,-198.79 1886.13,-198 1466.27,-150.6 1352.47,-234.02 936.13,-162 923.01,-159.73 908.81,-155.41 897.32,-151.41"/>
<polygon fill="#63b8ff" stroke="#63b8ff" points="1906.86,-204.49 1917.32,-202.79 1908.09,-197.6 1906.86,-204.49"/>
</g>
<!-- Node187 -->
<g id="node22" class="node">
<title>Node187</title>
<g id="a_node22"><a xlink:href="c__dylink_8cpp.html" target="_top" xlink:title=" ">
<polygon fill="white" stroke="#666666" points="1040.63,-151 945.63,-151 945.63,-132 1040.63,-132 1040.63,-151"/>
<text text-anchor="middle" x="993.13" y="-139" font-family="Helvetica,sans-Serif" font-size="10.00">src/c/c_dylink.cpp</text>
</a>
</g>
</g>
<!-- Node82&#45;&gt;Node187 -->
<g id="edge22" class="edge">
<title>Node82&#45;&gt;Node187</title>
<path fill="none" stroke="#63b8ff" d="M1907.13,-201.02C1900.09,-199.84 1892.95,-198.79 1886.13,-198 1516.24,-155.28 1414.84,-231.97 1049.13,-162 1037.2,-159.72 1024.37,-155.4 1014,-151.4"/>
<polygon fill="#63b8ff" stroke="#63b8ff" points="1906.47,-204.46 1916.93,-202.76 1907.69,-197.56 1906.47,-204.46"/>
</g>
<!-- Node49 -->
<g id="node23" class="node">
<title>Node49</title>
<g id="a_node23"><a xlink:href="d__pane__class_8cpp.html" target="_top" xlink:title=" ">
<polygon fill="white" stroke="#666666" points="1201.63,-151 1058.63,-151 1058.63,-132 1201.63,-132 1201.63,-151"/>
<text text-anchor="middle" x="1130.13" y="-139" font-family="Helvetica,sans-Serif" font-size="10.00">src/d/pane/d_pane_class.cpp</text>
</a>
</g>
</g>
<!-- Node82&#45;&gt;Node49 -->
<g id="edge23" class="edge">
<title>Node82&#45;&gt;Node49</title>
<path fill="none" stroke="#63b8ff" d="M1906.86,-201.04C1899.91,-199.87 1892.86,-198.81 1886.13,-198 1587.43,-161.95 1507.79,-205.81 1210.13,-162 1193.72,-159.59 1175.76,-155.35 1161.02,-151.45"/>
<polygon fill="#63b8ff" stroke="#63b8ff" points="1906.07,-204.46 1916.53,-202.76 1907.29,-197.56 1906.07,-204.46"/>
</g>
<!-- Node387 -->
<g id="node24" class="node">
<title>Node387</title>
<g id="a_node24"><a xlink:href="d__pane__class__alpha_8cpp.html" target="_top" xlink:title=" ">
<polygon fill="white" stroke="#666666" points="1344.63,-156.5 1219.63,-156.5 1219.63,-126.5 1344.63,-126.5 1344.63,-156.5"/>
<text text-anchor="start" x="1227.63" y="-144.5" font-family="Helvetica,sans-Serif" font-size="10.00">src/d/pane/d_pane_class</text>
<text text-anchor="middle" x="1282.13" y="-133.5" font-family="Helvetica,sans-Serif" font-size="10.00">_alpha.cpp</text>
</a>
</g>
</g>
<!-- Node82&#45;&gt;Node387 -->
<g id="edge24" class="edge">
<title>Node82&#45;&gt;Node387</title>
<path fill="none" stroke="#63b8ff" d="M1906.34,-201.05C1899.55,-199.89 1892.69,-198.84 1886.13,-198 1650.62,-167.88 1587.23,-201.64 1353.13,-162 1345.44,-160.7 1337.39,-158.91 1329.58,-156.94"/>
<polygon fill="#63b8ff" stroke="#63b8ff" points="1905.67,-204.48 1916.13,-202.79 1906.89,-197.59 1905.67,-204.48"/>
</g>
<!-- Node179 -->
<g id="node25" class="node">
<title>Node179</title>
<g id="a_node25"><a xlink:href="f__op__actor__mng_8cpp.html" target="_top" xlink:title=" ">
<polygon fill="white" stroke="#666666" points="1463.63,-156.5 1362.63,-156.5 1362.63,-126.5 1463.63,-126.5 1463.63,-156.5"/>
<text text-anchor="start" x="1370.63" y="-144.5" font-family="Helvetica,sans-Serif" font-size="10.00">src/f_op/f_op_actor</text>
<text text-anchor="middle" x="1413.13" y="-133.5" font-family="Helvetica,sans-Serif" font-size="10.00">_mng.cpp</text>
</a>
</g>
</g>
<!-- Node82&#45;&gt;Node179 -->
<g id="edge25" class="edge">
<title>Node82&#45;&gt;Node179</title>
<path fill="none" stroke="#63b8ff" d="M1905.81,-201.08C1899.19,-199.94 1892.52,-198.88 1886.13,-198 1703.16,-172.8 1653.03,-199.23 1472.13,-162 1465.79,-160.7 1459.18,-158.93 1452.78,-156.99"/>
<polygon fill="#63b8ff" stroke="#63b8ff" points="1904.87,-204.47 1915.33,-202.79 1906.1,-197.58 1904.87,-204.47"/>
</g>
<!-- Node388 -->
<g id="node26" class="node">
<title>Node388</title>
<g id="a_node26"><a xlink:href="m__Do__DVDError_8cpp.html" target="_top" xlink:title=" ">
<polygon fill="white" stroke="#666666" points="1632.63,-151 1481.63,-151 1481.63,-132 1632.63,-132 1632.63,-151"/>
<text text-anchor="middle" x="1557.13" y="-139" font-family="Helvetica,sans-Serif" font-size="10.00">src/m_Do/m_Do_DVDError.cpp</text>
</a>
</g>
</g>
<!-- Node82&#45;&gt;Node388 -->
<g id="edge26" class="edge">
<title>Node82&#45;&gt;Node388</title>
<path fill="none" stroke="#63b8ff" d="M1903.31,-201.01C1897.52,-199.96 1891.71,-198.94 1886.13,-198 1778.03,-179.81 1749.86,-182.27 1642.13,-162 1626.06,-158.98 1608.42,-155.03 1593.4,-151.48"/>
<polygon fill="#63b8ff" stroke="#63b8ff" points="1902.43,-204.41 1912.9,-202.77 1903.7,-197.52 1902.43,-204.41"/>
</g>
<!-- Node389 -->
<g id="node27" class="node">
<title>Node389</title>
<g id="a_node27"><a xlink:href="m__Do__MemCard_8cpp.html" target="_top" xlink:title=" ">
<polygon fill="white" stroke="#666666" points="1803.13,-151 1651.13,-151 1651.13,-132 1803.13,-132 1803.13,-151"/>
<text text-anchor="middle" x="1727.13" y="-139" font-family="Helvetica,sans-Serif" font-size="10.00">src/m_Do/m_Do_MemCard.cpp</text>
</a>
</g>
</g>
<!-- Node82&#45;&gt;Node389 -->
<g id="edge27" class="edge">
<title>Node82&#45;&gt;Node389</title>
<path fill="none" stroke="#63b8ff" d="M1919.28,-199.81C1872.88,-185.97 1798.27,-163.72 1757,-151.41"/>
<polygon fill="#63b8ff" stroke="#63b8ff" points="1918.11,-203.12 1928.7,-202.62 1920.11,-196.41 1918.11,-203.12"/>
</g>
<!-- Node390 -->
<g id="node28" class="node">
<title>Node390</title>
<g id="a_node28"><a xlink:href="m__Do__dvd__thread_8cpp.html" target="_top" xlink:title=" ">
<polygon fill="white" stroke="#666666" points="1979.13,-151 1821.13,-151 1821.13,-132 1979.13,-132 1979.13,-151"/>
<text text-anchor="middle" x="1900.13" y="-139" font-family="Helvetica,sans-Serif" font-size="10.00">src/m_Do/m_Do_dvd_thread.cpp</text>
</a>
</g>
</g>
<!-- Node82&#45;&gt;Node390 -->
<g id="edge28" class="edge">
<title>Node82&#45;&gt;Node390</title>
<path fill="none" stroke="#63b8ff" d="M1945.14,-194.63C1933.29,-180.91 1917.24,-162.32 1907.86,-151.45"/>
<polygon fill="#63b8ff" stroke="#63b8ff" points="1942.36,-196.77 1951.54,-202.05 1947.66,-192.2 1942.36,-196.77"/>
</g>
<!-- Node391 -->
<g id="node29" class="node">
<title>Node391</title>
<g id="a_node29"><a xlink:href="m__Do__machine_8cpp.html" target="_top" xlink:title=" ">
<polygon fill="white" stroke="#666666" points="2144.63,-151 1997.63,-151 1997.63,-132 2144.63,-132 2144.63,-151"/>
<text text-anchor="middle" x="2071.13" y="-139" font-family="Helvetica,sans-Serif" font-size="10.00">src/m_Do/m_Do_machine.cpp</text>
</a>
</g>
</g>
<!-- Node82&#45;&gt;Node391 -->
<g id="edge30" class="edge">
<title>Node82&#45;&gt;Node391</title>
<path fill="none" stroke="#63b8ff" d="M1983.86,-197.14C2006.02,-183.27 2038.38,-163 2056.84,-151.45"/>
<polygon fill="#63b8ff" stroke="#63b8ff" points="1982.09,-194.12 1975.47,-202.39 1985.8,-200.05 1982.09,-194.12"/>
</g>
<!-- Node233 -->
<g id="node30" class="node">
<title>Node233</title>
<g id="a_node30"><a xlink:href="m__Do__machine__exception_8cpp.html" target="_top" xlink:title=" ">
<polygon fill="white" stroke="#666666" points="2291.63,-156.5 2162.63,-156.5 2162.63,-126.5 2291.63,-126.5 2291.63,-156.5"/>
<text text-anchor="start" x="2170.63" y="-144.5" font-family="Helvetica,sans-Serif" font-size="10.00">src/m_Do/m_Do_machine</text>
<text text-anchor="middle" x="2227.13" y="-133.5" font-family="Helvetica,sans-Serif" font-size="10.00">_exception.cpp</text>
</a>
</g>
</g>
<!-- Node82&#45;&gt;Node233 -->
<g id="edge31" class="edge">
<title>Node82&#45;&gt;Node233</title>
<path fill="none" stroke="#63b8ff" d="M2006.02,-200.17C2045.13,-190.07 2102.84,-175.14 2153.13,-162 2159.43,-160.35 2166.03,-158.62 2172.58,-156.9"/>
<polygon fill="#63b8ff" stroke="#63b8ff" points="2005.28,-196.74 1996.47,-202.63 2007.03,-203.52 2005.28,-196.74"/>
</g>
<!-- Node392 -->
<g id="node31" class="node">
<title>Node392</title>
<g id="a_node31"><a xlink:href="m__Do__printf_8cpp.html" target="_top" xlink:title=" ">
<polygon fill="white" stroke="#666666" points="2442.13,-151 2310.13,-151 2310.13,-132 2442.13,-132 2442.13,-151"/>
<text text-anchor="middle" x="2376.13" y="-139" font-family="Helvetica,sans-Serif" font-size="10.00">src/m_Do/m_Do_printf.cpp</text>
</a>
</g>
</g>
<!-- Node82&#45;&gt;Node392 -->
<g id="edge32" class="edge">
<title>Node82&#45;&gt;Node392</title>
<path fill="none" stroke="#63b8ff" d="M2016.69,-200.98C2022.57,-199.93 2028.47,-198.92 2034.13,-198 2151.89,-178.9 2183.04,-184.86 2300.13,-162 2314.84,-159.13 2330.94,-155.12 2344.52,-151.49"/>
<polygon fill="#63b8ff" stroke="#63b8ff" points="2016.16,-197.52 2006.95,-202.76 2017.42,-204.41 2016.16,-197.52"/>
</g>
<!-- Node83&#45;&gt;Node63 -->
<g id="edge15" class="edge">
<title>Node83&#45;&gt;Node63</title>
<path fill="none" stroke="#63b8ff" d="M618.97,-122.4C610.82,-110.27 600.46,-94.84 594.06,-85.32"/>
<polygon fill="#63b8ff" stroke="#63b8ff" points="615.82,-124 624.31,-130.34 621.64,-120.09 615.82,-124"/>
</g>
<!-- Node394&#45;&gt;Node395 -->
<g id="edge35" class="edge">
<title>Node394&#45;&gt;Node395</title>
<path fill="none" stroke="#63b8ff" d="M2137.89,-392.25C2104.95,-382.21 2064.29,-369.82 2033.35,-360.39"/>
<polygon fill="#63b8ff" stroke="#63b8ff" points="2136.71,-395.55 2147.29,-395.12 2138.75,-388.85 2136.71,-395.55"/>
</g>
<!-- Node402 -->
<g id="node45" class="node">
<title>Node402</title>
<g id="a_node45"><a xlink:href="J3DMtxBuffer_8cpp.html" target="_top" xlink:title=" ">
<polygon fill="white" stroke="#666666" points="2281.13,-360 2123.13,-360 2123.13,-330 2281.13,-330 2281.13,-360"/>
<text text-anchor="start" x="2131.13" y="-348" font-family="Helvetica,sans-Serif" font-size="10.00">libs/JSystem/J3DGraphAnimator</text>
<text text-anchor="middle" x="2202.13" y="-337" font-family="Helvetica,sans-Serif" font-size="10.00">/J3DMtxBuffer.cpp</text>
</a>
</g>
</g>
<!-- Node394&#45;&gt;Node402 -->
<g id="edge52" class="edge">
<title>Node394&#45;&gt;Node402</title>
<path fill="none" stroke="#63b8ff" d="M2198.53,-384.39C2199.3,-376.13 2200.13,-367.28 2200.8,-360.16"/>
<polygon fill="#63b8ff" stroke="#63b8ff" points="2195.05,-384.01 2197.6,-394.29 2202.02,-384.66 2195.05,-384.01"/>
</g>
<!-- Node396 -->
<g id="node35" class="node">
<title>Node396</title>
<g id="a_node35"><a xlink:href="J3DModel_8h.html" target="_top" xlink:title=" ">
<polygon fill="white" stroke="#666666" points="1865.63,-294 1730.63,-294 1730.63,-264 1865.63,-264 1865.63,-294"/>
<text text-anchor="start" x="1738.63" y="-282" font-family="Helvetica,sans-Serif" font-size="10.00">include/JSystem/J3DGraph</text>
<text text-anchor="middle" x="1798.13" y="-271" font-family="Helvetica,sans-Serif" font-size="10.00">Animator/J3DModel.h</text>
</a>
</g>
</g>
<!-- Node395&#45;&gt;Node396 -->
<g id="edge36" class="edge">
<title>Node395&#45;&gt;Node396</title>
<path fill="none" stroke="#63b8ff" d="M1933.07,-325.94C1903.78,-315.97 1867.9,-303.75 1840.5,-294.43"/>
<polygon fill="#63b8ff" stroke="#63b8ff" points="1931.91,-329.24 1942.51,-329.15 1934.17,-322.61 1931.91,-329.24"/>
</g>
<!-- Node399 -->
<g id="node42" class="node">
<title>Node399</title>
<g id="a_node42"><a xlink:href="J3DSkinDeform_8cpp.html" target="_top" xlink:title=" ">
<polygon fill="white" stroke="#666666" points="1877.13,-228 1719.13,-228 1719.13,-198 1877.13,-198 1877.13,-228"/>
<text text-anchor="start" x="1727.13" y="-216" font-family="Helvetica,sans-Serif" font-size="10.00">libs/JSystem/J3DGraphAnimator</text>
<text text-anchor="middle" x="1798.13" y="-205" font-family="Helvetica,sans-Serif" font-size="10.00">/J3DSkinDeform.cpp</text>
</a>
</g>
</g>
<!-- Node395&#45;&gt;Node399 -->
<g id="edge51" class="edge">
<title>Node395&#45;&gt;Node399</title>
<path fill="none" stroke="#63b8ff" d="M1957.15,-322.84C1934.66,-306.53 1902.63,-283.54 1874.13,-264 1856.28,-251.76 1835.77,-238.3 1820.56,-228.44"/>
<polygon fill="#63b8ff" stroke="#63b8ff" points="1955.09,-325.67 1965.24,-328.72 1959.21,-320.01 1955.09,-325.67"/>
</g>
<!-- Node396&#45;&gt;Node75 -->
<g id="edge46" class="edge">
<title>Node396&#45;&gt;Node75</title>
<path fill="none" stroke="#63b8ff" d="M1877.31,-262.36C1929.68,-252.01 1997.84,-238.55 2048.95,-228.46"/>
<polygon fill="#63b8ff" stroke="#63b8ff" points="1876.67,-258.92 1867.54,-264.29 1878.02,-265.79 1876.67,-258.92"/>
</g>
<!-- Node396&#45;&gt;Node78 -->
<g id="edge47" class="edge">
<title>Node396&#45;&gt;Node78</title>
<path fill="none" stroke="#63b8ff" d="M1877.14,-270.83C2012.69,-258.52 2288.04,-233.53 2423.8,-221.2"/>
<polygon fill="#63b8ff" stroke="#63b8ff" points="1877.2,-267.31 1867.56,-271.7 1877.83,-274.28 1877.2,-267.31"/>
</g>
<!-- Node396&#45;&gt;Node82 -->
<g id="edge45" class="edge">
<title>Node396&#45;&gt;Node82</title>
<path fill="none" stroke="#63b8ff" d="M1844.86,-259.54C1875.24,-247.54 1913.49,-232.43 1937.38,-222.99"/>
<polygon fill="#63b8ff" stroke="#63b8ff" points="1843.91,-256.15 1835.89,-263.08 1846.48,-262.66 1843.91,-256.15"/>
</g>
<!-- Node397 -->
<g id="node36" class="node">
<title>Node397</title>
<g id="a_node36"><a xlink:href="d__jnt__col_8h.html" target="_top" xlink:title=" ">
<polygon fill="white" stroke="#666666" points="521.63,-222.5 416.63,-222.5 416.63,-203.5 521.63,-203.5 521.63,-222.5"/>
<text text-anchor="middle" x="469.13" y="-210.5" font-family="Helvetica,sans-Serif" font-size="10.00">include/d/d_jnt_col.h</text>
</a>
</g>
</g>
<!-- Node396&#45;&gt;Node397 -->
<g id="edge37" class="edge">
<title>Node396&#45;&gt;Node397</title>
<path fill="none" stroke="#63b8ff" d="M1719.08,-274.19C1473.45,-262.36 727.59,-226.45 522.06,-216.55"/>
<polygon fill="#63b8ff" stroke="#63b8ff" points="1718.73,-277.68 1728.89,-274.67 1719.07,-270.69 1718.73,-277.68"/>
</g>
<!-- Node398 -->
<g id="node40" class="node">
<title>Node398</title>
<g id="a_node40"><a xlink:href="d__simple__model_8h.html" target="_top" xlink:title=" ">
<polygon fill="white" stroke="#666666" points="130.13,-228 32.13,-228 32.13,-198 130.13,-198 130.13,-228"/>
<text text-anchor="start" x="40.13" y="-216" font-family="Helvetica,sans-Serif" font-size="10.00">include/d/d_simple</text>
<text text-anchor="middle" x="81.13" y="-205" font-family="Helvetica,sans-Serif" font-size="10.00">_model.h</text>
</a>
</g>
</g>
<!-- Node396&#45;&gt;Node398 -->
<g id="edge42" class="edge">
<title>Node396&#45;&gt;Node398</title>
<path fill="none" stroke="#63b8ff" d="M1719.14,-275.35C1506.89,-268.2 906.52,-247.7 407.13,-228 309.06,-224.13 194.42,-219.09 130.56,-216.23"/>
<polygon fill="#63b8ff" stroke="#63b8ff" points="1718.83,-278.85 1728.94,-275.68 1719.06,-271.85 1718.83,-278.85"/>
</g>
<!-- Node396&#45;&gt;Node399 -->
<g id="edge48" class="edge">
<title>Node396&#45;&gt;Node399</title>
<path fill="none" stroke="#63b8ff" d="M1798.13,-252.39C1798.13,-244.13 1798.13,-235.28 1798.13,-228.16"/>
<polygon fill="#63b8ff" stroke="#63b8ff" points="1794.63,-252.28 1798.13,-262.28 1801.63,-252.28 1794.63,-252.28"/>
</g>
<!-- Node400 -->
<g id="node43" class="node">
<title>Node400</title>
<g id="a_node43"><a xlink:href="J3DPacket_8cpp.html" target="_top" xlink:title=" ">
<polygon fill="white" stroke="#666666" points="1541.13,-228 1399.13,-228 1399.13,-198 1541.13,-198 1541.13,-228"/>
<text text-anchor="start" x="1407.13" y="-216" font-family="Helvetica,sans-Serif" font-size="10.00">libs/JSystem/J3DGraphBase</text>
<text text-anchor="middle" x="1470.13" y="-205" font-family="Helvetica,sans-Serif" font-size="10.00">/J3DPacket.cpp</text>
</a>
</g>
</g>
<!-- Node396&#45;&gt;Node400 -->
<g id="edge49" class="edge">
<title>Node396&#45;&gt;Node400</title>
<path fill="none" stroke="#63b8ff" d="M1718.89,-262.54C1664.8,-251.98 1593.73,-238.12 1541.41,-227.91"/>
<polygon fill="#63b8ff" stroke="#63b8ff" points="1718.2,-265.97 1728.68,-264.45 1719.54,-259.1 1718.2,-265.97"/>
</g>
<!-- Node401 -->
<g id="node44" class="node">
<title>Node401</title>
<g id="a_node44"><a xlink:href="J3DShapeMtx_8cpp.html" target="_top" xlink:title=" ">
<polygon fill="white" stroke="#666666" points="1701.13,-228 1559.13,-228 1559.13,-198 1701.13,-198 1701.13,-228"/>
<text text-anchor="start" x="1567.13" y="-216" font-family="Helvetica,sans-Serif" font-size="10.00">libs/JSystem/J3DGraphBase</text>
<text text-anchor="middle" x="1630.13" y="-205" font-family="Helvetica,sans-Serif" font-size="10.00">/J3DShapeMtx.cpp</text>
</a>
</g>
</g>
<!-- Node396&#45;&gt;Node401 -->
<g id="edge50" class="edge">
<title>Node396&#45;&gt;Node401</title>
<path fill="none" stroke="#63b8ff" d="M1749.67,-259.54C1723.69,-249.64 1692.16,-237.63 1668,-228.43"/>
<polygon fill="#63b8ff" stroke="#63b8ff" points="1748.42,-262.81 1759.01,-263.1 1750.91,-256.27 1748.42,-262.81"/>
</g>
<!-- Node397&#45;&gt;Node63 -->
<g id="edge38" class="edge">
<title>Node397&#45;&gt;Node63</title>
<path fill="none" stroke="#63b8ff" d="M489.92,-196.11C501.49,-186.79 515.79,-174.43 527.13,-162 550.6,-136.27 573,-101.34 582.87,-85.26"/>
<polygon fill="#63b8ff" stroke="#63b8ff" points="487.85,-193.29 482.16,-202.23 492.19,-198.78 487.85,-193.29"/>
</g>
<!-- Node137 -->
<g id="node37" class="node">
<title>Node137</title>
<g id="a_node37"><a xlink:href="d__a__obj__carry_8h.html" target="_top" xlink:title=" ">
<polygon fill="#fff0f0" stroke="red" points="280.13,-162 164.13,-162 164.13,-121 280.13,-121 280.13,-162"/>
<text text-anchor="start" x="172.13" y="-150" font-family="Helvetica,sans-Serif" font-size="10.00">include/rel/d/a/obj</text>
<text text-anchor="start" x="172.13" y="-139" font-family="Helvetica,sans-Serif" font-size="10.00">/d_a_obj_carry/d_a_obj</text>
<text text-anchor="middle" x="222.13" y="-128" font-family="Helvetica,sans-Serif" font-size="10.00">_carry.h</text>
</a>
</g>
</g>
<!-- Node397&#45;&gt;Node137 -->
<g id="edge39" class="edge">
<title>Node397&#45;&gt;Node137</title>
<path fill="none" stroke="#63b8ff" d="M425.83,-200.13C389.34,-190.09 335.78,-175.27 289.13,-162 286.33,-161.2 283.47,-160.39 280.58,-159.56"/>
<polygon fill="#63b8ff" stroke="#63b8ff" points="424.55,-203.41 435.12,-202.69 426.4,-196.66 424.55,-203.41"/>
</g>
<!-- Node194 -->
<g id="node38" class="node">
<title>Node194</title>
<g id="a_node38"><a xlink:href="d__cc__s_8cpp.html" target="_top" xlink:title=" ">
<polygon fill="white" stroke="#666666" points="402.13,-151 298.13,-151 298.13,-132 402.13,-132 402.13,-151"/>
<text text-anchor="middle" x="350.13" y="-139" font-family="Helvetica,sans-Serif" font-size="10.00">src/d/cc/d_cc_s.cpp</text>
</a>
</g>
</g>
<!-- Node397&#45;&gt;Node194 -->
<g id="edge40" class="edge">
<title>Node397&#45;&gt;Node194</title>
<path fill="none" stroke="#63b8ff" d="M444.34,-197.52C420.56,-183.63 385.41,-163.11 365.45,-151.45"/>
<polygon fill="#63b8ff" stroke="#63b8ff" points="442.35,-200.41 452.75,-202.43 445.88,-194.37 442.35,-200.41"/>
</g>
<!-- Node372 -->
<g id="node39" class="node">
<title>Node372</title>
<g id="a_node39"><a xlink:href="d__jnt__col_8cpp.html" target="_top" xlink:title=" ">
<polygon fill="white" stroke="#666666" points="518.13,-151 420.13,-151 420.13,-132 518.13,-132 518.13,-151"/>
<text text-anchor="middle" x="469.13" y="-139" font-family="Helvetica,sans-Serif" font-size="10.00">src/d/d_jnt_col.cpp</text>
</a>
</g>
</g>
<!-- Node397&#45;&gt;Node372 -->
<g id="edge41" class="edge">
<title>Node397&#45;&gt;Node372</title>
<path fill="none" stroke="#63b8ff" d="M469.13,-191.8C469.13,-178.44 469.13,-161.59 469.13,-151.45"/>
<polygon fill="#63b8ff" stroke="#63b8ff" points="465.63,-191.68 469.13,-201.68 472.63,-191.68 465.63,-191.68"/>
</g>
<!-- Node398&#45;&gt;Node65 -->
<g id="edge43" class="edge">
<title>Node398&#45;&gt;Node65</title>
<path fill="none" stroke="#63b8ff" d="M36.33,-191.7C24.73,-184.13 13.66,-174.3 7.13,-162 -1.42,-145.91 -3.06,-136.11 7.13,-121 53,-53 151.13,-29.03 212.85,-20.58"/>
<polygon fill="#63b8ff" stroke="#63b8ff" points="34.44,-194.65 44.82,-196.76 38.03,-188.63 34.44,-194.65"/>
</g>
<!-- Node209 -->
<g id="node41" class="node">
<title>Node209</title>
<g id="a_node41"><a xlink:href="d__simple__model_8cpp.html" target="_top" xlink:title=" ">
<polygon fill="white" stroke="#666666" points="146.13,-151 16.13,-151 16.13,-132 146.13,-132 146.13,-151"/>
<text text-anchor="middle" x="81.13" y="-139" font-family="Helvetica,sans-Serif" font-size="10.00">src/d/d_simple_model.cpp</text>
</a>
</g>
</g>
<!-- Node398&#45;&gt;Node209 -->
<g id="edge44" class="edge">
<title>Node398&#45;&gt;Node209</title>
<path fill="none" stroke="#63b8ff" d="M81.13,-186.46C81.13,-174.07 81.13,-159.99 81.13,-151.18"/>
<polygon fill="#63b8ff" stroke="#63b8ff" points="77.63,-186.09 81.13,-196.09 84.63,-186.09 77.63,-186.09"/>
</g>
<!-- Node406&#45;&gt;Node405 -->
<g id="edge60" class="edge">
<title>Node406&#45;&gt;Node405</title>
<path fill="none" stroke="#63b8ff" d="M2351.93,-582.39C2352.83,-574.13 2353.8,-565.28 2354.58,-558.16"/>
<polygon fill="#63b8ff" stroke="#63b8ff" points="2348.46,-581.97 2350.85,-592.29 2355.41,-582.73 2348.46,-581.97"/>
</g>
</g>
</svg>
