<?xml version="1.0" encoding="UTF-8" standalone="no"?>
<!DOCTYPE svg PUBLIC "-//W3C//DTD SVG 1.1//EN"
 "http://www.w3.org/Graphics/SVG/1.1/DTD/svg11.dtd">
<!-- Generated by graphviz version 7.0.5 (20221223.1930)
 -->
<!-- Title: include/JSystem/J3DGraphBase/J3DTexture.h Pages: 1 -->
<svg width="3669pt" height="236pt"
 viewBox="0.00 0.00 3669.00 236.00" xmlns="http://www.w3.org/2000/svg" xmlns:xlink="http://www.w3.org/1999/xlink">
<g id="graph0" class="graph" transform="scale(1 1) rotate(0) translate(4 232)">
<title>include/JSystem/J3DGraphBase/J3DTexture.h</title>
<!-- Node1 -->
<g id="node1" class="node">
<title>Node1</title>
<g id="a_node1"><a xlink:title=" ">
<polygon fill="#999999" stroke="#666666" points="3221.5,-228 3086.5,-228 3086.5,-198 3221.5,-198 3221.5,-228"/>
<text text-anchor="start" x="3094.5" y="-216" font-family="Helvetica,sans-Serif" font-size="10.00">include/JSystem/J3DGraph</text>
<text text-anchor="middle" x="3154" y="-205" font-family="Helvetica,sans-Serif" font-size="10.00">Base/J3DTexture.h</text>
</a>
</g>
</g>
<!-- Node2 -->
<g id="node2" class="node">
<title>Node2</title>
<g id="a_node2"><a xlink:href="J3DMatBlock_8h.html" target="_top" xlink:title=" ">
<polygon fill="white" stroke="#666666" points="2927.5,-162 2792.5,-162 2792.5,-132 2927.5,-132 2927.5,-162"/>
<text text-anchor="start" x="2800.5" y="-150" font-family="Helvetica,sans-Serif" font-size="10.00">include/JSystem/J3DGraph</text>
<text text-anchor="middle" x="2860" y="-139" font-family="Helvetica,sans-Serif" font-size="10.00">Base/J3DMatBlock.h</text>
</a>
</g>
</g>
<!-- Node1&#45;&gt;Node2 -->
<g id="edge1" class="edge">
<title>Node1&#45;&gt;Node2</title>
<path fill="none" stroke="#63b8ff" d="M3076.66,-195.16C3029.93,-184.99 2970.97,-172.16 2926.36,-162.45"/>
<polygon fill="#63b8ff" stroke="#63b8ff" points="3075.66,-198.53 3086.18,-197.24 3077.15,-191.69 3075.66,-198.53"/>
</g>
<!-- Node3 -->
<g id="node3" class="node">
<title>Node3</title>
<g id="a_node3"><a xlink:href="J3DMaterial_8h.html" target="_top" xlink:title=" ">
<polygon fill="white" stroke="#666666" points="1655.5,-96 1520.5,-96 1520.5,-66 1655.5,-66 1655.5,-96"/>
<text text-anchor="start" x="1528.5" y="-84" font-family="Helvetica,sans-Serif" font-size="10.00">include/JSystem/J3DGraph</text>
<text text-anchor="middle" x="1588" y="-73" font-family="Helvetica,sans-Serif" font-size="10.00">Base/J3DMaterial.h</text>
</a>
</g>
</g>
<!-- Node1&#45;&gt;Node3 -->
<g id="edge31" class="edge">
<title>Node1&#45;&gt;Node3</title>
<path fill="none" stroke="#63b8ff" d="M3074.88,-205.43C2802.99,-182.86 1909.72,-108.71 1655.85,-87.63"/>
<polygon fill="#63b8ff" stroke="#63b8ff" points="3074.44,-208.91 3084.7,-206.25 3075.02,-201.93 3074.44,-208.91"/>
</g>
<!-- Node31 -->
<g id="node31" class="node">
<title>Node31</title>
<g id="a_node31"><a xlink:href="J2DAnimation_8cpp.html" target="_top" xlink:title=" ">
<polygon fill="white" stroke="#666666" points="3064.5,-162 2945.5,-162 2945.5,-132 3064.5,-132 3064.5,-162"/>
<text text-anchor="start" x="2953.5" y="-150" font-family="Helvetica,sans-Serif" font-size="10.00">libs/JSystem/J2DGraph</text>
<text text-anchor="middle" x="3005" y="-139" font-family="Helvetica,sans-Serif" font-size="10.00">/J2DAnimation.cpp</text>
</a>
</g>
</g>
<!-- Node1&#45;&gt;Node31 -->
<g id="edge32" class="edge">
<title>Node1&#45;&gt;Node31</title>
<path fill="none" stroke="#63b8ff" d="M3110.09,-193.14C3087.23,-183.32 3059.72,-171.51 3038.58,-162.43"/>
<polygon fill="#63b8ff" stroke="#63b8ff" points="3108.6,-196.31 3119.17,-197.04 3111.36,-189.88 3108.6,-196.31"/>
</g>
<!-- Node32 -->
<g id="node32" class="node">
<title>Node32</title>
<g id="a_node32"><a xlink:href="J3DSys_8cpp.html" target="_top" xlink:title=" ">
<polygon fill="white" stroke="#666666" points="3225,-162 3083,-162 3083,-132 3225,-132 3225,-162"/>
<text text-anchor="start" x="3091" y="-150" font-family="Helvetica,sans-Serif" font-size="10.00">libs/JSystem/J3DGraphBase</text>
<text text-anchor="middle" x="3154" y="-139" font-family="Helvetica,sans-Serif" font-size="10.00">/J3DSys.cpp</text>
</a>
</g>
</g>
<!-- Node1&#45;&gt;Node32 -->
<g id="edge33" class="edge">
<title>Node1&#45;&gt;Node32</title>
<path fill="none" stroke="#63b8ff" d="M3154,-186.39C3154,-178.13 3154,-169.28 3154,-162.16"/>
<polygon fill="#63b8ff" stroke="#63b8ff" points="3150.5,-186.28 3154,-196.28 3157.5,-186.28 3150.5,-186.28"/>
</g>
<!-- Node33 -->
<g id="node33" class="node">
<title>Node33</title>
<g id="a_node33"><a xlink:href="J3DTevs_8cpp.html" target="_top" xlink:title=" ">
<polygon fill="white" stroke="#666666" points="3385,-162 3243,-162 3243,-132 3385,-132 3385,-162"/>
<text text-anchor="start" x="3251" y="-150" font-family="Helvetica,sans-Serif" font-size="10.00">libs/JSystem/J3DGraphBase</text>
<text text-anchor="middle" x="3314" y="-139" font-family="Helvetica,sans-Serif" font-size="10.00">/J3DTevs.cpp</text>
</a>
</g>
</g>
<!-- Node1&#45;&gt;Node33 -->
<g id="edge34" class="edge">
<title>Node1&#45;&gt;Node33</title>
<path fill="none" stroke="#63b8ff" d="M3200.48,-193.41C3225.16,-183.54 3255.03,-171.59 3277.94,-162.43"/>
<polygon fill="#63b8ff" stroke="#63b8ff" points="3199.3,-190.11 3191.31,-197.08 3201.9,-196.61 3199.3,-190.11"/>
</g>
<!-- Node34 -->
<g id="node34" class="node">
<title>Node34</title>
<g id="a_node34"><a xlink:href="J3DTexture_8cpp.html" target="_top" xlink:title=" ">
<polygon fill="white" stroke="#666666" points="3545,-162 3403,-162 3403,-132 3545,-132 3545,-162"/>
<text text-anchor="start" x="3411" y="-150" font-family="Helvetica,sans-Serif" font-size="10.00">libs/JSystem/J3DGraphBase</text>
<text text-anchor="middle" x="3474" y="-139" font-family="Helvetica,sans-Serif" font-size="10.00">/J3DTexture.cpp</text>
</a>
</g>
</g>
<!-- Node1&#45;&gt;Node34 -->
<g id="edge35" class="edge">
<title>Node1&#45;&gt;Node34</title>
<path fill="none" stroke="#63b8ff" d="M3233.03,-196.19C3284.96,-185.81 3352.33,-172.33 3402.63,-162.27"/>
<polygon fill="#63b8ff" stroke="#63b8ff" points="3232.47,-192.74 3223.35,-198.13 3233.84,-199.6 3232.47,-192.74"/>
</g>
<!-- Node35 -->
<g id="node35" class="node">
<title>Node35</title>
<g id="a_node35"><a xlink:href="d__eye__hl_8cpp.html" target="_top" xlink:title=" ">
<polygon fill="white" stroke="#666666" points="3661,-156.5 3563,-156.5 3563,-137.5 3661,-137.5 3661,-156.5"/>
<text text-anchor="middle" x="3612" y="-144.5" font-family="Helvetica,sans-Serif" font-size="10.00">src/d/d_eye_hl.cpp</text>
</a>
</g>
</g>
<!-- Node1&#45;&gt;Node35 -->
<g id="edge36" class="edge">
<title>Node1&#45;&gt;Node35</title>
<path fill="none" stroke="#63b8ff" d="M3233.04,-204.77C3314.02,-196.74 3443.37,-182.2 3554,-162 3561.74,-160.59 3570,-158.78 3577.79,-156.93"/>
<polygon fill="#63b8ff" stroke="#63b8ff" points="3233.06,-201.25 3223.45,-205.71 3233.74,-208.22 3233.06,-201.25"/>
</g>
<!-- Node2&#45;&gt;Node3 -->
<g id="edge2" class="edge">
<title>Node2&#45;&gt;Node3</title>
<path fill="none" stroke="#63b8ff" d="M2780.68,-142.01C2548.37,-130.32 1872.28,-96.3 1655.64,-85.4"/>
<polygon fill="#63b8ff" stroke="#63b8ff" points="2780.39,-145.5 2790.55,-142.51 2780.74,-138.51 2780.39,-145.5"/>
</g>
<!-- Node21 -->
<g id="node21" class="node">
<title>Node21</title>
<g id="a_node21"><a xlink:href="d__a__alink_8h.html" target="_top" xlink:title=" ">
<polygon fill="white" stroke="#666666" points="2918,-90.5 2802,-90.5 2802,-71.5 2918,-71.5 2918,-90.5"/>
<text text-anchor="middle" x="2860" y="-78.5" font-family="Helvetica,sans-Serif" font-size="10.00">include/d/a/d_a_alink.h</text>
</a>
</g>
</g>
<!-- Node2&#45;&gt;Node21 -->
<g id="edge20" class="edge">
<title>Node2&#45;&gt;Node21</title>
<path fill="none" stroke="#63b8ff" d="M2860,-120.59C2860,-110.06 2860,-98.53 2860,-90.84"/>
<polygon fill="#63b8ff" stroke="#63b8ff" points="2856.5,-120.28 2860,-130.28 2863.5,-120.28 2856.5,-120.28"/>
</g>
<!-- Node29 -->
<g id="node29" class="node">
<title>Node29</title>
<g id="a_node29"><a xlink:href="J3DMatBlock_8cpp.html" target="_top" xlink:title=" ">
<polygon fill="white" stroke="#666666" points="3078,-96 2936,-96 2936,-66 3078,-66 3078,-96"/>
<text text-anchor="start" x="2944" y="-84" font-family="Helvetica,sans-Serif" font-size="10.00">libs/JSystem/J3DGraphBase</text>
<text text-anchor="middle" x="3007" y="-73" font-family="Helvetica,sans-Serif" font-size="10.00">/J3DMatBlock.cpp</text>
</a>
</g>
</g>
<!-- Node2&#45;&gt;Node29 -->
<g id="edge29" class="edge">
<title>Node2&#45;&gt;Node29</title>
<path fill="none" stroke="#63b8ff" d="M2903.32,-127.14C2925.87,-117.32 2953.01,-105.51 2973.87,-96.43"/>
<polygon fill="#63b8ff" stroke="#63b8ff" points="2902.15,-123.83 2894.38,-131.03 2904.94,-130.25 2902.15,-123.83"/>
</g>
<!-- Node30 -->
<g id="node30" class="node">
<title>Node30</title>
<g id="a_node30"><a xlink:href="d__attention_8cpp.html" target="_top" xlink:title=" ">
<polygon fill="white" stroke="#666666" points="3203.5,-90.5 3096.5,-90.5 3096.5,-71.5 3203.5,-71.5 3203.5,-90.5"/>
<text text-anchor="middle" x="3150" y="-78.5" font-family="Helvetica,sans-Serif" font-size="10.00">src/d/d_attention.cpp</text>
</a>
</g>
</g>
<!-- Node2&#45;&gt;Node30 -->
<g id="edge30" class="edge">
<title>Node2&#45;&gt;Node30</title>
<path fill="none" stroke="#63b8ff" d="M2936.76,-129.13C2980.75,-119.45 3036.98,-107.07 3087,-96 3094.33,-94.38 3102.14,-92.65 3109.67,-90.97"/>
<polygon fill="#63b8ff" stroke="#63b8ff" points="2936.06,-125.7 2927.05,-131.27 2937.57,-132.54 2936.06,-125.7"/>
</g>
<!-- Node4 -->
<g id="node4" class="node">
<title>Node4</title>
<g id="a_node4"><a xlink:href="J3DJoint_8cpp.html" target="_top" xlink:title=" ">
<polygon fill="white" stroke="#666666" points="158,-30 0,-30 0,0 158,0 158,-30"/>
<text text-anchor="start" x="8" y="-18" font-family="Helvetica,sans-Serif" font-size="10.00">libs/JSystem/J3DGraphAnimator</text>
<text text-anchor="middle" x="79" y="-7" font-family="Helvetica,sans-Serif" font-size="10.00">/J3DJoint.cpp</text>
</a>
</g>
</g>
<!-- Node3&#45;&gt;Node4 -->
<g id="edge3" class="edge">
<title>Node3&#45;&gt;Node4</title>
<path fill="none" stroke="#63b8ff" d="M1508.62,-80.61C1292.63,-81.54 676.38,-79.29 167,-30 164.07,-29.72 161.1,-29.4 158.1,-29.05"/>
<polygon fill="#63b8ff" stroke="#63b8ff" points="1508.64,-84.11 1518.62,-80.56 1508.61,-77.11 1508.64,-84.11"/>
</g>
<!-- Node5 -->
<g id="node5" class="node">
<title>Node5</title>
<g id="a_node5"><a xlink:href="J3DJointTree_8cpp.html" target="_top" xlink:title=" ">
<polygon fill="white" stroke="#666666" points="334,-30 176,-30 176,0 334,0 334,-30"/>
<text text-anchor="start" x="184" y="-18" font-family="Helvetica,sans-Serif" font-size="10.00">libs/JSystem/J3DGraphAnimator</text>
<text text-anchor="middle" x="255" y="-7" font-family="Helvetica,sans-Serif" font-size="10.00">/J3DJointTree.cpp</text>
</a>
</g>
</g>
<!-- Node3&#45;&gt;Node5 -->
<g id="edge4" class="edge">
<title>Node3&#45;&gt;Node5</title>
<path fill="none" stroke="#63b8ff" d="M1508.94,-80.04C1311.66,-79.46 782,-73.58 343,-30 340.08,-29.71 337.1,-29.39 334.1,-29.03"/>
<polygon fill="#63b8ff" stroke="#63b8ff" points="1508.81,-83.54 1518.81,-80.07 1508.82,-76.54 1508.81,-83.54"/>
</g>
<!-- Node6 -->
<g id="node6" class="node">
<title>Node6</title>
<g id="a_node6"><a xlink:href="J3DMaterialAnm_8cpp.html" target="_top" xlink:title=" ">
<polygon fill="white" stroke="#666666" points="510,-30 352,-30 352,0 510,0 510,-30"/>
<text text-anchor="start" x="360" y="-18" font-family="Helvetica,sans-Serif" font-size="10.00">libs/JSystem/J3DGraphAnimator</text>
<text text-anchor="middle" x="431" y="-7" font-family="Helvetica,sans-Serif" font-size="10.00">/J3DMaterialAnm.cpp</text>
</a>
</g>
</g>
<!-- Node3&#45;&gt;Node6 -->
<g id="edge5" class="edge">
<title>Node3&#45;&gt;Node6</title>
<path fill="none" stroke="#63b8ff" d="M1508.97,-79.3C1331.48,-77.08 887.94,-67.86 519,-30 516.08,-29.7 513.1,-29.37 510.1,-29.01"/>
<polygon fill="#63b8ff" stroke="#63b8ff" points="1508.71,-82.8 1518.75,-79.42 1508.8,-75.8 1508.71,-82.8"/>
</g>
<!-- Node7 -->
<g id="node7" class="node">
<title>Node7</title>
<g id="a_node7"><a xlink:href="J3DMaterialAttach_8cpp.html" target="_top" xlink:title=" ">
<polygon fill="white" stroke="#666666" points="686,-30 528,-30 528,0 686,0 686,-30"/>
<text text-anchor="start" x="536" y="-18" font-family="Helvetica,sans-Serif" font-size="10.00">libs/JSystem/J3DGraphAnimator</text>
<text text-anchor="middle" x="607" y="-7" font-family="Helvetica,sans-Serif" font-size="10.00">/J3DMaterialAttach.cpp</text>
</a>
</g>
</g>
<!-- Node3&#45;&gt;Node7 -->
<g id="edge6" class="edge">
<title>Node3&#45;&gt;Node7</title>
<path fill="none" stroke="#63b8ff" d="M1508.69,-78.27C1352.53,-74.26 994.36,-62.11 695,-30 692.08,-29.69 689.1,-29.34 686.1,-28.97"/>
<polygon fill="#63b8ff" stroke="#63b8ff" points="1508.43,-81.76 1518.52,-78.52 1508.61,-74.77 1508.43,-81.76"/>
</g>
<!-- Node8 -->
<g id="node8" class="node">
<title>Node8</title>
<g id="a_node8"><a xlink:href="J3DModel_8cpp.html" target="_top" xlink:title=" ">
<polygon fill="white" stroke="#666666" points="862,-30 704,-30 704,0 862,0 862,-30"/>
<text text-anchor="start" x="712" y="-18" font-family="Helvetica,sans-Serif" font-size="10.00">libs/JSystem/J3DGraphAnimator</text>
<text text-anchor="middle" x="783" y="-7" font-family="Helvetica,sans-Serif" font-size="10.00">/J3DModel.cpp</text>
</a>
</g>
</g>
<!-- Node3&#45;&gt;Node8 -->
<g id="edge7" class="edge">
<title>Node3&#45;&gt;Node8</title>
<path fill="none" stroke="#63b8ff" d="M1508.9,-76.77C1376.55,-70.84 1101.99,-56.38 871,-30 868.08,-29.67 865.11,-29.31 862.11,-28.92"/>
<polygon fill="#63b8ff" stroke="#63b8ff" points="1508.44,-80.25 1518.59,-77.2 1508.75,-73.26 1508.44,-80.25"/>
</g>
<!-- Node9 -->
<g id="node9" class="node">
<title>Node9</title>
<g id="a_node9"><a xlink:href="J3DModelData_8cpp.html" target="_top" xlink:title=" ">
<polygon fill="white" stroke="#666666" points="1038,-30 880,-30 880,0 1038,0 1038,-30"/>
<text text-anchor="start" x="888" y="-18" font-family="Helvetica,sans-Serif" font-size="10.00">libs/JSystem/J3DGraphAnimator</text>
<text text-anchor="middle" x="959" y="-7" font-family="Helvetica,sans-Serif" font-size="10.00">/J3DModelData.cpp</text>
</a>
</g>
</g>
<!-- Node3&#45;&gt;Node9 -->
<g id="edge8" class="edge">
<title>Node3&#45;&gt;Node9</title>
<path fill="none" stroke="#63b8ff" d="M1509.2,-74.35C1403.71,-66.41 1210.89,-50.59 1047,-30 1044.08,-29.63 1041.12,-29.24 1038.12,-28.84"/>
<polygon fill="#63b8ff" stroke="#63b8ff" points="1508.63,-77.81 1518.86,-75.07 1509.15,-70.83 1508.63,-77.81"/>
</g>
<!-- Node10 -->
<g id="node10" class="node">
<title>Node10</title>
<g id="a_node10"><a xlink:href="J3DDrawBuffer_8cpp.html" target="_top" xlink:title=" ">
<polygon fill="white" stroke="#666666" points="1198,-30 1056,-30 1056,0 1198,0 1198,-30"/>
<text text-anchor="start" x="1064" y="-18" font-family="Helvetica,sans-Serif" font-size="10.00">libs/JSystem/J3DGraphBase</text>
<text text-anchor="middle" x="1127" y="-7" font-family="Helvetica,sans-Serif" font-size="10.00">/J3DDrawBuffer.cpp</text>
</a>
</g>
</g>
<!-- Node3&#45;&gt;Node10 -->
<g id="edge9" class="edge">
<title>Node3&#45;&gt;Node10</title>
<path fill="none" stroke="#63b8ff" d="M1509.02,-70.64C1431.87,-61.25 1311.18,-45.94 1207,-30 1204.07,-29.55 1201.09,-29.08 1198.07,-28.6"/>
<polygon fill="#63b8ff" stroke="#63b8ff" points="1508.23,-74.06 1518.58,-71.79 1509.08,-67.12 1508.23,-74.06"/>
</g>
<!-- Node11 -->
<g id="node11" class="node">
<title>Node11</title>
<g id="a_node11"><a xlink:href="J3DMaterial_8cpp.html" target="_top" xlink:title=" ">
<polygon fill="white" stroke="#666666" points="1358,-30 1216,-30 1216,0 1358,0 1358,-30"/>
<text text-anchor="start" x="1224" y="-18" font-family="Helvetica,sans-Serif" font-size="10.00">libs/JSystem/J3DGraphBase</text>
<text text-anchor="middle" x="1287" y="-7" font-family="Helvetica,sans-Serif" font-size="10.00">/J3DMaterial.cpp</text>
</a>
</g>
</g>
<!-- Node3&#45;&gt;Node11 -->
<g id="edge10" class="edge">
<title>Node3&#45;&gt;Node11</title>
<path fill="none" stroke="#63b8ff" d="M1508.82,-63.16C1460.97,-52.99 1400.61,-40.16 1354.94,-30.45"/>
<polygon fill="#63b8ff" stroke="#63b8ff" points="1508.08,-66.59 1518.59,-65.24 1509.54,-59.74 1508.08,-66.59"/>
</g>
<!-- Node12 -->
<g id="node12" class="node">
<title>Node12</title>
<g id="a_node12"><a xlink:href="J3DPacket_8cpp.html" target="_top" xlink:title=" ">
<polygon fill="white" stroke="#666666" points="1518,-30 1376,-30 1376,0 1518,0 1518,-30"/>
<text text-anchor="start" x="1384" y="-18" font-family="Helvetica,sans-Serif" font-size="10.00">libs/JSystem/J3DGraphBase</text>
<text text-anchor="middle" x="1447" y="-7" font-family="Helvetica,sans-Serif" font-size="10.00">/J3DPacket.cpp</text>
</a>
</g>
</g>
<!-- Node3&#45;&gt;Node12 -->
<g id="edge11" class="edge">
<title>Node3&#45;&gt;Node12</title>
<path fill="none" stroke="#63b8ff" d="M1546.12,-60.99C1524.47,-51.16 1498.47,-39.36 1478.54,-30.31"/>
<polygon fill="#63b8ff" stroke="#63b8ff" points="1544.43,-64.07 1554.98,-65.01 1547.32,-57.69 1544.43,-64.07"/>
</g>
<!-- Node13 -->
<g id="node13" class="node">
<title>Node13</title>
<g id="a_node13"><a xlink:href="d__a__alink_8cpp.html" target="_top" xlink:title=" ">
<polygon fill="white" stroke="#666666" points="2594.5,-24.5 2485.5,-24.5 2485.5,-5.5 2594.5,-5.5 2594.5,-24.5"/>
<text text-anchor="middle" x="2540" y="-12.5" font-family="Helvetica,sans-Serif" font-size="10.00">src/d/a/d_a_alink.cpp</text>
</a>
</g>
</g>
<!-- Node3&#45;&gt;Node13 -->
<g id="edge12" class="edge">
<title>Node3&#45;&gt;Node13</title>
<path fill="none" stroke="#63b8ff" d="M1667.15,-79.85C1822.95,-78.61 2180.09,-71.06 2477,-30 2485.99,-28.76 2495.6,-26.9 2504.53,-24.94"/>
<polygon fill="#63b8ff" stroke="#63b8ff" points="1667.32,-76.35 1657.35,-79.92 1667.37,-83.35 1667.32,-76.35"/>
</g>
<!-- Node14 -->
<g id="node14" class="node">
<title>Node14</title>
<g id="a_node14"><a xlink:href="d__a__npc_8cpp.html" target="_top" xlink:title=" ">
<polygon fill="white" stroke="#666666" points="1640,-24.5 1536,-24.5 1536,-5.5 1640,-5.5 1640,-24.5"/>
<text text-anchor="middle" x="1588" y="-12.5" font-family="Helvetica,sans-Serif" font-size="10.00">src/d/a/d_a_npc.cpp</text>
</a>
</g>
</g>
<!-- Node3&#45;&gt;Node14 -->
<g id="edge13" class="edge">
<title>Node3&#45;&gt;Node14</title>
<path fill="none" stroke="#63b8ff" d="M1588,-54.59C1588,-44.06 1588,-32.53 1588,-24.84"/>
<polygon fill="#63b8ff" stroke="#63b8ff" points="1584.5,-54.28 1588,-64.28 1591.5,-54.28 1584.5,-54.28"/>
</g>
<!-- Node15 -->
<g id="node15" class="node">
<title>Node15</title>
<g id="a_node15"><a xlink:href="d__model_8cpp.html" target="_top" xlink:title=" ">
<polygon fill="white" stroke="#666666" points="1754,-24.5 1658,-24.5 1658,-5.5 1754,-5.5 1754,-24.5"/>
<text text-anchor="middle" x="1706" y="-12.5" font-family="Helvetica,sans-Serif" font-size="10.00">src/d/d_model.cpp</text>
</a>
</g>
</g>
<!-- Node3&#45;&gt;Node15 -->
<g id="edge14" class="edge">
<title>Node3&#45;&gt;Node15</title>
<path fill="none" stroke="#63b8ff" d="M1624.38,-60.27C1646.1,-48.49 1672.64,-34.1 1689.43,-24.99"/>
<polygon fill="#63b8ff" stroke="#63b8ff" points="1622.93,-57.07 1615.81,-64.92 1626.27,-63.22 1622.93,-57.07"/>
</g>
<!-- Node16 -->
<g id="node16" class="node">
<title>Node16</title>
<g id="a_node16"><a xlink:href="d__resorce_8cpp.html" target="_top" xlink:title=" ">
<polygon fill="white" stroke="#666666" points="1874,-24.5 1772,-24.5 1772,-5.5 1874,-5.5 1874,-24.5"/>
<text text-anchor="middle" x="1823" y="-12.5" font-family="Helvetica,sans-Serif" font-size="10.00">src/d/d_resorce.cpp</text>
</a>
</g>
</g>
<!-- Node3&#45;&gt;Node16 -->
<g id="edge15" class="edge">
<title>Node3&#45;&gt;Node16</title>
<path fill="none" stroke="#63b8ff" d="M1652.08,-62.55C1696.73,-50.39 1754.45,-34.67 1790.09,-24.96"/>
<polygon fill="#63b8ff" stroke="#63b8ff" points="1651.22,-59.15 1642.49,-65.16 1653.06,-65.91 1651.22,-59.15"/>
</g>
<!-- Node17 -->
<g id="node17" class="node">
<title>Node17</title>
<g id="a_node17"><a xlink:href="d__file__select_8cpp.html" target="_top" xlink:title=" ">
<polygon fill="white" stroke="#666666" points="2020,-24.5 1892,-24.5 1892,-5.5 2020,-5.5 2020,-24.5"/>
<text text-anchor="middle" x="1956" y="-12.5" font-family="Helvetica,sans-Serif" font-size="10.00">src/d/file/d_file_select.cpp</text>
</a>
</g>
</g>
<!-- Node3&#45;&gt;Node17 -->
<g id="edge16" class="edge">
<title>Node3&#45;&gt;Node17</title>
<path fill="none" stroke="#63b8ff" d="M1666.92,-67.1C1726.38,-57.26 1809.88,-43.21 1883,-30 1891.76,-28.42 1901.1,-26.67 1910.08,-24.96"/>
<polygon fill="#63b8ff" stroke="#63b8ff" points="1666.53,-63.62 1657.23,-68.7 1667.67,-70.52 1666.53,-63.62"/>
</g>
<!-- Node18 -->
<g id="node18" class="node">
<title>Node18</title>
<g id="a_node18"><a xlink:href="d__kankyo_8cpp.html" target="_top" xlink:title=" ">
<polygon fill="white" stroke="#666666" points="2172,-24.5 2038,-24.5 2038,-5.5 2172,-5.5 2172,-24.5"/>
<text text-anchor="middle" x="2105" y="-12.5" font-family="Helvetica,sans-Serif" font-size="10.00">src/d/kankyo/d_kankyo.cpp</text>
</a>
</g>
</g>
<!-- Node3&#45;&gt;Node18 -->
<g id="edge17" class="edge">
<title>Node3&#45;&gt;Node18</title>
<path fill="none" stroke="#63b8ff" d="M1667.09,-72.7C1755.51,-64.15 1902.87,-48.75 2029,-30 2038.82,-28.54 2049.31,-26.76 2059.27,-24.95"/>
<polygon fill="#63b8ff" stroke="#63b8ff" points="1666.93,-69.2 1657.31,-73.64 1667.6,-76.17 1666.93,-69.2"/>
</g>
<!-- Node19 -->
<g id="node19" class="node">
<title>Node19</title>
<g id="a_node19"><a xlink:href="d__particle_8cpp.html" target="_top" xlink:title=" ">
<polygon fill="white" stroke="#666666" points="2326,-24.5 2190,-24.5 2190,-5.5 2326,-5.5 2326,-24.5"/>
<text text-anchor="middle" x="2258" y="-12.5" font-family="Helvetica,sans-Serif" font-size="10.00">src/d/particle/d_particle.cpp</text>
</a>
</g>
</g>
<!-- Node3&#45;&gt;Node19 -->
<g id="edge18" class="edge">
<title>Node3&#45;&gt;Node19</title>
<path fill="none" stroke="#63b8ff" d="M1667.19,-75.74C1781.14,-69.06 1997.82,-54.32 2181,-30 2191.37,-28.62 2202.47,-26.81 2212.92,-24.94"/>
<polygon fill="#63b8ff" stroke="#63b8ff" points="1667.11,-72.24 1657.33,-76.31 1667.51,-79.23 1667.11,-72.24"/>
</g>
<!-- Node20 -->
<g id="node20" class="node">
<title>Node20</title>
<g id="a_node20"><a xlink:href="m__Do__ext_8cpp.html" target="_top" xlink:title=" ">
<polygon fill="white" stroke="#666666" points="2467.5,-24.5 2344.5,-24.5 2344.5,-5.5 2467.5,-5.5 2467.5,-24.5"/>
<text text-anchor="middle" x="2406" y="-12.5" font-family="Helvetica,sans-Serif" font-size="10.00">src/m_Do/m_Do_ext.cpp</text>
</a>
</g>
</g>
<!-- Node3&#45;&gt;Node20 -->
<g id="edge19" class="edge">
<title>Node3&#45;&gt;Node20</title>
<path fill="none" stroke="#63b8ff" d="M1666.91,-78.03C1803.54,-73.89 2092.77,-61.86 2335,-30 2344.84,-28.71 2355.37,-26.88 2365.22,-24.97"/>
<polygon fill="#63b8ff" stroke="#63b8ff" points="1667.16,-74.52 1657.27,-78.32 1667.37,-81.52 1667.16,-74.52"/>
</g>
<!-- Node21&#45;&gt;Node13 -->
<g id="edge21" class="edge">
<title>Node21&#45;&gt;Node13</title>
<path fill="none" stroke="#63b8ff" d="M2801.28,-68.92C2749.35,-59.03 2671.55,-43.98 2604,-30 2596.31,-28.41 2588.12,-26.66 2580.26,-24.95"/>
<polygon fill="#63b8ff" stroke="#63b8ff" points="2800.32,-72.3 2810.8,-70.73 2801.63,-65.42 2800.32,-72.3"/>
</g>
<!-- Node22 -->
<g id="node22" class="node">
<title>Node22</title>
<g id="a_node22"><a xlink:href="d__a__player_8cpp.html" target="_top" xlink:title=" ">
<polygon fill="white" stroke="#666666" points="2727,-24.5 2613,-24.5 2613,-5.5 2727,-5.5 2727,-24.5"/>
<text text-anchor="middle" x="2670" y="-12.5" font-family="Helvetica,sans-Serif" font-size="10.00">src/d/a/d_a_player.cpp</text>
</a>
</g>
</g>
<!-- Node21&#45;&gt;Node22 -->
<g id="edge22" class="edge">
<title>Node21&#45;&gt;Node22</title>
<path fill="none" stroke="#63b8ff" d="M2822.7,-67.43C2785.51,-54.91 2729.34,-35.99 2696.5,-24.93"/>
<polygon fill="#63b8ff" stroke="#63b8ff" points="2821.55,-70.74 2832.15,-70.62 2823.79,-64.11 2821.55,-70.74"/>
</g>
<!-- Node23 -->
<g id="node23" class="node">
<title>Node23</title>
<g id="a_node23"><a xlink:href="d__com__inf__game_8cpp.html" target="_top" xlink:title=" ">
<polygon fill="white" stroke="#666666" points="2853,-30 2745,-30 2745,0 2853,0 2853,-30"/>
<text text-anchor="start" x="2753" y="-18" font-family="Helvetica,sans-Serif" font-size="10.00">src/d/com/d_com_inf</text>
<text text-anchor="middle" x="2799" y="-7" font-family="Helvetica,sans-Serif" font-size="10.00">_game.cpp</text>
</a>
</g>
</g>
<!-- Node21&#45;&gt;Node23 -->
<g id="edge23" class="edge">
<title>Node21&#45;&gt;Node23</title>
<path fill="none" stroke="#63b8ff" d="M2843.75,-62.95C2834.01,-52.73 2821.78,-39.9 2812.57,-30.23"/>
<polygon fill="#63b8ff" stroke="#63b8ff" points="2841.04,-65.18 2850.47,-70.01 2846.11,-60.35 2841.04,-65.18"/>
</g>
<!-- Node24 -->
<g id="node24" class="node">
<title>Node24</title>
<g id="a_node24"><a xlink:href="d__camera_8cpp.html" target="_top" xlink:title=" ">
<polygon fill="white" stroke="#666666" points="2973,-24.5 2871,-24.5 2871,-5.5 2973,-5.5 2973,-24.5"/>
<text text-anchor="middle" x="2922" y="-12.5" font-family="Helvetica,sans-Serif" font-size="10.00">src/d/d_camera.cpp</text>
</a>
</g>
</g>
<!-- Node21&#45;&gt;Node24 -->
<g id="edge24" class="edge">
<title>Node21&#45;&gt;Node24</title>
<path fill="none" stroke="#63b8ff" d="M2876.49,-62.98C2888.38,-50.7 2903.95,-34.63 2913.45,-24.82"/>
<polygon fill="#63b8ff" stroke="#63b8ff" points="2874.12,-60.4 2869.67,-70.01 2879.15,-65.27 2874.12,-60.4"/>
</g>
<!-- Node25 -->
<g id="node25" class="node">
<title>Node25</title>
<g id="a_node25"><a xlink:href="d__event_8cpp.html" target="_top" xlink:title=" ">
<polygon fill="white" stroke="#666666" points="3112.5,-24.5 2991.5,-24.5 2991.5,-5.5 3112.5,-5.5 3112.5,-24.5"/>
<text text-anchor="middle" x="3052" y="-12.5" font-family="Helvetica,sans-Serif" font-size="10.00">src/d/event/d_event.cpp</text>
</a>
</g>
</g>
<!-- Node21&#45;&gt;Node25 -->
<g id="edge25" class="edge">
<title>Node21&#45;&gt;Node25</title>
<path fill="none" stroke="#63b8ff" d="M2897.21,-67.6C2934.78,-55.07 2991.89,-36.04 3025.22,-24.93"/>
<polygon fill="#63b8ff" stroke="#63b8ff" points="2896.51,-64.14 2888.13,-70.62 2898.73,-70.78 2896.51,-64.14"/>
</g>
<!-- Node26 -->
<g id="node26" class="node">
<title>Node26</title>
<g id="a_node26"><a xlink:href="d__meter2__draw_8cpp.html" target="_top" xlink:title=" ">
<polygon fill="white" stroke="#666666" points="3241,-30 3131,-30 3131,0 3241,0 3241,-30"/>
<text text-anchor="start" x="3139" y="-18" font-family="Helvetica,sans-Serif" font-size="10.00">src/d/meter/d_meter2</text>
<text text-anchor="middle" x="3186" y="-7" font-family="Helvetica,sans-Serif" font-size="10.00">_draw.cpp</text>
</a>
</g>
</g>
<!-- Node21&#45;&gt;Node26 -->
<g id="edge26" class="edge">
<title>Node21&#45;&gt;Node26</title>
<path fill="none" stroke="#63b8ff" d="M2913.08,-68.79C2917.78,-67.83 2922.47,-66.89 2927,-66 3013.47,-48.99 3035.61,-47.42 3122,-30 3124.79,-29.44 3127.64,-28.85 3130.52,-28.25"/>
<polygon fill="#63b8ff" stroke="#63b8ff" points="2912.72,-65.29 2903.63,-70.73 2914.13,-72.15 2912.72,-65.29"/>
</g>
<!-- Node27 -->
<g id="node27" class="node">
<title>Node27</title>
<g id="a_node27"><a xlink:href="d__msg__flow_8cpp.html" target="_top" xlink:title=" ">
<polygon fill="white" stroke="#666666" points="3392.5,-24.5 3259.5,-24.5 3259.5,-5.5 3392.5,-5.5 3392.5,-24.5"/>
<text text-anchor="middle" x="3326" y="-12.5" font-family="Helvetica,sans-Serif" font-size="10.00">src/d/msg/d_msg_flow.cpp</text>
</a>
</g>
</g>
<!-- Node21&#45;&gt;Node27 -->
<g id="edge27" class="edge">
<title>Node21&#45;&gt;Node27</title>
<path fill="none" stroke="#63b8ff" d="M2910.93,-68.83C2916.34,-67.8 2921.77,-66.84 2927,-66 3069.63,-43.2 3107.1,-51.1 3250,-30 3259.82,-28.55 3270.32,-26.77 3280.27,-24.97"/>
<polygon fill="#63b8ff" stroke="#63b8ff" points="2910.53,-65.34 2901.4,-70.72 2911.89,-72.21 2910.53,-65.34"/>
</g>
<!-- Node28 -->
<g id="node28" class="node">
<title>Node28</title>
<g id="a_node28"><a xlink:href="f__op__actor_8cpp.html" target="_top" xlink:title=" ">
<polygon fill="white" stroke="#666666" points="3529.5,-24.5 3410.5,-24.5 3410.5,-5.5 3529.5,-5.5 3529.5,-24.5"/>
<text text-anchor="middle" x="3470" y="-12.5" font-family="Helvetica,sans-Serif" font-size="10.00">src/f_op/f_op_actor.cpp</text>
</a>
</g>
</g>
<!-- Node21&#45;&gt;Node28 -->
<g id="edge28" class="edge">
<title>Node21&#45;&gt;Node28</title>
<path fill="none" stroke="#63b8ff" d="M2909.58,-68.89C2915.43,-67.8 2921.34,-66.8 2927,-66 3136.62,-36.28 3192.34,-59.41 3402,-30 3411.31,-28.69 3421.26,-26.88 3430.59,-25"/>
<polygon fill="#63b8ff" stroke="#63b8ff" points="2909.09,-65.42 2899.95,-70.78 2910.44,-72.29 2909.09,-65.42"/>
</g>
</g>
</svg>
