<?xml version="1.0" encoding="UTF-8" standalone="no"?>
<!DOCTYPE svg PUBLIC "-//W3C//DTD SVG 1.1//EN"
 "http://www.w3.org/Graphics/SVG/1.1/DTD/svg11.dtd">
<!-- Generated by graphviz version 7.0.5 (20221223.1930)
 -->
<!-- Title: include/JSystem/JAudio2/JAISe.h Pages: 1 -->
<svg width="1389pt" height="489pt"
 viewBox="0.00 0.00 1389.00 489.00" xmlns="http://www.w3.org/2000/svg" xmlns:xlink="http://www.w3.org/1999/xlink">
<g id="graph0" class="graph" transform="scale(1 1) rotate(0) translate(4 485)">
<title>include/JSystem/JAudio2/JAISe.h</title>
<!-- Node1 -->
<g id="node1" class="node">
<title>Node1</title>
<g id="a_node1"><a xlink:title=" ">
<polygon fill="#999999" stroke="#666666" points="928.5,-481 801.5,-481 801.5,-451 928.5,-451 928.5,-481"/>
<text text-anchor="start" x="809.5" y="-469" font-family="Helvetica,sans-Serif" font-size="10.00">include/JSystem/JAudio2</text>
<text text-anchor="middle" x="865" y="-458" font-family="Helvetica,sans-Serif" font-size="10.00">/JAISe.h</text>
</a>
</g>
</g>
<!-- Node2 -->
<g id="node2" class="node">
<title>Node2</title>
<g id="a_node2"><a xlink:href="JAISeqDataMgr_8h.html" target="_top" xlink:title=" ">
<polygon fill="white" stroke="#666666" points="1072.5,-415 923.5,-415 923.5,-385 1072.5,-385 1072.5,-415"/>
<text text-anchor="start" x="931.5" y="-403" font-family="Helvetica,sans-Serif" font-size="10.00">JSystem/JAudio2/JAISeqData</text>
<text text-anchor="middle" x="998" y="-392" font-family="Helvetica,sans-Serif" font-size="10.00">Mgr.h</text>
</a>
</g>
</g>
<!-- Node1&#45;&gt;Node2 -->
<g id="edge1" class="edge">
<title>Node1&#45;&gt;Node2</title>
<path fill="none" stroke="#63b8ff" d="M894.85,-450.64C913.5,-441.66 937.75,-429.99 958.05,-420.23"/>
<polygon fill="#63b8ff" stroke="#63b8ff" points="959.39,-423.46 966.89,-415.97 956.36,-417.15 959.39,-423.46"/>
</g>
<!-- Node16 -->
<g id="node16" class="node">
<title>Node16</title>
<g id="a_node16"><a xlink:href="JASTrack_8h.html" target="_top" xlink:title=" ">
<polygon fill="white" stroke="#666666" points="573.5,-288.5 426.5,-288.5 426.5,-269.5 573.5,-269.5 573.5,-288.5"/>
<text text-anchor="middle" x="500" y="-276.5" font-family="Helvetica,sans-Serif" font-size="10.00">JSystem/JAudio2/JASTrack.h</text>
</a>
</g>
</g>
<!-- Node1&#45;&gt;Node16 -->
<g id="edge18" class="edge">
<title>Node1&#45;&gt;Node16</title>
<path fill="none" stroke="#63b8ff" d="M836.66,-450.64C768.3,-415.99 594.98,-328.14 527.49,-293.93"/>
<polygon fill="#63b8ff" stroke="#63b8ff" points="529.45,-291 518.95,-289.6 526.29,-297.25 529.45,-291"/>
</g>
<!-- Node24 -->
<g id="node24" class="node">
<title>Node24</title>
<g id="a_node24"><a xlink:href="JSUList_8h.html" target="_top" xlink:title=" ">
<polygon fill="white" stroke="#666666" points="936.5,-349 793.5,-349 793.5,-330 936.5,-330 936.5,-349"/>
<text text-anchor="middle" x="865" y="-337" font-family="Helvetica,sans-Serif" font-size="10.00">JSystem/JSupport/JSUList.h</text>
</a>
</g>
</g>
<!-- Node1&#45;&gt;Node24 -->
<g id="edge31" class="edge">
<title>Node1&#45;&gt;Node24</title>
<path fill="none" stroke="#63b8ff" d="M865,-450.72C865,-428.64 865,-386.12 865,-360.83"/>
<polygon fill="#63b8ff" stroke="#63b8ff" points="868.5,-360.9 865,-350.9 861.5,-360.9 868.5,-360.9"/>
</g>
<!-- Node3 -->
<g id="node3" class="node">
<title>Node3</title>
<g id="a_node3"><a xlink:href="JAISound_8h.html" target="_top" xlink:title=" ">
<polygon fill="white" stroke="#666666" points="1102,-349 956,-349 956,-330 1102,-330 1102,-349"/>
<text text-anchor="middle" x="1029" y="-337" font-family="Helvetica,sans-Serif" font-size="10.00">JSystem/JAudio2/JAISound.h</text>
</a>
</g>
</g>
<!-- Node2&#45;&gt;Node3 -->
<g id="edge2" class="edge">
<title>Node2&#45;&gt;Node3</title>
<path fill="none" stroke="#63b8ff" d="M1005.66,-384.54C1009.71,-376.91 1014.71,-367.46 1019.05,-359.27"/>
<polygon fill="#63b8ff" stroke="#63b8ff" points="1022.1,-360.99 1023.69,-350.51 1015.92,-357.71 1022.1,-360.99"/>
</g>
<!-- Node4 -->
<g id="node4" class="node">
<title>Node4</title>
<g id="a_node4"><a xlink:href="JAISoundParams_8h.html" target="_top" xlink:title=" ">
<polygon fill="white" stroke="#666666" points="1100.5,-294 961.5,-294 961.5,-264 1100.5,-264 1100.5,-294"/>
<text text-anchor="start" x="969.5" y="-282" font-family="Helvetica,sans-Serif" font-size="10.00">JSystem/JAudio2/JAISound</text>
<text text-anchor="middle" x="1031" y="-271" font-family="Helvetica,sans-Serif" font-size="10.00">Params.h</text>
</a>
</g>
</g>
<!-- Node3&#45;&gt;Node4 -->
<g id="edge3" class="edge">
<title>Node3&#45;&gt;Node4</title>
<path fill="none" stroke="#63b8ff" d="M1029.3,-329.87C1029.52,-323.4 1029.83,-314.2 1030.13,-305.45"/>
<polygon fill="#63b8ff" stroke="#63b8ff" points="1033.62,-305.74 1030.47,-295.63 1026.63,-305.5 1033.62,-305.74"/>
</g>
<!-- Node8 -->
<g id="node8" class="node">
<title>Node8</title>
<g id="a_node8"><a xlink:href="JAIAudible_8h.html" target="_top" xlink:title=" ">
<polygon fill="white" stroke="#666666" points="1294.5,-288.5 1143.5,-288.5 1143.5,-269.5 1294.5,-269.5 1294.5,-288.5"/>
<text text-anchor="middle" x="1219" y="-276.5" font-family="Helvetica,sans-Serif" font-size="10.00">JSystem/JAudio2/JAIAudible.h</text>
</a>
</g>
</g>
<!-- Node3&#45;&gt;Node8 -->
<g id="edge7" class="edge">
<title>Node3&#45;&gt;Node8</title>
<path fill="none" stroke="#63b8ff" d="M1057.86,-329.62C1090.22,-319.65 1142.92,-303.43 1179.18,-292.26"/>
<polygon fill="#63b8ff" stroke="#63b8ff" points="1179.9,-295.7 1188.42,-289.41 1177.84,-289.01 1179.9,-295.7"/>
</g>
<!-- Node15 -->
<g id="node15" class="node">
<title>Node15</title>
<g id="a_node15"><a xlink:href="global_8h.html" target="_top" xlink:title=" ">
<polygon fill="white" stroke="#666666" points="943,-288.5 893,-288.5 893,-269.5 943,-269.5 943,-288.5"/>
<text text-anchor="middle" x="918" y="-276.5" font-family="Helvetica,sans-Serif" font-size="10.00">global.h</text>
</a>
</g>
</g>
<!-- Node3&#45;&gt;Node15 -->
<g id="edge16" class="edge">
<title>Node3&#45;&gt;Node15</title>
<path fill="none" stroke="#63b8ff" d="M1012.14,-329.62C994.38,-320.25 966.12,-305.36 945.2,-294.33"/>
<polygon fill="#63b8ff" stroke="#63b8ff" points="946.83,-291.24 936.36,-289.67 943.57,-297.43 946.83,-291.24"/>
</g>
<!-- Node5 -->
<g id="node5" class="node">
<title>Node5</title>
<g id="a_node5"><a xlink:href="JASSoundParams_8h.html" target="_top" xlink:title=" ">
<polygon fill="white" stroke="#666666" points="1074.5,-162 931.5,-162 931.5,-132 1074.5,-132 1074.5,-162"/>
<text text-anchor="start" x="939.5" y="-150" font-family="Helvetica,sans-Serif" font-size="10.00">JSystem/JAudio2/JASSound</text>
<text text-anchor="middle" x="1003" y="-139" font-family="Helvetica,sans-Serif" font-size="10.00">Params.h</text>
</a>
</g>
</g>
<!-- Node4&#45;&gt;Node5 -->
<g id="edge4" class="edge">
<title>Node4&#45;&gt;Node5</title>
<path fill="none" stroke="#63b8ff" d="M1027.9,-263.59C1023.23,-241.92 1014.33,-200.62 1008.54,-173.7"/>
<polygon fill="#63b8ff" stroke="#63b8ff" points="1011.96,-172.99 1006.44,-163.95 1005.12,-174.47 1011.96,-172.99"/>
</g>
<!-- Node6 -->
<g id="node6" class="node">
<title>Node6</title>
<g id="a_node6"><a xlink:href="types_8h.html" target="_top" xlink:title=" ">
<polygon fill="white" stroke="#666666" points="792.5,-90.5 711.5,-90.5 711.5,-71.5 792.5,-71.5 792.5,-90.5"/>
<text text-anchor="middle" x="752" y="-78.5" font-family="Helvetica,sans-Serif" font-size="10.00">dolphin/types.h</text>
</a>
</g>
</g>
<!-- Node5&#45;&gt;Node6 -->
<g id="edge5" class="edge">
<title>Node5&#45;&gt;Node6</title>
<path fill="none" stroke="#63b8ff" d="M946.36,-131.56C901.59,-120.14 839.89,-104.41 798.11,-93.76"/>
<polygon fill="#63b8ff" stroke="#63b8ff" points="799.17,-90.42 788.62,-91.34 797.44,-97.2 799.17,-90.42"/>
</g>
<!-- Node7 -->
<g id="node7" class="node">
<title>Node7</title>
<g id="a_node7"><a xlink:href="stddef_8h.html" target="_top" xlink:title=" ">
<polygon fill="white" stroke="#666666" points="820,-30 684,-30 684,0 820,0 820,-30"/>
<text text-anchor="start" x="692" y="-18" font-family="Helvetica,sans-Serif" font-size="10.00">MSL_C/MSL_Common/Src</text>
<text text-anchor="middle" x="752" y="-7" font-family="Helvetica,sans-Serif" font-size="10.00">/stddef.h</text>
</a>
</g>
</g>
<!-- Node6&#45;&gt;Node7 -->
<g id="edge6" class="edge">
<title>Node6&#45;&gt;Node7</title>
<path fill="none" stroke="#63b8ff" d="M752,-71.1C752,-63.41 752,-51.92 752,-41.42"/>
<polygon fill="#63b8ff" stroke="#63b8ff" points="755.5,-41.75 752,-31.75 748.5,-41.75 755.5,-41.75"/>
</g>
<!-- Node9 -->
<g id="node9" class="node">
<title>Node9</title>
<g id="a_node9"><a xlink:href="JGeometry_8h.html" target="_top" xlink:title=" ">
<polygon fill="white" stroke="#666666" points="1288.5,-222.5 1175.5,-222.5 1175.5,-203.5 1288.5,-203.5 1288.5,-222.5"/>
<text text-anchor="middle" x="1232" y="-210.5" font-family="Helvetica,sans-Serif" font-size="10.00">JSystem/JGeometry.h</text>
</a>
</g>
</g>
<!-- Node8&#45;&gt;Node9 -->
<g id="edge8" class="edge">
<title>Node8&#45;&gt;Node9</title>
<path fill="none" stroke="#63b8ff" d="M1220.81,-269.1C1222.65,-260.03 1225.57,-245.64 1227.97,-233.85"/>
<polygon fill="#63b8ff" stroke="#63b8ff" points="1231.35,-234.8 1229.91,-224.31 1224.49,-233.41 1231.35,-234.8"/>
</g>
<!-- Node10 -->
<g id="node10" class="node">
<title>Node10</title>
<g id="a_node10"><a xlink:href="vec_8h.html" target="_top" xlink:title=" ">
<polygon fill="white" stroke="#666666" points="1185,-156.5 1093,-156.5 1093,-137.5 1185,-137.5 1185,-156.5"/>
<text text-anchor="middle" x="1139" y="-144.5" font-family="Helvetica,sans-Serif" font-size="10.00">dolphin/mtx/vec.h</text>
</a>
</g>
</g>
<!-- Node9&#45;&gt;Node10 -->
<g id="edge9" class="edge">
<title>Node9&#45;&gt;Node10</title>
<path fill="none" stroke="#63b8ff" d="M1219.07,-203.1C1204.15,-192.83 1179.35,-175.77 1161.3,-163.34"/>
<polygon fill="#63b8ff" stroke="#63b8ff" points="1163.29,-160.47 1153.07,-157.68 1159.32,-166.23 1163.29,-160.47"/>
</g>
<!-- Node11 -->
<g id="node11" class="node">
<title>Node11</title>
<g id="a_node11"><a xlink:href="float_8h.html" target="_top" xlink:title=" ">
<polygon fill="white" stroke="#666666" points="1381,-156.5 1303,-156.5 1303,-137.5 1381,-137.5 1381,-156.5"/>
<text text-anchor="middle" x="1342" y="-144.5" font-family="Helvetica,sans-Serif" font-size="10.00">MSL_C/float.h</text>
</a>
</g>
</g>
<!-- Node9&#45;&gt;Node11 -->
<g id="edge11" class="edge">
<title>Node9&#45;&gt;Node11</title>
<path fill="none" stroke="#63b8ff" d="M1247.3,-203.1C1265.36,-192.59 1295.65,-174.97 1317.1,-162.49"/>
<polygon fill="#63b8ff" stroke="#63b8ff" points="1318.64,-165.64 1325.53,-157.58 1315.12,-159.59 1318.64,-165.64"/>
</g>
<!-- Node14 -->
<g id="node14" class="node">
<title>Node14</title>
<g id="a_node14"><a xlink:href="math_8h.html" target="_top" xlink:title=" ">
<polygon fill="white" stroke="#666666" points="1285,-156.5 1203,-156.5 1203,-137.5 1285,-137.5 1285,-156.5"/>
<text text-anchor="middle" x="1244" y="-144.5" font-family="Helvetica,sans-Serif" font-size="10.00">MSL_C/math.h</text>
</a>
</g>
</g>
<!-- Node9&#45;&gt;Node14 -->
<g id="edge14" class="edge">
<title>Node9&#45;&gt;Node14</title>
<path fill="none" stroke="#63b8ff" d="M1233.67,-203.1C1235.37,-194.03 1238.07,-179.64 1240.28,-167.85"/>
<polygon fill="#63b8ff" stroke="#63b8ff" points="1243.66,-168.78 1242.07,-158.31 1236.78,-167.49 1243.66,-168.78"/>
</g>
<!-- Node10&#45;&gt;Node6 -->
<g id="edge10" class="edge">
<title>Node10&#45;&gt;Node6</title>
<path fill="none" stroke="#63b8ff" d="M1105.97,-137.02C1098.76,-135.22 1091.15,-133.44 1084,-132 985.77,-112.15 869.74,-96.41 804.12,-88.21"/>
<polygon fill="#63b8ff" stroke="#63b8ff" points="804.72,-84.76 794.36,-87.01 803.86,-91.71 804.72,-84.76"/>
</g>
<!-- Node12 -->
<g id="node12" class="node">
<title>Node12</title>
<g id="a_node12"><a xlink:href="MSL__Common_2Src_2float_8h.html" target="_top" xlink:title=" ">
<polygon fill="white" stroke="#666666" points="1361,-96 1225,-96 1225,-66 1361,-66 1361,-96"/>
<text text-anchor="start" x="1233" y="-84" font-family="Helvetica,sans-Serif" font-size="10.00">MSL_C/MSL_Common/Src</text>
<text text-anchor="middle" x="1293" y="-73" font-family="Helvetica,sans-Serif" font-size="10.00">/float.h</text>
</a>
</g>
</g>
<!-- Node11&#45;&gt;Node12 -->
<g id="edge12" class="edge">
<title>Node11&#45;&gt;Node12</title>
<path fill="none" stroke="#63b8ff" d="M1335.19,-137.1C1328.86,-128.84 1319.16,-116.17 1310.66,-105.06"/>
<polygon fill="#63b8ff" stroke="#63b8ff" points="1313.68,-103.25 1304.82,-97.44 1308.12,-107.5 1313.68,-103.25"/>
</g>
<!-- Node13 -->
<g id="node13" class="node">
<title>Node13</title>
<g id="a_node13"><a xlink:href="fdlibm_8h.html" target="_top" xlink:title=" ">
<polygon fill="white" stroke="#666666" points="1318,-24.5 1268,-24.5 1268,-5.5 1318,-5.5 1318,-24.5"/>
<text text-anchor="middle" x="1293" y="-12.5" font-family="Helvetica,sans-Serif" font-size="10.00">fdlibm.h</text>
</a>
</g>
</g>
<!-- Node12&#45;&gt;Node13 -->
<g id="edge13" class="edge">
<title>Node12&#45;&gt;Node13</title>
<path fill="none" stroke="#63b8ff" d="M1293,-65.8C1293,-57.09 1293,-45.81 1293,-36.18"/>
<polygon fill="#63b8ff" stroke="#63b8ff" points="1296.5,-36.36 1293,-26.36 1289.5,-36.36 1296.5,-36.36"/>
</g>
<!-- Node14&#45;&gt;Node12 -->
<g id="edge15" class="edge">
<title>Node14&#45;&gt;Node12</title>
<path fill="none" stroke="#63b8ff" d="M1250.81,-137.1C1257.14,-128.84 1266.84,-116.17 1275.34,-105.06"/>
<polygon fill="#63b8ff" stroke="#63b8ff" points="1277.88,-107.5 1281.18,-97.44 1272.32,-103.25 1277.88,-107.5"/>
</g>
<!-- Node15&#45;&gt;Node6 -->
<g id="edge17" class="edge">
<title>Node15&#45;&gt;Node6</title>
<path fill="none" stroke="#63b8ff" d="M918.23,-269.18C918.4,-244.34 915.5,-172.92 879,-132 859.68,-110.34 829.77,-97.96 803.83,-90.94"/>
<polygon fill="#63b8ff" stroke="#63b8ff" points="805.01,-87.63 794.46,-88.61 803.32,-94.42 805.01,-87.63"/>
</g>
<!-- Node17 -->
<g id="node17" class="node">
<title>Node17</title>
<g id="a_node17"><a xlink:href="JASGadget_8h.html" target="_top" xlink:title=" ">
<polygon fill="white" stroke="#666666" points="312,-222.5 158,-222.5 158,-203.5 312,-203.5 312,-222.5"/>
<text text-anchor="middle" x="235" y="-210.5" font-family="Helvetica,sans-Serif" font-size="10.00">JSystem/JAudio2/JASGadget.h</text>
</a>
</g>
</g>
<!-- Node16&#45;&gt;Node17 -->
<g id="edge19" class="edge">
<title>Node16&#45;&gt;Node17</title>
<path fill="none" stroke="#63b8ff" d="M462.87,-269.03C415.76,-257.66 334.43,-238.01 282.75,-225.53"/>
<polygon fill="#63b8ff" stroke="#63b8ff" points="283.89,-222.21 273.35,-223.26 282.24,-229.01 283.89,-222.21"/>
</g>
<!-- Node19 -->
<g id="node19" class="node">
<title>Node19</title>
<g id="a_node19"><a xlink:href="JASOscillator_8h.html" target="_top" xlink:title=" ">
<polygon fill="white" stroke="#666666" points="494,-222.5 330,-222.5 330,-203.5 494,-203.5 494,-222.5"/>
<text text-anchor="middle" x="412" y="-210.5" font-family="Helvetica,sans-Serif" font-size="10.00">JSystem/JAudio2/JASOscillator.h</text>
</a>
</g>
</g>
<!-- Node16&#45;&gt;Node19 -->
<g id="edge22" class="edge">
<title>Node16&#45;&gt;Node19</title>
<path fill="none" stroke="#63b8ff" d="M487.76,-269.1C473.71,-258.88 450.4,-241.93 433.34,-229.52"/>
<polygon fill="#63b8ff" stroke="#63b8ff" points="435.5,-226.76 425.36,-223.71 431.38,-232.43 435.5,-226.76"/>
</g>
<!-- Node20 -->
<g id="node20" class="node">
<title>Node20</title>
<g id="a_node20"><a xlink:href="JASRegisterParam_8h.html" target="_top" xlink:title=" ">
<polygon fill="white" stroke="#666666" points="663.5,-228 512.5,-228 512.5,-198 663.5,-198 663.5,-228"/>
<text text-anchor="start" x="520.5" y="-216" font-family="Helvetica,sans-Serif" font-size="10.00">JSystem/JAudio2/JASRegister</text>
<text text-anchor="middle" x="588" y="-205" font-family="Helvetica,sans-Serif" font-size="10.00">Param.h</text>
</a>
</g>
</g>
<!-- Node16&#45;&gt;Node20 -->
<g id="edge24" class="edge">
<title>Node16&#45;&gt;Node20</title>
<path fill="none" stroke="#63b8ff" d="M512.24,-269.1C524.32,-260.32 543.24,-246.55 559.15,-234.98"/>
<polygon fill="#63b8ff" stroke="#63b8ff" points="560.84,-238.08 566.87,-229.37 556.72,-232.42 560.84,-238.08"/>
</g>
<!-- Node21 -->
<g id="node21" class="node">
<title>Node21</title>
<g id="a_node21"><a xlink:href="JASSeqCtrl_8h.html" target="_top" xlink:title=" ">
<polygon fill="white" stroke="#666666" points="836.5,-222.5 681.5,-222.5 681.5,-203.5 836.5,-203.5 836.5,-222.5"/>
<text text-anchor="middle" x="759" y="-210.5" font-family="Helvetica,sans-Serif" font-size="10.00">JSystem/JAudio2/JASSeqCtrl.h</text>
</a>
</g>
</g>
<!-- Node16&#45;&gt;Node21 -->
<g id="edge26" class="edge">
<title>Node16&#45;&gt;Node21</title>
<path fill="none" stroke="#63b8ff" d="M536.29,-269.03C582.23,-257.68 661.49,-238.1 712.02,-225.61"/>
<polygon fill="#63b8ff" stroke="#63b8ff" points="712.62,-229.07 721.49,-223.27 710.94,-222.27 712.62,-229.07"/>
</g>
<!-- Node23 -->
<g id="node23" class="node">
<title>Node23</title>
<g id="a_node23"><a xlink:href="JASTrackPort_8h.html" target="_top" xlink:title=" ">
<polygon fill="white" stroke="#666666" points="140,-228 0,-228 0,-198 140,-198 140,-228"/>
<text text-anchor="start" x="8" y="-216" font-family="Helvetica,sans-Serif" font-size="10.00">JSystem/JAudio2/JASTrack</text>
<text text-anchor="middle" x="70" y="-205" font-family="Helvetica,sans-Serif" font-size="10.00">Port.h</text>
</a>
</g>
</g>
<!-- Node16&#45;&gt;Node23 -->
<g id="edge29" class="edge">
<title>Node16&#45;&gt;Node23</title>
<path fill="none" stroke="#63b8ff" d="M431.95,-269C363.65,-259.81 255.12,-244.79 151.5,-228.37"/>
<polygon fill="#63b8ff" stroke="#63b8ff" points="152.11,-224.92 141.69,-226.8 151.01,-231.83 152.11,-224.92"/>
</g>
<!-- Node18 -->
<g id="node18" class="node">
<title>Node18</title>
<g id="a_node18"><a xlink:href="JUTAssert_8h.html" target="_top" xlink:title=" ">
<polygon fill="white" stroke="#666666" points="429,-156.5 283,-156.5 283,-137.5 429,-137.5 429,-156.5"/>
<text text-anchor="middle" x="356" y="-144.5" font-family="Helvetica,sans-Serif" font-size="10.00">JSystem/JUtility/JUTAssert.h</text>
</a>
</g>
</g>
<!-- Node17&#45;&gt;Node18 -->
<g id="edge20" class="edge">
<title>Node17&#45;&gt;Node18</title>
<path fill="none" stroke="#63b8ff" d="M251.82,-203.1C271.87,-192.5 305.62,-174.65 329.26,-162.15"/>
<polygon fill="#63b8ff" stroke="#63b8ff" points="330.78,-165.3 337.98,-157.53 327.5,-159.11 330.78,-165.3"/>
</g>
<!-- Node18&#45;&gt;Node6 -->
<g id="edge21" class="edge">
<title>Node18&#45;&gt;Node6</title>
<path fill="none" stroke="#63b8ff" d="M411.48,-137.03C488.11,-124.65 625.34,-102.47 700.06,-90.39"/>
<polygon fill="#63b8ff" stroke="#63b8ff" points="700.25,-93.91 709.56,-88.86 699.13,-87 700.25,-93.91"/>
</g>
<!-- Node19&#45;&gt;Node6 -->
<g id="edge23" class="edge">
<title>Node19&#45;&gt;Node6</title>
<path fill="none" stroke="#63b8ff" d="M435.37,-203.06C494.21,-180.57 648.67,-121.51 717.75,-95.09"/>
<polygon fill="#63b8ff" stroke="#63b8ff" points="718.96,-98.38 727.05,-91.54 716.46,-91.84 718.96,-98.38"/>
</g>
<!-- Node20&#45;&gt;Node6 -->
<g id="edge25" class="edge">
<title>Node20&#45;&gt;Node6</title>
<path fill="none" stroke="#63b8ff" d="M598.07,-197.58C610.61,-180.37 633.42,-151.49 658,-132 676.85,-117.05 700.84,-104.38 719.86,-95.53"/>
<polygon fill="#63b8ff" stroke="#63b8ff" points="721.08,-98.82 728.75,-91.52 718.2,-92.44 721.08,-98.82"/>
</g>
<!-- Node22 -->
<g id="node22" class="node">
<title>Node22</title>
<g id="a_node22"><a xlink:href="JASSeqReader_8h.html" target="_top" xlink:title=" ">
<polygon fill="white" stroke="#666666" points="837,-156.5 667,-156.5 667,-137.5 837,-137.5 837,-156.5"/>
<text text-anchor="middle" x="752" y="-144.5" font-family="Helvetica,sans-Serif" font-size="10.00">JSystem/JAudio2/JASSeqReader.h</text>
</a>
</g>
</g>
<!-- Node21&#45;&gt;Node22 -->
<g id="edge27" class="edge">
<title>Node21&#45;&gt;Node22</title>
<path fill="none" stroke="#63b8ff" d="M758.03,-203.1C757.04,-194.12 755.49,-179.95 754.21,-168.22"/>
<polygon fill="#63b8ff" stroke="#63b8ff" points="757.7,-167.89 753.13,-158.33 750.74,-168.65 757.7,-167.89"/>
</g>
<!-- Node22&#45;&gt;Node6 -->
<g id="edge28" class="edge">
<title>Node22&#45;&gt;Node6</title>
<path fill="none" stroke="#63b8ff" d="M752,-137.1C752,-128.12 752,-113.95 752,-102.22"/>
<polygon fill="#63b8ff" stroke="#63b8ff" points="755.5,-102.34 752,-92.34 748.5,-102.34 755.5,-102.34"/>
</g>
<!-- Node23&#45;&gt;Node6 -->
<g id="edge30" class="edge">
<title>Node23&#45;&gt;Node6</title>
<path fill="none" stroke="#63b8ff" d="M99.25,-197.62C138.15,-179.18 209.5,-147.71 274,-132 425.68,-95.05 610.97,-85.4 699.72,-82.89"/>
<polygon fill="#63b8ff" stroke="#63b8ff" points="699.67,-86.39 709.57,-82.63 699.48,-79.39 699.67,-86.39"/>
</g>
<!-- Node24&#45;&gt;Node6 -->
<g id="edge32" class="edge">
<title>Node24&#45;&gt;Node6</title>
<path fill="none" stroke="#63b8ff" d="M866.91,-329.69C872.98,-299.25 889.06,-196.75 846,-132 834.36,-114.5 814.52,-102.68 796.06,-94.95"/>
<polygon fill="#63b8ff" stroke="#63b8ff" points="797.43,-91.73 786.84,-91.4 794.91,-98.26 797.43,-91.73"/>
</g>
</g>
</svg>
