<?xml version="1.0" encoding="UTF-8" standalone="no"?>
<!DOCTYPE svg PUBLIC "-//W3C//DTD SVG 1.1//EN"
 "http://www.w3.org/Graphics/SVG/1.1/DTD/svg11.dtd">
<!-- Generated by graphviz version 7.0.5 (20221223.1930)
 -->
<!-- Title: include/JSystem/JAudio2/JAISeq.h Pages: 1 -->
<!--zoomable 478 -->
<svg id="main" version="1.1" xmlns="http://www.w3.org/2000/svg" xmlns:xlink="http://www.w3.org/1999/xlink" xml:space="preserve" onload="init(evt)">
<style type="text/css"><![CDATA[
.edge:hover path { stroke: red; }
.edge:hover polygon { stroke: red; fill: red; }
]]></style>
<script type="text/javascript"><![CDATA[
var edges = document.getElementsByTagName('g');
if (edges && edges.length) {
  for (var i=0;i<edges.length;i++) {
    if (edges[i].id.substr(0,4)=='edge') {
      edges[i].setAttribute('class','edge');
    }
  }
}
]]></script>
        <defs>
                <circle id="rim" cx="0" cy="0" r="7"/>
                <circle id="rim2" cx="0" cy="0" r="3.5"/>
                <g id="zoomPlus">
                        <use xlink:href="#rim" fill="#404040">
                                <set attributeName="fill" to="#808080" begin="zoomplus.mouseover" end="zoomplus.mouseout"/>
                        </use>
                        <path d="M-4,0h8M0,-4v8" fill="none" stroke="white" stroke-width="1.5" pointer-events="none"/>
                </g>
                <g id="zoomMin">
                        <use xlink:href="#rim" fill="#404040">
                                <set attributeName="fill" to="#808080" begin="zoomminus.mouseover" end="zoomminus.mouseout"/>
                        </use>
                        <path d="M-4,0h8" fill="none" stroke="white" stroke-width="1.5" pointer-events="none"/>
                </g>
                <g id="dirArrow">
                        <path fill="none" stroke="white" stroke-width="1.5" d="M0,-3.0v7 M-2.5,-0.5L0,-3.0L2.5,-0.5"/>
                </g>
               <g id="resetDef">
                       <use xlink:href="#rim2" fill="#404040">
                               <set attributeName="fill" to="#808080" begin="reset.mouseover" end="reset.mouseout"/>
                       </use>
               </g>
        </defs>

<script type="text/javascript">
var viewWidth = 1529;
var viewHeight = 478;
var sectionId = 'dynsection-0';
</script>
<script xlink:href="svgpan.js"/>
<svg id="graph" class="graph">
<g id="viewport">
<title>include/JSystem/JAudio2/JAISeq.h</title>
<!-- Node1 -->
<g id="node1" class="node">
<title>Node1</title>
<g id="a_node1"><a xlink:title=" ">
<polygon fill="#999999" stroke="#666666" points="654.5,-470 527.5,-470 527.5,-440 654.5,-440 654.5,-470"/>
<text text-anchor="start" x="535.5" y="-458" font-family="Helvetica,sans-Serif" font-size="10.00">include/JSystem/JAudio2</text>
<text text-anchor="middle" x="591" y="-447" font-family="Helvetica,sans-Serif" font-size="10.00">/JAISeq.h</text>
</a>
</g>
</g>
<!-- Node2 -->
<g id="node2" class="node">
<title>Node2</title>
<g id="a_node2"><a xlink:href="JAISeqDataMgr_8h.html" target="_top" xlink:title=" ">
<polygon fill="white" stroke="#666666" points="480.5,-404 331.5,-404 331.5,-374 480.5,-374 480.5,-404"/>
<text text-anchor="start" x="339.5" y="-392" font-family="Helvetica,sans-Serif" font-size="10.00">JSystem/JAudio2/JAISeqData</text>
<text text-anchor="middle" x="406" y="-381" font-family="Helvetica,sans-Serif" font-size="10.00">Mgr.h</text>
</a>
</g>
</g>
<!-- Node1&#45;&gt;Node2 -->
<g id="edge1" class="edge">
<title>Node1&#45;&gt;Node2</title>
<path fill="none" stroke="#63b8ff" d="M549.48,-439.64C522.56,-430.32 487.26,-418.11 458.41,-408.13"/>
<polygon fill="#63b8ff" stroke="#63b8ff" points="459.72,-404.88 449.13,-404.92 457.44,-411.5 459.72,-404.88"/>
</g>
<!-- Node16 -->
<g id="node16" class="node">
<title>Node16</title>
<g id="a_node16"><a xlink:href="JASHeapCtrl_8h.html" target="_top" xlink:title=" ">
<polygon fill="white" stroke="#666666" points="744.5,-338 583.5,-338 583.5,-319 744.5,-319 744.5,-338"/>
<text text-anchor="middle" x="664" y="-326" font-family="Helvetica,sans-Serif" font-size="10.00">JSystem/JAudio2/JASHeapCtrl.h</text>
</a>
</g>
</g>
<!-- Node1&#45;&gt;Node16 -->
<g id="edge18" class="edge">
<title>Node1&#45;&gt;Node16</title>
<path fill="none" stroke="#63b8ff" d="M599.37,-439.72C612.62,-417.13 638.4,-373.16 653.08,-348.12"/>
<polygon fill="#63b8ff" stroke="#63b8ff" points="655.99,-350.08 658.03,-339.69 649.95,-346.54 655.99,-350.08"/>
</g>
<!-- Node17 -->
<g id="node17" class="node">
<title>Node17</title>
<g id="a_node17"><a xlink:href="JSUList_8h.html" target="_top" xlink:title=" ">
<polygon fill="white" stroke="#666666" points="599.5,-277.5 456.5,-277.5 456.5,-258.5 599.5,-258.5 599.5,-277.5"/>
<text text-anchor="middle" x="528" y="-265.5" font-family="Helvetica,sans-Serif" font-size="10.00">JSystem/JSupport/JSUList.h</text>
</a>
</g>
</g>
<!-- Node1&#45;&gt;Node17 -->
<g id="edge40" class="edge">
<title>Node1&#45;&gt;Node17</title>
<path fill="none" stroke="#63b8ff" d="M586.16,-439.79C574.98,-406.96 547.34,-325.8 534.61,-288.42"/>
<polygon fill="#63b8ff" stroke="#63b8ff" points="538.07,-287.71 531.53,-279.37 531.44,-289.97 538.07,-287.71"/>
</g>
<!-- Node22 -->
<g id="node22" class="node">
<title>Node22</title>
<g id="a_node22"><a xlink:href="JASTrack_8h.html" target="_top" xlink:title=" ">
<polygon fill="white" stroke="#666666" points="1100.5,-277.5 953.5,-277.5 953.5,-258.5 1100.5,-258.5 1100.5,-277.5"/>
<text text-anchor="middle" x="1027" y="-265.5" font-family="Helvetica,sans-Serif" font-size="10.00">JSystem/JAudio2/JASTrack.h</text>
</a>
</g>
</g>
<!-- Node1&#45;&gt;Node22 -->
<g id="edge27" class="edge">
<title>Node1&#45;&gt;Node22</title>
<path fill="none" stroke="#63b8ff" d="M624.85,-439.64C707.02,-404.77 916.11,-316.05 995.64,-282.31"/>
<polygon fill="#63b8ff" stroke="#63b8ff" points="996.75,-285.64 1004.59,-278.51 994.01,-279.19 996.75,-285.64"/>
</g>
<!-- Node3 -->
<g id="node3" class="node">
<title>Node3</title>
<g id="a_node3"><a xlink:href="JAISound_8h.html" target="_top" xlink:title=" ">
<polygon fill="white" stroke="#666666" points="386,-338 240,-338 240,-319 386,-319 386,-338"/>
<text text-anchor="middle" x="313" y="-326" font-family="Helvetica,sans-Serif" font-size="10.00">JSystem/JAudio2/JAISound.h</text>
</a>
</g>
</g>
<!-- Node2&#45;&gt;Node3 -->
<g id="edge2" class="edge">
<title>Node2&#45;&gt;Node3</title>
<path fill="none" stroke="#63b8ff" d="M383.01,-373.54C368.9,-364.66 350.87,-353.32 336.64,-344.37"/>
<polygon fill="#63b8ff" stroke="#63b8ff" points="338.67,-341.51 328.34,-339.15 334.95,-347.44 338.67,-341.51"/>
</g>
<!-- Node4 -->
<g id="node4" class="node">
<title>Node4</title>
<g id="a_node4"><a xlink:href="JAISoundParams_8h.html" target="_top" xlink:title=" ">
<polygon fill="white" stroke="#666666" points="438.5,-283 299.5,-283 299.5,-253 438.5,-253 438.5,-283"/>
<text text-anchor="start" x="307.5" y="-271" font-family="Helvetica,sans-Serif" font-size="10.00">JSystem/JAudio2/JAISound</text>
<text text-anchor="middle" x="369" y="-260" font-family="Helvetica,sans-Serif" font-size="10.00">Params.h</text>
</a>
</g>
</g>
<!-- Node3&#45;&gt;Node4 -->
<g id="edge3" class="edge">
<title>Node3&#45;&gt;Node4</title>
<path fill="none" stroke="#63b8ff" d="M321.26,-318.87C328.23,-311.59 338.51,-300.85 347.75,-291.2"/>
<polygon fill="#63b8ff" stroke="#63b8ff" points="350.06,-293.85 354.44,-284.21 345,-289.01 350.06,-293.85"/>
</g>
<!-- Node8 -->
<g id="node8" class="node">
<title>Node8</title>
<g id="a_node8"><a xlink:href="JAIAudible_8h.html" target="_top" xlink:title=" ">
<polygon fill="white" stroke="#666666" points="212.5,-277.5 61.5,-277.5 61.5,-258.5 212.5,-258.5 212.5,-277.5"/>
<text text-anchor="middle" x="137" y="-265.5" font-family="Helvetica,sans-Serif" font-size="10.00">JSystem/JAudio2/JAIAudible.h</text>
</a>
</g>
</g>
<!-- Node3&#45;&gt;Node8 -->
<g id="edge7" class="edge">
<title>Node3&#45;&gt;Node8</title>
<path fill="none" stroke="#63b8ff" d="M286.27,-318.62C256.55,-308.74 208.32,-292.71 174.75,-281.55"/>
<polygon fill="#63b8ff" stroke="#63b8ff" points="176.01,-278.28 165.42,-278.45 173.8,-284.92 176.01,-278.28"/>
</g>
<!-- Node15 -->
<g id="node15" class="node">
<title>Node15</title>
<g id="a_node15"><a xlink:href="global_8h.html" target="_top" xlink:title=" ">
<polygon fill="white" stroke="#666666" points="281,-277.5 231,-277.5 231,-258.5 281,-258.5 281,-277.5"/>
<text text-anchor="middle" x="256" y="-265.5" font-family="Helvetica,sans-Serif" font-size="10.00">global.h</text>
</a>
</g>
</g>
<!-- Node3&#45;&gt;Node15 -->
<g id="edge16" class="edge">
<title>Node3&#45;&gt;Node15</title>
<path fill="none" stroke="#63b8ff" d="M304.59,-318.87C296.09,-310.14 282.73,-296.43 272.17,-285.59"/>
<polygon fill="#63b8ff" stroke="#63b8ff" points="274.99,-283.47 265.5,-278.75 269.97,-288.36 274.99,-283.47"/>
</g>
<!-- Node5 -->
<g id="node5" class="node">
<title>Node5</title>
<g id="a_node5"><a xlink:href="JASSoundParams_8h.html" target="_top" xlink:title=" ">
<polygon fill="white" stroke="#666666" points="487.5,-217 344.5,-217 344.5,-187 487.5,-187 487.5,-217"/>
<text text-anchor="start" x="352.5" y="-205" font-family="Helvetica,sans-Serif" font-size="10.00">JSystem/JAudio2/JASSound</text>
<text text-anchor="middle" x="416" y="-194" font-family="Helvetica,sans-Serif" font-size="10.00">Params.h</text>
</a>
</g>
</g>
<!-- Node4&#45;&gt;Node5 -->
<g id="edge4" class="edge">
<title>Node4&#45;&gt;Node5</title>
<path fill="none" stroke="#63b8ff" d="M379.43,-252.8C385.15,-245.01 392.39,-235.16 398.91,-226.28"/>
<polygon fill="#63b8ff" stroke="#63b8ff" points="401.6,-228.52 404.7,-218.38 395.96,-224.37 401.6,-228.52"/>
</g>
<!-- Node6 -->
<g id="node6" class="node">
<title>Node6</title>
<g id="a_node6"><a xlink:href="types_8h.html" target="_top" xlink:title=" ">
<polygon fill="white" stroke="#666666" points="783.5,-90.5 702.5,-90.5 702.5,-71.5 783.5,-71.5 783.5,-90.5"/>
<text text-anchor="middle" x="743" y="-78.5" font-family="Helvetica,sans-Serif" font-size="10.00">dolphin/types.h</text>
</a>
</g>
</g>
<!-- Node5&#45;&gt;Node6 -->
<g id="edge5" class="edge">
<title>Node5&#45;&gt;Node6</title>
<path fill="none" stroke="#63b8ff" d="M429.47,-186.72C445.3,-170.84 473.08,-145.63 502,-132 563.14,-103.19 640.74,-90.89 691.11,-85.7"/>
<polygon fill="#63b8ff" stroke="#63b8ff" points="691.24,-89.21 700.86,-84.76 690.57,-82.24 691.24,-89.21"/>
</g>
<!-- Node7 -->
<g id="node7" class="node">
<title>Node7</title>
<g id="a_node7"><a xlink:href="stddef_8h.html" target="_top" xlink:title=" ">
<polygon fill="white" stroke="#666666" points="811,-30 675,-30 675,0 811,0 811,-30"/>
<text text-anchor="start" x="683" y="-18" font-family="Helvetica,sans-Serif" font-size="10.00">MSL_C/MSL_Common/Src</text>
<text text-anchor="middle" x="743" y="-7" font-family="Helvetica,sans-Serif" font-size="10.00">/stddef.h</text>
</a>
</g>
</g>
<!-- Node6&#45;&gt;Node7 -->
<g id="edge6" class="edge">
<title>Node6&#45;&gt;Node7</title>
<path fill="none" stroke="#63b8ff" d="M743,-71.1C743,-63.41 743,-51.92 743,-41.42"/>
<polygon fill="#63b8ff" stroke="#63b8ff" points="746.5,-41.75 743,-31.75 739.5,-41.75 746.5,-41.75"/>
</g>
<!-- Node9 -->
<g id="node9" class="node">
<title>Node9</title>
<g id="a_node9"><a xlink:href="JGeometry_8h.html" target="_top" xlink:title=" ">
<polygon fill="white" stroke="#666666" points="193.5,-211.5 80.5,-211.5 80.5,-192.5 193.5,-192.5 193.5,-211.5"/>
<text text-anchor="middle" x="137" y="-199.5" font-family="Helvetica,sans-Serif" font-size="10.00">JSystem/JGeometry.h</text>
</a>
</g>
</g>
<!-- Node8&#45;&gt;Node9 -->
<g id="edge8" class="edge">
<title>Node8&#45;&gt;Node9</title>
<path fill="none" stroke="#63b8ff" d="M137,-258.1C137,-249.12 137,-234.95 137,-223.22"/>
<polygon fill="#63b8ff" stroke="#63b8ff" points="140.5,-223.34 137,-213.34 133.5,-223.34 140.5,-223.34"/>
</g>
<!-- Node10 -->
<g id="node10" class="node">
<title>Node10</title>
<g id="a_node10"><a xlink:href="vec_8h.html" target="_top" xlink:title=" ">
<polygon fill="white" stroke="#666666" points="288,-151 196,-151 196,-132 288,-132 288,-151"/>
<text text-anchor="middle" x="242" y="-139" font-family="Helvetica,sans-Serif" font-size="10.00">dolphin/mtx/vec.h</text>
</a>
</g>
</g>
<!-- Node9&#45;&gt;Node10 -->
<g id="edge9" class="edge">
<title>Node9&#45;&gt;Node10</title>
<path fill="none" stroke="#63b8ff" d="M152.95,-192.12C169.68,-182.79 196.23,-168 216,-156.99"/>
<polygon fill="#63b8ff" stroke="#63b8ff" points="217.55,-160.13 224.58,-152.21 214.14,-154.01 217.55,-160.13"/>
</g>
<!-- Node11 -->
<g id="node11" class="node">
<title>Node11</title>
<g id="a_node11"><a xlink:href="float_8h.html" target="_top" xlink:title=" ">
<polygon fill="white" stroke="#666666" points="78,-151 0,-151 0,-132 78,-132 78,-151"/>
<text text-anchor="middle" x="39" y="-139" font-family="Helvetica,sans-Serif" font-size="10.00">MSL_C/float.h</text>
</a>
</g>
</g>
<!-- Node9&#45;&gt;Node11 -->
<g id="edge11" class="edge">
<title>Node9&#45;&gt;Node11</title>
<path fill="none" stroke="#63b8ff" d="M122.12,-192.12C106.65,-182.88 82.17,-168.27 63.78,-157.29"/>
<polygon fill="#63b8ff" stroke="#63b8ff" points="65.7,-154.36 55.32,-152.24 62.12,-160.38 65.7,-154.36"/>
</g>
<!-- Node14 -->
<g id="node14" class="node">
<title>Node14</title>
<g id="a_node14"><a xlink:href="math_8h.html" target="_top" xlink:title=" ">
<polygon fill="white" stroke="#666666" points="178,-151 96,-151 96,-132 178,-132 178,-151"/>
<text text-anchor="middle" x="137" y="-139" font-family="Helvetica,sans-Serif" font-size="10.00">MSL_C/math.h</text>
</a>
</g>
</g>
<!-- Node9&#45;&gt;Node14 -->
<g id="edge14" class="edge">
<title>Node9&#45;&gt;Node14</title>
<path fill="none" stroke="#63b8ff" d="M137,-192.37C137,-184.5 137,-172.6 137,-162.39"/>
<polygon fill="#63b8ff" stroke="#63b8ff" points="140.5,-162.68 137,-152.68 133.5,-162.68 140.5,-162.68"/>
</g>
<!-- Node10&#45;&gt;Node6 -->
<g id="edge10" class="edge">
<title>Node10&#45;&gt;Node6</title>
<path fill="none" stroke="#63b8ff" d="M288.5,-133.78C293.06,-133.16 297.62,-132.56 302,-132 442.38,-114.1 608.32,-96.15 690.89,-87.43"/>
<polygon fill="#63b8ff" stroke="#63b8ff" points="691.14,-90.93 700.71,-86.4 690.4,-83.97 691.14,-90.93"/>
</g>
<!-- Node12 -->
<g id="node12" class="node">
<title>Node12</title>
<g id="a_node12"><a xlink:href="MSL__Common_2Src_2float_8h.html" target="_top" xlink:title=" ">
<polygon fill="white" stroke="#666666" points="156,-96 20,-96 20,-66 156,-66 156,-96"/>
<text text-anchor="start" x="28" y="-84" font-family="Helvetica,sans-Serif" font-size="10.00">MSL_C/MSL_Common/Src</text>
<text text-anchor="middle" x="88" y="-73" font-family="Helvetica,sans-Serif" font-size="10.00">/float.h</text>
</a>
</g>
</g>
<!-- Node11&#45;&gt;Node12 -->
<g id="edge12" class="edge">
<title>Node11&#45;&gt;Node12</title>
<path fill="none" stroke="#63b8ff" d="M46.23,-131.87C52.2,-124.74 60.96,-114.28 68.91,-104.79"/>
<polygon fill="#63b8ff" stroke="#63b8ff" points="71.47,-107.19 75.21,-97.27 66.1,-102.69 71.47,-107.19"/>
</g>
<!-- Node13 -->
<g id="node13" class="node">
<title>Node13</title>
<g id="a_node13"><a xlink:href="fdlibm_8h.html" target="_top" xlink:title=" ">
<polygon fill="white" stroke="#666666" points="113,-24.5 63,-24.5 63,-5.5 113,-5.5 113,-24.5"/>
<text text-anchor="middle" x="88" y="-12.5" font-family="Helvetica,sans-Serif" font-size="10.00">fdlibm.h</text>
</a>
</g>
</g>
<!-- Node12&#45;&gt;Node13 -->
<g id="edge13" class="edge">
<title>Node12&#45;&gt;Node13</title>
<path fill="none" stroke="#63b8ff" d="M88,-65.8C88,-57.09 88,-45.81 88,-36.18"/>
<polygon fill="#63b8ff" stroke="#63b8ff" points="91.5,-36.36 88,-26.36 84.5,-36.36 91.5,-36.36"/>
</g>
<!-- Node14&#45;&gt;Node12 -->
<g id="edge15" class="edge">
<title>Node14&#45;&gt;Node12</title>
<path fill="none" stroke="#63b8ff" d="M129.77,-131.87C123.8,-124.74 115.04,-114.28 107.09,-104.79"/>
<polygon fill="#63b8ff" stroke="#63b8ff" points="109.9,-102.69 100.79,-97.27 104.53,-107.19 109.9,-102.69"/>
</g>
<!-- Node15&#45;&gt;Node6 -->
<g id="edge17" class="edge">
<title>Node15&#45;&gt;Node6</title>
<path fill="none" stroke="#63b8ff" d="M262.71,-258.17C275.31,-242.1 304.06,-207.8 335,-187 446.63,-111.95 608.43,-90.54 690.71,-84.44"/>
<polygon fill="#63b8ff" stroke="#63b8ff" points="690.77,-87.94 700.51,-83.76 690.29,-80.96 690.77,-87.94"/>
</g>
<!-- Node16&#45;&gt;Node17 -->
<g id="edge19" class="edge">
<title>Node16&#45;&gt;Node17</title>
<path fill="none" stroke="#63b8ff" d="M643.34,-318.62C620.98,-308.99 585.04,-293.54 559.23,-282.43"/>
<polygon fill="#63b8ff" stroke="#63b8ff" points="560.81,-279.3 550.24,-278.57 558.04,-285.73 560.81,-279.3"/>
</g>
<!-- Node18 -->
<g id="node18" class="node">
<title>Node18</title>
<g id="a_node18"><a xlink:href="OSInterrupt_8h.html" target="_top" xlink:title=" ">
<polygon fill="white" stroke="#666666" points="804,-151 682,-151 682,-132 804,-132 804,-151"/>
<text text-anchor="middle" x="743" y="-139" font-family="Helvetica,sans-Serif" font-size="10.00">dolphin/os/OSInterrupt.h</text>
</a>
</g>
</g>
<!-- Node16&#45;&gt;Node18 -->
<g id="edge21" class="edge">
<title>Node16&#45;&gt;Node18</title>
<path fill="none" stroke="#63b8ff" d="M692.23,-318.57C708.94,-311.69 728.79,-300.35 739,-283 761.32,-245.08 754.18,-190.87 748.01,-162.14"/>
<polygon fill="#63b8ff" stroke="#63b8ff" points="751.48,-161.59 745.78,-152.66 744.66,-163.2 751.48,-161.59"/>
</g>
<!-- Node19 -->
<g id="node19" class="node">
<title>Node19</title>
<g id="a_node19"><a xlink:href="OSMutex_8h.html" target="_top" xlink:title=" ">
<polygon fill="white" stroke="#666666" points="730,-277.5 618,-277.5 618,-258.5 730,-258.5 730,-277.5"/>
<text text-anchor="middle" x="674" y="-265.5" font-family="Helvetica,sans-Serif" font-size="10.00">dolphin/os/OSMutex.h</text>
</a>
</g>
</g>
<!-- Node16&#45;&gt;Node19 -->
<g id="edge23" class="edge">
<title>Node16&#45;&gt;Node19</title>
<path fill="none" stroke="#63b8ff" d="M665.48,-318.87C666.82,-311 668.86,-299.1 670.6,-288.89"/>
<polygon fill="#63b8ff" stroke="#63b8ff" points="674.03,-289.61 672.26,-279.16 667.13,-288.43 674.03,-289.61"/>
</g>
<!-- Node17&#45;&gt;Node6 -->
<g id="edge20" class="edge">
<title>Node17&#45;&gt;Node6</title>
<path fill="none" stroke="#63b8ff" d="M525.26,-258.16C518.54,-234.57 503.95,-169.36 535,-132 554.67,-108.33 636.03,-94.35 690.97,-87.44"/>
<polygon fill="#63b8ff" stroke="#63b8ff" points="691.25,-90.93 700.76,-86.25 690.41,-83.98 691.25,-90.93"/>
</g>
<!-- Node18&#45;&gt;Node6 -->
<g id="edge22" class="edge">
<title>Node18&#45;&gt;Node6</title>
<path fill="none" stroke="#63b8ff" d="M743,-131.87C743,-124 743,-112.1 743,-101.89"/>
<polygon fill="#63b8ff" stroke="#63b8ff" points="746.5,-102.18 743,-92.18 739.5,-102.18 746.5,-102.18"/>
</g>
<!-- Node20 -->
<g id="node20" class="node">
<title>Node20</title>
<g id="a_node20"><a xlink:href="OSThread_8h.html" target="_top" xlink:title=" ">
<polygon fill="white" stroke="#666666" points="696,-211.5 580,-211.5 580,-192.5 696,-192.5 696,-211.5"/>
<text text-anchor="middle" x="638" y="-199.5" font-family="Helvetica,sans-Serif" font-size="10.00">dolphin/os/OSThread.h</text>
</a>
</g>
</g>
<!-- Node19&#45;&gt;Node20 -->
<g id="edge24" class="edge">
<title>Node19&#45;&gt;Node20</title>
<path fill="none" stroke="#63b8ff" d="M668.99,-258.1C663.73,-248.74 655.29,-233.73 648.54,-221.74"/>
<polygon fill="#63b8ff" stroke="#63b8ff" points="651.66,-220.14 643.71,-213.14 645.56,-223.57 651.66,-220.14"/>
</g>
<!-- Node21 -->
<g id="node21" class="node">
<title>Node21</title>
<g id="a_node21"><a xlink:href="OSContext_8h.html" target="_top" xlink:title=" ">
<polygon fill="white" stroke="#666666" points="663.5,-151 544.5,-151 544.5,-132 663.5,-132 663.5,-151"/>
<text text-anchor="middle" x="604" y="-139" font-family="Helvetica,sans-Serif" font-size="10.00">dolphin/os/OSContext.h</text>
</a>
</g>
</g>
<!-- Node20&#45;&gt;Node21 -->
<g id="edge25" class="edge">
<title>Node20&#45;&gt;Node21</title>
<path fill="none" stroke="#63b8ff" d="M632.98,-192.37C628.21,-184.16 620.88,-171.54 614.78,-161.05"/>
<polygon fill="#63b8ff" stroke="#63b8ff" points="617.85,-159.36 609.8,-152.48 611.8,-162.88 617.85,-159.36"/>
</g>
<!-- Node21&#45;&gt;Node6 -->
<g id="edge26" class="edge">
<title>Node21&#45;&gt;Node6</title>
<path fill="none" stroke="#63b8ff" d="M625.11,-131.62C647.97,-121.99 684.7,-106.54 711.08,-95.43"/>
<polygon fill="#63b8ff" stroke="#63b8ff" points="712.44,-98.66 720.3,-91.56 709.72,-92.21 712.44,-98.66"/>
</g>
<!-- Node23 -->
<g id="node23" class="node">
<title>Node23</title>
<g id="a_node23"><a xlink:href="JASGadget_8h.html" target="_top" xlink:title=" ">
<polygon fill="white" stroke="#666666" points="1521,-211.5 1367,-211.5 1367,-192.5 1521,-192.5 1521,-211.5"/>
<text text-anchor="middle" x="1444" y="-199.5" font-family="Helvetica,sans-Serif" font-size="10.00">JSystem/JAudio2/JASGadget.h</text>
</a>
</g>
</g>
<!-- Node22&#45;&gt;Node23 -->
<g id="edge28" class="edge">
<title>Node22&#45;&gt;Node23</title>
<path fill="none" stroke="#63b8ff" d="M1087.73,-258.04C1154.15,-248.19 1263.7,-231.8 1358,-217 1364.51,-215.98 1371.29,-214.9 1378.07,-213.81"/>
<polygon fill="#63b8ff" stroke="#63b8ff" points="1378.61,-217.27 1387.93,-212.22 1377.5,-210.36 1378.61,-217.27"/>
</g>
<!-- Node25 -->
<g id="node25" class="node">
<title>Node25</title>
<g id="a_node25"><a xlink:href="JASOscillator_8h.html" target="_top" xlink:title=" ">
<polygon fill="white" stroke="#666666" points="986,-151 822,-151 822,-132 986,-132 986,-151"/>
<text text-anchor="middle" x="904" y="-139" font-family="Helvetica,sans-Serif" font-size="10.00">JSystem/JAudio2/JASOscillator.h</text>
</a>
</g>
</g>
<!-- Node22&#45;&gt;Node25 -->
<g id="edge31" class="edge">
<title>Node22&#45;&gt;Node25</title>
<path fill="none" stroke="#63b8ff" d="M971.69,-258.05C927.56,-249.65 870.92,-235.6 857,-217 842.5,-197.62 863.89,-173.73 882.34,-158.31"/>
<polygon fill="#63b8ff" stroke="#63b8ff" points="884.37,-161.16 890.06,-152.22 880.04,-155.67 884.37,-161.16"/>
</g>
<!-- Node26 -->
<g id="node26" class="node">
<title>Node26</title>
<g id="a_node26"><a xlink:href="JASRegisterParam_8h.html" target="_top" xlink:title=" ">
<polygon fill="white" stroke="#666666" points="1017.5,-217 866.5,-217 866.5,-187 1017.5,-187 1017.5,-217"/>
<text text-anchor="start" x="874.5" y="-205" font-family="Helvetica,sans-Serif" font-size="10.00">JSystem/JAudio2/JASRegister</text>
<text text-anchor="middle" x="942" y="-194" font-family="Helvetica,sans-Serif" font-size="10.00">Param.h</text>
</a>
</g>
</g>
<!-- Node22&#45;&gt;Node26 -->
<g id="edge33" class="edge">
<title>Node22&#45;&gt;Node26</title>
<path fill="none" stroke="#63b8ff" d="M1015.18,-258.1C1003.62,-249.4 985.58,-235.81 970.3,-224.31"/>
<polygon fill="#63b8ff" stroke="#63b8ff" points="972.53,-221.61 962.44,-218.39 968.32,-227.2 972.53,-221.61"/>
</g>
<!-- Node27 -->
<g id="node27" class="node">
<title>Node27</title>
<g id="a_node27"><a xlink:href="JASSeqCtrl_8h.html" target="_top" xlink:title=" ">
<polygon fill="white" stroke="#666666" points="1190.5,-211.5 1035.5,-211.5 1035.5,-192.5 1190.5,-192.5 1190.5,-211.5"/>
<text text-anchor="middle" x="1113" y="-199.5" font-family="Helvetica,sans-Serif" font-size="10.00">JSystem/JAudio2/JASSeqCtrl.h</text>
</a>
</g>
</g>
<!-- Node22&#45;&gt;Node27 -->
<g id="edge35" class="edge">
<title>Node22&#45;&gt;Node27</title>
<path fill="none" stroke="#63b8ff" d="M1038.96,-258.1C1052.69,-247.88 1075.48,-230.93 1092.15,-218.52"/>
<polygon fill="#63b8ff" stroke="#63b8ff" points="1094,-221.5 1099.93,-212.73 1089.82,-215.89 1094,-221.5"/>
</g>
<!-- Node29 -->
<g id="node29" class="node">
<title>Node29</title>
<g id="a_node29"><a xlink:href="JASTrackPort_8h.html" target="_top" xlink:title=" ">
<polygon fill="white" stroke="#666666" points="1349,-217 1209,-217 1209,-187 1349,-187 1349,-217"/>
<text text-anchor="start" x="1217" y="-205" font-family="Helvetica,sans-Serif" font-size="10.00">JSystem/JAudio2/JASTrack</text>
<text text-anchor="middle" x="1279" y="-194" font-family="Helvetica,sans-Serif" font-size="10.00">Port.h</text>
</a>
</g>
</g>
<!-- Node22&#45;&gt;Node29 -->
<g id="edge38" class="edge">
<title>Node22&#45;&gt;Node29</title>
<path fill="none" stroke="#63b8ff" d="M1062.3,-258.03C1100.76,-248.27 1163.19,-232.41 1211.19,-220.22"/>
<polygon fill="#63b8ff" stroke="#63b8ff" points="1211.82,-223.67 1220.65,-217.82 1210.1,-216.89 1211.82,-223.67"/>
</g>
<!-- Node24 -->
<g id="node24" class="node">
<title>Node24</title>
<g id="a_node24"><a xlink:href="JUTAssert_8h.html" target="_top" xlink:title=" ">
<polygon fill="white" stroke="#666666" points="1485,-151 1339,-151 1339,-132 1485,-132 1485,-151"/>
<text text-anchor="middle" x="1412" y="-139" font-family="Helvetica,sans-Serif" font-size="10.00">JSystem/JUtility/JUTAssert.h</text>
</a>
</g>
</g>
<!-- Node23&#45;&gt;Node24 -->
<g id="edge29" class="edge">
<title>Node23&#45;&gt;Node24</title>
<path fill="none" stroke="#63b8ff" d="M1439.28,-192.37C1434.79,-184.16 1427.89,-171.54 1422.15,-161.05"/>
<polygon fill="#63b8ff" stroke="#63b8ff" points="1425.34,-159.59 1417.47,-152.5 1419.2,-162.95 1425.34,-159.59"/>
</g>
<!-- Node24&#45;&gt;Node6 -->
<g id="edge30" class="edge">
<title>Node24&#45;&gt;Node6</title>
<path fill="none" stroke="#63b8ff" d="M1338.81,-134.1C1202.64,-122.19 913.49,-96.91 795.14,-86.56"/>
<polygon fill="#63b8ff" stroke="#63b8ff" points="795.68,-83.09 785.41,-85.71 795.07,-90.07 795.68,-83.09"/>
</g>
<!-- Node25&#45;&gt;Node6 -->
<g id="edge32" class="edge">
<title>Node25&#45;&gt;Node6</title>
<path fill="none" stroke="#63b8ff" d="M879.55,-131.62C852.6,-121.82 809.01,-105.98 778.34,-94.84"/>
<polygon fill="#63b8ff" stroke="#63b8ff" points="779.7,-91.61 769.11,-91.49 777.31,-98.19 779.7,-91.61"/>
</g>
<!-- Node26&#45;&gt;Node6 -->
<g id="edge34" class="edge">
<title>Node26&#45;&gt;Node6</title>
<path fill="none" stroke="#63b8ff" d="M966.01,-186.52C986.41,-172.41 1010.14,-150.45 995,-132 970.23,-101.84 861.58,-89.55 795.29,-84.79"/>
<polygon fill="#63b8ff" stroke="#63b8ff" points="795.56,-81.3 785.35,-84.12 795.09,-88.29 795.56,-81.3"/>
</g>
<!-- Node28 -->
<g id="node28" class="node">
<title>Node28</title>
<g id="a_node28"><a xlink:href="JASSeqReader_8h.html" target="_top" xlink:title=" ">
<polygon fill="white" stroke="#666666" points="1212,-151 1042,-151 1042,-132 1212,-132 1212,-151"/>
<text text-anchor="middle" x="1127" y="-139" font-family="Helvetica,sans-Serif" font-size="10.00">JSystem/JAudio2/JASSeqReader.h</text>
</a>
</g>
</g>
<!-- Node27&#45;&gt;Node28 -->
<g id="edge36" class="edge">
<title>Node27&#45;&gt;Node28</title>
<path fill="none" stroke="#63b8ff" d="M1115.07,-192.37C1116.97,-184.42 1119.86,-172.33 1122.32,-162.05"/>
<polygon fill="#63b8ff" stroke="#63b8ff" points="1125.65,-163.18 1124.57,-152.64 1118.84,-161.55 1125.65,-163.18"/>
</g>
<!-- Node28&#45;&gt;Node6 -->
<g id="edge37" class="edge">
<title>Node28&#45;&gt;Node6</title>
<path fill="none" stroke="#63b8ff" d="M1068.26,-131.55C993.73,-120.2 866.33,-100.79 795.11,-89.94"/>
<polygon fill="#63b8ff" stroke="#63b8ff" points="795.66,-86.48 785.25,-88.44 794.61,-93.4 795.66,-86.48"/>
</g>
<!-- Node29&#45;&gt;Node6 -->
<g id="edge39" class="edge">
<title>Node29&#45;&gt;Node6</title>
<path fill="none" stroke="#63b8ff" d="M1271.38,-186.52C1261.94,-170.19 1244.22,-144.33 1221,-132 1148.2,-93.36 903.11,-84.58 794.99,-82.59"/>
<polygon fill="#63b8ff" stroke="#63b8ff" points="795.3,-79.09 785.24,-82.42 795.18,-86.09 795.3,-79.09"/>
</g>
</g>
</svg>
        <g id="navigator" transform="translate(0 0)" fill="#404254">
                <rect fill="#f2f5e9" fill-opacity="0.5" stroke="#606060" stroke-width=".5" x="0" y="0" width="60" height="60"/>
                <use id="zoomplus" xlink:href="#zoomPlus" x="17" y="9" onmousedown="handleZoom(evt,'in')"/>
                <use id="zoomminus" xlink:href="#zoomMin" x="42" y="9" onmousedown="handleZoom(evt,'out')"/>
                <use id="reset" xlink:href="#resetDef" x="30" y="36" onmousedown="handleReset()"/>
                <g id="arrowUp" xlink:href="#dirArrow" transform="translate(30 24)" onmousedown="handlePan(0,-1)">
                  <use xlink:href="#rim" fill="#404040">
                        <set attributeName="fill" to="#808080" begin="arrowUp.mouseover" end="arrowUp.mouseout"/>
                  </use>
                  <path fill="none" stroke="white" stroke-width="1.5" d="M0,-3.0v7 M-2.5,-0.5L0,-3.0L2.5,-0.5"/>
                </g>
                <g id="arrowRight" xlink:href="#dirArrow" transform="rotate(90) translate(36 -43)" onmousedown="handlePan(1,0)">
                  <use xlink:href="#rim" fill="#404040">
                        <set attributeName="fill" to="#808080" begin="arrowRight.mouseover" end="arrowRight.mouseout"/>
                  </use>
                  <path fill="none" stroke="white" stroke-width="1.5" d="M0,-3.0v7 M-2.5,-0.5L0,-3.0L2.5,-0.5"/>
                </g>
                <g id="arrowDown" xlink:href="#dirArrow" transform="rotate(180) translate(-30 -48)" onmousedown="handlePan(0,1)">
                  <use xlink:href="#rim" fill="#404040">
                        <set attributeName="fill" to="#808080" begin="arrowDown.mouseover" end="arrowDown.mouseout"/>
                  </use>
                  <path fill="none" stroke="white" stroke-width="1.5" d="M0,-3.0v7 M-2.5,-0.5L0,-3.0L2.5,-0.5"/>
                </g>
                <g id="arrowLeft" xlink:href="#dirArrow" transform="rotate(270) translate(-36 17)" onmousedown="handlePan(-1,0)">
                  <use xlink:href="#rim" fill="#404040">
                        <set attributeName="fill" to="#808080" begin="arrowLeft.mouseover" end="arrowLeft.mouseout"/>
                  </use>
                  <path fill="none" stroke="white" stroke-width="1.5" d="M0,-3.0v7 M-2.5,-0.5L0,-3.0L2.5,-0.5"/>
                </g>
        </g>
        <svg viewBox="0 0 15 15" width="100%" height="30px" preserveAspectRatio="xMaxYMin meet">
         <g id="arrow_out" transform="scale(0.3 0.3)">
          <a xlink:href="JAISeq_8h__incl_org.svg" target="_base">
           <rect id="button" ry="5" rx="5" y="6" x="6" height="38" width="38"
                fill="#f2f5e9" fill-opacity="0.5" stroke="#606060" stroke-width="1.0"/>
           <path id="arrow"
             d="M 11.500037,31.436501 C 11.940474,20.09759 22.043105,11.32322 32.158766,21.979434 L 37.068811,17.246167 C 37.068811,17.246167 37.088388,32 37.088388,32 L 22.160133,31.978069 C 22.160133,31.978069 26.997745,27.140456 26.997745,27.140456 C 18.528582,18.264221 13.291696,25.230495 11.500037,31.436501 z"
             style="fill:#404040;"/>
          </a>
         </g>
        </svg>
</svg>
