<?xml version="1.0" encoding="UTF-8" standalone="no"?>
<!DOCTYPE svg PUBLIC "-//W3C//DTD SVG 1.1//EN"
 "http://www.w3.org/Graphics/SVG/1.1/DTD/svg11.dtd">
<!-- Generated by graphviz version 7.0.5 (20221223.1930)
 -->
<!-- Title: include/JSystem/JAudio2/JAISoundInfo.h Pages: 1 -->
<svg width="572pt" height="159pt"
 viewBox="0.00 0.00 572.00 159.00" xmlns="http://www.w3.org/2000/svg" xmlns:xlink="http://www.w3.org/1999/xlink">
<g id="graph0" class="graph" transform="scale(1 1) rotate(0) translate(4 155)">
<title>include/JSystem/JAudio2/JAISoundInfo.h</title>
<!-- Node1 -->
<g id="node1" class="node">
<title>Node1</title>
<g id="a_node1"><a xlink:title=" ">
<polygon fill="#999999" stroke="#666666" points="443,-151 316,-151 316,-121 443,-121 443,-151"/>
<text text-anchor="start" x="324" y="-139" font-family="Helvetica,sans-Serif" font-size="10.00">include/JSystem/JAudio2</text>
<text text-anchor="middle" x="379.5" y="-128" font-family="Helvetica,sans-Serif" font-size="10.00">/JAISoundInfo.h</text>
</a>
</g>
</g>
<!-- Node2 -->
<g id="node2" class="node">
<title>Node2</title>
<g id="a_node2"><a xlink:href="Z2SoundInfo_8h.html" target="_top" xlink:title=" ">
<polygon fill="white" stroke="#666666" points="305.5,-85 205.5,-85 205.5,-55 305.5,-55 305.5,-85"/>
<text text-anchor="start" x="213.5" y="-73" font-family="Helvetica,sans-Serif" font-size="10.00">include/Z2AudioLib</text>
<text text-anchor="middle" x="255.5" y="-62" font-family="Helvetica,sans-Serif" font-size="10.00">/Z2SoundInfo.h</text>
</a>
</g>
</g>
<!-- Node1&#45;&gt;Node2 -->
<g id="edge1" class="edge">
<title>Node1&#45;&gt;Node2</title>
<path fill="none" stroke="#63b8ff" d="M341.63,-115.45C322.8,-105.73 300.45,-94.2 283.24,-85.31"/>
<polygon fill="#63b8ff" stroke="#63b8ff" points="339.84,-118.47 350.33,-119.94 343.05,-112.25 339.84,-118.47"/>
</g>
<!-- Node6 -->
<g id="node6" class="node">
<title>Node6</title>
<g id="a_node6"><a xlink:href="JAISeMgr_8cpp.html" target="_top" xlink:title=" ">
<polygon fill="white" stroke="#666666" points="435,-85 324,-85 324,-55 435,-55 435,-85"/>
<text text-anchor="start" x="332" y="-73" font-family="Helvetica,sans-Serif" font-size="10.00">libs/JSystem/JAudio2</text>
<text text-anchor="middle" x="379.5" y="-62" font-family="Helvetica,sans-Serif" font-size="10.00">/JAISeMgr.cpp</text>
</a>
</g>
</g>
<!-- Node1&#45;&gt;Node6 -->
<g id="edge5" class="edge">
<title>Node1&#45;&gt;Node6</title>
<path fill="none" stroke="#63b8ff" d="M379.5,-109.39C379.5,-101.13 379.5,-92.28 379.5,-85.16"/>
<polygon fill="#63b8ff" stroke="#63b8ff" points="376,-109.28 379.5,-119.28 383,-109.28 376,-109.28"/>
</g>
<!-- Node7 -->
<g id="node7" class="node">
<title>Node7</title>
<g id="a_node7"><a xlink:href="JAISoundInfo_8cpp.html" target="_top" xlink:title=" ">
<polygon fill="white" stroke="#666666" points="564,-85 453,-85 453,-55 564,-55 564,-85"/>
<text text-anchor="start" x="461" y="-73" font-family="Helvetica,sans-Serif" font-size="10.00">libs/JSystem/JAudio2</text>
<text text-anchor="middle" x="508.5" y="-62" font-family="Helvetica,sans-Serif" font-size="10.00">/JAISoundInfo.cpp</text>
</a>
</g>
</g>
<!-- Node1&#45;&gt;Node7 -->
<g id="edge6" class="edge">
<title>Node1&#45;&gt;Node7</title>
<path fill="none" stroke="#63b8ff" d="M418.63,-115.59C438.27,-105.84 461.66,-94.24 479.65,-85.31"/>
<polygon fill="#63b8ff" stroke="#63b8ff" points="417.21,-112.38 409.81,-119.96 420.32,-118.66 417.21,-112.38"/>
</g>
<!-- Node3 -->
<g id="node3" class="node">
<title>Node3</title>
<g id="a_node3"><a xlink:href="Z2Audience_8cpp.html" target="_top" xlink:title=" ">
<polygon fill="white" stroke="#666666" points="157,-19 0,-19 0,0 157,0 157,-19"/>
<text text-anchor="middle" x="78.5" y="-7" font-family="Helvetica,sans-Serif" font-size="10.00">libs/Z2AudioLib/Z2Audience.cpp</text>
</a>
</g>
</g>
<!-- Node2&#45;&gt;Node3 -->
<g id="edge2" class="edge">
<title>Node2&#45;&gt;Node3</title>
<path fill="none" stroke="#63b8ff" d="M200.87,-50.94C169.23,-40.49 130.78,-27.78 105.53,-19.43"/>
<polygon fill="#63b8ff" stroke="#63b8ff" points="199.72,-54.25 210.31,-54.06 201.91,-47.6 199.72,-54.25"/>
</g>
<!-- Node4 -->
<g id="node4" class="node">
<title>Node4</title>
<g id="a_node4"><a xlink:href="Z2SoundInfo_8cpp.html" target="_top" xlink:title=" ">
<polygon fill="white" stroke="#666666" points="336,-19 175,-19 175,0 336,0 336,-19"/>
<text text-anchor="middle" x="255.5" y="-7" font-family="Helvetica,sans-Serif" font-size="10.00">libs/Z2AudioLib/Z2SoundInfo.cpp</text>
</a>
</g>
</g>
<!-- Node2&#45;&gt;Node4 -->
<g id="edge3" class="edge">
<title>Node2&#45;&gt;Node4</title>
<path fill="none" stroke="#63b8ff" d="M255.5,-43.3C255.5,-34.65 255.5,-25.58 255.5,-19.18"/>
<polygon fill="#63b8ff" stroke="#63b8ff" points="252,-43.03 255.5,-53.03 259,-43.03 252,-43.03"/>
</g>
<!-- Node5 -->
<g id="node5" class="node">
<title>Node5</title>
<g id="a_node5"><a xlink:href="m__Do__main_8cpp.html" target="_top" xlink:title=" ">
<polygon fill="white" stroke="#666666" points="485,-19 354,-19 354,0 485,0 485,-19"/>
<text text-anchor="middle" x="419.5" y="-7" font-family="Helvetica,sans-Serif" font-size="10.00">src/m_Do/m_Do_main.cpp</text>
</a>
</g>
</g>
<!-- Node2&#45;&gt;Node5 -->
<g id="edge4" class="edge">
<title>Node2&#45;&gt;Node5</title>
<path fill="none" stroke="#63b8ff" d="M306.53,-50.8C335.88,-40.33 371.42,-27.65 394.7,-19.35"/>
<polygon fill="#63b8ff" stroke="#63b8ff" points="305.71,-47.37 297.46,-54.03 308.06,-53.97 305.71,-47.37"/>
</g>
</g>
</svg>
