<?xml version="1.0" encoding="UTF-8" standalone="no"?>
<!DOCTYPE svg PUBLIC "-//W3C//DTD SVG 1.1//EN"
 "http://www.w3.org/Graphics/SVG/1.1/DTD/svg11.dtd">
<!-- Generated by graphviz version 7.0.5 (20221223.1930)
 -->
<!-- Title: include/JSystem/JAudio2/JAISeMgr.h Pages: 1 -->
<!--zoomable 544 -->
<svg id="main" version="1.1" xmlns="http://www.w3.org/2000/svg" xmlns:xlink="http://www.w3.org/1999/xlink" xml:space="preserve" onload="init(evt)">
<style type="text/css"><![CDATA[
.edge:hover path { stroke: red; }
.edge:hover polygon { stroke: red; fill: red; }
]]></style>
<script type="text/javascript"><![CDATA[
var edges = document.getElementsByTagName('g');
if (edges && edges.length) {
  for (var i=0;i<edges.length;i++) {
    if (edges[i].id.substr(0,4)=='edge') {
      edges[i].setAttribute('class','edge');
    }
  }
}
]]></script>
        <defs>
                <circle id="rim" cx="0" cy="0" r="7"/>
                <circle id="rim2" cx="0" cy="0" r="3.5"/>
                <g id="zoomPlus">
                        <use xlink:href="#rim" fill="#404040">
                                <set attributeName="fill" to="#808080" begin="zoomplus.mouseover" end="zoomplus.mouseout"/>
                        </use>
                        <path d="M-4,0h8M0,-4v8" fill="none" stroke="white" stroke-width="1.5" pointer-events="none"/>
                </g>
                <g id="zoomMin">
                        <use xlink:href="#rim" fill="#404040">
                                <set attributeName="fill" to="#808080" begin="zoomminus.mouseover" end="zoomminus.mouseout"/>
                        </use>
                        <path d="M-4,0h8" fill="none" stroke="white" stroke-width="1.5" pointer-events="none"/>
                </g>
                <g id="dirArrow">
                        <path fill="none" stroke="white" stroke-width="1.5" d="M0,-3.0v7 M-2.5,-0.5L0,-3.0L2.5,-0.5"/>
                </g>
               <g id="resetDef">
                       <use xlink:href="#rim2" fill="#404040">
                               <set attributeName="fill" to="#808080" begin="reset.mouseover" end="reset.mouseout"/>
                       </use>
               </g>
        </defs>

<script type="text/javascript">
var viewWidth = 1344;
var viewHeight = 544;
var sectionId = 'dynsection-0';
</script>
<script xlink:href="svgpan.js"/>
<svg id="graph" class="graph">
<g id="viewport">
<title>include/JSystem/JAudio2/JAISeMgr.h</title>
<!-- Node1 -->
<g id="node1" class="node">
<title>Node1</title>
<g id="a_node1"><a xlink:title=" ">
<polygon fill="#999999" stroke="#666666" points="814.5,-536 687.5,-536 687.5,-506 814.5,-506 814.5,-536"/>
<text text-anchor="start" x="695.5" y="-524" font-family="Helvetica,sans-Serif" font-size="10.00">include/JSystem/JAudio2</text>
<text text-anchor="middle" x="751" y="-513" font-family="Helvetica,sans-Serif" font-size="10.00">/JAISeMgr.h</text>
</a>
</g>
</g>
<!-- Node2 -->
<g id="node2" class="node">
<title>Node2</title>
<g id="a_node2"><a xlink:href="JAISe_8h.html" target="_top" xlink:title=" ">
<polygon fill="white" stroke="#666666" points="769.5,-470 638.5,-470 638.5,-451 769.5,-451 769.5,-470"/>
<text text-anchor="middle" x="704" y="-458" font-family="Helvetica,sans-Serif" font-size="10.00">JSystem/JAudio2/JAISe.h</text>
</a>
</g>
</g>
<!-- Node1&#45;&gt;Node2 -->
<g id="edge1" class="edge">
<title>Node1&#45;&gt;Node2</title>
<path fill="none" stroke="#63b8ff" d="M739.38,-505.54C732.9,-497.48 724.79,-487.38 717.97,-478.89"/>
<polygon fill="#63b8ff" stroke="#63b8ff" points="720.91,-476.96 711.92,-471.36 715.45,-481.34 720.91,-476.96"/>
</g>
<!-- Node16 -->
<g id="node16" class="node">
<title>Node16</title>
<g id="a_node16"><a xlink:href="global_8h.html" target="_top" xlink:title=" ">
<polygon fill="white" stroke="#666666" points="50,-288.5 0,-288.5 0,-269.5 50,-269.5 50,-288.5"/>
<text text-anchor="middle" x="25" y="-276.5" font-family="Helvetica,sans-Serif" font-size="10.00">global.h</text>
</a>
</g>
</g>
<!-- Node1&#45;&gt;Node16 -->
<g id="edge43" class="edge">
<title>Node1&#45;&gt;Node16</title>
<path fill="none" stroke="#63b8ff" d="M687.03,-509.02C573.68,-488.06 331.83,-436.47 144,-349 109.3,-332.84 71.4,-309.87 47.92,-294.95"/>
<polygon fill="#63b8ff" stroke="#63b8ff" points="50.07,-292.17 39.77,-289.72 46.29,-298.07 50.07,-292.17"/>
</g>
<!-- Node25 -->
<g id="node25" class="node">
<title>Node25</title>
<g id="a_node25"><a xlink:href="JSUList_8h.html" target="_top" xlink:title=" ">
<polygon fill="white" stroke="#666666" points="1030.5,-409.5 887.5,-409.5 887.5,-390.5 1030.5,-390.5 1030.5,-409.5"/>
<text text-anchor="middle" x="959" y="-397.5" font-family="Helvetica,sans-Serif" font-size="10.00">JSystem/JSupport/JSUList.h</text>
</a>
</g>
</g>
<!-- Node1&#45;&gt;Node25 -->
<g id="edge42" class="edge">
<title>Node1&#45;&gt;Node25</title>
<path fill="none" stroke="#63b8ff" d="M776.09,-505.65C815.96,-482.83 893.38,-438.54 933.5,-415.59"/>
<polygon fill="#63b8ff" stroke="#63b8ff" points="935.06,-418.73 942,-410.73 931.58,-412.65 935.06,-418.73"/>
</g>
<!-- Node26 -->
<g id="node26" class="node">
<title>Node26</title>
<g id="a_node26"><a xlink:href="JASHeapCtrl_8h.html" target="_top" xlink:title=" ">
<polygon fill="white" stroke="#666666" points="1115.5,-470 954.5,-470 954.5,-451 1115.5,-451 1115.5,-470"/>
<text text-anchor="middle" x="1035" y="-458" font-family="Helvetica,sans-Serif" font-size="10.00">JSystem/JAudio2/JASHeapCtrl.h</text>
</a>
</g>
</g>
<!-- Node1&#45;&gt;Node26 -->
<g id="edge34" class="edge">
<title>Node1&#45;&gt;Node26</title>
<path fill="none" stroke="#63b8ff" d="M814.74,-506.87C864.44,-496.63 932.75,-482.56 980.07,-472.82"/>
<polygon fill="#63b8ff" stroke="#63b8ff" points="980.75,-476.25 989.84,-470.8 979.34,-469.39 980.75,-476.25"/>
</g>
<!-- Node3 -->
<g id="node3" class="node">
<title>Node3</title>
<g id="a_node3"><a xlink:href="JAISeqDataMgr_8h.html" target="_top" xlink:title=" ">
<polygon fill="white" stroke="#666666" points="485.5,-415 336.5,-415 336.5,-385 485.5,-385 485.5,-415"/>
<text text-anchor="start" x="344.5" y="-403" font-family="Helvetica,sans-Serif" font-size="10.00">JSystem/JAudio2/JAISeqData</text>
<text text-anchor="middle" x="411" y="-392" font-family="Helvetica,sans-Serif" font-size="10.00">Mgr.h</text>
</a>
</g>
</g>
<!-- Node2&#45;&gt;Node3 -->
<g id="edge2" class="edge">
<title>Node2&#45;&gt;Node3</title>
<path fill="none" stroke="#63b8ff" d="M659.18,-450.55C615.55,-441.84 548.19,-428.39 494.64,-417.7"/>
<polygon fill="#63b8ff" stroke="#63b8ff" points="495.42,-414.29 484.93,-415.76 494.05,-421.15 495.42,-414.29"/>
</g>
<!-- Node17 -->
<g id="node17" class="node">
<title>Node17</title>
<g id="a_node17"><a xlink:href="JASTrack_8h.html" target="_top" xlink:title=" ">
<polygon fill="white" stroke="#666666" points="751.5,-288.5 604.5,-288.5 604.5,-269.5 751.5,-269.5 751.5,-288.5"/>
<text text-anchor="middle" x="678" y="-276.5" font-family="Helvetica,sans-Serif" font-size="10.00">JSystem/JAudio2/JASTrack.h</text>
</a>
</g>
</g>
<!-- Node2&#45;&gt;Node17 -->
<g id="edge19" class="edge">
<title>Node2&#45;&gt;Node17</title>
<path fill="none" stroke="#63b8ff" d="M702.75,-450.84C698.8,-423.6 686.57,-339.15 680.92,-300.13"/>
<polygon fill="#63b8ff" stroke="#63b8ff" points="684.42,-299.89 679.52,-290.49 677.49,-300.89 684.42,-299.89"/>
</g>
<!-- Node2&#45;&gt;Node25 -->
<g id="edge32" class="edge">
<title>Node2&#45;&gt;Node25</title>
<path fill="none" stroke="#63b8ff" d="M743.01,-450.55C787.44,-440.36 860.16,-423.67 908.79,-412.52"/>
<polygon fill="#63b8ff" stroke="#63b8ff" points="909.56,-415.93 918.52,-410.29 907.99,-409.11 909.56,-415.93"/>
</g>
<!-- Node4 -->
<g id="node4" class="node">
<title>Node4</title>
<g id="a_node4"><a xlink:href="JAISound_8h.html" target="_top" xlink:title=" ">
<polygon fill="white" stroke="#666666" points="299,-349 153,-349 153,-330 299,-330 299,-349"/>
<text text-anchor="middle" x="226" y="-337" font-family="Helvetica,sans-Serif" font-size="10.00">JSystem/JAudio2/JAISound.h</text>
</a>
</g>
</g>
<!-- Node3&#45;&gt;Node4 -->
<g id="edge3" class="edge">
<title>Node3&#45;&gt;Node4</title>
<path fill="none" stroke="#63b8ff" d="M365.27,-384.54C334.43,-374.79 294.19,-362.06 264.9,-352.8"/>
<polygon fill="#63b8ff" stroke="#63b8ff" points="266.28,-349.57 255.69,-349.89 264.17,-356.24 266.28,-349.57"/>
</g>
<!-- Node5 -->
<g id="node5" class="node">
<title>Node5</title>
<g id="a_node5"><a xlink:href="JAISoundParams_8h.html" target="_top" xlink:title=" ">
<polygon fill="white" stroke="#666666" points="376.5,-294 237.5,-294 237.5,-264 376.5,-264 376.5,-294"/>
<text text-anchor="start" x="245.5" y="-282" font-family="Helvetica,sans-Serif" font-size="10.00">JSystem/JAudio2/JAISound</text>
<text text-anchor="middle" x="307" y="-271" font-family="Helvetica,sans-Serif" font-size="10.00">Params.h</text>
</a>
</g>
</g>
<!-- Node4&#45;&gt;Node5 -->
<g id="edge4" class="edge">
<title>Node4&#45;&gt;Node5</title>
<path fill="none" stroke="#63b8ff" d="M238.3,-329.62C248.8,-322.03 264.32,-310.82 277.95,-300.98"/>
<polygon fill="#63b8ff" stroke="#63b8ff" points="279.72,-304.02 285.78,-295.33 275.62,-298.34 279.72,-304.02"/>
</g>
<!-- Node9 -->
<g id="node9" class="node">
<title>Node9</title>
<g id="a_node9"><a xlink:href="JAIAudible_8h.html" target="_top" xlink:title=" ">
<polygon fill="white" stroke="#666666" points="219.5,-288.5 68.5,-288.5 68.5,-269.5 219.5,-269.5 219.5,-288.5"/>
<text text-anchor="middle" x="144" y="-276.5" font-family="Helvetica,sans-Serif" font-size="10.00">JSystem/JAudio2/JAIAudible.h</text>
</a>
</g>
</g>
<!-- Node4&#45;&gt;Node9 -->
<g id="edge8" class="edge">
<title>Node4&#45;&gt;Node9</title>
<path fill="none" stroke="#63b8ff" d="M213.55,-329.62C200.9,-320.6 181.07,-306.45 165.81,-295.56"/>
<polygon fill="#63b8ff" stroke="#63b8ff" points="167.98,-292.81 157.8,-289.85 163.91,-298.5 167.98,-292.81"/>
</g>
<!-- Node4&#45;&gt;Node16 -->
<g id="edge17" class="edge">
<title>Node4&#45;&gt;Node16</title>
<path fill="none" stroke="#63b8ff" d="M186.77,-329.58C152.65,-321.45 102.07,-308.54 59,-294 58.02,-293.67 57.03,-293.32 56.03,-292.97"/>
<polygon fill="#63b8ff" stroke="#63b8ff" points="57.34,-289.72 46.75,-289.42 54.84,-296.26 57.34,-289.72"/>
</g>
<!-- Node6 -->
<g id="node6" class="node">
<title>Node6</title>
<g id="a_node6"><a xlink:href="JASSoundParams_8h.html" target="_top" xlink:title=" ">
<polygon fill="white" stroke="#666666" points="502.5,-162 359.5,-162 359.5,-132 502.5,-132 502.5,-162"/>
<text text-anchor="start" x="367.5" y="-150" font-family="Helvetica,sans-Serif" font-size="10.00">JSystem/JAudio2/JASSound</text>
<text text-anchor="middle" x="431" y="-139" font-family="Helvetica,sans-Serif" font-size="10.00">Params.h</text>
</a>
</g>
</g>
<!-- Node5&#45;&gt;Node6 -->
<g id="edge5" class="edge">
<title>Node5&#45;&gt;Node6</title>
<path fill="none" stroke="#63b8ff" d="M275.34,-263.57C246.01,-248.21 209.63,-222.75 229,-198 236.76,-188.09 295.91,-174.15 348.22,-163.51"/>
<polygon fill="#63b8ff" stroke="#63b8ff" points="348.66,-166.99 357.77,-161.59 347.28,-160.13 348.66,-166.99"/>
</g>
<!-- Node7 -->
<g id="node7" class="node">
<title>Node7</title>
<g id="a_node7"><a xlink:href="types_8h.html" target="_top" xlink:title=" ">
<polygon fill="white" stroke="#666666" points="722.5,-90.5 641.5,-90.5 641.5,-71.5 722.5,-71.5 722.5,-90.5"/>
<text text-anchor="middle" x="682" y="-78.5" font-family="Helvetica,sans-Serif" font-size="10.00">dolphin/types.h</text>
</a>
</g>
</g>
<!-- Node6&#45;&gt;Node7 -->
<g id="edge6" class="edge">
<title>Node6&#45;&gt;Node7</title>
<path fill="none" stroke="#63b8ff" d="M487.64,-131.56C532.41,-120.14 594.11,-104.41 635.89,-93.76"/>
<polygon fill="#63b8ff" stroke="#63b8ff" points="636.56,-97.2 645.38,-91.34 634.83,-90.42 636.56,-97.2"/>
</g>
<!-- Node8 -->
<g id="node8" class="node">
<title>Node8</title>
<g id="a_node8"><a xlink:href="stddef_8h.html" target="_top" xlink:title=" ">
<polygon fill="white" stroke="#666666" points="750,-30 614,-30 614,0 750,0 750,-30"/>
<text text-anchor="start" x="622" y="-18" font-family="Helvetica,sans-Serif" font-size="10.00">MSL_C/MSL_Common/Src</text>
<text text-anchor="middle" x="682" y="-7" font-family="Helvetica,sans-Serif" font-size="10.00">/stddef.h</text>
</a>
</g>
</g>
<!-- Node7&#45;&gt;Node8 -->
<g id="edge7" class="edge">
<title>Node7&#45;&gt;Node8</title>
<path fill="none" stroke="#63b8ff" d="M682,-71.1C682,-63.41 682,-51.92 682,-41.42"/>
<polygon fill="#63b8ff" stroke="#63b8ff" points="685.5,-41.75 682,-31.75 678.5,-41.75 685.5,-41.75"/>
</g>
<!-- Node10 -->
<g id="node10" class="node">
<title>Node10</title>
<g id="a_node10"><a xlink:href="JGeometry_8h.html" target="_top" xlink:title=" ">
<polygon fill="white" stroke="#666666" points="181.5,-222.5 68.5,-222.5 68.5,-203.5 181.5,-203.5 181.5,-222.5"/>
<text text-anchor="middle" x="125" y="-210.5" font-family="Helvetica,sans-Serif" font-size="10.00">JSystem/JGeometry.h</text>
</a>
</g>
</g>
<!-- Node9&#45;&gt;Node10 -->
<g id="edge9" class="edge">
<title>Node9&#45;&gt;Node10</title>
<path fill="none" stroke="#63b8ff" d="M141.36,-269.1C138.66,-260.03 134.39,-245.64 130.89,-233.85"/>
<polygon fill="#63b8ff" stroke="#63b8ff" points="134.25,-232.86 128.05,-224.27 127.54,-234.86 134.25,-232.86"/>
</g>
<!-- Node11 -->
<g id="node11" class="node">
<title>Node11</title>
<g id="a_node11"><a xlink:href="vec_8h.html" target="_top" xlink:title=" ">
<polygon fill="white" stroke="#666666" points="341,-156.5 249,-156.5 249,-137.5 341,-137.5 341,-156.5"/>
<text text-anchor="middle" x="295" y="-144.5" font-family="Helvetica,sans-Serif" font-size="10.00">dolphin/mtx/vec.h</text>
</a>
</g>
</g>
<!-- Node10&#45;&gt;Node11 -->
<g id="edge10" class="edge">
<title>Node10&#45;&gt;Node11</title>
<path fill="none" stroke="#63b8ff" d="M148.64,-203.1C177.74,-192.15 227.38,-173.46 260.68,-160.92"/>
<polygon fill="#63b8ff" stroke="#63b8ff" points="261.75,-164.26 269.87,-157.46 259.28,-157.71 261.75,-164.26"/>
</g>
<!-- Node12 -->
<g id="node12" class="node">
<title>Node12</title>
<g id="a_node12"><a xlink:href="float_8h.html" target="_top" xlink:title=" ">
<polygon fill="white" stroke="#666666" points="131,-156.5 53,-156.5 53,-137.5 131,-137.5 131,-156.5"/>
<text text-anchor="middle" x="92" y="-144.5" font-family="Helvetica,sans-Serif" font-size="10.00">MSL_C/float.h</text>
</a>
</g>
</g>
<!-- Node10&#45;&gt;Node12 -->
<g id="edge12" class="edge">
<title>Node10&#45;&gt;Node12</title>
<path fill="none" stroke="#63b8ff" d="M120.41,-203.1C115.58,-193.74 107.85,-178.73 101.66,-166.74"/>
<polygon fill="#63b8ff" stroke="#63b8ff" points="104.94,-165.45 97.24,-158.17 98.72,-168.66 104.94,-165.45"/>
</g>
<!-- Node15 -->
<g id="node15" class="node">
<title>Node15</title>
<g id="a_node15"><a xlink:href="math_8h.html" target="_top" xlink:title=" ">
<polygon fill="white" stroke="#666666" points="231,-156.5 149,-156.5 149,-137.5 231,-137.5 231,-156.5"/>
<text text-anchor="middle" x="190" y="-144.5" font-family="Helvetica,sans-Serif" font-size="10.00">MSL_C/math.h</text>
</a>
</g>
</g>
<!-- Node10&#45;&gt;Node15 -->
<g id="edge15" class="edge">
<title>Node10&#45;&gt;Node15</title>
<path fill="none" stroke="#63b8ff" d="M134.04,-203.1C144.13,-193.17 160.68,-176.87 173.17,-164.57"/>
<polygon fill="#63b8ff" stroke="#63b8ff" points="175.29,-167.4 179.96,-157.89 170.38,-162.41 175.29,-167.4"/>
</g>
<!-- Node11&#45;&gt;Node7 -->
<g id="edge11" class="edge">
<title>Node11&#45;&gt;Node7</title>
<path fill="none" stroke="#63b8ff" d="M328.03,-137.02C335.24,-135.22 342.85,-133.44 350,-132 448.23,-112.15 564.26,-96.41 629.88,-88.21"/>
<polygon fill="#63b8ff" stroke="#63b8ff" points="630.14,-91.71 639.64,-87.01 629.28,-84.76 630.14,-91.71"/>
</g>
<!-- Node13 -->
<g id="node13" class="node">
<title>Node13</title>
<g id="a_node13"><a xlink:href="MSL__Common_2Src_2float_8h.html" target="_top" xlink:title=" ">
<polygon fill="white" stroke="#666666" points="209,-96 73,-96 73,-66 209,-66 209,-96"/>
<text text-anchor="start" x="81" y="-84" font-family="Helvetica,sans-Serif" font-size="10.00">MSL_C/MSL_Common/Src</text>
<text text-anchor="middle" x="141" y="-73" font-family="Helvetica,sans-Serif" font-size="10.00">/float.h</text>
</a>
</g>
</g>
<!-- Node12&#45;&gt;Node13 -->
<g id="edge13" class="edge">
<title>Node12&#45;&gt;Node13</title>
<path fill="none" stroke="#63b8ff" d="M98.81,-137.1C105.14,-128.84 114.84,-116.17 123.34,-105.06"/>
<polygon fill="#63b8ff" stroke="#63b8ff" points="125.88,-107.5 129.18,-97.44 120.32,-103.25 125.88,-107.5"/>
</g>
<!-- Node14 -->
<g id="node14" class="node">
<title>Node14</title>
<g id="a_node14"><a xlink:href="fdlibm_8h.html" target="_top" xlink:title=" ">
<polygon fill="white" stroke="#666666" points="166,-24.5 116,-24.5 116,-5.5 166,-5.5 166,-24.5"/>
<text text-anchor="middle" x="141" y="-12.5" font-family="Helvetica,sans-Serif" font-size="10.00">fdlibm.h</text>
</a>
</g>
</g>
<!-- Node13&#45;&gt;Node14 -->
<g id="edge14" class="edge">
<title>Node13&#45;&gt;Node14</title>
<path fill="none" stroke="#63b8ff" d="M141,-65.8C141,-57.09 141,-45.81 141,-36.18"/>
<polygon fill="#63b8ff" stroke="#63b8ff" points="144.5,-36.36 141,-26.36 137.5,-36.36 144.5,-36.36"/>
</g>
<!-- Node15&#45;&gt;Node13 -->
<g id="edge16" class="edge">
<title>Node15&#45;&gt;Node13</title>
<path fill="none" stroke="#63b8ff" d="M183.19,-137.1C176.86,-128.84 167.16,-116.17 158.66,-105.06"/>
<polygon fill="#63b8ff" stroke="#63b8ff" points="161.68,-103.25 152.82,-97.44 156.12,-107.5 161.68,-103.25"/>
</g>
<!-- Node16&#45;&gt;Node7 -->
<g id="edge18" class="edge">
<title>Node16&#45;&gt;Node7</title>
<path fill="none" stroke="#63b8ff" d="M22.85,-269.13C17.23,-243.53 5.08,-168.97 44,-132 86.1,-92 485.03,-83.99 629.82,-82.39"/>
<polygon fill="#63b8ff" stroke="#63b8ff" points="629.54,-85.9 639.5,-82.29 629.46,-78.9 629.54,-85.9"/>
</g>
<!-- Node18 -->
<g id="node18" class="node">
<title>Node18</title>
<g id="a_node18"><a xlink:href="JASGadget_8h.html" target="_top" xlink:title=" ">
<polygon fill="white" stroke="#666666" points="1075,-222.5 921,-222.5 921,-203.5 1075,-203.5 1075,-222.5"/>
<text text-anchor="middle" x="998" y="-210.5" font-family="Helvetica,sans-Serif" font-size="10.00">JSystem/JAudio2/JASGadget.h</text>
</a>
</g>
</g>
<!-- Node17&#45;&gt;Node18 -->
<g id="edge20" class="edge">
<title>Node17&#45;&gt;Node18</title>
<path fill="none" stroke="#63b8ff" d="M722.83,-269.03C780.24,-257.55 879.71,-237.66 942.03,-225.19"/>
<polygon fill="#63b8ff" stroke="#63b8ff" points="942.61,-228.65 951.73,-223.25 941.24,-221.78 942.61,-228.65"/>
</g>
<!-- Node20 -->
<g id="node20" class="node">
<title>Node20</title>
<g id="a_node20"><a xlink:href="JASOscillator_8h.html" target="_top" xlink:title=" ">
<polygon fill="white" stroke="#666666" points="402,-222.5 238,-222.5 238,-203.5 402,-203.5 402,-222.5"/>
<text text-anchor="middle" x="320" y="-210.5" font-family="Helvetica,sans-Serif" font-size="10.00">JSystem/JAudio2/JASOscillator.h</text>
</a>
</g>
</g>
<!-- Node17&#45;&gt;Node20 -->
<g id="edge23" class="edge">
<title>Node17&#45;&gt;Node20</title>
<path fill="none" stroke="#63b8ff" d="M627.84,-269.03C563.22,-257.48 450.94,-237.41 381.32,-224.96"/>
<polygon fill="#63b8ff" stroke="#63b8ff" points="382.05,-221.54 371.59,-223.22 380.82,-228.43 382.05,-221.54"/>
</g>
<!-- Node21 -->
<g id="node21" class="node">
<title>Node21</title>
<g id="a_node21"><a xlink:href="JASRegisterParam_8h.html" target="_top" xlink:title=" ">
<polygon fill="white" stroke="#666666" points="571.5,-228 420.5,-228 420.5,-198 571.5,-198 571.5,-228"/>
<text text-anchor="start" x="428.5" y="-216" font-family="Helvetica,sans-Serif" font-size="10.00">JSystem/JAudio2/JASRegister</text>
<text text-anchor="middle" x="496" y="-205" font-family="Helvetica,sans-Serif" font-size="10.00">Param.h</text>
</a>
</g>
</g>
<!-- Node17&#45;&gt;Node21 -->
<g id="edge25" class="edge">
<title>Node17&#45;&gt;Node21</title>
<path fill="none" stroke="#63b8ff" d="M652.69,-269.1C625.72,-259.62 582.27,-244.34 547.96,-232.27"/>
<polygon fill="#63b8ff" stroke="#63b8ff" points="549.19,-229 538.6,-228.98 546.87,-235.6 549.19,-229"/>
</g>
<!-- Node22 -->
<g id="node22" class="node">
<title>Node22</title>
<g id="a_node22"><a xlink:href="JASSeqCtrl_8h.html" target="_top" xlink:title=" ">
<polygon fill="white" stroke="#666666" points="744.5,-222.5 589.5,-222.5 589.5,-203.5 744.5,-203.5 744.5,-222.5"/>
<text text-anchor="middle" x="667" y="-210.5" font-family="Helvetica,sans-Serif" font-size="10.00">JSystem/JAudio2/JASSeqCtrl.h</text>
</a>
</g>
</g>
<!-- Node17&#45;&gt;Node22 -->
<g id="edge27" class="edge">
<title>Node17&#45;&gt;Node22</title>
<path fill="none" stroke="#63b8ff" d="M676.47,-269.1C674.91,-260.03 672.44,-245.64 670.41,-233.85"/>
<polygon fill="#63b8ff" stroke="#63b8ff" points="673.92,-233.58 668.77,-224.32 667.02,-234.76 673.92,-233.58"/>
</g>
<!-- Node24 -->
<g id="node24" class="node">
<title>Node24</title>
<g id="a_node24"><a xlink:href="JASTrackPort_8h.html" target="_top" xlink:title=" ">
<polygon fill="white" stroke="#666666" points="903,-228 763,-228 763,-198 903,-198 903,-228"/>
<text text-anchor="start" x="771" y="-216" font-family="Helvetica,sans-Serif" font-size="10.00">JSystem/JAudio2/JASTrack</text>
<text text-anchor="middle" x="833" y="-205" font-family="Helvetica,sans-Serif" font-size="10.00">Port.h</text>
</a>
</g>
</g>
<!-- Node17&#45;&gt;Node24 -->
<g id="edge30" class="edge">
<title>Node17&#45;&gt;Node24</title>
<path fill="none" stroke="#63b8ff" d="M699.55,-269.1C722.22,-259.74 758.57,-244.73 787.61,-232.74"/>
<polygon fill="#63b8ff" stroke="#63b8ff" points="788.63,-236.11 796.54,-229.06 785.96,-229.64 788.63,-236.11"/>
</g>
<!-- Node19 -->
<g id="node19" class="node">
<title>Node19</title>
<g id="a_node19"><a xlink:href="JUTAssert_8h.html" target="_top" xlink:title=" ">
<polygon fill="white" stroke="#666666" points="1018,-156.5 872,-156.5 872,-137.5 1018,-137.5 1018,-156.5"/>
<text text-anchor="middle" x="945" y="-144.5" font-family="Helvetica,sans-Serif" font-size="10.00">JSystem/JUtility/JUTAssert.h</text>
</a>
</g>
</g>
<!-- Node18&#45;&gt;Node19 -->
<g id="edge21" class="edge">
<title>Node18&#45;&gt;Node19</title>
<path fill="none" stroke="#63b8ff" d="M990.63,-203.1C982.64,-193.45 969.68,-177.81 959.61,-165.65"/>
<polygon fill="#63b8ff" stroke="#63b8ff" points="962.35,-163.46 953.27,-157.99 956.95,-167.92 962.35,-163.46"/>
</g>
<!-- Node19&#45;&gt;Node7 -->
<g id="edge22" class="edge">
<title>Node19&#45;&gt;Node7</title>
<path fill="none" stroke="#63b8ff" d="M908.15,-137.03C861.5,-125.68 781.02,-106.1 729.71,-93.61"/>
<polygon fill="#63b8ff" stroke="#63b8ff" points="730.61,-90.23 720.07,-91.26 728.96,-97.03 730.61,-90.23"/>
</g>
<!-- Node20&#45;&gt;Node7 -->
<g id="edge24" class="edge">
<title>Node20&#45;&gt;Node7</title>
<path fill="none" stroke="#63b8ff" d="M380.97,-203.08C419.74,-195.74 470.16,-183.02 511,-162 529.52,-152.47 528.97,-142.43 547,-132 575.52,-115.49 610.47,-102.73 637.66,-94.23"/>
<polygon fill="#63b8ff" stroke="#63b8ff" points="638.42,-97.65 646.97,-91.4 636.39,-90.96 638.42,-97.65"/>
</g>
<!-- Node21&#45;&gt;Node7 -->
<g id="edge26" class="edge">
<title>Node21&#45;&gt;Node7</title>
<path fill="none" stroke="#63b8ff" d="M510.44,-197.58C527.87,-180.64 558.52,-152.27 588,-132 608.34,-118.02 633.04,-105.02 652.01,-95.78"/>
<polygon fill="#63b8ff" stroke="#63b8ff" points="653.29,-99.05 660.81,-91.58 650.27,-92.73 653.29,-99.05"/>
</g>
<!-- Node23 -->
<g id="node23" class="node">
<title>Node23</title>
<g id="a_node23"><a xlink:href="JASSeqReader_8h.html" target="_top" xlink:title=" ">
<polygon fill="white" stroke="#666666" points="767,-156.5 597,-156.5 597,-137.5 767,-137.5 767,-156.5"/>
<text text-anchor="middle" x="682" y="-144.5" font-family="Helvetica,sans-Serif" font-size="10.00">JSystem/JAudio2/JASSeqReader.h</text>
</a>
</g>
</g>
<!-- Node22&#45;&gt;Node23 -->
<g id="edge28" class="edge">
<title>Node22&#45;&gt;Node23</title>
<path fill="none" stroke="#63b8ff" d="M669.09,-203.1C671.21,-194.03 674.58,-179.64 677.35,-167.85"/>
<polygon fill="#63b8ff" stroke="#63b8ff" points="680.71,-168.83 679.59,-158.3 673.9,-167.23 680.71,-168.83"/>
</g>
<!-- Node23&#45;&gt;Node7 -->
<g id="edge29" class="edge">
<title>Node23&#45;&gt;Node7</title>
<path fill="none" stroke="#63b8ff" d="M682,-137.1C682,-128.12 682,-113.95 682,-102.22"/>
<polygon fill="#63b8ff" stroke="#63b8ff" points="685.5,-102.34 682,-92.34 678.5,-102.34 685.5,-102.34"/>
</g>
<!-- Node24&#45;&gt;Node7 -->
<g id="edge31" class="edge">
<title>Node24&#45;&gt;Node7</title>
<path fill="none" stroke="#63b8ff" d="M825.57,-197.76C815.99,-180.47 797.92,-151.24 776,-132 758.26,-116.44 734.84,-103.96 715.82,-95.36"/>
<polygon fill="#63b8ff" stroke="#63b8ff" points="717.44,-92.25 706.87,-91.48 714.65,-98.67 717.44,-92.25"/>
</g>
<!-- Node25&#45;&gt;Node7 -->
<g id="edge33" class="edge">
<title>Node25&#45;&gt;Node7</title>
<path fill="none" stroke="#63b8ff" d="M972.03,-390.08C1009.71,-363.12 1114.23,-279.27 1084,-198 1070.49,-161.67 1060.99,-150.62 1027,-132 977.64,-104.96 817.88,-90.82 734.2,-85.1"/>
<polygon fill="#63b8ff" stroke="#63b8ff" points="734.64,-81.63 724.43,-84.45 734.18,-88.61 734.64,-81.63"/>
</g>
<!-- Node26&#45;&gt;Node25 -->
<g id="edge35" class="edge">
<title>Node26&#45;&gt;Node25</title>
<path fill="none" stroke="#63b8ff" d="M1023.46,-450.62C1011.85,-441.68 993.71,-427.72 979.62,-416.87"/>
<polygon fill="#63b8ff" stroke="#63b8ff" points="981.91,-414.22 971.85,-410.89 977.64,-419.76 981.91,-414.22"/>
</g>
<!-- Node27 -->
<g id="node27" class="node">
<title>Node27</title>
<g id="a_node27"><a xlink:href="OSInterrupt_8h.html" target="_top" xlink:title=" ">
<polygon fill="white" stroke="#666666" points="1202,-349 1080,-349 1080,-330 1202,-330 1202,-349"/>
<text text-anchor="middle" x="1141" y="-337" font-family="Helvetica,sans-Serif" font-size="10.00">dolphin/os/OSInterrupt.h</text>
</a>
</g>
</g>
<!-- Node26&#45;&gt;Node27 -->
<g id="edge36" class="edge">
<title>Node26&#45;&gt;Node27</title>
<path fill="none" stroke="#63b8ff" d="M1042.97,-450.56C1060.55,-430.82 1102.92,-383.25 1125.77,-357.6"/>
<polygon fill="#63b8ff" stroke="#63b8ff" points="1128.18,-360.15 1132.22,-350.35 1122.96,-355.49 1128.18,-360.15"/>
</g>
<!-- Node28 -->
<g id="node28" class="node">
<title>Node28</title>
<g id="a_node28"><a xlink:href="OSMutex_8h.html" target="_top" xlink:title=" ">
<polygon fill="white" stroke="#666666" points="1287,-409.5 1175,-409.5 1175,-390.5 1287,-390.5 1287,-409.5"/>
<text text-anchor="middle" x="1231" y="-397.5" font-family="Helvetica,sans-Serif" font-size="10.00">dolphin/os/OSMutex.h</text>
</a>
</g>
</g>
<!-- Node26&#45;&gt;Node28 -->
<g id="edge38" class="edge">
<title>Node26&#45;&gt;Node28</title>
<path fill="none" stroke="#63b8ff" d="M1064.77,-450.62C1098.15,-440.65 1152.51,-424.43 1189.93,-413.26"/>
<polygon fill="#63b8ff" stroke="#63b8ff" points="1190.92,-416.62 1199.5,-410.4 1188.92,-409.91 1190.92,-416.62"/>
</g>
<!-- Node27&#45;&gt;Node7 -->
<g id="edge37" class="edge">
<title>Node27&#45;&gt;Node7</title>
<path fill="none" stroke="#63b8ff" d="M1143.25,-329.88C1150.93,-298.25 1172.67,-187.6 1117,-132 1090.34,-105.37 844.03,-90 734.31,-84.42"/>
<polygon fill="#63b8ff" stroke="#63b8ff" points="734.55,-80.93 724.39,-83.92 734.2,-87.92 734.55,-80.93"/>
</g>
<!-- Node29 -->
<g id="node29" class="node">
<title>Node29</title>
<g id="a_node29"><a xlink:href="OSThread_8h.html" target="_top" xlink:title=" ">
<polygon fill="white" stroke="#666666" points="1336,-349 1220,-349 1220,-330 1336,-330 1336,-349"/>
<text text-anchor="middle" x="1278" y="-337" font-family="Helvetica,sans-Serif" font-size="10.00">dolphin/os/OSThread.h</text>
</a>
</g>
</g>
<!-- Node28&#45;&gt;Node29 -->
<g id="edge39" class="edge">
<title>Node28&#45;&gt;Node29</title>
<path fill="none" stroke="#63b8ff" d="M1237.94,-390.37C1244.74,-381.9 1255.31,-368.74 1263.89,-358.07"/>
<polygon fill="#63b8ff" stroke="#63b8ff" points="1266.55,-360.34 1270.09,-350.35 1261.1,-355.95 1266.55,-360.34"/>
</g>
<!-- Node30 -->
<g id="node30" class="node">
<title>Node30</title>
<g id="a_node30"><a xlink:href="OSContext_8h.html" target="_top" xlink:title=" ">
<polygon fill="white" stroke="#666666" points="1313.5,-288.5 1194.5,-288.5 1194.5,-269.5 1313.5,-269.5 1313.5,-288.5"/>
<text text-anchor="middle" x="1254" y="-276.5" font-family="Helvetica,sans-Serif" font-size="10.00">dolphin/os/OSContext.h</text>
</a>
</g>
</g>
<!-- Node29&#45;&gt;Node30 -->
<g id="edge40" class="edge">
<title>Node29&#45;&gt;Node30</title>
<path fill="none" stroke="#63b8ff" d="M1274.46,-329.87C1271.16,-321.83 1266.13,-309.57 1261.88,-299.22"/>
<polygon fill="#63b8ff" stroke="#63b8ff" points="1265.16,-297.99 1258.13,-290.07 1258.69,-300.65 1265.16,-297.99"/>
</g>
<!-- Node30&#45;&gt;Node7 -->
<g id="edge41" class="edge">
<title>Node30&#45;&gt;Node7</title>
<path fill="none" stroke="#63b8ff" d="M1251.04,-269.13C1241.74,-242.87 1210.42,-165.23 1155,-132 1085.13,-90.11 841.98,-83.09 734.17,-82.07"/>
<polygon fill="#63b8ff" stroke="#63b8ff" points="734.47,-78.58 724.45,-82 734.42,-85.58 734.47,-78.58"/>
</g>
</g>
</svg>
        <g id="navigator" transform="translate(0 0)" fill="#404254">
                <rect fill="#f2f5e9" fill-opacity="0.5" stroke="#606060" stroke-width=".5" x="0" y="0" width="60" height="60"/>
                <use id="zoomplus" xlink:href="#zoomPlus" x="17" y="9" onmousedown="handleZoom(evt,'in')"/>
                <use id="zoomminus" xlink:href="#zoomMin" x="42" y="9" onmousedown="handleZoom(evt,'out')"/>
                <use id="reset" xlink:href="#resetDef" x="30" y="36" onmousedown="handleReset()"/>
                <g id="arrowUp" xlink:href="#dirArrow" transform="translate(30 24)" onmousedown="handlePan(0,-1)">
                  <use xlink:href="#rim" fill="#404040">
                        <set attributeName="fill" to="#808080" begin="arrowUp.mouseover" end="arrowUp.mouseout"/>
                  </use>
                  <path fill="none" stroke="white" stroke-width="1.5" d="M0,-3.0v7 M-2.5,-0.5L0,-3.0L2.5,-0.5"/>
                </g>
                <g id="arrowRight" xlink:href="#dirArrow" transform="rotate(90) translate(36 -43)" onmousedown="handlePan(1,0)">
                  <use xlink:href="#rim" fill="#404040">
                        <set attributeName="fill" to="#808080" begin="arrowRight.mouseover" end="arrowRight.mouseout"/>
                  </use>
                  <path fill="none" stroke="white" stroke-width="1.5" d="M0,-3.0v7 M-2.5,-0.5L0,-3.0L2.5,-0.5"/>
                </g>
                <g id="arrowDown" xlink:href="#dirArrow" transform="rotate(180) translate(-30 -48)" onmousedown="handlePan(0,1)">
                  <use xlink:href="#rim" fill="#404040">
                        <set attributeName="fill" to="#808080" begin="arrowDown.mouseover" end="arrowDown.mouseout"/>
                  </use>
                  <path fill="none" stroke="white" stroke-width="1.5" d="M0,-3.0v7 M-2.5,-0.5L0,-3.0L2.5,-0.5"/>
                </g>
                <g id="arrowLeft" xlink:href="#dirArrow" transform="rotate(270) translate(-36 17)" onmousedown="handlePan(-1,0)">
                  <use xlink:href="#rim" fill="#404040">
                        <set attributeName="fill" to="#808080" begin="arrowLeft.mouseover" end="arrowLeft.mouseout"/>
                  </use>
                  <path fill="none" stroke="white" stroke-width="1.5" d="M0,-3.0v7 M-2.5,-0.5L0,-3.0L2.5,-0.5"/>
                </g>
        </g>
        <svg viewBox="0 0 15 15" width="100%" height="30px" preserveAspectRatio="xMaxYMin meet">
         <g id="arrow_out" transform="scale(0.3 0.3)">
          <a xlink:href="JAISeMgr_8h__incl_org.svg" target="_base">
           <rect id="button" ry="5" rx="5" y="6" x="6" height="38" width="38"
                fill="#f2f5e9" fill-opacity="0.5" stroke="#606060" stroke-width="1.0"/>
           <path id="arrow"
             d="M 11.500037,31.436501 C 11.940474,20.09759 22.043105,11.32322 32.158766,21.979434 L 37.068811,17.246167 C 37.068811,17.246167 37.088388,32 37.088388,32 L 22.160133,31.978069 C 22.160133,31.978069 26.997745,27.140456 26.997745,27.140456 C 18.528582,18.264221 13.291696,25.230495 11.500037,31.436501 z"
             style="fill:#404040;"/>
          </a>
         </g>
        </svg>
</svg>
