<?xml version="1.0" encoding="UTF-8" standalone="no"?>
<!DOCTYPE svg PUBLIC "-//W3C//DTD SVG 1.1//EN"
 "http://www.w3.org/Graphics/SVG/1.1/DTD/svg11.dtd">
<!-- Generated by graphviz version 7.0.5 (20221223.1930)
 -->
<!-- Title: libs/JSystem/JAudio2/JAISeq.cpp Pages: 1 -->
<!--zoomable 577 -->
<svg id="main" version="1.1" xmlns="http://www.w3.org/2000/svg" xmlns:xlink="http://www.w3.org/1999/xlink" xml:space="preserve" onload="init(evt)">
<style type="text/css"><![CDATA[
.edge:hover path { stroke: red; }
.edge:hover polygon { stroke: red; fill: red; }
]]></style>
<script type="text/javascript"><![CDATA[
var edges = document.getElementsByTagName('g');
if (edges && edges.length) {
  for (var i=0;i<edges.length;i++) {
    if (edges[i].id.substr(0,4)=='edge') {
      edges[i].setAttribute('class','edge');
    }
  }
}
]]></script>
        <defs>
                <circle id="rim" cx="0" cy="0" r="7"/>
                <circle id="rim2" cx="0" cy="0" r="3.5"/>
                <g id="zoomPlus">
                        <use xlink:href="#rim" fill="#404040">
                                <set attributeName="fill" to="#808080" begin="zoomplus.mouseover" end="zoomplus.mouseout"/>
                        </use>
                        <path d="M-4,0h8M0,-4v8" fill="none" stroke="white" stroke-width="1.5" pointer-events="none"/>
                </g>
                <g id="zoomMin">
                        <use xlink:href="#rim" fill="#404040">
                                <set attributeName="fill" to="#808080" begin="zoomminus.mouseover" end="zoomminus.mouseout"/>
                        </use>
                        <path d="M-4,0h8" fill="none" stroke="white" stroke-width="1.5" pointer-events="none"/>
                </g>
                <g id="dirArrow">
                        <path fill="none" stroke="white" stroke-width="1.5" d="M0,-3.0v7 M-2.5,-0.5L0,-3.0L2.5,-0.5"/>
                </g>
               <g id="resetDef">
                       <use xlink:href="#rim2" fill="#404040">
                               <set attributeName="fill" to="#808080" begin="reset.mouseover" end="reset.mouseout"/>
                       </use>
               </g>
        </defs>

<script type="text/javascript">
var viewWidth = 2341;
var viewHeight = 577;
var sectionId = 'dynsection-0';
</script>
<script xlink:href="svgpan.js"/>
<svg id="graph" class="graph">
<g id="viewport">
<title>libs/JSystem/JAudio2/JAISeq.cpp</title>
<!-- Node1 -->
<g id="node1" class="node">
<title>Node1</title>
<g id="a_node1"><a xlink:title=" ">
<polygon fill="#999999" stroke="#666666" points="1199,-569 1088,-569 1088,-539 1199,-539 1199,-569"/>
<text text-anchor="start" x="1096" y="-557" font-family="Helvetica,sans-Serif" font-size="10.00">libs/JSystem/JAudio2</text>
<text text-anchor="middle" x="1143.5" y="-546" font-family="Helvetica,sans-Serif" font-size="10.00">/JAISeq.cpp</text>
</a>
</g>
</g>
<!-- Node2 -->
<g id="node2" class="node">
<title>Node2</title>
<g id="a_node2"><a xlink:href="JAISeq_8h.html" target="_top" xlink:title=" ">
<polygon fill="white" stroke="#666666" points="741.5,-492 605.5,-492 605.5,-473 741.5,-473 741.5,-492"/>
<text text-anchor="middle" x="673.5" y="-480" font-family="Helvetica,sans-Serif" font-size="10.00">JSystem/JAudio2/JAISeq.h</text>
</a>
</g>
</g>
<!-- Node1&#45;&gt;Node2 -->
<g id="edge1" class="edge">
<title>Node1&#45;&gt;Node2</title>
<path fill="none" stroke="#63b8ff" d="M1087.67,-547.97C1011.35,-540.63 870.34,-525.35 751.5,-503 740.08,-500.85 727.84,-498.04 716.52,-495.22"/>
<polygon fill="#63b8ff" stroke="#63b8ff" points="717.59,-491.88 707.04,-492.8 715.86,-498.66 717.59,-491.88"/>
</g>
<!-- Node31 -->
<g id="node31" class="node">
<title>Node31</title>
<g id="a_node31"><a xlink:href="JAISeqMgr_8h.html" target="_top" xlink:title=" ">
<polygon fill="white" stroke="#666666" points="579.5,-492 427.5,-492 427.5,-473 579.5,-473 579.5,-492"/>
<text text-anchor="middle" x="503.5" y="-480" font-family="Helvetica,sans-Serif" font-size="10.00">JSystem/JAudio2/JAISeqMgr.h</text>
</a>
</g>
</g>
<!-- Node1&#45;&gt;Node31 -->
<g id="edge42" class="edge">
<title>Node1&#45;&gt;Node31</title>
<path fill="none" stroke="#63b8ff" d="M1087.73,-550.04C988.51,-544.29 774.97,-529.78 596.5,-503 582.08,-500.84 566.54,-497.84 552.36,-494.85"/>
<polygon fill="#63b8ff" stroke="#63b8ff" points="553.32,-491.48 542.81,-492.79 551.84,-498.32 553.32,-491.48"/>
</g>
<!-- Node32 -->
<g id="node32" class="node">
<title>Node32</title>
<g id="a_node32"><a xlink:href="JASCriticalSection_8h.html" target="_top" xlink:title=" ">
<polygon fill="white" stroke="#666666" points="1260,-426 1115,-426 1115,-396 1260,-396 1260,-426"/>
<text text-anchor="start" x="1123" y="-414" font-family="Helvetica,sans-Serif" font-size="10.00">JSystem/JAudio2/JASCritical</text>
<text text-anchor="middle" x="1187.5" y="-403" font-family="Helvetica,sans-Serif" font-size="10.00">Section.h</text>
</a>
</g>
</g>
<!-- Node1&#45;&gt;Node32 -->
<g id="edge46" class="edge">
<title>Node1&#45;&gt;Node32</title>
<path fill="none" stroke="#63b8ff" d="M1087.68,-545.71C1038.28,-537.97 971.61,-523.95 955.5,-503 944.39,-488.55 944.05,-476.18 955.5,-462 960.36,-455.99 1039.24,-439.84 1103.7,-427.51"/>
<polygon fill="#63b8ff" stroke="#63b8ff" points="1104.06,-431 1113.23,-425.69 1102.76,-424.13 1104.06,-431"/>
</g>
<!-- Node33 -->
<g id="node33" class="node">
<title>Node33</title>
<g id="a_node33"><a xlink:href="JAISoundChild_8h.html" target="_top" xlink:title=" ">
<polygon fill="white" stroke="#666666" points="348,-360 209,-360 209,-330 348,-330 348,-360"/>
<text text-anchor="start" x="217" y="-348" font-family="Helvetica,sans-Serif" font-size="10.00">JSystem/JAudio2/JAISound</text>
<text text-anchor="middle" x="278.5" y="-337" font-family="Helvetica,sans-Serif" font-size="10.00">Child.h</text>
</a>
</g>
</g>
<!-- Node1&#45;&gt;Node33 -->
<g id="edge48" class="edge">
<title>Node1&#45;&gt;Node33</title>
<path fill="none" stroke="#63b8ff" d="M1087.73,-551.57C928.27,-547.14 478.01,-532.17 418.5,-503 358.51,-473.6 312.76,-406.04 291.54,-369.88"/>
<polygon fill="#63b8ff" stroke="#63b8ff" points="294.73,-368.41 286.73,-361.47 288.66,-371.89 294.73,-368.41"/>
</g>
<!-- Node34 -->
<g id="node34" class="node">
<title>Node34</title>
<g id="a_node34"><a xlink:href="JAIAudience_8h.html" target="_top" xlink:title=" ">
<polygon fill="white" stroke="#666666" points="1437,-420.5 1278,-420.5 1278,-401.5 1437,-401.5 1437,-420.5"/>
<text text-anchor="middle" x="1357.5" y="-408.5" font-family="Helvetica,sans-Serif" font-size="10.00">JSystem/JAudio2/JAIAudience.h</text>
</a>
</g>
</g>
<!-- Node1&#45;&gt;Node34 -->
<g id="edge50" class="edge">
<title>Node1&#45;&gt;Node34</title>
<path fill="none" stroke="#63b8ff" d="M1087.76,-550.62C1053.42,-545.92 1011.81,-533.7 989.5,-503 978.79,-488.26 977.46,-475.68 989.5,-462 1030.94,-414.9 1207.4,-434.93 1269.5,-426 1276.62,-424.98 1284.05,-423.86 1291.45,-422.73"/>
<polygon fill="#63b8ff" stroke="#63b8ff" points="1291.78,-426.22 1301.12,-421.22 1290.7,-419.3 1291.78,-426.22"/>
</g>
<!-- Node35 -->
<g id="node35" class="node">
<title>Node35</title>
<g id="a_node35"><a xlink:href="JKRHeap_8h.html" target="_top" xlink:title=" ">
<polygon fill="white" stroke="#666666" points="903,-492 760,-492 760,-473 903,-473 903,-492"/>
<text text-anchor="middle" x="831.5" y="-480" font-family="Helvetica,sans-Serif" font-size="10.00">JSystem/JKernel/JKRHeap.h</text>
</a>
</g>
</g>
<!-- Node1&#45;&gt;Node35 -->
<g id="edge52" class="edge">
<title>Node1&#45;&gt;Node35</title>
<path fill="none" stroke="#63b8ff" d="M1087.76,-540.75C1042,-530.68 975.54,-516 917.5,-503 905.95,-500.41 893.54,-497.61 881.83,-494.96"/>
<polygon fill="#63b8ff" stroke="#63b8ff" points="882.88,-491.61 872.35,-492.81 881.33,-498.43 882.88,-491.61"/>
</g>
<!-- Node37 -->
<g id="node37" class="node">
<title>Node37</title>
<g id="a_node37"><a xlink:href="dol2asm_8h.html" target="_top" xlink:title=" ">
<polygon fill="white" stroke="#666666" points="1059,-492 998,-492 998,-473 1059,-473 1059,-492"/>
<text text-anchor="middle" x="1028.5" y="-480" font-family="Helvetica,sans-Serif" font-size="10.00">dol2asm.h</text>
</a>
</g>
</g>
<!-- Node1&#45;&gt;Node37 -->
<g id="edge56" class="edge">
<title>Node1&#45;&gt;Node37</title>
<path fill="none" stroke="#63b8ff" d="M1119.67,-538.6C1100.15,-526.8 1072.64,-510.18 1052.96,-498.28"/>
<polygon fill="#63b8ff" stroke="#63b8ff" points="1054.85,-495.34 1044.49,-493.16 1051.23,-501.33 1054.85,-495.34"/>
</g>
<!-- Node38 -->
<g id="node38" class="node">
<title>Node38</title>
<g id="a_node38"><a xlink:title=" ">
<polygon fill="#e0e0e0" stroke="#999999" points="1210,-497.5 1077,-497.5 1077,-467.5 1210,-467.5 1210,-497.5"/>
<text text-anchor="start" x="1085" y="-485.5" font-family="Helvetica,sans-Serif" font-size="10.00">asm/JSystem/JAudio2</text>
<text text-anchor="middle" x="1143.5" y="-474.5" font-family="Helvetica,sans-Serif" font-size="10.00">/JAISeq/func_802A0A8C.s</text>
</a>
</g>
</g>
<!-- Node1&#45;&gt;Node38 -->
<g id="edge57" class="edge">
<title>Node1&#45;&gt;Node38</title>
<path fill="none" stroke="#63b8ff" d="M1143.5,-538.6C1143.5,-530.12 1143.5,-519.14 1143.5,-509.22"/>
<polygon fill="#63b8ff" stroke="#63b8ff" points="1147,-509.4 1143.5,-499.4 1140,-509.4 1147,-509.4"/>
</g>
<!-- Node39 -->
<g id="node39" class="node">
<title>Node39</title>
<g id="a_node39"><a xlink:title=" ">
<polygon fill="#e0e0e0" stroke="#999999" points="1367,-503 1228,-503 1228,-462 1367,-462 1367,-503"/>
<text text-anchor="start" x="1236" y="-491" font-family="Helvetica,sans-Serif" font-size="10.00">asm/JSystem/JAudio2</text>
<text text-anchor="start" x="1236" y="-480" font-family="Helvetica,sans-Serif" font-size="10.00">/JAISeq/reserveChildTracks</text>
<text text-anchor="middle" x="1297.5" y="-469" font-family="Helvetica,sans-Serif" font-size="10.00">___6JAISeqFi.s</text>
</a>
</g>
</g>
<!-- Node1&#45;&gt;Node39 -->
<g id="edge58" class="edge">
<title>Node1&#45;&gt;Node39</title>
<path fill="none" stroke="#63b8ff" d="M1175.41,-538.6C1194.88,-529.81 1220.29,-518.35 1242.88,-508.15"/>
<polygon fill="#63b8ff" stroke="#63b8ff" points="1244.32,-511.34 1251.99,-504.04 1241.44,-504.96 1244.32,-511.34"/>
</g>
<!-- Node40 -->
<g id="node40" class="node">
<title>Node40</title>
<g id="a_node40"><a xlink:title=" ">
<polygon fill="#e0e0e0" stroke="#999999" points="1525.5,-497.5 1385.5,-497.5 1385.5,-467.5 1525.5,-467.5 1525.5,-497.5"/>
<text text-anchor="start" x="1393.5" y="-485.5" font-family="Helvetica,sans-Serif" font-size="10.00">asm/JSystem/JAudio2</text>
<text text-anchor="middle" x="1455.5" y="-474.5" font-family="Helvetica,sans-Serif" font-size="10.00">/JAISeq/die___6JAISeqFv.s</text>
</a>
</g>
</g>
<!-- Node1&#45;&gt;Node40 -->
<g id="edge59" class="edge">
<title>Node1&#45;&gt;Node40</title>
<path fill="none" stroke="#63b8ff" d="M1199.16,-541.56C1246.43,-531.72 1316.03,-516.95 1376.5,-503 1379.83,-502.23 1383.24,-501.43 1386.69,-500.62"/>
<polygon fill="#63b8ff" stroke="#63b8ff" points="1387.35,-504.06 1396.26,-498.33 1385.72,-497.25 1387.35,-504.06"/>
</g>
<!-- Node41 -->
<g id="node41" class="node">
<title>Node41</title>
<g id="a_node41"><a xlink:title=" ">
<polygon fill="#e0e0e0" stroke="#999999" points="1673.5,-497.5 1543.5,-497.5 1543.5,-467.5 1673.5,-467.5 1673.5,-497.5"/>
<text text-anchor="start" x="1551.5" y="-485.5" font-family="Helvetica,sans-Serif" font-size="10.00">asm/JSystem/JAudio2</text>
<text text-anchor="middle" x="1608.5" y="-474.5" font-family="Helvetica,sans-Serif" font-size="10.00">/JAISeq/func_802A1268.s</text>
</a>
</g>
</g>
<!-- Node1&#45;&gt;Node41 -->
<g id="edge60" class="edge">
<title>Node1&#45;&gt;Node41</title>
<path fill="none" stroke="#63b8ff" d="M1199.23,-548.18C1275.4,-541.07 1416.11,-526.07 1534.5,-503 1538.33,-502.25 1542.26,-501.42 1546.21,-500.53"/>
<polygon fill="#63b8ff" stroke="#63b8ff" points="1546.94,-503.96 1555.87,-498.25 1545.34,-497.14 1546.94,-503.96"/>
</g>
<!-- Node42 -->
<g id="node42" class="node">
<title>Node42</title>
<g id="a_node42"><a xlink:title=" ">
<polygon fill="#e0e0e0" stroke="#999999" points="1819.5,-503 1691.5,-503 1691.5,-462 1819.5,-462 1819.5,-503"/>
<text text-anchor="start" x="1699.5" y="-491" font-family="Helvetica,sans-Serif" font-size="10.00">asm/JSystem/JAudio2</text>
<text text-anchor="start" x="1699.5" y="-480" font-family="Helvetica,sans-Serif" font-size="10.00">/JAISeq/JAISound_tryDie</text>
<text text-anchor="middle" x="1755.5" y="-469" font-family="Helvetica,sans-Serif" font-size="10.00">___6JAISeqFv.s</text>
</a>
</g>
</g>
<!-- Node1&#45;&gt;Node42 -->
<g id="edge61" class="edge">
<title>Node1&#45;&gt;Node42</title>
<path fill="none" stroke="#63b8ff" d="M1199.39,-550.92C1295.73,-546.66 1499.31,-534.7 1679.84,-503.32"/>
<polygon fill="#63b8ff" stroke="#63b8ff" points="1680.42,-506.77 1689.66,-501.58 1679.2,-499.88 1680.42,-506.77"/>
</g>
<!-- Node43 -->
<g id="node43" class="node">
<title>Node43</title>
<g id="a_node43"><a xlink:title=" ">
<polygon fill="#e0e0e0" stroke="#999999" points="2027.5,-503 1837.5,-503 1837.5,-462 2027.5,-462 2027.5,-503"/>
<text text-anchor="start" x="1845.5" y="-491" font-family="Helvetica,sans-Serif" font-size="10.00">asm/JSystem/JAudio2</text>
<text text-anchor="start" x="1845.5" y="-480" font-family="Helvetica,sans-Serif" font-size="10.00">/JAISeq/mixOut___6JAISeqFRC14</text>
<text text-anchor="middle" x="1932.5" y="-469" font-family="Helvetica,sans-Serif" font-size="10.00">JASSoundParams16JAISoundActivity.s</text>
</a>
</g>
</g>
<!-- Node1&#45;&gt;Node43 -->
<g id="edge62" class="edge">
<title>Node1&#45;&gt;Node43</title>
<path fill="none" stroke="#63b8ff" d="M1199.21,-551.06C1314.37,-546.59 1587.15,-533.62 1825.74,-503.28"/>
<polygon fill="#63b8ff" stroke="#63b8ff" points="1826.1,-506.76 1835.57,-502.02 1825.21,-499.82 1826.1,-506.76"/>
</g>
<!-- Node44 -->
<g id="node44" class="node">
<title>Node44</title>
<g id="a_node44"><a xlink:title=" ">
<polygon fill="#e0e0e0" stroke="#999999" points="2199.5,-497.5 2045.5,-497.5 2045.5,-467.5 2199.5,-467.5 2199.5,-497.5"/>
<text text-anchor="start" x="2053.5" y="-485.5" font-family="Helvetica,sans-Serif" font-size="10.00">asm/JSystem/JAudio2</text>
<text text-anchor="middle" x="2122.5" y="-474.5" font-family="Helvetica,sans-Serif" font-size="10.00">/JAISeq/getChild__6JAISeqFi.s</text>
</a>
</g>
</g>
<!-- Node1&#45;&gt;Node44 -->
<g id="edge63" class="edge">
<title>Node1&#45;&gt;Node44</title>
<path fill="none" stroke="#63b8ff" d="M1199.46,-553.1C1340.6,-552.66 1722.23,-547.11 2036.5,-503 2042.14,-502.21 2047.95,-501.24 2053.77,-500.15"/>
<polygon fill="#63b8ff" stroke="#63b8ff" points="2054.3,-503.61 2063.43,-498.24 2052.95,-496.75 2054.3,-503.61"/>
</g>
<!-- Node45 -->
<g id="node45" class="node">
<title>Node45</title>
<g id="a_node45"><a xlink:title=" ">
<polygon fill="#e0e0e0" stroke="#999999" points="2333,-503 2218,-503 2218,-462 2333,-462 2333,-503"/>
<text text-anchor="start" x="2226" y="-491" font-family="Helvetica,sans-Serif" font-size="10.00">asm/JSystem/JAudio2</text>
<text text-anchor="start" x="2226" y="-480" font-family="Helvetica,sans-Serif" font-size="10.00">/JAISeq/releaseChild</text>
<text text-anchor="middle" x="2275.5" y="-469" font-family="Helvetica,sans-Serif" font-size="10.00">__6JAISeqFi.s</text>
</a>
</g>
</g>
<!-- Node1&#45;&gt;Node45 -->
<g id="edge64" class="edge">
<title>Node1&#45;&gt;Node45</title>
<path fill="none" stroke="#63b8ff" d="M1199.26,-552.12C1386.07,-548.9 1989.69,-536.28 2206.34,-503.07"/>
<polygon fill="#63b8ff" stroke="#63b8ff" points="2206.77,-506.54 2216.1,-501.5 2205.67,-499.63 2206.77,-506.54"/>
</g>
<!-- Node3 -->
<g id="node3" class="node">
<title>Node3</title>
<g id="a_node3"><a xlink:href="JAISeqDataMgr_8h.html" target="_top" xlink:title=" ">
<polygon fill="white" stroke="#666666" points="626,-426 477,-426 477,-396 626,-396 626,-426"/>
<text text-anchor="start" x="485" y="-414" font-family="Helvetica,sans-Serif" font-size="10.00">JSystem/JAudio2/JAISeqData</text>
<text text-anchor="middle" x="551.5" y="-403" font-family="Helvetica,sans-Serif" font-size="10.00">Mgr.h</text>
</a>
</g>
</g>
<!-- Node2&#45;&gt;Node3 -->
<g id="edge2" class="edge">
<title>Node2&#45;&gt;Node3</title>
<path fill="none" stroke="#63b8ff" d="M658.05,-472.7C640.1,-462.47 609.91,-445.28 586.25,-431.79"/>
<polygon fill="#63b8ff" stroke="#63b8ff" points="588.29,-428.93 577.87,-427.02 584.83,-435.01 588.29,-428.93"/>
</g>
<!-- Node17 -->
<g id="node17" class="node">
<title>Node17</title>
<g id="a_node17"><a xlink:href="JASHeapCtrl_8h.html" target="_top" xlink:title=" ">
<polygon fill="white" stroke="#666666" points="1058,-420.5 897,-420.5 897,-401.5 1058,-401.5 1058,-420.5"/>
<text text-anchor="middle" x="977.5" y="-408.5" font-family="Helvetica,sans-Serif" font-size="10.00">JSystem/JAudio2/JASHeapCtrl.h</text>
</a>
</g>
</g>
<!-- Node2&#45;&gt;Node17 -->
<g id="edge19" class="edge">
<title>Node2&#45;&gt;Node17</title>
<path fill="none" stroke="#63b8ff" d="M708.4,-472.56C721.85,-469.17 737.37,-465.33 751.5,-462 810.46,-448.11 878.33,-433.24 924.19,-423.37"/>
<polygon fill="#63b8ff" stroke="#63b8ff" points="924.83,-426.81 933.87,-421.28 923.36,-419.96 924.83,-426.81"/>
</g>
<!-- Node18 -->
<g id="node18" class="node">
<title>Node18</title>
<g id="a_node18"><a xlink:href="JSUList_8h.html" target="_top" xlink:title=" ">
<polygon fill="white" stroke="#666666" points="871,-354.5 728,-354.5 728,-335.5 871,-335.5 871,-354.5"/>
<text text-anchor="middle" x="799.5" y="-342.5" font-family="Helvetica,sans-Serif" font-size="10.00">JSystem/JSupport/JSUList.h</text>
</a>
</g>
</g>
<!-- Node2&#45;&gt;Node18 -->
<g id="edge41" class="edge">
<title>Node2&#45;&gt;Node18</title>
<path fill="none" stroke="#63b8ff" d="M675.45,-472.74C679.54,-456.03 690.45,-419.23 711.5,-396 726.03,-379.97 746.94,-367.79 764.74,-359.47"/>
<polygon fill="#63b8ff" stroke="#63b8ff" points="765.94,-362.76 773.67,-355.51 763.11,-356.36 765.94,-362.76"/>
</g>
<!-- Node23 -->
<g id="node23" class="node">
<title>Node23</title>
<g id="a_node23"><a xlink:href="JASTrack_8h.html" target="_top" xlink:title=" ">
<polygon fill="white" stroke="#666666" points="697,-288.5 550,-288.5 550,-269.5 697,-269.5 697,-288.5"/>
<text text-anchor="middle" x="623.5" y="-276.5" font-family="Helvetica,sans-Serif" font-size="10.00">JSystem/JAudio2/JASTrack.h</text>
</a>
</g>
</g>
<!-- Node2&#45;&gt;Node23 -->
<g id="edge28" class="edge">
<title>Node2&#45;&gt;Node23</title>
<path fill="none" stroke="#63b8ff" d="M671.29,-472.58C663.77,-442.28 639.09,-342.82 628.45,-299.95"/>
<polygon fill="#63b8ff" stroke="#63b8ff" points="631.86,-299.15 626.05,-290.28 625.06,-300.83 631.86,-299.15"/>
</g>
<!-- Node4 -->
<g id="node4" class="node">
<title>Node4</title>
<g id="a_node4"><a xlink:href="JAISound_8h.html" target="_top" xlink:title=" ">
<polygon fill="white" stroke="#666666" points="604.5,-354.5 458.5,-354.5 458.5,-335.5 604.5,-335.5 604.5,-354.5"/>
<text text-anchor="middle" x="531.5" y="-342.5" font-family="Helvetica,sans-Serif" font-size="10.00">JSystem/JAudio2/JAISound.h</text>
</a>
</g>
</g>
<!-- Node3&#45;&gt;Node4 -->
<g id="edge3" class="edge">
<title>Node3&#45;&gt;Node4</title>
<path fill="none" stroke="#63b8ff" d="M547.06,-395.8C544.28,-386.89 540.66,-375.3 537.61,-365.54"/>
<polygon fill="#63b8ff" stroke="#63b8ff" points="541.04,-364.79 534.72,-356.29 534.36,-366.88 541.04,-364.79"/>
</g>
<!-- Node5 -->
<g id="node5" class="node">
<title>Node5</title>
<g id="a_node5"><a xlink:href="JAISoundParams_8h.html" target="_top" xlink:title=" ">
<polygon fill="white" stroke="#666666" points="314,-294 175,-294 175,-264 314,-264 314,-294"/>
<text text-anchor="start" x="183" y="-282" font-family="Helvetica,sans-Serif" font-size="10.00">JSystem/JAudio2/JAISound</text>
<text text-anchor="middle" x="244.5" y="-271" font-family="Helvetica,sans-Serif" font-size="10.00">Params.h</text>
</a>
</g>
</g>
<!-- Node4&#45;&gt;Node5 -->
<g id="edge4" class="edge">
<title>Node4&#45;&gt;Node5</title>
<path fill="none" stroke="#63b8ff" d="M491.29,-335.03C447.13,-325.19 375.2,-309.14 320.36,-296.92"/>
<polygon fill="#63b8ff" stroke="#63b8ff" points="321.28,-293.54 310.76,-294.77 319.75,-300.37 321.28,-293.54"/>
</g>
<!-- Node9 -->
<g id="node9" class="node">
<title>Node9</title>
<g id="a_node9"><a xlink:href="JAIAudible_8h.html" target="_top" xlink:title=" ">
<polygon fill="white" stroke="#666666" points="1050,-288.5 899,-288.5 899,-269.5 1050,-269.5 1050,-288.5"/>
<text text-anchor="middle" x="974.5" y="-276.5" font-family="Helvetica,sans-Serif" font-size="10.00">JSystem/JAudio2/JAIAudible.h</text>
</a>
</g>
</g>
<!-- Node4&#45;&gt;Node9 -->
<g id="edge8" class="edge">
<title>Node4&#45;&gt;Node9</title>
<path fill="none" stroke="#63b8ff" d="M593.56,-335.03C674.35,-323.36 815.34,-302.99 901.27,-290.58"/>
<polygon fill="#63b8ff" stroke="#63b8ff" points="901.6,-294.07 911,-289.17 900.6,-287.14 901.6,-294.07"/>
</g>
<!-- Node16 -->
<g id="node16" class="node">
<title>Node16</title>
<g id="a_node16"><a xlink:href="global_8h.html" target="_top" xlink:title=" ">
<polygon fill="white" stroke="#666666" points="382.5,-288.5 332.5,-288.5 332.5,-269.5 382.5,-269.5 382.5,-288.5"/>
<text text-anchor="middle" x="357.5" y="-276.5" font-family="Helvetica,sans-Serif" font-size="10.00">global.h</text>
</a>
</g>
</g>
<!-- Node4&#45;&gt;Node16 -->
<g id="edge17" class="edge">
<title>Node4&#45;&gt;Node16</title>
<path fill="none" stroke="#63b8ff" d="M507.31,-335.1C477.39,-324.1 426.27,-305.3 392.19,-292.76"/>
<polygon fill="#63b8ff" stroke="#63b8ff" points="393.78,-289.62 383.19,-289.45 391.37,-296.19 393.78,-289.62"/>
</g>
<!-- Node6 -->
<g id="node6" class="node">
<title>Node6</title>
<g id="a_node6"><a xlink:href="JASSoundParams_8h.html" target="_top" xlink:title=" ">
<polygon fill="white" stroke="#666666" points="143,-162 0,-162 0,-132 143,-132 143,-162"/>
<text text-anchor="start" x="8" y="-150" font-family="Helvetica,sans-Serif" font-size="10.00">JSystem/JAudio2/JASSound</text>
<text text-anchor="middle" x="71.5" y="-139" font-family="Helvetica,sans-Serif" font-size="10.00">Params.h</text>
</a>
</g>
</g>
<!-- Node5&#45;&gt;Node6 -->
<g id="edge5" class="edge">
<title>Node5&#45;&gt;Node6</title>
<path fill="none" stroke="#63b8ff" d="M215.67,-263.57C198.22,-254.32 175.87,-241.55 157.5,-228 133.88,-210.58 109.64,-187.47 92.94,-170.56"/>
<polygon fill="#63b8ff" stroke="#63b8ff" points="95.48,-168.15 85.99,-163.44 90.47,-173.04 95.48,-168.15"/>
</g>
<!-- Node7 -->
<g id="node7" class="node">
<title>Node7</title>
<g id="a_node7"><a xlink:href="types_8h.html" target="_top" xlink:title=" ">
<polygon fill="white" stroke="#666666" points="826,-90.5 745,-90.5 745,-71.5 826,-71.5 826,-90.5"/>
<text text-anchor="middle" x="785.5" y="-78.5" font-family="Helvetica,sans-Serif" font-size="10.00">dolphin/types.h</text>
</a>
</g>
</g>
<!-- Node6&#45;&gt;Node7 -->
<g id="edge6" class="edge">
<title>Node6&#45;&gt;Node7</title>
<path fill="none" stroke="#63b8ff" d="M143.23,-133.87C148.06,-133.2 152.84,-132.56 157.5,-132 370.43,-106.24 625.65,-90.6 733.42,-84.7"/>
<polygon fill="#63b8ff" stroke="#63b8ff" points="733.3,-88.21 743.1,-84.17 732.92,-81.22 733.3,-88.21"/>
</g>
<!-- Node8 -->
<g id="node8" class="node">
<title>Node8</title>
<g id="a_node8"><a xlink:href="stddef_8h.html" target="_top" xlink:title=" ">
<polygon fill="white" stroke="#666666" points="853.5,-30 717.5,-30 717.5,0 853.5,0 853.5,-30"/>
<text text-anchor="start" x="725.5" y="-18" font-family="Helvetica,sans-Serif" font-size="10.00">MSL_C/MSL_Common/Src</text>
<text text-anchor="middle" x="785.5" y="-7" font-family="Helvetica,sans-Serif" font-size="10.00">/stddef.h</text>
</a>
</g>
</g>
<!-- Node7&#45;&gt;Node8 -->
<g id="edge7" class="edge">
<title>Node7&#45;&gt;Node8</title>
<path fill="none" stroke="#63b8ff" d="M785.5,-71.1C785.5,-63.41 785.5,-51.92 785.5,-41.42"/>
<polygon fill="#63b8ff" stroke="#63b8ff" points="789,-41.75 785.5,-31.75 782,-41.75 789,-41.75"/>
</g>
<!-- Node10 -->
<g id="node10" class="node">
<title>Node10</title>
<g id="a_node10"><a xlink:href="JGeometry_8h.html" target="_top" xlink:title=" ">
<polygon fill="white" stroke="#666666" points="1414,-222.5 1301,-222.5 1301,-203.5 1414,-203.5 1414,-222.5"/>
<text text-anchor="middle" x="1357.5" y="-210.5" font-family="Helvetica,sans-Serif" font-size="10.00">JSystem/JGeometry.h</text>
</a>
</g>
</g>
<!-- Node9&#45;&gt;Node10 -->
<g id="edge9" class="edge">
<title>Node9&#45;&gt;Node10</title>
<path fill="none" stroke="#63b8ff" d="M1028.16,-269.03C1097.58,-257.43 1218.4,-237.24 1292.82,-224.81"/>
<polygon fill="#63b8ff" stroke="#63b8ff" points="1293.12,-228.31 1302.4,-223.21 1291.96,-221.4 1293.12,-228.31"/>
</g>
<!-- Node11 -->
<g id="node11" class="node">
<title>Node11</title>
<g id="a_node11"><a xlink:href="vec_8h.html" target="_top" xlink:title=" ">
<polygon fill="white" stroke="#666666" points="1332.5,-156.5 1240.5,-156.5 1240.5,-137.5 1332.5,-137.5 1332.5,-156.5"/>
<text text-anchor="middle" x="1286.5" y="-144.5" font-family="Helvetica,sans-Serif" font-size="10.00">dolphin/mtx/vec.h</text>
</a>
</g>
</g>
<!-- Node10&#45;&gt;Node11 -->
<g id="edge10" class="edge">
<title>Node10&#45;&gt;Node11</title>
<path fill="none" stroke="#63b8ff" d="M1347.63,-203.1C1336.5,-193.07 1318.18,-176.56 1304.49,-164.22"/>
<polygon fill="#63b8ff" stroke="#63b8ff" points="1307.18,-161.93 1297.41,-157.84 1302.5,-167.13 1307.18,-161.93"/>
</g>
<!-- Node12 -->
<g id="node12" class="node">
<title>Node12</title>
<g id="a_node12"><a xlink:href="float_8h.html" target="_top" xlink:title=" ">
<polygon fill="white" stroke="#666666" points="1528.5,-156.5 1450.5,-156.5 1450.5,-137.5 1528.5,-137.5 1528.5,-156.5"/>
<text text-anchor="middle" x="1489.5" y="-144.5" font-family="Helvetica,sans-Serif" font-size="10.00">MSL_C/float.h</text>
</a>
</g>
</g>
<!-- Node10&#45;&gt;Node12 -->
<g id="edge12" class="edge">
<title>Node10&#45;&gt;Node12</title>
<path fill="none" stroke="#63b8ff" d="M1375.85,-203.1C1397.92,-192.4 1435.2,-174.33 1461.02,-161.81"/>
<polygon fill="#63b8ff" stroke="#63b8ff" points="1462.47,-165 1469.94,-157.48 1459.41,-158.7 1462.47,-165"/>
</g>
<!-- Node15 -->
<g id="node15" class="node">
<title>Node15</title>
<g id="a_node15"><a xlink:href="math_8h.html" target="_top" xlink:title=" ">
<polygon fill="white" stroke="#666666" points="1432.5,-156.5 1350.5,-156.5 1350.5,-137.5 1432.5,-137.5 1432.5,-156.5"/>
<text text-anchor="middle" x="1391.5" y="-144.5" font-family="Helvetica,sans-Serif" font-size="10.00">MSL_C/math.h</text>
</a>
</g>
</g>
<!-- Node10&#45;&gt;Node15 -->
<g id="edge15" class="edge">
<title>Node10&#45;&gt;Node15</title>
<path fill="none" stroke="#63b8ff" d="M1362.23,-203.1C1367.2,-193.74 1375.17,-178.73 1381.55,-166.74"/>
<polygon fill="#63b8ff" stroke="#63b8ff" points="1384.5,-168.63 1386.1,-158.16 1378.32,-165.35 1384.5,-168.63"/>
</g>
<!-- Node11&#45;&gt;Node7 -->
<g id="edge11" class="edge">
<title>Node11&#45;&gt;Node7</title>
<path fill="none" stroke="#63b8ff" d="M1251.11,-137.02C1243.05,-135.18 1234.51,-133.38 1226.5,-132 1087.05,-107.91 920.7,-92.65 837.83,-85.95"/>
<polygon fill="#63b8ff" stroke="#63b8ff" points="838.22,-82.47 827.97,-85.16 837.66,-89.45 838.22,-82.47"/>
</g>
<!-- Node13 -->
<g id="node13" class="node">
<title>Node13</title>
<g id="a_node13"><a xlink:href="MSL__Common_2Src_2float_8h.html" target="_top" xlink:title=" ">
<polygon fill="white" stroke="#666666" points="1508.5,-96 1372.5,-96 1372.5,-66 1508.5,-66 1508.5,-96"/>
<text text-anchor="start" x="1380.5" y="-84" font-family="Helvetica,sans-Serif" font-size="10.00">MSL_C/MSL_Common/Src</text>
<text text-anchor="middle" x="1440.5" y="-73" font-family="Helvetica,sans-Serif" font-size="10.00">/float.h</text>
</a>
</g>
</g>
<!-- Node12&#45;&gt;Node13 -->
<g id="edge13" class="edge">
<title>Node12&#45;&gt;Node13</title>
<path fill="none" stroke="#63b8ff" d="M1482.69,-137.1C1476.36,-128.84 1466.66,-116.17 1458.16,-105.06"/>
<polygon fill="#63b8ff" stroke="#63b8ff" points="1461.18,-103.25 1452.32,-97.44 1455.62,-107.5 1461.18,-103.25"/>
</g>
<!-- Node14 -->
<g id="node14" class="node">
<title>Node14</title>
<g id="a_node14"><a xlink:href="fdlibm_8h.html" target="_top" xlink:title=" ">
<polygon fill="white" stroke="#666666" points="1465.5,-24.5 1415.5,-24.5 1415.5,-5.5 1465.5,-5.5 1465.5,-24.5"/>
<text text-anchor="middle" x="1440.5" y="-12.5" font-family="Helvetica,sans-Serif" font-size="10.00">fdlibm.h</text>
</a>
</g>
</g>
<!-- Node13&#45;&gt;Node14 -->
<g id="edge14" class="edge">
<title>Node13&#45;&gt;Node14</title>
<path fill="none" stroke="#63b8ff" d="M1440.5,-65.8C1440.5,-57.09 1440.5,-45.81 1440.5,-36.18"/>
<polygon fill="#63b8ff" stroke="#63b8ff" points="1444,-36.36 1440.5,-26.36 1437,-36.36 1444,-36.36"/>
</g>
<!-- Node15&#45;&gt;Node13 -->
<g id="edge16" class="edge">
<title>Node15&#45;&gt;Node13</title>
<path fill="none" stroke="#63b8ff" d="M1398.31,-137.1C1404.64,-128.84 1414.34,-116.17 1422.84,-105.06"/>
<polygon fill="#63b8ff" stroke="#63b8ff" points="1425.38,-107.5 1428.68,-97.44 1419.82,-103.25 1425.38,-107.5"/>
</g>
<!-- Node16&#45;&gt;Node7 -->
<g id="edge18" class="edge">
<title>Node16&#45;&gt;Node7</title>
<path fill="none" stroke="#63b8ff" d="M336.17,-269.02C331.69,-267.26 326.97,-265.5 322.5,-264 264.84,-244.68 227.41,-276.33 190.5,-228 169.87,-200.99 209.52,-137.88 217.5,-132 258.5,-101.78 600.62,-87.84 733.25,-83.53"/>
<polygon fill="#63b8ff" stroke="#63b8ff" points="733.28,-87.03 743.16,-83.21 733.05,-80.03 733.28,-87.03"/>
</g>
<!-- Node17&#45;&gt;Node18 -->
<g id="edge20" class="edge">
<title>Node17&#45;&gt;Node18</title>
<path fill="none" stroke="#63b8ff" d="M952.75,-401.1C922.15,-390.1 869.85,-371.3 834.98,-358.76"/>
<polygon fill="#63b8ff" stroke="#63b8ff" points="836.34,-355.53 825.75,-355.44 833.98,-362.12 836.34,-355.53"/>
</g>
<!-- Node19 -->
<g id="node19" class="node">
<title>Node19</title>
<g id="a_node19"><a xlink:href="OSInterrupt_8h.html" target="_top" xlink:title=" ">
<polygon fill="white" stroke="#666666" points="1264.5,-354.5 1142.5,-354.5 1142.5,-335.5 1264.5,-335.5 1264.5,-354.5"/>
<text text-anchor="middle" x="1203.5" y="-342.5" font-family="Helvetica,sans-Serif" font-size="10.00">dolphin/os/OSInterrupt.h</text>
</a>
</g>
</g>
<!-- Node17&#45;&gt;Node19 -->
<g id="edge22" class="edge">
<title>Node17&#45;&gt;Node19</title>
<path fill="none" stroke="#63b8ff" d="M1008.92,-401.1C1048.53,-389.88 1116.77,-370.56 1161.01,-358.03"/>
<polygon fill="#63b8ff" stroke="#63b8ff" points="1161.85,-361.43 1170.52,-355.34 1159.95,-354.7 1161.85,-361.43"/>
</g>
<!-- Node20 -->
<g id="node20" class="node">
<title>Node20</title>
<g id="a_node20"><a xlink:href="OSMutex_8h.html" target="_top" xlink:title=" ">
<polygon fill="white" stroke="#666666" points="1124.5,-354.5 1012.5,-354.5 1012.5,-335.5 1124.5,-335.5 1124.5,-354.5"/>
<text text-anchor="middle" x="1068.5" y="-342.5" font-family="Helvetica,sans-Serif" font-size="10.00">dolphin/os/OSMutex.h</text>
</a>
</g>
</g>
<!-- Node17&#45;&gt;Node20 -->
<g id="edge24" class="edge">
<title>Node17&#45;&gt;Node20</title>
<path fill="none" stroke="#63b8ff" d="M990.15,-401.1C1004.82,-390.78 1029.25,-373.61 1046.93,-361.17"/>
<polygon fill="#63b8ff" stroke="#63b8ff" points="1048.55,-364.31 1054.72,-355.69 1044.52,-358.58 1048.55,-364.31"/>
</g>
<!-- Node18&#45;&gt;Node7 -->
<g id="edge21" class="edge">
<title>Node18&#45;&gt;Node7</title>
<path fill="none" stroke="#63b8ff" d="M806.76,-335.22C821,-318.59 854.38,-282.53 890.5,-264 957.48,-229.64 1087.52,-261.12 1046.5,-198 1000.33,-126.96 899.52,-99.07 837.58,-88.38"/>
<polygon fill="#63b8ff" stroke="#63b8ff" points="838.41,-84.97 827.98,-86.82 837.29,-91.88 838.41,-84.97"/>
</g>
<!-- Node19&#45;&gt;Node7 -->
<g id="edge23" class="edge">
<title>Node19&#45;&gt;Node7</title>
<path fill="none" stroke="#63b8ff" d="M1206.52,-335.27C1216.97,-303.21 1248.13,-190.88 1193.5,-132 1169.67,-106.32 942.29,-90.61 837.69,-84.69"/>
<polygon fill="#63b8ff" stroke="#63b8ff" points="838.15,-81.21 827.97,-84.15 837.76,-88.2 838.15,-81.21"/>
</g>
<!-- Node21 -->
<g id="node21" class="node">
<title>Node21</title>
<g id="a_node21"><a xlink:href="OSThread_8h.html" target="_top" xlink:title=" ">
<polygon fill="white" stroke="#666666" points="1184.5,-288.5 1068.5,-288.5 1068.5,-269.5 1184.5,-269.5 1184.5,-288.5"/>
<text text-anchor="middle" x="1126.5" y="-276.5" font-family="Helvetica,sans-Serif" font-size="10.00">dolphin/os/OSThread.h</text>
</a>
</g>
</g>
<!-- Node20&#45;&gt;Node21 -->
<g id="edge25" class="edge">
<title>Node20&#45;&gt;Node21</title>
<path fill="none" stroke="#63b8ff" d="M1076.56,-335.1C1085.39,-325.36 1099.77,-309.5 1110.83,-297.29"/>
<polygon fill="#63b8ff" stroke="#63b8ff" points="1113.37,-299.71 1117.49,-289.94 1108.18,-295 1113.37,-299.71"/>
</g>
<!-- Node22 -->
<g id="node22" class="node">
<title>Node22</title>
<g id="a_node22"><a xlink:href="OSContext_8h.html" target="_top" xlink:title=" ">
<polygon fill="white" stroke="#666666" points="1184,-156.5 1065,-156.5 1065,-137.5 1184,-137.5 1184,-156.5"/>
<text text-anchor="middle" x="1124.5" y="-144.5" font-family="Helvetica,sans-Serif" font-size="10.00">dolphin/os/OSContext.h</text>
</a>
</g>
</g>
<!-- Node21&#45;&gt;Node22 -->
<g id="edge26" class="edge">
<title>Node21&#45;&gt;Node22</title>
<path fill="none" stroke="#63b8ff" d="M1126.36,-269.06C1126.05,-248.47 1125.26,-197.23 1124.81,-168.45"/>
<polygon fill="#63b8ff" stroke="#63b8ff" points="1128.32,-168.46 1124.66,-158.51 1121.32,-168.56 1128.32,-168.46"/>
</g>
<!-- Node22&#45;&gt;Node7 -->
<g id="edge27" class="edge">
<title>Node22&#45;&gt;Node7</title>
<path fill="none" stroke="#63b8ff" d="M1077.13,-137.03C1068.28,-135.36 1059.11,-133.63 1050.5,-132 976.57,-118.03 891.03,-101.9 837.59,-91.82"/>
<polygon fill="#63b8ff" stroke="#63b8ff" points="838.32,-88.4 827.85,-89.98 837.02,-95.28 838.32,-88.4"/>
</g>
<!-- Node24 -->
<g id="node24" class="node">
<title>Node24</title>
<g id="a_node24"><a xlink:href="JASGadget_8h.html" target="_top" xlink:title=" ">
<polygon fill="white" stroke="#666666" points="353.5,-222.5 199.5,-222.5 199.5,-203.5 353.5,-203.5 353.5,-222.5"/>
<text text-anchor="middle" x="276.5" y="-210.5" font-family="Helvetica,sans-Serif" font-size="10.00">JSystem/JAudio2/JASGadget.h</text>
</a>
</g>
</g>
<!-- Node23&#45;&gt;Node24 -->
<g id="edge29" class="edge">
<title>Node23&#45;&gt;Node24</title>
<path fill="none" stroke="#63b8ff" d="M574.89,-269.03C512.38,-257.51 403.87,-237.49 336.35,-225.04"/>
<polygon fill="#63b8ff" stroke="#63b8ff" points="337.02,-221.6 326.55,-223.23 335.75,-228.49 337.02,-221.6"/>
</g>
<!-- Node26 -->
<g id="node26" class="node">
<title>Node26</title>
<g id="a_node26"><a xlink:href="JASOscillator_8h.html" target="_top" xlink:title=" ">
<polygon fill="white" stroke="#666666" points="867.5,-222.5 703.5,-222.5 703.5,-203.5 867.5,-203.5 867.5,-222.5"/>
<text text-anchor="middle" x="785.5" y="-210.5" font-family="Helvetica,sans-Serif" font-size="10.00">JSystem/JAudio2/JASOscillator.h</text>
</a>
</g>
</g>
<!-- Node23&#45;&gt;Node26 -->
<g id="edge32" class="edge">
<title>Node23&#45;&gt;Node26</title>
<path fill="none" stroke="#63b8ff" d="M646.03,-269.1C673.63,-258.19 720.65,-239.62 752.38,-227.09"/>
<polygon fill="#63b8ff" stroke="#63b8ff" points="753.48,-230.41 761.5,-223.48 750.91,-223.9 753.48,-230.41"/>
</g>
<!-- Node27 -->
<g id="node27" class="node">
<title>Node27</title>
<g id="a_node27"><a xlink:href="JASRegisterParam_8h.html" target="_top" xlink:title=" ">
<polygon fill="white" stroke="#666666" points="1037,-228 886,-228 886,-198 1037,-198 1037,-228"/>
<text text-anchor="start" x="894" y="-216" font-family="Helvetica,sans-Serif" font-size="10.00">JSystem/JAudio2/JASRegister</text>
<text text-anchor="middle" x="961.5" y="-205" font-family="Helvetica,sans-Serif" font-size="10.00">Param.h</text>
</a>
</g>
</g>
<!-- Node23&#45;&gt;Node27 -->
<g id="edge34" class="edge">
<title>Node23&#45;&gt;Node27</title>
<path fill="none" stroke="#63b8ff" d="M670.85,-269.03C723.49,-259.07 809.63,-242.76 874.5,-230.47"/>
<polygon fill="#63b8ff" stroke="#63b8ff" points="874.87,-233.97 884.05,-228.67 873.57,-227.09 874.87,-233.97"/>
</g>
<!-- Node28 -->
<g id="node28" class="node">
<title>Node28</title>
<g id="a_node28"><a xlink:href="JASSeqCtrl_8h.html" target="_top" xlink:title=" ">
<polygon fill="white" stroke="#666666" points="527,-222.5 372,-222.5 372,-203.5 527,-203.5 527,-222.5"/>
<text text-anchor="middle" x="449.5" y="-210.5" font-family="Helvetica,sans-Serif" font-size="10.00">JSystem/JAudio2/JASSeqCtrl.h</text>
</a>
</g>
</g>
<!-- Node23&#45;&gt;Node28 -->
<g id="edge36" class="edge">
<title>Node23&#45;&gt;Node28</title>
<path fill="none" stroke="#63b8ff" d="M599.31,-269.1C569.39,-258.1 518.27,-239.3 484.19,-226.76"/>
<polygon fill="#63b8ff" stroke="#63b8ff" points="485.78,-223.62 475.19,-223.45 483.37,-230.19 485.78,-223.62"/>
</g>
<!-- Node30 -->
<g id="node30" class="node">
<title>Node30</title>
<g id="a_node30"><a xlink:href="JASTrackPort_8h.html" target="_top" xlink:title=" ">
<polygon fill="white" stroke="#666666" points="685.5,-228 545.5,-228 545.5,-198 685.5,-198 685.5,-228"/>
<text text-anchor="start" x="553.5" y="-216" font-family="Helvetica,sans-Serif" font-size="10.00">JSystem/JAudio2/JASTrack</text>
<text text-anchor="middle" x="615.5" y="-205" font-family="Helvetica,sans-Serif" font-size="10.00">Port.h</text>
</a>
</g>
</g>
<!-- Node23&#45;&gt;Node30 -->
<g id="edge39" class="edge">
<title>Node23&#45;&gt;Node30</title>
<path fill="none" stroke="#63b8ff" d="M622.39,-269.1C621.43,-261.41 619.99,-249.92 618.68,-239.42"/>
<polygon fill="#63b8ff" stroke="#63b8ff" points="622.18,-239.22 617.47,-229.74 615.23,-240.09 622.18,-239.22"/>
</g>
<!-- Node25 -->
<g id="node25" class="node">
<title>Node25</title>
<g id="a_node25"><a xlink:href="JUTAssert_8h.html" target="_top" xlink:title=" ">
<polygon fill="white" stroke="#666666" points="372.5,-156.5 226.5,-156.5 226.5,-137.5 372.5,-137.5 372.5,-156.5"/>
<text text-anchor="middle" x="299.5" y="-144.5" font-family="Helvetica,sans-Serif" font-size="10.00">JSystem/JUtility/JUTAssert.h</text>
</a>
</g>
</g>
<!-- Node24&#45;&gt;Node25 -->
<g id="edge30" class="edge">
<title>Node24&#45;&gt;Node25</title>
<path fill="none" stroke="#63b8ff" d="M279.7,-203.1C282.99,-193.93 288.24,-179.34 292.5,-167.48"/>
<polygon fill="#63b8ff" stroke="#63b8ff" points="295.73,-168.84 295.82,-158.25 289.14,-166.47 295.73,-168.84"/>
</g>
<!-- Node25&#45;&gt;Node7 -->
<g id="edge31" class="edge">
<title>Node25&#45;&gt;Node7</title>
<path fill="none" stroke="#63b8ff" d="M367.59,-137.03C465.72,-124.11 644.8,-100.53 733.24,-88.88"/>
<polygon fill="#63b8ff" stroke="#63b8ff" points="733.63,-92.36 743.09,-87.59 732.71,-85.42 733.63,-92.36"/>
</g>
<!-- Node26&#45;&gt;Node7 -->
<g id="edge33" class="edge">
<title>Node26&#45;&gt;Node7</title>
<path fill="none" stroke="#63b8ff" d="M785.5,-203.06C785.5,-182.47 785.5,-131.23 785.5,-102.45"/>
<polygon fill="#63b8ff" stroke="#63b8ff" points="789,-102.51 785.5,-92.51 782,-102.51 789,-102.51"/>
</g>
<!-- Node27&#45;&gt;Node7 -->
<g id="edge35" class="edge">
<title>Node27&#45;&gt;Node7</title>
<path fill="none" stroke="#63b8ff" d="M941.99,-197.59C908.59,-172.92 840.75,-122.81 806.41,-97.45"/>
<polygon fill="#63b8ff" stroke="#63b8ff" points="808.63,-94.73 798.51,-91.61 804.47,-100.36 808.63,-94.73"/>
</g>
<!-- Node29 -->
<g id="node29" class="node">
<title>Node29</title>
<g id="a_node29"><a xlink:href="JASSeqReader_8h.html" target="_top" xlink:title=" ">
<polygon fill="white" stroke="#666666" points="651.5,-156.5 481.5,-156.5 481.5,-137.5 651.5,-137.5 651.5,-156.5"/>
<text text-anchor="middle" x="566.5" y="-144.5" font-family="Helvetica,sans-Serif" font-size="10.00">JSystem/JAudio2/JASSeqReader.h</text>
</a>
</g>
</g>
<!-- Node28&#45;&gt;Node29 -->
<g id="edge37" class="edge">
<title>Node28&#45;&gt;Node29</title>
<path fill="none" stroke="#63b8ff" d="M465.77,-203.1C485.07,-192.55 517.49,-174.81 540.33,-162.32"/>
<polygon fill="#63b8ff" stroke="#63b8ff" points="541.95,-165.42 549.04,-157.55 538.59,-159.28 541.95,-165.42"/>
</g>
<!-- Node29&#45;&gt;Node7 -->
<g id="edge38" class="edge">
<title>Node29&#45;&gt;Node7</title>
<path fill="none" stroke="#63b8ff" d="M596.95,-137.1C635.25,-125.91 701.18,-106.64 744.05,-94.11"/>
<polygon fill="#63b8ff" stroke="#63b8ff" points="744.89,-97.52 753.5,-91.35 742.92,-90.8 744.89,-97.52"/>
</g>
<!-- Node30&#45;&gt;Node7 -->
<g id="edge40" class="edge">
<title>Node30&#45;&gt;Node7</title>
<path fill="none" stroke="#63b8ff" d="M634.34,-197.59C666.6,-172.92 732.13,-122.81 765.3,-97.45"/>
<polygon fill="#63b8ff" stroke="#63b8ff" points="767.09,-100.48 772.91,-91.63 762.84,-94.92 767.09,-100.48"/>
</g>
<!-- Node31&#45;&gt;Node3 -->
<g id="edge43" class="edge">
<title>Node31&#45;&gt;Node3</title>
<path fill="none" stroke="#63b8ff" d="M509.58,-472.7C516.01,-463.38 526.44,-448.29 535.28,-435.49"/>
<polygon fill="#63b8ff" stroke="#63b8ff" points="537.98,-437.74 540.78,-427.52 532.22,-433.76 537.98,-437.74"/>
</g>
<!-- Node31&#45;&gt;Node18 -->
<g id="edge45" class="edge">
<title>Node31&#45;&gt;Node18</title>
<path fill="none" stroke="#63b8ff" d="M494.09,-472.54C477.66,-455.81 447.33,-419.44 467.5,-396 483.58,-377.31 623.43,-361.49 716.41,-352.9"/>
<polygon fill="#63b8ff" stroke="#63b8ff" points="716.64,-356.4 726.29,-352 716.01,-349.42 716.64,-356.4"/>
</g>
<!-- Node31&#45;&gt;Node24 -->
<g id="edge44" class="edge">
<title>Node31&#45;&gt;Node24</title>
<path fill="none" stroke="#63b8ff" d="M494.76,-472.73C484.74,-462.3 468.3,-444.04 457.5,-426 417.56,-359.3 445.83,-319.61 391.5,-264 373.91,-246 348.77,-234.06 326.47,-226.38"/>
<polygon fill="#63b8ff" stroke="#63b8ff" points="327.83,-223.14 317.24,-223.41 325.68,-229.8 327.83,-223.14"/>
</g>
<!-- Node32&#45;&gt;Node19 -->
<g id="edge47" class="edge">
<title>Node32&#45;&gt;Node19</title>
<path fill="none" stroke="#63b8ff" d="M1191.05,-395.8C1193.25,-386.99 1196.11,-375.55 1198.53,-365.86"/>
<polygon fill="#63b8ff" stroke="#63b8ff" points="1201.89,-366.86 1200.92,-356.31 1195.1,-365.17 1201.89,-366.86"/>
</g>
<!-- Node33&#45;&gt;Node5 -->
<g id="edge49" class="edge">
<title>Node33&#45;&gt;Node5</title>
<path fill="none" stroke="#63b8ff" d="M270.95,-329.8C266.95,-322.26 261.92,-312.78 257.32,-304.13"/>
<polygon fill="#63b8ff" stroke="#63b8ff" points="260.52,-302.69 252.73,-295.5 254.34,-305.97 260.52,-302.69"/>
</g>
<!-- Node34&#45;&gt;Node10 -->
<g id="edge51" class="edge">
<title>Node34&#45;&gt;Node10</title>
<path fill="none" stroke="#63b8ff" d="M1357.5,-401.07C1357.5,-371.54 1357.5,-276.56 1357.5,-234.44"/>
<polygon fill="#63b8ff" stroke="#63b8ff" points="1361,-234.5 1357.5,-224.5 1354,-234.5 1361,-234.5"/>
</g>
<!-- Node35&#45;&gt;Node20 -->
<g id="edge55" class="edge">
<title>Node35&#45;&gt;Node20</title>
<path fill="none" stroke="#63b8ff" d="M884.82,-472.51C950.83,-460.85 1056.03,-440.3 1067.5,-426 1080.92,-409.27 1078.52,-383.61 1074.49,-365.88"/>
<polygon fill="#63b8ff" stroke="#63b8ff" points="1077.9,-365.07 1071.94,-356.31 1071.13,-366.88 1077.9,-365.07"/>
</g>
<!-- Node36 -->
<g id="node36" class="node">
<title>Node36</title>
<g id="a_node36"><a xlink:href="JKRDisposer_8h.html" target="_top" xlink:title=" ">
<polygon fill="white" stroke="#666666" points="878.5,-420.5 720.5,-420.5 720.5,-401.5 878.5,-401.5 878.5,-420.5"/>
<text text-anchor="middle" x="799.5" y="-408.5" font-family="Helvetica,sans-Serif" font-size="10.00">JSystem/JKernel/JKRDisposer.h</text>
</a>
</g>
</g>
<!-- Node35&#45;&gt;Node36 -->
<g id="edge53" class="edge">
<title>Node35&#45;&gt;Node36</title>
<path fill="none" stroke="#63b8ff" d="M827.45,-472.7C822.66,-462.31 814.57,-444.74 808.32,-431.16"/>
<polygon fill="#63b8ff" stroke="#63b8ff" points="811.62,-429.94 804.25,-422.33 805.26,-432.87 811.62,-429.94"/>
</g>
<!-- Node36&#45;&gt;Node18 -->
<g id="edge54" class="edge">
<title>Node36&#45;&gt;Node18</title>
<path fill="none" stroke="#63b8ff" d="M799.5,-401.1C799.5,-392.12 799.5,-377.95 799.5,-366.22"/>
<polygon fill="#63b8ff" stroke="#63b8ff" points="803,-366.34 799.5,-356.34 796,-366.34 803,-366.34"/>
</g>
</g>
</svg>
        <g id="navigator" transform="translate(0 0)" fill="#404254">
                <rect fill="#f2f5e9" fill-opacity="0.5" stroke="#606060" stroke-width=".5" x="0" y="0" width="60" height="60"/>
                <use id="zoomplus" xlink:href="#zoomPlus" x="17" y="9" onmousedown="handleZoom(evt,'in')"/>
                <use id="zoomminus" xlink:href="#zoomMin" x="42" y="9" onmousedown="handleZoom(evt,'out')"/>
                <use id="reset" xlink:href="#resetDef" x="30" y="36" onmousedown="handleReset()"/>
                <g id="arrowUp" xlink:href="#dirArrow" transform="translate(30 24)" onmousedown="handlePan(0,-1)">
                  <use xlink:href="#rim" fill="#404040">
                        <set attributeName="fill" to="#808080" begin="arrowUp.mouseover" end="arrowUp.mouseout"/>
                  </use>
                  <path fill="none" stroke="white" stroke-width="1.5" d="M0,-3.0v7 M-2.5,-0.5L0,-3.0L2.5,-0.5"/>
                </g>
                <g id="arrowRight" xlink:href="#dirArrow" transform="rotate(90) translate(36 -43)" onmousedown="handlePan(1,0)">
                  <use xlink:href="#rim" fill="#404040">
                        <set attributeName="fill" to="#808080" begin="arrowRight.mouseover" end="arrowRight.mouseout"/>
                  </use>
                  <path fill="none" stroke="white" stroke-width="1.5" d="M0,-3.0v7 M-2.5,-0.5L0,-3.0L2.5,-0.5"/>
                </g>
                <g id="arrowDown" xlink:href="#dirArrow" transform="rotate(180) translate(-30 -48)" onmousedown="handlePan(0,1)">
                  <use xlink:href="#rim" fill="#404040">
                        <set attributeName="fill" to="#808080" begin="arrowDown.mouseover" end="arrowDown.mouseout"/>
                  </use>
                  <path fill="none" stroke="white" stroke-width="1.5" d="M0,-3.0v7 M-2.5,-0.5L0,-3.0L2.5,-0.5"/>
                </g>
                <g id="arrowLeft" xlink:href="#dirArrow" transform="rotate(270) translate(-36 17)" onmousedown="handlePan(-1,0)">
                  <use xlink:href="#rim" fill="#404040">
                        <set attributeName="fill" to="#808080" begin="arrowLeft.mouseover" end="arrowLeft.mouseout"/>
                  </use>
                  <path fill="none" stroke="white" stroke-width="1.5" d="M0,-3.0v7 M-2.5,-0.5L0,-3.0L2.5,-0.5"/>
                </g>
        </g>
        <svg viewBox="0 0 15 15" width="100%" height="30px" preserveAspectRatio="xMaxYMin meet">
         <g id="arrow_out" transform="scale(0.3 0.3)">
          <a xlink:href="JAISeq_8cpp__incl_org.svg" target="_base">
           <rect id="button" ry="5" rx="5" y="6" x="6" height="38" width="38"
                fill="#f2f5e9" fill-opacity="0.5" stroke="#606060" stroke-width="1.0"/>
           <path id="arrow"
             d="M 11.500037,31.436501 C 11.940474,20.09759 22.043105,11.32322 32.158766,21.979434 L 37.068811,17.246167 C 37.068811,17.246167 37.088388,32 37.088388,32 L 22.160133,31.978069 C 22.160133,31.978069 26.997745,27.140456 26.997745,27.140456 C 18.528582,18.264221 13.291696,25.230495 11.500037,31.436501 z"
             style="fill:#404040;"/>
          </a>
         </g>
        </svg>
</svg>
