<?xml version="1.0" encoding="UTF-8" standalone="no"?>
<!DOCTYPE svg PUBLIC "-//W3C//DTD SVG 1.1//EN"
 "http://www.w3.org/Graphics/SVG/1.1/DTD/svg11.dtd">
<!-- Generated by graphviz version 7.0.5 (20221223.1930)
 -->
<!-- Title: libs/JSystem/JAudio2/JAISeMgr.cpp Pages: 1 -->
<!--zoomable 632 -->
<svg id="main" version="1.1" xmlns="http://www.w3.org/2000/svg" xmlns:xlink="http://www.w3.org/1999/xlink" xml:space="preserve" onload="init(evt)">
<style type="text/css"><![CDATA[
.edge:hover path { stroke: red; }
.edge:hover polygon { stroke: red; fill: red; }
]]></style>
<script type="text/javascript"><![CDATA[
var edges = document.getElementsByTagName('g');
if (edges && edges.length) {
  for (var i=0;i<edges.length;i++) {
    if (edges[i].id.substr(0,4)=='edge') {
      edges[i].setAttribute('class','edge');
    }
  }
}
]]></script>
        <defs>
                <circle id="rim" cx="0" cy="0" r="7"/>
                <circle id="rim2" cx="0" cy="0" r="3.5"/>
                <g id="zoomPlus">
                        <use xlink:href="#rim" fill="#404040">
                                <set attributeName="fill" to="#808080" begin="zoomplus.mouseover" end="zoomplus.mouseout"/>
                        </use>
                        <path d="M-4,0h8M0,-4v8" fill="none" stroke="white" stroke-width="1.5" pointer-events="none"/>
                </g>
                <g id="zoomMin">
                        <use xlink:href="#rim" fill="#404040">
                                <set attributeName="fill" to="#808080" begin="zoomminus.mouseover" end="zoomminus.mouseout"/>
                        </use>
                        <path d="M-4,0h8" fill="none" stroke="white" stroke-width="1.5" pointer-events="none"/>
                </g>
                <g id="dirArrow">
                        <path fill="none" stroke="white" stroke-width="1.5" d="M0,-3.0v7 M-2.5,-0.5L0,-3.0L2.5,-0.5"/>
                </g>
               <g id="resetDef">
                       <use xlink:href="#rim2" fill="#404040">
                               <set attributeName="fill" to="#808080" begin="reset.mouseover" end="reset.mouseout"/>
                       </use>
               </g>
        </defs>

<script type="text/javascript">
var viewWidth = 2540;
var viewHeight = 632;
var sectionId = 'dynsection-0';
</script>
<script xlink:href="svgpan.js"/>
<svg id="graph" class="graph">
<g id="viewport">
<title>libs/JSystem/JAudio2/JAISeMgr.cpp</title>
<!-- Node1 -->
<g id="node1" class="node">
<title>Node1</title>
<g id="a_node1"><a xlink:title=" ">
<polygon fill="#999999" stroke="#666666" points="1438,-624 1327,-624 1327,-594 1438,-594 1438,-624"/>
<text text-anchor="start" x="1335" y="-612" font-family="Helvetica,sans-Serif" font-size="10.00">libs/JSystem/JAudio2</text>
<text text-anchor="middle" x="1382.5" y="-601" font-family="Helvetica,sans-Serif" font-size="10.00">/JAISeMgr.cpp</text>
</a>
</g>
</g>
<!-- Node2 -->
<g id="node2" class="node">
<title>Node2</title>
<g id="a_node2"><a xlink:href="JAISeMgr_8h.html" target="_top" xlink:title=" ">
<polygon fill="white" stroke="#666666" points="528,-541.5 381,-541.5 381,-522.5 528,-522.5 528,-541.5"/>
<text text-anchor="middle" x="454.5" y="-529.5" font-family="Helvetica,sans-Serif" font-size="10.00">JSystem/JAudio2/JAISeMgr.h</text>
</a>
</g>
</g>
<!-- Node1&#45;&gt;Node2 -->
<g id="edge1" class="edge">
<title>Node1&#45;&gt;Node2</title>
<path fill="none" stroke="#63b8ff" d="M1326.54,-603.48C1170.03,-590.83 727.07,-555.03 539.79,-539.89"/>
<polygon fill="#63b8ff" stroke="#63b8ff" points="540.12,-536.41 529.87,-539.09 539.56,-543.39 540.12,-536.41"/>
</g>
<!-- Node32 -->
<g id="node32" class="node">
<title>Node32</title>
<g id="a_node32"><a xlink:href="JAISoundHandles_8h.html" target="_top" xlink:title=" ">
<polygon fill="white" stroke="#666666" points="1050,-415 911,-415 911,-385 1050,-385 1050,-415"/>
<text text-anchor="start" x="919" y="-403" font-family="Helvetica,sans-Serif" font-size="10.00">JSystem/JAudio2/JAISound</text>
<text text-anchor="middle" x="980.5" y="-392" font-family="Helvetica,sans-Serif" font-size="10.00">Handles.h</text>
</a>
</g>
</g>
<!-- Node1&#45;&gt;Node32 -->
<g id="edge45" class="edge">
<title>Node1&#45;&gt;Node32</title>
<path fill="none" stroke="#63b8ff" d="M1326.68,-606.56C1202.29,-602.79 910.94,-590.52 881.5,-558 842.2,-514.58 908.6,-453.68 950.43,-422"/>
<polygon fill="#63b8ff" stroke="#63b8ff" points="952.27,-425 958.23,-416.24 948.1,-419.37 952.27,-425"/>
</g>
<!-- Node33 -->
<g id="node33" class="node">
<title>Node33</title>
<g id="a_node33"><a xlink:href="JAISoundInfo_8h.html" target="_top" xlink:title=" ">
<polygon fill="white" stroke="#666666" points="893,-415 754,-415 754,-385 893,-385 893,-415"/>
<text text-anchor="start" x="762" y="-403" font-family="Helvetica,sans-Serif" font-size="10.00">JSystem/JAudio2/JAISound</text>
<text text-anchor="middle" x="823.5" y="-392" font-family="Helvetica,sans-Serif" font-size="10.00">Info.h</text>
</a>
</g>
</g>
<!-- Node1&#45;&gt;Node33 -->
<g id="edge48" class="edge">
<title>Node1&#45;&gt;Node33</title>
<path fill="none" stroke="#63b8ff" d="M1326.89,-606.16C1200.56,-601.48 900.16,-587.37 865.5,-558 827.18,-525.53 821.84,-462.3 822.15,-426.79"/>
<polygon fill="#63b8ff" stroke="#63b8ff" points="825.64,-427.09 822.41,-417 818.65,-426.9 825.64,-427.09"/>
</g>
<!-- Node34 -->
<g id="node34" class="node">
<title>Node34</title>
<g id="a_node34"><a xlink:href="JASReport_8h.html" target="_top" xlink:title=" ">
<polygon fill="white" stroke="#666666" points="1041,-541.5 890,-541.5 890,-522.5 1041,-522.5 1041,-541.5"/>
<text text-anchor="middle" x="965.5" y="-529.5" font-family="Helvetica,sans-Serif" font-size="10.00">JSystem/JAudio2/JASReport.h</text>
</a>
</g>
</g>
<!-- Node1&#45;&gt;Node34 -->
<g id="edge51" class="edge">
<title>Node1&#45;&gt;Node34</title>
<path fill="none" stroke="#63b8ff" d="M1326.56,-601.94C1260.22,-594.21 1146.54,-579.25 1050.5,-558 1034.82,-554.53 1017.8,-549.73 1003.13,-545.27"/>
<polygon fill="#63b8ff" stroke="#63b8ff" points="1004.47,-542.02 993.88,-542.4 1002.39,-548.7 1004.47,-542.02"/>
</g>
<!-- Node35 -->
<g id="node35" class="node">
<title>Node35</title>
<g id="a_node35"><a xlink:href="dol2asm_8h.html" target="_top" xlink:title=" ">
<polygon fill="white" stroke="#666666" points="1120,-541.5 1059,-541.5 1059,-522.5 1120,-522.5 1120,-541.5"/>
<text text-anchor="middle" x="1089.5" y="-529.5" font-family="Helvetica,sans-Serif" font-size="10.00">dol2asm.h</text>
</a>
</g>
</g>
<!-- Node1&#45;&gt;Node35 -->
<g id="edge52" class="edge">
<title>Node1&#45;&gt;Node35</title>
<path fill="none" stroke="#63b8ff" d="M1326.58,-602.84C1274.19,-596.65 1194.44,-583.7 1129.5,-558 1122.96,-555.41 1116.31,-551.75 1110.36,-548.02"/>
<polygon fill="#63b8ff" stroke="#63b8ff" points="1112.66,-545.35 1102.4,-542.71 1108.78,-551.17 1112.66,-545.35"/>
</g>
<!-- Node36 -->
<g id="node36" class="node">
<title>Node36</title>
<g id="a_node36"><a xlink:title=" ">
<polygon fill="#e0e0e0" stroke="#999999" points="1293,-552.5 1138,-552.5 1138,-511.5 1293,-511.5 1293,-552.5"/>
<text text-anchor="start" x="1146" y="-540.5" font-family="Helvetica,sans-Serif" font-size="10.00">asm/JSystem/JAudio2</text>
<text text-anchor="start" x="1146" y="-529.5" font-family="Helvetica,sans-Serif" font-size="10.00">/JAISeMgr/JAISeMgr_freeDead</text>
<text text-anchor="middle" x="1215.5" y="-518.5" font-family="Helvetica,sans-Serif" font-size="10.00">Se___16JAISeCategoryMgrFv.s</text>
</a>
</g>
</g>
<!-- Node1&#45;&gt;Node36 -->
<g id="edge53" class="edge">
<title>Node1&#45;&gt;Node36</title>
<path fill="none" stroke="#63b8ff" d="M1350.3,-593.54C1327.62,-583.36 1296.71,-569.47 1270.2,-557.57"/>
<polygon fill="#63b8ff" stroke="#63b8ff" points="1271.85,-554.47 1261.29,-553.56 1268.98,-560.85 1271.85,-554.47"/>
</g>
<!-- Node37 -->
<g id="node37" class="node">
<title>Node37</title>
<g id="a_node37"><a xlink:title=" ">
<polygon fill="#e0e0e0" stroke="#999999" points="1453.5,-547 1311.5,-547 1311.5,-517 1453.5,-517 1453.5,-547"/>
<text text-anchor="start" x="1319.5" y="-535" font-family="Helvetica,sans-Serif" font-size="10.00">asm/JSystem/JAudio2</text>
<text text-anchor="middle" x="1382.5" y="-524" font-family="Helvetica,sans-Serif" font-size="10.00">/JAISeMgr/func_8029FC34.s</text>
</a>
</g>
</g>
<!-- Node1&#45;&gt;Node37 -->
<g id="edge54" class="edge">
<title>Node1&#45;&gt;Node37</title>
<path fill="none" stroke="#63b8ff" d="M1382.5,-593.54C1382.5,-583.68 1382.5,-570.36 1382.5,-558.72"/>
<polygon fill="#63b8ff" stroke="#63b8ff" points="1386,-558.93 1382.5,-548.93 1379,-558.93 1386,-558.93"/>
</g>
<!-- Node38 -->
<g id="node38" class="node">
<title>Node38</title>
<g id="a_node38"><a xlink:title=" ">
<polygon fill="#e0e0e0" stroke="#999999" points="1669,-558 1472,-558 1472,-506 1669,-506 1669,-558"/>
<text text-anchor="start" x="1480" y="-546" font-family="Helvetica,sans-Serif" font-size="10.00">asm/JSystem/JAudio2</text>
<text text-anchor="start" x="1480" y="-535" font-family="Helvetica,sans-Serif" font-size="10.00">/JAISeMgr/JAISeMgr_mixOut</text>
<text text-anchor="start" x="1480" y="-524" font-family="Helvetica,sans-Serif" font-size="10.00">___16JAISeCategoryMgrFRC18JAISound</text>
<text text-anchor="middle" x="1570.5" y="-513" font-family="Helvetica,sans-Serif" font-size="10.00">ParamsMove16JAISoundActivity.s</text>
</a>
</g>
</g>
<!-- Node1&#45;&gt;Node38 -->
<g id="edge55" class="edge">
<title>Node1&#45;&gt;Node38</title>
<path fill="none" stroke="#63b8ff" d="M1418.75,-593.54C1440.79,-584.75 1469.75,-573.19 1496.46,-562.54"/>
<polygon fill="#63b8ff" stroke="#63b8ff" points="1497.55,-565.87 1505.54,-558.91 1494.96,-559.37 1497.55,-565.87"/>
</g>
<!-- Node39 -->
<g id="node39" class="node">
<title>Node39</title>
<g id="a_node39"><a xlink:title=" ">
<polygon fill="#e0e0e0" stroke="#999999" points="1850,-547 1687,-547 1687,-517 1850,-517 1850,-547"/>
<text text-anchor="start" x="1695" y="-535" font-family="Helvetica,sans-Serif" font-size="10.00">asm/JSystem/JAudio2</text>
<text text-anchor="middle" x="1768.5" y="-524" font-family="Helvetica,sans-Serif" font-size="10.00">/JAISeMgr/__ct__8JAISeMgrFb.s</text>
</a>
</g>
</g>
<!-- Node1&#45;&gt;Node39 -->
<g id="edge56" class="edge">
<title>Node1&#45;&gt;Node39</title>
<path fill="none" stroke="#63b8ff" d="M1438.48,-600.31C1498.25,-591.69 1595.58,-576.47 1678.5,-558 1688.5,-555.77 1699.04,-553.12 1709.25,-550.4"/>
<polygon fill="#63b8ff" stroke="#63b8ff" points="1709.97,-553.83 1718.7,-547.82 1708.13,-547.07 1709.97,-553.83"/>
</g>
<!-- Node40 -->
<g id="node40" class="node">
<title>Node40</title>
<g id="a_node40"><a xlink:title=" ">
<polygon fill="#e0e0e0" stroke="#999999" points="1983,-552.5 1868,-552.5 1868,-511.5 1983,-511.5 1983,-552.5"/>
<text text-anchor="start" x="1876" y="-540.5" font-family="Helvetica,sans-Serif" font-size="10.00">asm/JSystem/JAudio2</text>
<text text-anchor="start" x="1876" y="-529.5" font-family="Helvetica,sans-Serif" font-size="10.00">/JAISeMgr/initParams</text>
<text text-anchor="middle" x="1925.5" y="-518.5" font-family="Helvetica,sans-Serif" font-size="10.00">__8JAISeMgrFv.s</text>
</a>
</g>
</g>
<!-- Node1&#45;&gt;Node40 -->
<g id="edge57" class="edge">
<title>Node1&#45;&gt;Node40</title>
<path fill="none" stroke="#63b8ff" d="M1438.36,-606.79C1528.25,-603.81 1710.03,-593.51 1859.5,-558 1861.78,-557.46 1864.09,-556.86 1866.41,-556.21"/>
<polygon fill="#63b8ff" stroke="#63b8ff" points="1867.3,-559.6 1875.84,-553.32 1865.25,-552.9 1867.3,-559.6"/>
</g>
<!-- Node41 -->
<g id="node41" class="node">
<title>Node41</title>
<g id="a_node41"><a xlink:title=" ">
<polygon fill="#e0e0e0" stroke="#999999" points="2162,-552.5 2001,-552.5 2001,-511.5 2162,-511.5 2162,-552.5"/>
<text text-anchor="start" x="2009" y="-540.5" font-family="Helvetica,sans-Serif" font-size="10.00">asm/JSystem/JAudio2</text>
<text text-anchor="start" x="2009" y="-529.5" font-family="Helvetica,sans-Serif" font-size="10.00">/JAISeMgr/newSe___8JAISeMgr</text>
<text text-anchor="middle" x="2081.5" y="-518.5" font-family="Helvetica,sans-Serif" font-size="10.00">FiUl.s</text>
</a>
</g>
</g>
<!-- Node1&#45;&gt;Node41 -->
<g id="edge58" class="edge">
<title>Node1&#45;&gt;Node41</title>
<path fill="none" stroke="#63b8ff" d="M1438.47,-607C1546.45,-604.27 1790.66,-594.27 1992.5,-558 1996.53,-557.28 2000.64,-556.45 2004.77,-555.54"/>
<polygon fill="#63b8ff" stroke="#63b8ff" points="2005.31,-559.01 2014.26,-553.34 2003.72,-552.19 2005.31,-559.01"/>
</g>
<!-- Node42 -->
<g id="node42" class="node">
<title>Node42</title>
<g id="a_node42"><a xlink:title=" ">
<polygon fill="#e0e0e0" stroke="#999999" points="2343,-547 2180,-547 2180,-517 2343,-517 2343,-547"/>
<text text-anchor="start" x="2188" y="-535" font-family="Helvetica,sans-Serif" font-size="10.00">asm/JSystem/JAudio2</text>
<text text-anchor="middle" x="2261.5" y="-524" font-family="Helvetica,sans-Serif" font-size="10.00">/JAISeMgr/__dt__8JAISeMgrFv.s</text>
</a>
</g>
</g>
<!-- Node1&#45;&gt;Node42 -->
<g id="edge59" class="edge">
<title>Node1&#45;&gt;Node42</title>
<path fill="none" stroke="#63b8ff" d="M1438.44,-608.42C1568.21,-608.54 1899.46,-603.89 2171.5,-558 2182.65,-556.12 2194.41,-553.41 2205.61,-550.46"/>
<polygon fill="#63b8ff" stroke="#63b8ff" points="2206.41,-553.87 2215.13,-547.85 2204.56,-547.12 2206.41,-553.87"/>
</g>
<!-- Node43 -->
<g id="node43" class="node">
<title>Node43</title>
<g id="a_node43"><a xlink:title=" ">
<polygon fill="#e0e0e0" stroke="#999999" points="2532,-552.5 2361,-552.5 2361,-511.5 2532,-511.5 2532,-552.5"/>
<text text-anchor="start" x="2369" y="-540.5" font-family="Helvetica,sans-Serif" font-size="10.00">asm/JSystem/JAudio2</text>
<text text-anchor="start" x="2369" y="-529.5" font-family="Helvetica,sans-Serif" font-size="10.00">/JAISeMgr/__ct__16JAISeCategory</text>
<text text-anchor="middle" x="2446.5" y="-518.5" font-family="Helvetica,sans-Serif" font-size="10.00">MgrFv.s</text>
</a>
</g>
</g>
<!-- Node1&#45;&gt;Node43 -->
<g id="edge60" class="edge">
<title>Node1&#45;&gt;Node43</title>
<path fill="none" stroke="#63b8ff" d="M1438.49,-606.65C1617.49,-602.08 2174.46,-585.95 2352.5,-558 2357.32,-557.24 2362.25,-556.34 2367.21,-555.33"/>
<polygon fill="#63b8ff" stroke="#63b8ff" points="2367.55,-558.84 2376.58,-553.29 2366.07,-552 2367.55,-558.84"/>
</g>
<!-- Node3 -->
<g id="node3" class="node">
<title>Node3</title>
<g id="a_node3"><a xlink:href="JAISe_8h.html" target="_top" xlink:title=" ">
<polygon fill="white" stroke="#666666" points="520,-470 389,-470 389,-451 520,-451 520,-470"/>
<text text-anchor="middle" x="454.5" y="-458" font-family="Helvetica,sans-Serif" font-size="10.00">JSystem/JAudio2/JAISe.h</text>
</a>
</g>
</g>
<!-- Node2&#45;&gt;Node3 -->
<g id="edge2" class="edge">
<title>Node2&#45;&gt;Node3</title>
<path fill="none" stroke="#63b8ff" d="M454.5,-522.2C454.5,-512.12 454.5,-495.29 454.5,-481.9"/>
<polygon fill="#63b8ff" stroke="#63b8ff" points="458,-481.96 454.5,-471.96 451,-481.96 458,-481.96"/>
</g>
<!-- Node17 -->
<g id="node17" class="node">
<title>Node17</title>
<g id="a_node17"><a xlink:href="global_8h.html" target="_top" xlink:title=" ">
<polygon fill="white" stroke="#666666" points="743.5,-288.5 693.5,-288.5 693.5,-269.5 743.5,-269.5 743.5,-288.5"/>
<text text-anchor="middle" x="718.5" y="-276.5" font-family="Helvetica,sans-Serif" font-size="10.00">global.h</text>
</a>
</g>
</g>
<!-- Node2&#45;&gt;Node17 -->
<g id="edge44" class="edge">
<title>Node2&#45;&gt;Node17</title>
<path fill="none" stroke="#63b8ff" d="M468.29,-522.19C484.45,-511.37 511.3,-491.76 529.5,-470 557.2,-436.89 548.05,-417.47 576.5,-385 610.66,-346.02 661.64,-312.73 692.32,-294.61"/>
<polygon fill="#63b8ff" stroke="#63b8ff" points="694.05,-297.65 700.95,-289.61 690.54,-291.6 694.05,-297.65"/>
</g>
<!-- Node26 -->
<g id="node26" class="node">
<title>Node26</title>
<g id="a_node26"><a xlink:href="JSUList_8h.html" target="_top" xlink:title=" ">
<polygon fill="white" stroke="#666666" points="143,-409.5 0,-409.5 0,-390.5 143,-390.5 143,-409.5"/>
<text text-anchor="middle" x="71.5" y="-397.5" font-family="Helvetica,sans-Serif" font-size="10.00">JSystem/JSupport/JSUList.h</text>
</a>
</g>
</g>
<!-- Node2&#45;&gt;Node26 -->
<g id="edge43" class="edge">
<title>Node2&#45;&gt;Node26</title>
<path fill="none" stroke="#63b8ff" d="M380.59,-524.31C320.31,-516.8 234.06,-501.3 164.5,-470 135.3,-456.86 106.45,-433.37 88.8,-417.49"/>
<polygon fill="#63b8ff" stroke="#63b8ff" points="91.49,-415.21 81.77,-411 86.74,-420.35 91.49,-415.21"/>
</g>
<!-- Node27 -->
<g id="node27" class="node">
<title>Node27</title>
<g id="a_node27"><a xlink:href="JASHeapCtrl_8h.html" target="_top" xlink:title=" ">
<polygon fill="white" stroke="#666666" points="334,-470 173,-470 173,-451 334,-451 334,-470"/>
<text text-anchor="middle" x="253.5" y="-458" font-family="Helvetica,sans-Serif" font-size="10.00">JSystem/JAudio2/JASHeapCtrl.h</text>
</a>
</g>
</g>
<!-- Node2&#45;&gt;Node27 -->
<g id="edge35" class="edge">
<title>Node2&#45;&gt;Node27</title>
<path fill="none" stroke="#63b8ff" d="M428.63,-522.06C393.36,-509.86 329.97,-487.94 289.91,-474.09"/>
<polygon fill="#63b8ff" stroke="#63b8ff" points="291.29,-470.86 280.7,-470.9 289,-477.48 291.29,-470.86"/>
</g>
<!-- Node4 -->
<g id="node4" class="node">
<title>Node4</title>
<g id="a_node4"><a xlink:href="JAISeqDataMgr_8h.html" target="_top" xlink:title=" ">
<polygon fill="white" stroke="#666666" points="734,-415 585,-415 585,-385 734,-385 734,-415"/>
<text text-anchor="start" x="593" y="-403" font-family="Helvetica,sans-Serif" font-size="10.00">JSystem/JAudio2/JAISeqData</text>
<text text-anchor="middle" x="659.5" y="-392" font-family="Helvetica,sans-Serif" font-size="10.00">Mgr.h</text>
</a>
</g>
</g>
<!-- Node3&#45;&gt;Node4 -->
<g id="edge3" class="edge">
<title>Node3&#45;&gt;Node4</title>
<path fill="none" stroke="#63b8ff" d="M485.64,-450.62C515.4,-442.12 561.11,-429.08 598.19,-418.49"/>
<polygon fill="#63b8ff" stroke="#63b8ff" points="598.79,-421.96 607.44,-415.85 596.87,-415.23 598.79,-421.96"/>
</g>
<!-- Node18 -->
<g id="node18" class="node">
<title>Node18</title>
<g id="a_node18"><a xlink:href="JASTrack_8h.html" target="_top" xlink:title=" ">
<polygon fill="white" stroke="#666666" points="528,-288.5 381,-288.5 381,-269.5 528,-269.5 528,-288.5"/>
<text text-anchor="middle" x="454.5" y="-276.5" font-family="Helvetica,sans-Serif" font-size="10.00">JSystem/JAudio2/JASTrack.h</text>
</a>
</g>
</g>
<!-- Node3&#45;&gt;Node18 -->
<g id="edge20" class="edge">
<title>Node3&#45;&gt;Node18</title>
<path fill="none" stroke="#63b8ff" d="M454.5,-450.84C454.5,-423.66 454.5,-339.52 454.5,-300.39"/>
<polygon fill="#63b8ff" stroke="#63b8ff" points="458,-300.51 454.5,-290.51 451,-300.51 458,-300.51"/>
</g>
<!-- Node3&#45;&gt;Node26 -->
<g id="edge33" class="edge">
<title>Node3&#45;&gt;Node26</title>
<path fill="none" stroke="#63b8ff" d="M390.51,-450.54C329.33,-441.86 234.53,-428.13 152.5,-415 146.18,-413.99 139.59,-412.9 133.02,-411.8"/>
<polygon fill="#63b8ff" stroke="#63b8ff" points="133.96,-408.41 123.51,-410.18 132.79,-415.31 133.96,-408.41"/>
</g>
<!-- Node5 -->
<g id="node5" class="node">
<title>Node5</title>
<g id="a_node5"><a xlink:href="JAISound_8h.html" target="_top" xlink:title=" ">
<polygon fill="white" stroke="#666666" points="1025.5,-349 879.5,-349 879.5,-330 1025.5,-330 1025.5,-349"/>
<text text-anchor="middle" x="952.5" y="-337" font-family="Helvetica,sans-Serif" font-size="10.00">JSystem/JAudio2/JAISound.h</text>
</a>
</g>
</g>
<!-- Node4&#45;&gt;Node5 -->
<g id="edge4" class="edge">
<title>Node4&#45;&gt;Node5</title>
<path fill="none" stroke="#63b8ff" d="M731.93,-384.54C782.81,-374.38 849.87,-360.99 896.63,-351.65"/>
<polygon fill="#63b8ff" stroke="#63b8ff" points="897.16,-355.12 906.28,-349.73 895.79,-348.25 897.16,-355.12"/>
</g>
<!-- Node6 -->
<g id="node6" class="node">
<title>Node6</title>
<g id="a_node6"><a xlink:href="JAISoundParams_8h.html" target="_top" xlink:title=" ">
<polygon fill="white" stroke="#666666" points="1055,-294 916,-294 916,-264 1055,-264 1055,-294"/>
<text text-anchor="start" x="924" y="-282" font-family="Helvetica,sans-Serif" font-size="10.00">JSystem/JAudio2/JAISound</text>
<text text-anchor="middle" x="985.5" y="-271" font-family="Helvetica,sans-Serif" font-size="10.00">Params.h</text>
</a>
</g>
</g>
<!-- Node5&#45;&gt;Node6 -->
<g id="edge5" class="edge">
<title>Node5&#45;&gt;Node6</title>
<path fill="none" stroke="#63b8ff" d="M957.37,-329.87C961.23,-323.03 966.8,-313.14 971.98,-303.97"/>
<polygon fill="#63b8ff" stroke="#63b8ff" points="974.93,-305.86 976.79,-295.43 968.83,-302.42 974.93,-305.86"/>
</g>
<!-- Node10 -->
<g id="node10" class="node">
<title>Node10</title>
<g id="a_node10"><a xlink:href="JAIAudible_8h.html" target="_top" xlink:title=" ">
<polygon fill="white" stroke="#666666" points="1270,-288.5 1119,-288.5 1119,-269.5 1270,-269.5 1270,-288.5"/>
<text text-anchor="middle" x="1194.5" y="-276.5" font-family="Helvetica,sans-Serif" font-size="10.00">JSystem/JAudio2/JAIAudible.h</text>
</a>
</g>
</g>
<!-- Node5&#45;&gt;Node10 -->
<g id="edge9" class="edge">
<title>Node5&#45;&gt;Node10</title>
<path fill="none" stroke="#63b8ff" d="M989.52,-329.55C1031.6,-319.38 1100.41,-302.74 1146.56,-291.59"/>
<polygon fill="#63b8ff" stroke="#63b8ff" points="1147.12,-295.05 1156.01,-289.3 1145.47,-288.25 1147.12,-295.05"/>
</g>
<!-- Node5&#45;&gt;Node17 -->
<g id="edge18" class="edge">
<title>Node5&#45;&gt;Node17</title>
<path fill="none" stroke="#63b8ff" d="M916.71,-329.55C872.87,-318.59 799.02,-300.13 754.91,-289.1"/>
<polygon fill="#63b8ff" stroke="#63b8ff" points="755.85,-285.73 745.3,-286.7 754.16,-292.52 755.85,-285.73"/>
</g>
<!-- Node7 -->
<g id="node7" class="node">
<title>Node7</title>
<g id="a_node7"><a xlink:href="JASSoundParams_8h.html" target="_top" xlink:title=" ">
<polygon fill="white" stroke="#666666" points="1062,-228 919,-228 919,-198 1062,-198 1062,-228"/>
<text text-anchor="start" x="927" y="-216" font-family="Helvetica,sans-Serif" font-size="10.00">JSystem/JAudio2/JASSound</text>
<text text-anchor="middle" x="990.5" y="-205" font-family="Helvetica,sans-Serif" font-size="10.00">Params.h</text>
</a>
</g>
</g>
<!-- Node6&#45;&gt;Node7 -->
<g id="edge6" class="edge">
<title>Node6&#45;&gt;Node7</title>
<path fill="none" stroke="#63b8ff" d="M986.61,-263.8C987.17,-256.67 987.86,-247.82 988.5,-239.56"/>
<polygon fill="#63b8ff" stroke="#63b8ff" points="991.99,-239.92 989.28,-229.67 985.01,-239.37 991.99,-239.92"/>
</g>
<!-- Node8 -->
<g id="node8" class="node">
<title>Node8</title>
<g id="a_node8"><a xlink:href="types_8h.html" target="_top" xlink:title=" ">
<polygon fill="white" stroke="#666666" points="562,-90.5 481,-90.5 481,-71.5 562,-71.5 562,-90.5"/>
<text text-anchor="middle" x="521.5" y="-78.5" font-family="Helvetica,sans-Serif" font-size="10.00">dolphin/types.h</text>
</a>
</g>
</g>
<!-- Node7&#45;&gt;Node8 -->
<g id="edge7" class="edge">
<title>Node7&#45;&gt;Node8</title>
<path fill="none" stroke="#63b8ff" d="M979.98,-197.6C965.5,-178.99 937.55,-147.18 905.5,-132 847.87,-104.71 664.82,-90.41 573.85,-84.83"/>
<polygon fill="#63b8ff" stroke="#63b8ff" points="574.14,-81.34 563.95,-84.24 573.72,-88.33 574.14,-81.34"/>
</g>
<!-- Node9 -->
<g id="node9" class="node">
<title>Node9</title>
<g id="a_node9"><a xlink:href="stddef_8h.html" target="_top" xlink:title=" ">
<polygon fill="white" stroke="#666666" points="589.5,-30 453.5,-30 453.5,0 589.5,0 589.5,-30"/>
<text text-anchor="start" x="461.5" y="-18" font-family="Helvetica,sans-Serif" font-size="10.00">MSL_C/MSL_Common/Src</text>
<text text-anchor="middle" x="521.5" y="-7" font-family="Helvetica,sans-Serif" font-size="10.00">/stddef.h</text>
</a>
</g>
</g>
<!-- Node8&#45;&gt;Node9 -->
<g id="edge8" class="edge">
<title>Node8&#45;&gt;Node9</title>
<path fill="none" stroke="#63b8ff" d="M521.5,-71.1C521.5,-63.41 521.5,-51.92 521.5,-41.42"/>
<polygon fill="#63b8ff" stroke="#63b8ff" points="525,-41.75 521.5,-31.75 518,-41.75 525,-41.75"/>
</g>
<!-- Node11 -->
<g id="node11" class="node">
<title>Node11</title>
<g id="a_node11"><a xlink:href="JGeometry_8h.html" target="_top" xlink:title=" ">
<polygon fill="white" stroke="#666666" points="1244,-222.5 1131,-222.5 1131,-203.5 1244,-203.5 1244,-222.5"/>
<text text-anchor="middle" x="1187.5" y="-210.5" font-family="Helvetica,sans-Serif" font-size="10.00">JSystem/JGeometry.h</text>
</a>
</g>
</g>
<!-- Node10&#45;&gt;Node11 -->
<g id="edge10" class="edge">
<title>Node10&#45;&gt;Node11</title>
<path fill="none" stroke="#63b8ff" d="M1193.53,-269.1C1192.54,-260.12 1190.99,-245.95 1189.71,-234.22"/>
<polygon fill="#63b8ff" stroke="#63b8ff" points="1193.2,-233.89 1188.63,-224.33 1186.24,-234.65 1193.2,-233.89"/>
</g>
<!-- Node12 -->
<g id="node12" class="node">
<title>Node12</title>
<g id="a_node12"><a xlink:href="vec_8h.html" target="_top" xlink:title=" ">
<polygon fill="white" stroke="#666666" points="1107.5,-156.5 1015.5,-156.5 1015.5,-137.5 1107.5,-137.5 1107.5,-156.5"/>
<text text-anchor="middle" x="1061.5" y="-144.5" font-family="Helvetica,sans-Serif" font-size="10.00">dolphin/mtx/vec.h</text>
</a>
</g>
</g>
<!-- Node11&#45;&gt;Node12 -->
<g id="edge11" class="edge">
<title>Node11&#45;&gt;Node12</title>
<path fill="none" stroke="#63b8ff" d="M1169.98,-203.1C1149.01,-192.45 1113.65,-174.49 1089.02,-161.98"/>
<polygon fill="#63b8ff" stroke="#63b8ff" points="1090.72,-158.92 1080.22,-157.51 1087.55,-165.16 1090.72,-158.92"/>
</g>
<!-- Node13 -->
<g id="node13" class="node">
<title>Node13</title>
<g id="a_node13"><a xlink:href="float_8h.html" target="_top" xlink:title=" ">
<polygon fill="white" stroke="#666666" points="1218.5,-156.5 1140.5,-156.5 1140.5,-137.5 1218.5,-137.5 1218.5,-156.5"/>
<text text-anchor="middle" x="1179.5" y="-144.5" font-family="Helvetica,sans-Serif" font-size="10.00">MSL_C/float.h</text>
</a>
</g>
</g>
<!-- Node11&#45;&gt;Node13 -->
<g id="edge13" class="edge">
<title>Node11&#45;&gt;Node13</title>
<path fill="none" stroke="#63b8ff" d="M1186.39,-203.1C1185.27,-194.12 1183.49,-179.95 1182.03,-168.22"/>
<polygon fill="#63b8ff" stroke="#63b8ff" points="1185.5,-167.81 1180.79,-158.33 1178.56,-168.68 1185.5,-167.81"/>
</g>
<!-- Node16 -->
<g id="node16" class="node">
<title>Node16</title>
<g id="a_node16"><a xlink:href="math_8h.html" target="_top" xlink:title=" ">
<polygon fill="white" stroke="#666666" points="1318.5,-156.5 1236.5,-156.5 1236.5,-137.5 1318.5,-137.5 1318.5,-156.5"/>
<text text-anchor="middle" x="1277.5" y="-144.5" font-family="Helvetica,sans-Serif" font-size="10.00">MSL_C/math.h</text>
</a>
</g>
</g>
<!-- Node11&#45;&gt;Node16 -->
<g id="edge16" class="edge">
<title>Node11&#45;&gt;Node16</title>
<path fill="none" stroke="#63b8ff" d="M1200.01,-203.1C1214.52,-192.78 1238.68,-175.61 1256.17,-163.17"/>
<polygon fill="#63b8ff" stroke="#63b8ff" points="1257.74,-166.35 1263.86,-157.7 1253.68,-160.64 1257.74,-166.35"/>
</g>
<!-- Node12&#45;&gt;Node8 -->
<g id="edge12" class="edge">
<title>Node12&#45;&gt;Node8</title>
<path fill="none" stroke="#63b8ff" d="M1015.31,-138.42C1001.26,-136.22 985.76,-133.9 971.5,-132 827.69,-112.83 657.34,-95.31 573.46,-87.03"/>
<polygon fill="#63b8ff" stroke="#63b8ff" points="574.02,-83.57 563.72,-86.07 573.33,-90.53 574.02,-83.57"/>
</g>
<!-- Node14 -->
<g id="node14" class="node">
<title>Node14</title>
<g id="a_node14"><a xlink:href="MSL__Common_2Src_2float_8h.html" target="_top" xlink:title=" ">
<polygon fill="white" stroke="#666666" points="1296.5,-96 1160.5,-96 1160.5,-66 1296.5,-66 1296.5,-96"/>
<text text-anchor="start" x="1168.5" y="-84" font-family="Helvetica,sans-Serif" font-size="10.00">MSL_C/MSL_Common/Src</text>
<text text-anchor="middle" x="1228.5" y="-73" font-family="Helvetica,sans-Serif" font-size="10.00">/float.h</text>
</a>
</g>
</g>
<!-- Node13&#45;&gt;Node14 -->
<g id="edge14" class="edge">
<title>Node13&#45;&gt;Node14</title>
<path fill="none" stroke="#63b8ff" d="M1186.31,-137.1C1192.64,-128.84 1202.34,-116.17 1210.84,-105.06"/>
<polygon fill="#63b8ff" stroke="#63b8ff" points="1213.38,-107.5 1216.68,-97.44 1207.82,-103.25 1213.38,-107.5"/>
</g>
<!-- Node15 -->
<g id="node15" class="node">
<title>Node15</title>
<g id="a_node15"><a xlink:href="fdlibm_8h.html" target="_top" xlink:title=" ">
<polygon fill="white" stroke="#666666" points="1253.5,-24.5 1203.5,-24.5 1203.5,-5.5 1253.5,-5.5 1253.5,-24.5"/>
<text text-anchor="middle" x="1228.5" y="-12.5" font-family="Helvetica,sans-Serif" font-size="10.00">fdlibm.h</text>
</a>
</g>
</g>
<!-- Node14&#45;&gt;Node15 -->
<g id="edge15" class="edge">
<title>Node14&#45;&gt;Node15</title>
<path fill="none" stroke="#63b8ff" d="M1228.5,-65.8C1228.5,-57.09 1228.5,-45.81 1228.5,-36.18"/>
<polygon fill="#63b8ff" stroke="#63b8ff" points="1232,-36.36 1228.5,-26.36 1225,-36.36 1232,-36.36"/>
</g>
<!-- Node16&#45;&gt;Node14 -->
<g id="edge17" class="edge">
<title>Node16&#45;&gt;Node14</title>
<path fill="none" stroke="#63b8ff" d="M1270.69,-137.1C1264.36,-128.84 1254.66,-116.17 1246.16,-105.06"/>
<polygon fill="#63b8ff" stroke="#63b8ff" points="1249.18,-103.25 1240.32,-97.44 1243.62,-107.5 1249.18,-103.25"/>
</g>
<!-- Node17&#45;&gt;Node8 -->
<g id="edge19" class="edge">
<title>Node17&#45;&gt;Node8</title>
<path fill="none" stroke="#63b8ff" d="M717.96,-269.02C716.7,-253.59 712.58,-221.43 699.5,-198 669.47,-144.23 602.9,-111.25 560.22,-94.82"/>
<polygon fill="#63b8ff" stroke="#63b8ff" points="561.67,-91.63 551.08,-91.43 559.23,-98.19 561.67,-91.63"/>
</g>
<!-- Node19 -->
<g id="node19" class="node">
<title>Node19</title>
<g id="a_node19"><a xlink:href="JASGadget_8h.html" target="_top" xlink:title=" ">
<polygon fill="white" stroke="#666666" points="900.5,-222.5 746.5,-222.5 746.5,-203.5 900.5,-203.5 900.5,-222.5"/>
<text text-anchor="middle" x="823.5" y="-210.5" font-family="Helvetica,sans-Serif" font-size="10.00">JSystem/JAudio2/JASGadget.h</text>
</a>
</g>
</g>
<!-- Node18&#45;&gt;Node19 -->
<g id="edge21" class="edge">
<title>Node18&#45;&gt;Node19</title>
<path fill="none" stroke="#63b8ff" d="M506.2,-269.03C572.94,-257.46 689.01,-237.33 760.74,-224.89"/>
<polygon fill="#63b8ff" stroke="#63b8ff" points="761.11,-228.37 770.37,-223.22 759.91,-221.48 761.11,-228.37"/>
</g>
<!-- Node21 -->
<g id="node21" class="node">
<title>Node21</title>
<g id="a_node21"><a xlink:href="JASOscillator_8h.html" target="_top" xlink:title=" ">
<polygon fill="white" stroke="#666666" points="320.5,-222.5 156.5,-222.5 156.5,-203.5 320.5,-203.5 320.5,-222.5"/>
<text text-anchor="middle" x="238.5" y="-210.5" font-family="Helvetica,sans-Serif" font-size="10.00">JSystem/JAudio2/JASOscillator.h</text>
</a>
</g>
</g>
<!-- Node18&#45;&gt;Node21 -->
<g id="edge24" class="edge">
<title>Node18&#45;&gt;Node21</title>
<path fill="none" stroke="#63b8ff" d="M424.47,-269.1C386.77,-257.93 321.94,-238.72 279.65,-226.19"/>
<polygon fill="#63b8ff" stroke="#63b8ff" points="280.66,-222.84 270.08,-223.36 278.67,-229.55 280.66,-222.84"/>
</g>
<!-- Node22 -->
<g id="node22" class="node">
<title>Node22</title>
<g id="a_node22"><a xlink:href="JASRegisterParam_8h.html" target="_top" xlink:title=" ">
<polygon fill="white" stroke="#666666" points="418,-162 267,-162 267,-132 418,-132 418,-162"/>
<text text-anchor="start" x="275" y="-150" font-family="Helvetica,sans-Serif" font-size="10.00">JSystem/JAudio2/JASRegister</text>
<text text-anchor="middle" x="342.5" y="-139" font-family="Helvetica,sans-Serif" font-size="10.00">Param.h</text>
</a>
</g>
</g>
<!-- Node18&#45;&gt;Node22 -->
<g id="edge26" class="edge">
<title>Node18&#45;&gt;Node22</title>
<path fill="none" stroke="#63b8ff" d="M429.28,-269.11C410.08,-261.12 384.34,-247.62 368.5,-228 355.95,-212.46 349.39,-190.68 346,-173.77"/>
<polygon fill="#63b8ff" stroke="#63b8ff" points="349.46,-173.23 344.31,-163.97 342.56,-174.42 349.46,-173.23"/>
</g>
<!-- Node23 -->
<g id="node23" class="node">
<title>Node23</title>
<g id="a_node23"><a xlink:href="JASSeqCtrl_8h.html" target="_top" xlink:title=" ">
<polygon fill="white" stroke="#666666" points="532,-222.5 377,-222.5 377,-203.5 532,-203.5 532,-222.5"/>
<text text-anchor="middle" x="454.5" y="-210.5" font-family="Helvetica,sans-Serif" font-size="10.00">JSystem/JAudio2/JASSeqCtrl.h</text>
</a>
</g>
</g>
<!-- Node18&#45;&gt;Node23 -->
<g id="edge28" class="edge">
<title>Node18&#45;&gt;Node23</title>
<path fill="none" stroke="#63b8ff" d="M454.5,-269.1C454.5,-260.12 454.5,-245.95 454.5,-234.22"/>
<polygon fill="#63b8ff" stroke="#63b8ff" points="458,-234.34 454.5,-224.34 451,-234.34 458,-234.34"/>
</g>
<!-- Node25 -->
<g id="node25" class="node">
<title>Node25</title>
<g id="a_node25"><a xlink:href="JASTrackPort_8h.html" target="_top" xlink:title=" ">
<polygon fill="white" stroke="#666666" points="690.5,-228 550.5,-228 550.5,-198 690.5,-198 690.5,-228"/>
<text text-anchor="start" x="558.5" y="-216" font-family="Helvetica,sans-Serif" font-size="10.00">JSystem/JAudio2/JASTrack</text>
<text text-anchor="middle" x="620.5" y="-205" font-family="Helvetica,sans-Serif" font-size="10.00">Port.h</text>
</a>
</g>
</g>
<!-- Node18&#45;&gt;Node25 -->
<g id="edge31" class="edge">
<title>Node18&#45;&gt;Node25</title>
<path fill="none" stroke="#63b8ff" d="M477.58,-269.1C501.97,-259.7 541.13,-244.6 572.3,-232.59"/>
<polygon fill="#63b8ff" stroke="#63b8ff" points="573.47,-235.89 581.54,-229.02 570.95,-229.35 573.47,-235.89"/>
</g>
<!-- Node20 -->
<g id="node20" class="node">
<title>Node20</title>
<g id="a_node20"><a xlink:href="JUTAssert_8h.html" target="_top" xlink:title=" ">
<polygon fill="white" stroke="#666666" points="896.5,-156.5 750.5,-156.5 750.5,-137.5 896.5,-137.5 896.5,-156.5"/>
<text text-anchor="middle" x="823.5" y="-144.5" font-family="Helvetica,sans-Serif" font-size="10.00">JSystem/JUtility/JUTAssert.h</text>
</a>
</g>
</g>
<!-- Node19&#45;&gt;Node20 -->
<g id="edge22" class="edge">
<title>Node19&#45;&gt;Node20</title>
<path fill="none" stroke="#63b8ff" d="M823.5,-203.1C823.5,-194.12 823.5,-179.95 823.5,-168.22"/>
<polygon fill="#63b8ff" stroke="#63b8ff" points="827,-168.34 823.5,-158.34 820,-168.34 827,-168.34"/>
</g>
<!-- Node20&#45;&gt;Node8 -->
<g id="edge23" class="edge">
<title>Node20&#45;&gt;Node8</title>
<path fill="none" stroke="#63b8ff" d="M781.19,-137.03C726.71,-125.49 632.06,-105.43 573.32,-92.98"/>
<polygon fill="#63b8ff" stroke="#63b8ff" points="574.06,-89.56 563.56,-90.91 572.61,-96.41 574.06,-89.56"/>
</g>
<!-- Node21&#45;&gt;Node8 -->
<g id="edge25" class="edge">
<title>Node21&#45;&gt;Node8</title>
<path fill="none" stroke="#63b8ff" d="M237.88,-203.04C237.26,-186.44 238.52,-150.87 258.5,-132 288.25,-103.91 401.48,-90.81 469.29,-85.36"/>
<polygon fill="#63b8ff" stroke="#63b8ff" points="469.36,-88.87 479.07,-84.61 468.83,-81.89 469.36,-88.87"/>
</g>
<!-- Node22&#45;&gt;Node8 -->
<g id="edge27" class="edge">
<title>Node22&#45;&gt;Node8</title>
<path fill="none" stroke="#63b8ff" d="M382.67,-131.64C413.56,-120.59 455.86,-105.47 485.62,-94.83"/>
<polygon fill="#63b8ff" stroke="#63b8ff" points="486.7,-98.16 494.94,-91.5 484.35,-91.57 486.7,-98.16"/>
</g>
<!-- Node24 -->
<g id="node24" class="node">
<title>Node24</title>
<g id="a_node24"><a xlink:href="JASSeqReader_8h.html" target="_top" xlink:title=" ">
<polygon fill="white" stroke="#666666" points="606.5,-156.5 436.5,-156.5 436.5,-137.5 606.5,-137.5 606.5,-156.5"/>
<text text-anchor="middle" x="521.5" y="-144.5" font-family="Helvetica,sans-Serif" font-size="10.00">JSystem/JAudio2/JASSeqReader.h</text>
</a>
</g>
</g>
<!-- Node23&#45;&gt;Node24 -->
<g id="edge29" class="edge">
<title>Node23&#45;&gt;Node24</title>
<path fill="none" stroke="#63b8ff" d="M463.82,-203.1C474.22,-193.17 491.28,-176.87 504.15,-164.57"/>
<polygon fill="#63b8ff" stroke="#63b8ff" points="506.36,-167.31 511.17,-157.87 501.52,-162.25 506.36,-167.31"/>
</g>
<!-- Node24&#45;&gt;Node8 -->
<g id="edge30" class="edge">
<title>Node24&#45;&gt;Node8</title>
<path fill="none" stroke="#63b8ff" d="M521.5,-137.1C521.5,-128.12 521.5,-113.95 521.5,-102.22"/>
<polygon fill="#63b8ff" stroke="#63b8ff" points="525,-102.34 521.5,-92.34 518,-102.34 525,-102.34"/>
</g>
<!-- Node25&#45;&gt;Node8 -->
<g id="edge32" class="edge">
<title>Node25&#45;&gt;Node8</title>
<path fill="none" stroke="#63b8ff" d="M623.52,-197.71C626.31,-180.64 628.31,-151.89 615.5,-132 604.2,-114.46 584.6,-102.67 566.21,-94.97"/>
<polygon fill="#63b8ff" stroke="#63b8ff" points="567.6,-91.75 557.01,-91.43 565.09,-98.28 567.6,-91.75"/>
</g>
<!-- Node26&#45;&gt;Node8 -->
<g id="edge34" class="edge">
<title>Node26&#45;&gt;Node8</title>
<path fill="none" stroke="#63b8ff" d="M61.91,-390.17C42.95,-371.7 2.5,-326.81 2.5,-280 2.5,-280 2.5,-280 2.5,-212 2.5,-158.48 43.66,-153.89 92.5,-132 158.81,-102.28 370.63,-88.9 469.61,-84.16"/>
<polygon fill="#63b8ff" stroke="#63b8ff" points="469.48,-87.67 479.31,-83.7 469.16,-80.67 469.48,-87.67"/>
</g>
<!-- Node27&#45;&gt;Node26 -->
<g id="edge36" class="edge">
<title>Node27&#45;&gt;Node26</title>
<path fill="none" stroke="#63b8ff" d="M225.86,-450.62C194.99,-440.69 144.82,-424.57 110.09,-413.4"/>
<polygon fill="#63b8ff" stroke="#63b8ff" points="111.43,-410.16 100.84,-410.43 109.29,-416.82 111.43,-410.16"/>
</g>
<!-- Node28 -->
<g id="node28" class="node">
<title>Node28</title>
<g id="a_node28"><a xlink:href="OSInterrupt_8h.html" target="_top" xlink:title=" ">
<polygon fill="white" stroke="#666666" points="358.5,-349 236.5,-349 236.5,-330 358.5,-330 358.5,-349"/>
<text text-anchor="middle" x="297.5" y="-337" font-family="Helvetica,sans-Serif" font-size="10.00">dolphin/os/OSInterrupt.h</text>
</a>
</g>
</g>
<!-- Node27&#45;&gt;Node28 -->
<g id="edge37" class="edge">
<title>Node27&#45;&gt;Node28</title>
<path fill="none" stroke="#63b8ff" d="M260.83,-450.53C267.48,-441.93 277.06,-428.32 282.5,-415 289.76,-397.25 293.61,-375.65 295.58,-360.29"/>
<polygon fill="#63b8ff" stroke="#63b8ff" points="299.03,-360.9 296.66,-350.57 292.08,-360.12 299.03,-360.9"/>
</g>
<!-- Node29 -->
<g id="node29" class="node">
<title>Node29</title>
<g id="a_node29"><a xlink:href="OSMutex_8h.html" target="_top" xlink:title=" ">
<polygon fill="white" stroke="#666666" points="273.5,-409.5 161.5,-409.5 161.5,-390.5 273.5,-390.5 273.5,-409.5"/>
<text text-anchor="middle" x="217.5" y="-397.5" font-family="Helvetica,sans-Serif" font-size="10.00">dolphin/os/OSMutex.h</text>
</a>
</g>
</g>
<!-- Node27&#45;&gt;Node29 -->
<g id="edge39" class="edge">
<title>Node27&#45;&gt;Node29</title>
<path fill="none" stroke="#63b8ff" d="M248.19,-450.87C243.08,-442.57 235.21,-429.78 228.71,-419.22"/>
<polygon fill="#63b8ff" stroke="#63b8ff" points="231.85,-417.64 223.63,-410.96 225.89,-421.31 231.85,-417.64"/>
</g>
<!-- Node28&#45;&gt;Node8 -->
<g id="edge38" class="edge">
<title>Node28&#45;&gt;Node8</title>
<path fill="none" stroke="#63b8ff" d="M272.21,-329.54C221.68,-310.1 115.73,-260.7 147.5,-198 169.92,-153.75 191.88,-151.48 237.5,-132 314.12,-99.29 411.13,-87.98 469.65,-84.07"/>
<polygon fill="#63b8ff" stroke="#63b8ff" points="469.54,-87.58 479.31,-83.47 469.11,-80.59 469.54,-87.58"/>
</g>
<!-- Node30 -->
<g id="node30" class="node">
<title>Node30</title>
<g id="a_node30"><a xlink:href="OSThread_8h.html" target="_top" xlink:title=" ">
<polygon fill="white" stroke="#666666" points="183.5,-349 67.5,-349 67.5,-330 183.5,-330 183.5,-349"/>
<text text-anchor="middle" x="125.5" y="-337" font-family="Helvetica,sans-Serif" font-size="10.00">dolphin/os/OSThread.h</text>
</a>
</g>
</g>
<!-- Node29&#45;&gt;Node30 -->
<g id="edge40" class="edge">
<title>Node29&#45;&gt;Node30</title>
<path fill="none" stroke="#63b8ff" d="M203.53,-390.12C189.07,-380.92 166.24,-366.41 149,-355.44"/>
<polygon fill="#63b8ff" stroke="#63b8ff" points="151.2,-352.69 140.88,-350.28 147.44,-358.6 151.2,-352.69"/>
</g>
<!-- Node31 -->
<g id="node31" class="node">
<title>Node31</title>
<g id="a_node31"><a xlink:href="OSContext_8h.html" target="_top" xlink:title=" ">
<polygon fill="white" stroke="#666666" points="150,-288.5 31,-288.5 31,-269.5 150,-269.5 150,-288.5"/>
<text text-anchor="middle" x="90.5" y="-276.5" font-family="Helvetica,sans-Serif" font-size="10.00">dolphin/os/OSContext.h</text>
</a>
</g>
</g>
<!-- Node30&#45;&gt;Node31 -->
<g id="edge41" class="edge">
<title>Node30&#45;&gt;Node31</title>
<path fill="none" stroke="#63b8ff" d="M120.34,-329.87C115.37,-321.57 107.72,-308.78 101.4,-298.22"/>
<polygon fill="#63b8ff" stroke="#63b8ff" points="104.6,-296.75 96.46,-289.97 98.59,-300.34 104.6,-296.75"/>
</g>
<!-- Node31&#45;&gt;Node8 -->
<g id="edge42" class="edge">
<title>Node31&#45;&gt;Node8</title>
<path fill="none" stroke="#63b8ff" d="M88.78,-269.17C84.37,-243.67 75.59,-169.36 114.5,-132 139.69,-107.82 365.31,-91.33 469.36,-84.95"/>
<polygon fill="#63b8ff" stroke="#63b8ff" points="469.54,-88.45 479.32,-84.35 469.12,-81.46 469.54,-88.45"/>
</g>
<!-- Node32&#45;&gt;Node5 -->
<g id="edge46" class="edge">
<title>Node32&#45;&gt;Node5</title>
<path fill="none" stroke="#63b8ff" d="M973.58,-384.54C969.97,-377 965.51,-367.67 961.62,-359.55"/>
<polygon fill="#63b8ff" stroke="#63b8ff" points="964.78,-358.05 957.31,-350.54 958.47,-361.07 964.78,-358.05"/>
</g>
<!-- Node32&#45;&gt;Node20 -->
<g id="edge47" class="edge">
<title>Node32&#45;&gt;Node20</title>
<path fill="none" stroke="#63b8ff" d="M998.94,-384.54C1010.11,-375.18 1024.14,-362.31 1034.5,-349 1076.95,-294.48 1115.26,-251.47 1071.5,-198 1050.96,-172.91 971.63,-160.13 908.15,-153.81"/>
<polygon fill="#63b8ff" stroke="#63b8ff" points="908.7,-150.34 898.41,-152.88 908.03,-157.31 908.7,-150.34"/>
</g>
<!-- Node33&#45;&gt;Node5 -->
<g id="edge49" class="edge">
<title>Node33&#45;&gt;Node5</title>
<path fill="none" stroke="#63b8ff" d="M855.39,-384.54C875.91,-375.23 902.41,-363.22 922.54,-354.09"/>
<polygon fill="#63b8ff" stroke="#63b8ff" points="923.95,-357.29 931.61,-349.97 921.06,-350.91 923.95,-357.29"/>
</g>
<!-- Node33&#45;&gt;Node19 -->
<g id="edge50" class="edge">
<title>Node33&#45;&gt;Node19</title>
<path fill="none" stroke="#63b8ff" d="M823.5,-384.79C823.5,-352.25 823.5,-272.21 823.5,-234.4"/>
<polygon fill="#63b8ff" stroke="#63b8ff" points="827,-234.45 823.5,-224.45 820,-234.45 827,-234.45"/>
</g>
</g>
</svg>
        <g id="navigator" transform="translate(0 0)" fill="#404254">
                <rect fill="#f2f5e9" fill-opacity="0.5" stroke="#606060" stroke-width=".5" x="0" y="0" width="60" height="60"/>
                <use id="zoomplus" xlink:href="#zoomPlus" x="17" y="9" onmousedown="handleZoom(evt,'in')"/>
                <use id="zoomminus" xlink:href="#zoomMin" x="42" y="9" onmousedown="handleZoom(evt,'out')"/>
                <use id="reset" xlink:href="#resetDef" x="30" y="36" onmousedown="handleReset()"/>
                <g id="arrowUp" xlink:href="#dirArrow" transform="translate(30 24)" onmousedown="handlePan(0,-1)">
                  <use xlink:href="#rim" fill="#404040">
                        <set attributeName="fill" to="#808080" begin="arrowUp.mouseover" end="arrowUp.mouseout"/>
                  </use>
                  <path fill="none" stroke="white" stroke-width="1.5" d="M0,-3.0v7 M-2.5,-0.5L0,-3.0L2.5,-0.5"/>
                </g>
                <g id="arrowRight" xlink:href="#dirArrow" transform="rotate(90) translate(36 -43)" onmousedown="handlePan(1,0)">
                  <use xlink:href="#rim" fill="#404040">
                        <set attributeName="fill" to="#808080" begin="arrowRight.mouseover" end="arrowRight.mouseout"/>
                  </use>
                  <path fill="none" stroke="white" stroke-width="1.5" d="M0,-3.0v7 M-2.5,-0.5L0,-3.0L2.5,-0.5"/>
                </g>
                <g id="arrowDown" xlink:href="#dirArrow" transform="rotate(180) translate(-30 -48)" onmousedown="handlePan(0,1)">
                  <use xlink:href="#rim" fill="#404040">
                        <set attributeName="fill" to="#808080" begin="arrowDown.mouseover" end="arrowDown.mouseout"/>
                  </use>
                  <path fill="none" stroke="white" stroke-width="1.5" d="M0,-3.0v7 M-2.5,-0.5L0,-3.0L2.5,-0.5"/>
                </g>
                <g id="arrowLeft" xlink:href="#dirArrow" transform="rotate(270) translate(-36 17)" onmousedown="handlePan(-1,0)">
                  <use xlink:href="#rim" fill="#404040">
                        <set attributeName="fill" to="#808080" begin="arrowLeft.mouseover" end="arrowLeft.mouseout"/>
                  </use>
                  <path fill="none" stroke="white" stroke-width="1.5" d="M0,-3.0v7 M-2.5,-0.5L0,-3.0L2.5,-0.5"/>
                </g>
        </g>
        <svg viewBox="0 0 15 15" width="100%" height="30px" preserveAspectRatio="xMaxYMin meet">
         <g id="arrow_out" transform="scale(0.3 0.3)">
          <a xlink:href="JAISeMgr_8cpp__incl_org.svg" target="_base">
           <rect id="button" ry="5" rx="5" y="6" x="6" height="38" width="38"
                fill="#f2f5e9" fill-opacity="0.5" stroke="#606060" stroke-width="1.0"/>
           <path id="arrow"
             d="M 11.500037,31.436501 C 11.940474,20.09759 22.043105,11.32322 32.158766,21.979434 L 37.068811,17.246167 C 37.068811,17.246167 37.088388,32 37.088388,32 L 22.160133,31.978069 C 22.160133,31.978069 26.997745,27.140456 26.997745,27.140456 C 18.528582,18.264221 13.291696,25.230495 11.500037,31.436501 z"
             style="fill:#404040;"/>
          </a>
         </g>
        </svg>
</svg>
