<?xml version="1.0" encoding="UTF-8" standalone="no"?>
<!DOCTYPE svg PUBLIC "-//W3C//DTD SVG 1.1//EN"
 "http://www.w3.org/Graphics/SVG/1.1/DTD/svg11.dtd">
<!-- Generated by graphviz version 7.0.5 (20221223.1930)
 -->
<!-- Title: include/JSystem/JAudio2/JAISeqDataMgr.h Pages: 1 -->
<!--zoomable 555 -->
<svg id="main" version="1.1" xmlns="http://www.w3.org/2000/svg" xmlns:xlink="http://www.w3.org/1999/xlink" xml:space="preserve" onload="init(evt)">
<style type="text/css"><![CDATA[
.edge:hover path { stroke: red; }
.edge:hover polygon { stroke: red; fill: red; }
]]></style>
<script type="text/javascript"><![CDATA[
var edges = document.getElementsByTagName('g');
if (edges && edges.length) {
  for (var i=0;i<edges.length;i++) {
    if (edges[i].id.substr(0,4)=='edge') {
      edges[i].setAttribute('class','edge');
    }
  }
}
]]></script>
        <defs>
                <circle id="rim" cx="0" cy="0" r="7"/>
                <circle id="rim2" cx="0" cy="0" r="3.5"/>
                <g id="zoomPlus">
                        <use xlink:href="#rim" fill="#404040">
                                <set attributeName="fill" to="#808080" begin="zoomplus.mouseover" end="zoomplus.mouseout"/>
                        </use>
                        <path d="M-4,0h8M0,-4v8" fill="none" stroke="white" stroke-width="1.5" pointer-events="none"/>
                </g>
                <g id="zoomMin">
                        <use xlink:href="#rim" fill="#404040">
                                <set attributeName="fill" to="#808080" begin="zoomminus.mouseover" end="zoomminus.mouseout"/>
                        </use>
                        <path d="M-4,0h8" fill="none" stroke="white" stroke-width="1.5" pointer-events="none"/>
                </g>
                <g id="dirArrow">
                        <path fill="none" stroke="white" stroke-width="1.5" d="M0,-3.0v7 M-2.5,-0.5L0,-3.0L2.5,-0.5"/>
                </g>
               <g id="resetDef">
                       <use xlink:href="#rim2" fill="#404040">
                               <set attributeName="fill" to="#808080" begin="reset.mouseover" end="reset.mouseout"/>
                       </use>
               </g>
        </defs>

<script type="text/javascript">
var viewWidth = 3678;
var viewHeight = 555;
var sectionId = 'dynsection-1';
</script>
<script xlink:href="svgpan.js"/>
<svg id="graph" class="graph">
<g id="viewport">
<title>include/JSystem/JAudio2/JAISeqDataMgr.h</title>
<!-- Node1 -->
<g id="node1" class="node">
<title>Node1</title>
<g id="a_node1"><a xlink:title=" ">
<polygon fill="#999999" stroke="#666666" points="3290.4,-547 3163.4,-547 3163.4,-517 3290.4,-517 3290.4,-547"/>
<text text-anchor="start" x="3171.4" y="-535" font-family="Helvetica,sans-Serif" font-size="10.00">include/JSystem/JAudio2</text>
<text text-anchor="middle" x="3226.9" y="-524" font-family="Helvetica,sans-Serif" font-size="10.00">/JAISeqDataMgr.h</text>
</a>
</g>
</g>
<!-- Node2 -->
<g id="node2" class="node">
<title>Node2</title>
<g id="a_node2"><a xlink:href="JAISe_8h.html" target="_top" xlink:title=" ">
<polygon fill="white" stroke="#666666" points="2970.4,-481 2843.4,-481 2843.4,-451 2970.4,-451 2970.4,-481"/>
<text text-anchor="start" x="2851.4" y="-469" font-family="Helvetica,sans-Serif" font-size="10.00">include/JSystem/JAudio2</text>
<text text-anchor="middle" x="2906.9" y="-458" font-family="Helvetica,sans-Serif" font-size="10.00">/JAISe.h</text>
</a>
</g>
</g>
<!-- Node1&#45;&gt;Node2 -->
<g id="edge1" class="edge">
<title>Node1&#45;&gt;Node2</title>
<path fill="none" stroke="#63b8ff" d="M3151.83,-515.99C3096.82,-504.98 3022.96,-490.21 2970.78,-479.78"/>
<polygon fill="#63b8ff" stroke="#63b8ff" points="3150.94,-519.38 3161.43,-517.91 3152.31,-512.51 3150.94,-519.38"/>
</g>
<!-- Node373 -->
<g id="node44" class="node">
<title>Node373</title>
<g id="a_node44"><a xlink:href="JAISeq_8h.html" target="_top" xlink:title=" ">
<polygon fill="white" stroke="#666666" points="3145.4,-481 3018.4,-481 3018.4,-451 3145.4,-451 3145.4,-481"/>
<text text-anchor="start" x="3026.4" y="-469" font-family="Helvetica,sans-Serif" font-size="10.00">include/JSystem/JAudio2</text>
<text text-anchor="middle" x="3081.9" y="-458" font-family="Helvetica,sans-Serif" font-size="10.00">/JAISeq.h</text>
</a>
</g>
</g>
<!-- Node1&#45;&gt;Node373 -->
<g id="edge46" class="edge">
<title>Node1&#45;&gt;Node373</title>
<path fill="none" stroke="#63b8ff" d="M3183.87,-512.01C3161.69,-502.22 3135.06,-490.46 3114.58,-481.43"/>
<polygon fill="#63b8ff" stroke="#63b8ff" points="3182.41,-515.19 3192.98,-516.03 3185.24,-508.79 3182.41,-515.19"/>
</g>
<!-- Node375 -->
<g id="node46" class="node">
<title>Node375</title>
<g id="a_node46"><a xlink:href="JAISeqMgr_8h.html" target="_top" xlink:title=" ">
<polygon fill="white" stroke="#666666" points="3290.4,-481 3163.4,-481 3163.4,-451 3290.4,-451 3290.4,-481"/>
<text text-anchor="start" x="3171.4" y="-469" font-family="Helvetica,sans-Serif" font-size="10.00">include/JSystem/JAudio2</text>
<text text-anchor="middle" x="3226.9" y="-458" font-family="Helvetica,sans-Serif" font-size="10.00">/JAISeqMgr.h</text>
</a>
</g>
</g>
<!-- Node1&#45;&gt;Node375 -->
<g id="edge49" class="edge">
<title>Node1&#45;&gt;Node375</title>
<path fill="none" stroke="#63b8ff" d="M3226.9,-505.39C3226.9,-497.13 3226.9,-488.28 3226.9,-481.16"/>
<polygon fill="#63b8ff" stroke="#63b8ff" points="3223.4,-505.28 3226.9,-515.28 3230.4,-505.28 3223.4,-505.28"/>
</g>
<!-- Node377 -->
<g id="node48" class="node">
<title>Node377</title>
<g id="a_node48"><a xlink:href="JAUSectionHeap_8h.html" target="_top" xlink:title=" ">
<polygon fill="white" stroke="#666666" points="3446.4,-481 3319.4,-481 3319.4,-451 3446.4,-451 3446.4,-481"/>
<text text-anchor="start" x="3327.4" y="-469" font-family="Helvetica,sans-Serif" font-size="10.00">include/JSystem/JAudio2</text>
<text text-anchor="middle" x="3382.9" y="-458" font-family="Helvetica,sans-Serif" font-size="10.00">/JAUSectionHeap.h</text>
</a>
</g>
</g>
<!-- Node1&#45;&gt;Node377 -->
<g id="edge53" class="edge">
<title>Node1&#45;&gt;Node377</title>
<path fill="none" stroke="#63b8ff" d="M3272.55,-512.27C3296.54,-502.43 3325.51,-490.55 3347.74,-481.43"/>
<polygon fill="#63b8ff" stroke="#63b8ff" points="3271.23,-509.03 3263.31,-516.06 3273.89,-515.51 3271.23,-509.03"/>
</g>
<!-- Node379 -->
<g id="node50" class="node">
<title>Node379</title>
<g id="a_node50"><a xlink:href="JAISeqDataMgr_8cpp.html" target="_top" xlink:title=" ">
<polygon fill="white" stroke="#666666" points="3575.4,-481 3464.4,-481 3464.4,-451 3575.4,-451 3575.4,-481"/>
<text text-anchor="start" x="3472.4" y="-469" font-family="Helvetica,sans-Serif" font-size="10.00">libs/JSystem/JAudio2</text>
<text text-anchor="middle" x="3519.9" y="-458" font-family="Helvetica,sans-Serif" font-size="10.00">/JAISeqDataMgr.cpp</text>
</a>
</g>
</g>
<!-- Node1&#45;&gt;Node379 -->
<g id="edge56" class="edge">
<title>Node1&#45;&gt;Node379</title>
<path fill="none" stroke="#63b8ff" d="M3301.65,-514.69C3346.4,-504.92 3404.41,-492.25 3455.9,-481 3458.57,-480.42 3461.3,-479.82 3464.05,-479.22"/>
<polygon fill="#63b8ff" stroke="#63b8ff" points="3301.08,-511.23 3292.05,-516.78 3302.57,-518.07 3301.08,-511.23"/>
</g>
<!-- Node3 -->
<g id="node3" class="node">
<title>Node3</title>
<g id="a_node3"><a xlink:href="JAISeMgr_8h.html" target="_top" xlink:title=" ">
<polygon fill="white" stroke="#666666" points="2934.4,-415 2807.4,-415 2807.4,-385 2934.4,-385 2934.4,-415"/>
<text text-anchor="start" x="2815.4" y="-403" font-family="Helvetica,sans-Serif" font-size="10.00">include/JSystem/JAudio2</text>
<text text-anchor="middle" x="2870.9" y="-392" font-family="Helvetica,sans-Serif" font-size="10.00">/JAISeMgr.h</text>
</a>
</g>
</g>
<!-- Node2&#45;&gt;Node3 -->
<g id="edge2" class="edge">
<title>Node2&#45;&gt;Node3</title>
<path fill="none" stroke="#63b8ff" d="M2893.3,-440.83C2888.43,-432.17 2883.11,-422.7 2878.87,-415.16"/>
<polygon fill="#63b8ff" stroke="#63b8ff" points="2890.22,-442.48 2898.17,-449.48 2896.32,-439.05 2890.22,-442.48"/>
</g>
<!-- Node369 -->
<g id="node40" class="node">
<title>Node369</title>
<g id="a_node40"><a xlink:href="JAISe_8cpp.html" target="_top" xlink:title=" ">
<polygon fill="white" stroke="#666666" points="2834.4,-349 2723.4,-349 2723.4,-319 2834.4,-319 2834.4,-349"/>
<text text-anchor="start" x="2731.4" y="-337" font-family="Helvetica,sans-Serif" font-size="10.00">libs/JSystem/JAudio2</text>
<text text-anchor="middle" x="2778.9" y="-326" font-family="Helvetica,sans-Serif" font-size="10.00">/JAISe.cpp</text>
</a>
</g>
</g>
<!-- Node2&#45;&gt;Node369 -->
<g id="edge44" class="edge">
<title>Node2&#45;&gt;Node369</title>
<path fill="none" stroke="#63b8ff" d="M2840.71,-446.06C2824.72,-438.67 2809.06,-428.6 2797.9,-415 2782.42,-396.13 2779.14,-366.77 2778.67,-349.36"/>
<polygon fill="#63b8ff" stroke="#63b8ff" points="2839.25,-449.24 2849.82,-449.94 2841.99,-442.8 2839.25,-449.24"/>
</g>
<!-- Node372 -->
<g id="node43" class="node">
<title>Node372</title>
<g id="a_node43"><a xlink:href="JAUInitializer_8cpp.html" target="_top" xlink:title=" ">
<polygon fill="white" stroke="#666666" points="3063.4,-415 2952.4,-415 2952.4,-385 3063.4,-385 3063.4,-415"/>
<text text-anchor="start" x="2960.4" y="-403" font-family="Helvetica,sans-Serif" font-size="10.00">libs/JSystem/JAudio2</text>
<text text-anchor="middle" x="3007.9" y="-392" font-family="Helvetica,sans-Serif" font-size="10.00">/JAUInitializer.cpp</text>
</a>
</g>
</g>
<!-- Node2&#45;&gt;Node372 -->
<g id="edge45" class="edge">
<title>Node2&#45;&gt;Node372</title>
<path fill="none" stroke="#63b8ff" d="M2939.03,-444.64C2954.1,-435.09 2971.68,-423.95 2985.31,-415.31"/>
<polygon fill="#63b8ff" stroke="#63b8ff" points="2937.42,-441.52 2930.85,-449.83 2941.17,-447.43 2937.42,-441.52"/>
</g>
<!-- Node4 -->
<g id="node4" class="node">
<title>Node4</title>
<g id="a_node4"><a xlink:href="Z2SoundMgr_8h.html" target="_top" xlink:title=" ">
<polygon fill="white" stroke="#666666" points="3175.9,-349 3075.9,-349 3075.9,-319 3175.9,-319 3175.9,-349"/>
<text text-anchor="start" x="3083.9" y="-337" font-family="Helvetica,sans-Serif" font-size="10.00">include/Z2AudioLib</text>
<text text-anchor="middle" x="3125.9" y="-326" font-family="Helvetica,sans-Serif" font-size="10.00">/Z2SoundMgr.h</text>
</a>
</g>
</g>
<!-- Node3&#45;&gt;Node4 -->
<g id="edge3" class="edge">
<title>Node3&#45;&gt;Node4</title>
<path fill="none" stroke="#63b8ff" d="M2939.36,-381.82C2982.23,-371.06 3036.52,-357.43 3075.47,-347.66"/>
<polygon fill="#63b8ff" stroke="#63b8ff" points="2938.76,-378.36 2929.91,-384.19 2940.47,-385.15 2938.76,-378.36"/>
</g>
<!-- Node3&#45;&gt;Node369 -->
<g id="edge41" class="edge">
<title>Node3&#45;&gt;Node369</title>
<path fill="none" stroke="#63b8ff" d="M2841.07,-378.25C2827.52,-368.82 2811.81,-357.9 2799.58,-349.39"/>
<polygon fill="#63b8ff" stroke="#63b8ff" points="2839.03,-381.09 2849.24,-383.93 2843.03,-375.35 2839.03,-381.09"/>
</g>
<!-- Node370 -->
<g id="node41" class="node">
<title>Node370</title>
<g id="a_node41"><a xlink:href="JAISeMgr_8cpp.html" target="_top" xlink:title=" ">
<polygon fill="white" stroke="#666666" points="2963.4,-349 2852.4,-349 2852.4,-319 2963.4,-319 2963.4,-349"/>
<text text-anchor="start" x="2860.4" y="-337" font-family="Helvetica,sans-Serif" font-size="10.00">libs/JSystem/JAudio2</text>
<text text-anchor="middle" x="2907.9" y="-326" font-family="Helvetica,sans-Serif" font-size="10.00">/JAISeMgr.cpp</text>
</a>
</g>
</g>
<!-- Node3&#45;&gt;Node370 -->
<g id="edge42" class="edge">
<title>Node3&#45;&gt;Node370</title>
<path fill="none" stroke="#63b8ff" d="M2884.71,-375.11C2889.76,-366.38 2895.31,-356.78 2899.71,-349.16"/>
<polygon fill="#63b8ff" stroke="#63b8ff" points="2881.85,-373.08 2879.87,-383.49 2887.91,-376.58 2881.85,-373.08"/>
</g>
<!-- Node371 -->
<g id="node42" class="node">
<title>Node371</title>
<g id="a_node42"><a xlink:href="JAUAudioArcLoader_8cpp.html" target="_top" xlink:title=" ">
<polygon fill="white" stroke="#666666" points="3386.4,-349 3259.4,-349 3259.4,-319 3386.4,-319 3386.4,-349"/>
<text text-anchor="start" x="3267.4" y="-337" font-family="Helvetica,sans-Serif" font-size="10.00">libs/JSystem/JAudio2</text>
<text text-anchor="middle" x="3322.9" y="-326" font-family="Helvetica,sans-Serif" font-size="10.00">/JAUAudioArcLoader.cpp</text>
</a>
</g>
</g>
<!-- Node3&#45;&gt;Node371 -->
<g id="edge43" class="edge">
<title>Node3&#45;&gt;Node371</title>
<path fill="none" stroke="#63b8ff" d="M2946.03,-384.54C3061.79,-365.96 3185.93,-350.7 3259.19,-342.18"/>
<polygon fill="#63b8ff" stroke="#63b8ff" points="2945.66,-381.06 2936.35,-386.11 2946.78,-387.97 2945.66,-381.06"/>
</g>
<!-- Node5 -->
<g id="node5" class="node">
<title>Node5</title>
<g id="a_node5"><a xlink:href="Z2AudioMgr_8h.html" target="_top" xlink:title=" ">
<polygon fill="white" stroke="#666666" points="2936.9,-283 2836.9,-283 2836.9,-253 2936.9,-253 2936.9,-283"/>
<text text-anchor="start" x="2844.9" y="-271" font-family="Helvetica,sans-Serif" font-size="10.00">include/Z2AudioLib</text>
<text text-anchor="middle" x="2886.9" y="-260" font-family="Helvetica,sans-Serif" font-size="10.00">/Z2AudioMgr.h</text>
</a>
</g>
</g>
<!-- Node4&#45;&gt;Node5 -->
<g id="edge4" class="edge">
<title>Node4&#45;&gt;Node5</title>
<path fill="none" stroke="#63b8ff" d="M3064.43,-316.54C3024.95,-305.97 2974.31,-292.41 2937.23,-282.48"/>
<polygon fill="#63b8ff" stroke="#63b8ff" points="3063.48,-319.91 3074.05,-319.11 3065.29,-313.15 3063.48,-319.91"/>
</g>
<!-- Node366 -->
<g id="node37" class="node">
<title>Node366</title>
<g id="a_node37"><a xlink:href="Z2SceneMgr_8cpp.html" target="_top" xlink:title=" ">
<polygon fill="white" stroke="#666666" points="3116.4,-277.5 2955.4,-277.5 2955.4,-258.5 3116.4,-258.5 3116.4,-277.5"/>
<text text-anchor="middle" x="3035.9" y="-265.5" font-family="Helvetica,sans-Serif" font-size="10.00">libs/Z2AudioLib/Z2SceneMgr.cpp</text>
</a>
</g>
</g>
<!-- Node4&#45;&gt;Node366 -->
<g id="edge38" class="edge">
<title>Node4&#45;&gt;Node366</title>
<path fill="none" stroke="#63b8ff" d="M3096.73,-312.26C3080.36,-300.61 3060.78,-286.69 3048.34,-277.84"/>
<polygon fill="#63b8ff" stroke="#63b8ff" points="3094.52,-314.98 3104.69,-317.92 3098.57,-309.27 3094.52,-314.98"/>
</g>
<!-- Node367 -->
<g id="node38" class="node">
<title>Node367</title>
<g id="a_node38"><a xlink:href="Z2SoundMgr_8cpp.html" target="_top" xlink:title=" ">
<polygon fill="white" stroke="#666666" points="3295.4,-277.5 3134.4,-277.5 3134.4,-258.5 3295.4,-258.5 3295.4,-277.5"/>
<text text-anchor="middle" x="3214.9" y="-265.5" font-family="Helvetica,sans-Serif" font-size="10.00">libs/Z2AudioLib/Z2SoundMgr.cpp</text>
</a>
</g>
</g>
<!-- Node4&#45;&gt;Node367 -->
<g id="edge39" class="edge">
<title>Node4&#45;&gt;Node367</title>
<path fill="none" stroke="#63b8ff" d="M3154.74,-312.26C3170.94,-300.61 3190.3,-286.69 3202.6,-277.84"/>
<polygon fill="#63b8ff" stroke="#63b8ff" points="3152.96,-309.23 3146.88,-317.91 3157.04,-314.92 3152.96,-309.23"/>
</g>
<!-- Node368 -->
<g id="node39" class="node">
<title>Node368</title>
<g id="a_node39"><a xlink:href="Z2WolfHowlMgr_8cpp.html" target="_top" xlink:title=" ">
<polygon fill="white" stroke="#666666" points="3453.9,-283 3313.9,-283 3313.9,-253 3453.9,-253 3453.9,-283"/>
<text text-anchor="start" x="3321.9" y="-271" font-family="Helvetica,sans-Serif" font-size="10.00">libs/Z2AudioLib/Z2WolfHowl</text>
<text text-anchor="middle" x="3383.9" y="-260" font-family="Helvetica,sans-Serif" font-size="10.00">Mgr.cpp</text>
</a>
</g>
</g>
<!-- Node4&#45;&gt;Node368 -->
<g id="edge40" class="edge">
<title>Node4&#45;&gt;Node368</title>
<path fill="none" stroke="#63b8ff" d="M3187.42,-317.74C3229.3,-307.35 3284.37,-293.69 3325.55,-283.47"/>
<polygon fill="#63b8ff" stroke="#63b8ff" points="3186.59,-314.34 3177.73,-320.14 3188.28,-321.13 3186.59,-314.34"/>
</g>
<!-- Node6 -->
<g id="node6" class="node">
<title>Node6</title>
<g id="a_node6"><a xlink:href="m__Do__audio_8h.html" target="_top" xlink:title=" ">
<polygon fill="white" stroke="#666666" points="2873.9,-217 2733.9,-217 2733.9,-198 2873.9,-198 2873.9,-217"/>
<text text-anchor="middle" x="2803.9" y="-205" font-family="Helvetica,sans-Serif" font-size="10.00">include/m_Do/m_Do_audio.h</text>
</a>
</g>
</g>
<!-- Node5&#45;&gt;Node6 -->
<g id="edge5" class="edge">
<title>Node5&#45;&gt;Node6</title>
<path fill="none" stroke="#63b8ff" d="M2857.04,-245.95C2842.96,-236.03 2826.95,-224.74 2816.21,-217.18"/>
<polygon fill="#63b8ff" stroke="#63b8ff" points="2854.96,-248.77 2865.15,-251.67 2858.99,-243.05 2854.96,-248.77"/>
</g>
<!-- Node365 -->
<g id="node36" class="node">
<title>Node365</title>
<g id="a_node36"><a xlink:href="Z2AudioMgr_8cpp.html" target="_top" xlink:title=" ">
<polygon fill="white" stroke="#666666" points="3049.9,-217 2891.9,-217 2891.9,-198 3049.9,-198 3049.9,-217"/>
<text text-anchor="middle" x="2970.9" y="-205" font-family="Helvetica,sans-Serif" font-size="10.00">libs/Z2AudioLib/Z2AudioMgr.cpp</text>
</a>
</g>
</g>
<!-- Node5&#45;&gt;Node365 -->
<g id="edge37" class="edge">
<title>Node5&#45;&gt;Node365</title>
<path fill="none" stroke="#63b8ff" d="M2916.71,-246.24C2931.06,-236.25 2947.47,-224.82 2958.44,-217.18"/>
<polygon fill="#63b8ff" stroke="#63b8ff" points="2915.11,-243.09 2908.91,-251.67 2919.11,-248.83 2915.11,-243.09"/>
</g>
<!-- Node7 -->
<g id="node7" class="node">
<title>Node7</title>
<g id="a_node7"><a xlink:href="m__Do__ext_8h.html" target="_top" xlink:title=" ">
<polygon fill="#fff0f0" stroke="red" points="1425.9,-156.5 1295.9,-156.5 1295.9,-137.5 1425.9,-137.5 1425.9,-156.5"/>
<text text-anchor="middle" x="1360.9" y="-144.5" font-family="Helvetica,sans-Serif" font-size="10.00">include/m_Do/m_Do_ext.h</text>
</a>
</g>
</g>
<!-- Node6&#45;&gt;Node7 -->
<g id="edge6" class="edge">
<title>Node6&#45;&gt;Node7</title>
<path fill="none" stroke="#63b8ff" d="M2722.63,-203.21C2463.59,-192.7 1660.75,-160.16 1426,-150.64"/>
<polygon fill="#63b8ff" stroke="#63b8ff" points="2722.17,-206.69 2732.3,-203.6 2722.45,-199.7 2722.17,-206.69"/>
</g>
<!-- Node54 -->
<g id="node13" class="node">
<title>Node54</title>
<g id="a_node13"><a xlink:href="d__kankyo_8cpp.html" target="_top" xlink:title=" ">
<polygon fill="white" stroke="#666666" points="1197.9,-24.5 1063.9,-24.5 1063.9,-5.5 1197.9,-5.5 1197.9,-24.5"/>
<text text-anchor="middle" x="1130.9" y="-12.5" font-family="Helvetica,sans-Serif" font-size="10.00">src/d/kankyo/d_kankyo.cpp</text>
</a>
</g>
</g>
<!-- Node6&#45;&gt;Node54 -->
<g id="edge29" class="edge">
<title>Node6&#45;&gt;Node54</title>
<path fill="none" stroke="#63b8ff" d="M2722.31,-206.44C2271.58,-205.72 102.84,-197.01 6.9,-96 -2.28,-86.33 -2.31,-75.64 6.9,-66 43.55,-27.69 826.58,-18.4 1063.55,-16.46"/>
<polygon fill="#63b8ff" stroke="#63b8ff" points="2722.06,-209.94 2732.07,-206.46 2722.08,-202.94 2722.06,-209.94"/>
</g>
<!-- Node168 -->
<g id="node14" class="node">
<title>Node168</title>
<g id="a_node14"><a xlink:href="d__kankyo__wether_8cpp.html" target="_top" xlink:title=" ">
<polygon fill="white" stroke="#666666" points="2181.9,-30 2065.9,-30 2065.9,0 2181.9,0 2181.9,-30"/>
<text text-anchor="start" x="2073.9" y="-18" font-family="Helvetica,sans-Serif" font-size="10.00">src/d/kankyo/d_kankyo</text>
<text text-anchor="middle" x="2123.9" y="-7" font-family="Helvetica,sans-Serif" font-size="10.00">_wether.cpp</text>
</a>
</g>
</g>
<!-- Node6&#45;&gt;Node168 -->
<g id="edge30" class="edge">
<title>Node6&#45;&gt;Node168</title>
<path fill="none" stroke="#63b8ff" d="M2722,-206.02C2627.71,-203.88 2480.22,-195.12 2436.9,-162 2400.32,-134.03 2433.63,-95.05 2397.9,-66 2365.59,-39.73 2252.71,-26.17 2182.32,-20.12"/>
<polygon fill="#63b8ff" stroke="#63b8ff" points="2721.93,-209.52 2732,-206.23 2722.07,-202.52 2721.93,-209.52"/>
</g>
<!-- Node12 -->
<g id="node27" class="node">
<title>Node12</title>
<g id="a_node27"><a xlink:href="d__com__inf__game_8cpp.html" target="_top" xlink:title=" ">
<polygon fill="white" stroke="#666666" points="2553.9,-162 2445.9,-162 2445.9,-132 2553.9,-132 2553.9,-162"/>
<text text-anchor="start" x="2453.9" y="-150" font-family="Helvetica,sans-Serif" font-size="10.00">src/d/com/d_com_inf</text>
<text text-anchor="middle" x="2499.9" y="-139" font-family="Helvetica,sans-Serif" font-size="10.00">_game.cpp</text>
</a>
</g>
</g>
<!-- Node6&#45;&gt;Node12 -->
<g id="edge26" class="edge">
<title>Node6&#45;&gt;Node12</title>
<path fill="none" stroke="#63b8ff" d="M2741.25,-195.57C2692.54,-186.92 2623.31,-174.29 2562.9,-162 2560.05,-161.42 2557.12,-160.81 2554.17,-160.19"/>
<polygon fill="#63b8ff" stroke="#63b8ff" points="2740.61,-199.01 2751.06,-197.31 2741.83,-192.12 2740.61,-199.01"/>
</g>
<!-- Node154 -->
<g id="node28" class="node">
<title>Node154</title>
<g id="a_node28"><a xlink:href="d__name_8cpp.html" target="_top" xlink:title=" ">
<polygon fill="white" stroke="#666666" points="2665.9,-156.5 2571.9,-156.5 2571.9,-137.5 2665.9,-137.5 2665.9,-156.5"/>
<text text-anchor="middle" x="2618.9" y="-144.5" font-family="Helvetica,sans-Serif" font-size="10.00">src/d/d_name.cpp</text>
</a>
</g>
</g>
<!-- Node6&#45;&gt;Node154 -->
<g id="edge27" class="edge">
<title>Node6&#45;&gt;Node154</title>
<path fill="none" stroke="#63b8ff" d="M2764.97,-194.19C2729.76,-183.06 2678.75,-166.92 2647.26,-156.97"/>
<polygon fill="#63b8ff" stroke="#63b8ff" points="2763.77,-197.48 2774.36,-197.16 2765.88,-190.81 2763.77,-197.48"/>
</g>
<!-- Node164 -->
<g id="node29" class="node">
<title>Node164</title>
<g id="a_node29"><a xlink:href="d__event__manager_8cpp.html" target="_top" xlink:title=" ">
<polygon fill="white" stroke="#666666" points="2787.4,-162 2684.4,-162 2684.4,-132 2787.4,-132 2787.4,-162"/>
<text text-anchor="start" x="2692.4" y="-150" font-family="Helvetica,sans-Serif" font-size="10.00">src/d/event/d_event</text>
<text text-anchor="middle" x="2735.9" y="-139" font-family="Helvetica,sans-Serif" font-size="10.00">_manager.cpp</text>
</a>
</g>
</g>
<!-- Node6&#45;&gt;Node164 -->
<g id="edge28" class="edge">
<title>Node6&#45;&gt;Node164</title>
<path fill="none" stroke="#63b8ff" d="M2785.03,-190.27C2774.89,-181.54 2762.49,-170.87 2752.69,-162.44"/>
<polygon fill="#63b8ff" stroke="#63b8ff" points="2782.56,-192.76 2792.43,-196.63 2787.13,-187.45 2782.56,-192.76"/>
</g>
<!-- Node16 -->
<g id="node30" class="node">
<title>Node16</title>
<g id="a_node30"><a xlink:href="d__msg__flow_8cpp.html" target="_top" xlink:title=" ">
<polygon fill="white" stroke="#666666" points="2938.4,-156.5 2805.4,-156.5 2805.4,-137.5 2938.4,-137.5 2938.4,-156.5"/>
<text text-anchor="middle" x="2871.9" y="-144.5" font-family="Helvetica,sans-Serif" font-size="10.00">src/d/msg/d_msg_flow.cpp</text>
</a>
</g>
</g>
<!-- Node6&#45;&gt;Node16 -->
<g id="edge31" class="edge">
<title>Node6&#45;&gt;Node16</title>
<path fill="none" stroke="#63b8ff" d="M2822.6,-190.41C2835.13,-179.64 2851.16,-165.85 2861.48,-156.97"/>
<polygon fill="#63b8ff" stroke="#63b8ff" points="2820.67,-187.45 2815.38,-196.63 2825.24,-192.76 2820.67,-187.45"/>
</g>
<!-- Node184 -->
<g id="node31" class="node">
<title>Node184</title>
<g id="a_node31"><a xlink:href="d__s__name_8cpp.html" target="_top" xlink:title=" ">
<polygon fill="white" stroke="#666666" points="3069.4,-156.5 2956.4,-156.5 2956.4,-137.5 3069.4,-137.5 3069.4,-156.5"/>
<text text-anchor="middle" x="3012.9" y="-144.5" font-family="Helvetica,sans-Serif" font-size="10.00">src/d/s/d_s_name.cpp</text>
</a>
</g>
</g>
<!-- Node6&#45;&gt;Node184 -->
<g id="edge32" class="edge">
<title>Node6&#45;&gt;Node184</title>
<path fill="none" stroke="#63b8ff" d="M2846.6,-194.55C2886.41,-183.41 2944.9,-167.03 2980.86,-156.97"/>
<polygon fill="#63b8ff" stroke="#63b8ff" points="2845.79,-191.14 2837.1,-197.21 2847.67,-197.88 2845.79,-191.14"/>
</g>
<!-- Node60 -->
<g id="node32" class="node">
<title>Node60</title>
<g id="a_node32"><a xlink:href="d__s__play_8cpp.html" target="_top" xlink:title=" ">
<polygon fill="white" stroke="#666666" points="3193.9,-156.5 3087.9,-156.5 3087.9,-137.5 3193.9,-137.5 3193.9,-156.5"/>
<text text-anchor="middle" x="3140.9" y="-144.5" font-family="Helvetica,sans-Serif" font-size="10.00">src/d/s/d_s_play.cpp</text>
</a>
</g>
</g>
<!-- Node6&#45;&gt;Node60 -->
<g id="edge33" class="edge">
<title>Node6&#45;&gt;Node60</title>
<path fill="none" stroke="#63b8ff" d="M2876.67,-195.85C2932,-187.47 3009.94,-175.06 3077.9,-162 3085.82,-160.48 3094.27,-158.7 3102.33,-156.94"/>
<polygon fill="#63b8ff" stroke="#63b8ff" points="2876.43,-192.35 2867.06,-197.3 2877.47,-199.27 2876.43,-192.35"/>
</g>
<!-- Node21 -->
<g id="node33" class="node">
<title>Node21</title>
<g id="a_node33"><a xlink:href="d__shop__system_8cpp.html" target="_top" xlink:title=" ">
<polygon fill="white" stroke="#666666" points="3363.9,-156.5 3211.9,-156.5 3211.9,-137.5 3363.9,-137.5 3363.9,-156.5"/>
<text text-anchor="middle" x="3287.9" y="-144.5" font-family="Helvetica,sans-Serif" font-size="10.00">src/d/shop/d_shop_system.cpp</text>
</a>
</g>
</g>
<!-- Node6&#45;&gt;Node21 -->
<g id="edge34" class="edge">
<title>Node6&#45;&gt;Node21</title>
<path fill="none" stroke="#63b8ff" d="M2885.3,-197.65C2992.84,-185.93 3172.31,-166.22 3202.9,-162 3213.72,-160.51 3225.28,-158.73 3236.27,-156.95"/>
<polygon fill="#63b8ff" stroke="#63b8ff" points="2885.23,-194.14 2875.66,-198.7 2885.98,-201.1 2885.23,-194.14"/>
</g>
<!-- Node364 -->
<g id="node34" class="node">
<title>Node364</title>
<g id="a_node34"><a xlink:href="m__Do__Reset_8cpp.html" target="_top" xlink:title=" ">
<polygon fill="white" stroke="#666666" points="3517.9,-156.5 3381.9,-156.5 3381.9,-137.5 3517.9,-137.5 3517.9,-156.5"/>
<text text-anchor="middle" x="3449.9" y="-144.5" font-family="Helvetica,sans-Serif" font-size="10.00">src/m_Do/m_Do_Reset.cpp</text>
</a>
</g>
</g>
<!-- Node6&#45;&gt;Node364 -->
<g id="edge35" class="edge">
<title>Node6&#45;&gt;Node364</title>
<path fill="none" stroke="#63b8ff" d="M2885.55,-197.8C3102.34,-178.69 3159.99,-189.1 3372.9,-162 3383.41,-160.66 3394.67,-158.84 3405.24,-156.95"/>
<polygon fill="#63b8ff" stroke="#63b8ff" points="2885.26,-194.31 2875.61,-198.69 2885.88,-201.28 2885.26,-194.31"/>
</g>
<!-- Node191 -->
<g id="node35" class="node">
<title>Node191</title>
<g id="a_node35"><a xlink:href="m__Do__audio_8cpp.html" target="_top" xlink:title=" ">
<polygon fill="white" stroke="#666666" points="3669.9,-156.5 3535.9,-156.5 3535.9,-137.5 3669.9,-137.5 3669.9,-156.5"/>
<text text-anchor="middle" x="3602.9" y="-144.5" font-family="Helvetica,sans-Serif" font-size="10.00">src/m_Do/m_Do_audio.cpp</text>
</a>
</g>
</g>
<!-- Node6&#45;&gt;Node191 -->
<g id="edge36" class="edge">
<title>Node6&#45;&gt;Node191</title>
<path fill="none" stroke="#63b8ff" d="M2885.21,-197.86C3170.52,-175.19 3245.87,-195.6 3526.9,-162 3537.56,-160.73 3548.98,-158.88 3559.64,-156.95"/>
<polygon fill="#63b8ff" stroke="#63b8ff" points="2885.29,-194.34 2875.6,-198.64 2885.85,-201.32 2885.29,-194.34"/>
</g>
<!-- Node8 -->
<g id="node8" class="node">
<title>Node8</title>
<g id="a_node8"><a xlink:href="d__attention_8h.html" target="_top" xlink:title=" ">
<polygon fill="#fff0f0" stroke="red" points="1635.9,-90.5 1521.9,-90.5 1521.9,-71.5 1635.9,-71.5 1635.9,-90.5"/>
<text text-anchor="middle" x="1578.9" y="-78.5" font-family="Helvetica,sans-Serif" font-size="10.00">include/d/d_attention.h</text>
</a>
</g>
</g>
<!-- Node7&#45;&gt;Node8 -->
<g id="edge7" class="edge">
<title>Node7&#45;&gt;Node8</title>
<path fill="none" stroke="#63b8ff" d="M1402.06,-133.92C1444.7,-121.4 1510.33,-102.13 1548.5,-90.93"/>
<polygon fill="#63b8ff" stroke="#63b8ff" points="1401.27,-130.5 1392.67,-136.67 1403.25,-137.22 1401.27,-130.5"/>
</g>
<!-- Node199 -->
<g id="node9" class="node">
<title>Node199</title>
<g id="a_node9"><a xlink:href="d__drawlist_8h.html" target="_top" xlink:title=" ">
<polygon fill="#fff0f0" stroke="red" points="1763.9,-90.5 1653.9,-90.5 1653.9,-71.5 1763.9,-71.5 1763.9,-90.5"/>
<text text-anchor="middle" x="1708.9" y="-78.5" font-family="Helvetica,sans-Serif" font-size="10.00">include/d/d_drawlist.h</text>
</a>
</g>
</g>
<!-- Node7&#45;&gt;Node199 -->
<g id="edge8" class="edge">
<title>Node7&#45;&gt;Node199</title>
<path fill="none" stroke="#63b8ff" d="M1426.88,-135.17C1484.53,-125.53 1570.42,-110.7 1644.9,-96 1652.71,-94.46 1661.04,-92.71 1669.01,-90.99"/>
<polygon fill="#63b8ff" stroke="#63b8ff" points="1426.52,-131.69 1417.23,-136.78 1427.67,-138.59 1426.52,-131.69"/>
</g>
<!-- Node242 -->
<g id="node10" class="node">
<title>Node242</title>
<g id="a_node10"><a xlink:href="d__ky__thunder_8h.html" target="_top" xlink:title=" ">
<polygon fill="#fff0f0" stroke="red" points="2021.9,-90.5 1897.9,-90.5 1897.9,-71.5 2021.9,-71.5 2021.9,-90.5"/>
<text text-anchor="middle" x="1959.9" y="-78.5" font-family="Helvetica,sans-Serif" font-size="10.00">include/d/d_ky_thunder.h</text>
</a>
</g>
</g>
<!-- Node7&#45;&gt;Node242 -->
<g id="edge9" class="edge">
<title>Node7&#45;&gt;Node242</title>
<path fill="none" stroke="#63b8ff" d="M1437.39,-141.17C1540.35,-134.13 1729.06,-119.27 1888.9,-96 1898.35,-94.62 1908.45,-92.83 1917.97,-90.99"/>
<polygon fill="#63b8ff" stroke="#63b8ff" points="1437.43,-137.66 1427.69,-141.83 1437.9,-144.65 1437.43,-137.66"/>
</g>
<!-- Node243 -->
<g id="node11" class="node">
<title>Node243</title>
<g id="a_node11"><a xlink:href="d__resorce_8h.html" target="_top" xlink:title=" ">
<polygon fill="#fff0f0" stroke="red" points="2149.4,-90.5 2040.4,-90.5 2040.4,-71.5 2149.4,-71.5 2149.4,-90.5"/>
<text text-anchor="middle" x="2094.9" y="-78.5" font-family="Helvetica,sans-Serif" font-size="10.00">include/d/d_resorce.h</text>
</a>
</g>
</g>
<!-- Node7&#45;&gt;Node243 -->
<g id="edge10" class="edge">
<title>Node7&#45;&gt;Node243</title>
<path fill="none" stroke="#63b8ff" d="M1437.7,-143.78C1562.63,-139.39 1817.4,-127.16 2030.9,-96 2039.79,-94.7 2049.29,-92.87 2058.18,-90.96"/>
<polygon fill="#63b8ff" stroke="#63b8ff" points="1437.77,-140.28 1427.9,-144.12 1438.01,-147.28 1437.77,-140.28"/>
</g>
<!-- Node244 -->
<g id="node12" class="node">
<title>Node244</title>
<g id="a_node12"><a xlink:href="d__kankyo_8h.html" target="_top" xlink:title=" ">
<polygon fill="#fff0f0" stroke="red" points="1879.9,-96 1781.9,-96 1781.9,-66 1879.9,-66 1879.9,-96"/>
<text text-anchor="start" x="1789.9" y="-84" font-family="Helvetica,sans-Serif" font-size="10.00">include/d/kankyo/d</text>
<text text-anchor="middle" x="1830.9" y="-73" font-family="Helvetica,sans-Serif" font-size="10.00">_kankyo.h</text>
</a>
</g>
</g>
<!-- Node7&#45;&gt;Node244 -->
<g id="edge11" class="edge">
<title>Node7&#45;&gt;Node244</title>
<path fill="none" stroke="#63b8ff" d="M1437.54,-139.38C1520.58,-131.59 1656.76,-116.99 1772.9,-96 1775.76,-95.48 1778.68,-94.91 1781.62,-94.31"/>
<polygon fill="#63b8ff" stroke="#63b8ff" points="1437.33,-135.89 1427.69,-140.3 1437.97,-142.86 1437.33,-135.89"/>
</g>
<!-- Node203 -->
<g id="node15" class="node">
<title>Node203</title>
<g id="a_node15"><a xlink:href="d__a__do_8h.html" target="_top" xlink:title=" ">
<polygon fill="white" stroke="#666666" points="2263.9,-96 2167.9,-96 2167.9,-66 2263.9,-66 2263.9,-96"/>
<text text-anchor="start" x="2175.9" y="-84" font-family="Helvetica,sans-Serif" font-size="10.00">include/rel/d/a/d_a</text>
<text text-anchor="middle" x="2215.9" y="-73" font-family="Helvetica,sans-Serif" font-size="10.00">_do/d_a_do.h</text>
</a>
</g>
</g>
<!-- Node7&#45;&gt;Node203 -->
<g id="edge14" class="edge">
<title>Node7&#45;&gt;Node203</title>
<path fill="none" stroke="#63b8ff" d="M1437.6,-145.62C1580.23,-143.92 1895.63,-135.57 2157.9,-96 2161.08,-95.52 2164.33,-94.95 2167.61,-94.32"/>
<polygon fill="#63b8ff" stroke="#63b8ff" points="1437.87,-142.11 1427.91,-145.72 1437.95,-149.11 1437.87,-142.11"/>
</g>
<!-- Node356 -->
<g id="node16" class="node">
<title>Node356</title>
<g id="a_node16"><a xlink:href="DynamicLink_8cpp.html" target="_top" xlink:title=" ">
<polygon fill="white" stroke="#666666" points="2389.4,-90.5 2282.4,-90.5 2282.4,-71.5 2389.4,-71.5 2389.4,-90.5"/>
<text text-anchor="middle" x="2335.9" y="-78.5" font-family="Helvetica,sans-Serif" font-size="10.00">src/DynamicLink.cpp</text>
</a>
</g>
</g>
<!-- Node7&#45;&gt;Node356 -->
<g id="edge15" class="edge">
<title>Node7&#45;&gt;Node356</title>
<path fill="none" stroke="#63b8ff" d="M1437.63,-146.02C1595.01,-145.15 1965.43,-138.3 2272.9,-96 2281.89,-94.76 2291.5,-92.91 2300.44,-90.95"/>
<polygon fill="#63b8ff" stroke="#63b8ff" points="1437.71,-142.52 1427.73,-146.07 1437.75,-149.52 1437.71,-142.52"/>
</g>
<!-- Node135 -->
<g id="node17" class="node">
<title>Node135</title>
<g id="a_node17"><a xlink:href="c__dylink_8cpp.html" target="_top" xlink:title=" ">
<polygon fill="white" stroke="#666666" points="111.4,-90.5 16.4,-90.5 16.4,-71.5 111.4,-71.5 111.4,-90.5"/>
<text text-anchor="middle" x="63.9" y="-78.5" font-family="Helvetica,sans-Serif" font-size="10.00">src/c/c_dylink.cpp</text>
</a>
</g>
</g>
<!-- Node7&#45;&gt;Node135 -->
<g id="edge16" class="edge">
<title>Node7&#45;&gt;Node135</title>
<path fill="none" stroke="#63b8ff" d="M1284.13,-144.96C1049.85,-141.48 346.32,-128.51 119.9,-96 111.77,-94.83 103.1,-92.98 95.07,-90.99"/>
<polygon fill="#63b8ff" stroke="#63b8ff" points="1284.03,-148.46 1294.08,-145.11 1284.13,-141.46 1284.03,-148.46"/>
</g>
<!-- Node357 -->
<g id="node18" class="node">
<title>Node357</title>
<g id="a_node18"><a xlink:href="d__pane__class_8cpp.html" target="_top" xlink:title=" ">
<polygon fill="white" stroke="#666666" points="272.4,-90.5 129.4,-90.5 129.4,-71.5 272.4,-71.5 272.4,-90.5"/>
<text text-anchor="middle" x="200.9" y="-78.5" font-family="Helvetica,sans-Serif" font-size="10.00">src/d/pane/d_pane_class.cpp</text>
</a>
</g>
</g>
<!-- Node7&#45;&gt;Node357 -->
<g id="edge17" class="edge">
<title>Node7&#45;&gt;Node357</title>
<path fill="none" stroke="#63b8ff" d="M1284.28,-145.79C1107.11,-144.57 655.61,-137.29 280.9,-96 269.55,-94.75 257.37,-92.89 246.03,-90.93"/>
<polygon fill="#63b8ff" stroke="#63b8ff" points="1284.01,-149.29 1294.03,-145.85 1284.06,-142.29 1284.01,-149.29"/>
</g>
<!-- Node358 -->
<g id="node19" class="node">
<title>Node358</title>
<g id="a_node19"><a xlink:href="d__pane__class__alpha_8cpp.html" target="_top" xlink:title=" ">
<polygon fill="white" stroke="#666666" points="415.4,-96 290.4,-96 290.4,-66 415.4,-66 415.4,-96"/>
<text text-anchor="start" x="298.4" y="-84" font-family="Helvetica,sans-Serif" font-size="10.00">src/d/pane/d_pane_class</text>
<text text-anchor="middle" x="352.9" y="-73" font-family="Helvetica,sans-Serif" font-size="10.00">_alpha.cpp</text>
</a>
</g>
</g>
<!-- Node7&#45;&gt;Node358 -->
<g id="edge18" class="edge">
<title>Node7&#45;&gt;Node358</title>
<path fill="none" stroke="#63b8ff" d="M1284.44,-145.57C1124.22,-143.88 741.8,-135.62 423.9,-96 421.16,-95.66 418.36,-95.27 415.54,-94.85"/>
<polygon fill="#63b8ff" stroke="#63b8ff" points="1284.04,-149.07 1294.07,-145.67 1284.11,-142.07 1284.04,-149.07"/>
</g>
<!-- Node127 -->
<g id="node20" class="node">
<title>Node127</title>
<g id="a_node20"><a xlink:href="f__op__actor__mng_8cpp.html" target="_top" xlink:title=" ">
<polygon fill="white" stroke="#666666" points="534.4,-96 433.4,-96 433.4,-66 534.4,-66 534.4,-96"/>
<text text-anchor="start" x="441.4" y="-84" font-family="Helvetica,sans-Serif" font-size="10.00">src/f_op/f_op_actor</text>
<text text-anchor="middle" x="483.9" y="-73" font-family="Helvetica,sans-Serif" font-size="10.00">_mng.cpp</text>
</a>
</g>
</g>
<!-- Node7&#45;&gt;Node127 -->
<g id="edge19" class="edge">
<title>Node7&#45;&gt;Node127</title>
<path fill="none" stroke="#63b8ff" d="M1284.15,-145.69C1138.72,-144.15 813.37,-136.05 542.9,-96 540.19,-95.6 537.43,-95.14 534.64,-94.63"/>
<polygon fill="#63b8ff" stroke="#63b8ff" points="1284.01,-149.19 1294.05,-145.79 1284.08,-142.19 1284.01,-149.19"/>
</g>
<!-- Node359 -->
<g id="node21" class="node">
<title>Node359</title>
<g id="a_node21"><a xlink:href="m__Do__DVDError_8cpp.html" target="_top" xlink:title=" ">
<polygon fill="white" stroke="#666666" points="703.4,-90.5 552.4,-90.5 552.4,-71.5 703.4,-71.5 703.4,-90.5"/>
<text text-anchor="middle" x="627.9" y="-78.5" font-family="Helvetica,sans-Serif" font-size="10.00">src/m_Do/m_Do_DVDError.cpp</text>
</a>
</g>
</g>
<!-- Node7&#45;&gt;Node359 -->
<g id="edge20" class="edge">
<title>Node7&#45;&gt;Node359</title>
<path fill="none" stroke="#63b8ff" d="M1284.04,-142.22C1162.48,-135.76 918.55,-120.82 712.9,-96 701.47,-94.62 689.22,-92.8 677.69,-90.94"/>
<polygon fill="#63b8ff" stroke="#63b8ff" points="1283.73,-145.71 1293.9,-142.74 1284.1,-138.72 1283.73,-145.71"/>
</g>
<!-- Node360 -->
<g id="node22" class="node">
<title>Node360</title>
<g id="a_node22"><a xlink:href="m__Do__MemCard_8cpp.html" target="_top" xlink:title=" ">
<polygon fill="white" stroke="#666666" points="873.9,-90.5 721.9,-90.5 721.9,-71.5 873.9,-71.5 873.9,-90.5"/>
<text text-anchor="middle" x="797.9" y="-78.5" font-family="Helvetica,sans-Serif" font-size="10.00">src/m_Do/m_Do_MemCard.cpp</text>
</a>
</g>
</g>
<!-- Node7&#45;&gt;Node360 -->
<g id="edge21" class="edge">
<title>Node7&#45;&gt;Node360</title>
<path fill="none" stroke="#63b8ff" d="M1283.96,-139.36C1189.37,-130.87 1024,-114.98 882.9,-96 871.93,-94.52 860.2,-92.73 849.07,-90.93"/>
<polygon fill="#63b8ff" stroke="#63b8ff" points="1283.64,-142.85 1293.92,-140.25 1284.27,-135.87 1283.64,-142.85"/>
</g>
<!-- Node361 -->
<g id="node23" class="node">
<title>Node361</title>
<g id="a_node23"><a xlink:href="m__Do__dvd__thread_8cpp.html" target="_top" xlink:title=" ">
<polygon fill="white" stroke="#666666" points="1049.9,-90.5 891.9,-90.5 891.9,-71.5 1049.9,-71.5 1049.9,-90.5"/>
<text text-anchor="middle" x="970.9" y="-78.5" font-family="Helvetica,sans-Serif" font-size="10.00">src/m_Do/m_Do_dvd_thread.cpp</text>
</a>
</g>
</g>
<!-- Node7&#45;&gt;Node361 -->
<g id="edge22" class="edge">
<title>Node7&#45;&gt;Node361</title>
<path fill="none" stroke="#63b8ff" d="M1294.98,-135.18C1219.18,-122.74 1096.14,-102.55 1025.48,-90.96"/>
<polygon fill="#63b8ff" stroke="#63b8ff" points="1294.33,-138.62 1304.77,-136.79 1295.47,-131.72 1294.33,-138.62"/>
</g>
<!-- Node192 -->
<g id="node24" class="node">
<title>Node192</title>
<g id="a_node24"><a xlink:href="m__Do__ext_8cpp.html" target="_top" xlink:title=" ">
<polygon fill="white" stroke="#666666" points="1191.4,-90.5 1068.4,-90.5 1068.4,-71.5 1191.4,-71.5 1191.4,-90.5"/>
<text text-anchor="middle" x="1129.9" y="-78.5" font-family="Helvetica,sans-Serif" font-size="10.00">src/m_Do/m_Do_ext.cpp</text>
</a>
</g>
</g>
<!-- Node7&#45;&gt;Node192 -->
<g id="edge23" class="edge">
<title>Node7&#45;&gt;Node192</title>
<path fill="none" stroke="#63b8ff" d="M1317.87,-134.08C1272.7,-121.56 1202.74,-102.18 1162.12,-90.93"/>
<polygon fill="#63b8ff" stroke="#63b8ff" points="1316.75,-137.4 1327.32,-136.7 1318.62,-130.65 1316.75,-137.4"/>
</g>
<!-- Node362 -->
<g id="node25" class="node">
<title>Node362</title>
<g id="a_node25"><a xlink:href="m__Do__machine_8cpp.html" target="_top" xlink:title=" ">
<polygon fill="white" stroke="#666666" points="1356.4,-90.5 1209.4,-90.5 1209.4,-71.5 1356.4,-71.5 1356.4,-90.5"/>
<text text-anchor="middle" x="1282.9" y="-78.5" font-family="Helvetica,sans-Serif" font-size="10.00">src/m_Do/m_Do_machine.cpp</text>
</a>
</g>
</g>
<!-- Node7&#45;&gt;Node362 -->
<g id="edge24" class="edge">
<title>Node7&#45;&gt;Node362</title>
<path fill="none" stroke="#63b8ff" d="M1341.45,-130.04C1326.34,-117.64 1305.96,-100.92 1293.65,-90.82"/>
<polygon fill="#63b8ff" stroke="#63b8ff" points="1338.93,-132.5 1348.89,-136.14 1343.38,-127.09 1338.93,-132.5"/>
</g>
<!-- Node195 -->
<g id="node26" class="node">
<title>Node195</title>
<g id="a_node26"><a xlink:href="m__Do__machine__exception_8cpp.html" target="_top" xlink:title=" ">
<polygon fill="white" stroke="#666666" points="1503.4,-96 1374.4,-96 1374.4,-66 1503.4,-66 1503.4,-96"/>
<text text-anchor="start" x="1382.4" y="-84" font-family="Helvetica,sans-Serif" font-size="10.00">src/m_Do/m_Do_machine</text>
<text text-anchor="middle" x="1438.9" y="-73" font-family="Helvetica,sans-Serif" font-size="10.00">_exception.cpp</text>
</a>
</g>
</g>
<!-- Node7&#45;&gt;Node195 -->
<g id="edge25" class="edge">
<title>Node7&#45;&gt;Node195</title>
<path fill="none" stroke="#63b8ff" d="M1380.5,-129.92C1393.03,-119.64 1409.13,-106.43 1421.26,-96.48"/>
<polygon fill="#63b8ff" stroke="#63b8ff" points="1378.43,-127.09 1372.92,-136.14 1382.87,-132.5 1378.43,-127.09"/>
</g>
<!-- Node244&#45;&gt;Node54 -->
<g id="edge12" class="edge">
<title>Node244&#45;&gt;Node54</title>
<path fill="none" stroke="#63b8ff" d="M1770.51,-65.8C1556.56,-32.64 1313.72,-21.45 1198.32,-17.73"/>
<polygon fill="#63b8ff" stroke="#63b8ff" points="1769.73,-69.22 1780.15,-67.31 1770.82,-62.3 1769.73,-69.22"/>
</g>
<!-- Node244&#45;&gt;Node168 -->
<g id="edge13" class="edge">
<title>Node244&#45;&gt;Node168</title>
<path fill="none" stroke="#63b8ff" d="M1891.13,-65.53C1956.34,-50.81 2020.75,-37.24 2065.86,-27.89"/>
<polygon fill="#63b8ff" stroke="#63b8ff" points="1890.7,-62.04 1881.72,-67.66 1892.24,-68.86 1890.7,-62.04"/>
</g>
<!-- Node373&#45;&gt;Node372 -->
<g id="edge48" class="edge">
<title>Node373&#45;&gt;Node372</title>
<path fill="none" stroke="#63b8ff" d="M3056.95,-443.42C3046.27,-434.18 3034.09,-423.65 3024.53,-415.39"/>
<polygon fill="#63b8ff" stroke="#63b8ff" points="3054.48,-445.91 3064.33,-449.81 3059.06,-440.62 3054.48,-445.91"/>
</g>
<!-- Node374 -->
<g id="node45" class="node">
<title>Node374</title>
<g id="a_node45"><a xlink:href="JAISeq_8cpp.html" target="_top" xlink:title=" ">
<polygon fill="white" stroke="#666666" points="3192.4,-415 3081.4,-415 3081.4,-385 3192.4,-385 3192.4,-415"/>
<text text-anchor="start" x="3089.4" y="-403" font-family="Helvetica,sans-Serif" font-size="10.00">libs/JSystem/JAudio2</text>
<text text-anchor="middle" x="3136.9" y="-392" font-family="Helvetica,sans-Serif" font-size="10.00">/JAISeq.cpp</text>
</a>
</g>
</g>
<!-- Node373&#45;&gt;Node374 -->
<g id="edge47" class="edge">
<title>Node373&#45;&gt;Node374</title>
<path fill="none" stroke="#63b8ff" d="M3101.46,-442.24C3109.22,-433.21 3117.9,-423.11 3124.73,-415.16"/>
<polygon fill="#63b8ff" stroke="#63b8ff" points="3098.96,-439.78 3095.09,-449.65 3104.27,-444.35 3098.96,-439.78"/>
</g>
<!-- Node375&#45;&gt;Node4 -->
<g id="edge50" class="edge">
<title>Node375&#45;&gt;Node4</title>
<path fill="none" stroke="#63b8ff" d="M3223.09,-439.47C3219.56,-422.67 3212.97,-400.92 3200.9,-385 3189.46,-369.91 3172.08,-357.91 3156.93,-349.46"/>
<polygon fill="#63b8ff" stroke="#63b8ff" points="3219.62,-439.99 3224.87,-449.19 3226.51,-438.72 3219.62,-439.99"/>
</g>
<!-- Node375&#45;&gt;Node374 -->
<g id="edge51" class="edge">
<title>Node375&#45;&gt;Node374</title>
<path fill="none" stroke="#63b8ff" d="M3197.72,-444.25C3184.46,-434.82 3169.1,-423.9 3157.13,-415.39"/>
<polygon fill="#63b8ff" stroke="#63b8ff" points="3195.52,-446.98 3205.69,-449.92 3199.57,-441.27 3195.52,-446.98"/>
</g>
<!-- Node376 -->
<g id="node47" class="node">
<title>Node376</title>
<g id="a_node47"><a xlink:href="JAISeqMgr_8cpp.html" target="_top" xlink:title=" ">
<polygon fill="white" stroke="#666666" points="3360.4,-415 3249.4,-415 3249.4,-385 3360.4,-385 3360.4,-415"/>
<text text-anchor="start" x="3257.4" y="-403" font-family="Helvetica,sans-Serif" font-size="10.00">libs/JSystem/JAudio2</text>
<text text-anchor="middle" x="3304.9" y="-392" font-family="Helvetica,sans-Serif" font-size="10.00">/JAISeqMgr.cpp</text>
</a>
</g>
</g>
<!-- Node375&#45;&gt;Node376 -->
<g id="edge52" class="edge">
<title>Node375&#45;&gt;Node376</title>
<path fill="none" stroke="#63b8ff" d="M3252.86,-443.7C3264.2,-434.4 3277.2,-423.73 3287.37,-415.39"/>
<polygon fill="#63b8ff" stroke="#63b8ff" points="3250.89,-440.79 3245.38,-449.84 3255.33,-446.2 3250.89,-440.79"/>
</g>
<!-- Node377&#45;&gt;Node371 -->
<g id="edge54" class="edge">
<title>Node377&#45;&gt;Node371</title>
<path fill="none" stroke="#63b8ff" d="M3382.09,-439.31C3380.7,-423.03 3377.26,-401.93 3368.9,-385 3362.11,-371.25 3350.36,-358.57 3340.43,-349.42"/>
<polygon fill="#63b8ff" stroke="#63b8ff" points="3378.59,-439.4 3382.7,-449.16 3385.57,-438.96 3378.59,-439.4"/>
</g>
<!-- Node378 -->
<g id="node49" class="node">
<title>Node378</title>
<g id="a_node49"><a xlink:href="JAUSectionHeap_8cpp.html" target="_top" xlink:title=" ">
<polygon fill="white" stroke="#666666" points="3530.4,-415 3417.4,-415 3417.4,-385 3530.4,-385 3530.4,-415"/>
<text text-anchor="start" x="3425.4" y="-403" font-family="Helvetica,sans-Serif" font-size="10.00">libs/JSystem/JAudio2</text>
<text text-anchor="middle" x="3473.9" y="-392" font-family="Helvetica,sans-Serif" font-size="10.00">/JAUSectionHeap.cpp</text>
</a>
</g>
</g>
<!-- Node377&#45;&gt;Node378 -->
<g id="edge55" class="edge">
<title>Node377&#45;&gt;Node378</title>
<path fill="none" stroke="#63b8ff" d="M3412.41,-444.25C3425.82,-434.82 3441.35,-423.9 3453.45,-415.39"/>
<polygon fill="#63b8ff" stroke="#63b8ff" points="3410.5,-441.31 3404.34,-449.93 3414.53,-447.04 3410.5,-441.31"/>
</g>
</g>
</svg>
        <g id="navigator" transform="translate(0 0)" fill="#404254">
                <rect fill="#f2f5e9" fill-opacity="0.5" stroke="#606060" stroke-width=".5" x="0" y="0" width="60" height="60"/>
                <use id="zoomplus" xlink:href="#zoomPlus" x="17" y="9" onmousedown="handleZoom(evt,'in')"/>
                <use id="zoomminus" xlink:href="#zoomMin" x="42" y="9" onmousedown="handleZoom(evt,'out')"/>
                <use id="reset" xlink:href="#resetDef" x="30" y="36" onmousedown="handleReset()"/>
                <g id="arrowUp" xlink:href="#dirArrow" transform="translate(30 24)" onmousedown="handlePan(0,-1)">
                  <use xlink:href="#rim" fill="#404040">
                        <set attributeName="fill" to="#808080" begin="arrowUp.mouseover" end="arrowUp.mouseout"/>
                  </use>
                  <path fill="none" stroke="white" stroke-width="1.5" d="M0,-3.0v7 M-2.5,-0.5L0,-3.0L2.5,-0.5"/>
                </g>
                <g id="arrowRight" xlink:href="#dirArrow" transform="rotate(90) translate(36 -43)" onmousedown="handlePan(1,0)">
                  <use xlink:href="#rim" fill="#404040">
                        <set attributeName="fill" to="#808080" begin="arrowRight.mouseover" end="arrowRight.mouseout"/>
                  </use>
                  <path fill="none" stroke="white" stroke-width="1.5" d="M0,-3.0v7 M-2.5,-0.5L0,-3.0L2.5,-0.5"/>
                </g>
                <g id="arrowDown" xlink:href="#dirArrow" transform="rotate(180) translate(-30 -48)" onmousedown="handlePan(0,1)">
                  <use xlink:href="#rim" fill="#404040">
                        <set attributeName="fill" to="#808080" begin="arrowDown.mouseover" end="arrowDown.mouseout"/>
                  </use>
                  <path fill="none" stroke="white" stroke-width="1.5" d="M0,-3.0v7 M-2.5,-0.5L0,-3.0L2.5,-0.5"/>
                </g>
                <g id="arrowLeft" xlink:href="#dirArrow" transform="rotate(270) translate(-36 17)" onmousedown="handlePan(-1,0)">
                  <use xlink:href="#rim" fill="#404040">
                        <set attributeName="fill" to="#808080" begin="arrowLeft.mouseover" end="arrowLeft.mouseout"/>
                  </use>
                  <path fill="none" stroke="white" stroke-width="1.5" d="M0,-3.0v7 M-2.5,-0.5L0,-3.0L2.5,-0.5"/>
                </g>
        </g>
        <svg viewBox="0 0 15 15" width="100%" height="30px" preserveAspectRatio="xMaxYMin meet">
         <g id="arrow_out" transform="scale(0.3 0.3)">
          <a xlink:href="JAISeqDataMgr_8h__dep__incl_org.svg" target="_base">
           <rect id="button" ry="5" rx="5" y="6" x="6" height="38" width="38"
                fill="#f2f5e9" fill-opacity="0.5" stroke="#606060" stroke-width="1.0"/>
           <path id="arrow"
             d="M 11.500037,31.436501 C 11.940474,20.09759 22.043105,11.32322 32.158766,21.979434 L 37.068811,17.246167 C 37.068811,17.246167 37.088388,32 37.088388,32 L 22.160133,31.978069 C 22.160133,31.978069 26.997745,27.140456 26.997745,27.140456 C 18.528582,18.264221 13.291696,25.230495 11.500037,31.436501 z"
             style="fill:#404040;"/>
          </a>
         </g>
        </svg>
</svg>
