<?xml version="1.0" encoding="UTF-8" standalone="no"?>
<!DOCTYPE svg PUBLIC "-//W3C//DTD SVG 1.1//EN"
 "http://www.w3.org/Graphics/SVG/1.1/DTD/svg11.dtd">
<!-- Generated by graphviz version 7.0.5 (20221223.1930)
 -->
<!-- Title: libs/JSystem/JAudio2/JAISeqMgr.cpp Pages: 1 -->
<svg width="3306pt" height="566pt"
 viewBox="0.00 0.00 3305.50 566.00" xmlns="http://www.w3.org/2000/svg" xmlns:xlink="http://www.w3.org/1999/xlink">
<g id="graph0" class="graph" transform="scale(1 1) rotate(0) translate(4 562)">
<title>libs/JSystem/JAudio2/JAISeqMgr.cpp</title>
<!-- Node1 -->
<g id="node1" class="node">
<title>Node1</title>
<g id="a_node1"><a xlink:title=" ">
<polygon fill="#999999" stroke="#666666" points="1910.5,-558 1799.5,-558 1799.5,-528 1910.5,-528 1910.5,-558"/>
<text text-anchor="start" x="1807.5" y="-546" font-family="Helvetica,sans-Serif" font-size="10.00">libs/JSystem/JAudio2</text>
<text text-anchor="middle" x="1855" y="-535" font-family="Helvetica,sans-Serif" font-size="10.00">/JAISeqMgr.cpp</text>
</a>
</g>
</g>
<!-- Node2 -->
<g id="node2" class="node">
<title>Node2</title>
<g id="a_node2"><a xlink:href="JAISeqMgr_8h.html" target="_top" xlink:title=" ">
<polygon fill="white" stroke="#666666" points="651,-475.5 499,-475.5 499,-456.5 651,-456.5 651,-475.5"/>
<text text-anchor="middle" x="575" y="-463.5" font-family="Helvetica,sans-Serif" font-size="10.00">JSystem/JAudio2/JAISeqMgr.h</text>
</a>
</g>
</g>
<!-- Node1&#45;&gt;Node2 -->
<g id="edge1" class="edge">
<title>Node1&#45;&gt;Node2</title>
<path fill="none" stroke="#63b8ff" d="M1799.29,-541.47C1594.49,-539.25 883.56,-528.98 660,-492 643.43,-489.26 625.54,-484.31 610.46,-479.53"/>
<polygon fill="#63b8ff" stroke="#63b8ff" points="611.58,-476.22 600.99,-476.43 609.4,-482.87 611.58,-476.22"/>
</g>
<!-- Node20 -->
<g id="node20" class="node">
<title>Node20</title>
<g id="a_node20"><a xlink:href="dol2asm_8h.html" target="_top" xlink:title=" ">
<polygon fill="white" stroke="#666666" points="730.5,-475.5 669.5,-475.5 669.5,-456.5 730.5,-456.5 730.5,-475.5"/>
<text text-anchor="middle" x="700" y="-463.5" font-family="Helvetica,sans-Serif" font-size="10.00">dol2asm.h</text>
</a>
</g>
</g>
<!-- Node1&#45;&gt;Node20 -->
<g id="edge24" class="edge">
<title>Node1&#45;&gt;Node20</title>
<path fill="none" stroke="#63b8ff" d="M1799.3,-541.16C1587.82,-537.75 841.47,-523.58 740,-492 733.09,-489.85 726.18,-486.2 720.1,-482.35"/>
<polygon fill="#63b8ff" stroke="#63b8ff" points="722.24,-479.58 712.03,-476.76 718.25,-485.33 722.24,-479.58"/>
</g>
<!-- Node21 -->
<g id="node21" class="node">
<title>Node21</title>
<g id="a_node21"><a xlink:title=" ">
<polygon fill="#e0e0e0" stroke="#999999" points="949.5,-486.5 748.5,-486.5 748.5,-445.5 949.5,-445.5 949.5,-486.5"/>
<text text-anchor="start" x="756.5" y="-474.5" font-family="Helvetica,sans-Serif" font-size="10.00">asm/JSystem/JAudio2</text>
<text text-anchor="start" x="756.5" y="-463.5" font-family="Helvetica,sans-Serif" font-size="10.00">/JAISeqMgr/isUsingSeqData</text>
<text text-anchor="middle" x="849" y="-452.5" font-family="Helvetica,sans-Serif" font-size="10.00">__9JAISeqMgrFRC16JAISeqDataRegion.s</text>
</a>
</g>
</g>
<!-- Node1&#45;&gt;Node21 -->
<g id="edge25" class="edge">
<title>Node1&#45;&gt;Node21</title>
<path fill="none" stroke="#63b8ff" d="M1799.11,-542.13C1657.7,-541.74 1274.51,-536.34 959,-492 953.06,-491.17 946.97,-490.17 940.84,-489.07"/>
<polygon fill="#63b8ff" stroke="#63b8ff" points="941.78,-485.69 931.3,-487.27 940.47,-492.56 941.78,-485.69"/>
</g>
<!-- Node22 -->
<g id="node22" class="node">
<title>Node22</title>
<g id="a_node22"><a xlink:title=" ">
<polygon fill="#e0e0e0" stroke="#999999" points="1168.5,-486.5 967.5,-486.5 967.5,-445.5 1168.5,-445.5 1168.5,-486.5"/>
<text text-anchor="start" x="975.5" y="-474.5" font-family="Helvetica,sans-Serif" font-size="10.00">asm/JSystem/JAudio2</text>
<text text-anchor="start" x="975.5" y="-463.5" font-family="Helvetica,sans-Serif" font-size="10.00">/JAISeqMgr/releaseSeqData</text>
<text text-anchor="middle" x="1068" y="-452.5" font-family="Helvetica,sans-Serif" font-size="10.00">__9JAISeqMgrFRC16JAISeqDataRegion.s</text>
</a>
</g>
</g>
<!-- Node1&#45;&gt;Node22 -->
<g id="edge26" class="edge">
<title>Node1&#45;&gt;Node22</title>
<path fill="none" stroke="#63b8ff" d="M1799.4,-540.71C1683.34,-537.4 1407.03,-526.29 1178,-492 1172.39,-491.16 1166.65,-490.19 1160.87,-489.13"/>
<polygon fill="#63b8ff" stroke="#63b8ff" points="1161.7,-485.73 1151.22,-487.28 1160.38,-492.6 1161.7,-485.73"/>
</g>
<!-- Node23 -->
<g id="node23" class="node">
<title>Node23</title>
<g id="a_node23"><a xlink:title=" ">
<polygon fill="#e0e0e0" stroke="#999999" points="1359.5,-481 1186.5,-481 1186.5,-451 1359.5,-451 1359.5,-481"/>
<text text-anchor="start" x="1194.5" y="-469" font-family="Helvetica,sans-Serif" font-size="10.00">asm/JSystem/JAudio2</text>
<text text-anchor="middle" x="1273" y="-458" font-family="Helvetica,sans-Serif" font-size="10.00">/JAISeqMgr/__ct__9JAISeqMgrFb.s</text>
</a>
</g>
</g>
<!-- Node1&#45;&gt;Node23 -->
<g id="edge27" class="edge">
<title>Node1&#45;&gt;Node23</title>
<path fill="none" stroke="#63b8ff" d="M1799.22,-539.03C1708.46,-533.58 1523.42,-519.88 1369,-492 1357.44,-489.91 1345.23,-487.16 1333.53,-484.25"/>
<polygon fill="#63b8ff" stroke="#63b8ff" points="1334.53,-480.9 1323.97,-481.8 1332.79,-487.68 1334.53,-480.9"/>
</g>
<!-- Node24 -->
<g id="node24" class="node">
<title>Node24</title>
<g id="a_node24"><a xlink:title=" ">
<polygon fill="#e0e0e0" stroke="#999999" points="1506,-486.5 1378,-486.5 1378,-445.5 1506,-445.5 1506,-486.5"/>
<text text-anchor="start" x="1386" y="-474.5" font-family="Helvetica,sans-Serif" font-size="10.00">asm/JSystem/JAudio2</text>
<text text-anchor="start" x="1386" y="-463.5" font-family="Helvetica,sans-Serif" font-size="10.00">/JAISeqMgr/freeDeadSeq</text>
<text text-anchor="middle" x="1442" y="-452.5" font-family="Helvetica,sans-Serif" font-size="10.00">___9JAISeqMgrFv.s</text>
</a>
</g>
</g>
<!-- Node1&#45;&gt;Node24 -->
<g id="edge28" class="edge">
<title>Node1&#45;&gt;Node24</title>
<path fill="none" stroke="#63b8ff" d="M1799.22,-536.87C1731.56,-529.94 1614.33,-515.66 1516,-492 1513.44,-491.38 1510.85,-490.72 1508.23,-490.01"/>
<polygon fill="#63b8ff" stroke="#63b8ff" points="1509.48,-486.73 1498.9,-487.34 1507.55,-493.46 1509.48,-486.73"/>
</g>
<!-- Node25 -->
<g id="node25" class="node">
<title>Node25</title>
<g id="a_node25"><a xlink:title=" ">
<polygon fill="#e0e0e0" stroke="#999999" points="1673.5,-481 1524.5,-481 1524.5,-451 1673.5,-451 1673.5,-481"/>
<text text-anchor="start" x="1532.5" y="-469" font-family="Helvetica,sans-Serif" font-size="10.00">asm/JSystem/JAudio2</text>
<text text-anchor="middle" x="1599" y="-458" font-family="Helvetica,sans-Serif" font-size="10.00">/JAISeqMgr/func_802A1AF4.s</text>
</a>
</g>
</g>
<!-- Node1&#45;&gt;Node25 -->
<g id="edge29" class="edge">
<title>Node1&#45;&gt;Node25</title>
<path fill="none" stroke="#63b8ff" d="M1804.92,-527.53C1770.6,-517.6 1724.02,-504.07 1683,-492 1674.98,-489.64 1666.54,-487.14 1658.22,-484.68"/>
<polygon fill="#63b8ff" stroke="#63b8ff" points="1659.43,-481.39 1648.85,-481.89 1657.44,-488.1 1659.43,-481.39"/>
</g>
<!-- Node26 -->
<g id="node26" class="node">
<title>Node26</title>
<g id="a_node26"><a xlink:title=" ">
<polygon fill="#e0e0e0" stroke="#999999" points="1840,-481 1692,-481 1692,-451 1840,-451 1840,-481"/>
<text text-anchor="start" x="1700" y="-469" font-family="Helvetica,sans-Serif" font-size="10.00">asm/JSystem/JAudio2</text>
<text text-anchor="middle" x="1766" y="-458" font-family="Helvetica,sans-Serif" font-size="10.00">/JAISeqMgr/func_802A1B48.s</text>
</a>
</g>
</g>
<!-- Node1&#45;&gt;Node26 -->
<g id="edge30" class="edge">
<title>Node1&#45;&gt;Node26</title>
<path fill="none" stroke="#63b8ff" d="M1837.84,-527.54C1824.79,-516.54 1806.62,-501.23 1791.81,-488.75"/>
<polygon fill="#63b8ff" stroke="#63b8ff" points="1794.17,-486.16 1784.26,-482.39 1789.66,-491.51 1794.17,-486.16"/>
</g>
<!-- Node27 -->
<g id="node27" class="node">
<title>Node27</title>
<g id="a_node27"><a xlink:title=" ">
<polygon fill="#e0e0e0" stroke="#999999" points="2031.5,-481 1858.5,-481 1858.5,-451 2031.5,-451 2031.5,-481"/>
<text text-anchor="start" x="1866.5" y="-469" font-family="Helvetica,sans-Serif" font-size="10.00">asm/JSystem/JAudio2</text>
<text text-anchor="middle" x="1945" y="-458" font-family="Helvetica,sans-Serif" font-size="10.00">/JAISeqMgr/calc__9JAISeqMgrFv.s</text>
</a>
</g>
</g>
<!-- Node1&#45;&gt;Node27 -->
<g id="edge31" class="edge">
<title>Node1&#45;&gt;Node27</title>
<path fill="none" stroke="#63b8ff" d="M1872.35,-527.54C1885.55,-516.54 1903.93,-501.23 1918.9,-488.75"/>
<polygon fill="#63b8ff" stroke="#63b8ff" points="1921.1,-491.48 1926.54,-482.39 1916.61,-486.1 1921.1,-491.48"/>
</g>
<!-- Node28 -->
<g id="node28" class="node">
<title>Node28</title>
<g id="a_node28"><a xlink:title=" ">
<polygon fill="#e0e0e0" stroke="#999999" points="2222.5,-481 2049.5,-481 2049.5,-451 2222.5,-451 2222.5,-481"/>
<text text-anchor="start" x="2057.5" y="-469" font-family="Helvetica,sans-Serif" font-size="10.00">asm/JSystem/JAudio2</text>
<text text-anchor="middle" x="2136" y="-458" font-family="Helvetica,sans-Serif" font-size="10.00">/JAISeqMgr/stop__9JAISeqMgrFv.s</text>
</a>
</g>
</g>
<!-- Node1&#45;&gt;Node28 -->
<g id="edge32" class="edge">
<title>Node1&#45;&gt;Node28</title>
<path fill="none" stroke="#63b8ff" d="M1909.18,-527.54C1955.44,-515.19 2022.08,-497.4 2071.17,-484.3"/>
<polygon fill="#63b8ff" stroke="#63b8ff" points="2071.77,-487.77 2080.52,-481.81 2069.96,-481 2071.77,-487.77"/>
</g>
<!-- Node29 -->
<g id="node29" class="node">
<title>Node29</title>
<g id="a_node29"><a xlink:title=" ">
<polygon fill="#e0e0e0" stroke="#999999" points="2395.5,-486.5 2240.5,-486.5 2240.5,-445.5 2395.5,-445.5 2395.5,-486.5"/>
<text text-anchor="start" x="2248.5" y="-474.5" font-family="Helvetica,sans-Serif" font-size="10.00">asm/JSystem/JAudio2</text>
<text text-anchor="start" x="2248.5" y="-463.5" font-family="Helvetica,sans-Serif" font-size="10.00">/JAISeqMgr/stop__9JAISeqMgr</text>
<text text-anchor="middle" x="2318" y="-452.5" font-family="Helvetica,sans-Serif" font-size="10.00">FUl.s</text>
</a>
</g>
</g>
<!-- Node1&#45;&gt;Node29 -->
<g id="edge33" class="edge">
<title>Node1&#45;&gt;Node29</title>
<path fill="none" stroke="#63b8ff" d="M1910.7,-537.27C1984.66,-530.38 2119.09,-515.76 2232,-492 2235.39,-491.29 2238.84,-490.51 2242.32,-489.68"/>
<polygon fill="#63b8ff" stroke="#63b8ff" points="2243.14,-493.08 2251.99,-487.26 2241.44,-486.29 2243.14,-493.08"/>
</g>
<!-- Node30 -->
<g id="node30" class="node">
<title>Node30</title>
<g id="a_node30"><a xlink:title=" ">
<polygon fill="#e0e0e0" stroke="#999999" points="2572,-486.5 2414,-486.5 2414,-445.5 2572,-445.5 2572,-486.5"/>
<text text-anchor="start" x="2422" y="-474.5" font-family="Helvetica,sans-Serif" font-size="10.00">asm/JSystem/JAudio2</text>
<text text-anchor="start" x="2422" y="-463.5" font-family="Helvetica,sans-Serif" font-size="10.00">/JAISeqMgr/stopSoundID</text>
<text text-anchor="middle" x="2493" y="-452.5" font-family="Helvetica,sans-Serif" font-size="10.00">__9JAISeqMgrF10JAISoundID.s</text>
</a>
</g>
</g>
<!-- Node1&#45;&gt;Node30 -->
<g id="edge34" class="edge">
<title>Node1&#45;&gt;Node30</title>
<path fill="none" stroke="#63b8ff" d="M1910.9,-540.35C2010.82,-536.64 2226.37,-525.19 2405,-492 2408.86,-491.28 2412.8,-490.47 2416.77,-489.59"/>
<polygon fill="#63b8ff" stroke="#63b8ff" points="2417.57,-492.99 2426.49,-487.28 2415.95,-486.18 2417.57,-492.99"/>
</g>
<!-- Node31 -->
<g id="node31" class="node">
<title>Node31</title>
<g id="a_node31"><a xlink:title=" ">
<polygon fill="#e0e0e0" stroke="#999999" points="2740,-486.5 2590,-486.5 2590,-445.5 2740,-445.5 2740,-486.5"/>
<text text-anchor="start" x="2598" y="-474.5" font-family="Helvetica,sans-Serif" font-size="10.00">asm/JSystem/JAudio2</text>
<text text-anchor="start" x="2598" y="-463.5" font-family="Helvetica,sans-Serif" font-size="10.00">/JAISeqMgr/mixOut__9JAISeq</text>
<text text-anchor="middle" x="2665" y="-452.5" font-family="Helvetica,sans-Serif" font-size="10.00">MgrFv.s</text>
</a>
</g>
</g>
<!-- Node1&#45;&gt;Node31 -->
<g id="edge35" class="edge">
<title>Node1&#45;&gt;Node31</title>
<path fill="none" stroke="#63b8ff" d="M1910.61,-542.32C2032.89,-542.14 2333.91,-536.71 2581,-492 2584.78,-491.32 2588.64,-490.52 2592.51,-489.65"/>
<polygon fill="#63b8ff" stroke="#63b8ff" points="2593.08,-493.11 2601.97,-487.36 2591.43,-486.31 2593.08,-493.11"/>
</g>
<!-- Node32 -->
<g id="node32" class="node">
<title>Node32</title>
<g id="a_node32"><a xlink:title=" ">
<polygon fill="#e0e0e0" stroke="#999999" points="2891.5,-486.5 2758.5,-486.5 2758.5,-445.5 2891.5,-445.5 2891.5,-486.5"/>
<text text-anchor="start" x="2766.5" y="-474.5" font-family="Helvetica,sans-Serif" font-size="10.00">asm/JSystem/JAudio2</text>
<text text-anchor="start" x="2766.5" y="-463.5" font-family="Helvetica,sans-Serif" font-size="10.00">/JAISeqMgr/beginStartSeq</text>
<text text-anchor="middle" x="2825" y="-452.5" font-family="Helvetica,sans-Serif" font-size="10.00">___9JAISeqMgrFv.s</text>
</a>
</g>
</g>
<!-- Node1&#45;&gt;Node32 -->
<g id="edge36" class="edge">
<title>Node1&#45;&gt;Node32</title>
<path fill="none" stroke="#63b8ff" d="M1910.8,-540.79C2080.25,-536.81 2587.09,-522.61 2749,-492 2752.37,-491.36 2755.8,-490.62 2759.24,-489.79"/>
<polygon fill="#63b8ff" stroke="#63b8ff" points="2760,-493.21 2768.77,-487.27 2758.21,-486.44 2760,-493.21"/>
</g>
<!-- Node33 -->
<g id="node33" class="node">
<title>Node33</title>
<g id="a_node33"><a xlink:title=" ">
<polygon fill="#e0e0e0" stroke="#999999" points="3106.5,-492 2909.5,-492 2909.5,-440 3106.5,-440 3106.5,-492"/>
<text text-anchor="start" x="2917.5" y="-480" font-family="Helvetica,sans-Serif" font-size="10.00">asm/JSystem/JAudio2</text>
<text text-anchor="start" x="2917.5" y="-469" font-family="Helvetica,sans-Serif" font-size="10.00">/JAISeqMgr/endStartSeq</text>
<text text-anchor="start" x="2917.5" y="-458" font-family="Helvetica,sans-Serif" font-size="10.00">___9JAISeqMgrFP6JAISeqP14JAISound</text>
<text text-anchor="middle" x="3008" y="-447" font-family="Helvetica,sans-Serif" font-size="10.00">Handle.s</text>
</a>
</g>
</g>
<!-- Node1&#45;&gt;Node33 -->
<g id="edge37" class="edge">
<title>Node1&#45;&gt;Node33</title>
<path fill="none" stroke="#63b8ff" d="M1910.69,-540.67C2095,-536.08 2685.13,-519.68 2897.67,-492.32"/>
<polygon fill="#63b8ff" stroke="#63b8ff" points="2898.07,-495.79 2907.52,-491 2897.14,-488.86 2898.07,-495.79"/>
</g>
<!-- Node34 -->
<g id="node34" class="node">
<title>Node34</title>
<g id="a_node34"><a xlink:title=" ">
<polygon fill="#e0e0e0" stroke="#999999" points="3297.5,-481 3124.5,-481 3124.5,-451 3297.5,-451 3297.5,-481"/>
<text text-anchor="start" x="3132.5" y="-469" font-family="Helvetica,sans-Serif" font-size="10.00">asm/JSystem/JAudio2</text>
<text text-anchor="middle" x="3211" y="-458" font-family="Helvetica,sans-Serif" font-size="10.00">/JAISeqMgr/__dt__9JAISeqMgrFv.s</text>
</a>
</g>
</g>
<!-- Node1&#45;&gt;Node34 -->
<g id="edge38" class="edge">
<title>Node1&#45;&gt;Node34</title>
<path fill="none" stroke="#63b8ff" d="M1910.81,-541.4C2122.86,-538.88 2878.46,-527.53 3116,-492 3128.27,-490.16 3141.23,-487.35 3153.51,-484.27"/>
<polygon fill="#63b8ff" stroke="#63b8ff" points="3154.3,-487.68 3163.09,-481.77 3152.53,-480.91 3154.3,-487.68"/>
</g>
<!-- Node3 -->
<g id="node3" class="node">
<title>Node3</title>
<g id="a_node3"><a xlink:href="JAISeqDataMgr_8h.html" target="_top" xlink:title=" ">
<polygon fill="white" stroke="#666666" points="435.5,-404 286.5,-404 286.5,-374 435.5,-374 435.5,-404"/>
<text text-anchor="start" x="294.5" y="-392" font-family="Helvetica,sans-Serif" font-size="10.00">JSystem/JAudio2/JAISeqData</text>
<text text-anchor="middle" x="361" y="-381" font-family="Helvetica,sans-Serif" font-size="10.00">Mgr.h</text>
</a>
</g>
</g>
<!-- Node2&#45;&gt;Node3 -->
<g id="edge2" class="edge">
<title>Node2&#45;&gt;Node3</title>
<path fill="none" stroke="#63b8ff" d="M549.61,-456.1C516.03,-444.33 456.05,-423.31 412.73,-408.13"/>
<polygon fill="#63b8ff" stroke="#63b8ff" points="414.12,-404.91 403.53,-404.91 411.81,-411.52 414.12,-404.91"/>
</g>
<!-- Node17 -->
<g id="node17" class="node">
<title>Node17</title>
<g id="a_node17"><a xlink:href="JASGadget_8h.html" target="_top" xlink:title=" ">
<polygon fill="white" stroke="#666666" points="652,-398.5 498,-398.5 498,-379.5 652,-379.5 652,-398.5"/>
<text text-anchor="middle" x="575" y="-386.5" font-family="Helvetica,sans-Serif" font-size="10.00">JSystem/JAudio2/JASGadget.h</text>
</a>
</g>
</g>
<!-- Node2&#45;&gt;Node17 -->
<g id="edge19" class="edge">
<title>Node2&#45;&gt;Node17</title>
<path fill="none" stroke="#63b8ff" d="M575,-456.1C575,-444.83 575,-425.05 575,-410.06"/>
<polygon fill="#63b8ff" stroke="#63b8ff" points="578.5,-410.4 575,-400.4 571.5,-410.4 578.5,-410.4"/>
</g>
<!-- Node19 -->
<g id="node19" class="node">
<title>Node19</title>
<g id="a_node19"><a xlink:href="JSUList_8h.html" target="_top" xlink:title=" ">
<polygon fill="white" stroke="#666666" points="751.5,-338 608.5,-338 608.5,-319 751.5,-319 751.5,-338"/>
<text text-anchor="middle" x="680" y="-326" font-family="Helvetica,sans-Serif" font-size="10.00">JSystem/JSupport/JSUList.h</text>
</a>
</g>
</g>
<!-- Node2&#45;&gt;Node19 -->
<g id="edge22" class="edge">
<title>Node2&#45;&gt;Node19</title>
<path fill="none" stroke="#63b8ff" d="M594.85,-456.07C614.6,-446.16 644.32,-428.29 661,-404 672.21,-387.68 676.81,-365.26 678.69,-349.28"/>
<polygon fill="#63b8ff" stroke="#63b8ff" points="682.15,-349.88 679.56,-339.61 675.18,-349.25 682.15,-349.88"/>
</g>
<!-- Node4 -->
<g id="node4" class="node">
<title>Node4</title>
<g id="a_node4"><a xlink:href="JAISound_8h.html" target="_top" xlink:title=" ">
<polygon fill="white" stroke="#666666" points="405,-338 259,-338 259,-319 405,-319 405,-338"/>
<text text-anchor="middle" x="332" y="-326" font-family="Helvetica,sans-Serif" font-size="10.00">JSystem/JAudio2/JAISound.h</text>
</a>
</g>
</g>
<!-- Node3&#45;&gt;Node4 -->
<g id="edge3" class="edge">
<title>Node3&#45;&gt;Node4</title>
<path fill="none" stroke="#63b8ff" d="M353.83,-373.54C350.05,-365.91 345.36,-356.46 341.3,-348.27"/>
<polygon fill="#63b8ff" stroke="#63b8ff" points="344.55,-346.94 336.97,-339.53 338.28,-350.05 344.55,-346.94"/>
</g>
<!-- Node5 -->
<g id="node5" class="node">
<title>Node5</title>
<g id="a_node5"><a xlink:href="JAISoundParams_8h.html" target="_top" xlink:title=" ">
<polygon fill="white" stroke="#666666" points="492.5,-283 353.5,-283 353.5,-253 492.5,-253 492.5,-283"/>
<text text-anchor="start" x="361.5" y="-271" font-family="Helvetica,sans-Serif" font-size="10.00">JSystem/JAudio2/JAISound</text>
<text text-anchor="middle" x="423" y="-260" font-family="Helvetica,sans-Serif" font-size="10.00">Params.h</text>
</a>
</g>
</g>
<!-- Node4&#45;&gt;Node5 -->
<g id="edge4" class="edge">
<title>Node4&#45;&gt;Node5</title>
<path fill="none" stroke="#63b8ff" d="M345.82,-318.62C357.84,-310.89 375.73,-299.39 391.25,-289.41"/>
<polygon fill="#63b8ff" stroke="#63b8ff" points="392.75,-292.61 399.27,-284.26 388.96,-286.72 392.75,-292.61"/>
</g>
<!-- Node9 -->
<g id="node9" class="node">
<title>Node9</title>
<g id="a_node9"><a xlink:href="JAIAudible_8h.html" target="_top" xlink:title=" ">
<polygon fill="white" stroke="#666666" points="236.5,-277.5 85.5,-277.5 85.5,-258.5 236.5,-258.5 236.5,-277.5"/>
<text text-anchor="middle" x="161" y="-265.5" font-family="Helvetica,sans-Serif" font-size="10.00">JSystem/JAudio2/JAIAudible.h</text>
</a>
</g>
</g>
<!-- Node4&#45;&gt;Node9 -->
<g id="edge8" class="edge">
<title>Node4&#45;&gt;Node9</title>
<path fill="none" stroke="#63b8ff" d="M306.03,-318.62C277.28,-308.78 230.7,-292.84 198.11,-281.69"/>
<polygon fill="#63b8ff" stroke="#63b8ff" points="199.24,-278.38 188.65,-278.46 196.98,-285.01 199.24,-278.38"/>
</g>
<!-- Node16 -->
<g id="node16" class="node">
<title>Node16</title>
<g id="a_node16"><a xlink:href="global_8h.html" target="_top" xlink:title=" ">
<polygon fill="white" stroke="#666666" points="335,-277.5 285,-277.5 285,-258.5 335,-258.5 335,-277.5"/>
<text text-anchor="middle" x="310" y="-265.5" font-family="Helvetica,sans-Serif" font-size="10.00">global.h</text>
</a>
</g>
</g>
<!-- Node4&#45;&gt;Node16 -->
<g id="edge17" class="edge">
<title>Node4&#45;&gt;Node16</title>
<path fill="none" stroke="#63b8ff" d="M328.75,-318.87C325.73,-310.83 321.12,-298.57 317.23,-288.22"/>
<polygon fill="#63b8ff" stroke="#63b8ff" points="320.59,-287.21 313.79,-279.08 314.04,-289.68 320.59,-287.21"/>
</g>
<!-- Node6 -->
<g id="node6" class="node">
<title>Node6</title>
<g id="a_node6"><a xlink:href="JASSoundParams_8h.html" target="_top" xlink:title=" ">
<polygon fill="white" stroke="#666666" points="487.5,-217 344.5,-217 344.5,-187 487.5,-187 487.5,-217"/>
<text text-anchor="start" x="352.5" y="-205" font-family="Helvetica,sans-Serif" font-size="10.00">JSystem/JAudio2/JASSound</text>
<text text-anchor="middle" x="416" y="-194" font-family="Helvetica,sans-Serif" font-size="10.00">Params.h</text>
</a>
</g>
</g>
<!-- Node5&#45;&gt;Node6 -->
<g id="edge5" class="edge">
<title>Node5&#45;&gt;Node6</title>
<path fill="none" stroke="#63b8ff" d="M421.45,-252.8C420.67,-245.67 419.7,-236.82 418.8,-228.56"/>
<polygon fill="#63b8ff" stroke="#63b8ff" points="422.28,-228.23 417.71,-218.67 415.32,-228.99 422.28,-228.23"/>
</g>
<!-- Node7 -->
<g id="node7" class="node">
<title>Node7</title>
<g id="a_node7"><a xlink:href="types_8h.html" target="_top" xlink:title=" ">
<polygon fill="white" stroke="#666666" points="456.5,-90.5 375.5,-90.5 375.5,-71.5 456.5,-71.5 456.5,-90.5"/>
<text text-anchor="middle" x="416" y="-78.5" font-family="Helvetica,sans-Serif" font-size="10.00">dolphin/types.h</text>
</a>
</g>
</g>
<!-- Node6&#45;&gt;Node7 -->
<g id="edge6" class="edge">
<title>Node6&#45;&gt;Node7</title>
<path fill="none" stroke="#63b8ff" d="M416,-186.88C416,-165.8 416,-126 416,-101.95"/>
<polygon fill="#63b8ff" stroke="#63b8ff" points="419.5,-102.22 416,-92.22 412.5,-102.22 419.5,-102.22"/>
</g>
<!-- Node8 -->
<g id="node8" class="node">
<title>Node8</title>
<g id="a_node8"><a xlink:href="stddef_8h.html" target="_top" xlink:title=" ">
<polygon fill="white" stroke="#666666" points="484,-30 348,-30 348,0 484,0 484,-30"/>
<text text-anchor="start" x="356" y="-18" font-family="Helvetica,sans-Serif" font-size="10.00">MSL_C/MSL_Common/Src</text>
<text text-anchor="middle" x="416" y="-7" font-family="Helvetica,sans-Serif" font-size="10.00">/stddef.h</text>
</a>
</g>
</g>
<!-- Node7&#45;&gt;Node8 -->
<g id="edge7" class="edge">
<title>Node7&#45;&gt;Node8</title>
<path fill="none" stroke="#63b8ff" d="M416,-71.1C416,-63.41 416,-51.92 416,-41.42"/>
<polygon fill="#63b8ff" stroke="#63b8ff" points="419.5,-41.75 416,-31.75 412.5,-41.75 419.5,-41.75"/>
</g>
<!-- Node10 -->
<g id="node10" class="node">
<title>Node10</title>
<g id="a_node10"><a xlink:href="JGeometry_8h.html" target="_top" xlink:title=" ">
<polygon fill="white" stroke="#666666" points="208.5,-211.5 95.5,-211.5 95.5,-192.5 208.5,-192.5 208.5,-211.5"/>
<text text-anchor="middle" x="152" y="-199.5" font-family="Helvetica,sans-Serif" font-size="10.00">JSystem/JGeometry.h</text>
</a>
</g>
</g>
<!-- Node9&#45;&gt;Node10 -->
<g id="edge9" class="edge">
<title>Node9&#45;&gt;Node10</title>
<path fill="none" stroke="#63b8ff" d="M159.75,-258.1C158.49,-249.12 156.49,-234.95 154.84,-223.22"/>
<polygon fill="#63b8ff" stroke="#63b8ff" points="158.31,-222.74 153.45,-213.32 151.38,-223.71 158.31,-222.74"/>
</g>
<!-- Node11 -->
<g id="node11" class="node">
<title>Node11</title>
<g id="a_node11"><a xlink:href="vec_8h.html" target="_top" xlink:title=" ">
<polygon fill="white" stroke="#666666" points="288,-151 196,-151 196,-132 288,-132 288,-151"/>
<text text-anchor="middle" x="242" y="-139" font-family="Helvetica,sans-Serif" font-size="10.00">dolphin/mtx/vec.h</text>
</a>
</g>
</g>
<!-- Node10&#45;&gt;Node11 -->
<g id="edge10" class="edge">
<title>Node10&#45;&gt;Node11</title>
<path fill="none" stroke="#63b8ff" d="M165.67,-192.12C179.81,-182.92 202.14,-168.41 219.01,-157.44"/>
<polygon fill="#63b8ff" stroke="#63b8ff" points="220.46,-160.68 226.93,-152.29 216.64,-154.81 220.46,-160.68"/>
</g>
<!-- Node12 -->
<g id="node12" class="node">
<title>Node12</title>
<g id="a_node12"><a xlink:href="float_8h.html" target="_top" xlink:title=" ">
<polygon fill="white" stroke="#666666" points="78,-151 0,-151 0,-132 78,-132 78,-151"/>
<text text-anchor="middle" x="39" y="-139" font-family="Helvetica,sans-Serif" font-size="10.00">MSL_C/float.h</text>
</a>
</g>
</g>
<!-- Node10&#45;&gt;Node12 -->
<g id="edge12" class="edge">
<title>Node10&#45;&gt;Node12</title>
<path fill="none" stroke="#63b8ff" d="M134.84,-192.12C116.67,-182.71 87.72,-167.72 66.39,-156.68"/>
<polygon fill="#63b8ff" stroke="#63b8ff" points="68.16,-153.65 57.67,-152.16 64.94,-159.87 68.16,-153.65"/>
</g>
<!-- Node15 -->
<g id="node15" class="node">
<title>Node15</title>
<g id="a_node15"><a xlink:href="math_8h.html" target="_top" xlink:title=" ">
<polygon fill="white" stroke="#666666" points="178,-151 96,-151 96,-132 178,-132 178,-151"/>
<text text-anchor="middle" x="137" y="-139" font-family="Helvetica,sans-Serif" font-size="10.00">MSL_C/math.h</text>
</a>
</g>
</g>
<!-- Node10&#45;&gt;Node15 -->
<g id="edge15" class="edge">
<title>Node10&#45;&gt;Node15</title>
<path fill="none" stroke="#63b8ff" d="M149.79,-192.37C147.75,-184.42 144.65,-172.33 142.01,-162.05"/>
<polygon fill="#63b8ff" stroke="#63b8ff" points="145.47,-161.45 139.6,-152.63 138.69,-163.19 145.47,-161.45"/>
</g>
<!-- Node11&#45;&gt;Node7 -->
<g id="edge11" class="edge">
<title>Node11&#45;&gt;Node7</title>
<path fill="none" stroke="#63b8ff" d="M268.43,-131.62C297.81,-121.74 345.49,-105.71 378.67,-94.55"/>
<polygon fill="#63b8ff" stroke="#63b8ff" points="379.53,-97.96 387.89,-91.45 377.3,-91.32 379.53,-97.96"/>
</g>
<!-- Node13 -->
<g id="node13" class="node">
<title>Node13</title>
<g id="a_node13"><a xlink:href="MSL__Common_2Src_2float_8h.html" target="_top" xlink:title=" ">
<polygon fill="white" stroke="#666666" points="156,-96 20,-96 20,-66 156,-66 156,-96"/>
<text text-anchor="start" x="28" y="-84" font-family="Helvetica,sans-Serif" font-size="10.00">MSL_C/MSL_Common/Src</text>
<text text-anchor="middle" x="88" y="-73" font-family="Helvetica,sans-Serif" font-size="10.00">/float.h</text>
</a>
</g>
</g>
<!-- Node12&#45;&gt;Node13 -->
<g id="edge13" class="edge">
<title>Node12&#45;&gt;Node13</title>
<path fill="none" stroke="#63b8ff" d="M46.23,-131.87C52.2,-124.74 60.96,-114.28 68.91,-104.79"/>
<polygon fill="#63b8ff" stroke="#63b8ff" points="71.47,-107.19 75.21,-97.27 66.1,-102.69 71.47,-107.19"/>
</g>
<!-- Node14 -->
<g id="node14" class="node">
<title>Node14</title>
<g id="a_node14"><a xlink:href="fdlibm_8h.html" target="_top" xlink:title=" ">
<polygon fill="white" stroke="#666666" points="113,-24.5 63,-24.5 63,-5.5 113,-5.5 113,-24.5"/>
<text text-anchor="middle" x="88" y="-12.5" font-family="Helvetica,sans-Serif" font-size="10.00">fdlibm.h</text>
</a>
</g>
</g>
<!-- Node13&#45;&gt;Node14 -->
<g id="edge14" class="edge">
<title>Node13&#45;&gt;Node14</title>
<path fill="none" stroke="#63b8ff" d="M88,-65.8C88,-57.09 88,-45.81 88,-36.18"/>
<polygon fill="#63b8ff" stroke="#63b8ff" points="91.5,-36.36 88,-26.36 84.5,-36.36 91.5,-36.36"/>
</g>
<!-- Node15&#45;&gt;Node13 -->
<g id="edge16" class="edge">
<title>Node15&#45;&gt;Node13</title>
<path fill="none" stroke="#63b8ff" d="M129.77,-131.87C123.8,-124.74 115.04,-114.28 107.09,-104.79"/>
<polygon fill="#63b8ff" stroke="#63b8ff" points="109.9,-102.69 100.79,-97.27 104.53,-107.19 109.9,-102.69"/>
</g>
<!-- Node16&#45;&gt;Node7 -->
<g id="edge18" class="edge">
<title>Node16&#45;&gt;Node7</title>
<path fill="none" stroke="#63b8ff" d="M311.68,-258.2C314.81,-243.04 322.37,-211.27 335,-187 352.71,-152.98 381.68,-118.76 399.75,-99.02"/>
<polygon fill="#63b8ff" stroke="#63b8ff" points="402.13,-101.59 406.39,-91.89 397.01,-96.82 402.13,-101.59"/>
</g>
<!-- Node18 -->
<g id="node18" class="node">
<title>Node18</title>
<g id="a_node18"><a xlink:href="JUTAssert_8h.html" target="_top" xlink:title=" ">
<polygon fill="white" stroke="#666666" points="652,-211.5 506,-211.5 506,-192.5 652,-192.5 652,-211.5"/>
<text text-anchor="middle" x="579" y="-199.5" font-family="Helvetica,sans-Serif" font-size="10.00">JSystem/JUtility/JUTAssert.h</text>
</a>
</g>
</g>
<!-- Node17&#45;&gt;Node18 -->
<g id="edge20" class="edge">
<title>Node17&#45;&gt;Node18</title>
<path fill="none" stroke="#63b8ff" d="M575.19,-379.08C575.8,-350.87 577.7,-263.15 578.56,-223.2"/>
<polygon fill="#63b8ff" stroke="#63b8ff" points="582.06,-223.42 578.78,-213.35 575.06,-223.27 582.06,-223.42"/>
</g>
<!-- Node18&#45;&gt;Node7 -->
<g id="edge21" class="edge">
<title>Node18&#45;&gt;Node7</title>
<path fill="none" stroke="#63b8ff" d="M566.75,-192.06C539.12,-171.89 471.69,-122.65 437.15,-97.44"/>
<polygon fill="#63b8ff" stroke="#63b8ff" points="439.31,-94.69 429.17,-91.62 435.19,-100.34 439.31,-94.69"/>
</g>
<!-- Node19&#45;&gt;Node7 -->
<g id="edge23" class="edge">
<title>Node19&#45;&gt;Node7</title>
<path fill="none" stroke="#63b8ff" d="M681.52,-318.83C685.16,-295.03 691.99,-227.75 661,-187 614.48,-125.83 525.23,-99.84 468.25,-89.12"/>
<polygon fill="#63b8ff" stroke="#63b8ff" points="468.91,-85.69 458.45,-87.38 467.68,-92.58 468.91,-85.69"/>
</g>
</g>
</svg>
