<?xml version="1.0" encoding="UTF-8" standalone="no"?>
<!DOCTYPE svg PUBLIC "-//W3C//DTD SVG 1.1//EN"
 "http://www.w3.org/Graphics/SVG/1.1/DTD/svg11.dtd">
<!-- Generated by graphviz version 7.0.5 (20221223.1930)
 -->
<!-- Title: libs/JSystem/JAudio2/JAISoundStarter.cpp Pages: 1 -->
<svg width="594pt" height="489pt"
 viewBox="0.00 0.00 594.08 489.00" xmlns="http://www.w3.org/2000/svg" xmlns:xlink="http://www.w3.org/1999/xlink">
<g id="graph0" class="graph" transform="scale(1 1) rotate(0) translate(4 485)">
<title>libs/JSystem/JAudio2/JAISoundStarter.cpp</title>
<!-- Node1 -->
<g id="node1" class="node">
<title>Node1</title>
<g id="a_node1"><a xlink:title=" ">
<polygon fill="#999999" stroke="#666666" points="219.58,-481 108.58,-481 108.58,-451 219.58,-451 219.58,-481"/>
<text text-anchor="start" x="116.58" y="-469" font-family="Helvetica,sans-Serif" font-size="10.00">libs/JSystem/JAudio2</text>
<text text-anchor="middle" x="164.08" y="-458" font-family="Helvetica,sans-Serif" font-size="10.00">/JAISoundStarter.cpp</text>
</a>
</g>
</g>
<!-- Node2 -->
<g id="node2" class="node">
<title>Node2</title>
<g id="a_node2"><a xlink:href="JAISoundStarter_8h.html" target="_top" xlink:title=" ">
<polygon fill="white" stroke="#666666" points="174.58,-409.5 35.58,-409.5 35.58,-379.5 174.58,-379.5 174.58,-409.5"/>
<text text-anchor="start" x="43.58" y="-397.5" font-family="Helvetica,sans-Serif" font-size="10.00">JSystem/JAudio2/JAISound</text>
<text text-anchor="middle" x="105.08" y="-386.5" font-family="Helvetica,sans-Serif" font-size="10.00">Starter.h</text>
</a>
</g>
</g>
<!-- Node1&#45;&gt;Node2 -->
<g id="edge1" class="edge">
<title>Node1&#45;&gt;Node2</title>
<path fill="none" stroke="#63b8ff" d="M151.86,-450.6C144.03,-441.37 133.69,-429.19 124.72,-418.63"/>
<polygon fill="#63b8ff" stroke="#63b8ff" points="127.41,-416.39 118.27,-411.04 122.08,-420.92 127.41,-416.39"/>
</g>
<!-- Node6 -->
<g id="node6" class="node">
<title>Node6</title>
<g id="a_node6"><a xlink:href="types_8h.html" target="_top" xlink:title=" ">
<polygon fill="white" stroke="#666666" points="225.58,-90.5 144.58,-90.5 144.58,-71.5 225.58,-71.5 225.58,-90.5"/>
<text text-anchor="middle" x="185.08" y="-78.5" font-family="Helvetica,sans-Serif" font-size="10.00">dolphin/types.h</text>
</a>
</g>
</g>
<!-- Node1&#45;&gt;Node6 -->
<g id="edge22" class="edge">
<title>Node1&#45;&gt;Node6</title>
<path fill="none" stroke="#63b8ff" d="M108.17,-456.86C80.09,-450.07 47.57,-437.64 26.08,-415 -1.26,-386.19 0.08,-369.22 0.08,-329.5 0.08,-329.5 0.08,-329.5 0.08,-201 0.08,-137.23 78.81,-106.02 133.55,-92.02"/>
<polygon fill="#63b8ff" stroke="#63b8ff" points="134.12,-95.49 143.01,-89.73 132.47,-88.68 134.12,-95.49"/>
</g>
<!-- Node18 -->
<g id="node18" class="node">
<title>Node18</title>
<g id="a_node18"><a xlink:href="dol2asm_8h.html" target="_top" xlink:title=" ">
<polygon fill="white" stroke="#666666" points="253.58,-404 192.58,-404 192.58,-385 253.58,-385 253.58,-404"/>
<text text-anchor="middle" x="223.08" y="-392" font-family="Helvetica,sans-Serif" font-size="10.00">dol2asm.h</text>
</a>
</g>
</g>
<!-- Node1&#45;&gt;Node18 -->
<g id="edge21" class="edge">
<title>Node1&#45;&gt;Node18</title>
<path fill="none" stroke="#63b8ff" d="M176.31,-450.6C185.68,-439.56 198.65,-424.28 208.56,-412.61"/>
<polygon fill="#63b8ff" stroke="#63b8ff" points="210.93,-415.22 214.74,-405.33 205.6,-410.69 210.93,-415.22"/>
</g>
<!-- Node19 -->
<g id="node19" class="node">
<title>Node19</title>
<g id="a_node19"><a xlink:title=" ">
<polygon fill="#e0e0e0" stroke="#999999" points="386.58,-415 271.58,-415 271.58,-374 386.58,-374 386.58,-415"/>
<text text-anchor="start" x="279.58" y="-403" font-family="Helvetica,sans-Serif" font-size="10.00">asm/JSystem/JAudio2</text>
<text text-anchor="start" x="279.58" y="-392" font-family="Helvetica,sans-Serif" font-size="10.00">/JAISoundStarter/func</text>
<text text-anchor="middle" x="329.08" y="-381" font-family="Helvetica,sans-Serif" font-size="10.00">_802A2FEC.s</text>
</a>
</g>
</g>
<!-- Node1&#45;&gt;Node19 -->
<g id="edge23" class="edge">
<title>Node1&#45;&gt;Node19</title>
<path fill="none" stroke="#63b8ff" d="M198.27,-450.6C219.32,-441.73 246.85,-430.14 271.22,-419.87"/>
<polygon fill="#63b8ff" stroke="#63b8ff" points="272.55,-423.11 280.41,-416 269.83,-416.66 272.55,-423.11"/>
</g>
<!-- Node3 -->
<g id="node3" class="node">
<title>Node3</title>
<g id="a_node3"><a xlink:href="JAISound_8h.html" target="_top" xlink:title=" ">
<polygon fill="white" stroke="#666666" points="359.08,-338 213.08,-338 213.08,-319 359.08,-319 359.08,-338"/>
<text text-anchor="middle" x="286.08" y="-326" font-family="Helvetica,sans-Serif" font-size="10.00">JSystem/JAudio2/JAISound.h</text>
</a>
</g>
</g>
<!-- Node2&#45;&gt;Node3 -->
<g id="edge2" class="edge">
<title>Node2&#45;&gt;Node3</title>
<path fill="none" stroke="#63b8ff" d="M145.7,-379.14C177.08,-368.04 220.09,-352.84 250.2,-342.19"/>
<polygon fill="#63b8ff" stroke="#63b8ff" points="250.98,-345.62 259.24,-338.99 248.65,-339.02 250.98,-345.62"/>
</g>
<!-- Node16 -->
<g id="node16" class="node">
<title>Node16</title>
<g id="a_node16"><a xlink:href="JASGadget_8h.html" target="_top" xlink:title=" ">
<polygon fill="white" stroke="#666666" points="182.08,-338 28.08,-338 28.08,-319 182.08,-319 182.08,-338"/>
<text text-anchor="middle" x="105.08" y="-326" font-family="Helvetica,sans-Serif" font-size="10.00">JSystem/JAudio2/JASGadget.h</text>
</a>
</g>
</g>
<!-- Node2&#45;&gt;Node16 -->
<g id="edge18" class="edge">
<title>Node2&#45;&gt;Node16</title>
<path fill="none" stroke="#63b8ff" d="M105.08,-379.3C105.08,-370.59 105.08,-359.31 105.08,-349.68"/>
<polygon fill="#63b8ff" stroke="#63b8ff" points="108.58,-349.86 105.08,-339.86 101.58,-349.86 108.58,-349.86"/>
</g>
<!-- Node4 -->
<g id="node4" class="node">
<title>Node4</title>
<g id="a_node4"><a xlink:href="JAISoundParams_8h.html" target="_top" xlink:title=" ">
<polygon fill="white" stroke="#666666" points="369.58,-283 230.58,-283 230.58,-253 369.58,-253 369.58,-283"/>
<text text-anchor="start" x="238.58" y="-271" font-family="Helvetica,sans-Serif" font-size="10.00">JSystem/JAudio2/JAISound</text>
<text text-anchor="middle" x="300.08" y="-260" font-family="Helvetica,sans-Serif" font-size="10.00">Params.h</text>
</a>
</g>
</g>
<!-- Node3&#45;&gt;Node4 -->
<g id="edge3" class="edge">
<title>Node3&#45;&gt;Node4</title>
<path fill="none" stroke="#63b8ff" d="M288.15,-318.87C289.71,-312.33 291.95,-302.99 294.06,-294.15"/>
<polygon fill="#63b8ff" stroke="#63b8ff" points="297.43,-295.13 296.35,-284.59 290.62,-293.5 297.43,-295.13"/>
</g>
<!-- Node8 -->
<g id="node8" class="node">
<title>Node8</title>
<g id="a_node8"><a xlink:href="JAIAudible_8h.html" target="_top" xlink:title=" ">
<polygon fill="white" stroke="#666666" points="538.58,-277.5 387.58,-277.5 387.58,-258.5 538.58,-258.5 538.58,-277.5"/>
<text text-anchor="middle" x="463.08" y="-265.5" font-family="Helvetica,sans-Serif" font-size="10.00">JSystem/JAudio2/JAIAudible.h</text>
</a>
</g>
</g>
<!-- Node3&#45;&gt;Node8 -->
<g id="edge7" class="edge">
<title>Node3&#45;&gt;Node8</title>
<path fill="none" stroke="#63b8ff" d="M312.97,-318.62C342.86,-308.74 391.36,-292.71 425.11,-281.55"/>
<polygon fill="#63b8ff" stroke="#63b8ff" points="426.11,-284.9 434.51,-278.44 423.92,-278.26 426.11,-284.9"/>
</g>
<!-- Node15 -->
<g id="node15" class="node">
<title>Node15</title>
<g id="a_node15"><a xlink:href="global_8h.html" target="_top" xlink:title=" ">
<polygon fill="white" stroke="#666666" points="210.08,-211.5 160.08,-211.5 160.08,-192.5 210.08,-192.5 210.08,-211.5"/>
<text text-anchor="middle" x="185.08" y="-199.5" font-family="Helvetica,sans-Serif" font-size="10.00">global.h</text>
</a>
</g>
</g>
<!-- Node3&#45;&gt;Node15 -->
<g id="edge16" class="edge">
<title>Node3&#45;&gt;Node15</title>
<path fill="none" stroke="#63b8ff" d="M268.4,-318.61C254.34,-310.82 234.96,-298.34 222.08,-283 206.97,-264.99 196.67,-239.79 190.85,-222.51"/>
<polygon fill="#63b8ff" stroke="#63b8ff" points="194.27,-221.7 187.92,-213.21 187.59,-223.8 194.27,-221.7"/>
</g>
<!-- Node5 -->
<g id="node5" class="node">
<title>Node5</title>
<g id="a_node5"><a xlink:href="JASSoundParams_8h.html" target="_top" xlink:title=" ">
<polygon fill="white" stroke="#666666" points="371.58,-217 228.58,-217 228.58,-187 371.58,-187 371.58,-217"/>
<text text-anchor="start" x="236.58" y="-205" font-family="Helvetica,sans-Serif" font-size="10.00">JSystem/JAudio2/JASSound</text>
<text text-anchor="middle" x="300.08" y="-194" font-family="Helvetica,sans-Serif" font-size="10.00">Params.h</text>
</a>
</g>
</g>
<!-- Node4&#45;&gt;Node5 -->
<g id="edge4" class="edge">
<title>Node4&#45;&gt;Node5</title>
<path fill="none" stroke="#63b8ff" d="M300.08,-252.8C300.08,-245.67 300.08,-236.82 300.08,-228.56"/>
<polygon fill="#63b8ff" stroke="#63b8ff" points="303.58,-228.68 300.08,-218.68 296.58,-228.68 303.58,-228.68"/>
</g>
<!-- Node5&#45;&gt;Node6 -->
<g id="edge5" class="edge">
<title>Node5&#45;&gt;Node6</title>
<path fill="none" stroke="#63b8ff" d="M286.44,-186.88C265.13,-164.83 224.02,-122.29 201.25,-98.73"/>
<polygon fill="#63b8ff" stroke="#63b8ff" points="204.02,-96.56 194.55,-91.8 198.99,-101.42 204.02,-96.56"/>
</g>
<!-- Node7 -->
<g id="node7" class="node">
<title>Node7</title>
<g id="a_node7"><a xlink:href="stddef_8h.html" target="_top" xlink:title=" ">
<polygon fill="white" stroke="#666666" points="253.08,-30 117.08,-30 117.08,0 253.08,0 253.08,-30"/>
<text text-anchor="start" x="125.08" y="-18" font-family="Helvetica,sans-Serif" font-size="10.00">MSL_C/MSL_Common/Src</text>
<text text-anchor="middle" x="185.08" y="-7" font-family="Helvetica,sans-Serif" font-size="10.00">/stddef.h</text>
</a>
</g>
</g>
<!-- Node6&#45;&gt;Node7 -->
<g id="edge6" class="edge">
<title>Node6&#45;&gt;Node7</title>
<path fill="none" stroke="#63b8ff" d="M185.08,-71.1C185.08,-63.41 185.08,-51.92 185.08,-41.42"/>
<polygon fill="#63b8ff" stroke="#63b8ff" points="188.58,-41.75 185.08,-31.75 181.58,-41.75 188.58,-41.75"/>
</g>
<!-- Node9 -->
<g id="node9" class="node">
<title>Node9</title>
<g id="a_node9"><a xlink:href="JGeometry_8h.html" target="_top" xlink:title=" ">
<polygon fill="white" stroke="#666666" points="510.58,-211.5 397.58,-211.5 397.58,-192.5 510.58,-192.5 510.58,-211.5"/>
<text text-anchor="middle" x="454.08" y="-199.5" font-family="Helvetica,sans-Serif" font-size="10.00">JSystem/JGeometry.h</text>
</a>
</g>
</g>
<!-- Node8&#45;&gt;Node9 -->
<g id="edge8" class="edge">
<title>Node8&#45;&gt;Node9</title>
<path fill="none" stroke="#63b8ff" d="M461.83,-258.1C460.57,-249.12 458.58,-234.95 456.93,-223.22"/>
<polygon fill="#63b8ff" stroke="#63b8ff" points="460.39,-222.74 455.54,-213.32 453.46,-223.71 460.39,-222.74"/>
</g>
<!-- Node10 -->
<g id="node10" class="node">
<title>Node10</title>
<g id="a_node10"><a xlink:href="vec_8h.html" target="_top" xlink:title=" ">
<polygon fill="white" stroke="#666666" points="383.08,-151 291.08,-151 291.08,-132 383.08,-132 383.08,-151"/>
<text text-anchor="middle" x="337.08" y="-139" font-family="Helvetica,sans-Serif" font-size="10.00">dolphin/mtx/vec.h</text>
</a>
</g>
</g>
<!-- Node9&#45;&gt;Node10 -->
<g id="edge9" class="edge">
<title>Node9&#45;&gt;Node10</title>
<path fill="none" stroke="#63b8ff" d="M436.31,-192.12C417.42,-182.67 387.26,-167.59 365.15,-156.53"/>
<polygon fill="#63b8ff" stroke="#63b8ff" points="366.88,-153.49 356.37,-152.15 363.75,-159.75 366.88,-153.49"/>
</g>
<!-- Node11 -->
<g id="node11" class="node">
<title>Node11</title>
<g id="a_node11"><a xlink:href="float_8h.html" target="_top" xlink:title=" ">
<polygon fill="white" stroke="#666666" points="486.08,-151 408.08,-151 408.08,-132 486.08,-132 486.08,-151"/>
<text text-anchor="middle" x="447.08" y="-139" font-family="Helvetica,sans-Serif" font-size="10.00">MSL_C/float.h</text>
</a>
</g>
</g>
<!-- Node9&#45;&gt;Node11 -->
<g id="edge11" class="edge">
<title>Node9&#45;&gt;Node11</title>
<path fill="none" stroke="#63b8ff" d="M453.05,-192.37C452.11,-184.5 450.69,-172.6 449.46,-162.39"/>
<polygon fill="#63b8ff" stroke="#63b8ff" points="452.96,-162.18 448.3,-152.67 446.01,-163.02 452.96,-162.18"/>
</g>
<!-- Node14 -->
<g id="node14" class="node">
<title>Node14</title>
<g id="a_node14"><a xlink:href="math_8h.html" target="_top" xlink:title=" ">
<polygon fill="white" stroke="#666666" points="586.08,-151 504.08,-151 504.08,-132 586.08,-132 586.08,-151"/>
<text text-anchor="middle" x="545.08" y="-139" font-family="Helvetica,sans-Serif" font-size="10.00">MSL_C/math.h</text>
</a>
</g>
</g>
<!-- Node9&#45;&gt;Node14 -->
<g id="edge14" class="edge">
<title>Node9&#45;&gt;Node14</title>
<path fill="none" stroke="#63b8ff" d="M467.9,-192.12C482.2,-182.92 504.79,-168.41 521.84,-157.44"/>
<polygon fill="#63b8ff" stroke="#63b8ff" points="523.34,-160.64 529.86,-152.29 519.56,-154.75 523.34,-160.64"/>
</g>
<!-- Node10&#45;&gt;Node6 -->
<g id="edge10" class="edge">
<title>Node10&#45;&gt;Node6</title>
<path fill="none" stroke="#63b8ff" d="M314,-131.62C288.67,-121.87 247.76,-106.12 218.83,-94.99"/>
<polygon fill="#63b8ff" stroke="#63b8ff" points="220.39,-91.84 209.8,-91.51 217.87,-98.37 220.39,-91.84"/>
</g>
<!-- Node12 -->
<g id="node12" class="node">
<title>Node12</title>
<g id="a_node12"><a xlink:href="MSL__Common_2Src_2float_8h.html" target="_top" xlink:title=" ">
<polygon fill="white" stroke="#666666" points="564.08,-96 428.08,-96 428.08,-66 564.08,-66 564.08,-96"/>
<text text-anchor="start" x="436.08" y="-84" font-family="Helvetica,sans-Serif" font-size="10.00">MSL_C/MSL_Common/Src</text>
<text text-anchor="middle" x="496.08" y="-73" font-family="Helvetica,sans-Serif" font-size="10.00">/float.h</text>
</a>
</g>
</g>
<!-- Node11&#45;&gt;Node12 -->
<g id="edge12" class="edge">
<title>Node11&#45;&gt;Node12</title>
<path fill="none" stroke="#63b8ff" d="M454.31,-131.87C460.29,-124.74 469.04,-114.28 477,-104.79"/>
<polygon fill="#63b8ff" stroke="#63b8ff" points="479.55,-107.19 483.29,-97.27 474.19,-102.69 479.55,-107.19"/>
</g>
<!-- Node13 -->
<g id="node13" class="node">
<title>Node13</title>
<g id="a_node13"><a xlink:href="fdlibm_8h.html" target="_top" xlink:title=" ">
<polygon fill="white" stroke="#666666" points="521.08,-24.5 471.08,-24.5 471.08,-5.5 521.08,-5.5 521.08,-24.5"/>
<text text-anchor="middle" x="496.08" y="-12.5" font-family="Helvetica,sans-Serif" font-size="10.00">fdlibm.h</text>
</a>
</g>
</g>
<!-- Node12&#45;&gt;Node13 -->
<g id="edge13" class="edge">
<title>Node12&#45;&gt;Node13</title>
<path fill="none" stroke="#63b8ff" d="M496.08,-65.8C496.08,-57.09 496.08,-45.81 496.08,-36.18"/>
<polygon fill="#63b8ff" stroke="#63b8ff" points="499.58,-36.36 496.08,-26.36 492.58,-36.36 499.58,-36.36"/>
</g>
<!-- Node14&#45;&gt;Node12 -->
<g id="edge15" class="edge">
<title>Node14&#45;&gt;Node12</title>
<path fill="none" stroke="#63b8ff" d="M537.85,-131.87C531.88,-124.74 523.13,-114.28 515.17,-104.79"/>
<polygon fill="#63b8ff" stroke="#63b8ff" points="517.98,-102.69 508.88,-97.27 512.62,-107.19 517.98,-102.69"/>
</g>
<!-- Node15&#45;&gt;Node6 -->
<g id="edge17" class="edge">
<title>Node15&#45;&gt;Node6</title>
<path fill="none" stroke="#63b8ff" d="M185.08,-192.06C185.08,-173.1 185.08,-128.47 185.08,-102.23"/>
<polygon fill="#63b8ff" stroke="#63b8ff" points="188.58,-102.24 185.08,-92.24 181.58,-102.24 188.58,-102.24"/>
</g>
<!-- Node17 -->
<g id="node17" class="node">
<title>Node17</title>
<g id="a_node17"><a xlink:href="JUTAssert_8h.html" target="_top" xlink:title=" ">
<polygon fill="white" stroke="#666666" points="174.08,-277.5 28.08,-277.5 28.08,-258.5 174.08,-258.5 174.08,-277.5"/>
<text text-anchor="middle" x="101.08" y="-265.5" font-family="Helvetica,sans-Serif" font-size="10.00">JSystem/JUtility/JUTAssert.h</text>
</a>
</g>
</g>
<!-- Node16&#45;&gt;Node17 -->
<g id="edge19" class="edge">
<title>Node16&#45;&gt;Node17</title>
<path fill="none" stroke="#63b8ff" d="M104.49,-318.87C103.96,-311 103.14,-299.1 102.44,-288.89"/>
<polygon fill="#63b8ff" stroke="#63b8ff" points="105.95,-288.92 101.78,-279.18 98.97,-289.39 105.95,-288.92"/>
</g>
<!-- Node17&#45;&gt;Node6 -->
<g id="edge20" class="edge">
<title>Node17&#45;&gt;Node6</title>
<path fill="none" stroke="#63b8ff" d="M105.14,-258.08C118.05,-229.63 158.46,-140.63 176.38,-101.17"/>
<polygon fill="#63b8ff" stroke="#63b8ff" points="179.5,-102.76 180.45,-92.21 173.13,-99.87 179.5,-102.76"/>
</g>
</g>
</svg>
