<?xml version="1.0" encoding="UTF-8" standalone="no"?>
<!DOCTYPE svg PUBLIC "-//W3C//DTD SVG 1.1//EN"
 "http://www.w3.org/Graphics/SVG/1.1/DTD/svg11.dtd">
<!-- Generated by graphviz version 7.0.5 (20221223.1930)
 -->
<!-- Title: include/JSystem/JAudio2/JASAudioReseter.h Pages: 1 -->
<svg width="3433pt" height="478pt"
 viewBox="0.00 0.00 3433.21 478.00" xmlns="http://www.w3.org/2000/svg" xmlns:xlink="http://www.w3.org/1999/xlink">
<g id="graph0" class="graph" transform="scale(1 1) rotate(0) translate(4 474)">
<title>include/JSystem/JAudio2/JASAudioReseter.h</title>
<!-- Node1 -->
<g id="node1" class="node">
<title>Node1</title>
<g id="a_node1"><a xlink:title=" ">
<polygon fill="#999999" stroke="#666666" points="1019.71,-470 892.71,-470 892.71,-440 1019.71,-440 1019.71,-470"/>
<text text-anchor="start" x="900.71" y="-458" font-family="Helvetica,sans-Serif" font-size="10.00">include/JSystem/JAudio2</text>
<text text-anchor="middle" x="956.21" y="-447" font-family="Helvetica,sans-Serif" font-size="10.00">/JASAudioReseter.h</text>
</a>
</g>
</g>
<!-- Node2 -->
<g id="node2" class="node">
<title>Node2</title>
<g id="a_node2"><a xlink:href="Z2AudioMgr_8h.html" target="_top" xlink:title=" ">
<polygon fill="white" stroke="#666666" points="943.21,-404 843.21,-404 843.21,-374 943.21,-374 943.21,-404"/>
<text text-anchor="start" x="851.21" y="-392" font-family="Helvetica,sans-Serif" font-size="10.00">include/Z2AudioLib</text>
<text text-anchor="middle" x="893.21" y="-381" font-family="Helvetica,sans-Serif" font-size="10.00">/Z2AudioMgr.h</text>
</a>
</g>
</g>
<!-- Node1&#45;&gt;Node2 -->
<g id="edge1" class="edge">
<title>Node1&#45;&gt;Node2</title>
<path fill="none" stroke="#63b8ff" d="M934.36,-431.81C925.34,-422.64 915.14,-412.28 907.15,-404.16"/>
<polygon fill="#63b8ff" stroke="#63b8ff" points="931.66,-434.05 941.17,-438.72 936.64,-429.14 931.66,-434.05"/>
</g>
<!-- Node363 -->
<g id="node50" class="node">
<title>Node363</title>
<g id="a_node50"><a xlink:href="JASAudioReseter_8cpp.html" target="_top" xlink:title=" ">
<polygon fill="white" stroke="#666666" points="1076.71,-404 961.71,-404 961.71,-374 1076.71,-374 1076.71,-404"/>
<text text-anchor="start" x="969.71" y="-392" font-family="Helvetica,sans-Serif" font-size="10.00">libs/JSystem/JAudio2</text>
<text text-anchor="middle" x="1019.21" y="-381" font-family="Helvetica,sans-Serif" font-size="10.00">/JASAudioReseter.cpp</text>
</a>
</g>
</g>
<!-- Node1&#45;&gt;Node363 -->
<g id="edge72" class="edge">
<title>Node1&#45;&gt;Node363</title>
<path fill="none" stroke="#63b8ff" d="M978.05,-431.81C987.08,-422.64 997.28,-412.28 1005.27,-404.16"/>
<polygon fill="#63b8ff" stroke="#63b8ff" points="975.77,-429.14 971.25,-438.72 980.76,-434.05 975.77,-429.14"/>
</g>
<!-- Node3 -->
<g id="node3" class="node">
<title>Node3</title>
<g id="a_node3"><a xlink:href="m__Do__audio_8h.html" target="_top" xlink:title=" ">
<polygon fill="white" stroke="#666666" points="880.21,-338 740.21,-338 740.21,-319 880.21,-319 880.21,-338"/>
<text text-anchor="middle" x="810.21" y="-326" font-family="Helvetica,sans-Serif" font-size="10.00">include/m_Do/m_Do_audio.h</text>
</a>
</g>
</g>
<!-- Node2&#45;&gt;Node3 -->
<g id="edge2" class="edge">
<title>Node2&#45;&gt;Node3</title>
<path fill="none" stroke="#63b8ff" d="M863.35,-366.95C849.27,-357.03 833.25,-345.74 822.52,-338.18"/>
<polygon fill="#63b8ff" stroke="#63b8ff" points="861.26,-369.77 871.45,-372.67 865.3,-364.05 861.26,-369.77"/>
</g>
<!-- Node362 -->
<g id="node49" class="node">
<title>Node362</title>
<g id="a_node49"><a xlink:href="Z2AudioMgr_8cpp.html" target="_top" xlink:title=" ">
<polygon fill="white" stroke="#666666" points="1056.21,-338 898.21,-338 898.21,-319 1056.21,-319 1056.21,-338"/>
<text text-anchor="middle" x="977.21" y="-326" font-family="Helvetica,sans-Serif" font-size="10.00">libs/Z2AudioLib/Z2AudioMgr.cpp</text>
</a>
</g>
</g>
<!-- Node2&#45;&gt;Node362 -->
<g id="edge71" class="edge">
<title>Node2&#45;&gt;Node362</title>
<path fill="none" stroke="#63b8ff" d="M923.02,-367.24C937.36,-357.25 953.78,-345.82 964.75,-338.18"/>
<polygon fill="#63b8ff" stroke="#63b8ff" points="921.42,-364.09 915.21,-372.67 925.42,-369.83 921.42,-364.09"/>
</g>
<!-- Node4 -->
<g id="node4" class="node">
<title>Node4</title>
<g id="a_node4"><a xlink:href="m__Do__ext_8h.html" target="_top" xlink:title=" ">
<polygon fill="white" stroke="#666666" points="1475.21,-283 1345.21,-283 1345.21,-264 1475.21,-264 1475.21,-283"/>
<text text-anchor="middle" x="1410.21" y="-271" font-family="Helvetica,sans-Serif" font-size="10.00">include/m_Do/m_Do_ext.h</text>
</a>
</g>
</g>
<!-- Node3&#45;&gt;Node4 -->
<g id="edge3" class="edge">
<title>Node3&#45;&gt;Node4</title>
<path fill="none" stroke="#63b8ff" d="M891.82,-318.77C1061.43,-302.51 1248.19,-287.29 1344.78,-279.62"/>
<polygon fill="#63b8ff" stroke="#63b8ff" points="891.54,-315.28 881.92,-319.72 892.21,-322.25 891.54,-315.28"/>
</g>
<!-- Node9 -->
<g id="node7" class="node">
<title>Node9</title>
<g id="a_node7"><a xlink:href="d__com__inf__game_8cpp.html" target="_top" xlink:title=" ">
<polygon fill="white" stroke="#666666" points="766.21,-30 658.21,-30 658.21,0 766.21,0 766.21,-30"/>
<text text-anchor="start" x="666.21" y="-18" font-family="Helvetica,sans-Serif" font-size="10.00">src/d/com/d_com_inf</text>
<text text-anchor="middle" x="712.21" y="-7" font-family="Helvetica,sans-Serif" font-size="10.00">_game.cpp</text>
</a>
</g>
</g>
<!-- Node3&#45;&gt;Node9 -->
<g id="edge60" class="edge">
<title>Node3&#45;&gt;Node9</title>
<path fill="none" stroke="#63b8ff" d="M728.23,-325.66C576.79,-321.64 258.93,-310.17 152.21,-283 81.1,-264.89 2.21,-287.38 2.21,-214 2.21,-214 2.21,-214 2.21,-146 2.21,-109.46 -6.63,-89.68 21.21,-66 69.3,-25.08 503.48,-17.65 657.95,-16.3"/>
<polygon fill="#63b8ff" stroke="#63b8ff" points="728.12,-329.15 738.21,-325.91 728.3,-322.16 728.12,-329.15"/>
</g>
<!-- Node13 -->
<g id="node8" class="node">
<title>Node13</title>
<g id="a_node8"><a xlink:href="d__msg__flow_8cpp.html" target="_top" xlink:title=" ">
<polygon fill="white" stroke="#666666" points="2692.71,-24.5 2559.71,-24.5 2559.71,-5.5 2692.71,-5.5 2692.71,-24.5"/>
<text text-anchor="middle" x="2626.21" y="-12.5" font-family="Helvetica,sans-Serif" font-size="10.00">src/d/msg/d_msg_flow.cpp</text>
</a>
</g>
</g>
<!-- Node3&#45;&gt;Node13 -->
<g id="edge65" class="edge">
<title>Node3&#45;&gt;Node13</title>
<path fill="none" stroke="#63b8ff" d="M891.82,-318.9C1646.2,-271.08 1839.82,-329.56 2591.21,-283 2740.6,-273.74 3261.21,-363.68 3261.21,-214 3261.21,-214 3261.21,-214 3261.21,-146 3261.21,-108.88 3266.06,-89.36 3237.21,-66 3195.64,-32.35 2842.68,-20.72 2692.94,-17.27"/>
<polygon fill="#63b8ff" stroke="#63b8ff" points="891.66,-315.4 881.9,-319.54 892.11,-322.39 891.66,-315.4"/>
</g>
<!-- Node151 -->
<g id="node12" class="node">
<title>Node151</title>
<g id="a_node12"><a xlink:href="d__name_8cpp.html" target="_top" xlink:title=" ">
<polygon fill="white" stroke="#666666" points="124.21,-90.5 30.21,-90.5 30.21,-71.5 124.21,-71.5 124.21,-90.5"/>
<text text-anchor="middle" x="77.21" y="-78.5" font-family="Helvetica,sans-Serif" font-size="10.00">src/d/d_name.cpp</text>
</a>
</g>
</g>
<!-- Node3&#45;&gt;Node151 -->
<g id="edge61" class="edge">
<title>Node3&#45;&gt;Node151</title>
<path fill="none" stroke="#63b8ff" d="M728.71,-325.82C568.77,-321.93 225.31,-310.46 179.21,-283 105.58,-239.14 83.28,-123.23 78.37,-90.63"/>
<polygon fill="#63b8ff" stroke="#63b8ff" points="728.3,-329.31 738.38,-326.05 728.47,-322.31 728.3,-329.31"/>
</g>
<!-- Node161 -->
<g id="node13" class="node">
<title>Node161</title>
<g id="a_node13"><a xlink:href="d__event__manager_8cpp.html" target="_top" xlink:title=" ">
<polygon fill="white" stroke="#666666" points="1575.71,-96 1472.71,-96 1472.71,-66 1575.71,-66 1575.71,-96"/>
<text text-anchor="start" x="1480.71" y="-84" font-family="Helvetica,sans-Serif" font-size="10.00">src/d/event/d_event</text>
<text text-anchor="middle" x="1524.21" y="-73" font-family="Helvetica,sans-Serif" font-size="10.00">_manager.cpp</text>
</a>
</g>
</g>
<!-- Node3&#45;&gt;Node161 -->
<g id="edge62" class="edge">
<title>Node3&#45;&gt;Node161</title>
<path fill="none" stroke="#63b8ff" d="M891.87,-318.95C1031.7,-310.24 1717.61,-302.15 1779.21,-228 1787.73,-217.74 1786.89,-208.9 1779.21,-198 1751.74,-159.05 1721.9,-181.03 1678.21,-162 1631.53,-141.67 1579.37,-113.32 1549.3,-96.39"/>
<polygon fill="#63b8ff" stroke="#63b8ff" points="891.64,-315.46 881.91,-319.67 892.14,-322.44 891.64,-315.46"/>
</g>
<!-- Node165 -->
<g id="node14" class="node">
<title>Node165</title>
<g id="a_node14"><a xlink:href="d__kankyo__wether_8cpp.html" target="_top" xlink:title=" ">
<polygon fill="white" stroke="#666666" points="542.21,-96 426.21,-96 426.21,-66 542.21,-66 542.21,-96"/>
<text text-anchor="start" x="434.21" y="-84" font-family="Helvetica,sans-Serif" font-size="10.00">src/d/kankyo/d_kankyo</text>
<text text-anchor="middle" x="484.21" y="-73" font-family="Helvetica,sans-Serif" font-size="10.00">_wether.cpp</text>
</a>
</g>
</g>
<!-- Node3&#45;&gt;Node165 -->
<g id="edge64" class="edge">
<title>Node3&#45;&gt;Node165</title>
<path fill="none" stroke="#63b8ff" d="M728.64,-326.68C601.43,-324.4 362.25,-315.73 284.21,-283 249.62,-268.49 242.53,-258.14 220.21,-228 193.68,-192.18 162.28,-165.9 191.21,-132 224.22,-93.31 367.19,-105.2 417.21,-96 420.01,-95.48 422.88,-94.94 425.78,-94.38"/>
<polygon fill="#63b8ff" stroke="#63b8ff" points="728.28,-330.18 738.34,-326.85 728.4,-323.18 728.28,-330.18"/>
</g>
<!-- Node181 -->
<g id="node15" class="node">
<title>Node181</title>
<g id="a_node15"><a xlink:href="d__s__name_8cpp.html" target="_top" xlink:title=" ">
<polygon fill="white" stroke="#666666" points="255.71,-90.5 142.71,-90.5 142.71,-71.5 255.71,-71.5 255.71,-90.5"/>
<text text-anchor="middle" x="199.21" y="-78.5" font-family="Helvetica,sans-Serif" font-size="10.00">src/d/s/d_s_name.cpp</text>
</a>
</g>
</g>
<!-- Node3&#45;&gt;Node181 -->
<g id="edge66" class="edge">
<title>Node3&#45;&gt;Node181</title>
<path fill="none" stroke="#63b8ff" d="M728.76,-328.45C587.08,-328.96 301.8,-324.57 212.21,-283 147.56,-253 134.21,-199.11 158.21,-132 164.26,-115.09 178.76,-99.78 188.79,-90.69"/>
<polygon fill="#63b8ff" stroke="#63b8ff" points="728.45,-331.96 738.44,-328.41 728.42,-324.96 728.45,-331.96"/>
</g>
<!-- Node188 -->
<g id="node16" class="node">
<title>Node188</title>
<g id="a_node16"><a xlink:href="m__Do__audio_8cpp.html" target="_top" xlink:title=" ">
<polygon fill="white" stroke="#666666" points="408.21,-90.5 274.21,-90.5 274.21,-71.5 408.21,-71.5 408.21,-90.5"/>
<text text-anchor="middle" x="341.21" y="-78.5" font-family="Helvetica,sans-Serif" font-size="10.00">src/m_Do/m_Do_audio.cpp</text>
</a>
</g>
</g>
<!-- Node3&#45;&gt;Node188 -->
<g id="edge70" class="edge">
<title>Node3&#45;&gt;Node188</title>
<path fill="none" stroke="#63b8ff" d="M728.25,-328.08C593.12,-327.87 330.23,-322.22 247.21,-283 180.16,-251.32 132.02,-191.56 176.21,-132 189.81,-113.67 245.76,-99.44 288.77,-90.92"/>
<polygon fill="#63b8ff" stroke="#63b8ff" points="728.22,-331.58 738.22,-328.08 728.22,-324.58 728.22,-331.58"/>
</g>
<!-- Node57 -->
<g id="node23" class="node">
<title>Node57</title>
<g id="a_node23"><a xlink:href="d__s__play_8cpp.html" target="_top" xlink:title=" ">
<polygon fill="white" stroke="#666666" points="2638.21,-90.5 2532.21,-90.5 2532.21,-71.5 2638.21,-71.5 2638.21,-90.5"/>
<text text-anchor="middle" x="2585.21" y="-78.5" font-family="Helvetica,sans-Serif" font-size="10.00">src/d/s/d_s_play.cpp</text>
</a>
</g>
</g>
<!-- Node3&#45;&gt;Node57 -->
<g id="edge67" class="edge">
<title>Node3&#45;&gt;Node57</title>
<path fill="none" stroke="#63b8ff" d="M891.71,-318.85C1220.72,-293.46 1305.76,-300.13 1632.21,-283 1948.47,-266.41 2845.31,-401.77 3052.21,-162 3060.92,-151.91 3061.12,-141.92 3052.21,-132 3024.96,-101.68 2755.25,-88.22 2638.56,-83.78"/>
<polygon fill="#63b8ff" stroke="#63b8ff" points="891.61,-315.35 881.91,-319.61 892.15,-322.33 891.61,-315.35"/>
</g>
<!-- Node18 -->
<g id="node28" class="node">
<title>Node18</title>
<g id="a_node28"><a xlink:href="d__shop__system_8cpp.html" target="_top" xlink:title=" ">
<polygon fill="white" stroke="#666666" points="3228.21,-90.5 3076.21,-90.5 3076.21,-71.5 3228.21,-71.5 3228.21,-90.5"/>
<text text-anchor="middle" x="3152.21" y="-78.5" font-family="Helvetica,sans-Serif" font-size="10.00">src/d/shop/d_shop_system.cpp</text>
</a>
</g>
</g>
<!-- Node3&#45;&gt;Node18 -->
<g id="edge68" class="edge">
<title>Node3&#45;&gt;Node18</title>
<path fill="none" stroke="#63b8ff" d="M891.74,-318.91C1377.29,-288.12 2547.32,-319.69 3005.21,-228 3096.16,-209.79 3148.97,-237.25 3203.21,-162 3221.22,-137.01 3185.7,-105.84 3165.25,-90.86"/>
<polygon fill="#63b8ff" stroke="#63b8ff" points="891.66,-315.41 881.9,-319.55 892.11,-322.39 891.66,-315.41"/>
</g>
<!-- Node51 -->
<g id="node39" class="node">
<title>Node51</title>
<g id="a_node39"><a xlink:href="d__kankyo_8cpp.html" target="_top" xlink:title=" ">
<polygon fill="white" stroke="#666666" points="334.21,-156.5 200.21,-156.5 200.21,-137.5 334.21,-137.5 334.21,-156.5"/>
<text text-anchor="middle" x="267.21" y="-144.5" font-family="Helvetica,sans-Serif" font-size="10.00">src/d/kankyo/d_kankyo.cpp</text>
</a>
</g>
</g>
<!-- Node3&#45;&gt;Node51 -->
<g id="edge63" class="edge">
<title>Node3&#45;&gt;Node51</title>
<path fill="none" stroke="#63b8ff" d="M728.39,-325.94C583.73,-321.27 292.12,-302.6 229.21,-228 210.37,-205.67 240.43,-172.42 257.18,-156.76"/>
<polygon fill="#63b8ff" stroke="#63b8ff" points="728.19,-329.44 738.3,-326.25 728.41,-322.44 728.19,-329.44"/>
</g>
<!-- Node361 -->
<g id="node48" class="node">
<title>Node361</title>
<g id="a_node48"><a xlink:href="m__Do__Reset_8cpp.html" target="_top" xlink:title=" ">
<polygon fill="white" stroke="#666666" points="3425.21,-283 3289.21,-283 3289.21,-264 3425.21,-264 3425.21,-283"/>
<text text-anchor="middle" x="3357.21" y="-271" font-family="Helvetica,sans-Serif" font-size="10.00">src/m_Do/m_Do_Reset.cpp</text>
</a>
</g>
</g>
<!-- Node3&#45;&gt;Node361 -->
<g id="edge69" class="edge">
<title>Node3&#45;&gt;Node361</title>
<path fill="none" stroke="#63b8ff" d="M891.7,-318.92C1949.7,-254.85 2220.25,-345.51 3275.21,-283 3279.64,-282.74 3284.2,-282.41 3288.79,-282.05"/>
<polygon fill="#63b8ff" stroke="#63b8ff" points="891.67,-315.42 881.9,-319.52 892.1,-322.4 891.67,-315.42"/>
</g>
<!-- Node5 -->
<g id="node5" class="node">
<title>Node5</title>
<g id="a_node5"><a xlink:href="d__attention_8h.html" target="_top" xlink:title=" ">
<polygon fill="white" stroke="#666666" points="1940.21,-222.5 1826.21,-222.5 1826.21,-203.5 1940.21,-203.5 1940.21,-222.5"/>
<text text-anchor="middle" x="1883.21" y="-210.5" font-family="Helvetica,sans-Serif" font-size="10.00">include/d/d_attention.h</text>
</a>
</g>
</g>
<!-- Node4&#45;&gt;Node5 -->
<g id="edge4" class="edge">
<title>Node4&#45;&gt;Node5</title>
<path fill="none" stroke="#63b8ff" d="M1486.72,-263.58C1561.38,-254.81 1678.14,-240.9 1779.21,-228 1794.3,-226.07 1810.61,-223.92 1825.74,-221.88"/>
<polygon fill="#63b8ff" stroke="#63b8ff" points="1486.59,-260.08 1477.07,-264.72 1487.41,-267.03 1486.59,-260.08"/>
</g>
<!-- Node132 -->
<g id="node10" class="node">
<title>Node132</title>
<g id="a_node10"><a xlink:href="c__dylink_8cpp.html" target="_top" xlink:title=" ">
<polygon fill="white" stroke="#666666" points="1334.71,-90.5 1239.71,-90.5 1239.71,-71.5 1334.71,-71.5 1334.71,-90.5"/>
<text text-anchor="middle" x="1287.21" y="-78.5" font-family="Helvetica,sans-Serif" font-size="10.00">src/c/c_dylink.cpp</text>
</a>
</g>
</g>
<!-- Node4&#45;&gt;Node132 -->
<g id="edge49" class="edge">
<title>Node4&#45;&gt;Node132</title>
<path fill="none" stroke="#63b8ff" d="M1474.59,-259.82C1491.6,-253.23 1508.02,-243.21 1518.21,-228 1525.63,-216.92 1525.78,-208.97 1518.21,-198 1492.55,-160.84 1463.14,-183.08 1423.21,-162 1402.6,-151.12 1400.06,-144.2 1380.21,-132 1354.91,-116.45 1324.39,-100.56 1305.38,-90.98"/>
<polygon fill="#63b8ff" stroke="#63b8ff" points="1473.71,-256.42 1465.41,-263.01 1476,-263.04 1473.71,-256.42"/>
</g>
<!-- Node189 -->
<g id="node17" class="node">
<title>Node189</title>
<g id="a_node17"><a xlink:href="m__Do__ext_8cpp.html" target="_top" xlink:title=" ">
<polygon fill="white" stroke="#666666" points="683.71,-90.5 560.71,-90.5 560.71,-71.5 683.71,-71.5 683.71,-90.5"/>
<text text-anchor="middle" x="622.21" y="-78.5" font-family="Helvetica,sans-Serif" font-size="10.00">src/m_Do/m_Do_ext.cpp</text>
</a>
</g>
</g>
<!-- Node4&#45;&gt;Node189 -->
<g id="edge56" class="edge">
<title>Node4&#45;&gt;Node189</title>
<path fill="none" stroke="#63b8ff" d="M1333.48,-272.04C1100.64,-270.28 415.96,-262.2 383.21,-228 317.3,-159.17 492.41,-110.15 578.11,-90.96"/>
<polygon fill="#63b8ff" stroke="#63b8ff" points="1333.34,-275.54 1343.37,-272.12 1333.39,-268.54 1333.34,-275.54"/>
</g>
<!-- Node192 -->
<g id="node18" class="node">
<title>Node192</title>
<g id="a_node18"><a xlink:href="m__Do__machine__exception_8cpp.html" target="_top" xlink:title=" ">
<polygon fill="white" stroke="#666666" points="987.71,-96 858.71,-96 858.71,-66 987.71,-66 987.71,-96"/>
<text text-anchor="start" x="866.71" y="-84" font-family="Helvetica,sans-Serif" font-size="10.00">src/m_Do/m_Do_machine</text>
<text text-anchor="middle" x="923.21" y="-73" font-family="Helvetica,sans-Serif" font-size="10.00">_exception.cpp</text>
</a>
</g>
</g>
<!-- Node4&#45;&gt;Node192 -->
<g id="edge58" class="edge">
<title>Node4&#45;&gt;Node192</title>
<path fill="none" stroke="#63b8ff" d="M1449.42,-258.77C1463.26,-251.82 1477.33,-241.84 1485.21,-228 1491.81,-216.41 1493.63,-208.34 1485.21,-198 1469.41,-178.61 1132.38,-118.23 987.96,-93.12"/>
<polygon fill="#63b8ff" stroke="#63b8ff" points="1448.02,-255.56 1440.37,-262.89 1450.92,-261.94 1448.02,-255.56"/>
</g>
<!-- Node196 -->
<g id="node20" class="node">
<title>Node196</title>
<g id="a_node20"><a xlink:href="d__drawlist_8h.html" target="_top" xlink:title=" ">
<polygon fill="#fff0f0" stroke="red" points="2311.21,-222.5 2201.21,-222.5 2201.21,-203.5 2311.21,-203.5 2311.21,-222.5"/>
<text text-anchor="middle" x="2256.21" y="-210.5" font-family="Helvetica,sans-Serif" font-size="10.00">include/d/d_drawlist.h</text>
</a>
</g>
</g>
<!-- Node4&#45;&gt;Node196 -->
<g id="edge21" class="edge">
<title>Node4&#45;&gt;Node196</title>
<path fill="none" stroke="#63b8ff" d="M1486.77,-267.21C1655.14,-255.56 2054.24,-227.97 2200.9,-217.82"/>
<polygon fill="#63b8ff" stroke="#63b8ff" points="1486.78,-263.7 1477.05,-267.88 1487.27,-270.68 1486.78,-263.7"/>
</g>
<!-- Node200 -->
<g id="node22" class="node">
<title>Node200</title>
<g id="a_node22"><a xlink:href="d__a__do_8h.html" target="_top" xlink:title=" ">
<polygon fill="white" stroke="#666666" points="1815.21,-96 1719.21,-96 1719.21,-66 1815.21,-66 1815.21,-96"/>
<text text-anchor="start" x="1727.21" y="-84" font-family="Helvetica,sans-Serif" font-size="10.00">include/rel/d/a/d_a</text>
<text text-anchor="middle" x="1767.21" y="-73" font-family="Helvetica,sans-Serif" font-size="10.00">_do/d_a_do.h</text>
</a>
</g>
</g>
<!-- Node4&#45;&gt;Node200 -->
<g id="edge47" class="edge">
<title>Node4&#45;&gt;Node200</title>
<path fill="none" stroke="#63b8ff" d="M1466.04,-260.45C1489.03,-253.59 1514.96,-243.23 1535.21,-228 1577.2,-196.42 1561.52,-162.64 1604.21,-132 1613.77,-125.14 1674.33,-107.51 1718.85,-95.14"/>
<polygon fill="#63b8ff" stroke="#63b8ff" points="1465.17,-257.06 1456.49,-263.13 1467.07,-263.8 1465.17,-257.06"/>
</g>
<!-- Node124 -->
<g id="node24" class="node">
<title>Node124</title>
<g id="a_node24"><a xlink:href="f__op__actor__mng_8cpp.html" target="_top" xlink:title=" ">
<polygon fill="white" stroke="#666666" points="1934.71,-96 1833.71,-96 1833.71,-66 1934.71,-66 1934.71,-96"/>
<text text-anchor="start" x="1841.71" y="-84" font-family="Helvetica,sans-Serif" font-size="10.00">src/f_op/f_op_actor</text>
<text text-anchor="middle" x="1884.21" y="-73" font-family="Helvetica,sans-Serif" font-size="10.00">_mng.cpp</text>
</a>
</g>
</g>
<!-- Node4&#45;&gt;Node124 -->
<g id="edge52" class="edge">
<title>Node4&#45;&gt;Node124</title>
<path fill="none" stroke="#63b8ff" d="M1463.32,-260.86C1493.13,-253.37 1530.56,-242.34 1562.21,-228 1634.64,-195.17 1640.77,-164.82 1713.21,-132 1734.69,-122.27 1791.26,-106.39 1833.49,-95.14"/>
<polygon fill="#63b8ff" stroke="#63b8ff" points="1462.66,-257.42 1453.77,-263.19 1464.32,-264.22 1462.66,-257.42"/>
</g>
<!-- Node239 -->
<g id="node36" class="node">
<title>Node239</title>
<g id="a_node36"><a xlink:href="d__ky__thunder_8h.html" target="_top" xlink:title=" ">
<polygon fill="#fff0f0" stroke="red" points="1770.21,-222.5 1646.21,-222.5 1646.21,-203.5 1770.21,-203.5 1770.21,-222.5"/>
<text text-anchor="middle" x="1708.21" y="-210.5" font-family="Helvetica,sans-Serif" font-size="10.00">include/d/d_ky_thunder.h</text>
</a>
</g>
</g>
<!-- Node4&#45;&gt;Node239 -->
<g id="edge40" class="edge">
<title>Node4&#45;&gt;Node239</title>
<path fill="none" stroke="#63b8ff" d="M1466.74,-261.4C1523.56,-250.25 1610.05,-233.27 1662.63,-222.95"/>
<polygon fill="#63b8ff" stroke="#63b8ff" points="1466.42,-257.9 1457.28,-263.26 1467.76,-264.77 1466.42,-257.9"/>
</g>
<!-- Node240 -->
<g id="node37" class="node">
<title>Node240</title>
<g id="a_node37"><a xlink:href="d__resorce_8h.html" target="_top" xlink:title=" ">
<polygon fill="#fff0f0" stroke="red" points="501.71,-222.5 392.71,-222.5 392.71,-203.5 501.71,-203.5 501.71,-222.5"/>
<text text-anchor="middle" x="447.21" y="-210.5" font-family="Helvetica,sans-Serif" font-size="10.00">include/d/d_resorce.h</text>
</a>
</g>
</g>
<!-- Node4&#45;&gt;Node240 -->
<g id="edge41" class="edge">
<title>Node4&#45;&gt;Node240</title>
<path fill="none" stroke="#63b8ff" d="M1333.62,-273.07C1177.83,-273.26 813.09,-268.84 510.21,-228 501.21,-226.79 491.6,-224.94 482.67,-222.98"/>
<polygon fill="#63b8ff" stroke="#63b8ff" points="1333.42,-276.57 1343.41,-273.05 1333.4,-269.57 1333.42,-276.57"/>
</g>
<!-- Node241 -->
<g id="node38" class="node">
<title>Node241</title>
<g id="a_node38"><a xlink:href="d__kankyo_8h.html" target="_top" xlink:title=" ">
<polygon fill="#fff0f0" stroke="red" points="336.21,-228 238.21,-228 238.21,-198 336.21,-198 336.21,-228"/>
<text text-anchor="start" x="246.21" y="-216" font-family="Helvetica,sans-Serif" font-size="10.00">include/d/kankyo/d</text>
<text text-anchor="middle" x="287.21" y="-205" font-family="Helvetica,sans-Serif" font-size="10.00">_kankyo.h</text>
</a>
</g>
</g>
<!-- Node4&#45;&gt;Node241 -->
<g id="edge43" class="edge">
<title>Node4&#45;&gt;Node241</title>
<path fill="none" stroke="#63b8ff" d="M1333.68,-271.04C1123.52,-266.77 540.52,-252.94 350.21,-228 345.76,-227.42 341.17,-226.68 336.58,-225.84"/>
<polygon fill="#63b8ff" stroke="#63b8ff" points="1333.31,-274.54 1343.38,-271.24 1333.46,-267.54 1333.31,-274.54"/>
</g>
<!-- Node353 -->
<g id="node40" class="node">
<title>Node353</title>
<g id="a_node40"><a xlink:href="DynamicLink_8cpp.html" target="_top" xlink:title=" ">
<polygon fill="white" stroke="#666666" points="2436.71,-222.5 2329.71,-222.5 2329.71,-203.5 2436.71,-203.5 2436.71,-222.5"/>
<text text-anchor="middle" x="2383.21" y="-210.5" font-family="Helvetica,sans-Serif" font-size="10.00">src/DynamicLink.cpp</text>
</a>
</g>
</g>
<!-- Node4&#45;&gt;Node353 -->
<g id="edge48" class="edge">
<title>Node4&#45;&gt;Node353</title>
<path fill="none" stroke="#63b8ff" d="M1487.06,-273.13C1644.25,-273.45 2013.57,-269.26 2320.21,-228 2329.2,-226.79 2338.81,-224.94 2347.75,-222.99"/>
<polygon fill="#63b8ff" stroke="#63b8ff" points="1487.18,-269.63 1477.17,-273.1 1487.16,-276.63 1487.18,-269.63"/>
</g>
<!-- Node354 -->
<g id="node41" class="node">
<title>Node354</title>
<g id="a_node41"><a xlink:href="d__pane__class_8cpp.html" target="_top" xlink:title=" ">
<polygon fill="white" stroke="#666666" points="2597.71,-222.5 2454.71,-222.5 2454.71,-203.5 2597.71,-203.5 2597.71,-222.5"/>
<text text-anchor="middle" x="2526.21" y="-210.5" font-family="Helvetica,sans-Serif" font-size="10.00">src/d/pane/d_pane_class.cpp</text>
</a>
</g>
</g>
<!-- Node4&#45;&gt;Node354 -->
<g id="edge50" class="edge">
<title>Node4&#45;&gt;Node354</title>
<path fill="none" stroke="#63b8ff" d="M1486.96,-272.56C1659,-271.95 2088.38,-266.35 2445.21,-228 2456.7,-226.76 2469.03,-224.91 2480.52,-222.95"/>
<polygon fill="#63b8ff" stroke="#63b8ff" points="1487.02,-269.06 1477.03,-272.59 1487.04,-276.06 1487.02,-269.06"/>
</g>
<!-- Node355 -->
<g id="node42" class="node">
<title>Node355</title>
<g id="a_node42"><a xlink:href="d__pane__class__alpha_8cpp.html" target="_top" xlink:title=" ">
<polygon fill="white" stroke="#666666" points="644.71,-228 519.71,-228 519.71,-198 644.71,-198 644.71,-228"/>
<text text-anchor="start" x="527.71" y="-216" font-family="Helvetica,sans-Serif" font-size="10.00">src/d/pane/d_pane_class</text>
<text text-anchor="middle" x="582.21" y="-205" font-family="Helvetica,sans-Serif" font-size="10.00">_alpha.cpp</text>
</a>
</g>
</g>
<!-- Node4&#45;&gt;Node355 -->
<g id="edge51" class="edge">
<title>Node4&#45;&gt;Node355</title>
<path fill="none" stroke="#63b8ff" d="M1333.7,-271.44C1196.72,-268.77 900.75,-259.53 653.21,-228 650.47,-227.65 647.67,-227.26 644.85,-226.83"/>
<polygon fill="#63b8ff" stroke="#63b8ff" points="1333.3,-274.93 1343.36,-271.62 1333.43,-267.93 1333.3,-274.93"/>
</g>
<!-- Node356 -->
<g id="node43" class="node">
<title>Node356</title>
<g id="a_node43"><a xlink:href="m__Do__DVDError_8cpp.html" target="_top" xlink:title=" ">
<polygon fill="white" stroke="#666666" points="813.71,-222.5 662.71,-222.5 662.71,-203.5 813.71,-203.5 813.71,-222.5"/>
<text text-anchor="middle" x="738.21" y="-210.5" font-family="Helvetica,sans-Serif" font-size="10.00">src/m_Do/m_Do_DVDError.cpp</text>
</a>
</g>
</g>
<!-- Node4&#45;&gt;Node356 -->
<g id="edge53" class="edge">
<title>Node4&#45;&gt;Node356</title>
<path fill="none" stroke="#63b8ff" d="M1333.69,-268.84C1221.44,-262.99 1005.68,-249.9 823.21,-228 811.77,-226.63 799.53,-224.81 787.99,-222.95"/>
<polygon fill="#63b8ff" stroke="#63b8ff" points="1333.2,-272.32 1343.37,-269.34 1333.56,-265.33 1333.2,-272.32"/>
</g>
<!-- Node357 -->
<g id="node44" class="node">
<title>Node357</title>
<g id="a_node44"><a xlink:href="m__Do__MemCard_8cpp.html" target="_top" xlink:title=" ">
<polygon fill="white" stroke="#666666" points="984.21,-222.5 832.21,-222.5 832.21,-203.5 984.21,-203.5 984.21,-222.5"/>
<text text-anchor="middle" x="908.21" y="-210.5" font-family="Helvetica,sans-Serif" font-size="10.00">src/m_Do/m_Do_MemCard.cpp</text>
</a>
</g>
</g>
<!-- Node4&#45;&gt;Node357 -->
<g id="edge54" class="edge">
<title>Node4&#45;&gt;Node357</title>
<path fill="none" stroke="#63b8ff" d="M1333.61,-265.64C1249.85,-257.84 1111.73,-244.07 993.21,-228 982.39,-226.53 970.83,-224.76 959.83,-222.99"/>
<polygon fill="#63b8ff" stroke="#63b8ff" points="1333.28,-269.13 1343.56,-266.57 1333.92,-262.16 1333.28,-269.13"/>
</g>
<!-- Node358 -->
<g id="node45" class="node">
<title>Node358</title>
<g id="a_node45"><a xlink:href="m__Do__dvd__thread_8cpp.html" target="_top" xlink:title=" ">
<polygon fill="white" stroke="#666666" points="1160.21,-222.5 1002.21,-222.5 1002.21,-203.5 1160.21,-203.5 1160.21,-222.5"/>
<text text-anchor="middle" x="1081.21" y="-210.5" font-family="Helvetica,sans-Serif" font-size="10.00">src/m_Do/m_Do_dvd_thread.cpp</text>
</a>
</g>
</g>
<!-- Node4&#45;&gt;Node358 -->
<g id="edge55" class="edge">
<title>Node4&#45;&gt;Node358</title>
<path fill="none" stroke="#63b8ff" d="M1348.59,-261.54C1285.97,-250.41 1190.12,-233.37 1131.8,-223"/>
<polygon fill="#63b8ff" stroke="#63b8ff" points="1347.93,-264.98 1358.39,-263.29 1349.16,-258.09 1347.93,-264.98"/>
</g>
<!-- Node359 -->
<g id="node46" class="node">
<title>Node359</title>
<g id="a_node46"><a xlink:href="m__Do__machine_8cpp.html" target="_top" xlink:title=" ">
<polygon fill="white" stroke="#666666" points="1325.71,-222.5 1178.71,-222.5 1178.71,-203.5 1325.71,-203.5 1325.71,-222.5"/>
<text text-anchor="middle" x="1252.21" y="-210.5" font-family="Helvetica,sans-Serif" font-size="10.00">src/m_Do/m_Do_machine.cpp</text>
</a>
</g>
</g>
<!-- Node4&#45;&gt;Node359 -->
<g id="edge57" class="edge">
<title>Node4&#45;&gt;Node359</title>
<path fill="none" stroke="#63b8ff" d="M1375.78,-259.75C1345.76,-248.64 1302.97,-232.8 1276.43,-222.97"/>
<polygon fill="#63b8ff" stroke="#63b8ff" points="1374.2,-262.9 1384.79,-263.09 1376.63,-256.34 1374.2,-262.9"/>
</g>
<!-- Node360 -->
<g id="node47" class="node">
<title>Node360</title>
<g id="a_node47"><a xlink:href="m__Do__printf_8cpp.html" target="_top" xlink:title=" ">
<polygon fill="white" stroke="#666666" points="1476.21,-222.5 1344.21,-222.5 1344.21,-203.5 1476.21,-203.5 1476.21,-222.5"/>
<text text-anchor="middle" x="1410.21" y="-210.5" font-family="Helvetica,sans-Serif" font-size="10.00">src/m_Do/m_Do_printf.cpp</text>
</a>
</g>
</g>
<!-- Node4&#45;&gt;Node360 -->
<g id="edge59" class="edge">
<title>Node4&#45;&gt;Node360</title>
<path fill="none" stroke="#63b8ff" d="M1410.21,-252.66C1410.21,-242.45 1410.21,-230.54 1410.21,-222.67"/>
<polygon fill="#63b8ff" stroke="#63b8ff" points="1406.71,-252.35 1410.21,-262.35 1413.71,-252.35 1406.71,-252.35"/>
</g>
<!-- Node6 -->
<g id="node6" class="node">
<title>Node6</title>
<g id="a_node6"><a xlink:href="d__a__alink_8h.html" target="_top" xlink:title=" ">
<polygon fill="#fff0f0" stroke="red" points="2069.21,-90.5 1953.21,-90.5 1953.21,-71.5 2069.21,-71.5 2069.21,-90.5"/>
<text text-anchor="middle" x="2011.21" y="-78.5" font-family="Helvetica,sans-Serif" font-size="10.00">include/d/a/d_a_alink.h</text>
</a>
</g>
</g>
<!-- Node5&#45;&gt;Node6 -->
<g id="edge5" class="edge">
<title>Node5&#45;&gt;Node6</title>
<path fill="none" stroke="#63b8ff" d="M1917.78,-198.57C1935.79,-190.21 1957.13,-177.98 1972.21,-162 1992.35,-140.65 2004.08,-106.92 2008.79,-90.95"/>
<polygon fill="#63b8ff" stroke="#63b8ff" points="1916.48,-195.32 1908.74,-202.55 1919.31,-201.72 1916.48,-195.32"/>
</g>
<!-- Node15 -->
<g id="node9" class="node">
<title>Node15</title>
<g id="a_node9"><a xlink:href="d__com__inf__game_8h.html" target="_top" xlink:title=" ">
<polygon fill="#fff0f0" stroke="red" points="722.21,-162 612.21,-162 612.21,-132 722.21,-132 722.21,-162"/>
<text text-anchor="start" x="620.21" y="-150" font-family="Helvetica,sans-Serif" font-size="10.00">include/d/com/d_com</text>
<text text-anchor="middle" x="667.21" y="-139" font-family="Helvetica,sans-Serif" font-size="10.00">_inf_game.h</text>
</a>
</g>
</g>
<!-- Node5&#45;&gt;Node15 -->
<g id="edge8" class="edge">
<title>Node5&#45;&gt;Node15</title>
<path fill="none" stroke="#63b8ff" d="M1814.65,-201.89C1802.85,-200.4 1790.69,-199.03 1779.21,-198 1374.76,-161.76 885.09,-151.32 722.57,-148.75"/>
<polygon fill="#63b8ff" stroke="#63b8ff" points="1813.95,-205.33 1824.32,-203.15 1814.86,-198.39 1813.95,-205.33"/>
</g>
<!-- Node140 -->
<g id="node11" class="node">
<title>Node140</title>
<g id="a_node11"><a xlink:href="d__attention_8cpp.html" target="_top" xlink:title=" ">
<polygon fill="white" stroke="#666666" points="1700.71,-90.5 1593.71,-90.5 1593.71,-71.5 1700.71,-71.5 1700.71,-90.5"/>
<text text-anchor="middle" x="1647.21" y="-78.5" font-family="Helvetica,sans-Serif" font-size="10.00">src/d/d_attention.cpp</text>
</a>
</g>
</g>
<!-- Node5&#45;&gt;Node140 -->
<g id="edge20" class="edge">
<title>Node5&#45;&gt;Node140</title>
<path fill="none" stroke="#63b8ff" d="M1831.82,-200.4C1789.28,-190.17 1732.77,-174.91 1713.21,-162 1684.36,-142.95 1661.66,-107.48 1652.11,-90.93"/>
<polygon fill="#63b8ff" stroke="#63b8ff" points="1830.84,-203.77 1841.38,-202.67 1832.45,-196.96 1830.84,-203.77"/>
</g>
<!-- Node195 -->
<g id="node19" class="node">
<title>Node195</title>
<g id="a_node19"><a xlink:href="d__att__dist_8cpp.html" target="_top" xlink:title=" ">
<polygon fill="white" stroke="#666666" points="1824.21,-156.5 1722.21,-156.5 1722.21,-137.5 1824.21,-137.5 1824.21,-156.5"/>
<text text-anchor="middle" x="1773.21" y="-144.5" font-family="Helvetica,sans-Serif" font-size="10.00">src/d/d_att_dist.cpp</text>
</a>
</g>
</g>
<!-- Node5&#45;&gt;Node195 -->
<g id="edge19" class="edge">
<title>Node5&#45;&gt;Node195</title>
<path fill="none" stroke="#63b8ff" d="M1858.16,-197.42C1836.66,-184.92 1806.38,-167.3 1788.37,-156.82"/>
<polygon fill="#63b8ff" stroke="#63b8ff" points="1856.2,-200.34 1866.61,-202.34 1859.72,-194.29 1856.2,-200.34"/>
</g>
<!-- Node6&#45;&gt;Node9 -->
<g id="edge6" class="edge">
<title>Node6&#45;&gt;Node9</title>
<path fill="none" stroke="#63b8ff" d="M1962.06,-68.9C1955.74,-67.76 1949.34,-66.75 1943.21,-66 1710.47,-37.51 973.45,-21.14 766.64,-17.03"/>
<polygon fill="#63b8ff" stroke="#63b8ff" points="1961.3,-72.32 1971.78,-70.77 1962.62,-65.44 1961.3,-72.32"/>
</g>
<!-- Node6&#45;&gt;Node13 -->
<g id="edge7" class="edge">
<title>Node6&#45;&gt;Node13</title>
<path fill="none" stroke="#63b8ff" d="M2080.77,-72.76C2200.05,-60.35 2442.06,-35.16 2559.41,-22.95"/>
<polygon fill="#63b8ff" stroke="#63b8ff" points="2080.71,-69.25 2071.13,-73.76 2081.43,-76.21 2080.71,-69.25"/>
</g>
<!-- Node15&#45;&gt;Node9 -->
<g id="edge10" class="edge">
<title>Node15&#45;&gt;Node9</title>
<path fill="none" stroke="#63b8ff" d="M680.83,-121.42C684.88,-113.47 689.06,-104.51 692.21,-96 700.45,-73.71 706.42,-46.69 709.59,-30.45"/>
<polygon fill="#63b8ff" stroke="#63b8ff" points="677.8,-119.68 676.23,-130.16 683.99,-122.95 677.8,-119.68"/>
</g>
<!-- Node15&#45;&gt;Node132 -->
<g id="edge9" class="edge">
<title>Node15&#45;&gt;Node132</title>
<path fill="none" stroke="#63b8ff" d="M733.86,-139.12C859.71,-126.13 1129.51,-98.28 1239.28,-86.95"/>
<polygon fill="#63b8ff" stroke="#63b8ff" points="733.6,-135.63 724.01,-140.14 734.31,-142.59 733.6,-135.63"/>
</g>
<!-- Node15&#45;&gt;Node140 -->
<g id="edge11" class="edge">
<title>Node15&#45;&gt;Node140</title>
<path fill="none" stroke="#63b8ff" d="M733.94,-146.1C885.69,-145.52 1268.05,-139.45 1584.21,-96 1593.2,-94.76 1602.81,-92.91 1611.74,-90.95"/>
<polygon fill="#63b8ff" stroke="#63b8ff" points="734.05,-142.6 724.06,-146.13 734.07,-149.6 734.05,-142.6"/>
</g>
<!-- Node15&#45;&gt;Node151 -->
<g id="edge12" class="edge">
<title>Node15&#45;&gt;Node151</title>
<path fill="none" stroke="#63b8ff" d="M600.59,-143.01C499.13,-137.73 300.02,-124.49 133.21,-96 125.5,-94.68 117.29,-92.87 109.61,-90.98"/>
<polygon fill="#63b8ff" stroke="#63b8ff" points="600.21,-146.5 610.37,-143.51 600.56,-139.51 600.21,-146.5"/>
</g>
<!-- Node15&#45;&gt;Node161 -->
<g id="edge13" class="edge">
<title>Node15&#45;&gt;Node161</title>
<path fill="none" stroke="#63b8ff" d="M733.69,-141.16C854.88,-132.31 1119.83,-112.9 1343.21,-96 1386.74,-92.71 1436.14,-88.88 1472.33,-86.06"/>
<polygon fill="#63b8ff" stroke="#63b8ff" points="733.65,-137.65 723.93,-141.87 734.16,-144.63 733.65,-137.65"/>
</g>
<!-- Node15&#45;&gt;Node165 -->
<g id="edge14" class="edge">
<title>Node15&#45;&gt;Node165</title>
<path fill="none" stroke="#63b8ff" d="M615.56,-127.94C587.05,-117.97 552.12,-105.75 525.46,-96.43"/>
<polygon fill="#63b8ff" stroke="#63b8ff" points="614.12,-131.14 624.71,-131.14 616.43,-124.53 614.12,-131.14"/>
</g>
<!-- Node15&#45;&gt;Node181 -->
<g id="edge15" class="edge">
<title>Node15&#45;&gt;Node181</title>
<path fill="none" stroke="#63b8ff" d="M600.35,-139.45C520.37,-131.2 382.55,-115.71 265.21,-96 256.66,-94.56 247.54,-92.79 238.89,-90.99"/>
<polygon fill="#63b8ff" stroke="#63b8ff" points="599.91,-142.92 610.21,-140.46 600.62,-135.96 599.91,-142.92"/>
</g>
<!-- Node15&#45;&gt;Node188 -->
<g id="edge16" class="edge">
<title>Node15&#45;&gt;Node188</title>
<path fill="none" stroke="#63b8ff" d="M600.79,-132.96C537.12,-120.46 442.71,-101.93 387.02,-90.99"/>
<polygon fill="#63b8ff" stroke="#63b8ff" points="599.94,-136.36 610.42,-134.85 601.28,-129.49 599.94,-136.36"/>
</g>
<!-- Node15&#45;&gt;Node189 -->
<g id="edge17" class="edge">
<title>Node15&#45;&gt;Node189</title>
<path fill="none" stroke="#63b8ff" d="M650.76,-122.61C642.99,-111.56 634.18,-99.03 628.43,-90.84"/>
<polygon fill="#63b8ff" stroke="#63b8ff" points="647.74,-124.39 656.35,-130.56 653.46,-120.36 647.74,-124.39"/>
</g>
<!-- Node15&#45;&gt;Node192 -->
<g id="edge18" class="edge">
<title>Node15&#45;&gt;Node192</title>
<path fill="none" stroke="#63b8ff" d="M733.39,-129.46C774.26,-119.24 826.2,-106.25 865.41,-96.45"/>
<polygon fill="#63b8ff" stroke="#63b8ff" points="732.76,-126 723.91,-131.82 734.46,-132.79 732.76,-126"/>
</g>
<!-- Node197 -->
<g id="node21" class="node">
<title>Node197</title>
<g id="a_node21"><a xlink:href="d__a__player_8h.html" target="_top" xlink:title=" ">
<polygon fill="#fff0f0" stroke="red" points="1963.71,-156.5 1842.71,-156.5 1842.71,-137.5 1963.71,-137.5 1963.71,-156.5"/>
<text text-anchor="middle" x="1903.21" y="-144.5" font-family="Helvetica,sans-Serif" font-size="10.00">include/d/a/d_a_player.h</text>
</a>
</g>
</g>
<!-- Node196&#45;&gt;Node197 -->
<g id="edge22" class="edge">
<title>Node196&#45;&gt;Node197</title>
<path fill="none" stroke="#63b8ff" d="M2195.69,-201.03C2127.02,-188.58 2016.31,-168.5 1952.61,-156.96"/>
<polygon fill="#63b8ff" stroke="#63b8ff" points="2194.8,-204.42 2205.26,-202.76 2196.05,-197.54 2194.8,-204.42"/>
</g>
<!-- Node203 -->
<g id="node25" class="node">
<title>Node203</title>
<g id="a_node25"><a xlink:href="d__camera_8h.html" target="_top" xlink:title=" ">
<polygon fill="#fff0f0" stroke="red" points="2129.71,-156.5 2020.71,-156.5 2020.71,-137.5 2129.71,-137.5 2129.71,-156.5"/>
<text text-anchor="middle" x="2075.21" y="-144.5" font-family="Helvetica,sans-Serif" font-size="10.00">include/d/d_camera.h</text>
</a>
</g>
</g>
<!-- Node196&#45;&gt;Node203 -->
<g id="edge29" class="edge">
<title>Node196&#45;&gt;Node203</title>
<path fill="none" stroke="#63b8ff" d="M2220.21,-199.27C2184.79,-186.75 2131.61,-167.94 2100.45,-156.93"/>
<polygon fill="#63b8ff" stroke="#63b8ff" points="2219.02,-202.56 2229.61,-202.6 2221.35,-195.96 2219.02,-202.56"/>
</g>
<!-- Node208 -->
<g id="node26" class="node">
<title>Node208</title>
<g id="a_node26"><a xlink:href="d__kantera__icon__meter_8h.html" target="_top" xlink:title=" ">
<polygon fill="#fff0f0" stroke="red" points="2248.71,-162 2147.71,-162 2147.71,-132 2248.71,-132 2248.71,-162"/>
<text text-anchor="start" x="2155.71" y="-150" font-family="Helvetica,sans-Serif" font-size="10.00">include/d/d_kantera</text>
<text text-anchor="middle" x="2198.21" y="-139" font-family="Helvetica,sans-Serif" font-size="10.00">_icon_meter.h</text>
</a>
</g>
</g>
<!-- Node196&#45;&gt;Node208 -->
<g id="edge30" class="edge">
<title>Node196&#45;&gt;Node208</title>
<path fill="none" stroke="#63b8ff" d="M2240.47,-194.64C2231.26,-184.47 2219.78,-171.8 2211.11,-162.23"/>
<polygon fill="#63b8ff" stroke="#63b8ff" points="2237.82,-196.92 2247.13,-201.98 2243.01,-192.22 2237.82,-196.92"/>
</g>
<!-- Node209 -->
<g id="node27" class="node">
<title>Node209</title>
<g id="a_node27"><a xlink:href="d__select__cursor_8h.html" target="_top" xlink:title=" ">
<polygon fill="#fff0f0" stroke="red" points="3194.71,-162 3099.71,-162 3099.71,-132 3194.71,-132 3194.71,-162"/>
<text text-anchor="start" x="3107.71" y="-150" font-family="Helvetica,sans-Serif" font-size="10.00">include/d/d_select</text>
<text text-anchor="middle" x="3147.21" y="-139" font-family="Helvetica,sans-Serif" font-size="10.00">_cursor.h</text>
</a>
</g>
</g>
<!-- Node196&#45;&gt;Node209 -->
<g id="edge31" class="edge">
<title>Node196&#45;&gt;Node209</title>
<path fill="none" stroke="#63b8ff" d="M2303.11,-200.81C2308.85,-199.72 2314.64,-198.74 2320.21,-198 2643.09,-155.05 2728.04,-193.78 3052.21,-162 3067.64,-160.49 3084.4,-158.23 3099.48,-155.96"/>
<polygon fill="#63b8ff" stroke="#63b8ff" points="2302.82,-197.29 2293.72,-202.72 2304.22,-204.15 2302.82,-197.29"/>
</g>
<!-- Node213 -->
<g id="node29" class="node">
<title>Node213</title>
<g id="a_node29"><a xlink:href="d__file__sel__info_8h.html" target="_top" xlink:title=" ">
<polygon fill="#fff0f0" stroke="red" points="2363.21,-162 2267.21,-162 2267.21,-132 2363.21,-132 2363.21,-162"/>
<text text-anchor="start" x="2275.21" y="-150" font-family="Helvetica,sans-Serif" font-size="10.00">include/d/file/d_file</text>
<text text-anchor="middle" x="2315.21" y="-139" font-family="Helvetica,sans-Serif" font-size="10.00">_sel_info.h</text>
</a>
</g>
</g>
<!-- Node196&#45;&gt;Node213 -->
<g id="edge33" class="edge">
<title>Node196&#45;&gt;Node213</title>
<path fill="none" stroke="#63b8ff" d="M2271.93,-194.95C2281.35,-184.73 2293.18,-171.9 2302.09,-162.23"/>
<polygon fill="#63b8ff" stroke="#63b8ff" points="2269.64,-192.26 2265.44,-201.99 2274.79,-197.01 2269.64,-192.26"/>
</g>
<!-- Node214 -->
<g id="node30" class="node">
<title>Node214</title>
<g id="a_node30"><a xlink:href="d__map__path_8h.html" target="_top" xlink:title=" ">
<polygon fill="#fff0f0" stroke="red" points="2491.21,-162 2381.21,-162 2381.21,-132 2491.21,-132 2491.21,-162"/>
<text text-anchor="start" x="2389.21" y="-150" font-family="Helvetica,sans-Serif" font-size="10.00">include/d/map/d_map</text>
<text text-anchor="middle" x="2436.21" y="-139" font-family="Helvetica,sans-Serif" font-size="10.00">_path.h</text>
</a>
</g>
</g>
<!-- Node196&#45;&gt;Node214 -->
<g id="edge34" class="edge">
<title>Node196&#45;&gt;Node214</title>
<path fill="none" stroke="#63b8ff" d="M2292,-199.27C2321.84,-188.66 2364.36,-173.55 2395.49,-162.48"/>
<polygon fill="#63b8ff" stroke="#63b8ff" points="2290.91,-195.95 2282.66,-202.59 2293.26,-202.54 2290.91,-195.95"/>
</g>
<!-- Node218 -->
<g id="node31" class="node">
<title>Node218</title>
<g id="a_node31"><a xlink:href="d__menu__collect_8h.html" target="_top" xlink:title=" ">
<polygon fill="#fff0f0" stroke="red" points="1552.21,-162 1432.21,-162 1432.21,-132 1552.21,-132 1552.21,-162"/>
<text text-anchor="start" x="1440.21" y="-150" font-family="Helvetica,sans-Serif" font-size="10.00">include/d/menu/d_menu</text>
<text text-anchor="middle" x="1492.21" y="-139" font-family="Helvetica,sans-Serif" font-size="10.00">_collect.h</text>
</a>
</g>
</g>
<!-- Node196&#45;&gt;Node218 -->
<g id="edge35" class="edge">
<title>Node196&#45;&gt;Node218</title>
<path fill="none" stroke="#63b8ff" d="M2189.92,-206.45C2043.34,-194.17 1693.55,-164.87 1552.6,-153.06"/>
<polygon fill="#63b8ff" stroke="#63b8ff" points="2189.19,-209.9 2199.45,-207.25 2189.78,-202.92 2189.19,-209.9"/>
</g>
<!-- Node219 -->
<g id="node32" class="node">
<title>Node219</title>
<g id="a_node32"><a xlink:href="d__menu__fishing_8h.html" target="_top" xlink:title=" ">
<polygon fill="#fff0f0" stroke="red" points="2629.21,-162 2509.21,-162 2509.21,-132 2629.21,-132 2629.21,-162"/>
<text text-anchor="start" x="2517.21" y="-150" font-family="Helvetica,sans-Serif" font-size="10.00">include/d/menu/d_menu</text>
<text text-anchor="middle" x="2569.21" y="-139" font-family="Helvetica,sans-Serif" font-size="10.00">_fishing.h</text>
</a>
</g>
</g>
<!-- Node196&#45;&gt;Node219 -->
<g id="edge36" class="edge">
<title>Node196&#45;&gt;Node219</title>
<path fill="none" stroke="#63b8ff" d="M2307.84,-200.62C2312.03,-199.73 2316.19,-198.84 2320.21,-198 2400.06,-181.28 2420.23,-178.11 2500.21,-162 2503.08,-161.42 2506.03,-160.83 2509,-160.23"/>
<polygon fill="#63b8ff" stroke="#63b8ff" points="2307.33,-197.15 2298.29,-202.68 2308.81,-203.99 2307.33,-197.15"/>
</g>
<!-- Node220 -->
<g id="node33" class="node">
<title>Node220</title>
<g id="a_node33"><a xlink:href="d__menu__insect_8h.html" target="_top" xlink:title=" ">
<polygon fill="#fff0f0" stroke="red" points="2767.21,-162 2647.21,-162 2647.21,-132 2767.21,-132 2767.21,-162"/>
<text text-anchor="start" x="2655.21" y="-150" font-family="Helvetica,sans-Serif" font-size="10.00">include/d/menu/d_menu</text>
<text text-anchor="middle" x="2707.21" y="-139" font-family="Helvetica,sans-Serif" font-size="10.00">_insect.h</text>
</a>
</g>
</g>
<!-- Node196&#45;&gt;Node220 -->
<g id="edge37" class="edge">
<title>Node196&#45;&gt;Node220</title>
<path fill="none" stroke="#63b8ff" d="M2305.05,-200.78C2310.16,-199.76 2315.28,-198.82 2320.21,-198 2460.54,-174.77 2497.71,-184.16 2638.21,-162 2641.11,-161.54 2644.07,-161.05 2647.05,-160.53"/>
<polygon fill="#63b8ff" stroke="#63b8ff" points="2304.55,-197.3 2295.47,-202.76 2305.97,-204.16 2304.55,-197.3"/>
</g>
<!-- Node221 -->
<g id="node34" class="node">
<title>Node221</title>
<g id="a_node34"><a xlink:href="d__menu__letter_8h.html" target="_top" xlink:title=" ">
<polygon fill="#fff0f0" stroke="red" points="2905.21,-162 2785.21,-162 2785.21,-132 2905.21,-132 2905.21,-162"/>
<text text-anchor="start" x="2793.21" y="-150" font-family="Helvetica,sans-Serif" font-size="10.00">include/d/menu/d_menu</text>
<text text-anchor="middle" x="2845.21" y="-139" font-family="Helvetica,sans-Serif" font-size="10.00">_letter.h</text>
</a>
</g>
</g>
<!-- Node196&#45;&gt;Node221 -->
<g id="edge38" class="edge">
<title>Node196&#45;&gt;Node221</title>
<path fill="none" stroke="#63b8ff" d="M2303.99,-200.8C2309.44,-199.75 2314.93,-198.78 2320.21,-198 2521.31,-168.21 2574.89,-190.26 2776.21,-162 2779.11,-161.59 2782.08,-161.14 2785.07,-160.65"/>
<polygon fill="#63b8ff" stroke="#63b8ff" points="2303.52,-197.33 2294.42,-202.76 2304.92,-204.18 2303.52,-197.33"/>
</g>
<!-- Node223 -->
<g id="node35" class="node">
<title>Node223</title>
<g id="a_node35"><a xlink:href="d__menu__option_8h.html" target="_top" xlink:title=" ">
<polygon fill="#fff0f0" stroke="red" points="3043.21,-162 2923.21,-162 2923.21,-132 3043.21,-132 3043.21,-162"/>
<text text-anchor="start" x="2931.21" y="-150" font-family="Helvetica,sans-Serif" font-size="10.00">include/d/menu/d_menu</text>
<text text-anchor="middle" x="2983.21" y="-139" font-family="Helvetica,sans-Serif" font-size="10.00">_option.h</text>
</a>
</g>
</g>
<!-- Node196&#45;&gt;Node223 -->
<g id="edge39" class="edge">
<title>Node196&#45;&gt;Node223</title>
<path fill="none" stroke="#63b8ff" d="M2303.77,-200.75C2309.29,-199.69 2314.86,-198.74 2320.21,-198 2582.18,-161.63 2651.97,-196.38 2914.21,-162 2917.12,-161.62 2920.09,-161.19 2923.08,-160.71"/>
<polygon fill="#63b8ff" stroke="#63b8ff" points="2303.17,-197.3 2294.07,-202.72 2304.57,-204.15 2303.17,-197.3"/>
</g>
<!-- Node197&#45;&gt;Node6 -->
<g id="edge23" class="edge">
<title>Node197&#45;&gt;Node6</title>
<path fill="none" stroke="#63b8ff" d="M1928.09,-131.25C1949.18,-118.76 1978.73,-101.25 1996.32,-90.82"/>
<polygon fill="#63b8ff" stroke="#63b8ff" points="1926.35,-128.22 1919.53,-136.33 1929.91,-134.24 1926.35,-128.22"/>
</g>
<!-- Node197&#45;&gt;Node140 -->
<g id="edge25" class="edge">
<title>Node197&#45;&gt;Node140</title>
<path fill="none" stroke="#63b8ff" d="M1856.18,-134.24C1806.13,-121.73 1728.03,-102.21 1682.83,-90.91"/>
<polygon fill="#63b8ff" stroke="#63b8ff" points="1855.32,-137.64 1865.88,-136.67 1857.02,-130.85 1855.32,-137.64"/>
</g>
<!-- Node197&#45;&gt;Node161 -->
<g id="edge26" class="edge">
<title>Node197&#45;&gt;Node161</title>
<path fill="none" stroke="#63b8ff" d="M1849.28,-134.91C1843.86,-133.89 1838.43,-132.9 1833.21,-132 1723.01,-113.03 1694.09,-116.72 1584.21,-96 1581.58,-95.5 1578.89,-94.97 1576.18,-94.41"/>
<polygon fill="#63b8ff" stroke="#63b8ff" points="1848.37,-138.3 1858.85,-136.76 1849.69,-131.43 1848.37,-138.3"/>
</g>
<!-- Node197&#45;&gt;Node200 -->
<g id="edge24" class="edge">
<title>Node197&#45;&gt;Node200</title>
<path fill="none" stroke="#63b8ff" d="M1874.05,-132.28C1851.64,-121.73 1820.77,-107.21 1797.97,-96.48"/>
<polygon fill="#63b8ff" stroke="#63b8ff" points="1872.39,-135.37 1882.93,-136.46 1875.37,-129.03 1872.39,-135.37"/>
</g>
<!-- Node197&#45;&gt;Node57 -->
<g id="edge27" class="edge">
<title>Node197&#45;&gt;Node57</title>
<path fill="none" stroke="#63b8ff" d="M1975.33,-136.22C1987.31,-134.72 1999.6,-133.26 2011.21,-132 2202.4,-111.29 2430.15,-93.49 2531.72,-85.9"/>
<polygon fill="#63b8ff" stroke="#63b8ff" points="1974.97,-132.74 1965.49,-137.48 1975.85,-139.69 1974.97,-132.74"/>
</g>
<!-- Node197&#45;&gt;Node124 -->
<g id="edge28" class="edge">
<title>Node197&#45;&gt;Node124</title>
<path fill="none" stroke="#63b8ff" d="M1897.3,-126.1C1894.43,-116.43 1891.04,-105.02 1888.43,-96.23"/>
<polygon fill="#63b8ff" stroke="#63b8ff" points="1893.93,-127.06 1900.14,-135.65 1900.65,-125.07 1893.93,-127.06"/>
</g>
<!-- Node209&#45;&gt;Node18 -->
<g id="edge32" class="edge">
<title>Node209&#45;&gt;Node18</title>
<path fill="none" stroke="#63b8ff" d="M3149.19,-120.59C3150.02,-110.06 3150.92,-98.53 3151.52,-90.84"/>
<polygon fill="#63b8ff" stroke="#63b8ff" points="3145.73,-120.05 3148.44,-130.29 3152.7,-120.59 3145.73,-120.05"/>
</g>
<!-- Node240&#45;&gt;Node15 -->
<g id="edge42" class="edge">
<title>Node240&#45;&gt;Node15</title>
<path fill="none" stroke="#63b8ff" d="M488.57,-199.97C525.13,-189.33 578.55,-173.79 617.44,-162.48"/>
<polygon fill="#63b8ff" stroke="#63b8ff" points="487.88,-196.52 479.25,-202.68 489.83,-203.25 487.88,-196.52"/>
</g>
<!-- Node241&#45;&gt;Node165 -->
<g id="edge46" class="edge">
<title>Node241&#45;&gt;Node165</title>
<path fill="none" stroke="#63b8ff" d="M311.39,-190.07C330.79,-173.08 359.17,-149.55 386.21,-132 407.2,-118.38 432.37,-105.6 451.94,-96.38"/>
<polygon fill="#63b8ff" stroke="#63b8ff" points="309.18,-187.35 304.02,-196.6 313.82,-192.59 309.18,-187.35"/>
</g>
<!-- Node241&#45;&gt;Node218 -->
<g id="edge44" class="edge">
<title>Node241&#45;&gt;Node218</title>
<path fill="none" stroke="#63b8ff" d="M347.55,-202.26C359.35,-200.62 371.65,-199.1 383.21,-198 782.28,-160 1264.97,-150.74 1431.95,-148.61"/>
<polygon fill="#63b8ff" stroke="#63b8ff" points="347.33,-198.76 337.92,-203.64 348.32,-205.69 347.33,-198.76"/>
</g>
<!-- Node241&#45;&gt;Node51 -->
<g id="edge45" class="edge">
<title>Node241&#45;&gt;Node51</title>
<path fill="none" stroke="#63b8ff" d="M279.37,-186.93C276.05,-176.31 272.4,-164.61 269.97,-156.84"/>
<polygon fill="#63b8ff" stroke="#63b8ff" points="276,-187.85 282.32,-196.35 282.68,-185.76 276,-187.85"/>
</g>
</g>
</svg>
