<?xml version="1.0" encoding="UTF-8" standalone="no"?>
<!DOCTYPE svg PUBLIC "-//W3C//DTD SVG 1.1//EN"
 "http://www.w3.org/Graphics/SVG/1.1/DTD/svg11.dtd">
<!-- Generated by graphviz version 7.0.5 (20221223.1930)
 -->
<!-- Title: include/JSystem/JAudio2/JASAramStream.h Pages: 1 -->
<svg width="332pt" height="170pt"
 viewBox="0.00 0.00 332.00 170.00" xmlns="http://www.w3.org/2000/svg" xmlns:xlink="http://www.w3.org/1999/xlink">
<g id="graph0" class="graph" transform="scale(1 1) rotate(0) translate(4 166)">
<title>include/JSystem/JAudio2/JASAramStream.h</title>
<!-- Node1 -->
<g id="node1" class="node">
<title>Node1</title>
<g id="a_node1"><a xlink:title=" ">
<polygon fill="#999999" stroke="#666666" points="248,-162 121,-162 121,-132 248,-132 248,-162"/>
<text text-anchor="start" x="129" y="-150" font-family="Helvetica,sans-Serif" font-size="10.00">include/JSystem/JAudio2</text>
<text text-anchor="middle" x="184.5" y="-139" font-family="Helvetica,sans-Serif" font-size="10.00">/JASAramStream.h</text>
</a>
</g>
</g>
<!-- Node2 -->
<g id="node2" class="node">
<title>Node2</title>
<g id="a_node2"><a xlink:href="JAIStream_8h.html" target="_top" xlink:title=" ">
<polygon fill="white" stroke="#666666" points="156,-96 29,-96 29,-66 156,-66 156,-96"/>
<text text-anchor="start" x="37" y="-84" font-family="Helvetica,sans-Serif" font-size="10.00">include/JSystem/JAudio2</text>
<text text-anchor="middle" x="92.5" y="-73" font-family="Helvetica,sans-Serif" font-size="10.00">/JAIStream.h</text>
</a>
</g>
</g>
<!-- Node1&#45;&gt;Node2 -->
<g id="edge1" class="edge">
<title>Node1&#45;&gt;Node2</title>
<path fill="none" stroke="#63b8ff" d="M154.67,-125.25C141.11,-115.82 125.41,-104.9 113.18,-96.39"/>
<polygon fill="#63b8ff" stroke="#63b8ff" points="152.63,-128.09 162.84,-130.93 156.63,-122.35 152.63,-128.09"/>
</g>
<!-- Node4 -->
<g id="node4" class="node">
<title>Node4</title>
<g id="a_node4"><a xlink:href="JAUInitializer_8cpp.html" target="_top" xlink:title=" ">
<polygon fill="white" stroke="#666666" points="240,-30 129,-30 129,0 240,0 240,-30"/>
<text text-anchor="start" x="137" y="-18" font-family="Helvetica,sans-Serif" font-size="10.00">libs/JSystem/JAudio2</text>
<text text-anchor="middle" x="184.5" y="-7" font-family="Helvetica,sans-Serif" font-size="10.00">/JAUInitializer.cpp</text>
</a>
</g>
</g>
<!-- Node1&#45;&gt;Node4 -->
<g id="edge5" class="edge">
<title>Node1&#45;&gt;Node4</title>
<path fill="none" stroke="#63b8ff" d="M184.5,-120.38C184.5,-93.49 184.5,-52.18 184.5,-30.47"/>
<polygon fill="#63b8ff" stroke="#63b8ff" points="181,-120.08 184.5,-130.08 188,-120.08 181,-120.08"/>
</g>
<!-- Node5 -->
<g id="node5" class="node">
<title>Node5</title>
<g id="a_node5"><a xlink:href="JASAramStream_8cpp.html" target="_top" xlink:title=" ">
<polygon fill="white" stroke="#666666" points="324,-96 213,-96 213,-66 324,-66 324,-96"/>
<text text-anchor="start" x="221" y="-84" font-family="Helvetica,sans-Serif" font-size="10.00">libs/JSystem/JAudio2</text>
<text text-anchor="middle" x="268.5" y="-73" font-family="Helvetica,sans-Serif" font-size="10.00">/JASAramStream.cpp</text>
</a>
</g>
</g>
<!-- Node1&#45;&gt;Node5 -->
<g id="edge4" class="edge">
<title>Node1&#45;&gt;Node5</title>
<path fill="none" stroke="#63b8ff" d="M212.1,-124.97C224.39,-115.61 238.56,-104.81 249.62,-96.39"/>
<polygon fill="#63b8ff" stroke="#63b8ff" points="210.18,-122.03 204.35,-130.88 214.42,-127.6 210.18,-122.03"/>
</g>
<!-- Node3 -->
<g id="node3" class="node">
<title>Node3</title>
<g id="a_node3"><a xlink:href="JAIStream_8cpp.html" target="_top" xlink:title=" ">
<polygon fill="white" stroke="#666666" points="111,-30 0,-30 0,0 111,0 111,-30"/>
<text text-anchor="start" x="8" y="-18" font-family="Helvetica,sans-Serif" font-size="10.00">libs/JSystem/JAudio2</text>
<text text-anchor="middle" x="55.5" y="-7" font-family="Helvetica,sans-Serif" font-size="10.00">/JAIStream.cpp</text>
</a>
</g>
</g>
<!-- Node2&#45;&gt;Node3 -->
<g id="edge2" class="edge">
<title>Node2&#45;&gt;Node3</title>
<path fill="none" stroke="#63b8ff" d="M78.69,-56.11C73.64,-47.38 68.09,-37.78 63.69,-30.16"/>
<polygon fill="#63b8ff" stroke="#63b8ff" points="75.5,-57.58 83.53,-64.49 81.56,-54.08 75.5,-57.58"/>
</g>
<!-- Node2&#45;&gt;Node4 -->
<g id="edge3" class="edge">
<title>Node2&#45;&gt;Node4</title>
<path fill="none" stroke="#63b8ff" d="M122.33,-59.25C135.89,-49.82 151.59,-38.9 163.82,-30.39"/>
<polygon fill="#63b8ff" stroke="#63b8ff" points="120.37,-56.35 114.16,-64.93 124.37,-62.09 120.37,-56.35"/>
</g>
</g>
</svg>
