<?xml version="1.0" encoding="UTF-8" standalone="no"?>
<!DOCTYPE svg PUBLIC "-//W3C//DTD SVG 1.1//EN"
 "http://www.w3.org/Graphics/SVG/1.1/DTD/svg11.dtd">
<!-- Generated by graphviz version 7.0.5 (20221223.1930)
 -->
<!-- Title: libs/JSystem/JAudio2/JASBank.cpp Pages: 1 -->
<svg width="694pt" height="247pt"
 viewBox="0.00 0.00 694.00 247.00" xmlns="http://www.w3.org/2000/svg" xmlns:xlink="http://www.w3.org/1999/xlink">
<g id="graph0" class="graph" transform="scale(1 1) rotate(0) translate(4 243)">
<title>libs/JSystem/JAudio2/JASBank.cpp</title>
<!-- Node1 -->
<g id="node1" class="node">
<title>Node1</title>
<g id="a_node1"><a xlink:title=" ">
<polygon fill="#999999" stroke="#666666" points="327,-239 216,-239 216,-209 327,-209 327,-239"/>
<text text-anchor="start" x="224" y="-227" font-family="Helvetica,sans-Serif" font-size="10.00">libs/JSystem/JAudio2</text>
<text text-anchor="middle" x="271.5" y="-216" font-family="Helvetica,sans-Serif" font-size="10.00">/JASBank.cpp</text>
</a>
</g>
</g>
<!-- Node2 -->
<g id="node2" class="node">
<title>Node2</title>
<g id="a_node2"><a xlink:href="JASBank_8h.html" target="_top" xlink:title=" ">
<polygon fill="white" stroke="#666666" points="145,-156.5 0,-156.5 0,-137.5 145,-137.5 145,-156.5"/>
<text text-anchor="middle" x="72.5" y="-144.5" font-family="Helvetica,sans-Serif" font-size="10.00">JSystem/JAudio2/JASBank.h</text>
</a>
</g>
</g>
<!-- Node1&#45;&gt;Node2 -->
<g id="edge1" class="edge">
<title>Node1&#45;&gt;Node2</title>
<path fill="none" stroke="#63b8ff" d="M233.13,-208.54C196.54,-194.75 141.95,-174.18 106.79,-160.92"/>
<polygon fill="#63b8ff" stroke="#63b8ff" points="108.11,-157.68 97.51,-157.43 105.64,-164.23 108.11,-157.68"/>
</g>
<!-- Node5 -->
<g id="node5" class="node">
<title>Node5</title>
<g id="a_node5"><a xlink:href="dol2asm_8h.html" target="_top" xlink:title=" ">
<polygon fill="white" stroke="#666666" points="224,-156.5 163,-156.5 163,-137.5 224,-137.5 224,-156.5"/>
<text text-anchor="middle" x="193.5" y="-144.5" font-family="Helvetica,sans-Serif" font-size="10.00">dol2asm.h</text>
</a>
</g>
</g>
<!-- Node1&#45;&gt;Node5 -->
<g id="edge4" class="edge">
<title>Node1&#45;&gt;Node5</title>
<path fill="none" stroke="#63b8ff" d="M256.46,-208.54C243.39,-195.97 224.45,-177.76 210.76,-164.6"/>
<polygon fill="#63b8ff" stroke="#63b8ff" points="213.36,-162.24 203.73,-157.84 208.51,-167.29 213.36,-162.24"/>
</g>
<!-- Node6 -->
<g id="node6" class="node">
<title>Node6</title>
<g id="a_node6"><a xlink:title=" ">
<polygon fill="#e0e0e0" stroke="#999999" points="459,-173 242,-173 242,-121 459,-121 459,-173"/>
<text text-anchor="start" x="250" y="-161" font-family="Helvetica,sans-Serif" font-size="10.00">asm/JSystem/JAudio2</text>
<text text-anchor="start" x="250" y="-150" font-family="Helvetica,sans-Serif" font-size="10.00">/JASBank/noteOn__7JASBankFPC7</text>
<text text-anchor="start" x="250" y="-139" font-family="Helvetica,sans-Serif" font-size="10.00">JASBankiUcUcUsPFUlP10JASChannelPQ26</text>
<text text-anchor="middle" x="350.5" y="-128" font-family="Helvetica,sans-Serif" font-size="10.00">JASDsp8TChannelPv_vPv.s</text>
</a>
</g>
</g>
<!-- Node1&#45;&gt;Node6 -->
<g id="edge5" class="edge">
<title>Node1&#45;&gt;Node6</title>
<path fill="none" stroke="#63b8ff" d="M286.73,-208.54C294.93,-200.76 305.4,-190.81 315.48,-181.25"/>
<polygon fill="#63b8ff" stroke="#63b8ff" points="317.86,-183.82 322.7,-174.39 313.04,-178.74 317.86,-183.82"/>
</g>
<!-- Node7 -->
<g id="node7" class="node">
<title>Node7</title>
<g id="a_node7"><a xlink:title=" ">
<polygon fill="#e0e0e0" stroke="#999999" points="686,-173 477,-173 477,-121 686,-121 686,-173"/>
<text text-anchor="start" x="485" y="-161" font-family="Helvetica,sans-Serif" font-size="10.00">asm/JSystem/JAudio2</text>
<text text-anchor="start" x="485" y="-150" font-family="Helvetica,sans-Serif" font-size="10.00">/JASBank/noteOnOsc_</text>
<text text-anchor="start" x="485" y="-139" font-family="Helvetica,sans-Serif" font-size="10.00">_7JASBankFiUcUcUsPFUlP10JASChannel</text>
<text text-anchor="middle" x="581.5" y="-128" font-family="Helvetica,sans-Serif" font-size="10.00">PQ26JASDsp8TChannelPv_vPv.s</text>
</a>
</g>
</g>
<!-- Node1&#45;&gt;Node7 -->
<g id="edge6" class="edge">
<title>Node1&#45;&gt;Node7</title>
<path fill="none" stroke="#63b8ff" d="M327.28,-209.5C365.77,-200.19 418.34,-187.47 465.69,-176.02"/>
<polygon fill="#63b8ff" stroke="#63b8ff" points="466.28,-179.48 475.18,-173.72 464.64,-172.67 466.28,-179.48"/>
</g>
<!-- Node3 -->
<g id="node3" class="node">
<title>Node3</title>
<g id="a_node3"><a xlink:href="types_8h.html" target="_top" xlink:title=" ">
<polygon fill="white" stroke="#666666" points="113,-85 32,-85 32,-66 113,-66 113,-85"/>
<text text-anchor="middle" x="72.5" y="-73" font-family="Helvetica,sans-Serif" font-size="10.00">dolphin/types.h</text>
</a>
</g>
</g>
<!-- Node2&#45;&gt;Node3 -->
<g id="edge2" class="edge">
<title>Node2&#45;&gt;Node3</title>
<path fill="none" stroke="#63b8ff" d="M72.5,-137.2C72.5,-127.12 72.5,-110.29 72.5,-96.9"/>
<polygon fill="#63b8ff" stroke="#63b8ff" points="76,-96.96 72.5,-86.96 69,-96.96 76,-96.96"/>
</g>
<!-- Node4 -->
<g id="node4" class="node">
<title>Node4</title>
<g id="a_node4"><a xlink:href="stddef_8h.html" target="_top" xlink:title=" ">
<polygon fill="white" stroke="#666666" points="140.5,-30 4.5,-30 4.5,0 140.5,0 140.5,-30"/>
<text text-anchor="start" x="12.5" y="-18" font-family="Helvetica,sans-Serif" font-size="10.00">MSL_C/MSL_Common/Src</text>
<text text-anchor="middle" x="72.5" y="-7" font-family="Helvetica,sans-Serif" font-size="10.00">/stddef.h</text>
</a>
</g>
</g>
<!-- Node3&#45;&gt;Node4 -->
<g id="edge3" class="edge">
<title>Node3&#45;&gt;Node4</title>
<path fill="none" stroke="#63b8ff" d="M72.5,-65.87C72.5,-59.4 72.5,-50.2 72.5,-41.45"/>
<polygon fill="#63b8ff" stroke="#63b8ff" points="76,-41.63 72.5,-31.63 69,-41.63 76,-41.63"/>
</g>
</g>
</svg>
