<?xml version="1.0" encoding="UTF-8" standalone="no"?>
<!DOCTYPE svg PUBLIC "-//W3C//DTD SVG 1.1//EN"
 "http://www.w3.org/Graphics/SVG/1.1/DTD/svg11.dtd">
<!-- Generated by graphviz version 7.0.5 (20221223.1930)
 -->
<!-- Title: include/JSystem/JAudio2/JASHeapCtrl.h Pages: 1 -->
<svg width="3478pt" height="489pt"
 viewBox="0.00 0.00 3478.36 489.00" xmlns="http://www.w3.org/2000/svg" xmlns:xlink="http://www.w3.org/1999/xlink">
<g id="graph0" class="graph" transform="scale(1 1) rotate(0) translate(4 485)">
<title>include/JSystem/JAudio2/JASHeapCtrl.h</title>
<!-- Node1 -->
<g id="node1" class="node">
<title>Node1</title>
<g id="a_node1"><a xlink:title=" ">
<polygon fill="#999999" stroke="#666666" points="2874.36,-481 2747.36,-481 2747.36,-451 2874.36,-451 2874.36,-481"/>
<text text-anchor="start" x="2755.36" y="-469" font-family="Helvetica,sans-Serif" font-size="10.00">include/JSystem/JAudio2</text>
<text text-anchor="middle" x="2810.86" y="-458" font-family="Helvetica,sans-Serif" font-size="10.00">/JASHeapCtrl.h</text>
</a>
</g>
</g>
<!-- Node2 -->
<g id="node2" class="node">
<title>Node2</title>
<g id="a_node2"><a xlink:href="JAISeMgr_8h.html" target="_top" xlink:title=" ">
<polygon fill="white" stroke="#666666" points="2167.36,-415 2040.36,-415 2040.36,-385 2167.36,-385 2167.36,-415"/>
<text text-anchor="start" x="2048.36" y="-403" font-family="Helvetica,sans-Serif" font-size="10.00">include/JSystem/JAudio2</text>
<text text-anchor="middle" x="2103.86" y="-392" font-family="Helvetica,sans-Serif" font-size="10.00">/JAISeMgr.h</text>
</a>
</g>
</g>
<!-- Node1&#45;&gt;Node2 -->
<g id="edge1" class="edge">
<title>Node1&#45;&gt;Node2</title>
<path fill="none" stroke="#63b8ff" d="M2735.46,-458.17C2595.59,-445.51 2298.34,-418.6 2167.7,-406.78"/>
<polygon fill="#63b8ff" stroke="#63b8ff" points="2735.09,-461.66 2745.36,-459.07 2735.72,-454.68 2735.09,-461.66"/>
</g>
<!-- Node371 -->
<g id="node39" class="node">
<title>Node371</title>
<g id="a_node39"><a xlink:href="JAISeq_8h.html" target="_top" xlink:title=" ">
<polygon fill="white" stroke="#666666" points="2480.36,-415 2353.36,-415 2353.36,-385 2480.36,-385 2480.36,-415"/>
<text text-anchor="start" x="2361.36" y="-403" font-family="Helvetica,sans-Serif" font-size="10.00">include/JSystem/JAudio2</text>
<text text-anchor="middle" x="2416.86" y="-392" font-family="Helvetica,sans-Serif" font-size="10.00">/JAISeq.h</text>
</a>
</g>
</g>
<!-- Node1&#45;&gt;Node371 -->
<g id="edge40" class="edge">
<title>Node1&#45;&gt;Node371</title>
<path fill="none" stroke="#63b8ff" d="M2735.74,-453.56C2671.67,-443.7 2577.14,-428.89 2494.86,-415 2490.25,-414.22 2485.48,-413.4 2480.69,-412.57"/>
<polygon fill="#63b8ff" stroke="#63b8ff" points="2735.03,-456.99 2745.45,-455.05 2736.1,-450.07 2735.03,-456.99"/>
</g>
<!-- Node373 -->
<g id="node41" class="node">
<title>Node373</title>
<g id="a_node41"><a xlink:href="JAUInitializer_8cpp.html" target="_top" xlink:title=" ">
<polygon fill="white" stroke="#666666" points="2541.36,-349 2430.36,-349 2430.36,-319 2541.36,-319 2541.36,-349"/>
<text text-anchor="start" x="2438.36" y="-337" font-family="Helvetica,sans-Serif" font-size="10.00">libs/JSystem/JAudio2</text>
<text text-anchor="middle" x="2485.86" y="-326" font-family="Helvetica,sans-Serif" font-size="10.00">/JAUInitializer.cpp</text>
</a>
</g>
</g>
<!-- Node1&#45;&gt;Node373 -->
<g id="edge55" class="edge">
<title>Node1&#45;&gt;Node373</title>
<path fill="none" stroke="#63b8ff" d="M2735.8,-459.2C2663.42,-452.31 2560.22,-438.65 2527.86,-415 2505.82,-398.89 2494.34,-367.72 2489.24,-349.41"/>
<polygon fill="#63b8ff" stroke="#63b8ff" points="2735.35,-462.67 2745.63,-460.11 2735.99,-455.7 2735.35,-462.67"/>
</g>
<!-- Node374 -->
<g id="node42" class="node">
<title>Node374</title>
<g id="a_node42"><a xlink:href="JASWaveArcLoader_8h.html" target="_top" xlink:title=" ">
<polygon fill="white" stroke="#666666" points="2664.36,-415 2537.36,-415 2537.36,-385 2664.36,-385 2664.36,-415"/>
<text text-anchor="start" x="2545.36" y="-403" font-family="Helvetica,sans-Serif" font-size="10.00">include/JSystem/JAudio2</text>
<text text-anchor="middle" x="2600.86" y="-392" font-family="Helvetica,sans-Serif" font-size="10.00">/JASWaveArcLoader.h</text>
</a>
</g>
</g>
<!-- Node1&#45;&gt;Node374 -->
<g id="edge43" class="edge">
<title>Node1&#45;&gt;Node374</title>
<path fill="none" stroke="#63b8ff" d="M2752.62,-447.25C2719.68,-437.21 2679.02,-424.82 2648.08,-415.39"/>
<polygon fill="#63b8ff" stroke="#63b8ff" points="2751.44,-450.55 2762.02,-450.12 2753.48,-443.85 2751.44,-450.55"/>
</g>
<!-- Node376 -->
<g id="node44" class="node">
<title>Node376</title>
<g id="a_node44"><a xlink:href="Z2Audience_8h.html" target="_top" xlink:title=" ">
<polygon fill="white" stroke="#666666" points="2782.86,-415 2682.86,-415 2682.86,-385 2782.86,-385 2782.86,-415"/>
<text text-anchor="start" x="2690.86" y="-403" font-family="Helvetica,sans-Serif" font-size="10.00">include/Z2AudioLib</text>
<text text-anchor="middle" x="2732.86" y="-392" font-family="Helvetica,sans-Serif" font-size="10.00">/Z2Audience.h</text>
</a>
</g>
</g>
<!-- Node1&#45;&gt;Node376 -->
<g id="edge46" class="edge">
<title>Node1&#45;&gt;Node376</title>
<path fill="none" stroke="#63b8ff" d="M2784.9,-443.7C2773.56,-434.4 2760.56,-423.73 2750.39,-415.39"/>
<polygon fill="#63b8ff" stroke="#63b8ff" points="2782.43,-446.2 2792.38,-449.84 2786.87,-440.79 2782.43,-446.2"/>
</g>
<!-- Node377 -->
<g id="node45" class="node">
<title>Node377</title>
<g id="a_node45"><a xlink:href="Z2Audience_8cpp.html" target="_top" xlink:title=" ">
<polygon fill="white" stroke="#666666" points="2937.36,-343.5 2780.36,-343.5 2780.36,-324.5 2937.36,-324.5 2937.36,-343.5"/>
<text text-anchor="middle" x="2858.86" y="-331.5" font-family="Helvetica,sans-Serif" font-size="10.00">libs/Z2AudioLib/Z2Audience.cpp</text>
</a>
</g>
</g>
<!-- Node1&#45;&gt;Node377 -->
<g id="edge56" class="edge">
<title>Node1&#45;&gt;Node377</title>
<path fill="none" stroke="#63b8ff" d="M2815.41,-439.63C2818.71,-423.62 2823.83,-402.71 2830.86,-385 2836.88,-369.83 2846.68,-353.58 2852.94,-343.86"/>
<polygon fill="#63b8ff" stroke="#63b8ff" points="2812,-438.8 2813.52,-449.29 2818.87,-440.14 2812,-438.8"/>
</g>
<!-- Node378 -->
<g id="node46" class="node">
<title>Node378</title>
<g id="a_node46"><a xlink:href="JASAiCtrl_8cpp.html" target="_top" xlink:title=" ">
<polygon fill="white" stroke="#666666" points="2950.36,-415 2839.36,-415 2839.36,-385 2950.36,-385 2950.36,-415"/>
<text text-anchor="start" x="2847.36" y="-403" font-family="Helvetica,sans-Serif" font-size="10.00">libs/JSystem/JAudio2</text>
<text text-anchor="middle" x="2894.86" y="-392" font-family="Helvetica,sans-Serif" font-size="10.00">/JASAiCtrl.cpp</text>
</a>
</g>
</g>
<!-- Node1&#45;&gt;Node378 -->
<g id="edge50" class="edge">
<title>Node1&#45;&gt;Node378</title>
<path fill="none" stroke="#63b8ff" d="M2838.46,-443.97C2850.75,-434.61 2864.92,-423.81 2875.98,-415.39"/>
<polygon fill="#63b8ff" stroke="#63b8ff" points="2836.54,-441.03 2830.71,-449.88 2840.78,-446.6 2836.54,-441.03"/>
</g>
<!-- Node379 -->
<g id="node47" class="node">
<title>Node379</title>
<g id="a_node47"><a xlink:href="JASAudioThread_8cpp.html" target="_top" xlink:title=" ">
<polygon fill="white" stroke="#666666" points="3079.36,-415 2968.36,-415 2968.36,-385 3079.36,-385 3079.36,-415"/>
<text text-anchor="start" x="2976.36" y="-403" font-family="Helvetica,sans-Serif" font-size="10.00">libs/JSystem/JAudio2</text>
<text text-anchor="middle" x="3023.86" y="-392" font-family="Helvetica,sans-Serif" font-size="10.00">/JASAudioThread.cpp</text>
</a>
</g>
</g>
<!-- Node1&#45;&gt;Node379 -->
<g id="edge51" class="edge">
<title>Node1&#45;&gt;Node379</title>
<path fill="none" stroke="#63b8ff" d="M2869.93,-447.25C2903.35,-437.21 2944.59,-424.82 2975.97,-415.39"/>
<polygon fill="#63b8ff" stroke="#63b8ff" points="2868.95,-443.89 2860.38,-450.12 2870.96,-450.6 2868.95,-443.89"/>
</g>
<!-- Node380 -->
<g id="node48" class="node">
<title>Node380</title>
<g id="a_node48"><a xlink:href="JASDSPInterface_8cpp.html" target="_top" xlink:title=" ">
<polygon fill="white" stroke="#666666" points="3212.36,-415 3097.36,-415 3097.36,-385 3212.36,-385 3212.36,-415"/>
<text text-anchor="start" x="3105.36" y="-403" font-family="Helvetica,sans-Serif" font-size="10.00">libs/JSystem/JAudio2</text>
<text text-anchor="middle" x="3154.86" y="-392" font-family="Helvetica,sans-Serif" font-size="10.00">/JASDSPInterface.cpp</text>
</a>
</g>
</g>
<!-- Node1&#45;&gt;Node380 -->
<g id="edge52" class="edge">
<title>Node1&#45;&gt;Node380</title>
<path fill="none" stroke="#63b8ff" d="M2885.98,-452.14C2941.98,-442.39 3020.31,-428.43 3088.86,-415 3091.5,-414.48 3094.21,-413.94 3096.93,-413.39"/>
<polygon fill="#63b8ff" stroke="#63b8ff" points="2885.48,-448.68 2876.22,-453.83 2886.67,-455.57 2885.48,-448.68"/>
</g>
<!-- Node381 -->
<g id="node49" class="node">
<title>Node381</title>
<g id="a_node49"><a xlink:href="JASDvdThread_8cpp.html" target="_top" xlink:title=" ">
<polygon fill="white" stroke="#666666" points="3341.36,-415 3230.36,-415 3230.36,-385 3341.36,-385 3341.36,-415"/>
<text text-anchor="start" x="3238.36" y="-403" font-family="Helvetica,sans-Serif" font-size="10.00">libs/JSystem/JAudio2</text>
<text text-anchor="middle" x="3285.86" y="-392" font-family="Helvetica,sans-Serif" font-size="10.00">/JASDvdThread.cpp</text>
</a>
</g>
</g>
<!-- Node1&#45;&gt;Node381 -->
<g id="edge53" class="edge">
<title>Node1&#45;&gt;Node381</title>
<path fill="none" stroke="#63b8ff" d="M2886.15,-457.99C2968.8,-449.8 3105.28,-434.8 3221.86,-415 3224.55,-414.54 3227.3,-414.05 3230.07,-413.53"/>
<polygon fill="#63b8ff" stroke="#63b8ff" points="2885.97,-454.49 2876.36,-458.95 2886.65,-461.46 2885.97,-454.49"/>
</g>
<!-- Node382 -->
<g id="node50" class="node">
<title>Node382</title>
<g id="a_node50"><a xlink:href="JASHeapCtrl_8cpp.html" target="_top" xlink:title=" ">
<polygon fill="white" stroke="#666666" points="3470.36,-415 3359.36,-415 3359.36,-385 3470.36,-385 3470.36,-415"/>
<text text-anchor="start" x="3367.36" y="-403" font-family="Helvetica,sans-Serif" font-size="10.00">libs/JSystem/JAudio2</text>
<text text-anchor="middle" x="3414.86" y="-392" font-family="Helvetica,sans-Serif" font-size="10.00">/JASHeapCtrl.cpp</text>
</a>
</g>
</g>
<!-- Node1&#45;&gt;Node382 -->
<g id="edge54" class="edge">
<title>Node1&#45;&gt;Node382</title>
<path fill="none" stroke="#63b8ff" d="M2886.15,-460.96C2990.84,-454.68 3186.08,-440.55 3350.86,-415 3353.56,-414.58 3356.31,-414.12 3359.09,-413.62"/>
<polygon fill="#63b8ff" stroke="#63b8ff" points="2886.05,-457.46 2876.28,-461.55 2886.47,-464.45 2886.05,-457.46"/>
</g>
<!-- Node3 -->
<g id="node3" class="node">
<title>Node3</title>
<g id="a_node3"><a xlink:href="Z2SoundMgr_8h.html" target="_top" xlink:title=" ">
<polygon fill="white" stroke="#666666" points="2153.86,-349 2053.86,-349 2053.86,-319 2153.86,-319 2153.86,-349"/>
<text text-anchor="start" x="2061.86" y="-337" font-family="Helvetica,sans-Serif" font-size="10.00">include/Z2AudioLib</text>
<text text-anchor="middle" x="2103.86" y="-326" font-family="Helvetica,sans-Serif" font-size="10.00">/Z2SoundMgr.h</text>
</a>
</g>
</g>
<!-- Node2&#45;&gt;Node3 -->
<g id="edge2" class="edge">
<title>Node2&#45;&gt;Node3</title>
<path fill="none" stroke="#63b8ff" d="M2103.86,-373.39C2103.86,-365.13 2103.86,-356.28 2103.86,-349.16"/>
<polygon fill="#63b8ff" stroke="#63b8ff" points="2100.36,-373.28 2103.86,-383.28 2107.36,-373.28 2100.36,-373.28"/>
</g>
<!-- Node368 -->
<g id="node36" class="node">
<title>Node368</title>
<g id="a_node36"><a xlink:href="JAISe_8cpp.html" target="_top" xlink:title=" ">
<polygon fill="white" stroke="#666666" points="2283.36,-349 2172.36,-349 2172.36,-319 2283.36,-319 2283.36,-349"/>
<text text-anchor="start" x="2180.36" y="-337" font-family="Helvetica,sans-Serif" font-size="10.00">libs/JSystem/JAudio2</text>
<text text-anchor="middle" x="2227.86" y="-326" font-family="Helvetica,sans-Serif" font-size="10.00">/JAISe.cpp</text>
</a>
</g>
</g>
<!-- Node2&#45;&gt;Node368 -->
<g id="edge37" class="edge">
<title>Node2&#45;&gt;Node368</title>
<path fill="none" stroke="#63b8ff" d="M2141.73,-379.45C2160.56,-369.73 2182.91,-358.2 2200.13,-349.31"/>
<polygon fill="#63b8ff" stroke="#63b8ff" points="2140.31,-376.25 2133.03,-383.94 2143.52,-382.47 2140.31,-376.25"/>
</g>
<!-- Node369 -->
<g id="node37" class="node">
<title>Node369</title>
<g id="a_node37"><a xlink:href="JAISeMgr_8cpp.html" target="_top" xlink:title=" ">
<polygon fill="white" stroke="#666666" points="1890.36,-349 1779.36,-349 1779.36,-319 1890.36,-319 1890.36,-349"/>
<text text-anchor="start" x="1787.36" y="-337" font-family="Helvetica,sans-Serif" font-size="10.00">libs/JSystem/JAudio2</text>
<text text-anchor="middle" x="1834.86" y="-326" font-family="Helvetica,sans-Serif" font-size="10.00">/JAISeMgr.cpp</text>
</a>
</g>
</g>
<!-- Node2&#45;&gt;Node369 -->
<g id="edge38" class="edge">
<title>Node2&#45;&gt;Node369</title>
<path fill="none" stroke="#63b8ff" d="M2032.16,-381.94C1987.83,-371.4 1931.78,-358.06 1890.76,-348.3"/>
<polygon fill="#63b8ff" stroke="#63b8ff" points="2031.14,-385.3 2041.68,-384.21 2032.77,-378.49 2031.14,-385.3"/>
</g>
<!-- Node370 -->
<g id="node38" class="node">
<title>Node370</title>
<g id="a_node38"><a xlink:href="JAUAudioArcLoader_8cpp.html" target="_top" xlink:title=" ">
<polygon fill="white" stroke="#666666" points="2035.36,-349 1908.36,-349 1908.36,-319 2035.36,-319 2035.36,-349"/>
<text text-anchor="start" x="1916.36" y="-337" font-family="Helvetica,sans-Serif" font-size="10.00">libs/JSystem/JAudio2</text>
<text text-anchor="middle" x="1971.86" y="-326" font-family="Helvetica,sans-Serif" font-size="10.00">/JAUAudioArcLoader.cpp</text>
</a>
</g>
</g>
<!-- Node2&#45;&gt;Node370 -->
<g id="edge39" class="edge">
<title>Node2&#45;&gt;Node370</title>
<path fill="none" stroke="#63b8ff" d="M2064.1,-379.72C2043.94,-369.95 2019.88,-358.28 2001.38,-349.31"/>
<polygon fill="#63b8ff" stroke="#63b8ff" points="2062.35,-382.76 2072.87,-383.98 2065.4,-376.46 2062.35,-382.76"/>
</g>
<!-- Node4 -->
<g id="node4" class="node">
<title>Node4</title>
<g id="a_node4"><a xlink:href="Z2AudioMgr_8h.html" target="_top" xlink:title=" ">
<polygon fill="white" stroke="#666666" points="2483.86,-283 2383.86,-283 2383.86,-253 2483.86,-253 2483.86,-283"/>
<text text-anchor="start" x="2391.86" y="-271" font-family="Helvetica,sans-Serif" font-size="10.00">include/Z2AudioLib</text>
<text text-anchor="middle" x="2433.86" y="-260" font-family="Helvetica,sans-Serif" font-size="10.00">/Z2AudioMgr.h</text>
</a>
</g>
</g>
<!-- Node3&#45;&gt;Node4 -->
<g id="edge3" class="edge">
<title>Node3&#45;&gt;Node4</title>
<path fill="none" stroke="#63b8ff" d="M2165.6,-318.48C2247.31,-301.46 2331.38,-286.49 2383.51,-277.5"/>
<polygon fill="#63b8ff" stroke="#63b8ff" points="2164.9,-315.05 2155.83,-320.53 2166.34,-321.9 2164.9,-315.05"/>
</g>
<!-- Node365 -->
<g id="node33" class="node">
<title>Node365</title>
<g id="a_node33"><a xlink:href="Z2SceneMgr_8cpp.html" target="_top" xlink:title=" ">
<polygon fill="white" stroke="#666666" points="2095.36,-277.5 1934.36,-277.5 1934.36,-258.5 2095.36,-258.5 2095.36,-277.5"/>
<text text-anchor="middle" x="2014.86" y="-265.5" font-family="Helvetica,sans-Serif" font-size="10.00">libs/Z2AudioLib/Z2SceneMgr.cpp</text>
</a>
</g>
</g>
<!-- Node3&#45;&gt;Node365 -->
<g id="edge34" class="edge">
<title>Node3&#45;&gt;Node365</title>
<path fill="none" stroke="#63b8ff" d="M2075.02,-312.26C2058.82,-300.61 2039.46,-286.69 2027.16,-277.84"/>
<polygon fill="#63b8ff" stroke="#63b8ff" points="2072.72,-314.92 2082.88,-317.91 2076.8,-309.23 2072.72,-314.92"/>
</g>
<!-- Node366 -->
<g id="node34" class="node">
<title>Node366</title>
<g id="a_node34"><a xlink:href="Z2SoundMgr_8cpp.html" target="_top" xlink:title=" ">
<polygon fill="white" stroke="#666666" points="2274.36,-277.5 2113.36,-277.5 2113.36,-258.5 2274.36,-258.5 2274.36,-277.5"/>
<text text-anchor="middle" x="2193.86" y="-265.5" font-family="Helvetica,sans-Serif" font-size="10.00">libs/Z2AudioLib/Z2SoundMgr.cpp</text>
</a>
</g>
</g>
<!-- Node3&#45;&gt;Node366 -->
<g id="edge35" class="edge">
<title>Node3&#45;&gt;Node366</title>
<path fill="none" stroke="#63b8ff" d="M2133.03,-312.26C2149.4,-300.61 2168.99,-286.69 2181.42,-277.84"/>
<polygon fill="#63b8ff" stroke="#63b8ff" points="2131.19,-309.27 2125.07,-317.92 2135.25,-314.98 2131.19,-309.27"/>
</g>
<!-- Node367 -->
<g id="node35" class="node">
<title>Node367</title>
<g id="a_node35"><a xlink:href="Z2WolfHowlMgr_8cpp.html" target="_top" xlink:title=" ">
<polygon fill="white" stroke="#666666" points="2686.86,-283 2546.86,-283 2546.86,-253 2686.86,-253 2686.86,-283"/>
<text text-anchor="start" x="2554.86" y="-271" font-family="Helvetica,sans-Serif" font-size="10.00">libs/Z2AudioLib/Z2WolfHowl</text>
<text text-anchor="middle" x="2616.86" y="-260" font-family="Helvetica,sans-Serif" font-size="10.00">Mgr.cpp</text>
</a>
</g>
</g>
<!-- Node3&#45;&gt;Node367 -->
<g id="edge36" class="edge">
<title>Node3&#45;&gt;Node367</title>
<path fill="none" stroke="#63b8ff" d="M2165.38,-318.7C2310.17,-294.17 2349.8,-298.88 2492.86,-283 2510.19,-281.08 2528.89,-278.98 2546.37,-277"/>
<polygon fill="#63b8ff" stroke="#63b8ff" points="2165.06,-315.2 2155.8,-320.34 2166.24,-322.1 2165.06,-315.2"/>
</g>
<!-- Node5 -->
<g id="node5" class="node">
<title>Node5</title>
<g id="a_node5"><a xlink:href="m__Do__audio_8h.html" target="_top" xlink:title=" ">
<polygon fill="white" stroke="#666666" points="2419.86,-217 2279.86,-217 2279.86,-198 2419.86,-198 2419.86,-217"/>
<text text-anchor="middle" x="2349.86" y="-205" font-family="Helvetica,sans-Serif" font-size="10.00">include/m_Do/m_Do_audio.h</text>
</a>
</g>
</g>
<!-- Node4&#45;&gt;Node5 -->
<g id="edge4" class="edge">
<title>Node4&#45;&gt;Node5</title>
<path fill="none" stroke="#63b8ff" d="M2404.05,-246.24C2389.71,-236.25 2373.29,-224.82 2362.32,-217.18"/>
<polygon fill="#63b8ff" stroke="#63b8ff" points="2401.65,-248.83 2411.85,-251.67 2405.65,-243.09 2401.65,-248.83"/>
</g>
<!-- Node364 -->
<g id="node32" class="node">
<title>Node364</title>
<g id="a_node32"><a xlink:href="Z2AudioMgr_8cpp.html" target="_top" xlink:title=" ">
<polygon fill="white" stroke="#666666" points="2595.86,-217 2437.86,-217 2437.86,-198 2595.86,-198 2595.86,-217"/>
<text text-anchor="middle" x="2516.86" y="-205" font-family="Helvetica,sans-Serif" font-size="10.00">libs/Z2AudioLib/Z2AudioMgr.cpp</text>
</a>
</g>
</g>
<!-- Node4&#45;&gt;Node364 -->
<g id="edge33" class="edge">
<title>Node4&#45;&gt;Node364</title>
<path fill="none" stroke="#63b8ff" d="M2463.72,-245.95C2477.8,-236.03 2493.82,-224.74 2504.55,-217.18"/>
<polygon fill="#63b8ff" stroke="#63b8ff" points="2461.77,-243.05 2455.61,-251.67 2465.8,-248.77 2461.77,-243.05"/>
</g>
<!-- Node6 -->
<g id="node6" class="node">
<title>Node6</title>
<g id="a_node6"><a xlink:href="m__Do__ext_8h.html" target="_top" xlink:title=" ">
<polygon fill="#fff0f0" stroke="red" points="1189.86,-156.5 1059.86,-156.5 1059.86,-137.5 1189.86,-137.5 1189.86,-156.5"/>
<text text-anchor="middle" x="1124.86" y="-144.5" font-family="Helvetica,sans-Serif" font-size="10.00">include/m_Do/m_Do_ext.h</text>
</a>
</g>
</g>
<!-- Node5&#45;&gt;Node6 -->
<g id="edge5" class="edge">
<title>Node5&#45;&gt;Node6</title>
<path fill="none" stroke="#63b8ff" d="M2268.4,-202.61C2040.19,-191.71 1397.78,-161.03 1190.34,-151.13"/>
<polygon fill="#63b8ff" stroke="#63b8ff" points="2267.93,-206.09 2278.09,-203.07 2268.27,-199.1 2267.93,-206.09"/>
</g>
<!-- Node53 -->
<g id="node12" class="node">
<title>Node53</title>
<g id="a_node12"><a xlink:href="d__kankyo_8cpp.html" target="_top" xlink:title=" ">
<polygon fill="white" stroke="#666666" points="970.86,-24.5 836.86,-24.5 836.86,-5.5 970.86,-5.5 970.86,-24.5"/>
<text text-anchor="middle" x="903.86" y="-12.5" font-family="Helvetica,sans-Serif" font-size="10.00">src/d/kankyo/d_kankyo.cpp</text>
</a>
</g>
</g>
<!-- Node5&#45;&gt;Node53 -->
<g id="edge25" class="edge">
<title>Node5&#45;&gt;Node53</title>
<path fill="none" stroke="#63b8ff" d="M2268.22,-205.8C1863.21,-201.92 85.86,-180.15 6.86,-96 -2.27,-86.28 -2.3,-75.69 6.86,-66 35.3,-35.94 633.19,-21.35 836.71,-17.25"/>
<polygon fill="#63b8ff" stroke="#63b8ff" points="2267.97,-209.3 2278.01,-205.89 2268.04,-202.3 2267.97,-209.3"/>
</g>
<!-- Node167 -->
<g id="node13" class="node">
<title>Node167</title>
<g id="a_node13"><a xlink:href="d__kankyo__wether_8cpp.html" target="_top" xlink:title=" ">
<polygon fill="white" stroke="#666666" points="1727.86,-30 1611.86,-30 1611.86,0 1727.86,0 1727.86,-30"/>
<text text-anchor="start" x="1619.86" y="-18" font-family="Helvetica,sans-Serif" font-size="10.00">src/d/kankyo/d_kankyo</text>
<text text-anchor="middle" x="1669.86" y="-7" font-family="Helvetica,sans-Serif" font-size="10.00">_wether.cpp</text>
</a>
</g>
</g>
<!-- Node5&#45;&gt;Node167 -->
<g id="edge26" class="edge">
<title>Node5&#45;&gt;Node167</title>
<path fill="none" stroke="#63b8ff" d="M2267.96,-206.02C2173.67,-203.88 2026.18,-195.12 1982.86,-162 1946.28,-134.03 1979.59,-95.05 1943.86,-66 1911.55,-39.73 1798.67,-26.17 1728.27,-20.12"/>
<polygon fill="#63b8ff" stroke="#63b8ff" points="2267.89,-209.52 2277.96,-206.23 2268.03,-202.52 2267.89,-209.52"/>
</g>
<!-- Node11 -->
<g id="node23" class="node">
<title>Node11</title>
<g id="a_node23"><a xlink:href="d__com__inf__game_8cpp.html" target="_top" xlink:title=" ">
<polygon fill="white" stroke="#666666" points="2099.86,-162 1991.86,-162 1991.86,-132 2099.86,-132 2099.86,-162"/>
<text text-anchor="start" x="1999.86" y="-150" font-family="Helvetica,sans-Serif" font-size="10.00">src/d/com/d_com_inf</text>
<text text-anchor="middle" x="2045.86" y="-139" font-family="Helvetica,sans-Serif" font-size="10.00">_game.cpp</text>
</a>
</g>
</g>
<!-- Node5&#45;&gt;Node11 -->
<g id="edge22" class="edge">
<title>Node5&#45;&gt;Node11</title>
<path fill="none" stroke="#63b8ff" d="M2287.21,-195.57C2238.49,-186.92 2169.27,-174.29 2108.86,-162 2106.01,-161.42 2103.08,-160.81 2100.13,-160.19"/>
<polygon fill="#63b8ff" stroke="#63b8ff" points="2286.56,-199.01 2297.02,-197.31 2287.79,-192.12 2286.56,-199.01"/>
</g>
<!-- Node153 -->
<g id="node24" class="node">
<title>Node153</title>
<g id="a_node24"><a xlink:href="d__name_8cpp.html" target="_top" xlink:title=" ">
<polygon fill="white" stroke="#666666" points="2211.86,-156.5 2117.86,-156.5 2117.86,-137.5 2211.86,-137.5 2211.86,-156.5"/>
<text text-anchor="middle" x="2164.86" y="-144.5" font-family="Helvetica,sans-Serif" font-size="10.00">src/d/d_name.cpp</text>
</a>
</g>
</g>
<!-- Node5&#45;&gt;Node153 -->
<g id="edge23" class="edge">
<title>Node5&#45;&gt;Node153</title>
<path fill="none" stroke="#63b8ff" d="M2310.93,-194.19C2275.72,-183.06 2224.71,-166.92 2193.22,-156.97"/>
<polygon fill="#63b8ff" stroke="#63b8ff" points="2309.73,-197.48 2320.32,-197.16 2311.84,-190.81 2309.73,-197.48"/>
</g>
<!-- Node163 -->
<g id="node25" class="node">
<title>Node163</title>
<g id="a_node25"><a xlink:href="d__event__manager_8cpp.html" target="_top" xlink:title=" ">
<polygon fill="white" stroke="#666666" points="2333.36,-162 2230.36,-162 2230.36,-132 2333.36,-132 2333.36,-162"/>
<text text-anchor="start" x="2238.36" y="-150" font-family="Helvetica,sans-Serif" font-size="10.00">src/d/event/d_event</text>
<text text-anchor="middle" x="2281.86" y="-139" font-family="Helvetica,sans-Serif" font-size="10.00">_manager.cpp</text>
</a>
</g>
</g>
<!-- Node5&#45;&gt;Node163 -->
<g id="edge24" class="edge">
<title>Node5&#45;&gt;Node163</title>
<path fill="none" stroke="#63b8ff" d="M2330.99,-190.27C2320.85,-181.54 2308.45,-170.87 2298.64,-162.44"/>
<polygon fill="#63b8ff" stroke="#63b8ff" points="2328.52,-192.76 2338.39,-196.63 2333.09,-187.45 2328.52,-192.76"/>
</g>
<!-- Node15 -->
<g id="node26" class="node">
<title>Node15</title>
<g id="a_node26"><a xlink:href="d__msg__flow_8cpp.html" target="_top" xlink:title=" ">
<polygon fill="white" stroke="#666666" points="2484.36,-156.5 2351.36,-156.5 2351.36,-137.5 2484.36,-137.5 2484.36,-156.5"/>
<text text-anchor="middle" x="2417.86" y="-144.5" font-family="Helvetica,sans-Serif" font-size="10.00">src/d/msg/d_msg_flow.cpp</text>
</a>
</g>
</g>
<!-- Node5&#45;&gt;Node15 -->
<g id="edge27" class="edge">
<title>Node5&#45;&gt;Node15</title>
<path fill="none" stroke="#63b8ff" d="M2368.56,-190.41C2381.09,-179.64 2397.11,-165.85 2407.44,-156.97"/>
<polygon fill="#63b8ff" stroke="#63b8ff" points="2366.63,-187.45 2361.34,-196.63 2371.2,-192.76 2366.63,-187.45"/>
</g>
<!-- Node183 -->
<g id="node27" class="node">
<title>Node183</title>
<g id="a_node27"><a xlink:href="d__s__name_8cpp.html" target="_top" xlink:title=" ">
<polygon fill="white" stroke="#666666" points="2615.36,-156.5 2502.36,-156.5 2502.36,-137.5 2615.36,-137.5 2615.36,-156.5"/>
<text text-anchor="middle" x="2558.86" y="-144.5" font-family="Helvetica,sans-Serif" font-size="10.00">src/d/s/d_s_name.cpp</text>
</a>
</g>
</g>
<!-- Node5&#45;&gt;Node183 -->
<g id="edge28" class="edge">
<title>Node5&#45;&gt;Node183</title>
<path fill="none" stroke="#63b8ff" d="M2392.55,-194.55C2432.37,-183.41 2490.86,-167.03 2526.82,-156.97"/>
<polygon fill="#63b8ff" stroke="#63b8ff" points="2391.75,-191.14 2383.06,-197.21 2393.63,-197.88 2391.75,-191.14"/>
</g>
<!-- Node59 -->
<g id="node28" class="node">
<title>Node59</title>
<g id="a_node28"><a xlink:href="d__s__play_8cpp.html" target="_top" xlink:title=" ">
<polygon fill="white" stroke="#666666" points="2739.86,-156.5 2633.86,-156.5 2633.86,-137.5 2739.86,-137.5 2739.86,-156.5"/>
<text text-anchor="middle" x="2686.86" y="-144.5" font-family="Helvetica,sans-Serif" font-size="10.00">src/d/s/d_s_play.cpp</text>
</a>
</g>
</g>
<!-- Node5&#45;&gt;Node59 -->
<g id="edge29" class="edge">
<title>Node5&#45;&gt;Node59</title>
<path fill="none" stroke="#63b8ff" d="M2423.45,-195.85C2478.96,-187.52 2556.89,-175.16 2624.86,-162 2632.66,-160.49 2640.98,-158.72 2648.9,-156.96"/>
<polygon fill="#63b8ff" stroke="#63b8ff" points="2423.18,-192.35 2413.81,-197.29 2424.21,-199.28 2423.18,-192.35"/>
</g>
<!-- Node20 -->
<g id="node29" class="node">
<title>Node20</title>
<g id="a_node29"><a xlink:href="d__shop__system_8cpp.html" target="_top" xlink:title=" ">
<polygon fill="white" stroke="#666666" points="2909.86,-156.5 2757.86,-156.5 2757.86,-137.5 2909.86,-137.5 2909.86,-156.5"/>
<text text-anchor="middle" x="2833.86" y="-144.5" font-family="Helvetica,sans-Serif" font-size="10.00">src/d/shop/d_shop_system.cpp</text>
</a>
</g>
</g>
<!-- Node5&#45;&gt;Node20 -->
<g id="edge30" class="edge">
<title>Node5&#45;&gt;Node20</title>
<path fill="none" stroke="#63b8ff" d="M2431.26,-197.65C2538.8,-185.93 2718.27,-166.22 2748.86,-162 2759.68,-160.51 2771.23,-158.73 2782.23,-156.95"/>
<polygon fill="#63b8ff" stroke="#63b8ff" points="2431.18,-194.14 2421.62,-198.7 2431.94,-201.1 2431.18,-194.14"/>
</g>
<!-- Node363 -->
<g id="node30" class="node">
<title>Node363</title>
<g id="a_node30"><a xlink:href="m__Do__Reset_8cpp.html" target="_top" xlink:title=" ">
<polygon fill="white" stroke="#666666" points="3063.86,-156.5 2927.86,-156.5 2927.86,-137.5 3063.86,-137.5 3063.86,-156.5"/>
<text text-anchor="middle" x="2995.86" y="-144.5" font-family="Helvetica,sans-Serif" font-size="10.00">src/m_Do/m_Do_Reset.cpp</text>
</a>
</g>
</g>
<!-- Node5&#45;&gt;Node363 -->
<g id="edge31" class="edge">
<title>Node5&#45;&gt;Node363</title>
<path fill="none" stroke="#63b8ff" d="M2431.51,-197.8C2648.29,-178.69 2705.94,-189.1 2918.86,-162 2929.37,-160.66 2940.63,-158.84 2951.2,-156.95"/>
<polygon fill="#63b8ff" stroke="#63b8ff" points="2431.22,-194.31 2421.57,-198.69 2431.84,-201.28 2431.22,-194.31"/>
</g>
<!-- Node190 -->
<g id="node31" class="node">
<title>Node190</title>
<g id="a_node31"><a xlink:href="m__Do__audio_8cpp.html" target="_top" xlink:title=" ">
<polygon fill="white" stroke="#666666" points="3215.86,-156.5 3081.86,-156.5 3081.86,-137.5 3215.86,-137.5 3215.86,-156.5"/>
<text text-anchor="middle" x="3148.86" y="-144.5" font-family="Helvetica,sans-Serif" font-size="10.00">src/m_Do/m_Do_audio.cpp</text>
</a>
</g>
</g>
<!-- Node5&#45;&gt;Node190 -->
<g id="edge32" class="edge">
<title>Node5&#45;&gt;Node190</title>
<path fill="none" stroke="#63b8ff" d="M2431.17,-197.86C2716.48,-175.19 2791.83,-195.6 3072.86,-162 3083.52,-160.73 3094.94,-158.88 3105.6,-156.95"/>
<polygon fill="#63b8ff" stroke="#63b8ff" points="2431.25,-194.34 2421.56,-198.64 2431.81,-201.32 2431.25,-194.34"/>
</g>
<!-- Node7 -->
<g id="node7" class="node">
<title>Node7</title>
<g id="a_node7"><a xlink:href="d__attention_8h.html" target="_top" xlink:title=" ">
<polygon fill="#fff0f0" stroke="red" points="1181.86,-90.5 1067.86,-90.5 1067.86,-71.5 1181.86,-71.5 1181.86,-90.5"/>
<text text-anchor="middle" x="1124.86" y="-78.5" font-family="Helvetica,sans-Serif" font-size="10.00">include/d/d_attention.h</text>
</a>
</g>
</g>
<!-- Node6&#45;&gt;Node7 -->
<g id="edge6" class="edge">
<title>Node6&#45;&gt;Node7</title>
<path fill="none" stroke="#63b8ff" d="M1124.86,-125.68C1124.86,-113.94 1124.86,-99.77 1124.86,-90.82"/>
<polygon fill="#63b8ff" stroke="#63b8ff" points="1121.36,-125.59 1124.86,-135.59 1128.36,-125.59 1121.36,-125.59"/>
</g>
<!-- Node198 -->
<g id="node8" class="node">
<title>Node198</title>
<g id="a_node8"><a xlink:href="d__drawlist_8h.html" target="_top" xlink:title=" ">
<polygon fill="#fff0f0" stroke="red" points="1309.86,-90.5 1199.86,-90.5 1199.86,-71.5 1309.86,-71.5 1309.86,-90.5"/>
<text text-anchor="middle" x="1254.86" y="-78.5" font-family="Helvetica,sans-Serif" font-size="10.00">include/d/d_drawlist.h</text>
</a>
</g>
</g>
<!-- Node6&#45;&gt;Node198 -->
<g id="edge7" class="edge">
<title>Node6&#45;&gt;Node198</title>
<path fill="none" stroke="#63b8ff" d="M1153.09,-132.1C1178.57,-119.56 1215.28,-101.49 1236.94,-90.82"/>
<polygon fill="#63b8ff" stroke="#63b8ff" points="1151.72,-128.88 1144.29,-136.43 1154.81,-135.16 1151.72,-128.88"/>
</g>
<!-- Node241 -->
<g id="node9" class="node">
<title>Node241</title>
<g id="a_node9"><a xlink:href="d__ky__thunder_8h.html" target="_top" xlink:title=" ">
<polygon fill="#fff0f0" stroke="red" points="1567.86,-90.5 1443.86,-90.5 1443.86,-71.5 1567.86,-71.5 1567.86,-90.5"/>
<text text-anchor="middle" x="1505.86" y="-78.5" font-family="Helvetica,sans-Serif" font-size="10.00">include/d/d_ky_thunder.h</text>
</a>
</g>
</g>
<!-- Node6&#45;&gt;Node241 -->
<g id="edge8" class="edge">
<title>Node6&#45;&gt;Node241</title>
<path fill="none" stroke="#63b8ff" d="M1195.76,-135.28C1258.67,-125.6 1353.02,-110.66 1434.86,-96 1443.52,-94.45 1452.75,-92.7 1461.59,-90.98"/>
<polygon fill="#63b8ff" stroke="#63b8ff" points="1195.24,-131.82 1185.89,-136.8 1196.3,-138.74 1195.24,-131.82"/>
</g>
<!-- Node242 -->
<g id="node10" class="node">
<title>Node242</title>
<g id="a_node10"><a xlink:href="d__resorce_8h.html" target="_top" xlink:title=" ">
<polygon fill="#fff0f0" stroke="red" points="1695.36,-90.5 1586.36,-90.5 1586.36,-71.5 1695.36,-71.5 1695.36,-90.5"/>
<text text-anchor="middle" x="1640.86" y="-78.5" font-family="Helvetica,sans-Serif" font-size="10.00">include/d/d_resorce.h</text>
</a>
</g>
</g>
<!-- Node6&#45;&gt;Node242 -->
<g id="edge9" class="edge">
<title>Node6&#45;&gt;Node242</title>
<path fill="none" stroke="#63b8ff" d="M1201.49,-140C1291.66,-132.36 1445.74,-117.53 1576.86,-96 1585.39,-94.6 1594.5,-92.8 1603.08,-90.95"/>
<polygon fill="#63b8ff" stroke="#63b8ff" points="1201.46,-136.49 1191.78,-140.81 1202.04,-143.46 1201.46,-136.49"/>
</g>
<!-- Node243 -->
<g id="node11" class="node">
<title>Node243</title>
<g id="a_node11"><a xlink:href="d__kankyo_8h.html" target="_top" xlink:title=" ">
<polygon fill="#fff0f0" stroke="red" points="1425.86,-96 1327.86,-96 1327.86,-66 1425.86,-66 1425.86,-96"/>
<text text-anchor="start" x="1335.86" y="-84" font-family="Helvetica,sans-Serif" font-size="10.00">include/d/kankyo/d</text>
<text text-anchor="middle" x="1376.86" y="-73" font-family="Helvetica,sans-Serif" font-size="10.00">_kankyo.h</text>
</a>
</g>
</g>
<!-- Node6&#45;&gt;Node243 -->
<g id="edge10" class="edge">
<title>Node6&#45;&gt;Node243</title>
<path fill="none" stroke="#63b8ff" d="M1171.21,-134.23C1215.55,-122.97 1282.19,-106.04 1327.5,-94.53"/>
<polygon fill="#63b8ff" stroke="#63b8ff" points="1170.46,-130.81 1161.63,-136.66 1172.19,-137.59 1170.46,-130.81"/>
</g>
<!-- Node202 -->
<g id="node14" class="node">
<title>Node202</title>
<g id="a_node14"><a xlink:href="d__a__do_8h.html" target="_top" xlink:title=" ">
<polygon fill="white" stroke="#666666" points="1809.86,-96 1713.86,-96 1713.86,-66 1809.86,-66 1809.86,-96"/>
<text text-anchor="start" x="1721.86" y="-84" font-family="Helvetica,sans-Serif" font-size="10.00">include/rel/d/a/d_a</text>
<text text-anchor="middle" x="1761.86" y="-73" font-family="Helvetica,sans-Serif" font-size="10.00">_do/d_a_do.h</text>
</a>
</g>
</g>
<!-- Node6&#45;&gt;Node202 -->
<g id="edge13" class="edge">
<title>Node6&#45;&gt;Node202</title>
<path fill="none" stroke="#63b8ff" d="M1201.37,-143.07C1312.6,-137.97 1525.21,-125.1 1703.86,-96 1707.03,-95.48 1710.28,-94.89 1713.55,-94.24"/>
<polygon fill="#63b8ff" stroke="#63b8ff" points="1201.29,-139.57 1191.46,-143.51 1201.6,-146.56 1201.29,-139.57"/>
</g>
<!-- Node355 -->
<g id="node15" class="node">
<title>Node355</title>
<g id="a_node15"><a xlink:href="DynamicLink_8cpp.html" target="_top" xlink:title=" ">
<polygon fill="white" stroke="#666666" points="1935.36,-90.5 1828.36,-90.5 1828.36,-71.5 1935.36,-71.5 1935.36,-90.5"/>
<text text-anchor="middle" x="1881.86" y="-78.5" font-family="Helvetica,sans-Serif" font-size="10.00">src/DynamicLink.cpp</text>
</a>
</g>
</g>
<!-- Node6&#45;&gt;Node355 -->
<g id="edge14" class="edge">
<title>Node6&#45;&gt;Node355</title>
<path fill="none" stroke="#63b8ff" d="M1201.51,-144.15C1329.85,-140.23 1596.09,-128.6 1818.86,-96 1827.62,-94.72 1836.97,-92.89 1845.72,-90.99"/>
<polygon fill="#63b8ff" stroke="#63b8ff" points="1201.67,-140.64 1191.78,-144.44 1201.88,-147.64 1201.67,-140.64"/>
</g>
<!-- Node134 -->
<g id="node16" class="node">
<title>Node134</title>
<g id="a_node16"><a xlink:href="c__dylink_8cpp.html" target="_top" xlink:title=" ">
<polygon fill="white" stroke="#666666" points="111.36,-90.5 16.36,-90.5 16.36,-71.5 111.36,-71.5 111.36,-90.5"/>
<text text-anchor="middle" x="63.86" y="-78.5" font-family="Helvetica,sans-Serif" font-size="10.00">src/c/c_dylink.cpp</text>
</a>
</g>
</g>
<!-- Node6&#45;&gt;Node134 -->
<g id="edge15" class="edge">
<title>Node6&#45;&gt;Node134</title>
<path fill="none" stroke="#63b8ff" d="M1048.1,-144.12C845.32,-138.85 298.69,-122.54 119.86,-96 111.73,-94.79 103.06,-92.92 95.04,-90.94"/>
<polygon fill="#63b8ff" stroke="#63b8ff" points="1047.92,-147.62 1058,-144.38 1048.1,-140.62 1047.92,-147.62"/>
</g>
<!-- Node356 -->
<g id="node17" class="node">
<title>Node356</title>
<g id="a_node17"><a xlink:href="d__pane__class_8cpp.html" target="_top" xlink:title=" ">
<polygon fill="white" stroke="#666666" points="272.36,-90.5 129.36,-90.5 129.36,-71.5 272.36,-71.5 272.36,-90.5"/>
<text text-anchor="middle" x="200.86" y="-78.5" font-family="Helvetica,sans-Serif" font-size="10.00">src/d/pane/d_pane_class.cpp</text>
</a>
</g>
</g>
<!-- Node6&#45;&gt;Node356 -->
<g id="edge16" class="edge">
<title>Node6&#45;&gt;Node356</title>
<path fill="none" stroke="#63b8ff" d="M1048.3,-144.39C899.82,-140.61 562.56,-128.88 280.86,-96 269.8,-94.71 257.94,-92.88 246.84,-90.97"/>
<polygon fill="#63b8ff" stroke="#63b8ff" points="1047.92,-147.88 1058,-144.63 1048.09,-140.88 1047.92,-147.88"/>
</g>
<!-- Node357 -->
<g id="node18" class="node">
<title>Node357</title>
<g id="a_node18"><a xlink:href="d__pane__class__alpha_8cpp.html" target="_top" xlink:title=" ">
<polygon fill="white" stroke="#666666" points="415.36,-96 290.36,-96 290.36,-66 415.36,-66 415.36,-96"/>
<text text-anchor="start" x="298.36" y="-84" font-family="Helvetica,sans-Serif" font-size="10.00">src/d/pane/d_pane_class</text>
<text text-anchor="middle" x="352.86" y="-73" font-family="Helvetica,sans-Serif" font-size="10.00">_alpha.cpp</text>
</a>
</g>
</g>
<!-- Node6&#45;&gt;Node357 -->
<g id="edge17" class="edge">
<title>Node6&#45;&gt;Node357</title>
<path fill="none" stroke="#63b8ff" d="M1048.53,-143.64C919.41,-138.96 649.84,-126.22 423.86,-96 421.12,-95.63 418.33,-95.23 415.51,-94.79"/>
<polygon fill="#63b8ff" stroke="#63b8ff" points="1048.2,-147.13 1058.32,-143.99 1048.45,-140.14 1048.2,-147.13"/>
</g>
<!-- Node126 -->
<g id="node19" class="node">
<title>Node126</title>
<g id="a_node19"><a xlink:href="f__op__actor__mng_8cpp.html" target="_top" xlink:title=" ">
<polygon fill="white" stroke="#666666" points="534.36,-96 433.36,-96 433.36,-66 534.36,-66 534.36,-96"/>
<text text-anchor="start" x="441.36" y="-84" font-family="Helvetica,sans-Serif" font-size="10.00">src/f_op/f_op_actor</text>
<text text-anchor="middle" x="483.86" y="-73" font-family="Helvetica,sans-Serif" font-size="10.00">_mng.cpp</text>
</a>
</g>
</g>
<!-- Node6&#45;&gt;Node126 -->
<g id="edge18" class="edge">
<title>Node6&#45;&gt;Node126</title>
<path fill="none" stroke="#63b8ff" d="M1047.97,-143C936.18,-137.83 722.49,-124.87 542.86,-96 540.16,-95.57 537.4,-95.08 534.61,-94.54"/>
<polygon fill="#63b8ff" stroke="#63b8ff" points="1047.79,-146.5 1057.94,-143.45 1048.11,-139.51 1047.79,-146.5"/>
</g>
<!-- Node358 -->
<g id="node20" class="node">
<title>Node358</title>
<g id="a_node20"><a xlink:href="m__Do__DVDError_8cpp.html" target="_top" xlink:title=" ">
<polygon fill="white" stroke="#666666" points="703.36,-90.5 552.36,-90.5 552.36,-71.5 703.36,-71.5 703.36,-90.5"/>
<text text-anchor="middle" x="627.86" y="-78.5" font-family="Helvetica,sans-Serif" font-size="10.00">src/m_Do/m_Do_DVDError.cpp</text>
</a>
</g>
</g>
<!-- Node6&#45;&gt;Node358 -->
<g id="edge19" class="edge">
<title>Node6&#45;&gt;Node358</title>
<path fill="none" stroke="#63b8ff" d="M1048.13,-137.67C965.29,-128.45 829.52,-112.68 712.86,-96 702.2,-94.48 690.81,-92.7 679.95,-90.94"/>
<polygon fill="#63b8ff" stroke="#63b8ff" points="1047.63,-141.14 1057.95,-138.76 1048.4,-134.18 1047.63,-141.14"/>
</g>
<!-- Node359 -->
<g id="node21" class="node">
<title>Node359</title>
<g id="a_node21"><a xlink:href="m__Do__MemCard_8cpp.html" target="_top" xlink:title=" ">
<polygon fill="white" stroke="#666666" points="873.86,-90.5 721.86,-90.5 721.86,-71.5 873.86,-71.5 873.86,-90.5"/>
<text text-anchor="middle" x="797.86" y="-78.5" font-family="Helvetica,sans-Serif" font-size="10.00">src/m_Do/m_Do_MemCard.cpp</text>
</a>
</g>
</g>
<!-- Node6&#45;&gt;Node359 -->
<g id="edge20" class="edge">
<title>Node6&#45;&gt;Node359</title>
<path fill="none" stroke="#63b8ff" d="M1068.01,-134.87C1004.34,-122.41 902.38,-102.46 843.63,-90.96"/>
<polygon fill="#63b8ff" stroke="#63b8ff" points="1067.08,-138.26 1077.56,-136.74 1068.42,-131.39 1067.08,-138.26"/>
</g>
<!-- Node360 -->
<g id="node22" class="node">
<title>Node360</title>
<g id="a_node22"><a xlink:href="m__Do__dvd__thread_8cpp.html" target="_top" xlink:title=" ">
<polygon fill="white" stroke="#666666" points="1049.86,-90.5 891.86,-90.5 891.86,-71.5 1049.86,-71.5 1049.86,-90.5"/>
<text text-anchor="middle" x="970.86" y="-78.5" font-family="Helvetica,sans-Serif" font-size="10.00">src/m_Do/m_Do_dvd_thread.cpp</text>
</a>
</g>
</g>
<!-- Node6&#45;&gt;Node360 -->
<g id="edge21" class="edge">
<title>Node6&#45;&gt;Node360</title>
<path fill="none" stroke="#63b8ff" d="M1093.02,-132.77C1062.8,-120.21 1018.21,-101.68 992.09,-90.82"/>
<polygon fill="#63b8ff" stroke="#63b8ff" points="1091.47,-135.91 1102.05,-136.52 1094.16,-129.45 1091.47,-135.91"/>
</g>
<!-- Node243&#45;&gt;Node53 -->
<g id="edge11" class="edge">
<title>Node243&#45;&gt;Node53</title>
<path fill="none" stroke="#63b8ff" d="M1316.47,-65.7C1189,-43.21 1051.11,-28.94 971.07,-21.66"/>
<polygon fill="#63b8ff" stroke="#63b8ff" points="1315.63,-69.11 1326.09,-67.42 1316.86,-62.22 1315.63,-69.11"/>
</g>
<!-- Node243&#45;&gt;Node167 -->
<g id="edge12" class="edge">
<title>Node243&#45;&gt;Node167</title>
<path fill="none" stroke="#63b8ff" d="M1437.09,-65.53C1502.29,-50.81 1566.71,-37.24 1611.82,-27.89"/>
<polygon fill="#63b8ff" stroke="#63b8ff" points="1436.66,-62.04 1427.68,-67.66 1438.2,-68.86 1436.66,-62.04"/>
</g>
<!-- Node372 -->
<g id="node40" class="node">
<title>Node372</title>
<g id="a_node40"><a xlink:href="JAISeq_8cpp.html" target="_top" xlink:title=" ">
<polygon fill="white" stroke="#666666" points="2412.36,-349 2301.36,-349 2301.36,-319 2412.36,-319 2412.36,-349"/>
<text text-anchor="start" x="2309.36" y="-337" font-family="Helvetica,sans-Serif" font-size="10.00">libs/JSystem/JAudio2</text>
<text text-anchor="middle" x="2356.86" y="-326" font-family="Helvetica,sans-Serif" font-size="10.00">/JAISeq.cpp</text>
</a>
</g>
</g>
<!-- Node371&#45;&gt;Node372 -->
<g id="edge41" class="edge">
<title>Node371&#45;&gt;Node372</title>
<path fill="none" stroke="#63b8ff" d="M2395.79,-376.53C2387.26,-367.43 2377.67,-357.19 2370.14,-349.16"/>
<polygon fill="#63b8ff" stroke="#63b8ff" points="2393.12,-378.79 2402.51,-383.69 2398.22,-374 2393.12,-378.79"/>
</g>
<!-- Node371&#45;&gt;Node373 -->
<g id="edge42" class="edge">
<title>Node371&#45;&gt;Node373</title>
<path fill="none" stroke="#63b8ff" d="M2440.48,-377.09C2450.45,-367.85 2461.75,-357.36 2470.59,-349.16"/>
<polygon fill="#63b8ff" stroke="#63b8ff" points="2438.23,-374.4 2433.28,-383.77 2443,-379.53 2438.23,-374.4"/>
</g>
<!-- Node374&#45;&gt;Node373 -->
<g id="edge45" class="edge">
<title>Node374&#45;&gt;Node373</title>
<path fill="none" stroke="#63b8ff" d="M2565.25,-379.18C2547.89,-369.52 2527.4,-358.12 2511.58,-349.31"/>
<polygon fill="#63b8ff" stroke="#63b8ff" points="2563.29,-382.1 2573.73,-383.9 2566.69,-375.98 2563.29,-382.1"/>
</g>
<!-- Node375 -->
<g id="node43" class="node">
<title>Node375</title>
<g id="a_node43"><a xlink:href="JASWaveArcLoader_8cpp.html" target="_top" xlink:title=" ">
<polygon fill="white" stroke="#666666" points="2685.86,-349 2559.86,-349 2559.86,-319 2685.86,-319 2685.86,-349"/>
<text text-anchor="start" x="2567.86" y="-337" font-family="Helvetica,sans-Serif" font-size="10.00">libs/JSystem/JAudio2</text>
<text text-anchor="middle" x="2622.86" y="-326" font-family="Helvetica,sans-Serif" font-size="10.00">/JASWaveArcLoader.cpp</text>
</a>
</g>
</g>
<!-- Node374&#45;&gt;Node375 -->
<g id="edge44" class="edge">
<title>Node374&#45;&gt;Node375</title>
<path fill="none" stroke="#63b8ff" d="M2609.47,-373.97C2612.36,-365.55 2615.49,-356.45 2617.99,-349.16"/>
<polygon fill="#63b8ff" stroke="#63b8ff" points="2606.18,-372.77 2606.23,-383.36 2612.8,-375.05 2606.18,-372.77"/>
</g>
<!-- Node376&#45;&gt;Node4 -->
<g id="edge47" class="edge">
<title>Node376&#45;&gt;Node4</title>
<path fill="none" stroke="#63b8ff" d="M2727.32,-373.76C2722.04,-355.75 2712.22,-332.43 2694.86,-319 2678.39,-306.26 2555.39,-286.63 2484.28,-276.16"/>
<polygon fill="#63b8ff" stroke="#63b8ff" points="2723.88,-374.42 2729.79,-383.21 2730.65,-372.65 2723.88,-374.42"/>
</g>
<!-- Node376&#45;&gt;Node367 -->
<g id="edge49" class="edge">
<title>Node376&#45;&gt;Node367</title>
<path fill="none" stroke="#63b8ff" d="M2737.66,-373.3C2739.37,-356.43 2738.69,-334.66 2727.86,-319 2716.2,-302.14 2697.44,-290.87 2678.63,-283.39"/>
<polygon fill="#63b8ff" stroke="#63b8ff" points="2734.21,-372.68 2736.31,-383.07 2741.15,-373.64 2734.21,-372.68"/>
</g>
<!-- Node376&#45;&gt;Node377 -->
<g id="edge48" class="edge">
<title>Node376&#45;&gt;Node377</title>
<path fill="none" stroke="#63b8ff" d="M2771.39,-379.43C2794.64,-367.62 2823.15,-353.14 2841.17,-343.99"/>
<polygon fill="#63b8ff" stroke="#63b8ff" points="2769.82,-376.3 2762.49,-383.95 2772.99,-382.54 2769.82,-376.3"/>
</g>
</g>
</svg>
