<?xml version="1.0" encoding="UTF-8" standalone="no"?>
<!DOCTYPE svg PUBLIC "-//W3C//DTD SVG 1.1//EN"
 "http://www.w3.org/Graphics/SVG/1.1/DTD/svg11.dtd">
<!-- Generated by graphviz version 7.0.5 (20221223.1930)
 -->
<!-- Title: include/JSystem/JAudio2/JASOscillator.h Pages: 1 -->
<svg width="2708pt" height="621pt"
 viewBox="0.00 0.00 2707.77 621.00" xmlns="http://www.w3.org/2000/svg" xmlns:xlink="http://www.w3.org/1999/xlink">
<g id="graph0" class="graph" transform="scale(1 1) rotate(0) translate(4 617)">
<title>include/JSystem/JAudio2/JASOscillator.h</title>
<!-- Node1 -->
<g id="node1" class="node">
<title>Node1</title>
<g id="a_node1"><a xlink:title=" ">
<polygon fill="#999999" stroke="#666666" points="1410.27,-613 1283.27,-613 1283.27,-583 1410.27,-583 1410.27,-613"/>
<text text-anchor="start" x="1291.27" y="-601" font-family="Helvetica,sans-Serif" font-size="10.00">include/JSystem/JAudio2</text>
<text text-anchor="middle" x="1346.77" y="-590" font-family="Helvetica,sans-Serif" font-size="10.00">/JASOscillator.h</text>
</a>
</g>
</g>
<!-- Node2 -->
<g id="node2" class="node">
<title>Node2</title>
<g id="a_node2"><a xlink:href="JASBasicInst_8h.html" target="_top" xlink:title=" ">
<polygon fill="white" stroke="#666666" points="878.27,-547 751.27,-547 751.27,-517 878.27,-517 878.27,-547"/>
<text text-anchor="start" x="759.27" y="-535" font-family="Helvetica,sans-Serif" font-size="10.00">include/JSystem/JAudio2</text>
<text text-anchor="middle" x="814.77" y="-524" font-family="Helvetica,sans-Serif" font-size="10.00">/JASBasicInst.h</text>
</a>
</g>
</g>
<!-- Node1&#45;&gt;Node2 -->
<g id="edge1" class="edge">
<title>Node1&#45;&gt;Node2</title>
<path fill="none" stroke="#63b8ff" d="M1271.7,-587.97C1166.51,-575.31 977.07,-552.53 878.41,-540.66"/>
<polygon fill="#63b8ff" stroke="#63b8ff" points="1271.01,-591.41 1281.36,-589.13 1271.85,-584.46 1271.01,-591.41"/>
</g>
<!-- Node6 -->
<g id="node6" class="node">
<title>Node6</title>
<g id="a_node6"><a xlink:href="JASTrack_8h.html" target="_top" xlink:title=" ">
<polygon fill="white" stroke="#666666" points="1410.27,-547 1283.27,-547 1283.27,-517 1410.27,-517 1410.27,-547"/>
<text text-anchor="start" x="1291.27" y="-535" font-family="Helvetica,sans-Serif" font-size="10.00">include/JSystem/JAudio2</text>
<text text-anchor="middle" x="1346.77" y="-524" font-family="Helvetica,sans-Serif" font-size="10.00">/JASTrack.h</text>
</a>
</g>
</g>
<!-- Node1&#45;&gt;Node6 -->
<g id="edge5" class="edge">
<title>Node1&#45;&gt;Node6</title>
<path fill="none" stroke="#63b8ff" d="M1346.77,-571.39C1346.77,-563.13 1346.77,-554.28 1346.77,-547.16"/>
<polygon fill="#63b8ff" stroke="#63b8ff" points="1343.27,-571.28 1346.77,-581.28 1350.27,-571.28 1343.27,-571.28"/>
</g>
<!-- Node385 -->
<g id="node50" class="node">
<title>Node385</title>
<g id="a_node50"><a xlink:href="JASOscillator_8cpp.html" target="_top" xlink:title=" ">
<polygon fill="white" stroke="#666666" points="1539.27,-547 1428.27,-547 1428.27,-517 1539.27,-517 1539.27,-547"/>
<text text-anchor="start" x="1436.27" y="-535" font-family="Helvetica,sans-Serif" font-size="10.00">libs/JSystem/JAudio2</text>
<text text-anchor="middle" x="1483.77" y="-524" font-family="Helvetica,sans-Serif" font-size="10.00">/JASOscillator.cpp</text>
</a>
</g>
</g>
<!-- Node1&#45;&gt;Node385 -->
<g id="edge54" class="edge">
<title>Node1&#45;&gt;Node385</title>
<path fill="none" stroke="#63b8ff" d="M1387.74,-577.86C1408.73,-568.05 1433.84,-556.32 1453.12,-547.31"/>
<polygon fill="#63b8ff" stroke="#63b8ff" points="1386.46,-574.59 1378.88,-582 1389.42,-580.94 1386.46,-574.59"/>
</g>
<!-- Node3 -->
<g id="node3" class="node">
<title>Node3</title>
<g id="a_node3"><a xlink:href="JASDrumSet_8h.html" target="_top" xlink:title=" ">
<polygon fill="white" stroke="#666666" points="741.27,-481 614.27,-481 614.27,-451 741.27,-451 741.27,-481"/>
<text text-anchor="start" x="622.27" y="-469" font-family="Helvetica,sans-Serif" font-size="10.00">include/JSystem/JAudio2</text>
<text text-anchor="middle" x="677.77" y="-458" font-family="Helvetica,sans-Serif" font-size="10.00">/JASDrumSet.h</text>
</a>
</g>
</g>
<!-- Node2&#45;&gt;Node3 -->
<g id="edge2" class="edge">
<title>Node2&#45;&gt;Node3</title>
<path fill="none" stroke="#63b8ff" d="M773.79,-511.86C752.81,-502.05 727.69,-490.32 708.41,-481.31"/>
<polygon fill="#63b8ff" stroke="#63b8ff" points="772.11,-514.94 782.65,-516 775.07,-508.59 772.11,-514.94"/>
</g>
<!-- Node5 -->
<g id="node5" class="node">
<title>Node5</title>
<g id="a_node5"><a xlink:href="JASBasicInst_8cpp.html" target="_top" xlink:title=" ">
<polygon fill="white" stroke="#666666" points="870.27,-481 759.27,-481 759.27,-451 870.27,-451 870.27,-481"/>
<text text-anchor="start" x="767.27" y="-469" font-family="Helvetica,sans-Serif" font-size="10.00">libs/JSystem/JAudio2</text>
<text text-anchor="middle" x="814.77" y="-458" font-family="Helvetica,sans-Serif" font-size="10.00">/JASBasicInst.cpp</text>
</a>
</g>
</g>
<!-- Node2&#45;&gt;Node5 -->
<g id="edge4" class="edge">
<title>Node2&#45;&gt;Node5</title>
<path fill="none" stroke="#63b8ff" d="M814.77,-505.39C814.77,-497.13 814.77,-488.28 814.77,-481.16"/>
<polygon fill="#63b8ff" stroke="#63b8ff" points="811.27,-505.28 814.77,-515.28 818.27,-505.28 811.27,-505.28"/>
</g>
<!-- Node4 -->
<g id="node4" class="node">
<title>Node4</title>
<g id="a_node4"><a xlink:href="JASDrumSet_8cpp.html" target="_top" xlink:title=" ">
<polygon fill="white" stroke="#666666" points="733.27,-415 622.27,-415 622.27,-385 733.27,-385 733.27,-415"/>
<text text-anchor="start" x="630.27" y="-403" font-family="Helvetica,sans-Serif" font-size="10.00">libs/JSystem/JAudio2</text>
<text text-anchor="middle" x="677.77" y="-392" font-family="Helvetica,sans-Serif" font-size="10.00">/JASDrumSet.cpp</text>
</a>
</g>
</g>
<!-- Node3&#45;&gt;Node4 -->
<g id="edge3" class="edge">
<title>Node3&#45;&gt;Node4</title>
<path fill="none" stroke="#63b8ff" d="M677.77,-439.39C677.77,-431.13 677.77,-422.28 677.77,-415.16"/>
<polygon fill="#63b8ff" stroke="#63b8ff" points="674.27,-439.28 677.77,-449.28 681.27,-439.28 674.27,-439.28"/>
</g>
<!-- Node7 -->
<g id="node7" class="node">
<title>Node7</title>
<g id="a_node7"><a xlink:href="JAISe_8h.html" target="_top" xlink:title=" ">
<polygon fill="white" stroke="#666666" points="1844.27,-481 1717.27,-481 1717.27,-451 1844.27,-451 1844.27,-481"/>
<text text-anchor="start" x="1725.27" y="-469" font-family="Helvetica,sans-Serif" font-size="10.00">include/JSystem/JAudio2</text>
<text text-anchor="middle" x="1780.77" y="-458" font-family="Helvetica,sans-Serif" font-size="10.00">/JAISe.h</text>
</a>
</g>
</g>
<!-- Node6&#45;&gt;Node7 -->
<g id="edge6" class="edge">
<title>Node6&#45;&gt;Node7</title>
<path fill="none" stroke="#63b8ff" d="M1421.62,-516.78C1546.89,-497.21 1580.99,-499.66 1702.77,-481 1707.39,-480.29 1712.16,-479.52 1716.96,-478.73"/>
<polygon fill="#63b8ff" stroke="#63b8ff" points="1421.25,-513.29 1411.92,-518.31 1422.34,-520.21 1421.25,-513.29"/>
</g>
<!-- Node377 -->
<g id="node42" class="node">
<title>Node377</title>
<g id="a_node42"><a xlink:href="JAUInitializer_8cpp.html" target="_top" xlink:title=" ">
<polygon fill="white" stroke="#666666" points="1744.27,-415 1633.27,-415 1633.27,-385 1744.27,-385 1744.27,-415"/>
<text text-anchor="start" x="1641.27" y="-403" font-family="Helvetica,sans-Serif" font-size="10.00">libs/JSystem/JAudio2</text>
<text text-anchor="middle" x="1688.77" y="-392" font-family="Helvetica,sans-Serif" font-size="10.00">/JAUInitializer.cpp</text>
</a>
</g>
</g>
<!-- Node6&#45;&gt;Node377 -->
<g id="edge53" class="edge">
<title>Node6&#45;&gt;Node377</title>
<path fill="none" stroke="#63b8ff" d="M1421.81,-517.01C1491.54,-508.78 1630.6,-516.79 1669.77,-481 1688.1,-464.25 1690.29,-433.31 1689.81,-415.21"/>
<polygon fill="#63b8ff" stroke="#63b8ff" points="1421.35,-513.54 1411.93,-518.4 1422.33,-520.47 1421.35,-513.54"/>
</g>
<!-- Node378 -->
<g id="node43" class="node">
<title>Node378</title>
<g id="a_node43"><a xlink:href="JAISeq_8h.html" target="_top" xlink:title=" ">
<polygon fill="white" stroke="#666666" points="1015.27,-481 888.27,-481 888.27,-451 1015.27,-451 1015.27,-481"/>
<text text-anchor="start" x="896.27" y="-469" font-family="Helvetica,sans-Serif" font-size="10.00">include/JSystem/JAudio2</text>
<text text-anchor="middle" x="951.77" y="-458" font-family="Helvetica,sans-Serif" font-size="10.00">/JAISeq.h</text>
</a>
</g>
</g>
<!-- Node6&#45;&gt;Node378 -->
<g id="edge45" class="edge">
<title>Node6&#45;&gt;Node378</title>
<path fill="none" stroke="#63b8ff" d="M1271.87,-520.24C1206.31,-510.62 1108.58,-495.8 1023.77,-481 1021.13,-480.54 1018.45,-480.06 1015.73,-479.57"/>
<polygon fill="#63b8ff" stroke="#63b8ff" points="1271.01,-523.65 1281.41,-521.64 1272.02,-516.73 1271.01,-523.65"/>
</g>
<!-- Node380 -->
<g id="node45" class="node">
<title>Node380</title>
<g id="a_node45"><a xlink:href="JAISound_8cpp.html" target="_top" xlink:title=" ">
<polygon fill="white" stroke="#666666" points="1144.27,-481 1033.27,-481 1033.27,-451 1144.27,-451 1144.27,-481"/>
<text text-anchor="start" x="1041.27" y="-469" font-family="Helvetica,sans-Serif" font-size="10.00">libs/JSystem/JAudio2</text>
<text text-anchor="middle" x="1088.77" y="-458" font-family="Helvetica,sans-Serif" font-size="10.00">/JAISound.cpp</text>
</a>
</g>
</g>
<!-- Node6&#45;&gt;Node380 -->
<g id="edge48" class="edge">
<title>Node6&#45;&gt;Node380</title>
<path fill="none" stroke="#63b8ff" d="M1277.38,-513.79C1235.75,-503.46 1183.51,-490.5 1144.56,-480.84"/>
<polygon fill="#63b8ff" stroke="#63b8ff" points="1276.53,-517.18 1287.08,-516.19 1278.21,-510.39 1276.53,-517.18"/>
</g>
<!-- Node381 -->
<g id="node46" class="node">
<title>Node381</title>
<g id="a_node46"><a xlink:href="JAISoundChild_8cpp.html" target="_top" xlink:title=" ">
<polygon fill="white" stroke="#666666" points="1273.27,-481 1162.27,-481 1162.27,-451 1273.27,-451 1273.27,-481"/>
<text text-anchor="start" x="1170.27" y="-469" font-family="Helvetica,sans-Serif" font-size="10.00">libs/JSystem/JAudio2</text>
<text text-anchor="middle" x="1217.77" y="-458" font-family="Helvetica,sans-Serif" font-size="10.00">/JAISoundChild.cpp</text>
</a>
</g>
</g>
<!-- Node6&#45;&gt;Node381 -->
<g id="edge49" class="edge">
<title>Node6&#45;&gt;Node381</title>
<path fill="none" stroke="#63b8ff" d="M1307.64,-511.59C1287.99,-501.84 1264.61,-490.24 1246.62,-481.31"/>
<polygon fill="#63b8ff" stroke="#63b8ff" points="1305.95,-514.66 1316.46,-515.96 1309.06,-508.38 1305.95,-514.66"/>
</g>
<!-- Node382 -->
<g id="node47" class="node">
<title>Node382</title>
<g id="a_node47"><a xlink:href="JASSeqCtrl_8cpp.html" target="_top" xlink:title=" ">
<polygon fill="white" stroke="#666666" points="1402.27,-481 1291.27,-481 1291.27,-451 1402.27,-451 1402.27,-481"/>
<text text-anchor="start" x="1299.27" y="-469" font-family="Helvetica,sans-Serif" font-size="10.00">libs/JSystem/JAudio2</text>
<text text-anchor="middle" x="1346.77" y="-458" font-family="Helvetica,sans-Serif" font-size="10.00">/JASSeqCtrl.cpp</text>
</a>
</g>
</g>
<!-- Node6&#45;&gt;Node382 -->
<g id="edge50" class="edge">
<title>Node6&#45;&gt;Node382</title>
<path fill="none" stroke="#63b8ff" d="M1346.77,-505.39C1346.77,-497.13 1346.77,-488.28 1346.77,-481.16"/>
<polygon fill="#63b8ff" stroke="#63b8ff" points="1343.27,-505.28 1346.77,-515.28 1350.27,-505.28 1343.27,-505.28"/>
</g>
<!-- Node383 -->
<g id="node48" class="node">
<title>Node383</title>
<g id="a_node48"><a xlink:href="JASSeqParser_8cpp.html" target="_top" xlink:title=" ">
<polygon fill="white" stroke="#666666" points="1531.27,-481 1420.27,-481 1420.27,-451 1531.27,-451 1531.27,-481"/>
<text text-anchor="start" x="1428.27" y="-469" font-family="Helvetica,sans-Serif" font-size="10.00">libs/JSystem/JAudio2</text>
<text text-anchor="middle" x="1475.77" y="-458" font-family="Helvetica,sans-Serif" font-size="10.00">/JASSeqParser.cpp</text>
</a>
</g>
</g>
<!-- Node6&#45;&gt;Node383 -->
<g id="edge51" class="edge">
<title>Node6&#45;&gt;Node383</title>
<path fill="none" stroke="#63b8ff" d="M1385.89,-511.59C1405.54,-501.84 1428.92,-490.24 1446.91,-481.31"/>
<polygon fill="#63b8ff" stroke="#63b8ff" points="1384.47,-508.38 1377.07,-515.96 1387.59,-514.66 1384.47,-508.38"/>
</g>
<!-- Node384 -->
<g id="node49" class="node">
<title>Node384</title>
<g id="a_node49"><a xlink:href="JASTrack_8cpp.html" target="_top" xlink:title=" ">
<polygon fill="white" stroke="#666666" points="1660.27,-481 1549.27,-481 1549.27,-451 1660.27,-451 1660.27,-481"/>
<text text-anchor="start" x="1557.27" y="-469" font-family="Helvetica,sans-Serif" font-size="10.00">libs/JSystem/JAudio2</text>
<text text-anchor="middle" x="1604.77" y="-458" font-family="Helvetica,sans-Serif" font-size="10.00">/JASTrack.cpp</text>
</a>
</g>
</g>
<!-- Node6&#45;&gt;Node384 -->
<g id="edge52" class="edge">
<title>Node6&#45;&gt;Node384</title>
<path fill="none" stroke="#63b8ff" d="M1416.15,-513.79C1457.78,-503.46 1510.03,-490.5 1548.97,-480.84"/>
<polygon fill="#63b8ff" stroke="#63b8ff" points="1415.32,-510.39 1406.46,-516.19 1417.01,-517.18 1415.32,-510.39"/>
</g>
<!-- Node8 -->
<g id="node8" class="node">
<title>Node8</title>
<g id="a_node8"><a xlink:href="JAISeMgr_8h.html" target="_top" xlink:title=" ">
<polygon fill="white" stroke="#666666" points="1950.27,-415 1823.27,-415 1823.27,-385 1950.27,-385 1950.27,-415"/>
<text text-anchor="start" x="1831.27" y="-403" font-family="Helvetica,sans-Serif" font-size="10.00">include/JSystem/JAudio2</text>
<text text-anchor="middle" x="1886.77" y="-392" font-family="Helvetica,sans-Serif" font-size="10.00">/JAISeMgr.h</text>
</a>
</g>
</g>
<!-- Node7&#45;&gt;Node8 -->
<g id="edge7" class="edge">
<title>Node7&#45;&gt;Node8</title>
<path fill="none" stroke="#63b8ff" d="M1814.04,-444.91C1829.94,-435.31 1848.62,-424.03 1863.06,-415.31"/>
<polygon fill="#63b8ff" stroke="#63b8ff" points="1812.6,-441.69 1805.85,-449.85 1816.22,-447.68 1812.6,-441.69"/>
</g>
<!-- Node374 -->
<g id="node39" class="node">
<title>Node374</title>
<g id="a_node39"><a xlink:href="JAISe_8cpp.html" target="_top" xlink:title=" ">
<polygon fill="white" stroke="#666666" points="1813.27,-349 1702.27,-349 1702.27,-319 1813.27,-319 1813.27,-349"/>
<text text-anchor="start" x="1710.27" y="-337" font-family="Helvetica,sans-Serif" font-size="10.00">libs/JSystem/JAudio2</text>
<text text-anchor="middle" x="1757.77" y="-326" font-family="Helvetica,sans-Serif" font-size="10.00">/JAISe.cpp</text>
</a>
</g>
</g>
<!-- Node7&#45;&gt;Node374 -->
<g id="edge43" class="edge">
<title>Node7&#45;&gt;Node374</title>
<path fill="none" stroke="#63b8ff" d="M1776.23,-439.38C1771.48,-412.49 1764.17,-371.18 1760.33,-349.47"/>
<polygon fill="#63b8ff" stroke="#63b8ff" points="1772.76,-439.86 1777.95,-449.1 1779.66,-438.64 1772.76,-439.86"/>
</g>
<!-- Node7&#45;&gt;Node377 -->
<g id="edge44" class="edge">
<title>Node7&#45;&gt;Node377</title>
<path fill="none" stroke="#63b8ff" d="M1750.94,-444.25C1737.38,-434.82 1721.68,-423.9 1709.45,-415.39"/>
<polygon fill="#63b8ff" stroke="#63b8ff" points="1748.9,-447.09 1759.11,-449.93 1752.9,-441.35 1748.9,-447.09"/>
</g>
<!-- Node9 -->
<g id="node9" class="node">
<title>Node9</title>
<g id="a_node9"><a xlink:href="Z2SoundMgr_8h.html" target="_top" xlink:title=" ">
<polygon fill="white" stroke="#666666" points="2205.77,-349 2105.77,-349 2105.77,-319 2205.77,-319 2205.77,-349"/>
<text text-anchor="start" x="2113.77" y="-337" font-family="Helvetica,sans-Serif" font-size="10.00">include/Z2AudioLib</text>
<text text-anchor="middle" x="2155.77" y="-326" font-family="Helvetica,sans-Serif" font-size="10.00">/Z2SoundMgr.h</text>
</a>
</g>
</g>
<!-- Node8&#45;&gt;Node9 -->
<g id="edge8" class="edge">
<title>Node8&#45;&gt;Node9</title>
<path fill="none" stroke="#63b8ff" d="M1958.38,-381.96C2004.83,-370.91 2064.2,-356.78 2105.64,-346.92"/>
<polygon fill="#63b8ff" stroke="#63b8ff" points="1957.86,-378.49 1948.94,-384.21 1959.48,-385.3 1957.86,-378.49"/>
</g>
<!-- Node8&#45;&gt;Node374 -->
<g id="edge40" class="edge">
<title>Node8&#45;&gt;Node374</title>
<path fill="none" stroke="#63b8ff" d="M1847.64,-379.59C1827.99,-369.84 1804.61,-358.24 1786.62,-349.31"/>
<polygon fill="#63b8ff" stroke="#63b8ff" points="1845.95,-382.66 1856.46,-383.96 1849.06,-376.38 1845.95,-382.66"/>
</g>
<!-- Node375 -->
<g id="node40" class="node">
<title>Node375</title>
<g id="a_node40"><a xlink:href="JAISeMgr_8cpp.html" target="_top" xlink:title=" ">
<polygon fill="white" stroke="#666666" points="1942.27,-349 1831.27,-349 1831.27,-319 1942.27,-319 1942.27,-349"/>
<text text-anchor="start" x="1839.27" y="-337" font-family="Helvetica,sans-Serif" font-size="10.00">libs/JSystem/JAudio2</text>
<text text-anchor="middle" x="1886.77" y="-326" font-family="Helvetica,sans-Serif" font-size="10.00">/JAISeMgr.cpp</text>
</a>
</g>
</g>
<!-- Node8&#45;&gt;Node375 -->
<g id="edge41" class="edge">
<title>Node8&#45;&gt;Node375</title>
<path fill="none" stroke="#63b8ff" d="M1886.77,-373.39C1886.77,-365.13 1886.77,-356.28 1886.77,-349.16"/>
<polygon fill="#63b8ff" stroke="#63b8ff" points="1883.27,-373.28 1886.77,-383.28 1890.27,-373.28 1883.27,-373.28"/>
</g>
<!-- Node376 -->
<g id="node41" class="node">
<title>Node376</title>
<g id="a_node41"><a xlink:href="JAUAudioArcLoader_8cpp.html" target="_top" xlink:title=" ">
<polygon fill="white" stroke="#666666" points="2087.27,-349 1960.27,-349 1960.27,-319 2087.27,-319 2087.27,-349"/>
<text text-anchor="start" x="1968.27" y="-337" font-family="Helvetica,sans-Serif" font-size="10.00">libs/JSystem/JAudio2</text>
<text text-anchor="middle" x="2023.77" y="-326" font-family="Helvetica,sans-Serif" font-size="10.00">/JAUAudioArcLoader.cpp</text>
</a>
</g>
</g>
<!-- Node8&#45;&gt;Node376 -->
<g id="edge42" class="edge">
<title>Node8&#45;&gt;Node376</title>
<path fill="none" stroke="#63b8ff" d="M1927.74,-379.86C1948.73,-370.05 1973.84,-358.32 1993.12,-349.31"/>
<polygon fill="#63b8ff" stroke="#63b8ff" points="1926.46,-376.59 1918.88,-384 1929.42,-382.94 1926.46,-376.59"/>
</g>
<!-- Node10 -->
<g id="node10" class="node">
<title>Node10</title>
<g id="a_node10"><a xlink:href="Z2AudioMgr_8h.html" target="_top" xlink:title=" ">
<polygon fill="white" stroke="#666666" points="1966.77,-283 1866.77,-283 1866.77,-253 1966.77,-253 1966.77,-283"/>
<text text-anchor="start" x="1874.77" y="-271" font-family="Helvetica,sans-Serif" font-size="10.00">include/Z2AudioLib</text>
<text text-anchor="middle" x="1916.77" y="-260" font-family="Helvetica,sans-Serif" font-size="10.00">/Z2AudioMgr.h</text>
</a>
</g>
</g>
<!-- Node9&#45;&gt;Node10 -->
<g id="edge9" class="edge">
<title>Node9&#45;&gt;Node10</title>
<path fill="none" stroke="#63b8ff" d="M2094.29,-316.54C2054.81,-305.97 2004.17,-292.41 1967.09,-282.48"/>
<polygon fill="#63b8ff" stroke="#63b8ff" points="2093.35,-319.91 2103.91,-319.11 2095.16,-313.15 2093.35,-319.91"/>
</g>
<!-- Node371 -->
<g id="node36" class="node">
<title>Node371</title>
<g id="a_node36"><a xlink:href="Z2SceneMgr_8cpp.html" target="_top" xlink:title=" ">
<polygon fill="white" stroke="#666666" points="2146.27,-277.5 1985.27,-277.5 1985.27,-258.5 2146.27,-258.5 2146.27,-277.5"/>
<text text-anchor="middle" x="2065.77" y="-265.5" font-family="Helvetica,sans-Serif" font-size="10.00">libs/Z2AudioLib/Z2SceneMgr.cpp</text>
</a>
</g>
</g>
<!-- Node9&#45;&gt;Node371 -->
<g id="edge37" class="edge">
<title>Node9&#45;&gt;Node371</title>
<path fill="none" stroke="#63b8ff" d="M2126.6,-312.26C2110.22,-300.61 2090.64,-286.69 2078.2,-277.84"/>
<polygon fill="#63b8ff" stroke="#63b8ff" points="2124.38,-314.98 2134.56,-317.92 2128.44,-309.27 2124.38,-314.98"/>
</g>
<!-- Node372 -->
<g id="node37" class="node">
<title>Node372</title>
<g id="a_node37"><a xlink:href="Z2SoundMgr_8cpp.html" target="_top" xlink:title=" ">
<polygon fill="white" stroke="#666666" points="2325.27,-277.5 2164.27,-277.5 2164.27,-258.5 2325.27,-258.5 2325.27,-277.5"/>
<text text-anchor="middle" x="2244.77" y="-265.5" font-family="Helvetica,sans-Serif" font-size="10.00">libs/Z2AudioLib/Z2SoundMgr.cpp</text>
</a>
</g>
</g>
<!-- Node9&#45;&gt;Node372 -->
<g id="edge38" class="edge">
<title>Node9&#45;&gt;Node372</title>
<path fill="none" stroke="#63b8ff" d="M2184.61,-312.26C2200.8,-300.61 2220.17,-286.69 2232.47,-277.84"/>
<polygon fill="#63b8ff" stroke="#63b8ff" points="2182.82,-309.23 2176.75,-317.91 2186.91,-314.92 2182.82,-309.23"/>
</g>
<!-- Node373 -->
<g id="node38" class="node">
<title>Node373</title>
<g id="a_node38"><a xlink:href="Z2WolfHowlMgr_8cpp.html" target="_top" xlink:title=" ">
<polygon fill="white" stroke="#666666" points="2483.77,-283 2343.77,-283 2343.77,-253 2483.77,-253 2483.77,-283"/>
<text text-anchor="start" x="2351.77" y="-271" font-family="Helvetica,sans-Serif" font-size="10.00">libs/Z2AudioLib/Z2WolfHowl</text>
<text text-anchor="middle" x="2413.77" y="-260" font-family="Helvetica,sans-Serif" font-size="10.00">Mgr.cpp</text>
</a>
</g>
</g>
<!-- Node9&#45;&gt;Node373 -->
<g id="edge39" class="edge">
<title>Node9&#45;&gt;Node373</title>
<path fill="none" stroke="#63b8ff" d="M2217.29,-317.74C2259.16,-307.35 2314.24,-293.69 2355.42,-283.47"/>
<polygon fill="#63b8ff" stroke="#63b8ff" points="2216.46,-314.34 2207.59,-320.14 2218.14,-321.13 2216.46,-314.34"/>
</g>
<!-- Node11 -->
<g id="node11" class="node">
<title>Node11</title>
<g id="a_node11"><a xlink:href="m__Do__audio_8h.html" target="_top" xlink:title=" ">
<polygon fill="white" stroke="#666666" points="1903.77,-217 1763.77,-217 1763.77,-198 1903.77,-198 1903.77,-217"/>
<text text-anchor="middle" x="1833.77" y="-205" font-family="Helvetica,sans-Serif" font-size="10.00">include/m_Do/m_Do_audio.h</text>
</a>
</g>
</g>
<!-- Node10&#45;&gt;Node11 -->
<g id="edge10" class="edge">
<title>Node10&#45;&gt;Node11</title>
<path fill="none" stroke="#63b8ff" d="M1886.9,-245.95C1872.83,-236.03 1856.81,-224.74 1846.07,-217.18"/>
<polygon fill="#63b8ff" stroke="#63b8ff" points="1884.82,-248.77 1895.01,-251.67 1888.85,-243.05 1884.82,-248.77"/>
</g>
<!-- Node370 -->
<g id="node35" class="node">
<title>Node370</title>
<g id="a_node35"><a xlink:href="Z2AudioMgr_8cpp.html" target="_top" xlink:title=" ">
<polygon fill="white" stroke="#666666" points="2079.77,-217 1921.77,-217 1921.77,-198 2079.77,-198 2079.77,-217"/>
<text text-anchor="middle" x="2000.77" y="-205" font-family="Helvetica,sans-Serif" font-size="10.00">libs/Z2AudioLib/Z2AudioMgr.cpp</text>
</a>
</g>
</g>
<!-- Node10&#45;&gt;Node370 -->
<g id="edge36" class="edge">
<title>Node10&#45;&gt;Node370</title>
<path fill="none" stroke="#63b8ff" d="M1946.58,-246.24C1960.92,-236.25 1977.34,-224.82 1988.31,-217.18"/>
<polygon fill="#63b8ff" stroke="#63b8ff" points="1944.98,-243.09 1938.77,-251.67 1948.98,-248.83 1944.98,-243.09"/>
</g>
<!-- Node12 -->
<g id="node12" class="node">
<title>Node12</title>
<g id="a_node12"><a xlink:href="m__Do__ext_8h.html" target="_top" xlink:title=" ">
<polygon fill="#fff0f0" stroke="red" points="850.77,-156.5 720.77,-156.5 720.77,-137.5 850.77,-137.5 850.77,-156.5"/>
<text text-anchor="middle" x="785.77" y="-144.5" font-family="Helvetica,sans-Serif" font-size="10.00">include/m_Do/m_Do_ext.h</text>
</a>
</g>
</g>
<!-- Node11&#45;&gt;Node12 -->
<g id="edge11" class="edge">
<title>Node11&#45;&gt;Node12</title>
<path fill="none" stroke="#63b8ff" d="M1752.01,-201.94C1550.67,-190.7 1033.98,-161.86 851.11,-151.65"/>
<polygon fill="#63b8ff" stroke="#63b8ff" points="1751.69,-205.42 1761.87,-202.49 1752.08,-198.43 1751.69,-205.42"/>
</g>
<!-- Node59 -->
<g id="node18" class="node">
<title>Node59</title>
<g id="a_node18"><a xlink:href="d__kankyo_8cpp.html" target="_top" xlink:title=" ">
<polygon fill="white" stroke="#666666" points="712.77,-24.5 578.77,-24.5 578.77,-5.5 712.77,-5.5 712.77,-24.5"/>
<text text-anchor="middle" x="645.77" y="-12.5" font-family="Helvetica,sans-Serif" font-size="10.00">src/d/kankyo/d_kankyo.cpp</text>
</a>
</g>
</g>
<!-- Node11&#45;&gt;Node59 -->
<g id="edge28" class="edge">
<title>Node11&#45;&gt;Node59</title>
<path fill="none" stroke="#63b8ff" d="M1751.9,-204.69C1404.37,-196.62 66.32,-161.39 6.77,-96 -2.21,-86.14 -2.29,-75.79 6.77,-66 44.99,-24.67 422.11,-17.44 578.43,-16.22"/>
<polygon fill="#63b8ff" stroke="#63b8ff" points="1751.76,-208.19 1761.84,-204.92 1751.92,-201.19 1751.76,-208.19"/>
</g>
<!-- Node173 -->
<g id="node19" class="node">
<title>Node173</title>
<g id="a_node19"><a xlink:href="d__kankyo__wether_8cpp.html" target="_top" xlink:title=" ">
<polygon fill="white" stroke="#666666" points="1466.77,-30 1350.77,-30 1350.77,0 1466.77,0 1466.77,-30"/>
<text text-anchor="start" x="1358.77" y="-18" font-family="Helvetica,sans-Serif" font-size="10.00">src/d/kankyo/d_kankyo</text>
<text text-anchor="middle" x="1408.77" y="-7" font-family="Helvetica,sans-Serif" font-size="10.00">_wether.cpp</text>
</a>
</g>
</g>
<!-- Node11&#45;&gt;Node173 -->
<g id="edge29" class="edge">
<title>Node11&#45;&gt;Node173</title>
<path fill="none" stroke="#63b8ff" d="M1752.11,-206.1C1657.77,-204.03 1509.98,-195.35 1466.77,-162 1430.44,-133.96 1445.73,-108.64 1428.77,-66 1424,-54.01 1418.56,-40.42 1414.56,-30.44"/>
<polygon fill="#63b8ff" stroke="#63b8ff" points="1751.75,-209.59 1761.82,-206.29 1751.89,-202.59 1751.75,-209.59"/>
</g>
<!-- Node17 -->
<g id="node26" class="node">
<title>Node17</title>
<g id="a_node26"><a xlink:href="d__com__inf__game_8cpp.html" target="_top" xlink:title=" ">
<polygon fill="white" stroke="#666666" points="1583.77,-162 1475.77,-162 1475.77,-132 1583.77,-132 1583.77,-162"/>
<text text-anchor="start" x="1483.77" y="-150" font-family="Helvetica,sans-Serif" font-size="10.00">src/d/com/d_com_inf</text>
<text text-anchor="middle" x="1529.77" y="-139" font-family="Helvetica,sans-Serif" font-size="10.00">_game.cpp</text>
</a>
</g>
</g>
<!-- Node11&#45;&gt;Node17 -->
<g id="edge25" class="edge">
<title>Node11&#45;&gt;Node17</title>
<path fill="none" stroke="#63b8ff" d="M1771.11,-195.57C1722.4,-186.92 1653.17,-174.29 1592.77,-162 1589.91,-161.42 1586.99,-160.81 1584.04,-160.19"/>
<polygon fill="#63b8ff" stroke="#63b8ff" points="1770.47,-199.01 1780.93,-197.31 1771.69,-192.12 1770.47,-199.01"/>
</g>
<!-- Node159 -->
<g id="node27" class="node">
<title>Node159</title>
<g id="a_node27"><a xlink:href="d__name_8cpp.html" target="_top" xlink:title=" ">
<polygon fill="white" stroke="#666666" points="1695.77,-156.5 1601.77,-156.5 1601.77,-137.5 1695.77,-137.5 1695.77,-156.5"/>
<text text-anchor="middle" x="1648.77" y="-144.5" font-family="Helvetica,sans-Serif" font-size="10.00">src/d/d_name.cpp</text>
</a>
</g>
</g>
<!-- Node11&#45;&gt;Node159 -->
<g id="edge26" class="edge">
<title>Node11&#45;&gt;Node159</title>
<path fill="none" stroke="#63b8ff" d="M1794.84,-194.19C1759.63,-183.06 1708.61,-166.92 1677.13,-156.97"/>
<polygon fill="#63b8ff" stroke="#63b8ff" points="1793.64,-197.48 1804.23,-197.16 1795.75,-190.81 1793.64,-197.48"/>
</g>
<!-- Node169 -->
<g id="node28" class="node">
<title>Node169</title>
<g id="a_node28"><a xlink:href="d__event__manager_8cpp.html" target="_top" xlink:title=" ">
<polygon fill="white" stroke="#666666" points="1817.27,-162 1714.27,-162 1714.27,-132 1817.27,-132 1817.27,-162"/>
<text text-anchor="start" x="1722.27" y="-150" font-family="Helvetica,sans-Serif" font-size="10.00">src/d/event/d_event</text>
<text text-anchor="middle" x="1765.77" y="-139" font-family="Helvetica,sans-Serif" font-size="10.00">_manager.cpp</text>
</a>
</g>
</g>
<!-- Node11&#45;&gt;Node169 -->
<g id="edge27" class="edge">
<title>Node11&#45;&gt;Node169</title>
<path fill="none" stroke="#63b8ff" d="M1814.9,-190.27C1804.75,-181.54 1792.36,-170.87 1782.55,-162.44"/>
<polygon fill="#63b8ff" stroke="#63b8ff" points="1812.43,-192.76 1822.29,-196.63 1816.99,-187.45 1812.43,-192.76"/>
</g>
<!-- Node21 -->
<g id="node29" class="node">
<title>Node21</title>
<g id="a_node29"><a xlink:href="d__msg__flow_8cpp.html" target="_top" xlink:title=" ">
<polygon fill="white" stroke="#666666" points="1968.27,-156.5 1835.27,-156.5 1835.27,-137.5 1968.27,-137.5 1968.27,-156.5"/>
<text text-anchor="middle" x="1901.77" y="-144.5" font-family="Helvetica,sans-Serif" font-size="10.00">src/d/msg/d_msg_flow.cpp</text>
</a>
</g>
</g>
<!-- Node11&#45;&gt;Node21 -->
<g id="edge30" class="edge">
<title>Node11&#45;&gt;Node21</title>
<path fill="none" stroke="#63b8ff" d="M1852.47,-190.41C1864.99,-179.64 1881.02,-165.85 1891.34,-156.97"/>
<polygon fill="#63b8ff" stroke="#63b8ff" points="1850.54,-187.45 1845.24,-196.63 1855.1,-192.76 1850.54,-187.45"/>
</g>
<!-- Node189 -->
<g id="node30" class="node">
<title>Node189</title>
<g id="a_node30"><a xlink:href="d__s__name_8cpp.html" target="_top" xlink:title=" ">
<polygon fill="white" stroke="#666666" points="2099.27,-156.5 1986.27,-156.5 1986.27,-137.5 2099.27,-137.5 2099.27,-156.5"/>
<text text-anchor="middle" x="2042.77" y="-144.5" font-family="Helvetica,sans-Serif" font-size="10.00">src/d/s/d_s_name.cpp</text>
</a>
</g>
</g>
<!-- Node11&#45;&gt;Node189 -->
<g id="edge31" class="edge">
<title>Node11&#45;&gt;Node189</title>
<path fill="none" stroke="#63b8ff" d="M1876.46,-194.55C1916.27,-183.41 1974.77,-167.03 2010.72,-156.97"/>
<polygon fill="#63b8ff" stroke="#63b8ff" points="1875.65,-191.14 1866.97,-197.21 1877.54,-197.88 1875.65,-191.14"/>
</g>
<!-- Node65 -->
<g id="node31" class="node">
<title>Node65</title>
<g id="a_node31"><a xlink:href="d__s__play_8cpp.html" target="_top" xlink:title=" ">
<polygon fill="white" stroke="#666666" points="2223.77,-156.5 2117.77,-156.5 2117.77,-137.5 2223.77,-137.5 2223.77,-156.5"/>
<text text-anchor="middle" x="2170.77" y="-144.5" font-family="Helvetica,sans-Serif" font-size="10.00">src/d/s/d_s_play.cpp</text>
</a>
</g>
</g>
<!-- Node11&#45;&gt;Node65 -->
<g id="edge32" class="edge">
<title>Node11&#45;&gt;Node65</title>
<path fill="none" stroke="#63b8ff" d="M1907.36,-195.85C1962.87,-187.52 2040.8,-175.16 2108.77,-162 2116.57,-160.49 2124.88,-158.72 2132.81,-156.96"/>
<polygon fill="#63b8ff" stroke="#63b8ff" points="1907.08,-192.35 1897.71,-197.29 1908.12,-199.28 1907.08,-192.35"/>
</g>
<!-- Node26 -->
<g id="node32" class="node">
<title>Node26</title>
<g id="a_node32"><a xlink:href="d__shop__system_8cpp.html" target="_top" xlink:title=" ">
<polygon fill="white" stroke="#666666" points="2393.77,-156.5 2241.77,-156.5 2241.77,-137.5 2393.77,-137.5 2393.77,-156.5"/>
<text text-anchor="middle" x="2317.77" y="-144.5" font-family="Helvetica,sans-Serif" font-size="10.00">src/d/shop/d_shop_system.cpp</text>
</a>
</g>
</g>
<!-- Node11&#45;&gt;Node26 -->
<g id="edge33" class="edge">
<title>Node11&#45;&gt;Node26</title>
<path fill="none" stroke="#63b8ff" d="M1915.16,-197.65C2022.71,-185.93 2202.17,-166.22 2232.77,-162 2243.58,-160.51 2255.14,-158.73 2266.14,-156.95"/>
<polygon fill="#63b8ff" stroke="#63b8ff" points="1915.09,-194.14 1905.53,-198.7 1915.85,-201.1 1915.09,-194.14"/>
</g>
<!-- Node369 -->
<g id="node33" class="node">
<title>Node369</title>
<g id="a_node33"><a xlink:href="m__Do__Reset_8cpp.html" target="_top" xlink:title=" ">
<polygon fill="white" stroke="#666666" points="2547.77,-156.5 2411.77,-156.5 2411.77,-137.5 2547.77,-137.5 2547.77,-156.5"/>
<text text-anchor="middle" x="2479.77" y="-144.5" font-family="Helvetica,sans-Serif" font-size="10.00">src/m_Do/m_Do_Reset.cpp</text>
</a>
</g>
</g>
<!-- Node11&#45;&gt;Node369 -->
<g id="edge34" class="edge">
<title>Node11&#45;&gt;Node369</title>
<path fill="none" stroke="#63b8ff" d="M1915.42,-197.8C2132.2,-178.69 2189.85,-189.1 2402.77,-162 2413.28,-160.66 2424.53,-158.84 2435.1,-156.95"/>
<polygon fill="#63b8ff" stroke="#63b8ff" points="1915.12,-194.31 1905.47,-198.69 1915.74,-201.28 1915.12,-194.31"/>
</g>
<!-- Node196 -->
<g id="node34" class="node">
<title>Node196</title>
<g id="a_node34"><a xlink:href="m__Do__audio_8cpp.html" target="_top" xlink:title=" ">
<polygon fill="white" stroke="#666666" points="2699.77,-156.5 2565.77,-156.5 2565.77,-137.5 2699.77,-137.5 2699.77,-156.5"/>
<text text-anchor="middle" x="2632.77" y="-144.5" font-family="Helvetica,sans-Serif" font-size="10.00">src/m_Do/m_Do_audio.cpp</text>
</a>
</g>
</g>
<!-- Node11&#45;&gt;Node196 -->
<g id="edge35" class="edge">
<title>Node11&#45;&gt;Node196</title>
<path fill="none" stroke="#63b8ff" d="M1915.07,-197.86C2200.39,-175.19 2275.74,-195.6 2556.77,-162 2567.42,-160.73 2578.84,-158.88 2589.5,-156.95"/>
<polygon fill="#63b8ff" stroke="#63b8ff" points="1915.15,-194.34 1905.47,-198.64 1915.72,-201.32 1915.15,-194.34"/>
</g>
<!-- Node13 -->
<g id="node13" class="node">
<title>Node13</title>
<g id="a_node13"><a xlink:href="d__attention_8h.html" target="_top" xlink:title=" ">
<polygon fill="#fff0f0" stroke="red" points="1175.77,-90.5 1061.77,-90.5 1061.77,-71.5 1175.77,-71.5 1175.77,-90.5"/>
<text text-anchor="middle" x="1118.77" y="-78.5" font-family="Helvetica,sans-Serif" font-size="10.00">include/d/d_attention.h</text>
</a>
</g>
</g>
<!-- Node12&#45;&gt;Node13 -->
<g id="edge12" class="edge">
<title>Node12&#45;&gt;Node13</title>
<path fill="none" stroke="#63b8ff" d="M845.93,-135.05C899.89,-125.14 981.2,-110 1051.77,-96 1059.81,-94.4 1068.38,-92.65 1076.62,-90.94"/>
<polygon fill="#63b8ff" stroke="#63b8ff" points="845.54,-131.56 836.34,-136.81 846.81,-138.45 845.54,-131.56"/>
</g>
<!-- Node204 -->
<g id="node14" class="node">
<title>Node204</title>
<g id="a_node14"><a xlink:href="d__drawlist_8h.html" target="_top" xlink:title=" ">
<polygon fill="#fff0f0" stroke="red" points="1303.77,-90.5 1193.77,-90.5 1193.77,-71.5 1303.77,-71.5 1303.77,-90.5"/>
<text text-anchor="middle" x="1248.77" y="-78.5" font-family="Helvetica,sans-Serif" font-size="10.00">include/d/d_drawlist.h</text>
</a>
</g>
</g>
<!-- Node12&#45;&gt;Node204 -->
<g id="edge13" class="edge">
<title>Node12&#45;&gt;Node204</title>
<path fill="none" stroke="#63b8ff" d="M862.02,-138.52C942.54,-130.14 1073.05,-115.18 1184.77,-96 1193.17,-94.56 1202.15,-92.76 1210.64,-90.93"/>
<polygon fill="#63b8ff" stroke="#63b8ff" points="862.09,-135 852.5,-139.51 862.81,-141.96 862.09,-135"/>
</g>
<!-- Node247 -->
<g id="node15" class="node">
<title>Node247</title>
<g id="a_node15"><a xlink:href="d__ky__thunder_8h.html" target="_top" xlink:title=" ">
<polygon fill="#fff0f0" stroke="red" points="139.77,-90.5 15.77,-90.5 15.77,-71.5 139.77,-71.5 139.77,-90.5"/>
<text text-anchor="middle" x="77.77" y="-78.5" font-family="Helvetica,sans-Serif" font-size="10.00">include/d/d_ky_thunder.h</text>
</a>
</g>
</g>
<!-- Node12&#45;&gt;Node247 -->
<g id="edge14" class="edge">
<title>Node12&#45;&gt;Node247</title>
<path fill="none" stroke="#63b8ff" d="M709.16,-142.87C589.22,-137.32 349.98,-123.64 148.77,-96 139.06,-94.67 128.67,-92.85 118.93,-90.96"/>
<polygon fill="#63b8ff" stroke="#63b8ff" points="708.73,-146.35 718.88,-143.31 709.05,-139.36 708.73,-146.35"/>
</g>
<!-- Node248 -->
<g id="node16" class="node">
<title>Node248</title>
<g id="a_node16"><a xlink:href="d__resorce_8h.html" target="_top" xlink:title=" ">
<polygon fill="#fff0f0" stroke="red" points="267.27,-90.5 158.27,-90.5 158.27,-71.5 267.27,-71.5 267.27,-90.5"/>
<text text-anchor="middle" x="212.77" y="-78.5" font-family="Helvetica,sans-Serif" font-size="10.00">include/d/d_resorce.h</text>
</a>
</g>
</g>
<!-- Node12&#45;&gt;Node248 -->
<g id="edge15" class="edge">
<title>Node12&#45;&gt;Node248</title>
<path fill="none" stroke="#63b8ff" d="M709.18,-141.29C609.27,-134.51 429.2,-120.07 276.77,-96 268.12,-94.63 258.88,-92.82 250.19,-90.96"/>
<polygon fill="#63b8ff" stroke="#63b8ff" points="708.65,-144.76 718.86,-141.94 709.12,-137.78 708.65,-144.76"/>
</g>
<!-- Node249 -->
<g id="node17" class="node">
<title>Node249</title>
<g id="a_node17"><a xlink:href="d__kankyo_8h.html" target="_top" xlink:title=" ">
<polygon fill="#fff0f0" stroke="red" points="1419.77,-96 1321.77,-96 1321.77,-66 1419.77,-66 1419.77,-96"/>
<text text-anchor="start" x="1329.77" y="-84" font-family="Helvetica,sans-Serif" font-size="10.00">include/d/kankyo/d</text>
<text text-anchor="middle" x="1370.77" y="-73" font-family="Helvetica,sans-Serif" font-size="10.00">_kankyo.h</text>
</a>
</g>
</g>
<!-- Node12&#45;&gt;Node249 -->
<g id="edge16" class="edge">
<title>Node12&#45;&gt;Node249</title>
<path fill="none" stroke="#63b8ff" d="M862.27,-142.16C965.21,-136.22 1153.75,-122.6 1312.77,-96 1315.63,-95.52 1318.56,-94.98 1321.5,-94.4"/>
<polygon fill="#63b8ff" stroke="#63b8ff" points="862.36,-138.65 852.57,-142.71 862.75,-145.64 862.36,-138.65"/>
</g>
<!-- Node208 -->
<g id="node20" class="node">
<title>Node208</title>
<g id="a_node20"><a xlink:href="d__a__do_8h.html" target="_top" xlink:title=" ">
<polygon fill="white" stroke="#666666" points="381.77,-96 285.77,-96 285.77,-66 381.77,-66 381.77,-96"/>
<text text-anchor="start" x="293.77" y="-84" font-family="Helvetica,sans-Serif" font-size="10.00">include/rel/d/a/d_a</text>
<text text-anchor="middle" x="333.77" y="-73" font-family="Helvetica,sans-Serif" font-size="10.00">_do/d_a_do.h</text>
</a>
</g>
</g>
<!-- Node12&#45;&gt;Node208 -->
<g id="edge19" class="edge">
<title>Node12&#45;&gt;Node208</title>
<path fill="none" stroke="#63b8ff" d="M708.98,-138.92C629.09,-130.94 500.57,-116.36 390.77,-96 387.96,-95.48 385.09,-94.91 382.19,-94.3"/>
<polygon fill="#63b8ff" stroke="#63b8ff" points="708.61,-142.4 718.9,-139.9 709.29,-135.43 708.61,-142.4"/>
</g>
<!-- Node361 -->
<g id="node21" class="node">
<title>Node361</title>
<g id="a_node21"><a xlink:href="DynamicLink_8cpp.html" target="_top" xlink:title=" ">
<polygon fill="white" stroke="#666666" points="507.27,-90.5 400.27,-90.5 400.27,-71.5 507.27,-71.5 507.27,-90.5"/>
<text text-anchor="middle" x="453.77" y="-78.5" font-family="Helvetica,sans-Serif" font-size="10.00">src/DynamicLink.cpp</text>
</a>
</g>
</g>
<!-- Node12&#45;&gt;Node361 -->
<g id="edge20" class="edge">
<title>Node12&#45;&gt;Node361</title>
<path fill="none" stroke="#63b8ff" d="M722.61,-135.02C667.81,-125.32 586.39,-110.51 515.77,-96 508.2,-94.45 500.14,-92.69 492.41,-90.97"/>
<polygon fill="#63b8ff" stroke="#63b8ff" points="721.94,-138.46 732.4,-136.75 723.16,-131.56 721.94,-138.46"/>
</g>
<!-- Node140 -->
<g id="node22" class="node">
<title>Node140</title>
<g id="a_node22"><a xlink:href="c__dylink_8cpp.html" target="_top" xlink:title=" ">
<polygon fill="white" stroke="#666666" points="620.27,-90.5 525.27,-90.5 525.27,-71.5 620.27,-71.5 620.27,-90.5"/>
<text text-anchor="middle" x="572.77" y="-78.5" font-family="Helvetica,sans-Serif" font-size="10.00">src/c/c_dylink.cpp</text>
</a>
</g>
</g>
<!-- Node12&#45;&gt;Node140 -->
<g id="edge21" class="edge">
<title>Node12&#45;&gt;Node140</title>
<path fill="none" stroke="#63b8ff" d="M745.29,-133.84C703.62,-121.32 639.69,-102.11 602.47,-90.93"/>
<polygon fill="#63b8ff" stroke="#63b8ff" points="744.12,-137.14 754.7,-136.67 746.13,-130.44 744.12,-137.14"/>
</g>
<!-- Node362 -->
<g id="node23" class="node">
<title>Node362</title>
<g id="a_node23"><a xlink:href="d__pane__class_8cpp.html" target="_top" xlink:title=" ">
<polygon fill="white" stroke="#666666" points="781.27,-90.5 638.27,-90.5 638.27,-71.5 781.27,-71.5 781.27,-90.5"/>
<text text-anchor="middle" x="709.77" y="-78.5" font-family="Helvetica,sans-Serif" font-size="10.00">src/d/pane/d_pane_class.cpp</text>
</a>
</g>
</g>
<!-- Node12&#45;&gt;Node362 -->
<g id="edge22" class="edge">
<title>Node12&#45;&gt;Node362</title>
<path fill="none" stroke="#63b8ff" d="M766.4,-129.69C751.72,-117.33 732.12,-100.82 720.24,-90.82"/>
<polygon fill="#63b8ff" stroke="#63b8ff" points="764.14,-132.36 774.04,-136.13 768.65,-127.01 764.14,-132.36"/>
</g>
<!-- Node363 -->
<g id="node24" class="node">
<title>Node363</title>
<g id="a_node24"><a xlink:href="d__pane__class__alpha_8cpp.html" target="_top" xlink:title=" ">
<polygon fill="white" stroke="#666666" points="924.27,-96 799.27,-96 799.27,-66 924.27,-66 924.27,-96"/>
<text text-anchor="start" x="807.27" y="-84" font-family="Helvetica,sans-Serif" font-size="10.00">src/d/pane/d_pane_class</text>
<text text-anchor="middle" x="861.77" y="-73" font-family="Helvetica,sans-Serif" font-size="10.00">_alpha.cpp</text>
</a>
</g>
</g>
<!-- Node12&#45;&gt;Node363 -->
<g id="edge23" class="edge">
<title>Node12&#45;&gt;Node363</title>
<path fill="none" stroke="#63b8ff" d="M804.86,-129.92C817.07,-119.64 832.76,-106.43 844.57,-96.48"/>
<polygon fill="#63b8ff" stroke="#63b8ff" points="802.89,-127.01 797.49,-136.13 807.4,-132.36 802.89,-127.01"/>
</g>
<!-- Node132 -->
<g id="node25" class="node">
<title>Node132</title>
<g id="a_node25"><a xlink:href="f__op__actor__mng_8cpp.html" target="_top" xlink:title=" ">
<polygon fill="white" stroke="#666666" points="1043.27,-96 942.27,-96 942.27,-66 1043.27,-66 1043.27,-96"/>
<text text-anchor="start" x="950.27" y="-84" font-family="Helvetica,sans-Serif" font-size="10.00">src/f_op/f_op_actor</text>
<text text-anchor="middle" x="992.77" y="-73" font-family="Helvetica,sans-Serif" font-size="10.00">_mng.cpp</text>
</a>
</g>
</g>
<!-- Node12&#45;&gt;Node132 -->
<g id="edge24" class="edge">
<title>Node12&#45;&gt;Node132</title>
<path fill="none" stroke="#63b8ff" d="M825.13,-133.83C859.52,-123.2 909.5,-107.74 945.94,-96.48"/>
<polygon fill="#63b8ff" stroke="#63b8ff" points="824.51,-130.36 815.99,-136.65 826.58,-137.04 824.51,-130.36"/>
</g>
<!-- Node249&#45;&gt;Node59 -->
<g id="edge17" class="edge">
<title>Node249&#45;&gt;Node59</title>
<path fill="none" stroke="#63b8ff" d="M1310.21,-65.78C1086.45,-31.44 831.65,-20.77 712.92,-17.44"/>
<polygon fill="#63b8ff" stroke="#63b8ff" points="1309.6,-69.22 1320.02,-67.3 1310.68,-62.31 1309.6,-69.22"/>
</g>
<!-- Node249&#45;&gt;Node173 -->
<g id="edge18" class="edge">
<title>Node249&#45;&gt;Node173</title>
<path fill="none" stroke="#63b8ff" d="M1384.95,-56.11C1390.14,-47.38 1395.83,-37.78 1400.36,-30.16"/>
<polygon fill="#63b8ff" stroke="#63b8ff" points="1382.07,-54.11 1379.97,-64.49 1388.09,-57.68 1382.07,-54.11"/>
</g>
<!-- Node378&#45;&gt;Node377 -->
<g id="edge47" class="edge">
<title>Node378&#45;&gt;Node377</title>
<path fill="none" stroke="#63b8ff" d="M1026.97,-450.67C1257.04,-420.4 1520.16,-407.49 1632.93,-402.99"/>
<polygon fill="#63b8ff" stroke="#63b8ff" points="1026.64,-447.18 1017.19,-451.97 1027.57,-454.12 1026.64,-447.18"/>
</g>
<!-- Node379 -->
<g id="node44" class="node">
<title>Node379</title>
<g id="a_node44"><a xlink:href="JAISeq_8cpp.html" target="_top" xlink:title=" ">
<polygon fill="white" stroke="#666666" points="1007.27,-415 896.27,-415 896.27,-385 1007.27,-385 1007.27,-415"/>
<text text-anchor="start" x="904.27" y="-403" font-family="Helvetica,sans-Serif" font-size="10.00">libs/JSystem/JAudio2</text>
<text text-anchor="middle" x="951.77" y="-392" font-family="Helvetica,sans-Serif" font-size="10.00">/JAISeq.cpp</text>
</a>
</g>
</g>
<!-- Node378&#45;&gt;Node379 -->
<g id="edge46" class="edge">
<title>Node378&#45;&gt;Node379</title>
<path fill="none" stroke="#63b8ff" d="M951.77,-439.39C951.77,-431.13 951.77,-422.28 951.77,-415.16"/>
<polygon fill="#63b8ff" stroke="#63b8ff" points="948.27,-439.28 951.77,-449.28 955.27,-439.28 948.27,-439.28"/>
</g>
</g>
</svg>
