<?xml version="1.0" encoding="UTF-8" standalone="no"?>
<!DOCTYPE svg PUBLIC "-//W3C//DTD SVG 1.1//EN"
 "http://www.w3.org/Graphics/SVG/1.1/DTD/svg11.dtd">
<!-- Generated by graphviz version 7.0.5 (20221223.1930)
 -->
<!-- Title: include/JSystem/JAudio2/JASSeqCtrl.h Pages: 1 -->
<!--zoomable 621 -->
<svg id="main" version="1.1" xmlns="http://www.w3.org/2000/svg" xmlns:xlink="http://www.w3.org/1999/xlink" xml:space="preserve" onload="init(evt)">
<style type="text/css"><![CDATA[
.edge:hover path { stroke: red; }
.edge:hover polygon { stroke: red; fill: red; }
]]></style>
<script type="text/javascript"><![CDATA[
var edges = document.getElementsByTagName('g');
if (edges && edges.length) {
  for (var i=0;i<edges.length;i++) {
    if (edges[i].id.substr(0,4)=='edge') {
      edges[i].setAttribute('class','edge');
    }
  }
}
]]></script>
        <defs>
                <circle id="rim" cx="0" cy="0" r="7"/>
                <circle id="rim2" cx="0" cy="0" r="3.5"/>
                <g id="zoomPlus">
                        <use xlink:href="#rim" fill="#404040">
                                <set attributeName="fill" to="#808080" begin="zoomplus.mouseover" end="zoomplus.mouseout"/>
                        </use>
                        <path d="M-4,0h8M0,-4v8" fill="none" stroke="white" stroke-width="1.5" pointer-events="none"/>
                </g>
                <g id="zoomMin">
                        <use xlink:href="#rim" fill="#404040">
                                <set attributeName="fill" to="#808080" begin="zoomminus.mouseover" end="zoomminus.mouseout"/>
                        </use>
                        <path d="M-4,0h8" fill="none" stroke="white" stroke-width="1.5" pointer-events="none"/>
                </g>
                <g id="dirArrow">
                        <path fill="none" stroke="white" stroke-width="1.5" d="M0,-3.0v7 M-2.5,-0.5L0,-3.0L2.5,-0.5"/>
                </g>
               <g id="resetDef">
                       <use xlink:href="#rim2" fill="#404040">
                               <set attributeName="fill" to="#808080" begin="reset.mouseover" end="reset.mouseout"/>
                       </use>
               </g>
        </defs>

<script type="text/javascript">
var viewWidth = 4110;
var viewHeight = 621;
var sectionId = 'dynsection-1';
</script>
<script xlink:href="svgpan.js"/>
<svg id="graph" class="graph">
<g id="viewport">
<title>include/JSystem/JAudio2/JASSeqCtrl.h</title>
<!-- Node1 -->
<g id="node1" class="node">
<title>Node1</title>
<g id="a_node1"><a xlink:title=" ">
<polygon fill="#999999" stroke="#666666" points="3981.39,-613 3854.39,-613 3854.39,-583 3981.39,-583 3981.39,-613"/>
<text text-anchor="start" x="3862.39" y="-601" font-family="Helvetica,sans-Serif" font-size="10.00">include/JSystem/JAudio2</text>
<text text-anchor="middle" x="3917.89" y="-590" font-family="Helvetica,sans-Serif" font-size="10.00">/JASSeqCtrl.h</text>
</a>
</g>
</g>
<!-- Node2 -->
<g id="node2" class="node">
<title>Node2</title>
<g id="a_node2"><a xlink:href="JASTrack_8h.html" target="_top" xlink:title=" ">
<polygon fill="white" stroke="#666666" points="3723.39,-547 3596.39,-547 3596.39,-517 3723.39,-517 3723.39,-547"/>
<text text-anchor="start" x="3604.39" y="-535" font-family="Helvetica,sans-Serif" font-size="10.00">include/JSystem/JAudio2</text>
<text text-anchor="middle" x="3659.89" y="-524" font-family="Helvetica,sans-Serif" font-size="10.00">/JASTrack.h</text>
</a>
</g>
</g>
<!-- Node1&#45;&gt;Node2 -->
<g id="edge1" class="edge">
<title>Node1&#45;&gt;Node2</title>
<path fill="none" stroke="#63b8ff" d="M3848.7,-579.84C3807.82,-569.7 3756.65,-557 3717.9,-547.39"/>
<polygon fill="#63b8ff" stroke="#63b8ff" points="3847.65,-583.18 3858.2,-582.19 3849.34,-576.39 3847.65,-583.18"/>
</g>
<!-- Node378 -->
<g id="node48" class="node">
<title>Node378</title>
<g id="a_node48"><a xlink:href="JASSeqCtrl_8cpp.html" target="_top" xlink:title=" ">
<polygon fill="white" stroke="#666666" points="3973.39,-481 3862.39,-481 3862.39,-451 3973.39,-451 3973.39,-481"/>
<text text-anchor="start" x="3870.39" y="-469" font-family="Helvetica,sans-Serif" font-size="10.00">libs/JSystem/JAudio2</text>
<text text-anchor="middle" x="3917.89" y="-458" font-family="Helvetica,sans-Serif" font-size="10.00">/JASSeqCtrl.cpp</text>
</a>
</g>
</g>
<!-- Node1&#45;&gt;Node378 -->
<g id="edge55" class="edge">
<title>Node1&#45;&gt;Node378</title>
<path fill="none" stroke="#63b8ff" d="M3917.89,-571.38C3917.89,-544.49 3917.89,-503.18 3917.89,-481.47"/>
<polygon fill="#63b8ff" stroke="#63b8ff" points="3914.39,-571.08 3917.89,-581.08 3921.39,-571.08 3914.39,-571.08"/>
</g>
<!-- Node379 -->
<g id="node49" class="node">
<title>Node379</title>
<g id="a_node49"><a xlink:href="JASSeqParser_8cpp.html" target="_top" xlink:title=" ">
<polygon fill="white" stroke="#666666" points="4102.39,-481 3991.39,-481 3991.39,-451 4102.39,-451 4102.39,-481"/>
<text text-anchor="start" x="3999.39" y="-469" font-family="Helvetica,sans-Serif" font-size="10.00">libs/JSystem/JAudio2</text>
<text text-anchor="middle" x="4046.89" y="-458" font-family="Helvetica,sans-Serif" font-size="10.00">/JASSeqParser.cpp</text>
</a>
</g>
</g>
<!-- Node1&#45;&gt;Node379 -->
<g id="edge56" class="edge">
<title>Node1&#45;&gt;Node379</title>
<path fill="none" stroke="#63b8ff" d="M3940.15,-574.57C3966.64,-547.87 4010.11,-504.06 4032.53,-481.47"/>
<polygon fill="#63b8ff" stroke="#63b8ff" points="3937.81,-571.95 3933.25,-581.52 3942.78,-576.88 3937.81,-571.95"/>
</g>
<!-- Node3 -->
<g id="node3" class="node">
<title>Node3</title>
<g id="a_node3"><a xlink:href="JAISe_8h.html" target="_top" xlink:title=" ">
<polygon fill="white" stroke="#666666" points="3273.39,-481 3146.39,-481 3146.39,-451 3273.39,-451 3273.39,-481"/>
<text text-anchor="start" x="3154.39" y="-469" font-family="Helvetica,sans-Serif" font-size="10.00">include/JSystem/JAudio2</text>
<text text-anchor="middle" x="3209.89" y="-458" font-family="Helvetica,sans-Serif" font-size="10.00">/JAISe.h</text>
</a>
</g>
</g>
<!-- Node2&#45;&gt;Node3 -->
<g id="edge2" class="edge">
<title>Node2&#45;&gt;Node3</title>
<path fill="none" stroke="#63b8ff" d="M3584.68,-521.88C3509.44,-512.52 3390.46,-497.09 3287.89,-481 3283.27,-480.28 3278.5,-479.5 3273.7,-478.69"/>
<polygon fill="#63b8ff" stroke="#63b8ff" points="3584.06,-525.33 3594.41,-523.08 3584.92,-518.38 3584.06,-525.33"/>
</g>
<!-- Node373 -->
<g id="node43" class="node">
<title>Node373</title>
<g id="a_node43"><a xlink:href="JAUInitializer_8cpp.html" target="_top" xlink:title=" ">
<polygon fill="white" stroke="#666666" points="3355.39,-415 3244.39,-415 3244.39,-385 3355.39,-385 3355.39,-415"/>
<text text-anchor="start" x="3252.39" y="-403" font-family="Helvetica,sans-Serif" font-size="10.00">libs/JSystem/JAudio2</text>
<text text-anchor="middle" x="3299.89" y="-392" font-family="Helvetica,sans-Serif" font-size="10.00">/JAUInitializer.cpp</text>
</a>
</g>
</g>
<!-- Node2&#45;&gt;Node373 -->
<g id="edge54" class="edge">
<title>Node2&#45;&gt;Node373</title>
<path fill="none" stroke="#63b8ff" d="M3584.76,-529.33C3496.93,-525.81 3358.73,-514.88 3320.89,-481 3302.28,-464.33 3299.26,-433.36 3299.24,-415.24"/>
<polygon fill="#63b8ff" stroke="#63b8ff" points="3584.37,-532.82 3594.49,-529.7 3584.63,-525.82 3584.37,-532.82"/>
</g>
<!-- Node374 -->
<g id="node44" class="node">
<title>Node374</title>
<g id="a_node44"><a xlink:href="JAISeq_8h.html" target="_top" xlink:title=" ">
<polygon fill="white" stroke="#666666" points="3457.39,-481 3330.39,-481 3330.39,-451 3457.39,-451 3457.39,-481"/>
<text text-anchor="start" x="3338.39" y="-469" font-family="Helvetica,sans-Serif" font-size="10.00">include/JSystem/JAudio2</text>
<text text-anchor="middle" x="3393.89" y="-458" font-family="Helvetica,sans-Serif" font-size="10.00">/JAISeq.h</text>
</a>
</g>
</g>
<!-- Node2&#45;&gt;Node374 -->
<g id="edge46" class="edge">
<title>Node2&#45;&gt;Node374</title>
<path fill="none" stroke="#63b8ff" d="M3588.83,-513.9C3546.64,-503.75 3493.74,-491.02 3453.7,-481.39"/>
<polygon fill="#63b8ff" stroke="#63b8ff" points="3587.85,-517.27 3598.39,-516.2 3589.49,-510.46 3587.85,-517.27"/>
</g>
<!-- Node376 -->
<g id="node46" class="node">
<title>Node376</title>
<g id="a_node46"><a xlink:href="JAISound_8cpp.html" target="_top" xlink:title=" ">
<polygon fill="white" stroke="#666666" points="3586.39,-481 3475.39,-481 3475.39,-451 3586.39,-451 3586.39,-481"/>
<text text-anchor="start" x="3483.39" y="-469" font-family="Helvetica,sans-Serif" font-size="10.00">libs/JSystem/JAudio2</text>
<text text-anchor="middle" x="3530.89" y="-458" font-family="Helvetica,sans-Serif" font-size="10.00">/JAISound.cpp</text>
</a>
</g>
</g>
<!-- Node2&#45;&gt;Node376 -->
<g id="edge49" class="edge">
<title>Node2&#45;&gt;Node376</title>
<path fill="none" stroke="#63b8ff" d="M3620.76,-511.59C3601.12,-501.84 3577.73,-490.24 3559.74,-481.31"/>
<polygon fill="#63b8ff" stroke="#63b8ff" points="3619.07,-514.66 3629.58,-515.96 3622.18,-508.38 3619.07,-514.66"/>
</g>
<!-- Node377 -->
<g id="node47" class="node">
<title>Node377</title>
<g id="a_node47"><a xlink:href="JAISoundChild_8cpp.html" target="_top" xlink:title=" ">
<polygon fill="white" stroke="#666666" points="3715.39,-481 3604.39,-481 3604.39,-451 3715.39,-451 3715.39,-481"/>
<text text-anchor="start" x="3612.39" y="-469" font-family="Helvetica,sans-Serif" font-size="10.00">libs/JSystem/JAudio2</text>
<text text-anchor="middle" x="3659.89" y="-458" font-family="Helvetica,sans-Serif" font-size="10.00">/JAISoundChild.cpp</text>
</a>
</g>
</g>
<!-- Node2&#45;&gt;Node377 -->
<g id="edge50" class="edge">
<title>Node2&#45;&gt;Node377</title>
<path fill="none" stroke="#63b8ff" d="M3659.89,-505.39C3659.89,-497.13 3659.89,-488.28 3659.89,-481.16"/>
<polygon fill="#63b8ff" stroke="#63b8ff" points="3656.39,-505.28 3659.89,-515.28 3663.39,-505.28 3656.39,-505.28"/>
</g>
<!-- Node2&#45;&gt;Node378 -->
<g id="edge51" class="edge">
<title>Node2&#45;&gt;Node378</title>
<path fill="none" stroke="#63b8ff" d="M3729.28,-513.79C3770.9,-503.46 3823.15,-490.5 3862.09,-480.84"/>
<polygon fill="#63b8ff" stroke="#63b8ff" points="3728.44,-510.39 3719.58,-516.19 3730.13,-517.18 3728.44,-510.39"/>
</g>
<!-- Node2&#45;&gt;Node379 -->
<g id="edge52" class="edge">
<title>Node2&#45;&gt;Node379</title>
<path fill="none" stroke="#63b8ff" d="M3734.88,-520.73C3800.49,-511.43 3898.26,-496.79 3982.89,-481 3985.57,-480.5 3988.32,-479.97 3991.08,-479.42"/>
<polygon fill="#63b8ff" stroke="#63b8ff" points="3734.74,-517.22 3725.32,-522.08 3735.71,-524.15 3734.74,-517.22"/>
</g>
<!-- Node380 -->
<g id="node50" class="node">
<title>Node380</title>
<g id="a_node50"><a xlink:href="JASTrack_8cpp.html" target="_top" xlink:title=" ">
<polygon fill="white" stroke="#666666" points="3844.39,-481 3733.39,-481 3733.39,-451 3844.39,-451 3844.39,-481"/>
<text text-anchor="start" x="3741.39" y="-469" font-family="Helvetica,sans-Serif" font-size="10.00">libs/JSystem/JAudio2</text>
<text text-anchor="middle" x="3788.89" y="-458" font-family="Helvetica,sans-Serif" font-size="10.00">/JASTrack.cpp</text>
</a>
</g>
</g>
<!-- Node2&#45;&gt;Node380 -->
<g id="edge53" class="edge">
<title>Node2&#45;&gt;Node380</title>
<path fill="none" stroke="#63b8ff" d="M3699.02,-511.59C3718.66,-501.84 3742.05,-490.24 3760.04,-481.31"/>
<polygon fill="#63b8ff" stroke="#63b8ff" points="3697.6,-508.38 3690.2,-515.96 3700.71,-514.66 3697.6,-508.38"/>
</g>
<!-- Node4 -->
<g id="node4" class="node">
<title>Node4</title>
<g id="a_node4"><a xlink:href="JAISeMgr_8h.html" target="_top" xlink:title=" ">
<polygon fill="white" stroke="#666666" points="3165.39,-415 3038.39,-415 3038.39,-385 3165.39,-385 3165.39,-415"/>
<text text-anchor="start" x="3046.39" y="-403" font-family="Helvetica,sans-Serif" font-size="10.00">include/JSystem/JAudio2</text>
<text text-anchor="middle" x="3101.89" y="-392" font-family="Helvetica,sans-Serif" font-size="10.00">/JAISeMgr.h</text>
</a>
</g>
</g>
<!-- Node3&#45;&gt;Node4 -->
<g id="edge3" class="edge">
<title>Node3&#45;&gt;Node4</title>
<path fill="none" stroke="#63b8ff" d="M3175.99,-444.91C3159.78,-435.31 3140.76,-424.03 3126.05,-415.31"/>
<polygon fill="#63b8ff" stroke="#63b8ff" points="3173.96,-447.78 3184.35,-449.87 3177.53,-441.76 3173.96,-447.78"/>
</g>
<!-- Node370 -->
<g id="node40" class="node">
<title>Node370</title>
<g id="a_node40"><a xlink:href="JAISe_8cpp.html" target="_top" xlink:title=" ">
<polygon fill="white" stroke="#666666" points="3286.39,-349 3175.39,-349 3175.39,-319 3286.39,-319 3286.39,-349"/>
<text text-anchor="start" x="3183.39" y="-337" font-family="Helvetica,sans-Serif" font-size="10.00">libs/JSystem/JAudio2</text>
<text text-anchor="middle" x="3230.89" y="-326" font-family="Helvetica,sans-Serif" font-size="10.00">/JAISe.cpp</text>
</a>
</g>
</g>
<!-- Node3&#45;&gt;Node370 -->
<g id="edge44" class="edge">
<title>Node3&#45;&gt;Node370</title>
<path fill="none" stroke="#63b8ff" d="M3214.03,-439.38C3218.37,-412.49 3225.05,-371.18 3228.55,-349.47"/>
<polygon fill="#63b8ff" stroke="#63b8ff" points="3210.6,-438.67 3212.46,-449.1 3217.51,-439.78 3210.6,-438.67"/>
</g>
<!-- Node3&#45;&gt;Node373 -->
<g id="edge45" class="edge">
<title>Node3&#45;&gt;Node373</title>
<path fill="none" stroke="#63b8ff" d="M3239.07,-444.25C3252.33,-434.82 3267.69,-423.9 3279.66,-415.39"/>
<polygon fill="#63b8ff" stroke="#63b8ff" points="3237.22,-441.27 3231.1,-449.92 3241.28,-446.98 3237.22,-441.27"/>
</g>
<!-- Node5 -->
<g id="node5" class="node">
<title>Node5</title>
<g id="a_node5"><a xlink:href="Z2SoundMgr_8h.html" target="_top" xlink:title=" ">
<polygon fill="white" stroke="#666666" points="3027.89,-349 2927.89,-349 2927.89,-319 3027.89,-319 3027.89,-349"/>
<text text-anchor="start" x="2935.89" y="-337" font-family="Helvetica,sans-Serif" font-size="10.00">include/Z2AudioLib</text>
<text text-anchor="middle" x="2977.89" y="-326" font-family="Helvetica,sans-Serif" font-size="10.00">/Z2SoundMgr.h</text>
</a>
</g>
</g>
<!-- Node4&#45;&gt;Node5 -->
<g id="edge4" class="edge">
<title>Node4&#45;&gt;Node5</title>
<path fill="none" stroke="#63b8ff" d="M3064.02,-379.45C3045.19,-369.73 3022.84,-358.2 3005.63,-349.31"/>
<polygon fill="#63b8ff" stroke="#63b8ff" points="3062.23,-382.47 3072.72,-383.94 3065.44,-376.25 3062.23,-382.47"/>
</g>
<!-- Node4&#45;&gt;Node370 -->
<g id="edge41" class="edge">
<title>Node4&#45;&gt;Node370</title>
<path fill="none" stroke="#63b8ff" d="M3141.02,-379.59C3160.66,-369.84 3184.05,-358.24 3202.04,-349.31"/>
<polygon fill="#63b8ff" stroke="#63b8ff" points="3139.6,-376.38 3132.2,-383.96 3142.71,-382.66 3139.6,-376.38"/>
</g>
<!-- Node371 -->
<g id="node41" class="node">
<title>Node371</title>
<g id="a_node41"><a xlink:href="JAISeMgr_8cpp.html" target="_top" xlink:title=" ">
<polygon fill="white" stroke="#666666" points="3157.39,-349 3046.39,-349 3046.39,-319 3157.39,-319 3157.39,-349"/>
<text text-anchor="start" x="3054.39" y="-337" font-family="Helvetica,sans-Serif" font-size="10.00">libs/JSystem/JAudio2</text>
<text text-anchor="middle" x="3101.89" y="-326" font-family="Helvetica,sans-Serif" font-size="10.00">/JAISeMgr.cpp</text>
</a>
</g>
</g>
<!-- Node4&#45;&gt;Node371 -->
<g id="edge42" class="edge">
<title>Node4&#45;&gt;Node371</title>
<path fill="none" stroke="#63b8ff" d="M3101.89,-373.39C3101.89,-365.13 3101.89,-356.28 3101.89,-349.16"/>
<polygon fill="#63b8ff" stroke="#63b8ff" points="3098.39,-373.28 3101.89,-383.28 3105.39,-373.28 3098.39,-373.28"/>
</g>
<!-- Node372 -->
<g id="node42" class="node">
<title>Node372</title>
<g id="a_node42"><a xlink:href="JAUAudioArcLoader_8cpp.html" target="_top" xlink:title=" ">
<polygon fill="white" stroke="#666666" points="2909.39,-349 2782.39,-349 2782.39,-319 2909.39,-319 2909.39,-349"/>
<text text-anchor="start" x="2790.39" y="-337" font-family="Helvetica,sans-Serif" font-size="10.00">libs/JSystem/JAudio2</text>
<text text-anchor="middle" x="2845.89" y="-326" font-family="Helvetica,sans-Serif" font-size="10.00">/JAUAudioArcLoader.cpp</text>
</a>
</g>
</g>
<!-- Node4&#45;&gt;Node372 -->
<g id="edge43" class="edge">
<title>Node4&#45;&gt;Node372</title>
<path fill="none" stroke="#63b8ff" d="M3032.98,-381.77C2992.46,-371.64 2941.82,-358.98 2903.45,-349.39"/>
<polygon fill="#63b8ff" stroke="#63b8ff" points="3032.1,-385.16 3042.65,-384.19 3033.8,-378.37 3032.1,-385.16"/>
</g>
<!-- Node6 -->
<g id="node6" class="node">
<title>Node6</title>
<g id="a_node6"><a xlink:href="Z2AudioMgr_8h.html" target="_top" xlink:title=" ">
<polygon fill="white" stroke="#666666" points="2789.89,-283 2689.89,-283 2689.89,-253 2789.89,-253 2789.89,-283"/>
<text text-anchor="start" x="2697.89" y="-271" font-family="Helvetica,sans-Serif" font-size="10.00">include/Z2AudioLib</text>
<text text-anchor="middle" x="2739.89" y="-260" font-family="Helvetica,sans-Serif" font-size="10.00">/Z2AudioMgr.h</text>
</a>
</g>
</g>
<!-- Node5&#45;&gt;Node6 -->
<g id="edge5" class="edge">
<title>Node5&#45;&gt;Node6</title>
<path fill="none" stroke="#63b8ff" d="M2916.42,-316.47C2877.24,-305.94 2827.11,-292.45 2790.29,-282.55"/>
<polygon fill="#63b8ff" stroke="#63b8ff" points="2915.39,-319.82 2925.95,-319.03 2917.21,-313.06 2915.39,-319.82"/>
</g>
<!-- Node367 -->
<g id="node37" class="node">
<title>Node367</title>
<g id="a_node37"><a xlink:href="Z2SceneMgr_8cpp.html" target="_top" xlink:title=" ">
<polygon fill="white" stroke="#666666" points="2969.39,-277.5 2808.39,-277.5 2808.39,-258.5 2969.39,-258.5 2969.39,-277.5"/>
<text text-anchor="middle" x="2888.89" y="-265.5" font-family="Helvetica,sans-Serif" font-size="10.00">libs/Z2AudioLib/Z2SceneMgr.cpp</text>
</a>
</g>
</g>
<!-- Node5&#45;&gt;Node367 -->
<g id="edge38" class="edge">
<title>Node5&#45;&gt;Node367</title>
<path fill="none" stroke="#63b8ff" d="M2949.05,-312.26C2932.85,-300.61 2913.49,-286.69 2901.19,-277.84"/>
<polygon fill="#63b8ff" stroke="#63b8ff" points="2946.75,-314.92 2956.91,-317.91 2950.83,-309.23 2946.75,-314.92"/>
</g>
<!-- Node368 -->
<g id="node38" class="node">
<title>Node368</title>
<g id="a_node38"><a xlink:href="Z2SoundMgr_8cpp.html" target="_top" xlink:title=" ">
<polygon fill="white" stroke="#666666" points="3148.39,-277.5 2987.39,-277.5 2987.39,-258.5 3148.39,-258.5 3148.39,-277.5"/>
<text text-anchor="middle" x="3067.89" y="-265.5" font-family="Helvetica,sans-Serif" font-size="10.00">libs/Z2AudioLib/Z2SoundMgr.cpp</text>
</a>
</g>
</g>
<!-- Node5&#45;&gt;Node368 -->
<g id="edge39" class="edge">
<title>Node5&#45;&gt;Node368</title>
<path fill="none" stroke="#63b8ff" d="M3007.06,-312.26C3023.43,-300.61 3043.01,-286.69 3055.45,-277.84"/>
<polygon fill="#63b8ff" stroke="#63b8ff" points="3005.22,-309.27 2999.1,-317.92 3009.28,-314.98 3005.22,-309.27"/>
</g>
<!-- Node369 -->
<g id="node39" class="node">
<title>Node369</title>
<g id="a_node39"><a xlink:href="Z2WolfHowlMgr_8cpp.html" target="_top" xlink:title=" ">
<polygon fill="white" stroke="#666666" points="3306.89,-283 3166.89,-283 3166.89,-253 3306.89,-253 3306.89,-283"/>
<text text-anchor="start" x="3174.89" y="-271" font-family="Helvetica,sans-Serif" font-size="10.00">libs/Z2AudioLib/Z2WolfHowl</text>
<text text-anchor="middle" x="3236.89" y="-260" font-family="Helvetica,sans-Serif" font-size="10.00">Mgr.cpp</text>
</a>
</g>
</g>
<!-- Node5&#45;&gt;Node369 -->
<g id="edge40" class="edge">
<title>Node5&#45;&gt;Node369</title>
<path fill="none" stroke="#63b8ff" d="M3039.11,-317.87C3081.32,-307.44 3137.09,-293.66 3178.64,-283.39"/>
<polygon fill="#63b8ff" stroke="#63b8ff" points="3038.47,-314.42 3029.6,-320.22 3040.15,-321.22 3038.47,-314.42"/>
</g>
<!-- Node7 -->
<g id="node7" class="node">
<title>Node7</title>
<g id="a_node7"><a xlink:href="m__Do__audio_8h.html" target="_top" xlink:title=" ">
<polygon fill="white" stroke="#666666" points="2726.89,-217 2586.89,-217 2586.89,-198 2726.89,-198 2726.89,-217"/>
<text text-anchor="middle" x="2656.89" y="-205" font-family="Helvetica,sans-Serif" font-size="10.00">include/m_Do/m_Do_audio.h</text>
</a>
</g>
</g>
<!-- Node6&#45;&gt;Node7 -->
<g id="edge6" class="edge">
<title>Node6&#45;&gt;Node7</title>
<path fill="none" stroke="#63b8ff" d="M2710.03,-245.95C2695.95,-236.03 2679.94,-224.74 2669.2,-217.18"/>
<polygon fill="#63b8ff" stroke="#63b8ff" points="2707.95,-248.77 2718.14,-251.67 2711.98,-243.05 2707.95,-248.77"/>
</g>
<!-- Node366 -->
<g id="node36" class="node">
<title>Node366</title>
<g id="a_node36"><a xlink:href="Z2AudioMgr_8cpp.html" target="_top" xlink:title=" ">
<polygon fill="white" stroke="#666666" points="2902.89,-217 2744.89,-217 2744.89,-198 2902.89,-198 2902.89,-217"/>
<text text-anchor="middle" x="2823.89" y="-205" font-family="Helvetica,sans-Serif" font-size="10.00">libs/Z2AudioLib/Z2AudioMgr.cpp</text>
</a>
</g>
</g>
<!-- Node6&#45;&gt;Node366 -->
<g id="edge37" class="edge">
<title>Node6&#45;&gt;Node366</title>
<path fill="none" stroke="#63b8ff" d="M2769.7,-246.24C2784.04,-236.25 2800.46,-224.82 2811.43,-217.18"/>
<polygon fill="#63b8ff" stroke="#63b8ff" points="2768.1,-243.09 2761.9,-251.67 2772.1,-248.83 2768.1,-243.09"/>
</g>
<!-- Node8 -->
<g id="node8" class="node">
<title>Node8</title>
<g id="a_node8"><a xlink:href="m__Do__ext_8h.html" target="_top" xlink:title=" ">
<polygon fill="#fff0f0" stroke="red" points="1347.89,-156.5 1217.89,-156.5 1217.89,-137.5 1347.89,-137.5 1347.89,-156.5"/>
<text text-anchor="middle" x="1282.89" y="-144.5" font-family="Helvetica,sans-Serif" font-size="10.00">include/m_Do/m_Do_ext.h</text>
</a>
</g>
</g>
<!-- Node7&#45;&gt;Node8 -->
<g id="edge7" class="edge">
<title>Node7&#45;&gt;Node8</title>
<path fill="none" stroke="#63b8ff" d="M2575.73,-203.04C2326.44,-192.43 1575.02,-160.44 1348.33,-150.79"/>
<polygon fill="#63b8ff" stroke="#63b8ff" points="2575.21,-206.53 2585.35,-203.45 2575.51,-199.53 2575.21,-206.53"/>
</g>
<!-- Node55 -->
<g id="node14" class="node">
<title>Node55</title>
<g id="a_node14"><a xlink:href="d__kankyo_8cpp.html" target="_top" xlink:title=" ">
<polygon fill="white" stroke="#666666" points="1124.89,-24.5 990.89,-24.5 990.89,-5.5 1124.89,-5.5 1124.89,-24.5"/>
<text text-anchor="middle" x="1057.89" y="-12.5" font-family="Helvetica,sans-Serif" font-size="10.00">src/d/kankyo/d_kankyo.cpp</text>
</a>
</g>
</g>
<!-- Node7&#45;&gt;Node55 -->
<g id="edge29" class="edge">
<title>Node7&#45;&gt;Node55</title>
<path fill="none" stroke="#63b8ff" d="M2575.41,-206.26C2139.31,-204.57 97.34,-191.56 6.89,-96 -2.28,-86.32 -2.31,-75.65 6.89,-66 40.89,-30.35 764.07,-19.28 990.64,-16.68"/>
<polygon fill="#63b8ff" stroke="#63b8ff" points="2575.11,-209.76 2585.12,-206.29 2575.13,-202.76 2575.11,-209.76"/>
</g>
<!-- Node169 -->
<g id="node15" class="node">
<title>Node169</title>
<g id="a_node15"><a xlink:href="d__kankyo__wether_8cpp.html" target="_top" xlink:title=" ">
<polygon fill="white" stroke="#666666" points="2034.89,-30 1918.89,-30 1918.89,0 2034.89,0 2034.89,-30"/>
<text text-anchor="start" x="1926.89" y="-18" font-family="Helvetica,sans-Serif" font-size="10.00">src/d/kankyo/d_kankyo</text>
<text text-anchor="middle" x="1976.89" y="-7" font-family="Helvetica,sans-Serif" font-size="10.00">_wether.cpp</text>
</a>
</g>
</g>
<!-- Node7&#45;&gt;Node169 -->
<g id="edge30" class="edge">
<title>Node7&#45;&gt;Node169</title>
<path fill="none" stroke="#63b8ff" d="M2574.99,-206.02C2480.7,-203.88 2333.21,-195.12 2289.89,-162 2253.31,-134.03 2286.62,-95.05 2250.89,-66 2218.58,-39.73 2105.7,-26.17 2035.3,-20.12"/>
<polygon fill="#63b8ff" stroke="#63b8ff" points="2574.92,-209.52 2584.99,-206.23 2575.06,-202.52 2574.92,-209.52"/>
</g>
<!-- Node13 -->
<g id="node27" class="node">
<title>Node13</title>
<g id="a_node27"><a xlink:href="d__com__inf__game_8cpp.html" target="_top" xlink:title=" ">
<polygon fill="white" stroke="#666666" points="2406.89,-162 2298.89,-162 2298.89,-132 2406.89,-132 2406.89,-162"/>
<text text-anchor="start" x="2306.89" y="-150" font-family="Helvetica,sans-Serif" font-size="10.00">src/d/com/d_com_inf</text>
<text text-anchor="middle" x="2352.89" y="-139" font-family="Helvetica,sans-Serif" font-size="10.00">_game.cpp</text>
</a>
</g>
</g>
<!-- Node7&#45;&gt;Node13 -->
<g id="edge26" class="edge">
<title>Node7&#45;&gt;Node13</title>
<path fill="none" stroke="#63b8ff" d="M2594.24,-195.57C2545.52,-186.92 2476.3,-174.29 2415.89,-162 2413.04,-161.42 2410.11,-160.81 2407.16,-160.19"/>
<polygon fill="#63b8ff" stroke="#63b8ff" points="2593.59,-199.01 2604.05,-197.31 2594.81,-192.12 2593.59,-199.01"/>
</g>
<!-- Node155 -->
<g id="node28" class="node">
<title>Node155</title>
<g id="a_node28"><a xlink:href="d__name_8cpp.html" target="_top" xlink:title=" ">
<polygon fill="white" stroke="#666666" points="2518.89,-156.5 2424.89,-156.5 2424.89,-137.5 2518.89,-137.5 2518.89,-156.5"/>
<text text-anchor="middle" x="2471.89" y="-144.5" font-family="Helvetica,sans-Serif" font-size="10.00">src/d/d_name.cpp</text>
</a>
</g>
</g>
<!-- Node7&#45;&gt;Node155 -->
<g id="edge27" class="edge">
<title>Node7&#45;&gt;Node155</title>
<path fill="none" stroke="#63b8ff" d="M2617.96,-194.19C2582.75,-183.06 2531.74,-166.92 2500.25,-156.97"/>
<polygon fill="#63b8ff" stroke="#63b8ff" points="2616.76,-197.48 2627.35,-197.16 2618.87,-190.81 2616.76,-197.48"/>
</g>
<!-- Node165 -->
<g id="node29" class="node">
<title>Node165</title>
<g id="a_node29"><a xlink:href="d__event__manager_8cpp.html" target="_top" xlink:title=" ">
<polygon fill="white" stroke="#666666" points="2640.39,-162 2537.39,-162 2537.39,-132 2640.39,-132 2640.39,-162"/>
<text text-anchor="start" x="2545.39" y="-150" font-family="Helvetica,sans-Serif" font-size="10.00">src/d/event/d_event</text>
<text text-anchor="middle" x="2588.89" y="-139" font-family="Helvetica,sans-Serif" font-size="10.00">_manager.cpp</text>
</a>
</g>
</g>
<!-- Node7&#45;&gt;Node165 -->
<g id="edge28" class="edge">
<title>Node7&#45;&gt;Node165</title>
<path fill="none" stroke="#63b8ff" d="M2638.02,-190.27C2627.88,-181.54 2615.48,-170.87 2605.67,-162.44"/>
<polygon fill="#63b8ff" stroke="#63b8ff" points="2635.55,-192.76 2645.41,-196.63 2640.12,-187.45 2635.55,-192.76"/>
</g>
<!-- Node17 -->
<g id="node30" class="node">
<title>Node17</title>
<g id="a_node30"><a xlink:href="d__msg__flow_8cpp.html" target="_top" xlink:title=" ">
<polygon fill="white" stroke="#666666" points="2791.39,-156.5 2658.39,-156.5 2658.39,-137.5 2791.39,-137.5 2791.39,-156.5"/>
<text text-anchor="middle" x="2724.89" y="-144.5" font-family="Helvetica,sans-Serif" font-size="10.00">src/d/msg/d_msg_flow.cpp</text>
</a>
</g>
</g>
<!-- Node7&#45;&gt;Node17 -->
<g id="edge31" class="edge">
<title>Node7&#45;&gt;Node17</title>
<path fill="none" stroke="#63b8ff" d="M2675.59,-190.41C2688.12,-179.64 2704.14,-165.85 2714.47,-156.97"/>
<polygon fill="#63b8ff" stroke="#63b8ff" points="2673.66,-187.45 2668.37,-196.63 2678.23,-192.76 2673.66,-187.45"/>
</g>
<!-- Node185 -->
<g id="node31" class="node">
<title>Node185</title>
<g id="a_node31"><a xlink:href="d__s__name_8cpp.html" target="_top" xlink:title=" ">
<polygon fill="white" stroke="#666666" points="2922.39,-156.5 2809.39,-156.5 2809.39,-137.5 2922.39,-137.5 2922.39,-156.5"/>
<text text-anchor="middle" x="2865.89" y="-144.5" font-family="Helvetica,sans-Serif" font-size="10.00">src/d/s/d_s_name.cpp</text>
</a>
</g>
</g>
<!-- Node7&#45;&gt;Node185 -->
<g id="edge32" class="edge">
<title>Node7&#45;&gt;Node185</title>
<path fill="none" stroke="#63b8ff" d="M2699.58,-194.55C2739.4,-183.41 2797.89,-167.03 2833.85,-156.97"/>
<polygon fill="#63b8ff" stroke="#63b8ff" points="2698.78,-191.14 2690.09,-197.21 2700.66,-197.88 2698.78,-191.14"/>
</g>
<!-- Node61 -->
<g id="node32" class="node">
<title>Node61</title>
<g id="a_node32"><a xlink:href="d__s__play_8cpp.html" target="_top" xlink:title=" ">
<polygon fill="white" stroke="#666666" points="3046.89,-156.5 2940.89,-156.5 2940.89,-137.5 3046.89,-137.5 3046.89,-156.5"/>
<text text-anchor="middle" x="2993.89" y="-144.5" font-family="Helvetica,sans-Serif" font-size="10.00">src/d/s/d_s_play.cpp</text>
</a>
</g>
</g>
<!-- Node7&#45;&gt;Node61 -->
<g id="edge33" class="edge">
<title>Node7&#45;&gt;Node61</title>
<path fill="none" stroke="#63b8ff" d="M2729.66,-195.85C2784.99,-187.47 2862.93,-175.06 2930.89,-162 2938.81,-160.48 2947.26,-158.7 2955.31,-156.94"/>
<polygon fill="#63b8ff" stroke="#63b8ff" points="2729.42,-192.35 2720.05,-197.3 2730.46,-199.27 2729.42,-192.35"/>
</g>
<!-- Node22 -->
<g id="node33" class="node">
<title>Node22</title>
<g id="a_node33"><a xlink:href="d__shop__system_8cpp.html" target="_top" xlink:title=" ">
<polygon fill="white" stroke="#666666" points="3216.89,-156.5 3064.89,-156.5 3064.89,-137.5 3216.89,-137.5 3216.89,-156.5"/>
<text text-anchor="middle" x="3140.89" y="-144.5" font-family="Helvetica,sans-Serif" font-size="10.00">src/d/shop/d_shop_system.cpp</text>
</a>
</g>
</g>
<!-- Node7&#45;&gt;Node22 -->
<g id="edge34" class="edge">
<title>Node7&#45;&gt;Node22</title>
<path fill="none" stroke="#63b8ff" d="M2738.29,-197.65C2845.83,-185.93 3025.3,-166.22 3055.89,-162 3066.71,-160.51 3078.26,-158.73 3089.26,-156.95"/>
<polygon fill="#63b8ff" stroke="#63b8ff" points="2738.21,-194.14 2728.65,-198.7 2738.97,-201.1 2738.21,-194.14"/>
</g>
<!-- Node365 -->
<g id="node34" class="node">
<title>Node365</title>
<g id="a_node34"><a xlink:href="m__Do__Reset_8cpp.html" target="_top" xlink:title=" ">
<polygon fill="white" stroke="#666666" points="3370.89,-156.5 3234.89,-156.5 3234.89,-137.5 3370.89,-137.5 3370.89,-156.5"/>
<text text-anchor="middle" x="3302.89" y="-144.5" font-family="Helvetica,sans-Serif" font-size="10.00">src/m_Do/m_Do_Reset.cpp</text>
</a>
</g>
</g>
<!-- Node7&#45;&gt;Node365 -->
<g id="edge35" class="edge">
<title>Node7&#45;&gt;Node365</title>
<path fill="none" stroke="#63b8ff" d="M2738.54,-197.8C2955.32,-178.69 3012.97,-189.1 3225.89,-162 3236.4,-160.66 3247.66,-158.84 3258.23,-156.95"/>
<polygon fill="#63b8ff" stroke="#63b8ff" points="2738.25,-194.31 2728.6,-198.69 2738.87,-201.28 2738.25,-194.31"/>
</g>
<!-- Node192 -->
<g id="node35" class="node">
<title>Node192</title>
<g id="a_node35"><a xlink:href="m__Do__audio_8cpp.html" target="_top" xlink:title=" ">
<polygon fill="white" stroke="#666666" points="3522.89,-156.5 3388.89,-156.5 3388.89,-137.5 3522.89,-137.5 3522.89,-156.5"/>
<text text-anchor="middle" x="3455.89" y="-144.5" font-family="Helvetica,sans-Serif" font-size="10.00">src/m_Do/m_Do_audio.cpp</text>
</a>
</g>
</g>
<!-- Node7&#45;&gt;Node192 -->
<g id="edge36" class="edge">
<title>Node7&#45;&gt;Node192</title>
<path fill="none" stroke="#63b8ff" d="M2738.19,-197.86C3023.51,-175.19 3098.86,-195.6 3379.89,-162 3390.55,-160.73 3401.97,-158.88 3412.63,-156.95"/>
<polygon fill="#63b8ff" stroke="#63b8ff" points="2738.28,-194.34 2728.59,-198.64 2738.84,-201.32 2738.28,-194.34"/>
</g>
<!-- Node9 -->
<g id="node9" class="node">
<title>Node9</title>
<g id="a_node9"><a xlink:href="d__attention_8h.html" target="_top" xlink:title=" ">
<polygon fill="#fff0f0" stroke="red" points="1488.89,-90.5 1374.89,-90.5 1374.89,-71.5 1488.89,-71.5 1488.89,-90.5"/>
<text text-anchor="middle" x="1431.89" y="-78.5" font-family="Helvetica,sans-Serif" font-size="10.00">include/d/d_attention.h</text>
</a>
</g>
</g>
<!-- Node8&#45;&gt;Node9 -->
<g id="edge8" class="edge">
<title>Node8&#45;&gt;Node9</title>
<path fill="none" stroke="#63b8ff" d="M1314.08,-132.6C1343.32,-120.04 1386.19,-101.63 1411.35,-90.82"/>
<polygon fill="#63b8ff" stroke="#63b8ff" points="1312.81,-129.34 1305,-136.5 1315.57,-135.77 1312.81,-129.34"/>
</g>
<!-- Node200 -->
<g id="node10" class="node">
<title>Node200</title>
<g id="a_node10"><a xlink:href="d__drawlist_8h.html" target="_top" xlink:title=" ">
<polygon fill="#fff0f0" stroke="red" points="1616.89,-90.5 1506.89,-90.5 1506.89,-71.5 1616.89,-71.5 1616.89,-90.5"/>
<text text-anchor="middle" x="1561.89" y="-78.5" font-family="Helvetica,sans-Serif" font-size="10.00">include/d/d_drawlist.h</text>
</a>
</g>
</g>
<!-- Node8&#45;&gt;Node200 -->
<g id="edge9" class="edge">
<title>Node8&#45;&gt;Node200</title>
<path fill="none" stroke="#63b8ff" d="M1333.11,-134.48C1387.62,-121.98 1473.49,-102.28 1523.07,-90.91"/>
<polygon fill="#63b8ff" stroke="#63b8ff" points="1332.42,-131.05 1323.45,-136.7 1333.98,-137.87 1332.42,-131.05"/>
</g>
<!-- Node243 -->
<g id="node11" class="node">
<title>Node243</title>
<g id="a_node11"><a xlink:href="d__ky__thunder_8h.html" target="_top" xlink:title=" ">
<polygon fill="#fff0f0" stroke="red" points="1874.89,-90.5 1750.89,-90.5 1750.89,-71.5 1874.89,-71.5 1874.89,-90.5"/>
<text text-anchor="middle" x="1812.89" y="-78.5" font-family="Helvetica,sans-Serif" font-size="10.00">include/d/d_ky_thunder.h</text>
</a>
</g>
</g>
<!-- Node8&#45;&gt;Node243 -->
<g id="edge10" class="edge">
<title>Node8&#45;&gt;Node243</title>
<path fill="none" stroke="#63b8ff" d="M1359.46,-139.69C1450.8,-131.7 1607.96,-116.46 1741.89,-96 1751.2,-94.58 1761.16,-92.79 1770.57,-90.97"/>
<polygon fill="#63b8ff" stroke="#63b8ff" points="1359.28,-136.19 1349.62,-140.55 1359.88,-143.17 1359.28,-136.19"/>
</g>
<!-- Node244 -->
<g id="node12" class="node">
<title>Node244</title>
<g id="a_node12"><a xlink:href="d__resorce_8h.html" target="_top" xlink:title=" ">
<polygon fill="#fff0f0" stroke="red" points="2002.39,-90.5 1893.39,-90.5 1893.39,-71.5 2002.39,-71.5 2002.39,-90.5"/>
<text text-anchor="middle" x="1947.89" y="-78.5" font-family="Helvetica,sans-Serif" font-size="10.00">include/d/d_resorce.h</text>
</a>
</g>
</g>
<!-- Node8&#45;&gt;Node244 -->
<g id="edge11" class="edge">
<title>Node8&#45;&gt;Node244</title>
<path fill="none" stroke="#63b8ff" d="M1359.56,-142.87C1474.16,-137.47 1696.7,-124.13 1883.89,-96 1892.66,-94.68 1902.03,-92.87 1910.82,-90.98"/>
<polygon fill="#63b8ff" stroke="#63b8ff" points="1359.48,-139.37 1349.65,-143.33 1359.8,-146.37 1359.48,-139.37"/>
</g>
<!-- Node245 -->
<g id="node13" class="node">
<title>Node245</title>
<g id="a_node13"><a xlink:href="d__kankyo_8h.html" target="_top" xlink:title=" ">
<polygon fill="#fff0f0" stroke="red" points="1732.89,-96 1634.89,-96 1634.89,-66 1732.89,-66 1732.89,-96"/>
<text text-anchor="start" x="1642.89" y="-84" font-family="Helvetica,sans-Serif" font-size="10.00">include/d/kankyo/d</text>
<text text-anchor="middle" x="1683.89" y="-73" font-family="Helvetica,sans-Serif" font-size="10.00">_kankyo.h</text>
</a>
</g>
</g>
<!-- Node8&#45;&gt;Node245 -->
<g id="edge12" class="edge">
<title>Node8&#45;&gt;Node245</title>
<path fill="none" stroke="#63b8ff" d="M1359.61,-136.87C1429.35,-128.09 1534.94,-113.57 1625.89,-96 1628.74,-95.45 1631.66,-94.85 1634.6,-94.23"/>
<polygon fill="#63b8ff" stroke="#63b8ff" points="1359.3,-133.38 1349.81,-138.1 1360.17,-140.33 1359.3,-133.38"/>
</g>
<!-- Node204 -->
<g id="node16" class="node">
<title>Node204</title>
<g id="a_node16"><a xlink:href="d__a__do_8h.html" target="_top" xlink:title=" ">
<polygon fill="white" stroke="#666666" points="2116.89,-96 2020.89,-96 2020.89,-66 2116.89,-66 2116.89,-96"/>
<text text-anchor="start" x="2028.89" y="-84" font-family="Helvetica,sans-Serif" font-size="10.00">include/rel/d/a/d_a</text>
<text text-anchor="middle" x="2068.89" y="-73" font-family="Helvetica,sans-Serif" font-size="10.00">_do/d_a_do.h</text>
</a>
</g>
</g>
<!-- Node8&#45;&gt;Node204 -->
<g id="edge15" class="edge">
<title>Node8&#45;&gt;Node204</title>
<path fill="none" stroke="#63b8ff" d="M1359.31,-144.97C1492.43,-142.24 1775.16,-132.28 2010.89,-96 2014.06,-95.51 2017.32,-94.94 2020.59,-94.3"/>
<polygon fill="#63b8ff" stroke="#63b8ff" points="1359.5,-141.47 1349.57,-145.16 1359.64,-148.47 1359.5,-141.47"/>
</g>
<!-- Node357 -->
<g id="node17" class="node">
<title>Node357</title>
<g id="a_node17"><a xlink:href="DynamicLink_8cpp.html" target="_top" xlink:title=" ">
<polygon fill="white" stroke="#666666" points="2242.39,-90.5 2135.39,-90.5 2135.39,-71.5 2242.39,-71.5 2242.39,-90.5"/>
<text text-anchor="middle" x="2188.89" y="-78.5" font-family="Helvetica,sans-Serif" font-size="10.00">src/DynamicLink.cpp</text>
</a>
</g>
</g>
<!-- Node8&#45;&gt;Node357 -->
<g id="edge16" class="edge">
<title>Node8&#45;&gt;Node357</title>
<path fill="none" stroke="#63b8ff" d="M1359.51,-145.53C1508.07,-143.73 1845.34,-135.24 2125.89,-96 2134.77,-94.76 2144.25,-92.93 2153.09,-90.99"/>
<polygon fill="#63b8ff" stroke="#63b8ff" points="1359.76,-142.03 1349.8,-145.64 1359.84,-149.03 1359.76,-142.03"/>
</g>
<!-- Node136 -->
<g id="node18" class="node">
<title>Node136</title>
<g id="a_node18"><a xlink:href="c__dylink_8cpp.html" target="_top" xlink:title=" ">
<polygon fill="white" stroke="#666666" points="111.39,-90.5 16.39,-90.5 16.39,-71.5 111.39,-71.5 111.39,-90.5"/>
<text text-anchor="middle" x="63.89" y="-78.5" font-family="Helvetica,sans-Serif" font-size="10.00">src/c/c_dylink.cpp</text>
</a>
</g>
</g>
<!-- Node8&#45;&gt;Node136 -->
<g id="edge17" class="edge">
<title>Node8&#45;&gt;Node136</title>
<path fill="none" stroke="#63b8ff" d="M1206.36,-144.73C982.35,-140.68 330.61,-126.55 119.89,-96 111.76,-94.82 103.09,-92.96 95.06,-90.98"/>
<polygon fill="#63b8ff" stroke="#63b8ff" points="1206.08,-148.22 1216.14,-144.9 1206.2,-141.22 1206.08,-148.22"/>
</g>
<!-- Node358 -->
<g id="node19" class="node">
<title>Node358</title>
<g id="a_node19"><a xlink:href="d__pane__class_8cpp.html" target="_top" xlink:title=" ">
<polygon fill="white" stroke="#666666" points="272.39,-90.5 129.39,-90.5 129.39,-71.5 272.39,-71.5 272.39,-90.5"/>
<text text-anchor="middle" x="200.89" y="-78.5" font-family="Helvetica,sans-Serif" font-size="10.00">src/d/pane/d_pane_class.cpp</text>
</a>
</g>
</g>
<!-- Node8&#45;&gt;Node358 -->
<g id="edge18" class="edge">
<title>Node8&#45;&gt;Node358</title>
<path fill="none" stroke="#63b8ff" d="M1206.17,-145.39C1038.03,-143.36 624.63,-134.5 280.89,-96 269.68,-94.74 257.66,-92.91 246.44,-90.97"/>
<polygon fill="#63b8ff" stroke="#63b8ff" points="1206.05,-148.89 1216.09,-145.51 1206.13,-141.89 1206.05,-148.89"/>
</g>
<!-- Node359 -->
<g id="node20" class="node">
<title>Node359</title>
<g id="a_node20"><a xlink:href="d__pane__class__alpha_8cpp.html" target="_top" xlink:title=" ">
<polygon fill="white" stroke="#666666" points="415.39,-96 290.39,-96 290.39,-66 415.39,-66 415.39,-96"/>
<text text-anchor="start" x="298.39" y="-84" font-family="Helvetica,sans-Serif" font-size="10.00">src/d/pane/d_pane_class</text>
<text text-anchor="middle" x="352.89" y="-73" font-family="Helvetica,sans-Serif" font-size="10.00">_alpha.cpp</text>
</a>
</g>
</g>
<!-- Node8&#45;&gt;Node359 -->
<g id="edge19" class="edge">
<title>Node8&#45;&gt;Node359</title>
<path fill="none" stroke="#63b8ff" d="M1206.04,-145.04C1055.4,-142.38 710.94,-132.48 423.89,-96 421.15,-95.65 418.35,-95.26 415.53,-94.83"/>
<polygon fill="#63b8ff" stroke="#63b8ff" points="1205.84,-148.54 1215.9,-145.21 1205.96,-141.54 1205.84,-148.54"/>
</g>
<!-- Node128 -->
<g id="node21" class="node">
<title>Node128</title>
<g id="a_node21"><a xlink:href="f__op__actor__mng_8cpp.html" target="_top" xlink:title=" ">
<polygon fill="white" stroke="#666666" points="534.39,-96 433.39,-96 433.39,-66 534.39,-66 534.39,-96"/>
<text text-anchor="start" x="441.39" y="-84" font-family="Helvetica,sans-Serif" font-size="10.00">src/f_op/f_op_actor</text>
<text text-anchor="middle" x="483.89" y="-73" font-family="Helvetica,sans-Serif" font-size="10.00">_mng.cpp</text>
</a>
</g>
</g>
<!-- Node8&#45;&gt;Node128 -->
<g id="edge20" class="edge">
<title>Node8&#45;&gt;Node128</title>
<path fill="none" stroke="#63b8ff" d="M1206.27,-144.99C1071.42,-142.29 783.2,-132.37 542.89,-96 540.18,-95.59 537.42,-95.12 534.63,-94.6"/>
<polygon fill="#63b8ff" stroke="#63b8ff" points="1206.08,-148.49 1216.15,-145.18 1206.22,-141.49 1206.08,-148.49"/>
</g>
<!-- Node360 -->
<g id="node22" class="node">
<title>Node360</title>
<g id="a_node22"><a xlink:href="m__Do__DVDError_8cpp.html" target="_top" xlink:title=" ">
<polygon fill="white" stroke="#666666" points="703.39,-90.5 552.39,-90.5 552.39,-71.5 703.39,-71.5 703.39,-90.5"/>
<text text-anchor="middle" x="627.89" y="-78.5" font-family="Helvetica,sans-Serif" font-size="10.00">src/m_Do/m_Do_DVDError.cpp</text>
</a>
</g>
</g>
<!-- Node8&#45;&gt;Node360 -->
<g id="edge21" class="edge">
<title>Node8&#45;&gt;Node360</title>
<path fill="none" stroke="#63b8ff" d="M1206.5,-141.15C1096.94,-133.76 888.99,-118.19 712.89,-96 701.76,-94.6 689.86,-92.82 678.59,-91"/>
<polygon fill="#63b8ff" stroke="#63b8ff" points="1206.03,-144.62 1216.24,-141.8 1206.5,-137.64 1206.03,-144.62"/>
</g>
<!-- Node361 -->
<g id="node23" class="node">
<title>Node361</title>
<g id="a_node23"><a xlink:href="m__Do__MemCard_8cpp.html" target="_top" xlink:title=" ">
<polygon fill="white" stroke="#666666" points="873.89,-90.5 721.89,-90.5 721.89,-71.5 873.89,-71.5 873.89,-90.5"/>
<text text-anchor="middle" x="797.89" y="-78.5" font-family="Helvetica,sans-Serif" font-size="10.00">src/m_Do/m_Do_MemCard.cpp</text>
</a>
</g>
</g>
<!-- Node8&#45;&gt;Node361 -->
<g id="edge22" class="edge">
<title>Node8&#45;&gt;Node361</title>
<path fill="none" stroke="#63b8ff" d="M1206.63,-137.36C1126.06,-128.02 995.35,-112.28 882.89,-96 872.38,-94.48 861.16,-92.72 850.44,-90.98"/>
<polygon fill="#63b8ff" stroke="#63b8ff" points="1205.82,-140.79 1216.16,-138.46 1206.62,-133.84 1205.82,-140.79"/>
</g>
<!-- Node362 -->
<g id="node24" class="node">
<title>Node362</title>
<g id="a_node24"><a xlink:href="m__Do__dvd__thread_8cpp.html" target="_top" xlink:title=" ">
<polygon fill="white" stroke="#666666" points="1049.89,-90.5 891.89,-90.5 891.89,-71.5 1049.89,-71.5 1049.89,-90.5"/>
<text text-anchor="middle" x="970.89" y="-78.5" font-family="Helvetica,sans-Serif" font-size="10.00">src/m_Do/m_Do_dvd_thread.cpp</text>
</a>
</g>
</g>
<!-- Node8&#45;&gt;Node362 -->
<g id="edge23" class="edge">
<title>Node8&#45;&gt;Node362</title>
<path fill="none" stroke="#63b8ff" d="M1228.27,-134.8C1167.49,-122.33 1070.5,-102.43 1014.56,-90.96"/>
<polygon fill="#63b8ff" stroke="#63b8ff" points="1227.2,-138.15 1237.7,-136.73 1228.6,-131.29 1227.2,-138.15"/>
</g>
<!-- Node193 -->
<g id="node25" class="node">
<title>Node193</title>
<g id="a_node25"><a xlink:href="m__Do__ext_8cpp.html" target="_top" xlink:title=" ">
<polygon fill="white" stroke="#666666" points="1191.39,-90.5 1068.39,-90.5 1068.39,-71.5 1191.39,-71.5 1191.39,-90.5"/>
<text text-anchor="middle" x="1129.89" y="-78.5" font-family="Helvetica,sans-Serif" font-size="10.00">src/m_Do/m_Do_ext.cpp</text>
</a>
</g>
</g>
<!-- Node8&#45;&gt;Node193 -->
<g id="edge24" class="edge">
<title>Node8&#45;&gt;Node193</title>
<path fill="none" stroke="#63b8ff" d="M1251.26,-132.77C1221.23,-120.21 1176.93,-101.68 1150.98,-90.82"/>
<polygon fill="#63b8ff" stroke="#63b8ff" points="1249.64,-135.89 1260.22,-136.52 1252.34,-129.43 1249.64,-135.89"/>
</g>
<!-- Node363 -->
<g id="node26" class="node">
<title>Node363</title>
<g id="a_node26"><a xlink:href="m__Do__machine_8cpp.html" target="_top" xlink:title=" ">
<polygon fill="white" stroke="#666666" points="1356.39,-90.5 1209.39,-90.5 1209.39,-71.5 1356.39,-71.5 1356.39,-90.5"/>
<text text-anchor="middle" x="1282.89" y="-78.5" font-family="Helvetica,sans-Serif" font-size="10.00">src/m_Do/m_Do_machine.cpp</text>
</a>
</g>
</g>
<!-- Node8&#45;&gt;Node363 -->
<g id="edge25" class="edge">
<title>Node8&#45;&gt;Node363</title>
<path fill="none" stroke="#63b8ff" d="M1282.89,-125.68C1282.89,-113.94 1282.89,-99.77 1282.89,-90.82"/>
<polygon fill="#63b8ff" stroke="#63b8ff" points="1279.39,-125.59 1282.89,-135.59 1286.39,-125.59 1279.39,-125.59"/>
</g>
<!-- Node245&#45;&gt;Node55 -->
<g id="edge13" class="edge">
<title>Node245&#45;&gt;Node55</title>
<path fill="none" stroke="#63b8ff" d="M1623.29,-65.74C1437.84,-36.09 1229.8,-23.55 1125.19,-18.68"/>
<polygon fill="#63b8ff" stroke="#63b8ff" points="1622.71,-69.19 1633.14,-67.34 1623.83,-62.28 1622.71,-69.19"/>
</g>
<!-- Node245&#45;&gt;Node169 -->
<g id="edge14" class="edge">
<title>Node245&#45;&gt;Node169</title>
<path fill="none" stroke="#63b8ff" d="M1744.12,-65.53C1809.32,-50.81 1873.74,-37.24 1918.85,-27.89"/>
<polygon fill="#63b8ff" stroke="#63b8ff" points="1743.69,-62.04 1734.71,-67.66 1745.23,-68.86 1743.69,-62.04"/>
</g>
<!-- Node374&#45;&gt;Node373 -->
<g id="edge48" class="edge">
<title>Node374&#45;&gt;Node373</title>
<path fill="none" stroke="#63b8ff" d="M3363.82,-444.52C3349.87,-435.03 3333.64,-423.98 3321.02,-415.39"/>
<polygon fill="#63b8ff" stroke="#63b8ff" points="3361.54,-447.21 3371.78,-449.94 3365.48,-441.42 3361.54,-447.21"/>
</g>
<!-- Node375 -->
<g id="node45" class="node">
<title>Node375</title>
<g id="a_node45"><a xlink:href="JAISeq_8cpp.html" target="_top" xlink:title=" ">
<polygon fill="white" stroke="#666666" points="3484.39,-415 3373.39,-415 3373.39,-385 3484.39,-385 3484.39,-415"/>
<text text-anchor="start" x="3381.39" y="-403" font-family="Helvetica,sans-Serif" font-size="10.00">libs/JSystem/JAudio2</text>
<text text-anchor="middle" x="3428.89" y="-392" font-family="Helvetica,sans-Serif" font-size="10.00">/JAISeq.cpp</text>
</a>
</g>
</g>
<!-- Node374&#45;&gt;Node375 -->
<g id="edge47" class="edge">
<title>Node374&#45;&gt;Node375</title>
<path fill="none" stroke="#63b8ff" d="M3407.11,-440.83C3411.84,-432.17 3417.02,-422.7 3421.14,-415.16"/>
<polygon fill="#63b8ff" stroke="#63b8ff" points="3404.11,-439.02 3402.38,-449.47 3410.25,-442.37 3404.11,-439.02"/>
</g>
</g>
</svg>
        <g id="navigator" transform="translate(0 0)" fill="#404254">
                <rect fill="#f2f5e9" fill-opacity="0.5" stroke="#606060" stroke-width=".5" x="0" y="0" width="60" height="60"/>
                <use id="zoomplus" xlink:href="#zoomPlus" x="17" y="9" onmousedown="handleZoom(evt,'in')"/>
                <use id="zoomminus" xlink:href="#zoomMin" x="42" y="9" onmousedown="handleZoom(evt,'out')"/>
                <use id="reset" xlink:href="#resetDef" x="30" y="36" onmousedown="handleReset()"/>
                <g id="arrowUp" xlink:href="#dirArrow" transform="translate(30 24)" onmousedown="handlePan(0,-1)">
                  <use xlink:href="#rim" fill="#404040">
                        <set attributeName="fill" to="#808080" begin="arrowUp.mouseover" end="arrowUp.mouseout"/>
                  </use>
                  <path fill="none" stroke="white" stroke-width="1.5" d="M0,-3.0v7 M-2.5,-0.5L0,-3.0L2.5,-0.5"/>
                </g>
                <g id="arrowRight" xlink:href="#dirArrow" transform="rotate(90) translate(36 -43)" onmousedown="handlePan(1,0)">
                  <use xlink:href="#rim" fill="#404040">
                        <set attributeName="fill" to="#808080" begin="arrowRight.mouseover" end="arrowRight.mouseout"/>
                  </use>
                  <path fill="none" stroke="white" stroke-width="1.5" d="M0,-3.0v7 M-2.5,-0.5L0,-3.0L2.5,-0.5"/>
                </g>
                <g id="arrowDown" xlink:href="#dirArrow" transform="rotate(180) translate(-30 -48)" onmousedown="handlePan(0,1)">
                  <use xlink:href="#rim" fill="#404040">
                        <set attributeName="fill" to="#808080" begin="arrowDown.mouseover" end="arrowDown.mouseout"/>
                  </use>
                  <path fill="none" stroke="white" stroke-width="1.5" d="M0,-3.0v7 M-2.5,-0.5L0,-3.0L2.5,-0.5"/>
                </g>
                <g id="arrowLeft" xlink:href="#dirArrow" transform="rotate(270) translate(-36 17)" onmousedown="handlePan(-1,0)">
                  <use xlink:href="#rim" fill="#404040">
                        <set attributeName="fill" to="#808080" begin="arrowLeft.mouseover" end="arrowLeft.mouseout"/>
                  </use>
                  <path fill="none" stroke="white" stroke-width="1.5" d="M0,-3.0v7 M-2.5,-0.5L0,-3.0L2.5,-0.5"/>
                </g>
        </g>
        <svg viewBox="0 0 15 15" width="100%" height="30px" preserveAspectRatio="xMaxYMin meet">
         <g id="arrow_out" transform="scale(0.3 0.3)">
          <a xlink:href="JASSeqCtrl_8h__dep__incl_org.svg" target="_base">
           <rect id="button" ry="5" rx="5" y="6" x="6" height="38" width="38"
                fill="#f2f5e9" fill-opacity="0.5" stroke="#606060" stroke-width="1.0"/>
           <path id="arrow"
             d="M 11.500037,31.436501 C 11.940474,20.09759 22.043105,11.32322 32.158766,21.979434 L 37.068811,17.246167 C 37.068811,17.246167 37.088388,32 37.088388,32 L 22.160133,31.978069 C 22.160133,31.978069 26.997745,27.140456 26.997745,27.140456 C 18.528582,18.264221 13.291696,25.230495 11.500037,31.436501 z"
             style="fill:#404040;"/>
          </a>
         </g>
        </svg>
</svg>
