<?xml version="1.0" encoding="UTF-8" standalone="no"?>
<!DOCTYPE svg PUBLIC "-//W3C//DTD SVG 1.1//EN"
 "http://www.w3.org/Graphics/SVG/1.1/DTD/svg11.dtd">
<!-- Generated by graphviz version 7.0.5 (20221223.1930)
 -->
<!-- Title: libs/JSystem/JAudio2/JASSeqCtrl.cpp Pages: 1 -->
<svg width="766pt" height="346pt"
 viewBox="0.00 0.00 766.00 346.00" xmlns="http://www.w3.org/2000/svg" xmlns:xlink="http://www.w3.org/1999/xlink">
<g id="graph0" class="graph" transform="scale(1 1) rotate(0) translate(4 342)">
<title>libs/JSystem/JAudio2/JASSeqCtrl.cpp</title>
<!-- Node1 -->
<g id="node1" class="node">
<title>Node1</title>
<g id="a_node1"><a xlink:title=" ">
<polygon fill="#999999" stroke="#666666" points="256.5,-338 145.5,-338 145.5,-308 256.5,-308 256.5,-338"/>
<text text-anchor="start" x="153.5" y="-326" font-family="Helvetica,sans-Serif" font-size="10.00">libs/JSystem/JAudio2</text>
<text text-anchor="middle" x="201" y="-315" font-family="Helvetica,sans-Serif" font-size="10.00">/JASSeqCtrl.cpp</text>
</a>
</g>
</g>
<!-- Node2 -->
<g id="node2" class="node">
<title>Node2</title>
<g id="a_node2"><a xlink:href="JASSeqCtrl_8h.html" target="_top" xlink:title=" ">
<polygon fill="white" stroke="#666666" points="166.5,-211.5 11.5,-211.5 11.5,-192.5 166.5,-192.5 166.5,-211.5"/>
<text text-anchor="middle" x="89" y="-199.5" font-family="Helvetica,sans-Serif" font-size="10.00">JSystem/JAudio2/JASSeqCtrl.h</text>
</a>
</g>
</g>
<!-- Node1&#45;&gt;Node2 -->
<g id="edge1" class="edge">
<title>Node1&#45;&gt;Node2</title>
<path fill="none" stroke="#63b8ff" d="M157.98,-307.57C140.2,-299.63 120.8,-288.05 108,-272 96.74,-257.88 92.14,-237.56 90.27,-222.63"/>
<polygon fill="#63b8ff" stroke="#63b8ff" points="93.8,-222.75 89.39,-213.11 86.83,-223.39 93.8,-222.75"/>
</g>
<!-- Node6 -->
<g id="node6" class="node">
<title>Node6</title>
<g id="a_node6"><a xlink:href="JASSeqParser_8h.html" target="_top" xlink:title=" ">
<polygon fill="white" stroke="#666666" points="285,-272 117,-272 117,-253 285,-253 285,-272"/>
<text text-anchor="middle" x="201" y="-260" font-family="Helvetica,sans-Serif" font-size="10.00">JSystem/JAudio2/JASSeqParser.h</text>
</a>
</g>
</g>
<!-- Node1&#45;&gt;Node6 -->
<g id="edge5" class="edge">
<title>Node1&#45;&gt;Node6</title>
<path fill="none" stroke="#63b8ff" d="M201,-307.54C201,-300.34 201,-291.53 201,-283.68"/>
<polygon fill="#63b8ff" stroke="#63b8ff" points="204.5,-283.69 201,-273.69 197.5,-283.69 204.5,-283.69"/>
</g>
<!-- Node7 -->
<g id="node7" class="node">
<title>Node7</title>
<g id="a_node7"><a xlink:href="JASTrack_8h.html" target="_top" xlink:title=" ">
<polygon fill="white" stroke="#666666" points="463.5,-272 316.5,-272 316.5,-253 463.5,-253 463.5,-272"/>
<text text-anchor="middle" x="390" y="-260" font-family="Helvetica,sans-Serif" font-size="10.00">JSystem/JAudio2/JASTrack.h</text>
</a>
</g>
</g>
<!-- Node1&#45;&gt;Node7 -->
<g id="edge7" class="edge">
<title>Node1&#45;&gt;Node7</title>
<path fill="none" stroke="#63b8ff" d="M247.72,-307.54C279.22,-297.79 320.34,-285.06 350.26,-275.8"/>
<polygon fill="#63b8ff" stroke="#63b8ff" points="351.18,-279.18 359.7,-272.88 349.11,-272.49 351.18,-279.18"/>
</g>
<!-- Node3 -->
<g id="node3" class="node">
<title>Node3</title>
<g id="a_node3"><a xlink:href="JASSeqReader_8h.html" target="_top" xlink:title=" ">
<polygon fill="white" stroke="#666666" points="170,-145.5 0,-145.5 0,-126.5 170,-126.5 170,-145.5"/>
<text text-anchor="middle" x="85" y="-133.5" font-family="Helvetica,sans-Serif" font-size="10.00">JSystem/JAudio2/JASSeqReader.h</text>
</a>
</g>
</g>
<!-- Node2&#45;&gt;Node3 -->
<g id="edge2" class="edge">
<title>Node2&#45;&gt;Node3</title>
<path fill="none" stroke="#63b8ff" d="M88.44,-192.1C87.88,-183.12 87,-168.95 86.26,-157.22"/>
<polygon fill="#63b8ff" stroke="#63b8ff" points="89.76,-157.1 85.65,-147.33 82.78,-157.53 89.76,-157.1"/>
</g>
<!-- Node4 -->
<g id="node4" class="node">
<title>Node4</title>
<g id="a_node4"><a xlink:href="types_8h.html" target="_top" xlink:title=" ">
<polygon fill="white" stroke="#666666" points="333.5,-85 252.5,-85 252.5,-66 333.5,-66 333.5,-85"/>
<text text-anchor="middle" x="293" y="-73" font-family="Helvetica,sans-Serif" font-size="10.00">dolphin/types.h</text>
</a>
</g>
</g>
<!-- Node3&#45;&gt;Node4 -->
<g id="edge3" class="edge">
<title>Node3&#45;&gt;Node4</title>
<path fill="none" stroke="#63b8ff" d="M116.59,-126.12C152.25,-116.09 210.45,-99.72 250.18,-88.54"/>
<polygon fill="#63b8ff" stroke="#63b8ff" points="250.98,-91.96 259.65,-85.88 249.08,-85.22 250.98,-91.96"/>
</g>
<!-- Node5 -->
<g id="node5" class="node">
<title>Node5</title>
<g id="a_node5"><a xlink:href="stddef_8h.html" target="_top" xlink:title=" ">
<polygon fill="white" stroke="#666666" points="361,-30 225,-30 225,0 361,0 361,-30"/>
<text text-anchor="start" x="233" y="-18" font-family="Helvetica,sans-Serif" font-size="10.00">MSL_C/MSL_Common/Src</text>
<text text-anchor="middle" x="293" y="-7" font-family="Helvetica,sans-Serif" font-size="10.00">/stddef.h</text>
</a>
</g>
</g>
<!-- Node4&#45;&gt;Node5 -->
<g id="edge4" class="edge">
<title>Node4&#45;&gt;Node5</title>
<path fill="none" stroke="#63b8ff" d="M293,-65.87C293,-59.4 293,-50.2 293,-41.45"/>
<polygon fill="#63b8ff" stroke="#63b8ff" points="296.5,-41.63 293,-31.63 289.5,-41.63 296.5,-41.63"/>
</g>
<!-- Node6&#45;&gt;Node4 -->
<g id="edge6" class="edge">
<title>Node6&#45;&gt;Node4</title>
<path fill="none" stroke="#63b8ff" d="M201.98,-252.52C203.75,-238.24 208.14,-209.67 217,-187 231.2,-150.68 259.34,-114.59 277.11,-93.97"/>
<polygon fill="#63b8ff" stroke="#63b8ff" points="279.68,-96.35 283.68,-86.54 274.44,-91.72 279.68,-96.35"/>
</g>
<!-- Node7&#45;&gt;Node2 -->
<g id="edge15" class="edge">
<title>Node7&#45;&gt;Node2</title>
<path fill="none" stroke="#63b8ff" d="M343.96,-252.55C290.85,-242.23 203.49,-225.25 146.1,-214.1"/>
<polygon fill="#63b8ff" stroke="#63b8ff" points="147.01,-210.71 136.52,-212.24 145.67,-217.58 147.01,-210.71"/>
</g>
<!-- Node8 -->
<g id="node8" class="node">
<title>Node8</title>
<g id="a_node8"><a xlink:href="JASGadget_8h.html" target="_top" xlink:title=" ">
<polygon fill="white" stroke="#666666" points="588,-211.5 434,-211.5 434,-192.5 588,-192.5 588,-211.5"/>
<text text-anchor="middle" x="511" y="-199.5" font-family="Helvetica,sans-Serif" font-size="10.00">JSystem/JAudio2/JASGadget.h</text>
</a>
</g>
</g>
<!-- Node7&#45;&gt;Node8 -->
<g id="edge8" class="edge">
<title>Node7&#45;&gt;Node8</title>
<path fill="none" stroke="#63b8ff" d="M408.38,-252.62C428.01,-243.12 459.39,-227.95 482.29,-216.88"/>
<polygon fill="#63b8ff" stroke="#63b8ff" points="483.61,-220.13 491.09,-212.63 480.56,-213.83 483.61,-220.13"/>
</g>
<!-- Node10 -->
<g id="node10" class="node">
<title>Node10</title>
<g id="a_node10"><a xlink:href="JASOscillator_8h.html" target="_top" xlink:title=" ">
<polygon fill="white" stroke="#666666" points="758,-145.5 594,-145.5 594,-126.5 758,-126.5 758,-145.5"/>
<text text-anchor="middle" x="676" y="-133.5" font-family="Helvetica,sans-Serif" font-size="10.00">JSystem/JAudio2/JASOscillator.h</text>
</a>
</g>
</g>
<!-- Node7&#45;&gt;Node10 -->
<g id="edge11" class="edge">
<title>Node7&#45;&gt;Node10</title>
<path fill="none" stroke="#63b8ff" d="M463.53,-256.09C504.81,-250.58 556.07,-239.45 597,-217 624.87,-201.71 649.25,-173.5 663.3,-155"/>
<polygon fill="#63b8ff" stroke="#63b8ff" points="666.02,-157.21 669.11,-147.08 660.37,-153.07 666.02,-157.21"/>
</g>
<!-- Node11 -->
<g id="node11" class="node">
<title>Node11</title>
<g id="a_node11"><a xlink:href="JASRegisterParam_8h.html" target="_top" xlink:title=" ">
<polygon fill="white" stroke="#666666" points="377.5,-217 226.5,-217 226.5,-187 377.5,-187 377.5,-217"/>
<text text-anchor="start" x="234.5" y="-205" font-family="Helvetica,sans-Serif" font-size="10.00">JSystem/JAudio2/JASRegister</text>
<text text-anchor="middle" x="302" y="-194" font-family="Helvetica,sans-Serif" font-size="10.00">Param.h</text>
</a>
</g>
</g>
<!-- Node7&#45;&gt;Node11 -->
<g id="edge13" class="edge">
<title>Node7&#45;&gt;Node11</title>
<path fill="none" stroke="#63b8ff" d="M376.63,-252.62C365.12,-244.96 348.04,-233.61 333.13,-223.69"/>
<polygon fill="#63b8ff" stroke="#63b8ff" points="335.25,-220.9 324.98,-218.28 331.37,-226.73 335.25,-220.9"/>
</g>
<!-- Node12 -->
<g id="node12" class="node">
<title>Node12</title>
<g id="a_node12"><a xlink:href="JASTrackPort_8h.html" target="_top" xlink:title=" ">
<polygon fill="white" stroke="#666666" points="412,-151 272,-151 272,-121 412,-121 412,-151"/>
<text text-anchor="start" x="280" y="-139" font-family="Helvetica,sans-Serif" font-size="10.00">JSystem/JAudio2/JASTrack</text>
<text text-anchor="middle" x="342" y="-128" font-family="Helvetica,sans-Serif" font-size="10.00">Port.h</text>
</a>
</g>
</g>
<!-- Node7&#45;&gt;Node12 -->
<g id="edge16" class="edge">
<title>Node7&#45;&gt;Node12</title>
<path fill="none" stroke="#63b8ff" d="M391.31,-252.84C393.09,-238.53 395.11,-209.3 386,-187 381.83,-176.78 374.65,-167.23 367.28,-159.27"/>
<polygon fill="#63b8ff" stroke="#63b8ff" points="369.96,-156.99 360.42,-152.37 364.99,-161.93 369.96,-156.99"/>
</g>
<!-- Node9 -->
<g id="node9" class="node">
<title>Node9</title>
<g id="a_node9"><a xlink:href="JUTAssert_8h.html" target="_top" xlink:title=" ">
<polygon fill="white" stroke="#666666" points="576,-145.5 430,-145.5 430,-126.5 576,-126.5 576,-145.5"/>
<text text-anchor="middle" x="503" y="-133.5" font-family="Helvetica,sans-Serif" font-size="10.00">JSystem/JUtility/JUTAssert.h</text>
</a>
</g>
</g>
<!-- Node8&#45;&gt;Node9 -->
<g id="edge9" class="edge">
<title>Node8&#45;&gt;Node9</title>
<path fill="none" stroke="#63b8ff" d="M509.89,-192.1C508.77,-183.12 506.99,-168.95 505.53,-157.22"/>
<polygon fill="#63b8ff" stroke="#63b8ff" points="509,-156.81 504.29,-147.33 502.06,-157.68 509,-156.81"/>
</g>
<!-- Node9&#45;&gt;Node4 -->
<g id="edge10" class="edge">
<title>Node9&#45;&gt;Node4</title>
<path fill="none" stroke="#63b8ff" d="M471.11,-126.12C435.1,-116.09 376.34,-99.72 336.23,-88.54"/>
<polygon fill="#63b8ff" stroke="#63b8ff" points="337.23,-85.19 326.65,-85.87 335.35,-91.93 337.23,-85.19"/>
</g>
<!-- Node10&#45;&gt;Node4 -->
<g id="edge12" class="edge">
<title>Node10&#45;&gt;Node4</title>
<path fill="none" stroke="#63b8ff" d="M617.75,-126.03C606.86,-124.35 595.59,-122.62 585,-121 500.89,-108.12 403.13,-93.24 344.76,-84.37"/>
<polygon fill="#63b8ff" stroke="#63b8ff" points="345.54,-80.94 335.12,-82.9 344.48,-87.86 345.54,-80.94"/>
</g>
<!-- Node11&#45;&gt;Node4 -->
<g id="edge14" class="edge">
<title>Node11&#45;&gt;Node4</title>
<path fill="none" stroke="#63b8ff" d="M286.74,-186.84C277.95,-177.61 267.73,-164.74 263,-151 258.66,-138.39 259.1,-133.75 263,-121 265.99,-111.23 271.92,-101.66 277.73,-93.91"/>
<polygon fill="#63b8ff" stroke="#63b8ff" points="280.26,-96.35 283.84,-86.38 274.82,-91.95 280.26,-96.35"/>
</g>
<!-- Node12&#45;&gt;Node4 -->
<g id="edge17" class="edge">
<title>Node12&#45;&gt;Node4</title>
<path fill="none" stroke="#63b8ff" d="M329.89,-120.54C323.13,-112.48 314.68,-102.38 307.56,-93.89"/>
<polygon fill="#63b8ff" stroke="#63b8ff" points="310.34,-91.75 301.24,-86.34 304.98,-96.25 310.34,-91.75"/>
</g>
</g>
</svg>
