<?xml version="1.0" encoding="UTF-8" standalone="no"?>
<!DOCTYPE svg PUBLIC "-//W3C//DTD SVG 1.1//EN"
 "http://www.w3.org/Graphics/SVG/1.1/DTD/svg11.dtd">
<!-- Generated by graphviz version 7.0.5 (20221223.1930)
 -->
<!-- Title: include/JSystem/JAudio2/JASTrackPort.h Pages: 1 -->
<!--zoomable 621 -->
<svg id="main" version="1.1" xmlns="http://www.w3.org/2000/svg" xmlns:xlink="http://www.w3.org/1999/xlink" xml:space="preserve" onload="init(evt)">
<style type="text/css"><![CDATA[
.edge:hover path { stroke: red; }
.edge:hover polygon { stroke: red; fill: red; }
]]></style>
<script type="text/javascript"><![CDATA[
var edges = document.getElementsByTagName('g');
if (edges && edges.length) {
  for (var i=0;i<edges.length;i++) {
    if (edges[i].id.substr(0,4)=='edge') {
      edges[i].setAttribute('class','edge');
    }
  }
}
]]></script>
        <defs>
                <circle id="rim" cx="0" cy="0" r="7"/>
                <circle id="rim2" cx="0" cy="0" r="3.5"/>
                <g id="zoomPlus">
                        <use xlink:href="#rim" fill="#404040">
                                <set attributeName="fill" to="#808080" begin="zoomplus.mouseover" end="zoomplus.mouseout"/>
                        </use>
                        <path d="M-4,0h8M0,-4v8" fill="none" stroke="white" stroke-width="1.5" pointer-events="none"/>
                </g>
                <g id="zoomMin">
                        <use xlink:href="#rim" fill="#404040">
                                <set attributeName="fill" to="#808080" begin="zoomminus.mouseover" end="zoomminus.mouseout"/>
                        </use>
                        <path d="M-4,0h8" fill="none" stroke="white" stroke-width="1.5" pointer-events="none"/>
                </g>
                <g id="dirArrow">
                        <path fill="none" stroke="white" stroke-width="1.5" d="M0,-3.0v7 M-2.5,-0.5L0,-3.0L2.5,-0.5"/>
                </g>
               <g id="resetDef">
                       <use xlink:href="#rim2" fill="#404040">
                               <set attributeName="fill" to="#808080" begin="reset.mouseover" end="reset.mouseout"/>
                       </use>
               </g>
        </defs>

<script type="text/javascript">
var viewWidth = 3365;
var viewHeight = 621;
var sectionId = 'dynsection-1';
</script>
<script xlink:href="svgpan.js"/>
<svg id="graph" class="graph">
<g id="viewport">
<title>include/JSystem/JAudio2/JASTrackPort.h</title>
<!-- Node1 -->
<g id="node1" class="node">
<title>Node1</title>
<g id="a_node1"><a xlink:title=" ">
<polygon fill="#999999" stroke="#666666" points="2533.36,-613 2406.36,-613 2406.36,-583 2533.36,-583 2533.36,-613"/>
<text text-anchor="start" x="2414.36" y="-601" font-family="Helvetica,sans-Serif" font-size="10.00">include/JSystem/JAudio2</text>
<text text-anchor="middle" x="2469.86" y="-590" font-family="Helvetica,sans-Serif" font-size="10.00">/JASTrackPort.h</text>
</a>
</g>
</g>
<!-- Node2 -->
<g id="node2" class="node">
<title>Node2</title>
<g id="a_node2"><a xlink:href="JASTrack_8h.html" target="_top" xlink:title=" ">
<polygon fill="white" stroke="#666666" points="2286.36,-547 2159.36,-547 2159.36,-517 2286.36,-517 2286.36,-547"/>
<text text-anchor="start" x="2167.36" y="-535" font-family="Helvetica,sans-Serif" font-size="10.00">include/JSystem/JAudio2</text>
<text text-anchor="middle" x="2222.86" y="-524" font-family="Helvetica,sans-Serif" font-size="10.00">/JASTrack.h</text>
</a>
</g>
</g>
<!-- Node1&#45;&gt;Node2 -->
<g id="edge1" class="edge">
<title>Node1&#45;&gt;Node2</title>
<path fill="none" stroke="#63b8ff" d="M2403.12,-579.71C2364.07,-569.59 2315.34,-556.96 2278.4,-547.39"/>
<polygon fill="#63b8ff" stroke="#63b8ff" points="2402.1,-583.06 2412.66,-582.18 2403.86,-576.28 2402.1,-583.06"/>
</g>
<!-- Node379 -->
<g id="node48" class="node">
<title>Node379</title>
<g id="a_node48"><a xlink:href="JASSeqParser_8cpp.html" target="_top" xlink:title=" ">
<polygon fill="white" stroke="#666666" points="2681.36,-481 2570.36,-481 2570.36,-451 2681.36,-451 2681.36,-481"/>
<text text-anchor="start" x="2578.36" y="-469" font-family="Helvetica,sans-Serif" font-size="10.00">libs/JSystem/JAudio2</text>
<text text-anchor="middle" x="2625.86" y="-458" font-family="Helvetica,sans-Serif" font-size="10.00">/JASSeqParser.cpp</text>
</a>
</g>
</g>
<!-- Node1&#45;&gt;Node379 -->
<g id="edge54" class="edge">
<title>Node1&#45;&gt;Node379</title>
<path fill="none" stroke="#63b8ff" d="M2469.87,-571.46C2471.2,-554.16 2475.67,-531.83 2488.86,-517 2500.22,-504.23 2537.7,-491.02 2570.59,-481.39"/>
<polygon fill="#63b8ff" stroke="#63b8ff" points="2466.39,-571.08 2469.45,-581.23 2473.38,-571.39 2466.39,-571.08"/>
</g>
<!-- Node381 -->
<g id="node50" class="node">
<title>Node381</title>
<g id="a_node50"><a xlink:href="JASTrackPort_8cpp.html" target="_top" xlink:title=" ">
<polygon fill="white" stroke="#666666" points="2609.36,-547 2498.36,-547 2498.36,-517 2609.36,-517 2609.36,-547"/>
<text text-anchor="start" x="2506.36" y="-535" font-family="Helvetica,sans-Serif" font-size="10.00">libs/JSystem/JAudio2</text>
<text text-anchor="middle" x="2553.86" y="-524" font-family="Helvetica,sans-Serif" font-size="10.00">/JASTrackPort.cpp</text>
</a>
</g>
</g>
<!-- Node1&#45;&gt;Node381 -->
<g id="edge55" class="edge">
<title>Node1&#45;&gt;Node381</title>
<path fill="none" stroke="#63b8ff" d="M2497.46,-575.97C2509.75,-566.61 2523.92,-555.81 2534.98,-547.39"/>
<polygon fill="#63b8ff" stroke="#63b8ff" points="2495.54,-573.03 2489.71,-581.88 2499.78,-578.6 2495.54,-573.03"/>
</g>
<!-- Node3 -->
<g id="node3" class="node">
<title>Node3</title>
<g id="a_node3"><a xlink:href="JAISe_8h.html" target="_top" xlink:title=" ">
<polygon fill="white" stroke="#666666" points="2552.36,-481 2425.36,-481 2425.36,-451 2552.36,-451 2552.36,-481"/>
<text text-anchor="start" x="2433.36" y="-469" font-family="Helvetica,sans-Serif" font-size="10.00">include/JSystem/JAudio2</text>
<text text-anchor="middle" x="2488.86" y="-458" font-family="Helvetica,sans-Serif" font-size="10.00">/JAISe.h</text>
</a>
</g>
</g>
<!-- Node2&#45;&gt;Node3 -->
<g id="edge2" class="edge">
<title>Node2&#45;&gt;Node3</title>
<path fill="none" stroke="#63b8ff" d="M2293.93,-513.9C2336.12,-503.75 2389.01,-491.02 2429.05,-481.39"/>
<polygon fill="#63b8ff" stroke="#63b8ff" points="2293.27,-510.46 2284.36,-516.2 2294.9,-517.27 2293.27,-510.46"/>
</g>
<!-- Node373 -->
<g id="node42" class="node">
<title>Node373</title>
<g id="a_node42"><a xlink:href="JAUInitializer_8cpp.html" target="_top" xlink:title=" ">
<polygon fill="white" stroke="#666666" points="1955.36,-415 1844.36,-415 1844.36,-385 1955.36,-385 1955.36,-415"/>
<text text-anchor="start" x="1852.36" y="-403" font-family="Helvetica,sans-Serif" font-size="10.00">libs/JSystem/JAudio2</text>
<text text-anchor="middle" x="1899.86" y="-392" font-family="Helvetica,sans-Serif" font-size="10.00">/JAUInitializer.cpp</text>
</a>
</g>
</g>
<!-- Node2&#45;&gt;Node373 -->
<g id="edge53" class="edge">
<title>Node2&#45;&gt;Node373</title>
<path fill="none" stroke="#63b8ff" d="M2147.45,-530.23C2062.18,-527.56 1931.11,-517.45 1899.86,-481 1884.32,-462.86 1889.66,-432.98 1894.84,-415.33"/>
<polygon fill="#63b8ff" stroke="#63b8ff" points="2147.3,-533.72 2157.39,-530.5 2147.5,-526.73 2147.3,-533.72"/>
</g>
<!-- Node374 -->
<g id="node43" class="node">
<title>Node374</title>
<g id="a_node43"><a xlink:href="JAISeq_8h.html" target="_top" xlink:title=" ">
<polygon fill="white" stroke="#666666" points="1852.36,-481 1725.36,-481 1725.36,-451 1852.36,-451 1852.36,-481"/>
<text text-anchor="start" x="1733.36" y="-469" font-family="Helvetica,sans-Serif" font-size="10.00">include/JSystem/JAudio2</text>
<text text-anchor="middle" x="1788.86" y="-458" font-family="Helvetica,sans-Serif" font-size="10.00">/JAISeq.h</text>
</a>
</g>
</g>
<!-- Node2&#45;&gt;Node374 -->
<g id="edge45" class="edge">
<title>Node2&#45;&gt;Node374</title>
<path fill="none" stroke="#63b8ff" d="M2147.86,-521.31C2075.73,-511.79 1963.68,-496.48 1866.86,-481 1862.24,-480.26 1857.48,-479.47 1852.68,-478.66"/>
<polygon fill="#63b8ff" stroke="#63b8ff" points="2147.22,-524.75 2157.59,-522.59 2148.13,-517.81 2147.22,-524.75"/>
</g>
<!-- Node376 -->
<g id="node45" class="node">
<title>Node376</title>
<g id="a_node45"><a xlink:href="JAISound_8cpp.html" target="_top" xlink:title=" ">
<polygon fill="white" stroke="#666666" points="2020.36,-481 1909.36,-481 1909.36,-451 2020.36,-451 2020.36,-481"/>
<text text-anchor="start" x="1917.36" y="-469" font-family="Helvetica,sans-Serif" font-size="10.00">libs/JSystem/JAudio2</text>
<text text-anchor="middle" x="1964.86" y="-458" font-family="Helvetica,sans-Serif" font-size="10.00">/JAISound.cpp</text>
</a>
</g>
</g>
<!-- Node2&#45;&gt;Node376 -->
<g id="edge48" class="edge">
<title>Node2&#45;&gt;Node376</title>
<path fill="none" stroke="#63b8ff" d="M2153.48,-513.79C2111.85,-503.46 2059.6,-490.5 2020.66,-480.84"/>
<polygon fill="#63b8ff" stroke="#63b8ff" points="2152.62,-517.18 2163.17,-516.19 2154.31,-510.39 2152.62,-517.18"/>
</g>
<!-- Node377 -->
<g id="node46" class="node">
<title>Node377</title>
<g id="a_node46"><a xlink:href="JAISoundChild_8cpp.html" target="_top" xlink:title=" ">
<polygon fill="white" stroke="#666666" points="2149.36,-481 2038.36,-481 2038.36,-451 2149.36,-451 2149.36,-481"/>
<text text-anchor="start" x="2046.36" y="-469" font-family="Helvetica,sans-Serif" font-size="10.00">libs/JSystem/JAudio2</text>
<text text-anchor="middle" x="2093.86" y="-458" font-family="Helvetica,sans-Serif" font-size="10.00">/JAISoundChild.cpp</text>
</a>
</g>
</g>
<!-- Node2&#45;&gt;Node377 -->
<g id="edge49" class="edge">
<title>Node2&#45;&gt;Node377</title>
<path fill="none" stroke="#63b8ff" d="M2183.74,-511.59C2164.09,-501.84 2140.71,-490.24 2122.72,-481.31"/>
<polygon fill="#63b8ff" stroke="#63b8ff" points="2182.04,-514.66 2192.56,-515.96 2185.15,-508.38 2182.04,-514.66"/>
</g>
<!-- Node378 -->
<g id="node47" class="node">
<title>Node378</title>
<g id="a_node47"><a xlink:href="JASSeqCtrl_8cpp.html" target="_top" xlink:title=" ">
<polygon fill="white" stroke="#666666" points="2278.36,-481 2167.36,-481 2167.36,-451 2278.36,-451 2278.36,-481"/>
<text text-anchor="start" x="2175.36" y="-469" font-family="Helvetica,sans-Serif" font-size="10.00">libs/JSystem/JAudio2</text>
<text text-anchor="middle" x="2222.86" y="-458" font-family="Helvetica,sans-Serif" font-size="10.00">/JASSeqCtrl.cpp</text>
</a>
</g>
</g>
<!-- Node2&#45;&gt;Node378 -->
<g id="edge50" class="edge">
<title>Node2&#45;&gt;Node378</title>
<path fill="none" stroke="#63b8ff" d="M2222.86,-505.39C2222.86,-497.13 2222.86,-488.28 2222.86,-481.16"/>
<polygon fill="#63b8ff" stroke="#63b8ff" points="2219.36,-505.28 2222.86,-515.28 2226.36,-505.28 2219.36,-505.28"/>
</g>
<!-- Node2&#45;&gt;Node379 -->
<g id="edge51" class="edge">
<title>Node2&#45;&gt;Node379</title>
<path fill="none" stroke="#63b8ff" d="M2297.73,-521.35C2366.38,-512.17 2470.74,-497.35 2560.86,-481 2563.82,-480.46 2566.84,-479.89 2569.89,-479.3"/>
<polygon fill="#63b8ff" stroke="#63b8ff" points="2297.56,-517.84 2288.11,-522.63 2298.48,-524.78 2297.56,-517.84"/>
</g>
<!-- Node380 -->
<g id="node49" class="node">
<title>Node380</title>
<g id="a_node49"><a xlink:href="JASTrack_8cpp.html" target="_top" xlink:title=" ">
<polygon fill="white" stroke="#666666" points="2407.36,-481 2296.36,-481 2296.36,-451 2407.36,-451 2407.36,-481"/>
<text text-anchor="start" x="2304.36" y="-469" font-family="Helvetica,sans-Serif" font-size="10.00">libs/JSystem/JAudio2</text>
<text text-anchor="middle" x="2351.86" y="-458" font-family="Helvetica,sans-Serif" font-size="10.00">/JASTrack.cpp</text>
</a>
</g>
</g>
<!-- Node2&#45;&gt;Node380 -->
<g id="edge52" class="edge">
<title>Node2&#45;&gt;Node380</title>
<path fill="none" stroke="#63b8ff" d="M2261.99,-511.59C2281.64,-501.84 2305.02,-490.24 2323.01,-481.31"/>
<polygon fill="#63b8ff" stroke="#63b8ff" points="2260.57,-508.38 2253.17,-515.96 2263.68,-514.66 2260.57,-508.38"/>
</g>
<!-- Node4 -->
<g id="node4" class="node">
<title>Node4</title>
<g id="a_node4"><a xlink:href="JAISeMgr_8h.html" target="_top" xlink:title=" ">
<polygon fill="white" stroke="#666666" points="2607.36,-415 2480.36,-415 2480.36,-385 2607.36,-385 2607.36,-415"/>
<text text-anchor="start" x="2488.36" y="-403" font-family="Helvetica,sans-Serif" font-size="10.00">include/JSystem/JAudio2</text>
<text text-anchor="middle" x="2543.86" y="-392" font-family="Helvetica,sans-Serif" font-size="10.00">/JAISeMgr.h</text>
</a>
</g>
</g>
<!-- Node3&#45;&gt;Node4 -->
<g id="edge3" class="edge">
<title>Node3&#45;&gt;Node4</title>
<path fill="none" stroke="#63b8ff" d="M2508.42,-442.24C2516.18,-433.21 2524.86,-423.11 2531.69,-415.16"/>
<polygon fill="#63b8ff" stroke="#63b8ff" points="2505.92,-439.78 2502.06,-449.65 2511.23,-444.35 2505.92,-439.78"/>
</g>
<!-- Node370 -->
<g id="node39" class="node">
<title>Node370</title>
<g id="a_node39"><a xlink:href="JAISe_8cpp.html" target="_top" xlink:title=" ">
<polygon fill="white" stroke="#666666" points="2470.36,-349 2359.36,-349 2359.36,-319 2470.36,-319 2470.36,-349"/>
<text text-anchor="start" x="2367.36" y="-337" font-family="Helvetica,sans-Serif" font-size="10.00">libs/JSystem/JAudio2</text>
<text text-anchor="middle" x="2414.86" y="-326" font-family="Helvetica,sans-Serif" font-size="10.00">/JAISe.cpp</text>
</a>
</g>
</g>
<!-- Node3&#45;&gt;Node370 -->
<g id="edge43" class="edge">
<title>Node3&#45;&gt;Node370</title>
<path fill="none" stroke="#63b8ff" d="M2475.1,-440.81C2459.82,-413.98 2435.68,-371.57 2423.1,-349.47"/>
<polygon fill="#63b8ff" stroke="#63b8ff" points="2471.92,-442.32 2479.91,-449.28 2478.01,-438.85 2471.92,-442.32"/>
</g>
<!-- Node3&#45;&gt;Node373 -->
<g id="edge44" class="edge">
<title>Node3&#45;&gt;Node373</title>
<path fill="none" stroke="#63b8ff" d="M2413.85,-450.81C2240.79,-426.34 2048.69,-411.24 1955.81,-404.71"/>
<polygon fill="#63b8ff" stroke="#63b8ff" points="2413.33,-454.27 2423.72,-452.22 2414.32,-447.34 2413.33,-454.27"/>
</g>
<!-- Node5 -->
<g id="node5" class="node">
<title>Node5</title>
<g id="a_node5"><a xlink:href="Z2SoundMgr_8h.html" target="_top" xlink:title=" ">
<polygon fill="white" stroke="#666666" points="2862.86,-349 2762.86,-349 2762.86,-319 2862.86,-319 2862.86,-349"/>
<text text-anchor="start" x="2770.86" y="-337" font-family="Helvetica,sans-Serif" font-size="10.00">include/Z2AudioLib</text>
<text text-anchor="middle" x="2812.86" y="-326" font-family="Helvetica,sans-Serif" font-size="10.00">/Z2SoundMgr.h</text>
</a>
</g>
</g>
<!-- Node4&#45;&gt;Node5 -->
<g id="edge4" class="edge">
<title>Node4&#45;&gt;Node5</title>
<path fill="none" stroke="#63b8ff" d="M2615.47,-381.96C2661.93,-370.91 2721.3,-356.78 2762.74,-346.92"/>
<polygon fill="#63b8ff" stroke="#63b8ff" points="2614.96,-378.49 2606.04,-384.21 2616.58,-385.3 2614.96,-378.49"/>
</g>
<!-- Node4&#45;&gt;Node370 -->
<g id="edge40" class="edge">
<title>Node4&#45;&gt;Node370</title>
<path fill="none" stroke="#63b8ff" d="M2504.74,-379.59C2485.09,-369.84 2461.71,-358.24 2443.72,-349.31"/>
<polygon fill="#63b8ff" stroke="#63b8ff" points="2503.04,-382.66 2513.56,-383.96 2506.15,-376.38 2503.04,-382.66"/>
</g>
<!-- Node371 -->
<g id="node40" class="node">
<title>Node371</title>
<g id="a_node40"><a xlink:href="JAISeMgr_8cpp.html" target="_top" xlink:title=" ">
<polygon fill="white" stroke="#666666" points="2599.36,-349 2488.36,-349 2488.36,-319 2599.36,-319 2599.36,-349"/>
<text text-anchor="start" x="2496.36" y="-337" font-family="Helvetica,sans-Serif" font-size="10.00">libs/JSystem/JAudio2</text>
<text text-anchor="middle" x="2543.86" y="-326" font-family="Helvetica,sans-Serif" font-size="10.00">/JAISeMgr.cpp</text>
</a>
</g>
</g>
<!-- Node4&#45;&gt;Node371 -->
<g id="edge41" class="edge">
<title>Node4&#45;&gt;Node371</title>
<path fill="none" stroke="#63b8ff" d="M2543.86,-373.39C2543.86,-365.13 2543.86,-356.28 2543.86,-349.16"/>
<polygon fill="#63b8ff" stroke="#63b8ff" points="2540.36,-373.28 2543.86,-383.28 2547.36,-373.28 2540.36,-373.28"/>
</g>
<!-- Node372 -->
<g id="node41" class="node">
<title>Node372</title>
<g id="a_node41"><a xlink:href="JAUAudioArcLoader_8cpp.html" target="_top" xlink:title=" ">
<polygon fill="white" stroke="#666666" points="2744.36,-349 2617.36,-349 2617.36,-319 2744.36,-319 2744.36,-349"/>
<text text-anchor="start" x="2625.36" y="-337" font-family="Helvetica,sans-Serif" font-size="10.00">libs/JSystem/JAudio2</text>
<text text-anchor="middle" x="2680.86" y="-326" font-family="Helvetica,sans-Serif" font-size="10.00">/JAUAudioArcLoader.cpp</text>
</a>
</g>
</g>
<!-- Node4&#45;&gt;Node372 -->
<g id="edge42" class="edge">
<title>Node4&#45;&gt;Node372</title>
<path fill="none" stroke="#63b8ff" d="M2584.84,-379.86C2605.82,-370.05 2630.94,-358.32 2650.22,-349.31"/>
<polygon fill="#63b8ff" stroke="#63b8ff" points="2583.56,-376.59 2575.98,-384 2586.52,-382.94 2583.56,-376.59"/>
</g>
<!-- Node6 -->
<g id="node6" class="node">
<title>Node6</title>
<g id="a_node6"><a xlink:href="Z2AudioMgr_8h.html" target="_top" xlink:title=" ">
<polygon fill="white" stroke="#666666" points="2623.86,-283 2523.86,-283 2523.86,-253 2623.86,-253 2623.86,-283"/>
<text text-anchor="start" x="2531.86" y="-271" font-family="Helvetica,sans-Serif" font-size="10.00">include/Z2AudioLib</text>
<text text-anchor="middle" x="2573.86" y="-260" font-family="Helvetica,sans-Serif" font-size="10.00">/Z2AudioMgr.h</text>
</a>
</g>
</g>
<!-- Node5&#45;&gt;Node6 -->
<g id="edge5" class="edge">
<title>Node5&#45;&gt;Node6</title>
<path fill="none" stroke="#63b8ff" d="M2751.39,-316.54C2711.91,-305.97 2661.27,-292.41 2624.19,-282.48"/>
<polygon fill="#63b8ff" stroke="#63b8ff" points="2750.44,-319.91 2761.01,-319.11 2752.25,-313.15 2750.44,-319.91"/>
</g>
<!-- Node367 -->
<g id="node36" class="node">
<title>Node367</title>
<g id="a_node36"><a xlink:href="Z2SceneMgr_8cpp.html" target="_top" xlink:title=" ">
<polygon fill="white" stroke="#666666" points="2803.36,-277.5 2642.36,-277.5 2642.36,-258.5 2803.36,-258.5 2803.36,-277.5"/>
<text text-anchor="middle" x="2722.86" y="-265.5" font-family="Helvetica,sans-Serif" font-size="10.00">libs/Z2AudioLib/Z2SceneMgr.cpp</text>
</a>
</g>
</g>
<!-- Node5&#45;&gt;Node367 -->
<g id="edge37" class="edge">
<title>Node5&#45;&gt;Node367</title>
<path fill="none" stroke="#63b8ff" d="M2783.7,-312.26C2767.32,-300.61 2747.74,-286.69 2735.3,-277.84"/>
<polygon fill="#63b8ff" stroke="#63b8ff" points="2781.48,-314.98 2791.66,-317.92 2785.53,-309.27 2781.48,-314.98"/>
</g>
<!-- Node368 -->
<g id="node37" class="node">
<title>Node368</title>
<g id="a_node37"><a xlink:href="Z2SoundMgr_8cpp.html" target="_top" xlink:title=" ">
<polygon fill="white" stroke="#666666" points="2982.36,-277.5 2821.36,-277.5 2821.36,-258.5 2982.36,-258.5 2982.36,-277.5"/>
<text text-anchor="middle" x="2901.86" y="-265.5" font-family="Helvetica,sans-Serif" font-size="10.00">libs/Z2AudioLib/Z2SoundMgr.cpp</text>
</a>
</g>
</g>
<!-- Node5&#45;&gt;Node368 -->
<g id="edge38" class="edge">
<title>Node5&#45;&gt;Node368</title>
<path fill="none" stroke="#63b8ff" d="M2841.71,-312.26C2857.9,-300.61 2877.26,-286.69 2889.56,-277.84"/>
<polygon fill="#63b8ff" stroke="#63b8ff" points="2839.92,-309.23 2833.84,-317.91 2844.01,-314.92 2839.92,-309.23"/>
</g>
<!-- Node369 -->
<g id="node38" class="node">
<title>Node369</title>
<g id="a_node38"><a xlink:href="Z2WolfHowlMgr_8cpp.html" target="_top" xlink:title=" ">
<polygon fill="white" stroke="#666666" points="3140.86,-283 3000.86,-283 3000.86,-253 3140.86,-253 3140.86,-283"/>
<text text-anchor="start" x="3008.86" y="-271" font-family="Helvetica,sans-Serif" font-size="10.00">libs/Z2AudioLib/Z2WolfHowl</text>
<text text-anchor="middle" x="3070.86" y="-260" font-family="Helvetica,sans-Serif" font-size="10.00">Mgr.cpp</text>
</a>
</g>
</g>
<!-- Node5&#45;&gt;Node369 -->
<g id="edge39" class="edge">
<title>Node5&#45;&gt;Node369</title>
<path fill="none" stroke="#63b8ff" d="M2874.38,-317.74C2916.26,-307.35 2971.33,-293.69 3012.52,-283.47"/>
<polygon fill="#63b8ff" stroke="#63b8ff" points="2873.55,-314.34 2864.69,-320.14 2875.24,-321.13 2873.55,-314.34"/>
</g>
<!-- Node7 -->
<g id="node7" class="node">
<title>Node7</title>
<g id="a_node7"><a xlink:href="m__Do__audio_8h.html" target="_top" xlink:title=" ">
<polygon fill="white" stroke="#666666" points="2560.86,-217 2420.86,-217 2420.86,-198 2560.86,-198 2560.86,-217"/>
<text text-anchor="middle" x="2490.86" y="-205" font-family="Helvetica,sans-Serif" font-size="10.00">include/m_Do/m_Do_audio.h</text>
</a>
</g>
</g>
<!-- Node6&#45;&gt;Node7 -->
<g id="edge6" class="edge">
<title>Node6&#45;&gt;Node7</title>
<path fill="none" stroke="#63b8ff" d="M2544,-245.95C2529.93,-236.03 2513.91,-224.74 2503.17,-217.18"/>
<polygon fill="#63b8ff" stroke="#63b8ff" points="2541.92,-248.77 2552.11,-251.67 2545.95,-243.05 2541.92,-248.77"/>
</g>
<!-- Node366 -->
<g id="node35" class="node">
<title>Node366</title>
<g id="a_node35"><a xlink:href="Z2AudioMgr_8cpp.html" target="_top" xlink:title=" ">
<polygon fill="white" stroke="#666666" points="2736.86,-217 2578.86,-217 2578.86,-198 2736.86,-198 2736.86,-217"/>
<text text-anchor="middle" x="2657.86" y="-205" font-family="Helvetica,sans-Serif" font-size="10.00">libs/Z2AudioLib/Z2AudioMgr.cpp</text>
</a>
</g>
</g>
<!-- Node6&#45;&gt;Node366 -->
<g id="edge36" class="edge">
<title>Node6&#45;&gt;Node366</title>
<path fill="none" stroke="#63b8ff" d="M2603.67,-246.24C2618.02,-236.25 2634.44,-224.82 2645.41,-217.18"/>
<polygon fill="#63b8ff" stroke="#63b8ff" points="2602.07,-243.09 2595.87,-251.67 2606.08,-248.83 2602.07,-243.09"/>
</g>
<!-- Node8 -->
<g id="node8" class="node">
<title>Node8</title>
<g id="a_node8"><a xlink:href="m__Do__ext_8h.html" target="_top" xlink:title=" ">
<polygon fill="#fff0f0" stroke="red" points="1129.86,-156.5 999.86,-156.5 999.86,-137.5 1129.86,-137.5 1129.86,-156.5"/>
<text text-anchor="middle" x="1064.86" y="-144.5" font-family="Helvetica,sans-Serif" font-size="10.00">include/m_Do/m_Do_ext.h</text>
</a>
</g>
</g>
<!-- Node7&#45;&gt;Node8 -->
<g id="edge7" class="edge">
<title>Node7&#45;&gt;Node8</title>
<path fill="none" stroke="#63b8ff" d="M2409.16,-203.15C2152.12,-192.6 1363.2,-160.24 1130.27,-150.68"/>
<polygon fill="#63b8ff" stroke="#63b8ff" points="2408.99,-206.64 2419.12,-203.56 2409.27,-199.65 2408.99,-206.64"/>
</g>
<!-- Node55 -->
<g id="node14" class="node">
<title>Node55</title>
<g id="a_node14"><a xlink:href="d__kankyo_8cpp.html" target="_top" xlink:title=" ">
<polygon fill="white" stroke="#666666" points="1041.86,-24.5 907.86,-24.5 907.86,-5.5 1041.86,-5.5 1041.86,-24.5"/>
<text text-anchor="middle" x="974.86" y="-12.5" font-family="Helvetica,sans-Serif" font-size="10.00">src/d/kankyo/d_kankyo.cpp</text>
</a>
</g>
</g>
<!-- Node7&#45;&gt;Node55 -->
<g id="edge28" class="edge">
<title>Node7&#45;&gt;Node55</title>
<path fill="none" stroke="#63b8ff" d="M2409.13,-206.03C1989.22,-203.25 90.75,-185.71 6.86,-96 -2.24,-86.26 -2.32,-75.67 6.86,-66 37.84,-33.38 692.7,-20.37 907.37,-16.97"/>
<polygon fill="#63b8ff" stroke="#63b8ff" points="2409,-209.53 2419.02,-206.1 2409.05,-202.53 2409,-209.53"/>
</g>
<!-- Node169 -->
<g id="node15" class="node">
<title>Node169</title>
<g id="a_node15"><a xlink:href="d__kankyo__wether_8cpp.html" target="_top" xlink:title=" ">
<polygon fill="white" stroke="#666666" points="2123.86,-30 2007.86,-30 2007.86,0 2123.86,0 2123.86,-30"/>
<text text-anchor="start" x="2015.86" y="-18" font-family="Helvetica,sans-Serif" font-size="10.00">src/d/kankyo/d_kankyo</text>
<text text-anchor="middle" x="2065.86" y="-7" font-family="Helvetica,sans-Serif" font-size="10.00">_wether.cpp</text>
</a>
</g>
</g>
<!-- Node7&#45;&gt;Node169 -->
<g id="edge29" class="edge">
<title>Node7&#45;&gt;Node169</title>
<path fill="none" stroke="#63b8ff" d="M2409.2,-206.1C2314.87,-204.03 2167.07,-195.35 2123.86,-162 2087.54,-133.96 2102.83,-108.64 2085.86,-66 2081.09,-54.01 2075.65,-40.42 2071.65,-30.44"/>
<polygon fill="#63b8ff" stroke="#63b8ff" points="2408.85,-209.59 2418.92,-206.29 2408.99,-202.59 2408.85,-209.59"/>
</g>
<!-- Node13 -->
<g id="node26" class="node">
<title>Node13</title>
<g id="a_node26"><a xlink:href="d__com__inf__game_8cpp.html" target="_top" xlink:title=" ">
<polygon fill="white" stroke="#666666" points="2240.86,-162 2132.86,-162 2132.86,-132 2240.86,-132 2240.86,-162"/>
<text text-anchor="start" x="2140.86" y="-150" font-family="Helvetica,sans-Serif" font-size="10.00">src/d/com/d_com_inf</text>
<text text-anchor="middle" x="2186.86" y="-139" font-family="Helvetica,sans-Serif" font-size="10.00">_game.cpp</text>
</a>
</g>
</g>
<!-- Node7&#45;&gt;Node13 -->
<g id="edge25" class="edge">
<title>Node7&#45;&gt;Node13</title>
<path fill="none" stroke="#63b8ff" d="M2428.21,-195.57C2379.5,-186.92 2310.27,-174.29 2249.86,-162 2247.01,-161.42 2244.08,-160.81 2241.13,-160.19"/>
<polygon fill="#63b8ff" stroke="#63b8ff" points="2427.57,-199.01 2438.02,-197.31 2428.79,-192.12 2427.57,-199.01"/>
</g>
<!-- Node155 -->
<g id="node27" class="node">
<title>Node155</title>
<g id="a_node27"><a xlink:href="d__name_8cpp.html" target="_top" xlink:title=" ">
<polygon fill="white" stroke="#666666" points="2352.86,-156.5 2258.86,-156.5 2258.86,-137.5 2352.86,-137.5 2352.86,-156.5"/>
<text text-anchor="middle" x="2305.86" y="-144.5" font-family="Helvetica,sans-Serif" font-size="10.00">src/d/d_name.cpp</text>
</a>
</g>
</g>
<!-- Node7&#45;&gt;Node155 -->
<g id="edge26" class="edge">
<title>Node7&#45;&gt;Node155</title>
<path fill="none" stroke="#63b8ff" d="M2451.93,-194.19C2416.72,-183.06 2365.71,-166.92 2334.22,-156.97"/>
<polygon fill="#63b8ff" stroke="#63b8ff" points="2450.73,-197.48 2461.32,-197.16 2452.84,-190.81 2450.73,-197.48"/>
</g>
<!-- Node165 -->
<g id="node28" class="node">
<title>Node165</title>
<g id="a_node28"><a xlink:href="d__event__manager_8cpp.html" target="_top" xlink:title=" ">
<polygon fill="white" stroke="#666666" points="2474.36,-162 2371.36,-162 2371.36,-132 2474.36,-132 2474.36,-162"/>
<text text-anchor="start" x="2379.36" y="-150" font-family="Helvetica,sans-Serif" font-size="10.00">src/d/event/d_event</text>
<text text-anchor="middle" x="2422.86" y="-139" font-family="Helvetica,sans-Serif" font-size="10.00">_manager.cpp</text>
</a>
</g>
</g>
<!-- Node7&#45;&gt;Node165 -->
<g id="edge27" class="edge">
<title>Node7&#45;&gt;Node165</title>
<path fill="none" stroke="#63b8ff" d="M2471.99,-190.27C2461.85,-181.54 2449.45,-170.87 2439.65,-162.44"/>
<polygon fill="#63b8ff" stroke="#63b8ff" points="2469.52,-192.76 2479.39,-196.63 2474.09,-187.45 2469.52,-192.76"/>
</g>
<!-- Node17 -->
<g id="node29" class="node">
<title>Node17</title>
<g id="a_node29"><a xlink:href="d__msg__flow_8cpp.html" target="_top" xlink:title=" ">
<polygon fill="white" stroke="#666666" points="2625.36,-156.5 2492.36,-156.5 2492.36,-137.5 2625.36,-137.5 2625.36,-156.5"/>
<text text-anchor="middle" x="2558.86" y="-144.5" font-family="Helvetica,sans-Serif" font-size="10.00">src/d/msg/d_msg_flow.cpp</text>
</a>
</g>
</g>
<!-- Node7&#45;&gt;Node17 -->
<g id="edge30" class="edge">
<title>Node7&#45;&gt;Node17</title>
<path fill="none" stroke="#63b8ff" d="M2509.56,-190.41C2522.09,-179.64 2538.12,-165.85 2548.44,-156.97"/>
<polygon fill="#63b8ff" stroke="#63b8ff" points="2507.64,-187.45 2502.34,-196.63 2512.2,-192.76 2507.64,-187.45"/>
</g>
<!-- Node185 -->
<g id="node30" class="node">
<title>Node185</title>
<g id="a_node30"><a xlink:href="d__s__name_8cpp.html" target="_top" xlink:title=" ">
<polygon fill="white" stroke="#666666" points="2756.36,-156.5 2643.36,-156.5 2643.36,-137.5 2756.36,-137.5 2756.36,-156.5"/>
<text text-anchor="middle" x="2699.86" y="-144.5" font-family="Helvetica,sans-Serif" font-size="10.00">src/d/s/d_s_name.cpp</text>
</a>
</g>
</g>
<!-- Node7&#45;&gt;Node185 -->
<g id="edge31" class="edge">
<title>Node7&#45;&gt;Node185</title>
<path fill="none" stroke="#63b8ff" d="M2533.56,-194.55C2573.37,-183.41 2631.87,-167.03 2667.82,-156.97"/>
<polygon fill="#63b8ff" stroke="#63b8ff" points="2532.75,-191.14 2524.06,-197.21 2534.64,-197.88 2532.75,-191.14"/>
</g>
<!-- Node61 -->
<g id="node31" class="node">
<title>Node61</title>
<g id="a_node31"><a xlink:href="d__s__play_8cpp.html" target="_top" xlink:title=" ">
<polygon fill="white" stroke="#666666" points="2880.86,-156.5 2774.86,-156.5 2774.86,-137.5 2880.86,-137.5 2880.86,-156.5"/>
<text text-anchor="middle" x="2827.86" y="-144.5" font-family="Helvetica,sans-Serif" font-size="10.00">src/d/s/d_s_play.cpp</text>
</a>
</g>
</g>
<!-- Node7&#45;&gt;Node61 -->
<g id="edge32" class="edge">
<title>Node7&#45;&gt;Node61</title>
<path fill="none" stroke="#63b8ff" d="M2564.45,-195.85C2619.96,-187.52 2697.9,-175.16 2765.86,-162 2773.66,-160.49 2781.98,-158.72 2789.91,-156.96"/>
<polygon fill="#63b8ff" stroke="#63b8ff" points="2564.18,-192.35 2554.81,-197.29 2565.22,-199.28 2564.18,-192.35"/>
</g>
<!-- Node22 -->
<g id="node32" class="node">
<title>Node22</title>
<g id="a_node32"><a xlink:href="d__shop__system_8cpp.html" target="_top" xlink:title=" ">
<polygon fill="white" stroke="#666666" points="3050.86,-156.5 2898.86,-156.5 2898.86,-137.5 3050.86,-137.5 3050.86,-156.5"/>
<text text-anchor="middle" x="2974.86" y="-144.5" font-family="Helvetica,sans-Serif" font-size="10.00">src/d/shop/d_shop_system.cpp</text>
</a>
</g>
</g>
<!-- Node7&#45;&gt;Node22 -->
<g id="edge33" class="edge">
<title>Node7&#45;&gt;Node22</title>
<path fill="none" stroke="#63b8ff" d="M2572.26,-197.65C2679.81,-185.93 2859.27,-166.22 2889.86,-162 2900.68,-160.51 2912.24,-158.73 2923.24,-156.95"/>
<polygon fill="#63b8ff" stroke="#63b8ff" points="2572.19,-194.14 2562.62,-198.7 2572.95,-201.1 2572.19,-194.14"/>
</g>
<!-- Node365 -->
<g id="node33" class="node">
<title>Node365</title>
<g id="a_node33"><a xlink:href="m__Do__Reset_8cpp.html" target="_top" xlink:title=" ">
<polygon fill="white" stroke="#666666" points="3204.86,-156.5 3068.86,-156.5 3068.86,-137.5 3204.86,-137.5 3204.86,-156.5"/>
<text text-anchor="middle" x="3136.86" y="-144.5" font-family="Helvetica,sans-Serif" font-size="10.00">src/m_Do/m_Do_Reset.cpp</text>
</a>
</g>
</g>
<!-- Node7&#45;&gt;Node365 -->
<g id="edge34" class="edge">
<title>Node7&#45;&gt;Node365</title>
<path fill="none" stroke="#63b8ff" d="M2572.52,-197.8C2789.3,-178.69 2846.95,-189.1 3059.86,-162 3070.38,-160.66 3081.63,-158.84 3092.2,-156.95"/>
<polygon fill="#63b8ff" stroke="#63b8ff" points="2572.22,-194.31 2562.57,-198.69 2572.84,-201.28 2572.22,-194.31"/>
</g>
<!-- Node192 -->
<g id="node34" class="node">
<title>Node192</title>
<g id="a_node34"><a xlink:href="m__Do__audio_8cpp.html" target="_top" xlink:title=" ">
<polygon fill="white" stroke="#666666" points="3356.86,-156.5 3222.86,-156.5 3222.86,-137.5 3356.86,-137.5 3356.86,-156.5"/>
<text text-anchor="middle" x="3289.86" y="-144.5" font-family="Helvetica,sans-Serif" font-size="10.00">src/m_Do/m_Do_audio.cpp</text>
</a>
</g>
</g>
<!-- Node7&#45;&gt;Node192 -->
<g id="edge35" class="edge">
<title>Node7&#45;&gt;Node192</title>
<path fill="none" stroke="#63b8ff" d="M2572.17,-197.86C2857.48,-175.19 2932.84,-195.6 3213.86,-162 3224.52,-160.73 3235.94,-158.88 3246.6,-156.95"/>
<polygon fill="#63b8ff" stroke="#63b8ff" points="2572.25,-194.34 2562.57,-198.64 2572.81,-201.32 2572.25,-194.34"/>
</g>
<!-- Node9 -->
<g id="node9" class="node">
<title>Node9</title>
<g id="a_node9"><a xlink:href="d__attention_8h.html" target="_top" xlink:title=" ">
<polygon fill="#fff0f0" stroke="red" points="1832.86,-90.5 1718.86,-90.5 1718.86,-71.5 1832.86,-71.5 1832.86,-90.5"/>
<text text-anchor="middle" x="1775.86" y="-78.5" font-family="Helvetica,sans-Serif" font-size="10.00">include/d/d_attention.h</text>
</a>
</g>
</g>
<!-- Node8&#45;&gt;Node9 -->
<g id="edge8" class="edge">
<title>Node8&#45;&gt;Node9</title>
<path fill="none" stroke="#63b8ff" d="M1141.39,-143.24C1262.38,-138.17 1505.06,-125.08 1708.86,-96 1718.04,-94.69 1727.84,-92.88 1737.04,-90.99"/>
<polygon fill="#63b8ff" stroke="#63b8ff" points="1141.43,-139.74 1131.58,-143.65 1141.71,-146.73 1141.43,-139.74"/>
</g>
<!-- Node200 -->
<g id="node10" class="node">
<title>Node200</title>
<g id="a_node10"><a xlink:href="d__drawlist_8h.html" target="_top" xlink:title=" ">
<polygon fill="#fff0f0" stroke="red" points="1960.86,-90.5 1850.86,-90.5 1850.86,-71.5 1960.86,-71.5 1960.86,-90.5"/>
<text text-anchor="middle" x="1905.86" y="-78.5" font-family="Helvetica,sans-Serif" font-size="10.00">include/d/d_drawlist.h</text>
</a>
</g>
</g>
<!-- Node8&#45;&gt;Node200 -->
<g id="edge9" class="edge">
<title>Node8&#45;&gt;Node200</title>
<path fill="none" stroke="#63b8ff" d="M1141.58,-144.9C1281.45,-142.04 1587,-131.87 1841.86,-96 1850.87,-94.73 1860.5,-92.89 1869.48,-90.95"/>
<polygon fill="#63b8ff" stroke="#63b8ff" points="1141.62,-141.4 1131.69,-145.09 1141.76,-148.4 1141.62,-141.4"/>
</g>
<!-- Node243 -->
<g id="node11" class="node">
<title>Node243</title>
<g id="a_node11"><a xlink:href="d__ky__thunder_8h.html" target="_top" xlink:title=" ">
<polygon fill="#fff0f0" stroke="red" points="139.86,-90.5 15.86,-90.5 15.86,-71.5 139.86,-71.5 139.86,-90.5"/>
<text text-anchor="middle" x="77.86" y="-78.5" font-family="Helvetica,sans-Serif" font-size="10.00">include/d/d_ky_thunder.h</text>
</a>
</g>
</g>
<!-- Node8&#45;&gt;Node243 -->
<g id="edge10" class="edge">
<title>Node8&#45;&gt;Node243</title>
<path fill="none" stroke="#63b8ff" d="M988.18,-145.44C830.42,-143.48 458.36,-134.77 148.86,-96 138.89,-94.75 128.22,-92.92 118.25,-90.98"/>
<polygon fill="#63b8ff" stroke="#63b8ff" points="988.06,-148.94 998.1,-145.55 988.14,-141.94 988.06,-148.94"/>
</g>
<!-- Node244 -->
<g id="node12" class="node">
<title>Node244</title>
<g id="a_node12"><a xlink:href="d__resorce_8h.html" target="_top" xlink:title=" ">
<polygon fill="#fff0f0" stroke="red" points="267.36,-90.5 158.36,-90.5 158.36,-71.5 267.36,-71.5 267.36,-90.5"/>
<text text-anchor="middle" x="212.86" y="-78.5" font-family="Helvetica,sans-Serif" font-size="10.00">include/d/d_resorce.h</text>
</a>
</g>
</g>
<!-- Node8&#45;&gt;Node244 -->
<g id="edge11" class="edge">
<title>Node8&#45;&gt;Node244</title>
<path fill="none" stroke="#63b8ff" d="M988.3,-145C847.03,-142.3 536.09,-132.36 276.86,-96 267.85,-94.74 258.22,-92.89 249.24,-90.96"/>
<polygon fill="#63b8ff" stroke="#63b8ff" points="987.83,-148.49 997.89,-145.18 987.95,-141.49 987.83,-148.49"/>
</g>
<!-- Node245 -->
<g id="node13" class="node">
<title>Node245</title>
<g id="a_node13"><a xlink:href="d__kankyo_8h.html" target="_top" xlink:title=" ">
<polygon fill="#fff0f0" stroke="red" points="2076.86,-96 1978.86,-96 1978.86,-66 2076.86,-66 2076.86,-96"/>
<text text-anchor="start" x="1986.86" y="-84" font-family="Helvetica,sans-Serif" font-size="10.00">include/d/kankyo/d</text>
<text text-anchor="middle" x="2027.86" y="-73" font-family="Helvetica,sans-Serif" font-size="10.00">_kankyo.h</text>
</a>
</g>
</g>
<!-- Node8&#45;&gt;Node245 -->
<g id="edge12" class="edge">
<title>Node8&#45;&gt;Node245</title>
<path fill="none" stroke="#63b8ff" d="M1141.65,-146.44C1298.28,-146.32 1665.53,-140.76 1969.86,-96 1972.73,-95.58 1975.67,-95.08 1978.62,-94.53"/>
<polygon fill="#63b8ff" stroke="#63b8ff" points="1141.81,-142.94 1131.81,-146.44 1141.81,-149.94 1141.81,-142.94"/>
</g>
<!-- Node204 -->
<g id="node16" class="node">
<title>Node204</title>
<g id="a_node16"><a xlink:href="d__a__do_8h.html" target="_top" xlink:title=" ">
<polygon fill="white" stroke="#666666" points="381.86,-96 285.86,-96 285.86,-66 381.86,-66 381.86,-96"/>
<text text-anchor="start" x="293.86" y="-84" font-family="Helvetica,sans-Serif" font-size="10.00">include/rel/d/a/d_a</text>
<text text-anchor="middle" x="333.86" y="-73" font-family="Helvetica,sans-Serif" font-size="10.00">_do/d_a_do.h</text>
</a>
</g>
</g>
<!-- Node8&#45;&gt;Node204 -->
<g id="edge15" class="edge">
<title>Node8&#45;&gt;Node204</title>
<path fill="none" stroke="#63b8ff" d="M988,-144.46C862.37,-141.02 605.5,-130.08 390.86,-96 388.05,-95.55 385.16,-95.04 382.26,-94.47"/>
<polygon fill="#63b8ff" stroke="#63b8ff" points="987.78,-147.96 997.87,-144.72 987.96,-140.96 987.78,-147.96"/>
</g>
<!-- Node357 -->
<g id="node17" class="node">
<title>Node357</title>
<g id="a_node17"><a xlink:href="DynamicLink_8cpp.html" target="_top" xlink:title=" ">
<polygon fill="white" stroke="#666666" points="507.36,-90.5 400.36,-90.5 400.36,-71.5 507.36,-71.5 507.36,-90.5"/>
<text text-anchor="middle" x="453.86" y="-78.5" font-family="Helvetica,sans-Serif" font-size="10.00">src/DynamicLink.cpp</text>
</a>
</g>
</g>
<!-- Node8&#45;&gt;Node357 -->
<g id="edge16" class="edge">
<title>Node8&#45;&gt;Node357</title>
<path fill="none" stroke="#63b8ff" d="M988.18,-142.2C881.69,-136.2 683.24,-122.4 515.86,-96 507.36,-94.66 498.28,-92.84 489.77,-90.95"/>
<polygon fill="#63b8ff" stroke="#63b8ff" points="987.76,-145.68 997.94,-142.74 988.15,-138.69 987.76,-145.68"/>
</g>
<!-- Node136 -->
<g id="node18" class="node">
<title>Node136</title>
<g id="a_node18"><a xlink:href="c__dylink_8cpp.html" target="_top" xlink:title=" ">
<polygon fill="white" stroke="#666666" points="620.36,-90.5 525.36,-90.5 525.36,-71.5 620.36,-71.5 620.36,-90.5"/>
<text text-anchor="middle" x="572.86" y="-78.5" font-family="Helvetica,sans-Serif" font-size="10.00">src/c/c_dylink.cpp</text>
</a>
</g>
</g>
<!-- Node8&#45;&gt;Node136 -->
<g id="edge17" class="edge">
<title>Node8&#45;&gt;Node136</title>
<path fill="none" stroke="#63b8ff" d="M988.06,-140.25C900.61,-133 753.7,-118.66 628.86,-96 621.27,-94.62 613.18,-92.81 605.58,-90.94"/>
<polygon fill="#63b8ff" stroke="#63b8ff" points="987.71,-143.73 997.96,-141.06 988.28,-136.76 987.71,-143.73"/>
</g>
<!-- Node358 -->
<g id="node19" class="node">
<title>Node358</title>
<g id="a_node19"><a xlink:href="d__pane__class_8cpp.html" target="_top" xlink:title=" ">
<polygon fill="white" stroke="#666666" points="781.36,-90.5 638.36,-90.5 638.36,-71.5 781.36,-71.5 781.36,-90.5"/>
<text text-anchor="middle" x="709.86" y="-78.5" font-family="Helvetica,sans-Serif" font-size="10.00">src/d/pane/d_pane_class.cpp</text>
</a>
</g>
</g>
<!-- Node8&#45;&gt;Node358 -->
<g id="edge18" class="edge">
<title>Node8&#45;&gt;Node358</title>
<path fill="none" stroke="#63b8ff" d="M1004,-135.03C934.94,-122.58 823.6,-102.5 759.55,-90.96"/>
<polygon fill="#63b8ff" stroke="#63b8ff" points="1003.18,-138.44 1013.64,-136.77 1004.42,-131.55 1003.18,-138.44"/>
</g>
<!-- Node359 -->
<g id="node20" class="node">
<title>Node359</title>
<g id="a_node20"><a xlink:href="d__pane__class__alpha_8cpp.html" target="_top" xlink:title=" ">
<polygon fill="white" stroke="#666666" points="924.36,-96 799.36,-96 799.36,-66 924.36,-66 924.36,-96"/>
<text text-anchor="start" x="807.36" y="-84" font-family="Helvetica,sans-Serif" font-size="10.00">src/d/pane/d_pane_class</text>
<text text-anchor="middle" x="861.86" y="-73" font-family="Helvetica,sans-Serif" font-size="10.00">_alpha.cpp</text>
</a>
</g>
</g>
<!-- Node8&#45;&gt;Node359 -->
<g id="edge19" class="edge">
<title>Node8&#45;&gt;Node359</title>
<path fill="none" stroke="#63b8ff" d="M1025.82,-133.69C992.11,-123.06 943.36,-107.69 907.78,-96.48"/>
<polygon fill="#63b8ff" stroke="#63b8ff" points="1024.6,-136.98 1035.19,-136.65 1026.71,-130.3 1024.6,-136.98"/>
</g>
<!-- Node128 -->
<g id="node21" class="node">
<title>Node128</title>
<g id="a_node21"><a xlink:href="f__op__actor__mng_8cpp.html" target="_top" xlink:title=" ">
<polygon fill="white" stroke="#666666" points="1043.36,-96 942.36,-96 942.36,-66 1043.36,-66 1043.36,-96"/>
<text text-anchor="start" x="950.36" y="-84" font-family="Helvetica,sans-Serif" font-size="10.00">src/f_op/f_op_actor</text>
<text text-anchor="middle" x="992.86" y="-73" font-family="Helvetica,sans-Serif" font-size="10.00">_mng.cpp</text>
</a>
</g>
</g>
<!-- Node8&#45;&gt;Node128 -->
<g id="edge20" class="edge">
<title>Node8&#45;&gt;Node128</title>
<path fill="none" stroke="#63b8ff" d="M1046.43,-129.62C1034.92,-119.38 1020.23,-106.33 1009.15,-96.48"/>
<polygon fill="#63b8ff" stroke="#63b8ff" points="1043.92,-132.07 1053.72,-136.1 1048.57,-126.84 1043.92,-132.07"/>
</g>
<!-- Node360 -->
<g id="node22" class="node">
<title>Node360</title>
<g id="a_node22"><a xlink:href="m__Do__DVDError_8cpp.html" target="_top" xlink:title=" ">
<polygon fill="white" stroke="#666666" points="1212.36,-90.5 1061.36,-90.5 1061.36,-71.5 1212.36,-71.5 1212.36,-90.5"/>
<text text-anchor="middle" x="1136.86" y="-78.5" font-family="Helvetica,sans-Serif" font-size="10.00">src/m_Do/m_Do_DVDError.cpp</text>
</a>
</g>
</g>
<!-- Node8&#45;&gt;Node360 -->
<g id="edge21" class="edge">
<title>Node8&#45;&gt;Node360</title>
<path fill="none" stroke="#63b8ff" d="M1083.21,-129.69C1097.12,-117.33 1115.69,-100.82 1126.94,-90.82"/>
<polygon fill="#63b8ff" stroke="#63b8ff" points="1081.15,-126.84 1076.01,-136.1 1085.8,-132.07 1081.15,-126.84"/>
</g>
<!-- Node361 -->
<g id="node23" class="node">
<title>Node361</title>
<g id="a_node23"><a xlink:href="m__Do__MemCard_8cpp.html" target="_top" xlink:title=" ">
<polygon fill="white" stroke="#666666" points="1382.86,-90.5 1230.86,-90.5 1230.86,-71.5 1382.86,-71.5 1382.86,-90.5"/>
<text text-anchor="middle" x="1306.86" y="-78.5" font-family="Helvetica,sans-Serif" font-size="10.00">src/m_Do/m_Do_MemCard.cpp</text>
</a>
</g>
</g>
<!-- Node8&#45;&gt;Node361 -->
<g id="edge22" class="edge">
<title>Node8&#45;&gt;Node361</title>
<path fill="none" stroke="#63b8ff" d="M1109.61,-134.16C1156.95,-121.65 1230.55,-102.18 1273.19,-90.91"/>
<polygon fill="#63b8ff" stroke="#63b8ff" points="1109,-130.71 1100.23,-136.65 1110.79,-137.47 1109,-130.71"/>
</g>
<!-- Node362 -->
<g id="node24" class="node">
<title>Node362</title>
<g id="a_node24"><a xlink:href="m__Do__dvd__thread_8cpp.html" target="_top" xlink:title=" ">
<polygon fill="white" stroke="#666666" points="1558.86,-90.5 1400.86,-90.5 1400.86,-71.5 1558.86,-71.5 1558.86,-90.5"/>
<text text-anchor="middle" x="1479.86" y="-78.5" font-family="Helvetica,sans-Serif" font-size="10.00">src/m_Do/m_Do_dvd_thread.cpp</text>
</a>
</g>
</g>
<!-- Node8&#45;&gt;Node362 -->
<g id="edge23" class="edge">
<title>Node8&#45;&gt;Node362</title>
<path fill="none" stroke="#63b8ff" d="M1135.38,-135.34C1201.62,-125.3 1303.49,-109.79 1391.86,-96 1402.26,-94.38 1413.34,-92.63 1424.01,-90.94"/>
<polygon fill="#63b8ff" stroke="#63b8ff" points="1135.11,-131.84 1125.75,-136.8 1136.16,-138.77 1135.11,-131.84"/>
</g>
<!-- Node193 -->
<g id="node25" class="node">
<title>Node193</title>
<g id="a_node25"><a xlink:href="m__Do__ext_8cpp.html" target="_top" xlink:title=" ">
<polygon fill="white" stroke="#666666" points="1700.36,-90.5 1577.36,-90.5 1577.36,-71.5 1700.36,-71.5 1700.36,-90.5"/>
<text text-anchor="middle" x="1638.86" y="-78.5" font-family="Helvetica,sans-Serif" font-size="10.00">src/m_Do/m_Do_ext.cpp</text>
</a>
</g>
</g>
<!-- Node8&#45;&gt;Node193 -->
<g id="edge24" class="edge">
<title>Node8&#45;&gt;Node193</title>
<path fill="none" stroke="#63b8ff" d="M1141.59,-140.67C1240.47,-133.27 1417.55,-118.24 1567.86,-96 1577.31,-94.6 1587.4,-92.8 1596.93,-90.96"/>
<polygon fill="#63b8ff" stroke="#63b8ff" points="1141.44,-137.17 1131.73,-141.4 1141.96,-144.15 1141.44,-137.17"/>
</g>
<!-- Node245&#45;&gt;Node55 -->
<g id="edge13" class="edge">
<title>Node245&#45;&gt;Node55</title>
<path fill="none" stroke="#63b8ff" d="M1967.46,-65.9C1769.14,-39.38 1232.04,-22.92 1042.29,-17.75"/>
<polygon fill="#63b8ff" stroke="#63b8ff" points="1966.74,-69.33 1977.12,-67.24 1967.7,-62.4 1966.74,-69.33"/>
</g>
<!-- Node245&#45;&gt;Node169 -->
<g id="edge14" class="edge">
<title>Node245&#45;&gt;Node169</title>
<path fill="none" stroke="#63b8ff" d="M2042.05,-56.11C2047.23,-47.38 2052.93,-37.78 2057.45,-30.16"/>
<polygon fill="#63b8ff" stroke="#63b8ff" points="2039.17,-54.11 2037.07,-64.49 2045.18,-57.68 2039.17,-54.11"/>
</g>
<!-- Node374&#45;&gt;Node373 -->
<g id="edge47" class="edge">
<title>Node374&#45;&gt;Node373</title>
<path fill="none" stroke="#63b8ff" d="M1823.7,-444.91C1840.36,-435.31 1859.91,-424.03 1875.04,-415.31"/>
<polygon fill="#63b8ff" stroke="#63b8ff" points="1822,-441.85 1815.08,-449.88 1825.5,-447.92 1822,-441.85"/>
</g>
<!-- Node375 -->
<g id="node44" class="node">
<title>Node375</title>
<g id="a_node44"><a xlink:href="JAISeq_8cpp.html" target="_top" xlink:title=" ">
<polygon fill="white" stroke="#666666" points="1826.36,-415 1715.36,-415 1715.36,-385 1826.36,-385 1826.36,-415"/>
<text text-anchor="start" x="1723.36" y="-403" font-family="Helvetica,sans-Serif" font-size="10.00">libs/JSystem/JAudio2</text>
<text text-anchor="middle" x="1770.86" y="-392" font-family="Helvetica,sans-Serif" font-size="10.00">/JAISeq.cpp</text>
</a>
</g>
</g>
<!-- Node374&#45;&gt;Node375 -->
<g id="edge46" class="edge">
<title>Node374&#45;&gt;Node375</title>
<path fill="none" stroke="#63b8ff" d="M1781.82,-439.97C1779.45,-431.55 1776.9,-422.45 1774.85,-415.16"/>
<polygon fill="#63b8ff" stroke="#63b8ff" points="1778.38,-440.66 1784.46,-449.34 1785.12,-438.77 1778.38,-440.66"/>
</g>
</g>
</svg>
        <g id="navigator" transform="translate(0 0)" fill="#404254">
                <rect fill="#f2f5e9" fill-opacity="0.5" stroke="#606060" stroke-width=".5" x="0" y="0" width="60" height="60"/>
                <use id="zoomplus" xlink:href="#zoomPlus" x="17" y="9" onmousedown="handleZoom(evt,'in')"/>
                <use id="zoomminus" xlink:href="#zoomMin" x="42" y="9" onmousedown="handleZoom(evt,'out')"/>
                <use id="reset" xlink:href="#resetDef" x="30" y="36" onmousedown="handleReset()"/>
                <g id="arrowUp" xlink:href="#dirArrow" transform="translate(30 24)" onmousedown="handlePan(0,-1)">
                  <use xlink:href="#rim" fill="#404040">
                        <set attributeName="fill" to="#808080" begin="arrowUp.mouseover" end="arrowUp.mouseout"/>
                  </use>
                  <path fill="none" stroke="white" stroke-width="1.5" d="M0,-3.0v7 M-2.5,-0.5L0,-3.0L2.5,-0.5"/>
                </g>
                <g id="arrowRight" xlink:href="#dirArrow" transform="rotate(90) translate(36 -43)" onmousedown="handlePan(1,0)">
                  <use xlink:href="#rim" fill="#404040">
                        <set attributeName="fill" to="#808080" begin="arrowRight.mouseover" end="arrowRight.mouseout"/>
                  </use>
                  <path fill="none" stroke="white" stroke-width="1.5" d="M0,-3.0v7 M-2.5,-0.5L0,-3.0L2.5,-0.5"/>
                </g>
                <g id="arrowDown" xlink:href="#dirArrow" transform="rotate(180) translate(-30 -48)" onmousedown="handlePan(0,1)">
                  <use xlink:href="#rim" fill="#404040">
                        <set attributeName="fill" to="#808080" begin="arrowDown.mouseover" end="arrowDown.mouseout"/>
                  </use>
                  <path fill="none" stroke="white" stroke-width="1.5" d="M0,-3.0v7 M-2.5,-0.5L0,-3.0L2.5,-0.5"/>
                </g>
                <g id="arrowLeft" xlink:href="#dirArrow" transform="rotate(270) translate(-36 17)" onmousedown="handlePan(-1,0)">
                  <use xlink:href="#rim" fill="#404040">
                        <set attributeName="fill" to="#808080" begin="arrowLeft.mouseover" end="arrowLeft.mouseout"/>
                  </use>
                  <path fill="none" stroke="white" stroke-width="1.5" d="M0,-3.0v7 M-2.5,-0.5L0,-3.0L2.5,-0.5"/>
                </g>
        </g>
        <svg viewBox="0 0 15 15" width="100%" height="30px" preserveAspectRatio="xMaxYMin meet">
         <g id="arrow_out" transform="scale(0.3 0.3)">
          <a xlink:href="JASTrackPort_8h__dep__incl_org.svg" target="_base">
           <rect id="button" ry="5" rx="5" y="6" x="6" height="38" width="38"
                fill="#f2f5e9" fill-opacity="0.5" stroke="#606060" stroke-width="1.0"/>
           <path id="arrow"
             d="M 11.500037,31.436501 C 11.940474,20.09759 22.043105,11.32322 32.158766,21.979434 L 37.068811,17.246167 C 37.068811,17.246167 37.088388,32 37.088388,32 L 22.160133,31.978069 C 22.160133,31.978069 26.997745,27.140456 26.997745,27.140456 C 18.528582,18.264221 13.291696,25.230495 11.500037,31.436501 z"
             style="fill:#404040;"/>
          </a>
         </g>
        </svg>
</svg>
