<?xml version="1.0" encoding="UTF-8" standalone="no"?>
<!DOCTYPE svg PUBLIC "-//W3C//DTD SVG 1.1//EN"
 "http://www.w3.org/Graphics/SVG/1.1/DTD/svg11.dtd">
<!-- Generated by graphviz version 7.0.5 (20221223.1930)
 -->
<!-- Title: include/JSystem/JAudio2/JASTrack.h Pages: 1 -->
<!--zoomable 555 -->
<svg id="main" version="1.1" xmlns="http://www.w3.org/2000/svg" xmlns:xlink="http://www.w3.org/1999/xlink" xml:space="preserve" onload="init(evt)">
<style type="text/css"><![CDATA[
.edge:hover path { stroke: red; }
.edge:hover polygon { stroke: red; fill: red; }
]]></style>
<script type="text/javascript"><![CDATA[
var edges = document.getElementsByTagName('g');
if (edges && edges.length) {
  for (var i=0;i<edges.length;i++) {
    if (edges[i].id.substr(0,4)=='edge') {
      edges[i].setAttribute('class','edge');
    }
  }
}
]]></script>
        <defs>
                <circle id="rim" cx="0" cy="0" r="7"/>
                <circle id="rim2" cx="0" cy="0" r="3.5"/>
                <g id="zoomPlus">
                        <use xlink:href="#rim" fill="#404040">
                                <set attributeName="fill" to="#808080" begin="zoomplus.mouseover" end="zoomplus.mouseout"/>
                        </use>
                        <path d="M-4,0h8M0,-4v8" fill="none" stroke="white" stroke-width="1.5" pointer-events="none"/>
                </g>
                <g id="zoomMin">
                        <use xlink:href="#rim" fill="#404040">
                                <set attributeName="fill" to="#808080" begin="zoomminus.mouseover" end="zoomminus.mouseout"/>
                        </use>
                        <path d="M-4,0h8" fill="none" stroke="white" stroke-width="1.5" pointer-events="none"/>
                </g>
                <g id="dirArrow">
                        <path fill="none" stroke="white" stroke-width="1.5" d="M0,-3.0v7 M-2.5,-0.5L0,-3.0L2.5,-0.5"/>
                </g>
               <g id="resetDef">
                       <use xlink:href="#rim2" fill="#404040">
                               <set attributeName="fill" to="#808080" begin="reset.mouseover" end="reset.mouseout"/>
                       </use>
               </g>
        </defs>

<script type="text/javascript">
var viewWidth = 3789;
var viewHeight = 555;
var sectionId = 'dynsection-1';
</script>
<script xlink:href="svgpan.js"/>
<svg id="graph" class="graph">
<g id="viewport">
<title>include/JSystem/JAudio2/JASTrack.h</title>
<!-- Node1 -->
<g id="node1" class="node">
<title>Node1</title>
<g id="a_node1"><a xlink:title=" ">
<polygon fill="#999999" stroke="#666666" points="3337.39,-547 3210.39,-547 3210.39,-517 3337.39,-517 3337.39,-547"/>
<text text-anchor="start" x="3218.39" y="-535" font-family="Helvetica,sans-Serif" font-size="10.00">include/JSystem/JAudio2</text>
<text text-anchor="middle" x="3273.89" y="-524" font-family="Helvetica,sans-Serif" font-size="10.00">/JASTrack.h</text>
</a>
</g>
</g>
<!-- Node2 -->
<g id="node2" class="node">
<title>Node2</title>
<g id="a_node2"><a xlink:href="JAISe_8h.html" target="_top" xlink:title=" ">
<polygon fill="white" stroke="#666666" points="2941.39,-481 2814.39,-481 2814.39,-451 2941.39,-451 2941.39,-481"/>
<text text-anchor="start" x="2822.39" y="-469" font-family="Helvetica,sans-Serif" font-size="10.00">include/JSystem/JAudio2</text>
<text text-anchor="middle" x="2877.89" y="-458" font-family="Helvetica,sans-Serif" font-size="10.00">/JAISe.h</text>
</a>
</g>
</g>
<!-- Node1&#45;&gt;Node2 -->
<g id="edge1" class="edge">
<title>Node1&#45;&gt;Node2</title>
<path fill="none" stroke="#63b8ff" d="M3199.13,-518.92C3124.78,-506.9 3011.94,-488.66 2941.69,-477.31"/>
<polygon fill="#63b8ff" stroke="#63b8ff" points="3198.34,-522.34 3208.77,-520.48 3199.46,-515.43 3198.34,-522.34"/>
</g>
<!-- Node372 -->
<g id="node43" class="node">
<title>Node372</title>
<g id="a_node43"><a xlink:href="JAUInitializer_8cpp.html" target="_top" xlink:title=" ">
<polygon fill="white" stroke="#666666" points="3048.39,-415 2937.39,-415 2937.39,-385 3048.39,-385 3048.39,-415"/>
<text text-anchor="start" x="2945.39" y="-403" font-family="Helvetica,sans-Serif" font-size="10.00">libs/JSystem/JAudio2</text>
<text text-anchor="middle" x="2992.89" y="-392" font-family="Helvetica,sans-Serif" font-size="10.00">/JAUInitializer.cpp</text>
</a>
</g>
</g>
<!-- Node1&#45;&gt;Node372 -->
<g id="edge54" class="edge">
<title>Node1&#45;&gt;Node372</title>
<path fill="none" stroke="#63b8ff" d="M3198.75,-527.29C3126.99,-522.04 3026.01,-509.67 2999.89,-481 2983.74,-463.27 2986.13,-433.25 2989.44,-415.46"/>
<polygon fill="#63b8ff" stroke="#63b8ff" points="3198.27,-530.76 3208.49,-527.96 3198.76,-523.78 3198.27,-530.76"/>
</g>
<!-- Node373 -->
<g id="node44" class="node">
<title>Node373</title>
<g id="a_node44"><a xlink:href="JAISeq_8h.html" target="_top" xlink:title=" ">
<polygon fill="white" stroke="#666666" points="3136.39,-481 3009.39,-481 3009.39,-451 3136.39,-451 3136.39,-481"/>
<text text-anchor="start" x="3017.39" y="-469" font-family="Helvetica,sans-Serif" font-size="10.00">include/JSystem/JAudio2</text>
<text text-anchor="middle" x="3072.89" y="-458" font-family="Helvetica,sans-Serif" font-size="10.00">/JAISeq.h</text>
</a>
</g>
</g>
<!-- Node1&#45;&gt;Node373 -->
<g id="edge46" class="edge">
<title>Node1&#45;&gt;Node373</title>
<path fill="none" stroke="#63b8ff" d="M3217.74,-513.12C3186.28,-503.1 3147.57,-490.78 3118.09,-481.39"/>
<polygon fill="#63b8ff" stroke="#63b8ff" points="3216.5,-516.4 3227.09,-516.1 3218.62,-509.73 3216.5,-516.4"/>
</g>
<!-- Node375 -->
<g id="node46" class="node">
<title>Node375</title>
<g id="a_node46"><a xlink:href="JAISound_8cpp.html" target="_top" xlink:title=" ">
<polygon fill="white" stroke="#666666" points="3265.39,-481 3154.39,-481 3154.39,-451 3265.39,-451 3265.39,-481"/>
<text text-anchor="start" x="3162.39" y="-469" font-family="Helvetica,sans-Serif" font-size="10.00">libs/JSystem/JAudio2</text>
<text text-anchor="middle" x="3209.89" y="-458" font-family="Helvetica,sans-Serif" font-size="10.00">/JAISound.cpp</text>
</a>
</g>
</g>
<!-- Node1&#45;&gt;Node375 -->
<g id="edge49" class="edge">
<title>Node1&#45;&gt;Node375</title>
<path fill="none" stroke="#63b8ff" d="M3251.7,-508.81C3242.53,-499.64 3232.17,-489.28 3224.06,-481.16"/>
<polygon fill="#63b8ff" stroke="#63b8ff" points="3249.07,-511.13 3258.62,-515.73 3254.02,-506.18 3249.07,-511.13"/>
</g>
<!-- Node376 -->
<g id="node47" class="node">
<title>Node376</title>
<g id="a_node47"><a xlink:href="JAISoundChild_8cpp.html" target="_top" xlink:title=" ">
<polygon fill="white" stroke="#666666" points="3394.39,-481 3283.39,-481 3283.39,-451 3394.39,-451 3394.39,-481"/>
<text text-anchor="start" x="3291.39" y="-469" font-family="Helvetica,sans-Serif" font-size="10.00">libs/JSystem/JAudio2</text>
<text text-anchor="middle" x="3338.89" y="-458" font-family="Helvetica,sans-Serif" font-size="10.00">/JAISoundChild.cpp</text>
</a>
</g>
</g>
<!-- Node1&#45;&gt;Node376 -->
<g id="edge50" class="edge">
<title>Node1&#45;&gt;Node376</title>
<path fill="none" stroke="#63b8ff" d="M3296.43,-508.81C3305.75,-499.64 3316.27,-489.28 3324.51,-481.16"/>
<polygon fill="#63b8ff" stroke="#63b8ff" points="3294.07,-506.22 3289.4,-515.73 3298.98,-511.21 3294.07,-506.22"/>
</g>
<!-- Node377 -->
<g id="node48" class="node">
<title>Node377</title>
<g id="a_node48"><a xlink:href="JASSeqCtrl_8cpp.html" target="_top" xlink:title=" ">
<polygon fill="white" stroke="#666666" points="3523.39,-481 3412.39,-481 3412.39,-451 3523.39,-451 3523.39,-481"/>
<text text-anchor="start" x="3420.39" y="-469" font-family="Helvetica,sans-Serif" font-size="10.00">libs/JSystem/JAudio2</text>
<text text-anchor="middle" x="3467.89" y="-458" font-family="Helvetica,sans-Serif" font-size="10.00">/JASSeqCtrl.cpp</text>
</a>
</g>
</g>
<!-- Node1&#45;&gt;Node377 -->
<g id="edge51" class="edge">
<title>Node1&#45;&gt;Node377</title>
<path fill="none" stroke="#63b8ff" d="M3328.25,-513.07C3358.54,-503.07 3395.77,-490.79 3424.16,-481.43"/>
<polygon fill="#63b8ff" stroke="#63b8ff" points="3327.27,-509.71 3318.87,-516.16 3329.46,-516.35 3327.27,-509.71"/>
</g>
<!-- Node378 -->
<g id="node49" class="node">
<title>Node378</title>
<g id="a_node49"><a xlink:href="JASSeqParser_8cpp.html" target="_top" xlink:title=" ">
<polygon fill="white" stroke="#666666" points="3652.39,-481 3541.39,-481 3541.39,-451 3652.39,-451 3652.39,-481"/>
<text text-anchor="start" x="3549.39" y="-469" font-family="Helvetica,sans-Serif" font-size="10.00">libs/JSystem/JAudio2</text>
<text text-anchor="middle" x="3596.89" y="-458" font-family="Helvetica,sans-Serif" font-size="10.00">/JASSeqParser.cpp</text>
</a>
</g>
</g>
<!-- Node1&#45;&gt;Node378 -->
<g id="edge52" class="edge">
<title>Node1&#45;&gt;Node378</title>
<path fill="none" stroke="#63b8ff" d="M3348.92,-517.02C3400.69,-507.25 3471.04,-493.73 3532.89,-481 3535.57,-480.45 3538.3,-479.88 3541.06,-479.3"/>
<polygon fill="#63b8ff" stroke="#63b8ff" points="3348.51,-513.54 3339.33,-518.83 3349.8,-520.42 3348.51,-513.54"/>
</g>
<!-- Node379 -->
<g id="node50" class="node">
<title>Node379</title>
<g id="a_node50"><a xlink:href="JASTrack_8cpp.html" target="_top" xlink:title=" ">
<polygon fill="white" stroke="#666666" points="3781.39,-481 3670.39,-481 3670.39,-451 3781.39,-451 3781.39,-481"/>
<text text-anchor="start" x="3678.39" y="-469" font-family="Helvetica,sans-Serif" font-size="10.00">libs/JSystem/JAudio2</text>
<text text-anchor="middle" x="3725.89" y="-458" font-family="Helvetica,sans-Serif" font-size="10.00">/JASTrack.cpp</text>
</a>
</g>
</g>
<!-- Node1&#45;&gt;Node379 -->
<g id="edge53" class="edge">
<title>Node1&#45;&gt;Node379</title>
<path fill="none" stroke="#63b8ff" d="M3348.86,-523.3C3427.23,-514.79 3553.62,-499.78 3661.89,-481 3664.58,-480.53 3667.33,-480.03 3670.1,-479.5"/>
<polygon fill="#63b8ff" stroke="#63b8ff" points="3348.73,-519.79 3339.16,-524.35 3349.48,-526.75 3348.73,-519.79"/>
</g>
<!-- Node3 -->
<g id="node3" class="node">
<title>Node3</title>
<g id="a_node3"><a xlink:href="JAISeMgr_8h.html" target="_top" xlink:title=" ">
<polygon fill="white" stroke="#666666" points="2919.39,-415 2792.39,-415 2792.39,-385 2919.39,-385 2919.39,-415"/>
<text text-anchor="start" x="2800.39" y="-403" font-family="Helvetica,sans-Serif" font-size="10.00">include/JSystem/JAudio2</text>
<text text-anchor="middle" x="2855.89" y="-392" font-family="Helvetica,sans-Serif" font-size="10.00">/JAISeMgr.h</text>
</a>
</g>
</g>
<!-- Node2&#45;&gt;Node3 -->
<g id="edge2" class="edge">
<title>Node2&#45;&gt;Node3</title>
<path fill="none" stroke="#63b8ff" d="M2869.29,-439.97C2866.39,-431.55 2863.27,-422.45 2860.76,-415.16"/>
<polygon fill="#63b8ff" stroke="#63b8ff" points="2865.96,-441.05 2872.52,-449.36 2872.58,-438.77 2865.96,-441.05"/>
</g>
<!-- Node369 -->
<g id="node40" class="node">
<title>Node369</title>
<g id="a_node40"><a xlink:href="JAISe_8cpp.html" target="_top" xlink:title=" ">
<polygon fill="white" stroke="#666666" points="2782.39,-349 2671.39,-349 2671.39,-319 2782.39,-319 2782.39,-349"/>
<text text-anchor="start" x="2679.39" y="-337" font-family="Helvetica,sans-Serif" font-size="10.00">libs/JSystem/JAudio2</text>
<text text-anchor="middle" x="2726.89" y="-326" font-family="Helvetica,sans-Serif" font-size="10.00">/JAISe.cpp</text>
</a>
</g>
</g>
<!-- Node2&#45;&gt;Node369 -->
<g id="edge44" class="edge">
<title>Node2&#45;&gt;Node369</title>
<path fill="none" stroke="#63b8ff" d="M2831.13,-445.9C2814.79,-437.86 2797.02,-427.45 2782.89,-415 2761.14,-395.83 2743.46,-366.58 2734.12,-349.26"/>
<polygon fill="#63b8ff" stroke="#63b8ff" points="2829.17,-448.85 2839.71,-449.95 2832.16,-442.52 2829.17,-448.85"/>
</g>
<!-- Node2&#45;&gt;Node372 -->
<g id="edge45" class="edge">
<title>Node2&#45;&gt;Node372</title>
<path fill="none" stroke="#63b8ff" d="M2913.5,-445.18C2930.86,-435.52 2951.35,-424.12 2967.17,-415.31"/>
<polygon fill="#63b8ff" stroke="#63b8ff" points="2912.06,-441.98 2905.02,-449.9 2915.46,-448.1 2912.06,-441.98"/>
</g>
<!-- Node4 -->
<g id="node4" class="node">
<title>Node4</title>
<g id="a_node4"><a xlink:href="Z2SoundMgr_8h.html" target="_top" xlink:title=" ">
<polygon fill="white" stroke="#666666" points="3174.89,-349 3074.89,-349 3074.89,-319 3174.89,-319 3174.89,-349"/>
<text text-anchor="start" x="3082.89" y="-337" font-family="Helvetica,sans-Serif" font-size="10.00">include/Z2AudioLib</text>
<text text-anchor="middle" x="3124.89" y="-326" font-family="Helvetica,sans-Serif" font-size="10.00">/Z2SoundMgr.h</text>
</a>
</g>
</g>
<!-- Node3&#45;&gt;Node4 -->
<g id="edge3" class="edge">
<title>Node3&#45;&gt;Node4</title>
<path fill="none" stroke="#63b8ff" d="M2927.5,-381.96C2973.96,-370.91 3033.33,-356.78 3074.77,-346.92"/>
<polygon fill="#63b8ff" stroke="#63b8ff" points="2926.99,-378.49 2918.07,-384.21 2928.61,-385.3 2926.99,-378.49"/>
</g>
<!-- Node3&#45;&gt;Node369 -->
<g id="edge41" class="edge">
<title>Node3&#45;&gt;Node369</title>
<path fill="none" stroke="#63b8ff" d="M2816.76,-379.59C2797.12,-369.84 2773.73,-358.24 2755.75,-349.31"/>
<polygon fill="#63b8ff" stroke="#63b8ff" points="2815.07,-382.66 2825.59,-383.96 2818.18,-376.38 2815.07,-382.66"/>
</g>
<!-- Node370 -->
<g id="node41" class="node">
<title>Node370</title>
<g id="a_node41"><a xlink:href="JAISeMgr_8cpp.html" target="_top" xlink:title=" ">
<polygon fill="white" stroke="#666666" points="2911.39,-349 2800.39,-349 2800.39,-319 2911.39,-319 2911.39,-349"/>
<text text-anchor="start" x="2808.39" y="-337" font-family="Helvetica,sans-Serif" font-size="10.00">libs/JSystem/JAudio2</text>
<text text-anchor="middle" x="2855.89" y="-326" font-family="Helvetica,sans-Serif" font-size="10.00">/JAISeMgr.cpp</text>
</a>
</g>
</g>
<!-- Node3&#45;&gt;Node370 -->
<g id="edge42" class="edge">
<title>Node3&#45;&gt;Node370</title>
<path fill="none" stroke="#63b8ff" d="M2855.89,-373.39C2855.89,-365.13 2855.89,-356.28 2855.89,-349.16"/>
<polygon fill="#63b8ff" stroke="#63b8ff" points="2852.39,-373.28 2855.89,-383.28 2859.39,-373.28 2852.39,-373.28"/>
</g>
<!-- Node371 -->
<g id="node42" class="node">
<title>Node371</title>
<g id="a_node42"><a xlink:href="JAUAudioArcLoader_8cpp.html" target="_top" xlink:title=" ">
<polygon fill="white" stroke="#666666" points="3056.39,-349 2929.39,-349 2929.39,-319 3056.39,-319 3056.39,-349"/>
<text text-anchor="start" x="2937.39" y="-337" font-family="Helvetica,sans-Serif" font-size="10.00">libs/JSystem/JAudio2</text>
<text text-anchor="middle" x="2992.89" y="-326" font-family="Helvetica,sans-Serif" font-size="10.00">/JAUAudioArcLoader.cpp</text>
</a>
</g>
</g>
<!-- Node3&#45;&gt;Node371 -->
<g id="edge43" class="edge">
<title>Node3&#45;&gt;Node371</title>
<path fill="none" stroke="#63b8ff" d="M2896.87,-379.86C2917.85,-370.05 2942.97,-358.32 2962.25,-349.31"/>
<polygon fill="#63b8ff" stroke="#63b8ff" points="2895.59,-376.59 2888.01,-384 2898.55,-382.94 2895.59,-376.59"/>
</g>
<!-- Node5 -->
<g id="node5" class="node">
<title>Node5</title>
<g id="a_node5"><a xlink:href="Z2AudioMgr_8h.html" target="_top" xlink:title=" ">
<polygon fill="white" stroke="#666666" points="2935.89,-283 2835.89,-283 2835.89,-253 2935.89,-253 2935.89,-283"/>
<text text-anchor="start" x="2843.89" y="-271" font-family="Helvetica,sans-Serif" font-size="10.00">include/Z2AudioLib</text>
<text text-anchor="middle" x="2885.89" y="-260" font-family="Helvetica,sans-Serif" font-size="10.00">/Z2AudioMgr.h</text>
</a>
</g>
</g>
<!-- Node4&#45;&gt;Node5 -->
<g id="edge4" class="edge">
<title>Node4&#45;&gt;Node5</title>
<path fill="none" stroke="#63b8ff" d="M3063.42,-316.54C3023.94,-305.97 2973.3,-292.41 2936.22,-282.48"/>
<polygon fill="#63b8ff" stroke="#63b8ff" points="3062.47,-319.91 3073.04,-319.11 3064.28,-313.15 3062.47,-319.91"/>
</g>
<!-- Node366 -->
<g id="node37" class="node">
<title>Node366</title>
<g id="a_node37"><a xlink:href="Z2SceneMgr_8cpp.html" target="_top" xlink:title=" ">
<polygon fill="white" stroke="#666666" points="3115.39,-277.5 2954.39,-277.5 2954.39,-258.5 3115.39,-258.5 3115.39,-277.5"/>
<text text-anchor="middle" x="3034.89" y="-265.5" font-family="Helvetica,sans-Serif" font-size="10.00">libs/Z2AudioLib/Z2SceneMgr.cpp</text>
</a>
</g>
</g>
<!-- Node4&#45;&gt;Node366 -->
<g id="edge38" class="edge">
<title>Node4&#45;&gt;Node366</title>
<path fill="none" stroke="#63b8ff" d="M3095.72,-312.26C3079.35,-300.61 3059.77,-286.69 3047.33,-277.84"/>
<polygon fill="#63b8ff" stroke="#63b8ff" points="3093.51,-314.98 3103.68,-317.92 3097.56,-309.27 3093.51,-314.98"/>
</g>
<!-- Node367 -->
<g id="node38" class="node">
<title>Node367</title>
<g id="a_node38"><a xlink:href="Z2SoundMgr_8cpp.html" target="_top" xlink:title=" ">
<polygon fill="white" stroke="#666666" points="3294.39,-277.5 3133.39,-277.5 3133.39,-258.5 3294.39,-258.5 3294.39,-277.5"/>
<text text-anchor="middle" x="3213.89" y="-265.5" font-family="Helvetica,sans-Serif" font-size="10.00">libs/Z2AudioLib/Z2SoundMgr.cpp</text>
</a>
</g>
</g>
<!-- Node4&#45;&gt;Node367 -->
<g id="edge39" class="edge">
<title>Node4&#45;&gt;Node367</title>
<path fill="none" stroke="#63b8ff" d="M3153.74,-312.26C3169.93,-300.61 3189.29,-286.69 3201.59,-277.84"/>
<polygon fill="#63b8ff" stroke="#63b8ff" points="3151.95,-309.23 3145.87,-317.91 3156.04,-314.92 3151.95,-309.23"/>
</g>
<!-- Node368 -->
<g id="node39" class="node">
<title>Node368</title>
<g id="a_node39"><a xlink:href="Z2WolfHowlMgr_8cpp.html" target="_top" xlink:title=" ">
<polygon fill="white" stroke="#666666" points="3452.89,-283 3312.89,-283 3312.89,-253 3452.89,-253 3452.89,-283"/>
<text text-anchor="start" x="3320.89" y="-271" font-family="Helvetica,sans-Serif" font-size="10.00">libs/Z2AudioLib/Z2WolfHowl</text>
<text text-anchor="middle" x="3382.89" y="-260" font-family="Helvetica,sans-Serif" font-size="10.00">Mgr.cpp</text>
</a>
</g>
</g>
<!-- Node4&#45;&gt;Node368 -->
<g id="edge40" class="edge">
<title>Node4&#45;&gt;Node368</title>
<path fill="none" stroke="#63b8ff" d="M3186.41,-317.74C3228.29,-307.35 3283.36,-293.69 3324.54,-283.47"/>
<polygon fill="#63b8ff" stroke="#63b8ff" points="3185.58,-314.34 3176.72,-320.14 3187.27,-321.13 3185.58,-314.34"/>
</g>
<!-- Node6 -->
<g id="node6" class="node">
<title>Node6</title>
<g id="a_node6"><a xlink:href="m__Do__audio_8h.html" target="_top" xlink:title=" ">
<polygon fill="white" stroke="#666666" points="2872.89,-217 2732.89,-217 2732.89,-198 2872.89,-198 2872.89,-217"/>
<text text-anchor="middle" x="2802.89" y="-205" font-family="Helvetica,sans-Serif" font-size="10.00">include/m_Do/m_Do_audio.h</text>
</a>
</g>
</g>
<!-- Node5&#45;&gt;Node6 -->
<g id="edge5" class="edge">
<title>Node5&#45;&gt;Node6</title>
<path fill="none" stroke="#63b8ff" d="M2856.03,-245.95C2841.96,-236.03 2825.94,-224.74 2815.2,-217.18"/>
<polygon fill="#63b8ff" stroke="#63b8ff" points="2853.95,-248.77 2864.14,-251.67 2857.98,-243.05 2853.95,-248.77"/>
</g>
<!-- Node365 -->
<g id="node36" class="node">
<title>Node365</title>
<g id="a_node36"><a xlink:href="Z2AudioMgr_8cpp.html" target="_top" xlink:title=" ">
<polygon fill="white" stroke="#666666" points="3048.89,-217 2890.89,-217 2890.89,-198 3048.89,-198 3048.89,-217"/>
<text text-anchor="middle" x="2969.89" y="-205" font-family="Helvetica,sans-Serif" font-size="10.00">libs/Z2AudioLib/Z2AudioMgr.cpp</text>
</a>
</g>
</g>
<!-- Node5&#45;&gt;Node365 -->
<g id="edge37" class="edge">
<title>Node5&#45;&gt;Node365</title>
<path fill="none" stroke="#63b8ff" d="M2915.7,-246.24C2930.05,-236.25 2946.46,-224.82 2957.44,-217.18"/>
<polygon fill="#63b8ff" stroke="#63b8ff" points="2914.1,-243.09 2907.9,-251.67 2918.1,-248.83 2914.1,-243.09"/>
</g>
<!-- Node7 -->
<g id="node7" class="node">
<title>Node7</title>
<g id="a_node7"><a xlink:href="m__Do__ext_8h.html" target="_top" xlink:title=" ">
<polygon fill="#fff0f0" stroke="red" points="1286.89,-156.5 1156.89,-156.5 1156.89,-137.5 1286.89,-137.5 1286.89,-156.5"/>
<text text-anchor="middle" x="1221.89" y="-144.5" font-family="Helvetica,sans-Serif" font-size="10.00">include/m_Do/m_Do_ext.h</text>
</a>
</g>
</g>
<!-- Node6&#45;&gt;Node7 -->
<g id="edge6" class="edge">
<title>Node6&#45;&gt;Node7</title>
<path fill="none" stroke="#63b8ff" d="M2721.22,-203.48C2443.37,-193.2 1538.16,-159.7 1287.03,-150.41"/>
<polygon fill="#63b8ff" stroke="#63b8ff" points="2720.77,-206.96 2730.89,-203.84 2721.03,-199.97 2720.77,-206.96"/>
</g>
<!-- Node54 -->
<g id="node13" class="node">
<title>Node54</title>
<g id="a_node13"><a xlink:href="d__kankyo_8cpp.html" target="_top" xlink:title=" ">
<polygon fill="white" stroke="#666666" points="1197.89,-24.5 1063.89,-24.5 1063.89,-5.5 1197.89,-5.5 1197.89,-24.5"/>
<text text-anchor="middle" x="1130.89" y="-12.5" font-family="Helvetica,sans-Serif" font-size="10.00">src/d/kankyo/d_kankyo.cpp</text>
</a>
</g>
</g>
<!-- Node6&#45;&gt;Node54 -->
<g id="edge29" class="edge">
<title>Node6&#45;&gt;Node54</title>
<path fill="none" stroke="#63b8ff" d="M2721.32,-206.45C2270.69,-205.78 102.48,-197.28 6.89,-96 -2.26,-86.3 -2.32,-75.64 6.89,-66 43.54,-27.69 826.57,-18.4 1063.54,-16.46"/>
<polygon fill="#63b8ff" stroke="#63b8ff" points="2721.07,-209.95 2731.08,-206.46 2721.08,-202.95 2721.07,-209.95"/>
</g>
<!-- Node168 -->
<g id="node14" class="node">
<title>Node168</title>
<g id="a_node14"><a xlink:href="d__kankyo__wether_8cpp.html" target="_top" xlink:title=" ">
<polygon fill="white" stroke="#666666" points="2435.89,-30 2319.89,-30 2319.89,0 2435.89,0 2435.89,-30"/>
<text text-anchor="start" x="2327.89" y="-18" font-family="Helvetica,sans-Serif" font-size="10.00">src/d/kankyo/d_kankyo</text>
<text text-anchor="middle" x="2377.89" y="-7" font-family="Helvetica,sans-Serif" font-size="10.00">_wether.cpp</text>
</a>
</g>
</g>
<!-- Node6&#45;&gt;Node168 -->
<g id="edge30" class="edge">
<title>Node6&#45;&gt;Node168</title>
<path fill="none" stroke="#63b8ff" d="M2721.23,-206.1C2626.9,-204.03 2479.1,-195.35 2435.89,-162 2399.56,-133.96 2414.86,-108.64 2397.89,-66 2393.12,-54.01 2387.68,-40.42 2383.68,-30.44"/>
<polygon fill="#63b8ff" stroke="#63b8ff" points="2720.88,-209.59 2730.95,-206.29 2721.02,-202.59 2720.88,-209.59"/>
</g>
<!-- Node12 -->
<g id="node27" class="node">
<title>Node12</title>
<g id="a_node27"><a xlink:href="d__com__inf__game_8cpp.html" target="_top" xlink:title=" ">
<polygon fill="white" stroke="#666666" points="2552.89,-162 2444.89,-162 2444.89,-132 2552.89,-132 2552.89,-162"/>
<text text-anchor="start" x="2452.89" y="-150" font-family="Helvetica,sans-Serif" font-size="10.00">src/d/com/d_com_inf</text>
<text text-anchor="middle" x="2498.89" y="-139" font-family="Helvetica,sans-Serif" font-size="10.00">_game.cpp</text>
</a>
</g>
</g>
<!-- Node6&#45;&gt;Node12 -->
<g id="edge26" class="edge">
<title>Node6&#45;&gt;Node12</title>
<path fill="none" stroke="#63b8ff" d="M2740.24,-195.57C2691.53,-186.92 2622.3,-174.29 2561.89,-162 2559.04,-161.42 2556.11,-160.81 2553.16,-160.19"/>
<polygon fill="#63b8ff" stroke="#63b8ff" points="2739.6,-199.01 2750.05,-197.31 2740.82,-192.12 2739.6,-199.01"/>
</g>
<!-- Node154 -->
<g id="node28" class="node">
<title>Node154</title>
<g id="a_node28"><a xlink:href="d__name_8cpp.html" target="_top" xlink:title=" ">
<polygon fill="white" stroke="#666666" points="2664.89,-156.5 2570.89,-156.5 2570.89,-137.5 2664.89,-137.5 2664.89,-156.5"/>
<text text-anchor="middle" x="2617.89" y="-144.5" font-family="Helvetica,sans-Serif" font-size="10.00">src/d/d_name.cpp</text>
</a>
</g>
</g>
<!-- Node6&#45;&gt;Node154 -->
<g id="edge27" class="edge">
<title>Node6&#45;&gt;Node154</title>
<path fill="none" stroke="#63b8ff" d="M2763.96,-194.19C2728.75,-183.06 2677.74,-166.92 2646.25,-156.97"/>
<polygon fill="#63b8ff" stroke="#63b8ff" points="2762.76,-197.48 2773.35,-197.16 2764.87,-190.81 2762.76,-197.48"/>
</g>
<!-- Node164 -->
<g id="node29" class="node">
<title>Node164</title>
<g id="a_node29"><a xlink:href="d__event__manager_8cpp.html" target="_top" xlink:title=" ">
<polygon fill="white" stroke="#666666" points="2786.39,-162 2683.39,-162 2683.39,-132 2786.39,-132 2786.39,-162"/>
<text text-anchor="start" x="2691.39" y="-150" font-family="Helvetica,sans-Serif" font-size="10.00">src/d/event/d_event</text>
<text text-anchor="middle" x="2734.89" y="-139" font-family="Helvetica,sans-Serif" font-size="10.00">_manager.cpp</text>
</a>
</g>
</g>
<!-- Node6&#45;&gt;Node164 -->
<g id="edge28" class="edge">
<title>Node6&#45;&gt;Node164</title>
<path fill="none" stroke="#63b8ff" d="M2784.02,-190.27C2773.88,-181.54 2761.48,-170.87 2751.68,-162.44"/>
<polygon fill="#63b8ff" stroke="#63b8ff" points="2781.55,-192.76 2791.42,-196.63 2786.12,-187.45 2781.55,-192.76"/>
</g>
<!-- Node16 -->
<g id="node30" class="node">
<title>Node16</title>
<g id="a_node30"><a xlink:href="d__msg__flow_8cpp.html" target="_top" xlink:title=" ">
<polygon fill="white" stroke="#666666" points="2937.39,-156.5 2804.39,-156.5 2804.39,-137.5 2937.39,-137.5 2937.39,-156.5"/>
<text text-anchor="middle" x="2870.89" y="-144.5" font-family="Helvetica,sans-Serif" font-size="10.00">src/d/msg/d_msg_flow.cpp</text>
</a>
</g>
</g>
<!-- Node6&#45;&gt;Node16 -->
<g id="edge31" class="edge">
<title>Node6&#45;&gt;Node16</title>
<path fill="none" stroke="#63b8ff" d="M2821.59,-190.41C2834.12,-179.64 2850.15,-165.85 2860.47,-156.97"/>
<polygon fill="#63b8ff" stroke="#63b8ff" points="2819.67,-187.45 2814.37,-196.63 2824.23,-192.76 2819.67,-187.45"/>
</g>
<!-- Node184 -->
<g id="node31" class="node">
<title>Node184</title>
<g id="a_node31"><a xlink:href="d__s__name_8cpp.html" target="_top" xlink:title=" ">
<polygon fill="white" stroke="#666666" points="3068.39,-156.5 2955.39,-156.5 2955.39,-137.5 3068.39,-137.5 3068.39,-156.5"/>
<text text-anchor="middle" x="3011.89" y="-144.5" font-family="Helvetica,sans-Serif" font-size="10.00">src/d/s/d_s_name.cpp</text>
</a>
</g>
</g>
<!-- Node6&#45;&gt;Node184 -->
<g id="edge32" class="edge">
<title>Node6&#45;&gt;Node184</title>
<path fill="none" stroke="#63b8ff" d="M2845.59,-194.55C2885.4,-183.41 2943.9,-167.03 2979.85,-156.97"/>
<polygon fill="#63b8ff" stroke="#63b8ff" points="2844.78,-191.14 2836.09,-197.21 2846.67,-197.88 2844.78,-191.14"/>
</g>
<!-- Node60 -->
<g id="node32" class="node">
<title>Node60</title>
<g id="a_node32"><a xlink:href="d__s__play_8cpp.html" target="_top" xlink:title=" ">
<polygon fill="white" stroke="#666666" points="3192.89,-156.5 3086.89,-156.5 3086.89,-137.5 3192.89,-137.5 3192.89,-156.5"/>
<text text-anchor="middle" x="3139.89" y="-144.5" font-family="Helvetica,sans-Serif" font-size="10.00">src/d/s/d_s_play.cpp</text>
</a>
</g>
</g>
<!-- Node6&#45;&gt;Node60 -->
<g id="edge33" class="edge">
<title>Node6&#45;&gt;Node60</title>
<path fill="none" stroke="#63b8ff" d="M2876.48,-195.85C2931.99,-187.52 3009.93,-175.16 3077.89,-162 3085.69,-160.49 3094.01,-158.72 3101.94,-156.96"/>
<polygon fill="#63b8ff" stroke="#63b8ff" points="2876.21,-192.35 2866.84,-197.29 2877.24,-199.28 2876.21,-192.35"/>
</g>
<!-- Node21 -->
<g id="node33" class="node">
<title>Node21</title>
<g id="a_node33"><a xlink:href="d__shop__system_8cpp.html" target="_top" xlink:title=" ">
<polygon fill="white" stroke="#666666" points="3362.89,-156.5 3210.89,-156.5 3210.89,-137.5 3362.89,-137.5 3362.89,-156.5"/>
<text text-anchor="middle" x="3286.89" y="-144.5" font-family="Helvetica,sans-Serif" font-size="10.00">src/d/shop/d_shop_system.cpp</text>
</a>
</g>
</g>
<!-- Node6&#45;&gt;Node21 -->
<g id="edge34" class="edge">
<title>Node6&#45;&gt;Node21</title>
<path fill="none" stroke="#63b8ff" d="M2884.29,-197.65C2991.83,-185.93 3171.3,-166.22 3201.89,-162 3212.71,-160.51 3224.27,-158.73 3235.27,-156.95"/>
<polygon fill="#63b8ff" stroke="#63b8ff" points="2884.22,-194.14 2874.65,-198.7 2884.97,-201.1 2884.22,-194.14"/>
</g>
<!-- Node364 -->
<g id="node34" class="node">
<title>Node364</title>
<g id="a_node34"><a xlink:href="m__Do__Reset_8cpp.html" target="_top" xlink:title=" ">
<polygon fill="white" stroke="#666666" points="3516.89,-156.5 3380.89,-156.5 3380.89,-137.5 3516.89,-137.5 3516.89,-156.5"/>
<text text-anchor="middle" x="3448.89" y="-144.5" font-family="Helvetica,sans-Serif" font-size="10.00">src/m_Do/m_Do_Reset.cpp</text>
</a>
</g>
</g>
<!-- Node6&#45;&gt;Node364 -->
<g id="edge35" class="edge">
<title>Node6&#45;&gt;Node364</title>
<path fill="none" stroke="#63b8ff" d="M2884.54,-197.8C3101.33,-178.69 3158.98,-189.1 3371.89,-162 3382.41,-160.66 3393.66,-158.84 3404.23,-156.95"/>
<polygon fill="#63b8ff" stroke="#63b8ff" points="2884.25,-194.31 2874.6,-198.69 2884.87,-201.28 2884.25,-194.31"/>
</g>
<!-- Node191 -->
<g id="node35" class="node">
<title>Node191</title>
<g id="a_node35"><a xlink:href="m__Do__audio_8cpp.html" target="_top" xlink:title=" ">
<polygon fill="white" stroke="#666666" points="3668.89,-156.5 3534.89,-156.5 3534.89,-137.5 3668.89,-137.5 3668.89,-156.5"/>
<text text-anchor="middle" x="3601.89" y="-144.5" font-family="Helvetica,sans-Serif" font-size="10.00">src/m_Do/m_Do_audio.cpp</text>
</a>
</g>
</g>
<!-- Node6&#45;&gt;Node191 -->
<g id="edge36" class="edge">
<title>Node6&#45;&gt;Node191</title>
<path fill="none" stroke="#63b8ff" d="M2884.2,-197.86C3169.51,-175.19 3244.86,-195.6 3525.89,-162 3536.55,-160.73 3547.97,-158.88 3558.63,-156.95"/>
<polygon fill="#63b8ff" stroke="#63b8ff" points="2884.28,-194.34 2874.59,-198.64 2884.84,-201.32 2884.28,-194.34"/>
</g>
<!-- Node8 -->
<g id="node8" class="node">
<title>Node8</title>
<g id="a_node8"><a xlink:href="d__attention_8h.html" target="_top" xlink:title=" ">
<polygon fill="#fff0f0" stroke="red" points="2144.89,-90.5 2030.89,-90.5 2030.89,-71.5 2144.89,-71.5 2144.89,-90.5"/>
<text text-anchor="middle" x="2087.89" y="-78.5" font-family="Helvetica,sans-Serif" font-size="10.00">include/d/d_attention.h</text>
</a>
</g>
</g>
<!-- Node7&#45;&gt;Node8 -->
<g id="edge7" class="edge">
<title>Node7&#45;&gt;Node8</title>
<path fill="none" stroke="#63b8ff" d="M1298.4,-144.86C1441.08,-141.92 1757.21,-131.61 2020.89,-96 2030.31,-94.73 2040.39,-92.88 2049.79,-90.95"/>
<polygon fill="#63b8ff" stroke="#63b8ff" points="1298.63,-141.35 1288.7,-145.05 1298.77,-148.35 1298.63,-141.35"/>
</g>
<!-- Node199 -->
<g id="node9" class="node">
<title>Node199</title>
<g id="a_node9"><a xlink:href="d__drawlist_8h.html" target="_top" xlink:title=" ">
<polygon fill="#fff0f0" stroke="red" points="2272.89,-90.5 2162.89,-90.5 2162.89,-71.5 2272.89,-71.5 2272.89,-90.5"/>
<text text-anchor="middle" x="2217.89" y="-78.5" font-family="Helvetica,sans-Serif" font-size="10.00">include/d/d_drawlist.h</text>
</a>
</g>
</g>
<!-- Node7&#45;&gt;Node199 -->
<g id="edge8" class="edge">
<title>Node7&#45;&gt;Node199</title>
<path fill="none" stroke="#63b8ff" d="M1298.31,-146.07C1457.98,-145.3 1838.31,-138.7 2153.89,-96 2163.02,-94.76 2172.78,-92.91 2181.86,-90.95"/>
<polygon fill="#63b8ff" stroke="#63b8ff" points="1298.7,-142.57 1288.72,-146.11 1298.73,-149.57 1298.7,-142.57"/>
</g>
<!-- Node242 -->
<g id="node10" class="node">
<title>Node242</title>
<g id="a_node10"><a xlink:href="d__ky__thunder_8h.html" target="_top" xlink:title=" ">
<polygon fill="#fff0f0" stroke="red" points="139.89,-90.5 15.89,-90.5 15.89,-71.5 139.89,-71.5 139.89,-90.5"/>
<text text-anchor="middle" x="77.89" y="-78.5" font-family="Helvetica,sans-Serif" font-size="10.00">include/d/d_ky_thunder.h</text>
</a>
</g>
</g>
<!-- Node7&#45;&gt;Node242 -->
<g id="edge9" class="edge">
<title>Node7&#45;&gt;Node242</title>
<path fill="none" stroke="#63b8ff" d="M1145.11,-146.31C968.55,-146.19 520.3,-141.02 148.89,-96 138.79,-94.78 127.97,-92.92 117.9,-90.97"/>
<polygon fill="#63b8ff" stroke="#63b8ff" points="1145.08,-149.81 1155.08,-146.31 1145.09,-142.81 1145.08,-149.81"/>
</g>
<!-- Node243 -->
<g id="node11" class="node">
<title>Node243</title>
<g id="a_node11"><a xlink:href="d__resorce_8h.html" target="_top" xlink:title=" ">
<polygon fill="#fff0f0" stroke="red" points="267.39,-90.5 158.39,-90.5 158.39,-71.5 267.39,-71.5 267.39,-90.5"/>
<text text-anchor="middle" x="212.89" y="-78.5" font-family="Helvetica,sans-Serif" font-size="10.00">include/d/d_resorce.h</text>
</a>
</g>
</g>
<!-- Node7&#45;&gt;Node243 -->
<g id="edge10" class="edge">
<title>Node7&#45;&gt;Node243</title>
<path fill="none" stroke="#63b8ff" d="M1145.31,-146.15C983.95,-145.55 597.48,-139.25 276.89,-96 267.76,-94.77 258,-92.91 248.93,-90.96"/>
<polygon fill="#63b8ff" stroke="#63b8ff" points="1145.01,-149.65 1155.02,-146.18 1145.03,-142.65 1145.01,-149.65"/>
</g>
<!-- Node244 -->
<g id="node12" class="node">
<title>Node244</title>
<g id="a_node12"><a xlink:href="d__kankyo_8h.html" target="_top" xlink:title=" ">
<polygon fill="#fff0f0" stroke="red" points="2388.89,-96 2290.89,-96 2290.89,-66 2388.89,-66 2388.89,-96"/>
<text text-anchor="start" x="2298.89" y="-84" font-family="Helvetica,sans-Serif" font-size="10.00">include/d/kankyo/d</text>
<text text-anchor="middle" x="2339.89" y="-73" font-family="Helvetica,sans-Serif" font-size="10.00">_kankyo.h</text>
</a>
</g>
</g>
<!-- Node7&#45;&gt;Node244 -->
<g id="edge11" class="edge">
<title>Node7&#45;&gt;Node244</title>
<path fill="none" stroke="#63b8ff" d="M1298.45,-144.28C1508.68,-139.24 2091.84,-123.17 2281.89,-96 2284.76,-95.59 2287.7,-95.1 2290.65,-94.56"/>
<polygon fill="#63b8ff" stroke="#63b8ff" points="1298.65,-140.77 1288.74,-144.51 1298.82,-147.77 1298.65,-140.77"/>
</g>
<!-- Node203 -->
<g id="node15" class="node">
<title>Node203</title>
<g id="a_node15"><a xlink:href="d__a__do_8h.html" target="_top" xlink:title=" ">
<polygon fill="white" stroke="#666666" points="381.89,-96 285.89,-96 285.89,-66 381.89,-66 381.89,-96"/>
<text text-anchor="start" x="293.89" y="-84" font-family="Helvetica,sans-Serif" font-size="10.00">include/rel/d/a/d_a</text>
<text text-anchor="middle" x="333.89" y="-73" font-family="Helvetica,sans-Serif" font-size="10.00">_do/d_a_do.h</text>
</a>
</g>
</g>
<!-- Node7&#45;&gt;Node203 -->
<g id="edge14" class="edge">
<title>Node7&#45;&gt;Node203</title>
<path fill="none" stroke="#63b8ff" d="M1145.45,-146C998.44,-144.99 666.47,-137.78 390.89,-96 388.07,-95.57 385.19,-95.07 382.28,-94.52"/>
<polygon fill="#63b8ff" stroke="#63b8ff" points="1145.02,-149.5 1155.04,-146.06 1145.06,-142.5 1145.02,-149.5"/>
</g>
<!-- Node356 -->
<g id="node16" class="node">
<title>Node356</title>
<g id="a_node16"><a xlink:href="DynamicLink_8cpp.html" target="_top" xlink:title=" ">
<polygon fill="white" stroke="#666666" points="507.39,-90.5 400.39,-90.5 400.39,-71.5 507.39,-71.5 507.39,-90.5"/>
<text text-anchor="middle" x="453.89" y="-78.5" font-family="Helvetica,sans-Serif" font-size="10.00">src/DynamicLink.cpp</text>
</a>
</g>
</g>
<!-- Node7&#45;&gt;Node356 -->
<g id="edge15" class="edge">
<title>Node7&#45;&gt;Node356</title>
<path fill="none" stroke="#63b8ff" d="M1145.43,-144.37C1015.44,-140.76 743.34,-129.54 515.89,-96 507.27,-94.73 498.06,-92.91 489.45,-91"/>
<polygon fill="#63b8ff" stroke="#63b8ff" points="1145.2,-147.87 1155.29,-144.64 1145.39,-140.87 1145.2,-147.87"/>
</g>
<!-- Node135 -->
<g id="node17" class="node">
<title>Node135</title>
<g id="a_node17"><a xlink:href="c__dylink_8cpp.html" target="_top" xlink:title=" ">
<polygon fill="white" stroke="#666666" points="620.39,-90.5 525.39,-90.5 525.39,-71.5 620.39,-71.5 620.39,-90.5"/>
<text text-anchor="middle" x="572.89" y="-78.5" font-family="Helvetica,sans-Serif" font-size="10.00">src/c/c_dylink.cpp</text>
</a>
</g>
</g>
<!-- Node7&#45;&gt;Node135 -->
<g id="edge16" class="edge">
<title>Node7&#45;&gt;Node135</title>
<path fill="none" stroke="#63b8ff" d="M1145.22,-143.47C1031.74,-138.85 812.66,-126.52 628.89,-96 621.08,-94.7 612.76,-92.87 604.98,-90.96"/>
<polygon fill="#63b8ff" stroke="#63b8ff" points="1144.89,-146.96 1155.02,-143.86 1145.17,-139.97 1144.89,-146.96"/>
</g>
<!-- Node357 -->
<g id="node18" class="node">
<title>Node357</title>
<g id="a_node18"><a xlink:href="d__pane__class_8cpp.html" target="_top" xlink:title=" ">
<polygon fill="white" stroke="#666666" points="781.39,-90.5 638.39,-90.5 638.39,-71.5 781.39,-71.5 781.39,-90.5"/>
<text text-anchor="middle" x="709.89" y="-78.5" font-family="Helvetica,sans-Serif" font-size="10.00">src/d/pane/d_pane_class.cpp</text>
</a>
</g>
</g>
<!-- Node7&#45;&gt;Node357 -->
<g id="edge17" class="edge">
<title>Node7&#45;&gt;Node357</title>
<path fill="none" stroke="#63b8ff" d="M1145.31,-138.49C1058.82,-129.7 913.96,-114.02 789.89,-96 779.71,-94.52 768.82,-92.75 758.47,-90.97"/>
<polygon fill="#63b8ff" stroke="#63b8ff" points="1144.79,-141.96 1155.1,-139.48 1145.5,-134.99 1144.79,-141.96"/>
</g>
<!-- Node358 -->
<g id="node19" class="node">
<title>Node358</title>
<g id="a_node19"><a xlink:href="d__pane__class__alpha_8cpp.html" target="_top" xlink:title=" ">
<polygon fill="white" stroke="#666666" points="924.39,-96 799.39,-96 799.39,-66 924.39,-66 924.39,-96"/>
<text text-anchor="start" x="807.39" y="-84" font-family="Helvetica,sans-Serif" font-size="10.00">src/d/pane/d_pane_class</text>
<text text-anchor="middle" x="861.89" y="-73" font-family="Helvetica,sans-Serif" font-size="10.00">_alpha.cpp</text>
</a>
</g>
</g>
<!-- Node7&#45;&gt;Node358 -->
<g id="edge18" class="edge">
<title>Node7&#45;&gt;Node358</title>
<path fill="none" stroke="#63b8ff" d="M1156.44,-135.13C1097.82,-125.28 1009.52,-110.18 932.89,-96 930.17,-95.5 927.4,-94.98 924.6,-94.45"/>
<polygon fill="#63b8ff" stroke="#63b8ff" points="1155.83,-138.57 1166.27,-136.77 1156.99,-131.67 1155.83,-138.57"/>
</g>
<!-- Node127 -->
<g id="node20" class="node">
<title>Node127</title>
<g id="a_node20"><a xlink:href="f__op__actor__mng_8cpp.html" target="_top" xlink:title=" ">
<polygon fill="white" stroke="#666666" points="1043.39,-96 942.39,-96 942.39,-66 1043.39,-66 1043.39,-96"/>
<text text-anchor="start" x="950.39" y="-84" font-family="Helvetica,sans-Serif" font-size="10.00">src/f_op/f_op_actor</text>
<text text-anchor="middle" x="992.89" y="-73" font-family="Helvetica,sans-Serif" font-size="10.00">_mng.cpp</text>
</a>
</g>
</g>
<!-- Node7&#45;&gt;Node127 -->
<g id="edge19" class="edge">
<title>Node7&#45;&gt;Node127</title>
<path fill="none" stroke="#63b8ff" d="M1179.26,-134.08C1140.91,-123.37 1084.52,-107.61 1043.82,-96.23"/>
<polygon fill="#63b8ff" stroke="#63b8ff" points="1178.02,-137.37 1188.59,-136.69 1179.9,-130.63 1178.02,-137.37"/>
</g>
<!-- Node359 -->
<g id="node21" class="node">
<title>Node359</title>
<g id="a_node21"><a xlink:href="m__Do__DVDError_8cpp.html" target="_top" xlink:title=" ">
<polygon fill="white" stroke="#666666" points="1212.39,-90.5 1061.39,-90.5 1061.39,-71.5 1212.39,-71.5 1212.39,-90.5"/>
<text text-anchor="middle" x="1136.89" y="-78.5" font-family="Helvetica,sans-Serif" font-size="10.00">src/m_Do/m_Do_DVDError.cpp</text>
</a>
</g>
</g>
<!-- Node7&#45;&gt;Node359 -->
<g id="edge20" class="edge">
<title>Node7&#45;&gt;Node359</title>
<path fill="none" stroke="#63b8ff" d="M1201.16,-130.39C1184.65,-117.96 1162.14,-101.01 1148.61,-90.82"/>
<polygon fill="#63b8ff" stroke="#63b8ff" points="1198.77,-132.97 1208.86,-136.19 1202.98,-127.38 1198.77,-132.97"/>
</g>
<!-- Node360 -->
<g id="node22" class="node">
<title>Node360</title>
<g id="a_node22"><a xlink:href="m__Do__MemCard_8cpp.html" target="_top" xlink:title=" ">
<polygon fill="white" stroke="#666666" points="1382.89,-90.5 1230.89,-90.5 1230.89,-71.5 1382.89,-71.5 1382.89,-90.5"/>
<text text-anchor="middle" x="1306.89" y="-78.5" font-family="Helvetica,sans-Serif" font-size="10.00">src/m_Do/m_Do_MemCard.cpp</text>
</a>
</g>
</g>
<!-- Node7&#45;&gt;Node360 -->
<g id="edge21" class="edge">
<title>Node7&#45;&gt;Node360</title>
<path fill="none" stroke="#63b8ff" d="M1242.62,-130.39C1259.13,-117.96 1281.64,-101.01 1295.17,-90.82"/>
<polygon fill="#63b8ff" stroke="#63b8ff" points="1240.8,-127.38 1234.92,-136.19 1245.01,-132.97 1240.8,-127.38"/>
</g>
<!-- Node361 -->
<g id="node23" class="node">
<title>Node361</title>
<g id="a_node23"><a xlink:href="m__Do__dvd__thread_8cpp.html" target="_top" xlink:title=" ">
<polygon fill="white" stroke="#666666" points="1558.89,-90.5 1400.89,-90.5 1400.89,-71.5 1558.89,-71.5 1558.89,-90.5"/>
<text text-anchor="middle" x="1479.89" y="-78.5" font-family="Helvetica,sans-Serif" font-size="10.00">src/m_Do/m_Do_dvd_thread.cpp</text>
</a>
</g>
</g>
<!-- Node7&#45;&gt;Node361 -->
<g id="edge22" class="edge">
<title>Node7&#45;&gt;Node361</title>
<path fill="none" stroke="#63b8ff" d="M1268.96,-134.32C1319.4,-121.81 1398.34,-102.23 1443.99,-90.91"/>
<polygon fill="#63b8ff" stroke="#63b8ff" points="1268.37,-130.86 1259.51,-136.67 1270.06,-137.66 1268.37,-130.86"/>
</g>
<!-- Node192 -->
<g id="node24" class="node">
<title>Node192</title>
<g id="a_node24"><a xlink:href="m__Do__ext_8cpp.html" target="_top" xlink:title=" ">
<polygon fill="white" stroke="#666666" points="1700.39,-90.5 1577.39,-90.5 1577.39,-71.5 1700.39,-71.5 1700.39,-90.5"/>
<text text-anchor="middle" x="1638.89" y="-78.5" font-family="Helvetica,sans-Serif" font-size="10.00">src/m_Do/m_Do_ext.cpp</text>
</a>
</g>
</g>
<!-- Node7&#45;&gt;Node192 -->
<g id="edge23" class="edge">
<title>Node7&#45;&gt;Node192</title>
<path fill="none" stroke="#63b8ff" d="M1298.47,-136.08C1368.7,-126.71 1475.52,-111.77 1567.89,-96 1576.81,-94.48 1586.33,-92.7 1595.4,-90.94"/>
<polygon fill="#63b8ff" stroke="#63b8ff" points="1298.05,-132.6 1288.59,-137.39 1298.97,-139.54 1298.05,-132.6"/>
</g>
<!-- Node362 -->
<g id="node25" class="node">
<title>Node362</title>
<g id="a_node25"><a xlink:href="m__Do__machine_8cpp.html" target="_top" xlink:title=" ">
<polygon fill="white" stroke="#666666" points="1865.39,-90.5 1718.39,-90.5 1718.39,-71.5 1865.39,-71.5 1865.39,-90.5"/>
<text text-anchor="middle" x="1791.89" y="-78.5" font-family="Helvetica,sans-Serif" font-size="10.00">src/m_Do/m_Do_machine.cpp</text>
</a>
</g>
</g>
<!-- Node7&#45;&gt;Node362 -->
<g id="edge24" class="edge">
<title>Node7&#45;&gt;Node362</title>
<path fill="none" stroke="#63b8ff" d="M1298.38,-139.69C1394.45,-131.41 1564.22,-115.61 1708.89,-96 1719.61,-94.55 1731.06,-92.77 1741.94,-90.96"/>
<polygon fill="#63b8ff" stroke="#63b8ff" points="1298.21,-136.19 1288.55,-140.53 1298.81,-143.17 1298.21,-136.19"/>
</g>
<!-- Node195 -->
<g id="node26" class="node">
<title>Node195</title>
<g id="a_node26"><a xlink:href="m__Do__machine__exception_8cpp.html" target="_top" xlink:title=" ">
<polygon fill="white" stroke="#666666" points="2012.39,-96 1883.39,-96 1883.39,-66 2012.39,-66 2012.39,-96"/>
<text text-anchor="start" x="1891.39" y="-84" font-family="Helvetica,sans-Serif" font-size="10.00">src/m_Do/m_Do_machine</text>
<text text-anchor="middle" x="1947.89" y="-73" font-family="Helvetica,sans-Serif" font-size="10.00">_exception.cpp</text>
</a>
</g>
</g>
<!-- Node7&#45;&gt;Node195 -->
<g id="edge25" class="edge">
<title>Node7&#45;&gt;Node195</title>
<path fill="none" stroke="#63b8ff" d="M1298.82,-142.86C1421.07,-137.24 1667.02,-123.42 1873.89,-96 1876.87,-95.6 1879.92,-95.17 1882.99,-94.7"/>
<polygon fill="#63b8ff" stroke="#63b8ff" points="1298.73,-139.36 1288.9,-143.3 1299.04,-146.35 1298.73,-139.36"/>
</g>
<!-- Node244&#45;&gt;Node54 -->
<g id="edge12" class="edge">
<title>Node244&#45;&gt;Node54</title>
<path fill="none" stroke="#63b8ff" d="M2279.33,-65.89C2048.7,-35.69 1407.6,-21.25 1198.05,-17.21"/>
<polygon fill="#63b8ff" stroke="#63b8ff" points="2278.78,-69.34 2289.16,-67.23 2279.72,-62.41 2278.78,-69.34"/>
</g>
<!-- Node244&#45;&gt;Node168 -->
<g id="edge13" class="edge">
<title>Node244&#45;&gt;Node168</title>
<path fill="none" stroke="#63b8ff" d="M2354.08,-56.11C2359.26,-47.38 2364.96,-37.78 2369.48,-30.16"/>
<polygon fill="#63b8ff" stroke="#63b8ff" points="2351.19,-54.11 2349.1,-64.49 2357.21,-57.68 2351.19,-54.11"/>
</g>
<!-- Node373&#45;&gt;Node372 -->
<g id="edge48" class="edge">
<title>Node373&#45;&gt;Node372</title>
<path fill="none" stroke="#63b8ff" d="M3046.27,-443.7C3034.64,-434.4 3021.3,-423.73 3010.87,-415.39"/>
<polygon fill="#63b8ff" stroke="#63b8ff" points="3043.96,-446.34 3053.96,-449.85 3048.33,-440.87 3043.96,-446.34"/>
</g>
<!-- Node374 -->
<g id="node45" class="node">
<title>Node374</title>
<g id="a_node45"><a xlink:href="JAISeq_8cpp.html" target="_top" xlink:title=" ">
<polygon fill="white" stroke="#666666" points="3177.39,-415 3066.39,-415 3066.39,-385 3177.39,-385 3177.39,-415"/>
<text text-anchor="start" x="3074.39" y="-403" font-family="Helvetica,sans-Serif" font-size="10.00">libs/JSystem/JAudio2</text>
<text text-anchor="middle" x="3121.89" y="-392" font-family="Helvetica,sans-Serif" font-size="10.00">/JAISeq.cpp</text>
</a>
</g>
</g>
<!-- Node373&#45;&gt;Node374 -->
<g id="edge47" class="edge">
<title>Node373&#45;&gt;Node374</title>
<path fill="none" stroke="#63b8ff" d="M3090.75,-441.68C3097.55,-432.79 3105.09,-422.95 3111.05,-415.16"/>
<polygon fill="#63b8ff" stroke="#63b8ff" points="3087.99,-439.53 3084.69,-449.59 3093.54,-443.78 3087.99,-439.53"/>
</g>
</g>
</svg>
        <g id="navigator" transform="translate(0 0)" fill="#404254">
                <rect fill="#f2f5e9" fill-opacity="0.5" stroke="#606060" stroke-width=".5" x="0" y="0" width="60" height="60"/>
                <use id="zoomplus" xlink:href="#zoomPlus" x="17" y="9" onmousedown="handleZoom(evt,'in')"/>
                <use id="zoomminus" xlink:href="#zoomMin" x="42" y="9" onmousedown="handleZoom(evt,'out')"/>
                <use id="reset" xlink:href="#resetDef" x="30" y="36" onmousedown="handleReset()"/>
                <g id="arrowUp" xlink:href="#dirArrow" transform="translate(30 24)" onmousedown="handlePan(0,-1)">
                  <use xlink:href="#rim" fill="#404040">
                        <set attributeName="fill" to="#808080" begin="arrowUp.mouseover" end="arrowUp.mouseout"/>
                  </use>
                  <path fill="none" stroke="white" stroke-width="1.5" d="M0,-3.0v7 M-2.5,-0.5L0,-3.0L2.5,-0.5"/>
                </g>
                <g id="arrowRight" xlink:href="#dirArrow" transform="rotate(90) translate(36 -43)" onmousedown="handlePan(1,0)">
                  <use xlink:href="#rim" fill="#404040">
                        <set attributeName="fill" to="#808080" begin="arrowRight.mouseover" end="arrowRight.mouseout"/>
                  </use>
                  <path fill="none" stroke="white" stroke-width="1.5" d="M0,-3.0v7 M-2.5,-0.5L0,-3.0L2.5,-0.5"/>
                </g>
                <g id="arrowDown" xlink:href="#dirArrow" transform="rotate(180) translate(-30 -48)" onmousedown="handlePan(0,1)">
                  <use xlink:href="#rim" fill="#404040">
                        <set attributeName="fill" to="#808080" begin="arrowDown.mouseover" end="arrowDown.mouseout"/>
                  </use>
                  <path fill="none" stroke="white" stroke-width="1.5" d="M0,-3.0v7 M-2.5,-0.5L0,-3.0L2.5,-0.5"/>
                </g>
                <g id="arrowLeft" xlink:href="#dirArrow" transform="rotate(270) translate(-36 17)" onmousedown="handlePan(-1,0)">
                  <use xlink:href="#rim" fill="#404040">
                        <set attributeName="fill" to="#808080" begin="arrowLeft.mouseover" end="arrowLeft.mouseout"/>
                  </use>
                  <path fill="none" stroke="white" stroke-width="1.5" d="M0,-3.0v7 M-2.5,-0.5L0,-3.0L2.5,-0.5"/>
                </g>
        </g>
        <svg viewBox="0 0 15 15" width="100%" height="30px" preserveAspectRatio="xMaxYMin meet">
         <g id="arrow_out" transform="scale(0.3 0.3)">
          <a xlink:href="JASTrack_8h__dep__incl_org.svg" target="_base">
           <rect id="button" ry="5" rx="5" y="6" x="6" height="38" width="38"
                fill="#f2f5e9" fill-opacity="0.5" stroke="#606060" stroke-width="1.0"/>
           <path id="arrow"
             d="M 11.500037,31.436501 C 11.940474,20.09759 22.043105,11.32322 32.158766,21.979434 L 37.068811,17.246167 C 37.068811,17.246167 37.088388,32 37.088388,32 L 22.160133,31.978069 C 22.160133,31.978069 26.997745,27.140456 26.997745,27.140456 C 18.528582,18.264221 13.291696,25.230495 11.500037,31.436501 z"
             style="fill:#404040;"/>
          </a>
         </g>
        </svg>
</svg>
