<?xml version="1.0" encoding="UTF-8" standalone="no"?>
<!DOCTYPE svg PUBLIC "-//W3C//DTD SVG 1.1//EN"
 "http://www.w3.org/Graphics/SVG/1.1/DTD/svg11.dtd">
<!-- Generated by graphviz version 7.0.5 (20221223.1930)
 -->
<!-- Title: include/JSystem/JAudio2/JAUAudioArcInterpreter.h Pages: 1 -->
<svg width="368pt" height="236pt"
 viewBox="0.00 0.00 367.50 236.00" xmlns="http://www.w3.org/2000/svg" xmlns:xlink="http://www.w3.org/1999/xlink">
<g id="graph0" class="graph" transform="scale(1 1) rotate(0) translate(4 232)">
<title>include/JSystem/JAudio2/JAUAudioArcInterpreter.h</title>
<!-- Node1 -->
<g id="node1" class="node">
<title>Node1</title>
<g id="a_node1"><a xlink:title=" ">
<polygon fill="#999999" stroke="#666666" points="278.5,-228 147.5,-228 147.5,-198 278.5,-198 278.5,-228"/>
<text text-anchor="start" x="155.5" y="-216" font-family="Helvetica,sans-Serif" font-size="10.00">include/JSystem/JAudio2</text>
<text text-anchor="middle" x="213" y="-205" font-family="Helvetica,sans-Serif" font-size="10.00">/JAUAudioArcInterpreter.h</text>
</a>
</g>
</g>
<!-- Node2 -->
<g id="node2" class="node">
<title>Node2</title>
<g id="a_node2"><a xlink:href="JAUAudioArcLoader_8h.html" target="_top" xlink:title=" ">
<polygon fill="white" stroke="#666666" points="200.5,-162 73.5,-162 73.5,-132 200.5,-132 200.5,-162"/>
<text text-anchor="start" x="81.5" y="-150" font-family="Helvetica,sans-Serif" font-size="10.00">include/JSystem/JAudio2</text>
<text text-anchor="middle" x="137" y="-139" font-family="Helvetica,sans-Serif" font-size="10.00">/JAUAudioArcLoader.h</text>
</a>
</g>
</g>
<!-- Node1&#45;&gt;Node2 -->
<g id="edge1" class="edge">
<title>Node1&#45;&gt;Node2</title>
<path fill="none" stroke="#63b8ff" d="M187.38,-190.42C176.41,-181.18 163.89,-170.65 154.08,-162.39"/>
<polygon fill="#63b8ff" stroke="#63b8ff" points="185.07,-193.06 194.98,-196.82 189.58,-187.7 185.07,-193.06"/>
</g>
<!-- Node6 -->
<g id="node6" class="node">
<title>Node6</title>
<g id="a_node6"><a xlink:href="JAUAudioArcInterpreter_8cpp.html" target="_top" xlink:title=" ">
<polygon fill="white" stroke="#666666" points="359.5,-162 218.5,-162 218.5,-132 359.5,-132 359.5,-162"/>
<text text-anchor="start" x="226.5" y="-150" font-family="Helvetica,sans-Serif" font-size="10.00">libs/JSystem/JAudio2</text>
<text text-anchor="middle" x="289" y="-139" font-family="Helvetica,sans-Serif" font-size="10.00">/JAUAudioArcInterpreter.cpp</text>
</a>
</g>
</g>
<!-- Node1&#45;&gt;Node6 -->
<g id="edge5" class="edge">
<title>Node1&#45;&gt;Node6</title>
<path fill="none" stroke="#63b8ff" d="M238.62,-190.42C249.59,-181.18 262.11,-170.65 271.92,-162.39"/>
<polygon fill="#63b8ff" stroke="#63b8ff" points="236.42,-187.7 231.02,-196.82 240.93,-193.06 236.42,-187.7"/>
</g>
<!-- Node3 -->
<g id="node3" class="node">
<title>Node3</title>
<g id="a_node3"><a xlink:href="Z2AudioArcLoader_8h.html" target="_top" xlink:title=" ">
<polygon fill="white" stroke="#666666" points="123,-96 15,-96 15,-66 123,-66 123,-96"/>
<text text-anchor="start" x="23" y="-84" font-family="Helvetica,sans-Serif" font-size="10.00">include/Z2AudioLib</text>
<text text-anchor="middle" x="69" y="-73" font-family="Helvetica,sans-Serif" font-size="10.00">/Z2AudioArcLoader.h</text>
</a>
</g>
</g>
<!-- Node2&#45;&gt;Node3 -->
<g id="edge2" class="edge">
<title>Node2&#45;&gt;Node3</title>
<path fill="none" stroke="#63b8ff" d="M113.72,-124.09C103.9,-114.85 92.76,-104.36 84.05,-96.16"/>
<polygon fill="#63b8ff" stroke="#63b8ff" points="111.13,-126.45 120.81,-130.76 115.92,-121.36 111.13,-126.45"/>
</g>
<!-- Node5 -->
<g id="node5" class="node">
<title>Node5</title>
<g id="a_node5"><a xlink:href="JAUAudioArcLoader_8cpp.html" target="_top" xlink:title=" ">
<polygon fill="white" stroke="#666666" points="268.5,-96 141.5,-96 141.5,-66 268.5,-66 268.5,-96"/>
<text text-anchor="start" x="149.5" y="-84" font-family="Helvetica,sans-Serif" font-size="10.00">libs/JSystem/JAudio2</text>
<text text-anchor="middle" x="205" y="-73" font-family="Helvetica,sans-Serif" font-size="10.00">/JAUAudioArcLoader.cpp</text>
</a>
</g>
</g>
<!-- Node2&#45;&gt;Node5 -->
<g id="edge4" class="edge">
<title>Node2&#45;&gt;Node5</title>
<path fill="none" stroke="#63b8ff" d="M160.28,-124.09C170.1,-114.85 181.24,-104.36 189.95,-96.16"/>
<polygon fill="#63b8ff" stroke="#63b8ff" points="158.08,-121.36 153.19,-130.76 162.87,-126.45 158.08,-121.36"/>
</g>
<!-- Node4 -->
<g id="node4" class="node">
<title>Node4</title>
<g id="a_node4"><a xlink:href="Z2AudioArcLoader_8cpp.html" target="_top" xlink:title=" ">
<polygon fill="white" stroke="#666666" points="138,-30 0,-30 0,0 138,0 138,-30"/>
<text text-anchor="start" x="8" y="-18" font-family="Helvetica,sans-Serif" font-size="10.00">libs/Z2AudioLib/Z2AudioArc</text>
<text text-anchor="middle" x="69" y="-7" font-family="Helvetica,sans-Serif" font-size="10.00">Loader.cpp</text>
</a>
</g>
</g>
<!-- Node3&#45;&gt;Node4 -->
<g id="edge3" class="edge">
<title>Node3&#45;&gt;Node4</title>
<path fill="none" stroke="#63b8ff" d="M69,-54.39C69,-46.13 69,-37.28 69,-30.16"/>
<polygon fill="#63b8ff" stroke="#63b8ff" points="65.5,-54.28 69,-64.28 72.5,-54.28 65.5,-54.28"/>
</g>
</g>
</svg>
