<?xml version="1.0" encoding="UTF-8" standalone="no"?>
<!DOCTYPE svg PUBLIC "-//W3C//DTD SVG 1.1//EN"
 "http://www.w3.org/Graphics/SVG/1.1/DTD/svg11.dtd">
<!-- Generated by graphviz version 7.0.5 (20221223.1930)
 -->
<!-- Title: libs/JSystem/JAudio2/JAUBankTable.cpp Pages: 1 -->
<svg width="343pt" height="324pt"
 viewBox="0.00 0.00 343.49 324.00" xmlns="http://www.w3.org/2000/svg" xmlns:xlink="http://www.w3.org/1999/xlink">
<g id="graph0" class="graph" transform="scale(1 1) rotate(0) translate(4 320)">
<title>libs/JSystem/JAudio2/JAUBankTable.cpp</title>
<!-- Node1 -->
<g id="node1" class="node">
<title>Node1</title>
<g id="a_node1"><a xlink:title=" ">
<polygon fill="#999999" stroke="#666666" points="334.5,-316 223.5,-316 223.5,-286 334.5,-286 334.5,-316"/>
<text text-anchor="start" x="231.5" y="-304" font-family="Helvetica,sans-Serif" font-size="10.00">libs/JSystem/JAudio2</text>
<text text-anchor="middle" x="279" y="-293" font-family="Helvetica,sans-Serif" font-size="10.00">/JAUBankTable.cpp</text>
</a>
</g>
</g>
<!-- Node2 -->
<g id="node2" class="node">
<title>Node2</title>
<g id="a_node2"><a xlink:href="JAUBankTable_8h.html" target="_top" xlink:title=" ">
<polygon fill="white" stroke="#666666" points="308,-250 138,-250 138,-231 308,-231 308,-250"/>
<text text-anchor="middle" x="223" y="-238" font-family="Helvetica,sans-Serif" font-size="10.00">JSystem/JAudio2/JAUBankTable.h</text>
</a>
</g>
</g>
<!-- Node1&#45;&gt;Node2 -->
<g id="edge1" class="edge">
<title>Node1&#45;&gt;Node2</title>
<path fill="none" stroke="#63b8ff" d="M265.16,-285.54C257.27,-277.3 247.36,-266.94 239.12,-258.34"/>
<polygon fill="#63b8ff" stroke="#63b8ff" points="241.79,-256.07 232.35,-251.27 236.74,-260.91 241.79,-256.07"/>
</g>
<!-- Node5 -->
<g id="node5" class="node">
<title>Node5</title>
<g id="a_node5"><a xlink:href="types_8h.html" target="_top" xlink:title=" ">
<polygon fill="white" stroke="#666666" points="276.5,-85 195.5,-85 195.5,-66 276.5,-66 276.5,-85"/>
<text text-anchor="middle" x="236" y="-73" font-family="Helvetica,sans-Serif" font-size="10.00">dolphin/types.h</text>
</a>
</g>
</g>
<!-- Node1&#45;&gt;Node5 -->
<g id="edge8" class="edge">
<title>Node1&#45;&gt;Node5</title>
<path fill="none" stroke="#63b8ff" d="M293.88,-285.77C302.45,-276.51 312.41,-263.64 317,-250 335.3,-195.67 346.19,-170.35 317,-121 308.59,-106.78 293.83,-96.79 279.2,-89.94"/>
<polygon fill="#63b8ff" stroke="#63b8ff" points="280.63,-86.75 270.05,-86.08 277.9,-93.2 280.63,-86.75"/>
</g>
<!-- Node3 -->
<g id="node3" class="node">
<title>Node3</title>
<g id="a_node3"><a xlink:href="JASGadget_8h.html" target="_top" xlink:title=" ">
<polygon fill="white" stroke="#666666" points="176,-195 22,-195 22,-176 176,-176 176,-195"/>
<text text-anchor="middle" x="99" y="-183" font-family="Helvetica,sans-Serif" font-size="10.00">JSystem/JAudio2/JASGadget.h</text>
</a>
</g>
</g>
<!-- Node2&#45;&gt;Node3 -->
<g id="edge2" class="edge">
<title>Node2&#45;&gt;Node3</title>
<path fill="none" stroke="#63b8ff" d="M201.97,-230.51C182.25,-222.08 152.53,-209.38 130.09,-199.79"/>
<polygon fill="#63b8ff" stroke="#63b8ff" points="131.69,-196.66 121.12,-195.95 128.94,-203.1 131.69,-196.66"/>
</g>
<!-- Node7 -->
<g id="node7" class="node">
<title>Node7</title>
<g id="a_node7"><a xlink:href="JSUList_8h.html" target="_top" xlink:title=" ">
<polygon fill="white" stroke="#666666" points="307.5,-140 164.5,-140 164.5,-121 307.5,-121 307.5,-140"/>
<text text-anchor="middle" x="236" y="-128" font-family="Helvetica,sans-Serif" font-size="10.00">JSystem/JSupport/JSUList.h</text>
</a>
</g>
</g>
<!-- Node2&#45;&gt;Node7 -->
<g id="edge6" class="edge">
<title>Node2&#45;&gt;Node7</title>
<path fill="none" stroke="#63b8ff" d="M224.06,-230.66C226.13,-213.5 230.73,-175.26 233.58,-151.6"/>
<polygon fill="#63b8ff" stroke="#63b8ff" points="237.02,-152.31 234.74,-141.96 230.07,-151.47 237.02,-152.31"/>
</g>
<!-- Node4 -->
<g id="node4" class="node">
<title>Node4</title>
<g id="a_node4"><a xlink:href="JUTAssert_8h.html" target="_top" xlink:title=" ">
<polygon fill="white" stroke="#666666" points="146,-140 0,-140 0,-121 146,-121 146,-140"/>
<text text-anchor="middle" x="73" y="-128" font-family="Helvetica,sans-Serif" font-size="10.00">JSystem/JUtility/JUTAssert.h</text>
</a>
</g>
</g>
<!-- Node3&#45;&gt;Node4 -->
<g id="edge3" class="edge">
<title>Node3&#45;&gt;Node4</title>
<path fill="none" stroke="#63b8ff" d="M94.71,-175.75C91.38,-168.96 86.64,-159.3 82.44,-150.73"/>
<polygon fill="#63b8ff" stroke="#63b8ff" points="85.6,-149.24 78.05,-141.8 79.32,-152.32 85.6,-149.24"/>
</g>
<!-- Node4&#45;&gt;Node5 -->
<g id="edge4" class="edge">
<title>Node4&#45;&gt;Node5</title>
<path fill="none" stroke="#63b8ff" d="M100.65,-120.51C127.31,-111.84 167.88,-98.65 197.66,-88.97"/>
<polygon fill="#63b8ff" stroke="#63b8ff" points="198.62,-92.33 207.05,-85.91 196.45,-85.68 198.62,-92.33"/>
</g>
<!-- Node6 -->
<g id="node6" class="node">
<title>Node6</title>
<g id="a_node6"><a xlink:href="stddef_8h.html" target="_top" xlink:title=" ">
<polygon fill="white" stroke="#666666" points="304,-30 168,-30 168,0 304,0 304,-30"/>
<text text-anchor="start" x="176" y="-18" font-family="Helvetica,sans-Serif" font-size="10.00">MSL_C/MSL_Common/Src</text>
<text text-anchor="middle" x="236" y="-7" font-family="Helvetica,sans-Serif" font-size="10.00">/stddef.h</text>
</a>
</g>
</g>
<!-- Node5&#45;&gt;Node6 -->
<g id="edge5" class="edge">
<title>Node5&#45;&gt;Node6</title>
<path fill="none" stroke="#63b8ff" d="M236,-65.87C236,-59.4 236,-50.2 236,-41.45"/>
<polygon fill="#63b8ff" stroke="#63b8ff" points="239.5,-41.63 236,-31.63 232.5,-41.63 239.5,-41.63"/>
</g>
<!-- Node7&#45;&gt;Node5 -->
<g id="edge7" class="edge">
<title>Node7&#45;&gt;Node5</title>
<path fill="none" stroke="#63b8ff" d="M236,-120.75C236,-114.27 236,-105.16 236,-96.9"/>
<polygon fill="#63b8ff" stroke="#63b8ff" points="239.5,-96.96 236,-86.96 232.5,-96.96 239.5,-96.96"/>
</g>
</g>
</svg>
