<?xml version="1.0" encoding="UTF-8" standalone="no"?>
<!DOCTYPE svg PUBLIC "-//W3C//DTD SVG 1.1//EN"
 "http://www.w3.org/Graphics/SVG/1.1/DTD/svg11.dtd">
<!-- Generated by graphviz version 7.0.5 (20221223.1930)
 -->
<!-- Title: include/JSystem/JAudio2/JAUBankTable.h Pages: 1 -->
<svg width="316pt" height="269pt"
 viewBox="0.00 0.00 315.50 269.00" xmlns="http://www.w3.org/2000/svg" xmlns:xlink="http://www.w3.org/1999/xlink">
<g id="graph0" class="graph" transform="scale(1 1) rotate(0) translate(4 265)">
<title>include/JSystem/JAudio2/JAUBankTable.h</title>
<!-- Node1 -->
<g id="node1" class="node">
<title>Node1</title>
<g id="a_node1"><a xlink:title=" ">
<polygon fill="#999999" stroke="#666666" points="217.5,-261 90.5,-261 90.5,-231 217.5,-231 217.5,-261"/>
<text text-anchor="start" x="98.5" y="-249" font-family="Helvetica,sans-Serif" font-size="10.00">include/JSystem/JAudio2</text>
<text text-anchor="middle" x="154" y="-238" font-family="Helvetica,sans-Serif" font-size="10.00">/JAUBankTable.h</text>
</a>
</g>
</g>
<!-- Node2 -->
<g id="node2" class="node">
<title>Node2</title>
<g id="a_node2"><a xlink:href="JASGadget_8h.html" target="_top" xlink:title=" ">
<polygon fill="white" stroke="#666666" points="179,-195 25,-195 25,-176 179,-176 179,-195"/>
<text text-anchor="middle" x="102" y="-183" font-family="Helvetica,sans-Serif" font-size="10.00">JSystem/JAudio2/JASGadget.h</text>
</a>
</g>
</g>
<!-- Node1&#45;&gt;Node2 -->
<g id="edge1" class="edge">
<title>Node1&#45;&gt;Node2</title>
<path fill="none" stroke="#63b8ff" d="M141.15,-230.54C133.9,-222.39 124.81,-212.16 117.21,-203.61"/>
<polygon fill="#63b8ff" stroke="#63b8ff" points="119.98,-201.46 110.72,-196.31 114.74,-206.11 119.98,-201.46"/>
</g>
<!-- Node6 -->
<g id="node6" class="node">
<title>Node6</title>
<g id="a_node6"><a xlink:href="JSUList_8h.html" target="_top" xlink:title=" ">
<polygon fill="white" stroke="#666666" points="307.5,-140 164.5,-140 164.5,-121 307.5,-121 307.5,-140"/>
<text text-anchor="middle" x="236" y="-128" font-family="Helvetica,sans-Serif" font-size="10.00">JSystem/JSupport/JSUList.h</text>
</a>
</g>
</g>
<!-- Node1&#45;&gt;Node6 -->
<g id="edge5" class="edge">
<title>Node1&#45;&gt;Node6</title>
<path fill="none" stroke="#63b8ff" d="M164.39,-230.63C179.33,-209.93 206.9,-171.78 223.12,-149.32"/>
<polygon fill="#63b8ff" stroke="#63b8ff" points="225.79,-151.61 228.81,-141.46 220.11,-147.51 225.79,-151.61"/>
</g>
<!-- Node3 -->
<g id="node3" class="node">
<title>Node3</title>
<g id="a_node3"><a xlink:href="JUTAssert_8h.html" target="_top" xlink:title=" ">
<polygon fill="white" stroke="#666666" points="146,-140 0,-140 0,-121 146,-121 146,-140"/>
<text text-anchor="middle" x="73" y="-128" font-family="Helvetica,sans-Serif" font-size="10.00">JSystem/JUtility/JUTAssert.h</text>
</a>
</g>
</g>
<!-- Node2&#45;&gt;Node3 -->
<g id="edge2" class="edge">
<title>Node2&#45;&gt;Node3</title>
<path fill="none" stroke="#63b8ff" d="M97.21,-175.75C93.46,-168.88 88.09,-159.08 83.37,-150.45"/>
<polygon fill="#63b8ff" stroke="#63b8ff" points="86.49,-148.86 78.62,-141.77 80.35,-152.22 86.49,-148.86"/>
</g>
<!-- Node4 -->
<g id="node4" class="node">
<title>Node4</title>
<g id="a_node4"><a xlink:href="types_8h.html" target="_top" xlink:title=" ">
<polygon fill="white" stroke="#666666" points="194.5,-85 113.5,-85 113.5,-66 194.5,-66 194.5,-85"/>
<text text-anchor="middle" x="154" y="-73" font-family="Helvetica,sans-Serif" font-size="10.00">dolphin/types.h</text>
</a>
</g>
</g>
<!-- Node3&#45;&gt;Node4 -->
<g id="edge3" class="edge">
<title>Node3&#45;&gt;Node4</title>
<path fill="none" stroke="#63b8ff" d="M86.74,-120.51C98.8,-112.62 116.59,-100.98 130.84,-91.65"/>
<polygon fill="#63b8ff" stroke="#63b8ff" points="132.74,-94.59 139.2,-86.19 128.91,-88.73 132.74,-94.59"/>
</g>
<!-- Node5 -->
<g id="node5" class="node">
<title>Node5</title>
<g id="a_node5"><a xlink:href="stddef_8h.html" target="_top" xlink:title=" ">
<polygon fill="white" stroke="#666666" points="222,-30 86,-30 86,0 222,0 222,-30"/>
<text text-anchor="start" x="94" y="-18" font-family="Helvetica,sans-Serif" font-size="10.00">MSL_C/MSL_Common/Src</text>
<text text-anchor="middle" x="154" y="-7" font-family="Helvetica,sans-Serif" font-size="10.00">/stddef.h</text>
</a>
</g>
</g>
<!-- Node4&#45;&gt;Node5 -->
<g id="edge4" class="edge">
<title>Node4&#45;&gt;Node5</title>
<path fill="none" stroke="#63b8ff" d="M154,-65.87C154,-59.4 154,-50.2 154,-41.45"/>
<polygon fill="#63b8ff" stroke="#63b8ff" points="157.5,-41.63 154,-31.63 150.5,-41.63 157.5,-41.63"/>
</g>
<!-- Node6&#45;&gt;Node4 -->
<g id="edge6" class="edge">
<title>Node6&#45;&gt;Node4</title>
<path fill="none" stroke="#63b8ff" d="M222.09,-120.51C209.76,-112.54 191.53,-100.75 177.03,-91.38"/>
<polygon fill="#63b8ff" stroke="#63b8ff" points="179.27,-88.67 168.98,-86.18 175.47,-94.55 179.27,-88.67"/>
</g>
</g>
</svg>
