<?xml version="1.0" encoding="UTF-8" standalone="no"?>
<!DOCTYPE svg PUBLIC "-//W3C//DTD SVG 1.1//EN"
 "http://www.w3.org/Graphics/SVG/1.1/DTD/svg11.dtd">
<!-- Generated by graphviz version 7.0.5 (20221223.1930)
 -->
<!-- Title: include/JSystem/JAudio2/JAUSectionHeap.h Pages: 1 -->
<!--zoomable 478 -->
<svg id="main" version="1.1" xmlns="http://www.w3.org/2000/svg" xmlns:xlink="http://www.w3.org/1999/xlink" xml:space="preserve" onload="init(evt)">
<style type="text/css"><![CDATA[
.edge:hover path { stroke: red; }
.edge:hover polygon { stroke: red; fill: red; }
]]></style>
<script type="text/javascript"><![CDATA[
var edges = document.getElementsByTagName('g');
if (edges && edges.length) {
  for (var i=0;i<edges.length;i++) {
    if (edges[i].id.substr(0,4)=='edge') {
      edges[i].setAttribute('class','edge');
    }
  }
}
]]></script>
        <defs>
                <circle id="rim" cx="0" cy="0" r="7"/>
                <circle id="rim2" cx="0" cy="0" r="3.5"/>
                <g id="zoomPlus">
                        <use xlink:href="#rim" fill="#404040">
                                <set attributeName="fill" to="#808080" begin="zoomplus.mouseover" end="zoomplus.mouseout"/>
                        </use>
                        <path d="M-4,0h8M0,-4v8" fill="none" stroke="white" stroke-width="1.5" pointer-events="none"/>
                </g>
                <g id="zoomMin">
                        <use xlink:href="#rim" fill="#404040">
                                <set attributeName="fill" to="#808080" begin="zoomminus.mouseover" end="zoomminus.mouseout"/>
                        </use>
                        <path d="M-4,0h8" fill="none" stroke="white" stroke-width="1.5" pointer-events="none"/>
                </g>
                <g id="dirArrow">
                        <path fill="none" stroke="white" stroke-width="1.5" d="M0,-3.0v7 M-2.5,-0.5L0,-3.0L2.5,-0.5"/>
                </g>
               <g id="resetDef">
                       <use xlink:href="#rim2" fill="#404040">
                               <set attributeName="fill" to="#808080" begin="reset.mouseover" end="reset.mouseout"/>
                       </use>
               </g>
        </defs>

<script type="text/javascript">
var viewWidth = 810;
var viewHeight = 478;
var sectionId = 'dynsection-0';
</script>
<script xlink:href="svgpan.js"/>
<svg id="graph" class="graph">
<g id="viewport">
<title>include/JSystem/JAudio2/JAUSectionHeap.h</title>
<!-- Node1 -->
<g id="node1" class="node">
<title>Node1</title>
<g id="a_node1"><a xlink:title=" ">
<polygon fill="#999999" stroke="#666666" points="432.56,-470 305.56,-470 305.56,-440 432.56,-440 432.56,-470"/>
<text text-anchor="start" x="313.56" y="-458" font-family="Helvetica,sans-Serif" font-size="10.00">include/JSystem/JAudio2</text>
<text text-anchor="middle" x="369.06" y="-447" font-family="Helvetica,sans-Serif" font-size="10.00">/JAUSectionHeap.h</text>
</a>
</g>
</g>
<!-- Node2 -->
<g id="node2" class="node">
<title>Node2</title>
<g id="a_node2"><a xlink:href="JAISeqDataMgr_8h.html" target="_top" xlink:title=" ">
<polygon fill="white" stroke="#666666" points="699.56,-404 550.56,-404 550.56,-374 699.56,-374 699.56,-404"/>
<text text-anchor="start" x="558.56" y="-392" font-family="Helvetica,sans-Serif" font-size="10.00">JSystem/JAudio2/JAISeqData</text>
<text text-anchor="middle" x="625.06" y="-381" font-family="Helvetica,sans-Serif" font-size="10.00">Mgr.h</text>
</a>
</g>
</g>
<!-- Node1&#45;&gt;Node2 -->
<g id="edge1" class="edge">
<title>Node1&#45;&gt;Node2</title>
<path fill="none" stroke="#63b8ff" d="M426.83,-439.56C465.25,-429.95 515.89,-417.29 556.37,-407.17"/>
<polygon fill="#63b8ff" stroke="#63b8ff" points="557.18,-410.58 566.03,-404.76 555.48,-403.79 557.18,-410.58"/>
</g>
<!-- Node16 -->
<g id="node16" class="node">
<title>Node16</title>
<g id="a_node16"><a xlink:href="JASGadget_8h.html" target="_top" xlink:title=" ">
<polygon fill="white" stroke="#666666" points="177.06,-338 23.06,-338 23.06,-319 177.06,-319 177.06,-338"/>
<text text-anchor="middle" x="100.06" y="-326" font-family="Helvetica,sans-Serif" font-size="10.00">JSystem/JAudio2/JASGadget.h</text>
</a>
</g>
</g>
<!-- Node1&#45;&gt;Node16 -->
<g id="edge18" class="edge">
<title>Node1&#45;&gt;Node16</title>
<path fill="none" stroke="#63b8ff" d="M305.14,-454.82C211.53,-454.5 44.1,-447.64 6.06,-404 -2.7,-393.95 -1.07,-385.27 6.06,-374 15.49,-359.11 31.39,-349.1 47.47,-342.42"/>
<polygon fill="#63b8ff" stroke="#63b8ff" points="48.42,-345.8 56.57,-339.02 45.98,-339.24 48.42,-345.8"/>
</g>
<!-- Node18 -->
<g id="node18" class="node">
<title>Node18</title>
<g id="a_node18"><a xlink:href="JAUBankTable_8h.html" target="_top" xlink:title=" ">
<polygon fill="white" stroke="#666666" points="185.06,-398.5 15.06,-398.5 15.06,-379.5 185.06,-379.5 185.06,-398.5"/>
<text text-anchor="middle" x="100.06" y="-386.5" font-family="Helvetica,sans-Serif" font-size="10.00">JSystem/JAudio2/JAUBankTable.h</text>
</a>
</g>
</g>
<!-- Node1&#45;&gt;Node18 -->
<g id="edge21" class="edge">
<title>Node1&#45;&gt;Node18</title>
<path fill="none" stroke="#63b8ff" d="M308.36,-439.56C260.18,-428.09 193.69,-412.28 148.91,-401.62"/>
<polygon fill="#63b8ff" stroke="#63b8ff" points="149.74,-398.22 139.21,-399.31 148.12,-405.03 149.74,-398.22"/>
</g>
<!-- Node20 -->
<g id="node20" class="node">
<title>Node20</title>
<g id="a_node20"><a xlink:href="JAUSeqDataBlockMgr_8h.html" target="_top" xlink:title=" ">
<polygon fill="white" stroke="#666666" points="532.56,-404 379.56,-404 379.56,-374 532.56,-374 532.56,-404"/>
<text text-anchor="start" x="387.56" y="-392" font-family="Helvetica,sans-Serif" font-size="10.00">JSystem/JAudio2/JAUSeqData</text>
<text text-anchor="middle" x="456.06" y="-381" font-family="Helvetica,sans-Serif" font-size="10.00">BlockMgr.h</text>
</a>
</g>
</g>
<!-- Node1&#45;&gt;Node20 -->
<g id="edge25" class="edge">
<title>Node1&#45;&gt;Node20</title>
<path fill="none" stroke="#63b8ff" d="M388.37,-439.8C399.89,-431.32 414.73,-420.4 427.58,-410.95"/>
<polygon fill="#63b8ff" stroke="#63b8ff" points="429.31,-414.03 435.29,-405.28 425.16,-408.39 429.31,-414.03"/>
</g>
<!-- Node21 -->
<g id="node21" class="node">
<title>Node21</title>
<g id="a_node21"><a xlink:href="JKRDisposer_8h.html" target="_top" xlink:title=" ">
<polygon fill="white" stroke="#666666" points="361.06,-398.5 203.06,-398.5 203.06,-379.5 361.06,-379.5 361.06,-398.5"/>
<text text-anchor="middle" x="282.06" y="-386.5" font-family="Helvetica,sans-Serif" font-size="10.00">JSystem/JKernel/JKRDisposer.h</text>
</a>
</g>
</g>
<!-- Node1&#45;&gt;Node21 -->
<g id="edge28" class="edge">
<title>Node1&#45;&gt;Node21</title>
<path fill="none" stroke="#63b8ff" d="M349.75,-439.8C335.92,-429.62 317.31,-415.93 303.1,-405.48"/>
<polygon fill="#63b8ff" stroke="#63b8ff" points="305.43,-402.85 295.3,-399.74 301.28,-408.49 305.43,-402.85"/>
</g>
<!-- Node22 -->
<g id="node22" class="node">
<title>Node22</title>
<g id="a_node22"><a xlink:href="bitset_8h.html" target="_top" xlink:title=" ">
<polygon fill="white" stroke="#666666" points="802.06,-398.5 718.06,-398.5 718.06,-379.5 802.06,-379.5 802.06,-398.5"/>
<text text-anchor="middle" x="760.06" y="-386.5" font-family="Helvetica,sans-Serif" font-size="10.00">MSL_C/bitset.h</text>
</a>
</g>
</g>
<!-- Node1&#45;&gt;Node22 -->
<g id="edge30" class="edge">
<title>Node1&#45;&gt;Node22</title>
<path fill="none" stroke="#63b8ff" d="M432.76,-446.98C501.39,-438.88 613.59,-424.04 709.06,-404 712.22,-403.34 715.47,-402.59 718.74,-401.8"/>
<polygon fill="#63b8ff" stroke="#63b8ff" points="719.45,-405.23 728.27,-399.35 717.71,-398.45 719.45,-405.23"/>
</g>
<!-- Node3 -->
<g id="node3" class="node">
<title>Node3</title>
<g id="a_node3"><a xlink:href="JAISound_8h.html" target="_top" xlink:title=" ">
<polygon fill="white" stroke="#666666" points="544.06,-338 398.06,-338 398.06,-319 544.06,-319 544.06,-338"/>
<text text-anchor="middle" x="471.06" y="-326" font-family="Helvetica,sans-Serif" font-size="10.00">JSystem/JAudio2/JAISound.h</text>
</a>
</g>
</g>
<!-- Node2&#45;&gt;Node3 -->
<g id="edge2" class="edge">
<title>Node2&#45;&gt;Node3</title>
<path fill="none" stroke="#63b8ff" d="M586.99,-373.54C561.81,-363.97 529.1,-351.55 504.84,-342.33"/>
<polygon fill="#63b8ff" stroke="#63b8ff" points="506.35,-339.16 495.76,-338.88 503.87,-345.71 506.35,-339.16"/>
</g>
<!-- Node4 -->
<g id="node4" class="node">
<title>Node4</title>
<g id="a_node4"><a xlink:href="JAISoundParams_8h.html" target="_top" xlink:title=" ">
<polygon fill="white" stroke="#666666" points="436.56,-283 297.56,-283 297.56,-253 436.56,-253 436.56,-283"/>
<text text-anchor="start" x="305.56" y="-271" font-family="Helvetica,sans-Serif" font-size="10.00">JSystem/JAudio2/JAISound</text>
<text text-anchor="middle" x="367.06" y="-260" font-family="Helvetica,sans-Serif" font-size="10.00">Params.h</text>
</a>
</g>
</g>
<!-- Node3&#45;&gt;Node4 -->
<g id="edge3" class="edge">
<title>Node3&#45;&gt;Node4</title>
<path fill="none" stroke="#63b8ff" d="M455.27,-318.62C441.33,-310.78 420.51,-299.06 402.6,-288.99"/>
<polygon fill="#63b8ff" stroke="#63b8ff" points="404.48,-286.03 394.05,-284.18 401.05,-292.13 404.48,-286.03"/>
</g>
<!-- Node8 -->
<g id="node8" class="node">
<title>Node8</title>
<g id="a_node8"><a xlink:href="JAIAudible_8h.html" target="_top" xlink:title=" ">
<polygon fill="white" stroke="#666666" points="650.56,-277.5 499.56,-277.5 499.56,-258.5 650.56,-258.5 650.56,-277.5"/>
<text text-anchor="middle" x="575.06" y="-265.5" font-family="Helvetica,sans-Serif" font-size="10.00">JSystem/JAudio2/JAIAudible.h</text>
</a>
</g>
</g>
<!-- Node3&#45;&gt;Node8 -->
<g id="edge7" class="edge">
<title>Node3&#45;&gt;Node8</title>
<path fill="none" stroke="#63b8ff" d="M486.86,-318.62C503.43,-309.29 529.73,-294.5 549.31,-283.49"/>
<polygon fill="#63b8ff" stroke="#63b8ff" points="550.8,-286.66 557.8,-278.71 547.37,-280.56 550.8,-286.66"/>
</g>
<!-- Node15 -->
<g id="node15" class="node">
<title>Node15</title>
<g id="a_node15"><a xlink:href="global_8h.html" target="_top" xlink:title=" ">
<polygon fill="white" stroke="#666666" points="500.06,-211.5 450.06,-211.5 450.06,-192.5 500.06,-192.5 500.06,-211.5"/>
<text text-anchor="middle" x="475.06" y="-199.5" font-family="Helvetica,sans-Serif" font-size="10.00">global.h</text>
</a>
</g>
</g>
<!-- Node3&#45;&gt;Node15 -->
<g id="edge16" class="edge">
<title>Node3&#45;&gt;Node15</title>
<path fill="none" stroke="#63b8ff" d="M471.35,-318.55C471.99,-298.72 473.53,-250.68 474.41,-223.19"/>
<polygon fill="#63b8ff" stroke="#63b8ff" points="477.9,-223.49 474.73,-213.39 470.91,-223.27 477.9,-223.49"/>
</g>
<!-- Node5 -->
<g id="node5" class="node">
<title>Node5</title>
<g id="a_node5"><a xlink:href="JASSoundParams_8h.html" target="_top" xlink:title=" ">
<polygon fill="white" stroke="#666666" points="431.56,-217 288.56,-217 288.56,-187 431.56,-187 431.56,-217"/>
<text text-anchor="start" x="296.56" y="-205" font-family="Helvetica,sans-Serif" font-size="10.00">JSystem/JAudio2/JASSound</text>
<text text-anchor="middle" x="360.06" y="-194" font-family="Helvetica,sans-Serif" font-size="10.00">Params.h</text>
</a>
</g>
</g>
<!-- Node4&#45;&gt;Node5 -->
<g id="edge4" class="edge">
<title>Node4&#45;&gt;Node5</title>
<path fill="none" stroke="#63b8ff" d="M365.51,-252.8C364.73,-245.67 363.76,-236.82 362.86,-228.56"/>
<polygon fill="#63b8ff" stroke="#63b8ff" points="366.34,-228.23 361.78,-218.67 359.38,-228.99 366.34,-228.23"/>
</g>
<!-- Node6 -->
<g id="node6" class="node">
<title>Node6</title>
<g id="a_node6"><a xlink:href="types_8h.html" target="_top" xlink:title=" ">
<polygon fill="white" stroke="#666666" points="400.56,-90.5 319.56,-90.5 319.56,-71.5 400.56,-71.5 400.56,-90.5"/>
<text text-anchor="middle" x="360.06" y="-78.5" font-family="Helvetica,sans-Serif" font-size="10.00">dolphin/types.h</text>
</a>
</g>
</g>
<!-- Node5&#45;&gt;Node6 -->
<g id="edge5" class="edge">
<title>Node5&#45;&gt;Node6</title>
<path fill="none" stroke="#63b8ff" d="M360.06,-186.88C360.06,-165.8 360.06,-126 360.06,-101.95"/>
<polygon fill="#63b8ff" stroke="#63b8ff" points="363.56,-102.22 360.06,-92.22 356.56,-102.22 363.56,-102.22"/>
</g>
<!-- Node7 -->
<g id="node7" class="node">
<title>Node7</title>
<g id="a_node7"><a xlink:href="stddef_8h.html" target="_top" xlink:title=" ">
<polygon fill="white" stroke="#666666" points="428.06,-30 292.06,-30 292.06,0 428.06,0 428.06,-30"/>
<text text-anchor="start" x="300.06" y="-18" font-family="Helvetica,sans-Serif" font-size="10.00">MSL_C/MSL_Common/Src</text>
<text text-anchor="middle" x="360.06" y="-7" font-family="Helvetica,sans-Serif" font-size="10.00">/stddef.h</text>
</a>
</g>
</g>
<!-- Node6&#45;&gt;Node7 -->
<g id="edge6" class="edge">
<title>Node6&#45;&gt;Node7</title>
<path fill="none" stroke="#63b8ff" d="M360.06,-71.1C360.06,-63.41 360.06,-51.92 360.06,-41.42"/>
<polygon fill="#63b8ff" stroke="#63b8ff" points="363.56,-41.75 360.06,-31.75 356.56,-41.75 363.56,-41.75"/>
</g>
<!-- Node9 -->
<g id="node9" class="node">
<title>Node9</title>
<g id="a_node9"><a xlink:href="JGeometry_8h.html" target="_top" xlink:title=" ">
<polygon fill="white" stroke="#666666" points="631.56,-211.5 518.56,-211.5 518.56,-192.5 631.56,-192.5 631.56,-211.5"/>
<text text-anchor="middle" x="575.06" y="-199.5" font-family="Helvetica,sans-Serif" font-size="10.00">JSystem/JGeometry.h</text>
</a>
</g>
</g>
<!-- Node8&#45;&gt;Node9 -->
<g id="edge8" class="edge">
<title>Node8&#45;&gt;Node9</title>
<path fill="none" stroke="#63b8ff" d="M575.06,-258.1C575.06,-249.12 575.06,-234.95 575.06,-223.22"/>
<polygon fill="#63b8ff" stroke="#63b8ff" points="578.56,-223.34 575.06,-213.34 571.56,-223.34 578.56,-223.34"/>
</g>
<!-- Node10 -->
<g id="node10" class="node">
<title>Node10</title>
<g id="a_node10"><a xlink:href="vec_8h.html" target="_top" xlink:title=" ">
<polygon fill="white" stroke="#666666" points="518.06,-151 426.06,-151 426.06,-132 518.06,-132 518.06,-151"/>
<text text-anchor="middle" x="472.06" y="-139" font-family="Helvetica,sans-Serif" font-size="10.00">dolphin/mtx/vec.h</text>
</a>
</g>
</g>
<!-- Node9&#45;&gt;Node10 -->
<g id="edge9" class="edge">
<title>Node9&#45;&gt;Node10</title>
<path fill="none" stroke="#63b8ff" d="M559.42,-192.12C543.08,-182.84 517.2,-168.13 497.83,-157.14"/>
<polygon fill="#63b8ff" stroke="#63b8ff" points="499.59,-154.11 489.17,-152.22 496.14,-160.2 499.59,-154.11"/>
</g>
<!-- Node11 -->
<g id="node11" class="node">
<title>Node11</title>
<g id="a_node11"><a xlink:href="float_8h.html" target="_top" xlink:title=" ">
<polygon fill="white" stroke="#666666" points="614.06,-151 536.06,-151 536.06,-132 614.06,-132 614.06,-151"/>
<text text-anchor="middle" x="575.06" y="-139" font-family="Helvetica,sans-Serif" font-size="10.00">MSL_C/float.h</text>
</a>
</g>
</g>
<!-- Node9&#45;&gt;Node11 -->
<g id="edge11" class="edge">
<title>Node9&#45;&gt;Node11</title>
<path fill="none" stroke="#63b8ff" d="M575.06,-192.37C575.06,-184.5 575.06,-172.6 575.06,-162.39"/>
<polygon fill="#63b8ff" stroke="#63b8ff" points="578.56,-162.68 575.06,-152.68 571.56,-162.68 578.56,-162.68"/>
</g>
<!-- Node14 -->
<g id="node14" class="node">
<title>Node14</title>
<g id="a_node14"><a xlink:href="math_8h.html" target="_top" xlink:title=" ">
<polygon fill="white" stroke="#666666" points="714.06,-151 632.06,-151 632.06,-132 714.06,-132 714.06,-151"/>
<text text-anchor="middle" x="673.06" y="-139" font-family="Helvetica,sans-Serif" font-size="10.00">MSL_C/math.h</text>
</a>
</g>
</g>
<!-- Node9&#45;&gt;Node14 -->
<g id="edge14" class="edge">
<title>Node9&#45;&gt;Node14</title>
<path fill="none" stroke="#63b8ff" d="M589.95,-192.12C605.42,-182.88 629.89,-168.27 648.28,-157.29"/>
<polygon fill="#63b8ff" stroke="#63b8ff" points="649.95,-160.38 656.74,-152.24 646.36,-154.36 649.95,-160.38"/>
</g>
<!-- Node10&#45;&gt;Node6 -->
<g id="edge10" class="edge">
<title>Node10&#45;&gt;Node6</title>
<path fill="none" stroke="#63b8ff" d="M455.05,-131.62C437.04,-122.21 408.36,-107.22 387.21,-96.18"/>
<polygon fill="#63b8ff" stroke="#63b8ff" points="389.06,-93.2 378.57,-91.67 385.82,-99.4 389.06,-93.2"/>
</g>
<!-- Node12 -->
<g id="node12" class="node">
<title>Node12</title>
<g id="a_node12"><a xlink:href="MSL__Common_2Src_2float_8h.html" target="_top" xlink:title=" ">
<polygon fill="white" stroke="#666666" points="692.06,-96 556.06,-96 556.06,-66 692.06,-66 692.06,-96"/>
<text text-anchor="start" x="564.06" y="-84" font-family="Helvetica,sans-Serif" font-size="10.00">MSL_C/MSL_Common/Src</text>
<text text-anchor="middle" x="624.06" y="-73" font-family="Helvetica,sans-Serif" font-size="10.00">/float.h</text>
</a>
</g>
</g>
<!-- Node11&#45;&gt;Node12 -->
<g id="edge12" class="edge">
<title>Node11&#45;&gt;Node12</title>
<path fill="none" stroke="#63b8ff" d="M582.29,-131.87C588.26,-124.74 597.02,-114.28 604.97,-104.79"/>
<polygon fill="#63b8ff" stroke="#63b8ff" points="607.53,-107.19 611.27,-97.27 602.16,-102.69 607.53,-107.19"/>
</g>
<!-- Node13 -->
<g id="node13" class="node">
<title>Node13</title>
<g id="a_node13"><a xlink:href="fdlibm_8h.html" target="_top" xlink:title=" ">
<polygon fill="white" stroke="#666666" points="649.06,-24.5 599.06,-24.5 599.06,-5.5 649.06,-5.5 649.06,-24.5"/>
<text text-anchor="middle" x="624.06" y="-12.5" font-family="Helvetica,sans-Serif" font-size="10.00">fdlibm.h</text>
</a>
</g>
</g>
<!-- Node12&#45;&gt;Node13 -->
<g id="edge13" class="edge">
<title>Node12&#45;&gt;Node13</title>
<path fill="none" stroke="#63b8ff" d="M624.06,-65.8C624.06,-57.09 624.06,-45.81 624.06,-36.18"/>
<polygon fill="#63b8ff" stroke="#63b8ff" points="627.56,-36.36 624.06,-26.36 620.56,-36.36 627.56,-36.36"/>
</g>
<!-- Node14&#45;&gt;Node12 -->
<g id="edge15" class="edge">
<title>Node14&#45;&gt;Node12</title>
<path fill="none" stroke="#63b8ff" d="M665.83,-131.87C659.86,-124.74 651.1,-114.28 643.15,-104.79"/>
<polygon fill="#63b8ff" stroke="#63b8ff" points="645.96,-102.69 636.86,-97.27 640.59,-107.19 645.96,-102.69"/>
</g>
<!-- Node15&#45;&gt;Node6 -->
<g id="edge17" class="edge">
<title>Node15&#45;&gt;Node6</title>
<path fill="none" stroke="#63b8ff" d="M463.88,-192.3C451.83,-182.72 432.32,-166.58 417.06,-151 400.99,-134.58 384.46,-114.11 373.37,-99.74"/>
<polygon fill="#63b8ff" stroke="#63b8ff" points="376.4,-97.94 367.55,-92.1 370.83,-102.18 376.4,-97.94"/>
</g>
<!-- Node17 -->
<g id="node17" class="node">
<title>Node17</title>
<g id="a_node17"><a xlink:href="JUTAssert_8h.html" target="_top" xlink:title=" ">
<polygon fill="white" stroke="#666666" points="210.06,-277.5 64.06,-277.5 64.06,-258.5 210.06,-258.5 210.06,-277.5"/>
<text text-anchor="middle" x="137.06" y="-265.5" font-family="Helvetica,sans-Serif" font-size="10.00">JSystem/JUtility/JUTAssert.h</text>
</a>
</g>
</g>
<!-- Node16&#45;&gt;Node17 -->
<g id="edge19" class="edge">
<title>Node16&#45;&gt;Node17</title>
<path fill="none" stroke="#63b8ff" d="M105.52,-318.87C110.77,-310.57 118.86,-297.78 125.54,-287.22"/>
<polygon fill="#63b8ff" stroke="#63b8ff" points="128.38,-289.27 130.77,-278.95 122.47,-285.53 128.38,-289.27"/>
</g>
<!-- Node17&#45;&gt;Node6 -->
<g id="edge20" class="edge">
<title>Node17&#45;&gt;Node6</title>
<path fill="none" stroke="#63b8ff" d="M142.07,-258.22C155.83,-234.76 196.51,-169.86 246.06,-132 267.76,-115.42 295.8,-103.03 318.64,-94.73"/>
<polygon fill="#63b8ff" stroke="#63b8ff" points="319.67,-98.08 327.96,-91.48 317.37,-91.47 319.67,-98.08"/>
</g>
<!-- Node18&#45;&gt;Node16 -->
<g id="edge22" class="edge">
<title>Node18&#45;&gt;Node16</title>
<path fill="none" stroke="#63b8ff" d="M100.06,-379.37C100.06,-371.5 100.06,-359.6 100.06,-349.39"/>
<polygon fill="#63b8ff" stroke="#63b8ff" points="103.56,-349.68 100.06,-339.68 96.56,-349.68 103.56,-349.68"/>
</g>
<!-- Node19 -->
<g id="node19" class="node">
<title>Node19</title>
<g id="a_node19"><a xlink:href="JSUList_8h.html" target="_top" xlink:title=" ">
<polygon fill="white" stroke="#666666" points="346.56,-338 203.56,-338 203.56,-319 346.56,-319 346.56,-338"/>
<text text-anchor="middle" x="275.06" y="-326" font-family="Helvetica,sans-Serif" font-size="10.00">JSystem/JSupport/JSUList.h</text>
</a>
</g>
</g>
<!-- Node18&#45;&gt;Node19 -->
<g id="edge23" class="edge">
<title>Node18&#45;&gt;Node19</title>
<path fill="none" stroke="#63b8ff" d="M126.64,-379.12C156.19,-369.24 204.15,-353.21 237.52,-342.05"/>
<polygon fill="#63b8ff" stroke="#63b8ff" points="238.42,-345.44 246.8,-338.95 236.2,-338.8 238.42,-345.44"/>
</g>
<!-- Node19&#45;&gt;Node6 -->
<g id="edge24" class="edge">
<title>Node19&#45;&gt;Node6</title>
<path fill="none" stroke="#63b8ff" d="M273.57,-318.6C270.14,-295.87 263.22,-234.12 280.06,-187 292.84,-151.26 322.57,-117.81 341.97,-98.65"/>
<polygon fill="#63b8ff" stroke="#63b8ff" points="344.17,-101.39 348.97,-91.95 339.32,-96.34 344.17,-101.39"/>
</g>
<!-- Node20&#45;&gt;Node3 -->
<g id="edge26" class="edge">
<title>Node20&#45;&gt;Node3</title>
<path fill="none" stroke="#63b8ff" d="M459.77,-373.54C461.66,-366.17 463.98,-357.1 466.03,-349.11"/>
<polygon fill="#63b8ff" stroke="#63b8ff" points="469.37,-350.2 468.46,-339.64 462.59,-348.46 469.37,-350.2"/>
</g>
<!-- Node20&#45;&gt;Node19 -->
<g id="edge27" class="edge">
<title>Node20&#45;&gt;Node19</title>
<path fill="none" stroke="#63b8ff" d="M411.32,-373.54C381.28,-363.83 342.12,-351.17 313.5,-341.92"/>
<polygon fill="#63b8ff" stroke="#63b8ff" points="314.73,-338.64 304.14,-338.9 312.58,-345.3 314.73,-338.64"/>
</g>
<!-- Node21&#45;&gt;Node19 -->
<g id="edge29" class="edge">
<title>Node21&#45;&gt;Node19</title>
<path fill="none" stroke="#63b8ff" d="M281.03,-379.37C280.09,-371.5 278.66,-359.6 277.44,-349.39"/>
<polygon fill="#63b8ff" stroke="#63b8ff" points="280.94,-349.18 276.28,-339.67 273.99,-350.02 280.94,-349.18"/>
</g>
</g>
</svg>
        <g id="navigator" transform="translate(0 0)" fill="#404254">
                <rect fill="#f2f5e9" fill-opacity="0.5" stroke="#606060" stroke-width=".5" x="0" y="0" width="60" height="60"/>
                <use id="zoomplus" xlink:href="#zoomPlus" x="17" y="9" onmousedown="handleZoom(evt,'in')"/>
                <use id="zoomminus" xlink:href="#zoomMin" x="42" y="9" onmousedown="handleZoom(evt,'out')"/>
                <use id="reset" xlink:href="#resetDef" x="30" y="36" onmousedown="handleReset()"/>
                <g id="arrowUp" xlink:href="#dirArrow" transform="translate(30 24)" onmousedown="handlePan(0,-1)">
                  <use xlink:href="#rim" fill="#404040">
                        <set attributeName="fill" to="#808080" begin="arrowUp.mouseover" end="arrowUp.mouseout"/>
                  </use>
                  <path fill="none" stroke="white" stroke-width="1.5" d="M0,-3.0v7 M-2.5,-0.5L0,-3.0L2.5,-0.5"/>
                </g>
                <g id="arrowRight" xlink:href="#dirArrow" transform="rotate(90) translate(36 -43)" onmousedown="handlePan(1,0)">
                  <use xlink:href="#rim" fill="#404040">
                        <set attributeName="fill" to="#808080" begin="arrowRight.mouseover" end="arrowRight.mouseout"/>
                  </use>
                  <path fill="none" stroke="white" stroke-width="1.5" d="M0,-3.0v7 M-2.5,-0.5L0,-3.0L2.5,-0.5"/>
                </g>
                <g id="arrowDown" xlink:href="#dirArrow" transform="rotate(180) translate(-30 -48)" onmousedown="handlePan(0,1)">
                  <use xlink:href="#rim" fill="#404040">
                        <set attributeName="fill" to="#808080" begin="arrowDown.mouseover" end="arrowDown.mouseout"/>
                  </use>
                  <path fill="none" stroke="white" stroke-width="1.5" d="M0,-3.0v7 M-2.5,-0.5L0,-3.0L2.5,-0.5"/>
                </g>
                <g id="arrowLeft" xlink:href="#dirArrow" transform="rotate(270) translate(-36 17)" onmousedown="handlePan(-1,0)">
                  <use xlink:href="#rim" fill="#404040">
                        <set attributeName="fill" to="#808080" begin="arrowLeft.mouseover" end="arrowLeft.mouseout"/>
                  </use>
                  <path fill="none" stroke="white" stroke-width="1.5" d="M0,-3.0v7 M-2.5,-0.5L0,-3.0L2.5,-0.5"/>
                </g>
        </g>
        <svg viewBox="0 0 15 15" width="100%" height="30px" preserveAspectRatio="xMaxYMin meet">
         <g id="arrow_out" transform="scale(0.3 0.3)">
          <a xlink:href="JAUSectionHeap_8h__incl_org.svg" target="_base">
           <rect id="button" ry="5" rx="5" y="6" x="6" height="38" width="38"
                fill="#f2f5e9" fill-opacity="0.5" stroke="#606060" stroke-width="1.0"/>
           <path id="arrow"
             d="M 11.500037,31.436501 C 11.940474,20.09759 22.043105,11.32322 32.158766,21.979434 L 37.068811,17.246167 C 37.068811,17.246167 37.088388,32 37.088388,32 L 22.160133,31.978069 C 22.160133,31.978069 26.997745,27.140456 26.997745,27.140456 C 18.528582,18.264221 13.291696,25.230495 11.500037,31.436501 z"
             style="fill:#404040;"/>
          </a>
         </g>
        </svg>
</svg>
