<?xml version="1.0" encoding="UTF-8" standalone="no"?>
<!DOCTYPE svg PUBLIC "-//W3C//DTD SVG 1.1//EN"
 "http://www.w3.org/Graphics/SVG/1.1/DTD/svg11.dtd">
<!-- Generated by graphviz version 7.0.5 (20221223.1930)
 -->
<!-- Title: libs/JSystem/JAudio2/JAUSeqCollection.cpp Pages: 1 -->
<!--zoomable 247 -->
<svg id="main" version="1.1" xmlns="http://www.w3.org/2000/svg" xmlns:xlink="http://www.w3.org/1999/xlink" xml:space="preserve" onload="init(evt)">
<style type="text/css"><![CDATA[
.edge:hover path { stroke: red; }
.edge:hover polygon { stroke: red; fill: red; }
]]></style>
<script type="text/javascript"><![CDATA[
var edges = document.getElementsByTagName('g');
if (edges && edges.length) {
  for (var i=0;i<edges.length;i++) {
    if (edges[i].id.substr(0,4)=='edge') {
      edges[i].setAttribute('class','edge');
    }
  }
}
]]></script>
        <defs>
                <circle id="rim" cx="0" cy="0" r="7"/>
                <circle id="rim2" cx="0" cy="0" r="3.5"/>
                <g id="zoomPlus">
                        <use xlink:href="#rim" fill="#404040">
                                <set attributeName="fill" to="#808080" begin="zoomplus.mouseover" end="zoomplus.mouseout"/>
                        </use>
                        <path d="M-4,0h8M0,-4v8" fill="none" stroke="white" stroke-width="1.5" pointer-events="none"/>
                </g>
                <g id="zoomMin">
                        <use xlink:href="#rim" fill="#404040">
                                <set attributeName="fill" to="#808080" begin="zoomminus.mouseover" end="zoomminus.mouseout"/>
                        </use>
                        <path d="M-4,0h8" fill="none" stroke="white" stroke-width="1.5" pointer-events="none"/>
                </g>
                <g id="dirArrow">
                        <path fill="none" stroke="white" stroke-width="1.5" d="M0,-3.0v7 M-2.5,-0.5L0,-3.0L2.5,-0.5"/>
                </g>
               <g id="resetDef">
                       <use xlink:href="#rim2" fill="#404040">
                               <set attributeName="fill" to="#808080" begin="reset.mouseover" end="reset.mouseout"/>
                       </use>
               </g>
        </defs>

<script type="text/javascript">
var viewWidth = 1965;
var viewHeight = 247;
var sectionId = 'dynsection-0';
</script>
<script xlink:href="svgpan.js"/>
<svg id="graph" class="graph">
<g id="viewport">
<title>libs/JSystem/JAudio2/JAUSeqCollection.cpp</title>
<!-- Node1 -->
<g id="node1" class="node">
<title>Node1</title>
<g id="a_node1"><a xlink:title=" ">
<polygon fill="#999999" stroke="#666666" points="969,-239 852,-239 852,-209 969,-209 969,-239"/>
<text text-anchor="start" x="860" y="-227" font-family="Helvetica,sans-Serif" font-size="10.00">libs/JSystem/JAudio2</text>
<text text-anchor="middle" x="910.5" y="-216" font-family="Helvetica,sans-Serif" font-size="10.00">/JAUSeqCollection.cpp</text>
</a>
</g>
</g>
<!-- Node2 -->
<g id="node2" class="node">
<title>Node2</title>
<g id="a_node2"><a xlink:href="JAUSeqCollection_8h.html" target="_top" xlink:title=" ">
<polygon fill="white" stroke="#666666" points="183,-156.5 0,-156.5 0,-137.5 183,-137.5 183,-156.5"/>
<text text-anchor="middle" x="91.5" y="-144.5" font-family="Helvetica,sans-Serif" font-size="10.00">JSystem/JAudio2/JAUSeqCollection.h</text>
</a>
</g>
</g>
<!-- Node1&#45;&gt;Node2 -->
<g id="edge1" class="edge">
<title>Node1&#45;&gt;Node2</title>
<path fill="none" stroke="#63b8ff" d="M851.95,-222.35C729.02,-220.22 435.36,-211.22 192.5,-173 172.64,-169.88 150.97,-164.74 132.81,-159.94"/>
<polygon fill="#63b8ff" stroke="#63b8ff" points="133.74,-156.57 123.18,-157.33 131.91,-163.33 133.74,-156.57"/>
</g>
<!-- Node5 -->
<g id="node5" class="node">
<title>Node5</title>
<g id="a_node5"><a xlink:href="dol2asm_8h.html" target="_top" xlink:title=" ">
<polygon fill="white" stroke="#666666" points="262,-156.5 201,-156.5 201,-137.5 262,-137.5 262,-156.5"/>
<text text-anchor="middle" x="231.5" y="-144.5" font-family="Helvetica,sans-Serif" font-size="10.00">dol2asm.h</text>
</a>
</g>
</g>
<!-- Node1&#45;&gt;Node5 -->
<g id="edge4" class="edge">
<title>Node1&#45;&gt;Node5</title>
<path fill="none" stroke="#63b8ff" d="M851.7,-221.97C714.8,-218.98 378.31,-208.2 271.5,-173 264.62,-170.73 257.73,-167.05 251.64,-163.2"/>
<polygon fill="#63b8ff" stroke="#63b8ff" points="253.79,-160.43 243.57,-157.64 249.82,-166.19 253.79,-160.43"/>
</g>
<!-- Node6 -->
<g id="node6" class="node">
<title>Node6</title>
<g id="a_node6"><a xlink:title=" ">
<polygon fill="#e0e0e0" stroke="#999999" points="429,-167.5 280,-167.5 280,-126.5 429,-126.5 429,-167.5"/>
<text text-anchor="start" x="288" y="-155.5" font-family="Helvetica,sans-Serif" font-size="10.00">asm/JSystem/JAudio2</text>
<text text-anchor="start" x="288" y="-144.5" font-family="Helvetica,sans-Serif" font-size="10.00">/JAUSeqCollection/_</text>
<text text-anchor="middle" x="354.5" y="-133.5" font-family="Helvetica,sans-Serif" font-size="10.00">_ct__16JAUSeqCollectionFv.s</text>
</a>
</g>
</g>
<!-- Node1&#45;&gt;Node6 -->
<g id="edge5" class="edge">
<title>Node1&#45;&gt;Node6</title>
<path fill="none" stroke="#63b8ff" d="M851.85,-220.25C762.08,-215.28 585.56,-202.41 438.5,-173 435.1,-172.32 431.65,-171.56 428.17,-170.75"/>
<polygon fill="#63b8ff" stroke="#63b8ff" points="429.04,-167.36 418.49,-168.34 427.35,-174.15 429.04,-167.36"/>
</g>
<!-- Node7 -->
<g id="node7" class="node">
<title>Node7</title>
<g id="a_node7"><a xlink:title=" ">
<polygon fill="#e0e0e0" stroke="#999999" points="596,-167.5 447,-167.5 447,-126.5 596,-126.5 596,-167.5"/>
<text text-anchor="start" x="455" y="-155.5" font-family="Helvetica,sans-Serif" font-size="10.00">asm/JSystem/JAudio2</text>
<text text-anchor="start" x="455" y="-144.5" font-family="Helvetica,sans-Serif" font-size="10.00">/JAUSeqCollection/init</text>
<text text-anchor="middle" x="521.5" y="-133.5" font-family="Helvetica,sans-Serif" font-size="10.00">__16JAUSeqCollectionFPCv.s</text>
</a>
</g>
</g>
<!-- Node1&#45;&gt;Node7 -->
<g id="edge6" class="edge">
<title>Node1&#45;&gt;Node7</title>
<path fill="none" stroke="#63b8ff" d="M851.6,-215.6C789.85,-207.32 690.22,-192.47 605.5,-173 602.54,-172.32 599.54,-171.6 596.51,-170.84"/>
<polygon fill="#63b8ff" stroke="#63b8ff" points="597.51,-167.48 586.95,-168.34 595.74,-174.25 597.51,-167.48"/>
</g>
<!-- Node8 -->
<g id="node8" class="node">
<title>Node8</title>
<g id="a_node8"><a xlink:title=" ">
<polygon fill="#e0e0e0" stroke="#999999" points="791,-173 614,-173 614,-121 791,-121 791,-173"/>
<text text-anchor="start" x="622" y="-161" font-family="Helvetica,sans-Serif" font-size="10.00">asm/JSystem/JAudio2</text>
<text text-anchor="start" x="622" y="-150" font-family="Helvetica,sans-Serif" font-size="10.00">/JAUSeqCollection/getSeqData</text>
<text text-anchor="start" x="622" y="-139" font-family="Helvetica,sans-Serif" font-size="10.00">__16JAUSeqCollectionFiiP10JAISeq</text>
<text text-anchor="middle" x="702.5" y="-128" font-family="Helvetica,sans-Serif" font-size="10.00">Data.s</text>
</a>
</g>
</g>
<!-- Node1&#45;&gt;Node8 -->
<g id="edge7" class="edge">
<title>Node1&#45;&gt;Node8</title>
<path fill="none" stroke="#63b8ff" d="M870.4,-208.54C845.79,-199.67 813.4,-187.99 783.64,-177.26"/>
<polygon fill="#63b8ff" stroke="#63b8ff" points="784.83,-173.97 774.23,-173.87 782.45,-180.55 784.83,-173.97"/>
</g>
<!-- Node9 -->
<g id="node9" class="node">
<title>Node9</title>
<g id="a_node9"><a xlink:title=" ">
<polygon fill="#e0e0e0" stroke="#999999" points="1012,-173 809,-173 809,-121 1012,-121 1012,-173"/>
<text text-anchor="start" x="817" y="-161" font-family="Helvetica,sans-Serif" font-size="10.00">asm/JSystem/JAudio2</text>
<text text-anchor="start" x="817" y="-150" font-family="Helvetica,sans-Serif" font-size="10.00">/JAUSeqCollection/getSeqData</text>
<text text-anchor="start" x="817" y="-139" font-family="Helvetica,sans-Serif" font-size="10.00">Region__16JAUSeqCollectionFP16JAISeq</text>
<text text-anchor="middle" x="910.5" y="-128" font-family="Helvetica,sans-Serif" font-size="10.00">DataRegion.s</text>
</a>
</g>
</g>
<!-- Node1&#45;&gt;Node9 -->
<g id="edge8" class="edge">
<title>Node1&#45;&gt;Node9</title>
<path fill="none" stroke="#63b8ff" d="M910.5,-208.54C910.5,-201.69 910.5,-193.17 910.5,-184.7"/>
<polygon fill="#63b8ff" stroke="#63b8ff" points="914,-184.87 910.5,-174.87 907,-184.87 914,-184.87"/>
</g>
<!-- Node10 -->
<g id="node10" class="node">
<title>Node10</title>
<g id="a_node10"><a xlink:title=" ">
<polygon fill="#e0e0e0" stroke="#999999" points="1155,-173 1030,-173 1030,-121 1155,-121 1155,-173"/>
<text text-anchor="start" x="1038" y="-161" font-family="Helvetica,sans-Serif" font-size="10.00">asm/JSystem/JAudio2</text>
<text text-anchor="start" x="1038" y="-150" font-family="Helvetica,sans-Serif" font-size="10.00">/JAUSeqCollection/_</text>
<text text-anchor="start" x="1038" y="-139" font-family="Helvetica,sans-Serif" font-size="10.00">_ct__27JAUSeqDataMgr</text>
<text text-anchor="middle" x="1092.5" y="-128" font-family="Helvetica,sans-Serif" font-size="10.00">_SeqCollectionFv.s</text>
</a>
</g>
</g>
<!-- Node1&#45;&gt;Node10 -->
<g id="edge9" class="edge">
<title>Node1&#45;&gt;Node10</title>
<path fill="none" stroke="#63b8ff" d="M945.59,-208.54C966.84,-199.78 994.72,-188.3 1020.48,-177.68"/>
<polygon fill="#63b8ff" stroke="#63b8ff" points="1021.67,-180.98 1029.58,-173.93 1019,-174.5 1021.67,-180.98"/>
</g>
<!-- Node11 -->
<g id="node11" class="node">
<title>Node11</title>
<g id="a_node11"><a xlink:title=" ">
<polygon fill="#e0e0e0" stroke="#999999" points="1370,-173 1173,-173 1173,-121 1370,-121 1370,-173"/>
<text text-anchor="start" x="1181" y="-161" font-family="Helvetica,sans-Serif" font-size="10.00">asm/JSystem/JAudio2</text>
<text text-anchor="start" x="1181" y="-150" font-family="Helvetica,sans-Serif" font-size="10.00">/JAUSeqCollection/setSeqData</text>
<text text-anchor="start" x="1181" y="-139" font-family="Helvetica,sans-Serif" font-size="10.00">User__27JAUSeqDataMgr_SeqCollection</text>
<text text-anchor="middle" x="1271.5" y="-128" font-family="Helvetica,sans-Serif" font-size="10.00">FP14JAISeqDataUser.s</text>
</a>
</g>
</g>
<!-- Node1&#45;&gt;Node11 -->
<g id="edge10" class="edge">
<title>Node1&#45;&gt;Node11</title>
<path fill="none" stroke="#63b8ff" d="M969.39,-212.02C1018.43,-202.73 1090.38,-188.79 1161.73,-173.57"/>
<polygon fill="#63b8ff" stroke="#63b8ff" points="1162.19,-177.05 1171.23,-171.53 1160.72,-170.21 1162.19,-177.05"/>
</g>
<!-- Node12 -->
<g id="node12" class="node">
<title>Node12</title>
<g id="a_node12"><a xlink:title=" ">
<polygon fill="#e0e0e0" stroke="#999999" points="1603,-167.5 1388,-167.5 1388,-126.5 1603,-126.5 1603,-167.5"/>
<text text-anchor="start" x="1396" y="-155.5" font-family="Helvetica,sans-Serif" font-size="10.00">asm/JSystem/JAudio2</text>
<text text-anchor="start" x="1396" y="-144.5" font-family="Helvetica,sans-Serif" font-size="10.00">/JAUSeqCollection/releaseSeq</text>
<text text-anchor="middle" x="1495.5" y="-133.5" font-family="Helvetica,sans-Serif" font-size="10.00">Data__27JAUSeqDataMgr_SeqCollectionFv.s</text>
</a>
</g>
</g>
<!-- Node1&#45;&gt;Node12 -->
<g id="edge11" class="edge">
<title>Node1&#45;&gt;Node12</title>
<path fill="none" stroke="#63b8ff" d="M969.26,-218.75C1058.35,-211.85 1232.76,-196.57 1379.5,-173 1385.08,-172.1 1390.79,-171.11 1396.55,-170.06"/>
<polygon fill="#63b8ff" stroke="#63b8ff" points="1396.99,-173.54 1406.16,-168.24 1395.68,-166.66 1396.99,-173.54"/>
</g>
<!-- Node13 -->
<g id="node13" class="node">
<title>Node13</title>
<g id="a_node13"><a xlink:title=" ">
<polygon fill="#e0e0e0" stroke="#999999" points="1814,-173 1621,-173 1621,-121 1814,-121 1814,-173"/>
<text text-anchor="start" x="1629" y="-161" font-family="Helvetica,sans-Serif" font-size="10.00">asm/JSystem/JAudio2</text>
<text text-anchor="start" x="1629" y="-150" font-family="Helvetica,sans-Serif" font-size="10.00">/JAUSeqCollection/getSeqData</text>
<text text-anchor="start" x="1629" y="-139" font-family="Helvetica,sans-Serif" font-size="10.00">__27JAUSeqDataMgr_SeqCollectionF10</text>
<text text-anchor="middle" x="1717.5" y="-128" font-family="Helvetica,sans-Serif" font-size="10.00">JAISoundIDP10JAISeqData.s</text>
</a>
</g>
</g>
<!-- Node1&#45;&gt;Node13 -->
<g id="edge12" class="edge">
<title>Node1&#45;&gt;Node13</title>
<path fill="none" stroke="#63b8ff" d="M969.1,-222.04C1088.21,-219.39 1367.18,-209.66 1609.5,-173.36"/>
<polygon fill="#63b8ff" stroke="#63b8ff" points="1609.78,-176.86 1619.15,-171.89 1608.73,-169.94 1609.78,-176.86"/>
</g>
<!-- Node14 -->
<g id="node14" class="node">
<title>Node14</title>
<g id="a_node14"><a xlink:title=" ">
<polygon fill="#e0e0e0" stroke="#999999" points="1957,-173 1832,-173 1832,-121 1957,-121 1957,-173"/>
<text text-anchor="start" x="1840" y="-161" font-family="Helvetica,sans-Serif" font-size="10.00">asm/JSystem/JAudio2</text>
<text text-anchor="start" x="1840" y="-150" font-family="Helvetica,sans-Serif" font-size="10.00">/JAUSeqCollection/_</text>
<text text-anchor="start" x="1840" y="-139" font-family="Helvetica,sans-Serif" font-size="10.00">_dt__27JAUSeqDataMgr</text>
<text text-anchor="middle" x="1894.5" y="-128" font-family="Helvetica,sans-Serif" font-size="10.00">_SeqCollectionFv.s</text>
</a>
</g>
</g>
<!-- Node1&#45;&gt;Node14 -->
<g id="edge13" class="edge">
<title>Node1&#45;&gt;Node14</title>
<path fill="none" stroke="#63b8ff" d="M969.37,-221.95C1140.72,-218.57 1638.09,-206.28 1820.61,-173.27"/>
<polygon fill="#63b8ff" stroke="#63b8ff" points="1821,-176.76 1830.17,-171.45 1819.69,-169.88 1821,-176.76"/>
</g>
<!-- Node3 -->
<g id="node3" class="node">
<title>Node3</title>
<g id="a_node3"><a xlink:href="types_8h.html" target="_top" xlink:title=" ">
<polygon fill="white" stroke="#666666" points="132,-85 51,-85 51,-66 132,-66 132,-85"/>
<text text-anchor="middle" x="91.5" y="-73" font-family="Helvetica,sans-Serif" font-size="10.00">dolphin/types.h</text>
</a>
</g>
</g>
<!-- Node2&#45;&gt;Node3 -->
<g id="edge2" class="edge">
<title>Node2&#45;&gt;Node3</title>
<path fill="none" stroke="#63b8ff" d="M91.5,-137.2C91.5,-127.12 91.5,-110.29 91.5,-96.9"/>
<polygon fill="#63b8ff" stroke="#63b8ff" points="95,-96.96 91.5,-86.96 88,-96.96 95,-96.96"/>
</g>
<!-- Node4 -->
<g id="node4" class="node">
<title>Node4</title>
<g id="a_node4"><a xlink:href="stddef_8h.html" target="_top" xlink:title=" ">
<polygon fill="white" stroke="#666666" points="159.5,-30 23.5,-30 23.5,0 159.5,0 159.5,-30"/>
<text text-anchor="start" x="31.5" y="-18" font-family="Helvetica,sans-Serif" font-size="10.00">MSL_C/MSL_Common/Src</text>
<text text-anchor="middle" x="91.5" y="-7" font-family="Helvetica,sans-Serif" font-size="10.00">/stddef.h</text>
</a>
</g>
</g>
<!-- Node3&#45;&gt;Node4 -->
<g id="edge3" class="edge">
<title>Node3&#45;&gt;Node4</title>
<path fill="none" stroke="#63b8ff" d="M91.5,-65.87C91.5,-59.4 91.5,-50.2 91.5,-41.45"/>
<polygon fill="#63b8ff" stroke="#63b8ff" points="95,-41.63 91.5,-31.63 88,-41.63 95,-41.63"/>
</g>
</g>
</svg>
        <g id="navigator" transform="translate(0 0)" fill="#404254">
                <rect fill="#f2f5e9" fill-opacity="0.5" stroke="#606060" stroke-width=".5" x="0" y="0" width="60" height="60"/>
                <use id="zoomplus" xlink:href="#zoomPlus" x="17" y="9" onmousedown="handleZoom(evt,'in')"/>
                <use id="zoomminus" xlink:href="#zoomMin" x="42" y="9" onmousedown="handleZoom(evt,'out')"/>
                <use id="reset" xlink:href="#resetDef" x="30" y="36" onmousedown="handleReset()"/>
                <g id="arrowUp" xlink:href="#dirArrow" transform="translate(30 24)" onmousedown="handlePan(0,-1)">
                  <use xlink:href="#rim" fill="#404040">
                        <set attributeName="fill" to="#808080" begin="arrowUp.mouseover" end="arrowUp.mouseout"/>
                  </use>
                  <path fill="none" stroke="white" stroke-width="1.5" d="M0,-3.0v7 M-2.5,-0.5L0,-3.0L2.5,-0.5"/>
                </g>
                <g id="arrowRight" xlink:href="#dirArrow" transform="rotate(90) translate(36 -43)" onmousedown="handlePan(1,0)">
                  <use xlink:href="#rim" fill="#404040">
                        <set attributeName="fill" to="#808080" begin="arrowRight.mouseover" end="arrowRight.mouseout"/>
                  </use>
                  <path fill="none" stroke="white" stroke-width="1.5" d="M0,-3.0v7 M-2.5,-0.5L0,-3.0L2.5,-0.5"/>
                </g>
                <g id="arrowDown" xlink:href="#dirArrow" transform="rotate(180) translate(-30 -48)" onmousedown="handlePan(0,1)">
                  <use xlink:href="#rim" fill="#404040">
                        <set attributeName="fill" to="#808080" begin="arrowDown.mouseover" end="arrowDown.mouseout"/>
                  </use>
                  <path fill="none" stroke="white" stroke-width="1.5" d="M0,-3.0v7 M-2.5,-0.5L0,-3.0L2.5,-0.5"/>
                </g>
                <g id="arrowLeft" xlink:href="#dirArrow" transform="rotate(270) translate(-36 17)" onmousedown="handlePan(-1,0)">
                  <use xlink:href="#rim" fill="#404040">
                        <set attributeName="fill" to="#808080" begin="arrowLeft.mouseover" end="arrowLeft.mouseout"/>
                  </use>
                  <path fill="none" stroke="white" stroke-width="1.5" d="M0,-3.0v7 M-2.5,-0.5L0,-3.0L2.5,-0.5"/>
                </g>
        </g>
        <svg viewBox="0 0 15 15" width="100%" height="30px" preserveAspectRatio="xMaxYMin meet">
         <g id="arrow_out" transform="scale(0.3 0.3)">
          <a xlink:href="JAUSeqCollection_8cpp__incl_org.svg" target="_base">
           <rect id="button" ry="5" rx="5" y="6" x="6" height="38" width="38"
                fill="#f2f5e9" fill-opacity="0.5" stroke="#606060" stroke-width="1.0"/>
           <path id="arrow"
             d="M 11.500037,31.436501 C 11.940474,20.09759 22.043105,11.32322 32.158766,21.979434 L 37.068811,17.246167 C 37.068811,17.246167 37.088388,32 37.088388,32 L 22.160133,31.978069 C 22.160133,31.978069 26.997745,27.140456 26.997745,27.140456 C 18.528582,18.264221 13.291696,25.230495 11.500037,31.436501 z"
             style="fill:#404040;"/>
          </a>
         </g>
        </svg>
</svg>
