<?xml version="1.0" encoding="UTF-8" standalone="no"?>
<!DOCTYPE svg PUBLIC "-//W3C//DTD SVG 1.1//EN"
 "http://www.w3.org/Graphics/SVG/1.1/DTD/svg11.dtd">
<!-- Generated by graphviz version 7.0.5 (20221223.1930)
 -->
<!-- Title: include/JSystem/JAudio2/JAUSectionHeap.h Pages: 1 -->
<svg width="266pt" height="104pt"
 viewBox="0.00 0.00 266.00 104.00" xmlns="http://www.w3.org/2000/svg" xmlns:xlink="http://www.w3.org/1999/xlink">
<g id="graph0" class="graph" transform="scale(1 1) rotate(0) translate(4 100)">
<title>include/JSystem/JAudio2/JAUSectionHeap.h</title>
<!-- Node1 -->
<g id="node1" class="node">
<title>Node1</title>
<g id="a_node1"><a xlink:title=" ">
<polygon fill="#999999" stroke="#666666" points="196,-96 69,-96 69,-66 196,-66 196,-96"/>
<text text-anchor="start" x="77" y="-84" font-family="Helvetica,sans-Serif" font-size="10.00">include/JSystem/JAudio2</text>
<text text-anchor="middle" x="132.5" y="-73" font-family="Helvetica,sans-Serif" font-size="10.00">/JAUSectionHeap.h</text>
</a>
</g>
</g>
<!-- Node2 -->
<g id="node2" class="node">
<title>Node2</title>
<g id="a_node2"><a xlink:href="JAUAudioArcLoader_8cpp.html" target="_top" xlink:title=" ">
<polygon fill="white" stroke="#666666" points="127,-30 0,-30 0,0 127,0 127,-30"/>
<text text-anchor="start" x="8" y="-18" font-family="Helvetica,sans-Serif" font-size="10.00">libs/JSystem/JAudio2</text>
<text text-anchor="middle" x="63.5" y="-7" font-family="Helvetica,sans-Serif" font-size="10.00">/JAUAudioArcLoader.cpp</text>
</a>
</g>
</g>
<!-- Node1&#45;&gt;Node2 -->
<g id="edge1" class="edge">
<title>Node1&#45;&gt;Node2</title>
<path fill="none" stroke="#63b8ff" d="M108.88,-58.09C98.91,-48.85 87.61,-38.36 78.77,-30.16"/>
<polygon fill="#63b8ff" stroke="#63b8ff" points="106.37,-60.53 116.08,-64.77 111.13,-55.4 106.37,-60.53"/>
</g>
<!-- Node3 -->
<g id="node3" class="node">
<title>Node3</title>
<g id="a_node3"><a xlink:href="JAUSectionHeap_8cpp.html" target="_top" xlink:title=" ">
<polygon fill="white" stroke="#666666" points="258,-30 145,-30 145,0 258,0 258,-30"/>
<text text-anchor="start" x="153" y="-18" font-family="Helvetica,sans-Serif" font-size="10.00">libs/JSystem/JAudio2</text>
<text text-anchor="middle" x="201.5" y="-7" font-family="Helvetica,sans-Serif" font-size="10.00">/JAUSectionHeap.cpp</text>
</a>
</g>
</g>
<!-- Node1&#45;&gt;Node3 -->
<g id="edge2" class="edge">
<title>Node1&#45;&gt;Node3</title>
<path fill="none" stroke="#63b8ff" d="M156.12,-58.09C166.09,-48.85 177.39,-38.36 186.23,-30.16"/>
<polygon fill="#63b8ff" stroke="#63b8ff" points="153.87,-55.4 148.92,-64.77 158.63,-60.53 153.87,-55.4"/>
</g>
</g>
</svg>
