<?xml version="1.0" encoding="UTF-8" standalone="no"?>
<!DOCTYPE svg PUBLIC "-//W3C//DTD SVG 1.1//EN"
 "http://www.w3.org/Graphics/SVG/1.1/DTD/svg11.dtd">
<!-- Generated by graphviz version 7.0.5 (20221223.1930)
 -->
<!-- Title: include/JSystem/JFramework/JFWDisplay.h Pages: 1 -->
<!--zoomable 225 -->
<svg id="main" version="1.1" xmlns="http://www.w3.org/2000/svg" xmlns:xlink="http://www.w3.org/1999/xlink" xml:space="preserve" onload="init(evt)">
<style type="text/css"><![CDATA[
.edge:hover path { stroke: red; }
.edge:hover polygon { stroke: red; fill: red; }
]]></style>
<script type="text/javascript"><![CDATA[
var edges = document.getElementsByTagName('g');
if (edges && edges.length) {
  for (var i=0;i<edges.length;i++) {
    if (edges[i].id.substr(0,4)=='edge') {
      edges[i].setAttribute('class','edge');
    }
  }
}
]]></script>
        <defs>
                <circle id="rim" cx="0" cy="0" r="7"/>
                <circle id="rim2" cx="0" cy="0" r="3.5"/>
                <g id="zoomPlus">
                        <use xlink:href="#rim" fill="#404040">
                                <set attributeName="fill" to="#808080" begin="zoomplus.mouseover" end="zoomplus.mouseout"/>
                        </use>
                        <path d="M-4,0h8M0,-4v8" fill="none" stroke="white" stroke-width="1.5" pointer-events="none"/>
                </g>
                <g id="zoomMin">
                        <use xlink:href="#rim" fill="#404040">
                                <set attributeName="fill" to="#808080" begin="zoomminus.mouseover" end="zoomminus.mouseout"/>
                        </use>
                        <path d="M-4,0h8" fill="none" stroke="white" stroke-width="1.5" pointer-events="none"/>
                </g>
                <g id="dirArrow">
                        <path fill="none" stroke="white" stroke-width="1.5" d="M0,-3.0v7 M-2.5,-0.5L0,-3.0L2.5,-0.5"/>
                </g>
               <g id="resetDef">
                       <use xlink:href="#rim2" fill="#404040">
                               <set attributeName="fill" to="#808080" begin="reset.mouseover" end="reset.mouseout"/>
                       </use>
               </g>
        </defs>

<script type="text/javascript">
var viewWidth = 3371;
var viewHeight = 225;
var sectionId = 'dynsection-1';
</script>
<script xlink:href="svgpan.js"/>
<svg id="graph" class="graph">
<g id="viewport">
<title>include/JSystem/JFramework/JFWDisplay.h</title>
<!-- Node1 -->
<g id="node1" class="node">
<title>Node1</title>
<g id="a_node1"><a xlink:title=" ">
<polygon fill="#999999" stroke="#666666" points="1697,-217 1551,-217 1551,-187 1697,-187 1697,-217"/>
<text text-anchor="start" x="1559" y="-205" font-family="Helvetica,sans-Serif" font-size="10.00">include/JSystem/JFramework</text>
<text text-anchor="middle" x="1624" y="-194" font-family="Helvetica,sans-Serif" font-size="10.00">/JFWDisplay.h</text>
</a>
</g>
</g>
<!-- Node2 -->
<g id="node2" class="node">
<title>Node2</title>
<g id="a_node2"><a xlink:href="m__Do__graphic_8h.html" target="_top" xlink:title=" ">
<polygon fill="white" stroke="#666666" points="1619.5,-145.5 1470.5,-145.5 1470.5,-126.5 1619.5,-126.5 1619.5,-145.5"/>
<text text-anchor="middle" x="1545" y="-133.5" font-family="Helvetica,sans-Serif" font-size="10.00">include/m_Do/m_Do_graphic.h</text>
</a>
</g>
</g>
<!-- Node1&#45;&gt;Node2 -->
<g id="edge1" class="edge">
<title>Node1&#45;&gt;Node2</title>
<path fill="none" stroke="#63b8ff" d="M1597.59,-179.6C1583.38,-168.1 1566.63,-154.52 1555.92,-145.84"/>
<polygon fill="#63b8ff" stroke="#63b8ff" points="1595.32,-182.27 1605.29,-185.84 1599.72,-176.83 1595.32,-182.27"/>
</g>
<!-- Node28 -->
<g id="node28" class="node">
<title>Node28</title>
<g id="a_node28"><a xlink:href="JFWDisplay_8cpp.html" target="_top" xlink:title=" ">
<polygon fill="white" stroke="#666666" points="1768,-151 1638,-151 1638,-121 1768,-121 1768,-151"/>
<text text-anchor="start" x="1646" y="-139" font-family="Helvetica,sans-Serif" font-size="10.00">libs/JSystem/JFramework</text>
<text text-anchor="middle" x="1703" y="-128" font-family="Helvetica,sans-Serif" font-size="10.00">/JFWDisplay.cpp</text>
</a>
</g>
</g>
<!-- Node1&#45;&gt;Node28 -->
<g id="edge28" class="edge">
<title>Node1&#45;&gt;Node28</title>
<path fill="none" stroke="#63b8ff" d="M1650.29,-179.7C1661.78,-170.4 1674.94,-159.73 1685.24,-151.39"/>
<polygon fill="#63b8ff" stroke="#63b8ff" points="1648.28,-176.83 1642.71,-185.84 1652.68,-182.27 1648.28,-176.83"/>
</g>
<!-- Node3 -->
<g id="node3" class="node">
<title>Node3</title>
<g id="a_node3"><a xlink:href="d__menu__window_8h.html" target="_top" xlink:title=" ">
<polygon fill="white" stroke="#666666" points="224,-85 104,-85 104,-55 224,-55 224,-85"/>
<text text-anchor="start" x="112" y="-73" font-family="Helvetica,sans-Serif" font-size="10.00">include/d/menu/d_menu</text>
<text text-anchor="middle" x="164" y="-62" font-family="Helvetica,sans-Serif" font-size="10.00">_window.h</text>
</a>
</g>
</g>
<!-- Node2&#45;&gt;Node3 -->
<g id="edge2" class="edge">
<title>Node2&#45;&gt;Node3</title>
<path fill="none" stroke="#63b8ff" d="M1458.91,-133.54C1206.56,-128.98 471.5,-113.55 233,-85 230.21,-84.67 227.36,-84.28 224.49,-83.85"/>
<polygon fill="#63b8ff" stroke="#63b8ff" points="1458.62,-137.04 1468.69,-133.72 1458.75,-130.04 1458.62,-137.04"/>
</g>
<!-- Node4 -->
<g id="node4" class="node">
<title>Node4</title>
<g id="a_node4"><a xlink:href="d__menu__option_8cpp.html" target="_top" xlink:title=" ">
<polygon fill="white" stroke="#666666" points="152,-19 0,-19 0,0 152,0 152,-19"/>
<text text-anchor="middle" x="76" y="-7" font-family="Helvetica,sans-Serif" font-size="10.00">src/d/menu/d_menu_option.cpp</text>
</a>
</g>
</g>
<!-- Node2&#45;&gt;Node4 -->
<g id="edge17" class="edge">
<title>Node2&#45;&gt;Node4</title>
<path fill="none" stroke="#63b8ff" d="M1458.87,-134.86C1154.99,-133.99 148.27,-127.88 95,-85 75.14,-69.01 74.34,-35.41 75.21,-19.38"/>
<polygon fill="#63b8ff" stroke="#63b8ff" points="1458.72,-138.36 1468.73,-134.88 1458.74,-131.36 1458.72,-138.36"/>
</g>
<!-- Node6 -->
<g id="node6" class="node">
<title>Node6</title>
<g id="a_node6"><a xlink:href="d__com__inf__game_8cpp.html" target="_top" xlink:title=" ">
<polygon fill="white" stroke="#666666" points="350,-85 242,-85 242,-55 350,-55 350,-85"/>
<text text-anchor="start" x="250" y="-73" font-family="Helvetica,sans-Serif" font-size="10.00">src/d/com/d_com_inf</text>
<text text-anchor="middle" x="296" y="-62" font-family="Helvetica,sans-Serif" font-size="10.00">_game.cpp</text>
</a>
</g>
</g>
<!-- Node2&#45;&gt;Node6 -->
<g id="edge5" class="edge">
<title>Node2&#45;&gt;Node6</title>
<path fill="none" stroke="#63b8ff" d="M1459.11,-133.35C1223.75,-128.51 571.85,-112.91 359,-85 356.11,-84.62 353.16,-84.17 350.19,-83.68"/>
<polygon fill="#63b8ff" stroke="#63b8ff" points="1458.75,-136.84 1468.82,-133.55 1458.9,-129.84 1458.75,-136.84"/>
</g>
<!-- Node7 -->
<g id="node7" class="node">
<title>Node7</title>
<g id="a_node7"><a xlink:href="d__camera_8cpp.html" target="_top" xlink:title=" ">
<polygon fill="white" stroke="#666666" points="470,-79.5 368,-79.5 368,-60.5 470,-60.5 470,-79.5"/>
<text text-anchor="middle" x="419" y="-67.5" font-family="Helvetica,sans-Serif" font-size="10.00">src/d/d_camera.cpp</text>
</a>
</g>
</g>
<!-- Node2&#45;&gt;Node7 -->
<g id="edge6" class="edge">
<title>Node2&#45;&gt;Node7</title>
<path fill="none" stroke="#63b8ff" d="M1458.77,-132.98C1240.02,-127.55 667.51,-111.19 479,-85 470.31,-83.79 461.03,-81.92 452.44,-79.94"/>
<polygon fill="#63b8ff" stroke="#63b8ff" points="1458.57,-136.48 1468.65,-133.23 1458.74,-129.48 1458.57,-136.48"/>
</g>
<!-- Node8 -->
<g id="node8" class="node">
<title>Node8</title>
<g id="a_node8"><a xlink:href="d__demo_8cpp.html" target="_top" xlink:title=" ">
<polygon fill="white" stroke="#666666" points="582,-79.5 488,-79.5 488,-60.5 582,-60.5 582,-79.5"/>
<text text-anchor="middle" x="535" y="-67.5" font-family="Helvetica,sans-Serif" font-size="10.00">src/d/d_demo.cpp</text>
</a>
</g>
</g>
<!-- Node2&#45;&gt;Node8 -->
<g id="edge7" class="edge">
<title>Node2&#45;&gt;Node8</title>
<path fill="none" stroke="#63b8ff" d="M1458.65,-132.6C1256.46,-126.65 756.93,-109.85 591,-85 582.97,-83.8 574.42,-81.95 566.47,-80"/>
<polygon fill="#63b8ff" stroke="#63b8ff" points="1458.47,-136.1 1468.57,-132.9 1458.67,-129.1 1458.47,-136.1"/>
</g>
<!-- Node9 -->
<g id="node9" class="node">
<title>Node9</title>
<g id="a_node9"><a xlink:href="d__drawlist_8cpp.html" target="_top" xlink:title=" ">
<polygon fill="white" stroke="#666666" points="704,-79.5 600,-79.5 600,-60.5 704,-60.5 704,-79.5"/>
<text text-anchor="middle" x="652" y="-67.5" font-family="Helvetica,sans-Serif" font-size="10.00">src/d/d_drawlist.cpp</text>
</a>
</g>
</g>
<!-- Node2&#45;&gt;Node9 -->
<g id="edge8" class="edge">
<title>Node2&#45;&gt;Node9</title>
<path fill="none" stroke="#63b8ff" d="M1458.61,-134.4C1307.09,-132.32 983.86,-123.33 714,-85 705.26,-83.76 695.93,-81.93 687.23,-79.99"/>
<polygon fill="#63b8ff" stroke="#63b8ff" points="1458.54,-137.9 1468.59,-134.53 1458.64,-130.9 1458.54,-137.9"/>
</g>
<!-- Node10 -->
<g id="node10" class="node">
<title>Node10</title>
<g id="a_node10"><a xlink:href="d__gameover_8cpp.html" target="_top" xlink:title=" ">
<polygon fill="white" stroke="#666666" points="835.5,-79.5 722.5,-79.5 722.5,-60.5 835.5,-60.5 835.5,-79.5"/>
<text text-anchor="middle" x="779" y="-67.5" font-family="Helvetica,sans-Serif" font-size="10.00">src/d/d_gameover.cpp</text>
</a>
</g>
</g>
<!-- Node2&#45;&gt;Node10 -->
<g id="edge9" class="edge">
<title>Node2&#45;&gt;Node10</title>
<path fill="none" stroke="#63b8ff" d="M1458.8,-132.66C1326.29,-128.21 1064.8,-116.01 845,-85 835.84,-83.71 826.04,-81.88 816.88,-79.97"/>
<polygon fill="#63b8ff" stroke="#63b8ff" points="1458.43,-136.15 1468.54,-132.98 1458.66,-129.15 1458.43,-136.15"/>
</g>
<!-- Node11 -->
<g id="node11" class="node">
<title>Node11</title>
<g id="a_node11"><a xlink:href="d__resorce_8cpp.html" target="_top" xlink:title=" ">
<polygon fill="white" stroke="#666666" points="956,-79.5 854,-79.5 854,-60.5 956,-60.5 956,-79.5"/>
<text text-anchor="middle" x="905" y="-67.5" font-family="Helvetica,sans-Serif" font-size="10.00">src/d/d_resorce.cpp</text>
</a>
</g>
</g>
<!-- Node2&#45;&gt;Node11 -->
<g id="edge10" class="edge">
<title>Node2&#45;&gt;Node11</title>
<path fill="none" stroke="#63b8ff" d="M1458.74,-131.31C1345.21,-125.6 1139.69,-112.3 966,-85 957.63,-83.68 948.69,-81.87 940.32,-79.98"/>
<polygon fill="#63b8ff" stroke="#63b8ff" points="1458.43,-134.8 1468.6,-131.8 1458.78,-127.81 1458.43,-134.8"/>
</g>
<!-- Node12 -->
<g id="node12" class="node">
<title>Node12</title>
<g id="a_node12"><a xlink:href="d__event_8cpp.html" target="_top" xlink:title=" ">
<polygon fill="white" stroke="#666666" points="1095.5,-79.5 974.5,-79.5 974.5,-60.5 1095.5,-60.5 1095.5,-79.5"/>
<text text-anchor="middle" x="1035" y="-67.5" font-family="Helvetica,sans-Serif" font-size="10.00">src/d/event/d_event.cpp</text>
</a>
</g>
</g>
<!-- Node2&#45;&gt;Node12 -->
<g id="edge11" class="edge">
<title>Node2&#45;&gt;Node12</title>
<path fill="none" stroke="#63b8ff" d="M1458.62,-127.35C1369.69,-118.97 1227.25,-104.14 1105,-85 1095.82,-83.56 1086.01,-81.77 1076.72,-79.94"/>
<polygon fill="#63b8ff" stroke="#63b8ff" points="1458.21,-130.83 1468.5,-128.28 1458.87,-123.86 1458.21,-130.83"/>
</g>
<!-- Node13 -->
<g id="node13" class="node">
<title>Node13</title>
<g id="a_node13"><a xlink:href="d__event__data_8cpp.html" target="_top" xlink:title=" ">
<polygon fill="white" stroke="#666666" points="1216.5,-85 1113.5,-85 1113.5,-55 1216.5,-55 1216.5,-85"/>
<text text-anchor="start" x="1121.5" y="-73" font-family="Helvetica,sans-Serif" font-size="10.00">src/d/event/d_event</text>
<text text-anchor="middle" x="1165" y="-62" font-family="Helvetica,sans-Serif" font-size="10.00">_data.cpp</text>
</a>
</g>
</g>
<!-- Node2&#45;&gt;Node13 -->
<g id="edge12" class="edge">
<title>Node2&#45;&gt;Node13</title>
<path fill="none" stroke="#63b8ff" d="M1467.45,-124.4C1402.69,-115.17 1308.04,-100.82 1226,-85 1223.01,-84.42 1219.95,-83.81 1216.86,-83.16"/>
<polygon fill="#63b8ff" stroke="#63b8ff" points="1466.89,-127.85 1477.28,-125.79 1467.87,-120.92 1466.89,-127.85"/>
</g>
<!-- Node14 -->
<g id="node14" class="node">
<title>Node14</title>
<g id="a_node14"><a xlink:href="d__file__select_8cpp.html" target="_top" xlink:title=" ">
<polygon fill="white" stroke="#666666" points="1363,-79.5 1235,-79.5 1235,-60.5 1363,-60.5 1363,-79.5"/>
<text text-anchor="middle" x="1299" y="-67.5" font-family="Helvetica,sans-Serif" font-size="10.00">src/d/file/d_file_select.cpp</text>
</a>
</g>
</g>
<!-- Node2&#45;&gt;Node14 -->
<g id="edge13" class="edge">
<title>Node2&#45;&gt;Node14</title>
<path fill="none" stroke="#63b8ff" d="M1499.51,-123.16C1451.39,-110.65 1376.58,-91.18 1333.23,-79.91"/>
<polygon fill="#63b8ff" stroke="#63b8ff" points="1498.51,-126.52 1509.07,-125.65 1500.27,-119.75 1498.51,-126.52"/>
</g>
<!-- Node15 -->
<g id="node15" class="node">
<title>Node15</title>
<g id="a_node15"><a xlink:href="d__menu__collect_8cpp.html" target="_top" xlink:title=" ">
<polygon fill="white" stroke="#666666" points="1536.5,-79.5 1381.5,-79.5 1381.5,-60.5 1536.5,-60.5 1536.5,-79.5"/>
<text text-anchor="middle" x="1459" y="-67.5" font-family="Helvetica,sans-Serif" font-size="10.00">src/d/menu/d_menu_collect.cpp</text>
</a>
</g>
</g>
<!-- Node2&#45;&gt;Node15 -->
<g id="edge14" class="edge">
<title>Node2&#45;&gt;Node15</title>
<path fill="none" stroke="#63b8ff" d="M1524.02,-119.39C1507.32,-106.96 1484.55,-90.01 1470.86,-79.82"/>
<polygon fill="#63b8ff" stroke="#63b8ff" points="1521.72,-122.04 1531.83,-125.2 1525.9,-116.42 1521.72,-122.04"/>
</g>
<!-- Node16 -->
<g id="node16" class="node">
<title>Node16</title>
<g id="a_node16"><a xlink:href="d__menu__fishing_8cpp.html" target="_top" xlink:title=" ">
<polygon fill="white" stroke="#666666" points="1709,-79.5 1555,-79.5 1555,-60.5 1709,-60.5 1709,-79.5"/>
<text text-anchor="middle" x="1632" y="-67.5" font-family="Helvetica,sans-Serif" font-size="10.00">src/d/menu/d_menu_fishing.cpp</text>
</a>
</g>
</g>
<!-- Node2&#45;&gt;Node16 -->
<g id="edge15" class="edge">
<title>Node2&#45;&gt;Node16</title>
<path fill="none" stroke="#63b8ff" d="M1566.22,-119.39C1583.12,-106.96 1606.16,-90.01 1620.01,-79.82"/>
<polygon fill="#63b8ff" stroke="#63b8ff" points="1564.3,-116.46 1558.32,-125.2 1568.45,-122.1 1564.3,-116.46"/>
</g>
<!-- Node17 -->
<g id="node17" class="node">
<title>Node17</title>
<g id="a_node17"><a xlink:href="d__menu__insect_8cpp.html" target="_top" xlink:title=" ">
<polygon fill="white" stroke="#666666" points="1879,-79.5 1727,-79.5 1727,-60.5 1879,-60.5 1879,-79.5"/>
<text text-anchor="middle" x="1803" y="-67.5" font-family="Helvetica,sans-Serif" font-size="10.00">src/d/menu/d_menu_insect.cpp</text>
</a>
</g>
</g>
<!-- Node2&#45;&gt;Node17 -->
<g id="edge16" class="edge">
<title>Node2&#45;&gt;Node17</title>
<path fill="none" stroke="#63b8ff" d="M1592.07,-123.32C1642.51,-110.81 1721.45,-91.23 1767.1,-79.91"/>
<polygon fill="#63b8ff" stroke="#63b8ff" points="1591.48,-119.86 1582.61,-125.67 1593.16,-126.66 1591.48,-119.86"/>
</g>
<!-- Node18 -->
<g id="node18" class="node">
<title>Node18</title>
<g id="a_node18"><a xlink:href="d__menu__save_8cpp.html" target="_top" xlink:title=" ">
<polygon fill="white" stroke="#666666" points="2044.5,-79.5 1897.5,-79.5 1897.5,-60.5 2044.5,-60.5 2044.5,-79.5"/>
<text text-anchor="middle" x="1971" y="-67.5" font-family="Helvetica,sans-Serif" font-size="10.00">src/d/menu/d_menu_save.cpp</text>
</a>
</g>
</g>
<!-- Node2&#45;&gt;Node18 -->
<g id="edge18" class="edge">
<title>Node2&#45;&gt;Node18</title>
<path fill="none" stroke="#63b8ff" d="M1608.3,-124.26C1615.28,-123.13 1622.29,-122.03 1629,-121 1743.88,-103.45 1773.13,-102.67 1888,-85 1898.11,-83.44 1908.9,-81.69 1919.24,-79.97"/>
<polygon fill="#63b8ff" stroke="#63b8ff" points="1608.19,-120.73 1598.89,-125.8 1609.32,-127.64 1608.19,-120.73"/>
</g>
<!-- Node19 -->
<g id="node19" class="node">
<title>Node19</title>
<g id="a_node19"><a xlink:href="d__menu__skill_8cpp.html" target="_top" xlink:title=" ">
<polygon fill="white" stroke="#666666" points="2205.5,-79.5 2062.5,-79.5 2062.5,-60.5 2205.5,-60.5 2205.5,-79.5"/>
<text text-anchor="middle" x="2134" y="-67.5" font-family="Helvetica,sans-Serif" font-size="10.00">src/d/menu/d_menu_skill.cpp</text>
</a>
</g>
</g>
<!-- Node2&#45;&gt;Node19 -->
<g id="edge19" class="edge">
<title>Node2&#45;&gt;Node19</title>
<path fill="none" stroke="#63b8ff" d="M1605.91,-124.26C1613.67,-123.06 1621.51,-121.94 1629,-121 1817.09,-97.4 1866.01,-109.36 2054,-85 2064.63,-83.62 2076,-81.83 2086.73,-79.99"/>
<polygon fill="#63b8ff" stroke="#63b8ff" points="1605.47,-120.78 1596.15,-125.81 1606.57,-127.69 1605.47,-120.78"/>
</g>
<!-- Node20 -->
<g id="node20" class="node">
<title>Node20</title>
<g id="a_node20"><a xlink:href="d__msg__flow_8cpp.html" target="_top" xlink:title=" ">
<polygon fill="white" stroke="#666666" points="2356.5,-79.5 2223.5,-79.5 2223.5,-60.5 2356.5,-60.5 2356.5,-79.5"/>
<text text-anchor="middle" x="2290" y="-67.5" font-family="Helvetica,sans-Serif" font-size="10.00">src/d/msg/d_msg_flow.cpp</text>
</a>
</g>
</g>
<!-- Node2&#45;&gt;Node20 -->
<g id="edge20" class="edge">
<title>Node2&#45;&gt;Node20</title>
<path fill="none" stroke="#63b8ff" d="M1604.41,-124.31C1612.65,-123.06 1621.02,-121.91 1629,-121 1888.26,-91.51 1956.03,-117 2215,-85 2225.39,-83.72 2236.5,-81.89 2246.91,-79.98"/>
<polygon fill="#63b8ff" stroke="#63b8ff" points="1604.12,-120.81 1594.79,-125.83 1605.22,-127.73 1604.12,-120.81"/>
</g>
<!-- Node21 -->
<g id="node21" class="node">
<title>Node21</title>
<g id="a_node21"><a xlink:href="d__pane__class_8cpp.html" target="_top" xlink:title=" ">
<polygon fill="white" stroke="#666666" points="2517.5,-79.5 2374.5,-79.5 2374.5,-60.5 2517.5,-60.5 2517.5,-79.5"/>
<text text-anchor="middle" x="2446" y="-67.5" font-family="Helvetica,sans-Serif" font-size="10.00">src/d/pane/d_pane_class.cpp</text>
</a>
</g>
</g>
<!-- Node2&#45;&gt;Node21 -->
<g id="edge21" class="edge">
<title>Node2&#45;&gt;Node21</title>
<path fill="none" stroke="#63b8ff" d="M1604.08,-124.27C1612.43,-123.01 1620.92,-121.87 1629,-121 1955.07,-85.98 2040.07,-121.34 2366,-85 2377.21,-83.75 2389.23,-81.91 2400.45,-79.98"/>
<polygon fill="#63b8ff" stroke="#63b8ff" points="1603.67,-120.79 1594.34,-125.8 1604.76,-127.7 1603.67,-120.79"/>
</g>
<!-- Node22 -->
<g id="node22" class="node">
<title>Node22</title>
<g id="a_node22"><a xlink:href="d__particle_8cpp.html" target="_top" xlink:title=" ">
<polygon fill="white" stroke="#666666" points="2672,-79.5 2536,-79.5 2536,-60.5 2672,-60.5 2672,-79.5"/>
<text text-anchor="middle" x="2604" y="-67.5" font-family="Helvetica,sans-Serif" font-size="10.00">src/d/particle/d_particle.cpp</text>
</a>
</g>
</g>
<!-- Node2&#45;&gt;Node22 -->
<g id="edge22" class="edge">
<title>Node2&#45;&gt;Node22</title>
<path fill="none" stroke="#63b8ff" d="M1603.76,-124.25C1612.21,-122.98 1620.81,-121.84 1629,-121 2026.33,-80.09 2129.98,-128.83 2527,-85 2537.94,-83.79 2549.66,-81.95 2560.58,-79.99"/>
<polygon fill="#63b8ff" stroke="#63b8ff" points="1603.22,-120.79 1593.89,-125.8 1604.31,-127.7 1603.22,-120.79"/>
</g>
<!-- Node23 -->
<g id="node23" class="node">
<title>Node23</title>
<g id="a_node23"><a xlink:href="d__s__logo_8cpp.html" target="_top" xlink:title=" ">
<polygon fill="white" stroke="#666666" points="2797.5,-79.5 2690.5,-79.5 2690.5,-60.5 2797.5,-60.5 2797.5,-79.5"/>
<text text-anchor="middle" x="2744" y="-67.5" font-family="Helvetica,sans-Serif" font-size="10.00">src/d/s/d_s_logo.cpp</text>
</a>
</g>
</g>
<!-- Node2&#45;&gt;Node23 -->
<g id="edge23" class="edge">
<title>Node2&#45;&gt;Node23</title>
<path fill="none" stroke="#63b8ff" d="M1603.15,-124.29C1611.79,-123 1620.61,-121.84 1629,-121 2094.51,-74.44 2216.91,-143.99 2681,-85 2690.23,-83.83 2700.09,-81.94 2709.21,-79.93"/>
<polygon fill="#63b8ff" stroke="#63b8ff" points="1602.78,-120.81 1593.44,-125.83 1603.87,-127.73 1602.78,-120.81"/>
</g>
<!-- Node24 -->
<g id="node24" class="node">
<title>Node24</title>
<g id="a_node24"><a xlink:href="d__s__name_8cpp.html" target="_top" xlink:title=" ">
<polygon fill="white" stroke="#666666" points="2928.5,-79.5 2815.5,-79.5 2815.5,-60.5 2928.5,-60.5 2928.5,-79.5"/>
<text text-anchor="middle" x="2872" y="-67.5" font-family="Helvetica,sans-Serif" font-size="10.00">src/d/s/d_s_name.cpp</text>
</a>
</g>
</g>
<!-- Node2&#45;&gt;Node24 -->
<g id="edge24" class="edge">
<title>Node2&#45;&gt;Node24</title>
<path fill="none" stroke="#63b8ff" d="M1603.15,-124.27C1611.79,-122.97 1620.61,-121.82 1629,-121 2150.29,-69.83 2287.05,-148.41 2807,-85 2816.51,-83.84 2826.69,-81.96 2836.1,-79.95"/>
<polygon fill="#63b8ff" stroke="#63b8ff" points="1602.77,-120.78 1593.44,-125.8 1603.86,-127.7 1602.77,-120.78"/>
</g>
<!-- Node25 -->
<g id="node25" class="node">
<title>Node25</title>
<g id="a_node25"><a xlink:href="d__s__play_8cpp.html" target="_top" xlink:title=" ">
<polygon fill="white" stroke="#666666" points="3053,-79.5 2947,-79.5 2947,-60.5 3053,-60.5 3053,-79.5"/>
<text text-anchor="middle" x="3000" y="-67.5" font-family="Helvetica,sans-Serif" font-size="10.00">src/d/s/d_s_play.cpp</text>
</a>
</g>
</g>
<!-- Node2&#45;&gt;Node25 -->
<g id="edge25" class="edge">
<title>Node2&#45;&gt;Node25</title>
<path fill="none" stroke="#63b8ff" d="M1603.15,-124.24C1611.79,-122.95 1620.61,-121.81 1629,-121 2208.3,-65.03 2360.53,-157.44 2938,-85 2947.09,-83.86 2956.8,-81.99 2965.78,-79.98"/>
<polygon fill="#63b8ff" stroke="#63b8ff" points="1602.77,-120.76 1593.44,-125.77 1603.86,-127.67 1602.77,-120.76"/>
</g>
<!-- Node26 -->
<g id="node26" class="node">
<title>Node26</title>
<g id="a_node26"><a xlink:href="m__Do__graphic_8cpp.html" target="_top" xlink:title=" ">
<polygon fill="white" stroke="#666666" points="3213,-79.5 3071,-79.5 3071,-60.5 3213,-60.5 3213,-79.5"/>
<text text-anchor="middle" x="3142" y="-67.5" font-family="Helvetica,sans-Serif" font-size="10.00">src/m_Do/m_Do_graphic.cpp</text>
</a>
</g>
</g>
<!-- Node2&#45;&gt;Node26 -->
<g id="edge26" class="edge">
<title>Node2&#45;&gt;Node26</title>
<path fill="none" stroke="#63b8ff" d="M1602.83,-124.27C1611.57,-122.97 1620.51,-121.81 1629,-121 2263.21,-60.48 2428.04,-148.08 3062,-85 3073.65,-83.84 3086.15,-81.96 3097.73,-79.95"/>
<polygon fill="#63b8ff" stroke="#63b8ff" points="1602.33,-120.81 1593,-125.82 1603.42,-127.72 1602.33,-120.81"/>
</g>
<!-- Node27 -->
<g id="node27" class="node">
<title>Node27</title>
<g id="a_node27"><a xlink:href="m__Do__main_8cpp.html" target="_top" xlink:title=" ">
<polygon fill="white" stroke="#666666" points="3362.5,-79.5 3231.5,-79.5 3231.5,-60.5 3362.5,-60.5 3362.5,-79.5"/>
<text text-anchor="middle" x="3297" y="-67.5" font-family="Helvetica,sans-Serif" font-size="10.00">src/m_Do/m_Do_main.cpp</text>
</a>
</g>
</g>
<!-- Node2&#45;&gt;Node27 -->
<g id="edge27" class="edge">
<title>Node2&#45;&gt;Node27</title>
<path fill="none" stroke="#63b8ff" d="M1602.83,-124.25C1611.57,-122.95 1620.51,-121.8 1629,-121 2334.06,-54.62 2517.61,-158.21 3222,-85 3232.94,-83.86 3244.66,-81.99 3255.52,-79.98"/>
<polygon fill="#63b8ff" stroke="#63b8ff" points="1602.33,-120.79 1592.99,-125.8 1603.42,-127.7 1602.33,-120.79"/>
</g>
<!-- Node3&#45;&gt;Node4 -->
<g id="edge3" class="edge">
<title>Node3&#45;&gt;Node4</title>
<path fill="none" stroke="#63b8ff" d="M132.83,-48.28C117.9,-38.35 100.81,-27 89.31,-19.35"/>
<polygon fill="#63b8ff" stroke="#63b8ff" points="130.72,-51.08 140.99,-53.7 134.6,-45.25 130.72,-51.08"/>
</g>
<!-- Node5 -->
<g id="node5" class="node">
<title>Node5</title>
<g id="a_node5"><a xlink:href="d__menu__window_8cpp.html" target="_top" xlink:title=" ">
<polygon fill="white" stroke="#666666" points="329.5,-19 170.5,-19 170.5,0 329.5,0 329.5,-19"/>
<text text-anchor="middle" x="250" y="-7" font-family="Helvetica,sans-Serif" font-size="10.00">src/d/menu/d_menu_window.cpp</text>
</a>
</g>
</g>
<!-- Node3&#45;&gt;Node5 -->
<g id="edge4" class="edge">
<title>Node3&#45;&gt;Node5</title>
<path fill="none" stroke="#63b8ff" d="M194.46,-48.28C209.05,-38.35 225.75,-27 237,-19.35"/>
<polygon fill="#63b8ff" stroke="#63b8ff" points="192.81,-45.17 186.51,-53.69 196.75,-50.96 192.81,-45.17"/>
</g>
</g>
</svg>
        <g id="navigator" transform="translate(0 0)" fill="#404254">
                <rect fill="#f2f5e9" fill-opacity="0.5" stroke="#606060" stroke-width=".5" x="0" y="0" width="60" height="60"/>
                <use id="zoomplus" xlink:href="#zoomPlus" x="17" y="9" onmousedown="handleZoom(evt,'in')"/>
                <use id="zoomminus" xlink:href="#zoomMin" x="42" y="9" onmousedown="handleZoom(evt,'out')"/>
                <use id="reset" xlink:href="#resetDef" x="30" y="36" onmousedown="handleReset()"/>
                <g id="arrowUp" xlink:href="#dirArrow" transform="translate(30 24)" onmousedown="handlePan(0,-1)">
                  <use xlink:href="#rim" fill="#404040">
                        <set attributeName="fill" to="#808080" begin="arrowUp.mouseover" end="arrowUp.mouseout"/>
                  </use>
                  <path fill="none" stroke="white" stroke-width="1.5" d="M0,-3.0v7 M-2.5,-0.5L0,-3.0L2.5,-0.5"/>
                </g>
                <g id="arrowRight" xlink:href="#dirArrow" transform="rotate(90) translate(36 -43)" onmousedown="handlePan(1,0)">
                  <use xlink:href="#rim" fill="#404040">
                        <set attributeName="fill" to="#808080" begin="arrowRight.mouseover" end="arrowRight.mouseout"/>
                  </use>
                  <path fill="none" stroke="white" stroke-width="1.5" d="M0,-3.0v7 M-2.5,-0.5L0,-3.0L2.5,-0.5"/>
                </g>
                <g id="arrowDown" xlink:href="#dirArrow" transform="rotate(180) translate(-30 -48)" onmousedown="handlePan(0,1)">
                  <use xlink:href="#rim" fill="#404040">
                        <set attributeName="fill" to="#808080" begin="arrowDown.mouseover" end="arrowDown.mouseout"/>
                  </use>
                  <path fill="none" stroke="white" stroke-width="1.5" d="M0,-3.0v7 M-2.5,-0.5L0,-3.0L2.5,-0.5"/>
                </g>
                <g id="arrowLeft" xlink:href="#dirArrow" transform="rotate(270) translate(-36 17)" onmousedown="handlePan(-1,0)">
                  <use xlink:href="#rim" fill="#404040">
                        <set attributeName="fill" to="#808080" begin="arrowLeft.mouseover" end="arrowLeft.mouseout"/>
                  </use>
                  <path fill="none" stroke="white" stroke-width="1.5" d="M0,-3.0v7 M-2.5,-0.5L0,-3.0L2.5,-0.5"/>
                </g>
        </g>
        <svg viewBox="0 0 15 15" width="100%" height="30px" preserveAspectRatio="xMaxYMin meet">
         <g id="arrow_out" transform="scale(0.3 0.3)">
          <a xlink:href="JFWDisplay_8h__dep__incl_org.svg" target="_base">
           <rect id="button" ry="5" rx="5" y="6" x="6" height="38" width="38"
                fill="#f2f5e9" fill-opacity="0.5" stroke="#606060" stroke-width="1.0"/>
           <path id="arrow"
             d="M 11.500037,31.436501 C 11.940474,20.09759 22.043105,11.32322 32.158766,21.979434 L 37.068811,17.246167 C 37.068811,17.246167 37.088388,32 37.088388,32 L 22.160133,31.978069 C 22.160133,31.978069 26.997745,27.140456 26.997745,27.140456 C 18.528582,18.264221 13.291696,25.230495 11.500037,31.436501 z"
             style="fill:#404040;"/>
          </a>
         </g>
        </svg>
</svg>
