<?xml version="1.0" encoding="UTF-8" standalone="no"?>
<!DOCTYPE svg PUBLIC "-//W3C//DTD SVG 1.1//EN"
 "http://www.w3.org/Graphics/SVG/1.1/DTD/svg11.dtd">
<!-- Generated by graphviz version 7.0.5 (20221223.1930)
 -->
<!-- Title: libs/JSystem/JKernel/JKRArchivePub.cpp Pages: 1 -->
<svg width="1021pt" height="434pt"
 viewBox="0.00 0.00 1021.00 434.00" xmlns="http://www.w3.org/2000/svg" xmlns:xlink="http://www.w3.org/1999/xlink">
<g id="graph0" class="graph" transform="scale(1 1) rotate(0) translate(4 430)">
<title>libs/JSystem/JKernel/JKRArchivePub.cpp</title>
<!-- Node1 -->
<g id="node1" class="node">
<title>Node1</title>
<g id="a_node1"><a xlink:title=" ">
<polygon fill="#999999" stroke="#666666" points="644,-426 535,-426 535,-396 644,-396 644,-426"/>
<text text-anchor="start" x="543" y="-414" font-family="Helvetica,sans-Serif" font-size="10.00">libs/JSystem/JKernel</text>
<text text-anchor="middle" x="589.5" y="-403" font-family="Helvetica,sans-Serif" font-size="10.00">/JKRArchivePub.cpp</text>
</a>
</g>
</g>
<!-- Node2 -->
<g id="node2" class="node">
<title>Node2</title>
<g id="a_node2"><a xlink:href="JKRAramArchive_8h.html" target="_top" xlink:title=" ">
<polygon fill="white" stroke="#666666" points="793.5,-360 617.5,-360 617.5,-341 793.5,-341 793.5,-360"/>
<text text-anchor="middle" x="705.5" y="-348" font-family="Helvetica,sans-Serif" font-size="10.00">JSystem/JKernel/JKRAramArchive.h</text>
</a>
</g>
</g>
<!-- Node1&#45;&gt;Node2 -->
<g id="edge1" class="edge">
<title>Node1&#45;&gt;Node2</title>
<path fill="none" stroke="#63b8ff" d="M618.17,-395.54C636.37,-386.36 659.8,-374.55 677.8,-365.47"/>
<polygon fill="#63b8ff" stroke="#63b8ff" points="679.25,-368.66 686.61,-361.03 676.1,-362.41 679.25,-368.66"/>
</g>
<!-- Node3 -->
<g id="node3" class="node">
<title>Node3</title>
<g id="a_node3"><a xlink:href="JKRArchive_8h.html" target="_top" xlink:title=" ">
<polygon fill="white" stroke="#666666" points="541,-305 388,-305 388,-286 541,-286 541,-305"/>
<text text-anchor="middle" x="464.5" y="-293" font-family="Helvetica,sans-Serif" font-size="10.00">JSystem/JKernel/JKRArchive.h</text>
</a>
</g>
</g>
<!-- Node1&#45;&gt;Node3 -->
<g id="edge13" class="edge">
<title>Node1&#45;&gt;Node3</title>
<path fill="none" stroke="#63b8ff" d="M588.87,-395.6C587.47,-380.31 583.08,-356.3 569.5,-341 556.09,-325.9 536.71,-315.77 518.23,-309.04"/>
<polygon fill="#63b8ff" stroke="#63b8ff" points="519.54,-305.79 508.94,-305.95 517.32,-312.43 519.54,-305.79"/>
</g>
<!-- Node11 -->
<g id="node11" class="node">
<title>Node11</title>
<g id="a_node11"><a xlink:href="JKRCompArchive_8h.html" target="_top" xlink:title=" ">
<polygon fill="white" stroke="#666666" points="179,-360 0,-360 0,-341 179,-341 179,-360"/>
<text text-anchor="middle" x="89.5" y="-348" font-family="Helvetica,sans-Serif" font-size="10.00">JSystem/JKernel/JKRCompArchive.h</text>
</a>
</g>
</g>
<!-- Node1&#45;&gt;Node11 -->
<g id="edge14" class="edge">
<title>Node1&#45;&gt;Node11</title>
<path fill="none" stroke="#63b8ff" d="M534.56,-403.57C448.37,-393.49 280.58,-373.86 177.45,-361.79"/>
<polygon fill="#63b8ff" stroke="#63b8ff" points="177.97,-358.33 167.63,-360.64 177.16,-365.28 177.97,-358.33"/>
</g>
<!-- Node12 -->
<g id="node12" class="node">
<title>Node12</title>
<g id="a_node12"><a xlink:href="JKRDvdArchive_8h.html" target="_top" xlink:title=" ">
<polygon fill="white" stroke="#666666" points="367.5,-360 197.5,-360 197.5,-341 367.5,-341 367.5,-360"/>
<text text-anchor="middle" x="282.5" y="-348" font-family="Helvetica,sans-Serif" font-size="10.00">JSystem/JKernel/JKRDvdArchive.h</text>
</a>
</g>
</g>
<!-- Node1&#45;&gt;Node12 -->
<g id="edge16" class="edge">
<title>Node1&#45;&gt;Node12</title>
<path fill="none" stroke="#63b8ff" d="M534.61,-399.54C479.92,-389.12 396.25,-373.17 340.48,-362.55"/>
<polygon fill="#63b8ff" stroke="#63b8ff" points="341.34,-359.15 330.86,-360.72 340.03,-366.03 341.34,-359.15"/>
</g>
<!-- Node13 -->
<g id="node13" class="node">
<title>Node13</title>
<g id="a_node13"><a xlink:href="JKRFileFinder_8h.html" target="_top" xlink:title=" ">
<polygon fill="white" stroke="#666666" points="1013,-360 850,-360 850,-341 1013,-341 1013,-360"/>
<text text-anchor="middle" x="931.5" y="-348" font-family="Helvetica,sans-Serif" font-size="10.00">JSystem/JKernel/JKRFileFinder.h</text>
</a>
</g>
</g>
<!-- Node1&#45;&gt;Node13 -->
<g id="edge18" class="edge">
<title>Node1&#45;&gt;Node13</title>
<path fill="none" stroke="#63b8ff" d="M644.45,-400.6C705.37,-390.18 803.49,-373.4 867.74,-362.41"/>
<polygon fill="#63b8ff" stroke="#63b8ff" points="868.18,-365.88 877.44,-360.75 867,-358.98 868.18,-365.88"/>
</g>
<!-- Node15 -->
<g id="node15" class="node">
<title>Node15</title>
<g id="a_node15"><a xlink:href="JKRHeap_8h.html" target="_top" xlink:title=" ">
<polygon fill="white" stroke="#666666" points="893,-305 750,-305 750,-286 893,-286 893,-305"/>
<text text-anchor="middle" x="821.5" y="-293" font-family="Helvetica,sans-Serif" font-size="10.00">JSystem/JKernel/JKRHeap.h</text>
</a>
</g>
</g>
<!-- Node1&#45;&gt;Node15 -->
<g id="edge21" class="edge">
<title>Node1&#45;&gt;Node15</title>
<path fill="none" stroke="#63b8ff" d="M644.48,-403.4C699.77,-395.69 779.96,-381.22 802.5,-360 814.3,-348.89 818.87,-330.78 820.59,-316.73"/>
<polygon fill="#63b8ff" stroke="#63b8ff" points="824.07,-317.05 821.38,-306.81 817.1,-316.5 824.07,-317.05"/>
</g>
<!-- Node19 -->
<g id="node19" class="node">
<title>Node19</title>
<g id="a_node19"><a xlink:href="JKRMemArchive_8h.html" target="_top" xlink:title=" ">
<polygon fill="white" stroke="#666666" points="561,-360 386,-360 386,-341 561,-341 561,-360"/>
<text text-anchor="middle" x="473.5" y="-348" font-family="Helvetica,sans-Serif" font-size="10.00">JSystem/JKernel/JKRMemArchive.h</text>
</a>
</g>
</g>
<!-- Node1&#45;&gt;Node19 -->
<g id="edge27" class="edge">
<title>Node1&#45;&gt;Node19</title>
<path fill="none" stroke="#63b8ff" d="M560.83,-395.54C542.63,-386.36 519.2,-374.55 501.2,-365.47"/>
<polygon fill="#63b8ff" stroke="#63b8ff" points="502.9,-362.41 492.39,-361.03 499.75,-368.66 502.9,-362.41"/>
</g>
<!-- Node2&#45;&gt;Node3 -->
<g id="edge2" class="edge">
<title>Node2&#45;&gt;Node3</title>
<path fill="none" stroke="#63b8ff" d="M664.62,-340.51C623.73,-331.52 560.69,-317.65 516.32,-307.9"/>
<polygon fill="#63b8ff" stroke="#63b8ff" points="517.18,-304.5 506.66,-305.77 515.67,-311.34 517.18,-304.5"/>
</g>
<!-- Node8 -->
<g id="node8" class="node">
<title>Node8</title>
<g id="a_node8"><a xlink:href="types_8h.html" target="_top" xlink:title=" ">
<polygon fill="white" stroke="#666666" points="709,-85 628,-85 628,-66 709,-66 709,-85"/>
<text text-anchor="middle" x="668.5" y="-73" font-family="Helvetica,sans-Serif" font-size="10.00">dolphin/types.h</text>
</a>
</g>
</g>
<!-- Node2&#45;&gt;Node8 -->
<g id="edge12" class="edge">
<title>Node2&#45;&gt;Node8</title>
<path fill="none" stroke="#63b8ff" d="M707.72,-340.61C712.12,-322.22 721.5,-278.65 721.5,-241.5 721.5,-241.5 721.5,-241.5 721.5,-184.5 721.5,-149.68 699.02,-114.41 683.34,-94.04"/>
<polygon fill="#63b8ff" stroke="#63b8ff" points="686.26,-92.09 677.27,-86.49 680.81,-96.47 686.26,-92.09"/>
</g>
<!-- Node4 -->
<g id="node4" class="node">
<title>Node4</title>
<g id="a_node4"><a xlink:href="JKRCompression_8h.html" target="_top" xlink:title=" ">
<polygon fill="white" stroke="#666666" points="434,-250 257,-250 257,-231 434,-231 434,-250"/>
<text text-anchor="middle" x="345.5" y="-238" font-family="Helvetica,sans-Serif" font-size="10.00">JSystem/JKernel/JKRCompression.h</text>
</a>
</g>
</g>
<!-- Node3&#45;&gt;Node4 -->
<g id="edge3" class="edge">
<title>Node3&#45;&gt;Node4</title>
<path fill="none" stroke="#63b8ff" d="M444.31,-285.51C425.48,-277.12 397.13,-264.5 375.63,-254.92"/>
<polygon fill="#63b8ff" stroke="#63b8ff" points="377.33,-251.85 366.77,-250.97 374.48,-258.24 377.33,-251.85"/>
</g>
<!-- Node5 -->
<g id="node5" class="node">
<title>Node5</title>
<g id="a_node5"><a xlink:href="JKRFileLoader_8h.html" target="_top" xlink:title=" ">
<polygon fill="white" stroke="#666666" points="656.5,-250 490.5,-250 490.5,-231 656.5,-231 656.5,-250"/>
<text text-anchor="middle" x="573.5" y="-238" font-family="Helvetica,sans-Serif" font-size="10.00">JSystem/JKernel/JKRFileLoader.h</text>
</a>
</g>
</g>
<!-- Node3&#45;&gt;Node5 -->
<g id="edge4" class="edge">
<title>Node3&#45;&gt;Node5</title>
<path fill="none" stroke="#63b8ff" d="M482.99,-285.51C500,-277.24 525.49,-264.84 545.09,-255.31"/>
<polygon fill="#63b8ff" stroke="#63b8ff" points="546.46,-258.54 553.92,-251.02 543.4,-252.25 546.46,-258.54"/>
</g>
<!-- Node10 -->
<g id="node10" class="node">
<title>Node10</title>
<g id="a_node10"><a xlink:href="global_8h.html" target="_top" xlink:title=" ">
<polygon fill="white" stroke="#666666" points="479.5,-140 429.5,-140 429.5,-121 479.5,-121 479.5,-140"/>
<text text-anchor="middle" x="454.5" y="-128" font-family="Helvetica,sans-Serif" font-size="10.00">global.h</text>
</a>
</g>
</g>
<!-- Node3&#45;&gt;Node10 -->
<g id="edge10" class="edge">
<title>Node3&#45;&gt;Node10</title>
<path fill="none" stroke="#63b8ff" d="M463.96,-285.74C462.42,-260.53 457.93,-187.36 455.73,-151.62"/>
<polygon fill="#63b8ff" stroke="#63b8ff" points="459.24,-151.58 455.13,-141.82 452.25,-152.01 459.24,-151.58"/>
</g>
<!-- Node6 -->
<g id="node6" class="node">
<title>Node6</title>
<g id="a_node6"><a xlink:href="JKRDisposer_8h.html" target="_top" xlink:title=" ">
<polygon fill="white" stroke="#666666" points="693.5,-195 535.5,-195 535.5,-176 693.5,-176 693.5,-195"/>
<text text-anchor="middle" x="614.5" y="-183" font-family="Helvetica,sans-Serif" font-size="10.00">JSystem/JKernel/JKRDisposer.h</text>
</a>
</g>
</g>
<!-- Node5&#45;&gt;Node6 -->
<g id="edge5" class="edge">
<title>Node5&#45;&gt;Node6</title>
<path fill="none" stroke="#63b8ff" d="M580.27,-230.75C585.82,-223.58 593.84,-213.2 600.73,-204.3"/>
<polygon fill="#63b8ff" stroke="#63b8ff" points="603.31,-206.69 606.66,-196.64 597.77,-202.41 603.31,-206.69"/>
</g>
<!-- Node5&#45;&gt;Node8 -->
<g id="edge9" class="edge">
<title>Node5&#45;&gt;Node8</title>
<path fill="none" stroke="#63b8ff" d="M558.97,-230.58C547.76,-222.76 533.07,-210.28 526.5,-195 518.15,-175.6 529.18,-130.48 537.5,-121 557.41,-98.31 589.35,-87.17 616.7,-81.72"/>
<polygon fill="#63b8ff" stroke="#63b8ff" points="616.98,-85.22 626.21,-80.03 615.76,-78.33 616.98,-85.22"/>
</g>
<!-- Node7 -->
<g id="node7" class="node">
<title>Node7</title>
<g id="a_node7"><a xlink:href="JSUList_8h.html" target="_top" xlink:title=" ">
<polygon fill="white" stroke="#666666" points="690,-140 547,-140 547,-121 690,-121 690,-140"/>
<text text-anchor="middle" x="618.5" y="-128" font-family="Helvetica,sans-Serif" font-size="10.00">JSystem/JSupport/JSUList.h</text>
</a>
</g>
</g>
<!-- Node6&#45;&gt;Node7 -->
<g id="edge6" class="edge">
<title>Node6&#45;&gt;Node7</title>
<path fill="none" stroke="#63b8ff" d="M615.16,-175.75C615.65,-169.27 616.34,-160.16 616.96,-151.9"/>
<polygon fill="#63b8ff" stroke="#63b8ff" points="620.45,-152.19 617.71,-141.95 613.47,-151.66 620.45,-152.19"/>
</g>
<!-- Node7&#45;&gt;Node8 -->
<g id="edge7" class="edge">
<title>Node7&#45;&gt;Node8</title>
<path fill="none" stroke="#63b8ff" d="M626.76,-120.75C633.66,-113.43 643.72,-102.76 652.24,-93.74"/>
<polygon fill="#63b8ff" stroke="#63b8ff" points="654.71,-96.22 659.03,-86.54 649.62,-91.42 654.71,-96.22"/>
</g>
<!-- Node9 -->
<g id="node9" class="node">
<title>Node9</title>
<g id="a_node9"><a xlink:href="stddef_8h.html" target="_top" xlink:title=" ">
<polygon fill="white" stroke="#666666" points="736.5,-30 600.5,-30 600.5,0 736.5,0 736.5,-30"/>
<text text-anchor="start" x="608.5" y="-18" font-family="Helvetica,sans-Serif" font-size="10.00">MSL_C/MSL_Common/Src</text>
<text text-anchor="middle" x="668.5" y="-7" font-family="Helvetica,sans-Serif" font-size="10.00">/stddef.h</text>
</a>
</g>
</g>
<!-- Node8&#45;&gt;Node9 -->
<g id="edge8" class="edge">
<title>Node8&#45;&gt;Node9</title>
<path fill="none" stroke="#63b8ff" d="M668.5,-65.87C668.5,-59.4 668.5,-50.2 668.5,-41.45"/>
<polygon fill="#63b8ff" stroke="#63b8ff" points="672,-41.63 668.5,-31.63 665,-41.63 672,-41.63"/>
</g>
<!-- Node10&#45;&gt;Node8 -->
<g id="edge11" class="edge">
<title>Node10&#45;&gt;Node8</title>
<path fill="none" stroke="#63b8ff" d="M479.89,-123.21C514.72,-114.59 577.96,-98.92 621.55,-88.13"/>
<polygon fill="#63b8ff" stroke="#63b8ff" points="622.12,-91.59 630.98,-85.79 620.43,-84.8 622.12,-91.59"/>
</g>
<!-- Node11&#45;&gt;Node3 -->
<g id="edge15" class="edge">
<title>Node11&#45;&gt;Node3</title>
<path fill="none" stroke="#63b8ff" d="M153.11,-340.51C218.53,-331.26 320.37,-316.87 389.64,-307.08"/>
<polygon fill="#63b8ff" stroke="#63b8ff" points="389.98,-310.57 399.39,-305.7 389,-303.64 389.98,-310.57"/>
</g>
<!-- Node12&#45;&gt;Node3 -->
<g id="edge17" class="edge">
<title>Node12&#45;&gt;Node3</title>
<path fill="none" stroke="#63b8ff" d="M313.37,-340.51C343.53,-331.73 389.64,-318.3 423,-308.59"/>
<polygon fill="#63b8ff" stroke="#63b8ff" points="423.7,-312.03 432.33,-305.87 421.75,-305.31 423.7,-312.03"/>
</g>
<!-- Node14 -->
<g id="node14" class="node">
<title>Node14</title>
<g id="a_node14"><a xlink:href="dvd_8h.html" target="_top" xlink:title=" ">
<polygon fill="white" stroke="#666666" points="977.5,-195 885.5,-195 885.5,-176 977.5,-176 977.5,-195"/>
<text text-anchor="middle" x="931.5" y="-183" font-family="Helvetica,sans-Serif" font-size="10.00">dolphin/dvd/dvd.h</text>
</a>
</g>
</g>
<!-- Node13&#45;&gt;Node14 -->
<g id="edge19" class="edge">
<title>Node13&#45;&gt;Node14</title>
<path fill="none" stroke="#63b8ff" d="M931.5,-340.74C931.5,-315.53 931.5,-242.36 931.5,-206.62"/>
<polygon fill="#63b8ff" stroke="#63b8ff" points="935,-206.82 931.5,-196.82 928,-206.82 935,-206.82"/>
</g>
<!-- Node14&#45;&gt;Node8 -->
<g id="edge20" class="edge">
<title>Node14&#45;&gt;Node8</title>
<path fill="none" stroke="#63b8ff" d="M926.91,-175.94C918.99,-162.06 901.38,-134.78 878.5,-121 830.04,-91.82 765.22,-81.6 720.48,-78.11"/>
<polygon fill="#63b8ff" stroke="#63b8ff" points="721,-74.64 710.78,-77.45 720.52,-81.62 721,-74.64"/>
</g>
<!-- Node15&#45;&gt;Node6 -->
<g id="edge22" class="edge">
<title>Node15&#45;&gt;Node6</title>
<path fill="none" stroke="#63b8ff" d="M804.56,-285.66C768.78,-266.99 685.22,-223.4 641.8,-200.74"/>
<polygon fill="#63b8ff" stroke="#63b8ff" points="643.5,-197.68 633.02,-196.16 640.26,-203.89 643.5,-197.68"/>
</g>
<!-- Node16 -->
<g id="node16" class="node">
<title>Node16</title>
<g id="a_node16"><a xlink:href="OSMutex_8h.html" target="_top" xlink:title=" ">
<polygon fill="white" stroke="#666666" points="899.5,-250 787.5,-250 787.5,-231 899.5,-231 899.5,-250"/>
<text text-anchor="middle" x="843.5" y="-238" font-family="Helvetica,sans-Serif" font-size="10.00">dolphin/os/OSMutex.h</text>
</a>
</g>
</g>
<!-- Node15&#45;&gt;Node16 -->
<g id="edge23" class="edge">
<title>Node15&#45;&gt;Node16</title>
<path fill="none" stroke="#63b8ff" d="M825.13,-285.75C827.92,-279.04 831.87,-269.52 835.4,-261.02"/>
<polygon fill="#63b8ff" stroke="#63b8ff" points="838.61,-262.42 839.21,-251.84 832.14,-259.73 838.61,-262.42"/>
</g>
<!-- Node17 -->
<g id="node17" class="node">
<title>Node17</title>
<g id="a_node17"><a xlink:href="OSThread_8h.html" target="_top" xlink:title=" ">
<polygon fill="white" stroke="#666666" points="867.5,-195 751.5,-195 751.5,-176 867.5,-176 867.5,-195"/>
<text text-anchor="middle" x="809.5" y="-183" font-family="Helvetica,sans-Serif" font-size="10.00">dolphin/os/OSThread.h</text>
</a>
</g>
</g>
<!-- Node16&#45;&gt;Node17 -->
<g id="edge24" class="edge">
<title>Node16&#45;&gt;Node17</title>
<path fill="none" stroke="#63b8ff" d="M837.89,-230.75C833.38,-223.73 826.91,-213.64 821.29,-204.87"/>
<polygon fill="#63b8ff" stroke="#63b8ff" points="824.4,-203.24 816.05,-196.72 818.51,-207.02 824.4,-203.24"/>
</g>
<!-- Node18 -->
<g id="node18" class="node">
<title>Node18</title>
<g id="a_node18"><a xlink:href="OSContext_8h.html" target="_top" xlink:title=" ">
<polygon fill="white" stroke="#666666" points="869,-140 750,-140 750,-121 869,-121 869,-140"/>
<text text-anchor="middle" x="809.5" y="-128" font-family="Helvetica,sans-Serif" font-size="10.00">dolphin/os/OSContext.h</text>
</a>
</g>
</g>
<!-- Node17&#45;&gt;Node18 -->
<g id="edge25" class="edge">
<title>Node17&#45;&gt;Node18</title>
<path fill="none" stroke="#63b8ff" d="M809.5,-175.75C809.5,-169.27 809.5,-160.16 809.5,-151.9"/>
<polygon fill="#63b8ff" stroke="#63b8ff" points="813,-151.96 809.5,-141.96 806,-151.96 813,-151.96"/>
</g>
<!-- Node18&#45;&gt;Node8 -->
<g id="edge26" class="edge">
<title>Node18&#45;&gt;Node8</title>
<path fill="none" stroke="#63b8ff" d="M785.58,-120.51C762.86,-111.97 728.45,-99.03 702.81,-89.4"/>
<polygon fill="#63b8ff" stroke="#63b8ff" points="704.07,-86.13 693.48,-85.89 701.61,-92.69 704.07,-86.13"/>
</g>
<!-- Node19&#45;&gt;Node3 -->
<g id="edge28" class="edge">
<title>Node19&#45;&gt;Node3</title>
<path fill="none" stroke="#63b8ff" d="M472.01,-340.75C470.9,-334.19 469.33,-324.95 467.91,-316.6"/>
<polygon fill="#63b8ff" stroke="#63b8ff" points="471.4,-316.21 466.27,-306.93 464.5,-317.38 471.4,-316.21"/>
</g>
</g>
</svg>
