<?xml version="1.0" encoding="UTF-8" standalone="no"?>
<!DOCTYPE svg PUBLIC "-//W3C//DTD SVG 1.1//EN"
 "http://www.w3.org/Graphics/SVG/1.1/DTD/svg11.dtd">
<!-- Generated by graphviz version 7.0.5 (20221223.1930)
 -->
<!-- Title: include/JSystem/JKernel/JKRDisposer.h Pages: 1 -->
<svg width="5307pt" height="247pt"
 viewBox="0.00 0.00 5306.50 247.00" xmlns="http://www.w3.org/2000/svg" xmlns:xlink="http://www.w3.org/1999/xlink">
<g id="graph0" class="graph" transform="scale(1 1) rotate(0) translate(4 243)">
<title>include/JSystem/JKernel/JKRDisposer.h</title>
<!-- Node1 -->
<g id="node1" class="node">
<title>Node1</title>
<g id="a_node1"><a xlink:title=" ">
<polygon fill="#999999" stroke="#666666" points="2230,-239 2105,-239 2105,-209 2230,-209 2230,-239"/>
<text text-anchor="start" x="2113" y="-227" font-family="Helvetica,sans-Serif" font-size="10.00">include/JSystem/JKernel</text>
<text text-anchor="middle" x="2167.5" y="-216" font-family="Helvetica,sans-Serif" font-size="10.00">/JKRDisposer.h</text>
</a>
</g>
</g>
<!-- Node2 -->
<g id="node2" class="node">
<title>Node2</title>
<g id="a_node2"><a xlink:href="JAUSectionHeap_8h.html" target="_top" xlink:title=" ">
<polygon fill="white" stroke="#666666" points="265,-173 138,-173 138,-143 265,-143 265,-173"/>
<text text-anchor="start" x="146" y="-161" font-family="Helvetica,sans-Serif" font-size="10.00">include/JSystem/JAudio2</text>
<text text-anchor="middle" x="201.5" y="-150" font-family="Helvetica,sans-Serif" font-size="10.00">/JAUSectionHeap.h</text>
</a>
</g>
</g>
<!-- Node1&#45;&gt;Node2 -->
<g id="edge1" class="edge">
<title>Node1&#45;&gt;Node2</title>
<path fill="none" stroke="#63b8ff" d="M2093.33,-221.5C1855.47,-216.56 1090.32,-199.55 457.5,-173 392.02,-170.25 317.17,-166.03 265.39,-162.95"/>
<polygon fill="#63b8ff" stroke="#63b8ff" points="2093.01,-225 2103.08,-221.71 2093.15,-218 2093.01,-225"/>
</g>
<!-- Node5 -->
<g id="node5" class="node">
<title>Node5</title>
<g id="a_node5"><a xlink:href="JKRAramHeap_8h.html" target="_top" xlink:title=" ">
<polygon fill="white" stroke="#666666" points="1168,-173 1043,-173 1043,-143 1168,-143 1168,-173"/>
<text text-anchor="start" x="1051" y="-161" font-family="Helvetica,sans-Serif" font-size="10.00">include/JSystem/JKernel</text>
<text text-anchor="middle" x="1105.5" y="-150" font-family="Helvetica,sans-Serif" font-size="10.00">/JKRAramHeap.h</text>
</a>
</g>
</g>
<!-- Node1&#45;&gt;Node5 -->
<g id="edge4" class="edge">
<title>Node1&#45;&gt;Node5</title>
<path fill="none" stroke="#63b8ff" d="M2093.18,-218.52C1894.46,-206.55 1353.46,-173.94 1168.49,-162.8"/>
<polygon fill="#63b8ff" stroke="#63b8ff" points="2092.94,-222.01 2103.13,-219.12 2093.36,-215.03 2092.94,-222.01"/>
</g>
<!-- Node18 -->
<g id="node9" class="node">
<title>Node18</title>
<g id="a_node9"><a xlink:href="JKRFile_8h.html" target="_top" xlink:title=" ">
<polygon fill="white" stroke="#666666" points="592,-173 467,-173 467,-143 592,-143 592,-173"/>
<text text-anchor="start" x="475" y="-161" font-family="Helvetica,sans-Serif" font-size="10.00">include/JSystem/JKernel</text>
<text text-anchor="middle" x="529.5" y="-150" font-family="Helvetica,sans-Serif" font-size="10.00">/JKRFile.h</text>
</a>
</g>
</g>
<!-- Node1&#45;&gt;Node18 -->
<g id="edge8" class="edge">
<title>Node1&#45;&gt;Node18</title>
<path fill="none" stroke="#63b8ff" d="M2093.37,-220.35C1892.7,-213.15 1322.06,-192.43 847.5,-173 758.88,-169.37 656.38,-164.79 592.25,-161.88"/>
<polygon fill="#63b8ff" stroke="#63b8ff" points="2093,-223.84 2103.12,-220.7 2093.25,-216.85 2093,-223.84"/>
</g>
<!-- Node27 -->
<g id="node14" class="node">
<title>Node27</title>
<g id="a_node14"><a xlink:href="JKRFileLoader_8h.html" target="_top" xlink:title=" ">
<polygon fill="white" stroke="#666666" points="982,-173 857,-173 857,-143 982,-143 982,-173"/>
<text text-anchor="start" x="865" y="-161" font-family="Helvetica,sans-Serif" font-size="10.00">include/JSystem/JKernel</text>
<text text-anchor="middle" x="919.5" y="-150" font-family="Helvetica,sans-Serif" font-size="10.00">/JKRFileLoader.h</text>
</a>
</g>
</g>
<!-- Node1&#45;&gt;Node27 -->
<g id="edge13" class="edge">
<title>Node1&#45;&gt;Node27</title>
<path fill="none" stroke="#63b8ff" d="M2093.18,-221.73C1911.83,-218.2 1432.25,-206.22 1033.5,-173 1016.91,-171.62 999.01,-169.65 982.43,-167.62"/>
<polygon fill="#63b8ff" stroke="#63b8ff" points="2093.12,-225.23 2103.18,-221.92 2093.25,-218.23 2093.12,-225.23"/>
</g>
<!-- Node236 -->
<g id="node21" class="node">
<title>Node236</title>
<g id="a_node21"><a xlink:href="JKRHeap_8h.html" target="_top" xlink:title=" ">
<polygon fill="#fff0f0" stroke="red" points="3293,-173 3168,-173 3168,-143 3293,-143 3293,-173"/>
<text text-anchor="start" x="3176" y="-161" font-family="Helvetica,sans-Serif" font-size="10.00">include/JSystem/JKernel</text>
<text text-anchor="middle" x="3230.5" y="-150" font-family="Helvetica,sans-Serif" font-size="10.00">/JKRHeap.h</text>
</a>
</g>
</g>
<!-- Node1&#45;&gt;Node236 -->
<g id="edge21" class="edge">
<title>Node1&#45;&gt;Node236</title>
<path fill="none" stroke="#63b8ff" d="M2241.9,-218.52C2440.93,-206.54 2982.97,-173.9 3167.79,-162.78"/>
<polygon fill="#63b8ff" stroke="#63b8ff" points="2241.7,-215.03 2231.93,-219.12 2242.12,-222.01 2241.7,-215.03"/>
</g>
<!-- Node285 -->
<g id="node43" class="node">
<title>Node285</title>
<g id="a_node43"><a xlink:href="JKRDisposer_8cpp.html" target="_top" xlink:title=" ">
<polygon fill="white" stroke="#666666" points="5050,-101.5 4941,-101.5 4941,-71.5 5050,-71.5 5050,-101.5"/>
<text text-anchor="start" x="4949" y="-89.5" font-family="Helvetica,sans-Serif" font-size="10.00">libs/JSystem/JKernel</text>
<text text-anchor="middle" x="4995.5" y="-78.5" font-family="Helvetica,sans-Serif" font-size="10.00">/JKRDisposer.cpp</text>
</a>
</g>
</g>
<!-- Node1&#45;&gt;Node285 -->
<g id="edge60" class="edge">
<title>Node1&#45;&gt;Node285</title>
<path fill="none" stroke="#63b8ff" d="M2241.9,-222.43C2626.56,-219.08 4392.61,-198.86 4931.5,-107 4938.71,-105.77 4946.25,-103.96 4953.52,-101.94"/>
<polygon fill="#63b8ff" stroke="#63b8ff" points="2241.87,-218.93 2231.91,-222.51 2241.93,-225.93 2241.87,-218.93"/>
</g>
<!-- Node293 -->
<g id="node49" class="node">
<title>Node293</title>
<g id="a_node49"><a xlink:href="JUTConsole_8h.html" target="_top" xlink:title=" ">
<polygon fill="#fff0f0" stroke="red" points="4793.5,-173 4671.5,-173 4671.5,-143 4793.5,-143 4793.5,-173"/>
<text text-anchor="start" x="4679.5" y="-161" font-family="Helvetica,sans-Serif" font-size="10.00">include/JSystem/JUtility</text>
<text text-anchor="middle" x="4732.5" y="-150" font-family="Helvetica,sans-Serif" font-size="10.00">/JUTConsole.h</text>
</a>
</g>
</g>
<!-- Node1&#45;&gt;Node293 -->
<g id="edge56" class="edge">
<title>Node1&#45;&gt;Node293</title>
<path fill="none" stroke="#63b8ff" d="M2241.86,-221.23C2507.91,-214.88 3437.46,-192.58 4204.5,-173 4373.4,-168.69 4572.68,-163.33 4671.12,-160.67"/>
<polygon fill="#63b8ff" stroke="#63b8ff" points="2241.86,-217.73 2231.95,-221.46 2242.03,-224.72 2241.86,-217.73"/>
</g>
<!-- Node295 -->
<g id="node50" class="node">
<title>Node295</title>
<g id="a_node50"><a xlink:href="JUTGamePad_8h.html" target="_top" xlink:title=" ">
<polygon fill="#fff0f0" stroke="red" points="4933.5,-173 4811.5,-173 4811.5,-143 4933.5,-143 4933.5,-173"/>
<text text-anchor="start" x="4819.5" y="-161" font-family="Helvetica,sans-Serif" font-size="10.00">include/JSystem/JUtility</text>
<text text-anchor="middle" x="4872.5" y="-150" font-family="Helvetica,sans-Serif" font-size="10.00">/JUTGamePad.h</text>
</a>
</g>
</g>
<!-- Node1&#45;&gt;Node295 -->
<g id="edge59" class="edge">
<title>Node1&#45;&gt;Node295</title>
<path fill="none" stroke="#63b8ff" d="M2241.9,-222.38C2643.33,-218.94 4542.38,-201.25 4802.5,-173 4805.33,-172.69 4808.22,-172.33 4811.14,-171.92"/>
<polygon fill="#63b8ff" stroke="#63b8ff" points="2241.95,-218.88 2231.98,-222.47 2242.01,-225.88 2241.95,-218.88"/>
</g>
<!-- Node3 -->
<g id="node3" class="node">
<title>Node3</title>
<g id="a_node3"><a xlink:href="JAUAudioArcLoader_8cpp.html" target="_top" xlink:title=" ">
<polygon fill="white" stroke="#666666" points="127,-101.5 0,-101.5 0,-71.5 127,-71.5 127,-101.5"/>
<text text-anchor="start" x="8" y="-89.5" font-family="Helvetica,sans-Serif" font-size="10.00">libs/JSystem/JAudio2</text>
<text text-anchor="middle" x="63.5" y="-78.5" font-family="Helvetica,sans-Serif" font-size="10.00">/JAUAudioArcLoader.cpp</text>
</a>
</g>
</g>
<!-- Node2&#45;&gt;Node3 -->
<g id="edge2" class="edge">
<title>Node2&#45;&gt;Node3</title>
<path fill="none" stroke="#63b8ff" d="M162.69,-137.46C140.25,-126.15 112.49,-112.17 92.06,-101.88"/>
<polygon fill="#63b8ff" stroke="#63b8ff" points="161.05,-140.55 171.55,-141.92 164.2,-134.29 161.05,-140.55"/>
</g>
<!-- Node4 -->
<g id="node4" class="node">
<title>Node4</title>
<g id="a_node4"><a xlink:href="JAUSectionHeap_8cpp.html" target="_top" xlink:title=" ">
<polygon fill="white" stroke="#666666" points="258,-101.5 145,-101.5 145,-71.5 258,-71.5 258,-101.5"/>
<text text-anchor="start" x="153" y="-89.5" font-family="Helvetica,sans-Serif" font-size="10.00">libs/JSystem/JAudio2</text>
<text text-anchor="middle" x="201.5" y="-78.5" font-family="Helvetica,sans-Serif" font-size="10.00">/JAUSectionHeap.cpp</text>
</a>
</g>
</g>
<!-- Node2&#45;&gt;Node4 -->
<g id="edge3" class="edge">
<title>Node2&#45;&gt;Node4</title>
<path fill="none" stroke="#63b8ff" d="M201.5,-131.26C201.5,-121.33 201.5,-110.36 201.5,-101.88"/>
<polygon fill="#63b8ff" stroke="#63b8ff" points="198,-131.09 201.5,-141.09 205,-131.09 198,-131.09"/>
</g>
<!-- Node6 -->
<g id="node6" class="node">
<title>Node6</title>
<g id="a_node6"><a xlink:href="JKRAram_8h.html" target="_top" xlink:title=" ">
<polygon fill="#fff0f0" stroke="red" points="1192,-30 1067,-30 1067,0 1192,0 1192,-30"/>
<text text-anchor="start" x="1075" y="-18" font-family="Helvetica,sans-Serif" font-size="10.00">include/JSystem/JKernel</text>
<text text-anchor="middle" x="1129.5" y="-7" font-family="Helvetica,sans-Serif" font-size="10.00">/JKRAram.h</text>
</a>
</g>
</g>
<!-- Node5&#45;&gt;Node6 -->
<g id="edge5" class="edge">
<title>Node5&#45;&gt;Node6</title>
<path fill="none" stroke="#63b8ff" d="M1031.85,-144.21C1011.16,-136.85 990.94,-125.26 978.5,-107 968.24,-91.94 967.83,-80.77 978.5,-66 998.63,-38.13 1034.89,-25.54 1066.84,-19.96"/>
<polygon fill="#63b8ff" stroke="#63b8ff" points="1030.65,-147.5 1041.24,-147.23 1032.79,-140.84 1030.65,-147.5"/>
</g>
<!-- Node16 -->
<g id="node7" class="node">
<title>Node16</title>
<g id="a_node7"><a xlink:href="JKRAramBlock_8cpp.html" target="_top" xlink:title=" ">
<polygon fill="white" stroke="#666666" points="1224,-101.5 1115,-101.5 1115,-71.5 1224,-71.5 1224,-101.5"/>
<text text-anchor="start" x="1123" y="-89.5" font-family="Helvetica,sans-Serif" font-size="10.00">libs/JSystem/JKernel</text>
<text text-anchor="middle" x="1169.5" y="-78.5" font-family="Helvetica,sans-Serif" font-size="10.00">/JKRAramBlock.cpp</text>
</a>
</g>
</g>
<!-- Node5&#45;&gt;Node16 -->
<g id="edge6" class="edge">
<title>Node5&#45;&gt;Node16</title>
<path fill="none" stroke="#63b8ff" d="M1126.53,-134.17C1136.32,-123.53 1147.68,-111.2 1156.26,-101.88"/>
<polygon fill="#63b8ff" stroke="#63b8ff" points="1123.99,-131.76 1119.79,-141.49 1129.13,-136.5 1123.99,-131.76"/>
</g>
<!-- Node17 -->
<g id="node8" class="node">
<title>Node17</title>
<g id="a_node8"><a xlink:href="JKRAramHeap_8cpp.html" target="_top" xlink:title=" ">
<polygon fill="white" stroke="#666666" points="1097,-101.5 988,-101.5 988,-71.5 1097,-71.5 1097,-101.5"/>
<text text-anchor="start" x="996" y="-89.5" font-family="Helvetica,sans-Serif" font-size="10.00">libs/JSystem/JKernel</text>
<text text-anchor="middle" x="1042.5" y="-78.5" font-family="Helvetica,sans-Serif" font-size="10.00">/JKRAramHeap.cpp</text>
</a>
</g>
</g>
<!-- Node5&#45;&gt;Node17 -->
<g id="edge7" class="edge">
<title>Node5&#45;&gt;Node17</title>
<path fill="none" stroke="#63b8ff" d="M1084.8,-134.17C1075.16,-123.53 1063.98,-111.2 1055.54,-101.88"/>
<polygon fill="#63b8ff" stroke="#63b8ff" points="1082.12,-136.42 1091.43,-141.48 1087.31,-131.72 1082.12,-136.42"/>
</g>
<!-- Node19 -->
<g id="node10" class="node">
<title>Node19</title>
<g id="a_node10"><a xlink:href="JKRDvdFile_8h.html" target="_top" xlink:title=" ">
<polygon fill="#fff0f0" stroke="red" points="661,-101.5 536,-101.5 536,-71.5 661,-71.5 661,-101.5"/>
<text text-anchor="start" x="544" y="-89.5" font-family="Helvetica,sans-Serif" font-size="10.00">include/JSystem/JKernel</text>
<text text-anchor="middle" x="598.5" y="-78.5" font-family="Helvetica,sans-Serif" font-size="10.00">/JKRDvdFile.h</text>
</a>
</g>
</g>
<!-- Node18&#45;&gt;Node19 -->
<g id="edge9" class="edge">
<title>Node18&#45;&gt;Node19</title>
<path fill="none" stroke="#63b8ff" d="M551.85,-134.48C562.49,-123.78 574.88,-111.29 584.22,-101.88"/>
<polygon fill="#63b8ff" stroke="#63b8ff" points="549.42,-131.96 544.86,-141.53 554.39,-136.89 549.42,-131.96"/>
</g>
<!-- Node25 -->
<g id="node12" class="node">
<title>Node25</title>
<g id="a_node12"><a xlink:href="JKRFile_8cpp.html" target="_top" xlink:title=" ">
<polygon fill="white" stroke="#666666" points="385,-101.5 276,-101.5 276,-71.5 385,-71.5 385,-101.5"/>
<text text-anchor="start" x="284" y="-89.5" font-family="Helvetica,sans-Serif" font-size="10.00">libs/JSystem/JKernel</text>
<text text-anchor="middle" x="330.5" y="-78.5" font-family="Helvetica,sans-Serif" font-size="10.00">/JKRFile.cpp</text>
</a>
</g>
</g>
<!-- Node18&#45;&gt;Node25 -->
<g id="edge11" class="edge">
<title>Node18&#45;&gt;Node25</title>
<path fill="none" stroke="#63b8ff" d="M477.45,-138.82C444.45,-127.3 402.35,-112.59 371.68,-101.88"/>
<polygon fill="#63b8ff" stroke="#63b8ff" points="476.24,-142.11 486.84,-142.1 478.55,-135.5 476.24,-142.11"/>
</g>
<!-- Node26 -->
<g id="node13" class="node">
<title>Node26</title>
<g id="a_node13"><a xlink:href="JSUFileStream_8cpp.html" target="_top" xlink:title=" ">
<polygon fill="white" stroke="#666666" points="518,-101.5 403,-101.5 403,-71.5 518,-71.5 518,-101.5"/>
<text text-anchor="start" x="411" y="-89.5" font-family="Helvetica,sans-Serif" font-size="10.00">libs/JSystem/JSupport</text>
<text text-anchor="middle" x="460.5" y="-78.5" font-family="Helvetica,sans-Serif" font-size="10.00">/JSUFileStream.cpp</text>
</a>
</g>
</g>
<!-- Node18&#45;&gt;Node26 -->
<g id="edge12" class="edge">
<title>Node18&#45;&gt;Node26</title>
<path fill="none" stroke="#63b8ff" d="M507.15,-134.48C496.51,-123.78 484.12,-111.29 474.78,-101.88"/>
<polygon fill="#63b8ff" stroke="#63b8ff" points="504.61,-136.89 514.14,-141.53 509.58,-131.96 504.61,-136.89"/>
</g>
<!-- Node24 -->
<g id="node11" class="node">
<title>Node24</title>
<g id="a_node11"><a xlink:href="JKRFileCache_8cpp.html" target="_top" xlink:title=" ">
<polygon fill="white" stroke="#666666" points="796,-30 687,-30 687,0 796,0 796,-30"/>
<text text-anchor="start" x="695" y="-18" font-family="Helvetica,sans-Serif" font-size="10.00">libs/JSystem/JKernel</text>
<text text-anchor="middle" x="741.5" y="-7" font-family="Helvetica,sans-Serif" font-size="10.00">/JKRFileCache.cpp</text>
</a>
</g>
</g>
<!-- Node19&#45;&gt;Node24 -->
<g id="edge10" class="edge">
<title>Node19&#45;&gt;Node24</title>
<path fill="none" stroke="#63b8ff" d="M638.4,-66.11C661.71,-54.78 690.63,-40.72 711.91,-30.38"/>
<polygon fill="#63b8ff" stroke="#63b8ff" points="636.96,-62.92 629.49,-70.44 640.01,-69.21 636.96,-62.92"/>
</g>
<!-- Node28 -->
<g id="node15" class="node">
<title>Node28</title>
<g id="a_node15"><a xlink:href="JKRArchive_8h.html" target="_top" xlink:title=" ">
<polygon fill="#fff0f0" stroke="red" points="1588,-101.5 1463,-101.5 1463,-71.5 1588,-71.5 1588,-101.5"/>
<text text-anchor="start" x="1471" y="-89.5" font-family="Helvetica,sans-Serif" font-size="10.00">include/JSystem/JKernel</text>
<text text-anchor="middle" x="1525.5" y="-78.5" font-family="Helvetica,sans-Serif" font-size="10.00">/JKRArchive.h</text>
</a>
</g>
</g>
<!-- Node27&#45;&gt;Node28 -->
<g id="edge14" class="edge">
<title>Node27&#45;&gt;Node28</title>
<path fill="none" stroke="#63b8ff" d="M993.52,-147.6C1006.82,-146 1020.57,-144.4 1033.5,-143 1202.59,-124.63 1245.94,-129.73 1414.5,-107 1430.11,-104.89 1446.88,-102.19 1462.53,-99.46"/>
<polygon fill="#63b8ff" stroke="#63b8ff" points="993.49,-144.08 983.98,-148.76 994.33,-151.03 993.49,-144.08"/>
</g>
<!-- Node234 -->
<g id="node19" class="node">
<title>Node234</title>
<g id="a_node19"><a xlink:href="JKRFileCache_8h.html" target="_top" xlink:title=" ">
<polygon fill="#fff0f0" stroke="red" points="804,-101.5 679,-101.5 679,-71.5 804,-71.5 804,-101.5"/>
<text text-anchor="start" x="687" y="-89.5" font-family="Helvetica,sans-Serif" font-size="10.00">include/JSystem/JKernel</text>
<text text-anchor="middle" x="741.5" y="-78.5" font-family="Helvetica,sans-Serif" font-size="10.00">/JKRFileCache.h</text>
</a>
</g>
</g>
<!-- Node27&#45;&gt;Node234 -->
<g id="edge18" class="edge">
<title>Node27&#45;&gt;Node234</title>
<path fill="none" stroke="#63b8ff" d="M872.17,-138.52C842.77,-127.04 805.53,-112.5 778.33,-101.88"/>
<polygon fill="#63b8ff" stroke="#63b8ff" points="870.62,-141.67 881.21,-142.05 873.17,-135.15 870.62,-141.67"/>
</g>
<!-- Node235 -->
<g id="node20" class="node">
<title>Node235</title>
<g id="a_node20"><a xlink:href="JKRFileLoader_8cpp.html" target="_top" xlink:title=" ">
<polygon fill="white" stroke="#666666" points="931,-101.5 822,-101.5 822,-71.5 931,-71.5 931,-101.5"/>
<text text-anchor="start" x="830" y="-89.5" font-family="Helvetica,sans-Serif" font-size="10.00">libs/JSystem/JKernel</text>
<text text-anchor="middle" x="876.5" y="-78.5" font-family="Helvetica,sans-Serif" font-size="10.00">/JKRFileLoader.cpp</text>
</a>
</g>
</g>
<!-- Node27&#45;&gt;Node235 -->
<g id="edge20" class="edge">
<title>Node27&#45;&gt;Node235</title>
<path fill="none" stroke="#63b8ff" d="M904.58,-132.88C898.18,-122.55 890.93,-110.82 885.4,-101.88"/>
<polygon fill="#63b8ff" stroke="#63b8ff" points="901.56,-134.65 909.79,-141.31 907.51,-130.97 901.56,-134.65"/>
</g>
<!-- Node228 -->
<g id="node16" class="node">
<title>Node228</title>
<g id="a_node16"><a xlink:href="J2DScreen_8cpp.html" target="_top" xlink:title=" ">
<polygon fill="white" stroke="#666666" points="3399,-30 3280,-30 3280,0 3399,0 3399,-30"/>
<text text-anchor="start" x="3288" y="-18" font-family="Helvetica,sans-Serif" font-size="10.00">libs/JSystem/J2DGraph</text>
<text text-anchor="middle" x="3339.5" y="-7" font-family="Helvetica,sans-Serif" font-size="10.00">/J2DScreen.cpp</text>
</a>
</g>
</g>
<!-- Node28&#45;&gt;Node228 -->
<g id="edge15" class="edge">
<title>Node28&#45;&gt;Node228</title>
<path fill="none" stroke="#63b8ff" d="M1582.6,-68.56C1587.27,-67.55 1591.95,-66.68 1596.5,-66 1681.36,-53.32 2983.34,-23.87 3279.76,-17.31"/>
<polygon fill="#63b8ff" stroke="#63b8ff" points="1582.17,-65.06 1573.23,-70.74 1583.76,-71.88 1582.17,-65.06"/>
</g>
<!-- Node229 -->
<g id="node17" class="node">
<title>Node229</title>
<g id="a_node17"><a xlink:href="JKRArchivePri_8cpp.html" target="_top" xlink:title=" ">
<polygon fill="white" stroke="#666666" points="1534,-30 1425,-30 1425,0 1534,0 1534,-30"/>
<text text-anchor="start" x="1433" y="-18" font-family="Helvetica,sans-Serif" font-size="10.00">libs/JSystem/JKernel</text>
<text text-anchor="middle" x="1479.5" y="-7" font-family="Helvetica,sans-Serif" font-size="10.00">/JKRArchivePri.cpp</text>
</a>
</g>
</g>
<!-- Node28&#45;&gt;Node229 -->
<g id="edge16" class="edge">
<title>Node28&#45;&gt;Node229</title>
<path fill="none" stroke="#63b8ff" d="M1509.75,-61.7C1502.86,-51.29 1495,-39.42 1489.02,-30.38"/>
<polygon fill="#63b8ff" stroke="#63b8ff" points="1506.7,-63.43 1515.13,-69.84 1512.53,-59.57 1506.7,-63.43"/>
</g>
<!-- Node32 -->
<g id="node18" class="node">
<title>Node32</title>
<g id="a_node18"><a xlink:href="JKRArchivePub_8cpp.html" target="_top" xlink:title=" ">
<polygon fill="white" stroke="#666666" points="2634,-30 2525,-30 2525,0 2634,0 2634,-30"/>
<text text-anchor="start" x="2533" y="-18" font-family="Helvetica,sans-Serif" font-size="10.00">libs/JSystem/JKernel</text>
<text text-anchor="middle" x="2579.5" y="-7" font-family="Helvetica,sans-Serif" font-size="10.00">/JKRArchivePub.cpp</text>
</a>
</g>
</g>
<!-- Node28&#45;&gt;Node32 -->
<g id="edge17" class="edge">
<title>Node28&#45;&gt;Node32</title>
<path fill="none" stroke="#63b8ff" d="M1583.43,-68.49C1587.83,-67.54 1592.22,-66.69 1596.5,-66 1777.44,-36.91 2345.29,-21.46 2524.64,-17.22"/>
<polygon fill="#63b8ff" stroke="#63b8ff" points="1582.95,-65.01 1574.02,-70.7 1584.55,-71.82 1582.95,-65.01"/>
</g>
<!-- Node234&#45;&gt;Node24 -->
<g id="edge19" class="edge">
<title>Node234&#45;&gt;Node24</title>
<path fill="none" stroke="#63b8ff" d="M741.5,-59.76C741.5,-49.83 741.5,-38.86 741.5,-30.38"/>
<polygon fill="#63b8ff" stroke="#63b8ff" points="738,-59.59 741.5,-69.59 745,-59.59 738,-59.59"/>
</g>
<!-- Node236&#45;&gt;Node16 -->
<g id="edge45" class="edge">
<title>Node236&#45;&gt;Node16</title>
<path fill="none" stroke="#63b8ff" d="M3156.5,-156.24C2818.6,-152.62 1430.54,-136.07 1238.5,-107 1230.62,-105.81 1222.37,-103.99 1214.43,-101.94"/>
<polygon fill="#63b8ff" stroke="#63b8ff" points="3156.05,-159.73 3166.09,-156.34 3156.13,-152.73 3156.05,-159.73"/>
</g>
<!-- Node236&#45;&gt;Node17 -->
<g id="edge46" class="edge">
<title>Node236&#45;&gt;Node17</title>
<path fill="none" stroke="#63b8ff" d="M3156.21,-156.47C2803.99,-153.79 1310.87,-140.53 1105.5,-107 1098.27,-105.82 1090.71,-104.01 1083.45,-101.96"/>
<polygon fill="#63b8ff" stroke="#63b8ff" points="3155.98,-159.97 3166.01,-156.54 3156.03,-152.97 3155.98,-159.97"/>
</g>
<!-- Node236&#45;&gt;Node24 -->
<g id="edge50" class="edge">
<title>Node236&#45;&gt;Node24</title>
<path fill="none" stroke="#63b8ff" d="M3156.3,-156.69C2809.23,-155.05 1359.05,-145.88 1271.5,-107 1248.52,-96.79 1255.08,-77.07 1232.5,-66 1156.92,-28.93 908.08,-19.31 796.49,-16.84"/>
<polygon fill="#63b8ff" stroke="#63b8ff" points="3156.17,-160.19 3166.19,-156.74 3156.2,-153.19 3156.17,-160.19"/>
</g>
<!-- Node236&#45;&gt;Node228 -->
<g id="edge36" class="edge">
<title>Node236&#45;&gt;Node228</title>
<path fill="none" stroke="#63b8ff" d="M3304.48,-157.04C3470.9,-156.37 3863.42,-150.17 3903.5,-107 3915.9,-93.65 3915.8,-79.44 3903.5,-66 3869.96,-29.36 3537.79,-19.41 3399.47,-16.84"/>
<polygon fill="#63b8ff" stroke="#63b8ff" points="3304.87,-153.54 3294.89,-157.08 3304.9,-160.54 3304.87,-153.54"/>
</g>
<!-- Node236&#45;&gt;Node229 -->
<g id="edge47" class="edge">
<title>Node236&#45;&gt;Node229</title>
<path fill="none" stroke="#63b8ff" d="M3156.25,-156.31C2823.39,-153.05 1483.64,-138 1453.5,-107 1433.11,-86.03 1453.65,-50.23 1468.05,-30.36"/>
<polygon fill="#63b8ff" stroke="#63b8ff" points="3156.11,-159.81 3166.14,-156.41 3156.18,-152.81 3156.11,-159.81"/>
</g>
<!-- Node236&#45;&gt;Node32 -->
<g id="edge48" class="edge">
<title>Node236&#45;&gt;Node32</title>
<path fill="none" stroke="#63b8ff" d="M3304.69,-153.85C3399.95,-147.31 3546.46,-127.24 3488.5,-66 3459.03,-34.86 2826.39,-20.59 2634.31,-16.96"/>
<polygon fill="#63b8ff" stroke="#63b8ff" points="3304.61,-150.35 3294.86,-154.49 3305.06,-157.34 3304.61,-150.35"/>
</g>
<!-- Node237 -->
<g id="node22" class="node">
<title>Node237</title>
<g id="a_node22"><a xlink:href="JKRAssertHeap_8h.html" target="_top" xlink:title=" ">
<polygon fill="#fff0f0" stroke="red" points="4076,-101.5 3951,-101.5 3951,-71.5 4076,-71.5 4076,-101.5"/>
<text text-anchor="start" x="3959" y="-89.5" font-family="Helvetica,sans-Serif" font-size="10.00">include/JSystem/JKernel</text>
<text text-anchor="middle" x="4013.5" y="-78.5" font-family="Helvetica,sans-Serif" font-size="10.00">/JKRAssertHeap.h</text>
</a>
</g>
</g>
<!-- Node236&#45;&gt;Node237 -->
<g id="edge22" class="edge">
<title>Node236&#45;&gt;Node237</title>
<path fill="none" stroke="#63b8ff" d="M3304.55,-156.06C3433.66,-153.47 3708.04,-143.72 3936.5,-107 3944.67,-105.69 3953.24,-103.92 3961.57,-101.98"/>
<polygon fill="#63b8ff" stroke="#63b8ff" points="3304.7,-152.56 3294.77,-156.25 3304.84,-159.56 3304.7,-152.56"/>
</g>
<!-- Node240 -->
<g id="node23" class="node">
<title>Node240</title>
<g id="a_node23"><a xlink:href="JKRExpHeap_8h.html" target="_top" xlink:title=" ">
<polygon fill="#fff0f0" stroke="red" points="4219,-101.5 4094,-101.5 4094,-71.5 4219,-71.5 4219,-101.5"/>
<text text-anchor="start" x="4102" y="-89.5" font-family="Helvetica,sans-Serif" font-size="10.00">include/JSystem/JKernel</text>
<text text-anchor="middle" x="4156.5" y="-78.5" font-family="Helvetica,sans-Serif" font-size="10.00">/JKRExpHeap.h</text>
</a>
</g>
</g>
<!-- Node236&#45;&gt;Node240 -->
<g id="edge23" class="edge">
<title>Node236&#45;&gt;Node240</title>
<path fill="none" stroke="#63b8ff" d="M3304.63,-157.77C3453.48,-158.19 3798.95,-153.52 4084.5,-107 4092.3,-105.73 4100.47,-103.96 4108.39,-102"/>
<polygon fill="#63b8ff" stroke="#63b8ff" points="3304.92,-154.27 3294.91,-157.73 3304.9,-161.27 3304.92,-154.27"/>
</g>
<!-- Node249 -->
<g id="node24" class="node">
<title>Node249</title>
<g id="a_node24"><a xlink:href="JKRSolidHeap_8h.html" target="_top" xlink:title=" ">
<polygon fill="#fff0f0" stroke="red" points="4362,-101.5 4237,-101.5 4237,-71.5 4362,-71.5 4362,-101.5"/>
<text text-anchor="start" x="4245" y="-89.5" font-family="Helvetica,sans-Serif" font-size="10.00">include/JSystem/JKernel</text>
<text text-anchor="middle" x="4299.5" y="-78.5" font-family="Helvetica,sans-Serif" font-size="10.00">/JKRSolidHeap.h</text>
</a>
</g>
</g>
<!-- Node236&#45;&gt;Node249 -->
<g id="edge24" class="edge">
<title>Node236&#45;&gt;Node249</title>
<path fill="none" stroke="#63b8ff" d="M3304.54,-155.34C3504.05,-150.55 4049.73,-135.2 4227.5,-107 4235.43,-105.74 4243.74,-103.95 4251.79,-101.96"/>
<polygon fill="#63b8ff" stroke="#63b8ff" points="3304.75,-151.84 3294.84,-155.58 3304.92,-158.84 3304.75,-151.84"/>
</g>
<!-- Node255 -->
<g id="node25" class="node">
<title>Node255</title>
<g id="a_node25"><a xlink:href="JKRThread_8h.html" target="_top" xlink:title=" ">
<polygon fill="#fff0f0" stroke="red" points="1406,-101.5 1281,-101.5 1281,-71.5 1406,-71.5 1406,-101.5"/>
<text text-anchor="start" x="1289" y="-89.5" font-family="Helvetica,sans-Serif" font-size="10.00">include/JSystem/JKernel</text>
<text text-anchor="middle" x="1343.5" y="-78.5" font-family="Helvetica,sans-Serif" font-size="10.00">/JKRThread.h</text>
</a>
</g>
</g>
<!-- Node236&#45;&gt;Node255 -->
<g id="edge25" class="edge">
<title>Node236&#45;&gt;Node255</title>
<path fill="none" stroke="#63b8ff" d="M3156.25,-157.13C2860.28,-157.3 1764.07,-154.65 1420.5,-107 1411.76,-105.79 1402.57,-103.96 1393.72,-101.91"/>
<polygon fill="#63b8ff" stroke="#63b8ff" points="3156.17,-160.63 3166.17,-157.12 3156.17,-153.63 3156.17,-160.63"/>
</g>
<!-- Node107 -->
<g id="node26" class="node">
<title>Node107</title>
<g id="a_node26"><a xlink:href="d__a__guard__mng_8h.html" target="_top" xlink:title=" ">
<polygon fill="white" stroke="#666666" points="4529,-101.5 4380,-101.5 4380,-71.5 4529,-71.5 4529,-101.5"/>
<text text-anchor="start" x="4388" y="-89.5" font-family="Helvetica,sans-Serif" font-size="10.00">include/rel/d/a/d_a</text>
<text text-anchor="middle" x="4454.5" y="-78.5" font-family="Helvetica,sans-Serif" font-size="10.00">_guard_mng/d_a_guard_mng.h</text>
</a>
</g>
</g>
<!-- Node236&#45;&gt;Node107 -->
<g id="edge27" class="edge">
<title>Node236&#45;&gt;Node107</title>
<path fill="none" stroke="#63b8ff" d="M3304.67,-155.53C3523.41,-150.92 4163.45,-135.33 4370.5,-107 4379.7,-105.74 4389.37,-103.95 4398.74,-101.96"/>
<polygon fill="#63b8ff" stroke="#63b8ff" points="3304.78,-152.03 3294.85,-155.74 3304.93,-159.03 3304.78,-152.03"/>
</g>
<!-- Node273 -->
<g id="node27" class="node">
<title>Node273</title>
<g id="a_node27"><a xlink:href="d__a__tag__arena_8h.html" target="_top" xlink:title=" ">
<polygon fill="white" stroke="#666666" points="4668,-107 4547,-107 4547,-66 4668,-66 4668,-107"/>
<text text-anchor="start" x="4555" y="-95" font-family="Helvetica,sans-Serif" font-size="10.00">include/rel/d/a/tag</text>
<text text-anchor="start" x="4555" y="-84" font-family="Helvetica,sans-Serif" font-size="10.00">/d_a_tag_arena/d_a_tag</text>
<text text-anchor="middle" x="4607.5" y="-73" font-family="Helvetica,sans-Serif" font-size="10.00">_arena.h</text>
</a>
</g>
</g>
<!-- Node236&#45;&gt;Node273 -->
<g id="edge28" class="edge">
<title>Node236&#45;&gt;Node273</title>
<path fill="none" stroke="#63b8ff" d="M3304.71,-156.44C3544.58,-154.26 4297.31,-144.52 4537.5,-107 4540.49,-106.53 4543.54,-105.98 4546.6,-105.37"/>
<polygon fill="#63b8ff" stroke="#63b8ff" points="3304.83,-152.93 3294.86,-156.52 3304.89,-159.93 3304.83,-152.93"/>
</g>
<!-- Node144 -->
<g id="node28" class="node">
<title>Node144</title>
<g id="a_node28"><a xlink:href="d__a__tag__assistance_8h.html" target="_top" xlink:title=" ">
<polygon fill="white" stroke="#666666" points="4800.5,-107 4686.5,-107 4686.5,-66 4800.5,-66 4800.5,-107"/>
<text text-anchor="start" x="4694.5" y="-95" font-family="Helvetica,sans-Serif" font-size="10.00">include/rel/d/a/tag</text>
<text text-anchor="start" x="4694.5" y="-84" font-family="Helvetica,sans-Serif" font-size="10.00">/d_a_tag_assistance</text>
<text text-anchor="middle" x="4743.5" y="-73" font-family="Helvetica,sans-Serif" font-size="10.00">/d_a_tag_assistance.h</text>
</a>
</g>
</g>
<!-- Node236&#45;&gt;Node144 -->
<g id="edge29" class="edge">
<title>Node236&#45;&gt;Node144</title>
<path fill="none" stroke="#63b8ff" d="M3304.68,-156.87C3561.01,-156.03 4408.26,-149.98 4676.5,-107 4679.73,-106.48 4683.02,-105.86 4686.33,-105.15"/>
<polygon fill="#63b8ff" stroke="#63b8ff" points="3304.79,-153.37 3294.8,-156.9 3304.81,-160.37 3304.79,-153.37"/>
</g>
<!-- Node148 -->
<g id="node29" class="node">
<title>Node148</title>
<g id="a_node29"><a xlink:href="d__a__tag__chkpoint_8h.html" target="_top" xlink:title=" ">
<polygon fill="white" stroke="#666666" points="4922.5,-107 4818.5,-107 4818.5,-66 4922.5,-66 4922.5,-107"/>
<text text-anchor="start" x="4826.5" y="-95" font-family="Helvetica,sans-Serif" font-size="10.00">include/rel/d/a/tag</text>
<text text-anchor="start" x="4826.5" y="-84" font-family="Helvetica,sans-Serif" font-size="10.00">/d_a_tag_chkpoint/d</text>
<text text-anchor="middle" x="4870.5" y="-73" font-family="Helvetica,sans-Serif" font-size="10.00">_a_tag_chkpoint.h</text>
</a>
</g>
</g>
<!-- Node236&#45;&gt;Node148 -->
<g id="edge30" class="edge">
<title>Node236&#45;&gt;Node148</title>
<path fill="none" stroke="#63b8ff" d="M3304.36,-155.87C3596.22,-151.22 4660.47,-132.66 4809.5,-107 4812.35,-106.51 4815.25,-105.92 4818.16,-105.25"/>
<polygon fill="#63b8ff" stroke="#63b8ff" points="3304.54,-152.36 3294.6,-156.02 3304.65,-159.36 3304.54,-152.36"/>
</g>
<!-- Node149 -->
<g id="node30" class="node">
<title>Node149</title>
<g id="a_node30"><a xlink:href="d__a__tag__gra_8h.html" target="_top" xlink:title=" ">
<polygon fill="white" stroke="#666666" points="1743,-101.5 1606,-101.5 1606,-71.5 1743,-71.5 1743,-101.5"/>
<text text-anchor="start" x="1614" y="-89.5" font-family="Helvetica,sans-Serif" font-size="10.00">include/rel/d/a/tag</text>
<text text-anchor="middle" x="1674.5" y="-78.5" font-family="Helvetica,sans-Serif" font-size="10.00">/d_a_tag_gra/d_a_tag_gra.h</text>
</a>
</g>
</g>
<!-- Node236&#45;&gt;Node149 -->
<g id="edge31" class="edge">
<title>Node236&#45;&gt;Node149</title>
<path fill="none" stroke="#63b8ff" d="M3156.4,-156.59C2896.5,-154.84 2027.21,-146.11 1751.5,-107 1742.9,-105.78 1733.87,-103.98 1725.14,-101.96"/>
<polygon fill="#63b8ff" stroke="#63b8ff" points="3156.05,-160.09 3166.07,-156.66 3156.09,-153.09 3156.05,-160.09"/>
</g>
<!-- Node274 -->
<g id="node31" class="node">
<title>Node274</title>
<g id="a_node31"><a xlink:href="d__a__tag__schedule_8h.html" target="_top" xlink:title=" ">
<polygon fill="white" stroke="#666666" points="1868,-107 1761,-107 1761,-66 1868,-66 1868,-107"/>
<text text-anchor="start" x="1769" y="-95" font-family="Helvetica,sans-Serif" font-size="10.00">include/rel/d/a/tag</text>
<text text-anchor="start" x="1769" y="-84" font-family="Helvetica,sans-Serif" font-size="10.00">/d_a_tag_schedule/d</text>
<text text-anchor="middle" x="1814.5" y="-73" font-family="Helvetica,sans-Serif" font-size="10.00">_a_tag_schedule.h</text>
</a>
</g>
</g>
<!-- Node236&#45;&gt;Node274 -->
<g id="edge32" class="edge">
<title>Node236&#45;&gt;Node274</title>
<path fill="none" stroke="#63b8ff" d="M3156.48,-156.87C2911.08,-156.03 2125.65,-149.98 1876.5,-107 1873.83,-106.54 1871.12,-105.99 1868.39,-105.38"/>
<polygon fill="#63b8ff" stroke="#63b8ff" points="3156.23,-160.37 3166.24,-156.9 3156.25,-153.37 3156.23,-160.37"/>
</g>
<!-- Node164 -->
<g id="node32" class="node">
<title>Node164</title>
<g id="a_node32"><a xlink:href="d__a__tag__theB__hint_8h.html" target="_top" xlink:title=" ">
<polygon fill="white" stroke="#666666" points="1995,-107 1886,-107 1886,-66 1995,-66 1995,-107"/>
<text text-anchor="start" x="1894" y="-95" font-family="Helvetica,sans-Serif" font-size="10.00">include/rel/d/a/tag</text>
<text text-anchor="start" x="1894" y="-84" font-family="Helvetica,sans-Serif" font-size="10.00">/d_a_tag_theB_hint/d</text>
<text text-anchor="middle" x="1940.5" y="-73" font-family="Helvetica,sans-Serif" font-size="10.00">_a_tag_theB_hint.h</text>
</a>
</g>
</g>
<!-- Node236&#45;&gt;Node164 -->
<g id="edge33" class="edge">
<title>Node236&#45;&gt;Node164</title>
<path fill="none" stroke="#63b8ff" d="M3156.51,-156.5C2926.67,-154.53 2227.04,-145.48 2003.5,-107 2000.79,-106.53 1998.04,-105.98 1995.27,-105.37"/>
<polygon fill="#63b8ff" stroke="#63b8ff" points="3156.21,-159.99 3166.23,-156.58 3156.26,-152.99 3156.21,-159.99"/>
</g>
<!-- Node275 -->
<g id="node33" class="node">
<title>Node275</title>
<g id="a_node33"><a xlink:href="J2DMaterial_8cpp.html" target="_top" xlink:title=" ">
<polygon fill="white" stroke="#666666" points="2132,-101.5 2013,-101.5 2013,-71.5 2132,-71.5 2132,-101.5"/>
<text text-anchor="start" x="2021" y="-89.5" font-family="Helvetica,sans-Serif" font-size="10.00">libs/JSystem/J2DGraph</text>
<text text-anchor="middle" x="2072.5" y="-78.5" font-family="Helvetica,sans-Serif" font-size="10.00">/J2DMaterial.cpp</text>
</a>
</g>
</g>
<!-- Node236&#45;&gt;Node275 -->
<g id="edge34" class="edge">
<title>Node236&#45;&gt;Node275</title>
<path fill="none" stroke="#63b8ff" d="M3156.24,-155.85C2943.87,-152.2 2336.68,-139.17 2140.5,-107 2132.99,-105.77 2125.12,-103.99 2117.52,-102"/>
<polygon fill="#63b8ff" stroke="#63b8ff" points="3155.99,-159.35 3166.04,-156.02 3156.1,-152.35 3155.99,-159.35"/>
</g>
<!-- Node276 -->
<g id="node34" class="node">
<title>Node276</title>
<g id="a_node34"><a xlink:href="J2DPrint_8cpp.html" target="_top" xlink:title=" ">
<polygon fill="white" stroke="#666666" points="2269,-101.5 2150,-101.5 2150,-71.5 2269,-71.5 2269,-101.5"/>
<text text-anchor="start" x="2158" y="-89.5" font-family="Helvetica,sans-Serif" font-size="10.00">libs/JSystem/J2DGraph</text>
<text text-anchor="middle" x="2209.5" y="-78.5" font-family="Helvetica,sans-Serif" font-size="10.00">/J2DPrint.cpp</text>
</a>
</g>
</g>
<!-- Node236&#45;&gt;Node276 -->
<g id="edge35" class="edge">
<title>Node236&#45;&gt;Node276</title>
<path fill="none" stroke="#63b8ff" d="M3156.14,-155.24C2962.68,-150.31 2447.02,-134.88 2278.5,-107 2270.89,-105.74 2262.91,-103.95 2255.2,-101.95"/>
<polygon fill="#63b8ff" stroke="#63b8ff" points="3155.99,-158.73 3166.07,-155.49 3156.16,-151.74 3155.99,-158.73"/>
</g>
<!-- Node277 -->
<g id="node35" class="node">
<title>Node277</title>
<g id="a_node35"><a xlink:href="J3DMtxBuffer_8cpp.html" target="_top" xlink:title=" ">
<polygon fill="white" stroke="#666666" points="2445.5,-101.5 2287.5,-101.5 2287.5,-71.5 2445.5,-71.5 2445.5,-101.5"/>
<text text-anchor="start" x="2295.5" y="-89.5" font-family="Helvetica,sans-Serif" font-size="10.00">libs/JSystem/J3DGraphAnimator</text>
<text text-anchor="middle" x="2366.5" y="-78.5" font-family="Helvetica,sans-Serif" font-size="10.00">/J3DMtxBuffer.cpp</text>
</a>
</g>
</g>
<!-- Node236&#45;&gt;Node277 -->
<g id="edge37" class="edge">
<title>Node236&#45;&gt;Node277</title>
<path fill="none" stroke="#63b8ff" d="M3156.27,-156.01C3017.68,-153.31 2710.44,-143.38 2454.5,-107 2445.2,-105.68 2435.43,-103.91 2425.92,-101.96"/>
<polygon fill="#63b8ff" stroke="#63b8ff" points="3155.97,-159.5 3166.04,-156.19 3156.1,-152.5 3155.97,-159.5"/>
</g>
<!-- Node278 -->
<g id="node36" class="node">
<title>Node278</title>
<g id="a_node36"><a xlink:href="J3DDrawBuffer_8cpp.html" target="_top" xlink:title=" ">
<polygon fill="white" stroke="#666666" points="2605.5,-101.5 2463.5,-101.5 2463.5,-71.5 2605.5,-71.5 2605.5,-101.5"/>
<text text-anchor="start" x="2471.5" y="-89.5" font-family="Helvetica,sans-Serif" font-size="10.00">libs/JSystem/J3DGraphBase</text>
<text text-anchor="middle" x="2534.5" y="-78.5" font-family="Helvetica,sans-Serif" font-size="10.00">/J3DDrawBuffer.cpp</text>
</a>
</g>
</g>
<!-- Node236&#45;&gt;Node278 -->
<g id="edge38" class="edge">
<title>Node236&#45;&gt;Node278</title>
<path fill="none" stroke="#63b8ff" d="M3156.37,-154.77C3040.21,-150.42 2808.5,-138.32 2614.5,-107 2606.17,-105.66 2597.44,-103.9 2588.92,-101.98"/>
<polygon fill="#63b8ff" stroke="#63b8ff" points="3155.95,-158.25 3166.07,-155.12 3156.21,-151.26 3155.95,-158.25"/>
</g>
<!-- Node279 -->
<g id="node37" class="node">
<title>Node279</title>
<g id="a_node37"><a xlink:href="J3DPacket_8cpp.html" target="_top" xlink:title=" ">
<polygon fill="white" stroke="#666666" points="2765.5,-101.5 2623.5,-101.5 2623.5,-71.5 2765.5,-71.5 2765.5,-101.5"/>
<text text-anchor="start" x="2631.5" y="-89.5" font-family="Helvetica,sans-Serif" font-size="10.00">libs/JSystem/J3DGraphBase</text>
<text text-anchor="middle" x="2694.5" y="-78.5" font-family="Helvetica,sans-Serif" font-size="10.00">/J3DPacket.cpp</text>
</a>
</g>
</g>
<!-- Node236&#45;&gt;Node279 -->
<g id="edge39" class="edge">
<title>Node236&#45;&gt;Node279</title>
<path fill="none" stroke="#63b8ff" d="M3156.57,-151.86C3066.03,-144.89 2908.2,-130.52 2774.5,-107 2766.47,-105.59 2758.06,-103.84 2749.82,-101.97"/>
<polygon fill="#63b8ff" stroke="#63b8ff" points="3156.07,-155.33 3166.3,-152.6 3156.6,-148.35 3156.07,-155.33"/>
</g>
<!-- Node280 -->
<g id="node38" class="node">
<title>Node280</title>
<g id="a_node38"><a xlink:href="J3DVertex_8cpp.html" target="_top" xlink:title=" ">
<polygon fill="white" stroke="#666666" points="2925.5,-101.5 2783.5,-101.5 2783.5,-71.5 2925.5,-71.5 2925.5,-101.5"/>
<text text-anchor="start" x="2791.5" y="-89.5" font-family="Helvetica,sans-Serif" font-size="10.00">libs/JSystem/J3DGraphBase</text>
<text text-anchor="middle" x="2854.5" y="-78.5" font-family="Helvetica,sans-Serif" font-size="10.00">/J3DVertex.cpp</text>
</a>
</g>
</g>
<!-- Node236&#45;&gt;Node280 -->
<g id="edge40" class="edge">
<title>Node236&#45;&gt;Node280</title>
<path fill="none" stroke="#63b8ff" d="M3156.34,-145.98C3096.3,-136.7 3009.67,-122.49 2934.5,-107 2927.08,-105.47 2919.3,-103.74 2911.63,-101.95"/>
<polygon fill="#63b8ff" stroke="#63b8ff" points="3155.69,-149.43 3166.11,-147.49 3156.76,-142.51 3155.69,-149.43"/>
</g>
<!-- Node281 -->
<g id="node39" class="node">
<title>Node281</title>
<g id="a_node39"><a xlink:href="J3DShapeFactory_8cpp.html" target="_top" xlink:title=" ">
<polygon fill="white" stroke="#666666" points="3093,-101.5 2944,-101.5 2944,-71.5 3093,-71.5 3093,-101.5"/>
<text text-anchor="start" x="2952" y="-89.5" font-family="Helvetica,sans-Serif" font-size="10.00">libs/JSystem/J3DGraphLoader</text>
<text text-anchor="middle" x="3018.5" y="-78.5" font-family="Helvetica,sans-Serif" font-size="10.00">/J3DShapeFactory.cpp</text>
</a>
</g>
</g>
<!-- Node236&#45;&gt;Node281 -->
<g id="edge41" class="edge">
<title>Node236&#45;&gt;Node281</title>
<path fill="none" stroke="#63b8ff" d="M3175.74,-139.05C3140.57,-127.52 3095.5,-112.74 3062.63,-101.97"/>
<polygon fill="#63b8ff" stroke="#63b8ff" points="3174.28,-142.25 3184.88,-142.04 3176.47,-135.6 3174.28,-142.25"/>
</g>
<!-- Node282 -->
<g id="node40" class="node">
<title>Node282</title>
<g id="a_node40"><a xlink:href="JAISeq_8cpp.html" target="_top" xlink:title=" ">
<polygon fill="white" stroke="#666666" points="3222,-101.5 3111,-101.5 3111,-71.5 3222,-71.5 3222,-101.5"/>
<text text-anchor="start" x="3119" y="-89.5" font-family="Helvetica,sans-Serif" font-size="10.00">libs/JSystem/JAudio2</text>
<text text-anchor="middle" x="3166.5" y="-78.5" font-family="Helvetica,sans-Serif" font-size="10.00">/JAISeq.cpp</text>
</a>
</g>
</g>
<!-- Node236&#45;&gt;Node282 -->
<g id="edge42" class="edge">
<title>Node236&#45;&gt;Node282</title>
<path fill="none" stroke="#63b8ff" d="M3209.47,-134.17C3199.68,-123.53 3188.32,-111.2 3179.74,-101.88"/>
<polygon fill="#63b8ff" stroke="#63b8ff" points="3206.87,-136.5 3216.21,-141.49 3212.01,-131.76 3206.87,-136.5"/>
</g>
<!-- Node283 -->
<g id="node41" class="node">
<title>Node283</title>
<g id="a_node41"><a xlink:href="JASBasicInst_8cpp.html" target="_top" xlink:title=" ">
<polygon fill="white" stroke="#666666" points="3351,-101.5 3240,-101.5 3240,-71.5 3351,-71.5 3351,-101.5"/>
<text text-anchor="start" x="3248" y="-89.5" font-family="Helvetica,sans-Serif" font-size="10.00">libs/JSystem/JAudio2</text>
<text text-anchor="middle" x="3295.5" y="-78.5" font-family="Helvetica,sans-Serif" font-size="10.00">/JASBasicInst.cpp</text>
</a>
</g>
</g>
<!-- Node236&#45;&gt;Node283 -->
<g id="edge43" class="edge">
<title>Node236&#45;&gt;Node283</title>
<path fill="none" stroke="#63b8ff" d="M3251.56,-134.48C3261.57,-123.78 3273.25,-111.29 3282.05,-101.88"/>
<polygon fill="#63b8ff" stroke="#63b8ff" points="3249.28,-131.8 3245,-141.49 3254.39,-136.58 3249.28,-131.8"/>
</g>
<!-- Node284 -->
<g id="node42" class="node">
<title>Node284</title>
<g id="a_node42"><a xlink:href="JASDrumSet_8cpp.html" target="_top" xlink:title=" ">
<polygon fill="white" stroke="#666666" points="3480,-101.5 3369,-101.5 3369,-71.5 3480,-71.5 3480,-101.5"/>
<text text-anchor="start" x="3377" y="-89.5" font-family="Helvetica,sans-Serif" font-size="10.00">libs/JSystem/JAudio2</text>
<text text-anchor="middle" x="3424.5" y="-78.5" font-family="Helvetica,sans-Serif" font-size="10.00">/JASDrumSet.cpp</text>
</a>
</g>
</g>
<!-- Node236&#45;&gt;Node284 -->
<g id="edge44" class="edge">
<title>Node236&#45;&gt;Node284</title>
<path fill="none" stroke="#63b8ff" d="M3281.24,-138.82C3313.41,-127.3 3354.45,-112.59 3384.35,-101.88"/>
<polygon fill="#63b8ff" stroke="#63b8ff" points="3280.36,-135.42 3272.12,-142.09 3282.72,-142.01 3280.36,-135.42"/>
</g>
<!-- Node236&#45;&gt;Node285 -->
<g id="edge49" class="edge">
<title>Node236&#45;&gt;Node285</title>
<path fill="none" stroke="#63b8ff" d="M3304.41,-155.99C3610.42,-151.63 4769.77,-133.53 4931.5,-107 4938.84,-105.8 4946.5,-103.98 4953.88,-101.92"/>
<polygon fill="#63b8ff" stroke="#63b8ff" points="3304.49,-152.49 3294.54,-156.13 3304.59,-159.48 3304.49,-152.49"/>
</g>
<!-- Node267 -->
<g id="node44" class="node">
<title>Node267</title>
<g id="a_node44"><a xlink:href="JKRHeap_8cpp.html" target="_top" xlink:title=" ">
<polygon fill="white" stroke="#666666" points="3646,-101.5 3537,-101.5 3537,-71.5 3646,-71.5 3646,-101.5"/>
<text text-anchor="start" x="3545" y="-89.5" font-family="Helvetica,sans-Serif" font-size="10.00">libs/JSystem/JKernel</text>
<text text-anchor="middle" x="3591.5" y="-78.5" font-family="Helvetica,sans-Serif" font-size="10.00">/JKRHeap.cpp</text>
</a>
</g>
</g>
<!-- Node236&#45;&gt;Node267 -->
<g id="edge51" class="edge">
<title>Node236&#45;&gt;Node267</title>
<path fill="none" stroke="#63b8ff" d="M3304.38,-146.56C3363.67,-137.65 3448.86,-123.66 3522.5,-107 3529.06,-105.52 3535.92,-103.79 3542.66,-101.99"/>
<polygon fill="#63b8ff" stroke="#63b8ff" points="3304.12,-143.06 3294.75,-148 3305.15,-149.98 3304.12,-143.06"/>
</g>
<!-- Node286 -->
<g id="node45" class="node">
<title>Node286</title>
<g id="a_node45"><a xlink:href="JUTConsole_8cpp.html" target="_top" xlink:title=" ">
<polygon fill="white" stroke="#666666" points="5298.5,-101.5 5192.5,-101.5 5192.5,-71.5 5298.5,-71.5 5298.5,-101.5"/>
<text text-anchor="start" x="5200.5" y="-89.5" font-family="Helvetica,sans-Serif" font-size="10.00">libs/JSystem/JUtility</text>
<text text-anchor="middle" x="5245.5" y="-78.5" font-family="Helvetica,sans-Serif" font-size="10.00">/JUTConsole.cpp</text>
</a>
</g>
</g>
<!-- Node236&#45;&gt;Node286 -->
<g id="edge52" class="edge">
<title>Node236&#45;&gt;Node286</title>
<path fill="none" stroke="#63b8ff" d="M3304.94,-156.32C3639.53,-153.11 4996.02,-138.25 5183.5,-107 5190.62,-105.81 5198.06,-104 5205.21,-101.95"/>
<polygon fill="#63b8ff" stroke="#63b8ff" points="3304.95,-152.82 3294.99,-156.42 3305.02,-159.82 3304.95,-152.82"/>
</g>
<!-- Node287 -->
<g id="node46" class="node">
<title>Node287</title>
<g id="a_node46"><a xlink:href="JUTDbPrint_8cpp.html" target="_top" xlink:title=" ">
<polygon fill="white" stroke="#666666" points="3770.5,-101.5 3664.5,-101.5 3664.5,-71.5 3770.5,-71.5 3770.5,-101.5"/>
<text text-anchor="start" x="3672.5" y="-89.5" font-family="Helvetica,sans-Serif" font-size="10.00">libs/JSystem/JUtility</text>
<text text-anchor="middle" x="3717.5" y="-78.5" font-family="Helvetica,sans-Serif" font-size="10.00">/JUTDbPrint.cpp</text>
</a>
</g>
</g>
<!-- Node236&#45;&gt;Node287 -->
<g id="edge53" class="edge">
<title>Node236&#45;&gt;Node287</title>
<path fill="none" stroke="#63b8ff" d="M3304.59,-152.38C3389.75,-146.13 3533.35,-132.67 3654.5,-107 3661,-105.62 3667.78,-103.87 3674.39,-101.98"/>
<polygon fill="#63b8ff" stroke="#63b8ff" points="3304.46,-148.88 3294.74,-153.09 3304.96,-155.86 3304.46,-148.88"/>
</g>
<!-- Node288 -->
<g id="node47" class="node">
<title>Node288</title>
<g id="a_node47"><a xlink:href="JUTGraphFifo_8cpp.html" target="_top" xlink:title=" ">
<polygon fill="white" stroke="#666666" points="3894.5,-101.5 3788.5,-101.5 3788.5,-71.5 3894.5,-71.5 3894.5,-101.5"/>
<text text-anchor="start" x="3796.5" y="-89.5" font-family="Helvetica,sans-Serif" font-size="10.00">libs/JSystem/JUtility</text>
<text text-anchor="middle" x="3841.5" y="-78.5" font-family="Helvetica,sans-Serif" font-size="10.00">/JUTGraphFifo.cpp</text>
</a>
</g>
</g>
<!-- Node236&#45;&gt;Node288 -->
<g id="edge54" class="edge">
<title>Node236&#45;&gt;Node288</title>
<path fill="none" stroke="#63b8ff" d="M3304.5,-155.27C3410.63,-151.66 3611.77,-140.61 3779.5,-107 3786.14,-105.67 3793.07,-103.89 3799.79,-101.95"/>
<polygon fill="#63b8ff" stroke="#63b8ff" points="3304.68,-151.76 3294.8,-155.59 3304.91,-158.76 3304.68,-151.76"/>
</g>
<!-- Node289 -->
<g id="node48" class="node">
<title>Node289</title>
<g id="a_node48"><a xlink:href="JUTResFont_8cpp.html" target="_top" xlink:title=" ">
<polygon fill="white" stroke="#666666" points="5174.5,-101.5 5068.5,-101.5 5068.5,-71.5 5174.5,-71.5 5174.5,-101.5"/>
<text text-anchor="start" x="5076.5" y="-89.5" font-family="Helvetica,sans-Serif" font-size="10.00">libs/JSystem/JUtility</text>
<text text-anchor="middle" x="5121.5" y="-78.5" font-family="Helvetica,sans-Serif" font-size="10.00">/JUTResFont.cpp</text>
</a>
</g>
</g>
<!-- Node236&#45;&gt;Node289 -->
<g id="edge55" class="edge">
<title>Node236&#45;&gt;Node289</title>
<path fill="none" stroke="#63b8ff" d="M3304.89,-156.18C3625.99,-152.49 4884.8,-136.27 5059.5,-107 5066.62,-105.81 5074.06,-103.99 5081.21,-101.94"/>
<polygon fill="#63b8ff" stroke="#63b8ff" points="3304.89,-152.68 3294.94,-156.3 3304.97,-159.68 3304.89,-152.68"/>
</g>
<!-- Node255&#45;&gt;Node6 -->
<g id="edge26" class="edge">
<title>Node255&#45;&gt;Node6</title>
<path fill="none" stroke="#63b8ff" d="M1288.23,-67.55C1252.73,-56.02 1207.22,-41.24 1174.04,-30.47"/>
<polygon fill="#63b8ff" stroke="#63b8ff" points="1286.87,-70.79 1297.46,-70.55 1289.03,-64.13 1286.87,-70.79"/>
</g>
<!-- Node293&#45;&gt;Node286 -->
<g id="edge57" class="edge">
<title>Node293&#45;&gt;Node286</title>
<path fill="none" stroke="#63b8ff" d="M4805.12,-142.73C4972.82,-119.23 5020.37,-139.98 5183.5,-107 5190.14,-105.66 5197.07,-103.87 5203.79,-101.93"/>
<polygon fill="#63b8ff" stroke="#63b8ff" points="4804.8,-139.24 4795.4,-144.13 4805.79,-146.17 4804.8,-139.24"/>
</g>
<!-- Node293&#45;&gt;Node289 -->
<g id="edge58" class="edge">
<title>Node293&#45;&gt;Node289</title>
<path fill="none" stroke="#63b8ff" d="M4805.12,-142.64C4918.21,-124.19 4950.51,-131.6 5059.5,-107 5065.77,-105.58 5072.33,-103.83 5078.73,-101.96"/>
<polygon fill="#63b8ff" stroke="#63b8ff" points="4804.7,-139.16 4795.42,-144.26 4805.85,-146.06 4804.7,-139.16"/>
</g>
</g>
</svg>
