<?xml version="1.0" encoding="UTF-8" standalone="no"?>
<!DOCTYPE svg PUBLIC "-//W3C//DTD SVG 1.1//EN"
 "http://www.w3.org/Graphics/SVG/1.1/DTD/svg11.dtd">
<!-- Generated by graphviz version 7.0.5 (20221223.1930)
 -->
<!-- Title: libs/JSystem/JKernel/JKRDvdFile.cpp Pages: 1 -->
<!--zoomable 511 -->
<svg id="main" version="1.1" xmlns="http://www.w3.org/2000/svg" xmlns:xlink="http://www.w3.org/1999/xlink" xml:space="preserve" onload="init(evt)">
<style type="text/css"><![CDATA[
.edge:hover path { stroke: red; }
.edge:hover polygon { stroke: red; fill: red; }
]]></style>
<script type="text/javascript"><![CDATA[
var edges = document.getElementsByTagName('g');
if (edges && edges.length) {
  for (var i=0;i<edges.length;i++) {
    if (edges[i].id.substr(0,4)=='edge') {
      edges[i].setAttribute('class','edge');
    }
  }
}
]]></script>
        <defs>
                <circle id="rim" cx="0" cy="0" r="7"/>
                <circle id="rim2" cx="0" cy="0" r="3.5"/>
                <g id="zoomPlus">
                        <use xlink:href="#rim" fill="#404040">
                                <set attributeName="fill" to="#808080" begin="zoomplus.mouseover" end="zoomplus.mouseout"/>
                        </use>
                        <path d="M-4,0h8M0,-4v8" fill="none" stroke="white" stroke-width="1.5" pointer-events="none"/>
                </g>
                <g id="zoomMin">
                        <use xlink:href="#rim" fill="#404040">
                                <set attributeName="fill" to="#808080" begin="zoomminus.mouseover" end="zoomminus.mouseout"/>
                        </use>
                        <path d="M-4,0h8" fill="none" stroke="white" stroke-width="1.5" pointer-events="none"/>
                </g>
                <g id="dirArrow">
                        <path fill="none" stroke="white" stroke-width="1.5" d="M0,-3.0v7 M-2.5,-0.5L0,-3.0L2.5,-0.5"/>
                </g>
               <g id="resetDef">
                       <use xlink:href="#rim2" fill="#404040">
                               <set attributeName="fill" to="#808080" begin="reset.mouseover" end="reset.mouseout"/>
                       </use>
               </g>
        </defs>

<script type="text/javascript">
var viewWidth = 1124;
var viewHeight = 511;
var sectionId = 'dynsection-0';
</script>
<script xlink:href="svgpan.js"/>
<svg id="graph" class="graph">
<g id="viewport">
<title>libs/JSystem/JKernel/JKRDvdFile.cpp</title>
<!-- Node1 -->
<g id="node1" class="node">
<title>Node1</title>
<g id="a_node1"><a xlink:title=" ">
<polygon fill="#999999" stroke="#666666" points="348.5,-503 239.5,-503 239.5,-473 348.5,-473 348.5,-503"/>
<text text-anchor="start" x="247.5" y="-491" font-family="Helvetica,sans-Serif" font-size="10.00">libs/JSystem/JKernel</text>
<text text-anchor="middle" x="294" y="-480" font-family="Helvetica,sans-Serif" font-size="10.00">/JKRDvdFile.cpp</text>
</a>
</g>
</g>
<!-- Node2 -->
<g id="node2" class="node">
<title>Node2</title>
<g id="a_node2"><a xlink:href="JKRDvdFile_8h.html" target="_top" xlink:title=" ">
<polygon fill="white" stroke="#666666" points="370.5,-316 217.5,-316 217.5,-297 370.5,-297 370.5,-316"/>
<text text-anchor="middle" x="294" y="-304" font-family="Helvetica,sans-Serif" font-size="10.00">JSystem/JKernel/JKRDvdFile.h</text>
</a>
</g>
</g>
<!-- Node1&#45;&gt;Node2 -->
<g id="edge1" class="edge">
<title>Node1&#45;&gt;Node2</title>
<path fill="none" stroke="#63b8ff" d="M294,-472.61C294,-440.76 294,-364.22 294,-327.64"/>
<polygon fill="#63b8ff" stroke="#63b8ff" points="297.5,-328.01 294,-318.01 290.5,-328.01 297.5,-328.01"/>
</g>
<!-- Node13 -->
<g id="node13" class="node">
<title>Node13</title>
<g id="a_node13"><a xlink:href="JUTAssert_8h.html" target="_top" xlink:title=" ">
<polygon fill="white" stroke="#666666" points="200,-437 54,-437 54,-418 200,-418 200,-437"/>
<text text-anchor="middle" x="127" y="-425" font-family="Helvetica,sans-Serif" font-size="10.00">JSystem/JUtility/JUTAssert.h</text>
</a>
</g>
</g>
<!-- Node1&#45;&gt;Node13 -->
<g id="edge15" class="edge">
<title>Node1&#45;&gt;Node13</title>
<path fill="none" stroke="#63b8ff" d="M252.72,-472.54C225.17,-462.89 189.29,-450.32 162.92,-441.08"/>
<polygon fill="#63b8ff" stroke="#63b8ff" points="164.28,-437.85 153.68,-437.85 161.96,-444.46 164.28,-437.85"/>
</g>
<!-- Node14 -->
<g id="node14" class="node">
<title>Node14</title>
<g id="a_node14"><a xlink:href="JUTException_8h.html" target="_top" xlink:title=" ">
<polygon fill="white" stroke="#666666" points="889.5,-437 730.5,-437 730.5,-418 889.5,-418 889.5,-437"/>
<text text-anchor="middle" x="810" y="-425" font-family="Helvetica,sans-Serif" font-size="10.00">JSystem/JUtility/JUTException.h</text>
</a>
</g>
</g>
<!-- Node1&#45;&gt;Node14 -->
<g id="edge17" class="edge">
<title>Node1&#45;&gt;Node14</title>
<path fill="none" stroke="#63b8ff" d="M348.73,-480.79C437.16,-470.77 612.35,-450.91 719.55,-438.75"/>
<polygon fill="#63b8ff" stroke="#63b8ff" points="719.62,-442.27 729.16,-437.66 718.83,-435.31 719.62,-442.27"/>
</g>
<!-- Node3 -->
<g id="node3" class="node">
<title>Node3</title>
<g id="a_node3"><a xlink:href="JKRFile_8h.html" target="_top" xlink:title=" ">
<polygon fill="white" stroke="#666666" points="384,-255.5 248,-255.5 248,-236.5 384,-236.5 384,-255.5"/>
<text text-anchor="middle" x="316" y="-243.5" font-family="Helvetica,sans-Serif" font-size="10.00">JSystem/JKernel/JKRFile.h</text>
</a>
</g>
</g>
<!-- Node2&#45;&gt;Node3 -->
<g id="edge2" class="edge">
<title>Node2&#45;&gt;Node3</title>
<path fill="none" stroke="#63b8ff" d="M297.25,-296.87C300.27,-288.83 304.88,-276.57 308.77,-266.22"/>
<polygon fill="#63b8ff" stroke="#63b8ff" points="311.96,-267.68 312.21,-257.08 305.41,-265.21 311.96,-267.68"/>
</g>
<!-- Node8 -->
<g id="node8" class="node">
<title>Node8</title>
<g id="a_node8"><a xlink:href="dvd_8h.html" target="_top" xlink:title=" ">
<polygon fill="white" stroke="#666666" points="241,-140 149,-140 149,-121 241,-121 241,-140"/>
<text text-anchor="middle" x="195" y="-128" font-family="Helvetica,sans-Serif" font-size="10.00">dolphin/dvd/dvd.h</text>
</a>
</g>
</g>
<!-- Node2&#45;&gt;Node8 -->
<g id="edge7" class="edge">
<title>Node2&#45;&gt;Node8</title>
<path fill="none" stroke="#63b8ff" d="M278.94,-296.7C266.61,-288.79 249.54,-276.11 239,-261 215.08,-226.7 203.25,-178.31 198.19,-151.44"/>
<polygon fill="#63b8ff" stroke="#63b8ff" points="201.7,-151.18 196.54,-141.93 194.8,-152.38 201.7,-151.18"/>
</g>
<!-- Node9 -->
<g id="node9" class="node">
<title>Node9</title>
<g id="a_node9"><a xlink:href="OSMessage_8h.html" target="_top" xlink:title=" ">
<polygon fill="white" stroke="#666666" points="191.5,-255.5 66.5,-255.5 66.5,-236.5 191.5,-236.5 191.5,-255.5"/>
<text text-anchor="middle" x="129" y="-243.5" font-family="Helvetica,sans-Serif" font-size="10.00">dolphin/os/OSMessage.h</text>
</a>
</g>
</g>
<!-- Node2&#45;&gt;Node9 -->
<g id="edge9" class="edge">
<title>Node2&#45;&gt;Node9</title>
<path fill="none" stroke="#63b8ff" d="M268.94,-296.62C241.2,-286.78 196.25,-270.84 164.81,-259.69"/>
<polygon fill="#63b8ff" stroke="#63b8ff" points="166.32,-256.52 155.72,-256.47 163.98,-263.11 166.32,-256.52"/>
</g>
<!-- Node12 -->
<g id="node12" class="node">
<title>Node12</title>
<g id="a_node12"><a xlink:href="OSMutex_8h.html" target="_top" xlink:title=" ">
<polygon fill="white" stroke="#666666" points="514,-255.5 402,-255.5 402,-236.5 514,-236.5 514,-255.5"/>
<text text-anchor="middle" x="458" y="-243.5" font-family="Helvetica,sans-Serif" font-size="10.00">dolphin/os/OSMutex.h</text>
</a>
</g>
</g>
<!-- Node2&#45;&gt;Node12 -->
<g id="edge13" class="edge">
<title>Node2&#45;&gt;Node12</title>
<path fill="none" stroke="#63b8ff" d="M318.91,-296.62C346.48,-286.78 391.15,-270.84 422.41,-259.69"/>
<polygon fill="#63b8ff" stroke="#63b8ff" points="423.19,-263.13 431.43,-256.48 420.84,-256.54 423.19,-263.13"/>
</g>
<!-- Node4 -->
<g id="node4" class="node">
<title>Node4</title>
<g id="a_node4"><a xlink:href="JKRDisposer_8h.html" target="_top" xlink:title=" ">
<polygon fill="white" stroke="#666666" points="540,-195 382,-195 382,-176 540,-176 540,-195"/>
<text text-anchor="middle" x="461" y="-183" font-family="Helvetica,sans-Serif" font-size="10.00">JSystem/JKernel/JKRDisposer.h</text>
</a>
</g>
</g>
<!-- Node3&#45;&gt;Node4 -->
<g id="edge3" class="edge">
<title>Node3&#45;&gt;Node4</title>
<path fill="none" stroke="#63b8ff" d="M338.02,-236.12C362.08,-226.41 400.87,-210.76 428.44,-199.64"/>
<polygon fill="#63b8ff" stroke="#63b8ff" points="429.4,-203.02 437.37,-196.03 426.78,-196.53 429.4,-203.02"/>
</g>
<!-- Node5 -->
<g id="node5" class="node">
<title>Node5</title>
<g id="a_node5"><a xlink:href="JSUList_8h.html" target="_top" xlink:title=" ">
<polygon fill="white" stroke="#666666" points="539.5,-140 396.5,-140 396.5,-121 539.5,-121 539.5,-140"/>
<text text-anchor="middle" x="468" y="-128" font-family="Helvetica,sans-Serif" font-size="10.00">JSystem/JSupport/JSUList.h</text>
</a>
</g>
</g>
<!-- Node4&#45;&gt;Node5 -->
<g id="edge4" class="edge">
<title>Node4&#45;&gt;Node5</title>
<path fill="none" stroke="#63b8ff" d="M462.16,-175.75C463.02,-169.19 464.24,-159.95 465.34,-151.6"/>
<polygon fill="#63b8ff" stroke="#63b8ff" points="468.78,-152.31 466.62,-141.94 461.84,-151.4 468.78,-152.31"/>
</g>
<!-- Node6 -->
<g id="node6" class="node">
<title>Node6</title>
<g id="a_node6"><a xlink:href="types_8h.html" target="_top" xlink:title=" ">
<polygon fill="white" stroke="#666666" points="690.5,-85 609.5,-85 609.5,-66 690.5,-66 690.5,-85"/>
<text text-anchor="middle" x="650" y="-73" font-family="Helvetica,sans-Serif" font-size="10.00">dolphin/types.h</text>
</a>
</g>
</g>
<!-- Node5&#45;&gt;Node6 -->
<g id="edge5" class="edge">
<title>Node5&#45;&gt;Node6</title>
<path fill="none" stroke="#63b8ff" d="M498.87,-120.51C529.03,-111.73 575.14,-98.3 608.5,-88.59"/>
<polygon fill="#63b8ff" stroke="#63b8ff" points="609.2,-92.03 617.83,-85.87 607.25,-85.31 609.2,-92.03"/>
</g>
<!-- Node7 -->
<g id="node7" class="node">
<title>Node7</title>
<g id="a_node7"><a xlink:href="stddef_8h.html" target="_top" xlink:title=" ">
<polygon fill="white" stroke="#666666" points="718,-30 582,-30 582,0 718,0 718,-30"/>
<text text-anchor="start" x="590" y="-18" font-family="Helvetica,sans-Serif" font-size="10.00">MSL_C/MSL_Common/Src</text>
<text text-anchor="middle" x="650" y="-7" font-family="Helvetica,sans-Serif" font-size="10.00">/stddef.h</text>
</a>
</g>
</g>
<!-- Node6&#45;&gt;Node7 -->
<g id="edge6" class="edge">
<title>Node6&#45;&gt;Node7</title>
<path fill="none" stroke="#63b8ff" d="M650,-65.87C650,-59.4 650,-50.2 650,-41.45"/>
<polygon fill="#63b8ff" stroke="#63b8ff" points="653.5,-41.63 650,-31.63 646.5,-41.63 653.5,-41.63"/>
</g>
<!-- Node8&#45;&gt;Node6 -->
<g id="edge8" class="edge">
<title>Node8&#45;&gt;Node6</title>
<path fill="none" stroke="#63b8ff" d="M241.43,-122.31C244.67,-121.85 247.88,-121.41 251,-121 375.23,-104.65 521.74,-89.32 597.98,-81.64"/>
<polygon fill="#63b8ff" stroke="#63b8ff" points="598.05,-85.15 607.65,-80.67 597.35,-78.18 598.05,-85.15"/>
</g>
<!-- Node10 -->
<g id="node10" class="node">
<title>Node10</title>
<g id="a_node10"><a xlink:href="OSThread_8h.html" target="_top" xlink:title=" ">
<polygon fill="white" stroke="#666666" points="364,-195 248,-195 248,-176 364,-176 364,-195"/>
<text text-anchor="middle" x="306" y="-183" font-family="Helvetica,sans-Serif" font-size="10.00">dolphin/os/OSThread.h</text>
</a>
</g>
</g>
<!-- Node9&#45;&gt;Node10 -->
<g id="edge10" class="edge">
<title>Node9&#45;&gt;Node10</title>
<path fill="none" stroke="#63b8ff" d="M155.88,-236.12C185.77,-226.24 234.28,-210.21 268.03,-199.05"/>
<polygon fill="#63b8ff" stroke="#63b8ff" points="269.03,-202.4 277.43,-195.94 266.83,-195.76 269.03,-202.4"/>
</g>
<!-- Node11 -->
<g id="node11" class="node">
<title>Node11</title>
<g id="a_node11"><a xlink:href="OSContext_8h.html" target="_top" xlink:title=" ">
<polygon fill="white" stroke="#666666" points="378.5,-140 259.5,-140 259.5,-121 378.5,-121 378.5,-140"/>
<text text-anchor="middle" x="319" y="-128" font-family="Helvetica,sans-Serif" font-size="10.00">dolphin/os/OSContext.h</text>
</a>
</g>
</g>
<!-- Node10&#45;&gt;Node11 -->
<g id="edge11" class="edge">
<title>Node10&#45;&gt;Node11</title>
<path fill="none" stroke="#63b8ff" d="M308.15,-175.75C309.76,-169.19 312.02,-159.95 314.07,-151.6"/>
<polygon fill="#63b8ff" stroke="#63b8ff" points="317.46,-152.46 316.45,-141.91 310.66,-150.79 317.46,-152.46"/>
</g>
<!-- Node11&#45;&gt;Node6 -->
<g id="edge12" class="edge">
<title>Node11&#45;&gt;Node6</title>
<path fill="none" stroke="#63b8ff" d="M375.15,-120.51C437.53,-110.52 537.42,-94.53 598.05,-84.82"/>
<polygon fill="#63b8ff" stroke="#63b8ff" points="598.45,-88.3 607.77,-83.26 597.35,-81.39 598.45,-88.3"/>
</g>
<!-- Node12&#45;&gt;Node10 -->
<g id="edge14" class="edge">
<title>Node12&#45;&gt;Node10</title>
<path fill="none" stroke="#63b8ff" d="M434.91,-236.12C409.58,-226.37 368.68,-210.62 339.75,-199.49"/>
<polygon fill="#63b8ff" stroke="#63b8ff" points="341.31,-196.34 330.72,-196.01 338.79,-202.87 341.31,-196.34"/>
</g>
<!-- Node13&#45;&gt;Node6 -->
<g id="edge16" class="edge">
<title>Node13&#45;&gt;Node6</title>
<path fill="none" stroke="#63b8ff" d="M104.29,-417.54C67.77,-401.46 0,-364 0,-307.5 0,-307.5 0,-307.5 0,-184.5 0,-144.74 26.91,-137.66 63,-121 157.48,-77.38 473.09,-75 598.24,-75.85"/>
<polygon fill="#63b8ff" stroke="#63b8ff" points="597.85,-79.35 607.88,-75.93 597.9,-72.35 597.85,-79.35"/>
</g>
<!-- Node14&#45;&gt;Node6 -->
<g id="edge38" class="edge">
<title>Node14&#45;&gt;Node6</title>
<path fill="none" stroke="#63b8ff" d="M814.02,-417.86C828.77,-384.89 877.11,-264.46 840,-176 827.78,-146.88 821.22,-138.61 795,-121 767.21,-102.34 731.26,-91.24 702.12,-84.79"/>
<polygon fill="#63b8ff" stroke="#63b8ff" points="702.89,-81.37 692.38,-82.77 701.46,-88.23 702.89,-81.37"/>
</g>
<!-- Node15 -->
<g id="node15" class="node">
<title>Node15</title>
<g id="a_node15"><a xlink:href="JKRThread_8h.html" target="_top" xlink:title=" ">
<polygon fill="white" stroke="#666666" points="655,-376.5 505,-376.5 505,-357.5 655,-357.5 655,-376.5"/>
<text text-anchor="middle" x="580" y="-364.5" font-family="Helvetica,sans-Serif" font-size="10.00">JSystem/JKernel/JKRThread.h</text>
</a>
</g>
</g>
<!-- Node14&#45;&gt;Node15 -->
<g id="edge18" class="edge">
<title>Node14&#45;&gt;Node15</title>
<path fill="none" stroke="#63b8ff" d="M774.82,-417.55C735,-407.42 669.98,-390.89 626.12,-379.73"/>
<polygon fill="#63b8ff" stroke="#63b8ff" points="627.2,-376.39 616.65,-377.32 625.47,-383.18 627.2,-376.39"/>
</g>
<!-- Node18 -->
<g id="node18" class="node">
<title>Node18</title>
<g id="a_node18"><a xlink:href="JUTGamePad_8h.html" target="_top" xlink:title=" ">
<polygon fill="white" stroke="#666666" points="837,-261 701,-261 701,-231 837,-231 837,-261"/>
<text text-anchor="start" x="709" y="-249" font-family="Helvetica,sans-Serif" font-size="10.00">JSystem/JUtility/JUTGame</text>
<text text-anchor="middle" x="769" y="-238" font-family="Helvetica,sans-Serif" font-size="10.00">Pad.h</text>
</a>
</g>
</g>
<!-- Node14&#45;&gt;Node18 -->
<g id="edge26" class="edge">
<title>Node14&#45;&gt;Node18</title>
<path fill="none" stroke="#63b8ff" d="M808.02,-417.84C802.08,-391.83 784.22,-313.64 774.86,-272.67"/>
<polygon fill="#63b8ff" stroke="#63b8ff" points="778.28,-271.93 772.65,-262.96 771.46,-273.49 778.28,-271.93"/>
</g>
<!-- Node20 -->
<g id="node20" class="node">
<title>Node20</title>
<g id="a_node20"><a xlink:href="____va__arg_8h.html" target="_top" xlink:title=" ">
<polygon fill="white" stroke="#666666" points="975,-382 865,-382 865,-352 975,-352 975,-382"/>
<text text-anchor="start" x="873" y="-370" font-family="Helvetica,sans-Serif" font-size="10.00">Runtime.PPCEABI.H/</text>
<text text-anchor="middle" x="920" y="-359" font-family="Helvetica,sans-Serif" font-size="10.00">__va_arg.h</text>
</a>
</g>
</g>
<!-- Node14&#45;&gt;Node20 -->
<g id="edge32" class="edge">
<title>Node14&#45;&gt;Node20</title>
<path fill="none" stroke="#63b8ff" d="M826.71,-417.62C841.58,-409.7 863.88,-397.85 882.94,-387.71"/>
<polygon fill="#63b8ff" stroke="#63b8ff" points="884.33,-390.94 891.51,-383.15 881.04,-384.76 884.33,-390.94"/>
</g>
<!-- Node21 -->
<g id="node21" class="node">
<title>Node21</title>
<g id="a_node21"><a xlink:href="GXEnum_8h.html" target="_top" xlink:title=" ">
<polygon fill="white" stroke="#666666" points="1058,-316 948,-316 948,-297 1058,-297 1058,-316"/>
<text text-anchor="middle" x="1003" y="-304" font-family="Helvetica,sans-Serif" font-size="10.00">dolphin/gx/GXEnum.h</text>
</a>
</g>
</g>
<!-- Node14&#45;&gt;Node21 -->
<g id="edge34" class="edge">
<title>Node14&#45;&gt;Node21</title>
<path fill="none" stroke="#63b8ff" d="M871.66,-417.52C915.06,-409.97 968.13,-397.88 984,-382 998.29,-367.7 1002.32,-344.26 1003.23,-327.49"/>
<polygon fill="#63b8ff" stroke="#63b8ff" points="1006.73,-327.8 1003.41,-317.74 999.73,-327.67 1006.73,-327.8"/>
</g>
<!-- Node22 -->
<g id="node22" class="node">
<title>Node22</title>
<g id="a_node22"><a xlink:href="OSError_8h.html" target="_top" xlink:title=" ">
<polygon fill="white" stroke="#666666" points="1116,-140 1010,-140 1010,-121 1116,-121 1116,-140"/>
<text text-anchor="middle" x="1063" y="-128" font-family="Helvetica,sans-Serif" font-size="10.00">dolphin/os/OSError.h</text>
</a>
</g>
</g>
<!-- Node14&#45;&gt;Node22 -->
<g id="edge36" class="edge">
<title>Node14&#45;&gt;Node22</title>
<path fill="none" stroke="#63b8ff" d="M889.83,-424.72C971.34,-418.15 1086,-393.6 1086,-307.5 1086,-307.5 1086,-307.5 1086,-245 1086,-211.58 1076.3,-173.71 1069.5,-151.26"/>
<polygon fill="#63b8ff" stroke="#63b8ff" points="1072.91,-150.42 1066.56,-141.94 1066.23,-152.53 1072.91,-150.42"/>
</g>
<!-- Node23 -->
<g id="node23" class="node">
<title>Node23</title>
<g id="a_node23"><a xlink:href="global_8h.html" target="_top" xlink:title=" ">
<polygon fill="white" stroke="#666666" points="172,-376.5 122,-376.5 122,-357.5 172,-357.5 172,-376.5"/>
<text text-anchor="middle" x="147" y="-364.5" font-family="Helvetica,sans-Serif" font-size="10.00">global.h</text>
</a>
</g>
</g>
<!-- Node14&#45;&gt;Node23 -->
<g id="edge39" class="edge">
<title>Node14&#45;&gt;Node23</title>
<path fill="none" stroke="#63b8ff" d="M730.03,-419.44C585.91,-406.73 287.95,-380.44 183.86,-371.25"/>
<polygon fill="#63b8ff" stroke="#63b8ff" points="184.2,-367.77 173.94,-370.38 183.59,-374.74 184.2,-367.77"/>
</g>
<!-- Node15&#45;&gt;Node6 -->
<g id="edge25" class="edge">
<title>Node15&#45;&gt;Node6</title>
<path fill="none" stroke="#63b8ff" d="M578.8,-357.02C575.41,-329.29 567.34,-242.87 588,-176 597.73,-144.52 619.95,-113.06 634.97,-94.19"/>
<polygon fill="#63b8ff" stroke="#63b8ff" points="637.66,-96.42 641.3,-86.47 632.25,-91.98 637.66,-96.42"/>
</g>
<!-- Node15&#45;&gt;Node9 -->
<g id="edge22" class="edge">
<title>Node15&#45;&gt;Node9</title>
<path fill="none" stroke="#63b8ff" d="M504.86,-360.95C412.11,-353.84 260.34,-339.1 209,-316 182.43,-304.05 158.04,-280.37 143.35,-264.11"/>
<polygon fill="#63b8ff" stroke="#63b8ff" points="146.08,-261.92 136.87,-256.68 140.8,-266.52 146.08,-261.92"/>
</g>
<!-- Node16 -->
<g id="node16" class="node">
<title>Node16</title>
<g id="a_node16"><a xlink:href="JKRHeap_8h.html" target="_top" xlink:title=" ">
<polygon fill="white" stroke="#666666" points="551.5,-316 408.5,-316 408.5,-297 551.5,-297 551.5,-316"/>
<text text-anchor="middle" x="480" y="-304" font-family="Helvetica,sans-Serif" font-size="10.00">JSystem/JKernel/JKRHeap.h</text>
</a>
</g>
</g>
<!-- Node15&#45;&gt;Node16 -->
<g id="edge19" class="edge">
<title>Node15&#45;&gt;Node16</title>
<path fill="none" stroke="#63b8ff" d="M564.81,-357.12C548.95,-347.84 523.82,-333.13 505.02,-322.14"/>
<polygon fill="#63b8ff" stroke="#63b8ff" points="507.04,-319.26 496.64,-317.23 503.5,-325.3 507.04,-319.26"/>
</g>
<!-- Node17 -->
<g id="node17" class="node">
<title>Node17</title>
<g id="a_node17"><a xlink:href="OSTime_8h.html" target="_top" xlink:title=" ">
<polygon fill="white" stroke="#666666" points="703.5,-195 596.5,-195 596.5,-176 703.5,-176 703.5,-195"/>
<text text-anchor="middle" x="650" y="-183" font-family="Helvetica,sans-Serif" font-size="10.00">dolphin/os/OSTime.h</text>
</a>
</g>
</g>
<!-- Node15&#45;&gt;Node17 -->
<g id="edge23" class="edge">
<title>Node15&#45;&gt;Node17</title>
<path fill="none" stroke="#63b8ff" d="M583.38,-357.34C594.05,-329.98 627.22,-244.92 642.35,-206.13"/>
<polygon fill="#63b8ff" stroke="#63b8ff" points="645.57,-207.49 645.94,-196.9 639.05,-204.95 645.57,-207.49"/>
</g>
<!-- Node16&#45;&gt;Node4 -->
<g id="edge20" class="edge">
<title>Node16&#45;&gt;Node4</title>
<path fill="none" stroke="#63b8ff" d="M492.91,-296.61C503.24,-288.65 516.96,-275.94 523,-261 528,-248.64 529.09,-242.86 523,-231 516.38,-218.11 504.1,-208.11 492.21,-200.88"/>
<polygon fill="#63b8ff" stroke="#63b8ff" points="494.2,-197.99 483.76,-196.2 490.81,-204.11 494.2,-197.99"/>
</g>
<!-- Node16&#45;&gt;Node12 -->
<g id="edge21" class="edge">
<title>Node16&#45;&gt;Node12</title>
<path fill="none" stroke="#63b8ff" d="M476.75,-296.87C473.73,-288.83 469.12,-276.57 465.23,-266.22"/>
<polygon fill="#63b8ff" stroke="#63b8ff" points="468.59,-265.21 461.79,-257.08 462.04,-267.68 468.59,-265.21"/>
</g>
<!-- Node17&#45;&gt;Node6 -->
<g id="edge24" class="edge">
<title>Node17&#45;&gt;Node6</title>
<path fill="none" stroke="#63b8ff" d="M650,-175.66C650,-158.57 650,-120.61 650,-96.92"/>
<polygon fill="#63b8ff" stroke="#63b8ff" points="653.5,-96.97 650,-86.97 646.5,-96.97 653.5,-96.97"/>
</g>
<!-- Node18&#45;&gt;Node4 -->
<g id="edge27" class="edge">
<title>Node18&#45;&gt;Node4</title>
<path fill="none" stroke="#63b8ff" d="M700.64,-232.02C646.27,-221.69 571.02,-207.4 519.43,-197.6"/>
<polygon fill="#63b8ff" stroke="#63b8ff" points="520.11,-194.16 509.63,-195.74 518.8,-201.04 520.11,-194.16"/>
</g>
<!-- Node18&#45;&gt;Node6 -->
<g id="edge31" class="edge">
<title>Node18&#45;&gt;Node6</title>
<path fill="none" stroke="#63b8ff" d="M794.28,-230.65C814.26,-217.33 836.95,-196.54 825,-176 797.74,-129.13 739.25,-102.53 697.39,-88.84"/>
<polygon fill="#63b8ff" stroke="#63b8ff" points="698.64,-85.56 688.05,-85.93 696.55,-92.25 698.64,-85.56"/>
</g>
<!-- Node18&#45;&gt;Node17 -->
<g id="edge28" class="edge">
<title>Node18&#45;&gt;Node17</title>
<path fill="none" stroke="#63b8ff" d="M739.58,-230.54C720.83,-221.32 696.66,-209.44 678.15,-200.34"/>
<polygon fill="#63b8ff" stroke="#63b8ff" points="679.87,-197.28 669.35,-196.01 676.78,-203.57 679.87,-197.28"/>
</g>
<!-- Node19 -->
<g id="node19" class="node">
<title>Node19</title>
<g id="a_node19"><a xlink:href="Pad_8h.html" target="_top" xlink:title=" ">
<polygon fill="white" stroke="#666666" points="816,-195 722,-195 722,-176 816,-176 816,-195"/>
<text text-anchor="middle" x="769" y="-183" font-family="Helvetica,sans-Serif" font-size="10.00">dolphin/pad/Pad.h</text>
</a>
</g>
</g>
<!-- Node18&#45;&gt;Node19 -->
<g id="edge29" class="edge">
<title>Node18&#45;&gt;Node19</title>
<path fill="none" stroke="#63b8ff" d="M769,-230.54C769,-223.34 769,-214.53 769,-206.68"/>
<polygon fill="#63b8ff" stroke="#63b8ff" points="772.5,-206.69 769,-196.69 765.5,-206.69 772.5,-206.69"/>
</g>
<!-- Node19&#45;&gt;Node6 -->
<g id="edge30" class="edge">
<title>Node19&#45;&gt;Node6</title>
<path fill="none" stroke="#63b8ff" d="M759.26,-175.66C739.39,-157.62 693.88,-116.32 668.31,-93.12"/>
<polygon fill="#63b8ff" stroke="#63b8ff" points="670.75,-90.61 660.99,-86.48 666.05,-95.79 670.75,-90.61"/>
</g>
<!-- Node20&#45;&gt;Node6 -->
<g id="edge33" class="edge">
<title>Node20&#45;&gt;Node6</title>
<path fill="none" stroke="#63b8ff" d="M920,-351.71C920,-329.37 920,-284.81 920,-247 920,-247 920,-247 920,-184.5 920,-154.33 919.19,-140.3 896,-121 867.23,-97.05 765.52,-85.17 702.25,-79.97"/>
<polygon fill="#63b8ff" stroke="#63b8ff" points="702.66,-76.49 692.41,-79.19 702.11,-83.47 702.66,-76.49"/>
</g>
<!-- Node21&#45;&gt;Node6 -->
<g id="edge35" class="edge">
<title>Node21&#45;&gt;Node6</title>
<path fill="none" stroke="#63b8ff" d="M1002.67,-296.81C1001.01,-266.94 991.24,-167.69 934,-121 899.35,-92.74 774.1,-82.24 702.03,-78.48"/>
<polygon fill="#63b8ff" stroke="#63b8ff" points="702.61,-75.01 692.45,-78.01 702.27,-82 702.61,-75.01"/>
</g>
<!-- Node22&#45;&gt;Node6 -->
<g id="edge37" class="edge">
<title>Node22&#45;&gt;Node6</title>
<path fill="none" stroke="#63b8ff" d="M1009.85,-122.68C930.22,-112.46 780.88,-93.3 701.95,-83.17"/>
<polygon fill="#63b8ff" stroke="#63b8ff" points="702.7,-79.73 692.34,-81.93 701.81,-86.68 702.7,-79.73"/>
</g>
<!-- Node23&#45;&gt;Node6 -->
<g id="edge40" class="edge">
<title>Node23&#45;&gt;Node6</title>
<path fill="none" stroke="#63b8ff" d="M129.49,-357.23C98.68,-340.42 38,-300.51 38,-247 38,-247 38,-247 38,-184.5 38,-131.1 89.34,-137.9 140,-121 223.87,-93.03 485.42,-81.65 597.82,-77.98"/>
<polygon fill="#63b8ff" stroke="#63b8ff" points="597.78,-81.48 607.66,-77.66 597.55,-74.48 597.78,-81.48"/>
</g>
</g>
</svg>
        <g id="navigator" transform="translate(0 0)" fill="#404254">
                <rect fill="#f2f5e9" fill-opacity="0.5" stroke="#606060" stroke-width=".5" x="0" y="0" width="60" height="60"/>
                <use id="zoomplus" xlink:href="#zoomPlus" x="17" y="9" onmousedown="handleZoom(evt,'in')"/>
                <use id="zoomminus" xlink:href="#zoomMin" x="42" y="9" onmousedown="handleZoom(evt,'out')"/>
                <use id="reset" xlink:href="#resetDef" x="30" y="36" onmousedown="handleReset()"/>
                <g id="arrowUp" xlink:href="#dirArrow" transform="translate(30 24)" onmousedown="handlePan(0,-1)">
                  <use xlink:href="#rim" fill="#404040">
                        <set attributeName="fill" to="#808080" begin="arrowUp.mouseover" end="arrowUp.mouseout"/>
                  </use>
                  <path fill="none" stroke="white" stroke-width="1.5" d="M0,-3.0v7 M-2.5,-0.5L0,-3.0L2.5,-0.5"/>
                </g>
                <g id="arrowRight" xlink:href="#dirArrow" transform="rotate(90) translate(36 -43)" onmousedown="handlePan(1,0)">
                  <use xlink:href="#rim" fill="#404040">
                        <set attributeName="fill" to="#808080" begin="arrowRight.mouseover" end="arrowRight.mouseout"/>
                  </use>
                  <path fill="none" stroke="white" stroke-width="1.5" d="M0,-3.0v7 M-2.5,-0.5L0,-3.0L2.5,-0.5"/>
                </g>
                <g id="arrowDown" xlink:href="#dirArrow" transform="rotate(180) translate(-30 -48)" onmousedown="handlePan(0,1)">
                  <use xlink:href="#rim" fill="#404040">
                        <set attributeName="fill" to="#808080" begin="arrowDown.mouseover" end="arrowDown.mouseout"/>
                  </use>
                  <path fill="none" stroke="white" stroke-width="1.5" d="M0,-3.0v7 M-2.5,-0.5L0,-3.0L2.5,-0.5"/>
                </g>
                <g id="arrowLeft" xlink:href="#dirArrow" transform="rotate(270) translate(-36 17)" onmousedown="handlePan(-1,0)">
                  <use xlink:href="#rim" fill="#404040">
                        <set attributeName="fill" to="#808080" begin="arrowLeft.mouseover" end="arrowLeft.mouseout"/>
                  </use>
                  <path fill="none" stroke="white" stroke-width="1.5" d="M0,-3.0v7 M-2.5,-0.5L0,-3.0L2.5,-0.5"/>
                </g>
        </g>
        <svg viewBox="0 0 15 15" width="100%" height="30px" preserveAspectRatio="xMaxYMin meet">
         <g id="arrow_out" transform="scale(0.3 0.3)">
          <a xlink:href="JKRDvdFile_8cpp__incl_org.svg" target="_base">
           <rect id="button" ry="5" rx="5" y="6" x="6" height="38" width="38"
                fill="#f2f5e9" fill-opacity="0.5" stroke="#606060" stroke-width="1.0"/>
           <path id="arrow"
             d="M 11.500037,31.436501 C 11.940474,20.09759 22.043105,11.32322 32.158766,21.979434 L 37.068811,17.246167 C 37.068811,17.246167 37.088388,32 37.088388,32 L 22.160133,31.978069 C 22.160133,31.978069 26.997745,27.140456 26.997745,27.140456 C 18.528582,18.264221 13.291696,25.230495 11.500037,31.436501 z"
             style="fill:#404040;"/>
          </a>
         </g>
        </svg>
</svg>
