<?xml version="1.0" encoding="UTF-8" standalone="no"?>
<!DOCTYPE svg PUBLIC "-//W3C//DTD SVG 1.1//EN"
 "http://www.w3.org/Graphics/SVG/1.1/DTD/svg11.dtd">
<!-- Generated by graphviz version 7.0.5 (20221223.1930)
 -->
<!-- Title: libs/JSystem/JKernel/JKRHeap.cpp Pages: 1 -->
<svg width="2229pt" height="522pt"
 viewBox="0.00 0.00 2228.60 522.00" xmlns="http://www.w3.org/2000/svg" xmlns:xlink="http://www.w3.org/1999/xlink">
<g id="graph0" class="graph" transform="scale(1 1) rotate(0) translate(4 518)">
<title>libs/JSystem/JKernel/JKRHeap.cpp</title>
<!-- Node1 -->
<g id="node1" class="node">
<title>Node1</title>
<g id="a_node1"><a xlink:title=" ">
<polygon fill="#999999" stroke="#666666" points="1734.04,-514 1625.04,-514 1625.04,-484 1734.04,-484 1734.04,-514"/>
<text text-anchor="start" x="1633.04" y="-502" font-family="Helvetica,sans-Serif" font-size="10.00">libs/JSystem/JKernel</text>
<text text-anchor="middle" x="1679.54" y="-491" font-family="Helvetica,sans-Serif" font-size="10.00">/JKRHeap.cpp</text>
</a>
</g>
</g>
<!-- Node2 -->
<g id="node2" class="node">
<title>Node2</title>
<g id="a_node2"><a xlink:href="JKRHeap_8h.html" target="_top" xlink:title=" ">
<polygon fill="white" stroke="#666666" points="1456.04,-316 1313.04,-316 1313.04,-297 1456.04,-297 1456.04,-316"/>
<text text-anchor="middle" x="1384.54" y="-304" font-family="Helvetica,sans-Serif" font-size="10.00">JSystem/JKernel/JKRHeap.h</text>
</a>
</g>
</g>
<!-- Node1&#45;&gt;Node2 -->
<g id="edge1" class="edge">
<title>Node1&#45;&gt;Node2</title>
<path fill="none" stroke="#63b8ff" d="M1654.32,-483.66C1614.57,-460.84 1535.24,-414.41 1470.54,-371 1447.61,-355.61 1422.28,-336.66 1405.09,-323.48"/>
<polygon fill="#63b8ff" stroke="#63b8ff" points="1407.25,-320.72 1397.19,-317.39 1402.97,-326.27 1407.25,-320.72"/>
</g>
<!-- Node10 -->
<g id="node10" class="node">
<title>Node10</title>
<g id="a_node10"><a xlink:href="JUTAssert_8h.html" target="_top" xlink:title=" ">
<polygon fill="white" stroke="#666666" points="1699.54,-316 1553.54,-316 1553.54,-297 1699.54,-297 1699.54,-316"/>
<text text-anchor="middle" x="1626.54" y="-304" font-family="Helvetica,sans-Serif" font-size="10.00">JSystem/JUtility/JUTAssert.h</text>
</a>
</g>
</g>
<!-- Node1&#45;&gt;Node10 -->
<g id="edge10" class="edge">
<title>Node1&#45;&gt;Node10</title>
<path fill="none" stroke="#63b8ff" d="M1675.56,-483.68C1666.2,-450.02 1642.77,-365.82 1632.05,-327.3"/>
<polygon fill="#63b8ff" stroke="#63b8ff" points="1635.46,-326.48 1629.4,-317.78 1628.71,-328.35 1635.46,-326.48"/>
</g>
<!-- Node11 -->
<g id="node11" class="node">
<title>Node11</title>
<g id="a_node11"><a xlink:href="JUTException_8h.html" target="_top" xlink:title=" ">
<polygon fill="white" stroke="#666666" points="1862.04,-437 1703.04,-437 1703.04,-418 1862.04,-418 1862.04,-437"/>
<text text-anchor="middle" x="1782.54" y="-425" font-family="Helvetica,sans-Serif" font-size="10.00">JSystem/JUtility/JUTException.h</text>
</a>
</g>
</g>
<!-- Node1&#45;&gt;Node11 -->
<g id="edge12" class="edge">
<title>Node1&#45;&gt;Node11</title>
<path fill="none" stroke="#63b8ff" d="M1700.89,-483.6C1718.13,-471.97 1742.33,-455.64 1759.91,-443.78"/>
<polygon fill="#63b8ff" stroke="#63b8ff" points="1761.8,-446.72 1768.13,-438.22 1757.88,-440.92 1761.8,-446.72"/>
</g>
<!-- Node21 -->
<g id="node21" class="node">
<title>Node21</title>
<g id="a_node21"><a xlink:href="OS_8h.html" target="_top" xlink:title=" ">
<polygon fill="white" stroke="#666666" points="795.54,-316 709.54,-316 709.54,-297 795.54,-297 795.54,-316"/>
<text text-anchor="middle" x="752.54" y="-304" font-family="Helvetica,sans-Serif" font-size="10.00">dolphin/os/OS.h</text>
</a>
</g>
</g>
<!-- Node1&#45;&gt;Node21 -->
<g id="edge35" class="edge">
<title>Node1&#45;&gt;Node21</title>
<path fill="none" stroke="#63b8ff" d="M1624.68,-486.72C1460.02,-452.89 971.41,-352.48 807.13,-318.72"/>
<polygon fill="#63b8ff" stroke="#63b8ff" points="807.85,-315.29 797.35,-316.71 806.44,-322.15 807.85,-315.29"/>
</g>
<!-- Node38 -->
<g id="node38" class="node">
<title>Node38</title>
<g id="a_node38"><a xlink:title=" ">
<polygon fill="#e0e0e0" stroke="#999999" points="2024.54,-448 1880.54,-448 1880.54,-407 2024.54,-407 2024.54,-448"/>
<text text-anchor="start" x="1888.54" y="-436" font-family="Helvetica,sans-Serif" font-size="10.00">asm/JSystem/JKernel</text>
<text text-anchor="start" x="1888.54" y="-425" font-family="Helvetica,sans-Serif" font-size="10.00">/JKRHeap/getMaxAllocatable</text>
<text text-anchor="middle" x="1952.54" y="-414" font-family="Helvetica,sans-Serif" font-size="10.00">Size__7JKRHeapFi.s</text>
</a>
</g>
</g>
<!-- Node1&#45;&gt;Node38 -->
<g id="edge74" class="edge">
<title>Node1&#45;&gt;Node38</title>
<path fill="none" stroke="#63b8ff" d="M1734.46,-484.02C1773.07,-474.19 1825.44,-460.86 1869.18,-449.72"/>
<polygon fill="#63b8ff" stroke="#63b8ff" points="1869.81,-453.17 1878.64,-447.31 1868.08,-446.39 1869.81,-453.17"/>
</g>
<!-- Node39 -->
<g id="node39" class="node">
<title>Node39</title>
<g id="a_node39"><a xlink:title=" ">
<polygon fill="#e0e0e0" stroke="#999999" points="2218.04,-442.5 2043.04,-442.5 2043.04,-412.5 2218.04,-412.5 2218.04,-442.5"/>
<text text-anchor="start" x="2051.04" y="-430.5" font-family="Helvetica,sans-Serif" font-size="10.00">asm/JSystem/JKernel</text>
<text text-anchor="middle" x="2130.54" y="-419.5" font-family="Helvetica,sans-Serif" font-size="10.00">/JKRHeap/dispose__7JKRHeapFv.s</text>
</a>
</g>
</g>
<!-- Node1&#45;&gt;Node39 -->
<g id="edge75" class="edge">
<title>Node1&#45;&gt;Node39</title>
<path fill="none" stroke="#63b8ff" d="M1734.28,-491.27C1803.97,-482.47 1928.01,-466.05 2033.54,-448 2038.82,-447.1 2044.25,-446.13 2049.72,-445.11"/>
<polygon fill="#63b8ff" stroke="#63b8ff" points="2050.3,-448.57 2059.47,-443.28 2049,-441.69 2050.3,-448.57"/>
</g>
<!-- Node3 -->
<g id="node3" class="node">
<title>Node3</title>
<g id="a_node3"><a xlink:href="JKRDisposer_8h.html" target="_top" xlink:title=" ">
<polygon fill="white" stroke="#666666" points="1904.54,-195 1746.54,-195 1746.54,-176 1904.54,-176 1904.54,-195"/>
<text text-anchor="middle" x="1825.54" y="-183" font-family="Helvetica,sans-Serif" font-size="10.00">JSystem/JKernel/JKRDisposer.h</text>
</a>
</g>
</g>
<!-- Node2&#45;&gt;Node3 -->
<g id="edge2" class="edge">
<title>Node2&#45;&gt;Node3</title>
<path fill="none" stroke="#63b8ff" d="M1456.33,-301.53C1589.27,-293.82 1861.61,-276.26 1875.54,-261 1892.41,-242.53 1868.45,-217.92 1848.24,-202.14"/>
<polygon fill="#63b8ff" stroke="#63b8ff" points="1850.43,-199.41 1840.31,-196.27 1846.26,-205.03 1850.43,-199.41"/>
</g>
<!-- Node7 -->
<g id="node7" class="node">
<title>Node7</title>
<g id="a_node7"><a xlink:href="OSMutex_8h.html" target="_top" xlink:title=" ">
<polygon fill="white" stroke="#666666" points="1236.54,-255.5 1124.54,-255.5 1124.54,-236.5 1236.54,-236.5 1236.54,-255.5"/>
<text text-anchor="middle" x="1180.54" y="-243.5" font-family="Helvetica,sans-Serif" font-size="10.00">dolphin/os/OSMutex.h</text>
</a>
</g>
</g>
<!-- Node2&#45;&gt;Node7 -->
<g id="edge6" class="edge">
<title>Node2&#45;&gt;Node7</title>
<path fill="none" stroke="#63b8ff" d="M1353.56,-296.62C1318.66,-286.61 1261.75,-270.29 1222.79,-259.12"/>
<polygon fill="#63b8ff" stroke="#63b8ff" points="1223.85,-255.78 1213.27,-256.39 1221.92,-262.51 1223.85,-255.78"/>
</g>
<!-- Node4 -->
<g id="node4" class="node">
<title>Node4</title>
<g id="a_node4"><a xlink:href="JSUList_8h.html" target="_top" xlink:title=" ">
<polygon fill="white" stroke="#666666" points="1895.04,-140 1752.04,-140 1752.04,-121 1895.04,-121 1895.04,-140"/>
<text text-anchor="middle" x="1823.54" y="-128" font-family="Helvetica,sans-Serif" font-size="10.00">JSystem/JSupport/JSUList.h</text>
</a>
</g>
</g>
<!-- Node3&#45;&gt;Node4 -->
<g id="edge3" class="edge">
<title>Node3&#45;&gt;Node4</title>
<path fill="none" stroke="#63b8ff" d="M1825.21,-175.75C1824.97,-169.27 1824.63,-160.16 1824.31,-151.9"/>
<polygon fill="#63b8ff" stroke="#63b8ff" points="1827.81,-151.82 1823.94,-141.95 1820.82,-152.08 1827.81,-151.82"/>
</g>
<!-- Node5 -->
<g id="node5" class="node">
<title>Node5</title>
<g id="a_node5"><a xlink:href="types_8h.html" target="_top" xlink:title=" ">
<polygon fill="white" stroke="#666666" points="1285.04,-85 1204.04,-85 1204.04,-66 1285.04,-66 1285.04,-85"/>
<text text-anchor="middle" x="1244.54" y="-73" font-family="Helvetica,sans-Serif" font-size="10.00">dolphin/types.h</text>
</a>
</g>
</g>
<!-- Node4&#45;&gt;Node5 -->
<g id="edge4" class="edge">
<title>Node4&#45;&gt;Node5</title>
<path fill="none" stroke="#63b8ff" d="M1752.01,-122.8C1745.43,-122.19 1738.86,-121.58 1732.54,-121 1573.84,-106.35 1386.08,-89.31 1296.78,-81.23"/>
<polygon fill="#63b8ff" stroke="#63b8ff" points="1297.14,-77.74 1286.86,-80.33 1296.51,-84.72 1297.14,-77.74"/>
</g>
<!-- Node6 -->
<g id="node6" class="node">
<title>Node6</title>
<g id="a_node6"><a xlink:href="stddef_8h.html" target="_top" xlink:title=" ">
<polygon fill="white" stroke="#666666" points="1312.54,-30 1176.54,-30 1176.54,0 1312.54,0 1312.54,-30"/>
<text text-anchor="start" x="1184.54" y="-18" font-family="Helvetica,sans-Serif" font-size="10.00">MSL_C/MSL_Common/Src</text>
<text text-anchor="middle" x="1244.54" y="-7" font-family="Helvetica,sans-Serif" font-size="10.00">/stddef.h</text>
</a>
</g>
</g>
<!-- Node5&#45;&gt;Node6 -->
<g id="edge5" class="edge">
<title>Node5&#45;&gt;Node6</title>
<path fill="none" stroke="#63b8ff" d="M1244.54,-65.87C1244.54,-59.4 1244.54,-50.2 1244.54,-41.45"/>
<polygon fill="#63b8ff" stroke="#63b8ff" points="1248.04,-41.63 1244.54,-31.63 1241.04,-41.63 1248.04,-41.63"/>
</g>
<!-- Node8 -->
<g id="node8" class="node">
<title>Node8</title>
<g id="a_node8"><a xlink:href="OSThread_8h.html" target="_top" xlink:title=" ">
<polygon fill="white" stroke="#666666" points="1238.54,-195 1122.54,-195 1122.54,-176 1238.54,-176 1238.54,-195"/>
<text text-anchor="middle" x="1180.54" y="-183" font-family="Helvetica,sans-Serif" font-size="10.00">dolphin/os/OSThread.h</text>
</a>
</g>
</g>
<!-- Node7&#45;&gt;Node8 -->
<g id="edge7" class="edge">
<title>Node7&#45;&gt;Node8</title>
<path fill="none" stroke="#63b8ff" d="M1180.54,-236.37C1180.54,-228.5 1180.54,-216.6 1180.54,-206.39"/>
<polygon fill="#63b8ff" stroke="#63b8ff" points="1184.04,-206.68 1180.54,-196.68 1177.04,-206.68 1184.04,-206.68"/>
</g>
<!-- Node9 -->
<g id="node9" class="node">
<title>Node9</title>
<g id="a_node9"><a xlink:href="OSContext_8h.html" target="_top" xlink:title=" ">
<polygon fill="white" stroke="#666666" points="1240.04,-140 1121.04,-140 1121.04,-121 1240.04,-121 1240.04,-140"/>
<text text-anchor="middle" x="1180.54" y="-128" font-family="Helvetica,sans-Serif" font-size="10.00">dolphin/os/OSContext.h</text>
</a>
</g>
</g>
<!-- Node8&#45;&gt;Node9 -->
<g id="edge8" class="edge">
<title>Node8&#45;&gt;Node9</title>
<path fill="none" stroke="#63b8ff" d="M1180.54,-175.75C1180.54,-169.27 1180.54,-160.16 1180.54,-151.9"/>
<polygon fill="#63b8ff" stroke="#63b8ff" points="1184.04,-151.96 1180.54,-141.96 1177.04,-151.96 1184.04,-151.96"/>
</g>
<!-- Node9&#45;&gt;Node5 -->
<g id="edge9" class="edge">
<title>Node9&#45;&gt;Node5</title>
<path fill="none" stroke="#63b8ff" d="M1191.4,-120.51C1200.65,-112.85 1214.17,-101.66 1225.25,-92.47"/>
<polygon fill="#63b8ff" stroke="#63b8ff" points="1227.21,-95.4 1232.68,-86.32 1222.75,-90.01 1227.21,-95.4"/>
</g>
<!-- Node10&#45;&gt;Node5 -->
<g id="edge11" class="edge">
<title>Node10&#45;&gt;Node5</title>
<path fill="none" stroke="#63b8ff" d="M1630.37,-296.87C1636.3,-282.09 1645.7,-251.54 1632.54,-231 1616.78,-206.38 1420.9,-131.32 1393.54,-121 1359.61,-108.2 1320.26,-96.58 1290.52,-88.42"/>
<polygon fill="#63b8ff" stroke="#63b8ff" points="1291.66,-85.1 1281.09,-85.87 1289.83,-91.86 1291.66,-85.1"/>
</g>
<!-- Node11&#45;&gt;Node5 -->
<g id="edge32" class="edge">
<title>Node11&#45;&gt;Node5</title>
<path fill="none" stroke="#63b8ff" d="M1821,-417.58C1836.64,-414.08 1854.92,-410.16 1871.54,-407 2029.59,-377.01 2219.54,-468.36 2219.54,-307.5 2219.54,-307.5 2219.54,-307.5 2219.54,-184.5 2219.54,-155.04 2223.76,-139.14 2200.54,-121 2164.72,-93.01 1491.15,-80.35 1296.69,-77.27"/>
<polygon fill="#63b8ff" stroke="#63b8ff" points="1296.95,-73.77 1286.9,-77.12 1296.84,-80.77 1296.95,-73.77"/>
</g>
<!-- Node12 -->
<g id="node12" class="node">
<title>Node12</title>
<g id="a_node12"><a xlink:href="JKRThread_8h.html" target="_top" xlink:title=" ">
<polygon fill="white" stroke="#666666" points="1803.54,-371 1653.54,-371 1653.54,-352 1803.54,-352 1803.54,-371"/>
<text text-anchor="middle" x="1728.54" y="-359" font-family="Helvetica,sans-Serif" font-size="10.00">JSystem/JKernel/JKRThread.h</text>
</a>
</g>
</g>
<!-- Node11&#45;&gt;Node12 -->
<g id="edge13" class="edge">
<title>Node11&#45;&gt;Node12</title>
<path fill="none" stroke="#63b8ff" d="M1775.04,-417.6C1766.81,-407.86 1753.43,-392 1743.13,-379.79"/>
<polygon fill="#63b8ff" stroke="#63b8ff" points="1746.09,-377.87 1736.97,-372.48 1740.74,-382.38 1746.09,-377.87"/>
</g>
<!-- Node15 -->
<g id="node15" class="node">
<title>Node15</title>
<g id="a_node15"><a xlink:href="JUTGamePad_8h.html" target="_top" xlink:title=" ">
<polygon fill="white" stroke="#666666" points="2134.54,-261 1998.54,-261 1998.54,-231 2134.54,-231 2134.54,-261"/>
<text text-anchor="start" x="2006.54" y="-249" font-family="Helvetica,sans-Serif" font-size="10.00">JSystem/JUtility/JUTGame</text>
<text text-anchor="middle" x="2066.54" y="-238" font-family="Helvetica,sans-Serif" font-size="10.00">Pad.h</text>
</a>
</g>
</g>
<!-- Node11&#45;&gt;Node15 -->
<g id="edge20" class="edge">
<title>Node11&#45;&gt;Node15</title>
<path fill="none" stroke="#63b8ff" d="M1822.51,-417.52C1884.96,-403.36 1999.33,-376.85 2006.54,-371 2037.59,-345.82 2053.67,-300.67 2061.09,-272.35"/>
<polygon fill="#63b8ff" stroke="#63b8ff" points="2064.45,-273.37 2063.41,-262.83 2057.65,-271.72 2064.45,-273.37"/>
</g>
<!-- Node17 -->
<g id="node17" class="node">
<title>Node17</title>
<g id="a_node17"><a xlink:href="____va__arg_8h.html" target="_top" xlink:title=" ">
<polygon fill="white" stroke="#666666" points="1866.54,-261 1756.54,-261 1756.54,-231 1866.54,-231 1866.54,-261"/>
<text text-anchor="start" x="1764.54" y="-249" font-family="Helvetica,sans-Serif" font-size="10.00">Runtime.PPCEABI.H/</text>
<text text-anchor="middle" x="1811.54" y="-238" font-family="Helvetica,sans-Serif" font-size="10.00">__va_arg.h</text>
</a>
</g>
</g>
<!-- Node11&#45;&gt;Node17 -->
<g id="edge26" class="edge">
<title>Node11&#45;&gt;Node17</title>
<path fill="none" stroke="#63b8ff" d="M1789.14,-417.66C1796.52,-407.17 1808.03,-388.84 1812.54,-371 1820.94,-337.82 1818.52,-298.03 1815.48,-272.63"/>
<polygon fill="#63b8ff" stroke="#63b8ff" points="1818.98,-272.36 1814.19,-262.91 1812.04,-273.29 1818.98,-272.36"/>
</g>
<!-- Node18 -->
<g id="node18" class="node">
<title>Node18</title>
<g id="a_node18"><a xlink:href="GXEnum_8h.html" target="_top" xlink:title=" ">
<polygon fill="white" stroke="#666666" points="1997.54,-371 1887.54,-371 1887.54,-352 1997.54,-352 1997.54,-371"/>
<text text-anchor="middle" x="1942.54" y="-359" font-family="Helvetica,sans-Serif" font-size="10.00">dolphin/gx/GXEnum.h</text>
</a>
</g>
</g>
<!-- Node11&#45;&gt;Node18 -->
<g id="edge28" class="edge">
<title>Node11&#45;&gt;Node18</title>
<path fill="none" stroke="#63b8ff" d="M1804.79,-417.6C1832.06,-406.69 1878.49,-388.12 1909.83,-375.59"/>
<polygon fill="#63b8ff" stroke="#63b8ff" points="1910.84,-378.95 1918.82,-371.99 1908.24,-372.45 1910.84,-378.95"/>
</g>
<!-- Node19 -->
<g id="node19" class="node">
<title>Node19</title>
<g id="a_node19"><a xlink:href="OSError_8h.html" target="_top" xlink:title=" ">
<polygon fill="white" stroke="#666666" points="1483.54,-195 1377.54,-195 1377.54,-176 1483.54,-176 1483.54,-195"/>
<text text-anchor="middle" x="1430.54" y="-183" font-family="Helvetica,sans-Serif" font-size="10.00">dolphin/os/OSError.h</text>
</a>
</g>
</g>
<!-- Node11&#45;&gt;Node19 -->
<g id="edge30" class="edge">
<title>Node11&#45;&gt;Node19</title>
<path fill="none" stroke="#63b8ff" d="M1751.78,-417.52C1703.77,-402.4 1609.76,-368.3 1544.54,-316 1522.3,-298.16 1470.09,-235.23 1444.78,-204.14"/>
<polygon fill="#63b8ff" stroke="#63b8ff" points="1447.56,-202 1438.54,-196.44 1442.12,-206.41 1447.56,-202"/>
</g>
<!-- Node20 -->
<g id="node20" class="node">
<title>Node20</title>
<g id="a_node20"><a xlink:href="global_8h.html" target="_top" xlink:title=" ">
<polygon fill="white" stroke="#666666" points="2191.54,-140 2141.54,-140 2141.54,-121 2191.54,-121 2191.54,-140"/>
<text text-anchor="middle" x="2166.54" y="-128" font-family="Helvetica,sans-Serif" font-size="10.00">global.h</text>
</a>
</g>
</g>
<!-- Node11&#45;&gt;Node20 -->
<g id="edge33" class="edge">
<title>Node11&#45;&gt;Node20</title>
<path fill="none" stroke="#63b8ff" d="M1823.33,-417.54C1890.7,-402.7 2018.81,-374.33 2028.54,-371 2091.67,-349.42 2164.54,-374.21 2164.54,-307.5 2164.54,-307.5 2164.54,-307.5 2164.54,-245 2164.54,-212.38 2165.38,-174.5 2165.97,-151.79"/>
<polygon fill="#63b8ff" stroke="#63b8ff" points="2169.47,-151.93 2166.24,-141.84 2162.47,-151.74 2169.47,-151.93"/>
</g>
<!-- Node12&#45;&gt;Node2 -->
<g id="edge14" class="edge">
<title>Node12&#45;&gt;Node2</title>
<path fill="none" stroke="#63b8ff" d="M1670.19,-351.51C1610.42,-342.3 1517.53,-327.99 1454.01,-318.2"/>
<polygon fill="#63b8ff" stroke="#63b8ff" points="1454.81,-314.78 1444.39,-316.72 1453.74,-321.7 1454.81,-314.78"/>
</g>
<!-- Node12&#45;&gt;Node5 -->
<g id="edge19" class="edge">
<title>Node12&#45;&gt;Node5</title>
<path fill="none" stroke="#63b8ff" d="M1753.88,-351.51C1789.62,-337.58 1854.59,-307.43 1891.54,-261 1930.46,-212.11 1950.78,-163.04 1904.54,-121 1859.98,-80.47 1445.11,-76.48 1296.88,-76.37"/>
<polygon fill="#63b8ff" stroke="#63b8ff" points="1296.95,-72.87 1286.95,-76.36 1296.95,-79.87 1296.95,-72.87"/>
</g>
<!-- Node13 -->
<g id="node13" class="node">
<title>Node13</title>
<g id="a_node13"><a xlink:href="OSMessage_8h.html" target="_top" xlink:title=" ">
<polygon fill="white" stroke="#666666" points="1456.04,-255.5 1331.04,-255.5 1331.04,-236.5 1456.04,-236.5 1456.04,-255.5"/>
<text text-anchor="middle" x="1393.54" y="-243.5" font-family="Helvetica,sans-Serif" font-size="10.00">dolphin/os/OSMessage.h</text>
</a>
</g>
</g>
<!-- Node12&#45;&gt;Node13 -->
<g id="edge15" class="edge">
<title>Node12&#45;&gt;Node13</title>
<path fill="none" stroke="#63b8ff" d="M1680.55,-351.52C1643,-343.87 1589.74,-331.63 1544.54,-316 1499.66,-300.48 1450,-276.35 1420.31,-261.13"/>
<polygon fill="#63b8ff" stroke="#63b8ff" points="1422.15,-258.14 1411.66,-256.65 1418.93,-264.36 1422.15,-258.14"/>
</g>
<!-- Node14 -->
<g id="node14" class="node">
<title>Node14</title>
<g id="a_node14"><a xlink:href="OSTime_8h.html" target="_top" xlink:title=" ">
<polygon fill="white" stroke="#666666" points="1690.04,-195 1583.04,-195 1583.04,-176 1690.04,-176 1690.04,-195"/>
<text text-anchor="middle" x="1636.54" y="-183" font-family="Helvetica,sans-Serif" font-size="10.00">dolphin/os/OSTime.h</text>
</a>
</g>
</g>
<!-- Node12&#45;&gt;Node14 -->
<g id="edge17" class="edge">
<title>Node12&#45;&gt;Node14</title>
<path fill="none" stroke="#63b8ff" d="M1726.55,-351.59C1723.57,-339.04 1717.33,-315.6 1708.54,-297 1692.16,-262.31 1666.37,-225.68 1650.51,-204.52"/>
<polygon fill="#63b8ff" stroke="#63b8ff" points="1653.37,-202.5 1644.53,-196.66 1647.8,-206.74 1653.37,-202.5"/>
</g>
<!-- Node13&#45;&gt;Node8 -->
<g id="edge16" class="edge">
<title>Node13&#45;&gt;Node8</title>
<path fill="none" stroke="#63b8ff" d="M1361.19,-236.12C1324.6,-226.06 1264.82,-209.65 1224.13,-198.47"/>
<polygon fill="#63b8ff" stroke="#63b8ff" points="1225.23,-195.14 1214.66,-195.87 1223.37,-201.89 1225.23,-195.14"/>
</g>
<!-- Node14&#45;&gt;Node5 -->
<g id="edge18" class="edge">
<title>Node14&#45;&gt;Node5</title>
<path fill="none" stroke="#63b8ff" d="M1630.16,-175.75C1619.28,-161.58 1595.68,-133.9 1568.54,-121 1521.5,-98.63 1375.46,-85.47 1296.49,-79.81"/>
<polygon fill="#63b8ff" stroke="#63b8ff" points="1297.08,-76.34 1286.86,-79.13 1296.59,-83.32 1297.08,-76.34"/>
</g>
<!-- Node15&#45;&gt;Node3 -->
<g id="edge21" class="edge">
<title>Node15&#45;&gt;Node3</title>
<path fill="none" stroke="#63b8ff" d="M2006.97,-230.54C1965.74,-220.53 1911.59,-207.39 1873.22,-198.07"/>
<polygon fill="#63b8ff" stroke="#63b8ff" points="1874.36,-194.75 1863.81,-195.79 1872.7,-201.55 1874.36,-194.75"/>
</g>
<!-- Node15&#45;&gt;Node5 -->
<g id="edge25" class="edge">
<title>Node15&#45;&gt;Node5</title>
<path fill="none" stroke="#63b8ff" d="M2076.92,-230.59C2094,-204.99 2123.41,-151.42 2094.54,-121 2067,-91.98 1477.47,-80.21 1296.74,-77.27"/>
<polygon fill="#63b8ff" stroke="#63b8ff" points="1297.01,-73.78 1286.96,-77.12 1296.9,-80.78 1297.01,-73.78"/>
</g>
<!-- Node15&#45;&gt;Node14 -->
<g id="edge22" class="edge">
<title>Node15&#45;&gt;Node14</title>
<path fill="none" stroke="#63b8ff" d="M1998.41,-235.73C1917.04,-224.66 1781.91,-206.28 1701.82,-195.38"/>
<polygon fill="#63b8ff" stroke="#63b8ff" points="1702.3,-191.91 1691.92,-194.03 1701.36,-198.85 1702.3,-191.91"/>
</g>
<!-- Node16 -->
<g id="node16" class="node">
<title>Node16</title>
<g id="a_node16"><a xlink:href="Pad_8h.html" target="_top" xlink:title=" ">
<polygon fill="white" stroke="#666666" points="2085.54,-140 1991.54,-140 1991.54,-121 2085.54,-121 2085.54,-140"/>
<text text-anchor="middle" x="2038.54" y="-128" font-family="Helvetica,sans-Serif" font-size="10.00">dolphin/pad/Pad.h</text>
</a>
</g>
</g>
<!-- Node15&#45;&gt;Node16 -->
<g id="edge23" class="edge">
<title>Node15&#45;&gt;Node16</title>
<path fill="none" stroke="#63b8ff" d="M2063,-230.63C2058.03,-210.49 2048.99,-173.83 2043.4,-151.18"/>
<polygon fill="#63b8ff" stroke="#63b8ff" points="2046.85,-150.57 2041.06,-141.7 2040.06,-152.25 2046.85,-150.57"/>
</g>
<!-- Node16&#45;&gt;Node5 -->
<g id="edge24" class="edge">
<title>Node16&#45;&gt;Node5</title>
<path fill="none" stroke="#63b8ff" d="M1991.3,-122.55C1986.66,-121.97 1982.01,-121.45 1977.54,-121 1722.79,-95.56 1416.68,-82.65 1296.53,-78.27"/>
<polygon fill="#63b8ff" stroke="#63b8ff" points="1296.79,-74.77 1286.67,-77.91 1296.54,-81.77 1296.79,-74.77"/>
</g>
<!-- Node17&#45;&gt;Node5 -->
<g id="edge27" class="edge">
<title>Node17&#45;&gt;Node5</title>
<path fill="none" stroke="#63b8ff" d="M1789.05,-230.58C1766.61,-216.32 1731.03,-194.08 1699.54,-176 1654.54,-150.16 1646,-136.74 1596.54,-121 1493.54,-88.22 1366.36,-79.47 1296.54,-77.21"/>
<polygon fill="#63b8ff" stroke="#63b8ff" points="1297.03,-73.72 1286.94,-76.93 1296.83,-80.72 1297.03,-73.72"/>
</g>
<!-- Node18&#45;&gt;Node5 -->
<g id="edge29" class="edge">
<title>Node18&#45;&gt;Node5</title>
<path fill="none" stroke="#63b8ff" d="M1945.62,-351.98C1957.87,-316.33 1999.17,-178.31 1926.54,-121 1877.47,-82.27 1446.95,-77.15 1296.32,-76.55"/>
<polygon fill="#63b8ff" stroke="#63b8ff" points="1296.65,-73.05 1286.64,-76.52 1296.63,-80.05 1296.65,-73.05"/>
</g>
<!-- Node19&#45;&gt;Node5 -->
<g id="edge31" class="edge">
<title>Node19&#45;&gt;Node5</title>
<path fill="none" stroke="#63b8ff" d="M1424.11,-175.91C1413.64,-162.45 1391.63,-136.38 1367.54,-121 1344.82,-106.49 1316.73,-95.87 1293.13,-88.65"/>
<polygon fill="#63b8ff" stroke="#63b8ff" points="1294.33,-85.36 1283.75,-85.9 1292.36,-92.07 1294.33,-85.36"/>
</g>
<!-- Node20&#45;&gt;Node5 -->
<g id="edge34" class="edge">
<title>Node20&#45;&gt;Node5</title>
<path fill="none" stroke="#63b8ff" d="M2141.06,-123.32C2136.58,-122.41 2131.94,-121.59 2127.54,-121 1814.12,-79.24 1433.36,-75.87 1296.58,-76.15"/>
<polygon fill="#63b8ff" stroke="#63b8ff" points="1296.75,-72.65 1286.76,-76.18 1296.77,-79.65 1296.75,-72.65"/>
</g>
<!-- Node21&#45;&gt;Node7 -->
<g id="edge62" class="edge">
<title>Node21&#45;&gt;Node7</title>
<path fill="none" stroke="#63b8ff" d="M795.95,-301.15C863.45,-294.15 997.56,-279.3 1110.54,-261 1116.06,-260.11 1121.81,-259.09 1127.53,-258.03"/>
<polygon fill="#63b8ff" stroke="#63b8ff" points="1127.79,-261.55 1136.95,-256.23 1126.47,-254.67 1127.79,-261.55"/>
</g>
<!-- Node21&#45;&gt;Node8 -->
<g id="edge72" class="edge">
<title>Node21&#45;&gt;Node8</title>
<path fill="none" stroke="#63b8ff" d="M754.24,-296.59C757.82,-280.5 767.76,-246.8 790.54,-231 840.91,-196.07 1013.04,-188.26 1110.96,-186.7"/>
<polygon fill="#63b8ff" stroke="#63b8ff" points="1110.77,-190.2 1120.72,-186.56 1110.67,-183.2 1110.77,-190.2"/>
</g>
<!-- Node21&#45;&gt;Node9 -->
<g id="edge49" class="edge">
<title>Node21&#45;&gt;Node9</title>
<path fill="none" stroke="#63b8ff" d="M751.01,-296.85C748.83,-281.48 746.77,-249.32 763.54,-231 787.52,-204.83 1007.28,-162.42 1117.75,-142.5"/>
<polygon fill="#63b8ff" stroke="#63b8ff" points="1118.34,-145.95 1127.57,-140.73 1117.11,-139.06 1118.34,-145.95"/>
</g>
<!-- Node21&#45;&gt;Node13 -->
<g id="edge61" class="edge">
<title>Node21&#45;&gt;Node13</title>
<path fill="none" stroke="#63b8ff" d="M795.86,-303.58C890.6,-299.05 1123.2,-286.14 1316.54,-261 1323.27,-260.13 1330.3,-259.06 1337.27,-257.91"/>
<polygon fill="#63b8ff" stroke="#63b8ff" points="1337.72,-261.38 1346.98,-256.24 1336.53,-254.49 1337.72,-261.38"/>
</g>
<!-- Node21&#45;&gt;Node14 -->
<g id="edge73" class="edge">
<title>Node21&#45;&gt;Node14</title>
<path fill="none" stroke="#63b8ff" d="M796.01,-304.9C969.25,-302.31 1602.63,-290.82 1632.54,-261 1646.57,-247.02 1645.27,-223.16 1641.95,-206.22"/>
<polygon fill="#63b8ff" stroke="#63b8ff" points="1645.43,-205.73 1639.71,-196.81 1638.62,-207.35 1645.43,-205.73"/>
</g>
<!-- Node21&#45;&gt;Node17 -->
<g id="edge36" class="edge">
<title>Node21&#45;&gt;Node17</title>
<path fill="none" stroke="#63b8ff" d="M795.8,-304.76C930.57,-302.19 1354.73,-292.01 1704.54,-261 1717.67,-259.84 1731.65,-258.26 1745.04,-256.58"/>
<polygon fill="#63b8ff" stroke="#63b8ff" points="1745.13,-260.09 1754.6,-255.34 1744.24,-253.15 1745.13,-260.09"/>
</g>
<!-- Node21&#45;&gt;Node19 -->
<g id="edge50" class="edge">
<title>Node21&#45;&gt;Node19</title>
<path fill="none" stroke="#63b8ff" d="M795.94,-304.72C905.35,-302.28 1190.09,-292.97 1278.54,-261 1300.46,-253.08 1301.08,-242.14 1321.54,-231 1344.63,-218.44 1372.02,-207.27 1393.57,-199.26"/>
<polygon fill="#63b8ff" stroke="#63b8ff" points="1394.64,-202.6 1402.84,-195.89 1392.24,-196.02 1394.64,-202.6"/>
</g>
<!-- Node22 -->
<g id="node22" class="node">
<title>Node22</title>
<g id="a_node22"><a xlink:href="dvd_8h.html" target="_top" xlink:title=" ">
<polygon fill="white" stroke="#666666" points="101.54,-140 9.54,-140 9.54,-121 101.54,-121 101.54,-140"/>
<text text-anchor="middle" x="55.54" y="-128" font-family="Helvetica,sans-Serif" font-size="10.00">dolphin/dvd/dvd.h</text>
</a>
</g>
</g>
<!-- Node21&#45;&gt;Node22 -->
<g id="edge37" class="edge">
<title>Node21&#45;&gt;Node22</title>
<path fill="none" stroke="#63b8ff" d="M709.45,-304.76C586.73,-302.27 237.18,-292.54 127.54,-261 67.55,-243.74 35.69,-248.52 3.54,-195 -7.23,-177.07 11.46,-158.82 29.36,-146.51"/>
<polygon fill="#63b8ff" stroke="#63b8ff" points="31.21,-149.48 37.75,-141.14 27.44,-143.58 31.21,-149.48"/>
</g>
<!-- Node23 -->
<g id="node23" class="node">
<title>Node23</title>
<g id="a_node23"><a xlink:href="OSAlarm_8h.html" target="_top" xlink:title=" ">
<polygon fill="white" stroke="#666666" points="1624.04,-255.5 1513.04,-255.5 1513.04,-236.5 1624.04,-236.5 1624.04,-255.5"/>
<text text-anchor="middle" x="1568.54" y="-243.5" font-family="Helvetica,sans-Serif" font-size="10.00">dolphin/os/OSAlarm.h</text>
</a>
</g>
</g>
<!-- Node21&#45;&gt;Node23 -->
<g id="edge39" class="edge">
<title>Node21&#45;&gt;Node23</title>
<path fill="none" stroke="#63b8ff" d="M795.97,-303.87C907.3,-299.45 1211.87,-285.87 1464.54,-261 1476.55,-259.82 1489.31,-258.31 1501.62,-256.73"/>
<polygon fill="#63b8ff" stroke="#63b8ff" points="1501.81,-260.23 1511.27,-255.45 1500.89,-253.29 1501.81,-260.23"/>
</g>
<!-- Node24 -->
<g id="node24" class="node">
<title>Node24</title>
<g id="a_node24"><a xlink:href="OSAlloc_8h.html" target="_top" xlink:title=" ">
<polygon fill="white" stroke="#666666" points="120.04,-195 13.04,-195 13.04,-176 120.04,-176 120.04,-195"/>
<text text-anchor="middle" x="66.54" y="-183" font-family="Helvetica,sans-Serif" font-size="10.00">dolphin/os/OSAlloc.h</text>
</a>
</g>
</g>
<!-- Node21&#45;&gt;Node24 -->
<g id="edge42" class="edge">
<title>Node21&#45;&gt;Node24</title>
<path fill="none" stroke="#63b8ff" d="M709.43,-304.58C595.53,-301.76 288.78,-291.47 192.54,-261 151.84,-248.11 110.3,-220.06 86.55,-202.29"/>
<polygon fill="#63b8ff" stroke="#63b8ff" points="88.78,-199.59 78.71,-196.3 84.53,-205.15 88.78,-199.59"/>
</g>
<!-- Node25 -->
<g id="node25" class="node">
<title>Node25</title>
<g id="a_node25"><a xlink:href="OSArena_8h.html" target="_top" xlink:title=" ">
<polygon fill="white" stroke="#666666" points="249.04,-195 138.04,-195 138.04,-176 249.04,-176 249.04,-195"/>
<text text-anchor="middle" x="193.54" y="-183" font-family="Helvetica,sans-Serif" font-size="10.00">dolphin/os/OSArena.h</text>
</a>
</g>
</g>
<!-- Node21&#45;&gt;Node25 -->
<g id="edge44" class="edge">
<title>Node21&#45;&gt;Node25</title>
<path fill="none" stroke="#63b8ff" d="M709.39,-304.75C588.24,-302.25 251.3,-292.51 213.54,-261 197.82,-247.88 193.74,-223.84 193.01,-206.62"/>
<polygon fill="#63b8ff" stroke="#63b8ff" points="196.51,-206.8 192.97,-196.81 189.51,-206.83 196.51,-206.8"/>
</g>
<!-- Node26 -->
<g id="node26" class="node">
<title>Node26</title>
<g id="a_node26"><a xlink:href="OSAudioSystem_8h.html" target="_top" xlink:title=" ">
<polygon fill="white" stroke="#666666" points="943.04,-255.5 800.04,-255.5 800.04,-236.5 943.04,-236.5 943.04,-255.5"/>
<text text-anchor="middle" x="871.54" y="-243.5" font-family="Helvetica,sans-Serif" font-size="10.00">dolphin/os/OSAudioSystem.h</text>
</a>
</g>
</g>
<!-- Node21&#45;&gt;Node26 -->
<g id="edge46" class="edge">
<title>Node21&#45;&gt;Node26</title>
<path fill="none" stroke="#63b8ff" d="M770.62,-296.62C789.84,-287.17 820.51,-272.09 843,-261.03"/>
<polygon fill="#63b8ff" stroke="#63b8ff" points="844.51,-264.19 851.94,-256.64 841.42,-257.91 844.51,-264.19"/>
</g>
<!-- Node27 -->
<g id="node27" class="node">
<title>Node27</title>
<g id="a_node27"><a xlink:href="OSCache_8h.html" target="_top" xlink:title=" ">
<polygon fill="white" stroke="#666666" points="336.04,-255.5 223.04,-255.5 223.04,-236.5 336.04,-236.5 336.04,-255.5"/>
<text text-anchor="middle" x="279.54" y="-243.5" font-family="Helvetica,sans-Serif" font-size="10.00">dolphin/os/OSCache.h</text>
</a>
</g>
</g>
<!-- Node21&#45;&gt;Node27 -->
<g id="edge47" class="edge">
<title>Node21&#45;&gt;Node27</title>
<path fill="none" stroke="#63b8ff" d="M709.19,-301.8C635.62,-295.28 481.74,-280.54 352.54,-261 346.56,-260.1 340.33,-259.05 334.12,-257.95"/>
<polygon fill="#63b8ff" stroke="#63b8ff" points="335.02,-254.56 324.56,-256.2 333.76,-261.44 335.02,-254.56"/>
</g>
<!-- Node28 -->
<g id="node28" class="node">
<title>Node28</title>
<g id="a_node28"><a xlink:href="OSExec_8h.html" target="_top" xlink:title=" ">
<polygon fill="white" stroke="#666666" points="413.04,-195 306.04,-195 306.04,-176 413.04,-176 413.04,-195"/>
<text text-anchor="middle" x="359.54" y="-183" font-family="Helvetica,sans-Serif" font-size="10.00">dolphin/os/OSExec.h</text>
</a>
</g>
</g>
<!-- Node21&#45;&gt;Node28 -->
<g id="edge51" class="edge">
<title>Node21&#45;&gt;Node28</title>
<path fill="none" stroke="#63b8ff" d="M709.21,-305.42C624.47,-304.43 440.79,-297.96 391.54,-261 374.24,-248.01 366.18,-223.77 362.5,-206.46"/>
<polygon fill="#63b8ff" stroke="#63b8ff" points="365.99,-206.07 360.79,-196.84 359.09,-207.3 365.99,-206.07"/>
</g>
<!-- Node29 -->
<g id="node29" class="node">
<title>Node29</title>
<g id="a_node29"><a xlink:href="OSFont_8h.html" target="_top" xlink:title=" ">
<polygon fill="white" stroke="#666666" points="498.04,-140 393.04,-140 393.04,-121 498.04,-121 498.04,-140"/>
<text text-anchor="middle" x="445.54" y="-128" font-family="Helvetica,sans-Serif" font-size="10.00">dolphin/os/OSFont.h</text>
</a>
</g>
</g>
<!-- Node21&#45;&gt;Node29 -->
<g id="edge53" class="edge">
<title>Node21&#45;&gt;Node29</title>
<path fill="none" stroke="#63b8ff" d="M709.36,-306.33C628.93,-306.85 461.03,-302.77 424.54,-261 410.53,-244.95 428.22,-183.19 438.75,-151.11"/>
<polygon fill="#63b8ff" stroke="#63b8ff" points="441.99,-152.45 441.88,-141.85 435.36,-150.21 441.99,-152.45"/>
</g>
<!-- Node30 -->
<g id="node30" class="node">
<title>Node30</title>
<g id="a_node30"><a xlink:href="OSInterrupt_8h.html" target="_top" xlink:title=" ">
<polygon fill="white" stroke="#666666" points="591.54,-195 469.54,-195 469.54,-176 591.54,-176 591.54,-195"/>
<text text-anchor="middle" x="530.54" y="-183" font-family="Helvetica,sans-Serif" font-size="10.00">dolphin/os/OSInterrupt.h</text>
</a>
</g>
</g>
<!-- Node21&#45;&gt;Node30 -->
<g id="edge55" class="edge">
<title>Node21&#45;&gt;Node30</title>
<path fill="none" stroke="#63b8ff" d="M709.1,-298.15C678.56,-291.64 637.6,-280.13 605.54,-261 580.51,-246.06 557.67,-220.98 543.94,-204.1"/>
<polygon fill="#63b8ff" stroke="#63b8ff" points="546.83,-202.12 537.89,-196.43 541.34,-206.45 546.83,-202.12"/>
</g>
<!-- Node31 -->
<g id="node31" class="node">
<title>Node31</title>
<g id="a_node31"><a xlink:href="OSLink_8h.html" target="_top" xlink:title=" ">
<polygon fill="white" stroke="#666666" points="685.54,-140 581.54,-140 581.54,-121 685.54,-121 685.54,-140"/>
<text text-anchor="middle" x="633.54" y="-128" font-family="Helvetica,sans-Serif" font-size="10.00">dolphin/os/OSLink.h</text>
</a>
</g>
</g>
<!-- Node21&#45;&gt;Node31 -->
<g id="edge57" class="edge">
<title>Node21&#45;&gt;Node31</title>
<path fill="none" stroke="#63b8ff" d="M726.72,-296.52C709.67,-289.36 688.06,-277.74 674.54,-261 648.32,-228.53 638.76,-179.07 635.36,-151.62"/>
<polygon fill="#63b8ff" stroke="#63b8ff" points="638.86,-151.47 634.32,-141.9 631.9,-152.21 638.86,-151.47"/>
</g>
<!-- Node32 -->
<g id="node32" class="node">
<title>Node32</title>
<g id="a_node32"><a xlink:href="OSMemory_8h.html" target="_top" xlink:title=" ">
<polygon fill="white" stroke="#666666" points="553.54,-255.5 433.54,-255.5 433.54,-236.5 553.54,-236.5 553.54,-255.5"/>
<text text-anchor="middle" x="493.54" y="-243.5" font-family="Helvetica,sans-Serif" font-size="10.00">dolphin/os/OSMemory.h</text>
</a>
</g>
</g>
<!-- Node21&#45;&gt;Node32 -->
<g id="edge59" class="edge">
<title>Node21&#45;&gt;Node32</title>
<path fill="none" stroke="#63b8ff" d="M712.93,-296.55C667.7,-286.34 593.62,-269.6 544.23,-258.45"/>
<polygon fill="#63b8ff" stroke="#63b8ff" points="545.16,-255.07 534.63,-256.28 543.62,-261.9 545.16,-255.07"/>
</g>
<!-- Node33 -->
<g id="node33" class="node">
<title>Node33</title>
<g id="a_node33"><a xlink:href="OSReboot_8h.html" target="_top" xlink:title=" ">
<polygon fill="white" stroke="#666666" points="876.54,-140 760.54,-140 760.54,-121 876.54,-121 876.54,-140"/>
<text text-anchor="middle" x="818.54" y="-128" font-family="Helvetica,sans-Serif" font-size="10.00">dolphin/os/OSReboot.h</text>
</a>
</g>
</g>
<!-- Node21&#45;&gt;Node33 -->
<g id="edge63" class="edge">
<title>Node21&#45;&gt;Node33</title>
<path fill="none" stroke="#63b8ff" d="M740.09,-296.63C711.36,-275.09 645.22,-218.65 676.54,-176 693.35,-153.13 721.88,-141.69 748.98,-136.09"/>
<polygon fill="#63b8ff" stroke="#63b8ff" points="749.36,-139.57 758.58,-134.36 748.12,-132.68 749.36,-139.57"/>
</g>
<!-- Node34 -->
<g id="node34" class="node">
<title>Node34</title>
<g id="a_node34"><a xlink:href="OSReset_8h.html" target="_top" xlink:title=" ">
<polygon fill="white" stroke="#666666" points="797.04,-195 686.04,-195 686.04,-176 797.04,-176 797.04,-195"/>
<text text-anchor="middle" x="741.54" y="-183" font-family="Helvetica,sans-Serif" font-size="10.00">dolphin/os/OSReset.h</text>
</a>
</g>
</g>
<!-- Node21&#45;&gt;Node34 -->
<g id="edge65" class="edge">
<title>Node21&#45;&gt;Node34</title>
<path fill="none" stroke="#63b8ff" d="M743.22,-296.63C735.19,-288.31 724.19,-275.06 719.54,-261 713.28,-242.04 721.62,-220.09 729.77,-204.95"/>
<polygon fill="#63b8ff" stroke="#63b8ff" points="732.64,-206.97 734.69,-196.58 726.61,-203.43 732.64,-206.97"/>
</g>
<!-- Node35 -->
<g id="node35" class="node">
<title>Node35</title>
<g id="a_node35"><a xlink:href="OSResetSW_8h.html" target="_top" xlink:title=" ">
<polygon fill="white" stroke="#666666" points="1103.04,-140 976.04,-140 976.04,-121 1103.04,-121 1103.04,-140"/>
<text text-anchor="middle" x="1039.54" y="-128" font-family="Helvetica,sans-Serif" font-size="10.00">dolphin/os/OSResetSW.h</text>
</a>
</g>
</g>
<!-- Node21&#45;&gt;Node35 -->
<g id="edge67" class="edge">
<title>Node21&#45;&gt;Node35</title>
<path fill="none" stroke="#63b8ff" d="M795.83,-306.25C875.53,-306.59 1040.63,-302.19 1076.54,-261 1104.62,-228.81 1073.79,-176.62 1053.82,-149.37"/>
<polygon fill="#63b8ff" stroke="#63b8ff" points="1056.62,-147.26 1047.77,-141.44 1051.06,-151.51 1056.62,-147.26"/>
</g>
<!-- Node36 -->
<g id="node36" class="node">
<title>Node36</title>
<g id="a_node36"><a xlink:href="OSRtc_8h.html" target="_top" xlink:title=" ">
<polygon fill="white" stroke="#666666" points="1359.04,-140 1258.04,-140 1258.04,-121 1359.04,-121 1359.04,-140"/>
<text text-anchor="middle" x="1308.54" y="-128" font-family="Helvetica,sans-Serif" font-size="10.00">dolphin/os/OSRtc.h</text>
</a>
</g>
</g>
<!-- Node21&#45;&gt;Node36 -->
<g id="edge69" class="edge">
<title>Node21&#45;&gt;Node36</title>
<path fill="none" stroke="#63b8ff" d="M795.79,-304.01C909.2,-299.76 1208.94,-286.26 1245.54,-261 1282.83,-235.27 1298.89,-181.09 1305.1,-151.62"/>
<polygon fill="#63b8ff" stroke="#63b8ff" points="1308.53,-152.3 1306.96,-141.82 1301.66,-150.99 1308.53,-152.3"/>
</g>
<!-- Node37 -->
<g id="node37" class="node">
<title>Node37</title>
<g id="a_node37"><a xlink:href="OSSync_8h.html" target="_top" xlink:title=" ">
<polygon fill="white" stroke="#666666" points="1068.04,-255.5 961.04,-255.5 961.04,-236.5 1068.04,-236.5 1068.04,-255.5"/>
<text text-anchor="middle" x="1014.54" y="-243.5" font-family="Helvetica,sans-Serif" font-size="10.00">dolphin/os/OSSync.h</text>
</a>
</g>
</g>
<!-- Node21&#45;&gt;Node37 -->
<g id="edge71" class="edge">
<title>Node21&#45;&gt;Node37</title>
<path fill="none" stroke="#63b8ff" d="M792.62,-296.55C838.37,-286.34 913.31,-269.6 963.28,-258.45"/>
<polygon fill="#63b8ff" stroke="#63b8ff" points="964,-261.87 972.99,-256.28 962.47,-255.04 964,-261.87"/>
</g>
<!-- Node22&#45;&gt;Node5 -->
<g id="edge38" class="edge">
<title>Node22&#45;&gt;Node5</title>
<path fill="none" stroke="#63b8ff" d="M101.69,-123.94C112.15,-122.83 123.22,-121.77 133.54,-121 540.61,-90.7 1033.22,-80.1 1192.32,-77.32"/>
<polygon fill="#63b8ff" stroke="#63b8ff" points="1192.18,-80.82 1202.12,-77.15 1192.06,-73.83 1192.18,-80.82"/>
</g>
<!-- Node23&#45;&gt;Node14 -->
<g id="edge41" class="edge">
<title>Node23&#45;&gt;Node14</title>
<path fill="none" stroke="#63b8ff" d="M1578.87,-236.12C1589.16,-227.27 1605.18,-213.48 1617.73,-202.69"/>
<polygon fill="#63b8ff" stroke="#63b8ff" points="1619.67,-205.63 1624.97,-196.46 1615.11,-200.32 1619.67,-205.63"/>
</g>
<!-- Node23&#45;&gt;Node19 -->
<g id="edge40" class="edge">
<title>Node23&#45;&gt;Node19</title>
<path fill="none" stroke="#63b8ff" d="M1547.59,-236.12C1524.89,-226.49 1488.43,-211.04 1462.23,-199.93"/>
<polygon fill="#63b8ff" stroke="#63b8ff" points="1463.67,-196.74 1453.09,-196.06 1460.94,-203.18 1463.67,-196.74"/>
</g>
<!-- Node24&#45;&gt;Node5 -->
<g id="edge43" class="edge">
<title>Node24&#45;&gt;Node5</title>
<path fill="none" stroke="#63b8ff" d="M83.8,-175.7C113.21,-161.2 175.36,-132.72 231.54,-121 417.88,-82.13 1012.26,-77.18 1192.34,-76.57"/>
<polygon fill="#63b8ff" stroke="#63b8ff" points="1192.09,-80.08 1202.08,-76.55 1192.07,-73.08 1192.09,-80.08"/>
</g>
<!-- Node25&#45;&gt;Node5 -->
<g id="edge45" class="edge">
<title>Node25&#45;&gt;Node5</title>
<path fill="none" stroke="#63b8ff" d="M199.7,-175.93C210.64,-161.49 235.03,-132.76 263.54,-121 349.52,-85.56 1001.51,-78.2 1192.27,-76.81"/>
<polygon fill="#63b8ff" stroke="#63b8ff" points="1192.15,-80.31 1202.12,-76.74 1192.1,-73.31 1192.15,-80.31"/>
</g>
<!-- Node27&#45;&gt;Node5 -->
<g id="edge48" class="edge">
<title>Node27&#45;&gt;Node5</title>
<path fill="none" stroke="#63b8ff" d="M279.92,-236.23C280.87,-222.4 284.3,-195.12 296.54,-176 317.7,-142.98 328.87,-134.88 365.54,-121 442.68,-91.81 1014.9,-80.2 1192.28,-77.28"/>
<polygon fill="#63b8ff" stroke="#63b8ff" points="1192.17,-80.79 1202.11,-77.13 1192.05,-73.79 1192.17,-80.79"/>
</g>
<!-- Node28&#45;&gt;Node5 -->
<g id="edge52" class="edge">
<title>Node28&#45;&gt;Node5</title>
<path fill="none" stroke="#63b8ff" d="M359.97,-175.75C361.19,-161.59 365.84,-133.92 383.54,-121 416.3,-97.09 1010.76,-81.77 1192.32,-77.63"/>
<polygon fill="#63b8ff" stroke="#63b8ff" points="1192.24,-81.13 1202.16,-77.41 1192.08,-74.14 1192.24,-81.13"/>
</g>
<!-- Node29&#45;&gt;Node5 -->
<g id="edge54" class="edge">
<title>Node29&#45;&gt;Node5</title>
<path fill="none" stroke="#63b8ff" d="M498.37,-123.17C505.81,-122.38 513.36,-121.63 520.54,-121 771.87,-99.05 1073.2,-84.2 1192.38,-78.78"/>
<polygon fill="#63b8ff" stroke="#63b8ff" points="1192.32,-82.29 1202.15,-78.34 1192.01,-75.3 1192.32,-82.29"/>
</g>
<!-- Node30&#45;&gt;Node5 -->
<g id="edge56" class="edge">
<title>Node30&#45;&gt;Node5</title>
<path fill="none" stroke="#63b8ff" d="M533.48,-175.62C538.75,-161.27 551.29,-133.35 572.54,-121 625.64,-90.16 1044.06,-79.97 1192.52,-77.3"/>
<polygon fill="#63b8ff" stroke="#63b8ff" points="1192.53,-80.81 1202.46,-77.13 1192.4,-73.81 1192.53,-80.81"/>
</g>
<!-- Node31&#45;&gt;Node5 -->
<g id="edge58" class="edge">
<title>Node31&#45;&gt;Node5</title>
<path fill="none" stroke="#63b8ff" d="M685.9,-124.96C801.45,-114.94 1077.13,-91.02 1192.44,-81.02"/>
<polygon fill="#63b8ff" stroke="#63b8ff" points="1192.57,-84.52 1202.23,-80.17 1191.97,-77.55 1192.57,-84.52"/>
</g>
<!-- Node32&#45;&gt;Node30 -->
<g id="edge60" class="edge">
<title>Node32&#45;&gt;Node30</title>
<path fill="none" stroke="#63b8ff" d="M499,-236.37C504.25,-228.07 512.34,-215.28 519.02,-204.72"/>
<polygon fill="#63b8ff" stroke="#63b8ff" points="521.87,-206.77 524.25,-196.45 515.95,-203.03 521.87,-206.77"/>
</g>
<!-- Node33&#45;&gt;Node5 -->
<g id="edge64" class="edge">
<title>Node33&#45;&gt;Node5</title>
<path fill="none" stroke="#63b8ff" d="M876.88,-122.24C960.39,-111.85 1112.72,-92.9 1192.56,-82.97"/>
<polygon fill="#63b8ff" stroke="#63b8ff" points="1192.81,-86.46 1202.3,-81.76 1191.94,-79.52 1192.81,-86.46"/>
</g>
<!-- Node34&#45;&gt;Node5 -->
<g id="edge66" class="edge">
<title>Node34&#45;&gt;Node5</title>
<path fill="none" stroke="#63b8ff" d="M769.34,-175.52C811.57,-162.15 894.6,-136.85 966.54,-121 1044.69,-103.78 1136.59,-90.38 1192.68,-82.96"/>
<polygon fill="#63b8ff" stroke="#63b8ff" points="1192.79,-86.48 1202.25,-81.71 1191.88,-79.54 1192.79,-86.48"/>
</g>
<!-- Node35&#45;&gt;Node5 -->
<g id="edge68" class="edge">
<title>Node35&#45;&gt;Node5</title>
<path fill="none" stroke="#63b8ff" d="M1074.32,-120.51C1108.73,-111.61 1161.58,-97.95 1199.26,-88.21"/>
<polygon fill="#63b8ff" stroke="#63b8ff" points="1199.67,-91.72 1208.48,-85.83 1197.92,-84.94 1199.67,-91.72"/>
</g>
<!-- Node36&#45;&gt;Node5 -->
<g id="edge70" class="edge">
<title>Node36&#45;&gt;Node5</title>
<path fill="none" stroke="#63b8ff" d="M1297.69,-120.51C1288.44,-112.85 1274.92,-101.66 1263.83,-92.47"/>
<polygon fill="#63b8ff" stroke="#63b8ff" points="1266.34,-90.01 1256.41,-86.32 1261.88,-95.4 1266.34,-90.01"/>
</g>
</g>
</svg>
