<?xml version="1.0" encoding="UTF-8" standalone="no"?>
<!DOCTYPE svg PUBLIC "-//W3C//DTD SVG 1.1//EN"
 "http://www.w3.org/Graphics/SVG/1.1/DTD/svg11.dtd">
<!-- Generated by graphviz version 7.0.5 (20221223.1930)
 -->
<!-- Title: libs/JSystem/JKernel/JKRMemArchive.cpp Pages: 1 -->
<!--zoomable 522 -->
<svg id="main" version="1.1" xmlns="http://www.w3.org/2000/svg" xmlns:xlink="http://www.w3.org/1999/xlink" xml:space="preserve" onload="init(evt)">
<style type="text/css"><![CDATA[
.edge:hover path { stroke: red; }
.edge:hover polygon { stroke: red; fill: red; }
]]></style>
<script type="text/javascript"><![CDATA[
var edges = document.getElementsByTagName('g');
if (edges && edges.length) {
  for (var i=0;i<edges.length;i++) {
    if (edges[i].id.substr(0,4)=='edge') {
      edges[i].setAttribute('class','edge');
    }
  }
}
]]></script>
        <defs>
                <circle id="rim" cx="0" cy="0" r="7"/>
                <circle id="rim2" cx="0" cy="0" r="3.5"/>
                <g id="zoomPlus">
                        <use xlink:href="#rim" fill="#404040">
                                <set attributeName="fill" to="#808080" begin="zoomplus.mouseover" end="zoomplus.mouseout"/>
                        </use>
                        <path d="M-4,0h8M0,-4v8" fill="none" stroke="white" stroke-width="1.5" pointer-events="none"/>
                </g>
                <g id="zoomMin">
                        <use xlink:href="#rim" fill="#404040">
                                <set attributeName="fill" to="#808080" begin="zoomminus.mouseover" end="zoomminus.mouseout"/>
                        </use>
                        <path d="M-4,0h8" fill="none" stroke="white" stroke-width="1.5" pointer-events="none"/>
                </g>
                <g id="dirArrow">
                        <path fill="none" stroke="white" stroke-width="1.5" d="M0,-3.0v7 M-2.5,-0.5L0,-3.0L2.5,-0.5"/>
                </g>
               <g id="resetDef">
                       <use xlink:href="#rim2" fill="#404040">
                               <set attributeName="fill" to="#808080" begin="reset.mouseover" end="reset.mouseout"/>
                       </use>
               </g>
        </defs>

<script type="text/javascript">
var viewWidth = 1541;
var viewHeight = 522;
var sectionId = 'dynsection-0';
</script>
<script xlink:href="svgpan.js"/>
<svg id="graph" class="graph">
<g id="viewport">
<title>libs/JSystem/JKernel/JKRMemArchive.cpp</title>
<!-- Node1 -->
<g id="node1" class="node">
<title>Node1</title>
<g id="a_node1"><a xlink:title=" ">
<polygon fill="#999999" stroke="#666666" points="538.5,-514 427.5,-514 427.5,-484 538.5,-484 538.5,-514"/>
<text text-anchor="start" x="435.5" y="-502" font-family="Helvetica,sans-Serif" font-size="10.00">libs/JSystem/JKernel</text>
<text text-anchor="middle" x="483" y="-491" font-family="Helvetica,sans-Serif" font-size="10.00">/JKRMemArchive.cpp</text>
</a>
</g>
</g>
<!-- Node2 -->
<g id="node2" class="node">
<title>Node2</title>
<g id="a_node2"><a xlink:href="JKRMemArchive_8h.html" target="_top" xlink:title=" ">
<polygon fill="white" stroke="#666666" points="424.5,-448 249.5,-448 249.5,-429 424.5,-429 424.5,-448"/>
<text text-anchor="middle" x="337" y="-436" font-family="Helvetica,sans-Serif" font-size="10.00">JSystem/JKernel/JKRMemArchive.h</text>
</a>
</g>
</g>
<!-- Node1&#45;&gt;Node2 -->
<g id="edge1" class="edge">
<title>Node1&#45;&gt;Node2</title>
<path fill="none" stroke="#63b8ff" d="M446.91,-483.54C423.25,-474.06 392.58,-461.77 369.65,-452.58"/>
<polygon fill="#63b8ff" stroke="#63b8ff" points="371.07,-449.38 360.48,-448.91 368.46,-455.88 371.07,-449.38"/>
</g>
<!-- Node10 -->
<g id="node10" class="node">
<title>Node10</title>
<g id="a_node10"><a xlink:href="global_8h.html" target="_top" xlink:title=" ">
<polygon fill="white" stroke="#666666" points="188,-332.5 138,-332.5 138,-313.5 188,-313.5 188,-332.5"/>
<text text-anchor="middle" x="163" y="-320.5" font-family="Helvetica,sans-Serif" font-size="10.00">global.h</text>
</a>
</g>
</g>
<!-- Node1&#45;&gt;Node10 -->
<g id="edge53" class="edge">
<title>Node1&#45;&gt;Node10</title>
<path fill="none" stroke="#63b8ff" d="M427.22,-496.71C375.44,-493.25 297.86,-482.16 240,-448 200.48,-424.67 178.33,-372.28 168.76,-343.63"/>
<polygon fill="#63b8ff" stroke="#63b8ff" points="172.2,-342.9 165.87,-334.4 165.52,-344.99 172.2,-342.9"/>
</g>
<!-- Node11 -->
<g id="node11" class="node">
<title>Node11</title>
<g id="a_node11"><a xlink:href="JKRDecomp_8h.html" target="_top" xlink:title=" ">
<polygon fill="white" stroke="#666666" points="672,-448 516,-448 516,-429 672,-429 672,-448"/>
<text text-anchor="middle" x="594" y="-436" font-family="Helvetica,sans-Serif" font-size="10.00">JSystem/JKernel/JKRDecomp.h</text>
</a>
</g>
</g>
<!-- Node1&#45;&gt;Node11 -->
<g id="edge12" class="edge">
<title>Node1&#45;&gt;Node11</title>
<path fill="none" stroke="#63b8ff" d="M510.44,-483.54C527.77,-474.4 550.06,-462.66 567.25,-453.6"/>
<polygon fill="#63b8ff" stroke="#63b8ff" points="568.66,-456.81 575.88,-449.05 565.4,-450.62 568.66,-456.81"/>
</g>
<!-- Node19 -->
<g id="node19" class="node">
<title>Node19</title>
<g id="a_node19"><a xlink:href="JKRDvdRipper_8h.html" target="_top" xlink:title=" ">
<polygon fill="white" stroke="#666666" points="565.5,-393 400.5,-393 400.5,-374 565.5,-374 565.5,-393"/>
<text text-anchor="middle" x="483" y="-381" font-family="Helvetica,sans-Serif" font-size="10.00">JSystem/JKernel/JKRDvdRipper.h</text>
</a>
</g>
</g>
<!-- Node1&#45;&gt;Node19 -->
<g id="edge26" class="edge">
<title>Node1&#45;&gt;Node19</title>
<path fill="none" stroke="#63b8ff" d="M483,-483.63C483,-463.59 483,-427.17 483,-404.49"/>
<polygon fill="#63b8ff" stroke="#63b8ff" points="486.5,-404.74 483,-394.74 479.5,-404.74 486.5,-404.74"/>
</g>
<!-- Node20 -->
<g id="node20" class="node">
<title>Node20</title>
<g id="a_node20"><a xlink:href="JUTException_8h.html" target="_top" xlink:title=" ">
<polygon fill="white" stroke="#666666" points="1146.5,-448 987.5,-448 987.5,-429 1146.5,-429 1146.5,-448"/>
<text text-anchor="middle" x="1067" y="-436" font-family="Helvetica,sans-Serif" font-size="10.00">JSystem/JUtility/JUTException.h</text>
</a>
</g>
</g>
<!-- Node1&#45;&gt;Node20 -->
<g id="edge29" class="edge">
<title>Node1&#45;&gt;Node20</title>
<path fill="none" stroke="#63b8ff" d="M539,-492.39C640.05,-482.27 853.72,-460.86 976.01,-448.61"/>
<polygon fill="#63b8ff" stroke="#63b8ff" points="976.08,-452.13 985.68,-447.65 975.38,-445.16 976.08,-452.13"/>
</g>
<!-- Node26 -->
<g id="node26" class="node">
<title>Node26</title>
<g id="a_node26"><a xlink:href="string_8h.html" target="_top" xlink:title=" ">
<polygon fill="white" stroke="#666666" points="187,-156.5 103,-156.5 103,-137.5 187,-137.5 187,-156.5"/>
<text text-anchor="middle" x="145" y="-144.5" font-family="Helvetica,sans-Serif" font-size="10.00">MSL_C/string.h</text>
</a>
</g>
</g>
<!-- Node1&#45;&gt;Node26 -->
<g id="edge45" class="edge">
<title>Node1&#45;&gt;Node26</title>
<path fill="none" stroke="#63b8ff" d="M427.16,-492.72C323.1,-481.32 110,-449.99 110,-384.5 110,-384.5 110,-384.5 110,-261.5 110,-227.07 124.89,-189.26 135.25,-167.13"/>
<polygon fill="#63b8ff" stroke="#63b8ff" points="138.37,-168.72 139.62,-158.19 132.08,-165.64 138.37,-168.72"/>
</g>
<!-- Node30 -->
<g id="node30" class="node">
<title>Node30</title>
<g id="a_node30"><a xlink:href="OSCache_8h.html" target="_top" xlink:title=" ">
<polygon fill="white" stroke="#666666" points="1532.5,-217 1419.5,-217 1419.5,-198 1532.5,-198 1532.5,-217"/>
<text text-anchor="middle" x="1476" y="-205" font-family="Helvetica,sans-Serif" font-size="10.00">dolphin/os/OSCache.h</text>
</a>
</g>
</g>
<!-- Node1&#45;&gt;Node30 -->
<g id="edge51" class="edge">
<title>Node1&#45;&gt;Node30</title>
<path fill="none" stroke="#63b8ff" d="M538.93,-497.37C745.29,-494.31 1452,-477.08 1452,-384.5 1452,-384.5 1452,-384.5 1452,-322 1452,-288.52 1462.12,-250.67 1469.21,-228.24"/>
<polygon fill="#63b8ff" stroke="#63b8ff" points="1472.48,-229.52 1472.29,-218.92 1465.83,-227.32 1472.48,-229.52"/>
</g>
<!-- Node3 -->
<g id="node3" class="node">
<title>Node3</title>
<g id="a_node3"><a xlink:href="JKRArchive_8h.html" target="_top" xlink:title=" ">
<polygon fill="white" stroke="#666666" points="382.5,-393 229.5,-393 229.5,-374 382.5,-374 382.5,-393"/>
<text text-anchor="middle" x="306" y="-381" font-family="Helvetica,sans-Serif" font-size="10.00">JSystem/JKernel/JKRArchive.h</text>
</a>
</g>
</g>
<!-- Node2&#45;&gt;Node3 -->
<g id="edge2" class="edge">
<title>Node2&#45;&gt;Node3</title>
<path fill="none" stroke="#63b8ff" d="M331.88,-428.75C327.82,-421.81 322.01,-411.86 316.91,-403.16"/>
<polygon fill="#63b8ff" stroke="#63b8ff" points="320.06,-401.61 311.99,-394.75 314.02,-405.15 320.06,-401.61"/>
</g>
<!-- Node4 -->
<g id="node4" class="node">
<title>Node4</title>
<g id="a_node4"><a xlink:href="JKRCompression_8h.html" target="_top" xlink:title=" ">
<polygon fill="white" stroke="#666666" points="567.5,-332.5 390.5,-332.5 390.5,-313.5 567.5,-313.5 567.5,-332.5"/>
<text text-anchor="middle" x="479" y="-320.5" font-family="Helvetica,sans-Serif" font-size="10.00">JSystem/JKernel/JKRCompression.h</text>
</a>
</g>
</g>
<!-- Node3&#45;&gt;Node4 -->
<g id="edge3" class="edge">
<title>Node3&#45;&gt;Node4</title>
<path fill="none" stroke="#63b8ff" d="M332.27,-373.62C361.49,-363.74 408.9,-347.71 441.89,-336.55"/>
<polygon fill="#63b8ff" stroke="#63b8ff" points="442.69,-339.97 451.04,-333.45 440.45,-333.34 442.69,-339.97"/>
</g>
<!-- Node5 -->
<g id="node5" class="node">
<title>Node5</title>
<g id="a_node5"><a xlink:href="JKRFileLoader_8h.html" target="_top" xlink:title=" ">
<polygon fill="white" stroke="#666666" points="372,-332.5 206,-332.5 206,-313.5 372,-313.5 372,-332.5"/>
<text text-anchor="middle" x="289" y="-320.5" font-family="Helvetica,sans-Serif" font-size="10.00">JSystem/JKernel/JKRFileLoader.h</text>
</a>
</g>
</g>
<!-- Node3&#45;&gt;Node5 -->
<g id="edge4" class="edge">
<title>Node3&#45;&gt;Node5</title>
<path fill="none" stroke="#63b8ff" d="M303.49,-373.87C301.18,-365.92 297.67,-353.83 294.68,-343.55"/>
<polygon fill="#63b8ff" stroke="#63b8ff" points="298.09,-342.75 291.94,-334.12 291.37,-344.7 298.09,-342.75"/>
</g>
<!-- Node3&#45;&gt;Node10 -->
<g id="edge10" class="edge">
<title>Node3&#45;&gt;Node10</title>
<path fill="none" stroke="#63b8ff" d="M284.28,-373.65C262.27,-364.69 227.26,-350.41 197,-338 196.37,-337.74 195.74,-337.48 195.1,-337.22"/>
<polygon fill="#63b8ff" stroke="#63b8ff" points="196.56,-334.04 185.98,-333.47 193.9,-340.51 196.56,-334.04"/>
</g>
<!-- Node6 -->
<g id="node6" class="node">
<title>Node6</title>
<g id="a_node6"><a xlink:href="JKRDisposer_8h.html" target="_top" xlink:title=" ">
<polygon fill="white" stroke="#666666" points="650,-272 492,-272 492,-253 650,-253 650,-272"/>
<text text-anchor="middle" x="571" y="-260" font-family="Helvetica,sans-Serif" font-size="10.00">JSystem/JKernel/JKRDisposer.h</text>
</a>
</g>
</g>
<!-- Node5&#45;&gt;Node6 -->
<g id="edge5" class="edge">
<title>Node5&#45;&gt;Node6</title>
<path fill="none" stroke="#63b8ff" d="M332.14,-313.05C381.69,-302.77 463.06,-285.89 516.83,-274.74"/>
<polygon fill="#63b8ff" stroke="#63b8ff" points="517.31,-278.21 526.39,-272.76 515.88,-271.36 517.31,-278.21"/>
</g>
<!-- Node8 -->
<g id="node8" class="node">
<title>Node8</title>
<g id="a_node8"><a xlink:href="types_8h.html" target="_top" xlink:title=" ">
<polygon fill="white" stroke="#666666" points="1056.5,-90.5 975.5,-90.5 975.5,-71.5 1056.5,-71.5 1056.5,-90.5"/>
<text text-anchor="middle" x="1016" y="-78.5" font-family="Helvetica,sans-Serif" font-size="10.00">dolphin/types.h</text>
</a>
</g>
</g>
<!-- Node5&#45;&gt;Node8 -->
<g id="edge9" class="edge">
<title>Node5&#45;&gt;Node8</title>
<path fill="none" stroke="#63b8ff" d="M291.6,-313.16C301.33,-281.86 338.84,-175.8 412,-132 458.77,-104 825.54,-88.57 963.64,-83.71"/>
<polygon fill="#63b8ff" stroke="#63b8ff" points="963.74,-87.2 973.61,-83.36 963.49,-80.21 963.74,-87.2"/>
</g>
<!-- Node7 -->
<g id="node7" class="node">
<title>Node7</title>
<g id="a_node7"><a xlink:href="JSUList_8h.html" target="_top" xlink:title=" ">
<polygon fill="white" stroke="#666666" points="642.5,-217 499.5,-217 499.5,-198 642.5,-198 642.5,-217"/>
<text text-anchor="middle" x="571" y="-205" font-family="Helvetica,sans-Serif" font-size="10.00">JSystem/JSupport/JSUList.h</text>
</a>
</g>
</g>
<!-- Node6&#45;&gt;Node7 -->
<g id="edge6" class="edge">
<title>Node6&#45;&gt;Node7</title>
<path fill="none" stroke="#63b8ff" d="M571,-252.75C571,-246.27 571,-237.16 571,-228.9"/>
<polygon fill="#63b8ff" stroke="#63b8ff" points="574.5,-228.96 571,-218.96 567.5,-228.96 574.5,-228.96"/>
</g>
<!-- Node7&#45;&gt;Node8 -->
<g id="edge7" class="edge">
<title>Node7&#45;&gt;Node8</title>
<path fill="none" stroke="#63b8ff" d="M598.91,-197.57C644.4,-183.13 737.44,-154.03 817,-132 867.88,-117.91 926.55,-103.38 966.94,-93.63"/>
<polygon fill="#63b8ff" stroke="#63b8ff" points="967.7,-97.05 976.61,-91.31 966.07,-90.24 967.7,-97.05"/>
</g>
<!-- Node9 -->
<g id="node9" class="node">
<title>Node9</title>
<g id="a_node9"><a xlink:href="stddef_8h.html" target="_top" xlink:title=" ">
<polygon fill="white" stroke="#666666" points="444,-30 308,-30 308,0 444,0 444,-30"/>
<text text-anchor="start" x="316" y="-18" font-family="Helvetica,sans-Serif" font-size="10.00">MSL_C/MSL_Common/Src</text>
<text text-anchor="middle" x="376" y="-7" font-family="Helvetica,sans-Serif" font-size="10.00">/stddef.h</text>
</a>
</g>
</g>
<!-- Node8&#45;&gt;Node9 -->
<g id="edge8" class="edge">
<title>Node8&#45;&gt;Node9</title>
<path fill="none" stroke="#63b8ff" d="M975.48,-75.95C871.45,-65.54 593.47,-37.75 455.69,-23.97"/>
<polygon fill="#63b8ff" stroke="#63b8ff" points="456.21,-20.5 445.91,-22.99 455.51,-27.47 456.21,-20.5"/>
</g>
<!-- Node10&#45;&gt;Node8 -->
<g id="edge11" class="edge">
<title>Node10&#45;&gt;Node8</title>
<path fill="none" stroke="#63b8ff" d="M169.27,-313.05C192.06,-281.37 274.31,-174.19 372,-132 478.04,-86.21 830.41,-81.74 964.02,-81.74"/>
<polygon fill="#63b8ff" stroke="#63b8ff" points="963.62,-85.24 973.62,-81.75 963.63,-78.24 963.62,-85.24"/>
</g>
<!-- Node11&#45;&gt;Node4 -->
<g id="edge13" class="edge">
<title>Node11&#45;&gt;Node4</title>
<path fill="none" stroke="#63b8ff" d="M593.33,-428.7C591.9,-415.43 587.48,-390.15 574,-374 559.85,-357.06 538.47,-345.09 519.57,-337.12"/>
<polygon fill="#63b8ff" stroke="#63b8ff" points="521.09,-333.96 510.5,-333.55 518.52,-340.47 521.09,-333.96"/>
</g>
<!-- Node12 -->
<g id="node12" class="node">
<title>Node12</title>
<g id="a_node12"><a xlink:href="JKRThread_8h.html" target="_top" xlink:title=" ">
<polygon fill="white" stroke="#666666" points="877,-393 727,-393 727,-374 877,-374 877,-393"/>
<text text-anchor="middle" x="802" y="-381" font-family="Helvetica,sans-Serif" font-size="10.00">JSystem/JKernel/JKRThread.h</text>
</a>
</g>
</g>
<!-- Node11&#45;&gt;Node12 -->
<g id="edge14" class="edge">
<title>Node11&#45;&gt;Node12</title>
<path fill="none" stroke="#63b8ff" d="M629.28,-428.51C664.2,-419.61 717.83,-405.95 756.05,-396.21"/>
<polygon fill="#63b8ff" stroke="#63b8ff" points="756.6,-399.68 765.42,-393.82 754.87,-392.9 756.6,-399.68"/>
</g>
<!-- Node12&#45;&gt;Node8 -->
<g id="edge25" class="edge">
<title>Node12&#45;&gt;Node8</title>
<path fill="none" stroke="#63b8ff" d="M769.2,-373.53C738.85,-365.04 692.58,-351.59 653,-338 618.26,-326.07 610.24,-321.3 576,-308 534.68,-291.95 508.05,-308.56 483,-272 473.07,-257.51 471.44,-219.85 490,-198 551.16,-126.01 843.36,-95.4 963.86,-85.69"/>
<polygon fill="#63b8ff" stroke="#63b8ff" points="964.11,-89.19 973.81,-84.91 963.56,-82.21 964.11,-89.19"/>
</g>
<!-- Node13 -->
<g id="node13" class="node">
<title>Node13</title>
<g id="a_node13"><a xlink:href="JKRHeap_8h.html" target="_top" xlink:title=" ">
<polygon fill="white" stroke="#666666" points="805.5,-332.5 662.5,-332.5 662.5,-313.5 805.5,-313.5 805.5,-332.5"/>
<text text-anchor="middle" x="734" y="-320.5" font-family="Helvetica,sans-Serif" font-size="10.00">JSystem/JKernel/JKRHeap.h</text>
</a>
</g>
</g>
<!-- Node12&#45;&gt;Node13 -->
<g id="edge15" class="edge">
<title>Node12&#45;&gt;Node13</title>
<path fill="none" stroke="#63b8ff" d="M791.67,-373.62C781.39,-364.77 765.37,-350.98 752.82,-340.19"/>
<polygon fill="#63b8ff" stroke="#63b8ff" points="755.44,-337.82 745.57,-333.96 750.87,-343.13 755.44,-337.82"/>
</g>
<!-- Node17 -->
<g id="node17" class="node">
<title>Node17</title>
<g id="a_node17"><a xlink:href="OSMessage_8h.html" target="_top" xlink:title=" ">
<polygon fill="white" stroke="#666666" points="923.5,-272 798.5,-272 798.5,-253 923.5,-253 923.5,-272"/>
<text text-anchor="middle" x="861" y="-260" font-family="Helvetica,sans-Serif" font-size="10.00">dolphin/os/OSMessage.h</text>
</a>
</g>
</g>
<!-- Node12&#45;&gt;Node17 -->
<g id="edge21" class="edge">
<title>Node12&#45;&gt;Node17</title>
<path fill="none" stroke="#63b8ff" d="M806.43,-373.56C816.01,-354.25 838.77,-308.33 851.67,-282.31"/>
<polygon fill="#63b8ff" stroke="#63b8ff" points="854.7,-284.09 856,-273.58 848.42,-280.99 854.7,-284.09"/>
</g>
<!-- Node18 -->
<g id="node18" class="node">
<title>Node18</title>
<g id="a_node18"><a xlink:href="OSTime_8h.html" target="_top" xlink:title=" ">
<polygon fill="white" stroke="#666666" points="1048.5,-272 941.5,-272 941.5,-253 1048.5,-253 1048.5,-272"/>
<text text-anchor="middle" x="995" y="-260" font-family="Helvetica,sans-Serif" font-size="10.00">dolphin/os/OSTime.h</text>
</a>
</g>
</g>
<!-- Node12&#45;&gt;Node18 -->
<g id="edge23" class="edge">
<title>Node12&#45;&gt;Node18</title>
<path fill="none" stroke="#63b8ff" d="M816.51,-373.56C849.49,-353.22 930.39,-303.34 970.97,-278.32"/>
<polygon fill="#63b8ff" stroke="#63b8ff" points="972.63,-281.41 979.3,-273.18 968.95,-275.45 972.63,-281.41"/>
</g>
<!-- Node13&#45;&gt;Node6 -->
<g id="edge16" class="edge">
<title>Node13&#45;&gt;Node6</title>
<path fill="none" stroke="#63b8ff" d="M709.24,-313.12C681.96,-303.32 637.83,-287.48 606.78,-276.34"/>
<polygon fill="#63b8ff" stroke="#63b8ff" points="608.01,-273.06 597.41,-272.98 605.64,-279.65 608.01,-273.06"/>
</g>
<!-- Node14 -->
<g id="node14" class="node">
<title>Node14</title>
<g id="a_node14"><a xlink:href="OSMutex_8h.html" target="_top" xlink:title=" ">
<polygon fill="white" stroke="#666666" points="780,-272 668,-272 668,-253 780,-253 780,-272"/>
<text text-anchor="middle" x="724" y="-260" font-family="Helvetica,sans-Serif" font-size="10.00">dolphin/os/OSMutex.h</text>
</a>
</g>
</g>
<!-- Node13&#45;&gt;Node14 -->
<g id="edge17" class="edge">
<title>Node13&#45;&gt;Node14</title>
<path fill="none" stroke="#63b8ff" d="M732.52,-313.37C731.18,-305.5 729.14,-293.6 727.4,-283.39"/>
<polygon fill="#63b8ff" stroke="#63b8ff" points="730.87,-282.93 725.74,-273.66 723.97,-284.11 730.87,-282.93"/>
</g>
<!-- Node15 -->
<g id="node15" class="node">
<title>Node15</title>
<g id="a_node15"><a xlink:href="OSThread_8h.html" target="_top" xlink:title=" ">
<polygon fill="white" stroke="#666666" points="919,-217 803,-217 803,-198 919,-198 919,-217"/>
<text text-anchor="middle" x="861" y="-205" font-family="Helvetica,sans-Serif" font-size="10.00">dolphin/os/OSThread.h</text>
</a>
</g>
</g>
<!-- Node14&#45;&gt;Node15 -->
<g id="edge18" class="edge">
<title>Node14&#45;&gt;Node15</title>
<path fill="none" stroke="#63b8ff" d="M747.24,-252.51C769.32,-243.97 802.75,-231.03 827.67,-221.4"/>
<polygon fill="#63b8ff" stroke="#63b8ff" points="828.63,-224.78 836.69,-217.9 826.1,-218.25 828.63,-224.78"/>
</g>
<!-- Node16 -->
<g id="node16" class="node">
<title>Node16</title>
<g id="a_node16"><a xlink:href="OSContext_8h.html" target="_top" xlink:title=" ">
<polygon fill="white" stroke="#666666" points="945.5,-156.5 826.5,-156.5 826.5,-137.5 945.5,-137.5 945.5,-156.5"/>
<text text-anchor="middle" x="886" y="-144.5" font-family="Helvetica,sans-Serif" font-size="10.00">dolphin/os/OSContext.h</text>
</a>
</g>
</g>
<!-- Node15&#45;&gt;Node16 -->
<g id="edge19" class="edge">
<title>Node15&#45;&gt;Node16</title>
<path fill="none" stroke="#63b8ff" d="M864.69,-197.87C868.12,-189.83 873.36,-177.57 877.79,-167.22"/>
<polygon fill="#63b8ff" stroke="#63b8ff" points="880.99,-168.63 881.7,-158.06 874.55,-165.88 880.99,-168.63"/>
</g>
<!-- Node16&#45;&gt;Node8 -->
<g id="edge20" class="edge">
<title>Node16&#45;&gt;Node8</title>
<path fill="none" stroke="#63b8ff" d="M904.08,-137.1C925.81,-126.4 962.53,-108.33 987.95,-95.81"/>
<polygon fill="#63b8ff" stroke="#63b8ff" points="989.29,-99.05 996.72,-91.49 986.2,-92.77 989.29,-99.05"/>
</g>
<!-- Node17&#45;&gt;Node15 -->
<g id="edge22" class="edge">
<title>Node17&#45;&gt;Node15</title>
<path fill="none" stroke="#63b8ff" d="M861,-252.75C861,-246.27 861,-237.16 861,-228.9"/>
<polygon fill="#63b8ff" stroke="#63b8ff" points="864.5,-228.96 861,-218.96 857.5,-228.96 864.5,-228.96"/>
</g>
<!-- Node18&#45;&gt;Node8 -->
<g id="edge24" class="edge">
<title>Node18&#45;&gt;Node8</title>
<path fill="none" stroke="#63b8ff" d="M996.01,-252.84C999.19,-225.66 1009.04,-141.52 1013.61,-102.39"/>
<polygon fill="#63b8ff" stroke="#63b8ff" points="1017.09,-102.84 1014.77,-92.5 1010.13,-102.02 1017.09,-102.84"/>
</g>
<!-- Node19&#45;&gt;Node4 -->
<g id="edge27" class="edge">
<title>Node19&#45;&gt;Node4</title>
<path fill="none" stroke="#63b8ff" d="M482.41,-373.87C481.87,-366 481.06,-354.1 480.36,-343.89"/>
<polygon fill="#63b8ff" stroke="#63b8ff" points="483.87,-343.92 479.7,-334.18 476.89,-344.39 483.87,-343.92"/>
</g>
<!-- Node19&#45;&gt;Node7 -->
<g id="edge28" class="edge">
<title>Node19&#45;&gt;Node7</title>
<path fill="none" stroke="#63b8ff" d="M524.16,-373.55C543.4,-367.09 564.55,-356.17 576,-338 618.13,-271.14 486.6,-277.25 483,-272 467.49,-249.37 498.1,-231.94 527.38,-221.11"/>
<polygon fill="#63b8ff" stroke="#63b8ff" points="528.28,-224.5 536.59,-217.92 525.99,-217.89 528.28,-224.5"/>
</g>
<!-- Node20&#45;&gt;Node8 -->
<g id="edge43" class="edge">
<title>Node20&#45;&gt;Node8</title>
<path fill="none" stroke="#63b8ff" d="M1065.23,-428.77C1061.84,-411.51 1054.53,-371.8 1052,-338 1051,-324.7 1051.08,-321.3 1052,-308 1053.11,-291.88 1055.89,-288.12 1057,-272 1061.39,-208.46 1037.02,-135.33 1023.91,-101.29"/>
<polygon fill="#63b8ff" stroke="#63b8ff" points="1027.31,-100.37 1020.37,-92.37 1020.81,-102.96 1027.31,-100.37"/>
</g>
<!-- Node20&#45;&gt;Node10 -->
<g id="edge44" class="edge">
<title>Node20&#45;&gt;Node10</title>
<path fill="none" stroke="#63b8ff" d="M987.31,-435.05C782.96,-428.52 253.91,-410.07 220,-393 198.37,-382.11 181.95,-358.9 172.41,-342.42"/>
<polygon fill="#63b8ff" stroke="#63b8ff" points="175.73,-341.19 167.88,-334.08 169.58,-344.53 175.73,-341.19"/>
</g>
<!-- Node20&#45;&gt;Node12 -->
<g id="edge30" class="edge">
<title>Node20&#45;&gt;Node12</title>
<path fill="none" stroke="#63b8ff" d="M1022.05,-428.51C976.7,-419.44 906.59,-405.42 857.74,-395.65"/>
<polygon fill="#63b8ff" stroke="#63b8ff" points="858.71,-392.27 848.22,-393.74 857.33,-399.14 858.71,-392.27"/>
</g>
<!-- Node21 -->
<g id="node21" class="node">
<title>Node21</title>
<g id="a_node21"><a xlink:href="JUTGamePad_8h.html" target="_top" xlink:title=" ">
<polygon fill="white" stroke="#666666" points="1197,-338 1061,-338 1061,-308 1197,-308 1197,-338"/>
<text text-anchor="start" x="1069" y="-326" font-family="Helvetica,sans-Serif" font-size="10.00">JSystem/JUtility/JUTGame</text>
<text text-anchor="middle" x="1129" y="-315" font-family="Helvetica,sans-Serif" font-size="10.00">Pad.h</text>
</a>
</g>
</g>
<!-- Node20&#45;&gt;Node21 -->
<g id="edge31" class="edge">
<title>Node20&#45;&gt;Node21</title>
<path fill="none" stroke="#63b8ff" d="M1071.87,-428.59C1081.21,-411.49 1101.95,-373.52 1115.7,-348.35"/>
<polygon fill="#63b8ff" stroke="#63b8ff" points="1118.66,-350.22 1120.39,-339.77 1112.52,-346.87 1118.66,-350.22"/>
</g>
<!-- Node23 -->
<g id="node23" class="node">
<title>Node23</title>
<g id="a_node23"><a xlink:href="____va__arg_8h.html" target="_top" xlink:title=" ">
<polygon fill="white" stroke="#666666" points="1272,-162 1162,-162 1162,-132 1272,-132 1272,-162"/>
<text text-anchor="start" x="1170" y="-150" font-family="Helvetica,sans-Serif" font-size="10.00">Runtime.PPCEABI.H/</text>
<text text-anchor="middle" x="1217" y="-139" font-family="Helvetica,sans-Serif" font-size="10.00">__va_arg.h</text>
</a>
</g>
</g>
<!-- Node20&#45;&gt;Node23 -->
<g id="edge37" class="edge">
<title>Node20&#45;&gt;Node23</title>
<path fill="none" stroke="#63b8ff" d="M1103.65,-428.59C1150.32,-414.8 1225,-383.44 1225,-324 1225,-324 1225,-324 1225,-261.5 1225,-231.19 1222.13,-196.45 1219.82,-173.47"/>
<polygon fill="#63b8ff" stroke="#63b8ff" points="1223.34,-173.4 1218.81,-163.82 1216.37,-174.13 1223.34,-173.4"/>
</g>
<!-- Node24 -->
<g id="node24" class="node">
<title>Node24</title>
<g id="a_node24"><a xlink:href="GXEnum_8h.html" target="_top" xlink:title=" ">
<polygon fill="white" stroke="#666666" points="1363,-217 1253,-217 1253,-198 1363,-198 1363,-217"/>
<text text-anchor="middle" x="1308" y="-205" font-family="Helvetica,sans-Serif" font-size="10.00">dolphin/gx/GXEnum.h</text>
</a>
</g>
</g>
<!-- Node20&#45;&gt;Node24 -->
<g id="edge39" class="edge">
<title>Node20&#45;&gt;Node24</title>
<path fill="none" stroke="#63b8ff" d="M1146.86,-432.66C1178.8,-427.01 1213.9,-415.6 1239,-393 1288.09,-348.8 1302.38,-266.26 1306.44,-228.4"/>
<polygon fill="#63b8ff" stroke="#63b8ff" points="1309.88,-229.18 1307.32,-218.9 1302.91,-228.54 1309.88,-229.18"/>
</g>
<!-- Node25 -->
<g id="node25" class="node">
<title>Node25</title>
<g id="a_node25"><a xlink:href="OSError_8h.html" target="_top" xlink:title=" ">
<polygon fill="white" stroke="#666666" points="1441,-156.5 1335,-156.5 1335,-137.5 1441,-137.5 1441,-156.5"/>
<text text-anchor="middle" x="1388" y="-144.5" font-family="Helvetica,sans-Serif" font-size="10.00">dolphin/os/OSError.h</text>
</a>
</g>
</g>
<!-- Node20&#45;&gt;Node25 -->
<g id="edge41" class="edge">
<title>Node20&#45;&gt;Node25</title>
<path fill="none" stroke="#63b8ff" d="M1130.24,-428.5C1224.53,-413.29 1391,-378.68 1391,-324 1391,-324 1391,-324 1391,-261.5 1391,-228.87 1389.75,-190.99 1388.86,-168.29"/>
<polygon fill="#63b8ff" stroke="#63b8ff" points="1392.36,-168.19 1388.45,-158.34 1385.36,-168.47 1392.36,-168.19"/>
</g>
<!-- Node21&#45;&gt;Node6 -->
<g id="edge32" class="edge">
<title>Node21&#45;&gt;Node6</title>
<path fill="none" stroke="#63b8ff" d="M1060.58,-314.83C960.27,-304.31 773.16,-284.69 661.56,-272.99"/>
<polygon fill="#63b8ff" stroke="#63b8ff" points="662.15,-269.54 651.84,-271.98 661.42,-276.5 662.15,-269.54"/>
</g>
<!-- Node21&#45;&gt;Node8 -->
<g id="edge36" class="edge">
<title>Node21&#45;&gt;Node8</title>
<path fill="none" stroke="#63b8ff" d="M1124.35,-307.69C1113.57,-275.35 1085.2,-194.58 1051,-132 1044.88,-120.8 1036.77,-109.07 1029.9,-99.79"/>
<polygon fill="#63b8ff" stroke="#63b8ff" points="1032.84,-97.87 1024,-92.03 1027.26,-102.11 1032.84,-97.87"/>
</g>
<!-- Node21&#45;&gt;Node18 -->
<g id="edge33" class="edge">
<title>Node21&#45;&gt;Node18</title>
<path fill="none" stroke="#63b8ff" d="M1095.88,-307.54C1074.36,-298.15 1046.52,-285.99 1025.54,-276.83"/>
<polygon fill="#63b8ff" stroke="#63b8ff" points="1027.22,-273.75 1016.65,-272.95 1024.41,-280.16 1027.22,-273.75"/>
</g>
<!-- Node22 -->
<g id="node22" class="node">
<title>Node22</title>
<g id="a_node22"><a xlink:href="Pad_8h.html" target="_top" xlink:title=" ">
<polygon fill="white" stroke="#666666" points="1197,-217 1103,-217 1103,-198 1197,-198 1197,-217"/>
<text text-anchor="middle" x="1150" y="-205" font-family="Helvetica,sans-Serif" font-size="10.00">dolphin/pad/Pad.h</text>
</a>
</g>
</g>
<!-- Node21&#45;&gt;Node22 -->
<g id="edge34" class="edge">
<title>Node21&#45;&gt;Node22</title>
<path fill="none" stroke="#63b8ff" d="M1131.66,-307.63C1135.37,-287.59 1142.11,-251.17 1146.3,-228.49"/>
<polygon fill="#63b8ff" stroke="#63b8ff" points="1149.73,-229.19 1148.11,-218.72 1142.85,-227.91 1149.73,-229.19"/>
</g>
<!-- Node22&#45;&gt;Node8 -->
<g id="edge35" class="edge">
<title>Node22&#45;&gt;Node8</title>
<path fill="none" stroke="#63b8ff" d="M1143.95,-197.55C1133.73,-182.83 1111.91,-153.03 1089,-132 1074.38,-118.58 1055.93,-105.97 1041.23,-96.77"/>
<polygon fill="#63b8ff" stroke="#63b8ff" points="1043.4,-94 1033.04,-91.77 1039.75,-99.97 1043.4,-94"/>
</g>
<!-- Node23&#45;&gt;Node8 -->
<g id="edge38" class="edge">
<title>Node23&#45;&gt;Node8</title>
<path fill="none" stroke="#63b8ff" d="M1171.64,-131.56C1136.48,-120.36 1088.28,-105.01 1054.87,-94.38"/>
<polygon fill="#63b8ff" stroke="#63b8ff" points="1056.18,-91.12 1045.59,-91.42 1054.06,-97.79 1056.18,-91.12"/>
</g>
<!-- Node24&#45;&gt;Node8 -->
<g id="edge40" class="edge">
<title>Node24&#45;&gt;Node8</title>
<path fill="none" stroke="#63b8ff" d="M1307.51,-197.57C1306.14,-181.77 1300.91,-148.93 1281,-132 1249.6,-105.3 1136.05,-91.67 1068.19,-85.77"/>
<polygon fill="#63b8ff" stroke="#63b8ff" points="1068.67,-82.3 1058.41,-84.95 1068.08,-89.27 1068.67,-82.3"/>
</g>
<!-- Node25&#45;&gt;Node8 -->
<g id="edge42" class="edge">
<title>Node25&#45;&gt;Node8</title>
<path fill="none" stroke="#63b8ff" d="M1344.35,-137.04C1335.63,-135.31 1326.53,-133.56 1318,-132 1230.33,-115.98 1127.93,-99.49 1067.72,-90.03"/>
<polygon fill="#63b8ff" stroke="#63b8ff" points="1068.53,-86.61 1058.11,-88.52 1067.45,-93.53 1068.53,-86.61"/>
</g>
<!-- Node27 -->
<g id="node27" class="node">
<title>Node27</title>
<g id="a_node27"><a xlink:href="extras_8h.html" target="_top" xlink:title=" ">
<polygon fill="white" stroke="#666666" points="136,-96 0,-96 0,-66 136,-66 136,-96"/>
<text text-anchor="start" x="8" y="-84" font-family="Helvetica,sans-Serif" font-size="10.00">MSL_C/MSL_Common/Src</text>
<text text-anchor="middle" x="68" y="-73" font-family="Helvetica,sans-Serif" font-size="10.00">/extras.h</text>
</a>
</g>
</g>
<!-- Node26&#45;&gt;Node27 -->
<g id="edge46" class="edge">
<title>Node26&#45;&gt;Node27</title>
<path fill="none" stroke="#63b8ff" d="M134.29,-137.1C123.92,-128.48 107.78,-115.07 94.03,-103.63"/>
<polygon fill="#63b8ff" stroke="#63b8ff" points="96.51,-101.15 86.58,-97.45 92.04,-106.53 96.51,-101.15"/>
</g>
<!-- Node28 -->
<g id="node28" class="node">
<title>Node28</title>
<g id="a_node28"><a xlink:href="mem_8h.html" target="_top" xlink:title=" ">
<polygon fill="white" stroke="#666666" points="290,-96 154,-96 154,-66 290,-66 290,-96"/>
<text text-anchor="start" x="162" y="-84" font-family="Helvetica,sans-Serif" font-size="10.00">MSL_C/MSL_Common/Src</text>
<text text-anchor="middle" x="222" y="-73" font-family="Helvetica,sans-Serif" font-size="10.00">/mem.h</text>
</a>
</g>
</g>
<!-- Node26&#45;&gt;Node28 -->
<g id="edge47" class="edge">
<title>Node26&#45;&gt;Node28</title>
<path fill="none" stroke="#63b8ff" d="M155.71,-137.1C166.08,-128.48 182.22,-115.07 195.97,-103.63"/>
<polygon fill="#63b8ff" stroke="#63b8ff" points="197.96,-106.53 203.42,-97.45 193.49,-101.15 197.96,-106.53"/>
</g>
<!-- Node29 -->
<g id="node29" class="node">
<title>Node29</title>
<g id="a_node29"><a xlink:href="MSL__Common_2Src_2string_8h.html" target="_top" xlink:title=" ">
<polygon fill="white" stroke="#666666" points="444,-96 308,-96 308,-66 444,-66 444,-96"/>
<text text-anchor="start" x="316" y="-84" font-family="Helvetica,sans-Serif" font-size="10.00">MSL_C/MSL_Common/Src</text>
<text text-anchor="middle" x="376" y="-73" font-family="Helvetica,sans-Serif" font-size="10.00">/string.h</text>
</a>
</g>
</g>
<!-- Node26&#45;&gt;Node29 -->
<g id="edge49" class="edge">
<title>Node26&#45;&gt;Node29</title>
<path fill="none" stroke="#63b8ff" d="M177.12,-137.1C212.09,-127.41 268.9,-111.67 312.86,-99.49"/>
<polygon fill="#63b8ff" stroke="#63b8ff" points="313.58,-102.92 322.29,-96.88 311.71,-96.18 313.58,-102.92"/>
</g>
<!-- Node28&#45;&gt;Node9 -->
<g id="edge48" class="edge">
<title>Node28&#45;&gt;Node9</title>
<path fill="none" stroke="#63b8ff" d="M256.56,-65.64C278.48,-56.53 307.07,-44.65 330.78,-34.79"/>
<polygon fill="#63b8ff" stroke="#63b8ff" points="332,-38.08 339.89,-31.01 329.31,-31.61 332,-38.08"/>
</g>
<!-- Node29&#45;&gt;Node9 -->
<g id="edge50" class="edge">
<title>Node29&#45;&gt;Node9</title>
<path fill="none" stroke="#63b8ff" d="M376,-65.8C376,-58.67 376,-49.82 376,-41.56"/>
<polygon fill="#63b8ff" stroke="#63b8ff" points="379.5,-41.68 376,-31.68 372.5,-41.68 379.5,-41.68"/>
</g>
<!-- Node30&#45;&gt;Node8 -->
<g id="edge52" class="edge">
<title>Node30&#45;&gt;Node8</title>
<path fill="none" stroke="#63b8ff" d="M1475.77,-197.69C1474.85,-181.77 1470.43,-148.35 1450,-132 1392.19,-85.74 1170.16,-80.96 1067.99,-81.3"/>
<polygon fill="#63b8ff" stroke="#63b8ff" points="1068.22,-77.79 1058.24,-81.35 1068.26,-84.79 1068.22,-77.79"/>
</g>
</g>
</svg>
        <g id="navigator" transform="translate(0 0)" fill="#404254">
                <rect fill="#f2f5e9" fill-opacity="0.5" stroke="#606060" stroke-width=".5" x="0" y="0" width="60" height="60"/>
                <use id="zoomplus" xlink:href="#zoomPlus" x="17" y="9" onmousedown="handleZoom(evt,'in')"/>
                <use id="zoomminus" xlink:href="#zoomMin" x="42" y="9" onmousedown="handleZoom(evt,'out')"/>
                <use id="reset" xlink:href="#resetDef" x="30" y="36" onmousedown="handleReset()"/>
                <g id="arrowUp" xlink:href="#dirArrow" transform="translate(30 24)" onmousedown="handlePan(0,-1)">
                  <use xlink:href="#rim" fill="#404040">
                        <set attributeName="fill" to="#808080" begin="arrowUp.mouseover" end="arrowUp.mouseout"/>
                  </use>
                  <path fill="none" stroke="white" stroke-width="1.5" d="M0,-3.0v7 M-2.5,-0.5L0,-3.0L2.5,-0.5"/>
                </g>
                <g id="arrowRight" xlink:href="#dirArrow" transform="rotate(90) translate(36 -43)" onmousedown="handlePan(1,0)">
                  <use xlink:href="#rim" fill="#404040">
                        <set attributeName="fill" to="#808080" begin="arrowRight.mouseover" end="arrowRight.mouseout"/>
                  </use>
                  <path fill="none" stroke="white" stroke-width="1.5" d="M0,-3.0v7 M-2.5,-0.5L0,-3.0L2.5,-0.5"/>
                </g>
                <g id="arrowDown" xlink:href="#dirArrow" transform="rotate(180) translate(-30 -48)" onmousedown="handlePan(0,1)">
                  <use xlink:href="#rim" fill="#404040">
                        <set attributeName="fill" to="#808080" begin="arrowDown.mouseover" end="arrowDown.mouseout"/>
                  </use>
                  <path fill="none" stroke="white" stroke-width="1.5" d="M0,-3.0v7 M-2.5,-0.5L0,-3.0L2.5,-0.5"/>
                </g>
                <g id="arrowLeft" xlink:href="#dirArrow" transform="rotate(270) translate(-36 17)" onmousedown="handlePan(-1,0)">
                  <use xlink:href="#rim" fill="#404040">
                        <set attributeName="fill" to="#808080" begin="arrowLeft.mouseover" end="arrowLeft.mouseout"/>
                  </use>
                  <path fill="none" stroke="white" stroke-width="1.5" d="M0,-3.0v7 M-2.5,-0.5L0,-3.0L2.5,-0.5"/>
                </g>
        </g>
        <svg viewBox="0 0 15 15" width="100%" height="30px" preserveAspectRatio="xMaxYMin meet">
         <g id="arrow_out" transform="scale(0.3 0.3)">
          <a xlink:href="JKRMemArchive_8cpp__incl_org.svg" target="_base">
           <rect id="button" ry="5" rx="5" y="6" x="6" height="38" width="38"
                fill="#f2f5e9" fill-opacity="0.5" stroke="#606060" stroke-width="1.0"/>
           <path id="arrow"
             d="M 11.500037,31.436501 C 11.940474,20.09759 22.043105,11.32322 32.158766,21.979434 L 37.068811,17.246167 C 37.068811,17.246167 37.088388,32 37.088388,32 L 22.160133,31.978069 C 22.160133,31.978069 26.997745,27.140456 26.997745,27.140456 C 18.528582,18.264221 13.291696,25.230495 11.500037,31.436501 z"
             style="fill:#404040;"/>
          </a>
         </g>
        </svg>
</svg>
