<?xml version="1.0" encoding="UTF-8" standalone="no"?>
<!DOCTYPE svg PUBLIC "-//W3C//DTD SVG 1.1//EN"
 "http://www.w3.org/Graphics/SVG/1.1/DTD/svg11.dtd">
<!-- Generated by graphviz version 7.0.5 (20221223.1930)
 -->
<!-- Title: include/JSystem/JMessage/control.h Pages: 1 -->
<!--zoomable 236 -->
<svg id="main" version="1.1" xmlns="http://www.w3.org/2000/svg" xmlns:xlink="http://www.w3.org/1999/xlink" xml:space="preserve" onload="init(evt)">
<style type="text/css"><![CDATA[
.edge:hover path { stroke: red; }
.edge:hover polygon { stroke: red; fill: red; }
]]></style>
<script type="text/javascript"><![CDATA[
var edges = document.getElementsByTagName('g');
if (edges && edges.length) {
  for (var i=0;i<edges.length;i++) {
    if (edges[i].id.substr(0,4)=='edge') {
      edges[i].setAttribute('class','edge');
    }
  }
}
]]></script>
        <defs>
                <circle id="rim" cx="0" cy="0" r="7"/>
                <circle id="rim2" cx="0" cy="0" r="3.5"/>
                <g id="zoomPlus">
                        <use xlink:href="#rim" fill="#404040">
                                <set attributeName="fill" to="#808080" begin="zoomplus.mouseover" end="zoomplus.mouseout"/>
                        </use>
                        <path d="M-4,0h8M0,-4v8" fill="none" stroke="white" stroke-width="1.5" pointer-events="none"/>
                </g>
                <g id="zoomMin">
                        <use xlink:href="#rim" fill="#404040">
                                <set attributeName="fill" to="#808080" begin="zoomminus.mouseover" end="zoomminus.mouseout"/>
                        </use>
                        <path d="M-4,0h8" fill="none" stroke="white" stroke-width="1.5" pointer-events="none"/>
                </g>
                <g id="dirArrow">
                        <path fill="none" stroke="white" stroke-width="1.5" d="M0,-3.0v7 M-2.5,-0.5L0,-3.0L2.5,-0.5"/>
                </g>
               <g id="resetDef">
                       <use xlink:href="#rim2" fill="#404040">
                               <set attributeName="fill" to="#808080" begin="reset.mouseover" end="reset.mouseout"/>
                       </use>
               </g>
        </defs>

<script type="text/javascript">
var viewWidth = 3274;
var viewHeight = 236;
var sectionId = 'dynsection-1';
</script>
<script xlink:href="svgpan.js"/>
<svg id="graph" class="graph">
<g id="viewport">
<title>include/JSystem/JMessage/control.h</title>
<!-- Node1 -->
<g id="node1" class="node">
<title>Node1</title>
<g id="a_node1"><a xlink:title=" ">
<polygon fill="#999999" stroke="#666666" points="1841.5,-228 1704.5,-228 1704.5,-198 1841.5,-198 1841.5,-228"/>
<text text-anchor="start" x="1712.5" y="-216" font-family="Helvetica,sans-Serif" font-size="10.00">include/JSystem/JMessage</text>
<text text-anchor="middle" x="1773" y="-205" font-family="Helvetica,sans-Serif" font-size="10.00">/control.h</text>
</a>
</g>
</g>
<!-- Node2 -->
<g id="node2" class="node">
<title>Node2</title>
<g id="a_node2"><a xlink:href="d__msg__class_8h.html" target="_top" xlink:title=" ">
<polygon fill="white" stroke="#666666" points="375,-162 265,-162 265,-132 375,-132 375,-162"/>
<text text-anchor="start" x="273" y="-150" font-family="Helvetica,sans-Serif" font-size="10.00">include/d/msg/d_msg</text>
<text text-anchor="middle" x="320" y="-139" font-family="Helvetica,sans-Serif" font-size="10.00">_class.h</text>
</a>
</g>
</g>
<!-- Node1&#45;&gt;Node2 -->
<g id="edge1" class="edge">
<title>Node1&#45;&gt;Node2</title>
<path fill="none" stroke="#63b8ff" d="M1693.05,-208.48C1430.45,-196.91 598.47,-160.27 375.46,-150.44"/>
<polygon fill="#63b8ff" stroke="#63b8ff" points="1692.73,-211.97 1702.87,-208.91 1693.03,-204.97 1692.73,-211.97"/>
</g>
<!-- Node6 -->
<g id="node6" class="node">
<title>Node6</title>
<g id="a_node6"><a xlink:href="d__msg__object_8h.html" target="_top" xlink:title=" ">
<polygon fill="white" stroke="#666666" points="1761,-162 1651,-162 1651,-132 1761,-132 1761,-162"/>
<text text-anchor="start" x="1659" y="-150" font-family="Helvetica,sans-Serif" font-size="10.00">include/d/msg/d_msg</text>
<text text-anchor="middle" x="1706" y="-139" font-family="Helvetica,sans-Serif" font-size="10.00">_object.h</text>
</a>
</g>
</g>
<!-- Node1&#45;&gt;Node6 -->
<g id="edge5" class="edge">
<title>Node1&#45;&gt;Node6</title>
<path fill="none" stroke="#63b8ff" d="M1750.06,-190.09C1740.39,-180.85 1729.41,-170.36 1720.83,-162.16"/>
<polygon fill="#63b8ff" stroke="#63b8ff" points="1747.39,-192.37 1757.04,-196.75 1752.22,-187.31 1747.39,-192.37"/>
</g>
<!-- Node31 -->
<g id="node31" class="node">
<title>Node31</title>
<g id="a_node31"><a xlink:href="JMessage_2control_8cpp.html" target="_top" xlink:title=" ">
<polygon fill="white" stroke="#666666" points="1900.5,-162 1779.5,-162 1779.5,-132 1900.5,-132 1900.5,-162"/>
<text text-anchor="start" x="1787.5" y="-150" font-family="Helvetica,sans-Serif" font-size="10.00">libs/JSystem/JMessage</text>
<text text-anchor="middle" x="1840" y="-139" font-family="Helvetica,sans-Serif" font-size="10.00">/control.cpp</text>
</a>
</g>
</g>
<!-- Node1&#45;&gt;Node31 -->
<g id="edge32" class="edge">
<title>Node1&#45;&gt;Node31</title>
<path fill="none" stroke="#63b8ff" d="M1795.94,-190.09C1805.61,-180.85 1816.59,-170.36 1825.17,-162.16"/>
<polygon fill="#63b8ff" stroke="#63b8ff" points="1793.78,-187.31 1788.96,-196.75 1798.61,-192.37 1793.78,-187.31"/>
</g>
<!-- Node32 -->
<g id="node32" class="node">
<title>Node32</title>
<g id="a_node32"><a xlink:href="processor_8cpp.html" target="_top" xlink:title=" ">
<polygon fill="white" stroke="#666666" points="2039.5,-162 1918.5,-162 1918.5,-132 2039.5,-132 2039.5,-162"/>
<text text-anchor="start" x="1926.5" y="-150" font-family="Helvetica,sans-Serif" font-size="10.00">libs/JSystem/JMessage</text>
<text text-anchor="middle" x="1979" y="-139" font-family="Helvetica,sans-Serif" font-size="10.00">/processor.cpp</text>
</a>
</g>
</g>
<!-- Node1&#45;&gt;Node32 -->
<g id="edge33" class="edge">
<title>Node1&#45;&gt;Node32</title>
<path fill="none" stroke="#63b8ff" d="M1830.13,-194.25C1862.45,-184.21 1902.33,-171.82 1932.68,-162.39"/>
<polygon fill="#63b8ff" stroke="#63b8ff" points="1829.44,-190.8 1820.93,-197.11 1831.52,-197.48 1829.44,-190.8"/>
</g>
<!-- Node3 -->
<g id="node3" class="node">
<title>Node3</title>
<g id="a_node3"><a xlink:href="d__menu__option_8cpp.html" target="_top" xlink:title=" ">
<polygon fill="white" stroke="#666666" points="152,-90.5 0,-90.5 0,-71.5 152,-71.5 152,-90.5"/>
<text text-anchor="middle" x="76" y="-78.5" font-family="Helvetica,sans-Serif" font-size="10.00">src/d/menu/d_menu_option.cpp</text>
</a>
</g>
</g>
<!-- Node2&#45;&gt;Node3 -->
<g id="edge2" class="edge">
<title>Node2&#45;&gt;Node3</title>
<path fill="none" stroke="#63b8ff" d="M254.05,-128.7C207.61,-116.52 147.33,-100.71 110.17,-90.96"/>
<polygon fill="#63b8ff" stroke="#63b8ff" points="252.91,-132.02 263.47,-131.17 254.69,-125.25 252.91,-132.02"/>
</g>
<!-- Node4 -->
<g id="node4" class="node">
<title>Node4</title>
<g id="a_node4"><a xlink:href="d__msg__class_8cpp.html" target="_top" xlink:title=" ">
<polygon fill="white" stroke="#666666" points="309.5,-90.5 170.5,-90.5 170.5,-71.5 309.5,-71.5 309.5,-90.5"/>
<text text-anchor="middle" x="240" y="-78.5" font-family="Helvetica,sans-Serif" font-size="10.00">src/d/msg/d_msg_class.cpp</text>
</a>
</g>
</g>
<!-- Node2&#45;&gt;Node4 -->
<g id="edge3" class="edge">
<title>Node2&#45;&gt;Node4</title>
<path fill="none" stroke="#63b8ff" d="M293.66,-124.93C279.19,-113.35 262.01,-99.61 251.06,-90.84"/>
<polygon fill="#63b8ff" stroke="#63b8ff" points="291.07,-127.34 301.06,-130.85 295.44,-121.87 291.07,-127.34"/>
</g>
<!-- Node5 -->
<g id="node5" class="node">
<title>Node5</title>
<g id="a_node5"><a xlink:href="d__msg__object_8cpp.html" target="_top" xlink:title=" ">
<polygon fill="white" stroke="#666666" points="470,-90.5 328,-90.5 328,-71.5 470,-71.5 470,-90.5"/>
<text text-anchor="middle" x="399" y="-78.5" font-family="Helvetica,sans-Serif" font-size="10.00">src/d/msg/d_msg_object.cpp</text>
</a>
</g>
</g>
<!-- Node2&#45;&gt;Node5 -->
<g id="edge4" class="edge">
<title>Node2&#45;&gt;Node5</title>
<path fill="none" stroke="#63b8ff" d="M346.41,-124.6C360.62,-113.1 377.37,-99.52 388.08,-90.84"/>
<polygon fill="#63b8ff" stroke="#63b8ff" points="344.28,-121.83 338.71,-130.84 348.68,-127.27 344.28,-121.83"/>
</g>
<!-- Node6&#45;&gt;Node4 -->
<g id="edge19" class="edge">
<title>Node6&#45;&gt;Node4</title>
<path fill="none" stroke="#63b8ff" d="M1639.21,-144.83C1399.03,-140.42 579.65,-123.66 319,-96 307.64,-94.79 295.45,-92.93 284.13,-90.94"/>
<polygon fill="#63b8ff" stroke="#63b8ff" points="1638.96,-148.32 1649.03,-145.01 1639.09,-141.32 1638.96,-148.32"/>
</g>
<!-- Node6&#45;&gt;Node5 -->
<g id="edge21" class="edge">
<title>Node6&#45;&gt;Node5</title>
<path fill="none" stroke="#63b8ff" d="M1639.37,-146.38C1454.55,-146.77 920,-143.36 479,-96 467.64,-94.78 455.47,-92.93 444.12,-90.97"/>
<polygon fill="#63b8ff" stroke="#63b8ff" points="1639.27,-149.88 1649.26,-146.35 1639.25,-142.88 1639.27,-149.88"/>
</g>
<!-- Node7 -->
<g id="node7" class="node">
<title>Node7</title>
<g id="a_node7"><a xlink:href="d__timer_8h.html" target="_top" xlink:title=" ">
<polygon fill="white" stroke="#666666" points="2185,-90.5 2087,-90.5 2087,-71.5 2185,-71.5 2185,-90.5"/>
<text text-anchor="middle" x="2136" y="-78.5" font-family="Helvetica,sans-Serif" font-size="10.00">include/d/d_timer.h</text>
</a>
</g>
</g>
<!-- Node6&#45;&gt;Node7 -->
<g id="edge6" class="edge">
<title>Node6&#45;&gt;Node7</title>
<path fill="none" stroke="#63b8ff" d="M1772.65,-131.67C1907.92,-109.8 1945.9,-119.57 2078,-96 2085.75,-94.62 2094.01,-92.82 2101.79,-90.98"/>
<polygon fill="#63b8ff" stroke="#63b8ff" points="1772.23,-128.19 1762.93,-133.27 1773.37,-135.1 1772.23,-128.19"/>
</g>
<!-- Node11 -->
<g id="node11" class="node">
<title>Node11</title>
<g id="a_node11"><a xlink:href="d__a__alink_8cpp.html" target="_top" xlink:title=" ">
<polygon fill="white" stroke="#666666" points="2312.5,-90.5 2203.5,-90.5 2203.5,-71.5 2312.5,-71.5 2312.5,-90.5"/>
<text text-anchor="middle" x="2258" y="-78.5" font-family="Helvetica,sans-Serif" font-size="10.00">src/d/a/d_a_alink.cpp</text>
</a>
</g>
</g>
<!-- Node6&#45;&gt;Node11 -->
<g id="edge10" class="edge">
<title>Node6&#45;&gt;Node11</title>
<path fill="none" stroke="#63b8ff" d="M1772.72,-131.73C1959,-104.52 2010.65,-123.72 2194,-96 2202.77,-94.67 2212.14,-92.86 2220.93,-90.97"/>
<polygon fill="#63b8ff" stroke="#63b8ff" points="1772.29,-128.25 1762.92,-133.19 1773.32,-135.18 1772.29,-128.25"/>
</g>
<!-- Node12 -->
<g id="node12" class="node">
<title>Node12</title>
<g id="a_node12"><a xlink:href="d__a__npc_8cpp.html" target="_top" xlink:title=" ">
<polygon fill="white" stroke="#666666" points="2435,-90.5 2331,-90.5 2331,-71.5 2435,-71.5 2435,-90.5"/>
<text text-anchor="middle" x="2383" y="-78.5" font-family="Helvetica,sans-Serif" font-size="10.00">src/d/a/d_a_npc.cpp</text>
</a>
</g>
</g>
<!-- Node6&#45;&gt;Node12 -->
<g id="edge11" class="edge">
<title>Node6&#45;&gt;Node12</title>
<path fill="none" stroke="#63b8ff" d="M1772.73,-131.77C2015.46,-98.65 2082.42,-131.07 2322,-96 2330.6,-94.74 2339.78,-92.9 2348.34,-90.97"/>
<polygon fill="#63b8ff" stroke="#63b8ff" points="1772.33,-128.29 1762.91,-133.14 1773.3,-135.23 1772.33,-128.29"/>
</g>
<!-- Node13 -->
<g id="node13" class="node">
<title>Node13</title>
<g id="a_node13"><a xlink:href="d__demo_8cpp.html" target="_top" xlink:title=" ">
<polygon fill="white" stroke="#666666" points="2547,-90.5 2453,-90.5 2453,-71.5 2547,-71.5 2547,-90.5"/>
<text text-anchor="middle" x="2500" y="-78.5" font-family="Helvetica,sans-Serif" font-size="10.00">src/d/d_demo.cpp</text>
</a>
</g>
</g>
<!-- Node6&#45;&gt;Node13 -->
<g id="edge12" class="edge">
<title>Node6&#45;&gt;Node13</title>
<path fill="none" stroke="#63b8ff" d="M1772.51,-131.83C2069.27,-92.99 2150.97,-140.04 2444,-96 2452.03,-94.79 2460.58,-92.95 2468.52,-90.99"/>
<polygon fill="#63b8ff" stroke="#63b8ff" points="1772.36,-128.31 1762.91,-133.1 1773.28,-135.25 1772.36,-128.31"/>
</g>
<!-- Node14 -->
<g id="node14" class="node">
<title>Node14</title>
<g id="a_node14"><a xlink:href="d__event_8cpp.html" target="_top" xlink:title=" ">
<polygon fill="white" stroke="#666666" points="2686.5,-90.5 2565.5,-90.5 2565.5,-71.5 2686.5,-71.5 2686.5,-90.5"/>
<text text-anchor="middle" x="2626" y="-78.5" font-family="Helvetica,sans-Serif" font-size="10.00">src/d/event/d_event.cpp</text>
</a>
</g>
</g>
<!-- Node6&#45;&gt;Node14 -->
<g id="edge13" class="edge">
<title>Node6&#45;&gt;Node14</title>
<path fill="none" stroke="#63b8ff" d="M1772.76,-131.8C2118.73,-87.58 2212.61,-137.96 2556,-96 2565.96,-94.78 2576.63,-92.93 2586.56,-90.98"/>
<polygon fill="#63b8ff" stroke="#63b8ff" points="1772.37,-128.33 1762.9,-133.08 1773.27,-135.27 1772.37,-128.33"/>
</g>
<!-- Node15 -->
<g id="node15" class="node">
<title>Node15</title>
<g id="a_node15"><a xlink:href="d__event__data_8cpp.html" target="_top" xlink:title=" ">
<polygon fill="white" stroke="#666666" points="2807.5,-96 2704.5,-96 2704.5,-66 2807.5,-66 2807.5,-96"/>
<text text-anchor="start" x="2712.5" y="-84" font-family="Helvetica,sans-Serif" font-size="10.00">src/d/event/d_event</text>
<text text-anchor="middle" x="2756" y="-73" font-family="Helvetica,sans-Serif" font-size="10.00">_data.cpp</text>
</a>
</g>
</g>
<!-- Node6&#45;&gt;Node15 -->
<g id="edge14" class="edge">
<title>Node6&#45;&gt;Node15</title>
<path fill="none" stroke="#63b8ff" d="M1772.63,-131.84C2180.54,-81.07 2291.52,-150.55 2696,-96 2698.65,-95.64 2701.35,-95.22 2704.08,-94.75"/>
<polygon fill="#63b8ff" stroke="#63b8ff" points="1772.38,-128.34 1762.9,-133.07 1773.26,-135.28 1772.38,-128.34"/>
</g>
<!-- Node16 -->
<g id="node16" class="node">
<title>Node16</title>
<g id="a_node16"><a xlink:href="d__kankyo_8cpp.html" target="_top" xlink:title=" ">
<polygon fill="white" stroke="#666666" points="2960,-90.5 2826,-90.5 2826,-71.5 2960,-71.5 2960,-90.5"/>
<text text-anchor="middle" x="2893" y="-78.5" font-family="Helvetica,sans-Serif" font-size="10.00">src/d/kankyo/d_kankyo.cpp</text>
</a>
</g>
</g>
<!-- Node6&#45;&gt;Node16 -->
<g id="edge15" class="edge">
<title>Node6&#45;&gt;Node16</title>
<path fill="none" stroke="#63b8ff" d="M1772.7,-131.83C2233.97,-75.17 2357.85,-145.91 2817,-96 2827.94,-94.81 2839.67,-92.95 2850.56,-90.96"/>
<polygon fill="#63b8ff" stroke="#63b8ff" points="1772.39,-128.35 1762.9,-133.05 1773.25,-135.29 1772.39,-128.35"/>
</g>
<!-- Node17 -->
<g id="node17" class="node">
<title>Node17</title>
<g id="a_node17"><a xlink:href="d__menu__window_8cpp.html" target="_top" xlink:title=" ">
<polygon fill="white" stroke="#666666" points="3137.5,-90.5 2978.5,-90.5 2978.5,-71.5 3137.5,-71.5 3137.5,-90.5"/>
<text text-anchor="middle" x="3058" y="-78.5" font-family="Helvetica,sans-Serif" font-size="10.00">src/d/menu/d_menu_window.cpp</text>
</a>
</g>
</g>
<!-- Node6&#45;&gt;Node17 -->
<g id="edge16" class="edge">
<title>Node6&#45;&gt;Node17</title>
<path fill="none" stroke="#63b8ff" d="M1772.76,-131.83C2301.11,-67.86 2441.93,-145.17 2969,-96 2981.77,-94.81 2995.49,-92.94 3008.24,-90.96"/>
<polygon fill="#63b8ff" stroke="#63b8ff" points="1772.4,-128.35 1762.9,-133.04 1773.25,-135.3 1772.4,-128.35"/>
</g>
<!-- Node18 -->
<g id="node18" class="node">
<title>Node18</title>
<g id="a_node18"><a xlink:href="d__meter2__draw_8cpp.html" target="_top" xlink:title=" ">
<polygon fill="white" stroke="#666666" points="3266,-96 3156,-96 3156,-66 3266,-66 3266,-96"/>
<text text-anchor="start" x="3164" y="-84" font-family="Helvetica,sans-Serif" font-size="10.00">src/d/meter/d_meter2</text>
<text text-anchor="middle" x="3211" y="-73" font-family="Helvetica,sans-Serif" font-size="10.00">_draw.cpp</text>
</a>
</g>
</g>
<!-- Node6&#45;&gt;Node18 -->
<g id="edge17" class="edge">
<title>Node6&#45;&gt;Node18</title>
<path fill="none" stroke="#63b8ff" d="M1772.63,-131.86C2379.74,-59.61 2542.96,-169.29 3147,-96 3149.82,-95.66 3152.7,-95.25 3155.61,-94.79"/>
<polygon fill="#63b8ff" stroke="#63b8ff" points="1772.41,-128.36 1762.9,-133.03 1773.24,-135.31 1772.41,-128.36"/>
</g>
<!-- Node19 -->
<g id="node19" class="node">
<title>Node19</title>
<g id="a_node19"><a xlink:href="d__meter__map_8cpp.html" target="_top" xlink:title=" ">
<polygon fill="white" stroke="#666666" points="592,-96 488,-96 488,-66 592,-66 592,-96"/>
<text text-anchor="start" x="496" y="-84" font-family="Helvetica,sans-Serif" font-size="10.00">src/d/meter/d_meter</text>
<text text-anchor="middle" x="540" y="-73" font-family="Helvetica,sans-Serif" font-size="10.00">_map.cpp</text>
</a>
</g>
</g>
<!-- Node6&#45;&gt;Node19 -->
<g id="edge18" class="edge">
<title>Node6&#45;&gt;Node19</title>
<path fill="none" stroke="#63b8ff" d="M1639.31,-144.56C1432.43,-139.85 803.39,-123.57 601,-96 598.2,-95.62 595.34,-95.17 592.46,-94.67"/>
<polygon fill="#63b8ff" stroke="#63b8ff" points="1638.99,-148.05 1649.07,-144.78 1639.15,-141.06 1638.99,-148.05"/>
</g>
<!-- Node20 -->
<g id="node20" class="node">
<title>Node20</title>
<g id="a_node20"><a xlink:href="d__msg__flow_8cpp.html" target="_top" xlink:title=" ">
<polygon fill="white" stroke="#666666" points="743.5,-90.5 610.5,-90.5 610.5,-71.5 743.5,-71.5 743.5,-90.5"/>
<text text-anchor="middle" x="677" y="-78.5" font-family="Helvetica,sans-Serif" font-size="10.00">src/d/msg/d_msg_flow.cpp</text>
</a>
</g>
</g>
<!-- Node6&#45;&gt;Node20 -->
<g id="edge20" class="edge">
<title>Node6&#45;&gt;Node20</title>
<path fill="none" stroke="#63b8ff" d="M1639.44,-145.53C1483.69,-143.78 1083.58,-135.46 752,-96 741.48,-94.75 730.21,-92.91 719.68,-90.98"/>
<polygon fill="#63b8ff" stroke="#63b8ff" points="1639.12,-149.03 1649.15,-145.64 1639.19,-142.03 1639.12,-149.03"/>
</g>
<!-- Node21 -->
<g id="node21" class="node">
<title>Node21</title>
<g id="a_node21"><a xlink:href="d__msg__out__font_8cpp.html" target="_top" xlink:title=" ">
<polygon fill="white" stroke="#666666" points="872.5,-96 761.5,-96 761.5,-66 872.5,-66 872.5,-96"/>
<text text-anchor="start" x="769.5" y="-84" font-family="Helvetica,sans-Serif" font-size="10.00">src/d/msg/d_msg_out</text>
<text text-anchor="middle" x="817" y="-73" font-family="Helvetica,sans-Serif" font-size="10.00">_font.cpp</text>
</a>
</g>
</g>
<!-- Node6&#45;&gt;Node21 -->
<g id="edge22" class="edge">
<title>Node6&#45;&gt;Node21</title>
<path fill="none" stroke="#63b8ff" d="M1639.36,-145.37C1498.76,-143.3 1161.66,-134.38 882,-96 879.03,-95.59 875.99,-95.12 872.92,-94.61"/>
<polygon fill="#63b8ff" stroke="#63b8ff" points="1639.19,-148.87 1649.24,-145.51 1639.29,-141.87 1639.19,-148.87"/>
</g>
<!-- Node22 -->
<g id="node22" class="node">
<title>Node22</title>
<g id="a_node22"><a xlink:href="d__s__play_8cpp.html" target="_top" xlink:title=" ">
<polygon fill="white" stroke="#666666" points="997,-90.5 891,-90.5 891,-71.5 997,-71.5 997,-90.5"/>
<text text-anchor="middle" x="944" y="-78.5" font-family="Helvetica,sans-Serif" font-size="10.00">src/d/s/d_s_play.cpp</text>
</a>
</g>
</g>
<!-- Node6&#45;&gt;Node22 -->
<g id="edge23" class="edge">
<title>Node6&#45;&gt;Node22</title>
<path fill="none" stroke="#63b8ff" d="M1639.55,-144.59C1514.77,-141.19 1237.13,-130.15 1006,-96 997.38,-94.73 988.17,-92.9 979.56,-91"/>
<polygon fill="#63b8ff" stroke="#63b8ff" points="1639.19,-148.08 1649.27,-144.84 1639.37,-141.08 1639.19,-148.08"/>
</g>
<!-- Node23 -->
<g id="node23" class="node">
<title>Node23</title>
<g id="a_node23"><a xlink:href="d__shop__system_8cpp.html" target="_top" xlink:title=" ">
<polygon fill="white" stroke="#666666" points="1167,-90.5 1015,-90.5 1015,-71.5 1167,-71.5 1167,-90.5"/>
<text text-anchor="middle" x="1091" y="-78.5" font-family="Helvetica,sans-Serif" font-size="10.00">src/d/shop/d_shop_system.cpp</text>
</a>
</g>
</g>
<!-- Node6&#45;&gt;Node23 -->
<g id="edge24" class="edge">
<title>Node6&#45;&gt;Node23</title>
<path fill="none" stroke="#63b8ff" d="M1639.34,-141.2C1538.72,-133.62 1342.14,-117.49 1176,-96 1164.88,-94.56 1152.97,-92.76 1141.71,-90.94"/>
<polygon fill="#63b8ff" stroke="#63b8ff" points="1638.8,-144.67 1649.03,-141.92 1639.32,-137.69 1638.8,-144.67"/>
</g>
<!-- Node24 -->
<g id="node24" class="node">
<title>Node24</title>
<g id="a_node24"><a xlink:href="f__op__msg__mng_8cpp.html" target="_top" xlink:title=" ">
<polygon fill="white" stroke="#666666" points="1325,-90.5 1185,-90.5 1185,-71.5 1325,-71.5 1325,-90.5"/>
<text text-anchor="middle" x="1255" y="-78.5" font-family="Helvetica,sans-Serif" font-size="10.00">src/f_op/f_op_msg_mng.cpp</text>
</a>
</g>
</g>
<!-- Node6&#45;&gt;Node24 -->
<g id="edge25" class="edge">
<title>Node6&#45;&gt;Node24</title>
<path fill="none" stroke="#63b8ff" d="M1639.68,-137.93C1565.18,-128.68 1440.72,-112.62 1334,-96 1324.23,-94.48 1313.8,-92.72 1303.83,-90.98"/>
<polygon fill="#63b8ff" stroke="#63b8ff" points="1638.89,-141.36 1649.24,-139.12 1639.75,-134.42 1638.89,-141.36"/>
</g>
<!-- Node25 -->
<g id="node25" class="node">
<title>Node25</title>
<g id="a_node25"><a xlink:href="d__msg__scrn__base_8cpp.html" target="_top" xlink:title=" ">
<polygon fill="white" stroke="#666666" points="1449,-96 1343,-96 1343,-66 1449,-66 1449,-96"/>
<text text-anchor="start" x="1351" y="-84" font-family="Helvetica,sans-Serif" font-size="10.00">src/msg/scrn/d_msg</text>
<text text-anchor="middle" x="1396" y="-73" font-family="Helvetica,sans-Serif" font-size="10.00">_scrn_base.cpp</text>
</a>
</g>
</g>
<!-- Node6&#45;&gt;Node25 -->
<g id="edge26" class="edge">
<title>Node6&#45;&gt;Node25</title>
<path fill="none" stroke="#63b8ff" d="M1639.78,-133.08C1589.78,-123.22 1519.5,-109.14 1458,-96 1455.19,-95.4 1452.32,-94.78 1449.42,-94.14"/>
<polygon fill="#63b8ff" stroke="#63b8ff" points="1638.79,-136.45 1649.28,-134.95 1640.14,-129.59 1638.79,-136.45"/>
</g>
<!-- Node26 -->
<g id="node26" class="node">
<title>Node26</title>
<g id="a_node26"><a xlink:href="d__msg__scrn__boss_8cpp.html" target="_top" xlink:title=" ">
<polygon fill="white" stroke="#666666" points="1573,-96 1467,-96 1467,-66 1573,-66 1573,-96"/>
<text text-anchor="start" x="1475" y="-84" font-family="Helvetica,sans-Serif" font-size="10.00">src/msg/scrn/d_msg</text>
<text text-anchor="middle" x="1520" y="-73" font-family="Helvetica,sans-Serif" font-size="10.00">_scrn_boss.cpp</text>
</a>
</g>
</g>
<!-- Node6&#45;&gt;Node26 -->
<g id="edge27" class="edge">
<title>Node6&#45;&gt;Node26</title>
<path fill="none" stroke="#63b8ff" d="M1653.5,-127.94C1624.53,-117.97 1589.03,-105.75 1561.92,-96.43"/>
<polygon fill="#63b8ff" stroke="#63b8ff" points="1652.23,-131.2 1662.83,-131.14 1654.51,-124.58 1652.23,-131.2"/>
</g>
<!-- Node27 -->
<g id="node27" class="node">
<title>Node27</title>
<g id="a_node27"><a xlink:href="d__msg__scrn__explain_8cpp.html" target="_top" xlink:title=" ">
<polygon fill="white" stroke="#666666" points="1697,-96 1591,-96 1591,-66 1697,-66 1697,-96"/>
<text text-anchor="start" x="1599" y="-84" font-family="Helvetica,sans-Serif" font-size="10.00">src/msg/scrn/d_msg</text>
<text text-anchor="middle" x="1644" y="-73" font-family="Helvetica,sans-Serif" font-size="10.00">_scrn_explain.cpp</text>
</a>
</g>
</g>
<!-- Node6&#45;&gt;Node27 -->
<g id="edge28" class="edge">
<title>Node6&#45;&gt;Node27</title>
<path fill="none" stroke="#63b8ff" d="M1684.5,-123.81C1675.62,-114.64 1665.58,-104.28 1657.72,-96.16"/>
<polygon fill="#63b8ff" stroke="#63b8ff" points="1681.72,-125.96 1691.19,-130.71 1686.74,-121.09 1681.72,-125.96"/>
</g>
<!-- Node28 -->
<g id="node28" class="node">
<title>Node28</title>
<g id="a_node28"><a xlink:href="d__msg__scrn__place_8cpp.html" target="_top" xlink:title=" ">
<polygon fill="white" stroke="#666666" points="1821,-96 1715,-96 1715,-66 1821,-66 1821,-96"/>
<text text-anchor="start" x="1723" y="-84" font-family="Helvetica,sans-Serif" font-size="10.00">src/msg/scrn/d_msg</text>
<text text-anchor="middle" x="1768" y="-73" font-family="Helvetica,sans-Serif" font-size="10.00">_scrn_place.cpp</text>
</a>
</g>
</g>
<!-- Node6&#45;&gt;Node28 -->
<g id="edge29" class="edge">
<title>Node6&#45;&gt;Node28</title>
<path fill="none" stroke="#63b8ff" d="M1727.5,-123.81C1736.38,-114.64 1746.42,-104.28 1754.28,-96.16"/>
<polygon fill="#63b8ff" stroke="#63b8ff" points="1725.26,-121.09 1720.81,-130.71 1730.28,-125.96 1725.26,-121.09"/>
</g>
<!-- Node29 -->
<g id="node29" class="node">
<title>Node29</title>
<g id="a_node29"><a xlink:href="d__msg__scrn__staff_8cpp.html" target="_top" xlink:title=" ">
<polygon fill="white" stroke="#666666" points="1945,-96 1839,-96 1839,-66 1945,-66 1945,-96"/>
<text text-anchor="start" x="1847" y="-84" font-family="Helvetica,sans-Serif" font-size="10.00">src/msg/scrn/d_msg</text>
<text text-anchor="middle" x="1892" y="-73" font-family="Helvetica,sans-Serif" font-size="10.00">_scrn_staff.cpp</text>
</a>
</g>
</g>
<!-- Node6&#45;&gt;Node29 -->
<g id="edge30" class="edge">
<title>Node6&#45;&gt;Node29</title>
<path fill="none" stroke="#63b8ff" d="M1758.5,-127.94C1787.47,-117.97 1822.97,-105.75 1850.08,-96.43"/>
<polygon fill="#63b8ff" stroke="#63b8ff" points="1757.49,-124.58 1749.17,-131.14 1759.77,-131.2 1757.49,-124.58"/>
</g>
<!-- Node30 -->
<g id="node30" class="node">
<title>Node30</title>
<g id="a_node30"><a xlink:href="d__msg__scrn__tree_8cpp.html" target="_top" xlink:title=" ">
<polygon fill="white" stroke="#666666" points="2069,-96 1963,-96 1963,-66 2069,-66 2069,-96"/>
<text text-anchor="start" x="1971" y="-84" font-family="Helvetica,sans-Serif" font-size="10.00">src/msg/scrn/d_msg</text>
<text text-anchor="middle" x="2016" y="-73" font-family="Helvetica,sans-Serif" font-size="10.00">_scrn_tree.cpp</text>
</a>
</g>
</g>
<!-- Node6&#45;&gt;Node30 -->
<g id="edge31" class="edge">
<title>Node6&#45;&gt;Node30</title>
<path fill="none" stroke="#63b8ff" d="M1772.73,-131.46C1853.5,-114.9 1875.97,-112.44 1954,-96 1956.81,-95.41 1959.68,-94.79 1962.59,-94.16"/>
<polygon fill="#63b8ff" stroke="#63b8ff" points="1772.06,-128.03 1762.97,-133.48 1773.47,-134.89 1772.06,-128.03"/>
</g>
<!-- Node8 -->
<g id="node8" class="node">
<title>Node8</title>
<g id="a_node8"><a xlink:href="d__com__inf__game_8cpp.html" target="_top" xlink:title=" ">
<polygon fill="white" stroke="#666666" points="2072,-30 1964,-30 1964,0 2072,0 2072,-30"/>
<text text-anchor="start" x="1972" y="-18" font-family="Helvetica,sans-Serif" font-size="10.00">src/d/com/d_com_inf</text>
<text text-anchor="middle" x="2018" y="-7" font-family="Helvetica,sans-Serif" font-size="10.00">_game.cpp</text>
</a>
</g>
</g>
<!-- Node7&#45;&gt;Node8 -->
<g id="edge7" class="edge">
<title>Node7&#45;&gt;Node8</title>
<path fill="none" stroke="#63b8ff" d="M2109.63,-65.7C2090.29,-55.21 2064.11,-41.01 2044.69,-30.48"/>
<polygon fill="#63b8ff" stroke="#63b8ff" points="2107.8,-68.69 2118.26,-70.38 2111.14,-62.54 2107.8,-68.69"/>
</g>
<!-- Node9 -->
<g id="node9" class="node">
<title>Node9</title>
<g id="a_node9"><a xlink:href="d__timer_8cpp.html" target="_top" xlink:title=" ">
<polygon fill="white" stroke="#666666" points="2182,-24.5 2090,-24.5 2090,-5.5 2182,-5.5 2182,-24.5"/>
<text text-anchor="middle" x="2136" y="-12.5" font-family="Helvetica,sans-Serif" font-size="10.00">src/d/d_timer.cpp</text>
</a>
</g>
</g>
<!-- Node7&#45;&gt;Node9 -->
<g id="edge8" class="edge">
<title>Node7&#45;&gt;Node9</title>
<path fill="none" stroke="#63b8ff" d="M2136,-59.68C2136,-47.94 2136,-33.77 2136,-24.82"/>
<polygon fill="#63b8ff" stroke="#63b8ff" points="2132.5,-59.59 2136,-69.59 2139.5,-59.59 2132.5,-59.59"/>
</g>
<!-- Node10 -->
<g id="node10" class="node">
<title>Node10</title>
<g id="a_node10"><a xlink:href="d__meter2_8cpp.html" target="_top" xlink:title=" ">
<polygon fill="white" stroke="#666666" points="2328,-24.5 2200,-24.5 2200,-5.5 2328,-5.5 2328,-24.5"/>
<text text-anchor="middle" x="2264" y="-12.5" font-family="Helvetica,sans-Serif" font-size="10.00">src/d/meter/d_meter2.cpp</text>
</a>
</g>
</g>
<!-- Node7&#45;&gt;Node10 -->
<g id="edge9" class="edge">
<title>Node7&#45;&gt;Node10</title>
<path fill="none" stroke="#63b8ff" d="M2163.8,-66.1C2188.88,-53.56 2225.03,-35.49 2246.35,-24.82"/>
<polygon fill="#63b8ff" stroke="#63b8ff" points="2162.53,-62.82 2155.15,-70.42 2165.66,-69.08 2162.53,-62.82"/>
</g>
</g>
</svg>
        <g id="navigator" transform="translate(0 0)" fill="#404254">
                <rect fill="#f2f5e9" fill-opacity="0.5" stroke="#606060" stroke-width=".5" x="0" y="0" width="60" height="60"/>
                <use id="zoomplus" xlink:href="#zoomPlus" x="17" y="9" onmousedown="handleZoom(evt,'in')"/>
                <use id="zoomminus" xlink:href="#zoomMin" x="42" y="9" onmousedown="handleZoom(evt,'out')"/>
                <use id="reset" xlink:href="#resetDef" x="30" y="36" onmousedown="handleReset()"/>
                <g id="arrowUp" xlink:href="#dirArrow" transform="translate(30 24)" onmousedown="handlePan(0,-1)">
                  <use xlink:href="#rim" fill="#404040">
                        <set attributeName="fill" to="#808080" begin="arrowUp.mouseover" end="arrowUp.mouseout"/>
                  </use>
                  <path fill="none" stroke="white" stroke-width="1.5" d="M0,-3.0v7 M-2.5,-0.5L0,-3.0L2.5,-0.5"/>
                </g>
                <g id="arrowRight" xlink:href="#dirArrow" transform="rotate(90) translate(36 -43)" onmousedown="handlePan(1,0)">
                  <use xlink:href="#rim" fill="#404040">
                        <set attributeName="fill" to="#808080" begin="arrowRight.mouseover" end="arrowRight.mouseout"/>
                  </use>
                  <path fill="none" stroke="white" stroke-width="1.5" d="M0,-3.0v7 M-2.5,-0.5L0,-3.0L2.5,-0.5"/>
                </g>
                <g id="arrowDown" xlink:href="#dirArrow" transform="rotate(180) translate(-30 -48)" onmousedown="handlePan(0,1)">
                  <use xlink:href="#rim" fill="#404040">
                        <set attributeName="fill" to="#808080" begin="arrowDown.mouseover" end="arrowDown.mouseout"/>
                  </use>
                  <path fill="none" stroke="white" stroke-width="1.5" d="M0,-3.0v7 M-2.5,-0.5L0,-3.0L2.5,-0.5"/>
                </g>
                <g id="arrowLeft" xlink:href="#dirArrow" transform="rotate(270) translate(-36 17)" onmousedown="handlePan(-1,0)">
                  <use xlink:href="#rim" fill="#404040">
                        <set attributeName="fill" to="#808080" begin="arrowLeft.mouseover" end="arrowLeft.mouseout"/>
                  </use>
                  <path fill="none" stroke="white" stroke-width="1.5" d="M0,-3.0v7 M-2.5,-0.5L0,-3.0L2.5,-0.5"/>
                </g>
        </g>
        <svg viewBox="0 0 15 15" width="100%" height="30px" preserveAspectRatio="xMaxYMin meet">
         <g id="arrow_out" transform="scale(0.3 0.3)">
          <a xlink:href="JMessage_2control_8h__dep__incl_org.svg" target="_base">
           <rect id="button" ry="5" rx="5" y="6" x="6" height="38" width="38"
                fill="#f2f5e9" fill-opacity="0.5" stroke="#606060" stroke-width="1.0"/>
           <path id="arrow"
             d="M 11.500037,31.436501 C 11.940474,20.09759 22.043105,11.32322 32.158766,21.979434 L 37.068811,17.246167 C 37.068811,17.246167 37.088388,32 37.088388,32 L 22.160133,31.978069 C 22.160133,31.978069 26.997745,27.140456 26.997745,27.140456 C 18.528582,18.264221 13.291696,25.230495 11.500037,31.436501 z"
             style="fill:#404040;"/>
          </a>
         </g>
        </svg>
</svg>
