<?xml version="1.0" encoding="UTF-8" standalone="no"?>
<!DOCTYPE svg PUBLIC "-//W3C//DTD SVG 1.1//EN"
 "http://www.w3.org/Graphics/SVG/1.1/DTD/svg11.dtd">
<!-- Generated by graphviz version 7.0.5 (20221223.1930)
 -->
<!-- Title: include/JSystem/JParticle/JPAList.h Pages: 1 -->
<svg width="3457pt" height="390pt"
 viewBox="0.00 0.00 3457.00 390.00" xmlns="http://www.w3.org/2000/svg" xmlns:xlink="http://www.w3.org/1999/xlink">
<g id="graph0" class="graph" transform="scale(1 1) rotate(0) translate(4 386)">
<title>include/JSystem/JParticle/JPAList.h</title>
<!-- Node1 -->
<g id="node1" class="node">
<title>Node1</title>
<g id="a_node1"><a xlink:title=" ">
<polygon fill="#999999" stroke="#666666" points="2063.5,-382 1933.5,-382 1933.5,-352 2063.5,-352 2063.5,-382"/>
<text text-anchor="start" x="1941.5" y="-370" font-family="Helvetica,sans-Serif" font-size="10.00">include/JSystem/JParticle</text>
<text text-anchor="middle" x="1998.5" y="-359" font-family="Helvetica,sans-Serif" font-size="10.00">/JPAList.h</text>
</a>
</g>
</g>
<!-- Node2 -->
<g id="node2" class="node">
<title>Node2</title>
<g id="a_node2"><a xlink:href="JPAEmitter_8h.html" target="_top" xlink:title=" ">
<polygon fill="white" stroke="#666666" points="2063.5,-316 1933.5,-316 1933.5,-286 2063.5,-286 2063.5,-316"/>
<text text-anchor="start" x="1941.5" y="-304" font-family="Helvetica,sans-Serif" font-size="10.00">include/JSystem/JParticle</text>
<text text-anchor="middle" x="1998.5" y="-293" font-family="Helvetica,sans-Serif" font-size="10.00">/JPAEmitter.h</text>
</a>
</g>
</g>
<!-- Node1&#45;&gt;Node2 -->
<g id="edge1" class="edge">
<title>Node1&#45;&gt;Node2</title>
<path fill="none" stroke="#63b8ff" d="M1998.5,-340.39C1998.5,-332.13 1998.5,-323.28 1998.5,-316.16"/>
<polygon fill="#63b8ff" stroke="#63b8ff" points="1995,-340.28 1998.5,-350.28 2002,-340.28 1995,-340.28"/>
</g>
<!-- Node206 -->
<g id="node45" class="node">
<title>Node206</title>
<g id="a_node45"><a xlink:href="JPAEmitterManager_8h.html" target="_top" xlink:title=" ">
<polygon fill="white" stroke="#666666" points="2459.5,-316 2329.5,-316 2329.5,-286 2459.5,-286 2459.5,-316"/>
<text text-anchor="start" x="2337.5" y="-304" font-family="Helvetica,sans-Serif" font-size="10.00">include/JSystem/JParticle</text>
<text text-anchor="middle" x="2394.5" y="-293" font-family="Helvetica,sans-Serif" font-size="10.00">/JPAEmitterManager.h</text>
</a>
</g>
</g>
<!-- Node1&#45;&gt;Node206 -->
<g id="edge53" class="edge">
<title>Node1&#45;&gt;Node206</title>
<path fill="none" stroke="#63b8ff" d="M2074.95,-353.64C2148.71,-341.72 2259.18,-323.87 2329.01,-312.58"/>
<polygon fill="#63b8ff" stroke="#63b8ff" points="2074.7,-350.14 2065.39,-355.19 2075.82,-357.05 2074.7,-350.14"/>
</g>
<!-- Node207 -->
<g id="node46" class="node">
<title>Node207</title>
<g id="a_node46"><a xlink:href="JPAParticle_8h.html" target="_top" xlink:title=" ">
<polygon fill="white" stroke="#666666" points="1811.5,-316 1681.5,-316 1681.5,-286 1811.5,-286 1811.5,-316"/>
<text text-anchor="start" x="1689.5" y="-304" font-family="Helvetica,sans-Serif" font-size="10.00">include/JSystem/JParticle</text>
<text text-anchor="middle" x="1746.5" y="-293" font-family="Helvetica,sans-Serif" font-size="10.00">/JPAParticle.h</text>
</a>
</g>
</g>
<!-- Node1&#45;&gt;Node207 -->
<g id="edge58" class="edge">
<title>Node1&#45;&gt;Node207</title>
<path fill="none" stroke="#63b8ff" d="M1930.67,-348.77C1890.78,-338.64 1840.93,-325.98 1803.16,-316.39"/>
<polygon fill="#63b8ff" stroke="#63b8ff" points="1929.61,-352.12 1940.17,-351.18 1931.33,-345.33 1929.61,-352.12"/>
</g>
<!-- Node3 -->
<g id="node3" class="node">
<title>Node3</title>
<g id="a_node3"><a xlink:href="d__particle_8h.html" target="_top" xlink:title=" ">
<polygon fill="white" stroke="#666666" points="1791.5,-250 1701.5,-250 1701.5,-220 1791.5,-220 1791.5,-250"/>
<text text-anchor="start" x="1709.5" y="-238" font-family="Helvetica,sans-Serif" font-size="10.00">include/d/particle</text>
<text text-anchor="middle" x="1746.5" y="-227" font-family="Helvetica,sans-Serif" font-size="10.00">/d_particle.h</text>
</a>
</g>
</g>
<!-- Node2&#45;&gt;Node3 -->
<g id="edge2" class="edge">
<title>Node2&#45;&gt;Node3</title>
<path fill="none" stroke="#63b8ff" d="M1929.88,-282.79C1891.76,-273.19 1843.48,-261 1800.5,-250 1797.69,-249.28 1794.79,-248.54 1791.87,-247.78"/>
<polygon fill="#63b8ff" stroke="#63b8ff" points="1928.84,-286.13 1939.39,-285.18 1930.55,-279.34 1928.84,-286.13"/>
</g>
<!-- Node198 -->
<g id="node37" class="node">
<title>Node198</title>
<g id="a_node37"><a xlink:href="JPABaseShape_8cpp.html" target="_top" xlink:title=" ">
<polygon fill="white" stroke="#666666" points="1923.5,-250 1809.5,-250 1809.5,-220 1923.5,-220 1923.5,-250"/>
<text text-anchor="start" x="1817.5" y="-238" font-family="Helvetica,sans-Serif" font-size="10.00">libs/JSystem/JParticle</text>
<text text-anchor="middle" x="1866.5" y="-227" font-family="Helvetica,sans-Serif" font-size="10.00">/JPABaseShape.cpp</text>
</a>
</g>
</g>
<!-- Node2&#45;&gt;Node198 -->
<g id="edge45" class="edge">
<title>Node2&#45;&gt;Node198</title>
<path fill="none" stroke="#63b8ff" d="M1958.74,-280.72C1938.58,-270.95 1914.52,-259.28 1896.02,-250.31"/>
<polygon fill="#63b8ff" stroke="#63b8ff" points="1956.99,-283.76 1967.51,-284.98 1960.04,-277.46 1956.99,-283.76"/>
</g>
<!-- Node199 -->
<g id="node38" class="node">
<title>Node199</title>
<g id="a_node38"><a xlink:href="JPAChildShape_8cpp.html" target="_top" xlink:title=" ">
<polygon fill="white" stroke="#666666" points="1551.5,-250 1437.5,-250 1437.5,-220 1551.5,-220 1551.5,-250"/>
<text text-anchor="start" x="1445.5" y="-238" font-family="Helvetica,sans-Serif" font-size="10.00">libs/JSystem/JParticle</text>
<text text-anchor="middle" x="1494.5" y="-227" font-family="Helvetica,sans-Serif" font-size="10.00">/JPAChildShape.cpp</text>
</a>
</g>
</g>
<!-- Node2&#45;&gt;Node199 -->
<g id="edge46" class="edge">
<title>Node2&#45;&gt;Node199</title>
<path fill="none" stroke="#63b8ff" d="M1921.86,-293.48C1834.19,-285.51 1686.48,-270.5 1560.5,-250 1557.61,-249.53 1554.65,-249.02 1551.67,-248.48"/>
<polygon fill="#63b8ff" stroke="#63b8ff" points="1921.52,-296.97 1931.79,-294.38 1922.15,-289.99 1921.52,-296.97"/>
</g>
<!-- Node200 -->
<g id="node39" class="node">
<title>Node200</title>
<g id="a_node39"><a xlink:href="JPAEmitter_8cpp.html" target="_top" xlink:title=" ">
<polygon fill="white" stroke="#666666" points="2055.5,-250 1941.5,-250 1941.5,-220 2055.5,-220 2055.5,-250"/>
<text text-anchor="start" x="1949.5" y="-238" font-family="Helvetica,sans-Serif" font-size="10.00">libs/JSystem/JParticle</text>
<text text-anchor="middle" x="1998.5" y="-227" font-family="Helvetica,sans-Serif" font-size="10.00">/JPAEmitter.cpp</text>
</a>
</g>
</g>
<!-- Node2&#45;&gt;Node200 -->
<g id="edge47" class="edge">
<title>Node2&#45;&gt;Node200</title>
<path fill="none" stroke="#63b8ff" d="M1998.5,-274.39C1998.5,-266.13 1998.5,-257.28 1998.5,-250.16"/>
<polygon fill="#63b8ff" stroke="#63b8ff" points="1995,-274.28 1998.5,-284.28 2002,-274.28 1995,-274.28"/>
</g>
<!-- Node201 -->
<g id="node40" class="node">
<title>Node201</title>
<g id="a_node40"><a xlink:href="JPAEmitterManager_8cpp.html" target="_top" xlink:title=" ">
<polygon fill="white" stroke="#666666" points="2595,-250 2470,-250 2470,-220 2595,-220 2595,-250"/>
<text text-anchor="start" x="2478" y="-238" font-family="Helvetica,sans-Serif" font-size="10.00">libs/JSystem/JParticle</text>
<text text-anchor="middle" x="2532.5" y="-227" font-family="Helvetica,sans-Serif" font-size="10.00">/JPAEmitterManager.cpp</text>
</a>
</g>
</g>
<!-- Node2&#45;&gt;Node201 -->
<g id="edge48" class="edge">
<title>Node2&#45;&gt;Node201</title>
<path fill="none" stroke="#63b8ff" d="M2075.17,-293.69C2167.04,-285.68 2325.48,-270.4 2460.5,-250 2463.52,-249.54 2466.61,-249.05 2469.73,-248.53"/>
<polygon fill="#63b8ff" stroke="#63b8ff" points="2074.93,-290.2 2065.26,-294.55 2075.53,-297.18 2074.93,-290.2"/>
</g>
<!-- Node202 -->
<g id="node41" class="node">
<title>Node202</title>
<g id="a_node41"><a xlink:href="JPAExTexShape_8cpp.html" target="_top" xlink:title=" ">
<polygon fill="white" stroke="#666666" points="2319.5,-250 2205.5,-250 2205.5,-220 2319.5,-220 2319.5,-250"/>
<text text-anchor="start" x="2213.5" y="-238" font-family="Helvetica,sans-Serif" font-size="10.00">libs/JSystem/JParticle</text>
<text text-anchor="middle" x="2262.5" y="-227" font-family="Helvetica,sans-Serif" font-size="10.00">/JPAExTexShape.cpp</text>
</a>
</g>
</g>
<!-- Node2&#45;&gt;Node202 -->
<g id="edge49" class="edge">
<title>Node2&#45;&gt;Node202</title>
<path fill="none" stroke="#63b8ff" d="M2069.23,-282.85C2111.87,-272.52 2165.47,-259.52 2205.41,-249.84"/>
<polygon fill="#63b8ff" stroke="#63b8ff" points="2068.44,-279.44 2059.55,-285.2 2070.09,-286.25 2068.44,-279.44"/>
</g>
<!-- Node203 -->
<g id="node42" class="node">
<title>Node203</title>
<g id="a_node42"><a xlink:href="JPAExtraShape_8cpp.html" target="_top" xlink:title=" ">
<polygon fill="white" stroke="#666666" points="1683.5,-250 1569.5,-250 1569.5,-220 1683.5,-220 1683.5,-250"/>
<text text-anchor="start" x="1577.5" y="-238" font-family="Helvetica,sans-Serif" font-size="10.00">libs/JSystem/JParticle</text>
<text text-anchor="middle" x="1626.5" y="-227" font-family="Helvetica,sans-Serif" font-size="10.00">/JPAExtraShape.cpp</text>
</a>
</g>
</g>
<!-- Node2&#45;&gt;Node203 -->
<g id="edge50" class="edge">
<title>Node2&#45;&gt;Node203</title>
<path fill="none" stroke="#63b8ff" d="M1922.03,-288.53C1860.03,-278.98 1770.45,-264.63 1692.5,-250 1689.62,-249.46 1686.68,-248.89 1683.7,-248.31"/>
<polygon fill="#63b8ff" stroke="#63b8ff" points="1921.37,-291.97 1931.78,-290.02 1922.43,-285.05 1921.37,-291.97"/>
</g>
<!-- Node204 -->
<g id="node43" class="node">
<title>Node204</title>
<g id="a_node43"><a xlink:href="JPAParticle_8cpp.html" target="_top" xlink:title=" ">
<polygon fill="white" stroke="#666666" points="2451.5,-250 2337.5,-250 2337.5,-220 2451.5,-220 2451.5,-250"/>
<text text-anchor="start" x="2345.5" y="-238" font-family="Helvetica,sans-Serif" font-size="10.00">libs/JSystem/JParticle</text>
<text text-anchor="middle" x="2394.5" y="-227" font-family="Helvetica,sans-Serif" font-size="10.00">/JPAParticle.cpp</text>
</a>
</g>
</g>
<!-- Node2&#45;&gt;Node204 -->
<g id="edge51" class="edge">
<title>Node2&#45;&gt;Node204</title>
<path fill="none" stroke="#63b8ff" d="M2075.1,-289.69C2142.12,-280.36 2242,-265.71 2328.5,-250 2331.38,-249.48 2334.33,-248.92 2337.3,-248.35"/>
<polygon fill="#63b8ff" stroke="#63b8ff" points="2074.73,-286.21 2065.31,-291.05 2075.69,-293.14 2074.73,-286.21"/>
</g>
<!-- Node205 -->
<g id="node44" class="node">
<title>Node205</title>
<g id="a_node44"><a xlink:href="JPAResource_8cpp.html" target="_top" xlink:title=" ">
<polygon fill="white" stroke="#666666" points="2187.5,-250 2073.5,-250 2073.5,-220 2187.5,-220 2187.5,-250"/>
<text text-anchor="start" x="2081.5" y="-238" font-family="Helvetica,sans-Serif" font-size="10.00">libs/JSystem/JParticle</text>
<text text-anchor="middle" x="2130.5" y="-227" font-family="Helvetica,sans-Serif" font-size="10.00">/JPAResource.cpp</text>
</a>
</g>
</g>
<!-- Node2&#45;&gt;Node205 -->
<g id="edge52" class="edge">
<title>Node2&#45;&gt;Node205</title>
<path fill="none" stroke="#63b8ff" d="M2038.26,-280.72C2058.42,-270.95 2082.48,-259.28 2100.98,-250.31"/>
<polygon fill="#63b8ff" stroke="#63b8ff" points="2036.96,-277.46 2029.49,-284.98 2040.01,-283.76 2036.96,-277.46"/>
</g>
<!-- Node4 -->
<g id="node4" class="node">
<title>Node4</title>
<g id="a_node4"><a xlink:href="d__a__alink_8h.html" target="_top" xlink:title=" ">
<polygon fill="white" stroke="#666666" points="3223.5,-173 3107.5,-173 3107.5,-154 3223.5,-154 3223.5,-173"/>
<text text-anchor="middle" x="3165.5" y="-161" font-family="Helvetica,sans-Serif" font-size="10.00">include/d/a/d_a_alink.h</text>
</a>
</g>
</g>
<!-- Node3&#45;&gt;Node4 -->
<g id="edge3" class="edge">
<title>Node3&#45;&gt;Node4</title>
<path fill="none" stroke="#63b8ff" d="M1802.98,-219.91C2080.79,-181.4 2883.34,-168.23 3107.04,-165.22"/>
<polygon fill="#63b8ff" stroke="#63b8ff" points="1802.63,-216.43 1793.23,-221.31 1803.62,-223.35 1802.63,-216.43"/>
</g>
<!-- Node13 -->
<g id="node13" class="node">
<title>Node13</title>
<g id="a_node13"><a xlink:href="d__a__item__static_8h.html" target="_top" xlink:title=" ">
<polygon fill="white" stroke="#666666" points="415,-178.5 308,-178.5 308,-148.5 415,-148.5 415,-178.5"/>
<text text-anchor="start" x="316" y="-166.5" font-family="Helvetica,sans-Serif" font-size="10.00">include/d/a/d_a_item</text>
<text text-anchor="middle" x="361.5" y="-155.5" font-family="Helvetica,sans-Serif" font-size="10.00">_static.h</text>
</a>
</g>
</g>
<!-- Node3&#45;&gt;Node13 -->
<g id="edge12" class="edge">
<title>Node3&#45;&gt;Node13</title>
<path fill="none" stroke="#63b8ff" d="M1689.97,-219.88C1228.85,-153.94 1105.62,-207.9 643.5,-184 563.98,-179.89 471.98,-173.15 415.27,-168.78"/>
<polygon fill="#63b8ff" stroke="#63b8ff" points="1689.38,-223.33 1699.78,-221.29 1690.38,-216.4 1689.38,-223.33"/>
</g>
<!-- Node18 -->
<g id="node17" class="node">
<title>Node18</title>
<g id="a_node17"><a xlink:href="d__com__inf__game_8h.html" target="_top" xlink:title=" ">
<polygon fill="#fff0f0" stroke="red" points="1904.5,-178.5 1794.5,-178.5 1794.5,-148.5 1904.5,-148.5 1904.5,-178.5"/>
<text text-anchor="start" x="1802.5" y="-166.5" font-family="Helvetica,sans-Serif" font-size="10.00">include/d/com/d_com</text>
<text text-anchor="middle" x="1849.5" y="-155.5" font-family="Helvetica,sans-Serif" font-size="10.00">_inf_game.h</text>
</a>
</g>
</g>
<!-- Node3&#45;&gt;Node18 -->
<g id="edge16" class="edge">
<title>Node3&#45;&gt;Node18</title>
<path fill="none" stroke="#63b8ff" d="M1777.07,-213.37C1793.52,-202.27 1813.41,-188.85 1828.19,-178.88"/>
<polygon fill="#63b8ff" stroke="#63b8ff" points="1775.43,-210.26 1769.1,-218.75 1779.34,-216.06 1775.43,-210.26"/>
</g>
<!-- Node181 -->
<g id="node35" class="node">
<title>Node181</title>
<g id="a_node35"><a xlink:href="d__particle_8cpp.html" target="_top" xlink:title=" ">
<polygon fill="white" stroke="#666666" points="2753.5,-96 2617.5,-96 2617.5,-77 2753.5,-77 2753.5,-96"/>
<text text-anchor="middle" x="2685.5" y="-84" font-family="Helvetica,sans-Serif" font-size="10.00">src/d/particle/d_particle.cpp</text>
</a>
</g>
</g>
<!-- Node3&#45;&gt;Node181 -->
<g id="edge44" class="edge">
<title>Node3&#45;&gt;Node181</title>
<path fill="none" stroke="#63b8ff" d="M1802.91,-219.66C2158.15,-149.83 2256.31,-176.01 2608.5,-107 2623.39,-104.08 2639.7,-100.07 2653.46,-96.45"/>
<polygon fill="#63b8ff" stroke="#63b8ff" points="1802.4,-216.19 1793.27,-221.56 1803.76,-223.05 1802.4,-216.19"/>
</g>
<!-- Node197 -->
<g id="node36" class="node">
<title>Node197</title>
<g id="a_node36"><a xlink:href="d__a__arrow_8h.html" target="_top" xlink:title=" ">
<polygon fill="white" stroke="#666666" points="1776,-178.5 1675,-178.5 1675,-148.5 1776,-148.5 1776,-178.5"/>
<text text-anchor="start" x="1683" y="-166.5" font-family="Helvetica,sans-Serif" font-size="10.00">include/rel/d/a/d_a</text>
<text text-anchor="middle" x="1725.5" y="-155.5" font-family="Helvetica,sans-Serif" font-size="10.00">_arrow/d_a_arrow.h</text>
</a>
</g>
</g>
<!-- Node3&#45;&gt;Node197 -->
<g id="edge43" class="edge">
<title>Node3&#45;&gt;Node197</title>
<path fill="none" stroke="#63b8ff" d="M1738.82,-208.58C1735.8,-198.58 1732.43,-187.45 1729.85,-178.88"/>
<polygon fill="#63b8ff" stroke="#63b8ff" points="1735.47,-209.59 1741.71,-218.15 1742.17,-207.57 1735.47,-209.59"/>
</g>
<!-- Node5 -->
<g id="node5" class="node">
<title>Node5</title>
<g id="a_node5"><a xlink:href="d__a__alink_8cpp.html" target="_top" xlink:title=" ">
<polygon fill="white" stroke="#666666" points="2628,-24.5 2519,-24.5 2519,-5.5 2628,-5.5 2628,-24.5"/>
<text text-anchor="middle" x="2573.5" y="-12.5" font-family="Helvetica,sans-Serif" font-size="10.00">src/d/a/d_a_alink.cpp</text>
</a>
</g>
</g>
<!-- Node4&#45;&gt;Node5 -->
<g id="edge4" class="edge">
<title>Node4&#45;&gt;Node5</title>
<path fill="none" stroke="#63b8ff" d="M3167.92,-142.27C3169.32,-120.04 3167.63,-84.98 3146.5,-66 3127.37,-48.82 2768,-26.91 2628.35,-19.01"/>
<polygon fill="#63b8ff" stroke="#63b8ff" points="3164.44,-141.87 3166.99,-152.15 3171.41,-142.52 3164.44,-141.87"/>
</g>
<!-- Node6 -->
<g id="node6" class="node">
<title>Node6</title>
<g id="a_node6"><a xlink:href="d__a__player_8cpp.html" target="_top" xlink:title=" ">
<polygon fill="white" stroke="#666666" points="3307.5,-96 3193.5,-96 3193.5,-77 3307.5,-77 3307.5,-96"/>
<text text-anchor="middle" x="3250.5" y="-84" font-family="Helvetica,sans-Serif" font-size="10.00">src/d/a/d_a_player.cpp</text>
</a>
</g>
</g>
<!-- Node4&#45;&gt;Node6 -->
<g id="edge5" class="edge">
<title>Node4&#45;&gt;Node6</title>
<path fill="none" stroke="#63b8ff" d="M3183.81,-146.35C3201.14,-131.06 3226.51,-108.67 3240.43,-96.39"/>
<polygon fill="#63b8ff" stroke="#63b8ff" points="3181.9,-143.36 3176.72,-152.6 3186.53,-148.61 3181.9,-143.36"/>
</g>
<!-- Node7 -->
<g id="node7" class="node">
<title>Node7</title>
<g id="a_node7"><a xlink:href="d__com__inf__game_8cpp.html" target="_top" xlink:title=" ">
<polygon fill="white" stroke="#666666" points="3017.5,-101.5 2909.5,-101.5 2909.5,-71.5 3017.5,-71.5 3017.5,-101.5"/>
<text text-anchor="start" x="2917.5" y="-89.5" font-family="Helvetica,sans-Serif" font-size="10.00">src/d/com/d_com_inf</text>
<text text-anchor="middle" x="2963.5" y="-78.5" font-family="Helvetica,sans-Serif" font-size="10.00">_game.cpp</text>
</a>
</g>
</g>
<!-- Node4&#45;&gt;Node7 -->
<g id="edge6" class="edge">
<title>Node4&#45;&gt;Node7</title>
<path fill="none" stroke="#63b8ff" d="M3131.13,-149.74C3095.4,-136.47 3039.59,-115.75 3002.3,-101.9"/>
<polygon fill="#63b8ff" stroke="#63b8ff" points="3129.52,-152.88 3140.12,-153.08 3131.96,-146.31 3129.52,-152.88"/>
</g>
<!-- Node8 -->
<g id="node8" class="node">
<title>Node8</title>
<g id="a_node8"><a xlink:href="d__camera_8cpp.html" target="_top" xlink:title=" ">
<polygon fill="white" stroke="#666666" points="3137.5,-96 3035.5,-96 3035.5,-77 3137.5,-77 3137.5,-96"/>
<text text-anchor="middle" x="3086.5" y="-84" font-family="Helvetica,sans-Serif" font-size="10.00">src/d/d_camera.cpp</text>
</a>
</g>
</g>
<!-- Node4&#45;&gt;Node8 -->
<g id="edge7" class="edge">
<title>Node4&#45;&gt;Node8</title>
<path fill="none" stroke="#63b8ff" d="M3148.04,-145.92C3131.95,-130.65 3108.68,-108.56 3095.86,-96.39"/>
<polygon fill="#63b8ff" stroke="#63b8ff" points="3145.37,-148.21 3155.03,-152.56 3150.19,-143.14 3145.37,-148.21"/>
</g>
<!-- Node9 -->
<g id="node9" class="node">
<title>Node9</title>
<g id="a_node9"><a xlink:href="d__event_8cpp.html" target="_top" xlink:title=" ">
<polygon fill="white" stroke="#666666" points="2997,-24.5 2876,-24.5 2876,-5.5 2997,-5.5 2997,-24.5"/>
<text text-anchor="middle" x="2936.5" y="-12.5" font-family="Helvetica,sans-Serif" font-size="10.00">src/d/event/d_event.cpp</text>
</a>
</g>
</g>
<!-- Node4&#45;&gt;Node9 -->
<g id="edge8" class="edge">
<title>Node4&#45;&gt;Node9</title>
<path fill="none" stroke="#63b8ff" d="M3234.77,-154.74C3265.09,-147.51 3297.92,-133.62 3316.5,-107 3326.93,-92.06 3328.52,-79.7 3316.5,-66 3306.08,-54.12 3101.81,-32.33 2997.17,-21.89"/>
<polygon fill="#63b8ff" stroke="#63b8ff" points="3234.27,-151.27 3225.23,-156.79 3235.74,-158.11 3234.27,-151.27"/>
</g>
<!-- Node10 -->
<g id="node10" class="node">
<title>Node10</title>
<g id="a_node10"><a xlink:href="d__meter2__draw_8cpp.html" target="_top" xlink:title=" ">
<polygon fill="white" stroke="#666666" points="3240.5,-30 3130.5,-30 3130.5,0 3240.5,0 3240.5,-30"/>
<text text-anchor="start" x="3138.5" y="-18" font-family="Helvetica,sans-Serif" font-size="10.00">src/d/meter/d_meter2</text>
<text text-anchor="middle" x="3185.5" y="-7" font-family="Helvetica,sans-Serif" font-size="10.00">_draw.cpp</text>
</a>
</g>
</g>
<!-- Node4&#45;&gt;Node10 -->
<g id="edge9" class="edge">
<title>Node4&#45;&gt;Node10</title>
<path fill="none" stroke="#63b8ff" d="M3235.31,-160.86C3275.61,-155.87 3323.37,-142.18 3349.5,-107 3360.37,-92.37 3360.34,-80.64 3349.5,-66 3324.7,-32.51 3277.98,-20.7 3240.73,-16.87"/>
<polygon fill="#63b8ff" stroke="#63b8ff" points="3234.97,-157.38 3225.39,-161.91 3235.71,-164.34 3234.97,-157.38"/>
</g>
<!-- Node11 -->
<g id="node11" class="node">
<title>Node11</title>
<g id="a_node11"><a xlink:href="d__msg__flow_8cpp.html" target="_top" xlink:title=" ">
<polygon fill="white" stroke="#666666" points="3449,-24.5 3316,-24.5 3316,-5.5 3449,-5.5 3449,-24.5"/>
<text text-anchor="middle" x="3382.5" y="-12.5" font-family="Helvetica,sans-Serif" font-size="10.00">src/d/msg/d_msg_flow.cpp</text>
</a>
</g>
</g>
<!-- Node4&#45;&gt;Node11 -->
<g id="edge10" class="edge">
<title>Node4&#45;&gt;Node11</title>
<path fill="none" stroke="#63b8ff" d="M3234.97,-151.59C3286.1,-142.11 3349.67,-126.8 3367.5,-107 3388.5,-83.68 3386.14,-42.72 3383.87,-24.81"/>
<polygon fill="#63b8ff" stroke="#63b8ff" points="3234.65,-148.09 3225.43,-153.31 3235.89,-154.98 3234.65,-148.09"/>
</g>
<!-- Node12 -->
<g id="node12" class="node">
<title>Node12</title>
<g id="a_node12"><a xlink:href="f__op__actor_8cpp.html" target="_top" xlink:title=" ">
<polygon fill="white" stroke="#666666" points="2891,-96 2772,-96 2772,-77 2891,-77 2891,-96"/>
<text text-anchor="middle" x="2831.5" y="-84" font-family="Helvetica,sans-Serif" font-size="10.00">src/f_op/f_op_actor.cpp</text>
</a>
</g>
</g>
<!-- Node4&#45;&gt;Node12 -->
<g id="edge11" class="edge">
<title>Node4&#45;&gt;Node12</title>
<path fill="none" stroke="#63b8ff" d="M3106.83,-151.42C3052.96,-140.96 2971.03,-124.33 2900.5,-107 2887.69,-103.85 2873.65,-99.97 2861.61,-96.5"/>
<polygon fill="#63b8ff" stroke="#63b8ff" points="3105.92,-154.81 3116.4,-153.27 3107.25,-147.93 3105.92,-154.81"/>
</g>
<!-- Node14 -->
<g id="node14" class="node">
<title>Node14</title>
<g id="a_node14"><a xlink:href="d__a__obj__item_8h.html" target="_top" xlink:title=" ">
<polygon fill="#fff0f0" stroke="red" points="160,-101.5 59,-101.5 59,-71.5 160,-71.5 160,-101.5"/>
<text text-anchor="start" x="67" y="-89.5" font-family="Helvetica,sans-Serif" font-size="10.00">include/d/a/d_a_obj</text>
<text text-anchor="middle" x="109.5" y="-78.5" font-family="Helvetica,sans-Serif" font-size="10.00">_item.h</text>
</a>
</g>
</g>
<!-- Node13&#45;&gt;Node14 -->
<g id="edge13" class="edge">
<title>Node13&#45;&gt;Node14</title>
<path fill="none" stroke="#63b8ff" d="M304.51,-144.78C302.48,-144.18 300.47,-143.58 298.5,-143 241.4,-126.2 226.48,-124.2 169.5,-107 164.26,-105.42 158.77,-103.71 153.34,-101.98"/>
<polygon fill="#63b8ff" stroke="#63b8ff" points="303.41,-148.1 313.99,-147.64 305.43,-141.4 303.41,-148.1"/>
</g>
<!-- Node16 -->
<g id="node15" class="node">
<title>Node16</title>
<g id="a_node15"><a xlink:href="d__a__do_8h.html" target="_top" xlink:title=" ">
<polygon fill="white" stroke="#666666" points="274.5,-101.5 178.5,-101.5 178.5,-71.5 274.5,-71.5 274.5,-101.5"/>
<text text-anchor="start" x="186.5" y="-89.5" font-family="Helvetica,sans-Serif" font-size="10.00">include/rel/d/a/d_a</text>
<text text-anchor="middle" x="226.5" y="-78.5" font-family="Helvetica,sans-Serif" font-size="10.00">_do/d_a_do.h</text>
</a>
</g>
</g>
<!-- Node13&#45;&gt;Node16 -->
<g id="edge14" class="edge">
<title>Node13&#45;&gt;Node16</title>
<path fill="none" stroke="#63b8ff" d="M325.71,-142.62C302.67,-129.82 273.25,-113.47 252.45,-101.92"/>
<polygon fill="#63b8ff" stroke="#63b8ff" points="323.71,-145.51 334.15,-147.3 327.11,-139.39 323.71,-145.51"/>
</g>
<!-- Node17 -->
<g id="node16" class="node">
<title>Node17</title>
<g id="a_node16"><a xlink:href="d__a__item__static_8cpp.html" target="_top" xlink:title=" ">
<polygon fill="white" stroke="#666666" points="430,-96 293,-96 293,-77 430,-77 430,-96"/>
<text text-anchor="middle" x="361.5" y="-84" font-family="Helvetica,sans-Serif" font-size="10.00">src/d/a/d_a_item_static.cpp</text>
</a>
</g>
</g>
<!-- Node13&#45;&gt;Node17 -->
<g id="edge15" class="edge">
<title>Node13&#45;&gt;Node17</title>
<path fill="none" stroke="#63b8ff" d="M361.5,-136.56C361.5,-122.54 361.5,-106.13 361.5,-96.29"/>
<polygon fill="#63b8ff" stroke="#63b8ff" points="358,-136.53 361.5,-146.53 365,-136.53 358,-136.53"/>
</g>
<!-- Node18&#45;&gt;Node7 -->
<g id="edge39" class="edge">
<title>Node18&#45;&gt;Node7</title>
<path fill="none" stroke="#63b8ff" d="M1916.38,-161.13C2116.79,-156.68 2710.24,-140.93 2900.5,-107 2907.49,-105.75 2914.79,-103.97 2921.84,-101.98"/>
<polygon fill="#63b8ff" stroke="#63b8ff" points="1916.32,-157.63 1906.4,-161.35 1916.47,-164.63 1916.32,-157.63"/>
</g>
<!-- Node18&#45;&gt;Node8 -->
<g id="edge40" class="edge">
<title>Node18&#45;&gt;Node8</title>
<path fill="none" stroke="#63b8ff" d="M1916.2,-161.69C2132.2,-158.71 2810.99,-146.37 3026.5,-107 3039.11,-104.7 3052.72,-100.43 3063.79,-96.47"/>
<polygon fill="#63b8ff" stroke="#63b8ff" points="1916.22,-158.19 1906.27,-161.83 1916.31,-165.19 1916.22,-158.19"/>
</g>
<!-- Node18&#45;&gt;Node12 -->
<g id="edge42" class="edge">
<title>Node18&#45;&gt;Node12</title>
<path fill="none" stroke="#63b8ff" d="M1916.14,-163.32C2067.65,-164.12 2449.12,-160.17 2762.5,-107 2776.74,-104.58 2792.24,-100.35 2804.94,-96.45"/>
<polygon fill="#63b8ff" stroke="#63b8ff" points="1916.3,-159.82 1906.28,-163.26 1916.26,-166.82 1916.3,-159.82"/>
</g>
<!-- Node19 -->
<g id="node18" class="node">
<title>Node19</title>
<g id="a_node18"><a xlink:href="d__a__npc_8h.html" target="_top" xlink:title=" ">
<polygon fill="#fff0f0" stroke="red" points="2201,-96 2090,-96 2090,-77 2201,-77 2201,-96"/>
<text text-anchor="middle" x="2145.5" y="-84" font-family="Helvetica,sans-Serif" font-size="10.00">include/d/a/d_a_npc.h</text>
</a>
</g>
</g>
<!-- Node18&#45;&gt;Node19 -->
<g id="edge17" class="edge">
<title>Node18&#45;&gt;Node19</title>
<path fill="none" stroke="#63b8ff" d="M1915.99,-146.74C1961.09,-135.91 2022,-121.02 2075.5,-107 2088.19,-103.67 2102.12,-99.83 2114.19,-96.44"/>
<polygon fill="#63b8ff" stroke="#63b8ff" points="1915.26,-143.32 1906.36,-149.05 1916.9,-150.12 1915.26,-143.32"/>
</g>
<!-- Node25 -->
<g id="node19" class="node">
<title>Node25</title>
<g id="a_node19"><a xlink:href="d__a__npc__cd_8h.html" target="_top" xlink:title=" ">
<polygon fill="#fff0f0" stroke="red" points="2346,-96 2219,-96 2219,-77 2346,-77 2346,-96"/>
<text text-anchor="middle" x="2282.5" y="-84" font-family="Helvetica,sans-Serif" font-size="10.00">include/d/a/d_a_npc_cd.h</text>
</a>
</g>
</g>
<!-- Node18&#45;&gt;Node25 -->
<g id="edge18" class="edge">
<title>Node18&#45;&gt;Node25</title>
<path fill="none" stroke="#63b8ff" d="M1916.15,-154.53C1988.91,-145.29 2108.63,-128.56 2210.5,-107 2224.44,-104.05 2239.69,-100.04 2252.56,-96.42"/>
<polygon fill="#63b8ff" stroke="#63b8ff" points="1915.88,-151.03 1906.39,-155.75 1916.75,-157.98 1915.88,-151.03"/>
</g>
<!-- Node27 -->
<g id="node20" class="node">
<title>Node27</title>
<g id="a_node20"><a xlink:href="d__a__npc__cd2_8h.html" target="_top" xlink:title=" ">
<polygon fill="#fff0f0" stroke="red" points="2291.5,-30 2187.5,-30 2187.5,0 2291.5,0 2291.5,-30"/>
<text text-anchor="start" x="2195.5" y="-18" font-family="Helvetica,sans-Serif" font-size="10.00">include/d/a/d_a_npc</text>
<text text-anchor="middle" x="2239.5" y="-7" font-family="Helvetica,sans-Serif" font-size="10.00">_cd2.h</text>
</a>
</g>
</g>
<!-- Node18&#45;&gt;Node27 -->
<g id="edge19" class="edge">
<title>Node18&#45;&gt;Node27</title>
<path fill="none" stroke="#63b8ff" d="M1915.85,-152.43C1954.81,-144.38 2003.84,-130.45 2042.5,-107 2064,-93.96 2060.17,-79.33 2081.5,-66 2113.83,-45.8 2155.02,-33.12 2187.24,-25.58"/>
<polygon fill="#63b8ff" stroke="#63b8ff" points="1915.24,-148.98 1906.11,-154.35 1916.6,-155.85 1915.24,-148.98"/>
</g>
<!-- Node29 -->
<g id="node21" class="node">
<title>Node29</title>
<g id="a_node21"><a xlink:href="d__cc__uty_8h.html" target="_top" xlink:title=" ">
<polygon fill="#fff0f0" stroke="red" points="724,-96 605,-96 605,-77 724,-77 724,-96"/>
<text text-anchor="middle" x="664.5" y="-84" font-family="Helvetica,sans-Serif" font-size="10.00">include/d/cc/d_cc_uty.h</text>
</a>
</g>
</g>
<!-- Node18&#45;&gt;Node29 -->
<g id="edge20" class="edge">
<title>Node18&#45;&gt;Node29</title>
<path fill="none" stroke="#63b8ff" d="M1796.5,-145.2C1792.8,-144.35 1789.11,-143.6 1785.5,-143 1324.02,-66.17 1195.73,-179.14 733.5,-107 718.99,-104.73 703.19,-100.41 690.38,-96.42"/>
<polygon fill="#63b8ff" stroke="#63b8ff" points="1795.51,-148.56 1806.06,-147.64 1797.24,-141.78 1795.51,-148.56"/>
</g>
<!-- Node39 -->
<g id="node22" class="node">
<title>Node39</title>
<g id="a_node22"><a xlink:href="d__bright__check_8h.html" target="_top" xlink:title=" ">
<polygon fill="#fff0f0" stroke="red" points="835,-101.5 742,-101.5 742,-71.5 835,-71.5 835,-101.5"/>
<text text-anchor="start" x="750" y="-89.5" font-family="Helvetica,sans-Serif" font-size="10.00">include/d/d_bright</text>
<text text-anchor="middle" x="788.5" y="-78.5" font-family="Helvetica,sans-Serif" font-size="10.00">_check.h</text>
</a>
</g>
</g>
<!-- Node18&#45;&gt;Node39 -->
<g id="edge21" class="edge">
<title>Node18&#45;&gt;Node39</title>
<path fill="none" stroke="#63b8ff" d="M1796.49,-145.22C1792.8,-144.36 1789.11,-143.61 1785.5,-143 1372.79,-73.43 1255.76,-184.67 844.5,-107 838.13,-105.8 831.5,-104 825.13,-101.99"/>
<polygon fill="#63b8ff" stroke="#63b8ff" points="1795.5,-148.58 1806.06,-147.66 1797.24,-141.79 1795.5,-148.58"/>
</g>
<!-- Node41 -->
<g id="node23" class="node">
<title>Node41</title>
<g id="a_node23"><a xlink:href="d__error__msg_8h.html" target="_top" xlink:title=" ">
<polygon fill="#fff0f0" stroke="red" points="973.5,-96 853.5,-96 853.5,-77 973.5,-77 973.5,-96"/>
<text text-anchor="middle" x="913.5" y="-84" font-family="Helvetica,sans-Serif" font-size="10.00">include/d/d_error_msg.h</text>
</a>
</g>
</g>
<!-- Node18&#45;&gt;Node41 -->
<g id="edge22" class="edge">
<title>Node18&#45;&gt;Node41</title>
<path fill="none" stroke="#63b8ff" d="M1796.49,-145.24C1792.79,-144.38 1789.11,-143.62 1785.5,-143 1433.42,-82.46 1335.18,-163.96 982.5,-107 968.12,-104.68 952.47,-100.41 939.72,-96.45"/>
<polygon fill="#63b8ff" stroke="#63b8ff" points="1795.5,-148.6 1806.05,-147.7 1797.24,-141.82 1795.5,-148.6"/>
</g>
<!-- Node44 -->
<g id="node24" class="node">
<title>Node44</title>
<g id="a_node24"><a xlink:href="d__npc__lib_8h.html" target="_top" xlink:title=" ">
<polygon fill="#fff0f0" stroke="red" points="2471,-96 2364,-96 2364,-77 2471,-77 2471,-96"/>
<text text-anchor="middle" x="2417.5" y="-84" font-family="Helvetica,sans-Serif" font-size="10.00">include/d/d_npc_lib.h</text>
</a>
</g>
</g>
<!-- Node18&#45;&gt;Node44 -->
<g id="edge23" class="edge">
<title>Node18&#45;&gt;Node44</title>
<path fill="none" stroke="#63b8ff" d="M1916.14,-159.35C2013.54,-153.8 2200.09,-139.64 2355.5,-107 2368.09,-104.36 2381.76,-100.2 2393.05,-96.4"/>
<polygon fill="#63b8ff" stroke="#63b8ff" points="1916.02,-155.85 1906.23,-159.9 1916.4,-162.84 1916.02,-155.85"/>
</g>
<!-- Node46 -->
<g id="node25" class="node">
<title>Node46</title>
<g id="a_node25"><a xlink:href="d__file__select_8h.html" target="_top" xlink:title=" ">
<polygon fill="#fff0f0" stroke="red" points="1087.5,-101.5 991.5,-101.5 991.5,-71.5 1087.5,-71.5 1087.5,-101.5"/>
<text text-anchor="start" x="999.5" y="-89.5" font-family="Helvetica,sans-Serif" font-size="10.00">include/d/file/d_file</text>
<text text-anchor="middle" x="1039.5" y="-78.5" font-family="Helvetica,sans-Serif" font-size="10.00">_select.h</text>
</a>
</g>
</g>
<!-- Node18&#45;&gt;Node46 -->
<g id="edge25" class="edge">
<title>Node18&#45;&gt;Node46</title>
<path fill="none" stroke="#63b8ff" d="M1796.31,-145.23C1792.67,-144.38 1789.05,-143.62 1785.5,-143 1483.49,-89.92 1397.57,-165.19 1096.5,-107 1090.03,-105.75 1083.29,-103.93 1076.81,-101.91"/>
<polygon fill="#63b8ff" stroke="#63b8ff" points="1795.14,-148.55 1805.7,-147.65 1796.88,-141.77 1795.14,-148.55"/>
</g>
<!-- Node48 -->
<g id="node26" class="node">
<title>Node48</title>
<g id="a_node26"><a xlink:href="d__msg__object_8h.html" target="_top" xlink:title=" ">
<polygon fill="#fff0f0" stroke="red" points="2599.5,-101.5 2489.5,-101.5 2489.5,-71.5 2599.5,-71.5 2599.5,-101.5"/>
<text text-anchor="start" x="2497.5" y="-89.5" font-family="Helvetica,sans-Serif" font-size="10.00">include/d/msg/d_msg</text>
<text text-anchor="middle" x="2544.5" y="-78.5" font-family="Helvetica,sans-Serif" font-size="10.00">_object.h</text>
</a>
</g>
</g>
<!-- Node18&#45;&gt;Node48 -->
<g id="edge26" class="edge">
<title>Node18&#45;&gt;Node48</title>
<path fill="none" stroke="#63b8ff" d="M1916.37,-161.17C2032.27,-157.87 2277.5,-146.41 2480.5,-107 2487.34,-105.67 2494.49,-103.9 2501.43,-101.95"/>
<polygon fill="#63b8ff" stroke="#63b8ff" points="1916.31,-157.67 1906.41,-161.45 1916.5,-164.67 1916.31,-157.67"/>
</g>
<!-- Node68 -->
<g id="node27" class="node">
<title>Node68</title>
<g id="a_node27"><a xlink:href="d__a__andsw_8h.html" target="_top" xlink:title=" ">
<polygon fill="white" stroke="#666666" points="1215.5,-101.5 1105.5,-101.5 1105.5,-71.5 1215.5,-71.5 1215.5,-101.5"/>
<text text-anchor="start" x="1113.5" y="-89.5" font-family="Helvetica,sans-Serif" font-size="10.00">include/rel/d/a/d_a</text>
<text text-anchor="middle" x="1160.5" y="-78.5" font-family="Helvetica,sans-Serif" font-size="10.00">_andsw/d_a_andsw.h</text>
</a>
</g>
</g>
<!-- Node18&#45;&gt;Node68 -->
<g id="edge31" class="edge">
<title>Node18&#45;&gt;Node68</title>
<path fill="none" stroke="#63b8ff" d="M1795.79,-145.16C1792.33,-144.35 1788.88,-143.61 1785.5,-143 1540.13,-98.36 1470.97,-151.12 1225.5,-107 1218.43,-105.73 1211.03,-103.96 1203.87,-101.99"/>
<polygon fill="#63b8ff" stroke="#63b8ff" points="1794.78,-148.52 1805.34,-147.62 1796.53,-141.74 1794.78,-148.52"/>
</g>
<!-- Node69 -->
<g id="node28" class="node">
<title>Node69</title>
<g id="a_node28"><a xlink:href="d__a__cstaF_8h.html" target="_top" xlink:title=" ">
<polygon fill="white" stroke="#666666" points="1337,-101.5 1234,-101.5 1234,-71.5 1337,-71.5 1337,-101.5"/>
<text text-anchor="start" x="1242" y="-89.5" font-family="Helvetica,sans-Serif" font-size="10.00">include/rel/d/a/d_a</text>
<text text-anchor="middle" x="1285.5" y="-78.5" font-family="Helvetica,sans-Serif" font-size="10.00">_cstaF/d_a_cstaF.h</text>
</a>
</g>
</g>
<!-- Node18&#45;&gt;Node69 -->
<g id="edge32" class="edge">
<title>Node18&#45;&gt;Node69</title>
<path fill="none" stroke="#63b8ff" d="M1795.6,-145.19C1792.2,-144.37 1788.82,-143.63 1785.5,-143 1593.21,-106.26 1538.53,-145.05 1346.5,-107 1339.85,-105.68 1332.9,-103.88 1326.18,-101.91"/>
<polygon fill="#63b8ff" stroke="#63b8ff" points="1794.41,-148.5 1804.97,-147.63 1796.18,-141.72 1794.41,-148.5"/>
</g>
<!-- Node70 -->
<g id="node29" class="node">
<title>Node70</title>
<g id="a_node29"><a xlink:href="d__a__dmidna_8h.html" target="_top" xlink:title=" ">
<polygon fill="white" stroke="#666666" points="1471.5,-101.5 1355.5,-101.5 1355.5,-71.5 1471.5,-71.5 1471.5,-101.5"/>
<text text-anchor="start" x="1363.5" y="-89.5" font-family="Helvetica,sans-Serif" font-size="10.00">include/rel/d/a/d_a</text>
<text text-anchor="middle" x="1413.5" y="-78.5" font-family="Helvetica,sans-Serif" font-size="10.00">_dmidna/d_a_dmidna.h</text>
</a>
</g>
</g>
<!-- Node18&#45;&gt;Node70 -->
<g id="edge33" class="edge">
<title>Node18&#45;&gt;Node70</title>
<path fill="none" stroke="#63b8ff" d="M1794.6,-145.09C1791.54,-144.33 1788.49,-143.63 1785.5,-143 1651.91,-115 1614.27,-134.17 1480.5,-107 1473.61,-105.6 1466.41,-103.84 1459.38,-101.94"/>
<polygon fill="#63b8ff" stroke="#63b8ff" points="1793.67,-148.46 1804.24,-147.64 1795.47,-141.7 1793.67,-148.46"/>
</g>
<!-- Node71 -->
<g id="node30" class="node">
<title>Node71</title>
<g id="a_node30"><a xlink:href="d__a__dshutter_8h.html" target="_top" xlink:title=" ">
<polygon fill="#fff0f0" stroke="red" points="1613.5,-101.5 1489.5,-101.5 1489.5,-71.5 1613.5,-71.5 1613.5,-101.5"/>
<text text-anchor="start" x="1497.5" y="-89.5" font-family="Helvetica,sans-Serif" font-size="10.00">include/rel/d/a/d_a</text>
<text text-anchor="middle" x="1551.5" y="-78.5" font-family="Helvetica,sans-Serif" font-size="10.00">_dshutter/d_a_dshutter.h</text>
</a>
</g>
</g>
<!-- Node18&#45;&gt;Node71 -->
<g id="edge34" class="edge">
<title>Node18&#45;&gt;Node71</title>
<path fill="none" stroke="#63b8ff" d="M1792.45,-144.87C1790.1,-144.23 1787.78,-143.6 1785.5,-143 1714.17,-124.24 1695.11,-124.65 1623.5,-107 1617.09,-105.42 1610.37,-103.7 1603.73,-101.95"/>
<polygon fill="#63b8ff" stroke="#63b8ff" points="1791.45,-148.23 1802.02,-147.6 1793.36,-141.5 1791.45,-148.23"/>
</g>
<!-- Node73 -->
<g id="node31" class="node">
<title>Node73</title>
<g id="a_node31"><a xlink:href="d__a__guard__mng_8h.html" target="_top" xlink:title=" ">
<polygon fill="white" stroke="#666666" points="1781,-101.5 1632,-101.5 1632,-71.5 1781,-71.5 1781,-101.5"/>
<text text-anchor="start" x="1640" y="-89.5" font-family="Helvetica,sans-Serif" font-size="10.00">include/rel/d/a/d_a</text>
<text text-anchor="middle" x="1706.5" y="-78.5" font-family="Helvetica,sans-Serif" font-size="10.00">_guard_mng/d_a_guard_mng.h</text>
</a>
</g>
</g>
<!-- Node18&#45;&gt;Node73 -->
<g id="edge35" class="edge">
<title>Node18&#45;&gt;Node73</title>
<path fill="none" stroke="#63b8ff" d="M1811.92,-142.79C1787.46,-129.96 1756.12,-113.52 1733.99,-101.92"/>
<polygon fill="#63b8ff" stroke="#63b8ff" points="1810.11,-145.79 1820.59,-147.34 1813.36,-139.59 1810.11,-145.79"/>
</g>
<!-- Node74 -->
<g id="node32" class="node">
<title>Node74</title>
<g id="a_node32"><a xlink:href="d__a__hitobj_8h.html" target="_top" xlink:title=" ">
<polygon fill="white" stroke="#666666" points="1899.5,-101.5 1799.5,-101.5 1799.5,-71.5 1899.5,-71.5 1899.5,-101.5"/>
<text text-anchor="start" x="1807.5" y="-89.5" font-family="Helvetica,sans-Serif" font-size="10.00">include/rel/d/a/d_a</text>
<text text-anchor="middle" x="1849.5" y="-78.5" font-family="Helvetica,sans-Serif" font-size="10.00">_hitobj/d_a_hitobj.h</text>
</a>
</g>
</g>
<!-- Node18&#45;&gt;Node74 -->
<g id="edge36" class="edge">
<title>Node18&#45;&gt;Node74</title>
<path fill="none" stroke="#63b8ff" d="M1849.5,-136.73C1849.5,-125.08 1849.5,-111.76 1849.5,-101.92"/>
<polygon fill="#63b8ff" stroke="#63b8ff" points="1846,-136.53 1849.5,-146.53 1853,-136.53 1846,-136.53"/>
</g>
<!-- Node75 -->
<g id="node33" class="node">
<title>Node75</title>
<g id="a_node33"><a xlink:href="d__a__izumi__gate_8h.html" target="_top" xlink:title=" ">
<polygon fill="white" stroke="#666666" points="2033,-107 1918,-107 1918,-66 2033,-66 2033,-107"/>
<text text-anchor="start" x="1926" y="-95" font-family="Helvetica,sans-Serif" font-size="10.00">include/rel/d/a/d_a</text>
<text text-anchor="start" x="1926" y="-84" font-family="Helvetica,sans-Serif" font-size="10.00">_izumi_gate/d_a_izumi</text>
<text text-anchor="middle" x="1975.5" y="-73" font-family="Helvetica,sans-Serif" font-size="10.00">_gate.h</text>
</a>
</g>
</g>
<!-- Node18&#45;&gt;Node75 -->
<g id="edge37" class="edge">
<title>Node18&#45;&gt;Node75</title>
<path fill="none" stroke="#63b8ff" d="M1883.45,-142.29C1901.69,-131.44 1924.09,-118.1 1942.23,-107.3"/>
<polygon fill="#63b8ff" stroke="#63b8ff" points="1881.9,-139.14 1875.09,-147.27 1885.48,-145.16 1881.9,-139.14"/>
</g>
<!-- Node134 -->
<g id="node34" class="node">
<title>Node134</title>
<g id="a_node34"><a xlink:href="c__damagereaction_8cpp.html" target="_top" xlink:title=" ">
<polygon fill="white" stroke="#666666" points="587,-96 448,-96 448,-77 587,-77 587,-96"/>
<text text-anchor="middle" x="517.5" y="-84" font-family="Helvetica,sans-Serif" font-size="10.00">src/c/c_damagereaction.cpp</text>
</a>
</g>
</g>
<!-- Node18&#45;&gt;Node134 -->
<g id="edge38" class="edge">
<title>Node18&#45;&gt;Node134</title>
<path fill="none" stroke="#63b8ff" d="M1797.03,-145.3C1793.15,-144.41 1789.28,-143.62 1785.5,-143 1263.82,-57.2 1120.3,-178.75 596.5,-107 579.98,-104.74 561.91,-100.42 547.22,-96.42"/>
<polygon fill="#63b8ff" stroke="#63b8ff" points="1795.86,-148.62 1806.41,-147.71 1797.59,-141.84 1795.86,-148.62"/>
</g>
<!-- Node18&#45;&gt;Node181 -->
<g id="edge41" class="edge">
<title>Node18&#45;&gt;Node181</title>
<path fill="none" stroke="#63b8ff" d="M1916.02,-159.13C2075.45,-150.83 2475.96,-128.46 2608.5,-107 2624.15,-104.47 2641.28,-100.27 2655.4,-96.42"/>
<polygon fill="#63b8ff" stroke="#63b8ff" points="1916.28,-155.62 1906.48,-159.63 1916.65,-162.61 1916.28,-155.62"/>
</g>
<!-- Node44&#45;&gt;Node27 -->
<g id="edge24" class="edge">
<title>Node44&#45;&gt;Node27</title>
<path fill="none" stroke="#63b8ff" d="M2384.03,-72.43C2353.43,-60.49 2308.25,-42.84 2276.57,-30.47"/>
<polygon fill="#63b8ff" stroke="#63b8ff" points="2382.6,-75.63 2393.18,-76.01 2385.14,-69.11 2382.6,-75.63"/>
</g>
<!-- Node48&#45;&gt;Node5 -->
<g id="edge27" class="edge">
<title>Node48&#45;&gt;Node5</title>
<path fill="none" stroke="#63b8ff" d="M2554.84,-60.73C2560.08,-48.15 2566.13,-33.67 2569.88,-24.68"/>
<polygon fill="#63b8ff" stroke="#63b8ff" points="2551.71,-59.13 2551.09,-69.7 2558.17,-61.82 2551.71,-59.13"/>
</g>
<!-- Node48&#45;&gt;Node9 -->
<g id="edge28" class="edge">
<title>Node48&#45;&gt;Node9</title>
<path fill="none" stroke="#63b8ff" d="M2600.05,-68.05C2602.89,-67.32 2605.73,-66.63 2608.5,-66 2700.62,-45.06 2809.32,-30.43 2875.55,-22.62"/>
<polygon fill="#63b8ff" stroke="#63b8ff" points="2599.24,-64.64 2590.5,-70.64 2601.07,-71.4 2599.24,-64.64"/>
</g>
<!-- Node48&#45;&gt;Node10 -->
<g id="edge29" class="edge">
<title>Node48&#45;&gt;Node10</title>
<path fill="none" stroke="#63b8ff" d="M2598.4,-68.21C2601.8,-67.39 2605.19,-66.64 2608.5,-66 2633.87,-61.09 2990.75,-31.81 3130.21,-20.48"/>
<polygon fill="#63b8ff" stroke="#63b8ff" points="2597.82,-64.74 2589.03,-70.66 2599.59,-71.51 2597.82,-64.74"/>
</g>
<!-- Node48&#45;&gt;Node11 -->
<g id="edge30" class="edge">
<title>Node48&#45;&gt;Node11</title>
<path fill="none" stroke="#63b8ff" d="M2597.7,-68.25C2601.33,-67.39 2604.95,-66.63 2608.5,-66 2889.43,-16.06 2965.09,-52.94 3249.5,-30 3271.02,-28.26 3294.46,-25.94 3315.58,-23.69"/>
<polygon fill="#63b8ff" stroke="#63b8ff" points="2597.12,-64.78 2588.31,-70.67 2598.86,-71.56 2597.12,-64.78"/>
</g>
<!-- Node206&#45;&gt;Node181 -->
<g id="edge57" class="edge">
<title>Node206&#45;&gt;Node181</title>
<path fill="none" stroke="#63b8ff" d="M2471.27,-297.38C2514.38,-292.34 2566.91,-279.84 2604.5,-250 2657.08,-208.25 2678.24,-123.48 2683.86,-96.18"/>
<polygon fill="#63b8ff" stroke="#63b8ff" points="2471.04,-293.88 2461.45,-298.4 2471.76,-300.85 2471.04,-293.88"/>
</g>
<!-- Node206&#45;&gt;Node200 -->
<g id="edge54" class="edge">
<title>Node206&#45;&gt;Node200</title>
<path fill="none" stroke="#63b8ff" d="M2317.9,-289.69C2250.88,-280.36 2151,-265.71 2064.5,-250 2061.62,-249.48 2058.67,-248.92 2055.7,-248.35"/>
<polygon fill="#63b8ff" stroke="#63b8ff" points="2317.31,-293.14 2327.69,-291.05 2318.27,-286.21 2317.31,-293.14"/>
</g>
<!-- Node206&#45;&gt;Node201 -->
<g id="edge55" class="edge">
<title>Node206&#45;&gt;Node201</title>
<path fill="none" stroke="#63b8ff" d="M2435.78,-280.86C2456.91,-271.05 2482.21,-259.32 2501.63,-250.31"/>
<polygon fill="#63b8ff" stroke="#63b8ff" points="2434.44,-277.62 2426.84,-285 2437.39,-283.97 2434.44,-277.62"/>
</g>
<!-- Node206&#45;&gt;Node204 -->
<g id="edge56" class="edge">
<title>Node206&#45;&gt;Node204</title>
<path fill="none" stroke="#63b8ff" d="M2394.5,-274.39C2394.5,-266.13 2394.5,-257.28 2394.5,-250.16"/>
<polygon fill="#63b8ff" stroke="#63b8ff" points="2391,-274.28 2394.5,-284.28 2398,-274.28 2391,-274.28"/>
</g>
<!-- Node207&#45;&gt;Node3 -->
<g id="edge64" class="edge">
<title>Node207&#45;&gt;Node3</title>
<path fill="none" stroke="#63b8ff" d="M1746.5,-274.39C1746.5,-266.13 1746.5,-257.28 1746.5,-250.16"/>
<polygon fill="#63b8ff" stroke="#63b8ff" points="1743,-274.28 1746.5,-284.28 1750,-274.28 1743,-274.28"/>
</g>
<!-- Node207&#45;&gt;Node198 -->
<g id="edge65" class="edge">
<title>Node207&#45;&gt;Node198</title>
<path fill="none" stroke="#63b8ff" d="M1783.4,-280.32C1801.57,-270.63 1823.08,-259.16 1839.66,-250.31"/>
<polygon fill="#63b8ff" stroke="#63b8ff" points="1781.94,-277.13 1774.77,-284.92 1785.24,-283.31 1781.94,-277.13"/>
</g>
<!-- Node207&#45;&gt;Node199 -->
<g id="edge66" class="edge">
<title>Node207&#45;&gt;Node199</title>
<path fill="none" stroke="#63b8ff" d="M1678.67,-282.77C1638.78,-272.64 1588.93,-259.98 1551.16,-250.39"/>
<polygon fill="#63b8ff" stroke="#63b8ff" points="1677.61,-286.12 1688.17,-285.18 1679.33,-279.33 1677.61,-286.12"/>
</g>
<!-- Node207&#45;&gt;Node200 -->
<g id="edge67" class="edge">
<title>Node207&#45;&gt;Node200</title>
<path fill="none" stroke="#63b8ff" d="M1814.33,-282.77C1854.22,-272.64 1904.07,-259.98 1941.84,-250.39"/>
<polygon fill="#63b8ff" stroke="#63b8ff" points="1813.67,-279.33 1804.83,-285.18 1815.39,-286.12 1813.67,-279.33"/>
</g>
<!-- Node207&#45;&gt;Node203 -->
<g id="edge68" class="edge">
<title>Node207&#45;&gt;Node203</title>
<path fill="none" stroke="#63b8ff" d="M1709.6,-280.32C1691.43,-270.63 1669.92,-259.16 1653.34,-250.31"/>
<polygon fill="#63b8ff" stroke="#63b8ff" points="1707.76,-283.31 1718.23,-284.92 1711.06,-277.13 1707.76,-283.31"/>
</g>
<!-- Node207&#45;&gt;Node204 -->
<g id="edge69" class="edge">
<title>Node207&#45;&gt;Node204</title>
<path fill="none" stroke="#63b8ff" d="M1823.11,-293.95C1969.71,-282.29 2279.77,-257.23 2328.5,-250 2331.4,-249.57 2334.36,-249.09 2337.34,-248.58"/>
<polygon fill="#63b8ff" stroke="#63b8ff" points="1823.19,-290.43 1813.5,-294.71 1823.74,-297.41 1823.19,-290.43"/>
</g>
<!-- Node208 -->
<g id="node47" class="node">
<title>Node208</title>
<g id="a_node47"><a xlink:href="JStudio_2JStudio__JParticle_2control_8h.html" target="_top" xlink:title=" ">
<polygon fill="white" stroke="#666666" points="284.5,-250 148.5,-250 148.5,-220 284.5,-220 284.5,-250"/>
<text text-anchor="start" x="156.5" y="-238" font-family="Helvetica,sans-Serif" font-size="10.00">include/JSystem/JStudio</text>
<text text-anchor="middle" x="216.5" y="-227" font-family="Helvetica,sans-Serif" font-size="10.00">/JStudio_JParticle/control.h</text>
</a>
</g>
</g>
<!-- Node207&#45;&gt;Node208 -->
<g id="edge59" class="edge">
<title>Node207&#45;&gt;Node208</title>
<path fill="none" stroke="#63b8ff" d="M1669.87,-296.79C1405.69,-285.74 535.4,-249.34 284.66,-238.85"/>
<polygon fill="#63b8ff" stroke="#63b8ff" points="1669.6,-300.29 1679.74,-297.21 1669.89,-293.29 1669.6,-300.29"/>
</g>
<!-- Node214 -->
<g id="node50" class="node">
<title>Node214</title>
<g id="a_node50"><a xlink:href="c__damagereaction_8h.html" target="_top" xlink:title=" ">
<polygon fill="white" stroke="#666666" points="798.5,-173 652.5,-173 652.5,-154 798.5,-154 798.5,-173"/>
<text text-anchor="middle" x="725.5" y="-161" font-family="Helvetica,sans-Serif" font-size="10.00">include/c/c_damagereaction.h</text>
</a>
</g>
</g>
<!-- Node207&#45;&gt;Node214 -->
<g id="edge62" class="edge">
<title>Node207&#45;&gt;Node214</title>
<path fill="none" stroke="#63b8ff" d="M1669.95,-289.84C1477.42,-264.29 975.47,-197.67 793.03,-173.46"/>
<polygon fill="#63b8ff" stroke="#63b8ff" points="1669.2,-293.27 1679.58,-291.12 1670.13,-286.33 1669.2,-293.27"/>
</g>
<!-- Node209 -->
<g id="node48" class="node">
<title>Node209</title>
<g id="a_node48"><a xlink:href="object-particle_8h.html" target="_top" xlink:title=" ">
<polygon fill="#fff0f0" stroke="red" points="125,-184 0,-184 0,-143 125,-143 125,-184"/>
<text text-anchor="start" x="8" y="-172" font-family="Helvetica,sans-Serif" font-size="10.00">include/JSystem/JStudio</text>
<text text-anchor="start" x="8" y="-161" font-family="Helvetica,sans-Serif" font-size="10.00">/JStudio_JParticle/object</text>
<text text-anchor="middle" x="62.5" y="-150" font-family="Helvetica,sans-Serif" font-size="10.00">&#45;particle.h</text>
</a>
</g>
</g>
<!-- Node208&#45;&gt;Node209 -->
<g id="edge60" class="edge">
<title>Node208&#45;&gt;Node209</title>
<path fill="none" stroke="#63b8ff" d="M174.35,-214.98C153.33,-205.49 127.92,-194.02 106.63,-184.42"/>
<polygon fill="#63b8ff" stroke="#63b8ff" points="172.66,-218.05 183.21,-218.98 175.54,-211.67 172.66,-218.05"/>
</g>
<!-- Node213 -->
<g id="node49" class="node">
<title>Node213</title>
<g id="a_node49"><a xlink:href="JStudio_2JStudio__JParticle_2control_8cpp.html" target="_top" xlink:title=" ">
<polygon fill="white" stroke="#666666" points="289.5,-178.5 143.5,-178.5 143.5,-148.5 289.5,-148.5 289.5,-178.5"/>
<text text-anchor="start" x="151.5" y="-166.5" font-family="Helvetica,sans-Serif" font-size="10.00">libs/JSystem/JStudio</text>
<text text-anchor="middle" x="216.5" y="-155.5" font-family="Helvetica,sans-Serif" font-size="10.00">/JStudio_JParticle/control.cpp</text>
</a>
</g>
</g>
<!-- Node208&#45;&gt;Node213 -->
<g id="edge61" class="edge">
<title>Node208&#45;&gt;Node213</title>
<path fill="none" stroke="#63b8ff" d="M216.5,-208.26C216.5,-198.33 216.5,-187.36 216.5,-178.88"/>
<polygon fill="#63b8ff" stroke="#63b8ff" points="213,-208.09 216.5,-218.09 220,-208.09 213,-208.09"/>
</g>
<!-- Node214&#45;&gt;Node134 -->
<g id="edge63" class="edge">
<title>Node214&#45;&gt;Node134</title>
<path fill="none" stroke="#63b8ff" d="M690.23,-149.78C648.15,-134.61 578.87,-109.63 542.15,-96.39"/>
<polygon fill="#63b8ff" stroke="#63b8ff" points="688.8,-152.99 699.4,-153.09 691.18,-146.4 688.8,-152.99"/>
</g>
</g>
</svg>
