<?xml version="1.0" encoding="UTF-8" standalone="no"?>
<!DOCTYPE svg PUBLIC "-//W3C//DTD SVG 1.1//EN"
 "http://www.w3.org/Graphics/SVG/1.1/DTD/svg11.dtd">
<!-- Generated by graphviz version 7.0.5 (20221223.1930)
 -->
<!-- Title: include/JSystem/JParticle/JPAParticle.h Pages: 1 -->
<svg width="3783pt" height="324pt"
 viewBox="0.00 0.00 3783.00 324.00" xmlns="http://www.w3.org/2000/svg" xmlns:xlink="http://www.w3.org/1999/xlink">
<g id="graph0" class="graph" transform="scale(1 1) rotate(0) translate(4 320)">
<title>include/JSystem/JParticle/JPAParticle.h</title>
<!-- Node1 -->
<g id="node1" class="node">
<title>Node1</title>
<g id="a_node1"><a xlink:title=" ">
<polygon fill="#999999" stroke="#666666" points="1001.5,-316 871.5,-316 871.5,-286 1001.5,-286 1001.5,-316"/>
<text text-anchor="start" x="879.5" y="-304" font-family="Helvetica,sans-Serif" font-size="10.00">include/JSystem/JParticle</text>
<text text-anchor="middle" x="936.5" y="-293" font-family="Helvetica,sans-Serif" font-size="10.00">/JPAParticle.h</text>
</a>
</g>
</g>
<!-- Node2 -->
<g id="node2" class="node">
<title>Node2</title>
<g id="a_node2"><a xlink:href="JStudio_2JStudio__JParticle_2control_8h.html" target="_top" xlink:title=" ">
<polygon fill="white" stroke="#666666" points="516.5,-250 380.5,-250 380.5,-220 516.5,-220 516.5,-250"/>
<text text-anchor="start" x="388.5" y="-238" font-family="Helvetica,sans-Serif" font-size="10.00">include/JSystem/JStudio</text>
<text text-anchor="middle" x="448.5" y="-227" font-family="Helvetica,sans-Serif" font-size="10.00">/JStudio_JParticle/control.h</text>
</a>
</g>
</g>
<!-- Node1&#45;&gt;Node2 -->
<g id="edge1" class="edge">
<title>Node1&#45;&gt;Node2</title>
<path fill="none" stroke="#63b8ff" d="M860.04,-289.97C765.86,-277.62 607.3,-256.83 516.96,-244.98"/>
<polygon fill="#63b8ff" stroke="#63b8ff" points="859.32,-293.41 869.69,-291.24 860.23,-286.47 859.32,-293.41"/>
</g>
<!-- Node14 -->
<g id="node9" class="node">
<title>Node14</title>
<g id="a_node9"><a xlink:href="c__damagereaction_8h.html" target="_top" xlink:title=" ">
<polygon fill="white" stroke="#666666" points="203.5,-173 57.5,-173 57.5,-154 203.5,-154 203.5,-173"/>
<text text-anchor="middle" x="130.5" y="-161" font-family="Helvetica,sans-Serif" font-size="10.00">include/c/c_damagereaction.h</text>
</a>
</g>
</g>
<!-- Node1&#45;&gt;Node14 -->
<g id="edge8" class="edge">
<title>Node1&#45;&gt;Node14</title>
<path fill="none" stroke="#63b8ff" d="M860.05,-299.33C750.59,-296.99 543.41,-287.47 371.5,-250 286.7,-231.52 190.87,-191.4 150.31,-173.47"/>
<polygon fill="#63b8ff" stroke="#63b8ff" points="859.72,-302.82 869.79,-299.52 859.86,-295.82 859.72,-302.82"/>
</g>
<!-- Node16 -->
<g id="node11" class="node">
<title>Node16</title>
<g id="a_node11"><a xlink:href="d__particle_8h.html" target="_top" xlink:title=" ">
<polygon fill="white" stroke="#666666" points="795.5,-250 705.5,-250 705.5,-220 795.5,-220 795.5,-250"/>
<text text-anchor="start" x="713.5" y="-238" font-family="Helvetica,sans-Serif" font-size="10.00">include/d/particle</text>
<text text-anchor="middle" x="750.5" y="-227" font-family="Helvetica,sans-Serif" font-size="10.00">/d_particle.h</text>
</a>
</g>
</g>
<!-- Node1&#45;&gt;Node16 -->
<g id="edge10" class="edge">
<title>Node1&#45;&gt;Node16</title>
<path fill="none" stroke="#63b8ff" d="M884,-281.94C855.03,-271.97 819.53,-259.75 792.42,-250.43"/>
<polygon fill="#63b8ff" stroke="#63b8ff" points="882.73,-285.2 893.33,-285.14 885.01,-278.58 882.73,-285.2"/>
</g>
<!-- Node204 -->
<g id="node46" class="node">
<title>Node204</title>
<g id="a_node46"><a xlink:href="JPABaseShape_8cpp.html" target="_top" xlink:title=" ">
<polygon fill="white" stroke="#666666" points="927.5,-250 813.5,-250 813.5,-220 927.5,-220 927.5,-250"/>
<text text-anchor="start" x="821.5" y="-238" font-family="Helvetica,sans-Serif" font-size="10.00">libs/JSystem/JParticle</text>
<text text-anchor="middle" x="870.5" y="-227" font-family="Helvetica,sans-Serif" font-size="10.00">/JPABaseShape.cpp</text>
</a>
</g>
</g>
<!-- Node1&#45;&gt;Node204 -->
<g id="edge59" class="edge">
<title>Node1&#45;&gt;Node204</title>
<path fill="none" stroke="#63b8ff" d="M913.61,-277.81C904.16,-268.64 893.47,-258.28 885.11,-250.16"/>
<polygon fill="#63b8ff" stroke="#63b8ff" points="911.15,-280.29 920.77,-284.74 916.02,-275.27 911.15,-280.29"/>
</g>
<!-- Node205 -->
<g id="node47" class="node">
<title>Node205</title>
<g id="a_node47"><a xlink:href="JPAChildShape_8cpp.html" target="_top" xlink:title=" ">
<polygon fill="white" stroke="#666666" points="1059.5,-250 945.5,-250 945.5,-220 1059.5,-220 1059.5,-250"/>
<text text-anchor="start" x="953.5" y="-238" font-family="Helvetica,sans-Serif" font-size="10.00">libs/JSystem/JParticle</text>
<text text-anchor="middle" x="1002.5" y="-227" font-family="Helvetica,sans-Serif" font-size="10.00">/JPAChildShape.cpp</text>
</a>
</g>
</g>
<!-- Node1&#45;&gt;Node205 -->
<g id="edge60" class="edge">
<title>Node1&#45;&gt;Node205</title>
<path fill="none" stroke="#63b8ff" d="M959.39,-277.81C968.84,-268.64 979.53,-258.28 987.89,-250.16"/>
<polygon fill="#63b8ff" stroke="#63b8ff" points="956.98,-275.27 952.23,-284.74 961.85,-280.29 956.98,-275.27"/>
</g>
<!-- Node206 -->
<g id="node48" class="node">
<title>Node206</title>
<g id="a_node48"><a xlink:href="JPAEmitter_8cpp.html" target="_top" xlink:title=" ">
<polygon fill="white" stroke="#666666" points="1191.5,-250 1077.5,-250 1077.5,-220 1191.5,-220 1191.5,-250"/>
<text text-anchor="start" x="1085.5" y="-238" font-family="Helvetica,sans-Serif" font-size="10.00">libs/JSystem/JParticle</text>
<text text-anchor="middle" x="1134.5" y="-227" font-family="Helvetica,sans-Serif" font-size="10.00">/JPAEmitter.cpp</text>
</a>
</g>
</g>
<!-- Node1&#45;&gt;Node206 -->
<g id="edge61" class="edge">
<title>Node1&#45;&gt;Node206</title>
<path fill="none" stroke="#63b8ff" d="M991.57,-282.2C1022.56,-272.18 1060.76,-259.83 1089.87,-250.43"/>
<polygon fill="#63b8ff" stroke="#63b8ff" points="990.81,-278.77 982.38,-285.17 992.97,-285.43 990.81,-278.77"/>
</g>
<!-- Node207 -->
<g id="node49" class="node">
<title>Node207</title>
<g id="a_node49"><a xlink:href="JPAExtraShape_8cpp.html" target="_top" xlink:title=" ">
<polygon fill="white" stroke="#666666" points="1323.5,-250 1209.5,-250 1209.5,-220 1323.5,-220 1323.5,-250"/>
<text text-anchor="start" x="1217.5" y="-238" font-family="Helvetica,sans-Serif" font-size="10.00">libs/JSystem/JParticle</text>
<text text-anchor="middle" x="1266.5" y="-227" font-family="Helvetica,sans-Serif" font-size="10.00">/JPAExtraShape.cpp</text>
</a>
</g>
</g>
<!-- Node1&#45;&gt;Node207 -->
<g id="edge62" class="edge">
<title>Node1&#45;&gt;Node207</title>
<path fill="none" stroke="#63b8ff" d="M1013.24,-285.92C1065.96,-276.14 1137.54,-262.64 1200.5,-250 1203.37,-249.42 1206.31,-248.83 1209.28,-248.22"/>
<polygon fill="#63b8ff" stroke="#63b8ff" points="1012.63,-282.48 1003.43,-287.74 1013.9,-289.36 1012.63,-282.48"/>
</g>
<!-- Node208 -->
<g id="node50" class="node">
<title>Node208</title>
<g id="a_node50"><a xlink:href="JPAParticle_8cpp.html" target="_top" xlink:title=" ">
<polygon fill="white" stroke="#666666" points="1455.5,-250 1341.5,-250 1341.5,-220 1455.5,-220 1455.5,-250"/>
<text text-anchor="start" x="1349.5" y="-238" font-family="Helvetica,sans-Serif" font-size="10.00">libs/JSystem/JParticle</text>
<text text-anchor="middle" x="1398.5" y="-227" font-family="Helvetica,sans-Serif" font-size="10.00">/JPAParticle.cpp</text>
</a>
</g>
</g>
<!-- Node1&#45;&gt;Node208 -->
<g id="edge63" class="edge">
<title>Node1&#45;&gt;Node208</title>
<path fill="none" stroke="#63b8ff" d="M1013.35,-292.22C1093.34,-283.67 1222.11,-268.64 1332.5,-250 1335.39,-249.51 1338.34,-248.99 1341.32,-248.43"/>
<polygon fill="#63b8ff" stroke="#63b8ff" points="1012.99,-288.74 1003.42,-293.27 1013.73,-295.7 1012.99,-288.74"/>
</g>
<!-- Node3 -->
<g id="node3" class="node">
<title>Node3</title>
<g id="a_node3"><a xlink:href="object-particle_8h.html" target="_top" xlink:title=" ">
<polygon fill="white" stroke="#666666" points="511,-184 386,-184 386,-143 511,-143 511,-184"/>
<text text-anchor="start" x="394" y="-172" font-family="Helvetica,sans-Serif" font-size="10.00">include/JSystem/JStudio</text>
<text text-anchor="start" x="394" y="-161" font-family="Helvetica,sans-Serif" font-size="10.00">/JStudio_JParticle/object</text>
<text text-anchor="middle" x="448.5" y="-150" font-family="Helvetica,sans-Serif" font-size="10.00">&#45;particle.h</text>
</a>
</g>
</g>
<!-- Node2&#45;&gt;Node3 -->
<g id="edge2" class="edge">
<title>Node2&#45;&gt;Node3</title>
<path fill="none" stroke="#63b8ff" d="M448.5,-208.36C448.5,-200.45 448.5,-191.87 448.5,-184.42"/>
<polygon fill="#63b8ff" stroke="#63b8ff" points="445,-208.09 448.5,-218.09 452,-208.09 445,-208.09"/>
</g>
<!-- Node13 -->
<g id="node8" class="node">
<title>Node13</title>
<g id="a_node8"><a xlink:href="JStudio_2JStudio__JParticle_2control_8cpp.html" target="_top" xlink:title=" ">
<polygon fill="white" stroke="#666666" points="367.5,-178.5 221.5,-178.5 221.5,-148.5 367.5,-148.5 367.5,-178.5"/>
<text text-anchor="start" x="229.5" y="-166.5" font-family="Helvetica,sans-Serif" font-size="10.00">libs/JSystem/JStudio</text>
<text text-anchor="middle" x="294.5" y="-155.5" font-family="Helvetica,sans-Serif" font-size="10.00">/JStudio_JParticle/control.cpp</text>
</a>
</g>
</g>
<!-- Node2&#45;&gt;Node13 -->
<g id="edge7" class="edge">
<title>Node2&#45;&gt;Node13</title>
<path fill="none" stroke="#63b8ff" d="M406.21,-214.91C380.99,-203.53 349.48,-189.31 326.37,-178.88"/>
<polygon fill="#63b8ff" stroke="#63b8ff" points="404.66,-218.05 415.21,-218.98 407.54,-211.67 404.66,-218.05"/>
</g>
<!-- Node4 -->
<g id="node4" class="node">
<title>Node4</title>
<g id="a_node4"><a xlink:href="d__demo_8h.html" target="_top" xlink:title=" ">
<polygon fill="#fff0f0" stroke="red" points="244,-96 143,-96 143,-77 244,-77 244,-96"/>
<text text-anchor="middle" x="193.5" y="-84" font-family="Helvetica,sans-Serif" font-size="10.00">include/d/d_demo.h</text>
</a>
</g>
</g>
<!-- Node3&#45;&gt;Node4 -->
<g id="edge3" class="edge">
<title>Node3&#45;&gt;Node4</title>
<path fill="none" stroke="#63b8ff" d="M374.48,-142.13C337.97,-131.9 293.32,-119.13 253.5,-107 242.6,-103.68 230.66,-99.84 220.31,-96.45"/>
<polygon fill="#63b8ff" stroke="#63b8ff" points="373.51,-145.49 384.08,-144.81 375.39,-138.75 373.51,-145.49"/>
</g>
<!-- Node12 -->
<g id="node7" class="node">
<title>Node12</title>
<g id="a_node7"><a xlink:href="object-particle_8cpp.html" target="_top" xlink:title=" ">
<polygon fill="white" stroke="#666666" points="125,-107 0,-107 0,-66 125,-66 125,-107"/>
<text text-anchor="start" x="8" y="-95" font-family="Helvetica,sans-Serif" font-size="10.00">libs/JSystem/JStudio</text>
<text text-anchor="start" x="8" y="-84" font-family="Helvetica,sans-Serif" font-size="10.00">/JStudio_JParticle/object</text>
<text text-anchor="middle" x="62.5" y="-73" font-family="Helvetica,sans-Serif" font-size="10.00">&#45;particle.cpp</text>
</a>
</g>
</g>
<!-- Node3&#45;&gt;Node12 -->
<g id="edge6" class="edge">
<title>Node3&#45;&gt;Node12</title>
<path fill="none" stroke="#63b8ff" d="M374.81,-142.79C267.66,-121.23 236.89,-128.77 133.5,-107 130.75,-106.42 127.94,-105.8 125.12,-105.14"/>
<polygon fill="#63b8ff" stroke="#63b8ff" points="373.79,-146.16 384.29,-144.74 375.2,-139.3 373.79,-146.16"/>
</g>
<!-- Node8 -->
<g id="node5" class="node">
<title>Node8</title>
<g id="a_node5"><a xlink:href="d__event_8cpp.html" target="_top" xlink:title=" ">
<polygon fill="white" stroke="#666666" points="971,-24.5 850,-24.5 850,-5.5 971,-5.5 971,-24.5"/>
<text text-anchor="middle" x="910.5" y="-12.5" font-family="Helvetica,sans-Serif" font-size="10.00">src/d/event/d_event.cpp</text>
</a>
</g>
</g>
<!-- Node4&#45;&gt;Node8 -->
<g id="edge4" class="edge">
<title>Node4&#45;&gt;Node8</title>
<path fill="none" stroke="#63b8ff" d="M227.17,-72.91C235.65,-70.19 244.82,-67.65 253.5,-66 510.72,-17.15 581.91,-64.11 841.5,-30 851.2,-28.73 861.57,-26.88 871.25,-24.95"/>
<polygon fill="#63b8ff" stroke="#63b8ff" points="226.29,-69.51 217.94,-76.03 228.54,-76.14 226.29,-69.51"/>
</g>
<!-- Node11 -->
<g id="node6" class="node">
<title>Node11</title>
<g id="a_node6"><a xlink:href="f__op__actor_8cpp.html" target="_top" xlink:title=" ">
<polygon fill="white" stroke="#666666" points="832,-24.5 713,-24.5 713,-5.5 832,-5.5 832,-24.5"/>
<text text-anchor="middle" x="772.5" y="-12.5" font-family="Helvetica,sans-Serif" font-size="10.00">src/f_op/f_op_actor.cpp</text>
</a>
</g>
</g>
<!-- Node4&#45;&gt;Node11 -->
<g id="edge5" class="edge">
<title>Node4&#45;&gt;Node11</title>
<path fill="none" stroke="#63b8ff" d="M227.93,-72.89C236.21,-70.25 245.1,-67.75 253.5,-66 417.45,-31.89 615.48,-20.97 712.71,-17.53"/>
<polygon fill="#63b8ff" stroke="#63b8ff" points="226.93,-69.54 218.55,-76.02 229.15,-76.17 226.93,-69.54"/>
</g>
<!-- Node15 -->
<g id="node10" class="node">
<title>Node15</title>
<g id="a_node10"><a xlink:href="c__damagereaction_8cpp.html" target="_top" xlink:title=" ">
<polygon fill="white" stroke="#666666" points="790,-96 651,-96 651,-77 790,-77 790,-96"/>
<text text-anchor="middle" x="720.5" y="-84" font-family="Helvetica,sans-Serif" font-size="10.00">src/c/c_damagereaction.cpp</text>
</a>
</g>
</g>
<!-- Node14&#45;&gt;Node15 -->
<g id="edge9" class="edge">
<title>Node14&#45;&gt;Node15</title>
<path fill="none" stroke="#63b8ff" d="M173.97,-150.88C186.34,-147.92 199.89,-145.02 212.5,-143 401.88,-112.73 453.3,-138.36 642.5,-107 658.2,-104.4 675.38,-100.25 689.62,-96.44"/>
<polygon fill="#63b8ff" stroke="#63b8ff" points="173.34,-147.43 164.46,-153.22 175.01,-154.23 173.34,-147.43"/>
</g>
<!-- Node17 -->
<g id="node12" class="node">
<title>Node17</title>
<g id="a_node12"><a xlink:href="d__a__alink_8h.html" target="_top" xlink:title=" ">
<polygon fill="white" stroke="#666666" points="1244.5,-96 1128.5,-96 1128.5,-77 1244.5,-77 1244.5,-96"/>
<text text-anchor="middle" x="1186.5" y="-84" font-family="Helvetica,sans-Serif" font-size="10.00">include/d/a/d_a_alink.h</text>
</a>
</g>
</g>
<!-- Node16&#45;&gt;Node17 -->
<g id="edge11" class="edge">
<title>Node16&#45;&gt;Node17</title>
<path fill="none" stroke="#63b8ff" d="M804.21,-215.95C898.32,-184.33 1089.72,-120.02 1159.92,-96.43"/>
<polygon fill="#63b8ff" stroke="#63b8ff" points="803.3,-212.57 794.93,-219.07 805.53,-219.2 803.3,-212.57"/>
</g>
<!-- Node24 -->
<g id="node19" class="node">
<title>Node24</title>
<g id="a_node19"><a xlink:href="d__a__item__static_8h.html" target="_top" xlink:title=" ">
<polygon fill="white" stroke="#666666" points="636,-178.5 529,-178.5 529,-148.5 636,-148.5 636,-178.5"/>
<text text-anchor="start" x="537" y="-166.5" font-family="Helvetica,sans-Serif" font-size="10.00">include/d/a/d_a_item</text>
<text text-anchor="middle" x="582.5" y="-155.5" font-family="Helvetica,sans-Serif" font-size="10.00">_static.h</text>
</a>
</g>
</g>
<!-- Node16&#45;&gt;Node24 -->
<g id="edge20" class="edge">
<title>Node16&#45;&gt;Node24</title>
<path fill="none" stroke="#63b8ff" d="M705.1,-215.22C677.47,-203.79 642.71,-189.41 617.27,-178.88"/>
<polygon fill="#63b8ff" stroke="#63b8ff" points="703.71,-218.43 714.29,-219.02 706.39,-211.96 703.71,-218.43"/>
</g>
<!-- Node29 -->
<g id="node23" class="node">
<title>Node29</title>
<g id="a_node23"><a xlink:href="d__com__inf__game_8h.html" target="_top" xlink:title=" ">
<polygon fill="#fff0f0" stroke="red" points="2376.5,-178.5 2266.5,-178.5 2266.5,-148.5 2376.5,-148.5 2376.5,-178.5"/>
<text text-anchor="start" x="2274.5" y="-166.5" font-family="Helvetica,sans-Serif" font-size="10.00">include/d/com/d_com</text>
<text text-anchor="middle" x="2321.5" y="-155.5" font-family="Helvetica,sans-Serif" font-size="10.00">_inf_game.h</text>
</a>
</g>
</g>
<!-- Node16&#45;&gt;Node29 -->
<g id="edge24" class="edge">
<title>Node16&#45;&gt;Node29</title>
<path fill="none" stroke="#63b8ff" d="M806.97,-219.92C1117.62,-177.3 2031.37,-166.93 2266.07,-164.92"/>
<polygon fill="#63b8ff" stroke="#63b8ff" points="806.63,-216.43 797.23,-221.3 807.62,-223.36 806.63,-216.43"/>
</g>
<!-- Node187 -->
<g id="node44" class="node">
<title>Node187</title>
<g id="a_node44"><a xlink:href="d__particle_8cpp.html" target="_top" xlink:title=" ">
<polygon fill="white" stroke="#666666" points="944.5,-96 808.5,-96 808.5,-77 944.5,-77 944.5,-96"/>
<text text-anchor="middle" x="876.5" y="-84" font-family="Helvetica,sans-Serif" font-size="10.00">src/d/particle/d_particle.cpp</text>
</a>
</g>
</g>
<!-- Node16&#45;&gt;Node187 -->
<g id="edge58" class="edge">
<title>Node16&#45;&gt;Node187</title>
<path fill="none" stroke="#63b8ff" d="M779.15,-212.81C789.59,-204.42 801.12,-194.32 810.5,-184 837.13,-154.72 861.48,-114.05 871.58,-96.34"/>
<polygon fill="#63b8ff" stroke="#63b8ff" points="777.25,-209.85 771.53,-218.77 781.56,-215.36 777.25,-209.85"/>
</g>
<!-- Node203 -->
<g id="node45" class="node">
<title>Node203</title>
<g id="a_node45"><a xlink:href="d__a__arrow_8h.html" target="_top" xlink:title=" ">
<polygon fill="white" stroke="#666666" points="801,-178.5 700,-178.5 700,-148.5 801,-148.5 801,-178.5"/>
<text text-anchor="start" x="708" y="-166.5" font-family="Helvetica,sans-Serif" font-size="10.00">include/rel/d/a/d_a</text>
<text text-anchor="middle" x="750.5" y="-155.5" font-family="Helvetica,sans-Serif" font-size="10.00">_arrow/d_a_arrow.h</text>
</a>
</g>
</g>
<!-- Node16&#45;&gt;Node203 -->
<g id="edge57" class="edge">
<title>Node16&#45;&gt;Node203</title>
<path fill="none" stroke="#63b8ff" d="M750.5,-208.26C750.5,-198.33 750.5,-187.36 750.5,-178.88"/>
<polygon fill="#63b8ff" stroke="#63b8ff" points="747,-208.09 750.5,-218.09 754,-208.09 747,-208.09"/>
</g>
<!-- Node17&#45;&gt;Node8 -->
<g id="edge16" class="edge">
<title>Node17&#45;&gt;Node8</title>
<path fill="none" stroke="#63b8ff" d="M1146.14,-73.41C1137.38,-70.88 1128.15,-68.29 1119.5,-66 1060.9,-50.47 992.48,-34.51 950.32,-24.92"/>
<polygon fill="#63b8ff" stroke="#63b8ff" points="1144.87,-76.69 1155.45,-76.13 1146.83,-69.97 1144.87,-76.69"/>
</g>
<!-- Node17&#45;&gt;Node11 -->
<g id="edge19" class="edge">
<title>Node17&#45;&gt;Node11</title>
<path fill="none" stroke="#63b8ff" d="M1148.36,-73.3C1138.99,-70.61 1128.94,-67.97 1119.5,-66 997.55,-40.52 964.41,-50.4 841.5,-30 832.7,-28.54 823.3,-26.77 814.37,-24.99"/>
<polygon fill="#63b8ff" stroke="#63b8ff" points="1147.32,-76.64 1157.91,-76.13 1149.32,-69.93 1147.32,-76.64"/>
</g>
<!-- Node18 -->
<g id="node13" class="node">
<title>Node18</title>
<g id="a_node13"><a xlink:href="d__a__alink_8cpp.html" target="_top" xlink:title=" ">
<polygon fill="white" stroke="#666666" points="1378,-24.5 1269,-24.5 1269,-5.5 1378,-5.5 1378,-24.5"/>
<text text-anchor="middle" x="1323.5" y="-12.5" font-family="Helvetica,sans-Serif" font-size="10.00">src/d/a/d_a_alink.cpp</text>
</a>
</g>
</g>
<!-- Node17&#45;&gt;Node18 -->
<g id="edge12" class="edge">
<title>Node17&#45;&gt;Node18</title>
<path fill="none" stroke="#63b8ff" d="M1214.25,-71.42C1241.66,-57.52 1282.75,-36.67 1305.94,-24.91"/>
<polygon fill="#63b8ff" stroke="#63b8ff" points="1212.81,-68.23 1205.48,-75.87 1215.98,-74.47 1212.81,-68.23"/>
</g>
<!-- Node19 -->
<g id="node14" class="node">
<title>Node19</title>
<g id="a_node14"><a xlink:href="d__a__player_8cpp.html" target="_top" xlink:title=" ">
<polygon fill="white" stroke="#666666" points="1794.5,-24.5 1680.5,-24.5 1680.5,-5.5 1794.5,-5.5 1794.5,-24.5"/>
<text text-anchor="middle" x="1737.5" y="-12.5" font-family="Helvetica,sans-Serif" font-size="10.00">src/d/a/d_a_player.cpp</text>
</a>
</g>
</g>
<!-- Node17&#45;&gt;Node19 -->
<g id="edge13" class="edge">
<title>Node17&#45;&gt;Node19</title>
<path fill="none" stroke="#63b8ff" d="M1224.04,-73.28C1233.57,-70.54 1243.84,-67.89 1253.5,-66 1405.84,-36.22 1588.84,-23.43 1680.01,-18.58"/>
<polygon fill="#63b8ff" stroke="#63b8ff" points="1223.31,-69.85 1214.74,-76.07 1225.32,-76.55 1223.31,-69.85"/>
</g>
<!-- Node20 -->
<g id="node15" class="node">
<title>Node20</title>
<g id="a_node15"><a xlink:href="d__com__inf__game_8cpp.html" target="_top" xlink:title=" ">
<polygon fill="white" stroke="#666666" points="2565.5,-30 2457.5,-30 2457.5,0 2565.5,0 2565.5,-30"/>
<text text-anchor="start" x="2465.5" y="-18" font-family="Helvetica,sans-Serif" font-size="10.00">src/d/com/d_com_inf</text>
<text text-anchor="middle" x="2511.5" y="-7" font-family="Helvetica,sans-Serif" font-size="10.00">_game.cpp</text>
</a>
</g>
</g>
<!-- Node17&#45;&gt;Node20 -->
<g id="edge14" class="edge">
<title>Node17&#45;&gt;Node20</title>
<path fill="none" stroke="#63b8ff" d="M1222.64,-73.24C1232.53,-70.36 1243.34,-67.66 1253.5,-66 1373.23,-46.5 2231.34,-23.22 2457.16,-17.38"/>
<polygon fill="#63b8ff" stroke="#63b8ff" points="1221.92,-69.8 1213.38,-76.07 1223.97,-76.49 1221.92,-69.8"/>
</g>
<!-- Node21 -->
<g id="node16" class="node">
<title>Node21</title>
<g id="a_node16"><a xlink:href="d__camera_8cpp.html" target="_top" xlink:title=" ">
<polygon fill="white" stroke="#666666" points="3008.5,-24.5 2906.5,-24.5 2906.5,-5.5 3008.5,-5.5 3008.5,-24.5"/>
<text text-anchor="middle" x="2957.5" y="-12.5" font-family="Helvetica,sans-Serif" font-size="10.00">src/d/d_camera.cpp</text>
</a>
</g>
</g>
<!-- Node17&#45;&gt;Node21 -->
<g id="edge15" class="edge">
<title>Node17&#45;&gt;Node21</title>
<path fill="none" stroke="#63b8ff" d="M1222.37,-73.23C1232.34,-70.32 1243.24,-67.61 1253.5,-66 1543.63,-20.6 2280.98,-39.36 2574.5,-30 2693.21,-26.21 2832.58,-20.9 2906.09,-18.03"/>
<polygon fill="#63b8ff" stroke="#63b8ff" points="1221.58,-69.81 1213.05,-76.09 1223.64,-76.5 1221.58,-69.81"/>
</g>
<!-- Node22 -->
<g id="node17" class="node">
<title>Node22</title>
<g id="a_node17"><a xlink:href="d__meter2__draw_8cpp.html" target="_top" xlink:title=" ">
<polygon fill="white" stroke="#666666" points="1250.5,-30 1140.5,-30 1140.5,0 1250.5,0 1250.5,-30"/>
<text text-anchor="start" x="1148.5" y="-18" font-family="Helvetica,sans-Serif" font-size="10.00">src/d/meter/d_meter2</text>
<text text-anchor="middle" x="1195.5" y="-7" font-family="Helvetica,sans-Serif" font-size="10.00">_draw.cpp</text>
</a>
</g>
</g>
<!-- Node17&#45;&gt;Node22 -->
<g id="edge17" class="edge">
<title>Node17&#45;&gt;Node22</title>
<path fill="none" stroke="#63b8ff" d="M1189.1,-65.39C1190.56,-54.15 1192.34,-40.41 1193.65,-30.27"/>
<polygon fill="#63b8ff" stroke="#63b8ff" points="1185.65,-64.83 1187.83,-75.2 1192.59,-65.73 1185.65,-64.83"/>
</g>
<!-- Node23 -->
<g id="node18" class="node">
<title>Node23</title>
<g id="a_node18"><a xlink:href="d__msg__flow_8cpp.html" target="_top" xlink:title=" ">
<polygon fill="white" stroke="#666666" points="1122,-24.5 989,-24.5 989,-5.5 1122,-5.5 1122,-24.5"/>
<text text-anchor="middle" x="1055.5" y="-12.5" font-family="Helvetica,sans-Serif" font-size="10.00">src/d/msg/d_msg_flow.cpp</text>
</a>
</g>
</g>
<!-- Node17&#45;&gt;Node23 -->
<g id="edge18" class="edge">
<title>Node17&#45;&gt;Node23</title>
<path fill="none" stroke="#63b8ff" d="M1159.62,-71.24C1133.41,-57.33 1094.37,-36.62 1072.29,-24.91"/>
<polygon fill="#63b8ff" stroke="#63b8ff" points="1157.83,-74.25 1168.31,-75.85 1161.11,-68.07 1157.83,-74.25"/>
</g>
<!-- Node25 -->
<g id="node20" class="node">
<title>Node25</title>
<g id="a_node20"><a xlink:href="d__a__obj__item_8h.html" target="_top" xlink:title=" ">
<polygon fill="#fff0f0" stroke="red" points="633,-101.5 532,-101.5 532,-71.5 633,-71.5 633,-101.5"/>
<text text-anchor="start" x="540" y="-89.5" font-family="Helvetica,sans-Serif" font-size="10.00">include/d/a/d_a_obj</text>
<text text-anchor="middle" x="582.5" y="-78.5" font-family="Helvetica,sans-Serif" font-size="10.00">_item.h</text>
</a>
</g>
</g>
<!-- Node24&#45;&gt;Node25 -->
<g id="edge21" class="edge">
<title>Node24&#45;&gt;Node25</title>
<path fill="none" stroke="#63b8ff" d="M582.5,-136.73C582.5,-125.08 582.5,-111.76 582.5,-101.92"/>
<polygon fill="#63b8ff" stroke="#63b8ff" points="579,-136.53 582.5,-146.53 586,-136.53 579,-136.53"/>
</g>
<!-- Node27 -->
<g id="node21" class="node">
<title>Node27</title>
<g id="a_node21"><a xlink:href="d__a__do_8h.html" target="_top" xlink:title=" ">
<polygon fill="white" stroke="#666666" points="358.5,-101.5 262.5,-101.5 262.5,-71.5 358.5,-71.5 358.5,-101.5"/>
<text text-anchor="start" x="270.5" y="-89.5" font-family="Helvetica,sans-Serif" font-size="10.00">include/rel/d/a/d_a</text>
<text text-anchor="middle" x="310.5" y="-78.5" font-family="Helvetica,sans-Serif" font-size="10.00">_do/d_a_do.h</text>
</a>
</g>
</g>
<!-- Node24&#45;&gt;Node27 -->
<g id="edge22" class="edge">
<title>Node24&#45;&gt;Node27</title>
<path fill="none" stroke="#63b8ff" d="M526.96,-144.82C524.78,-144.19 522.62,-143.58 520.5,-143 453.57,-124.57 435.25,-126.08 368.5,-107 363.09,-105.45 357.43,-103.71 351.86,-101.92"/>
<polygon fill="#63b8ff" stroke="#63b8ff" points="525.88,-148.15 536.46,-147.62 527.86,-141.44 525.88,-148.15"/>
</g>
<!-- Node28 -->
<g id="node22" class="node">
<title>Node28</title>
<g id="a_node22"><a xlink:href="d__a__item__static_8cpp.html" target="_top" xlink:title=" ">
<polygon fill="white" stroke="#666666" points="514,-96 377,-96 377,-77 514,-77 514,-96"/>
<text text-anchor="middle" x="445.5" y="-84" font-family="Helvetica,sans-Serif" font-size="10.00">src/d/a/d_a_item_static.cpp</text>
</a>
</g>
</g>
<!-- Node24&#45;&gt;Node28 -->
<g id="edge23" class="edge">
<title>Node24&#45;&gt;Node28</title>
<path fill="none" stroke="#63b8ff" d="M546.03,-142.54C518.54,-127.49 482.16,-107.57 461.55,-96.29"/>
<polygon fill="#63b8ff" stroke="#63b8ff" points="544.31,-145.58 554.76,-147.31 547.67,-139.44 544.31,-145.58"/>
</g>
<!-- Node29&#45;&gt;Node11 -->
<g id="edge56" class="edge">
<title>Node29&#45;&gt;Node11</title>
<path fill="none" stroke="#63b8ff" d="M2255.13,-162.68C2002.12,-162.96 1106.64,-160.16 991.5,-107 968.94,-96.59 974.73,-78.91 953.5,-66 930.38,-51.94 861.14,-35.09 815.31,-24.98"/>
<polygon fill="#63b8ff" stroke="#63b8ff" points="2254.82,-166.18 2264.82,-162.67 2254.81,-159.18 2254.82,-166.18"/>
</g>
<!-- Node29&#45;&gt;Node15 -->
<g id="edge52" class="edge">
<title>Node29&#45;&gt;Node15</title>
<path fill="none" stroke="#63b8ff" d="M2255.03,-161.89C2000.39,-159.29 1086.89,-147.27 799.5,-107 783.13,-104.71 765.22,-100.44 750.6,-96.48"/>
<polygon fill="#63b8ff" stroke="#63b8ff" points="2254.76,-165.39 2264.79,-161.99 2254.83,-158.39 2254.76,-165.39"/>
</g>
<!-- Node29&#45;&gt;Node20 -->
<g id="edge53" class="edge">
<title>Node29&#45;&gt;Node20</title>
<path fill="none" stroke="#63b8ff" d="M2387.83,-162.25C2554.39,-160.93 2979.96,-153.05 3022.5,-107 3034.87,-93.62 3034.74,-79.5 3022.5,-66 2992.22,-32.61 2690.84,-20.77 2565.62,-17.27"/>
<polygon fill="#63b8ff" stroke="#63b8ff" points="2388.26,-158.75 2378.29,-162.32 2388.31,-165.75 2388.26,-158.75"/>
</g>
<!-- Node29&#45;&gt;Node21 -->
<g id="edge54" class="edge">
<title>Node29&#45;&gt;Node21</title>
<path fill="none" stroke="#63b8ff" d="M2388.02,-162.39C2557.75,-161.42 2996.69,-154.32 3040.5,-107 3052.88,-93.63 3049.46,-81.86 3040.5,-66 3028.91,-45.5 3005.18,-32.46 2986.04,-24.86"/>
<polygon fill="#63b8ff" stroke="#63b8ff" points="2388.25,-158.89 2378.26,-162.44 2388.28,-165.89 2388.25,-158.89"/>
</g>
<!-- Node30 -->
<g id="node24" class="node">
<title>Node30</title>
<g id="a_node24"><a xlink:href="d__a__npc_8h.html" target="_top" xlink:title=" ">
<polygon fill="#fff0f0" stroke="red" points="3257,-96 3146,-96 3146,-77 3257,-77 3257,-96"/>
<text text-anchor="middle" x="3201.5" y="-84" font-family="Helvetica,sans-Serif" font-size="10.00">include/d/a/d_a_npc.h</text>
</a>
</g>
</g>
<!-- Node29&#45;&gt;Node30 -->
<g id="edge25" class="edge">
<title>Node29&#45;&gt;Node30</title>
<path fill="none" stroke="#63b8ff" d="M2388.24,-162.5C2527.45,-161.49 2858.55,-153.87 3131.5,-107 3145.8,-104.54 3161.38,-100.36 3174.2,-96.5"/>
<polygon fill="#63b8ff" stroke="#63b8ff" points="2388.45,-158.99 2378.47,-162.56 2388.49,-165.99 2388.45,-158.99"/>
</g>
<!-- Node36 -->
<g id="node25" class="node">
<title>Node36</title>
<g id="a_node25"><a xlink:href="d__a__npc__cd_8h.html" target="_top" xlink:title=" ">
<polygon fill="#fff0f0" stroke="red" points="3402,-96 3275,-96 3275,-77 3402,-77 3402,-96"/>
<text text-anchor="middle" x="3338.5" y="-84" font-family="Helvetica,sans-Serif" font-size="10.00">include/d/a/d_a_npc_cd.h</text>
</a>
</g>
</g>
<!-- Node29&#45;&gt;Node36 -->
<g id="edge26" class="edge">
<title>Node29&#45;&gt;Node36</title>
<path fill="none" stroke="#63b8ff" d="M2387.97,-163.27C2543,-164.06 2940.12,-160.2 3266.5,-107 3281.33,-104.58 3297.5,-100.35 3310.76,-96.45"/>
<polygon fill="#63b8ff" stroke="#63b8ff" points="2388.33,-159.77 2378.31,-163.21 2388.28,-166.77 2388.33,-159.77"/>
</g>
<!-- Node38 -->
<g id="node26" class="node">
<title>Node38</title>
<g id="a_node26"><a xlink:href="d__a__npc__cd2_8h.html" target="_top" xlink:title=" ">
<polygon fill="#fff0f0" stroke="red" points="3291.5,-30 3187.5,-30 3187.5,0 3291.5,0 3291.5,-30"/>
<text text-anchor="start" x="3195.5" y="-18" font-family="Helvetica,sans-Serif" font-size="10.00">include/d/a/d_a_npc</text>
<text text-anchor="middle" x="3239.5" y="-7" font-family="Helvetica,sans-Serif" font-size="10.00">_cd2.h</text>
</a>
</g>
</g>
<!-- Node29&#45;&gt;Node38 -->
<g id="edge27" class="edge">
<title>Node29&#45;&gt;Node38</title>
<path fill="none" stroke="#63b8ff" d="M2388.11,-160.9C2544.91,-156.58 2933.5,-142.53 3058.5,-107 3096.55,-96.18 3102.18,-83.82 3137.5,-66 3161.62,-53.83 3189.14,-40.37 3209.51,-30.48"/>
<polygon fill="#63b8ff" stroke="#63b8ff" points="2388.19,-157.4 2378.29,-161.16 2388.38,-164.39 2388.19,-157.4"/>
</g>
<!-- Node40 -->
<g id="node27" class="node">
<title>Node40</title>
<g id="a_node27"><a xlink:href="d__cc__uty_8h.html" target="_top" xlink:title=" ">
<polygon fill="#fff0f0" stroke="red" points="3664,-96 3545,-96 3545,-77 3664,-77 3664,-96"/>
<text text-anchor="middle" x="3604.5" y="-84" font-family="Helvetica,sans-Serif" font-size="10.00">include/d/cc/d_cc_uty.h</text>
</a>
</g>
</g>
<!-- Node29&#45;&gt;Node40 -->
<g id="edge28" class="edge">
<title>Node29&#45;&gt;Node40</title>
<path fill="none" stroke="#63b8ff" d="M2388.07,-161.51C2608.39,-157.89 3312.59,-143.7 3536.5,-107 3550.68,-104.68 3566.1,-100.4 3578.67,-96.45"/>
<polygon fill="#63b8ff" stroke="#63b8ff" points="2388.17,-158 2378.22,-161.66 2388.28,-165 2388.17,-158"/>
</g>
<!-- Node50 -->
<g id="node28" class="node">
<title>Node50</title>
<g id="a_node28"><a xlink:href="d__bright__check_8h.html" target="_top" xlink:title=" ">
<polygon fill="#fff0f0" stroke="red" points="3775,-101.5 3682,-101.5 3682,-71.5 3775,-71.5 3775,-101.5"/>
<text text-anchor="start" x="3690" y="-89.5" font-family="Helvetica,sans-Serif" font-size="10.00">include/d/d_bright</text>
<text text-anchor="middle" x="3728.5" y="-78.5" font-family="Helvetica,sans-Serif" font-size="10.00">_check.h</text>
</a>
</g>
</g>
<!-- Node29&#45;&gt;Node50 -->
<g id="edge29" class="edge">
<title>Node29&#45;&gt;Node50</title>
<path fill="none" stroke="#63b8ff" d="M2388.37,-162.4C2625.18,-161.62 3423.14,-155.38 3673.5,-107 3679.77,-105.79 3686.28,-103.99 3692.54,-101.97"/>
<polygon fill="#63b8ff" stroke="#63b8ff" points="2388.36,-158.9 2378.38,-162.43 2388.39,-165.9 2388.36,-158.9"/>
</g>
<!-- Node52 -->
<g id="node29" class="node">
<title>Node52</title>
<g id="a_node29"><a xlink:href="d__error__msg_8h.html" target="_top" xlink:title=" ">
<polygon fill="#fff0f0" stroke="red" points="1382.5,-96 1262.5,-96 1262.5,-77 1382.5,-77 1382.5,-96"/>
<text text-anchor="middle" x="1322.5" y="-84" font-family="Helvetica,sans-Serif" font-size="10.00">include/d/d_error_msg.h</text>
</a>
</g>
</g>
<!-- Node29&#45;&gt;Node52 -->
<g id="edge30" class="edge">
<title>Node29&#45;&gt;Node52</title>
<path fill="none" stroke="#63b8ff" d="M2254.9,-160.39C2070.84,-154.28 1557.88,-135.13 1391.5,-107 1377.26,-104.59 1361.76,-100.36 1349.06,-96.46"/>
<polygon fill="#63b8ff" stroke="#63b8ff" points="2254.66,-163.89 2264.77,-160.72 2254.89,-156.89 2254.66,-163.89"/>
</g>
<!-- Node55 -->
<g id="node30" class="node">
<title>Node55</title>
<g id="a_node30"><a xlink:href="d__npc__lib_8h.html" target="_top" xlink:title=" ">
<polygon fill="#fff0f0" stroke="red" points="3527,-96 3420,-96 3420,-77 3527,-77 3527,-96"/>
<text text-anchor="middle" x="3473.5" y="-84" font-family="Helvetica,sans-Serif" font-size="10.00">include/d/d_npc_lib.h</text>
</a>
</g>
</g>
<!-- Node29&#45;&gt;Node55 -->
<g id="edge31" class="edge">
<title>Node29&#45;&gt;Node55</title>
<path fill="none" stroke="#63b8ff" d="M2388.41,-161.31C2593.83,-157.32 3213.46,-142.59 3411.5,-107 3424.49,-104.67 3438.56,-100.39 3450.01,-96.44"/>
<polygon fill="#63b8ff" stroke="#63b8ff" points="2388.37,-157.81 2378.44,-161.51 2388.5,-164.81 2388.37,-157.81"/>
</g>
<!-- Node57 -->
<g id="node31" class="node">
<title>Node57</title>
<g id="a_node31"><a xlink:href="d__file__select_8h.html" target="_top" xlink:title=" ">
<polygon fill="#fff0f0" stroke="red" points="1496.5,-101.5 1400.5,-101.5 1400.5,-71.5 1496.5,-71.5 1496.5,-101.5"/>
<text text-anchor="start" x="1408.5" y="-89.5" font-family="Helvetica,sans-Serif" font-size="10.00">include/d/file/d_file</text>
<text text-anchor="middle" x="1448.5" y="-78.5" font-family="Helvetica,sans-Serif" font-size="10.00">_select.h</text>
</a>
</g>
</g>
<!-- Node29&#45;&gt;Node57 -->
<g id="edge33" class="edge">
<title>Node29&#45;&gt;Node57</title>
<path fill="none" stroke="#63b8ff" d="M2254.68,-160.21C2086.38,-154.07 1648.3,-135.76 1505.5,-107 1499.14,-105.72 1492.52,-103.92 1486.14,-101.92"/>
<polygon fill="#63b8ff" stroke="#63b8ff" points="2254.45,-163.7 2264.57,-160.57 2254.71,-156.71 2254.45,-163.7"/>
</g>
<!-- Node59 -->
<g id="node32" class="node">
<title>Node59</title>
<g id="a_node32"><a xlink:href="d__msg__object_8h.html" target="_top" xlink:title=" ">
<polygon fill="#fff0f0" stroke="red" points="1110.5,-101.5 1000.5,-101.5 1000.5,-71.5 1110.5,-71.5 1110.5,-101.5"/>
<text text-anchor="start" x="1008.5" y="-89.5" font-family="Helvetica,sans-Serif" font-size="10.00">include/d/msg/d_msg</text>
<text text-anchor="middle" x="1055.5" y="-78.5" font-family="Helvetica,sans-Serif" font-size="10.00">_object.h</text>
</a>
</g>
</g>
<!-- Node29&#45;&gt;Node59 -->
<g id="edge34" class="edge">
<title>Node29&#45;&gt;Node59</title>
<path fill="none" stroke="#63b8ff" d="M2254.87,-161.61C2035.99,-158.34 1340.45,-145.14 1119.5,-107 1112.29,-105.76 1104.75,-103.94 1097.48,-101.92"/>
<polygon fill="#63b8ff" stroke="#63b8ff" points="2254.59,-165.11 2264.64,-161.75 2254.7,-158.11 2254.59,-165.11"/>
</g>
<!-- Node76 -->
<g id="node33" class="node">
<title>Node76</title>
<g id="a_node33"><a xlink:href="d__a__andsw_8h.html" target="_top" xlink:title=" ">
<polygon fill="white" stroke="#666666" points="1624.5,-101.5 1514.5,-101.5 1514.5,-71.5 1624.5,-71.5 1624.5,-101.5"/>
<text text-anchor="start" x="1522.5" y="-89.5" font-family="Helvetica,sans-Serif" font-size="10.00">include/rel/d/a/d_a</text>
<text text-anchor="middle" x="1569.5" y="-78.5" font-family="Helvetica,sans-Serif" font-size="10.00">_andsw/d_a_andsw.h</text>
</a>
</g>
</g>
<!-- Node29&#45;&gt;Node76 -->
<g id="edge39" class="edge">
<title>Node29&#45;&gt;Node76</title>
<path fill="none" stroke="#63b8ff" d="M2254.73,-161.76C2131.22,-159.37 1859.21,-149.29 1634.5,-107 1627.55,-105.69 1620.29,-103.93 1613.25,-101.99"/>
<polygon fill="#63b8ff" stroke="#63b8ff" points="2254.63,-165.26 2264.7,-161.94 2254.76,-158.26 2254.63,-165.26"/>
</g>
<!-- Node77 -->
<g id="node34" class="node">
<title>Node77</title>
<g id="a_node34"><a xlink:href="d__a__cstaF_8h.html" target="_top" xlink:title=" ">
<polygon fill="white" stroke="#666666" points="1746,-101.5 1643,-101.5 1643,-71.5 1746,-71.5 1746,-101.5"/>
<text text-anchor="start" x="1651" y="-89.5" font-family="Helvetica,sans-Serif" font-size="10.00">include/rel/d/a/d_a</text>
<text text-anchor="middle" x="1694.5" y="-78.5" font-family="Helvetica,sans-Serif" font-size="10.00">_cstaF/d_a_cstaF.h</text>
</a>
</g>
</g>
<!-- Node29&#45;&gt;Node77 -->
<g id="edge40" class="edge">
<title>Node29&#45;&gt;Node77</title>
<path fill="none" stroke="#63b8ff" d="M2255.09,-160.53C2148.64,-156.37 1933.7,-143.79 1755.5,-107 1748.97,-105.65 1742.15,-103.86 1735.53,-101.92"/>
<polygon fill="#63b8ff" stroke="#63b8ff" points="2254.64,-164.02 2264.77,-160.9 2254.91,-157.03 2254.64,-164.02"/>
</g>
<!-- Node78 -->
<g id="node35" class="node">
<title>Node78</title>
<g id="a_node35"><a xlink:href="d__a__dmidna_8h.html" target="_top" xlink:title=" ">
<polygon fill="white" stroke="#666666" points="1880.5,-101.5 1764.5,-101.5 1764.5,-71.5 1880.5,-71.5 1880.5,-101.5"/>
<text text-anchor="start" x="1772.5" y="-89.5" font-family="Helvetica,sans-Serif" font-size="10.00">include/rel/d/a/d_a</text>
<text text-anchor="middle" x="1822.5" y="-78.5" font-family="Helvetica,sans-Serif" font-size="10.00">_dmidna/d_a_dmidna.h</text>
</a>
</g>
</g>
<!-- Node29&#45;&gt;Node78 -->
<g id="edge41" class="edge">
<title>Node29&#45;&gt;Node78</title>
<path fill="none" stroke="#63b8ff" d="M2254.81,-157.17C2169.49,-149.62 2017.42,-133.66 1889.5,-107 1882.74,-105.59 1875.67,-103.84 1868.76,-101.98"/>
<polygon fill="#63b8ff" stroke="#63b8ff" points="2254.37,-160.65 2264.64,-158.03 2254.98,-153.67 2254.37,-160.65"/>
</g>
<!-- Node79 -->
<g id="node36" class="node">
<title>Node79</title>
<g id="a_node36"><a xlink:href="d__a__dshutter_8h.html" target="_top" xlink:title=" ">
<polygon fill="#fff0f0" stroke="red" points="2022.5,-101.5 1898.5,-101.5 1898.5,-71.5 2022.5,-71.5 2022.5,-101.5"/>
<text text-anchor="start" x="1906.5" y="-89.5" font-family="Helvetica,sans-Serif" font-size="10.00">include/rel/d/a/d_a</text>
<text text-anchor="middle" x="1960.5" y="-78.5" font-family="Helvetica,sans-Serif" font-size="10.00">_dshutter/d_a_dshutter.h</text>
</a>
</g>
</g>
<!-- Node29&#45;&gt;Node79 -->
<g id="edge42" class="edge">
<title>Node29&#45;&gt;Node79</title>
<path fill="none" stroke="#63b8ff" d="M2255.12,-151.21C2196.35,-140.86 2108.38,-124.53 2032.5,-107 2025.81,-105.45 2018.81,-103.71 2011.9,-101.92"/>
<polygon fill="#63b8ff" stroke="#63b8ff" points="2254.16,-154.59 2264.62,-152.87 2255.37,-147.7 2254.16,-154.59"/>
</g>
<!-- Node80 -->
<g id="node37" class="node">
<title>Node80</title>
<g id="a_node37"><a xlink:href="d__a__guard__mng_8h.html" target="_top" xlink:title=" ">
<polygon fill="white" stroke="#666666" points="2190,-101.5 2041,-101.5 2041,-71.5 2190,-71.5 2190,-101.5"/>
<text text-anchor="start" x="2049" y="-89.5" font-family="Helvetica,sans-Serif" font-size="10.00">include/rel/d/a/d_a</text>
<text text-anchor="middle" x="2115.5" y="-78.5" font-family="Helvetica,sans-Serif" font-size="10.00">_guard_mng/d_a_guard_mng.h</text>
</a>
</g>
</g>
<!-- Node29&#45;&gt;Node80 -->
<g id="edge43" class="edge">
<title>Node29&#45;&gt;Node80</title>
<path fill="none" stroke="#63b8ff" d="M2271.09,-144.15C2235.37,-131.14 2188.12,-113.94 2155.1,-101.92"/>
<polygon fill="#63b8ff" stroke="#63b8ff" points="2269.76,-147.39 2280.36,-147.52 2272.16,-140.81 2269.76,-147.39"/>
</g>
<!-- Node81 -->
<g id="node38" class="node">
<title>Node81</title>
<g id="a_node38"><a xlink:href="d__a__hitobj_8h.html" target="_top" xlink:title=" ">
<polygon fill="white" stroke="#666666" points="2308.5,-101.5 2208.5,-101.5 2208.5,-71.5 2308.5,-71.5 2308.5,-101.5"/>
<text text-anchor="start" x="2216.5" y="-89.5" font-family="Helvetica,sans-Serif" font-size="10.00">include/rel/d/a/d_a</text>
<text text-anchor="middle" x="2258.5" y="-78.5" font-family="Helvetica,sans-Serif" font-size="10.00">_hitobj/d_a_hitobj.h</text>
</a>
</g>
</g>
<!-- Node29&#45;&gt;Node81 -->
<g id="edge44" class="edge">
<title>Node29&#45;&gt;Node81</title>
<path fill="none" stroke="#63b8ff" d="M2301.99,-139.27C2291.74,-127.07 2279.49,-112.49 2270.61,-101.92"/>
<polygon fill="#63b8ff" stroke="#63b8ff" points="2299.27,-141.47 2308.38,-146.88 2304.63,-136.97 2299.27,-141.47"/>
</g>
<!-- Node82 -->
<g id="node39" class="node">
<title>Node82</title>
<g id="a_node39"><a xlink:href="d__a__izumi__gate_8h.html" target="_top" xlink:title=" ">
<polygon fill="white" stroke="#666666" points="2442,-107 2327,-107 2327,-66 2442,-66 2442,-107"/>
<text text-anchor="start" x="2335" y="-95" font-family="Helvetica,sans-Serif" font-size="10.00">include/rel/d/a/d_a</text>
<text text-anchor="start" x="2335" y="-84" font-family="Helvetica,sans-Serif" font-size="10.00">_izumi_gate/d_a_izumi</text>
<text text-anchor="middle" x="2384.5" y="-73" font-family="Helvetica,sans-Serif" font-size="10.00">_gate.h</text>
</a>
</g>
</g>
<!-- Node29&#45;&gt;Node82 -->
<g id="edge45" class="edge">
<title>Node29&#45;&gt;Node82</title>
<path fill="none" stroke="#63b8ff" d="M2340.79,-139.53C2349.45,-129.23 2359.55,-117.2 2367.87,-107.3"/>
<polygon fill="#63b8ff" stroke="#63b8ff" points="2338.37,-136.97 2334.62,-146.88 2343.73,-141.47 2338.37,-136.97"/>
</g>
<!-- Node83 -->
<g id="node40" class="node">
<title>Node83</title>
<g id="a_node40"><a xlink:href="d__a__set__bgobj_8h.html" target="_top" xlink:title=" ">
<polygon fill="#fff0f0" stroke="red" points="2597,-101.5 2460,-101.5 2460,-71.5 2597,-71.5 2597,-101.5"/>
<text text-anchor="start" x="2468" y="-89.5" font-family="Helvetica,sans-Serif" font-size="10.00">include/rel/d/a/d_a</text>
<text text-anchor="middle" x="2528.5" y="-78.5" font-family="Helvetica,sans-Serif" font-size="10.00">_set_bgobj/d_a_set_bgobj.h</text>
</a>
</g>
</g>
<!-- Node29&#45;&gt;Node83 -->
<g id="edge46" class="edge">
<title>Node29&#45;&gt;Node83</title>
<path fill="none" stroke="#63b8ff" d="M2372.15,-144.15C2408.04,-131.14 2455.53,-113.94 2488.71,-101.92"/>
<polygon fill="#63b8ff" stroke="#63b8ff" points="2371.04,-140.83 2362.83,-147.52 2373.43,-147.41 2371.04,-140.83"/>
</g>
<!-- Node84 -->
<g id="node41" class="node">
<title>Node84</title>
<g id="a_node41"><a xlink:href="d__a__skip__2D_8h.html" target="_top" xlink:title=" ">
<polygon fill="white" stroke="#666666" points="2739.5,-101.5 2615.5,-101.5 2615.5,-71.5 2739.5,-71.5 2739.5,-101.5"/>
<text text-anchor="start" x="2623.5" y="-89.5" font-family="Helvetica,sans-Serif" font-size="10.00">include/rel/d/a/d_a</text>
<text text-anchor="middle" x="2677.5" y="-78.5" font-family="Helvetica,sans-Serif" font-size="10.00">_skip_2D/d_a_skip_2D.h</text>
</a>
</g>
</g>
<!-- Node29&#45;&gt;Node84 -->
<g id="edge47" class="edge">
<title>Node29&#45;&gt;Node84</title>
<path fill="none" stroke="#63b8ff" d="M2388.14,-151C2446.09,-140.64 2532.19,-124.41 2606.5,-107 2613.1,-105.45 2620,-103.71 2626.81,-101.92"/>
<polygon fill="#63b8ff" stroke="#63b8ff" points="2387.66,-147.53 2378.42,-152.72 2388.88,-154.42 2387.66,-147.53"/>
</g>
<!-- Node85 -->
<g id="node42" class="node">
<title>Node85</title>
<g id="a_node42"><a xlink:href="d__a__spinner_8h.html" target="_top" xlink:title=" ">
<polygon fill="#fff0f0" stroke="red" points="2873.5,-101.5 2757.5,-101.5 2757.5,-71.5 2873.5,-71.5 2873.5,-101.5"/>
<text text-anchor="start" x="2765.5" y="-89.5" font-family="Helvetica,sans-Serif" font-size="10.00">include/rel/d/a/d_a</text>
<text text-anchor="middle" x="2815.5" y="-78.5" font-family="Helvetica,sans-Serif" font-size="10.00">_spinner/d_a_spinner.h</text>
</a>
</g>
</g>
<!-- Node29&#45;&gt;Node85 -->
<g id="edge48" class="edge">
<title>Node29&#45;&gt;Node85</title>
<path fill="none" stroke="#63b8ff" d="M2388.12,-157.04C2472.58,-149.39 2622.4,-133.38 2748.5,-107 2755.26,-105.59 2762.33,-103.83 2769.24,-101.97"/>
<polygon fill="#63b8ff" stroke="#63b8ff" points="2388.05,-153.54 2378.4,-157.91 2388.67,-160.51 2388.05,-153.54"/>
</g>
<!-- Node87 -->
<g id="node43" class="node">
<title>Node87</title>
<g id="a_node43"><a xlink:href="d__a__swTime_8h.html" target="_top" xlink:title=" ">
<polygon fill="white" stroke="#666666" points="3013.5,-101.5 2891.5,-101.5 2891.5,-71.5 3013.5,-71.5 3013.5,-101.5"/>
<text text-anchor="start" x="2899.5" y="-89.5" font-family="Helvetica,sans-Serif" font-size="10.00">include/rel/d/a/d_a</text>
<text text-anchor="middle" x="2952.5" y="-78.5" font-family="Helvetica,sans-Serif" font-size="10.00">_swTime/d_a_swTime.h</text>
</a>
</g>
</g>
<!-- Node29&#45;&gt;Node87 -->
<g id="edge51" class="edge">
<title>Node29&#45;&gt;Node87</title>
<path fill="none" stroke="#63b8ff" d="M2388.32,-159.63C2494.01,-154.26 2705.86,-140.08 2882.5,-107 2889.82,-105.63 2897.48,-103.86 2904.94,-101.94"/>
<polygon fill="#63b8ff" stroke="#63b8ff" points="2388.22,-156.13 2378.4,-160.13 2388.57,-163.12 2388.22,-156.13"/>
</g>
<!-- Node29&#45;&gt;Node187 -->
<g id="edge55" class="edge">
<title>Node29&#45;&gt;Node187</title>
<path fill="none" stroke="#63b8ff" d="M2255,-161.49C2017.74,-157.62 1213.42,-142.17 958.5,-107 941.54,-104.66 922.95,-100.39 907.77,-96.43"/>
<polygon fill="#63b8ff" stroke="#63b8ff" points="2254.63,-164.98 2264.68,-161.65 2254.74,-157.99 2254.63,-164.98"/>
</g>
<!-- Node55&#45;&gt;Node38 -->
<g id="edge32" class="edge">
<title>Node55&#45;&gt;Node38</title>
<path fill="none" stroke="#63b8ff" d="M3434.58,-73.12C3426.94,-70.73 3418.97,-68.26 3411.5,-66 3370.87,-53.71 3324.67,-40.31 3290.39,-30.48"/>
<polygon fill="#63b8ff" stroke="#63b8ff" points="3433.42,-76.42 3444.01,-76.08 3435.52,-69.74 3433.42,-76.42"/>
</g>
<!-- Node59&#45;&gt;Node8 -->
<g id="edge36" class="edge">
<title>Node59&#45;&gt;Node8</title>
<path fill="none" stroke="#63b8ff" d="M1015.1,-66.13C986.91,-52.62 950.61,-35.22 929.02,-24.88"/>
<polygon fill="#63b8ff" stroke="#63b8ff" points="1013.56,-69.28 1024.09,-70.45 1016.59,-62.97 1013.56,-69.28"/>
</g>
<!-- Node59&#45;&gt;Node18 -->
<g id="edge35" class="edge">
<title>Node59&#45;&gt;Node18</title>
<path fill="none" stroke="#63b8ff" d="M1112.7,-67.9C1115,-67.25 1117.27,-66.61 1119.5,-66 1176.46,-50.35 1243.02,-34.49 1284.23,-24.94"/>
<polygon fill="#63b8ff" stroke="#63b8ff" points="1111.99,-64.46 1103.36,-70.61 1113.94,-71.19 1111.99,-64.46"/>
</g>
<!-- Node59&#45;&gt;Node22 -->
<g id="edge37" class="edge">
<title>Node59&#45;&gt;Node22</title>
<path fill="none" stroke="#63b8ff" d="M1094.56,-66.11C1117.38,-54.78 1145.7,-40.72 1166.53,-30.38"/>
<polygon fill="#63b8ff" stroke="#63b8ff" points="1093.26,-62.85 1085.86,-70.43 1096.38,-69.11 1093.26,-62.85"/>
</g>
<!-- Node59&#45;&gt;Node23 -->
<g id="edge38" class="edge">
<title>Node59&#45;&gt;Node23</title>
<path fill="none" stroke="#63b8ff" d="M1055.5,-59.96C1055.5,-47.57 1055.5,-33.49 1055.5,-24.68"/>
<polygon fill="#63b8ff" stroke="#63b8ff" points="1052,-59.59 1055.5,-69.59 1059,-59.59 1052,-59.59"/>
</g>
<!-- Node85&#45;&gt;Node18 -->
<g id="edge49" class="edge">
<title>Node85&#45;&gt;Node18</title>
<path fill="none" stroke="#63b8ff" d="M2760.35,-68.28C2756.36,-67.4 2752.39,-66.62 2748.5,-66 2512.03,-28.25 1910.8,-38.81 1671.5,-30 1567.87,-26.18 1446.91,-21.2 1378.34,-18.32"/>
<polygon fill="#63b8ff" stroke="#63b8ff" points="2759.51,-71.68 2770.06,-70.65 2761.17,-64.88 2759.51,-71.68"/>
</g>
<!-- Node85&#45;&gt;Node19 -->
<g id="edge50" class="edge">
<title>Node85&#45;&gt;Node19</title>
<path fill="none" stroke="#63b8ff" d="M2760.15,-68.31C2756.23,-67.43 2752.32,-66.64 2748.5,-66 2562.95,-34.85 1980.49,-20.83 1794.91,-17.08"/>
<polygon fill="#63b8ff" stroke="#63b8ff" points="2759.13,-71.66 2769.68,-70.66 2760.81,-64.87 2759.13,-71.66"/>
</g>
</g>
</svg>
