<?xml version="1.0" encoding="UTF-8" standalone="no"?>
<!DOCTYPE svg PUBLIC "-//W3C//DTD SVG 1.1//EN"
 "http://www.w3.org/Graphics/SVG/1.1/DTD/svg11.dtd">
<!-- Generated by graphviz version 7.0.5 (20221223.1930)
 -->
<!-- Title: libs/JSystem/JStudio/JStudio_JAudio2/control.cpp Pages: 1 -->
<svg width="2761pt" height="632pt"
 viewBox="0.00 0.00 2760.50 632.00" xmlns="http://www.w3.org/2000/svg" xmlns:xlink="http://www.w3.org/1999/xlink">
<g id="graph0" class="graph" transform="scale(1 1) rotate(0) translate(4 628)">
<title>libs/JSystem/JStudio/JStudio_JAudio2/control.cpp</title>
<!-- Node1 -->
<g id="node1" class="node">
<title>Node1</title>
<g id="a_node1"><a xlink:title=" ">
<polygon fill="#999999" stroke="#666666" points="855,-624 712,-624 712,-594 855,-594 855,-624"/>
<text text-anchor="start" x="720" y="-612" font-family="Helvetica,sans-Serif" font-size="10.00">libs/JSystem/JStudio</text>
<text text-anchor="middle" x="783.5" y="-601" font-family="Helvetica,sans-Serif" font-size="10.00">/JStudio_JAudio2/control.cpp</text>
</a>
</g>
</g>
<!-- Node2 -->
<g id="node2" class="node">
<title>Node2</title>
<g id="a_node2"><a xlink:href="JStudio_2JStudio__JAudio2_2control_8h.html" target="_top" xlink:title=" ">
<polygon fill="white" stroke="#666666" points="591,-547 464,-547 464,-517 591,-517 591,-547"/>
<text text-anchor="start" x="472" y="-535" font-family="Helvetica,sans-Serif" font-size="10.00">JSystem/JStudio/JStudio</text>
<text text-anchor="middle" x="527.5" y="-524" font-family="Helvetica,sans-Serif" font-size="10.00">_JAudio2/control.h</text>
</a>
</g>
</g>
<!-- Node1&#45;&gt;Node2 -->
<g id="edge1" class="edge">
<title>Node1&#45;&gt;Node2</title>
<path fill="none" stroke="#63b8ff" d="M727.17,-593.59C690.85,-584.06 642.68,-570.97 600.5,-558 593.53,-555.86 586.22,-553.49 579.03,-551.1"/>
<polygon fill="#63b8ff" stroke="#63b8ff" points="580.31,-547.84 569.71,-547.96 578.07,-554.47 580.31,-547.84"/>
</g>
<!-- Node60 -->
<g id="node47" class="node">
<title>Node60</title>
<g id="a_node47"><a xlink:href="dol2asm_8h.html" target="_top" xlink:title=" ">
<polygon fill="white" stroke="#666666" points="670,-541.5 609,-541.5 609,-522.5 670,-522.5 670,-541.5"/>
<text text-anchor="middle" x="639.5" y="-529.5" font-family="Helvetica,sans-Serif" font-size="10.00">dol2asm.h</text>
</a>
</g>
</g>
<!-- Node1&#45;&gt;Node60 -->
<g id="edge67" class="edge">
<title>Node1&#45;&gt;Node60</title>
<path fill="none" stroke="#63b8ff" d="M751.18,-593.58C730.41,-584.04 703.02,-570.95 679.5,-558 673.85,-554.89 667.89,-551.33 662.35,-547.88"/>
<polygon fill="#63b8ff" stroke="#63b8ff" points="664.57,-545.15 654.25,-542.75 660.83,-551.06 664.57,-545.15"/>
</g>
<!-- Node61 -->
<g id="node48" class="node">
<title>Node61</title>
<g id="a_node48"><a xlink:title=" ">
<polygon fill="#e0e0e0" stroke="#999999" points="879,-558 688,-558 688,-506 879,-506 879,-558"/>
<text text-anchor="start" x="696" y="-546" font-family="Helvetica,sans-Serif" font-size="10.00">asm/JSystem/JStudio</text>
<text text-anchor="start" x="696" y="-535" font-family="Helvetica,sans-Serif" font-size="10.00">/JStudio_JAudio2/control</text>
<text text-anchor="start" x="696" y="-524" font-family="Helvetica,sans-Serif" font-size="10.00">/__dt__Q215JStudio_JAudio213TCreate</text>
<text text-anchor="middle" x="783.5" y="-513" font-family="Helvetica,sans-Serif" font-size="10.00">ObjectFv.s</text>
</a>
</g>
</g>
<!-- Node1&#45;&gt;Node61 -->
<g id="edge68" class="edge">
<title>Node1&#45;&gt;Node61</title>
<path fill="none" stroke="#63b8ff" d="M783.5,-593.54C783.5,-586.69 783.5,-578.17 783.5,-569.7"/>
<polygon fill="#63b8ff" stroke="#63b8ff" points="787,-569.87 783.5,-559.87 780,-569.87 787,-569.87"/>
</g>
<!-- Node62 -->
<g id="node49" class="node">
<title>Node62</title>
<g id="a_node49"><a xlink:title=" ">
<polygon fill="#e0e0e0" stroke="#999999" points="1022,-552.5 897,-552.5 897,-511.5 1022,-511.5 1022,-552.5"/>
<text text-anchor="start" x="905" y="-540.5" font-family="Helvetica,sans-Serif" font-size="10.00">asm/JSystem/JStudio</text>
<text text-anchor="start" x="905" y="-529.5" font-family="Helvetica,sans-Serif" font-size="10.00">/JStudio_JAudio2/control</text>
<text text-anchor="middle" x="959.5" y="-518.5" font-family="Helvetica,sans-Serif" font-size="10.00">/func_8028D5B0.s</text>
</a>
</g>
</g>
<!-- Node1&#45;&gt;Node62 -->
<g id="edge69" class="edge">
<title>Node1&#45;&gt;Node62</title>
<path fill="none" stroke="#63b8ff" d="M817.43,-593.54C841.44,-583.31 874.2,-569.35 902.22,-557.41"/>
<polygon fill="#63b8ff" stroke="#63b8ff" points="903.48,-560.68 911.3,-553.54 900.73,-554.24 903.48,-560.68"/>
</g>
<!-- Node63 -->
<g id="node50" class="node">
<title>Node63</title>
<g id="a_node50"><a xlink:title=" ">
<polygon fill="#e0e0e0" stroke="#999999" points="1165,-552.5 1040,-552.5 1040,-511.5 1165,-511.5 1165,-552.5"/>
<text text-anchor="start" x="1048" y="-540.5" font-family="Helvetica,sans-Serif" font-size="10.00">asm/JSystem/JStudio</text>
<text text-anchor="start" x="1048" y="-529.5" font-family="Helvetica,sans-Serif" font-size="10.00">/JStudio_JAudio2/control</text>
<text text-anchor="middle" x="1102.5" y="-518.5" font-family="Helvetica,sans-Serif" font-size="10.00">/func_8028D624.s</text>
</a>
</g>
</g>
<!-- Node1&#45;&gt;Node63 -->
<g id="edge70" class="edge">
<title>Node1&#45;&gt;Node63</title>
<path fill="none" stroke="#63b8ff" d="M855.48,-596.23C905.32,-587.41 972.96,-574.12 1031.5,-558 1033.49,-557.45 1035.51,-556.88 1037.54,-556.28"/>
<polygon fill="#63b8ff" stroke="#63b8ff" points="1038.51,-559.64 1047.03,-553.34 1036.44,-552.95 1038.51,-559.64"/>
</g>
<!-- Node3 -->
<g id="node3" class="node">
<title>Node3</title>
<g id="a_node3"><a xlink:href="JAISoundHandles_8h.html" target="_top" xlink:title=" ">
<polygon fill="white" stroke="#666666" points="503,-404 364,-404 364,-374 503,-374 503,-404"/>
<text text-anchor="start" x="372" y="-392" font-family="Helvetica,sans-Serif" font-size="10.00">JSystem/JAudio2/JAISound</text>
<text text-anchor="middle" x="433.5" y="-381" font-family="Helvetica,sans-Serif" font-size="10.00">Handles.h</text>
</a>
</g>
</g>
<!-- Node2&#45;&gt;Node3 -->
<g id="edge2" class="edge">
<title>Node2&#45;&gt;Node3</title>
<path fill="none" stroke="#63b8ff" d="M516.09,-516.77C506.5,-504.6 492.62,-486.5 481.5,-470 469.17,-451.71 456.38,-430.25 447.1,-414.15"/>
<polygon fill="#63b8ff" stroke="#63b8ff" points="450.3,-412.71 442.3,-405.76 444.22,-416.18 450.3,-412.71"/>
</g>
<!-- Node18 -->
<g id="node16" class="node">
<title>Node18</title>
<g id="a_node16"><a xlink:href="JAISoundStarter_8h.html" target="_top" xlink:title=" ">
<polygon fill="white" stroke="#666666" points="346,-404 207,-404 207,-374 346,-374 346,-404"/>
<text text-anchor="start" x="215" y="-392" font-family="Helvetica,sans-Serif" font-size="10.00">JSystem/JAudio2/JAISound</text>
<text text-anchor="middle" x="276.5" y="-381" font-family="Helvetica,sans-Serif" font-size="10.00">Starter.h</text>
</a>
</g>
</g>
<!-- Node2&#45;&gt;Node18 -->
<g id="edge18" class="edge">
<title>Node2&#45;&gt;Node18</title>
<path fill="none" stroke="#63b8ff" d="M502.05,-516.7C457.04,-491.42 363.32,-438.77 311.99,-409.94"/>
<polygon fill="#63b8ff" stroke="#63b8ff" points="313.77,-406.92 303.34,-405.07 310.34,-413.02 313.77,-406.92"/>
</g>
<!-- Node20 -->
<g id="node18" class="node">
<title>Node20</title>
<g id="a_node18"><a xlink:href="JSGSystem_8h.html" target="_top" xlink:title=" ">
<polygon fill="white" stroke="#666666" points="642.5,-464.5 490.5,-464.5 490.5,-445.5 642.5,-445.5 642.5,-464.5"/>
<text text-anchor="middle" x="566.5" y="-452.5" font-family="Helvetica,sans-Serif" font-size="10.00">JSystem/JStage/JSGSystem.h</text>
</a>
</g>
</g>
<!-- Node2&#45;&gt;Node20 -->
<g id="edge22" class="edge">
<title>Node2&#45;&gt;Node20</title>
<path fill="none" stroke="#63b8ff" d="M535.02,-516.54C541.18,-504.69 549.95,-487.82 556.67,-474.9"/>
<polygon fill="#63b8ff" stroke="#63b8ff" points="559.72,-476.62 561.23,-466.13 553.51,-473.39 559.72,-476.62"/>
</g>
<!-- Node26 -->
<g id="node23" class="node">
<title>Node26</title>
<g id="a_node23"><a xlink:href="jstudio-object_8h.html" target="_top" xlink:title=" ">
<polygon fill="white" stroke="#666666" points="939,-470 812,-470 812,-440 939,-440 939,-470"/>
<text text-anchor="start" x="820" y="-458" font-family="Helvetica,sans-Serif" font-size="10.00">JSystem/JStudio/JStudio</text>
<text text-anchor="middle" x="875.5" y="-447" font-family="Helvetica,sans-Serif" font-size="10.00">/jstudio&#45;object.h</text>
</a>
</g>
</g>
<!-- Node2&#45;&gt;Node26 -->
<g id="edge29" class="edge">
<title>Node2&#45;&gt;Node26</title>
<path fill="none" stroke="#63b8ff" d="M566.19,-516.54C577.18,-512.77 589.22,-508.94 600.5,-506 667.28,-488.6 744.72,-475.1 800.38,-466.54"/>
<polygon fill="#63b8ff" stroke="#63b8ff" points="800.7,-470.03 810.06,-465.07 799.65,-463.11 800.7,-470.03"/>
</g>
<!-- Node4 -->
<g id="node4" class="node">
<title>Node4</title>
<g id="a_node4"><a xlink:href="JAISound_8h.html" target="_top" xlink:title=" ">
<polygon fill="white" stroke="#666666" points="405.5,-332.5 259.5,-332.5 259.5,-313.5 405.5,-313.5 405.5,-332.5"/>
<text text-anchor="middle" x="332.5" y="-320.5" font-family="Helvetica,sans-Serif" font-size="10.00">JSystem/JAudio2/JAISound.h</text>
</a>
</g>
</g>
<!-- Node3&#45;&gt;Node4 -->
<g id="edge3" class="edge">
<title>Node3&#45;&gt;Node4</title>
<path fill="none" stroke="#63b8ff" d="M410.83,-373.64C394.55,-363.32 372.66,-349.45 356.16,-338.99"/>
<polygon fill="#63b8ff" stroke="#63b8ff" points="358.28,-336.19 347.96,-333.8 354.53,-342.1 358.28,-336.19"/>
</g>
<!-- Node17 -->
<g id="node15" class="node">
<title>Node17</title>
<g id="a_node15"><a xlink:href="JUTAssert_8h.html" target="_top" xlink:title=" ">
<polygon fill="white" stroke="#666666" points="472.5,-266.5 326.5,-266.5 326.5,-247.5 472.5,-247.5 472.5,-266.5"/>
<text text-anchor="middle" x="399.5" y="-254.5" font-family="Helvetica,sans-Serif" font-size="10.00">JSystem/JUtility/JUTAssert.h</text>
</a>
</g>
</g>
<!-- Node3&#45;&gt;Node17 -->
<g id="edge16" class="edge">
<title>Node3&#45;&gt;Node17</title>
<path fill="none" stroke="#63b8ff" d="M430.38,-373.78C426.81,-357.73 420.65,-330.89 414.5,-308 411.79,-297.9 408.47,-286.74 405.65,-277.53"/>
<polygon fill="#63b8ff" stroke="#63b8ff" points="409.07,-276.76 402.76,-268.25 402.39,-278.84 409.07,-276.76"/>
</g>
<!-- Node5 -->
<g id="node5" class="node">
<title>Node5</title>
<g id="a_node5"><a xlink:href="JAISoundParams_8h.html" target="_top" xlink:title=" ">
<polygon fill="white" stroke="#666666" points="308,-272 169,-272 169,-242 308,-242 308,-272"/>
<text text-anchor="start" x="177" y="-260" font-family="Helvetica,sans-Serif" font-size="10.00">JSystem/JAudio2/JAISound</text>
<text text-anchor="middle" x="238.5" y="-249" font-family="Helvetica,sans-Serif" font-size="10.00">Params.h</text>
</a>
</g>
</g>
<!-- Node4&#45;&gt;Node5 -->
<g id="edge4" class="edge">
<title>Node4&#45;&gt;Node5</title>
<path fill="none" stroke="#63b8ff" d="M319.43,-313.1C306.41,-304.23 285.94,-290.3 268.84,-278.66"/>
<polygon fill="#63b8ff" stroke="#63b8ff" points="271.25,-276.06 261.02,-273.33 267.31,-281.85 271.25,-276.06"/>
</g>
<!-- Node9 -->
<g id="node9" class="node">
<title>Node9</title>
<g id="a_node9"><a xlink:href="JAIAudible_8h.html" target="_top" xlink:title=" ">
<polygon fill="white" stroke="#666666" points="151,-266.5 0,-266.5 0,-247.5 151,-247.5 151,-266.5"/>
<text text-anchor="middle" x="75.5" y="-254.5" font-family="Helvetica,sans-Serif" font-size="10.00">JSystem/JAudio2/JAIAudible.h</text>
</a>
</g>
</g>
<!-- Node4&#45;&gt;Node9 -->
<g id="edge8" class="edge">
<title>Node4&#45;&gt;Node9</title>
<path fill="none" stroke="#63b8ff" d="M296.49,-313.03C250.9,-301.68 172.26,-282.1 122.12,-269.61"/>
<polygon fill="#63b8ff" stroke="#63b8ff" points="123.28,-266.29 112.73,-267.27 121.59,-273.08 123.28,-266.29"/>
</g>
<!-- Node16 -->
<g id="node14" class="node">
<title>Node16</title>
<g id="a_node14"><a xlink:href="global_8h.html" target="_top" xlink:title=" ">
<polygon fill="white" stroke="#666666" points="578.5,-266.5 528.5,-266.5 528.5,-247.5 578.5,-247.5 578.5,-266.5"/>
<text text-anchor="middle" x="553.5" y="-254.5" font-family="Helvetica,sans-Serif" font-size="10.00">global.h</text>
</a>
</g>
</g>
<!-- Node4&#45;&gt;Node16 -->
<g id="edge14" class="edge">
<title>Node4&#45;&gt;Node16</title>
<path fill="none" stroke="#63b8ff" d="M363.23,-313.1C403.62,-301.4 474.46,-280.89 517.38,-268.46"/>
<polygon fill="#63b8ff" stroke="#63b8ff" points="518.08,-271.9 526.71,-265.76 516.14,-265.18 518.08,-271.9"/>
</g>
<!-- Node6 -->
<g id="node6" class="node">
<title>Node6</title>
<g id="a_node6"><a xlink:href="JASSoundParams_8h.html" target="_top" xlink:title=" ">
<polygon fill="white" stroke="#666666" points="340,-206 197,-206 197,-176 340,-176 340,-206"/>
<text text-anchor="start" x="205" y="-194" font-family="Helvetica,sans-Serif" font-size="10.00">JSystem/JAudio2/JASSound</text>
<text text-anchor="middle" x="268.5" y="-183" font-family="Helvetica,sans-Serif" font-size="10.00">Params.h</text>
</a>
</g>
</g>
<!-- Node5&#45;&gt;Node6 -->
<g id="edge5" class="edge">
<title>Node5&#45;&gt;Node6</title>
<path fill="none" stroke="#63b8ff" d="M245.16,-241.8C248.65,-234.34 253.04,-224.99 257.06,-216.41"/>
<polygon fill="#63b8ff" stroke="#63b8ff" points="260.14,-218.07 261.22,-207.53 253.8,-215.1 260.14,-218.07"/>
</g>
<!-- Node7 -->
<g id="node7" class="node">
<title>Node7</title>
<g id="a_node7"><a xlink:href="types_8h.html" target="_top" xlink:title=" ">
<polygon fill="white" stroke="#666666" points="849,-85 768,-85 768,-66 849,-66 849,-85"/>
<text text-anchor="middle" x="808.5" y="-73" font-family="Helvetica,sans-Serif" font-size="10.00">dolphin/types.h</text>
</a>
</g>
</g>
<!-- Node6&#45;&gt;Node7 -->
<g id="edge6" class="edge">
<title>Node6&#45;&gt;Node7</title>
<path fill="none" stroke="#63b8ff" d="M277.26,-175.74C288.19,-159.37 308.51,-133.21 333.5,-121 406.85,-85.18 648.85,-78.14 756.3,-76.79"/>
<polygon fill="#63b8ff" stroke="#63b8ff" points="756.33,-80.29 766.29,-76.68 756.25,-73.29 756.33,-80.29"/>
</g>
<!-- Node8 -->
<g id="node8" class="node">
<title>Node8</title>
<g id="a_node8"><a xlink:href="stddef_8h.html" target="_top" xlink:title=" ">
<polygon fill="white" stroke="#666666" points="876.5,-30 740.5,-30 740.5,0 876.5,0 876.5,-30"/>
<text text-anchor="start" x="748.5" y="-18" font-family="Helvetica,sans-Serif" font-size="10.00">MSL_C/MSL_Common/Src</text>
<text text-anchor="middle" x="808.5" y="-7" font-family="Helvetica,sans-Serif" font-size="10.00">/stddef.h</text>
</a>
</g>
</g>
<!-- Node7&#45;&gt;Node8 -->
<g id="edge7" class="edge">
<title>Node7&#45;&gt;Node8</title>
<path fill="none" stroke="#63b8ff" d="M808.5,-65.87C808.5,-59.4 808.5,-50.2 808.5,-41.45"/>
<polygon fill="#63b8ff" stroke="#63b8ff" points="812,-41.63 808.5,-31.63 805,-41.63 812,-41.63"/>
</g>
<!-- Node10 -->
<g id="node10" class="node">
<title>Node10</title>
<g id="a_node10"><a xlink:href="JGeometry_8h.html" target="_top" xlink:title=" ">
<polygon fill="white" stroke="#666666" points="153,-200.5 40,-200.5 40,-181.5 153,-181.5 153,-200.5"/>
<text text-anchor="middle" x="96.5" y="-188.5" font-family="Helvetica,sans-Serif" font-size="10.00">JSystem/JGeometry.h</text>
</a>
</g>
</g>
<!-- Node9&#45;&gt;Node10 -->
<g id="edge9" class="edge">
<title>Node9&#45;&gt;Node10</title>
<path fill="none" stroke="#63b8ff" d="M78.42,-247.1C81.43,-237.93 86.22,-223.34 90.11,-211.48"/>
<polygon fill="#63b8ff" stroke="#63b8ff" points="93.34,-212.85 93.13,-202.26 86.69,-210.67 93.34,-212.85"/>
</g>
<!-- Node11 -->
<g id="node11" class="node">
<title>Node11</title>
<g id="a_node11"><a xlink:href="vec_8h.html" target="_top" xlink:title=" ">
<polygon fill="white" stroke="#666666" points="434.5,-140 342.5,-140 342.5,-121 434.5,-121 434.5,-140"/>
<text text-anchor="middle" x="388.5" y="-128" font-family="Helvetica,sans-Serif" font-size="10.00">dolphin/mtx/vec.h</text>
</a>
</g>
</g>
<!-- Node10&#45;&gt;Node11 -->
<g id="edge10" class="edge">
<title>Node10&#45;&gt;Node11</title>
<path fill="none" stroke="#63b8ff" d="M141.17,-181.05C192.58,-170.75 277.08,-153.82 332.76,-142.67"/>
<polygon fill="#63b8ff" stroke="#63b8ff" points="333.24,-146.14 342.35,-140.74 331.86,-139.28 333.24,-146.14"/>
</g>
<!-- Node12 -->
<g id="node12" class="node">
<title>Node12</title>
<g id="a_node12"><a xlink:href="float_8h.html" target="_top" xlink:title=" ">
<polygon fill="#fff0f0" stroke="red" points="125.5,-140 47.5,-140 47.5,-121 125.5,-121 125.5,-140"/>
<text text-anchor="middle" x="86.5" y="-128" font-family="Helvetica,sans-Serif" font-size="10.00">MSL_C/float.h</text>
</a>
</g>
</g>
<!-- Node10&#45;&gt;Node12 -->
<g id="edge12" class="edge">
<title>Node10&#45;&gt;Node12</title>
<path fill="none" stroke="#63b8ff" d="M95.02,-181.37C93.68,-173.5 91.64,-161.6 89.9,-151.39"/>
<polygon fill="#63b8ff" stroke="#63b8ff" points="93.37,-150.93 88.24,-141.66 86.47,-152.11 93.37,-150.93"/>
</g>
<!-- Node15 -->
<g id="node13" class="node">
<title>Node15</title>
<g id="a_node13"><a xlink:href="math_8h.html" target="_top" xlink:title=" ">
<polygon fill="#fff0f0" stroke="red" points="225.5,-140 143.5,-140 143.5,-121 225.5,-121 225.5,-140"/>
<text text-anchor="middle" x="184.5" y="-128" font-family="Helvetica,sans-Serif" font-size="10.00">MSL_C/math.h</text>
</a>
</g>
</g>
<!-- Node10&#45;&gt;Node15 -->
<g id="edge13" class="edge">
<title>Node10&#45;&gt;Node15</title>
<path fill="none" stroke="#63b8ff" d="M109.87,-181.12C123.56,-172.01 145.12,-157.68 161.56,-146.75"/>
<polygon fill="#63b8ff" stroke="#63b8ff" points="163.36,-149.76 169.75,-141.31 159.48,-143.93 163.36,-149.76"/>
</g>
<!-- Node11&#45;&gt;Node7 -->
<g id="edge11" class="edge">
<title>Node11&#45;&gt;Node7</title>
<path fill="none" stroke="#63b8ff" d="M434.68,-122.87C439.34,-122.23 444.02,-121.59 448.5,-121 558.05,-106.47 686.57,-90.95 756.57,-82.63"/>
<polygon fill="#63b8ff" stroke="#63b8ff" points="756.69,-86.14 766.21,-81.48 755.86,-79.19 756.69,-86.14"/>
</g>
<!-- Node16&#45;&gt;Node7 -->
<g id="edge15" class="edge">
<title>Node16&#45;&gt;Node7</title>
<path fill="none" stroke="#63b8ff" d="M558.49,-247.28C572.58,-223.41 615.16,-156.44 668.5,-121 694.92,-103.45 728.71,-92.45 756.47,-85.77"/>
<polygon fill="#63b8ff" stroke="#63b8ff" points="757.12,-89.22 766.1,-83.59 755.57,-82.39 757.12,-89.22"/>
</g>
<!-- Node17&#45;&gt;Node7 -->
<g id="edge17" class="edge">
<title>Node17&#45;&gt;Node7</title>
<path fill="none" stroke="#63b8ff" d="M412.43,-247.14C447.47,-223.49 547.78,-158.16 639.5,-121 677.52,-105.6 722.53,-94.05 756.53,-86.58"/>
<polygon fill="#63b8ff" stroke="#63b8ff" points="757.09,-90.04 766.13,-84.53 755.62,-83.2 757.09,-90.04"/>
</g>
<!-- Node18&#45;&gt;Node4 -->
<g id="edge19" class="edge">
<title>Node18&#45;&gt;Node4</title>
<path fill="none" stroke="#63b8ff" d="M288.93,-373.8C297.32,-364.21 308.44,-351.5 317.35,-341.32"/>
<polygon fill="#63b8ff" stroke="#63b8ff" points="319.81,-343.81 323.76,-333.98 314.55,-339.2 319.81,-343.81"/>
</g>
<!-- Node19 -->
<g id="node17" class="node">
<title>Node19</title>
<g id="a_node17"><a xlink:href="JASGadget_8h.html" target="_top" xlink:title=" ">
<polygon fill="white" stroke="#666666" points="241.5,-332.5 87.5,-332.5 87.5,-313.5 241.5,-313.5 241.5,-332.5"/>
<text text-anchor="middle" x="164.5" y="-320.5" font-family="Helvetica,sans-Serif" font-size="10.00">JSystem/JAudio2/JASGadget.h</text>
</a>
</g>
</g>
<!-- Node18&#45;&gt;Node19 -->
<g id="edge20" class="edge">
<title>Node18&#45;&gt;Node19</title>
<path fill="none" stroke="#63b8ff" d="M251.37,-373.64C233.14,-363.22 208.58,-349.19 190.22,-338.7"/>
<polygon fill="#63b8ff" stroke="#63b8ff" points="191.96,-335.66 181.54,-333.74 188.49,-341.74 191.96,-335.66"/>
</g>
<!-- Node19&#45;&gt;Node17 -->
<g id="edge21" class="edge">
<title>Node19&#45;&gt;Node17</title>
<path fill="none" stroke="#63b8ff" d="M197.18,-313.1C238.54,-301.84 309.92,-282.4 355.9,-269.87"/>
<polygon fill="#63b8ff" stroke="#63b8ff" points="356.53,-273.33 365.26,-267.32 354.7,-266.57 356.53,-273.33"/>
</g>
<!-- Node21 -->
<g id="node19" class="node">
<title>Node21</title>
<g id="a_node19"><a xlink:href="JSGObject_8h.html" target="_top" xlink:title=" ">
<polygon fill="white" stroke="#666666" points="668,-398.5 521,-398.5 521,-379.5 668,-379.5 668,-398.5"/>
<text text-anchor="middle" x="594.5" y="-386.5" font-family="Helvetica,sans-Serif" font-size="10.00">JSystem/JStage/JSGObject.h</text>
</a>
</g>
</g>
<!-- Node20&#45;&gt;Node21 -->
<g id="edge23" class="edge">
<title>Node20&#45;&gt;Node21</title>
<path fill="none" stroke="#63b8ff" d="M570.39,-445.1C574.45,-435.84 580.92,-421.04 586.14,-409.11"/>
<polygon fill="#63b8ff" stroke="#63b8ff" points="589.23,-410.77 590.03,-400.21 582.82,-407.97 589.23,-410.77"/>
</g>
<!-- Node22 -->
<g id="node20" class="node">
<title>Node22</title>
<g id="a_node20"><a xlink:href="mtxvec_8h.html" target="_top" xlink:title=" ">
<polygon fill="white" stroke="#666666" points="648.5,-332.5 540.5,-332.5 540.5,-313.5 648.5,-313.5 648.5,-332.5"/>
<text text-anchor="middle" x="594.5" y="-320.5" font-family="Helvetica,sans-Serif" font-size="10.00">dolphin/mtx/mtxvec.h</text>
</a>
</g>
</g>
<!-- Node21&#45;&gt;Node22 -->
<g id="edge24" class="edge">
<title>Node21&#45;&gt;Node22</title>
<path fill="none" stroke="#63b8ff" d="M594.5,-379.1C594.5,-370.12 594.5,-355.95 594.5,-344.22"/>
<polygon fill="#63b8ff" stroke="#63b8ff" points="598,-344.34 594.5,-334.34 591,-344.34 598,-344.34"/>
</g>
<!-- Node23 -->
<g id="node21" class="node">
<title>Node23</title>
<g id="a_node21"><a xlink:href="mtx_8h.html" target="_top" xlink:title=" ">
<polygon fill="#fff0f0" stroke="red" points="796.5,-200.5 704.5,-200.5 704.5,-181.5 796.5,-181.5 796.5,-200.5"/>
<text text-anchor="middle" x="750.5" y="-188.5" font-family="Helvetica,sans-Serif" font-size="10.00">dolphin/mtx/mtx.h</text>
</a>
</g>
</g>
<!-- Node22&#45;&gt;Node23 -->
<g id="edge25" class="edge">
<title>Node22&#45;&gt;Node23</title>
<path fill="none" stroke="#63b8ff" d="M595.74,-313.06C598.44,-296.81 606.33,-262.23 626.5,-242 644.82,-223.63 670.79,-211.76 694.23,-204.23"/>
<polygon fill="#63b8ff" stroke="#63b8ff" points="695.11,-207.62 703.69,-201.4 693.1,-200.91 695.11,-207.62"/>
</g>
<!-- Node23&#45;&gt;Node7 -->
<g id="edge28" class="edge">
<title>Node23&#45;&gt;Node7</title>
<path fill="none" stroke="#63b8ff" d="M759.1,-181.14C767.87,-171.66 781.32,-155.85 789.5,-140 796.7,-126.05 801.62,-108.94 804.65,-96"/>
<polygon fill="#63b8ff" stroke="#63b8ff" points="807.99,-97.09 806.67,-86.58 801.15,-95.63 807.99,-97.09"/>
</g>
<!-- Node24 -->
<g id="node22" class="node">
<title>Node24</title>
<g id="a_node22"><a xlink:href="mtx44_8h.html" target="_top" xlink:title=" ">
<polygon fill="white" stroke="#666666" points="780,-140 677,-140 677,-121 780,-121 780,-140"/>
<text text-anchor="middle" x="728.5" y="-128" font-family="Helvetica,sans-Serif" font-size="10.00">dolphin/mtx/mtx44.h</text>
</a>
</g>
</g>
<!-- Node23&#45;&gt;Node24 -->
<g id="edge26" class="edge">
<title>Node23&#45;&gt;Node24</title>
<path fill="none" stroke="#63b8ff" d="M747.25,-181.37C744.23,-173.33 739.62,-161.07 735.73,-150.72"/>
<polygon fill="#63b8ff" stroke="#63b8ff" points="739.09,-149.71 732.29,-141.58 732.54,-152.18 739.09,-149.71"/>
</g>
<!-- Node24&#45;&gt;Node7 -->
<g id="edge27" class="edge">
<title>Node24&#45;&gt;Node7</title>
<path fill="none" stroke="#63b8ff" d="M742.07,-120.51C753.98,-112.62 771.55,-100.98 785.63,-91.65"/>
<polygon fill="#63b8ff" stroke="#63b8ff" points="787.46,-94.63 793.87,-86.19 783.6,-88.8 787.46,-94.63"/>
</g>
<!-- Node27 -->
<g id="node24" class="node">
<title>Node27</title>
<g id="a_node24"><a xlink:href="ctb_8h.html" target="_top" xlink:title=" ">
<polygon fill="white" stroke="#666666" points="1084,-338 957,-338 957,-308 1084,-308 1084,-338"/>
<text text-anchor="start" x="965" y="-326" font-family="Helvetica,sans-Serif" font-size="10.00">JSystem/JStudio/JStudio</text>
<text text-anchor="middle" x="1020.5" y="-315" font-family="Helvetica,sans-Serif" font-size="10.00">/ctb.h</text>
</a>
</g>
</g>
<!-- Node26&#45;&gt;Node27 -->
<g id="edge30" class="edge">
<title>Node26&#45;&gt;Node27</title>
<path fill="none" stroke="#63b8ff" d="M899.55,-439.57C914.31,-430.24 933.25,-417.36 948.5,-404 968.54,-386.45 988.6,-363.63 1002.43,-346.85"/>
<polygon fill="#63b8ff" stroke="#63b8ff" points="1004.89,-349.37 1008.48,-339.4 999.46,-344.96 1004.89,-349.37"/>
</g>
<!-- Node31 -->
<g id="node28" class="node">
<title>Node31</title>
<g id="a_node28"><a xlink:href="jstudio-control_8h.html" target="_top" xlink:title=" ">
<polygon fill="white" stroke="#666666" points="939,-404 812,-404 812,-374 939,-374 939,-404"/>
<text text-anchor="start" x="820" y="-392" font-family="Helvetica,sans-Serif" font-size="10.00">JSystem/JStudio/JStudio</text>
<text text-anchor="middle" x="875.5" y="-381" font-family="Helvetica,sans-Serif" font-size="10.00">/jstudio&#45;control.h</text>
</a>
</g>
</g>
<!-- Node26&#45;&gt;Node31 -->
<g id="edge37" class="edge">
<title>Node26&#45;&gt;Node31</title>
<path fill="none" stroke="#63b8ff" d="M875.5,-439.8C875.5,-432.67 875.5,-423.82 875.5,-415.56"/>
<polygon fill="#63b8ff" stroke="#63b8ff" points="879,-415.68 875.5,-405.68 872,-415.68 879,-415.68"/>
</g>
<!-- Node28 -->
<g id="node25" class="node">
<title>Node28</title>
<g id="a_node25"><a xlink:href="binary_8h.html" target="_top" xlink:title=" ">
<polygon fill="white" stroke="#666666" points="1205,-200.5 1074,-200.5 1074,-181.5 1205,-181.5 1205,-200.5"/>
<text text-anchor="middle" x="1139.5" y="-188.5" font-family="Helvetica,sans-Serif" font-size="10.00">JSystem/JGadget/binary.h</text>
</a>
</g>
</g>
<!-- Node27&#45;&gt;Node28 -->
<g id="edge31" class="edge">
<title>Node27&#45;&gt;Node28</title>
<path fill="none" stroke="#63b8ff" d="M1084.25,-322.1C1172.41,-320.71 1324.66,-312.36 1359.5,-272 1403.95,-220.51 1296.23,-202.15 1216.32,-195.61"/>
<polygon fill="#63b8ff" stroke="#63b8ff" points="1217,-192.15 1206.76,-194.88 1216.46,-199.13 1217,-192.15"/>
</g>
<!-- Node29 -->
<g id="node26" class="node">
<title>Node29</title>
<g id="a_node26"><a xlink:href="linklist_8h.html" target="_top" xlink:title=" ">
<polygon fill="white" stroke="#666666" points="913,-266.5 780,-266.5 780,-247.5 913,-247.5 913,-266.5"/>
<text text-anchor="middle" x="846.5" y="-254.5" font-family="Helvetica,sans-Serif" font-size="10.00">JSystem/JGadget/linklist.h</text>
</a>
</g>
</g>
<!-- Node27&#45;&gt;Node29 -->
<g id="edge33" class="edge">
<title>Node27&#45;&gt;Node29</title>
<path fill="none" stroke="#63b8ff" d="M981.45,-307.64C951.42,-296.59 910.31,-281.47 881.37,-270.83"/>
<polygon fill="#63b8ff" stroke="#63b8ff" points="882.94,-267.68 872.35,-267.51 880.53,-274.25 882.94,-267.68"/>
</g>
<!-- Node30 -->
<g id="node27" class="node">
<title>Node30</title>
<g id="a_node27"><a xlink:href="object-id_8h.html" target="_top" xlink:title=" ">
<polygon fill="white" stroke="#666666" points="1058,-272 931,-272 931,-242 1058,-242 1058,-272"/>
<text text-anchor="start" x="939" y="-260" font-family="Helvetica,sans-Serif" font-size="10.00">JSystem/JStudio/JStudio</text>
<text text-anchor="middle" x="994.5" y="-249" font-family="Helvetica,sans-Serif" font-size="10.00">/object&#45;id.h</text>
</a>
</g>
</g>
<!-- Node27&#45;&gt;Node30 -->
<g id="edge35" class="edge">
<title>Node27&#45;&gt;Node30</title>
<path fill="none" stroke="#63b8ff" d="M1014.73,-307.8C1011.73,-300.42 1007.99,-291.2 1004.53,-282.7"/>
<polygon fill="#63b8ff" stroke="#63b8ff" points="1007.83,-281.51 1000.82,-273.57 1001.34,-284.15 1007.83,-281.51"/>
</g>
<!-- Node28&#45;&gt;Node7 -->
<g id="edge32" class="edge">
<title>Node28&#45;&gt;Node7</title>
<path fill="none" stroke="#63b8ff" d="M1116.74,-181.08C1081.84,-167.5 1012.87,-141.1 953.5,-121 919.04,-109.33 879.54,-97.3 850.48,-88.69"/>
<polygon fill="#63b8ff" stroke="#63b8ff" points="851.53,-85.35 840.95,-85.88 849.55,-92.06 851.53,-85.35"/>
</g>
<!-- Node29&#45;&gt;Node7 -->
<g id="edge34" class="edge">
<title>Node29&#45;&gt;Node7</title>
<path fill="none" stroke="#63b8ff" d="M844.67,-247.34C838.9,-220.1 821.02,-135.65 812.76,-96.63"/>
<polygon fill="#63b8ff" stroke="#63b8ff" points="816.21,-96.03 810.72,-86.97 809.36,-97.48 816.21,-96.03"/>
</g>
<!-- Node30&#45;&gt;Node7 -->
<g id="edge36" class="edge">
<title>Node30&#45;&gt;Node7</title>
<path fill="none" stroke="#63b8ff" d="M979.59,-241.61C945.58,-208.79 862.38,-128.5 826.01,-93.39"/>
<polygon fill="#63b8ff" stroke="#63b8ff" points="828.54,-90.98 818.91,-86.55 823.68,-96.01 828.54,-90.98"/>
</g>
<!-- Node31&#45;&gt;Node11 -->
<g id="edge66" class="edge">
<title>Node31&#45;&gt;Node11</title>
<path fill="none" stroke="#63b8ff" d="M811.88,-381.91C718.76,-372.51 553.92,-353.92 531.5,-338 492.28,-310.15 508.26,-281.98 481.5,-242 457.81,-206.61 424.61,-169.53 404.95,-148.59"/>
<polygon fill="#63b8ff" stroke="#63b8ff" points="407.66,-146.35 398.23,-141.51 402.58,-151.17 407.66,-146.35"/>
</g>
<!-- Node31&#45;&gt;Node27 -->
<g id="edge48" class="edge">
<title>Node31&#45;&gt;Node27</title>
<path fill="none" stroke="#63b8ff" d="M908.04,-373.64C928.49,-364.61 955.11,-352.86 977.32,-343.06"/>
<polygon fill="#63b8ff" stroke="#63b8ff" points="978.7,-346.28 986.43,-339.04 975.87,-339.87 978.7,-346.28"/>
</g>
<!-- Node32 -->
<g id="node29" class="node">
<title>Node32</title>
<g id="a_node29"><a xlink:href="fvb_8h.html" target="_top" xlink:title=" ">
<polygon fill="white" stroke="#666666" points="794,-338 667,-338 667,-308 794,-308 794,-338"/>
<text text-anchor="start" x="675" y="-326" font-family="Helvetica,sans-Serif" font-size="10.00">JSystem/JStudio/JStudio</text>
<text text-anchor="middle" x="730.5" y="-315" font-family="Helvetica,sans-Serif" font-size="10.00">/fvb.h</text>
</a>
</g>
</g>
<!-- Node31&#45;&gt;Node32 -->
<g id="edge38" class="edge">
<title>Node31&#45;&gt;Node32</title>
<path fill="none" stroke="#63b8ff" d="M842.96,-373.64C822.51,-364.61 795.89,-352.86 773.68,-343.06"/>
<polygon fill="#63b8ff" stroke="#63b8ff" points="775.13,-339.87 764.57,-339.04 772.3,-346.28 775.13,-339.87"/>
</g>
<!-- Node38 -->
<g id="node31" class="node">
<title>Node38</title>
<g id="a_node31"><a xlink:href="stb_8h.html" target="_top" xlink:title=" ">
<polygon fill="white" stroke="#666666" points="939,-338 812,-338 812,-308 939,-308 939,-338"/>
<text text-anchor="start" x="820" y="-326" font-family="Helvetica,sans-Serif" font-size="10.00">JSystem/JStudio/JStudio</text>
<text text-anchor="middle" x="875.5" y="-315" font-family="Helvetica,sans-Serif" font-size="10.00">/stb.h</text>
</a>
</g>
</g>
<!-- Node31&#45;&gt;Node38 -->
<g id="edge42" class="edge">
<title>Node31&#45;&gt;Node38</title>
<path fill="none" stroke="#63b8ff" d="M875.5,-373.8C875.5,-366.67 875.5,-357.82 875.5,-349.56"/>
<polygon fill="#63b8ff" stroke="#63b8ff" points="879,-349.68 875.5,-339.68 872,-349.68 879,-349.68"/>
</g>
<!-- Node41 -->
<g id="node33" class="node">
<title>Node41</title>
<g id="a_node33"><a xlink:href="GX_8h.html" target="_top" xlink:title=" ">
<polygon fill="white" stroke="#666666" points="1893,-332.5 1808,-332.5 1808,-313.5 1893,-313.5 1893,-332.5"/>
<text text-anchor="middle" x="1850.5" y="-320.5" font-family="Helvetica,sans-Serif" font-size="10.00">dolphin/gx/GX.h</text>
</a>
</g>
</g>
<!-- Node31&#45;&gt;Node41 -->
<g id="edge49" class="edge">
<title>Node31&#45;&gt;Node41</title>
<path fill="none" stroke="#63b8ff" d="M939.47,-383.8C1119.55,-371.98 1628.5,-338.57 1796.18,-327.57"/>
<polygon fill="#63b8ff" stroke="#63b8ff" points="1796.39,-331.06 1806.14,-326.91 1795.94,-324.07 1796.39,-331.06"/>
</g>
<!-- Node32&#45;&gt;Node29 -->
<g id="edge39" class="edge">
<title>Node32&#45;&gt;Node29</title>
<path fill="none" stroke="#63b8ff" d="M756.53,-307.64C775.58,-297.13 801.32,-282.92 820.39,-272.4"/>
<polygon fill="#63b8ff" stroke="#63b8ff" points="821.82,-275.61 828.89,-267.72 818.44,-269.48 821.82,-275.61"/>
</g>
<!-- Node32&#45;&gt;Node30 -->
<g id="edge41" class="edge">
<title>Node32&#45;&gt;Node30</title>
<path fill="none" stroke="#63b8ff" d="M790.08,-307.56C829.86,-297.91 882.36,-285.18 924.2,-275.04"/>
<polygon fill="#63b8ff" stroke="#63b8ff" points="924.78,-278.5 933.67,-272.75 923.13,-271.7 924.78,-278.5"/>
</g>
<!-- Node33 -->
<g id="node30" class="node">
<title>Node33</title>
<g id="a_node30"><a xlink:href="fvb-data-parse_8h.html" target="_top" xlink:title=" ">
<polygon fill="#fff0f0" stroke="red" points="762,-272 635,-272 635,-242 762,-242 762,-272"/>
<text text-anchor="start" x="643" y="-260" font-family="Helvetica,sans-Serif" font-size="10.00">JSystem/JStudio/JStudio</text>
<text text-anchor="middle" x="698.5" y="-249" font-family="Helvetica,sans-Serif" font-size="10.00">/fvb&#45;data&#45;parse.h</text>
</a>
</g>
</g>
<!-- Node32&#45;&gt;Node33 -->
<g id="edge40" class="edge">
<title>Node32&#45;&gt;Node33</title>
<path fill="none" stroke="#63b8ff" d="M723.4,-307.8C719.67,-300.34 715,-290.99 710.71,-282.41"/>
<polygon fill="#63b8ff" stroke="#63b8ff" points="713.86,-280.9 706.26,-273.52 707.6,-284.03 713.86,-280.9"/>
</g>
<!-- Node38&#45;&gt;Node16 -->
<g id="edge47" class="edge">
<title>Node38&#45;&gt;Node16</title>
<path fill="none" stroke="#63b8ff" d="M811.88,-309.36C745.46,-296.15 643.61,-275.91 589.77,-265.21"/>
<polygon fill="#63b8ff" stroke="#63b8ff" points="590.7,-261.83 580.21,-263.31 589.34,-268.69 590.7,-261.83"/>
</g>
<!-- Node38&#45;&gt;Node29 -->
<g id="edge43" class="edge">
<title>Node38&#45;&gt;Node29</title>
<path fill="none" stroke="#63b8ff" d="M869.06,-307.8C864.99,-298.8 859.66,-287.04 855.21,-277.22"/>
<polygon fill="#63b8ff" stroke="#63b8ff" points="858.45,-275.89 851.13,-268.22 852.07,-278.78 858.45,-275.89"/>
</g>
<!-- Node38&#45;&gt;Node30 -->
<g id="edge44" class="edge">
<title>Node38&#45;&gt;Node30</title>
<path fill="none" stroke="#63b8ff" d="M902.21,-307.64C918.59,-298.83 939.8,-287.42 957.75,-277.77"/>
<polygon fill="#63b8ff" stroke="#63b8ff" points="959.4,-280.85 966.55,-273.03 956.09,-274.69 959.4,-280.85"/>
</g>
<!-- Node39 -->
<g id="node32" class="node">
<title>Node39</title>
<g id="a_node32"><a xlink:href="stb-data-parse_8h.html" target="_top" xlink:title=" ">
<polygon fill="#fff0f0" stroke="red" points="1203,-272 1076,-272 1076,-242 1203,-242 1203,-272"/>
<text text-anchor="start" x="1084" y="-260" font-family="Helvetica,sans-Serif" font-size="10.00">JSystem/JStudio/JStudio</text>
<text text-anchor="middle" x="1139.5" y="-249" font-family="Helvetica,sans-Serif" font-size="10.00">/stb&#45;data&#45;parse.h</text>
</a>
</g>
</g>
<!-- Node38&#45;&gt;Node39 -->
<g id="edge45" class="edge">
<title>Node38&#45;&gt;Node39</title>
<path fill="none" stroke="#63b8ff" d="M935.08,-307.56C974.86,-297.91 1027.36,-285.18 1069.2,-275.04"/>
<polygon fill="#63b8ff" stroke="#63b8ff" points="1069.78,-278.5 1078.67,-272.75 1068.13,-271.7 1069.78,-278.5"/>
</g>
<!-- Node39&#45;&gt;Node28 -->
<g id="edge46" class="edge">
<title>Node39&#45;&gt;Node28</title>
<path fill="none" stroke="#63b8ff" d="M1139.5,-241.8C1139.5,-233.09 1139.5,-221.81 1139.5,-212.18"/>
<polygon fill="#63b8ff" stroke="#63b8ff" points="1143,-212.36 1139.5,-202.36 1136,-212.36 1143,-212.36"/>
</g>
<!-- Node42 -->
<g id="node34" class="node">
<title>Node42</title>
<g id="a_node34"><a xlink:href="GXAttr_8h.html" target="_top" xlink:title=" ">
<polygon fill="#fff0f0" stroke="red" points="1839,-266.5 1738,-266.5 1738,-247.5 1839,-247.5 1839,-266.5"/>
<text text-anchor="middle" x="1788.5" y="-254.5" font-family="Helvetica,sans-Serif" font-size="10.00">dolphin/gx/GXAttr.h</text>
</a>
</g>
</g>
<!-- Node41&#45;&gt;Node42 -->
<g id="edge50" class="edge">
<title>Node41&#45;&gt;Node42</title>
<path fill="none" stroke="#63b8ff" d="M1841.88,-313.1C1832.35,-303.26 1816.77,-287.18 1804.9,-274.93"/>
<polygon fill="#63b8ff" stroke="#63b8ff" points="1807.57,-272.66 1798.1,-267.91 1802.54,-277.53 1807.57,-272.66"/>
</g>
<!-- Node44 -->
<g id="node35" class="node">
<title>Node44</title>
<g id="a_node35"><a xlink:href="GXBump_8h.html" target="_top" xlink:title=" ">
<polygon fill="#fff0f0" stroke="red" points="1967.5,-266.5 1857.5,-266.5 1857.5,-247.5 1967.5,-247.5 1967.5,-266.5"/>
<text text-anchor="middle" x="1912.5" y="-254.5" font-family="Helvetica,sans-Serif" font-size="10.00">dolphin/gx/GXBump.h</text>
</a>
</g>
</g>
<!-- Node41&#45;&gt;Node44 -->
<g id="edge51" class="edge">
<title>Node41&#45;&gt;Node44</title>
<path fill="none" stroke="#63b8ff" d="M1859.12,-313.1C1868.65,-303.26 1884.23,-287.18 1896.1,-274.93"/>
<polygon fill="#63b8ff" stroke="#63b8ff" points="1898.46,-277.53 1902.9,-267.91 1893.43,-272.66 1898.46,-277.53"/>
</g>
<!-- Node45 -->
<g id="node36" class="node">
<title>Node45</title>
<g id="a_node36"><a xlink:href="GXDisplayList_8h.html" target="_top" xlink:title=" ">
<polygon fill="white" stroke="#666666" points="1531,-200.5 1398,-200.5 1398,-181.5 1531,-181.5 1531,-200.5"/>
<text text-anchor="middle" x="1464.5" y="-188.5" font-family="Helvetica,sans-Serif" font-size="10.00">dolphin/gx/GXDisplayList.h</text>
</a>
</g>
</g>
<!-- Node41&#45;&gt;Node45 -->
<g id="edge52" class="edge">
<title>Node41&#45;&gt;Node45</title>
<path fill="none" stroke="#63b8ff" d="M1812.33,-313.08C1780.18,-304.78 1733.49,-290.85 1695.5,-272 1674.63,-261.64 1673.64,-251.81 1652.5,-242 1613.22,-223.77 1566.12,-211.25 1528.89,-203.31"/>
<polygon fill="#63b8ff" stroke="#63b8ff" points="1529.65,-199.89 1519.15,-201.29 1528.23,-206.75 1529.65,-199.89"/>
</g>
<!-- Node46 -->
<g id="node37" class="node">
<title>Node46</title>
<g id="a_node37"><a xlink:href="GXFifo_8h.html" target="_top" xlink:title=" ">
<polygon fill="#fff0f0" stroke="red" points="2087,-266.5 1986,-266.5 1986,-247.5 2087,-247.5 2087,-266.5"/>
<text text-anchor="middle" x="2036.5" y="-254.5" font-family="Helvetica,sans-Serif" font-size="10.00">dolphin/gx/GXFifo.h</text>
</a>
</g>
</g>
<!-- Node41&#45;&gt;Node46 -->
<g id="edge54" class="edge">
<title>Node41&#45;&gt;Node46</title>
<path fill="none" stroke="#63b8ff" d="M1876.36,-313.1C1908.48,-302.05 1963.46,-283.13 1999.89,-270.6"/>
<polygon fill="#63b8ff" stroke="#63b8ff" points="2000.81,-273.98 2009.13,-267.42 1998.53,-267.36 2000.81,-273.98"/>
</g>
<!-- Node50 -->
<g id="node38" class="node">
<title>Node50</title>
<g id="a_node38"><a xlink:href="GXFrameBuf_8h.html" target="_top" xlink:title=" ">
<polygon fill="#fff0f0" stroke="red" points="2233.5,-266.5 2105.5,-266.5 2105.5,-247.5 2233.5,-247.5 2233.5,-266.5"/>
<text text-anchor="middle" x="2169.5" y="-254.5" font-family="Helvetica,sans-Serif" font-size="10.00">dolphin/gx/GXFrameBuf.h</text>
</a>
</g>
</g>
<!-- Node41&#45;&gt;Node50 -->
<g id="edge55" class="edge">
<title>Node41&#45;&gt;Node50</title>
<path fill="none" stroke="#63b8ff" d="M1893.19,-313.44C1950.01,-302.04 2050.6,-281.85 2113.47,-269.24"/>
<polygon fill="#63b8ff" stroke="#63b8ff" points="2114.15,-272.67 2123.27,-267.28 2112.77,-265.81 2114.15,-272.67"/>
</g>
<!-- Node51 -->
<g id="node39" class="node">
<title>Node51</title>
<g id="a_node39"><a xlink:href="GXGeometry_8h.html" target="_top" xlink:title=" ">
<polygon fill="#fff0f0" stroke="red" points="2379,-266.5 2252,-266.5 2252,-247.5 2379,-247.5 2379,-266.5"/>
<text text-anchor="middle" x="2315.5" y="-254.5" font-family="Helvetica,sans-Serif" font-size="10.00">dolphin/gx/GXGeometry.h</text>
</a>
</g>
</g>
<!-- Node41&#45;&gt;Node51 -->
<g id="edge56" class="edge">
<title>Node41&#45;&gt;Node51</title>
<path fill="none" stroke="#63b8ff" d="M1893.26,-317.43C1965.44,-309.53 2115.98,-292.18 2242.5,-272 2248.17,-271.1 2254.07,-270.08 2259.96,-269.03"/>
<polygon fill="#63b8ff" stroke="#63b8ff" points="2260.49,-272.49 2269.7,-267.23 2259.23,-265.6 2260.49,-272.49"/>
</g>
<!-- Node52 -->
<g id="node40" class="node">
<title>Node52</title>
<g id="a_node40"><a xlink:href="GXLight_8h.html" target="_top" xlink:title=" ">
<polygon fill="#fff0f0" stroke="red" points="2504,-266.5 2397,-266.5 2397,-247.5 2504,-247.5 2504,-266.5"/>
<text text-anchor="middle" x="2450.5" y="-254.5" font-family="Helvetica,sans-Serif" font-size="10.00">dolphin/gx/GXLight.h</text>
</a>
</g>
</g>
<!-- Node41&#45;&gt;Node52 -->
<g id="edge57" class="edge">
<title>Node41&#45;&gt;Node52</title>
<path fill="none" stroke="#63b8ff" d="M1893.28,-319.91C1984.66,-315.03 2205.52,-301.04 2388.5,-272 2393.41,-271.22 2398.52,-270.28 2403.6,-269.26"/>
<polygon fill="#63b8ff" stroke="#63b8ff" points="2404.05,-272.74 2413.11,-267.25 2402.6,-265.9 2404.05,-272.74"/>
</g>
<!-- Node53 -->
<g id="node41" class="node">
<title>Node53</title>
<g id="a_node41"><a xlink:href="GXMisc_8h.html" target="_top" xlink:title=" ">
<polygon fill="#fff0f0" stroke="red" points="2628.5,-266.5 2522.5,-266.5 2522.5,-247.5 2628.5,-247.5 2628.5,-266.5"/>
<text text-anchor="middle" x="2575.5" y="-254.5" font-family="Helvetica,sans-Serif" font-size="10.00">dolphin/gx/GXMisc.h</text>
</a>
</g>
</g>
<!-- Node41&#45;&gt;Node53 -->
<g id="edge58" class="edge">
<title>Node41&#45;&gt;Node53</title>
<path fill="none" stroke="#63b8ff" d="M1893.4,-320.94C1999.27,-317.87 2281.19,-306.8 2513.5,-272 2518.48,-271.25 2523.66,-270.33 2528.81,-269.31"/>
<polygon fill="#63b8ff" stroke="#63b8ff" points="2529.39,-272.77 2538.45,-267.28 2527.95,-265.92 2529.39,-272.77"/>
</g>
<!-- Node54 -->
<g id="node42" class="node">
<title>Node54</title>
<g id="a_node42"><a xlink:href="GXPerf_8h.html" target="_top" xlink:title=" ">
<polygon fill="white" stroke="#666666" points="1575,-140 1472,-140 1472,-121 1575,-121 1575,-140"/>
<text text-anchor="middle" x="1523.5" y="-128" font-family="Helvetica,sans-Serif" font-size="10.00">dolphin/gx/GXPerf.h</text>
</a>
</g>
</g>
<!-- Node41&#45;&gt;Node54 -->
<g id="edge59" class="edge">
<title>Node41&#45;&gt;Node54</title>
<path fill="none" stroke="#63b8ff" d="M1824.21,-313.11C1799.15,-304.18 1760.71,-289.3 1729.5,-272 1709.44,-260.88 1706.35,-255.08 1687.5,-242 1637.36,-207.21 1577.78,-167.46 1546.04,-146.41"/>
<polygon fill="#63b8ff" stroke="#63b8ff" points="1548.29,-143.7 1538.02,-141.09 1544.43,-149.54 1548.29,-143.7"/>
</g>
<!-- Node55 -->
<g id="node43" class="node">
<title>Node55</title>
<g id="a_node43"><a xlink:href="GXPixel_8h.html" target="_top" xlink:title=" ">
<polygon fill="#fff0f0" stroke="red" points="2752.5,-266.5 2646.5,-266.5 2646.5,-247.5 2752.5,-247.5 2752.5,-266.5"/>
<text text-anchor="middle" x="2699.5" y="-254.5" font-family="Helvetica,sans-Serif" font-size="10.00">dolphin/gx/GXPixel.h</text>
</a>
</g>
</g>
<!-- Node41&#45;&gt;Node55 -->
<g id="edge61" class="edge">
<title>Node41&#45;&gt;Node55</title>
<path fill="none" stroke="#63b8ff" d="M1893.4,-321.66C2012.26,-320.2 2355.63,-312.52 2637.5,-272 2642.55,-271.27 2647.8,-270.35 2653.01,-269.33"/>
<polygon fill="#63b8ff" stroke="#63b8ff" points="2653.72,-272.76 2662.79,-267.28 2652.28,-265.91 2653.72,-272.76"/>
</g>
<!-- Node56 -->
<g id="node44" class="node">
<title>Node56</title>
<g id="a_node44"><a xlink:href="GXTev_8h.html" target="_top" xlink:title=" ">
<polygon fill="#fff0f0" stroke="red" points="1508,-266.5 1407,-266.5 1407,-247.5 1508,-247.5 1508,-266.5"/>
<text text-anchor="middle" x="1457.5" y="-254.5" font-family="Helvetica,sans-Serif" font-size="10.00">dolphin/gx/GXTev.h</text>
</a>
</g>
</g>
<!-- Node41&#45;&gt;Node56 -->
<g id="edge62" class="edge">
<title>Node41&#45;&gt;Node56</title>
<path fill="none" stroke="#63b8ff" d="M1807.74,-316.7C1744.18,-308.56 1621.14,-291.84 1517.5,-272 1513.43,-271.22 1509.21,-270.36 1504.99,-269.45"/>
<polygon fill="#63b8ff" stroke="#63b8ff" points="1505.89,-266.06 1495.37,-267.31 1504.37,-272.9 1505.89,-266.06"/>
</g>
<!-- Node57 -->
<g id="node45" class="node">
<title>Node57</title>
<g id="a_node45"><a xlink:href="GXTexture_8h.html" target="_top" xlink:title=" ">
<polygon fill="#fff0f0" stroke="red" points="1643,-266.5 1526,-266.5 1526,-247.5 1643,-247.5 1643,-266.5"/>
<text text-anchor="middle" x="1584.5" y="-254.5" font-family="Helvetica,sans-Serif" font-size="10.00">dolphin/gx/GXTexture.h</text>
</a>
</g>
</g>
<!-- Node41&#45;&gt;Node57 -->
<g id="edge63" class="edge">
<title>Node41&#45;&gt;Node57</title>
<path fill="none" stroke="#63b8ff" d="M1813.23,-313.03C1765.94,-301.66 1684.31,-282.01 1632.43,-269.53"/>
<polygon fill="#63b8ff" stroke="#63b8ff" points="1633.53,-266.2 1622.99,-267.26 1631.89,-273 1633.53,-266.2"/>
</g>
<!-- Node59 -->
<g id="node46" class="node">
<title>Node59</title>
<g id="a_node46"><a xlink:href="GXTransform_8h.html" target="_top" xlink:title=" ">
<polygon fill="#fff0f0" stroke="red" points="1350,-266.5 1221,-266.5 1221,-247.5 1350,-247.5 1350,-266.5"/>
<text text-anchor="middle" x="1285.5" y="-254.5" font-family="Helvetica,sans-Serif" font-size="10.00">dolphin/gx/GXTransform.h</text>
</a>
</g>
</g>
<!-- Node41&#45;&gt;Node59 -->
<g id="edge64" class="edge">
<title>Node41&#45;&gt;Node59</title>
<path fill="none" stroke="#63b8ff" d="M1807.79,-317.46C1727.56,-308.9 1548.86,-289.63 1398.5,-272 1386.55,-270.6 1373.89,-269.07 1361.54,-267.56"/>
<polygon fill="#63b8ff" stroke="#63b8ff" points="1362.17,-264.11 1351.82,-266.36 1361.32,-271.06 1362.17,-264.11"/>
</g>
<!-- Node45&#45;&gt;Node7 -->
<g id="edge53" class="edge">
<title>Node45&#45;&gt;Node7</title>
<path fill="none" stroke="#63b8ff" d="M1412.75,-181.05C1290.24,-159.85 983.55,-106.79 860.64,-85.52"/>
<polygon fill="#63b8ff" stroke="#63b8ff" points="861.28,-82.08 850.83,-83.82 860.08,-88.98 861.28,-82.08"/>
</g>
<!-- Node54&#45;&gt;Node7 -->
<g id="edge60" class="edge">
<title>Node54&#45;&gt;Node7</title>
<path fill="none" stroke="#63b8ff" d="M1471.5,-125.65C1339.55,-115.86 992.83,-90.16 860.68,-80.37"/>
<polygon fill="#63b8ff" stroke="#63b8ff" points="861.05,-76.89 850.82,-79.64 860.54,-83.87 861.05,-76.89"/>
</g>
<!-- Node59&#45;&gt;Node23 -->
<g id="edge65" class="edge">
<title>Node59&#45;&gt;Node23</title>
<path fill="none" stroke="#63b8ff" d="M1241.98,-247.05C1232.3,-245.23 1222.07,-243.43 1212.5,-242 1067.61,-220.3 895.8,-204.23 808.17,-196.72"/>
<polygon fill="#63b8ff" stroke="#63b8ff" points="808.66,-193.25 798.4,-195.89 808.07,-200.22 808.66,-193.25"/>
</g>
</g>
</svg>
