<?xml version="1.0" encoding="UTF-8" standalone="no"?>
<!DOCTYPE svg PUBLIC "-//W3C//DTD SVG 1.1//EN"
 "http://www.w3.org/Graphics/SVG/1.1/DTD/svg11.dtd">
<!-- Generated by graphviz version 7.0.5 (20221223.1930)
 -->
<!-- Title: include/JSystem/JSupport/JSUInputStream.h Pages: 1 -->
<!--zoomable 236 -->
<svg id="main" version="1.1" xmlns="http://www.w3.org/2000/svg" xmlns:xlink="http://www.w3.org/1999/xlink" xml:space="preserve" onload="init(evt)">
<style type="text/css"><![CDATA[
.edge:hover path { stroke: red; }
.edge:hover polygon { stroke: red; fill: red; }
]]></style>
<script type="text/javascript"><![CDATA[
var edges = document.getElementsByTagName('g');
if (edges && edges.length) {
  for (var i=0;i<edges.length;i++) {
    if (edges[i].id.substr(0,4)=='edge') {
      edges[i].setAttribute('class','edge');
    }
  }
}
]]></script>
        <defs>
                <circle id="rim" cx="0" cy="0" r="7"/>
                <circle id="rim2" cx="0" cy="0" r="3.5"/>
                <g id="zoomPlus">
                        <use xlink:href="#rim" fill="#404040">
                                <set attributeName="fill" to="#808080" begin="zoomplus.mouseover" end="zoomplus.mouseout"/>
                        </use>
                        <path d="M-4,0h8M0,-4v8" fill="none" stroke="white" stroke-width="1.5" pointer-events="none"/>
                </g>
                <g id="zoomMin">
                        <use xlink:href="#rim" fill="#404040">
                                <set attributeName="fill" to="#808080" begin="zoomminus.mouseover" end="zoomminus.mouseout"/>
                        </use>
                        <path d="M-4,0h8" fill="none" stroke="white" stroke-width="1.5" pointer-events="none"/>
                </g>
                <g id="dirArrow">
                        <path fill="none" stroke="white" stroke-width="1.5" d="M0,-3.0v7 M-2.5,-0.5L0,-3.0L2.5,-0.5"/>
                </g>
               <g id="resetDef">
                       <use xlink:href="#rim2" fill="#404040">
                               <set attributeName="fill" to="#808080" begin="reset.mouseover" end="reset.mouseout"/>
                       </use>
               </g>
        </defs>

<script type="text/javascript">
var viewWidth = 1347;
var viewHeight = 236;
var sectionId = 'dynsection-1';
</script>
<script xlink:href="svgpan.js"/>
<svg id="graph" class="graph">
<g id="viewport">
<title>include/JSystem/JSupport/JSUInputStream.h</title>
<!-- Node1 -->
<g id="node1" class="node">
<title>Node1</title>
<g id="a_node1"><a xlink:title=" ">
<polygon fill="#999999" stroke="#666666" points="1176,-228 1045,-228 1045,-198 1176,-198 1176,-228"/>
<text text-anchor="start" x="1053" y="-216" font-family="Helvetica,sans-Serif" font-size="10.00">include/JSystem/JSupport</text>
<text text-anchor="middle" x="1110.5" y="-205" font-family="Helvetica,sans-Serif" font-size="10.00">/JSUInputStream.h</text>
</a>
</g>
</g>
<!-- Node2 -->
<g id="node2" class="node">
<title>Node2</title>
<g id="a_node2"><a xlink:href="JSURandomInputStream_8h.html" target="_top" xlink:title=" ">
<polygon fill="white" stroke="#666666" points="882.5,-162 746.5,-162 746.5,-132 882.5,-132 882.5,-162"/>
<text text-anchor="start" x="754.5" y="-150" font-family="Helvetica,sans-Serif" font-size="10.00">include/JSystem/JSupport</text>
<text text-anchor="middle" x="814.5" y="-139" font-family="Helvetica,sans-Serif" font-size="10.00">/JSURandomInputStream.h</text>
</a>
</g>
</g>
<!-- Node1&#45;&gt;Node2 -->
<g id="edge1" class="edge">
<title>Node1&#45;&gt;Node2</title>
<path fill="none" stroke="#63b8ff" d="M1033.73,-195.4C986.58,-185.21 926.78,-172.28 881.55,-162.5"/>
<polygon fill="#63b8ff" stroke="#63b8ff" points="1032.81,-198.78 1043.33,-197.48 1034.29,-191.94 1032.81,-198.78"/>
</g>
<!-- Node15 -->
<g id="node15" class="node">
<title>Node15</title>
<g id="a_node15"><a xlink:href="JSUInputStream_8cpp.html" target="_top" xlink:title=" ">
<polygon fill="white" stroke="#666666" points="1281,-96 1166,-96 1166,-66 1281,-66 1281,-96"/>
<text text-anchor="start" x="1174" y="-84" font-family="Helvetica,sans-Serif" font-size="10.00">libs/JSystem/JSupport</text>
<text text-anchor="middle" x="1223.5" y="-73" font-family="Helvetica,sans-Serif" font-size="10.00">/JSUInputStream.cpp</text>
</a>
</g>
</g>
<!-- Node1&#45;&gt;Node15 -->
<g id="edge16" class="edge">
<title>Node1&#45;&gt;Node15</title>
<path fill="none" stroke="#63b8ff" d="M1092.83,-188.34C1082.53,-171.45 1073.7,-148.83 1085.5,-132 1095.27,-118.07 1132.38,-105.07 1165.65,-95.82"/>
<polygon fill="#63b8ff" stroke="#63b8ff" points="1089.64,-189.86 1098.07,-196.28 1095.48,-186 1089.64,-189.86"/>
</g>
<!-- Node16 -->
<g id="node16" class="node">
<title>Node16</title>
<g id="a_node16"><a xlink:href="J2DManage_8cpp.html" target="_top" xlink:title=" ">
<polygon fill="white" stroke="#666666" points="1214,-162 1095,-162 1095,-132 1214,-132 1214,-162"/>
<text text-anchor="start" x="1103" y="-150" font-family="Helvetica,sans-Serif" font-size="10.00">libs/JSystem/J2DGraph</text>
<text text-anchor="middle" x="1154.5" y="-139" font-family="Helvetica,sans-Serif" font-size="10.00">/J2DManage.cpp</text>
</a>
</g>
</g>
<!-- Node1&#45;&gt;Node16 -->
<g id="edge15" class="edge">
<title>Node1&#45;&gt;Node16</title>
<path fill="none" stroke="#63b8ff" d="M1126.73,-188.39C1132.78,-179.59 1139.47,-169.86 1144.76,-162.16"/>
<polygon fill="#63b8ff" stroke="#63b8ff" points="1123.9,-186.33 1121.12,-196.55 1129.67,-190.29 1123.9,-186.33"/>
</g>
<!-- Node17 -->
<g id="node17" class="node">
<title>Node17</title>
<g id="a_node17"><a xlink:href="JUTResource_8cpp.html" target="_top" xlink:title=" ">
<polygon fill="white" stroke="#666666" points="1338.5,-162 1232.5,-162 1232.5,-132 1338.5,-132 1338.5,-162"/>
<text text-anchor="start" x="1240.5" y="-150" font-family="Helvetica,sans-Serif" font-size="10.00">libs/JSystem/JUtility</text>
<text text-anchor="middle" x="1285.5" y="-139" font-family="Helvetica,sans-Serif" font-size="10.00">/JUTResource.cpp</text>
</a>
</g>
</g>
<!-- Node1&#45;&gt;Node17 -->
<g id="edge17" class="edge">
<title>Node1&#45;&gt;Node17</title>
<path fill="none" stroke="#63b8ff" d="M1160.25,-193.8C1187.45,-183.86 1220.67,-171.71 1246.06,-162.43"/>
<polygon fill="#63b8ff" stroke="#63b8ff" points="1159.38,-190.4 1151.19,-197.12 1161.79,-196.97 1159.38,-190.4"/>
</g>
<!-- Node3 -->
<g id="node3" class="node">
<title>Node3</title>
<g id="a_node3"><a xlink:href="JSUFileStream_8h.html" target="_top" xlink:title=" ">
<polygon fill="white" stroke="#666666" points="252,-96 121,-96 121,-66 252,-66 252,-96"/>
<text text-anchor="start" x="129" y="-84" font-family="Helvetica,sans-Serif" font-size="10.00">include/JSystem/JSupport</text>
<text text-anchor="middle" x="186.5" y="-73" font-family="Helvetica,sans-Serif" font-size="10.00">/JSUFileStream.h</text>
</a>
</g>
</g>
<!-- Node2&#45;&gt;Node3 -->
<g id="edge2" class="edge">
<title>Node2&#45;&gt;Node3</title>
<path fill="none" stroke="#63b8ff" d="M734.84,-137.94C637.53,-128.08 467.92,-110.87 322.5,-96 299.6,-93.66 274.52,-91.08 252.21,-88.78"/>
<polygon fill="#63b8ff" stroke="#63b8ff" points="734.24,-141.39 744.54,-138.92 734.95,-134.43 734.24,-141.39"/>
</g>
<!-- Node6 -->
<g id="node6" class="node">
<title>Node6</title>
<g id="a_node6"><a xlink:href="JSUMemoryStream_8h.html" target="_top" xlink:title=" ">
<polygon fill="white" stroke="#666666" points="463,-96 332,-96 332,-66 463,-66 463,-96"/>
<text text-anchor="start" x="340" y="-84" font-family="Helvetica,sans-Serif" font-size="10.00">include/JSystem/JSupport</text>
<text text-anchor="middle" x="397.5" y="-73" font-family="Helvetica,sans-Serif" font-size="10.00">/JSUMemoryStream.h</text>
</a>
</g>
</g>
<!-- Node2&#45;&gt;Node6 -->
<g id="edge5" class="edge">
<title>Node2&#45;&gt;Node6</title>
<path fill="none" stroke="#63b8ff" d="M734.73,-135.34C665.12,-125.81 561.46,-111.06 471.5,-96 468.79,-95.55 466.03,-95.07 463.24,-94.59"/>
<polygon fill="#63b8ff" stroke="#63b8ff" points="734.15,-138.8 744.54,-136.68 735.1,-131.86 734.15,-138.8"/>
</g>
<!-- Node10 -->
<g id="node10" class="node">
<title>Node10</title>
<g id="a_node10"><a xlink:href="J2DPane_8cpp.html" target="_top" xlink:title=" ">
<polygon fill="white" stroke="#666666" points="600,-96 481,-96 481,-66 600,-66 600,-96"/>
<text text-anchor="start" x="489" y="-84" font-family="Helvetica,sans-Serif" font-size="10.00">libs/JSystem/J2DGraph</text>
<text text-anchor="middle" x="540.5" y="-73" font-family="Helvetica,sans-Serif" font-size="10.00">/J2DPane.cpp</text>
</a>
</g>
</g>
<!-- Node2&#45;&gt;Node10 -->
<g id="edge9" class="edge">
<title>Node2&#45;&gt;Node10</title>
<path fill="none" stroke="#63b8ff" d="M741.7,-128.99C697.51,-118.67 641.81,-105.66 600.23,-95.95"/>
<polygon fill="#63b8ff" stroke="#63b8ff" points="740.66,-132.35 751.19,-131.21 742.25,-125.53 740.66,-132.35"/>
</g>
<!-- Node11 -->
<g id="node11" class="node">
<title>Node11</title>
<g id="a_node11"><a xlink:href="J2DPictureEx_8cpp.html" target="_top" xlink:title=" ">
<polygon fill="white" stroke="#666666" points="737,-96 618,-96 618,-66 737,-66 737,-96"/>
<text text-anchor="start" x="626" y="-84" font-family="Helvetica,sans-Serif" font-size="10.00">libs/JSystem/J2DGraph</text>
<text text-anchor="middle" x="677.5" y="-73" font-family="Helvetica,sans-Serif" font-size="10.00">/J2DPictureEx.cpp</text>
</a>
</g>
</g>
<!-- Node2&#45;&gt;Node11 -->
<g id="edge10" class="edge">
<title>Node2&#45;&gt;Node11</title>
<path fill="none" stroke="#63b8ff" d="M773.52,-126.86C752.54,-117.05 727.42,-105.32 708.14,-96.31"/>
<polygon fill="#63b8ff" stroke="#63b8ff" points="771.84,-129.94 782.38,-131 774.8,-123.59 771.84,-129.94"/>
</g>
<!-- Node12 -->
<g id="node12" class="node">
<title>Node12</title>
<g id="a_node12"><a xlink:href="J2DTextBox_8cpp.html" target="_top" xlink:title=" ">
<polygon fill="white" stroke="#666666" points="874,-96 755,-96 755,-66 874,-66 874,-96"/>
<text text-anchor="start" x="763" y="-84" font-family="Helvetica,sans-Serif" font-size="10.00">libs/JSystem/J2DGraph</text>
<text text-anchor="middle" x="814.5" y="-73" font-family="Helvetica,sans-Serif" font-size="10.00">/J2DTextBox.cpp</text>
</a>
</g>
</g>
<!-- Node2&#45;&gt;Node12 -->
<g id="edge11" class="edge">
<title>Node2&#45;&gt;Node12</title>
<path fill="none" stroke="#63b8ff" d="M814.5,-120.39C814.5,-112.13 814.5,-103.28 814.5,-96.16"/>
<polygon fill="#63b8ff" stroke="#63b8ff" points="811,-120.28 814.5,-130.28 818,-120.28 811,-120.28"/>
</g>
<!-- Node13 -->
<g id="node13" class="node">
<title>Node13</title>
<g id="a_node13"><a xlink:href="J2DTextBoxEx_8cpp.html" target="_top" xlink:title=" ">
<polygon fill="white" stroke="#666666" points="1011,-96 892,-96 892,-66 1011,-66 1011,-96"/>
<text text-anchor="start" x="900" y="-84" font-family="Helvetica,sans-Serif" font-size="10.00">libs/JSystem/J2DGraph</text>
<text text-anchor="middle" x="951.5" y="-73" font-family="Helvetica,sans-Serif" font-size="10.00">/J2DTextBoxEx.cpp</text>
</a>
</g>
</g>
<!-- Node2&#45;&gt;Node13 -->
<g id="edge12" class="edge">
<title>Node2&#45;&gt;Node13</title>
<path fill="none" stroke="#63b8ff" d="M855.48,-126.86C876.46,-117.05 901.58,-105.32 920.86,-96.31"/>
<polygon fill="#63b8ff" stroke="#63b8ff" points="854.2,-123.59 846.62,-131 857.16,-129.94 854.2,-123.59"/>
</g>
<!-- Node14 -->
<g id="node14" class="node">
<title>Node14</title>
<g id="a_node14"><a xlink:href="J2DWindow_8cpp.html" target="_top" xlink:title=" ">
<polygon fill="white" stroke="#666666" points="1148,-96 1029,-96 1029,-66 1148,-66 1148,-96"/>
<text text-anchor="start" x="1037" y="-84" font-family="Helvetica,sans-Serif" font-size="10.00">libs/JSystem/J2DGraph</text>
<text text-anchor="middle" x="1088.5" y="-73" font-family="Helvetica,sans-Serif" font-size="10.00">/J2DWindow.cpp</text>
</a>
</g>
</g>
<!-- Node2&#45;&gt;Node14 -->
<g id="edge13" class="edge">
<title>Node2&#45;&gt;Node14</title>
<path fill="none" stroke="#63b8ff" d="M887.3,-128.99C931.49,-118.67 987.19,-105.66 1028.77,-95.95"/>
<polygon fill="#63b8ff" stroke="#63b8ff" points="886.75,-125.53 877.81,-131.21 888.34,-132.35 886.75,-125.53"/>
</g>
<!-- Node2&#45;&gt;Node15 -->
<g id="edge14" class="edge">
<title>Node2&#45;&gt;Node15</title>
<path fill="none" stroke="#63b8ff" d="M894.03,-135.88C963.69,-126.67 1067.58,-112.07 1157.5,-96 1160.15,-95.53 1162.86,-95.02 1165.59,-94.5"/>
<polygon fill="#63b8ff" stroke="#63b8ff" points="893.67,-132.4 884.22,-137.17 894.59,-139.34 893.67,-132.4"/>
</g>
<!-- Node4 -->
<g id="node4" class="node">
<title>Node4</title>
<g id="a_node4"><a xlink:href="JKRAramStream_8cpp.html" target="_top" xlink:title=" ">
<polygon fill="white" stroke="#666666" points="111,-30 0,-30 0,0 111,0 111,-30"/>
<text text-anchor="start" x="8" y="-18" font-family="Helvetica,sans-Serif" font-size="10.00">libs/JSystem/JKernel</text>
<text text-anchor="middle" x="55.5" y="-7" font-family="Helvetica,sans-Serif" font-size="10.00">/JKRAramStream.cpp</text>
</a>
</g>
</g>
<!-- Node3&#45;&gt;Node4 -->
<g id="edge3" class="edge">
<title>Node3&#45;&gt;Node4</title>
<path fill="none" stroke="#63b8ff" d="M146.77,-60.59C126.81,-50.84 103.07,-39.24 84.8,-30.31"/>
<polygon fill="#63b8ff" stroke="#63b8ff" points="145.22,-63.73 155.74,-64.97 148.29,-57.44 145.22,-63.73"/>
</g>
<!-- Node5 -->
<g id="node5" class="node">
<title>Node5</title>
<g id="a_node5"><a xlink:href="JSUFileStream_8cpp.html" target="_top" xlink:title=" ">
<polygon fill="white" stroke="#666666" points="244,-30 129,-30 129,0 244,0 244,-30"/>
<text text-anchor="start" x="137" y="-18" font-family="Helvetica,sans-Serif" font-size="10.00">libs/JSystem/JSupport</text>
<text text-anchor="middle" x="186.5" y="-7" font-family="Helvetica,sans-Serif" font-size="10.00">/JSUFileStream.cpp</text>
</a>
</g>
</g>
<!-- Node3&#45;&gt;Node5 -->
<g id="edge4" class="edge">
<title>Node3&#45;&gt;Node5</title>
<path fill="none" stroke="#63b8ff" d="M186.5,-54.39C186.5,-46.13 186.5,-37.28 186.5,-30.16"/>
<polygon fill="#63b8ff" stroke="#63b8ff" points="183,-54.28 186.5,-64.28 190,-54.28 183,-54.28"/>
</g>
<!-- Node7 -->
<g id="node7" class="node">
<title>Node7</title>
<g id="a_node7"><a xlink:href="J2DScreen_8cpp.html" target="_top" xlink:title=" ">
<polygon fill="white" stroke="#666666" points="381,-30 262,-30 262,0 381,0 381,-30"/>
<text text-anchor="start" x="270" y="-18" font-family="Helvetica,sans-Serif" font-size="10.00">libs/JSystem/J2DGraph</text>
<text text-anchor="middle" x="321.5" y="-7" font-family="Helvetica,sans-Serif" font-size="10.00">/J2DScreen.cpp</text>
</a>
</g>
</g>
<!-- Node6&#45;&gt;Node7 -->
<g id="edge6" class="edge">
<title>Node6&#45;&gt;Node7</title>
<path fill="none" stroke="#63b8ff" d="M371.88,-58.42C360.91,-49.18 348.39,-38.65 338.58,-30.39"/>
<polygon fill="#63b8ff" stroke="#63b8ff" points="369.57,-61.06 379.48,-64.82 374.08,-55.7 369.57,-61.06"/>
</g>
<!-- Node8 -->
<g id="node8" class="node">
<title>Node8</title>
<g id="a_node8"><a xlink:href="JSUMemoryStream_8cpp.html" target="_top" xlink:title=" ">
<polygon fill="white" stroke="#666666" points="522,-30 399,-30 399,0 522,0 522,-30"/>
<text text-anchor="start" x="407" y="-18" font-family="Helvetica,sans-Serif" font-size="10.00">libs/JSystem/JSupport</text>
<text text-anchor="middle" x="460.5" y="-7" font-family="Helvetica,sans-Serif" font-size="10.00">/JSUMemoryStream.cpp</text>
</a>
</g>
</g>
<!-- Node6&#45;&gt;Node8 -->
<g id="edge7" class="edge">
<title>Node6&#45;&gt;Node8</title>
<path fill="none" stroke="#63b8ff" d="M419.35,-57.81C428.37,-48.64 438.57,-38.28 446.56,-30.16"/>
<polygon fill="#63b8ff" stroke="#63b8ff" points="417.06,-55.14 412.54,-64.72 422.05,-60.05 417.06,-55.14"/>
</g>
<!-- Node9 -->
<g id="node9" class="node">
<title>Node9</title>
<g id="a_node9"><a xlink:href="d__pane__class_8cpp.html" target="_top" xlink:title=" ">
<polygon fill="white" stroke="#666666" points="683,-24.5 540,-24.5 540,-5.5 683,-5.5 683,-24.5"/>
<text text-anchor="middle" x="611.5" y="-12.5" font-family="Helvetica,sans-Serif" font-size="10.00">src/d/pane/d_pane_class.cpp</text>
</a>
</g>
</g>
<!-- Node6&#45;&gt;Node9 -->
<g id="edge8" class="edge">
<title>Node6&#45;&gt;Node9</title>
<path fill="none" stroke="#63b8ff" d="M456.63,-62.32C497.18,-50.19 549.29,-34.61 581.53,-24.96"/>
<polygon fill="#63b8ff" stroke="#63b8ff" points="455.82,-58.91 447.24,-65.12 457.83,-65.61 455.82,-58.91"/>
</g>
</g>
</svg>
        <g id="navigator" transform="translate(0 0)" fill="#404254">
                <rect fill="#f2f5e9" fill-opacity="0.5" stroke="#606060" stroke-width=".5" x="0" y="0" width="60" height="60"/>
                <use id="zoomplus" xlink:href="#zoomPlus" x="17" y="9" onmousedown="handleZoom(evt,'in')"/>
                <use id="zoomminus" xlink:href="#zoomMin" x="42" y="9" onmousedown="handleZoom(evt,'out')"/>
                <use id="reset" xlink:href="#resetDef" x="30" y="36" onmousedown="handleReset()"/>
                <g id="arrowUp" xlink:href="#dirArrow" transform="translate(30 24)" onmousedown="handlePan(0,-1)">
                  <use xlink:href="#rim" fill="#404040">
                        <set attributeName="fill" to="#808080" begin="arrowUp.mouseover" end="arrowUp.mouseout"/>
                  </use>
                  <path fill="none" stroke="white" stroke-width="1.5" d="M0,-3.0v7 M-2.5,-0.5L0,-3.0L2.5,-0.5"/>
                </g>
                <g id="arrowRight" xlink:href="#dirArrow" transform="rotate(90) translate(36 -43)" onmousedown="handlePan(1,0)">
                  <use xlink:href="#rim" fill="#404040">
                        <set attributeName="fill" to="#808080" begin="arrowRight.mouseover" end="arrowRight.mouseout"/>
                  </use>
                  <path fill="none" stroke="white" stroke-width="1.5" d="M0,-3.0v7 M-2.5,-0.5L0,-3.0L2.5,-0.5"/>
                </g>
                <g id="arrowDown" xlink:href="#dirArrow" transform="rotate(180) translate(-30 -48)" onmousedown="handlePan(0,1)">
                  <use xlink:href="#rim" fill="#404040">
                        <set attributeName="fill" to="#808080" begin="arrowDown.mouseover" end="arrowDown.mouseout"/>
                  </use>
                  <path fill="none" stroke="white" stroke-width="1.5" d="M0,-3.0v7 M-2.5,-0.5L0,-3.0L2.5,-0.5"/>
                </g>
                <g id="arrowLeft" xlink:href="#dirArrow" transform="rotate(270) translate(-36 17)" onmousedown="handlePan(-1,0)">
                  <use xlink:href="#rim" fill="#404040">
                        <set attributeName="fill" to="#808080" begin="arrowLeft.mouseover" end="arrowLeft.mouseout"/>
                  </use>
                  <path fill="none" stroke="white" stroke-width="1.5" d="M0,-3.0v7 M-2.5,-0.5L0,-3.0L2.5,-0.5"/>
                </g>
        </g>
        <svg viewBox="0 0 15 15" width="100%" height="30px" preserveAspectRatio="xMaxYMin meet">
         <g id="arrow_out" transform="scale(0.3 0.3)">
          <a xlink:href="JSUInputStream_8h__dep__incl_org.svg" target="_base">
           <rect id="button" ry="5" rx="5" y="6" x="6" height="38" width="38"
                fill="#f2f5e9" fill-opacity="0.5" stroke="#606060" stroke-width="1.0"/>
           <path id="arrow"
             d="M 11.500037,31.436501 C 11.940474,20.09759 22.043105,11.32322 32.158766,21.979434 L 37.068811,17.246167 C 37.068811,17.246167 37.088388,32 37.088388,32 L 22.160133,31.978069 C 22.160133,31.978069 26.997745,27.140456 26.997745,27.140456 C 18.528582,18.264221 13.291696,25.230495 11.500037,31.436501 z"
             style="fill:#404040;"/>
          </a>
         </g>
        </svg>
</svg>
