<?xml version="1.0" encoding="UTF-8" standalone="no"?>
<!DOCTYPE svg PUBLIC "-//W3C//DTD SVG 1.1//EN"
 "http://www.w3.org/Graphics/SVG/1.1/DTD/svg11.dtd">
<!-- Generated by graphviz version 7.0.5 (20221223.1930)
 -->
<!-- Title: libs/JSystem/JUtility/JUTAssert.cpp Pages: 1 -->
<svg width="716pt" height="467pt"
 viewBox="0.00 0.00 716.00 467.00" xmlns="http://www.w3.org/2000/svg" xmlns:xlink="http://www.w3.org/1999/xlink">
<g id="graph0" class="graph" transform="scale(1 1) rotate(0) translate(4 463)">
<title>libs/JSystem/JUtility/JUTAssert.cpp</title>
<!-- Node1 -->
<g id="node1" class="node">
<title>Node1</title>
<g id="a_node1"><a xlink:title=" ">
<polygon fill="#999999" stroke="#666666" points="532,-459 426,-459 426,-429 532,-429 532,-459"/>
<text text-anchor="start" x="434" y="-447" font-family="Helvetica,sans-Serif" font-size="10.00">libs/JSystem/JUtility</text>
<text text-anchor="middle" x="479" y="-436" font-family="Helvetica,sans-Serif" font-size="10.00">/JUTAssert.cpp</text>
</a>
</g>
</g>
<!-- Node2 -->
<g id="node2" class="node">
<title>Node2</title>
<g id="a_node2"><a xlink:href="JUTAssert_8h.html" target="_top" xlink:title=" ">
<polygon fill="white" stroke="#666666" points="708,-206 562,-206 562,-187 708,-187 708,-206"/>
<text text-anchor="middle" x="635" y="-194" font-family="Helvetica,sans-Serif" font-size="10.00">JSystem/JUtility/JUTAssert.h</text>
</a>
</g>
</g>
<!-- Node1&#45;&gt;Node2 -->
<g id="edge1" class="edge">
<title>Node1&#45;&gt;Node2</title>
<path fill="none" stroke="#63b8ff" d="M516.56,-428.64C533.67,-420.45 552.96,-408.66 566,-393 610.48,-339.57 627.12,-255.46 632.61,-217.4"/>
<polygon fill="#63b8ff" stroke="#63b8ff" points="636.03,-218.23 633.87,-207.86 629.09,-217.32 636.03,-218.23"/>
</g>
<!-- Node5 -->
<g id="node5" class="node">
<title>Node5</title>
<g id="a_node5"><a xlink:href="JUTDbPrint_8h.html" target="_top" xlink:title=" ">
<polygon fill="white" stroke="#666666" points="391.5,-393 242.5,-393 242.5,-374 391.5,-374 391.5,-393"/>
<text text-anchor="middle" x="317" y="-381" font-family="Helvetica,sans-Serif" font-size="10.00">JSystem/JUtility/JUTDbPrint.h</text>
</a>
</g>
</g>
<!-- Node1&#45;&gt;Node5 -->
<g id="edge4" class="edge">
<title>Node1&#45;&gt;Node5</title>
<path fill="none" stroke="#63b8ff" d="M438.96,-428.54C412.35,-418.93 377.74,-406.43 352.19,-397.21"/>
<polygon fill="#63b8ff" stroke="#63b8ff" points="353.51,-393.96 342.92,-393.86 351.14,-400.55 353.51,-393.96"/>
</g>
<!-- Node14 -->
<g id="node14" class="node">
<title>Node14</title>
<g id="a_node14"><a xlink:href="JUTDirectPrint_8h.html" target="_top" xlink:title=" ">
<polygon fill="white" stroke="#666666" points="505.5,-338 370.5,-338 370.5,-308 505.5,-308 505.5,-338"/>
<text text-anchor="start" x="378.5" y="-326" font-family="Helvetica,sans-Serif" font-size="10.00">JSystem/JUtility/JUTDirect</text>
<text text-anchor="middle" x="438" y="-315" font-family="Helvetica,sans-Serif" font-size="10.00">Print.h</text>
</a>
</g>
</g>
<!-- Node1&#45;&gt;Node14 -->
<g id="edge16" class="edge">
<title>Node1&#45;&gt;Node14</title>
<path fill="none" stroke="#63b8ff" d="M474.14,-428.88C467.39,-409.31 455.09,-373.59 446.73,-349.34"/>
<polygon fill="#63b8ff" stroke="#63b8ff" points="450.05,-348.22 443.48,-339.9 443.43,-350.5 450.05,-348.22"/>
</g>
<!-- Node16 -->
<g id="node16" class="node">
<title>Node16</title>
<g id="a_node16"><a xlink:href="vi_8h.html" target="_top" xlink:title=" ">
<polygon fill="white" stroke="#666666" points="557,-393 481,-393 481,-374 557,-374 557,-393"/>
<text text-anchor="middle" x="519" y="-381" font-family="Helvetica,sans-Serif" font-size="10.00">dolphin/vi/vi.h</text>
</a>
</g>
</g>
<!-- Node1&#45;&gt;Node16 -->
<g id="edge20" class="edge">
<title>Node1&#45;&gt;Node16</title>
<path fill="none" stroke="#63b8ff" d="M488.89,-428.54C494.28,-420.65 501.01,-410.81 506.74,-402.44"/>
<polygon fill="#63b8ff" stroke="#63b8ff" points="509.46,-404.65 512.21,-394.42 503.68,-400.7 509.46,-404.65"/>
</g>
<!-- Node3 -->
<g id="node3" class="node">
<title>Node3</title>
<g id="a_node3"><a xlink:href="types_8h.html" target="_top" xlink:title=" ">
<polygon fill="white" stroke="#666666" points="543.5,-90.5 462.5,-90.5 462.5,-71.5 543.5,-71.5 543.5,-90.5"/>
<text text-anchor="middle" x="503" y="-78.5" font-family="Helvetica,sans-Serif" font-size="10.00">dolphin/types.h</text>
</a>
</g>
</g>
<!-- Node2&#45;&gt;Node3 -->
<g id="edge2" class="edge">
<title>Node2&#45;&gt;Node3</title>
<path fill="none" stroke="#63b8ff" d="M624.64,-186.59C602.47,-167.53 550.15,-122.54 521.89,-98.24"/>
<polygon fill="#63b8ff" stroke="#63b8ff" points="524.32,-95.72 514.46,-91.85 519.76,-101.03 524.32,-95.72"/>
</g>
<!-- Node4 -->
<g id="node4" class="node">
<title>Node4</title>
<g id="a_node4"><a xlink:href="stddef_8h.html" target="_top" xlink:title=" ">
<polygon fill="white" stroke="#666666" points="444,-30 308,-30 308,0 444,0 444,-30"/>
<text text-anchor="start" x="316" y="-18" font-family="Helvetica,sans-Serif" font-size="10.00">MSL_C/MSL_Common/Src</text>
<text text-anchor="middle" x="376" y="-7" font-family="Helvetica,sans-Serif" font-size="10.00">/stddef.h</text>
</a>
</g>
</g>
<!-- Node3&#45;&gt;Node4 -->
<g id="edge3" class="edge">
<title>Node3&#45;&gt;Node4</title>
<path fill="none" stroke="#63b8ff" d="M485.34,-71.1C467.17,-61.95 438.29,-47.39 414.77,-35.54"/>
<polygon fill="#63b8ff" stroke="#63b8ff" points="416.59,-32.53 406.08,-31.16 413.44,-38.78 416.59,-32.53"/>
</g>
<!-- Node6 -->
<g id="node6" class="node">
<title>Node6</title>
<g id="a_node6"><a xlink:href="JUTFont_8h.html" target="_top" xlink:title=" ">
<polygon fill="white" stroke="#666666" points="352.5,-332.5 215.5,-332.5 215.5,-313.5 352.5,-313.5 352.5,-332.5"/>
<text text-anchor="middle" x="284" y="-320.5" font-family="Helvetica,sans-Serif" font-size="10.00">JSystem/JUtility/JUTFont.h</text>
</a>
</g>
</g>
<!-- Node5&#45;&gt;Node6 -->
<g id="edge5" class="edge">
<title>Node5&#45;&gt;Node6</title>
<path fill="none" stroke="#63b8ff" d="M312.13,-373.87C307.5,-365.66 300.38,-353.04 294.47,-342.55"/>
<polygon fill="#63b8ff" stroke="#63b8ff" points="297.59,-340.98 289.63,-333.99 291.5,-344.41 297.59,-340.98"/>
</g>
<!-- Node7 -->
<g id="node7" class="node">
<title>Node7</title>
<g id="a_node7"><a xlink:href="TColor_8h.html" target="_top" xlink:title=" ">
<polygon fill="white" stroke="#666666" points="377.5,-266.5 250.5,-266.5 250.5,-247.5 377.5,-247.5 377.5,-266.5"/>
<text text-anchor="middle" x="314" y="-254.5" font-family="Helvetica,sans-Serif" font-size="10.00">JSystem/JUtility/TColor.h</text>
</a>
</g>
</g>
<!-- Node6&#45;&gt;Node7 -->
<g id="edge6" class="edge">
<title>Node6&#45;&gt;Node7</title>
<path fill="none" stroke="#63b8ff" d="M288.17,-313.1C292.51,-303.84 299.45,-289.04 305.04,-277.11"/>
<polygon fill="#63b8ff" stroke="#63b8ff" points="308.15,-278.73 309.22,-268.19 301.81,-275.76 308.15,-278.73"/>
</g>
<!-- Node10 -->
<g id="node10" class="node">
<title>Node10</title>
<g id="a_node10"><a xlink:href="string_8h.html" target="_top" xlink:title=" ">
<polygon fill="white" stroke="#666666" points="264,-151 180,-151 180,-132 264,-132 264,-151"/>
<text text-anchor="middle" x="222" y="-139" font-family="Helvetica,sans-Serif" font-size="10.00">MSL_C/string.h</text>
</a>
</g>
</g>
<!-- Node6&#45;&gt;Node10 -->
<g id="edge10" class="edge">
<title>Node6&#45;&gt;Node10</title>
<path fill="none" stroke="#63b8ff" d="M273.6,-313.21C263.5,-304.03 248.6,-288.67 241,-272 224.62,-236.1 221.72,-189.31 221.55,-162.93"/>
<polygon fill="#63b8ff" stroke="#63b8ff" points="225.05,-163 221.63,-152.97 218.05,-162.94 225.05,-163"/>
</g>
<!-- Node8 -->
<g id="node8" class="node">
<title>Node8</title>
<g id="a_node8"><a xlink:href="GXStruct_8h.html" target="_top" xlink:title=" ">
<polygon fill="white" stroke="#666666" points="390.5,-206 279.5,-206 279.5,-187 390.5,-187 390.5,-206"/>
<text text-anchor="middle" x="335" y="-194" font-family="Helvetica,sans-Serif" font-size="10.00">dolphin/gx/GXStruct.h</text>
</a>
</g>
</g>
<!-- Node7&#45;&gt;Node8 -->
<g id="edge7" class="edge">
<title>Node7&#45;&gt;Node8</title>
<path fill="none" stroke="#63b8ff" d="M317.1,-247.37C319.98,-239.33 324.38,-227.07 328.1,-216.72"/>
<polygon fill="#63b8ff" stroke="#63b8ff" points="331.29,-218.19 331.38,-207.59 324.7,-215.82 331.29,-218.19"/>
</g>
<!-- Node9 -->
<g id="node9" class="node">
<title>Node9</title>
<g id="a_node9"><a xlink:href="global_8h.html" target="_top" xlink:title=" ">
<polygon fill="white" stroke="#666666" points="403,-151 353,-151 353,-132 403,-132 403,-151"/>
<text text-anchor="middle" x="378" y="-139" font-family="Helvetica,sans-Serif" font-size="10.00">global.h</text>
</a>
</g>
</g>
<!-- Node8&#45;&gt;Node9 -->
<g id="edge8" class="edge">
<title>Node8&#45;&gt;Node9</title>
<path fill="none" stroke="#63b8ff" d="M342.1,-186.75C347.92,-179.58 356.33,-169.2 363.56,-160.3"/>
<polygon fill="#63b8ff" stroke="#63b8ff" points="366.21,-162.59 369.79,-152.62 360.77,-158.18 366.21,-162.59"/>
</g>
<!-- Node9&#45;&gt;Node3 -->
<g id="edge9" class="edge">
<title>Node9&#45;&gt;Node3</title>
<path fill="none" stroke="#63b8ff" d="M396.98,-131.62C417.36,-122.08 449.98,-106.81 473.66,-95.73"/>
<polygon fill="#63b8ff" stroke="#63b8ff" points="474.89,-99.02 482.47,-91.61 471.92,-92.68 474.89,-99.02"/>
</g>
<!-- Node11 -->
<g id="node11" class="node">
<title>Node11</title>
<g id="a_node11"><a xlink:href="extras_8h.html" target="_top" xlink:title=" ">
<polygon fill="white" stroke="#666666" points="136,-96 0,-96 0,-66 136,-66 136,-96"/>
<text text-anchor="start" x="8" y="-84" font-family="Helvetica,sans-Serif" font-size="10.00">MSL_C/MSL_Common/Src</text>
<text text-anchor="middle" x="68" y="-73" font-family="Helvetica,sans-Serif" font-size="10.00">/extras.h</text>
</a>
</g>
</g>
<!-- Node10&#45;&gt;Node11 -->
<g id="edge11" class="edge">
<title>Node10&#45;&gt;Node11</title>
<path fill="none" stroke="#63b8ff" d="M198.61,-131.62C176.92,-123.38 143.96,-110.86 116.58,-100.45"/>
<polygon fill="#63b8ff" stroke="#63b8ff" points="118.02,-97.26 107.43,-96.98 115.53,-103.8 118.02,-97.26"/>
</g>
<!-- Node12 -->
<g id="node12" class="node">
<title>Node12</title>
<g id="a_node12"><a xlink:href="mem_8h.html" target="_top" xlink:title=" ">
<polygon fill="white" stroke="#666666" points="444,-96 308,-96 308,-66 444,-66 444,-96"/>
<text text-anchor="start" x="316" y="-84" font-family="Helvetica,sans-Serif" font-size="10.00">MSL_C/MSL_Common/Src</text>
<text text-anchor="middle" x="376" y="-73" font-family="Helvetica,sans-Serif" font-size="10.00">/mem.h</text>
</a>
</g>
</g>
<!-- Node10&#45;&gt;Node12 -->
<g id="edge12" class="edge">
<title>Node10&#45;&gt;Node12</title>
<path fill="none" stroke="#63b8ff" d="M245.39,-131.62C267.08,-123.38 300.04,-110.86 327.42,-100.45"/>
<polygon fill="#63b8ff" stroke="#63b8ff" points="328.47,-103.8 336.57,-96.98 325.98,-97.26 328.47,-103.8"/>
</g>
<!-- Node13 -->
<g id="node13" class="node">
<title>Node13</title>
<g id="a_node13"><a xlink:href="MSL__Common_2Src_2string_8h.html" target="_top" xlink:title=" ">
<polygon fill="white" stroke="#666666" points="290,-96 154,-96 154,-66 290,-66 290,-96"/>
<text text-anchor="start" x="162" y="-84" font-family="Helvetica,sans-Serif" font-size="10.00">MSL_C/MSL_Common/Src</text>
<text text-anchor="middle" x="222" y="-73" font-family="Helvetica,sans-Serif" font-size="10.00">/string.h</text>
</a>
</g>
</g>
<!-- Node10&#45;&gt;Node13 -->
<g id="edge14" class="edge">
<title>Node10&#45;&gt;Node13</title>
<path fill="none" stroke="#63b8ff" d="M222,-131.87C222,-125.4 222,-116.2 222,-107.45"/>
<polygon fill="#63b8ff" stroke="#63b8ff" points="225.5,-107.63 222,-97.63 218.5,-107.63 225.5,-107.63"/>
</g>
<!-- Node12&#45;&gt;Node4 -->
<g id="edge13" class="edge">
<title>Node12&#45;&gt;Node4</title>
<path fill="none" stroke="#63b8ff" d="M376,-65.8C376,-58.67 376,-49.82 376,-41.56"/>
<polygon fill="#63b8ff" stroke="#63b8ff" points="379.5,-41.68 376,-31.68 372.5,-41.68 379.5,-41.68"/>
</g>
<!-- Node13&#45;&gt;Node4 -->
<g id="edge15" class="edge">
<title>Node13&#45;&gt;Node4</title>
<path fill="none" stroke="#63b8ff" d="M256.56,-65.64C278.48,-56.53 307.07,-44.65 330.78,-34.79"/>
<polygon fill="#63b8ff" stroke="#63b8ff" points="332,-38.08 339.89,-31.01 329.31,-31.61 332,-38.08"/>
</g>
<!-- Node14&#45;&gt;Node7 -->
<g id="edge17" class="edge">
<title>Node14&#45;&gt;Node7</title>
<path fill="none" stroke="#63b8ff" d="M410.17,-307.64C389.71,-297.08 362.04,-282.79 341.63,-272.26"/>
<polygon fill="#63b8ff" stroke="#63b8ff" points="343.25,-269.16 332.76,-267.68 340.04,-275.38 343.25,-269.16"/>
</g>
<!-- Node15 -->
<g id="node15" class="node">
<title>Node15</title>
<g id="a_node15"><a xlink:href="____va__arg_8h.html" target="_top" xlink:title=" ">
<polygon fill="white" stroke="#666666" points="506,-272 396,-272 396,-242 506,-242 506,-272"/>
<text text-anchor="start" x="404" y="-260" font-family="Helvetica,sans-Serif" font-size="10.00">Runtime.PPCEABI.H/</text>
<text text-anchor="middle" x="451" y="-249" font-family="Helvetica,sans-Serif" font-size="10.00">__va_arg.h</text>
</a>
</g>
</g>
<!-- Node14&#45;&gt;Node15 -->
<g id="edge18" class="edge">
<title>Node14&#45;&gt;Node15</title>
<path fill="none" stroke="#63b8ff" d="M440.89,-307.8C442.35,-300.59 444.17,-291.61 445.87,-283.27"/>
<polygon fill="#63b8ff" stroke="#63b8ff" points="449.26,-284.14 447.82,-273.65 442.4,-282.75 449.26,-284.14"/>
</g>
<!-- Node15&#45;&gt;Node3 -->
<g id="edge19" class="edge">
<title>Node15&#45;&gt;Node3</title>
<path fill="none" stroke="#63b8ff" d="M455.26,-241.76C464.54,-210.69 486.64,-136.75 497.19,-101.43"/>
<polygon fill="#63b8ff" stroke="#63b8ff" points="500.46,-102.72 499.97,-92.13 493.75,-100.71 500.46,-102.72"/>
</g>
<!-- Node16&#45;&gt;Node3 -->
<g id="edge21" class="edge">
<title>Node16&#45;&gt;Node3</title>
<path fill="none" stroke="#63b8ff" d="M520.78,-373.79C524.75,-353.55 534,-301.76 534,-258 534,-258 534,-258 534,-195.5 534,-161.39 520.81,-123.49 511.64,-101.25"/>
<polygon fill="#63b8ff" stroke="#63b8ff" points="514.95,-100.09 507.78,-92.29 508.52,-102.85 514.95,-100.09"/>
</g>
</g>
</svg>
