<?xml version="1.0" encoding="UTF-8" standalone="no"?>
<!DOCTYPE svg PUBLIC "-//W3C//DTD SVG 1.1//EN"
 "http://www.w3.org/Graphics/SVG/1.1/DTD/svg11.dtd">
<!-- Generated by graphviz version 7.0.5 (20221223.1930)
 -->
<!-- Title: include/JSystem/JUtility/JUTFont.h Pages: 1 -->
<svg width="2586pt" height="236pt"
 viewBox="0.00 0.00 2586.00 236.00" xmlns="http://www.w3.org/2000/svg" xmlns:xlink="http://www.w3.org/1999/xlink">
<g id="graph0" class="graph" transform="scale(1 1) rotate(0) translate(4 232)">
<title>include/JSystem/JUtility/JUTFont.h</title>
<!-- Node1 -->
<g id="node1" class="node">
<title>Node1</title>
<g id="a_node1"><a xlink:title=" ">
<polygon fill="#999999" stroke="#666666" points="1755,-228 1633,-228 1633,-198 1755,-198 1755,-228"/>
<text text-anchor="start" x="1641" y="-216" font-family="Helvetica,sans-Serif" font-size="10.00">include/JSystem/JUtility</text>
<text text-anchor="middle" x="1694" y="-205" font-family="Helvetica,sans-Serif" font-size="10.00">/JUTFont.h</text>
</a>
</g>
</g>
<!-- Node2 -->
<g id="node2" class="node">
<title>Node2</title>
<g id="a_node2"><a xlink:href="JUTConsole_8h.html" target="_top" xlink:title=" ">
<polygon fill="white" stroke="#666666" points="1346,-162 1224,-162 1224,-132 1346,-132 1346,-162"/>
<text text-anchor="start" x="1232" y="-150" font-family="Helvetica,sans-Serif" font-size="10.00">include/JSystem/JUtility</text>
<text text-anchor="middle" x="1285" y="-139" font-family="Helvetica,sans-Serif" font-size="10.00">/JUTConsole.h</text>
</a>
</g>
</g>
<!-- Node1&#45;&gt;Node2 -->
<g id="edge1" class="edge">
<title>Node1&#45;&gt;Node2</title>
<path fill="none" stroke="#63b8ff" d="M1621.56,-200.66C1543.3,-188.42 1419.95,-169.12 1346.32,-157.59"/>
<polygon fill="#63b8ff" stroke="#63b8ff" points="1620.85,-204.1 1631.27,-202.18 1621.93,-197.18 1620.85,-204.1"/>
</g>
<!-- Node15 -->
<g id="node15" class="node">
<title>Node15</title>
<g id="a_node15"><a xlink:href="JUTDbPrint_8h.html" target="_top" xlink:title=" ">
<polygon fill="white" stroke="#666666" points="462,-162 340,-162 340,-132 462,-132 462,-162"/>
<text text-anchor="start" x="348" y="-150" font-family="Helvetica,sans-Serif" font-size="10.00">include/JSystem/JUtility</text>
<text text-anchor="middle" x="401" y="-139" font-family="Helvetica,sans-Serif" font-size="10.00">/JUTDbPrint.h</text>
</a>
</g>
</g>
<!-- Node1&#45;&gt;Node15 -->
<g id="edge14" class="edge">
<title>Node1&#45;&gt;Node15</title>
<path fill="none" stroke="#63b8ff" d="M1621.23,-208.4C1390.33,-196.97 676.81,-161.65 462.49,-151.04"/>
<polygon fill="#63b8ff" stroke="#63b8ff" points="1620.83,-211.88 1630.99,-208.88 1621.18,-204.89 1620.83,-211.88"/>
</g>
<!-- Node19 -->
<g id="node19" class="node">
<title>Node19</title>
<g id="a_node19"><a xlink:href="JUTResFont_8h.html" target="_top" xlink:title=" ">
<polygon fill="white" stroke="#666666" points="2165,-162 2043,-162 2043,-132 2165,-132 2165,-162"/>
<text text-anchor="start" x="2051" y="-150" font-family="Helvetica,sans-Serif" font-size="10.00">include/JSystem/JUtility</text>
<text text-anchor="middle" x="2104" y="-139" font-family="Helvetica,sans-Serif" font-size="10.00">/JUTResFont.h</text>
</a>
</g>
</g>
<!-- Node1&#45;&gt;Node19 -->
<g id="edge20" class="edge">
<title>Node1&#45;&gt;Node19</title>
<path fill="none" stroke="#63b8ff" d="M1766.62,-200.66C1845.07,-188.42 1968.72,-169.12 2042.53,-157.59"/>
<polygon fill="#63b8ff" stroke="#63b8ff" points="1766.22,-197.18 1756.88,-202.19 1767.3,-204.1 1766.22,-197.18"/>
</g>
<!-- Node25 -->
<g id="node25" class="node">
<title>Node25</title>
<g id="a_node25"><a xlink:href="JUTFont_8cpp.html" target="_top" xlink:title=" ">
<polygon fill="white" stroke="#666666" points="2289,-162 2183,-162 2183,-132 2289,-132 2289,-162"/>
<text text-anchor="start" x="2191" y="-150" font-family="Helvetica,sans-Serif" font-size="10.00">libs/JSystem/JUtility</text>
<text text-anchor="middle" x="2236" y="-139" font-family="Helvetica,sans-Serif" font-size="10.00">/JUTFont.cpp</text>
</a>
</g>
</g>
<!-- Node1&#45;&gt;Node25 -->
<g id="edge27" class="edge">
<title>Node1&#45;&gt;Node25</title>
<path fill="none" stroke="#63b8ff" d="M1766.71,-207.12C1861.05,-200.17 2030.55,-185.58 2174,-162 2176.83,-161.53 2179.73,-161.02 2182.64,-160.47"/>
<polygon fill="#63b8ff" stroke="#63b8ff" points="1766.53,-203.62 1756.81,-207.84 1767.04,-210.6 1766.53,-203.62"/>
</g>
<!-- Node3 -->
<g id="node3" class="node">
<title>Node3</title>
<g id="a_node3"><a xlink:href="JFWDisplay_8cpp.html" target="_top" xlink:title=" ">
<polygon fill="white" stroke="#666666" points="704,-96 574,-96 574,-66 704,-66 704,-96"/>
<text text-anchor="start" x="582" y="-84" font-family="Helvetica,sans-Serif" font-size="10.00">libs/JSystem/JFramework</text>
<text text-anchor="middle" x="639" y="-73" font-family="Helvetica,sans-Serif" font-size="10.00">/JFWDisplay.cpp</text>
</a>
</g>
</g>
<!-- Node2&#45;&gt;Node3 -->
<g id="edge2" class="edge">
<title>Node2&#45;&gt;Node3</title>
<path fill="none" stroke="#63b8ff" d="M1212.34,-141.98C1103.45,-135.43 891.65,-120.64 713,-96 710.15,-95.61 707.24,-95.18 704.31,-94.72"/>
<polygon fill="#63b8ff" stroke="#63b8ff" points="1212.12,-145.47 1222.31,-142.57 1212.54,-138.48 1212.12,-145.47"/>
</g>
<!-- Node4 -->
<g id="node4" class="node">
<title>Node4</title>
<g id="a_node4"><a xlink:href="JFWSystem_8cpp.html" target="_top" xlink:title=" ">
<polygon fill="white" stroke="#666666" points="1647,-96 1517,-96 1517,-66 1647,-66 1647,-96"/>
<text text-anchor="start" x="1525" y="-84" font-family="Helvetica,sans-Serif" font-size="10.00">libs/JSystem/JFramework</text>
<text text-anchor="middle" x="1582" y="-73" font-family="Helvetica,sans-Serif" font-size="10.00">/JFWSystem.cpp</text>
</a>
</g>
</g>
<!-- Node2&#45;&gt;Node4 -->
<g id="edge3" class="edge">
<title>Node2&#45;&gt;Node4</title>
<path fill="none" stroke="#63b8ff" d="M1357.25,-130.43C1405.85,-119.96 1469.4,-106.26 1516.52,-96.11"/>
<polygon fill="#63b8ff" stroke="#63b8ff" points="1356.7,-126.97 1347.66,-132.5 1358.17,-133.81 1356.7,-126.97"/>
</g>
<!-- Node5 -->
<g id="node5" class="node">
<title>Node5</title>
<g id="a_node5"><a xlink:href="JKRSolidHeap_8cpp.html" target="_top" xlink:title=" ">
<polygon fill="white" stroke="#666666" points="1774.5,-96 1665.5,-96 1665.5,-66 1774.5,-66 1774.5,-96"/>
<text text-anchor="start" x="1673.5" y="-84" font-family="Helvetica,sans-Serif" font-size="10.00">libs/JSystem/JKernel</text>
<text text-anchor="middle" x="1720" y="-73" font-family="Helvetica,sans-Serif" font-size="10.00">/JKRSolidHeap.cpp</text>
</a>
</g>
</g>
<!-- Node2&#45;&gt;Node5 -->
<g id="edge4" class="edge">
<title>Node2&#45;&gt;Node5</title>
<path fill="none" stroke="#63b8ff" d="M1357.47,-138C1432.45,-129.31 1552.81,-114.21 1656,-96 1659.02,-95.47 1662.12,-94.89 1665.25,-94.28"/>
<polygon fill="#63b8ff" stroke="#63b8ff" points="1357.33,-134.5 1347.79,-139.12 1358.13,-141.45 1357.33,-134.5"/>
</g>
<!-- Node6 -->
<g id="node6" class="node">
<title>Node6</title>
<g id="a_node6"><a xlink:href="JKRThread_8cpp.html" target="_top" xlink:title=" ">
<polygon fill="white" stroke="#666666" points="1901.5,-96 1792.5,-96 1792.5,-66 1901.5,-66 1901.5,-96"/>
<text text-anchor="start" x="1800.5" y="-84" font-family="Helvetica,sans-Serif" font-size="10.00">libs/JSystem/JKernel</text>
<text text-anchor="middle" x="1847" y="-73" font-family="Helvetica,sans-Serif" font-size="10.00">/JKRThread.cpp</text>
</a>
</g>
</g>
<!-- Node2&#45;&gt;Node6 -->
<g id="edge5" class="edge">
<title>Node2&#45;&gt;Node6</title>
<path fill="none" stroke="#63b8ff" d="M1357.86,-141.42C1455.35,-134.68 1633.45,-120.18 1784,-96 1786.66,-95.57 1789.37,-95.1 1792.1,-94.6"/>
<polygon fill="#63b8ff" stroke="#63b8ff" points="1357.62,-137.93 1347.88,-142.1 1358.1,-144.91 1357.62,-137.93"/>
</g>
<!-- Node7 -->
<g id="node7" class="node">
<title>Node7</title>
<g id="a_node7"><a xlink:href="JUTConsole_8cpp.html" target="_top" xlink:title=" ">
<polygon fill="white" stroke="#666666" points="828,-96 722,-96 722,-66 828,-66 828,-96"/>
<text text-anchor="start" x="730" y="-84" font-family="Helvetica,sans-Serif" font-size="10.00">libs/JSystem/JUtility</text>
<text text-anchor="middle" x="775" y="-73" font-family="Helvetica,sans-Serif" font-size="10.00">/JUTConsole.cpp</text>
</a>
</g>
</g>
<!-- Node2&#45;&gt;Node7 -->
<g id="edge6" class="edge">
<title>Node2&#45;&gt;Node7</title>
<path fill="none" stroke="#63b8ff" d="M1212.54,-140.4C1123.66,-132.97 968.61,-118.13 837,-96 834.17,-95.52 831.28,-95 828.36,-94.44"/>
<polygon fill="#63b8ff" stroke="#63b8ff" points="1212.07,-143.88 1222.33,-141.21 1212.65,-136.9 1212.07,-143.88"/>
</g>
<!-- Node8 -->
<g id="node8" class="node">
<title>Node8</title>
<g id="a_node8"><a xlink:href="JUTException_8cpp.html" target="_top" xlink:title=" ">
<polygon fill="white" stroke="#666666" points="952,-96 846,-96 846,-66 952,-66 952,-96"/>
<text text-anchor="start" x="854" y="-84" font-family="Helvetica,sans-Serif" font-size="10.00">libs/JSystem/JUtility</text>
<text text-anchor="middle" x="899" y="-73" font-family="Helvetica,sans-Serif" font-size="10.00">/JUTException.cpp</text>
</a>
</g>
</g>
<!-- Node2&#45;&gt;Node8 -->
<g id="edge7" class="edge">
<title>Node2&#45;&gt;Node8</title>
<path fill="none" stroke="#63b8ff" d="M1212.74,-136.19C1147.13,-126.95 1047.79,-112.16 962,-96 958.81,-95.4 955.53,-94.75 952.23,-94.08"/>
<polygon fill="#63b8ff" stroke="#63b8ff" points="1211.89,-139.6 1222.28,-137.52 1212.86,-132.67 1211.89,-139.6"/>
</g>
<!-- Node9 -->
<g id="node9" class="node">
<title>Node9</title>
<g id="a_node9"><a xlink:href="JUTResFont_8cpp.html" target="_top" xlink:title=" ">
<polygon fill="white" stroke="#666666" points="2026,-96 1920,-96 1920,-66 2026,-66 2026,-96"/>
<text text-anchor="start" x="1928" y="-84" font-family="Helvetica,sans-Serif" font-size="10.00">libs/JSystem/JUtility</text>
<text text-anchor="middle" x="1973" y="-73" font-family="Helvetica,sans-Serif" font-size="10.00">/JUTResFont.cpp</text>
</a>
</g>
</g>
<!-- Node2&#45;&gt;Node9 -->
<g id="edge8" class="edge">
<title>Node2&#45;&gt;Node9</title>
<path fill="none" stroke="#63b8ff" d="M1357.48,-143.56C1474.5,-138.88 1712.02,-126.25 1911,-96 1913.84,-95.57 1916.74,-95.08 1919.66,-94.55"/>
<polygon fill="#63b8ff" stroke="#63b8ff" points="1357.57,-140.06 1347.71,-143.94 1357.84,-147.05 1357.57,-140.06"/>
</g>
<!-- Node10 -->
<g id="node10" class="node">
<title>Node10</title>
<g id="a_node10"><a xlink:href="DynamicLink_8cpp.html" target="_top" xlink:title=" ">
<polygon fill="white" stroke="#666666" points="1077.5,-90.5 970.5,-90.5 970.5,-71.5 1077.5,-71.5 1077.5,-90.5"/>
<text text-anchor="middle" x="1024" y="-78.5" font-family="Helvetica,sans-Serif" font-size="10.00">src/DynamicLink.cpp</text>
</a>
</g>
</g>
<!-- Node2&#45;&gt;Node10 -->
<g id="edge9" class="edge">
<title>Node2&#45;&gt;Node10</title>
<path fill="none" stroke="#63b8ff" d="M1215.09,-128.86C1165.33,-116.66 1100.46,-100.75 1060.55,-90.96"/>
<polygon fill="#63b8ff" stroke="#63b8ff" points="1214.09,-132.21 1224.63,-131.2 1215.75,-125.42 1214.09,-132.21"/>
</g>
<!-- Node11 -->
<g id="node11" class="node">
<title>Node11</title>
<g id="a_node11"><a xlink:href="d__s__play_8cpp.html" target="_top" xlink:title=" ">
<polygon fill="white" stroke="#666666" points="1202,-90.5 1096,-90.5 1096,-71.5 1202,-71.5 1202,-90.5"/>
<text text-anchor="middle" x="1149" y="-78.5" font-family="Helvetica,sans-Serif" font-size="10.00">src/d/s/d_s_play.cpp</text>
</a>
</g>
</g>
<!-- Node2&#45;&gt;Node11 -->
<g id="edge10" class="edge">
<title>Node2&#45;&gt;Node11</title>
<path fill="none" stroke="#63b8ff" d="M1244.09,-126.75C1218.87,-114.88 1187.72,-100.22 1168.09,-90.99"/>
<polygon fill="#63b8ff" stroke="#63b8ff" points="1242.57,-129.9 1253.11,-130.99 1245.55,-123.57 1242.57,-129.9"/>
</g>
<!-- Node12 -->
<g id="node12" class="node">
<title>Node12</title>
<g id="a_node12"><a xlink:href="m__Do__machine_8cpp.html" target="_top" xlink:title=" ">
<polygon fill="white" stroke="#666666" points="555.5,-90.5 408.5,-90.5 408.5,-71.5 555.5,-71.5 555.5,-90.5"/>
<text text-anchor="middle" x="482" y="-78.5" font-family="Helvetica,sans-Serif" font-size="10.00">src/m_Do/m_Do_machine.cpp</text>
</a>
</g>
</g>
<!-- Node2&#45;&gt;Node12 -->
<g id="edge11" class="edge">
<title>Node2&#45;&gt;Node12</title>
<path fill="none" stroke="#63b8ff" d="M1212.28,-143.3C1082.11,-137.95 800.83,-124.01 565,-96 553.68,-94.66 541.55,-92.83 530.16,-90.94"/>
<polygon fill="#63b8ff" stroke="#63b8ff" points="1212,-146.79 1222.14,-143.7 1212.29,-139.8 1212,-146.79"/>
</g>
<!-- Node13 -->
<g id="node13" class="node">
<title>Node13</title>
<g id="a_node13"><a xlink:href="m__Do__machine__exception_8cpp.html" target="_top" xlink:title=" ">
<polygon fill="white" stroke="#666666" points="1349.5,-96 1220.5,-96 1220.5,-66 1349.5,-66 1349.5,-96"/>
<text text-anchor="start" x="1228.5" y="-84" font-family="Helvetica,sans-Serif" font-size="10.00">src/m_Do/m_Do_machine</text>
<text text-anchor="middle" x="1285" y="-73" font-family="Helvetica,sans-Serif" font-size="10.00">_exception.cpp</text>
</a>
</g>
</g>
<!-- Node2&#45;&gt;Node13 -->
<g id="edge12" class="edge">
<title>Node2&#45;&gt;Node13</title>
<path fill="none" stroke="#63b8ff" d="M1285,-120.39C1285,-112.13 1285,-103.28 1285,-96.16"/>
<polygon fill="#63b8ff" stroke="#63b8ff" points="1281.5,-120.28 1285,-130.28 1288.5,-120.28 1281.5,-120.28"/>
</g>
<!-- Node14 -->
<g id="node14" class="node">
<title>Node14</title>
<g id="a_node14"><a xlink:href="m__Do__main_8cpp.html" target="_top" xlink:title=" ">
<polygon fill="white" stroke="#666666" points="1498.5,-90.5 1367.5,-90.5 1367.5,-71.5 1498.5,-71.5 1498.5,-90.5"/>
<text text-anchor="middle" x="1433" y="-78.5" font-family="Helvetica,sans-Serif" font-size="10.00">src/m_Do/m_Do_main.cpp</text>
</a>
</g>
</g>
<!-- Node2&#45;&gt;Node14 -->
<g id="edge13" class="edge">
<title>Node2&#45;&gt;Node14</title>
<path fill="none" stroke="#63b8ff" d="M1328.42,-127.22C1356.05,-115.27 1390.58,-100.34 1412.22,-90.99"/>
<polygon fill="#63b8ff" stroke="#63b8ff" points="1327.39,-123.85 1319.6,-131.04 1330.17,-130.28 1327.39,-123.85"/>
</g>
<!-- Node15&#45;&gt;Node3 -->
<g id="edge15" class="edge">
<title>Node15&#45;&gt;Node3</title>
<path fill="none" stroke="#63b8ff" d="M465.55,-128.64C503.14,-118.53 549.96,-105.94 585.49,-96.39"/>
<polygon fill="#63b8ff" stroke="#63b8ff" points="464.92,-125.19 456.17,-131.16 466.74,-131.95 464.92,-125.19"/>
</g>
<!-- Node15&#45;&gt;Node12 -->
<g id="edge19" class="edge">
<title>Node15&#45;&gt;Node12</title>
<path fill="none" stroke="#63b8ff" d="M427.66,-124.93C442.32,-113.35 459.72,-99.61 470.81,-90.84"/>
<polygon fill="#63b8ff" stroke="#63b8ff" points="425.84,-121.91 420.16,-130.86 430.18,-127.4 425.84,-121.91"/>
</g>
<!-- Node16 -->
<g id="node16" class="node">
<title>Node16</title>
<g id="a_node16"><a xlink:href="JUTAssert_8cpp.html" target="_top" xlink:title=" ">
<polygon fill="white" stroke="#666666" points="106,-96 0,-96 0,-66 106,-66 106,-96"/>
<text text-anchor="start" x="8" y="-84" font-family="Helvetica,sans-Serif" font-size="10.00">libs/JSystem/JUtility</text>
<text text-anchor="middle" x="53" y="-73" font-family="Helvetica,sans-Serif" font-size="10.00">/JUTAssert.cpp</text>
</a>
</g>
</g>
<!-- Node15&#45;&gt;Node16 -->
<g id="edge16" class="edge">
<title>Node15&#45;&gt;Node16</title>
<path fill="none" stroke="#63b8ff" d="M328.51,-134.34C270.59,-124.77 187.4,-110.49 115,-96 112.19,-95.44 109.31,-94.84 106.4,-94.23"/>
<polygon fill="#63b8ff" stroke="#63b8ff" points="327.82,-137.77 338.25,-135.94 328.95,-130.86 327.82,-137.77"/>
</g>
<!-- Node17 -->
<g id="node17" class="node">
<title>Node17</title>
<g id="a_node17"><a xlink:href="JUTDbPrint_8cpp.html" target="_top" xlink:title=" ">
<polygon fill="white" stroke="#666666" points="230,-96 124,-96 124,-66 230,-66 230,-96"/>
<text text-anchor="start" x="132" y="-84" font-family="Helvetica,sans-Serif" font-size="10.00">libs/JSystem/JUtility</text>
<text text-anchor="middle" x="177" y="-73" font-family="Helvetica,sans-Serif" font-size="10.00">/JUTDbPrint.cpp</text>
</a>
</g>
</g>
<!-- Node15&#45;&gt;Node17 -->
<g id="edge17" class="edge">
<title>Node15&#45;&gt;Node17</title>
<path fill="none" stroke="#63b8ff" d="M339.79,-128.51C304.49,-118.43 260.65,-105.9 227.37,-96.39"/>
<polygon fill="#63b8ff" stroke="#63b8ff" points="338.42,-131.76 349,-131.14 340.34,-125.03 338.42,-131.76"/>
</g>
<!-- Node18 -->
<g id="node18" class="node">
<title>Node18</title>
<g id="a_node18"><a xlink:href="m__Do__graphic_8cpp.html" target="_top" xlink:title=" ">
<polygon fill="white" stroke="#666666" points="390,-90.5 248,-90.5 248,-71.5 390,-71.5 390,-90.5"/>
<text text-anchor="middle" x="319" y="-78.5" font-family="Helvetica,sans-Serif" font-size="10.00">src/m_Do/m_Do_graphic.cpp</text>
</a>
</g>
</g>
<!-- Node15&#45;&gt;Node18 -->
<g id="edge18" class="edge">
<title>Node15&#45;&gt;Node18</title>
<path fill="none" stroke="#63b8ff" d="M374.01,-124.93C359.17,-113.35 341.56,-99.61 330.33,-90.84"/>
<polygon fill="#63b8ff" stroke="#63b8ff" points="371.57,-127.47 381.61,-130.87 375.88,-121.95 371.57,-127.47"/>
</g>
<!-- Node19&#45;&gt;Node9 -->
<g id="edge26" class="edge">
<title>Node19&#45;&gt;Node9</title>
<path fill="none" stroke="#63b8ff" d="M2064.27,-126.59C2044.31,-116.84 2020.57,-105.24 2002.3,-96.31"/>
<polygon fill="#63b8ff" stroke="#63b8ff" points="2062.72,-129.73 2073.24,-130.97 2065.79,-123.44 2062.72,-129.73"/>
</g>
<!-- Node20 -->
<g id="node20" class="node">
<title>Node20</title>
<g id="a_node20"><a xlink:href="JUTCacheFont_8h.html" target="_top" xlink:title=" ">
<polygon fill="white" stroke="#666666" points="2578,-96 2456,-96 2456,-66 2578,-66 2578,-96"/>
<text text-anchor="start" x="2464" y="-84" font-family="Helvetica,sans-Serif" font-size="10.00">include/JSystem/JUtility</text>
<text text-anchor="middle" x="2517" y="-73" font-family="Helvetica,sans-Serif" font-size="10.00">/JUTCacheFont.h</text>
</a>
</g>
</g>
<!-- Node19&#45;&gt;Node20 -->
<g id="edge21" class="edge">
<title>Node19&#45;&gt;Node20</title>
<path fill="none" stroke="#63b8ff" d="M2176.54,-131.65C2296.66,-112.2 2329.8,-115.43 2447,-96 2449.81,-95.53 2452.68,-95.04 2455.58,-94.52"/>
<polygon fill="#63b8ff" stroke="#63b8ff" points="2176.21,-128.16 2166.91,-133.23 2177.35,-135.07 2176.21,-128.16"/>
</g>
<!-- Node22 -->
<g id="node22" class="node">
<title>Node22</title>
<g id="a_node22"><a xlink:href="J2DMatBlock_8cpp.html" target="_top" xlink:title=" ">
<polygon fill="white" stroke="#666666" points="2163.5,-96 2044.5,-96 2044.5,-66 2163.5,-66 2163.5,-96"/>
<text text-anchor="start" x="2052.5" y="-84" font-family="Helvetica,sans-Serif" font-size="10.00">libs/JSystem/J2DGraph</text>
<text text-anchor="middle" x="2104" y="-73" font-family="Helvetica,sans-Serif" font-size="10.00">/J2DMatBlock.cpp</text>
</a>
</g>
</g>
<!-- Node19&#45;&gt;Node22 -->
<g id="edge23" class="edge">
<title>Node19&#45;&gt;Node22</title>
<path fill="none" stroke="#63b8ff" d="M2104,-120.39C2104,-112.13 2104,-103.28 2104,-96.16"/>
<polygon fill="#63b8ff" stroke="#63b8ff" points="2100.5,-120.28 2104,-130.28 2107.5,-120.28 2100.5,-120.28"/>
</g>
<!-- Node23 -->
<g id="node23" class="node">
<title>Node23</title>
<g id="a_node23"><a xlink:href="J2DTextBox_8cpp.html" target="_top" xlink:title=" ">
<polygon fill="white" stroke="#666666" points="2300.5,-96 2181.5,-96 2181.5,-66 2300.5,-66 2300.5,-96"/>
<text text-anchor="start" x="2189.5" y="-84" font-family="Helvetica,sans-Serif" font-size="10.00">libs/JSystem/J2DGraph</text>
<text text-anchor="middle" x="2241" y="-73" font-family="Helvetica,sans-Serif" font-size="10.00">/J2DTextBox.cpp</text>
</a>
</g>
</g>
<!-- Node19&#45;&gt;Node23 -->
<g id="edge24" class="edge">
<title>Node19&#45;&gt;Node23</title>
<path fill="none" stroke="#63b8ff" d="M2144.98,-126.86C2165.96,-117.05 2191.08,-105.32 2210.36,-96.31"/>
<polygon fill="#63b8ff" stroke="#63b8ff" points="2143.7,-123.59 2136.12,-131 2146.66,-129.94 2143.7,-123.59"/>
</g>
<!-- Node24 -->
<g id="node24" class="node">
<title>Node24</title>
<g id="a_node24"><a xlink:href="J2DTextBoxEx_8cpp.html" target="_top" xlink:title=" ">
<polygon fill="white" stroke="#666666" points="2437.5,-96 2318.5,-96 2318.5,-66 2437.5,-66 2437.5,-96"/>
<text text-anchor="start" x="2326.5" y="-84" font-family="Helvetica,sans-Serif" font-size="10.00">libs/JSystem/J2DGraph</text>
<text text-anchor="middle" x="2378" y="-73" font-family="Helvetica,sans-Serif" font-size="10.00">/J2DTextBoxEx.cpp</text>
</a>
</g>
</g>
<!-- Node19&#45;&gt;Node24 -->
<g id="edge25" class="edge">
<title>Node19&#45;&gt;Node24</title>
<path fill="none" stroke="#63b8ff" d="M2176.46,-129.08C2220.65,-118.75 2276.45,-105.72 2318.13,-95.98"/>
<polygon fill="#63b8ff" stroke="#63b8ff" points="2175.91,-125.61 2166.96,-131.29 2177.5,-132.43 2175.91,-125.61"/>
</g>
<!-- Node21 -->
<g id="node21" class="node">
<title>Node21</title>
<g id="a_node21"><a xlink:href="JUTCacheFont_8cpp.html" target="_top" xlink:title=" ">
<polygon fill="white" stroke="#666666" points="2570,-30 2464,-30 2464,0 2570,0 2570,-30"/>
<text text-anchor="start" x="2472" y="-18" font-family="Helvetica,sans-Serif" font-size="10.00">libs/JSystem/JUtility</text>
<text text-anchor="middle" x="2517" y="-7" font-family="Helvetica,sans-Serif" font-size="10.00">/JUTCacheFont.cpp</text>
</a>
</g>
</g>
<!-- Node20&#45;&gt;Node21 -->
<g id="edge22" class="edge">
<title>Node20&#45;&gt;Node21</title>
<path fill="none" stroke="#63b8ff" d="M2517,-54.39C2517,-46.13 2517,-37.28 2517,-30.16"/>
<polygon fill="#63b8ff" stroke="#63b8ff" points="2513.5,-54.28 2517,-64.28 2520.5,-54.28 2513.5,-54.28"/>
</g>
</g>
</svg>
