<?xml version="1.0" encoding="UTF-8" standalone="no"?>
<!DOCTYPE svg PUBLIC "-//W3C//DTD SVG 1.1//EN"
 "http://www.w3.org/Graphics/SVG/1.1/DTD/svg11.dtd">
<!-- Generated by graphviz version 7.0.5 (20221223.1930)
 -->
<!-- Title: include/m_Do/m_Do_lib.h Pages: 1 -->
<svg width="3974pt" height="225pt"
 viewBox="0.00 0.00 3973.50 225.00" xmlns="http://www.w3.org/2000/svg" xmlns:xlink="http://www.w3.org/1999/xlink">
<g id="graph0" class="graph" transform="scale(1 1) rotate(0) translate(4 221)">
<title>include/m_Do/m_Do_lib.h</title>
<!-- Node1 -->
<g id="node1" class="node">
<title>Node1</title>
<g id="a_node1"><a xlink:title=" ">
<polygon fill="#999999" stroke="#666666" points="3213,-217 3086,-217 3086,-198 3213,-198 3213,-217"/>
<text text-anchor="middle" x="3149.5" y="-205" font-family="Helvetica,sans-Serif" font-size="10.00">include/m_Do/m_Do_lib.h</text>
</a>
</g>
</g>
<!-- Node2 -->
<g id="node2" class="node">
<title>Node2</title>
<g id="a_node2"><a xlink:href="J3DMatBlock_8h.html" target="_top" xlink:title=" ">
<polygon fill="white" stroke="#666666" points="1264,-162 1129,-162 1129,-132 1264,-132 1264,-162"/>
<text text-anchor="start" x="1137" y="-150" font-family="Helvetica,sans-Serif" font-size="10.00">include/JSystem/J3DGraph</text>
<text text-anchor="middle" x="1196.5" y="-139" font-family="Helvetica,sans-Serif" font-size="10.00">Base/J3DMatBlock.h</text>
</a>
</g>
</g>
<!-- Node1&#45;&gt;Node2 -->
<g id="edge1" class="edge">
<title>Node1&#45;&gt;Node2</title>
<path fill="none" stroke="#63b8ff" d="M3074.33,-204.69C2846.17,-199.12 2141.48,-181.49 1557.5,-162 1455.32,-158.59 1336.91,-153.85 1264.36,-150.85"/>
<polygon fill="#63b8ff" stroke="#63b8ff" points="3074.2,-208.19 3084.28,-204.93 3074.37,-201.19 3074.2,-208.19"/>
</g>
<!-- Node14 -->
<g id="node14" class="node">
<title>Node14</title>
<g id="a_node14"><a xlink:href="d__a__npc_8cpp.html" target="_top" xlink:title=" ">
<polygon fill="white" stroke="#666666" points="3377.5,-24.5 3273.5,-24.5 3273.5,-5.5 3377.5,-5.5 3377.5,-24.5"/>
<text text-anchor="middle" x="3325.5" y="-12.5" font-family="Helvetica,sans-Serif" font-size="10.00">src/d/a/d_a_npc.cpp</text>
</a>
</g>
</g>
<!-- Node1&#45;&gt;Node14 -->
<g id="edge31" class="edge">
<title>Node1&#45;&gt;Node14</title>
<path fill="none" stroke="#63b8ff" d="M3074.17,-204.52C3003.72,-200.89 2905.8,-190.67 2881.5,-162 2853.91,-129.45 2852.78,-97.55 2881.5,-66 2910.28,-34.39 3222.3,-36.8 3264.5,-30 3272.87,-28.65 3281.8,-26.83 3290.17,-24.94"/>
<polygon fill="#63b8ff" stroke="#63b8ff" points="3074,-208.02 3084.15,-205 3074.33,-201.02 3074,-208.02"/>
</g>
<!-- Node19 -->
<g id="node19" class="node">
<title>Node19</title>
<g id="a_node19"><a xlink:href="d__particle_8cpp.html" target="_top" xlink:title=" ">
<polygon fill="white" stroke="#666666" points="3531.5,-24.5 3395.5,-24.5 3395.5,-5.5 3531.5,-5.5 3531.5,-24.5"/>
<text text-anchor="middle" x="3463.5" y="-12.5" font-family="Helvetica,sans-Serif" font-size="10.00">src/d/particle/d_particle.cpp</text>
</a>
</g>
</g>
<!-- Node1&#45;&gt;Node19 -->
<g id="edge38" class="edge">
<title>Node1&#45;&gt;Node19</title>
<path fill="none" stroke="#63b8ff" d="M3074.29,-206.14C2989.27,-203.05 2868.31,-188.97 2914.5,-132 2922.55,-122.07 3286.82,-50.37 3417.47,-24.93"/>
<polygon fill="#63b8ff" stroke="#63b8ff" points="3074.15,-209.63 3084.26,-206.45 3074.37,-202.64 3074.15,-209.63"/>
</g>
<!-- Node22 -->
<g id="node22" class="node">
<title>Node22</title>
<g id="a_node22"><a xlink:href="d__a__player_8cpp.html" target="_top" xlink:title=" ">
<polygon fill="white" stroke="#666666" points="917.5,-24.5 803.5,-24.5 803.5,-5.5 917.5,-5.5 917.5,-24.5"/>
<text text-anchor="middle" x="860.5" y="-12.5" font-family="Helvetica,sans-Serif" font-size="10.00">src/d/a/d_a_player.cpp</text>
</a>
</g>
</g>
<!-- Node1&#45;&gt;Node22 -->
<g id="edge32" class="edge">
<title>Node1&#45;&gt;Node22</title>
<path fill="none" stroke="#63b8ff" d="M3074.21,-201.11C2710.38,-174.97 1143.02,-61.42 926.5,-30 917.46,-28.69 907.8,-26.88 898.74,-24.99"/>
<polygon fill="#63b8ff" stroke="#63b8ff" points="3073.9,-204.59 3084.12,-201.82 3074.4,-197.61 3073.9,-204.59"/>
</g>
<!-- Node31 -->
<g id="node31" class="node">
<title>Node31</title>
<g id="a_node31"><a xlink:href="d__drawlist_8cpp.html" target="_top" xlink:title=" ">
<polygon fill="white" stroke="#666666" points="3027.5,-156.5 2923.5,-156.5 2923.5,-137.5 3027.5,-137.5 3027.5,-156.5"/>
<text text-anchor="middle" x="2975.5" y="-144.5" font-family="Helvetica,sans-Serif" font-size="10.00">src/d/d_drawlist.cpp</text>
</a>
</g>
</g>
<!-- Node1&#45;&gt;Node31 -->
<g id="edge33" class="edge">
<title>Node1&#45;&gt;Node31</title>
<path fill="none" stroke="#63b8ff" d="M3112.45,-194.05C3079.35,-182.92 3031.66,-166.88 3002.18,-156.97"/>
<polygon fill="#63b8ff" stroke="#63b8ff" points="3111.04,-197.26 3121.64,-197.13 3113.28,-190.63 3111.04,-197.26"/>
</g>
<!-- Node32 -->
<g id="node32" class="node">
<title>Node32</title>
<g id="a_node32"><a xlink:href="d__insect_8cpp.html" target="_top" xlink:title=" ">
<polygon fill="white" stroke="#666666" points="3141.5,-156.5 3045.5,-156.5 3045.5,-137.5 3141.5,-137.5 3141.5,-156.5"/>
<text text-anchor="middle" x="3093.5" y="-144.5" font-family="Helvetica,sans-Serif" font-size="10.00">src/d/d_insect.cpp</text>
</a>
</g>
</g>
<!-- Node1&#45;&gt;Node32 -->
<g id="edge34" class="edge">
<title>Node1&#45;&gt;Node32</title>
<path fill="none" stroke="#63b8ff" d="M3133.35,-189.63C3123.03,-178.85 3110.08,-165.32 3101.8,-156.67"/>
<polygon fill="#63b8ff" stroke="#63b8ff" points="3130.75,-191.97 3140.19,-196.77 3135.8,-187.13 3130.75,-191.97"/>
</g>
<!-- Node33 -->
<g id="node33" class="node">
<title>Node33</title>
<g id="a_node33"><a xlink:href="d__timer_8cpp.html" target="_top" xlink:title=" ">
<polygon fill="white" stroke="#666666" points="3251.5,-156.5 3159.5,-156.5 3159.5,-137.5 3251.5,-137.5 3251.5,-156.5"/>
<text text-anchor="middle" x="3205.5" y="-144.5" font-family="Helvetica,sans-Serif" font-size="10.00">src/d/d_timer.cpp</text>
</a>
</g>
</g>
<!-- Node1&#45;&gt;Node33 -->
<g id="edge35" class="edge">
<title>Node1&#45;&gt;Node33</title>
<path fill="none" stroke="#63b8ff" d="M3165.65,-189.63C3175.97,-178.85 3188.92,-165.32 3197.2,-156.67"/>
<polygon fill="#63b8ff" stroke="#63b8ff" points="3163.2,-187.13 3158.81,-196.77 3168.25,-191.97 3163.2,-187.13"/>
</g>
<!-- Node34 -->
<g id="node34" class="node">
<title>Node34</title>
<g id="a_node34"><a xlink:href="d__kankyo__rain_8cpp.html" target="_top" xlink:title=" ">
<polygon fill="white" stroke="#666666" points="3385.5,-162 3269.5,-162 3269.5,-132 3385.5,-132 3385.5,-162"/>
<text text-anchor="start" x="3277.5" y="-150" font-family="Helvetica,sans-Serif" font-size="10.00">src/d/kankyo/d_kankyo</text>
<text text-anchor="middle" x="3327.5" y="-139" font-family="Helvetica,sans-Serif" font-size="10.00">_rain.cpp</text>
</a>
</g>
</g>
<!-- Node1&#45;&gt;Node34 -->
<g id="edge36" class="edge">
<title>Node1&#45;&gt;Node34</title>
<path fill="none" stroke="#63b8ff" d="M3187.16,-194.12C3215.35,-184.86 3253.97,-172.17 3283.56,-162.44"/>
<polygon fill="#63b8ff" stroke="#63b8ff" points="3186.38,-190.7 3177.97,-197.14 3188.57,-197.35 3186.38,-190.7"/>
</g>
<!-- Node35 -->
<g id="node35" class="node">
<title>Node35</title>
<g id="a_node35"><a xlink:href="d__map__path_8cpp.html" target="_top" xlink:title=" ">
<polygon fill="white" stroke="#666666" points="3537.5,-156.5 3403.5,-156.5 3403.5,-137.5 3537.5,-137.5 3537.5,-156.5"/>
<text text-anchor="middle" x="3470.5" y="-144.5" font-family="Helvetica,sans-Serif" font-size="10.00">src/d/map/d_map_path.cpp</text>
</a>
</g>
</g>
<!-- Node1&#45;&gt;Node35 -->
<g id="edge37" class="edge">
<title>Node1&#45;&gt;Node35</title>
<path fill="none" stroke="#63b8ff" d="M3210.41,-195.48C3259.99,-186.5 3331.77,-173.47 3394.5,-162 3403.34,-160.38 3412.76,-158.65 3421.85,-156.98"/>
<polygon fill="#63b8ff" stroke="#63b8ff" points="3209.95,-192.01 3200.74,-197.23 3211.2,-198.89 3209.95,-192.01"/>
</g>
<!-- Node36 -->
<g id="node36" class="node">
<title>Node36</title>
<g id="a_node36"><a xlink:href="d__shop__system_8cpp.html" target="_top" xlink:title=" ">
<polygon fill="white" stroke="#666666" points="3707.5,-156.5 3555.5,-156.5 3555.5,-137.5 3707.5,-137.5 3707.5,-156.5"/>
<text text-anchor="middle" x="3631.5" y="-144.5" font-family="Helvetica,sans-Serif" font-size="10.00">src/d/shop/d_shop_system.cpp</text>
</a>
</g>
</g>
<!-- Node1&#45;&gt;Node36 -->
<g id="edge39" class="edge">
<title>Node1&#45;&gt;Node36</title>
<path fill="none" stroke="#63b8ff" d="M3224.65,-199.24C3304.6,-191.25 3434.69,-177.46 3546.5,-162 3557.31,-160.5 3568.87,-158.72 3579.87,-156.94"/>
<polygon fill="#63b8ff" stroke="#63b8ff" points="3224.34,-195.76 3214.73,-200.23 3225.03,-202.72 3224.34,-195.76"/>
</g>
<!-- Node37 -->
<g id="node37" class="node">
<title>Node37</title>
<g id="a_node37"><a xlink:href="f__op__actor__mng_8cpp.html" target="_top" xlink:title=" ">
<polygon fill="white" stroke="#666666" points="3827,-162 3726,-162 3726,-132 3827,-132 3827,-162"/>
<text text-anchor="start" x="3734" y="-150" font-family="Helvetica,sans-Serif" font-size="10.00">src/f_op/f_op_actor</text>
<text text-anchor="middle" x="3776.5" y="-139" font-family="Helvetica,sans-Serif" font-size="10.00">_mng.cpp</text>
</a>
</g>
</g>
<!-- Node1&#45;&gt;Node37 -->
<g id="edge40" class="edge">
<title>Node1&#45;&gt;Node37</title>
<path fill="none" stroke="#63b8ff" d="M3224.39,-204.22C3333.29,-200.09 3541.45,-189.13 3716.5,-162 3719.46,-161.54 3722.49,-161.02 3725.54,-160.44"/>
<polygon fill="#63b8ff" stroke="#63b8ff" points="3224.59,-200.71 3214.72,-204.58 3224.85,-207.71 3224.59,-200.71"/>
</g>
<!-- Node38 -->
<g id="node38" class="node">
<title>Node38</title>
<g id="a_node38"><a xlink:href="m__Do__lib_8cpp.html" target="_top" xlink:title=" ">
<polygon fill="white" stroke="#666666" points="3965.5,-156.5 3845.5,-156.5 3845.5,-137.5 3965.5,-137.5 3965.5,-156.5"/>
<text text-anchor="middle" x="3905.5" y="-144.5" font-family="Helvetica,sans-Serif" font-size="10.00">src/m_Do/m_Do_lib.cpp</text>
</a>
</g>
</g>
<!-- Node1&#45;&gt;Node38 -->
<g id="edge41" class="edge">
<title>Node1&#45;&gt;Node38</title>
<path fill="none" stroke="#63b8ff" d="M3224.7,-204.96C3351.43,-201.62 3615.34,-191.46 3836.5,-162 3846.07,-160.72 3856.31,-158.9 3865.88,-156.99"/>
<polygon fill="#63b8ff" stroke="#63b8ff" points="3224.66,-201.46 3214.75,-205.21 3224.84,-208.46 3224.66,-201.46"/>
</g>
<!-- Node3 -->
<g id="node3" class="node">
<title>Node3</title>
<g id="a_node3"><a xlink:href="J3DMaterial_8h.html" target="_top" xlink:title=" ">
<polygon fill="white" stroke="#666666" points="2294,-96 2159,-96 2159,-66 2294,-66 2294,-96"/>
<text text-anchor="start" x="2167" y="-84" font-family="Helvetica,sans-Serif" font-size="10.00">include/JSystem/J3DGraph</text>
<text text-anchor="middle" x="2226.5" y="-73" font-family="Helvetica,sans-Serif" font-size="10.00">Base/J3DMaterial.h</text>
</a>
</g>
</g>
<!-- Node2&#45;&gt;Node3 -->
<g id="edge2" class="edge">
<title>Node2&#45;&gt;Node3</title>
<path fill="none" stroke="#63b8ff" d="M1275.81,-141.07C1471.68,-128.9 1975.66,-97.59 2158.74,-86.21"/>
<polygon fill="#63b8ff" stroke="#63b8ff" points="1275.75,-137.57 1265.99,-141.68 1276.19,-144.56 1275.75,-137.57"/>
</g>
<!-- Node21 -->
<g id="node21" class="node">
<title>Node21</title>
<g id="a_node21"><a xlink:href="d__a__alink_8h.html" target="_top" xlink:title=" ">
<polygon fill="white" stroke="#666666" points="707.5,-90.5 591.5,-90.5 591.5,-71.5 707.5,-71.5 707.5,-90.5"/>
<text text-anchor="middle" x="649.5" y="-78.5" font-family="Helvetica,sans-Serif" font-size="10.00">include/d/a/d_a_alink.h</text>
</a>
</g>
</g>
<!-- Node2&#45;&gt;Node21 -->
<g id="edge20" class="edge">
<title>Node2&#45;&gt;Node21</title>
<path fill="none" stroke="#63b8ff" d="M1117.47,-136.75C1006.31,-123.75 806.36,-100.35 707.74,-88.81"/>
<polygon fill="#63b8ff" stroke="#63b8ff" points="1116.76,-140.19 1127.1,-137.88 1117.57,-133.24 1116.76,-140.19"/>
</g>
<!-- Node29 -->
<g id="node29" class="node">
<title>Node29</title>
<g id="a_node29"><a xlink:href="J3DMatBlock_8cpp.html" target="_top" xlink:title=" ">
<polygon fill="white" stroke="#666666" points="573.5,-96 431.5,-96 431.5,-66 573.5,-66 573.5,-96"/>
<text text-anchor="start" x="439.5" y="-84" font-family="Helvetica,sans-Serif" font-size="10.00">libs/JSystem/J3DGraphBase</text>
<text text-anchor="middle" x="502.5" y="-73" font-family="Helvetica,sans-Serif" font-size="10.00">/J3DMatBlock.cpp</text>
</a>
</g>
</g>
<!-- Node2&#45;&gt;Node29 -->
<g id="edge29" class="edge">
<title>Node2&#45;&gt;Node29</title>
<path fill="none" stroke="#63b8ff" d="M1117.26,-141.88C1000.05,-135.27 773.72,-120.46 582.5,-96 579.7,-95.64 576.85,-95.25 573.98,-94.84"/>
<polygon fill="#63b8ff" stroke="#63b8ff" points="1116.91,-145.37 1127.09,-142.43 1117.3,-138.38 1116.91,-145.37"/>
</g>
<!-- Node30 -->
<g id="node30" class="node">
<title>Node30</title>
<g id="a_node30"><a xlink:href="d__attention_8cpp.html" target="_top" xlink:title=" ">
<polygon fill="white" stroke="#666666" points="1250,-90.5 1143,-90.5 1143,-71.5 1250,-71.5 1250,-90.5"/>
<text text-anchor="middle" x="1196.5" y="-78.5" font-family="Helvetica,sans-Serif" font-size="10.00">src/d/d_attention.cpp</text>
</a>
</g>
</g>
<!-- Node2&#45;&gt;Node30 -->
<g id="edge30" class="edge">
<title>Node2&#45;&gt;Node30</title>
<path fill="none" stroke="#63b8ff" d="M1196.5,-120.59C1196.5,-110.06 1196.5,-98.53 1196.5,-90.84"/>
<polygon fill="#63b8ff" stroke="#63b8ff" points="1193,-120.28 1196.5,-130.28 1200,-120.28 1193,-120.28"/>
</g>
<!-- Node4 -->
<g id="node4" class="node">
<title>Node4</title>
<g id="a_node4"><a xlink:href="J3DJoint_8cpp.html" target="_top" xlink:title=" ">
<polygon fill="white" stroke="#666666" points="3079.5,-30 2921.5,-30 2921.5,0 3079.5,0 3079.5,-30"/>
<text text-anchor="start" x="2929.5" y="-18" font-family="Helvetica,sans-Serif" font-size="10.00">libs/JSystem/J3DGraphAnimator</text>
<text text-anchor="middle" x="3000.5" y="-7" font-family="Helvetica,sans-Serif" font-size="10.00">/J3DJoint.cpp</text>
</a>
</g>
</g>
<!-- Node3&#45;&gt;Node4 -->
<g id="edge3" class="edge">
<title>Node3&#45;&gt;Node4</title>
<path fill="none" stroke="#63b8ff" d="M2305.44,-76.38C2433.12,-70.03 2692.73,-55.15 2911.5,-30 2914.76,-29.62 2918.09,-29.22 2921.45,-28.78"/>
<polygon fill="#63b8ff" stroke="#63b8ff" points="2305.57,-72.86 2295.76,-76.85 2305.92,-79.86 2305.57,-72.86"/>
</g>
<!-- Node5 -->
<g id="node5" class="node">
<title>Node5</title>
<g id="a_node5"><a xlink:href="J3DJointTree_8cpp.html" target="_top" xlink:title=" ">
<polygon fill="white" stroke="#666666" points="3255.5,-30 3097.5,-30 3097.5,0 3255.5,0 3255.5,-30"/>
<text text-anchor="start" x="3105.5" y="-18" font-family="Helvetica,sans-Serif" font-size="10.00">libs/JSystem/J3DGraphAnimator</text>
<text text-anchor="middle" x="3176.5" y="-7" font-family="Helvetica,sans-Serif" font-size="10.00">/J3DJointTree.cpp</text>
</a>
</g>
</g>
<!-- Node3&#45;&gt;Node5 -->
<g id="edge4" class="edge">
<title>Node3&#45;&gt;Node5</title>
<path fill="none" stroke="#63b8ff" d="M2305.8,-78.05C2457.96,-73.71 2801.27,-61.1 3088.5,-30 3091.42,-29.68 3094.4,-29.34 3097.4,-28.97"/>
<polygon fill="#63b8ff" stroke="#63b8ff" points="2305.71,-74.55 2295.82,-78.33 2305.91,-81.54 2305.71,-74.55"/>
</g>
<!-- Node6 -->
<g id="node6" class="node">
<title>Node6</title>
<g id="a_node6"><a xlink:href="J3DMaterialAnm_8cpp.html" target="_top" xlink:title=" ">
<polygon fill="white" stroke="#666666" points="1221.5,-30 1063.5,-30 1063.5,0 1221.5,0 1221.5,-30"/>
<text text-anchor="start" x="1071.5" y="-18" font-family="Helvetica,sans-Serif" font-size="10.00">libs/JSystem/J3DGraphAnimator</text>
<text text-anchor="middle" x="1142.5" y="-7" font-family="Helvetica,sans-Serif" font-size="10.00">/J3DMaterialAnm.cpp</text>
</a>
</g>
</g>
<!-- Node3&#45;&gt;Node6 -->
<g id="edge5" class="edge">
<title>Node3&#45;&gt;Node6</title>
<path fill="none" stroke="#63b8ff" d="M2147.17,-78.91C1978.18,-75.96 1570.36,-65.46 1230.5,-30 1227.58,-29.69 1224.6,-29.36 1221.6,-29"/>
<polygon fill="#63b8ff" stroke="#63b8ff" points="2147.11,-82.41 2157.16,-79.08 2147.23,-75.41 2147.11,-82.41"/>
</g>
<!-- Node7 -->
<g id="node7" class="node">
<title>Node7</title>
<g id="a_node7"><a xlink:href="J3DMaterialAttach_8cpp.html" target="_top" xlink:title=" ">
<polygon fill="white" stroke="#666666" points="1397.5,-30 1239.5,-30 1239.5,0 1397.5,0 1397.5,-30"/>
<text text-anchor="start" x="1247.5" y="-18" font-family="Helvetica,sans-Serif" font-size="10.00">libs/JSystem/J3DGraphAnimator</text>
<text text-anchor="middle" x="1318.5" y="-7" font-family="Helvetica,sans-Serif" font-size="10.00">/J3DMaterialAttach.cpp</text>
</a>
</g>
</g>
<!-- Node3&#45;&gt;Node7 -->
<g id="edge6" class="edge">
<title>Node3&#45;&gt;Node7</title>
<path fill="none" stroke="#63b8ff" d="M2147.46,-77.73C2000.96,-72.95 1677.49,-59.75 1406.5,-30 1403.58,-29.68 1400.61,-29.33 1397.61,-28.96"/>
<polygon fill="#63b8ff" stroke="#63b8ff" points="2146.92,-81.21 2157.03,-78.03 2147.15,-74.21 2146.92,-81.21"/>
</g>
<!-- Node8 -->
<g id="node8" class="node">
<title>Node8</title>
<g id="a_node8"><a xlink:href="J3DModel_8cpp.html" target="_top" xlink:title=" ">
<polygon fill="white" stroke="#666666" points="1573.5,-30 1415.5,-30 1415.5,0 1573.5,0 1573.5,-30"/>
<text text-anchor="start" x="1423.5" y="-18" font-family="Helvetica,sans-Serif" font-size="10.00">libs/JSystem/J3DGraphAnimator</text>
<text text-anchor="middle" x="1494.5" y="-7" font-family="Helvetica,sans-Serif" font-size="10.00">/J3DModel.cpp</text>
</a>
</g>
</g>
<!-- Node3&#45;&gt;Node8 -->
<g id="edge7" class="edge">
<title>Node3&#45;&gt;Node8</title>
<path fill="none" stroke="#63b8ff" d="M2147.24,-75.9C2025.51,-69.14 1785.33,-53.97 1582.5,-30 1579.58,-29.66 1576.61,-29.28 1573.61,-28.89"/>
<polygon fill="#63b8ff" stroke="#63b8ff" points="2146.95,-79.39 2157.13,-76.44 2147.34,-72.4 2146.95,-79.39"/>
</g>
<!-- Node9 -->
<g id="node9" class="node">
<title>Node9</title>
<g id="a_node9"><a xlink:href="J3DModelData_8cpp.html" target="_top" xlink:title=" ">
<polygon fill="white" stroke="#666666" points="1749.5,-30 1591.5,-30 1591.5,0 1749.5,0 1749.5,-30"/>
<text text-anchor="start" x="1599.5" y="-18" font-family="Helvetica,sans-Serif" font-size="10.00">libs/JSystem/J3DGraphAnimator</text>
<text text-anchor="middle" x="1670.5" y="-7" font-family="Helvetica,sans-Serif" font-size="10.00">/J3DModelData.cpp</text>
</a>
</g>
</g>
<!-- Node3&#45;&gt;Node9 -->
<g id="edge8" class="edge">
<title>Node3&#45;&gt;Node9</title>
<path fill="none" stroke="#63b8ff" d="M2147.24,-72.78C2054.05,-64.01 1894.77,-48.11 1758.5,-30 1755.59,-29.61 1752.62,-29.21 1749.63,-28.78"/>
<polygon fill="#63b8ff" stroke="#63b8ff" points="2146.76,-76.25 2157.05,-73.7 2147.42,-69.28 2146.76,-76.25"/>
</g>
<!-- Node10 -->
<g id="node10" class="node">
<title>Node10</title>
<g id="a_node10"><a xlink:href="J3DDrawBuffer_8cpp.html" target="_top" xlink:title=" ">
<polygon fill="white" stroke="#666666" points="1909.5,-30 1767.5,-30 1767.5,0 1909.5,0 1909.5,-30"/>
<text text-anchor="start" x="1775.5" y="-18" font-family="Helvetica,sans-Serif" font-size="10.00">libs/JSystem/J3DGraphBase</text>
<text text-anchor="middle" x="1838.5" y="-7" font-family="Helvetica,sans-Serif" font-size="10.00">/J3DDrawBuffer.cpp</text>
</a>
</g>
</g>
<!-- Node3&#45;&gt;Node10 -->
<g id="edge9" class="edge">
<title>Node3&#45;&gt;Node10</title>
<path fill="none" stroke="#63b8ff" d="M2147.26,-67.41C2085.03,-57.46 1996.19,-43.1 1918.5,-30 1915.58,-29.51 1912.6,-29 1909.59,-28.49"/>
<polygon fill="#63b8ff" stroke="#63b8ff" points="2146.64,-70.86 2157.07,-68.98 2147.75,-63.94 2146.64,-70.86"/>
</g>
<!-- Node11 -->
<g id="node11" class="node">
<title>Node11</title>
<g id="a_node11"><a xlink:href="J3DMaterial_8cpp.html" target="_top" xlink:title=" ">
<polygon fill="white" stroke="#666666" points="2069.5,-30 1927.5,-30 1927.5,0 2069.5,0 2069.5,-30"/>
<text text-anchor="start" x="1935.5" y="-18" font-family="Helvetica,sans-Serif" font-size="10.00">libs/JSystem/J3DGraphBase</text>
<text text-anchor="middle" x="1998.5" y="-7" font-family="Helvetica,sans-Serif" font-size="10.00">/J3DMaterial.cpp</text>
</a>
</g>
</g>
<!-- Node3&#45;&gt;Node11 -->
<g id="edge10" class="edge">
<title>Node3&#45;&gt;Node11</title>
<path fill="none" stroke="#63b8ff" d="M2164.2,-62.51C2128.27,-52.43 2083.65,-39.9 2049.76,-30.39"/>
<polygon fill="#63b8ff" stroke="#63b8ff" points="2163.02,-65.82 2173.59,-65.15 2164.91,-59.08 2163.02,-65.82"/>
</g>
<!-- Node12 -->
<g id="node12" class="node">
<title>Node12</title>
<g id="a_node12"><a xlink:href="J3DPacket_8cpp.html" target="_top" xlink:title=" ">
<polygon fill="white" stroke="#666666" points="2229.5,-30 2087.5,-30 2087.5,0 2229.5,0 2229.5,-30"/>
<text text-anchor="start" x="2095.5" y="-18" font-family="Helvetica,sans-Serif" font-size="10.00">libs/JSystem/J3DGraphBase</text>
<text text-anchor="middle" x="2158.5" y="-7" font-family="Helvetica,sans-Serif" font-size="10.00">/J3DPacket.cpp</text>
</a>
</g>
</g>
<!-- Node3&#45;&gt;Node12 -->
<g id="edge11" class="edge">
<title>Node3&#45;&gt;Node12</title>
<path fill="none" stroke="#63b8ff" d="M2203.22,-58.09C2193.4,-48.85 2182.26,-38.36 2173.55,-30.16"/>
<polygon fill="#63b8ff" stroke="#63b8ff" points="2200.63,-60.45 2210.31,-64.76 2205.42,-55.36 2200.63,-60.45"/>
</g>
<!-- Node13 -->
<g id="node13" class="node">
<title>Node13</title>
<g id="a_node13"><a xlink:href="d__a__alink_8cpp.html" target="_top" xlink:title=" ">
<polygon fill="white" stroke="#666666" points="1045,-24.5 936,-24.5 936,-5.5 1045,-5.5 1045,-24.5"/>
<text text-anchor="middle" x="990.5" y="-12.5" font-family="Helvetica,sans-Serif" font-size="10.00">src/d/a/d_a_alink.cpp</text>
</a>
</g>
</g>
<!-- Node3&#45;&gt;Node13 -->
<g id="edge12" class="edge">
<title>Node3&#45;&gt;Node13</title>
<path fill="none" stroke="#63b8ff" d="M2147.03,-78.4C1919.2,-73.53 1266.54,-57.5 1054.5,-30 1045.25,-28.8 1035.36,-26.93 1026.19,-24.95"/>
<polygon fill="#63b8ff" stroke="#63b8ff" points="2146.94,-81.9 2157.01,-78.61 2147.09,-74.9 2146.94,-81.9"/>
</g>
<!-- Node3&#45;&gt;Node14 -->
<g id="edge13" class="edge">
<title>Node3&#45;&gt;Node14</title>
<path fill="none" stroke="#63b8ff" d="M2305.81,-78C2515.22,-72.44 3079.55,-55.47 3264.5,-30 3273.22,-28.8 3282.53,-26.96 3291.18,-25"/>
<polygon fill="#63b8ff" stroke="#63b8ff" points="2305.74,-74.5 2295.83,-78.27 2305.92,-81.5 2305.74,-74.5"/>
</g>
<!-- Node15 -->
<g id="node15" class="node">
<title>Node15</title>
<g id="a_node15"><a xlink:href="d__model_8cpp.html" target="_top" xlink:title=" ">
<polygon fill="white" stroke="#666666" points="2343.5,-24.5 2247.5,-24.5 2247.5,-5.5 2343.5,-5.5 2343.5,-24.5"/>
<text text-anchor="middle" x="2295.5" y="-12.5" font-family="Helvetica,sans-Serif" font-size="10.00">src/d/d_model.cpp</text>
</a>
</g>
</g>
<!-- Node3&#45;&gt;Node15 -->
<g id="edge14" class="edge">
<title>Node3&#45;&gt;Node15</title>
<path fill="none" stroke="#63b8ff" d="M2249.92,-58.27C2262.25,-46.84 2276.7,-33.44 2285.96,-24.84"/>
<polygon fill="#63b8ff" stroke="#63b8ff" points="2247.87,-55.4 2242.92,-64.77 2252.63,-60.53 2247.87,-55.4"/>
</g>
<!-- Node16 -->
<g id="node16" class="node">
<title>Node16</title>
<g id="a_node16"><a xlink:href="d__resorce_8cpp.html" target="_top" xlink:title=" ">
<polygon fill="white" stroke="#666666" points="2463.5,-24.5 2361.5,-24.5 2361.5,-5.5 2463.5,-5.5 2463.5,-24.5"/>
<text text-anchor="middle" x="2412.5" y="-12.5" font-family="Helvetica,sans-Serif" font-size="10.00">src/d/d_resorce.cpp</text>
</a>
</g>
</g>
<!-- Node3&#45;&gt;Node16 -->
<g id="edge15" class="edge">
<title>Node3&#45;&gt;Node16</title>
<path fill="none" stroke="#63b8ff" d="M2278.79,-62.01C2313.88,-49.93 2358.59,-34.55 2386.38,-24.99"/>
<polygon fill="#63b8ff" stroke="#63b8ff" points="2277.99,-58.58 2269.67,-65.14 2280.27,-65.2 2277.99,-58.58"/>
</g>
<!-- Node17 -->
<g id="node17" class="node">
<title>Node17</title>
<g id="a_node17"><a xlink:href="d__file__select_8cpp.html" target="_top" xlink:title=" ">
<polygon fill="white" stroke="#666666" points="2609.5,-24.5 2481.5,-24.5 2481.5,-5.5 2609.5,-5.5 2609.5,-24.5"/>
<text text-anchor="middle" x="2545.5" y="-12.5" font-family="Helvetica,sans-Serif" font-size="10.00">src/d/file/d_file_select.cpp</text>
</a>
</g>
</g>
<!-- Node3&#45;&gt;Node17 -->
<g id="edge16" class="edge">
<title>Node3&#45;&gt;Node17</title>
<path fill="none" stroke="#63b8ff" d="M2305.39,-64.17C2367.03,-51.81 2450.45,-35.07 2500.99,-24.93"/>
<polygon fill="#63b8ff" stroke="#63b8ff" points="2304.75,-60.73 2295.64,-66.13 2306.13,-67.59 2304.75,-60.73"/>
</g>
<!-- Node18 -->
<g id="node18" class="node">
<title>Node18</title>
<g id="a_node18"><a xlink:href="d__kankyo_8cpp.html" target="_top" xlink:title=" ">
<polygon fill="white" stroke="#666666" points="2761.5,-24.5 2627.5,-24.5 2627.5,-5.5 2761.5,-5.5 2761.5,-24.5"/>
<text text-anchor="middle" x="2694.5" y="-12.5" font-family="Helvetica,sans-Serif" font-size="10.00">src/d/kankyo/d_kankyo.cpp</text>
</a>
</g>
</g>
<!-- Node3&#45;&gt;Node18 -->
<g id="edge17" class="edge">
<title>Node3&#45;&gt;Node18</title>
<path fill="none" stroke="#63b8ff" d="M2305.65,-71.21C2384.96,-62.09 2510.44,-46.83 2618.5,-30 2628.04,-28.51 2638.23,-26.76 2647.95,-25"/>
<polygon fill="#63b8ff" stroke="#63b8ff" points="2305.33,-67.72 2295.8,-72.33 2306.13,-74.67 2305.33,-67.72"/>
</g>
<!-- Node3&#45;&gt;Node19 -->
<g id="edge18" class="edge">
<title>Node3&#45;&gt;Node19</title>
<path fill="none" stroke="#63b8ff" d="M2305.9,-77.99C2532,-72.06 3176.43,-53.51 3386.5,-30 3397.44,-28.78 3409.16,-26.92 3420.08,-24.97"/>
<polygon fill="#63b8ff" stroke="#63b8ff" points="2305.91,-74.49 2296.01,-78.25 2306.09,-81.49 2305.91,-74.49"/>
</g>
<!-- Node20 -->
<g id="node20" class="node">
<title>Node20</title>
<g id="a_node20"><a xlink:href="m__Do__ext_8cpp.html" target="_top" xlink:title=" ">
<polygon fill="white" stroke="#666666" points="2903,-24.5 2780,-24.5 2780,-5.5 2903,-5.5 2903,-24.5"/>
<text text-anchor="middle" x="2841.5" y="-12.5" font-family="Helvetica,sans-Serif" font-size="10.00">src/m_Do/m_Do_ext.cpp</text>
</a>
</g>
</g>
<!-- Node3&#45;&gt;Node20 -->
<g id="edge19" class="edge">
<title>Node3&#45;&gt;Node20</title>
<path fill="none" stroke="#63b8ff" d="M2305.43,-75.31C2411.53,-68.41 2605.89,-53.73 2770.5,-30 2780.08,-28.62 2790.31,-26.8 2799.95,-24.94"/>
<polygon fill="#63b8ff" stroke="#63b8ff" points="2305.45,-71.8 2295.7,-75.93 2305.9,-78.78 2305.45,-71.8"/>
</g>
<!-- Node21&#45;&gt;Node13 -->
<g id="edge21" class="edge">
<title>Node21&#45;&gt;Node13</title>
<path fill="none" stroke="#63b8ff" d="M713.67,-69.11C769.89,-59.4 853.76,-44.52 926.5,-30 934.31,-28.44 942.63,-26.69 950.6,-24.96"/>
<polygon fill="#63b8ff" stroke="#63b8ff" points="713.21,-65.63 703.95,-70.78 714.39,-72.53 713.21,-65.63"/>
</g>
<!-- Node21&#45;&gt;Node22 -->
<g id="edge22" class="edge">
<title>Node21&#45;&gt;Node22</title>
<path fill="none" stroke="#63b8ff" d="M689.6,-67.84C730.87,-55.32 794.21,-36.11 831.07,-24.93"/>
<polygon fill="#63b8ff" stroke="#63b8ff" points="688.84,-64.41 680.29,-70.66 690.87,-71.11 688.84,-64.41"/>
</g>
<!-- Node23 -->
<g id="node23" class="node">
<title>Node23</title>
<g id="a_node23"><a xlink:href="d__com__inf__game_8cpp.html" target="_top" xlink:title=" ">
<polygon fill="white" stroke="#666666" points="633.5,-30 525.5,-30 525.5,0 633.5,0 633.5,-30"/>
<text text-anchor="start" x="533.5" y="-18" font-family="Helvetica,sans-Serif" font-size="10.00">src/d/com/d_com_inf</text>
<text text-anchor="middle" x="579.5" y="-7" font-family="Helvetica,sans-Serif" font-size="10.00">_game.cpp</text>
</a>
</g>
</g>
<!-- Node21&#45;&gt;Node23 -->
<g id="edge23" class="edge">
<title>Node21&#45;&gt;Node23</title>
<path fill="none" stroke="#63b8ff" d="M631.58,-63.62C620.39,-53.38 606.11,-40.33 595.33,-30.48"/>
<polygon fill="#63b8ff" stroke="#63b8ff" points="628.91,-65.92 638.65,-70.08 633.63,-60.75 628.91,-65.92"/>
</g>
<!-- Node24 -->
<g id="node24" class="node">
<title>Node24</title>
<g id="a_node24"><a xlink:href="d__camera_8cpp.html" target="_top" xlink:title=" ">
<polygon fill="white" stroke="#666666" points="241.5,-24.5 139.5,-24.5 139.5,-5.5 241.5,-5.5 241.5,-24.5"/>
<text text-anchor="middle" x="190.5" y="-12.5" font-family="Helvetica,sans-Serif" font-size="10.00">src/d/d_camera.cpp</text>
</a>
</g>
</g>
<!-- Node21&#45;&gt;Node24 -->
<g id="edge24" class="edge">
<title>Node21&#45;&gt;Node24</title>
<path fill="none" stroke="#63b8ff" d="M598.79,-68.86C593.31,-67.82 587.8,-66.84 582.5,-66 435.9,-42.79 396.82,-54.91 250.5,-30 242.38,-28.62 233.72,-26.8 225.57,-24.93"/>
<polygon fill="#63b8ff" stroke="#63b8ff" points="597.96,-72.26 608.45,-70.77 599.32,-65.4 597.96,-72.26"/>
</g>
<!-- Node25 -->
<g id="node25" class="node">
<title>Node25</title>
<g id="a_node25"><a xlink:href="d__event_8cpp.html" target="_top" xlink:title=" ">
<polygon fill="white" stroke="#666666" points="121,-24.5 0,-24.5 0,-5.5 121,-5.5 121,-24.5"/>
<text text-anchor="middle" x="60.5" y="-12.5" font-family="Helvetica,sans-Serif" font-size="10.00">src/d/event/d_event.cpp</text>
</a>
</g>
</g>
<!-- Node21&#45;&gt;Node25 -->
<g id="edge25" class="edge">
<title>Node21&#45;&gt;Node25</title>
<path fill="none" stroke="#63b8ff" d="M599.69,-68.87C593.92,-67.79 588.09,-66.8 582.5,-66 383.02,-37.33 330.1,-57.81 130.5,-30 120.93,-28.67 110.69,-26.85 101.08,-24.96"/>
<polygon fill="#63b8ff" stroke="#63b8ff" points="598.7,-72.24 609.19,-70.73 600.05,-65.37 598.7,-72.24"/>
</g>
<!-- Node26 -->
<g id="node26" class="node">
<title>Node26</title>
<g id="a_node26"><a xlink:href="d__meter2__draw_8cpp.html" target="_top" xlink:title=" ">
<polygon fill="white" stroke="#666666" points="369.5,-30 259.5,-30 259.5,0 369.5,0 369.5,-30"/>
<text text-anchor="start" x="267.5" y="-18" font-family="Helvetica,sans-Serif" font-size="10.00">src/d/meter/d_meter2</text>
<text text-anchor="middle" x="314.5" y="-7" font-family="Helvetica,sans-Serif" font-size="10.00">_draw.cpp</text>
</a>
</g>
</g>
<!-- Node21&#45;&gt;Node26 -->
<g id="edge26" class="edge">
<title>Node21&#45;&gt;Node26</title>
<path fill="none" stroke="#63b8ff" d="M596.64,-68.79C591.86,-67.83 587.09,-66.89 582.5,-66 492.09,-48.58 468.82,-47.84 378.5,-30 375.71,-29.45 372.86,-28.87 369.97,-28.28"/>
<polygon fill="#63b8ff" stroke="#63b8ff" points="595.74,-72.18 606.24,-70.76 597.15,-65.32 595.74,-72.18"/>
</g>
<!-- Node27 -->
<g id="node27" class="node">
<title>Node27</title>
<g id="a_node27"><a xlink:href="d__msg__flow_8cpp.html" target="_top" xlink:title=" ">
<polygon fill="white" stroke="#666666" points="785,-24.5 652,-24.5 652,-5.5 785,-5.5 785,-24.5"/>
<text text-anchor="middle" x="718.5" y="-12.5" font-family="Helvetica,sans-Serif" font-size="10.00">src/d/msg/d_msg_flow.cpp</text>
</a>
</g>
</g>
<!-- Node21&#45;&gt;Node27 -->
<g id="edge27" class="edge">
<title>Node21&#45;&gt;Node27</title>
<path fill="none" stroke="#63b8ff" d="M667.47,-63.33C680.75,-51.02 698.31,-34.73 708.99,-24.82"/>
<polygon fill="#63b8ff" stroke="#63b8ff" points="665.16,-60.71 660.2,-70.07 669.92,-65.84 665.16,-60.71"/>
</g>
<!-- Node28 -->
<g id="node28" class="node">
<title>Node28</title>
<g id="a_node28"><a xlink:href="f__op__actor_8cpp.html" target="_top" xlink:title=" ">
<polygon fill="white" stroke="#666666" points="507,-24.5 388,-24.5 388,-5.5 507,-5.5 507,-24.5"/>
<text text-anchor="middle" x="447.5" y="-12.5" font-family="Helvetica,sans-Serif" font-size="10.00">src/f_op/f_op_actor.cpp</text>
</a>
</g>
</g>
<!-- Node21&#45;&gt;Node28 -->
<g id="edge28" class="edge">
<title>Node21&#45;&gt;Node28</title>
<path fill="none" stroke="#63b8ff" d="M610.61,-67.68C571.08,-55.15 510.82,-36.06 475.67,-24.93"/>
<polygon fill="#63b8ff" stroke="#63b8ff" points="609.38,-70.96 619.97,-70.64 611.49,-64.29 609.38,-70.96"/>
</g>
</g>
</svg>
