<?xml version="1.0" encoding="UTF-8" standalone="no"?>
<!DOCTYPE svg PUBLIC "-//W3C//DTD SVG 1.1//EN"
 "http://www.w3.org/Graphics/SVG/1.1/DTD/svg11.dtd">
<!-- Generated by graphviz version 7.0.5 (20221223.1930)
 -->
<!-- Title: include/dolphin/mtx/mtx44.h Pages: 1 -->
<svg width="4119pt" height="423pt"
 viewBox="0.00 0.00 4118.96 423.00" xmlns="http://www.w3.org/2000/svg" xmlns:xlink="http://www.w3.org/1999/xlink">
<g id="graph0" class="graph" transform="scale(1 1) rotate(0) translate(4 419)">
<title>include/dolphin/mtx/mtx44.h</title>
<!-- Node1 -->
<g id="node1" class="node">
<title>Node1</title>
<g id="a_node1"><a xlink:title=" ">
<polygon fill="#999999" stroke="#666666" points="3425.46,-415 3325.46,-415 3325.46,-385 3425.46,-385 3425.46,-415"/>
<text text-anchor="start" x="3333.46" y="-403" font-family="Helvetica,sans-Serif" font-size="10.00">include/dolphin/mtx</text>
<text text-anchor="middle" x="3375.46" y="-392" font-family="Helvetica,sans-Serif" font-size="10.00">/mtx44.h</text>
</a>
</g>
</g>
<!-- Node2 -->
<g id="node2" class="node">
<title>Node2</title>
<g id="a_node2"><a xlink:href="J3DStruct_8h.html" target="_top" xlink:title=" ">
<polygon fill="white" stroke="#666666" points="1511.96,-283 1376.96,-283 1376.96,-253 1511.96,-253 1511.96,-283"/>
<text text-anchor="start" x="1384.96" y="-271" font-family="Helvetica,sans-Serif" font-size="10.00">include/JSystem/J3DGraph</text>
<text text-anchor="middle" x="1444.46" y="-260" font-family="Helvetica,sans-Serif" font-size="10.00">Base/J3DStruct.h</text>
</a>
</g>
</g>
<!-- Node1&#45;&gt;Node2 -->
<g id="edge1" class="edge">
<title>Node1&#45;&gt;Node2</title>
<path fill="none" stroke="#63b8ff" d="M3314.13,-395.05C3089.88,-380.56 2293.26,-328.85 1636.46,-283 1595.29,-280.13 1549.16,-276.77 1512.43,-274.06"/>
<polygon fill="#63b8ff" stroke="#63b8ff" points="3313.59,-398.52 3323.79,-395.67 3314.04,-391.53 3313.59,-398.52"/>
</g>
<!-- Node335 -->
<g id="node25" class="node">
<title>Node335</title>
<g id="a_node25"><a xlink:href="mtx_8h.html" target="_top" xlink:title=" ">
<polygon fill="white" stroke="#666666" points="2839.46,-349 2739.46,-349 2739.46,-319 2839.46,-319 2839.46,-349"/>
<text text-anchor="start" x="2747.46" y="-337" font-family="Helvetica,sans-Serif" font-size="10.00">include/dolphin/mtx</text>
<text text-anchor="middle" x="2789.46" y="-326" font-family="Helvetica,sans-Serif" font-size="10.00">/mtx.h</text>
</a>
</g>
</g>
<!-- Node1&#45;&gt;Node335 -->
<g id="edge28" class="edge">
<title>Node1&#45;&gt;Node335</title>
<path fill="none" stroke="#63b8ff" d="M3313.81,-392.27C3197.24,-379.53 2946.64,-352.17 2839.6,-340.48"/>
<polygon fill="#63b8ff" stroke="#63b8ff" points="3313.17,-395.72 3323.49,-393.32 3313.93,-388.76 3313.17,-395.72"/>
</g>
<!-- Node165 -->
<g id="node46" class="node">
<title>Node165</title>
<g id="a_node46"><a xlink:href="d__drawlist_8cpp.html" target="_top" xlink:title=" ">
<polygon fill="white" stroke="#666666" points="3702.46,-211.5 3598.46,-211.5 3598.46,-192.5 3702.46,-192.5 3702.46,-211.5"/>
<text text-anchor="middle" x="3650.46" y="-199.5" font-family="Helvetica,sans-Serif" font-size="10.00">src/d/d_drawlist.cpp</text>
</a>
</g>
</g>
<!-- Node1&#45;&gt;Node165 -->
<g id="edge63" class="edge">
<title>Node1&#45;&gt;Node165</title>
<path fill="none" stroke="#63b8ff" d="M3436.99,-395.88C3570.34,-387.7 3879.11,-360.62 3942.46,-283 3950.89,-272.67 3951.06,-263.19 3942.46,-253 3912.41,-217.37 3778.54,-207.13 3702.93,-204.19"/>
<polygon fill="#63b8ff" stroke="#63b8ff" points="3437.08,-392.37 3427.3,-396.46 3437.49,-399.36 3437.08,-392.37"/>
</g>
<!-- Node571 -->
<g id="node50" class="node">
<title>Node571</title>
<g id="a_node50"><a xlink:href="mtx44_8c.html" target="_top" xlink:title=" ">
<polygon fill="white" stroke="#666666" points="4110.96,-343.5 3989.96,-343.5 3989.96,-324.5 4110.96,-324.5 4110.96,-343.5"/>
<text text-anchor="middle" x="4050.46" y="-331.5" font-family="Helvetica,sans-Serif" font-size="10.00">libs/dolphin/mtx/mtx44.c</text>
</a>
</g>
</g>
<!-- Node1&#45;&gt;Node571 -->
<g id="edge62" class="edge">
<title>Node1&#45;&gt;Node571</title>
<path fill="none" stroke="#63b8ff" d="M3437.24,-395.92C3546.27,-390.03 3779.81,-375.34 3975.46,-349 3985.57,-347.64 3996.38,-345.83 4006.56,-343.97"/>
<polygon fill="#63b8ff" stroke="#63b8ff" points="3437.14,-392.42 3427.34,-396.45 3437.51,-399.41 3437.14,-392.42"/>
</g>
<!-- Node3 -->
<g id="node3" class="node">
<title>Node3</title>
<g id="a_node3"><a xlink:href="J3DMatBlock_8h.html" target="_top" xlink:title=" ">
<polygon fill="white" stroke="#666666" points="150.96,-151 15.96,-151 15.96,-121 150.96,-121 150.96,-151"/>
<text text-anchor="start" x="23.96" y="-139" font-family="Helvetica,sans-Serif" font-size="10.00">include/JSystem/J3DGraph</text>
<text text-anchor="middle" x="83.46" y="-128" font-family="Helvetica,sans-Serif" font-size="10.00">Base/J3DMatBlock.h</text>
</a>
</g>
</g>
<!-- Node2&#45;&gt;Node3 -->
<g id="edge2" class="edge">
<title>Node2&#45;&gt;Node3</title>
<path fill="none" stroke="#63b8ff" d="M1365.31,-267.22C1197.67,-266.74 794.8,-260.69 460.46,-217 344.53,-201.85 211.2,-170.11 138.25,-151.48"/>
<polygon fill="#63b8ff" stroke="#63b8ff" points="1365.21,-270.71 1375.21,-267.24 1365.22,-263.71 1365.21,-270.71"/>
</g>
<!-- Node32 -->
<g id="node11" class="node">
<title>Node32</title>
<g id="a_node11"><a xlink:href="J3DTexture_8h.html" target="_top" xlink:title=" ">
<polygon fill="white" stroke="#666666" points="604.96,-217 469.96,-217 469.96,-187 604.96,-187 604.96,-217"/>
<text text-anchor="start" x="477.96" y="-205" font-family="Helvetica,sans-Serif" font-size="10.00">include/JSystem/J3DGraph</text>
<text text-anchor="middle" x="537.46" y="-194" font-family="Helvetica,sans-Serif" font-size="10.00">Base/J3DTexture.h</text>
</a>
</g>
</g>
<!-- Node2&#45;&gt;Node32 -->
<g id="edge10" class="edge">
<title>Node2&#45;&gt;Node32</title>
<path fill="none" stroke="#63b8ff" d="M1365.19,-261.41C1189.47,-249.01 769.77,-219.39 605.26,-207.78"/>
<polygon fill="#63b8ff" stroke="#63b8ff" points="1364.93,-264.9 1375.15,-262.11 1365.42,-257.91 1364.93,-264.9"/>
</g>
<!-- Node38 -->
<g id="node17" class="node">
<title>Node38</title>
<g id="a_node17"><a xlink:href="d__kankyo_8h.html" target="_top" xlink:title=" ">
<polygon fill="white" stroke="#666666" points="1368.46,-217 1270.46,-217 1270.46,-187 1368.46,-187 1368.46,-217"/>
<text text-anchor="start" x="1278.46" y="-205" font-family="Helvetica,sans-Serif" font-size="10.00">include/d/kankyo/d</text>
<text text-anchor="middle" x="1319.46" y="-194" font-family="Helvetica,sans-Serif" font-size="10.00">_kankyo.h</text>
</a>
</g>
</g>
<!-- Node2&#45;&gt;Node38 -->
<g id="edge18" class="edge">
<title>Node2&#45;&gt;Node38</title>
<path fill="none" stroke="#63b8ff" d="M1406.29,-247.45C1387.3,-237.73 1364.77,-226.2 1347.42,-217.31"/>
<polygon fill="#63b8ff" stroke="#63b8ff" points="1404.57,-250.51 1415.06,-251.95 1407.76,-244.27 1404.57,-250.51"/>
</g>
<!-- Node334 -->
<g id="node24" class="node">
<title>Node334</title>
<g id="a_node24"><a xlink:href="J3DStruct_8cpp.html" target="_top" xlink:title=" ">
<polygon fill="white" stroke="#666666" points="1698.46,-217 1556.46,-217 1556.46,-187 1698.46,-187 1698.46,-217"/>
<text text-anchor="start" x="1564.46" y="-205" font-family="Helvetica,sans-Serif" font-size="10.00">libs/JSystem/J3DGraphBase</text>
<text text-anchor="middle" x="1627.46" y="-194" font-family="Helvetica,sans-Serif" font-size="10.00">/J3DStruct.cpp</text>
</a>
</g>
</g>
<!-- Node2&#45;&gt;Node334 -->
<g id="edge27" class="edge">
<title>Node2&#45;&gt;Node334</title>
<path fill="none" stroke="#63b8ff" d="M1496.11,-248.94C1524.62,-238.97 1559.55,-226.75 1586.22,-217.43"/>
<polygon fill="#63b8ff" stroke="#63b8ff" points="1495.25,-245.53 1486.96,-252.14 1497.56,-252.14 1495.25,-245.53"/>
</g>
<!-- Node4 -->
<g id="node4" class="node">
<title>Node4</title>
<g id="a_node4"><a xlink:href="J3DMaterial_8h.html" target="_top" xlink:title=" ">
<polygon fill="#fff0f0" stroke="red" points="150.96,-85 15.96,-85 15.96,-55 150.96,-55 150.96,-85"/>
<text text-anchor="start" x="23.96" y="-73" font-family="Helvetica,sans-Serif" font-size="10.00">include/JSystem/J3DGraph</text>
<text text-anchor="middle" x="83.46" y="-62" font-family="Helvetica,sans-Serif" font-size="10.00">Base/J3DMaterial.h</text>
</a>
</g>
</g>
<!-- Node3&#45;&gt;Node4 -->
<g id="edge3" class="edge">
<title>Node3&#45;&gt;Node4</title>
<path fill="none" stroke="#63b8ff" d="M83.46,-109.39C83.46,-101.13 83.46,-92.28 83.46,-85.16"/>
<polygon fill="#63b8ff" stroke="#63b8ff" points="79.96,-109.28 83.46,-119.28 86.96,-109.28 79.96,-109.28"/>
</g>
<!-- Node22 -->
<g id="node8" class="node">
<title>Node22</title>
<g id="a_node8"><a xlink:href="d__a__alink_8h.html" target="_top" xlink:title=" ">
<polygon fill="#fff0f0" stroke="red" points="728.46,-79.5 612.46,-79.5 612.46,-60.5 728.46,-60.5 728.46,-79.5"/>
<text text-anchor="middle" x="670.46" y="-67.5" font-family="Helvetica,sans-Serif" font-size="10.00">include/d/a/d_a_alink.h</text>
</a>
</g>
</g>
<!-- Node3&#45;&gt;Node22 -->
<g id="edge7" class="edge">
<title>Node3&#45;&gt;Node22</title>
<path fill="none" stroke="#63b8ff" d="M162.7,-120.61C331.24,-97.32 518.99,-81.98 612.03,-75.1"/>
<polygon fill="#63b8ff" stroke="#63b8ff" points="162.29,-117.14 152.87,-121.99 163.26,-124.07 162.29,-117.14"/>
</g>
<!-- Node30 -->
<g id="node9" class="node">
<title>Node30</title>
<g id="a_node9"><a xlink:href="J3DMatBlock_8cpp.html" target="_top" xlink:title=" ">
<polygon fill="white" stroke="#666666" points="311.46,-85 169.46,-85 169.46,-55 311.46,-55 311.46,-85"/>
<text text-anchor="start" x="177.46" y="-73" font-family="Helvetica,sans-Serif" font-size="10.00">libs/JSystem/J3DGraphBase</text>
<text text-anchor="middle" x="240.46" y="-62" font-family="Helvetica,sans-Serif" font-size="10.00">/J3DMatBlock.cpp</text>
</a>
</g>
</g>
<!-- Node3&#45;&gt;Node30 -->
<g id="edge8" class="edge">
<title>Node3&#45;&gt;Node30</title>
<path fill="none" stroke="#63b8ff" d="M129.07,-116.41C153.29,-106.54 182.6,-94.59 205.08,-85.43"/>
<polygon fill="#63b8ff" stroke="#63b8ff" points="128.04,-113.05 120.1,-120.07 130.68,-119.53 128.04,-113.05"/>
</g>
<!-- Node31 -->
<g id="node10" class="node">
<title>Node31</title>
<g id="a_node10"><a xlink:href="d__attention_8cpp.html" target="_top" xlink:title=" ">
<polygon fill="white" stroke="#666666" points="436.96,-79.5 329.96,-79.5 329.96,-60.5 436.96,-60.5 436.96,-79.5"/>
<text text-anchor="middle" x="383.46" y="-67.5" font-family="Helvetica,sans-Serif" font-size="10.00">src/d/d_attention.cpp</text>
</a>
</g>
</g>
<!-- Node3&#45;&gt;Node31 -->
<g id="edge9" class="edge">
<title>Node3&#45;&gt;Node31</title>
<path fill="none" stroke="#63b8ff" d="M162.56,-118.53C208.65,-108.88 267.88,-96.39 320.46,-85 327.91,-83.39 335.85,-81.64 343.48,-79.95"/>
<polygon fill="#63b8ff" stroke="#63b8ff" points="161.99,-115.08 152.92,-120.55 163.43,-121.93 161.99,-115.08"/>
</g>
<!-- Node17 -->
<g id="node5" class="node">
<title>Node17</title>
<g id="a_node5"><a xlink:href="d__resorce_8cpp.html" target="_top" xlink:title=" ">
<polygon fill="white" stroke="#666666" points="1794.46,-19 1692.46,-19 1692.46,0 1794.46,0 1794.46,-19"/>
<text text-anchor="middle" x="1743.46" y="-7" font-family="Helvetica,sans-Serif" font-size="10.00">src/d/d_resorce.cpp</text>
</a>
</g>
</g>
<!-- Node4&#45;&gt;Node17 -->
<g id="edge4" class="edge">
<title>Node4&#45;&gt;Node17</title>
<path fill="none" stroke="#63b8ff" d="M162.69,-55C361.14,-37.91 1443.03,-16.29 1692.26,-11.48"/>
<polygon fill="#63b8ff" stroke="#63b8ff" points="162.54,-51.5 152.91,-55.93 163.2,-58.47 162.54,-51.5"/>
</g>
<!-- Node19 -->
<g id="node6" class="node">
<title>Node19</title>
<g id="a_node6"><a xlink:href="d__kankyo_8cpp.html" target="_top" xlink:title=" ">
<polygon fill="white" stroke="#666666" points="565.46,-19 431.46,-19 431.46,0 565.46,0 565.46,-19"/>
<text text-anchor="middle" x="498.46" y="-7" font-family="Helvetica,sans-Serif" font-size="10.00">src/d/kankyo/d_kankyo.cpp</text>
</a>
</g>
</g>
<!-- Node4&#45;&gt;Node19 -->
<g id="edge5" class="edge">
<title>Node4&#45;&gt;Node19</title>
<path fill="none" stroke="#63b8ff" d="M162.59,-54.72C261.82,-39.36 365.13,-26.33 430.99,-18.4"/>
<polygon fill="#63b8ff" stroke="#63b8ff" points="162.29,-51.22 152.95,-56.22 163.37,-58.14 162.29,-51.22"/>
</g>
<!-- Node21 -->
<g id="node7" class="node">
<title>Node21</title>
<g id="a_node7"><a xlink:href="m__Do__ext_8cpp.html" target="_top" xlink:title=" ">
<polygon fill="white" stroke="#666666" points="1190.96,-19 1067.96,-19 1067.96,0 1190.96,0 1190.96,-19"/>
<text text-anchor="middle" x="1129.46" y="-7" font-family="Helvetica,sans-Serif" font-size="10.00">src/m_Do/m_Do_ext.cpp</text>
</a>
</g>
</g>
<!-- Node4&#45;&gt;Node21 -->
<g id="edge6" class="edge">
<title>Node4&#45;&gt;Node21</title>
<path fill="none" stroke="#63b8ff" d="M162.72,-54.87C510.45,-16.22 915.61,-11.02 1067.73,-10.47"/>
<polygon fill="#63b8ff" stroke="#63b8ff" points="162.46,-51.37 152.91,-55.97 163.24,-58.33 162.46,-51.37"/>
</g>
<!-- Node32&#45;&gt;Node3 -->
<g id="edge11" class="edge">
<title>Node32&#45;&gt;Node3</title>
<path fill="none" stroke="#63b8ff" d="M458.73,-191.77C382.16,-182.5 262.6,-167.31 159.46,-151 156.81,-150.58 154.11,-150.14 151.39,-149.69"/>
<polygon fill="#63b8ff" stroke="#63b8ff" points="457.86,-195.19 468.21,-192.91 458.7,-188.24 457.86,-195.19"/>
</g>
<!-- Node32&#45;&gt;Node4 -->
<g id="edge12" class="edge">
<title>Node32&#45;&gt;Node4</title>
<path fill="none" stroke="#63b8ff" d="M458.61,-199.31C318.1,-195.48 36.28,-183.75 6.46,-151 -14.88,-127.55 23,-101.2 52.8,-85.37"/>
<polygon fill="#63b8ff" stroke="#63b8ff" points="458.1,-202.8 468.19,-199.56 458.29,-195.8 458.1,-202.8"/>
</g>
<!-- Node33 -->
<g id="node12" class="node">
<title>Node33</title>
<g id="a_node12"><a xlink:href="J2DAnimation_8cpp.html" target="_top" xlink:title=" ">
<polygon fill="white" stroke="#666666" points="287.96,-151 168.96,-151 168.96,-121 287.96,-121 287.96,-151"/>
<text text-anchor="start" x="176.96" y="-139" font-family="Helvetica,sans-Serif" font-size="10.00">libs/JSystem/J2DGraph</text>
<text text-anchor="middle" x="228.46" y="-128" font-family="Helvetica,sans-Serif" font-size="10.00">/J2DAnimation.cpp</text>
</a>
</g>
</g>
<!-- Node32&#45;&gt;Node33 -->
<g id="edge13" class="edge">
<title>Node32&#45;&gt;Node33</title>
<path fill="none" stroke="#63b8ff" d="M458.59,-184.66C405.58,-173.68 336.8,-159.44 288.29,-149.39"/>
<polygon fill="#63b8ff" stroke="#63b8ff" points="457.67,-188.05 468.17,-186.65 459.09,-181.19 457.67,-188.05"/>
</g>
<!-- Node34 -->
<g id="node13" class="node">
<title>Node34</title>
<g id="a_node13"><a xlink:href="J3DSys_8cpp.html" target="_top" xlink:title=" ">
<polygon fill="white" stroke="#666666" points="448.46,-151 306.46,-151 306.46,-121 448.46,-121 448.46,-151"/>
<text text-anchor="start" x="314.46" y="-139" font-family="Helvetica,sans-Serif" font-size="10.00">libs/JSystem/J3DGraphBase</text>
<text text-anchor="middle" x="377.46" y="-128" font-family="Helvetica,sans-Serif" font-size="10.00">/J3DSys.cpp</text>
</a>
</g>
</g>
<!-- Node32&#45;&gt;Node34 -->
<g id="edge14" class="edge">
<title>Node32&#45;&gt;Node34</title>
<path fill="none" stroke="#63b8ff" d="M490.98,-182.41C466.3,-172.54 436.43,-160.59 413.53,-151.43"/>
<polygon fill="#63b8ff" stroke="#63b8ff" points="489.57,-185.61 500.15,-186.08 492.17,-179.11 489.57,-185.61"/>
</g>
<!-- Node35 -->
<g id="node14" class="node">
<title>Node35</title>
<g id="a_node14"><a xlink:href="J3DTevs_8cpp.html" target="_top" xlink:title=" ">
<polygon fill="white" stroke="#666666" points="608.46,-151 466.46,-151 466.46,-121 608.46,-121 608.46,-151"/>
<text text-anchor="start" x="474.46" y="-139" font-family="Helvetica,sans-Serif" font-size="10.00">libs/JSystem/J3DGraphBase</text>
<text text-anchor="middle" x="537.46" y="-128" font-family="Helvetica,sans-Serif" font-size="10.00">/J3DTevs.cpp</text>
</a>
</g>
</g>
<!-- Node32&#45;&gt;Node35 -->
<g id="edge15" class="edge">
<title>Node32&#45;&gt;Node35</title>
<path fill="none" stroke="#63b8ff" d="M537.46,-175.39C537.46,-167.13 537.46,-158.28 537.46,-151.16"/>
<polygon fill="#63b8ff" stroke="#63b8ff" points="533.96,-175.28 537.46,-185.28 540.96,-175.28 533.96,-175.28"/>
</g>
<!-- Node36 -->
<g id="node15" class="node">
<title>Node36</title>
<g id="a_node15"><a xlink:href="J3DTexture_8cpp.html" target="_top" xlink:title=" ">
<polygon fill="white" stroke="#666666" points="768.46,-151 626.46,-151 626.46,-121 768.46,-121 768.46,-151"/>
<text text-anchor="start" x="634.46" y="-139" font-family="Helvetica,sans-Serif" font-size="10.00">libs/JSystem/J3DGraphBase</text>
<text text-anchor="middle" x="697.46" y="-128" font-family="Helvetica,sans-Serif" font-size="10.00">/J3DTexture.cpp</text>
</a>
</g>
</g>
<!-- Node32&#45;&gt;Node36 -->
<g id="edge16" class="edge">
<title>Node32&#45;&gt;Node36</title>
<path fill="none" stroke="#63b8ff" d="M583.95,-182.41C608.62,-172.54 638.49,-160.59 661.4,-151.43"/>
<polygon fill="#63b8ff" stroke="#63b8ff" points="582.76,-179.11 574.78,-186.08 585.36,-185.61 582.76,-179.11"/>
</g>
<!-- Node37 -->
<g id="node16" class="node">
<title>Node37</title>
<g id="a_node16"><a xlink:href="d__eye__hl_8cpp.html" target="_top" xlink:title=" ">
<polygon fill="white" stroke="#666666" points="884.46,-145.5 786.46,-145.5 786.46,-126.5 884.46,-126.5 884.46,-145.5"/>
<text text-anchor="middle" x="835.46" y="-133.5" font-family="Helvetica,sans-Serif" font-size="10.00">src/d/d_eye_hl.cpp</text>
</a>
</g>
</g>
<!-- Node32&#45;&gt;Node37 -->
<g id="edge17" class="edge">
<title>Node32&#45;&gt;Node37</title>
<path fill="none" stroke="#63b8ff" d="M616.35,-185.22C663.24,-175.67 723.84,-163.06 777.46,-151 784.44,-149.43 791.86,-147.69 799,-145.99"/>
<polygon fill="#63b8ff" stroke="#63b8ff" points="615.93,-181.73 606.83,-187.15 617.33,-188.59 615.93,-181.73"/>
</g>
<!-- Node38&#45;&gt;Node19 -->
<g id="edge24" class="edge">
<title>Node38&#45;&gt;Node19</title>
<path fill="none" stroke="#63b8ff" d="M1258.8,-197.14C1164.9,-190.51 989.16,-175.27 931.46,-151 911.63,-142.66 911.98,-131.96 893.46,-121 828.67,-82.67 809.56,-76.68 737.46,-55 680.68,-37.92 614.23,-26.18 565.84,-19.07"/>
<polygon fill="#63b8ff" stroke="#63b8ff" points="1258.38,-200.62 1268.6,-197.82 1258.86,-193.64 1258.38,-200.62"/>
</g>
<!-- Node39 -->
<g id="node18" class="node">
<title>Node39</title>
<g id="a_node18"><a xlink:href="d__stage_8h.html" target="_top" xlink:title=" ">
<polygon fill="#fff0f0" stroke="red" points="1714.96,-145.5 1613.96,-145.5 1613.96,-126.5 1714.96,-126.5 1714.96,-145.5"/>
<text text-anchor="middle" x="1664.46" y="-133.5" font-family="Helvetica,sans-Serif" font-size="10.00">include/d/d_stage.h</text>
</a>
</g>
</g>
<!-- Node38&#45;&gt;Node39 -->
<g id="edge19" class="edge">
<title>Node38&#45;&gt;Node39</title>
<path fill="none" stroke="#63b8ff" d="M1379.92,-191.39C1437.74,-181.97 1527.29,-166.76 1604.46,-151 1611.9,-149.48 1619.83,-147.73 1627.41,-145.99"/>
<polygon fill="#63b8ff" stroke="#63b8ff" points="1379.6,-187.9 1370.29,-192.96 1380.72,-194.81 1379.6,-187.9"/>
</g>
<!-- Node218 -->
<g id="node19" class="node">
<title>Node218</title>
<g id="a_node19"><a xlink:href="d__menu__collect_8h.html" target="_top" xlink:title=" ">
<polygon fill="#fff0f0" stroke="red" points="1060.46,-151 940.46,-151 940.46,-121 1060.46,-121 1060.46,-151"/>
<text text-anchor="start" x="948.46" y="-139" font-family="Helvetica,sans-Serif" font-size="10.00">include/d/menu/d_menu</text>
<text text-anchor="middle" x="1000.46" y="-128" font-family="Helvetica,sans-Serif" font-size="10.00">_collect.h</text>
</a>
</g>
</g>
<!-- Node38&#45;&gt;Node218 -->
<g id="edge20" class="edge">
<title>Node38&#45;&gt;Node218</title>
<path fill="none" stroke="#63b8ff" d="M1259.05,-188.97C1208.41,-178.87 1134.21,-164.04 1069.46,-151 1066.59,-150.42 1063.64,-149.83 1060.67,-149.23"/>
<polygon fill="#63b8ff" stroke="#63b8ff" points="1258.15,-192.36 1268.64,-190.88 1259.52,-185.49 1258.15,-192.36"/>
</g>
<!-- Node219 -->
<g id="node20" class="node">
<title>Node219</title>
<g id="a_node20"><a xlink:href="d__particle_8h.html" target="_top" xlink:title=" ">
<polygon fill="#fff0f0" stroke="red" points="1168.46,-151 1078.46,-151 1078.46,-121 1168.46,-121 1168.46,-151"/>
<text text-anchor="start" x="1086.46" y="-139" font-family="Helvetica,sans-Serif" font-size="10.00">include/d/particle</text>
<text text-anchor="middle" x="1123.46" y="-128" font-family="Helvetica,sans-Serif" font-size="10.00">/d_particle.h</text>
</a>
</g>
</g>
<!-- Node38&#45;&gt;Node219 -->
<g id="edge21" class="edge">
<title>Node38&#45;&gt;Node219</title>
<path fill="none" stroke="#63b8ff" d="M1264.55,-183.07C1233.94,-173.07 1196.33,-160.79 1167.64,-151.43"/>
<polygon fill="#63b8ff" stroke="#63b8ff" points="1263.45,-186.39 1274.04,-186.17 1265.62,-179.74 1263.45,-186.39"/>
</g>
<!-- Node225 -->
<g id="node21" class="node">
<title>Node225</title>
<g id="a_node21"><a xlink:href="f__op__actor_8h.html" target="_top" xlink:title=" ">
<polygon fill="#fff0f0" stroke="red" points="1311.96,-145.5 1186.96,-145.5 1186.96,-126.5 1311.96,-126.5 1311.96,-145.5"/>
<text text-anchor="middle" x="1249.46" y="-133.5" font-family="Helvetica,sans-Serif" font-size="10.00">include/f_op/f_op_actor.h</text>
</a>
</g>
</g>
<!-- Node38&#45;&gt;Node225 -->
<g id="edge23" class="edge">
<title>Node38&#45;&gt;Node225</title>
<path fill="none" stroke="#63b8ff" d="M1295.7,-179.27C1283.19,-167.84 1268.54,-154.44 1259.14,-145.84"/>
<polygon fill="#63b8ff" stroke="#63b8ff" points="1293.07,-181.61 1302.81,-185.78 1297.79,-176.44 1293.07,-181.61"/>
</g>
<!-- Node185 -->
<g id="node22" class="node">
<title>Node185</title>
<g id="a_node22"><a xlink:href="d__kankyo__wether_8cpp.html" target="_top" xlink:title=" ">
<polygon fill="white" stroke="#666666" points="1446.46,-151 1330.46,-151 1330.46,-121 1446.46,-121 1446.46,-151"/>
<text text-anchor="start" x="1338.46" y="-139" font-family="Helvetica,sans-Serif" font-size="10.00">src/d/kankyo/d_kankyo</text>
<text text-anchor="middle" x="1388.46" y="-128" font-family="Helvetica,sans-Serif" font-size="10.00">_wether.cpp</text>
</a>
</g>
</g>
<!-- Node38&#45;&gt;Node185 -->
<g id="edge25" class="edge">
<title>Node38&#45;&gt;Node185</title>
<path fill="none" stroke="#63b8ff" d="M1343.09,-179.09C1353.05,-169.85 1364.36,-159.36 1373.19,-151.16"/>
<polygon fill="#63b8ff" stroke="#63b8ff" points="1340.84,-176.4 1335.89,-185.77 1345.6,-181.53 1340.84,-176.4"/>
</g>
<!-- Node333 -->
<g id="node23" class="node">
<title>Node333</title>
<g id="a_node23"><a xlink:href="d__msg__unit_8cpp.html" target="_top" xlink:title=" ">
<polygon fill="white" stroke="#666666" points="1595.96,-145.5 1464.96,-145.5 1464.96,-126.5 1595.96,-126.5 1595.96,-145.5"/>
<text text-anchor="middle" x="1530.46" y="-133.5" font-family="Helvetica,sans-Serif" font-size="10.00">src/d/msg/d_msg_unit.cpp</text>
</a>
</g>
</g>
<!-- Node38&#45;&gt;Node333 -->
<g id="edge26" class="edge">
<title>Node38&#45;&gt;Node333</title>
<path fill="none" stroke="#63b8ff" d="M1378.02,-183.24C1417.97,-171.12 1469.19,-155.59 1500.91,-145.96"/>
<polygon fill="#63b8ff" stroke="#63b8ff" points="1377.08,-179.87 1368.53,-186.12 1379.11,-186.56 1377.08,-179.87"/>
</g>
<!-- Node219&#45;&gt;Node22 -->
<g id="edge22" class="edge">
<title>Node219&#45;&gt;Node22</title>
<path fill="none" stroke="#63b8ff" d="M1067.21,-120.72C941.27,-97.15 804.46,-82.85 728.65,-75.92"/>
<polygon fill="#63b8ff" stroke="#63b8ff" points="1066.22,-124.1 1076.7,-122.53 1067.53,-117.22 1066.22,-124.1"/>
</g>
<!-- Node335&#45;&gt;Node2 -->
<g id="edge40" class="edge">
<title>Node335&#45;&gt;Node2</title>
<path fill="none" stroke="#63b8ff" d="M2727.78,-330.96C2555.27,-325.14 2053.19,-307.22 1636.46,-283 1595.26,-280.6 1549.12,-277.26 1512.41,-274.44"/>
<polygon fill="#63b8ff" stroke="#63b8ff" points="2727.52,-334.46 2737.63,-331.3 2727.76,-327.46 2727.52,-334.46"/>
</g>
<!-- Node335&#45;&gt;Node17 -->
<g id="edge60" class="edge">
<title>Node335&#45;&gt;Node17</title>
<path fill="none" stroke="#63b8ff" d="M2727.94,-330.94C2509.97,-323.54 1786.47,-297.87 1767.46,-283 1738.23,-260.12 1743.46,-240.12 1743.46,-203 1743.46,-203 1743.46,-203 1743.46,-135 1743.46,-91.55 1743.46,-39.58 1743.46,-19.25"/>
<polygon fill="#63b8ff" stroke="#63b8ff" points="2727.53,-334.43 2737.64,-331.27 2727.76,-327.44 2727.53,-334.43"/>
</g>
<!-- Node335&#45;&gt;Node21 -->
<g id="edge61" class="edge">
<title>Node335&#45;&gt;Node21</title>
<path fill="none" stroke="#63b8ff" d="M2727.88,-331.57C2508.97,-325.69 1781.46,-298.94 1781.46,-203 1781.46,-203 1781.46,-203 1781.46,-135 1781.46,-75.29 1354.14,-30.66 1191.39,-15.83"/>
<polygon fill="#63b8ff" stroke="#63b8ff" points="2727.53,-335.06 2737.62,-331.83 2727.71,-328.07 2727.53,-335.06"/>
</g>
<!-- Node335&#45;&gt;Node32 -->
<g id="edge41" class="edge">
<title>Node335&#45;&gt;Node32</title>
<path fill="none" stroke="#63b8ff" d="M2727.74,-330.86C2531.81,-323.96 1925.26,-301.63 1729.46,-283 1636.04,-274.11 1613.87,-262.06 1520.46,-253 1177.54,-219.74 765.02,-207.85 605.25,-204.31"/>
<polygon fill="#63b8ff" stroke="#63b8ff" points="2727.6,-334.36 2737.72,-331.22 2727.85,-327.37 2727.6,-334.36"/>
</g>
<!-- Node336 -->
<g id="node26" class="node">
<title>Node336</title>
<g id="a_node26"><a xlink:href="J2DGrafContext_8h.html" target="_top" xlink:title=" ">
<polygon fill="#fff0f0" stroke="red" points="2229.96,-283 2094.96,-283 2094.96,-253 2229.96,-253 2229.96,-283"/>
<text text-anchor="start" x="2102.96" y="-271" font-family="Helvetica,sans-Serif" font-size="10.00">include/JSystem/J2DGraph</text>
<text text-anchor="middle" x="2162.46" y="-260" font-family="Helvetica,sans-Serif" font-size="10.00">/J2DGrafContext.h</text>
</a>
</g>
</g>
<!-- Node335&#45;&gt;Node336 -->
<g id="edge29" class="edge">
<title>Node335&#45;&gt;Node336</title>
<path fill="none" stroke="#63b8ff" d="M2727.96,-329.21C2626.08,-322.52 2416.02,-307.03 2239.46,-283 2236.5,-282.6 2233.48,-282.16 2230.43,-281.7"/>
<polygon fill="#63b8ff" stroke="#63b8ff" points="2727.53,-332.69 2737.73,-329.84 2727.98,-325.7 2727.53,-332.69"/>
</g>
<!-- Node346 -->
<g id="node36" class="node">
<title>Node346</title>
<g id="a_node36"><a xlink:href="J2DPane_8h.html" target="_top" xlink:title=" ">
<polygon fill="#fff0f0" stroke="red" points="2382.96,-283 2247.96,-283 2247.96,-253 2382.96,-253 2382.96,-283"/>
<text text-anchor="start" x="2255.96" y="-271" font-family="Helvetica,sans-Serif" font-size="10.00">include/JSystem/J2DGraph</text>
<text text-anchor="middle" x="2315.46" y="-260" font-family="Helvetica,sans-Serif" font-size="10.00">/J2DPane.h</text>
</a>
</g>
</g>
<!-- Node335&#45;&gt;Node346 -->
<g id="edge39" class="edge">
<title>Node335&#45;&gt;Node346</title>
<path fill="none" stroke="#63b8ff" d="M2728.13,-326.33C2650.01,-317.59 2510.91,-301.21 2392.46,-283 2389.51,-282.55 2386.49,-282.07 2383.45,-281.57"/>
<polygon fill="#63b8ff" stroke="#63b8ff" points="2727.38,-329.76 2737.7,-327.39 2728.15,-322.81 2727.38,-329.76"/>
</g>
<!-- Node400 -->
<g id="node37" class="node">
<title>Node400</title>
<g id="a_node37"><a xlink:href="JMath_8h.html" target="_top" xlink:title=" ">
<polygon fill="#fff0f0" stroke="red" points="2519.96,-283 2400.96,-283 2400.96,-253 2519.96,-253 2519.96,-283"/>
<text text-anchor="start" x="2408.96" y="-271" font-family="Helvetica,sans-Serif" font-size="10.00">include/JSystem/JMath</text>
<text text-anchor="middle" x="2460.46" y="-260" font-family="Helvetica,sans-Serif" font-size="10.00">/JMath.h</text>
</a>
</g>
</g>
<!-- Node335&#45;&gt;Node400 -->
<g id="edge42" class="edge">
<title>Node335&#45;&gt;Node400</title>
<path fill="none" stroke="#63b8ff" d="M2728.04,-321.05C2668.61,-309.49 2579.14,-292.09 2520.27,-280.63"/>
<polygon fill="#63b8ff" stroke="#63b8ff" points="2727.17,-324.45 2737.65,-322.92 2728.5,-317.58 2727.17,-324.45"/>
</g>
<!-- Node401 -->
<g id="node38" class="node">
<title>Node401</title>
<g id="a_node38"><a xlink:href="TPosition3_8hh.html" target="_top" xlink:title=" ">
<polygon fill="#fff0f0" stroke="red" points="3165.96,-211.5 3014.96,-211.5 3014.96,-192.5 3165.96,-192.5 3165.96,-211.5"/>
<text text-anchor="middle" x="3090.46" y="-199.5" font-family="Helvetica,sans-Serif" font-size="10.00">include/JSystem/TPosition3.hh</text>
</a>
</g>
</g>
<!-- Node335&#45;&gt;Node401 -->
<g id="edge47" class="edge">
<title>Node335&#45;&gt;Node401</title>
<path fill="none" stroke="#63b8ff" d="M2727.66,-330.27C2645.96,-324.54 2517.81,-306.9 2567.46,-253 2600.55,-217.09 2957,-222.97 3005.46,-217 3016.74,-215.61 3028.82,-213.81 3040.22,-211.97"/>
<polygon fill="#63b8ff" stroke="#63b8ff" points="2727.39,-333.76 2737.6,-330.92 2727.85,-326.77 2727.39,-333.76"/>
</g>
<!-- Node422 -->
<g id="node39" class="node">
<title>Node422</title>
<g id="a_node39"><a xlink:href="JPADrawInfo_8h.html" target="_top" xlink:title=" ">
<polygon fill="#fff0f0" stroke="red" points="2706.46,-283 2576.46,-283 2576.46,-253 2706.46,-253 2706.46,-283"/>
<text text-anchor="start" x="2584.46" y="-271" font-family="Helvetica,sans-Serif" font-size="10.00">include/JSystem/JParticle</text>
<text text-anchor="middle" x="2641.46" y="-260" font-family="Helvetica,sans-Serif" font-size="10.00">/JPADrawInfo.h</text>
</a>
</g>
</g>
<!-- Node335&#45;&gt;Node422 -->
<g id="edge45" class="edge">
<title>Node335&#45;&gt;Node422</title>
<path fill="none" stroke="#63b8ff" d="M2745.85,-314.14C2723.15,-304.32 2695.82,-292.51 2674.82,-283.43"/>
<polygon fill="#63b8ff" stroke="#63b8ff" points="2744.29,-317.28 2754.86,-318.04 2747.07,-310.85 2744.29,-317.28"/>
</g>
<!-- Node427 -->
<g id="node40" class="node">
<title>Node427</title>
<g id="a_node40"><a xlink:href="JPAMath_8h.html" target="_top" xlink:title=" ">
<polygon fill="#fff0f0" stroke="red" points="2854.46,-283 2724.46,-283 2724.46,-253 2854.46,-253 2854.46,-283"/>
<text text-anchor="start" x="2732.46" y="-271" font-family="Helvetica,sans-Serif" font-size="10.00">include/JSystem/JParticle</text>
<text text-anchor="middle" x="2789.46" y="-260" font-family="Helvetica,sans-Serif" font-size="10.00">/JPAMath.h</text>
</a>
</g>
</g>
<!-- Node335&#45;&gt;Node427 -->
<g id="edge46" class="edge">
<title>Node335&#45;&gt;Node427</title>
<path fill="none" stroke="#63b8ff" d="M2789.46,-307.39C2789.46,-299.13 2789.46,-290.28 2789.46,-283.16"/>
<polygon fill="#63b8ff" stroke="#63b8ff" points="2785.96,-307.28 2789.46,-317.28 2792.96,-307.28 2785.96,-307.28"/>
</g>
<!-- Node436 -->
<g id="node41" class="node">
<title>Node436</title>
<g id="a_node41"><a xlink:href="c__lib_8h.html" target="_top" xlink:title=" ">
<polygon fill="#fff0f0" stroke="red" points="3021.96,-283 2872.96,-283 2872.96,-253 3021.96,-253 3021.96,-283"/>
<text text-anchor="start" x="2880.96" y="-271" font-family="Helvetica,sans-Serif" font-size="10.00">include/SSystem/SComponent</text>
<text text-anchor="middle" x="2947.46" y="-260" font-family="Helvetica,sans-Serif" font-size="10.00">/c_lib.h</text>
</a>
</g>
</g>
<!-- Node335&#45;&gt;Node436 -->
<g id="edge48" class="edge">
<title>Node335&#45;&gt;Node436</title>
<path fill="none" stroke="#63b8ff" d="M2835.36,-314.41C2859.73,-304.54 2889.23,-292.59 2911.85,-283.43"/>
<polygon fill="#63b8ff" stroke="#63b8ff" points="2834.28,-311.07 2826.32,-318.07 2836.91,-317.56 2834.28,-311.07"/>
</g>
<!-- Node439 -->
<g id="node42" class="node">
<title>Node439</title>
<g id="a_node42"><a xlink:href="d__bg__w_8h.html" target="_top" xlink:title=" ">
<polygon fill="#fff0f0" stroke="red" points="3152.96,-277.5 3039.96,-277.5 3039.96,-258.5 3152.96,-258.5 3152.96,-277.5"/>
<text text-anchor="middle" x="3096.46" y="-265.5" font-family="Helvetica,sans-Serif" font-size="10.00">include/d/bg/d_bg_w.h</text>
</a>
</g>
</g>
<!-- Node335&#45;&gt;Node439 -->
<g id="edge50" class="edge">
<title>Node335&#45;&gt;Node439</title>
<path fill="none" stroke="#63b8ff" d="M2850.58,-320.52C2899.52,-310.49 2969.93,-295.98 3031.46,-283 3039.14,-281.38 3047.33,-279.63 3055.21,-277.94"/>
<polygon fill="#63b8ff" stroke="#63b8ff" points="2850.12,-317.04 2841.03,-322.48 2851.53,-323.9 2850.12,-317.04"/>
</g>
<!-- Node442 -->
<g id="node43" class="node">
<title>Node442</title>
<g id="a_node43"><a xlink:href="GXInit_8h.html" target="_top" xlink:title=" ">
<polygon fill="#fff0f0" stroke="red" points="3265.46,-283 3171.46,-283 3171.46,-253 3265.46,-253 3265.46,-283"/>
<text text-anchor="start" x="3179.46" y="-271" font-family="Helvetica,sans-Serif" font-size="10.00">include/dolphin/gx</text>
<text text-anchor="middle" x="3218.46" y="-260" font-family="Helvetica,sans-Serif" font-size="10.00">/GXInit.h</text>
</a>
</g>
</g>
<!-- Node335&#45;&gt;Node442 -->
<g id="edge51" class="edge">
<title>Node335&#45;&gt;Node442</title>
<path fill="none" stroke="#63b8ff" d="M2851.27,-326.85C2925.54,-318.98 3053.73,-303.81 3162.46,-283 3165.32,-282.45 3168.24,-281.85 3171.19,-281.21"/>
<polygon fill="#63b8ff" stroke="#63b8ff" points="2850.91,-323.37 2841.33,-327.9 2851.64,-330.33 2850.91,-323.37"/>
</g>
<!-- Node531 -->
<g id="node44" class="node">
<title>Node531</title>
<g id="a_node44"><a xlink:href="GXTransform_8h.html" target="_top" xlink:title=" ">
<polygon fill="#fff0f0" stroke="red" points="3377.46,-283 3283.46,-283 3283.46,-253 3377.46,-253 3377.46,-283"/>
<text text-anchor="start" x="3291.46" y="-271" font-family="Helvetica,sans-Serif" font-size="10.00">include/dolphin/gx</text>
<text text-anchor="middle" x="3330.46" y="-260" font-family="Helvetica,sans-Serif" font-size="10.00">/GXTransform.h</text>
</a>
</g>
</g>
<!-- Node335&#45;&gt;Node531 -->
<g id="edge52" class="edge">
<title>Node335&#45;&gt;Node531</title>
<path fill="none" stroke="#63b8ff" d="M2851.09,-329.47C2943.58,-323.52 3123.55,-309.5 3274.46,-283 3277.33,-282.5 3280.26,-281.93 3283.21,-281.32"/>
<polygon fill="#63b8ff" stroke="#63b8ff" points="2850.98,-325.96 2841.22,-330.09 2851.42,-332.95 2850.98,-325.96"/>
</g>
<!-- Node533 -->
<g id="node45" class="node">
<title>Node533</title>
<g id="a_node45"><a xlink:href="mtxvec_8h.html" target="_top" xlink:title=" ">
<polygon fill="#fff0f0" stroke="red" points="3495.46,-283 3395.46,-283 3395.46,-253 3495.46,-253 3495.46,-283"/>
<text text-anchor="start" x="3403.46" y="-271" font-family="Helvetica,sans-Serif" font-size="10.00">include/dolphin/mtx</text>
<text text-anchor="middle" x="3445.46" y="-260" font-family="Helvetica,sans-Serif" font-size="10.00">/mtxvec.h</text>
</a>
</g>
</g>
<!-- Node335&#45;&gt;Node533 -->
<g id="edge53" class="edge">
<title>Node335&#45;&gt;Node533</title>
<path fill="none" stroke="#63b8ff" d="M2851.07,-330.88C2959.78,-326.45 3192.48,-313.96 3386.46,-283 3389.27,-282.55 3392.14,-282.04 3395.03,-281.49"/>
<polygon fill="#63b8ff" stroke="#63b8ff" points="2851.06,-327.37 2841.21,-331.27 2851.34,-334.37 2851.06,-327.37"/>
</g>
<!-- Node566 -->
<g id="node47" class="node">
<title>Node566</title>
<g id="a_node47"><a xlink:href="f__op__view_8h.html" target="_top" xlink:title=" ">
<polygon fill="#fff0f0" stroke="red" points="3637.46,-277.5 3513.46,-277.5 3513.46,-258.5 3637.46,-258.5 3637.46,-277.5"/>
<text text-anchor="middle" x="3575.46" y="-265.5" font-family="Helvetica,sans-Serif" font-size="10.00">include/f_op/f_op_view.h</text>
</a>
</g>
</g>
<!-- Node335&#45;&gt;Node566 -->
<g id="edge55" class="edge">
<title>Node335&#45;&gt;Node566</title>
<path fill="none" stroke="#63b8ff" d="M2851.1,-331.28C2975.23,-327.25 3264.04,-314.98 3504.46,-283 3514.3,-281.69 3524.83,-279.86 3534.68,-277.95"/>
<polygon fill="#63b8ff" stroke="#63b8ff" points="2851.36,-327.77 2841.47,-331.59 2851.58,-334.77 2851.36,-327.77"/>
</g>
<!-- Node569 -->
<g id="node48" class="node">
<title>Node569</title>
<g id="a_node48"><a xlink:href="m__Do__graphic_8h.html" target="_top" xlink:title=" ">
<polygon fill="#fff0f0" stroke="red" points="3804.96,-277.5 3655.96,-277.5 3655.96,-258.5 3804.96,-258.5 3804.96,-277.5"/>
<text text-anchor="middle" x="3730.46" y="-265.5" font-family="Helvetica,sans-Serif" font-size="10.00">include/m_Do/m_Do_graphic.h</text>
</a>
</g>
</g>
<!-- Node335&#45;&gt;Node569 -->
<g id="edge56" class="edge">
<title>Node335&#45;&gt;Node569</title>
<path fill="none" stroke="#63b8ff" d="M2851.25,-331.66C2992.49,-328.1 3349.7,-316.29 3646.46,-283 3658.07,-281.7 3670.51,-279.87 3682.17,-277.96"/>
<polygon fill="#63b8ff" stroke="#63b8ff" points="2851.28,-328.16 2841.37,-331.9 2851.45,-335.15 2851.28,-328.16"/>
</g>
<!-- Node570 -->
<g id="node49" class="node">
<title>Node570</title>
<g id="a_node49"><a xlink:href="mtx_8c.html" target="_top" xlink:title=" ">
<polygon fill="white" stroke="#666666" points="3933.46,-277.5 3823.46,-277.5 3823.46,-258.5 3933.46,-258.5 3933.46,-277.5"/>
<text text-anchor="middle" x="3878.46" y="-265.5" font-family="Helvetica,sans-Serif" font-size="10.00">libs/dolphin/mtx/mtx.c</text>
</a>
</g>
</g>
<!-- Node335&#45;&gt;Node570 -->
<g id="edge59" class="edge">
<title>Node335&#45;&gt;Node570</title>
<path fill="none" stroke="#63b8ff" d="M2851.34,-333.56C3011.38,-334.23 3451.77,-331.17 3814.46,-283 3823.6,-281.79 3833.36,-279.94 3842.43,-277.98"/>
<polygon fill="#63b8ff" stroke="#63b8ff" points="2851.39,-330.06 2841.37,-333.51 2851.36,-337.06 2851.39,-330.06"/>
</g>
<!-- Node337 -->
<g id="node27" class="node">
<title>Node337</title>
<g id="a_node27"><a xlink:href="J2DOrthoGraph_8h.html" target="_top" xlink:title=" ">
<polygon fill="#fff0f0" stroke="red" points="1944.96,-217 1809.96,-217 1809.96,-187 1944.96,-187 1944.96,-217"/>
<text text-anchor="start" x="1817.96" y="-205" font-family="Helvetica,sans-Serif" font-size="10.00">include/JSystem/J2DGraph</text>
<text text-anchor="middle" x="1877.46" y="-194" font-family="Helvetica,sans-Serif" font-size="10.00">/J2DOrthoGraph.h</text>
</a>
</g>
</g>
<!-- Node336&#45;&gt;Node337 -->
<g id="edge30" class="edge">
<title>Node336&#45;&gt;Node337</title>
<path fill="none" stroke="#63b8ff" d="M2087.19,-250.1C2041.84,-239.91 1984.72,-227.09 1941.54,-217.39"/>
<polygon fill="#63b8ff" stroke="#63b8ff" points="2086.15,-253.45 2096.67,-252.23 2087.68,-246.62 2086.15,-253.45"/>
</g>
<!-- Node345 -->
<g id="node28" class="node">
<title>Node345</title>
<g id="a_node28"><a xlink:href="J2DGrafContext_8cpp.html" target="_top" xlink:title=" ">
<polygon fill="white" stroke="#666666" points="2081.96,-217 1962.96,-217 1962.96,-187 2081.96,-187 2081.96,-217"/>
<text text-anchor="start" x="1970.96" y="-205" font-family="Helvetica,sans-Serif" font-size="10.00">libs/JSystem/J2DGraph</text>
<text text-anchor="middle" x="2022.46" y="-194" font-family="Helvetica,sans-Serif" font-size="10.00">/J2DGrafContext.cpp</text>
</a>
</g>
</g>
<!-- Node336&#45;&gt;Node345 -->
<g id="edge31" class="edge">
<title>Node336&#45;&gt;Node345</title>
<path fill="none" stroke="#63b8ff" d="M2120.59,-247.86C2099.15,-238.05 2073.48,-226.32 2053.78,-217.31"/>
<polygon fill="#63b8ff" stroke="#63b8ff" points="2119.12,-251.03 2129.67,-252.01 2122.03,-244.67 2119.12,-251.03"/>
</g>
<!-- Node63 -->
<g id="node29" class="node">
<title>Node63</title>
<g id="a_node29"><a xlink:href="d__bright__check_8cpp.html" target="_top" xlink:title=" ">
<polygon fill="white" stroke="#666666" points="2224.96,-211.5 2099.96,-211.5 2099.96,-192.5 2224.96,-192.5 2224.96,-211.5"/>
<text text-anchor="middle" x="2162.46" y="-199.5" font-family="Helvetica,sans-Serif" font-size="10.00">src/d/d_bright_check.cpp</text>
</a>
</g>
</g>
<!-- Node336&#45;&gt;Node63 -->
<g id="edge32" class="edge">
<title>Node336&#45;&gt;Node63</title>
<path fill="none" stroke="#63b8ff" d="M2162.46,-241.59C2162.46,-231.06 2162.46,-219.53 2162.46,-211.84"/>
<polygon fill="#63b8ff" stroke="#63b8ff" points="2158.96,-241.28 2162.46,-251.28 2165.96,-241.28 2158.96,-241.28"/>
</g>
<!-- Node169 -->
<g id="node30" class="node">
<title>Node169</title>
<g id="a_node30"><a xlink:href="d__kantera__icon__meter_8cpp.html" target="_top" xlink:title=" ">
<polygon fill="white" stroke="#666666" points="2349.96,-217 2242.96,-217 2242.96,-187 2349.96,-187 2349.96,-217"/>
<text text-anchor="start" x="2250.96" y="-205" font-family="Helvetica,sans-Serif" font-size="10.00">src/d/d_kantera_icon</text>
<text text-anchor="middle" x="2296.46" y="-194" font-family="Helvetica,sans-Serif" font-size="10.00">_meter.cpp</text>
</a>
</g>
</g>
<!-- Node336&#45;&gt;Node169 -->
<g id="edge33" class="edge">
<title>Node336&#45;&gt;Node169</title>
<path fill="none" stroke="#63b8ff" d="M2202.83,-247.72C2223.29,-237.95 2247.72,-226.28 2266.49,-217.31"/>
<polygon fill="#63b8ff" stroke="#63b8ff" points="2201.42,-244.52 2193.9,-251.98 2204.43,-250.83 2201.42,-244.52"/>
</g>
<!-- Node186 -->
<g id="node31" class="node">
<title>Node186</title>
<g id="a_node31"><a xlink:href="d__map__path_8cpp.html" target="_top" xlink:title=" ">
<polygon fill="white" stroke="#666666" points="2502.46,-211.5 2368.46,-211.5 2368.46,-192.5 2502.46,-192.5 2502.46,-211.5"/>
<text text-anchor="middle" x="2435.46" y="-199.5" font-family="Helvetica,sans-Serif" font-size="10.00">src/d/map/d_map_path.cpp</text>
</a>
</g>
</g>
<!-- Node336&#45;&gt;Node186 -->
<g id="edge34" class="edge">
<title>Node336&#45;&gt;Node186</title>
<path fill="none" stroke="#63b8ff" d="M2235.26,-249.93C2287.35,-237.72 2355.4,-221.77 2397.23,-211.96"/>
<polygon fill="#63b8ff" stroke="#63b8ff" points="2234.48,-246.52 2225.54,-252.21 2236.08,-253.34 2234.48,-246.52"/>
</g>
<!-- Node77 -->
<g id="node32" class="node">
<title>Node77</title>
<g id="a_node32"><a xlink:href="d__meter__map_8cpp.html" target="_top" xlink:title=" ">
<polygon fill="white" stroke="#666666" points="2624.46,-217 2520.46,-217 2520.46,-187 2624.46,-187 2624.46,-217"/>
<text text-anchor="start" x="2528.46" y="-205" font-family="Helvetica,sans-Serif" font-size="10.00">src/d/meter/d_meter</text>
<text text-anchor="middle" x="2572.46" y="-194" font-family="Helvetica,sans-Serif" font-size="10.00">_map.cpp</text>
</a>
</g>
</g>
<!-- Node336&#45;&gt;Node77 -->
<g id="edge35" class="edge">
<title>Node336&#45;&gt;Node77</title>
<path fill="none" stroke="#63b8ff" d="M2241.59,-252.73C2361.85,-234.33 2394.98,-238.03 2511.46,-217 2514.35,-216.48 2517.31,-215.91 2520.29,-215.31"/>
<polygon fill="#63b8ff" stroke="#63b8ff" points="2241.29,-249.23 2231.95,-254.22 2242.37,-256.15 2241.29,-249.23"/>
</g>
<!-- Node83 -->
<g id="node33" class="node">
<title>Node83</title>
<g id="a_node33"><a xlink:href="d__msg__scrn__base_8cpp.html" target="_top" xlink:title=" ">
<polygon fill="white" stroke="#666666" points="2748.46,-217 2642.46,-217 2642.46,-187 2748.46,-187 2748.46,-217"/>
<text text-anchor="start" x="2650.46" y="-205" font-family="Helvetica,sans-Serif" font-size="10.00">src/msg/scrn/d_msg</text>
<text text-anchor="middle" x="2695.46" y="-194" font-family="Helvetica,sans-Serif" font-size="10.00">_scrn_base.cpp</text>
</a>
</g>
</g>
<!-- Node336&#45;&gt;Node83 -->
<g id="edge36" class="edge">
<title>Node336&#45;&gt;Node83</title>
<path fill="none" stroke="#63b8ff" d="M2241.8,-252.78C2415.68,-229.87 2463.42,-243.85 2633.46,-217 2636.3,-216.55 2639.2,-216.05 2642.12,-215.51"/>
<polygon fill="#63b8ff" stroke="#63b8ff" points="2241.38,-249.3 2231.93,-254.1 2242.31,-256.24 2241.38,-249.3"/>
</g>
<!-- Node84 -->
<g id="node34" class="node">
<title>Node84</title>
<g id="a_node34"><a xlink:href="d__msg__scrn__boss_8cpp.html" target="_top" xlink:title=" ">
<polygon fill="white" stroke="#666666" points="2872.46,-217 2766.46,-217 2766.46,-187 2872.46,-187 2872.46,-217"/>
<text text-anchor="start" x="2774.46" y="-205" font-family="Helvetica,sans-Serif" font-size="10.00">src/msg/scrn/d_msg</text>
<text text-anchor="middle" x="2819.46" y="-194" font-family="Helvetica,sans-Serif" font-size="10.00">_scrn_boss.cpp</text>
</a>
</g>
</g>
<!-- Node336&#45;&gt;Node84 -->
<g id="edge37" class="edge">
<title>Node336&#45;&gt;Node84</title>
<path fill="none" stroke="#63b8ff" d="M2241.79,-252.82C2470.45,-225.14 2532.81,-249.97 2757.46,-217 2760.3,-216.58 2763.2,-216.11 2766.13,-215.59"/>
<polygon fill="#63b8ff" stroke="#63b8ff" points="2241.42,-249.34 2231.92,-254.04 2242.28,-256.29 2241.42,-249.34"/>
</g>
<!-- Node86 -->
<g id="node35" class="node">
<title>Node86</title>
<g id="a_node35"><a xlink:href="d__msg__scrn__place_8cpp.html" target="_top" xlink:title=" ">
<polygon fill="white" stroke="#666666" points="2996.46,-217 2890.46,-217 2890.46,-187 2996.46,-187 2996.46,-217"/>
<text text-anchor="start" x="2898.46" y="-205" font-family="Helvetica,sans-Serif" font-size="10.00">src/msg/scrn/d_msg</text>
<text text-anchor="middle" x="2943.46" y="-194" font-family="Helvetica,sans-Serif" font-size="10.00">_scrn_place.cpp</text>
</a>
</g>
</g>
<!-- Node336&#45;&gt;Node86 -->
<g id="edge38" class="edge">
<title>Node336&#45;&gt;Node86</title>
<path fill="none" stroke="#63b8ff" d="M2241.46,-252.88C2525.2,-220.31 2602.03,-256.11 2881.46,-217 2884.31,-216.6 2887.21,-216.14 2890.13,-215.63"/>
<polygon fill="#63b8ff" stroke="#63b8ff" points="2241.44,-249.36 2231.92,-254 2242.26,-256.31 2241.44,-249.36"/>
</g>
<!-- Node400&#45;&gt;Node334 -->
<g id="edge44" class="edge">
<title>Node400&#45;&gt;Node334</title>
<path fill="none" stroke="#63b8ff" d="M2389.15,-252.68C2129.2,-218.82 2059.68,-235.37 1800.46,-217 1766.95,-214.63 1729.81,-211.66 1698.56,-209.08"/>
<polygon fill="#63b8ff" stroke="#63b8ff" points="2388.6,-256.13 2398.97,-253.97 2389.51,-249.19 2388.6,-256.13"/>
</g>
<!-- Node400&#45;&gt;Node401 -->
<g id="edge43" class="edge">
<title>Node400&#45;&gt;Node401</title>
<path fill="none" stroke="#63b8ff" d="M2531.38,-253.42C2532.41,-253.28 2533.44,-253.14 2534.46,-253 2742.59,-225.44 2797.02,-242.08 3005.46,-217 3016.9,-215.62 3029.14,-213.81 3040.68,-211.94"/>
<polygon fill="#63b8ff" stroke="#63b8ff" points="2531.01,-249.94 2521.64,-254.89 2532.05,-256.86 2531.01,-249.94"/>
</g>
<!-- Node436&#45;&gt;Node39 -->
<g id="edge49" class="edge">
<title>Node436&#45;&gt;Node39</title>
<path fill="none" stroke="#63b8ff" d="M3033.52,-250.72C3096.14,-238.46 3170.79,-222.81 3175.46,-217 3183.82,-206.61 3184.73,-196.58 3175.46,-187 3123.62,-133.41 1973.15,-135.56 1715.39,-136.72"/>
<polygon fill="#63b8ff" stroke="#63b8ff" points="3033.02,-247.25 3023.87,-252.6 3034.36,-254.12 3033.02,-247.25"/>
</g>
<!-- Node533&#45;&gt;Node165 -->
<g id="edge54" class="edge">
<title>Node533&#45;&gt;Node165</title>
<path fill="none" stroke="#63b8ff" d="M3502.36,-249.24C3541.17,-237.12 3590.93,-221.59 3621.75,-211.96"/>
<polygon fill="#63b8ff" stroke="#63b8ff" points="3501.67,-245.79 3493.17,-252.11 3503.76,-252.47 3501.67,-245.79"/>
</g>
<!-- Node569&#45;&gt;Node17 -->
<g id="edge58" class="edge">
<title>Node569&#45;&gt;Node17</title>
<path fill="none" stroke="#63b8ff" d="M3731.74,-246.88C3731.71,-228.37 3728.39,-201.65 3711.46,-187 3562.17,-57.76 2089.43,-18.22 1794.66,-11.58"/>
<polygon fill="#63b8ff" stroke="#63b8ff" points="3728.25,-246.5 3731.41,-256.61 3735.25,-246.74 3728.25,-246.5"/>
</g>
<!-- Node569&#45;&gt;Node165 -->
<g id="edge57" class="edge">
<title>Node569&#45;&gt;Node165</title>
<path fill="none" stroke="#63b8ff" d="M3710.51,-251.04C3695.02,-238.64 3674.11,-221.92 3661.49,-211.82"/>
<polygon fill="#63b8ff" stroke="#63b8ff" points="3708.16,-253.64 3718.16,-257.16 3712.54,-248.18 3708.16,-253.64"/>
</g>
</g>
</svg>
