<?xml version="1.0" encoding="UTF-8" standalone="no"?>
<!DOCTYPE svg PUBLIC "-//W3C//DTD SVG 1.1//EN"
 "http://www.w3.org/Graphics/SVG/1.1/DTD/svg11.dtd">
<!-- Generated by graphviz version 7.0.5 (20221223.1930)
 -->
<!-- Title: include/dolphin/os/OSAlarm.h Pages: 1 -->
<svg width="6725pt" height="181pt"
 viewBox="0.00 0.00 6725.00 181.00" xmlns="http://www.w3.org/2000/svg" xmlns:xlink="http://www.w3.org/1999/xlink">
<g id="graph0" class="graph" transform="scale(1 1) rotate(0) translate(4 177)">
<title>include/dolphin/os/OSAlarm.h</title>
<!-- Node1 -->
<g id="node1" class="node">
<title>Node1</title>
<g id="a_node1"><a xlink:title=" ">
<polygon fill="#999999" stroke="#666666" points="4674,-173 4579,-173 4579,-143 4674,-143 4674,-173"/>
<text text-anchor="start" x="4587" y="-161" font-family="Helvetica,sans-Serif" font-size="10.00">include/dolphin/os</text>
<text text-anchor="middle" x="4626.5" y="-150" font-family="Helvetica,sans-Serif" font-size="10.00">/OSAlarm.h</text>
</a>
</g>
</g>
<!-- Node2 -->
<g id="node2" class="node">
<title>Node2</title>
<g id="a_node2"><a xlink:href="JFWDisplay_8h.html" target="_top" xlink:title=" ">
<polygon fill="white" stroke="#666666" points="1132.5,-107 986.5,-107 986.5,-77 1132.5,-77 1132.5,-107"/>
<text text-anchor="start" x="994.5" y="-95" font-family="Helvetica,sans-Serif" font-size="10.00">include/JSystem/JFramework</text>
<text text-anchor="middle" x="1059.5" y="-84" font-family="Helvetica,sans-Serif" font-size="10.00">/JFWDisplay.h</text>
</a>
</g>
</g>
<!-- Node1&#45;&gt;Node2 -->
<g id="edge1" class="edge">
<title>Node1&#45;&gt;Node2</title>
<path fill="none" stroke="#63b8ff" d="M4567.38,-156.43C4251.43,-153.31 2730.19,-137.29 1486.5,-107 1362.3,-103.98 1217.83,-98.92 1132.78,-95.78"/>
<polygon fill="#63b8ff" stroke="#63b8ff" points="4566.99,-159.93 4577.02,-156.52 4567.06,-152.93 4566.99,-159.93"/>
</g>
<!-- Node30 -->
<g id="node5" class="node">
<title>Node30</title>
<g id="a_node5"><a xlink:href="CARDPriv_8h.html" target="_top" xlink:title=" ">
<polygon fill="white" stroke="#666666" points="1599,-107 1496,-107 1496,-77 1599,-77 1599,-107"/>
<text text-anchor="start" x="1504" y="-95" font-family="Helvetica,sans-Serif" font-size="10.00">include/dolphin/card</text>
<text text-anchor="middle" x="1547.5" y="-84" font-family="Helvetica,sans-Serif" font-size="10.00">/CARDPriv.h</text>
</a>
</g>
</g>
<!-- Node1&#45;&gt;Node30 -->
<g id="edge4" class="edge">
<title>Node1&#45;&gt;Node30</title>
<path fill="none" stroke="#63b8ff" d="M4567.46,-155.77C4176.67,-147.65 1966.83,-101.72 1599.31,-94.08"/>
<polygon fill="#63b8ff" stroke="#63b8ff" points="4567.17,-159.27 4577.24,-155.98 4567.32,-152.27 4567.17,-159.27"/>
</g>
<!-- Node45 -->
<g id="node20" class="node">
<title>Node45</title>
<g id="a_node20"><a xlink:href="OS_8h.html" target="_top" xlink:title=" ">
<polygon fill="#fff0f0" stroke="red" points="4642,-101.5 4523,-101.5 4523,-82.5 4642,-82.5 4642,-101.5"/>
<text text-anchor="middle" x="4582.5" y="-89.5" font-family="Helvetica,sans-Serif" font-size="10.00">include/dolphin/os/OS.h</text>
</a>
</g>
</g>
<!-- Node1&#45;&gt;Node45 -->
<g id="edge19" class="edge">
<title>Node1&#45;&gt;Node45</title>
<path fill="none" stroke="#63b8ff" d="M4610.42,-133.61C4602.82,-122.56 4594.21,-110.03 4588.58,-101.84"/>
<polygon fill="#63b8ff" stroke="#63b8ff" points="4607.33,-135.29 4615.88,-141.55 4613.1,-131.33 4607.33,-135.29"/>
</g>
<!-- Node83 -->
<g id="node48" class="node">
<title>Node83</title>
<g id="a_node48"><a xlink:href="OSAlarm_8c.html" target="_top" xlink:title=" ">
<polygon fill="white" stroke="#666666" points="6717,-30 6588,-30 6588,-11 6717,-11 6717,-30"/>
<text text-anchor="middle" x="6652.5" y="-18" font-family="Helvetica,sans-Serif" font-size="10.00">libs/dolphin/os/OSAlarm.c</text>
</a>
</g>
</g>
<!-- Node1&#45;&gt;Node83 -->
<g id="edge52" class="edge">
<title>Node1&#45;&gt;Node83</title>
<path fill="none" stroke="#63b8ff" d="M4638.31,-132.76C4649.03,-113.77 4666.78,-88.68 4690.5,-77 4784.67,-30.63 6475.56,-55.65 6579.5,-41 6594.96,-38.82 6611.82,-34.45 6625.44,-30.4"/>
<polygon fill="#63b8ff" stroke="#63b8ff" points="4635.27,-131.01 4633.66,-141.48 4641.45,-134.3 4635.27,-131.01"/>
</g>
<!-- Node121 -->
<g id="node49" class="node">
<title>Node121</title>
<g id="a_node49"><a xlink:href="dvdlow_8c.html" target="_top" xlink:title=" ">
<polygon fill="white" stroke="#666666" points="4824,-101.5 4699,-101.5 4699,-82.5 4824,-82.5 4824,-101.5"/>
<text text-anchor="middle" x="4761.5" y="-89.5" font-family="Helvetica,sans-Serif" font-size="10.00">libs/dolphin/dvd/dvdlow.c</text>
</a>
</g>
</g>
<!-- Node1&#45;&gt;Node121 -->
<g id="edge51" class="edge">
<title>Node1&#45;&gt;Node121</title>
<path fill="none" stroke="#63b8ff" d="M4667.11,-137.75C4692.14,-125.88 4723.07,-111.22 4742.55,-101.99"/>
<polygon fill="#63b8ff" stroke="#63b8ff" points="4665.7,-134.54 4658.16,-141.99 4668.7,-140.87 4665.7,-134.54"/>
</g>
<!-- Node122 -->
<g id="node50" class="node">
<title>Node122</title>
<g id="a_node50"><a xlink:href="m__Do__DVDError_8cpp.html" target="_top" xlink:title=" ">
<polygon fill="white" stroke="#666666" points="4993,-101.5 4842,-101.5 4842,-82.5 4993,-82.5 4993,-101.5"/>
<text text-anchor="middle" x="4917.5" y="-89.5" font-family="Helvetica,sans-Serif" font-size="10.00">src/m_Do/m_Do_DVDError.cpp</text>
</a>
</g>
</g>
<!-- Node1&#45;&gt;Node122 -->
<g id="edge53" class="edge">
<title>Node1&#45;&gt;Node122</title>
<path fill="none" stroke="#63b8ff" d="M4685.22,-144.09C4742.13,-131.57 4826.94,-112.92 4876.8,-101.95"/>
<polygon fill="#63b8ff" stroke="#63b8ff" points="4684.72,-140.61 4675.71,-146.18 4686.22,-147.45 4684.72,-140.61"/>
</g>
<!-- Node3 -->
<g id="node3" class="node">
<title>Node3</title>
<g id="a_node3"><a xlink:href="m__Do__graphic_8h.html" target="_top" xlink:title=" ">
<polygon fill="#fff0f0" stroke="red" points="149,-30 0,-30 0,-11 149,-11 149,-30"/>
<text text-anchor="middle" x="74.5" y="-18" font-family="Helvetica,sans-Serif" font-size="10.00">include/m_Do/m_Do_graphic.h</text>
</a>
</g>
</g>
<!-- Node2&#45;&gt;Node3 -->
<g id="edge2" class="edge">
<title>Node2&#45;&gt;Node3</title>
<path fill="none" stroke="#63b8ff" d="M975.1,-91.24C814.87,-90.61 455.96,-83.99 157.5,-41 140.51,-38.55 121.87,-34.32 106.57,-30.42"/>
<polygon fill="#63b8ff" stroke="#63b8ff" points="974.76,-94.74 984.78,-91.27 974.79,-87.74 974.76,-94.74"/>
</g>
<!-- Node29 -->
<g id="node4" class="node">
<title>Node29</title>
<g id="a_node4"><a xlink:href="JFWDisplay_8cpp.html" target="_top" xlink:title=" ">
<polygon fill="white" stroke="#666666" points="1124.5,-35.5 994.5,-35.5 994.5,-5.5 1124.5,-5.5 1124.5,-35.5"/>
<text text-anchor="start" x="1002.5" y="-23.5" font-family="Helvetica,sans-Serif" font-size="10.00">libs/JSystem/JFramework</text>
<text text-anchor="middle" x="1059.5" y="-12.5" font-family="Helvetica,sans-Serif" font-size="10.00">/JFWDisplay.cpp</text>
</a>
</g>
</g>
<!-- Node2&#45;&gt;Node29 -->
<g id="edge3" class="edge">
<title>Node2&#45;&gt;Node29</title>
<path fill="none" stroke="#63b8ff" d="M1059.5,-65.26C1059.5,-55.33 1059.5,-44.36 1059.5,-35.88"/>
<polygon fill="#63b8ff" stroke="#63b8ff" points="1056,-65.09 1059.5,-75.09 1063,-65.09 1056,-65.09"/>
</g>
<!-- Node31 -->
<g id="node6" class="node">
<title>Node31</title>
<g id="a_node6"><a xlink:href="CARDBios_8c.html" target="_top" xlink:title=" ">
<polygon fill="white" stroke="#666666" points="2446.5,-30 2302.5,-30 2302.5,-11 2446.5,-11 2446.5,-30"/>
<text text-anchor="middle" x="2374.5" y="-18" font-family="Helvetica,sans-Serif" font-size="10.00">libs/dolphin/card/CARDBios.c</text>
</a>
</g>
</g>
<!-- Node30&#45;&gt;Node31 -->
<g id="edge5" class="edge">
<title>Node30&#45;&gt;Node31</title>
<path fill="none" stroke="#63b8ff" d="M1610.58,-90.37C1739.57,-88.28 2042.52,-79.34 2293.5,-41 2309.94,-38.49 2327.96,-34.3 2342.82,-30.44"/>
<polygon fill="#63b8ff" stroke="#63b8ff" points="1610.84,-86.86 1600.89,-90.51 1610.95,-93.86 1610.84,-86.86"/>
</g>
<!-- Node32 -->
<g id="node7" class="node">
<title>Node32</title>
<g id="a_node7"><a xlink:href="CARDBlock_8c.html" target="_top" xlink:title=" ">
<polygon fill="white" stroke="#666666" points="2114,-30 1965,-30 1965,-11 2114,-11 2114,-30"/>
<text text-anchor="middle" x="2039.5" y="-18" font-family="Helvetica,sans-Serif" font-size="10.00">libs/dolphin/card/CARDBlock.c</text>
</a>
</g>
</g>
<!-- Node30&#45;&gt;Node32 -->
<g id="edge6" class="edge">
<title>Node30&#45;&gt;Node32</title>
<path fill="none" stroke="#63b8ff" d="M1610.69,-85.36C1691.15,-77.69 1834.27,-62.44 1955.5,-41 1971.72,-38.13 1989.51,-34.13 2004.52,-30.49"/>
<polygon fill="#63b8ff" stroke="#63b8ff" points="1610.42,-81.87 1600.79,-86.29 1611.08,-88.83 1610.42,-81.87"/>
</g>
<!-- Node33 -->
<g id="node8" class="node">
<title>Node33</title>
<g id="a_node8"><a xlink:href="CARDCheck_8c.html" target="_top" xlink:title=" ">
<polygon fill="white" stroke="#666666" points="2284.5,-30 2132.5,-30 2132.5,-11 2284.5,-11 2284.5,-30"/>
<text text-anchor="middle" x="2208.5" y="-18" font-family="Helvetica,sans-Serif" font-size="10.00">libs/dolphin/card/CARDCheck.c</text>
</a>
</g>
</g>
<!-- Node30&#45;&gt;Node33 -->
<g id="edge7" class="edge">
<title>Node30&#45;&gt;Node33</title>
<path fill="none" stroke="#63b8ff" d="M1610.79,-88.32C1717.05,-83.19 1937.85,-69.83 2122.5,-41 2139.59,-38.33 2158.35,-34.22 2173.98,-30.46"/>
<polygon fill="#63b8ff" stroke="#63b8ff" points="1610.66,-84.82 1600.84,-88.79 1610.99,-91.81 1610.66,-84.82"/>
</g>
<!-- Node34 -->
<g id="node9" class="node">
<title>Node34</title>
<g id="a_node9"><a xlink:href="CARDCreate_8c.html" target="_top" xlink:title=" ">
<polygon fill="white" stroke="#666666" points="320,-30 167,-30 167,-11 320,-11 320,-30"/>
<text text-anchor="middle" x="243.5" y="-18" font-family="Helvetica,sans-Serif" font-size="10.00">libs/dolphin/card/CARDCreate.c</text>
</a>
</g>
</g>
<!-- Node30&#45;&gt;Node34 -->
<g id="edge8" class="edge">
<title>Node30&#45;&gt;Node34</title>
<path fill="none" stroke="#63b8ff" d="M1484.24,-88.73C1242.29,-80 386.14,-48.73 328.5,-41 310.94,-38.65 291.68,-34.37 275.94,-30.42"/>
<polygon fill="#63b8ff" stroke="#63b8ff" points="1484,-92.22 1494.12,-89.09 1484.25,-85.23 1484,-92.22"/>
</g>
<!-- Node35 -->
<g id="node10" class="node">
<title>Node35</title>
<g id="a_node10"><a xlink:href="CARDDir_8c.html" target="_top" xlink:title=" ">
<polygon fill="white" stroke="#666666" points="475,-30 338,-30 338,-11 475,-11 475,-30"/>
<text text-anchor="middle" x="406.5" y="-18" font-family="Helvetica,sans-Serif" font-size="10.00">libs/dolphin/card/CARDDir.c</text>
</a>
</g>
</g>
<!-- Node30&#45;&gt;Node35 -->
<g id="edge9" class="edge">
<title>Node30&#45;&gt;Node35</title>
<path fill="none" stroke="#63b8ff" d="M1484.27,-88.77C1270.44,-81.13 582.18,-55.66 483.5,-41 467.54,-38.63 450.09,-34.35 435.84,-30.41"/>
<polygon fill="#63b8ff" stroke="#63b8ff" points="1483.95,-92.26 1494.07,-89.12 1484.2,-85.27 1483.95,-92.26"/>
</g>
<!-- Node36 -->
<g id="node11" class="node">
<title>Node36</title>
<g id="a_node11"><a xlink:href="CARDFormat_8c.html" target="_top" xlink:title=" ">
<polygon fill="white" stroke="#666666" points="648,-30 493,-30 493,-11 648,-11 648,-30"/>
<text text-anchor="middle" x="570.5" y="-18" font-family="Helvetica,sans-Serif" font-size="10.00">libs/dolphin/card/CARDFormat.c</text>
</a>
</g>
</g>
<!-- Node30&#45;&gt;Node36 -->
<g id="edge10" class="edge">
<title>Node30&#45;&gt;Node36</title>
<path fill="none" stroke="#63b8ff" d="M1484.23,-88.8C1308.62,-82.48 817.53,-63.28 657.5,-41 639.87,-38.55 620.52,-34.36 604.56,-30.5"/>
<polygon fill="#63b8ff" stroke="#63b8ff" points="1483.95,-92.29 1494.07,-89.15 1484.2,-85.3 1483.95,-92.29"/>
</g>
<!-- Node37 -->
<g id="node12" class="node">
<title>Node37</title>
<g id="a_node12"><a xlink:href="CARDMount_8c.html" target="_top" xlink:title=" ">
<polygon fill="white" stroke="#666666" points="818.5,-30 666.5,-30 666.5,-11 818.5,-11 818.5,-30"/>
<text text-anchor="middle" x="742.5" y="-18" font-family="Helvetica,sans-Serif" font-size="10.00">libs/dolphin/card/CARDMount.c</text>
</a>
</g>
</g>
<!-- Node30&#45;&gt;Node37 -->
<g id="edge11" class="edge">
<title>Node30&#45;&gt;Node37</title>
<path fill="none" stroke="#63b8ff" d="M1484.41,-89.92C1358.73,-87.05 1068.48,-76.79 827.5,-41 810.28,-38.44 791.38,-34.25 775.78,-30.4"/>
<polygon fill="#63b8ff" stroke="#63b8ff" points="1484.1,-93.42 1494.18,-90.14 1484.26,-86.42 1484.1,-93.42"/>
</g>
<!-- Node38 -->
<g id="node13" class="node">
<title>Node38</title>
<g id="a_node13"><a xlink:href="CARDNet_8c.html" target="_top" xlink:title=" ">
<polygon fill="white" stroke="#666666" points="976.5,-30 836.5,-30 836.5,-11 976.5,-11 976.5,-30"/>
<text text-anchor="middle" x="906.5" y="-18" font-family="Helvetica,sans-Serif" font-size="10.00">libs/dolphin/card/CARDNet.c</text>
</a>
</g>
</g>
<!-- Node30&#45;&gt;Node38 -->
<g id="edge12" class="edge">
<title>Node30&#45;&gt;Node38</title>
<path fill="none" stroke="#63b8ff" d="M1484.37,-88.54C1379.96,-83.77 1165,-70.96 985.5,-41 969.75,-38.37 952.52,-34.26 938.17,-30.5"/>
<polygon fill="#63b8ff" stroke="#63b8ff" points="1483.98,-92.03 1494.13,-88.98 1484.29,-85.03 1483.98,-92.03"/>
</g>
<!-- Node39 -->
<g id="node14" class="node">
<title>Node39</title>
<g id="a_node14"><a xlink:href="CARDOpen_8c.html" target="_top" xlink:title=" ">
<polygon fill="white" stroke="#666666" points="1290.5,-30 1142.5,-30 1142.5,-11 1290.5,-11 1290.5,-30"/>
<text text-anchor="middle" x="1216.5" y="-18" font-family="Helvetica,sans-Serif" font-size="10.00">libs/dolphin/card/CARDOpen.c</text>
</a>
</g>
</g>
<!-- Node30&#45;&gt;Node39 -->
<g id="edge13" class="edge">
<title>Node30&#45;&gt;Node39</title>
<path fill="none" stroke="#63b8ff" d="M1484.62,-78.9C1434.42,-69.1 1362.33,-54.71 1299.5,-41 1284.46,-37.72 1267.94,-33.88 1253.63,-30.49"/>
<polygon fill="#63b8ff" stroke="#63b8ff" points="1483.66,-82.27 1494.14,-80.75 1484.99,-75.4 1483.66,-82.27"/>
</g>
<!-- Node40 -->
<g id="node15" class="node">
<title>Node40</title>
<g id="a_node15"><a xlink:href="CARDRdwr_8c.html" target="_top" xlink:title=" ">
<polygon fill="white" stroke="#666666" points="1456,-30 1309,-30 1309,-11 1456,-11 1456,-30"/>
<text text-anchor="middle" x="1382.5" y="-18" font-family="Helvetica,sans-Serif" font-size="10.00">libs/dolphin/card/CARDRdwr.c</text>
</a>
</g>
</g>
<!-- Node30&#45;&gt;Node40 -->
<g id="edge14" class="edge">
<title>Node30&#45;&gt;Node40</title>
<path fill="none" stroke="#63b8ff" d="M1502.79,-72.17C1470.54,-58.58 1428.46,-40.86 1403.58,-30.38"/>
<polygon fill="#63b8ff" stroke="#63b8ff" points="1501.34,-75.36 1511.92,-76.01 1504.06,-68.9 1501.34,-75.36"/>
</g>
<!-- Node41 -->
<g id="node16" class="node">
<title>Node41</title>
<g id="a_node16"><a xlink:href="CARDRead_8c.html" target="_top" xlink:title=" ">
<polygon fill="white" stroke="#666666" points="1621,-30 1474,-30 1474,-11 1621,-11 1621,-30"/>
<text text-anchor="middle" x="1547.5" y="-18" font-family="Helvetica,sans-Serif" font-size="10.00">libs/dolphin/card/CARDRead.c</text>
</a>
</g>
</g>
<!-- Node30&#45;&gt;Node41 -->
<g id="edge15" class="edge">
<title>Node30&#45;&gt;Node41</title>
<path fill="none" stroke="#63b8ff" d="M1547.5,-65.46C1547.5,-53.07 1547.5,-38.99 1547.5,-30.18"/>
<polygon fill="#63b8ff" stroke="#63b8ff" points="1544,-65.09 1547.5,-75.09 1551,-65.09 1544,-65.09"/>
</g>
<!-- Node42 -->
<g id="node17" class="node">
<title>Node42</title>
<g id="a_node17"><a xlink:href="CARDStat_8c.html" target="_top" xlink:title=" ">
<polygon fill="white" stroke="#666666" points="1782,-30 1639,-30 1639,-11 1782,-11 1782,-30"/>
<text text-anchor="middle" x="1710.5" y="-18" font-family="Helvetica,sans-Serif" font-size="10.00">libs/dolphin/card/CARDStat.c</text>
</a>
</g>
</g>
<!-- Node30&#45;&gt;Node42 -->
<g id="edge16" class="edge">
<title>Node30&#45;&gt;Node42</title>
<path fill="none" stroke="#63b8ff" d="M1591.67,-72.17C1623.53,-58.58 1665.09,-40.86 1689.68,-30.38"/>
<polygon fill="#63b8ff" stroke="#63b8ff" points="1590.49,-68.86 1582.67,-76.01 1593.24,-75.3 1590.49,-68.86"/>
</g>
<!-- Node43 -->
<g id="node18" class="node">
<title>Node43</title>
<g id="a_node18"><a xlink:href="CARDUnlock_8c.html" target="_top" xlink:title=" ">
<polygon fill="white" stroke="#666666" points="2620,-30 2465,-30 2465,-11 2620,-11 2620,-30"/>
<text text-anchor="middle" x="2542.5" y="-18" font-family="Helvetica,sans-Serif" font-size="10.00">libs/dolphin/card/CARDUnlock.c</text>
</a>
</g>
</g>
<!-- Node30&#45;&gt;Node43 -->
<g id="edge17" class="edge">
<title>Node30&#45;&gt;Node43</title>
<path fill="none" stroke="#63b8ff" d="M1610.59,-91.11C1758.79,-90.58 2140.39,-84.68 2455.5,-41 2473.29,-38.53 2492.82,-34.3 2508.86,-30.4"/>
<polygon fill="#63b8ff" stroke="#63b8ff" points="1610.99,-87.6 1601,-91.13 1611.01,-94.6 1610.99,-87.6"/>
</g>
<!-- Node44 -->
<g id="node19" class="node">
<title>Node44</title>
<g id="a_node19"><a xlink:href="CARDWrite_8c.html" target="_top" xlink:title=" ">
<polygon fill="white" stroke="#666666" points="1947,-30 1800,-30 1800,-11 1947,-11 1947,-30"/>
<text text-anchor="middle" x="1873.5" y="-18" font-family="Helvetica,sans-Serif" font-size="10.00">libs/dolphin/card/CARDWrite.c</text>
</a>
</g>
</g>
<!-- Node30&#45;&gt;Node44 -->
<g id="edge18" class="edge">
<title>Node30&#45;&gt;Node44</title>
<path fill="none" stroke="#63b8ff" d="M1610.34,-78.57C1659.47,-68.73 1729.43,-54.45 1790.5,-41 1805.53,-37.69 1822.05,-33.85 1836.36,-30.46"/>
<polygon fill="#63b8ff" stroke="#63b8ff" points="1609.86,-75.1 1600.74,-80.49 1611.23,-81.96 1609.86,-75.1"/>
</g>
<!-- Node45&#45;&gt;Node29 -->
<g id="edge34" class="edge">
<title>Node45&#45;&gt;Node29</title>
<path fill="none" stroke="#63b8ff" d="M4511.2,-91.01C4048.42,-90.92 1478.82,-88.28 1133.5,-41 1124.94,-39.83 1115.96,-37.99 1107.32,-35.91"/>
<polygon fill="#63b8ff" stroke="#63b8ff" points="4511.18,-94.51 4521.18,-91.01 4511.18,-87.51 4511.18,-94.51"/>
</g>
<!-- Node45&#45;&gt;Node31 -->
<g id="edge48" class="edge">
<title>Node45&#45;&gt;Node31</title>
<path fill="none" stroke="#63b8ff" d="M4511.32,-91.36C4189.24,-92.67 2866.13,-94.63 2455.5,-41 2438.58,-38.79 2420.04,-34.47 2404.98,-30.46"/>
<polygon fill="#63b8ff" stroke="#63b8ff" points="4511.3,-94.86 4521.29,-91.32 4511.27,-87.86 4511.3,-94.86"/>
</g>
<!-- Node45&#45;&gt;Node43 -->
<g id="edge49" class="edge">
<title>Node45&#45;&gt;Node43</title>
<path fill="none" stroke="#63b8ff" d="M4511.24,-91.04C4205.62,-90.9 3004.42,-87.37 2629.5,-41 2611.37,-38.76 2591.47,-34.44 2575.28,-30.44"/>
<polygon fill="#63b8ff" stroke="#63b8ff" points="4511.06,-94.53 4521.06,-91.04 4511.07,-87.53 4511.06,-94.53"/>
</g>
<!-- Node46 -->
<g id="node21" class="node">
<title>Node46</title>
<g id="a_node21"><a xlink:href="dolphin__trk__glue_8h.html" target="_top" xlink:title=" ">
<polygon fill="#fff0f0" stroke="red" points="3260.5,-41 3142.5,-41 3142.5,0 3260.5,0 3260.5,-41"/>
<text text-anchor="start" x="3150.5" y="-29" font-family="Helvetica,sans-Serif" font-size="10.00">include/TRK_MINNOW</text>
<text text-anchor="start" x="3150.5" y="-18" font-family="Helvetica,sans-Serif" font-size="10.00">_DOLPHIN/Os/dolphin</text>
<text text-anchor="middle" x="3201.5" y="-7" font-family="Helvetica,sans-Serif" font-size="10.00">/dolphin_trk_glue.h</text>
</a>
</g>
</g>
<!-- Node45&#45;&gt;Node46 -->
<g id="edge20" class="edge">
<title>Node45&#45;&gt;Node46</title>
<path fill="none" stroke="#63b8ff" d="M4511.63,-90.55C4274.77,-88.7 3511.9,-79.79 3269.5,-41 3266.59,-40.53 3263.63,-39.98 3260.65,-39.37"/>
<polygon fill="#63b8ff" stroke="#63b8ff" points="4511.3,-94.05 4521.33,-90.62 4511.35,-87.05 4511.3,-94.05"/>
</g>
<!-- Node48 -->
<g id="node22" class="node">
<title>Node48</title>
<g id="a_node22"><a xlink:href="J2DAnimation_8cpp.html" target="_top" xlink:title=" ">
<polygon fill="white" stroke="#666666" points="3398,-35.5 3279,-35.5 3279,-5.5 3398,-5.5 3398,-35.5"/>
<text text-anchor="start" x="3287" y="-23.5" font-family="Helvetica,sans-Serif" font-size="10.00">libs/JSystem/J2DGraph</text>
<text text-anchor="middle" x="3338.5" y="-12.5" font-family="Helvetica,sans-Serif" font-size="10.00">/J2DAnimation.cpp</text>
</a>
</g>
</g>
<!-- Node45&#45;&gt;Node48 -->
<g id="edge21" class="edge">
<title>Node45&#45;&gt;Node48</title>
<path fill="none" stroke="#63b8ff" d="M4511.41,-90.14C4291.13,-87.14 3621.9,-75.37 3407.5,-41 3399.76,-39.76 3391.65,-37.95 3383.82,-35.92"/>
<polygon fill="#63b8ff" stroke="#63b8ff" points="4511.24,-93.64 4521.28,-90.27 4511.33,-86.64 4511.24,-93.64"/>
</g>
<!-- Node49 -->
<g id="node23" class="node">
<title>Node49</title>
<g id="a_node23"><a xlink:href="J3DModel_8cpp.html" target="_top" xlink:title=" ">
<polygon fill="white" stroke="#666666" points="3574.5,-35.5 3416.5,-35.5 3416.5,-5.5 3574.5,-5.5 3574.5,-35.5"/>
<text text-anchor="start" x="3424.5" y="-23.5" font-family="Helvetica,sans-Serif" font-size="10.00">libs/JSystem/J3DGraphAnimator</text>
<text text-anchor="middle" x="3495.5" y="-12.5" font-family="Helvetica,sans-Serif" font-size="10.00">/J3DModel.cpp</text>
</a>
</g>
</g>
<!-- Node45&#45;&gt;Node49 -->
<g id="edge22" class="edge">
<title>Node45&#45;&gt;Node49</title>
<path fill="none" stroke="#63b8ff" d="M4511.4,-91.53C4347.18,-91.86 3929.08,-87.6 3583.5,-41 3574.04,-39.72 3564.09,-37.95 3554.43,-35.99"/>
<polygon fill="#63b8ff" stroke="#63b8ff" points="4511.28,-95.03 4521.27,-91.5 4511.26,-88.03 4511.28,-95.03"/>
</g>
<!-- Node50 -->
<g id="node24" class="node">
<title>Node50</title>
<g id="a_node24"><a xlink:href="J3DModelData_8cpp.html" target="_top" xlink:title=" ">
<polygon fill="white" stroke="#666666" points="3750.5,-35.5 3592.5,-35.5 3592.5,-5.5 3750.5,-5.5 3750.5,-35.5"/>
<text text-anchor="start" x="3600.5" y="-23.5" font-family="Helvetica,sans-Serif" font-size="10.00">libs/JSystem/J3DGraphAnimator</text>
<text text-anchor="middle" x="3671.5" y="-12.5" font-family="Helvetica,sans-Serif" font-size="10.00">/J3DModelData.cpp</text>
</a>
</g>
</g>
<!-- Node45&#45;&gt;Node50 -->
<g id="edge23" class="edge">
<title>Node45&#45;&gt;Node50</title>
<path fill="none" stroke="#63b8ff" d="M4511.34,-90.44C4368.23,-88.48 4035.71,-79.75 3759.5,-41 3750.2,-39.7 3740.43,-37.93 3730.91,-35.99"/>
<polygon fill="#63b8ff" stroke="#63b8ff" points="4510.98,-93.93 4521.03,-90.56 4511.07,-86.93 4510.98,-93.93"/>
</g>
<!-- Node51 -->
<g id="node25" class="node">
<title>Node51</title>
<g id="a_node25"><a xlink:href="J3DSkinDeform_8cpp.html" target="_top" xlink:title=" ">
<polygon fill="white" stroke="#666666" points="3926.5,-35.5 3768.5,-35.5 3768.5,-5.5 3926.5,-5.5 3926.5,-35.5"/>
<text text-anchor="start" x="3776.5" y="-23.5" font-family="Helvetica,sans-Serif" font-size="10.00">libs/JSystem/J3DGraphAnimator</text>
<text text-anchor="middle" x="3847.5" y="-12.5" font-family="Helvetica,sans-Serif" font-size="10.00">/J3DSkinDeform.cpp</text>
</a>
</g>
</g>
<!-- Node45&#45;&gt;Node51 -->
<g id="edge24" class="edge">
<title>Node45&#45;&gt;Node51</title>
<path fill="none" stroke="#63b8ff" d="M4511.36,-88.78C4391.83,-84.32 4143.37,-71.91 3935.5,-41 3926.37,-39.64 3916.77,-37.87 3907.41,-35.96"/>
<polygon fill="#63b8ff" stroke="#63b8ff" points="4511.23,-92.28 4521.35,-89.14 4511.49,-85.28 4511.23,-92.28"/>
</g>
<!-- Node52 -->
<g id="node26" class="node">
<title>Node52</title>
<g id="a_node26"><a xlink:href="J3DMatBlock_8cpp.html" target="_top" xlink:title=" ">
<polygon fill="white" stroke="#666666" points="4086.5,-35.5 3944.5,-35.5 3944.5,-5.5 4086.5,-5.5 4086.5,-35.5"/>
<text text-anchor="start" x="3952.5" y="-23.5" font-family="Helvetica,sans-Serif" font-size="10.00">libs/JSystem/J3DGraphBase</text>
<text text-anchor="middle" x="4015.5" y="-12.5" font-family="Helvetica,sans-Serif" font-size="10.00">/J3DMatBlock.cpp</text>
</a>
</g>
</g>
<!-- Node45&#45;&gt;Node52 -->
<g id="edge25" class="edge">
<title>Node45&#45;&gt;Node52</title>
<path fill="none" stroke="#63b8ff" d="M4511.32,-86.75C4416.09,-80.37 4242.19,-66.29 4095.5,-41 4087.33,-39.59 4078.75,-37.82 4070.38,-35.92"/>
<polygon fill="#63b8ff" stroke="#63b8ff" points="4510.82,-90.23 4521.03,-87.39 4511.28,-83.24 4510.82,-90.23"/>
</g>
<!-- Node53 -->
<g id="node27" class="node">
<title>Node53</title>
<g id="a_node27"><a xlink:href="J3DShape_8cpp.html" target="_top" xlink:title=" ">
<polygon fill="white" stroke="#666666" points="4246.5,-35.5 4104.5,-35.5 4104.5,-5.5 4246.5,-5.5 4246.5,-35.5"/>
<text text-anchor="start" x="4112.5" y="-23.5" font-family="Helvetica,sans-Serif" font-size="10.00">libs/JSystem/J3DGraphBase</text>
<text text-anchor="middle" x="4175.5" y="-12.5" font-family="Helvetica,sans-Serif" font-size="10.00">/J3DShape.cpp</text>
</a>
</g>
</g>
<!-- Node45&#45;&gt;Node53 -->
<g id="edge26" class="edge">
<title>Node45&#45;&gt;Node53</title>
<path fill="none" stroke="#63b8ff" d="M4511.39,-81.95C4444.94,-73.06 4343.11,-58.34 4255.5,-41 4247.93,-39.5 4239.99,-37.77 4232.18,-35.96"/>
<polygon fill="#63b8ff" stroke="#63b8ff" points="4510.68,-85.39 4521.06,-83.23 4511.6,-78.45 4510.68,-85.39"/>
</g>
<!-- Node54 -->
<g id="node28" class="node">
<title>Node54</title>
<g id="a_node28"><a xlink:href="J3DSys_8cpp.html" target="_top" xlink:title=" ">
<polygon fill="white" stroke="#666666" points="4406.5,-35.5 4264.5,-35.5 4264.5,-5.5 4406.5,-5.5 4406.5,-35.5"/>
<text text-anchor="start" x="4272.5" y="-23.5" font-family="Helvetica,sans-Serif" font-size="10.00">libs/JSystem/J3DGraphBase</text>
<text text-anchor="middle" x="4335.5" y="-12.5" font-family="Helvetica,sans-Serif" font-size="10.00">/J3DSys.cpp</text>
</a>
</g>
</g>
<!-- Node45&#45;&gt;Node54 -->
<g id="edge27" class="edge">
<title>Node45&#45;&gt;Node54</title>
<path fill="none" stroke="#63b8ff" d="M4539.64,-78.94C4497.19,-67 4432.15,-48.69 4386.93,-35.97"/>
<polygon fill="#63b8ff" stroke="#63b8ff" points="4538.68,-82.31 4549.26,-81.65 4540.58,-75.57 4538.68,-82.31"/>
</g>
<!-- Node55 -->
<g id="node29" class="node">
<title>Node55</title>
<g id="a_node29"><a xlink:href="J3DClusterLoader_8cpp.html" target="_top" xlink:title=" ">
<polygon fill="white" stroke="#666666" points="4574,-35.5 4425,-35.5 4425,-5.5 4574,-5.5 4574,-35.5"/>
<text text-anchor="start" x="4433" y="-23.5" font-family="Helvetica,sans-Serif" font-size="10.00">libs/JSystem/J3DGraphLoader</text>
<text text-anchor="middle" x="4499.5" y="-12.5" font-family="Helvetica,sans-Serif" font-size="10.00">/J3DClusterLoader.cpp</text>
</a>
</g>
</g>
<!-- Node45&#45;&gt;Node55 -->
<g id="edge28" class="edge">
<title>Node45&#45;&gt;Node55</title>
<path fill="none" stroke="#63b8ff" d="M4563.52,-75.11C4549.37,-63.26 4530.21,-47.22 4516.55,-35.77"/>
<polygon fill="#63b8ff" stroke="#63b8ff" points="4560.91,-77.49 4570.83,-81.23 4565.41,-72.12 4560.91,-77.49"/>
</g>
<!-- Node56 -->
<g id="node30" class="node">
<title>Node56</title>
<g id="a_node30"><a xlink:href="J3DShapeFactory_8cpp.html" target="_top" xlink:title=" ">
<polygon fill="white" stroke="#666666" points="4741,-35.5 4592,-35.5 4592,-5.5 4741,-5.5 4741,-35.5"/>
<text text-anchor="start" x="4600" y="-23.5" font-family="Helvetica,sans-Serif" font-size="10.00">libs/JSystem/J3DGraphLoader</text>
<text text-anchor="middle" x="4666.5" y="-12.5" font-family="Helvetica,sans-Serif" font-size="10.00">/J3DShapeFactory.cpp</text>
</a>
</g>
</g>
<!-- Node45&#45;&gt;Node56 -->
<g id="edge29" class="edge">
<title>Node45&#45;&gt;Node56</title>
<path fill="none" stroke="#63b8ff" d="M4601.71,-75.11C4616.03,-63.26 4635.42,-47.22 4649.25,-35.77"/>
<polygon fill="#63b8ff" stroke="#63b8ff" points="4599.78,-72.16 4594.3,-81.23 4604.24,-77.55 4599.78,-72.16"/>
</g>
<!-- Node57 -->
<g id="node31" class="node">
<title>Node57</title>
<g id="a_node31"><a xlink:href="JASAudioThread_8cpp.html" target="_top" xlink:title=" ">
<polygon fill="white" stroke="#666666" points="4870,-35.5 4759,-35.5 4759,-5.5 4870,-5.5 4870,-35.5"/>
<text text-anchor="start" x="4767" y="-23.5" font-family="Helvetica,sans-Serif" font-size="10.00">libs/JSystem/JAudio2</text>
<text text-anchor="middle" x="4814.5" y="-12.5" font-family="Helvetica,sans-Serif" font-size="10.00">/JASAudioThread.cpp</text>
</a>
</g>
</g>
<!-- Node45&#45;&gt;Node57 -->
<g id="edge30" class="edge">
<title>Node45&#45;&gt;Node57</title>
<path fill="none" stroke="#63b8ff" d="M4623.78,-78.8C4657.8,-68.72 4707.3,-54.01 4750.5,-41 4755.95,-39.36 4761.66,-37.63 4767.33,-35.91"/>
<polygon fill="#63b8ff" stroke="#63b8ff" points="4622.91,-75.4 4614.32,-81.6 4624.9,-82.11 4622.91,-75.4"/>
</g>
<!-- Node58 -->
<g id="node32" class="node">
<title>Node58</title>
<g id="a_node32"><a xlink:href="JASProbe_8cpp.html" target="_top" xlink:title=" ">
<polygon fill="white" stroke="#666666" points="4999,-35.5 4888,-35.5 4888,-5.5 4999,-5.5 4999,-35.5"/>
<text text-anchor="start" x="4896" y="-23.5" font-family="Helvetica,sans-Serif" font-size="10.00">libs/JSystem/JAudio2</text>
<text text-anchor="middle" x="4943.5" y="-12.5" font-family="Helvetica,sans-Serif" font-size="10.00">/JASProbe.cpp</text>
</a>
</g>
</g>
<!-- Node45&#45;&gt;Node58 -->
<g id="edge31" class="edge">
<title>Node45&#45;&gt;Node58</title>
<path fill="none" stroke="#63b8ff" d="M4639.57,-80.04C4645.29,-78.99 4651.01,-77.96 4656.5,-77 4755.39,-59.67 4781.7,-63.68 4879.5,-41 4885.84,-39.53 4892.46,-37.77 4898.95,-35.92"/>
<polygon fill="#63b8ff" stroke="#63b8ff" points="4639.33,-76.53 4630.14,-81.79 4640.61,-83.41 4639.33,-76.53"/>
</g>
<!-- Node59 -->
<g id="node33" class="node">
<title>Node59</title>
<g id="a_node33"><a xlink:href="dsptask_8cpp.html" target="_top" xlink:title=" ">
<polygon fill="white" stroke="#666666" points="5128,-35.5 5017,-35.5 5017,-5.5 5128,-5.5 5128,-35.5"/>
<text text-anchor="start" x="5025" y="-23.5" font-family="Helvetica,sans-Serif" font-size="10.00">libs/JSystem/JAudio2</text>
<text text-anchor="middle" x="5072.5" y="-12.5" font-family="Helvetica,sans-Serif" font-size="10.00">/dsptask.cpp</text>
</a>
</g>
</g>
<!-- Node45&#45;&gt;Node59 -->
<g id="edge32" class="edge">
<title>Node45&#45;&gt;Node59</title>
<path fill="none" stroke="#63b8ff" d="M4637.82,-80C4644.11,-78.91 4650.43,-77.88 4656.5,-77 4812.12,-54.36 4854.34,-72.06 5008.5,-41 5015.22,-39.65 5022.24,-37.88 5029.07,-35.97"/>
<polygon fill="#63b8ff" stroke="#63b8ff" points="4637.33,-76.54 4628.1,-81.75 4638.57,-83.43 4637.33,-76.54"/>
</g>
<!-- Node60 -->
<g id="node34" class="node">
<title>Node60</title>
<g id="a_node34"><a xlink:href="osdsp_8cpp.html" target="_top" xlink:title=" ">
<polygon fill="white" stroke="#666666" points="5257,-35.5 5146,-35.5 5146,-5.5 5257,-5.5 5257,-35.5"/>
<text text-anchor="start" x="5154" y="-23.5" font-family="Helvetica,sans-Serif" font-size="10.00">libs/JSystem/JAudio2</text>
<text text-anchor="middle" x="5201.5" y="-12.5" font-family="Helvetica,sans-Serif" font-size="10.00">/osdsp.cpp</text>
</a>
</g>
</g>
<!-- Node45&#45;&gt;Node60 -->
<g id="edge33" class="edge">
<title>Node45&#45;&gt;Node60</title>
<path fill="none" stroke="#63b8ff" d="M4636.56,-80.05C4643.25,-78.91 4650.02,-77.85 4656.5,-77 4869.04,-49.03 4926.79,-80.48 5137.5,-41 5144.46,-39.7 5151.74,-37.9 5158.79,-35.93"/>
<polygon fill="#63b8ff" stroke="#63b8ff" points="4636.13,-76.57 4626.9,-81.77 4637.36,-83.46 4636.13,-76.57"/>
</g>
<!-- Node61 -->
<g id="node35" class="node">
<title>Node61</title>
<g id="a_node35"><a xlink:href="JKRAramPiece_8cpp.html" target="_top" xlink:title=" ">
<polygon fill="white" stroke="#666666" points="5384,-35.5 5275,-35.5 5275,-5.5 5384,-5.5 5384,-35.5"/>
<text text-anchor="start" x="5283" y="-23.5" font-family="Helvetica,sans-Serif" font-size="10.00">libs/JSystem/JKernel</text>
<text text-anchor="middle" x="5329.5" y="-12.5" font-family="Helvetica,sans-Serif" font-size="10.00">/JKRAramPiece.cpp</text>
</a>
</g>
</g>
<!-- Node45&#45;&gt;Node61 -->
<g id="edge35" class="edge">
<title>Node45&#45;&gt;Node61</title>
<path fill="none" stroke="#63b8ff" d="M4635.78,-80.08C4642.73,-78.9 4649.77,-77.83 4656.5,-77 4926.03,-43.69 4999.28,-89.5 5266.5,-41 5273.48,-39.73 5280.78,-37.93 5287.83,-35.94"/>
<polygon fill="#63b8ff" stroke="#63b8ff" points="4635.34,-76.6 4626.11,-81.8 4636.57,-83.49 4635.34,-76.6"/>
</g>
<!-- Node62 -->
<g id="node36" class="node">
<title>Node62</title>
<g id="a_node36"><a xlink:href="JKRDvdArchive_8cpp.html" target="_top" xlink:title=" ">
<polygon fill="white" stroke="#666666" points="5511,-35.5 5402,-35.5 5402,-5.5 5511,-5.5 5511,-35.5"/>
<text text-anchor="start" x="5410" y="-23.5" font-family="Helvetica,sans-Serif" font-size="10.00">libs/JSystem/JKernel</text>
<text text-anchor="middle" x="5456.5" y="-12.5" font-family="Helvetica,sans-Serif" font-size="10.00">/JKRDvdArchive.cpp</text>
</a>
</g>
</g>
<!-- Node45&#45;&gt;Node62 -->
<g id="edge36" class="edge">
<title>Node45&#45;&gt;Node62</title>
<path fill="none" stroke="#63b8ff" d="M4635.51,-80.06C4642.54,-78.87 4649.68,-77.81 4656.5,-77 4982.17,-38.43 5070.53,-97.93 5393.5,-41 5400.49,-39.77 5407.79,-37.99 5414.84,-36"/>
<polygon fill="#63b8ff" stroke="#63b8ff" points="4634.94,-76.6 4625.71,-81.8 4636.17,-83.49 4634.94,-76.6"/>
</g>
<!-- Node63 -->
<g id="node37" class="node">
<title>Node63</title>
<g id="a_node37"><a xlink:href="JKRHeap_8cpp.html" target="_top" xlink:title=" ">
<polygon fill="white" stroke="#666666" points="5638,-35.5 5529,-35.5 5529,-5.5 5638,-5.5 5638,-35.5"/>
<text text-anchor="start" x="5537" y="-23.5" font-family="Helvetica,sans-Serif" font-size="10.00">libs/JSystem/JKernel</text>
<text text-anchor="middle" x="5583.5" y="-12.5" font-family="Helvetica,sans-Serif" font-size="10.00">/JKRHeap.cpp</text>
</a>
</g>
</g>
<!-- Node45&#45;&gt;Node63 -->
<g id="edge37" class="edge">
<title>Node45&#45;&gt;Node63</title>
<path fill="none" stroke="#63b8ff" d="M4635.5,-80.01C4642.54,-78.83 4649.68,-77.78 4656.5,-77 5038.32,-33.16 5141.77,-106.37 5520.5,-41 5527.61,-39.77 5535.03,-37.97 5542.19,-35.95"/>
<polygon fill="#63b8ff" stroke="#63b8ff" points="4634.94,-76.56 4625.7,-81.75 4636.16,-83.45 4634.94,-76.56"/>
</g>
<!-- Node64 -->
<g id="node38" class="node">
<title>Node64</title>
<g id="a_node38"><a xlink:href="JPAChildShape_8cpp.html" target="_top" xlink:title=" ">
<polygon fill="white" stroke="#666666" points="5770.5,-35.5 5656.5,-35.5 5656.5,-5.5 5770.5,-5.5 5770.5,-35.5"/>
<text text-anchor="start" x="5664.5" y="-23.5" font-family="Helvetica,sans-Serif" font-size="10.00">libs/JSystem/JParticle</text>
<text text-anchor="middle" x="5713.5" y="-12.5" font-family="Helvetica,sans-Serif" font-size="10.00">/JPAChildShape.cpp</text>
</a>
</g>
</g>
<!-- Node45&#45;&gt;Node64 -->
<g id="edge38" class="edge">
<title>Node45&#45;&gt;Node64</title>
<path fill="none" stroke="#63b8ff" d="M4634.98,-80.06C4642.19,-78.86 4649.51,-77.78 4656.5,-77 5094.49,-27.9 5212.52,-112 5647.5,-41 5654.93,-39.79 5662.7,-37.99 5670.19,-35.97"/>
<polygon fill="#63b8ff" stroke="#63b8ff" points="4634.54,-76.59 4625.31,-81.78 4635.77,-83.48 4634.54,-76.59"/>
</g>
<!-- Node65 -->
<g id="node39" class="node">
<title>Node65</title>
<g id="a_node39"><a xlink:href="JPAExtraShape_8cpp.html" target="_top" xlink:title=" ">
<polygon fill="white" stroke="#666666" points="5902.5,-35.5 5788.5,-35.5 5788.5,-5.5 5902.5,-5.5 5902.5,-35.5"/>
<text text-anchor="start" x="5796.5" y="-23.5" font-family="Helvetica,sans-Serif" font-size="10.00">libs/JSystem/JParticle</text>
<text text-anchor="middle" x="5845.5" y="-12.5" font-family="Helvetica,sans-Serif" font-size="10.00">/JPAExtraShape.cpp</text>
</a>
</g>
</g>
<!-- Node45&#45;&gt;Node65 -->
<g id="edge39" class="edge">
<title>Node45&#45;&gt;Node65</title>
<path fill="none" stroke="#63b8ff" d="M4634.98,-80.03C4642.18,-78.83 4649.51,-77.77 4656.5,-77 5152.88,-22.42 5286.48,-120.39 5779.5,-41 5786.93,-39.8 5794.7,-38.01 5802.2,-36"/>
<polygon fill="#63b8ff" stroke="#63b8ff" points="4634.54,-76.56 4625.31,-81.75 4635.76,-83.45 4634.54,-76.56"/>
</g>
<!-- Node66 -->
<g id="node40" class="node">
<title>Node66</title>
<g id="a_node40"><a xlink:href="JUTConsole_8cpp.html" target="_top" xlink:title=" ">
<polygon fill="white" stroke="#666666" points="6026.5,-35.5 5920.5,-35.5 5920.5,-5.5 6026.5,-5.5 6026.5,-35.5"/>
<text text-anchor="start" x="5928.5" y="-23.5" font-family="Helvetica,sans-Serif" font-size="10.00">libs/JSystem/JUtility</text>
<text text-anchor="middle" x="5973.5" y="-12.5" font-family="Helvetica,sans-Serif" font-size="10.00">/JUTConsole.cpp</text>
</a>
</g>
</g>
<!-- Node45&#45;&gt;Node66 -->
<g id="edge40" class="edge">
<title>Node45&#45;&gt;Node66</title>
<path fill="none" stroke="#63b8ff" d="M4634.71,-80.06C4642,-78.84 4649.42,-77.77 4656.5,-77 4933.88,-46.97 5636.36,-87.29 5911.5,-41 5918.62,-39.8 5926.06,-37.98 5933.2,-35.93"/>
<polygon fill="#63b8ff" stroke="#63b8ff" points="4634.15,-76.6 4624.92,-81.8 4635.37,-83.49 4634.15,-76.6"/>
</g>
<!-- Node67 -->
<g id="node41" class="node">
<title>Node67</title>
<g id="a_node41"><a xlink:href="JUTException_8cpp.html" target="_top" xlink:title=" ">
<polygon fill="white" stroke="#666666" points="6150.5,-35.5 6044.5,-35.5 6044.5,-5.5 6150.5,-5.5 6150.5,-35.5"/>
<text text-anchor="start" x="6052.5" y="-23.5" font-family="Helvetica,sans-Serif" font-size="10.00">libs/JSystem/JUtility</text>
<text text-anchor="middle" x="6097.5" y="-12.5" font-family="Helvetica,sans-Serif" font-size="10.00">/JUTException.cpp</text>
</a>
</g>
</g>
<!-- Node45&#45;&gt;Node67 -->
<g id="edge41" class="edge">
<title>Node45&#45;&gt;Node67</title>
<path fill="none" stroke="#63b8ff" d="M4634.71,-80.04C4642,-78.83 4649.42,-77.76 4656.5,-77 4961.31,-44.4 5733.14,-91.48 6035.5,-41 6042.62,-39.81 6050.06,-38 6057.21,-35.95"/>
<polygon fill="#63b8ff" stroke="#63b8ff" points="4634.15,-76.58 4624.91,-81.78 4635.37,-83.48 4634.15,-76.58"/>
</g>
<!-- Node68 -->
<g id="node42" class="node">
<title>Node68</title>
<g id="a_node42"><a xlink:href="JUTPalette_8cpp.html" target="_top" xlink:title=" ">
<polygon fill="white" stroke="#666666" points="6274.5,-35.5 6168.5,-35.5 6168.5,-5.5 6274.5,-5.5 6274.5,-35.5"/>
<text text-anchor="start" x="6176.5" y="-23.5" font-family="Helvetica,sans-Serif" font-size="10.00">libs/JSystem/JUtility</text>
<text text-anchor="middle" x="6221.5" y="-12.5" font-family="Helvetica,sans-Serif" font-size="10.00">/JUTPalette.cpp</text>
</a>
</g>
</g>
<!-- Node45&#45;&gt;Node68 -->
<g id="edge42" class="edge">
<title>Node45&#45;&gt;Node68</title>
<path fill="none" stroke="#63b8ff" d="M4634.71,-80.03C4642,-78.81 4649.42,-77.75 4656.5,-77 4988.74,-41.83 5829.91,-95.66 6159.5,-41 6166.62,-39.82 6174.06,-38.01 6181.21,-35.96"/>
<polygon fill="#63b8ff" stroke="#63b8ff" points="4634.15,-76.57 4624.91,-81.76 4635.37,-83.46 4634.15,-76.57"/>
</g>
<!-- Node69 -->
<g id="node43" class="node">
<title>Node69</title>
<g id="a_node43"><a xlink:href="uart__console__io__gcn_8c.html" target="_top" xlink:title=" ">
<polygon fill="white" stroke="#666666" points="6426.5,-35.5 6292.5,-35.5 6292.5,-5.5 6426.5,-5.5 6426.5,-35.5"/>
<text text-anchor="start" x="6300.5" y="-23.5" font-family="Helvetica,sans-Serif" font-size="10.00">libs/MSL_C/PPC_EABI</text>
<text text-anchor="middle" x="6359.5" y="-12.5" font-family="Helvetica,sans-Serif" font-size="10.00">/Src/uart_console_io_gcn.c</text>
</a>
</g>
</g>
<!-- Node45&#45;&gt;Node69 -->
<g id="edge43" class="edge">
<title>Node45&#45;&gt;Node69</title>
<path fill="none" stroke="#63b8ff" d="M4634.71,-80.01C4642,-78.8 4649.42,-77.74 4656.5,-77 5016.17,-39.26 5925.23,-90.26 6283.5,-41 6292.14,-39.81 6301.21,-38 6309.95,-35.95"/>
<polygon fill="#63b8ff" stroke="#63b8ff" points="4634.15,-76.56 4624.91,-81.75 4635.37,-83.45 4634.15,-76.56"/>
</g>
<!-- Node70 -->
<g id="node44" class="node">
<title>Node70</title>
<g id="a_node44"><a xlink:href="GCN__Mem__Alloc_8c.html" target="_top" xlink:title=" ">
<polygon fill="white" stroke="#666666" points="6570,-35.5 6445,-35.5 6445,-5.5 6570,-5.5 6570,-35.5"/>
<text text-anchor="start" x="6453" y="-23.5" font-family="Helvetica,sans-Serif" font-size="10.00">libs/Runtime.PPCEABI.H</text>
<text text-anchor="middle" x="6507.5" y="-12.5" font-family="Helvetica,sans-Serif" font-size="10.00">/GCN_Mem_Alloc.c</text>
</a>
</g>
</g>
<!-- Node45&#45;&gt;Node70 -->
<g id="edge44" class="edge">
<title>Node45&#45;&gt;Node70</title>
<path fill="none" stroke="#63b8ff" d="M4634.18,-80.09C4641.64,-78.84 4649.25,-77.75 4656.5,-77 5049.79,-36.11 6044.09,-97.1 6435.5,-41 6443.7,-39.82 6452.31,-38.02 6460.59,-35.97"/>
<polygon fill="#63b8ff" stroke="#63b8ff" points="4633.76,-76.61 4624.52,-81.81 4634.98,-83.5 4633.76,-76.61"/>
</g>
<!-- Node71 -->
<g id="node45" class="node">
<title>Node71</title>
<g id="a_node45"><a xlink:href="Z2AudioMgr_8cpp.html" target="_top" xlink:title=" ">
<polygon fill="white" stroke="#666666" points="2796.5,-30 2638.5,-30 2638.5,-11 2796.5,-11 2796.5,-30"/>
<text text-anchor="middle" x="2717.5" y="-18" font-family="Helvetica,sans-Serif" font-size="10.00">libs/Z2AudioLib/Z2AudioMgr.cpp</text>
</a>
</g>
</g>
<!-- Node45&#45;&gt;Node71 -->
<g id="edge45" class="edge">
<title>Node45&#45;&gt;Node71</title>
<path fill="none" stroke="#63b8ff" d="M4511.58,-90.8C4224.03,-89.72 3144.22,-82.91 2805.5,-41 2787.17,-38.73 2767.05,-34.41 2750.67,-30.41"/>
<polygon fill="#63b8ff" stroke="#63b8ff" points="4511.15,-94.3 4521.16,-90.84 4511.18,-87.3 4511.15,-94.3"/>
</g>
<!-- Node72 -->
<g id="node46" class="node">
<title>Node72</title>
<g id="a_node46"><a xlink:href="Z2LinkMgr_8cpp.html" target="_top" xlink:title=" ">
<polygon fill="white" stroke="#666666" points="2966.5,-30 2814.5,-30 2814.5,-11 2966.5,-11 2966.5,-30"/>
<text text-anchor="middle" x="2890.5" y="-18" font-family="Helvetica,sans-Serif" font-size="10.00">libs/Z2AudioLib/Z2LinkMgr.cpp</text>
</a>
</g>
</g>
<!-- Node45&#45;&gt;Node72 -->
<g id="edge46" class="edge">
<title>Node45&#45;&gt;Node72</title>
<path fill="none" stroke="#63b8ff" d="M4511.33,-90.62C4241.15,-88.91 3278.95,-80.15 2975.5,-41 2957.93,-38.73 2938.67,-34.47 2922.93,-30.5"/>
<polygon fill="#63b8ff" stroke="#63b8ff" points="4511.01,-94.12 4521.03,-90.68 4511.05,-87.12 4511.01,-94.12"/>
</g>
<!-- Node73 -->
<g id="node47" class="node">
<title>Node73</title>
<g id="a_node47"><a xlink:href="Z2WolfHowlMgr_8cpp.html" target="_top" xlink:title=" ">
<polygon fill="white" stroke="#666666" points="3124.5,-35.5 2984.5,-35.5 2984.5,-5.5 3124.5,-5.5 3124.5,-35.5"/>
<text text-anchor="start" x="2992.5" y="-23.5" font-family="Helvetica,sans-Serif" font-size="10.00">libs/Z2AudioLib/Z2WolfHowl</text>
<text text-anchor="middle" x="3054.5" y="-12.5" font-family="Helvetica,sans-Serif" font-size="10.00">Mgr.cpp</text>
</a>
</g>
</g>
<!-- Node45&#45;&gt;Node73 -->
<g id="edge47" class="edge">
<title>Node45&#45;&gt;Node73</title>
<path fill="none" stroke="#63b8ff" d="M4511.69,-90.5C4259.3,-88.42 3404.36,-78.69 3133.5,-41 3124.68,-39.77 3115.42,-37.97 3106.47,-35.95"/>
<polygon fill="#63b8ff" stroke="#63b8ff" points="4511.35,-94 4521.38,-90.58 4511.41,-87 4511.35,-94"/>
</g>
<!-- Node45&#45;&gt;Node83 -->
<g id="edge50" class="edge">
<title>Node45&#45;&gt;Node83</title>
<path fill="none" stroke="#63b8ff" d="M4634.18,-80.08C4641.64,-78.84 4649.25,-77.75 4656.5,-77 5081.65,-33.12 6156.27,-100.59 6579.5,-41 6594.96,-38.82 6611.82,-34.46 6625.44,-30.41"/>
<polygon fill="#63b8ff" stroke="#63b8ff" points="4633.75,-76.6 4624.52,-81.79 4634.98,-83.49 4633.75,-76.6"/>
</g>
</g>
</svg>
