<?xml version="1.0" encoding="UTF-8" standalone="no"?>
<!DOCTYPE svg PUBLIC "-//W3C//DTD SVG 1.1//EN"
 "http://www.w3.org/Graphics/SVG/1.1/DTD/svg11.dtd">
<!-- Generated by graphviz version 7.0.5 (20221223.1930)
 -->
<!-- Title: include/dolphin/os/OSCache.h Pages: 1 -->
<!--zoomable 181 -->
<svg id="main" version="1.1" xmlns="http://www.w3.org/2000/svg" xmlns:xlink="http://www.w3.org/1999/xlink" xml:space="preserve" onload="init(evt)">
<style type="text/css"><![CDATA[
.edge:hover path { stroke: red; }
.edge:hover polygon { stroke: red; fill: red; }
]]></style>
<script type="text/javascript"><![CDATA[
var edges = document.getElementsByTagName('g');
if (edges && edges.length) {
  for (var i=0;i<edges.length;i++) {
    if (edges[i].id.substr(0,4)=='edge') {
      edges[i].setAttribute('class','edge');
    }
  }
}
]]></script>
        <defs>
                <circle id="rim" cx="0" cy="0" r="7"/>
                <circle id="rim2" cx="0" cy="0" r="3.5"/>
                <g id="zoomPlus">
                        <use xlink:href="#rim" fill="#404040">
                                <set attributeName="fill" to="#808080" begin="zoomplus.mouseover" end="zoomplus.mouseout"/>
                        </use>
                        <path d="M-4,0h8M0,-4v8" fill="none" stroke="white" stroke-width="1.5" pointer-events="none"/>
                </g>
                <g id="zoomMin">
                        <use xlink:href="#rim" fill="#404040">
                                <set attributeName="fill" to="#808080" begin="zoomminus.mouseover" end="zoomminus.mouseout"/>
                        </use>
                        <path d="M-4,0h8" fill="none" stroke="white" stroke-width="1.5" pointer-events="none"/>
                </g>
                <g id="dirArrow">
                        <path fill="none" stroke="white" stroke-width="1.5" d="M0,-3.0v7 M-2.5,-0.5L0,-3.0L2.5,-0.5"/>
                </g>
               <g id="resetDef">
                       <use xlink:href="#rim2" fill="#404040">
                               <set attributeName="fill" to="#808080" begin="reset.mouseover" end="reset.mouseout"/>
                       </use>
               </g>
        </defs>

<script type="text/javascript">
var viewWidth = 5797;
var viewHeight = 181;
var sectionId = 'dynsection-1';
</script>
<script xlink:href="svgpan.js"/>
<svg id="graph" class="graph">
<g id="viewport">
<title>include/dolphin/os/OSCache.h</title>
<!-- Node1 -->
<g id="node1" class="node">
<title>Node1</title>
<g id="a_node1"><a xlink:title=" ">
<polygon fill="#999999" stroke="#666666" points="4568.5,-173 4473.5,-173 4473.5,-143 4568.5,-143 4568.5,-173"/>
<text text-anchor="start" x="4481.5" y="-161" font-family="Helvetica,sans-Serif" font-size="10.00">include/dolphin/os</text>
<text text-anchor="middle" x="4521" y="-150" font-family="Helvetica,sans-Serif" font-size="10.00">/OSCache.h</text>
</a>
</g>
</g>
<!-- Node2 -->
<g id="node2" class="node">
<title>Node2</title>
<g id="a_node2"><a xlink:href="OS_8h.html" target="_top" xlink:title=" ">
<polygon fill="#fff0f0" stroke="red" points="2458.5,-101.5 2339.5,-101.5 2339.5,-82.5 2458.5,-82.5 2458.5,-101.5"/>
<text text-anchor="middle" x="2399" y="-89.5" font-family="Helvetica,sans-Serif" font-size="10.00">include/dolphin/os/OS.h</text>
</a>
</g>
</g>
<!-- Node1&#45;&gt;Node2 -->
<g id="edge1" class="edge">
<title>Node1&#45;&gt;Node2</title>
<path fill="none" stroke="#63b8ff" d="M4462,-155.22C4157.45,-146.04 2765.83,-104.06 2458.98,-94.81"/>
<polygon fill="#63b8ff" stroke="#63b8ff" points="4461.59,-158.71 4471.69,-155.51 4461.8,-151.71 4461.59,-158.71"/>
</g>
<!-- Node44 -->
<g id="node33" class="node">
<title>Node44</title>
<g id="a_node33"><a xlink:href="OSCache_8c.html" target="_top" xlink:title=" ">
<polygon fill="white" stroke="#666666" points="4455.5,-30 4324.5,-30 4324.5,-11 4455.5,-11 4455.5,-30"/>
<text text-anchor="middle" x="4390" y="-18" font-family="Helvetica,sans-Serif" font-size="10.00">libs/dolphin/os/OSCache.c</text>
</a>
</g>
</g>
<!-- Node1&#45;&gt;Node44 -->
<g id="edge46" class="edge">
<title>Node1&#45;&gt;Node44</title>
<path fill="none" stroke="#63b8ff" d="M4462.08,-156.45C4243.78,-154.15 3491.9,-143.58 3457,-107 3447.8,-97.35 3447.77,-86.62 3457,-77 3490.06,-42.53 4268.77,-48.13 4316,-41 4331.37,-38.68 4348.15,-34.41 4361.84,-30.45"/>
<polygon fill="#63b8ff" stroke="#63b8ff" points="4461.72,-159.95 4471.76,-156.55 4461.8,-152.95 4461.72,-159.95"/>
</g>
<!-- Node89 -->
<g id="node34" class="node">
<title>Node89</title>
<g id="a_node34"><a xlink:href="J3DPacket_8cpp.html" target="_top" xlink:title=" ">
<polygon fill="white" stroke="#666666" points="3608,-107 3466,-107 3466,-77 3608,-77 3608,-107"/>
<text text-anchor="start" x="3474" y="-95" font-family="Helvetica,sans-Serif" font-size="10.00">libs/JSystem/J3DGraphBase</text>
<text text-anchor="middle" x="3537" y="-84" font-family="Helvetica,sans-Serif" font-size="10.00">/J3DPacket.cpp</text>
</a>
</g>
</g>
<!-- Node1&#45;&gt;Node89 -->
<g id="edge33" class="edge">
<title>Node1&#45;&gt;Node89</title>
<path fill="none" stroke="#63b8ff" d="M4462.09,-156.15C4317.62,-153.53 3934.39,-143.42 3617,-107 3614.2,-106.68 3611.35,-106.32 3608.47,-105.94"/>
<polygon fill="#63b8ff" stroke="#63b8ff" points="4461.72,-159.64 4471.78,-156.32 4461.85,-152.64 4461.72,-159.64"/>
</g>
<!-- Node90 -->
<g id="node35" class="node">
<title>Node90</title>
<g id="a_node35"><a xlink:href="J3DShapeDraw_8cpp.html" target="_top" xlink:title=" ">
<polygon fill="white" stroke="#666666" points="3768,-107 3626,-107 3626,-77 3768,-77 3768,-107"/>
<text text-anchor="start" x="3634" y="-95" font-family="Helvetica,sans-Serif" font-size="10.00">libs/JSystem/J3DGraphBase</text>
<text text-anchor="middle" x="3697" y="-84" font-family="Helvetica,sans-Serif" font-size="10.00">/J3DShapeDraw.cpp</text>
</a>
</g>
</g>
<!-- Node1&#45;&gt;Node90 -->
<g id="edge34" class="edge">
<title>Node1&#45;&gt;Node90</title>
<path fill="none" stroke="#63b8ff" d="M4462.12,-155.17C4336.08,-150.78 4030.94,-137.66 3777,-107 3774.2,-106.66 3771.35,-106.29 3768.47,-105.9"/>
<polygon fill="#63b8ff" stroke="#63b8ff" points="4461.77,-158.66 4471.89,-155.5 4462.01,-151.66 4461.77,-158.66"/>
</g>
<!-- Node91 -->
<g id="node36" class="node">
<title>Node91</title>
<g id="a_node36"><a xlink:href="J3DVertex_8cpp.html" target="_top" xlink:title=" ">
<polygon fill="white" stroke="#666666" points="3928,-107 3786,-107 3786,-77 3928,-77 3928,-107"/>
<text text-anchor="start" x="3794" y="-95" font-family="Helvetica,sans-Serif" font-size="10.00">libs/JSystem/J3DGraphBase</text>
<text text-anchor="middle" x="3857" y="-84" font-family="Helvetica,sans-Serif" font-size="10.00">/J3DVertex.cpp</text>
</a>
</g>
</g>
<!-- Node1&#45;&gt;Node91 -->
<g id="edge35" class="edge">
<title>Node1&#45;&gt;Node91</title>
<path fill="none" stroke="#63b8ff" d="M4461.9,-153.61C4356.4,-147.18 4128.82,-131.63 3938,-107 3934.74,-106.58 3931.42,-106.12 3928.07,-105.64"/>
<polygon fill="#63b8ff" stroke="#63b8ff" points="4461.54,-157.09 4471.73,-154.2 4461.96,-150.11 4461.54,-157.09"/>
</g>
<!-- Node92 -->
<g id="node37" class="node">
<title>Node92</title>
<g id="a_node37"><a xlink:href="JASAiCtrl_8cpp.html" target="_top" xlink:title=" ">
<polygon fill="white" stroke="#666666" points="4057.5,-107 3946.5,-107 3946.5,-77 4057.5,-77 4057.5,-107"/>
<text text-anchor="start" x="3954.5" y="-95" font-family="Helvetica,sans-Serif" font-size="10.00">libs/JSystem/JAudio2</text>
<text text-anchor="middle" x="4002" y="-84" font-family="Helvetica,sans-Serif" font-size="10.00">/JASAiCtrl.cpp</text>
</a>
</g>
</g>
<!-- Node1&#45;&gt;Node92 -->
<g id="edge36" class="edge">
<title>Node1&#45;&gt;Node92</title>
<path fill="none" stroke="#63b8ff" d="M4461.86,-152.43C4374.96,-145.28 4207.83,-129.86 4067,-107 4064.04,-106.52 4061.01,-105.99 4057.95,-105.43"/>
<polygon fill="#63b8ff" stroke="#63b8ff" points="4461.31,-155.9 4471.56,-153.22 4461.88,-148.92 4461.31,-155.9"/>
</g>
<!-- Node93 -->
<g id="node38" class="node">
<title>Node93</title>
<g id="a_node38"><a xlink:href="JASCalc_8cpp.html" target="_top" xlink:title=" ">
<polygon fill="white" stroke="#666666" points="4186.5,-107 4075.5,-107 4075.5,-77 4186.5,-77 4186.5,-107"/>
<text text-anchor="start" x="4083.5" y="-95" font-family="Helvetica,sans-Serif" font-size="10.00">libs/JSystem/JAudio2</text>
<text text-anchor="middle" x="4131" y="-84" font-family="Helvetica,sans-Serif" font-size="10.00">/JASCalc.cpp</text>
</a>
</g>
</g>
<!-- Node1&#45;&gt;Node93 -->
<g id="edge37" class="edge">
<title>Node1&#45;&gt;Node93</title>
<path fill="none" stroke="#63b8ff" d="M4461.94,-148.99C4396.67,-139.89 4288.55,-124.07 4196,-107 4193.05,-106.46 4190.03,-105.88 4186.98,-105.28"/>
<polygon fill="#63b8ff" stroke="#63b8ff" points="4461.33,-152.44 4471.72,-150.35 4462.29,-145.51 4461.33,-152.44"/>
</g>
<!-- Node94 -->
<g id="node39" class="node">
<title>Node94</title>
<g id="a_node39"><a xlink:href="JASDSPInterface_8cpp.html" target="_top" xlink:title=" ">
<polygon fill="white" stroke="#666666" points="4319.5,-107 4204.5,-107 4204.5,-77 4319.5,-77 4319.5,-107"/>
<text text-anchor="start" x="4212.5" y="-95" font-family="Helvetica,sans-Serif" font-size="10.00">libs/JSystem/JAudio2</text>
<text text-anchor="middle" x="4262" y="-84" font-family="Helvetica,sans-Serif" font-size="10.00">/JASDSPInterface.cpp</text>
</a>
</g>
</g>
<!-- Node1&#45;&gt;Node94 -->
<g id="edge38" class="edge">
<title>Node1&#45;&gt;Node94</title>
<path fill="none" stroke="#63b8ff" d="M4462.15,-142.46C4419.58,-131.94 4362.32,-117.79 4319.95,-107.32"/>
<polygon fill="#63b8ff" stroke="#63b8ff" points="4461.18,-145.82 4471.72,-144.82 4462.86,-139.03 4461.18,-145.82"/>
</g>
<!-- Node95 -->
<g id="node40" class="node">
<title>Node95</title>
<g id="a_node40"><a xlink:href="JKRAram_8cpp.html" target="_top" xlink:title=" ">
<polygon fill="white" stroke="#666666" points="4446.5,-107 4337.5,-107 4337.5,-77 4446.5,-77 4446.5,-107"/>
<text text-anchor="start" x="4345.5" y="-95" font-family="Helvetica,sans-Serif" font-size="10.00">libs/JSystem/JKernel</text>
<text text-anchor="middle" x="4392" y="-84" font-family="Helvetica,sans-Serif" font-size="10.00">/JKRAram.cpp</text>
</a>
</g>
</g>
<!-- Node1&#45;&gt;Node95 -->
<g id="edge39" class="edge">
<title>Node1&#45;&gt;Node95</title>
<path fill="none" stroke="#63b8ff" d="M4481.87,-137.59C4462.23,-127.84 4438.84,-116.24 4420.85,-107.31"/>
<polygon fill="#63b8ff" stroke="#63b8ff" points="4480.18,-140.66 4490.69,-141.96 4483.29,-134.38 4480.18,-140.66"/>
</g>
<!-- Node96 -->
<g id="node41" class="node">
<title>Node96</title>
<g id="a_node41"><a xlink:href="JKRAramArchive_8cpp.html" target="_top" xlink:title=" ">
<polygon fill="white" stroke="#666666" points="4577.5,-107 4464.5,-107 4464.5,-77 4577.5,-77 4577.5,-107"/>
<text text-anchor="start" x="4472.5" y="-95" font-family="Helvetica,sans-Serif" font-size="10.00">libs/JSystem/JKernel</text>
<text text-anchor="middle" x="4521" y="-84" font-family="Helvetica,sans-Serif" font-size="10.00">/JKRAramArchive.cpp</text>
</a>
</g>
</g>
<!-- Node1&#45;&gt;Node96 -->
<g id="edge40" class="edge">
<title>Node1&#45;&gt;Node96</title>
<path fill="none" stroke="#63b8ff" d="M4521,-131.39C4521,-123.13 4521,-114.28 4521,-107.16"/>
<polygon fill="#63b8ff" stroke="#63b8ff" points="4517.5,-131.28 4521,-141.28 4524.5,-131.28 4517.5,-131.28"/>
</g>
<!-- Node97 -->
<g id="node42" class="node">
<title>Node97</title>
<g id="a_node42"><a xlink:href="JKRCompArchive_8cpp.html" target="_top" xlink:title=" ">
<polygon fill="white" stroke="#666666" points="4710.5,-107 4595.5,-107 4595.5,-77 4710.5,-77 4710.5,-107"/>
<text text-anchor="start" x="4603.5" y="-95" font-family="Helvetica,sans-Serif" font-size="10.00">libs/JSystem/JKernel</text>
<text text-anchor="middle" x="4653" y="-84" font-family="Helvetica,sans-Serif" font-size="10.00">/JKRCompArchive.cpp</text>
</a>
</g>
</g>
<!-- Node1&#45;&gt;Node97 -->
<g id="edge41" class="edge">
<title>Node1&#45;&gt;Node97</title>
<path fill="none" stroke="#63b8ff" d="M4560.76,-137.72C4580.92,-127.95 4604.98,-116.28 4623.48,-107.31"/>
<polygon fill="#63b8ff" stroke="#63b8ff" points="4559.46,-134.46 4551.99,-141.98 4562.51,-140.76 4559.46,-134.46"/>
</g>
<!-- Node98 -->
<g id="node43" class="node">
<title>Node98</title>
<g id="a_node43"><a xlink:href="JKRDvdAramRipper_8cpp.html" target="_top" xlink:title=" ">
<polygon fill="white" stroke="#666666" points="4853.5,-107 4728.5,-107 4728.5,-77 4853.5,-77 4853.5,-107"/>
<text text-anchor="start" x="4736.5" y="-95" font-family="Helvetica,sans-Serif" font-size="10.00">libs/JSystem/JKernel</text>
<text text-anchor="middle" x="4791" y="-84" font-family="Helvetica,sans-Serif" font-size="10.00">/JKRDvdAramRipper.cpp</text>
</a>
</g>
</g>
<!-- Node1&#45;&gt;Node98 -->
<g id="edge42" class="edge">
<title>Node1&#45;&gt;Node98</title>
<path fill="none" stroke="#63b8ff" d="M4579.9,-143.04C4624.4,-132.49 4685.28,-118.06 4730.23,-107.4"/>
<polygon fill="#63b8ff" stroke="#63b8ff" points="4579.36,-139.57 4570.43,-145.28 4580.97,-146.38 4579.36,-139.57"/>
</g>
<!-- Node99 -->
<g id="node44" class="node">
<title>Node99</title>
<g id="a_node44"><a xlink:href="JKRDvdRipper_8cpp.html" target="_top" xlink:title=" ">
<polygon fill="white" stroke="#666666" points="4980.5,-107 4871.5,-107 4871.5,-77 4980.5,-77 4980.5,-107"/>
<text text-anchor="start" x="4879.5" y="-95" font-family="Helvetica,sans-Serif" font-size="10.00">libs/JSystem/JKernel</text>
<text text-anchor="middle" x="4926" y="-84" font-family="Helvetica,sans-Serif" font-size="10.00">/JKRDvdRipper.cpp</text>
</a>
</g>
</g>
<!-- Node1&#45;&gt;Node99 -->
<g id="edge43" class="edge">
<title>Node1&#45;&gt;Node99</title>
<path fill="none" stroke="#63b8ff" d="M4580.14,-149.7C4648.49,-140.94 4764.25,-125.16 4863,-107 4865.64,-106.51 4868.35,-106 4871.07,-105.46"/>
<polygon fill="#63b8ff" stroke="#63b8ff" points="4579.74,-146.22 4570.26,-150.95 4580.63,-153.16 4579.74,-146.22"/>
</g>
<!-- Node100 -->
<g id="node45" class="node">
<title>Node100</title>
<g id="a_node45"><a xlink:href="JKRMemArchive_8cpp.html" target="_top" xlink:title=" ">
<polygon fill="white" stroke="#666666" points="5109.5,-107 4998.5,-107 4998.5,-77 5109.5,-77 5109.5,-107"/>
<text text-anchor="start" x="5006.5" y="-95" font-family="Helvetica,sans-Serif" font-size="10.00">libs/JSystem/JKernel</text>
<text text-anchor="middle" x="5054" y="-84" font-family="Helvetica,sans-Serif" font-size="10.00">/JKRMemArchive.cpp</text>
</a>
</g>
</g>
<!-- Node1&#45;&gt;Node100 -->
<g id="edge44" class="edge">
<title>Node1&#45;&gt;Node100</title>
<path fill="none" stroke="#63b8ff" d="M4580.06,-152.78C4669.25,-145.95 4843.45,-130.77 4990,-107 4992.69,-106.56 4995.45,-106.08 4998.22,-105.58"/>
<polygon fill="#63b8ff" stroke="#63b8ff" points="4580.05,-149.27 4570.34,-153.52 4580.57,-156.25 4580.05,-149.27"/>
</g>
<!-- Node101 -->
<g id="node46" class="node">
<title>Node101</title>
<g id="a_node46"><a xlink:href="JUTDirectPrint_8cpp.html" target="_top" xlink:title=" ">
<polygon fill="white" stroke="#666666" points="5234,-107 5128,-107 5128,-77 5234,-77 5234,-107"/>
<text text-anchor="start" x="5136" y="-95" font-family="Helvetica,sans-Serif" font-size="10.00">libs/JSystem/JUtility</text>
<text text-anchor="middle" x="5181" y="-84" font-family="Helvetica,sans-Serif" font-size="10.00">/JUTDirectPrint.cpp</text>
</a>
</g>
</g>
<!-- Node1&#45;&gt;Node101 -->
<g id="edge45" class="edge">
<title>Node1&#45;&gt;Node101</title>
<path fill="none" stroke="#63b8ff" d="M4580.2,-154.77C4687.94,-150.12 4923.03,-137.17 5119,-107 5121.84,-106.56 5124.73,-106.07 5127.66,-105.54"/>
<polygon fill="#63b8ff" stroke="#63b8ff" points="4580.29,-151.27 4570.45,-155.18 4580.59,-158.26 4580.29,-151.27"/>
</g>
<!-- Node102 -->
<g id="node47" class="node">
<title>Node102</title>
<g id="a_node47"><a xlink:href="d__attention_8cpp.html" target="_top" xlink:title=" ">
<polygon fill="white" stroke="#666666" points="5359.5,-101.5 5252.5,-101.5 5252.5,-82.5 5359.5,-82.5 5359.5,-101.5"/>
<text text-anchor="middle" x="5306" y="-89.5" font-family="Helvetica,sans-Serif" font-size="10.00">src/d/d_attention.cpp</text>
</a>
</g>
</g>
<!-- Node1&#45;&gt;Node102 -->
<g id="edge47" class="edge">
<title>Node1&#45;&gt;Node102</title>
<path fill="none" stroke="#63b8ff" d="M4580.44,-155.89C4704.29,-152.91 4998.76,-142.39 5243,-107 5251.87,-105.71 5261.35,-103.87 5270.19,-101.93"/>
<polygon fill="#63b8ff" stroke="#63b8ff" points="4580.43,-152.39 4570.51,-156.12 4580.59,-159.38 4580.43,-152.39"/>
</g>
<!-- Node103 -->
<g id="node48" class="node">
<title>Node103</title>
<g id="a_node48"><a xlink:href="d__ky__thunder_8cpp.html" target="_top" xlink:title=" ">
<polygon fill="white" stroke="#666666" points="5494.5,-101.5 5377.5,-101.5 5377.5,-82.5 5494.5,-82.5 5494.5,-101.5"/>
<text text-anchor="middle" x="5436" y="-89.5" font-family="Helvetica,sans-Serif" font-size="10.00">src/d/d_ky_thunder.cpp</text>
</a>
</g>
</g>
<!-- Node1&#45;&gt;Node103 -->
<g id="edge48" class="edge">
<title>Node1&#45;&gt;Node103</title>
<path fill="none" stroke="#63b8ff" d="M4579.71,-156.5C4717.92,-154.69 5074.31,-146.26 5369,-107 5378.42,-105.74 5388.5,-103.91 5397.9,-101.97"/>
<polygon fill="#63b8ff" stroke="#63b8ff" points="4580.05,-153 4570.1,-156.62 4580.14,-160 4580.05,-153"/>
</g>
<!-- Node104 -->
<g id="node49" class="node">
<title>Node104</title>
<g id="a_node49"><a xlink:href="d__menu__fmap_8cpp.html" target="_top" xlink:title=" ">
<polygon fill="white" stroke="#666666" points="5661,-101.5 5513,-101.5 5513,-82.5 5661,-82.5 5661,-101.5"/>
<text text-anchor="middle" x="5587" y="-89.5" font-family="Helvetica,sans-Serif" font-size="10.00">src/d/menu/d_menu_fmap.cpp</text>
</a>
</g>
</g>
<!-- Node1&#45;&gt;Node104 -->
<g id="edge49" class="edge">
<title>Node1&#45;&gt;Node104</title>
<path fill="none" stroke="#63b8ff" d="M4580.41,-156.38C4733.77,-154.27 5155.3,-145.15 5504,-107 5515.62,-105.73 5528.08,-103.88 5539.73,-101.95"/>
<polygon fill="#63b8ff" stroke="#63b8ff" points="4580.44,-152.88 4570.49,-156.51 4580.54,-159.88 4580.44,-152.88"/>
</g>
<!-- Node105 -->
<g id="node50" class="node">
<title>Node105</title>
<g id="a_node50"><a xlink:href="d__meter2__info_8cpp.html" target="_top" xlink:title=" ">
<polygon fill="white" stroke="#666666" points="5789,-107 5679,-107 5679,-77 5789,-77 5789,-107"/>
<text text-anchor="start" x="5687" y="-95" font-family="Helvetica,sans-Serif" font-size="10.00">src/d/meter/d_meter2</text>
<text text-anchor="middle" x="5734" y="-84" font-family="Helvetica,sans-Serif" font-size="10.00">_info.cpp</text>
</a>
</g>
</g>
<!-- Node1&#45;&gt;Node105 -->
<g id="edge50" class="edge">
<title>Node1&#45;&gt;Node105</title>
<path fill="none" stroke="#63b8ff" d="M4580.22,-155.77C4784.08,-151.32 5455.99,-134.85 5670,-107 5672.82,-106.63 5675.7,-106.2 5678.6,-105.73"/>
<polygon fill="#63b8ff" stroke="#63b8ff" points="4580.32,-152.27 4570.4,-155.98 4580.47,-159.26 4580.32,-152.27"/>
</g>
<!-- Node3 -->
<g id="node3" class="node">
<title>Node3</title>
<g id="a_node3"><a xlink:href="dolphin__trk__glue_8h.html" target="_top" xlink:title=" ">
<polygon fill="#fff0f0" stroke="red" points="118,-41 0,-41 0,0 118,0 118,-41"/>
<text text-anchor="start" x="8" y="-29" font-family="Helvetica,sans-Serif" font-size="10.00">include/TRK_MINNOW</text>
<text text-anchor="start" x="8" y="-18" font-family="Helvetica,sans-Serif" font-size="10.00">_DOLPHIN/Os/dolphin</text>
<text text-anchor="middle" x="59" y="-7" font-family="Helvetica,sans-Serif" font-size="10.00">/dolphin_trk_glue.h</text>
</a>
</g>
</g>
<!-- Node2&#45;&gt;Node3 -->
<g id="edge2" class="edge">
<title>Node2&#45;&gt;Node3</title>
<path fill="none" stroke="#63b8ff" d="M2327.71,-90.52C1966.69,-87.95 348.58,-74.63 127,-41 124.09,-40.56 121.12,-40.03 118.14,-39.43"/>
<polygon fill="#63b8ff" stroke="#63b8ff" points="2327.49,-94.02 2337.51,-90.59 2327.54,-87.02 2327.49,-94.02"/>
</g>
<!-- Node5 -->
<g id="node4" class="node">
<title>Node5</title>
<g id="a_node4"><a xlink:href="J2DAnimation_8cpp.html" target="_top" xlink:title=" ">
<polygon fill="white" stroke="#666666" points="255.5,-35.5 136.5,-35.5 136.5,-5.5 255.5,-5.5 255.5,-35.5"/>
<text text-anchor="start" x="144.5" y="-23.5" font-family="Helvetica,sans-Serif" font-size="10.00">libs/JSystem/J2DGraph</text>
<text text-anchor="middle" x="196" y="-12.5" font-family="Helvetica,sans-Serif" font-size="10.00">/J2DAnimation.cpp</text>
</a>
</g>
</g>
<!-- Node2&#45;&gt;Node5 -->
<g id="edge3" class="edge">
<title>Node2&#45;&gt;Node5</title>
<path fill="none" stroke="#63b8ff" d="M2327.89,-90.4C1980.74,-87.31 472.33,-72.21 265,-41 257.12,-39.81 248.87,-38 240.92,-35.95"/>
<polygon fill="#63b8ff" stroke="#63b8ff" points="2327.72,-93.9 2337.75,-90.48 2327.78,-86.9 2327.72,-93.9"/>
</g>
<!-- Node6 -->
<g id="node5" class="node">
<title>Node6</title>
<g id="a_node5"><a xlink:href="J3DModel_8cpp.html" target="_top" xlink:title=" ">
<polygon fill="white" stroke="#666666" points="432,-35.5 274,-35.5 274,-5.5 432,-5.5 432,-35.5"/>
<text text-anchor="start" x="282" y="-23.5" font-family="Helvetica,sans-Serif" font-size="10.00">libs/JSystem/J3DGraphAnimator</text>
<text text-anchor="middle" x="353" y="-12.5" font-family="Helvetica,sans-Serif" font-size="10.00">/J3DModel.cpp</text>
</a>
</g>
</g>
<!-- Node2&#45;&gt;Node6 -->
<g id="edge4" class="edge">
<title>Node2&#45;&gt;Node6</title>
<path fill="none" stroke="#63b8ff" d="M2328.07,-91.02C2022.51,-90.81 817.14,-87.04 441,-41 431.21,-39.8 420.92,-38.01 410.95,-36"/>
<polygon fill="#63b8ff" stroke="#63b8ff" points="2327.89,-94.52 2337.89,-91.02 2327.89,-87.52 2327.89,-94.52"/>
</g>
<!-- Node7 -->
<g id="node6" class="node">
<title>Node7</title>
<g id="a_node6"><a xlink:href="J3DModelData_8cpp.html" target="_top" xlink:title=" ">
<polygon fill="white" stroke="#666666" points="608,-35.5 450,-35.5 450,-5.5 608,-5.5 608,-35.5"/>
<text text-anchor="start" x="458" y="-23.5" font-family="Helvetica,sans-Serif" font-size="10.00">libs/JSystem/J3DGraphAnimator</text>
<text text-anchor="middle" x="529" y="-12.5" font-family="Helvetica,sans-Serif" font-size="10.00">/J3DModelData.cpp</text>
</a>
</g>
</g>
<!-- Node2&#45;&gt;Node7 -->
<g id="edge5" class="edge">
<title>Node2&#45;&gt;Node7</title>
<path fill="none" stroke="#63b8ff" d="M2327.88,-90.81C2039.52,-89.75 956.67,-83.01 617,-41 607.22,-39.79 596.92,-37.99 586.95,-35.97"/>
<polygon fill="#63b8ff" stroke="#63b8ff" points="2327.48,-94.31 2337.5,-90.84 2327.51,-87.31 2327.48,-94.31"/>
</g>
<!-- Node8 -->
<g id="node7" class="node">
<title>Node8</title>
<g id="a_node7"><a xlink:href="J3DSkinDeform_8cpp.html" target="_top" xlink:title=" ">
<polygon fill="white" stroke="#666666" points="784,-35.5 626,-35.5 626,-5.5 784,-5.5 784,-35.5"/>
<text text-anchor="start" x="634" y="-23.5" font-family="Helvetica,sans-Serif" font-size="10.00">libs/JSystem/J3DGraphAnimator</text>
<text text-anchor="middle" x="705" y="-12.5" font-family="Helvetica,sans-Serif" font-size="10.00">/J3DSkinDeform.cpp</text>
</a>
</g>
</g>
<!-- Node2&#45;&gt;Node8 -->
<g id="edge6" class="edge">
<title>Node2&#45;&gt;Node8</title>
<path fill="none" stroke="#63b8ff" d="M2327.88,-90.55C2057.91,-88.58 1096.4,-79 793,-41 783.22,-39.77 772.92,-37.97 762.96,-35.95"/>
<polygon fill="#63b8ff" stroke="#63b8ff" points="2327.55,-94.05 2337.57,-90.62 2327.6,-87.05 2327.55,-94.05"/>
</g>
<!-- Node9 -->
<g id="node8" class="node">
<title>Node9</title>
<g id="a_node8"><a xlink:href="J3DMatBlock_8cpp.html" target="_top" xlink:title=" ">
<polygon fill="white" stroke="#666666" points="944,-35.5 802,-35.5 802,-5.5 944,-5.5 944,-35.5"/>
<text text-anchor="start" x="810" y="-23.5" font-family="Helvetica,sans-Serif" font-size="10.00">libs/JSystem/J3DGraphBase</text>
<text text-anchor="middle" x="873" y="-12.5" font-family="Helvetica,sans-Serif" font-size="10.00">/J3DMatBlock.cpp</text>
</a>
</g>
</g>
<!-- Node2&#45;&gt;Node9 -->
<g id="edge7" class="edge">
<title>Node2&#45;&gt;Node9</title>
<path fill="none" stroke="#63b8ff" d="M2327.91,-90.47C2075.52,-88.27 1223.2,-78.2 953,-41 944.08,-39.77 934.7,-37.97 925.64,-35.94"/>
<polygon fill="#63b8ff" stroke="#63b8ff" points="2327.58,-93.96 2337.61,-90.55 2327.64,-86.96 2327.58,-93.96"/>
</g>
<!-- Node10 -->
<g id="node9" class="node">
<title>Node10</title>
<g id="a_node9"><a xlink:href="J3DShape_8cpp.html" target="_top" xlink:title=" ">
<polygon fill="white" stroke="#666666" points="1104,-35.5 962,-35.5 962,-5.5 1104,-5.5 1104,-35.5"/>
<text text-anchor="start" x="970" y="-23.5" font-family="Helvetica,sans-Serif" font-size="10.00">libs/JSystem/J3DGraphBase</text>
<text text-anchor="middle" x="1033" y="-12.5" font-family="Helvetica,sans-Serif" font-size="10.00">/J3DShape.cpp</text>
</a>
</g>
</g>
<!-- Node2&#45;&gt;Node10 -->
<g id="edge8" class="edge">
<title>Node2&#45;&gt;Node10</title>
<path fill="none" stroke="#63b8ff" d="M2327.7,-90.11C2093.67,-86.88 1350.46,-74.22 1113,-41 1104.08,-39.75 1094.71,-37.94 1085.64,-35.91"/>
<polygon fill="#63b8ff" stroke="#63b8ff" points="2327.55,-93.61 2337.59,-90.24 2327.64,-86.61 2327.55,-93.61"/>
</g>
<!-- Node11 -->
<g id="node10" class="node">
<title>Node11</title>
<g id="a_node10"><a xlink:href="J3DSys_8cpp.html" target="_top" xlink:title=" ">
<polygon fill="white" stroke="#666666" points="1264,-35.5 1122,-35.5 1122,-5.5 1264,-5.5 1264,-35.5"/>
<text text-anchor="start" x="1130" y="-23.5" font-family="Helvetica,sans-Serif" font-size="10.00">libs/JSystem/J3DGraphBase</text>
<text text-anchor="middle" x="1193" y="-12.5" font-family="Helvetica,sans-Serif" font-size="10.00">/J3DSys.cpp</text>
</a>
</g>
</g>
<!-- Node2&#45;&gt;Node11 -->
<g id="edge9" class="edge">
<title>Node2&#45;&gt;Node11</title>
<path fill="none" stroke="#63b8ff" d="M2327.65,-89.65C2113.42,-85.31 1477.96,-70.25 1273,-41 1264.23,-39.75 1255.01,-37.96 1246.08,-35.97"/>
<polygon fill="#63b8ff" stroke="#63b8ff" points="2327.46,-93.15 2337.53,-89.85 2327.6,-86.15 2327.46,-93.15"/>
</g>
<!-- Node12 -->
<g id="node11" class="node">
<title>Node12</title>
<g id="a_node11"><a xlink:href="J3DClusterLoader_8cpp.html" target="_top" xlink:title=" ">
<polygon fill="white" stroke="#666666" points="1431.5,-35.5 1282.5,-35.5 1282.5,-5.5 1431.5,-5.5 1431.5,-35.5"/>
<text text-anchor="start" x="1290.5" y="-23.5" font-family="Helvetica,sans-Serif" font-size="10.00">libs/JSystem/J3DGraphLoader</text>
<text text-anchor="middle" x="1357" y="-12.5" font-family="Helvetica,sans-Serif" font-size="10.00">/J3DClusterLoader.cpp</text>
</a>
</g>
</g>
<!-- Node2&#45;&gt;Node12 -->
<g id="edge10" class="edge">
<title>Node2&#45;&gt;Node12</title>
<path fill="none" stroke="#63b8ff" d="M2328.1,-91.62C2168.58,-92.07 1769.63,-87.93 1440,-41 1431.06,-39.73 1421.67,-37.95 1412.55,-35.99"/>
<polygon fill="#63b8ff" stroke="#63b8ff" points="2327.66,-95.12 2337.65,-91.58 2327.64,-88.12 2327.66,-95.12"/>
</g>
<!-- Node13 -->
<g id="node12" class="node">
<title>Node13</title>
<g id="a_node12"><a xlink:href="J3DShapeFactory_8cpp.html" target="_top" xlink:title=" ">
<polygon fill="white" stroke="#666666" points="1598.5,-35.5 1449.5,-35.5 1449.5,-5.5 1598.5,-5.5 1598.5,-35.5"/>
<text text-anchor="start" x="1457.5" y="-23.5" font-family="Helvetica,sans-Serif" font-size="10.00">libs/JSystem/J3DGraphLoader</text>
<text text-anchor="middle" x="1524" y="-12.5" font-family="Helvetica,sans-Serif" font-size="10.00">/J3DShapeFactory.cpp</text>
</a>
</g>
</g>
<!-- Node2&#45;&gt;Node13 -->
<g id="edge11" class="edge">
<title>Node2&#45;&gt;Node13</title>
<path fill="none" stroke="#63b8ff" d="M2327.71,-90.49C2188.45,-88.63 1870.8,-80.03 1607,-41 1598.07,-39.68 1588.68,-37.88 1579.56,-35.91"/>
<polygon fill="#63b8ff" stroke="#63b8ff" points="2327.47,-93.99 2337.52,-90.62 2327.56,-86.99 2327.47,-93.99"/>
</g>
<!-- Node14 -->
<g id="node13" class="node">
<title>Node14</title>
<g id="a_node13"><a xlink:href="JASAudioThread_8cpp.html" target="_top" xlink:title=" ">
<polygon fill="white" stroke="#666666" points="1727.5,-35.5 1616.5,-35.5 1616.5,-5.5 1727.5,-5.5 1727.5,-35.5"/>
<text text-anchor="start" x="1624.5" y="-23.5" font-family="Helvetica,sans-Serif" font-size="10.00">libs/JSystem/JAudio2</text>
<text text-anchor="middle" x="1672" y="-12.5" font-family="Helvetica,sans-Serif" font-size="10.00">/JASAudioThread.cpp</text>
</a>
</g>
</g>
<!-- Node2&#45;&gt;Node14 -->
<g id="edge12" class="edge">
<title>Node2&#45;&gt;Node14</title>
<path fill="none" stroke="#63b8ff" d="M2328.07,-90.76C2206.03,-89.2 1948.94,-80.96 1736,-41 1729.04,-39.69 1721.76,-37.9 1714.71,-35.93"/>
<polygon fill="#63b8ff" stroke="#63b8ff" points="2327.9,-94.25 2337.94,-90.87 2327.98,-87.25 2327.9,-94.25"/>
</g>
<!-- Node15 -->
<g id="node14" class="node">
<title>Node15</title>
<g id="a_node14"><a xlink:href="JASProbe_8cpp.html" target="_top" xlink:title=" ">
<polygon fill="white" stroke="#666666" points="1856.5,-35.5 1745.5,-35.5 1745.5,-5.5 1856.5,-5.5 1856.5,-35.5"/>
<text text-anchor="start" x="1753.5" y="-23.5" font-family="Helvetica,sans-Serif" font-size="10.00">libs/JSystem/JAudio2</text>
<text text-anchor="middle" x="1801" y="-12.5" font-family="Helvetica,sans-Serif" font-size="10.00">/JASProbe.cpp</text>
</a>
</g>
</g>
<!-- Node2&#45;&gt;Node15 -->
<g id="edge13" class="edge">
<title>Node2&#45;&gt;Node15</title>
<path fill="none" stroke="#63b8ff" d="M2327.68,-88.9C2224.66,-84.84 2028.62,-73.24 1865,-41 1858.16,-39.65 1851.01,-37.87 1844.08,-35.92"/>
<polygon fill="#63b8ff" stroke="#63b8ff" points="2327.53,-92.4 2337.66,-89.28 2327.8,-85.4 2327.53,-92.4"/>
</g>
<!-- Node16 -->
<g id="node15" class="node">
<title>Node16</title>
<g id="a_node15"><a xlink:href="dsptask_8cpp.html" target="_top" xlink:title=" ">
<polygon fill="white" stroke="#666666" points="1985.5,-35.5 1874.5,-35.5 1874.5,-5.5 1985.5,-5.5 1985.5,-35.5"/>
<text text-anchor="start" x="1882.5" y="-23.5" font-family="Helvetica,sans-Serif" font-size="10.00">libs/JSystem/JAudio2</text>
<text text-anchor="middle" x="1930" y="-12.5" font-family="Helvetica,sans-Serif" font-size="10.00">/dsptask.cpp</text>
</a>
</g>
</g>
<!-- Node2&#45;&gt;Node16 -->
<g id="edge14" class="edge">
<title>Node2&#45;&gt;Node16</title>
<path fill="none" stroke="#63b8ff" d="M2328,-85.97C2246.65,-79.35 2109.66,-65.57 1994,-41 1987.41,-39.6 1980.52,-37.83 1973.81,-35.94"/>
<polygon fill="#63b8ff" stroke="#63b8ff" points="2327.35,-89.43 2337.59,-86.74 2327.91,-82.45 2327.35,-89.43"/>
</g>
<!-- Node17 -->
<g id="node16" class="node">
<title>Node17</title>
<g id="a_node16"><a xlink:href="osdsp_8cpp.html" target="_top" xlink:title=" ">
<polygon fill="white" stroke="#666666" points="2114.5,-35.5 2003.5,-35.5 2003.5,-5.5 2114.5,-5.5 2114.5,-35.5"/>
<text text-anchor="start" x="2011.5" y="-23.5" font-family="Helvetica,sans-Serif" font-size="10.00">libs/JSystem/JAudio2</text>
<text text-anchor="middle" x="2059" y="-12.5" font-family="Helvetica,sans-Serif" font-size="10.00">/osdsp.cpp</text>
</a>
</g>
</g>
<!-- Node2&#45;&gt;Node17 -->
<g id="edge15" class="edge">
<title>Node2&#45;&gt;Node17</title>
<path fill="none" stroke="#63b8ff" d="M2327.87,-80.3C2272.08,-71.38 2192.64,-57.48 2124,-41 2117.81,-39.51 2111.35,-37.79 2104.99,-35.99"/>
<polygon fill="#63b8ff" stroke="#63b8ff" points="2327.13,-83.73 2337.56,-81.84 2328.23,-76.82 2327.13,-83.73"/>
</g>
<!-- Node18 -->
<g id="node17" class="node">
<title>Node18</title>
<g id="a_node17"><a xlink:href="JFWDisplay_8cpp.html" target="_top" xlink:title=" ">
<polygon fill="white" stroke="#666666" points="2263,-35.5 2133,-35.5 2133,-5.5 2263,-5.5 2263,-35.5"/>
<text text-anchor="start" x="2141" y="-23.5" font-family="Helvetica,sans-Serif" font-size="10.00">libs/JSystem/JFramework</text>
<text text-anchor="middle" x="2198" y="-12.5" font-family="Helvetica,sans-Serif" font-size="10.00">/JFWDisplay.cpp</text>
</a>
</g>
</g>
<!-- Node2&#45;&gt;Node18 -->
<g id="edge16" class="edge">
<title>Node2&#45;&gt;Node18</title>
<path fill="none" stroke="#63b8ff" d="M2362.56,-78.4C2328,-66.45 2276.1,-48.51 2239.86,-35.97"/>
<polygon fill="#63b8ff" stroke="#63b8ff" points="2361.11,-81.6 2371.7,-81.56 2363.4,-74.99 2361.11,-81.6"/>
</g>
<!-- Node19 -->
<g id="node18" class="node">
<title>Node19</title>
<g id="a_node18"><a xlink:href="JKRAramPiece_8cpp.html" target="_top" xlink:title=" ">
<polygon fill="white" stroke="#666666" points="2390.5,-35.5 2281.5,-35.5 2281.5,-5.5 2390.5,-5.5 2390.5,-35.5"/>
<text text-anchor="start" x="2289.5" y="-23.5" font-family="Helvetica,sans-Serif" font-size="10.00">libs/JSystem/JKernel</text>
<text text-anchor="middle" x="2336" y="-12.5" font-family="Helvetica,sans-Serif" font-size="10.00">/JKRAramPiece.cpp</text>
</a>
</g>
</g>
<!-- Node2&#45;&gt;Node19 -->
<g id="edge17" class="edge">
<title>Node2&#45;&gt;Node19</title>
<path fill="none" stroke="#63b8ff" d="M2383.35,-73.74C2372.75,-62.04 2358.92,-46.78 2348.94,-35.77"/>
<polygon fill="#63b8ff" stroke="#63b8ff" points="2380.7,-76.02 2390,-81.08 2385.88,-71.32 2380.7,-76.02"/>
</g>
<!-- Node20 -->
<g id="node19" class="node">
<title>Node20</title>
<g id="a_node19"><a xlink:href="JKRDvdArchive_8cpp.html" target="_top" xlink:title=" ">
<polygon fill="white" stroke="#666666" points="2517.5,-35.5 2408.5,-35.5 2408.5,-5.5 2517.5,-5.5 2517.5,-35.5"/>
<text text-anchor="start" x="2416.5" y="-23.5" font-family="Helvetica,sans-Serif" font-size="10.00">libs/JSystem/JKernel</text>
<text text-anchor="middle" x="2463" y="-12.5" font-family="Helvetica,sans-Serif" font-size="10.00">/JKRDvdArchive.cpp</text>
</a>
</g>
</g>
<!-- Node2&#45;&gt;Node20 -->
<g id="edge18" class="edge">
<title>Node2&#45;&gt;Node20</title>
<path fill="none" stroke="#63b8ff" d="M2414.9,-73.74C2425.66,-62.04 2439.72,-46.78 2449.86,-35.77"/>
<polygon fill="#63b8ff" stroke="#63b8ff" points="2412.33,-71.36 2408.13,-81.08 2417.48,-76.1 2412.33,-71.36"/>
</g>
<!-- Node21 -->
<g id="node20" class="node">
<title>Node21</title>
<g id="a_node20"><a xlink:href="JKRHeap_8cpp.html" target="_top" xlink:title=" ">
<polygon fill="white" stroke="#666666" points="2644.5,-35.5 2535.5,-35.5 2535.5,-5.5 2644.5,-5.5 2644.5,-35.5"/>
<text text-anchor="start" x="2543.5" y="-23.5" font-family="Helvetica,sans-Serif" font-size="10.00">libs/JSystem/JKernel</text>
<text text-anchor="middle" x="2590" y="-12.5" font-family="Helvetica,sans-Serif" font-size="10.00">/JKRHeap.cpp</text>
</a>
</g>
</g>
<!-- Node2&#45;&gt;Node21 -->
<g id="edge19" class="edge">
<title>Node2&#45;&gt;Node21</title>
<path fill="none" stroke="#63b8ff" d="M2434.05,-78.25C2466.89,-66.3 2515.93,-48.45 2550.23,-35.97"/>
<polygon fill="#63b8ff" stroke="#63b8ff" points="2433.2,-74.83 2425,-81.54 2435.6,-81.41 2433.2,-74.83"/>
</g>
<!-- Node22 -->
<g id="node21" class="node">
<title>Node22</title>
<g id="a_node21"><a xlink:href="JPAChildShape_8cpp.html" target="_top" xlink:title=" ">
<polygon fill="white" stroke="#666666" points="2777,-35.5 2663,-35.5 2663,-5.5 2777,-5.5 2777,-35.5"/>
<text text-anchor="start" x="2671" y="-23.5" font-family="Helvetica,sans-Serif" font-size="10.00">libs/JSystem/JParticle</text>
<text text-anchor="middle" x="2720" y="-12.5" font-family="Helvetica,sans-Serif" font-size="10.00">/JPAChildShape.cpp</text>
</a>
</g>
</g>
<!-- Node2&#45;&gt;Node22 -->
<g id="edge20" class="edge">
<title>Node2&#45;&gt;Node22</title>
<path fill="none" stroke="#63b8ff" d="M2463.13,-80C2514.7,-70.77 2588.86,-56.62 2653,-41 2659.24,-39.48 2665.77,-37.76 2672.19,-35.97"/>
<polygon fill="#63b8ff" stroke="#63b8ff" points="2462.56,-76.55 2453.33,-81.75 2463.78,-83.44 2462.56,-76.55"/>
</g>
<!-- Node23 -->
<g id="node22" class="node">
<title>Node23</title>
<g id="a_node22"><a xlink:href="JPAExtraShape_8cpp.html" target="_top" xlink:title=" ">
<polygon fill="white" stroke="#666666" points="2909,-35.5 2795,-35.5 2795,-5.5 2909,-5.5 2909,-35.5"/>
<text text-anchor="start" x="2803" y="-23.5" font-family="Helvetica,sans-Serif" font-size="10.00">libs/JSystem/JParticle</text>
<text text-anchor="middle" x="2852" y="-12.5" font-family="Helvetica,sans-Serif" font-size="10.00">/JPAExtraShape.cpp</text>
</a>
</g>
</g>
<!-- Node2&#45;&gt;Node23 -->
<g id="edge21" class="edge">
<title>Node2&#45;&gt;Node23</title>
<path fill="none" stroke="#63b8ff" d="M2469.97,-85.24C2548.02,-78.11 2676.86,-64.02 2786,-41 2792.66,-39.59 2799.63,-37.85 2806.44,-35.98"/>
<polygon fill="#63b8ff" stroke="#63b8ff" points="2469.98,-81.72 2460.34,-86.1 2470.61,-88.69 2469.98,-81.72"/>
</g>
<!-- Node24 -->
<g id="node23" class="node">
<title>Node24</title>
<g id="a_node23"><a xlink:href="JUTConsole_8cpp.html" target="_top" xlink:title=" ">
<polygon fill="white" stroke="#666666" points="3033,-35.5 2927,-35.5 2927,-5.5 3033,-5.5 3033,-35.5"/>
<text text-anchor="start" x="2935" y="-23.5" font-family="Helvetica,sans-Serif" font-size="10.00">libs/JSystem/JUtility</text>
<text text-anchor="middle" x="2980" y="-12.5" font-family="Helvetica,sans-Serif" font-size="10.00">/JUTConsole.cpp</text>
</a>
</g>
</g>
<!-- Node2&#45;&gt;Node24 -->
<g id="edge22" class="edge">
<title>Node2&#45;&gt;Node24</title>
<path fill="none" stroke="#63b8ff" d="M2469.98,-88.84C2570.58,-84.73 2759.98,-73.1 2918,-41 2924.63,-39.65 2931.57,-37.87 2938.29,-35.92"/>
<polygon fill="#63b8ff" stroke="#63b8ff" points="2470.12,-85.34 2460.26,-89.23 2470.39,-92.33 2470.12,-85.34"/>
</g>
<!-- Node25 -->
<g id="node24" class="node">
<title>Node25</title>
<g id="a_node24"><a xlink:href="JUTException_8cpp.html" target="_top" xlink:title=" ">
<polygon fill="white" stroke="#666666" points="3157,-35.5 3051,-35.5 3051,-5.5 3157,-5.5 3157,-35.5"/>
<text text-anchor="start" x="3059" y="-23.5" font-family="Helvetica,sans-Serif" font-size="10.00">libs/JSystem/JUtility</text>
<text text-anchor="middle" x="3104" y="-12.5" font-family="Helvetica,sans-Serif" font-size="10.00">/JUTException.cpp</text>
</a>
</g>
</g>
<!-- Node2&#45;&gt;Node25 -->
<g id="edge23" class="edge">
<title>Node2&#45;&gt;Node25</title>
<path fill="none" stroke="#63b8ff" d="M2470.5,-90.71C2589.96,-89.06 2837.21,-80.63 3042,-41 3048.76,-39.69 3055.82,-37.9 3062.65,-35.93"/>
<polygon fill="#63b8ff" stroke="#63b8ff" points="2470.47,-87.21 2460.51,-90.84 2470.56,-94.21 2470.47,-87.21"/>
</g>
<!-- Node26 -->
<g id="node25" class="node">
<title>Node26</title>
<g id="a_node25"><a xlink:href="JUTPalette_8cpp.html" target="_top" xlink:title=" ">
<polygon fill="white" stroke="#666666" points="3281,-35.5 3175,-35.5 3175,-5.5 3281,-5.5 3281,-35.5"/>
<text text-anchor="start" x="3183" y="-23.5" font-family="Helvetica,sans-Serif" font-size="10.00">libs/JSystem/JUtility</text>
<text text-anchor="middle" x="3228" y="-12.5" font-family="Helvetica,sans-Serif" font-size="10.00">/JUTPalette.cpp</text>
</a>
</g>
</g>
<!-- Node2&#45;&gt;Node26 -->
<g id="edge24" class="edge">
<title>Node2&#45;&gt;Node26</title>
<path fill="none" stroke="#63b8ff" d="M2470.13,-88.54C2633.91,-82.53 3033.74,-65.74 3166,-41 3172.88,-39.71 3180.06,-37.91 3187,-35.91"/>
<polygon fill="#63b8ff" stroke="#63b8ff" points="2470.13,-85.04 2460.26,-88.9 2470.38,-92.03 2470.13,-85.04"/>
</g>
<!-- Node27 -->
<g id="node26" class="node">
<title>Node27</title>
<g id="a_node26"><a xlink:href="uart__console__io__gcn_8c.html" target="_top" xlink:title=" ">
<polygon fill="white" stroke="#666666" points="3433,-35.5 3299,-35.5 3299,-5.5 3433,-5.5 3433,-35.5"/>
<text text-anchor="start" x="3307" y="-23.5" font-family="Helvetica,sans-Serif" font-size="10.00">libs/MSL_C/PPC_EABI</text>
<text text-anchor="middle" x="3366" y="-12.5" font-family="Helvetica,sans-Serif" font-size="10.00">/Src/uart_console_io_gcn.c</text>
</a>
</g>
</g>
<!-- Node2&#45;&gt;Node27 -->
<g id="edge25" class="edge">
<title>Node2&#45;&gt;Node27</title>
<path fill="none" stroke="#63b8ff" d="M2470.27,-91.7C2622.01,-92.15 2987.83,-87.78 3290,-41 3298.21,-39.73 3306.82,-37.96 3315.18,-35.99"/>
<polygon fill="#63b8ff" stroke="#63b8ff" points="2470.38,-88.2 2460.37,-91.66 2470.35,-95.2 2470.38,-88.2"/>
</g>
<!-- Node28 -->
<g id="node27" class="node">
<title>Node28</title>
<g id="a_node27"><a xlink:href="GCN__Mem__Alloc_8c.html" target="_top" xlink:title=" ">
<polygon fill="white" stroke="#666666" points="3576.5,-35.5 3451.5,-35.5 3451.5,-5.5 3576.5,-5.5 3576.5,-35.5"/>
<text text-anchor="start" x="3459.5" y="-23.5" font-family="Helvetica,sans-Serif" font-size="10.00">libs/Runtime.PPCEABI.H</text>
<text text-anchor="middle" x="3514" y="-12.5" font-family="Helvetica,sans-Serif" font-size="10.00">/GCN_Mem_Alloc.c</text>
</a>
</g>
</g>
<!-- Node2&#45;&gt;Node28 -->
<g id="edge26" class="edge">
<title>Node2&#45;&gt;Node28</title>
<path fill="none" stroke="#63b8ff" d="M2470.29,-89.59C2673.67,-85.26 3254.15,-70.58 3442,-41 3449.93,-39.75 3458.24,-37.96 3466.29,-35.97"/>
<polygon fill="#63b8ff" stroke="#63b8ff" points="2470.31,-86.09 2460.39,-89.8 2470.46,-93.09 2470.31,-86.09"/>
</g>
<!-- Node29 -->
<g id="node28" class="node">
<title>Node29</title>
<g id="a_node28"><a xlink:href="Z2AudioMgr_8cpp.html" target="_top" xlink:title=" ">
<polygon fill="white" stroke="#666666" points="3753,-30 3595,-30 3595,-11 3753,-11 3753,-30"/>
<text text-anchor="middle" x="3674" y="-18" font-family="Helvetica,sans-Serif" font-size="10.00">libs/Z2AudioLib/Z2AudioMgr.cpp</text>
</a>
</g>
</g>
<!-- Node2&#45;&gt;Node29 -->
<g id="edge27" class="edge">
<title>Node2&#45;&gt;Node29</title>
<path fill="none" stroke="#63b8ff" d="M2470.35,-89.64C2692.26,-85.16 3368.38,-69.47 3586,-41 3604.15,-38.63 3624.1,-34.35 3640.4,-30.4"/>
<polygon fill="#63b8ff" stroke="#63b8ff" points="2470.32,-86.14 2460.4,-89.84 2470.46,-93.14 2470.32,-86.14"/>
</g>
<!-- Node30 -->
<g id="node29" class="node">
<title>Node30</title>
<g id="a_node29"><a xlink:href="Z2LinkMgr_8cpp.html" target="_top" xlink:title=" ">
<polygon fill="white" stroke="#666666" points="3923,-30 3771,-30 3771,-11 3923,-11 3923,-30"/>
<text text-anchor="middle" x="3847" y="-18" font-family="Helvetica,sans-Serif" font-size="10.00">libs/Z2AudioLib/Z2LinkMgr.cpp</text>
</a>
</g>
</g>
<!-- Node2&#45;&gt;Node30 -->
<g id="edge28" class="edge">
<title>Node2&#45;&gt;Node30</title>
<path fill="none" stroke="#63b8ff" d="M2470.4,-90.16C2713.61,-87.02 3508.65,-74.4 3762,-41 3779.56,-38.68 3798.83,-34.41 3814.57,-30.46"/>
<polygon fill="#63b8ff" stroke="#63b8ff" points="2470.37,-86.66 2460.41,-90.29 2470.46,-93.66 2470.37,-86.66"/>
</g>
<!-- Node31 -->
<g id="node30" class="node">
<title>Node31</title>
<g id="a_node30"><a xlink:href="Z2WolfHowlMgr_8cpp.html" target="_top" xlink:title=" ">
<polygon fill="white" stroke="#666666" points="4081,-35.5 3941,-35.5 3941,-5.5 4081,-5.5 4081,-35.5"/>
<text text-anchor="start" x="3949" y="-23.5" font-family="Helvetica,sans-Serif" font-size="10.00">libs/Z2AudioLib/Z2WolfHowl</text>
<text text-anchor="middle" x="4011" y="-12.5" font-family="Helvetica,sans-Serif" font-size="10.00">Mgr.cpp</text>
</a>
</g>
</g>
<!-- Node2&#45;&gt;Node31 -->
<g id="edge29" class="edge">
<title>Node2&#45;&gt;Node31</title>
<path fill="none" stroke="#63b8ff" d="M2469.93,-90.66C2731.81,-89.08 3643.98,-80.8 3932,-41 3940.82,-39.78 3950.08,-37.98 3959.03,-35.96"/>
<polygon fill="#63b8ff" stroke="#63b8ff" points="2470.18,-87.15 2460.2,-90.71 2470.22,-94.15 2470.18,-87.15"/>
</g>
<!-- Node32 -->
<g id="node31" class="node">
<title>Node32</title>
<g id="a_node31"><a xlink:href="ai_8c.html" target="_top" xlink:title=" ">
<polygon fill="white" stroke="#666666" points="4193,-30 4099,-30 4099,-11 4193,-11 4193,-30"/>
<text text-anchor="middle" x="4146" y="-18" font-family="Helvetica,sans-Serif" font-size="10.00">libs/dolphin/ai/ai.c</text>
</a>
</g>
</g>
<!-- Node2&#45;&gt;Node32 -->
<g id="edge30" class="edge">
<title>Node2&#45;&gt;Node32</title>
<path fill="none" stroke="#63b8ff" d="M2469.98,-90.18C2770.42,-86.52 3929.32,-70.62 4090,-41 4101.95,-38.8 4114.78,-34.48 4125.14,-30.47"/>
<polygon fill="#63b8ff" stroke="#63b8ff" points="2470.29,-86.67 2460.34,-90.29 2470.38,-93.67 2470.29,-86.67"/>
</g>
<!-- Node33 -->
<g id="node32" class="node">
<title>Node33</title>
<g id="a_node32"><a xlink:href="ar_8c.html" target="_top" xlink:title=" ">
<polygon fill="white" stroke="#666666" points="4306.5,-30 4211.5,-30 4211.5,-11 4306.5,-11 4306.5,-30"/>
<text text-anchor="middle" x="4259" y="-18" font-family="Helvetica,sans-Serif" font-size="10.00">libs/dolphin/ar/ar.c</text>
</a>
</g>
</g>
<!-- Node2&#45;&gt;Node33 -->
<g id="edge31" class="edge">
<title>Node2&#45;&gt;Node33</title>
<path fill="none" stroke="#63b8ff" d="M2470,-90.3C2782.77,-87.02 4029.73,-72.11 4202,-41 4214.15,-38.81 4227.2,-34.49 4237.75,-30.48"/>
<polygon fill="#63b8ff" stroke="#63b8ff" points="2470.32,-86.79 2460.35,-90.4 2470.39,-93.79 2470.32,-86.79"/>
</g>
<!-- Node2&#45;&gt;Node44 -->
<g id="edge32" class="edge">
<title>Node2&#45;&gt;Node44</title>
<path fill="none" stroke="#63b8ff" d="M2469.88,-90.12C2794.45,-85.98 4130.9,-67.44 4316,-41 4331.52,-38.78 4348.45,-34.47 4362.2,-30.46"/>
<polygon fill="#63b8ff" stroke="#63b8ff" points="2470.24,-86.62 2460.28,-90.25 2470.32,-93.62 2470.24,-86.62"/>
</g>
</g>
</svg>
        <g id="navigator" transform="translate(0 0)" fill="#404254">
                <rect fill="#f2f5e9" fill-opacity="0.5" stroke="#606060" stroke-width=".5" x="0" y="0" width="60" height="60"/>
                <use id="zoomplus" xlink:href="#zoomPlus" x="17" y="9" onmousedown="handleZoom(evt,'in')"/>
                <use id="zoomminus" xlink:href="#zoomMin" x="42" y="9" onmousedown="handleZoom(evt,'out')"/>
                <use id="reset" xlink:href="#resetDef" x="30" y="36" onmousedown="handleReset()"/>
                <g id="arrowUp" xlink:href="#dirArrow" transform="translate(30 24)" onmousedown="handlePan(0,-1)">
                  <use xlink:href="#rim" fill="#404040">
                        <set attributeName="fill" to="#808080" begin="arrowUp.mouseover" end="arrowUp.mouseout"/>
                  </use>
                  <path fill="none" stroke="white" stroke-width="1.5" d="M0,-3.0v7 M-2.5,-0.5L0,-3.0L2.5,-0.5"/>
                </g>
                <g id="arrowRight" xlink:href="#dirArrow" transform="rotate(90) translate(36 -43)" onmousedown="handlePan(1,0)">
                  <use xlink:href="#rim" fill="#404040">
                        <set attributeName="fill" to="#808080" begin="arrowRight.mouseover" end="arrowRight.mouseout"/>
                  </use>
                  <path fill="none" stroke="white" stroke-width="1.5" d="M0,-3.0v7 M-2.5,-0.5L0,-3.0L2.5,-0.5"/>
                </g>
                <g id="arrowDown" xlink:href="#dirArrow" transform="rotate(180) translate(-30 -48)" onmousedown="handlePan(0,1)">
                  <use xlink:href="#rim" fill="#404040">
                        <set attributeName="fill" to="#808080" begin="arrowDown.mouseover" end="arrowDown.mouseout"/>
                  </use>
                  <path fill="none" stroke="white" stroke-width="1.5" d="M0,-3.0v7 M-2.5,-0.5L0,-3.0L2.5,-0.5"/>
                </g>
                <g id="arrowLeft" xlink:href="#dirArrow" transform="rotate(270) translate(-36 17)" onmousedown="handlePan(-1,0)">
                  <use xlink:href="#rim" fill="#404040">
                        <set attributeName="fill" to="#808080" begin="arrowLeft.mouseover" end="arrowLeft.mouseout"/>
                  </use>
                  <path fill="none" stroke="white" stroke-width="1.5" d="M0,-3.0v7 M-2.5,-0.5L0,-3.0L2.5,-0.5"/>
                </g>
        </g>
        <svg viewBox="0 0 15 15" width="100%" height="30px" preserveAspectRatio="xMaxYMin meet">
         <g id="arrow_out" transform="scale(0.3 0.3)">
          <a xlink:href="OSCache_8h__dep__incl_org.svg" target="_base">
           <rect id="button" ry="5" rx="5" y="6" x="6" height="38" width="38"
                fill="#f2f5e9" fill-opacity="0.5" stroke="#606060" stroke-width="1.0"/>
           <path id="arrow"
             d="M 11.500037,31.436501 C 11.940474,20.09759 22.043105,11.32322 32.158766,21.979434 L 37.068811,17.246167 C 37.068811,17.246167 37.088388,32 37.088388,32 L 22.160133,31.978069 C 22.160133,31.978069 26.997745,27.140456 26.997745,27.140456 C 18.528582,18.264221 13.291696,25.230495 11.500037,31.436501 z"
             style="fill:#404040;"/>
          </a>
         </g>
        </svg>
</svg>
