<?xml version="1.0" encoding="UTF-8" standalone="no"?>
<!DOCTYPE svg PUBLIC "-//W3C//DTD SVG 1.1//EN"
 "http://www.w3.org/Graphics/SVG/1.1/DTD/svg11.dtd">
<!-- Generated by graphviz version 7.0.5 (20221223.1930)
 -->
<!-- Title: include/dolphin/os/OSContext.h Pages: 1 -->
<!--zoomable 236 -->
<svg id="main" version="1.1" xmlns="http://www.w3.org/2000/svg" xmlns:xlink="http://www.w3.org/1999/xlink" xml:space="preserve" onload="init(evt)">
<style type="text/css"><![CDATA[
.edge:hover path { stroke: red; }
.edge:hover polygon { stroke: red; fill: red; }
]]></style>
<script type="text/javascript"><![CDATA[
var edges = document.getElementsByTagName('g');
if (edges && edges.length) {
  for (var i=0;i<edges.length;i++) {
    if (edges[i].id.substr(0,4)=='edge') {
      edges[i].setAttribute('class','edge');
    }
  }
}
]]></script>
        <defs>
                <circle id="rim" cx="0" cy="0" r="7"/>
                <circle id="rim2" cx="0" cy="0" r="3.5"/>
                <g id="zoomPlus">
                        <use xlink:href="#rim" fill="#404040">
                                <set attributeName="fill" to="#808080" begin="zoomplus.mouseover" end="zoomplus.mouseout"/>
                        </use>
                        <path d="M-4,0h8M0,-4v8" fill="none" stroke="white" stroke-width="1.5" pointer-events="none"/>
                </g>
                <g id="zoomMin">
                        <use xlink:href="#rim" fill="#404040">
                                <set attributeName="fill" to="#808080" begin="zoomminus.mouseover" end="zoomminus.mouseout"/>
                        </use>
                        <path d="M-4,0h8" fill="none" stroke="white" stroke-width="1.5" pointer-events="none"/>
                </g>
                <g id="dirArrow">
                        <path fill="none" stroke="white" stroke-width="1.5" d="M0,-3.0v7 M-2.5,-0.5L0,-3.0L2.5,-0.5"/>
                </g>
               <g id="resetDef">
                       <use xlink:href="#rim2" fill="#404040">
                               <set attributeName="fill" to="#808080" begin="reset.mouseover" end="reset.mouseout"/>
                       </use>
               </g>
        </defs>

<script type="text/javascript">
var viewWidth = 6496;
var viewHeight = 236;
var sectionId = 'dynsection-1';
</script>
<script xlink:href="svgpan.js"/>
<svg id="graph" class="graph">
<g id="viewport">
<title>include/dolphin/os/OSContext.h</title>
<!-- Node1 -->
<g id="node1" class="node">
<title>Node1</title>
<g id="a_node1"><a xlink:title=" ">
<polygon fill="#999999" stroke="#666666" points="3496.5,-228 3401.5,-228 3401.5,-198 3496.5,-198 3496.5,-228"/>
<text text-anchor="start" x="3409.5" y="-216" font-family="Helvetica,sans-Serif" font-size="10.00">include/dolphin/os</text>
<text text-anchor="middle" x="3449" y="-205" font-family="Helvetica,sans-Serif" font-size="10.00">/OSContext.h</text>
</a>
</g>
</g>
<!-- Node2 -->
<g id="node2" class="node">
<title>Node2</title>
<g id="a_node2"><a xlink:href="OS_8h.html" target="_top" xlink:title=" ">
<polygon fill="#fff0f0" stroke="red" points="3356.5,-96 3237.5,-96 3237.5,-77 3356.5,-77 3356.5,-96"/>
<text text-anchor="middle" x="3297" y="-84" font-family="Helvetica,sans-Serif" font-size="10.00">include/dolphin/os/OS.h</text>
</a>
</g>
</g>
<!-- Node1&#45;&gt;Node2 -->
<g id="edge1" class="edge">
<title>Node1&#45;&gt;Node2</title>
<path fill="none" stroke="#63b8ff" d="M3390.26,-202.61C3364.16,-195.57 3335.08,-183.3 3316,-162 3299.08,-143.11 3296.81,-111.22 3296.76,-96.04"/>
<polygon fill="#63b8ff" stroke="#63b8ff" points="3389.21,-205.95 3399.76,-204.95 3390.89,-199.16 3389.21,-205.95"/>
</g>
<!-- Node45 -->
<g id="node44" class="node">
<title>Node45</title>
<g id="a_node44"><a xlink:href="OSContext_8c.html" target="_top" xlink:title=" ">
<polygon fill="white" stroke="#666666" points="6487.5,-30 6350.5,-30 6350.5,-11 6487.5,-11 6487.5,-30"/>
<text text-anchor="middle" x="6419" y="-18" font-family="Helvetica,sans-Serif" font-size="10.00">libs/dolphin/os/OSContext.c</text>
</a>
</g>
</g>
<!-- Node1&#45;&gt;Node45 -->
<g id="edge51" class="edge">
<title>Node1&#45;&gt;Node45</title>
<path fill="none" stroke="#63b8ff" d="M3447.94,-186.46C3448.7,-168.27 3453.08,-144.84 3469,-132 3593.25,-31.78 6182.89,-63.01 6341,-41 6357.31,-38.73 6375.16,-34.41 6389.66,-30.41"/>
<polygon fill="#63b8ff" stroke="#63b8ff" points="3444.44,-186.23 3447.89,-196.25 3451.44,-186.27 3444.44,-186.23"/>
</g>
<!-- Node89 -->
<g id="node48" class="node">
<title>Node89</title>
<g id="a_node48"><a xlink:href="OSThread_8h.html" target="_top" xlink:title=" ">
<polygon fill="#fff0f0" stroke="red" points="3420.5,-162 3325.5,-162 3325.5,-132 3420.5,-132 3420.5,-162"/>
<text text-anchor="start" x="3333.5" y="-150" font-family="Helvetica,sans-Serif" font-size="10.00">include/dolphin/os</text>
<text text-anchor="middle" x="3373" y="-139" font-family="Helvetica,sans-Serif" font-size="10.00">/OSThread.h</text>
</a>
</g>
</g>
<!-- Node1&#45;&gt;Node89 -->
<g id="edge47" class="edge">
<title>Node1&#45;&gt;Node89</title>
<path fill="none" stroke="#63b8ff" d="M3423.38,-190.42C3412.41,-181.18 3399.89,-170.65 3390.08,-162.39"/>
<polygon fill="#63b8ff" stroke="#63b8ff" points="3421.07,-193.06 3430.98,-196.82 3425.58,-187.7 3421.07,-193.06"/>
</g>
<!-- Node629 -->
<g id="node49" class="node">
<title>Node629</title>
<g id="a_node49"><a xlink:href="osdsp__task_8cpp.html" target="_top" xlink:title=" ">
<polygon fill="white" stroke="#666666" points="3588.5,-162 3477.5,-162 3477.5,-132 3588.5,-132 3588.5,-162"/>
<text text-anchor="start" x="3485.5" y="-150" font-family="Helvetica,sans-Serif" font-size="10.00">libs/JSystem/JAudio2</text>
<text text-anchor="middle" x="3533" y="-139" font-family="Helvetica,sans-Serif" font-size="10.00">/osdsp_task.cpp</text>
</a>
</g>
</g>
<!-- Node1&#45;&gt;Node629 -->
<g id="edge49" class="edge">
<title>Node1&#45;&gt;Node629</title>
<path fill="none" stroke="#63b8ff" d="M3476.6,-190.97C3488.89,-181.61 3503.06,-170.81 3514.12,-162.39"/>
<polygon fill="#63b8ff" stroke="#63b8ff" points="3474.68,-188.03 3468.85,-196.88 3478.92,-193.6 3474.68,-188.03"/>
</g>
<!-- Node630 -->
<g id="node50" class="node">
<title>Node630</title>
<g id="a_node50"><a xlink:href="dvdlow_8c.html" target="_top" xlink:title=" ">
<polygon fill="white" stroke="#666666" points="3731.5,-156.5 3606.5,-156.5 3606.5,-137.5 3731.5,-137.5 3731.5,-156.5"/>
<text text-anchor="middle" x="3669" y="-144.5" font-family="Helvetica,sans-Serif" font-size="10.00">libs/dolphin/dvd/dvdlow.c</text>
</a>
</g>
</g>
<!-- Node1&#45;&gt;Node630 -->
<g id="edge50" class="edge">
<title>Node1&#45;&gt;Node630</title>
<path fill="none" stroke="#63b8ff" d="M3507.67,-194.93C3549.68,-182.71 3604.58,-166.74 3638.29,-156.93"/>
<polygon fill="#63b8ff" stroke="#63b8ff" points="3506.81,-191.54 3498.19,-197.69 3508.77,-198.26 3506.81,-191.54"/>
</g>
<!-- Node3 -->
<g id="node3" class="node">
<title>Node3</title>
<g id="a_node3"><a xlink:href="dolphin__trk__glue_8h.html" target="_top" xlink:title=" ">
<polygon fill="#fff0f0" stroke="red" points="118,-41 0,-41 0,0 118,0 118,-41"/>
<text text-anchor="start" x="8" y="-29" font-family="Helvetica,sans-Serif" font-size="10.00">include/TRK_MINNOW</text>
<text text-anchor="start" x="8" y="-18" font-family="Helvetica,sans-Serif" font-size="10.00">_DOLPHIN/Os/dolphin</text>
<text text-anchor="middle" x="59" y="-7" font-family="Helvetica,sans-Serif" font-size="10.00">/dolphin_trk_glue.h</text>
</a>
</g>
</g>
<!-- Node2&#45;&gt;Node3 -->
<g id="edge2" class="edge">
<title>Node2&#45;&gt;Node3</title>
<path fill="none" stroke="#63b8ff" d="M3225.94,-85.63C2786.05,-86.3 442.56,-87.61 127,-41 124.08,-40.57 121.12,-40.05 118.13,-39.46"/>
<polygon fill="#63b8ff" stroke="#63b8ff" points="3225.68,-89.13 3235.68,-85.62 3225.67,-82.13 3225.68,-89.13"/>
</g>
<!-- Node5 -->
<g id="node4" class="node">
<title>Node5</title>
<g id="a_node4"><a xlink:href="J2DAnimation_8cpp.html" target="_top" xlink:title=" ">
<polygon fill="white" stroke="#666666" points="255.5,-35.5 136.5,-35.5 136.5,-5.5 255.5,-5.5 255.5,-35.5"/>
<text text-anchor="start" x="144.5" y="-23.5" font-family="Helvetica,sans-Serif" font-size="10.00">libs/JSystem/J2DGraph</text>
<text text-anchor="middle" x="196" y="-12.5" font-family="Helvetica,sans-Serif" font-size="10.00">/J2DAnimation.cpp</text>
</a>
</g>
</g>
<!-- Node2&#45;&gt;Node5 -->
<g id="edge3" class="edge">
<title>Node2&#45;&gt;Node5</title>
<path fill="none" stroke="#63b8ff" d="M3226,-85.57C2797.63,-85.82 566.18,-85 265,-41 256.99,-39.83 248.6,-38 240.54,-35.91"/>
<polygon fill="#63b8ff" stroke="#63b8ff" points="3225.75,-89.07 3235.75,-85.56 3225.74,-82.07 3225.75,-89.07"/>
</g>
<!-- Node6 -->
<g id="node5" class="node">
<title>Node6</title>
<g id="a_node5"><a xlink:href="J3DModel_8cpp.html" target="_top" xlink:title=" ">
<polygon fill="white" stroke="#666666" points="432,-35.5 274,-35.5 274,-5.5 432,-5.5 432,-35.5"/>
<text text-anchor="start" x="282" y="-23.5" font-family="Helvetica,sans-Serif" font-size="10.00">libs/JSystem/J3DGraphAnimator</text>
<text text-anchor="middle" x="353" y="-12.5" font-family="Helvetica,sans-Serif" font-size="10.00">/J3DModel.cpp</text>
</a>
</g>
</g>
<!-- Node2&#45;&gt;Node6 -->
<g id="edge4" class="edge">
<title>Node2&#45;&gt;Node6</title>
<path fill="none" stroke="#63b8ff" d="M3225.6,-85.25C2811.28,-83.7 724.7,-74.29 441,-41 431.05,-39.83 420.58,-38.03 410.46,-35.98"/>
<polygon fill="#63b8ff" stroke="#63b8ff" points="3225.55,-88.75 3235.57,-85.29 3225.58,-81.75 3225.55,-88.75"/>
</g>
<!-- Node7 -->
<g id="node6" class="node">
<title>Node7</title>
<g id="a_node6"><a xlink:href="J3DModelData_8cpp.html" target="_top" xlink:title=" ">
<polygon fill="white" stroke="#666666" points="608,-35.5 450,-35.5 450,-5.5 608,-5.5 608,-35.5"/>
<text text-anchor="start" x="458" y="-23.5" font-family="Helvetica,sans-Serif" font-size="10.00">libs/JSystem/J3DGraphAnimator</text>
<text text-anchor="middle" x="529" y="-12.5" font-family="Helvetica,sans-Serif" font-size="10.00">/J3DModelData.cpp</text>
</a>
</g>
</g>
<!-- Node2&#45;&gt;Node7 -->
<g id="edge5" class="edge">
<title>Node2&#45;&gt;Node7</title>
<path fill="none" stroke="#63b8ff" d="M3225.89,-85.18C2827.64,-83.25 882.28,-72.27 617,-41 607.05,-39.83 596.58,-38.02 586.47,-35.97"/>
<polygon fill="#63b8ff" stroke="#63b8ff" points="3225.69,-88.67 3235.71,-85.22 3225.72,-81.67 3225.69,-88.67"/>
</g>
<!-- Node8 -->
<g id="node7" class="node">
<title>Node8</title>
<g id="a_node7"><a xlink:href="J3DSkinDeform_8cpp.html" target="_top" xlink:title=" ">
<polygon fill="white" stroke="#666666" points="784,-35.5 626,-35.5 626,-5.5 784,-5.5 784,-35.5"/>
<text text-anchor="start" x="634" y="-23.5" font-family="Helvetica,sans-Serif" font-size="10.00">libs/JSystem/J3DGraphAnimator</text>
<text text-anchor="middle" x="705" y="-12.5" font-family="Helvetica,sans-Serif" font-size="10.00">/J3DSkinDeform.cpp</text>
</a>
</g>
</g>
<!-- Node2&#45;&gt;Node8 -->
<g id="edge6" class="edge">
<title>Node2&#45;&gt;Node8</title>
<path fill="none" stroke="#63b8ff" d="M3225.72,-85.09C2842.99,-82.75 1039.79,-70.24 793,-41 783.05,-39.82 772.58,-38.01 762.47,-35.96"/>
<polygon fill="#63b8ff" stroke="#63b8ff" points="3225.62,-88.58 3235.64,-85.15 3225.67,-81.58 3225.62,-88.58"/>
</g>
<!-- Node9 -->
<g id="node8" class="node">
<title>Node9</title>
<g id="a_node8"><a xlink:href="J3DMatBlock_8cpp.html" target="_top" xlink:title=" ">
<polygon fill="white" stroke="#666666" points="944,-35.5 802,-35.5 802,-5.5 944,-5.5 944,-35.5"/>
<text text-anchor="start" x="810" y="-23.5" font-family="Helvetica,sans-Serif" font-size="10.00">libs/JSystem/J3DGraphBase</text>
<text text-anchor="middle" x="873" y="-12.5" font-family="Helvetica,sans-Serif" font-size="10.00">/J3DMatBlock.cpp</text>
</a>
</g>
</g>
<!-- Node2&#45;&gt;Node9 -->
<g id="edge7" class="edge">
<title>Node2&#45;&gt;Node9</title>
<path fill="none" stroke="#63b8ff" d="M3225.87,-85.08C2858.34,-82.8 1182.78,-70.82 953,-41 943.93,-39.82 934.39,-38.02 925.19,-35.97"/>
<polygon fill="#63b8ff" stroke="#63b8ff" points="3225.58,-88.58 3235.61,-85.14 3225.63,-81.58 3225.58,-88.58"/>
</g>
<!-- Node10 -->
<g id="node9" class="node">
<title>Node10</title>
<g id="a_node9"><a xlink:href="J3DShape_8cpp.html" target="_top" xlink:title=" ">
<polygon fill="white" stroke="#666666" points="1104,-35.5 962,-35.5 962,-5.5 1104,-5.5 1104,-35.5"/>
<text text-anchor="start" x="970" y="-23.5" font-family="Helvetica,sans-Serif" font-size="10.00">libs/JSystem/J3DGraphBase</text>
<text text-anchor="middle" x="1033" y="-12.5" font-family="Helvetica,sans-Serif" font-size="10.00">/J3DShape.cpp</text>
</a>
</g>
</g>
<!-- Node2&#45;&gt;Node10 -->
<g id="edge8" class="edge">
<title>Node2&#45;&gt;Node10</title>
<path fill="none" stroke="#63b8ff" d="M3225.95,-84.98C2874.05,-82.26 1326.1,-68.8 1113,-41 1103.93,-39.82 1094.39,-38.01 1085.19,-35.96"/>
<polygon fill="#63b8ff" stroke="#63b8ff" points="3225.7,-88.47 3235.72,-85.05 3225.75,-81.47 3225.7,-88.47"/>
</g>
<!-- Node11 -->
<g id="node10" class="node">
<title>Node11</title>
<g id="a_node10"><a xlink:href="J3DSys_8cpp.html" target="_top" xlink:title=" ">
<polygon fill="white" stroke="#666666" points="1264,-35.5 1122,-35.5 1122,-5.5 1264,-5.5 1264,-35.5"/>
<text text-anchor="start" x="1130" y="-23.5" font-family="Helvetica,sans-Serif" font-size="10.00">libs/JSystem/J3DGraphBase</text>
<text text-anchor="middle" x="1193" y="-12.5" font-family="Helvetica,sans-Serif" font-size="10.00">/J3DSys.cpp</text>
</a>
</g>
</g>
<!-- Node2&#45;&gt;Node11 -->
<g id="edge9" class="edge">
<title>Node2&#45;&gt;Node11</title>
<path fill="none" stroke="#63b8ff" d="M3226.03,-84.85C2890.28,-81.67 1469.46,-66.79 1273,-41 1263.93,-39.81 1254.39,-37.99 1245.19,-35.94"/>
<polygon fill="#63b8ff" stroke="#63b8ff" points="3225.5,-88.35 3235.53,-84.94 3225.57,-81.35 3225.5,-88.35"/>
</g>
<!-- Node12 -->
<g id="node11" class="node">
<title>Node12</title>
<g id="a_node11"><a xlink:href="J3DClusterLoader_8cpp.html" target="_top" xlink:title=" ">
<polygon fill="white" stroke="#666666" points="1431.5,-35.5 1282.5,-35.5 1282.5,-5.5 1431.5,-5.5 1431.5,-35.5"/>
<text text-anchor="start" x="1290.5" y="-23.5" font-family="Helvetica,sans-Serif" font-size="10.00">libs/JSystem/J3DGraphLoader</text>
<text text-anchor="middle" x="1357" y="-12.5" font-family="Helvetica,sans-Serif" font-size="10.00">/J3DClusterLoader.cpp</text>
</a>
</g>
</g>
<!-- Node2&#45;&gt;Node12 -->
<g id="edge10" class="edge">
<title>Node2&#45;&gt;Node12</title>
<path fill="none" stroke="#63b8ff" d="M3225.86,-85.76C2929.89,-86.54 1794.92,-86.45 1440,-41 1430.6,-39.8 1420.72,-37.98 1411.17,-35.92"/>
<polygon fill="#63b8ff" stroke="#63b8ff" points="3225.77,-89.26 3235.76,-85.73 3225.75,-82.26 3225.77,-89.26"/>
</g>
<!-- Node13 -->
<g id="node12" class="node">
<title>Node13</title>
<g id="a_node12"><a xlink:href="J3DShapeFactory_8cpp.html" target="_top" xlink:title=" ">
<polygon fill="white" stroke="#666666" points="1598.5,-35.5 1449.5,-35.5 1449.5,-5.5 1598.5,-5.5 1598.5,-35.5"/>
<text text-anchor="start" x="1457.5" y="-23.5" font-family="Helvetica,sans-Serif" font-size="10.00">libs/JSystem/J3DGraphLoader</text>
<text text-anchor="middle" x="1524" y="-12.5" font-family="Helvetica,sans-Serif" font-size="10.00">/J3DShapeFactory.cpp</text>
</a>
</g>
</g>
<!-- Node2&#45;&gt;Node13 -->
<g id="edge11" class="edge">
<title>Node2&#45;&gt;Node13</title>
<path fill="none" stroke="#63b8ff" d="M3225.89,-85.56C2946.99,-85.51 1927.48,-82.42 1607,-41 1597.6,-39.79 1587.72,-37.96 1578.18,-35.9"/>
<polygon fill="#63b8ff" stroke="#63b8ff" points="3225.54,-89.06 3235.54,-85.56 3225.54,-82.06 3225.54,-89.06"/>
</g>
<!-- Node14 -->
<g id="node13" class="node">
<title>Node14</title>
<g id="a_node13"><a xlink:href="JASAudioThread_8cpp.html" target="_top" xlink:title=" ">
<polygon fill="white" stroke="#666666" points="1727.5,-35.5 1616.5,-35.5 1616.5,-5.5 1727.5,-5.5 1727.5,-35.5"/>
<text text-anchor="start" x="1624.5" y="-23.5" font-family="Helvetica,sans-Serif" font-size="10.00">libs/JSystem/JAudio2</text>
<text text-anchor="middle" x="1672" y="-12.5" font-family="Helvetica,sans-Serif" font-size="10.00">/JASAudioThread.cpp</text>
</a>
</g>
</g>
<!-- Node2&#45;&gt;Node14 -->
<g id="edge12" class="edge">
<title>Node2&#45;&gt;Node14</title>
<path fill="none" stroke="#63b8ff" d="M3225.6,-85.99C2959.87,-87.42 2028.48,-88.84 1736,-41 1728.66,-39.8 1721,-37.98 1713.62,-35.93"/>
<polygon fill="#63b8ff" stroke="#63b8ff" points="3225.51,-89.49 3235.49,-85.94 3225.47,-82.49 3225.51,-89.49"/>
</g>
<!-- Node15 -->
<g id="node14" class="node">
<title>Node15</title>
<g id="a_node14"><a xlink:href="JASProbe_8cpp.html" target="_top" xlink:title=" ">
<polygon fill="white" stroke="#666666" points="1856.5,-35.5 1745.5,-35.5 1745.5,-5.5 1856.5,-5.5 1856.5,-35.5"/>
<text text-anchor="start" x="1753.5" y="-23.5" font-family="Helvetica,sans-Serif" font-size="10.00">libs/JSystem/JAudio2</text>
<text text-anchor="middle" x="1801" y="-12.5" font-family="Helvetica,sans-Serif" font-size="10.00">/JASProbe.cpp</text>
</a>
</g>
</g>
<!-- Node2&#45;&gt;Node15 -->
<g id="edge13" class="edge">
<title>Node2&#45;&gt;Node15</title>
<path fill="none" stroke="#63b8ff" d="M3225.72,-85.77C2974.52,-86.35 2131.19,-84.89 1865,-41 1857.67,-39.79 1850,-37.97 1842.62,-35.91"/>
<polygon fill="#63b8ff" stroke="#63b8ff" points="3225.73,-89.27 3235.72,-85.75 3225.71,-82.27 3225.73,-89.27"/>
</g>
<!-- Node16 -->
<g id="node15" class="node">
<title>Node16</title>
<g id="a_node15"><a xlink:href="dsptask_8cpp.html" target="_top" xlink:title=" ">
<polygon fill="white" stroke="#666666" points="1985.5,-35.5 1874.5,-35.5 1874.5,-5.5 1985.5,-5.5 1985.5,-35.5"/>
<text text-anchor="start" x="1882.5" y="-23.5" font-family="Helvetica,sans-Serif" font-size="10.00">libs/JSystem/JAudio2</text>
<text text-anchor="middle" x="1930" y="-12.5" font-family="Helvetica,sans-Serif" font-size="10.00">/dsptask.cpp</text>
</a>
</g>
</g>
<!-- Node2&#45;&gt;Node16 -->
<g id="edge14" class="edge">
<title>Node2&#45;&gt;Node16</title>
<path fill="none" stroke="#63b8ff" d="M3225.84,-85.52C2989.79,-85.18 2234,-80.95 1994,-41 1986.78,-39.8 1979.24,-38.01 1971.97,-35.99"/>
<polygon fill="#63b8ff" stroke="#63b8ff" points="3225.5,-89.02 3235.5,-85.53 3225.51,-82.02 3225.5,-89.02"/>
</g>
<!-- Node17 -->
<g id="node16" class="node">
<title>Node17</title>
<g id="a_node16"><a xlink:href="osdsp_8cpp.html" target="_top" xlink:title=" ">
<polygon fill="white" stroke="#666666" points="2114.5,-35.5 2003.5,-35.5 2003.5,-5.5 2114.5,-5.5 2114.5,-35.5"/>
<text text-anchor="start" x="2011.5" y="-23.5" font-family="Helvetica,sans-Serif" font-size="10.00">libs/JSystem/JAudio2</text>
<text text-anchor="middle" x="2059" y="-12.5" font-family="Helvetica,sans-Serif" font-size="10.00">/osdsp.cpp</text>
</a>
</g>
</g>
<!-- Node2&#45;&gt;Node17 -->
<g id="edge15" class="edge">
<title>Node2&#45;&gt;Node17</title>
<path fill="none" stroke="#63b8ff" d="M3225.63,-85.16C3005.27,-83.73 2337.67,-76.51 2124,-41 2116.68,-39.78 2109.02,-37.98 2101.64,-35.96"/>
<polygon fill="#63b8ff" stroke="#63b8ff" points="3225.49,-88.66 3235.51,-85.22 3225.53,-81.66 3225.49,-88.66"/>
</g>
<!-- Node18 -->
<g id="node17" class="node">
<title>Node18</title>
<g id="a_node17"><a xlink:href="JFWDisplay_8cpp.html" target="_top" xlink:title=" ">
<polygon fill="white" stroke="#666666" points="2263,-35.5 2133,-35.5 2133,-5.5 2263,-5.5 2263,-35.5"/>
<text text-anchor="start" x="2141" y="-23.5" font-family="Helvetica,sans-Serif" font-size="10.00">libs/JSystem/JFramework</text>
<text text-anchor="middle" x="2198" y="-12.5" font-family="Helvetica,sans-Serif" font-size="10.00">/JFWDisplay.cpp</text>
</a>
</g>
</g>
<!-- Node2&#45;&gt;Node18 -->
<g id="edge16" class="edge">
<title>Node2&#45;&gt;Node18</title>
<path fill="none" stroke="#63b8ff" d="M3225.9,-84.39C3025.11,-80.96 2456.41,-68.97 2272,-41 2263.86,-39.76 2255.32,-37.98 2247.05,-35.99"/>
<polygon fill="#63b8ff" stroke="#63b8ff" points="3225.6,-87.89 3235.66,-84.56 3225.72,-80.89 3225.6,-87.89"/>
</g>
<!-- Node19 -->
<g id="node18" class="node">
<title>Node19</title>
<g id="a_node18"><a xlink:href="JKRAramPiece_8cpp.html" target="_top" xlink:title=" ">
<polygon fill="white" stroke="#666666" points="2390.5,-35.5 2281.5,-35.5 2281.5,-5.5 2390.5,-5.5 2390.5,-35.5"/>
<text text-anchor="start" x="2289.5" y="-23.5" font-family="Helvetica,sans-Serif" font-size="10.00">libs/JSystem/JKernel</text>
<text text-anchor="middle" x="2336" y="-12.5" font-family="Helvetica,sans-Serif" font-size="10.00">/JKRAramPiece.cpp</text>
</a>
</g>
</g>
<!-- Node2&#45;&gt;Node19 -->
<g id="edge17" class="edge">
<title>Node2&#45;&gt;Node19</title>
<path fill="none" stroke="#63b8ff" d="M3225.62,-84.27C3042.12,-80.73 2557.29,-68.96 2399,-41 2392.01,-39.77 2384.71,-37.98 2377.66,-36"/>
<polygon fill="#63b8ff" stroke="#63b8ff" points="3225.43,-87.77 3235.49,-84.46 3225.56,-80.77 3225.43,-87.77"/>
</g>
<!-- Node20 -->
<g id="node19" class="node">
<title>Node20</title>
<g id="a_node19"><a xlink:href="JKRDvdArchive_8cpp.html" target="_top" xlink:title=" ">
<polygon fill="white" stroke="#666666" points="2517.5,-35.5 2408.5,-35.5 2408.5,-5.5 2517.5,-5.5 2517.5,-35.5"/>
<text text-anchor="start" x="2416.5" y="-23.5" font-family="Helvetica,sans-Serif" font-size="10.00">libs/JSystem/JKernel</text>
<text text-anchor="middle" x="2463" y="-12.5" font-family="Helvetica,sans-Serif" font-size="10.00">/JKRDvdArchive.cpp</text>
</a>
</g>
</g>
<!-- Node2&#45;&gt;Node20 -->
<g id="edge18" class="edge">
<title>Node2&#45;&gt;Node20</title>
<path fill="none" stroke="#63b8ff" d="M3225.81,-83.6C3061.39,-78.84 2659.11,-65.07 2526,-41 2519.01,-39.74 2511.72,-37.94 2504.67,-35.95"/>
<polygon fill="#63b8ff" stroke="#63b8ff" points="3225.62,-87.09 3235.72,-83.88 3225.82,-80.1 3225.62,-87.09"/>
</g>
<!-- Node21 -->
<g id="node20" class="node">
<title>Node21</title>
<g id="a_node20"><a xlink:href="JKRHeap_8cpp.html" target="_top" xlink:title=" ">
<polygon fill="white" stroke="#666666" points="2644.5,-35.5 2535.5,-35.5 2535.5,-5.5 2644.5,-5.5 2644.5,-35.5"/>
<text text-anchor="start" x="2543.5" y="-23.5" font-family="Helvetica,sans-Serif" font-size="10.00">libs/JSystem/JKernel</text>
<text text-anchor="middle" x="2590" y="-12.5" font-family="Helvetica,sans-Serif" font-size="10.00">/JKRHeap.cpp</text>
</a>
</g>
</g>
<!-- Node2&#45;&gt;Node21 -->
<g id="edge19" class="edge">
<title>Node2&#45;&gt;Node21</title>
<path fill="none" stroke="#63b8ff" d="M3225.54,-85.81C3106.16,-85.16 2859,-78.82 2654,-41 2647.03,-39.71 2639.75,-37.93 2632.7,-35.97"/>
<polygon fill="#63b8ff" stroke="#63b8ff" points="3225.51,-89.31 3235.53,-85.85 3225.54,-82.31 3225.51,-89.31"/>
</g>
<!-- Node22 -->
<g id="node21" class="node">
<title>Node22</title>
<g id="a_node21"><a xlink:href="JPAChildShape_8cpp.html" target="_top" xlink:title=" ">
<polygon fill="white" stroke="#666666" points="2777,-35.5 2663,-35.5 2663,-5.5 2777,-5.5 2777,-35.5"/>
<text text-anchor="start" x="2671" y="-23.5" font-family="Helvetica,sans-Serif" font-size="10.00">libs/JSystem/JParticle</text>
<text text-anchor="middle" x="2720" y="-12.5" font-family="Helvetica,sans-Serif" font-size="10.00">/JPAChildShape.cpp</text>
</a>
</g>
</g>
<!-- Node2&#45;&gt;Node22 -->
<g id="edge20" class="edge">
<title>Node2&#45;&gt;Node22</title>
<path fill="none" stroke="#63b8ff" d="M3225.68,-83.79C3126.35,-80.39 2941.07,-70.35 2786,-41 2778.96,-39.67 2771.59,-37.89 2764.44,-35.94"/>
<polygon fill="#63b8ff" stroke="#63b8ff" points="3225.45,-87.28 3235.56,-84.11 3225.68,-80.29 3225.45,-87.28"/>
</g>
<!-- Node23 -->
<g id="node22" class="node">
<title>Node23</title>
<g id="a_node22"><a xlink:href="JPAExtraShape_8cpp.html" target="_top" xlink:title=" ">
<polygon fill="white" stroke="#666666" points="2909,-35.5 2795,-35.5 2795,-5.5 2909,-5.5 2909,-35.5"/>
<text text-anchor="start" x="2803" y="-23.5" font-family="Helvetica,sans-Serif" font-size="10.00">libs/JSystem/JParticle</text>
<text text-anchor="middle" x="2852" y="-12.5" font-family="Helvetica,sans-Serif" font-size="10.00">/JPAExtraShape.cpp</text>
</a>
</g>
</g>
<!-- Node2&#45;&gt;Node23 -->
<g id="edge21" class="edge">
<title>Node2&#45;&gt;Node23</title>
<path fill="none" stroke="#63b8ff" d="M3225.68,-80.77C3149.07,-74.84 3024.03,-62.72 2918,-41 2911.21,-39.61 2904.11,-37.85 2897.19,-35.95"/>
<polygon fill="#63b8ff" stroke="#63b8ff" points="3225.35,-84.25 3235.58,-81.52 3225.88,-77.27 3225.35,-84.25"/>
</g>
<!-- Node24 -->
<g id="node23" class="node">
<title>Node24</title>
<g id="a_node23"><a xlink:href="JUTConsole_8cpp.html" target="_top" xlink:title=" ">
<polygon fill="white" stroke="#666666" points="3033,-35.5 2927,-35.5 2927,-5.5 3033,-5.5 3033,-35.5"/>
<text text-anchor="start" x="2935" y="-23.5" font-family="Helvetica,sans-Serif" font-size="10.00">libs/JSystem/JUtility</text>
<text text-anchor="middle" x="2980" y="-12.5" font-family="Helvetica,sans-Serif" font-size="10.00">/JUTConsole.cpp</text>
</a>
</g>
</g>
<!-- Node2&#45;&gt;Node24 -->
<g id="edge22" class="edge">
<title>Node2&#45;&gt;Node24</title>
<path fill="none" stroke="#63b8ff" d="M3225.71,-75.64C3174.28,-67.9 3103.4,-55.94 3042,-41 3035.97,-39.53 3029.67,-37.8 3023.49,-35.97"/>
<polygon fill="#63b8ff" stroke="#63b8ff" points="3225.13,-79.09 3235.53,-77.1 3226.16,-72.16 3225.13,-79.09"/>
</g>
<!-- Node25 -->
<g id="node24" class="node">
<title>Node25</title>
<g id="a_node24"><a xlink:href="JUTException_8cpp.html" target="_top" xlink:title=" ">
<polygon fill="white" stroke="#666666" points="3157,-35.5 3051,-35.5 3051,-5.5 3157,-5.5 3157,-35.5"/>
<text text-anchor="start" x="3059" y="-23.5" font-family="Helvetica,sans-Serif" font-size="10.00">libs/JSystem/JUtility</text>
<text text-anchor="middle" x="3104" y="-12.5" font-family="Helvetica,sans-Serif" font-size="10.00">/JUTException.cpp</text>
</a>
</g>
</g>
<!-- Node2&#45;&gt;Node25 -->
<g id="edge23" class="edge">
<title>Node2&#45;&gt;Node25</title>
<path fill="none" stroke="#63b8ff" d="M3259.46,-73.05C3227.43,-62.43 3181.34,-47.15 3147.66,-35.98"/>
<polygon fill="#63b8ff" stroke="#63b8ff" points="3258.13,-76.3 3268.73,-76.12 3260.34,-69.65 3258.13,-76.3"/>
</g>
<!-- Node26 -->
<g id="node25" class="node">
<title>Node26</title>
<g id="a_node25"><a xlink:href="JUTPalette_8cpp.html" target="_top" xlink:title=" ">
<polygon fill="white" stroke="#666666" points="3281,-35.5 3175,-35.5 3175,-5.5 3281,-5.5 3281,-35.5"/>
<text text-anchor="start" x="3183" y="-23.5" font-family="Helvetica,sans-Serif" font-size="10.00">libs/JSystem/JUtility</text>
<text text-anchor="middle" x="3228" y="-12.5" font-family="Helvetica,sans-Serif" font-size="10.00">/JUTPalette.cpp</text>
</a>
</g>
</g>
<!-- Node2&#45;&gt;Node26 -->
<g id="edge24" class="edge">
<title>Node2&#45;&gt;Node26</title>
<path fill="none" stroke="#63b8ff" d="M3279.01,-68.81C3268.02,-58.62 3254.12,-45.73 3243.61,-35.98"/>
<polygon fill="#63b8ff" stroke="#63b8ff" points="3276.58,-71.34 3286.3,-75.57 3281.34,-66.21 3276.58,-71.34"/>
</g>
<!-- Node27 -->
<g id="node26" class="node">
<title>Node27</title>
<g id="a_node26"><a xlink:href="uart__console__io__gcn_8c.html" target="_top" xlink:title=" ">
<polygon fill="white" stroke="#666666" points="3433,-35.5 3299,-35.5 3299,-5.5 3433,-5.5 3433,-35.5"/>
<text text-anchor="start" x="3307" y="-23.5" font-family="Helvetica,sans-Serif" font-size="10.00">libs/MSL_C/PPC_EABI</text>
<text text-anchor="middle" x="3366" y="-12.5" font-family="Helvetica,sans-Serif" font-size="10.00">/Src/uart_console_io_gcn.c</text>
</a>
</g>
</g>
<!-- Node2&#45;&gt;Node27 -->
<g id="edge25" class="edge">
<title>Node2&#45;&gt;Node27</title>
<path fill="none" stroke="#63b8ff" d="M3314.99,-68.81C3325.98,-58.62 3339.88,-45.73 3350.39,-35.98"/>
<polygon fill="#63b8ff" stroke="#63b8ff" points="3312.66,-66.21 3307.7,-75.57 3317.42,-71.34 3312.66,-66.21"/>
</g>
<!-- Node28 -->
<g id="node27" class="node">
<title>Node28</title>
<g id="a_node27"><a xlink:href="GCN__Mem__Alloc_8c.html" target="_top" xlink:title=" ">
<polygon fill="white" stroke="#666666" points="3576.5,-35.5 3451.5,-35.5 3451.5,-5.5 3576.5,-5.5 3576.5,-35.5"/>
<text text-anchor="start" x="3459.5" y="-23.5" font-family="Helvetica,sans-Serif" font-size="10.00">libs/Runtime.PPCEABI.H</text>
<text text-anchor="middle" x="3514" y="-12.5" font-family="Helvetica,sans-Serif" font-size="10.00">/GCN_Mem_Alloc.c</text>
</a>
</g>
</g>
<!-- Node2&#45;&gt;Node28 -->
<g id="edge26" class="edge">
<title>Node2&#45;&gt;Node28</title>
<path fill="none" stroke="#63b8ff" d="M3337.8,-73.47C3373.86,-62.83 3426.55,-47.29 3464.91,-35.98"/>
<polygon fill="#63b8ff" stroke="#63b8ff" points="3337.23,-69.99 3328.62,-76.17 3339.21,-76.7 3337.23,-69.99"/>
</g>
<!-- Node29 -->
<g id="node28" class="node">
<title>Node29</title>
<g id="a_node28"><a xlink:href="Z2AudioMgr_8cpp.html" target="_top" xlink:title=" ">
<polygon fill="white" stroke="#666666" points="3753,-30 3595,-30 3595,-11 3753,-11 3753,-30"/>
<text text-anchor="middle" x="3674" y="-18" font-family="Helvetica,sans-Serif" font-size="10.00">libs/Z2AudioLib/Z2AudioMgr.cpp</text>
</a>
</g>
</g>
<!-- Node2&#45;&gt;Node29 -->
<g id="edge27" class="edge">
<title>Node2&#45;&gt;Node29</title>
<path fill="none" stroke="#63b8ff" d="M3368.33,-75.84C3426.96,-67.58 3512.09,-54.86 3586,-41 3602.46,-37.91 3620.53,-34 3635.99,-30.49"/>
<polygon fill="#63b8ff" stroke="#63b8ff" points="3367.89,-72.37 3358.47,-77.22 3368.86,-79.3 3367.89,-72.37"/>
</g>
<!-- Node30 -->
<g id="node29" class="node">
<title>Node30</title>
<g id="a_node29"><a xlink:href="Z2LinkMgr_8cpp.html" target="_top" xlink:title=" ">
<polygon fill="white" stroke="#666666" points="3923,-30 3771,-30 3771,-11 3923,-11 3923,-30"/>
<text text-anchor="middle" x="3847" y="-18" font-family="Helvetica,sans-Serif" font-size="10.00">libs/Z2AudioLib/Z2LinkMgr.cpp</text>
</a>
</g>
</g>
<!-- Node2&#45;&gt;Node30 -->
<g id="edge28" class="edge">
<title>Node2&#45;&gt;Node30</title>
<path fill="none" stroke="#63b8ff" d="M3368.33,-79.82C3479.28,-70.79 3688.16,-52.95 3762,-41 3778.74,-38.29 3797.1,-34.22 3812.46,-30.5"/>
<polygon fill="#63b8ff" stroke="#63b8ff" points="3368.12,-76.32 3358.43,-80.62 3368.68,-83.3 3368.12,-76.32"/>
</g>
<!-- Node31 -->
<g id="node30" class="node">
<title>Node31</title>
<g id="a_node30"><a xlink:href="Z2WolfHowlMgr_8cpp.html" target="_top" xlink:title=" ">
<polygon fill="white" stroke="#666666" points="4081,-35.5 3941,-35.5 3941,-5.5 4081,-5.5 4081,-35.5"/>
<text text-anchor="start" x="3949" y="-23.5" font-family="Helvetica,sans-Serif" font-size="10.00">libs/Z2AudioLib/Z2WolfHowl</text>
<text text-anchor="middle" x="4011" y="-12.5" font-family="Helvetica,sans-Serif" font-size="10.00">Mgr.cpp</text>
</a>
</g>
</g>
<!-- Node2&#45;&gt;Node31 -->
<g id="edge29" class="edge">
<title>Node2&#45;&gt;Node31</title>
<path fill="none" stroke="#63b8ff" d="M3368.13,-80.84C3528.11,-70.33 3904.55,-45.32 3932,-41 3940.37,-39.68 3949.16,-37.91 3957.71,-35.97"/>
<polygon fill="#63b8ff" stroke="#63b8ff" points="3368.25,-77.33 3358.5,-81.48 3368.71,-84.31 3368.25,-77.33"/>
</g>
<!-- Node32 -->
<g id="node31" class="node">
<title>Node32</title>
<g id="a_node31"><a xlink:href="ai_8c.html" target="_top" xlink:title=" ">
<polygon fill="white" stroke="#666666" points="4193,-30 4099,-30 4099,-11 4193,-11 4193,-30"/>
<text text-anchor="middle" x="4146" y="-18" font-family="Helvetica,sans-Serif" font-size="10.00">libs/dolphin/ai/ai.c</text>
</a>
</g>
</g>
<!-- Node2&#45;&gt;Node32 -->
<g id="edge30" class="edge">
<title>Node2&#45;&gt;Node32</title>
<path fill="none" stroke="#63b8ff" d="M3368.12,-81.03C3389.61,-79.7 3413.27,-78.27 3435,-77 3726.06,-60.04 3803.97,-97.49 4090,-41 4101.82,-38.67 4114.53,-34.39 4124.85,-30.44"/>
<polygon fill="#63b8ff" stroke="#63b8ff" points="3368.05,-77.53 3358.28,-81.64 3368.48,-84.51 3368.05,-77.53"/>
</g>
<!-- Node33 -->
<g id="node32" class="node">
<title>Node33</title>
<g id="a_node32"><a xlink:href="ar_8c.html" target="_top" xlink:title=" ">
<polygon fill="white" stroke="#666666" points="4306.5,-30 4211.5,-30 4211.5,-11 4306.5,-11 4306.5,-30"/>
<text text-anchor="middle" x="4259" y="-18" font-family="Helvetica,sans-Serif" font-size="10.00">libs/dolphin/ar/ar.c</text>
</a>
</g>
</g>
<!-- Node2&#45;&gt;Node33 -->
<g id="edge31" class="edge">
<title>Node2&#45;&gt;Node33</title>
<path fill="none" stroke="#63b8ff" d="M3368.12,-80.92C3389.6,-79.59 3413.26,-78.18 3435,-77 3775.76,-58.51 3866.77,-104.87 4202,-41 4214.02,-38.71 4226.96,-34.44 4237.47,-30.48"/>
<polygon fill="#63b8ff" stroke="#63b8ff" points="3368.04,-77.42 3358.27,-81.53 3368.47,-84.4 3368.04,-77.42"/>
</g>
<!-- Node34 -->
<g id="node33" class="node">
<title>Node34</title>
<g id="a_node33"><a xlink:href="CARDBios_8c.html" target="_top" xlink:title=" ">
<polygon fill="white" stroke="#666666" points="4469,-30 4325,-30 4325,-11 4469,-11 4469,-30"/>
<text text-anchor="middle" x="4397" y="-18" font-family="Helvetica,sans-Serif" font-size="10.00">libs/dolphin/card/CARDBios.c</text>
</a>
</g>
</g>
<!-- Node2&#45;&gt;Node34 -->
<g id="edge32" class="edge">
<title>Node2&#45;&gt;Node34</title>
<path fill="none" stroke="#63b8ff" d="M3368.11,-80.84C3389.6,-79.51 3413.26,-78.11 3435,-77 3826.37,-56.95 3927.87,-95.12 4316,-41 4332.76,-38.66 4351.12,-34.39 4366.12,-30.44"/>
<polygon fill="#63b8ff" stroke="#63b8ff" points="3368.03,-77.34 3358.27,-81.45 3368.47,-84.32 3368.03,-77.34"/>
</g>
<!-- Node35 -->
<g id="node34" class="node">
<title>Node35</title>
<g id="a_node34"><a xlink:href="CARDUnlock_8c.html" target="_top" xlink:title=" ">
<polygon fill="white" stroke="#666666" points="4642.5,-30 4487.5,-30 4487.5,-11 4642.5,-11 4642.5,-30"/>
<text text-anchor="middle" x="4565" y="-18" font-family="Helvetica,sans-Serif" font-size="10.00">libs/dolphin/card/CARDUnlock.c</text>
</a>
</g>
</g>
<!-- Node2&#45;&gt;Node35 -->
<g id="edge33" class="edge">
<title>Node2&#45;&gt;Node35</title>
<path fill="none" stroke="#63b8ff" d="M3368.11,-80.75C3389.59,-79.42 3413.25,-78.04 3435,-77 3898.3,-54.74 4017.93,-99.98 4478,-41 4495.96,-38.7 4515.68,-34.43 4531.79,-30.47"/>
<polygon fill="#63b8ff" stroke="#63b8ff" points="3368.03,-77.25 3358.27,-81.37 3368.47,-84.24 3368.03,-77.25"/>
</g>
<!-- Node36 -->
<g id="node35" class="node">
<title>Node36</title>
<g id="a_node35"><a xlink:href="db_8c.html" target="_top" xlink:title=" ">
<polygon fill="white" stroke="#666666" points="4761,-30 4661,-30 4661,-11 4761,-11 4761,-30"/>
<text text-anchor="middle" x="4711" y="-18" font-family="Helvetica,sans-Serif" font-size="10.00">libs/dolphin/db/db.c</text>
</a>
</g>
</g>
<!-- Node2&#45;&gt;Node36 -->
<g id="edge34" class="edge">
<title>Node2&#45;&gt;Node36</title>
<path fill="none" stroke="#63b8ff" d="M3368.1,-80.68C3389.59,-79.35 3413.25,-77.99 3435,-77 3705.28,-64.68 4385.54,-87.94 4652,-41 4664.54,-38.79 4678.05,-34.48 4688.98,-30.46"/>
<polygon fill="#63b8ff" stroke="#63b8ff" points="3368.02,-77.18 3358.26,-81.31 3368.46,-84.17 3368.02,-77.18"/>
</g>
<!-- Node37 -->
<g id="node36" class="node">
<title>Node37</title>
<g id="a_node36"><a xlink:href="dvd_8c.html" target="_top" xlink:title=" ">
<polygon fill="white" stroke="#666666" points="4889,-30 4779,-30 4779,-11 4889,-11 4889,-30"/>
<text text-anchor="middle" x="4834" y="-18" font-family="Helvetica,sans-Serif" font-size="10.00">libs/dolphin/dvd/dvd.c</text>
</a>
</g>
</g>
<!-- Node2&#45;&gt;Node37 -->
<g id="edge35" class="edge">
<title>Node2&#45;&gt;Node37</title>
<path fill="none" stroke="#63b8ff" d="M3368.1,-80.65C3389.59,-79.31 3413.25,-77.96 3435,-77 3731.48,-63.88 4477.08,-88.68 4770,-41 4783.53,-38.8 4798.18,-34.48 4810.05,-30.47"/>
<polygon fill="#63b8ff" stroke="#63b8ff" points="3368.02,-77.15 3358.26,-81.27 3368.46,-84.13 3368.02,-77.15"/>
</g>
<!-- Node38 -->
<g id="node37" class="node">
<title>Node38</title>
<g id="a_node37"><a xlink:href="dvdfs_8c.html" target="_top" xlink:title=" ">
<polygon fill="white" stroke="#666666" points="5026.5,-30 4907.5,-30 4907.5,-11 5026.5,-11 5026.5,-30"/>
<text text-anchor="middle" x="4967" y="-18" font-family="Helvetica,sans-Serif" font-size="10.00">libs/dolphin/dvd/dvdfs.c</text>
</a>
</g>
</g>
<!-- Node2&#45;&gt;Node38 -->
<g id="edge36" class="edge">
<title>Node2&#45;&gt;Node38</title>
<path fill="none" stroke="#63b8ff" d="M3368.1,-80.62C3389.59,-79.28 3413.25,-77.94 3435,-77 3759.91,-63 4576.44,-89.6 4898,-41 4912.52,-38.8 4928.32,-34.49 4941.13,-30.48"/>
<polygon fill="#63b8ff" stroke="#63b8ff" points="3368.02,-77.12 3358.26,-81.24 3368.46,-84.1 3368.02,-77.12"/>
</g>
<!-- Node39 -->
<g id="node38" class="node">
<title>Node39</title>
<g id="a_node38"><a xlink:href="fstload_8c.html" target="_top" xlink:title=" ">
<polygon fill="white" stroke="#666666" points="5169,-30 5045,-30 5045,-11 5169,-11 5169,-30"/>
<text text-anchor="middle" x="5107" y="-18" font-family="Helvetica,sans-Serif" font-size="10.00">libs/dolphin/dvd/fstload.c</text>
</a>
</g>
</g>
<!-- Node2&#45;&gt;Node39 -->
<g id="edge37" class="edge">
<title>Node2&#45;&gt;Node39</title>
<path fill="none" stroke="#63b8ff" d="M3368.1,-80.59C3389.59,-79.25 3413.25,-77.91 3435,-77 3790.55,-62.06 4683.88,-92.51 5036,-41 5050.92,-38.82 5067.18,-34.5 5080.36,-30.49"/>
<polygon fill="#63b8ff" stroke="#63b8ff" points="3368.02,-77.09 3358.26,-81.21 3368.46,-84.07 3368.02,-77.09"/>
</g>
<!-- Node40 -->
<g id="node39" class="node">
<title>Node40</title>
<g id="a_node39"><a xlink:href="EXIBios_8c.html" target="_top" xlink:title=" ">
<polygon fill="white" stroke="#666666" points="5313,-30 5187,-30 5187,-11 5313,-11 5313,-30"/>
<text text-anchor="middle" x="5250" y="-18" font-family="Helvetica,sans-Serif" font-size="10.00">libs/dolphin/exi/EXIBios.c</text>
</a>
</g>
</g>
<!-- Node2&#45;&gt;Node40 -->
<g id="edge38" class="edge">
<title>Node2&#45;&gt;Node40</title>
<path fill="none" stroke="#63b8ff" d="M3368.1,-80.56C3389.59,-79.22 3413.25,-77.89 3435,-77 3822.09,-61.09 4794.51,-96.05 5178,-41 5193.13,-38.83 5209.61,-34.52 5222.98,-30.5"/>
<polygon fill="#63b8ff" stroke="#63b8ff" points="3368.02,-77.06 3358.26,-81.19 3368.46,-84.05 3368.02,-77.06"/>
</g>
<!-- Node41 -->
<g id="node40" class="node">
<title>Node41</title>
<g id="a_node40"><a xlink:href="EXIUart_8c.html" target="_top" xlink:title=" ">
<polygon fill="white" stroke="#666666" points="5456.5,-30 5331.5,-30 5331.5,-11 5456.5,-11 5456.5,-30"/>
<text text-anchor="middle" x="5394" y="-18" font-family="Helvetica,sans-Serif" font-size="10.00">libs/dolphin/exi/EXIUart.c</text>
</a>
</g>
</g>
<!-- Node2&#45;&gt;Node41 -->
<g id="edge39" class="edge">
<title>Node2&#45;&gt;Node41</title>
<path fill="none" stroke="#63b8ff" d="M3368.1,-80.54C3389.58,-79.2 3413.25,-77.88 3435,-77 3854.07,-60.1 4906.8,-100.27 5322,-41 5337.26,-38.82 5353.89,-34.46 5367.32,-30.41"/>
<polygon fill="#63b8ff" stroke="#63b8ff" points="3368.01,-77.04 3358.26,-81.17 3368.46,-84.03 3368.01,-77.04"/>
</g>
<!-- Node42 -->
<g id="node41" class="node">
<title>Node42</title>
<g id="a_node41"><a xlink:href="OS_8c.html" target="_top" xlink:title=" ">
<polygon fill="white" stroke="#666666" points="5579,-30 5475,-30 5475,-11 5579,-11 5579,-30"/>
<text text-anchor="middle" x="5527" y="-18" font-family="Helvetica,sans-Serif" font-size="10.00">libs/dolphin/os/OS.c</text>
</a>
</g>
</g>
<!-- Node2&#45;&gt;Node42 -->
<g id="edge40" class="edge">
<title>Node2&#45;&gt;Node42</title>
<path fill="none" stroke="#63b8ff" d="M3368.1,-80.52C3389.58,-79.18 3413.25,-77.86 3435,-77 3660.52,-68.06 5243.31,-77.75 5466,-41 5479.05,-38.85 5493.15,-34.48 5504.5,-30.43"/>
<polygon fill="#63b8ff" stroke="#63b8ff" points="3368.01,-77.02 3358.26,-81.15 3368.46,-84.01 3368.01,-77.02"/>
</g>
<!-- Node43 -->
<g id="node42" class="node">
<title>Node43</title>
<g id="a_node42"><a xlink:href="OSAlarm_8c.html" target="_top" xlink:title=" ">
<polygon fill="white" stroke="#666666" points="5726.5,-30 5597.5,-30 5597.5,-11 5726.5,-11 5726.5,-30"/>
<text text-anchor="middle" x="5662" y="-18" font-family="Helvetica,sans-Serif" font-size="10.00">libs/dolphin/os/OSAlarm.c</text>
</a>
</g>
</g>
<!-- Node2&#45;&gt;Node43 -->
<g id="edge41" class="edge">
<title>Node2&#45;&gt;Node43</title>
<path fill="none" stroke="#63b8ff" d="M3368.1,-80.51C3389.58,-79.17 3413.25,-77.85 3435,-77 3913.15,-58.29 5113.98,-106.44 5588,-41 5603.66,-38.84 5620.75,-34.47 5634.56,-30.42"/>
<polygon fill="#63b8ff" stroke="#63b8ff" points="3368.01,-77.01 3358.26,-81.14 3368.46,-83.99 3368.01,-77.01"/>
</g>
<!-- Node44 -->
<g id="node43" class="node">
<title>Node44</title>
<g id="a_node43"><a xlink:href="OSCache_8c.html" target="_top" xlink:title=" ">
<polygon fill="white" stroke="#666666" points="5875.5,-30 5744.5,-30 5744.5,-11 5875.5,-11 5875.5,-30"/>
<text text-anchor="middle" x="5810" y="-18" font-family="Helvetica,sans-Serif" font-size="10.00">libs/dolphin/os/OSCache.c</text>
</a>
</g>
</g>
<!-- Node2&#45;&gt;Node44 -->
<g id="edge42" class="edge">
<title>Node2&#45;&gt;Node44</title>
<path fill="none" stroke="#63b8ff" d="M3368.1,-80.5C3389.58,-79.15 3413.24,-77.84 3435,-77 3690.51,-67.14 5482.69,-75.83 5736,-41 5751.66,-38.85 5768.75,-34.48 5782.56,-30.43"/>
<polygon fill="#63b8ff" stroke="#63b8ff" points="3368.01,-76.99 3358.26,-81.12 3368.46,-83.98 3368.01,-76.99"/>
</g>
<!-- Node2&#45;&gt;Node45 -->
<g id="edge43" class="edge">
<title>Node2&#45;&gt;Node45</title>
<path fill="none" stroke="#63b8ff" d="M3368.09,-80.45C3389.58,-79.11 3413.24,-77.8 3435,-77 3757.69,-65.07 6020.76,-82.44 6341,-41 6357.47,-38.87 6375.49,-34.5 6390.05,-30.45"/>
<polygon fill="#63b8ff" stroke="#63b8ff" points="3368.01,-76.95 3358.25,-81.08 3368.46,-83.93 3368.01,-76.95"/>
</g>
<!-- Node46 -->
<g id="node45" class="node">
<title>Node46</title>
<g id="a_node45"><a xlink:href="OSError_8c.html" target="_top" xlink:title=" ">
<polygon fill="white" stroke="#666666" points="6018,-30 5894,-30 5894,-11 6018,-11 6018,-30"/>
<text text-anchor="middle" x="5956" y="-18" font-family="Helvetica,sans-Serif" font-size="10.00">libs/dolphin/os/OSError.c</text>
</a>
</g>
</g>
<!-- Node2&#45;&gt;Node46 -->
<g id="edge44" class="edge">
<title>Node2&#45;&gt;Node46</title>
<path fill="none" stroke="#63b8ff" d="M3368.1,-80.48C3389.58,-79.14 3413.24,-77.83 3435,-77 3707.05,-66.63 5615.46,-79.36 5885,-41 5900.06,-38.86 5916.46,-34.49 5929.7,-30.44"/>
<polygon fill="#63b8ff" stroke="#63b8ff" points="3368.01,-76.98 3358.26,-81.11 3368.46,-83.97 3368.01,-76.98"/>
</g>
<!-- Node47 -->
<g id="node46" class="node">
<title>Node47</title>
<g id="a_node46"><a xlink:href="OSInterrupt_8c.html" target="_top" xlink:title=" ">
<polygon fill="white" stroke="#666666" points="6176,-30 6036,-30 6036,-11 6176,-11 6176,-30"/>
<text text-anchor="middle" x="6106" y="-18" font-family="Helvetica,sans-Serif" font-size="10.00">libs/dolphin/os/OSInterrupt.c</text>
</a>
</g>
</g>
<!-- Node2&#45;&gt;Node47 -->
<g id="edge45" class="edge">
<title>Node2&#45;&gt;Node47</title>
<path fill="none" stroke="#63b8ff" d="M3368.1,-80.47C3389.58,-79.13 3413.24,-77.82 3435,-77 3722.82,-66.14 5741.33,-77.75 6027,-41 6043.67,-38.86 6061.92,-34.49 6076.67,-30.43"/>
<polygon fill="#63b8ff" stroke="#63b8ff" points="3368.01,-76.97 3358.25,-81.1 3368.46,-83.96 3368.01,-76.97"/>
</g>
<!-- Node48 -->
<g id="node47" class="node">
<title>Node48</title>
<g id="a_node47"><a xlink:href="OSMemory_8c.html" target="_top" xlink:title=" ">
<polygon fill="white" stroke="#666666" points="6332,-30 6194,-30 6194,-11 6332,-11 6332,-30"/>
<text text-anchor="middle" x="6263" y="-18" font-family="Helvetica,sans-Serif" font-size="10.00">libs/dolphin/os/OSMemory.c</text>
</a>
</g>
</g>
<!-- Node2&#45;&gt;Node48 -->
<g id="edge46" class="edge">
<title>Node2&#45;&gt;Node48</title>
<path fill="none" stroke="#63b8ff" d="M3368.09,-80.46C3389.58,-79.12 3413.24,-77.81 3435,-77 3740.37,-65.6 5881.96,-80.32 6185,-41 6201.47,-38.86 6219.48,-34.5 6234.05,-30.44"/>
<polygon fill="#63b8ff" stroke="#63b8ff" points="3368.01,-76.96 3358.25,-81.09 3368.46,-83.94 3368.01,-76.96"/>
</g>
<!-- Node89&#45;&gt;Node2 -->
<g id="edge48" class="edge">
<title>Node89&#45;&gt;Node2</title>
<path fill="none" stroke="#63b8ff" d="M3345.28,-124.67C3332.49,-114.82 3318.01,-103.67 3308.27,-96.18"/>
<polygon fill="#63b8ff" stroke="#63b8ff" points="3342.95,-127.29 3353.01,-130.62 3347.22,-121.74 3342.95,-127.29"/>
</g>
</g>
</svg>
        <g id="navigator" transform="translate(0 0)" fill="#404254">
                <rect fill="#f2f5e9" fill-opacity="0.5" stroke="#606060" stroke-width=".5" x="0" y="0" width="60" height="60"/>
                <use id="zoomplus" xlink:href="#zoomPlus" x="17" y="9" onmousedown="handleZoom(evt,'in')"/>
                <use id="zoomminus" xlink:href="#zoomMin" x="42" y="9" onmousedown="handleZoom(evt,'out')"/>
                <use id="reset" xlink:href="#resetDef" x="30" y="36" onmousedown="handleReset()"/>
                <g id="arrowUp" xlink:href="#dirArrow" transform="translate(30 24)" onmousedown="handlePan(0,-1)">
                  <use xlink:href="#rim" fill="#404040">
                        <set attributeName="fill" to="#808080" begin="arrowUp.mouseover" end="arrowUp.mouseout"/>
                  </use>
                  <path fill="none" stroke="white" stroke-width="1.5" d="M0,-3.0v7 M-2.5,-0.5L0,-3.0L2.5,-0.5"/>
                </g>
                <g id="arrowRight" xlink:href="#dirArrow" transform="rotate(90) translate(36 -43)" onmousedown="handlePan(1,0)">
                  <use xlink:href="#rim" fill="#404040">
                        <set attributeName="fill" to="#808080" begin="arrowRight.mouseover" end="arrowRight.mouseout"/>
                  </use>
                  <path fill="none" stroke="white" stroke-width="1.5" d="M0,-3.0v7 M-2.5,-0.5L0,-3.0L2.5,-0.5"/>
                </g>
                <g id="arrowDown" xlink:href="#dirArrow" transform="rotate(180) translate(-30 -48)" onmousedown="handlePan(0,1)">
                  <use xlink:href="#rim" fill="#404040">
                        <set attributeName="fill" to="#808080" begin="arrowDown.mouseover" end="arrowDown.mouseout"/>
                  </use>
                  <path fill="none" stroke="white" stroke-width="1.5" d="M0,-3.0v7 M-2.5,-0.5L0,-3.0L2.5,-0.5"/>
                </g>
                <g id="arrowLeft" xlink:href="#dirArrow" transform="rotate(270) translate(-36 17)" onmousedown="handlePan(-1,0)">
                  <use xlink:href="#rim" fill="#404040">
                        <set attributeName="fill" to="#808080" begin="arrowLeft.mouseover" end="arrowLeft.mouseout"/>
                  </use>
                  <path fill="none" stroke="white" stroke-width="1.5" d="M0,-3.0v7 M-2.5,-0.5L0,-3.0L2.5,-0.5"/>
                </g>
        </g>
        <svg viewBox="0 0 15 15" width="100%" height="30px" preserveAspectRatio="xMaxYMin meet">
         <g id="arrow_out" transform="scale(0.3 0.3)">
          <a xlink:href="OSContext_8h__dep__incl_org.svg" target="_base">
           <rect id="button" ry="5" rx="5" y="6" x="6" height="38" width="38"
                fill="#f2f5e9" fill-opacity="0.5" stroke="#606060" stroke-width="1.0"/>
           <path id="arrow"
             d="M 11.500037,31.436501 C 11.940474,20.09759 22.043105,11.32322 32.158766,21.979434 L 37.068811,17.246167 C 37.068811,17.246167 37.088388,32 37.088388,32 L 22.160133,31.978069 C 22.160133,31.978069 26.997745,27.140456 26.997745,27.140456 C 18.528582,18.264221 13.291696,25.230495 11.500037,31.436501 z"
             style="fill:#404040;"/>
          </a>
         </g>
        </svg>
</svg>
