<?xml version="1.0" encoding="UTF-8" standalone="no"?>
<!DOCTYPE svg PUBLIC "-//W3C//DTD SVG 1.1//EN"
 "http://www.w3.org/Graphics/SVG/1.1/DTD/svg11.dtd">
<!-- Generated by graphviz version 7.0.5 (20221223.1930)
 -->
<!-- Title: include/dolphin/os/OSMemory.h Pages: 1 -->
<!--zoomable 170 -->
<svg id="main" version="1.1" xmlns="http://www.w3.org/2000/svg" xmlns:xlink="http://www.w3.org/1999/xlink" xml:space="preserve" onload="init(evt)">
<style type="text/css"><![CDATA[
.edge:hover path { stroke: red; }
.edge:hover polygon { stroke: red; fill: red; }
]]></style>
<script type="text/javascript"><![CDATA[
var edges = document.getElementsByTagName('g');
if (edges && edges.length) {
  for (var i=0;i<edges.length;i++) {
    if (edges[i].id.substr(0,4)=='edge') {
      edges[i].setAttribute('class','edge');
    }
  }
}
]]></script>
        <defs>
                <circle id="rim" cx="0" cy="0" r="7"/>
                <circle id="rim2" cx="0" cy="0" r="3.5"/>
                <g id="zoomPlus">
                        <use xlink:href="#rim" fill="#404040">
                                <set attributeName="fill" to="#808080" begin="zoomplus.mouseover" end="zoomplus.mouseout"/>
                        </use>
                        <path d="M-4,0h8M0,-4v8" fill="none" stroke="white" stroke-width="1.5" pointer-events="none"/>
                </g>
                <g id="zoomMin">
                        <use xlink:href="#rim" fill="#404040">
                                <set attributeName="fill" to="#808080" begin="zoomminus.mouseover" end="zoomminus.mouseout"/>
                        </use>
                        <path d="M-4,0h8" fill="none" stroke="white" stroke-width="1.5" pointer-events="none"/>
                </g>
                <g id="dirArrow">
                        <path fill="none" stroke="white" stroke-width="1.5" d="M0,-3.0v7 M-2.5,-0.5L0,-3.0L2.5,-0.5"/>
                </g>
               <g id="resetDef">
                       <use xlink:href="#rim2" fill="#404040">
                               <set attributeName="fill" to="#808080" begin="reset.mouseover" end="reset.mouseout"/>
                       </use>
               </g>
        </defs>

<script type="text/javascript">
var viewWidth = 6954;
var viewHeight = 170;
var sectionId = 'dynsection-1';
</script>
<script xlink:href="svgpan.js"/>
<svg id="graph" class="graph">
<g id="viewport">
<title>include/dolphin/os/OSMemory.h</title>
<!-- Node1 -->
<g id="node1" class="node">
<title>Node1</title>
<g id="a_node1"><a xlink:title=" ">
<polygon fill="#999999" stroke="#666666" points="3605.5,-162 3510.5,-162 3510.5,-132 3605.5,-132 3605.5,-162"/>
<text text-anchor="start" x="3518.5" y="-150" font-family="Helvetica,sans-Serif" font-size="10.00">include/dolphin/os</text>
<text text-anchor="middle" x="3558" y="-139" font-family="Helvetica,sans-Serif" font-size="10.00">/OSMemory.h</text>
</a>
</g>
</g>
<!-- Node2 -->
<g id="node2" class="node">
<title>Node2</title>
<g id="a_node2"><a xlink:href="OS_8h.html" target="_top" xlink:title=" ">
<polygon fill="#fff0f0" stroke="red" points="3573.5,-96 3454.5,-96 3454.5,-77 3573.5,-77 3573.5,-96"/>
<text text-anchor="middle" x="3514" y="-84" font-family="Helvetica,sans-Serif" font-size="10.00">include/dolphin/os/OS.h</text>
</a>
</g>
</g>
<!-- Node1&#45;&gt;Node2 -->
<g id="edge1" class="edge">
<title>Node1&#45;&gt;Node2</title>
<path fill="none" stroke="#63b8ff" d="M3540.21,-122.35C3533.26,-113.11 3525.72,-103.09 3520.52,-96.18"/>
<polygon fill="#63b8ff" stroke="#63b8ff" points="3537.41,-124.44 3546.21,-130.33 3543,-120.23 3537.41,-124.44"/>
</g>
<!-- Node48 -->
<g id="node47" class="node">
<title>Node48</title>
<g id="a_node47"><a xlink:href="OSMemory_8c.html" target="_top" xlink:title=" ">
<polygon fill="white" stroke="#666666" points="6946,-30 6808,-30 6808,-11 6946,-11 6946,-30"/>
<text text-anchor="middle" x="6877" y="-18" font-family="Helvetica,sans-Serif" font-size="10.00">libs/dolphin/os/OSMemory.c</text>
</a>
</g>
</g>
<!-- Node1&#45;&gt;Node48 -->
<g id="edge50" class="edge">
<title>Node1&#45;&gt;Node48</title>
<path fill="none" stroke="#63b8ff" d="M3617.16,-145.8C4001.63,-144.25 6150.06,-131.58 6799,-41 6815.31,-38.72 6833.16,-34.4 6847.66,-30.41"/>
<polygon fill="#63b8ff" stroke="#63b8ff" points="3617.28,-142.3 3607.29,-145.84 3617.31,-149.3 3617.28,-142.3"/>
</g>
<!-- Node3 -->
<g id="node3" class="node">
<title>Node3</title>
<g id="a_node3"><a xlink:href="dolphin__trk__glue_8h.html" target="_top" xlink:title=" ">
<polygon fill="#fff0f0" stroke="red" points="118,-41 0,-41 0,0 118,0 118,-41"/>
<text text-anchor="start" x="8" y="-29" font-family="Helvetica,sans-Serif" font-size="10.00">include/TRK_MINNOW</text>
<text text-anchor="start" x="8" y="-18" font-family="Helvetica,sans-Serif" font-size="10.00">_DOLPHIN/Os/dolphin</text>
<text text-anchor="middle" x="59" y="-7" font-family="Helvetica,sans-Serif" font-size="10.00">/dolphin_trk_glue.h</text>
</a>
</g>
</g>
<!-- Node2&#45;&gt;Node3 -->
<g id="edge2" class="edge">
<title>Node2&#45;&gt;Node3</title>
<path fill="none" stroke="#63b8ff" d="M3442.88,-85.7C2985.4,-86.84 465.34,-90.82 127,-41 124.08,-40.57 121.12,-40.05 118.13,-39.46"/>
<polygon fill="#63b8ff" stroke="#63b8ff" points="3442.74,-89.2 3452.73,-85.68 3442.72,-82.2 3442.74,-89.2"/>
</g>
<!-- Node5 -->
<g id="node4" class="node">
<title>Node5</title>
<g id="a_node4"><a xlink:href="J2DAnimation_8cpp.html" target="_top" xlink:title=" ">
<polygon fill="white" stroke="#666666" points="255.5,-35.5 136.5,-35.5 136.5,-5.5 255.5,-5.5 255.5,-35.5"/>
<text text-anchor="start" x="144.5" y="-23.5" font-family="Helvetica,sans-Serif" font-size="10.00">libs/JSystem/J2DGraph</text>
<text text-anchor="middle" x="196" y="-12.5" font-family="Helvetica,sans-Serif" font-size="10.00">/J2DAnimation.cpp</text>
</a>
</g>
</g>
<!-- Node2&#45;&gt;Node5 -->
<g id="edge3" class="edge">
<title>Node2&#45;&gt;Node5</title>
<path fill="none" stroke="#63b8ff" d="M3442.61,-85.64C2995.47,-86.38 588.87,-88.15 265,-41 256.99,-39.83 248.6,-38 240.54,-35.92"/>
<polygon fill="#63b8ff" stroke="#63b8ff" points="3442.54,-89.14 3452.53,-85.63 3442.52,-82.14 3442.54,-89.14"/>
</g>
<!-- Node6 -->
<g id="node5" class="node">
<title>Node6</title>
<g id="a_node5"><a xlink:href="J3DModel_8cpp.html" target="_top" xlink:title=" ">
<polygon fill="white" stroke="#666666" points="432,-35.5 274,-35.5 274,-5.5 432,-5.5 432,-35.5"/>
<text text-anchor="start" x="282" y="-23.5" font-family="Helvetica,sans-Serif" font-size="10.00">libs/JSystem/J3DGraphAnimator</text>
<text text-anchor="middle" x="353" y="-12.5" font-family="Helvetica,sans-Serif" font-size="10.00">/J3DModel.cpp</text>
</a>
</g>
</g>
<!-- Node2&#45;&gt;Node6 -->
<g id="edge4" class="edge">
<title>Node2&#45;&gt;Node6</title>
<path fill="none" stroke="#63b8ff" d="M3442.77,-85.34C3010.52,-84.24 747.57,-76.81 441,-41 431.05,-39.84 420.58,-38.04 410.46,-35.99"/>
<polygon fill="#63b8ff" stroke="#63b8ff" points="3442.61,-88.84 3452.61,-85.36 3442.62,-81.84 3442.61,-88.84"/>
</g>
<!-- Node7 -->
<g id="node6" class="node">
<title>Node7</title>
<g id="a_node6"><a xlink:href="J3DModelData_8cpp.html" target="_top" xlink:title=" ">
<polygon fill="white" stroke="#666666" points="608,-35.5 450,-35.5 450,-5.5 608,-5.5 608,-35.5"/>
<text text-anchor="start" x="458" y="-23.5" font-family="Helvetica,sans-Serif" font-size="10.00">libs/JSystem/J3DGraphAnimator</text>
<text text-anchor="middle" x="529" y="-12.5" font-family="Helvetica,sans-Serif" font-size="10.00">/J3DModelData.cpp</text>
</a>
</g>
</g>
<!-- Node2&#45;&gt;Node7 -->
<g id="edge5" class="edge">
<title>Node2&#45;&gt;Node7</title>
<path fill="none" stroke="#63b8ff" d="M3442.89,-85.27C3025.77,-83.81 905.08,-74.78 617,-41 607.05,-39.83 596.58,-38.03 586.46,-35.99"/>
<polygon fill="#63b8ff" stroke="#63b8ff" points="3442.64,-88.77 3452.65,-85.3 3442.66,-81.77 3442.64,-88.77"/>
</g>
<!-- Node8 -->
<g id="node7" class="node">
<title>Node8</title>
<g id="a_node7"><a xlink:href="J3DSkinDeform_8cpp.html" target="_top" xlink:title=" ">
<polygon fill="white" stroke="#666666" points="784,-35.5 626,-35.5 626,-5.5 784,-5.5 784,-35.5"/>
<text text-anchor="start" x="634" y="-23.5" font-family="Helvetica,sans-Serif" font-size="10.00">libs/JSystem/J3DGraphAnimator</text>
<text text-anchor="middle" x="705" y="-12.5" font-family="Helvetica,sans-Serif" font-size="10.00">/J3DSkinDeform.cpp</text>
</a>
</g>
</g>
<!-- Node2&#45;&gt;Node8 -->
<g id="edge6" class="edge">
<title>Node2&#45;&gt;Node8</title>
<path fill="none" stroke="#63b8ff" d="M3442.78,-85.19C3040.66,-83.35 1062.56,-72.74 793,-41 783.05,-39.83 772.58,-38.02 762.47,-35.98"/>
<polygon fill="#63b8ff" stroke="#63b8ff" points="3442.69,-88.69 3452.7,-85.24 3442.72,-81.69 3442.69,-88.69"/>
</g>
<!-- Node9 -->
<g id="node8" class="node">
<title>Node9</title>
<g id="a_node8"><a xlink:href="J3DMatBlock_8cpp.html" target="_top" xlink:title=" ">
<polygon fill="white" stroke="#666666" points="944,-35.5 802,-35.5 802,-5.5 944,-5.5 944,-35.5"/>
<text text-anchor="start" x="810" y="-23.5" font-family="Helvetica,sans-Serif" font-size="10.00">libs/JSystem/J3DGraphBase</text>
<text text-anchor="middle" x="873" y="-12.5" font-family="Helvetica,sans-Serif" font-size="10.00">/J3DMatBlock.cpp</text>
</a>
</g>
</g>
<!-- Node2&#45;&gt;Node9 -->
<g id="edge7" class="edge">
<title>Node2&#45;&gt;Node9</title>
<path fill="none" stroke="#63b8ff" d="M3442.96,-85.21C3055.49,-83.48 1205.49,-73.56 953,-41 943.93,-39.83 934.39,-38.03 925.19,-35.98"/>
<polygon fill="#63b8ff" stroke="#63b8ff" points="3442.73,-88.7 3452.75,-85.25 3442.76,-81.7 3442.73,-88.7"/>
</g>
<!-- Node10 -->
<g id="node9" class="node">
<title>Node10</title>
<g id="a_node9"><a xlink:href="J3DShape_8cpp.html" target="_top" xlink:title=" ">
<polygon fill="white" stroke="#666666" points="1104,-35.5 962,-35.5 962,-5.5 1104,-5.5 1104,-35.5"/>
<text text-anchor="start" x="970" y="-23.5" font-family="Helvetica,sans-Serif" font-size="10.00">libs/JSystem/J3DGraphBase</text>
<text text-anchor="middle" x="1033" y="-12.5" font-family="Helvetica,sans-Serif" font-size="10.00">/J3DShape.cpp</text>
</a>
</g>
</g>
<!-- Node2&#45;&gt;Node10 -->
<g id="edge8" class="edge">
<title>Node2&#45;&gt;Node10</title>
<path fill="none" stroke="#63b8ff" d="M3442.66,-85.12C3069.33,-82.98 1348.69,-71.53 1113,-41 1103.93,-39.82 1094.39,-38.02 1085.19,-35.97"/>
<polygon fill="#63b8ff" stroke="#63b8ff" points="3442.55,-88.61 3452.57,-85.17 3442.59,-81.61 3442.55,-88.61"/>
</g>
<!-- Node11 -->
<g id="node10" class="node">
<title>Node11</title>
<g id="a_node10"><a xlink:href="J3DSys_8cpp.html" target="_top" xlink:title=" ">
<polygon fill="white" stroke="#666666" points="1264,-35.5 1122,-35.5 1122,-5.5 1264,-5.5 1264,-35.5"/>
<text text-anchor="start" x="1130" y="-23.5" font-family="Helvetica,sans-Serif" font-size="10.00">libs/JSystem/J3DGraphBase</text>
<text text-anchor="middle" x="1193" y="-12.5" font-family="Helvetica,sans-Serif" font-size="10.00">/J3DSys.cpp</text>
</a>
</g>
</g>
<!-- Node2&#45;&gt;Node11 -->
<g id="edge9" class="edge">
<title>Node2&#45;&gt;Node11</title>
<path fill="none" stroke="#63b8ff" d="M3442.57,-85.01C3084.35,-82.45 1491.97,-69.51 1273,-41 1263.93,-39.82 1254.39,-38.01 1245.19,-35.96"/>
<polygon fill="#63b8ff" stroke="#63b8ff" points="3442.51,-88.51 3452.54,-85.08 3442.56,-81.51 3442.51,-88.51"/>
</g>
<!-- Node12 -->
<g id="node11" class="node">
<title>Node12</title>
<g id="a_node11"><a xlink:href="J3DClusterLoader_8cpp.html" target="_top" xlink:title=" ">
<polygon fill="white" stroke="#666666" points="1431.5,-35.5 1282.5,-35.5 1282.5,-5.5 1431.5,-5.5 1431.5,-35.5"/>
<text text-anchor="start" x="1290.5" y="-23.5" font-family="Helvetica,sans-Serif" font-size="10.00">libs/JSystem/J3DGraphLoader</text>
<text text-anchor="middle" x="1357" y="-12.5" font-family="Helvetica,sans-Serif" font-size="10.00">/J3DClusterLoader.cpp</text>
</a>
</g>
</g>
<!-- Node2&#45;&gt;Node12 -->
<g id="edge10" class="edge">
<title>Node2&#45;&gt;Node12</title>
<path fill="none" stroke="#63b8ff" d="M3442.72,-84.86C3101.33,-81.66 1641.71,-66.57 1440,-41 1430.6,-39.81 1420.72,-37.99 1411.17,-35.94"/>
<polygon fill="#63b8ff" stroke="#63b8ff" points="3442.6,-88.36 3452.63,-84.95 3442.67,-81.36 3442.6,-88.36"/>
</g>
<!-- Node13 -->
<g id="node12" class="node">
<title>Node13</title>
<g id="a_node12"><a xlink:href="J3DShapeFactory_8cpp.html" target="_top" xlink:title=" ">
<polygon fill="white" stroke="#666666" points="1598.5,-35.5 1449.5,-35.5 1449.5,-5.5 1598.5,-5.5 1598.5,-35.5"/>
<text text-anchor="start" x="1457.5" y="-23.5" font-family="Helvetica,sans-Serif" font-size="10.00">libs/JSystem/J3DGraphLoader</text>
<text text-anchor="middle" x="1524" y="-12.5" font-family="Helvetica,sans-Serif" font-size="10.00">/J3DShapeFactory.cpp</text>
</a>
</g>
</g>
<!-- Node2&#45;&gt;Node13 -->
<g id="edge11" class="edge">
<title>Node2&#45;&gt;Node13</title>
<path fill="none" stroke="#63b8ff" d="M3442.91,-85.81C3142.05,-86.83 1972.27,-87.66 1607,-41 1597.6,-39.8 1587.72,-37.98 1578.17,-35.93"/>
<polygon fill="#63b8ff" stroke="#63b8ff" points="3442.58,-89.31 3452.57,-85.78 3442.55,-82.31 3442.58,-89.31"/>
</g>
<!-- Node14 -->
<g id="node13" class="node">
<title>Node14</title>
<g id="a_node13"><a xlink:href="JASAudioThread_8cpp.html" target="_top" xlink:title=" ">
<polygon fill="white" stroke="#666666" points="1727.5,-35.5 1616.5,-35.5 1616.5,-5.5 1727.5,-5.5 1727.5,-35.5"/>
<text text-anchor="start" x="1624.5" y="-23.5" font-family="Helvetica,sans-Serif" font-size="10.00">libs/JSystem/JAudio2</text>
<text text-anchor="middle" x="1672" y="-12.5" font-family="Helvetica,sans-Serif" font-size="10.00">/JASAudioThread.cpp</text>
</a>
</g>
</g>
<!-- Node2&#45;&gt;Node14 -->
<g id="edge12" class="edge">
<title>Node2&#45;&gt;Node14</title>
<path fill="none" stroke="#63b8ff" d="M3442.98,-84.86C3132.97,-81.9 1906.21,-68.54 1736,-41 1728.66,-39.81 1720.99,-38 1713.62,-35.95"/>
<polygon fill="#63b8ff" stroke="#63b8ff" points="3442.5,-88.35 3452.54,-84.95 3442.57,-81.35 3442.5,-88.35"/>
</g>
<!-- Node15 -->
<g id="node14" class="node">
<title>Node15</title>
<g id="a_node14"><a xlink:href="JASProbe_8cpp.html" target="_top" xlink:title=" ">
<polygon fill="white" stroke="#666666" points="1856.5,-35.5 1745.5,-35.5 1745.5,-5.5 1856.5,-5.5 1856.5,-35.5"/>
<text text-anchor="start" x="1753.5" y="-23.5" font-family="Helvetica,sans-Serif" font-size="10.00">libs/JSystem/JAudio2</text>
<text text-anchor="middle" x="1801" y="-12.5" font-family="Helvetica,sans-Serif" font-size="10.00">/JASProbe.cpp</text>
</a>
</g>
</g>
<!-- Node2&#45;&gt;Node15 -->
<g id="edge13" class="edge">
<title>Node2&#45;&gt;Node15</title>
<path fill="none" stroke="#63b8ff" d="M3442.9,-84.71C3147.08,-81.25 2021.9,-66.54 1865,-41 1857.66,-39.81 1849.99,-37.99 1842.62,-35.94"/>
<polygon fill="#63b8ff" stroke="#63b8ff" points="3442.76,-88.21 3452.8,-84.82 3442.84,-81.21 3442.76,-88.21"/>
</g>
<!-- Node16 -->
<g id="node15" class="node">
<title>Node16</title>
<g id="a_node15"><a xlink:href="dsptask_8cpp.html" target="_top" xlink:title=" ">
<polygon fill="white" stroke="#666666" points="1985.5,-35.5 1874.5,-35.5 1874.5,-5.5 1985.5,-5.5 1985.5,-35.5"/>
<text text-anchor="start" x="1882.5" y="-23.5" font-family="Helvetica,sans-Serif" font-size="10.00">libs/JSystem/JAudio2</text>
<text text-anchor="middle" x="1930" y="-12.5" font-family="Helvetica,sans-Serif" font-size="10.00">/dsptask.cpp</text>
</a>
</g>
</g>
<!-- Node2&#45;&gt;Node16 -->
<g id="edge14" class="edge">
<title>Node2&#45;&gt;Node16</title>
<path fill="none" stroke="#63b8ff" d="M3443.16,-85.92C3182.66,-87.09 2278.3,-87.61 1994,-41 1986.66,-39.8 1979,-37.98 1971.62,-35.92"/>
<polygon fill="#63b8ff" stroke="#63b8ff" points="3442.85,-89.42 3452.83,-85.88 3442.81,-82.42 3442.85,-89.42"/>
</g>
<!-- Node17 -->
<g id="node16" class="node">
<title>Node17</title>
<g id="a_node16"><a xlink:href="osdsp_8cpp.html" target="_top" xlink:title=" ">
<polygon fill="white" stroke="#666666" points="2114.5,-35.5 2003.5,-35.5 2003.5,-5.5 2114.5,-5.5 2114.5,-35.5"/>
<text text-anchor="start" x="2011.5" y="-23.5" font-family="Helvetica,sans-Serif" font-size="10.00">libs/JSystem/JAudio2</text>
<text text-anchor="middle" x="2059" y="-12.5" font-family="Helvetica,sans-Serif" font-size="10.00">/osdsp.cpp</text>
</a>
</g>
</g>
<!-- Node2&#45;&gt;Node17 -->
<g id="edge15" class="edge">
<title>Node2&#45;&gt;Node17</title>
<path fill="none" stroke="#63b8ff" d="M3442.73,-85.65C3196.37,-85.81 2381.73,-83.05 2124,-41 2116.56,-39.79 2108.77,-37.96 2101.29,-35.9"/>
<polygon fill="#63b8ff" stroke="#63b8ff" points="3442.52,-89.16 3452.52,-85.65 3442.51,-82.16 3442.52,-89.16"/>
</g>
<!-- Node18 -->
<g id="node17" class="node">
<title>Node18</title>
<g id="a_node17"><a xlink:href="JFWDisplay_8cpp.html" target="_top" xlink:title=" ">
<polygon fill="white" stroke="#666666" points="2263,-35.5 2133,-35.5 2133,-5.5 2263,-5.5 2263,-35.5"/>
<text text-anchor="start" x="2141" y="-23.5" font-family="Helvetica,sans-Serif" font-size="10.00">libs/JSystem/JFramework</text>
<text text-anchor="middle" x="2198" y="-12.5" font-family="Helvetica,sans-Serif" font-size="10.00">/JFWDisplay.cpp</text>
</a>
</g>
</g>
<!-- Node2&#45;&gt;Node18 -->
<g id="edge16" class="edge">
<title>Node2&#45;&gt;Node18</title>
<path fill="none" stroke="#63b8ff" d="M3442.82,-85.02C3214.21,-83.16 2500.29,-74.74 2272,-41 2263.72,-39.78 2255.03,-37.97 2246.64,-35.95"/>
<polygon fill="#63b8ff" stroke="#63b8ff" points="3442.76,-88.52 3452.78,-85.1 3442.81,-81.52 3442.76,-88.52"/>
</g>
<!-- Node19 -->
<g id="node18" class="node">
<title>Node19</title>
<g id="a_node18"><a xlink:href="JKRAramPiece_8cpp.html" target="_top" xlink:title=" ">
<polygon fill="white" stroke="#666666" points="2390.5,-35.5 2281.5,-35.5 2281.5,-5.5 2390.5,-5.5 2390.5,-35.5"/>
<text text-anchor="start" x="2289.5" y="-23.5" font-family="Helvetica,sans-Serif" font-size="10.00">libs/JSystem/JKernel</text>
<text text-anchor="middle" x="2336" y="-12.5" font-family="Helvetica,sans-Serif" font-size="10.00">/JKRAramPiece.cpp</text>
</a>
</g>
</g>
<!-- Node2&#45;&gt;Node19 -->
<g id="edge17" class="edge">
<title>Node2&#45;&gt;Node19</title>
<path fill="none" stroke="#63b8ff" d="M3442.89,-85.08C3230.16,-83.42 2600.9,-75.66 2399,-41 2391.89,-39.78 2384.47,-37.98 2377.31,-35.96"/>
<polygon fill="#63b8ff" stroke="#63b8ff" points="3442.67,-88.57 3452.7,-85.15 3442.72,-81.57 3442.67,-88.57"/>
</g>
<!-- Node20 -->
<g id="node19" class="node">
<title>Node20</title>
<g id="a_node19"><a xlink:href="JKRDvdArchive_8cpp.html" target="_top" xlink:title=" ">
<polygon fill="white" stroke="#666666" points="2517.5,-35.5 2408.5,-35.5 2408.5,-5.5 2517.5,-5.5 2517.5,-35.5"/>
<text text-anchor="start" x="2416.5" y="-23.5" font-family="Helvetica,sans-Serif" font-size="10.00">libs/JSystem/JKernel</text>
<text text-anchor="middle" x="2463" y="-12.5" font-family="Helvetica,sans-Serif" font-size="10.00">/JKRDvdArchive.cpp</text>
</a>
</g>
</g>
<!-- Node2&#45;&gt;Node20 -->
<g id="edge18" class="edge">
<title>Node2&#45;&gt;Node20</title>
<path fill="none" stroke="#63b8ff" d="M3442.71,-84.65C3246.67,-81.92 2702.32,-71.74 2526,-41 2518.89,-39.76 2511.47,-37.95 2504.32,-35.93"/>
<polygon fill="#63b8ff" stroke="#63b8ff" points="3442.45,-88.14 3452.5,-84.78 3442.54,-81.14 3442.45,-88.14"/>
</g>
<!-- Node21 -->
<g id="node20" class="node">
<title>Node21</title>
<g id="a_node20"><a xlink:href="JKRHeap_8cpp.html" target="_top" xlink:title=" ">
<polygon fill="white" stroke="#666666" points="2644.5,-35.5 2535.5,-35.5 2535.5,-5.5 2644.5,-5.5 2644.5,-35.5"/>
<text text-anchor="start" x="2543.5" y="-23.5" font-family="Helvetica,sans-Serif" font-size="10.00">libs/JSystem/JKernel</text>
<text text-anchor="middle" x="2590" y="-12.5" font-family="Helvetica,sans-Serif" font-size="10.00">/JKRHeap.cpp</text>
</a>
</g>
</g>
<!-- Node2&#45;&gt;Node21 -->
<g id="edge19" class="edge">
<title>Node2&#45;&gt;Node21</title>
<path fill="none" stroke="#63b8ff" d="M3442.85,-84.05C3265.06,-80.07 2804.85,-67.47 2654,-41 2646.91,-39.76 2639.5,-37.97 2632.34,-35.98"/>
<polygon fill="#63b8ff" stroke="#63b8ff" points="3442.56,-87.55 3452.64,-84.27 3442.72,-80.55 3442.56,-87.55"/>
</g>
<!-- Node22 -->
<g id="node21" class="node">
<title>Node22</title>
<g id="a_node21"><a xlink:href="JPAChildShape_8cpp.html" target="_top" xlink:title=" ">
<polygon fill="white" stroke="#666666" points="2777,-35.5 2663,-35.5 2663,-5.5 2777,-5.5 2777,-35.5"/>
<text text-anchor="start" x="2671" y="-23.5" font-family="Helvetica,sans-Serif" font-size="10.00">libs/JSystem/JParticle</text>
<text text-anchor="middle" x="2720" y="-12.5" font-family="Helvetica,sans-Serif" font-size="10.00">/JPAChildShape.cpp</text>
</a>
</g>
</g>
<!-- Node2&#45;&gt;Node22 -->
<g id="edge20" class="edge">
<title>Node2&#45;&gt;Node22</title>
<path fill="none" stroke="#63b8ff" d="M3442.62,-83.19C3284.88,-77.76 2910.71,-62.94 2786,-41 2778.7,-39.72 2771.07,-37.91 2763.69,-35.91"/>
<polygon fill="#63b8ff" stroke="#63b8ff" points="3442.43,-86.69 3452.54,-83.53 3442.67,-79.69 3442.43,-86.69"/>
</g>
<!-- Node23 -->
<g id="node22" class="node">
<title>Node23</title>
<g id="a_node22"><a xlink:href="JPAExtraShape_8cpp.html" target="_top" xlink:title=" ">
<polygon fill="white" stroke="#666666" points="2909,-35.5 2795,-35.5 2795,-5.5 2909,-5.5 2909,-35.5"/>
<text text-anchor="start" x="2803" y="-23.5" font-family="Helvetica,sans-Serif" font-size="10.00">libs/JSystem/JParticle</text>
<text text-anchor="middle" x="2852" y="-12.5" font-family="Helvetica,sans-Serif" font-size="10.00">/JPAExtraShape.cpp</text>
</a>
</g>
</g>
<!-- Node2&#45;&gt;Node23 -->
<g id="edge21" class="edge">
<title>Node2&#45;&gt;Node23</title>
<path fill="none" stroke="#63b8ff" d="M3442.75,-85.06C3330.32,-83.27 3105.3,-75.26 2918,-41 2910.83,-39.69 2903.33,-37.9 2896.06,-35.92"/>
<polygon fill="#63b8ff" stroke="#63b8ff" points="3442.69,-88.56 3452.74,-85.2 3442.79,-81.56 3442.69,-88.56"/>
</g>
<!-- Node24 -->
<g id="node23" class="node">
<title>Node24</title>
<g id="a_node23"><a xlink:href="JUTConsole_8cpp.html" target="_top" xlink:title=" ">
<polygon fill="white" stroke="#666666" points="3033,-35.5 2927,-35.5 2927,-5.5 3033,-5.5 3033,-35.5"/>
<text text-anchor="start" x="2935" y="-23.5" font-family="Helvetica,sans-Serif" font-size="10.00">libs/JSystem/JUtility</text>
<text text-anchor="middle" x="2980" y="-12.5" font-family="Helvetica,sans-Serif" font-size="10.00">/JUTConsole.cpp</text>
</a>
</g>
</g>
<!-- Node2&#45;&gt;Node24 -->
<g id="edge22" class="edge">
<title>Node2&#45;&gt;Node24</title>
<path fill="none" stroke="#63b8ff" d="M3442.94,-83.46C3349.97,-79.73 3182.37,-69.36 3042,-41 3035.36,-39.66 3028.43,-37.88 3021.71,-35.93"/>
<polygon fill="#63b8ff" stroke="#63b8ff" points="3442.54,-86.94 3452.66,-83.83 3442.81,-79.95 3442.54,-86.94"/>
</g>
<!-- Node25 -->
<g id="node24" class="node">
<title>Node25</title>
<g id="a_node24"><a xlink:href="JUTException_8cpp.html" target="_top" xlink:title=" ">
<polygon fill="white" stroke="#666666" points="3157,-35.5 3051,-35.5 3051,-5.5 3157,-5.5 3157,-35.5"/>
<text text-anchor="start" x="3059" y="-23.5" font-family="Helvetica,sans-Serif" font-size="10.00">libs/JSystem/JUtility</text>
<text text-anchor="middle" x="3104" y="-12.5" font-family="Helvetica,sans-Serif" font-size="10.00">/JUTException.cpp</text>
</a>
</g>
</g>
<!-- Node2&#45;&gt;Node25 -->
<g id="edge23" class="edge">
<title>Node2&#45;&gt;Node25</title>
<path fill="none" stroke="#63b8ff" d="M3442.59,-80.1C3371.79,-73.88 3260.54,-61.74 3166,-41 3159.61,-39.6 3152.93,-37.83 3146.42,-35.93"/>
<polygon fill="#63b8ff" stroke="#63b8ff" points="3442.26,-83.59 3452.52,-80.96 3442.86,-76.61 3442.26,-83.59"/>
</g>
<!-- Node26 -->
<g id="node25" class="node">
<title>Node26</title>
<g id="a_node25"><a xlink:href="JUTPalette_8cpp.html" target="_top" xlink:title=" ">
<polygon fill="white" stroke="#666666" points="3281,-35.5 3175,-35.5 3175,-5.5 3281,-5.5 3281,-35.5"/>
<text text-anchor="start" x="3183" y="-23.5" font-family="Helvetica,sans-Serif" font-size="10.00">libs/JSystem/JUtility</text>
<text text-anchor="middle" x="3228" y="-12.5" font-family="Helvetica,sans-Serif" font-size="10.00">/JUTPalette.cpp</text>
</a>
</g>
</g>
<!-- Node2&#45;&gt;Node26 -->
<g id="edge24" class="edge">
<title>Node2&#45;&gt;Node26</title>
<path fill="none" stroke="#63b8ff" d="M3449.16,-74.54C3404.21,-66.48 3343.12,-54.59 3290,-41 3284.1,-39.49 3277.93,-37.75 3271.86,-35.94"/>
<polygon fill="#63b8ff" stroke="#63b8ff" points="3448.28,-77.94 3458.74,-76.25 3449.5,-71.05 3448.28,-77.94"/>
</g>
<!-- Node27 -->
<g id="node26" class="node">
<title>Node27</title>
<g id="a_node26"><a xlink:href="uart__console__io__gcn_8c.html" target="_top" xlink:title=" ">
<polygon fill="white" stroke="#666666" points="3433,-35.5 3299,-35.5 3299,-5.5 3433,-5.5 3433,-35.5"/>
<text text-anchor="start" x="3307" y="-23.5" font-family="Helvetica,sans-Serif" font-size="10.00">libs/MSL_C/PPC_EABI</text>
<text text-anchor="middle" x="3366" y="-12.5" font-family="Helvetica,sans-Serif" font-size="10.00">/Src/uart_console_io_gcn.c</text>
</a>
</g>
</g>
<!-- Node2&#45;&gt;Node27 -->
<g id="edge25" class="edge">
<title>Node2&#45;&gt;Node27</title>
<path fill="none" stroke="#63b8ff" d="M3482.93,-72.07C3458.5,-61.5 3424.52,-46.8 3399.48,-35.98"/>
<polygon fill="#63b8ff" stroke="#63b8ff" points="3481.46,-75.24 3492.03,-76 3484.24,-68.82 3481.46,-75.24"/>
</g>
<!-- Node28 -->
<g id="node27" class="node">
<title>Node28</title>
<g id="a_node27"><a xlink:href="GCN__Mem__Alloc_8c.html" target="_top" xlink:title=" ">
<polygon fill="white" stroke="#666666" points="3576.5,-35.5 3451.5,-35.5 3451.5,-5.5 3576.5,-5.5 3576.5,-35.5"/>
<text text-anchor="start" x="3459.5" y="-23.5" font-family="Helvetica,sans-Serif" font-size="10.00">libs/Runtime.PPCEABI.H</text>
<text text-anchor="middle" x="3514" y="-12.5" font-family="Helvetica,sans-Serif" font-size="10.00">/GCN_Mem_Alloc.c</text>
</a>
</g>
</g>
<!-- Node2&#45;&gt;Node28 -->
<g id="edge26" class="edge">
<title>Node2&#45;&gt;Node28</title>
<path fill="none" stroke="#63b8ff" d="M3514,-65.28C3514,-55.67 3514,-44.42 3514,-35.73"/>
<polygon fill="#63b8ff" stroke="#63b8ff" points="3510.5,-65.09 3514,-75.09 3517.5,-65.09 3510.5,-65.09"/>
</g>
<!-- Node29 -->
<g id="node28" class="node">
<title>Node29</title>
<g id="a_node28"><a xlink:href="Z2AudioMgr_8cpp.html" target="_top" xlink:title=" ">
<polygon fill="white" stroke="#666666" points="3753,-30 3595,-30 3595,-11 3753,-11 3753,-30"/>
<text text-anchor="middle" x="3674" y="-18" font-family="Helvetica,sans-Serif" font-size="10.00">libs/Z2AudioLib/Z2AudioMgr.cpp</text>
</a>
</g>
</g>
<!-- Node2&#45;&gt;Node29 -->
<g id="edge27" class="edge">
<title>Node2&#45;&gt;Node29</title>
<path fill="none" stroke="#63b8ff" d="M3546.64,-72.45C3577.95,-59.92 3624.38,-41.35 3651.68,-30.43"/>
<polygon fill="#63b8ff" stroke="#63b8ff" points="3545.64,-69.08 3537.65,-76.04 3548.24,-75.57 3545.64,-69.08"/>
</g>
<!-- Node30 -->
<g id="node29" class="node">
<title>Node30</title>
<g id="a_node29"><a xlink:href="Z2LinkMgr_8cpp.html" target="_top" xlink:title=" ">
<polygon fill="white" stroke="#666666" points="3923,-30 3771,-30 3771,-11 3923,-11 3923,-30"/>
<text text-anchor="middle" x="3847" y="-18" font-family="Helvetica,sans-Serif" font-size="10.00">libs/Z2AudioLib/Z2LinkMgr.cpp</text>
</a>
</g>
</g>
<!-- Node2&#45;&gt;Node30 -->
<g id="edge28" class="edge">
<title>Node2&#45;&gt;Node30</title>
<path fill="none" stroke="#63b8ff" d="M3579.64,-74.6C3629.73,-66.08 3700.37,-53.59 3762,-41 3777.72,-37.79 3795,-33.89 3809.85,-30.43"/>
<polygon fill="#63b8ff" stroke="#63b8ff" points="3579.09,-71.15 3569.82,-76.27 3580.26,-78.05 3579.09,-71.15"/>
</g>
<!-- Node31 -->
<g id="node30" class="node">
<title>Node31</title>
<g id="a_node30"><a xlink:href="Z2WolfHowlMgr_8cpp.html" target="_top" xlink:title=" ">
<polygon fill="white" stroke="#666666" points="4081,-35.5 3941,-35.5 3941,-5.5 4081,-5.5 4081,-35.5"/>
<text text-anchor="start" x="3949" y="-23.5" font-family="Helvetica,sans-Serif" font-size="10.00">libs/Z2AudioLib/Z2WolfHowl</text>
<text text-anchor="middle" x="4011" y="-12.5" font-family="Helvetica,sans-Serif" font-size="10.00">Mgr.cpp</text>
</a>
</g>
</g>
<!-- Node2&#45;&gt;Node31 -->
<g id="edge29" class="edge">
<title>Node2&#45;&gt;Node31</title>
<path fill="none" stroke="#63b8ff" d="M3585.27,-80.88C3668.81,-74.77 3811.18,-62.24 3932,-41 3940.07,-39.58 3948.54,-37.8 3956.81,-35.9"/>
<polygon fill="#63b8ff" stroke="#63b8ff" points="3585.12,-77.38 3575.4,-81.59 3585.62,-84.36 3585.12,-77.38"/>
</g>
<!-- Node32 -->
<g id="node31" class="node">
<title>Node32</title>
<g id="a_node31"><a xlink:href="ai_8c.html" target="_top" xlink:title=" ">
<polygon fill="white" stroke="#666666" points="4193,-30 4099,-30 4099,-11 4193,-11 4193,-30"/>
<text text-anchor="middle" x="4146" y="-18" font-family="Helvetica,sans-Serif" font-size="10.00">libs/dolphin/ai/ai.c</text>
</a>
</g>
</g>
<!-- Node2&#45;&gt;Node32 -->
<g id="edge30" class="edge">
<title>Node2&#45;&gt;Node32</title>
<path fill="none" stroke="#63b8ff" d="M3584.8,-85.87C3694.29,-85.13 3910.79,-78.47 4090,-41 4101.69,-38.56 4114.28,-34.32 4124.56,-30.42"/>
<polygon fill="#63b8ff" stroke="#63b8ff" points="3585.08,-82.36 3575.1,-85.91 3585.11,-89.36 3585.08,-82.36"/>
</g>
<!-- Node33 -->
<g id="node32" class="node">
<title>Node33</title>
<g id="a_node32"><a xlink:href="ar_8c.html" target="_top" xlink:title=" ">
<polygon fill="white" stroke="#666666" points="4306.5,-30 4211.5,-30 4211.5,-11 4306.5,-11 4306.5,-30"/>
<text text-anchor="middle" x="4259" y="-18" font-family="Helvetica,sans-Serif" font-size="10.00">libs/dolphin/ar/ar.c</text>
</a>
</g>
</g>
<!-- Node2&#45;&gt;Node33 -->
<g id="edge31" class="edge">
<title>Node2&#45;&gt;Node33</title>
<path fill="none" stroke="#63b8ff" d="M3585.29,-83.28C3736.61,-78.18 4085.6,-64.24 4202,-41 4213.9,-38.62 4226.72,-34.4 4237.18,-30.49"/>
<polygon fill="#63b8ff" stroke="#63b8ff" points="3585.26,-79.78 3575.38,-83.61 3585.49,-86.78 3585.26,-79.78"/>
</g>
<!-- Node34 -->
<g id="node33" class="node">
<title>Node34</title>
<g id="a_node33"><a xlink:href="CARDBios_8c.html" target="_top" xlink:title=" ">
<polygon fill="white" stroke="#666666" points="4469,-30 4325,-30 4325,-11 4469,-11 4469,-30"/>
<text text-anchor="middle" x="4397" y="-18" font-family="Helvetica,sans-Serif" font-size="10.00">libs/dolphin/card/CARDBios.c</text>
</a>
</g>
</g>
<!-- Node2&#45;&gt;Node34 -->
<g id="edge32" class="edge">
<title>Node2&#45;&gt;Node34</title>
<path fill="none" stroke="#63b8ff" d="M3585.31,-85.78C3725.74,-85.39 4047.72,-79.89 4315,-41 4331.8,-38.56 4350.21,-34.32 4365.32,-30.42"/>
<polygon fill="#63b8ff" stroke="#63b8ff" points="3585.41,-82.28 3575.41,-85.8 3585.42,-89.28 3585.41,-82.28"/>
</g>
<!-- Node35 -->
<g id="node34" class="node">
<title>Node35</title>
<g id="a_node34"><a xlink:href="CARDUnlock_8c.html" target="_top" xlink:title=" ">
<polygon fill="white" stroke="#666666" points="4642.5,-30 4487.5,-30 4487.5,-11 4642.5,-11 4642.5,-30"/>
<text text-anchor="middle" x="4565" y="-18" font-family="Helvetica,sans-Serif" font-size="10.00">libs/dolphin/card/CARDUnlock.c</text>
</a>
</g>
</g>
<!-- Node2&#45;&gt;Node35 -->
<g id="edge33" class="edge">
<title>Node2&#45;&gt;Node35</title>
<path fill="none" stroke="#63b8ff" d="M3585.09,-83.83C3777.47,-79.04 4305.41,-64.15 4478,-41 4495.8,-38.61 4515.33,-34.39 4531.37,-30.48"/>
<polygon fill="#63b8ff" stroke="#63b8ff" points="3585.15,-80.32 3575.24,-84.07 3585.32,-87.32 3585.15,-80.32"/>
</g>
<!-- Node36 -->
<g id="node35" class="node">
<title>Node36</title>
<g id="a_node35"><a xlink:href="db_8c.html" target="_top" xlink:title=" ">
<polygon fill="white" stroke="#666666" points="4761,-30 4661,-30 4661,-11 4761,-11 4761,-30"/>
<text text-anchor="middle" x="4711" y="-18" font-family="Helvetica,sans-Serif" font-size="10.00">libs/dolphin/db/db.c</text>
</a>
</g>
</g>
<!-- Node2&#45;&gt;Node36 -->
<g id="edge34" class="edge">
<title>Node2&#45;&gt;Node36</title>
<path fill="none" stroke="#63b8ff" d="M3585.4,-85.27C3801.29,-84.16 4445,-77.78 4651,-41 4663.72,-38.73 4677.47,-34.41 4688.58,-30.41"/>
<polygon fill="#63b8ff" stroke="#63b8ff" points="3585.42,-81.77 3575.44,-85.32 3585.45,-88.77 3585.42,-81.77"/>
</g>
<!-- Node37 -->
<g id="node36" class="node">
<title>Node37</title>
<g id="a_node36"><a xlink:href="dvd_8c.html" target="_top" xlink:title=" ">
<polygon fill="white" stroke="#666666" points="4889,-30 4779,-30 4779,-11 4889,-11 4889,-30"/>
<text text-anchor="middle" x="4834" y="-18" font-family="Helvetica,sans-Serif" font-size="10.00">libs/dolphin/dvd/dvd.c</text>
</a>
</g>
</g>
<!-- Node2&#45;&gt;Node37 -->
<g id="edge35" class="edge">
<title>Node2&#45;&gt;Node37</title>
<path fill="none" stroke="#63b8ff" d="M3584.9,-85.41C3815.02,-84.74 4539.45,-79.53 4770,-41 4783.52,-38.74 4798.17,-34.42 4810.04,-30.42"/>
<polygon fill="#63b8ff" stroke="#63b8ff" points="3585.18,-81.91 3575.19,-85.44 3585.2,-88.91 3585.18,-81.91"/>
</g>
<!-- Node38 -->
<g id="node37" class="node">
<title>Node38</title>
<g id="a_node37"><a xlink:href="dvdfs_8c.html" target="_top" xlink:title=" ">
<polygon fill="white" stroke="#666666" points="5026.5,-30 4907.5,-30 4907.5,-11 5026.5,-11 5026.5,-30"/>
<text text-anchor="middle" x="4967" y="-18" font-family="Helvetica,sans-Serif" font-size="10.00">libs/dolphin/dvd/dvdfs.c</text>
</a>
</g>
</g>
<!-- Node2&#45;&gt;Node38 -->
<g id="edge36" class="edge">
<title>Node2&#45;&gt;Node38</title>
<path fill="none" stroke="#63b8ff" d="M3584.94,-85.49C3830.16,-85.12 4641.05,-80.83 4898,-41 4912.52,-38.75 4928.31,-34.43 4941.12,-30.43"/>
<polygon fill="#63b8ff" stroke="#63b8ff" points="3585.2,-81.99 3575.2,-85.51 3585.21,-88.99 3585.2,-81.99"/>
</g>
<!-- Node39 -->
<g id="node38" class="node">
<title>Node39</title>
<g id="a_node38"><a xlink:href="fstload_8c.html" target="_top" xlink:title=" ">
<polygon fill="white" stroke="#666666" points="5169,-30 5045,-30 5045,-11 5169,-11 5169,-30"/>
<text text-anchor="middle" x="5107" y="-18" font-family="Helvetica,sans-Serif" font-size="10.00">libs/dolphin/dvd/fstload.c</text>
</a>
</g>
</g>
<!-- Node2&#45;&gt;Node39 -->
<g id="edge37" class="edge">
<title>Node2&#45;&gt;Node39</title>
<path fill="none" stroke="#63b8ff" d="M3584.84,-85.63C3845.35,-85.79 4749.82,-83.19 5035,-41 5050.12,-38.76 5066.6,-34.45 5079.97,-30.44"/>
<polygon fill="#63b8ff" stroke="#63b8ff" points="3585.17,-82.13 3575.17,-85.63 3585.17,-89.13 3585.17,-82.13"/>
</g>
<!-- Node40 -->
<g id="node39" class="node">
<title>Node40</title>
<g id="a_node39"><a xlink:href="EXIBios_8c.html" target="_top" xlink:title=" ">
<polygon fill="white" stroke="#666666" points="5313,-30 5187,-30 5187,-11 5313,-11 5313,-30"/>
<text text-anchor="middle" x="5250" y="-18" font-family="Helvetica,sans-Serif" font-size="10.00">libs/dolphin/exi/EXIBios.c</text>
</a>
</g>
</g>
<!-- Node2&#45;&gt;Node40 -->
<g id="edge38" class="edge">
<title>Node2&#45;&gt;Node40</title>
<path fill="none" stroke="#63b8ff" d="M3585.4,-85.85C3862.07,-86.84 4863.7,-87.09 5178,-41 5193.12,-38.78 5209.6,-34.47 5222.97,-30.46"/>
<polygon fill="#63b8ff" stroke="#63b8ff" points="3585.46,-82.35 3575.44,-85.81 3585.43,-89.35 3585.46,-82.35"/>
</g>
<!-- Node41 -->
<g id="node40" class="node">
<title>Node41</title>
<g id="a_node40"><a xlink:href="EXIUart_8c.html" target="_top" xlink:title=" ">
<polygon fill="white" stroke="#666666" points="5456.5,-30 5331.5,-30 5331.5,-11 5456.5,-11 5456.5,-30"/>
<text text-anchor="middle" x="5394" y="-18" font-family="Helvetica,sans-Serif" font-size="10.00">libs/dolphin/exi/EXIUart.c</text>
</a>
</g>
</g>
<!-- Node2&#45;&gt;Node41 -->
<g id="edge39" class="edge">
<title>Node2&#45;&gt;Node41</title>
<path fill="none" stroke="#63b8ff" d="M3585.16,-84.76C3898.59,-81.35 5148.3,-66.28 5322,-41 5337.12,-38.8 5353.6,-34.48 5366.97,-30.47"/>
<polygon fill="#63b8ff" stroke="#63b8ff" points="3585.44,-81.25 3575.48,-84.86 3585.52,-88.25 3585.44,-81.25"/>
</g>
<!-- Node42 -->
<g id="node41" class="node">
<title>Node42</title>
<g id="a_node41"><a xlink:href="OS_8c.html" target="_top" xlink:title=" ">
<polygon fill="white" stroke="#666666" points="5579,-30 5475,-30 5475,-11 5579,-11 5579,-30"/>
<text text-anchor="middle" x="5527" y="-18" font-family="Helvetica,sans-Serif" font-size="10.00">libs/dolphin/os/OS.c</text>
</a>
</g>
</g>
<!-- Node2&#45;&gt;Node42 -->
<g id="edge40" class="edge">
<title>Node2&#45;&gt;Node42</title>
<path fill="none" stroke="#63b8ff" d="M3585.12,-85.08C3913.85,-83 5278.04,-72.51 5466,-41 5478.94,-38.83 5492.91,-34.52 5504.21,-30.5"/>
<polygon fill="#63b8ff" stroke="#63b8ff" points="3585.36,-81.58 3575.38,-85.15 3585.4,-88.58 3585.36,-81.58"/>
</g>
<!-- Node43 -->
<g id="node42" class="node">
<title>Node43</title>
<g id="a_node42"><a xlink:href="OSAlarm_8c.html" target="_top" xlink:title=" ">
<polygon fill="white" stroke="#666666" points="5726.5,-30 5597.5,-30 5597.5,-11 5726.5,-11 5726.5,-30"/>
<text text-anchor="middle" x="5662" y="-18" font-family="Helvetica,sans-Serif" font-size="10.00">libs/dolphin/os/OSAlarm.c</text>
</a>
</g>
</g>
<!-- Node2&#45;&gt;Node43 -->
<g id="edge41" class="edge">
<title>Node2&#45;&gt;Node43</title>
<path fill="none" stroke="#63b8ff" d="M3585.3,-84.97C3926.76,-82.29 5386.66,-69.28 5588,-41 5603.52,-38.82 5620.46,-34.51 5634.21,-30.49"/>
<polygon fill="#63b8ff" stroke="#63b8ff" points="3585.35,-81.47 3575.38,-85.05 3585.41,-88.47 3585.35,-81.47"/>
</g>
<!-- Node44 -->
<g id="node43" class="node">
<title>Node44</title>
<g id="a_node43"><a xlink:href="OSCache_8c.html" target="_top" xlink:title=" ">
<polygon fill="white" stroke="#666666" points="5875.5,-30 5744.5,-30 5744.5,-11 5875.5,-11 5875.5,-30"/>
<text text-anchor="middle" x="5810" y="-18" font-family="Helvetica,sans-Serif" font-size="10.00">libs/dolphin/os/OSCache.c</text>
</a>
</g>
</g>
<!-- Node2&#45;&gt;Node44 -->
<g id="edge42" class="edge">
<title>Node2&#45;&gt;Node44</title>
<path fill="none" stroke="#63b8ff" d="M3585.42,-85.08C3941.79,-82.84 5519.28,-71.28 5736,-41 5751.53,-38.83 5768.46,-34.52 5782.21,-30.5"/>
<polygon fill="#63b8ff" stroke="#63b8ff" points="3585.49,-81.58 3575.51,-85.14 3585.53,-88.58 3585.49,-81.58"/>
</g>
<!-- Node45 -->
<g id="node44" class="node">
<title>Node45</title>
<g id="a_node44"><a xlink:href="OSContext_8c.html" target="_top" xlink:title=" ">
<polygon fill="white" stroke="#666666" points="6030.5,-30 5893.5,-30 5893.5,-11 6030.5,-11 6030.5,-30"/>
<text text-anchor="middle" x="5962" y="-18" font-family="Helvetica,sans-Serif" font-size="10.00">libs/dolphin/os/OSContext.c</text>
</a>
</g>
</g>
<!-- Node2&#45;&gt;Node45 -->
<g id="edge43" class="edge">
<title>Node2&#45;&gt;Node45</title>
<path fill="none" stroke="#63b8ff" d="M3585.05,-85.14C3954.98,-83.12 5652.52,-72.2 5885,-41 5901.26,-38.82 5919.05,-34.45 5933.42,-30.4"/>
<polygon fill="#63b8ff" stroke="#63b8ff" points="3585.22,-81.64 3575.24,-85.19 3585.26,-88.64 3585.22,-81.64"/>
</g>
<!-- Node46 -->
<g id="node45" class="node">
<title>Node46</title>
<g id="a_node45"><a xlink:href="OSError_8c.html" target="_top" xlink:title=" ">
<polygon fill="white" stroke="#666666" points="6173,-30 6049,-30 6049,-11 6173,-11 6173,-30"/>
<text text-anchor="middle" x="6111" y="-18" font-family="Helvetica,sans-Serif" font-size="10.00">libs/dolphin/os/OSError.c</text>
</a>
</g>
</g>
<!-- Node2&#45;&gt;Node46 -->
<g id="edge44" class="edge">
<title>Node2&#45;&gt;Node46</title>
<path fill="none" stroke="#63b8ff" d="M3585.31,-85.31C3970.2,-84.13 5791.72,-76.7 6040,-41 6055.06,-38.83 6071.46,-34.47 6084.7,-30.42"/>
<polygon fill="#63b8ff" stroke="#63b8ff" points="3585.31,-81.81 3575.32,-85.34 3585.33,-88.81 3585.31,-81.81"/>
</g>
<!-- Node47 -->
<g id="node46" class="node">
<title>Node47</title>
<g id="a_node46"><a xlink:href="OSInterrupt_8c.html" target="_top" xlink:title=" ">
<polygon fill="white" stroke="#666666" points="6331,-30 6191,-30 6191,-11 6331,-11 6331,-30"/>
<text text-anchor="middle" x="6261" y="-18" font-family="Helvetica,sans-Serif" font-size="10.00">libs/dolphin/os/OSInterrupt.c</text>
</a>
</g>
</g>
<!-- Node2&#45;&gt;Node47 -->
<g id="edge45" class="edge">
<title>Node2&#45;&gt;Node47</title>
<path fill="none" stroke="#63b8ff" d="M3585.12,-85.27C3982.38,-83.86 5918.37,-75.29 6182,-41 6198.67,-38.83 6216.91,-34.47 6231.66,-30.41"/>
<polygon fill="#63b8ff" stroke="#63b8ff" points="3585.32,-81.77 3575.33,-85.31 3585.35,-88.77 3585.32,-81.77"/>
</g>
<!-- Node2&#45;&gt;Node48 -->
<g id="edge46" class="edge">
<title>Node2&#45;&gt;Node48</title>
<path fill="none" stroke="#63b8ff" d="M3584.87,-85C4048.44,-81.71 6634.28,-62.41 6799,-41 6815.47,-38.86 6833.48,-34.49 6848.05,-30.44"/>
<polygon fill="#63b8ff" stroke="#63b8ff" points="3585.17,-81.5 3575.19,-85.07 3585.22,-88.5 3585.17,-81.5"/>
</g>
<!-- Node49 -->
<g id="node48" class="node">
<title>Node49</title>
<g id="a_node48"><a xlink:href="OSMutex_8c.html" target="_top" xlink:title=" ">
<polygon fill="white" stroke="#666666" points="6479,-30 6349,-30 6349,-11 6479,-11 6479,-30"/>
<text text-anchor="middle" x="6414" y="-18" font-family="Helvetica,sans-Serif" font-size="10.00">libs/dolphin/os/OSMutex.c</text>
</a>
</g>
</g>
<!-- Node2&#45;&gt;Node49 -->
<g id="edge47" class="edge">
<title>Node2&#45;&gt;Node49</title>
<path fill="none" stroke="#63b8ff" d="M3585.34,-85.41C3996.98,-84.74 6060.14,-79.5 6340,-41 6355.66,-38.85 6372.75,-34.48 6386.56,-30.43"/>
<polygon fill="#63b8ff" stroke="#63b8ff" points="3585.43,-81.91 3575.44,-85.42 3585.45,-88.91 3585.43,-81.91"/>
</g>
<!-- Node50 -->
<g id="node49" class="node">
<title>Node50</title>
<g id="a_node49"><a xlink:href="OSReset_8c.html" target="_top" xlink:title=" ">
<polygon fill="white" stroke="#666666" points="6626.5,-30 6497.5,-30 6497.5,-11 6626.5,-11 6626.5,-30"/>
<text text-anchor="middle" x="6562" y="-18" font-family="Helvetica,sans-Serif" font-size="10.00">libs/dolphin/os/OSReset.c</text>
</a>
</g>
</g>
<!-- Node2&#45;&gt;Node50 -->
<g id="edge48" class="edge">
<title>Node2&#45;&gt;Node50</title>
<path fill="none" stroke="#63b8ff" d="M3585.3,-85.47C4009.51,-85.15 6192.61,-81.52 6488,-41 6503.66,-38.85 6520.75,-34.49 6534.56,-30.43"/>
<polygon fill="#63b8ff" stroke="#63b8ff" points="3585.36,-81.97 3575.36,-85.48 3585.37,-88.97 3585.36,-81.97"/>
</g>
<!-- Node51 -->
<g id="node50" class="node">
<title>Node51</title>
<g id="a_node50"><a xlink:href="OSResetSW_8c.html" target="_top" xlink:title=" ">
<polygon fill="white" stroke="#666666" points="6789.5,-30 6644.5,-30 6644.5,-11 6789.5,-11 6789.5,-30"/>
<text text-anchor="middle" x="6717" y="-18" font-family="Helvetica,sans-Serif" font-size="10.00">libs/dolphin/os/OSResetSW.c</text>
</a>
</g>
</g>
<!-- Node2&#45;&gt;Node51 -->
<g id="edge49" class="edge">
<title>Node2&#45;&gt;Node51</title>
<path fill="none" stroke="#63b8ff" d="M3584.88,-84.94C4034.86,-81.3 6479.78,-60.67 6636,-41 6653.08,-38.85 6671.78,-34.49 6686.91,-30.43"/>
<polygon fill="#63b8ff" stroke="#63b8ff" points="3585.18,-81.43 3575.21,-85.01 3585.24,-88.43 3585.18,-81.43"/>
</g>
</g>
</svg>
        <g id="navigator" transform="translate(0 0)" fill="#404254">
                <rect fill="#f2f5e9" fill-opacity="0.5" stroke="#606060" stroke-width=".5" x="0" y="0" width="60" height="60"/>
                <use id="zoomplus" xlink:href="#zoomPlus" x="17" y="9" onmousedown="handleZoom(evt,'in')"/>
                <use id="zoomminus" xlink:href="#zoomMin" x="42" y="9" onmousedown="handleZoom(evt,'out')"/>
                <use id="reset" xlink:href="#resetDef" x="30" y="36" onmousedown="handleReset()"/>
                <g id="arrowUp" xlink:href="#dirArrow" transform="translate(30 24)" onmousedown="handlePan(0,-1)">
                  <use xlink:href="#rim" fill="#404040">
                        <set attributeName="fill" to="#808080" begin="arrowUp.mouseover" end="arrowUp.mouseout"/>
                  </use>
                  <path fill="none" stroke="white" stroke-width="1.5" d="M0,-3.0v7 M-2.5,-0.5L0,-3.0L2.5,-0.5"/>
                </g>
                <g id="arrowRight" xlink:href="#dirArrow" transform="rotate(90) translate(36 -43)" onmousedown="handlePan(1,0)">
                  <use xlink:href="#rim" fill="#404040">
                        <set attributeName="fill" to="#808080" begin="arrowRight.mouseover" end="arrowRight.mouseout"/>
                  </use>
                  <path fill="none" stroke="white" stroke-width="1.5" d="M0,-3.0v7 M-2.5,-0.5L0,-3.0L2.5,-0.5"/>
                </g>
                <g id="arrowDown" xlink:href="#dirArrow" transform="rotate(180) translate(-30 -48)" onmousedown="handlePan(0,1)">
                  <use xlink:href="#rim" fill="#404040">
                        <set attributeName="fill" to="#808080" begin="arrowDown.mouseover" end="arrowDown.mouseout"/>
                  </use>
                  <path fill="none" stroke="white" stroke-width="1.5" d="M0,-3.0v7 M-2.5,-0.5L0,-3.0L2.5,-0.5"/>
                </g>
                <g id="arrowLeft" xlink:href="#dirArrow" transform="rotate(270) translate(-36 17)" onmousedown="handlePan(-1,0)">
                  <use xlink:href="#rim" fill="#404040">
                        <set attributeName="fill" to="#808080" begin="arrowLeft.mouseover" end="arrowLeft.mouseout"/>
                  </use>
                  <path fill="none" stroke="white" stroke-width="1.5" d="M0,-3.0v7 M-2.5,-0.5L0,-3.0L2.5,-0.5"/>
                </g>
        </g>
        <svg viewBox="0 0 15 15" width="100%" height="30px" preserveAspectRatio="xMaxYMin meet">
         <g id="arrow_out" transform="scale(0.3 0.3)">
          <a xlink:href="OSMemory_8h__dep__incl_org.svg" target="_base">
           <rect id="button" ry="5" rx="5" y="6" x="6" height="38" width="38"
                fill="#f2f5e9" fill-opacity="0.5" stroke="#606060" stroke-width="1.0"/>
           <path id="arrow"
             d="M 11.500037,31.436501 C 11.940474,20.09759 22.043105,11.32322 32.158766,21.979434 L 37.068811,17.246167 C 37.068811,17.246167 37.088388,32 37.088388,32 L 22.160133,31.978069 C 22.160133,31.978069 26.997745,27.140456 26.997745,27.140456 C 18.528582,18.264221 13.291696,25.230495 11.500037,31.436501 z"
             style="fill:#404040;"/>
          </a>
         </g>
        </svg>
</svg>
