<?xml version="1.0" encoding="UTF-8" standalone="no"?>
<!DOCTYPE svg PUBLIC "-//W3C//DTD SVG 1.1//EN"
 "http://www.w3.org/Graphics/SVG/1.1/DTD/svg11.dtd">
<!-- Generated by graphviz version 7.0.5 (20221223.1930)
 -->
<!-- Title: include/dolphin/os/OSReset.h Pages: 1 -->
<svg width="6806pt" height="170pt"
 viewBox="0.00 0.00 6806.00 170.00" xmlns="http://www.w3.org/2000/svg" xmlns:xlink="http://www.w3.org/1999/xlink">
<g id="graph0" class="graph" transform="scale(1 1) rotate(0) translate(4 166)">
<title>include/dolphin/os/OSReset.h</title>
<!-- Node1 -->
<g id="node1" class="node">
<title>Node1</title>
<g id="a_node1"><a xlink:title=" ">
<polygon fill="#999999" stroke="#666666" points="6485,-162 6390,-162 6390,-132 6485,-132 6485,-162"/>
<text text-anchor="start" x="6398" y="-150" font-family="Helvetica,sans-Serif" font-size="10.00">include/dolphin/os</text>
<text text-anchor="middle" x="6437.5" y="-139" font-family="Helvetica,sans-Serif" font-size="10.00">/OSReset.h</text>
</a>
</g>
</g>
<!-- Node2 -->
<g id="node2" class="node">
<title>Node2</title>
<g id="a_node2"><a xlink:href="OS_8h.html" target="_top" xlink:title=" ">
<polygon fill="#fff0f0" stroke="red" points="3364,-96 3245,-96 3245,-77 3364,-77 3364,-96"/>
<text text-anchor="middle" x="3304.5" y="-84" font-family="Helvetica,sans-Serif" font-size="10.00">include/dolphin/os/OS.h</text>
</a>
</g>
</g>
<!-- Node1&#45;&gt;Node2 -->
<g id="edge1" class="edge">
<title>Node1&#45;&gt;Node2</title>
<path fill="none" stroke="#63b8ff" d="M6378.18,-144.89C5985.11,-137.55 3759.41,-95.99 3364.43,-88.62"/>
<polygon fill="#63b8ff" stroke="#63b8ff" points="6377.96,-148.39 6388.03,-145.08 6378.1,-141.39 6377.96,-148.39"/>
</g>
<!-- Node43 -->
<g id="node42" class="node">
<title>Node43</title>
<g id="a_node42"><a xlink:href="OSAlarm_8c.html" target="_top" xlink:title=" ">
<polygon fill="white" stroke="#666666" points="6331,-30 6202,-30 6202,-11 6331,-11 6331,-30"/>
<text text-anchor="middle" x="6266.5" y="-18" font-family="Helvetica,sans-Serif" font-size="10.00">libs/dolphin/os/OSAlarm.c</text>
</a>
</g>
</g>
<!-- Node1&#45;&gt;Node43 -->
<g id="edge50" class="edge">
<title>Node1&#45;&gt;Node43</title>
<path fill="none" stroke="#63b8ff" d="M6408.87,-125.15C6370.93,-97.53 6305.66,-50.01 6278.7,-30.38"/>
<polygon fill="#63b8ff" stroke="#63b8ff" points="6406.52,-127.77 6416.66,-130.83 6410.64,-122.11 6406.52,-127.77"/>
</g>
<!-- Node48 -->
<g id="node47" class="node">
<title>Node48</title>
<g id="a_node47"><a xlink:href="OSMemory_8c.html" target="_top" xlink:title=" ">
<polygon fill="white" stroke="#666666" points="6487.5,-30 6349.5,-30 6349.5,-11 6487.5,-11 6487.5,-30"/>
<text text-anchor="middle" x="6418.5" y="-18" font-family="Helvetica,sans-Serif" font-size="10.00">libs/dolphin/os/OSMemory.c</text>
</a>
</g>
</g>
<!-- Node1&#45;&gt;Node48 -->
<g id="edge51" class="edge">
<title>Node1&#45;&gt;Node48</title>
<path fill="none" stroke="#63b8ff" d="M6433.6,-120.42C6429.32,-92.38 6422.69,-48.93 6419.86,-30.38"/>
<polygon fill="#63b8ff" stroke="#63b8ff" points="6430.12,-120.86 6435.09,-130.22 6437.04,-119.81 6430.12,-120.86"/>
</g>
<!-- Node50 -->
<g id="node48" class="node">
<title>Node50</title>
<g id="a_node48"><a xlink:href="OSReset_8c.html" target="_top" xlink:title=" ">
<polygon fill="white" stroke="#666666" points="6635,-30 6506,-30 6506,-11 6635,-11 6635,-30"/>
<text text-anchor="middle" x="6570.5" y="-18" font-family="Helvetica,sans-Serif" font-size="10.00">libs/dolphin/os/OSReset.c</text>
</a>
</g>
</g>
<!-- Node1&#45;&gt;Node50 -->
<g id="edge52" class="edge">
<title>Node1&#45;&gt;Node50</title>
<path fill="none" stroke="#63b8ff" d="M6449.06,-121.68C6456.63,-107.51 6467.51,-89.93 6480.5,-77 6501.19,-56.41 6530.9,-39.99 6550.44,-30.5"/>
<polygon fill="#63b8ff" stroke="#63b8ff" points="6446.05,-119.88 6444.63,-130.38 6452.29,-123.05 6446.05,-119.88"/>
</g>
<!-- Node51 -->
<g id="node49" class="node">
<title>Node51</title>
<g id="a_node49"><a xlink:href="OSResetSW_8c.html" target="_top" xlink:title=" ">
<polygon fill="white" stroke="#666666" points="6798,-30 6653,-30 6653,-11 6798,-11 6798,-30"/>
<text text-anchor="middle" x="6725.5" y="-18" font-family="Helvetica,sans-Serif" font-size="10.00">libs/dolphin/os/OSResetSW.c</text>
</a>
</g>
</g>
<!-- Node1&#45;&gt;Node51 -->
<g id="edge53" class="edge">
<title>Node1&#45;&gt;Node51</title>
<path fill="none" stroke="#63b8ff" d="M6457.36,-123.27C6471.79,-108.09 6492.57,-88.81 6514.5,-77 6522.32,-72.79 6631.87,-44.98 6689.94,-30.39"/>
<polygon fill="#63b8ff" stroke="#63b8ff" points="6454.86,-120.81 6450.66,-130.54 6460.01,-125.56 6454.86,-120.81"/>
</g>
<!-- Node89 -->
<g id="node50" class="node">
<title>Node89</title>
<g id="a_node50"><a xlink:href="dvdlow_8c.html" target="_top" xlink:title=" ">
<polygon fill="white" stroke="#666666" points="6648,-96 6523,-96 6523,-77 6648,-77 6648,-96"/>
<text text-anchor="middle" x="6585.5" y="-84" font-family="Helvetica,sans-Serif" font-size="10.00">libs/dolphin/dvd/dvdlow.c</text>
</a>
</g>
</g>
<!-- Node1&#45;&gt;Node89 -->
<g id="edge49" class="edge">
<title>Node1&#45;&gt;Node89</title>
<path fill="none" stroke="#63b8ff" d="M6484.6,-127.38C6510.88,-117 6542.39,-104.54 6563.12,-96.35"/>
<polygon fill="#63b8ff" stroke="#63b8ff" points="6483.51,-124.05 6475.49,-130.98 6486.08,-130.56 6483.51,-124.05"/>
</g>
<!-- Node3 -->
<g id="node3" class="node">
<title>Node3</title>
<g id="a_node3"><a xlink:href="dolphin__trk__glue_8h.html" target="_top" xlink:title=" ">
<polygon fill="#fff0f0" stroke="red" points="4445.5,-41 4327.5,-41 4327.5,0 4445.5,0 4445.5,-41"/>
<text text-anchor="start" x="4335.5" y="-29" font-family="Helvetica,sans-Serif" font-size="10.00">include/TRK_MINNOW</text>
<text text-anchor="start" x="4335.5" y="-18" font-family="Helvetica,sans-Serif" font-size="10.00">_DOLPHIN/Os/dolphin</text>
<text text-anchor="middle" x="4386.5" y="-7" font-family="Helvetica,sans-Serif" font-size="10.00">/dolphin_trk_glue.h</text>
</a>
</g>
</g>
<!-- Node2&#45;&gt;Node3 -->
<g id="edge2" class="edge">
<title>Node2&#45;&gt;Node3</title>
<path fill="none" stroke="#63b8ff" d="M3375.86,-84.55C3575.46,-81.55 4136.68,-70.63 4318.5,-41 4321.41,-40.53 4324.37,-39.97 4327.35,-39.35"/>
<polygon fill="#63b8ff" stroke="#63b8ff" points="3375.83,-81.05 3365.89,-84.7 3375.94,-88.05 3375.83,-81.05"/>
</g>
<!-- Node5 -->
<g id="node4" class="node">
<title>Node5</title>
<g id="a_node4"><a xlink:href="J2DAnimation_8cpp.html" target="_top" xlink:title=" ">
<polygon fill="white" stroke="#666666" points="4583,-35.5 4464,-35.5 4464,-5.5 4583,-5.5 4583,-35.5"/>
<text text-anchor="start" x="4472" y="-23.5" font-family="Helvetica,sans-Serif" font-size="10.00">libs/JSystem/J2DGraph</text>
<text text-anchor="middle" x="4523.5" y="-12.5" font-family="Helvetica,sans-Serif" font-size="10.00">/J2DAnimation.cpp</text>
</a>
</g>
</g>
<!-- Node2&#45;&gt;Node5 -->
<g id="edge3" class="edge">
<title>Node2&#45;&gt;Node5</title>
<path fill="none" stroke="#63b8ff" d="M3375.58,-84.95C3592.68,-82.92 4245.12,-74.16 4454.5,-41 4462.25,-39.77 4470.36,-37.97 4478.19,-35.95"/>
<polygon fill="#63b8ff" stroke="#63b8ff" points="3375.83,-81.45 3365.86,-85.04 3375.89,-88.45 3375.83,-81.45"/>
</g>
<!-- Node6 -->
<g id="node5" class="node">
<title>Node6</title>
<g id="a_node5"><a xlink:href="J3DModel_8cpp.html" target="_top" xlink:title=" ">
<polygon fill="white" stroke="#666666" points="4759.5,-35.5 4601.5,-35.5 4601.5,-5.5 4759.5,-5.5 4759.5,-35.5"/>
<text text-anchor="start" x="4609.5" y="-23.5" font-family="Helvetica,sans-Serif" font-size="10.00">libs/JSystem/J3DGraphAnimator</text>
<text text-anchor="middle" x="4680.5" y="-12.5" font-family="Helvetica,sans-Serif" font-size="10.00">/J3DModel.cpp</text>
</a>
</g>
</g>
<!-- Node2&#45;&gt;Node6 -->
<g id="edge4" class="edge">
<title>Node2&#45;&gt;Node6</title>
<path fill="none" stroke="#63b8ff" d="M3375.83,-84.74C3609.94,-81.96 4353.45,-70.94 4591.5,-41 4601.39,-39.76 4611.8,-37.94 4621.88,-35.92"/>
<polygon fill="#63b8ff" stroke="#63b8ff" points="3375.88,-81.23 3365.93,-84.85 3375.97,-88.23 3375.88,-81.23"/>
</g>
<!-- Node7 -->
<g id="node6" class="node">
<title>Node7</title>
<g id="a_node6"><a xlink:href="J3DModelData_8cpp.html" target="_top" xlink:title=" ">
<polygon fill="white" stroke="#666666" points="4935.5,-35.5 4777.5,-35.5 4777.5,-5.5 4935.5,-5.5 4935.5,-35.5"/>
<text text-anchor="start" x="4785.5" y="-23.5" font-family="Helvetica,sans-Serif" font-size="10.00">libs/JSystem/J3DGraphAnimator</text>
<text text-anchor="middle" x="4856.5" y="-12.5" font-family="Helvetica,sans-Serif" font-size="10.00">/J3DModelData.cpp</text>
</a>
</g>
</g>
<!-- Node2&#45;&gt;Node7 -->
<g id="edge5" class="edge">
<title>Node2&#45;&gt;Node7</title>
<path fill="none" stroke="#63b8ff" d="M3375.58,-85.11C3629.92,-83.42 4494.21,-75.25 4768.5,-41 4778.28,-39.78 4788.58,-37.98 4798.55,-35.96"/>
<polygon fill="#63b8ff" stroke="#63b8ff" points="3375.78,-81.6 3365.8,-85.17 3375.82,-88.6 3375.78,-81.6"/>
</g>
<!-- Node8 -->
<g id="node7" class="node">
<title>Node8</title>
<g id="a_node7"><a xlink:href="J3DSkinDeform_8cpp.html" target="_top" xlink:title=" ">
<polygon fill="white" stroke="#666666" points="5111.5,-35.5 4953.5,-35.5 4953.5,-5.5 5111.5,-5.5 5111.5,-35.5"/>
<text text-anchor="start" x="4961.5" y="-23.5" font-family="Helvetica,sans-Serif" font-size="10.00">libs/JSystem/J3DGraphAnimator</text>
<text text-anchor="middle" x="5032.5" y="-12.5" font-family="Helvetica,sans-Serif" font-size="10.00">/J3DSkinDeform.cpp</text>
</a>
</g>
</g>
<!-- Node2&#45;&gt;Node8 -->
<g id="edge6" class="edge">
<title>Node2&#45;&gt;Node8</title>
<path fill="none" stroke="#63b8ff" d="M3375.73,-85.38C3649.49,-84.62 4634.11,-79.24 4944.5,-41 4954.28,-39.79 4964.58,-38 4974.55,-35.98"/>
<polygon fill="#63b8ff" stroke="#63b8ff" points="3375.88,-81.88 3365.89,-85.4 3375.9,-88.88 3375.88,-81.88"/>
</g>
<!-- Node9 -->
<g id="node8" class="node">
<title>Node9</title>
<g id="a_node8"><a xlink:href="J3DMatBlock_8cpp.html" target="_top" xlink:title=" ">
<polygon fill="white" stroke="#666666" points="5271.5,-35.5 5129.5,-35.5 5129.5,-5.5 5271.5,-5.5 5271.5,-35.5"/>
<text text-anchor="start" x="5137.5" y="-23.5" font-family="Helvetica,sans-Serif" font-size="10.00">libs/JSystem/J3DGraphBase</text>
<text text-anchor="middle" x="5200.5" y="-12.5" font-family="Helvetica,sans-Serif" font-size="10.00">/J3DMatBlock.cpp</text>
</a>
</g>
</g>
<!-- Node2&#45;&gt;Node9 -->
<g id="edge7" class="edge">
<title>Node2&#45;&gt;Node9</title>
<path fill="none" stroke="#63b8ff" d="M3375.53,-85.79C3667.26,-86.69 4774.19,-86.91 5120.5,-41 5129.57,-39.8 5139.1,-37.98 5148.31,-35.92"/>
<polygon fill="#63b8ff" stroke="#63b8ff" points="3375.8,-82.29 3365.79,-85.76 3375.78,-89.29 3375.8,-82.29"/>
</g>
<!-- Node10 -->
<g id="node9" class="node">
<title>Node10</title>
<g id="a_node9"><a xlink:href="J3DShape_8cpp.html" target="_top" xlink:title=" ">
<polygon fill="white" stroke="#666666" points="5431.5,-35.5 5289.5,-35.5 5289.5,-5.5 5431.5,-5.5 5431.5,-35.5"/>
<text text-anchor="start" x="5297.5" y="-23.5" font-family="Helvetica,sans-Serif" font-size="10.00">libs/JSystem/J3DGraphBase</text>
<text text-anchor="middle" x="5360.5" y="-12.5" font-family="Helvetica,sans-Serif" font-size="10.00">/J3DShape.cpp</text>
</a>
</g>
</g>
<!-- Node2&#45;&gt;Node10 -->
<g id="edge8" class="edge">
<title>Node2&#45;&gt;Node10</title>
<path fill="none" stroke="#63b8ff" d="M3375.63,-84.81C3706.74,-81.48 5089.06,-66.18 5280.5,-41 5289.57,-39.81 5299.11,-37.99 5308.31,-35.94"/>
<polygon fill="#63b8ff" stroke="#63b8ff" points="3375.78,-81.31 3365.81,-84.91 3375.85,-88.31 3375.78,-81.31"/>
</g>
<!-- Node11 -->
<g id="node10" class="node">
<title>Node11</title>
<g id="a_node10"><a xlink:href="J3DSys_8cpp.html" target="_top" xlink:title=" ">
<polygon fill="white" stroke="#666666" points="5591.5,-35.5 5449.5,-35.5 5449.5,-5.5 5591.5,-5.5 5591.5,-35.5"/>
<text text-anchor="start" x="5457.5" y="-23.5" font-family="Helvetica,sans-Serif" font-size="10.00">libs/JSystem/J3DGraphBase</text>
<text text-anchor="middle" x="5520.5" y="-12.5" font-family="Helvetica,sans-Serif" font-size="10.00">/J3DSys.cpp</text>
</a>
</g>
</g>
<!-- Node2&#45;&gt;Node11 -->
<g id="edge9" class="edge">
<title>Node2&#45;&gt;Node11</title>
<path fill="none" stroke="#63b8ff" d="M3375.66,-84.94C3723.03,-82.08 5232.42,-68.2 5440.5,-41 5449.57,-39.81 5459.11,-38 5468.31,-35.95"/>
<polygon fill="#63b8ff" stroke="#63b8ff" points="3375.76,-81.44 3365.79,-85.02 3375.81,-88.44 3375.76,-81.44"/>
</g>
<!-- Node12 -->
<g id="node11" class="node">
<title>Node12</title>
<g id="a_node11"><a xlink:href="J3DClusterLoader_8cpp.html" target="_top" xlink:title=" ">
<polygon fill="white" stroke="#666666" points="5759,-35.5 5610,-35.5 5610,-5.5 5759,-5.5 5759,-35.5"/>
<text text-anchor="start" x="5618" y="-23.5" font-family="Helvetica,sans-Serif" font-size="10.00">libs/JSystem/J3DGraphLoader</text>
<text text-anchor="middle" x="5684.5" y="-12.5" font-family="Helvetica,sans-Serif" font-size="10.00">/J3DClusterLoader.cpp</text>
</a>
</g>
</g>
<!-- Node2&#45;&gt;Node12 -->
<g id="edge10" class="edge">
<title>Node2&#45;&gt;Node12</title>
<path fill="none" stroke="#63b8ff" d="M3375.62,-85.01C3738.52,-82.36 5375.57,-68.98 5600.5,-41 5610.01,-39.82 5620.01,-38.01 5629.67,-35.96"/>
<polygon fill="#63b8ff" stroke="#63b8ff" points="3375.74,-81.5 3365.76,-85.08 3375.79,-88.5 3375.74,-81.5"/>
</g>
<!-- Node13 -->
<g id="node12" class="node">
<title>Node13</title>
<g id="a_node12"><a xlink:href="J3DShapeFactory_8cpp.html" target="_top" xlink:title=" ">
<polygon fill="white" stroke="#666666" points="5926,-35.5 5777,-35.5 5777,-5.5 5926,-5.5 5926,-35.5"/>
<text text-anchor="start" x="5785" y="-23.5" font-family="Helvetica,sans-Serif" font-size="10.00">libs/JSystem/J3DGraphLoader</text>
<text text-anchor="middle" x="5851.5" y="-12.5" font-family="Helvetica,sans-Serif" font-size="10.00">/J3DShapeFactory.cpp</text>
</a>
</g>
</g>
<!-- Node2&#45;&gt;Node13 -->
<g id="edge11" class="edge">
<title>Node2&#45;&gt;Node13</title>
<path fill="none" stroke="#63b8ff" d="M3375.53,-85.11C3753.99,-82.89 5525.1,-70.99 5767.5,-41 5777.01,-39.82 5787.01,-38.02 5796.67,-35.97"/>
<polygon fill="#63b8ff" stroke="#63b8ff" points="3375.72,-81.61 3365.74,-85.16 3375.76,-88.61 3375.72,-81.61"/>
</g>
<!-- Node14 -->
<g id="node13" class="node">
<title>Node14</title>
<g id="a_node13"><a xlink:href="JASAudioThread_8cpp.html" target="_top" xlink:title=" ">
<polygon fill="white" stroke="#666666" points="6055,-35.5 5944,-35.5 5944,-5.5 6055,-5.5 6055,-35.5"/>
<text text-anchor="start" x="5952" y="-23.5" font-family="Helvetica,sans-Serif" font-size="10.00">libs/JSystem/JAudio2</text>
<text text-anchor="middle" x="5999.5" y="-12.5" font-family="Helvetica,sans-Serif" font-size="10.00">/JASAudioThread.cpp</text>
</a>
</g>
</g>
<!-- Node2&#45;&gt;Node14 -->
<g id="edge12" class="edge">
<title>Node2&#45;&gt;Node14</title>
<path fill="none" stroke="#63b8ff" d="M3375.88,-85.46C3770.43,-85.09 5675.82,-81.2 5934.5,-41 5941.95,-39.84 5949.74,-38.04 5957.23,-36"/>
<polygon fill="#63b8ff" stroke="#63b8ff" points="3375.89,-81.96 3365.9,-85.47 3375.9,-88.96 3375.89,-81.96"/>
</g>
<!-- Node15 -->
<g id="node14" class="node">
<title>Node15</title>
<g id="a_node14"><a xlink:href="JASProbe_8cpp.html" target="_top" xlink:title=" ">
<polygon fill="white" stroke="#666666" points="6184,-35.5 6073,-35.5 6073,-5.5 6184,-5.5 6184,-35.5"/>
<text text-anchor="start" x="6081" y="-23.5" font-family="Helvetica,sans-Serif" font-size="10.00">libs/JSystem/JAudio2</text>
<text text-anchor="middle" x="6128.5" y="-12.5" font-family="Helvetica,sans-Serif" font-size="10.00">/JASProbe.cpp</text>
</a>
</g>
</g>
<!-- Node2&#45;&gt;Node15 -->
<g id="edge13" class="edge">
<title>Node2&#45;&gt;Node15</title>
<path fill="none" stroke="#63b8ff" d="M3375.47,-85.52C3780.5,-85.49 5791.25,-83.2 6063.5,-41 6071.07,-39.83 6078.98,-37.99 6086.58,-35.91"/>
<polygon fill="#63b8ff" stroke="#63b8ff" points="3375.75,-82.02 3365.75,-85.52 3375.75,-89.02 3375.75,-82.02"/>
</g>
<!-- Node16 -->
<g id="node15" class="node">
<title>Node16</title>
<g id="a_node15"><a xlink:href="dsptask_8cpp.html" target="_top" xlink:title=" ">
<polygon fill="white" stroke="#666666" points="111,-35.5 0,-35.5 0,-5.5 111,-5.5 111,-35.5"/>
<text text-anchor="start" x="8" y="-23.5" font-family="Helvetica,sans-Serif" font-size="10.00">libs/JSystem/JAudio2</text>
<text text-anchor="middle" x="55.5" y="-12.5" font-family="Helvetica,sans-Serif" font-size="10.00">/dsptask.cpp</text>
</a>
</g>
</g>
<!-- Node2&#45;&gt;Node16 -->
<g id="edge14" class="edge">
<title>Node2&#45;&gt;Node16</title>
<path fill="none" stroke="#63b8ff" d="M3233.45,-85.71C2792.31,-86.83 436.24,-90.45 119.5,-41 112.04,-39.84 104.24,-38.01 96.76,-35.92"/>
<polygon fill="#63b8ff" stroke="#63b8ff" points="3233.23,-89.21 3243.22,-85.68 3233.21,-82.21 3233.23,-89.21"/>
</g>
<!-- Node17 -->
<g id="node16" class="node">
<title>Node17</title>
<g id="a_node16"><a xlink:href="osdsp_8cpp.html" target="_top" xlink:title=" ">
<polygon fill="white" stroke="#666666" points="240,-35.5 129,-35.5 129,-5.5 240,-5.5 240,-35.5"/>
<text text-anchor="start" x="137" y="-23.5" font-family="Helvetica,sans-Serif" font-size="10.00">libs/JSystem/JAudio2</text>
<text text-anchor="middle" x="184.5" y="-12.5" font-family="Helvetica,sans-Serif" font-size="10.00">/osdsp.cpp</text>
</a>
</g>
</g>
<!-- Node2&#45;&gt;Node17 -->
<g id="edge15" class="edge">
<title>Node2&#45;&gt;Node17</title>
<path fill="none" stroke="#63b8ff" d="M3233.3,-85.64C2802.48,-86.35 552.68,-87.76 249.5,-41 241.93,-39.83 234.02,-38 226.42,-35.92"/>
<polygon fill="#63b8ff" stroke="#63b8ff" points="3233.11,-89.14 3243.11,-85.63 3233.1,-82.14 3233.11,-89.14"/>
</g>
<!-- Node18 -->
<g id="node17" class="node">
<title>Node18</title>
<g id="a_node17"><a xlink:href="JFWDisplay_8cpp.html" target="_top" xlink:title=" ">
<polygon fill="white" stroke="#666666" points="388.5,-35.5 258.5,-35.5 258.5,-5.5 388.5,-5.5 388.5,-35.5"/>
<text text-anchor="start" x="266.5" y="-23.5" font-family="Helvetica,sans-Serif" font-size="10.00">libs/JSystem/JFramework</text>
<text text-anchor="middle" x="323.5" y="-12.5" font-family="Helvetica,sans-Serif" font-size="10.00">/JFWDisplay.cpp</text>
</a>
</g>
</g>
<!-- Node2&#45;&gt;Node18 -->
<g id="edge16" class="edge">
<title>Node2&#45;&gt;Node18</title>
<path fill="none" stroke="#63b8ff" d="M3233.46,-85.44C2815.58,-84.97 685.92,-80.61 397.5,-41 388.94,-39.83 379.96,-37.99 371.32,-35.9"/>
<polygon fill="#63b8ff" stroke="#63b8ff" points="3233.23,-88.94 3243.24,-85.45 3233.24,-81.94 3233.23,-88.94"/>
</g>
<!-- Node19 -->
<g id="node18" class="node">
<title>Node19</title>
<g id="a_node18"><a xlink:href="JKRAramPiece_8cpp.html" target="_top" xlink:title=" ">
<polygon fill="white" stroke="#666666" points="516,-35.5 407,-35.5 407,-5.5 516,-5.5 516,-35.5"/>
<text text-anchor="start" x="415" y="-23.5" font-family="Helvetica,sans-Serif" font-size="10.00">libs/JSystem/JKernel</text>
<text text-anchor="middle" x="461.5" y="-12.5" font-family="Helvetica,sans-Serif" font-size="10.00">/JKRAramPiece.cpp</text>
</a>
</g>
</g>
<!-- Node2&#45;&gt;Node19 -->
<g id="edge17" class="edge">
<title>Node2&#45;&gt;Node19</title>
<path fill="none" stroke="#63b8ff" d="M3233.31,-85.57C2825.93,-85.8 798.71,-84.71 524.5,-41 517.15,-39.83 509.47,-37.99 502.1,-35.91"/>
<polygon fill="#63b8ff" stroke="#63b8ff" points="3233.1,-89.07 3243.1,-85.56 3233.1,-82.07 3233.1,-89.07"/>
</g>
<!-- Node20 -->
<g id="node19" class="node">
<title>Node20</title>
<g id="a_node19"><a xlink:href="JKRDvdArchive_8cpp.html" target="_top" xlink:title=" ">
<polygon fill="white" stroke="#666666" points="643,-35.5 534,-35.5 534,-5.5 643,-5.5 643,-35.5"/>
<text text-anchor="start" x="542" y="-23.5" font-family="Helvetica,sans-Serif" font-size="10.00">libs/JSystem/JKernel</text>
<text text-anchor="middle" x="588.5" y="-12.5" font-family="Helvetica,sans-Serif" font-size="10.00">/JKRDvdArchive.cpp</text>
</a>
</g>
</g>
<!-- Node2&#45;&gt;Node20 -->
<g id="edge18" class="edge">
<title>Node2&#45;&gt;Node20</title>
<path fill="none" stroke="#63b8ff" d="M3233.42,-85.51C2837.49,-85.4 912.47,-82.71 651.5,-41 644.15,-39.83 636.47,-37.99 629.11,-35.91"/>
<polygon fill="#63b8ff" stroke="#63b8ff" points="3233.17,-89.01 3243.17,-85.51 3233.17,-82.01 3233.17,-89.01"/>
</g>
<!-- Node21 -->
<g id="node20" class="node">
<title>Node21</title>
<g id="a_node20"><a xlink:href="JKRHeap_8cpp.html" target="_top" xlink:title=" ">
<polygon fill="white" stroke="#666666" points="770,-35.5 661,-35.5 661,-5.5 770,-5.5 770,-35.5"/>
<text text-anchor="start" x="669" y="-23.5" font-family="Helvetica,sans-Serif" font-size="10.00">libs/JSystem/JKernel</text>
<text text-anchor="middle" x="715.5" y="-12.5" font-family="Helvetica,sans-Serif" font-size="10.00">/JKRHeap.cpp</text>
</a>
</g>
</g>
<!-- Node2&#45;&gt;Node21 -->
<g id="edge19" class="edge">
<title>Node2&#45;&gt;Node21</title>
<path fill="none" stroke="#63b8ff" d="M3233.21,-85.42C2848.37,-84.86 1027.16,-80.13 779.5,-41 772.16,-39.84 764.49,-38.04 757.11,-36"/>
<polygon fill="#63b8ff" stroke="#63b8ff" points="3233.18,-88.92 3243.19,-85.44 3233.19,-81.92 3233.18,-88.92"/>
</g>
<!-- Node22 -->
<g id="node21" class="node">
<title>Node22</title>
<g id="a_node21"><a xlink:href="JPAChildShape_8cpp.html" target="_top" xlink:title=" ">
<polygon fill="white" stroke="#666666" points="902.5,-35.5 788.5,-35.5 788.5,-5.5 902.5,-5.5 902.5,-35.5"/>
<text text-anchor="start" x="796.5" y="-23.5" font-family="Helvetica,sans-Serif" font-size="10.00">libs/JSystem/JParticle</text>
<text text-anchor="middle" x="845.5" y="-12.5" font-family="Helvetica,sans-Serif" font-size="10.00">/JPAChildShape.cpp</text>
</a>
</g>
</g>
<!-- Node2&#45;&gt;Node22 -->
<g id="edge20" class="edge">
<title>Node2&#45;&gt;Node22</title>
<path fill="none" stroke="#63b8ff" d="M3233.37,-85.31C2861.14,-84.19 1145.6,-77.08 911.5,-41 903.94,-39.84 896.04,-38.03 888.43,-35.99"/>
<polygon fill="#63b8ff" stroke="#63b8ff" points="3233.24,-88.81 3243.25,-85.34 3233.26,-81.81 3233.24,-88.81"/>
</g>
<!-- Node23 -->
<g id="node22" class="node">
<title>Node23</title>
<g id="a_node22"><a xlink:href="JPAExtraShape_8cpp.html" target="_top" xlink:title=" ">
<polygon fill="white" stroke="#666666" points="1034.5,-35.5 920.5,-35.5 920.5,-5.5 1034.5,-5.5 1034.5,-35.5"/>
<text text-anchor="start" x="928.5" y="-23.5" font-family="Helvetica,sans-Serif" font-size="10.00">libs/JSystem/JParticle</text>
<text text-anchor="middle" x="977.5" y="-12.5" font-family="Helvetica,sans-Serif" font-size="10.00">/JPAExtraShape.cpp</text>
</a>
</g>
</g>
<!-- Node2&#45;&gt;Node23 -->
<g id="edge21" class="edge">
<title>Node2&#45;&gt;Node23</title>
<path fill="none" stroke="#63b8ff" d="M3233.26,-85.23C2873.39,-83.72 1263.84,-75.09 1043.5,-41 1035.94,-39.83 1028.04,-38.03 1020.44,-35.98"/>
<polygon fill="#63b8ff" stroke="#63b8ff" points="3233.01,-88.73 3243.03,-85.27 3233.04,-81.73 3233.01,-88.73"/>
</g>
<!-- Node24 -->
<g id="node23" class="node">
<title>Node24</title>
<g id="a_node23"><a xlink:href="JUTConsole_8cpp.html" target="_top" xlink:title=" ">
<polygon fill="white" stroke="#666666" points="1158.5,-35.5 1052.5,-35.5 1052.5,-5.5 1158.5,-5.5 1158.5,-35.5"/>
<text text-anchor="start" x="1060.5" y="-23.5" font-family="Helvetica,sans-Serif" font-size="10.00">libs/JSystem/JUtility</text>
<text text-anchor="middle" x="1105.5" y="-12.5" font-family="Helvetica,sans-Serif" font-size="10.00">/JUTConsole.cpp</text>
</a>
</g>
</g>
<!-- Node2&#45;&gt;Node24 -->
<g id="edge22" class="edge">
<title>Node2&#45;&gt;Node24</title>
<path fill="none" stroke="#63b8ff" d="M3233.27,-85.22C2885.54,-83.67 1374.67,-75.02 1167.5,-41 1160.37,-39.83 1152.94,-38.03 1145.79,-35.98"/>
<polygon fill="#63b8ff" stroke="#63b8ff" points="3233.14,-88.72 3243.15,-85.26 3233.17,-81.72 3233.14,-88.72"/>
</g>
<!-- Node25 -->
<g id="node24" class="node">
<title>Node25</title>
<g id="a_node24"><a xlink:href="JUTException_8cpp.html" target="_top" xlink:title=" ">
<polygon fill="white" stroke="#666666" points="1282.5,-35.5 1176.5,-35.5 1176.5,-5.5 1282.5,-5.5 1282.5,-35.5"/>
<text text-anchor="start" x="1184.5" y="-23.5" font-family="Helvetica,sans-Serif" font-size="10.00">libs/JSystem/JUtility</text>
<text text-anchor="middle" x="1229.5" y="-12.5" font-family="Helvetica,sans-Serif" font-size="10.00">/JUTException.cpp</text>
</a>
</g>
</g>
<!-- Node2&#45;&gt;Node25 -->
<g id="edge23" class="edge">
<title>Node2&#45;&gt;Node25</title>
<path fill="none" stroke="#63b8ff" d="M3233.1,-85.12C2897.59,-83.15 1485.79,-73.04 1291.5,-41 1284.37,-39.83 1276.94,-38.02 1269.79,-35.97"/>
<polygon fill="#63b8ff" stroke="#63b8ff" points="3233.05,-88.62 3243.07,-85.17 3233.09,-81.62 3233.05,-88.62"/>
</g>
<!-- Node26 -->
<g id="node25" class="node">
<title>Node26</title>
<g id="a_node25"><a xlink:href="JUTPalette_8cpp.html" target="_top" xlink:title=" ">
<polygon fill="white" stroke="#666666" points="1406.5,-35.5 1300.5,-35.5 1300.5,-5.5 1406.5,-5.5 1406.5,-35.5"/>
<text text-anchor="start" x="1308.5" y="-23.5" font-family="Helvetica,sans-Serif" font-size="10.00">libs/JSystem/JUtility</text>
<text text-anchor="middle" x="1353.5" y="-12.5" font-family="Helvetica,sans-Serif" font-size="10.00">/JUTPalette.cpp</text>
</a>
</g>
</g>
<!-- Node2&#45;&gt;Node26 -->
<g id="edge24" class="edge">
<title>Node2&#45;&gt;Node26</title>
<path fill="none" stroke="#63b8ff" d="M3233.35,-85.01C2911.2,-82.61 1597.02,-71.06 1415.5,-41 1408.38,-39.82 1400.94,-38.01 1393.79,-35.96"/>
<polygon fill="#63b8ff" stroke="#63b8ff" points="3233.3,-88.51 3243.32,-85.08 3233.35,-81.51 3233.3,-88.51"/>
</g>
<!-- Node27 -->
<g id="node26" class="node">
<title>Node27</title>
<g id="a_node26"><a xlink:href="uart__console__io__gcn_8c.html" target="_top" xlink:title=" ">
<polygon fill="white" stroke="#666666" points="1558.5,-35.5 1424.5,-35.5 1424.5,-5.5 1558.5,-5.5 1558.5,-35.5"/>
<text text-anchor="start" x="1432.5" y="-23.5" font-family="Helvetica,sans-Serif" font-size="10.00">libs/MSL_C/PPC_EABI</text>
<text text-anchor="middle" x="1491.5" y="-12.5" font-family="Helvetica,sans-Serif" font-size="10.00">/Src/uart_console_io_gcn.c</text>
</a>
</g>
</g>
<!-- Node2&#45;&gt;Node27 -->
<g id="edge25" class="edge">
<title>Node2&#45;&gt;Node27</title>
<path fill="none" stroke="#63b8ff" d="M3233.3,-85.81C2949.33,-86.74 1897.19,-86.92 1567.5,-41 1558.87,-39.8 1549.8,-37.98 1541.05,-35.92"/>
<polygon fill="#63b8ff" stroke="#63b8ff" points="3233.16,-89.32 3243.15,-85.78 3233.14,-82.32 3233.16,-89.32"/>
</g>
<!-- Node28 -->
<g id="node27" class="node">
<title>Node28</title>
<g id="a_node27"><a xlink:href="GCN__Mem__Alloc_8c.html" target="_top" xlink:title=" ">
<polygon fill="white" stroke="#666666" points="1702,-35.5 1577,-35.5 1577,-5.5 1702,-5.5 1702,-35.5"/>
<text text-anchor="start" x="1585" y="-23.5" font-family="Helvetica,sans-Serif" font-size="10.00">libs/Runtime.PPCEABI.H</text>
<text text-anchor="middle" x="1639.5" y="-12.5" font-family="Helvetica,sans-Serif" font-size="10.00">/GCN_Mem_Alloc.c</text>
</a>
</g>
</g>
<!-- Node2&#45;&gt;Node28 -->
<g id="edge26" class="edge">
<title>Node2&#45;&gt;Node28</title>
<path fill="none" stroke="#63b8ff" d="M3233.45,-85.75C2964.83,-86.33 2011.36,-85.16 1711.5,-41 1703.3,-39.79 1694.7,-37.97 1686.41,-35.92"/>
<polygon fill="#63b8ff" stroke="#63b8ff" points="3233.09,-89.25 3243.08,-85.72 3233.08,-82.25 3233.09,-89.25"/>
</g>
<!-- Node29 -->
<g id="node28" class="node">
<title>Node29</title>
<g id="a_node28"><a xlink:href="Z2AudioMgr_8cpp.html" target="_top" xlink:title=" ">
<polygon fill="white" stroke="#666666" points="1878.5,-30 1720.5,-30 1720.5,-11 1878.5,-11 1878.5,-30"/>
<text text-anchor="middle" x="1799.5" y="-18" font-family="Helvetica,sans-Serif" font-size="10.00">libs/Z2AudioLib/Z2AudioMgr.cpp</text>
</a>
</g>
</g>
<!-- Node2&#45;&gt;Node29 -->
<g id="edge27" class="edge">
<title>Node2&#45;&gt;Node29</title>
<path fill="none" stroke="#63b8ff" d="M3233.23,-85.02C2983.96,-83.07 2152.09,-74.17 1887.5,-41 1869.33,-38.72 1849.39,-34.45 1833.09,-30.49"/>
<polygon fill="#63b8ff" stroke="#63b8ff" points="3233.11,-88.52 3243.14,-85.1 3233.17,-81.52 3233.11,-88.52"/>
</g>
<!-- Node30 -->
<g id="node29" class="node">
<title>Node30</title>
<g id="a_node29"><a xlink:href="Z2LinkMgr_8cpp.html" target="_top" xlink:title=" ">
<polygon fill="white" stroke="#666666" points="2048.5,-30 1896.5,-30 1896.5,-11 2048.5,-11 2048.5,-30"/>
<text text-anchor="middle" x="1972.5" y="-18" font-family="Helvetica,sans-Serif" font-size="10.00">libs/Z2AudioLib/Z2LinkMgr.cpp</text>
</a>
</g>
</g>
<!-- Node2&#45;&gt;Node30 -->
<g id="edge28" class="edge">
<title>Node2&#45;&gt;Node30</title>
<path fill="none" stroke="#63b8ff" d="M3233.42,-84.74C3004.38,-82 2287.33,-71.19 2057.5,-41 2039.94,-38.69 2020.67,-34.42 2004.93,-30.46"/>
<polygon fill="#63b8ff" stroke="#63b8ff" points="3233.04,-88.23 3243.08,-84.85 3233.12,-81.23 3233.04,-88.23"/>
</g>
<!-- Node31 -->
<g id="node30" class="node">
<title>Node31</title>
<g id="a_node30"><a xlink:href="Z2WolfHowlMgr_8cpp.html" target="_top" xlink:title=" ">
<polygon fill="white" stroke="#666666" points="2206.5,-35.5 2066.5,-35.5 2066.5,-5.5 2206.5,-5.5 2206.5,-35.5"/>
<text text-anchor="start" x="2074.5" y="-23.5" font-family="Helvetica,sans-Serif" font-size="10.00">libs/Z2AudioLib/Z2WolfHowl</text>
<text text-anchor="middle" x="2136.5" y="-12.5" font-family="Helvetica,sans-Serif" font-size="10.00">Mgr.cpp</text>
</a>
</g>
</g>
<!-- Node2&#45;&gt;Node31 -->
<g id="edge29" class="edge">
<title>Node2&#45;&gt;Node31</title>
<path fill="none" stroke="#63b8ff" d="M3233.37,-84.46C3024.13,-81.11 2413.03,-69.12 2215.5,-41 2206.83,-39.77 2197.72,-37.99 2188.9,-36"/>
<polygon fill="#63b8ff" stroke="#63b8ff" points="3233.23,-87.96 3243.29,-84.62 3233.34,-80.96 3233.23,-87.96"/>
</g>
<!-- Node32 -->
<g id="node31" class="node">
<title>Node32</title>
<g id="a_node31"><a xlink:href="ai_8c.html" target="_top" xlink:title=" ">
<polygon fill="white" stroke="#666666" points="2318.5,-30 2224.5,-30 2224.5,-11 2318.5,-11 2318.5,-30"/>
<text text-anchor="middle" x="2271.5" y="-18" font-family="Helvetica,sans-Serif" font-size="10.00">libs/dolphin/ai/ai.c</text>
</a>
</g>
</g>
<!-- Node2&#45;&gt;Node32 -->
<g id="edge30" class="edge">
<title>Node2&#45;&gt;Node32</title>
<path fill="none" stroke="#63b8ff" d="M3233.32,-84.92C3038.77,-82.92 2501.1,-74.44 2327.5,-41 2315.67,-38.72 2302.96,-34.45 2292.64,-30.49"/>
<polygon fill="#63b8ff" stroke="#63b8ff" points="3233.26,-88.42 3243.29,-85.02 3233.33,-81.42 3233.26,-88.42"/>
</g>
<!-- Node33 -->
<g id="node32" class="node">
<title>Node33</title>
<g id="a_node32"><a xlink:href="ar_8c.html" target="_top" xlink:title=" ">
<polygon fill="white" stroke="#666666" points="2432,-30 2337,-30 2337,-11 2432,-11 2432,-30"/>
<text text-anchor="middle" x="2384.5" y="-18" font-family="Helvetica,sans-Serif" font-size="10.00">libs/dolphin/ar/ar.c</text>
</a>
</g>
</g>
<!-- Node2&#45;&gt;Node33 -->
<g id="edge31" class="edge">
<title>Node2&#45;&gt;Node33</title>
<path fill="none" stroke="#63b8ff" d="M3233.37,-84.37C3055.06,-81.14 2592.49,-70.13 2441.5,-41 2429.48,-38.68 2416.55,-34.41 2406.04,-30.45"/>
<polygon fill="#63b8ff" stroke="#63b8ff" points="3233.12,-87.87 3243.18,-84.55 3233.25,-80.87 3233.12,-87.87"/>
</g>
<!-- Node34 -->
<g id="node33" class="node">
<title>Node34</title>
<g id="a_node33"><a xlink:href="CARDBios_8c.html" target="_top" xlink:title=" ">
<polygon fill="white" stroke="#666666" points="2594.5,-30 2450.5,-30 2450.5,-11 2594.5,-11 2594.5,-30"/>
<text text-anchor="middle" x="2522.5" y="-18" font-family="Helvetica,sans-Serif" font-size="10.00">libs/dolphin/card/CARDBios.c</text>
</a>
</g>
</g>
<!-- Node2&#45;&gt;Node34 -->
<g id="edge32" class="edge">
<title>Node2&#45;&gt;Node34</title>
<path fill="none" stroke="#63b8ff" d="M3233.1,-85.03C3105.86,-83.29 2831.81,-75.46 2603.5,-41 2587.05,-38.52 2569.04,-34.33 2554.18,-30.47"/>
<polygon fill="#63b8ff" stroke="#63b8ff" points="3233.03,-88.53 3243.07,-85.16 3233.11,-81.53 3233.03,-88.53"/>
</g>
<!-- Node35 -->
<g id="node34" class="node">
<title>Node35</title>
<g id="a_node34"><a xlink:href="CARDUnlock_8c.html" target="_top" xlink:title=" ">
<polygon fill="white" stroke="#666666" points="2768,-30 2613,-30 2613,-11 2768,-11 2768,-30"/>
<text text-anchor="middle" x="2690.5" y="-18" font-family="Helvetica,sans-Serif" font-size="10.00">libs/dolphin/card/CARDUnlock.c</text>
</a>
</g>
</g>
<!-- Node2&#45;&gt;Node35 -->
<g id="edge33" class="edge">
<title>Node2&#45;&gt;Node35</title>
<path fill="none" stroke="#63b8ff" d="M3233.18,-82.56C3131.53,-77.68 2939.38,-65.86 2777.5,-41 2760.21,-38.35 2741.23,-34.23 2725.43,-30.47"/>
<polygon fill="#63b8ff" stroke="#63b8ff" points="3232.85,-86.05 3243,-83.03 3233.18,-79.06 3232.85,-86.05"/>
</g>
<!-- Node36 -->
<g id="node35" class="node">
<title>Node36</title>
<g id="a_node35"><a xlink:href="db_8c.html" target="_top" xlink:title=" ">
<polygon fill="white" stroke="#666666" points="2886.5,-30 2786.5,-30 2786.5,-11 2886.5,-11 2886.5,-30"/>
<text text-anchor="middle" x="2836.5" y="-18" font-family="Helvetica,sans-Serif" font-size="10.00">libs/dolphin/db/db.c</text>
</a>
</g>
</g>
<!-- Node2&#45;&gt;Node36 -->
<g id="edge34" class="edge">
<title>Node2&#45;&gt;Node36</title>
<path fill="none" stroke="#63b8ff" d="M3233.14,-82.3C3150.94,-77.56 3012.21,-66.34 2895.5,-41 2883.48,-38.39 2870.47,-34.24 2859.73,-30.43"/>
<polygon fill="#63b8ff" stroke="#63b8ff" points="3232.91,-85.79 3243.09,-82.85 3233.3,-78.8 3232.91,-85.79"/>
</g>
<!-- Node37 -->
<g id="node36" class="node">
<title>Node37</title>
<g id="a_node36"><a xlink:href="dvd_8c.html" target="_top" xlink:title=" ">
<polygon fill="white" stroke="#666666" points="3014.5,-30 2904.5,-30 2904.5,-11 3014.5,-11 3014.5,-30"/>
<text text-anchor="middle" x="2959.5" y="-18" font-family="Helvetica,sans-Serif" font-size="10.00">libs/dolphin/dvd/dvd.c</text>
</a>
</g>
</g>
<!-- Node2&#45;&gt;Node37 -->
<g id="edge35" class="edge">
<title>Node2&#45;&gt;Node37</title>
<path fill="none" stroke="#63b8ff" d="M3233.48,-77.02C3176.35,-69.54 3094.23,-57.29 3023.5,-41 3011.05,-38.13 2997.48,-34.13 2986.06,-30.49"/>
<polygon fill="#63b8ff" stroke="#63b8ff" points="3232.69,-80.45 3243.06,-78.26 3233.59,-73.51 3232.69,-80.45"/>
</g>
<!-- Node38 -->
<g id="node37" class="node">
<title>Node38</title>
<g id="a_node37"><a xlink:href="dvdfs_8c.html" target="_top" xlink:title=" ">
<polygon fill="white" stroke="#666666" points="3152,-30 3033,-30 3033,-11 3152,-11 3152,-30"/>
<text text-anchor="middle" x="3092.5" y="-18" font-family="Helvetica,sans-Serif" font-size="10.00">libs/dolphin/dvd/dvdfs.c</text>
</a>
</g>
</g>
<!-- Node2&#45;&gt;Node38 -->
<g id="edge36" class="edge">
<title>Node2&#45;&gt;Node38</title>
<path fill="none" stroke="#63b8ff" d="M3264.21,-73.34C3222.74,-60.82 3159.11,-41.61 3122.07,-30.43"/>
<polygon fill="#63b8ff" stroke="#63b8ff" points="3262.99,-76.62 3273.57,-76.16 3265.01,-69.92 3262.99,-76.62"/>
</g>
<!-- Node39 -->
<g id="node38" class="node">
<title>Node39</title>
<g id="a_node38"><a xlink:href="fstload_8c.html" target="_top" xlink:title=" ">
<polygon fill="white" stroke="#666666" points="3294.5,-30 3170.5,-30 3170.5,-11 3294.5,-11 3294.5,-30"/>
<text text-anchor="middle" x="3232.5" y="-18" font-family="Helvetica,sans-Serif" font-size="10.00">libs/dolphin/dvd/fstload.c</text>
</a>
</g>
</g>
<!-- Node2&#45;&gt;Node39 -->
<g id="edge37" class="edge">
<title>Node2&#45;&gt;Node39</title>
<path fill="none" stroke="#63b8ff" d="M3286.15,-69.19C3272.25,-56.83 3253.67,-40.32 3242.43,-30.32"/>
<polygon fill="#63b8ff" stroke="#63b8ff" points="3283.56,-71.57 3293.36,-75.6 3288.21,-66.34 3283.56,-71.57"/>
</g>
<!-- Node40 -->
<g id="node39" class="node">
<title>Node40</title>
<g id="a_node39"><a xlink:href="EXIBios_8c.html" target="_top" xlink:title=" ">
<polygon fill="white" stroke="#666666" points="3438.5,-30 3312.5,-30 3312.5,-11 3438.5,-11 3438.5,-30"/>
<text text-anchor="middle" x="3375.5" y="-18" font-family="Helvetica,sans-Serif" font-size="10.00">libs/dolphin/exi/EXIBios.c</text>
</a>
</g>
</g>
<!-- Node2&#45;&gt;Node40 -->
<g id="edge38" class="edge">
<title>Node2&#45;&gt;Node40</title>
<path fill="none" stroke="#63b8ff" d="M3322.6,-69.19C3336.31,-56.83 3354.62,-40.32 3365.71,-30.32"/>
<polygon fill="#63b8ff" stroke="#63b8ff" points="3320.58,-66.29 3315.5,-75.59 3325.27,-71.49 3320.58,-66.29"/>
</g>
<!-- Node41 -->
<g id="node40" class="node">
<title>Node41</title>
<g id="a_node40"><a xlink:href="EXIUart_8c.html" target="_top" xlink:title=" ">
<polygon fill="white" stroke="#666666" points="3582,-30 3457,-30 3457,-11 3582,-11 3582,-30"/>
<text text-anchor="middle" x="3519.5" y="-18" font-family="Helvetica,sans-Serif" font-size="10.00">libs/dolphin/exi/EXIUart.c</text>
</a>
</g>
</g>
<!-- Node2&#45;&gt;Node41 -->
<g id="edge39" class="edge">
<title>Node2&#45;&gt;Node41</title>
<path fill="none" stroke="#63b8ff" d="M3345.36,-73.34C3387.42,-60.82 3451.95,-41.61 3489.51,-30.43"/>
<polygon fill="#63b8ff" stroke="#63b8ff" points="3344.43,-69.96 3335.85,-76.17 3346.43,-76.67 3344.43,-69.96"/>
</g>
<!-- Node42 -->
<g id="node41" class="node">
<title>Node42</title>
<g id="a_node41"><a xlink:href="OS_8c.html" target="_top" xlink:title=" ">
<polygon fill="white" stroke="#666666" points="3704.5,-30 3600.5,-30 3600.5,-11 3704.5,-11 3704.5,-30"/>
<text text-anchor="middle" x="3652.5" y="-18" font-family="Helvetica,sans-Serif" font-size="10.00">libs/dolphin/os/OS.c</text>
</a>
</g>
</g>
<!-- Node2&#45;&gt;Node42 -->
<g id="edge40" class="edge">
<title>Node2&#45;&gt;Node42</title>
<path fill="none" stroke="#63b8ff" d="M3375.72,-77.44C3433.93,-70.13 3518.13,-57.91 3590.5,-41 3602.7,-38.15 3615.97,-34.11 3627.1,-30.44"/>
<polygon fill="#63b8ff" stroke="#63b8ff" points="3375.43,-73.95 3365.94,-78.65 3376.29,-80.9 3375.43,-73.95"/>
</g>
<!-- Node2&#45;&gt;Node43 -->
<g id="edge41" class="edge">
<title>Node2&#45;&gt;Node43</title>
<path fill="none" stroke="#63b8ff" d="M3375.74,-85.43C3792.5,-84.92 5906.12,-80.35 6192.5,-41 6208.16,-38.85 6225.25,-34.48 6239.06,-30.43"/>
<polygon fill="#63b8ff" stroke="#63b8ff" points="3375.99,-81.93 3366,-85.45 3376,-88.93 3375.99,-81.93"/>
</g>
<!-- Node44 -->
<g id="node43" class="node">
<title>Node44</title>
<g id="a_node43"><a xlink:href="OSCache_8c.html" target="_top" xlink:title=" ">
<polygon fill="white" stroke="#666666" points="3854,-30 3723,-30 3723,-11 3854,-11 3854,-30"/>
<text text-anchor="middle" x="3788.5" y="-18" font-family="Helvetica,sans-Serif" font-size="10.00">libs/dolphin/os/OSCache.c</text>
</a>
</g>
</g>
<!-- Node2&#45;&gt;Node44 -->
<g id="edge42" class="edge">
<title>Node2&#45;&gt;Node44</title>
<path fill="none" stroke="#63b8ff" d="M3375.58,-80.93C3457.53,-74.93 3596.03,-62.54 3713.5,-41 3728.32,-38.28 3744.53,-34.21 3758.07,-30.49"/>
<polygon fill="#63b8ff" stroke="#63b8ff" points="3375.39,-77.43 3365.67,-81.64 3375.89,-84.41 3375.39,-77.43"/>
</g>
<!-- Node45 -->
<g id="node44" class="node">
<title>Node45</title>
<g id="a_node44"><a xlink:href="OSContext_8c.html" target="_top" xlink:title=" ">
<polygon fill="white" stroke="#666666" points="4009,-30 3872,-30 3872,-11 4009,-11 4009,-30"/>
<text text-anchor="middle" x="3940.5" y="-18" font-family="Helvetica,sans-Serif" font-size="10.00">libs/dolphin/os/OSContext.c</text>
</a>
</g>
</g>
<!-- Node2&#45;&gt;Node45 -->
<g id="edge43" class="edge">
<title>Node2&#45;&gt;Node45</title>
<path fill="none" stroke="#63b8ff" d="M3375.58,-83.59C3482.06,-79.89 3689,-69.41 3862.5,-41 3878.2,-38.43 3895.39,-34.28 3909.62,-30.47"/>
<polygon fill="#63b8ff" stroke="#63b8ff" points="3375.74,-80.08 3365.86,-83.92 3375.97,-87.08 3375.74,-80.08"/>
</g>
<!-- Node46 -->
<g id="node45" class="node">
<title>Node46</title>
<g id="a_node45"><a xlink:href="OSError_8c.html" target="_top" xlink:title=" ">
<polygon fill="white" stroke="#666666" points="4151.5,-30 4027.5,-30 4027.5,-11 4151.5,-11 4151.5,-30"/>
<text text-anchor="middle" x="4089.5" y="-18" font-family="Helvetica,sans-Serif" font-size="10.00">libs/dolphin/os/OSError.c</text>
</a>
</g>
</g>
<!-- Node2&#45;&gt;Node46 -->
<g id="edge44" class="edge">
<title>Node2&#45;&gt;Node46</title>
<path fill="none" stroke="#63b8ff" d="M3375.35,-85.8C3504.1,-85.3 3784.68,-79.39 4017.5,-41 4032.32,-38.56 4048.5,-34.32 4061.75,-30.42"/>
<polygon fill="#63b8ff" stroke="#63b8ff" points="3375.62,-82.3 3365.63,-85.83 3375.64,-89.3 3375.62,-82.3"/>
</g>
<!-- Node47 -->
<g id="node46" class="node">
<title>Node47</title>
<g id="a_node46"><a xlink:href="OSInterrupt_8c.html" target="_top" xlink:title=" ">
<polygon fill="white" stroke="#666666" points="4309.5,-30 4169.5,-30 4169.5,-11 4309.5,-11 4309.5,-30"/>
<text text-anchor="middle" x="4239.5" y="-18" font-family="Helvetica,sans-Serif" font-size="10.00">libs/dolphin/os/OSInterrupt.c</text>
</a>
</g>
</g>
<!-- Node2&#45;&gt;Node47 -->
<g id="edge45" class="edge">
<title>Node2&#45;&gt;Node47</title>
<path fill="none" stroke="#63b8ff" d="M3375.39,-86.35C3522.55,-87.12 3871.59,-83.77 4160.5,-41 4176.71,-38.6 4194.45,-34.37 4209.01,-30.46"/>
<polygon fill="#63b8ff" stroke="#63b8ff" points="3375.83,-82.85 3365.81,-86.29 3375.79,-89.85 3375.83,-82.85"/>
</g>
<!-- Node2&#45;&gt;Node48 -->
<g id="edge46" class="edge">
<title>Node2&#45;&gt;Node48</title>
<path fill="none" stroke="#63b8ff" d="M3375.55,-85.43C3804.23,-84.85 6037.33,-79.99 6339.5,-41 6356.17,-38.85 6374.42,-34.48 6389.17,-30.43"/>
<polygon fill="#63b8ff" stroke="#63b8ff" points="3375.79,-81.93 3365.8,-85.44 3375.8,-88.93 3375.79,-81.93"/>
</g>
<!-- Node2&#45;&gt;Node50 -->
<g id="edge47" class="edge">
<title>Node2&#45;&gt;Node50</title>
<path fill="none" stroke="#63b8ff" d="M3375.68,-85.55C3817.64,-85.71 6178.17,-84.5 6496.5,-41 6512.16,-38.86 6529.26,-34.5 6543.06,-30.44"/>
<polygon fill="#63b8ff" stroke="#63b8ff" points="3375.9,-82.05 3365.89,-85.54 3375.89,-89.05 3375.9,-82.05"/>
</g>
<!-- Node2&#45;&gt;Node51 -->
<g id="edge48" class="edge">
<title>Node2&#45;&gt;Node51</title>
<path fill="none" stroke="#63b8ff" d="M3375.7,-85.5C3829.56,-85.41 6310.14,-82.94 6644.5,-41 6661.58,-38.86 6680.28,-34.49 6695.41,-30.44"/>
<polygon fill="#63b8ff" stroke="#63b8ff" points="3375.93,-82 3365.93,-85.51 3375.93,-89 3375.93,-82"/>
</g>
</g>
</svg>
