<?xml version="1.0" encoding="UTF-8" standalone="no"?>
<!DOCTYPE svg PUBLIC "-//W3C//DTD SVG 1.1//EN"
 "http://www.w3.org/Graphics/SVG/1.1/DTD/svg11.dtd">
<!-- Generated by graphviz version 7.0.5 (20221223.1930)
 -->
<!-- Title: include/dolphin/pad/Pad.h Pages: 1 -->
<svg width="5581pt" height="236pt"
 viewBox="0.00 0.00 5580.50 236.00" xmlns="http://www.w3.org/2000/svg" xmlns:xlink="http://www.w3.org/1999/xlink">
<g id="graph0" class="graph" transform="scale(1 1) rotate(0) translate(4 232)">
<title>include/dolphin/pad/Pad.h</title>
<!-- Node1 -->
<g id="node1" class="node">
<title>Node1</title>
<g id="a_node1"><a xlink:title=" ">
<polygon fill="#999999" stroke="#666666" points="4050.5,-228 3950.5,-228 3950.5,-198 4050.5,-198 4050.5,-228"/>
<text text-anchor="start" x="3958.5" y="-216" font-family="Helvetica,sans-Serif" font-size="10.00">include/dolphin/pad</text>
<text text-anchor="middle" x="4000.5" y="-205" font-family="Helvetica,sans-Serif" font-size="10.00">/Pad.h</text>
</a>
</g>
</g>
<!-- Node2 -->
<g id="node2" class="node">
<title>Node2</title>
<g id="a_node2"><a xlink:href="JUTGamePad_8h.html" target="_top" xlink:title=" ">
<polygon fill="white" stroke="#666666" points="3926.5,-162 3804.5,-162 3804.5,-132 3926.5,-132 3926.5,-162"/>
<text text-anchor="start" x="3812.5" y="-150" font-family="Helvetica,sans-Serif" font-size="10.00">include/JSystem/JUtility</text>
<text text-anchor="middle" x="3865.5" y="-139" font-family="Helvetica,sans-Serif" font-size="10.00">/JUTGamePad.h</text>
</a>
</g>
</g>
<!-- Node1&#45;&gt;Node2 -->
<g id="edge1" class="edge">
<title>Node1&#45;&gt;Node2</title>
<path fill="none" stroke="#63b8ff" d="M3959.84,-192.72C3939.22,-182.95 3914.61,-171.28 3895.7,-162.31"/>
<polygon fill="#63b8ff" stroke="#63b8ff" points="3958.3,-195.87 3968.84,-196.99 3961.3,-189.54 3958.3,-195.87"/>
</g>
<!-- Node51 -->
<g id="node49" class="node">
<title>Node51</title>
<g id="a_node49"><a xlink:href="Pad_8c.html" target="_top" xlink:title=" ">
<polygon fill="white" stroke="#666666" points="4056.5,-156.5 3944.5,-156.5 3944.5,-137.5 4056.5,-137.5 4056.5,-156.5"/>
<text text-anchor="middle" x="4000.5" y="-144.5" font-family="Helvetica,sans-Serif" font-size="10.00">libs/dolphin/pad/Pad.c</text>
</a>
</g>
</g>
<!-- Node1&#45;&gt;Node51 -->
<g id="edge49" class="edge">
<title>Node1&#45;&gt;Node51</title>
<path fill="none" stroke="#63b8ff" d="M4000.5,-186.59C4000.5,-176.06 4000.5,-164.53 4000.5,-156.84"/>
<polygon fill="#63b8ff" stroke="#63b8ff" points="3997,-186.28 4000.5,-196.28 4004,-186.28 3997,-186.28"/>
</g>
<!-- Node52 -->
<g id="node50" class="node">
<title>Node52</title>
<g id="a_node50"><a xlink:href="Padclamp_8c.html" target="_top" xlink:title=" ">
<polygon fill="white" stroke="#666666" points="4212.5,-156.5 4074.5,-156.5 4074.5,-137.5 4212.5,-137.5 4212.5,-156.5"/>
<text text-anchor="middle" x="4143.5" y="-144.5" font-family="Helvetica,sans-Serif" font-size="10.00">libs/dolphin/pad/Padclamp.c</text>
</a>
</g>
</g>
<!-- Node1&#45;&gt;Node52 -->
<g id="edge50" class="edge">
<title>Node1&#45;&gt;Node52</title>
<path fill="none" stroke="#63b8ff" d="M4042.81,-193.06C4069.45,-181.14 4102.61,-166.3 4123.42,-156.99"/>
<polygon fill="#63b8ff" stroke="#63b8ff" points="4041.67,-189.74 4033.97,-197.02 4044.53,-196.13 4041.67,-189.74"/>
</g>
<!-- Node3 -->
<g id="node3" class="node">
<title>Node3</title>
<g id="a_node3"><a xlink:href="JUTException_8h.html" target="_top" xlink:title=" ">
<polygon fill="white" stroke="#666666" points="1143.5,-96 1021.5,-96 1021.5,-66 1143.5,-66 1143.5,-96"/>
<text text-anchor="start" x="1029.5" y="-84" font-family="Helvetica,sans-Serif" font-size="10.00">include/JSystem/JUtility</text>
<text text-anchor="middle" x="1082.5" y="-73" font-family="Helvetica,sans-Serif" font-size="10.00">/JUTException.h</text>
</a>
</g>
</g>
<!-- Node2&#45;&gt;Node3 -->
<g id="edge2" class="edge">
<title>Node2&#45;&gt;Node3</title>
<path fill="none" stroke="#63b8ff" d="M3792.87,-144.33C3397.55,-135.24 1509.34,-91.82 1143.84,-83.41"/>
<polygon fill="#63b8ff" stroke="#63b8ff" points="3792.54,-147.82 3802.62,-144.55 3792.7,-140.82 3792.54,-147.82"/>
</g>
<!-- Node20 -->
<g id="node20" class="node">
<title>Node20</title>
<g id="a_node20"><a xlink:href="m__Do__controller__pad_8h.html" target="_top" xlink:title=" ">
<polygon fill="#fff0f0" stroke="red" points="3756,-96 3607,-96 3607,-66 3756,-66 3756,-96"/>
<text text-anchor="start" x="3615" y="-84" font-family="Helvetica,sans-Serif" font-size="10.00">include/m_Do/m_Do_controller</text>
<text text-anchor="middle" x="3681.5" y="-73" font-family="Helvetica,sans-Serif" font-size="10.00">_pad.h</text>
</a>
</g>
</g>
<!-- Node2&#45;&gt;Node20 -->
<g id="edge19" class="edge">
<title>Node2&#45;&gt;Node20</title>
<path fill="none" stroke="#63b8ff" d="M3813.57,-127.94C3784.9,-117.97 3749.79,-105.75 3722.97,-96.43"/>
<polygon fill="#63b8ff" stroke="#63b8ff" points="3812.18,-131.16 3822.78,-131.14 3814.48,-124.55 3812.18,-131.16"/>
</g>
<!-- Node35 -->
<g id="node35" class="node">
<title>Node35</title>
<g id="a_node35"><a xlink:href="d__menu__option_8cpp.html" target="_top" xlink:title=" ">
<polygon fill="white" stroke="#666666" points="5572.5,-24.5 5420.5,-24.5 5420.5,-5.5 5572.5,-5.5 5572.5,-24.5"/>
<text text-anchor="middle" x="5496.5" y="-12.5" font-family="Helvetica,sans-Serif" font-size="10.00">src/d/menu/d_menu_option.cpp</text>
</a>
</g>
</g>
<!-- Node2&#45;&gt;Node35 -->
<g id="edge45" class="edge">
<title>Node2&#45;&gt;Node35</title>
<path fill="none" stroke="#63b8ff" d="M3831.84,-125.11C3808.77,-108.32 3785.36,-84.55 3803.5,-66 3834.74,-34.06 5367.01,-34.14 5411.5,-30 5423.86,-28.85 5437.14,-26.97 5449.44,-24.96"/>
<polygon fill="#63b8ff" stroke="#63b8ff" points="3829.78,-127.94 3840,-130.76 3833.77,-122.19 3829.78,-127.94"/>
</g>
<!-- Node47 -->
<g id="node45" class="node">
<title>Node47</title>
<g id="a_node45"><a xlink:href="JUTGamePad_8cpp.html" target="_top" xlink:title=" ">
<polygon fill="white" stroke="#666666" points="3918.5,-96 3812.5,-96 3812.5,-66 3918.5,-66 3918.5,-96"/>
<text text-anchor="start" x="3820.5" y="-84" font-family="Helvetica,sans-Serif" font-size="10.00">libs/JSystem/JUtility</text>
<text text-anchor="middle" x="3865.5" y="-73" font-family="Helvetica,sans-Serif" font-size="10.00">/JUTGamePad.cpp</text>
</a>
</g>
</g>
<!-- Node2&#45;&gt;Node47 -->
<g id="edge44" class="edge">
<title>Node2&#45;&gt;Node47</title>
<path fill="none" stroke="#63b8ff" d="M3865.5,-120.39C3865.5,-112.13 3865.5,-103.28 3865.5,-96.16"/>
<polygon fill="#63b8ff" stroke="#63b8ff" points="3862,-120.28 3865.5,-130.28 3869,-120.28 3862,-120.28"/>
</g>
<!-- Node48 -->
<g id="node46" class="node">
<title>Node48</title>
<g id="a_node46"><a xlink:href="d__s__play_8cpp.html" target="_top" xlink:title=" ">
<polygon fill="white" stroke="#666666" points="4042.5,-90.5 3936.5,-90.5 3936.5,-71.5 4042.5,-71.5 4042.5,-90.5"/>
<text text-anchor="middle" x="3989.5" y="-78.5" font-family="Helvetica,sans-Serif" font-size="10.00">src/d/s/d_s_play.cpp</text>
</a>
</g>
</g>
<!-- Node2&#45;&gt;Node48 -->
<g id="edge46" class="edge">
<title>Node2&#45;&gt;Node48</title>
<path fill="none" stroke="#63b8ff" d="M3903.42,-126.43C3926.3,-114.62 3954.36,-100.14 3972.09,-90.99"/>
<polygon fill="#63b8ff" stroke="#63b8ff" points="3901.95,-123.25 3894.67,-130.94 3905.16,-129.47 3901.95,-123.25"/>
</g>
<!-- Node49 -->
<g id="node47" class="node">
<title>Node49</title>
<g id="a_node47"><a xlink:href="d__save_8cpp.html" target="_top" xlink:title=" ">
<polygon fill="white" stroke="#666666" points="4176,-90.5 4061,-90.5 4061,-71.5 4176,-71.5 4176,-90.5"/>
<text text-anchor="middle" x="4118.5" y="-78.5" font-family="Helvetica,sans-Serif" font-size="10.00">src/d/save/d_save.cpp</text>
</a>
</g>
</g>
<!-- Node2&#45;&gt;Node49 -->
<g id="edge47" class="edge">
<title>Node2&#45;&gt;Node49</title>
<path fill="none" stroke="#63b8ff" d="M3933.57,-128.78C3981.77,-116.59 4044.46,-100.73 4083.07,-90.96"/>
<polygon fill="#63b8ff" stroke="#63b8ff" points="3932.9,-125.34 3924.06,-131.19 3934.61,-132.13 3932.9,-125.34"/>
</g>
<!-- Node50 -->
<g id="node48" class="node">
<title>Node50</title>
<g id="a_node48"><a xlink:href="m__Do__Reset_8cpp.html" target="_top" xlink:title=" ">
<polygon fill="white" stroke="#666666" points="4330.5,-90.5 4194.5,-90.5 4194.5,-71.5 4330.5,-71.5 4330.5,-90.5"/>
<text text-anchor="middle" x="4262.5" y="-78.5" font-family="Helvetica,sans-Serif" font-size="10.00">src/m_Do/m_Do_Reset.cpp</text>
</a>
</g>
</g>
<!-- Node2&#45;&gt;Node50 -->
<g id="edge48" class="edge">
<title>Node2&#45;&gt;Node50</title>
<path fill="none" stroke="#63b8ff" d="M3938.17,-131.6C4048.06,-113.03 4078.27,-113.46 4185.5,-96 4195.02,-94.45 4205.18,-92.68 4214.9,-90.94"/>
<polygon fill="#63b8ff" stroke="#63b8ff" points="3937.69,-128.13 3928.42,-133.26 3938.86,-135.03 3937.69,-128.13"/>
</g>
<!-- Node4 -->
<g id="node4" class="node">
<title>Node4</title>
<g id="a_node4"><a xlink:href="JKRAram_8cpp.html" target="_top" xlink:title=" ">
<polygon fill="white" stroke="#666666" points="109,-30 0,-30 0,0 109,0 109,-30"/>
<text text-anchor="start" x="8" y="-18" font-family="Helvetica,sans-Serif" font-size="10.00">libs/JSystem/JKernel</text>
<text text-anchor="middle" x="54.5" y="-7" font-family="Helvetica,sans-Serif" font-size="10.00">/JKRAram.cpp</text>
</a>
</g>
</g>
<!-- Node3&#45;&gt;Node4 -->
<g id="edge3" class="edge">
<title>Node3&#45;&gt;Node4</title>
<path fill="none" stroke="#63b8ff" d="M1010.01,-80.36C848.8,-80.27 448.66,-75.05 117.5,-30 114.84,-29.64 112.12,-29.22 109.38,-28.76"/>
<polygon fill="#63b8ff" stroke="#63b8ff" points="1009.69,-83.86 1019.69,-80.36 1009.69,-76.86 1009.69,-83.86"/>
</g>
<!-- Node5 -->
<g id="node5" class="node">
<title>Node5</title>
<g id="a_node5"><a xlink:href="JKRAramArchive_8cpp.html" target="_top" xlink:title=" ">
<polygon fill="white" stroke="#666666" points="240,-30 127,-30 127,0 240,0 240,-30"/>
<text text-anchor="start" x="135" y="-18" font-family="Helvetica,sans-Serif" font-size="10.00">libs/JSystem/JKernel</text>
<text text-anchor="middle" x="183.5" y="-7" font-family="Helvetica,sans-Serif" font-size="10.00">/JKRAramArchive.cpp</text>
</a>
</g>
</g>
<!-- Node3&#45;&gt;Node5 -->
<g id="edge4" class="edge">
<title>Node3&#45;&gt;Node5</title>
<path fill="none" stroke="#63b8ff" d="M1009.86,-79.36C864.58,-77.25 528.17,-68.27 248.5,-30 245.87,-29.64 243.19,-29.23 240.48,-28.79"/>
<polygon fill="#63b8ff" stroke="#63b8ff" points="1009.68,-82.85 1019.72,-79.49 1009.77,-75.85 1009.68,-82.85"/>
</g>
<!-- Node6 -->
<g id="node6" class="node">
<title>Node6</title>
<g id="a_node6"><a xlink:href="JKRAramPiece_8cpp.html" target="_top" xlink:title=" ">
<polygon fill="white" stroke="#666666" points="367,-30 258,-30 258,0 367,0 367,-30"/>
<text text-anchor="start" x="266" y="-18" font-family="Helvetica,sans-Serif" font-size="10.00">libs/JSystem/JKernel</text>
<text text-anchor="middle" x="312.5" y="-7" font-family="Helvetica,sans-Serif" font-size="10.00">/JKRAramPiece.cpp</text>
</a>
</g>
</g>
<!-- Node3&#45;&gt;Node6 -->
<g id="edge5" class="edge">
<title>Node3&#45;&gt;Node6</title>
<path fill="none" stroke="#63b8ff" d="M1009.95,-78.41C881.45,-74.8 605.69,-63.53 375.5,-30 372.84,-29.61 370.12,-29.17 367.39,-28.7"/>
<polygon fill="#63b8ff" stroke="#63b8ff" points="1009.57,-81.9 1019.66,-78.67 1009.76,-74.9 1009.57,-81.9"/>
</g>
<!-- Node7 -->
<g id="node7" class="node">
<title>Node7</title>
<g id="a_node7"><a xlink:href="JKRAramStream_8cpp.html" target="_top" xlink:title=" ">
<polygon fill="white" stroke="#666666" points="496,-30 385,-30 385,0 496,0 496,-30"/>
<text text-anchor="start" x="393" y="-18" font-family="Helvetica,sans-Serif" font-size="10.00">libs/JSystem/JKernel</text>
<text text-anchor="middle" x="440.5" y="-7" font-family="Helvetica,sans-Serif" font-size="10.00">/JKRAramStream.cpp</text>
</a>
</g>
</g>
<!-- Node3&#45;&gt;Node7 -->
<g id="edge6" class="edge">
<title>Node3&#45;&gt;Node7</title>
<path fill="none" stroke="#63b8ff" d="M1009.75,-76.72C899.83,-71.09 685.07,-57.44 504.5,-30 501.8,-29.59 499.05,-29.13 496.27,-28.64"/>
<polygon fill="#63b8ff" stroke="#63b8ff" points="1009.35,-80.21 1019.51,-77.22 1009.7,-73.22 1009.35,-80.21"/>
</g>
<!-- Node8 -->
<g id="node8" class="node">
<title>Node8</title>
<g id="a_node8"><a xlink:href="JKRCompArchive_8cpp.html" target="_top" xlink:title=" ">
<polygon fill="white" stroke="#666666" points="629,-30 514,-30 514,0 629,0 629,-30"/>
<text text-anchor="start" x="522" y="-18" font-family="Helvetica,sans-Serif" font-size="10.00">libs/JSystem/JKernel</text>
<text text-anchor="middle" x="571.5" y="-7" font-family="Helvetica,sans-Serif" font-size="10.00">/JKRCompArchive.cpp</text>
</a>
</g>
</g>
<!-- Node3&#45;&gt;Node8 -->
<g id="edge7" class="edge">
<title>Node3&#45;&gt;Node8</title>
<path fill="none" stroke="#63b8ff" d="M1009.82,-74.02C921.48,-66.24 768,-51.12 637.5,-30 634.84,-29.57 632.13,-29.1 629.39,-28.61"/>
<polygon fill="#63b8ff" stroke="#63b8ff" points="1009.29,-77.48 1019.55,-74.87 1009.89,-70.51 1009.29,-77.48"/>
</g>
<!-- Node9 -->
<g id="node9" class="node">
<title>Node9</title>
<g id="a_node9"><a xlink:href="JKRDvdArchive_8cpp.html" target="_top" xlink:title=" ">
<polygon fill="white" stroke="#666666" points="756,-30 647,-30 647,0 756,0 756,-30"/>
<text text-anchor="start" x="655" y="-18" font-family="Helvetica,sans-Serif" font-size="10.00">libs/JSystem/JKernel</text>
<text text-anchor="middle" x="701.5" y="-7" font-family="Helvetica,sans-Serif" font-size="10.00">/JKRDvdArchive.cpp</text>
</a>
</g>
</g>
<!-- Node3&#45;&gt;Node9 -->
<g id="edge8" class="edge">
<title>Node3&#45;&gt;Node9</title>
<path fill="none" stroke="#63b8ff" d="M1009.77,-69.89C945.17,-60.59 848.28,-45.88 764.5,-30 761.86,-29.5 759.16,-28.97 756.43,-28.42"/>
<polygon fill="#63b8ff" stroke="#63b8ff" points="1009.15,-73.34 1019.55,-71.29 1010.14,-66.41 1009.15,-73.34"/>
</g>
<!-- Node10 -->
<g id="node10" class="node">
<title>Node10</title>
<g id="a_node10"><a xlink:href="JKRDvdFile_8cpp.html" target="_top" xlink:title=" ">
<polygon fill="white" stroke="#666666" points="883,-30 774,-30 774,0 883,0 883,-30"/>
<text text-anchor="start" x="782" y="-18" font-family="Helvetica,sans-Serif" font-size="10.00">libs/JSystem/JKernel</text>
<text text-anchor="middle" x="828.5" y="-7" font-family="Helvetica,sans-Serif" font-size="10.00">/JKRDvdFile.cpp</text>
</a>
</g>
</g>
<!-- Node3&#45;&gt;Node10 -->
<g id="edge9" class="edge">
<title>Node3&#45;&gt;Node10</title>
<path fill="none" stroke="#63b8ff" d="M1014.19,-62.79C973.21,-52.46 921.77,-39.5 883.43,-29.84"/>
<polygon fill="#63b8ff" stroke="#63b8ff" points="1013.16,-66.14 1023.71,-65.19 1014.87,-59.35 1013.16,-66.14"/>
</g>
<!-- Node11 -->
<g id="node11" class="node">
<title>Node11</title>
<g id="a_node11"><a xlink:href="JKRDvdRipper_8cpp.html" target="_top" xlink:title=" ">
<polygon fill="white" stroke="#666666" points="1010,-30 901,-30 901,0 1010,0 1010,-30"/>
<text text-anchor="start" x="909" y="-18" font-family="Helvetica,sans-Serif" font-size="10.00">libs/JSystem/JKernel</text>
<text text-anchor="middle" x="955.5" y="-7" font-family="Helvetica,sans-Serif" font-size="10.00">/JKRDvdRipper.cpp</text>
</a>
</g>
</g>
<!-- Node3&#45;&gt;Node11 -->
<g id="edge10" class="edge">
<title>Node3&#45;&gt;Node11</title>
<path fill="none" stroke="#63b8ff" d="M1043.98,-60.59C1024.64,-50.84 1001.62,-39.24 983.91,-30.31"/>
<polygon fill="#63b8ff" stroke="#63b8ff" points="1042.14,-63.58 1052.65,-64.96 1045.29,-57.33 1042.14,-63.58"/>
</g>
<!-- Node12 -->
<g id="node12" class="node">
<title>Node12</title>
<g id="a_node12"><a xlink:href="JKRExpHeap_8cpp.html" target="_top" xlink:title=" ">
<polygon fill="white" stroke="#666666" points="1137,-30 1028,-30 1028,0 1137,0 1137,-30"/>
<text text-anchor="start" x="1036" y="-18" font-family="Helvetica,sans-Serif" font-size="10.00">libs/JSystem/JKernel</text>
<text text-anchor="middle" x="1082.5" y="-7" font-family="Helvetica,sans-Serif" font-size="10.00">/JKRExpHeap.cpp</text>
</a>
</g>
</g>
<!-- Node3&#45;&gt;Node12 -->
<g id="edge11" class="edge">
<title>Node3&#45;&gt;Node12</title>
<path fill="none" stroke="#63b8ff" d="M1082.5,-54.39C1082.5,-46.13 1082.5,-37.28 1082.5,-30.16"/>
<polygon fill="#63b8ff" stroke="#63b8ff" points="1079,-54.28 1082.5,-64.28 1086,-54.28 1079,-54.28"/>
</g>
<!-- Node13 -->
<g id="node13" class="node">
<title>Node13</title>
<g id="a_node13"><a xlink:href="JKRHeap_8cpp.html" target="_top" xlink:title=" ">
<polygon fill="white" stroke="#666666" points="1264,-30 1155,-30 1155,0 1264,0 1264,-30"/>
<text text-anchor="start" x="1163" y="-18" font-family="Helvetica,sans-Serif" font-size="10.00">libs/JSystem/JKernel</text>
<text text-anchor="middle" x="1209.5" y="-7" font-family="Helvetica,sans-Serif" font-size="10.00">/JKRHeap.cpp</text>
</a>
</g>
</g>
<!-- Node3&#45;&gt;Node13 -->
<g id="edge12" class="edge">
<title>Node3&#45;&gt;Node13</title>
<path fill="none" stroke="#63b8ff" d="M1121.02,-60.59C1140.36,-50.84 1163.38,-39.24 1181.09,-30.31"/>
<polygon fill="#63b8ff" stroke="#63b8ff" points="1119.71,-57.33 1112.35,-64.96 1122.86,-63.58 1119.71,-57.33"/>
</g>
<!-- Node14 -->
<g id="node14" class="node">
<title>Node14</title>
<g id="a_node14"><a xlink:href="JKRMemArchive_8cpp.html" target="_top" xlink:title=" ">
<polygon fill="white" stroke="#666666" points="1393,-30 1282,-30 1282,0 1393,0 1393,-30"/>
<text text-anchor="start" x="1290" y="-18" font-family="Helvetica,sans-Serif" font-size="10.00">libs/JSystem/JKernel</text>
<text text-anchor="middle" x="1337.5" y="-7" font-family="Helvetica,sans-Serif" font-size="10.00">/JKRMemArchive.cpp</text>
</a>
</g>
</g>
<!-- Node3&#45;&gt;Node14 -->
<g id="edge13" class="edge">
<title>Node3&#45;&gt;Node14</title>
<path fill="none" stroke="#63b8ff" d="M1151.04,-62.8C1192.04,-52.51 1243.46,-39.6 1281.92,-29.95"/>
<polygon fill="#63b8ff" stroke="#63b8ff" points="1150.36,-59.36 1141.51,-65.19 1152.06,-66.15 1150.36,-59.36"/>
</g>
<!-- Node15 -->
<g id="node15" class="node">
<title>Node15</title>
<g id="a_node15"><a xlink:href="functionvalue_8cpp.html" target="_top" xlink:title=" ">
<polygon fill="white" stroke="#666666" points="1542,-30 1411,-30 1411,0 1542,0 1542,-30"/>
<text text-anchor="start" x="1419" y="-18" font-family="Helvetica,sans-Serif" font-size="10.00">libs/JSystem/JStudio</text>
<text text-anchor="middle" x="1476.5" y="-7" font-family="Helvetica,sans-Serif" font-size="10.00">/JStudio/functionvalue.cpp</text>
</a>
</g>
</g>
<!-- Node3&#45;&gt;Node15 -->
<g id="edge14" class="edge">
<title>Node3&#45;&gt;Node15</title>
<path fill="none" stroke="#63b8ff" d="M1155.04,-69.24C1219.76,-59.5 1317.06,-44.49 1401.5,-30 1404.5,-29.48 1407.57,-28.95 1410.67,-28.4"/>
<polygon fill="#63b8ff" stroke="#63b8ff" points="1154.61,-65.77 1145.24,-70.72 1155.65,-72.69 1154.61,-65.77"/>
</g>
<!-- Node16 -->
<g id="node16" class="node">
<title>Node16</title>
<g id="a_node16"><a xlink:href="fvb_8cpp.html" target="_top" xlink:title=" ">
<polygon fill="white" stroke="#666666" points="1669,-30 1560,-30 1560,0 1669,0 1669,-30"/>
<text text-anchor="start" x="1568" y="-18" font-family="Helvetica,sans-Serif" font-size="10.00">libs/JSystem/JStudio</text>
<text text-anchor="middle" x="1614.5" y="-7" font-family="Helvetica,sans-Serif" font-size="10.00">/JStudio/fvb.cpp</text>
</a>
</g>
</g>
<!-- Node3&#45;&gt;Node16 -->
<g id="edge15" class="edge">
<title>Node3&#45;&gt;Node16</title>
<path fill="none" stroke="#63b8ff" d="M1155.18,-74.7C1247.48,-67.41 1411.47,-52.57 1550.5,-30 1553.53,-29.51 1556.64,-28.96 1559.76,-28.38"/>
<polygon fill="#63b8ff" stroke="#63b8ff" points="1154.94,-71.21 1145.25,-75.48 1155.49,-78.19 1154.94,-71.21"/>
</g>
<!-- Node17 -->
<g id="node17" class="node">
<title>Node17</title>
<g id="a_node17"><a xlink:href="stb_8cpp.html" target="_top" xlink:title=" ">
<polygon fill="white" stroke="#666666" points="1796,-30 1687,-30 1687,0 1796,0 1796,-30"/>
<text text-anchor="start" x="1695" y="-18" font-family="Helvetica,sans-Serif" font-size="10.00">libs/JSystem/JStudio</text>
<text text-anchor="middle" x="1741.5" y="-7" font-family="Helvetica,sans-Serif" font-size="10.00">/JStudio/stb.cpp</text>
</a>
</g>
</g>
<!-- Node3&#45;&gt;Node17 -->
<g id="edge16" class="edge">
<title>Node3&#45;&gt;Node17</title>
<path fill="none" stroke="#63b8ff" d="M1154.8,-76.99C1267.14,-71.63 1490.2,-58.23 1677.5,-30 1680.54,-29.54 1683.64,-29.03 1686.78,-28.47"/>
<polygon fill="#63b8ff" stroke="#63b8ff" points="1154.96,-73.48 1145.14,-77.45 1155.29,-80.48 1154.96,-73.48"/>
</g>
<!-- Node18 -->
<g id="node18" class="node">
<title>Node18</title>
<g id="a_node18"><a xlink:href="JUTException_8cpp.html" target="_top" xlink:title=" ">
<polygon fill="white" stroke="#666666" points="1920.5,-30 1814.5,-30 1814.5,0 1920.5,0 1920.5,-30"/>
<text text-anchor="start" x="1822.5" y="-18" font-family="Helvetica,sans-Serif" font-size="10.00">libs/JSystem/JUtility</text>
<text text-anchor="middle" x="1867.5" y="-7" font-family="Helvetica,sans-Serif" font-size="10.00">/JUTException.cpp</text>
</a>
</g>
</g>
<!-- Node3&#45;&gt;Node18 -->
<g id="edge17" class="edge">
<title>Node3&#45;&gt;Node18</title>
<path fill="none" stroke="#63b8ff" d="M1155.08,-78.56C1285.65,-75.17 1568.52,-64.2 1804.5,-30 1807.72,-29.53 1811.01,-28.99 1814.33,-28.4"/>
<polygon fill="#63b8ff" stroke="#63b8ff" points="1155.1,-75.06 1145.19,-78.81 1155.28,-82.05 1155.1,-75.06"/>
</g>
<!-- Node19 -->
<g id="node19" class="node">
<title>Node19</title>
<g id="a_node19"><a xlink:href="m__Do__machine_8cpp.html" target="_top" xlink:title=" ">
<polygon fill="white" stroke="#666666" points="2086,-24.5 1939,-24.5 1939,-5.5 2086,-5.5 2086,-24.5"/>
<text text-anchor="middle" x="2012.5" y="-12.5" font-family="Helvetica,sans-Serif" font-size="10.00">src/m_Do/m_Do_machine.cpp</text>
</a>
</g>
</g>
<!-- Node3&#45;&gt;Node19 -->
<g id="edge18" class="edge">
<title>Node3&#45;&gt;Node19</title>
<path fill="none" stroke="#63b8ff" d="M1155.31,-78.35C1302.15,-74.45 1644.13,-62.39 1929.5,-30 1940.97,-28.7 1953.27,-26.87 1964.78,-24.96"/>
<polygon fill="#63b8ff" stroke="#63b8ff" points="1155.23,-74.85 1145.32,-78.61 1155.41,-81.85 1155.23,-74.85"/>
</g>
<!-- Node21 -->
<g id="node21" class="node">
<title>Node21</title>
<g id="a_node21"><a xlink:href="d__a__do_8h.html" target="_top" xlink:title=" ">
<polygon fill="white" stroke="#666666" points="2200.5,-30 2104.5,-30 2104.5,0 2200.5,0 2200.5,-30"/>
<text text-anchor="start" x="2112.5" y="-18" font-family="Helvetica,sans-Serif" font-size="10.00">include/rel/d/a/d_a</text>
<text text-anchor="middle" x="2152.5" y="-7" font-family="Helvetica,sans-Serif" font-size="10.00">_do/d_a_do.h</text>
</a>
</g>
</g>
<!-- Node20&#45;&gt;Node21 -->
<g id="edge20" class="edge">
<title>Node20&#45;&gt;Node21</title>
<path fill="none" stroke="#63b8ff" d="M3595.37,-79.41C3322.58,-77.18 2479.81,-67.38 2209.5,-30 2206.67,-29.61 2203.78,-29.14 2200.88,-28.6"/>
<polygon fill="#63b8ff" stroke="#63b8ff" points="3595.22,-82.91 3605.25,-79.49 3595.28,-75.91 3595.22,-82.91"/>
</g>
<!-- Node22 -->
<g id="node22" class="node">
<title>Node22</title>
<g id="a_node22"><a xlink:href="c__API__controller__pad_8cpp.html" target="_top" xlink:title=" ">
<polygon fill="white" stroke="#666666" points="2352.5,-30 2218.5,-30 2218.5,0 2352.5,0 2352.5,-30"/>
<text text-anchor="start" x="2226.5" y="-18" font-family="Helvetica,sans-Serif" font-size="10.00">libs/SSystem/SComponent</text>
<text text-anchor="middle" x="2285.5" y="-7" font-family="Helvetica,sans-Serif" font-size="10.00">/c_API_controller_pad.cpp</text>
</a>
</g>
</g>
<!-- Node20&#45;&gt;Node22 -->
<g id="edge21" class="edge">
<title>Node20&#45;&gt;Node22</title>
<path fill="none" stroke="#63b8ff" d="M3595.35,-78.36C3341.95,-73.29 2601.85,-56.55 2361.5,-30 2358.7,-29.69 2355.85,-29.34 2352.97,-28.95"/>
<polygon fill="#63b8ff" stroke="#63b8ff" points="3595.11,-81.86 3605.17,-78.56 3595.25,-74.86 3595.11,-81.86"/>
</g>
<!-- Node23 -->
<g id="node23" class="node">
<title>Node23</title>
<g id="a_node23"><a xlink:href="d__com__inf__game_8cpp.html" target="_top" xlink:title=" ">
<polygon fill="white" stroke="#666666" points="2478.5,-30 2370.5,-30 2370.5,0 2478.5,0 2478.5,-30"/>
<text text-anchor="start" x="2378.5" y="-18" font-family="Helvetica,sans-Serif" font-size="10.00">src/d/com/d_com_inf</text>
<text text-anchor="middle" x="2424.5" y="-7" font-family="Helvetica,sans-Serif" font-size="10.00">_game.cpp</text>
</a>
</g>
</g>
<!-- Node20&#45;&gt;Node23 -->
<g id="edge22" class="edge">
<title>Node20&#45;&gt;Node23</title>
<path fill="none" stroke="#63b8ff" d="M3595.45,-78.37C3358.86,-73.59 2701.92,-58.09 2487.5,-30 2484.61,-29.62 2481.66,-29.18 2478.69,-28.68"/>
<polygon fill="#63b8ff" stroke="#63b8ff" points="3595.15,-81.87 3605.22,-78.57 3595.29,-74.87 3595.15,-81.87"/>
</g>
<!-- Node24 -->
<g id="node24" class="node">
<title>Node24</title>
<g id="a_node24"><a xlink:href="d__attention_8cpp.html" target="_top" xlink:title=" ">
<polygon fill="white" stroke="#666666" points="2604,-24.5 2497,-24.5 2497,-5.5 2604,-5.5 2604,-24.5"/>
<text text-anchor="middle" x="2550.5" y="-12.5" font-family="Helvetica,sans-Serif" font-size="10.00">src/d/d_attention.cpp</text>
</a>
</g>
</g>
<!-- Node20&#45;&gt;Node24 -->
<g id="edge23" class="edge">
<title>Node20&#45;&gt;Node24</title>
<path fill="none" stroke="#63b8ff" d="M3595.43,-77.92C3376.38,-72.32 2801.75,-55.59 2612.5,-30 2603.53,-28.79 2593.95,-26.92 2585.06,-24.93"/>
<polygon fill="#63b8ff" stroke="#63b8ff" points="3595.24,-81.42 3605.33,-78.17 3595.42,-74.42 3595.24,-81.42"/>
</g>
<!-- Node25 -->
<g id="node25" class="node">
<title>Node25</title>
<g id="a_node25"><a xlink:href="d__bright__check_8cpp.html" target="_top" xlink:title=" ">
<polygon fill="white" stroke="#666666" points="2747,-24.5 2622,-24.5 2622,-5.5 2747,-5.5 2747,-24.5"/>
<text text-anchor="middle" x="2684.5" y="-12.5" font-family="Helvetica,sans-Serif" font-size="10.00">src/d/d_bright_check.cpp</text>
</a>
</g>
</g>
<!-- Node20&#45;&gt;Node25 -->
<g id="edge24" class="edge">
<title>Node20&#45;&gt;Node25</title>
<path fill="none" stroke="#63b8ff" d="M3595.1,-79.3C3431.03,-77.1 3063.37,-67.94 2756.5,-30 2746.39,-28.75 2735.57,-26.91 2725.46,-24.98"/>
<polygon fill="#63b8ff" stroke="#63b8ff" points="3595,-82.8 3605.04,-79.43 3595.09,-75.8 3595,-82.8"/>
</g>
<!-- Node26 -->
<g id="node26" class="node">
<title>Node26</title>
<g id="a_node26"><a xlink:href="d__camera_8cpp.html" target="_top" xlink:title=" ">
<polygon fill="white" stroke="#666666" points="2867.5,-24.5 2765.5,-24.5 2765.5,-5.5 2867.5,-5.5 2867.5,-24.5"/>
<text text-anchor="middle" x="2816.5" y="-12.5" font-family="Helvetica,sans-Serif" font-size="10.00">src/d/d_camera.cpp</text>
</a>
</g>
</g>
<!-- Node20&#45;&gt;Node26 -->
<g id="edge25" class="edge">
<title>Node20&#45;&gt;Node26</title>
<path fill="none" stroke="#63b8ff" d="M3595.5,-79.36C3447.73,-77.22 3136.43,-68.12 2876.5,-30 2868.03,-28.76 2859,-26.93 2850.58,-24.99"/>
<polygon fill="#63b8ff" stroke="#63b8ff" points="3595.15,-82.86 3605.2,-79.5 3595.25,-75.86 3595.15,-82.86"/>
</g>
<!-- Node27 -->
<g id="node27" class="node">
<title>Node27</title>
<g id="a_node27"><a xlink:href="d__lib_8cpp.html" target="_top" xlink:title=" ">
<polygon fill="white" stroke="#666666" points="2965.5,-24.5 2885.5,-24.5 2885.5,-5.5 2965.5,-5.5 2965.5,-24.5"/>
<text text-anchor="middle" x="2925.5" y="-12.5" font-family="Helvetica,sans-Serif" font-size="10.00">src/d/d_lib.cpp</text>
</a>
</g>
</g>
<!-- Node20&#45;&gt;Node27 -->
<g id="edge26" class="edge">
<title>Node20&#45;&gt;Node27</title>
<path fill="none" stroke="#63b8ff" d="M3595.21,-79.65C3461.31,-77.81 3195.87,-69.01 2974.5,-30 2967.44,-28.76 2959.95,-26.9 2952.99,-24.94"/>
<polygon fill="#63b8ff" stroke="#63b8ff" points="3595.02,-83.14 3605.06,-79.77 3595.1,-76.14 3595.02,-83.14"/>
</g>
<!-- Node28 -->
<g id="node28" class="node">
<title>Node28</title>
<g id="a_node28"><a xlink:href="d__name_8cpp.html" target="_top" xlink:title=" ">
<polygon fill="white" stroke="#666666" points="3077.5,-24.5 2983.5,-24.5 2983.5,-5.5 3077.5,-5.5 3077.5,-24.5"/>
<text text-anchor="middle" x="3030.5" y="-12.5" font-family="Helvetica,sans-Serif" font-size="10.00">src/d/d_name.cpp</text>
</a>
</g>
</g>
<!-- Node20&#45;&gt;Node28 -->
<g id="edge27" class="edge">
<title>Node20&#45;&gt;Node28</title>
<path fill="none" stroke="#63b8ff" d="M3595.54,-77.12C3479.37,-72.25 3266.13,-59.8 3086.5,-30 3078.69,-28.7 3070.37,-26.88 3062.59,-24.96"/>
<polygon fill="#63b8ff" stroke="#63b8ff" points="3595.17,-80.61 3605.3,-77.52 3595.45,-73.62 3595.17,-80.61"/>
</g>
<!-- Node29 -->
<g id="node29" class="node">
<title>Node29</title>
<g id="a_node29"><a xlink:href="d__vibration_8cpp.html" target="_top" xlink:title=" ">
<polygon fill="white" stroke="#666666" points="3203,-24.5 3096,-24.5 3096,-5.5 3203,-5.5 3203,-24.5"/>
<text text-anchor="middle" x="3149.5" y="-12.5" font-family="Helvetica,sans-Serif" font-size="10.00">src/d/d_vibration.cpp</text>
</a>
</g>
</g>
<!-- Node20&#45;&gt;Node29 -->
<g id="edge28" class="edge">
<title>Node20&#45;&gt;Node29</title>
<path fill="none" stroke="#63b8ff" d="M3595.44,-73.86C3500.88,-66.41 3344.72,-52.05 3211.5,-30 3203.23,-28.63 3194.4,-26.84 3186.08,-25"/>
<polygon fill="#63b8ff" stroke="#63b8ff" points="3594.91,-77.33 3605.15,-74.62 3595.45,-70.35 3594.91,-77.33"/>
</g>
<!-- Node30 -->
<g id="node30" class="node">
<title>Node30</title>
<g id="a_node30"><a xlink:href="d__event_8cpp.html" target="_top" xlink:title=" ">
<polygon fill="white" stroke="#666666" points="3342,-24.5 3221,-24.5 3221,-5.5 3342,-5.5 3342,-24.5"/>
<text text-anchor="middle" x="3281.5" y="-12.5" font-family="Helvetica,sans-Serif" font-size="10.00">src/d/event/d_event.cpp</text>
</a>
</g>
</g>
<!-- Node20&#45;&gt;Node30 -->
<g id="edge29" class="edge">
<title>Node20&#45;&gt;Node30</title>
<path fill="none" stroke="#63b8ff" d="M3595.34,-68.08C3528.65,-58.58 3434.04,-44.5 3351.5,-30 3342.83,-28.48 3333.59,-26.72 3324.76,-24.98"/>
<polygon fill="#63b8ff" stroke="#63b8ff" points="3594.74,-71.53 3605.13,-69.47 3595.72,-64.6 3594.74,-71.53"/>
</g>
<!-- Node31 -->
<g id="node31" class="node">
<title>Node31</title>
<g id="a_node31"><a xlink:href="d__file__select_8cpp.html" target="_top" xlink:title=" ">
<polygon fill="white" stroke="#666666" points="3488.5,-24.5 3360.5,-24.5 3360.5,-5.5 3488.5,-5.5 3488.5,-24.5"/>
<text text-anchor="middle" x="3424.5" y="-12.5" font-family="Helvetica,sans-Serif" font-size="10.00">src/d/file/d_file_select.cpp</text>
</a>
</g>
</g>
<!-- Node20&#45;&gt;Node31 -->
<g id="edge30" class="edge">
<title>Node20&#45;&gt;Node31</title>
<path fill="none" stroke="#63b8ff" d="M3612.35,-62.78C3563.39,-50.59 3499.71,-34.73 3460.49,-24.96"/>
<polygon fill="#63b8ff" stroke="#63b8ff" points="3611.49,-66.17 3622.04,-65.19 3613.18,-59.38 3611.49,-66.17"/>
</g>
<!-- Node32 -->
<g id="node32" class="node">
<title>Node32</title>
<g id="a_node32"><a xlink:href="d__menu__calibration_8cpp.html" target="_top" xlink:title=" ">
<polygon fill="white" stroke="#666666" points="3676.5,-24.5 3506.5,-24.5 3506.5,-5.5 3676.5,-5.5 3676.5,-24.5"/>
<text text-anchor="middle" x="3591.5" y="-12.5" font-family="Helvetica,sans-Serif" font-size="10.00">src/d/menu/d_menu_calibration.cpp</text>
</a>
</g>
</g>
<!-- Node20&#45;&gt;Node32 -->
<g id="edge31" class="edge">
<title>Node20&#45;&gt;Node32</title>
<path fill="none" stroke="#63b8ff" d="M3652.33,-59.26C3635.96,-47.61 3616.38,-33.69 3603.94,-24.84"/>
<polygon fill="#63b8ff" stroke="#63b8ff" points="3650.11,-61.98 3660.29,-64.92 3654.17,-56.27 3650.11,-61.98"/>
</g>
<!-- Node33 -->
<g id="node33" class="node">
<title>Node33</title>
<g id="a_node33"><a xlink:href="d__menu__fishing_8cpp.html" target="_top" xlink:title=" ">
<polygon fill="white" stroke="#666666" points="3848.5,-24.5 3694.5,-24.5 3694.5,-5.5 3848.5,-5.5 3848.5,-24.5"/>
<text text-anchor="middle" x="3771.5" y="-12.5" font-family="Helvetica,sans-Serif" font-size="10.00">src/d/menu/d_menu_fishing.cpp</text>
</a>
</g>
</g>
<!-- Node20&#45;&gt;Node33 -->
<g id="edge32" class="edge">
<title>Node20&#45;&gt;Node33</title>
<path fill="none" stroke="#63b8ff" d="M3710.67,-59.26C3727.04,-47.61 3746.62,-33.69 3759.06,-24.84"/>
<polygon fill="#63b8ff" stroke="#63b8ff" points="3708.83,-56.27 3702.71,-64.92 3712.89,-61.98 3708.83,-56.27"/>
</g>
<!-- Node34 -->
<g id="node34" class="node">
<title>Node34</title>
<g id="a_node34"><a xlink:href="d__menu__insect_8cpp.html" target="_top" xlink:title=" ">
<polygon fill="white" stroke="#666666" points="4018.5,-24.5 3866.5,-24.5 3866.5,-5.5 4018.5,-5.5 4018.5,-24.5"/>
<text text-anchor="middle" x="3942.5" y="-12.5" font-family="Helvetica,sans-Serif" font-size="10.00">src/d/menu/d_menu_insect.cpp</text>
</a>
</g>
</g>
<!-- Node20&#45;&gt;Node34 -->
<g id="edge33" class="edge">
<title>Node20&#45;&gt;Node34</title>
<path fill="none" stroke="#63b8ff" d="M3751.41,-62.86C3801.17,-50.66 3866.04,-34.75 3905.95,-24.96"/>
<polygon fill="#63b8ff" stroke="#63b8ff" points="3750.75,-59.42 3741.87,-65.2 3752.41,-66.21 3750.75,-59.42"/>
</g>
<!-- Node20&#45;&gt;Node35 -->
<g id="edge34" class="edge">
<title>Node20&#45;&gt;Node35</title>
<path fill="none" stroke="#63b8ff" d="M3767.42,-66.29C3768.45,-66.19 3769.48,-66.09 3770.5,-66 4497.12,-1.17 4685.12,-97.45 5411.5,-30 5423.86,-28.85 5437.14,-26.98 5449.45,-24.97"/>
<polygon fill="#63b8ff" stroke="#63b8ff" points="3767.26,-62.78 3757.7,-67.34 3768.02,-69.74 3767.26,-62.78"/>
</g>
<!-- Node36 -->
<g id="node36" class="node">
<title>Node36</title>
<g id="a_node36"><a xlink:href="d__menu__save_8cpp.html" target="_top" xlink:title=" ">
<polygon fill="white" stroke="#666666" points="4184,-24.5 4037,-24.5 4037,-5.5 4184,-5.5 4184,-24.5"/>
<text text-anchor="middle" x="4110.5" y="-12.5" font-family="Helvetica,sans-Serif" font-size="10.00">src/d/menu/d_menu_save.cpp</text>
</a>
</g>
</g>
<!-- Node20&#45;&gt;Node36 -->
<g id="edge35" class="edge">
<title>Node20&#45;&gt;Node36</title>
<path fill="none" stroke="#63b8ff" d="M3767.44,-66.46C3768.46,-66.3 3769.48,-66.15 3770.5,-66 3884.58,-49.04 3913.51,-47.59 4027.5,-30 4037.61,-28.44 4048.4,-26.69 4058.73,-24.96"/>
<polygon fill="#63b8ff" stroke="#63b8ff" points="3767.13,-62.96 3757.76,-67.92 3768.18,-69.88 3767.13,-62.96"/>
</g>
<!-- Node37 -->
<g id="node37" class="node">
<title>Node37</title>
<g id="a_node37"><a xlink:href="d__menu__skill_8cpp.html" target="_top" xlink:title=" ">
<polygon fill="white" stroke="#666666" points="4345,-24.5 4202,-24.5 4202,-5.5 4345,-5.5 4345,-24.5"/>
<text text-anchor="middle" x="4273.5" y="-12.5" font-family="Helvetica,sans-Serif" font-size="10.00">src/d/menu/d_menu_skill.cpp</text>
</a>
</g>
</g>
<!-- Node20&#45;&gt;Node37 -->
<g id="edge36" class="edge">
<title>Node20&#45;&gt;Node37</title>
<path fill="none" stroke="#63b8ff" d="M3767.43,-66.38C3768.46,-66.25 3769.48,-66.12 3770.5,-66 3957.81,-43.33 4006.39,-54.29 4193.5,-30 4204.13,-28.62 4215.49,-26.83 4226.23,-24.99"/>
<polygon fill="#63b8ff" stroke="#63b8ff" points="3767.19,-62.88 3757.73,-67.65 3768.1,-69.82 3767.19,-62.88"/>
</g>
<!-- Node38 -->
<g id="node38" class="node">
<title>Node38</title>
<g id="a_node38"><a xlink:href="d__menu__window_8cpp.html" target="_top" xlink:title=" ">
<polygon fill="white" stroke="#666666" points="4522,-24.5 4363,-24.5 4363,-5.5 4522,-5.5 4522,-24.5"/>
<text text-anchor="middle" x="4442.5" y="-12.5" font-family="Helvetica,sans-Serif" font-size="10.00">src/d/menu/d_menu_window.cpp</text>
</a>
</g>
</g>
<!-- Node20&#45;&gt;Node38 -->
<g id="edge37" class="edge">
<title>Node20&#45;&gt;Node38</title>
<path fill="none" stroke="#63b8ff" d="M3767.42,-66.34C3768.45,-66.23 3769.48,-66.11 3770.5,-66 4029.01,-37.76 4096.01,-58.46 4354.5,-30 4366.49,-28.68 4379.35,-26.86 4391.43,-24.98"/>
<polygon fill="#63b8ff" stroke="#63b8ff" points="3767.21,-62.84 3757.72,-67.54 3768.07,-69.79 3767.21,-62.84"/>
</g>
<!-- Node39 -->
<g id="node39" class="node">
<title>Node39</title>
<g id="a_node39"><a xlink:href="d__meter__map_8cpp.html" target="_top" xlink:title=" ">
<polygon fill="white" stroke="#666666" points="4644.5,-30 4540.5,-30 4540.5,0 4644.5,0 4644.5,-30"/>
<text text-anchor="start" x="4548.5" y="-18" font-family="Helvetica,sans-Serif" font-size="10.00">src/d/meter/d_meter</text>
<text text-anchor="middle" x="4592.5" y="-7" font-family="Helvetica,sans-Serif" font-size="10.00">_map.cpp</text>
</a>
</g>
</g>
<!-- Node20&#45;&gt;Node39 -->
<g id="edge38" class="edge">
<title>Node20&#45;&gt;Node39</title>
<path fill="none" stroke="#63b8ff" d="M3767.42,-66.32C3768.45,-66.21 3769.48,-66.1 3770.5,-66 4107.35,-31.64 4196.05,-76.05 4531.5,-30 4534.3,-29.62 4537.16,-29.17 4540.04,-28.67"/>
<polygon fill="#63b8ff" stroke="#63b8ff" points="3767.23,-62.82 3757.71,-67.47 3768.05,-69.77 3767.23,-62.82"/>
</g>
<!-- Node40 -->
<g id="node40" class="node">
<title>Node40</title>
<g id="a_node40"><a xlink:href="d__s__logo_8cpp.html" target="_top" xlink:title=" ">
<polygon fill="white" stroke="#666666" points="4770,-24.5 4663,-24.5 4663,-5.5 4770,-5.5 4770,-24.5"/>
<text text-anchor="middle" x="4716.5" y="-12.5" font-family="Helvetica,sans-Serif" font-size="10.00">src/d/s/d_s_logo.cpp</text>
</a>
</g>
</g>
<!-- Node20&#45;&gt;Node40 -->
<g id="edge39" class="edge">
<title>Node20&#45;&gt;Node40</title>
<path fill="none" stroke="#63b8ff" d="M3767.42,-66.31C3768.45,-66.21 3769.48,-66.1 3770.5,-66 4161.37,-27.42 4264.03,-80.8 4653.5,-30 4662.61,-28.81 4672.35,-26.95 4681.38,-24.96"/>
<polygon fill="#63b8ff" stroke="#63b8ff" points="3767.24,-62.81 3757.71,-67.44 3768.04,-69.77 3767.24,-62.81"/>
</g>
<!-- Node41 -->
<g id="node41" class="node">
<title>Node41</title>
<g id="a_node41"><a xlink:href="d__shop__system_8cpp.html" target="_top" xlink:title=" ">
<polygon fill="white" stroke="#666666" points="4940.5,-24.5 4788.5,-24.5 4788.5,-5.5 4940.5,-5.5 4940.5,-24.5"/>
<text text-anchor="middle" x="4864.5" y="-12.5" font-family="Helvetica,sans-Serif" font-size="10.00">src/d/shop/d_shop_system.cpp</text>
</a>
</g>
</g>
<!-- Node20&#45;&gt;Node41 -->
<g id="edge40" class="edge">
<title>Node20&#45;&gt;Node41</title>
<path fill="none" stroke="#63b8ff" d="M3767.42,-66.31C3768.45,-66.2 3769.48,-66.1 3770.5,-66 4217.17,-23.06 4332.99,-74.55 4779.5,-30 4791.55,-28.8 4804.49,-26.95 4816.54,-25"/>
<polygon fill="#63b8ff" stroke="#63b8ff" points="3767.24,-62.8 3757.7,-67.41 3768.03,-69.76 3767.24,-62.8"/>
</g>
<!-- Node42 -->
<g id="node42" class="node">
<title>Node42</title>
<g id="a_node42"><a xlink:href="f__pc__manager_8cpp.html" target="_top" xlink:title=" ">
<polygon fill="white" stroke="#666666" points="5092.5,-24.5 4958.5,-24.5 4958.5,-5.5 5092.5,-5.5 5092.5,-24.5"/>
<text text-anchor="middle" x="5025.5" y="-12.5" font-family="Helvetica,sans-Serif" font-size="10.00">src/f_pc/f_pc_manager.cpp</text>
</a>
</g>
</g>
<!-- Node20&#45;&gt;Node42 -->
<g id="edge41" class="edge">
<title>Node20&#45;&gt;Node42</title>
<path fill="none" stroke="#63b8ff" d="M3767.42,-66.3C3768.45,-66.2 3769.48,-66.1 3770.5,-66 4292.47,-17.17 4428.22,-85.65 4949.5,-30 4960.44,-28.83 4972.17,-26.98 4983.06,-24.99"/>
<polygon fill="#63b8ff" stroke="#63b8ff" points="3767.25,-62.8 3757.7,-67.39 3768.03,-69.75 3767.25,-62.8"/>
</g>
<!-- Node43 -->
<g id="node43" class="node">
<title>Node43</title>
<g id="a_node43"><a xlink:href="m__Do__controller__pad_8cpp.html" target="_top" xlink:title=" ">
<polygon fill="white" stroke="#666666" points="5242.5,-30 5110.5,-30 5110.5,0 5242.5,0 5242.5,-30"/>
<text text-anchor="start" x="5118.5" y="-18" font-family="Helvetica,sans-Serif" font-size="10.00">src/m_Do/m_Do_controller</text>
<text text-anchor="middle" x="5176.5" y="-7" font-family="Helvetica,sans-Serif" font-size="10.00">_pad.cpp</text>
</a>
</g>
</g>
<!-- Node20&#45;&gt;Node43 -->
<g id="edge42" class="edge">
<title>Node20&#45;&gt;Node43</title>
<path fill="none" stroke="#63b8ff" d="M3767.42,-66.29C3768.45,-66.19 3769.48,-66.09 3770.5,-66 4359.79,-11.91 4513.04,-92.49 5101.5,-30 5104.4,-29.69 5107.35,-29.33 5110.33,-28.94"/>
<polygon fill="#63b8ff" stroke="#63b8ff" points="3767.25,-62.79 3757.7,-67.37 3768.02,-69.75 3767.25,-62.79"/>
</g>
<!-- Node44 -->
<g id="node44" class="node">
<title>Node44</title>
<g id="a_node44"><a xlink:href="m__Do__graphic_8cpp.html" target="_top" xlink:title=" ">
<polygon fill="white" stroke="#666666" points="5402.5,-24.5 5260.5,-24.5 5260.5,-5.5 5402.5,-5.5 5402.5,-24.5"/>
<text text-anchor="middle" x="5331.5" y="-12.5" font-family="Helvetica,sans-Serif" font-size="10.00">src/m_Do/m_Do_graphic.cpp</text>
</a>
</g>
</g>
<!-- Node20&#45;&gt;Node44 -->
<g id="edge43" class="edge">
<title>Node20&#45;&gt;Node44</title>
<path fill="none" stroke="#63b8ff" d="M3767.42,-66.29C3768.45,-66.19 3769.48,-66.09 3770.5,-66 4426.24,-6.71 4596.29,-94.93 5251.5,-30 5263.15,-28.85 5275.65,-26.97 5287.23,-24.96"/>
<polygon fill="#63b8ff" stroke="#63b8ff" points="3767.26,-62.79 3757.7,-67.35 3768.02,-69.75 3767.26,-62.79"/>
</g>
</g>
</svg>
