<?xml version="1.0" encoding="UTF-8" standalone="no"?>
<!DOCTYPE svg PUBLIC "-//W3C//DTD SVG 1.1//EN"
 "http://www.w3.org/Graphics/SVG/1.1/DTD/svg11.dtd">
<!-- Generated by graphviz version 7.0.5 (20221223.1930)
 -->
<!-- Title: include/dolphin/base/PPCArch.h Pages: 1 -->
<svg width="826pt" height="93pt"
 viewBox="0.00 0.00 825.50 93.00" xmlns="http://www.w3.org/2000/svg" xmlns:xlink="http://www.w3.org/1999/xlink">
<g id="graph0" class="graph" transform="scale(1 1) rotate(0) translate(4 89)">
<title>include/dolphin/base/PPCArch.h</title>
<!-- Node1 -->
<g id="node1" class="node">
<title>Node1</title>
<g id="a_node1"><a xlink:title=" ">
<polygon fill="#999999" stroke="#666666" points="444,-85 339,-85 339,-55 444,-55 444,-85"/>
<text text-anchor="start" x="347" y="-73" font-family="Helvetica,sans-Serif" font-size="10.00">include/dolphin/base</text>
<text text-anchor="middle" x="391.5" y="-62" font-family="Helvetica,sans-Serif" font-size="10.00">/PPCArch.h</text>
</a>
</g>
</g>
<!-- Node2 -->
<g id="node2" class="node">
<title>Node2</title>
<g id="a_node2"><a xlink:href="ar_8c.html" target="_top" xlink:title=" ">
<polygon fill="white" stroke="#666666" points="95,-19 0,-19 0,0 95,0 95,-19"/>
<text text-anchor="middle" x="47.5" y="-7" font-family="Helvetica,sans-Serif" font-size="10.00">libs/dolphin/ar/ar.c</text>
</a>
</g>
</g>
<!-- Node1&#45;&gt;Node2 -->
<g id="edge1" class="edge">
<title>Node1&#45;&gt;Node2</title>
<path fill="none" stroke="#63b8ff" d="M327.2,-58.07C259.87,-46.61 155.68,-28.9 95.29,-18.63"/>
<polygon fill="#63b8ff" stroke="#63b8ff" points="326.57,-61.51 337.01,-59.73 327.74,-54.61 326.57,-61.51"/>
</g>
<!-- Node3 -->
<g id="node3" class="node">
<title>Node3</title>
<g id="a_node3"><a xlink:href="PPCArch_8c.html" target="_top" xlink:title=" ">
<polygon fill="white" stroke="#666666" points="253.5,-19 113.5,-19 113.5,0 253.5,0 253.5,-19"/>
<text text-anchor="middle" x="183.5" y="-7" font-family="Helvetica,sans-Serif" font-size="10.00">libs/dolphin/base/PPCArch.c</text>
</a>
</g>
</g>
<!-- Node1&#45;&gt;Node3 -->
<g id="edge2" class="edge">
<title>Node1&#45;&gt;Node3</title>
<path fill="none" stroke="#63b8ff" d="M329.24,-51.49C291.7,-40.93 245.45,-27.92 215.26,-19.43"/>
<polygon fill="#63b8ff" stroke="#63b8ff" points="328.05,-54.79 338.63,-54.13 329.95,-48.05 328.05,-54.79"/>
</g>
<!-- Node4 -->
<g id="node4" class="node">
<title>Node4</title>
<g id="a_node4"><a xlink:href="OS_8c.html" target="_top" xlink:title=" ">
<polygon fill="white" stroke="#666666" points="375.5,-19 271.5,-19 271.5,0 375.5,0 375.5,-19"/>
<text text-anchor="middle" x="323.5" y="-7" font-family="Helvetica,sans-Serif" font-size="10.00">libs/dolphin/os/OS.c</text>
</a>
</g>
</g>
<!-- Node1&#45;&gt;Node4 -->
<g id="edge3" class="edge">
<title>Node1&#45;&gt;Node4</title>
<path fill="none" stroke="#63b8ff" d="M366.03,-47.09C354.75,-37.38 342.13,-26.52 333.58,-19.18"/>
<polygon fill="#63b8ff" stroke="#63b8ff" points="363.68,-49.68 373.54,-53.55 368.25,-44.38 363.68,-49.68"/>
</g>
<!-- Node5 -->
<g id="node5" class="node">
<title>Node5</title>
<g id="a_node5"><a xlink:href="OSCache_8c.html" target="_top" xlink:title=" ">
<polygon fill="white" stroke="#666666" points="525,-19 394,-19 394,0 525,0 525,-19"/>
<text text-anchor="middle" x="459.5" y="-7" font-family="Helvetica,sans-Serif" font-size="10.00">libs/dolphin/os/OSCache.c</text>
</a>
</g>
</g>
<!-- Node1&#45;&gt;Node5 -->
<g id="edge4" class="edge">
<title>Node1&#45;&gt;Node5</title>
<path fill="none" stroke="#63b8ff" d="M416.97,-47.09C428.25,-37.38 440.87,-26.52 449.42,-19.18"/>
<polygon fill="#63b8ff" stroke="#63b8ff" points="414.75,-44.38 409.46,-53.55 419.32,-49.68 414.75,-44.38"/>
</g>
<!-- Node6 -->
<g id="node6" class="node">
<title>Node6</title>
<g id="a_node6"><a xlink:href="OSError_8c.html" target="_top" xlink:title=" ">
<polygon fill="white" stroke="#666666" points="667.5,-19 543.5,-19 543.5,0 667.5,0 667.5,-19"/>
<text text-anchor="middle" x="605.5" y="-7" font-family="Helvetica,sans-Serif" font-size="10.00">libs/dolphin/os/OSError.c</text>
</a>
</g>
</g>
<!-- Node1&#45;&gt;Node6 -->
<g id="edge5" class="edge">
<title>Node1&#45;&gt;Node6</title>
<path fill="none" stroke="#63b8ff" d="M455.05,-51.63C493.77,-41.04 541.63,-27.96 572.83,-19.43"/>
<polygon fill="#63b8ff" stroke="#63b8ff" points="454.58,-48.13 445.86,-54.14 456.43,-54.88 454.58,-48.13"/>
</g>
<!-- Node7 -->
<g id="node7" class="node">
<title>Node7</title>
<g id="a_node7"><a xlink:href="m__Do__printf_8cpp.html" target="_top" xlink:title=" ">
<polygon fill="white" stroke="#666666" points="817.5,-19 685.5,-19 685.5,0 817.5,0 817.5,-19"/>
<text text-anchor="middle" x="751.5" y="-7" font-family="Helvetica,sans-Serif" font-size="10.00">src/m_Do/m_Do_printf.cpp</text>
</a>
</g>
</g>
<!-- Node1&#45;&gt;Node7 -->
<g id="edge6" class="edge">
<title>Node1&#45;&gt;Node7</title>
<path fill="none" stroke="#63b8ff" d="M455.28,-58.64C523.72,-47.51 631.32,-30.03 696.26,-19.48"/>
<polygon fill="#63b8ff" stroke="#63b8ff" points="455.04,-55.13 445.73,-60.19 456.16,-62.04 455.04,-55.13"/>
</g>
</g>
</svg>
