<?xml version="1.0" encoding="UTF-8" standalone="no"?>
<!DOCTYPE svg PUBLIC "-//W3C//DTD SVG 1.1//EN"
 "http://www.w3.org/Graphics/SVG/1.1/DTD/svg11.dtd">
<!-- Generated by graphviz version 7.0.5 (20221223.1930)
 -->
<!-- Title: include/MSL_C/MSL_Common/Src/printf.h Pages: 1 -->
<!--zoomable 170 -->
<svg id="main" version="1.1" xmlns="http://www.w3.org/2000/svg" xmlns:xlink="http://www.w3.org/1999/xlink" xml:space="preserve" onload="init(evt)">
<style type="text/css"><![CDATA[
.edge:hover path { stroke: red; }
.edge:hover polygon { stroke: red; fill: red; }
]]></style>
<script type="text/javascript"><![CDATA[
var edges = document.getElementsByTagName('g');
if (edges && edges.length) {
  for (var i=0;i<edges.length;i++) {
    if (edges[i].id.substr(0,4)=='edge') {
      edges[i].setAttribute('class','edge');
    }
  }
}
]]></script>
        <defs>
                <circle id="rim" cx="0" cy="0" r="7"/>
                <circle id="rim2" cx="0" cy="0" r="3.5"/>
                <g id="zoomPlus">
                        <use xlink:href="#rim" fill="#404040">
                                <set attributeName="fill" to="#808080" begin="zoomplus.mouseover" end="zoomplus.mouseout"/>
                        </use>
                        <path d="M-4,0h8M0,-4v8" fill="none" stroke="white" stroke-width="1.5" pointer-events="none"/>
                </g>
                <g id="zoomMin">
                        <use xlink:href="#rim" fill="#404040">
                                <set attributeName="fill" to="#808080" begin="zoomminus.mouseover" end="zoomminus.mouseout"/>
                        </use>
                        <path d="M-4,0h8" fill="none" stroke="white" stroke-width="1.5" pointer-events="none"/>
                </g>
                <g id="dirArrow">
                        <path fill="none" stroke="white" stroke-width="1.5" d="M0,-3.0v7 M-2.5,-0.5L0,-3.0L2.5,-0.5"/>
                </g>
               <g id="resetDef">
                       <use xlink:href="#rim2" fill="#404040">
                               <set attributeName="fill" to="#808080" begin="reset.mouseover" end="reset.mouseout"/>
                       </use>
               </g>
        </defs>

<script type="text/javascript">
var viewWidth = 4218;
var viewHeight = 170;
var sectionId = 'dynsection-1';
</script>
<script xlink:href="svgpan.js"/>
<svg id="graph" class="graph">
<g id="viewport">
<title>include/MSL_C/MSL_Common/Src/printf.h</title>
<!-- Node1 -->
<g id="node1" class="node">
<title>Node1</title>
<g id="a_node1"><a xlink:title=" ">
<polygon fill="#999999" stroke="#666666" points="2078.5,-162 1926.5,-162 1926.5,-132 2078.5,-132 2078.5,-162"/>
<text text-anchor="start" x="1934.5" y="-150" font-family="Helvetica,sans-Serif" font-size="10.00">include/MSL_C/MSL_Common</text>
<text text-anchor="middle" x="2002.5" y="-139" font-family="Helvetica,sans-Serif" font-size="10.00">/Src/printf.h</text>
</a>
</g>
</g>
<!-- Node2 -->
<g id="node2" class="node">
<title>Node2</title>
<g id="a_node2"><a xlink:href="stdio_8h.html" target="_top" xlink:title=" ">
<polygon fill="white" stroke="#666666" points="1988,-90.5 1873,-90.5 1873,-71.5 1988,-71.5 1988,-90.5"/>
<text text-anchor="middle" x="1930.5" y="-78.5" font-family="Helvetica,sans-Serif" font-size="10.00">include/MSL_C/stdio.h</text>
</a>
</g>
</g>
<!-- Node1&#45;&gt;Node2 -->
<g id="edge1" class="edge">
<title>Node1&#45;&gt;Node2</title>
<path fill="none" stroke="#63b8ff" d="M1978.06,-124.27C1965.19,-112.84 1950.12,-99.44 1940.45,-90.84"/>
<polygon fill="#63b8ff" stroke="#63b8ff" points="1975.59,-126.76 1985.39,-130.79 1980.24,-121.53 1975.59,-126.76"/>
</g>
<!-- Node33 -->
<g id="node33" class="node">
<title>Node33</title>
<g id="a_node33"><a xlink:href="printf_8c.html" target="_top" xlink:title=" ">
<polygon fill="white" stroke="#666666" points="2142.5,-96 2006.5,-96 2006.5,-66 2142.5,-66 2142.5,-96"/>
<text text-anchor="start" x="2014.5" y="-84" font-family="Helvetica,sans-Serif" font-size="10.00">libs/MSL_C/MSL_Common</text>
<text text-anchor="middle" x="2074.5" y="-73" font-family="Helvetica,sans-Serif" font-size="10.00">/Src/printf.c</text>
</a>
</g>
</g>
<!-- Node1&#45;&gt;Node33 -->
<g id="edge32" class="edge">
<title>Node1&#45;&gt;Node33</title>
<path fill="none" stroke="#63b8ff" d="M2026.78,-124.42C2037.17,-115.18 2049.02,-104.65 2058.32,-96.39"/>
<polygon fill="#63b8ff" stroke="#63b8ff" points="2024.76,-121.53 2019.61,-130.79 2029.41,-126.76 2024.76,-121.53"/>
</g>
<!-- Node3 -->
<g id="node3" class="node">
<title>Node3</title>
<g id="a_node3"><a xlink:href="J2DPrint_8cpp.html" target="_top" xlink:title=" ">
<polygon fill="white" stroke="#666666" points="119,-30 0,-30 0,0 119,0 119,-30"/>
<text text-anchor="start" x="8" y="-18" font-family="Helvetica,sans-Serif" font-size="10.00">libs/JSystem/J2DGraph</text>
<text text-anchor="middle" x="59.5" y="-7" font-family="Helvetica,sans-Serif" font-size="10.00">/J2DPrint.cpp</text>
</a>
</g>
</g>
<!-- Node2&#45;&gt;Node3 -->
<g id="edge2" class="edge">
<title>Node2&#45;&gt;Node3</title>
<path fill="none" stroke="#63b8ff" d="M1861.03,-79.7C1573.12,-78.22 472.47,-69.98 127.5,-30 124.87,-29.69 122.18,-29.34 119.48,-28.94"/>
<polygon fill="#63b8ff" stroke="#63b8ff" points="1861,-83.2 1871.02,-79.75 1861.04,-76.2 1861,-83.2"/>
</g>
<!-- Node4 -->
<g id="node4" class="node">
<title>Node4</title>
<g id="a_node4"><a xlink:href="JASReport_8cpp.html" target="_top" xlink:title=" ">
<polygon fill="white" stroke="#666666" points="248,-30 137,-30 137,0 248,0 248,-30"/>
<text text-anchor="start" x="145" y="-18" font-family="Helvetica,sans-Serif" font-size="10.00">libs/JSystem/JAudio2</text>
<text text-anchor="middle" x="192.5" y="-7" font-family="Helvetica,sans-Serif" font-size="10.00">/JASReport.cpp</text>
</a>
</g>
</g>
<!-- Node2&#45;&gt;Node4 -->
<g id="edge3" class="edge">
<title>Node2&#45;&gt;Node4</title>
<path fill="none" stroke="#63b8ff" d="M1861.51,-79.65C1587.4,-77.97 574.77,-69.22 256.5,-30 253.79,-29.67 251.03,-29.27 248.24,-28.83"/>
<polygon fill="#63b8ff" stroke="#63b8ff" points="1861.33,-83.14 1871.35,-79.7 1861.37,-76.14 1861.33,-83.14"/>
</g>
<!-- Node5 -->
<g id="node5" class="node">
<title>Node5</title>
<g id="a_node5"><a xlink:href="JKRThread_8cpp.html" target="_top" xlink:title=" ">
<polygon fill="white" stroke="#666666" points="375,-30 266,-30 266,0 375,0 375,-30"/>
<text text-anchor="start" x="274" y="-18" font-family="Helvetica,sans-Serif" font-size="10.00">libs/JSystem/JKernel</text>
<text text-anchor="middle" x="320.5" y="-7" font-family="Helvetica,sans-Serif" font-size="10.00">/JKRThread.cpp</text>
</a>
</g>
</g>
<!-- Node2&#45;&gt;Node5 -->
<g id="edge4" class="edge">
<title>Node2&#45;&gt;Node5</title>
<path fill="none" stroke="#63b8ff" d="M1861.66,-79.45C1601.25,-77.1 676.46,-66.34 384.5,-30 381.45,-29.62 378.34,-29.17 375.2,-28.66"/>
<polygon fill="#63b8ff" stroke="#63b8ff" points="1861.28,-82.95 1871.31,-79.53 1861.34,-75.95 1861.28,-82.95"/>
</g>
<!-- Node6 -->
<g id="node6" class="node">
<title>Node6</title>
<g id="a_node6"><a xlink:href="JUTConsole_8cpp.html" target="_top" xlink:title=" ">
<polygon fill="white" stroke="#666666" points="499.5,-30 393.5,-30 393.5,0 499.5,0 499.5,-30"/>
<text text-anchor="start" x="401.5" y="-18" font-family="Helvetica,sans-Serif" font-size="10.00">libs/JSystem/JUtility</text>
<text text-anchor="middle" x="446.5" y="-7" font-family="Helvetica,sans-Serif" font-size="10.00">/JUTConsole.cpp</text>
</a>
</g>
</g>
<!-- Node2&#45;&gt;Node6 -->
<g id="edge5" class="edge">
<title>Node2&#45;&gt;Node6</title>
<path fill="none" stroke="#63b8ff" d="M1861.51,-79.28C1614.5,-76.45 774.83,-64.44 508.5,-30 505.65,-29.63 502.75,-29.19 499.82,-28.7"/>
<polygon fill="#63b8ff" stroke="#63b8ff" points="1861.26,-82.78 1871.3,-79.39 1861.34,-75.78 1861.26,-82.78"/>
</g>
<!-- Node7 -->
<g id="node7" class="node">
<title>Node7</title>
<g id="a_node7"><a xlink:href="JUTDbPrint_8cpp.html" target="_top" xlink:title=" ">
<polygon fill="white" stroke="#666666" points="623.5,-30 517.5,-30 517.5,0 623.5,0 623.5,-30"/>
<text text-anchor="start" x="525.5" y="-18" font-family="Helvetica,sans-Serif" font-size="10.00">libs/JSystem/JUtility</text>
<text text-anchor="middle" x="570.5" y="-7" font-family="Helvetica,sans-Serif" font-size="10.00">/JUTDbPrint.cpp</text>
</a>
</g>
</g>
<!-- Node2&#45;&gt;Node7 -->
<g id="edge6" class="edge">
<title>Node2&#45;&gt;Node7</title>
<path fill="none" stroke="#63b8ff" d="M1861.37,-79.01C1628.43,-75.42 873.42,-61.57 632.5,-30 629.66,-29.63 626.75,-29.19 623.82,-28.69"/>
<polygon fill="#63b8ff" stroke="#63b8ff" points="1861.15,-82.51 1871.2,-79.16 1861.25,-75.51 1861.15,-82.51"/>
</g>
<!-- Node8 -->
<g id="node8" class="node">
<title>Node8</title>
<g id="a_node8"><a xlink:href="JUTDirectPrint_8cpp.html" target="_top" xlink:title=" ">
<polygon fill="white" stroke="#666666" points="747.5,-30 641.5,-30 641.5,0 747.5,0 747.5,-30"/>
<text text-anchor="start" x="649.5" y="-18" font-family="Helvetica,sans-Serif" font-size="10.00">libs/JSystem/JUtility</text>
<text text-anchor="middle" x="694.5" y="-7" font-family="Helvetica,sans-Serif" font-size="10.00">/JUTDirectPrint.cpp</text>
</a>
</g>
</g>
<!-- Node2&#45;&gt;Node8 -->
<g id="edge7" class="edge">
<title>Node2&#45;&gt;Node8</title>
<path fill="none" stroke="#63b8ff" d="M1861.44,-78.69C1643.52,-74.29 972.18,-58.71 756.5,-30 753.66,-29.62 750.75,-29.18 747.82,-28.68"/>
<polygon fill="#63b8ff" stroke="#63b8ff" points="1861.11,-82.18 1871.18,-78.88 1861.25,-75.18 1861.11,-82.18"/>
</g>
<!-- Node9 -->
<g id="node9" class="node">
<title>Node9</title>
<g id="a_node9"><a xlink:href="JUTException_8cpp.html" target="_top" xlink:title=" ">
<polygon fill="white" stroke="#666666" points="871.5,-30 765.5,-30 765.5,0 871.5,0 871.5,-30"/>
<text text-anchor="start" x="773.5" y="-18" font-family="Helvetica,sans-Serif" font-size="10.00">libs/JSystem/JUtility</text>
<text text-anchor="middle" x="818.5" y="-7" font-family="Helvetica,sans-Serif" font-size="10.00">/JUTException.cpp</text>
</a>
</g>
</g>
<!-- Node2&#45;&gt;Node9 -->
<g id="edge8" class="edge">
<title>Node2&#45;&gt;Node9</title>
<path fill="none" stroke="#63b8ff" d="M1861.28,-78.28C1658.98,-73.01 1070.98,-55.84 880.5,-30 877.66,-29.61 874.75,-29.16 871.83,-28.66"/>
<polygon fill="#63b8ff" stroke="#63b8ff" points="1861.02,-81.78 1871.11,-78.54 1861.21,-74.78 1861.02,-81.78"/>
</g>
<!-- Node10 -->
<g id="node10" class="node">
<title>Node10</title>
<g id="a_node10"><a xlink:href="Z2AudioMgr_8cpp.html" target="_top" xlink:title=" ">
<polygon fill="white" stroke="#666666" points="1047.5,-24.5 889.5,-24.5 889.5,-5.5 1047.5,-5.5 1047.5,-24.5"/>
<text text-anchor="middle" x="968.5" y="-12.5" font-family="Helvetica,sans-Serif" font-size="10.00">libs/Z2AudioLib/Z2AudioMgr.cpp</text>
</a>
</g>
</g>
<!-- Node2&#45;&gt;Node10 -->
<g id="edge9" class="edge">
<title>Node2&#45;&gt;Node10</title>
<path fill="none" stroke="#63b8ff" d="M1861.42,-78.41C1713.46,-74.49 1355.09,-62.21 1056.5,-30 1044.35,-28.69 1031.32,-26.85 1019.11,-24.94"/>
<polygon fill="#63b8ff" stroke="#63b8ff" points="1860.95,-81.9 1871.04,-78.66 1861.13,-74.9 1860.95,-81.9"/>
</g>
<!-- Node11 -->
<g id="node11" class="node">
<title>Node11</title>
<g id="a_node11"><a xlink:href="DynamicLink_8cpp.html" target="_top" xlink:title=" ">
<polygon fill="white" stroke="#666666" points="1173,-24.5 1066,-24.5 1066,-5.5 1173,-5.5 1173,-24.5"/>
<text text-anchor="middle" x="1119.5" y="-12.5" font-family="Helvetica,sans-Serif" font-size="10.00">src/DynamicLink.cpp</text>
</a>
</g>
</g>
<!-- Node2&#45;&gt;Node11 -->
<g id="edge10" class="edge">
<title>Node2&#45;&gt;Node11</title>
<path fill="none" stroke="#63b8ff" d="M1861.82,-78.89C1729.64,-75.99 1430.98,-65.7 1182.5,-30 1173.63,-28.73 1164.15,-26.88 1155.31,-24.95"/>
<polygon fill="#63b8ff" stroke="#63b8ff" points="1861.36,-82.38 1871.43,-79.09 1861.51,-75.38 1861.36,-82.38"/>
</g>
<!-- Node12 -->
<g id="node12" class="node">
<title>Node12</title>
<g id="a_node12"><a xlink:href="d__com__inf__game_8cpp.html" target="_top" xlink:title=" ">
<polygon fill="white" stroke="#666666" points="1299.5,-30 1191.5,-30 1191.5,0 1299.5,0 1299.5,-30"/>
<text text-anchor="start" x="1199.5" y="-18" font-family="Helvetica,sans-Serif" font-size="10.00">src/d/com/d_com_inf</text>
<text text-anchor="middle" x="1245.5" y="-7" font-family="Helvetica,sans-Serif" font-size="10.00">_game.cpp</text>
</a>
</g>
</g>
<!-- Node2&#45;&gt;Node12 -->
<g id="edge11" class="edge">
<title>Node2&#45;&gt;Node12</title>
<path fill="none" stroke="#63b8ff" d="M1861.31,-77.57C1746.1,-72.82 1507.87,-60.02 1308.5,-30 1305.62,-29.57 1302.67,-29.08 1299.71,-28.55"/>
<polygon fill="#63b8ff" stroke="#63b8ff" points="1861.09,-81.06 1871.23,-77.97 1861.38,-74.07 1861.09,-81.06"/>
</g>
<!-- Node13 -->
<g id="node13" class="node">
<title>Node13</title>
<g id="a_node13"><a xlink:href="d__com__static_8cpp.html" target="_top" xlink:title=" ">
<polygon fill="white" stroke="#666666" points="1457.5,-24.5 1317.5,-24.5 1317.5,-5.5 1457.5,-5.5 1457.5,-24.5"/>
<text text-anchor="middle" x="1387.5" y="-12.5" font-family="Helvetica,sans-Serif" font-size="10.00">src/d/com/d_com_static.cpp</text>
</a>
</g>
</g>
<!-- Node2&#45;&gt;Node13 -->
<g id="edge12" class="edge">
<title>Node2&#45;&gt;Node13</title>
<path fill="none" stroke="#63b8ff" d="M1861.6,-74.05C1770.83,-65.88 1606.31,-49.9 1466.5,-30 1456.3,-28.55 1445.39,-26.77 1435.04,-24.96"/>
<polygon fill="#63b8ff" stroke="#63b8ff" points="1861.06,-77.52 1871.33,-74.92 1861.68,-70.55 1861.06,-77.52"/>
</g>
<!-- Node14 -->
<g id="node14" class="node">
<title>Node14</title>
<g id="a_node14"><a xlink:href="d__name_8cpp.html" target="_top" xlink:title=" ">
<polygon fill="white" stroke="#666666" points="1569.5,-24.5 1475.5,-24.5 1475.5,-5.5 1569.5,-5.5 1569.5,-24.5"/>
<text text-anchor="middle" x="1522.5" y="-12.5" font-family="Helvetica,sans-Serif" font-size="10.00">src/d/d_name.cpp</text>
</a>
</g>
</g>
<!-- Node2&#45;&gt;Node14 -->
<g id="edge13" class="edge">
<title>Node2&#45;&gt;Node14</title>
<path fill="none" stroke="#63b8ff" d="M1861.52,-72.35C1790.29,-63.95 1676.11,-49.08 1578.5,-30 1571.12,-28.56 1563.26,-26.76 1555.83,-24.94"/>
<polygon fill="#63b8ff" stroke="#63b8ff" points="1860.73,-75.78 1871.07,-73.47 1861.54,-68.83 1860.73,-75.78"/>
</g>
<!-- Node15 -->
<g id="node15" class="node">
<title>Node15</title>
<g id="a_node15"><a xlink:href="d__resorce_8cpp.html" target="_top" xlink:title=" ">
<polygon fill="white" stroke="#666666" points="1689.5,-24.5 1587.5,-24.5 1587.5,-5.5 1689.5,-5.5 1689.5,-24.5"/>
<text text-anchor="middle" x="1638.5" y="-12.5" font-family="Helvetica,sans-Serif" font-size="10.00">src/d/d_resorce.cpp</text>
</a>
</g>
</g>
<!-- Node2&#45;&gt;Node15 -->
<g id="edge14" class="edge">
<title>Node2&#45;&gt;Node15</title>
<path fill="none" stroke="#63b8ff" d="M1876.54,-68.64C1829.48,-58.67 1759.41,-43.67 1698.5,-30 1691.4,-28.41 1683.84,-26.67 1676.57,-24.98"/>
<polygon fill="#63b8ff" stroke="#63b8ff" points="1875.7,-72.04 1886.21,-70.69 1877.15,-65.19 1875.7,-72.04"/>
</g>
<!-- Node16 -->
<g id="node16" class="node">
<title>Node16</title>
<g id="a_node16"><a xlink:href="d__stage_8cpp.html" target="_top" xlink:title=" ">
<polygon fill="white" stroke="#666666" points="1801.5,-24.5 1707.5,-24.5 1707.5,-5.5 1801.5,-5.5 1801.5,-24.5"/>
<text text-anchor="middle" x="1754.5" y="-12.5" font-family="Helvetica,sans-Serif" font-size="10.00">src/d/d_stage.cpp</text>
</a>
</g>
</g>
<!-- Node2&#45;&gt;Node16 -->
<g id="edge15" class="edge">
<title>Node2&#45;&gt;Node16</title>
<path fill="none" stroke="#63b8ff" d="M1895.5,-67.27C1861.05,-54.75 1809.34,-35.94 1779.05,-24.93"/>
<polygon fill="#63b8ff" stroke="#63b8ff" points="1894.01,-70.46 1904.61,-70.58 1896.4,-63.88 1894.01,-70.46"/>
</g>
<!-- Node17 -->
<g id="node17" class="node">
<title>Node17</title>
<g id="a_node17"><a xlink:href="d__event__manager_8cpp.html" target="_top" xlink:title=" ">
<polygon fill="white" stroke="#666666" points="1923,-30 1820,-30 1820,0 1923,0 1923,-30"/>
<text text-anchor="start" x="1828" y="-18" font-family="Helvetica,sans-Serif" font-size="10.00">src/d/event/d_event</text>
<text text-anchor="middle" x="1871.5" y="-7" font-family="Helvetica,sans-Serif" font-size="10.00">_manager.cpp</text>
</a>
</g>
</g>
<!-- Node2&#45;&gt;Node17 -->
<g id="edge16" class="edge">
<title>Node2&#45;&gt;Node17</title>
<path fill="none" stroke="#63b8ff" d="M1914.78,-62.95C1905.36,-52.73 1893.53,-39.9 1884.62,-30.23"/>
<polygon fill="#63b8ff" stroke="#63b8ff" points="1911.92,-65.01 1921.27,-69.99 1917.07,-60.26 1911.92,-65.01"/>
</g>
<!-- Node18 -->
<g id="node18" class="node">
<title>Node18</title>
<g id="a_node18"><a xlink:href="d__file__sel__info_8cpp.html" target="_top" xlink:title=" ">
<polygon fill="white" stroke="#666666" points="2038,-30 1941,-30 1941,0 2038,0 2038,-30"/>
<text text-anchor="start" x="1949" y="-18" font-family="Helvetica,sans-Serif" font-size="10.00">src/d/file/d_file_sel</text>
<text text-anchor="middle" x="1989.5" y="-7" font-family="Helvetica,sans-Serif" font-size="10.00">_info.cpp</text>
</a>
</g>
</g>
<!-- Node2&#45;&gt;Node18 -->
<g id="edge17" class="edge">
<title>Node2&#45;&gt;Node18</title>
<path fill="none" stroke="#63b8ff" d="M1946.22,-62.95C1955.64,-52.73 1967.47,-39.9 1976.38,-30.23"/>
<polygon fill="#63b8ff" stroke="#63b8ff" points="1943.93,-60.26 1939.73,-69.99 1949.08,-65.01 1943.93,-60.26"/>
</g>
<!-- Node19 -->
<g id="node19" class="node">
<title>Node19</title>
<g id="a_node19"><a xlink:href="d__menu__fmap_8cpp.html" target="_top" xlink:title=" ">
<polygon fill="white" stroke="#666666" points="2204.5,-24.5 2056.5,-24.5 2056.5,-5.5 2204.5,-5.5 2204.5,-24.5"/>
<text text-anchor="middle" x="2130.5" y="-12.5" font-family="Helvetica,sans-Serif" font-size="10.00">src/d/menu/d_menu_fmap.cpp</text>
</a>
</g>
</g>
<!-- Node2&#45;&gt;Node19 -->
<g id="edge18" class="edge">
<title>Node2&#45;&gt;Node19</title>
<path fill="none" stroke="#63b8ff" d="M1969.26,-67.6C2008.4,-55.07 2067.88,-36.04 2102.61,-24.93"/>
<polygon fill="#63b8ff" stroke="#63b8ff" points="1968.21,-64.26 1959.75,-70.64 1970.34,-70.93 1968.21,-64.26"/>
</g>
<!-- Node20 -->
<g id="node20" class="node">
<title>Node20</title>
<g id="a_node20"><a xlink:href="d__menu__insect_8cpp.html" target="_top" xlink:title=" ">
<polygon fill="white" stroke="#666666" points="2374.5,-24.5 2222.5,-24.5 2222.5,-5.5 2374.5,-5.5 2374.5,-24.5"/>
<text text-anchor="middle" x="2298.5" y="-12.5" font-family="Helvetica,sans-Serif" font-size="10.00">src/d/menu/d_menu_insect.cpp</text>
</a>
</g>
</g>
<!-- Node2&#45;&gt;Node20 -->
<g id="edge19" class="edge">
<title>Node2&#45;&gt;Node20</title>
<path fill="none" stroke="#63b8ff" d="M1983.15,-68.78C1988,-67.82 1992.84,-66.87 1997.5,-66 2009.51,-63.75 2160.55,-38.77 2243.99,-25"/>
<polygon fill="#63b8ff" stroke="#63b8ff" points="1982.49,-65.35 1973.39,-70.77 1983.89,-72.21 1982.49,-65.35"/>
</g>
<!-- Node21 -->
<g id="node21" class="node">
<title>Node21</title>
<g id="a_node21"><a xlink:href="d__menu__letter_8cpp.html" target="_top" xlink:title=" ">
<polygon fill="white" stroke="#666666" points="2540.5,-24.5 2392.5,-24.5 2392.5,-5.5 2540.5,-5.5 2540.5,-24.5"/>
<text text-anchor="middle" x="2466.5" y="-12.5" font-family="Helvetica,sans-Serif" font-size="10.00">src/d/menu/d_menu_letter.cpp</text>
</a>
</g>
</g>
<!-- Node2&#45;&gt;Node21 -->
<g id="edge20" class="edge">
<title>Node2&#45;&gt;Node21</title>
<path fill="none" stroke="#63b8ff" d="M1980.98,-68.82C1986.54,-67.78 1992.13,-66.81 1997.5,-66 2167.88,-40.34 2212.65,-52.34 2383.5,-30 2394.37,-28.58 2405.99,-26.79 2417,-24.97"/>
<polygon fill="#63b8ff" stroke="#63b8ff" points="1980.31,-65.38 1971.18,-70.74 1981.66,-72.25 1980.31,-65.38"/>
</g>
<!-- Node22 -->
<g id="node22" class="node">
<title>Node22</title>
<g id="a_node22"><a xlink:href="d__menu__save_8cpp.html" target="_top" xlink:title=" ">
<polygon fill="white" stroke="#666666" points="2706,-24.5 2559,-24.5 2559,-5.5 2706,-5.5 2706,-24.5"/>
<text text-anchor="middle" x="2632.5" y="-12.5" font-family="Helvetica,sans-Serif" font-size="10.00">src/d/menu/d_menu_save.cpp</text>
</a>
</g>
</g>
<!-- Node2&#45;&gt;Node22 -->
<g id="edge21" class="edge">
<title>Node2&#45;&gt;Node22</title>
<path fill="none" stroke="#63b8ff" d="M1979.85,-68.87C1985.78,-67.78 1991.76,-66.78 1997.5,-66 2241.1,-32.77 2305.3,-58.48 2549.5,-30 2560.82,-28.68 2572.95,-26.86 2584.34,-24.98"/>
<polygon fill="#63b8ff" stroke="#63b8ff" points="1979.23,-65.42 1970.09,-70.78 1980.58,-72.29 1979.23,-65.42"/>
</g>
<!-- Node23 -->
<g id="node23" class="node">
<title>Node23</title>
<g id="a_node23"><a xlink:href="d__msg__class_8cpp.html" target="_top" xlink:title=" ">
<polygon fill="white" stroke="#666666" points="2863,-24.5 2724,-24.5 2724,-5.5 2863,-5.5 2863,-24.5"/>
<text text-anchor="middle" x="2793.5" y="-12.5" font-family="Helvetica,sans-Serif" font-size="10.00">src/d/msg/d_msg_class.cpp</text>
</a>
</g>
</g>
<!-- Node2&#45;&gt;Node23 -->
<g id="edge22" class="edge">
<title>Node2&#45;&gt;Node23</title>
<path fill="none" stroke="#63b8ff" d="M1979.16,-68.91C1985.31,-67.78 1991.53,-66.77 1997.5,-66 2314.4,-25.2 2398.06,-66.3 2715.5,-30 2726.44,-28.75 2738.15,-26.91 2749.1,-24.98"/>
<polygon fill="#63b8ff" stroke="#63b8ff" points="1978.87,-65.4 1969.72,-70.75 1980.21,-72.27 1978.87,-65.4"/>
</g>
<!-- Node24 -->
<g id="node24" class="node">
<title>Node24</title>
<g id="a_node24"><a xlink:href="d__msg__object_8cpp.html" target="_top" xlink:title=" ">
<polygon fill="white" stroke="#666666" points="3023.5,-24.5 2881.5,-24.5 2881.5,-5.5 3023.5,-5.5 3023.5,-24.5"/>
<text text-anchor="middle" x="2952.5" y="-12.5" font-family="Helvetica,sans-Serif" font-size="10.00">src/d/msg/d_msg_object.cpp</text>
</a>
</g>
</g>
<!-- Node2&#45;&gt;Node24 -->
<g id="edge23" class="edge">
<title>Node2&#45;&gt;Node24</title>
<path fill="none" stroke="#63b8ff" d="M1978.92,-68.9C1985.15,-67.76 1991.46,-66.75 1997.5,-66 2383.75,-18.03 2485.52,-71.64 2872.5,-30 2883.86,-28.78 2896.03,-26.93 2907.38,-24.97"/>
<polygon fill="#63b8ff" stroke="#63b8ff" points="1978.51,-65.41 1969.36,-70.76 1979.85,-72.28 1978.51,-65.41"/>
</g>
<!-- Node25 -->
<g id="node25" class="node">
<title>Node25</title>
<g id="a_node25"><a xlink:href="d__msg__unit_8cpp.html" target="_top" xlink:title=" ">
<polygon fill="white" stroke="#666666" points="3173,-24.5 3042,-24.5 3042,-5.5 3173,-5.5 3173,-24.5"/>
<text text-anchor="middle" x="3107.5" y="-12.5" font-family="Helvetica,sans-Serif" font-size="10.00">src/d/msg/d_msg_unit.cpp</text>
</a>
</g>
</g>
<!-- Node2&#45;&gt;Node25 -->
<g id="edge24" class="edge">
<title>Node2&#45;&gt;Node25</title>
<path fill="none" stroke="#63b8ff" d="M1978.92,-68.86C1985.14,-67.73 1991.45,-66.73 1997.5,-66 2454.45,-10.73 2574.99,-80.37 3032.5,-30 3043.3,-28.81 3054.87,-26.95 3065.62,-24.96"/>
<polygon fill="#63b8ff" stroke="#63b8ff" points="1978.51,-65.38 1969.36,-70.72 1979.84,-72.25 1978.51,-65.38"/>
</g>
<!-- Node26 -->
<g id="node26" class="node">
<title>Node26</title>
<g id="a_node26"><a xlink:href="d__particle_8cpp.html" target="_top" xlink:title=" ">
<polygon fill="white" stroke="#666666" points="3327.5,-24.5 3191.5,-24.5 3191.5,-5.5 3327.5,-5.5 3327.5,-24.5"/>
<text text-anchor="middle" x="3259.5" y="-12.5" font-family="Helvetica,sans-Serif" font-size="10.00">src/d/particle/d_particle.cpp</text>
</a>
</g>
</g>
<!-- Node2&#45;&gt;Node26 -->
<g id="edge25" class="edge">
<title>Node2&#45;&gt;Node26</title>
<path fill="none" stroke="#63b8ff" d="M1978.69,-68.88C1984.99,-67.73 1991.38,-66.73 1997.5,-66 2520.73,-3.87 2658.5,-85.28 3182.5,-30 3193.58,-28.83 3205.46,-26.97 3216.5,-24.99"/>
<polygon fill="#63b8ff" stroke="#63b8ff" points="1978.15,-65.42 1969.01,-70.76 1979.49,-72.29 1978.15,-65.42"/>
</g>
<!-- Node27 -->
<g id="node27" class="node">
<title>Node27</title>
<g id="a_node27"><a xlink:href="d__s__room_8cpp.html" target="_top" xlink:title=" ">
<polygon fill="white" stroke="#666666" points="3455.5,-24.5 3345.5,-24.5 3345.5,-5.5 3455.5,-5.5 3455.5,-24.5"/>
<text text-anchor="middle" x="3400.5" y="-12.5" font-family="Helvetica,sans-Serif" font-size="10.00">src/d/s/d_s_room.cpp</text>
</a>
</g>
</g>
<!-- Node2&#45;&gt;Node27 -->
<g id="edge26" class="edge">
<title>Node2&#45;&gt;Node27</title>
<path fill="none" stroke="#63b8ff" d="M1978.68,-68.86C1984.98,-67.72 1991.38,-66.72 1997.5,-66 2588.8,3.16 2745.54,-101.93 3336.5,-30 3345.87,-28.86 3355.89,-26.99 3365.16,-24.98"/>
<polygon fill="#63b8ff" stroke="#63b8ff" points="1978.15,-65.4 1969,-70.74 1979.49,-72.27 1978.15,-65.4"/>
</g>
<!-- Node28 -->
<g id="node28" class="node">
<title>Node28</title>
<g id="a_node28"><a xlink:href="d__save_8cpp.html" target="_top" xlink:title=" ">
<polygon fill="white" stroke="#666666" points="3589,-24.5 3474,-24.5 3474,-5.5 3589,-5.5 3589,-24.5"/>
<text text-anchor="middle" x="3531.5" y="-12.5" font-family="Helvetica,sans-Serif" font-size="10.00">src/d/save/d_save.cpp</text>
</a>
</g>
</g>
<!-- Node2&#45;&gt;Node28 -->
<g id="edge27" class="edge">
<title>Node2&#45;&gt;Node28</title>
<path fill="none" stroke="#63b8ff" d="M1978.68,-68.84C1984.98,-67.71 1991.38,-66.71 1997.5,-66 2645.37,9.01 2816.63,-105.01 3464.5,-30 3474.3,-28.87 3484.78,-27 3494.48,-24.99"/>
<polygon fill="#63b8ff" stroke="#63b8ff" points="1978.15,-65.38 1969,-70.73 1979.49,-72.25 1978.15,-65.38"/>
</g>
<!-- Node29 -->
<g id="node29" class="node">
<title>Node29</title>
<g id="a_node29"><a xlink:href="m__Do__MemCardRWmng_8cpp.html" target="_top" xlink:title=" ">
<polygon fill="white" stroke="#666666" points="3794,-24.5 3607,-24.5 3607,-5.5 3794,-5.5 3794,-24.5"/>
<text text-anchor="middle" x="3700.5" y="-12.5" font-family="Helvetica,sans-Serif" font-size="10.00">src/m_Do/m_Do_MemCardRWmng.cpp</text>
</a>
</g>
</g>
<!-- Node2&#45;&gt;Node29 -->
<g id="edge28" class="edge">
<title>Node2&#45;&gt;Node29</title>
<path fill="none" stroke="#63b8ff" d="M1978.68,-68.83C1984.98,-67.7 1991.38,-66.7 1997.5,-66 2704.6,15.13 2889.01,-86.48 3598.5,-30 3613.11,-28.84 3628.83,-26.98 3643.44,-25"/>
<polygon fill="#63b8ff" stroke="#63b8ff" points="1978.15,-65.37 1969,-70.71 1979.48,-72.24 1978.15,-65.37"/>
</g>
<!-- Node30 -->
<g id="node30" class="node">
<title>Node30</title>
<g id="a_node30"><a xlink:href="m__Do__ext_8cpp.html" target="_top" xlink:title=" ">
<polygon fill="white" stroke="#666666" points="3935,-24.5 3812,-24.5 3812,-5.5 3935,-5.5 3935,-24.5"/>
<text text-anchor="middle" x="3873.5" y="-12.5" font-family="Helvetica,sans-Serif" font-size="10.00">src/m_Do/m_Do_ext.cpp</text>
</a>
</g>
</g>
<!-- Node2&#45;&gt;Node30 -->
<g id="edge29" class="edge">
<title>Node2&#45;&gt;Node30</title>
<path fill="none" stroke="#63b8ff" d="M1978.45,-68.86C1984.83,-67.71 1991.3,-66.7 1997.5,-66 2795.21,24.5 3005.41,-117.07 3803.5,-30 3813.85,-28.87 3824.94,-26.98 3835.18,-24.94"/>
<polygon fill="#63b8ff" stroke="#63b8ff" points="1977.79,-65.42 1968.65,-70.77 1979.13,-72.29 1977.79,-65.42"/>
</g>
<!-- Node31 -->
<g id="node31" class="node">
<title>Node31</title>
<g id="a_node31"><a xlink:href="m__Do__printf_8cpp.html" target="_top" xlink:title=" ">
<polygon fill="white" stroke="#666666" points="4085.5,-24.5 3953.5,-24.5 3953.5,-5.5 4085.5,-5.5 4085.5,-24.5"/>
<text text-anchor="middle" x="4019.5" y="-12.5" font-family="Helvetica,sans-Serif" font-size="10.00">src/m_Do/m_Do_printf.cpp</text>
</a>
</g>
</g>
<!-- Node2&#45;&gt;Node31 -->
<g id="edge30" class="edge">
<title>Node2&#45;&gt;Node31</title>
<path fill="none" stroke="#63b8ff" d="M1978.45,-68.85C1984.83,-67.7 1991.3,-66.7 1997.5,-66 2857.54,30.94 3083.47,-117.71 3944.5,-30 3955.57,-28.87 3967.45,-26.98 3978.42,-24.94"/>
<polygon fill="#63b8ff" stroke="#63b8ff" points="1977.79,-65.41 1968.65,-70.76 1979.13,-72.28 1977.79,-65.41"/>
</g>
<!-- Node32 -->
<g id="node32" class="node">
<title>Node32</title>
<g id="a_node32"><a xlink:href="d__msg__scrn__explain_8cpp.html" target="_top" xlink:title=" ">
<polygon fill="white" stroke="#666666" points="4209.5,-30 4103.5,-30 4103.5,0 4209.5,0 4209.5,-30"/>
<text text-anchor="start" x="4111.5" y="-18" font-family="Helvetica,sans-Serif" font-size="10.00">src/msg/scrn/d_msg</text>
<text text-anchor="middle" x="4156.5" y="-7" font-family="Helvetica,sans-Serif" font-size="10.00">_scrn_explain.cpp</text>
</a>
</g>
</g>
<!-- Node2&#45;&gt;Node32 -->
<g id="edge31" class="edge">
<title>Node2&#45;&gt;Node32</title>
<path fill="none" stroke="#63b8ff" d="M1978.45,-68.84C1984.83,-67.69 1991.3,-66.69 1997.5,-66 2460.67,-14.1 3631.76,-85.62 4094.5,-30 4097.35,-29.66 4100.26,-29.24 4103.19,-28.77"/>
<polygon fill="#63b8ff" stroke="#63b8ff" points="1977.79,-65.4 1968.64,-70.75 1979.13,-72.27 1977.79,-65.4"/>
</g>
</g>
</svg>
        <g id="navigator" transform="translate(0 0)" fill="#404254">
                <rect fill="#f2f5e9" fill-opacity="0.5" stroke="#606060" stroke-width=".5" x="0" y="0" width="60" height="60"/>
                <use id="zoomplus" xlink:href="#zoomPlus" x="17" y="9" onmousedown="handleZoom(evt,'in')"/>
                <use id="zoomminus" xlink:href="#zoomMin" x="42" y="9" onmousedown="handleZoom(evt,'out')"/>
                <use id="reset" xlink:href="#resetDef" x="30" y="36" onmousedown="handleReset()"/>
                <g id="arrowUp" xlink:href="#dirArrow" transform="translate(30 24)" onmousedown="handlePan(0,-1)">
                  <use xlink:href="#rim" fill="#404040">
                        <set attributeName="fill" to="#808080" begin="arrowUp.mouseover" end="arrowUp.mouseout"/>
                  </use>
                  <path fill="none" stroke="white" stroke-width="1.5" d="M0,-3.0v7 M-2.5,-0.5L0,-3.0L2.5,-0.5"/>
                </g>
                <g id="arrowRight" xlink:href="#dirArrow" transform="rotate(90) translate(36 -43)" onmousedown="handlePan(1,0)">
                  <use xlink:href="#rim" fill="#404040">
                        <set attributeName="fill" to="#808080" begin="arrowRight.mouseover" end="arrowRight.mouseout"/>
                  </use>
                  <path fill="none" stroke="white" stroke-width="1.5" d="M0,-3.0v7 M-2.5,-0.5L0,-3.0L2.5,-0.5"/>
                </g>
                <g id="arrowDown" xlink:href="#dirArrow" transform="rotate(180) translate(-30 -48)" onmousedown="handlePan(0,1)">
                  <use xlink:href="#rim" fill="#404040">
                        <set attributeName="fill" to="#808080" begin="arrowDown.mouseover" end="arrowDown.mouseout"/>
                  </use>
                  <path fill="none" stroke="white" stroke-width="1.5" d="M0,-3.0v7 M-2.5,-0.5L0,-3.0L2.5,-0.5"/>
                </g>
                <g id="arrowLeft" xlink:href="#dirArrow" transform="rotate(270) translate(-36 17)" onmousedown="handlePan(-1,0)">
                  <use xlink:href="#rim" fill="#404040">
                        <set attributeName="fill" to="#808080" begin="arrowLeft.mouseover" end="arrowLeft.mouseout"/>
                  </use>
                  <path fill="none" stroke="white" stroke-width="1.5" d="M0,-3.0v7 M-2.5,-0.5L0,-3.0L2.5,-0.5"/>
                </g>
        </g>
        <svg viewBox="0 0 15 15" width="100%" height="30px" preserveAspectRatio="xMaxYMin meet">
         <g id="arrow_out" transform="scale(0.3 0.3)">
          <a xlink:href="printf_8h__dep__incl_org.svg" target="_base">
           <rect id="button" ry="5" rx="5" y="6" x="6" height="38" width="38"
                fill="#f2f5e9" fill-opacity="0.5" stroke="#606060" stroke-width="1.0"/>
           <path id="arrow"
             d="M 11.500037,31.436501 C 11.940474,20.09759 22.043105,11.32322 32.158766,21.979434 L 37.068811,17.246167 C 37.068811,17.246167 37.088388,32 37.088388,32 L 22.160133,31.978069 C 22.160133,31.978069 26.997745,27.140456 26.997745,27.140456 C 18.528582,18.264221 13.291696,25.230495 11.500037,31.436501 z"
             style="fill:#404040;"/>
          </a>
         </g>
        </svg>
</svg>
