<?xml version="1.0" encoding="UTF-8" standalone="no"?>
<!DOCTYPE svg PUBLIC "-//W3C//DTD SVG 1.1//EN"
 "http://www.w3.org/Graphics/SVG/1.1/DTD/svg11.dtd">
<!-- Generated by graphviz version 7.0.5 (20221223.1930)
 -->
<!-- Title: include/JSystem/JMessage/processor.h Pages: 1 -->
<!--zoomable 302 -->
<svg id="main" version="1.1" xmlns="http://www.w3.org/2000/svg" xmlns:xlink="http://www.w3.org/1999/xlink" xml:space="preserve" onload="init(evt)">
<style type="text/css"><![CDATA[
.edge:hover path { stroke: red; }
.edge:hover polygon { stroke: red; fill: red; }
]]></style>
<script type="text/javascript"><![CDATA[
var edges = document.getElementsByTagName('g');
if (edges && edges.length) {
  for (var i=0;i<edges.length;i++) {
    if (edges[i].id.substr(0,4)=='edge') {
      edges[i].setAttribute('class','edge');
    }
  }
}
]]></script>
        <defs>
                <circle id="rim" cx="0" cy="0" r="7"/>
                <circle id="rim2" cx="0" cy="0" r="3.5"/>
                <g id="zoomPlus">
                        <use xlink:href="#rim" fill="#404040">
                                <set attributeName="fill" to="#808080" begin="zoomplus.mouseover" end="zoomplus.mouseout"/>
                        </use>
                        <path d="M-4,0h8M0,-4v8" fill="none" stroke="white" stroke-width="1.5" pointer-events="none"/>
                </g>
                <g id="zoomMin">
                        <use xlink:href="#rim" fill="#404040">
                                <set attributeName="fill" to="#808080" begin="zoomminus.mouseover" end="zoomminus.mouseout"/>
                        </use>
                        <path d="M-4,0h8" fill="none" stroke="white" stroke-width="1.5" pointer-events="none"/>
                </g>
                <g id="dirArrow">
                        <path fill="none" stroke="white" stroke-width="1.5" d="M0,-3.0v7 M-2.5,-0.5L0,-3.0L2.5,-0.5"/>
                </g>
               <g id="resetDef">
                       <use xlink:href="#rim2" fill="#404040">
                               <set attributeName="fill" to="#808080" begin="reset.mouseover" end="reset.mouseout"/>
                       </use>
               </g>
        </defs>

<script type="text/javascript">
var viewWidth = 3274;
var viewHeight = 302;
var sectionId = 'dynsection-1';
</script>
<script xlink:href="svgpan.js"/>
<svg id="graph" class="graph">
<g id="viewport">
<title>include/JSystem/JMessage/processor.h</title>
<!-- Node1 -->
<g id="node1" class="node">
<title>Node1</title>
<g id="a_node1"><a xlink:title=" ">
<polygon fill="#999999" stroke="#666666" points="2033.5,-294 1896.5,-294 1896.5,-264 2033.5,-264 2033.5,-294"/>
<text text-anchor="start" x="1904.5" y="-282" font-family="Helvetica,sans-Serif" font-size="10.00">include/JSystem/JMessage</text>
<text text-anchor="middle" x="1965" y="-271" font-family="Helvetica,sans-Serif" font-size="10.00">/processor.h</text>
</a>
</g>
</g>
<!-- Node2 -->
<g id="node2" class="node">
<title>Node2</title>
<g id="a_node2"><a xlink:href="JMessage_2control_8h.html" target="_top" xlink:title=" ">
<polygon fill="white" stroke="#666666" points="1985.5,-228 1848.5,-228 1848.5,-198 1985.5,-198 1985.5,-228"/>
<text text-anchor="start" x="1856.5" y="-216" font-family="Helvetica,sans-Serif" font-size="10.00">include/JSystem/JMessage</text>
<text text-anchor="middle" x="1917" y="-205" font-family="Helvetica,sans-Serif" font-size="10.00">/control.h</text>
</a>
</g>
</g>
<!-- Node1&#45;&gt;Node2 -->
<g id="edge1" class="edge">
<title>Node1&#45;&gt;Node2</title>
<path fill="none" stroke="#63b8ff" d="M1947.51,-254.68C1940.85,-245.79 1933.46,-235.95 1927.62,-228.16"/>
<polygon fill="#63b8ff" stroke="#63b8ff" points="1944.64,-256.69 1953.44,-262.59 1950.24,-252.49 1944.64,-256.69"/>
</g>
<!-- Node33 -->
<g id="node33" class="node">
<title>Node33</title>
<g id="a_node33"><a xlink:href="processor_8cpp.html" target="_top" xlink:title=" ">
<polygon fill="white" stroke="#666666" points="2116.5,-162 1995.5,-162 1995.5,-132 2116.5,-132 2116.5,-162"/>
<text text-anchor="start" x="2003.5" y="-150" font-family="Helvetica,sans-Serif" font-size="10.00">libs/JSystem/JMessage</text>
<text text-anchor="middle" x="2056" y="-139" font-family="Helvetica,sans-Serif" font-size="10.00">/processor.cpp</text>
</a>
</g>
</g>
<!-- Node1&#45;&gt;Node33 -->
<g id="edge35" class="edge">
<title>Node1&#45;&gt;Node33</title>
<path fill="none" stroke="#63b8ff" d="M1981.68,-254.17C2000.45,-227.36 2030.33,-184.67 2045.87,-162.47"/>
<polygon fill="#63b8ff" stroke="#63b8ff" points="1978.82,-252.15 1975.95,-262.35 1984.56,-256.17 1978.82,-252.15"/>
</g>
<!-- Node3 -->
<g id="node3" class="node">
<title>Node3</title>
<g id="a_node3"><a xlink:href="d__msg__class_8h.html" target="_top" xlink:title=" ">
<polygon fill="white" stroke="#666666" points="375,-162 265,-162 265,-132 375,-132 375,-162"/>
<text text-anchor="start" x="273" y="-150" font-family="Helvetica,sans-Serif" font-size="10.00">include/d/msg/d_msg</text>
<text text-anchor="middle" x="320" y="-139" font-family="Helvetica,sans-Serif" font-size="10.00">_class.h</text>
</a>
</g>
</g>
<!-- Node2&#45;&gt;Node3 -->
<g id="edge2" class="edge">
<title>Node2&#45;&gt;Node3</title>
<path fill="none" stroke="#63b8ff" d="M1836.78,-208.79C1554.79,-197.48 613.29,-159.75 375.12,-150.21"/>
<polygon fill="#63b8ff" stroke="#63b8ff" points="1836.48,-212.28 1846.61,-209.18 1836.76,-205.28 1836.48,-212.28"/>
</g>
<!-- Node7 -->
<g id="node7" class="node">
<title>Node7</title>
<g id="a_node7"><a xlink:href="d__msg__object_8h.html" target="_top" xlink:title=" ">
<polygon fill="white" stroke="#666666" points="1838,-162 1728,-162 1728,-132 1838,-132 1838,-162"/>
<text text-anchor="start" x="1736" y="-150" font-family="Helvetica,sans-Serif" font-size="10.00">include/d/msg/d_msg</text>
<text text-anchor="middle" x="1783" y="-139" font-family="Helvetica,sans-Serif" font-size="10.00">_object.h</text>
</a>
</g>
</g>
<!-- Node2&#45;&gt;Node7 -->
<g id="edge6" class="edge">
<title>Node2&#45;&gt;Node7</title>
<path fill="none" stroke="#63b8ff" d="M1876.64,-192.72C1856.17,-182.95 1831.74,-171.28 1812.97,-162.31"/>
<polygon fill="#63b8ff" stroke="#63b8ff" points="1875.03,-195.83 1885.56,-196.98 1878.05,-189.52 1875.03,-195.83"/>
</g>
<!-- Node32 -->
<g id="node32" class="node">
<title>Node32</title>
<g id="a_node32"><a xlink:href="JMessage_2control_8cpp.html" target="_top" xlink:title=" ">
<polygon fill="white" stroke="#666666" points="1977.5,-162 1856.5,-162 1856.5,-132 1977.5,-132 1977.5,-162"/>
<text text-anchor="start" x="1864.5" y="-150" font-family="Helvetica,sans-Serif" font-size="10.00">libs/JSystem/JMessage</text>
<text text-anchor="middle" x="1917" y="-139" font-family="Helvetica,sans-Serif" font-size="10.00">/control.cpp</text>
</a>
</g>
</g>
<!-- Node2&#45;&gt;Node32 -->
<g id="edge33" class="edge">
<title>Node2&#45;&gt;Node32</title>
<path fill="none" stroke="#63b8ff" d="M1917,-186.39C1917,-178.13 1917,-169.28 1917,-162.16"/>
<polygon fill="#63b8ff" stroke="#63b8ff" points="1913.5,-186.28 1917,-196.28 1920.5,-186.28 1913.5,-186.28"/>
</g>
<!-- Node2&#45;&gt;Node33 -->
<g id="edge34" class="edge">
<title>Node2&#45;&gt;Node33</title>
<path fill="none" stroke="#63b8ff" d="M1958.58,-192.86C1979.87,-183.05 2005.35,-171.32 2024.91,-162.31"/>
<polygon fill="#63b8ff" stroke="#63b8ff" points="1957.19,-189.64 1949.57,-197 1960.12,-196 1957.19,-189.64"/>
</g>
<!-- Node4 -->
<g id="node4" class="node">
<title>Node4</title>
<g id="a_node4"><a xlink:href="d__menu__option_8cpp.html" target="_top" xlink:title=" ">
<polygon fill="white" stroke="#666666" points="152,-90.5 0,-90.5 0,-71.5 152,-71.5 152,-90.5"/>
<text text-anchor="middle" x="76" y="-78.5" font-family="Helvetica,sans-Serif" font-size="10.00">src/d/menu/d_menu_option.cpp</text>
</a>
</g>
</g>
<!-- Node3&#45;&gt;Node4 -->
<g id="edge3" class="edge">
<title>Node3&#45;&gt;Node4</title>
<path fill="none" stroke="#63b8ff" d="M254.05,-128.7C207.61,-116.52 147.33,-100.71 110.17,-90.96"/>
<polygon fill="#63b8ff" stroke="#63b8ff" points="252.91,-132.02 263.47,-131.17 254.69,-125.25 252.91,-132.02"/>
</g>
<!-- Node5 -->
<g id="node5" class="node">
<title>Node5</title>
<g id="a_node5"><a xlink:href="d__msg__class_8cpp.html" target="_top" xlink:title=" ">
<polygon fill="white" stroke="#666666" points="309.5,-90.5 170.5,-90.5 170.5,-71.5 309.5,-71.5 309.5,-90.5"/>
<text text-anchor="middle" x="240" y="-78.5" font-family="Helvetica,sans-Serif" font-size="10.00">src/d/msg/d_msg_class.cpp</text>
</a>
</g>
</g>
<!-- Node3&#45;&gt;Node5 -->
<g id="edge4" class="edge">
<title>Node3&#45;&gt;Node5</title>
<path fill="none" stroke="#63b8ff" d="M293.66,-124.93C279.19,-113.35 262.01,-99.61 251.06,-90.84"/>
<polygon fill="#63b8ff" stroke="#63b8ff" points="291.07,-127.34 301.06,-130.85 295.44,-121.87 291.07,-127.34"/>
</g>
<!-- Node6 -->
<g id="node6" class="node">
<title>Node6</title>
<g id="a_node6"><a xlink:href="d__msg__object_8cpp.html" target="_top" xlink:title=" ">
<polygon fill="white" stroke="#666666" points="470,-90.5 328,-90.5 328,-71.5 470,-71.5 470,-90.5"/>
<text text-anchor="middle" x="399" y="-78.5" font-family="Helvetica,sans-Serif" font-size="10.00">src/d/msg/d_msg_object.cpp</text>
</a>
</g>
</g>
<!-- Node3&#45;&gt;Node6 -->
<g id="edge5" class="edge">
<title>Node3&#45;&gt;Node6</title>
<path fill="none" stroke="#63b8ff" d="M346.41,-124.6C360.62,-113.1 377.37,-99.52 388.08,-90.84"/>
<polygon fill="#63b8ff" stroke="#63b8ff" points="344.28,-121.83 338.71,-130.84 348.68,-127.27 344.28,-121.83"/>
</g>
<!-- Node7&#45;&gt;Node5 -->
<g id="edge20" class="edge">
<title>Node7&#45;&gt;Node5</title>
<path fill="none" stroke="#63b8ff" d="M1716.28,-144.97C1467.69,-140.96 595.51,-125.08 319,-96 307.64,-94.81 295.45,-92.94 284.13,-90.96"/>
<polygon fill="#63b8ff" stroke="#63b8ff" points="1716.07,-148.47 1726.12,-145.13 1716.18,-141.47 1716.07,-148.47"/>
</g>
<!-- Node7&#45;&gt;Node6 -->
<g id="edge22" class="edge">
<title>Node7&#45;&gt;Node6</title>
<path fill="none" stroke="#63b8ff" d="M1716.2,-146.61C1523.61,-147.69 950.91,-146.11 479,-96 467.64,-94.79 455.46,-92.95 444.12,-90.99"/>
<polygon fill="#63b8ff" stroke="#63b8ff" points="1716.03,-150.11 1726.01,-146.55 1715.98,-143.11 1716.03,-150.11"/>
</g>
<!-- Node8 -->
<g id="node8" class="node">
<title>Node8</title>
<g id="a_node8"><a xlink:href="d__timer_8h.html" target="_top" xlink:title=" ">
<polygon fill="white" stroke="#666666" points="2643,-90.5 2545,-90.5 2545,-71.5 2643,-71.5 2643,-90.5"/>
<text text-anchor="middle" x="2594" y="-78.5" font-family="Helvetica,sans-Serif" font-size="10.00">include/d/d_timer.h</text>
</a>
</g>
</g>
<!-- Node7&#45;&gt;Node8 -->
<g id="edge7" class="edge">
<title>Node7&#45;&gt;Node8</title>
<path fill="none" stroke="#63b8ff" d="M1849.75,-131.8C2152.93,-92.28 2236.26,-139.62 2536,-96 2544.3,-94.79 2553.16,-92.95 2561.39,-90.99"/>
<polygon fill="#63b8ff" stroke="#63b8ff" points="1849.36,-128.32 1839.9,-133.1 1850.28,-135.26 1849.36,-128.32"/>
</g>
<!-- Node12 -->
<g id="node12" class="node">
<title>Node12</title>
<g id="a_node12"><a xlink:href="d__a__alink_8cpp.html" target="_top" xlink:title=" ">
<polygon fill="white" stroke="#666666" points="2770.5,-90.5 2661.5,-90.5 2661.5,-71.5 2770.5,-71.5 2770.5,-90.5"/>
<text text-anchor="middle" x="2716" y="-78.5" font-family="Helvetica,sans-Serif" font-size="10.00">src/d/a/d_a_alink.cpp</text>
</a>
</g>
</g>
<!-- Node7&#45;&gt;Node12 -->
<g id="edge11" class="edge">
<title>Node7&#45;&gt;Node12</title>
<path fill="none" stroke="#63b8ff" d="M1849.77,-131.81C2204.13,-86.75 2300.62,-141.95 2652,-96 2661.25,-94.79 2671.14,-92.92 2680.31,-90.94"/>
<polygon fill="#63b8ff" stroke="#63b8ff" points="1849.37,-128.33 1839.9,-133.08 1850.27,-135.27 1849.37,-128.33"/>
</g>
<!-- Node13 -->
<g id="node13" class="node">
<title>Node13</title>
<g id="a_node13"><a xlink:href="d__a__npc_8cpp.html" target="_top" xlink:title=" ">
<polygon fill="white" stroke="#666666" points="2893,-90.5 2789,-90.5 2789,-71.5 2893,-71.5 2893,-90.5"/>
<text text-anchor="middle" x="2841" y="-78.5" font-family="Helvetica,sans-Serif" font-size="10.00">src/d/a/d_a_npc.cpp</text>
</a>
</g>
</g>
<!-- Node7&#45;&gt;Node13 -->
<g id="edge12" class="edge">
<title>Node7&#45;&gt;Node13</title>
<path fill="none" stroke="#63b8ff" d="M1849.7,-131.83C2260.2,-80.76 2371.7,-149.39 2779,-96 2787.97,-94.82 2797.56,-92.96 2806.44,-90.98"/>
<polygon fill="#63b8ff" stroke="#63b8ff" points="1849.38,-128.34 1839.9,-133.06 1850.26,-135.28 1849.38,-128.34"/>
</g>
<!-- Node14 -->
<g id="node14" class="node">
<title>Node14</title>
<g id="a_node14"><a xlink:href="d__demo_8cpp.html" target="_top" xlink:title=" ">
<polygon fill="white" stroke="#666666" points="3005,-90.5 2911,-90.5 2911,-71.5 3005,-71.5 3005,-90.5"/>
<text text-anchor="middle" x="2958" y="-78.5" font-family="Helvetica,sans-Serif" font-size="10.00">src/d/d_demo.cpp</text>
</a>
</g>
</g>
<!-- Node7&#45;&gt;Node14 -->
<g id="edge13" class="edge">
<title>Node7&#45;&gt;Node14</title>
<path fill="none" stroke="#63b8ff" d="M1849.79,-131.83C2314.55,-75.03 2441.14,-160.73 2902,-96 2910.24,-94.84 2919.02,-92.96 2927.13,-90.95"/>
<polygon fill="#63b8ff" stroke="#63b8ff" points="1849.39,-128.35 1839.9,-133.05 1850.25,-135.3 1849.39,-128.35"/>
</g>
<!-- Node15 -->
<g id="node15" class="node">
<title>Node15</title>
<g id="a_node15"><a xlink:href="d__event_8cpp.html" target="_top" xlink:title=" ">
<polygon fill="white" stroke="#666666" points="3144.5,-90.5 3023.5,-90.5 3023.5,-71.5 3144.5,-71.5 3144.5,-90.5"/>
<text text-anchor="middle" x="3084" y="-78.5" font-family="Helvetica,sans-Serif" font-size="10.00">src/d/event/d_event.cpp</text>
</a>
</g>
</g>
<!-- Node7&#45;&gt;Node15 -->
<g id="edge14" class="edge">
<title>Node7&#45;&gt;Node15</title>
<path fill="none" stroke="#63b8ff" d="M1849.46,-131.87C2363.94,-69.51 2502.11,-154.67 3014,-96 3024.22,-94.83 3035.17,-92.95 3045.3,-90.93"/>
<polygon fill="#63b8ff" stroke="#63b8ff" points="1849.4,-128.35 1839.9,-133.04 1850.25,-135.3 1849.4,-128.35"/>
</g>
<!-- Node16 -->
<g id="node16" class="node">
<title>Node16</title>
<g id="a_node16"><a xlink:href="d__event__data_8cpp.html" target="_top" xlink:title=" ">
<polygon fill="white" stroke="#666666" points="3265.5,-96 3162.5,-96 3162.5,-66 3265.5,-66 3265.5,-96"/>
<text text-anchor="start" x="3170.5" y="-84" font-family="Helvetica,sans-Serif" font-size="10.00">src/d/event/d_event</text>
<text text-anchor="middle" x="3214" y="-73" font-family="Helvetica,sans-Serif" font-size="10.00">_data.cpp</text>
</a>
</g>
</g>
<!-- Node7&#45;&gt;Node16 -->
<g id="edge15" class="edge">
<title>Node7&#45;&gt;Node16</title>
<path fill="none" stroke="#63b8ff" d="M1849.48,-131.87C2425.35,-63.01 2580.64,-168.84 3153,-96 3156.02,-95.62 3159.11,-95.15 3162.21,-94.62"/>
<polygon fill="#63b8ff" stroke="#63b8ff" points="1849.4,-128.36 1839.9,-133.03 1850.24,-135.31 1849.4,-128.36"/>
</g>
<!-- Node17 -->
<g id="node17" class="node">
<title>Node17</title>
<g id="a_node17"><a xlink:href="d__kankyo_8cpp.html" target="_top" xlink:title=" ">
<polygon fill="white" stroke="#666666" points="622,-90.5 488,-90.5 488,-71.5 622,-71.5 622,-90.5"/>
<text text-anchor="middle" x="555" y="-78.5" font-family="Helvetica,sans-Serif" font-size="10.00">src/d/kankyo/d_kankyo.cpp</text>
</a>
</g>
</g>
<!-- Node7&#45;&gt;Node17 -->
<g id="edge16" class="edge">
<title>Node7&#45;&gt;Node17</title>
<path fill="none" stroke="#63b8ff" d="M1716.17,-146.33C1538.76,-146.52 1041.49,-142.49 631,-96 620.2,-94.78 608.63,-92.93 597.85,-90.97"/>
<polygon fill="#63b8ff" stroke="#63b8ff" points="1716.13,-149.83 1726.12,-146.32 1716.11,-142.83 1716.13,-149.83"/>
</g>
<!-- Node18 -->
<g id="node18" class="node">
<title>Node18</title>
<g id="a_node18"><a xlink:href="d__menu__window_8cpp.html" target="_top" xlink:title=" ">
<polygon fill="white" stroke="#666666" points="799.5,-90.5 640.5,-90.5 640.5,-71.5 799.5,-71.5 799.5,-90.5"/>
<text text-anchor="middle" x="720" y="-78.5" font-family="Helvetica,sans-Serif" font-size="10.00">src/d/menu/d_menu_window.cpp</text>
</a>
</g>
</g>
<!-- Node7&#45;&gt;Node18 -->
<g id="edge17" class="edge">
<title>Node7&#45;&gt;Node18</title>
<path fill="none" stroke="#63b8ff" d="M1716.27,-144.98C1558.24,-142.04 1148.89,-131.36 809,-96 796.71,-94.72 783.53,-92.9 771.18,-90.99"/>
<polygon fill="#63b8ff" stroke="#63b8ff" points="1716.08,-148.48 1726.14,-145.16 1716.21,-141.48 1716.08,-148.48"/>
</g>
<!-- Node19 -->
<g id="node19" class="node">
<title>Node19</title>
<g id="a_node19"><a xlink:href="d__meter2__draw_8cpp.html" target="_top" xlink:title=" ">
<polygon fill="white" stroke="#666666" points="928,-96 818,-96 818,-66 928,-66 928,-96"/>
<text text-anchor="start" x="826" y="-84" font-family="Helvetica,sans-Serif" font-size="10.00">src/d/meter/d_meter2</text>
<text text-anchor="middle" x="873" y="-73" font-family="Helvetica,sans-Serif" font-size="10.00">_draw.cpp</text>
</a>
</g>
</g>
<!-- Node7&#45;&gt;Node19 -->
<g id="edge18" class="edge">
<title>Node7&#45;&gt;Node19</title>
<path fill="none" stroke="#63b8ff" d="M1716.6,-145.6C1573.46,-143.95 1225.42,-135.82 937,-96 934.18,-95.61 931.31,-95.16 928.41,-94.68"/>
<polygon fill="#63b8ff" stroke="#63b8ff" points="1716.23,-149.09 1726.26,-145.7 1716.3,-142.09 1716.23,-149.09"/>
</g>
<!-- Node20 -->
<g id="node20" class="node">
<title>Node20</title>
<g id="a_node20"><a xlink:href="d__meter__map_8cpp.html" target="_top" xlink:title=" ">
<polygon fill="white" stroke="#666666" points="1050,-96 946,-96 946,-66 1050,-66 1050,-96"/>
<text text-anchor="start" x="954" y="-84" font-family="Helvetica,sans-Serif" font-size="10.00">src/d/meter/d_meter</text>
<text text-anchor="middle" x="998" y="-73" font-family="Helvetica,sans-Serif" font-size="10.00">_map.cpp</text>
</a>
</g>
</g>
<!-- Node7&#45;&gt;Node20 -->
<g id="edge19" class="edge">
<title>Node7&#45;&gt;Node20</title>
<path fill="none" stroke="#63b8ff" d="M1716.6,-144.89C1588.67,-141.97 1299.44,-131.67 1059,-96 1056.21,-95.59 1053.35,-95.11 1050.47,-94.59"/>
<polygon fill="#63b8ff" stroke="#63b8ff" points="1716.15,-148.38 1726.22,-145.1 1716.3,-141.38 1716.15,-148.38"/>
</g>
<!-- Node21 -->
<g id="node21" class="node">
<title>Node21</title>
<g id="a_node21"><a xlink:href="d__msg__flow_8cpp.html" target="_top" xlink:title=" ">
<polygon fill="white" stroke="#666666" points="1201.5,-90.5 1068.5,-90.5 1068.5,-71.5 1201.5,-71.5 1201.5,-90.5"/>
<text text-anchor="middle" x="1135" y="-78.5" font-family="Helvetica,sans-Serif" font-size="10.00">src/d/msg/d_msg_flow.cpp</text>
</a>
</g>
</g>
<!-- Node7&#45;&gt;Node21 -->
<g id="edge21" class="edge">
<title>Node7&#45;&gt;Node21</title>
<path fill="none" stroke="#63b8ff" d="M1716.64,-142.32C1609.65,-135.91 1392.57,-120.94 1210,-96 1199.89,-94.62 1189.08,-92.8 1178.9,-90.94"/>
<polygon fill="#63b8ff" stroke="#63b8ff" points="1716.19,-145.8 1726.38,-142.89 1716.6,-138.81 1716.19,-145.8"/>
</g>
<!-- Node22 -->
<g id="node22" class="node">
<title>Node22</title>
<g id="a_node22"><a xlink:href="d__msg__out__font_8cpp.html" target="_top" xlink:title=" ">
<polygon fill="white" stroke="#666666" points="1330.5,-96 1219.5,-96 1219.5,-66 1330.5,-66 1330.5,-96"/>
<text text-anchor="start" x="1227.5" y="-84" font-family="Helvetica,sans-Serif" font-size="10.00">src/d/msg/d_msg_out</text>
<text text-anchor="middle" x="1275" y="-73" font-family="Helvetica,sans-Serif" font-size="10.00">_font.cpp</text>
</a>
</g>
</g>
<!-- Node7&#45;&gt;Node22 -->
<g id="edge23" class="edge">
<title>Node7&#45;&gt;Node22</title>
<path fill="none" stroke="#63b8ff" d="M1716.22,-140.55C1629.26,-132.98 1472.68,-117.72 1340,-96 1337.04,-95.52 1334.01,-94.98 1330.95,-94.42"/>
<polygon fill="#63b8ff" stroke="#63b8ff" points="1715.73,-144.03 1726,-141.4 1716.34,-137.05 1715.73,-144.03"/>
</g>
<!-- Node23 -->
<g id="node23" class="node">
<title>Node23</title>
<g id="a_node23"><a xlink:href="d__s__play_8cpp.html" target="_top" xlink:title=" ">
<polygon fill="white" stroke="#666666" points="1455,-90.5 1349,-90.5 1349,-71.5 1455,-71.5 1455,-90.5"/>
<text text-anchor="middle" x="1402" y="-78.5" font-family="Helvetica,sans-Serif" font-size="10.00">src/d/s/d_s_play.cpp</text>
</a>
</g>
</g>
<!-- Node7&#45;&gt;Node23 -->
<g id="edge24" class="edge">
<title>Node7&#45;&gt;Node23</title>
<path fill="none" stroke="#63b8ff" d="M1716.52,-136.9C1651.84,-127.73 1550.88,-112.6 1464,-96 1456.2,-94.51 1447.88,-92.75 1439.95,-90.99"/>
<polygon fill="#63b8ff" stroke="#63b8ff" points="1715.88,-140.34 1726.27,-138.27 1716.86,-133.41 1715.88,-140.34"/>
</g>
<!-- Node24 -->
<g id="node24" class="node">
<title>Node24</title>
<g id="a_node24"><a xlink:href="d__shop__system_8cpp.html" target="_top" xlink:title=" ">
<polygon fill="white" stroke="#666666" points="1625,-90.5 1473,-90.5 1473,-71.5 1625,-71.5 1625,-90.5"/>
<text text-anchor="middle" x="1549" y="-78.5" font-family="Helvetica,sans-Serif" font-size="10.00">src/d/shop/d_shop_system.cpp</text>
</a>
</g>
</g>
<!-- Node7&#45;&gt;Node24 -->
<g id="edge25" class="edge">
<title>Node7&#45;&gt;Node24</title>
<path fill="none" stroke="#63b8ff" d="M1719.19,-128.55C1674.73,-116.39 1617.25,-100.67 1581.77,-90.96"/>
<polygon fill="#63b8ff" stroke="#63b8ff" points="1718.17,-131.9 1728.73,-131.16 1720.01,-125.14 1718.17,-131.9"/>
</g>
<!-- Node25 -->
<g id="node25" class="node">
<title>Node25</title>
<g id="a_node25"><a xlink:href="f__op__msg__mng_8cpp.html" target="_top" xlink:title=" ">
<polygon fill="white" stroke="#666666" points="1783,-90.5 1643,-90.5 1643,-71.5 1783,-71.5 1783,-90.5"/>
<text text-anchor="middle" x="1713" y="-78.5" font-family="Helvetica,sans-Serif" font-size="10.00">src/f_op/f_op_msg_mng.cpp</text>
</a>
</g>
</g>
<!-- Node7&#45;&gt;Node25 -->
<g id="edge26" class="edge">
<title>Node7&#45;&gt;Node25</title>
<path fill="none" stroke="#63b8ff" d="M1759.24,-124.27C1746.73,-112.84 1732.08,-99.44 1722.67,-90.84"/>
<polygon fill="#63b8ff" stroke="#63b8ff" points="1756.61,-126.61 1766.35,-130.78 1761.33,-121.44 1756.61,-126.61"/>
</g>
<!-- Node26 -->
<g id="node26" class="node">
<title>Node26</title>
<g id="a_node26"><a xlink:href="d__msg__scrn__base_8cpp.html" target="_top" xlink:title=" ">
<polygon fill="white" stroke="#666666" points="1907,-96 1801,-96 1801,-66 1907,-66 1907,-96"/>
<text text-anchor="start" x="1809" y="-84" font-family="Helvetica,sans-Serif" font-size="10.00">src/msg/scrn/d_msg</text>
<text text-anchor="middle" x="1854" y="-73" font-family="Helvetica,sans-Serif" font-size="10.00">_scrn_base.cpp</text>
</a>
</g>
</g>
<!-- Node7&#45;&gt;Node26 -->
<g id="edge27" class="edge">
<title>Node7&#45;&gt;Node26</title>
<path fill="none" stroke="#63b8ff" d="M1807.31,-124.09C1817.56,-114.85 1829.19,-104.36 1838.29,-96.16"/>
<polygon fill="#63b8ff" stroke="#63b8ff" points="1804.97,-121.49 1799.88,-130.78 1809.65,-126.69 1804.97,-121.49"/>
</g>
<!-- Node27 -->
<g id="node27" class="node">
<title>Node27</title>
<g id="a_node27"><a xlink:href="d__msg__scrn__boss_8cpp.html" target="_top" xlink:title=" ">
<polygon fill="white" stroke="#666666" points="2031,-96 1925,-96 1925,-66 2031,-66 2031,-96"/>
<text text-anchor="start" x="1933" y="-84" font-family="Helvetica,sans-Serif" font-size="10.00">src/msg/scrn/d_msg</text>
<text text-anchor="middle" x="1978" y="-73" font-family="Helvetica,sans-Serif" font-size="10.00">_scrn_boss.cpp</text>
</a>
</g>
</g>
<!-- Node7&#45;&gt;Node27 -->
<g id="edge28" class="edge">
<title>Node7&#45;&gt;Node27</title>
<path fill="none" stroke="#63b8ff" d="M1837.64,-128.07C1868.09,-118.07 1905.51,-105.79 1934.05,-96.43"/>
<polygon fill="#63b8ff" stroke="#63b8ff" points="1836.61,-124.72 1828.2,-131.17 1838.79,-131.37 1836.61,-124.72"/>
</g>
<!-- Node28 -->
<g id="node28" class="node">
<title>Node28</title>
<g id="a_node28"><a xlink:href="d__msg__scrn__explain_8cpp.html" target="_top" xlink:title=" ">
<polygon fill="white" stroke="#666666" points="2155,-96 2049,-96 2049,-66 2155,-66 2155,-96"/>
<text text-anchor="start" x="2057" y="-84" font-family="Helvetica,sans-Serif" font-size="10.00">src/msg/scrn/d_msg</text>
<text text-anchor="middle" x="2102" y="-73" font-family="Helvetica,sans-Serif" font-size="10.00">_scrn_explain.cpp</text>
</a>
</g>
</g>
<!-- Node7&#45;&gt;Node28 -->
<g id="edge29" class="edge">
<title>Node7&#45;&gt;Node28</title>
<path fill="none" stroke="#63b8ff" d="M1849.7,-131.49C1934.43,-114.56 1958.04,-112.89 2040,-96 2042.81,-95.42 2045.69,-94.81 2048.59,-94.19"/>
<polygon fill="#63b8ff" stroke="#63b8ff" points="1849.08,-128.05 1839.96,-133.45 1850.46,-134.91 1849.08,-128.05"/>
</g>
<!-- Node29 -->
<g id="node29" class="node">
<title>Node29</title>
<g id="a_node29"><a xlink:href="d__msg__scrn__place_8cpp.html" target="_top" xlink:title=" ">
<polygon fill="white" stroke="#666666" points="2279,-96 2173,-96 2173,-66 2279,-66 2279,-96"/>
<text text-anchor="start" x="2181" y="-84" font-family="Helvetica,sans-Serif" font-size="10.00">src/msg/scrn/d_msg</text>
<text text-anchor="middle" x="2226" y="-73" font-family="Helvetica,sans-Serif" font-size="10.00">_scrn_place.cpp</text>
</a>
</g>
</g>
<!-- Node7&#45;&gt;Node29 -->
<g id="edge30" class="edge">
<title>Node7&#45;&gt;Node29</title>
<path fill="none" stroke="#63b8ff" d="M1849.53,-131.7C1988.85,-109.35 2027.74,-119.05 2164,-96 2166.83,-95.52 2169.72,-95 2172.64,-94.44"/>
<polygon fill="#63b8ff" stroke="#63b8ff" points="1849.23,-128.2 1839.93,-133.27 1850.36,-135.11 1849.23,-128.2"/>
</g>
<!-- Node30 -->
<g id="node30" class="node">
<title>Node30</title>
<g id="a_node30"><a xlink:href="d__msg__scrn__staff_8cpp.html" target="_top" xlink:title=" ">
<polygon fill="white" stroke="#666666" points="2403,-96 2297,-96 2297,-66 2403,-66 2403,-96"/>
<text text-anchor="start" x="2305" y="-84" font-family="Helvetica,sans-Serif" font-size="10.00">src/msg/scrn/d_msg</text>
<text text-anchor="middle" x="2350" y="-73" font-family="Helvetica,sans-Serif" font-size="10.00">_scrn_staff.cpp</text>
</a>
</g>
</g>
<!-- Node7&#45;&gt;Node30 -->
<g id="edge31" class="edge">
<title>Node7&#45;&gt;Node30</title>
<path fill="none" stroke="#63b8ff" d="M1849.57,-131.76C2043.47,-103.75 2097.22,-125.18 2288,-96 2290.84,-95.57 2293.74,-95.08 2296.66,-94.55"/>
<polygon fill="#63b8ff" stroke="#63b8ff" points="1849.3,-128.26 1839.92,-133.18 1850.32,-135.19 1849.3,-128.26"/>
</g>
<!-- Node31 -->
<g id="node31" class="node">
<title>Node31</title>
<g id="a_node31"><a xlink:href="d__msg__scrn__tree_8cpp.html" target="_top" xlink:title=" ">
<polygon fill="white" stroke="#666666" points="2527,-96 2421,-96 2421,-66 2527,-66 2527,-96"/>
<text text-anchor="start" x="2429" y="-84" font-family="Helvetica,sans-Serif" font-size="10.00">src/msg/scrn/d_msg</text>
<text text-anchor="middle" x="2474" y="-73" font-family="Helvetica,sans-Serif" font-size="10.00">_scrn_tree.cpp</text>
</a>
</g>
</g>
<!-- Node7&#45;&gt;Node31 -->
<g id="edge32" class="edge">
<title>Node7&#45;&gt;Node31</title>
<path fill="none" stroke="#63b8ff" d="M1849.62,-131.79C2098.17,-98.02 2166.59,-131.3 2412,-96 2414.84,-95.59 2417.74,-95.12 2420.67,-94.61"/>
<polygon fill="#63b8ff" stroke="#63b8ff" points="1849.33,-128.29 1839.91,-133.13 1850.29,-135.23 1849.33,-128.29"/>
</g>
<!-- Node9 -->
<g id="node9" class="node">
<title>Node9</title>
<g id="a_node9"><a xlink:href="d__com__inf__game_8cpp.html" target="_top" xlink:title=" ">
<polygon fill="white" stroke="#666666" points="2530,-30 2422,-30 2422,0 2530,0 2530,-30"/>
<text text-anchor="start" x="2430" y="-18" font-family="Helvetica,sans-Serif" font-size="10.00">src/d/com/d_com_inf</text>
<text text-anchor="middle" x="2476" y="-7" font-family="Helvetica,sans-Serif" font-size="10.00">_game.cpp</text>
</a>
</g>
</g>
<!-- Node8&#45;&gt;Node9 -->
<g id="edge8" class="edge">
<title>Node8&#45;&gt;Node9</title>
<path fill="none" stroke="#63b8ff" d="M2567.63,-65.7C2548.29,-55.21 2522.11,-41.01 2502.69,-30.48"/>
<polygon fill="#63b8ff" stroke="#63b8ff" points="2565.8,-68.69 2576.26,-70.38 2569.14,-62.54 2565.8,-68.69"/>
</g>
<!-- Node10 -->
<g id="node10" class="node">
<title>Node10</title>
<g id="a_node10"><a xlink:href="d__timer_8cpp.html" target="_top" xlink:title=" ">
<polygon fill="white" stroke="#666666" points="2640,-24.5 2548,-24.5 2548,-5.5 2640,-5.5 2640,-24.5"/>
<text text-anchor="middle" x="2594" y="-12.5" font-family="Helvetica,sans-Serif" font-size="10.00">src/d/d_timer.cpp</text>
</a>
</g>
</g>
<!-- Node8&#45;&gt;Node10 -->
<g id="edge9" class="edge">
<title>Node8&#45;&gt;Node10</title>
<path fill="none" stroke="#63b8ff" d="M2594,-59.68C2594,-47.94 2594,-33.77 2594,-24.82"/>
<polygon fill="#63b8ff" stroke="#63b8ff" points="2590.5,-59.59 2594,-69.59 2597.5,-59.59 2590.5,-59.59"/>
</g>
<!-- Node11 -->
<g id="node11" class="node">
<title>Node11</title>
<g id="a_node11"><a xlink:href="d__meter2_8cpp.html" target="_top" xlink:title=" ">
<polygon fill="white" stroke="#666666" points="2786,-24.5 2658,-24.5 2658,-5.5 2786,-5.5 2786,-24.5"/>
<text text-anchor="middle" x="2722" y="-12.5" font-family="Helvetica,sans-Serif" font-size="10.00">src/d/meter/d_meter2.cpp</text>
</a>
</g>
</g>
<!-- Node8&#45;&gt;Node11 -->
<g id="edge10" class="edge">
<title>Node8&#45;&gt;Node11</title>
<path fill="none" stroke="#63b8ff" d="M2621.8,-66.1C2646.88,-53.56 2683.03,-35.49 2704.35,-24.82"/>
<polygon fill="#63b8ff" stroke="#63b8ff" points="2620.53,-62.82 2613.15,-70.42 2623.66,-69.08 2620.53,-62.82"/>
</g>
</g>
</svg>
        <g id="navigator" transform="translate(0 0)" fill="#404254">
                <rect fill="#f2f5e9" fill-opacity="0.5" stroke="#606060" stroke-width=".5" x="0" y="0" width="60" height="60"/>
                <use id="zoomplus" xlink:href="#zoomPlus" x="17" y="9" onmousedown="handleZoom(evt,'in')"/>
                <use id="zoomminus" xlink:href="#zoomMin" x="42" y="9" onmousedown="handleZoom(evt,'out')"/>
                <use id="reset" xlink:href="#resetDef" x="30" y="36" onmousedown="handleReset()"/>
                <g id="arrowUp" xlink:href="#dirArrow" transform="translate(30 24)" onmousedown="handlePan(0,-1)">
                  <use xlink:href="#rim" fill="#404040">
                        <set attributeName="fill" to="#808080" begin="arrowUp.mouseover" end="arrowUp.mouseout"/>
                  </use>
                  <path fill="none" stroke="white" stroke-width="1.5" d="M0,-3.0v7 M-2.5,-0.5L0,-3.0L2.5,-0.5"/>
                </g>
                <g id="arrowRight" xlink:href="#dirArrow" transform="rotate(90) translate(36 -43)" onmousedown="handlePan(1,0)">
                  <use xlink:href="#rim" fill="#404040">
                        <set attributeName="fill" to="#808080" begin="arrowRight.mouseover" end="arrowRight.mouseout"/>
                  </use>
                  <path fill="none" stroke="white" stroke-width="1.5" d="M0,-3.0v7 M-2.5,-0.5L0,-3.0L2.5,-0.5"/>
                </g>
                <g id="arrowDown" xlink:href="#dirArrow" transform="rotate(180) translate(-30 -48)" onmousedown="handlePan(0,1)">
                  <use xlink:href="#rim" fill="#404040">
                        <set attributeName="fill" to="#808080" begin="arrowDown.mouseover" end="arrowDown.mouseout"/>
                  </use>
                  <path fill="none" stroke="white" stroke-width="1.5" d="M0,-3.0v7 M-2.5,-0.5L0,-3.0L2.5,-0.5"/>
                </g>
                <g id="arrowLeft" xlink:href="#dirArrow" transform="rotate(270) translate(-36 17)" onmousedown="handlePan(-1,0)">
                  <use xlink:href="#rim" fill="#404040">
                        <set attributeName="fill" to="#808080" begin="arrowLeft.mouseover" end="arrowLeft.mouseout"/>
                  </use>
                  <path fill="none" stroke="white" stroke-width="1.5" d="M0,-3.0v7 M-2.5,-0.5L0,-3.0L2.5,-0.5"/>
                </g>
        </g>
        <svg viewBox="0 0 15 15" width="100%" height="30px" preserveAspectRatio="xMaxYMin meet">
         <g id="arrow_out" transform="scale(0.3 0.3)">
          <a xlink:href="processor_8h__dep__incl_org.svg" target="_base">
           <rect id="button" ry="5" rx="5" y="6" x="6" height="38" width="38"
                fill="#f2f5e9" fill-opacity="0.5" stroke="#606060" stroke-width="1.0"/>
           <path id="arrow"
             d="M 11.500037,31.436501 C 11.940474,20.09759 22.043105,11.32322 32.158766,21.979434 L 37.068811,17.246167 C 37.068811,17.246167 37.088388,32 37.088388,32 L 22.160133,31.978069 C 22.160133,31.978069 26.997745,27.140456 26.997745,27.140456 C 18.528582,18.264221 13.291696,25.230495 11.500037,31.436501 z"
             style="fill:#404040;"/>
          </a>
         </g>
        </svg>
</svg>
