<?xml version="1.0" encoding="UTF-8" standalone="no"?>
<!DOCTYPE svg PUBLIC "-//W3C//DTD SVG 1.1//EN"
 "http://www.w3.org/Graphics/SVG/1.1/DTD/svg11.dtd">
<!-- Generated by graphviz version 7.0.5 (20221223.1930)
 -->
<!-- Title: include/dolphin/mtx/quat.h Pages: 1 -->
<svg width="3495pt" height="302pt"
 viewBox="0.00 0.00 3495.00 302.00" xmlns="http://www.w3.org/2000/svg" xmlns:xlink="http://www.w3.org/1999/xlink">
<g id="graph0" class="graph" transform="scale(1 1) rotate(0) translate(4 298)">
<title>include/dolphin/mtx/quat.h</title>
<!-- Node1 -->
<g id="node1" class="node">
<title>Node1</title>
<g id="a_node1"><a xlink:title=" ">
<polygon fill="#999999" stroke="#666666" points="2133,-294 2033,-294 2033,-264 2133,-264 2133,-294"/>
<text text-anchor="start" x="2041" y="-282" font-family="Helvetica,sans-Serif" font-size="10.00">include/dolphin/mtx</text>
<text text-anchor="middle" x="2083" y="-271" font-family="Helvetica,sans-Serif" font-size="10.00">/quat.h</text>
</a>
</g>
</g>
<!-- Node2 -->
<g id="node2" class="node">
<title>Node2</title>
<g id="a_node2"><a xlink:href="d__lib_8h.html" target="_top" xlink:title=" ">
<polygon fill="white" stroke="#666666" points="976,-90.5 890,-90.5 890,-71.5 976,-71.5 976,-90.5"/>
<text text-anchor="middle" x="933" y="-78.5" font-family="Helvetica,sans-Serif" font-size="10.00">include/d/d_lib.h</text>
</a>
</g>
</g>
<!-- Node1&#45;&gt;Node2 -->
<g id="edge1" class="edge">
<title>Node1&#45;&gt;Node2</title>
<path fill="none" stroke="#63b8ff" d="M2021.57,-274.86C1872.1,-266.25 1478.31,-237.62 1159,-162 1081.03,-143.53 992.53,-107.6 953.43,-90.92"/>
<polygon fill="#63b8ff" stroke="#63b8ff" points="2021.05,-278.34 2031.24,-275.41 2021.45,-271.35 2021.05,-278.34"/>
</g>
<!-- Node16 -->
<g id="node16" class="node">
<title>Node16</title>
<g id="a_node16"><a xlink:href="mtx_8h.html" target="_top" xlink:title=" ">
<polygon fill="white" stroke="#666666" points="2133,-228 2033,-228 2033,-198 2133,-198 2133,-228"/>
<text text-anchor="start" x="2041" y="-216" font-family="Helvetica,sans-Serif" font-size="10.00">include/dolphin/mtx</text>
<text text-anchor="middle" x="2083" y="-205" font-family="Helvetica,sans-Serif" font-size="10.00">/mtx.h</text>
</a>
</g>
</g>
<!-- Node1&#45;&gt;Node16 -->
<g id="edge15" class="edge">
<title>Node1&#45;&gt;Node16</title>
<path fill="none" stroke="#63b8ff" d="M2083,-252.39C2083,-244.13 2083,-235.28 2083,-228.16"/>
<polygon fill="#63b8ff" stroke="#63b8ff" points="2079.5,-252.28 2083,-262.28 2086.5,-252.28 2079.5,-252.28"/>
</g>
<!-- Node572 -->
<g id="node50" class="node">
<title>Node572</title>
<g id="a_node50"><a xlink:href="quat_8c.html" target="_top" xlink:title=" ">
<polygon fill="white" stroke="#666666" points="2264.5,-222.5 2151.5,-222.5 2151.5,-203.5 2264.5,-203.5 2264.5,-222.5"/>
<text text-anchor="middle" x="2208" y="-210.5" font-family="Helvetica,sans-Serif" font-size="10.00">libs/dolphin/mtx/quat.c</text>
</a>
</g>
</g>
<!-- Node1&#45;&gt;Node572 -->
<g id="edge73" class="edge">
<title>Node1&#45;&gt;Node572</title>
<path fill="none" stroke="#63b8ff" d="M2121.23,-258.43C2144.29,-246.62 2172.58,-232.14 2190.45,-222.99"/>
<polygon fill="#63b8ff" stroke="#63b8ff" points="2119.71,-255.27 2112.4,-262.95 2122.9,-261.51 2119.71,-255.27"/>
</g>
<!-- Node3 -->
<g id="node3" class="node">
<title>Node3</title>
<g id="a_node3"><a xlink:href="d__lib_8cpp.html" target="_top" xlink:title=" ">
<polygon fill="white" stroke="#666666" points="80,-24.5 0,-24.5 0,-5.5 80,-5.5 80,-24.5"/>
<text text-anchor="middle" x="40" y="-12.5" font-family="Helvetica,sans-Serif" font-size="10.00">src/d/d_lib.cpp</text>
</a>
</g>
</g>
<!-- Node2&#45;&gt;Node3 -->
<g id="edge2" class="edge">
<title>Node2&#45;&gt;Node3</title>
<path fill="none" stroke="#63b8ff" d="M878.5,-78.33C716.85,-73.14 241.79,-56.03 89,-30 81.94,-28.8 74.44,-26.95 67.48,-25"/>
<polygon fill="#63b8ff" stroke="#63b8ff" points="877.97,-81.82 888.08,-78.64 878.19,-74.82 877.97,-81.82"/>
</g>
<!-- Node4 -->
<g id="node4" class="node">
<title>Node4</title>
<g id="a_node4"><a xlink:href="d__name_8cpp.html" target="_top" xlink:title=" ">
<polygon fill="white" stroke="#666666" points="1248,-24.5 1154,-24.5 1154,-5.5 1248,-5.5 1248,-24.5"/>
<text text-anchor="middle" x="1201" y="-12.5" font-family="Helvetica,sans-Serif" font-size="10.00">src/d/d_name.cpp</text>
</a>
</g>
</g>
<!-- Node2&#45;&gt;Node4 -->
<g id="edge3" class="edge">
<title>Node2&#45;&gt;Node4</title>
<path fill="none" stroke="#63b8ff" d="M982.09,-68.49C1024.87,-58.43 1088.57,-43.37 1144,-30 1150.74,-28.37 1157.92,-26.63 1164.83,-24.93"/>
<polygon fill="#63b8ff" stroke="#63b8ff" points="981.55,-65.02 972.61,-70.71 983.15,-71.83 981.55,-65.02"/>
</g>
<!-- Node5 -->
<g id="node5" class="node">
<title>Node5</title>
<g id="a_node5"><a xlink:href="d__stage_8cpp.html" target="_top" xlink:title=" ">
<polygon fill="white" stroke="#666666" points="192,-24.5 98,-24.5 98,-5.5 192,-5.5 192,-24.5"/>
<text text-anchor="middle" x="145" y="-12.5" font-family="Helvetica,sans-Serif" font-size="10.00">src/d/d_stage.cpp</text>
</a>
</g>
</g>
<!-- Node2&#45;&gt;Node5 -->
<g id="edge4" class="edge">
<title>Node2&#45;&gt;Node5</title>
<path fill="none" stroke="#63b8ff" d="M878.57,-79.56C756.54,-77.86 452.09,-69.64 201,-30 193.08,-28.75 184.64,-26.91 176.78,-24.98"/>
<polygon fill="#63b8ff" stroke="#63b8ff" points="878.24,-83.06 888.29,-79.69 878.33,-76.06 878.24,-83.06"/>
</g>
<!-- Node6 -->
<g id="node6" class="node">
<title>Node6</title>
<g id="a_node6"><a xlink:href="d__timer_8cpp.html" target="_top" xlink:title=" ">
<polygon fill="white" stroke="#666666" points="302,-24.5 210,-24.5 210,-5.5 302,-5.5 302,-24.5"/>
<text text-anchor="middle" x="256" y="-12.5" font-family="Helvetica,sans-Serif" font-size="10.00">src/d/d_timer.cpp</text>
</a>
</g>
</g>
<!-- Node2&#45;&gt;Node6 -->
<g id="edge5" class="edge">
<title>Node2&#45;&gt;Node6</title>
<path fill="none" stroke="#63b8ff" d="M878.4,-78.71C769.7,-75.45 518.77,-64.54 311,-30 303.32,-28.72 295.14,-26.9 287.51,-24.99"/>
<polygon fill="#63b8ff" stroke="#63b8ff" points="878.1,-82.2 888.2,-78.99 878.3,-75.2 878.1,-82.2"/>
</g>
<!-- Node7 -->
<g id="node7" class="node">
<title>Node7</title>
<g id="a_node7"><a xlink:href="d__menu__dmap_8cpp.html" target="_top" xlink:title=" ">
<polygon fill="white" stroke="#666666" points="470,-24.5 320,-24.5 320,-5.5 470,-5.5 470,-24.5"/>
<text text-anchor="middle" x="395" y="-12.5" font-family="Helvetica,sans-Serif" font-size="10.00">src/d/menu/d_menu_dmap.cpp</text>
</a>
</g>
</g>
<!-- Node2&#45;&gt;Node7 -->
<g id="edge6" class="edge">
<title>Node2&#45;&gt;Node7</title>
<path fill="none" stroke="#63b8ff" d="M878.49,-74.98C793.13,-66.9 622.81,-49.89 479,-30 468.31,-28.52 456.88,-26.75 446.02,-24.97"/>
<polygon fill="#63b8ff" stroke="#63b8ff" points="877.92,-78.44 888.2,-75.9 878.57,-71.47 877.92,-78.44"/>
</g>
<!-- Node8 -->
<g id="node8" class="node">
<title>Node8</title>
<g id="a_node8"><a xlink:href="d__menu__option_8cpp.html" target="_top" xlink:title=" ">
<polygon fill="white" stroke="#666666" points="1418,-24.5 1266,-24.5 1266,-5.5 1418,-5.5 1418,-24.5"/>
<text text-anchor="middle" x="1342" y="-12.5" font-family="Helvetica,sans-Serif" font-size="10.00">src/d/menu/d_menu_option.cpp</text>
</a>
</g>
</g>
<!-- Node2&#45;&gt;Node8 -->
<g id="edge7" class="edge">
<title>Node2&#45;&gt;Node8</title>
<path fill="none" stroke="#63b8ff" d="M987.34,-71.79C1051.73,-62.01 1162.22,-45.12 1257,-30 1267.04,-28.4 1277.75,-26.66 1288.05,-24.97"/>
<polygon fill="#63b8ff" stroke="#63b8ff" points="987.12,-68.28 977.75,-73.24 988.17,-75.2 987.12,-68.28"/>
</g>
<!-- Node9 -->
<g id="node9" class="node">
<title>Node9</title>
<g id="a_node9"><a xlink:href="d__menu__save_8cpp.html" target="_top" xlink:title=" ">
<polygon fill="white" stroke="#666666" points="1135.5,-24.5 988.5,-24.5 988.5,-5.5 1135.5,-5.5 1135.5,-24.5"/>
<text text-anchor="middle" x="1062" y="-12.5" font-family="Helvetica,sans-Serif" font-size="10.00">src/d/menu/d_menu_save.cpp</text>
</a>
</g>
</g>
<!-- Node2&#45;&gt;Node9 -->
<g id="edge8" class="edge">
<title>Node2&#45;&gt;Node9</title>
<path fill="none" stroke="#63b8ff" d="M961.01,-66.1C986.29,-53.56 1022.72,-35.49 1044.22,-24.82"/>
<polygon fill="#63b8ff" stroke="#63b8ff" points="959.7,-62.85 952.29,-70.43 962.81,-69.12 959.7,-62.85"/>
</g>
<!-- Node10 -->
<g id="node10" class="node">
<title>Node10</title>
<g id="a_node10"><a xlink:href="d__menu__skill_8cpp.html" target="_top" xlink:title=" ">
<polygon fill="white" stroke="#666666" points="1579.5,-24.5 1436.5,-24.5 1436.5,-5.5 1579.5,-5.5 1579.5,-24.5"/>
<text text-anchor="middle" x="1508" y="-12.5" font-family="Helvetica,sans-Serif" font-size="10.00">src/d/menu/d_menu_skill.cpp</text>
</a>
</g>
</g>
<!-- Node2&#45;&gt;Node10 -->
<g id="edge9" class="edge">
<title>Node2&#45;&gt;Node10</title>
<path fill="none" stroke="#63b8ff" d="M987.84,-75.72C1079.16,-68.3 1268.07,-51.75 1427,-30 1437.46,-28.57 1448.65,-26.79 1459.26,-25"/>
<polygon fill="#63b8ff" stroke="#63b8ff" points="987.6,-72.22 977.91,-76.52 988.16,-79.2 987.6,-72.22"/>
</g>
<!-- Node11 -->
<g id="node11" class="node">
<title>Node11</title>
<g id="a_node11"><a xlink:href="d__menu__window_8cpp.html" target="_top" xlink:title=" ">
<polygon fill="white" stroke="#666666" points="647.5,-24.5 488.5,-24.5 488.5,-5.5 647.5,-5.5 647.5,-24.5"/>
<text text-anchor="middle" x="568" y="-12.5" font-family="Helvetica,sans-Serif" font-size="10.00">src/d/menu/d_menu_window.cpp</text>
</a>
</g>
</g>
<!-- Node2&#45;&gt;Node11 -->
<g id="edge10" class="edge">
<title>Node2&#45;&gt;Node11</title>
<path fill="none" stroke="#63b8ff" d="M878.48,-70.44C808.38,-58.15 687.58,-36.97 619.15,-24.97"/>
<polygon fill="#63b8ff" stroke="#63b8ff" points="877.75,-73.87 888.21,-72.15 878.96,-66.97 877.75,-73.87"/>
</g>
<!-- Node12 -->
<g id="node12" class="node">
<title>Node12</title>
<g id="a_node12"><a xlink:href="d__pane__class_8cpp.html" target="_top" xlink:title=" ">
<polygon fill="white" stroke="#666666" points="1740.5,-24.5 1597.5,-24.5 1597.5,-5.5 1740.5,-5.5 1740.5,-24.5"/>
<text text-anchor="middle" x="1669" y="-12.5" font-family="Helvetica,sans-Serif" font-size="10.00">src/d/pane/d_pane_class.cpp</text>
</a>
</g>
</g>
<!-- Node2&#45;&gt;Node12 -->
<g id="edge11" class="edge">
<title>Node2&#45;&gt;Node12</title>
<path fill="none" stroke="#63b8ff" d="M987.41,-75.58C1021.95,-72.79 1067.59,-69.13 1108,-66 1321.29,-49.47 1375.68,-56.25 1588,-30 1598.91,-28.65 1610.58,-26.85 1621.57,-24.98"/>
<polygon fill="#63b8ff" stroke="#63b8ff" points="987.34,-72.07 977.65,-76.37 987.9,-79.05 987.34,-72.07"/>
</g>
<!-- Node13 -->
<g id="node13" class="node">
<title>Node13</title>
<g id="a_node13"><a xlink:href="d__shop__system_8cpp.html" target="_top" xlink:title=" ">
<polygon fill="white" stroke="#666666" points="818,-24.5 666,-24.5 666,-5.5 818,-5.5 818,-24.5"/>
<text text-anchor="middle" x="742" y="-12.5" font-family="Helvetica,sans-Serif" font-size="10.00">src/d/shop/d_shop_system.cpp</text>
</a>
</g>
</g>
<!-- Node2&#45;&gt;Node13 -->
<g id="edge12" class="edge">
<title>Node2&#45;&gt;Node13</title>
<path fill="none" stroke="#63b8ff" d="M895.98,-67.6C858.61,-55.07 801.8,-36.04 768.64,-24.93"/>
<polygon fill="#63b8ff" stroke="#63b8ff" points="894.41,-70.76 905.01,-70.62 896.64,-64.12 894.41,-70.76"/>
</g>
<!-- Node14 -->
<g id="node14" class="node">
<title>Node14</title>
<g id="a_node14"><a xlink:href="f__pc__manager_8cpp.html" target="_top" xlink:title=" ">
<polygon fill="white" stroke="#666666" points="970,-24.5 836,-24.5 836,-5.5 970,-5.5 970,-24.5"/>
<text text-anchor="middle" x="903" y="-12.5" font-family="Helvetica,sans-Serif" font-size="10.00">src/f_pc/f_pc_manager.cpp</text>
</a>
</g>
</g>
<!-- Node2&#45;&gt;Node14 -->
<g id="edge13" class="edge">
<title>Node2&#45;&gt;Node14</title>
<path fill="none" stroke="#63b8ff" d="M924,-60.8C918.4,-48.85 911.47,-34.06 907.14,-24.82"/>
<polygon fill="#63b8ff" stroke="#63b8ff" points="920.77,-62.16 928.19,-69.73 927.11,-59.19 920.77,-62.16"/>
</g>
<!-- Node15 -->
<g id="node15" class="node">
<title>Node15</title>
<g id="a_node15"><a xlink:href="d__msg__scrn__explain_8cpp.html" target="_top" xlink:title=" ">
<polygon fill="white" stroke="#666666" points="2028,-30 1922,-30 1922,0 2028,0 2028,-30"/>
<text text-anchor="start" x="1930" y="-18" font-family="Helvetica,sans-Serif" font-size="10.00">src/msg/scrn/d_msg</text>
<text text-anchor="middle" x="1975" y="-7" font-family="Helvetica,sans-Serif" font-size="10.00">_scrn_explain.cpp</text>
</a>
</g>
</g>
<!-- Node2&#45;&gt;Node15 -->
<g id="edge14" class="edge">
<title>Node2&#45;&gt;Node15</title>
<path fill="none" stroke="#63b8ff" d="M987.74,-75.29C1022.23,-72.4 1067.7,-68.74 1108,-66 1392.68,-46.62 1464.16,-46.82 1749,-30 1808.06,-26.51 1875.79,-22.29 1921.58,-19.4"/>
<polygon fill="#63b8ff" stroke="#63b8ff" points="987.67,-71.78 978,-76.11 988.26,-78.75 987.67,-71.78"/>
</g>
<!-- Node17 -->
<g id="node17" class="node">
<title>Node17</title>
<g id="a_node17"><a xlink:href="J2DGrafContext_8h.html" target="_top" xlink:title=" ">
<polygon fill="white" stroke="#666666" points="3222.5,-162 3087.5,-162 3087.5,-132 3222.5,-132 3222.5,-162"/>
<text text-anchor="start" x="3095.5" y="-150" font-family="Helvetica,sans-Serif" font-size="10.00">include/JSystem/J2DGraph</text>
<text text-anchor="middle" x="3155" y="-139" font-family="Helvetica,sans-Serif" font-size="10.00">/J2DGrafContext.h</text>
</a>
</g>
</g>
<!-- Node16&#45;&gt;Node17 -->
<g id="edge16" class="edge">
<title>Node16&#45;&gt;Node17</title>
<path fill="none" stroke="#63b8ff" d="M2144.76,-197.82C2556.93,-142.81 2668.52,-207.45 3079,-162 3081.67,-161.7 3084.38,-161.37 3087.12,-161"/>
<polygon fill="#63b8ff" stroke="#63b8ff" points="2144.35,-194.35 2134.91,-199.15 2145.29,-201.28 2144.35,-194.35"/>
</g>
<!-- Node35 -->
<g id="node29" class="node">
<title>Node35</title>
<g id="a_node29"><a xlink:href="J2DPane_8h.html" target="_top" xlink:title=" ">
<polygon fill="#fff0f0" stroke="red" points="1314.5,-162 1179.5,-162 1179.5,-132 1314.5,-132 1314.5,-162"/>
<text text-anchor="start" x="1187.5" y="-150" font-family="Helvetica,sans-Serif" font-size="10.00">include/JSystem/J2DGraph</text>
<text text-anchor="middle" x="1247" y="-139" font-family="Helvetica,sans-Serif" font-size="10.00">/J2DPane.h</text>
</a>
</g>
</g>
<!-- Node16&#45;&gt;Node35 -->
<g id="edge29" class="edge">
<title>Node16&#45;&gt;Node35</title>
<path fill="none" stroke="#63b8ff" d="M2021.36,-210.06C1892.45,-205.53 1585.09,-192.27 1329,-162 1324.41,-161.46 1319.69,-160.83 1314.94,-160.15"/>
<polygon fill="#63b8ff" stroke="#63b8ff" points="2020.91,-213.55 2031.03,-210.4 2021.15,-206.55 2020.91,-213.55"/>
</g>
<!-- Node273 -->
<g id="node34" class="node">
<title>Node273</title>
<g id="a_node34"><a xlink:href="J3DStruct_8h.html" target="_top" xlink:title=" ">
<polygon fill="#fff0f0" stroke="red" points="1506.5,-162 1371.5,-162 1371.5,-132 1506.5,-132 1506.5,-162"/>
<text text-anchor="start" x="1379.5" y="-150" font-family="Helvetica,sans-Serif" font-size="10.00">include/JSystem/J3DGraph</text>
<text text-anchor="middle" x="1439" y="-139" font-family="Helvetica,sans-Serif" font-size="10.00">Base/J3DStruct.h</text>
</a>
</g>
</g>
<!-- Node16&#45;&gt;Node273 -->
<g id="edge50" class="edge">
<title>Node16&#45;&gt;Node273</title>
<path fill="none" stroke="#63b8ff" d="M2021.38,-208.15C1917.78,-201.3 1702.23,-185.49 1521,-162 1516.42,-161.41 1511.7,-160.74 1506.95,-160.03"/>
<polygon fill="#63b8ff" stroke="#63b8ff" points="2021.14,-211.64 2031.35,-208.8 2021.6,-204.65 2021.14,-211.64"/>
</g>
<!-- Node286 -->
<g id="node35" class="node">
<title>Node286</title>
<g id="a_node35"><a xlink:href="J3DTexture_8h.html" target="_top" xlink:title=" ">
<polygon fill="#fff0f0" stroke="red" points="1878.5,-96 1743.5,-96 1743.5,-66 1878.5,-66 1878.5,-96"/>
<text text-anchor="start" x="1751.5" y="-84" font-family="Helvetica,sans-Serif" font-size="10.00">include/JSystem/J3DGraph</text>
<text text-anchor="middle" x="1811" y="-73" font-family="Helvetica,sans-Serif" font-size="10.00">Base/J3DTexture.h</text>
</a>
</g>
</g>
<!-- Node16&#45;&gt;Node286 -->
<g id="edge52" class="edge">
<title>Node16&#45;&gt;Node286</title>
<path fill="none" stroke="#63b8ff" d="M2021.18,-212.42C1854.7,-212.9 1406.51,-209.71 1362,-162 1352.9,-152.25 1353.04,-141.87 1362,-132 1389.91,-101.25 1692.87,-101.72 1734,-96 1736.96,-95.59 1739.98,-95.14 1743.03,-94.68"/>
<polygon fill="#63b8ff" stroke="#63b8ff" points="2021.16,-215.92 2031.15,-212.38 2021.14,-208.92 2021.16,-215.92"/>
</g>
<!-- Node401 -->
<g id="node36" class="node">
<title>Node401</title>
<g id="a_node36"><a xlink:href="JMath_8h.html" target="_top" xlink:title=" ">
<polygon fill="#fff0f0" stroke="red" points="2761.5,-162 2642.5,-162 2642.5,-132 2761.5,-132 2761.5,-162"/>
<text text-anchor="start" x="2650.5" y="-150" font-family="Helvetica,sans-Serif" font-size="10.00">include/JSystem/JMath</text>
<text text-anchor="middle" x="2702" y="-139" font-family="Helvetica,sans-Serif" font-size="10.00">/JMath.h</text>
</a>
</g>
</g>
<!-- Node16&#45;&gt;Node401 -->
<g id="edge53" class="edge">
<title>Node16&#45;&gt;Node401</title>
<path fill="none" stroke="#63b8ff" d="M2144.81,-197.74C2360.28,-165.55 2419.94,-191.31 2633,-162 2636.03,-161.58 2639.12,-161.12 2642.24,-160.61"/>
<polygon fill="#63b8ff" stroke="#63b8ff" points="2144.28,-194.28 2134.92,-199.25 2145.34,-201.2 2144.28,-194.28"/>
</g>
<!-- Node402 -->
<g id="node37" class="node">
<title>Node402</title>
<g id="a_node37"><a xlink:href="TPosition3_8hh.html" target="_top" xlink:title=" ">
<polygon fill="#fff0f0" stroke="red" points="2137.5,-90.5 1986.5,-90.5 1986.5,-71.5 2137.5,-71.5 2137.5,-90.5"/>
<text text-anchor="middle" x="2062" y="-78.5" font-family="Helvetica,sans-Serif" font-size="10.00">include/JSystem/TPosition3.hh</text>
</a>
</g>
</g>
<!-- Node16&#45;&gt;Node402 -->
<g id="edge57" class="edge">
<title>Node16&#45;&gt;Node402</title>
<path fill="none" stroke="#63b8ff" d="M2021.47,-210.74C1888.74,-207.38 1584.96,-196.02 1554,-162 1545.03,-152.14 1545.05,-141.88 1554,-132 1561.18,-124.08 1846.27,-99.68 1986.15,-88.15"/>
<polygon fill="#63b8ff" stroke="#63b8ff" points="2021.03,-214.23 2031.12,-210.97 2021.21,-207.23 2021.03,-214.23"/>
</g>
<!-- Node423 -->
<g id="node38" class="node">
<title>Node423</title>
<g id="a_node38"><a xlink:href="JPADrawInfo_8h.html" target="_top" xlink:title=" ">
<polygon fill="#fff0f0" stroke="red" points="1693,-162 1563,-162 1563,-132 1693,-132 1693,-162"/>
<text text-anchor="start" x="1571" y="-150" font-family="Helvetica,sans-Serif" font-size="10.00">include/JSystem/JParticle</text>
<text text-anchor="middle" x="1628" y="-139" font-family="Helvetica,sans-Serif" font-size="10.00">/JPADrawInfo.h</text>
</a>
</g>
</g>
<!-- Node16&#45;&gt;Node423 -->
<g id="edge55" class="edge">
<title>Node16&#45;&gt;Node423</title>
<path fill="none" stroke="#63b8ff" d="M2021.47,-205.01C1946.02,-196.19 1814.31,-179.98 1702,-162 1699.16,-161.55 1696.26,-161.07 1693.33,-160.57"/>
<polygon fill="#63b8ff" stroke="#63b8ff" points="2020.8,-208.45 2031.13,-206.13 2021.61,-201.5 2020.8,-208.45"/>
</g>
<!-- Node428 -->
<g id="node39" class="node">
<title>Node428</title>
<g id="a_node39"><a xlink:href="JPAMath_8h.html" target="_top" xlink:title=" ">
<polygon fill="#fff0f0" stroke="red" points="1841,-162 1711,-162 1711,-132 1841,-132 1841,-162"/>
<text text-anchor="start" x="1719" y="-150" font-family="Helvetica,sans-Serif" font-size="10.00">include/JSystem/JParticle</text>
<text text-anchor="middle" x="1776" y="-139" font-family="Helvetica,sans-Serif" font-size="10.00">/JPAMath.h</text>
</a>
</g>
</g>
<!-- Node16&#45;&gt;Node428 -->
<g id="edge56" class="edge">
<title>Node16&#45;&gt;Node428</title>
<path fill="none" stroke="#63b8ff" d="M2021.54,-199.19C1969.35,-188.31 1894.65,-172.73 1841.37,-161.63"/>
<polygon fill="#63b8ff" stroke="#63b8ff" points="2020.66,-202.58 2031.17,-201.19 2022.09,-195.73 2020.66,-202.58"/>
</g>
<!-- Node437 -->
<g id="node40" class="node">
<title>Node437</title>
<g id="a_node40"><a xlink:href="c__lib_8h.html" target="_top" xlink:title=" ">
<polygon fill="#fff0f0" stroke="red" points="2008.5,-162 1859.5,-162 1859.5,-132 2008.5,-132 2008.5,-162"/>
<text text-anchor="start" x="1867.5" y="-150" font-family="Helvetica,sans-Serif" font-size="10.00">include/SSystem/SComponent</text>
<text text-anchor="middle" x="1934" y="-139" font-family="Helvetica,sans-Serif" font-size="10.00">/c_lib.h</text>
</a>
</g>
</g>
<!-- Node16&#45;&gt;Node437 -->
<g id="edge58" class="edge">
<title>Node16&#45;&gt;Node437</title>
<path fill="none" stroke="#63b8ff" d="M2039.09,-193.14C2016.23,-183.32 1988.72,-171.51 1967.58,-162.43"/>
<polygon fill="#63b8ff" stroke="#63b8ff" points="2037.6,-196.31 2048.17,-197.04 2040.36,-189.88 2037.6,-196.31"/>
</g>
<!-- Node440 -->
<g id="node41" class="node">
<title>Node440</title>
<g id="a_node41"><a xlink:href="d__bg__w_8h.html" target="_top" xlink:title=" ">
<polygon fill="#fff0f0" stroke="red" points="2139.5,-156.5 2026.5,-156.5 2026.5,-137.5 2139.5,-137.5 2139.5,-156.5"/>
<text text-anchor="middle" x="2083" y="-144.5" font-family="Helvetica,sans-Serif" font-size="10.00">include/d/bg/d_bg_w.h</text>
</a>
</g>
</g>
<!-- Node16&#45;&gt;Node440 -->
<g id="edge59" class="edge">
<title>Node16&#45;&gt;Node440</title>
<path fill="none" stroke="#63b8ff" d="M2083,-186.59C2083,-176.06 2083,-164.53 2083,-156.84"/>
<polygon fill="#63b8ff" stroke="#63b8ff" points="2079.5,-186.28 2083,-196.28 2086.5,-186.28 2079.5,-186.28"/>
</g>
<!-- Node443 -->
<g id="node42" class="node">
<title>Node443</title>
<g id="a_node42"><a xlink:href="GXInit_8h.html" target="_top" xlink:title=" ">
<polygon fill="#fff0f0" stroke="red" points="2252,-162 2158,-162 2158,-132 2252,-132 2252,-162"/>
<text text-anchor="start" x="2166" y="-150" font-family="Helvetica,sans-Serif" font-size="10.00">include/dolphin/gx</text>
<text text-anchor="middle" x="2205" y="-139" font-family="Helvetica,sans-Serif" font-size="10.00">/GXInit.h</text>
</a>
</g>
</g>
<!-- Node16&#45;&gt;Node443 -->
<g id="edge60" class="edge">
<title>Node16&#45;&gt;Node443</title>
<path fill="none" stroke="#63b8ff" d="M2120.52,-192.32C2138.99,-182.63 2160.86,-171.16 2177.71,-162.31"/>
<polygon fill="#63b8ff" stroke="#63b8ff" points="2118.95,-189.19 2111.72,-196.93 2122.2,-195.39 2118.95,-189.19"/>
</g>
<!-- Node532 -->
<g id="node43" class="node">
<title>Node532</title>
<g id="a_node43"><a xlink:href="GXTransform_8h.html" target="_top" xlink:title=" ">
<polygon fill="#fff0f0" stroke="red" points="2364,-162 2270,-162 2270,-132 2364,-132 2364,-162"/>
<text text-anchor="start" x="2278" y="-150" font-family="Helvetica,sans-Serif" font-size="10.00">include/dolphin/gx</text>
<text text-anchor="middle" x="2317" y="-139" font-family="Helvetica,sans-Serif" font-size="10.00">/GXTransform.h</text>
</a>
</g>
</g>
<!-- Node16&#45;&gt;Node532 -->
<g id="edge61" class="edge">
<title>Node16&#45;&gt;Node532</title>
<path fill="none" stroke="#63b8ff" d="M2144.5,-195.18C2183.7,-184.46 2233.72,-170.78 2269.79,-160.91"/>
<polygon fill="#63b8ff" stroke="#63b8ff" points="2143.67,-191.78 2134.95,-197.79 2145.52,-198.53 2143.67,-191.78"/>
</g>
<!-- Node534 -->
<g id="node44" class="node">
<title>Node534</title>
<g id="a_node44"><a xlink:href="mtxvec_8h.html" target="_top" xlink:title=" ">
<polygon fill="#fff0f0" stroke="red" points="2482,-162 2382,-162 2382,-132 2482,-132 2482,-162"/>
<text text-anchor="start" x="2390" y="-150" font-family="Helvetica,sans-Serif" font-size="10.00">include/dolphin/mtx</text>
<text text-anchor="middle" x="2432" y="-139" font-family="Helvetica,sans-Serif" font-size="10.00">/mtxvec.h</text>
</a>
</g>
</g>
<!-- Node16&#45;&gt;Node534 -->
<g id="edge62" class="edge">
<title>Node16&#45;&gt;Node534</title>
<path fill="none" stroke="#63b8ff" d="M2144.52,-197.61C2245.9,-178.24 2274.52,-181.33 2373,-162 2375.79,-161.45 2378.65,-160.86 2381.53,-160.25"/>
<polygon fill="#63b8ff" stroke="#63b8ff" points="2144.11,-194.12 2134.96,-199.46 2145.44,-200.99 2144.11,-194.12"/>
</g>
<!-- Node567 -->
<g id="node45" class="node">
<title>Node567</title>
<g id="a_node45"><a xlink:href="f__op__view_8h.html" target="_top" xlink:title=" ">
<polygon fill="#fff0f0" stroke="red" points="2624,-156.5 2500,-156.5 2500,-137.5 2624,-137.5 2624,-156.5"/>
<text text-anchor="middle" x="2562" y="-144.5" font-family="Helvetica,sans-Serif" font-size="10.00">include/f_op/f_op_view.h</text>
</a>
</g>
</g>
<!-- Node16&#45;&gt;Node567 -->
<g id="edge63" class="edge">
<title>Node16&#45;&gt;Node567</title>
<path fill="none" stroke="#63b8ff" d="M2144.66,-197.7C2297.73,-172.54 2340.4,-184.57 2491,-162 2500.44,-160.59 2510.54,-158.78 2520.06,-156.93"/>
<polygon fill="#63b8ff" stroke="#63b8ff" points="2144.22,-194.22 2134.93,-199.32 2145.38,-201.13 2144.22,-194.22"/>
</g>
<!-- Node570 -->
<g id="node46" class="node">
<title>Node570</title>
<g id="a_node46"><a xlink:href="m__Do__graphic_8h.html" target="_top" xlink:title=" ">
<polygon fill="#fff0f0" stroke="red" points="1266.5,-90.5 1117.5,-90.5 1117.5,-71.5 1266.5,-71.5 1266.5,-90.5"/>
<text text-anchor="middle" x="1192" y="-78.5" font-family="Helvetica,sans-Serif" font-size="10.00">include/m_Do/m_Do_graphic.h</text>
</a>
</g>
</g>
<!-- Node16&#45;&gt;Node570 -->
<g id="edge64" class="edge">
<title>Node16&#45;&gt;Node570</title>
<path fill="none" stroke="#63b8ff" d="M2021.04,-210.92C1820.34,-207.12 1199.26,-192.91 1170,-162 1151.09,-142.02 1172.64,-107.32 1184.81,-90.99"/>
<polygon fill="#63b8ff" stroke="#63b8ff" points="2020.95,-214.42 2031.02,-211.11 2021.08,-207.42 2020.95,-214.42"/>
</g>
<!-- Node186 -->
<g id="node47" class="node">
<title>Node186</title>
<g id="a_node47"><a xlink:href="d__resorce_8cpp.html" target="_top" xlink:title=" ">
<polygon fill="white" stroke="#666666" points="2413,-24.5 2311,-24.5 2311,-5.5 2413,-5.5 2413,-24.5"/>
<text text-anchor="middle" x="2362" y="-12.5" font-family="Helvetica,sans-Serif" font-size="10.00">src/d/d_resorce.cpp</text>
</a>
</g>
</g>
<!-- Node16&#45;&gt;Node186 -->
<g id="edge71" class="edge">
<title>Node16&#45;&gt;Node186</title>
<path fill="none" stroke="#63b8ff" d="M2144.8,-198.2C2251.5,-189.76 2724.86,-210.86 2771,-162 2780.15,-152.31 2779.04,-142.64 2771,-132 2765.14,-124.25 2492.39,-50.82 2395.61,-24.96"/>
<polygon fill="#63b8ff" stroke="#63b8ff" points="2144.49,-194.72 2134.92,-199.26 2145.24,-201.68 2144.49,-194.72"/>
</g>
<!-- Node571 -->
<g id="node48" class="node">
<title>Node571</title>
<g id="a_node48"><a xlink:href="mtx_8c.html" target="_top" xlink:title=" ">
<polygon fill="white" stroke="#666666" points="2928,-156.5 2818,-156.5 2818,-137.5 2928,-137.5 2928,-156.5"/>
<text text-anchor="middle" x="2873" y="-144.5" font-family="Helvetica,sans-Serif" font-size="10.00">libs/dolphin/mtx/mtx.c</text>
</a>
</g>
</g>
<!-- Node16&#45;&gt;Node571 -->
<g id="edge70" class="edge">
<title>Node16&#45;&gt;Node571</title>
<path fill="none" stroke="#63b8ff" d="M2144.74,-197.79C2435.64,-156.91 2515.44,-198.92 2804,-162 2813.7,-160.76 2824.08,-158.93 2833.76,-156.99"/>
<polygon fill="#63b8ff" stroke="#63b8ff" points="2144.32,-194.32 2134.91,-199.2 2145.31,-201.25 2144.32,-194.32"/>
</g>
<!-- Node214 -->
<g id="node49" class="node">
<title>Node214</title>
<g id="a_node49"><a xlink:href="m__Do__ext_8cpp.html" target="_top" xlink:title=" ">
<polygon fill="white" stroke="#666666" points="3069.5,-156.5 2946.5,-156.5 2946.5,-137.5 3069.5,-137.5 3069.5,-156.5"/>
<text text-anchor="middle" x="3008" y="-144.5" font-family="Helvetica,sans-Serif" font-size="10.00">src/m_Do/m_Do_ext.cpp</text>
</a>
</g>
</g>
<!-- Node16&#45;&gt;Node214 -->
<g id="edge72" class="edge">
<title>Node16&#45;&gt;Node214</title>
<path fill="none" stroke="#63b8ff" d="M2144.63,-197.83C2494.27,-150.11 2589.53,-203.89 2937,-162 2947.1,-160.78 2957.92,-158.93 2967.99,-156.97"/>
<polygon fill="#63b8ff" stroke="#63b8ff" points="2144.34,-194.33 2134.91,-199.17 2145.3,-201.27 2144.34,-194.33"/>
</g>
<!-- Node18 -->
<g id="node18" class="node">
<title>Node18</title>
<g id="a_node18"><a xlink:href="J2DOrthoGraph_8h.html" target="_top" xlink:title=" ">
<polygon fill="#fff0f0" stroke="red" points="2488.5,-96 2353.5,-96 2353.5,-66 2488.5,-66 2488.5,-96"/>
<text text-anchor="start" x="2361.5" y="-84" font-family="Helvetica,sans-Serif" font-size="10.00">include/JSystem/J2DGraph</text>
<text text-anchor="middle" x="2421" y="-73" font-family="Helvetica,sans-Serif" font-size="10.00">/J2DOrthoGraph.h</text>
</a>
</g>
</g>
<!-- Node17&#45;&gt;Node18 -->
<g id="edge17" class="edge">
<title>Node17&#45;&gt;Node18</title>
<path fill="none" stroke="#63b8ff" d="M3075.95,-131.72C2946.95,-116.1 2628.93,-95.13 2488.88,-86.24"/>
<polygon fill="#63b8ff" stroke="#63b8ff" points="3075.24,-135.16 3085.6,-132.93 3076.12,-128.22 3075.24,-135.16"/>
</g>
<!-- Node25 -->
<g id="node19" class="node">
<title>Node25</title>
<g id="a_node19"><a xlink:href="J2DGrafContext_8cpp.html" target="_top" xlink:title=" ">
<polygon fill="white" stroke="#666666" points="3031.5,-96 2912.5,-96 2912.5,-66 3031.5,-66 3031.5,-96"/>
<text text-anchor="start" x="2920.5" y="-84" font-family="Helvetica,sans-Serif" font-size="10.00">libs/JSystem/J2DGraph</text>
<text text-anchor="middle" x="2972" y="-73" font-family="Helvetica,sans-Serif" font-size="10.00">/J2DGrafContext.cpp</text>
</a>
</g>
</g>
<!-- Node17&#45;&gt;Node25 -->
<g id="edge19" class="edge">
<title>Node17&#45;&gt;Node25</title>
<path fill="none" stroke="#63b8ff" d="M3103.35,-127.94C3074.84,-117.97 3039.92,-105.75 3013.25,-96.43"/>
<polygon fill="#63b8ff" stroke="#63b8ff" points="3101.91,-131.14 3112.5,-131.14 3104.22,-124.53 3101.91,-131.14"/>
</g>
<!-- Node26 -->
<g id="node20" class="node">
<title>Node26</title>
<g id="a_node20"><a xlink:href="d__bright__check_8cpp.html" target="_top" xlink:title=" ">
<polygon fill="white" stroke="#666666" points="2688.5,-24.5 2563.5,-24.5 2563.5,-5.5 2688.5,-5.5 2688.5,-24.5"/>
<text text-anchor="middle" x="2626" y="-12.5" font-family="Helvetica,sans-Serif" font-size="10.00">src/d/d_bright_check.cpp</text>
</a>
</g>
</g>
<!-- Node17&#45;&gt;Node26 -->
<g id="edge20" class="edge">
<title>Node17&#45;&gt;Node26</title>
<path fill="none" stroke="#63b8ff" d="M3075.79,-131.8C2978.56,-121.27 2773.79,-131.73 2701,-96 2667.85,-79.73 2641.87,-42.17 2631.23,-24.94"/>
<polygon fill="#63b8ff" stroke="#63b8ff" points="3075.24,-135.25 3085.59,-133 3076.1,-128.31 3075.24,-135.25"/>
</g>
<!-- Node27 -->
<g id="node21" class="node">
<title>Node27</title>
<g id="a_node21"><a xlink:href="d__kantera__icon__meter_8cpp.html" target="_top" xlink:title=" ">
<polygon fill="white" stroke="#666666" points="3088.5,-30 2981.5,-30 2981.5,0 3088.5,0 3088.5,-30"/>
<text text-anchor="start" x="2989.5" y="-18" font-family="Helvetica,sans-Serif" font-size="10.00">src/d/d_kantera_icon</text>
<text text-anchor="middle" x="3035" y="-7" font-family="Helvetica,sans-Serif" font-size="10.00">_meter.cpp</text>
</a>
</g>
</g>
<!-- Node17&#45;&gt;Node27 -->
<g id="edge21" class="edge">
<title>Node17&#45;&gt;Node27</title>
<path fill="none" stroke="#63b8ff" d="M3116.52,-125.76C3103.55,-117.69 3089.68,-107.56 3079,-96 3060.71,-76.21 3047.31,-47.42 3040.37,-30.32"/>
<polygon fill="#63b8ff" stroke="#63b8ff" points="3114.51,-128.63 3124.89,-130.74 3118.09,-122.62 3114.51,-128.63"/>
</g>
<!-- Node28 -->
<g id="node22" class="node">
<title>Node28</title>
<g id="a_node22"><a xlink:href="d__map__path_8cpp.html" target="_top" xlink:title=" ">
<polygon fill="white" stroke="#666666" points="3222,-90.5 3088,-90.5 3088,-71.5 3222,-71.5 3222,-90.5"/>
<text text-anchor="middle" x="3155" y="-78.5" font-family="Helvetica,sans-Serif" font-size="10.00">src/d/map/d_map_path.cpp</text>
</a>
</g>
</g>
<!-- Node17&#45;&gt;Node28 -->
<g id="edge22" class="edge">
<title>Node17&#45;&gt;Node28</title>
<path fill="none" stroke="#63b8ff" d="M3155,-120.59C3155,-110.06 3155,-98.53 3155,-90.84"/>
<polygon fill="#63b8ff" stroke="#63b8ff" points="3151.5,-120.28 3155,-130.28 3158.5,-120.28 3151.5,-120.28"/>
</g>
<!-- Node29 -->
<g id="node23" class="node">
<title>Node29</title>
<g id="a_node23"><a xlink:href="d__meter__map_8cpp.html" target="_top" xlink:title=" ">
<polygon fill="white" stroke="#666666" points="3344,-96 3240,-96 3240,-66 3344,-66 3344,-96"/>
<text text-anchor="start" x="3248" y="-84" font-family="Helvetica,sans-Serif" font-size="10.00">src/d/meter/d_meter</text>
<text text-anchor="middle" x="3292" y="-73" font-family="Helvetica,sans-Serif" font-size="10.00">_map.cpp</text>
</a>
</g>
</g>
<!-- Node17&#45;&gt;Node29 -->
<g id="edge23" class="edge">
<title>Node17&#45;&gt;Node29</title>
<path fill="none" stroke="#63b8ff" d="M3195.98,-126.86C3216.96,-117.05 3242.08,-105.32 3261.36,-96.31"/>
<polygon fill="#63b8ff" stroke="#63b8ff" points="3194.7,-123.59 3187.12,-131 3197.66,-129.94 3194.7,-123.59"/>
</g>
<!-- Node30 -->
<g id="node24" class="node">
<title>Node30</title>
<g id="a_node24"><a xlink:href="d__msg__scrn__base_8cpp.html" target="_top" xlink:title=" ">
<polygon fill="white" stroke="#666666" points="3228,-30 3122,-30 3122,0 3228,0 3228,-30"/>
<text text-anchor="start" x="3130" y="-18" font-family="Helvetica,sans-Serif" font-size="10.00">src/msg/scrn/d_msg</text>
<text text-anchor="middle" x="3175" y="-7" font-family="Helvetica,sans-Serif" font-size="10.00">_scrn_base.cpp</text>
</a>
</g>
</g>
<!-- Node17&#45;&gt;Node30 -->
<g id="edge24" class="edge">
<title>Node17&#45;&gt;Node30</title>
<path fill="none" stroke="#63b8ff" d="M3234.07,-136.03C3282.55,-128.1 3338.09,-115.14 3353,-96 3361.19,-85.48 3361.05,-76.63 3353,-66 3345.25,-55.77 3277.65,-38.79 3228.05,-27.5"/>
<polygon fill="#63b8ff" stroke="#63b8ff" points="3233.72,-132.54 3224.39,-137.55 3234.81,-139.45 3233.72,-132.54"/>
</g>
<!-- Node31 -->
<g id="node25" class="node">
<title>Node31</title>
<g id="a_node25"><a xlink:href="d__msg__scrn__boss_8cpp.html" target="_top" xlink:title=" ">
<polygon fill="white" stroke="#666666" points="3359,-30 3253,-30 3253,0 3359,0 3359,-30"/>
<text text-anchor="start" x="3261" y="-18" font-family="Helvetica,sans-Serif" font-size="10.00">src/msg/scrn/d_msg</text>
<text text-anchor="middle" x="3306" y="-7" font-family="Helvetica,sans-Serif" font-size="10.00">_scrn_boss.cpp</text>
</a>
</g>
</g>
<!-- Node17&#45;&gt;Node31 -->
<g id="edge25" class="edge">
<title>Node17&#45;&gt;Node31</title>
<path fill="none" stroke="#63b8ff" d="M3234.18,-137.86C3288.23,-130.47 3353.01,-117.4 3370,-96 3388.25,-73.02 3356.39,-46.43 3331.43,-30.43"/>
<polygon fill="#63b8ff" stroke="#63b8ff" points="3233.79,-134.38 3224.33,-139.15 3234.7,-141.32 3233.79,-134.38"/>
</g>
<!-- Node32 -->
<g id="node26" class="node">
<title>Node32</title>
<g id="a_node26"><a xlink:href="d__msg__scrn__place_8cpp.html" target="_top" xlink:title=" ">
<polygon fill="white" stroke="#666666" points="3487,-30 3381,-30 3381,0 3487,0 3487,-30"/>
<text text-anchor="start" x="3389" y="-18" font-family="Helvetica,sans-Serif" font-size="10.00">src/msg/scrn/d_msg</text>
<text text-anchor="middle" x="3434" y="-7" font-family="Helvetica,sans-Serif" font-size="10.00">_scrn_place.cpp</text>
</a>
</g>
</g>
<!-- Node17&#45;&gt;Node32 -->
<g id="edge26" class="edge">
<title>Node17&#45;&gt;Node32</title>
<path fill="none" stroke="#63b8ff" d="M3234.18,-144.37C3282,-139.84 3342,-127.53 3386,-96 3408.91,-79.58 3422.85,-48.53 3429.43,-30.31"/>
<polygon fill="#63b8ff" stroke="#63b8ff" points="3234.11,-140.86 3224.44,-145.19 3234.7,-147.84 3234.11,-140.86"/>
</g>
<!-- Node33 -->
<g id="node27" class="node">
<title>Node33</title>
<g id="a_node27"><a xlink:href="d__msg__scrn__staff_8cpp.html" target="_top" xlink:title=" ">
<polygon fill="white" stroke="#666666" points="2813,-30 2707,-30 2707,0 2813,0 2813,-30"/>
<text text-anchor="start" x="2715" y="-18" font-family="Helvetica,sans-Serif" font-size="10.00">src/msg/scrn/d_msg</text>
<text text-anchor="middle" x="2760" y="-7" font-family="Helvetica,sans-Serif" font-size="10.00">_scrn_staff.cpp</text>
</a>
</g>
</g>
<!-- Node17&#45;&gt;Node33 -->
<g id="edge27" class="edge">
<title>Node17&#45;&gt;Node33</title>
<path fill="none" stroke="#63b8ff" d="M3076.07,-132.05C3004.33,-126.19 2737.91,-124.58 2712,-96 2693.61,-75.72 2720.42,-47.35 2740.77,-30.41"/>
<polygon fill="#63b8ff" stroke="#63b8ff" points="3075.28,-135.48 3085.59,-133.04 3076.01,-128.52 3075.28,-135.48"/>
</g>
<!-- Node34 -->
<g id="node28" class="node">
<title>Node34</title>
<g id="a_node28"><a xlink:href="d__msg__scrn__tree_8cpp.html" target="_top" xlink:title=" ">
<polygon fill="white" stroke="#666666" points="2937,-30 2831,-30 2831,0 2937,0 2937,-30"/>
<text text-anchor="start" x="2839" y="-18" font-family="Helvetica,sans-Serif" font-size="10.00">src/msg/scrn/d_msg</text>
<text text-anchor="middle" x="2884" y="-7" font-family="Helvetica,sans-Serif" font-size="10.00">_scrn_tree.cpp</text>
</a>
</g>
</g>
<!-- Node17&#45;&gt;Node34 -->
<g id="edge28" class="edge">
<title>Node17&#45;&gt;Node34</title>
<path fill="none" stroke="#63b8ff" d="M3076.34,-131.36C3003.92,-117.73 2907.21,-99.06 2904,-96 2886.07,-78.92 2883.24,-48.39 2883.29,-30.39"/>
<polygon fill="#63b8ff" stroke="#63b8ff" points="3075.32,-134.73 3085.8,-133.14 3076.61,-127.85 3075.32,-134.73"/>
</g>
<!-- Node18&#45;&gt;Node12 -->
<g id="edge18" class="edge">
<title>Node18&#45;&gt;Node12</title>
<path fill="none" stroke="#63b8ff" d="M2342.14,-73.29C2195.31,-60.79 1882.14,-34.14 1740.82,-22.11"/>
<polygon fill="#63b8ff" stroke="#63b8ff" points="2341.5,-76.75 2351.76,-74.11 2342.1,-69.77 2341.5,-76.75"/>
</g>
<!-- Node36 -->
<g id="node30" class="node">
<title>Node36</title>
<g id="a_node30"><a xlink:href="J2DPicture_8h.html" target="_top" xlink:title=" ">
<polygon fill="#fff0f0" stroke="red" points="1572.5,-96 1437.5,-96 1437.5,-66 1572.5,-66 1572.5,-96"/>
<text text-anchor="start" x="1445.5" y="-84" font-family="Helvetica,sans-Serif" font-size="10.00">include/JSystem/J2DGraph</text>
<text text-anchor="middle" x="1505" y="-73" font-family="Helvetica,sans-Serif" font-size="10.00">/J2DPicture.h</text>
</a>
</g>
</g>
<!-- Node35&#45;&gt;Node36 -->
<g id="edge30" class="edge">
<title>Node35&#45;&gt;Node36</title>
<path fill="none" stroke="#63b8ff" d="M1316.19,-128.84C1357.07,-118.7 1408.24,-106 1446.99,-96.39"/>
<polygon fill="#63b8ff" stroke="#63b8ff" points="1315.55,-125.39 1306.69,-131.19 1317.24,-132.18 1315.55,-125.39"/>
</g>
<!-- Node253 -->
<g id="node31" class="node">
<title>Node253</title>
<g id="a_node31"><a xlink:href="J2DScreen_8h.html" target="_top" xlink:title=" ">
<polygon fill="#fff0f0" stroke="red" points="2855.5,-96 2720.5,-96 2720.5,-66 2855.5,-66 2855.5,-96"/>
<text text-anchor="start" x="2728.5" y="-84" font-family="Helvetica,sans-Serif" font-size="10.00">include/JSystem/J2DGraph</text>
<text text-anchor="middle" x="2788" y="-73" font-family="Helvetica,sans-Serif" font-size="10.00">/J2DScreen.h</text>
</a>
</g>
</g>
<!-- Node35&#45;&gt;Node253 -->
<g id="edge32" class="edge">
<title>Node35&#45;&gt;Node253</title>
<path fill="none" stroke="#63b8ff" d="M1326.11,-135.43C1338.12,-134.09 1350.37,-132.89 1362,-132 1865.67,-93.44 1993.26,-116.18 2498,-96 2574.05,-92.96 2661.28,-88.63 2720.04,-85.6"/>
<polygon fill="#63b8ff" stroke="#63b8ff" points="1325.74,-131.95 1316.21,-136.56 1326.54,-138.9 1325.74,-131.95"/>
</g>
<!-- Node259 -->
<g id="node32" class="node">
<title>Node259</title>
<g id="a_node32"><a xlink:href="J2DTextBox_8h.html" target="_top" xlink:title=" ">
<polygon fill="#fff0f0" stroke="red" points="1419.5,-96 1284.5,-96 1284.5,-66 1419.5,-66 1419.5,-96"/>
<text text-anchor="start" x="1292.5" y="-84" font-family="Helvetica,sans-Serif" font-size="10.00">include/JSystem/J2DGraph</text>
<text text-anchor="middle" x="1352" y="-73" font-family="Helvetica,sans-Serif" font-size="10.00">/J2DTextBox.h</text>
</a>
</g>
</g>
<!-- Node35&#45;&gt;Node259 -->
<g id="edge42" class="edge">
<title>Node35&#45;&gt;Node259</title>
<path fill="none" stroke="#63b8ff" d="M1279.96,-125.91C1295.71,-116.31 1314.21,-105.03 1328.51,-96.31"/>
<polygon fill="#63b8ff" stroke="#63b8ff" points="1278.57,-122.66 1271.86,-130.85 1282.22,-128.63 1278.57,-122.66"/>
</g>
<!-- Node267 -->
<g id="node33" class="node">
<title>Node267</title>
<g id="a_node33"><a xlink:href="J2DWindow_8h.html" target="_top" xlink:title=" ">
<polygon fill="#fff0f0" stroke="red" points="1725.5,-96 1590.5,-96 1590.5,-66 1725.5,-66 1725.5,-96"/>
<text text-anchor="start" x="1598.5" y="-84" font-family="Helvetica,sans-Serif" font-size="10.00">include/JSystem/J2DGraph</text>
<text text-anchor="middle" x="1658" y="-73" font-family="Helvetica,sans-Serif" font-size="10.00">/J2DWindow.h</text>
</a>
</g>
</g>
<!-- Node35&#45;&gt;Node267 -->
<g id="edge48" class="edge">
<title>Node35&#45;&gt;Node267</title>
<path fill="none" stroke="#63b8ff" d="M1325.98,-132.48C1327,-132.32 1328,-132.16 1329,-132 1440.77,-114.48 1469.32,-114.12 1581,-96 1583.95,-95.52 1586.96,-95.02 1590,-94.51"/>
<polygon fill="#63b8ff" stroke="#63b8ff" points="1325.8,-128.96 1316.48,-134 1326.91,-135.87 1325.8,-128.96"/>
</g>
<!-- Node36&#45;&gt;Node12 -->
<g id="edge31" class="edge">
<title>Node36&#45;&gt;Node12</title>
<path fill="none" stroke="#63b8ff" d="M1552.31,-61.54C1583.06,-49.54 1621.79,-34.43 1645.97,-24.99"/>
<polygon fill="#63b8ff" stroke="#63b8ff" points="1551.26,-58.19 1543.21,-65.09 1553.8,-64.71 1551.26,-58.19"/>
</g>
<!-- Node253&#45;&gt;Node12 -->
<g id="edge35" class="edge">
<title>Node253&#45;&gt;Node12</title>
<path fill="none" stroke="#63b8ff" d="M2709.06,-75.5C2555.67,-66.74 2206.62,-46.81 1913,-30 1855.07,-26.68 1789.41,-22.91 1740.8,-20.12"/>
<polygon fill="#63b8ff" stroke="#63b8ff" points="2708.51,-78.97 2718.69,-76.05 2708.91,-71.98 2708.51,-78.97"/>
</g>
<!-- Node253&#45;&gt;Node15 -->
<g id="edge38" class="edge">
<title>Node253&#45;&gt;Node15</title>
<path fill="none" stroke="#63b8ff" d="M2709.07,-73.79C2544.37,-60.82 2167.83,-31.18 2028.3,-20.2"/>
<polygon fill="#63b8ff" stroke="#63b8ff" points="2708.33,-77.24 2718.57,-74.53 2708.88,-70.26 2708.33,-77.24"/>
</g>
<!-- Node253&#45;&gt;Node26 -->
<g id="edge33" class="edge">
<title>Node253&#45;&gt;Node26</title>
<path fill="none" stroke="#63b8ff" d="M2741.27,-61.54C2710.89,-49.54 2672.64,-34.43 2648.75,-24.99"/>
<polygon fill="#63b8ff" stroke="#63b8ff" points="2739.65,-64.66 2750.24,-65.08 2742.22,-58.15 2739.65,-64.66"/>
</g>
<!-- Node253&#45;&gt;Node27 -->
<g id="edge34" class="edge">
<title>Node253&#45;&gt;Node27</title>
<path fill="none" stroke="#63b8ff" d="M2854.64,-62.73C2894.31,-52.45 2943.99,-39.58 2981.16,-29.95"/>
<polygon fill="#63b8ff" stroke="#63b8ff" points="2854.01,-59.28 2845.2,-65.18 2855.76,-66.06 2854.01,-59.28"/>
</g>
<!-- Node253&#45;&gt;Node30 -->
<g id="edge36" class="edge">
<title>Node253&#45;&gt;Node30</title>
<path fill="none" stroke="#63b8ff" d="M2866.79,-67.74C2929.48,-57.87 3019.44,-43.48 3098,-30 3105.63,-28.69 3113.68,-27.27 3121.59,-25.85"/>
<polygon fill="#63b8ff" stroke="#63b8ff" points="2866.63,-64.22 2857.29,-69.23 2867.71,-71.13 2866.63,-64.22"/>
</g>
<!-- Node253&#45;&gt;Node31 -->
<g id="edge37" class="edge">
<title>Node253&#45;&gt;Node31</title>
<path fill="none" stroke="#63b8ff" d="M2867.02,-70.33C2879.39,-68.85 2892.04,-67.37 2904,-66 3051.9,-49.08 3089.9,-52.82 3237,-30 3242.07,-29.21 3247.34,-28.31 3252.6,-27.34"/>
<polygon fill="#63b8ff" stroke="#63b8ff" points="2866.78,-66.83 2857.27,-71.5 2867.61,-73.78 2866.78,-66.83"/>
</g>
<!-- Node253&#45;&gt;Node32 -->
<g id="edge39" class="edge">
<title>Node253&#45;&gt;Node32</title>
<path fill="none" stroke="#63b8ff" d="M2866.99,-70.01C2879.37,-68.58 2892.02,-67.19 2904,-66 3109.83,-45.6 3163.28,-59.52 3368,-30 3372.17,-29.4 3376.48,-28.69 3380.8,-27.91"/>
<polygon fill="#63b8ff" stroke="#63b8ff" points="2866.75,-66.51 2857.23,-71.16 2867.57,-73.46 2866.75,-66.51"/>
</g>
<!-- Node253&#45;&gt;Node33 -->
<g id="edge40" class="edge">
<title>Node253&#45;&gt;Node33</title>
<path fill="none" stroke="#63b8ff" d="M2777.17,-55.25C2773.45,-46.75 2769.42,-37.53 2766.2,-30.16"/>
<polygon fill="#63b8ff" stroke="#63b8ff" points="2773.96,-56.65 2781.18,-64.41 2780.38,-53.85 2773.96,-56.65"/>
</g>
<!-- Node253&#45;&gt;Node34 -->
<g id="edge41" class="edge">
<title>Node253&#45;&gt;Node34</title>
<path fill="none" stroke="#63b8ff" d="M2818.71,-59.52C2832.95,-50.03 2849.53,-38.98 2862.42,-30.39"/>
<polygon fill="#63b8ff" stroke="#63b8ff" points="2816.94,-56.5 2810.56,-64.96 2820.83,-62.32 2816.94,-56.5"/>
</g>
<!-- Node259&#45;&gt;Node4 -->
<g id="edge44" class="edge">
<title>Node259&#45;&gt;Node4</title>
<path fill="none" stroke="#63b8ff" d="M1307.7,-61.22C1279.51,-49.27 1244.28,-34.34 1222.2,-24.99"/>
<polygon fill="#63b8ff" stroke="#63b8ff" points="1306.15,-64.37 1316.72,-65.05 1308.88,-57.92 1306.15,-64.37"/>
</g>
<!-- Node259&#45;&gt;Node8 -->
<g id="edge45" class="edge">
<title>Node259&#45;&gt;Node8</title>
<path fill="none" stroke="#63b8ff" d="M1348.03,-54.59C1346.38,-44.06 1344.58,-32.53 1343.38,-24.84"/>
<polygon fill="#63b8ff" stroke="#63b8ff" points="1344.55,-54.96 1349.55,-64.3 1351.46,-53.88 1344.55,-54.96"/>
</g>
<!-- Node259&#45;&gt;Node10 -->
<g id="edge46" class="edge">
<title>Node259&#45;&gt;Node10</title>
<path fill="none" stroke="#63b8ff" d="M1397.39,-61.38C1426.57,-49.41 1463.19,-34.38 1486.1,-24.99"/>
<polygon fill="#63b8ff" stroke="#63b8ff" points="1396.33,-58.03 1388.41,-65.06 1398.99,-64.51 1396.33,-58.03"/>
</g>
<!-- Node259&#45;&gt;Node12 -->
<g id="edge47" class="edge">
<title>Node259&#45;&gt;Node12</title>
<path fill="none" stroke="#63b8ff" d="M1430.79,-64.09C1492.05,-51.73 1574.77,-35.02 1624.88,-24.91"/>
<polygon fill="#63b8ff" stroke="#63b8ff" points="1430.21,-60.64 1421.1,-66.05 1431.59,-67.5 1430.21,-60.64"/>
</g>
<!-- Node259&#45;&gt;Node26 -->
<g id="edge43" class="edge">
<title>Node259&#45;&gt;Node26</title>
<path fill="none" stroke="#63b8ff" d="M1431.28,-65.75C1869.39,-18.43 1984.31,-52.94 2422,-30 2469.33,-27.52 2522.77,-23.82 2563.08,-20.85"/>
<polygon fill="#63b8ff" stroke="#63b8ff" points="1430.95,-62.26 1421.39,-66.82 1431.71,-69.22 1430.95,-62.26"/>
</g>
<!-- Node267&#45;&gt;Node12 -->
<g id="edge49" class="edge">
<title>Node267&#45;&gt;Node12</title>
<path fill="none" stroke="#63b8ff" d="M1662.37,-54.59C1664.18,-44.06 1666.16,-32.53 1667.48,-24.84"/>
<polygon fill="#63b8ff" stroke="#63b8ff" points="1658.94,-53.86 1660.7,-64.3 1665.84,-55.04 1658.94,-53.86"/>
</g>
<!-- Node273&#45;&gt;Node286 -->
<g id="edge51" class="edge">
<title>Node273&#45;&gt;Node286</title>
<path fill="none" stroke="#63b8ff" d="M1517.9,-132.53C1518.94,-132.35 1519.97,-132.17 1521,-132 1615.65,-115.92 1639.43,-112.59 1734,-96 1737.08,-95.46 1740.22,-94.9 1743.4,-94.34"/>
<polygon fill="#63b8ff" stroke="#63b8ff" points="1517.33,-129.07 1508.06,-134.2 1518.51,-135.97 1517.33,-129.07"/>
</g>
<!-- Node401&#45;&gt;Node402 -->
<g id="edge54" class="edge">
<title>Node401&#45;&gt;Node402</title>
<path fill="none" stroke="#63b8ff" d="M2631.05,-131.84C2448.13,-105.88 2245.01,-92.04 2137.59,-85.9"/>
<polygon fill="#63b8ff" stroke="#63b8ff" points="2630.34,-135.27 2640.73,-133.23 2631.33,-128.34 2630.34,-135.27"/>
</g>
<!-- Node570&#45;&gt;Node8 -->
<g id="edge66" class="edge">
<title>Node570&#45;&gt;Node8</title>
<path fill="none" stroke="#63b8ff" d="M1223.4,-66.6C1252.83,-54.04 1295.99,-35.63 1321.32,-24.82"/>
<polygon fill="#63b8ff" stroke="#63b8ff" points="1222.07,-63.36 1214.25,-70.51 1224.82,-69.8 1222.07,-63.36"/>
</g>
<!-- Node570&#45;&gt;Node9 -->
<g id="edge67" class="edge">
<title>Node570&#45;&gt;Node9</title>
<path fill="none" stroke="#63b8ff" d="M1163.77,-66.1C1138.29,-53.56 1101.58,-35.49 1079.92,-24.82"/>
<polygon fill="#63b8ff" stroke="#63b8ff" points="1162.05,-69.16 1172.57,-70.43 1165.14,-62.88 1162.05,-69.16"/>
</g>
<!-- Node570&#45;&gt;Node10 -->
<g id="edge68" class="edge">
<title>Node570&#45;&gt;Node10</title>
<path fill="none" stroke="#63b8ff" d="M1247.32,-68.8C1308.88,-56.33 1407.11,-36.43 1463.77,-24.96"/>
<polygon fill="#63b8ff" stroke="#63b8ff" points="1246.86,-65.32 1237.75,-70.73 1248.25,-72.18 1246.86,-65.32"/>
</g>
<!-- Node570&#45;&gt;Node12 -->
<g id="edge69" class="edge">
<title>Node570&#45;&gt;Node12</title>
<path fill="none" stroke="#63b8ff" d="M1253.63,-69.23C1260.82,-68.09 1268.07,-66.98 1275,-66 1413.64,-46.35 1449.4,-49.93 1588,-30 1598.31,-28.52 1609.33,-26.74 1619.81,-24.96"/>
<polygon fill="#63b8ff" stroke="#63b8ff" points="1253.21,-65.76 1243.9,-70.82 1254.34,-72.67 1253.21,-65.76"/>
</g>
<!-- Node570&#45;&gt;Node186 -->
<g id="edge65" class="edge">
<title>Node570&#45;&gt;Node186</title>
<path fill="none" stroke="#63b8ff" d="M1250.37,-69.24C1258.62,-67.99 1267.01,-66.85 1275,-66 1301.05,-63.21 2098.46,-27.7 2310.59,-18.28"/>
<polygon fill="#63b8ff" stroke="#63b8ff" points="1250.09,-65.74 1240.76,-70.77 1251.19,-72.66 1250.09,-65.74"/>
</g>
</g>
</svg>
