<?xml version="1.0" encoding="UTF-8" standalone="no"?>
<!DOCTYPE svg PUBLIC "-//W3C//DTD SVG 1.1//EN"
 "http://www.w3.org/Graphics/SVG/1.1/DTD/svg11.dtd">
<!-- Generated by graphviz version 7.0.5 (20221223.1930)
 -->
<!-- Title: include/MSL_C/MSL_Common/Src/strtoul.h Pages: 1 -->
<!--zoomable 170 -->
<svg id="main" version="1.1" xmlns="http://www.w3.org/2000/svg" xmlns:xlink="http://www.w3.org/1999/xlink" xml:space="preserve" onload="init(evt)">
<style type="text/css"><![CDATA[
.edge:hover path { stroke: red; }
.edge:hover polygon { stroke: red; fill: red; }
]]></style>
<script type="text/javascript"><![CDATA[
var edges = document.getElementsByTagName('g');
if (edges && edges.length) {
  for (var i=0;i<edges.length;i++) {
    if (edges[i].id.substr(0,4)=='edge') {
      edges[i].setAttribute('class','edge');
    }
  }
}
]]></script>
        <defs>
                <circle id="rim" cx="0" cy="0" r="7"/>
                <circle id="rim2" cx="0" cy="0" r="3.5"/>
                <g id="zoomPlus">
                        <use xlink:href="#rim" fill="#404040">
                                <set attributeName="fill" to="#808080" begin="zoomplus.mouseover" end="zoomplus.mouseout"/>
                        </use>
                        <path d="M-4,0h8M0,-4v8" fill="none" stroke="white" stroke-width="1.5" pointer-events="none"/>
                </g>
                <g id="zoomMin">
                        <use xlink:href="#rim" fill="#404040">
                                <set attributeName="fill" to="#808080" begin="zoomminus.mouseover" end="zoomminus.mouseout"/>
                        </use>
                        <path d="M-4,0h8" fill="none" stroke="white" stroke-width="1.5" pointer-events="none"/>
                </g>
                <g id="dirArrow">
                        <path fill="none" stroke="white" stroke-width="1.5" d="M0,-3.0v7 M-2.5,-0.5L0,-3.0L2.5,-0.5"/>
                </g>
               <g id="resetDef">
                       <use xlink:href="#rim2" fill="#404040">
                               <set attributeName="fill" to="#808080" begin="reset.mouseover" end="reset.mouseout"/>
                       </use>
               </g>
        </defs>

<script type="text/javascript">
var viewWidth = 797;
var viewHeight = 170;
var sectionId = 'dynsection-0';
</script>
<script xlink:href="svgpan.js"/>
<svg id="graph" class="graph">
<g id="viewport">
<title>include/MSL_C/MSL_Common/Src/strtoul.h</title>
<!-- Node1 -->
<g id="node1" class="node">
<title>Node1</title>
<g id="a_node1"><a xlink:title=" ">
<polygon fill="#999999" stroke="#666666" points="549.5,-162 397.5,-162 397.5,-132 549.5,-132 549.5,-162"/>
<text text-anchor="start" x="405.5" y="-150" font-family="Helvetica,sans-Serif" font-size="10.00">include/MSL_C/MSL_Common</text>
<text text-anchor="middle" x="473.5" y="-139" font-family="Helvetica,sans-Serif" font-size="10.00">/Src/strtoul.h</text>
</a>
</g>
</g>
<!-- Node2 -->
<g id="node2" class="node">
<title>Node2</title>
<g id="a_node2"><a xlink:href="stdlib_8h.html" target="_top" xlink:title=" ">
<polygon fill="white" stroke="#666666" points="460,-90.5 343,-90.5 343,-71.5 460,-71.5 460,-90.5"/>
<text text-anchor="middle" x="401.5" y="-78.5" font-family="Helvetica,sans-Serif" font-size="10.00">include/MSL_C/stdlib.h</text>
</a>
</g>
</g>
<!-- Node1&#45;&gt;Node2 -->
<g id="edge1" class="edge">
<title>Node1&#45;&gt;Node2</title>
<path fill="none" stroke="#63b8ff" d="M449.06,-124.27C436.19,-112.84 421.12,-99.44 411.45,-90.84"/>
<polygon fill="#63b8ff" stroke="#63b8ff" points="446.59,-126.76 456.39,-130.79 451.24,-121.53 446.59,-126.76"/>
</g>
<!-- Node9 -->
<g id="node9" class="node">
<title>Node9</title>
<g id="a_node9"><a xlink:href="strtoul_8c.html" target="_top" xlink:title=" ">
<polygon fill="white" stroke="#666666" points="614.5,-96 478.5,-96 478.5,-66 614.5,-66 614.5,-96"/>
<text text-anchor="start" x="486.5" y="-84" font-family="Helvetica,sans-Serif" font-size="10.00">libs/MSL_C/MSL_Common</text>
<text text-anchor="middle" x="546.5" y="-73" font-family="Helvetica,sans-Serif" font-size="10.00">/Src/strtoul.c</text>
</a>
</g>
</g>
<!-- Node1&#45;&gt;Node9 -->
<g id="edge8" class="edge">
<title>Node1&#45;&gt;Node9</title>
<path fill="none" stroke="#63b8ff" d="M498.11,-124.42C508.65,-115.18 520.67,-104.65 530.09,-96.39"/>
<polygon fill="#63b8ff" stroke="#63b8ff" points="496.05,-121.57 490.84,-130.8 500.67,-126.84 496.05,-121.57"/>
</g>
<!-- Node3 -->
<g id="node3" class="node">
<title>Node3</title>
<g id="a_node3"><a xlink:href="J2DPrint_8cpp.html" target="_top" xlink:title=" ">
<polygon fill="white" stroke="#666666" points="119,-30 0,-30 0,0 119,0 119,-30"/>
<text text-anchor="start" x="8" y="-18" font-family="Helvetica,sans-Serif" font-size="10.00">libs/JSystem/J2DGraph</text>
<text text-anchor="middle" x="59.5" y="-7" font-family="Helvetica,sans-Serif" font-size="10.00">/J2DPrint.cpp</text>
</a>
</g>
</g>
<!-- Node2&#45;&gt;Node3 -->
<g id="edge2" class="edge">
<title>Node2&#45;&gt;Node3</title>
<path fill="none" stroke="#63b8ff" d="M339.36,-69.07C283.77,-59.2 200.11,-44.1 127.5,-30 124.78,-29.47 122,-28.93 119.19,-28.37"/>
<polygon fill="#63b8ff" stroke="#63b8ff" points="338.48,-72.47 348.94,-70.77 339.71,-65.58 338.48,-72.47"/>
</g>
<!-- Node4 -->
<g id="node4" class="node">
<title>Node4</title>
<g id="a_node4"><a xlink:href="JAUSectionHeap_8cpp.html" target="_top" xlink:title=" ">
<polygon fill="white" stroke="#666666" points="250,-30 137,-30 137,0 250,0 250,-30"/>
<text text-anchor="start" x="145" y="-18" font-family="Helvetica,sans-Serif" font-size="10.00">libs/JSystem/JAudio2</text>
<text text-anchor="middle" x="193.5" y="-7" font-family="Helvetica,sans-Serif" font-size="10.00">/JAUSectionHeap.cpp</text>
</a>
</g>
</g>
<!-- Node2&#45;&gt;Node4 -->
<g id="edge3" class="edge">
<title>Node2&#45;&gt;Node4</title>
<path fill="none" stroke="#63b8ff" d="M361.95,-67.83C327.39,-57.2 277.16,-41.74 240.55,-30.48"/>
<polygon fill="#63b8ff" stroke="#63b8ff" points="360.54,-71.06 371.13,-70.66 362.6,-64.37 360.54,-71.06"/>
</g>
<!-- Node5 -->
<g id="node5" class="node">
<title>Node5</title>
<g id="a_node5"><a xlink:href="functionvalue_8cpp.html" target="_top" xlink:title=" ">
<polygon fill="white" stroke="#666666" points="399,-30 268,-30 268,0 399,0 399,-30"/>
<text text-anchor="start" x="276" y="-18" font-family="Helvetica,sans-Serif" font-size="10.00">libs/JSystem/JStudio</text>
<text text-anchor="middle" x="333.5" y="-7" font-family="Helvetica,sans-Serif" font-size="10.00">/JStudio/functionvalue.cpp</text>
</a>
</g>
</g>
<!-- Node2&#45;&gt;Node5 -->
<g id="edge4" class="edge">
<title>Node2&#45;&gt;Node5</title>
<path fill="none" stroke="#63b8ff" d="M383.77,-63.31C372.94,-53.12 359.25,-40.23 348.88,-30.48"/>
<polygon fill="#63b8ff" stroke="#63b8ff" points="381.26,-65.76 390.94,-70.06 386.06,-60.66 381.26,-65.76"/>
</g>
<!-- Node6 -->
<g id="node6" class="node">
<title>Node6</title>
<g id="a_node6"><a xlink:href="JUTException_8cpp.html" target="_top" xlink:title=" ">
<polygon fill="white" stroke="#666666" points="523.5,-30 417.5,-30 417.5,0 523.5,0 523.5,-30"/>
<text text-anchor="start" x="425.5" y="-18" font-family="Helvetica,sans-Serif" font-size="10.00">libs/JSystem/JUtility</text>
<text text-anchor="middle" x="470.5" y="-7" font-family="Helvetica,sans-Serif" font-size="10.00">/JUTException.cpp</text>
</a>
</g>
</g>
<!-- Node2&#45;&gt;Node6 -->
<g id="edge5" class="edge">
<title>Node2&#45;&gt;Node6</title>
<path fill="none" stroke="#63b8ff" d="M419.49,-63.31C430.48,-53.12 444.38,-40.23 454.89,-30.48"/>
<polygon fill="#63b8ff" stroke="#63b8ff" points="417.16,-60.71 412.2,-70.07 421.92,-65.84 417.16,-60.71"/>
</g>
<!-- Node7 -->
<g id="node7" class="node">
<title>Node7</title>
<g id="a_node7"><a xlink:href="Z2AudioMgr_8cpp.html" target="_top" xlink:title=" ">
<polygon fill="white" stroke="#666666" points="699.5,-24.5 541.5,-24.5 541.5,-5.5 699.5,-5.5 699.5,-24.5"/>
<text text-anchor="middle" x="620.5" y="-12.5" font-family="Helvetica,sans-Serif" font-size="10.00">libs/Z2AudioLib/Z2AudioMgr.cpp</text>
</a>
</g>
</g>
<!-- Node2&#45;&gt;Node7 -->
<g id="edge6" class="edge">
<title>Node2&#45;&gt;Node7</title>
<path fill="none" stroke="#63b8ff" d="M442.84,-67.92C485.68,-55.4 551.61,-36.13 589.96,-24.93"/>
<polygon fill="#63b8ff" stroke="#63b8ff" points="442.02,-64.51 433.4,-70.68 443.98,-71.23 442.02,-64.51"/>
</g>
<!-- Node8 -->
<g id="node8" class="node">
<title>Node8</title>
<g id="a_node8"><a xlink:href="____start_8c.html" target="_top" xlink:title=" ">
<polygon fill="white" stroke="#666666" points="789,-24.5 718,-24.5 718,-5.5 789,-5.5 789,-24.5"/>
<text text-anchor="middle" x="753.5" y="-12.5" font-family="Helvetica,sans-Serif" font-size="10.00">src/__start.c</text>
</a>
</g>
</g>
<!-- Node2&#45;&gt;Node8 -->
<g id="edge7" class="edge">
<title>Node2&#45;&gt;Node8</title>
<path fill="none" stroke="#63b8ff" d="M454.3,-68.84C459.43,-67.84 464.56,-66.88 469.5,-66 575.26,-47.16 603.8,-54.02 708.5,-30 714.56,-28.61 720.99,-26.81 727.03,-24.97"/>
<polygon fill="#63b8ff" stroke="#63b8ff" points="453.76,-65.38 444.63,-70.76 455.12,-72.25 453.76,-65.38"/>
</g>
</g>
</svg>
        <g id="navigator" transform="translate(0 0)" fill="#404254">
                <rect fill="#f2f5e9" fill-opacity="0.5" stroke="#606060" stroke-width=".5" x="0" y="0" width="60" height="60"/>
                <use id="zoomplus" xlink:href="#zoomPlus" x="17" y="9" onmousedown="handleZoom(evt,'in')"/>
                <use id="zoomminus" xlink:href="#zoomMin" x="42" y="9" onmousedown="handleZoom(evt,'out')"/>
                <use id="reset" xlink:href="#resetDef" x="30" y="36" onmousedown="handleReset()"/>
                <g id="arrowUp" xlink:href="#dirArrow" transform="translate(30 24)" onmousedown="handlePan(0,-1)">
                  <use xlink:href="#rim" fill="#404040">
                        <set attributeName="fill" to="#808080" begin="arrowUp.mouseover" end="arrowUp.mouseout"/>
                  </use>
                  <path fill="none" stroke="white" stroke-width="1.5" d="M0,-3.0v7 M-2.5,-0.5L0,-3.0L2.5,-0.5"/>
                </g>
                <g id="arrowRight" xlink:href="#dirArrow" transform="rotate(90) translate(36 -43)" onmousedown="handlePan(1,0)">
                  <use xlink:href="#rim" fill="#404040">
                        <set attributeName="fill" to="#808080" begin="arrowRight.mouseover" end="arrowRight.mouseout"/>
                  </use>
                  <path fill="none" stroke="white" stroke-width="1.5" d="M0,-3.0v7 M-2.5,-0.5L0,-3.0L2.5,-0.5"/>
                </g>
                <g id="arrowDown" xlink:href="#dirArrow" transform="rotate(180) translate(-30 -48)" onmousedown="handlePan(0,1)">
                  <use xlink:href="#rim" fill="#404040">
                        <set attributeName="fill" to="#808080" begin="arrowDown.mouseover" end="arrowDown.mouseout"/>
                  </use>
                  <path fill="none" stroke="white" stroke-width="1.5" d="M0,-3.0v7 M-2.5,-0.5L0,-3.0L2.5,-0.5"/>
                </g>
                <g id="arrowLeft" xlink:href="#dirArrow" transform="rotate(270) translate(-36 17)" onmousedown="handlePan(-1,0)">
                  <use xlink:href="#rim" fill="#404040">
                        <set attributeName="fill" to="#808080" begin="arrowLeft.mouseover" end="arrowLeft.mouseout"/>
                  </use>
                  <path fill="none" stroke="white" stroke-width="1.5" d="M0,-3.0v7 M-2.5,-0.5L0,-3.0L2.5,-0.5"/>
                </g>
        </g>
        <svg viewBox="0 0 15 15" width="100%" height="30px" preserveAspectRatio="xMaxYMin meet">
         <g id="arrow_out" transform="scale(0.3 0.3)">
          <a xlink:href="strtoul_8h__dep__incl_org.svg" target="_base">
           <rect id="button" ry="5" rx="5" y="6" x="6" height="38" width="38"
                fill="#f2f5e9" fill-opacity="0.5" stroke="#606060" stroke-width="1.0"/>
           <path id="arrow"
             d="M 11.500037,31.436501 C 11.940474,20.09759 22.043105,11.32322 32.158766,21.979434 L 37.068811,17.246167 C 37.068811,17.246167 37.088388,32 37.088388,32 L 22.160133,31.978069 C 22.160133,31.978069 26.997745,27.140456 26.997745,27.140456 C 18.528582,18.264221 13.291696,25.230495 11.500037,31.436501 z"
             style="fill:#404040;"/>
          </a>
         </g>
        </svg>
</svg>
