<?xml version="1.0" encoding="UTF-8" standalone="no"?>
<!DOCTYPE svg PUBLIC "-//W3C//DTD SVG 1.1//EN"
 "http://www.w3.org/Graphics/SVG/1.1/DTD/svg11.dtd">
<!-- Generated by graphviz version 7.0.5 (20221223.1930)
 -->
<!-- Title: JASAramStream Pages: 1 -->
<!--zoomable 258 -->
<svg id="main" version="1.1" xmlns="http://www.w3.org/2000/svg" xmlns:xlink="http://www.w3.org/1999/xlink" xml:space="preserve" onload="init(evt)">
<style type="text/css"><![CDATA[
.edge:hover path { stroke: red; }
.edge:hover polygon { stroke: red; fill: red; }
]]></style>
<script type="text/javascript"><![CDATA[
var edges = document.getElementsByTagName('g');
if (edges && edges.length) {
  for (var i=0;i<edges.length;i++) {
    if (edges[i].id.substr(0,4)=='edge') {
      edges[i].setAttribute('class','edge');
    }
  }
}
]]></script>
        <defs>
                <circle id="rim" cx="0" cy="0" r="7"/>
                <circle id="rim2" cx="0" cy="0" r="3.5"/>
                <g id="zoomPlus">
                        <use xlink:href="#rim" fill="#404040">
                                <set attributeName="fill" to="#808080" begin="zoomplus.mouseover" end="zoomplus.mouseout"/>
                        </use>
                        <path d="M-4,0h8M0,-4v8" fill="none" stroke="white" stroke-width="1.5" pointer-events="none"/>
                </g>
                <g id="zoomMin">
                        <use xlink:href="#rim" fill="#404040">
                                <set attributeName="fill" to="#808080" begin="zoomminus.mouseover" end="zoomminus.mouseout"/>
                        </use>
                        <path d="M-4,0h8" fill="none" stroke="white" stroke-width="1.5" pointer-events="none"/>
                </g>
                <g id="dirArrow">
                        <path fill="none" stroke="white" stroke-width="1.5" d="M0,-3.0v7 M-2.5,-0.5L0,-3.0L2.5,-0.5"/>
                </g>
               <g id="resetDef">
                       <use xlink:href="#rim2" fill="#404040">
                               <set attributeName="fill" to="#808080" begin="reset.mouseover" end="reset.mouseout"/>
                       </use>
               </g>
        </defs>

<script type="text/javascript">
var viewWidth = 550;
var viewHeight = 258;
var sectionId = 'dynsection-0';
</script>
<script xlink:href="svgpan.js"/>
<svg id="graph" class="graph">
<g id="viewport">
<title>JASAramStream</title>
<!-- Node1 -->
<g id="node1" class="node">
<title>Node1</title>
<g id="a_node1"><a xlink:title=" ">
<polygon fill="#999999" stroke="#666666" points="506.16,-96 416.16,-96 416.16,-77 506.16,-77 506.16,-96"/>
<text text-anchor="middle" x="461.16" y="-84" font-family="Helvetica,sans-Serif" font-size="10.00">JASAramStream</text>
</a>
</g>
</g>
<!-- Node2 -->
<g id="node2" class="node">
<title>Node2</title>
<g id="a_node2"><a xlink:href="structOSMessageQueue.html" target="_top" xlink:title=" ">
<polygon fill="white" stroke="#666666" points="452.66,-173 353.66,-173 353.66,-154 452.66,-154 452.66,-173"/>
<text text-anchor="middle" x="403.16" y="-161" font-family="Helvetica,sans-Serif" font-size="10.00">OSMessageQueue</text>
</a>
</g>
</g>
<!-- Node2&#45;&gt;Node1 -->
<g id="edge1" class="edge">
<title>Node2&#45;&gt;Node1</title>
<path fill="none" stroke="#9a32cd" stroke-dasharray="5,2" d="M408.82,-143.12C412.23,-133.67 417.27,-122.54 424.16,-114 429.81,-106.99 437.77,-100.97 444.85,-96.44"/>
<polygon fill="#9a32cd" stroke="#9a32cd" points="405.56,-141.84 405.82,-152.43 412.22,-143.99 405.56,-141.84"/>
<text text-anchor="middle" x="449.66" y="-128" font-family="Helvetica,sans-Serif" font-size="10.00"> field_0x000</text>
<text text-anchor="middle" x="449.66" y="-117" font-family="Helvetica,sans-Serif" font-size="10.00">field_0x020</text>
</g>
<!-- Node3 -->
<g id="node3" class="node">
<title>Node3</title>
<g id="a_node3"><a xlink:href="structOSThreadQueue.html" target="_top" xlink:title=" ">
<polygon fill="white" stroke="#666666" points="330.66,-250 241.66,-250 241.66,-231 330.66,-231 330.66,-250"/>
<text text-anchor="middle" x="286.16" y="-238" font-family="Helvetica,sans-Serif" font-size="10.00">OSThreadQueue</text>
</a>
</g>
</g>
<!-- Node3&#45;&gt;Node2 -->
<g id="edge2" class="edge">
<title>Node3&#45;&gt;Node2</title>
<path fill="none" stroke="#9a32cd" stroke-dasharray="5,2" d="M309.41,-224.59C333.27,-209.3 369.6,-186.01 389.29,-173.39"/>
<polygon fill="#9a32cd" stroke="#9a32cd" points="307.84,-221.44 301.31,-229.79 311.62,-227.34 307.84,-221.44"/>
<text text-anchor="middle" x="395.66" y="-205" font-family="Helvetica,sans-Serif" font-size="10.00"> receiving_queue</text>
<text text-anchor="middle" x="395.66" y="-194" font-family="Helvetica,sans-Serif" font-size="10.00">sending_queue</text>
</g>
<!-- Node4 -->
<g id="node4" class="node">
<title>Node4</title>
<g id="a_node4"><a xlink:href="structOSThread.html" target="_top" xlink:title=" ">
<polygon fill="white" stroke="#666666" points="196.66,-173 135.66,-173 135.66,-154 196.66,-154 196.66,-173"/>
<text text-anchor="middle" x="166.16" y="-161" font-family="Helvetica,sans-Serif" font-size="10.00">OSThread</text>
</a>
</g>
</g>
<!-- Node3&#45;&gt;Node4 -->
<g id="edge5" class="edge">
<title>Node3&#45;&gt;Node4</title>
<path fill="none" stroke="#9a32cd" stroke-dasharray="5,2" d="M230.74,-231.72C217.08,-227.79 203.21,-221.88 192.16,-213 179.34,-202.71 172.01,-184.35 168.58,-173.41"/>
<polygon fill="#9a32cd" stroke="#9a32cd" points="229.57,-235.03 240.12,-234.09 231.29,-228.24 229.57,-235.03"/>
<text text-anchor="middle" x="216.66" y="-205" font-family="Helvetica,sans-Serif" font-size="10.00"> join_queue</text>
<text text-anchor="middle" x="216.66" y="-194" font-family="Helvetica,sans-Serif" font-size="10.00">queue</text>
</g>
<!-- Node7 -->
<g id="node7" class="node">
<title>Node7</title>
<g id="a_node7"><a xlink:href="structOSMutex.html" target="_top" xlink:title=" ">
<polygon fill="white" stroke="#666666" points="279.66,-96 222.66,-96 222.66,-77 279.66,-77 279.66,-96"/>
<text text-anchor="middle" x="251.16" y="-84" font-family="Helvetica,sans-Serif" font-size="10.00">OSMutex</text>
</a>
</g>
</g>
<!-- Node3&#45;&gt;Node7 -->
<g id="edge9" class="edge">
<title>Node3&#45;&gt;Node7</title>
<path fill="none" stroke="#9a32cd" stroke-dasharray="5,2" d="M291.21,-219.57C296.67,-193.55 302.34,-147.38 284.16,-114 280.22,-106.77 273.41,-100.8 267,-96.36"/>
<polygon fill="#9a32cd" stroke="#9a32cd" points="287.85,-218.58 289,-229.11 294.67,-220.16 287.85,-218.58"/>
<text text-anchor="middle" x="311.66" y="-161" font-family="Helvetica,sans-Serif" font-size="10.00"> queue</text>
</g>
<!-- Node4&#45;&gt;Node3 -->
<g id="edge3" class="edge">
<title>Node4&#45;&gt;Node3</title>
<path fill="none" stroke="#9a32cd" stroke-dasharray="5,2" d="M207.68,-173.78C220.38,-177.81 233.95,-183.4 245.16,-191 260.85,-201.65 273.96,-219.88 280.88,-230.7"/>
<polygon fill="#9a32cd" stroke="#9a32cd" points="208.84,-170.48 198.26,-171.06 206.89,-177.2 208.84,-170.48"/>
<text text-anchor="middle" x="280.16" y="-205" font-family="Helvetica,sans-Serif" font-size="10.00"> head</text>
<text text-anchor="middle" x="280.16" y="-194" font-family="Helvetica,sans-Serif" font-size="10.00">tail</text>
</g>
<!-- Node6 -->
<g id="node6" class="node">
<title>Node6</title>
<g id="a_node6"><a xlink:href="structOSThreadLink.html" target="_top" xlink:title=" ">
<polygon fill="white" stroke="#666666" points="166.16,-96 86.16,-96 86.16,-77 166.16,-77 166.16,-96"/>
<text text-anchor="middle" x="126.16" y="-84" font-family="Helvetica,sans-Serif" font-size="10.00">OSThreadLink</text>
</a>
</g>
</g>
<!-- Node4&#45;&gt;Node6 -->
<g id="edge7" class="edge">
<title>Node4&#45;&gt;Node6</title>
<path fill="none" stroke="#9a32cd" stroke-dasharray="5,2" d="M124.26,-161.62C105.2,-158.85 84.25,-151.97 72.16,-136 66.25,-128.2 66.98,-122.3 72.16,-114 77.13,-106.02 85.28,-100.38 93.76,-96.42"/>
<polygon fill="#9a32cd" stroke="#9a32cd" points="123.66,-165.07 133.98,-162.67 124.41,-158.11 123.66,-165.07"/>
<text text-anchor="middle" x="82.66" y="-128" font-family="Helvetica,sans-Serif" font-size="10.00"> next</text>
<text text-anchor="middle" x="82.66" y="-117" font-family="Helvetica,sans-Serif" font-size="10.00">prev</text>
</g>
<!-- Node4&#45;&gt;Node7 -->
<g id="edge10" class="edge">
<title>Node4&#45;&gt;Node7</title>
<path fill="none" stroke="#9a32cd" stroke-dasharray="5,2" d="M207.84,-155.02C219.37,-151.1 230.96,-145.12 239.16,-136 249.13,-124.91 251.12,-106.83 251.35,-96.16"/>
<polygon fill="#9a32cd" stroke="#9a32cd" points="206.99,-151.63 198.37,-157.77 208.94,-158.35 206.99,-151.63"/>
<text text-anchor="middle" x="265.16" y="-122.5" font-family="Helvetica,sans-Serif" font-size="10.00"> thread</text>
</g>
<!-- Node5 -->
<g id="node5" class="node">
<title>Node5</title>
<g id="a_node5"><a xlink:href="structOSContext.html" target="_top" xlink:title=" ">
<polygon fill="white" stroke="#666666" points="170.16,-250 106.16,-250 106.16,-231 170.16,-231 170.16,-250"/>
<text text-anchor="middle" x="138.16" y="-238" font-family="Helvetica,sans-Serif" font-size="10.00">OSContext</text>
</a>
</g>
</g>
<!-- Node5&#45;&gt;Node4 -->
<g id="edge4" class="edge">
<title>Node5&#45;&gt;Node4</title>
<path fill="none" stroke="#9a32cd" stroke-dasharray="5,2" d="M135.23,-219.47C134.73,-210.43 135.34,-199.83 139.16,-191 142.18,-184.01 148,-177.91 153.47,-173.33"/>
<polygon fill="#9a32cd" stroke="#9a32cd" points="131.74,-219.77 136.28,-229.35 138.7,-219.03 131.74,-219.77"/>
<text text-anchor="middle" x="156.16" y="-199.5" font-family="Helvetica,sans-Serif" font-size="10.00"> context</text>
</g>
<!-- Node6&#45;&gt;Node4 -->
<g id="edge6" class="edge">
<title>Node6&#45;&gt;Node4</title>
<path fill="none" stroke="#9a32cd" stroke-dasharray="5,2" d="M105.87,-104.6C103.55,-107.49 101.53,-110.65 100.16,-114 96.46,-123.05 94.68,-127.9 100.16,-136 108.11,-147.76 122.24,-154.31 135.38,-157.94"/>
<polygon fill="#9a32cd" stroke="#9a32cd" points="108.34,-107.08 112.81,-97.48 103.33,-102.2 108.34,-107.08"/>
<text text-anchor="middle" x="143.66" y="-128" font-family="Helvetica,sans-Serif" font-size="10.00"> active_threads_link</text>
<text text-anchor="middle" x="143.66" y="-117" font-family="Helvetica,sans-Serif" font-size="10.00">link</text>
</g>
<!-- Node7&#45;&gt;Node4 -->
<g id="edge8" class="edge">
<title>Node7&#45;&gt;Node4</title>
<path fill="none" stroke="#9a32cd" stroke-dasharray="5,2" d="M225.92,-102.34C220.53,-105.91 215,-109.89 210.16,-114 195.6,-126.36 181.2,-143.39 173.02,-153.63"/>
<polygon fill="#9a32cd" stroke="#9a32cd" points="227.43,-105.52 234.02,-97.23 223.7,-99.6 227.43,-105.52"/>
<text text-anchor="middle" x="224.66" y="-122.5" font-family="Helvetica,sans-Serif" font-size="10.00"> mutex</text>
</g>
<!-- Node8 -->
<g id="node8" class="node">
<title>Node8</title>
<g id="a_node8"><a xlink:href="structOSMutexLink.html" target="_top" xlink:title=" ">
<polygon fill="white" stroke="#666666" points="289.16,-19 213.16,-19 213.16,0 289.16,0 289.16,-19"/>
<text text-anchor="middle" x="251.16" y="-7" font-family="Helvetica,sans-Serif" font-size="10.00">OSMutexLink</text>
</a>
</g>
</g>
<!-- Node7&#45;&gt;Node8 -->
<g id="edge12" class="edge">
<title>Node7&#45;&gt;Node8</title>
<path fill="none" stroke="#9a32cd" stroke-dasharray="5,2" d="M231.64,-68.31C229.41,-65.43 227.47,-62.3 226.16,-59 222.55,-49.91 222.55,-46.09 226.16,-37 228.86,-30.18 234.25,-24.1 239.33,-19.49"/>
<polygon fill="#9a32cd" stroke="#9a32cd" points="228.9,-70.51 238.3,-75.41 234.01,-65.72 228.9,-70.51"/>
<text text-anchor="middle" x="236.66" y="-51" font-family="Helvetica,sans-Serif" font-size="10.00"> next</text>
<text text-anchor="middle" x="236.66" y="-40" font-family="Helvetica,sans-Serif" font-size="10.00">prev</text>
</g>
<!-- Node9 -->
<g id="node9" class="node">
<title>Node9</title>
<g id="a_node9"><a xlink:href="structOSMutexQueue.html" target="_top" xlink:title=" ">
<polygon fill="white" stroke="#666666" points="147.16,-19 61.16,-19 61.16,0 147.16,0 147.16,-19"/>
<text text-anchor="middle" x="104.16" y="-7" font-family="Helvetica,sans-Serif" font-size="10.00">OSMutexQueue</text>
</a>
</g>
</g>
<!-- Node7&#45;&gt;Node9 -->
<g id="edge14" class="edge">
<title>Node7&#45;&gt;Node9</title>
<path fill="none" stroke="#9a32cd" stroke-dasharray="5,2" d="M222.11,-71.75C213.71,-67.7 204.54,-63.23 196.16,-59 169.55,-45.59 139.03,-29.32 120.68,-19.44"/>
<polygon fill="#9a32cd" stroke="#9a32cd" points="220.34,-74.78 230.87,-75.94 223.36,-68.47 220.34,-74.78"/>
<text text-anchor="middle" x="208.16" y="-51" font-family="Helvetica,sans-Serif" font-size="10.00"> head</text>
<text text-anchor="middle" x="208.16" y="-40" font-family="Helvetica,sans-Serif" font-size="10.00">tail</text>
</g>
<!-- Node8&#45;&gt;Node7 -->
<g id="edge11" class="edge">
<title>Node8&#45;&gt;Node7</title>
<path fill="none" stroke="#9a32cd" stroke-dasharray="5,2" d="M251.16,-30.56C251.16,-45.55 251.16,-65.33 251.16,-76.6"/>
<polygon fill="#9a32cd" stroke="#9a32cd" points="254.66,-30.9 251.16,-20.9 247.66,-30.9 254.66,-30.9"/>
<text text-anchor="middle" x="260.16" y="-45.5" font-family="Helvetica,sans-Serif" font-size="10.00"> link</text>
</g>
<!-- Node9&#45;&gt;Node4 -->
<g id="edge13" class="edge">
<title>Node9&#45;&gt;Node4</title>
<path fill="none" stroke="#9a32cd" stroke-dasharray="5,2" d="M66.1,-23.6C31,-38.02 -13.23,-63.51 4.16,-96 29.26,-142.91 95.75,-156.76 135.3,-160.83"/>
<polygon fill="#9a32cd" stroke="#9a32cd" points="67.17,-26.94 75.21,-20.04 64.62,-20.42 67.17,-26.94"/>
<text text-anchor="middle" x="40.66" y="-84" font-family="Helvetica,sans-Serif" font-size="10.00"> owned_mutexes</text>
</g>
<!-- Node10 -->
<g id="node10" class="node">
<title>Node10</title>
<g id="a_node10"><a xlink:href="structJASChannel.html" target="_top" xlink:title=" ">
<polygon fill="white" stroke="#666666" points="541.66,-173 470.66,-173 470.66,-154 541.66,-154 541.66,-173"/>
<text text-anchor="middle" x="506.16" y="-161" font-family="Helvetica,sans-Serif" font-size="10.00">JASChannel</text>
</a>
</g>
</g>
<!-- Node10&#45;&gt;Node1 -->
<g id="edge15" class="edge">
<title>Node10&#45;&gt;Node1</title>
<path fill="none" stroke="#9a32cd" stroke-dasharray="5,2" d="M494.91,-143.76C485.83,-128.62 473.45,-108 466.49,-96.39"/>
<polygon fill="#9a32cd" stroke="#9a32cd" points="491.89,-145.53 500.04,-152.3 497.89,-141.93 491.89,-145.53"/>
<text text-anchor="middle" x="514.66" y="-122.5" font-family="Helvetica,sans-Serif" font-size="10.00"> field_0x090</text>
</g>
</g>
</svg>
        <g id="navigator" transform="translate(0 0)" fill="#404254">
                <rect fill="#f2f5e9" fill-opacity="0.5" stroke="#606060" stroke-width=".5" x="0" y="0" width="60" height="60"/>
                <use id="zoomplus" xlink:href="#zoomPlus" x="17" y="9" onmousedown="handleZoom(evt,'in')"/>
                <use id="zoomminus" xlink:href="#zoomMin" x="42" y="9" onmousedown="handleZoom(evt,'out')"/>
                <use id="reset" xlink:href="#resetDef" x="30" y="36" onmousedown="handleReset()"/>
                <g id="arrowUp" xlink:href="#dirArrow" transform="translate(30 24)" onmousedown="handlePan(0,-1)">
                  <use xlink:href="#rim" fill="#404040">
                        <set attributeName="fill" to="#808080" begin="arrowUp.mouseover" end="arrowUp.mouseout"/>
                  </use>
                  <path fill="none" stroke="white" stroke-width="1.5" d="M0,-3.0v7 M-2.5,-0.5L0,-3.0L2.5,-0.5"/>
                </g>
                <g id="arrowRight" xlink:href="#dirArrow" transform="rotate(90) translate(36 -43)" onmousedown="handlePan(1,0)">
                  <use xlink:href="#rim" fill="#404040">
                        <set attributeName="fill" to="#808080" begin="arrowRight.mouseover" end="arrowRight.mouseout"/>
                  </use>
                  <path fill="none" stroke="white" stroke-width="1.5" d="M0,-3.0v7 M-2.5,-0.5L0,-3.0L2.5,-0.5"/>
                </g>
                <g id="arrowDown" xlink:href="#dirArrow" transform="rotate(180) translate(-30 -48)" onmousedown="handlePan(0,1)">
                  <use xlink:href="#rim" fill="#404040">
                        <set attributeName="fill" to="#808080" begin="arrowDown.mouseover" end="arrowDown.mouseout"/>
                  </use>
                  <path fill="none" stroke="white" stroke-width="1.5" d="M0,-3.0v7 M-2.5,-0.5L0,-3.0L2.5,-0.5"/>
                </g>
                <g id="arrowLeft" xlink:href="#dirArrow" transform="rotate(270) translate(-36 17)" onmousedown="handlePan(-1,0)">
                  <use xlink:href="#rim" fill="#404040">
                        <set attributeName="fill" to="#808080" begin="arrowLeft.mouseover" end="arrowLeft.mouseout"/>
                  </use>
                  <path fill="none" stroke="white" stroke-width="1.5" d="M0,-3.0v7 M-2.5,-0.5L0,-3.0L2.5,-0.5"/>
                </g>
        </g>
        <svg viewBox="0 0 15 15" width="100%" height="30px" preserveAspectRatio="xMaxYMin meet">
         <g id="arrow_out" transform="scale(0.3 0.3)">
          <a xlink:href="structJASAramStream__coll__graph_org.svg" target="_base">
           <rect id="button" ry="5" rx="5" y="6" x="6" height="38" width="38"
                fill="#f2f5e9" fill-opacity="0.5" stroke="#606060" stroke-width="1.0"/>
           <path id="arrow"
             d="M 11.500037,31.436501 C 11.940474,20.09759 22.043105,11.32322 32.158766,21.979434 L 37.068811,17.246167 C 37.068811,17.246167 37.088388,32 37.088388,32 L 22.160133,31.978069 C 22.160133,31.978069 26.997745,27.140456 26.997745,27.140456 C 18.528582,18.264221 13.291696,25.230495 11.500037,31.436501 z"
             style="fill:#404040;"/>
          </a>
         </g>
        </svg>
</svg>
