<?xml version="1.0" encoding="UTF-8" standalone="no"?>
<!DOCTYPE svg PUBLIC "-//W3C//DTD SVG 1.1//EN"
 "http://www.w3.org/Graphics/SVG/1.1/DTD/svg11.dtd">
<!-- Generated by graphviz version 7.0.5 (20221223.1930)
 -->
<!-- Title: JAUSectionHeap::TSectionHeapData Pages: 1 -->
<!--zoomable 651 -->
<svg id="main" version="1.1" xmlns="http://www.w3.org/2000/svg" xmlns:xlink="http://www.w3.org/1999/xlink" xml:space="preserve" onload="init(evt)">
<style type="text/css"><![CDATA[
.edge:hover path { stroke: red; }
.edge:hover polygon { stroke: red; fill: red; }
]]></style>
<script type="text/javascript"><![CDATA[
var edges = document.getElementsByTagName('g');
if (edges && edges.length) {
  for (var i=0;i<edges.length;i++) {
    if (edges[i].id.substr(0,4)=='edge') {
      edges[i].setAttribute('class','edge');
    }
  }
}
]]></script>
        <defs>
                <circle id="rim" cx="0" cy="0" r="7"/>
                <circle id="rim2" cx="0" cy="0" r="3.5"/>
                <g id="zoomPlus">
                        <use xlink:href="#rim" fill="#404040">
                                <set attributeName="fill" to="#808080" begin="zoomplus.mouseover" end="zoomplus.mouseout"/>
                        </use>
                        <path d="M-4,0h8M0,-4v8" fill="none" stroke="white" stroke-width="1.5" pointer-events="none"/>
                </g>
                <g id="zoomMin">
                        <use xlink:href="#rim" fill="#404040">
                                <set attributeName="fill" to="#808080" begin="zoomminus.mouseover" end="zoomminus.mouseout"/>
                        </use>
                        <path d="M-4,0h8" fill="none" stroke="white" stroke-width="1.5" pointer-events="none"/>
                </g>
                <g id="dirArrow">
                        <path fill="none" stroke="white" stroke-width="1.5" d="M0,-3.0v7 M-2.5,-0.5L0,-3.0L2.5,-0.5"/>
                </g>
               <g id="resetDef">
                       <use xlink:href="#rim2" fill="#404040">
                               <set attributeName="fill" to="#808080" begin="reset.mouseover" end="reset.mouseout"/>
                       </use>
               </g>
        </defs>

<script type="text/javascript">
var viewWidth = 2292;
var viewHeight = 651;
var sectionId = 'dynsection-0';
</script>
<script xlink:href="svgpan.js"/>
<svg id="graph" class="graph">
<g id="viewport">
<title>JAUSectionHeap::TSectionHeapData</title>
<!-- Node1 -->
<g id="node1" class="node">
<title>Node1</title>
<g id="a_node1"><a xlink:title=" ">
<polygon fill="#999999" stroke="#666666" points="2284,-542.93 2148,-542.93 2148,-512.93 2284,-512.93 2284,-542.93"/>
<text text-anchor="start" x="2156" y="-530.93" font-family="Helvetica,sans-Serif" font-size="10.00">JAUSectionHeap::TSection</text>
<text text-anchor="middle" x="2216" y="-519.93" font-family="Helvetica,sans-Serif" font-size="10.00">HeapData</text>
</a>
</g>
</g>
<!-- Node2 -->
<g id="node2" class="node">
<title>Node2</title>
<g id="a_node2"><a xlink:href="classJAUWaveBankTable.html" target="_top" xlink:title=" ">
<polygon fill="white" stroke="#666666" points="2028,-611.43 1921,-611.43 1921,-592.43 2028,-592.43 2028,-611.43"/>
<text text-anchor="middle" x="1974.5" y="-599.43" font-family="Helvetica,sans-Serif" font-size="10.00">JAUWaveBankTable</text>
</a>
</g>
</g>
<!-- Node2&#45;&gt;Node1 -->
<g id="edge1" class="edge">
<title>Node2&#45;&gt;Node1</title>
<path fill="none" stroke="#9a32cd" stroke-dasharray="5,2" d="M2039.32,-589.93C2067.47,-583.91 2100.73,-575.78 2130,-565.93 2148.54,-559.69 2168.54,-550.86 2184.48,-543.29"/>
<polygon fill="#9a32cd" stroke="#9a32cd" points="2038.95,-586.44 2029.88,-591.91 2040.39,-593.29 2038.95,-586.44"/>
<text text-anchor="middle" x="2100" y="-584.93" font-family="Helvetica,sans-Serif" font-size="10.00"> field_0x000</text>
</g>
<!-- Node3 -->
<g id="node3" class="node">
<title>Node3</title>
<g id="a_node3"><a xlink:href="classJASPtrArray.html" target="_top" xlink:title=" ">
<polygon fill="white" stroke="#666666" points="1784,-616.93 1636,-616.93 1636,-586.93 1784,-586.93 1784,-616.93"/>
<text text-anchor="start" x="1644" y="-604.93" font-family="Helvetica,sans-Serif" font-size="10.00">JASPtrArray&lt; JASWaveBank,</text>
<text text-anchor="middle" x="1710" y="-593.93" font-family="Helvetica,sans-Serif" font-size="10.00"> 255 &gt;</text>
</a>
</g>
</g>
<!-- Node3&#45;&gt;Node2 -->
<g id="edge2" class="edge">
<title>Node3&#45;&gt;Node2</title>
<path fill="none" stroke="#8b1a1a" d="M1795.87,-601.93C1837,-601.93 1885.11,-601.93 1920.88,-601.93"/>
<polygon fill="#8b1a1a" stroke="#8b1a1a" points="1795.98,-598.43 1785.98,-601.93 1795.98,-605.43 1795.98,-598.43"/>
</g>
<!-- Node4 -->
<g id="node4" class="node">
<title>Node4</title>
<g id="a_node4"><a xlink:href="classJASPtrTable.html" target="_top" xlink:title=" ">
<polygon fill="white" stroke="#666666" points="1517,-643.43 1422,-643.43 1422,-624.43 1517,-624.43 1517,-643.43"/>
<text text-anchor="middle" x="1469.5" y="-631.43" font-family="Helvetica,sans-Serif" font-size="10.00">JASPtrTable&lt; T &gt;</text>
</a>
</g>
</g>
<!-- Node4&#45;&gt;Node3 -->
<g id="edge3" class="edge">
<title>Node4&#45;&gt;Node3</title>
<path fill="none" stroke="#63b8ff" d="M1528.37,-626.17C1560.6,-621.84 1601.06,-616.42 1635.51,-611.79"/>
<polygon fill="#63b8ff" stroke="#63b8ff" points="1528.28,-622.65 1518.84,-627.45 1529.21,-629.59 1528.28,-622.65"/>
</g>
<!-- Node5 -->
<g id="node5" class="node">
<title>Node5</title>
<g id="a_node5"><a xlink:href="structJASWaveBank.html" target="_top" xlink:title=" ">
<polygon fill="white" stroke="#666666" points="1511,-606.43 1428,-606.43 1428,-587.43 1511,-587.43 1511,-606.43"/>
<text text-anchor="middle" x="1469.5" y="-594.43" font-family="Helvetica,sans-Serif" font-size="10.00">JASWaveBank</text>
</a>
</g>
</g>
<!-- Node5&#45;&gt;Node3 -->
<g id="edge4" class="edge">
<title>Node5&#45;&gt;Node3</title>
<path fill="none" stroke="#9a32cd" stroke-dasharray="5,2" d="M1522.77,-598.03C1555.92,-598.72 1599.28,-599.63 1635.82,-600.4"/>
<polygon fill="#9a32cd" stroke="#9a32cd" points="1523.08,-594.53 1513.01,-597.82 1522.94,-601.53 1523.08,-594.53"/>
<text text-anchor="middle" x="1584.5" y="-601.93" font-family="Helvetica,sans-Serif" font-size="10.00"> mArray</text>
</g>
<!-- Node6 -->
<g id="node6" class="node">
<title>Node6</title>
<g id="a_node6"><a xlink:href="structJAISeqDataUser.html" target="_top" xlink:title=" ">
<polygon fill="white" stroke="#666666" points="2019.5,-574.43 1929.5,-574.43 1929.5,-555.43 2019.5,-555.43 2019.5,-574.43"/>
<text text-anchor="middle" x="1974.5" y="-562.43" font-family="Helvetica,sans-Serif" font-size="10.00">JAISeqDataUser</text>
</a>
</g>
</g>
<!-- Node6&#45;&gt;Node1 -->
<g id="edge5" class="edge">
<title>Node6&#45;&gt;Node1</title>
<path fill="none" stroke="#9a32cd" stroke-dasharray="5,2" d="M2031.15,-557.46C2060.58,-553.4 2097.29,-548.15 2130,-542.93 2135.77,-542.01 2141.76,-541.03 2147.76,-540.01"/>
<polygon fill="#9a32cd" stroke="#9a32cd" points="2030.78,-553.98 2021.35,-558.81 2031.73,-560.92 2030.78,-553.98"/>
<text text-anchor="middle" x="2100" y="-553.93" font-family="Helvetica,sans-Serif" font-size="10.00"> seqDataUser</text>
</g>
<!-- Node7 -->
<g id="node7" class="node">
<title>Node7</title>
<g id="a_node7"><a xlink:href="classJAUDynamicSeqDataBlocks.html" target="_top" xlink:title=" ">
<polygon fill="white" stroke="#666666" points="2045,-537.43 1904,-537.43 1904,-518.43 2045,-518.43 2045,-537.43"/>
<text text-anchor="middle" x="1974.5" y="-525.43" font-family="Helvetica,sans-Serif" font-size="10.00">JAUDynamicSeqDataBlocks</text>
</a>
</g>
</g>
<!-- Node7&#45;&gt;Node1 -->
<g id="edge6" class="edge">
<title>Node7&#45;&gt;Node1</title>
<path fill="none" stroke="#9a32cd" stroke-dasharray="5,2" d="M2056.61,-527.93C2086.3,-527.93 2119.54,-527.93 2147.88,-527.93"/>
<polygon fill="#9a32cd" stroke="#9a32cd" points="2056.93,-524.43 2046.93,-527.93 2056.93,-531.43 2056.93,-524.43"/>
<text text-anchor="middle" x="2100" y="-530.93" font-family="Helvetica,sans-Serif" font-size="10.00"> field_0x408</text>
</g>
<!-- Node8 -->
<g id="node8" class="node">
<title>Node8</title>
<g id="a_node8"><a xlink:href="classJAUSeqDataBlocks.html" target="_top" xlink:title=" ">
<polygon fill="white" stroke="#666666" points="931,-566.43 827,-566.43 827,-547.43 931,-547.43 931,-566.43"/>
<text text-anchor="middle" x="879" y="-554.43" font-family="Helvetica,sans-Serif" font-size="10.00">JAUSeqDataBlocks</text>
</a>
</g>
</g>
<!-- Node8&#45;&gt;Node7 -->
<g id="edge7" class="edge">
<title>Node8&#45;&gt;Node7</title>
<path fill="none" stroke="#9a32cd" stroke-dasharray="5,2" d="M942.74,-556.93C991.16,-556.93 1059.82,-556.93 1120,-556.93 1120,-556.93 1120,-556.93 1711,-556.93 1782.07,-556.93 1863.31,-546.3 1916.35,-537.91"/>
<polygon fill="#9a32cd" stroke="#9a32cd" points="943.01,-553.43 933.01,-556.93 943.01,-560.43 943.01,-553.43"/>
<text text-anchor="middle" x="1344.5" y="-581.93" font-family="Helvetica,sans-Serif" font-size="10.00"> field_0x0</text>
<text text-anchor="middle" x="1344.5" y="-570.93" font-family="Helvetica,sans-Serif" font-size="10.00">field_0x18</text>
<text text-anchor="middle" x="1344.5" y="-559.93" font-family="Helvetica,sans-Serif" font-size="10.00">field_0xc</text>
</g>
<!-- Node9 -->
<g id="node9" class="node">
<title>Node9</title>
<g id="a_node9"><a xlink:href="classJSUList.html" target="_top" xlink:title=" ">
<polygon fill="white" stroke="#666666" points="286,-562.43 135,-562.43 135,-543.43 286,-543.43 286,-562.43"/>
<text text-anchor="middle" x="210.5" y="-550.43" font-family="Helvetica,sans-Serif" font-size="10.00">JSUList&lt; JAUSeqDataBlock &gt;</text>
</a>
</g>
</g>
<!-- Node9&#45;&gt;Node8 -->
<g id="edge8" class="edge">
<title>Node9&#45;&gt;Node8</title>
<path fill="none" stroke="#9a32cd" stroke-dasharray="5,2" d="M297.46,-553.45C438.05,-554.29 712.9,-555.94 826.74,-556.63"/>
<polygon fill="#9a32cd" stroke="#9a32cd" points="297.87,-549.95 287.85,-553.39 297.83,-556.95 297.87,-549.95"/>
<text text-anchor="middle" x="486.5" y="-556.93" font-family="Helvetica,sans-Serif" font-size="10.00"> field_0x0</text>
</g>
<!-- Node10 -->
<g id="node10" class="node">
<title>Node10</title>
<g id="a_node10"><a xlink:href="structJSUPtrList.html" target="_top" xlink:title=" ">
<polygon fill="white" stroke="#666666" points="65,-449.43 0,-449.43 0,-430.43 65,-430.43 65,-449.43"/>
<text text-anchor="middle" x="32.5" y="-437.43" font-family="Helvetica,sans-Serif" font-size="10.00">JSUPtrList</text>
</a>
</g>
</g>
<!-- Node10&#45;&gt;Node9 -->
<g id="edge9" class="edge">
<title>Node10&#45;&gt;Node9</title>
<path fill="none" stroke="#63b8ff" d="M40.1,-460.71C47.43,-480.31 61.18,-509.01 83,-524.93 97.99,-535.88 116.45,-542.67 134.6,-546.86"/>
<polygon fill="#63b8ff" stroke="#63b8ff" points="43.43,-459.61 36.85,-451.3 36.81,-461.9 43.43,-459.61"/>
</g>
<!-- Node11 -->
<g id="node11" class="node">
<title>Node11</title>
<g id="a_node11"><a xlink:href="structJSUPtrLink.html" target="_top" xlink:title=" ">
<polygon fill="white" stroke="#666666" points="244.5,-442.43 176.5,-442.43 176.5,-423.43 244.5,-423.43 244.5,-442.43"/>
<text text-anchor="middle" x="210.5" y="-430.43" font-family="Helvetica,sans-Serif" font-size="10.00">JSUPtrLink</text>
</a>
</g>
</g>
<!-- Node10&#45;&gt;Node11 -->
<g id="edge11" class="edge">
<title>Node10&#45;&gt;Node11</title>
<path fill="none" stroke="#9a32cd" stroke-dasharray="5,2" d="M66.46,-426.16C71.9,-424.41 77.55,-422.89 83,-421.93 114.37,-416.41 150.63,-420.62 176.27,-425.35"/>
<polygon fill="#9a32cd" stroke="#9a32cd" points="65.39,-422.83 57.14,-429.48 67.74,-429.42 65.39,-422.83"/>
<text text-anchor="middle" x="100" y="-424.93" font-family="Helvetica,sans-Serif" font-size="10.00"> mList</text>
</g>
<!-- Node24 -->
<g id="node24" class="node">
<title>Node24</title>
<g id="a_node24"><a xlink:href="classJSUList.html" target="_top" xlink:title=" ">
<polygon fill="white" stroke="#666666" points="404.5,-377.43 329.5,-377.43 329.5,-358.43 404.5,-358.43 404.5,-377.43"/>
<text text-anchor="middle" x="367" y="-365.43" font-family="Helvetica,sans-Serif" font-size="10.00">JSUList&lt; T &gt;</text>
</a>
</g>
</g>
<!-- Node10&#45;&gt;Node24 -->
<g id="edge34" class="edge">
<title>Node10&#45;&gt;Node24</title>
<path fill="none" stroke="#63b8ff" d="M60.69,-425.05C67.79,-421.64 75.54,-418.32 83,-415.93 168.67,-388.52 274.22,-375.9 329.03,-370.84"/>
<polygon fill="#63b8ff" stroke="#63b8ff" points="59.57,-421.69 52.22,-429.33 62.72,-427.94 59.57,-421.69"/>
</g>
<!-- Node26 -->
<g id="node26" class="node">
<title>Node26</title>
<g id="a_node26"><a xlink:href="classJSUList.html" target="_top" xlink:title=" ">
<polygon fill="white" stroke="#666666" points="430,-336.43 304,-336.43 304,-317.43 430,-317.43 430,-336.43"/>
<text text-anchor="middle" x="367" y="-324.43" font-family="Helvetica,sans-Serif" font-size="10.00">JSUList&lt; JKRDisposer &gt;</text>
</a>
</g>
</g>
<!-- Node10&#45;&gt;Node26 -->
<g id="edge38" class="edge">
<title>Node10&#45;&gt;Node26</title>
<path fill="none" stroke="#63b8ff" d="M53.19,-422.75C72.6,-406.82 103.81,-383.85 135,-371.93 189.96,-350.93 256.18,-339.32 303.6,-333.18"/>
<polygon fill="#63b8ff" stroke="#63b8ff" points="50.98,-420.04 45.58,-429.15 55.48,-425.39 50.98,-420.04"/>
</g>
<!-- Node29 -->
<g id="node29" class="node">
<title>Node29</title>
<g id="a_node29"><a xlink:href="classJSUList.html" target="_top" xlink:title=" ">
<polygon fill="white" stroke="#666666" points="677,-524.43 543,-524.43 543,-505.43 677,-505.43 677,-524.43"/>
<text text-anchor="middle" x="610" y="-512.43" font-family="Helvetica,sans-Serif" font-size="10.00">JSUList&lt; JKRFileLoader &gt;</text>
</a>
</g>
</g>
<!-- Node10&#45;&gt;Node29 -->
<g id="edge45" class="edge">
<title>Node10&#45;&gt;Node29</title>
<path fill="none" stroke="#63b8ff" d="M57.27,-455.81C77.12,-468.14 106.66,-484.36 135,-491.93 276.49,-529.72 450.01,-526.12 542.87,-520.39"/>
<polygon fill="#63b8ff" stroke="#63b8ff" points="59.41,-453.03 49.1,-450.6 55.65,-458.93 59.41,-453.03"/>
</g>
<!-- Node11&#45;&gt;Node10 -->
<g id="edge10" class="edge">
<title>Node11&#45;&gt;Node10</title>
<path fill="none" stroke="#9a32cd" stroke-dasharray="5,2" d="M164.69,-434.72C133.67,-435.95 93.13,-437.56 65.37,-438.67"/>
<polygon fill="#9a32cd" stroke="#9a32cd" points="164.7,-438.22 174.56,-434.32 164.43,-431.22 164.7,-438.22"/>
<text text-anchor="middle" x="100" y="-451.93" font-family="Helvetica,sans-Serif" font-size="10.00"> mHead</text>
<text text-anchor="middle" x="100" y="-440.93" font-family="Helvetica,sans-Serif" font-size="10.00">mTail</text>
</g>
<!-- Node11&#45;&gt;Node11 -->
<g id="edge12" class="edge">
<title>Node11&#45;&gt;Node11</title>
<path fill="none" stroke="#9a32cd" stroke-dasharray="5,2" d="M190.89,-453.86C193.34,-457.72 199.88,-460.43 210.5,-460.43 229.92,-460.43 235.69,-451.37 227.8,-442.8"/>
<polygon fill="#9a32cd" stroke="#9a32cd" points="194.27,-454.79 192.89,-444.28 187.42,-453.35 194.27,-454.79"/>
<text text-anchor="middle" x="210.5" y="-474.43" font-family="Helvetica,sans-Serif" font-size="10.00"> mNext</text>
<text text-anchor="middle" x="210.5" y="-463.43" font-family="Helvetica,sans-Serif" font-size="10.00">mPrev</text>
</g>
<!-- Node25 -->
<g id="node25" class="node">
<title>Node25</title>
<g id="a_node25"><a xlink:href="classJSULink.html" target="_top" xlink:title=" ">
<polygon fill="white" stroke="#666666" points="525,-405.43 448,-405.43 448,-386.43 525,-386.43 525,-405.43"/>
<text text-anchor="middle" x="486.5" y="-393.43" font-family="Helvetica,sans-Serif" font-size="10.00">JSULink&lt; T &gt;</text>
</a>
</g>
</g>
<!-- Node11&#45;&gt;Node25 -->
<g id="edge36" class="edge">
<title>Node11&#45;&gt;Node25</title>
<path fill="none" stroke="#63b8ff" d="M256.08,-426.59C271.28,-424.45 288.38,-422.06 304,-419.93 353.6,-413.17 410.87,-405.64 447.6,-400.85"/>
<polygon fill="#63b8ff" stroke="#63b8ff" points="255.8,-423.1 246.39,-427.96 256.78,-430.03 255.8,-423.1"/>
</g>
<!-- Node27 -->
<g id="node27" class="node">
<title>Node27</title>
<g id="a_node27"><a xlink:href="classJSULink.html" target="_top" xlink:title=" ">
<polygon fill="white" stroke="#666666" points="674,-443.43 546,-443.43 546,-424.43 674,-424.43 674,-443.43"/>
<text text-anchor="middle" x="610" y="-431.43" font-family="Helvetica,sans-Serif" font-size="10.00">JSULink&lt; JKRDisposer &gt;</text>
</a>
</g>
</g>
<!-- Node11&#45;&gt;Node27 -->
<g id="edge40" class="edge">
<title>Node11&#45;&gt;Node27</title>
<path fill="none" stroke="#63b8ff" d="M255.84,-433.04C326.41,-433.22 464.55,-433.57 545.57,-433.77"/>
<polygon fill="#63b8ff" stroke="#63b8ff" points="256.23,-429.55 246.22,-433.02 256.21,-436.55 256.23,-429.55"/>
</g>
<!-- Node28 -->
<g id="node28" class="node">
<title>Node28</title>
<g id="a_node28"><a xlink:href="classJSULink.html" target="_top" xlink:title=" ">
<polygon fill="white" stroke="#666666" points="1189,-477.43 1053,-477.43 1053,-458.43 1189,-458.43 1189,-477.43"/>
<text text-anchor="middle" x="1121" y="-465.43" font-family="Helvetica,sans-Serif" font-size="10.00">JSULink&lt; JKRFileLoader &gt;</text>
</a>
</g>
</g>
<!-- Node11&#45;&gt;Node28 -->
<g id="edge42" class="edge">
<title>Node11&#45;&gt;Node28</title>
<path fill="none" stroke="#63b8ff" d="M255.81,-443.17C309.76,-454.73 403.81,-471.93 485.5,-471.93 485.5,-471.93 485.5,-471.93 880,-471.93 938.24,-471.93 1004.41,-470.74 1052.5,-469.66"/>
<polygon fill="#63b8ff" stroke="#63b8ff" points="256.6,-439.76 246.08,-441.05 255.11,-446.6 256.6,-439.76"/>
</g>
<!-- Node12 -->
<g id="node12" class="node">
<title>Node12</title>
<g id="a_node12"><a xlink:href="structJKRArchive.html" target="_top" xlink:title=" ">
<polygon fill="white" stroke="#666666" points="1744,-340.43 1676,-340.43 1676,-321.43 1744,-321.43 1744,-340.43"/>
<text text-anchor="middle" x="1710" y="-328.43" font-family="Helvetica,sans-Serif" font-size="10.00">JKRArchive</text>
</a>
</g>
</g>
<!-- Node12&#45;&gt;Node7 -->
<g id="edge13" class="edge">
<title>Node12&#45;&gt;Node7</title>
<path fill="none" stroke="#9a32cd" stroke-dasharray="5,2" d="M1724.71,-349.63C1752.72,-386.41 1820.37,-468.2 1897,-509.93 1902.99,-513.2 1909.56,-515.87 1916.25,-518.06"/>
<polygon fill="#9a32cd" stroke="#9a32cd" points="1727.59,-347.64 1718.79,-341.73 1721.99,-351.84 1727.59,-347.64"/>
<text text-anchor="middle" x="1840.5" y="-497.93" font-family="Helvetica,sans-Serif" font-size="10.00"> seqDataArchive_</text>
</g>
<!-- Node13 -->
<g id="node13" class="node">
<title>Node13</title>
<g id="a_node13"><a xlink:href="structJKRFileLoader.html" target="_top" xlink:title=" ">
<polygon fill="white" stroke="#666666" points="1510,-456.43 1429,-456.43 1429,-437.43 1510,-437.43 1510,-456.43"/>
<text text-anchor="middle" x="1469.5" y="-444.43" font-family="Helvetica,sans-Serif" font-size="10.00">JKRFileLoader</text>
</a>
</g>
</g>
<!-- Node13&#45;&gt;Node12 -->
<g id="edge14" class="edge">
<title>Node13&#45;&gt;Node12</title>
<path fill="none" stroke="#63b8ff" d="M1500.91,-432.14C1550.34,-408.1 1646.78,-361.19 1688.72,-340.8"/>
<polygon fill="#63b8ff" stroke="#63b8ff" points="1499.66,-428.86 1492.2,-436.38 1502.72,-435.15 1499.66,-428.86"/>
</g>
<!-- Node13&#45;&gt;Node13 -->
<g id="edge43" class="edge">
<title>Node13&#45;&gt;Node13</title>
<path fill="none" stroke="#9a32cd" stroke-dasharray="5,2" d="M1449.09,-467.86C1451.64,-471.72 1458.45,-474.43 1469.5,-474.43 1489.71,-474.43 1495.72,-465.37 1487.5,-456.8"/>
<polygon fill="#9a32cd" stroke="#9a32cd" points="1452.47,-468.8 1451.17,-458.28 1445.63,-467.31 1452.47,-468.8"/>
<text text-anchor="middle" x="1469.5" y="-477.43" font-family="Helvetica,sans-Serif" font-size="10.00"> sCurrentVolume</text>
</g>
<!-- Node14 -->
<g id="node14" class="node">
<title>Node14</title>
<g id="a_node14"><a xlink:href="classJKRDisposer.html" target="_top" xlink:title=" ">
<polygon fill="white" stroke="#666666" points="1282,-419.43 1208,-419.43 1208,-400.43 1282,-400.43 1282,-419.43"/>
<text text-anchor="middle" x="1245" y="-407.43" font-family="Helvetica,sans-Serif" font-size="10.00">JKRDisposer</text>
</a>
</g>
</g>
<!-- Node14&#45;&gt;Node13 -->
<g id="edge15" class="edge">
<title>Node14&#45;&gt;Node13</title>
<path fill="none" stroke="#63b8ff" d="M1293.36,-417.81C1333.55,-424.49 1390.58,-433.98 1428.51,-440.28"/>
<polygon fill="#63b8ff" stroke="#63b8ff" points="1294.18,-414.4 1283.74,-416.21 1293.03,-421.3 1294.18,-414.4"/>
</g>
<!-- Node15 -->
<g id="node15" class="node">
<title>Node15</title>
<g id="a_node15"><a xlink:href="structJKRHeap.html" target="_top" xlink:title=" ">
<polygon fill="white" stroke="#666666" points="1021.5,-354.43 962.5,-354.43 962.5,-335.43 1021.5,-335.43 1021.5,-354.43"/>
<text text-anchor="middle" x="992" y="-342.43" font-family="Helvetica,sans-Serif" font-size="10.00">JKRHeap</text>
</a>
</g>
</g>
<!-- Node14&#45;&gt;Node15 -->
<g id="edge17" class="edge">
<title>Node14&#45;&gt;Node15</title>
<path fill="none" stroke="#63b8ff" d="M1210.03,-395.98C1203.14,-393.43 1195.89,-390.94 1189,-388.93 1129.76,-371.65 1113.06,-375.11 1053,-360.93 1042.82,-358.53 1031.74,-355.65 1021.91,-353"/>
<polygon fill="#63b8ff" stroke="#63b8ff" points="1208.46,-399.13 1219.05,-399.44 1210.97,-392.59 1208.46,-399.13"/>
</g>
<!-- Node15&#45;&gt;Node12 -->
<g id="edge46" class="edge">
<title>Node15&#45;&gt;Node12</title>
<path fill="none" stroke="#9a32cd" stroke-dasharray="5,2" d="M1033.26,-344.92C1132.6,-344.76 1397.32,-343.58 1618,-335.93 1637.13,-335.27 1658.51,-334.12 1675.73,-333.08"/>
<polygon fill="#9a32cd" stroke="#9a32cd" points="1033.49,-341.42 1023.49,-344.93 1033.5,-348.42 1033.49,-341.42"/>
<text text-anchor="middle" x="1344.5" y="-346.93" font-family="Helvetica,sans-Serif" font-size="10.00"> mHeap</text>
</g>
<!-- Node15&#45;&gt;Node14 -->
<g id="edge16" class="edge">
<title>Node15&#45;&gt;Node14</title>
<path fill="none" stroke="#9a32cd" stroke-dasharray="5,2" d="M1012.8,-362.02C1023.9,-370.64 1038.4,-380.4 1053,-385.93 1080.5,-396.35 1160.47,-403.79 1207.76,-407.42"/>
<polygon fill="#9a32cd" stroke="#9a32cd" points="1015.16,-359.43 1005.2,-355.84 1010.75,-364.86 1015.16,-359.43"/>
<text text-anchor="middle" x="1121" y="-408.93" font-family="Helvetica,sans-Serif" font-size="10.00"> mHeap</text>
</g>
<!-- Node15&#45;&gt;Node15 -->
<g id="edge18" class="edge">
<title>Node15&#45;&gt;Node15</title>
<path fill="none" stroke="#9a32cd" stroke-dasharray="5,2" d="M971.94,-365.86C974.45,-369.72 981.14,-372.43 992,-372.43 1011.86,-372.43 1017.76,-363.37 1009.69,-354.8"/>
<polygon fill="#9a32cd" stroke="#9a32cd" points="975.32,-366.79 973.99,-356.28 968.48,-365.33 975.32,-366.79"/>
<text text-anchor="middle" x="992" y="-397.43" font-family="Helvetica,sans-Serif" font-size="10.00"> sCurrentHeap</text>
<text text-anchor="middle" x="992" y="-386.43" font-family="Helvetica,sans-Serif" font-size="10.00">sRootHeap</text>
<text text-anchor="middle" x="992" y="-375.43" font-family="Helvetica,sans-Serif" font-size="10.00">sSystemHeap</text>
</g>
<!-- Node16 -->
<g id="node16" class="node">
<title>Node16</title>
<g id="a_node16"><a xlink:href="structOSMutex.html" target="_top" xlink:title=" ">
<polygon fill="white" stroke="#666666" points="780.5,-131.43 723.5,-131.43 723.5,-112.43 780.5,-112.43 780.5,-131.43"/>
<text text-anchor="middle" x="752" y="-119.43" font-family="Helvetica,sans-Serif" font-size="10.00">OSMutex</text>
</a>
</g>
</g>
<!-- Node16&#45;&gt;Node15 -->
<g id="edge19" class="edge">
<title>Node16&#45;&gt;Node15</title>
<path fill="none" stroke="#9a32cd" stroke-dasharray="5,2" d="M758.94,-142.38C768.53,-171.93 790.18,-226.47 827,-257.93 864.3,-289.81 888.38,-270.63 931,-294.93 950.79,-306.22 970.44,-324.22 981.62,-335.27"/>
<polygon fill="#9a32cd" stroke="#9a32cd" points="762.39,-141.68 756.1,-133.16 755.7,-143.75 762.39,-141.68"/>
<text text-anchor="middle" x="879" y="-297.93" font-family="Helvetica,sans-Serif" font-size="10.00"> mMutex</text>
</g>
<!-- Node18 -->
<g id="node18" class="node">
<title>Node18</title>
<g id="a_node18"><a xlink:href="structOSThread.html" target="_top" xlink:title=" ">
<polygon fill="white" stroke="#666666" points="1275.5,-150.43 1214.5,-150.43 1214.5,-131.43 1275.5,-131.43 1275.5,-150.43"/>
<text text-anchor="middle" x="1245" y="-138.43" font-family="Helvetica,sans-Serif" font-size="10.00">OSThread</text>
</a>
</g>
</g>
<!-- Node16&#45;&gt;Node18 -->
<g id="edge26" class="edge">
<title>Node16&#45;&gt;Node18</title>
<path fill="none" stroke="#9a32cd" stroke-dasharray="5,2" d="M791.96,-114.18C831.37,-106.77 894.13,-96.11 949,-91.93 1056.03,-83.79 1085.75,-89.58 1189,-118.93 1200.18,-122.11 1212.2,-126.77 1222.15,-130.98"/>
<polygon fill="#9a32cd" stroke="#9a32cd" points="791.41,-110.72 782.25,-116.04 792.73,-117.6 791.41,-110.72"/>
<text text-anchor="middle" x="992" y="-94.93" font-family="Helvetica,sans-Serif" font-size="10.00"> mutex</text>
</g>
<!-- Node21 -->
<g id="node21" class="node">
<title>Node21</title>
<g id="a_node21"><a xlink:href="structOSMutexQueue.html" target="_top" xlink:title=" ">
<polygon fill="white" stroke="#666666" points="1035,-131.43 949,-131.43 949,-112.43 1035,-112.43 1035,-131.43"/>
<text text-anchor="middle" x="992" y="-119.43" font-family="Helvetica,sans-Serif" font-size="10.00">OSMutexQueue</text>
</a>
</g>
</g>
<!-- Node16&#45;&gt;Node21 -->
<g id="edge28" class="edge">
<title>Node16&#45;&gt;Node21</title>
<path fill="none" stroke="#9a32cd" stroke-dasharray="5,2" d="M792.19,-121.93C835.28,-121.93 904.26,-121.93 948.59,-121.93"/>
<polygon fill="#9a32cd" stroke="#9a32cd" points="792.28,-118.43 782.28,-121.93 792.28,-125.43 792.28,-118.43"/>
<text text-anchor="middle" x="879" y="-135.93" font-family="Helvetica,sans-Serif" font-size="10.00"> head</text>
<text text-anchor="middle" x="879" y="-124.93" font-family="Helvetica,sans-Serif" font-size="10.00">tail</text>
</g>
<!-- Node22 -->
<g id="node22" class="node">
<title>Node22</title>
<g id="a_node22"><a xlink:href="structOSMutexLink.html" target="_top" xlink:title=" ">
<polygon fill="white" stroke="#666666" points="1030,-34.43 954,-34.43 954,-15.43 1030,-15.43 1030,-34.43"/>
<text text-anchor="middle" x="992" y="-22.43" font-family="Helvetica,sans-Serif" font-size="10.00">OSMutexLink</text>
</a>
</g>
</g>
<!-- Node16&#45;&gt;Node22 -->
<g id="edge31" class="edge">
<title>Node16&#45;&gt;Node22</title>
<path fill="none" stroke="#9a32cd" stroke-dasharray="5,2" d="M766.07,-102.76C779.25,-85.11 801.28,-59.77 827,-46.93 848.59,-36.16 912.47,-30.05 953.84,-27.13"/>
<polygon fill="#9a32cd" stroke="#9a32cd" points="763.23,-100.72 760.26,-110.89 768.92,-104.79 763.23,-100.72"/>
<text text-anchor="middle" x="879" y="-60.93" font-family="Helvetica,sans-Serif" font-size="10.00"> next</text>
<text text-anchor="middle" x="879" y="-49.93" font-family="Helvetica,sans-Serif" font-size="10.00">prev</text>
</g>
<!-- Node17 -->
<g id="node17" class="node">
<title>Node17</title>
<g id="a_node17"><a xlink:href="structOSThreadQueue.html" target="_top" xlink:title=" ">
<polygon fill="white" stroke="#666666" points="1514,-210.43 1425,-210.43 1425,-191.43 1514,-191.43 1514,-210.43"/>
<text text-anchor="middle" x="1469.5" y="-198.43" font-family="Helvetica,sans-Serif" font-size="10.00">OSThreadQueue</text>
</a>
</g>
</g>
<!-- Node17&#45;&gt;Node16 -->
<g id="edge20" class="edge">
<title>Node17&#45;&gt;Node16</title>
<path fill="none" stroke="#9a32cd" stroke-dasharray="5,2" d="M1419.9,-214.22C1415.17,-215.72 1410.48,-217.3 1406,-218.93 1397.77,-221.93 1396.56,-225.12 1388,-226.93 1350.18,-234.96 1339.64,-228.3 1301,-226.93 1144.26,-221.37 1104.29,-223.89 949,-201.93 894.11,-194.17 877.62,-198.55 827,-175.93 801.73,-164.64 776.63,-143.75 763.14,-131.53"/>
<polygon fill="#9a32cd" stroke="#9a32cd" points="1420.9,-217.57 1429.44,-211.3 1418.85,-210.88 1420.9,-217.57"/>
<text text-anchor="middle" x="1121" y="-226.93" font-family="Helvetica,sans-Serif" font-size="10.00"> queue</text>
</g>
<!-- Node17&#45;&gt;Node18 -->
<g id="edge23" class="edge">
<title>Node17&#45;&gt;Node18</title>
<path fill="none" stroke="#9a32cd" stroke-dasharray="5,2" d="M1445.48,-184.74C1429.97,-174.69 1408.65,-162.49 1388,-155.93 1350.55,-144.04 1305.04,-141.12 1275.81,-140.63"/>
<polygon fill="#9a32cd" stroke="#9a32cd" points="1443.24,-187.46 1453.5,-190.11 1447.14,-181.64 1443.24,-187.46"/>
<text text-anchor="middle" x="1344.5" y="-169.93" font-family="Helvetica,sans-Serif" font-size="10.00"> join_queue</text>
<text text-anchor="middle" x="1344.5" y="-158.93" font-family="Helvetica,sans-Serif" font-size="10.00">queue</text>
</g>
<!-- Node18&#45;&gt;Node16 -->
<g id="edge29" class="edge">
<title>Node18&#45;&gt;Node16</title>
<path fill="none" stroke="#9a32cd" stroke-dasharray="5,2" d="M1220.09,-156.48C1210.77,-161.74 1199.75,-167.01 1189,-169.93 1086.02,-197.92 1054.99,-189.36 949,-176.93 886.17,-169.57 815.38,-145.61 778.48,-131.87"/>
<polygon fill="#9a32cd" stroke="#9a32cd" points="1221.71,-159.59 1228.49,-151.45 1218.12,-153.58 1221.71,-159.59"/>
<text text-anchor="middle" x="992" y="-189.93" font-family="Helvetica,sans-Serif" font-size="10.00"> thread</text>
</g>
<!-- Node18&#45;&gt;Node17 -->
<g id="edge21" class="edge">
<title>Node18&#45;&gt;Node17</title>
<path fill="none" stroke="#9a32cd" stroke-dasharray="5,2" d="M1263.83,-158.05C1273.93,-166.71 1287.26,-176.5 1301,-181.93 1340.87,-197.71 1389.96,-201.65 1424.66,-202.14"/>
<polygon fill="#9a32cd" stroke="#9a32cd" points="1266.44,-155.7 1256.67,-151.6 1261.75,-160.89 1266.44,-155.7"/>
<text text-anchor="middle" x="1344.5" y="-214.93" font-family="Helvetica,sans-Serif" font-size="10.00"> head</text>
<text text-anchor="middle" x="1344.5" y="-203.93" font-family="Helvetica,sans-Serif" font-size="10.00">tail</text>
</g>
<!-- Node20 -->
<g id="node20" class="node">
<title>Node20</title>
<g id="a_node20"><a xlink:href="structOSThreadLink.html" target="_top" xlink:title=" ">
<polygon fill="white" stroke="#666666" points="1509.5,-101.43 1429.5,-101.43 1429.5,-82.43 1509.5,-82.43 1509.5,-101.43"/>
<text text-anchor="middle" x="1469.5" y="-89.43" font-family="Helvetica,sans-Serif" font-size="10.00">OSThreadLink</text>
</a>
</g>
</g>
<!-- Node18&#45;&gt;Node20 -->
<g id="edge25" class="edge">
<title>Node18&#45;&gt;Node20</title>
<path fill="none" stroke="#9a32cd" stroke-dasharray="5,2" d="M1255.85,-120.76C1265.03,-104.49 1280.4,-82.76 1301,-72.93 1348.67,-50.18 1412.39,-68.96 1445.83,-82.01"/>
<polygon fill="#9a32cd" stroke="#9a32cd" points="1252.76,-119.12 1251.2,-129.6 1258.96,-122.38 1252.76,-119.12"/>
<text text-anchor="middle" x="1344.5" y="-86.93" font-family="Helvetica,sans-Serif" font-size="10.00"> next</text>
<text text-anchor="middle" x="1344.5" y="-75.93" font-family="Helvetica,sans-Serif" font-size="10.00">prev</text>
</g>
<!-- Node19 -->
<g id="node19" class="node">
<title>Node19</title>
<g id="a_node19"><a xlink:href="structOSContext.html" target="_top" xlink:title=" ">
<polygon fill="white" stroke="#666666" points="1024,-168.43 960,-168.43 960,-149.43 1024,-149.43 1024,-168.43"/>
<text text-anchor="middle" x="992" y="-156.43" font-family="Helvetica,sans-Serif" font-size="10.00">OSContext</text>
</a>
</g>
</g>
<!-- Node19&#45;&gt;Node18 -->
<g id="edge22" class="edge">
<title>Node19&#45;&gt;Node18</title>
<path fill="none" stroke="#9a32cd" stroke-dasharray="5,2" d="M1035.52,-155.88C1086.31,-152.24 1169.95,-146.24 1214.28,-143.06"/>
<polygon fill="#9a32cd" stroke="#9a32cd" points="1035.52,-152.38 1025.79,-156.58 1036.02,-159.36 1035.52,-152.38"/>
<text text-anchor="middle" x="1121" y="-157.93" font-family="Helvetica,sans-Serif" font-size="10.00"> context</text>
</g>
<!-- Node20&#45;&gt;Node18 -->
<g id="edge24" class="edge">
<title>Node20&#45;&gt;Node18</title>
<path fill="none" stroke="#9a32cd" stroke-dasharray="5,2" d="M1417.79,-94.86C1384.12,-97.78 1339.26,-103.56 1301,-114.93 1287.84,-118.85 1273.86,-125.49 1263.29,-131.08"/>
<polygon fill="#9a32cd" stroke="#9a32cd" points="1418.01,-98.35 1427.69,-94.06 1417.45,-91.37 1418.01,-98.35"/>
<text text-anchor="middle" x="1344.5" y="-128.93" font-family="Helvetica,sans-Serif" font-size="10.00"> active_threads_link</text>
<text text-anchor="middle" x="1344.5" y="-117.93" font-family="Helvetica,sans-Serif" font-size="10.00">link</text>
</g>
<!-- Node21&#45;&gt;Node18 -->
<g id="edge27" class="edge">
<title>Node21&#45;&gt;Node18</title>
<path fill="none" stroke="#9a32cd" stroke-dasharray="5,2" d="M1046.66,-122.46C1086.14,-123.32 1141.05,-125.5 1189,-130.93 1197.2,-131.86 1206.01,-133.28 1214.14,-134.75"/>
<polygon fill="#9a32cd" stroke="#9a32cd" points="1046.77,-118.96 1036.7,-122.27 1046.63,-125.96 1046.77,-118.96"/>
<text text-anchor="middle" x="1121" y="-133.93" font-family="Helvetica,sans-Serif" font-size="10.00"> owned_mutexes</text>
</g>
<!-- Node22&#45;&gt;Node16 -->
<g id="edge30" class="edge">
<title>Node22&#45;&gt;Node16</title>
<path fill="none" stroke="#9a32cd" stroke-dasharray="5,2" d="M954.46,-11.61C919.62,-1.27 866.72,8.11 827,-12.93 786.38,-34.46 763.93,-89.38 756.15,-111.98"/>
<polygon fill="#9a32cd" stroke="#9a32cd" points="953.07,-14.84 963.66,-14.51 955.17,-8.17 953.07,-14.84"/>
<text text-anchor="middle" x="879" y="-15.93" font-family="Helvetica,sans-Serif" font-size="10.00"> link</text>
</g>
<!-- Node23 -->
<g id="node23" class="node">
<title>Node23</title>
<g id="a_node23"><a xlink:href="classJSUTree.html" target="_top" xlink:title=" ">
<polygon fill="white" stroke="#666666" points="809,-367.43 695,-367.43 695,-348.43 809,-348.43 809,-367.43"/>
<text text-anchor="middle" x="752" y="-355.43" font-family="Helvetica,sans-Serif" font-size="10.00">JSUTree&lt; JKRHeap &gt;</text>
</a>
</g>
</g>
<!-- Node23&#45;&gt;Node15 -->
<g id="edge32" class="edge">
<title>Node23&#45;&gt;Node15</title>
<path fill="none" stroke="#9a32cd" stroke-dasharray="5,2" d="M820.67,-354.24C867.41,-351.68 927.2,-348.42 962.09,-346.51"/>
<polygon fill="#9a32cd" stroke="#9a32cd" points="820.71,-350.73 810.91,-354.77 821.09,-357.72 820.71,-350.73"/>
<text text-anchor="middle" x="879" y="-356.93" font-family="Helvetica,sans-Serif" font-size="10.00"> mChildTree</text>
</g>
<!-- Node24&#45;&gt;Node23 -->
<g id="edge33" class="edge">
<title>Node24&#45;&gt;Node23</title>
<path fill="none" stroke="#63b8ff" d="M415.97,-366.68C486.87,-364.83 619.34,-361.37 694.72,-359.4"/>
<polygon fill="#63b8ff" stroke="#63b8ff" points="416.14,-363.17 406.24,-366.93 416.32,-370.17 416.14,-363.17"/>
</g>
<!-- Node25&#45;&gt;Node23 -->
<g id="edge35" class="edge">
<title>Node25&#45;&gt;Node23</title>
<path fill="none" stroke="#63b8ff" d="M536.7,-390.54C575.02,-386.13 629.5,-379.43 677,-371.93 684.62,-370.73 692.66,-369.34 700.52,-367.91"/>
<polygon fill="#63b8ff" stroke="#63b8ff" points="536.39,-387.05 526.85,-391.66 537.18,-394 536.39,-387.05"/>
</g>
<!-- Node26&#45;&gt;Node15 -->
<g id="edge37" class="edge">
<title>Node26&#45;&gt;Node15</title>
<path fill="none" stroke="#9a32cd" stroke-dasharray="5,2" d="M441.86,-328.81C529.45,-331.07 679.87,-335.05 809,-338.93 863.04,-340.56 926.09,-342.69 962,-343.93"/>
<polygon fill="#9a32cd" stroke="#9a32cd" points="442.04,-325.32 431.96,-328.56 441.86,-332.31 442.04,-325.32"/>
<text text-anchor="middle" x="610" y="-338.93" font-family="Helvetica,sans-Serif" font-size="10.00"> mDisposerList</text>
</g>
<!-- Node27&#45;&gt;Node14 -->
<g id="edge39" class="edge">
<title>Node27&#45;&gt;Node14</title>
<path fill="none" stroke="#9a32cd" stroke-dasharray="5,2" d="M685.82,-435.83C796.23,-437.78 1009.14,-438.35 1189,-419.93 1195.08,-419.31 1201.5,-418.39 1207.72,-417.35"/>
<polygon fill="#9a32cd" stroke="#9a32cd" points="686.07,-432.33 676.01,-435.64 685.94,-439.33 686.07,-432.33"/>
<text text-anchor="middle" x="879" y="-439.93" font-family="Helvetica,sans-Serif" font-size="10.00"> mLink</text>
</g>
<!-- Node28&#45;&gt;Node13 -->
<g id="edge41" class="edge">
<title>Node28&#45;&gt;Node13</title>
<path fill="none" stroke="#9a32cd" stroke-dasharray="5,2" d="M1200.36,-463.18C1271.51,-458.87 1373.54,-452.69 1428.98,-449.33"/>
<polygon fill="#9a32cd" stroke="#9a32cd" points="1200.5,-459.67 1190.73,-463.77 1200.92,-466.66 1200.5,-459.67"/>
<text text-anchor="middle" x="1245" y="-465.93" font-family="Helvetica,sans-Serif" font-size="10.00"> mFileLoaderLink</text>
</g>
<!-- Node29&#45;&gt;Node13 -->
<g id="edge44" class="edge">
<title>Node29&#45;&gt;Node13</title>
<path fill="none" stroke="#9a32cd" stroke-dasharray="5,2" d="M688.79,-516.27C742.05,-517.07 814.3,-517.93 878,-517.93 878,-517.93 878,-517.93 1246,-517.93 1325.47,-517.93 1413.68,-476.31 1450.66,-456.81"/>
<polygon fill="#9a32cd" stroke="#9a32cd" points="688.95,-512.77 678.89,-516.12 688.84,-519.77 688.95,-512.77"/>
<text text-anchor="middle" x="992" y="-520.93" font-family="Helvetica,sans-Serif" font-size="10.00"> sVolumeList</text>
</g>
<!-- Node30 -->
<g id="node30" class="node">
<title>Node30</title>
<g id="a_node30"><a xlink:href="structSArcDataInfo.html" target="_top" xlink:title=" ">
<polygon fill="white" stroke="#666666" points="1507,-321.43 1432,-321.43 1432,-302.43 1507,-302.43 1507,-321.43"/>
<text text-anchor="middle" x="1469.5" y="-309.43" font-family="Helvetica,sans-Serif" font-size="10.00">SArcDataInfo</text>
</a>
</g>
</g>
<!-- Node30&#45;&gt;Node12 -->
<g id="edge47" class="edge">
<title>Node30&#45;&gt;Node12</title>
<path fill="none" stroke="#9a32cd" stroke-dasharray="5,2" d="M1518.58,-315.76C1565.24,-319.48 1634.81,-325.02 1675.68,-328.28"/>
<polygon fill="#9a32cd" stroke="#9a32cd" points="1519,-312.29 1508.75,-314.98 1518.44,-319.26 1519,-312.29"/>
<text text-anchor="middle" x="1584.5" y="-326.93" font-family="Helvetica,sans-Serif" font-size="10.00"> mArcInfoBlock</text>
</g>
<!-- Node31 -->
<g id="node31" class="node">
<title>Node31</title>
<g id="a_node31"><a xlink:href="structJKRArchive_1_1SDIDirEntry.html" target="_top" xlink:title=" ">
<polygon fill="white" stroke="#666666" points="1531,-284.43 1408,-284.43 1408,-265.43 1531,-265.43 1531,-284.43"/>
<text text-anchor="middle" x="1469.5" y="-272.43" font-family="Helvetica,sans-Serif" font-size="10.00">JKRArchive::SDIDirEntry</text>
</a>
</g>
</g>
<!-- Node31&#45;&gt;Node12 -->
<g id="edge48" class="edge">
<title>Node31&#45;&gt;Node12</title>
<path fill="none" stroke="#9a32cd" stroke-dasharray="5,2" d="M1539.07,-287.02C1564.03,-291.79 1592.4,-297.63 1618,-303.93 1638.16,-308.89 1660.52,-315.51 1678.03,-320.96"/>
<polygon fill="#9a32cd" stroke="#9a32cd" points="1539.82,-283.6 1529.35,-285.19 1538.53,-290.48 1539.82,-283.6"/>
<text text-anchor="middle" x="1584.5" y="-306.93" font-family="Helvetica,sans-Serif" font-size="10.00"> mNodes</text>
</g>
<!-- Node32 -->
<g id="node32" class="node">
<title>Node32</title>
<g id="a_node32"><a xlink:href="structJKRArchive_1_1SDIFileEntry.html" target="_top" xlink:title=" ">
<polygon fill="white" stroke="#666666" points="1533,-247.43 1406,-247.43 1406,-228.43 1533,-228.43 1533,-247.43"/>
<text text-anchor="middle" x="1469.5" y="-235.43" font-family="Helvetica,sans-Serif" font-size="10.00">JKRArchive::SDIFileEntry</text>
</a>
</g>
</g>
<!-- Node32&#45;&gt;Node12 -->
<g id="edge49" class="edge">
<title>Node32&#45;&gt;Node12</title>
<path fill="none" stroke="#9a32cd" stroke-dasharray="5,2" d="M1538.24,-250.36C1563.8,-256.22 1592.78,-264.31 1618,-274.93 1647.57,-287.39 1678.74,-308.59 1695.83,-321.02"/>
<polygon fill="#9a32cd" stroke="#9a32cd" points="1539.14,-246.97 1528.62,-248.23 1537.62,-253.81 1539.14,-246.97"/>
<text text-anchor="middle" x="1584.5" y="-277.93" font-family="Helvetica,sans-Serif" font-size="10.00"> mFiles</text>
</g>
<!-- Node33 -->
<g id="node33" class="node">
<title>Node33</title>
<g id="a_node33"><a xlink:href="structJAUSeqDataMgr__SeqCollection.html" target="_top" xlink:title=" ">
<polygon fill="white" stroke="#666666" points="2052,-500.43 1897,-500.43 1897,-481.43 2052,-481.43 2052,-500.43"/>
<text text-anchor="middle" x="1974.5" y="-488.43" font-family="Helvetica,sans-Serif" font-size="10.00">JAUSeqDataMgr_SeqCollection</text>
</a>
</g>
</g>
<!-- Node33&#45;&gt;Node1 -->
<g id="edge50" class="edge">
<title>Node33&#45;&gt;Node1</title>
<path fill="none" stroke="#9a32cd" stroke-dasharray="5,2" d="M2060.36,-502.5C2083.01,-505.73 2107.45,-509.34 2130,-512.93 2135.77,-513.85 2141.76,-514.84 2147.76,-515.85"/>
<polygon fill="#9a32cd" stroke="#9a32cd" points="2060.95,-499.05 2050.55,-501.11 2059.97,-505.98 2060.95,-499.05"/>
<text text-anchor="middle" x="2100" y="-515.93" font-family="Helvetica,sans-Serif" font-size="10.00"> field_0x430</text>
</g>
<!-- Node34 -->
<g id="node34" class="node">
<title>Node34</title>
<g id="a_node34"><a xlink:href="structJAIStreamDataMgr.html" target="_top" xlink:title=" ">
<polygon fill="white" stroke="#666666" points="2024.5,-463.43 1924.5,-463.43 1924.5,-444.43 2024.5,-444.43 2024.5,-463.43"/>
<text text-anchor="middle" x="1974.5" y="-451.43" font-family="Helvetica,sans-Serif" font-size="10.00">JAIStreamDataMgr</text>
</a>
</g>
</g>
<!-- Node34&#45;&gt;Node1 -->
<g id="edge51" class="edge">
<title>Node34&#45;&gt;Node1</title>
<path fill="none" stroke="#9a32cd" stroke-dasharray="5,2" d="M2036.07,-464.63C2064.91,-470.48 2099.64,-478.65 2130,-488.93 2148.92,-495.34 2169.28,-504.59 2185.33,-512.48"/>
<polygon fill="#9a32cd" stroke="#9a32cd" points="2036.9,-461.22 2026.41,-462.71 2035.54,-468.09 2036.9,-461.22"/>
<text text-anchor="middle" x="2100" y="-491.93" font-family="Helvetica,sans-Serif" font-size="10.00"> field_0x434</text>
</g>
</g>
</svg>
        <g id="navigator" transform="translate(0 0)" fill="#404254">
                <rect fill="#f2f5e9" fill-opacity="0.5" stroke="#606060" stroke-width=".5" x="0" y="0" width="60" height="60"/>
                <use id="zoomplus" xlink:href="#zoomPlus" x="17" y="9" onmousedown="handleZoom(evt,'in')"/>
                <use id="zoomminus" xlink:href="#zoomMin" x="42" y="9" onmousedown="handleZoom(evt,'out')"/>
                <use id="reset" xlink:href="#resetDef" x="30" y="36" onmousedown="handleReset()"/>
                <g id="arrowUp" xlink:href="#dirArrow" transform="translate(30 24)" onmousedown="handlePan(0,-1)">
                  <use xlink:href="#rim" fill="#404040">
                        <set attributeName="fill" to="#808080" begin="arrowUp.mouseover" end="arrowUp.mouseout"/>
                  </use>
                  <path fill="none" stroke="white" stroke-width="1.5" d="M0,-3.0v7 M-2.5,-0.5L0,-3.0L2.5,-0.5"/>
                </g>
                <g id="arrowRight" xlink:href="#dirArrow" transform="rotate(90) translate(36 -43)" onmousedown="handlePan(1,0)">
                  <use xlink:href="#rim" fill="#404040">
                        <set attributeName="fill" to="#808080" begin="arrowRight.mouseover" end="arrowRight.mouseout"/>
                  </use>
                  <path fill="none" stroke="white" stroke-width="1.5" d="M0,-3.0v7 M-2.5,-0.5L0,-3.0L2.5,-0.5"/>
                </g>
                <g id="arrowDown" xlink:href="#dirArrow" transform="rotate(180) translate(-30 -48)" onmousedown="handlePan(0,1)">
                  <use xlink:href="#rim" fill="#404040">
                        <set attributeName="fill" to="#808080" begin="arrowDown.mouseover" end="arrowDown.mouseout"/>
                  </use>
                  <path fill="none" stroke="white" stroke-width="1.5" d="M0,-3.0v7 M-2.5,-0.5L0,-3.0L2.5,-0.5"/>
                </g>
                <g id="arrowLeft" xlink:href="#dirArrow" transform="rotate(270) translate(-36 17)" onmousedown="handlePan(-1,0)">
                  <use xlink:href="#rim" fill="#404040">
                        <set attributeName="fill" to="#808080" begin="arrowLeft.mouseover" end="arrowLeft.mouseout"/>
                  </use>
                  <path fill="none" stroke="white" stroke-width="1.5" d="M0,-3.0v7 M-2.5,-0.5L0,-3.0L2.5,-0.5"/>
                </g>
        </g>
        <svg viewBox="0 0 15 15" width="100%" height="30px" preserveAspectRatio="xMaxYMin meet">
         <g id="arrow_out" transform="scale(0.3 0.3)">
          <a xlink:href="structJAUSectionHeap_1_1TSectionHeapData__coll__graph_org.svg" target="_base">
           <rect id="button" ry="5" rx="5" y="6" x="6" height="38" width="38"
                fill="#f2f5e9" fill-opacity="0.5" stroke="#606060" stroke-width="1.0"/>
           <path id="arrow"
             d="M 11.500037,31.436501 C 11.940474,20.09759 22.043105,11.32322 32.158766,21.979434 L 37.068811,17.246167 C 37.068811,17.246167 37.088388,32 37.088388,32 L 22.160133,31.978069 C 22.160133,31.978069 26.997745,27.140456 26.997745,27.140456 C 18.528582,18.264221 13.291696,25.230495 11.500037,31.436501 z"
             style="fill:#404040;"/>
          </a>
         </g>
        </svg>
</svg>
