<?xml version="1.0" encoding="UTF-8" standalone="no"?>
<!DOCTYPE svg PUBLIC "-//W3C//DTD SVG 1.1//EN"
 "http://www.w3.org/Graphics/SVG/1.1/DTD/svg11.dtd">
<!-- Generated by graphviz version 7.0.5 (20221223.1930)
 -->
<!-- Title: JSUPtrLink Pages: 1 -->
<svg width="423pt" height="920pt"
 viewBox="0.00 0.00 423.00 920.00" xmlns="http://www.w3.org/2000/svg" xmlns:xlink="http://www.w3.org/1999/xlink">
<g id="graph0" class="graph" transform="scale(1 1) rotate(0) translate(4 916)">
<title>JSUPtrLink</title>
<!-- Node1 -->
<g id="node1" class="node">
<title>Node1</title>
<g id="a_node1"><a xlink:title=" ">
<polygon fill="#999999" stroke="#666666" points="68,-505 0,-505 0,-486 68,-486 68,-505"/>
<text text-anchor="middle" x="34" y="-493" font-family="Helvetica,sans-Serif" font-size="10.00">JSUPtrLink</text>
</a>
</g>
</g>
<!-- Node2 -->
<g id="node2" class="node">
<title>Node2</title>
<g id="a_node2"><a xlink:href="classJSULink.html" target="_top" xlink:title=" ">
<polygon fill="white" stroke="#666666" points="233.5,-912 135.5,-912 135.5,-893 233.5,-893 233.5,-912"/>
<text text-anchor="middle" x="184.5" y="-900" font-family="Helvetica,sans-Serif" font-size="10.00">JSULink&lt; JAISe &gt;</text>
</a>
</g>
</g>
<!-- Node1&#45;&gt;Node2 -->
<g id="edge1" class="edge">
<title>Node1&#45;&gt;Node2</title>
<path fill="none" stroke="#63b8ff" d="M35.76,-516.59C38.83,-589.7 52.75,-830.78 104,-884.5 112.21,-893.1 123.59,-898 135.17,-900.69"/>
<polygon fill="#63b8ff" stroke="#63b8ff" points="39.27,-516.68 35.38,-506.82 32.27,-516.95 39.27,-516.68"/>
</g>
<!-- Node4 -->
<g id="node4" class="node">
<title>Node4</title>
<g id="a_node4"><a xlink:href="classJSULink.html" target="_top" xlink:title=" ">
<polygon fill="white" stroke="#666666" points="236.5,-875 132.5,-875 132.5,-856 236.5,-856 236.5,-875"/>
<text text-anchor="middle" x="184.5" y="-863" font-family="Helvetica,sans-Serif" font-size="10.00">JSULink&lt; JAISeq &gt;</text>
</a>
</g>
</g>
<!-- Node1&#45;&gt;Node4 -->
<g id="edge3" class="edge">
<title>Node1&#45;&gt;Node4</title>
<path fill="none" stroke="#63b8ff" d="M36.2,-516.77C40.52,-585.45 57.53,-799.66 104,-847.5 111.59,-855.32 121.81,-860.06 132.39,-862.87"/>
<polygon fill="#63b8ff" stroke="#63b8ff" points="39.7,-516.67 35.61,-506.89 32.71,-517.09 39.7,-516.67"/>
</g>
<!-- Node6 -->
<g id="node6" class="node">
<title>Node6</title>
<g id="a_node6"><a xlink:href="classJSULink.html" target="_top" xlink:title=" ">
<polygon fill="white" stroke="#666666" points="243.5,-838 125.5,-838 125.5,-819 243.5,-819 243.5,-838"/>
<text text-anchor="middle" x="184.5" y="-826" font-family="Helvetica,sans-Serif" font-size="10.00">JSULink&lt; JAIStream &gt;</text>
</a>
</g>
</g>
<!-- Node1&#45;&gt;Node6 -->
<g id="edge5" class="edge">
<title>Node1&#45;&gt;Node6</title>
<path fill="none" stroke="#63b8ff" d="M36.72,-516.57C42.33,-580.18 62.21,-768.41 104,-810.5 109.88,-816.42 117.28,-820.57 125.17,-823.45"/>
<polygon fill="#63b8ff" stroke="#63b8ff" points="40.22,-516.47 35.89,-506.8 33.25,-517.06 40.22,-516.47"/>
</g>
<!-- Node8 -->
<g id="node8" class="node">
<title>Node8</title>
<g id="a_node8"><a xlink:href="classJSULink.html" target="_top" xlink:title=" ">
<polygon fill="white" stroke="#666666" points="265,-801 104,-801 104,-782 265,-782 265,-801"/>
<text text-anchor="middle" x="184.5" y="-789" font-family="Helvetica,sans-Serif" font-size="10.00">JSULink&lt; Z2SoundHandlePool &gt;</text>
</a>
</g>
</g>
<!-- Node1&#45;&gt;Node8 -->
<g id="edge7" class="edge">
<title>Node1&#45;&gt;Node8</title>
<path fill="none" stroke="#63b8ff" d="M37.4,-516.73C44.44,-575.3 66.93,-737.18 104,-773.5 107.23,-776.67 110.9,-779.33 114.85,-781.55"/>
<polygon fill="#63b8ff" stroke="#63b8ff" points="40.88,-516.35 36.24,-506.82 33.92,-517.16 40.88,-516.35"/>
</g>
<!-- Node10 -->
<g id="node10" class="node">
<title>Node10</title>
<g id="a_node10"><a xlink:href="classJSULink.html" target="_top" xlink:title=" ">
<polygon fill="white" stroke="#666666" points="240,-764 129,-764 129,-745 240,-745 240,-764"/>
<text text-anchor="middle" x="184.5" y="-752" font-family="Helvetica,sans-Serif" font-size="10.00">JSULink&lt; J2DPane &gt;</text>
</a>
</g>
</g>
<!-- Node1&#45;&gt;Node10 -->
<g id="edge9" class="edge">
<title>Node1&#45;&gt;Node10</title>
<path fill="none" stroke="#63b8ff" d="M34.38,-516.66C34.23,-563.56 40.83,-676.79 104,-736.5 110.89,-743.01 119.62,-747.35 128.75,-750.2"/>
<polygon fill="#63b8ff" stroke="#63b8ff" points="37.88,-516.86 34.54,-506.81 30.88,-516.75 37.88,-516.86"/>
</g>
<!-- Node11 -->
<g id="node11" class="node">
<title>Node11</title>
<g id="a_node11"><a xlink:href="classJSULink.html" target="_top" xlink:title=" ">
<polygon fill="white" stroke="#666666" points="241,-727 128,-727 128,-708 241,-708 241,-727"/>
<text text-anchor="middle" x="184.5" y="-715" font-family="Helvetica,sans-Serif" font-size="10.00">JSULink&lt; JASHeap &gt;</text>
</a>
</g>
</g>
<!-- Node1&#45;&gt;Node11 -->
<g id="edge10" class="edge">
<title>Node1&#45;&gt;Node11</title>
<path fill="none" stroke="#63b8ff" d="M35.68,-516.78C38.23,-558.42 50.01,-650.83 104,-699.5 110.73,-705.56 119.06,-709.72 127.77,-712.55"/>
<polygon fill="#63b8ff" stroke="#63b8ff" points="39.19,-516.72 35.22,-506.89 32.19,-517.05 39.19,-516.72"/>
</g>
<!-- Node12 -->
<g id="node12" class="node">
<title>Node12</title>
<g id="a_node12"><a xlink:href="classJSULink.html" target="_top" xlink:title=" ">
<polygon fill="white" stroke="#666666" points="246.5,-690 122.5,-690 122.5,-671 246.5,-671 246.5,-690"/>
<text text-anchor="middle" x="184.5" y="-678" font-family="Helvetica,sans-Serif" font-size="10.00">JSULink&lt; JAUSection &gt;</text>
</a>
</g>
</g>
<!-- Node1&#45;&gt;Node12 -->
<g id="edge11" class="edge">
<title>Node1&#45;&gt;Node12</title>
<path fill="none" stroke="#63b8ff" d="M37.48,-516.58C42.85,-552.29 58.94,-624.49 104,-662.5 109.3,-666.97 115.48,-670.39 122.02,-673"/>
<polygon fill="#63b8ff" stroke="#63b8ff" points="40.96,-516.15 36.16,-506.71 34.02,-517.09 40.96,-516.15"/>
</g>
<!-- Node13 -->
<g id="node13" class="node">
<title>Node13</title>
<g id="a_node13"><a xlink:href="classJSULink.html" target="_top" xlink:title=" ">
<polygon fill="white" stroke="#666666" points="243,-653 126,-653 126,-634 243,-634 243,-653"/>
<text text-anchor="middle" x="184.5" y="-641" font-family="Helvetica,sans-Serif" font-size="10.00">JSULink&lt; JFWAlarm &gt;</text>
</a>
</g>
</g>
<!-- Node1&#45;&gt;Node13 -->
<g id="edge12" class="edge">
<title>Node1&#45;&gt;Node13</title>
<path fill="none" stroke="#63b8ff" d="M40.18,-516.41C48.52,-545.52 67.77,-597.8 104,-625.5 110.41,-630.4 117.9,-634.01 125.69,-636.66"/>
<polygon fill="#63b8ff" stroke="#63b8ff" points="43.62,-515.71 37.65,-506.96 36.85,-517.52 43.62,-515.71"/>
</g>
<!-- Node14 -->
<g id="node14" class="node">
<title>Node14</title>
<g id="a_node14"><a xlink:href="classJSULink.html" target="_top" xlink:title=" ">
<polygon fill="white" stroke="#666666" points="258.5,-616 110.5,-616 110.5,-597 258.5,-597 258.5,-616"/>
<text text-anchor="middle" x="184.5" y="-604" font-family="Helvetica,sans-Serif" font-size="10.00">JSULink&lt; JKRADCommand &gt;</text>
</a>
</g>
</g>
<!-- Node1&#45;&gt;Node14 -->
<g id="edge13" class="edge">
<title>Node1&#45;&gt;Node14</title>
<path fill="none" stroke="#63b8ff" d="M44.54,-515.75C55.72,-537.21 76.3,-570.45 104,-588.5 108.98,-591.75 114.46,-594.41 120.16,-596.6"/>
<polygon fill="#63b8ff" stroke="#63b8ff" points="47.69,-514.23 40.1,-506.83 41.42,-517.34 47.69,-514.23"/>
</g>
<!-- Node15 -->
<g id="node15" class="node">
<title>Node15</title>
<g id="a_node15"><a xlink:href="classJSULink.html" target="_top" xlink:title=" ">
<polygon fill="white" stroke="#666666" points="259,-579 110,-579 110,-560 259,-560 259,-579"/>
<text text-anchor="middle" x="184.5" y="-567" font-family="Helvetica,sans-Serif" font-size="10.00">JSULink&lt; JKRAMCommand &gt;</text>
</a>
</g>
</g>
<!-- Node1&#45;&gt;Node15 -->
<g id="edge14" class="edge">
<title>Node1&#45;&gt;Node15</title>
<path fill="none" stroke="#63b8ff" d="M52.31,-513.4C65.39,-525.89 84.38,-541.97 104,-551.5 110.62,-554.72 117.83,-557.37 125.12,-559.55"/>
<polygon fill="#63b8ff" stroke="#63b8ff" points="54.92,-511.05 45.35,-506.51 50,-516.03 54.92,-511.05"/>
</g>
<!-- Node16 -->
<g id="node16" class="node">
<title>Node16</title>
<g id="a_node16"><a xlink:href="classJSULink.html" target="_top" xlink:title=" ">
<polygon fill="white" stroke="#666666" points="253.5,-542 115.5,-542 115.5,-523 253.5,-523 253.5,-542"/>
<text text-anchor="middle" x="184.5" y="-530" font-family="Helvetica,sans-Serif" font-size="10.00">JSULink&lt; JKRAramBlock &gt;</text>
</a>
</g>
</g>
<!-- Node1&#45;&gt;Node16 -->
<g id="edge15" class="edge">
<title>Node1&#45;&gt;Node16</title>
<path fill="none" stroke="#63b8ff" d="M79.21,-508C87.43,-510.23 95.96,-512.48 104,-514.5 114.98,-517.25 126.86,-520.04 138.01,-522.58"/>
<polygon fill="#63b8ff" stroke="#63b8ff" points="80.29,-504.67 69.72,-505.39 78.44,-511.42 80.29,-504.67"/>
</g>
<!-- Node17 -->
<g id="node17" class="node">
<title>Node17</title>
<g id="a_node17"><a xlink:href="classJSULink.html" target="_top" xlink:title=" ">
<polygon fill="white" stroke="#666666" points="248.5,-505 120.5,-505 120.5,-486 248.5,-486 248.5,-505"/>
<text text-anchor="middle" x="184.5" y="-493" font-family="Helvetica,sans-Serif" font-size="10.00">JSULink&lt; JKRDisposer &gt;</text>
</a>
</g>
</g>
<!-- Node1&#45;&gt;Node17 -->
<g id="edge16" class="edge">
<title>Node1&#45;&gt;Node17</title>
<path fill="none" stroke="#63b8ff" d="M79.59,-495.5C92.34,-495.5 106.49,-495.5 120.14,-495.5"/>
<polygon fill="#63b8ff" stroke="#63b8ff" points="79.84,-492 69.84,-495.5 79.84,-499 79.84,-492"/>
</g>
<!-- Node18 -->
<g id="node18" class="node">
<title>Node18</title>
<g id="a_node18"><a xlink:href="classJSULink.html" target="_top" xlink:title=" ">
<polygon fill="white" stroke="#666666" points="246,-468 123,-468 123,-449 246,-449 246,-468"/>
<text text-anchor="middle" x="184.5" y="-456" font-family="Helvetica,sans-Serif" font-size="10.00">JSULink&lt; JKRDvdFile &gt;</text>
</a>
</g>
</g>
<!-- Node1&#45;&gt;Node18 -->
<g id="edge17" class="edge">
<title>Node1&#45;&gt;Node18</title>
<path fill="none" stroke="#63b8ff" d="M79.25,-483.81C87.47,-481.68 95.99,-479.5 104,-477.5 115.98,-474.51 129,-471.35 140.96,-468.49"/>
<polygon fill="#63b8ff" stroke="#63b8ff" points="78.56,-480.37 69.77,-486.28 80.33,-487.15 78.56,-480.37"/>
</g>
<!-- Node19 -->
<g id="node19" class="node">
<title>Node19</title>
<g id="a_node19"><a xlink:href="classJSULink.html" target="_top" xlink:title=" ">
<polygon fill="white" stroke="#666666" points="247,-430.5 122,-430.5 122,-400.5 247,-400.5 247,-430.5"/>
<text text-anchor="start" x="130" y="-418.5" font-family="Helvetica,sans-Serif" font-size="10.00">JSULink&lt; JKRFileCache</text>
<text text-anchor="middle" x="184.5" y="-407.5" font-family="Helvetica,sans-Serif" font-size="10.00">::CCacheBlock &gt;</text>
</a>
</g>
</g>
<!-- Node1&#45;&gt;Node19 -->
<g id="edge18" class="edge">
<title>Node1&#45;&gt;Node19</title>
<path fill="none" stroke="#63b8ff" d="M53.07,-478C66.27,-466.02 85.1,-450.55 104,-440.5 110.77,-436.9 118.14,-433.72 125.58,-430.94"/>
<polygon fill="#63b8ff" stroke="#63b8ff" points="50.93,-475.21 46,-484.59 55.7,-480.32 50.93,-475.21"/>
</g>
<!-- Node20 -->
<g id="node20" class="node">
<title>Node20</title>
<g id="a_node20"><a xlink:href="classJSULink.html" target="_top" xlink:title=" ">
<polygon fill="white" stroke="#666666" points="252.5,-382 116.5,-382 116.5,-363 252.5,-363 252.5,-382"/>
<text text-anchor="middle" x="184.5" y="-370" font-family="Helvetica,sans-Serif" font-size="10.00">JSULink&lt; JKRFileLoader &gt;</text>
</a>
</g>
</g>
<!-- Node1&#45;&gt;Node20 -->
<g id="edge19" class="edge">
<title>Node1&#45;&gt;Node20</title>
<path fill="none" stroke="#63b8ff" d="M43.02,-475.06C53.43,-451.25 73.91,-412.52 104,-391.5 109.23,-387.84 115.09,-384.88 121.17,-382.49"/>
<polygon fill="#63b8ff" stroke="#63b8ff" points="39.79,-473.71 39.19,-484.29 46.25,-476.4 39.79,-473.71"/>
</g>
<!-- Node21 -->
<g id="node21" class="node">
<title>Node21</title>
<g id="a_node21"><a xlink:href="classJSULink.html" target="_top" xlink:title=" ">
<polygon fill="white" stroke="#666666" points="241,-345 128,-345 128,-326 241,-326 241,-345"/>
<text text-anchor="middle" x="184.5" y="-333" font-family="Helvetica,sans-Serif" font-size="10.00">JSULink&lt; JKRHeap &gt;</text>
</a>
</g>
</g>
<!-- Node1&#45;&gt;Node21 -->
<g id="edge20" class="edge">
<title>Node1&#45;&gt;Node21</title>
<path fill="none" stroke="#63b8ff" d="M39.27,-474.7C46.75,-443.65 65.3,-385.49 104,-354.5 110.87,-349 119.07,-345.05 127.56,-342.22"/>
<polygon fill="#63b8ff" stroke="#63b8ff" points="35.87,-473.86 37.11,-484.38 42.7,-475.38 35.87,-473.86"/>
</g>
<!-- Node22 -->
<g id="node22" class="node">
<title>Node22</title>
<g id="a_node22"><a xlink:href="classJSULink.html" target="_top" xlink:title=" ">
<polygon fill="white" stroke="#666666" points="244.5,-308 124.5,-308 124.5,-289 244.5,-289 244.5,-308"/>
<text text-anchor="middle" x="184.5" y="-296" font-family="Helvetica,sans-Serif" font-size="10.00">JSULink&lt; JKRThread &gt;</text>
</a>
</g>
</g>
<!-- Node1&#45;&gt;Node22 -->
<g id="edge21" class="edge">
<title>Node1&#45;&gt;Node22</title>
<path fill="none" stroke="#63b8ff" d="M36.9,-474.64C41.46,-437.29 56.45,-359.02 104,-317.5 109.88,-312.37 116.9,-308.56 124.3,-305.75"/>
<polygon fill="#63b8ff" stroke="#63b8ff" points="33.47,-473.81 35.89,-484.12 40.43,-474.55 33.47,-473.81"/>
</g>
<!-- Node23 -->
<g id="node23" class="node">
<title>Node23</title>
<g id="a_node23"><a xlink:href="classJSULink.html" target="_top" xlink:title=" ">
<polygon fill="white" stroke="#666666" points="256,-271 113,-271 113,-252 256,-252 256,-271"/>
<text text-anchor="middle" x="184.5" y="-259" font-family="Helvetica,sans-Serif" font-size="10.00">JSULink&lt; JPABaseEmitter &gt;</text>
</a>
</g>
</g>
<!-- Node1&#45;&gt;Node23 -->
<g id="edge22" class="edge">
<title>Node1&#45;&gt;Node23</title>
<path fill="none" stroke="#63b8ff" d="M35.3,-474.33C37.12,-431.18 47.6,-332.77 104,-280.5 107.96,-276.83 112.49,-273.84 117.34,-271.39"/>
<polygon fill="#63b8ff" stroke="#63b8ff" points="31.81,-474 35.02,-484.1 38.81,-474.2 31.81,-474"/>
</g>
<!-- Node24 -->
<g id="node24" class="node">
<title>Node24</title>
<g id="a_node24"><a xlink:href="classJSULink.html" target="_top" xlink:title=" ">
<polygon fill="white" stroke="#666666" points="246.5,-233.5 122.5,-233.5 122.5,-203.5 246.5,-203.5 246.5,-233.5"/>
<text text-anchor="start" x="130.5" y="-221.5" font-family="Helvetica,sans-Serif" font-size="10.00">JSULink&lt; JUTException</text>
<text text-anchor="middle" x="184.5" y="-210.5" font-family="Helvetica,sans-Serif" font-size="10.00">::JUTExMapFile &gt;</text>
</a>
</g>
</g>
<!-- Node1&#45;&gt;Node24 -->
<g id="edge23" class="edge">
<title>Node1&#45;&gt;Node24</title>
<path fill="none" stroke="#63b8ff" d="M34.43,-474.42C34.31,-426.61 40.87,-309.04 104,-243.5 109.12,-238.19 115.35,-234 122.06,-230.7"/>
<polygon fill="#63b8ff" stroke="#63b8ff" points="30.92,-474.25 34.57,-484.2 37.92,-474.15 30.92,-474.25"/>
</g>
<!-- Node25 -->
<g id="node25" class="node">
<title>Node25</title>
<g id="a_node25"><a xlink:href="classJSULink.html" target="_top" xlink:title=" ">
<polygon fill="white" stroke="#666666" points="251.5,-185 117.5,-185 117.5,-166 251.5,-166 251.5,-185"/>
<text text-anchor="middle" x="184.5" y="-173" font-family="Helvetica,sans-Serif" font-size="10.00">JSULink&lt; JUTGamePad &gt;</text>
</a>
</g>
</g>
<!-- Node1&#45;&gt;Node25 -->
<g id="edge24" class="edge">
<title>Node1&#45;&gt;Node25</title>
<path fill="none" stroke="#63b8ff" d="M37,-474.18C43.23,-412.3 64.28,-234.59 104,-194.5 107.9,-190.57 112.45,-187.39 117.37,-184.84"/>
<polygon fill="#63b8ff" stroke="#63b8ff" points="33.53,-473.73 36.04,-484.02 40.49,-474.41 33.53,-473.73"/>
</g>
<!-- Node26 -->
<g id="node26" class="node">
<title>Node26</title>
<g id="a_node26"><a xlink:href="classJSULink.html" target="_top" xlink:title=" ">
<polygon fill="white" stroke="#666666" points="259,-148 110,-148 110,-129 259,-129 259,-148"/>
<text text-anchor="middle" x="184.5" y="-136" font-family="Helvetica,sans-Serif" font-size="10.00">JSULink&lt; Z2CreatureCitizen &gt;</text>
</a>
</g>
</g>
<!-- Node1&#45;&gt;Node26 -->
<g id="edge25" class="edge">
<title>Node1&#45;&gt;Node26</title>
<path fill="none" stroke="#63b8ff" d="M36.41,-474.24C41.29,-407.43 59.59,-203.41 104,-157.5 107.55,-153.83 111.68,-150.81 116.14,-148.34"/>
<polygon fill="#63b8ff" stroke="#63b8ff" points="32.92,-473.96 35.72,-484.18 39.91,-474.44 32.92,-473.96"/>
</g>
<!-- Node27 -->
<g id="node27" class="node">
<title>Node27</title>
<g id="a_node27"><a xlink:href="classJSULink.html" target="_top" xlink:title=" ">
<polygon fill="white" stroke="#666666" points="259,-111 110,-111 110,-92 259,-92 259,-111"/>
<text text-anchor="middle" x="184.5" y="-99" font-family="Helvetica,sans-Serif" font-size="10.00">JSULink&lt; Z2CreatureEnemy &gt;</text>
</a>
</g>
</g>
<!-- Node1&#45;&gt;Node27 -->
<g id="edge26" class="edge">
<title>Node1&#45;&gt;Node27</title>
<path fill="none" stroke="#63b8ff" d="M35.91,-474.2C39.43,-402.44 54.47,-171.12 104,-119.5 107.04,-116.33 110.51,-113.67 114.25,-111.44"/>
<polygon fill="#63b8ff" stroke="#63b8ff" points="32.42,-474 35.45,-484.15 39.41,-474.32 32.42,-474"/>
</g>
<!-- Node28 -->
<g id="node28" class="node">
<title>Node28</title>
<g id="a_node28"><a xlink:href="classJSULink.html" target="_top" xlink:title=" ">
<polygon fill="white" stroke="#666666" points="223,-74 146,-74 146,-55 223,-55 223,-74"/>
<text text-anchor="middle" x="184.5" y="-62" font-family="Helvetica,sans-Serif" font-size="10.00">JSULink&lt; T &gt;</text>
</a>
</g>
</g>
<!-- Node1&#45;&gt;Node28 -->
<g id="edge27" class="edge">
<title>Node1&#45;&gt;Node28</title>
<path fill="none" stroke="#63b8ff" d="M35.52,-474.6C37.82,-398.84 49.62,-140.08 104,-82.5 114.69,-71.18 130.87,-66.27 145.85,-64.34"/>
<polygon fill="#63b8ff" stroke="#63b8ff" points="32.03,-474.23 35.25,-484.32 39.02,-474.42 32.03,-474.23"/>
</g>
<!-- Node3 -->
<g id="node3" class="node">
<title>Node3</title>
<g id="a_node3"><a xlink:href="classJAISe.html" target="_top" xlink:title=" ">
<polygon fill="white" stroke="#666666" points="380,-912 336,-912 336,-893 380,-893 380,-912"/>
<text text-anchor="middle" x="358" y="-900" font-family="Helvetica,sans-Serif" font-size="10.00">JAISe</text>
</a>
</g>
</g>
<!-- Node2&#45;&gt;Node3 -->
<g id="edge2" class="edge">
<title>Node2&#45;&gt;Node3</title>
<path fill="none" stroke="#63b8ff" d="M245.02,-902.5C276.41,-902.5 312.98,-902.5 335.57,-902.5"/>
<polygon fill="#63b8ff" stroke="#63b8ff" points="245.24,-899 235.24,-902.5 245.24,-906 245.24,-899"/>
</g>
<!-- Node5 -->
<g id="node5" class="node">
<title>Node5</title>
<g id="a_node5"><a xlink:href="structJAISeq.html" target="_top" xlink:title=" ">
<polygon fill="white" stroke="#666666" points="382.5,-875 333.5,-875 333.5,-856 382.5,-856 382.5,-875"/>
<text text-anchor="middle" x="358" y="-863" font-family="Helvetica,sans-Serif" font-size="10.00">JAISeq</text>
</a>
</g>
</g>
<!-- Node4&#45;&gt;Node5 -->
<g id="edge4" class="edge">
<title>Node4&#45;&gt;Node5</title>
<path fill="none" stroke="#8b1a1a" d="M248.08,-865.5C277.7,-865.5 311.31,-865.5 333.26,-865.5"/>
<polygon fill="#8b1a1a" stroke="#8b1a1a" points="248.47,-862 238.47,-865.5 248.47,-869 248.47,-862"/>
</g>
<!-- Node7 -->
<g id="node7" class="node">
<title>Node7</title>
<g id="a_node7"><a xlink:href="classJAIStream.html" target="_top" xlink:title=" ">
<polygon fill="white" stroke="#666666" points="389.5,-838 326.5,-838 326.5,-819 389.5,-819 389.5,-838"/>
<text text-anchor="middle" x="358" y="-826" font-family="Helvetica,sans-Serif" font-size="10.00">JAIStream</text>
</a>
</g>
</g>
<!-- Node6&#45;&gt;Node7 -->
<g id="edge6" class="edge">
<title>Node6&#45;&gt;Node7</title>
<path fill="none" stroke="#8b1a1a" d="M254.83,-828.5C279.73,-828.5 306.54,-828.5 326.45,-828.5"/>
<polygon fill="#8b1a1a" stroke="#8b1a1a" points="255.08,-825 245.08,-828.5 255.08,-832 255.08,-825"/>
</g>
<!-- Node9 -->
<g id="node9" class="node">
<title>Node9</title>
<g id="a_node9"><a xlink:href="classZ2SoundHandlePool.html" target="_top" xlink:title=" ">
<polygon fill="white" stroke="#666666" points="411,-801 305,-801 305,-782 411,-782 411,-801"/>
<text text-anchor="middle" x="358" y="-789" font-family="Helvetica,sans-Serif" font-size="10.00">Z2SoundHandlePool</text>
</a>
</g>
</g>
<!-- Node8&#45;&gt;Node9 -->
<g id="edge8" class="edge">
<title>Node8&#45;&gt;Node9</title>
<path fill="none" stroke="#8b1a1a" d="M276.69,-791.5C286.23,-791.5 295.69,-791.5 304.57,-791.5"/>
<polygon fill="#8b1a1a" stroke="#8b1a1a" points="276.99,-788 266.99,-791.5 276.99,-795 276.99,-788"/>
</g>
<!-- Node29 -->
<g id="node29" class="node">
<title>Node29</title>
<g id="a_node29"><a xlink:href="classJSUTree.html" target="_top" xlink:title=" ">
<polygon fill="white" stroke="#666666" points="414,-130 302,-130 302,-111 414,-111 414,-130"/>
<text text-anchor="middle" x="358" y="-118" font-family="Helvetica,sans-Serif" font-size="10.00">JSUTree&lt; J2DPane &gt;</text>
</a>
</g>
</g>
<!-- Node28&#45;&gt;Node29 -->
<g id="edge28" class="edge">
<title>Node28&#45;&gt;Node29</title>
<path fill="none" stroke="#63b8ff" d="M234.26,-73.41C244.56,-75.88 255.25,-78.9 265,-82.5 281.97,-88.77 284.38,-94.35 301,-101.5 308.54,-104.75 316.84,-107.82 324.69,-110.51"/>
<polygon fill="#63b8ff" stroke="#63b8ff" points="235.3,-70.06 224.77,-71.27 233.76,-76.88 235.3,-70.06"/>
</g>
<!-- Node30 -->
<g id="node30" class="node">
<title>Node30</title>
<g id="a_node30"><a xlink:href="classJSUTree.html" target="_top" xlink:title=" ">
<polygon fill="white" stroke="#666666" points="415,-93 301,-93 301,-74 415,-74 415,-93"/>
<text text-anchor="middle" x="358" y="-81" font-family="Helvetica,sans-Serif" font-size="10.00">JSUTree&lt; JASHeap &gt;</text>
</a>
</g>
</g>
<!-- Node28&#45;&gt;Node30 -->
<g id="edge29" class="edge">
<title>Node28&#45;&gt;Node30</title>
<path fill="none" stroke="#63b8ff" d="M234.5,-69.93C255.11,-72.21 279.2,-74.88 300.55,-77.25"/>
<polygon fill="#63b8ff" stroke="#63b8ff" points="234.97,-66.46 224.64,-68.84 234.19,-73.42 234.97,-66.46"/>
</g>
<!-- Node31 -->
<g id="node31" class="node">
<title>Node31</title>
<g id="a_node31"><a xlink:href="classJSUTree.html" target="_top" xlink:title=" ">
<polygon fill="white" stroke="#666666" points="415,-56 301,-56 301,-37 415,-37 415,-56"/>
<text text-anchor="middle" x="358" y="-44" font-family="Helvetica,sans-Serif" font-size="10.00">JSUTree&lt; JKRHeap &gt;</text>
</a>
</g>
</g>
<!-- Node28&#45;&gt;Node31 -->
<g id="edge30" class="edge">
<title>Node28&#45;&gt;Node31</title>
<path fill="none" stroke="#63b8ff" d="M234.5,-59.36C255.11,-57.19 279.2,-54.67 300.55,-52.43"/>
<polygon fill="#63b8ff" stroke="#63b8ff" points="234.22,-55.87 224.64,-60.39 234.95,-62.83 234.22,-55.87"/>
</g>
<!-- Node32 -->
<g id="node32" class="node">
<title>Node32</title>
<g id="a_node32"><a xlink:href="classJSUTree.html" target="_top" xlink:title=" ">
<polygon fill="white" stroke="#666666" points="397,-19 319,-19 319,0 397,0 397,-19"/>
<text text-anchor="middle" x="358" y="-7" font-family="Helvetica,sans-Serif" font-size="10.00">JSUTree&lt; T &gt;</text>
</a>
</g>
</g>
<!-- Node28&#45;&gt;Node32 -->
<g id="edge31" class="edge">
<title>Node28&#45;&gt;Node32</title>
<path fill="none" stroke="#63b8ff" d="M227.27,-51.1C257.7,-41.34 298.27,-28.33 325.88,-19.48"/>
<polygon fill="#63b8ff" stroke="#63b8ff" points="226.45,-47.69 218,-54.08 228.59,-54.36 226.45,-47.69"/>
</g>
</g>
</svg>
