<?xml version="1.0" encoding="UTF-8" standalone="no"?>
<!DOCTYPE svg PUBLIC "-//W3C//DTD SVG 1.1//EN"
 "http://www.w3.org/Graphics/SVG/1.1/DTD/svg11.dtd">
<!-- Generated by graphviz version 7.0.5 (20221223.1930)
 -->
<!-- Title: JAISeq Pages: 1 -->
<svg width="1281pt" height="926pt"
 viewBox="0.00 0.00 1281.00 926.00" xmlns="http://www.w3.org/2000/svg" xmlns:xlink="http://www.w3.org/1999/xlink">
<g id="graph0" class="graph" transform="scale(1 1) rotate(0) translate(4 922)">
<title>JAISeq</title>
<!-- Node1 -->
<g id="node1" class="node">
<title>Node1</title>
<g id="a_node1"><a xlink:title=" ">
<polygon fill="#999999" stroke="#666666" points="1252.5,-597 1203.5,-597 1203.5,-578 1252.5,-578 1252.5,-597"/>
<text text-anchor="middle" x="1228" y="-585" font-family="Helvetica,sans-Serif" font-size="10.00">JAISeq</text>
</a>
</g>
</g>
<!-- Node2 -->
<g id="node2" class="node">
<title>Node2</title>
<g id="a_node2"><a xlink:href="classJAISound.html" target="_top" xlink:title=" ">
<polygon fill="white" stroke="#666666" points="1068,-806 1009,-806 1009,-787 1068,-787 1068,-806"/>
<text text-anchor="middle" x="1038.5" y="-794" font-family="Helvetica,sans-Serif" font-size="10.00">JAISound</text>
</a>
</g>
</g>
<!-- Node2&#45;&gt;Node1 -->
<g id="edge1" class="edge">
<title>Node2&#45;&gt;Node1</title>
<path fill="none" stroke="#63b8ff" d="M1055.78,-778.35C1094.19,-735.54 1189.39,-629.43 1218.44,-597.04"/>
<polygon fill="#63b8ff" stroke="#63b8ff" points="1053.38,-775.79 1049.3,-785.57 1058.59,-780.47 1053.38,-775.79"/>
</g>
<!-- Node3 -->
<g id="node3" class="node">
<title>Node3</title>
<g id="a_node3"><a xlink:href="structJAISoundHandle.html" target="_top" xlink:title=" ">
<polygon fill="white" stroke="#666666" points="1273,-806 1183,-806 1183,-787 1273,-787 1273,-806"/>
<text text-anchor="middle" x="1228" y="-794" font-family="Helvetica,sans-Serif" font-size="10.00">JAISoundHandle</text>
</a>
</g>
</g>
<!-- Node2&#45;&gt;Node3 -->
<g id="edge3" class="edge">
<title>Node2&#45;&gt;Node3</title>
<path fill="none" stroke="#9a32cd" stroke-dasharray="5,2" d="M1079.8,-796.5C1110.08,-796.5 1151.52,-796.5 1182.72,-796.5"/>
<polygon fill="#9a32cd" stroke="#9a32cd" points="1079.9,-793 1069.9,-796.5 1079.9,-800 1079.9,-793"/>
<text text-anchor="middle" x="1139.5" y="-799.5" font-family="Helvetica,sans-Serif" font-size="10.00"> sound_</text>
</g>
<!-- Node3&#45;&gt;Node2 -->
<g id="edge2" class="edge">
<title>Node3&#45;&gt;Node2</title>
<path fill="none" stroke="#9a32cd" stroke-dasharray="5,2" d="M1183.78,-783.87C1177.53,-782.47 1171.13,-781.28 1165,-780.5 1142.51,-777.65 1136.54,-778.11 1114,-780.5 1098.74,-782.12 1082.01,-785.56 1068.28,-788.83"/>
<polygon fill="#9a32cd" stroke="#9a32cd" points="1182.79,-787.23 1193.33,-786.19 1184.44,-780.43 1182.79,-787.23"/>
<text text-anchor="middle" x="1139.5" y="-783.5" font-family="Helvetica,sans-Serif" font-size="10.00"> handle_</text>
</g>
<!-- Node4 -->
<g id="node4" class="node">
<title>Node4</title>
<g id="a_node4"><a xlink:href="classJAIAudible.html" target="_top" xlink:title=" ">
<polygon fill="white" stroke="#666666" points="817,-844 753,-844 753,-825 817,-825 817,-844"/>
<text text-anchor="middle" x="785" y="-832" font-family="Helvetica,sans-Serif" font-size="10.00">JAIAudible</text>
</a>
</g>
</g>
<!-- Node4&#45;&gt;Node2 -->
<g id="edge4" class="edge">
<title>Node4&#45;&gt;Node2</title>
<path fill="none" stroke="#9a32cd" stroke-dasharray="5,2" d="M828.44,-829.36C864.35,-824.87 917.15,-817.91 963,-810.5 978.07,-808.06 994.78,-804.96 1008.55,-802.3"/>
<polygon fill="#9a32cd" stroke="#9a32cd" points="828.4,-825.84 818.91,-830.55 829.26,-832.79 828.4,-825.84"/>
<text text-anchor="middle" x="911" y="-827.5" font-family="Helvetica,sans-Serif" font-size="10.00"> audible_</text>
</g>
<!-- Node5 -->
<g id="node5" class="node">
<title>Node5</title>
<g id="a_node5"><a xlink:href="structJGeometry_1_1TVec3.html" target="_top" xlink:title=" ">
<polygon fill="white" stroke="#666666" points="615,-844 484,-844 484,-825 615,-825 615,-844"/>
<text text-anchor="middle" x="549.5" y="-832" font-family="Helvetica,sans-Serif" font-size="10.00">JGeometry::TVec3&lt; float &gt;</text>
</a>
</g>
</g>
<!-- Node5&#45;&gt;Node4 -->
<g id="edge5" class="edge">
<title>Node5&#45;&gt;Node4</title>
<path fill="none" stroke="#9a32cd" stroke-dasharray="5,2" d="M626.5,-834.5C669.35,-834.5 720.57,-834.5 752.7,-834.5"/>
<polygon fill="#9a32cd" stroke="#9a32cd" points="626.75,-831 616.75,-834.5 626.75,-838 626.75,-831"/>
<text text-anchor="middle" x="672" y="-837.5" font-family="Helvetica,sans-Serif" font-size="10.00"> mPos</text>
</g>
<!-- Node6 -->
<g id="node6" class="node">
<title>Node6</title>
<g id="a_node6"><a xlink:href="structJAIAudience.html" target="_top" xlink:title=" ">
<polygon fill="white" stroke="#666666" points="585.5,-767 513.5,-767 513.5,-748 585.5,-748 585.5,-767"/>
<text text-anchor="middle" x="549.5" y="-755" font-family="Helvetica,sans-Serif" font-size="10.00">JAIAudience</text>
</a>
</g>
</g>
<!-- Node6&#45;&gt;Node2 -->
<g id="edge6" class="edge">
<title>Node6&#45;&gt;Node2</title>
<path fill="none" stroke="#9a32cd" stroke-dasharray="5,2" d="M597.15,-757.98C673.84,-759.3 831.19,-764.22 963,-782.5 978.12,-784.6 994.84,-787.67 1008.59,-790.4"/>
<polygon fill="#9a32cd" stroke="#9a32cd" points="597.56,-754.49 587.51,-757.83 597.45,-761.49 597.56,-754.49"/>
<text text-anchor="middle" x="785" y="-771.5" font-family="Helvetica,sans-Serif" font-size="10.00"> audience_</text>
</g>
<!-- Node33 -->
<g id="node33" class="node">
<title>Node33</title>
<g id="a_node33"><a xlink:href="structJAISeqMgr.html" target="_top" xlink:title=" ">
<polygon fill="white" stroke="#666666" points="817.5,-567 752.5,-567 752.5,-548 817.5,-548 817.5,-567"/>
<text text-anchor="middle" x="785" y="-555" font-family="Helvetica,sans-Serif" font-size="10.00">JAISeqMgr</text>
</a>
</g>
</g>
<!-- Node6&#45;&gt;Node33 -->
<g id="edge48" class="edge">
<title>Node6&#45;&gt;Node33</title>
<path fill="none" stroke="#9a32cd" stroke-dasharray="5,2" d="M596.78,-745.18C602.93,-743.37 609.14,-741.45 615,-739.5 623.14,-736.79 624.88,-735.27 633,-732.5 667.21,-720.83 683.47,-732.92 711,-709.5 722.98,-699.3 766.33,-599.02 779.9,-567.16"/>
<polygon fill="#9a32cd" stroke="#9a32cd" points="595.94,-741.78 587.3,-747.9 597.87,-748.51 595.94,-741.78"/>
<text text-anchor="middle" x="672" y="-735.5" font-family="Helvetica,sans-Serif" font-size="10.00"> mAudience</text>
</g>
<!-- Node7 -->
<g id="node7" class="node">
<title>Node7</title>
<g id="a_node7"><a xlink:href="structJAISoundID.html" target="_top" xlink:title=" ">
<polygon fill="white" stroke="#666666" points="819.5,-918 750.5,-918 750.5,-899 819.5,-899 819.5,-918"/>
<text text-anchor="middle" x="785" y="-906" font-family="Helvetica,sans-Serif" font-size="10.00">JAISoundID</text>
</a>
</g>
</g>
<!-- Node7&#45;&gt;Node2 -->
<g id="edge7" class="edge">
<title>Node7&#45;&gt;Node2</title>
<path fill="none" stroke="#9a32cd" stroke-dasharray="5,2" d="M830.82,-908.87C868.28,-907.38 921.99,-900.94 963,-878.5 995.23,-860.87 1020.84,-823.9 1031.76,-806.26"/>
<polygon fill="#9a32cd" stroke="#9a32cd" points="831.16,-905.36 821.27,-909.14 831.36,-912.36 831.16,-905.36"/>
<text text-anchor="middle" x="911" y="-909.5" font-family="Helvetica,sans-Serif" font-size="10.00"> soundID</text>
</g>
<!-- Node8 -->
<g id="node8" class="node">
<title>Node8</title>
<g id="a_node8"><a xlink:href="structJAISoundStatus__.html" target="_top" xlink:title=" ">
<polygon fill="white" stroke="#666666" points="831.5,-881 738.5,-881 738.5,-862 831.5,-862 831.5,-881"/>
<text text-anchor="middle" x="785" y="-869" font-family="Helvetica,sans-Serif" font-size="10.00">JAISoundStatus_</text>
</a>
</g>
</g>
<!-- Node8&#45;&gt;Node2 -->
<g id="edge8" class="edge">
<title>Node8&#45;&gt;Node2</title>
<path fill="none" stroke="#9a32cd" stroke-dasharray="5,2" d="M842.96,-866.25C878.31,-861.77 924.24,-853.7 963,-839.5 985.58,-831.23 1009.22,-816.35 1023.66,-806.45"/>
<polygon fill="#9a32cd" stroke="#9a32cd" points="842.88,-862.73 833.37,-867.4 843.72,-869.68 842.88,-862.73"/>
<text text-anchor="middle" x="911" y="-866.5" font-family="Helvetica,sans-Serif" font-size="10.00"> status_</text>
</g>
<!-- Node9 -->
<g id="node9" class="node">
<title>Node9</title>
<g id="a_node9"><a xlink:href="structJAISoundFader.html" target="_top" xlink:title=" ">
<polygon fill="white" stroke="#666666" points="466,-742 382,-742 382,-723 466,-723 466,-742"/>
<text text-anchor="middle" x="424" y="-730" font-family="Helvetica,sans-Serif" font-size="10.00">JAISoundFader</text>
</a>
</g>
</g>
<!-- Node9&#45;&gt;Node2 -->
<g id="edge9" class="edge">
<title>Node9&#45;&gt;Node2</title>
<path fill="none" stroke="#9a32cd" stroke-dasharray="5,2" d="M442.5,-750.05C453.43,-759.78 468.37,-771 484,-776.5 582.07,-811.02 909.41,-801.49 1008.7,-797.7"/>
<polygon fill="#9a32cd" stroke="#9a32cd" points="445.12,-747.71 435.43,-743.42 440.33,-752.81 445.12,-747.71"/>
<text text-anchor="middle" x="672" y="-803.5" font-family="Helvetica,sans-Serif" font-size="10.00"> fader</text>
</g>
<!-- Node10 -->
<g id="node10" class="node">
<title>Node10</title>
<g id="a_node10"><a xlink:href="structJAISoundParamsTransition_1_1TTransition.html" target="_top" xlink:title=" ">
<polygon fill="white" stroke="#666666" points="136,-510.5 0,-510.5 0,-480.5 136,-480.5 136,-510.5"/>
<text text-anchor="start" x="8" y="-498.5" font-family="Helvetica,sans-Serif" font-size="10.00">JAISoundParamsTransition</text>
<text text-anchor="middle" x="68" y="-487.5" font-family="Helvetica,sans-Serif" font-size="10.00">::TTransition</text>
</a>
</g>
</g>
<!-- Node10&#45;&gt;Node9 -->
<g id="edge10" class="edge">
<title>Node10&#45;&gt;Node9</title>
<path fill="none" stroke="#9a32cd" stroke-dasharray="5,2" d="M96.07,-517.9C127.13,-543.2 179.96,-585.08 228,-617.5 290.71,-659.82 369.37,-703.52 404.53,-722.6"/>
<polygon fill="#9a32cd" stroke="#9a32cd" points="98.67,-515.5 88.71,-511.87 94.23,-520.91 98.67,-515.5"/>
<text text-anchor="middle" x="182" y="-606.5" font-family="Helvetica,sans-Serif" font-size="10.00"> mTransition</text>
</g>
<!-- Node15 -->
<g id="node15" class="node">
<title>Node15</title>
<g id="a_node15"><a xlink:href="structJAISoundParamsTransition.html" target="_top" xlink:title=" ">
<polygon fill="white" stroke="#666666" points="364,-505 228,-505 228,-486 364,-486 364,-505"/>
<text text-anchor="middle" x="296" y="-493" font-family="Helvetica,sans-Serif" font-size="10.00">JAISoundParamsTransition</text>
</a>
</g>
</g>
<!-- Node10&#45;&gt;Node15 -->
<g id="edge16" class="edge">
<title>Node10&#45;&gt;Node15</title>
<path fill="none" stroke="#9a32cd" stroke-dasharray="5,2" d="M147.59,-495.5C173.69,-495.5 202.5,-495.5 227.67,-495.5"/>
<polygon fill="#9a32cd" stroke="#9a32cd" points="147.71,-492 137.71,-495.5 147.71,-499 147.71,-492"/>
<text text-anchor="middle" x="182" y="-542.5" font-family="Helvetica,sans-Serif" font-size="10.00"> mDolby</text>
<text text-anchor="middle" x="182" y="-531.5" font-family="Helvetica,sans-Serif" font-size="10.00">mFxMix</text>
<text text-anchor="middle" x="182" y="-520.5" font-family="Helvetica,sans-Serif" font-size="10.00">mPan</text>
<text text-anchor="middle" x="182" y="-509.5" font-family="Helvetica,sans-Serif" font-size="10.00">mPitch</text>
<text text-anchor="middle" x="182" y="-498.5" font-family="Helvetica,sans-Serif" font-size="10.00">mVolume</text>
</g>
<!-- Node31 -->
<g id="node31" class="node">
<title>Node31</title>
<g id="a_node31"><a xlink:href="classJAITempoMgr.html" target="_top" xlink:title=" ">
<polygon fill="white" stroke="#666666" points="711,-368 633,-368 633,-349 711,-349 711,-368"/>
<text text-anchor="middle" x="672" y="-356" font-family="Helvetica,sans-Serif" font-size="10.00">JAITempoMgr</text>
</a>
</g>
</g>
<!-- Node10&#45;&gt;Node31 -->
<g id="edge40" class="edge">
<title>Node10&#45;&gt;Node31</title>
<path fill="none" stroke="#9a32cd" stroke-dasharray="5,2" d="M147.28,-478.6C210.42,-465.37 301.64,-447.14 382,-434.5 485.03,-418.29 519.52,-448.47 615,-406.5 634.93,-397.74 653.08,-379.45 663.03,-368.15"/>
<polygon fill="#9a32cd" stroke="#9a32cd" points="146.76,-475.13 137.7,-480.62 148.2,-481.98 146.76,-475.13"/>
<text text-anchor="middle" x="296" y="-465.5" font-family="Helvetica,sans-Serif" font-size="10.00"> field_0x4</text>
</g>
<!-- Node11 -->
<g id="node11" class="node">
<title>Node11</title>
<g id="a_node11"><a xlink:href="structJAISoundParams.html" target="_top" xlink:title=" ">
<polygon fill="white" stroke="#666666" points="831.5,-710 738.5,-710 738.5,-691 831.5,-691 831.5,-710"/>
<text text-anchor="middle" x="785" y="-698" font-family="Helvetica,sans-Serif" font-size="10.00">JAISoundParams</text>
</a>
</g>
</g>
<!-- Node11&#45;&gt;Node2 -->
<g id="edge11" class="edge">
<title>Node11&#45;&gt;Node2</title>
<path fill="none" stroke="#9a32cd" stroke-dasharray="5,2" d="M842.9,-703.16C878.81,-706.64 925.35,-714.58 963,-732.5 991.02,-745.84 1016.85,-772.56 1029.45,-786.89"/>
<polygon fill="#9a32cd" stroke="#9a32cd" points="843.42,-699.69 833.15,-702.31 842.81,-706.66 843.42,-699.69"/>
<text text-anchor="middle" x="911" y="-735.5" font-family="Helvetica,sans-Serif" font-size="10.00"> params</text>
</g>
<!-- Node12 -->
<g id="node12" class="node">
<title>Node12</title>
<g id="a_node12"><a xlink:href="structJAISoundParamsProperty.html" target="_top" xlink:title=" ">
<polygon fill="white" stroke="#666666" points="614,-730 485,-730 485,-711 614,-711 614,-730"/>
<text text-anchor="middle" x="549.5" y="-718" font-family="Helvetica,sans-Serif" font-size="10.00">JAISoundParamsProperty</text>
</a>
</g>
</g>
<!-- Node12&#45;&gt;Node11 -->
<g id="edge12" class="edge">
<title>Node12&#45;&gt;Node11</title>
<path fill="none" stroke="#9a32cd" stroke-dasharray="5,2" d="M596.86,-707.6C613.41,-703.1 628.99,-699.03 633,-698.5 667.37,-694 676.34,-698.03 711,-698.5 719.75,-698.62 729.08,-698.82 738.05,-699.05"/>
<polygon fill="#9a32cd" stroke="#9a32cd" points="596.13,-704.17 587.41,-710.19 597.98,-710.92 596.13,-704.17"/>
<text text-anchor="middle" x="672" y="-701.5" font-family="Helvetica,sans-Serif" font-size="10.00"> mProperty</text>
</g>
<!-- Node13 -->
<g id="node13" class="node">
<title>Node13</title>
<g id="a_node13"><a xlink:href="structJAISoundParamsMove.html" target="_top" xlink:title=" ">
<polygon fill="white" stroke="#666666" points="608,-505 491,-505 491,-486 608,-486 608,-505"/>
<text text-anchor="middle" x="549.5" y="-493" font-family="Helvetica,sans-Serif" font-size="10.00">JAISoundParamsMove</text>
</a>
</g>
</g>
<!-- Node13&#45;&gt;Node11 -->
<g id="edge13" class="edge">
<title>Node13&#45;&gt;Node11</title>
<path fill="none" stroke="#9a32cd" stroke-dasharray="5,2" d="M612.35,-511.84C613.27,-512.69 614.16,-513.57 615,-514.5 643.58,-546 608.76,-573.55 633,-608.5 662.57,-651.13 718.9,-677.57 753.78,-690.62"/>
<polygon fill="#9a32cd" stroke="#9a32cd" points="614.57,-509.13 604.38,-506.22 610.54,-514.85 614.57,-509.13"/>
<text text-anchor="middle" x="672" y="-673.5" font-family="Helvetica,sans-Serif" font-size="10.00"> mMove</text>
</g>
<!-- Node30 -->
<g id="node30" class="node">
<title>Node30</title>
<g id="a_node30"><a xlink:href="structJAISoundChild.html" target="_top" xlink:title=" ">
<polygon fill="white" stroke="#666666" points="825.5,-468 744.5,-468 744.5,-449 825.5,-449 825.5,-468"/>
<text text-anchor="middle" x="785" y="-456" font-family="Helvetica,sans-Serif" font-size="10.00">JAISoundChild</text>
</a>
</g>
</g>
<!-- Node13&#45;&gt;Node30 -->
<g id="edge37" class="edge">
<title>Node13&#45;&gt;Node30</title>
<path fill="none" stroke="#9a32cd" stroke-dasharray="5,2" d="M599.31,-482.13C604.65,-480.37 609.97,-478.48 615,-476.5 623.32,-473.22 624.36,-469.81 633,-467.5 669.78,-457.65 713.34,-456.07 744.2,-456.55"/>
<polygon fill="#9a32cd" stroke="#9a32cd" points="598.33,-478.76 589.84,-485.1 600.43,-485.44 598.33,-478.76"/>
<text text-anchor="middle" x="672" y="-470.5" font-family="Helvetica,sans-Serif" font-size="10.00"> mMove</text>
</g>
<!-- Node13&#45;&gt;Node33 -->
<g id="edge50" class="edge">
<title>Node13&#45;&gt;Node33</title>
<path fill="none" stroke="#9a32cd" stroke-dasharray="5,2" d="M619.42,-502.78C648.17,-506.92 681.63,-513.19 711,-522.5 730.96,-528.83 752.42,-539.64 766.86,-547.58"/>
<polygon fill="#9a32cd" stroke="#9a32cd" points="620.13,-499.34 609.74,-501.45 619.17,-506.28 620.13,-499.34"/>
<text text-anchor="middle" x="672" y="-525.5" font-family="Helvetica,sans-Serif" font-size="10.00"> mMove</text>
</g>
<!-- Node14 -->
<g id="node14" class="node">
<title>Node14</title>
<g id="a_node14"><a xlink:href="structJASSoundParams.html" target="_top" xlink:title=" ">
<polygon fill="white" stroke="#666666" points="344.5,-346 247.5,-346 247.5,-327 344.5,-327 344.5,-346"/>
<text text-anchor="middle" x="296" y="-334" font-family="Helvetica,sans-Serif" font-size="10.00">JASSoundParams</text>
</a>
</g>
</g>
<!-- Node14&#45;&gt;Node13 -->
<g id="edge14" class="edge">
<title>Node14&#45;&gt;Node13</title>
<path fill="none" stroke="#9a32cd" stroke-dasharray="5,2" d="M315.4,-353.89C347.31,-383.17 416.02,-442.43 484,-476.5 491.1,-480.06 498.97,-483.06 506.72,-485.56"/>
<polygon fill="#9a32cd" stroke="#9a32cd" points="317.89,-351.42 308.18,-347.18 313.12,-356.55 317.89,-351.42"/>
<text text-anchor="middle" x="424" y="-468.5" font-family="Helvetica,sans-Serif" font-size="10.00"> mParams</text>
</g>
<!-- Node19 -->
<g id="node19" class="node">
<title>Node19</title>
<g id="a_node19"><a xlink:href="classJAISeq_1_1TInner.html" target="_top" xlink:title=" ">
<polygon fill="white" stroke="#666666" points="1079,-404 998,-404 998,-385 1079,-385 1079,-404"/>
<text text-anchor="middle" x="1038.5" y="-392" font-family="Helvetica,sans-Serif" font-size="10.00">JAISeq::TInner</text>
</a>
</g>
</g>
<!-- Node14&#45;&gt;Node19 -->
<g id="edge41" class="edge">
<title>Node14&#45;&gt;Node19</title>
<path fill="none" stroke="#9a32cd" stroke-dasharray="5,2" d="M312.62,-317.91C342.52,-283.41 411.37,-209.13 484,-166.5 573.09,-114.2 611.15,-89.98 711,-116.5 835.67,-149.61 872.32,-168.75 963,-260.5 1000.98,-298.93 1025.57,-360.67 1034.13,-384.59"/>
<polygon fill="#9a32cd" stroke="#9a32cd" points="310.07,-315.5 306.23,-325.37 315.39,-320.05 310.07,-315.5"/>
<text text-anchor="middle" x="672" y="-119.5" font-family="Helvetica,sans-Serif" font-size="10.00"> mSoundParams</text>
</g>
<!-- Node28 -->
<g id="node28" class="node">
<title>Node28</title>
<g id="a_node28"><a xlink:href="structJASTrack_1_1TChannelMgr.html" target="_top" xlink:title=" ">
<polygon fill="white" stroke="#666666" points="610.5,-251 488.5,-251 488.5,-232 610.5,-232 610.5,-251"/>
<text text-anchor="middle" x="549.5" y="-239" font-family="Helvetica,sans-Serif" font-size="10.00">JASTrack::TChannelMgr</text>
</a>
</g>
</g>
<!-- Node14&#45;&gt;Node28 -->
<g id="edge34" class="edge">
<title>Node14&#45;&gt;Node28</title>
<path fill="none" stroke="#9a32cd" stroke-dasharray="5,2" d="M334.06,-322.5C385.43,-303.1 477.02,-268.5 522.04,-251.5"/>
<polygon fill="#9a32cd" stroke="#9a32cd" points="332.97,-319.17 324.86,-325.98 335.45,-325.72 332.97,-319.17"/>
<text text-anchor="middle" x="424" y="-306.5" font-family="Helvetica,sans-Serif" font-size="10.00"> field_0x48</text>
</g>
<!-- Node14&#45;&gt;Node30 -->
<g id="edge38" class="edge">
<title>Node14&#45;&gt;Node30</title>
<path fill="none" stroke="#9a32cd" stroke-dasharray="5,2" d="M347.88,-349.25C445.31,-373.65 656.34,-426.52 744.28,-448.55"/>
<polygon fill="#9a32cd" stroke="#9a32cd" points="348.87,-345.89 338.32,-346.85 347.17,-352.68 348.87,-345.89"/>
<text text-anchor="middle" x="549.5" y="-419.5" font-family="Helvetica,sans-Serif" font-size="10.00"> mParams</text>
</g>
<!-- Node15&#45;&gt;Node13 -->
<g id="edge15" class="edge">
<title>Node15&#45;&gt;Node13</title>
<path fill="none" stroke="#9a32cd" stroke-dasharray="5,2" d="M375.73,-495.5C412.96,-495.5 456.62,-495.5 490.74,-495.5"/>
<polygon fill="#9a32cd" stroke="#9a32cd" points="375.91,-492 365.91,-495.5 375.91,-499 375.91,-492"/>
<text text-anchor="middle" x="424" y="-498.5" font-family="Helvetica,sans-Serif" font-size="10.00"> mTransition</text>
</g>
<!-- Node16 -->
<g id="node16" class="node">
<title>Node16</title>
<g id="a_node16"><a xlink:href="classJSULink.html" target="_top" xlink:title=" ">
<polygon fill="white" stroke="#666666" points="963,-668 859,-668 859,-649 963,-649 963,-668"/>
<text text-anchor="middle" x="911" y="-656" font-family="Helvetica,sans-Serif" font-size="10.00">JSULink&lt; JAISeq &gt;</text>
</a>
</g>
</g>
<!-- Node16&#45;&gt;Node1 -->
<g id="edge17" class="edge">
<title>Node16&#45;&gt;Node1</title>
<path fill="none" stroke="#8b1a1a" d="M967.29,-646.04C1036.85,-630.36 1153.23,-604.13 1203.11,-592.88"/>
<polygon fill="#8b1a1a" stroke="#8b1a1a" points="966.59,-642.61 957.61,-648.22 968.13,-649.44 966.59,-642.61"/>
</g>
<!-- Node17 -->
<g id="node17" class="node">
<title>Node17</title>
<g id="a_node17"><a xlink:href="structJSUPtrLink.html" target="_top" xlink:title=" ">
<polygon fill="white" stroke="#666666" points="583.5,-653 515.5,-653 515.5,-634 583.5,-634 583.5,-653"/>
<text text-anchor="middle" x="549.5" y="-641" font-family="Helvetica,sans-Serif" font-size="10.00">JSUPtrLink</text>
</a>
</g>
</g>
<!-- Node17&#45;&gt;Node16 -->
<g id="edge18" class="edge">
<title>Node17&#45;&gt;Node16</title>
<path fill="none" stroke="#63b8ff" d="M595.18,-646.41C607.43,-647.15 620.73,-647.91 633,-648.5 711.71,-652.31 803.06,-655.33 858.68,-657.02"/>
<polygon fill="#63b8ff" stroke="#63b8ff" points="595.51,-642.92 585.32,-645.8 595.08,-649.91 595.51,-642.92"/>
</g>
<!-- Node17&#45;&gt;Node17 -->
<g id="edge21" class="edge">
<title>Node17&#45;&gt;Node17</title>
<path fill="none" stroke="#9a32cd" stroke-dasharray="5,2" d="M527.76,-664.43C530.48,-668.29 537.72,-671 549.5,-671 571.03,-671 577.43,-661.94 568.68,-653.37"/>
<polygon fill="#9a32cd" stroke="#9a32cd" points="531.13,-665.37 529.98,-654.84 524.31,-663.79 531.13,-665.37"/>
<text text-anchor="middle" x="549.5" y="-685" font-family="Helvetica,sans-Serif" font-size="10.00"> mNext</text>
<text text-anchor="middle" x="549.5" y="-674" font-family="Helvetica,sans-Serif" font-size="10.00">mPrev</text>
</g>
<!-- Node18 -->
<g id="node18" class="node">
<title>Node18</title>
<g id="a_node18"><a xlink:href="structJSUPtrList.html" target="_top" xlink:title=" ">
<polygon fill="white" stroke="#666666" points="328.5,-608 263.5,-608 263.5,-589 328.5,-589 328.5,-608"/>
<text text-anchor="middle" x="296" y="-596" font-family="Helvetica,sans-Serif" font-size="10.00">JSUPtrList</text>
</a>
</g>
</g>
<!-- Node17&#45;&gt;Node18 -->
<g id="edge20" class="edge">
<title>Node17&#45;&gt;Node18</title>
<path fill="none" stroke="#9a32cd" stroke-dasharray="5,2" d="M504.2,-635.97C497,-633.43 489.96,-630.04 484,-625.5 471.63,-616.07 479.53,-603.16 466,-595.5 423.48,-571.43 364.78,-579.94 328.94,-588.83"/>
<polygon fill="#9a32cd" stroke="#9a32cd" points="503.11,-639.3 513.69,-638.78 505.09,-632.59 503.11,-639.3"/>
<text text-anchor="middle" x="424" y="-609.5" font-family="Helvetica,sans-Serif" font-size="10.00"> mHead</text>
<text text-anchor="middle" x="424" y="-598.5" font-family="Helvetica,sans-Serif" font-size="10.00">mTail</text>
</g>
<!-- Node18&#45;&gt;Node17 -->
<g id="edge19" class="edge">
<title>Node18&#45;&gt;Node17</title>
<path fill="none" stroke="#9a32cd" stroke-dasharray="5,2" d="M339.56,-611.2C353.04,-614.91 368.06,-618.71 382,-621.5 427.74,-630.67 481.35,-636.97 515.12,-640.41"/>
<polygon fill="#9a32cd" stroke="#9a32cd" points="340.68,-607.89 330.11,-608.55 338.79,-614.62 340.68,-607.89"/>
<text text-anchor="middle" x="424" y="-636.5" font-family="Helvetica,sans-Serif" font-size="10.00"> mList</text>
</g>
<!-- Node38 -->
<g id="node38" class="node">
<title>Node38</title>
<g id="a_node38"><a xlink:href="classJSUList.html" target="_top" xlink:title=" ">
<polygon fill="white" stroke="#666666" points="600,-542 499,-542 499,-523 600,-523 600,-542"/>
<text text-anchor="middle" x="549.5" y="-530" font-family="Helvetica,sans-Serif" font-size="10.00">JSUList&lt; JAISeq &gt;</text>
</a>
</g>
</g>
<!-- Node18&#45;&gt;Node38 -->
<g id="edge52" class="edge">
<title>Node18&#45;&gt;Node38</title>
<path fill="none" stroke="#63b8ff" d="M339.79,-586.82C353.29,-583.16 368.26,-579.13 382,-575.5 425.58,-563.98 475.68,-551.09 509.44,-542.45"/>
<polygon fill="#63b8ff" stroke="#63b8ff" points="339.06,-583.39 330.32,-589.39 340.89,-590.15 339.06,-583.39"/>
</g>
<!-- Node19&#45;&gt;Node1 -->
<g id="edge22" class="edge">
<title>Node19&#45;&gt;Node1</title>
<path fill="none" stroke="#9a32cd" stroke-dasharray="5,2" d="M1056.88,-412.39C1095.63,-452.28 1188.05,-547.41 1217.69,-577.91"/>
<polygon fill="#9a32cd" stroke="#9a32cd" points="1059.59,-410.16 1050.11,-405.42 1054.57,-415.03 1059.59,-410.16"/>
<text text-anchor="middle" x="1139.5" y="-522.5" font-family="Helvetica,sans-Serif" font-size="10.00"> inner_</text>
</g>
<!-- Node20 -->
<g id="node20" class="node">
<title>Node20</title>
<g id="a_node20"><a xlink:href="structJASTrack.html" target="_top" xlink:title=" ">
<polygon fill="white" stroke="#666666" points="815,-257 755,-257 755,-238 815,-238 815,-257"/>
<text text-anchor="middle" x="785" y="-245" font-family="Helvetica,sans-Serif" font-size="10.00">JASTrack</text>
</a>
</g>
</g>
<!-- Node20&#45;&gt;Node19 -->
<g id="edge23" class="edge">
<title>Node20&#45;&gt;Node19</title>
<path fill="none" stroke="#9a32cd" stroke-dasharray="5,2" d="M826.46,-255.1C864.22,-263.6 920.9,-280.04 963,-308.5 994.26,-329.63 1020.34,-367.1 1031.58,-384.77"/>
<polygon fill="#9a32cd" stroke="#9a32cd" points="827.37,-251.72 816.86,-253.03 825.9,-258.56 827.37,-251.72"/>
<text text-anchor="middle" x="911" y="-311.5" font-family="Helvetica,sans-Serif" font-size="10.00"> outputTrack</text>
</g>
<!-- Node20&#45;&gt;Node20 -->
<g id="edge31" class="edge">
<title>Node20&#45;&gt;Node20</title>
<path fill="none" stroke="#9a32cd" stroke-dasharray="5,2" d="M764.94,-268.43C767.45,-272.29 774.14,-275 785,-275 804.86,-275 810.76,-265.94 802.69,-257.37"/>
<polygon fill="#9a32cd" stroke="#9a32cd" points="768.32,-269.36 766.99,-258.85 761.48,-267.89 768.32,-269.36"/>
<text text-anchor="middle" x="785" y="-289" font-family="Helvetica,sans-Serif" font-size="10.00"> mChildren</text>
<text text-anchor="middle" x="785" y="-278" font-family="Helvetica,sans-Serif" font-size="10.00">mParent</text>
</g>
<!-- Node20&#45;&gt;Node28 -->
<g id="edge35" class="edge">
<title>Node20&#45;&gt;Node28</title>
<path fill="none" stroke="#9a32cd" stroke-dasharray="5,2" d="M743.51,-246.46C706.94,-245.52 652.64,-244.12 610.94,-243.05"/>
<polygon fill="#9a32cd" stroke="#9a32cd" points="743.12,-249.95 753.2,-246.71 743.3,-242.95 743.12,-249.95"/>
<text text-anchor="middle" x="672" y="-249.5" font-family="Helvetica,sans-Serif" font-size="10.00"> field_0x4c</text>
</g>
<!-- Node21 -->
<g id="node21" class="node">
<title>Node21</title>
<g id="a_node21"><a xlink:href="classJASSeqCtrl.html" target="_top" xlink:title=" ">
<polygon fill="white" stroke="#666666" points="583.5,-64 515.5,-64 515.5,-45 583.5,-45 583.5,-64"/>
<text text-anchor="middle" x="549.5" y="-52" font-family="Helvetica,sans-Serif" font-size="10.00">JASSeqCtrl</text>
</a>
</g>
</g>
<!-- Node21&#45;&gt;Node20 -->
<g id="edge24" class="edge">
<title>Node21&#45;&gt;Node20</title>
<path fill="none" stroke="#9a32cd" stroke-dasharray="5,2" d="M567.68,-72.35C583.69,-88.42 608.69,-112.11 633,-129.5 665.2,-152.53 679.52,-148.5 711,-172.5 737.44,-192.66 763.38,-222.32 776.03,-237.6"/>
<polygon fill="#9a32cd" stroke="#9a32cd" points="570.33,-70.05 560.83,-65.37 565.34,-74.96 570.33,-70.05"/>
<text text-anchor="middle" x="672" y="-175.5" font-family="Helvetica,sans-Serif" font-size="10.00"> mSeqCtrl</text>
</g>
<!-- Node22 -->
<g id="node22" class="node">
<title>Node22</title>
<g id="a_node22"><a xlink:href="classJASSeqReader.html" target="_top" xlink:title=" ">
<polygon fill="white" stroke="#666666" points="337.5,-64 254.5,-64 254.5,-45 337.5,-45 337.5,-64"/>
<text text-anchor="middle" x="296" y="-52" font-family="Helvetica,sans-Serif" font-size="10.00">JASSeqReader</text>
</a>
</g>
</g>
<!-- Node22&#45;&gt;Node21 -->
<g id="edge25" class="edge">
<title>Node22&#45;&gt;Node21</title>
<path fill="none" stroke="#9a32cd" stroke-dasharray="5,2" d="M349.17,-54.5C399.06,-54.5 472.79,-54.5 515.19,-54.5"/>
<polygon fill="#9a32cd" stroke="#9a32cd" points="349.48,-51 339.48,-54.5 349.48,-58 349.48,-51"/>
<text text-anchor="middle" x="424" y="-57.5" font-family="Helvetica,sans-Serif" font-size="10.00"> mReader</text>
</g>
<!-- Node23 -->
<g id="node23" class="node">
<title>Node23</title>
<g id="a_node23"><a xlink:href="structJASSeqParser.html" target="_top" xlink:title=" ">
<polygon fill="white" stroke="#666666" points="336.5,-19 255.5,-19 255.5,0 336.5,0 336.5,-19"/>
<text text-anchor="middle" x="296" y="-7" font-family="Helvetica,sans-Serif" font-size="10.00">JASSeqParser</text>
</a>
</g>
</g>
<!-- Node23&#45;&gt;Node21 -->
<g id="edge26" class="edge">
<title>Node23&#45;&gt;Node21</title>
<path fill="none" stroke="#9a32cd" stroke-dasharray="5,2" d="M348.39,-12.68C382.09,-15.41 426.98,-20.24 466,-28.5 484.95,-32.51 505.75,-39.08 521.73,-44.61"/>
<polygon fill="#9a32cd" stroke="#9a32cd" points="348.71,-9.2 338.47,-11.92 348.17,-16.18 348.71,-9.2"/>
<text text-anchor="middle" x="424" y="-42.5" font-family="Helvetica,sans-Serif" font-size="10.00"> field_0x3c</text>
<text text-anchor="middle" x="424" y="-31.5" font-family="Helvetica,sans-Serif" font-size="10.00">sDefaultParser</text>
</g>
<!-- Node24 -->
<g id="node24" class="node">
<title>Node24</title>
<g id="a_node24"><a xlink:href="structJASSeqParser_1_1CmdInfo.html" target="_top" xlink:title=" ">
<polygon fill="white" stroke="#666666" points="129,-19 7,-19 7,0 129,0 129,-19"/>
<text text-anchor="middle" x="68" y="-7" font-family="Helvetica,sans-Serif" font-size="10.00">JASSeqParser::CmdInfo</text>
</a>
</g>
</g>
<!-- Node24&#45;&gt;Node23 -->
<g id="edge27" class="edge">
<title>Node24&#45;&gt;Node23</title>
<path fill="none" stroke="#9a32cd" stroke-dasharray="5,2" d="M140.76,-9.5C178.6,-9.5 223.6,-9.5 255.19,-9.5"/>
<polygon fill="#9a32cd" stroke="#9a32cd" points="140.78,-6 130.78,-9.5 140.78,-13 140.78,-6"/>
<text text-anchor="middle" x="182" y="-23.5" font-family="Helvetica,sans-Serif" font-size="10.00"> sCmdInfo</text>
<text text-anchor="middle" x="182" y="-12.5" font-family="Helvetica,sans-Serif" font-size="10.00">sExtCmdInfo</text>
</g>
<!-- Node25 -->
<g id="node25" class="node">
<title>Node25</title>
<g id="a_node25"><a xlink:href="classJASTrackPort.html" target="_top" xlink:title=" ">
<polygon fill="white" stroke="#666666" points="588.5,-306 510.5,-306 510.5,-287 588.5,-287 588.5,-306"/>
<text text-anchor="middle" x="549.5" y="-294" font-family="Helvetica,sans-Serif" font-size="10.00">JASTrackPort</text>
</a>
</g>
</g>
<!-- Node25&#45;&gt;Node20 -->
<g id="edge28" class="edge">
<title>Node25&#45;&gt;Node20</title>
<path fill="none" stroke="#9a32cd" stroke-dasharray="5,2" d="M599.92,-286.13C646.81,-276.29 715.73,-261.83 754.57,-253.68"/>
<polygon fill="#9a32cd" stroke="#9a32cd" points="599.35,-282.67 590.28,-288.15 600.78,-289.52 599.35,-282.67"/>
<text text-anchor="middle" x="672" y="-281.5" font-family="Helvetica,sans-Serif" font-size="10.00"> mTrackPort</text>
</g>
<!-- Node26 -->
<g id="node26" class="node">
<title>Node26</title>
<g id="a_node26"><a xlink:href="classJASRegisterParam.html" target="_top" xlink:title=" ">
<polygon fill="white" stroke="#666666" points="599.5,-195 499.5,-195 499.5,-176 599.5,-176 599.5,-195"/>
<text text-anchor="middle" x="549.5" y="-183" font-family="Helvetica,sans-Serif" font-size="10.00">JASRegisterParam</text>
</a>
</g>
</g>
<!-- Node26&#45;&gt;Node20 -->
<g id="edge29" class="edge">
<title>Node26&#45;&gt;Node20</title>
<path fill="none" stroke="#9a32cd" stroke-dasharray="5,2" d="M611.21,-185.59C641.83,-187.21 679.14,-191.62 711,-202.5 734.39,-210.48 758.14,-227.04 771.95,-237.69"/>
<polygon fill="#9a32cd" stroke="#9a32cd" points="611.48,-182.1 601.33,-185.17 611.17,-189.09 611.48,-182.1"/>
<text text-anchor="middle" x="672" y="-205.5" font-family="Helvetica,sans-Serif" font-size="10.00"> mRegisterParam</text>
</g>
<!-- Node27 -->
<g id="node27" class="node">
<title>Node27</title>
<g id="a_node27"><a xlink:href="structJASTrack_1_1MoveParam__.html" target="_top" xlink:title=" ">
<polygon fill="white" stroke="#666666" points="610.5,-343 488.5,-343 488.5,-324 610.5,-324 610.5,-343"/>
<text text-anchor="middle" x="549.5" y="-331" font-family="Helvetica,sans-Serif" font-size="10.00">JASTrack::MoveParam_</text>
</a>
</g>
</g>
<!-- Node27&#45;&gt;Node20 -->
<g id="edge30" class="edge">
<title>Node27&#45;&gt;Node20</title>
<path fill="none" stroke="#9a32cd" stroke-dasharray="5,2" d="M620.34,-321.16C649.09,-314.79 682.32,-305.74 711,-293.5 733.6,-283.86 757.2,-267.69 771.25,-257.32"/>
<polygon fill="#9a32cd" stroke="#9a32cd" points="619.67,-317.72 610.62,-323.24 621.13,-324.57 619.67,-317.72"/>
<text text-anchor="middle" x="672" y="-321.5" font-family="Helvetica,sans-Serif" font-size="10.00"> field_0x9c</text>
</g>
<!-- Node28&#45;&gt;Node20 -->
<g id="edge32" class="edge">
<title>Node28&#45;&gt;Node20</title>
<path fill="none" stroke="#9a32cd" stroke-dasharray="5,2" d="M592.72,-228.6C605.53,-225.27 619.73,-222.16 633,-220.5 667.4,-216.19 676.88,-214.39 711,-220.5 729.22,-223.76 748.85,-231.27 763.16,-237.54"/>
<polygon fill="#9a32cd" stroke="#9a32cd" points="592.07,-225.15 583.34,-231.15 593.91,-231.91 592.07,-225.15"/>
<text text-anchor="middle" x="672" y="-234.5" font-family="Helvetica,sans-Serif" font-size="10.00"> field_0x170</text>
<text text-anchor="middle" x="672" y="-223.5" font-family="Helvetica,sans-Serif" font-size="10.00">field_0x180</text>
</g>
<!-- Node29 -->
<g id="node29" class="node">
<title>Node29</title>
<g id="a_node29"><a xlink:href="structJASChannel.html" target="_top" xlink:title=" ">
<polygon fill="white" stroke="#666666" points="331.5,-101 260.5,-101 260.5,-82 331.5,-82 331.5,-101"/>
<text text-anchor="middle" x="296" y="-89" font-family="Helvetica,sans-Serif" font-size="10.00">JASChannel</text>
</a>
</g>
</g>
<!-- Node29&#45;&gt;Node28 -->
<g id="edge33" class="edge">
<title>Node29&#45;&gt;Node28</title>
<path fill="none" stroke="#9a32cd" stroke-dasharray="5,2" d="M323.24,-107.3C359.39,-129.04 426.55,-169.37 484,-203.5 500.09,-213.06 518.49,-223.89 531.5,-231.53"/>
<polygon fill="#9a32cd" stroke="#9a32cd" points="325.16,-104.37 314.78,-102.21 321.55,-110.36 325.16,-104.37"/>
<text text-anchor="middle" x="424" y="-194.5" font-family="Helvetica,sans-Serif" font-size="10.00"> field_0x0</text>
</g>
<!-- Node30&#45;&gt;Node19 -->
<g id="edge36" class="edge">
<title>Node30&#45;&gt;Node19</title>
<path fill="none" stroke="#9a32cd" stroke-dasharray="5,2" d="M837,-451.38C872.71,-445.75 921.29,-436.78 963,-424.5 981.32,-419.11 1001.37,-410.89 1016.05,-404.42"/>
<polygon fill="#9a32cd" stroke="#9a32cd" points="836.74,-447.88 827.39,-452.86 837.8,-454.8 836.74,-447.88"/>
<text text-anchor="middle" x="911" y="-450.5" font-family="Helvetica,sans-Serif" font-size="10.00"> mSoundChild</text>
</g>
<!-- Node31&#45;&gt;Node19 -->
<g id="edge39" class="edge">
<title>Node31&#45;&gt;Node19</title>
<path fill="none" stroke="#9a32cd" stroke-dasharray="5,2" d="M712.83,-345.66C718.22,-344.36 723.71,-343.24 729,-342.5 832.95,-327.94 861.54,-347.58 963,-374.5 975.3,-377.76 988.73,-381.36 1000.75,-384.59"/>
<polygon fill="#9a32cd" stroke="#9a32cd" points="712.24,-342.2 703.49,-348.16 714.05,-348.96 712.24,-342.2"/>
<text text-anchor="middle" x="785" y="-345.5" font-family="Helvetica,sans-Serif" font-size="10.00"> mTempoMgr</text>
</g>
<!-- Node32 -->
<g id="node32" class="node">
<title>Node32</title>
<g id="a_node32"><a xlink:href="structJAISeqData.html" target="_top" xlink:title=" ">
<polygon fill="white" stroke="#666666" points="819.5,-382 750.5,-382 750.5,-363 819.5,-363 819.5,-382"/>
<text text-anchor="middle" x="785" y="-370" font-family="Helvetica,sans-Serif" font-size="10.00">JAISeqData</text>
</a>
</g>
</g>
<!-- Node32&#45;&gt;Node19 -->
<g id="edge42" class="edge">
<title>Node32&#45;&gt;Node19</title>
<path fill="none" stroke="#9a32cd" stroke-dasharray="5,2" d="M831,-375.71C866.79,-378.35 918.13,-382.32 963,-386.5 974.27,-387.55 986.48,-388.81 997.7,-390.02"/>
<polygon fill="#9a32cd" stroke="#9a32cd" points="831.69,-372.25 821.47,-375.01 831.18,-379.23 831.69,-372.25"/>
<text text-anchor="middle" x="911" y="-389.5" font-family="Helvetica,sans-Serif" font-size="10.00"> mSeqData</text>
</g>
<!-- Node33&#45;&gt;Node19 -->
<g id="edge43" class="edge">
<title>Node33&#45;&gt;Node19</title>
<path fill="none" stroke="#9a32cd" stroke-dasharray="5,2" d="M818.66,-542.97C855.28,-526.01 915.73,-495.98 963,-462.5 988.72,-444.28 1015.11,-418.07 1028.5,-404.1"/>
<polygon fill="#9a32cd" stroke="#9a32cd" points="817.56,-539.62 809.92,-546.97 820.47,-545.99 817.56,-539.62"/>
<text text-anchor="middle" x="911" y="-525.5" font-family="Helvetica,sans-Serif" font-size="10.00"> seqMgr</text>
</g>
<!-- Node35 -->
<g id="node35" class="node">
<title>Node35</title>
<g id="a_node35"><a xlink:href="classJASGlobalInstance.html" target="_top" xlink:title=" ">
<polygon fill="white" stroke="#666666" points="1092,-605.5 985,-605.5 985,-575.5 1092,-575.5 1092,-605.5"/>
<text text-anchor="start" x="993" y="-593.5" font-family="Helvetica,sans-Serif" font-size="10.00">JASGlobalInstance&lt;</text>
<text text-anchor="middle" x="1038.5" y="-582.5" font-family="Helvetica,sans-Serif" font-size="10.00"> JAISeqMgr &gt;</text>
</a>
</g>
</g>
<!-- Node33&#45;&gt;Node35 -->
<g id="edge46" class="edge">
<title>Node33&#45;&gt;Node35</title>
<path fill="none" stroke="#9a32cd" stroke-dasharray="5,2" d="M829.13,-564.2C838.94,-565.66 849.33,-567.18 859,-568.5 901.23,-574.28 949.17,-580.15 984.73,-584.37"/>
<polygon fill="#9a32cd" stroke="#9a32cd" points="829.86,-560.77 819.45,-562.73 828.81,-567.69 829.86,-560.77"/>
<text text-anchor="middle" x="911" y="-583.5" font-family="Helvetica,sans-Serif" font-size="10.00"> sInstance</text>
</g>
<!-- Node34 -->
<g id="node34" class="node">
<title>Node34</title>
<g id="a_node34"><a xlink:href="structJAISeqDataUser.html" target="_top" xlink:title=" ">
<polygon fill="white" stroke="#666666" points="594.5,-468 504.5,-468 504.5,-449 594.5,-449 594.5,-468"/>
<text text-anchor="middle" x="549.5" y="-456" font-family="Helvetica,sans-Serif" font-size="10.00">JAISeqDataUser</text>
</a>
</g>
</g>
<!-- Node34&#45;&gt;Node33 -->
<g id="edge44" class="edge">
<title>Node34&#45;&gt;Node33</title>
<path fill="none" stroke="#63b8ff" d="M605.64,-467.7C637.53,-474.36 677.79,-485.12 711,-501.5 735.93,-513.79 760.69,-535.24 774,-547.73"/>
<polygon fill="#63b8ff" stroke="#63b8ff" points="606.71,-464.34 596.22,-465.81 605.33,-471.21 606.71,-464.34"/>
</g>
<!-- Node35&#45;&gt;Node33 -->
<g id="edge45" class="edge">
<title>Node35&#45;&gt;Node33</title>
<path fill="none" stroke="#63b8ff" d="M973.85,-573.5C970.19,-572.77 966.56,-572.09 963,-571.5 912.67,-563.15 853.44,-559.75 817.85,-558.38"/>
<polygon fill="#63b8ff" stroke="#63b8ff" points="972.83,-576.87 983.35,-575.56 974.32,-570.03 972.83,-576.87"/>
</g>
<!-- Node36 -->
<g id="node36" class="node">
<title>Node36</title>
<g id="a_node36"><a xlink:href="classJAISoundActivity.html" target="_top" xlink:title=" ">
<polygon fill="white" stroke="#666666" points="595.5,-616 503.5,-616 503.5,-597 595.5,-597 595.5,-616"/>
<text text-anchor="middle" x="549.5" y="-604" font-family="Helvetica,sans-Serif" font-size="10.00">JAISoundActivity</text>
</a>
</g>
</g>
<!-- Node36&#45;&gt;Node33 -->
<g id="edge47" class="edge">
<title>Node36&#45;&gt;Node33</title>
<path fill="none" stroke="#9a32cd" stroke-dasharray="5,2" d="M606.79,-598.81C637.73,-594.13 676.69,-587.52 711,-579.5 725.31,-576.15 740.93,-571.57 754.04,-567.46"/>
<polygon fill="#9a32cd" stroke="#9a32cd" points="606.65,-595.29 597.27,-600.22 607.67,-602.21 606.65,-595.29"/>
<text text-anchor="middle" x="672" y="-596.5" font-family="Helvetica,sans-Serif" font-size="10.00"> mActivity</text>
</g>
<!-- Node37 -->
<g id="node37" class="node">
<title>Node37</title>
<g id="a_node37"><a xlink:href="structJAISeqDataMgr.html" target="_top" xlink:title=" ">
<polygon fill="white" stroke="#666666" points="592.5,-579 506.5,-579 506.5,-560 592.5,-560 592.5,-579"/>
<text text-anchor="middle" x="549.5" y="-567" font-family="Helvetica,sans-Serif" font-size="10.00">JAISeqDataMgr</text>
</a>
</g>
</g>
<!-- Node37&#45;&gt;Node33 -->
<g id="edge49" class="edge">
<title>Node37&#45;&gt;Node33</title>
<path fill="none" stroke="#9a32cd" stroke-dasharray="5,2" d="M604.28,-566.74C650.01,-564.39 714.14,-561.09 752.15,-559.14"/>
<polygon fill="#9a32cd" stroke="#9a32cd" points="604.1,-563.24 594.3,-567.25 604.46,-570.23 604.1,-563.24"/>
<text text-anchor="middle" x="672" y="-567.5" font-family="Helvetica,sans-Serif" font-size="10.00"> seqDataMgr_</text>
</g>
<!-- Node38&#45;&gt;Node33 -->
<g id="edge51" class="edge">
<title>Node38&#45;&gt;Node33</title>
<path fill="none" stroke="#9a32cd" stroke-dasharray="5,2" d="M611.64,-536.27C641.64,-538.42 678.28,-541.49 711,-545.5 724.51,-547.16 739.35,-549.5 752.1,-551.67"/>
<polygon fill="#9a32cd" stroke="#9a32cd" points="612.22,-532.8 602,-535.59 611.73,-539.78 612.22,-532.8"/>
<text text-anchor="middle" x="672" y="-548.5" font-family="Helvetica,sans-Serif" font-size="10.00"> mSeqList</text>
</g>
<!-- Node39 -->
<g id="node39" class="node">
<title>Node39</title>
<g id="a_node39"><a xlink:href="structJAISoundStrategyMgr.html" target="_top" xlink:title=" ">
<polygon fill="white" stroke="#666666" points="841,-430.5 729,-430.5 729,-400.5 841,-400.5 841,-430.5"/>
<text text-anchor="start" x="737" y="-418.5" font-family="Helvetica,sans-Serif" font-size="10.00">JAISoundStrategyMgr</text>
<text text-anchor="middle" x="785" y="-407.5" font-family="Helvetica,sans-Serif" font-size="10.00">&lt; JAISeq &gt;</text>
</a>
</g>
</g>
<!-- Node39&#45;&gt;Node19 -->
<g id="edge53" class="edge">
<title>Node39&#45;&gt;Node19</title>
<path fill="none" stroke="#9a32cd" stroke-dasharray="5,2" d="M852.61,-409.94C898.79,-406.08 958.73,-401.08 997.65,-397.83"/>
<polygon fill="#9a32cd" stroke="#9a32cd" points="852.38,-406.45 842.7,-410.77 852.96,-413.42 852.38,-406.45"/>
<text text-anchor="middle" x="911" y="-412.5" font-family="Helvetica,sans-Serif" font-size="10.00"> strategyMgr</text>
</g>
<!-- Node40 -->
<g id="node40" class="node">
<title>Node40</title>
<g id="a_node40"><a xlink:href="structJAISoundStrategyMgr____unknown.html" target="_top" xlink:title=" ">
<polygon fill="white" stroke="#666666" points="1096,-557.5 981,-557.5 981,-527.5 1096,-527.5 1096,-557.5"/>
<text text-anchor="start" x="989" y="-545.5" font-family="Helvetica,sans-Serif" font-size="10.00">JAISoundStrategyMgr</text>
<text text-anchor="middle" x="1038.5" y="-534.5" font-family="Helvetica,sans-Serif" font-size="10.00">__unknown&lt; JAISeq &gt;</text>
</a>
</g>
</g>
<!-- Node40&#45;&gt;Node1 -->
<g id="edge54" class="edge">
<title>Node40&#45;&gt;Node1</title>
<path fill="none" stroke="#9a32cd" stroke-dasharray="5,2" d="M1107.41,-558.8C1140.88,-566.83 1179.11,-576.01 1203.15,-581.78"/>
<polygon fill="#9a32cd" stroke="#9a32cd" points="1108.28,-555.41 1097.74,-556.48 1106.64,-562.21 1108.28,-555.41"/>
<text text-anchor="middle" x="1139.5" y="-574.5" font-family="Helvetica,sans-Serif" font-size="10.00"> field_0x3a8</text>
</g>
</g>
</svg>
