<?xml version="1.0" encoding="UTF-8" standalone="no"?>
<!DOCTYPE svg PUBLIC "-//W3C//DTD SVG 1.1//EN"
 "http://www.w3.org/Graphics/SVG/1.1/DTD/svg11.dtd">
<!-- Generated by graphviz version 7.0.5 (20221223.1930)
 -->
<!-- Title: include/dolphin/mtx/vec.h Pages: 1 -->
<svg width="5143pt" height="236pt"
 viewBox="0.00 0.00 5142.50 236.00" xmlns="http://www.w3.org/2000/svg" xmlns:xlink="http://www.w3.org/1999/xlink">
<g id="graph0" class="graph" transform="scale(1 1) rotate(0) translate(4 232)">
<title>include/dolphin/mtx/vec.h</title>
<!-- Node1 -->
<g id="node1" class="node">
<title>Node1</title>
<g id="a_node1"><a xlink:title=" ">
<polygon fill="#999999" stroke="#666666" points="4334.5,-228 4234.5,-228 4234.5,-198 4334.5,-198 4334.5,-228"/>
<text text-anchor="start" x="4242.5" y="-216" font-family="Helvetica,sans-Serif" font-size="10.00">include/dolphin/mtx</text>
<text text-anchor="middle" x="4284.5" y="-205" font-family="Helvetica,sans-Serif" font-size="10.00">/vec.h</text>
</a>
</g>
</g>
<!-- Node2 -->
<g id="node2" class="node">
<title>Node2</title>
<g id="a_node2"><a xlink:href="J3DStruct_8h.html" target="_top" xlink:title=" ">
<polygon fill="white" stroke="#666666" points="340,-162 205,-162 205,-132 340,-132 340,-162"/>
<text text-anchor="start" x="213" y="-150" font-family="Helvetica,sans-Serif" font-size="10.00">include/JSystem/J3DGraph</text>
<text text-anchor="middle" x="272.5" y="-139" font-family="Helvetica,sans-Serif" font-size="10.00">Base/J3DStruct.h</text>
</a>
</g>
</g>
<!-- Node1&#45;&gt;Node2 -->
<g id="edge1" class="edge">
<title>Node1&#45;&gt;Node2</title>
<path fill="none" stroke="#63b8ff" d="M4222.78,-211.56C3875.69,-208.98 2131.82,-194.87 707.5,-162 577.57,-159 425.87,-153.71 340.3,-150.56"/>
<polygon fill="#63b8ff" stroke="#63b8ff" points="4222.52,-215.06 4232.55,-211.63 4222.57,-208.06 4222.52,-215.06"/>
</g>
<!-- Node335 -->
<g id="node7" class="node">
<title>Node335</title>
<g id="a_node7"><a xlink:href="J3DVertex_8h.html" target="_top" xlink:title=" ">
<polygon fill="white" stroke="#666666" points="852,-162 717,-162 717,-132 852,-132 852,-162"/>
<text text-anchor="start" x="725" y="-150" font-family="Helvetica,sans-Serif" font-size="10.00">include/JSystem/J3DGraph</text>
<text text-anchor="middle" x="784.5" y="-139" font-family="Helvetica,sans-Serif" font-size="10.00">Base/J3DVertex.h</text>
</a>
</g>
</g>
<!-- Node1&#45;&gt;Node335 -->
<g id="edge7" class="edge">
<title>Node1&#45;&gt;Node335</title>
<path fill="none" stroke="#63b8ff" d="M4223.08,-210.96C3922.53,-205.88 2576.86,-182.99 1474.5,-162 1246.29,-157.65 975.64,-152.02 852.08,-149.43"/>
<polygon fill="#63b8ff" stroke="#63b8ff" points="4222.58,-214.46 4232.63,-211.13 4222.7,-207.46 4222.58,-214.46"/>
</g>
<!-- Node416 -->
<g id="node13" class="node">
<title>Node416</title>
<g id="a_node13"><a xlink:href="J3DShapeFactory_8h.html" target="_top" xlink:title=" ">
<polygon fill="white" stroke="#666666" points="1619,-162 1484,-162 1484,-132 1619,-132 1619,-162"/>
<text text-anchor="start" x="1492" y="-150" font-family="Helvetica,sans-Serif" font-size="10.00">include/JSystem/J3DGraph</text>
<text text-anchor="middle" x="1551.5" y="-139" font-family="Helvetica,sans-Serif" font-size="10.00">Loader/J3DShapeFactory.h</text>
</a>
</g>
</g>
<!-- Node1&#45;&gt;Node416 -->
<g id="edge13" class="edge">
<title>Node1&#45;&gt;Node416</title>
<path fill="none" stroke="#63b8ff" d="M4223.09,-210.85C3958.09,-205.86 2886.01,-185.23 2005.5,-162 1868.34,-158.38 1707.89,-153.21 1619.18,-150.27"/>
<polygon fill="#63b8ff" stroke="#63b8ff" points="4222.8,-214.35 4232.86,-211.04 4222.93,-207.35 4222.8,-214.35"/>
</g>
<!-- Node418 -->
<g id="node15" class="node">
<title>Node418</title>
<g id="a_node15"><a xlink:href="JGeometry_8h.html" target="_top" xlink:title=" ">
<polygon fill="white" stroke="#666666" points="2160.5,-156.5 2014.5,-156.5 2014.5,-137.5 2160.5,-137.5 2160.5,-156.5"/>
<text text-anchor="middle" x="2087.5" y="-144.5" font-family="Helvetica,sans-Serif" font-size="10.00">include/JSystem/JGeometry.h</text>
</a>
</g>
</g>
<!-- Node1&#45;&gt;Node418 -->
<g id="edge15" class="edge">
<title>Node1&#45;&gt;Node418</title>
<path fill="none" stroke="#63b8ff" d="M4223.15,-210.21C3910.89,-201.12 2499.58,-160 2160.78,-150.13"/>
<polygon fill="#63b8ff" stroke="#63b8ff" points="4222.61,-213.7 4232.71,-210.49 4222.81,-206.7 4222.61,-213.7"/>
</g>
<!-- Node539 -->
<g id="node27" class="node">
<title>Node539</title>
<g id="a_node27"><a xlink:href="jstudio-control_8h.html" target="_top" xlink:title=" ">
<polygon fill="white" stroke="#666666" points="3108,-162 2983,-162 2983,-132 3108,-132 3108,-162"/>
<text text-anchor="start" x="2991" y="-150" font-family="Helvetica,sans-Serif" font-size="10.00">include/JSystem/JStudio</text>
<text text-anchor="middle" x="3045.5" y="-139" font-family="Helvetica,sans-Serif" font-size="10.00">/JStudio/jstudio&#45;control.h</text>
</a>
</g>
</g>
<!-- Node1&#45;&gt;Node539 -->
<g id="edge27" class="edge">
<title>Node1&#45;&gt;Node539</title>
<path fill="none" stroke="#63b8ff" d="M4222.55,-208.8C4011.36,-197.89 3320.93,-162.23 3108.36,-151.25"/>
<polygon fill="#63b8ff" stroke="#63b8ff" points="4222.33,-212.29 4232.5,-209.31 4222.69,-205.3 4222.33,-212.29"/>
</g>
<!-- Node557 -->
<g id="node30" class="node">
<title>Node557</title>
<g id="a_node30"><a xlink:href="c__bg__s__chk_8h.html" target="_top" xlink:title=" ">
<polygon fill="white" stroke="#666666" points="3782,-162 3633,-162 3633,-132 3782,-132 3782,-162"/>
<text text-anchor="start" x="3641" y="-150" font-family="Helvetica,sans-Serif" font-size="10.00">include/SSystem/SComponent</text>
<text text-anchor="middle" x="3707.5" y="-139" font-family="Helvetica,sans-Serif" font-size="10.00">/c_bg_s_chk.h</text>
</a>
</g>
</g>
<!-- Node1&#45;&gt;Node557 -->
<g id="edge30" class="edge">
<title>Node1&#45;&gt;Node557</title>
<path fill="none" stroke="#63b8ff" d="M4222.84,-205.16C4116.1,-193.32 3897.28,-169.05 3782.13,-156.28"/>
<polygon fill="#63b8ff" stroke="#63b8ff" points="4222.22,-208.61 4232.55,-206.24 4223,-201.66 4222.22,-208.61"/>
</g>
<!-- Node583 -->
<g id="node38" class="node">
<title>Node583</title>
<g id="a_node38"><a xlink:href="c__sxyz_8h.html" target="_top" xlink:title=" ">
<polygon fill="#fff0f0" stroke="red" points="4526,-162 4377,-162 4377,-132 4526,-132 4526,-162"/>
<text text-anchor="start" x="4385" y="-150" font-family="Helvetica,sans-Serif" font-size="10.00">include/SSystem/SComponent</text>
<text text-anchor="middle" x="4451.5" y="-139" font-family="Helvetica,sans-Serif" font-size="10.00">/c_sxyz.h</text>
</a>
</g>
</g>
<!-- Node1&#45;&gt;Node583 -->
<g id="edge38" class="edge">
<title>Node1&#45;&gt;Node583</title>
<path fill="none" stroke="#63b8ff" d="M4332.67,-193.54C4358.49,-183.64 4389.84,-171.63 4413.86,-162.43"/>
<polygon fill="#63b8ff" stroke="#63b8ff" points="4331.48,-190.25 4323.39,-197.1 4333.98,-196.79 4331.48,-190.25"/>
</g>
<!-- Node595 -->
<g id="node45" class="node">
<title>Node595</title>
<g id="a_node45"><a xlink:href="c__xyz_8h.html" target="_top" xlink:title=" ">
<polygon fill="#fff0f0" stroke="red" points="4359,-162 4210,-162 4210,-132 4359,-132 4359,-162"/>
<text text-anchor="start" x="4218" y="-150" font-family="Helvetica,sans-Serif" font-size="10.00">include/SSystem/SComponent</text>
<text text-anchor="middle" x="4284.5" y="-139" font-family="Helvetica,sans-Serif" font-size="10.00">/c_xyz.h</text>
</a>
</g>
</g>
<!-- Node1&#45;&gt;Node595 -->
<g id="edge47" class="edge">
<title>Node1&#45;&gt;Node595</title>
<path fill="none" stroke="#63b8ff" d="M4284.5,-186.39C4284.5,-178.13 4284.5,-169.28 4284.5,-162.16"/>
<polygon fill="#63b8ff" stroke="#63b8ff" points="4281,-186.28 4284.5,-196.28 4288,-186.28 4281,-186.28"/>
</g>
<!-- Node470 -->
<g id="node46" class="node">
<title>Node470</title>
<g id="a_node46"><a xlink:href="Z2SeMgr_8h.html" target="_top" xlink:title=" ">
<polygon fill="#fff0f0" stroke="red" points="4644.5,-162 4544.5,-162 4544.5,-132 4644.5,-132 4644.5,-162"/>
<text text-anchor="start" x="4552.5" y="-150" font-family="Helvetica,sans-Serif" font-size="10.00">include/Z2AudioLib</text>
<text text-anchor="middle" x="4594.5" y="-139" font-family="Helvetica,sans-Serif" font-size="10.00">/Z2SeMgr.h</text>
</a>
</g>
</g>
<!-- Node1&#45;&gt;Node470 -->
<g id="edge55" class="edge">
<title>Node1&#45;&gt;Node470</title>
<path fill="none" stroke="#63b8ff" d="M4345.75,-200.44C4396.65,-190.69 4470.93,-176.09 4535.5,-162 4538.38,-161.37 4541.34,-160.71 4544.32,-160.04"/>
<polygon fill="#63b8ff" stroke="#63b8ff" points="4345.27,-196.97 4336.1,-202.29 4346.58,-203.85 4345.27,-196.97"/>
</g>
<!-- Node652 -->
<g id="node47" class="node">
<title>Node652</title>
<g id="a_node47"><a xlink:href="Z2StatusMgr_8h.html" target="_top" xlink:title=" ">
<polygon fill="#fff0f0" stroke="red" points="4762.5,-162 4662.5,-162 4662.5,-132 4762.5,-132 4762.5,-162"/>
<text text-anchor="start" x="4670.5" y="-150" font-family="Helvetica,sans-Serif" font-size="10.00">include/Z2AudioLib</text>
<text text-anchor="middle" x="4712.5" y="-139" font-family="Helvetica,sans-Serif" font-size="10.00">/Z2StatusMgr.h</text>
</a>
</g>
</g>
<!-- Node1&#45;&gt;Node652 -->
<g id="edge56" class="edge">
<title>Node1&#45;&gt;Node652</title>
<path fill="none" stroke="#63b8ff" d="M4346.22,-205.51C4419.74,-197.36 4546.11,-181.97 4653.5,-162 4656.29,-161.48 4659.16,-160.91 4662.04,-160.32"/>
<polygon fill="#63b8ff" stroke="#63b8ff" points="4345.95,-202.02 4336.39,-206.6 4346.71,-208.98 4345.95,-202.02"/>
</g>
<!-- Node653 -->
<g id="node48" class="node">
<title>Node653</title>
<g id="a_node48"><a xlink:href="d__tresure_8h.html" target="_top" xlink:title=" ">
<polygon fill="#fff0f0" stroke="red" points="4888,-156.5 4781,-156.5 4781,-137.5 4888,-137.5 4888,-156.5"/>
<text text-anchor="middle" x="4834.5" y="-144.5" font-family="Helvetica,sans-Serif" font-size="10.00">include/d/d_tresure.h</text>
</a>
</g>
</g>
<!-- Node1&#45;&gt;Node653 -->
<g id="edge57" class="edge">
<title>Node1&#45;&gt;Node653</title>
<path fill="none" stroke="#63b8ff" d="M4346.29,-207.97C4439.05,-201.4 4619.63,-186.58 4771.5,-162 4780.02,-160.62 4789.11,-158.81 4797.66,-156.94"/>
<polygon fill="#63b8ff" stroke="#63b8ff" points="4346.12,-204.47 4336.39,-208.66 4346.61,-211.46 4346.12,-204.47"/>
</g>
<!-- Node654 -->
<g id="node49" class="node">
<title>Node654</title>
<g id="a_node49"><a xlink:href="quat_8h.html" target="_top" xlink:title=" ">
<polygon fill="#fff0f0" stroke="red" points="5006.5,-162 4906.5,-162 4906.5,-132 5006.5,-132 5006.5,-162"/>
<text text-anchor="start" x="4914.5" y="-150" font-family="Helvetica,sans-Serif" font-size="10.00">include/dolphin/mtx</text>
<text text-anchor="middle" x="4956.5" y="-139" font-family="Helvetica,sans-Serif" font-size="10.00">/quat.h</text>
</a>
</g>
</g>
<!-- Node1&#45;&gt;Node654 -->
<g id="edge58" class="edge">
<title>Node1&#45;&gt;Node654</title>
<path fill="none" stroke="#63b8ff" d="M4346.15,-210.06C4457.06,-205.89 4697.35,-193.72 4897.5,-162 4900.31,-161.56 4903.18,-161.05 4906.07,-160.5"/>
<polygon fill="#63b8ff" stroke="#63b8ff" points="4346.24,-206.56 4336.38,-210.42 4346.5,-213.55 4346.24,-206.56"/>
</g>
<!-- Node730 -->
<g id="node50" class="node">
<title>Node730</title>
<g id="a_node50"><a xlink:href="vec_8c.html" target="_top" xlink:title=" ">
<polygon fill="white" stroke="#666666" points="5134.5,-156.5 5024.5,-156.5 5024.5,-137.5 5134.5,-137.5 5134.5,-156.5"/>
<text text-anchor="middle" x="5079.5" y="-144.5" font-family="Helvetica,sans-Serif" font-size="10.00">libs/dolphin/mtx/vec.c</text>
</a>
</g>
</g>
<!-- Node1&#45;&gt;Node730 -->
<g id="edge59" class="edge">
<title>Node1&#45;&gt;Node730</title>
<path fill="none" stroke="#63b8ff" d="M4346.16,-210.84C4472.39,-207.79 4769.13,-197.18 5015.5,-162 5024.51,-160.71 5034.14,-158.86 5043.12,-156.93"/>
<polygon fill="#63b8ff" stroke="#63b8ff" points="4346.27,-207.34 4336.35,-211.07 4346.43,-214.33 4346.27,-207.34"/>
</g>
<!-- Node3 -->
<g id="node3" class="node">
<title>Node3</title>
<g id="a_node3"><a xlink:href="J3DMatBlock_8h.html" target="_top" xlink:title=" ">
<polygon fill="#fff0f0" stroke="red" points="135,-30 0,-30 0,0 135,0 135,-30"/>
<text text-anchor="start" x="8" y="-18" font-family="Helvetica,sans-Serif" font-size="10.00">include/JSystem/J3DGraph</text>
<text text-anchor="middle" x="67.5" y="-7" font-family="Helvetica,sans-Serif" font-size="10.00">Base/J3DMatBlock.h</text>
</a>
</g>
</g>
<!-- Node2&#45;&gt;Node3 -->
<g id="edge2" class="edge">
<title>Node2&#45;&gt;Node3</title>
<path fill="none" stroke="#63b8ff" d="M193.26,-139.6C133.22,-132.91 57.86,-119.93 38.5,-96 22.71,-76.47 40.68,-47.6 54.53,-30.41"/>
<polygon fill="#63b8ff" stroke="#63b8ff" points="192.84,-143.07 203.16,-140.66 193.58,-136.11 192.84,-143.07"/>
</g>
<!-- Node32 -->
<g id="node4" class="node">
<title>Node32</title>
<g id="a_node4"><a xlink:href="J3DTexture_8h.html" target="_top" xlink:title=" ">
<polygon fill="#fff0f0" stroke="red" points="183,-96 48,-96 48,-66 183,-66 183,-96"/>
<text text-anchor="start" x="56" y="-84" font-family="Helvetica,sans-Serif" font-size="10.00">include/JSystem/J3DGraph</text>
<text text-anchor="middle" x="115.5" y="-73" font-family="Helvetica,sans-Serif" font-size="10.00">Base/J3DTexture.h</text>
</a>
</g>
</g>
<!-- Node2&#45;&gt;Node32 -->
<g id="edge3" class="edge">
<title>Node2&#45;&gt;Node32</title>
<path fill="none" stroke="#63b8ff" d="M226.89,-127.41C202.68,-117.54 173.36,-105.59 150.89,-96.43"/>
<polygon fill="#63b8ff" stroke="#63b8ff" points="225.28,-130.53 235.86,-131.07 227.93,-124.05 225.28,-130.53"/>
</g>
<!-- Node38 -->
<g id="node5" class="node">
<title>Node38</title>
<g id="a_node5"><a xlink:href="d__kankyo_8h.html" target="_top" xlink:title=" ">
<polygon fill="#fff0f0" stroke="red" points="645.5,-30 547.5,-30 547.5,0 645.5,0 645.5,-30"/>
<text text-anchor="start" x="555.5" y="-18" font-family="Helvetica,sans-Serif" font-size="10.00">include/d/kankyo/d</text>
<text text-anchor="middle" x="596.5" y="-7" font-family="Helvetica,sans-Serif" font-size="10.00">_kankyo.h</text>
</a>
</g>
</g>
<!-- Node2&#45;&gt;Node38 -->
<g id="edge5" class="edge">
<title>Node2&#45;&gt;Node38</title>
<path fill="none" stroke="#63b8ff" d="M306.63,-125.81C321.02,-117 337.81,-106.34 352.5,-96 370.09,-83.61 371.15,-75.42 390.5,-66 440.79,-41.51 503.99,-28.47 547.03,-21.92"/>
<polygon fill="#63b8ff" stroke="#63b8ff" points="305.14,-122.62 298.4,-130.8 308.77,-128.61 305.14,-122.62"/>
</g>
<!-- Node334 -->
<g id="node6" class="node">
<title>Node334</title>
<g id="a_node6"><a xlink:href="J3DStruct_8cpp.html" target="_top" xlink:title=" ">
<polygon fill="white" stroke="#666666" points="343.5,-96 201.5,-96 201.5,-66 343.5,-66 343.5,-96"/>
<text text-anchor="start" x="209.5" y="-84" font-family="Helvetica,sans-Serif" font-size="10.00">libs/JSystem/J3DGraphBase</text>
<text text-anchor="middle" x="272.5" y="-73" font-family="Helvetica,sans-Serif" font-size="10.00">/J3DStruct.cpp</text>
</a>
</g>
</g>
<!-- Node2&#45;&gt;Node334 -->
<g id="edge6" class="edge">
<title>Node2&#45;&gt;Node334</title>
<path fill="none" stroke="#63b8ff" d="M272.5,-120.39C272.5,-112.13 272.5,-103.28 272.5,-96.16"/>
<polygon fill="#63b8ff" stroke="#63b8ff" points="269,-120.28 272.5,-130.28 276,-120.28 269,-120.28"/>
</g>
<!-- Node32&#45;&gt;Node3 -->
<g id="edge4" class="edge">
<title>Node32&#45;&gt;Node3</title>
<path fill="none" stroke="#63b8ff" d="M98.01,-56.68C91.35,-47.79 83.96,-37.95 78.12,-30.16"/>
<polygon fill="#63b8ff" stroke="#63b8ff" points="95.14,-58.69 103.94,-64.59 100.74,-54.49 95.14,-58.69"/>
</g>
<!-- Node336 -->
<g id="node8" class="node">
<title>Node336</title>
<g id="a_node8"><a xlink:href="J3DModel_8h.html" target="_top" xlink:title=" ">
<polygon fill="#fff0f0" stroke="red" points="1009,-96 874,-96 874,-66 1009,-66 1009,-96"/>
<text text-anchor="start" x="882" y="-84" font-family="Helvetica,sans-Serif" font-size="10.00">include/JSystem/J3DGraph</text>
<text text-anchor="middle" x="941.5" y="-73" font-family="Helvetica,sans-Serif" font-size="10.00">Animator/J3DModel.h</text>
</a>
</g>
</g>
<!-- Node335&#45;&gt;Node336 -->
<g id="edge8" class="edge">
<title>Node335&#45;&gt;Node336</title>
<path fill="none" stroke="#63b8ff" d="M830.11,-127.41C854.32,-117.54 883.64,-105.59 906.11,-96.43"/>
<polygon fill="#63b8ff" stroke="#63b8ff" points="829.07,-124.05 821.14,-131.07 831.72,-130.53 829.07,-124.05"/>
</g>
<!-- Node384 -->
<g id="node10" class="node">
<title>Node384</title>
<g id="a_node10"><a xlink:href="J3DModelData_8h.html" target="_top" xlink:title=" ">
<polygon fill="#fff0f0" stroke="red" points="535,-96 400,-96 400,-66 535,-66 535,-96"/>
<text text-anchor="start" x="408" y="-84" font-family="Helvetica,sans-Serif" font-size="10.00">include/JSystem/J3DGraph</text>
<text text-anchor="middle" x="467.5" y="-73" font-family="Helvetica,sans-Serif" font-size="10.00">Animator/J3DModelData.h</text>
</a>
</g>
</g>
<!-- Node335&#45;&gt;Node384 -->
<g id="edge10" class="edge">
<title>Node335&#45;&gt;Node384</title>
<path fill="none" stroke="#63b8ff" d="M705.62,-130.08C653.25,-119.5 585.22,-105.77 535.28,-95.69"/>
<polygon fill="#63b8ff" stroke="#63b8ff" points="704.91,-133.5 715.4,-132.05 706.29,-126.64 704.91,-133.5"/>
</g>
<!-- Node414 -->
<g id="node11" class="node">
<title>Node414</title>
<g id="a_node11"><a xlink:href="J3DShape_8cpp.html" target="_top" xlink:title=" ">
<polygon fill="white" stroke="#666666" points="695.5,-96 553.5,-96 553.5,-66 695.5,-66 695.5,-96"/>
<text text-anchor="start" x="561.5" y="-84" font-family="Helvetica,sans-Serif" font-size="10.00">libs/JSystem/J3DGraphBase</text>
<text text-anchor="middle" x="624.5" y="-73" font-family="Helvetica,sans-Serif" font-size="10.00">/J3DShape.cpp</text>
</a>
</g>
</g>
<!-- Node335&#45;&gt;Node414 -->
<g id="edge11" class="edge">
<title>Node335&#45;&gt;Node414</title>
<path fill="none" stroke="#63b8ff" d="M738.02,-127.41C713.34,-117.54 683.47,-105.59 660.56,-96.43"/>
<polygon fill="#63b8ff" stroke="#63b8ff" points="736.6,-130.61 747.19,-131.08 739.2,-124.11 736.6,-130.61"/>
</g>
<!-- Node415 -->
<g id="node12" class="node">
<title>Node415</title>
<g id="a_node12"><a xlink:href="J3DVertex_8cpp.html" target="_top" xlink:title=" ">
<polygon fill="white" stroke="#666666" points="855.5,-96 713.5,-96 713.5,-66 855.5,-66 855.5,-96"/>
<text text-anchor="start" x="721.5" y="-84" font-family="Helvetica,sans-Serif" font-size="10.00">libs/JSystem/J3DGraphBase</text>
<text text-anchor="middle" x="784.5" y="-73" font-family="Helvetica,sans-Serif" font-size="10.00">/J3DVertex.cpp</text>
</a>
</g>
</g>
<!-- Node335&#45;&gt;Node415 -->
<g id="edge12" class="edge">
<title>Node335&#45;&gt;Node415</title>
<path fill="none" stroke="#63b8ff" d="M784.5,-120.39C784.5,-112.13 784.5,-103.28 784.5,-96.16"/>
<polygon fill="#63b8ff" stroke="#63b8ff" points="781,-120.28 784.5,-130.28 788,-120.28 781,-120.28"/>
</g>
<!-- Node337 -->
<g id="node9" class="node">
<title>Node337</title>
<g id="a_node9"><a xlink:href="d__jnt__col_8h.html" target="_top" xlink:title=" ">
<polygon fill="#fff0f0" stroke="red" points="3002,-24.5 2897,-24.5 2897,-5.5 3002,-5.5 3002,-24.5"/>
<text text-anchor="middle" x="2949.5" y="-12.5" font-family="Helvetica,sans-Serif" font-size="10.00">include/d/d_jnt_col.h</text>
</a>
</g>
</g>
<!-- Node336&#45;&gt;Node337 -->
<g id="edge9" class="edge">
<title>Node336&#45;&gt;Node337</title>
<path fill="none" stroke="#63b8ff" d="M1020.67,-65.8C1420.22,-26.23 2629.01,-17.69 2896.67,-16.25"/>
<polygon fill="#63b8ff" stroke="#63b8ff" points="1020.48,-62.31 1010.88,-66.8 1021.19,-69.27 1020.48,-62.31"/>
</g>
<!-- Node417 -->
<g id="node14" class="node">
<title>Node417</title>
<g id="a_node14"><a xlink:href="J3DShapeFactory_8cpp.html" target="_top" xlink:title=" ">
<polygon fill="white" stroke="#666666" points="1176,-96 1027,-96 1027,-66 1176,-66 1176,-96"/>
<text text-anchor="start" x="1035" y="-84" font-family="Helvetica,sans-Serif" font-size="10.00">libs/JSystem/J3DGraphLoader</text>
<text text-anchor="middle" x="1101.5" y="-73" font-family="Helvetica,sans-Serif" font-size="10.00">/J3DShapeFactory.cpp</text>
</a>
</g>
</g>
<!-- Node416&#45;&gt;Node417 -->
<g id="edge14" class="edge">
<title>Node416&#45;&gt;Node417</title>
<path fill="none" stroke="#63b8ff" d="M1472.52,-135.89C1398.33,-126.23 1284.26,-110.97 1185.5,-96 1182.43,-95.53 1179.3,-95.05 1176.14,-94.56"/>
<polygon fill="#63b8ff" stroke="#63b8ff" points="1471.75,-139.32 1482.12,-137.14 1472.65,-132.38 1471.75,-139.32"/>
</g>
<!-- Node419 -->
<g id="node16" class="node">
<title>Node419</title>
<g id="a_node16"><a xlink:href="J2DGrafContext_8h.html" target="_top" xlink:title=" ">
<polygon fill="#fff0f0" stroke="red" points="1628,-96 1493,-96 1493,-66 1628,-66 1628,-96"/>
<text text-anchor="start" x="1501" y="-84" font-family="Helvetica,sans-Serif" font-size="10.00">include/JSystem/J2DGraph</text>
<text text-anchor="middle" x="1560.5" y="-73" font-family="Helvetica,sans-Serif" font-size="10.00">/J2DGrafContext.h</text>
</a>
</g>
</g>
<!-- Node418&#45;&gt;Node419 -->
<g id="edge16" class="edge">
<title>Node418&#45;&gt;Node419</title>
<path fill="none" stroke="#63b8ff" d="M2002.93,-138.45C1912.13,-129.92 1763.75,-114.75 1636.5,-96 1633.85,-95.61 1631.14,-95.19 1628.41,-94.76"/>
<polygon fill="#63b8ff" stroke="#63b8ff" points="2002.47,-141.92 2012.75,-139.37 2003.12,-134.95 2002.47,-141.92"/>
</g>
<!-- Node427 -->
<g id="node17" class="node">
<title>Node427</title>
<g id="a_node17"><a xlink:href="J2DPane_8h.html" target="_top" xlink:title=" ">
<polygon fill="#fff0f0" stroke="red" points="1781,-96 1646,-96 1646,-66 1781,-66 1781,-96"/>
<text text-anchor="start" x="1654" y="-84" font-family="Helvetica,sans-Serif" font-size="10.00">include/JSystem/J2DGraph</text>
<text text-anchor="middle" x="1713.5" y="-73" font-family="Helvetica,sans-Serif" font-size="10.00">/J2DPane.h</text>
</a>
</g>
</g>
<!-- Node418&#45;&gt;Node427 -->
<g id="edge17" class="edge">
<title>Node418&#45;&gt;Node427</title>
<path fill="none" stroke="#63b8ff" d="M2020.97,-135.15C1960.55,-125.22 1868.98,-109.99 1789.5,-96 1786.86,-95.53 1784.16,-95.06 1781.44,-94.57"/>
<polygon fill="#63b8ff" stroke="#63b8ff" points="2020.33,-138.59 2030.76,-136.76 2021.46,-131.68 2020.33,-138.59"/>
</g>
<!-- Node435 -->
<g id="node18" class="node">
<title>Node435</title>
<g id="a_node18"><a xlink:href="J3DTransform_8h.html" target="_top" xlink:title=" ">
<polygon fill="#fff0f0" stroke="red" points="1934,-96 1799,-96 1799,-66 1934,-66 1934,-96"/>
<text text-anchor="start" x="1807" y="-84" font-family="Helvetica,sans-Serif" font-size="10.00">include/JSystem/J3DGraph</text>
<text text-anchor="middle" x="1866.5" y="-73" font-family="Helvetica,sans-Serif" font-size="10.00">Base/J3DTransform.h</text>
</a>
</g>
</g>
<!-- Node418&#45;&gt;Node435 -->
<g id="edge18" class="edge">
<title>Node418&#45;&gt;Node435</title>
<path fill="none" stroke="#63b8ff" d="M2045.95,-133.97C2009.22,-123.33 1955.56,-107.79 1916.49,-96.48"/>
<polygon fill="#63b8ff" stroke="#63b8ff" points="2044.74,-137.26 2055.32,-136.68 2046.69,-130.54 2044.74,-137.26"/>
</g>
<!-- Node441 -->
<g id="node19" class="node">
<title>Node441</title>
<g id="a_node19"><a xlink:href="JAIAudible_8h.html" target="_top" xlink:title=" ">
<polygon fill="#fff0f0" stroke="red" points="2079,-96 1952,-96 1952,-66 2079,-66 2079,-96"/>
<text text-anchor="start" x="1960" y="-84" font-family="Helvetica,sans-Serif" font-size="10.00">include/JSystem/JAudio2</text>
<text text-anchor="middle" x="2015.5" y="-73" font-family="Helvetica,sans-Serif" font-size="10.00">/JAIAudible.h</text>
</a>
</g>
</g>
<!-- Node418&#45;&gt;Node441 -->
<g id="edge19" class="edge">
<title>Node418&#45;&gt;Node441</title>
<path fill="none" stroke="#63b8ff" d="M2069.07,-129.62C2057.56,-119.38 2042.87,-106.33 2031.79,-96.48"/>
<polygon fill="#63b8ff" stroke="#63b8ff" points="2066.56,-132.07 2076.36,-136.1 2071.21,-126.84 2066.56,-132.07"/>
</g>
<!-- Node513 -->
<g id="node20" class="node">
<title>Node513</title>
<g id="a_node20"><a xlink:href="JAIAudience_8h.html" target="_top" xlink:title=" ">
<polygon fill="#fff0f0" stroke="red" points="2224,-96 2097,-96 2097,-66 2224,-66 2224,-96"/>
<text text-anchor="start" x="2105" y="-84" font-family="Helvetica,sans-Serif" font-size="10.00">include/JSystem/JAudio2</text>
<text text-anchor="middle" x="2160.5" y="-73" font-family="Helvetica,sans-Serif" font-size="10.00">/JAIAudience.h</text>
</a>
</g>
</g>
<!-- Node418&#45;&gt;Node513 -->
<g id="edge20" class="edge">
<title>Node418&#45;&gt;Node513</title>
<path fill="none" stroke="#63b8ff" d="M2106.19,-129.62C2117.86,-119.38 2132.75,-106.33 2143.99,-96.48"/>
<polygon fill="#63b8ff" stroke="#63b8ff" points="2104,-126.88 2098.79,-136.1 2108.62,-132.14 2104,-126.88"/>
</g>
<!-- Node515 -->
<g id="node21" class="node">
<title>Node515</title>
<g id="a_node21"><a xlink:href="JPADynamicsBlock_8h.html" target="_top" xlink:title=" ">
<polygon fill="#fff0f0" stroke="red" points="2372.5,-96 2242.5,-96 2242.5,-66 2372.5,-66 2372.5,-96"/>
<text text-anchor="start" x="2250.5" y="-84" font-family="Helvetica,sans-Serif" font-size="10.00">include/JSystem/JParticle</text>
<text text-anchor="middle" x="2307.5" y="-73" font-family="Helvetica,sans-Serif" font-size="10.00">/JPADynamicsBlock.h</text>
</a>
</g>
</g>
<!-- Node418&#45;&gt;Node515 -->
<g id="edge21" class="edge">
<title>Node418&#45;&gt;Node515</title>
<path fill="none" stroke="#63b8ff" d="M2128.86,-133.97C2165.43,-123.33 2218.84,-107.79 2257.73,-96.48"/>
<polygon fill="#63b8ff" stroke="#63b8ff" points="2128.17,-130.52 2119.54,-136.68 2130.12,-137.25 2128.17,-130.52"/>
</g>
<!-- Node527 -->
<g id="node22" class="node">
<title>Node527</title>
<g id="a_node22"><a xlink:href="JPAEmitterManager_8h.html" target="_top" xlink:title=" ">
<polygon fill="#fff0f0" stroke="red" points="2520.5,-96 2390.5,-96 2390.5,-66 2520.5,-66 2520.5,-96"/>
<text text-anchor="start" x="2398.5" y="-84" font-family="Helvetica,sans-Serif" font-size="10.00">include/JSystem/JParticle</text>
<text text-anchor="middle" x="2455.5" y="-73" font-family="Helvetica,sans-Serif" font-size="10.00">/JPAEmitterManager.h</text>
</a>
</g>
</g>
<!-- Node418&#45;&gt;Node527 -->
<g id="edge22" class="edge">
<title>Node418&#45;&gt;Node527</title>
<path fill="none" stroke="#63b8ff" d="M2153.14,-135.19C2212.76,-125.29 2303.11,-110.08 2381.5,-96 2384.33,-95.49 2387.22,-94.97 2390.14,-94.43"/>
<polygon fill="#63b8ff" stroke="#63b8ff" points="2152.8,-131.7 2143.5,-136.79 2153.94,-138.61 2152.8,-131.7"/>
</g>
<!-- Node528 -->
<g id="node23" class="node">
<title>Node528</title>
<g id="a_node23"><a xlink:href="JPAMath_8h.html" target="_top" xlink:title=" ">
<polygon fill="#fff0f0" stroke="red" points="2668.5,-96 2538.5,-96 2538.5,-66 2668.5,-66 2668.5,-96"/>
<text text-anchor="start" x="2546.5" y="-84" font-family="Helvetica,sans-Serif" font-size="10.00">include/JSystem/JParticle</text>
<text text-anchor="middle" x="2603.5" y="-73" font-family="Helvetica,sans-Serif" font-size="10.00">/JPAMath.h</text>
</a>
</g>
</g>
<!-- Node418&#45;&gt;Node528 -->
<g id="edge23" class="edge">
<title>Node418&#45;&gt;Node528</title>
<path fill="none" stroke="#63b8ff" d="M2172.24,-138.3C2261.4,-129.76 2405.69,-114.69 2529.5,-96 2532.34,-95.57 2535.25,-95.11 2538.17,-94.63"/>
<polygon fill="#63b8ff" stroke="#63b8ff" points="2171.97,-134.81 2162.35,-139.24 2172.64,-141.78 2171.97,-134.81"/>
</g>
<!-- Node530 -->
<g id="node24" class="node">
<title>Node530</title>
<g id="a_node24"><a xlink:href="JPAParticle_8h.html" target="_top" xlink:title=" ">
<polygon fill="#fff0f0" stroke="red" points="2816.5,-96 2686.5,-96 2686.5,-66 2816.5,-66 2816.5,-96"/>
<text text-anchor="start" x="2694.5" y="-84" font-family="Helvetica,sans-Serif" font-size="10.00">include/JSystem/JParticle</text>
<text text-anchor="middle" x="2751.5" y="-73" font-family="Helvetica,sans-Serif" font-size="10.00">/JPAParticle.h</text>
</a>
</g>
</g>
<!-- Node418&#45;&gt;Node530 -->
<g id="edge24" class="edge">
<title>Node418&#45;&gt;Node530</title>
<path fill="none" stroke="#63b8ff" d="M2172.38,-141.55C2287.28,-134.89 2498.53,-120.45 2677.5,-96 2680.35,-95.61 2683.26,-95.18 2686.19,-94.73"/>
<polygon fill="#63b8ff" stroke="#63b8ff" points="2172.18,-138.05 2162.4,-142.12 2172.58,-145.04 2172.18,-138.05"/>
</g>
<!-- Node536 -->
<g id="node25" class="node">
<title>Node536</title>
<g id="a_node25"><a xlink:href="JUTFader_8h.html" target="_top" xlink:title=" ">
<polygon fill="#fff0f0" stroke="red" points="1316.5,-96 1194.5,-96 1194.5,-66 1316.5,-66 1316.5,-96"/>
<text text-anchor="start" x="1202.5" y="-84" font-family="Helvetica,sans-Serif" font-size="10.00">include/JSystem/JUtility</text>
<text text-anchor="middle" x="1255.5" y="-73" font-family="Helvetica,sans-Serif" font-size="10.00">/JUTFader.h</text>
</a>
</g>
</g>
<!-- Node418&#45;&gt;Node536 -->
<g id="edge25" class="edge">
<title>Node418&#45;&gt;Node536</title>
<path fill="none" stroke="#63b8ff" d="M2003.04,-144.09C1862.1,-140.1 1570.24,-128.36 1325.5,-96 1322.67,-95.63 1319.79,-95.21 1316.88,-94.75"/>
<polygon fill="#63b8ff" stroke="#63b8ff" points="2002.55,-147.58 2012.65,-144.36 2002.75,-140.58 2002.55,-147.58"/>
</g>
<!-- Node398 -->
<g id="node26" class="node">
<title>Node398</title>
<g id="a_node26"><a xlink:href="d__msg__string_8cpp.html" target="_top" xlink:title=" ">
<polygon fill="white" stroke="#666666" points="1474.5,-90.5 1334.5,-90.5 1334.5,-71.5 1474.5,-71.5 1474.5,-90.5"/>
<text text-anchor="middle" x="1404.5" y="-78.5" font-family="Helvetica,sans-Serif" font-size="10.00">src/d/msg/d_msg_string.cpp</text>
</a>
</g>
</g>
<!-- Node418&#45;&gt;Node398 -->
<g id="edge26" class="edge">
<title>Node418&#45;&gt;Node398</title>
<path fill="none" stroke="#63b8ff" d="M2002.93,-141.48C1885.88,-134.66 1668.05,-119.94 1483.5,-96 1472.86,-94.62 1461.48,-92.8 1450.76,-90.94"/>
<polygon fill="#63b8ff" stroke="#63b8ff" points="2002.59,-144.97 2012.77,-142.05 2002.99,-137.98 2002.59,-144.97"/>
</g>
<!-- Node540 -->
<g id="node28" class="node">
<title>Node540</title>
<g id="a_node28"><a xlink:href="jstudio-object_8h.html" target="_top" xlink:title=" ">
<polygon fill="#fff0f0" stroke="red" points="2960,-96 2835,-96 2835,-66 2960,-66 2960,-96"/>
<text text-anchor="start" x="2843" y="-84" font-family="Helvetica,sans-Serif" font-size="10.00">include/JSystem/JStudio</text>
<text text-anchor="middle" x="2897.5" y="-73" font-family="Helvetica,sans-Serif" font-size="10.00">/JStudio/jstudio&#45;object.h</text>
</a>
</g>
</g>
<!-- Node539&#45;&gt;Node540 -->
<g id="edge28" class="edge">
<title>Node539&#45;&gt;Node540</title>
<path fill="none" stroke="#63b8ff" d="M3001.89,-127.14C2979.18,-117.32 2951.86,-105.51 2930.86,-96.43"/>
<polygon fill="#63b8ff" stroke="#63b8ff" points="3000.33,-130.28 3010.9,-131.04 3003.11,-123.85 3000.33,-130.28"/>
</g>
<!-- Node556 -->
<g id="node29" class="node">
<title>Node556</title>
<g id="a_node29"><a xlink:href="jstudio-control_8cpp.html" target="_top" xlink:title=" ">
<polygon fill="white" stroke="#666666" points="3112.5,-96 2978.5,-96 2978.5,-66 3112.5,-66 3112.5,-96"/>
<text text-anchor="start" x="2986.5" y="-84" font-family="Helvetica,sans-Serif" font-size="10.00">libs/JSystem/JStudio</text>
<text text-anchor="middle" x="3045.5" y="-73" font-family="Helvetica,sans-Serif" font-size="10.00">/JStudio/jstudio&#45;control.cpp</text>
</a>
</g>
</g>
<!-- Node539&#45;&gt;Node556 -->
<g id="edge29" class="edge">
<title>Node539&#45;&gt;Node556</title>
<path fill="none" stroke="#63b8ff" d="M3045.5,-120.39C3045.5,-112.13 3045.5,-103.28 3045.5,-96.16"/>
<polygon fill="#63b8ff" stroke="#63b8ff" points="3042,-120.28 3045.5,-130.28 3049,-120.28 3042,-120.28"/>
</g>
<!-- Node558 -->
<g id="node31" class="node">
<title>Node558</title>
<g id="a_node31"><a xlink:href="c__bg__s__gnd__chk_8h.html" target="_top" xlink:title=" ">
<polygon fill="#fff0f0" stroke="red" points="4151,-96 4002,-96 4002,-66 4151,-66 4151,-96"/>
<text text-anchor="start" x="4010" y="-84" font-family="Helvetica,sans-Serif" font-size="10.00">include/SSystem/SComponent</text>
<text text-anchor="middle" x="4076.5" y="-73" font-family="Helvetica,sans-Serif" font-size="10.00">/c_bg_s_gnd_chk.h</text>
</a>
</g>
</g>
<!-- Node557&#45;&gt;Node558 -->
<g id="edge31" class="edge">
<title>Node557&#45;&gt;Node558</title>
<path fill="none" stroke="#63b8ff" d="M3793.29,-131.12C3856.37,-120.18 3941.27,-105.45 4001.62,-94.99"/>
<polygon fill="#63b8ff" stroke="#63b8ff" points="3792.92,-127.63 3783.66,-132.79 3794.11,-134.53 3792.92,-127.63"/>
</g>
<!-- Node563 -->
<g id="node32" class="node">
<title>Node563</title>
<g id="a_node32"><a xlink:href="c__bg__s__lin__chk_8h.html" target="_top" xlink:title=" ">
<polygon fill="#fff0f0" stroke="red" points="3280,-96 3131,-96 3131,-66 3280,-66 3280,-96"/>
<text text-anchor="start" x="3139" y="-84" font-family="Helvetica,sans-Serif" font-size="10.00">include/SSystem/SComponent</text>
<text text-anchor="middle" x="3205.5" y="-73" font-family="Helvetica,sans-Serif" font-size="10.00">/c_bg_s_lin_chk.h</text>
</a>
</g>
</g>
<!-- Node557&#45;&gt;Node563 -->
<g id="edge32" class="edge">
<title>Node557&#45;&gt;Node563</title>
<path fill="none" stroke="#63b8ff" d="M3621.25,-136.86C3536.63,-127.61 3403.98,-112.38 3289.5,-96 3286.43,-95.56 3283.29,-95.1 3280.13,-94.62"/>
<polygon fill="#63b8ff" stroke="#63b8ff" points="3620.79,-140.33 3631.11,-137.93 3621.54,-133.37 3620.79,-140.33"/>
</g>
<!-- Node566 -->
<g id="node33" class="node">
<title>Node566</title>
<g id="a_node33"><a xlink:href="c__bg__s__shdw__draw_8h.html" target="_top" xlink:title=" ">
<polygon fill="#fff0f0" stroke="red" points="3447,-96 3298,-96 3298,-66 3447,-66 3447,-96"/>
<text text-anchor="start" x="3306" y="-84" font-family="Helvetica,sans-Serif" font-size="10.00">include/SSystem/SComponent</text>
<text text-anchor="middle" x="3372.5" y="-73" font-family="Helvetica,sans-Serif" font-size="10.00">/c_bg_s_shdw_draw.h</text>
</a>
</g>
</g>
<!-- Node557&#45;&gt;Node566 -->
<g id="edge33" class="edge">
<title>Node557&#45;&gt;Node566</title>
<path fill="none" stroke="#63b8ff" d="M3621.48,-129.57C3567.63,-119.28 3498.92,-106.15 3447.32,-96.29"/>
<polygon fill="#63b8ff" stroke="#63b8ff" points="3620.77,-132.99 3631.25,-131.43 3622.08,-126.12 3620.77,-132.99"/>
</g>
<!-- Node568 -->
<g id="node34" class="node">
<title>Node568</title>
<g id="a_node34"><a xlink:href="d__bg__s__cap__poly_8h.html" target="_top" xlink:title=" ">
<polygon fill="#fff0f0" stroke="red" points="3569.5,-96 3465.5,-96 3465.5,-66 3569.5,-66 3569.5,-96"/>
<text text-anchor="start" x="3473.5" y="-84" font-family="Helvetica,sans-Serif" font-size="10.00">include/d/bg/d_bg_s</text>
<text text-anchor="middle" x="3517.5" y="-73" font-family="Helvetica,sans-Serif" font-size="10.00">_cap_poly.h</text>
</a>
</g>
</g>
<!-- Node557&#45;&gt;Node568 -->
<g id="edge34" class="edge">
<title>Node557&#45;&gt;Node568</title>
<path fill="none" stroke="#63b8ff" d="M3654.26,-128.07C3624.59,-118.07 3588.14,-105.79 3560.33,-96.43"/>
<polygon fill="#63b8ff" stroke="#63b8ff" points="3652.83,-131.28 3663.43,-131.15 3655.07,-124.64 3652.83,-131.28"/>
</g>
<!-- Node569 -->
<g id="node35" class="node">
<title>Node569</title>
<g id="a_node35"><a xlink:href="d__bg__s__grp__pass__chk_8h.html" target="_top" xlink:title=" ">
<polygon fill="#fff0f0" stroke="red" points="3691.5,-96 3587.5,-96 3587.5,-66 3691.5,-66 3691.5,-96"/>
<text text-anchor="start" x="3595.5" y="-84" font-family="Helvetica,sans-Serif" font-size="10.00">include/d/bg/d_bg_s</text>
<text text-anchor="middle" x="3639.5" y="-73" font-family="Helvetica,sans-Serif" font-size="10.00">_grp_pass_chk.h</text>
</a>
</g>
</g>
<!-- Node557&#45;&gt;Node569 -->
<g id="edge35" class="edge">
<title>Node557&#45;&gt;Node569</title>
<path fill="none" stroke="#63b8ff" d="M3684.22,-124.09C3674.4,-114.85 3663.26,-104.36 3654.55,-96.16"/>
<polygon fill="#63b8ff" stroke="#63b8ff" points="3681.63,-126.45 3691.31,-130.76 3686.42,-121.36 3681.63,-126.45"/>
</g>
<!-- Node581 -->
<g id="node36" class="node">
<title>Node581</title>
<g id="a_node36"><a xlink:href="c__bg__s__chk_8cpp.html" target="_top" xlink:title=" ">
<polygon fill="white" stroke="#666666" points="3843.5,-96 3709.5,-96 3709.5,-66 3843.5,-66 3843.5,-96"/>
<text text-anchor="start" x="3717.5" y="-84" font-family="Helvetica,sans-Serif" font-size="10.00">libs/SSystem/SComponent</text>
<text text-anchor="middle" x="3776.5" y="-73" font-family="Helvetica,sans-Serif" font-size="10.00">/c_bg_s_chk.cpp</text>
</a>
</g>
</g>
<!-- Node557&#45;&gt;Node581 -->
<g id="edge36" class="edge">
<title>Node557&#45;&gt;Node581</title>
<path fill="none" stroke="#63b8ff" d="M3731.12,-124.09C3741.09,-114.85 3752.39,-104.36 3761.23,-96.16"/>
<polygon fill="#63b8ff" stroke="#63b8ff" points="3728.87,-121.4 3723.92,-130.77 3733.63,-126.53 3728.87,-121.4"/>
</g>
<!-- Node582 -->
<g id="node37" class="node">
<title>Node582</title>
<g id="a_node37"><a xlink:href="d__bg__w__sv_8cpp.html" target="_top" xlink:title=" ">
<polygon fill="white" stroke="#666666" points="3983.5,-90.5 3861.5,-90.5 3861.5,-71.5 3983.5,-71.5 3983.5,-90.5"/>
<text text-anchor="middle" x="3922.5" y="-78.5" font-family="Helvetica,sans-Serif" font-size="10.00">src/d/bg/d_bg_w_sv.cpp</text>
</a>
</g>
</g>
<!-- Node557&#45;&gt;Node582 -->
<g id="edge37" class="edge">
<title>Node557&#45;&gt;Node582</title>
<path fill="none" stroke="#63b8ff" d="M3766.91,-128.32C3807.65,-116.19 3860,-100.61 3892.39,-90.96"/>
<polygon fill="#63b8ff" stroke="#63b8ff" points="3766.05,-124.92 3757.47,-131.13 3768.05,-131.63 3766.05,-124.92"/>
</g>
<!-- Node583&#45;&gt;Node337 -->
<g id="edge41" class="edge">
<title>Node583&#45;&gt;Node337</title>
<path fill="none" stroke="#63b8ff" d="M4537.33,-132.2C4615.09,-126.51 4909.82,-127.36 4938.5,-96 4947.5,-86.16 4947.81,-75.55 4938.5,-66 4903.71,-30.33 3314.79,-18.33 3002.46,-16.32"/>
<polygon fill="#63b8ff" stroke="#63b8ff" points="4537.24,-128.69 4527.62,-133.12 4537.9,-135.66 4537.24,-128.69"/>
</g>
<!-- Node584 -->
<g id="node39" class="node">
<title>Node584</title>
<g id="a_node39"><a xlink:href="d__bg__w_8h.html" target="_top" xlink:title=" ">
<polygon fill="#fff0f0" stroke="red" points="4433,-90.5 4320,-90.5 4320,-71.5 4433,-71.5 4433,-90.5"/>
<text text-anchor="middle" x="4376.5" y="-78.5" font-family="Helvetica,sans-Serif" font-size="10.00">include/d/bg/d_bg_w.h</text>
</a>
</g>
</g>
<!-- Node583&#45;&gt;Node584 -->
<g id="edge39" class="edge">
<title>Node583&#45;&gt;Node584</title>
<path fill="none" stroke="#63b8ff" d="M4426.43,-124.6C4412.94,-113.1 4397.04,-99.52 4386.86,-90.84"/>
<polygon fill="#63b8ff" stroke="#63b8ff" points="4423.82,-126.99 4433.7,-130.81 4428.37,-121.66 4423.82,-126.99"/>
</g>
<!-- Node467 -->
<g id="node40" class="node">
<title>Node467</title>
<g id="a_node40"><a xlink:href="d__demo_8h.html" target="_top" xlink:title=" ">
<polygon fill="#fff0f0" stroke="red" points="4669,-90.5 4568,-90.5 4568,-71.5 4669,-71.5 4669,-90.5"/>
<text text-anchor="middle" x="4618.5" y="-78.5" font-family="Helvetica,sans-Serif" font-size="10.00">include/d/d_demo.h</text>
</a>
</g>
</g>
<!-- Node583&#45;&gt;Node467 -->
<g id="edge40" class="edge">
<title>Node583&#45;&gt;Node467</title>
<path fill="none" stroke="#63b8ff" d="M4499.68,-127.54C4530.99,-115.54 4570.42,-100.43 4595.05,-90.99"/>
<polygon fill="#63b8ff" stroke="#63b8ff" points="4498.48,-124.25 4490.39,-131.1 4500.98,-130.79 4498.48,-124.25"/>
</g>
<!-- Node586 -->
<g id="node41" class="node">
<title>Node586</title>
<g id="a_node41"><a xlink:href="d__kankyo__wether_8h.html" target="_top" xlink:title=" ">
<polygon fill="#fff0f0" stroke="red" points="4549.5,-96 4451.5,-96 4451.5,-66 4549.5,-66 4549.5,-96"/>
<text text-anchor="start" x="4459.5" y="-84" font-family="Helvetica,sans-Serif" font-size="10.00">include/d/kankyo/d</text>
<text text-anchor="middle" x="4500.5" y="-73" font-family="Helvetica,sans-Serif" font-size="10.00">_kankyo_wether.h</text>
</a>
</g>
</g>
<!-- Node583&#45;&gt;Node586 -->
<g id="edge42" class="edge">
<title>Node583&#45;&gt;Node586</title>
<path fill="none" stroke="#63b8ff" d="M4469.36,-122.68C4476.16,-113.79 4483.7,-103.95 4489.66,-96.16"/>
<polygon fill="#63b8ff" stroke="#63b8ff" points="4466.59,-120.53 4463.29,-130.59 4472.15,-124.78 4466.59,-120.53"/>
</g>
<!-- Node588 -->
<g id="node42" class="node">
<title>Node588</title>
<g id="a_node42"><a xlink:href="d__meter__HIO_8h.html" target="_top" xlink:title=" ">
<polygon fill="#fff0f0" stroke="red" points="4809.5,-96 4687.5,-96 4687.5,-66 4809.5,-66 4809.5,-96"/>
<text text-anchor="start" x="4695.5" y="-84" font-family="Helvetica,sans-Serif" font-size="10.00">include/d/meter/d_meter</text>
<text text-anchor="middle" x="4748.5" y="-73" font-family="Helvetica,sans-Serif" font-size="10.00">_HIO.h</text>
</a>
</g>
</g>
<!-- Node583&#45;&gt;Node588 -->
<g id="edge44" class="edge">
<title>Node583&#45;&gt;Node588</title>
<path fill="none" stroke="#63b8ff" d="M4529.76,-129.14C4578.92,-118.54 4641.44,-105.07 4687.03,-95.25"/>
<polygon fill="#63b8ff" stroke="#63b8ff" points="4529.04,-125.71 4520,-131.24 4530.52,-132.55 4529.04,-125.71"/>
</g>
<!-- Node590 -->
<g id="node43" class="node">
<title>Node590</title>
<g id="a_node43"><a xlink:href="d__particle__copoly_8h.html" target="_top" xlink:title=" ">
<polygon fill="#fff0f0" stroke="red" points="4929.5,-96 4827.5,-96 4827.5,-66 4929.5,-66 4929.5,-96"/>
<text text-anchor="start" x="4835.5" y="-84" font-family="Helvetica,sans-Serif" font-size="10.00">include/d/particle</text>
<text text-anchor="middle" x="4878.5" y="-73" font-family="Helvetica,sans-Serif" font-size="10.00">/d_particle_copoly.h</text>
</a>
</g>
</g>
<!-- Node583&#45;&gt;Node590 -->
<g id="edge45" class="edge">
<title>Node583&#45;&gt;Node590</title>
<path fill="none" stroke="#63b8ff" d="M4537.34,-131.78C4662.87,-113.83 4697.24,-117.8 4818.5,-96 4821.34,-95.49 4824.25,-94.93 4827.19,-94.34"/>
<polygon fill="#63b8ff" stroke="#63b8ff" points="4537.02,-128.29 4527.63,-133.19 4538.03,-135.22 4537.02,-128.29"/>
</g>
<!-- Node592 -->
<g id="node44" class="node">
<title>Node592</title>
<g id="a_node44"><a xlink:href="m__Do__mtx_8h.html" target="_top" xlink:title=" ">
<polygon fill="#fff0f0" stroke="red" points="4302,-90.5 4169,-90.5 4169,-71.5 4302,-71.5 4302,-90.5"/>
<text text-anchor="middle" x="4235.5" y="-78.5" font-family="Helvetica,sans-Serif" font-size="10.00">include/m_Do/m_Do_mtx.h</text>
</a>
</g>
</g>
<!-- Node583&#45;&gt;Node592 -->
<g id="edge46" class="edge">
<title>Node583&#45;&gt;Node592</title>
<path fill="none" stroke="#63b8ff" d="M4391.82,-128.32C4350.89,-116.19 4298.3,-100.61 4265.75,-90.96"/>
<polygon fill="#63b8ff" stroke="#63b8ff" points="4390.72,-131.64 4401.3,-131.13 4392.71,-124.93 4390.72,-131.64"/>
</g>
<!-- Node586&#45;&gt;Node38 -->
<g id="edge43" class="edge">
<title>Node586&#45;&gt;Node38</title>
<path fill="none" stroke="#63b8ff" d="M4439.9,-66.14C4149.91,-40.55 1074.08,-19.19 645.87,-16.33"/>
<polygon fill="#63b8ff" stroke="#63b8ff" points="4439.46,-69.62 4449.77,-67.17 4440.19,-62.65 4439.46,-69.62"/>
</g>
<!-- Node595&#45;&gt;Node558 -->
<g id="edge48" class="edge">
<title>Node595&#45;&gt;Node558</title>
<path fill="none" stroke="#63b8ff" d="M4226.81,-128.25C4194.18,-118.21 4153.91,-105.82 4123.27,-96.39"/>
<polygon fill="#63b8ff" stroke="#63b8ff" points="4225.53,-131.52 4236.11,-131.11 4227.59,-124.83 4225.53,-131.52"/>
</g>
<!-- Node595&#45;&gt;Node584 -->
<g id="edge49" class="edge">
<title>Node595&#45;&gt;Node584</title>
<path fill="none" stroke="#63b8ff" d="M4314.32,-125.26C4331.06,-113.61 4351.07,-99.69 4363.79,-90.84"/>
<polygon fill="#63b8ff" stroke="#63b8ff" points="4312.37,-122.35 4306.16,-130.93 4316.37,-128.09 4312.37,-122.35"/>
</g>
<!-- Node595&#45;&gt;Node467 -->
<g id="edge50" class="edge">
<title>Node595&#45;&gt;Node467</title>
<path fill="none" stroke="#63b8ff" d="M4370.68,-131.38C4424.75,-121.94 4495.85,-109.02 4558.5,-96 4565.94,-94.46 4573.86,-92.69 4581.44,-90.95"/>
<polygon fill="#63b8ff" stroke="#63b8ff" points="4370.15,-127.92 4360.9,-133.09 4371.35,-134.82 4370.15,-127.92"/>
</g>
<!-- Node595&#45;&gt;Node586 -->
<g id="edge51" class="edge">
<title>Node595&#45;&gt;Node586</title>
<path fill="none" stroke="#63b8ff" d="M4343.96,-128.38C4377.92,-118.32 4419.97,-105.86 4451.93,-96.39"/>
<polygon fill="#63b8ff" stroke="#63b8ff" points="4343.29,-124.93 4334.7,-131.13 4345.28,-131.64 4343.29,-124.93"/>
</g>
<!-- Node595&#45;&gt;Node588 -->
<g id="edge52" class="edge">
<title>Node595&#45;&gt;Node588</title>
<path fill="none" stroke="#63b8ff" d="M4370.5,-131.78C4507.79,-112.84 4545.1,-117.05 4678.5,-96 4681.32,-95.56 4684.19,-95.08 4687.09,-94.58"/>
<polygon fill="#63b8ff" stroke="#63b8ff" points="4370.04,-128.31 4360.62,-133.16 4371.01,-135.24 4370.04,-128.31"/>
</g>
<!-- Node595&#45;&gt;Node590 -->
<g id="edge53" class="edge">
<title>Node595&#45;&gt;Node590</title>
<path fill="none" stroke="#63b8ff" d="M4370.26,-131.87C4569.58,-108.17 4623.83,-126.32 4818.5,-96 4821.35,-95.56 4824.27,-95.05 4827.21,-94.5"/>
<polygon fill="#63b8ff" stroke="#63b8ff" points="4370.12,-128.37 4360.61,-133.04 4370.96,-135.32 4370.12,-128.37"/>
</g>
<!-- Node595&#45;&gt;Node592 -->
<g id="edge54" class="edge">
<title>Node595&#45;&gt;Node592</title>
<path fill="none" stroke="#63b8ff" d="M4266.85,-122.95C4258.33,-111.81 4248.6,-99.11 4242.27,-90.84"/>
<polygon fill="#63b8ff" stroke="#63b8ff" points="4263.85,-124.78 4272.71,-130.59 4269.41,-120.53 4263.85,-124.78"/>
</g>
</g>
</svg>
