<?xml version="1.0" encoding="UTF-8" standalone="no"?>
<!DOCTYPE svg PUBLIC "-//W3C//DTD SVG 1.1//EN"
 "http://www.w3.org/Graphics/SVG/1.1/DTD/svg11.dtd">
<!-- Generated by graphviz version 7.0.5 (20221223.1930)
 -->
<!-- Title: include/Z2AudioLib/Z2Audience.h Pages: 1 -->
<!--zoomable 456 -->
<svg id="main" version="1.1" xmlns="http://www.w3.org/2000/svg" xmlns:xlink="http://www.w3.org/1999/xlink" xml:space="preserve" onload="init(evt)">
<style type="text/css"><![CDATA[
.edge:hover path { stroke: red; }
.edge:hover polygon { stroke: red; fill: red; }
]]></style>
<script type="text/javascript"><![CDATA[
var edges = document.getElementsByTagName('g');
if (edges && edges.length) {
  for (var i=0;i<edges.length;i++) {
    if (edges[i].id.substr(0,4)=='edge') {
      edges[i].setAttribute('class','edge');
    }
  }
}
]]></script>
        <defs>
                <circle id="rim" cx="0" cy="0" r="7"/>
                <circle id="rim2" cx="0" cy="0" r="3.5"/>
                <g id="zoomPlus">
                        <use xlink:href="#rim" fill="#404040">
                                <set attributeName="fill" to="#808080" begin="zoomplus.mouseover" end="zoomplus.mouseout"/>
                        </use>
                        <path d="M-4,0h8M0,-4v8" fill="none" stroke="white" stroke-width="1.5" pointer-events="none"/>
                </g>
                <g id="zoomMin">
                        <use xlink:href="#rim" fill="#404040">
                                <set attributeName="fill" to="#808080" begin="zoomminus.mouseover" end="zoomminus.mouseout"/>
                        </use>
                        <path d="M-4,0h8" fill="none" stroke="white" stroke-width="1.5" pointer-events="none"/>
                </g>
                <g id="dirArrow">
                        <path fill="none" stroke="white" stroke-width="1.5" d="M0,-3.0v7 M-2.5,-0.5L0,-3.0L2.5,-0.5"/>
                </g>
               <g id="resetDef">
                       <use xlink:href="#rim2" fill="#404040">
                               <set attributeName="fill" to="#808080" begin="reset.mouseover" end="reset.mouseout"/>
                       </use>
               </g>
        </defs>

<script type="text/javascript">
var viewWidth = 1077;
var viewHeight = 456;
var sectionId = 'dynsection-0';
</script>
<script xlink:href="svgpan.js"/>
<svg id="graph" class="graph">
<g id="viewport">
<title>include/Z2AudioLib/Z2Audience.h</title>
<!-- Node1 -->
<g id="node1" class="node">
<title>Node1</title>
<g id="a_node1"><a xlink:title=" ">
<polygon fill="#999999" stroke="#666666" points="493.5,-448 393.5,-448 393.5,-418 493.5,-418 493.5,-448"/>
<text text-anchor="start" x="401.5" y="-436" font-family="Helvetica,sans-Serif" font-size="10.00">include/Z2AudioLib</text>
<text text-anchor="middle" x="443.5" y="-425" font-family="Helvetica,sans-Serif" font-size="10.00">/Z2Audience.h</text>
</a>
</g>
</g>
<!-- Node2 -->
<g id="node2" class="node">
<title>Node2</title>
<g id="a_node2"><a xlink:href="JAIAudience_8h.html" target="_top" xlink:title=" ">
<polygon fill="white" stroke="#666666" points="328,-382 169,-382 169,-363 328,-363 328,-382"/>
<text text-anchor="middle" x="248.5" y="-370" font-family="Helvetica,sans-Serif" font-size="10.00">JSystem/JAudio2/JAIAudience.h</text>
</a>
</g>
</g>
<!-- Node1&#45;&gt;Node2 -->
<g id="edge1" class="edge">
<title>Node1&#45;&gt;Node2</title>
<path fill="none" stroke="#63b8ff" d="M395.3,-417.54C362.65,-407.75 320,-394.95 289.09,-385.68"/>
<polygon fill="#63b8ff" stroke="#63b8ff" points="290.31,-382.39 279.72,-382.87 288.3,-389.09 290.31,-382.39"/>
</g>
<!-- Node11 -->
<g id="node11" class="node">
<title>Node11</title>
<g id="a_node11"><a xlink:href="JASGadget_8h.html" target="_top" xlink:title=" ">
<polygon fill="white" stroke="#666666" points="674.5,-382 520.5,-382 520.5,-363 674.5,-363 674.5,-382"/>
<text text-anchor="middle" x="597.5" y="-370" font-family="Helvetica,sans-Serif" font-size="10.00">JSystem/JAudio2/JASGadget.h</text>
</a>
</g>
</g>
<!-- Node1&#45;&gt;Node11 -->
<g id="edge11" class="edge">
<title>Node1&#45;&gt;Node11</title>
<path fill="none" stroke="#63b8ff" d="M481.57,-417.54C506.75,-407.97 539.47,-395.55 563.72,-386.33"/>
<polygon fill="#63b8ff" stroke="#63b8ff" points="564.69,-389.71 572.8,-382.88 562.21,-383.16 564.69,-389.71"/>
</g>
<!-- Node13 -->
<g id="node13" class="node">
<title>Node13</title>
<g id="a_node13"><a xlink:href="JAIAudible_8h.html" target="_top" xlink:title=" ">
<polygon fill="white" stroke="#666666" points="151,-382 0,-382 0,-363 151,-363 151,-382"/>
<text text-anchor="middle" x="75.5" y="-370" font-family="Helvetica,sans-Serif" font-size="10.00">JSystem/JAudio2/JAIAudible.h</text>
</a>
</g>
</g>
<!-- Node1&#45;&gt;Node13 -->
<g id="edge14" class="edge">
<title>Node1&#45;&gt;Node13</title>
<path fill="none" stroke="#63b8ff" d="M393.1,-423.99C328.27,-413.68 215.41,-395.74 143.15,-384.25"/>
<polygon fill="#63b8ff" stroke="#63b8ff" points="143.83,-380.82 133.41,-382.71 142.73,-387.73 143.83,-380.82"/>
</g>
<!-- Node14 -->
<g id="node14" class="node">
<title>Node14</title>
<g id="a_node14"><a xlink:href="JASSoundParams_8h.html" target="_top" xlink:title=" ">
<polygon fill="white" stroke="#666666" points="708,-151 565,-151 565,-121 708,-121 708,-151"/>
<text text-anchor="start" x="573" y="-139" font-family="Helvetica,sans-Serif" font-size="10.00">JSystem/JAudio2/JASSound</text>
<text text-anchor="middle" x="636.5" y="-128" font-family="Helvetica,sans-Serif" font-size="10.00">Params.h</text>
</a>
</g>
</g>
<!-- Node1&#45;&gt;Node14 -->
<g id="edge16" class="edge">
<title>Node1&#45;&gt;Node14</title>
<path fill="none" stroke="#63b8ff" d="M493.74,-427.55C555.73,-421.06 656.3,-406.97 683.5,-382 705.2,-362.08 702.5,-347.96 702.5,-318.5 702.5,-318.5 702.5,-318.5 702.5,-261.5 702.5,-227.1 698.11,-217.13 681.5,-187 676.03,-177.09 668.26,-167.51 660.7,-159.44"/>
<polygon fill="#63b8ff" stroke="#63b8ff" points="663.28,-157.07 653.77,-152.4 658.29,-161.98 663.28,-157.07"/>
</g>
<!-- Node15 -->
<g id="node15" class="node">
<title>Node15</title>
<g id="a_node15"><a xlink:href="JASHeapCtrl_8h.html" target="_top" xlink:title=" ">
<polygon fill="white" stroke="#666666" points="925,-327 764,-327 764,-308 925,-308 925,-327"/>
<text text-anchor="middle" x="844.5" y="-315" font-family="Helvetica,sans-Serif" font-size="10.00">JSystem/JAudio2/JASHeapCtrl.h</text>
</a>
</g>
</g>
<!-- Node1&#45;&gt;Node15 -->
<g id="edge18" class="edge">
<title>Node1&#45;&gt;Node15</title>
<path fill="none" stroke="#63b8ff" d="M493.86,-427.04C549.45,-420.6 641.05,-407.07 716.5,-382 754.4,-369.41 795.26,-347.54 820.36,-333.04"/>
<polygon fill="#63b8ff" stroke="#63b8ff" points="821.94,-336.17 828.79,-328.09 818.4,-330.13 821.94,-336.17"/>
</g>
<!-- Node21 -->
<g id="node21" class="node">
<title>Node21</title>
<g id="a_node21"><a xlink:href="TPosition3_8hh.html" target="_top" xlink:title=" ">
<polygon fill="white" stroke="#666666" points="502,-382 385,-382 385,-363 502,-363 502,-382"/>
<text text-anchor="middle" x="443.5" y="-370" font-family="Helvetica,sans-Serif" font-size="10.00">JSystem/TPosition3.hh</text>
</a>
</g>
</g>
<!-- Node1&#45;&gt;Node21 -->
<g id="edge27" class="edge">
<title>Node1&#45;&gt;Node21</title>
<path fill="none" stroke="#63b8ff" d="M443.5,-417.54C443.5,-410.34 443.5,-401.53 443.5,-393.68"/>
<polygon fill="#63b8ff" stroke="#63b8ff" points="447,-393.69 443.5,-383.69 440,-393.69 447,-393.69"/>
</g>
<!-- Node26 -->
<g id="node26" class="node">
<title>Node26</title>
<g id="a_node26"><a xlink:href="mtxvec_8h.html" target="_top" xlink:title=" ">
<polygon fill="white" stroke="#666666" points="391.5,-327 283.5,-327 283.5,-308 391.5,-308 391.5,-327"/>
<text text-anchor="middle" x="337.5" y="-315" font-family="Helvetica,sans-Serif" font-size="10.00">dolphin/mtx/mtxvec.h</text>
</a>
</g>
</g>
<!-- Node1&#45;&gt;Node26 -->
<g id="edge36" class="edge">
<title>Node1&#45;&gt;Node26</title>
<path fill="none" stroke="#63b8ff" d="M420.03,-417.71C406.3,-408.61 389.23,-395.93 376.5,-382 364.23,-368.57 353.67,-350.73 346.65,-337.38"/>
<polygon fill="#63b8ff" stroke="#63b8ff" points="349.93,-336.12 342.3,-328.77 343.68,-339.28 349.93,-336.12"/>
</g>
<!-- Node3 -->
<g id="node3" class="node">
<title>Node3</title>
<g id="a_node3"><a xlink:href="JGeometry_8h.html" target="_top" xlink:title=" ">
<polygon fill="white" stroke="#666666" points="213,-327 100,-327 100,-308 213,-308 213,-327"/>
<text text-anchor="middle" x="156.5" y="-315" font-family="Helvetica,sans-Serif" font-size="10.00">JSystem/JGeometry.h</text>
</a>
</g>
</g>
<!-- Node2&#45;&gt;Node3 -->
<g id="edge2" class="edge">
<title>Node2&#45;&gt;Node3</title>
<path fill="none" stroke="#63b8ff" d="M232.89,-362.51C218.8,-354.39 197.81,-342.3 181.4,-332.85"/>
<polygon fill="#63b8ff" stroke="#63b8ff" points="183.6,-330.07 173.19,-328.11 180.11,-336.14 183.6,-330.07"/>
</g>
<!-- Node4 -->
<g id="node4" class="node">
<title>Node4</title>
<g id="a_node4"><a xlink:href="vec_8h.html" target="_top" xlink:title=" ">
<polygon fill="white" stroke="#666666" points="347.5,-145.5 255.5,-145.5 255.5,-126.5 347.5,-126.5 347.5,-145.5"/>
<text text-anchor="middle" x="301.5" y="-133.5" font-family="Helvetica,sans-Serif" font-size="10.00">dolphin/mtx/vec.h</text>
</a>
</g>
</g>
<!-- Node3&#45;&gt;Node4 -->
<g id="edge3" class="edge">
<title>Node3&#45;&gt;Node4</title>
<path fill="none" stroke="#63b8ff" d="M168.92,-307.79C179.93,-299.57 195.86,-286.39 206.5,-272 231.22,-238.58 220.81,-220.44 245.5,-187 255.18,-173.89 268.76,-161.67 280.12,-152.58"/>
<polygon fill="#63b8ff" stroke="#63b8ff" points="282.02,-155.54 287.81,-146.67 277.75,-149.99 282.02,-155.54"/>
</g>
<!-- Node7 -->
<g id="node7" class="node">
<title>Node7</title>
<g id="a_node7"><a xlink:href="float_8h.html" target="_top" xlink:title=" ">
<polygon fill="white" stroke="#666666" points="97.5,-272 19.5,-272 19.5,-253 97.5,-253 97.5,-272"/>
<text text-anchor="middle" x="58.5" y="-260" font-family="Helvetica,sans-Serif" font-size="10.00">MSL_C/float.h</text>
</a>
</g>
</g>
<!-- Node3&#45;&gt;Node7 -->
<g id="edge6" class="edge">
<title>Node3&#45;&gt;Node7</title>
<path fill="none" stroke="#63b8ff" d="M139.88,-307.51C124.72,-299.31 102.08,-287.07 84.53,-277.58"/>
<polygon fill="#63b8ff" stroke="#63b8ff" points="86.67,-274.76 76.21,-273.08 83.34,-280.91 86.67,-274.76"/>
</g>
<!-- Node10 -->
<g id="node10" class="node">
<title>Node10</title>
<g id="a_node10"><a xlink:href="math_8h.html" target="_top" xlink:title=" ">
<polygon fill="white" stroke="#666666" points="197.5,-272 115.5,-272 115.5,-253 197.5,-253 197.5,-272"/>
<text text-anchor="middle" x="156.5" y="-260" font-family="Helvetica,sans-Serif" font-size="10.00">MSL_C/math.h</text>
</a>
</g>
</g>
<!-- Node3&#45;&gt;Node10 -->
<g id="edge9" class="edge">
<title>Node3&#45;&gt;Node10</title>
<path fill="none" stroke="#63b8ff" d="M156.5,-307.75C156.5,-301.27 156.5,-292.16 156.5,-283.9"/>
<polygon fill="#63b8ff" stroke="#63b8ff" points="160,-283.96 156.5,-273.96 153,-283.96 160,-283.96"/>
</g>
<!-- Node5 -->
<g id="node5" class="node">
<title>Node5</title>
<g id="a_node5"><a xlink:href="types_8h.html" target="_top" xlink:title=" ">
<polygon fill="white" stroke="#666666" points="627,-85 546,-85 546,-66 627,-66 627,-85"/>
<text text-anchor="middle" x="586.5" y="-73" font-family="Helvetica,sans-Serif" font-size="10.00">dolphin/types.h</text>
</a>
</g>
</g>
<!-- Node4&#45;&gt;Node5 -->
<g id="edge4" class="edge">
<title>Node4&#45;&gt;Node5</title>
<path fill="none" stroke="#63b8ff" d="M345.1,-126.05C396.05,-115.59 480.29,-98.3 534.57,-87.16"/>
<polygon fill="#63b8ff" stroke="#63b8ff" points="535.11,-90.62 544.2,-85.18 533.7,-83.77 535.11,-90.62"/>
</g>
<!-- Node6 -->
<g id="node6" class="node">
<title>Node6</title>
<g id="a_node6"><a xlink:href="stddef_8h.html" target="_top" xlink:title=" ">
<polygon fill="white" stroke="#666666" points="654.5,-30 518.5,-30 518.5,0 654.5,0 654.5,-30"/>
<text text-anchor="start" x="526.5" y="-18" font-family="Helvetica,sans-Serif" font-size="10.00">MSL_C/MSL_Common/Src</text>
<text text-anchor="middle" x="586.5" y="-7" font-family="Helvetica,sans-Serif" font-size="10.00">/stddef.h</text>
</a>
</g>
</g>
<!-- Node5&#45;&gt;Node6 -->
<g id="edge5" class="edge">
<title>Node5&#45;&gt;Node6</title>
<path fill="none" stroke="#63b8ff" d="M586.5,-65.87C586.5,-59.4 586.5,-50.2 586.5,-41.45"/>
<polygon fill="#63b8ff" stroke="#63b8ff" points="590,-41.63 586.5,-31.63 583,-41.63 590,-41.63"/>
</g>
<!-- Node8 -->
<g id="node8" class="node">
<title>Node8</title>
<g id="a_node8"><a xlink:href="MSL__Common_2Src_2float_8h.html" target="_top" xlink:title=" ">
<polygon fill="white" stroke="#666666" points="162.5,-217 26.5,-217 26.5,-187 162.5,-187 162.5,-217"/>
<text text-anchor="start" x="34.5" y="-205" font-family="Helvetica,sans-Serif" font-size="10.00">MSL_C/MSL_Common/Src</text>
<text text-anchor="middle" x="94.5" y="-194" font-family="Helvetica,sans-Serif" font-size="10.00">/float.h</text>
</a>
</g>
</g>
<!-- Node7&#45;&gt;Node8 -->
<g id="edge7" class="edge">
<title>Node7&#45;&gt;Node8</title>
<path fill="none" stroke="#63b8ff" d="M63.81,-252.87C68.06,-245.96 74.24,-235.93 79.93,-226.67"/>
<polygon fill="#63b8ff" stroke="#63b8ff" points="82.76,-228.75 85.02,-218.4 76.8,-225.09 82.76,-228.75"/>
</g>
<!-- Node9 -->
<g id="node9" class="node">
<title>Node9</title>
<g id="a_node9"><a xlink:href="fdlibm_8h.html" target="_top" xlink:title=" ">
<polygon fill="white" stroke="#666666" points="119.5,-145.5 69.5,-145.5 69.5,-126.5 119.5,-126.5 119.5,-145.5"/>
<text text-anchor="middle" x="94.5" y="-133.5" font-family="Helvetica,sans-Serif" font-size="10.00">fdlibm.h</text>
</a>
</g>
</g>
<!-- Node8&#45;&gt;Node9 -->
<g id="edge8" class="edge">
<title>Node8&#45;&gt;Node9</title>
<path fill="none" stroke="#63b8ff" d="M94.5,-186.8C94.5,-178.09 94.5,-166.81 94.5,-157.18"/>
<polygon fill="#63b8ff" stroke="#63b8ff" points="98,-157.36 94.5,-147.36 91,-157.36 98,-157.36"/>
</g>
<!-- Node10&#45;&gt;Node8 -->
<g id="edge10" class="edge">
<title>Node10&#45;&gt;Node8</title>
<path fill="none" stroke="#63b8ff" d="M147.08,-252.62C139.36,-245.32 128.08,-234.68 117.94,-225.12"/>
<polygon fill="#63b8ff" stroke="#63b8ff" points="120.58,-222.8 110.9,-218.48 115.78,-227.89 120.58,-222.8"/>
</g>
<!-- Node12 -->
<g id="node12" class="node">
<title>Node12</title>
<g id="a_node12"><a xlink:href="JUTAssert_8h.html" target="_top" xlink:title=" ">
<polygon fill="white" stroke="#666666" points="672.5,-211.5 526.5,-211.5 526.5,-192.5 672.5,-192.5 672.5,-211.5"/>
<text text-anchor="middle" x="599.5" y="-199.5" font-family="Helvetica,sans-Serif" font-size="10.00">JSystem/JUtility/JUTAssert.h</text>
</a>
</g>
</g>
<!-- Node11&#45;&gt;Node12 -->
<g id="edge12" class="edge">
<title>Node11&#45;&gt;Node12</title>
<path fill="none" stroke="#63b8ff" d="M597.6,-362.91C597.91,-337.12 598.83,-259.82 599.26,-222.97"/>
<polygon fill="#63b8ff" stroke="#63b8ff" points="602.76,-223.33 599.38,-213.29 595.76,-223.24 602.76,-223.33"/>
</g>
<!-- Node12&#45;&gt;Node5 -->
<g id="edge13" class="edge">
<title>Node12&#45;&gt;Node5</title>
<path fill="none" stroke="#63b8ff" d="M588.19,-192.08C577.7,-183.03 562.79,-167.96 556.5,-151 551.86,-138.5 552.6,-133.75 556.5,-121 559.49,-111.23 565.42,-101.66 571.23,-93.91"/>
<polygon fill="#63b8ff" stroke="#63b8ff" points="573.76,-96.35 577.34,-86.38 568.32,-91.95 573.76,-96.35"/>
</g>
<!-- Node13&#45;&gt;Node3 -->
<g id="edge15" class="edge">
<title>Node13&#45;&gt;Node3</title>
<path fill="none" stroke="#63b8ff" d="M89.24,-362.51C101.3,-354.62 119.09,-342.98 133.34,-333.65"/>
<polygon fill="#63b8ff" stroke="#63b8ff" points="135.24,-336.59 141.7,-328.19 131.41,-330.73 135.24,-336.59"/>
</g>
<!-- Node14&#45;&gt;Node5 -->
<g id="edge17" class="edge">
<title>Node14&#45;&gt;Node5</title>
<path fill="none" stroke="#63b8ff" d="M624.14,-120.54C617.25,-112.48 608.62,-102.38 601.36,-93.89"/>
<polygon fill="#63b8ff" stroke="#63b8ff" points="604.06,-91.65 594.9,-86.33 598.73,-96.2 604.06,-91.65"/>
</g>
<!-- Node16 -->
<g id="node16" class="node">
<title>Node16</title>
<g id="a_node16"><a xlink:href="JSUList_8h.html" target="_top" xlink:title=" ">
<polygon fill="white" stroke="#666666" points="869,-145.5 726,-145.5 726,-126.5 869,-126.5 869,-145.5"/>
<text text-anchor="middle" x="797.5" y="-133.5" font-family="Helvetica,sans-Serif" font-size="10.00">JSystem/JSupport/JSUList.h</text>
</a>
</g>
</g>
<!-- Node15&#45;&gt;Node16 -->
<g id="edge19" class="edge">
<title>Node15&#45;&gt;Node16</title>
<path fill="none" stroke="#63b8ff" d="M834.32,-307.77C825.51,-299.54 813.29,-286.35 807.5,-272 792.07,-233.8 793.09,-184.61 795.26,-157.39"/>
<polygon fill="#63b8ff" stroke="#63b8ff" points="798.74,-157.74 796.2,-147.45 791.77,-157.07 798.74,-157.74"/>
</g>
<!-- Node17 -->
<g id="node17" class="node">
<title>Node17</title>
<g id="a_node17"><a xlink:href="OSInterrupt_8h.html" target="_top" xlink:title=" ">
<polygon fill="white" stroke="#666666" points="938.5,-272 816.5,-272 816.5,-253 938.5,-253 938.5,-272"/>
<text text-anchor="middle" x="877.5" y="-260" font-family="Helvetica,sans-Serif" font-size="10.00">dolphin/os/OSInterrupt.h</text>
</a>
</g>
</g>
<!-- Node15&#45;&gt;Node17 -->
<g id="edge21" class="edge">
<title>Node15&#45;&gt;Node17</title>
<path fill="none" stroke="#63b8ff" d="M849.95,-307.75C854.27,-300.81 860.46,-290.86 865.88,-282.16"/>
<polygon fill="#63b8ff" stroke="#63b8ff" points="868.82,-284.07 871.13,-273.73 862.88,-280.37 868.82,-284.07"/>
</g>
<!-- Node18 -->
<g id="node18" class="node">
<title>Node18</title>
<g id="a_node18"><a xlink:href="OSMutex_8h.html" target="_top" xlink:title=" ">
<polygon fill="white" stroke="#666666" points="1068.5,-272 956.5,-272 956.5,-253 1068.5,-253 1068.5,-272"/>
<text text-anchor="middle" x="1012.5" y="-260" font-family="Helvetica,sans-Serif" font-size="10.00">dolphin/os/OSMutex.h</text>
</a>
</g>
</g>
<!-- Node15&#45;&gt;Node18 -->
<g id="edge23" class="edge">
<title>Node15&#45;&gt;Node18</title>
<path fill="none" stroke="#63b8ff" d="M873,-307.51C900.6,-298.8 942.66,-285.53 973.38,-275.84"/>
<polygon fill="#63b8ff" stroke="#63b8ff" points="974.22,-279.25 982.7,-272.9 972.11,-272.57 974.22,-279.25"/>
</g>
<!-- Node16&#45;&gt;Node5 -->
<g id="edge20" class="edge">
<title>Node16&#45;&gt;Node5</title>
<path fill="none" stroke="#63b8ff" d="M765.45,-126.12C729.28,-116.09 670.24,-99.72 629.94,-88.54"/>
<polygon fill="#63b8ff" stroke="#63b8ff" points="630.88,-85.17 620.31,-85.87 629.01,-91.92 630.88,-85.17"/>
</g>
<!-- Node17&#45;&gt;Node5 -->
<g id="edge22" class="edge">
<title>Node17&#45;&gt;Node5</title>
<path fill="none" stroke="#63b8ff" d="M881.08,-252.59C890.24,-228.18 911.56,-159.48 878.5,-121 848.14,-85.67 713.82,-78.07 638.37,-76.64"/>
<polygon fill="#63b8ff" stroke="#63b8ff" points="638.81,-73.15 628.76,-76.49 638.7,-80.15 638.81,-73.15"/>
</g>
<!-- Node19 -->
<g id="node19" class="node">
<title>Node19</title>
<g id="a_node19"><a xlink:href="OSThread_8h.html" target="_top" xlink:title=" ">
<polygon fill="white" stroke="#666666" points="1066.5,-211.5 950.5,-211.5 950.5,-192.5 1066.5,-192.5 1066.5,-211.5"/>
<text text-anchor="middle" x="1008.5" y="-199.5" font-family="Helvetica,sans-Serif" font-size="10.00">dolphin/os/OSThread.h</text>
</a>
</g>
</g>
<!-- Node18&#45;&gt;Node19 -->
<g id="edge24" class="edge">
<title>Node18&#45;&gt;Node19</title>
<path fill="none" stroke="#63b8ff" d="M1011.91,-252.87C1011.37,-245 1010.56,-233.1 1009.86,-222.89"/>
<polygon fill="#63b8ff" stroke="#63b8ff" points="1013.37,-222.92 1009.2,-213.18 1006.39,-223.39 1013.37,-222.92"/>
</g>
<!-- Node20 -->
<g id="node20" class="node">
<title>Node20</title>
<g id="a_node20"><a xlink:href="OSContext_8h.html" target="_top" xlink:title=" ">
<polygon fill="white" stroke="#666666" points="1063,-145.5 944,-145.5 944,-126.5 1063,-126.5 1063,-145.5"/>
<text text-anchor="middle" x="1003.5" y="-133.5" font-family="Helvetica,sans-Serif" font-size="10.00">dolphin/os/OSContext.h</text>
</a>
</g>
</g>
<!-- Node19&#45;&gt;Node20 -->
<g id="edge25" class="edge">
<title>Node19&#45;&gt;Node20</title>
<path fill="none" stroke="#63b8ff" d="M1007.8,-192.1C1007.1,-183.12 1006,-168.95 1005.08,-157.22"/>
<polygon fill="#63b8ff" stroke="#63b8ff" points="1008.58,-157.03 1004.31,-147.33 1001.6,-157.57 1008.58,-157.03"/>
</g>
<!-- Node20&#45;&gt;Node5 -->
<g id="edge26" class="edge">
<title>Node20&#45;&gt;Node5</title>
<path fill="none" stroke="#63b8ff" d="M945.61,-126.06C934.3,-124.35 922.53,-122.59 911.5,-121 815.13,-107.07 702.51,-91.9 638.34,-83.35"/>
<polygon fill="#63b8ff" stroke="#63b8ff" points="639.19,-79.94 628.82,-82.09 638.27,-86.88 639.19,-79.94"/>
</g>
<!-- Node22 -->
<g id="node22" class="node">
<title>Node22</title>
<g id="a_node22"><a xlink:href="mtx_8h.html" target="_top" xlink:title=" ">
<polygon fill="white" stroke="#666666" points="465.5,-272 373.5,-272 373.5,-253 465.5,-253 465.5,-272"/>
<text text-anchor="middle" x="419.5" y="-260" font-family="Helvetica,sans-Serif" font-size="10.00">dolphin/mtx/mtx.h</text>
</a>
</g>
</g>
<!-- Node21&#45;&gt;Node22 -->
<g id="edge28" class="edge">
<title>Node21&#45;&gt;Node22</title>
<path fill="none" stroke="#63b8ff" d="M441.54,-362.66C437.72,-345.5 429.22,-307.26 423.97,-283.6"/>
<polygon fill="#63b8ff" stroke="#63b8ff" points="427.41,-282.94 421.82,-273.94 420.57,-284.46 427.41,-282.94"/>
</g>
<!-- Node25 -->
<g id="node25" class="node">
<title>Node25</title>
<g id="a_node25"><a xlink:href="JMath_8h.html" target="_top" xlink:title=" ">
<polygon fill="white" stroke="#666666" points="569.5,-327 447.5,-327 447.5,-308 569.5,-308 569.5,-327"/>
<text text-anchor="middle" x="508.5" y="-315" font-family="Helvetica,sans-Serif" font-size="10.00">JSystem/JMath/JMath.h</text>
</a>
</g>
</g>
<!-- Node21&#45;&gt;Node25 -->
<g id="edge34" class="edge">
<title>Node21&#45;&gt;Node25</title>
<path fill="none" stroke="#63b8ff" d="M454.53,-362.51C463.92,-354.85 477.65,-343.66 488.91,-334.47"/>
<polygon fill="#63b8ff" stroke="#63b8ff" points="490.93,-337.35 496.46,-328.31 486.5,-331.92 490.93,-337.35"/>
</g>
<!-- Node22&#45;&gt;Node5 -->
<g id="edge33" class="edge">
<title>Node22&#45;&gt;Node5</title>
<path fill="none" stroke="#63b8ff" d="M433.81,-252.71C446.62,-244.44 465.48,-231.23 479.5,-217 516.38,-179.57 516.08,-162.35 548.5,-121 555.71,-111.81 564.11,-101.89 571.18,-93.76"/>
<polygon fill="#63b8ff" stroke="#63b8ff" points="573.74,-96.14 577.71,-86.32 568.48,-91.53 573.74,-96.14"/>
</g>
<!-- Node23 -->
<g id="node23" class="node">
<title>Node23</title>
<g id="a_node23"><a xlink:href="mtx44_8h.html" target="_top" xlink:title=" ">
<polygon fill="white" stroke="#666666" points="470,-211.5 367,-211.5 367,-192.5 470,-192.5 470,-211.5"/>
<text text-anchor="middle" x="418.5" y="-199.5" font-family="Helvetica,sans-Serif" font-size="10.00">dolphin/mtx/mtx44.h</text>
</a>
</g>
</g>
<!-- Node22&#45;&gt;Node23 -->
<g id="edge29" class="edge">
<title>Node22&#45;&gt;Node23</title>
<path fill="none" stroke="#63b8ff" d="M419.35,-252.87C419.22,-245 419.01,-233.1 418.84,-222.89"/>
<polygon fill="#63b8ff" stroke="#63b8ff" points="422.34,-223.12 418.67,-213.18 415.35,-223.24 422.34,-223.12"/>
</g>
<!-- Node24 -->
<g id="node24" class="node">
<title>Node24</title>
<g id="a_node24"><a xlink:href="quat_8h.html" target="_top" xlink:title=" ">
<polygon fill="white" stroke="#666666" points="349,-211.5 254,-211.5 254,-192.5 349,-192.5 349,-211.5"/>
<text text-anchor="middle" x="301.5" y="-199.5" font-family="Helvetica,sans-Serif" font-size="10.00">dolphin/mtx/quat.h</text>
</a>
</g>
</g>
<!-- Node22&#45;&gt;Node24 -->
<g id="edge31" class="edge">
<title>Node22&#45;&gt;Node24</title>
<path fill="none" stroke="#63b8ff" d="M401.58,-252.62C382.52,-243.17 352.1,-228.09 329.8,-217.03"/>
<polygon fill="#63b8ff" stroke="#63b8ff" points="331.46,-213.95 320.95,-212.64 328.35,-220.22 331.46,-213.95"/>
</g>
<!-- Node23&#45;&gt;Node5 -->
<g id="edge30" class="edge">
<title>Node23&#45;&gt;Node5</title>
<path fill="none" stroke="#63b8ff" d="M423.79,-192.15C433.82,-176.05 457.04,-141.71 484.5,-121 502.77,-107.22 525.96,-96.67 545.61,-89.31"/>
<polygon fill="#63b8ff" stroke="#63b8ff" points="546.75,-92.62 554.98,-85.95 544.39,-86.03 546.75,-92.62"/>
</g>
<!-- Node24&#45;&gt;Node4 -->
<g id="edge32" class="edge">
<title>Node24&#45;&gt;Node4</title>
<path fill="none" stroke="#63b8ff" d="M301.5,-192.1C301.5,-183.12 301.5,-168.95 301.5,-157.22"/>
<polygon fill="#63b8ff" stroke="#63b8ff" points="305,-157.34 301.5,-147.34 298,-157.34 305,-157.34"/>
</g>
<!-- Node25&#45;&gt;Node22 -->
<g id="edge35" class="edge">
<title>Node25&#45;&gt;Node22</title>
<path fill="none" stroke="#63b8ff" d="M493.4,-307.51C479.9,-299.47 459.85,-287.53 444.04,-278.11"/>
<polygon fill="#63b8ff" stroke="#63b8ff" points="446.06,-275.24 435.68,-273.13 442.48,-281.26 446.06,-275.24"/>
</g>
<!-- Node26&#45;&gt;Node22 -->
<g id="edge37" class="edge">
<title>Node26&#45;&gt;Node22</title>
<path fill="none" stroke="#63b8ff" d="M351.41,-307.51C363.74,-299.54 381.97,-287.75 396.47,-278.38"/>
<polygon fill="#63b8ff" stroke="#63b8ff" points="398.03,-281.55 404.52,-273.18 394.23,-275.67 398.03,-281.55"/>
</g>
</g>
</svg>
        <g id="navigator" transform="translate(0 0)" fill="#404254">
                <rect fill="#f2f5e9" fill-opacity="0.5" stroke="#606060" stroke-width=".5" x="0" y="0" width="60" height="60"/>
                <use id="zoomplus" xlink:href="#zoomPlus" x="17" y="9" onmousedown="handleZoom(evt,'in')"/>
                <use id="zoomminus" xlink:href="#zoomMin" x="42" y="9" onmousedown="handleZoom(evt,'out')"/>
                <use id="reset" xlink:href="#resetDef" x="30" y="36" onmousedown="handleReset()"/>
                <g id="arrowUp" xlink:href="#dirArrow" transform="translate(30 24)" onmousedown="handlePan(0,-1)">
                  <use xlink:href="#rim" fill="#404040">
                        <set attributeName="fill" to="#808080" begin="arrowUp.mouseover" end="arrowUp.mouseout"/>
                  </use>
                  <path fill="none" stroke="white" stroke-width="1.5" d="M0,-3.0v7 M-2.5,-0.5L0,-3.0L2.5,-0.5"/>
                </g>
                <g id="arrowRight" xlink:href="#dirArrow" transform="rotate(90) translate(36 -43)" onmousedown="handlePan(1,0)">
                  <use xlink:href="#rim" fill="#404040">
                        <set attributeName="fill" to="#808080" begin="arrowRight.mouseover" end="arrowRight.mouseout"/>
                  </use>
                  <path fill="none" stroke="white" stroke-width="1.5" d="M0,-3.0v7 M-2.5,-0.5L0,-3.0L2.5,-0.5"/>
                </g>
                <g id="arrowDown" xlink:href="#dirArrow" transform="rotate(180) translate(-30 -48)" onmousedown="handlePan(0,1)">
                  <use xlink:href="#rim" fill="#404040">
                        <set attributeName="fill" to="#808080" begin="arrowDown.mouseover" end="arrowDown.mouseout"/>
                  </use>
                  <path fill="none" stroke="white" stroke-width="1.5" d="M0,-3.0v7 M-2.5,-0.5L0,-3.0L2.5,-0.5"/>
                </g>
                <g id="arrowLeft" xlink:href="#dirArrow" transform="rotate(270) translate(-36 17)" onmousedown="handlePan(-1,0)">
                  <use xlink:href="#rim" fill="#404040">
                        <set attributeName="fill" to="#808080" begin="arrowLeft.mouseover" end="arrowLeft.mouseout"/>
                  </use>
                  <path fill="none" stroke="white" stroke-width="1.5" d="M0,-3.0v7 M-2.5,-0.5L0,-3.0L2.5,-0.5"/>
                </g>
        </g>
        <svg viewBox="0 0 15 15" width="100%" height="30px" preserveAspectRatio="xMaxYMin meet">
         <g id="arrow_out" transform="scale(0.3 0.3)">
          <a xlink:href="Z2Audience_8h__incl_org.svg" target="_base">
           <rect id="button" ry="5" rx="5" y="6" x="6" height="38" width="38"
                fill="#f2f5e9" fill-opacity="0.5" stroke="#606060" stroke-width="1.0"/>
           <path id="arrow"
             d="M 11.500037,31.436501 C 11.940474,20.09759 22.043105,11.32322 32.158766,21.979434 L 37.068811,17.246167 C 37.068811,17.246167 37.088388,32 37.088388,32 L 22.160133,31.978069 C 22.160133,31.978069 26.997745,27.140456 26.997745,27.140456 C 18.528582,18.264221 13.291696,25.230495 11.500037,31.436501 z"
             style="fill:#404040;"/>
          </a>
         </g>
        </svg>
</svg>
