<?xml version="1.0" encoding="UTF-8" standalone="no"?>
<!DOCTYPE svg PUBLIC "-//W3C//DTD SVG 1.1//EN"
 "http://www.w3.org/Graphics/SVG/1.1/DTD/svg11.dtd">
<!-- Generated by graphviz version 7.0.5 (20221223.1930)
 -->
<!-- Title: include/Z2AudioLib/Z2Creature.h Pages: 1 -->
<svg width="678pt" height="599pt"
 viewBox="0.00 0.00 678.00 599.00" xmlns="http://www.w3.org/2000/svg" xmlns:xlink="http://www.w3.org/1999/xlink">
<g id="graph0" class="graph" transform="scale(1 1) rotate(0) translate(4 595)">
<title>include/Z2AudioLib/Z2Creature.h</title>
<!-- Node1 -->
<g id="node1" class="node">
<title>Node1</title>
<g id="a_node1"><a xlink:title=" ">
<polygon fill="#999999" stroke="#666666" points="279,-591 179,-591 179,-561 279,-561 279,-591"/>
<text text-anchor="start" x="187" y="-579" font-family="Helvetica,sans-Serif" font-size="10.00">include/Z2AudioLib</text>
<text text-anchor="middle" x="229" y="-568" font-family="Helvetica,sans-Serif" font-size="10.00">/Z2Creature.h</text>
</a>
</g>
</g>
<!-- Node2 -->
<g id="node2" class="node">
<title>Node2</title>
<g id="a_node2"><a xlink:href="c__xyz_8h.html" target="_top" xlink:title=" ">
<polygon fill="white" stroke="#666666" points="116,-217 0,-217 0,-187 116,-187 116,-217"/>
<text text-anchor="start" x="8" y="-205" font-family="Helvetica,sans-Serif" font-size="10.00">SSystem/SComponent</text>
<text text-anchor="middle" x="58" y="-194" font-family="Helvetica,sans-Serif" font-size="10.00">/c_xyz.h</text>
</a>
</g>
</g>
<!-- Node1&#45;&gt;Node2 -->
<g id="edge1" class="edge">
<title>Node1&#45;&gt;Node2</title>
<path fill="none" stroke="#63b8ff" d="M183.89,-560.5C140.04,-543.25 80,-509.8 80,-456 80,-456 80,-456 80,-327.5 80,-292.79 71.61,-253.46 65.19,-228.46"/>
<polygon fill="#63b8ff" stroke="#63b8ff" points="68.59,-227.64 62.63,-218.88 61.83,-229.45 68.59,-227.64"/>
</g>
<!-- Node9 -->
<g id="node9" class="node">
<title>Node9</title>
<g id="a_node9"><a xlink:href="Z2SoundObject_8h.html" target="_top" xlink:title=" ">
<polygon fill="white" stroke="#666666" points="611,-525 467,-525 467,-506 611,-506 611,-525"/>
<text text-anchor="middle" x="539" y="-513" font-family="Helvetica,sans-Serif" font-size="10.00">Z2AudioLib/Z2SoundObject.h</text>
</a>
</g>
</g>
<!-- Node1&#45;&gt;Node9 -->
<g id="edge8" class="edge">
<title>Node1&#45;&gt;Node9</title>
<path fill="none" stroke="#63b8ff" d="M279.5,-565.47C334.42,-555.11 422.13,-538.56 480.14,-527.61"/>
<polygon fill="#63b8ff" stroke="#63b8ff" points="480.66,-531.07 489.84,-525.78 479.36,-524.19 480.66,-531.07"/>
</g>
<!-- Node21 -->
<g id="node21" class="node">
<title>Node21</title>
<g id="a_node21"><a xlink:href="Z2SoundStarter_8h.html" target="_top" xlink:title=" ">
<polygon fill="white" stroke="#666666" points="301.5,-525 156.5,-525 156.5,-506 301.5,-506 301.5,-525"/>
<text text-anchor="middle" x="229" y="-513" font-family="Helvetica,sans-Serif" font-size="10.00">Z2AudioLib/Z2SoundStarter.h</text>
</a>
</g>
</g>
<!-- Node1&#45;&gt;Node21 -->
<g id="edge29" class="edge">
<title>Node1&#45;&gt;Node21</title>
<path fill="none" stroke="#63b8ff" d="M229,-560.54C229,-553.34 229,-544.53 229,-536.68"/>
<polygon fill="#63b8ff" stroke="#63b8ff" points="232.5,-536.69 229,-526.69 225.5,-536.69 232.5,-536.69"/>
</g>
<!-- Node3 -->
<g id="node3" class="node">
<title>Node3</title>
<g id="a_node3"><a xlink:href="math_8h.html" target="_top" xlink:title=" ">
<polygon fill="white" stroke="#666666" points="89,-151 7,-151 7,-132 89,-132 89,-151"/>
<text text-anchor="middle" x="48" y="-139" font-family="Helvetica,sans-Serif" font-size="10.00">MSL_C/math.h</text>
</a>
</g>
</g>
<!-- Node2&#45;&gt;Node3 -->
<g id="edge2" class="edge">
<title>Node2&#45;&gt;Node3</title>
<path fill="none" stroke="#63b8ff" d="M55.53,-186.54C54.28,-179.26 52.75,-170.31 51.4,-162.39"/>
<polygon fill="#63b8ff" stroke="#63b8ff" points="54.87,-161.93 49.74,-152.67 47.97,-163.11 54.87,-161.93"/>
</g>
<!-- Node6 -->
<g id="node6" class="node">
<title>Node6</title>
<g id="a_node6"><a xlink:href="vec_8h.html" target="_top" xlink:title=" ">
<polygon fill="white" stroke="#666666" points="295,-151 203,-151 203,-132 295,-132 295,-151"/>
<text text-anchor="middle" x="249" y="-139" font-family="Helvetica,sans-Serif" font-size="10.00">dolphin/mtx/vec.h</text>
</a>
</g>
</g>
<!-- Node2&#45;&gt;Node6 -->
<g id="edge5" class="edge">
<title>Node2&#45;&gt;Node6</title>
<path fill="none" stroke="#63b8ff" d="M105.21,-186.54C137.05,-176.79 178.6,-164.06 208.84,-154.8"/>
<polygon fill="#63b8ff" stroke="#63b8ff" points="209.85,-158.15 218.39,-151.88 207.8,-151.46 209.85,-158.15"/>
</g>
<!-- Node4 -->
<g id="node4" class="node">
<title>Node4</title>
<g id="a_node4"><a xlink:href="MSL__Common_2Src_2float_8h.html" target="_top" xlink:title=" ">
<polygon fill="white" stroke="#666666" points="165,-96 29,-96 29,-66 165,-66 165,-96"/>
<text text-anchor="start" x="37" y="-84" font-family="Helvetica,sans-Serif" font-size="10.00">MSL_C/MSL_Common/Src</text>
<text text-anchor="middle" x="97" y="-73" font-family="Helvetica,sans-Serif" font-size="10.00">/float.h</text>
</a>
</g>
</g>
<!-- Node3&#45;&gt;Node4 -->
<g id="edge3" class="edge">
<title>Node3&#45;&gt;Node4</title>
<path fill="none" stroke="#63b8ff" d="M55.23,-131.87C61.2,-124.74 69.96,-114.28 77.91,-104.79"/>
<polygon fill="#63b8ff" stroke="#63b8ff" points="80.47,-107.19 84.21,-97.27 75.1,-102.69 80.47,-107.19"/>
</g>
<!-- Node5 -->
<g id="node5" class="node">
<title>Node5</title>
<g id="a_node5"><a xlink:href="fdlibm_8h.html" target="_top" xlink:title=" ">
<polygon fill="white" stroke="#666666" points="122,-24.5 72,-24.5 72,-5.5 122,-5.5 122,-24.5"/>
<text text-anchor="middle" x="97" y="-12.5" font-family="Helvetica,sans-Serif" font-size="10.00">fdlibm.h</text>
</a>
</g>
</g>
<!-- Node4&#45;&gt;Node5 -->
<g id="edge4" class="edge">
<title>Node4&#45;&gt;Node5</title>
<path fill="none" stroke="#63b8ff" d="M97,-65.8C97,-57.09 97,-45.81 97,-36.18"/>
<polygon fill="#63b8ff" stroke="#63b8ff" points="100.5,-36.36 97,-26.36 93.5,-36.36 100.5,-36.36"/>
</g>
<!-- Node7 -->
<g id="node7" class="node">
<title>Node7</title>
<g id="a_node7"><a xlink:href="types_8h.html" target="_top" xlink:title=" ">
<polygon fill="white" stroke="#666666" points="563.5,-90.5 482.5,-90.5 482.5,-71.5 563.5,-71.5 563.5,-90.5"/>
<text text-anchor="middle" x="523" y="-78.5" font-family="Helvetica,sans-Serif" font-size="10.00">dolphin/types.h</text>
</a>
</g>
</g>
<!-- Node6&#45;&gt;Node7 -->
<g id="edge6" class="edge">
<title>Node6&#45;&gt;Node7</title>
<path fill="none" stroke="#63b8ff" d="M290.91,-131.55C339.38,-121.2 419.17,-104.17 471.4,-93.02"/>
<polygon fill="#63b8ff" stroke="#63b8ff" points="471.9,-96.49 480.95,-90.98 470.44,-89.64 471.9,-96.49"/>
</g>
<!-- Node8 -->
<g id="node8" class="node">
<title>Node8</title>
<g id="a_node8"><a xlink:href="stddef_8h.html" target="_top" xlink:title=" ">
<polygon fill="white" stroke="#666666" points="591,-30 455,-30 455,0 591,0 591,-30"/>
<text text-anchor="start" x="463" y="-18" font-family="Helvetica,sans-Serif" font-size="10.00">MSL_C/MSL_Common/Src</text>
<text text-anchor="middle" x="523" y="-7" font-family="Helvetica,sans-Serif" font-size="10.00">/stddef.h</text>
</a>
</g>
</g>
<!-- Node7&#45;&gt;Node8 -->
<g id="edge7" class="edge">
<title>Node7&#45;&gt;Node8</title>
<path fill="none" stroke="#63b8ff" d="M523,-71.1C523,-63.41 523,-51.92 523,-41.42"/>
<polygon fill="#63b8ff" stroke="#63b8ff" points="526.5,-41.75 523,-31.75 519.5,-41.75 526.5,-41.75"/>
</g>
<!-- Node9&#45;&gt;Node7 -->
<g id="edge28" class="edge">
<title>Node9&#45;&gt;Node7</title>
<path fill="none" stroke="#63b8ff" d="M564.41,-505.64C582.66,-498.29 606.95,-486.39 624,-470 653.57,-441.58 670,-431.01 670,-390 670,-390 670,-390 670,-201 670,-145.76 606.51,-111.73 562.98,-94.89"/>
<polygon fill="#63b8ff" stroke="#63b8ff" points="564.41,-91.69 553.81,-91.5 561.98,-98.25 564.41,-91.69"/>
</g>
<!-- Node10 -->
<g id="node10" class="node">
<title>Node10</title>
<g id="a_node10"><a xlink:href="Z2SoundHandles_8h.html" target="_top" xlink:title=" ">
<polygon fill="white" stroke="#666666" points="615,-464.5 463,-464.5 463,-445.5 615,-445.5 615,-464.5"/>
<text text-anchor="middle" x="539" y="-452.5" font-family="Helvetica,sans-Serif" font-size="10.00">Z2AudioLib/Z2SoundHandles.h</text>
</a>
</g>
</g>
<!-- Node9&#45;&gt;Node10 -->
<g id="edge9" class="edge">
<title>Node9&#45;&gt;Node10</title>
<path fill="none" stroke="#63b8ff" d="M539,-505.87C539,-498 539,-486.1 539,-475.89"/>
<polygon fill="#63b8ff" stroke="#63b8ff" points="542.5,-476.18 539,-466.18 535.5,-476.18 542.5,-476.18"/>
</g>
<!-- Node10&#45;&gt;Node7 -->
<g id="edge27" class="edge">
<title>Node10&#45;&gt;Node7</title>
<path fill="none" stroke="#63b8ff" d="M552.32,-445.12C578.04,-426.81 632,-382.11 632,-329.5 632,-329.5 632,-329.5 632,-201 632,-152.71 582.6,-115.51 550.31,-96.35"/>
<polygon fill="#63b8ff" stroke="#63b8ff" points="552.25,-93.42 541.83,-91.52 548.79,-99.51 552.25,-93.42"/>
</g>
<!-- Node11 -->
<g id="node11" class="node">
<title>Node11</title>
<g id="a_node11"><a xlink:href="JAISoundHandles_8h.html" target="_top" xlink:title=" ">
<polygon fill="white" stroke="#666666" points="510.5,-404 371.5,-404 371.5,-374 510.5,-374 510.5,-404"/>
<text text-anchor="start" x="379.5" y="-392" font-family="Helvetica,sans-Serif" font-size="10.00">JSystem/JAudio2/JAISound</text>
<text text-anchor="middle" x="441" y="-381" font-family="Helvetica,sans-Serif" font-size="10.00">Handles.h</text>
</a>
</g>
</g>
<!-- Node10&#45;&gt;Node11 -->
<g id="edge10" class="edge">
<title>Node10&#45;&gt;Node11</title>
<path fill="none" stroke="#63b8ff" d="M525.37,-445.1C511.79,-436.23 490.46,-422.3 472.64,-410.66"/>
<polygon fill="#63b8ff" stroke="#63b8ff" points="474.72,-407.84 464.44,-405.31 470.9,-413.7 474.72,-407.84"/>
</g>
<!-- Node20 -->
<g id="node20" class="node">
<title>Node20</title>
<g id="a_node20"><a xlink:href="JSUList_8h.html" target="_top" xlink:title=" ">
<polygon fill="white" stroke="#666666" points="603.5,-338 460.5,-338 460.5,-319 603.5,-319 603.5,-338"/>
<text text-anchor="middle" x="532" y="-326" font-family="Helvetica,sans-Serif" font-size="10.00">JSystem/JSupport/JSUList.h</text>
</a>
</g>
</g>
<!-- Node10&#45;&gt;Node20 -->
<g id="edge25" class="edge">
<title>Node10&#45;&gt;Node20</title>
<path fill="none" stroke="#63b8ff" d="M538.5,-445.05C537.38,-425.22 534.68,-377.18 533.14,-349.69"/>
<polygon fill="#63b8ff" stroke="#63b8ff" points="536.64,-349.67 532.58,-339.88 529.65,-350.06 536.64,-349.67"/>
</g>
<!-- Node12 -->
<g id="node12" class="node">
<title>Node12</title>
<g id="a_node12"><a xlink:href="JAISound_8h.html" target="_top" xlink:title=" ">
<polygon fill="white" stroke="#666666" points="278,-338 132,-338 132,-319 278,-319 278,-338"/>
<text text-anchor="middle" x="205" y="-326" font-family="Helvetica,sans-Serif" font-size="10.00">JSystem/JAudio2/JAISound.h</text>
</a>
</g>
</g>
<!-- Node11&#45;&gt;Node12 -->
<g id="edge11" class="edge">
<title>Node11&#45;&gt;Node12</title>
<path fill="none" stroke="#63b8ff" d="M382.66,-373.54C342.46,-363.57 289.72,-350.5 252.17,-341.19"/>
<polygon fill="#63b8ff" stroke="#63b8ff" points="253.05,-337.81 242.5,-338.8 251.37,-344.6 253.05,-337.81"/>
</g>
<!-- Node19 -->
<g id="node19" class="node">
<title>Node19</title>
<g id="a_node19"><a xlink:href="JUTAssert_8h.html" target="_top" xlink:title=" ">
<polygon fill="white" stroke="#666666" points="442,-338 296,-338 296,-319 442,-319 442,-338"/>
<text text-anchor="middle" x="369" y="-326" font-family="Helvetica,sans-Serif" font-size="10.00">JSystem/JUtility/JUTAssert.h</text>
</a>
</g>
</g>
<!-- Node11&#45;&gt;Node19 -->
<g id="edge23" class="edge">
<title>Node11&#45;&gt;Node19</title>
<path fill="none" stroke="#63b8ff" d="M423.2,-373.54C412.64,-364.96 399.24,-354.07 388.4,-345.26"/>
<polygon fill="#63b8ff" stroke="#63b8ff" points="390.82,-342.72 380.85,-339.13 386.41,-348.15 390.82,-342.72"/>
</g>
<!-- Node13 -->
<g id="node13" class="node">
<title>Node13</title>
<g id="a_node13"><a xlink:href="JAISoundParams_8h.html" target="_top" xlink:title=" ">
<polygon fill="white" stroke="#666666" points="492.5,-283 353.5,-283 353.5,-253 492.5,-253 492.5,-283"/>
<text text-anchor="start" x="361.5" y="-271" font-family="Helvetica,sans-Serif" font-size="10.00">JSystem/JAudio2/JAISound</text>
<text text-anchor="middle" x="423" y="-260" font-family="Helvetica,sans-Serif" font-size="10.00">Params.h</text>
</a>
</g>
</g>
<!-- Node12&#45;&gt;Node13 -->
<g id="edge12" class="edge">
<title>Node12&#45;&gt;Node13</title>
<path fill="none" stroke="#63b8ff" d="M238.11,-318.62C269.9,-310.08 318.79,-296.96 358.31,-286.36"/>
<polygon fill="#63b8ff" stroke="#63b8ff" points="358.98,-289.8 367.73,-283.83 357.16,-283.04 358.98,-289.8"/>
</g>
<!-- Node15 -->
<g id="node15" class="node">
<title>Node15</title>
<g id="a_node15"><a xlink:href="JAIAudible_8h.html" target="_top" xlink:title=" ">
<polygon fill="white" stroke="#666666" points="266.5,-277.5 115.5,-277.5 115.5,-258.5 266.5,-258.5 266.5,-277.5"/>
<text text-anchor="middle" x="191" y="-265.5" font-family="Helvetica,sans-Serif" font-size="10.00">JSystem/JAudio2/JAIAudible.h</text>
</a>
</g>
</g>
<!-- Node12&#45;&gt;Node15 -->
<g id="edge15" class="edge">
<title>Node12&#45;&gt;Node15</title>
<path fill="none" stroke="#63b8ff" d="M202.93,-318.87C201.03,-310.92 198.14,-298.83 195.68,-288.55"/>
<polygon fill="#63b8ff" stroke="#63b8ff" points="199.16,-288.05 193.43,-279.14 192.35,-289.68 199.16,-288.05"/>
</g>
<!-- Node18 -->
<g id="node18" class="node">
<title>Node18</title>
<g id="a_node18"><a xlink:href="global_8h.html" target="_top" xlink:title=" ">
<polygon fill="white" stroke="#666666" points="335,-277.5 285,-277.5 285,-258.5 335,-258.5 335,-277.5"/>
<text text-anchor="middle" x="310" y="-265.5" font-family="Helvetica,sans-Serif" font-size="10.00">global.h</text>
</a>
</g>
</g>
<!-- Node12&#45;&gt;Node18 -->
<g id="edge21" class="edge">
<title>Node12&#45;&gt;Node18</title>
<path fill="none" stroke="#63b8ff" d="M220.95,-318.62C237.68,-309.29 264.23,-294.5 284,-283.49"/>
<polygon fill="#63b8ff" stroke="#63b8ff" points="285.55,-286.63 292.58,-278.71 282.14,-280.51 285.55,-286.63"/>
</g>
<!-- Node14 -->
<g id="node14" class="node">
<title>Node14</title>
<g id="a_node14"><a xlink:href="JASSoundParams_8h.html" target="_top" xlink:title=" ">
<polygon fill="white" stroke="#666666" points="494.5,-217 351.5,-217 351.5,-187 494.5,-187 494.5,-217"/>
<text text-anchor="start" x="359.5" y="-205" font-family="Helvetica,sans-Serif" font-size="10.00">JSystem/JAudio2/JASSound</text>
<text text-anchor="middle" x="423" y="-194" font-family="Helvetica,sans-Serif" font-size="10.00">Params.h</text>
</a>
</g>
</g>
<!-- Node13&#45;&gt;Node14 -->
<g id="edge13" class="edge">
<title>Node13&#45;&gt;Node14</title>
<path fill="none" stroke="#63b8ff" d="M423,-252.8C423,-245.67 423,-236.82 423,-228.56"/>
<polygon fill="#63b8ff" stroke="#63b8ff" points="426.5,-228.68 423,-218.68 419.5,-228.68 426.5,-228.68"/>
</g>
<!-- Node14&#45;&gt;Node7 -->
<g id="edge14" class="edge">
<title>Node14&#45;&gt;Node7</title>
<path fill="none" stroke="#63b8ff" d="M434.86,-186.88C453.23,-165.02 488.51,-123.04 508.41,-99.36"/>
<polygon fill="#63b8ff" stroke="#63b8ff" points="510.95,-101.78 514.71,-91.87 505.59,-97.27 510.95,-101.78"/>
</g>
<!-- Node16 -->
<g id="node16" class="node">
<title>Node16</title>
<g id="a_node16"><a xlink:href="JGeometry_8h.html" target="_top" xlink:title=" ">
<polygon fill="white" stroke="#666666" points="247.5,-211.5 134.5,-211.5 134.5,-192.5 247.5,-192.5 247.5,-211.5"/>
<text text-anchor="middle" x="191" y="-199.5" font-family="Helvetica,sans-Serif" font-size="10.00">JSystem/JGeometry.h</text>
</a>
</g>
</g>
<!-- Node15&#45;&gt;Node16 -->
<g id="edge16" class="edge">
<title>Node15&#45;&gt;Node16</title>
<path fill="none" stroke="#63b8ff" d="M191,-258.1C191,-249.12 191,-234.95 191,-223.22"/>
<polygon fill="#63b8ff" stroke="#63b8ff" points="194.5,-223.34 191,-213.34 187.5,-223.34 194.5,-223.34"/>
</g>
<!-- Node16&#45;&gt;Node3 -->
<g id="edge20" class="edge">
<title>Node16&#45;&gt;Node3</title>
<path fill="none" stroke="#63b8ff" d="M169.28,-192.12C145.66,-182.45 107.64,-166.9 80.47,-155.78"/>
<polygon fill="#63b8ff" stroke="#63b8ff" points="81.9,-152.59 71.32,-152.04 79.25,-159.07 81.9,-152.59"/>
</g>
<!-- Node16&#45;&gt;Node6 -->
<g id="edge17" class="edge">
<title>Node16&#45;&gt;Node6</title>
<path fill="none" stroke="#63b8ff" d="M199.56,-192.37C208.21,-183.64 221.8,-169.93 232.55,-159.09"/>
<polygon fill="#63b8ff" stroke="#63b8ff" points="234.79,-161.81 239.34,-152.24 229.81,-156.88 234.79,-161.81"/>
</g>
<!-- Node17 -->
<g id="node17" class="node">
<title>Node17</title>
<g id="a_node17"><a xlink:href="float_8h.html" target="_top" xlink:title=" ">
<polygon fill="white" stroke="#666666" points="185,-151 107,-151 107,-132 185,-132 185,-151"/>
<text text-anchor="middle" x="146" y="-139" font-family="Helvetica,sans-Serif" font-size="10.00">MSL_C/float.h</text>
</a>
</g>
</g>
<!-- Node16&#45;&gt;Node17 -->
<g id="edge18" class="edge">
<title>Node16&#45;&gt;Node17</title>
<path fill="none" stroke="#63b8ff" d="M184.36,-192.37C177.85,-183.9 167.72,-170.74 159.51,-160.07"/>
<polygon fill="#63b8ff" stroke="#63b8ff" points="162.46,-158.16 153.59,-152.37 156.91,-162.43 162.46,-158.16"/>
</g>
<!-- Node17&#45;&gt;Node4 -->
<g id="edge19" class="edge">
<title>Node17&#45;&gt;Node4</title>
<path fill="none" stroke="#63b8ff" d="M138.77,-131.87C132.8,-124.74 124.04,-114.28 116.09,-104.79"/>
<polygon fill="#63b8ff" stroke="#63b8ff" points="118.9,-102.69 109.79,-97.27 113.53,-107.19 118.9,-102.69"/>
</g>
<!-- Node18&#45;&gt;Node7 -->
<g id="edge22" class="edge">
<title>Node18&#45;&gt;Node7</title>
<path fill="none" stroke="#63b8ff" d="M311.58,-258.08C314.79,-242.15 323.41,-208.5 342,-187 381.31,-141.53 445.4,-110.98 485.83,-95.05"/>
<polygon fill="#63b8ff" stroke="#63b8ff" points="487.06,-98.33 495.16,-91.49 484.56,-91.79 487.06,-98.33"/>
</g>
<!-- Node19&#45;&gt;Node7 -->
<g id="edge24" class="edge">
<title>Node19&#45;&gt;Node7</title>
<path fill="none" stroke="#63b8ff" d="M441.15,-318.58C463.55,-312.21 486.22,-301.37 501,-283 543.79,-229.8 534.26,-141.42 527.21,-102.02"/>
<polygon fill="#63b8ff" stroke="#63b8ff" points="530.67,-101.49 525.33,-92.35 523.8,-102.83 530.67,-101.49"/>
</g>
<!-- Node20&#45;&gt;Node7 -->
<g id="edge26" class="edge">
<title>Node20&#45;&gt;Node7</title>
<path fill="none" stroke="#63b8ff" d="M533.21,-318.87C536.84,-291.41 546.84,-203.65 537,-132 535.58,-121.69 532.6,-110.52 529.75,-101.35"/>
<polygon fill="#63b8ff" stroke="#63b8ff" points="533.16,-100.53 526.7,-92.13 526.52,-102.73 533.16,-100.53"/>
</g>
<!-- Node22 -->
<g id="node22" class="node">
<title>Node22</title>
<g id="a_node22"><a xlink:href="JAISoundStarter_8h.html" target="_top" xlink:title=" ">
<polygon fill="white" stroke="#666666" points="247.5,-470 108.5,-470 108.5,-440 247.5,-440 247.5,-470"/>
<text text-anchor="start" x="116.5" y="-458" font-family="Helvetica,sans-Serif" font-size="10.00">JSystem/JAudio2/JAISound</text>
<text text-anchor="middle" x="178" y="-447" font-family="Helvetica,sans-Serif" font-size="10.00">Starter.h</text>
</a>
</g>
</g>
<!-- Node21&#45;&gt;Node22 -->
<g id="edge30" class="edge">
<title>Node21&#45;&gt;Node22</title>
<path fill="none" stroke="#63b8ff" d="M221.47,-505.87C215.26,-498.74 206.15,-488.28 197.87,-478.79"/>
<polygon fill="#63b8ff" stroke="#63b8ff" points="200.51,-476.49 191.3,-471.26 195.23,-481.09 200.51,-476.49"/>
</g>
<!-- Node23 -->
<g id="node23" class="node">
<title>Node23</title>
<g id="a_node23"><a xlink:href="JASGadget_8h.html" target="_top" xlink:title=" ">
<polygon fill="white" stroke="#666666" points="353,-398.5 199,-398.5 199,-379.5 353,-379.5 353,-398.5"/>
<text text-anchor="middle" x="276" y="-386.5" font-family="Helvetica,sans-Serif" font-size="10.00">JSystem/JAudio2/JASGadget.h</text>
</a>
</g>
</g>
<!-- Node21&#45;&gt;Node23 -->
<g id="edge34" class="edge">
<title>Node21&#45;&gt;Node23</title>
<path fill="none" stroke="#63b8ff" d="M235.42,-505.72C241.51,-497.04 250.5,-483.18 256,-470 264.26,-450.21 269.7,-426.18 272.79,-409.66"/>
<polygon fill="#63b8ff" stroke="#63b8ff" points="276.18,-410.62 274.45,-400.17 269.28,-409.42 276.18,-410.62"/>
</g>
<!-- Node22&#45;&gt;Node12 -->
<g id="edge31" class="edge">
<title>Node22&#45;&gt;Node12</title>
<path fill="none" stroke="#63b8ff" d="M179.38,-439.69C181.11,-423.57 184.53,-396.66 190,-374 192.01,-365.68 194.89,-356.7 197.6,-349"/>
<polygon fill="#63b8ff" stroke="#63b8ff" points="200.87,-350.25 201.02,-339.65 194.3,-347.84 200.87,-350.25"/>
</g>
<!-- Node22&#45;&gt;Node23 -->
<g id="edge32" class="edge">
<title>Node22&#45;&gt;Node23</title>
<path fill="none" stroke="#63b8ff" d="M199.75,-439.8C215.63,-429.43 237.1,-415.4 253.21,-404.88"/>
<polygon fill="#63b8ff" stroke="#63b8ff" points="254.73,-408.07 261.19,-399.67 250.9,-402.21 254.73,-408.07"/>
</g>
<!-- Node23&#45;&gt;Node19 -->
<g id="edge33" class="edge">
<title>Node23&#45;&gt;Node19</title>
<path fill="none" stroke="#63b8ff" d="M290.12,-379.12C304.74,-369.92 327.82,-355.41 345.24,-344.44"/>
<polygon fill="#63b8ff" stroke="#63b8ff" points="346.86,-347.56 353.46,-339.27 343.13,-341.64 346.86,-347.56"/>
</g>
</g>
</svg>
