<?xml version="1.0" encoding="UTF-8" standalone="no"?>
<!DOCTYPE svg PUBLIC "-//W3C//DTD SVG 1.1//EN"
 "http://www.w3.org/Graphics/SVG/1.1/DTD/svg11.dtd">
<!-- Generated by graphviz version 7.0.5 (20221223.1930)
 -->
<!-- Title: include/Z2AudioLib/Z2Creature.h Pages: 1 -->
<svg width="3034pt" height="247pt"
 viewBox="0.00 0.00 3033.50 247.00" xmlns="http://www.w3.org/2000/svg" xmlns:xlink="http://www.w3.org/1999/xlink">
<g id="graph0" class="graph" transform="scale(1 1) rotate(0) translate(4 243)">
<title>include/Z2AudioLib/Z2Creature.h</title>
<!-- Node1 -->
<g id="node1" class="node">
<title>Node1</title>
<g id="a_node1"><a xlink:title=" ">
<polygon fill="#999999" stroke="#666666" points="1903,-239 1803,-239 1803,-209 1903,-209 1903,-239"/>
<text text-anchor="start" x="1811" y="-227" font-family="Helvetica,sans-Serif" font-size="10.00">include/Z2AudioLib</text>
<text text-anchor="middle" x="1853" y="-216" font-family="Helvetica,sans-Serif" font-size="10.00">/Z2Creature.h</text>
</a>
</g>
</g>
<!-- Node2 -->
<g id="node2" class="node">
<title>Node2</title>
<g id="a_node2"><a xlink:href="d__a__alink_8h.html" target="_top" xlink:title=" ">
<polygon fill="white" stroke="#666666" points="525,-96 409,-96 409,-77 525,-77 525,-96"/>
<text text-anchor="middle" x="467" y="-84" font-family="Helvetica,sans-Serif" font-size="10.00">include/d/a/d_a_alink.h</text>
</a>
</g>
</g>
<!-- Node1&#45;&gt;Node2 -->
<g id="edge1" class="edge">
<title>Node1&#45;&gt;Node2</title>
<path fill="none" stroke="#63b8ff" d="M1791.33,-221.82C1594.25,-217.77 981.09,-203.03 785,-173 673.96,-156 546.02,-114.72 492.55,-96.45"/>
<polygon fill="#63b8ff" stroke="#63b8ff" points="1791.03,-225.31 1801.1,-222.02 1791.17,-218.31 1791.03,-225.31"/>
</g>
<!-- Node11 -->
<g id="node11" class="node">
<title>Node11</title>
<g id="a_node11"><a xlink:href="d__a__npc_8h.html" target="_top" xlink:title=" ">
<polygon fill="white" stroke="#666666" points="905.5,-167.5 794.5,-167.5 794.5,-148.5 905.5,-148.5 905.5,-167.5"/>
<text text-anchor="middle" x="850" y="-155.5" font-family="Helvetica,sans-Serif" font-size="10.00">include/d/a/d_a_npc.h</text>
</a>
</g>
</g>
<!-- Node1&#45;&gt;Node11 -->
<g id="edge10" class="edge">
<title>Node1&#45;&gt;Node11</title>
<path fill="none" stroke="#63b8ff" d="M1791.12,-219.05C1609.4,-207.46 1079.26,-173.63 905.71,-162.55"/>
<polygon fill="#63b8ff" stroke="#63b8ff" points="1790.86,-222.54 1801.06,-219.69 1791.31,-215.56 1790.86,-222.54"/>
</g>
<!-- Node17 -->
<g id="node17" class="node">
<title>Node17</title>
<g id="a_node17"><a xlink:href="d__a__npc__cd_8h.html" target="_top" xlink:title=" ">
<polygon fill="white" stroke="#666666" points="1215.5,-167.5 1088.5,-167.5 1088.5,-148.5 1215.5,-148.5 1215.5,-167.5"/>
<text text-anchor="middle" x="1152" y="-155.5" font-family="Helvetica,sans-Serif" font-size="10.00">include/d/a/d_a_npc_cd.h</text>
</a>
</g>
</g>
<!-- Node1&#45;&gt;Node17 -->
<g id="edge17" class="edge">
<title>Node1&#45;&gt;Node17</title>
<path fill="none" stroke="#63b8ff" d="M1791.26,-220.1C1678.99,-214.38 1434.04,-199.79 1229,-173 1218.63,-171.64 1207.53,-169.84 1197.08,-167.97"/>
<polygon fill="#63b8ff" stroke="#63b8ff" points="1791,-223.59 1801.16,-220.6 1791.35,-216.6 1791,-223.59"/>
</g>
<!-- Node19 -->
<g id="node19" class="node">
<title>Node19</title>
<g id="a_node19"><a xlink:href="d__a__npc__cd2_8h.html" target="_top" xlink:title=" ">
<polygon fill="white" stroke="#666666" points="1342,-173 1238,-173 1238,-143 1342,-143 1342,-173"/>
<text text-anchor="start" x="1246" y="-161" font-family="Helvetica,sans-Serif" font-size="10.00">include/d/a/d_a_npc</text>
<text text-anchor="middle" x="1290" y="-150" font-family="Helvetica,sans-Serif" font-size="10.00">_cd2.h</text>
</a>
</g>
</g>
<!-- Node1&#45;&gt;Node19 -->
<g id="edge19" class="edge">
<title>Node1&#45;&gt;Node19</title>
<path fill="none" stroke="#63b8ff" d="M1791.46,-219.38C1696.48,-213.24 1508.64,-198.83 1351,-173 1348.21,-172.54 1345.36,-172.03 1342.49,-171.49"/>
<polygon fill="#63b8ff" stroke="#63b8ff" points="1791.14,-222.87 1801.34,-220.01 1791.58,-215.88 1791.14,-222.87"/>
</g>
<!-- Node21 -->
<g id="node21" class="node">
<title>Node21</title>
<g id="a_node21"><a xlink:href="d__a__b__ob_8h.html" target="_top" xlink:title=" ">
<polygon fill="white" stroke="#666666" points="1466,-173 1360,-173 1360,-143 1466,-143 1466,-173"/>
<text text-anchor="start" x="1368" y="-161" font-family="Helvetica,sans-Serif" font-size="10.00">include/rel/d/a/b/d</text>
<text text-anchor="middle" x="1413" y="-150" font-family="Helvetica,sans-Serif" font-size="10.00">_a_b_ob/d_a_b_ob.h</text>
</a>
</g>
</g>
<!-- Node1&#45;&gt;Node21 -->
<g id="edge21" class="edge">
<title>Node1&#45;&gt;Node21</title>
<path fill="none" stroke="#63b8ff" d="M1791.71,-216.53C1716.9,-208.25 1586.69,-192.6 1476,-173 1472.8,-172.43 1469.52,-171.82 1466.21,-171.17"/>
<polygon fill="#63b8ff" stroke="#63b8ff" points="1790.95,-219.97 1801.28,-217.58 1791.72,-213.01 1790.95,-219.97"/>
</g>
<!-- Node23 -->
<g id="node23" class="node">
<title>Node23</title>
<g id="a_node23"><a xlink:href="d__a__cstaF_8h.html" target="_top" xlink:title=" ">
<polygon fill="white" stroke="#666666" points="1587.5,-173 1484.5,-173 1484.5,-143 1587.5,-143 1587.5,-173"/>
<text text-anchor="start" x="1492.5" y="-161" font-family="Helvetica,sans-Serif" font-size="10.00">include/rel/d/a/d_a</text>
<text text-anchor="middle" x="1536" y="-150" font-family="Helvetica,sans-Serif" font-size="10.00">_cstaF/d_a_cstaF.h</text>
</a>
</g>
</g>
<!-- Node1&#45;&gt;Node23 -->
<g id="edge23" class="edge">
<title>Node1&#45;&gt;Node23</title>
<path fill="none" stroke="#63b8ff" d="M1791.84,-211.64C1739.91,-201.85 1663.44,-187.11 1597,-173 1594.02,-172.37 1590.97,-171.71 1587.89,-171.03"/>
<polygon fill="#63b8ff" stroke="#63b8ff" points="1790.9,-215.02 1801.38,-213.43 1792.2,-208.14 1790.9,-215.02"/>
</g>
<!-- Node24 -->
<g id="node24" class="node">
<title>Node24</title>
<g id="a_node24"><a xlink:href="d__a__cstatue_8h.html" target="_top" xlink:title=" ">
<polygon fill="white" stroke="#666666" points="1724,-173 1606,-173 1606,-143 1724,-143 1724,-173"/>
<text text-anchor="start" x="1614" y="-161" font-family="Helvetica,sans-Serif" font-size="10.00">include/rel/d/a/d_a</text>
<text text-anchor="middle" x="1665" y="-150" font-family="Helvetica,sans-Serif" font-size="10.00">_cstatue/d_a_cstatue.h</text>
</a>
</g>
</g>
<!-- Node1&#45;&gt;Node24 -->
<g id="edge24" class="edge">
<title>Node1&#45;&gt;Node24</title>
<path fill="none" stroke="#63b8ff" d="M1799.94,-204.94C1770.65,-194.97 1734.77,-182.75 1707.37,-173.43"/>
<polygon fill="#63b8ff" stroke="#63b8ff" points="1798.78,-208.24 1809.38,-208.15 1801.04,-201.61 1798.78,-208.24"/>
</g>
<!-- Node25 -->
<g id="node25" class="node">
<title>Node25</title>
<g id="a_node25"><a xlink:href="d__a__horse_8h.html" target="_top" xlink:title=" ">
<polygon fill="white" stroke="#666666" points="1843.5,-173 1742.5,-173 1742.5,-143 1843.5,-143 1843.5,-173"/>
<text text-anchor="start" x="1750.5" y="-161" font-family="Helvetica,sans-Serif" font-size="10.00">include/rel/d/a/d_a</text>
<text text-anchor="middle" x="1793" y="-150" font-family="Helvetica,sans-Serif" font-size="10.00">_horse/d_a_horse.h</text>
</a>
</g>
</g>
<!-- Node1&#45;&gt;Node25 -->
<g id="edge25" class="edge">
<title>Node1&#45;&gt;Node25</title>
<path fill="none" stroke="#63b8ff" d="M1831.93,-200.53C1823.4,-191.43 1813.81,-181.19 1806.28,-173.16"/>
<polygon fill="#63b8ff" stroke="#63b8ff" points="1829.26,-202.79 1838.65,-207.69 1834.36,-198 1829.26,-202.79"/>
</g>
<!-- Node31 -->
<g id="node31" class="node">
<title>Node31</title>
<g id="a_node31"><a xlink:href="d__a__e__yk_8h.html" target="_top" xlink:title=" ">
<polygon fill="white" stroke="#666666" points="1966,-173 1862,-173 1862,-143 1966,-143 1966,-173"/>
<text text-anchor="start" x="1870" y="-161" font-family="Helvetica,sans-Serif" font-size="10.00">include/rel/d/a/e/d</text>
<text text-anchor="middle" x="1914" y="-150" font-family="Helvetica,sans-Serif" font-size="10.00">_a_e_yk/d_a_e_yk.h</text>
</a>
</g>
</g>
<!-- Node1&#45;&gt;Node31 -->
<g id="edge33" class="edge">
<title>Node1&#45;&gt;Node31</title>
<path fill="none" stroke="#63b8ff" d="M1874.42,-200.53C1883.09,-191.43 1892.85,-181.19 1900.5,-173.16"/>
<polygon fill="#63b8ff" stroke="#63b8ff" points="1871.95,-198.05 1867.58,-207.7 1877.02,-202.88 1871.95,-198.05"/>
</g>
<!-- Node32 -->
<g id="node32" class="node">
<title>Node32</title>
<g id="a_node32"><a xlink:href="d__a__e__ym_8h.html" target="_top" xlink:title=" ">
<polygon fill="white" stroke="#666666" points="2094,-173 1984,-173 1984,-143 2094,-143 2094,-173"/>
<text text-anchor="start" x="1992" y="-161" font-family="Helvetica,sans-Serif" font-size="10.00">include/rel/d/a/e/d</text>
<text text-anchor="middle" x="2039" y="-150" font-family="Helvetica,sans-Serif" font-size="10.00">_a_e_ym/d_a_e_ym.h</text>
</a>
</g>
</g>
<!-- Node1&#45;&gt;Node32 -->
<g id="edge34" class="edge">
<title>Node1&#45;&gt;Node32</title>
<path fill="none" stroke="#63b8ff" d="M1905.5,-204.94C1934.47,-194.97 1969.97,-182.75 1997.08,-173.43"/>
<polygon fill="#63b8ff" stroke="#63b8ff" points="1904.49,-201.58 1896.17,-208.14 1906.77,-208.2 1904.49,-201.58"/>
</g>
<!-- Node34 -->
<g id="node34" class="node">
<title>Node34</title>
<g id="a_node34"><a xlink:href="Z2Creature_8cpp.html" target="_top" xlink:title=" ">
<polygon fill="white" stroke="#666666" points="2265.5,-167.5 2112.5,-167.5 2112.5,-148.5 2265.5,-148.5 2265.5,-167.5"/>
<text text-anchor="middle" x="2189" y="-155.5" font-family="Helvetica,sans-Serif" font-size="10.00">libs/Z2AudioLib/Z2Creature.cpp</text>
</a>
</g>
</g>
<!-- Node1&#45;&gt;Node34 -->
<g id="edge36" class="edge">
<title>Node1&#45;&gt;Node34</title>
<path fill="none" stroke="#63b8ff" d="M1914.29,-211.33C1979.84,-198.84 2082.37,-179.31 2141.88,-167.97"/>
<polygon fill="#63b8ff" stroke="#63b8ff" points="1913.96,-207.83 1904.79,-213.14 1915.27,-214.7 1913.96,-207.83"/>
</g>
<!-- Node35 -->
<g id="node35" class="node">
<title>Node35</title>
<g id="a_node35"><a xlink:href="Z2LinkMgr_8cpp.html" target="_top" xlink:title=" ">
<polygon fill="white" stroke="#666666" points="2436,-167.5 2284,-167.5 2284,-148.5 2436,-148.5 2436,-167.5"/>
<text text-anchor="middle" x="2360" y="-155.5" font-family="Helvetica,sans-Serif" font-size="10.00">libs/Z2AudioLib/Z2LinkMgr.cpp</text>
</a>
</g>
</g>
<!-- Node1&#45;&gt;Node35 -->
<g id="edge37" class="edge">
<title>Node1&#45;&gt;Node35</title>
<path fill="none" stroke="#63b8ff" d="M1914.84,-216.56C1997.18,-207.78 2147.28,-191.07 2275,-173 2285.66,-171.49 2297.05,-169.72 2307.91,-167.96"/>
<polygon fill="#63b8ff" stroke="#63b8ff" points="1914.52,-213.07 1904.94,-217.61 1915.26,-220.04 1914.52,-213.07"/>
</g>
<!-- Node36 -->
<g id="node36" class="node">
<title>Node36</title>
<g id="a_node36"><a xlink:href="Z2SoundObjMgr_8cpp.html" target="_top" xlink:title=" ">
<polygon fill="white" stroke="#666666" points="2595.5,-173 2454.5,-173 2454.5,-143 2595.5,-143 2595.5,-173"/>
<text text-anchor="start" x="2462.5" y="-161" font-family="Helvetica,sans-Serif" font-size="10.00">libs/Z2AudioLib/Z2SoundObj</text>
<text text-anchor="middle" x="2525" y="-150" font-family="Helvetica,sans-Serif" font-size="10.00">Mgr.cpp</text>
</a>
</g>
</g>
<!-- Node1&#45;&gt;Node36 -->
<g id="edge38" class="edge">
<title>Node1&#45;&gt;Node36</title>
<path fill="none" stroke="#63b8ff" d="M1914.75,-219.6C2022.63,-213.25 2252.3,-197.95 2445,-173 2448.08,-172.6 2451.21,-172.17 2454.38,-171.71"/>
<polygon fill="#63b8ff" stroke="#63b8ff" points="1914.74,-216.09 1904.96,-220.17 1915.15,-223.08 1914.74,-216.09"/>
</g>
<!-- Node37 -->
<g id="node37" class="node">
<title>Node37</title>
<g id="a_node37"><a xlink:href="Z2WolfHowlMgr_8cpp.html" target="_top" xlink:title=" ">
<polygon fill="white" stroke="#666666" points="2754,-173 2614,-173 2614,-143 2754,-143 2754,-173"/>
<text text-anchor="start" x="2622" y="-161" font-family="Helvetica,sans-Serif" font-size="10.00">libs/Z2AudioLib/Z2WolfHowl</text>
<text text-anchor="middle" x="2684" y="-150" font-family="Helvetica,sans-Serif" font-size="10.00">Mgr.cpp</text>
</a>
</g>
</g>
<!-- Node1&#45;&gt;Node37 -->
<g id="edge39" class="edge">
<title>Node1&#45;&gt;Node37</title>
<path fill="none" stroke="#63b8ff" d="M1914.49,-221.18C2043.09,-216.88 2349.68,-204.02 2605,-173 2607.9,-172.65 2610.86,-172.26 2613.85,-171.84"/>
<polygon fill="#63b8ff" stroke="#63b8ff" points="1914.73,-217.67 1904.85,-221.5 1914.96,-224.67 1914.73,-217.67"/>
</g>
<!-- Node38 -->
<g id="node38" class="node">
<title>Node38</title>
<g id="a_node38"><a xlink:href="d__cc__uty_8cpp.html" target="_top" xlink:title=" ">
<polygon fill="white" stroke="#666666" points="2884,-167.5 2772,-167.5 2772,-148.5 2884,-148.5 2884,-167.5"/>
<text text-anchor="middle" x="2828" y="-155.5" font-family="Helvetica,sans-Serif" font-size="10.00">src/d/cc/d_cc_uty.cpp</text>
</a>
</g>
</g>
<!-- Node1&#45;&gt;Node38 -->
<g id="edge40" class="edge">
<title>Node1&#45;&gt;Node38</title>
<path fill="none" stroke="#63b8ff" d="M1914.51,-222.95C2061.75,-222.1 2445.8,-215.6 2763,-173 2772.27,-171.76 2782.18,-169.9 2791.4,-167.94"/>
<polygon fill="#63b8ff" stroke="#63b8ff" points="1914.57,-219.45 1904.59,-223 1914.61,-226.45 1914.57,-219.45"/>
</g>
<!-- Node39 -->
<g id="node39" class="node">
<title>Node39</title>
<g id="a_node39"><a xlink:href="m__Do__ext_8cpp.html" target="_top" xlink:title=" ">
<polygon fill="white" stroke="#666666" points="3025.5,-167.5 2902.5,-167.5 2902.5,-148.5 3025.5,-148.5 3025.5,-167.5"/>
<text text-anchor="middle" x="2964" y="-155.5" font-family="Helvetica,sans-Serif" font-size="10.00">src/m_Do/m_Do_ext.cpp</text>
</a>
</g>
</g>
<!-- Node1&#45;&gt;Node39 -->
<g id="edge41" class="edge">
<title>Node1&#45;&gt;Node39</title>
<path fill="none" stroke="#63b8ff" d="M1914.38,-223.18C2075.48,-222.98 2523.49,-218.07 2893,-173 2903.1,-171.77 2913.92,-169.91 2923.99,-167.96"/>
<polygon fill="#63b8ff" stroke="#63b8ff" points="1914.79,-219.68 1904.79,-223.19 1914.8,-226.68 1914.79,-219.68"/>
</g>
<!-- Node3 -->
<g id="node3" class="node">
<title>Node3</title>
<g id="a_node3"><a xlink:href="d__a__alink_8cpp.html" target="_top" xlink:title=" ">
<polygon fill="white" stroke="#666666" points="1943.5,-24.5 1834.5,-24.5 1834.5,-5.5 1943.5,-5.5 1943.5,-24.5"/>
<text text-anchor="middle" x="1889" y="-12.5" font-family="Helvetica,sans-Serif" font-size="10.00">src/d/a/d_a_alink.cpp</text>
</a>
</g>
</g>
<!-- Node2&#45;&gt;Node3 -->
<g id="edge2" class="edge">
<title>Node2&#45;&gt;Node3</title>
<path fill="none" stroke="#63b8ff" d="M502.88,-73.29C512.85,-70.39 523.75,-67.66 534,-66 663.63,-45.07 1596.63,-22.64 1834.12,-17.23"/>
<polygon fill="#63b8ff" stroke="#63b8ff" points="502.1,-69.87 493.56,-76.15 504.15,-76.57 502.1,-69.87"/>
</g>
<!-- Node4 -->
<g id="node4" class="node">
<title>Node4</title>
<g id="a_node4"><a xlink:href="d__a__player_8cpp.html" target="_top" xlink:title=" ">
<polygon fill="white" stroke="#666666" points="114,-24.5 0,-24.5 0,-5.5 114,-5.5 114,-24.5"/>
<text text-anchor="middle" x="57" y="-12.5" font-family="Helvetica,sans-Serif" font-size="10.00">src/d/a/d_a_player.cpp</text>
</a>
</g>
</g>
<!-- Node2&#45;&gt;Node4 -->
<g id="edge3" class="edge">
<title>Node2&#45;&gt;Node4</title>
<path fill="none" stroke="#63b8ff" d="M397.48,-75.31C327.88,-64.86 217.78,-47.69 123,-30 114.82,-28.47 106.11,-26.72 97.78,-24.98"/>
<polygon fill="#63b8ff" stroke="#63b8ff" points="396.82,-78.75 407.23,-76.77 397.85,-71.82 396.82,-78.75"/>
</g>
<!-- Node5 -->
<g id="node5" class="node">
<title>Node5</title>
<g id="a_node5"><a xlink:href="d__com__inf__game_8cpp.html" target="_top" xlink:title=" ">
<polygon fill="white" stroke="#666666" points="240,-30 132,-30 132,0 240,0 240,-30"/>
<text text-anchor="start" x="140" y="-18" font-family="Helvetica,sans-Serif" font-size="10.00">src/d/com/d_com_inf</text>
<text text-anchor="middle" x="186" y="-7" font-family="Helvetica,sans-Serif" font-size="10.00">_game.cpp</text>
</a>
</g>
</g>
<!-- Node2&#45;&gt;Node5 -->
<g id="edge4" class="edge">
<title>Node2&#45;&gt;Node5</title>
<path fill="none" stroke="#63b8ff" d="M419.8,-73.83C370.24,-61.57 292.41,-42.32 240.33,-29.44"/>
<polygon fill="#63b8ff" stroke="#63b8ff" points="418.82,-77.19 429.37,-76.19 420.5,-70.39 418.82,-77.19"/>
</g>
<!-- Node6 -->
<g id="node6" class="node">
<title>Node6</title>
<g id="a_node6"><a xlink:href="d__camera_8cpp.html" target="_top" xlink:title=" ">
<polygon fill="white" stroke="#666666" points="360,-24.5 258,-24.5 258,-5.5 360,-5.5 360,-24.5"/>
<text text-anchor="middle" x="309" y="-12.5" font-family="Helvetica,sans-Serif" font-size="10.00">src/d/d_camera.cpp</text>
</a>
</g>
</g>
<!-- Node2&#45;&gt;Node6 -->
<g id="edge5" class="edge">
<title>Node2&#45;&gt;Node6</title>
<path fill="none" stroke="#63b8ff" d="M436.25,-71.97C404.65,-58.07 356.35,-36.83 329.25,-24.91"/>
<polygon fill="#63b8ff" stroke="#63b8ff" points="434.72,-75.12 445.28,-75.95 437.54,-68.72 434.72,-75.12"/>
</g>
<!-- Node7 -->
<g id="node7" class="node">
<title>Node7</title>
<g id="a_node7"><a xlink:href="d__event_8cpp.html" target="_top" xlink:title=" ">
<polygon fill="white" stroke="#666666" points="499.5,-24.5 378.5,-24.5 378.5,-5.5 499.5,-5.5 499.5,-24.5"/>
<text text-anchor="middle" x="439" y="-12.5" font-family="Helvetica,sans-Serif" font-size="10.00">src/d/event/d_event.cpp</text>
</a>
</g>
</g>
<!-- Node2&#45;&gt;Node7 -->
<g id="edge6" class="edge">
<title>Node2&#45;&gt;Node7</title>
<path fill="none" stroke="#63b8ff" d="M459.19,-66.12C453.76,-52.64 446.78,-35.3 442.61,-24.95"/>
<polygon fill="#63b8ff" stroke="#63b8ff" points="455.9,-67.33 462.89,-75.29 462.4,-64.71 455.9,-67.33"/>
</g>
<!-- Node8 -->
<g id="node8" class="node">
<title>Node8</title>
<g id="a_node8"><a xlink:href="d__meter2__draw_8cpp.html" target="_top" xlink:title=" ">
<polygon fill="white" stroke="#666666" points="628,-30 518,-30 518,0 628,0 628,-30"/>
<text text-anchor="start" x="526" y="-18" font-family="Helvetica,sans-Serif" font-size="10.00">src/d/meter/d_meter2</text>
<text text-anchor="middle" x="573" y="-7" font-family="Helvetica,sans-Serif" font-size="10.00">_draw.cpp</text>
</a>
</g>
</g>
<!-- Node2&#45;&gt;Node8 -->
<g id="edge7" class="edge">
<title>Node2&#45;&gt;Node8</title>
<path fill="none" stroke="#63b8ff" d="M489.96,-70.45C508.14,-58.53 533.36,-41.99 551.23,-30.27"/>
<polygon fill="#63b8ff" stroke="#63b8ff" points="488.13,-67.46 481.69,-75.87 491.97,-73.31 488.13,-67.46"/>
</g>
<!-- Node9 -->
<g id="node9" class="node">
<title>Node9</title>
<g id="a_node9"><a xlink:href="d__msg__flow_8cpp.html" target="_top" xlink:title=" ">
<polygon fill="white" stroke="#666666" points="916.5,-24.5 783.5,-24.5 783.5,-5.5 916.5,-5.5 916.5,-24.5"/>
<text text-anchor="middle" x="850" y="-12.5" font-family="Helvetica,sans-Serif" font-size="10.00">src/d/msg/d_msg_flow.cpp</text>
</a>
</g>
</g>
<!-- Node2&#45;&gt;Node9 -->
<g id="edge8" class="edge">
<title>Node2&#45;&gt;Node9</title>
<path fill="none" stroke="#63b8ff" d="M505.42,-73.36C514.71,-70.69 524.66,-68.05 534,-66 639.35,-42.88 667.61,-47.77 774,-30 783.26,-28.45 793.14,-26.7 802.61,-24.98"/>
<polygon fill="#63b8ff" stroke="#63b8ff" points="504.54,-69.97 495.94,-76.16 506.53,-76.68 504.54,-69.97"/>
</g>
<!-- Node10 -->
<g id="node10" class="node">
<title>Node10</title>
<g id="a_node10"><a xlink:href="f__op__actor_8cpp.html" target="_top" xlink:title=" ">
<polygon fill="white" stroke="#666666" points="765.5,-24.5 646.5,-24.5 646.5,-5.5 765.5,-5.5 765.5,-24.5"/>
<text text-anchor="middle" x="706" y="-12.5" font-family="Helvetica,sans-Serif" font-size="10.00">src/f_op/f_op_actor.cpp</text>
</a>
</g>
</g>
<!-- Node2&#45;&gt;Node10 -->
<g id="edge9" class="edge">
<title>Node2&#45;&gt;Node10</title>
<path fill="none" stroke="#63b8ff" d="M508.49,-73.42C516.93,-70.97 525.75,-68.4 534,-66 583.42,-51.63 640.83,-34.94 675.24,-24.94"/>
<polygon fill="#63b8ff" stroke="#63b8ff" points="507.76,-69.99 499.14,-76.14 509.72,-76.71 507.76,-69.99"/>
</g>
<!-- Node12 -->
<g id="node12" class="node">
<title>Node12</title>
<g id="a_node12"><a xlink:href="d__shop__system_8h.html" target="_top" xlink:title=" ">
<polygon fill="white" stroke="#666666" points="907,-101.5 793,-101.5 793,-71.5 907,-71.5 907,-101.5"/>
<text text-anchor="start" x="801" y="-89.5" font-family="Helvetica,sans-Serif" font-size="10.00">include/d/shop/d_shop</text>
<text text-anchor="middle" x="850" y="-78.5" font-family="Helvetica,sans-Serif" font-size="10.00">_system.h</text>
</a>
</g>
</g>
<!-- Node11&#45;&gt;Node12 -->
<g id="edge11" class="edge">
<title>Node11&#45;&gt;Node12</title>
<path fill="none" stroke="#63b8ff" d="M850,-136.89C850,-125.65 850,-111.91 850,-101.77"/>
<polygon fill="#63b8ff" stroke="#63b8ff" points="846.5,-136.68 850,-146.68 853.5,-136.68 846.5,-136.68"/>
</g>
<!-- Node14 -->
<g id="node14" class="node">
<title>Node14</title>
<g id="a_node14"><a xlink:href="d__a__npc__ash_8h.html" target="_top" xlink:title=" ">
<polygon fill="white" stroke="#666666" points="1071,-101.5 925,-101.5 925,-71.5 1071,-71.5 1071,-101.5"/>
<text text-anchor="start" x="933" y="-89.5" font-family="Helvetica,sans-Serif" font-size="10.00">include/rel/d/a/npc</text>
<text text-anchor="middle" x="998" y="-78.5" font-family="Helvetica,sans-Serif" font-size="10.00">/d_a_npc_ash/d_a_npc_ash.h</text>
</a>
</g>
</g>
<!-- Node11&#45;&gt;Node14 -->
<g id="edge14" class="edge">
<title>Node11&#45;&gt;Node14</title>
<path fill="none" stroke="#63b8ff" d="M879.18,-143.3C904.58,-131.37 941.3,-114.13 967.18,-101.97"/>
<polygon fill="#63b8ff" stroke="#63b8ff" points="877.98,-139.99 870.42,-147.41 880.95,-146.33 877.98,-139.99"/>
</g>
<!-- Node15 -->
<g id="node15" class="node">
<title>Node15</title>
<g id="a_node15"><a xlink:href="d__a__npc_8cpp.html" target="_top" xlink:title=" ">
<polygon fill="white" stroke="#666666" points="647,-96 543,-96 543,-77 647,-77 647,-96"/>
<text text-anchor="middle" x="595" y="-84" font-family="Helvetica,sans-Serif" font-size="10.00">src/d/a/d_a_npc.cpp</text>
</a>
</g>
</g>
<!-- Node11&#45;&gt;Node15 -->
<g id="edge15" class="edge">
<title>Node11&#45;&gt;Node15</title>
<path fill="none" stroke="#63b8ff" d="M801.51,-145.32C762.14,-135.64 705.27,-121.21 656,-107 644.78,-103.76 632.51,-99.9 621.92,-96.47"/>
<polygon fill="#63b8ff" stroke="#63b8ff" points="800.62,-148.7 811.17,-147.68 802.29,-141.91 800.62,-148.7"/>
</g>
<!-- Node16 -->
<g id="node16" class="node">
<title>Node16</title>
<g id="a_node16"><a xlink:href="d__meter2__info_8cpp.html" target="_top" xlink:title=" ">
<polygon fill="white" stroke="#666666" points="775,-101.5 665,-101.5 665,-71.5 775,-71.5 775,-101.5"/>
<text text-anchor="start" x="673" y="-89.5" font-family="Helvetica,sans-Serif" font-size="10.00">src/d/meter/d_meter2</text>
<text text-anchor="middle" x="720" y="-78.5" font-family="Helvetica,sans-Serif" font-size="10.00">_info.cpp</text>
</a>
</g>
</g>
<!-- Node11&#45;&gt;Node16 -->
<g id="edge16" class="edge">
<title>Node11&#45;&gt;Node16</title>
<path fill="none" stroke="#63b8ff" d="M823.17,-142.65C800.91,-130.75 769.4,-113.91 747.07,-101.97"/>
<polygon fill="#63b8ff" stroke="#63b8ff" points="821.47,-145.71 831.94,-147.34 824.77,-139.54 821.47,-145.71"/>
</g>
<!-- Node12&#45;&gt;Node9 -->
<g id="edge12" class="edge">
<title>Node12&#45;&gt;Node9</title>
<path fill="none" stroke="#63b8ff" d="M850,-59.96C850,-47.57 850,-33.49 850,-24.68"/>
<polygon fill="#63b8ff" stroke="#63b8ff" points="846.5,-59.59 850,-69.59 853.5,-59.59 846.5,-59.59"/>
</g>
<!-- Node13 -->
<g id="node13" class="node">
<title>Node13</title>
<g id="a_node13"><a xlink:href="d__shop__system_8cpp.html" target="_top" xlink:title=" ">
<polygon fill="white" stroke="#666666" points="1087,-24.5 935,-24.5 935,-5.5 1087,-5.5 1087,-24.5"/>
<text text-anchor="middle" x="1011" y="-12.5" font-family="Helvetica,sans-Serif" font-size="10.00">src/d/shop/d_shop_system.cpp</text>
</a>
</g>
</g>
<!-- Node12&#45;&gt;Node13 -->
<g id="edge13" class="edge">
<title>Node12&#45;&gt;Node13</title>
<path fill="none" stroke="#63b8ff" d="M893.63,-66.67C925.09,-53.08 966.15,-35.36 990.43,-24.88"/>
<polygon fill="#63b8ff" stroke="#63b8ff" points="892.54,-63.32 884.75,-70.5 895.32,-69.75 892.54,-63.32"/>
</g>
<!-- Node18 -->
<g id="node18" class="node">
<title>Node18</title>
<g id="a_node18"><a xlink:href="d__a__npc__cd_8cpp.html" target="_top" xlink:title=" ">
<polygon fill="white" stroke="#666666" points="1209,-96 1089,-96 1089,-77 1209,-77 1209,-96"/>
<text text-anchor="middle" x="1149" y="-84" font-family="Helvetica,sans-Serif" font-size="10.00">src/d/a/d_a_npc_cd.cpp</text>
</a>
</g>
</g>
<!-- Node17&#45;&gt;Node18 -->
<g id="edge18" class="edge">
<title>Node17&#45;&gt;Node18</title>
<path fill="none" stroke="#63b8ff" d="M1151.13,-136.8C1150.55,-123.44 1149.82,-106.59 1149.39,-96.45"/>
<polygon fill="#63b8ff" stroke="#63b8ff" points="1147.63,-136.85 1151.55,-146.69 1154.62,-136.54 1147.63,-136.85"/>
</g>
<!-- Node20 -->
<g id="node20" class="node">
<title>Node20</title>
<g id="a_node20"><a xlink:href="d__a__npc__cd2_8cpp.html" target="_top" xlink:title=" ">
<polygon fill="white" stroke="#666666" points="1352.5,-96 1227.5,-96 1227.5,-77 1352.5,-77 1352.5,-96"/>
<text text-anchor="middle" x="1290" y="-84" font-family="Helvetica,sans-Serif" font-size="10.00">src/d/a/d_a_npc_cd2.cpp</text>
</a>
</g>
</g>
<!-- Node19&#45;&gt;Node20 -->
<g id="edge20" class="edge">
<title>Node19&#45;&gt;Node20</title>
<path fill="none" stroke="#63b8ff" d="M1290,-131.46C1290,-119.07 1290,-104.99 1290,-96.18"/>
<polygon fill="#63b8ff" stroke="#63b8ff" points="1286.5,-131.09 1290,-141.09 1293.5,-131.09 1286.5,-131.09"/>
</g>
<!-- Node22 -->
<g id="node22" class="node">
<title>Node22</title>
<g id="a_node22"><a xlink:href="d__a__b__oh2_8h.html" target="_top" xlink:title=" ">
<polygon fill="white" stroke="#666666" points="1487,-101.5 1371,-101.5 1371,-71.5 1487,-71.5 1487,-101.5"/>
<text text-anchor="start" x="1379" y="-89.5" font-family="Helvetica,sans-Serif" font-size="10.00">include/rel/d/a/b/d</text>
<text text-anchor="middle" x="1429" y="-78.5" font-family="Helvetica,sans-Serif" font-size="10.00">_a_b_oh2/d_a_b_oh2.h</text>
</a>
</g>
</g>
<!-- Node21&#45;&gt;Node22 -->
<g id="edge22" class="edge">
<title>Node21&#45;&gt;Node22</title>
<path fill="none" stroke="#63b8ff" d="M1418.85,-131.58C1421.16,-121.58 1423.72,-110.45 1425.69,-101.88"/>
<polygon fill="#63b8ff" stroke="#63b8ff" points="1415.49,-130.59 1416.65,-141.12 1422.31,-132.16 1415.49,-130.59"/>
</g>
<!-- Node25&#45;&gt;Node3 -->
<g id="edge30" class="edge">
<title>Node25&#45;&gt;Node3</title>
<path fill="none" stroke="#63b8ff" d="M1854.47,-142.34C1872.57,-134.86 1890.35,-123.66 1901,-107 1917.65,-80.95 1902.17,-42.12 1893.7,-24.84"/>
<polygon fill="#63b8ff" stroke="#63b8ff" points="1853.39,-139.01 1845.25,-145.8 1855.84,-145.56 1853.39,-139.01"/>
</g>
<!-- Node26 -->
<g id="node26" class="node">
<title>Node26</title>
<g id="a_node26"><a xlink:href="d__a__e__wb_8h.html" target="_top" xlink:title=" ">
<polygon fill="white" stroke="#666666" points="2058,-101.5 1948,-101.5 1948,-71.5 2058,-71.5 2058,-101.5"/>
<text text-anchor="start" x="1956" y="-89.5" font-family="Helvetica,sans-Serif" font-size="10.00">include/rel/d/a/e/d</text>
<text text-anchor="middle" x="2003" y="-78.5" font-family="Helvetica,sans-Serif" font-size="10.00">_a_e_wb/d_a_e_wb.h</text>
</a>
</g>
</g>
<!-- Node25&#45;&gt;Node26 -->
<g id="edge26" class="edge">
<title>Node25&#45;&gt;Node26</title>
<path fill="none" stroke="#63b8ff" d="M1847.69,-138.9C1882.46,-127.39 1926.87,-112.69 1959.29,-101.97"/>
<polygon fill="#63b8ff" stroke="#63b8ff" points="1846.6,-135.57 1838.2,-142.04 1848.8,-142.22 1846.6,-135.57"/>
</g>
<!-- Node28 -->
<g id="node28" class="node">
<title>Node28</title>
<g id="a_node28"><a xlink:href="d__a__tag__hinit_8h.html" target="_top" xlink:title=" ">
<polygon fill="white" stroke="#666666" points="1620.5,-107 1505.5,-107 1505.5,-66 1620.5,-66 1620.5,-107"/>
<text text-anchor="start" x="1513.5" y="-95" font-family="Helvetica,sans-Serif" font-size="10.00">include/rel/d/a/tag</text>
<text text-anchor="start" x="1513.5" y="-84" font-family="Helvetica,sans-Serif" font-size="10.00">/d_a_tag_hinit/d_a_tag</text>
<text text-anchor="middle" x="1563" y="-73" font-family="Helvetica,sans-Serif" font-size="10.00">_hinit.h</text>
</a>
</g>
</g>
<!-- Node25&#45;&gt;Node28 -->
<g id="edge29" class="edge">
<title>Node25&#45;&gt;Node28</title>
<path fill="none" stroke="#63b8ff" d="M1734.09,-139.2C1699.24,-128.67 1655.28,-115.38 1620.64,-104.92"/>
<polygon fill="#63b8ff" stroke="#63b8ff" points="1733.03,-142.54 1743.62,-142.08 1735.06,-135.83 1733.03,-142.54"/>
</g>
<!-- Node29 -->
<g id="node29" class="node">
<title>Node29</title>
<g id="a_node29"><a xlink:href="d__bg__w_8cpp.html" target="_top" xlink:title=" ">
<polygon fill="white" stroke="#666666" points="1745.5,-96 1638.5,-96 1638.5,-77 1745.5,-77 1745.5,-96"/>
<text text-anchor="middle" x="1692" y="-84" font-family="Helvetica,sans-Serif" font-size="10.00">src/d/bg/d_bg_w.cpp</text>
</a>
</g>
</g>
<!-- Node25&#45;&gt;Node29 -->
<g id="edge31" class="edge">
<title>Node25&#45;&gt;Node29</title>
<path fill="none" stroke="#63b8ff" d="M1762.76,-136.19C1743.45,-122.91 1719.41,-106.36 1704.9,-96.38"/>
<polygon fill="#63b8ff" stroke="#63b8ff" points="1760.6,-138.96 1770.83,-141.74 1764.57,-133.19 1760.6,-138.96"/>
</g>
<!-- Node30 -->
<g id="node30" class="node">
<title>Node30</title>
<g id="a_node30"><a xlink:href="d__meter2_8cpp.html" target="_top" xlink:title=" ">
<polygon fill="white" stroke="#666666" points="1892,-96 1764,-96 1764,-77 1892,-77 1892,-96"/>
<text text-anchor="middle" x="1828" y="-84" font-family="Helvetica,sans-Serif" font-size="10.00">src/d/meter/d_meter2.cpp</text>
</a>
</g>
</g>
<!-- Node25&#45;&gt;Node30 -->
<g id="edge32" class="edge">
<title>Node25&#45;&gt;Node30</title>
<path fill="none" stroke="#63b8ff" d="M1805.28,-132.61C1811.66,-119.94 1819.05,-105.27 1823.63,-96.18"/>
<polygon fill="#63b8ff" stroke="#63b8ff" points="1802.3,-130.74 1800.93,-141.25 1808.56,-133.89 1802.3,-130.74"/>
</g>
<!-- Node26&#45;&gt;Node3 -->
<g id="edge27" class="edge">
<title>Node26&#45;&gt;Node3</title>
<path fill="none" stroke="#63b8ff" d="M1969.76,-65.24C1947.82,-51.86 1920.16,-35 1903.56,-24.88"/>
<polygon fill="#63b8ff" stroke="#63b8ff" points="1967.73,-68.09 1978.09,-70.31 1971.37,-62.12 1967.73,-68.09"/>
</g>
<!-- Node27 -->
<g id="node27" class="node">
<title>Node27</title>
<g id="a_node27"><a xlink:href="d__a__horse__static_8cpp.html" target="_top" xlink:title=" ">
<polygon fill="white" stroke="#666666" points="2104,-24.5 1962,-24.5 1962,-5.5 2104,-5.5 2104,-24.5"/>
<text text-anchor="middle" x="2033" y="-12.5" font-family="Helvetica,sans-Serif" font-size="10.00">src/d/a/d_a_horse_static.cpp</text>
</a>
</g>
</g>
<!-- Node26&#45;&gt;Node27 -->
<g id="edge28" class="edge">
<title>Node26&#45;&gt;Node27</title>
<path fill="none" stroke="#63b8ff" d="M2013.69,-60.73C2019.12,-48.15 2025.37,-33.67 2029.25,-24.68"/>
<polygon fill="#63b8ff" stroke="#63b8ff" points="2010.57,-59.14 2009.82,-69.71 2016.99,-61.92 2010.57,-59.14"/>
</g>
<!-- Node33 -->
<g id="node33" class="node">
<title>Node33</title>
<g id="a_node33"><a xlink:href="d__a__e__ym__tag_8h.html" target="_top" xlink:title=" ">
<polygon fill="white" stroke="#666666" points="2224,-101.5 2076,-101.5 2076,-71.5 2224,-71.5 2224,-101.5"/>
<text text-anchor="start" x="2084" y="-89.5" font-family="Helvetica,sans-Serif" font-size="10.00">include/rel/d/a/e/d</text>
<text text-anchor="middle" x="2150" y="-78.5" font-family="Helvetica,sans-Serif" font-size="10.00">_a_e_ym_tag/d_a_e_ym_tag.h</text>
</a>
</g>
</g>
<!-- Node32&#45;&gt;Node33 -->
<g id="edge35" class="edge">
<title>Node32&#45;&gt;Node33</title>
<path fill="none" stroke="#63b8ff" d="M2071.45,-136.68C2089.28,-125.52 2110.96,-111.94 2127.03,-101.88"/>
<polygon fill="#63b8ff" stroke="#63b8ff" points="2069.9,-133.52 2063.28,-141.8 2073.62,-139.46 2069.9,-133.52"/>
</g>
</g>
</svg>
