<?xml version="1.0" encoding="UTF-8" standalone="no"?>
<!DOCTYPE svg PUBLIC "-//W3C//DTD SVG 1.1//EN"
 "http://www.w3.org/Graphics/SVG/1.1/DTD/svg11.dtd">
<!-- Generated by graphviz version 7.0.5 (20221223.1930)
 -->
<!-- Title: libs/Z2AudioLib/Z2SeMgr.cpp Pages: 1 -->
<!--zoomable 544 -->
<svg id="main" version="1.1" xmlns="http://www.w3.org/2000/svg" xmlns:xlink="http://www.w3.org/1999/xlink" xml:space="preserve" onload="init(evt)">
<style type="text/css"><![CDATA[
.edge:hover path { stroke: red; }
.edge:hover polygon { stroke: red; fill: red; }
]]></style>
<script type="text/javascript"><![CDATA[
var edges = document.getElementsByTagName('g');
if (edges && edges.length) {
  for (var i=0;i<edges.length;i++) {
    if (edges[i].id.substr(0,4)=='edge') {
      edges[i].setAttribute('class','edge');
    }
  }
}
]]></script>
        <defs>
                <circle id="rim" cx="0" cy="0" r="7"/>
                <circle id="rim2" cx="0" cy="0" r="3.5"/>
                <g id="zoomPlus">
                        <use xlink:href="#rim" fill="#404040">
                                <set attributeName="fill" to="#808080" begin="zoomplus.mouseover" end="zoomplus.mouseout"/>
                        </use>
                        <path d="M-4,0h8M0,-4v8" fill="none" stroke="white" stroke-width="1.5" pointer-events="none"/>
                </g>
                <g id="zoomMin">
                        <use xlink:href="#rim" fill="#404040">
                                <set attributeName="fill" to="#808080" begin="zoomminus.mouseover" end="zoomminus.mouseout"/>
                        </use>
                        <path d="M-4,0h8" fill="none" stroke="white" stroke-width="1.5" pointer-events="none"/>
                </g>
                <g id="dirArrow">
                        <path fill="none" stroke="white" stroke-width="1.5" d="M0,-3.0v7 M-2.5,-0.5L0,-3.0L2.5,-0.5"/>
                </g>
               <g id="resetDef">
                       <use xlink:href="#rim2" fill="#404040">
                               <set attributeName="fill" to="#808080" begin="reset.mouseover" end="reset.mouseout"/>
                       </use>
               </g>
        </defs>

<script type="text/javascript">
var viewWidth = 4175;
var viewHeight = 544;
var sectionId = 'dynsection-0';
</script>
<script xlink:href="svgpan.js"/>
<svg id="graph" class="graph">
<g id="viewport">
<title>libs/Z2AudioLib/Z2SeMgr.cpp</title>
<!-- Node1 -->
<g id="node1" class="node">
<title>Node1</title>
<g id="a_node1"><a xlink:title=" ">
<polygon fill="#999999" stroke="#666666" points="2229.5,-536 2084.5,-536 2084.5,-517 2229.5,-517 2229.5,-536"/>
<text text-anchor="middle" x="2157" y="-524" font-family="Helvetica,sans-Serif" font-size="10.00">libs/Z2AudioLib/Z2SeMgr.cpp</text>
</a>
</g>
</g>
<!-- Node2 -->
<g id="node2" class="node">
<title>Node2</title>
<g id="a_node2"><a xlink:href="Z2SeMgr_8h.html" target="_top" xlink:title=" ">
<polygon fill="white" stroke="#666666" points="487,-470 371,-470 371,-451 487,-451 487,-470"/>
<text text-anchor="middle" x="429" y="-458" font-family="Helvetica,sans-Serif" font-size="10.00">Z2AudioLib/Z2SeMgr.h</text>
</a>
</g>
</g>
<!-- Node1&#45;&gt;Node2 -->
<g id="edge1" class="edge">
<title>Node1&#45;&gt;Node2</title>
<path fill="none" stroke="#63b8ff" d="M2084.13,-525.69C1861.12,-525.79 1168.25,-522.49 596,-481 563.86,-478.67 528.38,-474.72 498.43,-470.99"/>
<polygon fill="#63b8ff" stroke="#63b8ff" points="499.09,-467.54 488.73,-469.76 498.21,-474.49 499.09,-467.54"/>
</g>
<!-- Node16 -->
<g id="node16" class="node">
<title>Node16</title>
<g id="a_node16"><a xlink:href="global_8h.html" target="_top" xlink:title=" ">
<polygon fill="white" stroke="#666666" points="423,-277.5 373,-277.5 373,-258.5 423,-258.5 423,-277.5"/>
<text text-anchor="middle" x="398" y="-265.5" font-family="Helvetica,sans-Serif" font-size="10.00">global.h</text>
</a>
</g>
</g>
<!-- Node1&#45;&gt;Node16 -->
<g id="edge25" class="edge">
<title>Node1&#45;&gt;Node16</title>
<path fill="none" stroke="#63b8ff" d="M2084.13,-525.82C1787.9,-526.79 687,-527.27 630,-481 572.5,-434.33 643.69,-371.05 591,-319 539.76,-268.38 501.76,-304.44 433,-283 431.84,-282.64 430.67,-282.26 429.49,-281.86"/>
<polygon fill="#63b8ff" stroke="#63b8ff" points="430.92,-278.66 420.33,-278.5 428.51,-285.23 430.92,-278.66"/>
</g>
<!-- Node19 -->
<g id="node19" class="node">
<title>Node19</title>
<g id="a_node19"><a xlink:href="dol2asm_8h.html" target="_top" xlink:title=" ">
<polygon fill="white" stroke="#666666" points="699.5,-470 638.5,-470 638.5,-451 699.5,-451 699.5,-470"/>
<text text-anchor="middle" x="669" y="-458" font-family="Helvetica,sans-Serif" font-size="10.00">dol2asm.h</text>
</a>
</g>
</g>
<!-- Node1&#45;&gt;Node19 -->
<g id="edge24" class="edge">
<title>Node1&#45;&gt;Node19</title>
<path fill="none" stroke="#63b8ff" d="M2084.32,-525.06C1809.53,-523.13 842.84,-514.06 709,-481 703.88,-479.74 698.65,-477.76 693.73,-475.54"/>
<polygon fill="#63b8ff" stroke="#63b8ff" points="695.49,-472.51 684.98,-471.16 692.35,-478.77 695.49,-472.51"/>
</g>
<!-- Node20 -->
<g id="node20" class="node">
<title>Node20</title>
<g id="a_node20"><a xlink:title=" ">
<polygon fill="#e0e0e0" stroke="#999999" points="848.5,-475.5 717.5,-475.5 717.5,-445.5 848.5,-445.5 848.5,-475.5"/>
<text text-anchor="start" x="725.5" y="-463.5" font-family="Helvetica,sans-Serif" font-size="10.00">asm/Z2AudioLib/Z2SeMgr</text>
<text text-anchor="middle" x="783" y="-452.5" font-family="Helvetica,sans-Serif" font-size="10.00">/initSe__7Z2SeMgrFv.s</text>
</a>
</g>
</g>
<!-- Node1&#45;&gt;Node20 -->
<g id="edge26" class="edge">
<title>Node1&#45;&gt;Node20</title>
<path fill="none" stroke="#63b8ff" d="M2084.12,-525.11C1846.75,-523.52 1097.36,-515.78 858,-481 853.15,-480.3 848.16,-479.4 843.18,-478.37"/>
<polygon fill="#63b8ff" stroke="#63b8ff" points="844.31,-475.04 833.78,-476.29 842.79,-481.87 844.31,-475.04"/>
</g>
<!-- Node21 -->
<g id="node21" class="node">
<title>Node21</title>
<g id="a_node21"><a xlink:title=" ">
<polygon fill="#e0e0e0" stroke="#999999" points="1033,-481 867,-481 867,-440 1033,-440 1033,-481"/>
<text text-anchor="start" x="875" y="-469" font-family="Helvetica,sans-Serif" font-size="10.00">asm/Z2AudioLib/Z2SeMgr</text>
<text text-anchor="start" x="875" y="-458" font-family="Helvetica,sans-Serif" font-size="10.00">/modHeightAtCamera__7Z2SeMgr</text>
<text text-anchor="middle" x="950" y="-447" font-family="Helvetica,sans-Serif" font-size="10.00">FPPC3Vec.s</text>
</a>
</g>
</g>
<!-- Node1&#45;&gt;Node21 -->
<g id="edge27" class="edge">
<title>Node1&#45;&gt;Node21</title>
<path fill="none" stroke="#63b8ff" d="M2084.17,-524.2C1873.68,-520.2 1265.94,-506.81 1044.34,-481.13"/>
<polygon fill="#63b8ff" stroke="#63b8ff" points="1044.99,-477.68 1034.64,-479.96 1044.15,-484.63 1044.99,-477.68"/>
</g>
<!-- Node22 -->
<g id="node22" class="node">
<title>Node22</title>
<g id="a_node22"><a xlink:title=" ">
<polygon fill="#e0e0e0" stroke="#999999" points="1217,-481 1051,-481 1051,-440 1217,-440 1217,-481"/>
<text text-anchor="start" x="1059" y="-469" font-family="Helvetica,sans-Serif" font-size="10.00">asm/Z2AudioLib/Z2SeMgr</text>
<text text-anchor="start" x="1059" y="-458" font-family="Helvetica,sans-Serif" font-size="10.00">/seStart__7Z2SeMgrF10JAISound</text>
<text text-anchor="middle" x="1134" y="-447" font-family="Helvetica,sans-Serif" font-size="10.00">IDPC3VecUlScffffUc.s</text>
</a>
</g>
</g>
<!-- Node1&#45;&gt;Node22 -->
<g id="edge28" class="edge">
<title>Node1&#45;&gt;Node22</title>
<path fill="none" stroke="#63b8ff" d="M2084.22,-526C1928.68,-526.2 1552.34,-522.09 1228.17,-481.16"/>
<polygon fill="#63b8ff" stroke="#63b8ff" points="1229.01,-477.74 1218.64,-479.94 1228.12,-484.68 1229.01,-477.74"/>
</g>
<!-- Node23 -->
<g id="node23" class="node">
<title>Node23</title>
<g id="a_node23"><a xlink:title=" ">
<polygon fill="#e0e0e0" stroke="#999999" points="1425,-481 1235,-481 1235,-440 1425,-440 1425,-481"/>
<text text-anchor="start" x="1243" y="-469" font-family="Helvetica,sans-Serif" font-size="10.00">asm/Z2AudioLib/Z2SeMgr</text>
<text text-anchor="start" x="1243" y="-458" font-family="Helvetica,sans-Serif" font-size="10.00">/seStartLevel__7Z2SeMgrF10JAISound</text>
<text text-anchor="middle" x="1330" y="-447" font-family="Helvetica,sans-Serif" font-size="10.00">IDPC3VecUlScffffUc.s</text>
</a>
</g>
</g>
<!-- Node1&#45;&gt;Node23 -->
<g id="edge29" class="edge">
<title>Node1&#45;&gt;Node23</title>
<path fill="none" stroke="#63b8ff" d="M2084.23,-523.95C1955.68,-520.57 1679.87,-510.43 1436.68,-481.11"/>
<polygon fill="#63b8ff" stroke="#63b8ff" points="1437.35,-477.67 1426.99,-479.93 1436.5,-484.61 1437.35,-477.67"/>
</g>
<!-- Node24 -->
<g id="node24" class="node">
<title>Node24</title>
<g id="a_node24"><a xlink:title=" ">
<polygon fill="#e0e0e0" stroke="#999999" points="1608.5,-481 1443.5,-481 1443.5,-440 1608.5,-440 1608.5,-481"/>
<text text-anchor="start" x="1451.5" y="-469" font-family="Helvetica,sans-Serif" font-size="10.00">asm/Z2AudioLib/Z2SeMgr</text>
<text text-anchor="start" x="1451.5" y="-458" font-family="Helvetica,sans-Serif" font-size="10.00">/seStop__7Z2SeMgrF10JAISound</text>
<text text-anchor="middle" x="1526" y="-447" font-family="Helvetica,sans-Serif" font-size="10.00">IDUl.s</text>
</a>
</g>
</g>
<!-- Node1&#45;&gt;Node24 -->
<g id="edge30" class="edge">
<title>Node1&#45;&gt;Node24</title>
<path fill="none" stroke="#63b8ff" d="M2084.31,-522.42C1982.69,-517.47 1792.23,-505.83 1619.98,-481.18"/>
<polygon fill="#63b8ff" stroke="#63b8ff" points="1620.56,-477.73 1610.16,-479.75 1619.55,-484.65 1620.56,-477.73"/>
</g>
<!-- Node25 -->
<g id="node25" class="node">
<title>Node25</title>
<g id="a_node25"><a xlink:title=" ">
<polygon fill="#e0e0e0" stroke="#999999" points="1767,-475.5 1627,-475.5 1627,-445.5 1767,-445.5 1767,-475.5"/>
<text text-anchor="start" x="1635" y="-463.5" font-family="Helvetica,sans-Serif" font-size="10.00">asm/Z2AudioLib/Z2SeMgr</text>
<text text-anchor="middle" x="1697" y="-452.5" font-family="Helvetica,sans-Serif" font-size="10.00">/seStopAll__7Z2SeMgrFUl.s</text>
</a>
</g>
</g>
<!-- Node1&#45;&gt;Node25 -->
<g id="edge31" class="edge">
<title>Node1&#45;&gt;Node25</title>
<path fill="none" stroke="#63b8ff" d="M2084.27,-519.74C2007.3,-513.02 1882.49,-500.28 1776,-481 1771.67,-480.22 1767.22,-479.33 1762.74,-478.39"/>
<polygon fill="#63b8ff" stroke="#63b8ff" points="1763.63,-475 1753.11,-476.26 1762.12,-481.83 1763.63,-475"/>
</g>
<!-- Node26 -->
<g id="node26" class="node">
<title>Node26</title>
<g id="a_node26"><a xlink:title=" ">
<polygon fill="#e0e0e0" stroke="#999999" points="1965,-475.5 1785,-475.5 1785,-445.5 1965,-445.5 1965,-475.5"/>
<text text-anchor="start" x="1793" y="-463.5" font-family="Helvetica,sans-Serif" font-size="10.00">asm/Z2AudioLib/Z2SeMgr</text>
<text text-anchor="middle" x="1875" y="-452.5" font-family="Helvetica,sans-Serif" font-size="10.00">/seMoveVolumeAll__7Z2SeMgrFfUl.s</text>
</a>
</g>
</g>
<!-- Node1&#45;&gt;Node26 -->
<g id="edge32" class="edge">
<title>Node1&#45;&gt;Node26</title>
<path fill="none" stroke="#63b8ff" d="M2117.49,-516.53C2074.19,-506.71 2003.71,-490.71 1949.87,-478.49"/>
<polygon fill="#63b8ff" stroke="#63b8ff" points="1950.65,-475.08 1940.13,-476.28 1949.1,-481.91 1950.65,-475.08"/>
</g>
<!-- Node27 -->
<g id="node27" class="node">
<title>Node27</title>
<g id="a_node27"><a xlink:title=" ">
<polygon fill="#e0e0e0" stroke="#999999" points="2159,-481 1983,-481 1983,-440 2159,-440 2159,-481"/>
<text text-anchor="start" x="1991" y="-469" font-family="Helvetica,sans-Serif" font-size="10.00">asm/Z2AudioLib/Z2SeMgr</text>
<text text-anchor="start" x="1991" y="-458" font-family="Helvetica,sans-Serif" font-size="10.00">/messageSePlay__7Z2SeMgrFUsP3</text>
<text text-anchor="middle" x="2071" y="-447" font-family="Helvetica,sans-Serif" font-size="10.00">VecSc.s</text>
</a>
</g>
</g>
<!-- Node1&#45;&gt;Node27 -->
<g id="edge33" class="edge">
<title>Node1&#45;&gt;Node27</title>
<path fill="none" stroke="#63b8ff" d="M2145.04,-516.6C2135.14,-509.23 2120.54,-498.37 2106.92,-488.23"/>
<polygon fill="#63b8ff" stroke="#63b8ff" points="2109.04,-485.44 2098.92,-482.28 2104.86,-491.06 2109.04,-485.44"/>
</g>
<!-- Node28 -->
<g id="node28" class="node">
<title>Node28</title>
<g id="a_node28"><a xlink:title=" ">
<polygon fill="#e0e0e0" stroke="#999999" points="2308.5,-475.5 2177.5,-475.5 2177.5,-445.5 2308.5,-445.5 2308.5,-475.5"/>
<text text-anchor="start" x="2185.5" y="-463.5" font-family="Helvetica,sans-Serif" font-size="10.00">asm/Z2AudioLib/Z2SeMgr</text>
<text text-anchor="middle" x="2243" y="-452.5" font-family="Helvetica,sans-Serif" font-size="10.00">/talkInSe__7Z2SeMgrFv.s</text>
</a>
</g>
</g>
<!-- Node1&#45;&gt;Node28 -->
<g id="edge34" class="edge">
<title>Node1&#45;&gt;Node28</title>
<path fill="none" stroke="#63b8ff" d="M2168.96,-516.6C2180.65,-507.9 2198.91,-494.31 2214.37,-482.81"/>
<polygon fill="#63b8ff" stroke="#63b8ff" points="2216.4,-485.66 2222.33,-476.88 2212.22,-480.04 2216.4,-485.66"/>
</g>
<!-- Node29 -->
<g id="node29" class="node">
<title>Node29</title>
<g id="a_node29"><a xlink:title=" ">
<polygon fill="#e0e0e0" stroke="#999999" points="2463.5,-475.5 2326.5,-475.5 2326.5,-445.5 2463.5,-445.5 2463.5,-475.5"/>
<text text-anchor="start" x="2334.5" y="-463.5" font-family="Helvetica,sans-Serif" font-size="10.00">asm/Z2AudioLib/Z2SeMgr</text>
<text text-anchor="middle" x="2395" y="-452.5" font-family="Helvetica,sans-Serif" font-size="10.00">/talkOutSe__7Z2SeMgrFv.s</text>
</a>
</g>
</g>
<!-- Node1&#45;&gt;Node29 -->
<g id="edge35" class="edge">
<title>Node1&#45;&gt;Node29</title>
<path fill="none" stroke="#63b8ff" d="M2190.34,-516.53C2226.51,-506.81 2285.13,-491.05 2330.38,-478.88"/>
<polygon fill="#63b8ff" stroke="#63b8ff" points="2331.07,-482.32 2339.82,-476.34 2329.25,-475.56 2331.07,-482.32"/>
</g>
<!-- Node30 -->
<g id="node30" class="node">
<title>Node30</title>
<g id="a_node30"><a xlink:title=" ">
<polygon fill="#e0e0e0" stroke="#999999" points="2620,-475.5 2482,-475.5 2482,-445.5 2620,-445.5 2620,-475.5"/>
<text text-anchor="start" x="2490" y="-463.5" font-family="Helvetica,sans-Serif" font-size="10.00">asm/Z2AudioLib/Z2SeMgr</text>
<text text-anchor="middle" x="2551" y="-452.5" font-family="Helvetica,sans-Serif" font-size="10.00">/menuInSe__7Z2SeMgrFv.s</text>
</a>
</g>
</g>
<!-- Node1&#45;&gt;Node30 -->
<g id="edge36" class="edge">
<title>Node1&#45;&gt;Node30</title>
<path fill="none" stroke="#63b8ff" d="M2229.84,-517.45C2294.12,-509.82 2390.21,-497.13 2473,-481 2477,-480.22 2481.11,-479.36 2485.24,-478.46"/>
<polygon fill="#63b8ff" stroke="#63b8ff" points="2485.74,-481.94 2494.71,-476.31 2484.19,-475.11 2485.74,-481.94"/>
</g>
<!-- Node31 -->
<g id="node31" class="node">
<title>Node31</title>
<g id="a_node31"><a xlink:title=" ">
<polygon fill="#e0e0e0" stroke="#999999" points="2835.5,-475.5 2638.5,-475.5 2638.5,-445.5 2835.5,-445.5 2835.5,-475.5"/>
<text text-anchor="start" x="2646.5" y="-463.5" font-family="Helvetica,sans-Serif" font-size="10.00">asm/Z2AudioLib/Z2SeMgr</text>
<text text-anchor="middle" x="2737" y="-452.5" font-family="Helvetica,sans-Serif" font-size="10.00">/setLevObjSE__7Z2SeMgrFUlP3VecSc.s</text>
</a>
</g>
</g>
<!-- Node1&#45;&gt;Node31 -->
<g id="edge37" class="edge">
<title>Node1&#45;&gt;Node31</title>
<path fill="none" stroke="#63b8ff" d="M2229.99,-520.54C2322.93,-513.79 2488.34,-500.29 2629,-481 2635.94,-480.05 2643.11,-478.97 2650.3,-477.82"/>
<polygon fill="#63b8ff" stroke="#63b8ff" points="2650.81,-481.28 2660.11,-476.2 2649.67,-474.37 2650.81,-481.28"/>
</g>
<!-- Node32 -->
<g id="node32" class="node">
<title>Node32</title>
<g id="a_node32"><a xlink:title=" ">
<polygon fill="#e0e0e0" stroke="#999999" points="3006,-481 2854,-481 2854,-440 3006,-440 3006,-481"/>
<text text-anchor="start" x="2862" y="-469" font-family="Helvetica,sans-Serif" font-size="10.00">asm/Z2AudioLib/Z2SeMgr</text>
<text text-anchor="start" x="2862" y="-458" font-family="Helvetica,sans-Serif" font-size="10.00">/setMultiTriggerSE__7Z2SeMgr</text>
<text text-anchor="middle" x="2930" y="-447" font-family="Helvetica,sans-Serif" font-size="10.00">FUlP3VecSc.s</text>
</a>
</g>
</g>
<!-- Node1&#45;&gt;Node32 -->
<g id="edge38" class="edge">
<title>Node1&#45;&gt;Node32</title>
<path fill="none" stroke="#63b8ff" d="M2229.96,-524.63C2353.99,-522.3 2613.94,-513.78 2842.45,-481.24"/>
<polygon fill="#63b8ff" stroke="#63b8ff" points="2842.76,-484.73 2852.16,-479.84 2841.76,-477.81 2842.76,-484.73"/>
</g>
<!-- Node33 -->
<g id="node33" class="node">
<title>Node33</title>
<g id="a_node33"><a xlink:title=" ">
<polygon fill="#e0e0e0" stroke="#999999" points="3213.5,-475.5 3024.5,-475.5 3024.5,-445.5 3213.5,-445.5 3213.5,-475.5"/>
<text text-anchor="start" x="3032.5" y="-463.5" font-family="Helvetica,sans-Serif" font-size="10.00">asm/Z2AudioLib/Z2SeMgr</text>
<text text-anchor="middle" x="3119" y="-452.5" font-family="Helvetica,sans-Serif" font-size="10.00">/processSeFramework__7Z2SeMgrFv.s</text>
</a>
</g>
</g>
<!-- Node1&#45;&gt;Node33 -->
<g id="edge39" class="edge">
<title>Node1&#45;&gt;Node33</title>
<path fill="none" stroke="#63b8ff" d="M2229.88,-525C2378.2,-523.25 2725.63,-515.48 3015,-481 3022.35,-480.12 3029.97,-479.04 3037.58,-477.84"/>
<polygon fill="#63b8ff" stroke="#63b8ff" points="3037.92,-481.33 3047.21,-476.24 3036.78,-474.42 3037.92,-481.33"/>
</g>
<!-- Node34 -->
<g id="node34" class="node">
<title>Node34</title>
<g id="a_node34"><a xlink:title=" ">
<polygon fill="#e0e0e0" stroke="#999999" points="3426.5,-475.5 3231.5,-475.5 3231.5,-445.5 3426.5,-445.5 3426.5,-475.5"/>
<text text-anchor="start" x="3239.5" y="-463.5" font-family="Helvetica,sans-Serif" font-size="10.00">asm/Z2AudioLib/Z2SeMgr</text>
<text text-anchor="middle" x="3329" y="-452.5" font-family="Helvetica,sans-Serif" font-size="10.00">/isLevelSe__7Z2SeMgrF10JAISoundID.s</text>
</a>
</g>
</g>
<!-- Node1&#45;&gt;Node34 -->
<g id="edge40" class="edge">
<title>Node1&#45;&gt;Node34</title>
<path fill="none" stroke="#63b8ff" d="M2229.97,-525.97C2402.98,-526.32 2851.4,-522.73 3223,-481 3230.71,-480.13 3238.7,-479.04 3246.68,-477.81"/>
<polygon fill="#63b8ff" stroke="#63b8ff" points="3247.12,-481.28 3256.44,-476.23 3246.01,-474.37 3247.12,-481.28"/>
</g>
<!-- Node35 -->
<g id="node35" class="node">
<title>Node35</title>
<g id="a_node35"><a xlink:title=" ">
<polygon fill="#e0e0e0" stroke="#999999" points="3601,-481 3445,-481 3445,-440 3601,-440 3601,-481"/>
<text text-anchor="start" x="3453" y="-469" font-family="Helvetica,sans-Serif" font-size="10.00">asm/Z2AudioLib/Z2SeMgr</text>
<text text-anchor="start" x="3453" y="-458" font-family="Helvetica,sans-Serif" font-size="10.00">/isSoundCulling__7Z2SeMgrF10</text>
<text text-anchor="middle" x="3523" y="-447" font-family="Helvetica,sans-Serif" font-size="10.00">JAISoundID.s</text>
</a>
</g>
</g>
<!-- Node1&#45;&gt;Node35 -->
<g id="edge41" class="edge">
<title>Node1&#45;&gt;Node35</title>
<path fill="none" stroke="#63b8ff" d="M2229.94,-524.74C2461.43,-522.07 3178.76,-511.58 3433.8,-481.1"/>
<polygon fill="#63b8ff" stroke="#63b8ff" points="3433.87,-484.62 3443.36,-479.92 3433.01,-477.67 3433.87,-484.62"/>
</g>
<!-- Node36 -->
<g id="node36" class="node">
<title>Node36</title>
<g id="a_node36"><a xlink:title=" ">
<polygon fill="#e0e0e0" stroke="#999999" points="3766.5,-481 3619.5,-481 3619.5,-440 3766.5,-440 3766.5,-481"/>
<text text-anchor="start" x="3627.5" y="-469" font-family="Helvetica,sans-Serif" font-size="10.00">asm/Z2AudioLib/Z2SeMgr</text>
<text text-anchor="start" x="3627.5" y="-458" font-family="Helvetica,sans-Serif" font-size="10.00">/registMultiSePos__12Z2Multi</text>
<text text-anchor="middle" x="3693" y="-447" font-family="Helvetica,sans-Serif" font-size="10.00">SeMgrFP3Vec.s</text>
</a>
</g>
</g>
<!-- Node1&#45;&gt;Node36 -->
<g id="edge42" class="edge">
<title>Node1&#45;&gt;Node36</title>
<path fill="none" stroke="#63b8ff" d="M2229.87,-525.2C2481.87,-523.85 3316.42,-516.83 3607.98,-481.05"/>
<polygon fill="#63b8ff" stroke="#63b8ff" points="3608.4,-484.53 3617.87,-479.79 3607.51,-477.59 3608.4,-484.53"/>
</g>
<!-- Node37 -->
<g id="node37" class="node">
<title>Node37</title>
<g id="a_node37"><a xlink:title=" ">
<polygon fill="#e0e0e0" stroke="#999999" points="3963.5,-475.5 3784.5,-475.5 3784.5,-445.5 3963.5,-445.5 3963.5,-475.5"/>
<text text-anchor="start" x="3792.5" y="-463.5" font-family="Helvetica,sans-Serif" font-size="10.00">asm/Z2AudioLib/Z2SeMgr</text>
<text text-anchor="middle" x="3874" y="-452.5" font-family="Helvetica,sans-Serif" font-size="10.00">/getPanPower__12Z2MultiSeMgrFv.s</text>
</a>
</g>
</g>
<!-- Node1&#45;&gt;Node37 -->
<g id="edge43" class="edge">
<title>Node1&#45;&gt;Node37</title>
<path fill="none" stroke="#63b8ff" d="M2229.98,-525.13C2503.83,-523.5 3470.21,-515.38 3776,-481 3783.21,-480.19 3790.68,-479.12 3798.14,-477.91"/>
<polygon fill="#63b8ff" stroke="#63b8ff" points="3798.65,-481.37 3807.91,-476.21 3797.46,-474.47 3798.65,-481.37"/>
</g>
<!-- Node38 -->
<g id="node38" class="node">
<title>Node38</title>
<g id="a_node38"><a xlink:title=" ">
<polygon fill="#e0e0e0" stroke="#999999" points="4166.5,-475.5 3981.5,-475.5 3981.5,-445.5 4166.5,-445.5 4166.5,-475.5"/>
<text text-anchor="start" x="3989.5" y="-463.5" font-family="Helvetica,sans-Serif" font-size="10.00">asm/Z2AudioLib/Z2SeMgr</text>
<text text-anchor="middle" x="4074" y="-452.5" font-family="Helvetica,sans-Serif" font-size="10.00">/getDolbyPower__12Z2MultiSeMgrFv.s</text>
</a>
</g>
</g>
<!-- Node1&#45;&gt;Node38 -->
<g id="edge44" class="edge">
<title>Node1&#45;&gt;Node38</title>
<path fill="none" stroke="#63b8ff" d="M2229.62,-525.33C2523.63,-524.4 3626.33,-518.45 3973,-481 3980.52,-480.19 3988.31,-479.11 3996.08,-477.88"/>
<polygon fill="#63b8ff" stroke="#63b8ff" points="3996.64,-481.34 4005.92,-476.23 3995.48,-474.43 3996.64,-481.34"/>
</g>
<!-- Node3 -->
<g id="node3" class="node">
<title>Node3</title>
<g id="a_node3"><a xlink:href="JAISoundHandles_8h.html" target="_top" xlink:title=" ">
<polygon fill="white" stroke="#666666" points="580.5,-404 441.5,-404 441.5,-374 580.5,-374 580.5,-404"/>
<text text-anchor="start" x="449.5" y="-392" font-family="Helvetica,sans-Serif" font-size="10.00">JSystem/JAudio2/JAISound</text>
<text text-anchor="middle" x="511" y="-381" font-family="Helvetica,sans-Serif" font-size="10.00">Handles.h</text>
</a>
</g>
</g>
<!-- Node2&#45;&gt;Node3 -->
<g id="edge2" class="edge">
<title>Node2&#45;&gt;Node3</title>
<path fill="none" stroke="#63b8ff" d="M439.39,-450.7C450.91,-440.93 469.94,-424.8 485.49,-411.62"/>
<polygon fill="#63b8ff" stroke="#63b8ff" points="487.64,-414.39 493,-405.25 483.11,-409.05 487.64,-414.39"/>
</g>
<!-- Node11 -->
<g id="node11" class="node">
<title>Node11</title>
<g id="a_node11"><a xlink:href="vec_8h.html" target="_top" xlink:title=" ">
<polygon fill="white" stroke="#666666" points="288,-151 196,-151 196,-132 288,-132 288,-151"/>
<text text-anchor="middle" x="242" y="-139" font-family="Helvetica,sans-Serif" font-size="10.00">dolphin/mtx/vec.h</text>
</a>
</g>
</g>
<!-- Node2&#45;&gt;Node11 -->
<g id="edge23" class="edge">
<title>Node2&#45;&gt;Node11</title>
<path fill="none" stroke="#63b8ff" d="M370.5,-454.44C333.91,-448.23 288.47,-434.46 260,-404 236.67,-379.03 241,-363.67 241,-329.5 241,-329.5 241,-329.5 241,-267 241,-230.17 241.44,-187.22 241.74,-162.61"/>
<polygon fill="#63b8ff" stroke="#63b8ff" points="245.24,-162.81 241.86,-152.77 238.24,-162.72 245.24,-162.81"/>
</g>
<!-- Node18 -->
<g id="node18" class="node">
<title>Node18</title>
<g id="a_node18"><a xlink:href="JASGadget_8h.html" target="_top" xlink:title=" ">
<polygon fill="white" stroke="#666666" points="423,-398.5 269,-398.5 269,-379.5 423,-379.5 423,-398.5"/>
<text text-anchor="middle" x="346" y="-386.5" font-family="Helvetica,sans-Serif" font-size="10.00">JSystem/JAudio2/JASGadget.h</text>
</a>
</g>
</g>
<!-- Node2&#45;&gt;Node18 -->
<g id="edge21" class="edge">
<title>Node2&#45;&gt;Node18</title>
<path fill="none" stroke="#63b8ff" d="M418.49,-450.7C405.09,-439.48 381.68,-419.88 365.1,-405.99"/>
<polygon fill="#63b8ff" stroke="#63b8ff" points="367.76,-403.66 357.85,-399.92 363.27,-409.03 367.76,-403.66"/>
</g>
<!-- Node4 -->
<g id="node4" class="node">
<title>Node4</title>
<g id="a_node4"><a xlink:href="JAISound_8h.html" target="_top" xlink:title=" ">
<polygon fill="white" stroke="#666666" points="582,-338 436,-338 436,-319 582,-319 582,-338"/>
<text text-anchor="middle" x="509" y="-326" font-family="Helvetica,sans-Serif" font-size="10.00">JSystem/JAudio2/JAISound.h</text>
</a>
</g>
</g>
<!-- Node3&#45;&gt;Node4 -->
<g id="edge3" class="edge">
<title>Node3&#45;&gt;Node4</title>
<path fill="none" stroke="#63b8ff" d="M510.51,-373.54C510.26,-366.34 509.96,-357.53 509.69,-349.68"/>
<polygon fill="#63b8ff" stroke="#63b8ff" points="513.19,-349.56 509.35,-339.69 506.19,-349.8 513.19,-349.56"/>
</g>
<!-- Node17 -->
<g id="node17" class="node">
<title>Node17</title>
<g id="a_node17"><a xlink:href="JUTAssert_8h.html" target="_top" xlink:title=" ">
<polygon fill="white" stroke="#666666" points="418,-338 272,-338 272,-319 418,-319 418,-338"/>
<text text-anchor="middle" x="345" y="-326" font-family="Helvetica,sans-Serif" font-size="10.00">JSystem/JUtility/JUTAssert.h</text>
</a>
</g>
</g>
<!-- Node3&#45;&gt;Node17 -->
<g id="edge19" class="edge">
<title>Node3&#45;&gt;Node17</title>
<path fill="none" stroke="#63b8ff" d="M469.97,-373.54C442.58,-363.89 406.92,-351.32 380.71,-342.08"/>
<polygon fill="#63b8ff" stroke="#63b8ff" points="382.12,-338.87 371.53,-338.85 379.8,-345.47 382.12,-338.87"/>
</g>
<!-- Node5 -->
<g id="node5" class="node">
<title>Node5</title>
<g id="a_node5"><a xlink:href="JAISoundParams_8h.html" target="_top" xlink:title=" ">
<polygon fill="white" stroke="#666666" points="580.5,-283 441.5,-283 441.5,-253 580.5,-253 580.5,-283"/>
<text text-anchor="start" x="449.5" y="-271" font-family="Helvetica,sans-Serif" font-size="10.00">JSystem/JAudio2/JAISound</text>
<text text-anchor="middle" x="511" y="-260" font-family="Helvetica,sans-Serif" font-size="10.00">Params.h</text>
</a>
</g>
</g>
<!-- Node4&#45;&gt;Node5 -->
<g id="edge4" class="edge">
<title>Node4&#45;&gt;Node5</title>
<path fill="none" stroke="#63b8ff" d="M509.3,-318.87C509.52,-312.4 509.83,-303.2 510.13,-294.45"/>
<polygon fill="#63b8ff" stroke="#63b8ff" points="513.62,-294.74 510.47,-284.63 506.63,-294.5 513.62,-294.74"/>
</g>
<!-- Node9 -->
<g id="node9" class="node">
<title>Node9</title>
<g id="a_node9"><a xlink:href="JAIAudible_8h.html" target="_top" xlink:title=" ">
<polygon fill="white" stroke="#666666" points="212.5,-277.5 61.5,-277.5 61.5,-258.5 212.5,-258.5 212.5,-277.5"/>
<text text-anchor="middle" x="137" y="-265.5" font-family="Helvetica,sans-Serif" font-size="10.00">JSystem/JAudio2/JAIAudible.h</text>
</a>
</g>
</g>
<!-- Node4&#45;&gt;Node9 -->
<g id="edge8" class="edge">
<title>Node4&#45;&gt;Node9</title>
<path fill="none" stroke="#63b8ff" d="M452.1,-318.55C385.73,-308.12 276.11,-290.88 205.23,-279.73"/>
<polygon fill="#63b8ff" stroke="#63b8ff" points="206.12,-276.33 195.7,-278.23 205.03,-283.24 206.12,-276.33"/>
</g>
<!-- Node4&#45;&gt;Node16 -->
<g id="edge17" class="edge">
<title>Node4&#45;&gt;Node16</title>
<path fill="none" stroke="#63b8ff" d="M492.14,-318.62C474.38,-309.25 446.12,-294.36 425.2,-283.33"/>
<polygon fill="#63b8ff" stroke="#63b8ff" points="426.83,-280.24 416.36,-278.67 423.57,-286.43 426.83,-280.24"/>
</g>
<!-- Node6 -->
<g id="node6" class="node">
<title>Node6</title>
<g id="a_node6"><a xlink:href="JASSoundParams_8h.html" target="_top" xlink:title=" ">
<polygon fill="white" stroke="#666666" points="571.5,-217 428.5,-217 428.5,-187 571.5,-187 571.5,-217"/>
<text text-anchor="start" x="436.5" y="-205" font-family="Helvetica,sans-Serif" font-size="10.00">JSystem/JAudio2/JASSound</text>
<text text-anchor="middle" x="500" y="-194" font-family="Helvetica,sans-Serif" font-size="10.00">Params.h</text>
</a>
</g>
</g>
<!-- Node5&#45;&gt;Node6 -->
<g id="edge5" class="edge">
<title>Node5&#45;&gt;Node6</title>
<path fill="none" stroke="#63b8ff" d="M508.56,-252.8C507.32,-245.59 505.78,-236.61 504.34,-228.27"/>
<polygon fill="#63b8ff" stroke="#63b8ff" points="507.83,-227.92 502.69,-218.66 500.94,-229.1 507.83,-227.92"/>
</g>
<!-- Node7 -->
<g id="node7" class="node">
<title>Node7</title>
<g id="a_node7"><a xlink:href="types_8h.html" target="_top" xlink:title=" ">
<polygon fill="white" stroke="#666666" points="407.5,-90.5 326.5,-90.5 326.5,-71.5 407.5,-71.5 407.5,-90.5"/>
<text text-anchor="middle" x="367" y="-78.5" font-family="Helvetica,sans-Serif" font-size="10.00">dolphin/types.h</text>
</a>
</g>
</g>
<!-- Node6&#45;&gt;Node7 -->
<g id="edge6" class="edge">
<title>Node6&#45;&gt;Node7</title>
<path fill="none" stroke="#63b8ff" d="M483.96,-186.65C459.11,-164.42 411.47,-121.79 385.31,-98.39"/>
<polygon fill="#63b8ff" stroke="#63b8ff" points="387.94,-96.04 378.16,-91.98 383.28,-101.26 387.94,-96.04"/>
</g>
<!-- Node8 -->
<g id="node8" class="node">
<title>Node8</title>
<g id="a_node8"><a xlink:href="stddef_8h.html" target="_top" xlink:title=" ">
<polygon fill="white" stroke="#666666" points="435,-30 299,-30 299,0 435,0 435,-30"/>
<text text-anchor="start" x="307" y="-18" font-family="Helvetica,sans-Serif" font-size="10.00">MSL_C/MSL_Common/Src</text>
<text text-anchor="middle" x="367" y="-7" font-family="Helvetica,sans-Serif" font-size="10.00">/stddef.h</text>
</a>
</g>
</g>
<!-- Node7&#45;&gt;Node8 -->
<g id="edge7" class="edge">
<title>Node7&#45;&gt;Node8</title>
<path fill="none" stroke="#63b8ff" d="M367,-71.1C367,-63.41 367,-51.92 367,-41.42"/>
<polygon fill="#63b8ff" stroke="#63b8ff" points="370.5,-41.75 367,-31.75 363.5,-41.75 370.5,-41.75"/>
</g>
<!-- Node10 -->
<g id="node10" class="node">
<title>Node10</title>
<g id="a_node10"><a xlink:href="JGeometry_8h.html" target="_top" xlink:title=" ">
<polygon fill="white" stroke="#666666" points="193.5,-211.5 80.5,-211.5 80.5,-192.5 193.5,-192.5 193.5,-211.5"/>
<text text-anchor="middle" x="137" y="-199.5" font-family="Helvetica,sans-Serif" font-size="10.00">JSystem/JGeometry.h</text>
</a>
</g>
</g>
<!-- Node9&#45;&gt;Node10 -->
<g id="edge9" class="edge">
<title>Node9&#45;&gt;Node10</title>
<path fill="none" stroke="#63b8ff" d="M137,-258.1C137,-249.12 137,-234.95 137,-223.22"/>
<polygon fill="#63b8ff" stroke="#63b8ff" points="140.5,-223.34 137,-213.34 133.5,-223.34 140.5,-223.34"/>
</g>
<!-- Node10&#45;&gt;Node11 -->
<g id="edge10" class="edge">
<title>Node10&#45;&gt;Node11</title>
<path fill="none" stroke="#63b8ff" d="M152.95,-192.12C169.68,-182.79 196.23,-168 216,-156.99"/>
<polygon fill="#63b8ff" stroke="#63b8ff" points="217.55,-160.13 224.58,-152.21 214.14,-154.01 217.55,-160.13"/>
</g>
<!-- Node12 -->
<g id="node12" class="node">
<title>Node12</title>
<g id="a_node12"><a xlink:href="float_8h.html" target="_top" xlink:title=" ">
<polygon fill="white" stroke="#666666" points="78,-151 0,-151 0,-132 78,-132 78,-151"/>
<text text-anchor="middle" x="39" y="-139" font-family="Helvetica,sans-Serif" font-size="10.00">MSL_C/float.h</text>
</a>
</g>
</g>
<!-- Node10&#45;&gt;Node12 -->
<g id="edge12" class="edge">
<title>Node10&#45;&gt;Node12</title>
<path fill="none" stroke="#63b8ff" d="M122.12,-192.12C106.65,-182.88 82.17,-168.27 63.78,-157.29"/>
<polygon fill="#63b8ff" stroke="#63b8ff" points="65.7,-154.36 55.32,-152.24 62.12,-160.38 65.7,-154.36"/>
</g>
<!-- Node15 -->
<g id="node15" class="node">
<title>Node15</title>
<g id="a_node15"><a xlink:href="math_8h.html" target="_top" xlink:title=" ">
<polygon fill="white" stroke="#666666" points="178,-151 96,-151 96,-132 178,-132 178,-151"/>
<text text-anchor="middle" x="137" y="-139" font-family="Helvetica,sans-Serif" font-size="10.00">MSL_C/math.h</text>
</a>
</g>
</g>
<!-- Node10&#45;&gt;Node15 -->
<g id="edge15" class="edge">
<title>Node10&#45;&gt;Node15</title>
<path fill="none" stroke="#63b8ff" d="M137,-192.37C137,-184.5 137,-172.6 137,-162.39"/>
<polygon fill="#63b8ff" stroke="#63b8ff" points="140.5,-162.68 137,-152.68 133.5,-162.68 140.5,-162.68"/>
</g>
<!-- Node11&#45;&gt;Node7 -->
<g id="edge11" class="edge">
<title>Node11&#45;&gt;Node7</title>
<path fill="none" stroke="#63b8ff" d="M260.98,-131.62C281.36,-122.08 313.98,-106.81 337.66,-95.73"/>
<polygon fill="#63b8ff" stroke="#63b8ff" points="338.89,-99.02 346.47,-91.61 335.92,-92.68 338.89,-99.02"/>
</g>
<!-- Node13 -->
<g id="node13" class="node">
<title>Node13</title>
<g id="a_node13"><a xlink:href="MSL__Common_2Src_2float_8h.html" target="_top" xlink:title=" ">
<polygon fill="white" stroke="#666666" points="156,-96 20,-96 20,-66 156,-66 156,-96"/>
<text text-anchor="start" x="28" y="-84" font-family="Helvetica,sans-Serif" font-size="10.00">MSL_C/MSL_Common/Src</text>
<text text-anchor="middle" x="88" y="-73" font-family="Helvetica,sans-Serif" font-size="10.00">/float.h</text>
</a>
</g>
</g>
<!-- Node12&#45;&gt;Node13 -->
<g id="edge13" class="edge">
<title>Node12&#45;&gt;Node13</title>
<path fill="none" stroke="#63b8ff" d="M46.23,-131.87C52.2,-124.74 60.96,-114.28 68.91,-104.79"/>
<polygon fill="#63b8ff" stroke="#63b8ff" points="71.47,-107.19 75.21,-97.27 66.1,-102.69 71.47,-107.19"/>
</g>
<!-- Node14 -->
<g id="node14" class="node">
<title>Node14</title>
<g id="a_node14"><a xlink:href="fdlibm_8h.html" target="_top" xlink:title=" ">
<polygon fill="white" stroke="#666666" points="113,-24.5 63,-24.5 63,-5.5 113,-5.5 113,-24.5"/>
<text text-anchor="middle" x="88" y="-12.5" font-family="Helvetica,sans-Serif" font-size="10.00">fdlibm.h</text>
</a>
</g>
</g>
<!-- Node13&#45;&gt;Node14 -->
<g id="edge14" class="edge">
<title>Node13&#45;&gt;Node14</title>
<path fill="none" stroke="#63b8ff" d="M88,-65.8C88,-57.09 88,-45.81 88,-36.18"/>
<polygon fill="#63b8ff" stroke="#63b8ff" points="91.5,-36.36 88,-26.36 84.5,-36.36 91.5,-36.36"/>
</g>
<!-- Node15&#45;&gt;Node13 -->
<g id="edge16" class="edge">
<title>Node15&#45;&gt;Node13</title>
<path fill="none" stroke="#63b8ff" d="M129.77,-131.87C123.8,-124.74 115.04,-114.28 107.09,-104.79"/>
<polygon fill="#63b8ff" stroke="#63b8ff" points="109.9,-102.69 100.79,-97.27 104.53,-107.19 109.9,-102.69"/>
</g>
<!-- Node16&#45;&gt;Node7 -->
<g id="edge18" class="edge">
<title>Node16&#45;&gt;Node7</title>
<path fill="none" stroke="#63b8ff" d="M396.5,-258.08C391.77,-229.81 377.02,-141.77 370.34,-101.94"/>
<polygon fill="#63b8ff" stroke="#63b8ff" points="373.83,-101.61 368.73,-92.33 366.93,-102.77 373.83,-101.61"/>
</g>
<!-- Node17&#45;&gt;Node7 -->
<g id="edge20" class="edge">
<title>Node17&#45;&gt;Node7</title>
<path fill="none" stroke="#63b8ff" d="M345.78,-318.76C348.92,-283.72 360.66,-152.8 365.19,-102.17"/>
<polygon fill="#63b8ff" stroke="#63b8ff" points="368.66,-102.67 366.07,-92.4 361.69,-102.04 368.66,-102.67"/>
</g>
<!-- Node18&#45;&gt;Node17 -->
<g id="edge22" class="edge">
<title>Node18&#45;&gt;Node17</title>
<path fill="none" stroke="#63b8ff" d="M345.85,-379.37C345.72,-371.5 345.51,-359.6 345.34,-349.39"/>
<polygon fill="#63b8ff" stroke="#63b8ff" points="348.84,-349.62 345.17,-339.68 341.85,-349.74 348.84,-349.62"/>
</g>
</g>
</svg>
        <g id="navigator" transform="translate(0 0)" fill="#404254">
                <rect fill="#f2f5e9" fill-opacity="0.5" stroke="#606060" stroke-width=".5" x="0" y="0" width="60" height="60"/>
                <use id="zoomplus" xlink:href="#zoomPlus" x="17" y="9" onmousedown="handleZoom(evt,'in')"/>
                <use id="zoomminus" xlink:href="#zoomMin" x="42" y="9" onmousedown="handleZoom(evt,'out')"/>
                <use id="reset" xlink:href="#resetDef" x="30" y="36" onmousedown="handleReset()"/>
                <g id="arrowUp" xlink:href="#dirArrow" transform="translate(30 24)" onmousedown="handlePan(0,-1)">
                  <use xlink:href="#rim" fill="#404040">
                        <set attributeName="fill" to="#808080" begin="arrowUp.mouseover" end="arrowUp.mouseout"/>
                  </use>
                  <path fill="none" stroke="white" stroke-width="1.5" d="M0,-3.0v7 M-2.5,-0.5L0,-3.0L2.5,-0.5"/>
                </g>
                <g id="arrowRight" xlink:href="#dirArrow" transform="rotate(90) translate(36 -43)" onmousedown="handlePan(1,0)">
                  <use xlink:href="#rim" fill="#404040">
                        <set attributeName="fill" to="#808080" begin="arrowRight.mouseover" end="arrowRight.mouseout"/>
                  </use>
                  <path fill="none" stroke="white" stroke-width="1.5" d="M0,-3.0v7 M-2.5,-0.5L0,-3.0L2.5,-0.5"/>
                </g>
                <g id="arrowDown" xlink:href="#dirArrow" transform="rotate(180) translate(-30 -48)" onmousedown="handlePan(0,1)">
                  <use xlink:href="#rim" fill="#404040">
                        <set attributeName="fill" to="#808080" begin="arrowDown.mouseover" end="arrowDown.mouseout"/>
                  </use>
                  <path fill="none" stroke="white" stroke-width="1.5" d="M0,-3.0v7 M-2.5,-0.5L0,-3.0L2.5,-0.5"/>
                </g>
                <g id="arrowLeft" xlink:href="#dirArrow" transform="rotate(270) translate(-36 17)" onmousedown="handlePan(-1,0)">
                  <use xlink:href="#rim" fill="#404040">
                        <set attributeName="fill" to="#808080" begin="arrowLeft.mouseover" end="arrowLeft.mouseout"/>
                  </use>
                  <path fill="none" stroke="white" stroke-width="1.5" d="M0,-3.0v7 M-2.5,-0.5L0,-3.0L2.5,-0.5"/>
                </g>
        </g>
        <svg viewBox="0 0 15 15" width="100%" height="30px" preserveAspectRatio="xMaxYMin meet">
         <g id="arrow_out" transform="scale(0.3 0.3)">
          <a xlink:href="Z2SeMgr_8cpp__incl_org.svg" target="_base">
           <rect id="button" ry="5" rx="5" y="6" x="6" height="38" width="38"
                fill="#f2f5e9" fill-opacity="0.5" stroke="#606060" stroke-width="1.0"/>
           <path id="arrow"
             d="M 11.500037,31.436501 C 11.940474,20.09759 22.043105,11.32322 32.158766,21.979434 L 37.068811,17.246167 C 37.068811,17.246167 37.088388,32 37.088388,32 L 22.160133,31.978069 C 22.160133,31.978069 26.997745,27.140456 26.997745,27.140456 C 18.528582,18.264221 13.291696,25.230495 11.500037,31.436501 z"
             style="fill:#404040;"/>
          </a>
         </g>
        </svg>
</svg>
