<?xml version="1.0" encoding="UTF-8" standalone="no"?>
<!DOCTYPE svg PUBLIC "-//W3C//DTD SVG 1.1//EN"
 "http://www.w3.org/Graphics/SVG/1.1/DTD/svg11.dtd">
<!-- Generated by graphviz version 7.0.5 (20221223.1930)
 -->
<!-- Title: include/Z2AudioLib/Z2SoundMgr.h Pages: 1 -->
<svg width="2813pt" height="478pt"
 viewBox="0.00 0.00 2813.20 478.00" xmlns="http://www.w3.org/2000/svg" xmlns:xlink="http://www.w3.org/1999/xlink">
<g id="graph0" class="graph" transform="scale(1 1) rotate(0) translate(4 474)">
<title>include/Z2AudioLib/Z2SoundMgr.h</title>
<!-- Node1 -->
<g id="node1" class="node">
<title>Node1</title>
<g id="a_node1"><a xlink:title=" ">
<polygon fill="#999999" stroke="#666666" points="1389.2,-470 1289.2,-470 1289.2,-440 1389.2,-440 1389.2,-470"/>
<text text-anchor="start" x="1297.2" y="-458" font-family="Helvetica,sans-Serif" font-size="10.00">include/Z2AudioLib</text>
<text text-anchor="middle" x="1339.2" y="-447" font-family="Helvetica,sans-Serif" font-size="10.00">/Z2SoundMgr.h</text>
</a>
</g>
</g>
<!-- Node2 -->
<g id="node2" class="node">
<title>Node2</title>
<g id="a_node2"><a xlink:href="Z2AudioMgr_8h.html" target="_top" xlink:title=" ">
<polygon fill="white" stroke="#666666" points="1151.2,-404 1051.2,-404 1051.2,-374 1151.2,-374 1151.2,-404"/>
<text text-anchor="start" x="1059.2" y="-392" font-family="Helvetica,sans-Serif" font-size="10.00">include/Z2AudioLib</text>
<text text-anchor="middle" x="1101.2" y="-381" font-family="Helvetica,sans-Serif" font-size="10.00">/Z2AudioMgr.h</text>
</a>
</g>
</g>
<!-- Node1&#45;&gt;Node2 -->
<g id="edge1" class="edge">
<title>Node1&#45;&gt;Node2</title>
<path fill="none" stroke="#63b8ff" d="M1277.73,-437.47C1238.55,-426.94 1188.42,-413.45 1151.6,-403.55"/>
<polygon fill="#63b8ff" stroke="#63b8ff" points="1276.7,-440.82 1287.26,-440.03 1278.52,-434.06 1276.7,-440.82"/>
</g>
<!-- Node363 -->
<g id="node48" class="node">
<title>Node363</title>
<g id="a_node48"><a xlink:href="Z2SceneMgr_8cpp.html" target="_top" xlink:title=" ">
<polygon fill="white" stroke="#666666" points="1330.7,-398.5 1169.7,-398.5 1169.7,-379.5 1330.7,-379.5 1330.7,-398.5"/>
<text text-anchor="middle" x="1250.2" y="-386.5" font-family="Helvetica,sans-Serif" font-size="10.00">libs/Z2AudioLib/Z2SceneMgr.cpp</text>
</a>
</g>
</g>
<!-- Node1&#45;&gt;Node363 -->
<g id="edge70" class="edge">
<title>Node1&#45;&gt;Node363</title>
<path fill="none" stroke="#63b8ff" d="M1310.36,-433.26C1294.16,-421.61 1274.8,-407.69 1262.5,-398.84"/>
<polygon fill="#63b8ff" stroke="#63b8ff" points="1308.06,-435.92 1318.22,-438.91 1312.14,-430.23 1308.06,-435.92"/>
</g>
<!-- Node364 -->
<g id="node49" class="node">
<title>Node364</title>
<g id="a_node49"><a xlink:href="Z2SoundMgr_8cpp.html" target="_top" xlink:title=" ">
<polygon fill="white" stroke="#666666" points="1509.7,-398.5 1348.7,-398.5 1348.7,-379.5 1509.7,-379.5 1509.7,-398.5"/>
<text text-anchor="middle" x="1429.2" y="-386.5" font-family="Helvetica,sans-Serif" font-size="10.00">libs/Z2AudioLib/Z2SoundMgr.cpp</text>
</a>
</g>
</g>
<!-- Node1&#45;&gt;Node364 -->
<g id="edge71" class="edge">
<title>Node1&#45;&gt;Node364</title>
<path fill="none" stroke="#63b8ff" d="M1368.37,-433.26C1384.74,-421.61 1404.32,-407.69 1416.76,-398.84"/>
<polygon fill="#63b8ff" stroke="#63b8ff" points="1366.53,-430.27 1360.41,-438.92 1370.58,-435.98 1366.53,-430.27"/>
</g>
<!-- Node365 -->
<g id="node50" class="node">
<title>Node365</title>
<g id="a_node50"><a xlink:href="Z2WolfHowlMgr_8cpp.html" target="_top" xlink:title=" ">
<polygon fill="white" stroke="#666666" points="1668.2,-404 1528.2,-404 1528.2,-374 1668.2,-374 1668.2,-404"/>
<text text-anchor="start" x="1536.2" y="-392" font-family="Helvetica,sans-Serif" font-size="10.00">libs/Z2AudioLib/Z2WolfHowl</text>
<text text-anchor="middle" x="1598.2" y="-381" font-family="Helvetica,sans-Serif" font-size="10.00">Mgr.cpp</text>
</a>
</g>
</g>
<!-- Node1&#45;&gt;Node365 -->
<g id="edge72" class="edge">
<title>Node1&#45;&gt;Node365</title>
<path fill="none" stroke="#63b8ff" d="M1400.42,-438.87C1442.63,-428.44 1498.4,-414.66 1539.95,-404.39"/>
<polygon fill="#63b8ff" stroke="#63b8ff" points="1399.78,-435.42 1390.91,-441.22 1401.46,-442.22 1399.78,-435.42"/>
</g>
<!-- Node3 -->
<g id="node3" class="node">
<title>Node3</title>
<g id="a_node3"><a xlink:href="m__Do__audio_8h.html" target="_top" xlink:title=" ">
<polygon fill="white" stroke="#666666" points="1088.2,-338 948.2,-338 948.2,-319 1088.2,-319 1088.2,-338"/>
<text text-anchor="middle" x="1018.2" y="-326" font-family="Helvetica,sans-Serif" font-size="10.00">include/m_Do/m_Do_audio.h</text>
</a>
</g>
</g>
<!-- Node2&#45;&gt;Node3 -->
<g id="edge2" class="edge">
<title>Node2&#45;&gt;Node3</title>
<path fill="none" stroke="#63b8ff" d="M1071.34,-366.95C1057.26,-357.03 1041.24,-345.74 1030.51,-338.18"/>
<polygon fill="#63b8ff" stroke="#63b8ff" points="1069.26,-369.77 1079.45,-372.67 1073.29,-364.05 1069.26,-369.77"/>
</g>
<!-- Node362 -->
<g id="node47" class="node">
<title>Node362</title>
<g id="a_node47"><a xlink:href="Z2AudioMgr_8cpp.html" target="_top" xlink:title=" ">
<polygon fill="white" stroke="#666666" points="1264.2,-338 1106.2,-338 1106.2,-319 1264.2,-319 1264.2,-338"/>
<text text-anchor="middle" x="1185.2" y="-326" font-family="Helvetica,sans-Serif" font-size="10.00">libs/Z2AudioLib/Z2AudioMgr.cpp</text>
</a>
</g>
</g>
<!-- Node2&#45;&gt;Node362 -->
<g id="edge69" class="edge">
<title>Node2&#45;&gt;Node362</title>
<path fill="none" stroke="#63b8ff" d="M1131.01,-367.24C1145.35,-357.25 1161.77,-345.82 1172.74,-338.18"/>
<polygon fill="#63b8ff" stroke="#63b8ff" points="1129.41,-364.09 1123.21,-372.67 1133.41,-369.83 1129.41,-364.09"/>
</g>
<!-- Node4 -->
<g id="node4" class="node">
<title>Node4</title>
<g id="a_node4"><a xlink:href="m__Do__ext_8h.html" target="_top" xlink:title=" ">
<polygon fill="white" stroke="#666666" points="1375.2,-283 1245.2,-283 1245.2,-264 1375.2,-264 1375.2,-283"/>
<text text-anchor="middle" x="1310.2" y="-271" font-family="Helvetica,sans-Serif" font-size="10.00">include/m_Do/m_Do_ext.h</text>
</a>
</g>
</g>
<!-- Node3&#45;&gt;Node4 -->
<g id="edge3" class="edge">
<title>Node3&#45;&gt;Node4</title>
<path fill="none" stroke="#63b8ff" d="M1078.86,-316.49C1132.81,-306.7 1210.72,-292.56 1260.91,-283.45"/>
<polygon fill="#63b8ff" stroke="#63b8ff" points="1078.44,-313.01 1069.22,-318.24 1079.69,-319.9 1078.44,-313.01"/>
</g>
<!-- Node9 -->
<g id="node7" class="node">
<title>Node9</title>
<g id="a_node7"><a xlink:href="d__com__inf__game_8cpp.html" target="_top" xlink:title=" ">
<polygon fill="white" stroke="#666666" points="738.2,-30 630.2,-30 630.2,0 738.2,0 738.2,-30"/>
<text text-anchor="start" x="638.2" y="-18" font-family="Helvetica,sans-Serif" font-size="10.00">src/d/com/d_com_inf</text>
<text text-anchor="middle" x="684.2" y="-7" font-family="Helvetica,sans-Serif" font-size="10.00">_game.cpp</text>
</a>
</g>
</g>
<!-- Node3&#45;&gt;Node9 -->
<g id="edge58" class="edge">
<title>Node3&#45;&gt;Node9</title>
<path fill="none" stroke="#63b8ff" d="M936.47,-326.91C695.11,-324.08 2.2,-307.81 2.2,-214 2.2,-214 2.2,-214 2.2,-146 2.2,-109.46 -6.6,-89.72 21.2,-66 67.05,-26.87 479.45,-18.31 629.73,-16.48"/>
<polygon fill="#63b8ff" stroke="#63b8ff" points="936.41,-330.41 946.45,-327.02 936.49,-323.41 936.41,-330.41"/>
</g>
<!-- Node13 -->
<g id="node8" class="node">
<title>Node13</title>
<g id="a_node8"><a xlink:href="d__msg__flow_8cpp.html" target="_top" xlink:title=" ">
<polygon fill="white" stroke="#666666" points="2124.7,-24.5 1991.7,-24.5 1991.7,-5.5 2124.7,-5.5 2124.7,-24.5"/>
<text text-anchor="middle" x="2058.2" y="-12.5" font-family="Helvetica,sans-Serif" font-size="10.00">src/d/msg/d_msg_flow.cpp</text>
</a>
</g>
</g>
<!-- Node3&#45;&gt;Node13 -->
<g id="edge63" class="edge">
<title>Node3&#45;&gt;Node13</title>
<path fill="none" stroke="#63b8ff" d="M1099.87,-318.92C1415.01,-299.87 2155.77,-337.29 2447.2,-283 2537.17,-266.24 2641.2,-305.51 2641.2,-214 2641.2,-214 2641.2,-214 2641.2,-146 2641.2,-105.63 2631.85,-88.29 2598.2,-66 2559.56,-40.41 2260.98,-24.61 2125.12,-18.67"/>
<polygon fill="#63b8ff" stroke="#63b8ff" points="1099.65,-315.43 1089.9,-319.56 1100.1,-322.41 1099.65,-315.43"/>
</g>
<!-- Node151 -->
<g id="node12" class="node">
<title>Node151</title>
<g id="a_node12"><a xlink:href="d__name_8cpp.html" target="_top" xlink:title=" ">
<polygon fill="white" stroke="#666666" points="124.2,-90.5 30.2,-90.5 30.2,-71.5 124.2,-71.5 124.2,-90.5"/>
<text text-anchor="middle" x="77.2" y="-78.5" font-family="Helvetica,sans-Serif" font-size="10.00">src/d/d_name.cpp</text>
</a>
</g>
</g>
<!-- Node3&#45;&gt;Node151 -->
<g id="edge59" class="edge">
<title>Node3&#45;&gt;Node151</title>
<path fill="none" stroke="#63b8ff" d="M936.62,-326.86C788.45,-324.86 481.12,-316.66 380.2,-283 249.06,-239.25 120.55,-123.26 86.14,-90.64"/>
<polygon fill="#63b8ff" stroke="#63b8ff" points="936.31,-330.36 946.36,-326.98 936.4,-323.36 936.31,-330.36"/>
</g>
<!-- Node161 -->
<g id="node13" class="node">
<title>Node161</title>
<g id="a_node13"><a xlink:href="d__event__manager_8cpp.html" target="_top" xlink:title=" ">
<polygon fill="white" stroke="#666666" points="2062.7,-96 1959.7,-96 1959.7,-66 2062.7,-66 2062.7,-96"/>
<text text-anchor="start" x="1967.7" y="-84" font-family="Helvetica,sans-Serif" font-size="10.00">src/d/event/d_event</text>
<text text-anchor="middle" x="2011.2" y="-73" font-family="Helvetica,sans-Serif" font-size="10.00">_manager.cpp</text>
</a>
</g>
</g>
<!-- Node3&#45;&gt;Node161 -->
<g id="edge60" class="edge">
<title>Node3&#45;&gt;Node161</title>
<path fill="none" stroke="#63b8ff" d="M1099.79,-318.97C1295.94,-307.12 2367.92,-337.28 2470.2,-228 2529.13,-165.04 2195.17,-108.76 2063.14,-89.27"/>
<polygon fill="#63b8ff" stroke="#63b8ff" points="1099.63,-315.48 1089.91,-319.69 1100.13,-322.46 1099.63,-315.48"/>
</g>
<!-- Node165 -->
<g id="node14" class="node">
<title>Node165</title>
<g id="a_node14"><a xlink:href="d__kankyo__wether_8cpp.html" target="_top" xlink:title=" ">
<polygon fill="white" stroke="#666666" points="656.2,-96 540.2,-96 540.2,-66 656.2,-66 656.2,-96"/>
<text text-anchor="start" x="548.2" y="-84" font-family="Helvetica,sans-Serif" font-size="10.00">src/d/kankyo/d_kankyo</text>
<text text-anchor="middle" x="598.2" y="-73" font-family="Helvetica,sans-Serif" font-size="10.00">_wether.cpp</text>
</a>
</g>
</g>
<!-- Node3&#45;&gt;Node165 -->
<g id="edge62" class="edge">
<title>Node3&#45;&gt;Node165</title>
<path fill="none" stroke="#63b8ff" d="M936.52,-326.64C786.61,-323.16 476.81,-306.4 410.2,-228 382.57,-195.48 384.19,-165.83 410.2,-132 414.3,-126.66 486.27,-108.57 539.95,-95.68"/>
<polygon fill="#63b8ff" stroke="#63b8ff" points="936.31,-330.14 946.39,-326.86 936.47,-323.14 936.31,-330.14"/>
</g>
<!-- Node181 -->
<g id="node15" class="node">
<title>Node181</title>
<g id="a_node15"><a xlink:href="d__s__name_8cpp.html" target="_top" xlink:title=" ">
<polygon fill="white" stroke="#666666" points="255.7,-90.5 142.7,-90.5 142.7,-71.5 255.7,-71.5 255.7,-90.5"/>
<text text-anchor="middle" x="199.2" y="-78.5" font-family="Helvetica,sans-Serif" font-size="10.00">src/d/s/d_s_name.cpp</text>
</a>
</g>
</g>
<!-- Node3&#45;&gt;Node181 -->
<g id="edge64" class="edge">
<title>Node3&#45;&gt;Node181</title>
<path fill="none" stroke="#63b8ff" d="M936.56,-327.97C794.9,-327.72 509.98,-322.16 419.2,-283 315.16,-238.13 228.13,-122.93 205.14,-90.57"/>
<polygon fill="#63b8ff" stroke="#63b8ff" points="936.24,-331.47 946.24,-327.98 936.24,-324.47 936.24,-331.47"/>
</g>
<!-- Node188 -->
<g id="node16" class="node">
<title>Node188</title>
<g id="a_node16"><a xlink:href="m__Do__audio_8cpp.html" target="_top" xlink:title=" ">
<polygon fill="white" stroke="#666666" points="408.2,-90.5 274.2,-90.5 274.2,-71.5 408.2,-71.5 408.2,-90.5"/>
<text text-anchor="middle" x="341.2" y="-78.5" font-family="Helvetica,sans-Serif" font-size="10.00">src/m_Do/m_Do_audio.cpp</text>
</a>
</g>
</g>
<!-- Node3&#45;&gt;Node188 -->
<g id="edge68" class="edge">
<title>Node3&#45;&gt;Node188</title>
<path fill="none" stroke="#63b8ff" d="M936.48,-326.46C803.74,-323.85 547.6,-314.73 463.2,-283 424.84,-268.58 413.16,-261.24 389.2,-228 356.74,-182.98 345.34,-114.74 342.21,-90.73"/>
<polygon fill="#63b8ff" stroke="#63b8ff" points="936.19,-329.95 946.25,-326.64 936.32,-322.95 936.19,-329.95"/>
</g>
<!-- Node57 -->
<g id="node23" class="node">
<title>Node57</title>
<g id="a_node23"><a xlink:href="d__s__play_8cpp.html" target="_top" xlink:title=" ">
<polygon fill="white" stroke="#666666" points="2397.2,-90.5 2291.2,-90.5 2291.2,-71.5 2397.2,-71.5 2397.2,-90.5"/>
<text text-anchor="middle" x="2344.2" y="-78.5" font-family="Helvetica,sans-Serif" font-size="10.00">src/d/s/d_s_play.cpp</text>
</a>
</g>
</g>
<!-- Node3&#45;&gt;Node57 -->
<g id="edge65" class="edge">
<title>Node3&#45;&gt;Node57</title>
<path fill="none" stroke="#63b8ff" d="M1099.85,-318.92C1391.18,-301.13 2072.54,-335.14 2340.2,-283 2409.08,-269.58 2430.57,-268.03 2488.2,-228 2528.95,-199.69 2575.76,-171.09 2545.2,-132 2535.76,-119.92 2449.74,-101.75 2393.33,-90.97"/>
<polygon fill="#63b8ff" stroke="#63b8ff" points="1099.65,-315.42 1089.9,-319.56 1100.1,-322.41 1099.65,-315.42"/>
</g>
<!-- Node18 -->
<g id="node28" class="node">
<title>Node18</title>
<g id="a_node28"><a xlink:href="d__shop__system_8cpp.html" target="_top" xlink:title=" ">
<polygon fill="white" stroke="#666666" points="2589.2,-90.5 2437.2,-90.5 2437.2,-71.5 2589.2,-71.5 2589.2,-90.5"/>
<text text-anchor="middle" x="2513.2" y="-78.5" font-family="Helvetica,sans-Serif" font-size="10.00">src/d/shop/d_shop_system.cpp</text>
</a>
</g>
</g>
<!-- Node3&#45;&gt;Node18 -->
<g id="edge66" class="edge">
<title>Node3&#45;&gt;Node18</title>
<path fill="none" stroke="#63b8ff" d="M1099.45,-318.95C1403.05,-300.64 2117.71,-344.75 2396.2,-283 2486.04,-263.08 2538.95,-250.49 2564.2,-162 2567.86,-149.18 2569.36,-144.29 2564.2,-132 2556.71,-114.17 2539.41,-99.5 2527.04,-90.76"/>
<polygon fill="#63b8ff" stroke="#63b8ff" points="1099.65,-315.43 1089.9,-319.56 1100.1,-322.41 1099.65,-315.43"/>
</g>
<!-- Node51 -->
<g id="node37" class="node">
<title>Node51</title>
<g id="a_node37"><a xlink:href="d__kankyo_8cpp.html" target="_top" xlink:title=" ">
<polygon fill="white" stroke="#666666" points="915.2,-156.5 781.2,-156.5 781.2,-137.5 915.2,-137.5 915.2,-156.5"/>
<text text-anchor="middle" x="848.2" y="-144.5" font-family="Helvetica,sans-Serif" font-size="10.00">src/d/kankyo/d_kankyo.cpp</text>
</a>
</g>
</g>
<!-- Node3&#45;&gt;Node51 -->
<g id="edge61" class="edge">
<title>Node3&#45;&gt;Node51</title>
<path fill="none" stroke="#63b8ff" d="M936.72,-321.9C873.21,-312.75 788.87,-289.04 746.2,-228 738.56,-217.07 739.15,-209.31 746.2,-198 759.56,-176.58 785.06,-164.08 807.22,-156.93"/>
<polygon fill="#63b8ff" stroke="#63b8ff" points="936.04,-325.34 946.42,-323.2 936.97,-318.4 936.04,-325.34"/>
</g>
<!-- Node361 -->
<g id="node46" class="node">
<title>Node361</title>
<g id="a_node46"><a xlink:href="m__Do__Reset_8cpp.html" target="_top" xlink:title=" ">
<polygon fill="white" stroke="#666666" points="2805.2,-283 2669.2,-283 2669.2,-264 2805.2,-264 2805.2,-283"/>
<text text-anchor="middle" x="2737.2" y="-271" font-family="Helvetica,sans-Serif" font-size="10.00">src/m_Do/m_Do_Reset.cpp</text>
</a>
</g>
</g>
<!-- Node3&#45;&gt;Node361 -->
<g id="edge67" class="edge">
<title>Node3&#45;&gt;Node361</title>
<path fill="none" stroke="#63b8ff" d="M1099.87,-318.89C1790.3,-274.49 1967.75,-326.5 2655.2,-283 2659.63,-282.72 2664.19,-282.38 2668.78,-282.01"/>
<polygon fill="#63b8ff" stroke="#63b8ff" points="1099.65,-315.4 1089.89,-319.54 1100.1,-322.39 1099.65,-315.4"/>
</g>
<!-- Node5 -->
<g id="node5" class="node">
<title>Node5</title>
<g id="a_node5"><a xlink:href="d__attention_8h.html" target="_top" xlink:title=" ">
<polygon fill="white" stroke="#666666" points="661.2,-222.5 547.2,-222.5 547.2,-203.5 661.2,-203.5 661.2,-222.5"/>
<text text-anchor="middle" x="604.2" y="-210.5" font-family="Helvetica,sans-Serif" font-size="10.00">include/d/d_attention.h</text>
</a>
</g>
</g>
<!-- Node4&#45;&gt;Node5 -->
<g id="edge4" class="edge">
<title>Node4&#45;&gt;Node5</title>
<path fill="none" stroke="#63b8ff" d="M1233.83,-270.22C1114.26,-265.97 875.77,-254.7 675.2,-228 665.36,-226.69 654.83,-224.86 644.98,-222.95"/>
<polygon fill="#63b8ff" stroke="#63b8ff" points="1233.4,-273.71 1243.51,-270.56 1233.64,-266.72 1233.4,-273.71"/>
</g>
<!-- Node132 -->
<g id="node10" class="node">
<title>Node132</title>
<g id="a_node10"><a xlink:href="c__dylink_8cpp.html" target="_top" xlink:title=" ">
<polygon fill="white" stroke="#666666" points="521.7,-90.5 426.7,-90.5 426.7,-71.5 521.7,-71.5 521.7,-90.5"/>
<text text-anchor="middle" x="474.2" y="-78.5" font-family="Helvetica,sans-Serif" font-size="10.00">src/c/c_dylink.cpp</text>
</a>
</g>
</g>
<!-- Node4&#45;&gt;Node132 -->
<g id="edge47" class="edge">
<title>Node4&#45;&gt;Node132</title>
<path fill="none" stroke="#63b8ff" d="M1233.64,-271.55C1021.26,-268.55 438.4,-257.63 410.2,-228 380.78,-197.09 391.5,-170.35 410.2,-132 419.47,-112.99 439.85,-99.09 455.14,-90.84"/>
<polygon fill="#63b8ff" stroke="#63b8ff" points="1233.42,-275.05 1243.47,-271.69 1233.52,-268.05 1233.42,-275.05"/>
</g>
<!-- Node189 -->
<g id="node17" class="node">
<title>Node189</title>
<g id="a_node17"><a xlink:href="m__Do__ext_8cpp.html" target="_top" xlink:title=" ">
<polygon fill="white" stroke="#666666" points="835.7,-90.5 712.7,-90.5 712.7,-71.5 835.7,-71.5 835.7,-90.5"/>
<text text-anchor="middle" x="774.2" y="-78.5" font-family="Helvetica,sans-Serif" font-size="10.00">src/m_Do/m_Do_ext.cpp</text>
</a>
</g>
</g>
<!-- Node4&#45;&gt;Node189 -->
<g id="edge54" class="edge">
<title>Node4&#45;&gt;Node189</title>
<path fill="none" stroke="#63b8ff" d="M1233.65,-272.1C1087.13,-270.53 778.6,-263.06 746.2,-228 709.59,-188.39 751.42,-116.14 768.01,-90.95"/>
<polygon fill="#63b8ff" stroke="#63b8ff" points="1233.22,-275.6 1243.25,-272.2 1233.29,-268.6 1233.22,-275.6"/>
</g>
<!-- Node192 -->
<g id="node18" class="node">
<title>Node192</title>
<g id="a_node18"><a xlink:href="m__Do__machine__exception_8cpp.html" target="_top" xlink:title=" ">
<polygon fill="white" stroke="#666666" points="982.7,-96 853.7,-96 853.7,-66 982.7,-66 982.7,-96"/>
<text text-anchor="start" x="861.7" y="-84" font-family="Helvetica,sans-Serif" font-size="10.00">src/m_Do/m_Do_machine</text>
<text text-anchor="middle" x="918.2" y="-73" font-family="Helvetica,sans-Serif" font-size="10.00">_exception.cpp</text>
</a>
</g>
</g>
<!-- Node4&#45;&gt;Node192 -->
<g id="edge56" class="edge">
<title>Node4&#45;&gt;Node192</title>
<path fill="none" stroke="#63b8ff" d="M1365.9,-260.87C1394.22,-253.68 1428.61,-242.92 1457.2,-228 1476.27,-218.04 1475.2,-205.95 1495.2,-198 1665.5,-130.33 2029.19,-264.11 1902.2,-132 1867.1,-95.48 1041.52,-101.79 991.2,-96 988.51,-95.69 985.77,-95.34 983,-94.95"/>
<polygon fill="#63b8ff" stroke="#63b8ff" points="1365.32,-257.41 1356.44,-263.19 1366.98,-264.21 1365.32,-257.41"/>
</g>
<!-- Node196 -->
<g id="node20" class="node">
<title>Node196</title>
<g id="a_node20"><a xlink:href="d__drawlist_8h.html" target="_top" xlink:title=" ">
<polygon fill="#fff0f0" stroke="red" points="1448.2,-222.5 1338.2,-222.5 1338.2,-203.5 1448.2,-203.5 1448.2,-222.5"/>
<text text-anchor="middle" x="1393.2" y="-210.5" font-family="Helvetica,sans-Serif" font-size="10.00">include/d/d_drawlist.h</text>
</a>
</g>
</g>
<!-- Node4&#45;&gt;Node196 -->
<g id="edge21" class="edge">
<title>Node4&#45;&gt;Node196</title>
<path fill="none" stroke="#63b8ff" d="M1332.14,-257.04C1347.55,-246.17 1367.63,-232.02 1380.48,-222.97"/>
<polygon fill="#63b8ff" stroke="#63b8ff" points="1330.2,-254.12 1324.04,-262.74 1334.23,-259.84 1330.2,-254.12"/>
</g>
<!-- Node200 -->
<g id="node22" class="node">
<title>Node200</title>
<g id="a_node22"><a xlink:href="d__a__do_8h.html" target="_top" xlink:title=" ">
<polygon fill="white" stroke="#666666" points="1795.2,-96 1699.2,-96 1699.2,-66 1795.2,-66 1795.2,-96"/>
<text text-anchor="start" x="1707.2" y="-84" font-family="Helvetica,sans-Serif" font-size="10.00">include/rel/d/a/d_a</text>
<text text-anchor="middle" x="1747.2" y="-73" font-family="Helvetica,sans-Serif" font-size="10.00">_do/d_a_do.h</text>
</a>
</g>
</g>
<!-- Node4&#45;&gt;Node200 -->
<g id="edge45" class="edge">
<title>Node4&#45;&gt;Node200</title>
<path fill="none" stroke="#63b8ff" d="M1310.2,-252.43C1309.08,-235.6 1304.75,-212.12 1290.2,-198 1240.39,-149.64 1181.26,-216.45 1138.2,-162 1129.93,-151.54 1129.17,-141.81 1138.2,-132 1142.95,-126.84 1555.53,-96.08 1698.82,-85.54"/>
<polygon fill="#63b8ff" stroke="#63b8ff" points="1306.69,-252.33 1310.49,-262.22 1313.69,-252.12 1306.69,-252.33"/>
</g>
<!-- Node124 -->
<g id="node24" class="node">
<title>Node124</title>
<g id="a_node24"><a xlink:href="f__op__actor__mng_8cpp.html" target="_top" xlink:title=" ">
<polygon fill="white" stroke="#666666" points="2228.7,-96 2127.7,-96 2127.7,-66 2228.7,-66 2228.7,-96"/>
<text text-anchor="start" x="2135.7" y="-84" font-family="Helvetica,sans-Serif" font-size="10.00">src/f_op/f_op_actor</text>
<text text-anchor="middle" x="2178.2" y="-73" font-family="Helvetica,sans-Serif" font-size="10.00">_mng.cpp</text>
</a>
</g>
</g>
<!-- Node4&#45;&gt;Node124 -->
<g id="edge50" class="edge">
<title>Node4&#45;&gt;Node124</title>
<path fill="none" stroke="#63b8ff" d="M1386.8,-272.44C1639.47,-271.89 2432.63,-267.04 2470.2,-228 2479.45,-218.39 2477.69,-209.03 2470.2,-198 2442.17,-156.7 2305,-115.17 2229.05,-94.84"/>
<polygon fill="#63b8ff" stroke="#63b8ff" points="1387.04,-268.94 1377.05,-272.46 1387.05,-275.94 1387.04,-268.94"/>
</g>
<!-- Node239 -->
<g id="node34" class="node">
<title>Node239</title>
<g id="a_node34"><a xlink:href="d__ky__thunder_8h.html" target="_top" xlink:title=" ">
<polygon fill="#fff0f0" stroke="red" points="879.2,-222.5 755.2,-222.5 755.2,-203.5 879.2,-203.5 879.2,-222.5"/>
<text text-anchor="middle" x="817.2" y="-210.5" font-family="Helvetica,sans-Serif" font-size="10.00">include/d/d_ky_thunder.h</text>
</a>
</g>
</g>
<!-- Node4&#45;&gt;Node239 -->
<g id="edge38" class="edge">
<title>Node4&#45;&gt;Node239</title>
<path fill="none" stroke="#63b8ff" d="M1233.58,-266.5C1148.82,-259.38 1008.33,-246.14 888.2,-228 878.88,-226.59 868.93,-224.81 859.52,-222.99"/>
<polygon fill="#63b8ff" stroke="#63b8ff" points="1233.14,-269.97 1243.4,-267.32 1233.72,-263 1233.14,-269.97"/>
</g>
<!-- Node240 -->
<g id="node35" class="node">
<title>Node240</title>
<g id="a_node35"><a xlink:href="d__resorce_8h.html" target="_top" xlink:title=" ">
<polygon fill="#fff0f0" stroke="red" points="528.7,-222.5 419.7,-222.5 419.7,-203.5 528.7,-203.5 528.7,-222.5"/>
<text text-anchor="middle" x="474.2" y="-210.5" font-family="Helvetica,sans-Serif" font-size="10.00">include/d/d_resorce.h</text>
</a>
</g>
</g>
<!-- Node4&#45;&gt;Node240 -->
<g id="edge39" class="edge">
<title>Node4&#45;&gt;Node240</title>
<path fill="none" stroke="#63b8ff" d="M1233.45,-272.08C1094.24,-270.42 791.11,-262.73 538.2,-228 529.19,-226.76 519.55,-224.93 510.57,-223"/>
<polygon fill="#63b8ff" stroke="#63b8ff" points="1233.24,-275.57 1243.28,-272.18 1233.32,-268.57 1233.24,-275.57"/>
</g>
<!-- Node241 -->
<g id="node36" class="node">
<title>Node241</title>
<g id="a_node36"><a xlink:href="d__kankyo_8h.html" target="_top" xlink:title=" ">
<polygon fill="#fff0f0" stroke="red" points="995.2,-228 897.2,-228 897.2,-198 995.2,-198 995.2,-228"/>
<text text-anchor="start" x="905.2" y="-216" font-family="Helvetica,sans-Serif" font-size="10.00">include/d/kankyo/d</text>
<text text-anchor="middle" x="946.2" y="-205" font-family="Helvetica,sans-Serif" font-size="10.00">_kankyo.h</text>
</a>
</g>
</g>
<!-- Node4&#45;&gt;Node241 -->
<g id="edge41" class="edge">
<title>Node4&#45;&gt;Node241</title>
<path fill="none" stroke="#63b8ff" d="M1233.58,-263.35C1171.48,-255.46 1081.86,-242.99 1004.2,-228 1001.35,-227.45 998.43,-226.85 995.49,-226.23"/>
<polygon fill="#63b8ff" stroke="#63b8ff" points="1232.98,-266.81 1243.34,-264.58 1233.86,-259.86 1232.98,-266.81"/>
</g>
<!-- Node353 -->
<g id="node38" class="node">
<title>Node353</title>
<g id="a_node38"><a xlink:href="DynamicLink_8cpp.html" target="_top" xlink:title=" ">
<polygon fill="white" stroke="#666666" points="1120.7,-222.5 1013.7,-222.5 1013.7,-203.5 1120.7,-203.5 1120.7,-222.5"/>
<text text-anchor="middle" x="1067.2" y="-210.5" font-family="Helvetica,sans-Serif" font-size="10.00">src/DynamicLink.cpp</text>
</a>
</g>
</g>
<!-- Node4&#45;&gt;Node353 -->
<g id="edge46" class="edge">
<title>Node4&#45;&gt;Node353</title>
<path fill="none" stroke="#63b8ff" d="M1262.06,-260.91C1215.72,-249.75 1146.62,-233.12 1104.37,-222.95"/>
<polygon fill="#63b8ff" stroke="#63b8ff" points="1261.02,-264.26 1271.56,-263.2 1262.65,-257.45 1261.02,-264.26"/>
</g>
<!-- Node354 -->
<g id="node39" class="node">
<title>Node354</title>
<g id="a_node39"><a xlink:href="d__pane__class_8cpp.html" target="_top" xlink:title=" ">
<polygon fill="white" stroke="#666666" points="1281.7,-222.5 1138.7,-222.5 1138.7,-203.5 1281.7,-203.5 1281.7,-222.5"/>
<text text-anchor="middle" x="1210.2" y="-210.5" font-family="Helvetica,sans-Serif" font-size="10.00">src/d/pane/d_pane_class.cpp</text>
</a>
</g>
</g>
<!-- Node4&#45;&gt;Node354 -->
<g id="edge48" class="edge">
<title>Node4&#45;&gt;Node354</title>
<path fill="none" stroke="#63b8ff" d="M1285.09,-257.81C1266.35,-246.85 1241.37,-232.24 1225.53,-222.97"/>
<polygon fill="#63b8ff" stroke="#63b8ff" points="1283.31,-260.82 1293.71,-262.85 1286.84,-254.78 1283.31,-260.82"/>
</g>
<!-- Node355 -->
<g id="node40" class="node">
<title>Node355</title>
<g id="a_node40"><a xlink:href="d__pane__class__alpha_8cpp.html" target="_top" xlink:title=" ">
<polygon fill="white" stroke="#666666" points="1629.7,-228 1504.7,-228 1504.7,-198 1629.7,-198 1629.7,-228"/>
<text text-anchor="start" x="1512.7" y="-216" font-family="Helvetica,sans-Serif" font-size="10.00">src/d/pane/d_pane_class</text>
<text text-anchor="middle" x="1567.2" y="-205" font-family="Helvetica,sans-Serif" font-size="10.00">_alpha.cpp</text>
</a>
</g>
</g>
<!-- Node4&#45;&gt;Node355 -->
<g id="edge49" class="edge">
<title>Node4&#45;&gt;Node355</title>
<path fill="none" stroke="#63b8ff" d="M1360.64,-261.02C1401.82,-251.65 1460.2,-238.36 1504.4,-228.29"/>
<polygon fill="#63b8ff" stroke="#63b8ff" points="1359.96,-257.58 1350.99,-263.22 1361.52,-264.41 1359.96,-257.58"/>
</g>
<!-- Node356 -->
<g id="node41" class="node">
<title>Node356</title>
<g id="a_node41"><a xlink:href="m__Do__DVDError_8cpp.html" target="_top" xlink:title=" ">
<polygon fill="white" stroke="#666666" points="1798.7,-222.5 1647.7,-222.5 1647.7,-203.5 1798.7,-203.5 1798.7,-222.5"/>
<text text-anchor="middle" x="1723.2" y="-210.5" font-family="Helvetica,sans-Serif" font-size="10.00">src/m_Do/m_Do_DVDError.cpp</text>
</a>
</g>
</g>
<!-- Node4&#45;&gt;Node356 -->
<g id="edge51" class="edge">
<title>Node4&#45;&gt;Node356</title>
<path fill="none" stroke="#63b8ff" d="M1386.83,-262.73C1453.36,-254.1 1552.25,-240.91 1638.2,-228 1648.55,-226.45 1659.6,-224.69 1670.19,-222.97"/>
<polygon fill="#63b8ff" stroke="#63b8ff" points="1386.59,-259.23 1377.12,-263.99 1387.49,-266.17 1386.59,-259.23"/>
</g>
<!-- Node357 -->
<g id="node42" class="node">
<title>Node357</title>
<g id="a_node42"><a xlink:href="m__Do__MemCard_8cpp.html" target="_top" xlink:title=" ">
<polygon fill="white" stroke="#666666" points="1969.2,-222.5 1817.2,-222.5 1817.2,-203.5 1969.2,-203.5 1969.2,-222.5"/>
<text text-anchor="middle" x="1893.2" y="-210.5" font-family="Helvetica,sans-Serif" font-size="10.00">src/m_Do/m_Do_MemCard.cpp</text>
</a>
</g>
</g>
<!-- Node4&#45;&gt;Node357 -->
<g id="edge52" class="edge">
<title>Node4&#45;&gt;Node357</title>
<path fill="none" stroke="#63b8ff" d="M1386.73,-267.37C1484.49,-260.42 1658.79,-246.7 1807.2,-228 1818.46,-226.58 1830.5,-224.79 1841.9,-222.97"/>
<polygon fill="#63b8ff" stroke="#63b8ff" points="1386.73,-263.86 1377,-268.05 1387.22,-270.84 1386.73,-263.86"/>
</g>
<!-- Node358 -->
<g id="node43" class="node">
<title>Node358</title>
<g id="a_node43"><a xlink:href="m__Do__dvd__thread_8cpp.html" target="_top" xlink:title=" ">
<polygon fill="white" stroke="#666666" points="2145.2,-222.5 1987.2,-222.5 1987.2,-203.5 2145.2,-203.5 2145.2,-222.5"/>
<text text-anchor="middle" x="2066.2" y="-210.5" font-family="Helvetica,sans-Serif" font-size="10.00">src/m_Do/m_Do_dvd_thread.cpp</text>
</a>
</g>
</g>
<!-- Node4&#45;&gt;Node358 -->
<g id="edge53" class="edge">
<title>Node4&#45;&gt;Node358</title>
<path fill="none" stroke="#63b8ff" d="M1386.59,-269.68C1510.89,-264.58 1764.55,-252.06 1978.2,-228 1990.19,-226.65 2003.04,-224.82 2015.12,-222.93"/>
<polygon fill="#63b8ff" stroke="#63b8ff" points="1386.69,-266.17 1376.84,-270.08 1386.98,-273.17 1386.69,-266.17"/>
</g>
<!-- Node359 -->
<g id="node44" class="node">
<title>Node359</title>
<g id="a_node44"><a xlink:href="m__Do__machine_8cpp.html" target="_top" xlink:title=" ">
<polygon fill="white" stroke="#666666" points="2310.7,-222.5 2163.7,-222.5 2163.7,-203.5 2310.7,-203.5 2310.7,-222.5"/>
<text text-anchor="middle" x="2237.2" y="-210.5" font-family="Helvetica,sans-Serif" font-size="10.00">src/m_Do/m_Do_machine.cpp</text>
</a>
</g>
</g>
<!-- Node4&#45;&gt;Node359 -->
<g id="edge55" class="edge">
<title>Node4&#45;&gt;Node359</title>
<path fill="none" stroke="#63b8ff" d="M1386.74,-271.39C1535.19,-268.6 1872.4,-259.09 2154.2,-228 2165.82,-226.72 2178.28,-224.87 2189.93,-222.93"/>
<polygon fill="#63b8ff" stroke="#63b8ff" points="1386.98,-267.89 1377.04,-271.57 1387.11,-274.89 1386.98,-267.89"/>
</g>
<!-- Node360 -->
<g id="node45" class="node">
<title>Node360</title>
<g id="a_node45"><a xlink:href="m__Do__printf_8cpp.html" target="_top" xlink:title=" ">
<polygon fill="white" stroke="#666666" points="2461.2,-222.5 2329.2,-222.5 2329.2,-203.5 2461.2,-203.5 2461.2,-222.5"/>
<text text-anchor="middle" x="2395.2" y="-210.5" font-family="Helvetica,sans-Serif" font-size="10.00">src/m_Do/m_Do_printf.cpp</text>
</a>
</g>
</g>
<!-- Node4&#45;&gt;Node360 -->
<g id="edge57" class="edge">
<title>Node4&#45;&gt;Node360</title>
<path fill="none" stroke="#63b8ff" d="M1387.17,-272.72C1556.33,-272.41 1973,-267.33 2319.2,-228 2330,-226.77 2341.57,-224.92 2352.35,-222.96"/>
<polygon fill="#63b8ff" stroke="#63b8ff" points="1387.17,-269.22 1377.18,-272.73 1387.18,-276.22 1387.17,-269.22"/>
</g>
<!-- Node6 -->
<g id="node6" class="node">
<title>Node6</title>
<g id="a_node6"><a xlink:href="d__a__alink_8h.html" target="_top" xlink:title=" ">
<polygon fill="#fff0f0" stroke="red" points="1534.2,-90.5 1418.2,-90.5 1418.2,-71.5 1534.2,-71.5 1534.2,-90.5"/>
<text text-anchor="middle" x="1476.2" y="-78.5" font-family="Helvetica,sans-Serif" font-size="10.00">include/d/a/d_a_alink.h</text>
</a>
</g>
</g>
<!-- Node5&#45;&gt;Node6 -->
<g id="edge5" class="edge">
<title>Node5&#45;&gt;Node6</title>
<path fill="none" stroke="#63b8ff" d="M639.13,-198.94C663.19,-189.56 695.65,-176.12 723.2,-162 745.92,-150.35 747.88,-139.79 772.2,-132 832.91,-112.54 1260.22,-91.68 1417.91,-84.55"/>
<polygon fill="#63b8ff" stroke="#63b8ff" points="637.88,-195.67 629.8,-202.53 640.39,-202.2 637.88,-195.67"/>
</g>
<!-- Node15 -->
<g id="node9" class="node">
<title>Node15</title>
<g id="a_node9"><a xlink:href="d__com__inf__game_8h.html" target="_top" xlink:title=" ">
<polygon fill="#fff0f0" stroke="red" points="529.2,-162 419.2,-162 419.2,-132 529.2,-132 529.2,-162"/>
<text text-anchor="start" x="427.2" y="-150" font-family="Helvetica,sans-Serif" font-size="10.00">include/d/com/d_com</text>
<text text-anchor="middle" x="474.2" y="-139" font-family="Helvetica,sans-Serif" font-size="10.00">_inf_game.h</text>
</a>
</g>
</g>
<!-- Node5&#45;&gt;Node15 -->
<g id="edge8" class="edge">
<title>Node5&#45;&gt;Node15</title>
<path fill="none" stroke="#63b8ff" d="M576.04,-198.13C554.64,-187.6 525.3,-173.16 503.61,-162.48"/>
<polygon fill="#63b8ff" stroke="#63b8ff" points="574.25,-201.16 584.77,-202.43 577.34,-194.88 574.25,-201.16"/>
</g>
<!-- Node140 -->
<g id="node11" class="node">
<title>Node140</title>
<g id="a_node11"><a xlink:href="d__attention_8cpp.html" target="_top" xlink:title=" ">
<polygon fill="white" stroke="#666666" points="1107.7,-90.5 1000.7,-90.5 1000.7,-71.5 1107.7,-71.5 1107.7,-90.5"/>
<text text-anchor="middle" x="1054.2" y="-78.5" font-family="Helvetica,sans-Serif" font-size="10.00">src/d/d_attention.cpp</text>
</a>
</g>
</g>
<!-- Node5&#45;&gt;Node140 -->
<g id="edge20" class="edge">
<title>Node5&#45;&gt;Node140</title>
<path fill="none" stroke="#63b8ff" d="M624.71,-196.31C650.11,-177.75 695.41,-147.41 739.2,-132 845.92,-94.44 879.9,-116.29 991.2,-96 999.25,-94.53 1007.83,-92.76 1015.98,-90.99"/>
<polygon fill="#63b8ff" stroke="#63b8ff" points="622.84,-193.34 616.91,-202.12 627.02,-198.96 622.84,-193.34"/>
</g>
<!-- Node195 -->
<g id="node19" class="node">
<title>Node195</title>
<g id="a_node19"><a xlink:href="d__att__dist_8cpp.html" target="_top" xlink:title=" ">
<polygon fill="white" stroke="#666666" points="649.2,-156.5 547.2,-156.5 547.2,-137.5 649.2,-137.5 649.2,-156.5"/>
<text text-anchor="middle" x="598.2" y="-144.5" font-family="Helvetica,sans-Serif" font-size="10.00">src/d/d_att_dist.cpp</text>
</a>
</g>
</g>
<!-- Node5&#45;&gt;Node195 -->
<g id="edge19" class="edge">
<title>Node5&#45;&gt;Node195</title>
<path fill="none" stroke="#63b8ff" d="M602.29,-191.68C601.19,-179.94 599.87,-165.77 599.03,-156.82"/>
<polygon fill="#63b8ff" stroke="#63b8ff" points="598.81,-191.96 603.22,-201.59 605.78,-191.31 598.81,-191.96"/>
</g>
<!-- Node6&#45;&gt;Node9 -->
<g id="edge6" class="edge">
<title>Node6&#45;&gt;Node9</title>
<path fill="none" stroke="#63b8ff" d="M1406.71,-74.38C1251.35,-61.83 878.56,-31.71 738.56,-20.39"/>
<polygon fill="#63b8ff" stroke="#63b8ff" points="1406.2,-77.86 1416.45,-75.17 1406.77,-70.88 1406.2,-77.86"/>
</g>
<!-- Node6&#45;&gt;Node13 -->
<g id="edge7" class="edge">
<title>Node6&#45;&gt;Node13</title>
<path fill="none" stroke="#63b8ff" d="M1545.91,-72.33C1658.83,-59.92 1880.26,-35.57 1991.32,-23.35"/>
<polygon fill="#63b8ff" stroke="#63b8ff" points="1545.73,-68.83 1536.17,-73.4 1546.5,-75.79 1545.73,-68.83"/>
</g>
<!-- Node15&#45;&gt;Node9 -->
<g id="edge10" class="edge">
<title>Node15&#45;&gt;Node9</title>
<path fill="none" stroke="#63b8ff" d="M540.72,-130.3C594.01,-117.45 660.64,-100.66 665.2,-96 682.46,-78.34 685.07,-48.01 684.95,-30.21"/>
<polygon fill="#63b8ff" stroke="#63b8ff" points="539.95,-126.88 531.04,-132.62 541.59,-133.69 539.95,-126.88"/>
</g>
<!-- Node15&#45;&gt;Node132 -->
<g id="edge9" class="edge">
<title>Node15&#45;&gt;Node132</title>
<path fill="none" stroke="#63b8ff" d="M474.2,-120.59C474.2,-110.06 474.2,-98.53 474.2,-90.84"/>
<polygon fill="#63b8ff" stroke="#63b8ff" points="470.7,-120.28 474.2,-130.28 477.7,-120.28 470.7,-120.28"/>
</g>
<!-- Node15&#45;&gt;Node140 -->
<g id="edge11" class="edge">
<title>Node15&#45;&gt;Node140</title>
<path fill="none" stroke="#63b8ff" d="M540.76,-131.76C739.96,-103.19 795.08,-125.44 991.2,-96 999.95,-94.69 1009.3,-92.85 1018.05,-90.94"/>
<polygon fill="#63b8ff" stroke="#63b8ff" points="540.5,-128.26 531.12,-133.18 541.52,-135.19 540.5,-128.26"/>
</g>
<!-- Node15&#45;&gt;Node151 -->
<g id="edge12" class="edge">
<title>Node15&#45;&gt;Node151</title>
<path fill="none" stroke="#63b8ff" d="M407.87,-138.26C338.91,-129.74 228,-114.75 133.2,-96 125.92,-94.56 118.18,-92.78 110.84,-90.98"/>
<polygon fill="#63b8ff" stroke="#63b8ff" points="407.13,-141.69 417.48,-139.43 407.98,-134.74 407.13,-141.69"/>
</g>
<!-- Node15&#45;&gt;Node161 -->
<g id="edge13" class="edge">
<title>Node15&#45;&gt;Node161</title>
<path fill="none" stroke="#63b8ff" d="M540.76,-131.86C1098.85,-64.34 1245.66,-122.82 1804.2,-96 1857.09,-93.46 1917.49,-89.22 1959.34,-86.07"/>
<polygon fill="#63b8ff" stroke="#63b8ff" points="540.6,-128.35 531.1,-133.04 541.45,-135.3 540.6,-128.35"/>
</g>
<!-- Node15&#45;&gt;Node165 -->
<g id="edge14" class="edge">
<title>Node15&#45;&gt;Node165</title>
<path fill="none" stroke="#63b8ff" d="M512.07,-126.45C530.9,-116.73 553.25,-105.2 570.46,-96.31"/>
<polygon fill="#63b8ff" stroke="#63b8ff" points="510.65,-123.25 503.37,-130.94 513.86,-129.47 510.65,-123.25"/>
</g>
<!-- Node15&#45;&gt;Node181 -->
<g id="edge15" class="edge">
<title>Node15&#45;&gt;Node181</title>
<path fill="none" stroke="#63b8ff" d="M407.83,-130.55C354.56,-118.16 281.64,-101.19 237.62,-90.94"/>
<polygon fill="#63b8ff" stroke="#63b8ff" points="406.87,-133.92 417.41,-132.78 408.46,-127.11 406.87,-133.92"/>
</g>
<!-- Node15&#45;&gt;Node188 -->
<g id="edge16" class="edge">
<title>Node15&#45;&gt;Node188</title>
<path fill="none" stroke="#63b8ff" d="M434.19,-126.75C409.53,-114.88 379.06,-100.22 359.87,-90.99"/>
<polygon fill="#63b8ff" stroke="#63b8ff" points="432.46,-129.8 442.99,-130.98 435.49,-123.49 432.46,-129.8"/>
</g>
<!-- Node15&#45;&gt;Node189 -->
<g id="edge17" class="edge">
<title>Node15&#45;&gt;Node189</title>
<path fill="none" stroke="#63b8ff" d="M540.85,-131.44C613.35,-115.85 686.58,-100.4 731.55,-90.95"/>
<polygon fill="#63b8ff" stroke="#63b8ff" points="540.22,-127.99 531.18,-133.52 541.69,-134.84 540.22,-127.99"/>
</g>
<!-- Node15&#45;&gt;Node192 -->
<g id="edge18" class="edge">
<title>Node15&#45;&gt;Node192</title>
<path fill="none" stroke="#63b8ff" d="M540.78,-131.68C675.2,-109.71 712.41,-116.19 844.2,-96 847.17,-95.54 850.21,-95.06 853.27,-94.55"/>
<polygon fill="#63b8ff" stroke="#63b8ff" points="540.42,-128.19 531.13,-133.28 541.57,-135.09 540.42,-128.19"/>
</g>
<!-- Node197 -->
<g id="node21" class="node">
<title>Node197</title>
<g id="a_node21"><a xlink:href="d__a__player_8h.html" target="_top" xlink:title=" ">
<polygon fill="#fff0f0" stroke="red" points="2071.7,-156.5 1950.7,-156.5 1950.7,-137.5 2071.7,-137.5 2071.7,-156.5"/>
<text text-anchor="middle" x="2011.2" y="-144.5" font-family="Helvetica,sans-Serif" font-size="10.00">include/d/a/d_a_player.h</text>
</a>
</g>
</g>
<!-- Node196&#45;&gt;Node197 -->
<g id="edge22" class="edge">
<title>Node196&#45;&gt;Node197</title>
<path fill="none" stroke="#63b8ff" d="M1459.64,-202.41C1471.47,-200.84 1483.69,-199.3 1495.2,-198 1675.65,-177.65 1721.66,-181.57 1902.2,-162 1917.85,-160.3 1934.73,-158.25 1950.43,-156.24"/>
<polygon fill="#63b8ff" stroke="#63b8ff" points="1459.4,-198.91 1449.96,-203.72 1460.34,-205.85 1459.4,-198.91"/>
</g>
<!-- Node203 -->
<g id="node25" class="node">
<title>Node203</title>
<g id="a_node25"><a xlink:href="d__camera_8h.html" target="_top" xlink:title=" ">
<polygon fill="#fff0f0" stroke="red" points="1774.7,-156.5 1665.7,-156.5 1665.7,-137.5 1774.7,-137.5 1774.7,-156.5"/>
<text text-anchor="middle" x="1720.2" y="-144.5" font-family="Helvetica,sans-Serif" font-size="10.00">include/d/d_camera.h</text>
</a>
</g>
</g>
<!-- Node196&#45;&gt;Node203 -->
<g id="edge29" class="edge">
<title>Node196&#45;&gt;Node203</title>
<path fill="none" stroke="#63b8ff" d="M1448.08,-200.78C1452.85,-199.83 1457.61,-198.89 1462.2,-198 1548.29,-181.28 1570.24,-179.37 1656.2,-162 1664,-160.42 1672.32,-158.66 1680.3,-156.93"/>
<polygon fill="#63b8ff" stroke="#63b8ff" points="1447.58,-197.31 1438.46,-202.71 1448.96,-204.17 1447.58,-197.31"/>
</g>
<!-- Node208 -->
<g id="node26" class="node">
<title>Node208</title>
<g id="a_node26"><a xlink:href="d__kantera__icon__meter_8h.html" target="_top" xlink:title=" ">
<polygon fill="#fff0f0" stroke="red" points="1893.7,-162 1792.7,-162 1792.7,-132 1893.7,-132 1893.7,-162"/>
<text text-anchor="start" x="1800.7" y="-150" font-family="Helvetica,sans-Serif" font-size="10.00">include/d/d_kantera</text>
<text text-anchor="middle" x="1843.2" y="-139" font-family="Helvetica,sans-Serif" font-size="10.00">_icon_meter.h</text>
</a>
</g>
</g>
<!-- Node196&#45;&gt;Node208 -->
<g id="edge30" class="edge">
<title>Node196&#45;&gt;Node208</title>
<path fill="none" stroke="#63b8ff" d="M1445.22,-200.94C1450.93,-199.87 1456.68,-198.87 1462.2,-198 1604.02,-175.7 1641.72,-186.35 1783.2,-162 1786.15,-161.49 1789.17,-160.93 1792.22,-160.33"/>
<polygon fill="#63b8ff" stroke="#63b8ff" points="1444.96,-197.42 1435.81,-202.75 1446.29,-204.29 1444.96,-197.42"/>
</g>
<!-- Node209 -->
<g id="node27" class="node">
<title>Node209</title>
<g id="a_node27"><a xlink:href="d__select__cursor_8h.html" target="_top" xlink:title=" ">
<polygon fill="#fff0f0" stroke="red" points="2536.7,-162 2441.7,-162 2441.7,-132 2536.7,-132 2536.7,-162"/>
<text text-anchor="start" x="2449.7" y="-150" font-family="Helvetica,sans-Serif" font-size="10.00">include/d/d_select</text>
<text text-anchor="middle" x="2489.2" y="-139" font-family="Helvetica,sans-Serif" font-size="10.00">_cursor.h</text>
</a>
</g>
</g>
<!-- Node196&#45;&gt;Node209 -->
<g id="edge31" class="edge">
<title>Node196&#45;&gt;Node209</title>
<path fill="none" stroke="#63b8ff" d="M1459.81,-202.02C1471.58,-200.49 1483.74,-199.07 1495.2,-198 1682.29,-180.49 2268.98,-156.64 2441.21,-149.86"/>
<polygon fill="#63b8ff" stroke="#63b8ff" points="1459.63,-198.51 1450.18,-203.3 1460.56,-205.45 1459.63,-198.51"/>
</g>
<!-- Node213 -->
<g id="node29" class="node">
<title>Node213</title>
<g id="a_node29"><a xlink:href="d__file__sel__info_8h.html" target="_top" xlink:title=" ">
<polygon fill="#fff0f0" stroke="red" points="1243.2,-162 1147.2,-162 1147.2,-132 1243.2,-132 1243.2,-162"/>
<text text-anchor="start" x="1155.2" y="-150" font-family="Helvetica,sans-Serif" font-size="10.00">include/d/file/d_file</text>
<text text-anchor="middle" x="1195.2" y="-139" font-family="Helvetica,sans-Serif" font-size="10.00">_sel_info.h</text>
</a>
</g>
</g>
<!-- Node196&#45;&gt;Node213 -->
<g id="edge33" class="edge">
<title>Node196&#45;&gt;Node213</title>
<path fill="none" stroke="#63b8ff" d="M1355.12,-199.69C1322.24,-189.06 1274.69,-173.69 1239.99,-162.48"/>
<polygon fill="#63b8ff" stroke="#63b8ff" points="1353.64,-202.89 1364.23,-202.64 1355.79,-196.23 1353.64,-202.89"/>
</g>
<!-- Node214 -->
<g id="node30" class="node">
<title>Node214</title>
<g id="a_node30"><a xlink:href="d__map__path_8h.html" target="_top" xlink:title=" ">
<polygon fill="#fff0f0" stroke="red" points="1371.2,-162 1261.2,-162 1261.2,-132 1371.2,-132 1371.2,-162"/>
<text text-anchor="start" x="1269.2" y="-150" font-family="Helvetica,sans-Serif" font-size="10.00">include/d/map/d_map</text>
<text text-anchor="middle" x="1316.2" y="-139" font-family="Helvetica,sans-Serif" font-size="10.00">_path.h</text>
</a>
</g>
</g>
<!-- Node196&#45;&gt;Node214 -->
<g id="edge34" class="edge">
<title>Node196&#45;&gt;Node214</title>
<path fill="none" stroke="#63b8ff" d="M1373.85,-195.92C1361.49,-185.64 1345.59,-172.43 1333.62,-162.48"/>
<polygon fill="#63b8ff" stroke="#63b8ff" points="1371.4,-198.43 1381.33,-202.13 1375.88,-193.05 1371.4,-198.43"/>
</g>
<!-- Node218 -->
<g id="node31" class="node">
<title>Node218</title>
<g id="a_node31"><a xlink:href="d__menu__collect_8h.html" target="_top" xlink:title=" ">
<polygon fill="#fff0f0" stroke="red" points="1091.2,-162 971.2,-162 971.2,-132 1091.2,-132 1091.2,-162"/>
<text text-anchor="start" x="979.2" y="-150" font-family="Helvetica,sans-Serif" font-size="10.00">include/d/menu/d_menu</text>
<text text-anchor="middle" x="1031.2" y="-139" font-family="Helvetica,sans-Serif" font-size="10.00">_collect.h</text>
</a>
</g>
</g>
<!-- Node196&#45;&gt;Node218 -->
<g id="edge35" class="edge">
<title>Node196&#45;&gt;Node218</title>
<path fill="none" stroke="#63b8ff" d="M1331.25,-201.05C1264.19,-189.19 1157.94,-170.41 1091.52,-158.66"/>
<polygon fill="#63b8ff" stroke="#63b8ff" points="1330.54,-204.48 1340.99,-202.77 1331.76,-197.58 1330.54,-204.48"/>
</g>
<!-- Node219 -->
<g id="node32" class="node">
<title>Node219</title>
<g id="a_node32"><a xlink:href="d__menu__fishing_8h.html" target="_top" xlink:title=" ">
<polygon fill="#fff0f0" stroke="red" points="1509.2,-162 1389.2,-162 1389.2,-132 1509.2,-132 1509.2,-162"/>
<text text-anchor="start" x="1397.2" y="-150" font-family="Helvetica,sans-Serif" font-size="10.00">include/d/menu/d_menu</text>
<text text-anchor="middle" x="1449.2" y="-139" font-family="Helvetica,sans-Serif" font-size="10.00">_fishing.h</text>
</a>
</g>
</g>
<!-- Node196&#45;&gt;Node219 -->
<g id="edge36" class="edge">
<title>Node196&#45;&gt;Node219</title>
<path fill="none" stroke="#63b8ff" d="M1408.39,-194.64C1417.29,-184.47 1428.37,-171.8 1436.75,-162.23"/>
<polygon fill="#63b8ff" stroke="#63b8ff" points="1405.93,-192.13 1401.98,-201.96 1411.2,-196.74 1405.93,-192.13"/>
</g>
<!-- Node220 -->
<g id="node33" class="node">
<title>Node220</title>
<g id="a_node33"><a xlink:href="d__menu__insect_8h.html" target="_top" xlink:title=" ">
<polygon fill="#fff0f0" stroke="red" points="1647.2,-162 1527.2,-162 1527.2,-132 1647.2,-132 1647.2,-162"/>
<text text-anchor="start" x="1535.2" y="-150" font-family="Helvetica,sans-Serif" font-size="10.00">include/d/menu/d_menu</text>
<text text-anchor="middle" x="1587.2" y="-139" font-family="Helvetica,sans-Serif" font-size="10.00">_insect.h</text>
</a>
</g>
</g>
<!-- Node196&#45;&gt;Node220 -->
<g id="edge37" class="edge">
<title>Node196&#45;&gt;Node220</title>
<path fill="none" stroke="#63b8ff" d="M1430.93,-199.55C1463.13,-188.93 1509.46,-173.65 1543.31,-162.48"/>
<polygon fill="#63b8ff" stroke="#63b8ff" points="1430.01,-196.17 1421.61,-202.63 1432.2,-202.82 1430.01,-196.17"/>
</g>
<!-- Node197&#45;&gt;Node6 -->
<g id="edge23" class="edge">
<title>Node197&#45;&gt;Node6</title>
<path fill="none" stroke="#63b8ff" d="M1954.86,-135.01C1948.58,-133.92 1942.26,-132.89 1936.2,-132 1792.36,-110.79 1621.96,-94.58 1534.47,-86.9"/>
<polygon fill="#63b8ff" stroke="#63b8ff" points="1954.13,-138.43 1964.59,-136.74 1955.36,-131.54 1954.13,-138.43"/>
</g>
<!-- Node197&#45;&gt;Node140 -->
<g id="edge25" class="edge">
<title>Node197&#45;&gt;Node140</title>
<path fill="none" stroke="#63b8ff" d="M1957.2,-135.07C1950.16,-133.89 1943.02,-132.83 1936.2,-132 1774.43,-112.4 1273.5,-90.89 1107.93,-84.14"/>
<polygon fill="#63b8ff" stroke="#63b8ff" points="1956.57,-138.51 1967.02,-136.79 1957.78,-131.62 1956.57,-138.51"/>
</g>
<!-- Node197&#45;&gt;Node161 -->
<g id="edge26" class="edge">
<title>Node197&#45;&gt;Node161</title>
<path fill="none" stroke="#63b8ff" d="M2011.2,-125.78C2011.2,-116.17 2011.2,-104.92 2011.2,-96.23"/>
<polygon fill="#63b8ff" stroke="#63b8ff" points="2007.7,-125.59 2011.2,-135.59 2014.7,-125.59 2007.7,-125.59"/>
</g>
<!-- Node197&#45;&gt;Node200 -->
<g id="edge24" class="edge">
<title>Node197&#45;&gt;Node200</title>
<path fill="none" stroke="#63b8ff" d="M1963.29,-134.38C1915.75,-122.86 1843.28,-105.29 1795.58,-93.73"/>
<polygon fill="#63b8ff" stroke="#63b8ff" points="1962.2,-137.72 1972.74,-136.68 1963.85,-130.92 1962.2,-137.72"/>
</g>
<!-- Node197&#45;&gt;Node57 -->
<g id="edge27" class="edge">
<title>Node197&#45;&gt;Node57</title>
<path fill="none" stroke="#63b8ff" d="M2069.09,-134.87C2133.93,-122.41 2237.76,-102.46 2297.59,-90.96"/>
<polygon fill="#63b8ff" stroke="#63b8ff" points="2068.5,-131.42 2059.34,-136.75 2069.82,-138.3 2068.5,-131.42"/>
</g>
<!-- Node197&#45;&gt;Node124 -->
<g id="edge28" class="edge">
<title>Node197&#45;&gt;Node124</title>
<path fill="none" stroke="#63b8ff" d="M2045.14,-132.99C2072.79,-122.4 2111.79,-107.45 2140.42,-96.48"/>
<polygon fill="#63b8ff" stroke="#63b8ff" points="2043.92,-129.71 2035.83,-136.56 2046.42,-136.25 2043.92,-129.71"/>
</g>
<!-- Node209&#45;&gt;Node18 -->
<g id="edge32" class="edge">
<title>Node209&#45;&gt;Node18</title>
<path fill="none" stroke="#63b8ff" d="M2498.48,-121.27C2502.49,-110.55 2506.94,-98.7 2509.88,-90.84"/>
<polygon fill="#63b8ff" stroke="#63b8ff" points="2495.29,-119.79 2495.06,-130.38 2501.85,-122.24 2495.29,-119.79"/>
</g>
<!-- Node240&#45;&gt;Node15 -->
<g id="edge40" class="edge">
<title>Node240&#45;&gt;Node15</title>
<path fill="none" stroke="#63b8ff" d="M474.2,-191.78C474.2,-182.17 474.2,-170.92 474.2,-162.23"/>
<polygon fill="#63b8ff" stroke="#63b8ff" points="470.7,-191.59 474.2,-201.59 477.7,-191.59 470.7,-191.59"/>
</g>
<!-- Node241&#45;&gt;Node165 -->
<g id="edge44" class="edge">
<title>Node241&#45;&gt;Node165</title>
<path fill="none" stroke="#63b8ff" d="M946.07,-186.39C944.53,-168.52 939.41,-145.54 924.2,-132 919.22,-127.57 748.93,-103.12 656.51,-90.13"/>
<polygon fill="#63b8ff" stroke="#63b8ff" points="942.56,-186.44 946.56,-196.25 949.56,-186.09 942.56,-186.44"/>
</g>
<!-- Node241&#45;&gt;Node218 -->
<g id="edge42" class="edge">
<title>Node241&#45;&gt;Node218</title>
<path fill="none" stroke="#63b8ff" d="M974.12,-190.97C986.57,-181.61 1000.9,-170.81 1012.09,-162.39"/>
<polygon fill="#63b8ff" stroke="#63b8ff" points="972.16,-188.07 966.27,-196.89 976.37,-193.67 972.16,-188.07"/>
</g>
<!-- Node241&#45;&gt;Node51 -->
<g id="edge43" class="edge">
<title>Node241&#45;&gt;Node51</title>
<path fill="none" stroke="#63b8ff" d="M914.94,-191.58C897.01,-179.87 875.41,-165.77 861.74,-156.84"/>
<polygon fill="#63b8ff" stroke="#63b8ff" points="912.9,-194.43 923.18,-196.97 916.72,-188.57 912.9,-194.43"/>
</g>
</g>
</svg>
