<?xml version="1.0" encoding="UTF-8" standalone="no"?>
<!DOCTYPE svg PUBLIC "-//W3C//DTD SVG 1.1//EN"
 "http://www.w3.org/Graphics/SVG/1.1/DTD/svg11.dtd">
<!-- Generated by graphviz version 7.0.5 (20221223.1930)
 -->
<!-- Title: include/Z2AudioLib/Z2SoundMgr.h Pages: 1 -->
<!--zoomable 610 -->
<svg id="main" version="1.1" xmlns="http://www.w3.org/2000/svg" xmlns:xlink="http://www.w3.org/1999/xlink" xml:space="preserve" onload="init(evt)">
<style type="text/css"><![CDATA[
.edge:hover path { stroke: red; }
.edge:hover polygon { stroke: red; fill: red; }
]]></style>
<script type="text/javascript"><![CDATA[
var edges = document.getElementsByTagName('g');
if (edges && edges.length) {
  for (var i=0;i<edges.length;i++) {
    if (edges[i].id.substr(0,4)=='edge') {
      edges[i].setAttribute('class','edge');
    }
  }
}
]]></script>
        <defs>
                <circle id="rim" cx="0" cy="0" r="7"/>
                <circle id="rim2" cx="0" cy="0" r="3.5"/>
                <g id="zoomPlus">
                        <use xlink:href="#rim" fill="#404040">
                                <set attributeName="fill" to="#808080" begin="zoomplus.mouseover" end="zoomplus.mouseout"/>
                        </use>
                        <path d="M-4,0h8M0,-4v8" fill="none" stroke="white" stroke-width="1.5" pointer-events="none"/>
                </g>
                <g id="zoomMin">
                        <use xlink:href="#rim" fill="#404040">
                                <set attributeName="fill" to="#808080" begin="zoomminus.mouseover" end="zoomminus.mouseout"/>
                        </use>
                        <path d="M-4,0h8" fill="none" stroke="white" stroke-width="1.5" pointer-events="none"/>
                </g>
                <g id="dirArrow">
                        <path fill="none" stroke="white" stroke-width="1.5" d="M0,-3.0v7 M-2.5,-0.5L0,-3.0L2.5,-0.5"/>
                </g>
               <g id="resetDef">
                       <use xlink:href="#rim2" fill="#404040">
                               <set attributeName="fill" to="#808080" begin="reset.mouseover" end="reset.mouseout"/>
                       </use>
               </g>
        </defs>

<script type="text/javascript">
var viewWidth = 1397;
var viewHeight = 610;
var sectionId = 'dynsection-0';
</script>
<script xlink:href="svgpan.js"/>
<svg id="graph" class="graph">
<g id="viewport">
<title>include/Z2AudioLib/Z2SoundMgr.h</title>
<!-- Node1 -->
<g id="node1" class="node">
<title>Node1</title>
<g id="a_node1"><a xlink:title=" ">
<polygon fill="#999999" stroke="#666666" points="791,-602 691,-602 691,-572 791,-572 791,-602"/>
<text text-anchor="start" x="699" y="-590" font-family="Helvetica,sans-Serif" font-size="10.00">include/Z2AudioLib</text>
<text text-anchor="middle" x="741" y="-579" font-family="Helvetica,sans-Serif" font-size="10.00">/Z2SoundMgr.h</text>
</a>
</g>
</g>
<!-- Node2 -->
<g id="node2" class="node">
<title>Node2</title>
<g id="a_node2"><a xlink:href="JAISeMgr_8h.html" target="_top" xlink:title=" ">
<polygon fill="white" stroke="#666666" points="891.5,-536 744.5,-536 744.5,-517 891.5,-517 891.5,-536"/>
<text text-anchor="middle" x="818" y="-524" font-family="Helvetica,sans-Serif" font-size="10.00">JSystem/JAudio2/JAISeMgr.h</text>
</a>
</g>
</g>
<!-- Node1&#45;&gt;Node2 -->
<g id="edge1" class="edge">
<title>Node1&#45;&gt;Node2</title>
<path fill="none" stroke="#63b8ff" d="M760.03,-571.54C771.45,-562.87 785.95,-551.85 797.6,-543"/>
<polygon fill="#63b8ff" stroke="#63b8ff" points="799.53,-545.93 805.38,-537.09 795.3,-540.35 799.53,-545.93"/>
</g>
<!-- Node17 -->
<g id="node17" class="node">
<title>Node17</title>
<g id="a_node17"><a xlink:href="global_8h.html" target="_top" xlink:title=" ">
<polygon fill="white" stroke="#666666" points="216,-288.5 166,-288.5 166,-269.5 216,-269.5 216,-288.5"/>
<text text-anchor="middle" x="191" y="-276.5" font-family="Helvetica,sans-Serif" font-size="10.00">global.h</text>
</a>
</g>
</g>
<!-- Node1&#45;&gt;Node17 -->
<g id="edge53" class="edge">
<title>Node1&#45;&gt;Node17</title>
<path fill="none" stroke="#63b8ff" d="M690.68,-585C561.09,-581.07 226,-561.75 226,-467 226,-467 226,-467 226,-399 226,-362.52 210.68,-322.22 200.31,-299.12"/>
<polygon fill="#63b8ff" stroke="#63b8ff" points="203.62,-297.94 196.22,-290.36 197.28,-300.9 203.62,-297.94"/>
</g>
<!-- Node32 -->
<g id="node32" class="node">
<title>Node32</title>
<g id="a_node32"><a xlink:href="JAISeqMgr_8h.html" target="_top" xlink:title=" ">
<polygon fill="white" stroke="#666666" points="1092,-475.5 940,-475.5 940,-456.5 1092,-456.5 1092,-475.5"/>
<text text-anchor="middle" x="1016" y="-463.5" font-family="Helvetica,sans-Serif" font-size="10.00">JSystem/JAudio2/JAISeqMgr.h</text>
</a>
</g>
</g>
<!-- Node1&#45;&gt;Node32 -->
<g id="edge45" class="edge">
<title>Node1&#45;&gt;Node32</title>
<path fill="none" stroke="#63b8ff" d="M791.5,-573.53C823.56,-564.81 865.55,-551.9 901,-536 935.08,-520.71 971.61,-497.49 994.13,-482.28"/>
<polygon fill="#63b8ff" stroke="#63b8ff" points="995.91,-485.3 1002.19,-476.77 991.96,-479.52 995.91,-485.3"/>
</g>
<!-- Node33 -->
<g id="node33" class="node">
<title>Node33</title>
<g id="a_node33"><a xlink:href="JAIStreamMgr_8h.html" target="_top" xlink:title=" ">
<polygon fill="white" stroke="#666666" points="734.5,-481 591.5,-481 591.5,-451 734.5,-451 734.5,-481"/>
<text text-anchor="start" x="599.5" y="-469" font-family="Helvetica,sans-Serif" font-size="10.00">JSystem/JAudio2/JAIStream</text>
<text text-anchor="middle" x="663" y="-458" font-family="Helvetica,sans-Serif" font-size="10.00">Mgr.h</text>
</a>
</g>
</g>
<!-- Node1&#45;&gt;Node33 -->
<g id="edge49" class="edge">
<title>Node1&#45;&gt;Node33</title>
<path fill="none" stroke="#63b8ff" d="M731.75,-571.88C718.68,-551.95 694.65,-515.29 678.75,-491.03"/>
<polygon fill="#63b8ff" stroke="#63b8ff" points="681.72,-489.18 673.31,-482.74 675.87,-493.02 681.72,-489.18"/>
</g>
<!-- Node3 -->
<g id="node3" class="node">
<title>Node3</title>
<g id="a_node3"><a xlink:href="JAISe_8h.html" target="_top" xlink:title=" ">
<polygon fill="white" stroke="#666666" points="883.5,-475.5 752.5,-475.5 752.5,-456.5 883.5,-456.5 883.5,-475.5"/>
<text text-anchor="middle" x="818" y="-463.5" font-family="Helvetica,sans-Serif" font-size="10.00">JSystem/JAudio2/JAISe.h</text>
</a>
</g>
</g>
<!-- Node2&#45;&gt;Node3 -->
<g id="edge2" class="edge">
<title>Node2&#45;&gt;Node3</title>
<path fill="none" stroke="#63b8ff" d="M818,-516.87C818,-509 818,-497.1 818,-486.89"/>
<polygon fill="#63b8ff" stroke="#63b8ff" points="821.5,-487.18 818,-477.18 814.5,-487.18 821.5,-487.18"/>
</g>
<!-- Node2&#45;&gt;Node17 -->
<g id="edge44" class="edge">
<title>Node2&#45;&gt;Node17</title>
<path fill="none" stroke="#63b8ff" d="M744.03,-517.13C696.8,-510.44 634.75,-499.1 582,-481 434.21,-430.28 272.76,-332.15 214,-294.86"/>
<polygon fill="#63b8ff" stroke="#63b8ff" points="216.14,-292.08 205.83,-289.64 212.37,-297.98 216.14,-292.08"/>
</g>
<!-- Node26 -->
<g id="node26" class="node">
<title>Node26</title>
<g id="a_node26"><a xlink:href="JSUList_8h.html" target="_top" xlink:title=" ">
<polygon fill="white" stroke="#666666" points="1049.5,-409.5 906.5,-409.5 906.5,-390.5 1049.5,-390.5 1049.5,-409.5"/>
<text text-anchor="middle" x="978" y="-397.5" font-family="Helvetica,sans-Serif" font-size="10.00">JSystem/JSupport/JSUList.h</text>
</a>
</g>
</g>
<!-- Node2&#45;&gt;Node26 -->
<g id="edge43" class="edge">
<title>Node2&#45;&gt;Node26</title>
<path fill="none" stroke="#63b8ff" d="M835.36,-516.61C851.02,-508.28 874.37,-495.02 893,-481 919.19,-461.28 946.23,-434.53 962.58,-417.51"/>
<polygon fill="#63b8ff" stroke="#63b8ff" points="964.71,-420.35 969.06,-410.69 959.63,-415.54 964.71,-420.35"/>
</g>
<!-- Node27 -->
<g id="node27" class="node">
<title>Node27</title>
<g id="a_node27"><a xlink:href="JASHeapCtrl_8h.html" target="_top" xlink:title=" ">
<polygon fill="white" stroke="#666666" points="1271.5,-475.5 1110.5,-475.5 1110.5,-456.5 1271.5,-456.5 1271.5,-475.5"/>
<text text-anchor="middle" x="1191" y="-463.5" font-family="Helvetica,sans-Serif" font-size="10.00">JSystem/JAudio2/JASHeapCtrl.h</text>
</a>
</g>
</g>
<!-- Node2&#45;&gt;Node27 -->
<g id="edge35" class="edge">
<title>Node2&#45;&gt;Node27</title>
<path fill="none" stroke="#63b8ff" d="M875.06,-516.55C941.6,-506.12 1051.52,-488.88 1122.58,-477.73"/>
<polygon fill="#63b8ff" stroke="#63b8ff" points="1122.81,-481.24 1132.15,-476.23 1121.73,-474.32 1122.81,-481.24"/>
</g>
<!-- Node4 -->
<g id="node4" class="node">
<title>Node4</title>
<g id="a_node4"><a xlink:href="JAISeqDataMgr_8h.html" target="_top" xlink:title=" ">
<polygon fill="white" stroke="#666666" points="849.5,-415 700.5,-415 700.5,-385 849.5,-385 849.5,-415"/>
<text text-anchor="start" x="708.5" y="-403" font-family="Helvetica,sans-Serif" font-size="10.00">JSystem/JAudio2/JAISeqData</text>
<text text-anchor="middle" x="775" y="-392" font-family="Helvetica,sans-Serif" font-size="10.00">Mgr.h</text>
</a>
</g>
</g>
<!-- Node3&#45;&gt;Node4 -->
<g id="edge3" class="edge">
<title>Node3&#45;&gt;Node4</title>
<path fill="none" stroke="#63b8ff" d="M812.02,-456.1C806.58,-448 798.3,-435.67 790.95,-424.73"/>
<polygon fill="#63b8ff" stroke="#63b8ff" points="793.89,-422.84 785.41,-416.49 788.08,-426.74 793.89,-422.84"/>
</g>
<!-- Node18 -->
<g id="node18" class="node">
<title>Node18</title>
<g id="a_node18"><a xlink:href="JASTrack_8h.html" target="_top" xlink:title=" ">
<polygon fill="white" stroke="#666666" points="801.5,-288.5 654.5,-288.5 654.5,-269.5 801.5,-269.5 801.5,-288.5"/>
<text text-anchor="middle" x="728" y="-276.5" font-family="Helvetica,sans-Serif" font-size="10.00">JSystem/JAudio2/JASTrack.h</text>
</a>
</g>
</g>
<!-- Node3&#45;&gt;Node18 -->
<g id="edge20" class="edge">
<title>Node3&#45;&gt;Node18</title>
<path fill="none" stroke="#63b8ff" d="M828.34,-456.2C844.23,-441.54 871.56,-411.17 859,-385 838.2,-341.68 789.86,-310.61 758.08,-293.98"/>
<polygon fill="#63b8ff" stroke="#63b8ff" points="759.86,-290.95 749.35,-289.57 756.7,-297.2 759.86,-290.95"/>
</g>
<!-- Node3&#45;&gt;Node26 -->
<g id="edge33" class="edge">
<title>Node3&#45;&gt;Node26</title>
<path fill="none" stroke="#63b8ff" d="M840.25,-456.1C867.51,-445.19 913.95,-426.62 945.29,-414.09"/>
<polygon fill="#63b8ff" stroke="#63b8ff" points="946.29,-417.45 954.28,-410.49 943.69,-410.95 946.29,-417.45"/>
</g>
<!-- Node5 -->
<g id="node5" class="node">
<title>Node5</title>
<g id="a_node5"><a xlink:href="JAISound_8h.html" target="_top" xlink:title=" ">
<polygon fill="white" stroke="#666666" points="543,-349 397,-349 397,-330 543,-330 543,-349"/>
<text text-anchor="middle" x="470" y="-337" font-family="Helvetica,sans-Serif" font-size="10.00">JSystem/JAudio2/JAISound.h</text>
</a>
</g>
</g>
<!-- Node4&#45;&gt;Node5 -->
<g id="edge4" class="edge">
<title>Node4&#45;&gt;Node5</title>
<path fill="none" stroke="#63b8ff" d="M700.39,-384.69C647.21,-374.49 576.77,-360.98 527.84,-351.59"/>
<polygon fill="#63b8ff" stroke="#63b8ff" points="528.78,-348.21 518.3,-349.76 527.46,-355.08 528.78,-348.21"/>
</g>
<!-- Node6 -->
<g id="node6" class="node">
<title>Node6</title>
<g id="a_node6"><a xlink:href="JAISoundParams_8h.html" target="_top" xlink:title=" ">
<polygon fill="white" stroke="#666666" points="542.5,-294 403.5,-294 403.5,-264 542.5,-264 542.5,-294"/>
<text text-anchor="start" x="411.5" y="-282" font-family="Helvetica,sans-Serif" font-size="10.00">JSystem/JAudio2/JAISound</text>
<text text-anchor="middle" x="473" y="-271" font-family="Helvetica,sans-Serif" font-size="10.00">Params.h</text>
</a>
</g>
</g>
<!-- Node5&#45;&gt;Node6 -->
<g id="edge5" class="edge">
<title>Node5&#45;&gt;Node6</title>
<path fill="none" stroke="#63b8ff" d="M470.44,-329.87C470.77,-323.4 471.25,-314.2 471.69,-305.45"/>
<polygon fill="#63b8ff" stroke="#63b8ff" points="475.18,-305.79 472.2,-295.63 468.19,-305.43 475.18,-305.79"/>
</g>
<!-- Node10 -->
<g id="node10" class="node">
<title>Node10</title>
<g id="a_node10"><a xlink:href="JAIAudible_8h.html" target="_top" xlink:title=" ">
<polygon fill="white" stroke="#666666" points="385.5,-288.5 234.5,-288.5 234.5,-269.5 385.5,-269.5 385.5,-288.5"/>
<text text-anchor="middle" x="310" y="-276.5" font-family="Helvetica,sans-Serif" font-size="10.00">JSystem/JAudio2/JAIAudible.h</text>
</a>
</g>
</g>
<!-- Node5&#45;&gt;Node10 -->
<g id="edge9" class="edge">
<title>Node5&#45;&gt;Node10</title>
<path fill="none" stroke="#63b8ff" d="M445.7,-329.62C418.92,-319.82 375.6,-303.98 345.12,-292.84"/>
<polygon fill="#63b8ff" stroke="#63b8ff" points="346.54,-289.64 335.95,-289.49 344.14,-296.21 346.54,-289.64"/>
</g>
<!-- Node5&#45;&gt;Node17 -->
<g id="edge18" class="edge">
<title>Node5&#45;&gt;Node17</title>
<path fill="none" stroke="#63b8ff" d="M398.05,-329.51C348.73,-322.36 282.15,-310.75 225,-294 223.66,-293.61 222.29,-293.18 220.92,-292.72"/>
<polygon fill="#63b8ff" stroke="#63b8ff" points="222.54,-289.59 211.94,-289.39 220.1,-296.15 222.54,-289.59"/>
</g>
<!-- Node7 -->
<g id="node7" class="node">
<title>Node7</title>
<g id="a_node7"><a xlink:href="JASSoundParams_8h.html" target="_top" xlink:title=" ">
<polygon fill="white" stroke="#666666" points="487.5,-228 344.5,-228 344.5,-198 487.5,-198 487.5,-228"/>
<text text-anchor="start" x="352.5" y="-216" font-family="Helvetica,sans-Serif" font-size="10.00">JSystem/JAudio2/JASSound</text>
<text text-anchor="middle" x="416" y="-205" font-family="Helvetica,sans-Serif" font-size="10.00">Params.h</text>
</a>
</g>
</g>
<!-- Node6&#45;&gt;Node7 -->
<g id="edge6" class="edge">
<title>Node6&#45;&gt;Node7</title>
<path fill="none" stroke="#63b8ff" d="M460.35,-263.8C453.27,-255.84 444.27,-245.74 436.23,-236.71"/>
<polygon fill="#63b8ff" stroke="#63b8ff" points="438.89,-234.43 429.62,-229.29 433.66,-239.09 438.89,-234.43"/>
</g>
<!-- Node8 -->
<g id="node8" class="node">
<title>Node8</title>
<g id="a_node8"><a xlink:href="types_8h.html" target="_top" xlink:title=" ">
<polygon fill="white" stroke="#666666" points="842.5,-90.5 761.5,-90.5 761.5,-71.5 842.5,-71.5 842.5,-90.5"/>
<text text-anchor="middle" x="802" y="-78.5" font-family="Helvetica,sans-Serif" font-size="10.00">dolphin/types.h</text>
</a>
</g>
</g>
<!-- Node7&#45;&gt;Node8 -->
<g id="edge7" class="edge">
<title>Node7&#45;&gt;Node8</title>
<path fill="none" stroke="#63b8ff" d="M426.76,-197.77C441.55,-179.35 469.98,-147.75 502,-132 582.34,-92.47 687.87,-83.37 749.98,-81.73"/>
<polygon fill="#63b8ff" stroke="#63b8ff" points="749.98,-85.23 759.91,-81.53 749.84,-78.24 749.98,-85.23"/>
</g>
<!-- Node9 -->
<g id="node9" class="node">
<title>Node9</title>
<g id="a_node9"><a xlink:href="stddef_8h.html" target="_top" xlink:title=" ">
<polygon fill="white" stroke="#666666" points="870,-30 734,-30 734,0 870,0 870,-30"/>
<text text-anchor="start" x="742" y="-18" font-family="Helvetica,sans-Serif" font-size="10.00">MSL_C/MSL_Common/Src</text>
<text text-anchor="middle" x="802" y="-7" font-family="Helvetica,sans-Serif" font-size="10.00">/stddef.h</text>
</a>
</g>
</g>
<!-- Node8&#45;&gt;Node9 -->
<g id="edge8" class="edge">
<title>Node8&#45;&gt;Node9</title>
<path fill="none" stroke="#63b8ff" d="M802,-71.1C802,-63.41 802,-51.92 802,-41.42"/>
<polygon fill="#63b8ff" stroke="#63b8ff" points="805.5,-41.75 802,-31.75 798.5,-41.75 805.5,-41.75"/>
</g>
<!-- Node11 -->
<g id="node11" class="node">
<title>Node11</title>
<g id="a_node11"><a xlink:href="JGeometry_8h.html" target="_top" xlink:title=" ">
<polygon fill="white" stroke="#666666" points="240.5,-222.5 127.5,-222.5 127.5,-203.5 240.5,-203.5 240.5,-222.5"/>
<text text-anchor="middle" x="184" y="-210.5" font-family="Helvetica,sans-Serif" font-size="10.00">JSystem/JGeometry.h</text>
</a>
</g>
</g>
<!-- Node10&#45;&gt;Node11 -->
<g id="edge10" class="edge">
<title>Node10&#45;&gt;Node11</title>
<path fill="none" stroke="#63b8ff" d="M292.48,-269.1C271.51,-258.45 236.15,-240.49 211.52,-227.98"/>
<polygon fill="#63b8ff" stroke="#63b8ff" points="213.22,-224.92 202.72,-223.51 210.05,-231.16 213.22,-224.92"/>
</g>
<!-- Node12 -->
<g id="node12" class="node">
<title>Node12</title>
<g id="a_node12"><a xlink:href="vec_8h.html" target="_top" xlink:title=" ">
<polygon fill="white" stroke="#666666" points="288,-156.5 196,-156.5 196,-137.5 288,-137.5 288,-156.5"/>
<text text-anchor="middle" x="242" y="-144.5" font-family="Helvetica,sans-Serif" font-size="10.00">dolphin/mtx/vec.h</text>
</a>
</g>
</g>
<!-- Node11&#45;&gt;Node12 -->
<g id="edge11" class="edge">
<title>Node11&#45;&gt;Node12</title>
<path fill="none" stroke="#63b8ff" d="M192.06,-203.1C200.89,-193.36 215.27,-177.5 226.33,-165.29"/>
<polygon fill="#63b8ff" stroke="#63b8ff" points="228.87,-167.71 232.99,-157.94 223.68,-163 228.87,-167.71"/>
</g>
<!-- Node13 -->
<g id="node13" class="node">
<title>Node13</title>
<g id="a_node13"><a xlink:href="float_8h.html" target="_top" xlink:title=" ">
<polygon fill="white" stroke="#666666" points="78,-156.5 0,-156.5 0,-137.5 78,-137.5 78,-156.5"/>
<text text-anchor="middle" x="39" y="-144.5" font-family="Helvetica,sans-Serif" font-size="10.00">MSL_C/float.h</text>
</a>
</g>
</g>
<!-- Node11&#45;&gt;Node13 -->
<g id="edge13" class="edge">
<title>Node11&#45;&gt;Node13</title>
<path fill="none" stroke="#63b8ff" d="M163.84,-203.1C139.27,-192.26 97.54,-173.84 69.15,-161.31"/>
<polygon fill="#63b8ff" stroke="#63b8ff" points="70.94,-158.27 60.38,-157.43 68.11,-164.67 70.94,-158.27"/>
</g>
<!-- Node16 -->
<g id="node16" class="node">
<title>Node16</title>
<g id="a_node16"><a xlink:href="math_8h.html" target="_top" xlink:title=" ">
<polygon fill="white" stroke="#666666" points="178,-156.5 96,-156.5 96,-137.5 178,-137.5 178,-156.5"/>
<text text-anchor="middle" x="137" y="-144.5" font-family="Helvetica,sans-Serif" font-size="10.00">MSL_C/math.h</text>
</a>
</g>
</g>
<!-- Node11&#45;&gt;Node16 -->
<g id="edge16" class="edge">
<title>Node11&#45;&gt;Node16</title>
<path fill="none" stroke="#63b8ff" d="M177.46,-203.1C170.45,-193.55 159.12,-178.11 150.22,-166.01"/>
<polygon fill="#63b8ff" stroke="#63b8ff" points="153.12,-164.03 144.38,-158.04 147.47,-168.18 153.12,-164.03"/>
</g>
<!-- Node12&#45;&gt;Node8 -->
<g id="edge12" class="edge">
<title>Node12&#45;&gt;Node8</title>
<path fill="none" stroke="#63b8ff" d="M277.06,-137.02C285.21,-135.15 293.87,-133.35 302,-132 464.22,-105.08 658.61,-90.7 749.86,-84.98"/>
<polygon fill="#63b8ff" stroke="#63b8ff" points="749.98,-88.48 759.75,-84.37 749.55,-81.49 749.98,-88.48"/>
</g>
<!-- Node14 -->
<g id="node14" class="node">
<title>Node14</title>
<g id="a_node14"><a xlink:href="MSL__Common_2Src_2float_8h.html" target="_top" xlink:title=" ">
<polygon fill="white" stroke="#666666" points="156,-96 20,-96 20,-66 156,-66 156,-96"/>
<text text-anchor="start" x="28" y="-84" font-family="Helvetica,sans-Serif" font-size="10.00">MSL_C/MSL_Common/Src</text>
<text text-anchor="middle" x="88" y="-73" font-family="Helvetica,sans-Serif" font-size="10.00">/float.h</text>
</a>
</g>
</g>
<!-- Node13&#45;&gt;Node14 -->
<g id="edge14" class="edge">
<title>Node13&#45;&gt;Node14</title>
<path fill="none" stroke="#63b8ff" d="M45.81,-137.1C52.14,-128.84 61.84,-116.17 70.34,-105.06"/>
<polygon fill="#63b8ff" stroke="#63b8ff" points="72.88,-107.5 76.18,-97.44 67.32,-103.25 72.88,-107.5"/>
</g>
<!-- Node15 -->
<g id="node15" class="node">
<title>Node15</title>
<g id="a_node15"><a xlink:href="fdlibm_8h.html" target="_top" xlink:title=" ">
<polygon fill="white" stroke="#666666" points="113,-24.5 63,-24.5 63,-5.5 113,-5.5 113,-24.5"/>
<text text-anchor="middle" x="88" y="-12.5" font-family="Helvetica,sans-Serif" font-size="10.00">fdlibm.h</text>
</a>
</g>
</g>
<!-- Node14&#45;&gt;Node15 -->
<g id="edge15" class="edge">
<title>Node14&#45;&gt;Node15</title>
<path fill="none" stroke="#63b8ff" d="M88,-65.8C88,-57.09 88,-45.81 88,-36.18"/>
<polygon fill="#63b8ff" stroke="#63b8ff" points="91.5,-36.36 88,-26.36 84.5,-36.36 91.5,-36.36"/>
</g>
<!-- Node16&#45;&gt;Node14 -->
<g id="edge17" class="edge">
<title>Node16&#45;&gt;Node14</title>
<path fill="none" stroke="#63b8ff" d="M130.19,-137.1C123.86,-128.84 114.16,-116.17 105.66,-105.06"/>
<polygon fill="#63b8ff" stroke="#63b8ff" points="108.68,-103.25 99.82,-97.44 103.12,-107.5 108.68,-103.25"/>
</g>
<!-- Node17&#45;&gt;Node8 -->
<g id="edge19" class="edge">
<title>Node17&#45;&gt;Node8</title>
<path fill="none" stroke="#63b8ff" d="M206.95,-269.06C233.47,-254.22 288.36,-223.57 335,-198 389.06,-168.36 398.48,-151.39 457,-132 557.2,-98.8 681,-87.63 749.74,-83.88"/>
<polygon fill="#63b8ff" stroke="#63b8ff" points="749.78,-87.39 759.59,-83.38 749.42,-80.4 749.78,-87.39"/>
</g>
<!-- Node19 -->
<g id="node19" class="node">
<title>Node19</title>
<g id="a_node19"><a xlink:href="JASGadget_8h.html" target="_top" xlink:title=" ">
<polygon fill="white" stroke="#666666" points="1262,-222.5 1108,-222.5 1108,-203.5 1262,-203.5 1262,-222.5"/>
<text text-anchor="middle" x="1185" y="-210.5" font-family="Helvetica,sans-Serif" font-size="10.00">JSystem/JAudio2/JASGadget.h</text>
</a>
</g>
</g>
<!-- Node18&#45;&gt;Node19 -->
<g id="edge21" class="edge">
<title>Node18&#45;&gt;Node19</title>
<path fill="none" stroke="#63b8ff" d="M782.41,-269.07C793.52,-267.33 805.13,-265.56 816,-264 941.51,-246.04 973.52,-246.19 1099,-228 1105.98,-226.99 1113.26,-225.88 1120.51,-224.75"/>
<polygon fill="#63b8ff" stroke="#63b8ff" points="1121.01,-228.21 1130.33,-223.19 1119.91,-221.3 1121.01,-228.21"/>
</g>
<!-- Node21 -->
<g id="node21" class="node">
<title>Node21</title>
<g id="a_node21"><a xlink:href="JASOscillator_8h.html" target="_top" xlink:title=" ">
<polygon fill="white" stroke="#666666" points="920,-222.5 756,-222.5 756,-203.5 920,-203.5 920,-222.5"/>
<text text-anchor="middle" x="838" y="-210.5" font-family="Helvetica,sans-Serif" font-size="10.00">JSystem/JAudio2/JASOscillator.h</text>
</a>
</g>
</g>
<!-- Node18&#45;&gt;Node21 -->
<g id="edge24" class="edge">
<title>Node18&#45;&gt;Node21</title>
<path fill="none" stroke="#63b8ff" d="M743.3,-269.1C761.36,-258.59 791.65,-240.97 813.1,-228.49"/>
<polygon fill="#63b8ff" stroke="#63b8ff" points="814.64,-231.64 821.53,-223.58 811.12,-225.59 814.64,-231.64"/>
</g>
<!-- Node22 -->
<g id="node22" class="node">
<title>Node22</title>
<g id="a_node22"><a xlink:href="JASRegisterParam_8h.html" target="_top" xlink:title=" ">
<polygon fill="white" stroke="#666666" points="1089.5,-228 938.5,-228 938.5,-198 1089.5,-198 1089.5,-228"/>
<text text-anchor="start" x="946.5" y="-216" font-family="Helvetica,sans-Serif" font-size="10.00">JSystem/JAudio2/JASRegister</text>
<text text-anchor="middle" x="1014" y="-205" font-family="Helvetica,sans-Serif" font-size="10.00">Param.h</text>
</a>
</g>
</g>
<!-- Node18&#45;&gt;Node22 -->
<g id="edge26" class="edge">
<title>Node18&#45;&gt;Node22</title>
<path fill="none" stroke="#63b8ff" d="M768.07,-269.03C812.08,-259.19 883.76,-243.14 938.41,-230.92"/>
<polygon fill="#63b8ff" stroke="#63b8ff" points="938.98,-234.38 947.97,-228.78 937.45,-227.54 938.98,-234.38"/>
</g>
<!-- Node23 -->
<g id="node23" class="node">
<title>Node23</title>
<g id="a_node23"><a xlink:href="JASSeqCtrl_8h.html" target="_top" xlink:title=" ">
<polygon fill="white" stroke="#666666" points="699.5,-222.5 544.5,-222.5 544.5,-203.5 699.5,-203.5 699.5,-222.5"/>
<text text-anchor="middle" x="622" y="-210.5" font-family="Helvetica,sans-Serif" font-size="10.00">JSystem/JAudio2/JASSeqCtrl.h</text>
</a>
</g>
</g>
<!-- Node18&#45;&gt;Node23 -->
<g id="edge28" class="edge">
<title>Node18&#45;&gt;Node23</title>
<path fill="none" stroke="#63b8ff" d="M713.26,-269.1C695.94,-258.64 666.93,-241.13 646.27,-228.66"/>
<polygon fill="#63b8ff" stroke="#63b8ff" points="648.28,-225.78 637.91,-223.61 644.66,-231.77 648.28,-225.78"/>
</g>
<!-- Node25 -->
<g id="node25" class="node">
<title>Node25</title>
<g id="a_node25"><a xlink:href="JASTrackPort_8h.html" target="_top" xlink:title=" ">
<polygon fill="white" stroke="#666666" points="872,-162 732,-162 732,-132 872,-132 872,-162"/>
<text text-anchor="start" x="740" y="-150" font-family="Helvetica,sans-Serif" font-size="10.00">JSystem/JAudio2/JASTrack</text>
<text text-anchor="middle" x="802" y="-139" font-family="Helvetica,sans-Serif" font-size="10.00">Port.h</text>
</a>
</g>
</g>
<!-- Node18&#45;&gt;Node25 -->
<g id="edge31" class="edge">
<title>Node18&#45;&gt;Node25</title>
<path fill="none" stroke="#63b8ff" d="M728.39,-269.45C729.43,-254.11 733.22,-221.36 747,-198 753.36,-187.22 762.8,-177.43 772.07,-169.43"/>
<polygon fill="#63b8ff" stroke="#63b8ff" points="774.07,-172.31 779.62,-163.29 769.65,-166.88 774.07,-172.31"/>
</g>
<!-- Node20 -->
<g id="node20" class="node">
<title>Node20</title>
<g id="a_node20"><a xlink:href="JUTAssert_8h.html" target="_top" xlink:title=" ">
<polygon fill="white" stroke="#666666" points="1204,-156.5 1058,-156.5 1058,-137.5 1204,-137.5 1204,-156.5"/>
<text text-anchor="middle" x="1131" y="-144.5" font-family="Helvetica,sans-Serif" font-size="10.00">JSystem/JUtility/JUTAssert.h</text>
</a>
</g>
</g>
<!-- Node19&#45;&gt;Node20 -->
<g id="edge22" class="edge">
<title>Node19&#45;&gt;Node20</title>
<path fill="none" stroke="#63b8ff" d="M1177.49,-203.1C1169.27,-193.36 1155.89,-177.5 1145.58,-165.29"/>
<polygon fill="#63b8ff" stroke="#63b8ff" points="1148.54,-163.37 1139.42,-157.98 1143.19,-167.88 1148.54,-163.37"/>
</g>
<!-- Node20&#45;&gt;Node8 -->
<g id="edge23" class="edge">
<title>Node20&#45;&gt;Node8</title>
<path fill="none" stroke="#63b8ff" d="M1084.91,-137.03C1024.1,-125.2 917.37,-104.44 853.82,-92.08"/>
<polygon fill="#63b8ff" stroke="#63b8ff" points="854.83,-88.71 844.35,-90.24 853.49,-95.58 854.83,-88.71"/>
</g>
<!-- Node21&#45;&gt;Node8 -->
<g id="edge25" class="edge">
<title>Node21&#45;&gt;Node8</title>
<path fill="none" stroke="#63b8ff" d="M849.06,-203.09C866.04,-188.28 895.14,-157.69 881,-132 871.88,-115.44 854.7,-103.59 838.69,-95.61"/>
<polygon fill="#63b8ff" stroke="#63b8ff" points="840.36,-92.52 829.81,-91.53 837.44,-98.88 840.36,-92.52"/>
</g>
<!-- Node22&#45;&gt;Node8 -->
<g id="edge27" class="edge">
<title>Node22&#45;&gt;Node8</title>
<path fill="none" stroke="#63b8ff" d="M994.38,-197.75C971.3,-181.21 931.61,-153.46 896,-132 874.33,-118.94 848.95,-105.55 830.03,-95.92"/>
<polygon fill="#63b8ff" stroke="#63b8ff" points="831.84,-92.91 821.34,-91.53 828.69,-99.16 831.84,-92.91"/>
</g>
<!-- Node24 -->
<g id="node24" class="node">
<title>Node24</title>
<g id="a_node24"><a xlink:href="JASSeqReader_8h.html" target="_top" xlink:title=" ">
<polygon fill="white" stroke="#666666" points="714,-156.5 544,-156.5 544,-137.5 714,-137.5 714,-156.5"/>
<text text-anchor="middle" x="629" y="-144.5" font-family="Helvetica,sans-Serif" font-size="10.00">JSystem/JAudio2/JASSeqReader.h</text>
</a>
</g>
</g>
<!-- Node23&#45;&gt;Node24 -->
<g id="edge29" class="edge">
<title>Node23&#45;&gt;Node24</title>
<path fill="none" stroke="#63b8ff" d="M622.97,-203.1C623.96,-194.12 625.51,-179.95 626.79,-168.22"/>
<polygon fill="#63b8ff" stroke="#63b8ff" points="630.26,-168.65 627.87,-158.33 623.3,-167.89 630.26,-168.65"/>
</g>
<!-- Node24&#45;&gt;Node8 -->
<g id="edge30" class="edge">
<title>Node24&#45;&gt;Node8</title>
<path fill="none" stroke="#63b8ff" d="M653.05,-137.1C682.8,-126.1 733.62,-107.3 767.51,-94.76"/>
<polygon fill="#63b8ff" stroke="#63b8ff" points="768.29,-98.2 776.45,-91.45 765.86,-91.64 768.29,-98.2"/>
</g>
<!-- Node25&#45;&gt;Node8 -->
<g id="edge32" class="edge">
<title>Node25&#45;&gt;Node8</title>
<path fill="none" stroke="#63b8ff" d="M802,-131.8C802,-123.09 802,-111.81 802,-102.18"/>
<polygon fill="#63b8ff" stroke="#63b8ff" points="805.5,-102.36 802,-92.36 798.5,-102.36 805.5,-102.36"/>
</g>
<!-- Node26&#45;&gt;Node8 -->
<g id="edge34" class="edge">
<title>Node26&#45;&gt;Node8</title>
<path fill="none" stroke="#63b8ff" d="M936.84,-390.01C835.03,-366.79 576.58,-301.44 535,-228 513.98,-190.87 507.75,-164.83 535,-132 561.79,-99.73 680.22,-88.17 750.03,-84.11"/>
<polygon fill="#63b8ff" stroke="#63b8ff" points="749.91,-87.62 759.7,-83.59 749.53,-80.63 749.91,-87.62"/>
</g>
<!-- Node27&#45;&gt;Node26 -->
<g id="edge36" class="edge">
<title>Node27&#45;&gt;Node26</title>
<path fill="none" stroke="#63b8ff" d="M1161.38,-456.1C1124.21,-444.93 1060.28,-425.72 1018.58,-413.19"/>
<polygon fill="#63b8ff" stroke="#63b8ff" points="1019.74,-409.89 1009.16,-410.36 1017.73,-416.59 1019.74,-409.89"/>
</g>
<!-- Node28 -->
<g id="node28" class="node">
<title>Node28</title>
<g id="a_node28"><a xlink:href="OSInterrupt_8h.html" target="_top" xlink:title=" ">
<polygon fill="white" stroke="#666666" points="1389,-349 1267,-349 1267,-330 1389,-330 1389,-349"/>
<text text-anchor="middle" x="1328" y="-337" font-family="Helvetica,sans-Serif" font-size="10.00">dolphin/os/OSInterrupt.h</text>
</a>
</g>
</g>
<!-- Node27&#45;&gt;Node28 -->
<g id="edge37" class="edge">
<title>Node27&#45;&gt;Node28</title>
<path fill="none" stroke="#63b8ff" d="M1203.4,-456.3C1216.81,-446.7 1238.59,-430.55 1256,-415 1276.86,-396.37 1298.94,-372.89 1313.06,-357.32"/>
<polygon fill="#63b8ff" stroke="#63b8ff" points="1315.3,-360.07 1319.38,-350.29 1310.09,-355.39 1315.3,-360.07"/>
</g>
<!-- Node29 -->
<g id="node29" class="node">
<title>Node29</title>
<g id="a_node29"><a xlink:href="OSMutex_8h.html" target="_top" xlink:title=" ">
<polygon fill="white" stroke="#666666" points="1247,-409.5 1135,-409.5 1135,-390.5 1247,-390.5 1247,-409.5"/>
<text text-anchor="middle" x="1191" y="-397.5" font-family="Helvetica,sans-Serif" font-size="10.00">dolphin/os/OSMutex.h</text>
</a>
</g>
</g>
<!-- Node27&#45;&gt;Node29 -->
<g id="edge39" class="edge">
<title>Node27&#45;&gt;Node29</title>
<path fill="none" stroke="#63b8ff" d="M1191,-456.1C1191,-447.12 1191,-432.95 1191,-421.22"/>
<polygon fill="#63b8ff" stroke="#63b8ff" points="1194.5,-421.34 1191,-411.34 1187.5,-421.34 1194.5,-421.34"/>
</g>
<!-- Node28&#45;&gt;Node8 -->
<g id="edge38" class="edge">
<title>Node28&#45;&gt;Node8</title>
<path fill="none" stroke="#63b8ff" d="M1327.93,-329.69C1327.14,-296.44 1319.32,-178.06 1249,-132 1185.08,-90.13 957.65,-83.06 854.07,-82.05"/>
<polygon fill="#63b8ff" stroke="#63b8ff" points="854.2,-78.55 844.17,-81.97 854.14,-85.55 854.2,-78.55"/>
</g>
<!-- Node30 -->
<g id="node30" class="node">
<title>Node30</title>
<g id="a_node30"><a xlink:href="OSThread_8h.html" target="_top" xlink:title=" ">
<polygon fill="white" stroke="#666666" points="1249,-349 1133,-349 1133,-330 1249,-330 1249,-349"/>
<text text-anchor="middle" x="1191" y="-337" font-family="Helvetica,sans-Serif" font-size="10.00">dolphin/os/OSThread.h</text>
</a>
</g>
</g>
<!-- Node29&#45;&gt;Node30 -->
<g id="edge40" class="edge">
<title>Node29&#45;&gt;Node30</title>
<path fill="none" stroke="#63b8ff" d="M1191,-390.37C1191,-382.5 1191,-370.6 1191,-360.39"/>
<polygon fill="#63b8ff" stroke="#63b8ff" points="1194.5,-360.68 1191,-350.68 1187.5,-360.68 1194.5,-360.68"/>
</g>
<!-- Node31 -->
<g id="node31" class="node">
<title>Node31</title>
<g id="a_node31"><a xlink:href="OSContext_8h.html" target="_top" xlink:title=" ">
<polygon fill="white" stroke="#666666" points="1275.5,-288.5 1156.5,-288.5 1156.5,-269.5 1275.5,-269.5 1275.5,-288.5"/>
<text text-anchor="middle" x="1216" y="-276.5" font-family="Helvetica,sans-Serif" font-size="10.00">dolphin/os/OSContext.h</text>
</a>
</g>
</g>
<!-- Node30&#45;&gt;Node31 -->
<g id="edge41" class="edge">
<title>Node30&#45;&gt;Node31</title>
<path fill="none" stroke="#63b8ff" d="M1194.69,-329.87C1198.12,-321.83 1203.36,-309.57 1207.79,-299.22"/>
<polygon fill="#63b8ff" stroke="#63b8ff" points="1210.99,-300.63 1211.7,-290.06 1204.55,-297.88 1210.99,-300.63"/>
</g>
<!-- Node31&#45;&gt;Node8 -->
<g id="edge42" class="edge">
<title>Node31&#45;&gt;Node8</title>
<path fill="none" stroke="#63b8ff" d="M1231.41,-269.17C1244.69,-260.58 1262.96,-246.17 1271,-228 1291.17,-182.41 1257.09,-155.26 1213,-132 1151.89,-99.76 950.81,-87.75 854.43,-83.76"/>
<polygon fill="#63b8ff" stroke="#63b8ff" points="854.57,-80.26 844.44,-83.36 854.29,-87.26 854.57,-80.26"/>
</g>
<!-- Node32&#45;&gt;Node4 -->
<g id="edge46" class="edge">
<title>Node32&#45;&gt;Node4</title>
<path fill="none" stroke="#63b8ff" d="M982.24,-456.03C945.62,-446.31 886.26,-430.55 840.43,-418.38"/>
<polygon fill="#63b8ff" stroke="#63b8ff" points="841.42,-415.02 830.86,-415.83 839.63,-421.78 841.42,-415.02"/>
</g>
<!-- Node32&#45;&gt;Node19 -->
<g id="edge47" class="edge">
<title>Node32&#45;&gt;Node19</title>
<path fill="none" stroke="#63b8ff" d="M1024.43,-456.18C1033.5,-446.49 1048.07,-430.27 1059,-415 1104.35,-351.66 1104.99,-328.95 1148,-264 1155.27,-253.02 1164,-241.16 1171.16,-231.75"/>
<polygon fill="#63b8ff" stroke="#63b8ff" points="1173.92,-233.91 1177.24,-223.85 1168.37,-229.64 1173.92,-233.91"/>
</g>
<!-- Node32&#45;&gt;Node26 -->
<g id="edge48" class="edge">
<title>Node32&#45;&gt;Node26</title>
<path fill="none" stroke="#63b8ff" d="M1010.72,-456.1C1005.1,-446.64 996.06,-431.42 988.91,-419.37"/>
<polygon fill="#63b8ff" stroke="#63b8ff" points="992.13,-417.94 984.01,-411.12 986.11,-421.51 992.13,-417.94"/>
</g>
<!-- Node33&#45;&gt;Node5 -->
<g id="edge50" class="edge">
<title>Node33&#45;&gt;Node5</title>
<path fill="none" stroke="#63b8ff" d="M640.86,-450.72C604.12,-427.02 530.87,-379.77 493.35,-355.56"/>
<polygon fill="#63b8ff" stroke="#63b8ff" points="495.34,-352.68 485.04,-350.2 491.55,-358.56 495.34,-352.68"/>
</g>
<!-- Node33&#45;&gt;Node19 -->
<g id="edge51" class="edge">
<title>Node33&#45;&gt;Node19</title>
<path fill="none" stroke="#63b8ff" d="M664.28,-450.58C666.6,-432.84 673.07,-402.87 691,-385 755.48,-320.74 1022.26,-252.18 1134.68,-225.53"/>
<polygon fill="#63b8ff" stroke="#63b8ff" points="1135.3,-228.98 1144.23,-223.28 1133.7,-222.16 1135.3,-228.98"/>
</g>
<!-- Node33&#45;&gt;Node26 -->
<g id="edge52" class="edge">
<title>Node33&#45;&gt;Node26</title>
<path fill="none" stroke="#63b8ff" d="M734.08,-450.56C791.22,-438.95 870.34,-422.87 922.79,-412.22"/>
<polygon fill="#63b8ff" stroke="#63b8ff" points="923.3,-415.69 932.4,-410.26 921.91,-408.83 923.3,-415.69"/>
</g>
</g>
</svg>
        <g id="navigator" transform="translate(0 0)" fill="#404254">
                <rect fill="#f2f5e9" fill-opacity="0.5" stroke="#606060" stroke-width=".5" x="0" y="0" width="60" height="60"/>
                <use id="zoomplus" xlink:href="#zoomPlus" x="17" y="9" onmousedown="handleZoom(evt,'in')"/>
                <use id="zoomminus" xlink:href="#zoomMin" x="42" y="9" onmousedown="handleZoom(evt,'out')"/>
                <use id="reset" xlink:href="#resetDef" x="30" y="36" onmousedown="handleReset()"/>
                <g id="arrowUp" xlink:href="#dirArrow" transform="translate(30 24)" onmousedown="handlePan(0,-1)">
                  <use xlink:href="#rim" fill="#404040">
                        <set attributeName="fill" to="#808080" begin="arrowUp.mouseover" end="arrowUp.mouseout"/>
                  </use>
                  <path fill="none" stroke="white" stroke-width="1.5" d="M0,-3.0v7 M-2.5,-0.5L0,-3.0L2.5,-0.5"/>
                </g>
                <g id="arrowRight" xlink:href="#dirArrow" transform="rotate(90) translate(36 -43)" onmousedown="handlePan(1,0)">
                  <use xlink:href="#rim" fill="#404040">
                        <set attributeName="fill" to="#808080" begin="arrowRight.mouseover" end="arrowRight.mouseout"/>
                  </use>
                  <path fill="none" stroke="white" stroke-width="1.5" d="M0,-3.0v7 M-2.5,-0.5L0,-3.0L2.5,-0.5"/>
                </g>
                <g id="arrowDown" xlink:href="#dirArrow" transform="rotate(180) translate(-30 -48)" onmousedown="handlePan(0,1)">
                  <use xlink:href="#rim" fill="#404040">
                        <set attributeName="fill" to="#808080" begin="arrowDown.mouseover" end="arrowDown.mouseout"/>
                  </use>
                  <path fill="none" stroke="white" stroke-width="1.5" d="M0,-3.0v7 M-2.5,-0.5L0,-3.0L2.5,-0.5"/>
                </g>
                <g id="arrowLeft" xlink:href="#dirArrow" transform="rotate(270) translate(-36 17)" onmousedown="handlePan(-1,0)">
                  <use xlink:href="#rim" fill="#404040">
                        <set attributeName="fill" to="#808080" begin="arrowLeft.mouseover" end="arrowLeft.mouseout"/>
                  </use>
                  <path fill="none" stroke="white" stroke-width="1.5" d="M0,-3.0v7 M-2.5,-0.5L0,-3.0L2.5,-0.5"/>
                </g>
        </g>
        <svg viewBox="0 0 15 15" width="100%" height="30px" preserveAspectRatio="xMaxYMin meet">
         <g id="arrow_out" transform="scale(0.3 0.3)">
          <a xlink:href="Z2SoundMgr_8h__incl_org.svg" target="_base">
           <rect id="button" ry="5" rx="5" y="6" x="6" height="38" width="38"
                fill="#f2f5e9" fill-opacity="0.5" stroke="#606060" stroke-width="1.0"/>
           <path id="arrow"
             d="M 11.500037,31.436501 C 11.940474,20.09759 22.043105,11.32322 32.158766,21.979434 L 37.068811,17.246167 C 37.068811,17.246167 37.088388,32 37.088388,32 L 22.160133,31.978069 C 22.160133,31.978069 26.997745,27.140456 26.997745,27.140456 C 18.528582,18.264221 13.291696,25.230495 11.500037,31.436501 z"
             style="fill:#404040;"/>
          </a>
         </g>
        </svg>
</svg>
