<?xml version="1.0" encoding="UTF-8" standalone="no"?>
<!DOCTYPE svg PUBLIC "-//W3C//DTD SVG 1.1//EN"
 "http://www.w3.org/Graphics/SVG/1.1/DTD/svg11.dtd">
<!-- Generated by graphviz version 7.0.5 (20221223.1930)
 -->
<!-- Title: libs/Z2AudioLib/Z2SoundObject.cpp Pages: 1 -->
<svg width="6075pt" height="599pt"
 viewBox="0.00 0.00 6075.00 599.00" xmlns="http://www.w3.org/2000/svg" xmlns:xlink="http://www.w3.org/1999/xlink">
<g id="graph0" class="graph" transform="scale(1 1) rotate(0) translate(4 595)">
<title>libs/Z2AudioLib/Z2SoundObject.cpp</title>
<!-- Node1 -->
<g id="node1" class="node">
<title>Node1</title>
<g id="a_node1"><a xlink:title=" ">
<polygon fill="#999999" stroke="#666666" points="3319.5,-591 3146.5,-591 3146.5,-572 3319.5,-572 3319.5,-591"/>
<text text-anchor="middle" x="3233" y="-579" font-family="Helvetica,sans-Serif" font-size="10.00">libs/Z2AudioLib/Z2SoundObject.cpp</text>
</a>
</g>
</g>
<!-- Node2 -->
<g id="node2" class="node">
<title>Node2</title>
<g id="a_node2"><a xlink:href="Z2SoundObject_8h.html" target="_top" xlink:title=" ">
<polygon fill="white" stroke="#666666" points="746,-525 602,-525 602,-506 746,-506 746,-525"/>
<text text-anchor="middle" x="674" y="-513" font-family="Helvetica,sans-Serif" font-size="10.00">Z2AudioLib/Z2SoundObject.h</text>
</a>
</g>
</g>
<!-- Node1&#45;&gt;Node2 -->
<g id="edge1" class="edge">
<title>Node1&#45;&gt;Node2</title>
<path fill="none" stroke="#63b8ff" d="M3146.02,-579.97C2735.56,-577.31 1002.13,-564.48 762,-536 747.53,-534.28 731.95,-531.24 717.97,-528.05"/>
<polygon fill="#63b8ff" stroke="#63b8ff" points="719.17,-524.74 708.63,-525.84 717.56,-531.55 719.17,-524.74"/>
</g>
<!-- Node20 -->
<g id="node20" class="node">
<title>Node20</title>
<g id="a_node20"><a xlink:href="JASGadget_8h.html" target="_top" xlink:title=" ">
<polygon fill="white" stroke="#666666" points="856,-459 702,-459 702,-440 856,-440 856,-459"/>
<text text-anchor="middle" x="779" y="-447" font-family="Helvetica,sans-Serif" font-size="10.00">JSystem/JAudio2/JASGadget.h</text>
</a>
</g>
</g>
<!-- Node1&#45;&gt;Node20 -->
<g id="edge26" class="edge">
<title>Node1&#45;&gt;Node20</title>
<path fill="none" stroke="#63b8ff" d="M3146.27,-580.4C2717.4,-579.7 841.99,-574.46 796,-536 777.33,-520.39 775.41,-490.66 776.56,-470.71"/>
<polygon fill="#63b8ff" stroke="#63b8ff" points="780.04,-471.04 777.47,-460.76 773.07,-470.4 780.04,-471.04"/>
</g>
<!-- Node21 -->
<g id="node21" class="node">
<title>Node21</title>
<g id="a_node21"><a xlink:href="dol2asm_8h.html" target="_top" xlink:title=" ">
<polygon fill="white" stroke="#666666" points="865.5,-525 804.5,-525 804.5,-506 865.5,-506 865.5,-525"/>
<text text-anchor="middle" x="835" y="-513" font-family="Helvetica,sans-Serif" font-size="10.00">dol2asm.h</text>
</a>
</g>
</g>
<!-- Node1&#45;&gt;Node21 -->
<g id="edge28" class="edge">
<title>Node1&#45;&gt;Node21</title>
<path fill="none" stroke="#63b8ff" d="M3146.03,-579.91C2733.27,-576.98 987.27,-563.03 875,-536 869.79,-534.75 864.46,-532.74 859.47,-530.48"/>
<polygon fill="#63b8ff" stroke="#63b8ff" points="861.1,-527.38 850.59,-526.01 857.95,-533.63 861.1,-527.38"/>
</g>
<!-- Node22 -->
<g id="node22" class="node">
<title>Node22</title>
<g id="a_node22"><a xlink:title=" ">
<polygon fill="#e0e0e0" stroke="#999999" points="1074.5,-530.5 883.5,-530.5 883.5,-500.5 1074.5,-500.5 1074.5,-530.5"/>
<text text-anchor="start" x="891.5" y="-518.5" font-family="Helvetica,sans-Serif" font-size="10.00">asm/Z2AudioLib/Z2SoundObject</text>
<text text-anchor="middle" x="979" y="-507.5" font-family="Helvetica,sans-Serif" font-size="10.00">/deleteObject__14Z2SoundObjBaseFv.s</text>
</a>
</g>
</g>
<!-- Node1&#45;&gt;Node22 -->
<g id="edge29" class="edge">
<title>Node1&#45;&gt;Node22</title>
<path fill="none" stroke="#63b8ff" d="M3146.18,-580.59C2796.98,-580.66 1494.09,-578.04 1084,-536 1075.95,-535.17 1067.59,-534.06 1059.26,-532.79"/>
<polygon fill="#63b8ff" stroke="#63b8ff" points="1059.88,-529.34 1049.45,-531.2 1058.76,-536.25 1059.88,-529.34"/>
</g>
<!-- Node23 -->
<g id="node23" class="node">
<title>Node23</title>
<g id="a_node23"><a xlink:title=" ">
<polygon fill="#e0e0e0" stroke="#999999" points="1263,-530.5 1093,-530.5 1093,-500.5 1263,-500.5 1263,-530.5"/>
<text text-anchor="start" x="1101" y="-518.5" font-family="Helvetica,sans-Serif" font-size="10.00">asm/Z2AudioLib/Z2SoundObject</text>
<text text-anchor="middle" x="1178" y="-507.5" font-family="Helvetica,sans-Serif" font-size="10.00">/dispose__14Z2SoundObjBaseFv.s</text>
</a>
</g>
</g>
<!-- Node1&#45;&gt;Node23 -->
<g id="edge30" class="edge">
<title>Node1&#45;&gt;Node23</title>
<path fill="none" stroke="#63b8ff" d="M3146.02,-580.63C2816.21,-580.79 1642.8,-578.31 1272,-536 1265.1,-535.21 1257.95,-534.16 1250.83,-532.96"/>
<polygon fill="#63b8ff" stroke="#63b8ff" points="1251.63,-529.55 1241.17,-531.23 1250.4,-536.44 1251.63,-529.55"/>
</g>
<!-- Node24 -->
<g id="node24" class="node">
<title>Node24</title>
<g id="a_node24"><a xlink:title=" ">
<polygon fill="#e0e0e0" stroke="#999999" points="1493,-536 1281,-536 1281,-495 1493,-495 1493,-536"/>
<text text-anchor="start" x="1289" y="-524" font-family="Helvetica,sans-Serif" font-size="10.00">asm/Z2AudioLib/Z2SoundObject</text>
<text text-anchor="start" x="1289" y="-513" font-family="Helvetica,sans-Serif" font-size="10.00">/stopOK__14Z2SoundObjBaseFR17Z2Sound</text>
<text text-anchor="middle" x="1387" y="-502" font-family="Helvetica,sans-Serif" font-size="10.00">HandlePool.s</text>
</a>
</g>
</g>
<!-- Node1&#45;&gt;Node24 -->
<g id="edge31" class="edge">
<title>Node1&#45;&gt;Node24</title>
<path fill="none" stroke="#63b8ff" d="M3146.06,-579.88C2845.32,-577.5 1849.23,-567.47 1504.67,-536.04"/>
<polygon fill="#63b8ff" stroke="#63b8ff" points="1505.22,-532.58 1494.94,-535.13 1504.57,-539.55 1505.22,-532.58"/>
</g>
<!-- Node25 -->
<g id="node25" class="node">
<title>Node25</title>
<g id="a_node25"><a xlink:title=" ">
<polygon fill="#e0e0e0" stroke="#999999" points="1692.5,-536 1511.5,-536 1511.5,-495 1692.5,-495 1692.5,-536"/>
<text text-anchor="start" x="1519.5" y="-524" font-family="Helvetica,sans-Serif" font-size="10.00">asm/Z2AudioLib/Z2SoundObject</text>
<text text-anchor="start" x="1519.5" y="-513" font-family="Helvetica,sans-Serif" font-size="10.00">/startSound__14Z2SoundObjBaseF10</text>
<text text-anchor="middle" x="1602" y="-502" font-family="Helvetica,sans-Serif" font-size="10.00">JAISoundIDUlSc.s</text>
</a>
</g>
</g>
<!-- Node1&#45;&gt;Node25 -->
<g id="edge32" class="edge">
<title>Node1&#45;&gt;Node25</title>
<path fill="none" stroke="#63b8ff" d="M3146.22,-579.84C2869.23,-577.46 2007.21,-567.74 1704.33,-536.11"/>
<polygon fill="#63b8ff" stroke="#63b8ff" points="1704.74,-532.64 1694.43,-535.05 1703.99,-539.6 1704.74,-532.64"/>
</g>
<!-- Node26 -->
<g id="node26" class="node">
<title>Node26</title>
<g id="a_node26"><a xlink:title=" ">
<polygon fill="#e0e0e0" stroke="#999999" points="1899,-536 1711,-536 1711,-495 1899,-495 1899,-536"/>
<text text-anchor="start" x="1719" y="-524" font-family="Helvetica,sans-Serif" font-size="10.00">asm/Z2AudioLib/Z2SoundObject</text>
<text text-anchor="start" x="1719" y="-513" font-family="Helvetica,sans-Serif" font-size="10.00">/startLevelSound__14Z2SoundObjBase</text>
<text text-anchor="middle" x="1805" y="-502" font-family="Helvetica,sans-Serif" font-size="10.00">F10JAISoundIDUlSc.s</text>
</a>
</g>
</g>
<!-- Node1&#45;&gt;Node26 -->
<g id="edge33" class="edge">
<title>Node1&#45;&gt;Node26</title>
<path fill="none" stroke="#63b8ff" d="M3146.04,-579.32C2894.94,-575.65 2170.7,-563.08 1910.77,-536.18"/>
<polygon fill="#63b8ff" stroke="#63b8ff" points="1911.31,-532.72 1900.99,-535.13 1910.56,-539.68 1911.31,-532.72"/>
</g>
<!-- Node27 -->
<g id="node27" class="node">
<title>Node27</title>
<g id="a_node27"><a xlink:title=" ">
<polygon fill="#e0e0e0" stroke="#999999" points="2103,-536 1917,-536 1917,-495 2103,-495 2103,-536"/>
<text text-anchor="start" x="1925" y="-524" font-family="Helvetica,sans-Serif" font-size="10.00">asm/Z2AudioLib/Z2SoundObject</text>
<text text-anchor="start" x="1925" y="-513" font-family="Helvetica,sans-Serif" font-size="10.00">/startCollisionSE__14Z2SoundObjBase</text>
<text text-anchor="middle" x="2010" y="-502" font-family="Helvetica,sans-Serif" font-size="10.00">FUlUlP14Z2SoundObjBase.s</text>
</a>
</g>
</g>
<!-- Node1&#45;&gt;Node27 -->
<g id="edge34" class="edge">
<title>Node1&#45;&gt;Node27</title>
<path fill="none" stroke="#63b8ff" d="M3146.29,-578.73C2923.39,-573.93 2333.15,-559.47 2114.66,-536.17"/>
<polygon fill="#63b8ff" stroke="#63b8ff" points="2115.13,-532.7 2104.8,-535.08 2114.36,-539.66 2115.13,-532.7"/>
</g>
<!-- Node28 -->
<g id="node28" class="node">
<title>Node28</title>
<g id="a_node28"><a xlink:title=" ">
<polygon fill="#e0e0e0" stroke="#999999" points="2309,-530.5 2121,-530.5 2121,-500.5 2309,-500.5 2309,-530.5"/>
<text text-anchor="start" x="2129" y="-518.5" font-family="Helvetica,sans-Serif" font-size="10.00">asm/Z2AudioLib/Z2SoundObject</text>
<text text-anchor="middle" x="2215" y="-507.5" font-family="Helvetica,sans-Serif" font-size="10.00">/__ct__21Z2DopplerSoundObjBaseFv.s</text>
</a>
</g>
</g>
<!-- Node1&#45;&gt;Node28 -->
<g id="edge35" class="edge">
<title>Node1&#45;&gt;Node28</title>
<path fill="none" stroke="#63b8ff" d="M3146.25,-580.27C2983.36,-578.96 2620.85,-571.86 2318,-536 2310.65,-535.13 2303.04,-534.04 2295.44,-532.83"/>
<polygon fill="#63b8ff" stroke="#63b8ff" points="2296.26,-529.42 2285.82,-531.23 2295.11,-536.33 2296.26,-529.42"/>
</g>
<!-- Node29 -->
<g id="node29" class="node">
<title>Node29</title>
<g id="a_node29"><a xlink:title=" ">
<polygon fill="#e0e0e0" stroke="#999999" points="2515,-530.5 2327,-530.5 2327,-500.5 2515,-500.5 2515,-530.5"/>
<text text-anchor="start" x="2335" y="-518.5" font-family="Helvetica,sans-Serif" font-size="10.00">asm/Z2AudioLib/Z2SoundObject</text>
<text text-anchor="middle" x="2421" y="-507.5" font-family="Helvetica,sans-Serif" font-size="10.00">/__dt__21Z2DopplerSoundObjBaseFv.s</text>
</a>
</g>
</g>
<!-- Node1&#45;&gt;Node29 -->
<g id="edge36" class="edge">
<title>Node1&#45;&gt;Node29</title>
<path fill="none" stroke="#63b8ff" d="M3146.03,-578.46C3012.16,-574.56 2747.73,-563.77 2525,-536 2517.86,-535.11 2510.47,-534.03 2503.07,-532.85"/>
<polygon fill="#63b8ff" stroke="#63b8ff" points="2503.8,-529.43 2493.36,-531.24 2502.65,-536.33 2503.8,-529.43"/>
</g>
<!-- Node30 -->
<g id="node30" class="node">
<title>Node30</title>
<g id="a_node30"><a xlink:title=" ">
<polygon fill="#e0e0e0" stroke="#999999" points="2714.5,-536 2533.5,-536 2533.5,-495 2714.5,-495 2714.5,-536"/>
<text text-anchor="start" x="2541.5" y="-524" font-family="Helvetica,sans-Serif" font-size="10.00">asm/Z2AudioLib/Z2SoundObject</text>
<text text-anchor="start" x="2541.5" y="-513" font-family="Helvetica,sans-Serif" font-size="10.00">/init__21Z2DopplerSoundObjBaseFP3</text>
<text text-anchor="middle" x="2624" y="-502" font-family="Helvetica,sans-Serif" font-size="10.00">VecUc.s</text>
</a>
</g>
</g>
<!-- Node1&#45;&gt;Node30 -->
<g id="edge37" class="edge">
<title>Node1&#45;&gt;Node30</title>
<path fill="none" stroke="#63b8ff" d="M3146.23,-575.71C3047.04,-569.6 2879.64,-557.37 2725.99,-536.2"/>
<polygon fill="#63b8ff" stroke="#63b8ff" points="2726.84,-532.78 2716.45,-534.87 2725.87,-539.71 2726.84,-532.78"/>
</g>
<!-- Node31 -->
<g id="node31" class="node">
<title>Node31</title>
<g id="a_node31"><a xlink:title=" ">
<polygon fill="#e0e0e0" stroke="#999999" points="2929,-536 2733,-536 2733,-495 2929,-495 2929,-536"/>
<text text-anchor="start" x="2741" y="-524" font-family="Helvetica,sans-Serif" font-size="10.00">asm/Z2AudioLib/Z2SoundObject</text>
<text text-anchor="start" x="2741" y="-513" font-family="Helvetica,sans-Serif" font-size="10.00">/framework__21Z2DopplerSoundObjBase</text>
<text text-anchor="middle" x="2831" y="-502" font-family="Helvetica,sans-Serif" font-size="10.00">FUlSc.s</text>
</a>
</g>
</g>
<!-- Node1&#45;&gt;Node31 -->
<g id="edge38" class="edge">
<title>Node1&#45;&gt;Node31</title>
<path fill="none" stroke="#63b8ff" d="M3170.12,-571.51C3113.04,-563.23 3026.24,-550.34 2940.54,-536.23"/>
<polygon fill="#63b8ff" stroke="#63b8ff" points="2941.21,-532.79 2930.77,-534.61 2940.07,-539.7 2941.21,-532.79"/>
</g>
<!-- Node32 -->
<g id="node32" class="node">
<title>Node32</title>
<g id="a_node32"><a xlink:title=" ">
<polygon fill="#e0e0e0" stroke="#999999" points="3122.5,-536 2947.5,-536 2947.5,-495 3122.5,-495 3122.5,-536"/>
<text text-anchor="start" x="2955.5" y="-524" font-family="Helvetica,sans-Serif" font-size="10.00">asm/Z2AudioLib/Z2SoundObject</text>
<text text-anchor="start" x="2955.5" y="-513" font-family="Helvetica,sans-Serif" font-size="10.00">/startSound__21Z2DopplerSoundObj</text>
<text text-anchor="middle" x="3035" y="-502" font-family="Helvetica,sans-Serif" font-size="10.00">BaseF10JAISoundIDUlSc.s</text>
</a>
</g>
</g>
<!-- Node1&#45;&gt;Node32 -->
<g id="edge39" class="edge">
<title>Node1&#45;&gt;Node32</title>
<path fill="none" stroke="#63b8ff" d="M3205.47,-571.6C3180.16,-563.42 3141.5,-550.92 3107.39,-539.9"/>
<polygon fill="#63b8ff" stroke="#63b8ff" points="3108.53,-536.59 3097.94,-536.84 3106.37,-543.25 3108.53,-536.59"/>
</g>
<!-- Node33 -->
<g id="node33" class="node">
<title>Node33</title>
<g id="a_node33"><a xlink:title=" ">
<polygon fill="#e0e0e0" stroke="#999999" points="3325,-536 3141,-536 3141,-495 3325,-495 3325,-536"/>
<text text-anchor="start" x="3149" y="-524" font-family="Helvetica,sans-Serif" font-size="10.00">asm/Z2AudioLib/Z2SoundObject</text>
<text text-anchor="start" x="3149" y="-513" font-family="Helvetica,sans-Serif" font-size="10.00">/startLevelSound__21Z2DopplerSound</text>
<text text-anchor="middle" x="3233" y="-502" font-family="Helvetica,sans-Serif" font-size="10.00">ObjBaseF10JAISoundIDUlSc.s</text>
</a>
</g>
</g>
<!-- Node1&#45;&gt;Node33 -->
<g id="edge40" class="edge">
<title>Node1&#45;&gt;Node33</title>
<path fill="none" stroke="#63b8ff" d="M3233,-571.6C3233,-565.3 3233,-556.43 3233,-547.65"/>
<polygon fill="#63b8ff" stroke="#63b8ff" points="3236.5,-547.89 3233,-537.89 3229.5,-547.89 3236.5,-547.89"/>
</g>
<!-- Node34 -->
<g id="node34" class="node">
<title>Node34</title>
<g id="a_node34"><a xlink:title=" ">
<polygon fill="#e0e0e0" stroke="#999999" points="3505,-530.5 3343,-530.5 3343,-500.5 3505,-500.5 3505,-530.5"/>
<text text-anchor="start" x="3351" y="-518.5" font-family="Helvetica,sans-Serif" font-size="10.00">asm/Z2AudioLib/Z2SoundObject</text>
<text text-anchor="middle" x="3424" y="-507.5" font-family="Helvetica,sans-Serif" font-size="10.00">/__ct__16Z2SoundObjSimpleFv.s</text>
</a>
</g>
</g>
<!-- Node1&#45;&gt;Node34 -->
<g id="edge41" class="edge">
<title>Node1&#45;&gt;Node34</title>
<path fill="none" stroke="#63b8ff" d="M3259.56,-571.6C3287.98,-562.08 3333.86,-546.7 3369.94,-534.61"/>
<polygon fill="#63b8ff" stroke="#63b8ff" points="3370.99,-537.95 3379.36,-531.46 3368.76,-531.32 3370.99,-537.95"/>
</g>
<!-- Node35 -->
<g id="node35" class="node">
<title>Node35</title>
<g id="a_node35"><a xlink:title=" ">
<polygon fill="#e0e0e0" stroke="#999999" points="3711,-536 3523,-536 3523,-495 3711,-495 3711,-536"/>
<text text-anchor="start" x="3531" y="-524" font-family="Helvetica,sans-Serif" font-size="10.00">asm/Z2AudioLib/Z2SoundObject</text>
<text text-anchor="start" x="3531" y="-513" font-family="Helvetica,sans-Serif" font-size="10.00">/startSound__16Z2SoundObjSimpleF10</text>
<text text-anchor="middle" x="3617" y="-502" font-family="Helvetica,sans-Serif" font-size="10.00">JAISoundIDUlSc.s</text>
</a>
</g>
</g>
<!-- Node1&#45;&gt;Node35 -->
<g id="edge42" class="edge">
<title>Node1&#45;&gt;Node35</title>
<path fill="none" stroke="#63b8ff" d="M3293.11,-571.52C3347.62,-563.25 3430.47,-550.38 3511.78,-536.36"/>
<polygon fill="#63b8ff" stroke="#63b8ff" points="3511.97,-539.88 3521.23,-534.72 3510.78,-532.98 3511.97,-539.88"/>
</g>
<!-- Node36 -->
<g id="node36" class="node">
<title>Node36</title>
<g id="a_node36"><a xlink:title=" ">
<polygon fill="#e0e0e0" stroke="#999999" points="3925,-536 3729,-536 3729,-495 3925,-495 3925,-536"/>
<text text-anchor="start" x="3737" y="-524" font-family="Helvetica,sans-Serif" font-size="10.00">asm/Z2AudioLib/Z2SoundObject</text>
<text text-anchor="start" x="3737" y="-513" font-family="Helvetica,sans-Serif" font-size="10.00">/startLevelSound__16Z2SoundObjSimple</text>
<text text-anchor="middle" x="3827" y="-502" font-family="Helvetica,sans-Serif" font-size="10.00">F10JAISoundIDUlSc.s</text>
</a>
</g>
</g>
<!-- Node1&#45;&gt;Node36 -->
<g id="edge43" class="edge">
<title>Node1&#45;&gt;Node36</title>
<path fill="none" stroke="#63b8ff" d="M3319.92,-574.91C3415.06,-568.25 3572.33,-555.69 3717.22,-536.32"/>
<polygon fill="#63b8ff" stroke="#63b8ff" points="3717.58,-539.8 3727.02,-534.99 3716.64,-532.86 3717.58,-539.8"/>
</g>
<!-- Node37 -->
<g id="node37" class="node">
<title>Node37</title>
<g id="a_node37"><a xlink:title=" ">
<polygon fill="#e0e0e0" stroke="#999999" points="4101,-530.5 3943,-530.5 3943,-500.5 4101,-500.5 4101,-530.5"/>
<text text-anchor="start" x="3951" y="-518.5" font-family="Helvetica,sans-Serif" font-size="10.00">asm/Z2AudioLib/Z2SoundObject</text>
<text text-anchor="middle" x="4022" y="-507.5" font-family="Helvetica,sans-Serif" font-size="10.00">/__ct__15Z2SoundObjArrowFv.s</text>
</a>
</g>
</g>
<!-- Node1&#45;&gt;Node37 -->
<g id="edge44" class="edge">
<title>Node1&#45;&gt;Node37</title>
<path fill="none" stroke="#63b8ff" d="M3319.77,-579.3C3452.65,-576.49 3714.25,-567.13 3934,-536 3939.66,-535.2 3945.51,-534.23 3951.36,-533.15"/>
<polygon fill="#63b8ff" stroke="#63b8ff" points="3951.95,-536.6 3961.1,-531.26 3950.61,-529.73 3951.95,-536.6"/>
</g>
<!-- Node38 -->
<g id="node38" class="node">
<title>Node38</title>
<g id="a_node38"><a xlink:title=" ">
<polygon fill="#e0e0e0" stroke="#999999" points="4307,-530.5 4119,-530.5 4119,-500.5 4307,-500.5 4307,-530.5"/>
<text text-anchor="start" x="4127" y="-518.5" font-family="Helvetica,sans-Serif" font-size="10.00">asm/Z2AudioLib/Z2SoundObject</text>
<text text-anchor="middle" x="4213" y="-507.5" font-family="Helvetica,sans-Serif" font-size="10.00">/init__15Z2SoundObjArrowFP3VecUc.s</text>
</a>
</g>
</g>
<!-- Node1&#45;&gt;Node38 -->
<g id="edge45" class="edge">
<title>Node1&#45;&gt;Node38</title>
<path fill="none" stroke="#63b8ff" d="M3319.84,-580.01C3477.7,-578.25 3822.01,-570.41 4110,-536 4117.35,-535.12 4124.96,-534.03 4132.56,-532.82"/>
<polygon fill="#63b8ff" stroke="#63b8ff" points="4132.89,-536.31 4142.17,-531.21 4131.73,-529.41 4132.89,-536.31"/>
</g>
<!-- Node39 -->
<g id="node39" class="node">
<title>Node39</title>
<g id="a_node39"><a xlink:title=" ">
<polygon fill="#e0e0e0" stroke="#999999" points="4485,-530.5 4325,-530.5 4325,-500.5 4485,-500.5 4485,-530.5"/>
<text text-anchor="start" x="4333" y="-518.5" font-family="Helvetica,sans-Serif" font-size="10.00">asm/Z2AudioLib/Z2SoundObject</text>
<text text-anchor="middle" x="4405" y="-507.5" font-family="Helvetica,sans-Serif" font-size="10.00">/__ct__15Z2SoundObjAnimeFv.s</text>
</a>
</g>
</g>
<!-- Node1&#45;&gt;Node39 -->
<g id="edge46" class="edge">
<title>Node1&#45;&gt;Node39</title>
<path fill="none" stroke="#63b8ff" d="M3319.61,-578.89C3541.06,-574.47 4124,-560.78 4316,-536 4322.08,-535.22 4328.36,-534.22 4334.63,-533.1"/>
<polygon fill="#63b8ff" stroke="#63b8ff" points="4335.23,-536.55 4344.4,-531.24 4333.92,-529.67 4335.23,-536.55"/>
</g>
<!-- Node40 -->
<g id="node40" class="node">
<title>Node40</title>
<g id="a_node40"><a xlink:title=" ">
<polygon fill="#e0e0e0" stroke="#999999" points="4694.5,-530.5 4503.5,-530.5 4503.5,-500.5 4694.5,-500.5 4694.5,-530.5"/>
<text text-anchor="start" x="4511.5" y="-518.5" font-family="Helvetica,sans-Serif" font-size="10.00">asm/Z2AudioLib/Z2SoundObject</text>
<text text-anchor="middle" x="4599" y="-507.5" font-family="Helvetica,sans-Serif" font-size="10.00">/init__15Z2SoundObjAnimeFP3VecUc.s</text>
</a>
</g>
</g>
<!-- Node1&#45;&gt;Node40 -->
<g id="edge47" class="edge">
<title>Node1&#45;&gt;Node40</title>
<path fill="none" stroke="#63b8ff" d="M3319.68,-579.12C3565.8,-574.92 4265.77,-561.08 4494,-536 4501.77,-535.15 4509.82,-534.05 4517.86,-532.8"/>
<polygon fill="#63b8ff" stroke="#63b8ff" points="4518.38,-536.26 4527.69,-531.2 4517.25,-529.35 4518.38,-536.26"/>
</g>
<!-- Node41 -->
<g id="node41" class="node">
<title>Node41</title>
<g id="a_node41"><a xlink:title=" ">
<polygon fill="#e0e0e0" stroke="#999999" points="4911.5,-530.5 4712.5,-530.5 4712.5,-500.5 4911.5,-500.5 4911.5,-530.5"/>
<text text-anchor="start" x="4720.5" y="-518.5" font-family="Helvetica,sans-Serif" font-size="10.00">asm/Z2AudioLib/Z2SoundObject</text>
<text text-anchor="middle" x="4812" y="-507.5" font-family="Helvetica,sans-Serif" font-size="10.00">/initAnime__15Z2SoundObjAnimeFPvbff.s</text>
</a>
</g>
</g>
<!-- Node1&#45;&gt;Node41 -->
<g id="edge48" class="edge">
<title>Node1&#45;&gt;Node41</title>
<path fill="none" stroke="#63b8ff" d="M3319.7,-579.57C3592.78,-576.36 4433.06,-564.4 4704,-536 4712.23,-535.14 4720.79,-534 4729.31,-532.72"/>
<polygon fill="#63b8ff" stroke="#63b8ff" points="4729.64,-536.21 4738.97,-531.19 4728.55,-529.3 4729.64,-536.21"/>
</g>
<!-- Node42 -->
<g id="node42" class="node">
<title>Node42</title>
<g id="a_node42"><a xlink:title=" ">
<polygon fill="#e0e0e0" stroke="#999999" points="5124.5,-530.5 4929.5,-530.5 4929.5,-500.5 5124.5,-500.5 5124.5,-530.5"/>
<text text-anchor="start" x="4937.5" y="-518.5" font-family="Helvetica,sans-Serif" font-size="10.00">asm/Z2AudioLib/Z2SoundObject</text>
<text text-anchor="middle" x="5027" y="-507.5" font-family="Helvetica,sans-Serif" font-size="10.00">/ageSounds___15Z2SoundObjAnimeFv.s</text>
</a>
</g>
</g>
<!-- Node1&#45;&gt;Node42 -->
<g id="edge49" class="edge">
<title>Node1&#45;&gt;Node42</title>
<path fill="none" stroke="#63b8ff" d="M3319.91,-580C3619.17,-577.98 4605.83,-568.94 4921,-536 4929,-535.16 4937.3,-534.06 4945.57,-532.8"/>
<polygon fill="#63b8ff" stroke="#63b8ff" points="4945.99,-536.28 4955.31,-531.24 4944.88,-529.37 4945.99,-536.28"/>
</g>
<!-- Node43 -->
<g id="node43" class="node">
<title>Node43</title>
<g id="a_node43"><a xlink:title=" ">
<polygon fill="#e0e0e0" stroke="#999999" points="5341,-530.5 5143,-530.5 5143,-500.5 5341,-500.5 5341,-530.5"/>
<text text-anchor="start" x="5151" y="-518.5" font-family="Helvetica,sans-Serif" font-size="10.00">asm/Z2AudioLib/Z2SoundObject</text>
<text text-anchor="middle" x="5242" y="-507.5" font-family="Helvetica,sans-Serif" font-size="10.00">/updateAnime__15Z2SoundObjAnimeFff.s</text>
</a>
</g>
</g>
<!-- Node1&#45;&gt;Node43 -->
<g id="edge50" class="edge">
<title>Node1&#45;&gt;Node43</title>
<path fill="none" stroke="#63b8ff" d="M3319.77,-580.26C3642.72,-579.08 4774.97,-572.39 5134,-536 5142.3,-535.16 5150.93,-534.03 5159.52,-532.75"/>
<polygon fill="#63b8ff" stroke="#63b8ff" points="5159.94,-536.23 5169.27,-531.21 5158.85,-529.31 5159.94,-536.23"/>
</g>
<!-- Node44 -->
<g id="node44" class="node">
<title>Node44</title>
<g id="a_node44"><a xlink:title=" ">
<polygon fill="#e0e0e0" stroke="#999999" points="5539,-536 5359,-536 5359,-495 5539,-495 5539,-536"/>
<text text-anchor="start" x="5367" y="-524" font-family="Helvetica,sans-Serif" font-size="10.00">asm/Z2AudioLib/Z2SoundObject</text>
<text text-anchor="start" x="5367" y="-513" font-family="Helvetica,sans-Serif" font-size="10.00">/updateSoundLifeTime___15Z2Sound</text>
<text text-anchor="middle" x="5449" y="-502" font-family="Helvetica,sans-Serif" font-size="10.00">ObjAnimeFff.s</text>
</a>
</g>
</g>
<!-- Node1&#45;&gt;Node44 -->
<g id="edge51" class="edge">
<title>Node1&#45;&gt;Node44</title>
<path fill="none" stroke="#63b8ff" d="M3319.71,-580.68C3662.37,-581.1 4923.64,-579.65 5347.35,-536.15"/>
<polygon fill="#63b8ff" stroke="#63b8ff" points="5347.64,-539.64 5357.22,-535.11 5346.91,-532.68 5347.64,-539.64"/>
</g>
<!-- Node45 -->
<g id="node45" class="node">
<title>Node45</title>
<g id="a_node45"><a xlink:title=" ">
<polygon fill="#e0e0e0" stroke="#999999" points="5715,-530.5 5557,-530.5 5557,-500.5 5715,-500.5 5715,-530.5"/>
<text text-anchor="start" x="5565" y="-518.5" font-family="Helvetica,sans-Serif" font-size="10.00">asm/Z2AudioLib/Z2SoundObject</text>
<text text-anchor="middle" x="5636" y="-507.5" font-family="Helvetica,sans-Serif" font-size="10.00">/func_802BF660.s</text>
</a>
</g>
</g>
<!-- Node1&#45;&gt;Node45 -->
<g id="edge52" class="edge">
<title>Node1&#45;&gt;Node45</title>
<path fill="none" stroke="#63b8ff" d="M3319.68,-579.85C3713.42,-576.79 5324.03,-562.7 5548,-536 5554.37,-535.24 5560.96,-534.22 5567.53,-533.05"/>
<polygon fill="#63b8ff" stroke="#63b8ff" points="5567.88,-536.55 5577.04,-531.24 5566.57,-529.67 5567.88,-536.55"/>
</g>
<!-- Node46 -->
<g id="node46" class="node">
<title>Node46</title>
<g id="a_node46"><a xlink:title=" ">
<polygon fill="#e0e0e0" stroke="#999999" points="5891,-530.5 5733,-530.5 5733,-500.5 5891,-500.5 5891,-530.5"/>
<text text-anchor="start" x="5741" y="-518.5" font-family="Helvetica,sans-Serif" font-size="10.00">asm/Z2AudioLib/Z2SoundObject</text>
<text text-anchor="middle" x="5812" y="-507.5" font-family="Helvetica,sans-Serif" font-size="10.00">/func_802BF890.s</text>
</a>
</g>
</g>
<!-- Node1&#45;&gt;Node46 -->
<g id="edge53" class="edge">
<title>Node1&#45;&gt;Node46</title>
<path fill="none" stroke="#63b8ff" d="M3320,-579.98C3732.53,-577.37 5481.79,-564.71 5724,-536 5730.37,-535.24 5736.96,-534.23 5743.53,-533.06"/>
<polygon fill="#63b8ff" stroke="#63b8ff" points="5743.88,-536.56 5753.05,-531.25 5742.57,-529.68 5743.88,-536.56"/>
</g>
<!-- Node47 -->
<g id="node47" class="node">
<title>Node47</title>
<g id="a_node47"><a xlink:title=" ">
<polygon fill="#e0e0e0" stroke="#999999" points="6067,-530.5 5909,-530.5 5909,-500.5 6067,-500.5 6067,-530.5"/>
<text text-anchor="start" x="5917" y="-518.5" font-family="Helvetica,sans-Serif" font-size="10.00">asm/Z2AudioLib/Z2SoundObject</text>
<text text-anchor="middle" x="5988" y="-507.5" font-family="Helvetica,sans-Serif" font-size="10.00">/func_802BF898.s</text>
</a>
</g>
</g>
<!-- Node1&#45;&gt;Node47 -->
<g id="edge54" class="edge">
<title>Node1&#45;&gt;Node47</title>
<path fill="none" stroke="#63b8ff" d="M3320,-580.09C3750.14,-577.92 5639.44,-566.72 5900,-536 5906.37,-535.25 5912.96,-534.24 5919.53,-533.07"/>
<polygon fill="#63b8ff" stroke="#63b8ff" points="5919.88,-536.57 5929.05,-531.26 5918.57,-529.69 5919.88,-536.57"/>
</g>
<!-- Node3 -->
<g id="node3" class="node">
<title>Node3</title>
<g id="a_node3"><a xlink:href="Z2SoundHandles_8h.html" target="_top" xlink:title=" ">
<polygon fill="white" stroke="#666666" points="629,-459 477,-459 477,-440 629,-440 629,-459"/>
<text text-anchor="middle" x="553" y="-447" font-family="Helvetica,sans-Serif" font-size="10.00">Z2AudioLib/Z2SoundHandles.h</text>
</a>
</g>
</g>
<!-- Node2&#45;&gt;Node3 -->
<g id="edge2" class="edge">
<title>Node2&#45;&gt;Node3</title>
<path fill="none" stroke="#63b8ff" d="M657.18,-505.6C637.13,-495 603.38,-477.15 579.74,-464.65"/>
<polygon fill="#63b8ff" stroke="#63b8ff" points="581.5,-461.61 571.02,-460.03 578.22,-467.8 581.5,-461.61"/>
</g>
<!-- Node8 -->
<g id="node8" class="node">
<title>Node8</title>
<g id="a_node8"><a xlink:href="types_8h.html" target="_top" xlink:title=" ">
<polygon fill="white" stroke="#666666" points="487.5,-90.5 406.5,-90.5 406.5,-71.5 487.5,-71.5 487.5,-90.5"/>
<text text-anchor="middle" x="447" y="-78.5" font-family="Helvetica,sans-Serif" font-size="10.00">dolphin/types.h</text>
</a>
</g>
</g>
<!-- Node2&#45;&gt;Node8 -->
<g id="edge25" class="edge">
<title>Node2&#45;&gt;Node8</title>
<path fill="none" stroke="#63b8ff" d="M674,-505.75C674,-485.42 674,-433.45 674,-390 674,-390 674,-390 674,-201 674,-122.45 566.05,-95.64 499.04,-86.57"/>
<polygon fill="#63b8ff" stroke="#63b8ff" points="499.7,-83.13 489.35,-85.36 498.83,-90.08 499.7,-83.13"/>
</g>
<!-- Node4 -->
<g id="node4" class="node">
<title>Node4</title>
<g id="a_node4"><a xlink:href="JAISoundHandles_8h.html" target="_top" xlink:title=" ">
<polygon fill="white" stroke="#666666" points="446.5,-404 307.5,-404 307.5,-374 446.5,-374 446.5,-404"/>
<text text-anchor="start" x="315.5" y="-392" font-family="Helvetica,sans-Serif" font-size="10.00">JSystem/JAudio2/JAISound</text>
<text text-anchor="middle" x="377" y="-381" font-family="Helvetica,sans-Serif" font-size="10.00">Handles.h</text>
</a>
</g>
</g>
<!-- Node3&#45;&gt;Node4 -->
<g id="edge3" class="edge">
<title>Node3&#45;&gt;Node4</title>
<path fill="none" stroke="#63b8ff" d="M526.27,-439.62C501.15,-431.27 462.81,-418.52 431.28,-408.04"/>
<polygon fill="#63b8ff" stroke="#63b8ff" points="432.47,-404.75 421.88,-404.92 430.26,-411.39 432.47,-404.75"/>
</g>
<!-- Node3&#45;&gt;Node8 -->
<g id="edge24" class="edge">
<title>Node3&#45;&gt;Node8</title>
<path fill="none" stroke="#63b8ff" d="M572.65,-439.59C587.03,-432.09 605.89,-420.01 617,-404 636.48,-375.92 636,-363.67 636,-329.5 636,-329.5 636,-329.5 636,-201 636,-135.89 554.67,-104.99 498.71,-91.44"/>
<polygon fill="#63b8ff" stroke="#63b8ff" points="499.55,-88.04 489.02,-89.22 497.99,-94.87 499.55,-88.04"/>
</g>
<!-- Node19 -->
<g id="node19" class="node">
<title>Node19</title>
<g id="a_node19"><a xlink:href="JSUList_8h.html" target="_top" xlink:title=" ">
<polygon fill="white" stroke="#666666" points="607.5,-398.5 464.5,-398.5 464.5,-379.5 607.5,-379.5 607.5,-398.5"/>
<text text-anchor="middle" x="536" y="-386.5" font-family="Helvetica,sans-Serif" font-size="10.00">JSystem/JSupport/JSUList.h</text>
</a>
</g>
</g>
<!-- Node3&#45;&gt;Node19 -->
<g id="edge22" class="edge">
<title>Node3&#45;&gt;Node19</title>
<path fill="none" stroke="#63b8ff" d="M550.49,-439.87C548.18,-431.92 544.67,-419.83 541.68,-409.55"/>
<polygon fill="#63b8ff" stroke="#63b8ff" points="545.09,-408.75 538.94,-400.12 538.37,-410.7 545.09,-408.75"/>
</g>
<!-- Node5 -->
<g id="node5" class="node">
<title>Node5</title>
<g id="a_node5"><a xlink:href="JAISound_8h.html" target="_top" xlink:title=" ">
<polygon fill="white" stroke="#666666" points="394,-338 248,-338 248,-319 394,-319 394,-338"/>
<text text-anchor="middle" x="321" y="-326" font-family="Helvetica,sans-Serif" font-size="10.00">JSystem/JAudio2/JAISound.h</text>
</a>
</g>
</g>
<!-- Node4&#45;&gt;Node5 -->
<g id="edge4" class="edge">
<title>Node4&#45;&gt;Node5</title>
<path fill="none" stroke="#63b8ff" d="M363.16,-373.54C355.27,-365.3 345.36,-354.94 337.12,-346.34"/>
<polygon fill="#63b8ff" stroke="#63b8ff" points="339.79,-344.07 330.35,-339.27 334.74,-348.91 339.79,-344.07"/>
</g>
<!-- Node18 -->
<g id="node18" class="node">
<title>Node18</title>
<g id="a_node18"><a xlink:href="JUTAssert_8h.html" target="_top" xlink:title=" ">
<polygon fill="white" stroke="#666666" points="608,-338 462,-338 462,-319 608,-319 608,-338"/>
<text text-anchor="middle" x="535" y="-326" font-family="Helvetica,sans-Serif" font-size="10.00">JSystem/JUtility/JUTAssert.h</text>
</a>
</g>
</g>
<!-- Node4&#45;&gt;Node18 -->
<g id="edge20" class="edge">
<title>Node4&#45;&gt;Node18</title>
<path fill="none" stroke="#63b8ff" d="M416.06,-373.54C441.89,-363.97 475.46,-351.55 500.34,-342.33"/>
<polygon fill="#63b8ff" stroke="#63b8ff" points="501.53,-345.63 509.69,-338.87 499.1,-339.06 501.53,-345.63"/>
</g>
<!-- Node6 -->
<g id="node6" class="node">
<title>Node6</title>
<g id="a_node6"><a xlink:href="JAISoundParams_8h.html" target="_top" xlink:title=" ">
<polygon fill="white" stroke="#666666" points="365.5,-283 226.5,-283 226.5,-253 365.5,-253 365.5,-283"/>
<text text-anchor="start" x="234.5" y="-271" font-family="Helvetica,sans-Serif" font-size="10.00">JSystem/JAudio2/JAISound</text>
<text text-anchor="middle" x="296" y="-260" font-family="Helvetica,sans-Serif" font-size="10.00">Params.h</text>
</a>
</g>
</g>
<!-- Node5&#45;&gt;Node6 -->
<g id="edge5" class="edge">
<title>Node5&#45;&gt;Node6</title>
<path fill="none" stroke="#63b8ff" d="M317.31,-318.87C314.45,-312.18 310.34,-302.57 306.5,-293.56"/>
<polygon fill="#63b8ff" stroke="#63b8ff" points="309.77,-292.33 302.63,-284.51 303.34,-295.08 309.77,-292.33"/>
</g>
<!-- Node10 -->
<g id="node10" class="node">
<title>Node10</title>
<g id="a_node10"><a xlink:href="JAIAudible_8h.html" target="_top" xlink:title=" ">
<polygon fill="white" stroke="#666666" points="208.5,-277.5 57.5,-277.5 57.5,-258.5 208.5,-258.5 208.5,-277.5"/>
<text text-anchor="middle" x="133" y="-265.5" font-family="Helvetica,sans-Serif" font-size="10.00">JSystem/JAudio2/JAIAudible.h</text>
</a>
</g>
</g>
<!-- Node5&#45;&gt;Node10 -->
<g id="edge9" class="edge">
<title>Node5&#45;&gt;Node10</title>
<path fill="none" stroke="#63b8ff" d="M292.45,-318.62C260.42,-308.65 208.28,-292.43 172.4,-281.26"/>
<polygon fill="#63b8ff" stroke="#63b8ff" points="173.86,-278.05 163.27,-278.42 171.78,-284.73 173.86,-278.05"/>
</g>
<!-- Node17 -->
<g id="node17" class="node">
<title>Node17</title>
<g id="a_node17"><a xlink:href="global_8h.html" target="_top" xlink:title=" ">
<polygon fill="white" stroke="#666666" points="419,-211.5 369,-211.5 369,-192.5 419,-192.5 419,-211.5"/>
<text text-anchor="middle" x="394" y="-199.5" font-family="Helvetica,sans-Serif" font-size="10.00">global.h</text>
</a>
</g>
</g>
<!-- Node5&#45;&gt;Node17 -->
<g id="edge18" class="edge">
<title>Node5&#45;&gt;Node17</title>
<path fill="none" stroke="#63b8ff" d="M335.82,-318.79C347.89,-310.93 364.45,-298.28 374,-283 385.49,-264.62 390.38,-240 392.47,-222.95"/>
<polygon fill="#63b8ff" stroke="#63b8ff" points="395.94,-223.41 393.43,-213.12 388.97,-222.73 395.94,-223.41"/>
</g>
<!-- Node7 -->
<g id="node7" class="node">
<title>Node7</title>
<g id="a_node7"><a xlink:href="JASSoundParams_8h.html" target="_top" xlink:title=" ">
<polygon fill="white" stroke="#666666" points="350.5,-217 207.5,-217 207.5,-187 350.5,-187 350.5,-217"/>
<text text-anchor="start" x="215.5" y="-205" font-family="Helvetica,sans-Serif" font-size="10.00">JSystem/JAudio2/JASSound</text>
<text text-anchor="middle" x="279" y="-194" font-family="Helvetica,sans-Serif" font-size="10.00">Params.h</text>
</a>
</g>
</g>
<!-- Node6&#45;&gt;Node7 -->
<g id="edge6" class="edge">
<title>Node6&#45;&gt;Node7</title>
<path fill="none" stroke="#63b8ff" d="M292.23,-252.8C290.31,-245.59 287.93,-236.61 285.71,-228.27"/>
<polygon fill="#63b8ff" stroke="#63b8ff" points="289.1,-227.39 283.15,-218.63 282.34,-229.19 289.1,-227.39"/>
</g>
<!-- Node7&#45;&gt;Node8 -->
<g id="edge7" class="edge">
<title>Node7&#45;&gt;Node8</title>
<path fill="none" stroke="#63b8ff" d="M299.26,-186.65C331.06,-164.13 392.41,-120.67 425.15,-97.48"/>
<polygon fill="#63b8ff" stroke="#63b8ff" points="426.96,-100.49 433.1,-91.85 422.91,-94.77 426.96,-100.49"/>
</g>
<!-- Node9 -->
<g id="node9" class="node">
<title>Node9</title>
<g id="a_node9"><a xlink:href="stddef_8h.html" target="_top" xlink:title=" ">
<polygon fill="white" stroke="#666666" points="515,-30 379,-30 379,0 515,0 515,-30"/>
<text text-anchor="start" x="387" y="-18" font-family="Helvetica,sans-Serif" font-size="10.00">MSL_C/MSL_Common/Src</text>
<text text-anchor="middle" x="447" y="-7" font-family="Helvetica,sans-Serif" font-size="10.00">/stddef.h</text>
</a>
</g>
</g>
<!-- Node8&#45;&gt;Node9 -->
<g id="edge8" class="edge">
<title>Node8&#45;&gt;Node9</title>
<path fill="none" stroke="#63b8ff" d="M447,-71.1C447,-63.41 447,-51.92 447,-41.42"/>
<polygon fill="#63b8ff" stroke="#63b8ff" points="450.5,-41.75 447,-31.75 443.5,-41.75 450.5,-41.75"/>
</g>
<!-- Node11 -->
<g id="node11" class="node">
<title>Node11</title>
<g id="a_node11"><a xlink:href="JGeometry_8h.html" target="_top" xlink:title=" ">
<polygon fill="white" stroke="#666666" points="189.5,-211.5 76.5,-211.5 76.5,-192.5 189.5,-192.5 189.5,-211.5"/>
<text text-anchor="middle" x="133" y="-199.5" font-family="Helvetica,sans-Serif" font-size="10.00">JSystem/JGeometry.h</text>
</a>
</g>
</g>
<!-- Node10&#45;&gt;Node11 -->
<g id="edge10" class="edge">
<title>Node10&#45;&gt;Node11</title>
<path fill="none" stroke="#63b8ff" d="M133,-258.1C133,-249.12 133,-234.95 133,-223.22"/>
<polygon fill="#63b8ff" stroke="#63b8ff" points="136.5,-223.34 133,-213.34 129.5,-223.34 136.5,-223.34"/>
</g>
<!-- Node12 -->
<g id="node12" class="node">
<title>Node12</title>
<g id="a_node12"><a xlink:href="vec_8h.html" target="_top" xlink:title=" ">
<polygon fill="white" stroke="#666666" points="317,-151 225,-151 225,-132 317,-132 317,-151"/>
<text text-anchor="middle" x="271" y="-139" font-family="Helvetica,sans-Serif" font-size="10.00">dolphin/mtx/vec.h</text>
</a>
</g>
</g>
<!-- Node11&#45;&gt;Node12 -->
<g id="edge11" class="edge">
<title>Node11&#45;&gt;Node12</title>
<path fill="none" stroke="#63b8ff" d="M153.96,-192.12C176.65,-182.49 213.12,-167.04 239.31,-155.93"/>
<polygon fill="#63b8ff" stroke="#63b8ff" points="240.61,-159.18 248.45,-152.06 237.88,-152.74 240.61,-159.18"/>
</g>
<!-- Node13 -->
<g id="node13" class="node">
<title>Node13</title>
<g id="a_node13"><a xlink:href="float_8h.html" target="_top" xlink:title=" ">
<polygon fill="white" stroke="#666666" points="78,-151 0,-151 0,-132 78,-132 78,-151"/>
<text text-anchor="middle" x="39" y="-139" font-family="Helvetica,sans-Serif" font-size="10.00">MSL_C/float.h</text>
</a>
</g>
</g>
<!-- Node11&#45;&gt;Node13 -->
<g id="edge13" class="edge">
<title>Node11&#45;&gt;Node13</title>
<path fill="none" stroke="#63b8ff" d="M118.72,-192.12C103.95,-182.92 80.63,-168.41 63.01,-157.44"/>
<polygon fill="#63b8ff" stroke="#63b8ff" points="65.04,-154.58 54.7,-152.27 61.34,-160.52 65.04,-154.58"/>
</g>
<!-- Node16 -->
<g id="node16" class="node">
<title>Node16</title>
<g id="a_node16"><a xlink:href="math_8h.html" target="_top" xlink:title=" ">
<polygon fill="white" stroke="#666666" points="178,-151 96,-151 96,-132 178,-132 178,-151"/>
<text text-anchor="middle" x="137" y="-139" font-family="Helvetica,sans-Serif" font-size="10.00">MSL_C/math.h</text>
</a>
</g>
</g>
<!-- Node11&#45;&gt;Node16 -->
<g id="edge16" class="edge">
<title>Node11&#45;&gt;Node16</title>
<path fill="none" stroke="#63b8ff" d="M133.59,-192.37C134.13,-184.5 134.94,-172.6 135.64,-162.39"/>
<polygon fill="#63b8ff" stroke="#63b8ff" points="139.11,-162.89 136.3,-152.68 132.13,-162.42 139.11,-162.89"/>
</g>
<!-- Node12&#45;&gt;Node8 -->
<g id="edge12" class="edge">
<title>Node12&#45;&gt;Node8</title>
<path fill="none" stroke="#63b8ff" d="M297.73,-131.62C327.45,-121.74 375.68,-105.71 409.25,-94.55"/>
<polygon fill="#63b8ff" stroke="#63b8ff" points="410.2,-97.92 418.58,-91.45 407.99,-91.28 410.2,-97.92"/>
</g>
<!-- Node14 -->
<g id="node14" class="node">
<title>Node14</title>
<g id="a_node14"><a xlink:href="MSL__Common_2Src_2float_8h.html" target="_top" xlink:title=" ">
<polygon fill="white" stroke="#666666" points="156,-96 20,-96 20,-66 156,-66 156,-96"/>
<text text-anchor="start" x="28" y="-84" font-family="Helvetica,sans-Serif" font-size="10.00">MSL_C/MSL_Common/Src</text>
<text text-anchor="middle" x="88" y="-73" font-family="Helvetica,sans-Serif" font-size="10.00">/float.h</text>
</a>
</g>
</g>
<!-- Node13&#45;&gt;Node14 -->
<g id="edge14" class="edge">
<title>Node13&#45;&gt;Node14</title>
<path fill="none" stroke="#63b8ff" d="M46.23,-131.87C52.2,-124.74 60.96,-114.28 68.91,-104.79"/>
<polygon fill="#63b8ff" stroke="#63b8ff" points="71.47,-107.19 75.21,-97.27 66.1,-102.69 71.47,-107.19"/>
</g>
<!-- Node15 -->
<g id="node15" class="node">
<title>Node15</title>
<g id="a_node15"><a xlink:href="fdlibm_8h.html" target="_top" xlink:title=" ">
<polygon fill="white" stroke="#666666" points="113,-24.5 63,-24.5 63,-5.5 113,-5.5 113,-24.5"/>
<text text-anchor="middle" x="88" y="-12.5" font-family="Helvetica,sans-Serif" font-size="10.00">fdlibm.h</text>
</a>
</g>
</g>
<!-- Node14&#45;&gt;Node15 -->
<g id="edge15" class="edge">
<title>Node14&#45;&gt;Node15</title>
<path fill="none" stroke="#63b8ff" d="M88,-65.8C88,-57.09 88,-45.81 88,-36.18"/>
<polygon fill="#63b8ff" stroke="#63b8ff" points="91.5,-36.36 88,-26.36 84.5,-36.36 91.5,-36.36"/>
</g>
<!-- Node16&#45;&gt;Node14 -->
<g id="edge17" class="edge">
<title>Node16&#45;&gt;Node14</title>
<path fill="none" stroke="#63b8ff" d="M129.77,-131.87C123.8,-124.74 115.04,-114.28 107.09,-104.79"/>
<polygon fill="#63b8ff" stroke="#63b8ff" points="109.9,-102.69 100.79,-97.27 104.53,-107.19 109.9,-102.69"/>
</g>
<!-- Node17&#45;&gt;Node8 -->
<g id="edge19" class="edge">
<title>Node17&#45;&gt;Node8</title>
<path fill="none" stroke="#63b8ff" d="M397.98,-192.06C406.54,-172.84 426.85,-127.24 438.46,-101.17"/>
<polygon fill="#63b8ff" stroke="#63b8ff" points="441.63,-102.67 442.5,-92.11 435.23,-99.82 441.63,-102.67"/>
</g>
<!-- Node18&#45;&gt;Node8 -->
<g id="edge21" class="edge">
<title>Node18&#45;&gt;Node8</title>
<path fill="none" stroke="#63b8ff" d="M531.87,-318.76C519.25,-283.57 471.98,-151.69 454,-101.53"/>
<polygon fill="#63b8ff" stroke="#63b8ff" points="457.37,-100.55 450.7,-92.31 450.78,-102.91 457.37,-100.55"/>
</g>
<!-- Node19&#45;&gt;Node8 -->
<g id="edge23" class="edge">
<title>Node19&#45;&gt;Node8</title>
<path fill="none" stroke="#63b8ff" d="M507.6,-379.05C488.54,-371.41 464.83,-358.37 453,-338 429.9,-298.22 440.23,-155.47 445.03,-102.22"/>
<polygon fill="#63b8ff" stroke="#63b8ff" points="448.5,-102.77 445.94,-92.49 441.53,-102.12 448.5,-102.77"/>
</g>
<!-- Node20&#45;&gt;Node18 -->
<g id="edge27" class="edge">
<title>Node20&#45;&gt;Node18</title>
<path fill="none" stroke="#63b8ff" d="M760.66,-439.56C718.43,-418.96 614.07,-368.06 563.45,-343.37"/>
<polygon fill="#63b8ff" stroke="#63b8ff" points="565.1,-340.29 554.58,-339.05 562.03,-346.58 565.1,-340.29"/>
</g>
</g>
</svg>
