<?xml version="1.0" encoding="UTF-8" standalone="no"?>
<!DOCTYPE svg PUBLIC "-//W3C//DTD SVG 1.1//EN"
 "http://www.w3.org/Graphics/SVG/1.1/DTD/svg11.dtd">
<!-- Generated by graphviz version 7.0.5 (20221223.1930)
 -->
<!-- Title: libs/Z2AudioLib/Z2SoundHandles.cpp Pages: 1 -->
<svg width="1610pt" height="544pt"
 viewBox="0.00 0.00 1610.00 544.00" xmlns="http://www.w3.org/2000/svg" xmlns:xlink="http://www.w3.org/1999/xlink">
<g id="graph0" class="graph" transform="scale(1 1) rotate(0) translate(4 540)">
<title>libs/Z2AudioLib/Z2SoundHandles.cpp</title>
<!-- Node1 -->
<g id="node1" class="node">
<title>Node1</title>
<g id="a_node1"><a xlink:title=" ">
<polygon fill="#999999" stroke="#666666" points="997,-536 817,-536 817,-517 997,-517 997,-536"/>
<text text-anchor="middle" x="907" y="-524" font-family="Helvetica,sans-Serif" font-size="10.00">libs/Z2AudioLib/Z2SoundHandles.cpp</text>
</a>
</g>
</g>
<!-- Node2 -->
<g id="node2" class="node">
<title>Node2</title>
<g id="a_node2"><a xlink:href="Z2SoundHandles_8h.html" target="_top" xlink:title=" ">
<polygon fill="white" stroke="#666666" points="517,-470 365,-470 365,-451 517,-451 517,-470"/>
<text text-anchor="middle" x="441" y="-458" font-family="Helvetica,sans-Serif" font-size="10.00">Z2AudioLib/Z2SoundHandles.h</text>
</a>
</g>
</g>
<!-- Node1&#45;&gt;Node2 -->
<g id="edge1" class="edge">
<title>Node1&#45;&gt;Node2</title>
<path fill="none" stroke="#63b8ff" d="M823.39,-516.5C750.52,-508.33 642.05,-495.39 548,-481 531.7,-478.51 514.06,-475.44 497.9,-472.49"/>
<polygon fill="#63b8ff" stroke="#63b8ff" points="498.95,-469.13 488.48,-470.75 497.67,-476.01 498.95,-469.13"/>
</g>
<!-- Node7 -->
<g id="node7" class="node">
<title>Node7</title>
<g id="a_node7"><a xlink:href="types_8h.html" target="_top" xlink:title=" ">
<polygon fill="white" stroke="#666666" points="488.5,-90.5 407.5,-90.5 407.5,-71.5 488.5,-71.5 488.5,-90.5"/>
<text text-anchor="middle" x="448" y="-78.5" font-family="Helvetica,sans-Serif" font-size="10.00">dolphin/types.h</text>
</a>
</g>
</g>
<!-- Node1&#45;&gt;Node7 -->
<g id="edge24" class="edge">
<title>Node1&#45;&gt;Node7</title>
<path fill="none" stroke="#63b8ff" d="M816.76,-524.53C732.3,-521.66 614.27,-512.01 581,-481 550.78,-452.83 562,-431.32 562,-390 562,-390 562,-390 562,-201 562,-151.87 510.7,-115.1 476.92,-96.22"/>
<polygon fill="#63b8ff" stroke="#63b8ff" points="478.88,-93.3 468.41,-91.66 475.57,-99.47 478.88,-93.3"/>
</g>
<!-- Node19 -->
<g id="node19" class="node">
<title>Node19</title>
<g id="a_node19"><a xlink:title=" ">
<polygon fill="#e0e0e0" stroke="#999999" points="806,-475.5 590,-475.5 590,-445.5 806,-445.5 806,-475.5"/>
<text text-anchor="start" x="598" y="-463.5" font-family="Helvetica,sans-Serif" font-size="10.00">asm/Z2AudioLib/Z2SoundHandles</text>
<text text-anchor="middle" x="698" y="-452.5" font-family="Helvetica,sans-Serif" font-size="10.00">/deleteHandlesPool__14Z2SoundHandlesFv.s</text>
</a>
</g>
</g>
<!-- Node1&#45;&gt;Node19 -->
<g id="edge25" class="edge">
<title>Node1&#45;&gt;Node19</title>
<path fill="none" stroke="#63b8ff" d="M877.94,-516.6C846.57,-506.99 795.77,-491.44 756.14,-479.3"/>
<polygon fill="#63b8ff" stroke="#63b8ff" points="757.31,-476 746.73,-476.42 755.26,-482.7 757.31,-476"/>
</g>
<!-- Node20 -->
<g id="node20" class="node">
<title>Node20</title>
<g id="a_node20"><a xlink:title=" ">
<polygon fill="#e0e0e0" stroke="#999999" points="990,-475.5 824,-475.5 824,-445.5 990,-445.5 990,-475.5"/>
<text text-anchor="start" x="832" y="-463.5" font-family="Helvetica,sans-Serif" font-size="10.00">asm/Z2AudioLib/Z2SoundHandles</text>
<text text-anchor="middle" x="907" y="-452.5" font-family="Helvetica,sans-Serif" font-size="10.00">/func_802AB200.s</text>
</a>
</g>
</g>
<!-- Node1&#45;&gt;Node20 -->
<g id="edge26" class="edge">
<title>Node1&#45;&gt;Node20</title>
<path fill="none" stroke="#63b8ff" d="M907,-516.6C907,-508.91 907,-497.42 907,-486.92"/>
<polygon fill="#63b8ff" stroke="#63b8ff" points="910.5,-487.25 907,-477.25 903.5,-487.25 910.5,-487.25"/>
</g>
<!-- Node21 -->
<g id="node21" class="node">
<title>Node21</title>
<g id="a_node21"><a xlink:title=" ">
<polygon fill="#e0e0e0" stroke="#999999" points="1206,-475.5 1008,-475.5 1008,-445.5 1206,-445.5 1206,-475.5"/>
<text text-anchor="start" x="1016" y="-463.5" font-family="Helvetica,sans-Serif" font-size="10.00">asm/Z2AudioLib/Z2SoundHandles</text>
<text text-anchor="middle" x="1107" y="-452.5" font-family="Helvetica,sans-Serif" font-size="10.00">/getFreeHandle__14Z2SoundHandlesFv.s</text>
</a>
</g>
</g>
<!-- Node1&#45;&gt;Node21 -->
<g id="edge27" class="edge">
<title>Node1&#45;&gt;Node21</title>
<path fill="none" stroke="#63b8ff" d="M934.81,-516.6C964.7,-507.04 1013.02,-491.57 1050.88,-479.46"/>
<polygon fill="#63b8ff" stroke="#63b8ff" points="1051.86,-482.82 1060.32,-476.44 1049.72,-476.15 1051.86,-482.82"/>
</g>
<!-- Node22 -->
<g id="node22" class="node">
<title>Node22</title>
<g id="a_node22"><a xlink:title=" ">
<polygon fill="#e0e0e0" stroke="#999999" points="1417.5,-481 1224.5,-481 1224.5,-440 1417.5,-440 1417.5,-481"/>
<text text-anchor="start" x="1232.5" y="-469" font-family="Helvetica,sans-Serif" font-size="10.00">asm/Z2AudioLib/Z2SoundHandles</text>
<text text-anchor="start" x="1232.5" y="-458" font-family="Helvetica,sans-Serif" font-size="10.00">/getLowPrioSound__14Z2SoundHandles</text>
<text text-anchor="middle" x="1321" y="-447" font-family="Helvetica,sans-Serif" font-size="10.00">F10JAISoundID.s</text>
</a>
</g>
</g>
<!-- Node1&#45;&gt;Node22 -->
<g id="edge28" class="edge">
<title>Node1&#45;&gt;Node22</title>
<path fill="none" stroke="#63b8ff" d="M974.41,-516.52C1034.32,-508.37 1124.59,-495.66 1212.94,-481.31"/>
<polygon fill="#63b8ff" stroke="#63b8ff" points="1213.47,-484.77 1222.77,-479.7 1212.34,-477.86 1213.47,-484.77"/>
</g>
<!-- Node23 -->
<g id="node23" class="node">
<title>Node23</title>
<g id="a_node23"><a xlink:title=" ">
<polygon fill="#e0e0e0" stroke="#999999" points="1602,-475.5 1436,-475.5 1436,-445.5 1602,-445.5 1602,-475.5"/>
<text text-anchor="start" x="1444" y="-463.5" font-family="Helvetica,sans-Serif" font-size="10.00">asm/Z2AudioLib/Z2SoundHandles</text>
<text text-anchor="middle" x="1519" y="-452.5" font-family="Helvetica,sans-Serif" font-size="10.00">/func_802AB538.s</text>
</a>
</g>
</g>
<!-- Node1&#45;&gt;Node23 -->
<g id="edge29" class="edge">
<title>Node1&#45;&gt;Node23</title>
<path fill="none" stroke="#63b8ff" d="M997.11,-521.17C1101.11,-515.4 1277.1,-503.21 1427,-481 1432.85,-480.13 1438.9,-479.12 1444.95,-478.02"/>
<polygon fill="#63b8ff" stroke="#63b8ff" points="1445.18,-481.54 1454.35,-476.24 1443.87,-474.66 1445.18,-481.54"/>
</g>
<!-- Node3 -->
<g id="node3" class="node">
<title>Node3</title>
<g id="a_node3"><a xlink:href="JAISoundHandles_8h.html" target="_top" xlink:title=" ">
<polygon fill="white" stroke="#666666" points="334.5,-404 195.5,-404 195.5,-374 334.5,-374 334.5,-404"/>
<text text-anchor="start" x="203.5" y="-392" font-family="Helvetica,sans-Serif" font-size="10.00">JSystem/JAudio2/JAISound</text>
<text text-anchor="middle" x="265" y="-381" font-family="Helvetica,sans-Serif" font-size="10.00">Handles.h</text>
</a>
</g>
</g>
<!-- Node2&#45;&gt;Node3 -->
<g id="edge2" class="edge">
<title>Node2&#45;&gt;Node3</title>
<path fill="none" stroke="#63b8ff" d="M418.35,-450.56C391.6,-439.99 346.38,-422.13 311.95,-408.54"/>
<polygon fill="#63b8ff" stroke="#63b8ff" points="313.64,-405.45 303.06,-405.03 311.07,-411.96 313.64,-405.45"/>
</g>
<!-- Node2&#45;&gt;Node7 -->
<g id="edge23" class="edge">
<title>Node2&#45;&gt;Node7</title>
<path fill="none" stroke="#63b8ff" d="M455.21,-450.66C469.63,-440.96 491.55,-424.06 504,-404 522.08,-374.87 524,-363.78 524,-329.5 524,-329.5 524,-329.5 524,-201 524,-158.99 489.94,-119.89 467.42,-98.64"/>
<polygon fill="#63b8ff" stroke="#63b8ff" points="469.77,-96.05 460.01,-91.92 465.07,-101.23 469.77,-96.05"/>
</g>
<!-- Node18 -->
<g id="node18" class="node">
<title>Node18</title>
<g id="a_node18"><a xlink:href="JSUList_8h.html" target="_top" xlink:title=" ">
<polygon fill="white" stroke="#666666" points="495.5,-398.5 352.5,-398.5 352.5,-379.5 495.5,-379.5 495.5,-398.5"/>
<text text-anchor="middle" x="424" y="-386.5" font-family="Helvetica,sans-Serif" font-size="10.00">JSystem/JSupport/JSUList.h</text>
</a>
</g>
</g>
<!-- Node2&#45;&gt;Node18 -->
<g id="edge21" class="edge">
<title>Node2&#45;&gt;Node18</title>
<path fill="none" stroke="#63b8ff" d="M438.85,-450.7C436.36,-440.52 432.18,-423.44 428.89,-409.98"/>
<polygon fill="#63b8ff" stroke="#63b8ff" points="432.32,-409.3 426.55,-400.42 425.53,-410.97 432.32,-409.3"/>
</g>
<!-- Node4 -->
<g id="node4" class="node">
<title>Node4</title>
<g id="a_node4"><a xlink:href="JAISound_8h.html" target="_top" xlink:title=" ">
<polygon fill="white" stroke="#666666" points="294,-338 148,-338 148,-319 294,-319 294,-338"/>
<text text-anchor="middle" x="221" y="-326" font-family="Helvetica,sans-Serif" font-size="10.00">JSystem/JAudio2/JAISound.h</text>
</a>
</g>
</g>
<!-- Node3&#45;&gt;Node4 -->
<g id="edge3" class="edge">
<title>Node3&#45;&gt;Node4</title>
<path fill="none" stroke="#63b8ff" d="M254.12,-373.54C248.12,-365.56 240.63,-355.59 234.28,-347.16"/>
<polygon fill="#63b8ff" stroke="#63b8ff" points="237.24,-345.27 228.43,-339.38 231.65,-349.48 237.24,-345.27"/>
</g>
<!-- Node17 -->
<g id="node17" class="node">
<title>Node17</title>
<g id="a_node17"><a xlink:href="JUTAssert_8h.html" target="_top" xlink:title=" ">
<polygon fill="white" stroke="#666666" points="458,-338 312,-338 312,-319 458,-319 458,-338"/>
<text text-anchor="middle" x="385" y="-326" font-family="Helvetica,sans-Serif" font-size="10.00">JSystem/JUtility/JUTAssert.h</text>
</a>
</g>
</g>
<!-- Node3&#45;&gt;Node17 -->
<g id="edge19" class="edge">
<title>Node3&#45;&gt;Node17</title>
<path fill="none" stroke="#63b8ff" d="M294.66,-373.54C313.58,-364.32 337.95,-352.44 356.61,-343.34"/>
<polygon fill="#63b8ff" stroke="#63b8ff" points="358.04,-346.54 365.49,-339.01 354.97,-340.25 358.04,-346.54"/>
</g>
<!-- Node5 -->
<g id="node5" class="node">
<title>Node5</title>
<g id="a_node5"><a xlink:href="JAISoundParams_8h.html" target="_top" xlink:title=" ">
<polygon fill="white" stroke="#666666" points="407.5,-283 268.5,-283 268.5,-253 407.5,-253 407.5,-283"/>
<text text-anchor="start" x="276.5" y="-271" font-family="Helvetica,sans-Serif" font-size="10.00">JSystem/JAudio2/JAISound</text>
<text text-anchor="middle" x="338" y="-260" font-family="Helvetica,sans-Serif" font-size="10.00">Params.h</text>
</a>
</g>
</g>
<!-- Node4&#45;&gt;Node5 -->
<g id="edge4" class="edge">
<title>Node4&#45;&gt;Node5</title>
<path fill="none" stroke="#63b8ff" d="M238.77,-318.62C254.67,-310.67 278.53,-298.74 298.87,-288.57"/>
<polygon fill="#63b8ff" stroke="#63b8ff" points="300.39,-291.72 307.77,-284.12 297.26,-285.46 300.39,-291.72"/>
</g>
<!-- Node9 -->
<g id="node9" class="node">
<title>Node9</title>
<g id="a_node9"><a xlink:href="JAIAudible_8h.html" target="_top" xlink:title=" ">
<polygon fill="white" stroke="#666666" points="205.5,-277.5 54.5,-277.5 54.5,-258.5 205.5,-258.5 205.5,-277.5"/>
<text text-anchor="middle" x="130" y="-265.5" font-family="Helvetica,sans-Serif" font-size="10.00">JSystem/JAudio2/JAIAudible.h</text>
</a>
</g>
</g>
<!-- Node4&#45;&gt;Node9 -->
<g id="edge8" class="edge">
<title>Node4&#45;&gt;Node9</title>
<path fill="none" stroke="#63b8ff" d="M207.18,-318.62C192.88,-309.42 170.3,-294.91 153.25,-283.94"/>
<polygon fill="#63b8ff" stroke="#63b8ff" points="155.53,-281.25 145.22,-278.79 151.74,-287.14 155.53,-281.25"/>
</g>
<!-- Node16 -->
<g id="node16" class="node">
<title>Node16</title>
<g id="a_node16"><a xlink:href="global_8h.html" target="_top" xlink:title=" ">
<polygon fill="white" stroke="#666666" points="258,-211.5 208,-211.5 208,-192.5 258,-192.5 258,-211.5"/>
<text text-anchor="middle" x="233" y="-199.5" font-family="Helvetica,sans-Serif" font-size="10.00">global.h</text>
</a>
</g>
</g>
<!-- Node4&#45;&gt;Node16 -->
<g id="edge17" class="edge">
<title>Node4&#45;&gt;Node16</title>
<path fill="none" stroke="#63b8ff" d="M221.86,-318.55C223.77,-298.72 228.4,-250.68 231.05,-223.19"/>
<polygon fill="#63b8ff" stroke="#63b8ff" points="234.52,-223.67 232,-213.38 227.56,-223 234.52,-223.67"/>
</g>
<!-- Node6 -->
<g id="node6" class="node">
<title>Node6</title>
<g id="a_node6"><a xlink:href="JASSoundParams_8h.html" target="_top" xlink:title=" ">
<polygon fill="white" stroke="#666666" points="419.5,-217 276.5,-217 276.5,-187 419.5,-187 419.5,-217"/>
<text text-anchor="start" x="284.5" y="-205" font-family="Helvetica,sans-Serif" font-size="10.00">JSystem/JAudio2/JASSound</text>
<text text-anchor="middle" x="348" y="-194" font-family="Helvetica,sans-Serif" font-size="10.00">Params.h</text>
</a>
</g>
</g>
<!-- Node5&#45;&gt;Node6 -->
<g id="edge5" class="edge">
<title>Node5&#45;&gt;Node6</title>
<path fill="none" stroke="#63b8ff" d="M340.22,-252.8C341.35,-245.59 342.75,-236.61 344.05,-228.27"/>
<polygon fill="#63b8ff" stroke="#63b8ff" points="347.47,-229.08 345.55,-218.66 340.55,-228 347.47,-229.08"/>
</g>
<!-- Node6&#45;&gt;Node7 -->
<g id="edge6" class="edge">
<title>Node6&#45;&gt;Node7</title>
<path fill="none" stroke="#63b8ff" d="M359.86,-186.88C378.23,-165.02 413.51,-123.04 433.41,-99.36"/>
<polygon fill="#63b8ff" stroke="#63b8ff" points="435.95,-101.78 439.71,-91.87 430.59,-97.27 435.95,-101.78"/>
</g>
<!-- Node8 -->
<g id="node8" class="node">
<title>Node8</title>
<g id="a_node8"><a xlink:href="stddef_8h.html" target="_top" xlink:title=" ">
<polygon fill="white" stroke="#666666" points="516,-30 380,-30 380,0 516,0 516,-30"/>
<text text-anchor="start" x="388" y="-18" font-family="Helvetica,sans-Serif" font-size="10.00">MSL_C/MSL_Common/Src</text>
<text text-anchor="middle" x="448" y="-7" font-family="Helvetica,sans-Serif" font-size="10.00">/stddef.h</text>
</a>
</g>
</g>
<!-- Node7&#45;&gt;Node8 -->
<g id="edge7" class="edge">
<title>Node7&#45;&gt;Node8</title>
<path fill="none" stroke="#63b8ff" d="M448,-71.1C448,-63.41 448,-51.92 448,-41.42"/>
<polygon fill="#63b8ff" stroke="#63b8ff" points="451.5,-41.75 448,-31.75 444.5,-41.75 451.5,-41.75"/>
</g>
<!-- Node10 -->
<g id="node10" class="node">
<title>Node10</title>
<g id="a_node10"><a xlink:href="JGeometry_8h.html" target="_top" xlink:title=" ">
<polygon fill="white" stroke="#666666" points="188.5,-211.5 75.5,-211.5 75.5,-192.5 188.5,-192.5 188.5,-211.5"/>
<text text-anchor="middle" x="132" y="-199.5" font-family="Helvetica,sans-Serif" font-size="10.00">JSystem/JGeometry.h</text>
</a>
</g>
</g>
<!-- Node9&#45;&gt;Node10 -->
<g id="edge9" class="edge">
<title>Node9&#45;&gt;Node10</title>
<path fill="none" stroke="#63b8ff" d="M130.28,-258.1C130.56,-249.12 131,-234.95 131.37,-223.22"/>
<polygon fill="#63b8ff" stroke="#63b8ff" points="134.86,-223.44 131.68,-213.34 127.87,-223.22 134.86,-223.44"/>
</g>
<!-- Node11 -->
<g id="node11" class="node">
<title>Node11</title>
<g id="a_node11"><a xlink:href="vec_8h.html" target="_top" xlink:title=" ">
<polygon fill="white" stroke="#666666" points="318,-151 226,-151 226,-132 318,-132 318,-151"/>
<text text-anchor="middle" x="272" y="-139" font-family="Helvetica,sans-Serif" font-size="10.00">dolphin/mtx/vec.h</text>
</a>
</g>
</g>
<!-- Node10&#45;&gt;Node11 -->
<g id="edge10" class="edge">
<title>Node10&#45;&gt;Node11</title>
<path fill="none" stroke="#63b8ff" d="M153.26,-192.12C176.39,-182.45 213.61,-166.9 240.21,-155.78"/>
<polygon fill="#63b8ff" stroke="#63b8ff" points="241.26,-159.14 249.14,-152.05 238.56,-152.68 241.26,-159.14"/>
</g>
<!-- Node12 -->
<g id="node12" class="node">
<title>Node12</title>
<g id="a_node12"><a xlink:href="float_8h.html" target="_top" xlink:title=" ">
<polygon fill="white" stroke="#666666" points="78,-151 0,-151 0,-132 78,-132 78,-151"/>
<text text-anchor="middle" x="39" y="-139" font-family="Helvetica,sans-Serif" font-size="10.00">MSL_C/float.h</text>
</a>
</g>
</g>
<!-- Node10&#45;&gt;Node12 -->
<g id="edge12" class="edge">
<title>Node10&#45;&gt;Node12</title>
<path fill="none" stroke="#63b8ff" d="M117.88,-192.12C103.26,-182.92 80.18,-168.41 62.76,-157.44"/>
<polygon fill="#63b8ff" stroke="#63b8ff" points="64.87,-154.64 54.54,-152.27 61.14,-160.56 64.87,-154.64"/>
</g>
<!-- Node15 -->
<g id="node15" class="node">
<title>Node15</title>
<g id="a_node15"><a xlink:href="math_8h.html" target="_top" xlink:title=" ">
<polygon fill="white" stroke="#666666" points="178,-151 96,-151 96,-132 178,-132 178,-151"/>
<text text-anchor="middle" x="137" y="-139" font-family="Helvetica,sans-Serif" font-size="10.00">MSL_C/math.h</text>
</a>
</g>
</g>
<!-- Node10&#45;&gt;Node15 -->
<g id="edge15" class="edge">
<title>Node10&#45;&gt;Node15</title>
<path fill="none" stroke="#63b8ff" d="M132.74,-192.37C133.41,-184.5 134.43,-172.6 135.3,-162.39"/>
<polygon fill="#63b8ff" stroke="#63b8ff" points="138.77,-162.94 136.13,-152.68 131.79,-162.34 138.77,-162.94"/>
</g>
<!-- Node11&#45;&gt;Node7 -->
<g id="edge11" class="edge">
<title>Node11&#45;&gt;Node7</title>
<path fill="none" stroke="#63b8ff" d="M298.73,-131.62C328.45,-121.74 376.68,-105.71 410.25,-94.55"/>
<polygon fill="#63b8ff" stroke="#63b8ff" points="411.2,-97.92 419.58,-91.45 408.99,-91.28 411.2,-97.92"/>
</g>
<!-- Node13 -->
<g id="node13" class="node">
<title>Node13</title>
<g id="a_node13"><a xlink:href="MSL__Common_2Src_2float_8h.html" target="_top" xlink:title=" ">
<polygon fill="white" stroke="#666666" points="156,-96 20,-96 20,-66 156,-66 156,-96"/>
<text text-anchor="start" x="28" y="-84" font-family="Helvetica,sans-Serif" font-size="10.00">MSL_C/MSL_Common/Src</text>
<text text-anchor="middle" x="88" y="-73" font-family="Helvetica,sans-Serif" font-size="10.00">/float.h</text>
</a>
</g>
</g>
<!-- Node12&#45;&gt;Node13 -->
<g id="edge13" class="edge">
<title>Node12&#45;&gt;Node13</title>
<path fill="none" stroke="#63b8ff" d="M46.23,-131.87C52.2,-124.74 60.96,-114.28 68.91,-104.79"/>
<polygon fill="#63b8ff" stroke="#63b8ff" points="71.47,-107.19 75.21,-97.27 66.1,-102.69 71.47,-107.19"/>
</g>
<!-- Node14 -->
<g id="node14" class="node">
<title>Node14</title>
<g id="a_node14"><a xlink:href="fdlibm_8h.html" target="_top" xlink:title=" ">
<polygon fill="white" stroke="#666666" points="113,-24.5 63,-24.5 63,-5.5 113,-5.5 113,-24.5"/>
<text text-anchor="middle" x="88" y="-12.5" font-family="Helvetica,sans-Serif" font-size="10.00">fdlibm.h</text>
</a>
</g>
</g>
<!-- Node13&#45;&gt;Node14 -->
<g id="edge14" class="edge">
<title>Node13&#45;&gt;Node14</title>
<path fill="none" stroke="#63b8ff" d="M88,-65.8C88,-57.09 88,-45.81 88,-36.18"/>
<polygon fill="#63b8ff" stroke="#63b8ff" points="91.5,-36.36 88,-26.36 84.5,-36.36 91.5,-36.36"/>
</g>
<!-- Node15&#45;&gt;Node13 -->
<g id="edge16" class="edge">
<title>Node15&#45;&gt;Node13</title>
<path fill="none" stroke="#63b8ff" d="M129.77,-131.87C123.8,-124.74 115.04,-114.28 107.09,-104.79"/>
<polygon fill="#63b8ff" stroke="#63b8ff" points="109.9,-102.69 100.79,-97.27 104.53,-107.19 109.9,-102.69"/>
</g>
<!-- Node16&#45;&gt;Node7 -->
<g id="edge18" class="edge">
<title>Node16&#45;&gt;Node7</title>
<path fill="none" stroke="#63b8ff" d="M250.06,-192.12C268.96,-182.23 300.29,-165.72 327,-151 360.4,-132.6 398.55,-110.69 422.94,-96.58"/>
<polygon fill="#63b8ff" stroke="#63b8ff" points="424.6,-99.66 431.49,-91.62 421.08,-93.61 424.6,-99.66"/>
</g>
<!-- Node17&#45;&gt;Node7 -->
<g id="edge20" class="edge">
<title>Node17&#45;&gt;Node7</title>
<path fill="none" stroke="#63b8ff" d="M392.91,-318.64C400.08,-310.12 410.36,-296.56 416,-283 441.98,-220.54 447,-139.1 447.88,-101.99"/>
<polygon fill="#63b8ff" stroke="#63b8ff" points="451.37,-102.38 448.02,-92.33 444.37,-102.28 451.37,-102.38"/>
</g>
<!-- Node18&#45;&gt;Node7 -->
<g id="edge22" class="edge">
<title>Node18&#45;&gt;Node7</title>
<path fill="none" stroke="#63b8ff" d="M433.97,-379C443.74,-369.66 458.39,-354.17 467,-338 481.96,-309.93 486,-300.81 486,-269 486,-269 486,-269 486,-201 486,-164.27 469.36,-124.05 458.11,-101.03"/>
<polygon fill="#63b8ff" stroke="#63b8ff" points="461.31,-99.62 453.65,-92.29 455.07,-102.79 461.31,-99.62"/>
</g>
</g>
</svg>
