<?xml version="1.0" encoding="UTF-8" standalone="no"?>
<!DOCTYPE svg PUBLIC "-//W3C//DTD SVG 1.1//EN"
 "http://www.w3.org/Graphics/SVG/1.1/DTD/svg11.dtd">
<!-- Generated by graphviz version 7.0.5 (20221223.1930)
 -->
<!-- Title: include/Z2AudioLib/Z2WolfHowlMgr.h Pages: 1 -->
<svg width="525pt" height="478pt"
 viewBox="0.00 0.00 525.00 478.00" xmlns="http://www.w3.org/2000/svg" xmlns:xlink="http://www.w3.org/1999/xlink">
<g id="graph0" class="graph" transform="scale(1 1) rotate(0) translate(4 474)">
<title>include/Z2AudioLib/Z2WolfHowlMgr.h</title>
<!-- Node1 -->
<g id="node1" class="node">
<title>Node1</title>
<g id="a_node1"><a xlink:title=" ">
<polygon fill="#999999" stroke="#666666" points="407,-470 307,-470 307,-440 407,-440 407,-470"/>
<text text-anchor="start" x="315" y="-458" font-family="Helvetica,sans-Serif" font-size="10.00">include/Z2AudioLib</text>
<text text-anchor="middle" x="357" y="-447" font-family="Helvetica,sans-Serif" font-size="10.00">/Z2WolfHowlMgr.h</text>
</a>
</g>
</g>
<!-- Node2 -->
<g id="node2" class="node">
<title>Node2</title>
<g id="a_node2"><a xlink:href="JASGadget_8h.html" target="_top" xlink:title=" ">
<polygon fill="white" stroke="#666666" points="517,-398.5 363,-398.5 363,-379.5 517,-379.5 517,-398.5"/>
<text text-anchor="middle" x="440" y="-386.5" font-family="Helvetica,sans-Serif" font-size="10.00">JSystem/JAudio2/JASGadget.h</text>
</a>
</g>
</g>
<!-- Node1&#45;&gt;Node2 -->
<g id="edge1" class="edge">
<title>Node1&#45;&gt;Node2</title>
<path fill="none" stroke="#63b8ff" d="M375.42,-439.8C388.49,-429.72 406.03,-416.19 419.53,-405.78"/>
<polygon fill="#63b8ff" stroke="#63b8ff" points="421.55,-408.65 427.33,-399.77 417.28,-403.1 421.55,-408.65"/>
</g>
<!-- Node6 -->
<g id="node6" class="node">
<title>Node6</title>
<g id="a_node6"><a xlink:href="JAISoundHandles_8h.html" target="_top" xlink:title=" ">
<polygon fill="white" stroke="#666666" points="344.5,-404 205.5,-404 205.5,-374 344.5,-374 344.5,-404"/>
<text text-anchor="start" x="213.5" y="-392" font-family="Helvetica,sans-Serif" font-size="10.00">JSystem/JAudio2/JAISound</text>
<text text-anchor="middle" x="275" y="-381" font-family="Helvetica,sans-Serif" font-size="10.00">Handles.h</text>
</a>
</g>
</g>
<!-- Node1&#45;&gt;Node6 -->
<g id="edge5" class="edge">
<title>Node1&#45;&gt;Node6</title>
<path fill="none" stroke="#63b8ff" d="M338.8,-439.8C328.05,-431.4 314.23,-420.62 302.2,-411.23"/>
<polygon fill="#63b8ff" stroke="#63b8ff" points="304.66,-408.71 294.62,-405.32 300.35,-414.23 304.66,-408.71"/>
</g>
<!-- Node3 -->
<g id="node3" class="node">
<title>Node3</title>
<g id="a_node3"><a xlink:href="JUTAssert_8h.html" target="_top" xlink:title=" ">
<polygon fill="white" stroke="#666666" points="513,-338 367,-338 367,-319 513,-319 513,-338"/>
<text text-anchor="middle" x="440" y="-326" font-family="Helvetica,sans-Serif" font-size="10.00">JSystem/JUtility/JUTAssert.h</text>
</a>
</g>
</g>
<!-- Node2&#45;&gt;Node3 -->
<g id="edge2" class="edge">
<title>Node2&#45;&gt;Node3</title>
<path fill="none" stroke="#63b8ff" d="M440,-379.37C440,-371.5 440,-359.6 440,-349.39"/>
<polygon fill="#63b8ff" stroke="#63b8ff" points="443.5,-349.68 440,-339.68 436.5,-349.68 443.5,-349.68"/>
</g>
<!-- Node4 -->
<g id="node4" class="node">
<title>Node4</title>
<g id="a_node4"><a xlink:href="types_8h.html" target="_top" xlink:title=" ">
<polygon fill="white" stroke="#666666" points="375.5,-90.5 294.5,-90.5 294.5,-71.5 375.5,-71.5 375.5,-90.5"/>
<text text-anchor="middle" x="335" y="-78.5" font-family="Helvetica,sans-Serif" font-size="10.00">dolphin/types.h</text>
</a>
</g>
</g>
<!-- Node3&#45;&gt;Node4 -->
<g id="edge3" class="edge">
<title>Node3&#45;&gt;Node4</title>
<path fill="none" stroke="#63b8ff" d="M441.64,-318.82C445.52,-296.08 453.55,-233.34 434,-187 417.82,-148.66 380.95,-115.86 357.06,-97.56"/>
<polygon fill="#63b8ff" stroke="#63b8ff" points="359.34,-94.9 349.23,-91.75 355.17,-100.52 359.34,-94.9"/>
</g>
<!-- Node5 -->
<g id="node5" class="node">
<title>Node5</title>
<g id="a_node5"><a xlink:href="stddef_8h.html" target="_top" xlink:title=" ">
<polygon fill="white" stroke="#666666" points="403,-30 267,-30 267,0 403,0 403,-30"/>
<text text-anchor="start" x="275" y="-18" font-family="Helvetica,sans-Serif" font-size="10.00">MSL_C/MSL_Common/Src</text>
<text text-anchor="middle" x="335" y="-7" font-family="Helvetica,sans-Serif" font-size="10.00">/stddef.h</text>
</a>
</g>
</g>
<!-- Node4&#45;&gt;Node5 -->
<g id="edge4" class="edge">
<title>Node4&#45;&gt;Node5</title>
<path fill="none" stroke="#63b8ff" d="M335,-71.1C335,-63.41 335,-51.92 335,-41.42"/>
<polygon fill="#63b8ff" stroke="#63b8ff" points="338.5,-41.75 335,-31.75 331.5,-41.75 338.5,-41.75"/>
</g>
<!-- Node6&#45;&gt;Node3 -->
<g id="edge21" class="edge">
<title>Node6&#45;&gt;Node3</title>
<path fill="none" stroke="#63b8ff" d="M315.79,-373.54C343.01,-363.89 378.45,-351.32 404.51,-342.08"/>
<polygon fill="#63b8ff" stroke="#63b8ff" points="405.37,-345.49 413.62,-338.85 403.03,-338.89 405.37,-345.49"/>
</g>
<!-- Node7 -->
<g id="node7" class="node">
<title>Node7</title>
<g id="a_node7"><a xlink:href="JAISound_8h.html" target="_top" xlink:title=" ">
<polygon fill="white" stroke="#666666" points="332,-338 186,-338 186,-319 332,-319 332,-338"/>
<text text-anchor="middle" x="259" y="-326" font-family="Helvetica,sans-Serif" font-size="10.00">JSystem/JAudio2/JAISound.h</text>
</a>
</g>
</g>
<!-- Node6&#45;&gt;Node7 -->
<g id="edge6" class="edge">
<title>Node6&#45;&gt;Node7</title>
<path fill="none" stroke="#63b8ff" d="M271.04,-373.54C269.03,-366.17 266.55,-357.1 264.36,-349.11"/>
<polygon fill="#63b8ff" stroke="#63b8ff" points="267.79,-348.36 261.77,-339.64 261.03,-350.2 267.79,-348.36"/>
</g>
<!-- Node8 -->
<g id="node8" class="node">
<title>Node8</title>
<g id="a_node8"><a xlink:href="JAISoundParams_8h.html" target="_top" xlink:title=" ">
<polygon fill="white" stroke="#666666" points="416.5,-283 277.5,-283 277.5,-253 416.5,-253 416.5,-283"/>
<text text-anchor="start" x="285.5" y="-271" font-family="Helvetica,sans-Serif" font-size="10.00">JSystem/JAudio2/JAISound</text>
<text text-anchor="middle" x="347" y="-260" font-family="Helvetica,sans-Serif" font-size="10.00">Params.h</text>
</a>
</g>
</g>
<!-- Node7&#45;&gt;Node8 -->
<g id="edge7" class="edge">
<title>Node7&#45;&gt;Node8</title>
<path fill="none" stroke="#63b8ff" d="M272.37,-318.62C283.88,-310.96 300.96,-299.61 315.87,-289.69"/>
<polygon fill="#63b8ff" stroke="#63b8ff" points="317.63,-292.73 324.02,-284.28 313.75,-286.9 317.63,-292.73"/>
</g>
<!-- Node10 -->
<g id="node10" class="node">
<title>Node10</title>
<g id="a_node10"><a xlink:href="JAIAudible_8h.html" target="_top" xlink:title=" ">
<polygon fill="white" stroke="#666666" points="215.5,-277.5 64.5,-277.5 64.5,-258.5 215.5,-258.5 215.5,-277.5"/>
<text text-anchor="middle" x="140" y="-265.5" font-family="Helvetica,sans-Serif" font-size="10.00">JSystem/JAudio2/JAIAudible.h</text>
</a>
</g>
</g>
<!-- Node7&#45;&gt;Node10 -->
<g id="edge10" class="edge">
<title>Node7&#45;&gt;Node10</title>
<path fill="none" stroke="#63b8ff" d="M240.93,-318.62C221.71,-309.17 191.03,-294.09 168.54,-283.03"/>
<polygon fill="#63b8ff" stroke="#63b8ff" points="170.12,-279.91 159.6,-278.64 167.03,-286.19 170.12,-279.91"/>
</g>
<!-- Node17 -->
<g id="node17" class="node">
<title>Node17</title>
<g id="a_node17"><a xlink:href="global_8h.html" target="_top" xlink:title=" ">
<polygon fill="white" stroke="#666666" points="263,-211.5 213,-211.5 213,-192.5 263,-192.5 263,-211.5"/>
<text text-anchor="middle" x="238" y="-199.5" font-family="Helvetica,sans-Serif" font-size="10.00">global.h</text>
</a>
</g>
</g>
<!-- Node7&#45;&gt;Node17 -->
<g id="edge19" class="edge">
<title>Node7&#45;&gt;Node17</title>
<path fill="none" stroke="#63b8ff" d="M257.49,-318.55C254.14,-298.72 246.04,-250.68 241.41,-223.19"/>
<polygon fill="#63b8ff" stroke="#63b8ff" points="244.86,-222.64 239.75,-213.37 237.96,-223.81 244.86,-222.64"/>
</g>
<!-- Node9 -->
<g id="node9" class="node">
<title>Node9</title>
<g id="a_node9"><a xlink:href="JASSoundParams_8h.html" target="_top" xlink:title=" ">
<polygon fill="white" stroke="#666666" points="424.5,-217 281.5,-217 281.5,-187 424.5,-187 424.5,-217"/>
<text text-anchor="start" x="289.5" y="-205" font-family="Helvetica,sans-Serif" font-size="10.00">JSystem/JAudio2/JASSound</text>
<text text-anchor="middle" x="353" y="-194" font-family="Helvetica,sans-Serif" font-size="10.00">Params.h</text>
</a>
</g>
</g>
<!-- Node8&#45;&gt;Node9 -->
<g id="edge8" class="edge">
<title>Node8&#45;&gt;Node9</title>
<path fill="none" stroke="#63b8ff" d="M348.33,-252.8C349,-245.67 349.83,-236.82 350.6,-228.56"/>
<polygon fill="#63b8ff" stroke="#63b8ff" points="354.08,-228.95 351.53,-218.67 347.11,-228.3 354.08,-228.95"/>
</g>
<!-- Node9&#45;&gt;Node4 -->
<g id="edge9" class="edge">
<title>Node9&#45;&gt;Node4</title>
<path fill="none" stroke="#63b8ff" d="M350.86,-186.88C347.68,-165.8 341.66,-126 338.02,-101.95"/>
<polygon fill="#63b8ff" stroke="#63b8ff" points="341.5,-101.57 336.54,-92.21 334.58,-102.62 341.5,-101.57"/>
</g>
<!-- Node11 -->
<g id="node11" class="node">
<title>Node11</title>
<g id="a_node11"><a xlink:href="JGeometry_8h.html" target="_top" xlink:title=" ">
<polygon fill="white" stroke="#666666" points="194.5,-211.5 81.5,-211.5 81.5,-192.5 194.5,-192.5 194.5,-211.5"/>
<text text-anchor="middle" x="138" y="-199.5" font-family="Helvetica,sans-Serif" font-size="10.00">JSystem/JGeometry.h</text>
</a>
</g>
</g>
<!-- Node10&#45;&gt;Node11 -->
<g id="edge11" class="edge">
<title>Node10&#45;&gt;Node11</title>
<path fill="none" stroke="#63b8ff" d="M139.72,-258.1C139.44,-249.12 139,-234.95 138.63,-223.22"/>
<polygon fill="#63b8ff" stroke="#63b8ff" points="142.13,-223.22 138.32,-213.34 135.14,-223.44 142.13,-223.22"/>
</g>
<!-- Node12 -->
<g id="node12" class="node">
<title>Node12</title>
<g id="a_node12"><a xlink:href="vec_8h.html" target="_top" xlink:title=" ">
<polygon fill="white" stroke="#666666" points="288,-151 196,-151 196,-132 288,-132 288,-151"/>
<text text-anchor="middle" x="242" y="-139" font-family="Helvetica,sans-Serif" font-size="10.00">dolphin/mtx/vec.h</text>
</a>
</g>
</g>
<!-- Node11&#45;&gt;Node12 -->
<g id="edge12" class="edge">
<title>Node11&#45;&gt;Node12</title>
<path fill="none" stroke="#63b8ff" d="M153.8,-192.12C170.36,-182.79 196.67,-168 216.25,-156.99"/>
<polygon fill="#63b8ff" stroke="#63b8ff" points="217.74,-160.16 224.74,-152.21 214.31,-154.06 217.74,-160.16"/>
</g>
<!-- Node13 -->
<g id="node13" class="node">
<title>Node13</title>
<g id="a_node13"><a xlink:href="float_8h.html" target="_top" xlink:title=" ">
<polygon fill="white" stroke="#666666" points="78,-151 0,-151 0,-132 78,-132 78,-151"/>
<text text-anchor="middle" x="39" y="-139" font-family="Helvetica,sans-Serif" font-size="10.00">MSL_C/float.h</text>
</a>
</g>
</g>
<!-- Node11&#45;&gt;Node13 -->
<g id="edge14" class="edge">
<title>Node11&#45;&gt;Node13</title>
<path fill="none" stroke="#63b8ff" d="M122.96,-192.12C107.34,-182.88 82.61,-168.27 64.03,-157.29"/>
<polygon fill="#63b8ff" stroke="#63b8ff" points="65.87,-154.31 55.48,-152.24 62.31,-160.34 65.87,-154.31"/>
</g>
<!-- Node16 -->
<g id="node16" class="node">
<title>Node16</title>
<g id="a_node16"><a xlink:href="math_8h.html" target="_top" xlink:title=" ">
<polygon fill="white" stroke="#666666" points="178,-151 96,-151 96,-132 178,-132 178,-151"/>
<text text-anchor="middle" x="137" y="-139" font-family="Helvetica,sans-Serif" font-size="10.00">MSL_C/math.h</text>
</a>
</g>
</g>
<!-- Node11&#45;&gt;Node16 -->
<g id="edge17" class="edge">
<title>Node11&#45;&gt;Node16</title>
<path fill="none" stroke="#63b8ff" d="M137.85,-192.37C137.72,-184.5 137.51,-172.6 137.34,-162.39"/>
<polygon fill="#63b8ff" stroke="#63b8ff" points="140.84,-162.62 137.17,-152.68 133.85,-162.74 140.84,-162.62"/>
</g>
<!-- Node12&#45;&gt;Node4 -->
<g id="edge13" class="edge">
<title>Node12&#45;&gt;Node4</title>
<path fill="none" stroke="#63b8ff" d="M256.12,-131.62C270.74,-122.42 293.82,-107.91 311.24,-96.94"/>
<polygon fill="#63b8ff" stroke="#63b8ff" points="312.86,-100.06 319.46,-91.77 309.13,-94.14 312.86,-100.06"/>
</g>
<!-- Node14 -->
<g id="node14" class="node">
<title>Node14</title>
<g id="a_node14"><a xlink:href="MSL__Common_2Src_2float_8h.html" target="_top" xlink:title=" ">
<polygon fill="white" stroke="#666666" points="156,-96 20,-96 20,-66 156,-66 156,-96"/>
<text text-anchor="start" x="28" y="-84" font-family="Helvetica,sans-Serif" font-size="10.00">MSL_C/MSL_Common/Src</text>
<text text-anchor="middle" x="88" y="-73" font-family="Helvetica,sans-Serif" font-size="10.00">/float.h</text>
</a>
</g>
</g>
<!-- Node13&#45;&gt;Node14 -->
<g id="edge15" class="edge">
<title>Node13&#45;&gt;Node14</title>
<path fill="none" stroke="#63b8ff" d="M46.23,-131.87C52.2,-124.74 60.96,-114.28 68.91,-104.79"/>
<polygon fill="#63b8ff" stroke="#63b8ff" points="71.47,-107.19 75.21,-97.27 66.1,-102.69 71.47,-107.19"/>
</g>
<!-- Node15 -->
<g id="node15" class="node">
<title>Node15</title>
<g id="a_node15"><a xlink:href="fdlibm_8h.html" target="_top" xlink:title=" ">
<polygon fill="white" stroke="#666666" points="113,-24.5 63,-24.5 63,-5.5 113,-5.5 113,-24.5"/>
<text text-anchor="middle" x="88" y="-12.5" font-family="Helvetica,sans-Serif" font-size="10.00">fdlibm.h</text>
</a>
</g>
</g>
<!-- Node14&#45;&gt;Node15 -->
<g id="edge16" class="edge">
<title>Node14&#45;&gt;Node15</title>
<path fill="none" stroke="#63b8ff" d="M88,-65.8C88,-57.09 88,-45.81 88,-36.18"/>
<polygon fill="#63b8ff" stroke="#63b8ff" points="91.5,-36.36 88,-26.36 84.5,-36.36 91.5,-36.36"/>
</g>
<!-- Node16&#45;&gt;Node14 -->
<g id="edge18" class="edge">
<title>Node16&#45;&gt;Node14</title>
<path fill="none" stroke="#63b8ff" d="M129.77,-131.87C123.8,-124.74 115.04,-114.28 107.09,-104.79"/>
<polygon fill="#63b8ff" stroke="#63b8ff" points="109.9,-102.69 100.79,-97.27 104.53,-107.19 109.9,-102.69"/>
</g>
<!-- Node17&#45;&gt;Node4 -->
<g id="edge20" class="edge">
<title>Node17&#45;&gt;Node4</title>
<path fill="none" stroke="#63b8ff" d="M250.93,-192.19C263.75,-183 283.4,-167.63 297,-151 309.57,-135.63 320.11,-115.5 326.87,-100.95"/>
<polygon fill="#63b8ff" stroke="#63b8ff" points="329.96,-102.62 330.84,-92.06 323.57,-99.77 329.96,-102.62"/>
</g>
</g>
</svg>
